<?xml version="1.0" encoding="UTF-8" standalone="no"?>
<!DOCTYPE svg PUBLIC "-//W3C//DTD SVG 1.1//EN"
 "http://www.w3.org/Graphics/SVG/1.1/DTD/svg11.dtd">
<!-- Generated by graphviz version 12.2.1 (20241206.2353)
 -->
<!-- Title: App::RotationTableSerial Pages: 1 -->
<svg width="124pt" height="212pt"
 viewBox="0.00 0.00 124.00 212.00" xmlns="http://www.w3.org/2000/svg" xmlns:xlink="http://www.w3.org/1999/xlink">
<g id="graph0" class="graph" transform="scale(1 1) rotate(0) translate(4 208)">
<title>App::RotationTableSerial</title>
<!-- Node1 -->
<g id="Node000001" class="node">
<title>Node1</title>
<g id="a_Node000001"><a xlink:title="The RotationTableSerial class is responsible for managing the rotation table in serial mode.">
<polygon fill="#999999" stroke="none" points="116,-84 0,-84 0,0 116,0 116,-84"/>
<text text-anchor="start" x="4" y="-70.5" font-family="Helvetica,sans-Serif" font-size="10.00">App::RotationTableSerial</text>
<text text-anchor="start" x="56.5" y="-54.5" font-family="Helvetica,sans-Serif" font-size="10.00"> </text>
<text text-anchor="start" x="4.31" y="-38.5" font-family="Helvetica,sans-Serif" font-size="10.00">+</text>
<text text-anchor="start" x="14.62" y="-38.5" font-family="Helvetica,sans-Serif" font-size="10.00">RotationTableSerial()</text>
<text text-anchor="start" x="4.31" y="-22.5" font-family="Helvetica,sans-Serif" font-size="10.00">+</text>
<text text-anchor="start" x="14.62" y="-22.5" font-family="Helvetica,sans-Serif" font-size="10.00">~RotationTableSerial()</text>
<text text-anchor="start" x="4.31" y="-6.5" font-family="Helvetica,sans-Serif" font-size="10.00">+</text>
<text text-anchor="start" x="14.62" y="-6.5" font-family="Helvetica,sans-Serif" font-size="10.00">getName()</text>
<polygon fill="#666666" stroke="#666666" points="0,-66 0,-66 116,-66 116,-66 0,-66"/>
<polygon fill="#666666" stroke="#666666" points="0,-50 0,-50 116,-50 116,-50 0,-50"/>
<polygon fill="none" stroke="#666666" points="0,0 0,-84 116,-84 116,0 0,0"/>
</a>
</g>
</g>
<!-- Node2 -->
<g id="Node000002" class="node">
<title>Node2</title>
<g id="a_Node000002"><a xlink:href="../../dc/d98/a00225.html" target="_top" xlink:title="Base class for application components.">
<polygon fill="white" stroke="none" points="108.88,-204 7.13,-204 7.13,-120 108.88,-120 108.88,-204"/>
<text text-anchor="start" x="11.12" y="-190.5" font-family="Helvetica,sans-Serif" font-size="10.00">App::ApplicationBase</text>
<text text-anchor="start" x="56.5" y="-174.5" font-family="Helvetica,sans-Serif" font-size="10.00"> </text>
<text text-anchor="start" x="11.62" y="-158.5" font-family="Helvetica,sans-Serif" font-size="10.00">#</text>
<text text-anchor="start" x="21.38" y="-158.5" font-family="Helvetica,sans-Serif" font-size="10.00">ApplicationBase()</text>
<text text-anchor="start" x="11.62" y="-142.5" font-family="Helvetica,sans-Serif" font-size="10.00">#</text>
<text text-anchor="start" x="21.38" y="-142.5" font-family="Helvetica,sans-Serif" font-size="10.00">~ApplicationBase()</text>
<text text-anchor="start" x="11.62" y="-126.5" font-family="Helvetica,sans-Serif" font-size="10.00">#</text>
<text text-anchor="start" x="21.38" y="-126.5" font-family="Helvetica,sans-Serif" font-size="10.00">getName()</text>
<polygon fill="#666666" stroke="#666666" points="7.12,-186 7.12,-186 108.88,-186 108.88,-186 7.12,-186"/>
<polygon fill="#666666" stroke="#666666" points="7.12,-170 7.12,-170 108.88,-170 108.88,-170 7.12,-170"/>
<polygon fill="none" stroke="#666666" points="7.12,-120 7.12,-204 108.88,-204 108.88,-120 7.12,-120"/>
</a>
</g>
</g>
<!-- Node2&#45;&gt;Node1 -->
<g id="edge1_Node000001_Node000002" class="edge">
<title>Node2&#45;&gt;Node1</title>
<g id="a_edge1_Node000001_Node000002"><a xlink:title=" ">
<path fill="none" stroke="#63b8ff" d="M58,-108.55C58,-100.27 58,-91.83 58,-83.87"/>
<polygon fill="none" stroke="#63b8ff" points="54.5,-108.55 58,-118.55 61.5,-108.55 54.5,-108.55"/>
</a>
</g>
</g>
</g>
</svg>
