<?xml version="1.0" encoding="UTF-8" standalone="no"?>
<!DOCTYPE svg PUBLIC "-//W3C//DTD SVG 1.1//EN"
 "http://www.w3.org/Graphics/SVG/1.1/DTD/svg11.dtd">
<!-- Generated by graphviz version 13.1.0 (20250701.0955)
 -->
<!-- Title: ParametersBase.hpp Pages: 1 -->
<svg width="417pt" height="140pt"
 viewBox="0.00 0.00 417.00 140.00" xmlns="http://www.w3.org/2000/svg" xmlns:xlink="http://www.w3.org/1999/xlink">
<g id="graph0" class="graph" transform="scale(1 1) rotate(0) translate(4 136)">
<title>ParametersBase.hpp</title>
<!-- Node1 -->
<g id="Node000001" class="node">
<title>Node1</title>
<g id="a_Node000001"><a xlink:title="ParametersBase class for system parameter management.">
<polygon fill="#999999" stroke="#666666" points="220.88,-132 113.38,-132 113.38,-112 220.88,-112 220.88,-132"/>
<text xml:space="preserve" text-anchor="middle" x="167.12" y="-118.5" font-family="Helvetica,sans-Serif" font-size="10.00">ParametersBase.hpp</text>
</a>
</g>
</g>
<!-- Node2 -->
<g id="Node000002" class="node">
<title>Node2</title>
<g id="a_Node000002"><a xlink:title=" ">
<polygon fill="#e0e0e0" stroke="#999999" points="48.25,-76 0,-76 0,-56 48.25,-56 48.25,-76"/>
<text xml:space="preserve" text-anchor="middle" x="24.12" y="-62.5" font-family="Helvetica,sans-Serif" font-size="10.00">cassert</text>
</a>
</g>
</g>
<!-- Node1&#45;&gt;Node2 -->
<g id="edge1_Node000001_Node000002" class="edge">
<title>Node1&#45;&gt;Node2</title>
<g id="a_edge1_Node000001_Node000002"><a xlink:title=" ">
<path fill="none" stroke="#63b8ff" d="M142.22,-111.59C119.25,-102.92 84.93,-89.96 59.19,-80.24"/>
<polygon fill="#63b8ff" stroke="#63b8ff" points="60.76,-77.09 50.16,-76.83 58.28,-83.64 60.76,-77.09"/>
</a>
</g>
</g>
<!-- Node3 -->
<g id="Node000003" class="node">
<title>Node3</title>
<g id="a_Node000003"><a xlink:title=" ">
<polygon fill="#e0e0e0" stroke="#999999" points="114.25,-76 66,-76 66,-56 114.25,-56 114.25,-76"/>
<text xml:space="preserve" text-anchor="middle" x="90.12" y="-62.5" font-family="Helvetica,sans-Serif" font-size="10.00">cstddef</text>
</a>
</g>
</g>
<!-- Node1&#45;&gt;Node3 -->
<g id="edge2_Node000001_Node000003" class="edge">
<title>Node1&#45;&gt;Node3</title>
<g id="a_edge2_Node000001_Node000003"><a xlink:title=" ">
<path fill="none" stroke="#63b8ff" d="M153.71,-111.59C142.52,-103.74 126.31,-92.38 113.07,-83.09"/>
<polygon fill="#63b8ff" stroke="#63b8ff" points="115.08,-80.22 104.88,-77.35 111.06,-85.96 115.08,-80.22"/>
</a>
</g>
</g>
<!-- Node4 -->
<g id="Node000004" class="node">
<title>Node4</title>
<g id="a_Node000004"><a xlink:title=" ">
<polygon fill="#e0e0e0" stroke="#999999" points="241.75,-20 196.5,-20 196.5,0 241.75,0 241.75,-20"/>
<text xml:space="preserve" text-anchor="middle" x="219.12" y="-6.5" font-family="Helvetica,sans-Serif" font-size="10.00">cstdint</text>
</a>
</g>
</g>
<!-- Node1&#45;&gt;Node4 -->
<g id="edge3_Node000001_Node000004" class="edge">
<title>Node1&#45;&gt;Node4</title>
<g id="a_edge3_Node000001_Node000004"><a xlink:title=" ">
<path fill="none" stroke="#63b8ff" d="M163.32,-111.62C158.62,-98.46 152.25,-74.12 161.12,-56 167.2,-43.61 178.51,-33.65 189.54,-26.28"/>
<polygon fill="#63b8ff" stroke="#63b8ff" points="191.03,-29.47 197.73,-21.27 187.38,-23.5 191.03,-29.47"/>
</a>
</g>
</g>
<!-- Node5 -->
<g id="Node000005" class="node">
<title>Node5</title>
<g id="a_Node000005"><a xlink:title=" ">
<polygon fill="#e0e0e0" stroke="#999999" points="215.75,-76 170.5,-76 170.5,-56 215.75,-56 215.75,-76"/>
<text xml:space="preserve" text-anchor="middle" x="193.12" y="-62.5" font-family="Helvetica,sans-Serif" font-size="10.00">cstring</text>
</a>
</g>
</g>
<!-- Node1&#45;&gt;Node5 -->
<g id="edge4_Node000001_Node000005" class="edge">
<title>Node1&#45;&gt;Node5</title>
<g id="a_edge4_Node000001_Node000005"><a xlink:title=" ">
<path fill="none" stroke="#63b8ff" d="M171.65,-111.59C174.97,-104.7 179.59,-95.1 183.7,-86.57"/>
<polygon fill="#63b8ff" stroke="#63b8ff" points="186.81,-88.19 187.99,-77.66 180.5,-85.15 186.81,-88.19"/>
</a>
</g>
</g>
<!-- Node6 -->
<g id="Node000006" class="node">
<title>Node6</title>
<g id="a_Node000006"><a xlink:title=" ">
<polygon fill="#e0e0e0" stroke="#999999" points="284.75,-76 233.5,-76 233.5,-56 284.75,-56 284.75,-76"/>
<text xml:space="preserve" text-anchor="middle" x="259.12" y="-62.5" font-family="Helvetica,sans-Serif" font-size="10.00">memory</text>
</a>
</g>
</g>
<!-- Node1&#45;&gt;Node6 -->
<g id="edge5_Node000001_Node000006" class="edge">
<title>Node1&#45;&gt;Node6</title>
<g id="a_edge5_Node000001_Node000006"><a xlink:title=" ">
<path fill="none" stroke="#63b8ff" d="M183.15,-111.59C196.92,-103.51 217.03,-91.71 233.1,-82.27"/>
<polygon fill="#63b8ff" stroke="#63b8ff" points="234.82,-85.33 241.67,-77.25 231.27,-79.29 234.82,-85.33"/>
</a>
</g>
</g>
<!-- Node7 -->
<g id="Node000007" class="node">
<title>Node7</title>
<g id="a_Node000007"><a xlink:href="../../d4/d31/crc16_8hpp.html" target="_top" xlink:title="CRC&#45;16 calculation utility.">
<polygon fill="white" stroke="#666666" points="409.12,-76 303.12,-76 303.12,-56 409.12,-56 409.12,-76"/>
<text xml:space="preserve" text-anchor="middle" x="356.12" y="-62.5" font-family="Helvetica,sans-Serif" font-size="10.00">Lib/Helper/crc16.hpp</text>
</a>
</g>
</g>
<!-- Node1&#45;&gt;Node7 -->
<g id="edge6_Node000001_Node000007" class="edge">
<title>Node1&#45;&gt;Node7</title>
<g id="a_edge6_Node000001_Node000007"><a xlink:title=" ">
<path fill="none" stroke="#63b8ff" d="M200.05,-111.59C231.16,-102.71 278.04,-89.31 312.3,-79.52"/>
<polygon fill="#63b8ff" stroke="#63b8ff" points="312.84,-83.01 321.49,-76.9 310.91,-76.28 312.84,-83.01"/>
</a>
</g>
</g>
<!-- Node7&#45;&gt;Node4 -->
<g id="edge8_Node000007_Node000004" class="edge">
<title>Node7&#45;&gt;Node4</title>
<g id="a_edge8_Node000007_Node000004"><a xlink:title=" ">
<path fill="none" stroke="#63b8ff" d="M332.26,-55.59C310.19,-46.89 277.17,-33.88 252.49,-24.15"/>
<polygon fill="#63b8ff" stroke="#63b8ff" points="253.8,-20.91 243.21,-20.49 251.23,-27.42 253.8,-20.91"/>
</a>
</g>
</g>
<!-- Node8 -->
<g id="Node000008" class="node">
<title>Node8</title>
<g id="a_Node000008"><a xlink:title=" ">
<polygon fill="#e0e0e0" stroke="#999999" points="346,-20 308.25,-20 308.25,0 346,0 346,-20"/>
<text xml:space="preserve" text-anchor="middle" x="327.12" y="-6.5" font-family="Helvetica,sans-Serif" font-size="10.00">array</text>
</a>
</g>
</g>
<!-- Node7&#45;&gt;Node8 -->
<g id="edge7_Node000007_Node000008" class="edge">
<title>Node7&#45;&gt;Node8</title>
<g id="a_edge7_Node000007_Node000008"><a xlink:title=" ">
<path fill="none" stroke="#63b8ff" d="M351.07,-55.59C347.33,-48.63 342.1,-38.89 337.48,-30.29"/>
<polygon fill="#63b8ff" stroke="#63b8ff" points="340.65,-28.79 332.83,-21.63 334.48,-32.1 340.65,-28.79"/>
</a>
</g>
</g>
<!-- Node9 -->
<g id="Node000009" class="node">
<title>Node9</title>
<g id="a_Node000009"><a xlink:title=" ">
<polygon fill="#e0e0e0" stroke="#999999" points="406.62,-20 363.62,-20 363.62,0 406.62,0 406.62,-20"/>
<text xml:space="preserve" text-anchor="middle" x="385.12" y="-6.5" font-family="Helvetica,sans-Serif" font-size="10.00">vector</text>
</a>
</g>
</g>
<!-- Node7&#45;&gt;Node9 -->
<g id="edge9_Node000007_Node000009" class="edge">
<title>Node7&#45;&gt;Node9</title>
<g id="a_edge9_Node000007_Node000009"><a xlink:title=" ">
<path fill="none" stroke="#63b8ff" d="M361.18,-55.59C364.92,-48.63 370.15,-38.89 374.77,-30.29"/>
<polygon fill="#63b8ff" stroke="#63b8ff" points="377.77,-32.1 379.42,-21.63 371.6,-28.79 377.77,-32.1"/>
</a>
</g>
</g>
</g>
</svg>
