<?xml version="1.0" encoding="UTF-8" standalone="no"?>
<!DOCTYPE svg PUBLIC "-//W3C//DTD SVG 1.1//EN"
 "http://www.w3.org/Graphics/SVG/1.1/DTD/svg11.dtd">
<!-- Generated by graphviz version 13.1.0 (20250701.0955)
 -->
<!-- Title: Lib::BSP::Termometer::DTH::Driver&lt; Type::DTH22 &gt;::Diagnostic Pages: 1 -->
<svg width="250pt" height="174pt"
 viewBox="0.00 0.00 250.00 174.00" xmlns="http://www.w3.org/2000/svg" xmlns:xlink="http://www.w3.org/1999/xlink">
<g id="graph0" class="graph" transform="scale(1 1) rotate(0) translate(4 170)">
<title>Lib::BSP::Termometer::DTH::Driver&lt; Type::DTH22 &gt;::Diagnostic</title>
<!-- Node1 -->
<g id="Node000001" class="node">
<title>Node1</title>
<g id="a_Node000001"><a xlink:title="Diagnostic counters for DTH22 driver.">
<polygon fill="#999999" stroke="none" points="137.62,-44 32.88,-44 32.88,0 137.62,0 137.62,-44"/>
<text xml:space="preserve" text-anchor="start" x="36.88" y="-30.5" font-family="Helvetica,sans-Serif" font-size="10.00">Lib::BSP::Termometer</text>
<text xml:space="preserve" text-anchor="start" x="36.88" y="-18.5" font-family="Helvetica,sans-Serif" font-size="10.00">::DTH::Driver&lt; Type::</text>
<text xml:space="preserve" text-anchor="start" x="38.75" y="-6.5" font-family="Helvetica,sans-Serif" font-size="10.00">DTH22 &gt;::Diagnostic</text>
<polygon fill="none" stroke="#666666" points="32.88,0 32.88,-44 137.62,-44 137.62,0 32.88,0"/>
</a>
</g>
</g>
<!-- Node2 -->
<g id="Node000002" class="node">
<title>Node2</title>
<g id="a_Node000002"><a xlink:title=" ">
<polygon fill="white" stroke="none" points="42.5,-166 0,-166 0,-146 42.5,-146 42.5,-166"/>
<text xml:space="preserve" text-anchor="start" x="4" y="-152.5" font-family="Helvetica,sans-Serif" font-size="10.00">uint32_t</text>
<polygon fill="none" stroke="#bfbfbf" points="0,-146 0,-166 42.5,-166 42.5,-146 0,-146"/>
</a>
</g>
</g>
<!-- Node2&#45;&gt;Node1 -->
<g id="edge1_Node000001_Node000002" class="edge">
<title>Node2&#45;&gt;Node1</title>
<g id="a_edge1_Node000001_Node000002"><a xlink:title=" ">
<path fill="none" stroke="#63b8ff" d="M18.72,-146.08C14.32,-128.62 7.1,-89.28 22.5,-62 24.46,-58.54 26.86,-55.34 29.57,-52.4"/>
<polygon fill="none" stroke="#63b8ff" points="29.51,-52.45 31.31,-45.47 38.45,-44.45 36.65,-51.43 29.51,-52.45"/>
</a>
</g>
<text xml:space="preserve" text-anchor="start" x="25.5" y="-115.5" font-family="Helvetica,sans-Serif" font-size="10.00" fill="grey">+invalidFrameChkSum</text>
<text xml:space="preserve" text-anchor="start" x="25.5" y="-99.5" font-family="Helvetica,sans-Serif" font-size="10.00" fill="grey">+invalidHumidity</text>
<text xml:space="preserve" text-anchor="start" x="25.5" y="-83.5" font-family="Helvetica,sans-Serif" font-size="10.00" fill="grey">+invalidTemperature</text>
<text xml:space="preserve" text-anchor="start" x="25.5" y="-67.5" font-family="Helvetica,sans-Serif" font-size="10.00" fill="grey">+receivedTimeout</text>
</g>
<!-- Node3 -->
<g id="Node000003" class="node">
<title>Node3</title>
<g id="a_Node000003"><a xlink:title=" ">
<polygon fill="white" stroke="none" points="168.88,-166 131.62,-166 131.62,-146 168.88,-146 168.88,-166"/>
<text xml:space="preserve" text-anchor="start" x="135.62" y="-152.5" font-family="Helvetica,sans-Serif" font-size="10.00">uint8_t</text>
<polygon fill="none" stroke="#bfbfbf" points="131.62,-146 131.62,-166 168.88,-166 168.88,-146 131.62,-146"/>
</a>
</g>
</g>
<!-- Node3&#45;&gt;Node1 -->
<g id="edge2_Node000001_Node000003" class="edge">
<title>Node3&#45;&gt;Node1</title>
<g id="a_edge2_Node000001_Node000003"><a xlink:title=" ">
<path fill="none" stroke="#63b8ff" d="M149.88,-146.16C148.81,-128.83 144.61,-89.72 128.25,-62 126.49,-59.01 124.42,-56.12 122.16,-53.36"/>
<polygon fill="none" stroke="#63b8ff" points="122.17,-53.37 115.15,-51.72 113.97,-44.6 120.99,-46.25 122.17,-53.37"/>
</a>
</g>
<text xml:space="preserve" text-anchor="start" x="150.97" y="-99.5" font-family="Helvetica,sans-Serif" font-size="10.00" fill="grey">+calculatedChkSum</text>
<text xml:space="preserve" text-anchor="start" x="150.97" y="-83.5" font-family="Helvetica,sans-Serif" font-size="10.00" fill="grey">+frameChkSum</text>
</g>
</g>
</svg>
