<?xml version="1.0" encoding="UTF-8" standalone="no"?>
<!DOCTYPE svg PUBLIC "-//W3C//DTD SVG 1.1//EN"
 "http://www.w3.org/Graphics/SVG/1.1/DTD/svg11.dtd">
<!-- Generated by graphviz version 13.1.0 (20250701.0955)
 -->
<!-- Title: Lib::FreeRTOS::SemaphoreBase Pages: 1 -->
<svg width="150pt" height="355pt"
 viewBox="0.00 0.00 150.00 355.00" xmlns="http://www.w3.org/2000/svg" xmlns:xlink="http://www.w3.org/1999/xlink">
<g id="graph0" class="graph" transform="scale(1 1) rotate(0) translate(4 350.5)">
<title>Lib::FreeRTOS::SemaphoreBase</title>
<!-- Node1 -->
<g id="Node000001" class="node">
<title>Node1</title>
<g id="a_Node000001"><a xlink:title="Abstract base class for FreeRTOS semaphore wrappers.">
<polygon fill="#999999" stroke="none" points="141.5,-246.5 0,-246.5 0,0 141.5,0 141.5,-246.5"/>
<text xml:space="preserve" text-anchor="start" x="4" y="-233.95" font-family="Arial" font-size="9.00">Lib::FreeRTOS::SemaphoreBase</text>
<text xml:space="preserve" text-anchor="start" x="69.62" y="-219.45" font-family="Arial" font-size="9.00"> </text>
<text xml:space="preserve" text-anchor="start" x="6.38" y="-204.95" font-family="Arial" font-size="9.00">#</text>
<text xml:space="preserve" text-anchor="start" x="18" y="-204.95" font-family="Arial" font-size="9.00">SemaphoreBase()</text>
<text xml:space="preserve" text-anchor="start" x="6.38" y="-190.45" font-family="Arial" font-size="9.00">#</text>
<text xml:space="preserve" text-anchor="start" x="18" y="-190.45" font-family="Arial" font-size="9.00">SemaphoreBase()</text>
<text xml:space="preserve" text-anchor="start" x="6.38" y="-175.95" font-family="Arial" font-size="9.00">#</text>
<text xml:space="preserve" text-anchor="start" x="18" y="-175.95" font-family="Arial" font-size="9.00">operator=()</text>
<text xml:space="preserve" text-anchor="start" x="6.38" y="-161.45" font-family="Arial" font-size="9.00">#</text>
<text xml:space="preserve" text-anchor="start" x="18" y="-161.45" font-family="Arial" font-size="9.00">SemaphoreBase()</text>
<text xml:space="preserve" text-anchor="start" x="6.38" y="-146.95" font-family="Arial" font-size="9.00">#</text>
<text xml:space="preserve" text-anchor="start" x="18" y="-146.95" font-family="Arial" font-size="9.00">operator=()</text>
<text xml:space="preserve" text-anchor="start" x="6.38" y="-132.45" font-family="Arial" font-size="9.00">#</text>
<text xml:space="preserve" text-anchor="start" x="18" y="-132.45" font-family="Arial" font-size="9.00">~SemaphoreBase()</text>
<text xml:space="preserve" text-anchor="start" x="6.38" y="-117.95" font-family="Arial" font-size="9.00">#</text>
<text xml:space="preserve" text-anchor="start" x="18" y="-117.95" font-family="Arial" font-size="9.00">create()</text>
<text xml:space="preserve" text-anchor="start" x="6.38" y="-103.45" font-family="Arial" font-size="9.00">#</text>
<text xml:space="preserve" text-anchor="start" x="18" y="-103.45" font-family="Arial" font-size="9.00">release()</text>
<text xml:space="preserve" text-anchor="start" x="6.38" y="-88.95" font-family="Arial" font-size="9.00">#</text>
<text xml:space="preserve" text-anchor="start" x="18" y="-88.95" font-family="Arial" font-size="9.00">take()</text>
<text xml:space="preserve" text-anchor="start" x="6.38" y="-74.45" font-family="Arial" font-size="9.00">#</text>
<text xml:space="preserve" text-anchor="start" x="18" y="-74.45" font-family="Arial" font-size="9.00">give()</text>
<text xml:space="preserve" text-anchor="start" x="6.38" y="-59.95" font-family="Arial" font-size="9.00">#</text>
<text xml:space="preserve" text-anchor="start" x="18" y="-59.95" font-family="Arial" font-size="9.00">takeFromISR()</text>
<text xml:space="preserve" text-anchor="start" x="6.38" y="-45.45" font-family="Arial" font-size="9.00">#</text>
<text xml:space="preserve" text-anchor="start" x="18" y="-45.45" font-family="Arial" font-size="9.00">giveFromISR()</text>
<text xml:space="preserve" text-anchor="start" x="6.38" y="-30.95" font-family="Arial" font-size="9.00">#</text>
<text xml:space="preserve" text-anchor="start" x="18" y="-30.95" font-family="Arial" font-size="9.00">operator SemaphoreHandle</text>
<text xml:space="preserve" text-anchor="start" x="18" y="-20.45" font-family="Arial" font-size="9.00">_t &amp;()</text>
<text xml:space="preserve" text-anchor="start" x="6.38" y="-5.95" font-family="Arial" font-size="9.00">#</text>
<text xml:space="preserve" text-anchor="start" x="18" y="-5.95" font-family="Arial" font-size="9.00">isCreated()</text>
<polygon fill="#666666" stroke="#666666" points="0,-230 0,-230 141.5,-230 141.5,-230 0,-230"/>
<polygon fill="#666666" stroke="#666666" points="0,-215.5 0,-215.5 141.5,-215.5 141.5,-215.5 0,-215.5"/>
<polygon fill="none" stroke="#666666" points="0,0 0,-246.5 141.5,-246.5 141.5,0 0,0"/>
</a>
</g>
</g>
<!-- Node2 -->
<g id="Node000002" class="node">
<title>Node2</title>
<g id="a_Node000002"><a xlink:title=" ">
<polygon fill="white" stroke="none" points="117.5,-346.5 24,-346.5 24,-299 117.5,-299 117.5,-346.5"/>
<text xml:space="preserve" text-anchor="start" x="28" y="-333.95" font-family="Arial" font-size="9.00">SemaphoreHandle_t</text>
<text xml:space="preserve" text-anchor="start" x="69.62" y="-319.45" font-family="Arial" font-size="9.00"> </text>
<text xml:space="preserve" text-anchor="start" x="69.62" y="-304.95" font-family="Arial" font-size="9.00"> </text>
<polygon fill="#bfbfbf" stroke="#bfbfbf" points="24,-330 24,-330 117.5,-330 117.5,-330 24,-330"/>
<polygon fill="#bfbfbf" stroke="#bfbfbf" points="24,-315.5 24,-315.5 117.5,-315.5 117.5,-315.5 24,-315.5"/>
<polygon fill="none" stroke="#bfbfbf" points="24,-299 24,-346.5 117.5,-346.5 117.5,-299 24,-299"/>
</a>
</g>
</g>
<!-- Node2&#45;&gt;Node1 -->
<g id="edge1_Node000001_Node000002" class="edge">
<title>Node2&#45;&gt;Node1</title>
<g id="a_edge1_Node000001_Node000002"><a xlink:title=" ">
<path fill="none" stroke="#63b8ff" d="M70.75,-299.09C70.75,-288.33 70.75,-274.5 70.75,-259.35"/>
<polygon fill="none" stroke="#63b8ff" points="70.75,-259.25 66.75,-253.25 70.75,-247.25 74.75,-253.25 70.75,-259.25"/>
</a>
</g>
<text xml:space="preserve" text-anchor="start" x="73.75" y="-269.45" font-family="Arial" font-size="9.00" fill="grey">#handle</text>
</g>
</g>
</svg>
