<?xml version="1.0" encoding="UTF-8" standalone="no"?>
<!DOCTYPE svg PUBLIC "-//W3C//DTD SVG 1.1//EN"
 "http://www.w3.org/Graphics/SVG/1.1/DTD/svg11.dtd">
<!-- Generated by graphviz version 12.2.1 (20241206.2353)
 -->
<!-- Title: FOE_error Pages: 1 -->
<svg width="294pt" height="66pt"
 viewBox="0.00 0.00 293.75 66.00" xmlns="http://www.w3.org/2000/svg" xmlns:xlink="http://www.w3.org/1999/xlink">
<g id="graph0" class="graph" transform="scale(1 1) rotate(0) translate(4 62)">
<title>FOE_error</title>
<!-- Node1 -->
<g id="Node000001" class="node">
<title>Node1</title>
<g id="a_Node000001"><a xlink:title="FoE error request handler. Send an FOE Abort.">
<polygon fill="#999999" stroke="#666666" points="61,-39 0,-39 0,-19 61,-19 61,-39"/>
<text text-anchor="middle" x="30.5" y="-25.5" font-family="Helvetica,sans-Serif" font-size="10.00">FOE_error</text>
</a>
</g>
</g>
<!-- Node2 -->
<g id="Node000002" class="node">
<title>Node2</title>
<g id="a_Node000002"><a xlink:href="../../d8/d41/a00038.html#aa0a0cb7fec14e1860220a272c82152c1" target="_top" xlink:title="Function for sending an FOE abort frame.">
<polygon fill="white" stroke="#666666" points="160.25,-39 97,-39 97,-19 160.25,-19 160.25,-39"/>
<text text-anchor="middle" x="128.62" y="-25.5" font-family="Helvetica,sans-Serif" font-size="10.00">FOE_abort</text>
</a>
</g>
</g>
<!-- Node1&#45;&gt;Node2 -->
<g id="edge1_Node000001_Node000002" class="edge">
<title>Node1&#45;&gt;Node2</title>
<g id="a_edge1_Node000001_Node000002"><a xlink:title=" ">
<path fill="none" stroke="#63b8ff" d="M61.39,-29C69.03,-29 77.39,-29 85.52,-29"/>
<polygon fill="#63b8ff" stroke="#63b8ff" points="85.25,-32.5 95.25,-29 85.25,-25.5 85.25,-32.5"/>
</a>
</g>
</g>
<!-- Node3 -->
<g id="Node000003" class="node">
<title>Node3</title>
<g id="a_Node000003"><a xlink:href="../../d2/de7/a00014.html#a841fc5ea333edff6f722521e0cc257b0" target="_top" xlink:title="Claims a buffer for ESC (EtherCAT Slave Controller) operations.">
<polygon fill="white" stroke="#666666" points="285.75,-58 196.25,-58 196.25,-38 285.75,-38 285.75,-58"/>
<text text-anchor="middle" x="241" y="-44.5" font-family="Helvetica,sans-Serif" font-size="10.00">ESC_claimbuffer</text>
</a>
</g>
</g>
<!-- Node2&#45;&gt;Node3 -->
<g id="edge2_Node000002_Node000003" class="edge">
<title>Node2&#45;&gt;Node3</title>
<g id="a_edge2_Node000002_Node000003"><a xlink:title=" ">
<path fill="none" stroke="#63b8ff" d="M160.66,-34.34C168.2,-35.64 176.49,-37.07 184.78,-38.49"/>
<polygon fill="#63b8ff" stroke="#63b8ff" points="184.08,-41.92 194.53,-40.17 185.26,-35.03 184.08,-41.92"/>
</a>
</g>
</g>
<!-- Node4 -->
<g id="Node000004" class="node">
<title>Node4</title>
<g id="a_Node000004"><a xlink:href="../../d8/d41/a00038.html#ab759787663f3dbf3eefc2d7d4ebb7a48" target="_top" xlink:title="Initialize by clearing all current status variables.">
<polygon fill="white" stroke="#666666" points="268.12,-20 213.88,-20 213.88,0 268.12,0 268.12,-20"/>
<text text-anchor="middle" x="241" y="-6.5" font-family="Helvetica,sans-Serif" font-size="10.00">FOE_init</text>
</a>
</g>
</g>
<!-- Node2&#45;&gt;Node4 -->
<g id="edge3_Node000002_Node000004" class="edge">
<title>Node2&#45;&gt;Node4</title>
<g id="a_edge3_Node000002_Node000004"><a xlink:title=" ">
<path fill="none" stroke="#63b8ff" d="M160.66,-23.66C173.72,-21.41 189.01,-18.78 202.67,-16.43"/>
<polygon fill="#63b8ff" stroke="#63b8ff" points="202.92,-19.93 212.18,-14.79 201.73,-13.04 202.92,-19.93"/>
</a>
</g>
</g>
</g>
</svg>
