<?xml version="1.0" encoding="UTF-8" standalone="no"?>
<!DOCTYPE svg PUBLIC "-//W3C//DTD SVG 1.1//EN"
 "http://www.w3.org/Graphics/SVG/1.1/DTD/svg11.dtd">
<!-- Generated by graphviz version 10.0.1 (20240210.2158)
 -->
<!-- Title: ApplicationBase.hpp Pages: 1 -->
<svg width="2663pt" height="232pt"
 viewBox="0.00 0.00 2662.88 232.00" xmlns="http://www.w3.org/2000/svg" xmlns:xlink="http://www.w3.org/1999/xlink">
<g id="graph0" class="graph" transform="scale(1 1) rotate(0) translate(4 228)">
<title>ApplicationBase.hpp</title>
<!-- Node1 -->
<g id="Node000001" class="node">
<title>Node1</title>
<g id="a_Node000001"><a xlink:title="This file contains the definition of the ApplicationBase class, which serves as a base class for Xbee...">
<polygon fill="#999999" stroke="#666666" points="1575.25,-224 1470,-224 1470,-204 1575.25,-204 1575.25,-224"/>
<text text-anchor="middle" x="1522.62" y="-210.5" font-family="Helvetica,sans-Serif" font-size="10.00">ApplicationBase.hpp</text>
</a>
</g>
</g>
<!-- Node2 -->
<g id="Node000002" class="node">
<title>Node2</title>
<g id="a_Node000002"><a xlink:href="../../d1/dc1/a00092.html" target="_top" xlink:title="Defines the Connection class and its nested classes for managing and monitoring XBee connections.">
<polygon fill="white" stroke="#666666" points="1013.38,-162 929.88,-162 929.88,-142 1013.38,-142 1013.38,-162"/>
<text text-anchor="middle" x="971.62" y="-148.5" font-family="Helvetica,sans-Serif" font-size="10.00">Connection.hpp</text>
</a>
</g>
</g>
<!-- Node1&#45;&gt;Node2 -->
<g id="edge1_Node000001_Node000002" class="edge">
<title>Node1&#45;&gt;Node2</title>
<g id="a_edge1_Node000001_Node000002"><a xlink:title=" ">
<path fill="none" stroke="#63b8ff" d="M1469.55,-207.99C1387.41,-200.12 1224.56,-184.11 1086.62,-168 1066.49,-165.65 1044.41,-162.83 1025.02,-160.27"/>
<polygon fill="#63b8ff" stroke="#63b8ff" points="1025.52,-156.8 1015.15,-158.96 1024.6,-163.74 1025.52,-156.8"/>
</a>
</g>
</g>
<!-- Node3 -->
<g id="Node000003" class="node">
<title>Node3</title>
<g id="a_Node000003"><a xlink:title=" ">
<polygon fill="#e0e0e0" stroke="#999999" points="760.88,-94 680.38,-94 680.38,-74 760.88,-74 760.88,-94"/>
<text text-anchor="middle" x="720.62" y="-80.5" font-family="Helvetica,sans-Serif" font-size="10.00">FreeRTOS.hpp</text>
</a>
</g>
</g>
<!-- Node1&#45;&gt;Node3 -->
<g id="edge43_Node000001_Node000003" class="edge">
<title>Node1&#45;&gt;Node3</title>
<g id="a_edge43_Node000001_Node000003"><a xlink:title=" ">
<path fill="none" stroke="#63b8ff" d="M1469.68,-211.2C1342.79,-206.54 1024.23,-192.7 920.62,-168 856.22,-152.65 785.78,-119.14 748.08,-99.72"/>
<polygon fill="#63b8ff" stroke="#63b8ff" points="749.74,-96.64 739.26,-95.11 746.5,-102.84 749.74,-96.64"/>
</a>
</g>
</g>
<!-- Node7 -->
<g id="Node000007" class="node">
<title>Node7</title>
<g id="a_Node000007"><a xlink:title=" ">
<polygon fill="#e0e0e0" stroke="#999999" points="1760.38,-162 1616.88,-162 1616.88,-142 1760.38,-142 1760.38,-162"/>
<text text-anchor="middle" x="1688.62" y="-148.5" font-family="Helvetica,sans-Serif" font-size="10.00">Lib/Xbee/Core/Diagnostic.hpp</text>
</a>
</g>
</g>
<!-- Node1&#45;&gt;Node7 -->
<g id="edge6_Node000001_Node000007" class="edge">
<title>Node1&#45;&gt;Node7</title>
<g id="a_edge6_Node000001_Node000007"><a xlink:title=" ">
<path fill="none" stroke="#63b8ff" d="M1548.56,-203.62C1576.38,-193.57 1620.76,-177.53 1652.1,-166.2"/>
<polygon fill="#63b8ff" stroke="#63b8ff" points="1652.96,-169.61 1661.17,-162.92 1650.58,-163.03 1652.96,-169.61"/>
</a>
</g>
</g>
<!-- Node8 -->
<g id="Node000008" class="node">
<title>Node8</title>
<g id="a_Node000008"><a xlink:title=" ">
<polygon fill="#e0e0e0" stroke="#999999" points="1376.12,-94 1201.12,-94 1201.12,-74 1376.12,-74 1376.12,-94"/>
<text text-anchor="middle" x="1288.62" y="-80.5" font-family="Helvetica,sans-Serif" font-size="10.00">Lib/Xbee/Core/LocalAtCommand.hpp</text>
</a>
</g>
</g>
<!-- Node1&#45;&gt;Node8 -->
<g id="edge7_Node000001_Node000008" class="edge">
<title>Node1&#45;&gt;Node8</title>
<g id="a_edge7_Node000001_Node000008"><a xlink:title=" ">
<path fill="none" stroke="#63b8ff" d="M1469.71,-208.42C1413.66,-202.47 1330.18,-190.14 1307.62,-168 1291.17,-151.85 1287.71,-124.56 1287.52,-105.71"/>
<polygon fill="#63b8ff" stroke="#63b8ff" points="1291.02,-105.83 1287.76,-95.75 1284.02,-105.67 1291.02,-105.83"/>
</a>
</g>
</g>
<!-- Node9 -->
<g id="Node000009" class="node">
<title>Node9</title>
<g id="a_Node000009"><a xlink:title=" ">
<polygon fill="#e0e0e0" stroke="#999999" points="1916.38,-162 1778.88,-162 1778.88,-142 1916.38,-142 1916.38,-162"/>
<text text-anchor="middle" x="1847.62" y="-148.5" font-family="Helvetica,sans-Serif" font-size="10.00">Lib/Xbee/Core/Message.hpp</text>
</a>
</g>
</g>
<!-- Node1&#45;&gt;Node9 -->
<g id="edge8_Node000001_Node000009" class="edge">
<title>Node1&#45;&gt;Node9</title>
<g id="a_edge8_Node000001_Node000009"><a xlink:title=" ">
<path fill="none" stroke="#63b8ff" d="M1575.17,-203.58C1625.2,-194.58 1702.58,-180.55 1769.62,-168 1775.55,-166.89 1781.74,-165.72 1787.91,-164.55"/>
<polygon fill="#63b8ff" stroke="#63b8ff" points="1788.3,-168.03 1797.47,-162.72 1786.99,-161.16 1788.3,-168.03"/>
</a>
</g>
</g>
<!-- Node10 -->
<g id="Node000010" class="node">
<title>Node10</title>
<g id="a_Node000010"><a xlink:title=" ">
<polygon fill="#e0e0e0" stroke="#999999" points="2092.88,-162 1934.38,-162 1934.38,-142 2092.88,-142 2092.88,-162"/>
<text text-anchor="middle" x="2013.62" y="-148.5" font-family="Helvetica,sans-Serif" font-size="10.00">Lib/Xbee/Core/ModemStatus.hpp</text>
</a>
</g>
</g>
<!-- Node1&#45;&gt;Node10 -->
<g id="edge9_Node000001_Node000010" class="edge">
<title>Node1&#45;&gt;Node10</title>
<g id="a_edge9_Node000001_Node000010"><a xlink:title=" ">
<path fill="none" stroke="#63b8ff" d="M1575.56,-208.07C1652.71,-200.66 1800.49,-185.64 1925.62,-168 1933.54,-166.88 1941.83,-165.61 1950.04,-164.29"/>
<polygon fill="#63b8ff" stroke="#63b8ff" points="1950.33,-167.78 1959.63,-162.71 1949.19,-160.88 1950.33,-167.78"/>
</a>
</g>
</g>
<!-- Node11 -->
<g id="Node000011" class="node">
<title>Node11</title>
<g id="a_Node000011"><a xlink:title=" ">
<polygon fill="#e0e0e0" stroke="#999999" points="2240.25,-162 2111,-162 2111,-142 2240.25,-142 2240.25,-162"/>
<text text-anchor="middle" x="2175.62" y="-148.5" font-family="Helvetica,sans-Serif" font-size="10.00">Lib/Xbee/Core/Module.hpp</text>
</a>
</g>
</g>
<!-- Node1&#45;&gt;Node11 -->
<g id="edge10_Node000001_Node000011" class="edge">
<title>Node1&#45;&gt;Node11</title>
<g id="a_edge10_Node000001_Node000011"><a xlink:title=" ">
<path fill="none" stroke="#63b8ff" d="M1575.55,-211.06C1677.68,-206.83 1908.91,-194.92 2101.62,-168 2108.36,-167.06 2115.4,-165.88 2122.35,-164.61"/>
<polygon fill="#63b8ff" stroke="#63b8ff" points="2122.87,-168.07 2132.03,-162.75 2121.55,-161.2 2122.87,-168.07"/>
</a>
</g>
</g>
<!-- Node12 -->
<g id="Node000012" class="node">
<title>Node12</title>
<g id="a_Node000012"><a xlink:title=" ">
<polygon fill="#e0e0e0" stroke="#999999" points="2371,-168 2258.25,-168 2258.25,-136 2371,-136 2371,-168"/>
<text text-anchor="start" x="2266.25" y="-154.5" font-family="Helvetica,sans-Serif" font-size="10.00">Lib/Xbee/Core/Queries</text>
<text text-anchor="middle" x="2314.62" y="-142.5" font-family="Helvetica,sans-Serif" font-size="10.00">/Frame0x01.hpp</text>
</a>
</g>
</g>
<!-- Node1&#45;&gt;Node12 -->
<g id="edge11_Node000001_Node000012" class="edge">
<title>Node1&#45;&gt;Node12</title>
<g id="a_edge11_Node000001_Node000012"><a xlink:title=" ">
<path fill="none" stroke="#63b8ff" d="M1575.39,-212.71C1693.94,-211.41 1990.47,-204.61 2246.98,-168.23"/>
<polygon fill="#63b8ff" stroke="#63b8ff" points="2247.11,-171.75 2256.51,-166.86 2246.11,-164.82 2247.11,-171.75"/>
</a>
</g>
</g>
<!-- Node13 -->
<g id="Node000013" class="node">
<title>Node13</title>
<g id="a_Node000013"><a xlink:title=" ">
<polygon fill="#e0e0e0" stroke="#999999" points="2574.38,-162 2388.88,-162 2388.88,-142 2574.38,-142 2574.38,-162"/>
<text text-anchor="middle" x="2481.62" y="-148.5" font-family="Helvetica,sans-Serif" font-size="10.00">Lib/Xbee/Core/RemoteAtCommand.hpp</text>
</a>
</g>
</g>
<!-- Node1&#45;&gt;Node13 -->
<g id="edge12_Node000001_Node000013" class="edge">
<title>Node1&#45;&gt;Node13</title>
<g id="a_edge12_Node000001_Node000013"><a xlink:title=" ">
<path fill="none" stroke="#63b8ff" d="M1575.42,-211.95C1709.87,-208.89 2076.07,-198.22 2379.62,-168 2390.27,-166.94 2401.5,-165.56 2412.46,-164.06"/>
<polygon fill="#63b8ff" stroke="#63b8ff" points="2412.84,-167.54 2422.26,-162.68 2411.87,-160.61 2412.84,-167.54"/>
</a>
</g>
</g>
<!-- Node14 -->
<g id="Node000014" class="node">
<title>Node14</title>
<g id="a_Node000014"><a xlink:href="../../d1/d44/a00098.html" target="_top" xlink:title="Defines the Pause interface for the Xbee API.">
<polygon fill="white" stroke="#666666" points="2654.88,-162 2592.38,-162 2592.38,-142 2654.88,-142 2654.88,-162"/>
<text text-anchor="middle" x="2623.62" y="-148.5" font-family="Helvetica,sans-Serif" font-size="10.00">Pause.hpp</text>
</a>
</g>
</g>
<!-- Node1&#45;&gt;Node14 -->
<g id="edge13_Node000001_Node000014" class="edge">
<title>Node1&#45;&gt;Node14</title>
<g id="a_edge13_Node000001_Node000014"><a xlink:title=" ">
<path fill="none" stroke="#63b8ff" d="M1575.67,-212.96C1762.27,-212.47 2387.71,-207.83 2583.62,-168 2586.26,-167.46 2588.95,-166.78 2591.63,-166"/>
<polygon fill="#63b8ff" stroke="#63b8ff" points="2592.6,-169.36 2600.97,-162.86 2590.37,-162.73 2592.6,-169.36"/>
</a>
</g>
</g>
<!-- Node15 -->
<g id="Node000015" class="node">
<title>Node15</title>
<g id="a_Node000015"><a xlink:href="../../d0/dc2/a00104.html" target="_top" xlink:title="Header file for the ChannelScanner service class.">
<polygon fill="white" stroke="#666666" points="793.5,-162 647.75,-162 647.75,-142 793.5,-142 793.5,-162"/>
<text text-anchor="middle" x="720.62" y="-148.5" font-family="Helvetica,sans-Serif" font-size="10.00">Services/ChannelScanner.hpp</text>
</a>
</g>
</g>
<!-- Node1&#45;&gt;Node15 -->
<g id="edge14_Node000001_Node000015" class="edge">
<title>Node1&#45;&gt;Node15</title>
<g id="a_edge14_Node000001_Node000015"><a xlink:title=" ">
<path fill="none" stroke="#63b8ff" d="M1469.61,-210.39C1355.64,-204.57 1078.89,-189.35 847.62,-168 833.84,-166.73 819.24,-165.19 805.04,-163.58"/>
<polygon fill="#63b8ff" stroke="#63b8ff" points="805.6,-160.12 795.26,-162.46 804.8,-167.08 805.6,-160.12"/>
</a>
</g>
</g>
<!-- Node17 -->
<g id="Node000017" class="node">
<title>Node17</title>
<g id="a_Node000017"><a xlink:href="../../d3/d00/a00113.html" target="_top" xlink:title="This file contains the declaration and implementation of the Parameters class, which is part of the L...">
<polygon fill="white" stroke="#666666" points="464.12,-94 379.12,-94 379.12,-74 464.12,-74 464.12,-94"/>
<text text-anchor="middle" x="421.62" y="-80.5" font-family="Helvetica,sans-Serif" font-size="10.00">Parameters.hpp</text>
</a>
</g>
</g>
<!-- Node1&#45;&gt;Node17 -->
<g id="edge37_Node000001_Node000017" class="edge">
<title>Node1&#45;&gt;Node17</title>
<g id="a_edge37_Node000001_Node000017"><a xlink:title=" ">
<path fill="none" stroke="#63b8ff" d="M1469.73,-212.48C1304.39,-210.51 798.75,-201.81 638.62,-168 568.49,-153.19 491.16,-118.95 450.42,-99.39"/>
<polygon fill="#63b8ff" stroke="#63b8ff" points="452.06,-96.29 441.53,-95.06 449,-102.58 452.06,-96.29"/>
</a>
</g>
</g>
<!-- Node26 -->
<g id="Node000026" class="node">
<title>Node26</title>
<g id="a_Node000026"><a xlink:href="../../df/d98/a00107.html" target="_top" xlink:title="Defines the Manager class for managing ServiceBase objects.">
<polygon fill="white" stroke="#666666" points="1428.62,-162 1316.62,-162 1316.62,-142 1428.62,-142 1428.62,-162"/>
<text text-anchor="middle" x="1372.62" y="-148.5" font-family="Helvetica,sans-Serif" font-size="10.00">Services/Manager.hpp</text>
</a>
</g>
</g>
<!-- Node1&#45;&gt;Node26 -->
<g id="edge28_Node000001_Node000026" class="edge">
<title>Node1&#45;&gt;Node26</title>
<g id="a_edge28_Node000001_Node000026"><a xlink:title=" ">
<path fill="none" stroke="#63b8ff" d="M1499.19,-203.62C1474.31,-193.67 1434.76,-177.85 1406.5,-166.55"/>
<polygon fill="#63b8ff" stroke="#63b8ff" points="1407.89,-163.34 1397.3,-162.87 1405.29,-169.83 1407.89,-163.34"/>
</a>
</g>
</g>
<!-- Node28 -->
<g id="Node000028" class="node">
<title>Node28</title>
<g id="a_Node000028"><a xlink:href="../../d4/d81/a00110.html" target="_top" xlink:title="Header file for the NetworkDiscovery service class.">
<polygon fill="white" stroke="#666666" points="1598.5,-162 1446.75,-162 1446.75,-142 1598.5,-142 1598.5,-162"/>
<text text-anchor="middle" x="1522.62" y="-148.5" font-family="Helvetica,sans-Serif" font-size="10.00">Services/NetworkDiscovery.hpp</text>
</a>
</g>
</g>
<!-- Node1&#45;&gt;Node28 -->
<g id="edge31_Node000001_Node000028" class="edge">
<title>Node1&#45;&gt;Node28</title>
<g id="a_edge31_Node000001_Node000028"><a xlink:title=" ">
<path fill="none" stroke="#63b8ff" d="M1522.62,-203.62C1522.62,-195.56 1522.62,-183.65 1522.62,-173.41"/>
<polygon fill="#63b8ff" stroke="#63b8ff" points="1526.13,-173.63 1522.63,-163.63 1519.13,-173.63 1526.13,-173.63"/>
</a>
</g>
</g>
<!-- Node31 -->
<g id="Node000031" class="node">
<title>Node31</title>
<g id="a_Node000031"><a xlink:href="../../df/d6a/a00119.html" target="_top" xlink:title="Header file for the SpectrumAnalyzer class.">
<polygon fill="white" stroke="#666666" points="1250,-162 1095.25,-162 1095.25,-142 1250,-142 1250,-162"/>
<text text-anchor="middle" x="1172.62" y="-148.5" font-family="Helvetica,sans-Serif" font-size="10.00">Services/SpectrumAnalyzer.hpp</text>
</a>
</g>
</g>
<!-- Node1&#45;&gt;Node31 -->
<g id="edge38_Node000001_Node000031" class="edge">
<title>Node1&#45;&gt;Node31</title>
<g id="a_edge38_Node000001_Node000031"><a xlink:title=" ">
<path fill="none" stroke="#63b8ff" d="M1469.85,-203.95C1408.2,-193.38 1306.13,-175.89 1239.12,-164.4"/>
<polygon fill="#63b8ff" stroke="#63b8ff" points="1239.8,-160.96 1229.35,-162.72 1238.61,-167.86 1239.8,-160.96"/>
</a>
</g>
</g>
<!-- Node2&#45;&gt;Node3 -->
<g id="edge2_Node000002_Node000003" class="edge">
<title>Node2&#45;&gt;Node3</title>
<g id="a_edge2_Node000002_Node000003"><a xlink:title=" ">
<path fill="none" stroke="#63b8ff" d="M931.61,-141.52C890.74,-131.69 825.54,-115.61 769.62,-100 766.93,-99.25 764.15,-98.45 761.35,-97.64"/>
<polygon fill="#63b8ff" stroke="#63b8ff" points="762.65,-94.37 752.07,-94.87 760.65,-101.08 762.65,-94.37"/>
</a>
</g>
</g>
<!-- Node4 -->
<g id="Node000004" class="node">
<title>Node4</title>
<g id="a_Node000004"><a xlink:title=" ">
<polygon fill="#e0e0e0" stroke="#999999" points="1145,-100 1050.25,-100 1050.25,-68 1145,-68 1145,-100"/>
<text text-anchor="start" x="1058.25" y="-86.5" font-family="Helvetica,sans-Serif" font-size="10.00">Lib/Helper/Convert</text>
<text text-anchor="middle" x="1097.62" y="-74.5" font-family="Helvetica,sans-Serif" font-size="10.00">/dBM.hpp</text>
</a>
</g>
</g>
<!-- Node2&#45;&gt;Node4 -->
<g id="edge3_Node000002_Node000004" class="edge">
<title>Node2&#45;&gt;Node4</title>
<g id="a_edge3_Node000002_Node000004"><a xlink:title=" ">
<path fill="none" stroke="#63b8ff" d="M989.68,-141.54C1007.5,-132.21 1035.33,-117.63 1058.27,-105.61"/>
<polygon fill="#63b8ff" stroke="#63b8ff" points="1059.84,-108.74 1067.07,-101 1056.59,-102.54 1059.84,-108.74"/>
</a>
</g>
</g>
<!-- Node5 -->
<g id="Node000005" class="node">
<title>Node5</title>
<g id="a_Node000005"><a xlink:title=" ">
<polygon fill="#e0e0e0" stroke="#999999" points="1032.5,-94 910.75,-94 910.75,-74 1032.5,-74 1032.5,-94"/>
<text text-anchor="middle" x="971.62" y="-80.5" font-family="Helvetica,sans-Serif" font-size="10.00">Lib/Helper/Integrator.hpp</text>
</a>
</g>
</g>
<!-- Node2&#45;&gt;Node5 -->
<g id="edge4_Node000002_Node000005" class="edge">
<title>Node2&#45;&gt;Node5</title>
<g id="a_edge4_Node000002_Node000005"><a xlink:title=" ">
<path fill="none" stroke="#63b8ff" d="M971.62,-141.54C971.62,-132.23 971.62,-117.7 971.62,-105.7"/>
<polygon fill="#63b8ff" stroke="#63b8ff" points="975.13,-105.95 971.63,-95.95 968.13,-105.95 975.13,-105.95"/>
</a>
</g>
</g>
<!-- Node6 -->
<g id="Node000006" class="node">
<title>Node6</title>
<g id="a_Node000006"><a xlink:title=" ">
<polygon fill="#e0e0e0" stroke="#999999" points="836.25,-94 779,-94 779,-74 836.25,-74 836.25,-94"/>
<text text-anchor="middle" x="807.62" y="-80.5" font-family="Helvetica,sans-Serif" font-size="10.00">functional</text>
</a>
</g>
</g>
<!-- Node2&#45;&gt;Node6 -->
<g id="edge5_Node000002_Node000006" class="edge">
<title>Node2&#45;&gt;Node6</title>
<g id="a_edge5_Node000002_Node000006"><a xlink:title=" ">
<path fill="none" stroke="#63b8ff" d="M948.13,-141.54C920.24,-130.32 873.51,-111.52 841.67,-98.7"/>
<polygon fill="#63b8ff" stroke="#63b8ff" points="843.07,-95.49 832.48,-95 840.45,-101.98 843.07,-95.49"/>
</a>
</g>
</g>
<!-- Node15&#45;&gt;Node3 -->
<g id="edge25_Node000015_Node000003" class="edge">
<title>Node15&#45;&gt;Node3</title>
<g id="a_edge25_Node000015_Node000003"><a xlink:title=" ">
<path fill="none" stroke="#63b8ff" d="M720.62,-141.54C720.62,-132.23 720.62,-117.7 720.62,-105.7"/>
<polygon fill="#63b8ff" stroke="#63b8ff" points="724.13,-105.95 720.63,-95.95 717.13,-105.95 724.13,-105.95"/>
</a>
</g>
</g>
<!-- Node15&#45;&gt;Node6 -->
<g id="edge27_Node000015_Node000006" class="edge">
<title>Node15&#45;&gt;Node6</title>
<g id="a_edge27_Node000015_Node000006"><a xlink:title=" ">
<path fill="none" stroke="#63b8ff" d="M733.09,-141.54C746.92,-131.06 769.47,-113.95 786.15,-101.29"/>
<polygon fill="#63b8ff" stroke="#63b8ff" points="788.13,-104.19 793.98,-95.35 783.9,-98.61 788.13,-104.19"/>
</a>
</g>
</g>
<!-- Node16 -->
<g id="Node000016" class="node">
<title>Node16</title>
<g id="a_Node000016"><a xlink:title=" ">
<polygon fill="#e0e0e0" stroke="#999999" points="624.62,-94 482.62,-94 482.62,-74 624.62,-74 624.62,-94"/>
<text text-anchor="middle" x="553.62" y="-80.5" font-family="Helvetica,sans-Serif" font-size="10.00">Lib/Xbee/API/Connection.hpp</text>
</a>
</g>
</g>
<!-- Node15&#45;&gt;Node16 -->
<g id="edge15_Node000015_Node000016" class="edge">
<title>Node15&#45;&gt;Node16</title>
<g id="a_edge15_Node000015_Node000016"><a xlink:title=" ">
<path fill="none" stroke="#63b8ff" d="M696.7,-141.54C668.18,-130.27 620.3,-111.35 587.87,-98.53"/>
<polygon fill="#63b8ff" stroke="#63b8ff" points="589.5,-95.42 578.92,-94.99 586.93,-101.93 589.5,-95.42"/>
</a>
</g>
</g>
<!-- Node15&#45;&gt;Node17 -->
<g id="edge16_Node000015_Node000017" class="edge">
<title>Node15&#45;&gt;Node17</title>
<g id="a_edge16_Node000015_Node000017"><a xlink:title=" ">
<path fill="none" stroke="#63b8ff" d="M668.8,-141.51C618.64,-132.03 540.58,-116.54 473.62,-100 470.46,-99.22 467.2,-98.37 463.93,-97.5"/>
<polygon fill="#63b8ff" stroke="#63b8ff" points="464.9,-94.13 454.33,-94.84 463.03,-100.88 464.9,-94.13"/>
</a>
</g>
</g>
<!-- Node22 -->
<g id="Node000022" class="node">
<title>Node22</title>
<g id="a_Node000022"><a xlink:href="../../d4/d3e/a00116.html" target="_top" xlink:title="Declaration of the ServiceBase class for the Xbee API services.">
<polygon fill="white" stroke="#666666" points="1217,-26 1128.25,-26 1128.25,-6 1217,-6 1217,-26"/>
<text text-anchor="middle" x="1172.62" y="-12.5" font-family="Helvetica,sans-Serif" font-size="10.00">ServiceBase.hpp</text>
</a>
</g>
</g>
<!-- Node15&#45;&gt;Node22 -->
<g id="edge24_Node000015_Node000022" class="edge">
<title>Node15&#45;&gt;Node22</title>
<g id="a_edge24_Node000015_Node000022"><a xlink:title=" ">
<path fill="none" stroke="#63b8ff" d="M707.96,-141.74C687.24,-125.52 650.42,-91.47 671.62,-68 679.04,-59.79 987.87,-32.69 1116.89,-21.69"/>
<polygon fill="#63b8ff" stroke="#63b8ff" points="1116.89,-25.21 1126.56,-20.87 1116.3,-18.23 1116.89,-25.21"/>
</a>
</g>
</g>
<!-- Node25 -->
<g id="Node000025" class="node">
<title>Node25</title>
<g id="a_Node000025"><a xlink:title=" ">
<polygon fill="#e0e0e0" stroke="#999999" points="892.5,-94 854.75,-94 854.75,-74 892.5,-74 892.5,-94"/>
<text text-anchor="middle" x="873.62" y="-80.5" font-family="Helvetica,sans-Serif" font-size="10.00">array</text>
</a>
</g>
</g>
<!-- Node15&#45;&gt;Node25 -->
<g id="edge26_Node000015_Node000025" class="edge">
<title>Node15&#45;&gt;Node25</title>
<g id="a_edge26_Node000015_Node000025"><a xlink:title=" ">
<path fill="none" stroke="#63b8ff" d="M745.86,-141.6C771.35,-131.89 811.69,-115.96 845.62,-100 845.96,-99.84 846.3,-99.68 846.64,-99.52"/>
<polygon fill="#63b8ff" stroke="#63b8ff" points="847.9,-102.81 855.24,-95.17 844.74,-96.56 847.9,-102.81"/>
</a>
</g>
</g>
<!-- Node18 -->
<g id="Node000018" class="node">
<title>Node18</title>
<g id="a_Node000018"><a xlink:title=" ">
<polygon fill="#e0e0e0" stroke="#999999" points="793.88,-26 647.38,-26 647.38,-6 793.88,-6 793.88,-26"/>
<text text-anchor="middle" x="720.62" y="-12.5" font-family="Helvetica,sans-Serif" font-size="10.00">Lib/XBEE/API/Connection.hpp</text>
</a>
</g>
</g>
<!-- Node17&#45;&gt;Node18 -->
<g id="edge17_Node000017_Node000018" class="edge">
<title>Node17&#45;&gt;Node18</title>
<g id="a_edge17_Node000017_Node000018"><a xlink:title=" ">
<path fill="none" stroke="#63b8ff" d="M452.87,-73.56C459.68,-71.62 466.88,-69.67 473.62,-68 535.74,-52.65 607.41,-38.21 657.5,-28.64"/>
<polygon fill="#63b8ff" stroke="#63b8ff" points="658.14,-32.08 667.31,-26.78 656.83,-25.2 658.14,-32.08"/>
</a>
</g>
</g>
<!-- Node19 -->
<g id="Node000019" class="node">
<title>Node19</title>
<g id="a_Node000019"><a xlink:title=" ">
<polygon fill="#e0e0e0" stroke="#999999" points="111.25,-32 0,-32 0,0 111.25,0 111.25,-32"/>
<text text-anchor="start" x="8" y="-18.5" font-family="Helvetica,sans-Serif" font-size="10.00">Lib/XBEE/Core/Frame</text>
<text text-anchor="middle" x="55.62" y="-6.5" font-family="Helvetica,sans-Serif" font-size="10.00">/Helper.hpp</text>
</a>
</g>
</g>
<!-- Node17&#45;&gt;Node19 -->
<g id="edge18_Node000017_Node000019" class="edge">
<title>Node17&#45;&gt;Node19</title>
<g id="a_edge18_Node000017_Node000019"><a xlink:title=" ">
<path fill="none" stroke="#63b8ff" d="M378.96,-76.66C322.5,-68.08 219.63,-51.8 122.61,-32.54"/>
<polygon fill="#63b8ff" stroke="#63b8ff" points="123.4,-29.13 112.91,-30.59 122.03,-35.99 123.4,-29.13"/>
</a>
</g>
</g>
<!-- Node20 -->
<g id="Node000020" class="node">
<title>Node20</title>
<g id="a_Node000020"><a xlink:title=" ">
<polygon fill="#e0e0e0" stroke="#999999" points="308.38,-26 128.88,-26 128.88,-6 308.38,-6 308.38,-26"/>
<text text-anchor="middle" x="218.62" y="-12.5" font-family="Helvetica,sans-Serif" font-size="10.00">Lib/XBEE/Core/LocalAtCommand.hpp</text>
</a>
</g>
</g>
<!-- Node17&#45;&gt;Node20 -->
<g id="edge19_Node000017_Node000020" class="edge">
<title>Node17&#45;&gt;Node20</title>
<g id="a_edge19_Node000017_Node000020"><a xlink:title=" ">
<path fill="none" stroke="#63b8ff" d="M392.54,-73.54C357.34,-62.1 297.9,-42.77 258.46,-29.95"/>
<polygon fill="#63b8ff" stroke="#63b8ff" points="259.69,-26.67 249.1,-26.91 257.52,-33.33 259.69,-26.67"/>
</a>
</g>
</g>
<!-- Node21 -->
<g id="Node000021" class="node">
<title>Node21</title>
<g id="a_Node000021"><a xlink:title=" ">
<polygon fill="#e0e0e0" stroke="#999999" points="516.62,-26 326.62,-26 326.62,-6 516.62,-6 516.62,-26"/>
<text text-anchor="middle" x="421.62" y="-12.5" font-family="Helvetica,sans-Serif" font-size="10.00">Lib/XBEE/Core/RemoteAtCommand.hpp</text>
</a>
</g>
</g>
<!-- Node17&#45;&gt;Node21 -->
<g id="edge20_Node000017_Node000021" class="edge">
<title>Node17&#45;&gt;Node21</title>
<g id="a_edge20_Node000017_Node000021"><a xlink:title=" ">
<path fill="none" stroke="#63b8ff" d="M421.62,-73.54C421.62,-64.23 421.62,-49.7 421.62,-37.7"/>
<polygon fill="#63b8ff" stroke="#63b8ff" points="425.13,-37.95 421.63,-27.95 418.13,-37.95 425.13,-37.95"/>
</a>
</g>
</g>
<!-- Node17&#45;&gt;Node22 -->
<g id="edge21_Node000017_Node000022" class="edge">
<title>Node17&#45;&gt;Node22</title>
<g id="a_edge21_Node000017_Node000022"><a xlink:title=" ">
<path fill="none" stroke="#63b8ff" d="M450.25,-73.57C457.78,-71.41 465.95,-69.36 473.62,-68 700.43,-27.86 760.95,-49.46 990.62,-32 1032.84,-28.79 1080.54,-24.85 1116.52,-21.81"/>
<polygon fill="#63b8ff" stroke="#63b8ff" points="1116.58,-25.32 1126.25,-20.99 1115.99,-18.34 1116.58,-25.32"/>
</a>
</g>
</g>
<!-- Node23 -->
<g id="Node000023" class="node">
<title>Node23</title>
<g id="a_Node000023"><a xlink:title=" ">
<polygon fill="#e0e0e0" stroke="#999999" points="629,-32 534.25,-32 534.25,0 629,0 629,-32"/>
<text text-anchor="start" x="542.25" y="-18.5" font-family="Helvetica,sans-Serif" font-size="10.00">Lib/Helper/Convert</text>
<text text-anchor="middle" x="581.62" y="-6.5" font-family="Helvetica,sans-Serif" font-size="10.00">/Bcd.hpp</text>
</a>
</g>
</g>
<!-- Node17&#45;&gt;Node23 -->
<g id="edge22_Node000017_Node000023" class="edge">
<title>Node17&#45;&gt;Node23</title>
<g id="a_edge22_Node000017_Node000023"><a xlink:title=" ">
<path fill="none" stroke="#63b8ff" d="M444.55,-73.54C467.71,-63.99 504.2,-48.94 533.71,-36.77"/>
<polygon fill="#63b8ff" stroke="#63b8ff" points="534.92,-40.05 542.82,-33.01 532.25,-33.58 534.92,-40.05"/>
</a>
</g>
</g>
<!-- Node24 -->
<g id="Node000024" class="node">
<title>Node24</title>
<g id="a_Node000024"><a xlink:title=" ">
<polygon fill="#e0e0e0" stroke="#999999" points="981.62,-26 941.62,-26 941.62,-6 981.62,-6 981.62,-26"/>
<text text-anchor="middle" x="961.62" y="-12.5" font-family="Helvetica,sans-Serif" font-size="10.00">string</text>
</a>
</g>
</g>
<!-- Node17&#45;&gt;Node24 -->
<g id="edge23_Node000017_Node000024" class="edge">
<title>Node17&#45;&gt;Node24</title>
<g id="a_edge23_Node000017_Node000024"><a xlink:title=" ">
<path fill="none" stroke="#63b8ff" d="M451.1,-73.52C458.4,-71.44 466.25,-69.44 473.62,-68 518.32,-59.29 828.76,-29.55 929.87,-19.99"/>
<polygon fill="#63b8ff" stroke="#63b8ff" points="930,-23.49 939.62,-19.07 929.34,-16.52 930,-23.49"/>
</a>
</g>
</g>
<!-- Node26&#45;&gt;Node22 -->
<g id="edge29_Node000026_Node000022" class="edge">
<title>Node26&#45;&gt;Node22</title>
<g id="a_edge29_Node000026_Node000022"><a xlink:title=" ">
<path fill="none" stroke="#63b8ff" d="M1378.19,-141.63C1387.31,-124.94 1402.79,-89.76 1385.62,-68 1366.4,-43.63 1285.08,-29.6 1228.67,-22.64"/>
<polygon fill="#63b8ff" stroke="#63b8ff" points="1229.24,-19.18 1218.9,-21.47 1228.42,-26.13 1229.24,-19.18"/>
</a>
</g>
</g>
<!-- Node27 -->
<g id="Node000027" class="node">
<title>Node27</title>
<g id="a_Node000027"><a xlink:title=" ">
<polygon fill="#e0e0e0" stroke="#999999" points="1554.88,-94 1432.38,-94 1432.38,-74 1554.88,-74 1554.88,-94"/>
<text text-anchor="middle" x="1493.62" y="-80.5" font-family="Helvetica,sans-Serif" font-size="10.00">Lib/Helper/Container.hpp</text>
</a>
</g>
</g>
<!-- Node26&#45;&gt;Node27 -->
<g id="edge30_Node000026_Node000027" class="edge">
<title>Node26&#45;&gt;Node27</title>
<g id="a_edge30_Node000026_Node000027"><a xlink:title=" ">
<path fill="none" stroke="#63b8ff" d="M1389.96,-141.54C1409.91,-130.66 1442.92,-112.66 1466.32,-99.89"/>
<polygon fill="#63b8ff" stroke="#63b8ff" points="1467.89,-103.02 1474.99,-95.16 1464.54,-96.88 1467.89,-103.02"/>
</a>
</g>
</g>
<!-- Node28&#45;&gt;Node8 -->
<g id="edge33_Node000028_Node000008" class="edge">
<title>Node28&#45;&gt;Node8</title>
<g id="a_edge33_Node000028_Node000008"><a xlink:title=" ">
<path fill="none" stroke="#63b8ff" d="M1489.1,-141.54C1448.09,-129.98 1378.54,-110.36 1333.09,-97.54"/>
<polygon fill="#63b8ff" stroke="#63b8ff" points="1334.12,-94.2 1323.55,-94.85 1332.22,-100.93 1334.12,-94.2"/>
</a>
</g>
</g>
<!-- Node28&#45;&gt;Node22 -->
<g id="edge34_Node000028_Node000022" class="edge">
<title>Node28&#45;&gt;Node22</title>
<g id="a_edge34_Node000028_Node000022"><a xlink:title=" ">
<path fill="none" stroke="#63b8ff" d="M1542.01,-141.55C1571.12,-126.17 1620.32,-94.72 1596.62,-68 1572.6,-40.91 1338.27,-25.46 1228.65,-19.67"/>
<polygon fill="#63b8ff" stroke="#63b8ff" points="1228.86,-16.17 1218.69,-19.15 1228.49,-23.16 1228.86,-16.17"/>
</a>
</g>
</g>
<!-- Node28&#45;&gt;Node24 -->
<g id="edge35_Node000028_Node000024" class="edge">
<title>Node28&#45;&gt;Node24</title>
<g id="a_edge35_Node000028_Node000024"><a xlink:title=" ">
<path fill="none" stroke="#63b8ff" d="M1533.81,-141.51C1552.06,-124.93 1584.22,-90.33 1563.62,-68 1530.07,-31.61 1168.93,-36.34 1119.62,-32 1075.82,-28.14 1025.22,-23.27 993.32,-20.14"/>
<polygon fill="#63b8ff" stroke="#63b8ff" points="993.87,-16.68 983.58,-19.18 993.19,-23.64 993.87,-16.68"/>
</a>
</g>
</g>
<!-- Node29 -->
<g id="Node000029" class="node">
<title>Node29</title>
<g id="a_Node000029"><a xlink:title=" ">
<polygon fill="#e0e0e0" stroke="#999999" points="1755,-100 1648.25,-100 1648.25,-68 1755,-68 1755,-100"/>
<text text-anchor="start" x="1656.25" y="-86.5" font-family="Helvetica,sans-Serif" font-size="10.00">Lib/Xbee/Core/Frame</text>
<text text-anchor="middle" x="1701.62" y="-74.5" font-family="Helvetica,sans-Serif" font-size="10.00">/Helper.hpp</text>
</a>
</g>
</g>
<!-- Node28&#45;&gt;Node29 -->
<g id="edge32_Node000028_Node000029" class="edge">
<title>Node28&#45;&gt;Node29</title>
<g id="a_edge32_Node000028_Node000029"><a xlink:title=" ">
<path fill="none" stroke="#63b8ff" d="M1548.27,-141.54C1574.53,-131.86 1616.08,-116.54 1649.32,-104.29"/>
<polygon fill="#63b8ff" stroke="#63b8ff" points="1650.19,-107.69 1658.36,-100.95 1647.77,-101.13 1650.19,-107.69"/>
</a>
</g>
</g>
<!-- Node30 -->
<g id="Node000030" class="node">
<title>Node30</title>
<g id="a_Node000030"><a xlink:title=" ">
<polygon fill="#e0e0e0" stroke="#999999" points="1814.38,-94 1772.88,-94 1772.88,-74 1814.38,-74 1814.38,-94"/>
<text text-anchor="middle" x="1793.62" y="-80.5" font-family="Helvetica,sans-Serif" font-size="10.00">vector</text>
</a>
</g>
</g>
<!-- Node28&#45;&gt;Node30 -->
<g id="edge36_Node000028_Node000030" class="edge">
<title>Node28&#45;&gt;Node30</title>
<g id="a_edge36_Node000028_Node000030"><a xlink:title=" ">
<path fill="none" stroke="#63b8ff" d="M1575.12,-141.51C1635.13,-130.38 1729.46,-111.94 1763.62,-100 1764.43,-99.72 1765.24,-99.42 1766.05,-99.11"/>
<polygon fill="#63b8ff" stroke="#63b8ff" points="1767.38,-102.35 1775.12,-95.11 1764.56,-95.94 1767.38,-102.35"/>
</a>
</g>
</g>
<!-- Node31&#45;&gt;Node4 -->
<g id="edge41_Node000031_Node000004" class="edge">
<title>Node31&#45;&gt;Node4</title>
<g id="a_edge41_Node000031_Node000004"><a xlink:title=" ">
<path fill="none" stroke="#63b8ff" d="M1161.88,-141.54C1151.85,-132.71 1136.48,-119.19 1123.29,-107.58"/>
<polygon fill="#63b8ff" stroke="#63b8ff" points="1125.97,-105.28 1116.15,-101.3 1121.34,-110.53 1125.97,-105.28"/>
</a>
</g>
</g>
<!-- Node31&#45;&gt;Node8 -->
<g id="edge39_Node000031_Node000008" class="edge">
<title>Node31&#45;&gt;Node8</title>
<g id="a_edge39_Node000031_Node000008"><a xlink:title=" ">
<path fill="none" stroke="#63b8ff" d="M1189.24,-141.54C1208.28,-130.71 1239.73,-112.82 1262.15,-100.06"/>
<polygon fill="#63b8ff" stroke="#63b8ff" points="1263.76,-103.17 1270.72,-95.19 1260.3,-97.09 1263.76,-103.17"/>
</a>
</g>
</g>
<!-- Node31&#45;&gt;Node22 -->
<g id="edge40_Node000031_Node000022" class="edge">
<title>Node31&#45;&gt;Node22</title>
<g id="a_edge40_Node000031_Node000022"><a xlink:title=" ">
<path fill="none" stroke="#63b8ff" d="M1172.62,-141.79C1172.62,-120.47 1172.62,-67.27 1172.62,-37.68"/>
<polygon fill="#63b8ff" stroke="#63b8ff" points="1176.13,-37.79 1172.63,-27.79 1169.13,-37.79 1176.13,-37.79"/>
</a>
</g>
</g>
<!-- Node31&#45;&gt;Node25 -->
<g id="edge42_Node000031_Node000025" class="edge">
<title>Node31&#45;&gt;Node25</title>
<g id="a_edge42_Node000031_Node000025"><a xlink:title=" ">
<path fill="none" stroke="#63b8ff" d="M1094.76,-142.76C1039.69,-135.4 964.72,-122.24 901.62,-100 900.97,-99.77 900.32,-99.53 899.67,-99.27"/>
<polygon fill="#63b8ff" stroke="#63b8ff" points="901.15,-96.1 890.6,-95.08 898.21,-102.46 901.15,-96.1"/>
</a>
</g>
</g>
</g>
</svg>
