<?xml version="1.0" encoding="UTF-8" standalone="no"?>
<!DOCTYPE svg PUBLIC "-//W3C//DTD SVG 1.1//EN"
 "http://www.w3.org/Graphics/SVG/1.1/DTD/svg11.dtd">
<!-- Generated by graphviz version 13.1.0 (20250701.0955)
 -->
<!-- Title: Lib::Helper::DateTime::Date::isLeapYear Pages: 1 -->
<svg width="282pt" height="90pt"
 viewBox="0.00 0.00 282.00 90.00" xmlns="http://www.w3.org/2000/svg" xmlns:xlink="http://www.w3.org/1999/xlink">
<g id="graph0" class="graph" transform="scale(1 1) rotate(0) translate(4 86)">
<title>Lib::Helper::DateTime::Date::isLeapYear</title>
<!-- Node1 -->
<g id="Node000001" class="node">
<title>Node1</title>
<g id="a_Node000001"><a xlink:title="Checks if a year is a leap year.">
<polygon fill="#999999" stroke="#666666" points="274.25,-57 162.25,-57 162.25,-25 274.25,-25 274.25,-57"/>
<text xml:space="preserve" text-anchor="start" x="170.25" y="-43.5" font-family="Helvetica,sans-Serif" font-size="10.00">Lib::Helper::DateTime</text>
<text xml:space="preserve" text-anchor="middle" x="218.25" y="-31.5" font-family="Helvetica,sans-Serif" font-size="10.00">::Date::isLeapYear</text>
</a>
</g>
</g>
<!-- Node2 -->
<g id="Node000002" class="node">
<title>Node2</title>
<g id="a_Node000002"><a xlink:href="../../dd/deb/a01628.html#ae8a16d6a9dcb9614dca60f60582e2a71" target="_top" xlink:title="Returns the number of days in the month for a given Date.">
<polygon fill="white" stroke="#666666" points="126.25,-82 0,-82 0,-50 126.25,-50 126.25,-82"/>
<text xml:space="preserve" text-anchor="start" x="8" y="-68.5" font-family="Helvetica,sans-Serif" font-size="10.00">Lib::Helper::DateTime</text>
<text xml:space="preserve" text-anchor="middle" x="63.12" y="-56.5" font-family="Helvetica,sans-Serif" font-size="10.00">::Date::getDaysInMounth</text>
</a>
</g>
</g>
<!-- Node1&#45;&gt;Node2 -->
<g id="edge1_Node000001_Node000002" class="edge">
<title>Node1&#45;&gt;Node2</title>
<g id="a_edge1_Node000001_Node000002"><a xlink:title=" ">
<path fill="none" stroke="#63b8ff" d="M150.76,-51.86C142.74,-53.17 134.56,-54.5 126.6,-55.8"/>
<polygon fill="#63b8ff" stroke="#63b8ff" points="151.17,-55.34 160.47,-50.27 150.04,-48.43 151.17,-55.34"/>
</a>
</g>
</g>
<!-- Node3 -->
<g id="Node000003" class="node">
<title>Node3</title>
<g id="a_Node000003"><a xlink:href="../../dd/deb/a01628.html#a8b6cdc66aab2dfc70162793f5bdd055e" target="_top" xlink:title="Returns the number of days in a given month and year.">
<polygon fill="white" stroke="#666666" points="126.25,-32 0,-32 0,0 126.25,0 126.25,-32"/>
<text xml:space="preserve" text-anchor="start" x="8" y="-18.5" font-family="Helvetica,sans-Serif" font-size="10.00">Lib::Helper::DateTime</text>
<text xml:space="preserve" text-anchor="middle" x="63.12" y="-6.5" font-family="Helvetica,sans-Serif" font-size="10.00">::Date::getDaysInMounth</text>
</a>
</g>
</g>
<!-- Node1&#45;&gt;Node3 -->
<g id="edge2_Node000001_Node000003" class="edge">
<title>Node1&#45;&gt;Node3</title>
<g id="a_edge2_Node000001_Node000003"><a xlink:title=" ">
<path fill="none" stroke="#63b8ff" d="M150.76,-30.14C142.74,-28.83 134.56,-27.5 126.6,-26.2"/>
<polygon fill="#63b8ff" stroke="#63b8ff" points="150.04,-33.57 160.47,-31.73 151.17,-26.66 150.04,-33.57"/>
</a>
</g>
</g>
</g>
</svg>
