<?xml version="1.0" encoding="UTF-8" standalone="no"?>
<!DOCTYPE svg PUBLIC "-//W3C//DTD SVG 1.1//EN"
 "http://www.w3.org/Graphics/SVG/1.1/DTD/svg11.dtd">
<!-- Generated by graphviz version 13.1.0 (20250701.0955)
 -->
<!-- Title: Lib::Helper::DateTime::Date::dayOfWeekShortString Pages: 1 -->
<svg width="305pt" height="108pt"
 viewBox="0.00 0.00 305.00 108.00" xmlns="http://www.w3.org/2000/svg" xmlns:xlink="http://www.w3.org/1999/xlink">
<g id="graph0" class="graph" transform="scale(1 1) rotate(0) translate(4 104)">
<title>Lib::Helper::DateTime::Date::dayOfWeekShortString</title>
<!-- Node1 -->
<g id="Node000001" class="node">
<title>Node1</title>
<g id="a_Node000001"><a xlink:title="Returns the short string representation of the day of the week for a given Date.">
<polygon fill="#999999" stroke="#666666" points="148.75,-66 0,-66 0,-34 148.75,-34 148.75,-66"/>
<text xml:space="preserve" text-anchor="start" x="8" y="-52.5" font-family="Helvetica,sans-Serif" font-size="10.00">Lib::Helper::DateTime</text>
<text xml:space="preserve" text-anchor="middle" x="74.38" y="-40.5" font-family="Helvetica,sans-Serif" font-size="10.00">::Date::dayOfWeekShortString</text>
</a>
</g>
</g>
<!-- Node2 -->
<g id="Node000002" class="node">
<title>Node2</title>
<g id="a_Node000002"><a xlink:href="../../dd/deb/a01628.html#aaaa2869b56ac2a73e43377ae29287efe" target="_top" xlink:title="Constructs a Date object with default values (1.1.FIRST_YEAR).">
<polygon fill="white" stroke="#666666" points="296.75,-100 184.75,-100 184.75,-68 296.75,-68 296.75,-100"/>
<text xml:space="preserve" text-anchor="start" x="192.75" y="-86.5" font-family="Helvetica,sans-Serif" font-size="10.00">Lib::Helper::DateTime</text>
<text xml:space="preserve" text-anchor="middle" x="240.75" y="-74.5" font-family="Helvetica,sans-Serif" font-size="10.00">::Date::Date</text>
</a>
</g>
</g>
<!-- Node1&#45;&gt;Node2 -->
<g id="edge1_Node000001_Node000002" class="edge">
<title>Node1&#45;&gt;Node2</title>
<g id="a_edge1_Node000001_Node000002"><a xlink:title=" ">
<path fill="none" stroke="#63b8ff" d="M148.91,-65.21C157.04,-66.89 165.29,-68.6 173.33,-70.26"/>
<polygon fill="#63b8ff" stroke="#63b8ff" points="172.54,-73.67 183.04,-72.27 173.96,-66.82 172.54,-73.67"/>
</a>
</g>
</g>
<!-- Node3 -->
<g id="Node000003" class="node">
<title>Node3</title>
<g id="a_Node000003"><a xlink:href="../../dd/deb/a01628.html#a66eae7c3ed1258b8284a3bdbd6cb9f96" target="_top" xlink:title="Returns the day of the week for this Date.">
<polygon fill="white" stroke="#666666" points="296.75,-32 184.75,-32 184.75,0 296.75,0 296.75,-32"/>
<text xml:space="preserve" text-anchor="start" x="192.75" y="-18.5" font-family="Helvetica,sans-Serif" font-size="10.00">Lib::Helper::DateTime</text>
<text xml:space="preserve" text-anchor="middle" x="240.75" y="-6.5" font-family="Helvetica,sans-Serif" font-size="10.00">::Date::dayOfWeek</text>
</a>
</g>
</g>
<!-- Node1&#45;&gt;Node3 -->
<g id="edge2_Node000001_Node000003" class="edge">
<title>Node1&#45;&gt;Node3</title>
<g id="a_edge2_Node000001_Node000003"><a xlink:title=" ">
<path fill="none" stroke="#63b8ff" d="M148.91,-34.79C157.04,-33.11 165.29,-31.4 173.33,-29.74"/>
<polygon fill="#63b8ff" stroke="#63b8ff" points="173.96,-33.18 183.04,-27.73 172.54,-26.33 173.96,-33.18"/>
</a>
</g>
</g>
<!-- Node3&#45;&gt;Node3 -->
<g id="edge3_Node000003_Node000003" class="edge">
<title>Node3&#45;&gt;Node3</title>
<g id="a_edge3_Node000003_Node000003"><a xlink:title=" ">
<path fill="none" stroke="#63b8ff" d="M211.05,-32.44C205.5,-41.58 215.4,-50 240.75,-50 254.61,-50 263.85,-47.48 268.48,-43.71"/>
<polygon fill="#63b8ff" stroke="#63b8ff" points="271.91,-44.39 270.19,-33.93 265.01,-43.18 271.91,-44.39"/>
</a>
</g>
</g>
</g>
</svg>
