<?xml version="1.0" encoding="UTF-8" standalone="no"?>
<!DOCTYPE svg PUBLIC "-//W3C//DTD SVG 1.1//EN"
 "http://www.w3.org/Graphics/SVG/1.1/DTD/svg11.dtd">
<!-- Generated by graphviz version 13.1.0 (20250701.0955)
 -->
<!-- Title: RTOS::Timeout::fromMilliseconds Pages: 1 -->
<svg width="333pt" height="78pt"
 viewBox="0.00 0.00 333.00 78.00" xmlns="http://www.w3.org/2000/svg" xmlns:xlink="http://www.w3.org/1999/xlink">
<g id="graph0" class="graph" transform="scale(1 1) rotate(0) translate(4 74)">
<title>RTOS::Timeout::fromMilliseconds</title>
<!-- Node1 -->
<g id="Node000001" class="node">
<title>Node1</title>
<g id="a_Node000001"><a xlink:title="Create timeout from milliseconds.">
<polygon fill="#999999" stroke="#666666" points="163.75,-48 0,-48 0,-28 163.75,-28 163.75,-48"/>
<text xml:space="preserve" text-anchor="middle" x="81.88" y="-34.5" font-family="Helvetica,sans-Serif" font-size="10.00">RTOS::Timeout::fromMilliseconds</text>
</a>
</g>
</g>
<!-- Node2 -->
<g id="Node000002" class="node">
<title>Node2</title>
<g id="a_Node000002"><a xlink:href="../../da/d31/a00234.html#a3f92605e733513d2d484f1e56732616f" target="_top" xlink:title="Constructor of Timeout.">
<polygon fill="white" stroke="#666666" points="325.25,-70 199.75,-70 199.75,-50 325.25,-50 325.25,-70"/>
<text xml:space="preserve" text-anchor="middle" x="262.5" y="-56.5" font-family="Helvetica,sans-Serif" font-size="10.00">RTOS::Timeout::Timeout</text>
</a>
</g>
</g>
<!-- Node1&#45;&gt;Node2 -->
<g id="edge1_Node000001_Node000002" class="edge">
<title>Node1&#45;&gt;Node2</title>
<g id="a_edge1_Node000001_Node000002"><a xlink:title=" ">
<path fill="none" stroke="#63b8ff" d="M164.09,-48C172.07,-48.99 180.15,-49.98 188.05,-50.95"/>
<polygon fill="#63b8ff" stroke="#63b8ff" points="187.62,-54.43 197.98,-52.18 188.48,-47.48 187.62,-54.43"/>
</a>
</g>
</g>
<!-- Node3 -->
<g id="Node000003" class="node">
<title>Node3</title>
<g id="a_Node000003"><a xlink:href="../../d0/d24/a00222.html#ac0cef5f74597d9fd2e71b9eed937365d" target="_top" xlink:title="Converts milliseconds to equivalent FreeRTOS tick count.">
<polygon fill="white" stroke="#666666" points="316.62,-32 208.38,-32 208.38,0 316.62,0 316.62,-32"/>
<text xml:space="preserve" text-anchor="start" x="216.38" y="-18.5" font-family="Helvetica,sans-Serif" font-size="10.00">RTOS::TickCounter::</text>
<text xml:space="preserve" text-anchor="middle" x="262.5" y="-6.5" font-family="Helvetica,sans-Serif" font-size="10.00">msToTicks</text>
</a>
</g>
</g>
<!-- Node1&#45;&gt;Node3 -->
<g id="edge2_Node000001_Node000003" class="edge">
<title>Node1&#45;&gt;Node3</title>
<g id="a_edge2_Node000001_Node000003"><a xlink:title=" ">
<path fill="none" stroke="#63b8ff" d="M164.09,-28C175.05,-26.65 186.18,-25.28 196.8,-23.97"/>
<polygon fill="#63b8ff" stroke="#63b8ff" points="197.1,-27.46 206.6,-22.76 196.25,-20.51 197.1,-27.46"/>
</a>
</g>
</g>
</g>
</svg>
