<?xml version="1.0" encoding="UTF-8" standalone="no"?>
<!DOCTYPE svg PUBLIC "-//W3C//DTD SVG 1.1//EN"
 "http://www.w3.org/Graphics/SVG/1.1/DTD/svg11.dtd">
<!-- Generated by graphviz version 12.2.1 (20241206.2353)
 -->
<!-- Title: Lib::Xbee::Core::Module Pages: 1 -->
<svg width="332pt" height="648pt"
 viewBox="0.00 0.00 332.38 648.00" xmlns="http://www.w3.org/2000/svg" xmlns:xlink="http://www.w3.org/1999/xlink">
<g id="graph0" class="graph" transform="scale(1 1) rotate(0) translate(4 644)">
<title>Lib::Xbee::Core::Module</title>
<!-- Node1 -->
<g id="Node000001" class="node">
<title>Node1</title>
<g id="a_Node000001"><a xlink:title="Handles communication with XBee devices.">
<polygon fill="#999999" stroke="none" points="277.62,-164 148.62,-164 148.62,0 277.62,0 277.62,-164"/>
<text text-anchor="start" x="160.25" y="-150.5" font-family="Helvetica,sans-Serif" font-size="10.00">Lib::Xbee::Core::Module</text>
<text text-anchor="start" x="152.62" y="-134.5" font-family="Helvetica,sans-Serif" font-size="10.00">+</text>
<text text-anchor="start" x="162.62" y="-134.5" font-family="Helvetica,sans-Serif" font-size="10.00">onBeginMessageSend</text>
<text text-anchor="start" x="152.62" y="-118.5" font-family="Helvetica,sans-Serif" font-size="10.00">+</text>
<text text-anchor="start" x="162.62" y="-118.5" font-family="Helvetica,sans-Serif" font-size="10.00">onEndMessageSend</text>
<text text-anchor="start" x="152.62" y="-102.5" font-family="Helvetica,sans-Serif" font-size="10.00">+</text>
<text text-anchor="start" x="162.62" y="-102.5" font-family="Helvetica,sans-Serif" font-size="10.00">onBeginMessageReceive</text>
<text text-anchor="start" x="152.62" y="-86.5" font-family="Helvetica,sans-Serif" font-size="10.00">+</text>
<text text-anchor="start" x="162.62" y="-86.5" font-family="Helvetica,sans-Serif" font-size="10.00">onEndMessageReceived</text>
<text text-anchor="start" x="152.62" y="-70.5" font-family="Helvetica,sans-Serif" font-size="10.00">+</text>
<text text-anchor="start" x="162.62" y="-70.5" font-family="Helvetica,sans-Serif" font-size="10.00">Module()</text>
<text text-anchor="start" x="152.62" y="-54.5" font-family="Helvetica,sans-Serif" font-size="10.00">+</text>
<text text-anchor="start" x="162.62" y="-54.5" font-family="Helvetica,sans-Serif" font-size="10.00">~Module()</text>
<text text-anchor="start" x="152.62" y="-38.5" font-family="Helvetica,sans-Serif" font-size="10.00">+</text>
<text text-anchor="start" x="162.62" y="-38.5" font-family="Helvetica,sans-Serif" font-size="10.00">init()</text>
<text text-anchor="start" x="152.62" y="-22.5" font-family="Helvetica,sans-Serif" font-size="10.00">+</text>
<text text-anchor="start" x="162.62" y="-22.5" font-family="Helvetica,sans-Serif" font-size="10.00">reset()</text>
<text text-anchor="start" x="152.62" y="-6.5" font-family="Helvetica,sans-Serif" font-size="10.00">+</text>
<text text-anchor="start" x="162.62" y="-6.5" font-family="Helvetica,sans-Serif" font-size="10.00">send()</text>
<polygon fill="#666666" stroke="#666666" points="148.62,-146 148.62,-146 277.62,-146 277.62,-146 148.62,-146"/>
<polygon fill="#666666" stroke="#666666" points="148.62,-82 148.62,-82 160.62,-82 160.62,-82 148.62,-82"/>
<polygon fill="#666666" stroke="#666666" points="160.62,-82 160.62,-82 277.62,-82 277.62,-82 160.62,-82"/>
<polygon fill="none" stroke="#666666" points="148.62,0 148.62,-164 277.62,-164 277.62,0 148.62,0"/>
</a>
</g>
</g>
<!-- Node2 -->
<g id="Node000002" class="node">
<title>Node2</title>
<g id="a_Node000002"><a xlink:href="../../d8/d95/a00379.html" target="_top" xlink:title="Manages communication with the XBee module.">
<polygon fill="white" stroke="none" points="170.25,-428 0,-428 0,-212 170.25,-212 170.25,-428"/>
<text text-anchor="start" x="24.38" y="-414.5" font-family="Helvetica,sans-Serif" font-size="10.00">Lib::Xbee::Core::ComDriver</text>
<text text-anchor="start" x="4.38" y="-398.5" font-family="Helvetica,sans-Serif" font-size="10.00">#</text>
<text text-anchor="start" x="14" y="-398.5" font-family="Helvetica,sans-Serif" font-size="10.00">resetPin</text>
<text text-anchor="start" x="4" y="-382.5" font-family="Helvetica,sans-Serif" font-size="10.00">+</text>
<text text-anchor="start" x="14" y="-382.5" font-family="Helvetica,sans-Serif" font-size="10.00">ComDriver()</text>
<text text-anchor="start" x="4" y="-366.5" font-family="Helvetica,sans-Serif" font-size="10.00">+</text>
<text text-anchor="start" x="14" y="-366.5" font-family="Helvetica,sans-Serif" font-size="10.00">~ComDriver()</text>
<text text-anchor="start" x="4" y="-350.5" font-family="Helvetica,sans-Serif" font-size="10.00">+</text>
<text text-anchor="start" x="14" y="-350.5" font-family="Helvetica,sans-Serif" font-size="10.00">init()</text>
<text text-anchor="start" x="4" y="-334.5" font-family="Helvetica,sans-Serif" font-size="10.00">+</text>
<text text-anchor="start" x="14" y="-334.5" font-family="Helvetica,sans-Serif" font-size="10.00">send()</text>
<text text-anchor="start" x="4" y="-318.5" font-family="Helvetica,sans-Serif" font-size="10.00">+</text>
<text text-anchor="start" x="14" y="-318.5" font-family="Helvetica,sans-Serif" font-size="10.00">handleMessageReceivingBegin</text>
<text text-anchor="start" x="14" y="-306.5" font-family="Helvetica,sans-Serif" font-size="10.00">Event()</text>
<text text-anchor="start" x="4" y="-290.5" font-family="Helvetica,sans-Serif" font-size="10.00">+</text>
<text text-anchor="start" x="14" y="-290.5" font-family="Helvetica,sans-Serif" font-size="10.00">handleMessageReceivingEnd</text>
<text text-anchor="start" x="14" y="-278.5" font-family="Helvetica,sans-Serif" font-size="10.00">Event()</text>
<text text-anchor="start" x="4" y="-262.5" font-family="Helvetica,sans-Serif" font-size="10.00">+</text>
<text text-anchor="start" x="14" y="-262.5" font-family="Helvetica,sans-Serif" font-size="10.00">handleMessageSendingBegin</text>
<text text-anchor="start" x="14" y="-250.5" font-family="Helvetica,sans-Serif" font-size="10.00">Event()</text>
<text text-anchor="start" x="4" y="-234.5" font-family="Helvetica,sans-Serif" font-size="10.00">+</text>
<text text-anchor="start" x="14" y="-234.5" font-family="Helvetica,sans-Serif" font-size="10.00">handleMessageSendingEndEvent()</text>
<text text-anchor="start" x="4.38" y="-218.5" font-family="Helvetica,sans-Serif" font-size="10.00">#</text>
<text text-anchor="start" x="14" y="-218.5" font-family="Helvetica,sans-Serif" font-size="10.00">reset()</text>
<polygon fill="#666666" stroke="#666666" points="0,-410 0,-410 170.25,-410 170.25,-410 0,-410"/>
<polygon fill="#666666" stroke="#666666" points="0,-394 0,-394 12,-394 12,-394 0,-394"/>
<polygon fill="#666666" stroke="#666666" points="12,-394 12,-394 170.25,-394 170.25,-394 12,-394"/>
<polygon fill="none" stroke="#666666" points="0,-212 0,-428 170.25,-428 170.25,-212 0,-212"/>
</a>
</g>
</g>
<!-- Node2&#45;&gt;Node1 -->
<g id="edge1_Node000001_Node000002" class="edge">
<title>Node2&#45;&gt;Node1</title>
<g id="a_edge1_Node000001_Node000002"><a xlink:title=" ">
<path fill="none" stroke="#8b1a1a" d="M148.51,-202.14C155.54,-189.16 162.59,-176.17 169.31,-163.78"/>
<polygon fill="none" stroke="#8b1a1a" points="145.55,-200.26 143.85,-210.72 151.7,-203.6 145.55,-200.26"/>
</a>
</g>
</g>
<!-- Node3 -->
<g id="Node000003" class="node">
<title>Node3</title>
<g id="a_Node000003"><a xlink:href="../../db/d95/a00391.html" target="_top" xlink:title="Tracks various message statistics in the Xbee Core library.">
<polygon fill="white" stroke="none" points="163.5,-640 6.75,-640 6.75,-476 163.5,-476 163.5,-640"/>
<text text-anchor="start" x="24.75" y="-626.5" font-family="Helvetica,sans-Serif" font-size="10.00">Lib::Xbee::Core::Diagnostic</text>
<text text-anchor="start" x="10.75" y="-610.5" font-family="Helvetica,sans-Serif" font-size="10.00">+</text>
<text text-anchor="start" x="20.75" y="-610.5" font-family="Helvetica,sans-Serif" font-size="10.00">receivedDataMessages</text>
<text text-anchor="start" x="10.75" y="-594.5" font-family="Helvetica,sans-Serif" font-size="10.00">+</text>
<text text-anchor="start" x="20.75" y="-594.5" font-family="Helvetica,sans-Serif" font-size="10.00">sendedDataMessages</text>
<text text-anchor="start" x="10.75" y="-578.5" font-family="Helvetica,sans-Serif" font-size="10.00">+</text>
<text text-anchor="start" x="20.75" y="-578.5" font-family="Helvetica,sans-Serif" font-size="10.00">receivedATCommandMessages</text>
<text text-anchor="start" x="10.75" y="-562.5" font-family="Helvetica,sans-Serif" font-size="10.00">+</text>
<text text-anchor="start" x="20.75" y="-562.5" font-family="Helvetica,sans-Serif" font-size="10.00">sendedATCommandMessages</text>
<text text-anchor="start" x="10.75" y="-546.5" font-family="Helvetica,sans-Serif" font-size="10.00">+</text>
<text text-anchor="start" x="20.75" y="-546.5" font-family="Helvetica,sans-Serif" font-size="10.00">ignoredMessagesByTimeout</text>
<text text-anchor="start" x="10.75" y="-530.5" font-family="Helvetica,sans-Serif" font-size="10.00">+</text>
<text text-anchor="start" x="20.75" y="-530.5" font-family="Helvetica,sans-Serif" font-size="10.00">maxMsgLenghtErrors</text>
<text text-anchor="start" x="10.75" y="-514.5" font-family="Helvetica,sans-Serif" font-size="10.00">+</text>
<text text-anchor="start" x="20.75" y="-514.5" font-family="Helvetica,sans-Serif" font-size="10.00">invalidMessages</text>
<text text-anchor="start" x="10.75" y="-498.5" font-family="Helvetica,sans-Serif" font-size="10.00">+</text>
<text text-anchor="start" x="20.75" y="-498.5" font-family="Helvetica,sans-Serif" font-size="10.00">sendedDataMessagesTimeout</text>
<text text-anchor="start" x="10.75" y="-482.5" font-family="Helvetica,sans-Serif" font-size="10.00">+</text>
<text text-anchor="start" x="20.75" y="-482.5" font-family="Helvetica,sans-Serif" font-size="10.00">getInstance()</text>
<polygon fill="#666666" stroke="#666666" points="6.75,-622 6.75,-622 163.5,-622 163.5,-622 6.75,-622"/>
<polygon fill="#666666" stroke="#666666" points="6.75,-494 6.75,-494 18.75,-494 18.75,-494 6.75,-494"/>
<polygon fill="#666666" stroke="#666666" points="18.75,-494 18.75,-494 163.5,-494 163.5,-494 18.75,-494"/>
<polygon fill="none" stroke="#666666" points="6.75,-476 6.75,-640 163.5,-640 163.5,-476 6.75,-476"/>
</a>
</g>
</g>
<!-- Node3&#45;&gt;Node2 -->
<g id="edge2_Node000002_Node000003" class="edge">
<title>Node3&#45;&gt;Node2</title>
<g id="a_edge2_Node000002_Node000003"><a xlink:title=" ">
<path fill="none" stroke="#63b8ff" d="M85.12,-476.11C85.12,-464.65 85.12,-452.66 85.12,-440.65"/>
<polygon fill="none" stroke="#63b8ff" points="85.13,-440.54 81.13,-434.54 85.13,-428.54 89.13,-434.54 85.13,-440.54"/>
</a>
</g>
<text text-anchor="middle" x="111.38" y="-448.5" font-family="Helvetica,sans-Serif" font-size="10.00" fill="grey"> #diagnostic</text>
</g>
<!-- Node4 -->
<g id="Node000004" class="node">
<title>Node4</title>
<g id="a_Node000004"><a xlink:href="../../dd/d9c/a00487.html" target="_top" xlink:title="Handles various XBee response events.">
<polygon fill="white" stroke="none" points="324.38,-414 187.88,-414 187.88,-226 324.38,-226 324.38,-414"/>
<text text-anchor="start" x="196.88" y="-400.5" font-family="Helvetica,sans-Serif" font-size="10.00">Lib::Xbee::Core::Response</text>
<text text-anchor="start" x="240.75" y="-388.5" font-family="Helvetica,sans-Serif" font-size="10.00">Events</text>
<text text-anchor="start" x="191.88" y="-372.5" font-family="Helvetica,sans-Serif" font-size="10.00">+</text>
<text text-anchor="start" x="201.88" y="-372.5" font-family="Helvetica,sans-Serif" font-size="10.00">onReceivePacket64bit</text>
<text text-anchor="start" x="191.88" y="-356.5" font-family="Helvetica,sans-Serif" font-size="10.00">+</text>
<text text-anchor="start" x="201.88" y="-356.5" font-family="Helvetica,sans-Serif" font-size="10.00">onReceivePacket16bit</text>
<text text-anchor="start" x="191.88" y="-340.5" font-family="Helvetica,sans-Serif" font-size="10.00">+</text>
<text text-anchor="start" x="201.88" y="-340.5" font-family="Helvetica,sans-Serif" font-size="10.00">onLocalAtCommand</text>
<text text-anchor="start" x="191.88" y="-324.5" font-family="Helvetica,sans-Serif" font-size="10.00">+</text>
<text text-anchor="start" x="201.88" y="-324.5" font-family="Helvetica,sans-Serif" font-size="10.00">onTransmitStatus</text>
<text text-anchor="start" x="191.88" y="-308.5" font-family="Helvetica,sans-Serif" font-size="10.00">+</text>
<text text-anchor="start" x="201.88" y="-308.5" font-family="Helvetica,sans-Serif" font-size="10.00">onModemStatusChanged</text>
<text text-anchor="start" x="191.88" y="-292.5" font-family="Helvetica,sans-Serif" font-size="10.00">+</text>
<text text-anchor="start" x="201.88" y="-292.5" font-family="Helvetica,sans-Serif" font-size="10.00">onExtendedTransmitStatus</text>
<text text-anchor="start" x="201.88" y="-280.5" font-family="Helvetica,sans-Serif" font-size="10.00">Changed</text>
<text text-anchor="start" x="191.88" y="-264.5" font-family="Helvetica,sans-Serif" font-size="10.00">+</text>
<text text-anchor="start" x="201.88" y="-264.5" font-family="Helvetica,sans-Serif" font-size="10.00">onPacketReceived</text>
<text text-anchor="start" x="191.88" y="-248.5" font-family="Helvetica,sans-Serif" font-size="10.00">+</text>
<text text-anchor="start" x="201.88" y="-248.5" font-family="Helvetica,sans-Serif" font-size="10.00">onRemoteATCommand</text>
<text text-anchor="start" x="191.88" y="-232.5" font-family="Helvetica,sans-Serif" font-size="10.00">+</text>
<text text-anchor="start" x="201.88" y="-232.5" font-family="Helvetica,sans-Serif" font-size="10.00">getInstance()</text>
<polygon fill="#666666" stroke="#666666" points="187.88,-384 187.88,-384 324.38,-384 324.38,-384 187.88,-384"/>
<polygon fill="#666666" stroke="#666666" points="187.88,-244 187.88,-244 199.88,-244 199.88,-244 187.88,-244"/>
<polygon fill="#666666" stroke="#666666" points="199.88,-244 199.88,-244 324.38,-244 324.38,-244 199.88,-244"/>
<polygon fill="none" stroke="#666666" points="187.88,-226 187.88,-414 324.38,-414 324.38,-226 187.88,-226"/>
</a>
</g>
</g>
<!-- Node4&#45;&gt;Node1 -->
<g id="edge3_Node000001_Node000004" class="edge">
<title>Node4&#45;&gt;Node1</title>
<g id="a_edge3_Node000001_Node000004"><a xlink:title=" ">
<path fill="none" stroke="#63b8ff" d="M239.19,-226.07C236.24,-209.88 233.17,-193.04 230.22,-176.83"/>
<polygon fill="none" stroke="#63b8ff" points="230.2,-176.69 225.18,-171.5 228.04,-164.88 233.06,-170.07 230.2,-176.69"/>
</a>
</g>
<text text-anchor="middle" x="273.09" y="-184.5" font-family="Helvetica,sans-Serif" font-size="10.00" fill="grey"> +responseEvents</text>
</g>
</g>
</svg>
