<?xml version="1.0" encoding="UTF-8" standalone="no"?>
<!DOCTYPE svg PUBLIC "-//W3C//DTD SVG 1.1//EN"
 "http://www.w3.org/Graphics/SVG/1.1/DTD/svg11.dtd">
<!-- Generated by graphviz version 13.1.0 (20250701.0955)
 -->
<!-- Title: Lib::Xbee::API::Connection Pages: 1 -->
<svg width="620pt" height="808pt"
 viewBox="0.00 0.00 620.00 808.00" xmlns="http://www.w3.org/2000/svg" xmlns:xlink="http://www.w3.org/1999/xlink">
<g id="graph0" class="graph" transform="scale(1 1) rotate(0) translate(4 804)">
<title>Lib::Xbee::API::Connection</title>
<!-- Node1 -->
<g id="Node000001" class="node">
<title>Node1</title>
<g id="a_Node000001"><a xlink:title="Manages connection state, quality, and statistics for Xbee API clients.">
<polygon fill="#999999" stroke="none" points="295.62,-52 168.38,-52 168.38,0 295.62,0 295.62,-52"/>
<text xml:space="preserve" text-anchor="start" x="172.38" y="-38.5" font-family="Helvetica,sans-Serif" font-size="10.00">Lib::Xbee::API::Connection</text>
<text xml:space="preserve" text-anchor="start" x="230.5" y="-22.5" font-family="Helvetica,sans-Serif" font-size="10.00"> </text>
<text xml:space="preserve" text-anchor="start" x="185.81" y="-6.5" font-family="Helvetica,sans-Serif" font-size="10.00">+</text>
<text xml:space="preserve" text-anchor="start" x="209.25" y="-6.5" font-family="Helvetica,sans-Serif" font-size="10.00">Connection()</text>
<polygon fill="#666666" stroke="#666666" points="168.38,-34 168.38,-34 295.62,-34 295.62,-34 168.38,-34"/>
<polygon fill="#666666" stroke="#666666" points="168.38,-18 168.38,-18 295.62,-18 295.62,-18 168.38,-18"/>
<polygon fill="none" stroke="#666666" points="168.38,0 168.38,-52 295.62,-52 295.62,0 168.38,0"/>
</a>
</g>
</g>
<!-- Node2 -->
<g id="Node000002" class="node">
<title>Node2</title>
<g id="a_Node000002"><a xlink:href="../../d6/d41/class_lib_1_1_xbee_1_1_a_p_i_1_1_connection_1_1_state.html" target="_top" xlink:title="Represents the connection state and handles state transitions.">
<polygon fill="white" stroke="none" points="150,-394 0,-394 0,-106 150,-106 150,-394"/>
<text xml:space="preserve" text-anchor="start" x="15.38" y="-380.5" font-family="Helvetica,sans-Serif" font-size="10.00">Lib::Xbee::API::Connection</text>
<text xml:space="preserve" text-anchor="start" x="60.38" y="-368.5" font-family="Helvetica,sans-Serif" font-size="10.00">::State</text>
<text xml:space="preserve" text-anchor="start" x="4" y="-352.5" font-family="Helvetica,sans-Serif" font-size="10.00">+</text>
<text xml:space="preserve" text-anchor="start" x="14" y="-352.5" font-family="Helvetica,sans-Serif" font-size="10.00">std::function&lt; void</text>
<text xml:space="preserve" text-anchor="start" x="14" y="-340.5" font-family="Helvetica,sans-Serif" font-size="10.00">(bool)&gt; onConnectionChanged</text>
<text xml:space="preserve" text-anchor="start" x="4" y="-324.5" font-family="Helvetica,sans-Serif" font-size="10.00">+</text>
<text xml:space="preserve" text-anchor="start" x="14" y="-324.5" font-family="Helvetica,sans-Serif" font-size="10.00">static constexpr uint32</text>
<text xml:space="preserve" text-anchor="start" x="14" y="-312.5" font-family="Helvetica,sans-Serif" font-size="10.00">_t INIT</text>
<text xml:space="preserve" text-anchor="start" x="4" y="-296.5" font-family="Helvetica,sans-Serif" font-size="10.00">+</text>
<text xml:space="preserve" text-anchor="start" x="14" y="-296.5" font-family="Helvetica,sans-Serif" font-size="10.00">static constexpr uint32</text>
<text xml:space="preserve" text-anchor="start" x="14" y="-284.5" font-family="Helvetica,sans-Serif" font-size="10.00">_t READY</text>
<text xml:space="preserve" text-anchor="start" x="4" y="-268.5" font-family="Helvetica,sans-Serif" font-size="10.00">+</text>
<text xml:space="preserve" text-anchor="start" x="14" y="-268.5" font-family="Helvetica,sans-Serif" font-size="10.00">static constexpr uint32</text>
<text xml:space="preserve" text-anchor="start" x="14" y="-256.5" font-family="Helvetica,sans-Serif" font-size="10.00">_t CONNECTED</text>
<text xml:space="preserve" text-anchor="start" x="4" y="-240.5" font-family="Helvetica,sans-Serif" font-size="10.00">+</text>
<text xml:space="preserve" text-anchor="start" x="14" y="-240.5" font-family="Helvetica,sans-Serif" font-size="10.00">static constexpr uint32</text>
<text xml:space="preserve" text-anchor="start" x="14" y="-228.5" font-family="Helvetica,sans-Serif" font-size="10.00">_t DISCONNECTED</text>
<text xml:space="preserve" text-anchor="start" x="4" y="-212.5" font-family="Helvetica,sans-Serif" font-size="10.00">+</text>
<text xml:space="preserve" text-anchor="start" x="14" y="-212.5" font-family="Helvetica,sans-Serif" font-size="10.00">State()=default</text>
<text xml:space="preserve" text-anchor="start" x="4" y="-196.5" font-family="Helvetica,sans-Serif" font-size="10.00">+</text>
<text xml:space="preserve" text-anchor="start" x="14" y="-196.5" font-family="Helvetica,sans-Serif" font-size="10.00">State(uint32_t stateValue)</text>
<text xml:space="preserve" text-anchor="start" x="4" y="-180.5" font-family="Helvetica,sans-Serif" font-size="10.00">+</text>
<text xml:space="preserve" text-anchor="start" x="14" y="-180.5" font-family="Helvetica,sans-Serif" font-size="10.00">void operator=(uint32</text>
<text xml:space="preserve" text-anchor="start" x="14" y="-168.5" font-family="Helvetica,sans-Serif" font-size="10.00">_t stateValue)</text>
<text xml:space="preserve" text-anchor="start" x="4" y="-152.5" font-family="Helvetica,sans-Serif" font-size="10.00">+</text>
<text xml:space="preserve" text-anchor="start" x="14" y="-152.5" font-family="Helvetica,sans-Serif" font-size="10.00">operator uint32_t</text>
<text xml:space="preserve" text-anchor="start" x="14" y="-140.5" font-family="Helvetica,sans-Serif" font-size="10.00">() const</text>
<text xml:space="preserve" text-anchor="start" x="4" y="-124.5" font-family="Helvetica,sans-Serif" font-size="10.00">+</text>
<text xml:space="preserve" text-anchor="start" x="14" y="-124.5" font-family="Helvetica,sans-Serif" font-size="10.00">bool isConnected()</text>
<text xml:space="preserve" text-anchor="start" x="14" y="-112.5" font-family="Helvetica,sans-Serif" font-size="10.00"> const</text>
<polygon fill="#666666" stroke="#666666" points="0,-364 0,-364 150,-364 150,-364 0,-364"/>
<polygon fill="#666666" stroke="#666666" points="0,-224 0,-224 12,-224 12,-224 0,-224"/>
<polygon fill="#666666" stroke="#666666" points="12,-224 12,-224 150,-224 150,-224 12,-224"/>
<polygon fill="none" stroke="#666666" points="0,-106 0,-394 150,-394 150,-106 0,-106"/>
</a>
</g>
</g>
<!-- Node2&#45;&gt;Node1 -->
<g id="edge1_Node000001_Node000002" class="edge">
<title>Node2&#45;&gt;Node1</title>
<g id="a_edge1_Node000001_Node000002"><a xlink:title=" ">
<path fill="none" stroke="#63b8ff" d="M149.8,-118.81C152.84,-114.44 155.91,-110.16 159,-106 170.55,-90.43 184.74,-74.5 197.52,-61.06"/>
<polygon fill="none" stroke="#63b8ff" points="197.56,-61.03 198.86,-53.93 205.9,-52.4 204.6,-59.5 197.56,-61.03"/>
</a>
</g>
<text xml:space="preserve" text-anchor="start" x="190.33" y="-75.5" font-family="Helvetica,sans-Serif" font-size="10.00" fill="grey">+state</text>
</g>
<!-- Node3 -->
<g id="Node000003" class="node">
<title>Node3</title>
<g id="a_Node000003"><a xlink:href="../../d2/d99/class_lib_1_1_xbee_1_1_a_p_i_1_1_connection_1_1_quality.html" target="_top" xlink:title="Assesses connection quality and provides metrics for reliability.">
<polygon fill="white" stroke="none" points="295.62,-364 168.38,-364 168.38,-136 295.62,-136 295.62,-364"/>
<text xml:space="preserve" text-anchor="start" x="172.38" y="-350.5" font-family="Helvetica,sans-Serif" font-size="10.00">Lib::Xbee::API::Connection</text>
<text xml:space="preserve" text-anchor="start" x="213.62" y="-338.5" font-family="Helvetica,sans-Serif" font-size="10.00">::Quality</text>
<text xml:space="preserve" text-anchor="start" x="174.38" y="-322.5" font-family="Helvetica,sans-Serif" font-size="10.00">+</text>
<text xml:space="preserve" text-anchor="start" x="186.38" y="-322.5" font-family="Helvetica,sans-Serif" font-size="10.00">std::function&lt; void</text>
<text xml:space="preserve" text-anchor="start" x="186.38" y="-310.5" font-family="Helvetica,sans-Serif" font-size="10.00">(Quality *)&gt; onUpdate</text>
<text xml:space="preserve" text-anchor="start" x="174.38" y="-294.5" font-family="Helvetica,sans-Serif" font-size="10.00">+</text>
<text xml:space="preserve" text-anchor="start" x="186.38" y="-294.5" font-family="Helvetica,sans-Serif" font-size="10.00">Quality(Connection</text>
<text xml:space="preserve" text-anchor="start" x="186.38" y="-282.5" font-family="Helvetica,sans-Serif" font-size="10.00"> *connection)</text>
<text xml:space="preserve" text-anchor="start" x="174.38" y="-266.5" font-family="Helvetica,sans-Serif" font-size="10.00">+</text>
<text xml:space="preserve" text-anchor="start" x="186.38" y="-266.5" font-family="Helvetica,sans-Serif" font-size="10.00">~Quality()=default</text>
<text xml:space="preserve" text-anchor="start" x="174.38" y="-250.5" font-family="Helvetica,sans-Serif" font-size="10.00">+</text>
<text xml:space="preserve" text-anchor="start" x="186.38" y="-250.5" font-family="Helvetica,sans-Serif" font-size="10.00">void start()</text>
<text xml:space="preserve" text-anchor="start" x="174.38" y="-234.5" font-family="Helvetica,sans-Serif" font-size="10.00">+</text>
<text xml:space="preserve" text-anchor="start" x="186.38" y="-234.5" font-family="Helvetica,sans-Serif" font-size="10.00">void clear()</text>
<text xml:space="preserve" text-anchor="start" x="174.38" y="-218.5" font-family="Helvetica,sans-Serif" font-size="10.00">+</text>
<text xml:space="preserve" text-anchor="start" x="186.38" y="-218.5" font-family="Helvetica,sans-Serif" font-size="10.00">void setRuntimeMode()</text>
<text xml:space="preserve" text-anchor="start" x="174.38" y="-202.5" font-family="Helvetica,sans-Serif" font-size="10.00">+</text>
<text xml:space="preserve" text-anchor="start" x="186.38" y="-202.5" font-family="Helvetica,sans-Serif" font-size="10.00">void setScannerMode()</text>
<text xml:space="preserve" text-anchor="start" x="174.38" y="-186.5" font-family="Helvetica,sans-Serif" font-size="10.00">+</text>
<text xml:space="preserve" text-anchor="start" x="186.38" y="-186.5" font-family="Helvetica,sans-Serif" font-size="10.00">uint8_t getPercent</text>
<text xml:space="preserve" text-anchor="start" x="186.38" y="-174.5" font-family="Helvetica,sans-Serif" font-size="10.00">() const</text>
<text xml:space="preserve" text-anchor="start" x="174.38" y="-158.5" font-family="Helvetica,sans-Serif" font-size="10.00">+</text>
<text xml:space="preserve" text-anchor="start" x="186.38" y="-158.5" font-family="Helvetica,sans-Serif" font-size="10.00">State getState() const</text>
<text xml:space="preserve" text-anchor="start" x="174.38" y="-142.5" font-family="Helvetica,sans-Serif" font-size="10.00">+</text>
<text xml:space="preserve" text-anchor="start" x="186.38" y="-142.5" font-family="Helvetica,sans-Serif" font-size="10.00">State update()</text>
<polygon fill="#666666" stroke="#666666" points="168.38,-334 168.38,-334 295.62,-334 295.62,-334 168.38,-334"/>
<polygon fill="#666666" stroke="#666666" points="168.38,-306 168.38,-306 184.38,-306 184.38,-306 168.38,-306"/>
<polygon fill="#666666" stroke="#666666" points="184.38,-306 184.38,-306 295.62,-306 295.62,-306 184.38,-306"/>
<polygon fill="none" stroke="#666666" points="168.38,-136 168.38,-364 295.62,-364 295.62,-136 168.38,-136"/>
</a>
</g>
</g>
<!-- Node3&#45;&gt;Node1 -->
<g id="edge2_Node000001_Node000003" class="edge">
<title>Node3&#45;&gt;Node1</title>
<g id="a_edge2_Node000001_Node000003"><a xlink:title=" ">
<path fill="none" stroke="#63b8ff" d="M232,-136.05C232,-110.29 232,-84.67 232,-64.74"/>
<polygon fill="none" stroke="#63b8ff" points="232,-64.82 228,-58.82 232,-52.82 236,-58.82 232,-64.82"/>
</a>
</g>
<text xml:space="preserve" text-anchor="start" x="235" y="-75.5" font-family="Helvetica,sans-Serif" font-size="10.00" fill="grey">+quality</text>
</g>
<!-- Node4 -->
<g id="Node000004" class="node">
<title>Node4</title>
<g id="a_Node000004"><a xlink:href="../../dc/d93/class_lib_1_1_xbee_1_1_a_p_i_1_1_connection_1_1_info.html" target="_top" xlink:title="Stores connection statistics and counters for diagnostics.">
<polygon fill="white" stroke="none" points="440.62,-290 313.38,-290 313.38,-210 440.62,-210 440.62,-290"/>
<text xml:space="preserve" text-anchor="start" x="317.38" y="-276.5" font-family="Helvetica,sans-Serif" font-size="10.00">Lib::Xbee::API::Connection</text>
<text xml:space="preserve" text-anchor="start" x="365.75" y="-264.5" font-family="Helvetica,sans-Serif" font-size="10.00">::Info</text>
<text xml:space="preserve" text-anchor="start" x="375.5" y="-248.5" font-family="Helvetica,sans-Serif" font-size="10.00"> </text>
<text xml:space="preserve" text-anchor="start" x="328.75" y="-232.5" font-family="Helvetica,sans-Serif" font-size="10.00">+</text>
<text xml:space="preserve" text-anchor="start" x="350.12" y="-232.5" font-family="Helvetica,sans-Serif" font-size="10.00">Info()=default</text>
<text xml:space="preserve" text-anchor="start" x="328.75" y="-216.5" font-family="Helvetica,sans-Serif" font-size="10.00">+</text>
<text xml:space="preserve" text-anchor="start" x="350.12" y="-216.5" font-family="Helvetica,sans-Serif" font-size="10.00">~Info()=default</text>
<polygon fill="#666666" stroke="#666666" points="313.38,-260 313.38,-260 440.62,-260 440.62,-260 313.38,-260"/>
<polygon fill="#666666" stroke="#666666" points="313.38,-244 313.38,-244 440.62,-244 440.62,-244 313.38,-244"/>
<polygon fill="none" stroke="#666666" points="313.38,-210 313.38,-290 440.62,-290 440.62,-210 313.38,-210"/>
</a>
</g>
</g>
<!-- Node4&#45;&gt;Node1 -->
<g id="edge3_Node000001_Node000004" class="edge">
<title>Node4&#45;&gt;Node1</title>
<g id="a_edge3_Node000001_Node000004"><a xlink:title=" ">
<path fill="none" stroke="#63b8ff" d="M361.46,-210.19C344.69,-171.62 315.18,-112.27 277,-70 274.25,-66.95 271.32,-63.86 268.33,-60.81"/>
<polygon fill="none" stroke="#63b8ff" points="268.45,-60.93 261.37,-59.54 259.93,-52.48 267.01,-53.86 268.45,-60.93"/>
</a>
</g>
<text xml:space="preserve" text-anchor="start" x="294.23" y="-75.5" font-family="Helvetica,sans-Serif" font-size="10.00" fill="grey">+info</text>
</g>
<!-- Node5 -->
<g id="Node000005" class="node">
<title>Node5</title>
<g id="a_Node000005"><a xlink:href="../../da/d94/class_lib_1_1_xbee_1_1_a_p_i_1_1_connection_1_1_info_1_1_signal_strength.html" target="_top" xlink:title="Stores signal strength and provides conversion to percent.">
<polygon fill="white" stroke="none" points="294.88,-746 165.12,-746 165.12,-582 294.88,-582 294.88,-746"/>
<text xml:space="preserve" text-anchor="start" x="170.38" y="-732.5" font-family="Helvetica,sans-Serif" font-size="10.00">Lib::Xbee::API::Connection</text>
<text xml:space="preserve" text-anchor="start" x="183.88" y="-720.5" font-family="Helvetica,sans-Serif" font-size="10.00">::Info::SignalStrength</text>
<text xml:space="preserve" text-anchor="start" x="228.5" y="-704.5" font-family="Helvetica,sans-Serif" font-size="10.00"> </text>
<text xml:space="preserve" text-anchor="start" x="169.12" y="-688.5" font-family="Helvetica,sans-Serif" font-size="10.00">+</text>
<text xml:space="preserve" text-anchor="start" x="179.12" y="-688.5" font-family="Helvetica,sans-Serif" font-size="10.00">SignalStrength()=default</text>
<text xml:space="preserve" text-anchor="start" x="169.12" y="-672.5" font-family="Helvetica,sans-Serif" font-size="10.00">+</text>
<text xml:space="preserve" text-anchor="start" x="179.12" y="-672.5" font-family="Helvetica,sans-Serif" font-size="10.00">SignalStrength(uint8</text>
<text xml:space="preserve" text-anchor="start" x="179.12" y="-660.5" font-family="Helvetica,sans-Serif" font-size="10.00">_t signalValue)</text>
<text xml:space="preserve" text-anchor="start" x="169.12" y="-644.5" font-family="Helvetica,sans-Serif" font-size="10.00">+</text>
<text xml:space="preserve" text-anchor="start" x="179.12" y="-644.5" font-family="Helvetica,sans-Serif" font-size="10.00">SignalStrength &amp; operator</text>
<text xml:space="preserve" text-anchor="start" x="179.12" y="-632.5" font-family="Helvetica,sans-Serif" font-size="10.00">=(uint8_t signalValue)</text>
<text xml:space="preserve" text-anchor="start" x="169.12" y="-616.5" font-family="Helvetica,sans-Serif" font-size="10.00">+</text>
<text xml:space="preserve" text-anchor="start" x="179.12" y="-616.5" font-family="Helvetica,sans-Serif" font-size="10.00">operator uint8_t()</text>
<text xml:space="preserve" text-anchor="start" x="179.12" y="-604.5" font-family="Helvetica,sans-Serif" font-size="10.00"> const</text>
<text xml:space="preserve" text-anchor="start" x="169.12" y="-588.5" font-family="Helvetica,sans-Serif" font-size="10.00">+</text>
<text xml:space="preserve" text-anchor="start" x="179.12" y="-588.5" font-family="Helvetica,sans-Serif" font-size="10.00">uint8_t toPercent()</text>
<polygon fill="#666666" stroke="#666666" points="165.12,-716 165.12,-716 294.88,-716 294.88,-716 165.12,-716"/>
<polygon fill="#666666" stroke="#666666" points="165.12,-700 165.12,-700 294.88,-700 294.88,-700 165.12,-700"/>
<polygon fill="none" stroke="#666666" points="165.12,-582 165.12,-746 294.88,-746 294.88,-582 165.12,-582"/>
</a>
</g>
</g>
<!-- Node5&#45;&gt;Node4 -->
<g id="edge4_Node000004_Node000005" class="edge">
<title>Node5&#45;&gt;Node4</title>
<g id="a_edge4_Node000004_Node000005"><a xlink:title=" ">
<path fill="none" stroke="#63b8ff" d="M248.12,-582.1C260.26,-532.32 277.83,-467.61 298.75,-412 313.11,-373.83 333.31,-332.48 349.59,-301.25"/>
<polygon fill="none" stroke="#63b8ff" points="349.61,-301.22 348.86,-294.04 355.2,-290.6 355.94,-297.77 349.61,-301.22"/>
</a>
</g>
<text xml:space="preserve" text-anchor="start" x="301.75" y="-457.5" font-family="Helvetica,sans-Serif" font-size="10.00" fill="grey">+signalStrength</text>
</g>
<!-- Node6 -->
<g id="Node000006" class="node">
<title>Node6</title>
<g id="a_Node000006"><a xlink:href="../../d8/d3e/class_lib_1_1_xbee_1_1_a_p_i_1_1_connection_1_1_info_1_1_period.html" target="_top" xlink:title="Tracks transmit period statistics and provides min/max/average values.">
<polygon fill="white" stroke="none" points="440.75,-800 313.25,-800 313.25,-528 440.75,-528 440.75,-800"/>
<text xml:space="preserve" text-anchor="start" x="317.38" y="-786.5" font-family="Helvetica,sans-Serif" font-size="10.00">Lib::Xbee::API::Connection</text>
<text xml:space="preserve" text-anchor="start" x="348.88" y="-774.5" font-family="Helvetica,sans-Serif" font-size="10.00">::Info::Period</text>
<text xml:space="preserve" text-anchor="start" x="375.5" y="-758.5" font-family="Helvetica,sans-Serif" font-size="10.00"> </text>
<text xml:space="preserve" text-anchor="start" x="317.25" y="-742.5" font-family="Helvetica,sans-Serif" font-size="10.00">+</text>
<text xml:space="preserve" text-anchor="start" x="327.25" y="-742.5" font-family="Helvetica,sans-Serif" font-size="10.00">Period()</text>
<text xml:space="preserve" text-anchor="start" x="317.25" y="-726.5" font-family="Helvetica,sans-Serif" font-size="10.00">+</text>
<text xml:space="preserve" text-anchor="start" x="327.25" y="-726.5" font-family="Helvetica,sans-Serif" font-size="10.00">uint32_t getValue()</text>
<text xml:space="preserve" text-anchor="start" x="327.25" y="-714.5" font-family="Helvetica,sans-Serif" font-size="10.00"> const</text>
<text xml:space="preserve" text-anchor="start" x="317.25" y="-698.5" font-family="Helvetica,sans-Serif" font-size="10.00">+</text>
<text xml:space="preserve" text-anchor="start" x="327.25" y="-698.5" font-family="Helvetica,sans-Serif" font-size="10.00">uint32_t getRawValue()</text>
<text xml:space="preserve" text-anchor="start" x="317.25" y="-682.5" font-family="Helvetica,sans-Serif" font-size="10.00">+</text>
<text xml:space="preserve" text-anchor="start" x="327.25" y="-682.5" font-family="Helvetica,sans-Serif" font-size="10.00">uint32_t getMinimum</text>
<text xml:space="preserve" text-anchor="start" x="327.25" y="-670.5" font-family="Helvetica,sans-Serif" font-size="10.00">() const</text>
<text xml:space="preserve" text-anchor="start" x="317.25" y="-654.5" font-family="Helvetica,sans-Serif" font-size="10.00">+</text>
<text xml:space="preserve" text-anchor="start" x="327.25" y="-654.5" font-family="Helvetica,sans-Serif" font-size="10.00">uint32_t getMaximum</text>
<text xml:space="preserve" text-anchor="start" x="327.25" y="-642.5" font-family="Helvetica,sans-Serif" font-size="10.00">() const</text>
<text xml:space="preserve" text-anchor="start" x="317.25" y="-626.5" font-family="Helvetica,sans-Serif" font-size="10.00">+</text>
<text xml:space="preserve" text-anchor="start" x="327.25" y="-626.5" font-family="Helvetica,sans-Serif" font-size="10.00">void clearMinMax()</text>
<text xml:space="preserve" text-anchor="start" x="317.25" y="-610.5" font-family="Helvetica,sans-Serif" font-size="10.00">+</text>
<text xml:space="preserve" text-anchor="start" x="327.25" y="-610.5" font-family="Helvetica,sans-Serif" font-size="10.00">void beginMeasurement()</text>
<text xml:space="preserve" text-anchor="start" x="317.25" y="-594.5" font-family="Helvetica,sans-Serif" font-size="10.00">+</text>
<text xml:space="preserve" text-anchor="start" x="327.25" y="-594.5" font-family="Helvetica,sans-Serif" font-size="10.00">void endMeasurement()</text>
<text xml:space="preserve" text-anchor="start" x="317.25" y="-578.5" font-family="Helvetica,sans-Serif" font-size="10.00">+</text>
<text xml:space="preserve" text-anchor="start" x="327.25" y="-578.5" font-family="Helvetica,sans-Serif" font-size="10.00">void stopMeasurement()</text>
<text xml:space="preserve" text-anchor="start" x="317.25" y="-562.5" font-family="Helvetica,sans-Serif" font-size="10.00">+</text>
<text xml:space="preserve" text-anchor="start" x="327.25" y="-562.5" font-family="Helvetica,sans-Serif" font-size="10.00">void reset()</text>
<text xml:space="preserve" text-anchor="start" x="317.25" y="-546.5" font-family="Helvetica,sans-Serif" font-size="10.00">+</text>
<text xml:space="preserve" text-anchor="start" x="327.25" y="-546.5" font-family="Helvetica,sans-Serif" font-size="10.00">operator uint32_t</text>
<text xml:space="preserve" text-anchor="start" x="327.25" y="-534.5" font-family="Helvetica,sans-Serif" font-size="10.00">() const</text>
<polygon fill="#666666" stroke="#666666" points="313.25,-770 313.25,-770 440.75,-770 440.75,-770 313.25,-770"/>
<polygon fill="#666666" stroke="#666666" points="313.25,-754 313.25,-754 440.75,-754 440.75,-754 313.25,-754"/>
<polygon fill="none" stroke="#666666" points="313.25,-528 313.25,-800 440.75,-800 440.75,-528 313.25,-528"/>
</a>
</g>
</g>
<!-- Node6&#45;&gt;Node4 -->
<g id="edge5_Node000004_Node000006" class="edge">
<title>Node6&#45;&gt;Node4</title>
<g id="a_edge5_Node000004_Node000006"><a xlink:title=" ">
<path fill="none" stroke="#63b8ff" d="M377,-528.1C377,-450.97 377,-358.68 377,-302.48"/>
<polygon fill="none" stroke="#63b8ff" points="377,-302.59 373,-296.59 377,-290.59 381,-296.59 377,-302.59"/>
</a>
</g>
<text xml:space="preserve" text-anchor="start" x="380" y="-457.5" font-family="Helvetica,sans-Serif" font-size="10.00" fill="grey">+transmitPeriod</text>
</g>
<!-- Node7 -->
<g id="Node000007" class="node">
<title>Node7</title>
<g id="a_Node000007"><a xlink:href="../../d2/d4a/class_lib_1_1_xbee_1_1_a_p_i_1_1_connection_1_1_info_1_1_counter.html" target="_top" xlink:title="Counter for connection events with a maximum value.">
<polygon fill="white" stroke="none" points="585.62,-732 458.38,-732 458.38,-596 585.62,-596 585.62,-732"/>
<text xml:space="preserve" text-anchor="start" x="462.38" y="-718.5" font-family="Helvetica,sans-Serif" font-size="10.00">Lib::Xbee::API::Connection</text>
<text xml:space="preserve" text-anchor="start" x="490.5" y="-706.5" font-family="Helvetica,sans-Serif" font-size="10.00">::Info::Counter</text>
<text xml:space="preserve" text-anchor="start" x="520.5" y="-690.5" font-family="Helvetica,sans-Serif" font-size="10.00"> </text>
<text xml:space="preserve" text-anchor="start" x="469.06" y="-674.5" font-family="Helvetica,sans-Serif" font-size="10.00">+</text>
<text xml:space="preserve" text-anchor="start" x="485.75" y="-674.5" font-family="Helvetica,sans-Serif" font-size="10.00">Counter()=default</text>
<text xml:space="preserve" text-anchor="start" x="469.06" y="-658.5" font-family="Helvetica,sans-Serif" font-size="10.00">+</text>
<text xml:space="preserve" text-anchor="start" x="485.75" y="-658.5" font-family="Helvetica,sans-Serif" font-size="10.00">operator uint32_t</text>
<text xml:space="preserve" text-anchor="start" x="485.75" y="-646.5" font-family="Helvetica,sans-Serif" font-size="10.00">() const</text>
<text xml:space="preserve" text-anchor="start" x="469.06" y="-630.5" font-family="Helvetica,sans-Serif" font-size="10.00">+</text>
<text xml:space="preserve" text-anchor="start" x="485.75" y="-630.5" font-family="Helvetica,sans-Serif" font-size="10.00">void clear()</text>
<text xml:space="preserve" text-anchor="start" x="469.06" y="-614.5" font-family="Helvetica,sans-Serif" font-size="10.00">+</text>
<text xml:space="preserve" text-anchor="start" x="485.75" y="-614.5" font-family="Helvetica,sans-Serif" font-size="10.00">Counter &amp; operator</text>
<text xml:space="preserve" text-anchor="start" x="485.75" y="-602.5" font-family="Helvetica,sans-Serif" font-size="10.00">++(int)</text>
<polygon fill="#666666" stroke="#666666" points="458.38,-702 458.38,-702 585.62,-702 585.62,-702 458.38,-702"/>
<polygon fill="#666666" stroke="#666666" points="458.38,-686 458.38,-686 585.62,-686 585.62,-686 458.38,-686"/>
<polygon fill="none" stroke="#666666" points="458.38,-596 458.38,-732 585.62,-732 585.62,-596 458.38,-596"/>
</a>
</g>
</g>
<!-- Node7&#45;&gt;Node4 -->
<g id="edge6_Node000004_Node000007" class="edge">
<title>Node7&#45;&gt;Node4</title>
<g id="a_edge6_Node000004_Node000007"><a xlink:title=" ">
<path fill="none" stroke="#63b8ff" d="M508.22,-596.09C496.77,-544.87 478.69,-472.91 456,-412 441.73,-373.71 421.33,-332.37 404.84,-301.17"/>
<polygon fill="none" stroke="#63b8ff" points="404.81,-301.11 398.45,-297.7 399.15,-290.53 405.51,-293.93 404.81,-301.11"/>
</a>
</g>
<text xml:space="preserve" text-anchor="start" x="489.16" y="-497.5" font-family="Helvetica,sans-Serif" font-size="10.00" fill="grey">+deletedMessages</text>
<text xml:space="preserve" text-anchor="start" x="489.16" y="-481.5" font-family="Helvetica,sans-Serif" font-size="10.00" fill="grey">+deletedTransmitStatus</text>
<text xml:space="preserve" text-anchor="start" x="489.16" y="-465.5" font-family="Helvetica,sans-Serif" font-size="10.00" fill="grey">+noTransmitStatus</text>
<text xml:space="preserve" text-anchor="start" x="489.16" y="-449.5" font-family="Helvetica,sans-Serif" font-size="10.00" fill="grey">+reconnectionCounter</text>
<text xml:space="preserve" text-anchor="start" x="489.16" y="-433.5" font-family="Helvetica,sans-Serif" font-size="10.00" fill="grey">+retriesCounter</text>
<text xml:space="preserve" text-anchor="start" x="489.16" y="-417.5" font-family="Helvetica,sans-Serif" font-size="10.00" fill="grey">+unsuccessTransmitStatus</text>
</g>
</g>
</svg>
