<?xml version="1.0" encoding="UTF-8" standalone="no"?>
<!DOCTYPE svg PUBLIC "-//W3C//DTD SVG 1.1//EN"
 "http://www.w3.org/Graphics/SVG/1.1/DTD/svg11.dtd">
<!-- Generated by graphviz version 13.1.0 (20250701.0955)
 -->
<!-- Title: Lib::Xbee::API::Connection Pages: 1 -->
<svg width="744pt" height="654pt"
 viewBox="0.00 0.00 744.00 654.00" xmlns="http://www.w3.org/2000/svg" xmlns:xlink="http://www.w3.org/1999/xlink">
<g id="graph0" class="graph" transform="scale(1 1) rotate(0) translate(4 649.5)">
<title>Lib::Xbee::API::Connection</title>
<!-- Node1 -->
<g id="Node000001" class="node">
<title>Node1</title>
<g id="a_Node000001"><a xlink:title="Connection aggregates state, quality assessment, and statistical info for an Xbee link.">
<polygon fill="#999999" stroke="none" points="320.25,-62 202.75,-62 202.75,0 320.25,0 320.25,-62"/>
<text xml:space="preserve" text-anchor="start" x="206.75" y="-49.45" font-family="Arial" font-size="9.00">Lib::Xbee::API::Connection</text>
<text xml:space="preserve" text-anchor="start" x="260.38" y="-34.95" font-family="Arial" font-size="9.00"> </text>
<text xml:space="preserve" text-anchor="start" x="218.5" y="-20.45" font-family="Arial" font-size="9.00">+</text>
<text xml:space="preserve" text-anchor="start" x="239.5" y="-20.45" font-family="Arial" font-size="9.00">Connection()</text>
<text xml:space="preserve" text-anchor="start" x="218.5" y="-5.95" font-family="Arial" font-size="9.00">+</text>
<text xml:space="preserve" text-anchor="start" x="239.5" y="-5.95" font-family="Arial" font-size="9.00">Connection()</text>
<polygon fill="#666666" stroke="#666666" points="202.75,-45.5 202.75,-45.5 320.25,-45.5 320.25,-45.5 202.75,-45.5"/>
<polygon fill="#666666" stroke="#666666" points="202.75,-31 202.75,-31 320.25,-31 320.25,-31 202.75,-31"/>
<polygon fill="none" stroke="#666666" points="202.75,0 202.75,-62 320.25,-62 320.25,0 202.75,0"/>
</a>
</g>
</g>
<!-- Node2 -->
<g id="Node000002" class="node">
<title>Node2</title>
<g id="a_Node000002"><a xlink:href="../../d6/d41/class_lib_1_1_xbee_1_1_a_p_i_1_1_connection_1_1_state.html" target="_top" xlink:title="Lightweight state container with change notification callback.">
<polygon fill="white" stroke="none" points="184.25,-310.25 66.75,-310.25 66.75,-121.75 184.25,-121.75 184.25,-310.25"/>
<text xml:space="preserve" text-anchor="start" x="70.75" y="-297.7" font-family="Arial" font-size="9.00">Lib::Xbee::API::Connection</text>
<text xml:space="preserve" text-anchor="start" x="112.75" y="-287.2" font-family="Arial" font-size="9.00">::State</text>
<text xml:space="preserve" text-anchor="start" x="124.38" y="-272.7" font-family="Arial" font-size="9.00"> </text>
<text xml:space="preserve" text-anchor="start" x="76.88" y="-258.2" font-family="Arial" font-size="9.00">+</text>
<text xml:space="preserve" text-anchor="start" x="92.25" y="-258.2" font-family="Arial" font-size="9.00">State()</text>
<text xml:space="preserve" text-anchor="start" x="76.88" y="-243.7" font-family="Arial" font-size="9.00">+</text>
<text xml:space="preserve" text-anchor="start" x="92.25" y="-243.7" font-family="Arial" font-size="9.00">State()</text>
<text xml:space="preserve" text-anchor="start" x="76.88" y="-229.2" font-family="Arial" font-size="9.00">+</text>
<text xml:space="preserve" text-anchor="start" x="92.25" y="-229.2" font-family="Arial" font-size="9.00">operator=()</text>
<text xml:space="preserve" text-anchor="start" x="76.88" y="-214.7" font-family="Arial" font-size="9.00">+</text>
<text xml:space="preserve" text-anchor="start" x="92.25" y="-214.7" font-family="Arial" font-size="9.00">operator uint32_t()</text>
<text xml:space="preserve" text-anchor="start" x="76.88" y="-200.2" font-family="Arial" font-size="9.00">+</text>
<text xml:space="preserve" text-anchor="start" x="92.25" y="-200.2" font-family="Arial" font-size="9.00">isConnected()</text>
<text xml:space="preserve" text-anchor="start" x="76.88" y="-185.7" font-family="Arial" font-size="9.00">+</text>
<text xml:space="preserve" text-anchor="start" x="92.25" y="-185.7" font-family="Arial" font-size="9.00">State()</text>
<text xml:space="preserve" text-anchor="start" x="76.88" y="-171.2" font-family="Arial" font-size="9.00">+</text>
<text xml:space="preserve" text-anchor="start" x="92.25" y="-171.2" font-family="Arial" font-size="9.00">State()</text>
<text xml:space="preserve" text-anchor="start" x="76.88" y="-156.7" font-family="Arial" font-size="9.00">+</text>
<text xml:space="preserve" text-anchor="start" x="92.25" y="-156.7" font-family="Arial" font-size="9.00">operator=()</text>
<text xml:space="preserve" text-anchor="start" x="76.88" y="-142.2" font-family="Arial" font-size="9.00">+</text>
<text xml:space="preserve" text-anchor="start" x="92.25" y="-142.2" font-family="Arial" font-size="9.00">operator uint32_t()</text>
<text xml:space="preserve" text-anchor="start" x="76.88" y="-127.7" font-family="Arial" font-size="9.00">+</text>
<text xml:space="preserve" text-anchor="start" x="92.25" y="-127.7" font-family="Arial" font-size="9.00">isConnected()</text>
<polygon fill="#666666" stroke="#666666" points="66.75,-283.25 66.75,-283.25 184.25,-283.25 184.25,-283.25 66.75,-283.25"/>
<polygon fill="#666666" stroke="#666666" points="66.75,-268.75 66.75,-268.75 184.25,-268.75 184.25,-268.75 66.75,-268.75"/>
<polygon fill="none" stroke="#666666" points="66.75,-121.75 66.75,-310.25 184.25,-310.25 184.25,-121.75 66.75,-121.75"/>
</a>
</g>
</g>
<!-- Node2&#45;&gt;Node1 -->
<g id="edge1_Node000001_Node000002" class="edge">
<title>Node2&#45;&gt;Node1</title>
<g id="a_edge1_Node000001_Node000002"><a xlink:title=" ">
<path fill="none" stroke="#63b8ff" d="M184.17,-127.23C187.29,-122.9 190.41,-118.63 193.5,-114.5 204.22,-100.17 216.51,-84.93 227.67,-71.5"/>
<polygon fill="none" stroke="#63b8ff" points="227.65,-71.52 228.44,-64.35 235.36,-62.32 234.57,-69.48 227.65,-71.52"/>
</a>
</g>
<text xml:space="preserve" text-anchor="start" x="221.9" y="-84.95" font-family="Arial" font-size="9.00" fill="grey">+state</text>
</g>
<!-- Node3 -->
<g id="Node000003" class="node">
<title>Node3</title>
<g id="a_Node000003"><a xlink:title=" ">
<polygon fill="white" stroke="none" points="41,-567.75 0,-567.75 0,-520.25 41,-520.25 41,-567.75"/>
<text xml:space="preserve" text-anchor="start" x="4" y="-555.2" font-family="Arial" font-size="9.00">uint32_t</text>
<text xml:space="preserve" text-anchor="start" x="19.38" y="-540.7" font-family="Arial" font-size="9.00"> </text>
<text xml:space="preserve" text-anchor="start" x="19.38" y="-526.2" font-family="Arial" font-size="9.00"> </text>
<polygon fill="#bfbfbf" stroke="#bfbfbf" points="0,-551.25 0,-551.25 41,-551.25 41,-551.25 0,-551.25"/>
<polygon fill="#bfbfbf" stroke="#bfbfbf" points="0,-536.75 0,-536.75 41,-536.75 41,-536.75 0,-536.75"/>
<polygon fill="none" stroke="#bfbfbf" points="0,-520.25 0,-567.75 41,-567.75 41,-520.25 0,-520.25"/>
</a>
</g>
</g>
<!-- Node3&#45;&gt;Node2 -->
<g id="edge2_Node000002_Node000003" class="edge">
<title>Node3&#45;&gt;Node2</title>
<g id="a_edge2_Node000002_Node000003"><a xlink:title=" ">
<path fill="none" stroke="#63b8ff" d="M18.57,-520.32C16.07,-481.21 14.56,-399.12 38.5,-335.5 43.8,-321.41 51.28,-307.52 59.65,-294.49"/>
<polygon fill="none" stroke="#63b8ff" points="59.66,-294.47 59.69,-287.26 66.36,-284.51 66.33,-291.72 59.66,-294.47"/>
</a>
</g>
<text xml:space="preserve" text-anchor="start" x="41.5" y="-398.45" font-family="Arial" font-size="9.00" fill="grey">+CONNECTED</text>
<text xml:space="preserve" text-anchor="start" x="41.5" y="-383.95" font-family="Arial" font-size="9.00" fill="grey">+DISCONNECTED</text>
<text xml:space="preserve" text-anchor="start" x="41.5" y="-369.45" font-family="Arial" font-size="9.00" fill="grey">+INIT</text>
<text xml:space="preserve" text-anchor="start" x="41.5" y="-354.95" font-family="Arial" font-size="9.00" fill="grey">+READY</text>
</g>
<!-- Node4 -->
<g id="Node000004" class="node">
<title>Node4</title>
<g id="a_Node000004"><a xlink:title=" ">
<polygon fill="white" stroke="none" points="174.62,-567.75 80.38,-567.75 80.38,-520.25 174.62,-520.25 174.62,-567.75"/>
<text xml:space="preserve" text-anchor="start" x="84.38" y="-555.2" font-family="Arial" font-size="9.00">function&lt; void(bool)&gt;</text>
<text xml:space="preserve" text-anchor="start" x="126.38" y="-540.7" font-family="Arial" font-size="9.00"> </text>
<text xml:space="preserve" text-anchor="start" x="126.38" y="-526.2" font-family="Arial" font-size="9.00"> </text>
<polygon fill="#bfbfbf" stroke="#bfbfbf" points="80.38,-551.25 80.38,-551.25 174.62,-551.25 174.62,-551.25 80.38,-551.25"/>
<polygon fill="#bfbfbf" stroke="#bfbfbf" points="80.38,-536.75 80.38,-536.75 174.62,-536.75 174.62,-536.75 80.38,-536.75"/>
<polygon fill="none" stroke="#bfbfbf" points="80.38,-520.25 80.38,-567.75 174.62,-567.75 174.62,-520.25 80.38,-520.25"/>
</a>
</g>
</g>
<!-- Node4&#45;&gt;Node2 -->
<g id="edge3_Node000002_Node000004" class="edge">
<title>Node4&#45;&gt;Node2</title>
<g id="a_edge3_Node000002_Node000004"><a xlink:title=" ">
<path fill="none" stroke="#63b8ff" d="M127.36,-520.34C127.11,-480.03 126.58,-393.52 126.15,-323.16"/>
<polygon fill="none" stroke="#63b8ff" points="126.15,-323.12 122.11,-317.15 126.08,-311.12 130.11,-317.1 126.15,-323.12"/>
</a>
</g>
<text xml:space="preserve" text-anchor="start" x="129.74" y="-376.7" font-family="Arial" font-size="9.00" fill="grey">+onConnectionChanged</text>
</g>
<!-- Node5 -->
<g id="Node000005" class="node">
<title>Node5</title>
<g id="a_Node000005"><a xlink:href="../../d2/d99/class_lib_1_1_xbee_1_1_a_p_i_1_1_connection_1_1_quality.html" target="_top" xlink:title="Computes qualitative connection grade from retries, TX period, and RSSI with decay penalties.">
<polygon fill="white" stroke="none" points="320.25,-317.5 202.75,-317.5 202.75,-114.5 320.25,-114.5 320.25,-317.5"/>
<text xml:space="preserve" text-anchor="start" x="206.75" y="-304.95" font-family="Arial" font-size="9.00">Lib::Xbee::API::Connection</text>
<text xml:space="preserve" text-anchor="start" x="245" y="-294.45" font-family="Arial" font-size="9.00">::Quality</text>
<text xml:space="preserve" text-anchor="start" x="260.38" y="-279.95" font-family="Arial" font-size="9.00"> </text>
<text xml:space="preserve" text-anchor="start" x="212.88" y="-265.45" font-family="Arial" font-size="9.00">+</text>
<text xml:space="preserve" text-anchor="start" x="228.25" y="-265.45" font-family="Arial" font-size="9.00">Quality()</text>
<text xml:space="preserve" text-anchor="start" x="212.88" y="-250.95" font-family="Arial" font-size="9.00">+</text>
<text xml:space="preserve" text-anchor="start" x="228.25" y="-250.95" font-family="Arial" font-size="9.00">start()</text>
<text xml:space="preserve" text-anchor="start" x="212.88" y="-236.45" font-family="Arial" font-size="9.00">+</text>
<text xml:space="preserve" text-anchor="start" x="228.25" y="-236.45" font-family="Arial" font-size="9.00">clear()</text>
<text xml:space="preserve" text-anchor="start" x="212.88" y="-221.95" font-family="Arial" font-size="9.00">+</text>
<text xml:space="preserve" text-anchor="start" x="228.25" y="-221.95" font-family="Arial" font-size="9.00">setRuntimeMode()</text>
<text xml:space="preserve" text-anchor="start" x="212.88" y="-207.45" font-family="Arial" font-size="9.00">+</text>
<text xml:space="preserve" text-anchor="start" x="228.25" y="-207.45" font-family="Arial" font-size="9.00">setScannerMode()</text>
<text xml:space="preserve" text-anchor="start" x="212.88" y="-192.95" font-family="Arial" font-size="9.00">+</text>
<text xml:space="preserve" text-anchor="start" x="228.25" y="-192.95" font-family="Arial" font-size="9.00">getPercent()</text>
<text xml:space="preserve" text-anchor="start" x="212.88" y="-178.45" font-family="Arial" font-size="9.00">+</text>
<text xml:space="preserve" text-anchor="start" x="228.25" y="-178.45" font-family="Arial" font-size="9.00">getState()</text>
<text xml:space="preserve" text-anchor="start" x="212.88" y="-163.95" font-family="Arial" font-size="9.00">+</text>
<text xml:space="preserve" text-anchor="start" x="228.25" y="-163.95" font-family="Arial" font-size="9.00">update()</text>
<text xml:space="preserve" text-anchor="start" x="212.88" y="-149.45" font-family="Arial" font-size="9.00">+</text>
<text xml:space="preserve" text-anchor="start" x="228.25" y="-149.45" font-family="Arial" font-size="9.00">Quality()</text>
<text xml:space="preserve" text-anchor="start" x="212.88" y="-134.95" font-family="Arial" font-size="9.00">+</text>
<text xml:space="preserve" text-anchor="start" x="228.25" y="-134.95" font-family="Arial" font-size="9.00">start()</text>
<text xml:space="preserve" text-anchor="start" x="228.25" y="-120.45" font-family="Arial" font-size="9.00">and 6 more...</text>
<polygon fill="#666666" stroke="#666666" points="202.75,-290.5 202.75,-290.5 320.25,-290.5 320.25,-290.5 202.75,-290.5"/>
<polygon fill="#666666" stroke="#666666" points="202.75,-276 202.75,-276 320.25,-276 320.25,-276 202.75,-276"/>
<polygon fill="none" stroke="#666666" points="202.75,-114.5 202.75,-317.5 320.25,-317.5 320.25,-114.5 202.75,-114.5"/>
</a>
</g>
</g>
<!-- Node5&#45;&gt;Node1 -->
<g id="edge4_Node000001_Node000005" class="edge">
<title>Node5&#45;&gt;Node1</title>
<g id="a_edge4_Node000001_Node000005"><a xlink:title=" ">
<path fill="none" stroke="#63b8ff" d="M261.5,-114.67C261.5,-100.63 261.5,-86.88 261.5,-74.74"/>
<polygon fill="none" stroke="#63b8ff" points="261.5,-74.7 257.5,-68.7 261.5,-62.7 265.5,-68.7 261.5,-74.7"/>
</a>
</g>
<text xml:space="preserve" text-anchor="start" x="264.5" y="-84.95" font-family="Arial" font-size="9.00" fill="grey">+quality</text>
</g>
<!-- Node6 -->
<g id="Node000006" class="node">
<title>Node6</title>
<g id="a_Node000006"><a xlink:title=" ">
<polygon fill="white" stroke="none" points="312.88,-578.25 208.12,-578.25 208.12,-509.75 312.88,-509.75 312.88,-578.25"/>
<text xml:space="preserve" text-anchor="start" x="212.12" y="-565.7" font-family="Arial" font-size="9.00">function&lt; void(Lib</text>
<text xml:space="preserve" text-anchor="start" x="212.12" y="-555.2" font-family="Arial" font-size="9.00">::Xbee::API::Connection</text>
<text xml:space="preserve" text-anchor="start" x="236.88" y="-544.7" font-family="Arial" font-size="9.00">::Quality *)&gt;</text>
<text xml:space="preserve" text-anchor="start" x="259.38" y="-530.2" font-family="Arial" font-size="9.00"> </text>
<text xml:space="preserve" text-anchor="start" x="259.38" y="-515.7" font-family="Arial" font-size="9.00"> </text>
<polygon fill="#bfbfbf" stroke="#bfbfbf" points="208.12,-540.75 208.12,-540.75 312.88,-540.75 312.88,-540.75 208.12,-540.75"/>
<polygon fill="#bfbfbf" stroke="#bfbfbf" points="208.12,-526.25 208.12,-526.25 312.88,-526.25 312.88,-526.25 208.12,-526.25"/>
<polygon fill="none" stroke="#bfbfbf" points="208.12,-509.75 208.12,-578.25 312.88,-578.25 312.88,-509.75 208.12,-509.75"/>
</a>
</g>
</g>
<!-- Node6&#45;&gt;Node5 -->
<g id="edge5_Node000005_Node000006" class="edge">
<title>Node6&#45;&gt;Node5</title>
<g id="a_edge5_Node000005_Node000006"><a xlink:title=" ">
<path fill="none" stroke="#63b8ff" d="M260.6,-509.95C260.73,-468 260.96,-393.47 261.15,-330.08"/>
<polygon fill="none" stroke="#63b8ff" points="261.15,-330.05 257.17,-324.04 261.19,-318.05 265.17,-324.07 261.15,-330.05"/>
</a>
</g>
<text xml:space="preserve" text-anchor="start" x="264.12" y="-376.7" font-family="Arial" font-size="9.00" fill="grey">+onUpdate</text>
</g>
<!-- Node7 -->
<g id="Node000007" class="node">
<title>Node7</title>
<g id="a_Node000007"><a xlink:href="../../dc/d93/class_lib_1_1_xbee_1_1_a_p_i_1_1_connection_1_1_info.html" target="_top" xlink:title="Statistical counters and metrics (signal strength, periods, event counters).">
<polygon fill="white" stroke="none" points="520.25,-266.75 402.75,-266.75 402.75,-165.25 520.25,-165.25 520.25,-266.75"/>
<text xml:space="preserve" text-anchor="start" x="406.75" y="-254.2" font-family="Arial" font-size="9.00">Lib::Xbee::API::Connection</text>
<text xml:space="preserve" text-anchor="start" x="451.75" y="-243.7" font-family="Arial" font-size="9.00">::Info</text>
<text xml:space="preserve" text-anchor="start" x="460.38" y="-229.2" font-family="Arial" font-size="9.00"> </text>
<text xml:space="preserve" text-anchor="start" x="425.25" y="-214.7" font-family="Arial" font-size="9.00">+</text>
<text xml:space="preserve" text-anchor="start" x="453" y="-214.7" font-family="Arial" font-size="9.00">Info()</text>
<text xml:space="preserve" text-anchor="start" x="425.25" y="-200.2" font-family="Arial" font-size="9.00">+</text>
<text xml:space="preserve" text-anchor="start" x="453" y="-200.2" font-family="Arial" font-size="9.00">~Info()</text>
<text xml:space="preserve" text-anchor="start" x="425.25" y="-185.7" font-family="Arial" font-size="9.00">+</text>
<text xml:space="preserve" text-anchor="start" x="453" y="-185.7" font-family="Arial" font-size="9.00">Info()</text>
<text xml:space="preserve" text-anchor="start" x="425.25" y="-171.2" font-family="Arial" font-size="9.00">+</text>
<text xml:space="preserve" text-anchor="start" x="453" y="-171.2" font-family="Arial" font-size="9.00">~Info()</text>
<polygon fill="#666666" stroke="#666666" points="402.75,-239.75 402.75,-239.75 520.25,-239.75 520.25,-239.75 402.75,-239.75"/>
<polygon fill="#666666" stroke="#666666" points="402.75,-225.25 402.75,-225.25 520.25,-225.25 520.25,-225.25 402.75,-225.25"/>
<polygon fill="none" stroke="#666666" points="402.75,-165.25 402.75,-266.75 520.25,-266.75 520.25,-165.25 402.75,-165.25"/>
</a>
</g>
</g>
<!-- Node7&#45;&gt;Node1 -->
<g id="edge6_Node000001_Node000007" class="edge">
<title>Node7&#45;&gt;Node1</title>
<g id="a_edge6_Node000001_Node000007"><a xlink:title=" ">
<path fill="none" stroke="#63b8ff" d="M407.38,-165.48C374.7,-135.58 333.69,-98.05 303.48,-70.41"/>
<polygon fill="none" stroke="#63b8ff" points="303.59,-70.51 296.46,-69.41 294.74,-62.41 301.86,-63.51 303.59,-70.51"/>
</a>
</g>
<text xml:space="preserve" text-anchor="start" x="334.9" y="-84.95" font-family="Arial" font-size="9.00" fill="grey">+info</text>
</g>
<!-- Node8 -->
<g id="Node000008" class="node">
<title>Node8</title>
<g id="a_Node000008"><a xlink:href="../../da/d94/class_lib_1_1_xbee_1_1_a_p_i_1_1_connection_1_1_info_1_1_signal_strength.html" target="_top" xlink:title="Holds raw RSSI value and provides percent conversion.">
<polygon fill="white" stroke="none" points="448.25,-638.25 330.75,-638.25 330.75,-449.75 448.25,-449.75 448.25,-638.25"/>
<text xml:space="preserve" text-anchor="start" x="334.75" y="-625.7" font-family="Arial" font-size="9.00">Lib::Xbee::API::Connection</text>
<text xml:space="preserve" text-anchor="start" x="347.12" y="-615.2" font-family="Arial" font-size="9.00">::Info::SignalStrength</text>
<text xml:space="preserve" text-anchor="start" x="388.38" y="-600.7" font-family="Arial" font-size="9.00"> </text>
<text xml:space="preserve" text-anchor="start" x="342.19" y="-586.2" font-family="Arial" font-size="9.00">+</text>
<text xml:space="preserve" text-anchor="start" x="358.88" y="-586.2" font-family="Arial" font-size="9.00">SignalStrength()</text>
<text xml:space="preserve" text-anchor="start" x="342.19" y="-571.7" font-family="Arial" font-size="9.00">+</text>
<text xml:space="preserve" text-anchor="start" x="358.88" y="-571.7" font-family="Arial" font-size="9.00">SignalStrength()</text>
<text xml:space="preserve" text-anchor="start" x="342.19" y="-557.2" font-family="Arial" font-size="9.00">+</text>
<text xml:space="preserve" text-anchor="start" x="358.88" y="-557.2" font-family="Arial" font-size="9.00">operator=()</text>
<text xml:space="preserve" text-anchor="start" x="342.19" y="-542.7" font-family="Arial" font-size="9.00">+</text>
<text xml:space="preserve" text-anchor="start" x="358.88" y="-542.7" font-family="Arial" font-size="9.00">operator uint8_t()</text>
<text xml:space="preserve" text-anchor="start" x="342.19" y="-528.2" font-family="Arial" font-size="9.00">+</text>
<text xml:space="preserve" text-anchor="start" x="358.88" y="-528.2" font-family="Arial" font-size="9.00">toPercent()</text>
<text xml:space="preserve" text-anchor="start" x="342.19" y="-513.7" font-family="Arial" font-size="9.00">+</text>
<text xml:space="preserve" text-anchor="start" x="358.88" y="-513.7" font-family="Arial" font-size="9.00">SignalStrength()</text>
<text xml:space="preserve" text-anchor="start" x="342.19" y="-499.2" font-family="Arial" font-size="9.00">+</text>
<text xml:space="preserve" text-anchor="start" x="358.88" y="-499.2" font-family="Arial" font-size="9.00">SignalStrength()</text>
<text xml:space="preserve" text-anchor="start" x="342.19" y="-484.7" font-family="Arial" font-size="9.00">+</text>
<text xml:space="preserve" text-anchor="start" x="358.88" y="-484.7" font-family="Arial" font-size="9.00">operator=()</text>
<text xml:space="preserve" text-anchor="start" x="342.19" y="-470.2" font-family="Arial" font-size="9.00">+</text>
<text xml:space="preserve" text-anchor="start" x="358.88" y="-470.2" font-family="Arial" font-size="9.00">operator uint8_t()</text>
<text xml:space="preserve" text-anchor="start" x="342.19" y="-455.7" font-family="Arial" font-size="9.00">+</text>
<text xml:space="preserve" text-anchor="start" x="358.88" y="-455.7" font-family="Arial" font-size="9.00">toPercent()</text>
<polygon fill="#666666" stroke="#666666" points="330.75,-611.25 330.75,-611.25 448.25,-611.25 448.25,-611.25 330.75,-611.25"/>
<polygon fill="#666666" stroke="#666666" points="330.75,-596.75 330.75,-596.75 448.25,-596.75 448.25,-596.75 330.75,-596.75"/>
<polygon fill="none" stroke="#666666" points="330.75,-449.75 330.75,-638.25 448.25,-638.25 448.25,-449.75 330.75,-449.75"/>
</a>
</g>
</g>
<!-- Node8&#45;&gt;Node7 -->
<g id="edge7_Node000007_Node000008" class="edge">
<title>Node8&#45;&gt;Node7</title>
<g id="a_edge7_Node000007_Node000008"><a xlink:title=" ">
<path fill="none" stroke="#63b8ff" d="M393.2,-449.76C396.18,-413.64 401.5,-372.23 411,-335.5 415.94,-316.41 423.46,-296.41 431.21,-278.4"/>
<polygon fill="none" stroke="#63b8ff" points="431.22,-278.37 429.99,-271.27 436.08,-267.4 437.31,-274.51 431.22,-278.37"/>
</a>
</g>
<text xml:space="preserve" text-anchor="start" x="414" y="-376.7" font-family="Arial" font-size="9.00" fill="grey">+signalStrength</text>
</g>
<!-- Node9 -->
<g id="Node000009" class="node">
<title>Node9</title>
<g id="a_Node000009"><a xlink:href="../../d8/d3e/class_lib_1_1_xbee_1_1_a_p_i_1_1_connection_1_1_info_1_1_period.html" target="_top" xlink:title="TX period tracking with smoothing and min/max capture.">
<polygon fill="white" stroke="none" points="584.25,-645.5 466.75,-645.5 466.75,-442.5 584.25,-442.5 584.25,-645.5"/>
<text xml:space="preserve" text-anchor="start" x="470.75" y="-632.95" font-family="Arial" font-size="9.00">Lib::Xbee::API::Connection</text>
<text xml:space="preserve" text-anchor="start" x="500" y="-622.45" font-family="Arial" font-size="9.00">::Info::Period</text>
<text xml:space="preserve" text-anchor="start" x="524.38" y="-607.95" font-family="Arial" font-size="9.00"> </text>
<text xml:space="preserve" text-anchor="start" x="474.44" y="-593.45" font-family="Arial" font-size="9.00">+</text>
<text xml:space="preserve" text-anchor="start" x="487.38" y="-593.45" font-family="Arial" font-size="9.00">Period()</text>
<text xml:space="preserve" text-anchor="start" x="474.44" y="-578.95" font-family="Arial" font-size="9.00">+</text>
<text xml:space="preserve" text-anchor="start" x="487.38" y="-578.95" font-family="Arial" font-size="9.00">getValue()</text>
<text xml:space="preserve" text-anchor="start" x="474.44" y="-564.45" font-family="Arial" font-size="9.00">+</text>
<text xml:space="preserve" text-anchor="start" x="487.38" y="-564.45" font-family="Arial" font-size="9.00">getRawValue()</text>
<text xml:space="preserve" text-anchor="start" x="474.44" y="-549.95" font-family="Arial" font-size="9.00">+</text>
<text xml:space="preserve" text-anchor="start" x="487.38" y="-549.95" font-family="Arial" font-size="9.00">getMinimum()</text>
<text xml:space="preserve" text-anchor="start" x="474.44" y="-535.45" font-family="Arial" font-size="9.00">+</text>
<text xml:space="preserve" text-anchor="start" x="487.38" y="-535.45" font-family="Arial" font-size="9.00">getMaximum()</text>
<text xml:space="preserve" text-anchor="start" x="474.44" y="-520.95" font-family="Arial" font-size="9.00">+</text>
<text xml:space="preserve" text-anchor="start" x="487.38" y="-520.95" font-family="Arial" font-size="9.00">clearMinMax()</text>
<text xml:space="preserve" text-anchor="start" x="474.44" y="-506.45" font-family="Arial" font-size="9.00">+</text>
<text xml:space="preserve" text-anchor="start" x="487.38" y="-506.45" font-family="Arial" font-size="9.00">beginMeasurement()</text>
<text xml:space="preserve" text-anchor="start" x="474.44" y="-491.95" font-family="Arial" font-size="9.00">+</text>
<text xml:space="preserve" text-anchor="start" x="487.38" y="-491.95" font-family="Arial" font-size="9.00">endMeasurement()</text>
<text xml:space="preserve" text-anchor="start" x="474.44" y="-477.45" font-family="Arial" font-size="9.00">+</text>
<text xml:space="preserve" text-anchor="start" x="487.38" y="-477.45" font-family="Arial" font-size="9.00">stopMeasurement()</text>
<text xml:space="preserve" text-anchor="start" x="474.44" y="-462.95" font-family="Arial" font-size="9.00">+</text>
<text xml:space="preserve" text-anchor="start" x="487.38" y="-462.95" font-family="Arial" font-size="9.00">reset()</text>
<text xml:space="preserve" text-anchor="start" x="487.38" y="-448.45" font-family="Arial" font-size="9.00">and 12 more...</text>
<polygon fill="#666666" stroke="#666666" points="466.75,-618.5 466.75,-618.5 584.25,-618.5 584.25,-618.5 466.75,-618.5"/>
<polygon fill="#666666" stroke="#666666" points="466.75,-604 466.75,-604 584.25,-604 584.25,-604 466.75,-604"/>
<polygon fill="none" stroke="#666666" points="466.75,-442.5 466.75,-645.5 584.25,-645.5 584.25,-442.5 466.75,-442.5"/>
</a>
</g>
</g>
<!-- Node9&#45;&gt;Node7 -->
<g id="edge8_Node000007_Node000009" class="edge">
<title>Node9&#45;&gt;Node7</title>
<g id="a_edge8_Node000007_Node000009"><a xlink:title=" ">
<path fill="none" stroke="#63b8ff" d="M505.78,-442.53C495.3,-389.18 482.76,-325.29 473.7,-279.15"/>
<polygon fill="none" stroke="#63b8ff" points="473.73,-279.29 468.65,-274.18 471.42,-267.52 476.5,-272.64 473.73,-279.29"/>
</a>
</g>
<text xml:space="preserve" text-anchor="start" x="504.11" y="-376.7" font-family="Arial" font-size="9.00" fill="grey">+transmitPeriod</text>
</g>
<!-- Node10 -->
<g id="Node000010" class="node">
<title>Node10</title>
<g id="a_Node000010"><a xlink:href="../../d2/d4a/class_lib_1_1_xbee_1_1_a_p_i_1_1_connection_1_1_info_1_1_counter.html" target="_top" xlink:title="Bounded counter (saturates at MAX_VALUE).">
<polygon fill="white" stroke="none" points="720.25,-623.75 602.75,-623.75 602.75,-464.25 720.25,-464.25 720.25,-623.75"/>
<text xml:space="preserve" text-anchor="start" x="606.75" y="-611.2" font-family="Arial" font-size="9.00">Lib::Xbee::API::Connection</text>
<text xml:space="preserve" text-anchor="start" x="633" y="-600.7" font-family="Arial" font-size="9.00">::Info::Counter</text>
<text xml:space="preserve" text-anchor="start" x="660.38" y="-586.2" font-family="Arial" font-size="9.00"> </text>
<text xml:space="preserve" text-anchor="start" x="612.88" y="-571.7" font-family="Arial" font-size="9.00">+</text>
<text xml:space="preserve" text-anchor="start" x="628.25" y="-571.7" font-family="Arial" font-size="9.00">Counter()</text>
<text xml:space="preserve" text-anchor="start" x="612.88" y="-557.2" font-family="Arial" font-size="9.00">+</text>
<text xml:space="preserve" text-anchor="start" x="628.25" y="-557.2" font-family="Arial" font-size="9.00">operator uint32_t()</text>
<text xml:space="preserve" text-anchor="start" x="612.88" y="-542.7" font-family="Arial" font-size="9.00">+</text>
<text xml:space="preserve" text-anchor="start" x="628.25" y="-542.7" font-family="Arial" font-size="9.00">clear()</text>
<text xml:space="preserve" text-anchor="start" x="612.88" y="-528.2" font-family="Arial" font-size="9.00">+</text>
<text xml:space="preserve" text-anchor="start" x="628.25" y="-528.2" font-family="Arial" font-size="9.00">operator++()</text>
<text xml:space="preserve" text-anchor="start" x="612.88" y="-513.7" font-family="Arial" font-size="9.00">+</text>
<text xml:space="preserve" text-anchor="start" x="628.25" y="-513.7" font-family="Arial" font-size="9.00">Counter()</text>
<text xml:space="preserve" text-anchor="start" x="612.88" y="-499.2" font-family="Arial" font-size="9.00">+</text>
<text xml:space="preserve" text-anchor="start" x="628.25" y="-499.2" font-family="Arial" font-size="9.00">operator uint32_t()</text>
<text xml:space="preserve" text-anchor="start" x="612.88" y="-484.7" font-family="Arial" font-size="9.00">+</text>
<text xml:space="preserve" text-anchor="start" x="628.25" y="-484.7" font-family="Arial" font-size="9.00">clear()</text>
<text xml:space="preserve" text-anchor="start" x="612.88" y="-470.2" font-family="Arial" font-size="9.00">+</text>
<text xml:space="preserve" text-anchor="start" x="628.25" y="-470.2" font-family="Arial" font-size="9.00">operator++()</text>
<polygon fill="#666666" stroke="#666666" points="602.75,-596.75 602.75,-596.75 720.25,-596.75 720.25,-596.75 602.75,-596.75"/>
<polygon fill="#666666" stroke="#666666" points="602.75,-582.25 602.75,-582.25 720.25,-582.25 720.25,-582.25 602.75,-582.25"/>
<polygon fill="none" stroke="#666666" points="602.75,-464.25 602.75,-623.75 720.25,-623.75 720.25,-464.25 602.75,-464.25"/>
</a>
</g>
</g>
<!-- Node10&#45;&gt;Node7 -->
<g id="edge9_Node000007_Node000010" class="edge">
<title>Node10&#45;&gt;Node7</title>
<g id="a_edge9_Node000007_Node000010"><a xlink:title=" ">
<path fill="none" stroke="#63b8ff" d="M636.89,-464.68C622.3,-424.3 601.55,-375.31 575.5,-335.5 561.72,-314.45 543.92,-293.84 526.49,-275.88"/>
<polygon fill="none" stroke="#63b8ff" points="526.52,-275.9 519.45,-274.45 518.08,-267.37 525.14,-268.82 526.52,-275.9"/>
</a>
</g>
<text xml:space="preserve" text-anchor="start" x="623.55" y="-412.95" font-family="Arial" font-size="9.00" fill="grey">+deletedMessages</text>
<text xml:space="preserve" text-anchor="start" x="623.55" y="-398.45" font-family="Arial" font-size="9.00" fill="grey">+deletedTransmitStatus</text>
<text xml:space="preserve" text-anchor="start" x="623.55" y="-383.95" font-family="Arial" font-size="9.00" fill="grey">+noTransmitStatus</text>
<text xml:space="preserve" text-anchor="start" x="623.55" y="-369.45" font-family="Arial" font-size="9.00" fill="grey">+reconnectionCounter</text>
<text xml:space="preserve" text-anchor="start" x="623.55" y="-354.95" font-family="Arial" font-size="9.00" fill="grey">+retriesCounter</text>
<text xml:space="preserve" text-anchor="start" x="623.55" y="-340.45" font-family="Arial" font-size="9.00" fill="grey">+unsuccessTransmitStatus</text>
</g>
</g>
</svg>
