<?xml version="1.0" encoding="UTF-8" standalone="no"?>
<!DOCTYPE svg PUBLIC "-//W3C//DTD SVG 1.1//EN"
 "http://www.w3.org/Graphics/SVG/1.1/DTD/svg11.dtd">
<!-- Generated by graphviz version 13.1.0 (20250701.0955)
 -->
<!-- Title: Lib::Xbee::API::Connection Pages: 1 -->
<svg width="585pt" height="747pt"
 viewBox="0.00 0.00 585.00 747.00" xmlns="http://www.w3.org/2000/svg" xmlns:xlink="http://www.w3.org/1999/xlink">
<g id="graph0" class="graph" transform="scale(1 1) rotate(0) translate(4 742.5)">
<title>Lib::Xbee::API::Connection</title>
<!-- Node1 -->
<g id="Node000001" class="node">
<title>Node1</title>
<g id="a_Node000001"><a xlink:title="Connection aggregates state, quality assessment, and statistical info for an Xbee link.">
<polygon fill="#999999" stroke="none" points="280.12,-47.5 162.62,-47.5 162.62,0 280.12,0 280.12,-47.5"/>
<text xml:space="preserve" text-anchor="start" x="166.62" y="-34.95" font-family="Arial" font-size="9.00">Lib::Xbee::API::Connection</text>
<text xml:space="preserve" text-anchor="start" x="220.25" y="-20.45" font-family="Arial" font-size="9.00"> </text>
<text xml:space="preserve" text-anchor="start" x="178.38" y="-5.95" font-family="Arial" font-size="9.00">+</text>
<text xml:space="preserve" text-anchor="start" x="199.38" y="-5.95" font-family="Arial" font-size="9.00">Connection()</text>
<polygon fill="#666666" stroke="#666666" points="162.62,-31 162.62,-31 280.12,-31 280.12,-31 162.62,-31"/>
<polygon fill="#666666" stroke="#666666" points="162.62,-16.5 162.62,-16.5 280.12,-16.5 280.12,-16.5 162.62,-16.5"/>
<polygon fill="none" stroke="#666666" points="162.62,0 162.62,-47.5 280.12,-47.5 280.12,0 162.62,0"/>
</a>
</g>
</g>
<!-- Node2 -->
<g id="Node000002" class="node">
<title>Node2</title>
<g id="a_Node000002"><a xlink:href="../../d6/d41/class_lib_1_1_xbee_1_1_a_p_i_1_1_connection_1_1_state.html" target="_top" xlink:title="Lightweight state container with change notification callback.">
<polygon fill="white" stroke="none" points="144.75,-358 0,-358 0,-100 144.75,-100 144.75,-358"/>
<text xml:space="preserve" text-anchor="start" x="17.62" y="-345.45" font-family="Arial" font-size="9.00">Lib::Xbee::API::Connection</text>
<text xml:space="preserve" text-anchor="start" x="59.62" y="-334.95" font-family="Arial" font-size="9.00">::State</text>
<text xml:space="preserve" text-anchor="start" x="4" y="-320.45" font-family="Arial" font-size="9.00">+</text>
<text xml:space="preserve" text-anchor="start" x="13.25" y="-320.45" font-family="Arial" font-size="9.00">std::function&lt; void</text>
<text xml:space="preserve" text-anchor="start" x="13.25" y="-309.95" font-family="Arial" font-size="9.00">(bool)&gt; onConnectionChanged</text>
<text xml:space="preserve" text-anchor="start" x="4" y="-295.45" font-family="Arial" font-size="9.00">+</text>
<text xml:space="preserve" text-anchor="start" x="13.25" y="-295.45" font-family="Arial" font-size="9.00">static constexpr uint32</text>
<text xml:space="preserve" text-anchor="start" x="13.25" y="-284.95" font-family="Arial" font-size="9.00">_t INIT</text>
<text xml:space="preserve" text-anchor="start" x="4" y="-270.45" font-family="Arial" font-size="9.00">+</text>
<text xml:space="preserve" text-anchor="start" x="13.25" y="-270.45" font-family="Arial" font-size="9.00">static constexpr uint32</text>
<text xml:space="preserve" text-anchor="start" x="13.25" y="-259.95" font-family="Arial" font-size="9.00">_t READY</text>
<text xml:space="preserve" text-anchor="start" x="4" y="-245.45" font-family="Arial" font-size="9.00">+</text>
<text xml:space="preserve" text-anchor="start" x="13.25" y="-245.45" font-family="Arial" font-size="9.00">static constexpr uint32</text>
<text xml:space="preserve" text-anchor="start" x="13.25" y="-234.95" font-family="Arial" font-size="9.00">_t CONNECTED</text>
<text xml:space="preserve" text-anchor="start" x="4" y="-220.45" font-family="Arial" font-size="9.00">+</text>
<text xml:space="preserve" text-anchor="start" x="13.25" y="-220.45" font-family="Arial" font-size="9.00">static constexpr uint32</text>
<text xml:space="preserve" text-anchor="start" x="13.25" y="-209.95" font-family="Arial" font-size="9.00">_t DISCONNECTED</text>
<text xml:space="preserve" text-anchor="start" x="4" y="-195.45" font-family="Arial" font-size="9.00">+</text>
<text xml:space="preserve" text-anchor="start" x="13.25" y="-195.45" font-family="Arial" font-size="9.00">State()=default</text>
<text xml:space="preserve" text-anchor="start" x="4" y="-180.95" font-family="Arial" font-size="9.00">+</text>
<text xml:space="preserve" text-anchor="start" x="13.25" y="-180.95" font-family="Arial" font-size="9.00">State(uint32_t initialState)</text>
<text xml:space="preserve" text-anchor="start" x="4" y="-166.45" font-family="Arial" font-size="9.00">+</text>
<text xml:space="preserve" text-anchor="start" x="13.25" y="-166.45" font-family="Arial" font-size="9.00">void operator=(uint32</text>
<text xml:space="preserve" text-anchor="start" x="13.25" y="-155.95" font-family="Arial" font-size="9.00">_t newState)</text>
<text xml:space="preserve" text-anchor="start" x="4" y="-141.45" font-family="Arial" font-size="9.00">+</text>
<text xml:space="preserve" text-anchor="start" x="13.25" y="-141.45" font-family="Arial" font-size="9.00">operator uint32_t</text>
<text xml:space="preserve" text-anchor="start" x="13.25" y="-130.95" font-family="Arial" font-size="9.00">() const</text>
<text xml:space="preserve" text-anchor="start" x="4" y="-116.45" font-family="Arial" font-size="9.00">+</text>
<text xml:space="preserve" text-anchor="start" x="13.25" y="-116.45" font-family="Arial" font-size="9.00">bool isConnected()</text>
<text xml:space="preserve" text-anchor="start" x="13.25" y="-105.95" font-family="Arial" font-size="9.00"> const</text>
<polygon fill="#666666" stroke="#666666" points="0,-331 0,-331 144.75,-331 144.75,-331 0,-331"/>
<polygon fill="#666666" stroke="#666666" points="0,-206 0,-206 11.25,-206 11.25,-206 0,-206"/>
<polygon fill="#666666" stroke="#666666" points="11.25,-206 11.25,-206 144.75,-206 144.75,-206 11.25,-206"/>
<polygon fill="none" stroke="#666666" points="0,-100 0,-358 144.75,-358 144.75,-100 0,-100"/>
</a>
</g>
</g>
<!-- Node2&#45;&gt;Node1 -->
<g id="edge1_Node000001_Node000002" class="edge">
<title>Node2&#45;&gt;Node1</title>
<g id="a_edge1_Node000001_Node000002"><a xlink:title=" ">
<path fill="none" stroke="#63b8ff" d="M144.57,-111.91C147.49,-107.86 150.43,-103.87 153.38,-100 164.66,-85.14 178.26,-69.68 190.32,-56.68"/>
<polygon fill="none" stroke="#63b8ff" points="190.34,-56.65 191.53,-49.54 198.56,-47.91 197.36,-55.02 190.34,-56.65"/>
</a>
</g>
<text xml:space="preserve" text-anchor="start" x="184.91" y="-70.45" font-family="Arial" font-size="9.00" fill="grey">+state</text>
</g>
<!-- Node3 -->
<g id="Node000003" class="node">
<title>Node3</title>
<g id="a_Node000003"><a xlink:href="../../d2/d99/class_lib_1_1_xbee_1_1_a_p_i_1_1_connection_1_1_quality.html" target="_top" xlink:title="Computes qualitative connection grade from retries, TX period, and RSSI with decay penalties.">
<polygon fill="white" stroke="none" points="280.12,-324.5 162.62,-324.5 162.62,-133.5 280.12,-133.5 280.12,-324.5"/>
<text xml:space="preserve" text-anchor="start" x="166.62" y="-311.95" font-family="Arial" font-size="9.00">Lib::Xbee::API::Connection</text>
<text xml:space="preserve" text-anchor="start" x="204.88" y="-301.45" font-family="Arial" font-size="9.00">::Quality</text>
<text xml:space="preserve" text-anchor="start" x="167.88" y="-286.95" font-family="Arial" font-size="9.00">+</text>
<text xml:space="preserve" text-anchor="start" x="178.38" y="-286.95" font-family="Arial" font-size="9.00">std::function&lt; void</text>
<text xml:space="preserve" text-anchor="start" x="178.38" y="-276.45" font-family="Arial" font-size="9.00">(Quality *)&gt; onUpdate</text>
<text xml:space="preserve" text-anchor="start" x="167.88" y="-261.95" font-family="Arial" font-size="9.00">+</text>
<text xml:space="preserve" text-anchor="start" x="178.38" y="-261.95" font-family="Arial" font-size="9.00">Quality(Connection</text>
<text xml:space="preserve" text-anchor="start" x="178.38" y="-251.45" font-family="Arial" font-size="9.00"> *connection)</text>
<text xml:space="preserve" text-anchor="start" x="167.88" y="-236.95" font-family="Arial" font-size="9.00">+</text>
<text xml:space="preserve" text-anchor="start" x="178.38" y="-236.95" font-family="Arial" font-size="9.00">void start()</text>
<text xml:space="preserve" text-anchor="start" x="167.88" y="-222.45" font-family="Arial" font-size="9.00">+</text>
<text xml:space="preserve" text-anchor="start" x="178.38" y="-222.45" font-family="Arial" font-size="9.00">void clear()</text>
<text xml:space="preserve" text-anchor="start" x="167.88" y="-207.95" font-family="Arial" font-size="9.00">+</text>
<text xml:space="preserve" text-anchor="start" x="178.38" y="-207.95" font-family="Arial" font-size="9.00">void setRuntimeMode()</text>
<text xml:space="preserve" text-anchor="start" x="167.88" y="-193.45" font-family="Arial" font-size="9.00">+</text>
<text xml:space="preserve" text-anchor="start" x="178.38" y="-193.45" font-family="Arial" font-size="9.00">void setScannerMode()</text>
<text xml:space="preserve" text-anchor="start" x="167.88" y="-178.95" font-family="Arial" font-size="9.00">+</text>
<text xml:space="preserve" text-anchor="start" x="178.38" y="-178.95" font-family="Arial" font-size="9.00">uint8_t getPercent</text>
<text xml:space="preserve" text-anchor="start" x="178.38" y="-168.45" font-family="Arial" font-size="9.00">() const</text>
<text xml:space="preserve" text-anchor="start" x="167.88" y="-153.95" font-family="Arial" font-size="9.00">+</text>
<text xml:space="preserve" text-anchor="start" x="178.38" y="-153.95" font-family="Arial" font-size="9.00">State getState() const</text>
<text xml:space="preserve" text-anchor="start" x="167.88" y="-139.45" font-family="Arial" font-size="9.00">+</text>
<text xml:space="preserve" text-anchor="start" x="178.38" y="-139.45" font-family="Arial" font-size="9.00">State update()</text>
<polygon fill="#666666" stroke="#666666" points="162.62,-297.5 162.62,-297.5 280.12,-297.5 280.12,-297.5 162.62,-297.5"/>
<polygon fill="#666666" stroke="#666666" points="162.62,-272.5 162.62,-272.5 176.38,-272.5 176.38,-272.5 162.62,-272.5"/>
<polygon fill="#666666" stroke="#666666" points="176.38,-272.5 176.38,-272.5 280.12,-272.5 280.12,-272.5 176.38,-272.5"/>
<polygon fill="none" stroke="#666666" points="162.62,-133.5 162.62,-324.5 280.12,-324.5 280.12,-133.5 162.62,-133.5"/>
</a>
</g>
</g>
<!-- Node3&#45;&gt;Node1 -->
<g id="edge2_Node000001_Node000003" class="edge">
<title>Node3&#45;&gt;Node1</title>
<g id="a_edge2_Node000001_Node000003"><a xlink:title=" ">
<path fill="none" stroke="#63b8ff" d="M221.38,-133.52C221.38,-107.28 221.38,-80.4 221.38,-59.93"/>
<polygon fill="none" stroke="#63b8ff" points="221.38,-60.08 217.38,-54.08 221.38,-48.08 225.38,-54.08 221.38,-60.08"/>
</a>
</g>
<text xml:space="preserve" text-anchor="start" x="224.38" y="-70.45" font-family="Arial" font-size="9.00" fill="grey">+quality</text>
</g>
<!-- Node4 -->
<g id="Node000004" class="node">
<title>Node4</title>
<g id="a_Node000004"><a xlink:href="../../dc/d93/class_lib_1_1_xbee_1_1_a_p_i_1_1_connection_1_1_info.html" target="_top" xlink:title="Statistical counters and metrics (signal strength, periods, event counters).">
<polygon fill="white" stroke="none" points="416.12,-265.25 298.62,-265.25 298.62,-192.75 416.12,-192.75 416.12,-265.25"/>
<text xml:space="preserve" text-anchor="start" x="302.62" y="-252.7" font-family="Arial" font-size="9.00">Lib::Xbee::API::Connection</text>
<text xml:space="preserve" text-anchor="start" x="347.62" y="-242.2" font-family="Arial" font-size="9.00">::Info</text>
<text xml:space="preserve" text-anchor="start" x="356.25" y="-227.7" font-family="Arial" font-size="9.00"> </text>
<text xml:space="preserve" text-anchor="start" x="312.88" y="-213.2" font-family="Arial" font-size="9.00">+</text>
<text xml:space="preserve" text-anchor="start" x="332.38" y="-213.2" font-family="Arial" font-size="9.00">Info()=default</text>
<text xml:space="preserve" text-anchor="start" x="312.88" y="-198.7" font-family="Arial" font-size="9.00">+</text>
<text xml:space="preserve" text-anchor="start" x="332.38" y="-198.7" font-family="Arial" font-size="9.00">~Info()=default</text>
<polygon fill="#666666" stroke="#666666" points="298.62,-238.25 298.62,-238.25 416.12,-238.25 416.12,-238.25 298.62,-238.25"/>
<polygon fill="#666666" stroke="#666666" points="298.62,-223.75 298.62,-223.75 416.12,-223.75 416.12,-223.75 298.62,-223.75"/>
<polygon fill="none" stroke="#666666" points="298.62,-192.75 298.62,-265.25 416.12,-265.25 416.12,-192.75 298.62,-192.75"/>
</a>
</g>
</g>
<!-- Node4&#45;&gt;Node1 -->
<g id="edge3_Node000001_Node000004" class="edge">
<title>Node4&#45;&gt;Node1</title>
<g id="a_edge3_Node000001_Node000004"><a xlink:title=" ">
<path fill="none" stroke="#63b8ff" d="M342.04,-192.75C325.8,-157.96 297.78,-104.47 263.38,-65.5 260.77,-62.55 257.99,-59.56 255.15,-56.6"/>
<polygon fill="none" stroke="#63b8ff" points="255.1,-56.56 248.04,-55.12 246.64,-48.05 253.71,-49.48 255.1,-56.56"/>
</a>
</g>
<text xml:space="preserve" text-anchor="start" x="279.3" y="-70.45" font-family="Arial" font-size="9.00" fill="grey">+info</text>
</g>
<!-- Node5 -->
<g id="Node000005" class="node">
<title>Node5</title>
<g id="a_Node000005"><a xlink:href="../../da/d94/class_lib_1_1_xbee_1_1_a_p_i_1_1_connection_1_1_info_1_1_signal_strength.html" target="_top" xlink:title="Holds raw RSSI value and provides percent conversion.">
<polygon fill="white" stroke="none" points="277.88,-684.5 154.88,-684.5 154.88,-537 277.88,-537 277.88,-684.5"/>
<text xml:space="preserve" text-anchor="start" x="161.62" y="-671.95" font-family="Arial" font-size="9.00">Lib::Xbee::API::Connection</text>
<text xml:space="preserve" text-anchor="start" x="174" y="-661.45" font-family="Arial" font-size="9.00">::Info::SignalStrength</text>
<text xml:space="preserve" text-anchor="start" x="215.25" y="-646.95" font-family="Arial" font-size="9.00"> </text>
<text xml:space="preserve" text-anchor="start" x="158.88" y="-632.45" font-family="Arial" font-size="9.00">+</text>
<text xml:space="preserve" text-anchor="start" x="168.12" y="-632.45" font-family="Arial" font-size="9.00">SignalStrength()=default</text>
<text xml:space="preserve" text-anchor="start" x="158.88" y="-617.95" font-family="Arial" font-size="9.00">+</text>
<text xml:space="preserve" text-anchor="start" x="168.12" y="-617.95" font-family="Arial" font-size="9.00">SignalStrength(uint8</text>
<text xml:space="preserve" text-anchor="start" x="168.12" y="-607.45" font-family="Arial" font-size="9.00">_t value)</text>
<text xml:space="preserve" text-anchor="start" x="158.88" y="-592.95" font-family="Arial" font-size="9.00">+</text>
<text xml:space="preserve" text-anchor="start" x="168.12" y="-592.95" font-family="Arial" font-size="9.00">SignalStrength &amp; operator</text>
<text xml:space="preserve" text-anchor="start" x="168.12" y="-582.45" font-family="Arial" font-size="9.00">=(uint8_t value)</text>
<text xml:space="preserve" text-anchor="start" x="158.88" y="-567.95" font-family="Arial" font-size="9.00">+</text>
<text xml:space="preserve" text-anchor="start" x="168.12" y="-567.95" font-family="Arial" font-size="9.00">operator uint8_t()</text>
<text xml:space="preserve" text-anchor="start" x="168.12" y="-557.45" font-family="Arial" font-size="9.00"> const</text>
<text xml:space="preserve" text-anchor="start" x="158.88" y="-542.95" font-family="Arial" font-size="9.00">+</text>
<text xml:space="preserve" text-anchor="start" x="168.12" y="-542.95" font-family="Arial" font-size="9.00">uint8_t toPercent()</text>
<polygon fill="#666666" stroke="#666666" points="154.88,-657.5 154.88,-657.5 277.88,-657.5 277.88,-657.5 154.88,-657.5"/>
<polygon fill="#666666" stroke="#666666" points="154.88,-643 154.88,-643 277.88,-643 277.88,-643 154.88,-643"/>
<polygon fill="none" stroke="#666666" points="154.88,-537 154.88,-684.5 277.88,-684.5 277.88,-537 154.88,-537"/>
</a>
</g>
</g>
<!-- Node5&#45;&gt;Node4 -->
<g id="edge4_Node000004_Node000005" class="edge">
<title>Node5&#45;&gt;Node4</title>
<g id="a_edge4_Node000004_Node000005"><a xlink:title=" ">
<path fill="none" stroke="#63b8ff" d="M233.13,-537.2C244.88,-490.43 262.15,-428.72 282.88,-376 296.42,-341.55 315.43,-304.41 330.86,-276.22"/>
<polygon fill="none" stroke="#63b8ff" points="330.76,-276.39 330.17,-269.2 336.57,-265.89 337.17,-273.08 330.76,-276.39"/>
</a>
</g>
<text xml:space="preserve" text-anchor="start" x="285.88" y="-417.2" font-family="Arial" font-size="9.00" fill="grey">+signalStrength</text>
</g>
<!-- Node6 -->
<g id="Node000006" class="node">
<title>Node6</title>
<g id="a_Node000006"><a xlink:href="../../d8/d3e/class_lib_1_1_xbee_1_1_a_p_i_1_1_connection_1_1_info_1_1_period.html" target="_top" xlink:title="TX period tracking with smoothing and min/max capture.">
<polygon fill="white" stroke="none" points="418.5,-738.5 296.25,-738.5 296.25,-483 418.5,-483 418.5,-738.5"/>
<text xml:space="preserve" text-anchor="start" x="302.62" y="-725.95" font-family="Arial" font-size="9.00">Lib::Xbee::API::Connection</text>
<text xml:space="preserve" text-anchor="start" x="331.88" y="-715.45" font-family="Arial" font-size="9.00">::Info::Period</text>
<text xml:space="preserve" text-anchor="start" x="356.25" y="-700.95" font-family="Arial" font-size="9.00"> </text>
<text xml:space="preserve" text-anchor="start" x="300.25" y="-686.45" font-family="Arial" font-size="9.00">+</text>
<text xml:space="preserve" text-anchor="start" x="309.5" y="-686.45" font-family="Arial" font-size="9.00">Period()</text>
<text xml:space="preserve" text-anchor="start" x="300.25" y="-671.95" font-family="Arial" font-size="9.00">+</text>
<text xml:space="preserve" text-anchor="start" x="309.5" y="-671.95" font-family="Arial" font-size="9.00">uint32_t getValue()</text>
<text xml:space="preserve" text-anchor="start" x="309.5" y="-661.45" font-family="Arial" font-size="9.00"> const</text>
<text xml:space="preserve" text-anchor="start" x="300.25" y="-646.95" font-family="Arial" font-size="9.00">+</text>
<text xml:space="preserve" text-anchor="start" x="309.5" y="-646.95" font-family="Arial" font-size="9.00">uint32_t getRawValue</text>
<text xml:space="preserve" text-anchor="start" x="309.5" y="-636.45" font-family="Arial" font-size="9.00">() const</text>
<text xml:space="preserve" text-anchor="start" x="300.25" y="-621.95" font-family="Arial" font-size="9.00">+</text>
<text xml:space="preserve" text-anchor="start" x="309.5" y="-621.95" font-family="Arial" font-size="9.00">uint32_t getMinimum</text>
<text xml:space="preserve" text-anchor="start" x="309.5" y="-611.45" font-family="Arial" font-size="9.00">() const</text>
<text xml:space="preserve" text-anchor="start" x="300.25" y="-596.95" font-family="Arial" font-size="9.00">+</text>
<text xml:space="preserve" text-anchor="start" x="309.5" y="-596.95" font-family="Arial" font-size="9.00">uint32_t getMaximum</text>
<text xml:space="preserve" text-anchor="start" x="309.5" y="-586.45" font-family="Arial" font-size="9.00">() const</text>
<text xml:space="preserve" text-anchor="start" x="300.25" y="-571.95" font-family="Arial" font-size="9.00">+</text>
<text xml:space="preserve" text-anchor="start" x="309.5" y="-571.95" font-family="Arial" font-size="9.00">void clearMinMax()</text>
<text xml:space="preserve" text-anchor="start" x="300.25" y="-557.45" font-family="Arial" font-size="9.00">+</text>
<text xml:space="preserve" text-anchor="start" x="309.5" y="-557.45" font-family="Arial" font-size="9.00">void beginMeasurement()</text>
<text xml:space="preserve" text-anchor="start" x="300.25" y="-542.95" font-family="Arial" font-size="9.00">+</text>
<text xml:space="preserve" text-anchor="start" x="309.5" y="-542.95" font-family="Arial" font-size="9.00">void endMeasurement()</text>
<text xml:space="preserve" text-anchor="start" x="300.25" y="-528.45" font-family="Arial" font-size="9.00">+</text>
<text xml:space="preserve" text-anchor="start" x="309.5" y="-528.45" font-family="Arial" font-size="9.00">void stopMeasurement()</text>
<text xml:space="preserve" text-anchor="start" x="300.25" y="-513.95" font-family="Arial" font-size="9.00">+</text>
<text xml:space="preserve" text-anchor="start" x="309.5" y="-513.95" font-family="Arial" font-size="9.00">void reset()</text>
<text xml:space="preserve" text-anchor="start" x="300.25" y="-499.45" font-family="Arial" font-size="9.00">+</text>
<text xml:space="preserve" text-anchor="start" x="309.5" y="-499.45" font-family="Arial" font-size="9.00">operator uint32_t</text>
<text xml:space="preserve" text-anchor="start" x="309.5" y="-488.95" font-family="Arial" font-size="9.00">() const</text>
<polygon fill="#666666" stroke="#666666" points="296.25,-711.5 296.25,-711.5 418.5,-711.5 418.5,-711.5 296.25,-711.5"/>
<polygon fill="#666666" stroke="#666666" points="296.25,-697 296.25,-697 418.5,-697 418.5,-697 296.25,-697"/>
<polygon fill="none" stroke="#666666" points="296.25,-483 296.25,-738.5 418.5,-738.5 418.5,-483 296.25,-483"/>
</a>
</g>
</g>
<!-- Node6&#45;&gt;Node4 -->
<g id="edge5_Node000004_Node000006" class="edge">
<title>Node6&#45;&gt;Node4</title>
<g id="a_edge5_Node000004_Node000006"><a xlink:title=" ">
<path fill="none" stroke="#63b8ff" d="M357.38,-483.03C357.38,-412.75 357.38,-329.43 357.38,-278.14"/>
<polygon fill="none" stroke="#63b8ff" points="357.38,-278.09 353.38,-272.09 357.38,-266.09 361.38,-272.09 357.38,-278.09"/>
</a>
</g>
<text xml:space="preserve" text-anchor="start" x="360.38" y="-417.2" font-family="Arial" font-size="9.00" fill="grey">+transmitPeriod</text>
</g>
<!-- Node7 -->
<g id="Node000007" class="node">
<title>Node7</title>
<g id="a_Node000007"><a xlink:href="../../d2/d4a/class_lib_1_1_xbee_1_1_a_p_i_1_1_connection_1_1_info_1_1_counter.html" target="_top" xlink:title="Bounded counter (saturates at MAX_VALUE).">
<polygon fill="white" stroke="none" points="554.12,-672 436.62,-672 436.62,-549.5 554.12,-549.5 554.12,-672"/>
<text xml:space="preserve" text-anchor="start" x="440.62" y="-659.45" font-family="Arial" font-size="9.00">Lib::Xbee::API::Connection</text>
<text xml:space="preserve" text-anchor="start" x="466.88" y="-648.95" font-family="Arial" font-size="9.00">::Info::Counter</text>
<text xml:space="preserve" text-anchor="start" x="494.25" y="-634.45" font-family="Arial" font-size="9.00"> </text>
<text xml:space="preserve" text-anchor="start" x="446.19" y="-619.95" font-family="Arial" font-size="9.00">+</text>
<text xml:space="preserve" text-anchor="start" x="461" y="-619.95" font-family="Arial" font-size="9.00">Counter()=default</text>
<text xml:space="preserve" text-anchor="start" x="446.19" y="-605.45" font-family="Arial" font-size="9.00">+</text>
<text xml:space="preserve" text-anchor="start" x="461" y="-605.45" font-family="Arial" font-size="9.00">operator uint32_t</text>
<text xml:space="preserve" text-anchor="start" x="461" y="-594.95" font-family="Arial" font-size="9.00">() const</text>
<text xml:space="preserve" text-anchor="start" x="446.19" y="-580.45" font-family="Arial" font-size="9.00">+</text>
<text xml:space="preserve" text-anchor="start" x="461" y="-580.45" font-family="Arial" font-size="9.00">void clear()</text>
<text xml:space="preserve" text-anchor="start" x="446.19" y="-565.95" font-family="Arial" font-size="9.00">+</text>
<text xml:space="preserve" text-anchor="start" x="461" y="-565.95" font-family="Arial" font-size="9.00">Counter &amp; operator</text>
<text xml:space="preserve" text-anchor="start" x="461" y="-555.45" font-family="Arial" font-size="9.00">++(int)</text>
<polygon fill="#666666" stroke="#666666" points="436.62,-645 436.62,-645 554.12,-645 554.12,-645 436.62,-645"/>
<polygon fill="#666666" stroke="#666666" points="436.62,-630.5 436.62,-630.5 554.12,-630.5 554.12,-630.5 436.62,-630.5"/>
<polygon fill="none" stroke="#666666" points="436.62,-549.5 436.62,-672 554.12,-672 554.12,-549.5 436.62,-549.5"/>
</a>
</g>
</g>
<!-- Node7&#45;&gt;Node4 -->
<g id="edge6_Node000004_Node000007" class="edge">
<title>Node7&#45;&gt;Node4</title>
<g id="a_edge6_Node000004_Node000007"><a xlink:title=" ">
<path fill="none" stroke="#63b8ff" d="M482.84,-549.56C472,-501.68 454.58,-433.43 432.38,-376 419.01,-341.43 399.86,-304.29 384.26,-276.13"/>
<polygon fill="none" stroke="#63b8ff" points="384.35,-276.28 377.92,-273 378.48,-265.81 384.9,-269.09 384.35,-276.28"/>
</a>
</g>
<text xml:space="preserve" text-anchor="start" x="464.32" y="-453.45" font-family="Arial" font-size="9.00" fill="grey">+deletedMessages</text>
<text xml:space="preserve" text-anchor="start" x="464.32" y="-438.95" font-family="Arial" font-size="9.00" fill="grey">+deletedTransmitStatus</text>
<text xml:space="preserve" text-anchor="start" x="464.32" y="-424.45" font-family="Arial" font-size="9.00" fill="grey">+noTransmitStatus</text>
<text xml:space="preserve" text-anchor="start" x="464.32" y="-409.95" font-family="Arial" font-size="9.00" fill="grey">+reconnectionCounter</text>
<text xml:space="preserve" text-anchor="start" x="464.32" y="-395.45" font-family="Arial" font-size="9.00" fill="grey">+retriesCounter</text>
<text xml:space="preserve" text-anchor="start" x="464.32" y="-380.95" font-family="Arial" font-size="9.00" fill="grey">+unsuccessTransmitStatus</text>
</g>
</g>
</svg>
