<?xml version="1.0" encoding="UTF-8" standalone="no"?>
<!DOCTYPE svg PUBLIC "-//W3C//DTD SVG 1.1//EN"
 "http://www.w3.org/Graphics/SVG/1.1/DTD/svg11.dtd">
<!-- Generated by graphviz version 13.1.0 (20250701.0955)
 -->
<!-- Title: RTOS::Mutex::LockGuard::LockGuard Pages: 1 -->
<svg width="336pt" height="66pt"
 viewBox="0.00 0.00 336.00 66.00" xmlns="http://www.w3.org/2000/svg" xmlns:xlink="http://www.w3.org/1999/xlink">
<g id="graph0" class="graph" transform="scale(1 1) rotate(0) translate(4 62)">
<title>RTOS::Mutex::LockGuard::LockGuard</title>
<!-- Node1 -->
<g id="Node000001" class="node">
<title>Node1</title>
<g id="a_Node000001"><a xlink:title="Constructor of LockGuard class.">
<polygon fill="#999999" stroke="#666666" points="182.5,-39 0,-39 0,-19 182.5,-19 182.5,-39"/>
<text xml:space="preserve" text-anchor="middle" x="91.25" y="-25.5" font-family="Helvetica,sans-Serif" font-size="10.00">RTOS::Mutex::LockGuard::LockGuard</text>
</a>
</g>
</g>
<!-- Node2 -->
<g id="Node000002" class="node">
<title>Node2</title>
<g id="a_Node000002"><a xlink:href="../../df/df4/class_r_t_o_s_1_1_mutex.html#af8835e310bfc17c2cfb2891a38b563d5" target="_top" xlink:title="Constructor of Mutex class.">
<polygon fill="white" stroke="#666666" points="327.5,-58 218.5,-58 218.5,-38 327.5,-38 327.5,-58"/>
<text xml:space="preserve" text-anchor="middle" x="273" y="-44.5" font-family="Helvetica,sans-Serif" font-size="10.00">RTOS::Mutex::Mutex</text>
</a>
</g>
</g>
<!-- Node1&#45;&gt;Node2 -->
<g id="edge1_Node000001_Node000002" class="edge">
<title>Node1&#45;&gt;Node2</title>
<g id="a_edge1_Node000001_Node000002"><a xlink:title=" ">
<path fill="none" stroke="#63b8ff" d="M182.91,-38.58C191,-39.44 199.09,-40.29 206.9,-41.12"/>
<polygon fill="#63b8ff" stroke="#63b8ff" points="206.3,-44.57 216.61,-42.15 207.03,-37.61 206.3,-44.57"/>
</a>
</g>
</g>
<!-- Node3 -->
<g id="Node000003" class="node">
<title>Node3</title>
<g id="a_Node000003"><a xlink:href="../../df/df4/class_r_t_o_s_1_1_mutex.html#a3230db1f78fe1d64c06cc3040d049355" target="_top" xlink:title="Lock the mutex.">
<polygon fill="white" stroke="#666666" points="323,-20 223,-20 223,0 323,0 323,-20"/>
<text xml:space="preserve" text-anchor="middle" x="273" y="-6.5" font-family="Helvetica,sans-Serif" font-size="10.00">RTOS::Mutex::lock</text>
</a>
</g>
</g>
<!-- Node1&#45;&gt;Node3 -->
<g id="edge2_Node000001_Node000003" class="edge">
<title>Node1&#45;&gt;Node3</title>
<g id="a_edge2_Node000001_Node000003"><a xlink:title=" ">
<path fill="none" stroke="#63b8ff" d="M182.91,-19.42C192.61,-18.39 202.29,-17.37 211.51,-16.39"/>
<polygon fill="#63b8ff" stroke="#63b8ff" points="211.82,-19.88 221.39,-15.35 211.08,-12.92 211.82,-19.88"/>
</a>
</g>
</g>
</g>
</svg>
