<?xml version="1.0" encoding="UTF-8" standalone="no"?>
<!DOCTYPE svg PUBLIC "-//W3C//DTD SVG 1.1//EN"
 "http://www.w3.org/Graphics/SVG/1.1/DTD/svg11.dtd">
<!-- Generated by graphviz version 13.1.0 (20250701.0955)
 -->
<!-- Title: Lib::HAL::ADCPort::Port&lt; MODE &gt; Pages: 1 -->
<svg width="718pt" height="362pt"
 viewBox="0.00 0.00 718.00 362.00" xmlns="http://www.w3.org/2000/svg" xmlns:xlink="http://www.w3.org/1999/xlink">
<g id="graph0" class="graph" transform="scale(1 1) rotate(0) translate(4 358)">
<title>Lib::HAL::ADCPort::Port&lt; MODE &gt;</title>
<!-- Node1 -->
<g id="Node000001" class="node">
<title>Node1</title>
<g id="a_Node000001"><a xlink:title="ADC port template forward declaration.">
<polygon fill="#999999" stroke="none" points="339.25,-354 251,-354 251,-296 339.25,-296 339.25,-354"/>
<text xml:space="preserve" text-anchor="start" x="255" y="-341.45" font-family="Arial" font-size="9.00">Lib::HAL::ADCPort::</text>
<text xml:space="preserve" text-anchor="start" x="265.88" y="-330.95" font-family="Arial" font-size="9.00">Port&lt; MODE &gt;</text>
<text xml:space="preserve" text-anchor="start" x="294" y="-316.45" font-family="Arial" font-size="9.00"> </text>
<text xml:space="preserve" text-anchor="start" x="294" y="-301.95" font-family="Arial" font-size="9.00"> </text>
<polygon fill="#666666" stroke="#666666" points="251,-327 251,-327 339.25,-327 339.25,-327 251,-327"/>
<polygon fill="#666666" stroke="#666666" points="251,-312.5 251,-312.5 339.25,-312.5 339.25,-312.5 251,-312.5"/>
<polygon fill="none" stroke="#666666" points="251,-296 251,-354 339.25,-354 339.25,-296 251,-296"/>
</a>
</g>
</g>
<!-- Node2 -->
<g id="Node000002" class="node">
<title>Node2</title>
<g id="a_Node000002"><a xlink:href="../../de/d13/class_lib_1_1_h_a_l_1_1_a_d_c_port_1_1_port.html" target="_top" xlink:title=" ">
<polygon fill="white" stroke="none" points="88.25,-150.75 0,-150.75 0,-92.75 88.25,-92.75 88.25,-150.75"/>
<text xml:space="preserve" text-anchor="start" x="4" y="-138.2" font-family="Arial" font-size="9.00">Lib::HAL::ADCPort::</text>
<text xml:space="preserve" text-anchor="start" x="9.62" y="-127.7" font-family="Arial" font-size="9.00">Port&lt; T_MODE &gt;</text>
<text xml:space="preserve" text-anchor="start" x="43" y="-113.2" font-family="Arial" font-size="9.00"> </text>
<text xml:space="preserve" text-anchor="start" x="43" y="-98.7" font-family="Arial" font-size="9.00"> </text>
<polygon fill="#666666" stroke="#666666" points="0,-123.75 0,-123.75 88.25,-123.75 88.25,-123.75 0,-123.75"/>
<polygon fill="#666666" stroke="#666666" points="0,-109.25 0,-109.25 88.25,-109.25 88.25,-109.25 0,-109.25"/>
<polygon fill="none" stroke="#666666" points="0,-92.75 0,-150.75 88.25,-150.75 88.25,-92.75 0,-92.75"/>
</a>
</g>
</g>
<!-- Node1&#45;&gt;Node2 -->
<g id="edge1_Node000001_Node000002" class="edge">
<title>Node1&#45;&gt;Node2</title>
<g id="a_edge1_Node000001_Node000002"><a xlink:title=" ">
<path fill="none" stroke="orange" d="M240.02,-316.03C194.91,-306.55 132.92,-286.25 97.12,-243.5 74.05,-215.94 59.34,-176.77 51.42,-150.59"/>
<polygon fill="orange" stroke="orange" points="239.12,-319.42 249.61,-317.92 240.47,-312.55 239.12,-319.42"/>
</a>
</g>
<text xml:space="preserve" text-anchor="start" x="139.2" y="-266.45" font-family="Arial" font-size="9.00" fill="grey">&lt; T_MODE &gt;</text>
</g>
<!-- Node3 -->
<g id="Node000003" class="node">
<title>Node3</title>
<g id="a_Node000003"><a xlink:href="../../de/d13/class_lib_1_1_h_a_l_1_1_a_d_c_port_1_1_port.html" target="_top" xlink:title=" ">
<polygon fill="white" stroke="none" points="194.25,-150.75 106,-150.75 106,-92.75 194.25,-92.75 194.25,-150.75"/>
<text xml:space="preserve" text-anchor="start" x="110" y="-138.2" font-family="Arial" font-size="9.00">Lib::HAL::ADCPort::</text>
<text xml:space="preserve" text-anchor="start" x="110.75" y="-127.7" font-family="Arial" font-size="9.00">Port&lt; Lib::HAL::IT &gt;</text>
<text xml:space="preserve" text-anchor="start" x="149" y="-113.2" font-family="Arial" font-size="9.00"> </text>
<text xml:space="preserve" text-anchor="start" x="149" y="-98.7" font-family="Arial" font-size="9.00"> </text>
<polygon fill="#666666" stroke="#666666" points="106,-123.75 106,-123.75 194.25,-123.75 194.25,-123.75 106,-123.75"/>
<polygon fill="#666666" stroke="#666666" points="106,-109.25 106,-109.25 194.25,-109.25 194.25,-109.25 106,-109.25"/>
<polygon fill="none" stroke="#666666" points="106,-92.75 106,-150.75 194.25,-150.75 194.25,-92.75 106,-92.75"/>
</a>
</g>
</g>
<!-- Node1&#45;&gt;Node3 -->
<g id="edge2_Node000001_Node000003" class="edge">
<title>Node1&#45;&gt;Node3</title>
<g id="a_edge2_Node000001_Node000003"><a xlink:title=" ">
<path fill="none" stroke="orange" d="M241.89,-294.4C235.08,-289.42 228.52,-283.92 222.88,-278 187.74,-241.17 167.08,-184.27 157.24,-150.55"/>
<polygon fill="orange" stroke="orange" points="239.81,-297.22 250.03,-300.01 243.78,-291.46 239.81,-297.22"/>
</a>
</g>
<text xml:space="preserve" text-anchor="start" x="225.88" y="-266.45" font-family="Arial" font-size="9.00" fill="grey">&lt; Lib::HAL::IT &gt;</text>
</g>
<!-- Node4 -->
<g id="Node000004" class="node">
<title>Node4</title>
<g id="a_Node000004"><a xlink:href="../../db/df3/class_lib_1_1_h_a_l_1_1_a_d_c_port_1_1_port_3_01_driver_mode_1_1_b_l_o_c_k_01_4.html" target="_top" xlink:title="Blocking ADC port implementation.">
<polygon fill="white" stroke="none" points="378,-238.25 212.25,-238.25 212.25,-5.25 378,-5.25 378,-238.25"/>
<text xml:space="preserve" text-anchor="start" x="237.75" y="-225.7" font-family="Arial" font-size="9.00">Lib::HAL::ADCPort::</text>
<text xml:space="preserve" text-anchor="start" x="237.75" y="-215.2" font-family="Arial" font-size="9.00">Port&lt; DriverMode::BLOCK &gt;</text>
<text xml:space="preserve" text-anchor="start" x="294" y="-200.7" font-family="Arial" font-size="9.00"> </text>
<text xml:space="preserve" text-anchor="start" x="216.25" y="-186.2" font-family="Arial" font-size="9.00">+</text>
<text xml:space="preserve" text-anchor="start" x="225.5" y="-186.2" font-family="Arial" font-size="9.00">Port(ADC_HandleTypeDef</text>
<text xml:space="preserve" text-anchor="start" x="225.5" y="-175.7" font-family="Arial" font-size="9.00"> *handle)</text>
<text xml:space="preserve" text-anchor="start" x="216.25" y="-161.2" font-family="Arial" font-size="9.00">+</text>
<text xml:space="preserve" text-anchor="start" x="225.5" y="-161.2" font-family="Arial" font-size="9.00">virtual ~Port()=default</text>
<text xml:space="preserve" text-anchor="start" x="216.25" y="-146.7" font-family="Arial" font-size="9.00">+</text>
<text xml:space="preserve" text-anchor="start" x="225.5" y="-146.7" font-family="Arial" font-size="9.00">virtual void open()</text>
<text xml:space="preserve" text-anchor="start" x="225.5" y="-136.2" font-family="Arial" font-size="9.00"> override</text>
<text xml:space="preserve" text-anchor="start" x="216.25" y="-121.7" font-family="Arial" font-size="9.00">+</text>
<text xml:space="preserve" text-anchor="start" x="225.5" y="-121.7" font-family="Arial" font-size="9.00">virtual void close</text>
<text xml:space="preserve" text-anchor="start" x="225.5" y="-111.2" font-family="Arial" font-size="9.00">() override</text>
<text xml:space="preserve" text-anchor="start" x="216.25" y="-96.7" font-family="Arial" font-size="9.00">+</text>
<text xml:space="preserve" text-anchor="start" x="225.5" y="-96.7" font-family="Arial" font-size="9.00">virtual bool startConversion</text>
<text xml:space="preserve" text-anchor="start" x="225.5" y="-86.2" font-family="Arial" font-size="9.00">(Channel &amp;channel) override</text>
<text xml:space="preserve" text-anchor="start" x="216.25" y="-71.7" font-family="Arial" font-size="9.00">+</text>
<text xml:space="preserve" text-anchor="start" x="225.5" y="-71.7" font-family="Arial" font-size="9.00">virtual bool stopConversion</text>
<text xml:space="preserve" text-anchor="start" x="225.5" y="-61.2" font-family="Arial" font-size="9.00">() override</text>
<text xml:space="preserve" text-anchor="start" x="216.25" y="-46.7" font-family="Arial" font-size="9.00">+</text>
<text xml:space="preserve" text-anchor="start" x="225.5" y="-46.7" font-family="Arial" font-size="9.00">virtual uint32_t read</text>
<text xml:space="preserve" text-anchor="start" x="225.5" y="-36.2" font-family="Arial" font-size="9.00">() override</text>
<text xml:space="preserve" text-anchor="start" x="216.25" y="-21.7" font-family="Arial" font-size="9.00">+</text>
<text xml:space="preserve" text-anchor="start" x="225.5" y="-21.7" font-family="Arial" font-size="9.00">virtual bool operator</text>
<text xml:space="preserve" text-anchor="start" x="225.5" y="-11.2" font-family="Arial" font-size="9.00">==(const ADC_HandleTypeDef &amp;ref)</text>
<polygon fill="#666666" stroke="#666666" points="212.25,-211.25 212.25,-211.25 378,-211.25 378,-211.25 212.25,-211.25"/>
<polygon fill="#666666" stroke="#666666" points="212.25,-196.75 212.25,-196.75 378,-196.75 378,-196.75 212.25,-196.75"/>
<polygon fill="none" stroke="#666666" points="212.25,-5.25 212.25,-238.25 378,-238.25 378,-5.25 212.25,-5.25"/>
</a>
</g>
</g>
<!-- Node1&#45;&gt;Node4 -->
<g id="edge3_Node000001_Node000004" class="edge">
<title>Node1&#45;&gt;Node4</title>
<g id="a_edge3_Node000001_Node000004"><a xlink:title=" ">
<path fill="none" stroke="orange" d="M295.12,-284.65C295.12,-270.94 295.12,-254.77 295.12,-238.06"/>
<polygon fill="orange" stroke="orange" points="291.63,-284.5 295.13,-294.5 298.63,-284.5 291.63,-284.5"/>
</a>
</g>
<text xml:space="preserve" text-anchor="start" x="298.12" y="-266.45" font-family="Arial" font-size="9.00" fill="grey">&lt; DriverMode::BLOCK &gt;</text>
</g>
<!-- Node5 -->
<g id="Node000005" class="node">
<title>Node5</title>
<g id="a_Node000005"><a xlink:href="../../d4/d80/class_lib_1_1_h_a_l_1_1_a_d_c_port_1_1_port_3_01_driver_mode_1_1_d_m_a_01_4.html" target="_top" xlink:title="DMA mode ADC port implementation.">
<polygon fill="white" stroke="none" points="544,-243.5 396.25,-243.5 396.25,0 544,0 544,-243.5"/>
<text xml:space="preserve" text-anchor="start" x="418.38" y="-230.95" font-family="Arial" font-size="9.00">Lib::HAL::ADCPort::</text>
<text xml:space="preserve" text-anchor="start" x="418.38" y="-220.45" font-family="Arial" font-size="9.00">Port&lt; DriverMode::DMA &gt;</text>
<text xml:space="preserve" text-anchor="start" x="469" y="-205.95" font-family="Arial" font-size="9.00"> </text>
<text xml:space="preserve" text-anchor="start" x="400.25" y="-191.45" font-family="Arial" font-size="9.00">+</text>
<text xml:space="preserve" text-anchor="start" x="409.5" y="-191.45" font-family="Arial" font-size="9.00">Port(ADC_HandleTypeDef</text>
<text xml:space="preserve" text-anchor="start" x="409.5" y="-180.95" font-family="Arial" font-size="9.00"> *hnd, size_t buffSize=16)</text>
<text xml:space="preserve" text-anchor="start" x="400.25" y="-166.45" font-family="Arial" font-size="9.00">+</text>
<text xml:space="preserve" text-anchor="start" x="409.5" y="-166.45" font-family="Arial" font-size="9.00">virtual ~Port()=default</text>
<text xml:space="preserve" text-anchor="start" x="400.25" y="-151.95" font-family="Arial" font-size="9.00">+</text>
<text xml:space="preserve" text-anchor="start" x="409.5" y="-151.95" font-family="Arial" font-size="9.00">virtual void open()</text>
<text xml:space="preserve" text-anchor="start" x="409.5" y="-141.45" font-family="Arial" font-size="9.00"> override</text>
<text xml:space="preserve" text-anchor="start" x="400.25" y="-126.95" font-family="Arial" font-size="9.00">+</text>
<text xml:space="preserve" text-anchor="start" x="409.5" y="-126.95" font-family="Arial" font-size="9.00">virtual void close</text>
<text xml:space="preserve" text-anchor="start" x="409.5" y="-116.45" font-family="Arial" font-size="9.00">() override</text>
<text xml:space="preserve" text-anchor="start" x="400.25" y="-101.95" font-family="Arial" font-size="9.00">+</text>
<text xml:space="preserve" text-anchor="start" x="409.5" y="-101.95" font-family="Arial" font-size="9.00">virtual bool startConvertion</text>
<text xml:space="preserve" text-anchor="start" x="409.5" y="-91.45" font-family="Arial" font-size="9.00">(Channel &amp;channel) override</text>
<text xml:space="preserve" text-anchor="start" x="400.25" y="-76.95" font-family="Arial" font-size="9.00">+</text>
<text xml:space="preserve" text-anchor="start" x="409.5" y="-76.95" font-family="Arial" font-size="9.00">virtual bool stopConvertion</text>
<text xml:space="preserve" text-anchor="start" x="409.5" y="-66.45" font-family="Arial" font-size="9.00">() override</text>
<text xml:space="preserve" text-anchor="start" x="400.25" y="-51.95" font-family="Arial" font-size="9.00">+</text>
<text xml:space="preserve" text-anchor="start" x="409.5" y="-51.95" font-family="Arial" font-size="9.00">virtual uint32_t read</text>
<text xml:space="preserve" text-anchor="start" x="409.5" y="-41.45" font-family="Arial" font-size="9.00">() override</text>
<text xml:space="preserve" text-anchor="start" x="400.25" y="-26.95" font-family="Arial" font-size="9.00">+</text>
<text xml:space="preserve" text-anchor="start" x="409.5" y="-26.95" font-family="Arial" font-size="9.00">virtual void isrCallback</text>
<text xml:space="preserve" text-anchor="start" x="409.5" y="-16.45" font-family="Arial" font-size="9.00">(HAL_ADC_CallbackIDTypeDef</text>
<text xml:space="preserve" text-anchor="start" x="409.5" y="-5.95" font-family="Arial" font-size="9.00"> id) override</text>
<polygon fill="#666666" stroke="#666666" points="396.25,-216.5 396.25,-216.5 544,-216.5 544,-216.5 396.25,-216.5"/>
<polygon fill="#666666" stroke="#666666" points="396.25,-202 396.25,-202 544,-202 544,-202 396.25,-202"/>
<polygon fill="none" stroke="#666666" points="396.25,0 396.25,-243.5 544,-243.5 544,0 396.25,0"/>
</a>
</g>
</g>
<!-- Node1&#45;&gt;Node5 -->
<g id="edge4_Node000001_Node000005" class="edge">
<title>Node1&#45;&gt;Node5</title>
<g id="a_edge4_Node000001_Node000005"><a xlink:title=" ">
<path fill="none" stroke="orange" d="M350.06,-309.74C368.75,-302.69 388.57,-292.48 403.12,-278 413.32,-267.85 422.07,-255.9 429.55,-243.21"/>
<polygon fill="orange" stroke="orange" points="348.94,-306.43 340.66,-313.04 351.26,-313.03 348.94,-306.43"/>
</a>
</g>
<text xml:space="preserve" text-anchor="start" x="418.16" y="-266.45" font-family="Arial" font-size="9.00" fill="grey">&lt; DriverMode::DMA &gt;</text>
</g>
<!-- Node6 -->
<g id="Node000006" class="node">
<title>Node6</title>
<g id="a_Node000006"><a xlink:href="../../d3/ddd/class_lib_1_1_h_a_l_1_1_a_d_c_port_1_1_port_3_01_driver_mode_1_1_i_t_01_4.html" target="_top" xlink:title="Interrupt mode ADC port implementation.">
<polygon fill="white" stroke="none" points="710,-243.5 562.25,-243.5 562.25,0 710,0 710,-243.5"/>
<text xml:space="preserve" text-anchor="start" x="590.38" y="-230.95" font-family="Arial" font-size="9.00">Lib::HAL::ADCPort::</text>
<text xml:space="preserve" text-anchor="start" x="590.38" y="-220.45" font-family="Arial" font-size="9.00">Port&lt; DriverMode::IT &gt;</text>
<text xml:space="preserve" text-anchor="start" x="635" y="-205.95" font-family="Arial" font-size="9.00"> </text>
<text xml:space="preserve" text-anchor="start" x="566.25" y="-191.45" font-family="Arial" font-size="9.00">+</text>
<text xml:space="preserve" text-anchor="start" x="575.5" y="-191.45" font-family="Arial" font-size="9.00">Port(ADC_HandleTypeDef</text>
<text xml:space="preserve" text-anchor="start" x="575.5" y="-180.95" font-family="Arial" font-size="9.00"> *hnd)</text>
<text xml:space="preserve" text-anchor="start" x="566.25" y="-166.45" font-family="Arial" font-size="9.00">+</text>
<text xml:space="preserve" text-anchor="start" x="575.5" y="-166.45" font-family="Arial" font-size="9.00">virtual ~Port()=default</text>
<text xml:space="preserve" text-anchor="start" x="566.25" y="-151.95" font-family="Arial" font-size="9.00">+</text>
<text xml:space="preserve" text-anchor="start" x="575.5" y="-151.95" font-family="Arial" font-size="9.00">virtual void open()</text>
<text xml:space="preserve" text-anchor="start" x="575.5" y="-141.45" font-family="Arial" font-size="9.00"> override</text>
<text xml:space="preserve" text-anchor="start" x="566.25" y="-126.95" font-family="Arial" font-size="9.00">+</text>
<text xml:space="preserve" text-anchor="start" x="575.5" y="-126.95" font-family="Arial" font-size="9.00">virtual void close</text>
<text xml:space="preserve" text-anchor="start" x="575.5" y="-116.45" font-family="Arial" font-size="9.00">() override</text>
<text xml:space="preserve" text-anchor="start" x="566.25" y="-101.95" font-family="Arial" font-size="9.00">+</text>
<text xml:space="preserve" text-anchor="start" x="575.5" y="-101.95" font-family="Arial" font-size="9.00">virtual bool startConvertion</text>
<text xml:space="preserve" text-anchor="start" x="575.5" y="-91.45" font-family="Arial" font-size="9.00">(Channel &amp;channel) override</text>
<text xml:space="preserve" text-anchor="start" x="566.25" y="-76.95" font-family="Arial" font-size="9.00">+</text>
<text xml:space="preserve" text-anchor="start" x="575.5" y="-76.95" font-family="Arial" font-size="9.00">virtual bool stopConvertion</text>
<text xml:space="preserve" text-anchor="start" x="575.5" y="-66.45" font-family="Arial" font-size="9.00">() override</text>
<text xml:space="preserve" text-anchor="start" x="566.25" y="-51.95" font-family="Arial" font-size="9.00">+</text>
<text xml:space="preserve" text-anchor="start" x="575.5" y="-51.95" font-family="Arial" font-size="9.00">virtual uint32_t read</text>
<text xml:space="preserve" text-anchor="start" x="575.5" y="-41.45" font-family="Arial" font-size="9.00">() override</text>
<text xml:space="preserve" text-anchor="start" x="566.25" y="-26.95" font-family="Arial" font-size="9.00">+</text>
<text xml:space="preserve" text-anchor="start" x="575.5" y="-26.95" font-family="Arial" font-size="9.00">virtual void isrCallback</text>
<text xml:space="preserve" text-anchor="start" x="575.5" y="-16.45" font-family="Arial" font-size="9.00">(HAL_ADC_CallbackIDTypeDef</text>
<text xml:space="preserve" text-anchor="start" x="575.5" y="-5.95" font-family="Arial" font-size="9.00"> id) override</text>
<polygon fill="#666666" stroke="#666666" points="562.25,-216.5 562.25,-216.5 710,-216.5 710,-216.5 562.25,-216.5"/>
<polygon fill="#666666" stroke="#666666" points="562.25,-202 562.25,-202 710,-202 710,-202 562.25,-202"/>
<polygon fill="none" stroke="#666666" points="562.25,0 562.25,-243.5 710,-243.5 710,0 562.25,0"/>
</a>
</g>
</g>
<!-- Node1&#45;&gt;Node6 -->
<g id="edge5_Node000001_Node000006" class="edge">
<title>Node1&#45;&gt;Node6</title>
<g id="a_edge5_Node000001_Node000006"><a xlink:title=" ">
<path fill="none" stroke="orange" d="M350.54,-319.76C395.89,-314.56 460.71,-303.1 512.12,-278 530.88,-268.84 547.69,-255.34 562.44,-240.07"/>
<polygon fill="orange" stroke="orange" points="350.23,-316.27 340.66,-320.82 350.98,-323.23 350.23,-316.27"/>
</a>
</g>
<text xml:space="preserve" text-anchor="start" x="537.88" y="-266.45" font-family="Arial" font-size="9.00" fill="grey">&lt; DriverMode::IT &gt;</text>
</g>
</g>
</svg>
