<?xml version="1.0" encoding="UTF-8" standalone="no"?>
<!DOCTYPE svg PUBLIC "-//W3C//DTD SVG 1.1//EN"
 "http://www.w3.org/Graphics/SVG/1.1/DTD/svg11.dtd">
<!-- Generated by graphviz version 12.2.1 (20241206.2353)
 -->
<!-- Title: Lib::HAL::CAN::Filter::Filter Pages: 1 -->
<svg width="264pt" height="90pt"
 viewBox="0.00 0.00 263.50 90.00" xmlns="http://www.w3.org/2000/svg" xmlns:xlink="http://www.w3.org/1999/xlink">
<g id="graph0" class="graph" transform="scale(1 1) rotate(0) translate(4 86)">
<title>Lib::HAL::CAN::Filter::Filter</title>
<!-- Node1 -->
<g id="Node000001" class="node">
<title>Node1</title>
<g id="a_Node000001"><a xlink:title="Constructor for the Filter class.">
<polygon fill="#999999" stroke="#666666" points="109.75,-57 0,-57 0,-25 109.75,-25 109.75,-57"/>
<text text-anchor="start" x="8" y="-43.5" font-family="Helvetica,sans-Serif" font-size="10.00">Lib::HAL::CAN::Filter</text>
<text text-anchor="middle" x="54.88" y="-31.5" font-family="Helvetica,sans-Serif" font-size="10.00">::Filter</text>
</a>
</g>
</g>
<!-- Node2 -->
<g id="Node000002" class="node">
<title>Node2</title>
<g id="a_Node000002"><a xlink:href="../../d9/d01/a00227.html#a3ace50d629ae2d006c89c7dadf9b7f9e" target="_top" xlink:title="Set the filter ID.">
<polygon fill="white" stroke="#666666" points="255.5,-82 145.75,-82 145.75,-50 255.5,-50 255.5,-82"/>
<text text-anchor="start" x="153.75" y="-68.5" font-family="Helvetica,sans-Serif" font-size="10.00">Lib::HAL::CAN::Filter</text>
<text text-anchor="middle" x="200.62" y="-56.5" font-family="Helvetica,sans-Serif" font-size="10.00">::setId</text>
</a>
</g>
</g>
<!-- Node1&#45;&gt;Node2 -->
<g id="edge1_Node000001_Node000002" class="edge">
<title>Node1&#45;&gt;Node2</title>
<g id="a_edge1_Node000001_Node000002"><a xlink:title=" ">
<path fill="none" stroke="#63b8ff" d="M110.22,-50.45C118.11,-51.82 126.3,-53.25 134.38,-54.65"/>
<polygon fill="#63b8ff" stroke="#63b8ff" points="133.74,-58.09 144.19,-56.36 134.94,-51.2 133.74,-58.09"/>
</a>
</g>
</g>
<!-- Node3 -->
<g id="Node000003" class="node">
<title>Node3</title>
<g id="a_Node000003"><a xlink:href="../../d9/d01/a00227.html#a32306db0a9a6aadc3a85c611c8cebffd" target="_top" xlink:title="Set the filter mask.">
<polygon fill="white" stroke="#666666" points="255.5,-32 145.75,-32 145.75,0 255.5,0 255.5,-32"/>
<text text-anchor="start" x="153.75" y="-18.5" font-family="Helvetica,sans-Serif" font-size="10.00">Lib::HAL::CAN::Filter</text>
<text text-anchor="middle" x="200.62" y="-6.5" font-family="Helvetica,sans-Serif" font-size="10.00">::setMask</text>
</a>
</g>
</g>
<!-- Node1&#45;&gt;Node3 -->
<g id="edge2_Node000001_Node000003" class="edge">
<title>Node1&#45;&gt;Node3</title>
<g id="a_edge2_Node000001_Node000003"><a xlink:title=" ">
<path fill="none" stroke="#63b8ff" d="M110.22,-31.55C118.11,-30.18 126.3,-28.75 134.38,-27.35"/>
<polygon fill="#63b8ff" stroke="#63b8ff" points="134.94,-30.8 144.19,-25.64 133.74,-23.91 134.94,-30.8"/>
</a>
</g>
</g>
</g>
</svg>
