<?xml version="1.0" encoding="UTF-8" standalone="no"?>
<!DOCTYPE svg PUBLIC "-//W3C//DTD SVG 1.1//EN"
 "http://www.w3.org/Graphics/SVG/1.1/DTD/svg11.dtd">
<!-- Generated by graphviz version 3.0.0 (20220226.1711)
 -->
<!-- Title: powerUp Pages: 1 -->
<svg width="398pt" height="142pt"
 viewBox="0.00 0.00 398.00 142.00" xmlns="http://www.w3.org/2000/svg" xmlns:xlink="http://www.w3.org/1999/xlink">
<g id="graph0" class="graph" transform="scale(1 1) rotate(0) translate(4 138)">
<title>powerUp</title>
<!-- Node1 -->
<g id="node1" class="node">
<title>Node1</title>
<g id="a_node1"><a xlink:title="Power Up Chip.">
<polygon fill="#bfbfbf" stroke="black" points="336,-57.5 336,-76.5 390,-76.5 390,-57.5 336,-57.5"/>
<text text-anchor="middle" x="363" y="-64.5" font-family="Helvetica,sans-Serif" font-size="10.00">powerUp</text>
</a>
</g>
</g>
<!-- Node2 -->
<g id="node2" class="node">
<title>Node2</title>
<g id="a_node2"><a xlink:href="../../d6/d73/class_b_s_p_1_1_c_s25_f_lxxx.html#a97b11dcf6ef13ec8b5bbf55a465eb751" target="_top" xlink:title="Initialize Serial Flash Memory.">
<polygon fill="none" stroke="black" points="211,-114.5 211,-133.5 249,-133.5 249,-114.5 211,-114.5"/>
<text text-anchor="middle" x="230" y="-121.5" font-family="Helvetica,sans-Serif" font-size="10.00">open</text>
</a>
</g>
</g>
<!-- Node1&#45;&gt;Node2 -->
<g id="edge1" class="edge">
<title>Node1&#45;&gt;Node2</title>
<path fill="none" stroke="midnightblue" d="M340.3,-82.39C328.76,-90.02 314.07,-98.9 300,-105 283.36,-112.22 263.26,-117.38 249.05,-120.49"/>
<polygon fill="midnightblue" stroke="midnightblue" points="342.51,-85.12 348.81,-76.61 338.57,-79.33 342.51,-85.12"/>
</g>
<!-- Node4 -->
<g id="node4" class="node">
<title>Node4</title>
<g id="a_node4"><a xlink:href="../../dc/d79/class_b_s_p_1_1_c_quad_flash.html#a84c1e2a464e3f074a8d133daf804ed04" target="_top" xlink:title="Power Up Chip.">
<polygon fill="none" stroke="black" points="160,-76.5 160,-95.5 300,-95.5 300,-76.5 160,-76.5"/>
<text text-anchor="middle" x="230" y="-83.5" font-family="Helvetica,sans-Serif" font-size="10.00">BSP::CQuadFlash::powerUp</text>
</a>
</g>
</g>
<!-- Node1&#45;&gt;Node4 -->
<g id="edge3" class="edge">
<title>Node1&#45;&gt;Node4</title>
<path fill="none" stroke="midnightblue" d="M325.69,-72.27C316.67,-73.58 306.71,-75.02 296.75,-76.46"/>
<polygon fill="midnightblue" stroke="midnightblue" points="326.41,-75.7 335.81,-70.8 325.41,-68.77 326.41,-75.7"/>
</g>
<!-- Node5 -->
<g id="node5" class="node">
<title>Node5</title>
<g id="a_node5"><a xlink:href="../../d6/d73/class_b_s_p_1_1_c_s25_f_lxxx.html#aaf4f675ca719b927832c0aec589bef76" target="_top" xlink:title="Read Data From Serial Flash Memory.">
<polygon fill="none" stroke="black" points="212.5,-38.5 212.5,-57.5 247.5,-57.5 247.5,-38.5 212.5,-38.5"/>
<text text-anchor="middle" x="230" y="-45.5" font-family="Helvetica,sans-Serif" font-size="10.00">read</text>
</a>
</g>
</g>
<!-- Node1&#45;&gt;Node5 -->
<g id="edge4" class="edge">
<title>Node1&#45;&gt;Node5</title>
<path fill="none" stroke="midnightblue" d="M325.72,-61.74C300.17,-58.03 267.15,-53.24 247.61,-50.41"/>
<polygon fill="midnightblue" stroke="midnightblue" points="325.41,-65.23 335.81,-63.2 326.41,-58.3 325.41,-65.23"/>
</g>
<!-- Node7 -->
<g id="node7" class="node">
<title>Node7</title>
<g id="a_node7"><a xlink:href="../../d6/d73/class_b_s_p_1_1_c_s25_f_lxxx.html#a28e117149a179b225615ae02259b423b" target="_top" xlink:title="Write Data To Serial Flash Memory.">
<polygon fill="none" stroke="black" points="211.5,-0.5 211.5,-19.5 248.5,-19.5 248.5,-0.5 211.5,-0.5"/>
<text text-anchor="middle" x="230" y="-7.5" font-family="Helvetica,sans-Serif" font-size="10.00">write</text>
</a>
</g>
</g>
<!-- Node1&#45;&gt;Node7 -->
<g id="edge6" class="edge">
<title>Node1&#45;&gt;Node7</title>
<path fill="none" stroke="midnightblue" d="M340.3,-51.61C328.76,-43.98 314.07,-35.1 300,-29 283.24,-21.73 262.98,-16.55 248.76,-13.45"/>
<polygon fill="midnightblue" stroke="midnightblue" points="338.57,-54.67 348.81,-57.39 342.51,-48.88 338.57,-54.67"/>
</g>
<!-- Node3 -->
<g id="node3" class="node">
<title>Node3</title>
<g id="a_node3"><a xlink:href="../../dc/d79/class_b_s_p_1_1_c_quad_flash.html#a962ee220e6ef097784a3bf237efb639a" target="_top" xlink:title="Initialize Serial Flash Memory.">
<polygon fill="none" stroke="black" points="0,-114.5 0,-133.5 124,-133.5 124,-114.5 0,-114.5"/>
<text text-anchor="middle" x="62" y="-121.5" font-family="Helvetica,sans-Serif" font-size="10.00">BSP::CQuadFlash::open</text>
</a>
</g>
</g>
<!-- Node2&#45;&gt;Node3 -->
<g id="edge2" class="edge">
<title>Node2&#45;&gt;Node3</title>
<path fill="none" stroke="midnightblue" d="M200.79,-124C179.82,-124 150.43,-124 124.18,-124"/>
<polygon fill="midnightblue" stroke="midnightblue" points="200.92,-127.5 210.92,-124 200.92,-120.5 200.92,-127.5"/>
</g>
<!-- Node6 -->
<g id="node6" class="node">
<title>Node6</title>
<g id="a_node6"><a xlink:href="../../dc/d79/class_b_s_p_1_1_c_quad_flash.html#a7965f4c8ff023c9c39ca2d711bce7f43" target="_top" xlink:title="Read Data From Serial Flash Memory.">
<polygon fill="none" stroke="black" points="1,-38.5 1,-57.5 123,-57.5 123,-38.5 1,-38.5"/>
<text text-anchor="middle" x="62" y="-45.5" font-family="Helvetica,sans-Serif" font-size="10.00">BSP::CQuadFlash::read</text>
</a>
</g>
</g>
<!-- Node5&#45;&gt;Node6 -->
<g id="edge5" class="edge">
<title>Node5&#45;&gt;Node6</title>
<path fill="none" stroke="midnightblue" d="M202.25,-48C180.93,-48 150.26,-48 123.12,-48"/>
<polygon fill="midnightblue" stroke="midnightblue" points="202.48,-51.5 212.48,-48 202.48,-44.5 202.48,-51.5"/>
</g>
<!-- Node8 -->
<g id="node8" class="node">
<title>Node8</title>
<g id="a_node8"><a xlink:href="../../dc/d79/class_b_s_p_1_1_c_quad_flash.html#acc426ff89dd1ee45a72c8afff4ac0065" target="_top" xlink:title="Write Data To Serial Flash Memory.">
<polygon fill="none" stroke="black" points="0.5,-0.5 0.5,-19.5 123.5,-19.5 123.5,-0.5 0.5,-0.5"/>
<text text-anchor="middle" x="62" y="-7.5" font-family="Helvetica,sans-Serif" font-size="10.00">BSP::CQuadFlash::write</text>
</a>
</g>
</g>
<!-- Node7&#45;&gt;Node8 -->
<g id="edge7" class="edge">
<title>Node7&#45;&gt;Node8</title>
<path fill="none" stroke="midnightblue" d="M201.05,-10C179.93,-10 150.16,-10 123.67,-10"/>
<polygon fill="midnightblue" stroke="midnightblue" points="201.24,-13.5 211.24,-10 201.24,-6.5 201.24,-13.5"/>
</g>
</g>
</svg>
