<?xml version="1.0" encoding="UTF-8" standalone="no"?>
<!DOCTYPE svg PUBLIC "-//W3C//DTD SVG 1.1//EN"
 "http://www.w3.org/Graphics/SVG/1.1/DTD/svg11.dtd">
<!-- Generated by graphviz version 2.50.0 (20211204.2007)
 -->
<!-- Title: _setRegister Pages: 1 -->
<svg width="332pt" height="218pt"
 viewBox="0.00 0.00 332.00 218.00" xmlns="http://www.w3.org/2000/svg" xmlns:xlink="http://www.w3.org/1999/xlink">
<g id="graph0" class="graph" transform="scale(1 1) rotate(0) translate(4 214)">
<title>_setRegister</title>
<!-- Node1 -->
<g id="node1" class="node">
<title>Node1</title>
<g id="a_node1"><a xlink:title="Send Command.">
<polygon fill="#bfbfbf" stroke="black" points="253,-95.5 253,-114.5 324,-114.5 324,-95.5 253,-95.5"/>
<text text-anchor="middle" x="288.5" y="-102.5" font-family="Helvetica,sans-Serif" font-size="10.00">_setRegister</text>
</a>
</g>
</g>
<!-- Node2 -->
<g id="node2" class="node">
<title>Node2</title>
<g id="a_node2"><a xlink:href="../../d6/d73/class_b_s_p_1_1_c_s25_f_lxxx.html#a6ac953697e7a3d72aeedbc9c490a5c8e" target="_top" xlink:title="Write Disable.">
<polygon fill="none" stroke="black" points="129,-190.5 129,-209.5 205,-209.5 205,-190.5 129,-190.5"/>
<text text-anchor="middle" x="167" y="-197.5" font-family="Helvetica,sans-Serif" font-size="10.00">_disableWrite</text>
</a>
</g>
</g>
<!-- Node1&#45;&gt;Node2 -->
<g id="edge1" class="edge">
<title>Node1&#45;&gt;Node2</title>
<path fill="none" stroke="midnightblue" d="M274.5,-123.21C261.58,-140.16 240.37,-165.14 217,-181 211.49,-184.74 205.14,-187.89 198.87,-190.49"/>
<polygon fill="midnightblue" stroke="midnightblue" points="277.64,-124.84 280.78,-114.72 272.02,-120.68 277.64,-124.84"/>
</g>
<!-- Node3 -->
<g id="node3" class="node">
<title>Node3</title>
<g id="a_node3"><a xlink:href="../../d6/d73/class_b_s_p_1_1_c_s25_f_lxxx.html#afe90973ed4504eac3106c50fd0484e56" target="_top" xlink:title="Write Enable.">
<polygon fill="none" stroke="black" points="130,-152.5 130,-171.5 204,-171.5 204,-152.5 130,-152.5"/>
<text text-anchor="middle" x="167" y="-159.5" font-family="Helvetica,sans-Serif" font-size="10.00">_enableWrite</text>
</a>
</g>
</g>
<!-- Node1&#45;&gt;Node3 -->
<g id="edge2" class="edge">
<title>Node1&#45;&gt;Node3</title>
<path fill="none" stroke="midnightblue" d="M262.01,-119.73C248.78,-127.12 232.24,-135.97 217,-143 209.79,-146.32 201.82,-149.58 194.44,-152.44"/>
<polygon fill="midnightblue" stroke="midnightblue" points="264.01,-122.62 270.99,-114.66 260.56,-116.53 264.01,-122.62"/>
</g>
<!-- Node4 -->
<g id="node4" class="node">
<title>Node4</title>
<g id="a_node4"><a xlink:href="../../d6/d73/class_b_s_p_1_1_c_s25_f_lxxx.html#aa69350b88ec887f57d6375923cd58e6f" target="_top" xlink:title="Get the Status Register.">
<polygon fill="none" stroke="black" points="117,-114.5 117,-133.5 217,-133.5 217,-114.5 117,-114.5"/>
<text text-anchor="middle" x="167" y="-121.5" font-family="Helvetica,sans-Serif" font-size="10.00">_getStatusRegister</text>
</a>
</g>
</g>
<!-- Node1&#45;&gt;Node4 -->
<g id="edge3" class="edge">
<title>Node1&#45;&gt;Node4</title>
<path fill="none" stroke="midnightblue" d="M242.94,-112.08C234.53,-113.42 225.69,-114.83 217.15,-116.19"/>
<polygon fill="midnightblue" stroke="midnightblue" points="243.61,-115.52 252.94,-110.5 242.51,-108.61 243.61,-115.52"/>
</g>
<!-- Node6 -->
<g id="node6" class="node">
<title>Node6</title>
<g id="a_node6"><a xlink:href="../../d6/d73/class_b_s_p_1_1_c_s25_f_lxxx.html#a9732ff54d2712797e89df51124e866cc" target="_top" xlink:title="Read Block from Serial Flash.">
<polygon fill="none" stroke="black" points="134.5,-76.5 134.5,-95.5 199.5,-95.5 199.5,-76.5 134.5,-76.5"/>
<text text-anchor="middle" x="167" y="-83.5" font-family="Helvetica,sans-Serif" font-size="10.00">_readBlock</text>
</a>
</g>
</g>
<!-- Node1&#45;&gt;Node6 -->
<g id="edge5" class="edge">
<title>Node1&#45;&gt;Node6</title>
<path fill="none" stroke="midnightblue" d="M242.76,-97.89C228.41,-95.61 212.83,-93.13 199.63,-91.03"/>
<polygon fill="midnightblue" stroke="midnightblue" points="242.51,-101.39 252.94,-99.5 243.61,-94.48 242.51,-101.39"/>
</g>
<!-- Node8 -->
<g id="node8" class="node">
<title>Node8</title>
<g id="a_node8"><a xlink:href="../../d6/d73/class_b_s_p_1_1_c_s25_f_lxxx.html#a38c6eca88cc274fe6bcc1c0458dba90f" target="_top" xlink:title="Read Chip Info.">
<polygon fill="none" stroke="black" points="129.5,-38.5 129.5,-57.5 204.5,-57.5 204.5,-38.5 129.5,-38.5"/>
<text text-anchor="middle" x="167" y="-45.5" font-family="Helvetica,sans-Serif" font-size="10.00">_readChipInfo</text>
</a>
</g>
</g>
<!-- Node1&#45;&gt;Node8 -->
<g id="edge7" class="edge">
<title>Node1&#45;&gt;Node8</title>
<path fill="none" stroke="midnightblue" d="M262.01,-90.27C248.78,-82.88 232.24,-74.03 217,-67 209.79,-63.68 201.82,-60.42 194.44,-57.56"/>
<polygon fill="midnightblue" stroke="midnightblue" points="260.56,-93.47 270.99,-95.34 264.01,-87.38 260.56,-93.47"/>
</g>
<!-- Node10 -->
<g id="node10" class="node">
<title>Node10</title>
<g id="a_node10"><a xlink:href="../../d6/d73/class_b_s_p_1_1_c_s25_f_lxxx.html#a57f909fb72e44cf06da0a98a30b9777d" target="_top" xlink:title="Reset Chip.">
<polygon fill="none" stroke="black" points="145,-0.5 145,-19.5 189,-19.5 189,-0.5 145,-0.5"/>
<text text-anchor="middle" x="167" y="-7.5" font-family="Helvetica,sans-Serif" font-size="10.00">_reset</text>
</a>
</g>
</g>
<!-- Node1&#45;&gt;Node10 -->
<g id="edge9" class="edge">
<title>Node1&#45;&gt;Node10</title>
<path fill="none" stroke="midnightblue" d="M274.5,-86.79C261.58,-69.84 240.37,-44.86 217,-29 208.55,-23.26 198.11,-18.91 189.04,-15.82"/>
<polygon fill="midnightblue" stroke="midnightblue" points="272.02,-89.32 280.78,-95.28 277.64,-85.16 272.02,-89.32"/>
</g>
<!-- Node5 -->
<g id="node5" class="node">
<title>Node5</title>
<g id="a_node5"><a xlink:href="../../d6/d73/class_b_s_p_1_1_c_s25_f_lxxx.html#a680fa8d40e0d4096bbfc3589314dc3dd" target="_top" xlink:title="Wait for Ready After Write Command.">
<polygon fill="none" stroke="black" points="0,-114.5 0,-133.5 81,-133.5 81,-114.5 0,-114.5"/>
<text text-anchor="middle" x="40.5" y="-121.5" font-family="Helvetica,sans-Serif" font-size="10.00">_waitForReady</text>
</a>
</g>
</g>
<!-- Node4&#45;&gt;Node5 -->
<g id="edge4" class="edge">
<title>Node4&#45;&gt;Node5</title>
<path fill="none" stroke="midnightblue" d="M106.7,-124C98.04,-124 89.3,-124 81.15,-124"/>
<polygon fill="midnightblue" stroke="midnightblue" points="106.79,-127.5 116.79,-124 106.79,-120.5 106.79,-127.5"/>
</g>
<!-- Node7 -->
<g id="node7" class="node">
<title>Node7</title>
<g id="a_node7"><a xlink:href="../../d6/d73/class_b_s_p_1_1_c_s25_f_lxxx.html#a7965f4c8ff023c9c39ca2d711bce7f43" target="_top" xlink:title="Read Data From Serial Flash Memory.">
<polygon fill="none" stroke="black" points="23,-76.5 23,-95.5 58,-95.5 58,-76.5 23,-76.5"/>
<text text-anchor="middle" x="40.5" y="-83.5" font-family="Helvetica,sans-Serif" font-size="10.00">read</text>
</a>
</g>
</g>
<!-- Node6&#45;&gt;Node7 -->
<g id="edge6" class="edge">
<title>Node6&#45;&gt;Node7</title>
<path fill="none" stroke="midnightblue" d="M124.23,-86C101.68,-86 75.09,-86 58.27,-86"/>
<polygon fill="midnightblue" stroke="midnightblue" points="124.26,-89.5 134.26,-86 124.26,-82.5 124.26,-89.5"/>
</g>
<!-- Node9 -->
<g id="node9" class="node">
<title>Node9</title>
<g id="a_node9"><a xlink:href="../../d6/d73/class_b_s_p_1_1_c_s25_f_lxxx.html#ab6fe8c1b6d33f60fd9203a3919373ac6" target="_top" xlink:title="Initialize Serial Flash Memory.">
<polygon fill="none" stroke="black" points="26,-19.5 26,-38.5 55,-38.5 55,-19.5 26,-19.5"/>
<text text-anchor="middle" x="40.5" y="-26.5" font-family="Helvetica,sans-Serif" font-size="10.00">init</text>
</a>
</g>
</g>
<!-- Node8&#45;&gt;Node9 -->
<g id="edge8" class="edge">
<title>Node8&#45;&gt;Node9</title>
<path fill="none" stroke="midnightblue" d="M119.38,-40.89C96.44,-37.38 70.48,-33.42 55.08,-31.07"/>
<polygon fill="midnightblue" stroke="midnightblue" points="118.91,-44.35 129.32,-42.4 119.96,-37.43 118.91,-44.35"/>
</g>
<!-- Node10&#45;&gt;Node9 -->
<g id="edge10" class="edge">
<title>Node10&#45;&gt;Node9</title>
<path fill="none" stroke="midnightblue" d="M134.88,-14.75C109.21,-18.67 74.03,-24.03 55.02,-26.94"/>
<polygon fill="midnightblue" stroke="midnightblue" points="135.52,-18.19 144.88,-13.22 134.47,-11.27 135.52,-18.19"/>
</g>
</g>
</svg>
