<?xml version="1.0" encoding="UTF-8" standalone="no"?>
<!DOCTYPE svg PUBLIC "-//W3C//DTD SVG 1.1//EN"
 "http://www.w3.org/Graphics/SVG/1.1/DTD/svg11.dtd">
<!-- Generated by graphviz version 3.0.0 (20220226.1711)
 -->
<!-- Title: powerDown Pages: 1 -->
<svg width="424pt" height="66pt"
 viewBox="0.00 0.00 424.00 66.00" xmlns="http://www.w3.org/2000/svg" xmlns:xlink="http://www.w3.org/1999/xlink">
<g id="graph0" class="graph" transform="scale(1 1) rotate(0) translate(4 62)">
<title>powerDown</title>
<!-- Node1 -->
<g id="node1" class="node">
<title>Node1</title>
<g id="a_node1"><a xlink:title="Power Down Chip.">
<polygon fill="#bfbfbf" stroke="black" points="350,-19.5 350,-38.5 416,-38.5 416,-19.5 350,-19.5"/>
<text text-anchor="middle" x="383" y="-26.5" font-family="Helvetica,sans-Serif" font-size="10.00">powerDown</text>
</a>
</g>
</g>
<!-- Node2 -->
<g id="node2" class="node">
<title>Node2</title>
<g id="a_node2"><a xlink:href="../../d6/d73/class_b_s_p_1_1_c_s25_f_lxxx.html#a7d0615580e1b532be5002cc2e80413da" target="_top" xlink:title="Close Serial Flash Memory.">
<polygon fill="none" stroke="black" points="218,-38.5 218,-57.5 258,-57.5 258,-38.5 218,-38.5"/>
<text text-anchor="middle" x="238" y="-45.5" font-family="Helvetica,sans-Serif" font-size="10.00">close</text>
</a>
</g>
</g>
<!-- Node1&#45;&gt;Node2 -->
<g id="edge1" class="edge">
<title>Node1&#45;&gt;Node2</title>
<path fill="none" stroke="midnightblue" d="M339.92,-34.59C312.89,-38.18 279.06,-42.68 258.25,-45.44"/>
<polygon fill="midnightblue" stroke="midnightblue" points="340.46,-38.05 349.91,-33.26 339.53,-31.11 340.46,-38.05"/>
</g>
<!-- Node4 -->
<g id="node4" class="node">
<title>Node4</title>
<g id="a_node4"><a xlink:href="../../dc/d79/class_b_s_p_1_1_c_quad_flash.html#af4622aac260b0783ae9a906d46a26e1c" target="_top" xlink:title="Power Down Chip.">
<polygon fill="none" stroke="black" points="162,-0.5 162,-19.5 314,-19.5 314,-0.5 162,-0.5"/>
<text text-anchor="middle" x="238" y="-7.5" font-family="Helvetica,sans-Serif" font-size="10.00">BSP::CQuadFlash::powerDown</text>
</a>
</g>
</g>
<!-- Node1&#45;&gt;Node4 -->
<g id="edge3" class="edge">
<title>Node1&#45;&gt;Node4</title>
<path fill="none" stroke="midnightblue" d="M339.9,-23.41C330.7,-22.18 320.72,-20.86 310.73,-19.53"/>
<polygon fill="midnightblue" stroke="midnightblue" points="339.53,-26.89 349.91,-24.74 340.46,-19.95 339.53,-26.89"/>
</g>
<!-- Node3 -->
<g id="node3" class="node">
<title>Node3</title>
<g id="a_node3"><a xlink:href="../../dc/d79/class_b_s_p_1_1_c_quad_flash.html#ae20163478f908f5ee91f724333a23ecc" target="_top" xlink:title="Close Serial Flash Memory.">
<polygon fill="none" stroke="black" points="0,-38.5 0,-57.5 126,-57.5 126,-38.5 0,-38.5"/>
<text text-anchor="middle" x="63" y="-45.5" font-family="Helvetica,sans-Serif" font-size="10.00">BSP::CQuadFlash::close</text>
</a>
</g>
</g>
<!-- Node2&#45;&gt;Node3 -->
<g id="edge2" class="edge">
<title>Node2&#45;&gt;Node3</title>
<path fill="none" stroke="midnightblue" d="M207.7,-48C185.47,-48 154.1,-48 126.34,-48"/>
<polygon fill="midnightblue" stroke="midnightblue" points="207.83,-51.5 217.82,-48 207.82,-44.5 207.83,-51.5"/>
</g>
</g>
</svg>
