<?xml version="1.0" encoding="UTF-8" standalone="no"?>
<!DOCTYPE svg PUBLIC "-//W3C//DTD SVG 1.1//EN"
 "http://www.w3.org/Graphics/SVG/1.1/DTD/svg11.dtd">
<!-- Generated by graphviz version 13.1.0 (20250701.0955)
 -->
<!-- Title: Lib::System::HardwareVersion::HardwareVersion Pages: 1 -->
<svg width="687pt" height="28pt"
 viewBox="0.00 0.00 687.00 28.00" xmlns="http://www.w3.org/2000/svg" xmlns:xlink="http://www.w3.org/1999/xlink">
<g id="graph0" class="graph" transform="scale(1 1) rotate(0) translate(4 24)">
<title>Lib::System::HardwareVersion::HardwareVersion</title>
<!-- Node1 -->
<g id="Node000001" class="node">
<title>Node1</title>
<g id="a_Node000001"><a xlink:title="Constructor of the HardwareVersion class.">
<polygon fill="#999999" stroke="#666666" points="229,-20 0,-20 0,0 229,0 229,-20"/>
<text xml:space="preserve" text-anchor="middle" x="114.5" y="-6.5" font-family="Helvetica,sans-Serif" font-size="10.00">Lib::System::HardwareVersion::HardwareVersion</text>
</a>
</g>
</g>
<!-- Node2 -->
<g id="Node000002" class="node">
<title>Node2</title>
<g id="a_Node000002"><a xlink:href="../../d1/d03/class_lib_1_1_system_1_1_version_base.html#a3331f31ba7cb28b09a5866479702ac77" target="_top" xlink:title="Constructor of the VersionBase class.">
<polygon fill="white" stroke="#666666" points="455,-20 265,-20 265,0 455,0 455,-20"/>
<text xml:space="preserve" text-anchor="middle" x="360" y="-6.5" font-family="Helvetica,sans-Serif" font-size="10.00">Lib::System::VersionBase::VersionBase</text>
</a>
</g>
</g>
<!-- Node1&#45;&gt;Node2 -->
<g id="edge1_Node000001_Node000002" class="edge">
<title>Node1&#45;&gt;Node2</title>
<g id="a_edge1_Node000001_Node000002"><a xlink:title=" ">
<path fill="none" stroke="#63b8ff" d="M229.41,-10C237.31,-10 245.25,-10 253.11,-10"/>
<polygon fill="#63b8ff" stroke="#63b8ff" points="253.02,-13.5 263.02,-10 253.02,-6.5 253.02,-13.5"/>
</a>
</g>
</g>
<!-- Node3 -->
<g id="Node000003" class="node">
<title>Node3</title>
<g id="a_Node000003"><a xlink:href="../../d1/d03/class_lib_1_1_system_1_1_version_base.html#ad4b4a58ef0aefd035ce644c7253aa552" target="_top" xlink:title="Converts a version string to a 32&#45;bit unsigned integer.">
<polygon fill="white" stroke="#666666" points="678.75,-20 491,-20 491,0 678.75,0 678.75,-20"/>
<text xml:space="preserve" text-anchor="middle" x="584.88" y="-6.5" font-family="Helvetica,sans-Serif" font-size="10.00">Lib::System::VersionBase::stringToU32</text>
</a>
</g>
</g>
<!-- Node2&#45;&gt;Node3 -->
<g id="edge2_Node000002_Node000003" class="edge">
<title>Node2&#45;&gt;Node3</title>
<g id="a_edge2_Node000002_Node000003"><a xlink:title=" ">
<path fill="none" stroke="#63b8ff" d="M455.2,-10C463.19,-10 471.31,-10 479.37,-10"/>
<polygon fill="#63b8ff" stroke="#63b8ff" points="479.21,-13.5 489.21,-10 479.21,-6.5 479.21,-13.5"/>
</a>
</g>
</g>
</g>
</svg>
