<?xml version="1.0" encoding="UTF-8" standalone="no"?>
<!DOCTYPE svg PUBLIC "-//W3C//DTD SVG 1.1//EN"
 "http://www.w3.org/Graphics/SVG/1.1/DTD/svg11.dtd">
<!-- Generated by graphviz version 13.1.0 (20250701.0955)
 -->
<!-- Title: Lib::System::HardwareVersion::string Pages: 1 -->
<svg width="851pt" height="28pt"
 viewBox="0.00 0.00 851.00 28.00" xmlns="http://www.w3.org/2000/svg" xmlns:xlink="http://www.w3.org/1999/xlink">
<g id="graph0" class="graph" transform="scale(1 1) rotate(0) translate(4 24)">
<title>Lib::System::HardwareVersion::string</title>
<!-- Node1 -->
<g id="Node000001" class="node">
<title>Node1</title>
<g id="a_Node000001"><a xlink:title="Conversion operator to std::string.">
<polygon fill="#999999" stroke="#666666" points="178.75,-20 0,-20 0,0 178.75,0 178.75,-20"/>
<text xml:space="preserve" text-anchor="middle" x="89.38" y="-6.5" font-family="Helvetica,sans-Serif" font-size="10.00">Lib::System::HardwareVersion::string</text>
</a>
</g>
</g>
<!-- Node2 -->
<g id="Node000002" class="node">
<title>Node2</title>
<g id="a_Node000002"><a xlink:href="../../df/d44/class_lib_1_1_system_1_1_hardware_version.html#ac860c6a930f0a903a72428061a52246c" target="_top" xlink:title="Converts hardware version to string.">
<polygon fill="white" stroke="#666666" points="403.25,-20 214.75,-20 214.75,0 403.25,0 403.25,-20"/>
<text xml:space="preserve" text-anchor="middle" x="309" y="-6.5" font-family="Helvetica,sans-Serif" font-size="10.00">Lib::System::HardwareVersion::toString</text>
</a>
</g>
</g>
<!-- Node1&#45;&gt;Node2 -->
<g id="edge1_Node000001_Node000002" class="edge">
<title>Node1&#45;&gt;Node2</title>
<g id="a_edge1_Node000001_Node000002"><a xlink:title=" ">
<path fill="none" stroke="#63b8ff" d="M179.21,-10C187.11,-10 195.17,-10 203.19,-10"/>
<polygon fill="#63b8ff" stroke="#63b8ff" points="202.99,-13.5 212.99,-10 202.99,-6.5 202.99,-13.5"/>
</a>
</g>
</g>
<!-- Node3 -->
<g id="Node000003" class="node">
<title>Node3</title>
<g id="a_Node000003"><a xlink:href="../../d1/d03/class_lib_1_1_system_1_1_version_base.html#ac407a0936f165c08ff018f17281a5f92" target="_top" xlink:title="Converts version information to a string.">
<polygon fill="white" stroke="#666666" points="608.25,-20 439.25,-20 439.25,0 608.25,0 608.25,-20"/>
<text xml:space="preserve" text-anchor="middle" x="523.75" y="-6.5" font-family="Helvetica,sans-Serif" font-size="10.00">Lib::System::VersionBase::toString</text>
</a>
</g>
</g>
<!-- Node2&#45;&gt;Node3 -->
<g id="edge2_Node000002_Node000003" class="edge">
<title>Node2&#45;&gt;Node3</title>
<g id="a_edge2_Node000002_Node000003"><a xlink:title=" ">
<path fill="none" stroke="#63b8ff" d="M403.62,-10C411.49,-10 419.45,-10 427.33,-10"/>
<polygon fill="#63b8ff" stroke="#63b8ff" points="427.28,-13.5 437.28,-10 427.28,-6.5 427.28,-13.5"/>
</a>
</g>
</g>
<!-- Node4 -->
<g id="Node000004" class="node">
<title>Node4</title>
<g id="a_Node000004"><a xlink:href="../../d1/d03/class_lib_1_1_system_1_1_version_base.html#ae155e5992c4f390d6533602933291731" target="_top" xlink:title="Retrieves the subversion number.">
<polygon fill="white" stroke="#666666" points="842.5,-20 644.25,-20 644.25,0 842.5,0 842.5,-20"/>
<text xml:space="preserve" text-anchor="middle" x="743.38" y="-6.5" font-family="Helvetica,sans-Serif" font-size="10.00">Lib::System::VersionBase::getSubVersion</text>
</a>
</g>
</g>
<!-- Node3&#45;&gt;Node4 -->
<g id="edge3_Node000003_Node000004" class="edge">
<title>Node3&#45;&gt;Node4</title>
<g id="a_edge3_Node000003_Node000004"><a xlink:title=" ">
<path fill="none" stroke="#63b8ff" d="M608.58,-10C616.47,-10 624.55,-10 632.64,-10"/>
<polygon fill="#63b8ff" stroke="#63b8ff" points="632.54,-13.5 642.54,-10 632.54,-6.5 632.54,-13.5"/>
</a>
</g>
</g>
</g>
</svg>
