<?xml version="1.0" encoding="UTF-8" standalone="no"?>
<!DOCTYPE svg PUBLIC "-//W3C//DTD SVG 1.1//EN"
 "http://www.w3.org/Graphics/SVG/1.1/DTD/svg11.dtd">
<!-- Generated by graphviz version 13.1.0 (20250701.0955)
 -->
<!-- Title: RTOS::Timeout::isExpired Pages: 1 -->
<svg width="824pt" height="85pt"
 viewBox="0.00 0.00 824.00 85.00" xmlns="http://www.w3.org/2000/svg" xmlns:xlink="http://www.w3.org/1999/xlink">
<g id="graph0" class="graph" transform="scale(1 1) rotate(0) translate(4 81)">
<title>RTOS::Timeout::isExpired</title>
<!-- Node1 -->
<g id="Node000001" class="node">
<title>Node1</title>
<g id="a_Node000001"><a xlink:title="Check if timeout has expired.">
<polygon fill="#999999" stroke="#666666" points="130.75,-39 0,-39 0,-19 130.75,-19 130.75,-39"/>
<text xml:space="preserve" text-anchor="middle" x="65.38" y="-25.5" font-family="Helvetica,sans-Serif" font-size="10.00">RTOS::Timeout::isExpired</text>
</a>
</g>
</g>
<!-- Node2 -->
<g id="Node000002" class="node">
<title>Node2</title>
<g id="a_Node000002"><a xlink:href="../../da/d2c/class_r_t_o_s_1_1_tick_counter.html#a29654984a0cf81674d5a17fcc63d7df3" target="_top" xlink:title="Check if a timeout (in ticks) has occurred since a given tick count.">
<polygon fill="white" stroke="#666666" points="357.5,-58 166.75,-58 166.75,-38 357.5,-38 357.5,-58"/>
<text xml:space="preserve" text-anchor="middle" x="262.12" y="-44.5" font-family="Helvetica,sans-Serif" font-size="10.00">RTOS::TickCounter::hasTimedOutTicks</text>
</a>
</g>
</g>
<!-- Node1&#45;&gt;Node2 -->
<g id="edge1_Node000001_Node000002" class="edge">
<title>Node1&#45;&gt;Node2</title>
<g id="a_edge1_Node000001_Node000002"><a xlink:title=" ">
<path fill="none" stroke="#63b8ff" d="M131.22,-35.33C138.9,-36.08 146.87,-36.85 154.93,-37.64"/>
<polygon fill="#63b8ff" stroke="#63b8ff" points="154.55,-41.12 164.84,-38.61 155.23,-34.15 154.55,-41.12"/>
</a>
</g>
</g>
<!-- Node6 -->
<g id="Node000006" class="node">
<title>Node6</title>
<g id="a_Node000006"><a xlink:href="../../dc/d33/class_r_t_o_s_1_1_timeout.html#a1c0d42cfc8bef1eddfab7ea49848e88b" target="_top" xlink:title="Check if timeout is disabled.">
<polygon fill="white" stroke="#666666" points="330.12,-20 194.12,-20 194.12,0 330.12,0 330.12,-20"/>
<text xml:space="preserve" text-anchor="middle" x="262.12" y="-6.5" font-family="Helvetica,sans-Serif" font-size="10.00">RTOS::Timeout::isDisabled</text>
</a>
</g>
</g>
<!-- Node1&#45;&gt;Node6 -->
<g id="edge5_Node000001_Node000006" class="edge">
<title>Node1&#45;&gt;Node6</title>
<g id="a_edge5_Node000001_Node000006"><a xlink:title=" ">
<path fill="none" stroke="#63b8ff" d="M131.22,-22.67C147.74,-21.06 165.67,-19.31 182.79,-17.64"/>
<polygon fill="#63b8ff" stroke="#63b8ff" points="182.78,-21.16 192.39,-16.71 182.1,-14.19 182.78,-21.16"/>
</a>
</g>
</g>
<!-- Node3 -->
<g id="Node000003" class="node">
<title>Node3</title>
<g id="a_Node000003"><a xlink:href="../../da/d2c/class_r_t_o_s_1_1_tick_counter.html#ad6915fe87c8e6127f5357b1a5eeb12e2" target="_top" xlink:title="Get elapsed ticks since a given tick count.">
<polygon fill="white" stroke="#666666" points="599.25,-58 393.5,-58 393.5,-38 599.25,-38 599.25,-58"/>
<text xml:space="preserve" text-anchor="middle" x="496.38" y="-44.5" font-family="Helvetica,sans-Serif" font-size="10.00">RTOS::TickCounter::getElapsedTicksSince</text>
</a>
</g>
</g>
<!-- Node2&#45;&gt;Node3 -->
<g id="edge2_Node000002_Node000003" class="edge">
<title>Node2&#45;&gt;Node3</title>
<g id="a_edge2_Node000002_Node000003"><a xlink:title=" ">
<path fill="none" stroke="#63b8ff" d="M357.92,-48C365.85,-48 373.92,-48 381.97,-48"/>
<polygon fill="#63b8ff" stroke="#63b8ff" points="381.81,-51.5 391.81,-48 381.81,-44.5 381.81,-51.5"/>
</a>
</g>
</g>
<!-- Node4 -->
<g id="Node000004" class="node">
<title>Node4</title>
<g id="a_Node000004"><a xlink:href="../../da/d2c/class_r_t_o_s_1_1_tick_counter.html#a0fe8362c851a572e236d8c4978c0677a" target="_top" xlink:title="Get current tick count.">
<polygon fill="white" stroke="#666666" points="786.62,-77 664.88,-77 664.88,-57 786.62,-57 786.62,-77"/>
<text xml:space="preserve" text-anchor="middle" x="725.75" y="-63.5" font-family="Helvetica,sans-Serif" font-size="10.00">RTOS::TickCounter::get</text>
</a>
</g>
</g>
<!-- Node3&#45;&gt;Node4 -->
<g id="edge3_Node000003_Node000004" class="edge">
<title>Node3&#45;&gt;Node4</title>
<g id="a_edge3_Node000003_Node000004"><a xlink:title=" ">
<path fill="none" stroke="#63b8ff" d="M599.42,-56.53C617.73,-58.06 636.44,-59.62 653.63,-61.06"/>
<polygon fill="#63b8ff" stroke="#63b8ff" points="652.92,-64.51 663.18,-61.86 653.51,-57.53 652.92,-64.51"/>
</a>
</g>
</g>
<!-- Node5 -->
<g id="Node000005" class="node">
<title>Node5</title>
<g id="a_Node000005"><a xlink:href="../../da/d2c/class_r_t_o_s_1_1_tick_counter.html#a0260ddc7279e91581fa509a6e945609e" target="_top" xlink:title="Get elapsed ticks between two tick counts.">
<polygon fill="white" stroke="#666666" points="816.25,-39 635.25,-39 635.25,-19 816.25,-19 816.25,-39"/>
<text xml:space="preserve" text-anchor="middle" x="725.75" y="-25.5" font-family="Helvetica,sans-Serif" font-size="10.00">RTOS::TickCounter::getElapsedTicks</text>
</a>
</g>
</g>
<!-- Node3&#45;&gt;Node5 -->
<g id="edge4_Node000003_Node000005" class="edge">
<title>Node3&#45;&gt;Node5</title>
<g id="a_edge4_Node000003_Node000005"><a xlink:title=" ">
<path fill="none" stroke="#63b8ff" d="M599.42,-39.47C607.45,-38.8 615.55,-38.13 623.57,-37.45"/>
<polygon fill="#63b8ff" stroke="#63b8ff" points="623.65,-40.96 633.32,-36.64 623.07,-33.98 623.65,-40.96"/>
</a>
</g>
</g>
</g>
</svg>
