<?xml version="1.0" encoding="UTF-8" standalone="no"?>
<!DOCTYPE svg PUBLIC "-//W3C//DTD SVG 1.1//EN"
 "http://www.w3.org/Graphics/SVG/1.1/DTD/svg11.dtd">
<!-- Generated by graphviz version 13.1.0 (20250701.0955)
 -->
<!-- Title: RTOS::Timeout::getElapsedMs Pages: 1 -->
<svg width="809pt" height="123pt"
 viewBox="0.00 0.00 809.00 123.00" xmlns="http://www.w3.org/2000/svg" xmlns:xlink="http://www.w3.org/1999/xlink">
<g id="graph0" class="graph" transform="scale(1 1) rotate(0) translate(4 119)">
<title>RTOS::Timeout::getElapsedMs</title>
<!-- Node1 -->
<g id="Node000001" class="node">
<title>Node1</title>
<g id="a_Node000001"><a xlink:title="Get elapsed time in milliseconds since timeout started.">
<polygon fill="#999999" stroke="#666666" points="152.5,-39 0,-39 0,-19 152.5,-19 152.5,-39"/>
<text xml:space="preserve" text-anchor="middle" x="76.25" y="-25.5" font-family="Helvetica,sans-Serif" font-size="10.00">RTOS::Timeout::getElapsedMs</text>
</a>
</g>
</g>
<!-- Node2 -->
<g id="Node000002" class="node">
<title>Node2</title>
<g id="a_Node000002"><a xlink:href="../../dc/d33/class_r_t_o_s_1_1_timeout.html#a7d284ed1a91d568f176eb93a816e2b13" target="_top" xlink:title="Get elapsed time in ticks since timeout started.">
<polygon fill="white" stroke="#666666" points="334.62,-58 195.62,-58 195.62,-38 334.62,-38 334.62,-58"/>
<text xml:space="preserve" text-anchor="middle" x="265.12" y="-44.5" font-family="Helvetica,sans-Serif" font-size="10.00">RTOS::Timeout::getElapsed</text>
</a>
</g>
</g>
<!-- Node1&#45;&gt;Node2 -->
<g id="edge1_Node000001_Node000002" class="edge">
<title>Node1&#45;&gt;Node2</title>
<g id="a_edge1_Node000001_Node000002"><a xlink:title=" ">
<path fill="none" stroke="#63b8ff" d="M152.99,-36.7C163.13,-37.73 173.57,-38.79 183.79,-39.83"/>
<polygon fill="#63b8ff" stroke="#63b8ff" points="183.4,-43.31 193.7,-40.84 184.11,-36.35 183.4,-43.31"/>
</a>
</g>
</g>
<!-- Node7 -->
<g id="Node000007" class="node">
<title>Node7</title>
<g id="a_Node000007"><a xlink:href="../../da/d2c/class_r_t_o_s_1_1_tick_counter.html#a4279f1f55ee184a461e549bd9d8284a2" target="_top" xlink:title="Convert ticks to milliseconds.">
<polygon fill="white" stroke="#666666" points="341.75,-20 188.5,-20 188.5,0 341.75,0 341.75,-20"/>
<text xml:space="preserve" text-anchor="middle" x="265.12" y="-6.5" font-family="Helvetica,sans-Serif" font-size="10.00">RTOS::TickCounter::ticksToMs</text>
</a>
</g>
</g>
<!-- Node1&#45;&gt;Node7 -->
<g id="edge6_Node000001_Node000007" class="edge">
<title>Node1&#45;&gt;Node7</title>
<g id="a_edge6_Node000001_Node000007"><a xlink:title=" ">
<path fill="none" stroke="#63b8ff" d="M152.99,-21.3C160.9,-20.5 168.98,-19.67 177,-18.86"/>
<polygon fill="#63b8ff" stroke="#63b8ff" points="177.18,-22.36 186.77,-17.86 176.47,-15.39 177.18,-22.36"/>
</a>
</g>
</g>
<!-- Node3 -->
<g id="Node000003" class="node">
<title>Node3</title>
<g id="a_Node000003"><a xlink:href="../../da/d2c/class_r_t_o_s_1_1_tick_counter.html#ad6915fe87c8e6127f5357b1a5eeb12e2" target="_top" xlink:title="Get elapsed ticks since a given tick count.">
<polygon fill="white" stroke="#666666" points="583.5,-96 377.75,-96 377.75,-76 583.5,-76 583.5,-96"/>
<text xml:space="preserve" text-anchor="middle" x="480.62" y="-82.5" font-family="Helvetica,sans-Serif" font-size="10.00">RTOS::TickCounter::getElapsedTicksSince</text>
</a>
</g>
</g>
<!-- Node2&#45;&gt;Node3 -->
<g id="edge2_Node000002_Node000003" class="edge">
<title>Node2&#45;&gt;Node3</title>
<g id="a_edge2_Node000002_Node000003"><a xlink:title=" ">
<path fill="none" stroke="#63b8ff" d="M325.03,-58.48C351.28,-63.16 382.4,-68.7 409.82,-73.57"/>
<polygon fill="#63b8ff" stroke="#63b8ff" points="408.96,-76.98 419.42,-75.28 410.19,-70.09 408.96,-76.98"/>
</a>
</g>
</g>
<!-- Node6 -->
<g id="Node000006" class="node">
<title>Node6</title>
<g id="a_Node000006"><a xlink:href="../../dc/d33/class_r_t_o_s_1_1_timeout.html#a1c0d42cfc8bef1eddfab7ea49848e88b" target="_top" xlink:title="Check if timeout is disabled.">
<polygon fill="white" stroke="#666666" points="548.62,-58 412.62,-58 412.62,-38 548.62,-38 548.62,-58"/>
<text xml:space="preserve" text-anchor="middle" x="480.62" y="-44.5" font-family="Helvetica,sans-Serif" font-size="10.00">RTOS::Timeout::isDisabled</text>
</a>
</g>
</g>
<!-- Node2&#45;&gt;Node6 -->
<g id="edge5_Node000002_Node000006" class="edge">
<title>Node2&#45;&gt;Node6</title>
<g id="a_edge5_Node000002_Node000006"><a xlink:title=" ">
<path fill="none" stroke="#63b8ff" d="M334.85,-48C355.93,-48 379.29,-48 400.97,-48"/>
<polygon fill="#63b8ff" stroke="#63b8ff" points="400.97,-51.5 410.97,-48 400.97,-44.5 400.97,-51.5"/>
</a>
</g>
</g>
<!-- Node4 -->
<g id="Node000004" class="node">
<title>Node4</title>
<g id="a_Node000004"><a xlink:href="../../da/d2c/class_r_t_o_s_1_1_tick_counter.html#a0fe8362c851a572e236d8c4978c0677a" target="_top" xlink:title="Get current tick count.">
<polygon fill="white" stroke="#666666" points="770.88,-115 649.12,-115 649.12,-95 770.88,-95 770.88,-115"/>
<text xml:space="preserve" text-anchor="middle" x="710" y="-101.5" font-family="Helvetica,sans-Serif" font-size="10.00">RTOS::TickCounter::get</text>
</a>
</g>
</g>
<!-- Node3&#45;&gt;Node4 -->
<g id="edge3_Node000003_Node000004" class="edge">
<title>Node3&#45;&gt;Node4</title>
<g id="a_edge3_Node000003_Node000004"><a xlink:title=" ">
<path fill="none" stroke="#63b8ff" d="M583.67,-94.53C601.98,-96.06 620.69,-97.62 637.88,-99.06"/>
<polygon fill="#63b8ff" stroke="#63b8ff" points="637.17,-102.51 647.43,-99.86 637.76,-95.53 637.17,-102.51"/>
</a>
</g>
</g>
<!-- Node5 -->
<g id="Node000005" class="node">
<title>Node5</title>
<g id="a_Node000005"><a xlink:href="../../da/d2c/class_r_t_o_s_1_1_tick_counter.html#a0260ddc7279e91581fa509a6e945609e" target="_top" xlink:title="Get elapsed ticks between two tick counts.">
<polygon fill="white" stroke="#666666" points="800.5,-77 619.5,-77 619.5,-57 800.5,-57 800.5,-77"/>
<text xml:space="preserve" text-anchor="middle" x="710" y="-63.5" font-family="Helvetica,sans-Serif" font-size="10.00">RTOS::TickCounter::getElapsedTicks</text>
</a>
</g>
</g>
<!-- Node3&#45;&gt;Node5 -->
<g id="edge4_Node000003_Node000005" class="edge">
<title>Node3&#45;&gt;Node5</title>
<g id="a_edge4_Node000003_Node000005"><a xlink:title=" ">
<path fill="none" stroke="#63b8ff" d="M583.67,-77.47C591.7,-76.8 599.8,-76.13 607.82,-75.45"/>
<polygon fill="#63b8ff" stroke="#63b8ff" points="607.9,-78.96 617.57,-74.64 607.32,-71.98 607.9,-78.96"/>
</a>
</g>
</g>
<!-- Node8 -->
<g id="Node000008" class="node">
<title>Node8</title>
<g id="a_Node000008"><a xlink:href="../../da/d2c/class_r_t_o_s_1_1_tick_counter.html#aa4f09aa2584d95ea6f0d171179c54b24" target="_top" xlink:title="Get tick period in milliseconds.">
<polygon fill="white" stroke="#666666" points="571.5,-20 389.75,-20 389.75,0 571.5,0 571.5,-20"/>
<text xml:space="preserve" text-anchor="middle" x="480.62" y="-6.5" font-family="Helvetica,sans-Serif" font-size="10.00">RTOS::TickCounter::getTickPeriodMs</text>
</a>
</g>
</g>
<!-- Node7&#45;&gt;Node8 -->
<g id="edge7_Node000007_Node000008" class="edge">
<title>Node7&#45;&gt;Node8</title>
<g id="a_edge7_Node000007_Node000008"><a xlink:title=" ">
<path fill="none" stroke="#63b8ff" d="M342,-10C353.74,-10 366.04,-10 378.23,-10"/>
<polygon fill="#63b8ff" stroke="#63b8ff" points="377.88,-13.5 387.88,-10 377.88,-6.5 377.88,-13.5"/>
</a>
</g>
</g>
</g>
</svg>
