<?xml version="1.0" encoding="UTF-8" standalone="no"?>
<!DOCTYPE svg PUBLIC "-//W3C//DTD SVG 1.1//EN"
 "http://www.w3.org/Graphics/SVG/1.1/DTD/svg11.dtd">
<!-- Generated by graphviz version 13.1.0 (20250701.0955)
 -->
<!-- Title: RTOS::Timeout::fromMilliseconds Pages: 1 -->
<svg width="582pt" height="66pt"
 viewBox="0.00 0.00 582.00 66.00" xmlns="http://www.w3.org/2000/svg" xmlns:xlink="http://www.w3.org/1999/xlink">
<g id="graph0" class="graph" transform="scale(1 1) rotate(0) translate(4 62)">
<title>RTOS::Timeout::fromMilliseconds</title>
<!-- Node1 -->
<g id="Node000001" class="node">
<title>Node1</title>
<g id="a_Node000001"><a xlink:title="Create Timeout from milliseconds.">
<polygon fill="#999999" stroke="#666666" points="163.75,-39 0,-39 0,-19 163.75,-19 163.75,-39"/>
<text xml:space="preserve" text-anchor="middle" x="81.88" y="-25.5" font-family="Helvetica,sans-Serif" font-size="10.00">RTOS::Timeout::fromMilliseconds</text>
</a>
</g>
</g>
<!-- Node2 -->
<g id="Node000002" class="node">
<title>Node2</title>
<g id="a_Node000002"><a xlink:href="../../dc/d33/class_r_t_o_s_1_1_timeout.html#a3f92605e733513d2d484f1e56732616f" target="_top" xlink:title="Constructor of Timeout class.">
<polygon fill="white" stroke="#666666" points="340.62,-58 215.12,-58 215.12,-38 340.62,-38 340.62,-58"/>
<text xml:space="preserve" text-anchor="middle" x="277.88" y="-44.5" font-family="Helvetica,sans-Serif" font-size="10.00">RTOS::Timeout::Timeout</text>
</a>
</g>
</g>
<!-- Node1&#45;&gt;Node2 -->
<g id="edge1_Node000001_Node000002" class="edge">
<title>Node1&#45;&gt;Node2</title>
<g id="a_edge1_Node000001_Node000002"><a xlink:title=" ">
<path fill="none" stroke="#63b8ff" d="M164.02,-36.95C177.11,-38.23 190.6,-39.55 203.49,-40.81"/>
<polygon fill="#63b8ff" stroke="#63b8ff" points="202.85,-44.27 213.14,-41.76 203.53,-37.3 202.85,-44.27"/>
</a>
</g>
</g>
<!-- Node3 -->
<g id="Node000003" class="node">
<title>Node3</title>
<g id="a_Node000003"><a xlink:href="../../da/d2c/class_r_t_o_s_1_1_tick_counter.html#ac0cef5f74597d9fd2e71b9eed937365d" target="_top" xlink:title="Convert milliseconds to ticks.">
<polygon fill="white" stroke="#666666" points="356,-20 199.75,-20 199.75,0 356,0 356,-20"/>
<text xml:space="preserve" text-anchor="middle" x="277.88" y="-6.5" font-family="Helvetica,sans-Serif" font-size="10.00">RTOS::TickCounter::msToTicks</text>
</a>
</g>
</g>
<!-- Node1&#45;&gt;Node3 -->
<g id="edge2_Node000001_Node000003" class="edge">
<title>Node1&#45;&gt;Node3</title>
<g id="a_edge2_Node000001_Node000003"><a xlink:title=" ">
<path fill="none" stroke="#63b8ff" d="M164.02,-21.05C172,-20.27 180.12,-19.48 188.17,-18.69"/>
<polygon fill="#63b8ff" stroke="#63b8ff" points="188.35,-22.19 197.96,-17.73 187.67,-15.22 188.35,-22.19"/>
</a>
</g>
</g>
<!-- Node4 -->
<g id="Node000004" class="node">
<title>Node4</title>
<g id="a_Node000004"><a xlink:href="../../da/d2c/class_r_t_o_s_1_1_tick_counter.html#aa4f09aa2584d95ea6f0d171179c54b24" target="_top" xlink:title="Get tick period in milliseconds.">
<polygon fill="white" stroke="#666666" points="573.75,-20 392,-20 392,0 573.75,0 573.75,-20"/>
<text xml:space="preserve" text-anchor="middle" x="482.88" y="-6.5" font-family="Helvetica,sans-Serif" font-size="10.00">RTOS::TickCounter::getTickPeriodMs</text>
</a>
</g>
</g>
<!-- Node3&#45;&gt;Node4 -->
<g id="edge3_Node000003_Node000004" class="edge">
<title>Node3&#45;&gt;Node4</title>
<g id="a_edge3_Node000003_Node000004"><a xlink:title=" ">
<path fill="none" stroke="#63b8ff" d="M356.49,-10C364.33,-10 372.36,-10 380.4,-10"/>
<polygon fill="#63b8ff" stroke="#63b8ff" points="380.23,-13.5 390.23,-10 380.23,-6.5 380.23,-13.5"/>
</a>
</g>
</g>
</g>
</svg>
