<?xml version="1.0" encoding="UTF-8" standalone="no"?>
<!DOCTYPE svg PUBLIC "-//W3C//DTD SVG 1.1//EN"
 "http://www.w3.org/Graphics/SVG/1.1/DTD/svg11.dtd">
<!-- Generated by graphviz version 13.1.0 (20250701.0955)
 -->
<!-- Title: RTOS::Timeout::operator!= Pages: 1 -->
<svg width="995pt" height="85pt"
 viewBox="0.00 0.00 995.00 85.00" xmlns="http://www.w3.org/2000/svg" xmlns:xlink="http://www.w3.org/1999/xlink">
<g id="graph0" class="graph" transform="scale(1 1) rotate(0) translate(4 81)">
<title>RTOS::Timeout::operator!=</title>
<!-- Node1 -->
<g id="Node000001" class="node">
<title>Node1</title>
<g id="a_Node000001"><a xlink:title="Inequality operator of Timeout class.">
<polygon fill="#999999" stroke="#666666" points="134.5,-39 0,-39 0,-19 134.5,-19 134.5,-39"/>
<text xml:space="preserve" text-anchor="middle" x="67.25" y="-25.5" font-family="Helvetica,sans-Serif" font-size="10.00">RTOS::Timeout::operator!=</text>
</a>
</g>
</g>
<!-- Node2 -->
<g id="Node000002" class="node">
<title>Node2</title>
<g id="a_Node000002"><a xlink:href="../../dc/d33/class_r_t_o_s_1_1_timeout.html#a0323d632712ac0fe685a1109c9b60c1a" target="_top" xlink:title="Check if timeout has expired.">
<polygon fill="white" stroke="#666666" points="301.25,-39 170.5,-39 170.5,-19 301.25,-19 301.25,-39"/>
<text xml:space="preserve" text-anchor="middle" x="235.88" y="-25.5" font-family="Helvetica,sans-Serif" font-size="10.00">RTOS::Timeout::isExpired</text>
</a>
</g>
</g>
<!-- Node1&#45;&gt;Node2 -->
<g id="edge1_Node000001_Node000002" class="edge">
<title>Node1&#45;&gt;Node2</title>
<g id="a_edge1_Node000001_Node000002"><a xlink:title=" ">
<path fill="none" stroke="#63b8ff" d="M134.58,-29C142.54,-29 150.71,-29 158.8,-29"/>
<polygon fill="#63b8ff" stroke="#63b8ff" points="158.61,-32.5 168.61,-29 158.61,-25.5 158.61,-32.5"/>
</a>
</g>
</g>
<!-- Node3 -->
<g id="Node000003" class="node">
<title>Node3</title>
<g id="a_Node000003"><a xlink:href="../../da/d2c/class_r_t_o_s_1_1_tick_counter.html#a29654984a0cf81674d5a17fcc63d7df3" target="_top" xlink:title="Check if a timeout (in ticks) has occurred since a given tick count.">
<polygon fill="white" stroke="#666666" points="528,-58 337.25,-58 337.25,-38 528,-38 528,-58"/>
<text xml:space="preserve" text-anchor="middle" x="432.62" y="-44.5" font-family="Helvetica,sans-Serif" font-size="10.00">RTOS::TickCounter::hasTimedOutTicks</text>
</a>
</g>
</g>
<!-- Node2&#45;&gt;Node3 -->
<g id="edge2_Node000002_Node000003" class="edge">
<title>Node2&#45;&gt;Node3</title>
<g id="a_edge2_Node000002_Node000003"><a xlink:title=" ">
<path fill="none" stroke="#63b8ff" d="M301.72,-35.33C309.4,-36.08 317.37,-36.85 325.43,-37.64"/>
<polygon fill="#63b8ff" stroke="#63b8ff" points="325.05,-41.12 335.34,-38.61 325.73,-34.15 325.05,-41.12"/>
</a>
</g>
</g>
<!-- Node7 -->
<g id="Node000007" class="node">
<title>Node7</title>
<g id="a_Node000007"><a xlink:href="../../dc/d33/class_r_t_o_s_1_1_timeout.html#a1c0d42cfc8bef1eddfab7ea49848e88b" target="_top" xlink:title="Check if timeout is disabled.">
<polygon fill="white" stroke="#666666" points="500.62,-20 364.62,-20 364.62,0 500.62,0 500.62,-20"/>
<text xml:space="preserve" text-anchor="middle" x="432.62" y="-6.5" font-family="Helvetica,sans-Serif" font-size="10.00">RTOS::Timeout::isDisabled</text>
</a>
</g>
</g>
<!-- Node2&#45;&gt;Node7 -->
<g id="edge6_Node000002_Node000007" class="edge">
<title>Node2&#45;&gt;Node7</title>
<g id="a_edge6_Node000002_Node000007"><a xlink:title=" ">
<path fill="none" stroke="#63b8ff" d="M301.72,-22.67C318.24,-21.06 336.17,-19.31 353.29,-17.64"/>
<polygon fill="#63b8ff" stroke="#63b8ff" points="353.28,-21.16 362.89,-16.71 352.6,-14.19 353.28,-21.16"/>
</a>
</g>
</g>
<!-- Node4 -->
<g id="Node000004" class="node">
<title>Node4</title>
<g id="a_Node000004"><a xlink:href="../../da/d2c/class_r_t_o_s_1_1_tick_counter.html#ad6915fe87c8e6127f5357b1a5eeb12e2" target="_top" xlink:title="Get elapsed ticks since a given tick count.">
<polygon fill="white" stroke="#666666" points="769.75,-58 564,-58 564,-38 769.75,-38 769.75,-58"/>
<text xml:space="preserve" text-anchor="middle" x="666.88" y="-44.5" font-family="Helvetica,sans-Serif" font-size="10.00">RTOS::TickCounter::getElapsedTicksSince</text>
</a>
</g>
</g>
<!-- Node3&#45;&gt;Node4 -->
<g id="edge3_Node000003_Node000004" class="edge">
<title>Node3&#45;&gt;Node4</title>
<g id="a_edge3_Node000003_Node000004"><a xlink:title=" ">
<path fill="none" stroke="#63b8ff" d="M528.42,-48C536.35,-48 544.42,-48 552.47,-48"/>
<polygon fill="#63b8ff" stroke="#63b8ff" points="552.31,-51.5 562.31,-48 552.31,-44.5 552.31,-51.5"/>
</a>
</g>
</g>
<!-- Node5 -->
<g id="Node000005" class="node">
<title>Node5</title>
<g id="a_Node000005"><a xlink:href="../../da/d2c/class_r_t_o_s_1_1_tick_counter.html#a0fe8362c851a572e236d8c4978c0677a" target="_top" xlink:title="Get current tick count.">
<polygon fill="white" stroke="#666666" points="957.12,-77 835.38,-77 835.38,-57 957.12,-57 957.12,-77"/>
<text xml:space="preserve" text-anchor="middle" x="896.25" y="-63.5" font-family="Helvetica,sans-Serif" font-size="10.00">RTOS::TickCounter::get</text>
</a>
</g>
</g>
<!-- Node4&#45;&gt;Node5 -->
<g id="edge4_Node000004_Node000005" class="edge">
<title>Node4&#45;&gt;Node5</title>
<g id="a_edge4_Node000004_Node000005"><a xlink:title=" ">
<path fill="none" stroke="#63b8ff" d="M769.92,-56.53C788.23,-58.06 806.94,-59.62 824.13,-61.06"/>
<polygon fill="#63b8ff" stroke="#63b8ff" points="823.42,-64.51 833.68,-61.86 824.01,-57.53 823.42,-64.51"/>
</a>
</g>
</g>
<!-- Node6 -->
<g id="Node000006" class="node">
<title>Node6</title>
<g id="a_Node000006"><a xlink:href="../../da/d2c/class_r_t_o_s_1_1_tick_counter.html#a0260ddc7279e91581fa509a6e945609e" target="_top" xlink:title="Get elapsed ticks between two tick counts.">
<polygon fill="white" stroke="#666666" points="986.75,-39 805.75,-39 805.75,-19 986.75,-19 986.75,-39"/>
<text xml:space="preserve" text-anchor="middle" x="896.25" y="-25.5" font-family="Helvetica,sans-Serif" font-size="10.00">RTOS::TickCounter::getElapsedTicks</text>
</a>
</g>
</g>
<!-- Node4&#45;&gt;Node6 -->
<g id="edge5_Node000004_Node000006" class="edge">
<title>Node4&#45;&gt;Node6</title>
<g id="a_edge5_Node000004_Node000006"><a xlink:title=" ">
<path fill="none" stroke="#63b8ff" d="M769.92,-39.47C777.95,-38.8 786.05,-38.13 794.07,-37.45"/>
<polygon fill="#63b8ff" stroke="#63b8ff" points="794.15,-40.96 803.82,-36.64 793.57,-33.98 794.15,-40.96"/>
</a>
</g>
</g>
</g>
</svg>
