<?xml version="1.0" encoding="UTF-8" standalone="no"?>
<!DOCTYPE svg PUBLIC "-//W3C//DTD SVG 1.1//EN"
 "http://www.w3.org/Graphics/SVG/1.1/DTD/svg11.dtd">
<!-- Generated by graphviz version 13.1.0 (20250701.0955)
 -->
<!-- Title: RTOS::Timeout::isDisabled Pages: 1 -->
<svg width="808pt" height="464pt"
 viewBox="0.00 0.00 808.00 464.00" xmlns="http://www.w3.org/2000/svg" xmlns:xlink="http://www.w3.org/1999/xlink">
<g id="graph0" class="graph" transform="scale(1 1) rotate(0) translate(4 460)">
<title>RTOS::Timeout::isDisabled</title>
<!-- Node1 -->
<g id="Node000001" class="node">
<title>Node1</title>
<g id="a_Node000001"><a xlink:title="Check if timeout is disabled.">
<polygon fill="#999999" stroke="#666666" points="799.75,-247 663.75,-247 663.75,-227 799.75,-227 799.75,-247"/>
<text xml:space="preserve" text-anchor="middle" x="731.75" y="-233.5" font-family="Helvetica,sans-Serif" font-size="10.00">RTOS::Timeout::isDisabled</text>
</a>
</g>
</g>
<!-- Node2 -->
<g id="Node000002" class="node">
<title>Node2</title>
<g id="a_Node000002"><a xlink:href="../../dc/d33/class_r_t_o_s_1_1_timeout.html#af5dab82accf6b7348ddfe085c20e20c4" target="_top" xlink:title="Extend timeout by specified ticks.">
<polygon fill="white" stroke="#666666" points="609.38,-456 489.88,-456 489.88,-436 609.38,-436 609.38,-456"/>
<text xml:space="preserve" text-anchor="middle" x="549.62" y="-442.5" font-family="Helvetica,sans-Serif" font-size="10.00">RTOS::Timeout::extend</text>
</a>
</g>
</g>
<!-- Node1&#45;&gt;Node2 -->
<g id="edge1_Node000001_Node000002" class="edge">
<title>Node1&#45;&gt;Node2</title>
<g id="a_edge1_Node000001_Node000002"><a xlink:title=" ">
<path fill="none" stroke="#63b8ff" d="M725.45,-258.05C714.38,-297.56 684.94,-382.82 627.75,-427 622.4,-431.13 616.28,-434.38 609.87,-436.92"/>
<polygon fill="#63b8ff" stroke="#63b8ff" points="728.77,-259.17 727.97,-248.61 722.01,-257.37 728.77,-259.17"/>
</a>
</g>
</g>
<!-- Node4 -->
<g id="Node000004" class="node">
<title>Node4</title>
<g id="a_Node000004"><a xlink:href="../../dc/d33/class_r_t_o_s_1_1_timeout.html#a7d284ed1a91d568f176eb93a816e2b13" target="_top" xlink:title="Get elapsed time in ticks since timeout started.">
<polygon fill="white" stroke="#666666" points="619.12,-418 480.12,-418 480.12,-398 619.12,-398 619.12,-418"/>
<text xml:space="preserve" text-anchor="middle" x="549.62" y="-404.5" font-family="Helvetica,sans-Serif" font-size="10.00">RTOS::Timeout::getElapsed</text>
</a>
</g>
</g>
<!-- Node1&#45;&gt;Node4 -->
<g id="edge3_Node000001_Node000004" class="edge">
<title>Node1&#45;&gt;Node4</title>
<g id="a_edge3_Node000001_Node000004"><a xlink:title=" ">
<path fill="none" stroke="#63b8ff" d="M721.75,-257.6C706.82,-289.39 673.93,-350.29 627.75,-384 619.82,-389.79 610.46,-394.21 601.05,-397.57"/>
<polygon fill="#63b8ff" stroke="#63b8ff" points="724.85,-259.23 725.8,-248.68 718.48,-256.33 724.85,-259.23"/>
</a>
</g>
</g>
<!-- Node6 -->
<g id="Node000006" class="node">
<title>Node6</title>
<g id="a_Node000006"><a xlink:href="../../dc/d33/class_r_t_o_s_1_1_timeout.html#ad0cc9f6cd4a3ebd568027e5dc23433d9" target="_top" xlink:title="Get progress percentage of timeout.">
<polygon fill="white" stroke="#666666" points="410.75,-380 234.25,-380 234.25,-360 410.75,-360 410.75,-380"/>
<text xml:space="preserve" text-anchor="middle" x="322.5" y="-366.5" font-family="Helvetica,sans-Serif" font-size="10.00">RTOS::Timeout::getProgressPercent</text>
</a>
</g>
</g>
<!-- Node1&#45;&gt;Node6 -->
<g id="edge6_Node000001_Node000006" class="edge">
<title>Node1&#45;&gt;Node6</title>
<g id="a_edge6_Node000001_Node000006"><a xlink:title=" ">
<path fill="none" stroke="#63b8ff" d="M719.43,-257.17C703.11,-284.03 670.2,-330.54 627.75,-351 555.52,-385.82 462.23,-386.08 398.1,-380.49"/>
<polygon fill="#63b8ff" stroke="#63b8ff" points="722.41,-259 724.45,-248.61 716.37,-255.46 722.41,-259"/>
</a>
</g>
</g>
<!-- Node7 -->
<g id="Node000007" class="node">
<title>Node7</title>
<g id="a_Node000007"><a xlink:href="../../dc/d33/class_r_t_o_s_1_1_timeout.html#a7c9970080cf34f6199d970b3bd64447f" target="_top" xlink:title="Get remaining time in ticks.">
<polygon fill="white" stroke="#666666" points="624.75,-342 474.5,-342 474.5,-322 624.75,-322 624.75,-342"/>
<text xml:space="preserve" text-anchor="middle" x="549.62" y="-328.5" font-family="Helvetica,sans-Serif" font-size="10.00">RTOS::Timeout::getRemaining</text>
</a>
</g>
</g>
<!-- Node1&#45;&gt;Node7 -->
<g id="edge7_Node000001_Node000007" class="edge">
<title>Node1&#45;&gt;Node7</title>
<g id="a_edge7_Node000001_Node000007"><a xlink:title=" ">
<path fill="none" stroke="#63b8ff" d="M709.65,-254.39C689.62,-270.19 658.13,-293.23 627.75,-308 616.65,-313.4 604.07,-317.92 592.34,-321.53"/>
<polygon fill="#63b8ff" stroke="#63b8ff" points="711.72,-257.22 717.33,-248.23 707.34,-251.76 711.72,-257.22"/>
</a>
</g>
</g>
<!-- Node9 -->
<g id="Node000009" class="node">
<title>Node9</title>
<g id="a_Node000009"><a xlink:href="../../dc/d33/class_r_t_o_s_1_1_timeout.html#a5f6d717f1c112c27c17e6cdac1770c2a" target="_top" xlink:title="Check if timeout will expire within specified ticks.">
<polygon fill="white" stroke="#666666" points="402.5,-304 242.5,-304 242.5,-284 402.5,-284 402.5,-304"/>
<text xml:space="preserve" text-anchor="middle" x="322.5" y="-290.5" font-family="Helvetica,sans-Serif" font-size="10.00">RTOS::Timeout::willExpireWithin</text>
</a>
</g>
</g>
<!-- Node1&#45;&gt;Node9 -->
<g id="edge25_Node000001_Node000009" class="edge">
<title>Node1&#45;&gt;Node9</title>
<g id="a_edge25_Node000001_Node000009"><a xlink:title=" ">
<path fill="none" stroke="#63b8ff" d="M698.05,-251.85C678.15,-260.18 651.98,-269.89 627.75,-275 552.53,-290.87 464.72,-294.85 402.83,-295.32"/>
<polygon fill="#63b8ff" stroke="#63b8ff" points="699.2,-255.16 707.01,-248 696.44,-248.73 699.2,-255.16"/>
</a>
</g>
</g>
<!-- Node11 -->
<g id="Node000011" class="node">
<title>Node11</title>
<g id="a_Node000011"><a xlink:href="../../dc/d33/class_r_t_o_s_1_1_timeout.html#aa0ebf694a210769282fe7a40c0578dce" target="_top" xlink:title="Check if timeout is active.">
<polygon fill="white" stroke="#666666" points="612.38,-266 486.88,-266 486.88,-246 612.38,-246 612.38,-266"/>
<text xml:space="preserve" text-anchor="middle" x="549.62" y="-252.5" font-family="Helvetica,sans-Serif" font-size="10.00">RTOS::Timeout::isActive</text>
</a>
</g>
</g>
<!-- Node1&#45;&gt;Node11 -->
<g id="edge11_Node000001_Node000011" class="edge">
<title>Node1&#45;&gt;Node11</title>
<g id="a_edge11_Node000001_Node000011"><a xlink:title=" ">
<path fill="none" stroke="#63b8ff" d="M652.01,-245.31C638.89,-246.69 625.45,-248.11 612.81,-249.44"/>
<polygon fill="#63b8ff" stroke="#63b8ff" points="652.34,-248.79 661.92,-244.26 651.6,-241.83 652.34,-248.79"/>
</a>
</g>
</g>
<!-- Node13 -->
<g id="Node000013" class="node">
<title>Node13</title>
<g id="a_Node000013"><a xlink:href="../../dc/d33/class_r_t_o_s_1_1_timeout.html#a0323d632712ac0fe685a1109c9b60c1a" target="_top" xlink:title="Check if timeout has expired.">
<polygon fill="white" stroke="#666666" points="615,-228 484.25,-228 484.25,-208 615,-208 615,-228"/>
<text xml:space="preserve" text-anchor="middle" x="549.62" y="-214.5" font-family="Helvetica,sans-Serif" font-size="10.00">RTOS::Timeout::isExpired</text>
</a>
</g>
</g>
<!-- Node1&#45;&gt;Node13 -->
<g id="edge13_Node000001_Node000013" class="edge">
<title>Node1&#45;&gt;Node13</title>
<g id="a_edge13_Node000001_Node000013"><a xlink:title=" ">
<path fill="none" stroke="#63b8ff" d="M652.26,-228.72C639.98,-227.43 627.41,-226.1 615.48,-224.84"/>
<polygon fill="#63b8ff" stroke="#63b8ff" points="651.6,-232.17 661.92,-229.74 652.34,-225.21 651.6,-232.17"/>
</a>
</g>
</g>
<!-- Node19 -->
<g id="Node000019" class="node">
<title>Node19</title>
<g id="a_Node000019"><a xlink:href="../../dc/d33/class_r_t_o_s_1_1_timeout.html#a679c487c10ae4f10573239618915d341" target="_top" xlink:title="Addition assignment operator of Timeout class.">
<polygon fill="white" stroke="#666666" points="618.38,-190 480.88,-190 480.88,-170 618.38,-170 618.38,-190"/>
<text xml:space="preserve" text-anchor="middle" x="549.62" y="-176.5" font-family="Helvetica,sans-Serif" font-size="10.00">RTOS::Timeout::operator+=</text>
</a>
</g>
</g>
<!-- Node1&#45;&gt;Node19 -->
<g id="edge19_Node000001_Node000019" class="edge">
<title>Node1&#45;&gt;Node19</title>
<g id="a_edge19_Node000001_Node000019"><a xlink:title=" ">
<path fill="none" stroke="#63b8ff" d="M694.6,-222.54C675,-214.98 650.25,-205.9 627.75,-199 617.73,-195.93 606.86,-193.01 596.53,-190.41"/>
<polygon fill="#63b8ff" stroke="#63b8ff" points="693.2,-225.75 703.79,-226.12 695.74,-219.22 693.2,-225.75"/>
</a>
</g>
</g>
<!-- Node20 -->
<g id="Node000020" class="node">
<title>Node20</title>
<g id="a_Node000020"><a xlink:href="../../dc/d33/class_r_t_o_s_1_1_timeout.html#a0ae2a0f3a1489c7517ad0ff460843755" target="_top" xlink:title="Subtraction assignment operator of Timeout class.">
<polygon fill="white" stroke="#666666" points="616.88,-152 482.38,-152 482.38,-132 616.88,-132 616.88,-152"/>
<text xml:space="preserve" text-anchor="middle" x="549.62" y="-138.5" font-family="Helvetica,sans-Serif" font-size="10.00">RTOS::Timeout::operator&#45;=</text>
</a>
</g>
</g>
<!-- Node1&#45;&gt;Node20 -->
<g id="edge20_Node000001_Node000020" class="edge">
<title>Node1&#45;&gt;Node20</title>
<g id="a_edge20_Node000001_Node000020"><a xlink:title=" ">
<path fill="none" stroke="#63b8ff" d="M711.63,-219.23C692.01,-201.92 659.88,-176.07 627.75,-161 620.51,-157.6 612.59,-154.77 604.67,-152.42"/>
<polygon fill="#63b8ff" stroke="#63b8ff" points="709.07,-221.63 718.84,-225.72 713.75,-216.43 709.07,-221.63"/>
</a>
</g>
</g>
<!-- Node21 -->
<g id="Node000021" class="node">
<title>Node21</title>
<g id="a_Node000021"><a xlink:href="../../dc/d33/class_r_t_o_s_1_1_timeout.html#a09aec4ad865ca9b9275f8e0060f93314" target="_top" xlink:title="Reset the timeout to start from current tick.">
<polygon fill="white" stroke="#666666" points="605.62,-114 493.62,-114 493.62,-94 605.62,-94 605.62,-114"/>
<text xml:space="preserve" text-anchor="middle" x="549.62" y="-100.5" font-family="Helvetica,sans-Serif" font-size="10.00">RTOS::Timeout::reset</text>
</a>
</g>
</g>
<!-- Node1&#45;&gt;Node21 -->
<g id="edge21_Node000001_Node000021" class="edge">
<title>Node1&#45;&gt;Node21</title>
<g id="a_edge21_Node000001_Node000021"><a xlink:title=" ">
<path fill="none" stroke="#63b8ff" d="M718.34,-217.13C701.2,-191.38 667.79,-146.94 627.75,-123 621,-118.97 613.44,-115.79 605.75,-113.28"/>
<polygon fill="#63b8ff" stroke="#63b8ff" points="715.29,-218.85 723.66,-225.34 721.16,-215.05 715.29,-218.85"/>
</a>
</g>
</g>
<!-- Node22 -->
<g id="Node000022" class="node">
<title>Node22</title>
<g id="a_Node000022"><a xlink:href="../../d3/de9/class_r_t_o_s_1_1_semaphore.html#addf0c91575ab2e1f42ea68401dfe6f99" target="_top" xlink:title="Takes the semaphore with a Timeout object.">
<polygon fill="white" stroke="#666666" points="611.25,-58 488,-58 488,-38 611.25,-38 611.25,-58"/>
<text xml:space="preserve" text-anchor="middle" x="549.62" y="-44.5" font-family="Helvetica,sans-Serif" font-size="10.00">RTOS::Semaphore::take</text>
</a>
</g>
</g>
<!-- Node1&#45;&gt;Node22 -->
<g id="edge22_Node000001_Node000022" class="edge">
<title>Node1&#45;&gt;Node22</title>
<g id="a_edge22_Node000001_Node000022"><a xlink:title=" ">
<path fill="none" stroke="#63b8ff" d="M721.3,-216.5C705.76,-184.7 672.05,-123.18 627.75,-85 614.25,-73.37 596.46,-64.51 581.37,-58.38"/>
<polygon fill="#63b8ff" stroke="#63b8ff" points="718.08,-217.88 725.54,-225.41 724.4,-214.88 718.08,-217.88"/>
</a>
</g>
</g>
<!-- Node23 -->
<g id="Node000023" class="node">
<title>Node23</title>
<g id="a_Node000023"><a xlink:href="../../db/ddd/class_r_t_o_s_1_1_event_group.html#ae25661dbfd091cd987cac1057a565bfe" target="_top" xlink:title="Waits for specified bits with a Timeout object.">
<polygon fill="white" stroke="#666666" points="627.75,-20 471.5,-20 471.5,0 627.75,0 627.75,-20"/>
<text xml:space="preserve" text-anchor="middle" x="549.62" y="-6.5" font-family="Helvetica,sans-Serif" font-size="10.00">RTOS::EventGroup::waitForBits</text>
</a>
</g>
</g>
<!-- Node1&#45;&gt;Node23 -->
<g id="edge24_Node000001_Node000023" class="edge">
<title>Node1&#45;&gt;Node23</title>
<g id="a_edge24_Node000001_Node000023"><a xlink:title=" ">
<path fill="none" stroke="#63b8ff" d="M726.47,-215.75C716.79,-173.38 689.12,-78.25 627.75,-29 623.45,-25.55 618.61,-22.71 613.5,-20.38"/>
<polygon fill="#63b8ff" stroke="#63b8ff" points="723.02,-216.36 728.55,-225.4 729.86,-214.88 723.02,-216.36"/>
</a>
</g>
</g>
<!-- Node3 -->
<g id="Node000003" class="node">
<title>Node3</title>
<g id="a_Node000003"><a xlink:href="../../dc/d33/class_r_t_o_s_1_1_timeout.html#ad964cb7ef28b873abf941e8ff655bf3b" target="_top" xlink:title="Extend timeout by specified milliseconds.">
<polygon fill="white" stroke="#666666" points="389,-456 256,-456 256,-436 389,-436 389,-456"/>
<text xml:space="preserve" text-anchor="middle" x="322.5" y="-442.5" font-family="Helvetica,sans-Serif" font-size="10.00">RTOS::Timeout::extendMs</text>
</a>
</g>
</g>
<!-- Node2&#45;&gt;Node3 -->
<g id="edge2_Node000002_Node000003" class="edge">
<title>Node2&#45;&gt;Node3</title>
<g id="a_edge2_Node000002_Node000003"><a xlink:title=" ">
<path fill="none" stroke="#63b8ff" d="M478.03,-446C449.7,-446 417.23,-446 389.39,-446"/>
<polygon fill="#63b8ff" stroke="#63b8ff" points="477.96,-449.5 487.96,-446 477.96,-442.5 477.96,-449.5"/>
</a>
</g>
</g>
<!-- Node5 -->
<g id="Node000005" class="node">
<title>Node5</title>
<g id="a_Node000005"><a xlink:href="../../dc/d33/class_r_t_o_s_1_1_timeout.html#aad0f7b2562a1db21d6b9889adaad0407" target="_top" xlink:title="Get elapsed time in milliseconds since timeout started.">
<polygon fill="white" stroke="#666666" points="398.75,-418 246.25,-418 246.25,-398 398.75,-398 398.75,-418"/>
<text xml:space="preserve" text-anchor="middle" x="322.5" y="-404.5" font-family="Helvetica,sans-Serif" font-size="10.00">RTOS::Timeout::getElapsedMs</text>
</a>
</g>
</g>
<!-- Node4&#45;&gt;Node5 -->
<g id="edge4_Node000004_Node000005" class="edge">
<title>Node4&#45;&gt;Node5</title>
<g id="a_edge4_Node000004_Node000005"><a xlink:title=" ">
<path fill="none" stroke="#63b8ff" d="M468.55,-408C445.88,-408 421.29,-408 398.9,-408"/>
<polygon fill="#63b8ff" stroke="#63b8ff" points="468.34,-411.5 478.34,-408 468.34,-404.5 468.34,-411.5"/>
</a>
</g>
</g>
<!-- Node4&#45;&gt;Node6 -->
<g id="edge5_Node000004_Node000006" class="edge">
<title>Node4&#45;&gt;Node6</title>
<g id="a_edge5_Node000004_Node000006"><a xlink:title=" ">
<path fill="none" stroke="#63b8ff" d="M475.19,-395.6C446.17,-390.71 413.19,-385.14 385.41,-380.45"/>
<polygon fill="#63b8ff" stroke="#63b8ff" points="474.58,-399.05 485.02,-397.26 475.74,-392.15 474.58,-399.05"/>
</a>
</g>
</g>
<!-- Node8 -->
<g id="Node000008" class="node">
<title>Node8</title>
<g id="a_Node000008"><a xlink:href="../../dc/d33/class_r_t_o_s_1_1_timeout.html#aa0d343779f312d14ba3af6c2c8c11a59" target="_top" xlink:title="Get remaining time in milliseconds.">
<polygon fill="white" stroke="#666666" points="404.38,-342 240.62,-342 240.62,-322 404.38,-322 404.38,-342"/>
<text xml:space="preserve" text-anchor="middle" x="322.5" y="-328.5" font-family="Helvetica,sans-Serif" font-size="10.00">RTOS::Timeout::getRemainingMs</text>
</a>
</g>
</g>
<!-- Node7&#45;&gt;Node8 -->
<g id="edge8_Node000007_Node000008" class="edge">
<title>Node7&#45;&gt;Node8</title>
<g id="a_edge8_Node000007_Node000008"><a xlink:title=" ">
<path fill="none" stroke="#63b8ff" d="M462.88,-332C443.81,-332 423.63,-332 404.74,-332"/>
<polygon fill="#63b8ff" stroke="#63b8ff" points="462.77,-335.5 472.77,-332 462.77,-328.5 462.77,-335.5"/>
</a>
</g>
</g>
<!-- Node7&#45;&gt;Node9 -->
<g id="edge9_Node000007_Node000009" class="edge">
<title>Node7&#45;&gt;Node9</title>
<g id="a_edge9_Node000007_Node000009"><a xlink:title=" ">
<path fill="none" stroke="#63b8ff" d="M475.19,-319.6C446.17,-314.71 413.19,-309.14 385.41,-304.45"/>
<polygon fill="#63b8ff" stroke="#63b8ff" points="474.58,-323.05 485.02,-321.26 475.74,-316.15 474.58,-323.05"/>
</a>
</g>
</g>
<!-- Node10 -->
<g id="Node000010" class="node">
<title>Node10</title>
<g id="a_Node000010"><a xlink:href="../../dc/d33/class_r_t_o_s_1_1_timeout.html#a9e227af5491b90346a72de5bef9a159d" target="_top" xlink:title="Check if timeout will expire within specified milliseconds.">
<polygon fill="white" stroke="#666666" points="173.5,-304 0,-304 0,-284 173.5,-284 173.5,-304"/>
<text xml:space="preserve" text-anchor="middle" x="86.75" y="-290.5" font-family="Helvetica,sans-Serif" font-size="10.00">RTOS::Timeout::willExpireWithinMs</text>
</a>
</g>
</g>
<!-- Node9&#45;&gt;Node10 -->
<g id="edge10_Node000009_Node000010" class="edge">
<title>Node9&#45;&gt;Node10</title>
<g id="a_edge10_Node000009_Node000010"><a xlink:title=" ">
<path fill="none" stroke="#63b8ff" d="M230.55,-294C211.88,-294 192.29,-294 173.8,-294"/>
<polygon fill="#63b8ff" stroke="#63b8ff" points="230.52,-297.5 240.52,-294 230.52,-290.5 230.52,-297.5"/>
</a>
</g>
</g>
<!-- Node12 -->
<g id="Node000012" class="node">
<title>Node12</title>
<g id="a_Node000012"><a xlink:href="../../dc/d33/class_r_t_o_s_1_1_timeout.html#a91278feb2a2991bfdf95d6a849f46919" target="_top" xlink:title="Explicit conversion operator to bool.">
<polygon fill="white" stroke="#666666" points="395.75,-266 249.25,-266 249.25,-246 395.75,-246 395.75,-266"/>
<text xml:space="preserve" text-anchor="middle" x="322.5" y="-252.5" font-family="Helvetica,sans-Serif" font-size="10.00">RTOS::Timeout::operator bool</text>
</a>
</g>
</g>
<!-- Node11&#45;&gt;Node12 -->
<g id="edge12_Node000011_Node000012" class="edge">
<title>Node11&#45;&gt;Node12</title>
<g id="a_edge12_Node000011_Node000012"><a xlink:title=" ">
<path fill="none" stroke="#63b8ff" d="M475.11,-256C449.78,-256 421.44,-256 396.17,-256"/>
<polygon fill="#63b8ff" stroke="#63b8ff" points="475,-259.5 485,-256 475,-252.5 475,-259.5"/>
</a>
</g>
</g>
<!-- Node14 -->
<g id="Node000014" class="node">
<title>Node14</title>
<g id="a_Node000014"><a xlink:href="../../dc/d33/class_r_t_o_s_1_1_timeout.html#a11a9f02a546f98502dce9d30a4d8562f" target="_top" xlink:title="Inequality operator of Timeout class.">
<polygon fill="white" stroke="#666666" points="389.75,-228 255.25,-228 255.25,-208 389.75,-208 389.75,-228"/>
<text xml:space="preserve" text-anchor="middle" x="322.5" y="-214.5" font-family="Helvetica,sans-Serif" font-size="10.00">RTOS::Timeout::operator!=</text>
</a>
</g>
</g>
<!-- Node13&#45;&gt;Node14 -->
<g id="edge14_Node000013_Node000014" class="edge">
<title>Node13&#45;&gt;Node14</title>
<g id="a_edge14_Node000013_Node000014"><a xlink:title=" ">
<path fill="none" stroke="#63b8ff" d="M472.57,-218C445.87,-218 416.08,-218 390.2,-218"/>
<polygon fill="#63b8ff" stroke="#63b8ff" points="472.3,-221.5 482.3,-218 472.3,-214.5 472.3,-221.5"/>
</a>
</g>
</g>
<!-- Node15 -->
<g id="Node000015" class="node">
<title>Node15</title>
<g id="a_Node000015"><a xlink:href="../../dc/d33/class_r_t_o_s_1_1_timeout.html#a2e21851db10482d0274ec8adb2a74d75" target="_top" xlink:title="Equality operator of Timeout class.">
<polygon fill="white" stroke="#666666" points="391.25,-190 253.75,-190 253.75,-170 391.25,-170 391.25,-190"/>
<text xml:space="preserve" text-anchor="middle" x="322.5" y="-176.5" font-family="Helvetica,sans-Serif" font-size="10.00">RTOS::Timeout::operator==</text>
</a>
</g>
</g>
<!-- Node13&#45;&gt;Node15 -->
<g id="edge15_Node000013_Node000015" class="edge">
<title>Node13&#45;&gt;Node15</title>
<g id="a_edge15_Node000013_Node000015"><a xlink:title=" ">
<path fill="none" stroke="#63b8ff" d="M475.19,-205.6C446.17,-200.71 413.19,-195.14 385.41,-190.45"/>
<polygon fill="#63b8ff" stroke="#63b8ff" points="474.58,-209.05 485.02,-207.26 475.74,-202.15 474.58,-209.05"/>
</a>
</g>
</g>
<!-- Node16 -->
<g id="Node000016" class="node">
<title>Node16</title>
<g id="a_Node000016"><a xlink:href="../../da/d45/class_lib_1_1_b_s_p_1_1_ethercat_1_1_p_d_i_1_1_l_a_n9252_1_1_base.html#a489564ee364cc9d33fc1ee03da39cfd2" target="_top" xlink:title="Resets LAN9252 chip.">
<polygon fill="white" stroke="#666666" points="406.25,-152 238.75,-152 238.75,-120 406.25,-120 406.25,-152"/>
<text xml:space="preserve" text-anchor="start" x="246.75" y="-138.5" font-family="Helvetica,sans-Serif" font-size="10.00">Lib::BSP::Ethercat::PDI::LAN9252</text>
<text xml:space="preserve" text-anchor="middle" x="322.5" y="-126.5" font-family="Helvetica,sans-Serif" font-size="10.00">::Base::resetChip</text>
</a>
</g>
</g>
<!-- Node13&#45;&gt;Node16 -->
<g id="edge16_Node000013_Node000016" class="edge">
<title>Node13&#45;&gt;Node16</title>
<g id="a_edge16_Node000013_Node000016"><a xlink:title=" ">
<path fill="none" stroke="#63b8ff" d="M480.24,-203.47C477.22,-202.11 474.29,-200.63 471.5,-199 451.39,-187.3 455.74,-172.48 435.5,-161 426.58,-155.94 416.71,-151.9 406.64,-148.68"/>
<polygon fill="#63b8ff" stroke="#63b8ff" points="478.76,-206.65 489.35,-207.07 481.33,-200.14 478.76,-206.65"/>
</a>
</g>
</g>
<!-- Node18 -->
<g id="Node000018" class="node">
<title>Node18</title>
<g id="a_Node000018"><a xlink:href="../../d8/d0a/class_lib_1_1_digi_1_1_a_p_i_1_1_service_1_1_network_discovery.html#a3e2f6230def8391938f495421342acc9" target="_top" xlink:title="Starts network discovery and scans the wireless network.">
<polygon fill="white" stroke="#666666" points="435.5,-102 209.5,-102 209.5,-82 435.5,-82 435.5,-102"/>
<text xml:space="preserve" text-anchor="middle" x="322.5" y="-88.5" font-family="Helvetica,sans-Serif" font-size="10.00">Lib::Digi::API::Service::NetworkDiscovery::start</text>
</a>
</g>
</g>
<!-- Node13&#45;&gt;Node18 -->
<g id="edge18_Node000013_Node000018" class="edge">
<title>Node13&#45;&gt;Node18</title>
<g id="a_edge18_Node000013_Node000018"><a xlink:title=" ">
<path fill="none" stroke="#63b8ff" d="M474.97,-201.75C473.77,-200.88 472.62,-199.96 471.5,-199 439.51,-171.39 468.48,-137.42 435.5,-111 431.34,-107.67 426.82,-104.83 422.05,-102.42"/>
<polygon fill="#63b8ff" stroke="#63b8ff" points="473.05,-204.68 483.42,-206.8 476.64,-198.67 473.05,-204.68"/>
</a>
</g>
</g>
<!-- Node17 -->
<g id="Node000017" class="node">
<title>Node17</title>
<g id="a_Node000017"><a xlink:href="../../da/d45/class_lib_1_1_b_s_p_1_1_ethercat_1_1_p_d_i_1_1_l_a_n9252_1_1_base.html#a6793d0ac82442ee5dfc4e77a16776c0d" target="_top" xlink:title="Initializes LAN9252 chip.">
<polygon fill="white" stroke="#666666" points="170.5,-152 3,-152 3,-120 170.5,-120 170.5,-152"/>
<text xml:space="preserve" text-anchor="start" x="11" y="-138.5" font-family="Helvetica,sans-Serif" font-size="10.00">Lib::BSP::Ethercat::PDI::LAN9252</text>
<text xml:space="preserve" text-anchor="middle" x="86.75" y="-126.5" font-family="Helvetica,sans-Serif" font-size="10.00">::Base::init</text>
</a>
</g>
</g>
<!-- Node16&#45;&gt;Node17 -->
<g id="edge17_Node000016_Node000017" class="edge">
<title>Node16&#45;&gt;Node17</title>
<g id="a_edge17_Node000016_Node000017"><a xlink:title=" ">
<path fill="none" stroke="#63b8ff" d="M226.99,-136C208.44,-136 189.1,-136 170.95,-136"/>
<polygon fill="#63b8ff" stroke="#63b8ff" points="226.92,-139.5 236.92,-136 226.92,-132.5 226.92,-139.5"/>
</a>
</g>
</g>
<!-- Node22&#45;&gt;Node22 -->
<g id="edge23_Node000022_Node000022" class="edge">
<title>Node22&#45;&gt;Node22</title>
<g id="a_edge23_Node000022_Node000022"><a xlink:title=" ">
<path fill="none" stroke="#63b8ff" d="M582.15,-69.11C578.28,-73.14 567.43,-76 549.62,-76 517.97,-76 508.32,-66.98 520.69,-58.34"/>
<polygon fill="#63b8ff" stroke="#63b8ff" points="585.53,-68.15 579.04,-59.77 578.88,-70.37 585.53,-68.15"/>
</a>
</g>
</g>
</g>
</svg>
