<?xml version="1.0" encoding="UTF-8" standalone="no"?>
<!DOCTYPE svg PUBLIC "-//W3C//DTD SVG 1.1//EN"
 "http://www.w3.org/Graphics/SVG/1.1/DTD/svg11.dtd">
<!-- Generated by graphviz version 13.1.0 (20250701.0955)
 -->
<!-- Title: Lib::BSP::DigitalPeripheral::PortConfig Pages: 1 -->
<svg width="362pt" height="204pt"
 viewBox="0.00 0.00 362.00 204.00" xmlns="http://www.w3.org/2000/svg" xmlns:xlink="http://www.w3.org/1999/xlink">
<g id="graph0" class="graph" transform="scale(1 1) rotate(0) translate(4 200)">
<title>Lib::BSP::DigitalPeripheral::PortConfig</title>
<!-- Node1 -->
<g id="Node000001" class="node">
<title>Node1</title>
<g id="a_Node000001"><a xlink:title="SPI and GPIO configuration for digital peripheral ports.">
<polygon fill="#999999" stroke="none" points="226.38,-29 109.62,-29 109.62,0 226.38,0 226.38,-29"/>
<text xml:space="preserve" text-anchor="start" x="113.62" y="-16.45" font-family="Arial" font-size="9.00">Lib::BSP::DigitalPeripheral</text>
<text xml:space="preserve" text-anchor="start" x="144" y="-5.95" font-family="Arial" font-size="9.00">::PortConfig</text>
<polygon fill="none" stroke="#666666" points="109.62,0 109.62,-29 226.38,-29 226.38,0 109.62,0"/>
</a>
</g>
</g>
<!-- Node2 -->
<g id="Node000002" class="node">
<title>Node2</title>
<g id="a_Node000002"><a xlink:title=" ">
<polygon fill="white" stroke="none" points="98,-105.25 0,-105.25 0,-86.75 98,-86.75 98,-105.25"/>
<text xml:space="preserve" text-anchor="start" x="4" y="-92.7" font-family="Arial" font-size="9.00">SPI_HandleTypeDef *</text>
<polygon fill="none" stroke="#bfbfbf" points="0,-86.75 0,-105.25 98,-105.25 98,-86.75 0,-86.75"/>
</a>
</g>
</g>
<!-- Node2&#45;&gt;Node1 -->
<g id="edge1_Node000001_Node000002" class="edge">
<title>Node2&#45;&gt;Node1</title>
<g id="a_edge1_Node000001_Node000002"><a xlink:title=" ">
<path fill="none" stroke="#63b8ff" d="M61.29,-86.79C79.1,-74.89 112.69,-52.45 137.44,-35.92"/>
<polygon fill="none" stroke="#63b8ff" points="137.37,-35.96 140.14,-29.3 147.35,-29.29 144.58,-35.95 137.37,-35.96"/>
</a>
</g>
<text xml:space="preserve" text-anchor="start" x="122.16" y="-51.95" font-family="Arial" font-size="9.00" fill="grey">+spi</text>
</g>
<!-- Node3 -->
<g id="Node000003" class="node">
<title>Node3</title>
<g id="a_Node000003"><a xlink:href="../../d8/d6c/a01563.html" target="_top" xlink:title="GPIO pin handle abstraction.">
<polygon fill="white" stroke="none" points="220,-105.25 116,-105.25 116,-86.75 220,-86.75 220,-105.25"/>
<text xml:space="preserve" text-anchor="start" x="120" y="-92.7" font-family="Arial" font-size="9.00">Lib::HAL::GPIO::Handle</text>
<polygon fill="none" stroke="#666666" points="116,-86.75 116,-105.25 220,-105.25 220,-86.75 116,-86.75"/>
</a>
</g>
</g>
<!-- Node3&#45;&gt;Node1 -->
<g id="edge2_Node000001_Node000003" class="edge">
<title>Node3&#45;&gt;Node1</title>
<g id="a_edge2_Node000001_Node000003"><a xlink:title=" ">
<path fill="none" stroke="#63b8ff" d="M168,-86.79C168,-76.17 168,-57.18 168,-41.47"/>
<polygon fill="none" stroke="#63b8ff" points="168,-41.7 164,-35.7 168,-29.7 172,-35.7 168,-41.7"/>
</a>
</g>
<text xml:space="preserve" text-anchor="start" x="171" y="-51.95" font-family="Arial" font-size="9.00" fill="grey">+nss</text>
</g>
<!-- Node4 -->
<g id="Node000004" class="node">
<title>Node4</title>
<g id="a_Node000004"><a xlink:title=" ">
<polygon fill="white" stroke="none" points="160.75,-196 85.25,-196 85.25,-177.5 160.75,-177.5 160.75,-196"/>
<text xml:space="preserve" text-anchor="start" x="89.25" y="-183.45" font-family="Arial" font-size="9.00">GPIO_TypeDef *</text>
<polygon fill="none" stroke="#bfbfbf" points="85.25,-177.5 85.25,-196 160.75,-196 160.75,-177.5 85.25,-177.5"/>
</a>
</g>
</g>
<!-- Node4&#45;&gt;Node3 -->
<g id="edge3_Node000003_Node000004" class="edge">
<title>Node4&#45;&gt;Node3</title>
<g id="a_edge3_Node000003_Node000004"><a xlink:title=" ">
<path fill="none" stroke="#63b8ff" d="M126.25,-177.83C130.91,-166.66 139.95,-145.69 149,-128.5 151.14,-124.43 153.58,-120.16 155.98,-116.12"/>
<polygon fill="none" stroke="#63b8ff" points="155.98,-116.13 155.71,-108.92 162.26,-105.91 162.53,-113.11 155.98,-116.13"/>
</a>
</g>
<text xml:space="preserve" text-anchor="start" x="152" y="-140.7" font-family="Arial" font-size="9.00" fill="grey">+port</text>
</g>
<!-- Node5 -->
<g id="Node000005" class="node">
<title>Node5</title>
<g id="a_Node000005"><a xlink:title=" ">
<polygon fill="white" stroke="none" points="219.5,-196 178.5,-196 178.5,-177.5 219.5,-177.5 219.5,-196"/>
<text xml:space="preserve" text-anchor="start" x="182.5" y="-183.45" font-family="Arial" font-size="9.00">uint16_t</text>
<polygon fill="none" stroke="#bfbfbf" points="178.5,-177.5 178.5,-196 219.5,-196 219.5,-177.5 178.5,-177.5"/>
</a>
</g>
</g>
<!-- Node5&#45;&gt;Node3 -->
<g id="edge4_Node000003_Node000005" class="edge">
<title>Node5&#45;&gt;Node3</title>
<g id="a_edge4_Node000003_Node000005"><a xlink:title=" ">
<path fill="none" stroke="#63b8ff" d="M196.14,-177.56C191.39,-163.95 181.73,-136.31 175.07,-117.23"/>
<polygon fill="none" stroke="#63b8ff" points="175.11,-117.35 169.35,-113 171.15,-106.02 176.91,-110.37 175.11,-117.35"/>
</a>
</g>
<text xml:space="preserve" text-anchor="start" x="191.97" y="-140.7" font-family="Arial" font-size="9.00" fill="grey">+number</text>
</g>
<!-- Node6 -->
<g id="Node000006" class="node">
<title>Node6</title>
<g id="a_Node000006"><a xlink:href="../../de/d4a/a01107.html" target="_top" xlink:title="Compact mapping of a digital peripheral port and its bitmask.">
<polygon fill="white" stroke="none" points="354.38,-110.5 237.62,-110.5 237.62,-81.5 354.38,-81.5 354.38,-110.5"/>
<text xml:space="preserve" text-anchor="start" x="241.62" y="-97.95" font-family="Arial" font-size="9.00">Lib::BSP::DigitalPeripheral</text>
<text xml:space="preserve" text-anchor="start" x="274.62" y="-87.45" font-family="Arial" font-size="9.00">::MapField</text>
<polygon fill="none" stroke="#666666" points="237.62,-81.5 237.62,-110.5 354.38,-110.5 354.38,-81.5 237.62,-81.5"/>
</a>
</g>
</g>
<!-- Node6&#45;&gt;Node1 -->
<g id="edge5_Node000001_Node000006" class="edge">
<title>Node6&#45;&gt;Node1</title>
<g id="a_edge5_Node000001_Node000006"><a xlink:title=" ">
<path fill="none" stroke="#63b8ff" d="M274.29,-81.51C254.03,-68.93 223.54,-50 200.4,-35.63"/>
<polygon fill="none" stroke="#63b8ff" points="200.35,-35.59 193.14,-35.83 190.16,-29.26 197.37,-29.03 200.35,-35.59"/>
</a>
</g>
<text xml:space="preserve" text-anchor="start" x="246.46" y="-51.95" font-family="Arial" font-size="9.00" fill="grey">+mapFields</text>
</g>
<!-- Node7 -->
<g id="Node000007" class="node">
<title>Node7</title>
<g id="a_Node000007"><a xlink:title=" ">
<polygon fill="white" stroke="none" points="313.88,-196 278.12,-196 278.12,-177.5 313.88,-177.5 313.88,-196"/>
<text xml:space="preserve" text-anchor="start" x="282.12" y="-183.45" font-family="Arial" font-size="9.00">uint8_t</text>
<polygon fill="none" stroke="#bfbfbf" points="278.12,-177.5 278.12,-196 313.88,-196 313.88,-177.5 278.12,-177.5"/>
</a>
</g>
</g>
<!-- Node7&#45;&gt;Node6 -->
<g id="edge6_Node000006_Node000007" class="edge">
<title>Node7&#45;&gt;Node6</title>
<g id="a_edge6_Node000006_Node000007"><a xlink:title=" ">
<path fill="none" stroke="#63b8ff" d="M296,-177.56C296,-165.32 296,-141.71 296,-123.2"/>
<polygon fill="none" stroke="#63b8ff" points="296,-123.21 292,-117.21 296,-111.21 300,-117.21 296,-123.21"/>
</a>
</g>
<text xml:space="preserve" text-anchor="start" x="299" y="-147.95" font-family="Arial" font-size="9.00" fill="grey">+mask</text>
<text xml:space="preserve" text-anchor="start" x="299" y="-133.45" font-family="Arial" font-size="9.00" fill="grey">+port</text>
</g>
</g>
</svg>
