<?xml version="1.0" encoding="UTF-8" standalone="no"?>
<!DOCTYPE svg PUBLIC "-//W3C//DTD SVG 1.1//EN"
 "http://www.w3.org/Graphics/SVG/1.1/DTD/svg11.dtd">
<!-- Generated by graphviz version 13.1.0 (20250701.0955)
 -->
<!-- Title: Lib::Xbee::Core::Frame::Header Pages: 1 -->
<svg width="125pt" height="195pt"
 viewBox="0.00 0.00 125.00 195.00" xmlns="http://www.w3.org/2000/svg" xmlns:xlink="http://www.w3.org/1999/xlink">
<g id="graph0" class="graph" transform="scale(1 1) rotate(0) translate(4 191)">
<title>Lib::Xbee::Core::Frame::Header</title>
<!-- Node1 -->
<g id="Node000001" class="node">
<title>Node1</title>
<g id="a_Node000001"><a xlink:title="Packed header for XBee protocol frames.">
<polygon fill="#999999" stroke="none" points="102.5,-58 0,-58 0,0 102.5,0 102.5,-58"/>
<text xml:space="preserve" text-anchor="start" x="4" y="-45.45" font-family="Arial" font-size="9.00">Lib::Xbee::Core::Frame</text>
<text xml:space="preserve" text-anchor="start" x="33.62" y="-34.95" font-family="Arial" font-size="9.00">::Header</text>
<text xml:space="preserve" text-anchor="start" x="50.12" y="-20.45" font-family="Arial" font-size="9.00"> </text>
<text xml:space="preserve" text-anchor="start" x="50.12" y="-5.95" font-family="Arial" font-size="9.00"> </text>
<polygon fill="#666666" stroke="#666666" points="0,-31 0,-31 102.5,-31 102.5,-31 0,-31"/>
<polygon fill="#666666" stroke="#666666" points="0,-16.5 0,-16.5 102.5,-16.5 102.5,-16.5 0,-16.5"/>
<polygon fill="none" stroke="#666666" points="0,0 0,-58 102.5,-58 102.5,0 0,0"/>
</a>
</g>
</g>
<!-- Node2 -->
<g id="Node000002" class="node">
<title>Node2</title>
<g id="a_Node000002"><a xlink:title=" ">
<polygon fill="white" stroke="none" points="69.12,-187 33.38,-187 33.38,-139.5 69.12,-139.5 69.12,-187"/>
<text xml:space="preserve" text-anchor="start" x="37.38" y="-174.45" font-family="Arial" font-size="9.00">uint8_t</text>
<text xml:space="preserve" text-anchor="start" x="50.12" y="-159.95" font-family="Arial" font-size="9.00"> </text>
<text xml:space="preserve" text-anchor="start" x="50.12" y="-145.45" font-family="Arial" font-size="9.00"> </text>
<polygon fill="#bfbfbf" stroke="#bfbfbf" points="33.38,-170.5 33.38,-170.5 69.12,-170.5 69.12,-170.5 33.38,-170.5"/>
<polygon fill="#bfbfbf" stroke="#bfbfbf" points="33.38,-156 33.38,-156 69.12,-156 69.12,-156 33.38,-156"/>
<polygon fill="none" stroke="#bfbfbf" points="33.38,-139.5 33.38,-187 69.12,-187 69.12,-139.5 33.38,-139.5"/>
</a>
</g>
</g>
<!-- Node2&#45;&gt;Node1 -->
<g id="edge1_Node000001_Node000002" class="edge">
<title>Node2&#45;&gt;Node1</title>
<g id="a_edge1_Node000001_Node000002"><a xlink:title=" ">
<path fill="none" stroke="#63b8ff" d="M51.25,-139.52C51.25,-120.71 51.25,-93.53 51.25,-70.95"/>
<polygon fill="none" stroke="#63b8ff" points="51.25,-70.85 47.25,-64.85 51.25,-58.85 55.25,-64.85 51.25,-70.85"/>
</a>
</g>
<text xml:space="preserve" text-anchor="start" x="54.25" y="-109.95" font-family="Arial" font-size="9.00" fill="grey">+lengthLSB</text>
<text xml:space="preserve" text-anchor="start" x="54.25" y="-95.45" font-family="Arial" font-size="9.00" fill="grey">+lengthMSB</text>
<text xml:space="preserve" text-anchor="start" x="54.25" y="-80.95" font-family="Arial" font-size="9.00" fill="grey">+startDelimiter</text>
</g>
</g>
</svg>
