<?xml version="1.0" encoding="UTF-8" standalone="no"?>
<!DOCTYPE svg PUBLIC "-//W3C//DTD SVG 1.1//EN"
 "http://www.w3.org/Graphics/SVG/1.1/DTD/svg11.dtd">
<!-- Generated by graphviz version 13.1.0 (20250701.0955)
 -->
<!-- Title: Lib::Xbee::Core::Frame::Data::size Pages: 1 -->
<svg width="285pt" height="319pt"
 viewBox="0.00 0.00 285.00 319.00" xmlns="http://www.w3.org/2000/svg" xmlns:xlink="http://www.w3.org/1999/xlink">
<g id="graph0" class="graph" transform="scale(1 1) rotate(0) translate(4 315)">
<title>Lib::Xbee::Core::Frame::Data::size</title>
<!-- Node1 -->
<g id="Node000001" class="node">
<title>Node1</title>
<g id="a_Node000001"><a xlink:title="Get the size of the data buffer.">
<polygon fill="#999999" stroke="#666666" points="277.25,-170 166.75,-170 166.75,-141 277.25,-141 277.25,-170"/>
<text xml:space="preserve" text-anchor="start" x="174.75" y="-157.45" font-family="Arial" font-size="9.00">Lib::Xbee::Core::Frame</text>
<text xml:space="preserve" text-anchor="middle" x="222" y="-146.95" font-family="Arial" font-size="9.00">::Data::size</text>
</a>
</g>
</g>
<!-- Node2 -->
<g id="Node000002" class="node">
<title>Node2</title>
<g id="a_Node000002"><a xlink:href="../../d6/d1e/a02171.html#a8973805603c1359d41b9fb3b677481ac" target="_top" xlink:title="Parses RX packet frame data.">
<polygon fill="white" stroke="#666666" points="130.75,-311 0,-311 0,-282 130.75,-282 130.75,-311"/>
<text xml:space="preserve" text-anchor="start" x="8" y="-298.45" font-family="Arial" font-size="9.00">Lib::Xbee::Core::Frame0x80</text>
<text xml:space="preserve" text-anchor="middle" x="65.38" y="-287.95" font-family="Arial" font-size="9.00">::Frame0x80</text>
</a>
</g>
</g>
<!-- Node1&#45;&gt;Node2 -->
<g id="edge1_Node000001_Node000002" class="edge">
<title>Node1&#45;&gt;Node2</title>
<g id="a_edge1_Node000001_Node000002"><a xlink:title=" ">
<path fill="none" stroke="#63b8ff" d="M207.75,-180.43C192.46,-206.97 164.99,-248.51 130.75,-273.5 126.53,-276.58 121.86,-279.28 117.02,-281.64"/>
<polygon fill="#63b8ff" stroke="#63b8ff" points="210.79,-182.16 212.62,-171.72 204.68,-178.74 210.79,-182.16"/>
</a>
</g>
</g>
<!-- Node3 -->
<g id="Node000003" class="node">
<title>Node3</title>
<g id="a_Node000003"><a xlink:href="../../d3/d61/a02179.html#abe2c540ebfd5cdeb9dd028f2b180767b" target="_top" xlink:title="Parses RX packet fields from frame data.">
<polygon fill="white" stroke="#666666" points="130.75,-264 0,-264 0,-235 130.75,-235 130.75,-264"/>
<text xml:space="preserve" text-anchor="start" x="8" y="-251.45" font-family="Arial" font-size="9.00">Lib::Xbee::Core::Frame0x81</text>
<text xml:space="preserve" text-anchor="middle" x="65.38" y="-240.95" font-family="Arial" font-size="9.00">::Frame0x81</text>
</a>
</g>
</g>
<!-- Node1&#45;&gt;Node3 -->
<g id="edge2_Node000001_Node000003" class="edge">
<title>Node1&#45;&gt;Node3</title>
<g id="a_edge2_Node000001_Node000003"><a xlink:title=" ">
<path fill="none" stroke="#63b8ff" d="M197.12,-177.82C179.76,-193.13 155.12,-213.03 130.75,-226.5 125.45,-229.43 119.71,-232.1 113.91,-234.51"/>
<polygon fill="#63b8ff" stroke="#63b8ff" points="199.27,-180.59 204.37,-171.3 194.59,-175.38 199.27,-180.59"/>
</a>
</g>
</g>
<!-- Node4 -->
<g id="Node000004" class="node">
<title>Node4</title>
<g id="a_Node000004"><a xlink:href="../../de/d1b/a02187.html#a6a9275edf94615b94b6fc19f37f00aaf" target="_top" xlink:title="Parses AT command response from frame data.">
<polygon fill="white" stroke="#666666" points="130.75,-217 0,-217 0,-188 130.75,-188 130.75,-217"/>
<text xml:space="preserve" text-anchor="start" x="8" y="-204.45" font-family="Arial" font-size="9.00">Lib::Xbee::Core::Frame0x88</text>
<text xml:space="preserve" text-anchor="middle" x="65.38" y="-193.95" font-family="Arial" font-size="9.00">::Frame0x88</text>
</a>
</g>
</g>
<!-- Node1&#45;&gt;Node4 -->
<g id="edge3_Node000001_Node000004" class="edge">
<title>Node1&#45;&gt;Node4</title>
<g id="a_edge3_Node000001_Node000004"><a xlink:title=" ">
<path fill="none" stroke="#63b8ff" d="M161.26,-173.66C146.13,-178.26 130.05,-183.14 115.51,-187.56"/>
<polygon fill="#63b8ff" stroke="#63b8ff" points="162.08,-177.07 170.63,-170.81 160.04,-170.37 162.08,-177.07"/>
</a>
</g>
</g>
<!-- Node5 -->
<g id="Node000005" class="node">
<title>Node5</title>
<g id="a_Node000005"><a xlink:href="../../d3/d0f/a02203.html#a2978fd7e6f8cff5bfea2c18e375264fc" target="_top" xlink:title="Parses transmit status fields from raw frame data.">
<polygon fill="white" stroke="#666666" points="130.75,-170 0,-170 0,-141 130.75,-141 130.75,-170"/>
<text xml:space="preserve" text-anchor="start" x="8" y="-157.45" font-family="Arial" font-size="9.00">Lib::Xbee::Core::Frame0x8b</text>
<text xml:space="preserve" text-anchor="middle" x="65.38" y="-146.95" font-family="Arial" font-size="9.00">::Frame0x8b</text>
</a>
</g>
</g>
<!-- Node1&#45;&gt;Node5 -->
<g id="edge4_Node000001_Node000005" class="edge">
<title>Node1&#45;&gt;Node5</title>
<g id="a_edge4_Node000001_Node000005"><a xlink:title=" ">
<path fill="none" stroke="#63b8ff" d="M154.99,-155.5C147.04,-155.5 138.92,-155.5 130.99,-155.5"/>
<polygon fill="#63b8ff" stroke="#63b8ff" points="154.97,-159 164.97,-155.5 154.97,-152 154.97,-159"/>
</a>
</g>
</g>
<!-- Node6 -->
<g id="Node000006" class="node">
<title>Node6</title>
<g id="a_Node000006"><a xlink:href="../../dd/d6f/a02207.html#a13088f3468fddd601647b5a6472d6b60" target="_top" xlink:title="Parses RX packet frame data.">
<polygon fill="white" stroke="#666666" points="130.75,-123 0,-123 0,-94 130.75,-94 130.75,-123"/>
<text xml:space="preserve" text-anchor="start" x="8" y="-110.45" font-family="Arial" font-size="9.00">Lib::Xbee::Core::Frame0x90</text>
<text xml:space="preserve" text-anchor="middle" x="65.38" y="-99.95" font-family="Arial" font-size="9.00">::Frame0x90</text>
</a>
</g>
</g>
<!-- Node1&#45;&gt;Node6 -->
<g id="edge5_Node000001_Node000006" class="edge">
<title>Node1&#45;&gt;Node6</title>
<g id="a_edge5_Node000001_Node000006"><a xlink:title=" ">
<path fill="none" stroke="#63b8ff" d="M161.26,-137.34C146.13,-132.74 130.05,-127.86 115.51,-123.44"/>
<polygon fill="#63b8ff" stroke="#63b8ff" points="160.04,-140.63 170.63,-140.19 162.08,-133.93 160.04,-140.63"/>
</a>
</g>
</g>
<!-- Node7 -->
<g id="Node000007" class="node">
<title>Node7</title>
<g id="a_Node000007"><a xlink:href="../../dd/d31/a02215.html#afb497595414a513ac91a4f709085ab30" target="_top" xlink:title="Parses AT command response from frame data.">
<polygon fill="white" stroke="#666666" points="130.75,-76 0,-76 0,-47 130.75,-47 130.75,-76"/>
<text xml:space="preserve" text-anchor="start" x="8" y="-63.45" font-family="Arial" font-size="9.00">Lib::Xbee::Core::Frame0x97</text>
<text xml:space="preserve" text-anchor="middle" x="65.38" y="-52.95" font-family="Arial" font-size="9.00">::Frame0x97</text>
</a>
</g>
</g>
<!-- Node1&#45;&gt;Node7 -->
<g id="edge6_Node000001_Node000007" class="edge">
<title>Node1&#45;&gt;Node7</title>
<g id="a_edge6_Node000001_Node000007"><a xlink:title=" ">
<path fill="none" stroke="#63b8ff" d="M196.69,-133.34C179.3,-118.34 154.79,-98.89 130.75,-85.5 124.81,-82.19 118.32,-79.17 111.83,-76.46"/>
<polygon fill="#63b8ff" stroke="#63b8ff" points="194.14,-135.76 203.96,-139.73 198.76,-130.5 194.14,-135.76"/>
</a>
</g>
</g>
<!-- Node8 -->
<g id="Node000008" class="node">
<title>Node8</title>
<g id="a_Node000008"><a xlink:href="../../d1/d90/a02127.html#adce9b0f032cbcdf0e2cf260c946f8ec7" target="_top" xlink:title="Constructs a DigiApiFrameBuffer from a Frame::Data structure for outgoing messages.">
<polygon fill="white" stroke="#666666" points="127.38,-29 3.38,-29 3.38,0 127.38,0 127.38,-29"/>
<text xml:space="preserve" text-anchor="start" x="11.38" y="-16.45" font-family="Arial" font-size="9.00">Lib::Xbee::Core::Protocol</text>
<text xml:space="preserve" text-anchor="middle" x="65.38" y="-5.95" font-family="Arial" font-size="9.00">::handleOutgoingMessage</text>
</a>
</g>
</g>
<!-- Node1&#45;&gt;Node8 -->
<g id="edge7_Node000001_Node000008" class="edge">
<title>Node1&#45;&gt;Node8</title>
<g id="a_edge7_Node000001_Node000008"><a xlink:title=" ">
<path fill="none" stroke="#63b8ff" d="M207.63,-130.87C192.25,-104.64 164.69,-63.52 130.75,-38.5 126.05,-35.03 120.78,-32.01 115.35,-29.4"/>
<polygon fill="#63b8ff" stroke="#63b8ff" points="204.54,-132.52 212.53,-139.47 210.62,-129.05 204.54,-132.52"/>
</a>
</g>
</g>
</g>
</svg>
