<?xml version="1.0" encoding="UTF-8" standalone="no"?>
<!DOCTYPE svg PUBLIC "-//W3C//DTD SVG 1.1//EN"
 "http://www.w3.org/Graphics/SVG/1.1/DTD/svg11.dtd">
<!-- Generated by graphviz version 13.1.0 (20250701.0955)
 -->
<!-- Title: Lib::Xbee::Core::Frame0x89 Pages: 1 -->
<svg width="160pt" height="98pt"
 viewBox="0.00 0.00 160.00 98.00" xmlns="http://www.w3.org/2000/svg" xmlns:xlink="http://www.w3.org/1999/xlink">
<g id="graph0" class="graph" transform="scale(1 1) rotate(0) translate(4 93.5)">
<title>Lib::Xbee::Core::Frame0x89</title>
<!-- Node1 -->
<g id="Node000001" class="node">
<title>Node1</title>
<g id="a_Node000001"><a xlink:title="Transmit Status frame (0x89) for Xbee Core.">
<polygon fill="#999999" stroke="none" points="122.75,-18.5 0,-18.5 0,0 122.75,0 122.75,-18.5"/>
<text xml:space="preserve" text-anchor="start" x="4" y="-5.95" font-family="Arial" font-size="9.00">Lib::Xbee::Core::Frame0x89</text>
<polygon fill="none" stroke="#666666" points="0,0 0,-18.5 122.75,-18.5 122.75,0 0,0"/>
</a>
</g>
</g>
<!-- Node2 -->
<g id="Node000002" class="node">
<title>Node2</title>
<g id="a_Node000002"><a xlink:title=" ">
<polygon fill="white" stroke="none" points="44.25,-89.5 8.5,-89.5 8.5,-71 44.25,-71 44.25,-89.5"/>
<text xml:space="preserve" text-anchor="start" x="12.5" y="-76.95" font-family="Arial" font-size="9.00">uint8_t</text>
<polygon fill="none" stroke="#bfbfbf" points="8.5,-71 8.5,-89.5 44.25,-89.5 44.25,-71 8.5,-71"/>
</a>
</g>
</g>
<!-- Node2&#45;&gt;Node1 -->
<g id="edge1_Node000001_Node000002" class="edge">
<title>Node2&#45;&gt;Node1</title>
<g id="a_edge1_Node000001_Node000002"><a xlink:title=" ">
<path fill="none" stroke="#63b8ff" d="M25.92,-71.19C25.76,-62.2 26.55,-47.49 32.38,-36.5 34.19,-33.07 36.65,-29.86 39.36,-26.95"/>
<polygon fill="none" stroke="#63b8ff" points="39.43,-26.88 41.23,-19.9 48.37,-18.88 46.57,-25.86 39.43,-26.88"/>
</a>
</g>
<text xml:space="preserve" text-anchor="start" x="35.38" y="-41.45" font-family="Arial" font-size="9.00" fill="grey">+frameId</text>
</g>
<!-- Node3 -->
<g id="Node000003" class="node">
<title>Node3</title>
<g id="a_Node000003"><a xlink:title=" ">
<polygon fill="white" stroke="none" points="130,-89.5 62.75,-89.5 62.75,-71 130,-71 130,-89.5"/>
<text xml:space="preserve" text-anchor="start" x="66.75" y="-76.95" font-family="Arial" font-size="9.00">DeliveryStatus</text>
<polygon fill="none" stroke="#bfbfbf" points="62.75,-71 62.75,-89.5 130,-89.5 130,-71 62.75,-71"/>
</a>
</g>
</g>
<!-- Node3&#45;&gt;Node1 -->
<g id="edge2_Node000001_Node000003" class="edge">
<title>Node3&#45;&gt;Node1</title>
<g id="a_edge2_Node000001_Node000003"><a xlink:title=" ">
<path fill="none" stroke="#63b8ff" d="M92.22,-71.06C87.12,-61 78.28,-43.58 71.37,-29.96"/>
<polygon fill="none" stroke="#63b8ff" points="71.36,-29.93 65.08,-26.39 65.93,-19.23 72.21,-22.77 71.36,-29.93"/>
</a>
</g>
<text xml:space="preserve" text-anchor="start" x="86.04" y="-41.45" font-family="Arial" font-size="9.00" fill="grey">+deliveryStatus</text>
</g>
</g>
</svg>
