<?xml version="1.0" encoding="UTF-8" standalone="no"?>
<!DOCTYPE svg PUBLIC "-//W3C//DTD SVG 1.1//EN"
 "http://www.w3.org/Graphics/SVG/1.1/DTD/svg11.dtd">
<!-- Generated by graphviz version 13.1.0 (20250701.0955)
 -->
<!-- Title: Lib::Canbus::Service&lt; CanServiceMode::SERVER &gt;::start Pages: 1 -->
<svg width="629pt" height="142pt"
 viewBox="0.00 0.00 629.00 142.00" xmlns="http://www.w3.org/2000/svg" xmlns:xlink="http://www.w3.org/1999/xlink">
<g id="graph0" class="graph" transform="scale(1 1) rotate(0) translate(4 138)">
<title>Lib::Canbus::Service&lt; CanServiceMode::SERVER &gt;::start</title>
<!-- Node1 -->
<g id="Node000001" class="node">
<title>Node1</title>
<g id="a_Node000001"><a xlink:title="Starts the server.">
<polygon fill="#999999" stroke="#666666" points="191.5,-83 0,-83 0,-51 191.5,-51 191.5,-83"/>
<text xml:space="preserve" text-anchor="start" x="8" y="-69.5" font-family="Helvetica,sans-Serif" font-size="10.00">Lib::Canbus::Service&lt; CanServiceMode</text>
<text xml:space="preserve" text-anchor="middle" x="95.75" y="-57.5" font-family="Helvetica,sans-Serif" font-size="10.00">::SERVER &gt;::start</text>
</a>
</g>
</g>
<!-- Node2 -->
<g id="Node000002" class="node">
<title>Node2</title>
<g id="a_Node000002"><a xlink:href="../../db/d6e/class_lib_1_1_canbus_1_1_can_service_base.html#a2be1bd418d3459f5a380a0ce75485ec3" target="_top" xlink:title="Starts the CAN service.">
<polygon fill="white" stroke="#666666" points="401,-77 227.5,-77 227.5,-57 401,-57 401,-77"/>
<text xml:space="preserve" text-anchor="middle" x="314.25" y="-63.5" font-family="Helvetica,sans-Serif" font-size="10.00">Lib::Canbus::CanServiceBase::start</text>
</a>
</g>
</g>
<!-- Node1&#45;&gt;Node2 -->
<g id="edge1_Node000001_Node000002" class="edge">
<title>Node1&#45;&gt;Node2</title>
<g id="a_edge1_Node000001_Node000002"><a xlink:title=" ">
<path fill="none" stroke="#63b8ff" d="M191.71,-67C199.74,-67 207.87,-67 215.92,-67"/>
<polygon fill="#63b8ff" stroke="#63b8ff" points="215.71,-70.5 225.71,-67 215.71,-63.5 215.71,-70.5"/>
</a>
</g>
</g>
<!-- Node3 -->
<g id="Node000003" class="node">
<title>Node3</title>
<g id="a_Node000003"><a xlink:href="../../d2/d8d/class_can_filter.html#a66344cfaf7a2218627f5a186bbf754f7" target="_top" xlink:title="Sets the filter bank.">
<polygon fill="white" stroke="#666666" points="577.88,-134 480.12,-134 480.12,-114 577.88,-114 577.88,-134"/>
<text xml:space="preserve" text-anchor="middle" x="529" y="-120.5" font-family="Helvetica,sans-Serif" font-size="10.00">CanFilter::setBank</text>
</a>
</g>
</g>
<!-- Node2&#45;&gt;Node3 -->
<g id="edge2_Node000002_Node000003" class="edge">
<title>Node2&#45;&gt;Node3</title>
<g id="a_edge2_Node000002_Node000003"><a xlink:title=" ">
<path fill="none" stroke="#63b8ff" d="M345.79,-77.43C370.27,-85.58 405.6,-96.84 437,-105 447.09,-107.62 457.89,-110.13 468.39,-112.42"/>
<polygon fill="#63b8ff" stroke="#63b8ff" points="467.64,-115.84 478.15,-114.49 469.09,-108.99 467.64,-115.84"/>
</a>
</g>
</g>
<!-- Node4 -->
<g id="Node000004" class="node">
<title>Node4</title>
<g id="a_Node000004"><a xlink:href="../../d2/d8d/class_can_filter.html#a8b964aa53ff4282b3045fcbe2b44603f" target="_top" xlink:title="Sets the filter identifier.">
<polygon fill="white" stroke="#666666" points="570.75,-96 487.25,-96 487.25,-76 570.75,-76 570.75,-96"/>
<text xml:space="preserve" text-anchor="middle" x="529" y="-82.5" font-family="Helvetica,sans-Serif" font-size="10.00">CanFilter::setId</text>
</a>
</g>
</g>
<!-- Node2&#45;&gt;Node4 -->
<g id="edge3_Node000002_Node000004" class="edge">
<title>Node2&#45;&gt;Node4</title>
<g id="a_edge3_Node000002_Node000004"><a xlink:title=" ">
<path fill="none" stroke="#63b8ff" d="M401.48,-74.7C426.59,-76.94 453.25,-79.32 475.59,-81.32"/>
<polygon fill="#63b8ff" stroke="#63b8ff" points="475.07,-84.79 485.35,-82.19 475.7,-77.81 475.07,-84.79"/>
</a>
</g>
</g>
<!-- Node5 -->
<g id="Node000005" class="node">
<title>Node5</title>
<g id="a_Node000005"><a xlink:href="../../d2/d8d/class_can_filter.html#a5bbfb3e9a823b6b72e915870b6df22e8" target="_top" xlink:title="Sets the filter mask.">
<polygon fill="white" stroke="#666666" points="578.62,-58 479.38,-58 479.38,-38 578.62,-38 578.62,-58"/>
<text xml:space="preserve" text-anchor="middle" x="529" y="-44.5" font-family="Helvetica,sans-Serif" font-size="10.00">CanFilter::setMask</text>
</a>
</g>
</g>
<!-- Node2&#45;&gt;Node5 -->
<g id="edge4_Node000002_Node000005" class="edge">
<title>Node2&#45;&gt;Node5</title>
<g id="a_edge4_Node000002_Node000005"><a xlink:title=" ">
<path fill="none" stroke="#63b8ff" d="M401.48,-59.3C423.63,-57.32 446.99,-55.23 467.53,-53.4"/>
<polygon fill="#63b8ff" stroke="#63b8ff" points="467.79,-56.89 477.44,-52.52 467.16,-49.92 467.79,-56.89"/>
</a>
</g>
</g>
<!-- Node6 -->
<g id="Node000006" class="node">
<title>Node6</title>
<g id="a_Node000006"><a xlink:href="../../db/d6e/class_lib_1_1_canbus_1_1_can_service_base.html#adc8149d07f9ada62efd3bf20c6bedede" target="_top" xlink:title="Task function for the CAN service.">
<polygon fill="white" stroke="#666666" points="621,-20 437,-20 437,0 621,0 621,-20"/>
<text xml:space="preserve" text-anchor="middle" x="529" y="-6.5" font-family="Helvetica,sans-Serif" font-size="10.00">Lib::Canbus::CanServiceBase::taskFn</text>
</a>
</g>
</g>
<!-- Node2&#45;&gt;Node6 -->
<g id="edge5_Node000002_Node000006" class="edge">
<title>Node2&#45;&gt;Node6</title>
<g id="a_edge5_Node000002_Node000006"><a xlink:title=" ">
<path fill="none" stroke="#63b8ff" d="M345.79,-56.57C370.27,-48.42 405.6,-37.16 437,-29 445.15,-26.88 453.75,-24.84 462.29,-22.93"/>
<polygon fill="#63b8ff" stroke="#63b8ff" points="462.92,-26.37 471.95,-20.82 461.43,-19.53 462.92,-26.37"/>
</a>
</g>
</g>
</g>
</svg>
