<?xml version="1.0" encoding="UTF-8" standalone="no"?>
<!DOCTYPE svg PUBLIC "-//W3C//DTD SVG 1.1//EN"
 "http://www.w3.org/Graphics/SVG/1.1/DTD/svg11.dtd">
<!-- Generated by graphviz version 13.1.0 (20250701.0955)
 -->
<!-- Title: System::ProduceDate Pages: 1 -->
<svg width="113pt" height="148pt"
 viewBox="0.00 0.00 113.00 148.00" xmlns="http://www.w3.org/2000/svg" xmlns:xlink="http://www.w3.org/1999/xlink">
<g id="graph0" class="graph" transform="scale(1 1) rotate(0) translate(4 144)">
<title>System::ProduceDate</title>
<!-- Node1 -->
<g id="Node000001" class="node">
<title>Node1</title>
<g id="a_Node000001"><a xlink:title="Production date wrapper for firmware builds.">
<polygon fill="#999999" stroke="none" points="104.75,-52 0,-52 0,0 104.75,0 104.75,-52"/>
<text xml:space="preserve" text-anchor="start" x="4" y="-38.5" font-family="Helvetica,sans-Serif" font-size="10.00">System::ProduceDate</text>
<text xml:space="preserve" text-anchor="start" x="50.88" y="-22.5" font-family="Helvetica,sans-Serif" font-size="10.00"> </text>
<text xml:space="preserve" text-anchor="start" x="9.94" y="-6.5" font-family="Helvetica,sans-Serif" font-size="10.00">+</text>
<text xml:space="preserve" text-anchor="start" x="25.88" y="-6.5" font-family="Helvetica,sans-Serif" font-size="10.00">ProduceDate()</text>
<polygon fill="#666666" stroke="#666666" points="0,-34 0,-34 104.75,-34 104.75,-34 0,-34"/>
<polygon fill="#666666" stroke="#666666" points="0,-18 0,-18 104.75,-18 104.75,-18 0,-18"/>
<polygon fill="none" stroke="#666666" points="0,0 0,-52 104.75,-52 104.75,0 0,0"/>
</a>
</g>
</g>
<!-- Node2 -->
<g id="Node000002" class="node">
<title>Node2</title>
<g id="a_Node000002"><a xlink:href="../../d3/d89/class_produce_date_base.html" target="_top" xlink:title=" ">
<polygon fill="white" stroke="none" points="96.12,-140 8.62,-140 8.62,-88 96.12,-88 96.12,-140"/>
<text xml:space="preserve" text-anchor="start" x="12.62" y="-126.5" font-family="Helvetica,sans-Serif" font-size="10.00">ProduceDateBase</text>
<text xml:space="preserve" text-anchor="start" x="50.88" y="-110.5" font-family="Helvetica,sans-Serif" font-size="10.00"> </text>
<text xml:space="preserve" text-anchor="start" x="50.88" y="-94.5" font-family="Helvetica,sans-Serif" font-size="10.00"> </text>
<polygon fill="#bfbfbf" stroke="#bfbfbf" points="8.62,-122 8.62,-122 96.12,-122 96.12,-122 8.62,-122"/>
<polygon fill="#bfbfbf" stroke="#bfbfbf" points="8.62,-106 8.62,-106 96.12,-106 96.12,-106 8.62,-106"/>
<polygon fill="none" stroke="#bfbfbf" points="8.62,-88 8.62,-140 96.12,-140 96.12,-88 8.62,-88"/>
</a>
</g>
</g>
<!-- Node2&#45;&gt;Node1 -->
<g id="edge1_Node000001_Node000002" class="edge">
<title>Node2&#45;&gt;Node1</title>
<g id="a_edge1_Node000001_Node000002"><a xlink:title=" ">
<path fill="none" stroke="#63b8ff" d="M52.38,-76.66C52.38,-68.29 52.38,-59.57 52.38,-51.82"/>
<polygon fill="none" stroke="#63b8ff" points="48.88,-76.61 52.38,-86.61 55.88,-76.61 48.88,-76.61"/>
</a>
</g>
</g>
</g>
</svg>
