<?xml version="1.0" encoding="UTF-8" standalone="no"?>
<!DOCTYPE svg PUBLIC "-//W3C//DTD SVG 1.1//EN"
 "http://www.w3.org/Graphics/SVG/1.1/DTD/svg11.dtd">
<!-- Generated by graphviz version 12.2.1 (20241206.2353)
 -->
<!-- Title: complete_access_subindex_loop Pages: 1 -->
<svg width="674pt" height="128pt"
 viewBox="0.00 0.00 673.75 128.00" xmlns="http://www.w3.org/2000/svg" xmlns:xlink="http://www.w3.org/1999/xlink">
<g id="graph0" class="graph" transform="scale(1 1) rotate(0) translate(4 124)">
<title>complete_access_subindex_loop</title>
<!-- Node1 -->
<g id="Node000001" class="node">
<title>Node1</title>
<g id="a_Node000001"><a xlink:title=" ">
<polygon fill="#999999" stroke="#666666" points="665.75,-70 505.75,-70 505.75,-50 665.75,-50 665.75,-70"/>
<text text-anchor="middle" x="585.75" y="-56.5" font-family="Helvetica,sans-Serif" font-size="10.00">complete_access_subindex_loop</text>
</a>
</g>
</g>
<!-- Node2 -->
<g id="Node000002" class="node">
<title>Node2</title>
<g id="a_Node000002"><a xlink:href="../../db/db2/a00020.html#a538f864cb69d5256c901d619bda7dbc8" target="_top" xlink:title=" ">
<polygon fill="white" stroke="#666666" points="469.75,-120 340.5,-120 340.5,-88 469.75,-88 469.75,-120"/>
<text text-anchor="start" x="348.5" y="-106.5" font-family="Helvetica,sans-Serif" font-size="10.00">SDO_download_complete</text>
<text text-anchor="middle" x="405.12" y="-94.5" font-family="Helvetica,sans-Serif" font-size="10.00">_access</text>
</a>
</g>
</g>
<!-- Node1&#45;&gt;Node2 -->
<g id="edge1_Node000001_Node000002" class="edge">
<title>Node1&#45;&gt;Node2</title>
<g id="a_edge1_Node000001_Node000002"><a xlink:title=" ">
<path fill="none" stroke="#63b8ff" d="M531.43,-73.13C512.18,-77.88 490.25,-83.28 470.17,-88.22"/>
<polygon fill="#63b8ff" stroke="#63b8ff" points="532.08,-76.58 540.95,-70.79 530.4,-69.78 532.08,-76.58"/>
</a>
</g>
</g>
<!-- Node7 -->
<g id="Node000007" class="node">
<title>Node7</title>
<g id="a_Node000007"><a xlink:href="../../db/db2/a00020.html#ae5dcdd0e5a86b4b53ecb12c04ca5c193" target="_top" xlink:title=" ">
<polygon fill="white" stroke="#666666" points="466,-70 344.25,-70 344.25,-50 466,-50 466,-70"/>
<text text-anchor="middle" x="405.12" y="-56.5" font-family="Helvetica,sans-Serif" font-size="10.00">SDO_downloadsegment</text>
</a>
</g>
</g>
<!-- Node1&#45;&gt;Node7 -->
<g id="edge6_Node000001_Node000007" class="edge">
<title>Node1&#45;&gt;Node7</title>
<g id="a_edge6_Node000001_Node000007"><a xlink:title=" ">
<path fill="none" stroke="#63b8ff" d="M493.92,-60C484.53,-60 475.17,-60 466.23,-60"/>
<polygon fill="#63b8ff" stroke="#63b8ff" points="493.85,-63.5 503.85,-60 493.85,-56.5 493.85,-63.5"/>
</a>
</g>
</g>
<!-- Node8 -->
<g id="Node000008" class="node">
<title>Node8</title>
<g id="a_Node000008"><a xlink:href="../../db/db2/a00020.html#a4bd58eaefbeac58187803feb054c3569" target="_top" xlink:title=" ">
<polygon fill="white" stroke="#666666" points="463.38,-32 346.88,-32 346.88,0 463.38,0 463.38,-32"/>
<text text-anchor="start" x="354.88" y="-18.5" font-family="Helvetica,sans-Serif" font-size="10.00">SDO_upload_complete</text>
<text text-anchor="middle" x="405.12" y="-6.5" font-family="Helvetica,sans-Serif" font-size="10.00">_access</text>
</a>
</g>
</g>
<!-- Node1&#45;&gt;Node8 -->
<g id="edge8_Node000001_Node000008" class="edge">
<title>Node1&#45;&gt;Node8</title>
<g id="a_edge8_Node000001_Node000008"><a xlink:title=" ">
<path fill="none" stroke="#63b8ff" d="M531.28,-46.83C509.97,-41.58 485.4,-35.53 463.7,-30.18"/>
<polygon fill="#63b8ff" stroke="#63b8ff" points="530.4,-50.22 540.95,-49.21 532.08,-43.42 530.4,-50.22"/>
</a>
</g>
</g>
<!-- Node3 -->
<g id="Node000003" class="node">
<title>Node3</title>
<g id="a_Node000003"><a xlink:href="../../db/db2/a00020.html#a71c76794b7e4ed125cc9cda0e8508ccd" target="_top" xlink:title="Processes the CoE (CANopen over EtherCAT) protocol.">
<polygon fill="white" stroke="#666666" points="304.5,-70 212,-70 212,-50 304.5,-50 304.5,-70"/>
<text text-anchor="middle" x="258.25" y="-56.5" font-family="Helvetica,sans-Serif" font-size="10.00">ESC_coeprocess</text>
</a>
</g>
</g>
<!-- Node2&#45;&gt;Node3 -->
<g id="edge2_Node000002_Node000003" class="edge">
<title>Node2&#45;&gt;Node3</title>
<g id="a_edge2_Node000002_Node000003"><a xlink:title=" ">
<path fill="none" stroke="#63b8ff" d="M339.35,-84.33C323.53,-79.52 307.22,-74.57 293.48,-70.4"/>
<polygon fill="#63b8ff" stroke="#63b8ff" points="338.15,-87.62 348.73,-87.18 340.18,-80.92 338.15,-87.62"/>
</a>
</g>
</g>
<!-- Node4 -->
<g id="Node000004" class="node">
<title>Node4</title>
<g id="a_Node000004"><a xlink:href="../../d4/dee/a00008.html#ac8db332851793f138f93c64b45f0968d" target="_top" xlink:title=" ">
<polygon fill="white" stroke="#666666" points="168.88,-89 95.88,-89 95.88,-69 168.88,-69 168.88,-89"/>
<text text-anchor="middle" x="132.38" y="-75.5" font-family="Helvetica,sans-Serif" font-size="10.00">ecat_slv_poll</text>
</a>
</g>
</g>
<!-- Node3&#45;&gt;Node4 -->
<g id="edge3_Node000003_Node000004" class="edge">
<title>Node3&#45;&gt;Node4</title>
<g id="a_edge3_Node000003_Node000004"><a xlink:title=" ">
<path fill="none" stroke="#63b8ff" d="M200.74,-68.67C189.98,-70.32 178.99,-72 169.1,-73.52"/>
<polygon fill="#63b8ff" stroke="#63b8ff" points="200.98,-72.17 210.33,-67.2 199.92,-65.25 200.98,-72.17"/>
</a>
</g>
</g>
<!-- Node6 -->
<g id="Node000006" class="node">
<title>Node6</title>
<g id="a_Node000006"><a xlink:href="../../d4/dee/a00008.html#adf1311ff3a94e7d4a01081e9765edb53" target="_top" xlink:title=" ">
<polygon fill="white" stroke="#666666" points="176,-51 88.75,-51 88.75,-31 176,-31 176,-51"/>
<text text-anchor="middle" x="132.38" y="-37.5" font-family="Helvetica,sans-Serif" font-size="10.00">ecat_slv_worker</text>
</a>
</g>
</g>
<!-- Node3&#45;&gt;Node6 -->
<g id="edge5_Node000003_Node000006" class="edge">
<title>Node3&#45;&gt;Node6</title>
<g id="a_edge5_Node000003_Node000006"><a xlink:title=" ">
<path fill="none" stroke="#63b8ff" d="M200.48,-51.29C192.36,-50.05 184.12,-48.78 176.32,-47.59"/>
<polygon fill="#63b8ff" stroke="#63b8ff" points="199.92,-54.75 210.33,-52.8 200.98,-47.83 199.92,-54.75"/>
</a>
</g>
</g>
<!-- Node5 -->
<g id="Node000005" class="node">
<title>Node5</title>
<g id="a_Node000005"><a xlink:href="../../d4/dee/a00008.html#a771f616c41967a475e64eaa386edc579" target="_top" xlink:title=" ">
<polygon fill="white" stroke="#666666" points="52.75,-89 0,-89 0,-69 52.75,-69 52.75,-89"/>
<text text-anchor="middle" x="26.38" y="-75.5" font-family="Helvetica,sans-Serif" font-size="10.00">ecat_slv</text>
</a>
</g>
</g>
<!-- Node4&#45;&gt;Node5 -->
<g id="edge4_Node000004_Node000005" class="edge">
<title>Node4&#45;&gt;Node5</title>
<g id="a_edge4_Node000004_Node000005"><a xlink:title=" ">
<path fill="none" stroke="#63b8ff" d="M84.16,-79C73.45,-79 62.47,-79 53.06,-79"/>
<polygon fill="#63b8ff" stroke="#63b8ff" points="84.07,-82.5 94.07,-79 84.07,-75.5 84.07,-82.5"/>
</a>
</g>
</g>
<!-- Node7&#45;&gt;Node3 -->
<g id="edge7_Node000007_Node000003" class="edge">
<title>Node7&#45;&gt;Node3</title>
<g id="a_edge7_Node000007_Node000003"><a xlink:title=" ">
<path fill="none" stroke="#63b8ff" d="M332.52,-60C323.12,-60 313.69,-60 304.88,-60"/>
<polygon fill="#63b8ff" stroke="#63b8ff" points="332.43,-63.5 342.43,-60 332.43,-56.5 332.43,-63.5"/>
</a>
</g>
</g>
<!-- Node8&#45;&gt;Node3 -->
<g id="edge9_Node000008_Node000003" class="edge">
<title>Node8&#45;&gt;Node3</title>
<g id="a_edge9_Node000008_Node000003"><a xlink:title=" ">
<path fill="none" stroke="#63b8ff" d="M339.35,-35.67C323.53,-40.48 307.22,-45.43 293.48,-49.6"/>
<polygon fill="#63b8ff" stroke="#63b8ff" points="340.18,-39.08 348.73,-32.82 338.15,-32.38 340.18,-39.08"/>
</a>
</g>
</g>
</g>
</svg>
