<?xml version="1.0" encoding="UTF-8" standalone="no"?>
<!DOCTYPE svg PUBLIC "-//W3C//DTD SVG 1.1//EN"
 "http://www.w3.org/Graphics/SVG/1.1/DTD/svg11.dtd">
<!-- Generated by graphviz version 12.2.1 (20241206.2353)
 -->
<!-- Title: SDO_infoerror Pages: 1 -->
<svg width="543pt" height="104pt"
 viewBox="0.00 0.00 542.50 104.00" xmlns="http://www.w3.org/2000/svg" xmlns:xlink="http://www.w3.org/1999/xlink">
<g id="graph0" class="graph" transform="scale(1 1) rotate(0) translate(4 100)">
<title>SDO_infoerror</title>
<!-- Node1 -->
<g id="Node000001" class="node">
<title>Node1</title>
<g id="a_Node000001"><a xlink:title=" ">
<polygon fill="#999999" stroke="#666666" points="534.5,-58 456.25,-58 456.25,-38 534.5,-38 534.5,-58"/>
<text text-anchor="middle" x="495.38" y="-44.5" font-family="Helvetica,sans-Serif" font-size="10.00">SDO_infoerror</text>
</a>
</g>
</g>
<!-- Node2 -->
<g id="Node000002" class="node">
<title>Node2</title>
<g id="a_Node000002"><a xlink:href="../../db/db2/a00020.html#a173e63f4308ce174122a1b57fd4aa497" target="_top" xlink:title=" ">
<polygon fill="white" stroke="#666666" points="413.88,-96 346.88,-96 346.88,-76 413.88,-76 413.88,-96"/>
<text text-anchor="middle" x="380.38" y="-82.5" font-family="Helvetica,sans-Serif" font-size="10.00">SDO_geted</text>
</a>
</g>
</g>
<!-- Node1&#45;&gt;Node2 -->
<g id="edge1_Node000001_Node000002" class="edge">
<title>Node1&#45;&gt;Node2</title>
<g id="a_edge1_Node000001_Node000002"><a xlink:title=" ">
<path fill="none" stroke="#63b8ff" d="M452.41,-62.11C439.17,-66.56 424.79,-71.4 412.45,-75.55"/>
<polygon fill="#63b8ff" stroke="#63b8ff" points="453.4,-65.47 461.76,-58.97 451.17,-58.84 453.4,-65.47"/>
</a>
</g>
</g>
<!-- Node7 -->
<g id="Node000007" class="node">
<title>Node7</title>
<g id="a_Node000007"><a xlink:href="../../db/db2/a00020.html#a8723103265a2c3056936d12561f74c0a" target="_top" xlink:title=" ">
<polygon fill="white" stroke="#666666" points="413.88,-58 346.88,-58 346.88,-38 413.88,-38 413.88,-58"/>
<text text-anchor="middle" x="380.38" y="-44.5" font-family="Helvetica,sans-Serif" font-size="10.00">SDO_getod</text>
</a>
</g>
</g>
<!-- Node1&#45;&gt;Node7 -->
<g id="edge6_Node000001_Node000007" class="edge">
<title>Node1&#45;&gt;Node7</title>
<g id="a_edge6_Node000001_Node000007"><a xlink:title=" ">
<path fill="none" stroke="#63b8ff" d="M444.41,-48C434.15,-48 423.6,-48 414.13,-48"/>
<polygon fill="#63b8ff" stroke="#63b8ff" points="444.29,-51.5 454.29,-48 444.29,-44.5 444.29,-51.5"/>
</a>
</g>
</g>
<!-- Node8 -->
<g id="Node000008" class="node">
<title>Node8</title>
<g id="a_Node000008"><a xlink:href="../../db/db2/a00020.html#a811536ea61cc3a38ce3de863a8a2e38b" target="_top" xlink:title=" ">
<polygon fill="white" stroke="#666666" points="420.25,-20 340.5,-20 340.5,0 420.25,0 420.25,-20"/>
<text text-anchor="middle" x="380.38" y="-6.5" font-family="Helvetica,sans-Serif" font-size="10.00">SDO_getodlist</text>
</a>
</g>
</g>
<!-- Node1&#45;&gt;Node8 -->
<g id="edge8_Node000001_Node000008" class="edge">
<title>Node1&#45;&gt;Node8</title>
<g id="a_edge8_Node000001_Node000008"><a xlink:title=" ">
<path fill="none" stroke="#63b8ff" d="M452.41,-33.89C439.17,-29.44 424.79,-24.6 412.45,-20.45"/>
<polygon fill="#63b8ff" stroke="#63b8ff" points="451.17,-37.16 461.76,-37.03 453.4,-30.53 451.17,-37.16"/>
</a>
</g>
</g>
<!-- Node3 -->
<g id="Node000003" class="node">
<title>Node3</title>
<g id="a_Node000003"><a xlink:href="../../db/db2/a00020.html#a71c76794b7e4ed125cc9cda0e8508ccd" target="_top" xlink:title="Processes the CoE (CANopen over EtherCAT) protocol.">
<polygon fill="white" stroke="#666666" points="304.5,-58 212,-58 212,-38 304.5,-38 304.5,-58"/>
<text text-anchor="middle" x="258.25" y="-44.5" font-family="Helvetica,sans-Serif" font-size="10.00">ESC_coeprocess</text>
</a>
</g>
</g>
<!-- Node2&#45;&gt;Node3 -->
<g id="edge2_Node000002_Node000003" class="edge">
<title>Node2&#45;&gt;Node3</title>
<g id="a_edge2_Node000002_Node000003"><a xlink:title=" ">
<path fill="none" stroke="#63b8ff" d="M335.83,-72.22C321.37,-67.65 305.54,-62.64 292.03,-58.37"/>
<polygon fill="#63b8ff" stroke="#63b8ff" points="334.52,-75.48 345.11,-75.16 336.63,-68.81 334.52,-75.48"/>
</a>
</g>
</g>
<!-- Node4 -->
<g id="Node000004" class="node">
<title>Node4</title>
<g id="a_Node000004"><a xlink:href="../../d4/dee/a00008.html#ac8db332851793f138f93c64b45f0968d" target="_top" xlink:title="Polling function for the EtherCAT slave stack.">
<polygon fill="white" stroke="#666666" points="168.88,-77 95.88,-77 95.88,-57 168.88,-57 168.88,-77"/>
<text text-anchor="middle" x="132.38" y="-63.5" font-family="Helvetica,sans-Serif" font-size="10.00">ecat_slv_poll</text>
</a>
</g>
</g>
<!-- Node3&#45;&gt;Node4 -->
<g id="edge3_Node000003_Node000004" class="edge">
<title>Node3&#45;&gt;Node4</title>
<g id="a_edge3_Node000003_Node000004"><a xlink:title=" ">
<path fill="none" stroke="#63b8ff" d="M200.74,-56.67C189.98,-58.32 178.99,-60 169.1,-61.52"/>
<polygon fill="#63b8ff" stroke="#63b8ff" points="200.98,-60.17 210.33,-55.2 199.92,-53.25 200.98,-60.17"/>
</a>
</g>
</g>
<!-- Node6 -->
<g id="Node000006" class="node">
<title>Node6</title>
<g id="a_Node000006"><a xlink:href="../../d4/dee/a00008.html#adf1311ff3a94e7d4a01081e9765edb53" target="_top" xlink:title="Handler for SM change, SM0/1, AL CONTROL and EEPROM events, the application control what interrupts t...">
<polygon fill="white" stroke="#666666" points="176,-39 88.75,-39 88.75,-19 176,-19 176,-39"/>
<text text-anchor="middle" x="132.38" y="-25.5" font-family="Helvetica,sans-Serif" font-size="10.00">ecat_slv_worker</text>
</a>
</g>
</g>
<!-- Node3&#45;&gt;Node6 -->
<g id="edge5_Node000003_Node000006" class="edge">
<title>Node3&#45;&gt;Node6</title>
<g id="a_edge5_Node000003_Node000006"><a xlink:title=" ">
<path fill="none" stroke="#63b8ff" d="M200.48,-39.29C192.36,-38.05 184.12,-36.78 176.32,-35.59"/>
<polygon fill="#63b8ff" stroke="#63b8ff" points="199.92,-42.75 210.33,-40.8 200.98,-35.83 199.92,-42.75"/>
</a>
</g>
</g>
<!-- Node5 -->
<g id="Node000005" class="node">
<title>Node5</title>
<g id="a_Node000005"><a xlink:href="../../d4/dee/a00008.html#a771f616c41967a475e64eaa386edc579" target="_top" xlink:title="Main function for the EtherCAT slave stack.">
<polygon fill="white" stroke="#666666" points="52.75,-77 0,-77 0,-57 52.75,-57 52.75,-77"/>
<text text-anchor="middle" x="26.38" y="-63.5" font-family="Helvetica,sans-Serif" font-size="10.00">ecat_slv</text>
</a>
</g>
</g>
<!-- Node4&#45;&gt;Node5 -->
<g id="edge4_Node000004_Node000005" class="edge">
<title>Node4&#45;&gt;Node5</title>
<g id="a_edge4_Node000004_Node000005"><a xlink:title=" ">
<path fill="none" stroke="#63b8ff" d="M84.16,-67C73.45,-67 62.47,-67 53.06,-67"/>
<polygon fill="#63b8ff" stroke="#63b8ff" points="84.07,-70.5 94.07,-67 84.07,-63.5 84.07,-70.5"/>
</a>
</g>
</g>
<!-- Node7&#45;&gt;Node3 -->
<g id="edge7_Node000007_Node000003" class="edge">
<title>Node7&#45;&gt;Node3</title>
<g id="a_edge7_Node000007_Node000003"><a xlink:title=" ">
<path fill="none" stroke="#63b8ff" d="M335.21,-48C325.25,-48 314.66,-48 304.64,-48"/>
<polygon fill="#63b8ff" stroke="#63b8ff" points="335.04,-51.5 345.04,-48 335.04,-44.5 335.04,-51.5"/>
</a>
</g>
</g>
<!-- Node8&#45;&gt;Node3 -->
<g id="edge9_Node000008_Node000003" class="edge">
<title>Node8&#45;&gt;Node3</title>
<g id="a_edge9_Node000008_Node000003"><a xlink:title=" ">
<path fill="none" stroke="#63b8ff" d="M335.61,-23.84C321.31,-28.37 305.66,-33.32 292.28,-37.55"/>
<polygon fill="#63b8ff" stroke="#63b8ff" points="336.31,-27.29 344.79,-20.94 334.2,-20.62 336.31,-27.29"/>
</a>
</g>
</g>
</g>
</svg>
