<?xml version="1.0" encoding="UTF-8" standalone="no"?>
<!DOCTYPE svg PUBLIC "-//W3C//DTD SVG 1.1//EN"
 "http://www.w3.org/Graphics/SVG/1.1/DTD/svg11.dtd">
<!-- Generated by graphviz version 12.2.1 (20241206.2353)
 -->
<!-- Title: SDO_getod Pages: 1 -->
<svg width="334pt" height="121pt"
 viewBox="0.00 0.00 334.25 120.76" xmlns="http://www.w3.org/2000/svg" xmlns:xlink="http://www.w3.org/1999/xlink">
<g id="graph0" class="graph" transform="scale(1 1) rotate(0) translate(4 116.76)">
<title>SDO_getod</title>
<!-- Node1 -->
<g id="Node000001" class="node">
<title>Node1</title>
<g id="a_Node000001"><a xlink:title=" ">
<polygon fill="#999999" stroke="#666666" points="67,-77 0,-77 0,-57 67,-57 67,-77"/>
<text text-anchor="middle" x="33.5" y="-63.5" font-family="Helvetica,sans-Serif" font-size="10.00">SDO_getod</text>
</a>
</g>
</g>
<!-- Node2 -->
<g id="Node000002" class="node">
<title>Node2</title>
<g id="a_Node000002"><a xlink:href="../../d2/de7/a00014.html#a841fc5ea333edff6f722521e0cc257b0" target="_top" xlink:title="Claims a buffer for ESC (EtherCAT Slave Controller) operations.">
<polygon fill="white" stroke="#666666" points="326.25,-77 236.75,-77 236.75,-57 326.25,-57 326.25,-77"/>
<text text-anchor="middle" x="281.5" y="-63.5" font-family="Helvetica,sans-Serif" font-size="10.00">ESC_claimbuffer</text>
</a>
</g>
</g>
<!-- Node1&#45;&gt;Node2 -->
<g id="edge1_Node000001_Node000002" class="edge">
<title>Node1&#45;&gt;Node2</title>
<g id="a_edge1_Node000001_Node000002"><a xlink:title=" ">
<path fill="none" stroke="#63b8ff" d="M48.29,-77.43C61.52,-86.74 82.46,-99.68 103,-105 145.06,-115.88 158.37,-114.58 200.75,-105 219.71,-100.71 239.45,-91.36 254.54,-83"/>
<polygon fill="#63b8ff" stroke="#63b8ff" points="255.95,-86.23 262.87,-78.21 252.46,-80.16 255.95,-86.23"/>
</a>
</g>
</g>
<!-- Node3 -->
<g id="Node000003" class="node">
<title>Node3</title>
<g id="a_Node000003"><a xlink:href="../../db/db2/a00020.html#aac681a56f7758d04a40543c73b00a590" target="_top" xlink:title="Finds an object in the SDO (Service Data Object) dictionary by its index.">
<polygon fill="white" stroke="#666666" points="194.38,-96 109.38,-96 109.38,-76 194.38,-76 194.38,-96"/>
<text text-anchor="middle" x="151.88" y="-82.5" font-family="Helvetica,sans-Serif" font-size="10.00">SDO_findobject</text>
</a>
</g>
</g>
<!-- Node1&#45;&gt;Node3 -->
<g id="edge2_Node000001_Node000003" class="edge">
<title>Node1&#45;&gt;Node3</title>
<g id="a_edge2_Node000001_Node000003"><a xlink:title=" ">
<path fill="none" stroke="#63b8ff" d="M67.23,-72.34C76.8,-73.91 87.53,-75.66 98.02,-77.37"/>
<polygon fill="#63b8ff" stroke="#63b8ff" points="97.32,-80.8 107.75,-78.96 98.45,-73.89 97.32,-80.8"/>
</a>
</g>
</g>
<!-- Node4 -->
<g id="Node000004" class="node">
<title>Node4</title>
<g id="a_Node000004"><a xlink:href="../../db/db2/a00020.html#ac3a3804b9252a5cfd48a14c2db1cf2e1" target="_top" xlink:title="Finds the subindex within a specified index.">
<polygon fill="white" stroke="#666666" points="200.75,-58 103,-58 103,-38 200.75,-38 200.75,-58"/>
<text text-anchor="middle" x="151.88" y="-44.5" font-family="Helvetica,sans-Serif" font-size="10.00">SDO_findsubindex</text>
</a>
</g>
</g>
<!-- Node1&#45;&gt;Node4 -->
<g id="edge3_Node000001_Node000004" class="edge">
<title>Node1&#45;&gt;Node4</title>
<g id="a_edge3_Node000001_Node000004"><a xlink:title=" ">
<path fill="none" stroke="#63b8ff" d="M67.23,-61.66C74.81,-60.42 83.1,-59.06 91.44,-57.7"/>
<polygon fill="#63b8ff" stroke="#63b8ff" points="91.96,-61.17 101.26,-56.1 90.83,-54.26 91.96,-61.17"/>
</a>
</g>
</g>
<!-- Node5 -->
<g id="Node000005" class="node">
<title>Node5</title>
<g id="a_Node000005"><a xlink:href="../../db/db2/a00020.html#aeeb2bf7abc4508c93debe851a39517db" target="_top" xlink:title=" ">
<polygon fill="white" stroke="#666666" points="191,-20 112.75,-20 112.75,0 191,0 191,-20"/>
<text text-anchor="middle" x="151.88" y="-6.5" font-family="Helvetica,sans-Serif" font-size="10.00">SDO_infoerror</text>
</a>
</g>
</g>
<!-- Node1&#45;&gt;Node5 -->
<g id="edge4_Node000001_Node000005" class="edge">
<title>Node1&#45;&gt;Node5</title>
<g id="a_edge4_Node000001_Node000005"><a xlink:title=" ">
<path fill="none" stroke="#63b8ff" d="M51.91,-56.52C65.57,-48.51 85.18,-37.44 103,-29 105.96,-27.6 109.04,-26.21 112.16,-24.86"/>
<polygon fill="#63b8ff" stroke="#63b8ff" points="113.48,-28.11 121.37,-21.04 110.79,-21.64 113.48,-28.11"/>
</a>
</g>
</g>
<!-- Node5&#45;&gt;Node2 -->
<g id="edge5_Node000005_Node000002" class="edge">
<title>Node5&#45;&gt;Node2</title>
<g id="a_edge5_Node000005_Node000002"><a xlink:title=" ">
<path fill="none" stroke="#63b8ff" d="M180.1,-20.44C186.88,-23.14 194.11,-26.1 200.75,-29 217.04,-36.1 234.92,-44.56 249.62,-51.69"/>
<polygon fill="#63b8ff" stroke="#63b8ff" points="247.81,-54.7 258.33,-55.95 250.88,-48.41 247.81,-54.7"/>
</a>
</g>
</g>
</g>
</svg>
