<?xml version="1.0" encoding="UTF-8" standalone="no"?>
<!DOCTYPE svg PUBLIC "-//W3C//DTD SVG 1.1//EN"
 "http://www.w3.org/Graphics/SVG/1.1/DTD/svg11.dtd">
<!-- Generated by graphviz version 3.0.0 (20220226.1711)
 -->
<!-- Title: sampleProcess Pages: 1 -->
<svg width="426pt" height="39pt"
 viewBox="0.00 0.00 426.00 39.00" xmlns="http://www.w3.org/2000/svg" xmlns:xlink="http://www.w3.org/1999/xlink">
<g id="graph0" class="graph" transform="scale(1 1) rotate(0) translate(4 35)">
<title>sampleProcess</title>
<!-- Node1 -->
<g id="node1" class="node">
<title>Node1</title>
<g id="a_node1"><a xlink:title="Transmit completed callback.">
<polygon fill="#bfbfbf" stroke="black" points="334,-6 334,-25 418,-25 418,-6 334,-6"/>
<text text-anchor="middle" x="376" y="-13" font-family="Helvetica,sans-Serif" font-size="10.00">sampleProcess</text>
</a>
</g>
</g>
<!-- Node2 -->
<g id="node2" class="node">
<title>Node2</title>
<g id="a_node2"><a xlink:href="../../d6/df8/class_b_s_p_1_1_c_t_a_s8424.html#af1a3baaf296e7a15e6ebbe0fb60e1120" target="_top" xlink:title="I2S Transmit Completed callback.">
<polygon fill="none" stroke="black" points="140,-6 140,-25 298,-25 298,-6 140,-6"/>
<text text-anchor="middle" x="219" y="-13" font-family="Helvetica,sans-Serif" font-size="10.00">BSP::CTAS8424::txCpltCallback</text>
</a>
</g>
</g>
<!-- Node1&#45;&gt;Node2 -->
<g id="edge1" class="edge">
<title>Node1&#45;&gt;Node2</title>
<path fill="none" stroke="midnightblue" d="M323.74,-15.5C315.53,-15.5 306.88,-15.5 298.21,-15.5"/>
<polygon fill="midnightblue" stroke="midnightblue" points="323.87,-19 333.87,-15.5 323.87,-12 323.87,-19"/>
</g>
<!-- Node3 -->
<g id="node3" class="node">
<title>Node3</title>
<g id="a_node3"><a xlink:href="../../dc/dda/class_b_s_p_1_1_c_audio_driver.html#a6ef37486edf65d9d7f76cad495df4278" target="_top" xlink:title="Transmit Competed Callback.">
<polygon fill="none" stroke="black" points="0,-0.5 0,-30.5 104,-30.5 104,-0.5 0,-0.5"/>
<text text-anchor="start" x="8" y="-18.5" font-family="Helvetica,sans-Serif" font-size="10.00">BSP::CAudioDriver::</text>
<text text-anchor="middle" x="52" y="-7.5" font-family="Helvetica,sans-Serif" font-size="10.00">txCpltCallback</text>
</a>
</g>
</g>
<!-- Node2&#45;&gt;Node3 -->
<g id="edge2" class="edge">
<title>Node2&#45;&gt;Node3</title>
<path fill="none" stroke="midnightblue" d="M129.58,-15.5C120.85,-15.5 112.21,-15.5 104.05,-15.5"/>
<polygon fill="midnightblue" stroke="midnightblue" points="129.85,-19 139.85,-15.5 129.85,-12 129.85,-19"/>
</g>
</g>
</svg>
