<?xml version="1.0" encoding="UTF-8" standalone="no"?>
<!DOCTYPE svg PUBLIC "-//W3C//DTD SVG 1.1//EN"
 "http://www.w3.org/Graphics/SVG/1.1/DTD/svg11.dtd">
<!-- Generated by graphviz version 12.2.1 (20241206.2353)
 -->
<!-- Title: esc.h Pages: 1 -->
<svg width="267pt" height="140pt"
 viewBox="0.00 0.00 266.75 140.00" xmlns="http://www.w3.org/2000/svg" xmlns:xlink="http://www.w3.org/1999/xlink">
<g id="graph0" class="graph" transform="scale(1 1) rotate(0) translate(4 136)">
<title>esc.h</title>
<!-- Node1 -->
<g id="Node000001" class="node">
<title>Node1</title>
<g id="a_Node000001"><a xlink:title="EtherCAT Slave Controller (ESC) header file.">
<polygon fill="#999999" stroke="#666666" points="144.88,-132 104.88,-132 104.88,-112 144.88,-112 144.88,-132"/>
<text text-anchor="middle" x="124.88" y="-118.5" font-family="Helvetica,sans-Serif" font-size="10.00">esc.h</text>
</a>
</g>
</g>
<!-- Node2 -->
<g id="Node000002" class="node">
<title>Node2</title>
<g id="a_Node000002"><a xlink:href="../../d5/df9/a00044.html" target="_top" xlink:title="Default options for the EtherCAT Slave Controller (ESC).">
<polygon fill="white" stroke="#666666" points="67.75,-76 12,-76 12,-56 67.75,-56 67.75,-76"/>
<text text-anchor="middle" x="39.88" y="-62.5" font-family="Helvetica,sans-Serif" font-size="10.00">options.h</text>
</a>
</g>
</g>
<!-- Node1&#45;&gt;Node2 -->
<g id="edge1_Node000001_Node000002" class="edge">
<title>Node1&#45;&gt;Node2</title>
<g id="a_edge1_Node000001_Node000002"><a xlink:title=" ">
<path fill="none" stroke="#63b8ff" d="M110.07,-111.59C97.47,-103.59 79.12,-91.93 64.34,-82.54"/>
<polygon fill="#63b8ff" stroke="#63b8ff" points="66.39,-79.7 56.07,-77.29 62.64,-85.61 66.39,-79.7"/>
</a>
</g>
</g>
<!-- Node4 -->
<g id="Node000004" class="node">
<title>Node4</title>
<g id="a_Node000004"><a xlink:title=" ">
<polygon fill="#e0e0e0" stroke="#999999" points="152.25,-20 117.5,-20 117.5,0 152.25,0 152.25,-20"/>
<text text-anchor="middle" x="134.88" y="-6.5" font-family="Helvetica,sans-Serif" font-size="10.00">cc.h</text>
</a>
</g>
</g>
<!-- Node1&#45;&gt;Node4 -->
<g id="edge3_Node000001_Node000004" class="edge">
<title>Node1&#45;&gt;Node4</title>
<g id="a_edge3_Node000001_Node000004"><a xlink:title=" ">
<path fill="none" stroke="#63b8ff" d="M121.62,-111.68C117.64,-99.01 111.9,-75.65 115.88,-56 117.64,-47.29 121.14,-38.17 124.67,-30.43"/>
<polygon fill="#63b8ff" stroke="#63b8ff" points="127.71,-32.18 128.98,-21.66 121.43,-29.09 127.71,-32.18"/>
</a>
</g>
</g>
<!-- Node5 -->
<g id="Node000005" class="node">
<title>Node5</title>
<g id="a_Node000005"><a xlink:href="../../d3/d52/a00023.html" target="_top" xlink:title="Definitions for EtherCAT Slave Controller (ESC) CoE (CANopen over EtherCAT) object dictionary.">
<polygon fill="white" stroke="#666666" points="185.38,-76 124.38,-76 124.38,-56 185.38,-56 185.38,-76"/>
<text text-anchor="middle" x="154.88" y="-62.5" font-family="Helvetica,sans-Serif" font-size="10.00">esc_coe.h</text>
</a>
</g>
</g>
<!-- Node1&#45;&gt;Node5 -->
<g id="edge4_Node000001_Node000005" class="edge">
<title>Node1&#45;&gt;Node5</title>
<g id="a_edge4_Node000001_Node000005"><a xlink:title=" ">
<path fill="none" stroke="#63b8ff" d="M130.1,-111.59C133.97,-104.63 139.38,-94.89 144.16,-86.29"/>
<polygon fill="#63b8ff" stroke="#63b8ff" points="147.18,-88.06 148.97,-77.62 141.06,-84.66 147.18,-88.06"/>
</a>
</g>
</g>
<!-- Node6 -->
<g id="Node000006" class="node">
<title>Node6</title>
<g id="a_Node000006"><a xlink:title=" ">
<polygon fill="#e0e0e0" stroke="#999999" points="258.75,-76 203,-76 203,-56 258.75,-56 258.75,-76"/>
<text text-anchor="middle" x="230.88" y="-62.5" font-family="Helvetica,sans-Serif" font-size="10.00">stdbool.h</text>
</a>
</g>
</g>
<!-- Node1&#45;&gt;Node6 -->
<g id="edge6_Node000001_Node000006" class="edge">
<title>Node1&#45;&gt;Node6</title>
<g id="a_edge6_Node000001_Node000006"><a xlink:title=" ">
<path fill="none" stroke="#63b8ff" d="M143.34,-111.59C159.58,-103.32 183.48,-91.14 202.21,-81.6"/>
<polygon fill="#63b8ff" stroke="#63b8ff" points="203.6,-84.82 210.92,-77.17 200.42,-78.59 203.6,-84.82"/>
</a>
</g>
</g>
<!-- Node3 -->
<g id="Node000003" class="node">
<title>Node3</title>
<g id="a_Node000003"><a xlink:title=" ">
<polygon fill="#e0e0e0" stroke="#999999" points="79.75,-20 0,-20 0,0 79.75,0 79.75,-20"/>
<text text-anchor="middle" x="39.88" y="-6.5" font-family="Helvetica,sans-Serif" font-size="10.00">ecat_options.h</text>
</a>
</g>
</g>
<!-- Node2&#45;&gt;Node3 -->
<g id="edge2_Node000002_Node000003" class="edge">
<title>Node2&#45;&gt;Node3</title>
<g id="a_edge2_Node000002_Node000003"><a xlink:title=" ">
<path fill="none" stroke="#63b8ff" d="M39.88,-55.59C39.88,-49.01 39.88,-39.96 39.88,-31.73"/>
<polygon fill="#63b8ff" stroke="#63b8ff" points="43.38,-31.81 39.88,-21.81 36.38,-31.81 43.38,-31.81"/>
</a>
</g>
</g>
<!-- Node5&#45;&gt;Node4 -->
<g id="edge5_Node000005_Node000004" class="edge">
<title>Node5&#45;&gt;Node4</title>
<g id="a_edge5_Node000005_Node000004"><a xlink:title=" ">
<path fill="none" stroke="#63b8ff" d="M151.39,-55.59C148.87,-48.78 145.36,-39.32 142.23,-30.86"/>
<polygon fill="#63b8ff" stroke="#63b8ff" points="145.6,-29.88 138.84,-21.72 139.04,-32.31 145.6,-29.88"/>
</a>
</g>
</g>
</g>
</svg>
