<?xml version="1.0" encoding="UTF-8" standalone="no"?>
<!DOCTYPE svg PUBLIC "-//W3C//DTD SVG 1.1//EN"
 "http://www.w3.org/Graphics/SVG/1.1/DTD/svg11.dtd">
<!-- Generated by graphviz version 13.1.0 (20250701.0955)
 -->
<!-- Title: Lib::HAL::I2C::Master::TransperentBase::send Pages: 1 -->
<svg width="262pt" height="178pt"
 viewBox="0.00 0.00 262.00 178.00" xmlns="http://www.w3.org/2000/svg" xmlns:xlink="http://www.w3.org/1999/xlink">
<g id="graph0" class="graph" transform="scale(1 1) rotate(0) translate(4 174)">
<title>Lib::HAL::I2C::Master::TransperentBase::send</title>
<!-- Node1 -->
<g id="Node000001" class="node">
<title>Node1</title>
<g id="a_Node000001"><a xlink:title="Sends data to device using a simple address.">
<polygon fill="#999999" stroke="#666666" points="254,-99 138.25,-99 138.25,-70 254,-70 254,-99"/>
<text xml:space="preserve" text-anchor="start" x="146.25" y="-86.45" font-family="Arial" font-size="9.00">Lib::HAL::I2C::Master</text>
<text xml:space="preserve" text-anchor="middle" x="196.12" y="-75.95" font-family="Arial" font-size="9.00">::TransperentBase::send</text>
</a>
</g>
</g>
<!-- Node2 -->
<g id="Node000002" class="node">
<title>Node2</title>
<g id="a_Node000002"><a xlink:href="$d8/d7d/class_lib_1_1_h_a_l_1_1_i2_c_1_1_master_1_1_port_3_01_d_m_a_01_4.html#ae83d9b900d6e4ace5f039cb46916c069" xlink:title="Sends data to I2C device memory using DMA.">
<polygon fill="white" stroke="#666666" points="102.25,-170 0,-170 0,-141 102.25,-141 102.25,-170"/>
<text xml:space="preserve" text-anchor="start" x="8" y="-157.45" font-family="Arial" font-size="9.00">Lib::HAL::I2C::Master</text>
<text xml:space="preserve" text-anchor="middle" x="51.12" y="-146.95" font-family="Arial" font-size="9.00">::Port&lt; DMA &gt;::send</text>
</a>
</g>
</g>
<!-- Node1&#45;&gt;Node2 -->
<g id="edge1_Node000001_Node000002" class="edge">
<title>Node1&#45;&gt;Node2</title>
<g id="a_edge1_Node000001_Node000002"><a xlink:title=" ">
<path fill="none" stroke="#63b8ff" d="M157.28,-104.57C140.51,-113.33 120.49,-123.61 102.25,-132.5 96.83,-135.14 91.04,-137.88 85.39,-140.5"/>
<polygon fill="#63b8ff" stroke="#63b8ff" points="158.68,-107.78 165.91,-100.04 155.43,-101.59 158.68,-107.78"/>
</a>
</g>
</g>
<!-- Node3 -->
<g id="Node000003" class="node">
<title>Node3</title>
<g id="a_Node000003"><a xlink:href="$d8/d7d/class_lib_1_1_h_a_l_1_1_i2_c_1_1_master_1_1_port_3_01_d_m_a_01_4.html#a97c79074899a998d274f71c3de1c89ba" xlink:title="Sends data to I2C device using DMA.">
<polygon fill="white" stroke="#666666" points="102.25,-123 0,-123 0,-94 102.25,-94 102.25,-123"/>
<text xml:space="preserve" text-anchor="start" x="8" y="-110.45" font-family="Arial" font-size="9.00">Lib::HAL::I2C::Master</text>
<text xml:space="preserve" text-anchor="middle" x="51.12" y="-99.95" font-family="Arial" font-size="9.00">::Port&lt; DMA &gt;::send</text>
</a>
</g>
</g>
<!-- Node1&#45;&gt;Node3 -->
<g id="edge2_Node000001_Node000003" class="edge">
<title>Node1&#45;&gt;Node3</title>
<g id="a_edge2_Node000001_Node000003"><a xlink:title=" ">
<path fill="none" stroke="#63b8ff" d="M126.47,-96.02C118.41,-97.38 110.3,-98.74 102.56,-100.04"/>
<polygon fill="#63b8ff" stroke="#63b8ff" points="127.01,-99.48 136.29,-94.37 125.85,-92.58 127.01,-99.48"/>
</a>
</g>
</g>
<!-- Node4 -->
<g id="Node000004" class="node">
<title>Node4</title>
<g id="a_Node000004"><a xlink:href="$df/d3a/class_lib_1_1_h_a_l_1_1_i2_c_1_1_master_1_1_port_3_01_i_t_01_4.html#a5089355ba7fa5bad29c237f1b479d255" xlink:title="Sends data to I2C device memory in interrupt mode.">
<polygon fill="white" stroke="#666666" points="102.25,-76 0,-76 0,-47 102.25,-47 102.25,-76"/>
<text xml:space="preserve" text-anchor="start" x="8" y="-63.45" font-family="Arial" font-size="9.00">Lib::HAL::I2C::Master</text>
<text xml:space="preserve" text-anchor="middle" x="51.12" y="-52.95" font-family="Arial" font-size="9.00">::Port&lt; IT &gt;::send</text>
</a>
</g>
</g>
<!-- Node1&#45;&gt;Node4 -->
<g id="edge3_Node000001_Node000004" class="edge">
<title>Node1&#45;&gt;Node4</title>
<g id="a_edge3_Node000001_Node000004"><a xlink:title=" ">
<path fill="none" stroke="#63b8ff" d="M126.47,-73.46C118.41,-72.16 110.3,-70.86 102.56,-69.61"/>
<polygon fill="#63b8ff" stroke="#63b8ff" points="125.86,-76.9 136.29,-75.04 126.97,-69.99 125.86,-76.9"/>
</a>
</g>
</g>
<!-- Node5 -->
<g id="Node000005" class="node">
<title>Node5</title>
<g id="a_Node000005"><a xlink:href="$df/d3a/class_lib_1_1_h_a_l_1_1_i2_c_1_1_master_1_1_port_3_01_i_t_01_4.html#af5332fd81c5483bb600cb832699c893d" xlink:title="Sends data to I2C device in interrupt mode.">
<polygon fill="white" stroke="#666666" points="102.25,-29 0,-29 0,0 102.25,0 102.25,-29"/>
<text xml:space="preserve" text-anchor="start" x="8" y="-16.45" font-family="Arial" font-size="9.00">Lib::HAL::I2C::Master</text>
<text xml:space="preserve" text-anchor="middle" x="51.12" y="-5.95" font-family="Arial" font-size="9.00">::Port&lt; IT &gt;::send</text>
</a>
</g>
</g>
<!-- Node1&#45;&gt;Node5 -->
<g id="edge4_Node000001_Node000005" class="edge">
<title>Node1&#45;&gt;Node5</title>
<g id="a_edge4_Node000001_Node000005"><a xlink:title=" ">
<path fill="none" stroke="#63b8ff" d="M155.63,-64.79C139.15,-56.61 119.8,-47.05 102.25,-38.5 96.18,-35.54 89.68,-32.41 83.44,-29.41"/>
<polygon fill="#63b8ff" stroke="#63b8ff" points="153.61,-67.7 164.12,-69.02 156.73,-61.43 153.61,-67.7"/>
</a>
</g>
</g>
</g>
</svg>
