<?xml version="1.0" encoding="UTF-8" standalone="no"?>
<!DOCTYPE svg PUBLIC "-//W3C//DTD SVG 1.1//EN"
 "http://www.w3.org/Graphics/SVG/1.1/DTD/svg11.dtd">
<!-- Generated by graphviz version 12.2.1 (20241206.2353)
 -->
<!-- Title: Lib::Xbee::Core::ComDriver::Config Pages: 1 -->
<svg width="138pt" height="104pt"
 viewBox="0.00 0.00 137.50 104.00" xmlns="http://www.w3.org/2000/svg" xmlns:xlink="http://www.w3.org/1999/xlink">
<g id="graph0" class="graph" transform="scale(1 1) rotate(0) translate(4 100)">
<title>Lib::Xbee::Core::ComDriver::Config</title>
<!-- Node1 -->
<g id="Node000001" class="node">
<title>Node1</title>
<g id="a_Node000001"><a xlink:title="Configuration settings for the ComDriver class.">
<polygon fill="#999999" stroke="none" points="129.5,-96 0,-96 0,0 129.5,0 129.5,-96"/>
<text text-anchor="start" x="4" y="-82.5" font-family="Helvetica,sans-Serif" font-size="10.00">Lib::Xbee::Core::ComDriver</text>
<text text-anchor="start" x="47.5" y="-70.5" font-family="Helvetica,sans-Serif" font-size="10.00">::Config</text>
<text text-anchor="start" x="27.75" y="-54.5" font-family="Helvetica,sans-Serif" font-size="10.00">+</text>
<text text-anchor="start" x="61.5" y="-54.5" font-family="Helvetica,sans-Serif" font-size="10.00">rx</text>
<text text-anchor="start" x="27.75" y="-38.5" font-family="Helvetica,sans-Serif" font-size="10.00">+</text>
<text text-anchor="start" x="61.5" y="-38.5" font-family="Helvetica,sans-Serif" font-size="10.00">tx</text>
<text text-anchor="start" x="27.75" y="-22.5" font-family="Helvetica,sans-Serif" font-size="10.00">+</text>
<text text-anchor="start" x="61.5" y="-22.5" font-family="Helvetica,sans-Serif" font-size="10.00">xrst</text>
<text text-anchor="start" x="63.25" y="-6.5" font-family="Helvetica,sans-Serif" font-size="10.00"> </text>
<polygon fill="#666666" stroke="#666666" points="0,-66 0,-66 129.5,-66 129.5,-66 0,-66"/>
<polygon fill="#666666" stroke="#666666" points="0,-18 0,-18 59.5,-18 59.5,-18 0,-18"/>
<polygon fill="#666666" stroke="#666666" points="59.5,-18 59.5,-18 129.5,-18 129.5,-18 59.5,-18"/>
<polygon fill="none" stroke="#666666" points="0,0 0,-96 129.5,-96 129.5,0 0,0"/>
</a>
</g>
</g>
</g>
</svg>
