<?xml version="1.0" encoding="UTF-8" standalone="no"?>
<!DOCTYPE svg PUBLIC "-//W3C//DTD SVG 1.1//EN"
 "http://www.w3.org/Graphics/SVG/1.1/DTD/svg11.dtd">
<!-- Generated by graphviz version 12.2.1 (20241206.2353)
 -->
<!-- Title: Base.hpp Pages: 1 -->
<svg width="104pt" height="140pt"
 viewBox="0.00 0.00 103.50 140.00" xmlns="http://www.w3.org/2000/svg" xmlns:xlink="http://www.w3.org/1999/xlink">
<g id="graph0" class="graph" transform="scale(1 1) rotate(0) translate(4 136)">
<title>Base.hpp</title>
<!-- Node1 -->
<g id="Node000001" class="node">
<title>Node1</title>
<g id="a_Node000001"><a xlink:title=" ">
<polygon fill="#999999" stroke="#666666" points="76.38,-132 19.13,-132 19.13,-112 76.38,-112 76.38,-132"/>
<text text-anchor="middle" x="47.75" y="-118.5" font-family="Helvetica,sans-Serif" font-size="10.00">Base.hpp</text>
</a>
</g>
</g>
<!-- Node2 -->
<g id="Node000002" class="node">
<title>Node2</title>
<g id="a_Node000002"><a xlink:href="../../dc/de6/a00167.html" target="_top" xlink:title="Header file for the Timer Encoder class.">
<polygon fill="white" stroke="#666666" points="95.5,-76 0,-76 0,-56 95.5,-56 95.5,-76"/>
<text text-anchor="middle" x="47.75" y="-62.5" font-family="Helvetica,sans-Serif" font-size="10.00">TimerEncoder.hpp</text>
</a>
</g>
</g>
<!-- Node1&#45;&gt;Node2 -->
<g id="edge1_Node000001_Node000002" class="edge">
<title>Node1&#45;&gt;Node2</title>
<g id="a_edge1_Node000001_Node000002"><a xlink:title=" ">
<path fill="none" stroke="#63b8ff" d="M47.75,-100.13C47.75,-91.9 47.75,-82.85 47.75,-76.3"/>
<polygon fill="#63b8ff" stroke="#63b8ff" points="44.25,-100.08 47.75,-110.08 51.25,-100.08 44.25,-100.08"/>
</a>
</g>
</g>
<!-- Node3 -->
<g id="Node000003" class="node">
<title>Node3</title>
<g id="a_Node000003"><a xlink:href="../../d5/dcb/a00170.html" target="_top" xlink:title="Header file for the TIM module in the HAL library.">
<polygon fill="white" stroke="#666666" points="73.75,-20 21.75,-20 21.75,0 73.75,0 73.75,-20"/>
<text text-anchor="middle" x="47.75" y="-6.5" font-family="Helvetica,sans-Serif" font-size="10.00">TIM.hpp</text>
</a>
</g>
</g>
<!-- Node2&#45;&gt;Node3 -->
<g id="edge2_Node000002_Node000003" class="edge">
<title>Node2&#45;&gt;Node3</title>
<g id="a_edge2_Node000002_Node000003"><a xlink:title=" ">
<path fill="none" stroke="#63b8ff" d="M47.75,-44.13C47.75,-35.9 47.75,-26.85 47.75,-20.3"/>
<polygon fill="#63b8ff" stroke="#63b8ff" points="44.25,-44.08 47.75,-54.08 51.25,-44.08 44.25,-44.08"/>
</a>
</g>
</g>
</g>
</svg>
