<?xml version="1.0" encoding="UTF-8" standalone="no"?>
<!DOCTYPE svg PUBLIC "-//W3C//DTD SVG 1.1//EN"
 "http://www.w3.org/Graphics/SVG/1.1/DTD/svg11.dtd">
<!-- Generated by graphviz version 13.1.0 (20250701.0955)
 -->
<!-- Title: Lib::Xbee::API::Service::NetworkDiscovery::start Pages: 1 -->
<svg width="511pt" height="78pt"
 viewBox="0.00 0.00 511.00 78.00" xmlns="http://www.w3.org/2000/svg" xmlns:xlink="http://www.w3.org/1999/xlink">
<g id="graph0" class="graph" transform="scale(1 1) rotate(0) translate(4 74)">
<title>Lib::Xbee::API::Service::NetworkDiscovery::start</title>
<!-- Node1 -->
<g id="Node000001" class="node">
<title>Node1</title>
<g id="a_Node000001"><a xlink:title="Starts network discovery to scan the wireless network.">
<polygon fill="#999999" stroke="#666666" points="128.5,-54 0,-54 0,-22 128.5,-22 128.5,-54"/>
<text xml:space="preserve" text-anchor="start" x="8" y="-40.5" font-family="Helvetica,sans-Serif" font-size="10.00">Lib::Xbee::API::Service</text>
<text xml:space="preserve" text-anchor="middle" x="64.25" y="-28.5" font-family="Helvetica,sans-Serif" font-size="10.00">::NetworkDiscovery::start</text>
</a>
</g>
</g>
<!-- Node2 -->
<g id="Node000002" class="node">
<title>Node2</title>
<g id="a_Node000002"><a xlink:href="../../d2/d82/a01404.html#a90af82736388b26add41da3886a12390" target="_top" xlink:title="Checks if the timeout has expired based on the current tick count.">
<polygon fill="white" stroke="#666666" points="296.75,-32 174.25,-32 174.25,0 296.75,0 296.75,-32"/>
<text xml:space="preserve" text-anchor="start" x="182.25" y="-18.5" font-family="Helvetica,sans-Serif" font-size="10.00">Lib::FreeRTOS::Timeout</text>
<text xml:space="preserve" text-anchor="middle" x="235.5" y="-6.5" font-family="Helvetica,sans-Serif" font-size="10.00">::check</text>
</a>
</g>
</g>
<!-- Node1&#45;&gt;Node2 -->
<g id="edge1_Node000001_Node000002" class="edge">
<title>Node1&#45;&gt;Node2</title>
<g id="a_edge1_Node000001_Node000002"><a xlink:title=" ">
<path fill="none" stroke="#63b8ff" d="M128.75,-29.75C139.87,-28.3 151.5,-26.79 162.82,-25.32"/>
<polygon fill="#63b8ff" stroke="#63b8ff" points="163.04,-28.82 172.5,-24.06 162.13,-21.88 163.04,-28.82"/>
</a>
</g>
</g>
<!-- Node5 -->
<g id="Node000005" class="node">
<title>Node5</title>
<g id="a_Node000005"><a xlink:href="../../d2/d82/a01404.html#a3cc4872629bf9a45b4962072bb1592d7" target="_top" xlink:title="Sets the timeout to the specified value and records the current tick count as the start.">
<polygon fill="white" stroke="#666666" points="306.5,-70 164.5,-70 164.5,-50 306.5,-50 306.5,-70"/>
<text xml:space="preserve" text-anchor="middle" x="235.5" y="-56.5" font-family="Helvetica,sans-Serif" font-size="10.00">Lib::FreeRTOS::Timeout::set</text>
</a>
</g>
</g>
<!-- Node1&#45;&gt;Node5 -->
<g id="edge4_Node000001_Node000005" class="edge">
<title>Node1&#45;&gt;Node5</title>
<g id="a_edge4_Node000001_Node000005"><a xlink:title=" ">
<path fill="none" stroke="#63b8ff" d="M128.75,-46.25C136.6,-47.27 144.7,-48.33 152.76,-49.38"/>
<polygon fill="#63b8ff" stroke="#63b8ff" points="152.24,-52.84 162.61,-50.66 153.14,-45.9 152.24,-52.84"/>
</a>
</g>
</g>
<!-- Node3 -->
<g id="Node000003" class="node">
<title>Node3</title>
<g id="a_Node000003"><a xlink:href="../../dc/d35/a01400.html#adf5058865dfb549db97fec8ef14752a0" target="_top" xlink:title="Retrieves the current FreeRTOS tick count from task context.">
<polygon fill="white" stroke="#666666" points="502.5,-70 342.5,-70 342.5,-50 502.5,-50 502.5,-70"/>
<text xml:space="preserve" text-anchor="middle" x="422.5" y="-56.5" font-family="Helvetica,sans-Serif" font-size="10.00">Lib::FreeRTOS::TickCounter::get</text>
</a>
</g>
</g>
<!-- Node2&#45;&gt;Node3 -->
<g id="edge2_Node000002_Node000003" class="edge">
<title>Node2&#45;&gt;Node3</title>
<g id="a_edge2_Node000002_Node000003"><a xlink:title=" ">
<path fill="none" stroke="#63b8ff" d="M297.08,-30.41C319.42,-35.72 344.6,-41.71 366.43,-46.9"/>
<polygon fill="#63b8ff" stroke="#63b8ff" points="365.5,-50.28 376.03,-49.19 367.12,-43.47 365.5,-50.28"/>
</a>
</g>
</g>
<!-- Node4 -->
<g id="Node000004" class="node">
<title>Node4</title>
<g id="a_Node000004"><a xlink:href="../../d2/d82/a01404.html#a4b231b1cb4d749accbd86790c9d064c6" target="_top" xlink:title="Checks if the timeout is disabled.">
<polygon fill="white" stroke="#666666" points="483.75,-32 361.25,-32 361.25,0 483.75,0 483.75,-32"/>
<text xml:space="preserve" text-anchor="start" x="369.25" y="-18.5" font-family="Helvetica,sans-Serif" font-size="10.00">Lib::FreeRTOS::Timeout</text>
<text xml:space="preserve" text-anchor="middle" x="422.5" y="-6.5" font-family="Helvetica,sans-Serif" font-size="10.00">::isDisable</text>
</a>
</g>
</g>
<!-- Node2&#45;&gt;Node4 -->
<g id="edge3_Node000002_Node000004" class="edge">
<title>Node2&#45;&gt;Node4</title>
<g id="a_edge3_Node000002_Node000004"><a xlink:title=" ">
<path fill="none" stroke="#63b8ff" d="M297.08,-16C313.85,-16 332.21,-16 349.56,-16"/>
<polygon fill="#63b8ff" stroke="#63b8ff" points="349.27,-19.5 359.27,-16 349.27,-12.5 349.27,-19.5"/>
</a>
</g>
</g>
<!-- Node5&#45;&gt;Node3 -->
<g id="edge5_Node000005_Node000003" class="edge">
<title>Node5&#45;&gt;Node3</title>
<g id="a_edge5_Node000005_Node000003"><a xlink:title=" ">
<path fill="none" stroke="#63b8ff" d="M306.97,-60C314.81,-60 322.88,-60 330.93,-60"/>
<polygon fill="#63b8ff" stroke="#63b8ff" points="330.75,-63.5 340.75,-60 330.75,-56.5 330.75,-63.5"/>
</a>
</g>
</g>
</g>
</svg>
