<?xml version="1.0" encoding="UTF-8" standalone="no"?>
<!DOCTYPE svg PUBLIC "-//W3C//DTD SVG 1.1//EN"
 "http://www.w3.org/Graphics/SVG/1.1/DTD/svg11.dtd">
<!-- Generated by graphviz version 13.1.0 (20250701.0955)
 -->
<!-- Title: Lib::Xbee::API::Service::ServiceBase::open Pages: 1 -->
<svg width="293pt" height="140pt"
 viewBox="0.00 0.00 293.00 140.00" xmlns="http://www.w3.org/2000/svg" xmlns:xlink="http://www.w3.org/1999/xlink">
<g id="graph0" class="graph" transform="scale(1 1) rotate(0) translate(4 136)">
<title>Lib::Xbee::API::Service::ServiceBase::open</title>
<!-- Node1 -->
<g id="Node000001" class="node">
<title>Node1</title>
<g id="a_Node000001"><a xlink:title="Opens the service and sets the internal state to open.">
<polygon fill="#999999" stroke="#666666" points="284.75,-82 166,-82 166,-50 284.75,-50 284.75,-82"/>
<text xml:space="preserve" text-anchor="start" x="174" y="-68.5" font-family="Helvetica,sans-Serif" font-size="10.00">Lib::Xbee::API::Service</text>
<text xml:space="preserve" text-anchor="middle" x="225.38" y="-56.5" font-family="Helvetica,sans-Serif" font-size="10.00">::ServiceBase::open</text>
</a>
</g>
</g>
<!-- Node2 -->
<g id="Node000002" class="node">
<title>Node2</title>
<g id="a_Node000002"><a xlink:href="../../da/d5e/a01852.html#a1be69d251a2225d7ecb04b3210232618" target="_top" xlink:title="Opens the network discovery service.">
<polygon fill="white" stroke="#666666" points="130,-132 0,-132 0,-100 130,-100 130,-132"/>
<text xml:space="preserve" text-anchor="start" x="8" y="-118.5" font-family="Helvetica,sans-Serif" font-size="10.00">Lib::Xbee::API::Service</text>
<text xml:space="preserve" text-anchor="middle" x="65" y="-106.5" font-family="Helvetica,sans-Serif" font-size="10.00">::NetworkDiscovery::open</text>
</a>
</g>
</g>
<!-- Node1&#45;&gt;Node2 -->
<g id="edge1_Node000001_Node000002" class="edge">
<title>Node1&#45;&gt;Node2</title>
<g id="a_edge1_Node000001_Node000002"><a xlink:title=" ">
<path fill="none" stroke="#63b8ff" d="M161.69,-85.79C147.3,-90.33 132.14,-95.12 118.25,-99.51"/>
<polygon fill="#63b8ff" stroke="#63b8ff" points="162.59,-89.18 171.07,-82.83 160.48,-82.5 162.59,-89.18"/>
</a>
</g>
</g>
<!-- Node3 -->
<g id="Node000003" class="node">
<title>Node3</title>
<g id="a_Node000003"><a xlink:href="../../dd/d87/a01864.html#aef8d28553d15bf49bffd4b4aca242399" target="_top" xlink:title="Opens the Parameters service.">
<polygon fill="white" stroke="#666666" points="124.38,-82 5.62,-82 5.62,-50 124.38,-50 124.38,-82"/>
<text xml:space="preserve" text-anchor="start" x="13.62" y="-68.5" font-family="Helvetica,sans-Serif" font-size="10.00">Lib::Xbee::API::Service</text>
<text xml:space="preserve" text-anchor="middle" x="65" y="-56.5" font-family="Helvetica,sans-Serif" font-size="10.00">::Parameters::open</text>
</a>
</g>
</g>
<!-- Node1&#45;&gt;Node3 -->
<g id="edge2_Node000001_Node000003" class="edge">
<title>Node1&#45;&gt;Node3</title>
<g id="a_edge2_Node000001_Node000003"><a xlink:title=" ">
<path fill="none" stroke="#63b8ff" d="M154.39,-66C144.51,-66 134.45,-66 124.81,-66"/>
<polygon fill="#63b8ff" stroke="#63b8ff" points="154.34,-69.5 164.34,-66 154.34,-62.5 154.34,-69.5"/>
</a>
</g>
</g>
<!-- Node4 -->
<g id="Node000004" class="node">
<title>Node4</title>
<g id="a_Node000004"><a xlink:href="../../dc/d31/a01892.html#a2859385ba27aca503bcfd2bd7dffde8b" target="_top" xlink:title="Opens the SpectrumAnalyzer service.">
<polygon fill="white" stroke="#666666" points="129.62,-32 0.38,-32 0.38,0 129.62,0 129.62,-32"/>
<text xml:space="preserve" text-anchor="start" x="8.38" y="-18.5" font-family="Helvetica,sans-Serif" font-size="10.00">Lib::Xbee::API::Service</text>
<text xml:space="preserve" text-anchor="middle" x="65" y="-6.5" font-family="Helvetica,sans-Serif" font-size="10.00">::SpectrumAnalyzer::open</text>
</a>
</g>
</g>
<!-- Node1&#45;&gt;Node4 -->
<g id="edge3_Node000001_Node000004" class="edge">
<title>Node1&#45;&gt;Node4</title>
<g id="a_edge3_Node000001_Node000004"><a xlink:title=" ">
<path fill="none" stroke="#63b8ff" d="M161.69,-46.21C147.3,-41.67 132.14,-36.88 118.25,-32.49"/>
<polygon fill="#63b8ff" stroke="#63b8ff" points="160.48,-49.5 171.07,-49.17 162.59,-42.82 160.48,-49.5"/>
</a>
</g>
</g>
</g>
</svg>
