<?xml version="1.0" encoding="UTF-8" standalone="no"?>
<!DOCTYPE svg PUBLIC "-//W3C//DTD SVG 1.1//EN"
 "http://www.w3.org/Graphics/SVG/1.1/DTD/svg11.dtd">
<!-- Generated by graphviz version 13.1.0 (20250701.0955)
 -->
<!-- Title: MemoryManager.hpp Pages: 1 -->
<svg width="403pt" height="140pt"
 viewBox="0.00 0.00 403.00 140.00" xmlns="http://www.w3.org/2000/svg" xmlns:xlink="http://www.w3.org/1999/xlink">
<g id="graph0" class="graph" transform="scale(1 1) rotate(0) translate(4 136)">
<title>MemoryManager.hpp</title>
<!-- Node1 -->
<g id="Node000001" class="node">
<title>Node1</title>
<g id="a_Node000001"><a xlink:title="RTOS memory manager abstraction for FreeRTOS.">
<polygon fill="#999999" stroke="#666666" points="273.12,-132 165.62,-132 165.62,-112 273.12,-112 273.12,-132"/>
<text xml:space="preserve" text-anchor="middle" x="219.38" y="-118.5" font-family="Helvetica,sans-Serif" font-size="10.00">MemoryManager.hpp</text>
</a>
</g>
</g>
<!-- Node2 -->
<g id="Node000002" class="node">
<title>Node2</title>
<g id="a_Node000002"><a xlink:title=" ">
<polygon fill="#e0e0e0" stroke="#999999" points="70.75,-76 0,-76 0,-56 70.75,-56 70.75,-76"/>
<text xml:space="preserve" text-anchor="middle" x="35.38" y="-62.5" font-family="Helvetica,sans-Serif" font-size="10.00">FreeRTOS.h</text>
</a>
</g>
</g>
<!-- Node1&#45;&gt;Node2 -->
<g id="edge1_Node000001_Node000002" class="edge">
<title>Node1&#45;&gt;Node2</title>
<g id="a_edge1_Node000001_Node000002"><a xlink:title=" ">
<path fill="none" stroke="#63b8ff" d="M187.32,-111.59C157.17,-102.74 111.79,-89.43 78.47,-79.65"/>
<polygon fill="#63b8ff" stroke="#63b8ff" points="79.71,-76.36 69.13,-76.91 77.74,-83.08 79.71,-76.36"/>
</a>
</g>
</g>
<!-- Node3 -->
<g id="Node000003" class="node">
<title>Node3</title>
<g id="a_Node000003"><a xlink:title=" ">
<polygon fill="#e0e0e0" stroke="#999999" points="147.75,-76 89,-76 89,-56 147.75,-56 147.75,-76"/>
<text xml:space="preserve" text-anchor="middle" x="118.38" y="-62.5" font-family="Helvetica,sans-Serif" font-size="10.00">portable.h</text>
</a>
</g>
</g>
<!-- Node1&#45;&gt;Node3 -->
<g id="edge2_Node000001_Node000003" class="edge">
<title>Node1&#45;&gt;Node3</title>
<g id="a_edge2_Node000001_Node000003"><a xlink:title=" ">
<path fill="none" stroke="#63b8ff" d="M201.78,-111.59C186.45,-103.4 163.96,-91.37 146.19,-81.87"/>
<polygon fill="#63b8ff" stroke="#63b8ff" points="147.91,-78.82 137.44,-77.19 144.61,-84.99 147.91,-78.82"/>
</a>
</g>
</g>
<!-- Node4 -->
<g id="Node000004" class="node">
<title>Node4</title>
<g id="a_Node000004"><a xlink:title=" ">
<polygon fill="#e0e0e0" stroke="#999999" points="208.88,-76 165.88,-76 165.88,-56 208.88,-56 208.88,-76"/>
<text xml:space="preserve" text-anchor="middle" x="187.38" y="-62.5" font-family="Helvetica,sans-Serif" font-size="10.00">task.h</text>
</a>
</g>
</g>
<!-- Node1&#45;&gt;Node4 -->
<g id="edge3_Node000001_Node000004" class="edge">
<title>Node1&#45;&gt;Node4</title>
<g id="a_edge3_Node000001_Node000004"><a xlink:title=" ">
<path fill="none" stroke="#63b8ff" d="M213.8,-111.59C209.63,-104.55 203.77,-94.67 198.63,-86"/>
<polygon fill="#63b8ff" stroke="#63b8ff" points="201.77,-84.42 193.66,-77.6 195.74,-87.99 201.77,-84.42"/>
</a>
</g>
</g>
<!-- Node5 -->
<g id="Node000005" class="node">
<title>Node5</title>
<g id="a_Node000005"><a xlink:title=" ">
<polygon fill="#e0e0e0" stroke="#999999" points="275.5,-76 227.25,-76 227.25,-56 275.5,-56 275.5,-76"/>
<text xml:space="preserve" text-anchor="middle" x="251.38" y="-62.5" font-family="Helvetica,sans-Serif" font-size="10.00">cstddef</text>
</a>
</g>
</g>
<!-- Node1&#45;&gt;Node5 -->
<g id="edge4_Node000001_Node000005" class="edge">
<title>Node1&#45;&gt;Node5</title>
<g id="a_edge4_Node000001_Node000005"><a xlink:title=" ">
<path fill="none" stroke="#63b8ff" d="M224.95,-111.59C229.12,-104.55 234.98,-94.67 240.12,-86"/>
<polygon fill="#63b8ff" stroke="#63b8ff" points="243.01,-87.99 245.09,-77.6 236.98,-84.42 243.01,-87.99"/>
</a>
</g>
</g>
<!-- Node6 -->
<g id="Node000006" class="node">
<title>Node6</title>
<g id="a_Node000006"><a xlink:title=" ">
<polygon fill="#e0e0e0" stroke="#999999" points="356,-20 310.75,-20 310.75,0 356,0 356,-20"/>
<text xml:space="preserve" text-anchor="middle" x="333.38" y="-6.5" font-family="Helvetica,sans-Serif" font-size="10.00">cstdint</text>
</a>
</g>
</g>
<!-- Node1&#45;&gt;Node6 -->
<g id="edge5_Node000001_Node000006" class="edge">
<title>Node1&#45;&gt;Node6</title>
<g id="a_edge5_Node000001_Node000006"><a xlink:title=" ">
<path fill="none" stroke="#63b8ff" d="M235.94,-111.58C249.76,-103.26 269.53,-90.26 284.38,-76 299,-61.96 312.61,-43.25 321.77,-29.51"/>
<polygon fill="#63b8ff" stroke="#63b8ff" points="324.52,-31.69 327.01,-21.4 318.64,-27.89 324.52,-31.69"/>
</a>
</g>
</g>
<!-- Node7 -->
<g id="Node000007" class="node">
<title>Node7</title>
<g id="a_Node000007"><a xlink:href="../../d0/dc2/a00104.html" target="_top" xlink:title="Status codes for RTOS operations.">
<polygon fill="white" stroke="#666666" points="395,-76 331.75,-76 331.75,-56 395,-56 395,-76"/>
<text xml:space="preserve" text-anchor="middle" x="363.38" y="-62.5" font-family="Helvetica,sans-Serif" font-size="10.00">Status.hpp</text>
</a>
</g>
</g>
<!-- Node1&#45;&gt;Node7 -->
<g id="edge6_Node000001_Node000007" class="edge">
<title>Node1&#45;&gt;Node7</title>
<g id="a_edge6_Node000001_Node000007"><a xlink:title=" ">
<path fill="none" stroke="#63b8ff" d="M244.46,-111.59C267.44,-102.97 301.73,-90.12 327.59,-80.42"/>
<polygon fill="#63b8ff" stroke="#63b8ff" points="328.54,-83.8 336.68,-77.01 326.09,-77.25 328.54,-83.8"/>
</a>
</g>
</g>
<!-- Node7&#45;&gt;Node6 -->
<g id="edge7_Node000007_Node000006" class="edge">
<title>Node7&#45;&gt;Node6</title>
<g id="a_edge7_Node000007_Node000006"><a xlink:title=" ">
<path fill="none" stroke="#63b8ff" d="M358.15,-55.59C354.28,-48.63 348.87,-38.89 344.09,-30.29"/>
<polygon fill="#63b8ff" stroke="#63b8ff" points="347.19,-28.66 339.28,-21.62 341.07,-32.06 347.19,-28.66"/>
</a>
</g>
</g>
</g>
</svg>
