<?xml version="1.0" encoding="UTF-8" standalone="no"?>
<!DOCTYPE svg PUBLIC "-//W3C//DTD SVG 1.1//EN"
 "http://www.w3.org/Graphics/SVG/1.1/DTD/svg11.dtd">
<!-- Generated by graphviz version 13.1.0 (20250701.0955)
 -->
<!-- Title: Lib::Digi::API::NodeInfo::Monitor Pages: 1 -->
<svg width="159pt" height="76pt"
 viewBox="0.00 0.00 159.00 76.00" xmlns="http://www.w3.org/2000/svg" xmlns:xlink="http://www.w3.org/1999/xlink">
<g id="graph0" class="graph" transform="scale(1 1) rotate(0) translate(4 72)">
<title>Lib::Digi::API::NodeInfo::Monitor</title>
<!-- Node1 -->
<g id="Node000001" class="node">
<title>Node1</title>
<g id="a_Node000001"><a xlink:title="Runtime monitor information.">
<polygon fill="#999999" stroke="none" points="150.5,-68 0,-68 0,0 150.5,0 150.5,-68"/>
<text xml:space="preserve" text-anchor="start" x="4" y="-54.5" font-family="Helvetica,sans-Serif" font-size="10.00">Lib::Digi::API::NodeInfo::Monitor</text>
<text xml:space="preserve" text-anchor="start" x="24.19" y="-38.5" font-family="Helvetica,sans-Serif" font-size="10.00">+</text>
<text xml:space="preserve" text-anchor="start" x="54.38" y="-38.5" font-family="Helvetica,sans-Serif" font-size="10.00">voltage</text>
<text xml:space="preserve" text-anchor="start" x="24.19" y="-22.5" font-family="Helvetica,sans-Serif" font-size="10.00">+</text>
<text xml:space="preserve" text-anchor="start" x="54.38" y="-22.5" font-family="Helvetica,sans-Serif" font-size="10.00">temperature</text>
<text xml:space="preserve" text-anchor="start" x="73.75" y="-6.5" font-family="Helvetica,sans-Serif" font-size="10.00"> </text>
<polygon fill="#666666" stroke="#666666" points="0,-50 0,-50 150.5,-50 150.5,-50 0,-50"/>
<polygon fill="#666666" stroke="#666666" points="0,-18 0,-18 52.38,-18 52.38,-18 0,-18"/>
<polygon fill="#666666" stroke="#666666" points="52.38,-18 52.38,-18 150.5,-18 150.5,-18 52.38,-18"/>
<polygon fill="none" stroke="#666666" points="0,0 0,-68 150.5,-68 150.5,0 0,0"/>
</a>
</g>
</g>
</g>
</svg>
