<?xml version="1.0" encoding="UTF-8" standalone="no"?>
<!DOCTYPE svg PUBLIC "-//W3C//DTD SVG 1.1//EN"
 "http://www.w3.org/Graphics/SVG/1.1/DTD/svg11.dtd">
<!-- Generated by graphviz version 14.0.5 (20251129.0259)
 -->
<!-- Title: Config.hpp Pages: 1 -->
<svg width="366pt" height="476pt"
 viewBox="0.00 0.00 366.00 476.00" xmlns="http://www.w3.org/2000/svg" xmlns:xlink="http://www.w3.org/1999/xlink">
<g id="graph0" class="graph" transform="scale(1 1) rotate(0) translate(4 472)">
<title>Config.hpp</title>
<!-- Node1 -->
<g id="Node000001" class="node">
<title>Node1</title>
<g id="a_Node000001"><a xlink:title=" ">
<polygon fill="#999999" stroke="#666666" points="196.75,-468 133.5,-468 133.5,-448 196.75,-448 196.75,-468"/>
<text xml:space="preserve" text-anchor="middle" x="165.12" y="-454.5" font-family="Helvetica,sans-Serif" font-size="10.00">Config.hpp</text>
</a>
</g>
</g>
<!-- Node2 -->
<g id="Node000002" class="node">
<title>Node2</title>
<g id="a_Node000002"><a xlink:href="../../d3/d52/a00023.html" target="_top" xlink:title=" ">
<polygon fill="white" stroke="#666666" points="262,-412 152.25,-412 152.25,-392 262,-392 262,-412"/>
<text xml:space="preserve" text-anchor="middle" x="207.12" y="-398.5" font-family="Helvetica,sans-Serif" font-size="10.00">BackupRamData.hpp</text>
</a>
</g>
</g>
<!-- Node1&#45;&gt;Node2 -->
<g id="edge1_Node000001_Node000002" class="edge">
<title>Node1&#45;&gt;Node2</title>
<g id="a_edge1_Node000001_Node000002"><a xlink:title=" ">
<path fill="none" stroke="#63b8ff" d="M179.34,-438.72C186.25,-429.84 194.26,-419.55 199.89,-412.3"/>
<polygon fill="#63b8ff" stroke="#63b8ff" points="176.75,-436.36 173.37,-446.4 182.27,-440.65 176.75,-436.36"/>
</a>
</g>
</g>
<!-- Node3 -->
<g id="Node000003" class="node">
<title>Node3</title>
<g id="a_Node000003"><a xlink:href="../../dd/dad/a00005.html" target="_top" xlink:title=" ">
<polygon fill="white" stroke="#666666" points="178.62,-356 93.62,-356 93.62,-336 178.62,-336 178.62,-356"/>
<text xml:space="preserve" text-anchor="middle" x="136.12" y="-342.5" font-family="Helvetica,sans-Serif" font-size="10.00">DataLogger.hpp</text>
</a>
</g>
</g>
<!-- Node1&#45;&gt;Node3 -->
<g id="edge12_Node000001_Node000003" class="edge">
<title>Node1&#45;&gt;Node3</title>
<g id="a_edge12_Node000001_Node000003"><a xlink:title=" ">
<path fill="none" stroke="#63b8ff" d="M153.95,-437.89C149.89,-430.1 145.68,-420.86 143.12,-412 137.59,-392.81 136.35,-369.28 136.13,-356.45"/>
<polygon fill="#63b8ff" stroke="#63b8ff" points="150.76,-439.35 158.67,-446.41 156.89,-435.96 150.76,-439.35"/>
</a>
</g>
</g>
<!-- Node2&#45;&gt;Node3 -->
<g id="edge2_Node000002_Node000003" class="edge">
<title>Node2&#45;&gt;Node3</title>
<g id="a_edge2_Node000002_Node000003"><a xlink:title=" ">
<path fill="none" stroke="#63b8ff" d="M185.67,-384.68C173.45,-375.39 158.59,-364.09 148.35,-356.3"/>
<polygon fill="#63b8ff" stroke="#63b8ff" points="183.47,-387.41 193.55,-390.68 187.71,-381.84 183.47,-387.41"/>
</a>
</g>
</g>
<!-- Node4 -->
<g id="Node000004" class="node">
<title>Node4</title>
<g id="a_Node000004"><a xlink:href="../../dd/d32/a00041.html" target="_top" xlink:title=" ">
<polygon fill="white" stroke="#666666" points="226.75,-300 115.5,-300 115.5,-280 226.75,-280 226.75,-300"/>
<text xml:space="preserve" text-anchor="middle" x="171.12" y="-286.5" font-family="Helvetica,sans-Serif" font-size="10.00">ModelDataLogger.hpp</text>
</a>
</g>
</g>
<!-- Node2&#45;&gt;Node4 -->
<g id="edge11_Node000002_Node000004" class="edge">
<title>Node2&#45;&gt;Node4</title>
<g id="a_edge11_Node000002_Node000004"><a xlink:title=" ">
<path fill="none" stroke="#63b8ff" d="M201.65,-380.78C198.05,-367.89 193.1,-350.87 188.12,-336 183.94,-323.49 178.44,-309.28 174.85,-300.23"/>
<polygon fill="#63b8ff" stroke="#63b8ff" points="198.21,-381.5 204.24,-390.21 204.96,-379.64 198.21,-381.5"/>
</a>
</g>
</g>
<!-- Node3&#45;&gt;Node4 -->
<g id="edge3_Node000003_Node000004" class="edge">
<title>Node3&#45;&gt;Node4</title>
<g id="a_edge3_Node000003_Node000004"><a xlink:title=" ">
<path fill="none" stroke="#63b8ff" d="M148.34,-326.15C154.01,-317.4 160.5,-307.39 165.1,-300.3"/>
<polygon fill="#63b8ff" stroke="#63b8ff" points="145.55,-324.03 143.04,-334.32 151.42,-327.84 145.55,-324.03"/>
</a>
</g>
</g>
<!-- Node5 -->
<g id="Node000005" class="node">
<title>Node5</title>
<g id="a_Node000005"><a xlink:href="../../d4/d8c/a00035.html" target="_top" xlink:title=" ">
<polygon fill="white" stroke="#666666" points="212.88,-244 129.38,-244 129.38,-224 212.88,-224 212.88,-244"/>
<text xml:space="preserve" text-anchor="middle" x="171.12" y="-230.5" font-family="Helvetica,sans-Serif" font-size="10.00">ModelBase.hpp</text>
</a>
</g>
</g>
<!-- Node4&#45;&gt;Node5 -->
<g id="edge4_Node000004_Node000005" class="edge">
<title>Node4&#45;&gt;Node5</title>
<g id="a_edge4_Node000004_Node000005"><a xlink:title=" ">
<path fill="none" stroke="#63b8ff" d="M171.12,-268.13C171.12,-259.9 171.12,-250.85 171.12,-244.3"/>
<polygon fill="#63b8ff" stroke="#63b8ff" points="167.63,-268.08 171.13,-278.08 174.63,-268.08 167.63,-268.08"/>
</a>
</g>
</g>
<!-- Node6 -->
<g id="Node000006" class="node">
<title>Node6</title>
<g id="a_Node000006"><a xlink:href="../../da/d2a/a00086.html" target="_top" xlink:title=" ">
<polygon fill="white" stroke="#666666" points="201.62,-188 140.62,-188 140.62,-168 201.62,-168 201.62,-188"/>
<text xml:space="preserve" text-anchor="middle" x="171.12" y="-174.5" font-family="Helvetica,sans-Serif" font-size="10.00">Model.hpp</text>
</a>
</g>
</g>
<!-- Node5&#45;&gt;Node6 -->
<g id="edge5_Node000005_Node000006" class="edge">
<title>Node5&#45;&gt;Node6</title>
<g id="a_edge5_Node000005_Node000006"><a xlink:title=" ">
<path fill="none" stroke="#63b8ff" d="M171.12,-212.13C171.12,-203.9 171.12,-194.85 171.12,-188.3"/>
<polygon fill="#63b8ff" stroke="#63b8ff" points="167.63,-212.08 171.13,-222.08 174.63,-212.08 167.63,-212.08"/>
</a>
</g>
</g>
<!-- Node7 -->
<g id="Node000007" class="node">
<title>Node7</title>
<g id="a_Node000007"><a xlink:href="../../db/dab/a00089.html" target="_top" xlink:title=" ">
<polygon fill="white" stroke="#666666" points="218.88,-132 123.38,-132 123.38,-112 218.88,-112 218.88,-132"/>
<text xml:space="preserve" text-anchor="middle" x="171.12" y="-118.5" font-family="Helvetica,sans-Serif" font-size="10.00">ModelListener.hpp</text>
</a>
</g>
</g>
<!-- Node6&#45;&gt;Node7 -->
<g id="edge6_Node000006_Node000007" class="edge">
<title>Node6&#45;&gt;Node7</title>
<g id="a_edge6_Node000006_Node000007"><a xlink:title=" ">
<path fill="none" stroke="#63b8ff" d="M171.12,-156.13C171.12,-147.9 171.12,-138.85 171.12,-132.3"/>
<polygon fill="#63b8ff" stroke="#63b8ff" points="167.63,-156.08 171.13,-166.08 174.63,-156.08 167.63,-156.08"/>
</a>
</g>
</g>
<!-- Node8 -->
<g id="Node000008" class="node">
<title>Node8</title>
<g id="a_Node000008"><a xlink:href="../../d9/d2e/a00056.html" target="_top" xlink:title=" ">
<polygon fill="white" stroke="#666666" points="102.25,-76 0,-76 0,-56 102.25,-56 102.25,-76"/>
<text xml:space="preserve" text-anchor="middle" x="51.12" y="-62.5" font-family="Helvetica,sans-Serif" font-size="10.00">ClockPresenter.hpp</text>
</a>
</g>
</g>
<!-- Node7&#45;&gt;Node8 -->
<g id="edge7_Node000007_Node000008" class="edge">
<title>Node7&#45;&gt;Node8</title>
<g id="a_edge7_Node000007_Node000008"><a xlink:title=" ">
<path fill="none" stroke="#63b8ff" d="M139.74,-106.88C118.45,-97.3 90.88,-84.89 72.19,-76.48"/>
<polygon fill="#63b8ff" stroke="#63b8ff" points="138.29,-110.06 148.84,-110.97 141.16,-103.68 138.29,-110.06"/>
</a>
</g>
</g>
<!-- Node9 -->
<g id="Node000009" class="node">
<title>Node9</title>
<g id="a_Node000009"><a xlink:href="../../d1/dc1/a00092.html" target="_top" xlink:title=" ">
<polygon fill="white" stroke="#666666" points="222.25,-76 120,-76 120,-56 222.25,-56 222.25,-76"/>
<text xml:space="preserve" text-anchor="middle" x="171.12" y="-62.5" font-family="Helvetica,sans-Serif" font-size="10.00">SetupPresenter.hpp</text>
</a>
</g>
</g>
<!-- Node7&#45;&gt;Node9 -->
<g id="edge8_Node000007_Node000009" class="edge">
<title>Node7&#45;&gt;Node9</title>
<g id="a_edge8_Node000007_Node000009"><a xlink:title=" ">
<path fill="none" stroke="#63b8ff" d="M171.12,-100.13C171.12,-91.9 171.12,-82.85 171.12,-76.3"/>
<polygon fill="#63b8ff" stroke="#63b8ff" points="167.63,-100.08 171.13,-110.08 174.63,-100.08 167.63,-100.08"/>
</a>
</g>
</g>
<!-- Node10 -->
<g id="Node000010" class="node">
<title>Node10</title>
<g id="a_Node000010"><a xlink:href="../../d1/d44/a00098.html" target="_top" xlink:title=" ">
<polygon fill="white" stroke="#666666" points="357.75,-76 240.5,-76 240.5,-56 357.75,-56 357.75,-76"/>
<text xml:space="preserve" text-anchor="middle" x="299.12" y="-62.5" font-family="Helvetica,sans-Serif" font-size="10.00">WelcomePresenter.hpp</text>
</a>
</g>
</g>
<!-- Node7&#45;&gt;Node10 -->
<g id="edge9_Node000007_Node000010" class="edge">
<title>Node7&#45;&gt;Node10</title>
<g id="a_edge9_Node000007_Node000010"><a xlink:title=" ">
<path fill="none" stroke="#63b8ff" d="M203.98,-107.14C226.77,-97.52 256.53,-84.97 276.66,-76.48"/>
<polygon fill="#63b8ff" stroke="#63b8ff" points="202.67,-103.89 194.82,-111.01 205.39,-110.34 202.67,-103.89"/>
</a>
</g>
</g>
<!-- Node11 -->
<g id="Node000011" class="node">
<title>Node11</title>
<g id="a_Node000011"><a xlink:href="../../d4/d3a/a00101.html" target="_top" xlink:title=" ">
<polygon fill="white" stroke="#666666" points="347.25,-20 251,-20 251,0 347.25,0 347.25,-20"/>
<text xml:space="preserve" text-anchor="middle" x="299.12" y="-6.5" font-family="Helvetica,sans-Serif" font-size="10.00">WelcomeView.hpp</text>
</a>
</g>
</g>
<!-- Node10&#45;&gt;Node11 -->
<g id="edge10_Node000010_Node000011" class="edge">
<title>Node10&#45;&gt;Node11</title>
<g id="a_edge10_Node000010_Node000011"><a xlink:title=" ">
<path fill="none" stroke="#63b8ff" d="M299.12,-44.13C299.12,-35.9 299.12,-26.85 299.12,-20.3"/>
<polygon fill="#63b8ff" stroke="#63b8ff" points="295.63,-44.08 299.13,-54.08 302.63,-44.08 295.63,-44.08"/>
</a>
</g>
</g>
</g>
</svg>
