<?xml version="1.0" encoding="UTF-8" standalone="no"?>
<!DOCTYPE svg PUBLIC "-//W3C//DTD SVG 1.1//EN"
 "http://www.w3.org/Graphics/SVG/1.1/DTD/svg11.dtd">
<!-- Generated by graphviz version 13.1.0 (20250701.0955)
 -->
<!-- Title: Lib::HAL::I2C::Master::Base Pages: 1 -->
<svg width="152pt" height="108pt"
 viewBox="0.00 0.00 152.00 108.00" xmlns="http://www.w3.org/2000/svg" xmlns:xlink="http://www.w3.org/1999/xlink">
<g id="graph0" class="graph" transform="scale(1 1) rotate(0) translate(4 104)">
<title>Lib::HAL::I2C::Master::Base</title>
<!-- Node1 -->
<g id="Node000001" class="node">
<title>Node1</title>
<g id="a_Node000001"><a xlink:title="I2C master abstract base class.">
<polygon fill="#999999" stroke="none" points="94.25,-29 0,-29 0,0 94.25,0 94.25,-29"/>
<text xml:space="preserve" text-anchor="start" x="4" y="-16.45" font-family="Arial" font-size="9.00">Lib::HAL::I2C::Master</text>
<text xml:space="preserve" text-anchor="start" x="34.38" y="-5.95" font-family="Arial" font-size="9.00">::Base</text>
<polygon fill="none" stroke="#666666" points="0,0 0,-29 94.25,-29 94.25,0 0,0"/>
</a>
</g>
</g>
<!-- Node2 -->
<g id="Node000002" class="node">
<title>Node2</title>
<g id="a_Node000002"><a xlink:title=" ">
<polygon fill="white" stroke="none" points="67.62,-100 26.62,-100 26.62,-81.5 67.62,-81.5 67.62,-100"/>
<text xml:space="preserve" text-anchor="start" x="30.62" y="-87.45" font-family="Arial" font-size="9.00">uint32_t</text>
<polygon fill="none" stroke="#bfbfbf" points="26.62,-81.5 26.62,-100 67.62,-100 67.62,-81.5 26.62,-81.5"/>
</a>
</g>
</g>
<!-- Node2&#45;&gt;Node1 -->
<g id="edge1_Node000001_Node000002" class="edge">
<title>Node2&#45;&gt;Node1</title>
<g id="a_edge1_Node000001_Node000002"><a xlink:title=" ">
<path fill="none" stroke="#63b8ff" d="M47.12,-81.52C47.12,-71.95 47.12,-55.67 47.12,-41.67"/>
<polygon fill="none" stroke="#63b8ff" points="47.13,-41.67 43.13,-35.67 47.13,-29.67 51.13,-35.67 47.13,-41.67"/>
</a>
</g>
<text xml:space="preserve" text-anchor="start" x="50.12" y="-51.95" font-family="Arial" font-size="9.00" fill="grey">+DEFAULT_TIMEOUT</text>
</g>
</g>
</svg>
