<?xml version="1.0" encoding="UTF-8" standalone="no"?>
<!DOCTYPE svg PUBLIC "-//W3C//DTD SVG 1.1//EN"
 "http://www.w3.org/Graphics/SVG/1.1/DTD/svg11.dtd">
<!-- Generated by graphviz version 3.0.0 (20220226.1711)
 -->
<!-- Title: CQuadSPI.hxx Pages: 1 -->
<svg width="796pt" height="420pt"
 viewBox="0.00 0.00 795.50 420.00" xmlns="http://www.w3.org/2000/svg" xmlns:xlink="http://www.w3.org/1999/xlink">
<g id="graph0" class="graph" transform="scale(1 1) rotate(0) translate(4 416)">
<title>CQuadSPI.hxx</title>
<!-- Node1 -->
<g id="node1" class="node">
<title>Node1</title>
<g id="a_node1"><a xlink:title=" ">
<polygon fill="#bfbfbf" stroke="black" points="481.5,-392.5 481.5,-411.5 562.5,-411.5 562.5,-392.5 481.5,-392.5"/>
<text text-anchor="middle" x="522" y="-399.5" font-family="Helvetica,sans-Serif" font-size="10.00">CQuadSPI.hxx</text>
</a>
</g>
</g>
<!-- Node2 -->
<g id="node2" class="node">
<title>Node2</title>
<g id="a_node2"><a xlink:href="../../da/d25/_c_s25_f_lxxx_8hxx_source.html" target="_top" xlink:title=" ">
<polygon fill="none" stroke="black" points="435,-336.5 435,-355.5 521,-355.5 521,-336.5 435,-336.5"/>
<text text-anchor="middle" x="478" y="-343.5" font-family="Helvetica,sans-Serif" font-size="10.00">CS25FLxxx.hxx</text>
</a>
</g>
</g>
<!-- Node1&#45;&gt;Node2 -->
<g id="edge1" class="edge">
<title>Node1&#45;&gt;Node2</title>
<path fill="none" stroke="midnightblue" d="M508.27,-384.14C500.6,-374.74 491.37,-363.4 485.13,-355.75"/>
<polygon fill="midnightblue" stroke="midnightblue" points="505.7,-386.54 514.73,-392.08 511.13,-382.12 505.7,-386.54"/>
</g>
<!-- Node14 -->
<g id="node14" class="node">
<title>Node14</title>
<g id="a_node14"><a xlink:href="../../d7/d51/_h_a_l_8hpp.html" target="_top" xlink:title=" ">
<polygon fill="none" stroke="black" points="552,-336.5 552,-355.5 606,-355.5 606,-336.5 552,-336.5"/>
<text text-anchor="middle" x="579" y="-343.5" font-family="Helvetica,sans-Serif" font-size="10.00">HAL.hpp</text>
</a>
</g>
</g>
<!-- Node1&#45;&gt;Node14 -->
<g id="edge13" class="edge">
<title>Node1&#45;&gt;Node14</title>
<path fill="none" stroke="midnightblue" d="M538.62,-385.25C548.73,-375.67 561.28,-363.79 569.68,-355.83"/>
<polygon fill="midnightblue" stroke="midnightblue" points="536.01,-382.91 531.16,-392.32 540.82,-387.99 536.01,-382.91"/>
</g>
<!-- Node3 -->
<g id="node3" class="node">
<title>Node3</title>
<g id="a_node3"><a xlink:href="../../dc/d8a/_c_quad_flash_8hxx.html" target="_top" xlink:title="CQuadFlash class.">
<polygon fill="none" stroke="black" points="406.5,-280.5 406.5,-299.5 495.5,-299.5 495.5,-280.5 406.5,-280.5"/>
<text text-anchor="middle" x="451" y="-287.5" font-family="Helvetica,sans-Serif" font-size="10.00">CQuadFlash.hxx</text>
</a>
</g>
</g>
<!-- Node2&#45;&gt;Node3 -->
<g id="edge2" class="edge">
<title>Node2&#45;&gt;Node3</title>
<path fill="none" stroke="midnightblue" d="M468.99,-326.98C464.41,-317.82 459.05,-307.09 455.38,-299.75"/>
<polygon fill="midnightblue" stroke="midnightblue" points="465.94,-328.7 473.54,-336.08 472.2,-325.57 465.94,-328.7"/>
</g>
<!-- Node4 -->
<g id="node4" class="node">
<title>Node4</title>
<g id="a_node4"><a xlink:href="../../dc/df2/_b_s_p_8hpp.html" target="_top" xlink:title="BSP Layer.">
<polygon fill="none" stroke="black" points="441,-168.5 441,-187.5 497,-187.5 497,-168.5 441,-168.5"/>
<text text-anchor="middle" x="469" y="-175.5" font-family="Helvetica,sans-Serif" font-size="10.00">BSP.hpp</text>
</a>
</g>
</g>
<!-- Node3&#45;&gt;Node4 -->
<g id="edge3" class="edge">
<title>Node3&#45;&gt;Node4</title>
<path fill="none" stroke="midnightblue" d="M449.6,-270.4C449.02,-257.31 449.06,-239.43 452,-224 454.5,-210.87 460.52,-196.58 464.68,-187.7"/>
<polygon fill="midnightblue" stroke="midnightblue" points="446.11,-270.72 450.21,-280.49 453.1,-270.3 446.11,-270.72"/>
</g>
<!-- Node5 -->
<g id="node5" class="node">
<title>Node5</title>
<g id="a_node5"><a xlink:href="../../d8/df4/_b_s_p_8cpp.html" target="_top" xlink:title="BSP Layer.">
<polygon fill="none" stroke="black" points="646,-112.5 646,-131.5 702,-131.5 702,-112.5 646,-112.5"/>
<text text-anchor="middle" x="674" y="-119.5" font-family="Helvetica,sans-Serif" font-size="10.00">BSP.cpp</text>
</a>
</g>
</g>
<!-- Node4&#45;&gt;Node5 -->
<g id="edge4" class="edge">
<title>Node4&#45;&gt;Node5</title>
<path fill="none" stroke="midnightblue" d="M506.8,-167.04C547.06,-156.44 609.85,-139.9 645.94,-130.39"/>
<polygon fill="midnightblue" stroke="midnightblue" points="505.85,-163.67 497.07,-169.6 507.64,-170.44 505.85,-163.67"/>
</g>
<!-- Node6 -->
<g id="node6" class="node">
<title>Node6</title>
<g id="a_node6"><a xlink:href="../../dc/de8/_c_button_controller_8hxx.html" target="_top" xlink:title="TouchGFX Button Controller class.">
<polygon fill="none" stroke="black" points="0,-112.5 0,-131.5 112,-131.5 112,-112.5 0,-112.5"/>
<text text-anchor="middle" x="56" y="-119.5" font-family="Helvetica,sans-Serif" font-size="10.00">CButtonController.hxx</text>
</a>
</g>
</g>
<!-- Node4&#45;&gt;Node6 -->
<g id="edge5" class="edge">
<title>Node4&#45;&gt;Node6</title>
<path fill="none" stroke="midnightblue" d="M430.51,-172.14C366.32,-164 233.39,-147.05 121,-132 118.06,-131.61 115.05,-131.2 112.02,-130.79"/>
<polygon fill="midnightblue" stroke="midnightblue" points="430.21,-175.63 440.57,-173.41 431.09,-168.68 430.21,-175.63"/>
</g>
<!-- Node7 -->
<g id="node7" class="node">
<title>Node7</title>
<g id="a_node7"><a xlink:href="../../d8/dee/_c_player_8hxx.html" target="_top" xlink:title="CPlayer class.">
<polygon fill="none" stroke="black" points="130,-112.5 130,-131.5 200,-131.5 200,-112.5 130,-112.5"/>
<text text-anchor="middle" x="165" y="-119.5" font-family="Helvetica,sans-Serif" font-size="10.00">CPlayer.hxx</text>
</a>
</g>
</g>
<!-- Node4&#45;&gt;Node7 -->
<g id="edge6" class="edge">
<title>Node4&#45;&gt;Node7</title>
<path fill="none" stroke="midnightblue" d="M430.68,-170.74C379.91,-162.36 287.59,-146.83 209,-132 206.09,-131.45 203.07,-130.87 200.05,-130.27"/>
<polygon fill="midnightblue" stroke="midnightblue" points="430.43,-174.25 440.86,-172.42 431.56,-167.34 430.43,-174.25"/>
</g>
<!-- Node10 -->
<g id="node10" class="node">
<title>Node10</title>
<g id="a_node10"><a xlink:href="../../dd/d9d/_h_a_l___i2_s___tx_cplt_callback_8cpp.html" target="_top" xlink:title=" ">
<polygon fill="none" stroke="black" points="218,-112.5 218,-131.5 362,-131.5 362,-112.5 218,-112.5"/>
<text text-anchor="middle" x="290" y="-119.5" font-family="Helvetica,sans-Serif" font-size="10.00">HAL_I2S_TxCpltCallback.cpp</text>
</a>
</g>
</g>
<!-- Node4&#45;&gt;Node10 -->
<g id="edge9" class="edge">
<title>Node4&#45;&gt;Node10</title>
<path fill="none" stroke="midnightblue" d="M430.67,-165.44C396.92,-155.26 348.55,-140.66 318.23,-131.52"/>
<polygon fill="midnightblue" stroke="midnightblue" points="430.05,-168.91 440.64,-168.44 432.07,-162.2 430.05,-168.91"/>
</g>
<!-- Node11 -->
<g id="node11" class="node">
<title>Node11</title>
<g id="a_node11"><a xlink:href="../../d3/d73/_h_a_l___t_i_m___i_c___capture_callback_8cpp.html" target="_top" xlink:title=" ">
<polygon fill="none" stroke="black" points="380,-112.5 380,-131.5 546,-131.5 546,-112.5 380,-112.5"/>
<text text-anchor="middle" x="463" y="-119.5" font-family="Helvetica,sans-Serif" font-size="10.00">HAL_TIM_IC_CaptureCallback.cpp</text>
</a>
</g>
</g>
<!-- Node4&#45;&gt;Node11 -->
<g id="edge10" class="edge">
<title>Node4&#45;&gt;Node11</title>
<path fill="none" stroke="midnightblue" d="M466.9,-158.1C465.9,-149.14 464.76,-138.86 463.97,-131.75"/>
<polygon fill="midnightblue" stroke="midnightblue" points="463.43,-158.53 468.01,-168.08 470.38,-157.76 463.43,-158.53"/>
</g>
<!-- Node12 -->
<g id="node12" class="node">
<title>Node12</title>
<g id="a_node12"><a xlink:href="../../d2/d10/_sound_8cpp.html" target="_top" xlink:title="Sound Layer.">
<polygon fill="none" stroke="black" points="564.5,-112.5 564.5,-131.5 627.5,-131.5 627.5,-112.5 564.5,-112.5"/>
<text text-anchor="middle" x="596" y="-119.5" font-family="Helvetica,sans-Serif" font-size="10.00">Sound.cpp</text>
</a>
</g>
</g>
<!-- Node4&#45;&gt;Node12 -->
<g id="edge11" class="edge">
<title>Node4&#45;&gt;Node12</title>
<path fill="none" stroke="midnightblue" d="M498.39,-164.5C522.2,-154.38 555.11,-140.39 575.97,-131.52"/>
<polygon fill="midnightblue" stroke="midnightblue" points="496.96,-161.31 489.12,-168.44 499.7,-167.75 496.96,-161.31"/>
</g>
<!-- Node13 -->
<g id="node13" class="node">
<title>Node13</title>
<g id="a_node13"><a xlink:href="../../dd/da5/_startup_8cpp.html" target="_top" xlink:title="Stra.">
<polygon fill="none" stroke="black" points="720.5,-112.5 720.5,-131.5 787.5,-131.5 787.5,-112.5 720.5,-112.5"/>
<text text-anchor="middle" x="754" y="-119.5" font-family="Helvetica,sans-Serif" font-size="10.00">Startup.cpp</text>
</a>
</g>
</g>
<!-- Node4&#45;&gt;Node13 -->
<g id="edge12" class="edge">
<title>Node4&#45;&gt;Node13</title>
<path fill="none" stroke="midnightblue" d="M507.26,-170.16C555,-161.56 639.13,-146.2 711,-132 713.99,-131.41 717.1,-130.78 720.21,-130.15"/>
<polygon fill="midnightblue" stroke="midnightblue" points="506.58,-166.73 497.35,-171.94 507.82,-173.62 506.58,-166.73"/>
</g>
<!-- Node8 -->
<g id="node8" class="node">
<title>Node8</title>
<g id="a_node8"><a xlink:href="../../d4/d43/_audio_8hpp.html" target="_top" xlink:title="Audio Layer.">
<polygon fill="none" stroke="black" points="135,-56.5 135,-75.5 195,-75.5 195,-56.5 135,-56.5"/>
<text text-anchor="middle" x="165" y="-63.5" font-family="Helvetica,sans-Serif" font-size="10.00">Audio.hpp</text>
</a>
</g>
</g>
<!-- Node7&#45;&gt;Node8 -->
<g id="edge7" class="edge">
<title>Node7&#45;&gt;Node8</title>
<path fill="none" stroke="midnightblue" d="M165,-101.8C165,-92.91 165,-82.78 165,-75.75"/>
<polygon fill="midnightblue" stroke="midnightblue" points="161.5,-102.08 165,-112.08 168.5,-102.08 161.5,-102.08"/>
</g>
<!-- Node9 -->
<g id="node9" class="node">
<title>Node9</title>
<g id="a_node9"><a xlink:href="../../dc/d4e/_audio_8cpp.html" target="_top" xlink:title="Audio Layer.">
<polygon fill="none" stroke="black" points="135,-0.5 135,-19.5 195,-19.5 195,-0.5 135,-0.5"/>
<text text-anchor="middle" x="165" y="-7.5" font-family="Helvetica,sans-Serif" font-size="10.00">Audio.cpp</text>
</a>
</g>
</g>
<!-- Node8&#45;&gt;Node9 -->
<g id="edge8" class="edge">
<title>Node8&#45;&gt;Node9</title>
<path fill="none" stroke="midnightblue" d="M165,-45.8C165,-36.91 165,-26.78 165,-19.75"/>
<polygon fill="midnightblue" stroke="midnightblue" points="161.5,-46.08 165,-56.08 168.5,-46.08 161.5,-46.08"/>
</g>
<!-- Node14&#45;&gt;Node3 -->
<g id="edge16" class="edge">
<title>Node14&#45;&gt;Node3</title>
<path fill="none" stroke="midnightblue" d="M549.38,-332.5C525.38,-322.38 492.22,-308.39 471.19,-299.52"/>
<polygon fill="midnightblue" stroke="midnightblue" points="548.14,-335.78 558.72,-336.44 550.86,-329.33 548.14,-335.78"/>
</g>
<!-- Node14&#45;&gt;Node13 -->
<g id="edge21" class="edge">
<title>Node14&#45;&gt;Node13</title>
<path fill="none" stroke="midnightblue" d="M616.21,-342.57C647.08,-338.52 689.85,-327.87 715,-300 760.11,-250 757.05,-159.91 754.84,-131.69"/>
<polygon fill="midnightblue" stroke="midnightblue" points="615.78,-339.09 606.24,-343.7 616.57,-346.05 615.78,-339.09"/>
</g>
<!-- Node15 -->
<g id="node15" class="node">
<title>Node15</title>
<g id="a_node15"><a xlink:href="../../d4/dbf/_c_disp_driver_8hxx.html" target="_top" xlink:title="OLED Disp Driver.">
<polygon fill="none" stroke="black" points="461,-224.5 461,-243.5 547,-243.5 547,-224.5 461,-224.5"/>
<text text-anchor="middle" x="504" y="-231.5" font-family="Helvetica,sans-Serif" font-size="10.00">CDispDriver.hxx</text>
</a>
</g>
</g>
<!-- Node14&#45;&gt;Node15 -->
<g id="edge14" class="edge">
<title>Node14&#45;&gt;Node15</title>
<path fill="none" stroke="midnightblue" d="M564.9,-328.48C558.02,-320.14 549.78,-309.75 543,-300 529.48,-280.55 515.69,-256.32 508.7,-243.64"/>
<polygon fill="midnightblue" stroke="midnightblue" points="562.36,-330.89 571.46,-336.31 567.72,-326.39 562.36,-330.89"/>
</g>
<!-- Node16 -->
<g id="node16" class="node">
<title>Node16</title>
<g id="a_node16"><a xlink:href="../../da/da1/_c_t_a_s6424_8hxx.html" target="_top" xlink:title="CTAS6424 &#45; I2S Audio Amplifire.">
<polygon fill="none" stroke="black" points="552,-280.5 552,-299.5 634,-299.5 634,-280.5 552,-280.5"/>
<text text-anchor="middle" x="593" y="-287.5" font-family="Helvetica,sans-Serif" font-size="10.00">CTAS6424.hxx</text>
</a>
</g>
</g>
<!-- Node14&#45;&gt;Node16 -->
<g id="edge17" class="edge">
<title>Node14&#45;&gt;Node16</title>
<path fill="none" stroke="midnightblue" d="M583.82,-326.4C586.17,-317.36 588.87,-306.94 590.73,-299.75"/>
<polygon fill="midnightblue" stroke="midnightblue" points="580.43,-325.52 581.31,-336.08 587.21,-327.28 580.43,-325.52"/>
</g>
<!-- Node18 -->
<g id="node18" class="node">
<title>Node18</title>
<g id="a_node18"><a xlink:href="../../d3/da6/_h_a_l_8cpp.html" target="_top" xlink:title="HAL Layer.">
<polygon fill="none" stroke="black" points="652,-280.5 652,-299.5 706,-299.5 706,-280.5 652,-280.5"/>
<text text-anchor="middle" x="679" y="-287.5" font-family="Helvetica,sans-Serif" font-size="10.00">HAL.cpp</text>
</a>
</g>
</g>
<!-- Node14&#45;&gt;Node18 -->
<g id="edge20" class="edge">
<title>Node14&#45;&gt;Node18</title>
<path fill="none" stroke="midnightblue" d="M604.09,-331.45C622.55,-321.48 647.1,-308.23 662.97,-299.65"/>
<polygon fill="midnightblue" stroke="midnightblue" points="602.2,-328.49 595.07,-336.32 605.53,-334.65 602.2,-328.49"/>
</g>
<!-- Node15&#45;&gt;Node4 -->
<g id="edge15" class="edge">
<title>Node15&#45;&gt;Node4</title>
<path fill="none" stroke="midnightblue" d="M492.7,-215.57C486.68,-206.27 479.53,-195.25 474.67,-187.75"/>
<polygon fill="midnightblue" stroke="midnightblue" points="489.84,-217.6 498.22,-224.08 495.72,-213.79 489.84,-217.6"/>
</g>
<!-- Node17 -->
<g id="node17" class="node">
<title>Node17</title>
<g id="a_node17"><a xlink:href="../../df/d27/_c_audio_driver_8hxx.html" target="_top" xlink:title="Audio Driver Class.">
<polygon fill="none" stroke="black" points="565.5,-224.5 565.5,-243.5 656.5,-243.5 656.5,-224.5 565.5,-224.5"/>
<text text-anchor="middle" x="611" y="-231.5" font-family="Helvetica,sans-Serif" font-size="10.00">CAudioDriver.hxx</text>
</a>
</g>
</g>
<!-- Node16&#45;&gt;Node17 -->
<g id="edge18" class="edge">
<title>Node16&#45;&gt;Node17</title>
<path fill="none" stroke="midnightblue" d="M599.2,-270.4C602.21,-261.36 605.69,-250.94 608.08,-243.75"/>
<polygon fill="midnightblue" stroke="midnightblue" points="595.81,-269.49 595.97,-280.08 602.46,-271.7 595.81,-269.49"/>
</g>
<!-- Node17&#45;&gt;Node4 -->
<g id="edge19" class="edge">
<title>Node17&#45;&gt;Node4</title>
<path fill="none" stroke="midnightblue" d="M578.84,-220.77C552.17,-210.63 514.93,-196.47 491.4,-187.52"/>
<polygon fill="midnightblue" stroke="midnightblue" points="577.91,-224.16 588.5,-224.44 580.4,-217.62 577.91,-224.16"/>
</g>
</g>
</svg>
