<?xml version="1.0" encoding="UTF-8" standalone="no"?>
<!DOCTYPE svg PUBLIC "-//W3C//DTD SVG 1.1//EN"
 "http://www.w3.org/Graphics/SVG/1.1/DTD/svg11.dtd">
<!-- Generated by graphviz version 13.1.0 (20250701.0955)
 -->
<!-- Title: Lib::Digi::API::NodeInfo::Versions Pages: 1 -->
<svg width="164pt" height="76pt"
 viewBox="0.00 0.00 164.00 76.00" xmlns="http://www.w3.org/2000/svg" xmlns:xlink="http://www.w3.org/1999/xlink">
<g id="graph0" class="graph" transform="scale(1 1) rotate(0) translate(4 72)">
<title>Lib::Digi::API::NodeInfo::Versions</title>
<!-- Node1 -->
<g id="Node000001" class="node">
<title>Node1</title>
<g id="a_Node000001"><a xlink:title="Firmware and hardware version information.">
<polygon fill="#999999" stroke="none" points="155.75,-68 0,-68 0,0 155.75,0 155.75,-68"/>
<text xml:space="preserve" text-anchor="start" x="4" y="-54.5" font-family="Helvetica,sans-Serif" font-size="10.00">Lib::Digi::API::NodeInfo::Versions</text>
<text xml:space="preserve" text-anchor="start" x="28.5" y="-38.5" font-family="Helvetica,sans-Serif" font-size="10.00">+</text>
<text xml:space="preserve" text-anchor="start" x="63" y="-38.5" font-family="Helvetica,sans-Serif" font-size="10.00">firmware</text>
<text xml:space="preserve" text-anchor="start" x="28.5" y="-22.5" font-family="Helvetica,sans-Serif" font-size="10.00">+</text>
<text xml:space="preserve" text-anchor="start" x="63" y="-22.5" font-family="Helvetica,sans-Serif" font-size="10.00">hardware</text>
<text xml:space="preserve" text-anchor="start" x="76.38" y="-6.5" font-family="Helvetica,sans-Serif" font-size="10.00"> </text>
<polygon fill="#666666" stroke="#666666" points="0,-50 0,-50 155.75,-50 155.75,-50 0,-50"/>
<polygon fill="#666666" stroke="#666666" points="0,-18 0,-18 61,-18 61,-18 0,-18"/>
<polygon fill="#666666" stroke="#666666" points="61,-18 61,-18 155.75,-18 155.75,-18 61,-18"/>
<polygon fill="none" stroke="#666666" points="0,0 0,-68 155.75,-68 155.75,0 0,0"/>
</a>
</g>
</g>
</g>
</svg>
