<?xml version="1.0" encoding="UTF-8" standalone="no"?>
<!DOCTYPE svg PUBLIC "-//W3C//DTD SVG 1.1//EN"
 "http://www.w3.org/Graphics/SVG/1.1/DTD/svg11.dtd">
<!-- Generated by graphviz version 13.1.0 (20250701.0955)
 -->
<!-- Title: SerialPortRepeater Pages: 1 -->
<svg width="156pt" height="418pt"
 viewBox="0.00 0.00 156.00 418.00" xmlns="http://www.w3.org/2000/svg" xmlns:xlink="http://www.w3.org/1999/xlink">
<g id="graph0" class="graph" transform="scale(1 1) rotate(0) translate(4 414)">
<title>SerialPortRepeater</title>
<!-- Node1 -->
<g id="Node000001" class="node">
<title>Node1</title>
<g id="a_Node000001"><a xlink:title="SerialPortRepeater class for USB serial port repeating in embedded systems.">
<polygon fill="#999999" stroke="none" points="132.62,-166 15.63,-166 15.63,0 132.62,0 132.62,-166"/>
<text xml:space="preserve" text-anchor="start" x="34.75" y="-153.45" font-family="Arial" font-size="9.00">SerialPortRepeater</text>
<text xml:space="preserve" text-anchor="start" x="73" y="-138.95" font-family="Arial" font-size="9.00"> </text>
<text xml:space="preserve" text-anchor="start" x="19.62" y="-124.45" font-family="Arial" font-size="9.00">+</text>
<text xml:space="preserve" text-anchor="start" x="28.88" y="-124.45" font-family="Arial" font-size="9.00">SerialPortRepeater()</text>
<text xml:space="preserve" text-anchor="start" x="19.62" y="-109.95" font-family="Arial" font-size="9.00">+</text>
<text xml:space="preserve" text-anchor="start" x="28.88" y="-109.95" font-family="Arial" font-size="9.00">~SerialPortRepeater</text>
<text xml:space="preserve" text-anchor="start" x="28.88" y="-99.45" font-family="Arial" font-size="9.00">() override=default</text>
<text xml:space="preserve" text-anchor="start" x="19.62" y="-84.95" font-family="Arial" font-size="9.00">+</text>
<text xml:space="preserve" text-anchor="start" x="28.88" y="-84.95" font-family="Arial" font-size="9.00">bool open()</text>
<text xml:space="preserve" text-anchor="start" x="19.62" y="-70.45" font-family="Arial" font-size="9.00">+</text>
<text xml:space="preserve" text-anchor="start" x="28.88" y="-70.45" font-family="Arial" font-size="9.00">void close()</text>
<text xml:space="preserve" text-anchor="start" x="19.62" y="-55.95" font-family="Arial" font-size="9.00">+</text>
<text xml:space="preserve" text-anchor="start" x="28.88" y="-55.95" font-family="Arial" font-size="9.00">bool isPoweredByUSB()</text>
<text xml:space="preserve" text-anchor="start" x="19.62" y="-41.45" font-family="Arial" font-size="9.00">+</text>
<text xml:space="preserve" text-anchor="start" x="28.88" y="-41.45" font-family="Arial" font-size="9.00">void enableUSBPort</text>
<text xml:space="preserve" text-anchor="start" x="28.88" y="-30.95" font-family="Arial" font-size="9.00">(bool value)</text>
<text xml:space="preserve" text-anchor="start" x="19.62" y="-16.45" font-family="Arial" font-size="9.00">+</text>
<text xml:space="preserve" text-anchor="start" x="28.88" y="-16.45" font-family="Arial" font-size="9.00">void setModuleResetPin</text>
<text xml:space="preserve" text-anchor="start" x="28.88" y="-5.95" font-family="Arial" font-size="9.00">(bool value)</text>
<polygon fill="#666666" stroke="#666666" points="15.62,-149.5 15.62,-149.5 132.62,-149.5 132.62,-149.5 15.62,-149.5"/>
<polygon fill="#666666" stroke="#666666" points="15.62,-135 15.62,-135 132.62,-135 132.62,-135 15.62,-135"/>
<polygon fill="none" stroke="#666666" points="15.62,0 15.62,-166 132.62,-166 132.62,0 15.62,0"/>
</a>
</g>
</g>
<!-- Node2 -->
<g id="Node000002" class="node">
<title>Node2</title>
<g id="a_Node000002"><a xlink:href="../../d2/d37/class_lib_1_1_u_s_b_1_1_serial_port_repeater_base.html" target="_top" xlink:title="SerialPortRepeaterBase class.">
<polygon fill="white" stroke="none" points="148.25,-410 0,-410 0,-202 148.25,-202 148.25,-410"/>
<text xml:space="preserve" text-anchor="start" x="4" y="-397.45" font-family="Arial" font-size="9.00">Lib::USB::SerialPortRepeaterBase</text>
<text xml:space="preserve" text-anchor="start" x="8.44" y="-382.95" font-family="Arial" font-size="9.00">+</text>
<text xml:space="preserve" text-anchor="start" x="22.12" y="-382.95" font-family="Arial" font-size="9.00">std::function&lt; void</text>
<text xml:space="preserve" text-anchor="start" x="22.12" y="-372.45" font-family="Arial" font-size="9.00">(bool isConnected)&gt;</text>
<text xml:space="preserve" text-anchor="start" x="22.12" y="-361.95" font-family="Arial" font-size="9.00"> onConnected</text>
<text xml:space="preserve" text-anchor="start" x="8.44" y="-347.45" font-family="Arial" font-size="9.00">+</text>
<text xml:space="preserve" text-anchor="start" x="22.12" y="-347.45" font-family="Arial" font-size="9.00">SerialPortRepeaterBase</text>
<text xml:space="preserve" text-anchor="start" x="22.12" y="-336.95" font-family="Arial" font-size="9.00">(const Config &amp;config)</text>
<text xml:space="preserve" text-anchor="start" x="8.44" y="-322.45" font-family="Arial" font-size="9.00">+</text>
<text xml:space="preserve" text-anchor="start" x="22.12" y="-322.45" font-family="Arial" font-size="9.00">virtual ~SerialPortRepeater</text>
<text xml:space="preserve" text-anchor="start" x="22.12" y="-311.95" font-family="Arial" font-size="9.00">Base()</text>
<text xml:space="preserve" text-anchor="start" x="8.44" y="-297.45" font-family="Arial" font-size="9.00">+</text>
<text xml:space="preserve" text-anchor="start" x="22.12" y="-297.45" font-family="Arial" font-size="9.00">virtual bool open()</text>
<text xml:space="preserve" text-anchor="start" x="8.44" y="-282.95" font-family="Arial" font-size="9.00">+</text>
<text xml:space="preserve" text-anchor="start" x="22.12" y="-282.95" font-family="Arial" font-size="9.00">virtual void close()</text>
<text xml:space="preserve" text-anchor="start" x="8.44" y="-268.45" font-family="Arial" font-size="9.00">+</text>
<text xml:space="preserve" text-anchor="start" x="22.12" y="-268.45" font-family="Arial" font-size="9.00">virtual void setModuleReset</text>
<text xml:space="preserve" text-anchor="start" x="22.12" y="-257.95" font-family="Arial" font-size="9.00">Pin(bool isHigh)</text>
<text xml:space="preserve" text-anchor="start" x="8.44" y="-243.45" font-family="Arial" font-size="9.00">+</text>
<text xml:space="preserve" text-anchor="start" x="22.12" y="-243.45" font-family="Arial" font-size="9.00">virtual bool isPoweredBy</text>
<text xml:space="preserve" text-anchor="start" x="22.12" y="-232.95" font-family="Arial" font-size="9.00">USB()</text>
<text xml:space="preserve" text-anchor="start" x="8.44" y="-218.45" font-family="Arial" font-size="9.00">+</text>
<text xml:space="preserve" text-anchor="start" x="22.12" y="-218.45" font-family="Arial" font-size="9.00">virtual void enableUSBPort</text>
<text xml:space="preserve" text-anchor="start" x="22.12" y="-207.95" font-family="Arial" font-size="9.00">(bool isEnabled)</text>
<polygon fill="#666666" stroke="#666666" points="0,-393.5 0,-393.5 148.25,-393.5 148.25,-393.5 0,-393.5"/>
<polygon fill="#666666" stroke="#666666" points="0,-358 0,-358 20.12,-358 20.12,-358 0,-358"/>
<polygon fill="#666666" stroke="#666666" points="20.12,-358 20.12,-358 148.25,-358 148.25,-358 20.12,-358"/>
<polygon fill="none" stroke="#666666" points="0,-202 0,-410 148.25,-410 148.25,-202 0,-202"/>
</a>
</g>
</g>
<!-- Node2&#45;&gt;Node1 -->
<g id="edge1_Node000001_Node000002" class="edge">
<title>Node2&#45;&gt;Node1</title>
<g id="a_edge1_Node000001_Node000002"><a xlink:title=" ">
<path fill="none" stroke="#63b8ff" d="M74.12,-190.83C74.12,-182.45 74.12,-174.09 74.12,-165.96"/>
<polygon fill="none" stroke="#63b8ff" points="70.63,-190.75 74.13,-200.75 77.63,-190.75 70.63,-190.75"/>
</a>
</g>
</g>
</g>
</svg>
