<?xml version="1.0" encoding="UTF-8" standalone="no"?>
<!DOCTYPE svg PUBLIC "-//W3C//DTD SVG 1.1//EN"
 "http://www.w3.org/Graphics/SVG/1.1/DTD/svg11.dtd">
<!-- Generated by graphviz version 13.1.0 (20250701.0955)
 -->
<!-- Title: Lib::HAL::BKPSRAM::Domain Pages: 1 -->
<svg width="132pt" height="124pt"
 viewBox="0.00 0.00 132.00 124.00" xmlns="http://www.w3.org/2000/svg" xmlns:xlink="http://www.w3.org/1999/xlink">
<g id="graph0" class="graph" transform="scale(1 1) rotate(0) translate(4 120)">
<title>Lib::HAL::BKPSRAM::Domain</title>
<!-- Node1 -->
<g id="Node000001" class="node">
<title>Node1</title>
<g id="a_Node000001"><a xlink:title="Backup SRAM domain controller.">
<polygon fill="#999999" stroke="none" points="123.75,-116 0,-116 0,0 123.75,0 123.75,-116"/>
<text xml:space="preserve" text-anchor="start" x="17.62" y="-103.45" font-family="Arial" font-size="9.00">Lib::HAL::BKPSRAM::</text>
<text xml:space="preserve" text-anchor="start" x="45.75" y="-92.95" font-family="Arial" font-size="9.00">Domain</text>
<text xml:space="preserve" text-anchor="start" x="60.75" y="-78.45" font-family="Arial" font-size="9.00"> </text>
<text xml:space="preserve" text-anchor="start" x="4" y="-63.95" font-family="Arial" font-size="9.00">+</text>
<text xml:space="preserve" text-anchor="start" x="13.25" y="-63.95" font-family="Arial" font-size="9.00">void reset()</text>
<text xml:space="preserve" text-anchor="start" x="4" y="-49.45" font-family="Arial" font-size="9.00">+</text>
<text xml:space="preserve" text-anchor="start" x="13.25" y="-49.45" font-family="Arial" font-size="9.00">void enable()</text>
<text xml:space="preserve" text-anchor="start" x="4" y="-34.95" font-family="Arial" font-size="9.00">+</text>
<text xml:space="preserve" text-anchor="start" x="13.25" y="-34.95" font-family="Arial" font-size="9.00">void disable()</text>
<text xml:space="preserve" text-anchor="start" x="4" y="-20.45" font-family="Arial" font-size="9.00">+</text>
<text xml:space="preserve" text-anchor="start" x="13.25" y="-20.45" font-family="Arial" font-size="9.00">bool isEnable() const</text>
<text xml:space="preserve" text-anchor="start" x="4" y="-5.95" font-family="Arial" font-size="9.00">+</text>
<text xml:space="preserve" text-anchor="start" x="13.25" y="-5.95" font-family="Arial" font-size="9.00">static Domain &amp; instance()</text>
<polygon fill="#666666" stroke="#666666" points="0,-89 0,-89 123.75,-89 123.75,-89 0,-89"/>
<polygon fill="#666666" stroke="#666666" points="0,-74.5 0,-74.5 123.75,-74.5 123.75,-74.5 0,-74.5"/>
<polygon fill="none" stroke="#666666" points="0,0 0,-116 123.75,-116 123.75,0 0,0"/>
</a>
</g>
</g>
</g>
</svg>
