<?xml version="1.0" encoding="UTF-8" standalone="no"?>
<!DOCTYPE svg PUBLIC "-//W3C//DTD SVG 1.1//EN"
 "http://www.w3.org/Graphics/SVG/1.1/DTD/svg11.dtd">
<!-- Generated by graphviz version 14.0.5 (20251129.0259)
 -->
<!-- Title: Lib::XCOM::Protocol Pages: 1 -->
<svg width="127pt" height="156pt"
 viewBox="0.00 0.00 127.00 156.00" xmlns="http://www.w3.org/2000/svg" xmlns:xlink="http://www.w3.org/1999/xlink">
<g id="graph0" class="graph" transform="scale(1 1) rotate(0) translate(4 152)">
<title>Lib::XCOM::Protocol</title>
<!-- Node1 -->
<g id="Node000001" class="node">
<title>Node1</title>
<g id="a_Node000001"><a xlink:title="Protocol helper for building and parsing XCOM frames.">
<polygon fill="#999999" stroke="none" points="118.5,-148 0,-148 0,0 118.5,0 118.5,-148"/>
<text xml:space="preserve" text-anchor="start" x="13.88" y="-134.5" font-family="Helvetica,sans-Serif" font-size="10.00">Lib::XCOM::Protocol</text>
<text xml:space="preserve" text-anchor="start" x="4" y="-118.5" font-family="Helvetica,sans-Serif" font-size="10.00">+</text>
<text xml:space="preserve" text-anchor="start" x="14" y="-118.5" font-family="Helvetica,sans-Serif" font-size="10.00">START_DELIMITER</text>
<text xml:space="preserve" text-anchor="start" x="4" y="-102.5" font-family="Helvetica,sans-Serif" font-size="10.00">+</text>
<text xml:space="preserve" text-anchor="start" x="14" y="-102.5" font-family="Helvetica,sans-Serif" font-size="10.00">ESC_SUBST</text>
<text xml:space="preserve" text-anchor="start" x="4" y="-86.5" font-family="Helvetica,sans-Serif" font-size="10.00">+</text>
<text xml:space="preserve" text-anchor="start" x="14" y="-86.5" font-family="Helvetica,sans-Serif" font-size="10.00">PRECODE_MASK</text>
<text xml:space="preserve" text-anchor="start" x="4" y="-70.5" font-family="Helvetica,sans-Serif" font-size="10.00">+</text>
<text xml:space="preserve" text-anchor="start" x="14" y="-70.5" font-family="Helvetica,sans-Serif" font-size="10.00">MAX_PAYLOAD_SIZE</text>
<text xml:space="preserve" text-anchor="start" x="4" y="-54.5" font-family="Helvetica,sans-Serif" font-size="10.00">+</text>
<text xml:space="preserve" text-anchor="start" x="14" y="-54.5" font-family="Helvetica,sans-Serif" font-size="10.00">MAX_FRAME_SIZE</text>
<text xml:space="preserve" text-anchor="start" x="4" y="-38.5" font-family="Helvetica,sans-Serif" font-size="10.00">+</text>
<text xml:space="preserve" text-anchor="start" x="14" y="-38.5" font-family="Helvetica,sans-Serif" font-size="10.00">build()</text>
<text xml:space="preserve" text-anchor="start" x="4" y="-22.5" font-family="Helvetica,sans-Serif" font-size="10.00">+</text>
<text xml:space="preserve" text-anchor="start" x="14" y="-22.5" font-family="Helvetica,sans-Serif" font-size="10.00">parse()</text>
<text xml:space="preserve" text-anchor="start" x="4" y="-6.5" font-family="Helvetica,sans-Serif" font-size="10.00">+</text>
<text xml:space="preserve" text-anchor="start" x="14" y="-6.5" font-family="Helvetica,sans-Serif" font-size="10.00">isEsc()</text>
<polygon fill="#666666" stroke="#666666" points="0,-130 0,-130 118.5,-130 118.5,-130 0,-130"/>
<polygon fill="#666666" stroke="#666666" points="0,-50 0,-50 12,-50 12,-50 0,-50"/>
<polygon fill="#666666" stroke="#666666" points="12,-50 12,-50 118.5,-50 118.5,-50 12,-50"/>
<polygon fill="none" stroke="#666666" points="0,0 0,-148 118.5,-148 118.5,0 0,0"/>
</a>
</g>
</g>
</g>
</svg>
