<?xml version="1.0" encoding="UTF-8" standalone="no"?>
<!DOCTYPE svg PUBLIC "-//W3C//DTD SVG 1.1//EN"
 "http://www.w3.org/Graphics/SVG/1.1/DTD/svg11.dtd">
<!-- Generated by graphviz version 13.1.0 (20250701.0955)
 -->
<!-- Title: Lib::TouchGFX::ButtonMenuBase::Config Pages: 1 -->
<svg width="364pt" height="166pt"
 viewBox="0.00 0.00 364.00 166.00" xmlns="http://www.w3.org/2000/svg" xmlns:xlink="http://www.w3.org/1999/xlink">
<g id="graph0" class="graph" transform="scale(1 1) rotate(0) translate(4 162)">
<title>Lib::TouchGFX::ButtonMenuBase::Config</title>
<!-- Node1 -->
<g id="Node000001" class="node">
<title>Node1</title>
<g id="a_Node000001"><a xlink:title="Menu configuration.">
<polygon fill="#999999" stroke="none" points="235.25,-58 113.25,-58 113.25,0 235.25,0 235.25,-58"/>
<text xml:space="preserve" text-anchor="start" x="117.25" y="-45.45" font-family="Arial" font-size="9.00">Lib::TouchGFX::ButtonMenu</text>
<text xml:space="preserve" text-anchor="start" x="148" y="-34.95" font-family="Arial" font-size="9.00">Base::Config</text>
<text xml:space="preserve" text-anchor="start" x="173.12" y="-20.45" font-family="Arial" font-size="9.00"> </text>
<text xml:space="preserve" text-anchor="start" x="173.12" y="-5.95" font-family="Arial" font-size="9.00"> </text>
<polygon fill="#666666" stroke="#666666" points="113.25,-31 113.25,-31 235.25,-31 235.25,-31 113.25,-31"/>
<polygon fill="#666666" stroke="#666666" points="113.25,-16.5 113.25,-16.5 235.25,-16.5 235.25,-16.5 113.25,-16.5"/>
<polygon fill="none" stroke="#666666" points="113.25,0 113.25,-58 235.25,-58 235.25,0 113.25,0"/>
</a>
</g>
</g>
<!-- Node2 -->
<g id="Node000002" class="node">
<title>Node2</title>
<g id="a_Node000002"><a xlink:title=" ">
<polygon fill="white" stroke="none" points="108.5,-158 0,-158 0,-110.5 108.5,-110.5 108.5,-158"/>
<text xml:space="preserve" text-anchor="start" x="4" y="-145.45" font-family="Arial" font-size="9.00">initializer_list&lt; Button * &gt;</text>
<text xml:space="preserve" text-anchor="start" x="53.12" y="-130.95" font-family="Arial" font-size="9.00"> </text>
<text xml:space="preserve" text-anchor="start" x="53.12" y="-116.45" font-family="Arial" font-size="9.00"> </text>
<polygon fill="#bfbfbf" stroke="#bfbfbf" points="0,-141.5 0,-141.5 108.5,-141.5 108.5,-141.5 0,-141.5"/>
<polygon fill="#bfbfbf" stroke="#bfbfbf" points="0,-127 0,-127 108.5,-127 108.5,-127 0,-127"/>
<polygon fill="none" stroke="#bfbfbf" points="0,-110.5 0,-158 108.5,-158 108.5,-110.5 0,-110.5"/>
</a>
</g>
</g>
<!-- Node2&#45;&gt;Node1 -->
<g id="edge1_Node000001_Node000002" class="edge">
<title>Node2&#45;&gt;Node1</title>
<g id="a_edge1_Node000001_Node000002"><a xlink:title=" ">
<path fill="none" stroke="#63b8ff" d="M80.58,-110.59C95.69,-97.59 115.02,-80.97 132.18,-66.2"/>
<polygon fill="none" stroke="#63b8ff" points="132.21,-66.17 134.15,-59.22 141.31,-58.34 139.37,-65.29 132.21,-66.17"/>
</a>
</g>
<text xml:space="preserve" text-anchor="start" x="120.85" y="-80.95" font-family="Arial" font-size="9.00" fill="grey">+buttons</text>
</g>
<!-- Node3 -->
<g id="Node000003" class="node">
<title>Node3</title>
<g id="a_Node000003"><a xlink:title=" ">
<polygon fill="white" stroke="none" points="222.12,-158 126.38,-158 126.38,-110.5 222.12,-110.5 222.12,-158"/>
<text xml:space="preserve" text-anchor="start" x="130.38" y="-145.45" font-family="Arial" font-size="9.00">ScrollableContainer *</text>
<text xml:space="preserve" text-anchor="start" x="173.12" y="-130.95" font-family="Arial" font-size="9.00"> </text>
<text xml:space="preserve" text-anchor="start" x="173.12" y="-116.45" font-family="Arial" font-size="9.00"> </text>
<polygon fill="#bfbfbf" stroke="#bfbfbf" points="126.38,-141.5 126.38,-141.5 222.12,-141.5 222.12,-141.5 126.38,-141.5"/>
<polygon fill="#bfbfbf" stroke="#bfbfbf" points="126.38,-127 126.38,-127 222.12,-127 222.12,-127 126.38,-127"/>
<polygon fill="none" stroke="#bfbfbf" points="126.38,-110.5 126.38,-158 222.12,-158 222.12,-110.5 126.38,-110.5"/>
</a>
</g>
</g>
<!-- Node3&#45;&gt;Node1 -->
<g id="edge2_Node000001_Node000003" class="edge">
<title>Node3&#45;&gt;Node1</title>
<g id="a_edge2_Node000001_Node000003"><a xlink:title=" ">
<path fill="none" stroke="#63b8ff" d="M174.25,-110.59C174.25,-98.93 174.25,-84.34 174.25,-70.8"/>
<polygon fill="none" stroke="#63b8ff" points="174.25,-70.66 170.25,-64.66 174.25,-58.66 178.25,-64.66 174.25,-70.66"/>
</a>
</g>
<text xml:space="preserve" text-anchor="start" x="177.25" y="-80.95" font-family="Arial" font-size="9.00" fill="grey">+scrollableContainer</text>
</g>
<!-- Node4 -->
<g id="Node000004" class="node">
<title>Node4</title>
<g id="a_Node000004"><a xlink:title=" ">
<polygon fill="white" stroke="none" points="307.12,-158 271.38,-158 271.38,-110.5 307.12,-110.5 307.12,-158"/>
<text xml:space="preserve" text-anchor="start" x="275.38" y="-145.45" font-family="Arial" font-size="9.00">int16_t</text>
<text xml:space="preserve" text-anchor="start" x="288.12" y="-130.95" font-family="Arial" font-size="9.00"> </text>
<text xml:space="preserve" text-anchor="start" x="288.12" y="-116.45" font-family="Arial" font-size="9.00"> </text>
<polygon fill="#bfbfbf" stroke="#bfbfbf" points="271.38,-141.5 271.38,-141.5 307.12,-141.5 307.12,-141.5 271.38,-141.5"/>
<polygon fill="#bfbfbf" stroke="#bfbfbf" points="271.38,-127 271.38,-127 307.12,-127 307.12,-127 271.38,-127"/>
<polygon fill="none" stroke="#bfbfbf" points="271.38,-110.5 271.38,-158 307.12,-158 307.12,-110.5 271.38,-110.5"/>
</a>
</g>
</g>
<!-- Node4&#45;&gt;Node1 -->
<g id="edge3_Node000001_Node000004" class="edge">
<title>Node4&#45;&gt;Node1</title>
<g id="a_edge3_Node000001_Node000004"><a xlink:title=" ">
<path fill="none" stroke="#63b8ff" d="M284.67,-110.5C281.41,-99.05 276,-85.6 267.25,-76 261.08,-69.23 253.68,-63.33 245.8,-58.23"/>
<polygon fill="none" stroke="#63b8ff" points="245.93,-58.3 238.73,-58.7 235.59,-52.21 242.79,-51.81 245.93,-58.3"/>
</a>
</g>
<text xml:space="preserve" text-anchor="start" x="280.35" y="-80.95" font-family="Arial" font-size="9.00" fill="grey">+selectedPosition</text>
</g>
</g>
</svg>
