<?xml version="1.0" encoding="UTF-8" standalone="no"?>
<!DOCTYPE svg PUBLIC "-//W3C//DTD SVG 1.1//EN"
 "http://www.w3.org/Graphics/SVG/1.1/DTD/svg11.dtd">
<!-- Generated by graphviz version 13.1.0 (20250701.0955)
 -->
<!-- Title: Lib::TouchGFX::ButtonMenuBase::Config Pages: 1 -->
<svg width="130pt" height="116pt"
 viewBox="0.00 0.00 130.00 116.00" xmlns="http://www.w3.org/2000/svg" xmlns:xlink="http://www.w3.org/1999/xlink">
<g id="graph0" class="graph" transform="scale(1 1) rotate(0) translate(4 112)">
<title>Lib::TouchGFX::ButtonMenuBase::Config</title>
<!-- Node1 -->
<g id="Node000001" class="node">
<title>Node1</title>
<g id="a_Node000001"><a xlink:title="Menu configuration.">
<polygon fill="#999999" stroke="none" points="122,-108 0,-108 0,0 122,0 122,-108"/>
<text xml:space="preserve" text-anchor="start" x="4" y="-95.45" font-family="Arial" font-size="9.00">Lib::TouchGFX::ButtonMenu</text>
<text xml:space="preserve" text-anchor="start" x="34.75" y="-84.95" font-family="Arial" font-size="9.00">Base::Config</text>
<text xml:space="preserve" text-anchor="start" x="4.31" y="-70.45" font-family="Arial" font-size="9.00">+</text>
<text xml:space="preserve" text-anchor="start" x="13.88" y="-70.45" font-family="Arial" font-size="9.00">std::initializer_list</text>
<text xml:space="preserve" text-anchor="start" x="13.88" y="-59.95" font-family="Arial" font-size="9.00">&lt; Button * &gt; buttons</text>
<text xml:space="preserve" text-anchor="start" x="4.31" y="-45.45" font-family="Arial" font-size="9.00">+</text>
<text xml:space="preserve" text-anchor="start" x="13.88" y="-45.45" font-family="Arial" font-size="9.00">ScrollableContainer</text>
<text xml:space="preserve" text-anchor="start" x="13.88" y="-34.95" font-family="Arial" font-size="9.00"> * scrollableContainer</text>
<text xml:space="preserve" text-anchor="start" x="4.31" y="-20.45" font-family="Arial" font-size="9.00">+</text>
<text xml:space="preserve" text-anchor="start" x="13.88" y="-20.45" font-family="Arial" font-size="9.00">int16_t * selectedPosition</text>
<text xml:space="preserve" text-anchor="start" x="59.88" y="-5.95" font-family="Arial" font-size="9.00"> </text>
<polygon fill="#666666" stroke="#666666" points="0,-81 0,-81 122,-81 122,-81 0,-81"/>
<polygon fill="#666666" stroke="#666666" points="0,-16.5 0,-16.5 11.88,-16.5 11.88,-16.5 0,-16.5"/>
<polygon fill="#666666" stroke="#666666" points="11.88,-16.5 11.88,-16.5 122,-16.5 122,-16.5 11.88,-16.5"/>
<polygon fill="none" stroke="#666666" points="0,0 0,-108 122,-108 122,0 0,0"/>
</a>
</g>
</g>
</g>
</svg>
