<?xml version="1.0" encoding="UTF-8" standalone="no"?>
<!DOCTYPE svg PUBLIC "-//W3C//DTD SVG 1.1//EN"
 "http://www.w3.org/Graphics/SVG/1.1/DTD/svg11.dtd">
<!-- Generated by graphviz version 3.0.0 (20220226.1711)
 -->
<!-- Title: CW25Q.hxx Pages: 1 -->
<svg width="289pt" height="140pt"
 viewBox="0.00 0.00 288.50 140.00" xmlns="http://www.w3.org/2000/svg" xmlns:xlink="http://www.w3.org/1999/xlink">
<g id="graph0" class="graph" transform="scale(1 1) rotate(0) translate(4 136)">
<title>CW25Q.hxx</title>
<!-- Node1 -->
<g id="node1" class="node">
<title>Node1</title>
<g id="a_node1"><a xlink:title="Winbound W25FLxxx Driver class.">
<polygon fill="#bfbfbf" stroke="black" points="127.5,-112.5 127.5,-131.5 197.5,-131.5 197.5,-112.5 127.5,-112.5"/>
<text text-anchor="middle" x="162.5" y="-119.5" font-family="Helvetica,sans-Serif" font-size="10.00">CW25Q.hxx</text>
</a>
</g>
</g>
<!-- Node2 -->
<g id="node2" class="node">
<title>Node2</title>
<g id="a_node2"><a xlink:title=" ">
<polygon fill="none" stroke="#bfbfbf" points="0,-56.5 0,-75.5 101,-75.5 101,-56.5 0,-56.5"/>
<text text-anchor="middle" x="50.5" y="-63.5" font-family="Helvetica,sans-Serif" font-size="10.00">Core/HAL/CPin.hpp</text>
</a>
</g>
</g>
<!-- Node1&#45;&gt;Node2 -->
<g id="edge1" class="edge">
<title>Node1&#45;&gt;Node2</title>
<path fill="none" stroke="midnightblue" d="M144.51,-112.32C126.46,-103.62 98.45,-90.12 77.7,-80.11"/>
<polygon fill="midnightblue" stroke="midnightblue" points="78.98,-76.84 68.45,-75.65 75.94,-83.15 78.98,-76.84"/>
</g>
<!-- Node3 -->
<g id="node3" class="node">
<title>Node3</title>
<g id="a_node3"><a xlink:href="../../de/d77/_c_q_s_p_i_8hxx.html" target="_top" xlink:title=" ">
<polygon fill="none" stroke="black" points="119,-56.5 119,-75.5 206,-75.5 206,-56.5 119,-56.5"/>
<text text-anchor="middle" x="162.5" y="-63.5" font-family="Helvetica,sans-Serif" font-size="10.00">HAL/CQSPI.hxx</text>
</a>
</g>
</g>
<!-- Node1&#45;&gt;Node3 -->
<g id="edge2" class="edge">
<title>Node1&#45;&gt;Node3</title>
<path fill="none" stroke="midnightblue" d="M162.5,-112.08C162.5,-105.01 162.5,-94.86 162.5,-85.99"/>
<polygon fill="midnightblue" stroke="midnightblue" points="166,-85.75 162.5,-75.75 159,-85.75 166,-85.75"/>
</g>
<!-- Node6 -->
<g id="node6" class="node">
<title>Node6</title>
<g id="a_node6"><a xlink:title=" ">
<polygon fill="none" stroke="#bfbfbf" points="224.5,-56.5 224.5,-75.5 280.5,-75.5 280.5,-56.5 224.5,-56.5"/>
<text text-anchor="middle" x="252.5" y="-63.5" font-family="Helvetica,sans-Serif" font-size="10.00">algorithm</text>
</a>
</g>
</g>
<!-- Node1&#45;&gt;Node6 -->
<g id="edge5" class="edge">
<title>Node1&#45;&gt;Node6</title>
<path fill="none" stroke="midnightblue" d="M176.96,-112.32C191,-103.9 212.55,-90.97 229.04,-81.07"/>
<polygon fill="midnightblue" stroke="midnightblue" points="231.3,-83.8 238.08,-75.65 227.7,-77.8 231.3,-83.8"/>
</g>
<!-- Node4 -->
<g id="node4" class="node">
<title>Node4</title>
<g id="a_node4"><a xlink:title=" ">
<polygon fill="none" stroke="#bfbfbf" points="46,-0.5 46,-19.5 169,-19.5 169,-0.5 46,-0.5"/>
<text text-anchor="middle" x="107.5" y="-7.5" font-family="Helvetica,sans-Serif" font-size="10.00">Core/HAL/CQSPI_IT.hpp</text>
</a>
</g>
</g>
<!-- Node3&#45;&gt;Node4 -->
<g id="edge3" class="edge">
<title>Node3&#45;&gt;Node4</title>
<path fill="none" stroke="midnightblue" d="M153.42,-56.08C145.33,-48.14 133.3,-36.34 123.59,-26.8"/>
<polygon fill="midnightblue" stroke="midnightblue" points="126,-24.26 116.41,-19.75 121.1,-29.25 126,-24.26"/>
</g>
<!-- Node5 -->
<g id="node5" class="node">
<title>Node5</title>
<g id="a_node5"><a xlink:title=" ">
<polygon fill="none" stroke="#bfbfbf" points="187,-0.5 187,-19.5 246,-19.5 246,-0.5 187,-0.5"/>
<text text-anchor="middle" x="216.5" y="-7.5" font-family="Helvetica,sans-Serif" font-size="10.00">quadspi.h</text>
</a>
</g>
</g>
<!-- Node3&#45;&gt;Node5 -->
<g id="edge4" class="edge">
<title>Node3&#45;&gt;Node5</title>
<path fill="none" stroke="midnightblue" d="M171.42,-56.08C179.28,-48.22 190.93,-36.57 200.42,-27.08"/>
<polygon fill="midnightblue" stroke="midnightblue" points="203.15,-29.3 207.75,-19.75 198.2,-24.35 203.15,-29.3"/>
</g>
</g>
</svg>
