<?xml version="1.0" encoding="UTF-8" standalone="no"?>
<!DOCTYPE svg PUBLIC "-//W3C//DTD SVG 1.1//EN"
 "http://www.w3.org/Graphics/SVG/1.1/DTD/svg11.dtd">
<!-- Generated by graphviz version 13.1.0 (20250701.0955)
 -->
<!-- Title: Lib::Helper::Convert::Hex&lt; uint16_t &gt; Pages: 1 -->
<svg width="180pt" height="92pt"
 viewBox="0.00 0.00 180.00 92.00" xmlns="http://www.w3.org/2000/svg" xmlns:xlink="http://www.w3.org/1999/xlink">
<g id="graph0" class="graph" transform="scale(1 1) rotate(0) translate(4 88)">
<title>Lib::Helper::Convert::Hex&lt; uint16_t &gt;</title>
<!-- Node1 -->
<g id="Node000001" class="node">
<title>Node1</title>
<g id="a_Node000001"><a xlink:title="Hex specialization for 16&#45;bit unsigned integers.">
<polygon fill="#999999" stroke="none" points="172.25,-84 0,-84 0,0 172.25,0 172.25,-84"/>
<text xml:space="preserve" text-anchor="start" x="4" y="-70.5" font-family="Helvetica,sans-Serif" font-size="10.00">Lib::Helper::Convert::Hex&lt; uint16_t &gt;</text>
<text xml:space="preserve" text-anchor="start" x="84.62" y="-54.5" font-family="Helvetica,sans-Serif" font-size="10.00"> </text>
<text xml:space="preserve" text-anchor="start" x="28.31" y="-38.5" font-family="Helvetica,sans-Serif" font-size="10.00">+</text>
<text xml:space="preserve" text-anchor="start" x="62.62" y="-38.5" font-family="Helvetica,sans-Serif" font-size="10.00">toBcd()</text>
<text xml:space="preserve" text-anchor="start" x="28.31" y="-22.5" font-family="Helvetica,sans-Serif" font-size="10.00">+</text>
<text xml:space="preserve" text-anchor="start" x="62.62" y="-22.5" font-family="Helvetica,sans-Serif" font-size="10.00">toString()</text>
<text xml:space="preserve" text-anchor="start" x="28.31" y="-6.5" font-family="Helvetica,sans-Serif" font-size="10.00">+</text>
<text xml:space="preserve" text-anchor="start" x="62.62" y="-6.5" font-family="Helvetica,sans-Serif" font-size="10.00">toBcdString()</text>
<polygon fill="#666666" stroke="#666666" points="0,-66 0,-66 172.25,-66 172.25,-66 0,-66"/>
<polygon fill="#666666" stroke="#666666" points="0,-50 0,-50 172.25,-50 172.25,-50 0,-50"/>
<polygon fill="none" stroke="#666666" points="0,0 0,-84 172.25,-84 172.25,0 0,0"/>
</a>
</g>
</g>
</g>
</svg>
