<?xml version="1.0" encoding="UTF-8" standalone="no"?>
<!DOCTYPE svg PUBLIC "-//W3C//DTD SVG 1.1//EN"
 "http://www.w3.org/Graphics/SVG/1.1/DTD/svg11.dtd">
<!-- Generated by graphviz version 13.1.0 (20250701.0955)
 -->
<!-- Title: Lib::BSP::EncoderTimer::Config Pages: 1 -->
<svg width="258pt" height="188pt"
 viewBox="0.00 0.00 258.00 188.00" xmlns="http://www.w3.org/2000/svg" xmlns:xlink="http://www.w3.org/1999/xlink">
<g id="graph0" class="graph" transform="scale(1 1) rotate(0) translate(4 184)">
<title>Lib::BSP::EncoderTimer::Config</title>
<!-- Node1 -->
<g id="Node000001" class="node">
<title>Node1</title>
<g id="a_Node000001"><a xlink:title="Configuration for EncoderTimer.">
<polygon fill="#999999" stroke="none" points="153.25,-32 39.5,-32 39.5,0 153.25,0 153.25,-32"/>
<text xml:space="preserve" text-anchor="start" x="43.5" y="-18.5" font-family="Helvetica,sans-Serif" font-size="10.00">Lib::BSP::EncoderTimer</text>
<text xml:space="preserve" text-anchor="start" x="79.12" y="-6.5" font-family="Helvetica,sans-Serif" font-size="10.00">::Config</text>
<polygon fill="none" stroke="#666666" points="39.5,0 39.5,-32 153.25,-32 153.25,0 39.5,0"/>
</a>
</g>
</g>
<!-- Node2 -->
<g id="Node000002" class="node">
<title>Node2</title>
<g id="a_Node000002"><a xlink:title=" ">
<polygon fill="white" stroke="none" points="104.75,-106 0,-106 0,-86 104.75,-86 104.75,-106"/>
<text xml:space="preserve" text-anchor="start" x="4" y="-92.5" font-family="Helvetica,sans-Serif" font-size="10.00">TIM_HandleTypeDef *</text>
<polygon fill="none" stroke="#bfbfbf" points="0,-86 0,-106 104.75,-106 104.75,-86 0,-86"/>
</a>
</g>
</g>
<!-- Node2&#45;&gt;Node1 -->
<g id="edge1_Node000001_Node000002" class="edge">
<title>Node2&#45;&gt;Node1</title>
<g id="a_edge1_Node000001_Node000002"><a xlink:title=" ">
<path fill="none" stroke="#63b8ff" d="M55.83,-86.13C59.56,-76.87 65.93,-62.05 72.88,-50 74.33,-47.48 75.93,-44.9 77.59,-42.37"/>
<polygon fill="none" stroke="#63b8ff" points="77.63,-42.31 77.76,-35.1 84.47,-32.45 84.34,-39.66 77.63,-42.31"/>
</a>
</g>
<text xml:space="preserve" text-anchor="start" x="75.88" y="-55.5" font-family="Helvetica,sans-Serif" font-size="10.00" fill="grey">+timerHandle</text>
</g>
<!-- Node3 -->
<g id="Node000003" class="node">
<title>Node3</title>
<g id="a_Node000003"><a xlink:href="../../d3/d9a/class_lib_1_1_h_a_l_1_1_g_p_i_o_1_1_handle.html" target="_top" xlink:title="GPIO pin handle abstraction.">
<polygon fill="white" stroke="none" points="236.25,-106 122.5,-106 122.5,-86 236.25,-86 236.25,-106"/>
<text xml:space="preserve" text-anchor="start" x="126.5" y="-92.5" font-family="Helvetica,sans-Serif" font-size="10.00">Lib::HAL::GPIO::Handle</text>
<polygon fill="none" stroke="#666666" points="122.5,-86 122.5,-106 236.25,-106 236.25,-86 122.5,-86"/>
</a>
</g>
</g>
<!-- Node3&#45;&gt;Node1 -->
<g id="edge2_Node000001_Node000003" class="edge">
<title>Node3&#45;&gt;Node1</title>
<g id="a_edge2_Node000001_Node000003"><a xlink:title=" ">
<path fill="none" stroke="#63b8ff" d="M171.67,-86.02C163.51,-76.68 150.06,-61.79 137.38,-50 133.82,-46.7 129.97,-43.34 126.11,-40.1"/>
<polygon fill="none" stroke="#63b8ff" points="126.04,-40.04 118.86,-39.36 116.74,-32.47 123.92,-33.15 126.04,-40.04"/>
</a>
</g>
<text xml:space="preserve" text-anchor="start" x="158.28" y="-55.5" font-family="Helvetica,sans-Serif" font-size="10.00" fill="grey">+buttonPin</text>
</g>
<!-- Node4 -->
<g id="Node000004" class="node">
<title>Node4</title>
<g id="a_Node000004"><a xlink:title=" ">
<polygon fill="white" stroke="none" points="180.12,-180 98.62,-180 98.62,-160 180.12,-160 180.12,-180"/>
<text xml:space="preserve" text-anchor="start" x="102.62" y="-166.5" font-family="Helvetica,sans-Serif" font-size="10.00">GPIO_TypeDef *</text>
<polygon fill="none" stroke="#bfbfbf" points="98.62,-160 98.62,-180 180.12,-180 180.12,-160 98.62,-160"/>
</a>
</g>
</g>
<!-- Node4&#45;&gt;Node3 -->
<g id="edge3_Node000003_Node000004" class="edge">
<title>Node4&#45;&gt;Node3</title>
<g id="a_edge3_Node000003_Node000004"><a xlink:title=" ">
<path fill="none" stroke="#63b8ff" d="M144.28,-160.17C150.22,-149.48 160.4,-131.16 168.27,-116.99"/>
<polygon fill="none" stroke="#63b8ff" points="168.16,-117.18 167.58,-109.99 173.99,-106.69 174.58,-113.88 168.16,-117.18"/>
</a>
</g>
<text xml:space="preserve" text-anchor="start" x="167.13" y="-129.5" font-family="Helvetica,sans-Serif" font-size="10.00" fill="grey">+port</text>
</g>
<!-- Node5 -->
<g id="Node000005" class="node">
<title>Node5</title>
<g id="a_Node000005"><a xlink:title=" ">
<polygon fill="white" stroke="none" points="240.62,-180 198.12,-180 198.12,-160 240.62,-160 240.62,-180"/>
<text xml:space="preserve" text-anchor="start" x="202.12" y="-166.5" font-family="Helvetica,sans-Serif" font-size="10.00">uint16_t</text>
<polygon fill="none" stroke="#bfbfbf" points="198.12,-160 198.12,-180 240.62,-180 240.62,-160 198.12,-160"/>
</a>
</g>
</g>
<!-- Node5&#45;&gt;Node3 -->
<g id="edge4_Node000003_Node000005" class="edge">
<title>Node5&#45;&gt;Node3</title>
<g id="a_edge4_Node000003_Node000005"><a xlink:title=" ">
<path fill="none" stroke="#63b8ff" d="M215.19,-160.25C210.75,-151.09 203.4,-136.35 196.38,-124 195.01,-121.59 193.52,-119.1 192.02,-116.64"/>
<polygon fill="none" stroke="#63b8ff" points="192.12,-116.79 185.54,-113.85 185.73,-106.64 192.31,-109.59 192.12,-116.79"/>
</a>
</g>
<text xml:space="preserve" text-anchor="start" x="208.61" y="-129.5" font-family="Helvetica,sans-Serif" font-size="10.00" fill="grey">+number</text>
</g>
</g>
</svg>
