<?xml version="1.0" encoding="UTF-8" standalone="no"?>
<!DOCTYPE svg PUBLIC "-//W3C//DTD SVG 1.1//EN"
 "http://www.w3.org/Graphics/SVG/1.1/DTD/svg11.dtd">
<!-- Generated by graphviz version 12.2.1 (20241206.2353)
 -->
<!-- Title: Lib::HAL::TIM::Base::getHandle Pages: 1 -->
<svg width="325pt" height="240pt"
 viewBox="0.00 0.00 325.00 240.00" xmlns="http://www.w3.org/2000/svg" xmlns:xlink="http://www.w3.org/1999/xlink">
<g id="graph0" class="graph" transform="scale(1 1) rotate(0) translate(4 236)">
<title>Lib::HAL::TIM::Base::getHandle</title>
<!-- Node1 -->
<g id="Node000001" class="node">
<title>Node1</title>
<g id="a_Node000001"><a xlink:title="Get the handle object.">
<polygon fill="#999999" stroke="#666666" points="317,-132 211,-132 211,-100 317,-100 317,-132"/>
<text text-anchor="start" x="219" y="-118.5" font-family="Helvetica,sans-Serif" font-size="10.00">Lib::HAL::TIM::Base</text>
<text text-anchor="middle" x="264" y="-106.5" font-family="Helvetica,sans-Serif" font-size="10.00">::getHandle</text>
</a>
</g>
</g>
<!-- Node2 -->
<g id="Node000002" class="node">
<title>Node2</title>
<g id="a_Node000002"><a xlink:href="../../d1/d5d/a00311.html#ad52b33bb8cd29f654a0f7c999d0201ad" target="_top" xlink:title="Adds a device to the Device Manager.">
<polygon fill="white" stroke="#666666" points="143.5,-232 31.5,-232 31.5,-200 143.5,-200 143.5,-232"/>
<text text-anchor="start" x="39.5" y="-218.5" font-family="Helvetica,sans-Serif" font-size="10.00">Lib::HAL::TIM::Base</text>
<text text-anchor="middle" x="87.5" y="-206.5" font-family="Helvetica,sans-Serif" font-size="10.00">::DeviceManager::add</text>
</a>
</g>
</g>
<!-- Node1&#45;&gt;Node2 -->
<g id="edge1_Node000001_Node000002" class="edge">
<title>Node1&#45;&gt;Node2</title>
<g id="a_edge1_Node000001_Node000002"><a xlink:title=" ">
<path fill="none" stroke="#63b8ff" d="M239.99,-140.46C223.34,-156.86 199.54,-177.8 175,-191 165.36,-196.18 154.53,-200.4 143.87,-203.8"/>
<polygon fill="#63b8ff" stroke="#63b8ff" points="242.39,-143.01 246.94,-133.44 237.42,-138.08 242.39,-143.01"/>
</a>
</g>
</g>
<!-- Node3 -->
<g id="Node000003" class="node">
<title>Node3</title>
<g id="a_Node000003"><a xlink:href="../../de/d55/a00323.html#a30e3fabb9057f35427bb6a23666cc6e5" target="_top" xlink:title="Close the Timer Interface.">
<polygon fill="white" stroke="#666666" points="159.62,-182 15.38,-182 15.38,-150 159.62,-150 159.62,-182"/>
<text text-anchor="start" x="23.38" y="-168.5" font-family="Helvetica,sans-Serif" font-size="10.00">Lib::HAL::TIM::Timer</text>
<text text-anchor="middle" x="87.5" y="-156.5" font-family="Helvetica,sans-Serif" font-size="10.00">&lt; Mode::ENCODER &gt;::close</text>
</a>
</g>
</g>
<!-- Node1&#45;&gt;Node3 -->
<g id="edge2_Node000001_Node000003" class="edge">
<title>Node1&#45;&gt;Node3</title>
<g id="a_edge2_Node000001_Node000003"><a xlink:title=" ">
<path fill="none" stroke="#63b8ff" d="M199.9,-134.08C182.29,-139.13 163.26,-144.58 146,-149.52"/>
<polygon fill="#63b8ff" stroke="#63b8ff" points="200.54,-137.54 209.19,-131.42 198.61,-130.81 200.54,-137.54"/>
</a>
</g>
</g>
<!-- Node4 -->
<g id="Node000004" class="node">
<title>Node4</title>
<g id="a_Node000004"><a xlink:href="../../de/d55/a00323.html#aff010ee12752a7de4dc6bdff3d71148f" target="_top" xlink:title="Handle the timer event.">
<polygon fill="white" stroke="#666666" points="175,-132 0,-132 0,-100 175,-100 175,-132"/>
<text text-anchor="start" x="8" y="-118.5" font-family="Helvetica,sans-Serif" font-size="10.00">Lib::HAL::TIM::Timer</text>
<text text-anchor="middle" x="87.5" y="-106.5" font-family="Helvetica,sans-Serif" font-size="10.00">&lt; Mode::ENCODER &gt;::handleEvent</text>
</a>
</g>
</g>
<!-- Node1&#45;&gt;Node4 -->
<g id="edge3_Node000001_Node000004" class="edge">
<title>Node1&#45;&gt;Node4</title>
<g id="a_edge3_Node000001_Node000004"><a xlink:title=" ">
<path fill="none" stroke="#63b8ff" d="M199.14,-116C191.4,-116 183.4,-116 175.4,-116"/>
<polygon fill="#63b8ff" stroke="#63b8ff" points="199.13,-119.5 209.13,-116 199.13,-112.5 199.13,-119.5"/>
</a>
</g>
</g>
<!-- Node5 -->
<g id="Node000005" class="node">
<title>Node5</title>
<g id="a_Node000005"><a xlink:href="../../de/d55/a00323.html#a2e360de332a83d537ba388388e58122a" target="_top" xlink:title="Open the Timer Interface.">
<polygon fill="white" stroke="#666666" points="158.5,-82 16.5,-82 16.5,-50 158.5,-50 158.5,-82"/>
<text text-anchor="start" x="24.5" y="-68.5" font-family="Helvetica,sans-Serif" font-size="10.00">Lib::HAL::TIM::Timer</text>
<text text-anchor="middle" x="87.5" y="-56.5" font-family="Helvetica,sans-Serif" font-size="10.00">&lt; Mode::ENCODER &gt;::open</text>
</a>
</g>
</g>
<!-- Node1&#45;&gt;Node5 -->
<g id="edge4_Node000001_Node000005" class="edge">
<title>Node1&#45;&gt;Node5</title>
<g id="a_edge4_Node000001_Node000005"><a xlink:title=" ">
<path fill="none" stroke="#63b8ff" d="M199.9,-97.92C182.29,-92.87 163.26,-87.42 146,-82.48"/>
<polygon fill="#63b8ff" stroke="#63b8ff" points="198.61,-101.19 209.19,-100.58 200.54,-94.46 198.61,-101.19"/>
</a>
</g>
</g>
<!-- Node6 -->
<g id="Node000006" class="node">
<title>Node6</title>
<g id="a_Node000006"><a xlink:href="../../d1/d5d/a00311.html#a67c0a77eddcebf540d07f6e7bbb9fe20" target="_top" xlink:title="Removes a device from the Device Manager.">
<polygon fill="white" stroke="#666666" points="151.75,-32 23.25,-32 23.25,0 151.75,0 151.75,-32"/>
<text text-anchor="start" x="31.25" y="-18.5" font-family="Helvetica,sans-Serif" font-size="10.00">Lib::HAL::TIM::Base</text>
<text text-anchor="middle" x="87.5" y="-6.5" font-family="Helvetica,sans-Serif" font-size="10.00">::DeviceManager::remove</text>
</a>
</g>
</g>
<!-- Node1&#45;&gt;Node6 -->
<g id="edge5_Node000001_Node000006" class="edge">
<title>Node1&#45;&gt;Node6</title>
<g id="a_edge5_Node000001_Node000006"><a xlink:title=" ">
<path fill="none" stroke="#63b8ff" d="M239.99,-91.54C223.34,-75.14 199.54,-54.2 175,-41 167.84,-37.15 160.02,-33.83 152.11,-30.99"/>
<polygon fill="#63b8ff" stroke="#63b8ff" points="237.42,-93.92 246.94,-98.56 242.39,-88.99 237.42,-93.92"/>
</a>
</g>
</g>
</g>
</svg>
