<?xml version="1.0" encoding="UTF-8" standalone="no"?>
<!DOCTYPE svg PUBLIC "-//W3C//DTD SVG 1.1//EN"
 "http://www.w3.org/Graphics/SVG/1.1/DTD/svg11.dtd">
<!-- Generated by graphviz version 13.1.0 (20250701.0955)
 -->
<!-- Title: Frame0x89.hpp Pages: 1 -->
<svg width="600pt" height="532pt"
 viewBox="0.00 0.00 600.00 532.00" xmlns="http://www.w3.org/2000/svg" xmlns:xlink="http://www.w3.org/1999/xlink">
<g id="graph0" class="graph" transform="scale(1 1) rotate(0) translate(4 528)">
<title>Frame0x89.hpp</title>
<!-- Node1 -->
<g id="Node000001" class="node">
<title>Node1</title>
<g id="a_Node000001"><a xlink:title="Transmit Status frame (0x89) for Xbee Core.">
<polygon fill="#999999" stroke="#666666" points="97.75,-524 14.25,-524 14.25,-504 97.75,-504 97.75,-524"/>
<text xml:space="preserve" text-anchor="middle" x="56" y="-510.5" font-family="Helvetica,sans-Serif" font-size="10.00">Frame0x89.hpp</text>
</a>
</g>
</g>
<!-- Node2 -->
<g id="Node000002" class="node">
<title>Node2</title>
<g id="a_Node000002"><a xlink:href="../../d7/d54/a02342.html" target="_top" xlink:title="Base class for Xbee API client applications.">
<polygon fill="white" stroke="#666666" points="153.38,-20 70.62,-20 70.62,0 153.38,0 153.38,-20"/>
<text xml:space="preserve" text-anchor="middle" x="112" y="-6.5" font-family="Helvetica,sans-Serif" font-size="10.00">ClientBase.hpp</text>
</a>
</g>
</g>
<!-- Node1&#45;&gt;Node2 -->
<g id="edge1_Node000001_Node000002" class="edge">
<title>Node1&#45;&gt;Node2</title>
<g id="a_edge1_Node000001_Node000002"><a xlink:title=" ">
<path fill="none" stroke="#63b8ff" d="M40.03,-494.87C23.48,-474.16 0,-438.52 0,-403 0,-403 0,-403 0,-121 0,-70.99 57.55,-36.16 90.14,-20.44"/>
<polygon fill="#63b8ff" stroke="#63b8ff" points="37.19,-496.93 46.28,-502.36 42.56,-492.44 37.19,-496.93"/>
</a>
</g>
</g>
<!-- Node3 -->
<g id="Node000003" class="node">
<title>Node3</title>
<g id="a_Node000003"><a xlink:href="../../dc/d91/a00659.html" target="_top" xlink:title="ResponseEvents class for Digi XBee API response event handling.">
<polygon fill="white" stroke="#666666" points="153.88,-468 44.12,-468 44.12,-448 153.88,-448 153.88,-468"/>
<text xml:space="preserve" text-anchor="middle" x="99" y="-454.5" font-family="Helvetica,sans-Serif" font-size="10.00">ResponseEvents.hpp</text>
</a>
</g>
</g>
<!-- Node1&#45;&gt;Node3 -->
<g id="edge2_Node000001_Node000003" class="edge">
<title>Node1&#45;&gt;Node3</title>
<g id="a_edge2_Node000001_Node000003"><a xlink:title=" ">
<path fill="none" stroke="#63b8ff" d="M70.56,-494.72C77.63,-485.84 85.82,-475.55 91.6,-468.3"/>
<polygon fill="#63b8ff" stroke="#63b8ff" points="67.92,-492.41 64.43,-502.41 73.4,-496.77 67.92,-492.41"/>
</a>
</g>
</g>
<!-- Node4 -->
<g id="Node000004" class="node">
<title>Node4</title>
<g id="a_Node000004"><a xlink:href="../../da/dd1/a00629.html" target="_top" xlink:title="Module class for managing and communicating with an XBEE module.">
<polygon fill="white" stroke="#666666" points="179.12,-300 112.88,-300 112.88,-280 179.12,-280 179.12,-300"/>
<text xml:space="preserve" text-anchor="middle" x="146" y="-286.5" font-family="Helvetica,sans-Serif" font-size="10.00">Module.hpp</text>
</a>
</g>
</g>
<!-- Node3&#45;&gt;Node4 -->
<g id="edge3_Node000003_Node000004" class="edge">
<title>Node3&#45;&gt;Node4</title>
<g id="a_edge3_Node000003_Node000004"><a xlink:title=" ">
<path fill="none" stroke="#63b8ff" d="M121.35,-440.31C129.75,-432.7 138.38,-422.94 143,-412 159.35,-373.28 151.98,-321.21 147.98,-300.28"/>
<polygon fill="#63b8ff" stroke="#63b8ff" points="119.12,-437.62 113.69,-446.71 123.61,-442.99 119.12,-437.62"/>
</a>
</g>
</g>
<!-- Node14 -->
<g id="Node000014" class="node">
<title>Node14</title>
<g id="a_Node000014"><a xlink:href="../../d4/d2a/a00632.html" target="_top" xlink:title="Protocol class for parsing, validating, and dispatching XBEE API frames.">
<polygon fill="white" stroke="#666666" points="134.38,-412 63.62,-412 63.62,-392 134.38,-392 134.38,-412"/>
<text xml:space="preserve" text-anchor="middle" x="99" y="-398.5" font-family="Helvetica,sans-Serif" font-size="10.00">Protocol.hpp</text>
</a>
</g>
</g>
<!-- Node3&#45;&gt;Node14 -->
<g id="edge23_Node000003_Node000014" class="edge">
<title>Node3&#45;&gt;Node14</title>
<g id="a_edge23_Node000003_Node000014"><a xlink:title=" ">
<path fill="none" stroke="#63b8ff" d="M99,-436.13C99,-427.9 99,-418.85 99,-412.3"/>
<polygon fill="#63b8ff" stroke="#63b8ff" points="95.5,-436.08 99,-446.08 102.5,-436.08 95.5,-436.08"/>
</a>
</g>
</g>
<!-- Node5 -->
<g id="Node000005" class="node">
<title>Node5</title>
<g id="a_Node000005"><a xlink:href="../../dc/dae/a00563.html" target="_top" xlink:title="Base class for Xbee API applications (U146&#45;Firmware).">
<polygon fill="white" stroke="#666666" points="287.62,-76 182.38,-76 182.38,-56 287.62,-56 287.62,-76"/>
<text xml:space="preserve" text-anchor="middle" x="235" y="-62.5" font-family="Helvetica,sans-Serif" font-size="10.00">ApplicationBase.hpp</text>
</a>
</g>
</g>
<!-- Node4&#45;&gt;Node5 -->
<g id="edge4_Node000004_Node000005" class="edge">
<title>Node4&#45;&gt;Node5</title>
<g id="a_edge4_Node000004_Node000005"><a xlink:title=" ">
<path fill="none" stroke="#63b8ff" d="M109.11,-274.71C95.91,-267.6 82.46,-257.55 75,-244 54.84,-207.36 28.29,-193.81 104,-112 124.09,-90.29 155.12,-79.05 181.93,-73.24"/>
<polygon fill="#63b8ff" stroke="#63b8ff" points="107.18,-277.66 117.7,-278.93 110.26,-271.38 107.18,-277.66"/>
</a>
</g>
</g>
<!-- Node7 -->
<g id="Node000007" class="node">
<title>Node7</title>
<g id="a_Node000007"><a xlink:href="../../dc/d4d/a00620.html" target="_top" xlink:title="LocalAtCommand class for sending and receiving local AT commands to XBee modules.">
<polygon fill="white" stroke="#666666" points="375.38,-244 262.62,-244 262.62,-224 375.38,-224 375.38,-244"/>
<text xml:space="preserve" text-anchor="middle" x="319" y="-230.5" font-family="Helvetica,sans-Serif" font-size="10.00">LocalAtCommand.hpp</text>
</a>
</g>
</g>
<!-- Node4&#45;&gt;Node7 -->
<g id="edge7_Node000004_Node000007" class="edge">
<title>Node4&#45;&gt;Node7</title>
<g id="a_edge7_Node000004_Node000007"><a xlink:title=" ">
<path fill="none" stroke="#63b8ff" d="M187.08,-276.18C218.26,-266.44 260.44,-253.28 288.63,-244.48"/>
<polygon fill="#63b8ff" stroke="#63b8ff" points="186.08,-272.82 177.58,-279.14 188.17,-279.5 186.08,-272.82"/>
</a>
</g>
</g>
<!-- Node12 -->
<g id="Node000012" class="node">
<title>Node12</title>
<g id="a_Node000012"><a xlink:href="../../d6/dfa/a00626.html" target="_top" xlink:title="ModemStatus class for handling Xbee modem status responses.">
<polygon fill="white" stroke="#666666" points="571.75,-132 476.25,-132 476.25,-112 571.75,-112 571.75,-132"/>
<text xml:space="preserve" text-anchor="middle" x="524" y="-118.5" font-family="Helvetica,sans-Serif" font-size="10.00">ModemStatus.hpp</text>
</a>
</g>
</g>
<!-- Node4&#45;&gt;Node12 -->
<g id="edge18_Node000004_Node000012" class="edge">
<title>Node4&#45;&gt;Node12</title>
<g id="a_edge18_Node000004_Node000012"><a xlink:title=" ">
<path fill="none" stroke="#63b8ff" d="M190.51,-287.46C240.01,-284.23 321.25,-274.3 384,-244 443.02,-215.51 496.88,-155.59 516.32,-132.42"/>
<polygon fill="#63b8ff" stroke="#63b8ff" points="190.54,-283.95 180.76,-288.03 190.94,-290.94 190.54,-283.95"/>
</a>
</g>
</g>
<!-- Node13 -->
<g id="Node000013" class="node">
<title>Node13</title>
<g id="a_Node000013"><a xlink:href="../../dc/df2/a00656.html" target="_top" xlink:title="RemoteAtCommand class for sending and receiving remote AT commands to XBEE modules.">
<polygon fill="white" stroke="#666666" points="208,-244 84,-244 84,-224 208,-224 208,-244"/>
<text xml:space="preserve" text-anchor="middle" x="146" y="-230.5" font-family="Helvetica,sans-Serif" font-size="10.00">RemoteAtCommand.hpp</text>
</a>
</g>
</g>
<!-- Node4&#45;&gt;Node13 -->
<g id="edge20_Node000004_Node000013" class="edge">
<title>Node4&#45;&gt;Node13</title>
<g id="a_edge20_Node000004_Node000013"><a xlink:title=" ">
<path fill="none" stroke="#63b8ff" d="M146,-268.13C146,-259.9 146,-250.85 146,-244.3"/>
<polygon fill="#63b8ff" stroke="#63b8ff" points="142.5,-268.08 146,-278.08 149.5,-268.08 142.5,-268.08"/>
</a>
</g>
</g>
<!-- Node5&#45;&gt;Node2 -->
<g id="edge5_Node000005_Node000002" class="edge">
<title>Node5&#45;&gt;Node2</title>
<g id="a_edge5_Node000005_Node000002"><a xlink:title=" ">
<path fill="none" stroke="#63b8ff" d="M203.13,-51.01C181.27,-41.41 152.84,-28.93 133.59,-20.48"/>
<polygon fill="#63b8ff" stroke="#63b8ff" points="201.63,-54.17 212.19,-54.99 204.44,-47.76 201.63,-54.17"/>
</a>
</g>
</g>
<!-- Node6 -->
<g id="Node000006" class="node">
<title>Node6</title>
<g id="a_Node000006"><a xlink:href="../../d8/d26/a02357.html" target="_top" xlink:title="Xbee Server Base class for server&#45;side communication.">
<polygon fill="white" stroke="#666666" points="328.88,-20 243.12,-20 243.12,0 328.88,0 328.88,-20"/>
<text xml:space="preserve" text-anchor="middle" x="286" y="-6.5" font-family="Helvetica,sans-Serif" font-size="10.00">ServerBase.hpp</text>
</a>
</g>
</g>
<!-- Node5&#45;&gt;Node6 -->
<g id="edge6_Node000005_Node000006" class="edge">
<title>Node5&#45;&gt;Node6</title>
<g id="a_edge6_Node000005_Node000006"><a xlink:title=" ">
<path fill="none" stroke="#63b8ff" d="M251.73,-47.29C260.24,-38.28 270.23,-27.7 277.22,-20.3"/>
<polygon fill="#63b8ff" stroke="#63b8ff" points="249.24,-44.82 244.92,-54.49 254.33,-49.63 249.24,-44.82"/>
</a>
</g>
</g>
<!-- Node7&#45;&gt;Node5 -->
<g id="edge8_Node000007_Node000005" class="edge">
<title>Node7&#45;&gt;Node5</title>
<g id="a_edge8_Node000007_Node000005"><a xlink:title=" ">
<path fill="none" stroke="#63b8ff" d="M349.92,-218.34C392.63,-196.13 460.99,-152.26 429,-112 411.63,-90.14 338.97,-77.95 287.69,-71.93"/>
<polygon fill="#63b8ff" stroke="#63b8ff" points="348.39,-215.19 341.04,-222.83 351.54,-221.44 348.39,-215.19"/>
</a>
</g>
</g>
<!-- Node7&#45;&gt;Node6 -->
<g id="edge15_Node000007_Node000006" class="edge">
<title>Node7&#45;&gt;Node6</title>
<g id="a_edge15_Node000007_Node000006"><a xlink:title=" ">
<path fill="none" stroke="#63b8ff" d="M387.02,-226.91C481.1,-215.68 633.7,-185.74 581,-112 523.09,-30.96 396.03,-14.24 329.14,-11.24"/>
<polygon fill="#63b8ff" stroke="#63b8ff" points="386.9,-223.4 377.36,-228.01 387.7,-230.35 386.9,-223.4"/>
</a>
</g>
</g>
<!-- Node8 -->
<g id="Node000008" class="node">
<title>Node8</title>
<g id="a_Node000008"><a xlink:href="../../d8/dc8/a00581.html" target="_top" xlink:title="Network Discovery Service for Xbee API.">
<polygon fill="white" stroke="#666666" points="419.5,-132 304.5,-132 304.5,-112 419.5,-112 419.5,-132"/>
<text xml:space="preserve" text-anchor="middle" x="362" y="-118.5" font-family="Helvetica,sans-Serif" font-size="10.00">NetworkDiscovery.hpp</text>
</a>
</g>
</g>
<!-- Node7&#45;&gt;Node8 -->
<g id="edge9_Node000007_Node000008" class="edge">
<title>Node7&#45;&gt;Node8</title>
<g id="a_edge9_Node000007_Node000008"><a xlink:title=" ">
<path fill="none" stroke="#63b8ff" d="M330.41,-213.71C334.73,-205.91 339.46,-196.69 343,-188 350.81,-168.84 356.86,-145.3 359.88,-132.46"/>
<polygon fill="#63b8ff" stroke="#63b8ff" points="327.42,-211.89 325.49,-222.31 333.5,-215.37 327.42,-211.89"/>
</a>
</g>
</g>
<!-- Node9 -->
<g id="Node000009" class="node">
<title>Node9</title>
<g id="a_Node000009"><a xlink:href="../../d1/ded/a02471.html" target="_top" xlink:title="Module Parameters Service for Xbee API.">
<polygon fill="white" stroke="#666666" points="195.5,-188 110.5,-188 110.5,-168 195.5,-168 195.5,-188"/>
<text xml:space="preserve" text-anchor="middle" x="153" y="-174.5" font-family="Helvetica,sans-Serif" font-size="10.00">Parameters.hpp</text>
</a>
</g>
</g>
<!-- Node7&#45;&gt;Node9 -->
<g id="edge11_Node000007_Node000009" class="edge">
<title>Node7&#45;&gt;Node9</title>
<g id="a_edge11_Node000007_Node000009"><a xlink:title=" ">
<path fill="none" stroke="#63b8ff" d="M279.19,-220.05C249.3,-210.33 209.07,-197.24 182.14,-188.48"/>
<polygon fill="#63b8ff" stroke="#63b8ff" points="278.05,-223.36 288.65,-223.13 280.22,-216.7 278.05,-223.36"/>
</a>
</g>
</g>
<!-- Node11 -->
<g id="Node000011" class="node">
<title>Node11</title>
<g id="a_Node000011"><a xlink:href="../../d7/d21/a00584.html" target="_top" xlink:title="Spectrum Analyzer Service for Xbee API.">
<polygon fill="white" stroke="#666666" points="333.5,-188 218.5,-188 218.5,-168 333.5,-168 333.5,-188"/>
<text xml:space="preserve" text-anchor="middle" x="276" y="-174.5" font-family="Helvetica,sans-Serif" font-size="10.00">SpectrumAnalyzer.hpp</text>
</a>
</g>
</g>
<!-- Node7&#45;&gt;Node11 -->
<g id="edge16_Node000007_Node000011" class="edge">
<title>Node7&#45;&gt;Node11</title>
<g id="a_edge16_Node000007_Node000011"><a xlink:title=" ">
<path fill="none" stroke="#63b8ff" d="M304.44,-214.72C297.37,-205.84 289.18,-195.55 283.4,-188.3"/>
<polygon fill="#63b8ff" stroke="#63b8ff" points="301.6,-216.77 310.57,-222.41 307.08,-212.41 301.6,-216.77"/>
</a>
</g>
</g>
<!-- Node8&#45;&gt;Node5 -->
<g id="edge10_Node000008_Node000005" class="edge">
<title>Node8&#45;&gt;Node5</title>
<g id="a_edge10_Node000008_Node000005"><a xlink:title=" ">
<path fill="none" stroke="#63b8ff" d="M329.4,-107.14C306.79,-97.52 277.26,-84.97 257.29,-76.48"/>
<polygon fill="#63b8ff" stroke="#63b8ff" points="327.91,-110.31 338.49,-111 330.65,-103.87 327.91,-110.31"/>
</a>
</g>
</g>
<!-- Node9&#45;&gt;Node5 -->
<g id="edge12_Node000009_Node000005" class="edge">
<title>Node9&#45;&gt;Node5</title>
<g id="a_edge12_Node000009_Node000005"><a xlink:title=" ">
<path fill="none" stroke="#63b8ff" d="M139.44,-158.58C131.15,-144.88 123.75,-126.19 133,-112 144.84,-93.84 165.84,-82.96 185.72,-76.46"/>
<polygon fill="#63b8ff" stroke="#63b8ff" points="136.38,-160.3 144.85,-166.66 142.19,-156.41 136.38,-160.3"/>
</a>
</g>
</g>
<!-- Node10 -->
<g id="Node000010" class="node">
<title>Node10</title>
<g id="a_Node000010"><a xlink:href="../../d9/d42/a00575.html" target="_top" xlink:title="Channel scanning service for XBee API.">
<polygon fill="white" stroke="#666666" points="248.38,-132 141.62,-132 141.62,-112 248.38,-112 248.38,-132"/>
<text xml:space="preserve" text-anchor="middle" x="195" y="-118.5" font-family="Helvetica,sans-Serif" font-size="10.00">ChannelScanner.hpp</text>
</a>
</g>
</g>
<!-- Node9&#45;&gt;Node10 -->
<g id="edge13_Node000009_Node000010" class="edge">
<title>Node9&#45;&gt;Node10</title>
<g id="a_edge13_Node000009_Node000010"><a xlink:title=" ">
<path fill="none" stroke="#63b8ff" d="M167.22,-158.72C174.13,-149.84 182.13,-139.55 187.77,-132.3"/>
<polygon fill="#63b8ff" stroke="#63b8ff" points="164.62,-156.36 161.25,-166.4 170.15,-160.65 164.62,-156.36"/>
</a>
</g>
</g>
<!-- Node10&#45;&gt;Node5 -->
<g id="edge14_Node000010_Node000005" class="edge">
<title>Node10&#45;&gt;Node5</title>
<g id="a_edge14_Node000010_Node000005"><a xlink:title=" ">
<path fill="none" stroke="#63b8ff" d="M208.75,-102.44C215.28,-93.62 222.8,-83.47 228.11,-76.3"/>
<polygon fill="#63b8ff" stroke="#63b8ff" points="206.01,-100.26 202.87,-110.38 211.63,-104.43 206.01,-100.26"/>
</a>
</g>
</g>
<!-- Node11&#45;&gt;Node5 -->
<g id="edge17_Node000011_Node000005" class="edge">
<title>Node11&#45;&gt;Node5</title>
<g id="a_edge17_Node000011_Node000005"><a xlink:title=" ">
<path fill="none" stroke="#63b8ff" d="M271,-156.61C267.58,-143.65 262.66,-126.62 257,-112 252.1,-99.35 245,-85.41 240.21,-76.44"/>
<polygon fill="#63b8ff" stroke="#63b8ff" points="267.56,-157.28 273.41,-166.11 274.34,-155.56 267.56,-157.28"/>
</a>
</g>
</g>
<!-- Node12&#45;&gt;Node5 -->
<g id="edge19_Node000012_Node000005" class="edge">
<title>Node12&#45;&gt;Node5</title>
<g id="a_edge19_Node000012_Node000005"><a xlink:title=" ">
<path fill="none" stroke="#63b8ff" d="M464.74,-109.93C411.95,-100.06 335.56,-85.79 285.59,-76.45"/>
<polygon fill="#63b8ff" stroke="#63b8ff" points="463.99,-113.35 474.47,-111.74 465.28,-106.47 463.99,-113.35"/>
</a>
</g>
</g>
<!-- Node13&#45;&gt;Node5 -->
<g id="edge21_Node000013_Node000005" class="edge">
<title>Node13&#45;&gt;Node5</title>
<g id="a_edge21_Node000013_Node000005"><a xlink:title=" ">
<path fill="none" stroke="#63b8ff" d="M123.29,-216.71C114.59,-209.09 105.64,-199.21 101,-188 87.44,-155.27 99.75,-136.84 125,-112 143.02,-94.28 168.98,-83.21 191.16,-76.49"/>
<polygon fill="#63b8ff" stroke="#63b8ff" points="120.91,-219.29 130.89,-222.85 125.31,-213.84 120.91,-219.29"/>
</a>
</g>
</g>
<!-- Node13&#45;&gt;Node9 -->
<g id="edge22_Node000013_Node000009" class="edge">
<title>Node13&#45;&gt;Node9</title>
<g id="a_edge22_Node000013_Node000009"><a xlink:title=" ">
<path fill="none" stroke="#63b8ff" d="M148.67,-212.43C149.75,-204.11 150.93,-194.93 151.79,-188.3"/>
<polygon fill="#63b8ff" stroke="#63b8ff" points="145.23,-211.73 147.41,-222.09 152.17,-212.63 145.23,-211.73"/>
</a>
</g>
</g>
<!-- Node14&#45;&gt;Node4 -->
<g id="edge26_Node000014_Node000004" class="edge">
<title>Node14&#45;&gt;Node4</title>
<g id="a_edge26_Node000014_Node000004"><a xlink:title=" ">
<path fill="none" stroke="#63b8ff" d="M108.42,-381.43C112.13,-373.57 116.36,-364.4 120,-356 128.5,-336.37 137.6,-313.01 142.46,-300.32"/>
<polygon fill="#63b8ff" stroke="#63b8ff" points="105.29,-379.86 104.15,-390.39 111.61,-382.88 105.29,-379.86"/>
</a>
</g>
</g>
<!-- Node15 -->
<g id="Node000015" class="node">
<title>Node15</title>
<g id="a_Node000015"><a xlink:href="../../d5/d8a/a00599.html" target="_top" xlink:title="Communication driver for XBEE module.">
<polygon fill="white" stroke="#666666" points="111,-356 29,-356 29,-336 111,-336 111,-356"/>
<text xml:space="preserve" text-anchor="middle" x="70" y="-342.5" font-family="Helvetica,sans-Serif" font-size="10.00">ComDriver.hpp</text>
</a>
</g>
</g>
<!-- Node14&#45;&gt;Node15 -->
<g id="edge24_Node000014_Node000015" class="edge">
<title>Node14&#45;&gt;Node15</title>
<g id="a_edge24_Node000014_Node000015"><a xlink:title=" ">
<path fill="none" stroke="#63b8ff" d="M88.57,-381.58C83.95,-372.97 78.72,-363.24 74.99,-356.3"/>
<polygon fill="#63b8ff" stroke="#63b8ff" points="85.42,-383.11 93.23,-390.26 91.58,-379.79 85.42,-383.11"/>
</a>
</g>
</g>
<!-- Node15&#45;&gt;Node4 -->
<g id="edge25_Node000015_Node000004" class="edge">
<title>Node15&#45;&gt;Node4</title>
<g id="a_edge25_Node000015_Node000004"><a xlink:title=" ">
<path fill="none" stroke="#63b8ff" d="M92.52,-329C105.58,-319.72 121.58,-308.35 132.66,-300.48"/>
<polygon fill="#63b8ff" stroke="#63b8ff" points="90.6,-326.07 84.47,-334.72 94.65,-331.78 90.6,-326.07"/>
</a>
</g>
</g>
</g>
</svg>
