<?xml version="1.0" encoding="UTF-8" standalone="no"?>
<!DOCTYPE svg PUBLIC "-//W3C//DTD SVG 1.1//EN"
 "http://www.w3.org/Graphics/SVG/1.1/DTD/svg11.dtd">
<!-- Generated by graphviz version 13.1.0 (20250701.0955)
 -->
<!-- Title: Lib::HAL::SPI::Master::TransperentBase::DeviceManager Pages: 1 -->
<svg width="190pt" height="588pt"
 viewBox="0.00 0.00 190.00 588.00" xmlns="http://www.w3.org/2000/svg" xmlns:xlink="http://www.w3.org/1999/xlink">
<g id="graph0" class="graph" transform="scale(1 1) rotate(0) translate(4 584)">
<title>Lib::HAL::SPI::Master::TransperentBase::DeviceManager</title>
<!-- Node1 -->
<g id="Node000001" class="node">
<title>Node1</title>
<g id="a_Node000001"><a xlink:title="Device manager for transparent SPI master devices.">
<polygon fill="#999999" stroke="none" points="167.38,-130.5 14.62,-130.5 14.62,0 167.38,0 167.38,-130.5"/>
<text xml:space="preserve" text-anchor="start" x="18.62" y="-117.95" font-family="Arial" font-size="9.00">Lib::HAL::SPI::Master</text>
<text xml:space="preserve" text-anchor="start" x="18.62" y="-107.45" font-family="Arial" font-size="9.00">::TransperentBase::DeviceManager</text>
<text xml:space="preserve" text-anchor="start" x="89.88" y="-92.95" font-family="Arial" font-size="9.00"> </text>
<text xml:space="preserve" text-anchor="start" x="39.56" y="-78.45" font-family="Arial" font-size="9.00">+</text>
<text xml:space="preserve" text-anchor="start" x="69.75" y="-78.45" font-family="Arial" font-size="9.00">add()</text>
<text xml:space="preserve" text-anchor="start" x="39.56" y="-63.95" font-family="Arial" font-size="9.00">+</text>
<text xml:space="preserve" text-anchor="start" x="69.75" y="-63.95" font-family="Arial" font-size="9.00">remove()</text>
<text xml:space="preserve" text-anchor="start" x="39.56" y="-49.45" font-family="Arial" font-size="9.00">+</text>
<text xml:space="preserve" text-anchor="start" x="69.75" y="-49.45" font-family="Arial" font-size="9.00">init()</text>
<text xml:space="preserve" text-anchor="start" x="39.56" y="-34.95" font-family="Arial" font-size="9.00">+</text>
<text xml:space="preserve" text-anchor="start" x="69.75" y="-34.95" font-family="Arial" font-size="9.00">deinit()</text>
<text xml:space="preserve" text-anchor="start" x="39.56" y="-20.45" font-family="Arial" font-size="9.00">+</text>
<text xml:space="preserve" text-anchor="start" x="69.75" y="-20.45" font-family="Arial" font-size="9.00">instance()</text>
<text xml:space="preserve" text-anchor="start" x="39.56" y="-5.95" font-family="Arial" font-size="9.00">+</text>
<text xml:space="preserve" text-anchor="start" x="69.75" y="-5.95" font-family="Arial" font-size="9.00">isrCallback()</text>
<polygon fill="#666666" stroke="#666666" points="14.62,-103.5 14.62,-103.5 167.38,-103.5 167.38,-103.5 14.62,-103.5"/>
<polygon fill="#666666" stroke="#666666" points="14.62,-89 14.62,-89 167.38,-89 167.38,-89 14.62,-89"/>
<polygon fill="none" stroke="#666666" points="14.62,0 14.62,-130.5 167.38,-130.5 167.38,0 14.62,0"/>
</a>
</g>
</g>
<!-- Node2 -->
<g id="Node000002" class="node">
<title>Node2</title>
<g id="a_Node000002"><a xlink:href="../../df/d3f/a01537.html" target="_top" xlink:title=" ">
<polygon fill="white" stroke="none" points="182,-283.5 0,-283.5 0,-167.5 182,-167.5 182,-283.5"/>
<text xml:space="preserve" text-anchor="start" x="4" y="-270.95" font-family="Arial" font-size="9.00">Lib::HAL::DeviceManagerBase</text>
<text xml:space="preserve" text-anchor="start" x="4" y="-260.45" font-family="Arial" font-size="9.00">&lt; TransperentBase, SPI_HandleTypeDef &gt;</text>
<text xml:space="preserve" text-anchor="start" x="89.88" y="-245.95" font-family="Arial" font-size="9.00"> </text>
<text xml:space="preserve" text-anchor="start" x="20.81" y="-231.45" font-family="Arial" font-size="9.00">+</text>
<text xml:space="preserve" text-anchor="start" x="46.88" y="-231.45" font-family="Arial" font-size="9.00">DeviceManagerBase()</text>
<text xml:space="preserve" text-anchor="start" x="20.81" y="-216.95" font-family="Arial" font-size="9.00">+</text>
<text xml:space="preserve" text-anchor="start" x="46.88" y="-216.95" font-family="Arial" font-size="9.00">~DeviceManagerBase()</text>
<text xml:space="preserve" text-anchor="start" x="20.81" y="-202.45" font-family="Arial" font-size="9.00">+</text>
<text xml:space="preserve" text-anchor="start" x="46.88" y="-202.45" font-family="Arial" font-size="9.00">add()</text>
<text xml:space="preserve" text-anchor="start" x="20.81" y="-187.95" font-family="Arial" font-size="9.00">+</text>
<text xml:space="preserve" text-anchor="start" x="46.88" y="-187.95" font-family="Arial" font-size="9.00">remove()</text>
<text xml:space="preserve" text-anchor="start" x="20.81" y="-173.45" font-family="Arial" font-size="9.00">+</text>
<text xml:space="preserve" text-anchor="start" x="46.88" y="-173.45" font-family="Arial" font-size="9.00">getDevice()</text>
<polygon fill="#666666" stroke="#666666" points="0,-256.5 0,-256.5 182,-256.5 182,-256.5 0,-256.5"/>
<polygon fill="#666666" stroke="#666666" points="0,-242 0,-242 182,-242 182,-242 0,-242"/>
<polygon fill="none" stroke="#666666" points="0,-167.5 0,-283.5 182,-283.5 182,-167.5 0,-167.5"/>
</a>
</g>
</g>
<!-- Node2&#45;&gt;Node1 -->
<g id="edge1_Node000001_Node000002" class="edge">
<title>Node2&#45;&gt;Node1</title>
<g id="a_edge1_Node000001_Node000002"><a xlink:title=" ">
<path fill="none" stroke="#63b8ff" d="M91,-156.53C91,-147.84 91,-138.96 91,-130.34"/>
<polygon fill="none" stroke="#63b8ff" points="87.5,-156.3 91,-166.3 94.5,-156.3 87.5,-156.3"/>
</a>
</g>
</g>
<!-- Node3 -->
<g id="Node000003" class="node">
<title>Node3</title>
<g id="a_Node000003"><a xlink:href="../../d1/da7/a01709.html" target="_top" xlink:title=" ">
<polygon fill="white" stroke="none" points="140,-480 42,-480 42,-320.5 140,-320.5 140,-480"/>
<text xml:space="preserve" text-anchor="start" x="46" y="-467.45" font-family="Arial" font-size="9.00">Lib::Helper::Container</text>
<text xml:space="preserve" text-anchor="start" x="48.25" y="-456.95" font-family="Arial" font-size="9.00">&lt; TransperentBase &gt;</text>
<text xml:space="preserve" text-anchor="start" x="89.88" y="-442.45" font-family="Arial" font-size="9.00"> </text>
<text xml:space="preserve" text-anchor="start" x="53.25" y="-427.95" font-family="Arial" font-size="9.00">+</text>
<text xml:space="preserve" text-anchor="start" x="69.75" y="-427.95" font-family="Arial" font-size="9.00">Container()</text>
<text xml:space="preserve" text-anchor="start" x="53.25" y="-413.45" font-family="Arial" font-size="9.00">+</text>
<text xml:space="preserve" text-anchor="start" x="69.75" y="-413.45" font-family="Arial" font-size="9.00">~Container()</text>
<text xml:space="preserve" text-anchor="start" x="53.25" y="-398.95" font-family="Arial" font-size="9.00">+</text>
<text xml:space="preserve" text-anchor="start" x="69.75" y="-398.95" font-family="Arial" font-size="9.00">add()</text>
<text xml:space="preserve" text-anchor="start" x="53.25" y="-384.45" font-family="Arial" font-size="9.00">+</text>
<text xml:space="preserve" text-anchor="start" x="69.75" y="-384.45" font-family="Arial" font-size="9.00">remove()</text>
<text xml:space="preserve" text-anchor="start" x="53.25" y="-369.95" font-family="Arial" font-size="9.00">+</text>
<text xml:space="preserve" text-anchor="start" x="69.75" y="-369.95" font-family="Arial" font-size="9.00">erase()</text>
<text xml:space="preserve" text-anchor="start" x="53.25" y="-355.45" font-family="Arial" font-size="9.00">+</text>
<text xml:space="preserve" text-anchor="start" x="69.75" y="-355.45" font-family="Arial" font-size="9.00">process()</text>
<text xml:space="preserve" text-anchor="start" x="53.25" y="-340.95" font-family="Arial" font-size="9.00">+</text>
<text xml:space="preserve" text-anchor="start" x="69.75" y="-340.95" font-family="Arial" font-size="9.00">getSize()</text>
<text xml:space="preserve" text-anchor="start" x="53.25" y="-326.45" font-family="Arial" font-size="9.00">+</text>
<text xml:space="preserve" text-anchor="start" x="69.75" y="-326.45" font-family="Arial" font-size="9.00">vector()</text>
<polygon fill="#666666" stroke="#666666" points="42,-453 42,-453 140,-453 140,-453 42,-453"/>
<polygon fill="#666666" stroke="#666666" points="42,-438.5 42,-438.5 140,-438.5 140,-438.5 42,-438.5"/>
<polygon fill="none" stroke="#666666" points="42,-320.5 42,-480 140,-480 140,-320.5 42,-320.5"/>
</a>
</g>
</g>
<!-- Node3&#45;&gt;Node2 -->
<g id="edge2_Node000002_Node000003" class="edge">
<title>Node3&#45;&gt;Node2</title>
<g id="a_edge2_Node000002_Node000003"><a xlink:title=" ">
<path fill="none" stroke="darkgreen" d="M91,-309.49C91,-300.62 91,-291.81 91,-283.41"/>
<polygon fill="none" stroke="darkgreen" points="87.5,-309.2 91,-319.2 94.5,-309.2 87.5,-309.2"/>
</a>
</g>
</g>
<!-- Node4 -->
<g id="Node000004" class="node">
<title>Node4</title>
<g id="a_Node000004"><a xlink:href="../../dc/de0/a02349.html" target="_top" xlink:title=" ">
<polygon fill="white" stroke="none" points="153.12,-580 28.87,-580 28.87,-532.5 153.12,-532.5 153.12,-580"/>
<text xml:space="preserve" text-anchor="start" x="32.88" y="-567.45" font-family="Arial" font-size="9.00">vector&lt; TransperentBase * &gt;</text>
<text xml:space="preserve" text-anchor="start" x="89.88" y="-552.95" font-family="Arial" font-size="9.00"> </text>
<text xml:space="preserve" text-anchor="start" x="89.88" y="-538.45" font-family="Arial" font-size="9.00"> </text>
<polygon fill="#bfbfbf" stroke="#bfbfbf" points="28.88,-563.5 28.88,-563.5 153.12,-563.5 153.12,-563.5 28.88,-563.5"/>
<polygon fill="#bfbfbf" stroke="#bfbfbf" points="28.88,-549 28.88,-549 153.12,-549 153.12,-549 28.88,-549"/>
<polygon fill="none" stroke="#bfbfbf" points="28.88,-532.5 28.88,-580 153.12,-580 153.12,-532.5 28.88,-532.5"/>
</a>
</g>
</g>
<!-- Node4&#45;&gt;Node3 -->
<g id="edge3_Node000003_Node000004" class="edge">
<title>Node4&#45;&gt;Node3</title>
<g id="a_edge3_Node000003_Node000004"><a xlink:title=" ">
<path fill="none" stroke="#63b8ff" d="M91,-532.53C91,-521.41 91,-507.23 91,-492.32"/>
<polygon fill="none" stroke="#63b8ff" points="91,-492.58 87,-486.58 91,-480.58 95,-486.58 91,-492.58"/>
</a>
</g>
<text xml:space="preserve" text-anchor="start" x="94" y="-502.95" font-family="Arial" font-size="9.00" fill="grey">#storage</text>
</g>
</g>
</svg>
