<?xml version="1.0" encoding="UTF-8" standalone="no"?>
<!DOCTYPE svg PUBLIC "-//W3C//DTD SVG 1.1//EN"
 "http://www.w3.org/Graphics/SVG/1.1/DTD/svg11.dtd">
<!-- Generated by graphviz version 13.1.0 (20250701.0955)
 -->
<!-- Title: Lib::HAL::SPI::Master::TransperentBase::waitForAbortCompleted Pages: 1 -->
<svg width="490pt" height="84pt"
 viewBox="0.00 0.00 490.00 84.00" xmlns="http://www.w3.org/2000/svg" xmlns:xlink="http://www.w3.org/1999/xlink">
<g id="graph0" class="graph" transform="scale(1 1) rotate(0) translate(4 80)">
<title>Lib::HAL::SPI::Master::TransperentBase::waitForAbortCompleted</title>
<!-- Node1 -->
<g id="Node000001" class="node">
<title>Node1</title>
<g id="a_Node000001"><a xlink:title="Waits for abort completion event with timeout.">
<polygon fill="#999999" stroke="#666666" points="482.25,-57.25 335,-57.25 335,-17.75 482.25,-17.75 482.25,-57.25"/>
<text xml:space="preserve" text-anchor="start" x="343" y="-44.7" font-family="Arial" font-size="9.00">Lib::HAL::SPI::Master</text>
<text xml:space="preserve" text-anchor="start" x="343" y="-34.2" font-family="Arial" font-size="9.00">::TransperentBase::waitForAbort</text>
<text xml:space="preserve" text-anchor="middle" x="408.62" y="-23.7" font-family="Arial" font-size="9.00">Completed</text>
</a>
</g>
</g>
<!-- Node2 -->
<g id="Node000002" class="node">
<title>Node2</title>
<g id="a_Node000002"><a xlink:href="../../d0/da4/a01631.html#a0ee1261af66289ebe22ad068e2e2def3" target="_top" xlink:title="Aborts current SPI operation and waits for abort completion.">
<polygon fill="white" stroke="#666666" points="276.88,-76 160.38,-76 160.38,-47 276.88,-47 276.88,-76"/>
<text xml:space="preserve" text-anchor="start" x="168.38" y="-63.45" font-family="Arial" font-size="9.00">Lib::HAL::SPI::Master</text>
<text xml:space="preserve" text-anchor="middle" x="218.62" y="-52.95" font-family="Arial" font-size="9.00">::TransperentBase::abort</text>
</a>
</g>
</g>
<!-- Node1&#45;&gt;Node2 -->
<g id="edge1_Node000001_Node000002" class="edge">
<title>Node1&#45;&gt;Node2</title>
<g id="a_edge1_Node000001_Node000002"><a xlink:title=" ">
<path fill="none" stroke="#63b8ff" d="M323.37,-48.26C307.72,-50.25 291.71,-52.3 277.1,-54.16"/>
<polygon fill="#63b8ff" stroke="#63b8ff" points="323.69,-51.74 333.17,-47.01 322.81,-44.8 323.69,-51.74"/>
</a>
</g>
</g>
<!-- Node4 -->
<g id="Node000004" class="node">
<title>Node4</title>
<g id="a_Node000004"><a xlink:href="../../d4/d49/a01643.html#ae8eff6a2980af3ecad29ae85c9c2f54c" target="_top" xlink:title="Waits for abort completion in IT mode.">
<polygon fill="white" stroke="#666666" points="299,-29 138.25,-29 138.25,0 299,0 299,-29"/>
<text xml:space="preserve" text-anchor="start" x="146.25" y="-16.45" font-family="Arial" font-size="9.00">Lib::HAL::SPI::Master</text>
<text xml:space="preserve" text-anchor="middle" x="218.62" y="-5.95" font-family="Arial" font-size="9.00">::Port&lt; IT &gt;::waitForAbortCompleted</text>
</a>
</g>
</g>
<!-- Node1&#45;&gt;Node4 -->
<g id="edge3_Node000001_Node000004" class="edge">
<title>Node1&#45;&gt;Node4</title>
<g id="a_edge3_Node000001_Node000004"><a xlink:title=" ">
<path fill="none" stroke="#63b8ff" d="M323.45,-27.2C315.45,-26.22 307.35,-25.23 299.4,-24.26"/>
<polygon fill="#63b8ff" stroke="#63b8ff" points="322.82,-30.65 333.17,-28.39 323.67,-23.7 322.82,-30.65"/>
</a>
</g>
</g>
<!-- Node3 -->
<g id="Node000003" class="node">
<title>Node3</title>
<g id="a_Node000003"><a xlink:href="../../d4/d49/a01643.html#ab4ad30c59b65ddea75dcd99a5c31411b" target="_top" xlink:title="Aborts ongoing SPI transfer in IT mode.">
<polygon fill="white" stroke="#666666" points="102.25,-76 0,-76 0,-47 102.25,-47 102.25,-76"/>
<text xml:space="preserve" text-anchor="start" x="8" y="-63.45" font-family="Arial" font-size="9.00">Lib::HAL::SPI::Master</text>
<text xml:space="preserve" text-anchor="middle" x="51.12" y="-52.95" font-family="Arial" font-size="9.00">::Port&lt; IT &gt;::abort</text>
</a>
</g>
</g>
<!-- Node2&#45;&gt;Node3 -->
<g id="edge2_Node000002_Node000003" class="edge">
<title>Node2&#45;&gt;Node3</title>
<g id="a_edge2_Node000002_Node000003"><a xlink:title=" ">
<path fill="none" stroke="#63b8ff" d="M149.02,-61.5C133.45,-61.5 117.19,-61.5 102.54,-61.5"/>
<polygon fill="#63b8ff" stroke="#63b8ff" points="148.69,-65 158.69,-61.5 148.69,-58 148.69,-65"/>
</a>
</g>
</g>
</g>
</svg>
