<?xml version="1.0" encoding="UTF-8" standalone="no"?>
<!DOCTYPE svg PUBLIC "-//W3C//DTD SVG 1.1//EN"
 "http://www.w3.org/Graphics/SVG/1.1/DTD/svg11.dtd">
<!-- Generated by graphviz version 13.1.0 (20250701.0955)
 -->
<!-- Title: Lib::HAL::SPI::Master::TransperentBase::init Pages: 1 -->
<svg width="254pt" height="84pt"
 viewBox="0.00 0.00 254.00 84.00" xmlns="http://www.w3.org/2000/svg" xmlns:xlink="http://www.w3.org/1999/xlink">
<g id="graph0" class="graph" transform="scale(1 1) rotate(0) translate(4 80)">
<title>Lib::HAL::SPI::Master::TransperentBase::init</title>
<!-- Node1 -->
<g id="Node000001" class="node">
<title>Node1</title>
<g id="a_Node000001"><a xlink:title="Initializes SPI port and prepares for communication.">
<polygon fill="#999999" stroke="#666666" points="245.75,-52 138.25,-52 138.25,-23 245.75,-23 245.75,-52"/>
<text xml:space="preserve" text-anchor="start" x="146.25" y="-39.45" font-family="Arial" font-size="9.00">Lib::HAL::SPI::Master</text>
<text xml:space="preserve" text-anchor="middle" x="192" y="-28.95" font-family="Arial" font-size="9.00">::TransperentBase::init</text>
</a>
</g>
</g>
<!-- Node2 -->
<g id="Node000002" class="node">
<title>Node2</title>
<g id="a_Node000002"><a xlink:href="../../db/dca/a01639.html#aae4a8236b4365214f346849c0088c176" target="_top" xlink:title="Initializes SPI port.">
<polygon fill="white" stroke="#666666" points="102.25,-76 0,-76 0,-47 102.25,-47 102.25,-76"/>
<text xml:space="preserve" text-anchor="start" x="8" y="-63.45" font-family="Arial" font-size="9.00">Lib::HAL::SPI::Master</text>
<text xml:space="preserve" text-anchor="middle" x="51.12" y="-52.95" font-family="Arial" font-size="9.00">::Port&lt; DMA &gt;::init</text>
</a>
</g>
</g>
<!-- Node1&#45;&gt;Node2 -->
<g id="edge1_Node000001_Node000002" class="edge">
<title>Node1&#45;&gt;Node2</title>
<g id="a_edge1_Node000001_Node000002"><a xlink:title=" ">
<path fill="none" stroke="#63b8ff" d="M127.03,-48.56C118.83,-49.97 110.53,-51.41 102.59,-52.78"/>
<polygon fill="#63b8ff" stroke="#63b8ff" points="127.35,-52.05 136.61,-46.9 126.16,-45.15 127.35,-52.05"/>
</a>
</g>
</g>
<!-- Node3 -->
<g id="Node000003" class="node">
<title>Node3</title>
<g id="a_Node000003"><a xlink:href="../../d4/d49/a01643.html#a2b1828ebbfa4afb3d14088bb1bb4e39d" target="_top" xlink:title="Initializes SPI port in IT mode.">
<polygon fill="white" stroke="#666666" points="102.25,-29 0,-29 0,0 102.25,0 102.25,-29"/>
<text xml:space="preserve" text-anchor="start" x="8" y="-16.45" font-family="Arial" font-size="9.00">Lib::HAL::SPI::Master</text>
<text xml:space="preserve" text-anchor="middle" x="51.12" y="-5.95" font-family="Arial" font-size="9.00">::Port&lt; IT &gt;::init</text>
</a>
</g>
</g>
<!-- Node1&#45;&gt;Node3 -->
<g id="edge2_Node000001_Node000003" class="edge">
<title>Node1&#45;&gt;Node3</title>
<g id="a_edge2_Node000001_Node000003"><a xlink:title=" ">
<path fill="none" stroke="#63b8ff" d="M126.75,-26.86C118.64,-25.52 110.44,-24.16 102.59,-22.86"/>
<polygon fill="#63b8ff" stroke="#63b8ff" points="126.17,-30.31 136.61,-28.49 127.31,-23.4 126.17,-30.31"/>
</a>
</g>
</g>
</g>
</svg>
