<?xml version="1.0" encoding="UTF-8" standalone="no"?>
<!DOCTYPE svg PUBLIC "-//W3C//DTD SVG 1.1//EN"
 "http://www.w3.org/Graphics/SVG/1.1/DTD/svg11.dtd">
<!-- Generated by graphviz version 13.1.0 (20250701.0955)
 -->
<!-- Title: Lib::HAL::SPI::Master::TransperentBase::waitForRxCompleted Pages: 1 -->
<svg width="485pt" height="154pt"
 viewBox="0.00 0.00 485.00 154.00" xmlns="http://www.w3.org/2000/svg" xmlns:xlink="http://www.w3.org/1999/xlink">
<g id="graph0" class="graph" transform="scale(1 1) rotate(0) translate(4 150)">
<title>Lib::HAL::SPI::Master::TransperentBase::waitForRxCompleted</title>
<!-- Node1 -->
<g id="Node000001" class="node">
<title>Node1</title>
<g id="a_Node000001"><a xlink:title="Waits for receive completion event with timeout.">
<polygon fill="#999999" stroke="#666666" points="477,-81.25 340.25,-81.25 340.25,-41.75 477,-41.75 477,-81.25"/>
<text xml:space="preserve" text-anchor="start" x="348.25" y="-68.7" font-family="Arial" font-size="9.00">Lib::HAL::SPI::Master</text>
<text xml:space="preserve" text-anchor="start" x="348.25" y="-58.2" font-family="Arial" font-size="9.00">::TransperentBase::waitForRx</text>
<text xml:space="preserve" text-anchor="middle" x="408.62" y="-47.7" font-family="Arial" font-size="9.00">Completed</text>
</a>
</g>
</g>
<!-- Node2 -->
<g id="Node000002" class="node">
<title>Node2</title>
<g id="a_Node000002"><a xlink:href="../../d0/da4/a01631.html#a1696bbb225f7c38d04ca670735900bcf" target="_top" xlink:title="Receives data via SPI into destination buffer with timeout and waits for completion.">
<polygon fill="white" stroke="#666666" points="285.88,-123 160.38,-123 160.38,-94 285.88,-94 285.88,-123"/>
<text xml:space="preserve" text-anchor="start" x="168.38" y="-110.45" font-family="Arial" font-size="9.00">Lib::HAL::SPI::Master</text>
<text xml:space="preserve" text-anchor="middle" x="223.12" y="-99.95" font-family="Arial" font-size="9.00">::TransperentBase::receive</text>
</a>
</g>
</g>
<!-- Node1&#45;&gt;Node2 -->
<g id="edge1_Node000001_Node000002" class="edge">
<title>Node1&#45;&gt;Node2</title>
<g id="a_edge1_Node000001_Node000002"><a xlink:title=" ">
<path fill="none" stroke="#63b8ff" d="M328.67,-81.72C313.21,-85.68 297.25,-89.77 282.6,-93.52"/>
<polygon fill="#63b8ff" stroke="#63b8ff" points="329.53,-85.11 338.35,-79.24 327.8,-78.33 329.53,-85.11"/>
</a>
</g>
</g>
<!-- Node5 -->
<g id="Node000005" class="node">
<title>Node5</title>
<g id="a_Node000005"><a xlink:href="../../db/dca/a01639.html#a699c4446d92eb412286b9580e5dcb29c" target="_top" xlink:title="Waits for SPI receive completion.">
<polygon fill="white" stroke="#666666" points="304.25,-76 142,-76 142,-47 304.25,-47 304.25,-76"/>
<text xml:space="preserve" text-anchor="start" x="150" y="-63.45" font-family="Arial" font-size="9.00">Lib::HAL::SPI::Master</text>
<text xml:space="preserve" text-anchor="middle" x="223.12" y="-52.95" font-family="Arial" font-size="9.00">::Port&lt; DMA &gt;::waitForRxCompleted</text>
</a>
</g>
</g>
<!-- Node1&#45;&gt;Node5 -->
<g id="edge4_Node000001_Node000005" class="edge">
<title>Node1&#45;&gt;Node5</title>
<g id="a_edge4_Node000001_Node000005"><a xlink:title=" ">
<path fill="none" stroke="#63b8ff" d="M328.42,-61.5C320.56,-61.5 312.57,-61.5 304.69,-61.5"/>
<polygon fill="#63b8ff" stroke="#63b8ff" points="328.3,-65 338.3,-61.5 328.3,-58 328.3,-65"/>
</a>
</g>
</g>
<!-- Node6 -->
<g id="Node000006" class="node">
<title>Node6</title>
<g id="a_Node000006"><a xlink:href="../../d4/d49/a01643.html#af4e8279c53f4472925e8ea1a6842656b" target="_top" xlink:title="Waits for RX completion in IT mode.">
<polygon fill="white" stroke="#666666" points="298.25,-29 148,-29 148,0 298.25,0 298.25,-29"/>
<text xml:space="preserve" text-anchor="start" x="156" y="-16.45" font-family="Arial" font-size="9.00">Lib::HAL::SPI::Master</text>
<text xml:space="preserve" text-anchor="middle" x="223.12" y="-5.95" font-family="Arial" font-size="9.00">::Port&lt; IT &gt;::waitForRxCompleted</text>
</a>
</g>
</g>
<!-- Node1&#45;&gt;Node6 -->
<g id="edge5_Node000001_Node000006" class="edge">
<title>Node1&#45;&gt;Node6</title>
<g id="a_edge5_Node000001_Node000006"><a xlink:title=" ">
<path fill="none" stroke="#63b8ff" d="M328.67,-41.28C313.21,-37.32 297.25,-33.23 282.6,-29.48"/>
<polygon fill="#63b8ff" stroke="#63b8ff" points="327.8,-44.67 338.35,-43.76 329.53,-37.89 327.8,-44.67"/>
</a>
</g>
</g>
<!-- Node3 -->
<g id="Node000003" class="node">
<title>Node3</title>
<g id="a_Node000003"><a xlink:href="../../db/dca/a01639.html#ade6b3eef69b43a8930d485e8b92b8457" target="_top" xlink:title="Receives data via SPI using DMA.">
<polygon fill="white" stroke="#666666" points="106,-146 0,-146 0,-117 106,-117 106,-146"/>
<text xml:space="preserve" text-anchor="start" x="8" y="-133.45" font-family="Arial" font-size="9.00">Lib::HAL::SPI::Master</text>
<text xml:space="preserve" text-anchor="middle" x="53" y="-122.95" font-family="Arial" font-size="9.00">::Port&lt; DMA &gt;::receive</text>
</a>
</g>
</g>
<!-- Node2&#45;&gt;Node3 -->
<g id="edge2_Node000002_Node000003" class="edge">
<title>Node2&#45;&gt;Node3</title>
<g id="a_edge2_Node000002_Node000003"><a xlink:title=" ">
<path fill="none" stroke="#63b8ff" d="M148.72,-118.54C134.5,-120.49 119.87,-122.49 106.49,-124.32"/>
<polygon fill="#63b8ff" stroke="#63b8ff" points="149.07,-122.03 158.5,-117.2 148.12,-115.09 149.07,-122.03"/>
</a>
</g>
</g>
<!-- Node4 -->
<g id="Node000004" class="node">
<title>Node4</title>
<g id="a_Node000004"><a xlink:href="../../d4/d49/a01643.html#a482852a985889326f353dd23d17391c9" target="_top" xlink:title="Receives data via SPI in IT mode.">
<polygon fill="white" stroke="#666666" points="104.12,-99 1.88,-99 1.88,-70 104.12,-70 104.12,-99"/>
<text xml:space="preserve" text-anchor="start" x="9.88" y="-86.45" font-family="Arial" font-size="9.00">Lib::HAL::SPI::Master</text>
<text xml:space="preserve" text-anchor="middle" x="53" y="-75.95" font-family="Arial" font-size="9.00">::Port&lt; IT &gt;::receive</text>
</a>
</g>
</g>
<!-- Node2&#45;&gt;Node4 -->
<g id="edge3_Node000002_Node000004" class="edge">
<title>Node2&#45;&gt;Node4</title>
<g id="a_edge3_Node000002_Node000004"><a xlink:title=" ">
<path fill="none" stroke="#63b8ff" d="M148.73,-98.02C133.84,-95.9 118.5,-93.71 104.61,-91.72"/>
<polygon fill="#63b8ff" stroke="#63b8ff" points="148.11,-101.47 158.5,-99.42 149.1,-94.54 148.11,-101.47"/>
</a>
</g>
</g>
</g>
</svg>
