<?xml version="1.0" encoding="UTF-8" standalone="no"?>
<!DOCTYPE svg PUBLIC "-//W3C//DTD SVG 1.1//EN"
 "http://www.w3.org/Graphics/SVG/1.1/DTD/svg11.dtd">
<!-- Generated by graphviz version 13.1.0 (20250701.0955)
 -->
<!-- Title: Lib::Helper::DelayBase Pages: 1 -->
<svg width="298pt" height="328pt"
 viewBox="0.00 0.00 298.00 328.00" xmlns="http://www.w3.org/2000/svg" xmlns:xlink="http://www.w3.org/1999/xlink">
<g id="graph0" class="graph" transform="scale(1 1) rotate(0) translate(4 324)">
<title>Lib::Helper::DelayBase</title>
<!-- Node1 -->
<g id="Node000001" class="node">
<title>Node1</title>
<g id="a_Node000001"><a xlink:title="Base class for DWT&#45;based time delays.">
<polygon fill="#999999" stroke="none" points="204.38,-320 88.12,-320 88.12,-128 204.38,-128 204.38,-320"/>
<text xml:space="preserve" text-anchor="start" x="95.62" y="-306.5" font-family="Helvetica,sans-Serif" font-size="10.00">Lib::Helper::DelayBase</text>
<text xml:space="preserve" text-anchor="start" x="144.75" y="-290.5" font-family="Helvetica,sans-Serif" font-size="10.00"> </text>
<text xml:space="preserve" text-anchor="start" x="92.12" y="-274.5" font-family="Helvetica,sans-Serif" font-size="10.00">+</text>
<text xml:space="preserve" text-anchor="start" x="102.12" y="-274.5" font-family="Helvetica,sans-Serif" font-size="10.00">DelayBase()</text>
<text xml:space="preserve" text-anchor="start" x="92.12" y="-258.5" font-family="Helvetica,sans-Serif" font-size="10.00">+</text>
<text xml:space="preserve" text-anchor="start" x="102.12" y="-258.5" font-family="Helvetica,sans-Serif" font-size="10.00">DelayBase(uint32_t</text>
<text xml:space="preserve" text-anchor="start" x="102.12" y="-246.5" font-family="Helvetica,sans-Serif" font-size="10.00"> value)</text>
<text xml:space="preserve" text-anchor="start" x="92.12" y="-230.5" font-family="Helvetica,sans-Serif" font-size="10.00">+</text>
<text xml:space="preserve" text-anchor="start" x="102.12" y="-230.5" font-family="Helvetica,sans-Serif" font-size="10.00">virtual ~DelayBase</text>
<text xml:space="preserve" text-anchor="start" x="102.12" y="-218.5" font-family="Helvetica,sans-Serif" font-size="10.00">()=default</text>
<text xml:space="preserve" text-anchor="start" x="92.12" y="-202.5" font-family="Helvetica,sans-Serif" font-size="10.00">+</text>
<text xml:space="preserve" text-anchor="start" x="102.12" y="-202.5" font-family="Helvetica,sans-Serif" font-size="10.00">virtual uint32_t get</text>
<text xml:space="preserve" text-anchor="start" x="102.12" y="-190.5" font-family="Helvetica,sans-Serif" font-size="10.00">() const =0</text>
<text xml:space="preserve" text-anchor="start" x="92.12" y="-174.5" font-family="Helvetica,sans-Serif" font-size="10.00">+</text>
<text xml:space="preserve" text-anchor="start" x="102.12" y="-174.5" font-family="Helvetica,sans-Serif" font-size="10.00">virtual operator volatile</text>
<text xml:space="preserve" text-anchor="start" x="102.12" y="-162.5" font-family="Helvetica,sans-Serif" font-size="10.00"> uint32_t() const</text>
<text xml:space="preserve" text-anchor="start" x="92.12" y="-146.5" font-family="Helvetica,sans-Serif" font-size="10.00">+</text>
<text xml:space="preserve" text-anchor="start" x="102.12" y="-146.5" font-family="Helvetica,sans-Serif" font-size="10.00">virtual void delay</text>
<text xml:space="preserve" text-anchor="start" x="102.12" y="-134.5" font-family="Helvetica,sans-Serif" font-size="10.00">(uint32_t value) const</text>
<polygon fill="#666666" stroke="#666666" points="88.12,-302 88.12,-302 204.38,-302 204.38,-302 88.12,-302"/>
<polygon fill="#666666" stroke="#666666" points="88.12,-286 88.12,-286 204.38,-286 204.38,-286 88.12,-286"/>
<polygon fill="none" stroke="#666666" points="88.12,-128 88.12,-320 204.38,-320 204.38,-128 88.12,-128"/>
</a>
</g>
</g>
<!-- Node2 -->
<g id="Node000002" class="node">
<title>Node2</title>
<g id="a_Node000002"><a xlink:href="../../de/d14/a01640.html" target="_top" xlink:title="Microsecond delay class.">
<polygon fill="white" stroke="none" points="138.5,-92 0,-92 0,0 138.5,0 138.5,-92"/>
<text xml:space="preserve" text-anchor="start" x="4" y="-78.5" font-family="Helvetica,sans-Serif" font-size="10.00">Lib::Helper::Delay</text>
<text xml:space="preserve" text-anchor="start" x="4" y="-66.5" font-family="Helvetica,sans-Serif" font-size="10.00">&lt; DelayType::MICRO_SEC &gt;</text>
<text xml:space="preserve" text-anchor="start" x="67.75" y="-50.5" font-family="Helvetica,sans-Serif" font-size="10.00"> </text>
<text xml:space="preserve" text-anchor="start" x="11.06" y="-34.5" font-family="Helvetica,sans-Serif" font-size="10.00">+</text>
<text xml:space="preserve" text-anchor="start" x="28.12" y="-34.5" font-family="Helvetica,sans-Serif" font-size="10.00">Delay(uint32_t value)</text>
<text xml:space="preserve" text-anchor="start" x="11.06" y="-18.5" font-family="Helvetica,sans-Serif" font-size="10.00">+</text>
<text xml:space="preserve" text-anchor="start" x="28.12" y="-18.5" font-family="Helvetica,sans-Serif" font-size="10.00">uint32_t get() const</text>
<text xml:space="preserve" text-anchor="start" x="28.12" y="-6.5" font-family="Helvetica,sans-Serif" font-size="10.00"> override</text>
<polygon fill="#666666" stroke="#666666" points="0,-62 0,-62 138.5,-62 138.5,-62 0,-62"/>
<polygon fill="#666666" stroke="#666666" points="0,-46 0,-46 138.5,-46 138.5,-46 0,-46"/>
<polygon fill="none" stroke="#666666" points="0,0 0,-92 138.5,-92 138.5,0 0,0"/>
</a>
</g>
</g>
<!-- Node1&#45;&gt;Node2 -->
<g id="edge1_Node000001_Node000002" class="edge">
<title>Node1&#45;&gt;Node2</title>
<g id="a_edge1_Node000001_Node000002"><a xlink:title=" ">
<path fill="none" stroke="#63b8ff" d="M100.19,-117.72C96.22,-108.66 92.37,-99.84 88.8,-91.69"/>
<polygon fill="none" stroke="#63b8ff" points="96.89,-118.9 104.1,-126.66 103.3,-116.09 96.89,-118.9"/>
</a>
</g>
</g>
<!-- Node3 -->
<g id="Node000003" class="node">
<title>Node3</title>
<g id="a_Node000003"><a xlink:href="../../d3/d3e/a01644.html" target="_top" xlink:title="Nanosecond delay class.">
<polygon fill="white" stroke="none" points="290.25,-92 156.25,-92 156.25,0 290.25,0 290.25,-92"/>
<text xml:space="preserve" text-anchor="start" x="160.25" y="-78.5" font-family="Helvetica,sans-Serif" font-size="10.00">Lib::Helper::Delay</text>
<text xml:space="preserve" text-anchor="start" x="160.25" y="-66.5" font-family="Helvetica,sans-Serif" font-size="10.00">&lt; DelayType::NANO_SEC &gt;</text>
<text xml:space="preserve" text-anchor="start" x="221.75" y="-50.5" font-family="Helvetica,sans-Serif" font-size="10.00"> </text>
<text xml:space="preserve" text-anchor="start" x="166.19" y="-34.5" font-family="Helvetica,sans-Serif" font-size="10.00">+</text>
<text xml:space="preserve" text-anchor="start" x="182.12" y="-34.5" font-family="Helvetica,sans-Serif" font-size="10.00">Delay(uint32_t value)</text>
<text xml:space="preserve" text-anchor="start" x="166.19" y="-18.5" font-family="Helvetica,sans-Serif" font-size="10.00">+</text>
<text xml:space="preserve" text-anchor="start" x="182.12" y="-18.5" font-family="Helvetica,sans-Serif" font-size="10.00">uint32_t get() const</text>
<text xml:space="preserve" text-anchor="start" x="182.12" y="-6.5" font-family="Helvetica,sans-Serif" font-size="10.00"> override</text>
<polygon fill="#666666" stroke="#666666" points="156.25,-62 156.25,-62 290.25,-62 290.25,-62 156.25,-62"/>
<polygon fill="#666666" stroke="#666666" points="156.25,-46 156.25,-46 290.25,-46 290.25,-46 156.25,-46"/>
<polygon fill="none" stroke="#666666" points="156.25,0 156.25,-92 290.25,-92 290.25,0 156.25,0"/>
</a>
</g>
</g>
<!-- Node1&#45;&gt;Node3 -->
<g id="edge2_Node000001_Node000003" class="edge">
<title>Node1&#45;&gt;Node3</title>
<g id="a_edge2_Node000001_Node000003"><a xlink:title=" ">
<path fill="none" stroke="#63b8ff" d="M192.31,-117.72C196.28,-108.66 200.13,-99.84 203.7,-91.69"/>
<polygon fill="none" stroke="#63b8ff" points="189.2,-116.09 188.4,-126.66 195.61,-118.9 189.2,-116.09"/>
</a>
</g>
</g>
</g>
</svg>
