<?xml version="1.0" encoding="UTF-8" standalone="no"?>
<!DOCTYPE svg PUBLIC "-//W3C//DTD SVG 1.1//EN"
 "http://www.w3.org/Graphics/SVG/1.1/DTD/svg11.dtd">
<!-- Generated by graphviz version 10.0.1 (20240210.2158)
 -->
<!-- Title: Lib::Xbee::API::ClientBase::start Pages: 1 -->
<svg width="474pt" height="90pt"
 viewBox="0.00 0.00 473.75 90.00" xmlns="http://www.w3.org/2000/svg" xmlns:xlink="http://www.w3.org/1999/xlink">
<g id="graph0" class="graph" transform="scale(1 1) rotate(0) translate(4 86)">
<title>Lib::Xbee::API::ClientBase::start</title>
<!-- Node1 -->
<g id="Node000001" class="node">
<title>Node1</title>
<g id="a_Node000001"><a xlink:title="Starts the client application.">
<polygon fill="#999999" stroke="#666666" points="130.75,-60 0,-60 0,-28 130.75,-28 130.75,-60"/>
<text text-anchor="start" x="8" y="-46.5" font-family="Helvetica,sans-Serif" font-size="10.00">Lib::Xbee::API::ClientBase</text>
<text text-anchor="middle" x="65.38" y="-34.5" font-family="Helvetica,sans-Serif" font-size="10.00">::start</text>
</a>
</g>
</g>
<!-- Node2 -->
<g id="Node000002" class="node">
<title>Node2</title>
<g id="a_Node000002"><a xlink:href="../../d7/d40/a00236.html#a0c77e32ecb01d92fc88bdb5a5f15147c" target="_top" xlink:title="Pauses the service.">
<polygon fill="white" stroke="#666666" points="465.75,-82 334.25,-82 334.25,-50 465.75,-50 465.75,-82"/>
<text text-anchor="start" x="342.25" y="-68.5" font-family="Helvetica,sans-Serif" font-size="10.00">Lib::Xbee::API::Application</text>
<text text-anchor="middle" x="400" y="-56.5" font-family="Helvetica,sans-Serif" font-size="10.00">Base::pause</text>
</a>
</g>
</g>
<!-- Node1&#45;&gt;Node2 -->
<g id="edge1_Node000001_Node000002" class="edge">
<title>Node1&#45;&gt;Node2</title>
<g id="a_edge1_Node000001_Node000002"><a xlink:title=" ">
<path fill="none" stroke="#63b8ff" d="M130.9,-48.27C185.72,-51.89 264.51,-57.1 322.49,-60.94"/>
<polygon fill="#63b8ff" stroke="#63b8ff" points="322.08,-64.42 332.29,-61.59 322.54,-57.44 322.08,-64.42"/>
</a>
</g>
</g>
<!-- Node3 -->
<g id="Node000003" class="node">
<title>Node3</title>
<g id="a_Node000003"><a xlink:href="../../d7/d40/a00236.html#aabfd62df021bf6c4eb4f43540cf8e5a1" target="_top" xlink:title="Initializes the application.">
<polygon fill="white" stroke="#666666" points="298.25,-38 166.75,-38 166.75,-6 298.25,-6 298.25,-38"/>
<text text-anchor="start" x="174.75" y="-24.5" font-family="Helvetica,sans-Serif" font-size="10.00">Lib::Xbee::API::Application</text>
<text text-anchor="middle" x="232.5" y="-12.5" font-family="Helvetica,sans-Serif" font-size="10.00">Base::start</text>
</a>
</g>
</g>
<!-- Node1&#45;&gt;Node3 -->
<g id="edge2_Node000001_Node000003" class="edge">
<title>Node1&#45;&gt;Node3</title>
<g id="a_edge2_Node000001_Node000003"><a xlink:title=" ">
<path fill="none" stroke="#63b8ff" d="M131.16,-35.37C139.02,-34.32 147.11,-33.24 155.12,-32.18"/>
<polygon fill="#63b8ff" stroke="#63b8ff" points="155.41,-35.67 164.86,-30.88 154.48,-28.73 155.41,-35.67"/>
</a>
</g>
</g>
<!-- Node3&#45;&gt;Node2 -->
<g id="edge4_Node000003_Node000002" class="edge">
<title>Node3&#45;&gt;Node2</title>
<g id="a_edge4_Node000003_Node000002"><a xlink:title=" ">
<path fill="none" stroke="#63b8ff" d="M295.13,-38.38C305.18,-41.06 315.68,-43.85 325.98,-46.59"/>
<polygon fill="#63b8ff" stroke="#63b8ff" points="325.02,-49.95 335.58,-49.14 326.82,-43.19 325.02,-49.95"/>
</a>
</g>
</g>
<!-- Node4 -->
<g id="Node000004" class="node">
<title>Node4</title>
<g id="a_Node000004"><a xlink:href="../../d4/d8f/a00324.html#a4c0ebe89ba647909aaa2d5f217d0dc56" target="_top" xlink:title="Gets the singleton instance of the Manager class.">
<polygon fill="white" stroke="#666666" points="457.88,-32 342.12,-32 342.12,0 457.88,0 457.88,-32"/>
<text text-anchor="start" x="350.12" y="-18.5" font-family="Helvetica,sans-Serif" font-size="10.00">Lib::Xbee::API::Service</text>
<text text-anchor="middle" x="400" y="-6.5" font-family="Helvetica,sans-Serif" font-size="10.00">::Manager::getInstance</text>
</a>
</g>
</g>
<!-- Node3&#45;&gt;Node4 -->
<g id="edge3_Node000003_Node000004" class="edge">
<title>Node3&#45;&gt;Node4</title>
<g id="a_edge3_Node000003_Node000004"><a xlink:title=" ">
<path fill="none" stroke="#63b8ff" d="M298.43,-19.65C308.94,-19.26 319.85,-18.87 330.44,-18.49"/>
<polygon fill="#63b8ff" stroke="#63b8ff" points="330.4,-21.99 340.26,-18.13 330.14,-14.99 330.4,-21.99"/>
</a>
</g>
</g>
</g>
</svg>
