<?xml version="1.0" encoding="UTF-8" standalone="no"?>
<!DOCTYPE svg PUBLIC "-//W3C//DTD SVG 1.1//EN"
 "http://www.w3.org/Graphics/SVG/1.1/DTD/svg11.dtd">
<!-- Generated by graphviz version 12.2.1 (20241206.2353)
 -->
<!-- Title: EditDateBase.hpp Pages: 1 -->
<svg width="408pt" height="208pt"
 viewBox="0.00 0.00 407.62 208.00" xmlns="http://www.w3.org/2000/svg" xmlns:xlink="http://www.w3.org/1999/xlink">
<g id="graph0" class="graph" transform="scale(1 1) rotate(0) translate(4 204)">
<title>EditDateBase.hpp</title>
<!-- Node1 -->
<g id="Node000001" class="node">
<title>Node1</title>
<g id="a_Node000001"><a xlink:title="Declaration of the EditDateBase class for handling date editing in the UI.">
<polygon fill="#999999" stroke="#666666" points="327.38,-200 231.88,-200 231.88,-180 327.38,-180 327.38,-200"/>
<text text-anchor="middle" x="279.62" y="-186.5" font-family="Arial" font-size="10.00">EditDateBase.hpp</text>
</a>
</g>
</g>
<!-- Node2 -->
<g id="Node000002" class="node">
<title>Node2</title>
<g id="a_Node000002"><a xlink:href="../../d7/d3f/a00173.html" target="_top" xlink:title="This file contains the declaration of the EditValueBase class, which serves as a base class for editi...">
<polygon fill="white" stroke="#666666" points="199,-144 80.25,-144 80.25,-112 199,-112 199,-144"/>
<text text-anchor="start" x="88.25" y="-130.5" font-family="Arial" font-size="10.00">Project/UI/Components</text>
<text text-anchor="middle" x="139.62" y="-118.5" font-family="Arial" font-size="10.00">/EditValueBase.hpp</text>
</a>
</g>
</g>
<!-- Node1&#45;&gt;Node2 -->
<g id="edge1_Node000001_Node000002" class="edge">
<title>Node1&#45;&gt;Node2</title>
<g id="a_edge1_Node000001_Node000002"><a xlink:title=" ">
<path fill="none" stroke="#63b8ff" d="M257.75,-179.62C238.66,-171.44 210.31,-159.29 186.17,-148.95"/>
<polygon fill="#63b8ff" stroke="#63b8ff" points="187.73,-145.81 177.16,-145.09 184.97,-152.24 187.73,-145.81"/>
</a>
</g>
</g>
<!-- Node7 -->
<g id="Node000007" class="node">
<title>Node7</title>
<g id="a_Node000007"><a xlink:title=" ">
<polygon fill="#e0e0e0" stroke="#999999" points="342,-138 217.25,-138 217.25,-118 342,-118 342,-138"/>
<text text-anchor="middle" x="279.62" y="-124.5" font-family="Arial" font-size="10.00">Lib/Helper/DateTime.hpp</text>
</a>
</g>
</g>
<!-- Node1&#45;&gt;Node7 -->
<g id="edge6_Node000001_Node000007" class="edge">
<title>Node1&#45;&gt;Node7</title>
<g id="a_edge6_Node000001_Node000007"><a xlink:title=" ">
<path fill="none" stroke="#63b8ff" d="M279.62,-179.62C279.62,-171.56 279.62,-159.65 279.62,-149.41"/>
<polygon fill="#63b8ff" stroke="#63b8ff" points="283.13,-149.63 279.63,-139.63 276.13,-149.63 283.13,-149.63"/>
</a>
</g>
</g>
<!-- Node8 -->
<g id="Node000008" class="node">
<title>Node8</title>
<g id="a_Node000008"><a xlink:title=" ">
<polygon fill="#e0e0e0" stroke="#999999" points="399.62,-138 359.62,-138 359.62,-118 399.62,-118 399.62,-138"/>
<text text-anchor="middle" x="379.62" y="-124.5" font-family="Arial" font-size="10.00">string</text>
</a>
</g>
</g>
<!-- Node1&#45;&gt;Node8 -->
<g id="edge7_Node000001_Node000008" class="edge">
<title>Node1&#45;&gt;Node8</title>
<g id="a_edge7_Node000001_Node000008"><a xlink:title=" ">
<path fill="none" stroke="#63b8ff" d="M295.25,-179.62C311.03,-170.16 335.66,-155.38 354.24,-144.23"/>
<polygon fill="#63b8ff" stroke="#63b8ff" points="356.04,-147.23 362.81,-139.09 352.44,-141.23 356.04,-147.23"/>
</a>
</g>
</g>
<!-- Node3 -->
<g id="Node000003" class="node">
<title>Node3</title>
<g id="a_Node000003"><a xlink:href="../../d1/d88/a00128.html" target="_top" xlink:title="This file contains the declaration of the Keyboard class for handling keyboard input and button event...">
<polygon fill="white" stroke="#666666" points="149.12,-76 16.12,-76 16.12,-56 149.12,-56 149.12,-76"/>
<text text-anchor="middle" x="82.62" y="-62.5" font-family="Arial" font-size="10.00">Project/BSP/Keyboard.hpp</text>
</a>
</g>
</g>
<!-- Node2&#45;&gt;Node3 -->
<g id="edge2_Node000002_Node000003" class="edge">
<title>Node2&#45;&gt;Node3</title>
<g id="a_edge2_Node000002_Node000003"><a xlink:title=" ">
<path fill="none" stroke="#63b8ff" d="M124.95,-111.55C117.11,-103.3 107.44,-93.12 99.32,-84.57"/>
<polygon fill="#63b8ff" stroke="#63b8ff" points="102.03,-82.34 92.61,-77.51 96.96,-87.17 102.03,-82.34"/>
</a>
</g>
</g>
<!-- Node6 -->
<g id="Node000006" class="node">
<title>Node6</title>
<g id="a_Node000006"><a xlink:title=" ">
<polygon fill="#e0e0e0" stroke="#999999" points="225.62,-76 167.62,-76 167.62,-56 225.62,-56 225.62,-76"/>
<text text-anchor="middle" x="196.62" y="-62.5" font-family="Arial" font-size="10.00">functional</text>
</a>
</g>
</g>
<!-- Node2&#45;&gt;Node6 -->
<g id="edge5_Node000002_Node000006" class="edge">
<title>Node2&#45;&gt;Node6</title>
<g id="a_edge5_Node000002_Node000006"><a xlink:title=" ">
<path fill="none" stroke="#63b8ff" d="M154.3,-111.55C162.14,-103.3 171.81,-93.12 179.93,-84.57"/>
<polygon fill="#63b8ff" stroke="#63b8ff" points="182.29,-87.17 186.64,-77.51 177.22,-82.34 182.29,-87.17"/>
</a>
</g>
</g>
<!-- Node4 -->
<g id="Node000004" class="node">
<title>Node4</title>
<g id="a_Node000004"><a xlink:title=" ">
<polygon fill="#e0e0e0" stroke="#999999" points="81.25,-20 0,-20 0,0 81.25,0 81.25,-20"/>
<text text-anchor="middle" x="40.62" y="-6.5" font-family="Arial" font-size="10.00">FreeRTOS.hpp</text>
</a>
</g>
</g>
<!-- Node3&#45;&gt;Node4 -->
<g id="edge3_Node000003_Node000004" class="edge">
<title>Node3&#45;&gt;Node4</title>
<g id="a_edge3_Node000003_Node000004"><a xlink:title=" ">
<path fill="none" stroke="#63b8ff" d="M75.31,-55.59C69.65,-48.32 61.64,-38.02 54.74,-29.15"/>
<polygon fill="#63b8ff" stroke="#63b8ff" points="57.69,-27.24 48.79,-21.49 52.16,-31.54 57.69,-27.24"/>
</a>
</g>
</g>
<!-- Node5 -->
<g id="Node000005" class="node">
<title>Node5</title>
<g id="a_Node000005"><a xlink:title=" ">
<polygon fill="#e0e0e0" stroke="#999999" points="150.25,-20 99,-20 99,0 150.25,0 150.25,-20"/>
<text text-anchor="middle" x="124.62" y="-6.5" font-family="Arial" font-size="10.00">memory</text>
</a>
</g>
</g>
<!-- Node3&#45;&gt;Node5 -->
<g id="edge4_Node000003_Node000005" class="edge">
<title>Node3&#45;&gt;Node5</title>
<g id="a_edge4_Node000003_Node000005"><a xlink:title=" ">
<path fill="none" stroke="#63b8ff" d="M89.94,-55.59C95.6,-48.32 103.61,-38.02 110.51,-29.15"/>
<polygon fill="#63b8ff" stroke="#63b8ff" points="113.09,-31.54 116.46,-21.49 107.56,-27.24 113.09,-31.54"/>
</a>
</g>
</g>
</g>
</svg>
