<?xml version="1.0" encoding="UTF-8" standalone="no"?>
<!DOCTYPE svg PUBLIC "-//W3C//DTD SVG 1.1//EN"
 "http://www.w3.org/Graphics/SVG/1.1/DTD/svg11.dtd">
<!-- Generated by graphviz version 12.2.1 (20241206.2353)
 -->
<!-- Title: ClassDiagram Pages: 1 -->
<svg width="799pt" height="133pt"
 viewBox="0.00 0.00 799.00 132.50" xmlns="http://www.w3.org/2000/svg" xmlns:xlink="http://www.w3.org/1999/xlink">
<g id="graph0" class="graph" transform="scale(1 1) rotate(0) translate(4 128.5)">
<title>ClassDiagram</title>
<polygon fill="none" stroke="none" points="-4,4 -4,-128.5 795,-128.5 795,4 -4,4"/>
<!-- ADC -->
<g id="node1" class="node">
<title>ADC</title>
<g id="a_node1"><a xlink:href="dd/ded/a00211.html" target="_top" xlink:title="ADC Convertor">
<polygon fill="#00007f" stroke="#ffffff" points="90,-124.5 36,-124.5 36,-88.5 90,-88.5 90,-124.5"/>
<text text-anchor="middle" x="63" y="-101.08" font-family="Arial" font-size="14.00" fill="white">ADC</text>
</a>
</g>
</g>
<!-- GPIO -->
<g id="node2" class="node">
<title>GPIO</title>
<g id="a_node2"><a xlink:href="d3/d1a/a00251.html" target="_top" xlink:title="GPIO">
<polygon fill="#007f7f" stroke="#ffffff" points="162,-124.5 108,-124.5 108,-88.5 162,-88.5 162,-124.5"/>
<text text-anchor="middle" x="135" y="-101.08" font-family="Arial" font-size="14.00" fill="white">GPIO</text>
</a>
</g>
</g>
<!-- INP -->
<g id="node3" class="node">
<title>INP</title>
<g id="a_node3"><a xlink:href="d1/dd4/a00267.html" target="_top" xlink:title="PIN Input">
<polygon fill="#007f7f" stroke="#ffffff" points="54,-36 0,-36 0,0 54,0 54,-36"/>
<text text-anchor="middle" x="27" y="-12.57" font-family="Arial" font-size="14.00" fill="white">INP</text>
</a>
</g>
</g>
<!-- GPIO&#45;&gt;INP -->
<g id="edge1" class="edge">
<title>GPIO&#45;&gt;INP</title>
<path fill="none" stroke="#808080" d="M113.4,-88.2C97.36,-75.36 75.27,-57.66 57.44,-43.38"/>
<polygon fill="#808080" stroke="#808080" points="59.73,-40.73 49.74,-37.21 55.36,-46.2 59.73,-40.73"/>
</g>
<!-- OUT -->
<g id="node4" class="node">
<title>OUT</title>
<g id="a_node4"><a xlink:href="dd/d86/a00271.html" target="_top" xlink:title="PIN Output">
<polygon fill="#007f7f" stroke="#ffffff" points="126,-36 72,-36 72,0 126,0 126,-36"/>
<text text-anchor="middle" x="99" y="-12.57" font-family="Arial" font-size="14.00" fill="white">OUT</text>
</a>
</g>
</g>
<!-- GPIO&#45;&gt;OUT -->
<g id="edge2" class="edge">
<title>GPIO&#45;&gt;OUT</title>
<path fill="none" stroke="#808080" d="M127.89,-88.41C122.94,-76.52 116.23,-60.41 110.53,-46.7"/>
<polygon fill="#808080" stroke="#808080" points="113.88,-45.64 106.8,-37.75 107.41,-48.32 113.88,-45.64"/>
</g>
<!-- EXTI -->
<g id="node5" class="node">
<title>EXTI</title>
<g id="a_node5"><a xlink:href="d3/d5e/a00275.html" target="_top" xlink:title="External Interrupt">
<polygon fill="#007f7f" stroke="#ffffff" points="198,-36 144,-36 144,0 198,0 198,-36"/>
<text text-anchor="middle" x="171" y="-12.57" font-family="Arial" font-size="14.00" fill="white">EXTI</text>
</a>
</g>
</g>
<!-- GPIO&#45;&gt;EXTI -->
<g id="edge3" class="edge">
<title>GPIO&#45;&gt;EXTI</title>
<path fill="none" stroke="#808080" d="M142.11,-88.41C147.06,-76.52 153.77,-60.41 159.47,-46.7"/>
<polygon fill="#808080" stroke="#808080" points="162.59,-48.32 163.2,-37.75 156.12,-45.64 162.59,-48.32"/>
</g>
<!-- PORT -->
<g id="node6" class="node">
<title>PORT</title>
<g id="a_node6"><a xlink:href="df/da9/a00263.html" target="_top" xlink:title="PIN Output">
<polygon fill="#007f7f" stroke="#ffffff" points="270.12,-36 215.88,-36 215.88,0 270.12,0 270.12,-36"/>
<text text-anchor="middle" x="243" y="-12.57" font-family="Arial" font-size="14.00" fill="white">PORT</text>
</a>
</g>
</g>
<!-- GPIO&#45;&gt;PORT -->
<g id="edge4" class="edge">
<title>GPIO&#45;&gt;PORT</title>
<path fill="none" stroke="#808080" d="M156.6,-88.2C172.64,-75.36 194.73,-57.66 212.56,-43.38"/>
<polygon fill="#808080" stroke="#808080" points="214.64,-46.2 220.26,-37.21 210.27,-40.73 214.64,-46.2"/>
</g>
<!-- SPI -->
<g id="node7" class="node">
<title>SPI</title>
<g id="a_node7"><a xlink:href="" target="_top" xlink:title="SPI Port">
<polygon fill="#7f007f" stroke="#ffffff" points="234,-124.5 180,-124.5 180,-88.5 234,-88.5 234,-124.5"/>
<text text-anchor="middle" x="207" y="-101.08" font-family="Arial" font-size="14.00" fill="white">SPI</text>
</a>
</g>
</g>
<!-- I2C -->
<g id="node8" class="node">
<title>I2C</title>
<g id="a_node8"><a xlink:href="d6/d7f/a00287.html" target="_top" xlink:title="I2C Port">
<polygon fill="#7f007f" stroke="#ffffff" points="306,-124.5 252,-124.5 252,-88.5 306,-88.5 306,-124.5"/>
<text text-anchor="middle" x="279" y="-101.08" font-family="Arial" font-size="14.00" fill="white">I2C</text>
</a>
</g>
</g>
<!-- UART -->
<g id="node9" class="node">
<title>UART</title>
<g id="a_node9"><a xlink:href="" target="_top" xlink:title="UART Port">
<polygon fill="#7f007f" stroke="#ffffff" points="378,-124.5 324,-124.5 324,-88.5 378,-88.5 378,-124.5"/>
<text text-anchor="middle" x="351" y="-101.08" font-family="Arial" font-size="14.00" fill="white">UART</text>
</a>
</g>
</g>
<!-- CAN -->
<g id="node10" class="node">
<title>CAN</title>
<g id="a_node10"><a xlink:href="" target="_top" xlink:title="CAN Port">
<polygon fill="#7f007f" stroke="#ffffff" points="450,-124.5 396,-124.5 396,-88.5 450,-88.5 450,-124.5"/>
<text text-anchor="middle" x="423" y="-101.08" font-family="Arial" font-size="14.00" fill="white">CAN</text>
</a>
</g>
</g>
<!-- TIMx -->
<g id="node11" class="node">
<title>TIMx</title>
<g id="a_node11"><a xlink:href="" target="_top" xlink:title="Timer">
<polygon fill="#00007f" stroke="#ffffff" points="522,-124.5 468,-124.5 468,-88.5 522,-88.5 522,-124.5"/>
<text text-anchor="middle" x="495" y="-101.08" font-family="Arial" font-size="14.00" fill="white">TIMx</text>
</a>
</g>
</g>
<!-- ENCODER -->
<g id="node12" class="node">
<title>ENCODER</title>
<g id="a_node12"><a xlink:href="" target="_top" xlink:title="Encoder">
<polygon fill="#00007f" stroke="#ffffff" points="537.12,-36 452.88,-36 452.88,0 537.12,0 537.12,-36"/>
<text text-anchor="middle" x="495" y="-12.57" font-family="Arial" font-size="14.00" fill="white">ENCODER</text>
</a>
</g>
</g>
<!-- TIMx&#45;&gt;ENCODER -->
<g id="edge5" class="edge">
<title>TIMx&#45;&gt;ENCODER</title>
<path fill="none" stroke="#808080" d="M495,-88.41C495,-76.76 495,-61.05 495,-47.52"/>
<polygon fill="#808080" stroke="#808080" points="498.5,-47.86 495,-37.86 491.5,-47.86 498.5,-47.86"/>
<text text-anchor="middle" x="517.5" y="-57.2" font-family="Times New Roman,serif" font-size="14.00">Encoder</text>
</g>
<!-- RTC -->
<g id="node13" class="node">
<title>RTC</title>
<g id="a_node13"><a xlink:href="df/d95/a00299.html" target="_top" xlink:title="RTC">
<polygon fill="#0000ff" stroke="#ffffff" points="618.12,-124.5 539.88,-124.5 539.88,-88.5 618.12,-88.5 618.12,-124.5"/>
<text text-anchor="middle" x="579" y="-101.08" font-family="Arial" font-size="14.00" fill="white">RTC clock</text>
</a>
</g>
</g>
<!-- BKPSRAM -->
<g id="node14" class="node">
<title>BKPSRAM</title>
<g id="a_node14"><a xlink:href="" target="_top" xlink:title="Backup RAM">
<polygon fill="#0000ff" stroke="#ffffff" points="719.38,-124.5 636.62,-124.5 636.62,-88.5 719.38,-88.5 719.38,-124.5"/>
<text text-anchor="middle" x="678" y="-101.08" font-family="Arial" font-size="14.00" fill="white">BKPSRAM</text>
</a>
</g>
</g>
<!-- BKPSRAM_DOMAIN -->
<g id="node15" class="node">
<title>BKPSRAM_DOMAIN</title>
<g id="a_node15"><a xlink:href="" target="_top" xlink:title="Backup RAM Domain ">
<polygon fill="#0000ff" stroke="#ffffff" points="709.62,-36 646.38,-36 646.38,0 709.62,0 709.62,-36"/>
<text text-anchor="middle" x="678" y="-12.57" font-family="Arial" font-size="14.00" fill="white">Domain</text>
</a>
</g>
</g>
<!-- BKPSRAM&#45;&gt;BKPSRAM_DOMAIN -->
<g id="edge6" class="edge">
<title>BKPSRAM&#45;&gt;BKPSRAM_DOMAIN</title>
<path fill="none" stroke="#808080" d="M678,-88.41C678,-76.76 678,-61.05 678,-47.52"/>
<polygon fill="#808080" stroke="#808080" points="681.5,-47.86 678,-37.86 674.5,-47.86 681.5,-47.86"/>
</g>
<!-- OTP -->
<g id="node16" class="node">
<title>OTP</title>
<g id="a_node16"><a xlink:href="" target="_top" xlink:title="OTP Flash Memory">
<polygon fill="#8000ff" stroke="#ffffff" points="791,-124.5 737,-124.5 737,-88.5 791,-88.5 791,-124.5"/>
<text text-anchor="middle" x="764" y="-101.08" font-family="Arial" font-size="14.00" fill="white">OTP</text>
</a>
</g>
</g>
</g>
</svg>
