<?xml version="1.0" encoding="UTF-8" standalone="no"?>
<!DOCTYPE svg PUBLIC "-//W3C//DTD SVG 1.1//EN"
 "http://www.w3.org/Graphics/SVG/1.1/DTD/svg11.dtd">
<!-- Generated by graphviz version 12.2.1 (20241206.2353)
 -->
<!-- Title: Graphical Class Hierarchy Pages: 1 -->
<svg width="463pt" height="78pt"
 viewBox="0.00 0.00 462.50 78.00" xmlns="http://www.w3.org/2000/svg" xmlns:xlink="http://www.w3.org/1999/xlink">
<g id="graph0" class="graph" transform="scale(1 1) rotate(0) translate(4 74)">
<title>Graphical Class Hierarchy</title>
<!-- Node0 -->
<g id="Node000000" class="node">
<title>Node0</title>
<g id="a_Node000000"><a xlink:title=" ">
<polygon fill="#e0e0e0" stroke="#999999" points="136.75,-70 0,-70 0,-50 136.75,-50 136.75,-70"/>
<text text-anchor="middle" x="68.38" y="-56.5" font-family="Helvetica,sans-Serif" font-size="10.00">ADC_ChannelConfTypeDef</text>
</a>
</g>
</g>
<!-- Node1 -->
<g id="Node000001" class="node">
<title>Node1</title>
<g id="a_Node000001"><a xlink:href="d8/d72/a00199.html" target="_top" xlink:title="A class representing an ADC channel configuration.">
<polygon fill="white" stroke="#666666" points="293.38,-68 173.88,-68 173.88,-48 293.38,-48 293.38,-68"/>
<text text-anchor="middle" x="233.62" y="-54.5" font-family="Helvetica,sans-Serif" font-size="10.00">Lib::HAL::Adc::Channel</text>
</a>
</g>
</g>
<!-- Node0&#45;&gt;Node1 -->
<g id="edge1_Node000000_Node000001" class="edge">
<title>Node0&#45;&gt;Node1</title>
<g id="a_edge1_Node000000_Node000001"><a xlink:title=" ">
<path fill="none" stroke="#63b8ff" d="M148.61,-59.03C157.03,-58.93 165.48,-58.82 173.6,-58.72"/>
<polygon fill="#63b8ff" stroke="#63b8ff" points="148.66,-55.53 138.7,-59.15 148.75,-62.53 148.66,-55.53"/>
</a>
</g>
</g>
<!-- Node2 -->
<g id="Node000002" class="node">
<title>Node2</title>
<g id="a_Node000002"><a xlink:href="de/dd2/a00207.html" target="_top" xlink:title="A base class for handling ADC ports.">
<polygon fill="white" stroke="#666666" points="454.5,-48 330.5,-48 330.5,-28 454.5,-28 454.5,-48"/>
<text text-anchor="middle" x="392.5" y="-34.5" font-family="Helvetica,sans-Serif" font-size="10.00">Lib::HAL::Adc::PortBase</text>
</a>
</g>
</g>
<!-- Node1&#45;&gt;Node2 -->
<g id="edge2_Node000001_Node000002" class="edge">
<title>Node1&#45;&gt;Node2</title>
<g id="a_edge2_Node000001_Node000002"><a xlink:title=" ">
<path fill="none" stroke="darkgreen" d="M304.89,-49.04C313.33,-47.97 321.91,-46.87 330.21,-45.81"/>
<polygon fill="darkgreen" stroke="darkgreen" points="304.46,-45.57 294.99,-50.3 305.35,-52.51 304.46,-45.57"/>
</a>
</g>
</g>
<!-- Node4 -->
<g id="Node000004" class="node">
<title>Node4</title>
<g id="a_Node000004"><a xlink:href="d0/d1f/a00247.html" target="_top" xlink:title=" ">
<polygon fill="white" stroke="#666666" points="128.88,-32 7.88,-32 7.88,0 128.88,0 128.88,-32"/>
<text text-anchor="start" x="15.88" y="-18.5" font-family="Helvetica,sans-Serif" font-size="10.00">Lib::HAL::Handle&lt; ADC</text>
<text text-anchor="middle" x="68.38" y="-6.5" font-family="Helvetica,sans-Serif" font-size="10.00">_HandleTypeDef &gt;</text>
</a>
</g>
</g>
<!-- Node3 -->
<g id="Node000003" class="node">
<title>Node3</title>
<g id="a_Node000003"><a xlink:href="de/d79/a00203.html" target="_top" xlink:title="A class representing the ADC interface.">
<polygon fill="white" stroke="#666666" points="294.5,-29 172.75,-29 172.75,-9 294.5,-9 294.5,-29"/>
<text text-anchor="middle" x="233.62" y="-15.5" font-family="Helvetica,sans-Serif" font-size="10.00">Lib::HAL::Adc::Interface</text>
</a>
</g>
</g>
<!-- Node4&#45;&gt;Node3 -->
<g id="edge3_Node000004_Node000003" class="edge">
<title>Node4&#45;&gt;Node3</title>
<g id="a_edge3_Node000004_Node000003"><a xlink:title=" ">
<path fill="none" stroke="#63b8ff" d="M140.64,-17.31C151.27,-17.5 162.13,-17.7 172.5,-17.9"/>
<polygon fill="#63b8ff" stroke="#63b8ff" points="140.81,-13.81 130.75,-17.13 140.68,-20.81 140.81,-13.81"/>
</a>
</g>
</g>
<!-- Node3&#45;&gt;Node2 -->
<g id="edge4_Node000003_Node000002" class="edge">
<title>Node3&#45;&gt;Node2</title>
<g id="a_edge4_Node000003_Node000002"><a xlink:title=" ">
<path fill="none" stroke="#63b8ff" d="M306.09,-27.66C314.13,-28.63 322.27,-29.61 330.16,-30.57"/>
<polygon fill="#63b8ff" stroke="#63b8ff" points="306.68,-24.2 296.33,-26.47 305.84,-31.15 306.68,-24.2"/>
</a>
</g>
</g>
</g>
</svg>
