<?xml version="1.0" encoding="UTF-8" standalone="no"?>
<!DOCTYPE svg PUBLIC "-//W3C//DTD SVG 1.1//EN"
 "http://www.w3.org/Graphics/SVG/1.1/DTD/svg11.dtd">
<!-- Generated by graphviz version 12.2.1 (20241206.2353)
 -->
<!-- Title: Lib::Xbee::Core::Frame0x00 Pages: 1 -->
<svg width="139pt" height="228pt"
 viewBox="0.00 0.00 139.00 228.00" xmlns="http://www.w3.org/2000/svg" xmlns:xlink="http://www.w3.org/1999/xlink">
<g id="graph0" class="graph" transform="scale(1 1) rotate(0) translate(4 224)">
<title>Lib::Xbee::Core::Frame0x00</title>
<!-- Node1 -->
<g id="Node000001" class="node">
<title>Node1</title>
<g id="a_Node000001"><a xlink:title="Represents a 64&#45;bit Transmit Request frame (Frame 0x00) for XBee communication.">
<polygon fill="#999999" stroke="none" points="131,-100 0,-100 0,0 131,0 131,-100"/>
<text text-anchor="start" x="4" y="-86.5" font-family="Helvetica,sans-Serif" font-size="10.00">Lib::Xbee::Core::Frame0x00</text>
<text text-anchor="start" x="7.5" y="-70.5" font-family="Helvetica,sans-Serif" font-size="10.00">+</text>
<text text-anchor="start" x="21" y="-70.5" font-family="Helvetica,sans-Serif" font-size="10.00">frameId</text>
<text text-anchor="start" x="7.5" y="-54.5" font-family="Helvetica,sans-Serif" font-size="10.00">+</text>
<text text-anchor="start" x="21" y="-54.5" font-family="Helvetica,sans-Serif" font-size="10.00">dstAddress</text>
<text text-anchor="start" x="7.5" y="-38.5" font-family="Helvetica,sans-Serif" font-size="10.00">+</text>
<text text-anchor="start" x="21" y="-38.5" font-family="Helvetica,sans-Serif" font-size="10.00">options</text>
<text text-anchor="start" x="7.5" y="-22.5" font-family="Helvetica,sans-Serif" font-size="10.00">+</text>
<text text-anchor="start" x="21" y="-22.5" font-family="Helvetica,sans-Serif" font-size="10.00">rfData</text>
<text text-anchor="start" x="7.5" y="-6.5" font-family="Helvetica,sans-Serif" font-size="10.00">+</text>
<text text-anchor="start" x="21" y="-6.5" font-family="Helvetica,sans-Serif" font-size="10.00">operator Frame::Data()</text>
<polygon fill="#666666" stroke="#666666" points="0,-82 0,-82 131,-82 131,-82 0,-82"/>
<polygon fill="#666666" stroke="#666666" points="0,-18 0,-18 19,-18 19,-18 0,-18"/>
<polygon fill="#666666" stroke="#666666" points="19,-18 19,-18 131,-18 131,-18 19,-18"/>
<polygon fill="none" stroke="#666666" points="0,0 0,-100 131,-100 131,0 0,0"/>
</a>
</g>
</g>
<!-- Node2 -->
<g id="Node000002" class="node">
<title>Node2</title>
<g id="a_Node000002"><a xlink:href="../../d8/d7a/a01292.html" target="_top" xlink:title="Base class for all query types in the Xbee library.">
<polygon fill="white" stroke="none" points="131,-220 0,-220 0,-136 131,-136 131,-220"/>
<text text-anchor="start" x="4" y="-206.5" font-family="Helvetica,sans-Serif" font-size="10.00">Lib::Xbee::Core::QueryBase</text>
<text text-anchor="start" x="64" y="-190.5" font-family="Helvetica,sans-Serif" font-size="10.00"> </text>
<text text-anchor="start" x="7.5" y="-174.5" font-family="Helvetica,sans-Serif" font-size="10.00">+</text>
<text text-anchor="start" x="21" y="-174.5" font-family="Helvetica,sans-Serif" font-size="10.00">operator Frame::Data()</text>
<text text-anchor="start" x="7.88" y="-158.5" font-family="Helvetica,sans-Serif" font-size="10.00">#</text>
<text text-anchor="start" x="21" y="-158.5" font-family="Helvetica,sans-Serif" font-size="10.00">QueryBase()</text>
<text text-anchor="start" x="7.88" y="-142.5" font-family="Helvetica,sans-Serif" font-size="10.00">#</text>
<text text-anchor="start" x="21" y="-142.5" font-family="Helvetica,sans-Serif" font-size="10.00">~QueryBase()</text>
<polygon fill="#666666" stroke="#666666" points="0,-202 0,-202 131,-202 131,-202 0,-202"/>
<polygon fill="#666666" stroke="#666666" points="0,-186 0,-186 131,-186 131,-186 0,-186"/>
<polygon fill="none" stroke="#666666" points="0,-136 0,-220 131,-220 131,-136 0,-136"/>
</a>
</g>
</g>
<!-- Node2&#45;&gt;Node1 -->
<g id="edge1_Node000001_Node000002" class="edge">
<title>Node2&#45;&gt;Node1</title>
<g id="a_edge1_Node000001_Node000002"><a xlink:title=" ">
<path fill="none" stroke="#63b8ff" d="M65.5,-124.61C65.5,-116.33 65.5,-107.8 65.5,-99.61"/>
<polygon fill="none" stroke="#63b8ff" points="62,-124.58 65.5,-134.58 69,-124.58 62,-124.58"/>
</a>
</g>
</g>
</g>
</svg>
