<?xml version="1.0" encoding="UTF-8" standalone="no"?>
<!DOCTYPE svg PUBLIC "-//W3C//DTD SVG 1.1//EN"
 "http://www.w3.org/Graphics/SVG/1.1/DTD/svg11.dtd">
<!-- Generated by graphviz version 12.2.1 (20241206.2353)
 -->
<!-- Title: Lib::Digi::API::ClientBase::start Pages: 1 -->
<svg width="466pt" height="90pt"
 viewBox="0.00 0.00 465.50 90.00" xmlns="http://www.w3.org/2000/svg" xmlns:xlink="http://www.w3.org/1999/xlink">
<g id="graph0" class="graph" transform="scale(1 1) rotate(0) translate(4 86)">
<title>Lib::Digi::API::ClientBase::start</title>
<!-- Node1 -->
<g id="Node000001" class="node">
<title>Node1</title>
<g id="a_Node000001"><a xlink:title="Starts the client application.">
<polygon fill="#999999" stroke="#666666" points="128.5,-60 0,-60 0,-28 128.5,-28 128.5,-60"/>
<text text-anchor="start" x="8" y="-46.5" font-family="Helvetica,sans-Serif" font-size="10.00">Lib::Digi::API::ClientBase</text>
<text text-anchor="middle" x="64.25" y="-34.5" font-family="Helvetica,sans-Serif" font-size="10.00">::start</text>
</a>
</g>
</g>
<!-- Node2 -->
<g id="Node000002" class="node">
<title>Node2</title>
<g id="a_Node000002"><a xlink:href="../../dc/d19/a01056.html#a3f9c31c5b9051febb27a9fcbab8042c9" target="_top" xlink:title="Pauses the application by changing its state to PAUSE.">
<polygon fill="white" stroke="#666666" points="457.5,-82 329,-82 329,-50 457.5,-50 457.5,-82"/>
<text text-anchor="start" x="337" y="-68.5" font-family="Helvetica,sans-Serif" font-size="10.00">Lib::Digi::API::Application</text>
<text text-anchor="middle" x="393.25" y="-56.5" font-family="Helvetica,sans-Serif" font-size="10.00">Base::pause</text>
</a>
</g>
</g>
<!-- Node1&#45;&gt;Node2 -->
<g id="edge1_Node000001_Node000002" class="edge">
<title>Node1&#45;&gt;Node2</title>
<g id="a_edge1_Node000001_Node000002"><a xlink:title=" ">
<path fill="none" stroke="#63b8ff" d="M128.69,-48.27C182.64,-51.9 260.21,-57.12 317.23,-60.95"/>
<polygon fill="#63b8ff" stroke="#63b8ff" points="316.99,-64.44 327.2,-61.62 317.46,-57.46 316.99,-64.44"/>
</a>
</g>
</g>
<!-- Node3 -->
<g id="Node000003" class="node">
<title>Node3</title>
<g id="a_Node000003"><a xlink:href="../../dc/d19/a01056.html#a5bdc3d73033317f0d42c376fd040fec6" target="_top" xlink:title="Starts the application.">
<polygon fill="white" stroke="#666666" points="293,-38 164.5,-38 164.5,-6 293,-6 293,-38"/>
<text text-anchor="start" x="172.5" y="-24.5" font-family="Helvetica,sans-Serif" font-size="10.00">Lib::Digi::API::Application</text>
<text text-anchor="middle" x="228.75" y="-12.5" font-family="Helvetica,sans-Serif" font-size="10.00">Base::start</text>
</a>
</g>
</g>
<!-- Node1&#45;&gt;Node3 -->
<g id="edge2_Node000001_Node000003" class="edge">
<title>Node1&#45;&gt;Node3</title>
<g id="a_edge2_Node000001_Node000003"><a xlink:title=" ">
<path fill="none" stroke="#63b8ff" d="M128.54,-35.43C136.48,-34.36 144.65,-33.25 152.74,-32.15"/>
<polygon fill="#63b8ff" stroke="#63b8ff" points="153.16,-35.63 162.6,-30.82 152.22,-28.69 153.16,-35.63"/>
</a>
</g>
</g>
<!-- Node3&#45;&gt;Node2 -->
<g id="edge4_Node000003_Node000002" class="edge">
<title>Node3&#45;&gt;Node2</title>
<g id="a_edge4_Node000003_Node000002"><a xlink:title=" ">
<path fill="none" stroke="#63b8ff" d="M290.26,-38.38C300.13,-41.06 310.44,-43.85 320.56,-46.59"/>
<polygon fill="#63b8ff" stroke="#63b8ff" points="319.39,-49.9 329.96,-49.13 321.22,-43.14 319.39,-49.9"/>
</a>
</g>
</g>
<!-- Node4 -->
<g id="Node000004" class="node">
<title>Node4</title>
<g id="a_Node000004"><a xlink:href="../../dc/d64/a01140.html#a0738fe3b7814107f3833ac8725a7d89d" target="_top" xlink:title="Gets the singleton instance of the Manager class.">
<polygon fill="white" stroke="#666666" points="451.5,-32 335,-32 335,0 451.5,0 451.5,-32"/>
<text text-anchor="start" x="343" y="-18.5" font-family="Helvetica,sans-Serif" font-size="10.00">Lib::Digi::API::Service</text>
<text text-anchor="middle" x="393.25" y="-6.5" font-family="Helvetica,sans-Serif" font-size="10.00">::Manager::getInstance</text>
</a>
</g>
</g>
<!-- Node3&#45;&gt;Node4 -->
<g id="edge3_Node000003_Node000004" class="edge">
<title>Node3&#45;&gt;Node4</title>
<g id="a_edge3_Node000003_Node000004"><a xlink:title=" ">
<path fill="none" stroke="#63b8ff" d="M293.04,-19.66C303.01,-19.29 313.36,-18.91 323.45,-18.54"/>
<polygon fill="#63b8ff" stroke="#63b8ff" points="323.32,-22.05 333.19,-18.18 323.06,-15.05 323.32,-22.05"/>
</a>
</g>
</g>
</g>
</svg>
