<?xml version="1.0" encoding="UTF-8" standalone="no"?>
<!DOCTYPE svg PUBLIC "-//W3C//DTD SVG 1.1//EN"
 "http://www.w3.org/Graphics/SVG/1.1/DTD/svg11.dtd">
<!-- Generated by graphviz version 12.2.1 (20241206.2353)
 -->
<!-- Title: Lib::Xbee::API::Service::Parameters Pages: 1 -->
<svg width="334pt" height="749pt"
 viewBox="0.00 0.00 333.62 749.00" xmlns="http://www.w3.org/2000/svg" xmlns:xlink="http://www.w3.org/1999/xlink">
<g id="graph0" class="graph" transform="scale(1 1) rotate(0) translate(4 745)">
<title>Lib::Xbee::API::Service::Parameters</title>
<!-- Node1 -->
<g id="Node000001" class="node">
<title>Node1</title>
<g id="a_Node000001"><a xlink:title="Manages and manipulates various parameters related to XBee devices.">
<polygon fill="#999999" stroke="none" points="162.75,-256 0,-256 0,0 162.75,0 162.75,-256"/>
<text text-anchor="start" x="30" y="-242.5" font-family="Helvetica,sans-Serif" font-size="10.00">Lib::Xbee::API::Service</text>
<text text-anchor="start" x="53.25" y="-230.5" font-family="Helvetica,sans-Serif" font-size="10.00">::Parameters</text>
<text text-anchor="start" x="79.88" y="-214.5" font-family="Helvetica,sans-Serif" font-size="10.00"> </text>
<text text-anchor="start" x="4" y="-198.5" font-family="Helvetica,sans-Serif" font-size="10.00">+</text>
<text text-anchor="start" x="14" y="-198.5" font-family="Helvetica,sans-Serif" font-size="10.00">Parameters()</text>
<text text-anchor="start" x="4" y="-182.5" font-family="Helvetica,sans-Serif" font-size="10.00">+</text>
<text text-anchor="start" x="14" y="-182.5" font-family="Helvetica,sans-Serif" font-size="10.00">open()</text>
<text text-anchor="start" x="4" y="-166.5" font-family="Helvetica,sans-Serif" font-size="10.00">+</text>
<text text-anchor="start" x="14" y="-166.5" font-family="Helvetica,sans-Serif" font-size="10.00">close()</text>
<text text-anchor="start" x="4" y="-150.5" font-family="Helvetica,sans-Serif" font-size="10.00">+</text>
<text text-anchor="start" x="14" y="-150.5" font-family="Helvetica,sans-Serif" font-size="10.00">read()</text>
<text text-anchor="start" x="4" y="-134.5" font-family="Helvetica,sans-Serif" font-size="10.00">+</text>
<text text-anchor="start" x="14" y="-134.5" font-family="Helvetica,sans-Serif" font-size="10.00">initCallback()</text>
<text text-anchor="start" x="4" y="-118.5" font-family="Helvetica,sans-Serif" font-size="10.00">+</text>
<text text-anchor="start" x="14" y="-118.5" font-family="Helvetica,sans-Serif" font-size="10.00">updateCallback()</text>
<text text-anchor="start" x="4" y="-102.5" font-family="Helvetica,sans-Serif" font-size="10.00">+</text>
<text text-anchor="start" x="14" y="-102.5" font-family="Helvetica,sans-Serif" font-size="10.00">closeCallback()</text>
<text text-anchor="start" x="4" y="-86.5" font-family="Helvetica,sans-Serif" font-size="10.00">+</text>
<text text-anchor="start" x="14" y="-86.5" font-family="Helvetica,sans-Serif" font-size="10.00">getChannel()</text>
<text text-anchor="start" x="4" y="-70.5" font-family="Helvetica,sans-Serif" font-size="10.00">+</text>
<text text-anchor="start" x="14" y="-70.5" font-family="Helvetica,sans-Serif" font-size="10.00">setChannel()</text>
<text text-anchor="start" x="4" y="-54.5" font-family="Helvetica,sans-Serif" font-size="10.00">+</text>
<text text-anchor="start" x="14" y="-54.5" font-family="Helvetica,sans-Serif" font-size="10.00">getPanId()</text>
<text text-anchor="start" x="4" y="-38.5" font-family="Helvetica,sans-Serif" font-size="10.00">+</text>
<text text-anchor="start" x="14" y="-38.5" font-family="Helvetica,sans-Serif" font-size="10.00">setPanId()</text>
<text text-anchor="start" x="4" y="-22.5" font-family="Helvetica,sans-Serif" font-size="10.00">+</text>
<text text-anchor="start" x="14" y="-22.5" font-family="Helvetica,sans-Serif" font-size="10.00">pauseReadDynamicParameters()</text>
<text text-anchor="start" x="4" y="-6.5" font-family="Helvetica,sans-Serif" font-size="10.00">+</text>
<text text-anchor="start" x="14" y="-6.5" font-family="Helvetica,sans-Serif" font-size="10.00">writeChanges()</text>
<polygon fill="#666666" stroke="#666666" points="0,-226 0,-226 162.75,-226 162.75,-226 0,-226"/>
<polygon fill="#666666" stroke="#666666" points="0,-210 0,-210 162.75,-210 162.75,-210 0,-210"/>
<polygon fill="none" stroke="#666666" points="0,0 0,-256 162.75,-256 162.75,0 0,0"/>
</a>
</g>
</g>
<!-- Node2 -->
<g id="Node000002" class="node">
<title>Node2</title>
<g id="a_Node000002"><a xlink:href="../../d3/d32/a01176.html" target="_top" xlink:title="Base class for services in the Xbee API.">
<polygon fill="white" stroke="none" points="120.75,-480 10,-480 10,-304 120.75,-304 120.75,-480"/>
<text text-anchor="start" x="14" y="-466.5" font-family="Helvetica,sans-Serif" font-size="10.00">Lib::Xbee::API::Service</text>
<text text-anchor="start" x="34.62" y="-454.5" font-family="Helvetica,sans-Serif" font-size="10.00">::ServiceBase</text>
<text text-anchor="start" x="63.88" y="-438.5" font-family="Helvetica,sans-Serif" font-size="10.00"> </text>
<text text-anchor="start" x="19" y="-422.5" font-family="Helvetica,sans-Serif" font-size="10.00">#</text>
<text text-anchor="start" x="33.25" y="-422.5" font-family="Helvetica,sans-Serif" font-size="10.00">ServiceBase()</text>
<text text-anchor="start" x="19" y="-406.5" font-family="Helvetica,sans-Serif" font-size="10.00">#</text>
<text text-anchor="start" x="33.25" y="-406.5" font-family="Helvetica,sans-Serif" font-size="10.00">~ServiceBase()</text>
<text text-anchor="start" x="19" y="-390.5" font-family="Helvetica,sans-Serif" font-size="10.00">#</text>
<text text-anchor="start" x="33.25" y="-390.5" font-family="Helvetica,sans-Serif" font-size="10.00">open()</text>
<text text-anchor="start" x="19" y="-374.5" font-family="Helvetica,sans-Serif" font-size="10.00">#</text>
<text text-anchor="start" x="33.25" y="-374.5" font-family="Helvetica,sans-Serif" font-size="10.00">close()</text>
<text text-anchor="start" x="19" y="-358.5" font-family="Helvetica,sans-Serif" font-size="10.00">#</text>
<text text-anchor="start" x="33.25" y="-358.5" font-family="Helvetica,sans-Serif" font-size="10.00">isOpen()</text>
<text text-anchor="start" x="19" y="-342.5" font-family="Helvetica,sans-Serif" font-size="10.00">#</text>
<text text-anchor="start" x="33.25" y="-342.5" font-family="Helvetica,sans-Serif" font-size="10.00">initCallback()</text>
<text text-anchor="start" x="19" y="-326.5" font-family="Helvetica,sans-Serif" font-size="10.00">#</text>
<text text-anchor="start" x="33.25" y="-326.5" font-family="Helvetica,sans-Serif" font-size="10.00">updateCallback()</text>
<text text-anchor="start" x="19" y="-310.5" font-family="Helvetica,sans-Serif" font-size="10.00">#</text>
<text text-anchor="start" x="33.25" y="-310.5" font-family="Helvetica,sans-Serif" font-size="10.00">closeCallback()</text>
<polygon fill="#666666" stroke="#666666" points="10,-450 10,-450 120.75,-450 120.75,-450 10,-450"/>
<polygon fill="#666666" stroke="#666666" points="10,-434 10,-434 120.75,-434 120.75,-434 10,-434"/>
<polygon fill="none" stroke="#666666" points="10,-304 10,-480 120.75,-480 120.75,-304 10,-304"/>
</a>
</g>
</g>
<!-- Node2&#45;&gt;Node1 -->
<g id="edge1_Node000001_Node000002" class="edge">
<title>Node2&#45;&gt;Node1</title>
<g id="a_edge1_Node000001_Node000002"><a xlink:title=" ">
<path fill="none" stroke="#63b8ff" d="M71.38,-292.72C72.11,-280.68 72.87,-268.25 73.63,-255.87"/>
<polygon fill="none" stroke="#63b8ff" points="67.89,-292.42 70.77,-302.61 74.88,-292.84 67.89,-292.42"/>
</a>
</g>
</g>
<!-- Node3 -->
<g id="Node000003" class="node">
<title>Node3</title>
<g id="a_Node000003"><a xlink:href="../../da/d20/a01160.html" target="_top" xlink:title="Represents the data structure for the Parameters class.">
<polygon fill="white" stroke="none" points="249.75,-480 139,-480 139,-304 249.75,-304 249.75,-480"/>
<text text-anchor="start" x="143" y="-466.5" font-family="Helvetica,sans-Serif" font-size="10.00">Lib::Xbee::API::Service</text>
<text text-anchor="start" x="152.75" y="-454.5" font-family="Helvetica,sans-Serif" font-size="10.00">::Parameters::Data</text>
<text text-anchor="start" x="148.19" y="-438.5" font-family="Helvetica,sans-Serif" font-size="10.00">+</text>
<text text-anchor="start" x="163.38" y="-438.5" font-family="Helvetica,sans-Serif" font-size="10.00">panId</text>
<text text-anchor="start" x="148.19" y="-422.5" font-family="Helvetica,sans-Serif" font-size="10.00">+</text>
<text text-anchor="start" x="163.38" y="-422.5" font-family="Helvetica,sans-Serif" font-size="10.00">channel</text>
<text text-anchor="start" x="148.19" y="-406.5" font-family="Helvetica,sans-Serif" font-size="10.00">+</text>
<text text-anchor="start" x="163.38" y="-406.5" font-family="Helvetica,sans-Serif" font-size="10.00">firmwareVersion</text>
<text text-anchor="start" x="148.19" y="-390.5" font-family="Helvetica,sans-Serif" font-size="10.00">+</text>
<text text-anchor="start" x="163.38" y="-390.5" font-family="Helvetica,sans-Serif" font-size="10.00">hardwareVersion</text>
<text text-anchor="start" x="148.19" y="-374.5" font-family="Helvetica,sans-Serif" font-size="10.00">+</text>
<text text-anchor="start" x="163.38" y="-374.5" font-family="Helvetica,sans-Serif" font-size="10.00">ackFailures</text>
<text text-anchor="start" x="148.19" y="-358.5" font-family="Helvetica,sans-Serif" font-size="10.00">+</text>
<text text-anchor="start" x="163.38" y="-358.5" font-family="Helvetica,sans-Serif" font-size="10.00">ccaFailures</text>
<text text-anchor="start" x="148.19" y="-342.5" font-family="Helvetica,sans-Serif" font-size="10.00">+</text>
<text text-anchor="start" x="163.38" y="-342.5" font-family="Helvetica,sans-Serif" font-size="10.00">temperature</text>
<text text-anchor="start" x="148.19" y="-326.5" font-family="Helvetica,sans-Serif" font-size="10.00">+</text>
<text text-anchor="start" x="163.38" y="-326.5" font-family="Helvetica,sans-Serif" font-size="10.00">voltage</text>
<text text-anchor="start" x="192.88" y="-310.5" font-family="Helvetica,sans-Serif" font-size="10.00"> </text>
<polygon fill="#666666" stroke="#666666" points="139,-450 139,-450 249.75,-450 249.75,-450 139,-450"/>
<polygon fill="#666666" stroke="#666666" points="139,-322 139,-322 161.38,-322 161.38,-322 139,-322"/>
<polygon fill="#666666" stroke="#666666" points="161.38,-322 161.38,-322 249.75,-322 249.75,-322 161.38,-322"/>
<polygon fill="none" stroke="#666666" points="139,-304 139,-480 249.75,-480 249.75,-304 139,-304"/>
</a>
</g>
</g>
<!-- Node3&#45;&gt;Node1 -->
<g id="edge2_Node000001_Node000003" class="edge">
<title>Node3&#45;&gt;Node1</title>
<g id="a_edge2_Node000001_Node000003"><a xlink:title=" ">
<path fill="none" stroke="#63b8ff" d="M156.9,-304.12C151.84,-292.38 146.55,-280.11 141.21,-267.74"/>
<polygon fill="none" stroke="#63b8ff" points="141.2,-267.72 135.15,-263.79 136.45,-256.7 142.5,-260.62 141.2,-267.72"/>
</a>
</g>
<text text-anchor="middle" x="161.87" y="-276.5" font-family="Helvetica,sans-Serif" font-size="10.00" fill="grey"> +data</text>
</g>
<!-- Node4 -->
<g id="Node000004" class="node">
<title>Node4</title>
<g id="a_Node000004"><a xlink:title=" ">
<polygon fill="white" stroke="none" points="151.12,-610 99.62,-610 99.62,-558 151.12,-558 151.12,-610"/>
<text text-anchor="start" x="103.62" y="-596.5" font-family="Helvetica,sans-Serif" font-size="10.00">std::string</text>
<text text-anchor="start" x="123.88" y="-580.5" font-family="Helvetica,sans-Serif" font-size="10.00"> </text>
<text text-anchor="start" x="123.88" y="-564.5" font-family="Helvetica,sans-Serif" font-size="10.00"> </text>
<polygon fill="#666666" stroke="#666666" points="99.62,-592 99.62,-592 151.12,-592 151.12,-592 99.62,-592"/>
<polygon fill="#666666" stroke="#666666" points="99.62,-576 99.62,-576 151.12,-576 151.12,-576 99.62,-576"/>
<polygon fill="none" stroke="#666666" points="99.62,-558 99.62,-610 151.12,-610 151.12,-558 99.62,-558"/>
</a>
</g>
</g>
<!-- Node4&#45;&gt;Node3 -->
<g id="edge3_Node000003_Node000004" class="edge">
<title>Node4&#45;&gt;Node3</title>
<g id="a_edge3_Node000003_Node000004"><a xlink:title=" ">
<path fill="none" stroke="#63b8ff" d="M132.91,-558.31C138.22,-541.27 145.64,-518.15 152.88,-498 153.57,-496.06 154.28,-494.11 155,-492.14"/>
<polygon fill="none" stroke="#63b8ff" points="155.04,-492.02 153.38,-485.01 159.21,-480.77 160.88,-487.79 155.04,-492.02"/>
</a>
</g>
<text text-anchor="middle" x="186.62" y="-500.5" font-family="Helvetica,sans-Serif" font-size="10.00" fill="grey"> +nodeIdentifier</text>
</g>
<!-- Node5 -->
<g id="Node000005" class="node">
<title>Node5</title>
<g id="a_Node000005"><a xlink:title=" ">
<polygon fill="white" stroke="none" points="168.38,-741 82.38,-741 82.38,-677 168.38,-677 168.38,-741"/>
<text text-anchor="start" x="86.38" y="-727.5" font-family="Helvetica,sans-Serif" font-size="10.00">std::basic_string&lt;</text>
<text text-anchor="start" x="108.88" y="-715.5" font-family="Helvetica,sans-Serif" font-size="10.00"> Char &gt;</text>
<text text-anchor="start" x="123.88" y="-699.5" font-family="Helvetica,sans-Serif" font-size="10.00"> </text>
<text text-anchor="start" x="123.88" y="-683.5" font-family="Helvetica,sans-Serif" font-size="10.00"> </text>
<polygon fill="#666666" stroke="#666666" points="82.38,-711 82.38,-711 168.38,-711 168.38,-711 82.38,-711"/>
<polygon fill="#666666" stroke="#666666" points="82.38,-695 82.38,-695 168.38,-695 168.38,-695 82.38,-695"/>
<polygon fill="none" stroke="#666666" points="82.38,-677 82.38,-741 168.38,-741 168.38,-677 82.38,-677"/>
</a>
</g>
</g>
<!-- Node5&#45;&gt;Node4 -->
<g id="edge4_Node000004_Node000005" class="edge">
<title>Node5&#45;&gt;Node4</title>
<g id="a_edge4_Node000004_Node000005"><a xlink:title=" ">
<path fill="none" stroke="#63b8ff" d="M125.38,-665.81C125.38,-647.21 125.38,-625.99 125.38,-609.96"/>
<polygon fill="none" stroke="#63b8ff" points="121.88,-665.77 125.38,-675.77 128.88,-665.77 121.88,-665.77"/>
</a>
</g>
</g>
<!-- Node6 -->
<g id="Node000006" class="node">
<title>Node6</title>
<g id="a_Node000006"><a xlink:href="../../d2/dd2/a01164.html" target="_top" xlink:title="Represents the serial number of the XBee device.">
<polygon fill="white" stroke="none" points="325.62,-640 169.12,-640 169.12,-528 325.62,-528 325.62,-640"/>
<text text-anchor="start" x="173.12" y="-626.5" font-family="Helvetica,sans-Serif" font-size="10.00">Lib::Xbee::API::Service</text>
<text text-anchor="start" x="173.12" y="-614.5" font-family="Helvetica,sans-Serif" font-size="10.00">::Parameters::Data::SerialNumber</text>
<text text-anchor="start" x="203.25" y="-598.5" font-family="Helvetica,sans-Serif" font-size="10.00">+</text>
<text text-anchor="start" x="243.38" y="-598.5" font-family="Helvetica,sans-Serif" font-size="10.00">low</text>
<text text-anchor="start" x="203.25" y="-582.5" font-family="Helvetica,sans-Serif" font-size="10.00">+</text>
<text text-anchor="start" x="243.38" y="-582.5" font-family="Helvetica,sans-Serif" font-size="10.00">high</text>
<text text-anchor="start" x="203.25" y="-566.5" font-family="Helvetica,sans-Serif" font-size="10.00">+</text>
<text text-anchor="start" x="243.38" y="-566.5" font-family="Helvetica,sans-Serif" font-size="10.00">u32</text>
<text text-anchor="start" x="203.25" y="-550.5" font-family="Helvetica,sans-Serif" font-size="10.00">+</text>
<text text-anchor="start" x="243.38" y="-550.5" font-family="Helvetica,sans-Serif" font-size="10.00">u64</text>
<text text-anchor="start" x="245.88" y="-534.5" font-family="Helvetica,sans-Serif" font-size="10.00"> </text>
<polygon fill="#666666" stroke="#666666" points="169.12,-610 169.12,-610 325.62,-610 325.62,-610 169.12,-610"/>
<polygon fill="#666666" stroke="#666666" points="169.12,-546 169.12,-546 241.38,-546 241.38,-546 169.12,-546"/>
<polygon fill="#666666" stroke="#666666" points="241.38,-546 241.38,-546 325.62,-546 325.62,-546 241.38,-546"/>
<polygon fill="none" stroke="#666666" points="169.12,-528 169.12,-640 325.62,-640 325.62,-528 169.12,-528"/>
</a>
</g>
</g>
<!-- Node6&#45;&gt;Node3 -->
<g id="edge5_Node000003_Node000006" class="edge">
<title>Node6&#45;&gt;Node3</title>
<g id="a_edge5_Node000003_Node000006"><a xlink:title=" ">
<path fill="none" stroke="#63b8ff" d="M232.05,-528.04C228.88,-516.7 225.46,-504.42 222.01,-492.06"/>
<polygon fill="none" stroke="#63b8ff" points="222.02,-492.12 216.56,-487.41 218.8,-480.56 224.26,-485.26 222.02,-492.12"/>
</a>
</g>
<text text-anchor="middle" x="259" y="-500.5" font-family="Helvetica,sans-Serif" font-size="10.00" fill="grey"> +serialNumber</text>
</g>
</g>
</svg>
