<?xml version="1.0" encoding="UTF-8" standalone="no"?>
<!DOCTYPE svg PUBLIC "-//W3C//DTD SVG 1.1//EN"
 "http://www.w3.org/Graphics/SVG/1.1/DTD/svg11.dtd">
<!-- Generated by graphviz version 12.2.1 (20241206.2353)
 -->
<!-- Title: Lib::Digi::API::Service::Parameters Pages: 1 -->
<svg width="329pt" height="749pt"
 viewBox="0.00 0.00 328.62 749.00" xmlns="http://www.w3.org/2000/svg" xmlns:xlink="http://www.w3.org/1999/xlink">
<g id="graph0" class="graph" transform="scale(1 1) rotate(0) translate(4 745)">
<title>Lib::Digi::API::Service::Parameters</title>
<!-- Node1 -->
<g id="Node000001" class="node">
<title>Node1</title>
<g id="a_Node000001"><a xlink:title="Manages and manipulates various parameters related to XBee devices.">
<polygon fill="#999999" stroke="none" points="162.75,-256 0,-256 0,0 162.75,0 162.75,-256"/>
<text text-anchor="start" x="32.62" y="-242.5" font-family="Helvetica,sans-Serif" font-size="10.00">Lib::Digi::API::Service</text>
<text text-anchor="start" x="53.25" y="-230.5" font-family="Helvetica,sans-Serif" font-size="10.00">::Parameters</text>
<text text-anchor="start" x="79.88" y="-214.5" font-family="Helvetica,sans-Serif" font-size="10.00"> </text>
<text text-anchor="start" x="4" y="-198.5" font-family="Helvetica,sans-Serif" font-size="10.00">+</text>
<text text-anchor="start" x="14" y="-198.5" font-family="Helvetica,sans-Serif" font-size="10.00">Parameters()</text>
<text text-anchor="start" x="4" y="-182.5" font-family="Helvetica,sans-Serif" font-size="10.00">+</text>
<text text-anchor="start" x="14" y="-182.5" font-family="Helvetica,sans-Serif" font-size="10.00">open()</text>
<text text-anchor="start" x="4" y="-166.5" font-family="Helvetica,sans-Serif" font-size="10.00">+</text>
<text text-anchor="start" x="14" y="-166.5" font-family="Helvetica,sans-Serif" font-size="10.00">close()</text>
<text text-anchor="start" x="4" y="-150.5" font-family="Helvetica,sans-Serif" font-size="10.00">+</text>
<text text-anchor="start" x="14" y="-150.5" font-family="Helvetica,sans-Serif" font-size="10.00">read()</text>
<text text-anchor="start" x="4" y="-134.5" font-family="Helvetica,sans-Serif" font-size="10.00">+</text>
<text text-anchor="start" x="14" y="-134.5" font-family="Helvetica,sans-Serif" font-size="10.00">initCallback()</text>
<text text-anchor="start" x="4" y="-118.5" font-family="Helvetica,sans-Serif" font-size="10.00">+</text>
<text text-anchor="start" x="14" y="-118.5" font-family="Helvetica,sans-Serif" font-size="10.00">updateCallback()</text>
<text text-anchor="start" x="4" y="-102.5" font-family="Helvetica,sans-Serif" font-size="10.00">+</text>
<text text-anchor="start" x="14" y="-102.5" font-family="Helvetica,sans-Serif" font-size="10.00">closeCallback()</text>
<text text-anchor="start" x="4" y="-86.5" font-family="Helvetica,sans-Serif" font-size="10.00">+</text>
<text text-anchor="start" x="14" y="-86.5" font-family="Helvetica,sans-Serif" font-size="10.00">getChannel()</text>
<text text-anchor="start" x="4" y="-70.5" font-family="Helvetica,sans-Serif" font-size="10.00">+</text>
<text text-anchor="start" x="14" y="-70.5" font-family="Helvetica,sans-Serif" font-size="10.00">setChannel()</text>
<text text-anchor="start" x="4" y="-54.5" font-family="Helvetica,sans-Serif" font-size="10.00">+</text>
<text text-anchor="start" x="14" y="-54.5" font-family="Helvetica,sans-Serif" font-size="10.00">getPanId()</text>
<text text-anchor="start" x="4" y="-38.5" font-family="Helvetica,sans-Serif" font-size="10.00">+</text>
<text text-anchor="start" x="14" y="-38.5" font-family="Helvetica,sans-Serif" font-size="10.00">setPanId()</text>
<text text-anchor="start" x="4" y="-22.5" font-family="Helvetica,sans-Serif" font-size="10.00">+</text>
<text text-anchor="start" x="14" y="-22.5" font-family="Helvetica,sans-Serif" font-size="10.00">pauseReadDynamicParameters()</text>
<text text-anchor="start" x="4" y="-6.5" font-family="Helvetica,sans-Serif" font-size="10.00">+</text>
<text text-anchor="start" x="14" y="-6.5" font-family="Helvetica,sans-Serif" font-size="10.00">writeChanges()</text>
<polygon fill="#666666" stroke="#666666" points="0,-226 0,-226 162.75,-226 162.75,-226 0,-226"/>
<polygon fill="#666666" stroke="#666666" points="0,-210 0,-210 162.75,-210 162.75,-210 0,-210"/>
<polygon fill="none" stroke="#666666" points="0,0 0,-256 162.75,-256 162.75,0 0,0"/>
</a>
</g>
</g>
<!-- Node2 -->
<g id="Node000002" class="node">
<title>Node2</title>
<g id="a_Node000002"><a xlink:href="../../d3/d32/a01176.html" target="_top" xlink:title="Base class for services in the Xbee API.">
<polygon fill="white" stroke="none" points="118.12,-480 12.62,-480 12.62,-304 118.12,-304 118.12,-480"/>
<text text-anchor="start" x="16.62" y="-466.5" font-family="Helvetica,sans-Serif" font-size="10.00">Lib::Digi::API::Service</text>
<text text-anchor="start" x="34.62" y="-454.5" font-family="Helvetica,sans-Serif" font-size="10.00">::ServiceBase</text>
<text text-anchor="start" x="63.88" y="-438.5" font-family="Helvetica,sans-Serif" font-size="10.00"> </text>
<text text-anchor="start" x="20.31" y="-422.5" font-family="Helvetica,sans-Serif" font-size="10.00">#</text>
<text text-anchor="start" x="33.25" y="-422.5" font-family="Helvetica,sans-Serif" font-size="10.00">ServiceBase()</text>
<text text-anchor="start" x="20.31" y="-406.5" font-family="Helvetica,sans-Serif" font-size="10.00">#</text>
<text text-anchor="start" x="33.25" y="-406.5" font-family="Helvetica,sans-Serif" font-size="10.00">~ServiceBase()</text>
<text text-anchor="start" x="20.31" y="-390.5" font-family="Helvetica,sans-Serif" font-size="10.00">#</text>
<text text-anchor="start" x="33.25" y="-390.5" font-family="Helvetica,sans-Serif" font-size="10.00">open()</text>
<text text-anchor="start" x="20.31" y="-374.5" font-family="Helvetica,sans-Serif" font-size="10.00">#</text>
<text text-anchor="start" x="33.25" y="-374.5" font-family="Helvetica,sans-Serif" font-size="10.00">close()</text>
<text text-anchor="start" x="20.31" y="-358.5" font-family="Helvetica,sans-Serif" font-size="10.00">#</text>
<text text-anchor="start" x="33.25" y="-358.5" font-family="Helvetica,sans-Serif" font-size="10.00">isOpen()</text>
<text text-anchor="start" x="20.31" y="-342.5" font-family="Helvetica,sans-Serif" font-size="10.00">#</text>
<text text-anchor="start" x="33.25" y="-342.5" font-family="Helvetica,sans-Serif" font-size="10.00">initCallback()</text>
<text text-anchor="start" x="20.31" y="-326.5" font-family="Helvetica,sans-Serif" font-size="10.00">#</text>
<text text-anchor="start" x="33.25" y="-326.5" font-family="Helvetica,sans-Serif" font-size="10.00">updateCallback()</text>
<text text-anchor="start" x="20.31" y="-310.5" font-family="Helvetica,sans-Serif" font-size="10.00">#</text>
<text text-anchor="start" x="33.25" y="-310.5" font-family="Helvetica,sans-Serif" font-size="10.00">closeCallback()</text>
<polygon fill="#666666" stroke="#666666" points="12.62,-450 12.62,-450 118.12,-450 118.12,-450 12.62,-450"/>
<polygon fill="#666666" stroke="#666666" points="12.62,-434 12.62,-434 118.12,-434 118.12,-434 12.62,-434"/>
<polygon fill="none" stroke="#666666" points="12.62,-304 12.62,-480 118.12,-480 118.12,-304 12.62,-304"/>
</a>
</g>
</g>
<!-- Node2&#45;&gt;Node1 -->
<g id="edge1_Node000001_Node000002" class="edge">
<title>Node2&#45;&gt;Node1</title>
<g id="a_edge1_Node000001_Node000002"><a xlink:title=" ">
<path fill="none" stroke="#63b8ff" d="M71.38,-292.72C72.11,-280.68 72.87,-268.25 73.63,-255.87"/>
<polygon fill="none" stroke="#63b8ff" points="67.89,-292.42 70.77,-302.61 74.88,-292.84 67.89,-292.42"/>
</a>
</g>
</g>
<!-- Node3 -->
<g id="Node000003" class="node">
<title>Node3</title>
<g id="a_Node000003"><a xlink:href="../../da/d20/a01160.html" target="_top" xlink:title="Represents the data structure for the Parameters class.">
<polygon fill="white" stroke="none" points="242.12,-480 136.62,-480 136.62,-304 242.12,-304 242.12,-480"/>
<text text-anchor="start" x="140.62" y="-466.5" font-family="Helvetica,sans-Serif" font-size="10.00">Lib::Digi::API::Service</text>
<text text-anchor="start" x="147.75" y="-454.5" font-family="Helvetica,sans-Serif" font-size="10.00">::Parameters::Data</text>
<text text-anchor="start" x="144.5" y="-438.5" font-family="Helvetica,sans-Serif" font-size="10.00">+</text>
<text text-anchor="start" x="158.38" y="-438.5" font-family="Helvetica,sans-Serif" font-size="10.00">panId</text>
<text text-anchor="start" x="144.5" y="-422.5" font-family="Helvetica,sans-Serif" font-size="10.00">+</text>
<text text-anchor="start" x="158.38" y="-422.5" font-family="Helvetica,sans-Serif" font-size="10.00">channel</text>
<text text-anchor="start" x="144.5" y="-406.5" font-family="Helvetica,sans-Serif" font-size="10.00">+</text>
<text text-anchor="start" x="158.38" y="-406.5" font-family="Helvetica,sans-Serif" font-size="10.00">firmwareVersion</text>
<text text-anchor="start" x="144.5" y="-390.5" font-family="Helvetica,sans-Serif" font-size="10.00">+</text>
<text text-anchor="start" x="158.38" y="-390.5" font-family="Helvetica,sans-Serif" font-size="10.00">hardwareVersion</text>
<text text-anchor="start" x="144.5" y="-374.5" font-family="Helvetica,sans-Serif" font-size="10.00">+</text>
<text text-anchor="start" x="158.38" y="-374.5" font-family="Helvetica,sans-Serif" font-size="10.00">ackFailures</text>
<text text-anchor="start" x="144.5" y="-358.5" font-family="Helvetica,sans-Serif" font-size="10.00">+</text>
<text text-anchor="start" x="158.38" y="-358.5" font-family="Helvetica,sans-Serif" font-size="10.00">ccaFailures</text>
<text text-anchor="start" x="144.5" y="-342.5" font-family="Helvetica,sans-Serif" font-size="10.00">+</text>
<text text-anchor="start" x="158.38" y="-342.5" font-family="Helvetica,sans-Serif" font-size="10.00">temperature</text>
<text text-anchor="start" x="144.5" y="-326.5" font-family="Helvetica,sans-Serif" font-size="10.00">+</text>
<text text-anchor="start" x="158.38" y="-326.5" font-family="Helvetica,sans-Serif" font-size="10.00">voltage</text>
<text text-anchor="start" x="187.88" y="-310.5" font-family="Helvetica,sans-Serif" font-size="10.00"> </text>
<polygon fill="#666666" stroke="#666666" points="136.62,-450 136.62,-450 242.12,-450 242.12,-450 136.62,-450"/>
<polygon fill="#666666" stroke="#666666" points="136.62,-322 136.62,-322 156.38,-322 156.38,-322 136.62,-322"/>
<polygon fill="#666666" stroke="#666666" points="156.38,-322 156.38,-322 242.12,-322 242.12,-322 156.38,-322"/>
<polygon fill="none" stroke="#666666" points="136.62,-304 136.62,-480 242.12,-480 242.12,-304 136.62,-304"/>
</a>
</g>
</g>
<!-- Node3&#45;&gt;Node1 -->
<g id="edge2_Node000001_Node000003" class="edge">
<title>Node3&#45;&gt;Node1</title>
<g id="a_edge2_Node000001_Node000003"><a xlink:title=" ">
<path fill="none" stroke="#63b8ff" d="M153.56,-304.12C148.72,-292.38 143.66,-280.11 138.57,-267.74"/>
<polygon fill="none" stroke="#63b8ff" points="138.59,-267.8 132.6,-263.77 134.02,-256.7 140,-260.72 138.59,-267.8"/>
</a>
</g>
<text text-anchor="middle" x="158.92" y="-276.5" font-family="Helvetica,sans-Serif" font-size="10.00" fill="grey"> +data</text>
</g>
<!-- Node4 -->
<g id="Node000004" class="node">
<title>Node4</title>
<g id="a_Node000004"><a xlink:title=" ">
<polygon fill="white" stroke="none" points="146.12,-610 94.62,-610 94.62,-558 146.12,-558 146.12,-610"/>
<text text-anchor="start" x="98.62" y="-596.5" font-family="Helvetica,sans-Serif" font-size="10.00">std::string</text>
<text text-anchor="start" x="118.88" y="-580.5" font-family="Helvetica,sans-Serif" font-size="10.00"> </text>
<text text-anchor="start" x="118.88" y="-564.5" font-family="Helvetica,sans-Serif" font-size="10.00"> </text>
<polygon fill="#666666" stroke="#666666" points="94.62,-592 94.62,-592 146.12,-592 146.12,-592 94.62,-592"/>
<polygon fill="#666666" stroke="#666666" points="94.62,-576 94.62,-576 146.12,-576 146.12,-576 94.62,-576"/>
<polygon fill="none" stroke="#666666" points="94.62,-558 94.62,-610 146.12,-610 146.12,-558 94.62,-558"/>
</a>
</g>
</g>
<!-- Node4&#45;&gt;Node3 -->
<g id="edge3_Node000003_Node000004" class="edge">
<title>Node4&#45;&gt;Node3</title>
<g id="a_edge3_Node000003_Node000004"><a xlink:title=" ">
<path fill="none" stroke="#63b8ff" d="M127.91,-558.31C133.22,-541.27 140.64,-518.15 147.88,-498 148.57,-496.06 149.28,-494.11 150,-492.14"/>
<polygon fill="none" stroke="#63b8ff" points="150.04,-492.02 148.38,-485.01 154.21,-480.77 155.88,-487.79 150.04,-492.02"/>
</a>
</g>
<text text-anchor="middle" x="181.62" y="-500.5" font-family="Helvetica,sans-Serif" font-size="10.00" fill="grey"> +nodeIdentifier</text>
</g>
<!-- Node5 -->
<g id="Node000005" class="node">
<title>Node5</title>
<g id="a_Node000005"><a xlink:title=" ">
<polygon fill="white" stroke="none" points="163.38,-741 77.38,-741 77.38,-677 163.38,-677 163.38,-741"/>
<text text-anchor="start" x="81.38" y="-727.5" font-family="Helvetica,sans-Serif" font-size="10.00">std::basic_string&lt;</text>
<text text-anchor="start" x="103.88" y="-715.5" font-family="Helvetica,sans-Serif" font-size="10.00"> Char &gt;</text>
<text text-anchor="start" x="118.88" y="-699.5" font-family="Helvetica,sans-Serif" font-size="10.00"> </text>
<text text-anchor="start" x="118.88" y="-683.5" font-family="Helvetica,sans-Serif" font-size="10.00"> </text>
<polygon fill="#666666" stroke="#666666" points="77.38,-711 77.38,-711 163.38,-711 163.38,-711 77.38,-711"/>
<polygon fill="#666666" stroke="#666666" points="77.38,-695 77.38,-695 163.38,-695 163.38,-695 77.38,-695"/>
<polygon fill="none" stroke="#666666" points="77.38,-677 77.38,-741 163.38,-741 163.38,-677 77.38,-677"/>
</a>
</g>
</g>
<!-- Node5&#45;&gt;Node4 -->
<g id="edge4_Node000004_Node000005" class="edge">
<title>Node5&#45;&gt;Node4</title>
<g id="a_edge4_Node000004_Node000005"><a xlink:title=" ">
<path fill="none" stroke="#63b8ff" d="M120.38,-665.81C120.38,-647.21 120.38,-625.99 120.38,-609.96"/>
<polygon fill="none" stroke="#63b8ff" points="116.88,-665.77 120.38,-675.77 123.88,-665.77 116.88,-665.77"/>
</a>
</g>
</g>
<!-- Node6 -->
<g id="Node000006" class="node">
<title>Node6</title>
<g id="a_Node000006"><a xlink:href="../../d2/dd2/a01164.html" target="_top" xlink:title="Represents the serial number of the XBee device.">
<polygon fill="white" stroke="none" points="320.62,-640 164.12,-640 164.12,-528 320.62,-528 320.62,-640"/>
<text text-anchor="start" x="168.12" y="-626.5" font-family="Helvetica,sans-Serif" font-size="10.00">Lib::Digi::API::Service</text>
<text text-anchor="start" x="168.12" y="-614.5" font-family="Helvetica,sans-Serif" font-size="10.00">::Parameters::Data::SerialNumber</text>
<text text-anchor="start" x="198.25" y="-598.5" font-family="Helvetica,sans-Serif" font-size="10.00">+</text>
<text text-anchor="start" x="238.38" y="-598.5" font-family="Helvetica,sans-Serif" font-size="10.00">low</text>
<text text-anchor="start" x="198.25" y="-582.5" font-family="Helvetica,sans-Serif" font-size="10.00">+</text>
<text text-anchor="start" x="238.38" y="-582.5" font-family="Helvetica,sans-Serif" font-size="10.00">high</text>
<text text-anchor="start" x="198.25" y="-566.5" font-family="Helvetica,sans-Serif" font-size="10.00">+</text>
<text text-anchor="start" x="238.38" y="-566.5" font-family="Helvetica,sans-Serif" font-size="10.00">u32</text>
<text text-anchor="start" x="198.25" y="-550.5" font-family="Helvetica,sans-Serif" font-size="10.00">+</text>
<text text-anchor="start" x="238.38" y="-550.5" font-family="Helvetica,sans-Serif" font-size="10.00">u64</text>
<text text-anchor="start" x="240.88" y="-534.5" font-family="Helvetica,sans-Serif" font-size="10.00"> </text>
<polygon fill="#666666" stroke="#666666" points="164.12,-610 164.12,-610 320.62,-610 320.62,-610 164.12,-610"/>
<polygon fill="#666666" stroke="#666666" points="164.12,-546 164.12,-546 236.38,-546 236.38,-546 164.12,-546"/>
<polygon fill="#666666" stroke="#666666" points="236.38,-546 236.38,-546 320.62,-546 320.62,-546 236.38,-546"/>
<polygon fill="none" stroke="#666666" points="164.12,-528 164.12,-640 320.62,-640 320.62,-528 164.12,-528"/>
</a>
</g>
</g>
<!-- Node6&#45;&gt;Node3 -->
<g id="edge5_Node000003_Node000006" class="edge">
<title>Node6&#45;&gt;Node3</title>
<g id="a_edge5_Node000003_Node000006"><a xlink:title=" ">
<path fill="none" stroke="#63b8ff" d="M227.05,-528.04C223.88,-516.7 220.46,-504.42 217.01,-492.06"/>
<polygon fill="none" stroke="#63b8ff" points="217.02,-492.12 211.56,-487.41 213.8,-480.56 219.26,-485.26 217.02,-492.12"/>
</a>
</g>
<text text-anchor="middle" x="254" y="-500.5" font-family="Helvetica,sans-Serif" font-size="10.00" fill="grey"> +serialNumber</text>
</g>
</g>
</svg>
