<?xml version="1.0" encoding="UTF-8" standalone="no"?>
<!DOCTYPE svg PUBLIC "-//W3C//DTD SVG 1.1//EN"
 "http://www.w3.org/Graphics/SVG/1.1/DTD/svg11.dtd">
<!-- Generated by graphviz version 13.1.0 (20250701.0955)
 -->
<!-- Title: Lib::BSP::Ethercat::PDI::LAN9252::Interface::Config Pages: 1 -->
<svg width="142pt" height="290pt"
 viewBox="0.00 0.00 142.00 290.00" xmlns="http://www.w3.org/2000/svg" xmlns:xlink="http://www.w3.org/1999/xlink">
<g id="graph0" class="graph" transform="scale(1 1) rotate(0) translate(4 286)">
<title>Lib::BSP::Ethercat::PDI::LAN9252::Interface::Config</title>
<!-- Node1 -->
<g id="Node000001" class="node">
<title>Node1</title>
<g id="a_Node000001"><a xlink:title="Configuration for LAN9252 SPI interface.">
<polygon fill="#999999" stroke="none" points="122,-88 0,-88 0,0 122,0 122,-88"/>
<text xml:space="preserve" text-anchor="start" x="4" y="-74.5" font-family="Helvetica,sans-Serif" font-size="10.00">Lib::BSP::Ethercat</text>
<text xml:space="preserve" text-anchor="start" x="4" y="-62.5" font-family="Helvetica,sans-Serif" font-size="10.00">::PDI::LAN9252::Interface</text>
<text xml:space="preserve" text-anchor="start" x="43.75" y="-50.5" font-family="Helvetica,sans-Serif" font-size="10.00">::Config</text>
<text xml:space="preserve" text-anchor="start" x="6" y="-34.5" font-family="Helvetica,sans-Serif" font-size="10.00">+</text>
<text xml:space="preserve" text-anchor="start" x="18" y="-34.5" font-family="Helvetica,sans-Serif" font-size="10.00">SPI_HandleTypeDef *</text>
<text xml:space="preserve" text-anchor="start" x="18" y="-22.5" font-family="Helvetica,sans-Serif" font-size="10.00"> spiHandle</text>
<text xml:space="preserve" text-anchor="start" x="59.5" y="-6.5" font-family="Helvetica,sans-Serif" font-size="10.00"> </text>
<polygon fill="#666666" stroke="#666666" points="0,-46 0,-46 122,-46 122,-46 0,-46"/>
<polygon fill="#666666" stroke="#666666" points="0,-18 0,-18 16,-18 16,-18 0,-18"/>
<polygon fill="#666666" stroke="#666666" points="16,-18 16,-18 122,-18 122,-18 16,-18"/>
<polygon fill="none" stroke="#666666" points="0,0 0,-88 122,-88 122,0 0,0"/>
</a>
</g>
</g>
<!-- Node2 -->
<g id="Node000002" class="node">
<title>Node2</title>
<g id="a_Node000002"><a xlink:href="../../d3/d9a/class_lib_1_1_h_a_l_1_1_g_p_i_o_1_1_handle.html" target="_top" xlink:title="GPIO pin handle abstraction.">
<polygon fill="white" stroke="none" points="121,-282 1,-282 1,-142 121,-142 121,-282"/>
<text xml:space="preserve" text-anchor="start" x="8.12" y="-268.5" font-family="Helvetica,sans-Serif" font-size="10.00">Lib::HAL::GPIO::Handle</text>
<text xml:space="preserve" text-anchor="start" x="5" y="-252.5" font-family="Helvetica,sans-Serif" font-size="10.00">+</text>
<text xml:space="preserve" text-anchor="start" x="15" y="-252.5" font-family="Helvetica,sans-Serif" font-size="10.00">GPIO_TypeDef * port</text>
<text xml:space="preserve" text-anchor="start" x="5" y="-236.5" font-family="Helvetica,sans-Serif" font-size="10.00">+</text>
<text xml:space="preserve" text-anchor="start" x="15" y="-236.5" font-family="Helvetica,sans-Serif" font-size="10.00">uint16_t number</text>
<text xml:space="preserve" text-anchor="start" x="5" y="-220.5" font-family="Helvetica,sans-Serif" font-size="10.00">+</text>
<text xml:space="preserve" text-anchor="start" x="15" y="-220.5" font-family="Helvetica,sans-Serif" font-size="10.00">Handle()=default</text>
<text xml:space="preserve" text-anchor="start" x="5" y="-204.5" font-family="Helvetica,sans-Serif" font-size="10.00">+</text>
<text xml:space="preserve" text-anchor="start" x="15" y="-204.5" font-family="Helvetica,sans-Serif" font-size="10.00">Handle(GPIO_TypeDef</text>
<text xml:space="preserve" text-anchor="start" x="15" y="-192.5" font-family="Helvetica,sans-Serif" font-size="10.00"> *port, uint16_t number)</text>
<text xml:space="preserve" text-anchor="start" x="5" y="-176.5" font-family="Helvetica,sans-Serif" font-size="10.00">+</text>
<text xml:space="preserve" text-anchor="start" x="15" y="-176.5" font-family="Helvetica,sans-Serif" font-size="10.00">~Handle()=default</text>
<text xml:space="preserve" text-anchor="start" x="5" y="-160.5" font-family="Helvetica,sans-Serif" font-size="10.00">+</text>
<text xml:space="preserve" text-anchor="start" x="15" y="-160.5" font-family="Helvetica,sans-Serif" font-size="10.00">bool operator==(const</text>
<text xml:space="preserve" text-anchor="start" x="15" y="-148.5" font-family="Helvetica,sans-Serif" font-size="10.00"> Handle &amp;ref) const</text>
<polygon fill="#666666" stroke="#666666" points="1,-264 1,-264 121,-264 121,-264 1,-264"/>
<polygon fill="#666666" stroke="#666666" points="1,-232 1,-232 13,-232 13,-232 1,-232"/>
<polygon fill="#666666" stroke="#666666" points="13,-232 13,-232 121,-232 121,-232 13,-232"/>
<polygon fill="none" stroke="#666666" points="1,-142 1,-282 121,-282 121,-142 1,-142"/>
</a>
</g>
</g>
<!-- Node2&#45;&gt;Node1 -->
<g id="edge1_Node000001_Node000002" class="edge">
<title>Node2&#45;&gt;Node1</title>
<g id="a_edge1_Node000001_Node000002"><a xlink:title=" ">
<path fill="none" stroke="#63b8ff" d="M61,-142.04C61,-128.28 61,-113.99 61,-100.74"/>
<polygon fill="none" stroke="#63b8ff" points="61,-100.79 57,-94.79 61,-88.79 65,-94.79 61,-100.79"/>
</a>
</g>
<text xml:space="preserve" text-anchor="start" x="64" y="-111.5" font-family="Helvetica,sans-Serif" font-size="10.00" fill="grey">+nssPinHandle</text>
</g>
</g>
</svg>
