<?xml version="1.0" encoding="UTF-8" standalone="no"?>
<!DOCTYPE svg PUBLIC "-//W3C//DTD SVG 1.1//EN"
 "http://www.w3.org/Graphics/SVG/1.1/DTD/svg11.dtd">
<!-- Generated by graphviz version 13.1.0 (20250701.0955)
 -->
<!-- Title: Lib::Math::HammingCode Pages: 1 -->
<svg width="128pt" height="172pt"
 viewBox="0.00 0.00 128.00 172.00" xmlns="http://www.w3.org/2000/svg" xmlns:xlink="http://www.w3.org/1999/xlink">
<g id="graph0" class="graph" transform="scale(1 1) rotate(0) translate(4 168)">
<title>Lib::Math::HammingCode</title>
<!-- Node1 -->
<g id="Node000001" class="node">
<title>Node1</title>
<g id="a_Node000001"><a xlink:title="Hamming code encoder/decoder for 16&#45;bit values.">
<polygon fill="#999999" stroke="none" points="119.75,-164 0,-164 0,0 119.75,0 119.75,-164"/>
<text xml:space="preserve" text-anchor="start" x="4" y="-150.5" font-family="Helvetica,sans-Serif" font-size="10.00">Lib::Math::HammingCode</text>
<text xml:space="preserve" text-anchor="start" x="9.38" y="-134.5" font-family="Helvetica,sans-Serif" font-size="10.00">+</text>
<text xml:space="preserve" text-anchor="start" x="24.75" y="-134.5" font-family="Helvetica,sans-Serif" font-size="10.00">encodedWord</text>
<text xml:space="preserve" text-anchor="start" x="9.38" y="-118.5" font-family="Helvetica,sans-Serif" font-size="10.00">+</text>
<text xml:space="preserve" text-anchor="start" x="24.75" y="-118.5" font-family="Helvetica,sans-Serif" font-size="10.00">CODE_BITS</text>
<text xml:space="preserve" text-anchor="start" x="9.38" y="-102.5" font-family="Helvetica,sans-Serif" font-size="10.00">+</text>
<text xml:space="preserve" text-anchor="start" x="24.75" y="-102.5" font-family="Helvetica,sans-Serif" font-size="10.00">DATA_BITS</text>
<text xml:space="preserve" text-anchor="start" x="9.38" y="-86.5" font-family="Helvetica,sans-Serif" font-size="10.00">+</text>
<text xml:space="preserve" text-anchor="start" x="24.75" y="-86.5" font-family="Helvetica,sans-Serif" font-size="10.00">PARITY_BITS</text>
<text xml:space="preserve" text-anchor="start" x="9.38" y="-70.5" font-family="Helvetica,sans-Serif" font-size="10.00">+</text>
<text xml:space="preserve" text-anchor="start" x="24.75" y="-70.5" font-family="Helvetica,sans-Serif" font-size="10.00">HammingCode()</text>
<text xml:space="preserve" text-anchor="start" x="9.38" y="-54.5" font-family="Helvetica,sans-Serif" font-size="10.00">+</text>
<text xml:space="preserve" text-anchor="start" x="24.75" y="-54.5" font-family="Helvetica,sans-Serif" font-size="10.00">encode()</text>
<text xml:space="preserve" text-anchor="start" x="9.38" y="-38.5" font-family="Helvetica,sans-Serif" font-size="10.00">+</text>
<text xml:space="preserve" text-anchor="start" x="24.75" y="-38.5" font-family="Helvetica,sans-Serif" font-size="10.00">decode()</text>
<text xml:space="preserve" text-anchor="start" x="9.38" y="-22.5" font-family="Helvetica,sans-Serif" font-size="10.00">+</text>
<text xml:space="preserve" text-anchor="start" x="24.75" y="-22.5" font-family="Helvetica,sans-Serif" font-size="10.00">getEncodedWord()</text>
<text xml:space="preserve" text-anchor="start" x="9.38" y="-6.5" font-family="Helvetica,sans-Serif" font-size="10.00">+</text>
<text xml:space="preserve" text-anchor="start" x="24.75" y="-6.5" font-family="Helvetica,sans-Serif" font-size="10.00">canCorrect()</text>
<polygon fill="#666666" stroke="#666666" points="0,-146 0,-146 119.75,-146 119.75,-146 0,-146"/>
<polygon fill="#666666" stroke="#666666" points="0,-82 0,-82 22.75,-82 22.75,-82 0,-82"/>
<polygon fill="#666666" stroke="#666666" points="22.75,-82 22.75,-82 119.75,-82 119.75,-82 22.75,-82"/>
<polygon fill="none" stroke="#666666" points="0,0 0,-164 119.75,-164 119.75,0 0,0"/>
</a>
</g>
</g>
</g>
</svg>
