<?xml version="1.0" encoding="UTF-8" standalone="no"?>
<!DOCTYPE svg PUBLIC "-//W3C//DTD SVG 1.1//EN"
 "http://www.w3.org/Graphics/SVG/1.1/DTD/svg11.dtd">
<!-- Generated by graphviz version 13.1.0 (20250701.0955)
 -->
<!-- Title: Lib::HAL::LastResetState Pages: 1 -->
<svg width="129pt" height="84pt"
 viewBox="0.00 0.00 129.00 84.00" xmlns="http://www.w3.org/2000/svg" xmlns:xlink="http://www.w3.org/1999/xlink">
<g id="graph0" class="graph" transform="scale(1 1) rotate(0) translate(4 80)">
<title>Lib::HAL::LastResetState</title>
<!-- Node1 -->
<g id="Node000001" class="node">
<title>Node1</title>
<g id="a_Node000001"><a xlink:title="MCU last reset state detector.">
<polygon fill="#999999" stroke="none" points="120.5,-76 0,-76 0,-56 120.5,-56 120.5,-76"/>
<text xml:space="preserve" text-anchor="start" x="4" y="-62.5" font-family="Helvetica,sans-Serif" font-size="10.00">Lib::HAL::LastResetState</text>
<polygon fill="none" stroke="#666666" points="0,-56 0,-76 120.5,-76 120.5,-56 0,-56"/>
</a>
</g>
</g>
<!-- Node2 -->
<g id="Node000002" class="node">
<title>Node2</title>
<g id="a_Node000002"><a xlink:href="../../d8/d62/class_system_1_1_last_reset_state.html" target="_top" xlink:title="Provides access to the last system reset reason.">
<polygon fill="white" stroke="none" points="118.25,-20 2.25,-20 2.25,0 118.25,0 118.25,-20"/>
<text xml:space="preserve" text-anchor="start" x="6.25" y="-6.5" font-family="Helvetica,sans-Serif" font-size="10.00">System::LastResetState</text>
<polygon fill="none" stroke="#666666" points="2.25,0 2.25,-20 118.25,-20 118.25,0 2.25,0"/>
</a>
</g>
</g>
<!-- Node1&#45;&gt;Node2 -->
<g id="edge1_Node000001_Node000002" class="edge">
<title>Node1&#45;&gt;Node2</title>
<g id="a_edge1_Node000001_Node000002"><a xlink:title=" ">
<path fill="none" stroke="#63b8ff" d="M60.25,-44.61C60.25,-36.02 60.25,-26.47 60.25,-19.75"/>
<polygon fill="none" stroke="#63b8ff" points="56.75,-44.57 60.25,-54.57 63.75,-44.57 56.75,-44.57"/>
</a>
</g>
</g>
</g>
</svg>
