<?xml version="1.0" encoding="UTF-8" standalone="no"?>
<!DOCTYPE svg PUBLIC "-//W3C//DTD SVG 1.1//EN"
 "http://www.w3.org/Graphics/SVG/1.1/DTD/svg11.dtd">
<!-- Generated by graphviz version 13.1.0 (20250701.0955)
 -->
<!-- Title: Lib::Math::Pid&lt; T &gt;::State Pages: 1 -->
<svg width="129pt" height="108pt"
 viewBox="0.00 0.00 129.00 108.00" xmlns="http://www.w3.org/2000/svg" xmlns:xlink="http://www.w3.org/1999/xlink">
<g id="graph0" class="graph" transform="scale(1 1) rotate(0) translate(4 104)">
<title>Lib::Math::Pid&lt; T &gt;::State</title>
<!-- Node1 -->
<g id="Node000001" class="node">
<title>Node1</title>
<g id="a_Node000001"><a xlink:title="PID controller state structure.">
<polygon fill="#999999" stroke="none" points="121.25,-100 0,-100 0,0 121.25,0 121.25,-100"/>
<text xml:space="preserve" text-anchor="start" x="4" y="-86.5" font-family="Helvetica,sans-Serif" font-size="10.00">Lib::Math::Pid&lt; T &gt;::State</text>
<text xml:space="preserve" text-anchor="start" x="16.88" y="-70.5" font-family="Helvetica,sans-Serif" font-size="10.00">+</text>
<text xml:space="preserve" text-anchor="start" x="39.75" y="-70.5" font-family="Helvetica,sans-Serif" font-size="10.00">lastInput</text>
<text xml:space="preserve" text-anchor="start" x="16.88" y="-54.5" font-family="Helvetica,sans-Serif" font-size="10.00">+</text>
<text xml:space="preserve" text-anchor="start" x="39.75" y="-54.5" font-family="Helvetica,sans-Serif" font-size="10.00">integralSum</text>
<text xml:space="preserve" text-anchor="start" x="16.88" y="-38.5" font-family="Helvetica,sans-Serif" font-size="10.00">+</text>
<text xml:space="preserve" text-anchor="start" x="39.75" y="-38.5" font-family="Helvetica,sans-Serif" font-size="10.00">lastOutput</text>
<text xml:space="preserve" text-anchor="start" x="16.88" y="-22.5" font-family="Helvetica,sans-Serif" font-size="10.00">+</text>
<text xml:space="preserve" text-anchor="start" x="39.75" y="-22.5" font-family="Helvetica,sans-Serif" font-size="10.00">firstRun</text>
<text xml:space="preserve" text-anchor="start" x="16.88" y="-6.5" font-family="Helvetica,sans-Serif" font-size="10.00">+</text>
<text xml:space="preserve" text-anchor="start" x="39.75" y="-6.5" font-family="Helvetica,sans-Serif" font-size="10.00">State()</text>
<polygon fill="#666666" stroke="#666666" points="0,-82 0,-82 121.25,-82 121.25,-82 0,-82"/>
<polygon fill="#666666" stroke="#666666" points="0,-18 0,-18 37.75,-18 37.75,-18 0,-18"/>
<polygon fill="#666666" stroke="#666666" points="37.75,-18 37.75,-18 121.25,-18 121.25,-18 37.75,-18"/>
<polygon fill="none" stroke="#666666" points="0,0 0,-100 121.25,-100 121.25,0 0,0"/>
</a>
</g>
</g>
</g>
</svg>
