<?xml version="1.0" encoding="UTF-8" standalone="no"?>
<!DOCTYPE svg PUBLIC "-//W3C//DTD SVG 1.1//EN"
 "http://www.w3.org/Graphics/SVG/1.1/DTD/svg11.dtd">
<!-- Generated by graphviz version 13.1.0 (20250701.0955)
 -->
<!-- Title: Lib::HAL::Timer&lt; Mode::ENCODER &gt; Pages: 1 -->
<svg width="184pt" height="292pt"
 viewBox="0.00 0.00 184.00 292.00" xmlns="http://www.w3.org/2000/svg" xmlns:xlink="http://www.w3.org/1999/xlink">
<g id="graph0" class="graph" transform="scale(1 1) rotate(0) translate(4 288)">
<title>Lib::HAL::Timer&lt; Mode::ENCODER &gt;</title>
<!-- Node1 -->
<g id="Node000001" class="node">
<title>Node1</title>
<g id="a_Node000001"><a xlink:title="Timer specialization for encoder mode.">
<polygon fill="#999999" stroke="none" points="176,-196 0,-196 0,0 176,0 176,-196"/>
<text xml:space="preserve" text-anchor="start" x="4" y="-182.5" font-family="Helvetica,sans-Serif" font-size="10.00">Lib::HAL::Timer&lt; Mode::ENCODER &gt;</text>
<text xml:space="preserve" text-anchor="start" x="14.81" y="-166.5" font-family="Helvetica,sans-Serif" font-size="10.00">+</text>
<text xml:space="preserve" text-anchor="start" x="35.62" y="-166.5" font-family="Helvetica,sans-Serif" font-size="10.00">onValueChanged</text>
<text xml:space="preserve" text-anchor="start" x="14.81" y="-150.5" font-family="Helvetica,sans-Serif" font-size="10.00">+</text>
<text xml:space="preserve" text-anchor="start" x="35.62" y="-150.5" font-family="Helvetica,sans-Serif" font-size="10.00">MAX_COUNTER_VALUE</text>
<text xml:space="preserve" text-anchor="start" x="14.81" y="-134.5" font-family="Helvetica,sans-Serif" font-size="10.00">+</text>
<text xml:space="preserve" text-anchor="start" x="35.62" y="-134.5" font-family="Helvetica,sans-Serif" font-size="10.00">Timer()</text>
<text xml:space="preserve" text-anchor="start" x="14.81" y="-118.5" font-family="Helvetica,sans-Serif" font-size="10.00">+</text>
<text xml:space="preserve" text-anchor="start" x="35.62" y="-118.5" font-family="Helvetica,sans-Serif" font-size="10.00">~Timer()</text>
<text xml:space="preserve" text-anchor="start" x="14.81" y="-102.5" font-family="Helvetica,sans-Serif" font-size="10.00">+</text>
<text xml:space="preserve" text-anchor="start" x="35.62" y="-102.5" font-family="Helvetica,sans-Serif" font-size="10.00">open()</text>
<text xml:space="preserve" text-anchor="start" x="14.81" y="-86.5" font-family="Helvetica,sans-Serif" font-size="10.00">+</text>
<text xml:space="preserve" text-anchor="start" x="35.62" y="-86.5" font-family="Helvetica,sans-Serif" font-size="10.00">close()</text>
<text xml:space="preserve" text-anchor="start" x="14.81" y="-70.5" font-family="Helvetica,sans-Serif" font-size="10.00">+</text>
<text xml:space="preserve" text-anchor="start" x="35.62" y="-70.5" font-family="Helvetica,sans-Serif" font-size="10.00">operator=()</text>
<text xml:space="preserve" text-anchor="start" x="14.81" y="-54.5" font-family="Helvetica,sans-Serif" font-size="10.00">+</text>
<text xml:space="preserve" text-anchor="start" x="35.62" y="-54.5" font-family="Helvetica,sans-Serif" font-size="10.00">setHandle()</text>
<text xml:space="preserve" text-anchor="start" x="14.81" y="-38.5" font-family="Helvetica,sans-Serif" font-size="10.00">+</text>
<text xml:space="preserve" text-anchor="start" x="35.62" y="-38.5" font-family="Helvetica,sans-Serif" font-size="10.00">getHandle()</text>
<text xml:space="preserve" text-anchor="start" x="14.81" y="-22.5" font-family="Helvetica,sans-Serif" font-size="10.00">+</text>
<text xml:space="preserve" text-anchor="start" x="35.62" y="-22.5" font-family="Helvetica,sans-Serif" font-size="10.00">getMode()</text>
<text xml:space="preserve" text-anchor="start" x="14.81" y="-6.5" font-family="Helvetica,sans-Serif" font-size="10.00">+</text>
<text xml:space="preserve" text-anchor="start" x="35.62" y="-6.5" font-family="Helvetica,sans-Serif" font-size="10.00">isValid()</text>
<polygon fill="#666666" stroke="#666666" points="0,-178 0,-178 176,-178 176,-178 0,-178"/>
<polygon fill="#666666" stroke="#666666" points="0,-146 0,-146 33.62,-146 33.62,-146 0,-146"/>
<polygon fill="#666666" stroke="#666666" points="33.62,-146 33.62,-146 176,-146 176,-146 33.62,-146"/>
<polygon fill="none" stroke="#666666" points="0,0 0,-196 176,-196 176,0 0,0"/>
</a>
</g>
</g>
<!-- Node2 -->
<g id="Node000002" class="node">
<title>Node2</title>
<g id="a_Node000002"><a xlink:title=" ">
<polygon fill="white" stroke="none" points="103.25,-284 72.75,-284 72.75,-232 103.25,-232 103.25,-284"/>
<text xml:space="preserve" text-anchor="start" x="76.75" y="-270.5" font-family="Helvetica,sans-Serif" font-size="10.00">Base</text>
<text xml:space="preserve" text-anchor="start" x="86.5" y="-254.5" font-family="Helvetica,sans-Serif" font-size="10.00"> </text>
<text xml:space="preserve" text-anchor="start" x="86.5" y="-238.5" font-family="Helvetica,sans-Serif" font-size="10.00"> </text>
<polygon fill="#bfbfbf" stroke="#bfbfbf" points="72.75,-266 72.75,-266 103.25,-266 103.25,-266 72.75,-266"/>
<polygon fill="#bfbfbf" stroke="#bfbfbf" points="72.75,-250 72.75,-250 103.25,-250 103.25,-250 72.75,-250"/>
<polygon fill="none" stroke="#bfbfbf" points="72.75,-232 72.75,-284 103.25,-284 103.25,-232 72.75,-232"/>
</a>
</g>
</g>
<!-- Node2&#45;&gt;Node1 -->
<g id="edge1_Node000001_Node000002" class="edge">
<title>Node2&#45;&gt;Node1</title>
<g id="a_edge1_Node000001_Node000002"><a xlink:title=" ">
<path fill="none" stroke="#63b8ff" d="M88,-220.88C88,-213.15 88,-204.63 88,-195.8"/>
<polygon fill="none" stroke="#63b8ff" points="84.5,-220.8 88,-230.8 91.5,-220.8 84.5,-220.8"/>
</a>
</g>
</g>
</g>
</svg>
