<?xml version="1.0" encoding="UTF-8" standalone="no"?>
<!DOCTYPE svg PUBLIC "-//W3C//DTD SVG 1.1//EN"
 "http://www.w3.org/Graphics/SVG/1.1/DTD/svg11.dtd">
<!-- Generated by graphviz version 13.1.0 (20250701.0955)
 -->
<!-- Title: Connection.hpp Pages: 1 -->
<svg width="219pt" height="252pt"
 viewBox="0.00 0.00 219.00 252.00" xmlns="http://www.w3.org/2000/svg" xmlns:xlink="http://www.w3.org/1999/xlink">
<g id="graph0" class="graph" transform="scale(1 1) rotate(0) translate(4 248)">
<title>Connection.hpp</title>
<!-- Node1 -->
<g id="Node000001" class="node">
<title>Node1</title>
<g id="a_Node000001"><a xlink:title="Connection management for Xbee API client applications.">
<polygon fill="#999999" stroke="#666666" points="146.5,-244 62.25,-244 62.25,-224 146.5,-224 146.5,-244"/>
<text xml:space="preserve" text-anchor="middle" x="104.38" y="-230.5" font-family="Helvetica,sans-Serif" font-size="10.00">Connection.hpp</text>
</a>
</g>
</g>
<!-- Node2 -->
<g id="Node000002" class="node">
<title>Node2</title>
<g id="a_Node000002"><a xlink:href="../../dc/dae/a00563.html" target="_top" xlink:title="Base class for Xbee API applications (U146&#45;Firmware).">
<polygon fill="white" stroke="#666666" points="211,-76 105.75,-76 105.75,-56 211,-56 211,-76"/>
<text xml:space="preserve" text-anchor="middle" x="158.38" y="-62.5" font-family="Helvetica,sans-Serif" font-size="10.00">ApplicationBase.hpp</text>
</a>
</g>
</g>
<!-- Node1&#45;&gt;Node2 -->
<g id="edge1_Node000001_Node000002" class="edge">
<title>Node1&#45;&gt;Node2</title>
<g id="a_edge1_Node000001_Node000002"><a xlink:title=" ">
<path fill="none" stroke="#63b8ff" d="M153.01,-219.36C168.3,-212.53 183.5,-202.51 192.38,-188 215.15,-150.77 181.59,-97.86 165.81,-76.49"/>
<polygon fill="#63b8ff" stroke="#63b8ff" points="151.86,-216.05 143.89,-223.03 154.47,-222.54 151.86,-216.05"/>
</a>
</g>
</g>
<!-- Node3 -->
<g id="Node000003" class="node">
<title>Node3</title>
<g id="a_Node000003"><a xlink:href="../../d7/d54/a02342.html" target="_top" xlink:title="Base class for Xbee API client applications.">
<polygon fill="white" stroke="#666666" points="82.75,-20 0,-20 0,0 82.75,0 82.75,-20"/>
<text xml:space="preserve" text-anchor="middle" x="41.38" y="-6.5" font-family="Helvetica,sans-Serif" font-size="10.00">ClientBase.hpp</text>
</a>
</g>
</g>
<!-- Node1&#45;&gt;Node3 -->
<g id="edge6_Node000001_Node000003" class="edge">
<title>Node1&#45;&gt;Node3</title>
<g id="a_edge6_Node000001_Node000003"><a xlink:title=" ">
<path fill="none" stroke="#63b8ff" d="M86.05,-215.53C67.9,-196.85 41.29,-165.38 30.38,-132 17.32,-92.1 31.21,-41.12 38.04,-20.39"/>
<polygon fill="#63b8ff" stroke="#63b8ff" points="83.55,-217.98 93.1,-222.56 88.49,-213.02 83.55,-217.98"/>
</a>
</g>
</g>
<!-- Node5 -->
<g id="Node000005" class="node">
<title>Node5</title>
<g id="a_Node000005"><a xlink:href="../../d9/d42/a00575.html" target="_top" xlink:title="Channel scanning service for XBee API.">
<polygon fill="white" stroke="#666666" points="145.75,-132 39,-132 39,-112 145.75,-112 145.75,-132"/>
<text xml:space="preserve" text-anchor="middle" x="92.38" y="-118.5" font-family="Helvetica,sans-Serif" font-size="10.00">ChannelScanner.hpp</text>
</a>
</g>
</g>
<!-- Node1&#45;&gt;Node5 -->
<g id="edge4_Node000001_Node000005" class="edge">
<title>Node1&#45;&gt;Node5</title>
<g id="a_edge4_Node000001_Node000005"><a xlink:title=" ">
<path fill="none" stroke="#63b8ff" d="M96.11,-212.82C93.39,-205.18 90.73,-196.32 89.38,-188 86.19,-168.37 88.8,-145.01 90.75,-132.33"/>
<polygon fill="#63b8ff" stroke="#63b8ff" points="92.84,-214.08 99.7,-222.16 99.38,-211.57 92.84,-214.08"/>
</a>
</g>
</g>
<!-- Node6 -->
<g id="Node000006" class="node">
<title>Node6</title>
<g id="a_Node000006"><a xlink:href="../../d1/ded/a02471.html" target="_top" xlink:title="Module Parameters Service for Xbee API.">
<polygon fill="white" stroke="#666666" points="182.88,-188 97.88,-188 97.88,-168 182.88,-168 182.88,-188"/>
<text xml:space="preserve" text-anchor="middle" x="140.38" y="-174.5" font-family="Helvetica,sans-Serif" font-size="10.00">Parameters.hpp</text>
</a>
</g>
</g>
<!-- Node1&#45;&gt;Node6 -->
<g id="edge7_Node000001_Node000006" class="edge">
<title>Node1&#45;&gt;Node6</title>
<g id="a_edge7_Node000001_Node000006"><a xlink:title=" ">
<path fill="none" stroke="#63b8ff" d="M116.94,-214.15C122.77,-205.4 129.45,-195.39 134.18,-188.3"/>
<polygon fill="#63b8ff" stroke="#63b8ff" points="114.12,-212.07 111.49,-222.33 119.94,-215.96 114.12,-212.07"/>
</a>
</g>
</g>
<!-- Node2&#45;&gt;Node3 -->
<g id="edge2_Node000002_Node000003" class="edge">
<title>Node2&#45;&gt;Node3</title>
<g id="a_edge2_Node000002_Node000003"><a xlink:title=" ">
<path fill="none" stroke="#63b8ff" d="M127.78,-50.88C107.02,-41.3 80.14,-28.89 61.91,-20.48"/>
<polygon fill="#63b8ff" stroke="#63b8ff" points="126.07,-53.95 136.62,-54.96 129.01,-47.59 126.07,-53.95"/>
</a>
</g>
</g>
<!-- Node4 -->
<g id="Node000004" class="node">
<title>Node4</title>
<g id="a_Node000004"><a xlink:href="../../d8/d26/a02357.html" target="_top" xlink:title="Xbee Server Base class for server&#45;side communication.">
<polygon fill="white" stroke="#666666" points="201.25,-20 115.5,-20 115.5,0 201.25,0 201.25,-20"/>
<text xml:space="preserve" text-anchor="middle" x="158.38" y="-6.5" font-family="Helvetica,sans-Serif" font-size="10.00">ServerBase.hpp</text>
</a>
</g>
</g>
<!-- Node2&#45;&gt;Node4 -->
<g id="edge3_Node000002_Node000004" class="edge">
<title>Node2&#45;&gt;Node4</title>
<g id="a_edge3_Node000002_Node000004"><a xlink:title=" ">
<path fill="none" stroke="#63b8ff" d="M158.38,-44.13C158.38,-35.9 158.38,-26.85 158.38,-20.3"/>
<polygon fill="#63b8ff" stroke="#63b8ff" points="154.88,-44.08 158.38,-54.08 161.88,-44.08 154.88,-44.08"/>
</a>
</g>
</g>
<!-- Node5&#45;&gt;Node2 -->
<g id="edge5_Node000005_Node000002" class="edge">
<title>Node5&#45;&gt;Node2</title>
<g id="a_edge5_Node000005_Node000002"><a xlink:title=" ">
<path fill="none" stroke="#63b8ff" d="M112.66,-104.4C123.95,-95.17 137.59,-84.01 147.01,-76.3"/>
<polygon fill="#63b8ff" stroke="#63b8ff" points="110.57,-101.59 105.04,-110.64 115,-107.01 110.57,-101.59"/>
</a>
</g>
</g>
<!-- Node6&#45;&gt;Node2 -->
<g id="edge8_Node000006_Node000002" class="edge">
<title>Node6&#45;&gt;Node2</title>
<g id="a_edge8_Node000006_Node000002"><a xlink:title=" ">
<path fill="none" stroke="#63b8ff" d="M147.82,-156.73C150.32,-149.08 152.86,-140.24 154.38,-132 157.97,-112.43 158.51,-89.05 158.5,-76.34"/>
<polygon fill="#63b8ff" stroke="#63b8ff" points="144.54,-155.49 144.56,-166.08 151.15,-157.79 144.54,-155.49"/>
</a>
</g>
</g>
<!-- Node6&#45;&gt;Node5 -->
<g id="edge9_Node000006_Node000005" class="edge">
<title>Node6&#45;&gt;Node5</title>
<g id="a_edge9_Node000006_Node000005"><a xlink:title=" ">
<path fill="none" stroke="#63b8ff" d="M124.38,-159C116.43,-150.06 107.15,-139.62 100.64,-132.3"/>
<polygon fill="#63b8ff" stroke="#63b8ff" points="121.75,-161.31 131.01,-166.46 126.98,-156.66 121.75,-161.31"/>
</a>
</g>
</g>
</g>
</svg>
