<?xml version="1.0" encoding="UTF-8" standalone="no"?>
<!DOCTYPE svg PUBLIC "-//W3C//DTD SVG 1.1//EN"
 "http://www.w3.org/Graphics/SVG/1.1/DTD/svg11.dtd">
<!-- Generated by graphviz version 13.1.0 (20250701.0955)
 -->
<!-- Title: Lib::HAL::BKPSRAM::Driver::close Pages: 1 -->
<svg width="427pt" height="90pt"
 viewBox="0.00 0.00 427.00 90.00" xmlns="http://www.w3.org/2000/svg" xmlns:xlink="http://www.w3.org/1999/xlink">
<g id="graph0" class="graph" transform="scale(1 1) rotate(0) translate(4 86)">
<title>Lib::HAL::BKPSRAM::Driver::close</title>
<!-- Node1 -->
<g id="Node000001" class="node">
<title>Node1</title>
<g id="a_Node000001"><a xlink:title="Disables the Backup RAM domain, restricting access to backup memory.">
<polygon fill="#999999" stroke="#666666" points="115.75,-57 0,-57 0,-25 115.75,-25 115.75,-57"/>
<text xml:space="preserve" text-anchor="start" x="8" y="-43.5" font-family="Helvetica,sans-Serif" font-size="10.00">Lib::HAL::BKPSRAM::</text>
<text xml:space="preserve" text-anchor="middle" x="57.88" y="-31.5" font-family="Helvetica,sans-Serif" font-size="10.00">Driver::close</text>
</a>
</g>
</g>
<!-- Node2 -->
<g id="Node000002" class="node">
<title>Node2</title>
<g id="a_Node000002"><a xlink:href="../../d0/d05/a01420.html#a21d7b8822cd6b84265f9b0acea31a271" target="_top" xlink:title="Disables backup RAM and access to backup registers.">
<polygon fill="white" stroke="#666666" points="267.5,-82 151.75,-82 151.75,-50 267.5,-50 267.5,-82"/>
<text xml:space="preserve" text-anchor="start" x="159.75" y="-68.5" font-family="Helvetica,sans-Serif" font-size="10.00">Lib::HAL::BKPSRAM::</text>
<text xml:space="preserve" text-anchor="middle" x="209.62" y="-56.5" font-family="Helvetica,sans-Serif" font-size="10.00">Domain::disable</text>
</a>
</g>
</g>
<!-- Node1&#45;&gt;Node2 -->
<g id="edge1_Node000001_Node000002" class="edge">
<title>Node1&#45;&gt;Node2</title>
<g id="a_edge1_Node000001_Node000002"><a xlink:title=" ">
<path fill="none" stroke="#63b8ff" d="M115.92,-50.52C123.99,-51.87 132.35,-53.27 140.6,-54.64"/>
<polygon fill="#63b8ff" stroke="#63b8ff" points="139.81,-58.06 150.25,-56.25 140.96,-51.16 139.81,-58.06"/>
</a>
</g>
</g>
<!-- Node4 -->
<g id="Node000004" class="node">
<title>Node4</title>
<g id="a_Node000004"><a xlink:href="../../d0/d05/a01420.html#a4ea9329ae837f9f44c2d667543978f7c" target="_top" xlink:title="Gets the singleton instance of Domain.">
<polygon fill="white" stroke="#666666" points="267.5,-32 151.75,-32 151.75,0 267.5,0 267.5,-32"/>
<text xml:space="preserve" text-anchor="start" x="159.75" y="-18.5" font-family="Helvetica,sans-Serif" font-size="10.00">Lib::HAL::BKPSRAM::</text>
<text xml:space="preserve" text-anchor="middle" x="209.62" y="-6.5" font-family="Helvetica,sans-Serif" font-size="10.00">Domain::getInstance</text>
</a>
</g>
</g>
<!-- Node1&#45;&gt;Node4 -->
<g id="edge3_Node000001_Node000004" class="edge">
<title>Node1&#45;&gt;Node4</title>
<g id="a_edge3_Node000001_Node000004"><a xlink:title=" ">
<path fill="none" stroke="#63b8ff" d="M115.92,-31.48C123.99,-30.13 132.35,-28.73 140.6,-27.36"/>
<polygon fill="#63b8ff" stroke="#63b8ff" points="140.96,-30.84 150.25,-25.75 139.81,-23.94 140.96,-30.84"/>
</a>
</g>
</g>
<!-- Node3 -->
<g id="Node000003" class="node">
<title>Node3</title>
<g id="a_Node000003"><a xlink:href="../../d0/d05/a01420.html#adfbefbbbe48edf627f16169eb9c7698c" target="_top" xlink:title="Checks if the backup domain is enabled.">
<polygon fill="white" stroke="#666666" points="419.25,-82 303.5,-82 303.5,-50 419.25,-50 419.25,-82"/>
<text xml:space="preserve" text-anchor="start" x="311.5" y="-68.5" font-family="Helvetica,sans-Serif" font-size="10.00">Lib::HAL::BKPSRAM::</text>
<text xml:space="preserve" text-anchor="middle" x="361.38" y="-56.5" font-family="Helvetica,sans-Serif" font-size="10.00">Domain::isEnable</text>
</a>
</g>
</g>
<!-- Node2&#45;&gt;Node3 -->
<g id="edge2_Node000002_Node000003" class="edge">
<title>Node2&#45;&gt;Node3</title>
<g id="a_edge2_Node000002_Node000003"><a xlink:title=" ">
<path fill="none" stroke="#63b8ff" d="M267.67,-66C275.64,-66 283.91,-66 292.07,-66"/>
<polygon fill="#63b8ff" stroke="#63b8ff" points="291.98,-69.5 301.98,-66 291.98,-62.5 291.98,-69.5"/>
</a>
</g>
</g>
</g>
</svg>
