<?xml version="1.0" encoding="UTF-8" standalone="no"?>
<!DOCTYPE svg PUBLIC "-//W3C//DTD SVG 1.1//EN"
 "http://www.w3.org/Graphics/SVG/1.1/DTD/svg11.dtd">
<!-- Generated by graphviz version 13.1.0 (20250701.0955)
 -->
<!-- Title: RTOS::delay Pages: 1 -->
<svg width="380pt" height="78pt"
 viewBox="0.00 0.00 380.00 78.00" xmlns="http://www.w3.org/2000/svg" xmlns:xlink="http://www.w3.org/1999/xlink">
<g id="graph0" class="graph" transform="scale(1 1) rotate(0) translate(4 74)">
<title>RTOS::delay</title>
<!-- Node1 -->
<g id="Node000001" class="node">
<title>Node1</title>
<g id="a_Node000001"><a xlink:title="Delay for a specified number of milliseconds.">
<polygon fill="#999999" stroke="#666666" points="72.25,-48 0,-48 0,-28 72.25,-28 72.25,-48"/>
<text xml:space="preserve" text-anchor="middle" x="36.12" y="-34.5" font-family="Helvetica,sans-Serif" font-size="10.00">RTOS::delay</text>
</a>
</g>
</g>
<!-- Node2 -->
<g id="Node000002" class="node">
<title>Node2</title>
<g id="a_Node000002"><a xlink:href="../../d0/d5e/a00136.html#ae3ea57199fa9aa21eb52b7af62f7e121" target="_top" xlink:title="Delay current task for specified milliseconds.">
<polygon fill="white" stroke="#666666" points="227.75,-48 108.25,-48 108.25,-28 227.75,-28 227.75,-48"/>
<text xml:space="preserve" text-anchor="middle" x="168" y="-34.5" font-family="Helvetica,sans-Serif" font-size="10.00">RTOS::Kernel::delayMs</text>
</a>
</g>
</g>
<!-- Node1&#45;&gt;Node2 -->
<g id="edge1_Node000001_Node000002" class="edge">
<title>Node1&#45;&gt;Node2</title>
<g id="a_edge1_Node000001_Node000002"><a xlink:title=" ">
<path fill="none" stroke="#63b8ff" d="M72.61,-38C80.15,-38 88.36,-38 96.69,-38"/>
<polygon fill="#63b8ff" stroke="#63b8ff" points="96.56,-41.5 106.56,-38 96.56,-34.5 96.56,-41.5"/>
</a>
</g>
</g>
<!-- Node3 -->
<g id="Node000003" class="node">
<title>Node3</title>
<g id="a_Node000003"><a xlink:href="../../d0/d5e/a00136.html#ac3f87382b3db41f47ca618c70803c758" target="_top" xlink:title="Delay current task for specified ticks.">
<polygon fill="white" stroke="#666666" points="370.88,-70 264.88,-70 264.88,-50 370.88,-50 370.88,-70"/>
<text xml:space="preserve" text-anchor="middle" x="317.88" y="-56.5" font-family="Helvetica,sans-Serif" font-size="10.00">RTOS::Kernel::delay</text>
</a>
</g>
</g>
<!-- Node2&#45;&gt;Node3 -->
<g id="edge2_Node000002_Node000003" class="edge">
<title>Node2&#45;&gt;Node3</title>
<g id="a_edge2_Node000002_Node000003"><a xlink:title=" ">
<path fill="none" stroke="#63b8ff" d="M227.87,-46.76C236.17,-47.99 244.75,-49.27 253.14,-50.52"/>
<polygon fill="#63b8ff" stroke="#63b8ff" points="252.53,-53.96 262.93,-51.97 253.56,-47.04 252.53,-53.96"/>
</a>
</g>
</g>
<!-- Node4 -->
<g id="Node000004" class="node">
<title>Node4</title>
<g id="a_Node000004"><a xlink:href="../../d1/d72/a00204.html#ac0cef5f74597d9fd2e71b9eed937365d" target="_top" xlink:title="Converts milliseconds to FreeRTOS ticks.">
<polygon fill="white" stroke="#666666" points="372,-32 263.75,-32 263.75,0 372,0 372,-32"/>
<text xml:space="preserve" text-anchor="start" x="271.75" y="-18.5" font-family="Helvetica,sans-Serif" font-size="10.00">RTOS::TickCounter::</text>
<text xml:space="preserve" text-anchor="middle" x="317.88" y="-6.5" font-family="Helvetica,sans-Serif" font-size="10.00">msToTicks</text>
</a>
</g>
</g>
<!-- Node2&#45;&gt;Node4 -->
<g id="edge3_Node000002_Node000004" class="edge">
<title>Node2&#45;&gt;Node4</title>
<g id="a_edge3_Node000002_Node000004"><a xlink:title=" ">
<path fill="none" stroke="#63b8ff" d="M227.87,-29.24C235.86,-28.05 244.1,-26.83 252.19,-25.62"/>
<polygon fill="#63b8ff" stroke="#63b8ff" points="252.61,-29.1 261.98,-24.17 251.58,-22.18 252.61,-29.1"/>
</a>
</g>
</g>
</g>
</svg>
