<?xml version="1.0" encoding="UTF-8" standalone="no"?>
<!DOCTYPE svg PUBLIC "-//W3C//DTD SVG 1.1//EN"
 "http://www.w3.org/Graphics/SVG/1.1/DTD/svg11.dtd">
<!-- Generated by graphviz version 12.2.1 (20241206.2353)
 -->
<!-- Title: Domain.hpp Pages: 1 -->
<svg width="176pt" height="140pt"
 viewBox="0.00 0.00 175.88 140.00" xmlns="http://www.w3.org/2000/svg" xmlns:xlink="http://www.w3.org/1999/xlink">
<g id="graph0" class="graph" transform="scale(1 1) rotate(0) translate(4 136)">
<title>Domain.hpp</title>
<!-- Node1 -->
<g id="Node000001" class="node">
<title>Node1</title>
<g id="a_Node000001"><a xlink:title="Manages the Backup SRAM power domain.">
<polygon fill="#999999" stroke="#666666" points="122.38,-132 53.88,-132 53.88,-112 122.38,-112 122.38,-132"/>
<text text-anchor="middle" x="88.12" y="-118.5" font-family="Helvetica,sans-Serif" font-size="10.00">Domain.hpp</text>
</a>
</g>
</g>
<!-- Node2 -->
<g id="Node000002" class="node">
<title>Node2</title>
<g id="a_Node000002"><a xlink:href="../../d0/d89/a00071.html" target="_top" xlink:title="Backup SRAM management interface.">
<polygon fill="white" stroke="#666666" points="84.25,-76 0,-76 0,-56 84.25,-56 84.25,-76"/>
<text text-anchor="middle" x="42.12" y="-62.5" font-family="Helvetica,sans-Serif" font-size="10.00">BKPSRAM.hpp</text>
</a>
</g>
</g>
<!-- Node1&#45;&gt;Node2 -->
<g id="edge1_Node000001_Node000002" class="edge">
<title>Node1&#45;&gt;Node2</title>
<g id="a_edge1_Node000001_Node000002"><a xlink:title=" ">
<path fill="none" stroke="#63b8ff" d="M72.79,-103C65.17,-94.06 56.29,-83.62 50.05,-76.3"/>
<polygon fill="#63b8ff" stroke="#63b8ff" points="69.98,-105.1 79.13,-110.44 75.31,-100.56 69.98,-105.1"/>
</a>
</g>
</g>
<!-- Node3 -->
<g id="Node000003" class="node">
<title>Node3</title>
<g id="a_Node000003"><a xlink:href="../../d7/d9a/a00152.html" target="_top" xlink:title="RTC Device class for managing RTC operations.">
<polygon fill="white" stroke="#666666" points="167.88,-76 102.38,-76 102.38,-56 167.88,-56 167.88,-76"/>
<text text-anchor="middle" x="135.12" y="-62.5" font-family="Helvetica,sans-Serif" font-size="10.00">Device.hpp</text>
</a>
</g>
</g>
<!-- Node1&#45;&gt;Node3 -->
<g id="edge2_Node000001_Node000003" class="edge">
<title>Node1&#45;&gt;Node3</title>
<g id="a_edge2_Node000001_Node000003"><a xlink:title=" ">
<path fill="none" stroke="#63b8ff" d="M103.79,-103C111.57,-94.06 120.66,-83.62 127.03,-76.3"/>
<polygon fill="#63b8ff" stroke="#63b8ff" points="101.23,-100.61 97.31,-110.45 106.51,-105.21 101.23,-100.61"/>
</a>
</g>
</g>
<!-- Node4 -->
<g id="Node000004" class="node">
<title>Node4</title>
<g id="a_Node000004"><a xlink:href="../../d5/de9/a00176.html" target="_top" xlink:title="Provides the RTCBase class for managing RTC operations.">
<polygon fill="white" stroke="#666666" points="162.62,-20 107.62,-20 107.62,0 162.62,0 162.62,-20"/>
<text text-anchor="middle" x="135.12" y="-6.5" font-family="Helvetica,sans-Serif" font-size="10.00">RTC.hpp</text>
</a>
</g>
</g>
<!-- Node3&#45;&gt;Node4 -->
<g id="edge3_Node000003_Node000004" class="edge">
<title>Node3&#45;&gt;Node4</title>
<g id="a_edge3_Node000003_Node000004"><a xlink:title=" ">
<path fill="none" stroke="#63b8ff" d="M135.12,-44.13C135.12,-35.9 135.12,-26.85 135.12,-20.3"/>
<polygon fill="#63b8ff" stroke="#63b8ff" points="131.63,-44.08 135.13,-54.08 138.63,-44.08 131.63,-44.08"/>
</a>
</g>
</g>
</g>
</svg>
