<?xml version="1.0" encoding="UTF-8" standalone="no"?>
<!DOCTYPE svg PUBLIC "-//W3C//DTD SVG 1.1//EN"
 "http://www.w3.org/Graphics/SVG/1.1/DTD/svg11.dtd">
<!-- Generated by graphviz version 13.1.0 (20250701.0955)
 -->
<!-- Title: Lib::Xbee::API::Service::Manager Pages: 1 -->
<svg width="114pt" height="464pt"
 viewBox="0.00 0.00 114.00 464.00" xmlns="http://www.w3.org/2000/svg" xmlns:xlink="http://www.w3.org/1999/xlink">
<g id="graph0" class="graph" transform="scale(1 1) rotate(0) translate(4 460)">
<title>Lib::Xbee::API::Service::Manager</title>
<!-- Node1 -->
<g id="Node000001" class="node">
<title>Node1</title>
<g id="a_Node000001"><a xlink:title="Singleton manager for Xbee API services.">
<polygon fill="#999999" stroke="none" points="103.25,-159.5 2.25,-159.5 2.25,0 103.25,0 103.25,-159.5"/>
<text xml:space="preserve" text-anchor="start" x="6.25" y="-146.95" font-family="Arial" font-size="9.00">Lib::Xbee::API::Service</text>
<text xml:space="preserve" text-anchor="start" x="32.12" y="-136.45" font-family="Arial" font-size="9.00">::Manager</text>
<text xml:space="preserve" text-anchor="start" x="51.62" y="-121.95" font-family="Arial" font-size="9.00"> </text>
<text xml:space="preserve" text-anchor="start" x="17.06" y="-107.45" font-family="Arial" font-size="9.00">+</text>
<text xml:space="preserve" text-anchor="start" x="37.12" y="-107.45" font-family="Arial" font-size="9.00">add()</text>
<text xml:space="preserve" text-anchor="start" x="17.06" y="-92.95" font-family="Arial" font-size="9.00">+</text>
<text xml:space="preserve" text-anchor="start" x="37.12" y="-92.95" font-family="Arial" font-size="9.00">remove()</text>
<text xml:space="preserve" text-anchor="start" x="17.06" y="-78.45" font-family="Arial" font-size="9.00">+</text>
<text xml:space="preserve" text-anchor="start" x="37.12" y="-78.45" font-family="Arial" font-size="9.00">update()</text>
<text xml:space="preserve" text-anchor="start" x="17.06" y="-63.95" font-family="Arial" font-size="9.00">+</text>
<text xml:space="preserve" text-anchor="start" x="37.12" y="-63.95" font-family="Arial" font-size="9.00">add()</text>
<text xml:space="preserve" text-anchor="start" x="17.06" y="-49.45" font-family="Arial" font-size="9.00">+</text>
<text xml:space="preserve" text-anchor="start" x="37.12" y="-49.45" font-family="Arial" font-size="9.00">remove()</text>
<text xml:space="preserve" text-anchor="start" x="17.06" y="-34.95" font-family="Arial" font-size="9.00">+</text>
<text xml:space="preserve" text-anchor="start" x="37.12" y="-34.95" font-family="Arial" font-size="9.00">update()</text>
<text xml:space="preserve" text-anchor="start" x="17.06" y="-20.45" font-family="Arial" font-size="9.00">+</text>
<text xml:space="preserve" text-anchor="start" x="37.12" y="-20.45" font-family="Arial" font-size="9.00">instance()</text>
<text xml:space="preserve" text-anchor="start" x="17.06" y="-5.95" font-family="Arial" font-size="9.00">+</text>
<text xml:space="preserve" text-anchor="start" x="37.12" y="-5.95" font-family="Arial" font-size="9.00">instance()</text>
<polygon fill="#666666" stroke="#666666" points="2.25,-132.5 2.25,-132.5 103.25,-132.5 103.25,-132.5 2.25,-132.5"/>
<polygon fill="#666666" stroke="#666666" points="2.25,-118 2.25,-118 103.25,-118 103.25,-118 2.25,-118"/>
<polygon fill="none" stroke="#666666" points="2.25,0 2.25,-159.5 103.25,-159.5 103.25,0 2.25,0"/>
</a>
</g>
</g>
<!-- Node2 -->
<g id="Node000002" class="node">
<title>Node2</title>
<g id="a_Node000002"><a xlink:href="../../d9/d33/class_lib_1_1_helper_1_1_container.html" target="_top" xlink:title=" ">
<polygon fill="white" stroke="none" points="101.75,-356 3.75,-356 3.75,-196.5 101.75,-196.5 101.75,-356"/>
<text xml:space="preserve" text-anchor="start" x="7.75" y="-343.45" font-family="Arial" font-size="9.00">Lib::Helper::Container</text>
<text xml:space="preserve" text-anchor="start" x="19.38" y="-332.95" font-family="Arial" font-size="9.00">&lt; ServiceBase &gt;</text>
<text xml:space="preserve" text-anchor="start" x="51.62" y="-318.45" font-family="Arial" font-size="9.00"> </text>
<text xml:space="preserve" text-anchor="start" x="15" y="-303.95" font-family="Arial" font-size="9.00">+</text>
<text xml:space="preserve" text-anchor="start" x="31.5" y="-303.95" font-family="Arial" font-size="9.00">Container()</text>
<text xml:space="preserve" text-anchor="start" x="15" y="-289.45" font-family="Arial" font-size="9.00">+</text>
<text xml:space="preserve" text-anchor="start" x="31.5" y="-289.45" font-family="Arial" font-size="9.00">~Container()</text>
<text xml:space="preserve" text-anchor="start" x="15" y="-274.95" font-family="Arial" font-size="9.00">+</text>
<text xml:space="preserve" text-anchor="start" x="31.5" y="-274.95" font-family="Arial" font-size="9.00">add()</text>
<text xml:space="preserve" text-anchor="start" x="15" y="-260.45" font-family="Arial" font-size="9.00">+</text>
<text xml:space="preserve" text-anchor="start" x="31.5" y="-260.45" font-family="Arial" font-size="9.00">remove()</text>
<text xml:space="preserve" text-anchor="start" x="15" y="-245.95" font-family="Arial" font-size="9.00">+</text>
<text xml:space="preserve" text-anchor="start" x="31.5" y="-245.95" font-family="Arial" font-size="9.00">erase()</text>
<text xml:space="preserve" text-anchor="start" x="15" y="-231.45" font-family="Arial" font-size="9.00">+</text>
<text xml:space="preserve" text-anchor="start" x="31.5" y="-231.45" font-family="Arial" font-size="9.00">process()</text>
<text xml:space="preserve" text-anchor="start" x="15" y="-216.95" font-family="Arial" font-size="9.00">+</text>
<text xml:space="preserve" text-anchor="start" x="31.5" y="-216.95" font-family="Arial" font-size="9.00">getSize()</text>
<text xml:space="preserve" text-anchor="start" x="15" y="-202.45" font-family="Arial" font-size="9.00">+</text>
<text xml:space="preserve" text-anchor="start" x="31.5" y="-202.45" font-family="Arial" font-size="9.00">vector()</text>
<polygon fill="#666666" stroke="#666666" points="3.75,-329 3.75,-329 101.75,-329 101.75,-329 3.75,-329"/>
<polygon fill="#666666" stroke="#666666" points="3.75,-314.5 3.75,-314.5 101.75,-314.5 101.75,-314.5 3.75,-314.5"/>
<polygon fill="none" stroke="#666666" points="3.75,-196.5 3.75,-356 101.75,-356 101.75,-196.5 3.75,-196.5"/>
</a>
</g>
</g>
<!-- Node2&#45;&gt;Node1 -->
<g id="edge1_Node000001_Node000002" class="edge">
<title>Node2&#45;&gt;Node1</title>
<g id="a_edge1_Node000001_Node000002"><a xlink:title=" ">
<path fill="none" stroke="#63b8ff" d="M46.02,-185.33C45.98,-176.63 46.01,-167.85 46.11,-159.28"/>
<polygon fill="none" stroke="#63b8ff" points="42.52,-185.22 46.1,-195.19 49.52,-185.16 42.52,-185.22"/>
</a>
</g>
</g>
<!-- Node2&#45;&gt;Node1 -->
<g id="edge3_Node000001_Node000002" class="edge">
<title>Node2&#45;&gt;Node1</title>
<g id="a_edge3_Node000001_Node000002"><a xlink:title=" ">
<path fill="none" stroke="#63b8ff" d="M59.48,-185.33C59.52,-176.63 59.49,-167.85 59.39,-159.28"/>
<polygon fill="none" stroke="#63b8ff" points="55.98,-185.16 59.4,-195.19 62.98,-185.22 55.98,-185.16"/>
</a>
</g>
</g>
<!-- Node3 -->
<g id="Node000003" class="node">
<title>Node3</title>
<g id="a_Node000003"><a xlink:href="../../de/df1/classstd_1_1vector_3_01_service_base_01_5_01_4.html" target="_top" xlink:title=" ">
<polygon fill="white" stroke="none" points="105.5,-456 0,-456 0,-408.5 105.5,-408.5 105.5,-456"/>
<text xml:space="preserve" text-anchor="start" x="4" y="-443.45" font-family="Arial" font-size="9.00">vector&lt; ServiceBase * &gt;</text>
<text xml:space="preserve" text-anchor="start" x="51.62" y="-428.95" font-family="Arial" font-size="9.00"> </text>
<text xml:space="preserve" text-anchor="start" x="51.62" y="-414.45" font-family="Arial" font-size="9.00"> </text>
<polygon fill="#bfbfbf" stroke="#bfbfbf" points="0,-439.5 0,-439.5 105.5,-439.5 105.5,-439.5 0,-439.5"/>
<polygon fill="#bfbfbf" stroke="#bfbfbf" points="0,-425 0,-425 105.5,-425 105.5,-425 0,-425"/>
<polygon fill="none" stroke="#bfbfbf" points="0,-408.5 0,-456 105.5,-456 105.5,-408.5 0,-408.5"/>
</a>
</g>
</g>
<!-- Node3&#45;&gt;Node2 -->
<g id="edge2_Node000002_Node000003" class="edge">
<title>Node3&#45;&gt;Node2</title>
<g id="a_edge2_Node000002_Node000003"><a xlink:title=" ">
<path fill="none" stroke="#63b8ff" d="M52.75,-408.53C52.75,-397.41 52.75,-383.23 52.75,-368.32"/>
<polygon fill="none" stroke="#63b8ff" points="52.75,-368.58 48.75,-362.58 52.75,-356.58 56.75,-362.58 52.75,-368.58"/>
</a>
</g>
<text xml:space="preserve" text-anchor="start" x="55.75" y="-378.95" font-family="Arial" font-size="9.00" fill="grey">#vec</text>
</g>
</g>
</svg>
