<?xml version="1.0" encoding="UTF-8" standalone="no"?>
<!DOCTYPE svg PUBLIC "-//W3C//DTD SVG 1.1//EN"
 "http://www.w3.org/Graphics/SVG/1.1/DTD/svg11.dtd">
<!-- Generated by graphviz version 3.0.0 (20220226.1711)
 -->
<!-- Title: HAL.cpp Pages: 1 -->
<svg width="470pt" height="196pt"
 viewBox="0.00 0.00 470.00 196.00" xmlns="http://www.w3.org/2000/svg" xmlns:xlink="http://www.w3.org/1999/xlink">
<g id="graph0" class="graph" transform="scale(1 1) rotate(0) translate(4 192)">
<title>HAL.cpp</title>
<!-- Node1 -->
<g id="node1" class="node">
<title>Node1</title>
<g id="a_node1"><a xlink:title="HAL Layer.">
<polygon fill="#bfbfbf" stroke="black" points="233.5,-168.5 233.5,-187.5 287.5,-187.5 287.5,-168.5 233.5,-168.5"/>
<text text-anchor="middle" x="260.5" y="-175.5" font-family="Helvetica,sans-Serif" font-size="10.00">HAL.cpp</text>
</a>
</g>
</g>
<!-- Node2 -->
<g id="node2" class="node">
<title>Node2</title>
<g id="a_node2"><a xlink:href="../../d7/d51/_h_a_l_8hpp.html" target="_top" xlink:title=" ">
<polygon fill="none" stroke="black" points="185.5,-112.5 185.5,-131.5 261.5,-131.5 261.5,-112.5 185.5,-112.5"/>
<text text-anchor="middle" x="223.5" y="-119.5" font-family="Helvetica,sans-Serif" font-size="10.00">HAL/HAL.hpp</text>
</a>
</g>
</g>
<!-- Node1&#45;&gt;Node2 -->
<g id="edge1" class="edge">
<title>Node1&#45;&gt;Node2</title>
<path fill="none" stroke="midnightblue" d="M254.39,-168.08C249.22,-160.53 241.65,-149.49 235.31,-140.23"/>
<polygon fill="midnightblue" stroke="midnightblue" points="238.04,-138.02 229.5,-131.75 232.26,-141.98 238.04,-138.02"/>
</g>
<!-- Node9 -->
<g id="node9" class="node">
<title>Node9</title>
<g id="a_node9"><a xlink:title=" ">
<polygon fill="none" stroke="#bfbfbf" points="279.5,-112.5 279.5,-131.5 317.5,-131.5 317.5,-112.5 279.5,-112.5"/>
<text text-anchor="middle" x="298.5" y="-119.5" font-family="Helvetica,sans-Serif" font-size="10.00">i2c.h</text>
</a>
</g>
</g>
<!-- Node1&#45;&gt;Node9 -->
<g id="edge8" class="edge">
<title>Node1&#45;&gt;Node9</title>
<path fill="none" stroke="midnightblue" d="M266.77,-168.08C272.14,-160.46 280.02,-149.26 286.58,-139.94"/>
<polygon fill="midnightblue" stroke="midnightblue" points="289.45,-141.94 292.34,-131.75 283.72,-137.91 289.45,-141.94"/>
</g>
<!-- Node3 -->
<g id="node3" class="node">
<title>Node3</title>
<g id="a_node3"><a xlink:title=" ">
<polygon fill="none" stroke="#bfbfbf" points="0,-56.5 0,-75.5 101,-75.5 101,-56.5 0,-56.5"/>
<text text-anchor="middle" x="50.5" y="-63.5" font-family="Helvetica,sans-Serif" font-size="10.00">Core/HAL/CPin.hpp</text>
</a>
</g>
</g>
<!-- Node2&#45;&gt;Node3 -->
<g id="edge2" class="edge">
<title>Node2&#45;&gt;Node3</title>
<path fill="none" stroke="midnightblue" d="M196.09,-112.44C166.73,-103.28 119.98,-88.69 87.4,-78.52"/>
<polygon fill="midnightblue" stroke="midnightblue" points="88.37,-75.16 77.78,-75.52 86.29,-81.84 88.37,-75.16"/>
</g>
<!-- Node4 -->
<g id="node4" class="node">
<title>Node4</title>
<g id="a_node4"><a xlink:title=" ">
<polygon fill="none" stroke="#bfbfbf" points="119,-56.5 119,-75.5 220,-75.5 220,-56.5 119,-56.5"/>
<text text-anchor="middle" x="169.5" y="-63.5" font-family="Helvetica,sans-Serif" font-size="10.00">Core/HAL/CI2C.hpp</text>
</a>
</g>
</g>
<!-- Node2&#45;&gt;Node4 -->
<g id="edge3" class="edge">
<title>Node2&#45;&gt;Node4</title>
<path fill="none" stroke="midnightblue" d="M214.58,-112.08C206.72,-104.22 195.07,-92.57 185.58,-83.08"/>
<polygon fill="midnightblue" stroke="midnightblue" points="187.8,-80.35 178.25,-75.75 182.85,-85.3 187.8,-80.35"/>
</g>
<!-- Node5 -->
<g id="node5" class="node">
<title>Node5</title>
<g id="a_node5"><a xlink:href="../../d5/db1/_c_i2_s_8hxx_source.html" target="_top" xlink:title=" ">
<polygon fill="none" stroke="black" points="238.5,-56.5 238.5,-75.5 316.5,-75.5 316.5,-56.5 238.5,-56.5"/>
<text text-anchor="middle" x="277.5" y="-63.5" font-family="Helvetica,sans-Serif" font-size="10.00">HAL/CI2S.hxx</text>
</a>
</g>
</g>
<!-- Node2&#45;&gt;Node5 -->
<g id="edge4" class="edge">
<title>Node2&#45;&gt;Node5</title>
<path fill="none" stroke="midnightblue" d="M232.42,-112.08C240.28,-104.22 251.93,-92.57 261.42,-83.08"/>
<polygon fill="midnightblue" stroke="midnightblue" points="264.15,-85.3 268.75,-75.75 259.2,-80.35 264.15,-85.3"/>
</g>
<!-- Node6 -->
<g id="node6" class="node">
<title>Node6</title>
<g id="a_node6"><a xlink:href="../../de/d77/_c_q_s_p_i_8hxx.html" target="_top" xlink:title=" ">
<polygon fill="none" stroke="black" points="335,-56.5 335,-75.5 422,-75.5 422,-56.5 335,-56.5"/>
<text text-anchor="middle" x="378.5" y="-63.5" font-family="Helvetica,sans-Serif" font-size="10.00">HAL/CQSPI.hxx</text>
</a>
</g>
</g>
<!-- Node2&#45;&gt;Node6 -->
<g id="edge5" class="edge">
<title>Node2&#45;&gt;Node6</title>
<path fill="none" stroke="midnightblue" d="M248.06,-112.44C274.02,-103.4 315.17,-89.06 344.3,-78.92"/>
<polygon fill="midnightblue" stroke="midnightblue" points="345.76,-82.11 354.05,-75.52 343.46,-75.5 345.76,-82.11"/>
</g>
<!-- Node7 -->
<g id="node7" class="node">
<title>Node7</title>
<g id="a_node7"><a xlink:title=" ">
<polygon fill="none" stroke="#bfbfbf" points="262,-0.5 262,-19.5 385,-19.5 385,-0.5 262,-0.5"/>
<text text-anchor="middle" x="323.5" y="-7.5" font-family="Helvetica,sans-Serif" font-size="10.00">Core/HAL/CQSPI_IT.hpp</text>
</a>
</g>
</g>
<!-- Node6&#45;&gt;Node7 -->
<g id="edge6" class="edge">
<title>Node6&#45;&gt;Node7</title>
<path fill="none" stroke="midnightblue" d="M369.42,-56.08C361.33,-48.14 349.3,-36.34 339.59,-26.8"/>
<polygon fill="midnightblue" stroke="midnightblue" points="342,-24.26 332.41,-19.75 337.1,-29.25 342,-24.26"/>
</g>
<!-- Node8 -->
<g id="node8" class="node">
<title>Node8</title>
<g id="a_node8"><a xlink:title=" ">
<polygon fill="none" stroke="#bfbfbf" points="403,-0.5 403,-19.5 462,-19.5 462,-0.5 403,-0.5"/>
<text text-anchor="middle" x="432.5" y="-7.5" font-family="Helvetica,sans-Serif" font-size="10.00">quadspi.h</text>
</a>
</g>
</g>
<!-- Node6&#45;&gt;Node8 -->
<g id="edge7" class="edge">
<title>Node6&#45;&gt;Node8</title>
<path fill="none" stroke="midnightblue" d="M387.42,-56.08C395.28,-48.22 406.93,-36.57 416.42,-27.08"/>
<polygon fill="midnightblue" stroke="midnightblue" points="419.15,-29.3 423.75,-19.75 414.2,-24.35 419.15,-29.3"/>
</g>
</g>
</svg>
