<?xml version="1.0" encoding="UTF-8" standalone="no"?>
<!DOCTYPE svg PUBLIC "-//W3C//DTD SVG 1.1//EN"
 "http://www.w3.org/Graphics/SVG/1.1/DTD/svg11.dtd">
<!-- Generated by graphviz version 13.1.0 (20250701.0955)
 -->
<!-- Title: Lib::Helper::swapBytes&lt; uint16_t &gt; Pages: 1 -->
<svg width="280pt" height="90pt"
 viewBox="0.00 0.00 280.00 90.00" xmlns="http://www.w3.org/2000/svg" xmlns:xlink="http://www.w3.org/1999/xlink">
<g id="graph0" class="graph" transform="scale(1 1) rotate(0) translate(4 86)">
<title>Lib::Helper::swapBytes&lt; uint16_t &gt;</title>
<!-- Node1 -->
<g id="Node000001" class="node">
<title>Node1</title>
<g id="a_Node000001"><a xlink:title="Swaps the byte order of a 16&#45;bit unsigned integer.">
<polygon fill="#999999" stroke="#666666" points="272,-57 154,-57 154,-25 272,-25 272,-57"/>
<text xml:space="preserve" text-anchor="start" x="162" y="-43.5" font-family="Helvetica,sans-Serif" font-size="10.00">Lib::Helper::swapBytes</text>
<text xml:space="preserve" text-anchor="middle" x="213" y="-31.5" font-family="Helvetica,sans-Serif" font-size="10.00">&lt; uint16_t &gt;</text>
</a>
</g>
</g>
<!-- Node2 -->
<g id="Node000002" class="node">
<title>Node2</title>
<g id="a_Node000002"><a xlink:href="../../d4/d8f/a00742.html#a29252a12f2b2ab091aae7124031e3daa" target="_top" xlink:title="Swaps the byte order of a 16&#45;bit unsigned integer from memory.">
<polygon fill="white" stroke="#666666" points="118,-82 0,-82 0,-50 118,-50 118,-82"/>
<text xml:space="preserve" text-anchor="start" x="8" y="-68.5" font-family="Helvetica,sans-Serif" font-size="10.00">Lib::Helper::swapBytes</text>
<text xml:space="preserve" text-anchor="middle" x="59" y="-56.5" font-family="Helvetica,sans-Serif" font-size="10.00">&lt; uint16_t &gt;</text>
</a>
</g>
</g>
<!-- Node1&#45;&gt;Node2 -->
<g id="edge1_Node000001_Node000002" class="edge">
<title>Node1&#45;&gt;Node2</title>
<g id="a_edge1_Node000001_Node000002"><a xlink:title=" ">
<path fill="none" stroke="#63b8ff" d="M142.43,-52.44C134.4,-53.76 126.28,-55.1 118.43,-56.39"/>
<polygon fill="#63b8ff" stroke="#63b8ff" points="142.87,-55.92 152.17,-50.84 141.74,-49.01 142.87,-55.92"/>
</a>
</g>
</g>
<!-- Node3 -->
<g id="Node000003" class="node">
<title>Node3</title>
<g id="a_Node000003"><a xlink:href="../../d6/db0/a01948.html#aa158b9510668e29895076b6cfde3c525" target="_top" xlink:title="Converts a uint16_t value (byte swap).">
<polygon fill="white" stroke="#666666" points="118,-32 0,-32 0,0 118,0 118,-32"/>
<text xml:space="preserve" text-anchor="start" x="8" y="-18.5" font-family="Helvetica,sans-Serif" font-size="10.00">Lib::Xbee::Core::Frame</text>
<text xml:space="preserve" text-anchor="middle" x="59" y="-6.5" font-family="Helvetica,sans-Serif" font-size="10.00">::Helper::Convert::to</text>
</a>
</g>
</g>
<!-- Node1&#45;&gt;Node3 -->
<g id="edge2_Node000001_Node000003" class="edge">
<title>Node1&#45;&gt;Node3</title>
<g id="a_edge2_Node000001_Node000003"><a xlink:title=" ">
<path fill="none" stroke="#63b8ff" d="M142.43,-29.56C134.4,-28.24 126.28,-26.9 118.43,-25.61"/>
<polygon fill="#63b8ff" stroke="#63b8ff" points="141.74,-32.99 152.17,-31.16 142.87,-26.08 141.74,-32.99"/>
</a>
</g>
</g>
</g>
</svg>
