<?xml version="1.0" encoding="UTF-8" standalone="no"?>
<!DOCTYPE svg PUBLIC "-//W3C//DTD SVG 1.1//EN"
 "http://www.w3.org/Graphics/SVG/1.1/DTD/svg11.dtd">
<!-- Generated by graphviz version 13.1.0 (20250701.0955)
 -->
<!-- Title: Lib::Xbee::API::Service::ChannelScanner Pages: 1 -->
<svg width="145pt" height="408pt"
 viewBox="0.00 0.00 145.00 408.00" xmlns="http://www.w3.org/2000/svg" xmlns:xlink="http://www.w3.org/1999/xlink">
<g id="graph0" class="graph" transform="scale(1 1) rotate(0) translate(4 403.5)">
<title>Lib::Xbee::API::Service::ChannelScanner</title>
<!-- Node1 -->
<g id="Node000001" class="node">
<title>Node1</title>
<g id="a_Node000001"><a xlink:title="ChannelScanner service.">
<polygon fill="#999999" stroke="none" points="137.25,-183 0,-183 0,0 137.25,0 137.25,-183"/>
<text xml:space="preserve" text-anchor="start" x="22.12" y="-170.45" font-family="Arial" font-size="9.00">Lib::Xbee::API::Service</text>
<text xml:space="preserve" text-anchor="start" x="31.5" y="-159.95" font-family="Arial" font-size="9.00">::ChannelScanner</text>
<text xml:space="preserve" text-anchor="start" x="4" y="-145.45" font-family="Arial" font-size="9.00">+</text>
<text xml:space="preserve" text-anchor="start" x="13.25" y="-145.45" font-family="Arial" font-size="9.00">std::function&lt; void</text>
<text xml:space="preserve" text-anchor="start" x="13.25" y="-134.95" font-family="Arial" font-size="9.00">(Error)&gt; onError</text>
<text xml:space="preserve" text-anchor="start" x="4" y="-120.45" font-family="Arial" font-size="9.00">+</text>
<text xml:space="preserve" text-anchor="start" x="13.25" y="-120.45" font-family="Arial" font-size="9.00">ChannelScanner(Connection</text>
<text xml:space="preserve" text-anchor="start" x="13.25" y="-109.95" font-family="Arial" font-size="9.00"> *connection, Parameters</text>
<text xml:space="preserve" text-anchor="start" x="13.25" y="-99.45" font-family="Arial" font-size="9.00"> *parameters)</text>
<text xml:space="preserve" text-anchor="start" x="4" y="-84.95" font-family="Arial" font-size="9.00">+</text>
<text xml:space="preserve" text-anchor="start" x="13.25" y="-84.95" font-family="Arial" font-size="9.00">~ChannelScanner()</text>
<text xml:space="preserve" text-anchor="start" x="13.25" y="-74.45" font-family="Arial" font-size="9.00"> override=default</text>
<text xml:space="preserve" text-anchor="start" x="4" y="-59.95" font-family="Arial" font-size="9.00">+</text>
<text xml:space="preserve" text-anchor="start" x="13.25" y="-59.95" font-family="Arial" font-size="9.00">bool open() override</text>
<text xml:space="preserve" text-anchor="start" x="4" y="-45.45" font-family="Arial" font-size="9.00">+</text>
<text xml:space="preserve" text-anchor="start" x="13.25" y="-45.45" font-family="Arial" font-size="9.00">void close() override</text>
<text xml:space="preserve" text-anchor="start" x="4" y="-30.95" font-family="Arial" font-size="9.00">+</text>
<text xml:space="preserve" text-anchor="start" x="13.25" y="-30.95" font-family="Arial" font-size="9.00">void process() override</text>
<text xml:space="preserve" text-anchor="start" x="4" y="-16.45" font-family="Arial" font-size="9.00">+</text>
<text xml:space="preserve" text-anchor="start" x="13.25" y="-16.45" font-family="Arial" font-size="9.00">const std::array&lt; Channel,</text>
<text xml:space="preserve" text-anchor="start" x="13.25" y="-5.95" font-family="Arial" font-size="9.00"> 16 &gt; &amp; getChannels() const</text>
<polygon fill="#666666" stroke="#666666" points="0,-156 0,-156 137.25,-156 137.25,-156 0,-156"/>
<polygon fill="#666666" stroke="#666666" points="0,-131 0,-131 11.25,-131 11.25,-131 0,-131"/>
<polygon fill="#666666" stroke="#666666" points="11.25,-131 11.25,-131 137.25,-131 137.25,-131 11.25,-131"/>
<polygon fill="none" stroke="#666666" points="0,0 0,-183 137.25,-183 137.25,0 0,0"/>
</a>
</g>
</g>
<!-- Node2 -->
<g id="Node000002" class="node">
<title>Node2</title>
<g id="a_Node000002"><a xlink:href="../../d9/df6/class_lib_1_1_xbee_1_1_a_p_i_1_1_service_1_1_service_base.html" target="_top" xlink:title="ServiceBase class.">
<polygon fill="white" stroke="none" points="123.38,-399.5 13.88,-399.5 13.88,-219 123.38,-219 123.38,-399.5"/>
<text xml:space="preserve" text-anchor="start" x="22.12" y="-386.95" font-family="Arial" font-size="9.00">Lib::Xbee::API::Service</text>
<text xml:space="preserve" text-anchor="start" x="40.5" y="-376.45" font-family="Arial" font-size="9.00">::ServiceBase</text>
<text xml:space="preserve" text-anchor="start" x="67.5" y="-361.95" font-family="Arial" font-size="9.00"> </text>
<text xml:space="preserve" text-anchor="start" x="17.88" y="-347.45" font-family="Arial" font-size="9.00">+</text>
<text xml:space="preserve" text-anchor="start" x="27.12" y="-347.45" font-family="Arial" font-size="9.00">ServiceBase()</text>
<text xml:space="preserve" text-anchor="start" x="17.88" y="-332.95" font-family="Arial" font-size="9.00">+</text>
<text xml:space="preserve" text-anchor="start" x="27.12" y="-332.95" font-family="Arial" font-size="9.00">virtual ~ServiceBase</text>
<text xml:space="preserve" text-anchor="start" x="27.12" y="-322.45" font-family="Arial" font-size="9.00">()=default</text>
<text xml:space="preserve" text-anchor="start" x="17.88" y="-307.95" font-family="Arial" font-size="9.00">+</text>
<text xml:space="preserve" text-anchor="start" x="27.12" y="-307.95" font-family="Arial" font-size="9.00">virtual bool open()</text>
<text xml:space="preserve" text-anchor="start" x="17.88" y="-293.45" font-family="Arial" font-size="9.00">+</text>
<text xml:space="preserve" text-anchor="start" x="27.12" y="-293.45" font-family="Arial" font-size="9.00">virtual void close()</text>
<text xml:space="preserve" text-anchor="start" x="17.88" y="-278.95" font-family="Arial" font-size="9.00">+</text>
<text xml:space="preserve" text-anchor="start" x="27.12" y="-278.95" font-family="Arial" font-size="9.00">virtual bool isRunning</text>
<text xml:space="preserve" text-anchor="start" x="27.12" y="-268.45" font-family="Arial" font-size="9.00">() const</text>
<text xml:space="preserve" text-anchor="start" x="17.88" y="-253.95" font-family="Arial" font-size="9.00">#</text>
<text xml:space="preserve" text-anchor="start" x="27.12" y="-253.95" font-family="Arial" font-size="9.00">virtual void initialize()</text>
<text xml:space="preserve" text-anchor="start" x="17.88" y="-239.45" font-family="Arial" font-size="9.00">#</text>
<text xml:space="preserve" text-anchor="start" x="27.12" y="-239.45" font-family="Arial" font-size="9.00">virtual void process()</text>
<text xml:space="preserve" text-anchor="start" x="17.88" y="-224.95" font-family="Arial" font-size="9.00">#</text>
<text xml:space="preserve" text-anchor="start" x="27.12" y="-224.95" font-family="Arial" font-size="9.00">virtual void tearDown()</text>
<polygon fill="#666666" stroke="#666666" points="13.88,-372.5 13.88,-372.5 123.38,-372.5 123.38,-372.5 13.88,-372.5"/>
<polygon fill="#666666" stroke="#666666" points="13.88,-358 13.88,-358 123.38,-358 123.38,-358 13.88,-358"/>
<polygon fill="none" stroke="#666666" points="13.88,-219 13.88,-399.5 123.38,-399.5 123.38,-219 13.88,-219"/>
</a>
</g>
</g>
<!-- Node2&#45;&gt;Node1 -->
<g id="edge1_Node000001_Node000002" class="edge">
<title>Node2&#45;&gt;Node1</title>
<g id="a_edge1_Node000001_Node000002"><a xlink:title=" ">
<path fill="none" stroke="#63b8ff" d="M68.62,-207.86C68.62,-199.46 68.62,-191 68.62,-182.69"/>
<polygon fill="none" stroke="#63b8ff" points="65.13,-207.74 68.63,-217.74 72.13,-207.74 65.13,-207.74"/>
</a>
</g>
</g>
</g>
</svg>
