<?xml version="1.0" encoding="UTF-8" standalone="no"?>
<!DOCTYPE svg PUBLIC "-//W3C//DTD SVG 1.1//EN"
 "http://www.w3.org/Graphics/SVG/1.1/DTD/svg11.dtd">
<!-- Generated by graphviz version 13.1.0 (20250701.0955)
 -->
<!-- Title: Lib::Xbee::API::Service::ChannelScanner Pages: 1 -->
<svg width="224pt" height="554pt"
 viewBox="0.00 0.00 224.00 554.00" xmlns="http://www.w3.org/2000/svg" xmlns:xlink="http://www.w3.org/1999/xlink">
<g id="graph0" class="graph" transform="scale(1 1) rotate(0) translate(4 549.5)">
<title>Lib::Xbee::API::Service::ChannelScanner</title>
<!-- Node1 -->
<g id="Node000001" class="node">
<title>Node1</title>
<g id="a_Node000001"><a xlink:title="Scans all channels and measures connection quality for each.">
<polygon fill="#999999" stroke="none" points="101,-217.5 0,-217.5 0,0 101,0 101,-217.5"/>
<text xml:space="preserve" text-anchor="start" x="4" y="-204.95" font-family="Arial" font-size="9.00">Lib::Xbee::API::Service</text>
<text xml:space="preserve" text-anchor="start" x="13.38" y="-194.45" font-family="Arial" font-size="9.00">::ChannelScanner</text>
<text xml:space="preserve" text-anchor="start" x="49.38" y="-179.95" font-family="Arial" font-size="9.00"> </text>
<text xml:space="preserve" text-anchor="start" x="4.69" y="-165.45" font-family="Arial" font-size="9.00">+</text>
<text xml:space="preserve" text-anchor="start" x="14.62" y="-165.45" font-family="Arial" font-size="9.00">ChannelScanner()</text>
<text xml:space="preserve" text-anchor="start" x="4.69" y="-150.95" font-family="Arial" font-size="9.00">+</text>
<text xml:space="preserve" text-anchor="start" x="14.62" y="-150.95" font-family="Arial" font-size="9.00">~ChannelScanner()</text>
<text xml:space="preserve" text-anchor="start" x="4.69" y="-136.45" font-family="Arial" font-size="9.00">+</text>
<text xml:space="preserve" text-anchor="start" x="14.62" y="-136.45" font-family="Arial" font-size="9.00">open()</text>
<text xml:space="preserve" text-anchor="start" x="4.69" y="-121.95" font-family="Arial" font-size="9.00">+</text>
<text xml:space="preserve" text-anchor="start" x="14.62" y="-121.95" font-family="Arial" font-size="9.00">close()</text>
<text xml:space="preserve" text-anchor="start" x="4.69" y="-107.45" font-family="Arial" font-size="9.00">+</text>
<text xml:space="preserve" text-anchor="start" x="14.62" y="-107.45" font-family="Arial" font-size="9.00">process()</text>
<text xml:space="preserve" text-anchor="start" x="4.69" y="-92.95" font-family="Arial" font-size="9.00">+</text>
<text xml:space="preserve" text-anchor="start" x="14.62" y="-92.95" font-family="Arial" font-size="9.00">getChannels()</text>
<text xml:space="preserve" text-anchor="start" x="4.69" y="-78.45" font-family="Arial" font-size="9.00">+</text>
<text xml:space="preserve" text-anchor="start" x="14.62" y="-78.45" font-family="Arial" font-size="9.00">ChannelScanner()</text>
<text xml:space="preserve" text-anchor="start" x="4.69" y="-63.95" font-family="Arial" font-size="9.00">+</text>
<text xml:space="preserve" text-anchor="start" x="14.62" y="-63.95" font-family="Arial" font-size="9.00">~ChannelScanner()</text>
<text xml:space="preserve" text-anchor="start" x="4.69" y="-49.45" font-family="Arial" font-size="9.00">+</text>
<text xml:space="preserve" text-anchor="start" x="14.62" y="-49.45" font-family="Arial" font-size="9.00">open()</text>
<text xml:space="preserve" text-anchor="start" x="4.69" y="-34.95" font-family="Arial" font-size="9.00">+</text>
<text xml:space="preserve" text-anchor="start" x="14.62" y="-34.95" font-family="Arial" font-size="9.00">close()</text>
<text xml:space="preserve" text-anchor="start" x="4.69" y="-20.45" font-family="Arial" font-size="9.00">+</text>
<text xml:space="preserve" text-anchor="start" x="14.62" y="-20.45" font-family="Arial" font-size="9.00">process()</text>
<text xml:space="preserve" text-anchor="start" x="4.69" y="-5.95" font-family="Arial" font-size="9.00">+</text>
<text xml:space="preserve" text-anchor="start" x="14.62" y="-5.95" font-family="Arial" font-size="9.00">getChannels()</text>
<polygon fill="#666666" stroke="#666666" points="0,-190.5 0,-190.5 101,-190.5 101,-190.5 0,-190.5"/>
<polygon fill="#666666" stroke="#666666" points="0,-176 0,-176 101,-176 101,-176 0,-176"/>
<polygon fill="none" stroke="#666666" points="0,0 0,-217.5 101,-217.5 101,0 0,0"/>
</a>
</g>
</g>
<!-- Node2 -->
<g id="Node000002" class="node">
<title>Node2</title>
<g id="a_Node000002"><a xlink:href="../../d9/df6/class_lib_1_1_xbee_1_1_a_p_i_1_1_service_1_1_service_base.html" target="_top" xlink:title="Abstract base for Xbee API services.">
<polygon fill="white" stroke="none" points="101,-545.5 0,-545.5 0,-270 101,-270 101,-545.5"/>
<text xml:space="preserve" text-anchor="start" x="4" y="-532.95" font-family="Arial" font-size="9.00">Lib::Xbee::API::Service</text>
<text xml:space="preserve" text-anchor="start" x="22.38" y="-522.45" font-family="Arial" font-size="9.00">::ServiceBase</text>
<text xml:space="preserve" text-anchor="start" x="49.38" y="-507.95" font-family="Arial" font-size="9.00"> </text>
<text xml:space="preserve" text-anchor="start" x="9.19" y="-493.45" font-family="Arial" font-size="9.00">+</text>
<text xml:space="preserve" text-anchor="start" x="23.62" y="-493.45" font-family="Arial" font-size="9.00">ServiceBase()</text>
<text xml:space="preserve" text-anchor="start" x="9.19" y="-478.95" font-family="Arial" font-size="9.00">+</text>
<text xml:space="preserve" text-anchor="start" x="23.62" y="-478.95" font-family="Arial" font-size="9.00">~ServiceBase()</text>
<text xml:space="preserve" text-anchor="start" x="9.19" y="-464.45" font-family="Arial" font-size="9.00">+</text>
<text xml:space="preserve" text-anchor="start" x="23.62" y="-464.45" font-family="Arial" font-size="9.00">open()</text>
<text xml:space="preserve" text-anchor="start" x="9.19" y="-449.95" font-family="Arial" font-size="9.00">+</text>
<text xml:space="preserve" text-anchor="start" x="23.62" y="-449.95" font-family="Arial" font-size="9.00">close()</text>
<text xml:space="preserve" text-anchor="start" x="9.19" y="-435.45" font-family="Arial" font-size="9.00">+</text>
<text xml:space="preserve" text-anchor="start" x="23.62" y="-435.45" font-family="Arial" font-size="9.00">isRunning()</text>
<text xml:space="preserve" text-anchor="start" x="9.19" y="-420.95" font-family="Arial" font-size="9.00">+</text>
<text xml:space="preserve" text-anchor="start" x="23.62" y="-420.95" font-family="Arial" font-size="9.00">ServiceBase()</text>
<text xml:space="preserve" text-anchor="start" x="9.19" y="-406.45" font-family="Arial" font-size="9.00">+</text>
<text xml:space="preserve" text-anchor="start" x="23.62" y="-406.45" font-family="Arial" font-size="9.00">~ServiceBase()</text>
<text xml:space="preserve" text-anchor="start" x="9.19" y="-391.95" font-family="Arial" font-size="9.00">+</text>
<text xml:space="preserve" text-anchor="start" x="23.62" y="-391.95" font-family="Arial" font-size="9.00">open()</text>
<text xml:space="preserve" text-anchor="start" x="9.19" y="-377.45" font-family="Arial" font-size="9.00">+</text>
<text xml:space="preserve" text-anchor="start" x="23.62" y="-377.45" font-family="Arial" font-size="9.00">close()</text>
<text xml:space="preserve" text-anchor="start" x="9.19" y="-362.95" font-family="Arial" font-size="9.00">+</text>
<text xml:space="preserve" text-anchor="start" x="23.62" y="-362.95" font-family="Arial" font-size="9.00">isRunning()</text>
<text xml:space="preserve" text-anchor="start" x="9.19" y="-348.45" font-family="Arial" font-size="9.00">#</text>
<text xml:space="preserve" text-anchor="start" x="23.62" y="-348.45" font-family="Arial" font-size="9.00">initialize()</text>
<text xml:space="preserve" text-anchor="start" x="9.19" y="-333.95" font-family="Arial" font-size="9.00">#</text>
<text xml:space="preserve" text-anchor="start" x="23.62" y="-333.95" font-family="Arial" font-size="9.00">process()</text>
<text xml:space="preserve" text-anchor="start" x="9.19" y="-319.45" font-family="Arial" font-size="9.00">#</text>
<text xml:space="preserve" text-anchor="start" x="23.62" y="-319.45" font-family="Arial" font-size="9.00">tearDown()</text>
<text xml:space="preserve" text-anchor="start" x="9.19" y="-304.95" font-family="Arial" font-size="9.00">#</text>
<text xml:space="preserve" text-anchor="start" x="23.62" y="-304.95" font-family="Arial" font-size="9.00">initialize()</text>
<text xml:space="preserve" text-anchor="start" x="9.19" y="-290.45" font-family="Arial" font-size="9.00">#</text>
<text xml:space="preserve" text-anchor="start" x="23.62" y="-290.45" font-family="Arial" font-size="9.00">process()</text>
<text xml:space="preserve" text-anchor="start" x="9.19" y="-275.95" font-family="Arial" font-size="9.00">#</text>
<text xml:space="preserve" text-anchor="start" x="23.62" y="-275.95" font-family="Arial" font-size="9.00">tearDown()</text>
<polygon fill="#666666" stroke="#666666" points="0,-518.5 0,-518.5 101,-518.5 101,-518.5 0,-518.5"/>
<polygon fill="#666666" stroke="#666666" points="0,-504 0,-504 101,-504 101,-504 0,-504"/>
<polygon fill="none" stroke="#666666" points="0,-270 0,-545.5 101,-545.5 101,-270 0,-270"/>
</a>
</g>
</g>
<!-- Node2&#45;&gt;Node1 -->
<g id="edge1_Node000001_Node000002" class="edge">
<title>Node2&#45;&gt;Node1</title>
<g id="a_edge1_Node000001_Node000002"><a xlink:title=" ">
<path fill="none" stroke="#63b8ff" d="M43.75,-259.11C43.75,-244.99 43.82,-230.86 43.98,-217.23"/>
<polygon fill="none" stroke="#63b8ff" points="40.25,-258.91 43.77,-268.91 47.25,-258.9 40.25,-258.91"/>
</a>
</g>
</g>
<!-- Node2&#45;&gt;Node1 -->
<g id="edge2_Node000001_Node000002" class="edge">
<title>Node2&#45;&gt;Node1</title>
<g id="a_edge2_Node000001_Node000002"><a xlink:title=" ">
<path fill="none" stroke="#63b8ff" d="M57.25,-259.11C57.25,-244.99 57.18,-230.86 57.02,-217.23"/>
<polygon fill="none" stroke="#63b8ff" points="53.75,-258.9 57.23,-268.91 60.75,-258.91 53.75,-258.9"/>
</a>
</g>
</g>
<!-- Node3 -->
<g id="Node000003" class="node">
<title>Node3</title>
<g id="a_Node000003"><a xlink:title=" ">
<polygon fill="white" stroke="none" points="215.75,-431.5 119.25,-431.5 119.25,-384 215.75,-384 215.75,-431.5"/>
<text xml:space="preserve" text-anchor="start" x="123.25" y="-418.95" font-family="Arial" font-size="9.00">function&lt; void(Error)&gt;</text>
<text xml:space="preserve" text-anchor="start" x="166.38" y="-404.45" font-family="Arial" font-size="9.00"> </text>
<text xml:space="preserve" text-anchor="start" x="166.38" y="-389.95" font-family="Arial" font-size="9.00"> </text>
<polygon fill="#bfbfbf" stroke="#bfbfbf" points="119.25,-415 119.25,-415 215.75,-415 215.75,-415 119.25,-415"/>
<polygon fill="#bfbfbf" stroke="#bfbfbf" points="119.25,-400.5 119.25,-400.5 215.75,-400.5 215.75,-400.5 119.25,-400.5"/>
<polygon fill="none" stroke="#bfbfbf" points="119.25,-384 119.25,-431.5 215.75,-431.5 215.75,-384 119.25,-384"/>
</a>
</g>
</g>
<!-- Node3&#45;&gt;Node1 -->
<g id="edge3_Node000001_Node000003" class="edge">
<title>Node3&#45;&gt;Node1</title>
<g id="a_edge3_Node000001_Node000003"><a xlink:title=" ">
<path fill="none" stroke="#63b8ff" d="M158.71,-384.43C145.7,-351.42 120.42,-287.25 97.56,-229.22"/>
<polygon fill="none" stroke="#63b8ff" points="97.61,-229.33 91.69,-225.22 93.21,-218.17 99.13,-222.28 97.61,-229.33"/>
</a>
</g>
<text xml:space="preserve" text-anchor="start" x="108.49" y="-240.45" font-family="Arial" font-size="9.00" fill="grey">+onError</text>
</g>
</g>
</svg>
