<?xml version="1.0" encoding="UTF-8" standalone="no"?>
<!DOCTYPE svg PUBLIC "-//W3C//DTD SVG 1.1//EN"
 "http://www.w3.org/Graphics/SVG/1.1/DTD/svg11.dtd">
<!-- Generated by graphviz version 13.1.0 (20250701.0955)
 -->
<!-- Title: Lib::Helper::BufferHandle::operator() Pages: 1 -->
<svg width="405pt" height="66pt"
 viewBox="0.00 0.00 405.00 66.00" xmlns="http://www.w3.org/2000/svg" xmlns:xlink="http://www.w3.org/1999/xlink">
<g id="graph0" class="graph" transform="scale(1 1) rotate(0) translate(4 62)">
<title>Lib::Helper::BufferHandle::operator()</title>
<!-- Node1 -->
<g id="Node000001" class="node">
<title>Node1</title>
<g id="a_Node000001"><a xlink:title="Assignment operator for setting buffer.">
<polygon fill="#999999" stroke="#666666" points="172.75,-39 0,-39 0,-19 172.75,-19 172.75,-39"/>
<text xml:space="preserve" text-anchor="middle" x="86.38" y="-25.5" font-family="Helvetica,sans-Serif" font-size="10.00">Lib::Helper::BufferHandle::operator()</text>
</a>
</g>
</g>
<!-- Node2 -->
<g id="Node000002" class="node">
<title>Node2</title>
<g id="a_Node000002"><a xlink:href="../../dc/d5d/class_lib_1_1_helper_1_1_buffer_handle.html#a178fee8d1c634241a55a4c8a8e80bffa" target="_top" xlink:title="Default constructor of BufferHandle class.">
<polygon fill="white" stroke="#666666" points="396.5,-58 208.75,-58 208.75,-38 396.5,-38 396.5,-58"/>
<text xml:space="preserve" text-anchor="middle" x="302.62" y="-44.5" font-family="Helvetica,sans-Serif" font-size="10.00">Lib::Helper::BufferHandle::BufferHandle</text>
</a>
</g>
</g>
<!-- Node1&#45;&gt;Node2 -->
<g id="edge1_Node000001_Node000002" class="edge">
<title>Node1&#45;&gt;Node2</title>
<g id="a_edge1_Node000001_Node000002"><a xlink:title=" ">
<path fill="none" stroke="#63b8ff" d="M172.98,-36.59C180.9,-37.29 188.98,-38.01 197.05,-38.73"/>
<polygon fill="#63b8ff" stroke="#63b8ff" points="196.65,-42.2 206.92,-39.6 197.26,-35.23 196.65,-42.2"/>
</a>
</g>
</g>
<!-- Node3 -->
<g id="Node000003" class="node">
<title>Node3</title>
<g id="a_Node000003"><a xlink:href="../../dc/d5d/class_lib_1_1_helper_1_1_buffer_handle.html#abdf2266bb78dd769bc7496696b8ae2aa" target="_top" xlink:title="Sets the data buffer and size.">
<polygon fill="white" stroke="#666666" points="375.12,-20 230.12,-20 230.12,0 375.12,0 375.12,-20"/>
<text xml:space="preserve" text-anchor="middle" x="302.62" y="-6.5" font-family="Helvetica,sans-Serif" font-size="10.00">Lib::Helper::BufferHandle::set</text>
</a>
</g>
</g>
<!-- Node1&#45;&gt;Node3 -->
<g id="edge2_Node000001_Node000003" class="edge">
<title>Node1&#45;&gt;Node3</title>
<g id="a_edge2_Node000001_Node000003"><a xlink:title=" ">
<path fill="none" stroke="#63b8ff" d="M172.98,-21.41C188.02,-20.07 203.66,-18.69 218.63,-17.36"/>
<polygon fill="#63b8ff" stroke="#63b8ff" points="218.78,-20.86 228.43,-16.49 218.16,-13.89 218.78,-20.86"/>
</a>
</g>
</g>
</g>
</svg>
