<?xml version="1.0" encoding="UTF-8" standalone="no"?>
<!DOCTYPE svg PUBLIC "-//W3C//DTD SVG 1.1//EN"
 "http://www.w3.org/Graphics/SVG/1.1/DTD/svg11.dtd">
<!-- Generated by graphviz version 13.1.0 (20250701.0955)
 -->
<!-- Title: Lib::Canbus::ServiceBase::Node Pages: 1 -->
<svg width="122pt" height="108pt"
 viewBox="0.00 0.00 122.00 108.00" xmlns="http://www.w3.org/2000/svg" xmlns:xlink="http://www.w3.org/1999/xlink">
<g id="graph0" class="graph" transform="scale(1 1) rotate(0) translate(4 104)">
<title>Lib::Canbus::ServiceBase::Node</title>
<!-- Node1 -->
<g id="Node000001" class="node">
<title>Node1</title>
<g id="a_Node000001"><a xlink:title=" ">
<polygon fill="#999999" stroke="none" points="113.75,-29 0,-29 0,0 113.75,0 113.75,-29"/>
<text xml:space="preserve" text-anchor="start" x="4" y="-16.45" font-family="Arial" font-size="9.00">Lib::Canbus::ServiceBase</text>
<text xml:space="preserve" text-anchor="start" x="43.38" y="-5.95" font-family="Arial" font-size="9.00">::Node</text>
<polygon fill="none" stroke="#666666" points="0,0 0,-29 113.75,-29 113.75,0 0,0"/>
</a>
</g>
</g>
<!-- Node2 -->
<g id="Node000002" class="node">
<title>Node2</title>
<g id="a_Node000002"><a xlink:title=" ">
<polygon fill="white" stroke="none" points="69.88,-100 43.88,-100 43.88,-81.5 69.88,-81.5 69.88,-100"/>
<text xml:space="preserve" text-anchor="start" x="47.88" y="-87.45" font-family="Arial" font-size="9.00">bool</text>
<polygon fill="none" stroke="#bfbfbf" points="43.88,-81.5 43.88,-100 69.88,-100 69.88,-81.5 43.88,-81.5"/>
</a>
</g>
</g>
<!-- Node2&#45;&gt;Node1 -->
<g id="edge1_Node000001_Node000002" class="edge">
<title>Node2&#45;&gt;Node1</title>
<g id="a_edge1_Node000001_Node000002"><a xlink:title=" ">
<path fill="none" stroke="#63b8ff" d="M56.88,-81.52C56.88,-71.95 56.88,-55.67 56.88,-41.67"/>
<polygon fill="none" stroke="#63b8ff" points="56.88,-41.67 52.88,-35.67 56.88,-29.67 60.88,-35.67 56.88,-41.67"/>
</a>
</g>
<text xml:space="preserve" text-anchor="start" x="59.88" y="-51.95" font-family="Arial" font-size="9.00" fill="grey">+activity</text>
</g>
</g>
</svg>
