<?xml version="1.0" encoding="UTF-8" standalone="no"?>
<!DOCTYPE svg PUBLIC "-//W3C//DTD SVG 1.1//EN"
 "http://www.w3.org/Graphics/SVG/1.1/DTD/svg11.dtd">
<!-- Generated by graphviz version 13.1.0 (20250701.0955)
 -->
<!-- Title: JaggedArray.hpp Pages: 1 -->
<svg width="411pt" height="84pt"
 viewBox="0.00 0.00 411.00 84.00" xmlns="http://www.w3.org/2000/svg" xmlns:xlink="http://www.w3.org/1999/xlink">
<g id="graph0" class="graph" transform="scale(1 1) rotate(0) translate(4 80)">
<title>JaggedArray.hpp</title>
<!-- Node1 -->
<g id="Node000001" class="node">
<title>Node1</title>
<g id="a_Node000001"><a xlink:title="Compact, efficient, type&#45;safe jagged array container for non&#45;owning pointers.">
<polygon fill="#999999" stroke="#666666" points="240.25,-76 151.5,-76 151.5,-56 240.25,-56 240.25,-76"/>
<text xml:space="preserve" text-anchor="middle" x="195.88" y="-62.5" font-family="Helvetica,sans-Serif" font-size="10.00">JaggedArray.hpp</text>
</a>
</g>
</g>
<!-- Node2 -->
<g id="Node000002" class="node">
<title>Node2</title>
<g id="a_Node000002"><a xlink:title=" ">
<polygon fill="#e0e0e0" stroke="#999999" points="55.75,-20 0,-20 0,0 55.75,0 55.75,-20"/>
<text xml:space="preserve" text-anchor="middle" x="27.88" y="-6.5" font-family="Helvetica,sans-Serif" font-size="10.00">algorithm</text>
</a>
</g>
</g>
<!-- Node1&#45;&gt;Node2 -->
<g id="edge1_Node000001_Node000002" class="edge">
<title>Node1&#45;&gt;Node2</title>
<g id="a_edge1_Node000001_Node000002"><a xlink:title=" ">
<path fill="none" stroke="#63b8ff" d="M166.61,-55.59C138.98,-46.71 97.36,-33.33 66.91,-23.55"/>
<polygon fill="#63b8ff" stroke="#63b8ff" points="68.28,-20.31 57.68,-20.58 66.13,-26.97 68.28,-20.31"/>
</a>
</g>
</g>
<!-- Node3 -->
<g id="Node000003" class="node">
<title>Node3</title>
<g id="a_Node000003"><a xlink:title=" ">
<polygon fill="#e0e0e0" stroke="#999999" points="122,-20 73.75,-20 73.75,0 122,0 122,-20"/>
<text xml:space="preserve" text-anchor="middle" x="97.88" y="-6.5" font-family="Helvetica,sans-Serif" font-size="10.00">cassert</text>
</a>
</g>
</g>
<!-- Node1&#45;&gt;Node3 -->
<g id="edge2_Node000001_Node000003" class="edge">
<title>Node1&#45;&gt;Node3</title>
<g id="a_edge2_Node000001_Node000003"><a xlink:title=" ">
<path fill="none" stroke="#63b8ff" d="M178.8,-55.59C164,-47.44 142.31,-35.48 125.11,-26"/>
<polygon fill="#63b8ff" stroke="#63b8ff" points="126.85,-22.97 116.4,-21.21 123.47,-29.1 126.85,-22.97"/>
</a>
</g>
</g>
<!-- Node4 -->
<g id="Node000004" class="node">
<title>Node4</title>
<g id="a_Node000004"><a xlink:title=" ">
<polygon fill="#e0e0e0" stroke="#999999" points="188,-20 139.75,-20 139.75,0 188,0 188,-20"/>
<text xml:space="preserve" text-anchor="middle" x="163.88" y="-6.5" font-family="Helvetica,sans-Serif" font-size="10.00">cstddef</text>
</a>
</g>
</g>
<!-- Node1&#45;&gt;Node4 -->
<g id="edge3_Node000001_Node000004" class="edge">
<title>Node1&#45;&gt;Node4</title>
<g id="a_edge3_Node000001_Node000004"><a xlink:title=" ">
<path fill="none" stroke="#63b8ff" d="M190.3,-55.59C186.13,-48.55 180.27,-38.67 175.13,-30"/>
<polygon fill="#63b8ff" stroke="#63b8ff" points="178.27,-28.42 170.16,-21.6 172.24,-31.99 178.27,-28.42"/>
</a>
</g>
</g>
<!-- Node5 -->
<g id="Node000005" class="node">
<title>Node5</title>
<g id="a_Node000005"><a xlink:title=" ">
<polygon fill="#e0e0e0" stroke="#999999" points="251.5,-20 206.25,-20 206.25,0 251.5,0 251.5,-20"/>
<text xml:space="preserve" text-anchor="middle" x="228.88" y="-6.5" font-family="Helvetica,sans-Serif" font-size="10.00">cstdint</text>
</a>
</g>
</g>
<!-- Node1&#45;&gt;Node5 -->
<g id="edge4_Node000001_Node000005" class="edge">
<title>Node1&#45;&gt;Node5</title>
<g id="a_edge4_Node000001_Node000005"><a xlink:title=" ">
<path fill="none" stroke="#63b8ff" d="M201.62,-55.59C205.93,-48.55 211.97,-38.67 217.26,-30"/>
<polygon fill="#63b8ff" stroke="#63b8ff" points="220.18,-31.95 222.4,-21.59 214.2,-28.3 220.18,-31.95"/>
</a>
</g>
</g>
<!-- Node6 -->
<g id="Node000006" class="node">
<title>Node6</title>
<g id="a_Node000006"><a xlink:title=" ">
<polygon fill="#e0e0e0" stroke="#999999" points="342,-20 269.75,-20 269.75,0 342,0 342,-20"/>
<text xml:space="preserve" text-anchor="middle" x="305.88" y="-6.5" font-family="Helvetica,sans-Serif" font-size="10.00">initializer_list</text>
</a>
</g>
</g>
<!-- Node1&#45;&gt;Node6 -->
<g id="edge5_Node000001_Node000006" class="edge">
<title>Node1&#45;&gt;Node6</title>
<g id="a_edge5_Node000001_Node000006"><a xlink:title=" ">
<path fill="none" stroke="#63b8ff" d="M215.04,-55.59C231.97,-47.28 256.92,-35.03 276.4,-25.47"/>
<polygon fill="#63b8ff" stroke="#63b8ff" points="277.77,-28.7 285.21,-21.15 274.69,-22.41 277.77,-28.7"/>
</a>
</g>
</g>
<!-- Node7 -->
<g id="Node000007" class="node">
<title>Node7</title>
<g id="a_Node000007"><a xlink:title=" ">
<polygon fill="#e0e0e0" stroke="#999999" points="403.38,-20 360.38,-20 360.38,0 403.38,0 403.38,-20"/>
<text xml:space="preserve" text-anchor="middle" x="381.88" y="-6.5" font-family="Helvetica,sans-Serif" font-size="10.00">vector</text>
</a>
</g>
</g>
<!-- Node1&#45;&gt;Node7 -->
<g id="edge6_Node000001_Node000007" class="edge">
<title>Node1&#45;&gt;Node7</title>
<g id="a_edge6_Node000001_Node000007"><a xlink:title=" ">
<path fill="none" stroke="#63b8ff" d="M228.27,-55.59C262.22,-45.74 315.24,-30.35 349.27,-20.47"/>
<polygon fill="#63b8ff" stroke="#63b8ff" points="349.94,-23.92 358.57,-17.77 347.99,-17.19 349.94,-23.92"/>
</a>
</g>
</g>
</g>
</svg>
