<?xml version="1.0" encoding="UTF-8" standalone="no"?>
<!DOCTYPE svg PUBLIC "-//W3C//DTD SVG 1.1//EN"
 "http://www.w3.org/Graphics/SVG/1.1/DTD/svg11.dtd">
<!-- Generated by graphviz version 13.1.0 (20250701.0955)
 -->
<!-- Title: Communication Layer Pages: 1 -->
<svg width="376pt" height="64pt"
 viewBox="0.00 0.00 376.00 64.00" xmlns="http://www.w3.org/2000/svg" xmlns:xlink="http://www.w3.org/1999/xlink">
<g id="graph0" class="graph" transform="scale(1 1) rotate(0) translate(4 59.5)">
<title>Communication Layer</title>
<!-- Node4 -->
<g id="Node000004" class="node">
<title>Node4</title>
<g id="a_Node000004"><a xlink:href="../../d8/db9/a00725.html" target="_top" xlink:title="CAN bus communication stack and protocol handling.">
<polygon fill="white" stroke="#666666" points="367.5,-55.5 288.5,-55.5 288.5,-37 367.5,-37 367.5,-55.5"/>
<text xml:space="preserve" text-anchor="middle" x="328" y="-42.95" font-family="Arial" font-size="9.00">CAN Bus Layer</text>
</a>
</g>
</g>
<!-- Node1 -->
<g id="Node000001" class="node">
<title>Node1</title>
<g id="a_Node000001"><a xlink:title="Communication protocols and interfaces for external and internal data exchange.">
<polygon fill="#999999" stroke="#666666" points="252.5,-36.5 146.5,-36.5 146.5,-18 252.5,-18 252.5,-36.5"/>
<text xml:space="preserve" text-anchor="middle" x="199.5" y="-23.95" font-family="Arial" font-size="9.00">Communication Layer</text>
</a>
</g>
</g>
<!-- Node1&#45;&gt;Node4 -->
<g id="edge3" class="edge">
<title>Node1&#45;&gt;Node4</title>
<path fill="none" stroke="black" d="M263.89,-36.77C272.14,-38.01 280.39,-39.25 288.08,-40.4"/>
<polygon fill="black" stroke="black" points="264.59,-33.34 254.18,-35.31 263.55,-40.26 264.59,-33.34"/>
</g>
<!-- Node3 -->
<g id="Node000003" class="node">
<title>Node3</title>
<g id="a_Node000003"><a xlink:href="../../de/de6/a00723.html" target="_top" xlink:title="XBEE wireless communication stack and protocol handling.">
<polygon fill="white" stroke="#666666" points="360.75,-18.5 295.25,-18.5 295.25,0 360.75,0 360.75,-18.5"/>
<text xml:space="preserve" text-anchor="middle" x="328" y="-5.95" font-family="Arial" font-size="9.00">XBEE Layer</text>
</a>
</g>
</g>
<!-- Node1&#45;&gt;Node3 -->
<g id="edge2" class="edge">
<title>Node1&#45;&gt;Node3</title>
<path fill="none" stroke="black" d="M263.84,-18.24C274.6,-16.71 285.35,-15.18 294.85,-13.82"/>
<polygon fill="black" stroke="black" points="263.59,-14.74 254.18,-19.61 264.57,-21.67 263.59,-14.74"/>
</g>
<!-- Node2 -->
<g id="Node000002" class="node">
<title>Node2</title>
<g id="a_Node000002"><a xlink:href="../../d4/deb/a00710.html" target="_top" xlink:title="Main project documentation group for the U146&#45;Firmware embedded firmware.">
<polygon fill="white" stroke="#666666" points="110.5,-36.5 0,-36.5 0,-18 110.5,-18 110.5,-36.5"/>
<text xml:space="preserve" text-anchor="middle" x="55.25" y="-23.95" font-family="Arial" font-size="9.00">U146&#45;Firmware Project</text>
</a>
</g>
</g>
<!-- Node2&#45;&gt;Node1 -->
<g id="edge1" class="edge">
<title>Node2&#45;&gt;Node1</title>
<path fill="none" stroke="black" d="M122.13,-27.25C130.19,-27.25 138.34,-27.25 146.16,-27.25"/>
<polygon fill="black" stroke="black" points="122.35,-23.75 112.35,-27.25 122.35,-30.75 122.35,-23.75"/>
</g>
</g>
</svg>
