<?xml version="1.0" encoding="UTF-8" standalone="no"?>
<!DOCTYPE svg PUBLIC "-//W3C//DTD SVG 1.1//EN"
 "http://www.w3.org/Graphics/SVG/1.1/DTD/svg11.dtd">
<!-- Generated by graphviz version 13.1.0 (20250701.0955)
 -->
<!-- Title: Lib::HAL::UART::Port&lt; T_MODE &gt; Pages: 1 -->
<svg width="828pt" height="412pt"
 viewBox="0.00 0.00 828.00 412.00" xmlns="http://www.w3.org/2000/svg" xmlns:xlink="http://www.w3.org/1999/xlink">
<g id="graph0" class="graph" transform="scale(1 1) rotate(0) translate(4 408)">
<title>Lib::HAL::UART::Port&lt; T_MODE &gt;</title>
<!-- Node1 -->
<g id="Node000001" class="node">
<title>Node1</title>
<g id="a_Node000001"><a xlink:title="UART port template class.">
<polygon fill="#999999" stroke="none" points="458.5,-404 366.5,-404 366.5,-346 458.5,-346 458.5,-404"/>
<text xml:space="preserve" text-anchor="start" x="370.5" y="-391.45" font-family="Arial" font-size="9.00">Lib::HAL::UART::Port</text>
<text xml:space="preserve" text-anchor="start" x="386.25" y="-380.95" font-family="Arial" font-size="9.00">&lt; T_MODE &gt;</text>
<text xml:space="preserve" text-anchor="start" x="411.38" y="-366.45" font-family="Arial" font-size="9.00"> </text>
<text xml:space="preserve" text-anchor="start" x="411.38" y="-351.95" font-family="Arial" font-size="9.00"> </text>
<polygon fill="#666666" stroke="#666666" points="366.5,-377 366.5,-377 458.5,-377 458.5,-377 366.5,-377"/>
<polygon fill="#666666" stroke="#666666" points="366.5,-362.5 366.5,-362.5 458.5,-362.5 458.5,-362.5 366.5,-362.5"/>
<polygon fill="none" stroke="#666666" points="366.5,-346 366.5,-404 458.5,-404 458.5,-346 366.5,-346"/>
</a>
</g>
</g>
<!-- Node2 -->
<g id="Node000002" class="node">
<title>Node2</title>
<g id="a_Node000002"><a xlink:href="../../d4/d20/class_lib_1_1_h_a_l_1_1_u_a_r_t_1_1_port.html" target="_top" xlink:title=" ">
<polygon fill="white" stroke="none" points="95,-175.75 0,-175.75 0,-117.75 95,-117.75 95,-175.75"/>
<text xml:space="preserve" text-anchor="start" x="4" y="-163.2" font-family="Arial" font-size="9.00">Lib::HAL::UART::Port</text>
<text xml:space="preserve" text-anchor="start" x="4" y="-152.7" font-family="Arial" font-size="9.00">&lt; DriverMode::DMA &gt;</text>
<text xml:space="preserve" text-anchor="start" x="46.38" y="-138.2" font-family="Arial" font-size="9.00"> </text>
<text xml:space="preserve" text-anchor="start" x="46.38" y="-123.7" font-family="Arial" font-size="9.00"> </text>
<polygon fill="#666666" stroke="#666666" points="0,-148.75 0,-148.75 95,-148.75 95,-148.75 0,-148.75"/>
<polygon fill="#666666" stroke="#666666" points="0,-134.25 0,-134.25 95,-134.25 95,-134.25 0,-134.25"/>
<polygon fill="none" stroke="#666666" points="0,-117.75 0,-175.75 95,-175.75 95,-117.75 0,-117.75"/>
</a>
</g>
</g>
<!-- Node1&#45;&gt;Node2 -->
<g id="edge1_Node000001_Node000002" class="edge">
<title>Node1&#45;&gt;Node2</title>
<g id="a_edge1_Node000001_Node000002"><a xlink:title=" ">
<path fill="none" stroke="orange" d="M355.59,-374.39C298.22,-372.56 208.65,-363.49 140.5,-328 83.03,-298.07 60.13,-218.05 51.79,-175.4"/>
<polygon fill="orange" stroke="orange" points="355.37,-377.89 365.46,-374.64 355.55,-370.89 355.37,-377.89"/>
</a>
</g>
<text xml:space="preserve" text-anchor="start" x="143.5" y="-316.45" font-family="Arial" font-size="9.00" fill="grey">&lt; DriverMode::DMA &gt;</text>
</g>
<!-- Node3 -->
<g id="Node000003" class="node">
<title>Node3</title>
<g id="a_Node000003"><a xlink:href="../../d4/d20/class_lib_1_1_h_a_l_1_1_u_a_r_t_1_1_port.html" target="_top" xlink:title=" ">
<polygon fill="white" stroke="none" points="207.5,-175.75 115.5,-175.75 115.5,-117.75 207.5,-117.75 207.5,-175.75"/>
<text xml:space="preserve" text-anchor="start" x="119.5" y="-163.2" font-family="Arial" font-size="9.00">Lib::HAL::UART::Port</text>
<text xml:space="preserve" text-anchor="start" x="124" y="-152.7" font-family="Arial" font-size="9.00">&lt; DriverMode::IT &gt;</text>
<text xml:space="preserve" text-anchor="start" x="160.38" y="-138.2" font-family="Arial" font-size="9.00"> </text>
<text xml:space="preserve" text-anchor="start" x="160.38" y="-123.7" font-family="Arial" font-size="9.00"> </text>
<polygon fill="#666666" stroke="#666666" points="115.5,-148.75 115.5,-148.75 207.5,-148.75 207.5,-148.75 115.5,-148.75"/>
<polygon fill="#666666" stroke="#666666" points="115.5,-134.25 115.5,-134.25 207.5,-134.25 207.5,-134.25 115.5,-134.25"/>
<polygon fill="none" stroke="#666666" points="115.5,-117.75 115.5,-175.75 207.5,-175.75 207.5,-117.75 115.5,-117.75"/>
</a>
</g>
</g>
<!-- Node1&#45;&gt;Node3 -->
<g id="edge2_Node000001_Node000003" class="edge">
<title>Node1&#45;&gt;Node3</title>
<g id="a_edge2_Node000001_Node000003"><a xlink:title=" ">
<path fill="none" stroke="orange" d="M355.59,-363.48C312.26,-352.73 253.88,-331.97 216.5,-293.5 184.74,-260.81 170.96,-208.01 165.25,-175.74"/>
<polygon fill="orange" stroke="orange" points="354.53,-366.82 365.07,-365.71 356.14,-360.01 354.53,-366.82"/>
</a>
</g>
<text xml:space="preserve" text-anchor="start" x="265.08" y="-316.45" font-family="Arial" font-size="9.00" fill="grey">&lt; DriverMode::IT &gt;</text>
</g>
<!-- Node4 -->
<g id="Node000004" class="node">
<title>Node4</title>
<g id="a_Node000004"><a xlink:href="../../d3/d98/class_lib_1_1_h_a_l_1_1_u_a_r_t_1_1_port_3_01_d_m_a_01_4.html" target="_top" xlink:title="UART port implementation using DMA.">
<polygon fill="white" stroke="none" points="403.38,-293.5 225.62,-293.5 225.62,0 403.38,0 403.38,-293.5"/>
<text xml:space="preserve" text-anchor="start" x="272.5" y="-280.95" font-family="Arial" font-size="9.00">Lib::HAL::UART::Port</text>
<text xml:space="preserve" text-anchor="start" x="297.25" y="-270.45" font-family="Arial" font-size="9.00">&lt; DMA &gt;</text>
<text xml:space="preserve" text-anchor="start" x="313.38" y="-255.95" font-family="Arial" font-size="9.00"> </text>
<text xml:space="preserve" text-anchor="start" x="229.62" y="-241.45" font-family="Arial" font-size="9.00">+</text>
<text xml:space="preserve" text-anchor="start" x="238.88" y="-241.45" font-family="Arial" font-size="9.00">Port(UART_HandleTypeDef</text>
<text xml:space="preserve" text-anchor="start" x="238.88" y="-230.95" font-family="Arial" font-size="9.00"> *uartHandle, DriverDataDirection</text>
<text xml:space="preserve" text-anchor="start" x="238.88" y="-220.45" font-family="Arial" font-size="9.00"> direction=DriverDataDirection::RX_TX)</text>
<text xml:space="preserve" text-anchor="start" x="229.62" y="-205.95" font-family="Arial" font-size="9.00">+</text>
<text xml:space="preserve" text-anchor="start" x="238.88" y="-205.95" font-family="Arial" font-size="9.00">~Port()=default</text>
<text xml:space="preserve" text-anchor="start" x="229.62" y="-191.45" font-family="Arial" font-size="9.00">+</text>
<text xml:space="preserve" text-anchor="start" x="238.88" y="-191.45" font-family="Arial" font-size="9.00">void open() override</text>
<text xml:space="preserve" text-anchor="start" x="229.62" y="-176.95" font-family="Arial" font-size="9.00">+</text>
<text xml:space="preserve" text-anchor="start" x="238.88" y="-176.95" font-family="Arial" font-size="9.00">void close() override</text>
<text xml:space="preserve" text-anchor="start" x="229.62" y="-162.45" font-family="Arial" font-size="9.00">+</text>
<text xml:space="preserve" text-anchor="start" x="238.88" y="-162.45" font-family="Arial" font-size="9.00">bool send(const void</text>
<text xml:space="preserve" text-anchor="start" x="238.88" y="-151.95" font-family="Arial" font-size="9.00"> *source, size_t length,</text>
<text xml:space="preserve" text-anchor="start" x="238.88" y="-141.45" font-family="Arial" font-size="9.00"> uint32_t timeout) override</text>
<text xml:space="preserve" text-anchor="start" x="229.62" y="-126.95" font-family="Arial" font-size="9.00">+</text>
<text xml:space="preserve" text-anchor="start" x="238.88" y="-126.95" font-family="Arial" font-size="9.00">size_t receive(uint8</text>
<text xml:space="preserve" text-anchor="start" x="238.88" y="-116.45" font-family="Arial" font-size="9.00">_t *destination, size</text>
<text xml:space="preserve" text-anchor="start" x="238.88" y="-105.95" font-family="Arial" font-size="9.00">_t length, uint32_t timeout)</text>
<text xml:space="preserve" text-anchor="start" x="238.88" y="-95.45" font-family="Arial" font-size="9.00"> override</text>
<text xml:space="preserve" text-anchor="start" x="229.62" y="-80.95" font-family="Arial" font-size="9.00">+</text>
<text xml:space="preserve" text-anchor="start" x="238.88" y="-80.95" font-family="Arial" font-size="9.00">void beginReceive()</text>
<text xml:space="preserve" text-anchor="start" x="238.88" y="-70.45" font-family="Arial" font-size="9.00"> override</text>
<text xml:space="preserve" text-anchor="start" x="229.62" y="-55.95" font-family="Arial" font-size="9.00">+</text>
<text xml:space="preserve" text-anchor="start" x="238.88" y="-55.95" font-family="Arial" font-size="9.00">void abort() override</text>
<text xml:space="preserve" text-anchor="start" x="229.62" y="-41.45" font-family="Arial" font-size="9.00">+</text>
<text xml:space="preserve" text-anchor="start" x="238.88" y="-41.45" font-family="Arial" font-size="9.00">void setBaudrate(uint32</text>
<text xml:space="preserve" text-anchor="start" x="238.88" y="-30.95" font-family="Arial" font-size="9.00">_t baudRate) override</text>
<text xml:space="preserve" text-anchor="start" x="229.62" y="-16.45" font-family="Arial" font-size="9.00">+</text>
<text xml:space="preserve" text-anchor="start" x="238.88" y="-16.45" font-family="Arial" font-size="9.00">uint32_t getBaudrate</text>
<text xml:space="preserve" text-anchor="start" x="238.88" y="-5.95" font-family="Arial" font-size="9.00">() const override</text>
<polygon fill="#666666" stroke="#666666" points="225.62,-266.5 225.62,-266.5 403.38,-266.5 403.38,-266.5 225.62,-266.5"/>
<polygon fill="#666666" stroke="#666666" points="225.62,-252 225.62,-252 403.38,-252 403.38,-252 225.62,-252"/>
<polygon fill="none" stroke="#666666" points="225.62,0 225.62,-293.5 403.38,-293.5 403.38,0 225.62,0"/>
</a>
</g>
</g>
<!-- Node1&#45;&gt;Node4 -->
<g id="edge3_Node000001_Node000004" class="edge">
<title>Node1&#45;&gt;Node4</title>
<g id="a_edge3_Node000001_Node000004"><a xlink:title=" ">
<path fill="none" stroke="orange" d="M396,-335.92C390.61,-323.47 384.26,-308.81 377.53,-293.26"/>
<polygon fill="orange" stroke="orange" points="392.7,-337.08 399.88,-344.87 399.12,-334.3 392.7,-337.08"/>
</a>
</g>
<text xml:space="preserve" text-anchor="start" x="394.33" y="-316.45" font-family="Arial" font-size="9.00" fill="grey">&lt; DMA &gt;</text>
</g>
<!-- Node5 -->
<g id="Node000005" class="node">
<title>Node5</title>
<g id="a_Node000005"><a xlink:href="../../d3/d03/class_lib_1_1_h_a_l_1_1_u_a_r_t_1_1_port_3_01_i_t_01_4.html" target="_top" xlink:title="UART port implementation using interrupts.">
<polygon fill="white" stroke="none" points="599.38,-293.5 421.62,-293.5 421.62,0 599.38,0 599.38,-293.5"/>
<text xml:space="preserve" text-anchor="start" x="468.5" y="-280.95" font-family="Arial" font-size="9.00">Lib::HAL::UART::Port</text>
<text xml:space="preserve" text-anchor="start" x="499.25" y="-270.45" font-family="Arial" font-size="9.00">&lt; IT &gt;</text>
<text xml:space="preserve" text-anchor="start" x="509.38" y="-255.95" font-family="Arial" font-size="9.00"> </text>
<text xml:space="preserve" text-anchor="start" x="425.62" y="-241.45" font-family="Arial" font-size="9.00">+</text>
<text xml:space="preserve" text-anchor="start" x="434.88" y="-241.45" font-family="Arial" font-size="9.00">Port(UART_HandleTypeDef</text>
<text xml:space="preserve" text-anchor="start" x="434.88" y="-230.95" font-family="Arial" font-size="9.00"> *uartHandle, DriverDataDirection</text>
<text xml:space="preserve" text-anchor="start" x="434.88" y="-220.45" font-family="Arial" font-size="9.00"> direction=DriverDataDirection::RX_TX)</text>
<text xml:space="preserve" text-anchor="start" x="425.62" y="-205.95" font-family="Arial" font-size="9.00">+</text>
<text xml:space="preserve" text-anchor="start" x="434.88" y="-205.95" font-family="Arial" font-size="9.00">~Port()=default</text>
<text xml:space="preserve" text-anchor="start" x="425.62" y="-191.45" font-family="Arial" font-size="9.00">+</text>
<text xml:space="preserve" text-anchor="start" x="434.88" y="-191.45" font-family="Arial" font-size="9.00">void open() override</text>
<text xml:space="preserve" text-anchor="start" x="425.62" y="-176.95" font-family="Arial" font-size="9.00">+</text>
<text xml:space="preserve" text-anchor="start" x="434.88" y="-176.95" font-family="Arial" font-size="9.00">void close() override</text>
<text xml:space="preserve" text-anchor="start" x="425.62" y="-162.45" font-family="Arial" font-size="9.00">+</text>
<text xml:space="preserve" text-anchor="start" x="434.88" y="-162.45" font-family="Arial" font-size="9.00">bool send(const void</text>
<text xml:space="preserve" text-anchor="start" x="434.88" y="-151.95" font-family="Arial" font-size="9.00"> *source, size_t length,</text>
<text xml:space="preserve" text-anchor="start" x="434.88" y="-141.45" font-family="Arial" font-size="9.00"> uint32_t timeout) override</text>
<text xml:space="preserve" text-anchor="start" x="425.62" y="-126.95" font-family="Arial" font-size="9.00">+</text>
<text xml:space="preserve" text-anchor="start" x="434.88" y="-126.95" font-family="Arial" font-size="9.00">size_t receive(uint8</text>
<text xml:space="preserve" text-anchor="start" x="434.88" y="-116.45" font-family="Arial" font-size="9.00">_t *destination, size</text>
<text xml:space="preserve" text-anchor="start" x="434.88" y="-105.95" font-family="Arial" font-size="9.00">_t length, uint32_t timeout)</text>
<text xml:space="preserve" text-anchor="start" x="434.88" y="-95.45" font-family="Arial" font-size="9.00"> override</text>
<text xml:space="preserve" text-anchor="start" x="425.62" y="-80.95" font-family="Arial" font-size="9.00">+</text>
<text xml:space="preserve" text-anchor="start" x="434.88" y="-80.95" font-family="Arial" font-size="9.00">void beginReceive()</text>
<text xml:space="preserve" text-anchor="start" x="434.88" y="-70.45" font-family="Arial" font-size="9.00"> override</text>
<text xml:space="preserve" text-anchor="start" x="425.62" y="-55.95" font-family="Arial" font-size="9.00">+</text>
<text xml:space="preserve" text-anchor="start" x="434.88" y="-55.95" font-family="Arial" font-size="9.00">void abort() override</text>
<text xml:space="preserve" text-anchor="start" x="425.62" y="-41.45" font-family="Arial" font-size="9.00">+</text>
<text xml:space="preserve" text-anchor="start" x="434.88" y="-41.45" font-family="Arial" font-size="9.00">void setBaudrate(uint32</text>
<text xml:space="preserve" text-anchor="start" x="434.88" y="-30.95" font-family="Arial" font-size="9.00">_t baudRate) override</text>
<text xml:space="preserve" text-anchor="start" x="425.62" y="-16.45" font-family="Arial" font-size="9.00">+</text>
<text xml:space="preserve" text-anchor="start" x="434.88" y="-16.45" font-family="Arial" font-size="9.00">uint32_t getBaudrate</text>
<text xml:space="preserve" text-anchor="start" x="434.88" y="-5.95" font-family="Arial" font-size="9.00">() const override</text>
<polygon fill="#666666" stroke="#666666" points="421.62,-266.5 421.62,-266.5 599.38,-266.5 599.38,-266.5 421.62,-266.5"/>
<polygon fill="#666666" stroke="#666666" points="421.62,-252 421.62,-252 599.38,-252 599.38,-252 421.62,-252"/>
<polygon fill="none" stroke="#666666" points="421.62,0 421.62,-293.5 599.38,-293.5 599.38,0 421.62,0"/>
</a>
</g>
</g>
<!-- Node1&#45;&gt;Node5 -->
<g id="edge4_Node000001_Node000005" class="edge">
<title>Node1&#45;&gt;Node5</title>
<g id="a_edge4_Node000001_Node000005"><a xlink:title=" ">
<path fill="none" stroke="orange" d="M431.6,-336.33C432.94,-333.52 434.25,-330.72 435.5,-328 440.65,-316.75 445.85,-305.04 450.99,-293.24"/>
<polygon fill="orange" stroke="orange" points="428.58,-334.54 427.34,-345.06 434.87,-337.6 428.58,-334.54"/>
</a>
</g>
<text xml:space="preserve" text-anchor="start" x="445.02" y="-316.45" font-family="Arial" font-size="9.00" fill="grey">&lt; IT &gt;</text>
</g>
<!-- Node6 -->
<g id="Node000006" class="node">
<title>Node6</title>
<g id="a_Node000006"><a xlink:href="../../d4/d20/class_lib_1_1_h_a_l_1_1_u_a_r_t_1_1_port.html" target="_top" xlink:title=" ">
<polygon fill="white" stroke="none" points="709.5,-175.75 617.5,-175.75 617.5,-117.75 709.5,-117.75 709.5,-175.75"/>
<text xml:space="preserve" text-anchor="start" x="621.5" y="-163.2" font-family="Arial" font-size="9.00">Lib::HAL::UART::Port</text>
<text xml:space="preserve" text-anchor="start" x="632.38" y="-152.7" font-family="Arial" font-size="9.00">&lt; Lib::HAL::IT &gt;</text>
<text xml:space="preserve" text-anchor="start" x="662.38" y="-138.2" font-family="Arial" font-size="9.00"> </text>
<text xml:space="preserve" text-anchor="start" x="662.38" y="-123.7" font-family="Arial" font-size="9.00"> </text>
<polygon fill="#666666" stroke="#666666" points="617.5,-148.75 617.5,-148.75 709.5,-148.75 709.5,-148.75 617.5,-148.75"/>
<polygon fill="#666666" stroke="#666666" points="617.5,-134.25 617.5,-134.25 709.5,-134.25 709.5,-134.25 617.5,-134.25"/>
<polygon fill="none" stroke="#666666" points="617.5,-117.75 617.5,-175.75 709.5,-175.75 709.5,-117.75 617.5,-117.75"/>
</a>
</g>
</g>
<!-- Node1&#45;&gt;Node6 -->
<g id="edge5_Node000001_Node000006" class="edge">
<title>Node1&#45;&gt;Node6</title>
<g id="a_edge5_Node000001_Node000006"><a xlink:title=" ">
<path fill="none" stroke="orange" d="M469.41,-363.48C512.74,-352.73 571.12,-331.97 608.5,-293.5 640.26,-260.81 654.04,-208.01 659.75,-175.74"/>
<polygon fill="orange" stroke="orange" points="468.86,-360.01 459.93,-365.71 470.47,-366.82 468.86,-360.01"/>
</a>
</g>
<text xml:space="preserve" text-anchor="start" x="590.07" y="-316.45" font-family="Arial" font-size="9.00" fill="grey">&lt; Lib::HAL::IT &gt;</text>
</g>
<!-- Node7 -->
<g id="Node000007" class="node">
<title>Node7</title>
<g id="a_Node000007"><a xlink:href="../../d4/d20/class_lib_1_1_h_a_l_1_1_u_a_r_t_1_1_port.html" target="_top" xlink:title=" ">
<polygon fill="white" stroke="none" points="819.5,-175.75 727.5,-175.75 727.5,-117.75 819.5,-117.75 819.5,-175.75"/>
<text xml:space="preserve" text-anchor="start" x="731.5" y="-163.2" font-family="Arial" font-size="9.00">Lib::HAL::UART::Port</text>
<text xml:space="preserve" text-anchor="start" x="736.38" y="-152.7" font-family="Arial" font-size="9.00">&lt; Lib::HAL::DMA &gt;</text>
<text xml:space="preserve" text-anchor="start" x="772.38" y="-138.2" font-family="Arial" font-size="9.00"> </text>
<text xml:space="preserve" text-anchor="start" x="772.38" y="-123.7" font-family="Arial" font-size="9.00"> </text>
<polygon fill="#666666" stroke="#666666" points="727.5,-148.75 727.5,-148.75 819.5,-148.75 819.5,-148.75 727.5,-148.75"/>
<polygon fill="#666666" stroke="#666666" points="727.5,-134.25 727.5,-134.25 819.5,-134.25 819.5,-134.25 727.5,-134.25"/>
<polygon fill="none" stroke="#666666" points="727.5,-117.75 727.5,-175.75 819.5,-175.75 819.5,-117.75 727.5,-117.75"/>
</a>
</g>
</g>
<!-- Node1&#45;&gt;Node7 -->
<g id="edge6_Node000001_Node000007" class="edge">
<title>Node1&#45;&gt;Node7</title>
<g id="a_edge6_Node000001_Node000007"><a xlink:title=" ">
<path fill="none" stroke="orange" d="M469.51,-369.01C520.55,-363.24 596.8,-351.36 659.5,-328 687.96,-317.4 698.9,-316.71 718.5,-293.5 747.73,-258.89 762.25,-207.17 768.8,-175.55"/>
<polygon fill="orange" stroke="orange" points="469.45,-365.5 459.88,-370.06 470.2,-372.46 469.45,-365.5"/>
</a>
</g>
<text xml:space="preserve" text-anchor="start" x="701.47" y="-316.45" font-family="Arial" font-size="9.00" fill="grey">&lt; Lib::HAL::DMA &gt;</text>
</g>
</g>
</svg>
