<?xml version="1.0" encoding="UTF-8" standalone="no"?>
<!DOCTYPE svg PUBLIC "-//W3C//DTD SVG 1.1//EN"
 "http://www.w3.org/Graphics/SVG/1.1/DTD/svg11.dtd">
<!-- Generated by graphviz version 13.1.0 (20250701.0955)
 -->
<!-- Title: Lib::HAL::SPI::Master::Port&lt; BLOCK &gt; Pages: 1 -->
<svg width="338pt" height="195pt"
 viewBox="0.00 0.00 338.00 195.00" xmlns="http://www.w3.org/2000/svg" xmlns:xlink="http://www.w3.org/1999/xlink">
<g id="graph0" class="graph" transform="scale(1 1) rotate(0) translate(4 191)">
<title>Lib::HAL::SPI::Master::Port&lt; BLOCK &gt;</title>
<!-- Node1 -->
<g id="Node000001" class="node">
<title>Node1</title>
<g id="a_Node000001"><a xlink:title="SPI master port specialization for BLOCK mode.">
<polygon fill="#999999" stroke="none" points="200.62,-32 95.88,-32 95.88,0 200.62,0 200.62,-32"/>
<text xml:space="preserve" text-anchor="start" x="99.88" y="-18.5" font-family="Helvetica,sans-Serif" font-size="10.00">Lib::HAL::SPI::Master</text>
<text xml:space="preserve" text-anchor="start" x="110.38" y="-6.5" font-family="Helvetica,sans-Serif" font-size="10.00">::Port&lt; BLOCK &gt;</text>
<polygon fill="none" stroke="#666666" points="95.88,0 95.88,-32 200.62,-32 200.62,0 95.88,0"/>
</a>
</g>
</g>
<!-- Node2 -->
<g id="Node000002" class="node">
<title>Node2</title>
<g id="a_Node000002"><a xlink:href="../../d5/d1f/class_lib_1_1_h_a_l_1_1_s_p_i_1_1_master_1_1_base.html" target="_top" xlink:title="Abstract SPI master base class.">
<polygon fill="white" stroke="none" points="200.62,-101 95.88,-101 95.88,-69 200.62,-69 200.62,-101"/>
<text xml:space="preserve" text-anchor="start" x="99.88" y="-87.5" font-family="Helvetica,sans-Serif" font-size="10.00">Lib::HAL::SPI::Master</text>
<text xml:space="preserve" text-anchor="start" x="134" y="-75.5" font-family="Helvetica,sans-Serif" font-size="10.00">::Base</text>
<polygon fill="none" stroke="#666666" points="95.88,-69 95.88,-101 200.62,-101 200.62,-69 95.88,-69"/>
</a>
</g>
</g>
<!-- Node2&#45;&gt;Node1 -->
<g id="edge1_Node000001_Node000002" class="edge">
<title>Node2&#45;&gt;Node1</title>
<g id="a_edge1_Node000001_Node000002"><a xlink:title=" ">
<path fill="none" stroke="#63b8ff" d="M148.25,-57.79C148.25,-48.98 148.25,-39.45 148.25,-31.83"/>
<polygon fill="none" stroke="#63b8ff" points="144.75,-57.62 148.25,-67.62 151.75,-57.62 144.75,-57.62"/>
</a>
</g>
</g>
<!-- Node3 -->
<g id="Node000003" class="node">
<title>Node3</title>
<g id="a_Node000003"><a xlink:href="../../de/d0a/class_lib_1_1_h_a_l_1_1_handle.html" target="_top" xlink:title=" ">
<polygon fill="white" stroke="none" points="108.5,-187 0,-187 0,-155 108.5,-155 108.5,-187"/>
<text xml:space="preserve" text-anchor="start" x="4" y="-173.5" font-family="Helvetica,sans-Serif" font-size="10.00">Lib::HAL::Handle&lt; SPI</text>
<text xml:space="preserve" text-anchor="start" x="13.38" y="-161.5" font-family="Helvetica,sans-Serif" font-size="10.00">_HandleTypeDef &gt;</text>
<polygon fill="none" stroke="#666666" points="0,-155 0,-187 108.5,-187 108.5,-155 0,-155"/>
</a>
</g>
</g>
<!-- Node3&#45;&gt;Node2 -->
<g id="edge2_Node000002_Node000003" class="edge">
<title>Node3&#45;&gt;Node2</title>
<g id="a_edge2_Node000002_Node000003"><a xlink:title=" ">
<path fill="none" stroke="darkgreen" d="M78.83,-148.03C95.51,-133.13 117.11,-113.83 131.75,-100.75"/>
<polygon fill="none" stroke="darkgreen" points="76.88,-145.09 71.75,-154.36 81.54,-150.31 76.88,-145.09"/>
</a>
</g>
</g>
<!-- Node4 -->
<g id="Node000004" class="node">
<title>Node4</title>
<g id="a_Node000004"><a xlink:title=" ">
<polygon fill="white" stroke="none" points="169.5,-181 127,-181 127,-161 169.5,-161 169.5,-181"/>
<text xml:space="preserve" text-anchor="start" x="131" y="-167.5" font-family="Helvetica,sans-Serif" font-size="10.00">uint32_t</text>
<polygon fill="none" stroke="#bfbfbf" points="127,-161 127,-181 169.5,-181 169.5,-161 127,-161"/>
</a>
</g>
</g>
<!-- Node4&#45;&gt;Node2 -->
<g id="edge3_Node000002_Node000004" class="edge">
<title>Node4&#45;&gt;Node2</title>
<g id="a_edge3_Node000002_Node000004"><a xlink:title=" ">
<path fill="none" stroke="#63b8ff" d="M148.25,-161.01C148.25,-149.77 148.25,-130 148.25,-113.58"/>
<polygon fill="none" stroke="#63b8ff" points="148.25,-113.74 144.25,-107.74 148.25,-101.74 152.25,-107.74 148.25,-113.74"/>
</a>
</g>
<text xml:space="preserve" text-anchor="start" x="151.25" y="-124.5" font-family="Helvetica,sans-Serif" font-size="10.00" fill="grey">+DEFAULT_TIMEOUT</text>
</g>
<!-- Node5 -->
<g id="Node000005" class="node">
<title>Node5</title>
<g id="a_Node000005"><a xlink:title=" ">
<polygon fill="white" stroke="none" points="330.25,-181 226.25,-181 226.25,-161 330.25,-161 330.25,-181"/>
<text xml:space="preserve" text-anchor="start" x="230.25" y="-167.5" font-family="Helvetica,sans-Serif" font-size="10.00">SPI_HandleTypeDef *</text>
<polygon fill="none" stroke="#bfbfbf" points="226.25,-161 226.25,-181 330.25,-181 330.25,-161 226.25,-161"/>
</a>
</g>
</g>
<!-- Node5&#45;&gt;Node2 -->
<g id="edge4_Node000002_Node000005" class="edge">
<title>Node5&#45;&gt;Node2</title>
<g id="a_edge4_Node000002_Node000005"><a xlink:title=" ">
<path fill="none" stroke="#63b8ff" d="M276.77,-161.1C274.42,-149.73 268.75,-130.19 256.25,-119 244.09,-108.12 228.42,-100.82 212.8,-95.93"/>
<polygon fill="none" stroke="#63b8ff" points="212.8,-95.93 205.95,-98.19 201.23,-92.74 208.08,-90.48 212.8,-95.93"/>
</a>
</g>
<text xml:space="preserve" text-anchor="start" x="271.47" y="-124.5" font-family="Helvetica,sans-Serif" font-size="10.00" fill="grey">#handle</text>
</g>
</g>
</svg>
