<?xml version="1.0" encoding="UTF-8" standalone="no"?>
<!DOCTYPE svg PUBLIC "-//W3C//DTD SVG 1.1//EN"
 "http://www.w3.org/Graphics/SVG/1.1/DTD/svg11.dtd">
<!-- Generated by graphviz version 13.1.0 (20250701.0955)
 -->
<!-- Title: Lib::HAL::TIM::Timer&lt; Mode::ENCODER &gt; Pages: 1 -->
<svg width="230pt" height="108pt"
 viewBox="0.00 0.00 230.00 108.00" xmlns="http://www.w3.org/2000/svg" xmlns:xlink="http://www.w3.org/1999/xlink">
<g id="graph0" class="graph" transform="scale(1 1) rotate(0) translate(4 104)">
<title>Lib::HAL::TIM::Timer&lt; Mode::ENCODER &gt;</title>
<!-- Node1 -->
<g id="Node000001" class="node">
<title>Node1</title>
<g id="a_Node000001"><a xlink:title="Timer specialization for encoder mode.">
<polygon fill="#999999" stroke="none" points="150.38,-29 53.88,-29 53.88,0 150.38,0 150.38,-29"/>
<text xml:space="preserve" text-anchor="start" x="57.88" y="-16.45" font-family="Arial" font-size="9.00">Lib::HAL::TIM::Timer</text>
<text xml:space="preserve" text-anchor="start" x="57.88" y="-5.95" font-family="Arial" font-size="9.00">&lt; Mode::ENCODER &gt;</text>
<polygon fill="none" stroke="#666666" points="53.88,0 53.88,-29 150.38,-29 150.38,0 53.88,0"/>
</a>
</g>
</g>
<!-- Node2 -->
<g id="Node000002" class="node">
<title>Node2</title>
<g id="a_Node000002"><a xlink:href="../../d6/df0/a01647.html" target="_top" xlink:title="Abstract base class for STM32 TIM HAL device management.">
<polygon fill="white" stroke="none" points="88.25,-100 0,-100 0,-81.5 88.25,-81.5 88.25,-100"/>
<text xml:space="preserve" text-anchor="start" x="4" y="-87.45" font-family="Arial" font-size="9.00">Lib::HAL::TIM::Base</text>
<polygon fill="none" stroke="#666666" points="0,-81.5 0,-100 88.25,-100 88.25,-81.5 0,-81.5"/>
</a>
</g>
</g>
<!-- Node2&#45;&gt;Node1 -->
<g id="edge1_Node000001_Node000002" class="edge">
<title>Node2&#45;&gt;Node1</title>
<g id="a_edge1_Node000001_Node000002"><a xlink:title=" ">
<path fill="none" stroke="#63b8ff" d="M57.34,-72.84C67.78,-59.47 82.14,-41.09 91.76,-28.77"/>
<polygon fill="none" stroke="#63b8ff" points="54.88,-70.29 51.49,-80.33 60.4,-74.6 54.88,-70.29"/>
</a>
</g>
</g>
<!-- Node3 -->
<g id="Node000003" class="node">
<title>Node3</title>
<g id="a_Node000003"><a xlink:title=" ">
<polygon fill="white" stroke="none" points="215.75,-100 106.5,-100 106.5,-81.5 215.75,-81.5 215.75,-100"/>
<text xml:space="preserve" text-anchor="start" x="110.5" y="-87.45" font-family="Arial" font-size="9.00">function&lt; void(uint32_t)&gt;</text>
<polygon fill="none" stroke="#bfbfbf" points="106.5,-81.5 106.5,-100 215.75,-100 215.75,-81.5 106.5,-81.5"/>
</a>
</g>
</g>
<!-- Node3&#45;&gt;Node1 -->
<g id="edge2_Node000001_Node000003" class="edge">
<title>Node3&#45;&gt;Node1</title>
<g id="a_edge2_Node000001_Node000003"><a xlink:title=" ">
<path fill="none" stroke="#63b8ff" d="M154.59,-81.52C146.43,-71.25 132.13,-53.26 120.52,-38.65"/>
<polygon fill="none" stroke="#63b8ff" points="120.7,-38.87 113.83,-36.66 113.23,-29.48 120.1,-31.69 120.7,-38.87"/>
</a>
</g>
<text xml:space="preserve" text-anchor="start" x="141.64" y="-51.95" font-family="Arial" font-size="9.00" fill="grey">+onValueChanged</text>
</g>
</g>
</svg>
