<?xml version="1.0" encoding="UTF-8" standalone="no"?>
<!DOCTYPE svg PUBLIC "-//W3C//DTD SVG 1.1//EN"
 "http://www.w3.org/Graphics/SVG/1.1/DTD/svg11.dtd">
<!-- Generated by graphviz version 13.1.0 (20250701.0955)
 -->
<!-- Title: RTOS::TickService::start Pages: 1 -->
<svg width="274pt" height="216pt"
 viewBox="0.00 0.00 274.00 216.00" xmlns="http://www.w3.org/2000/svg" xmlns:xlink="http://www.w3.org/1999/xlink">
<g id="graph0" class="graph" transform="scale(1 1) rotate(0) translate(4 212)">
<title>RTOS::TickService::start</title>
<!-- Node1 -->
<g id="Node000001" class="node">
<title>Node1</title>
<g id="a_Node000001"><a xlink:title="Start the periodic tick event dispatch loop.">
<polygon fill="#999999" stroke="#666666" points="106.75,-132 0,-132 0,-100 106.75,-100 106.75,-132"/>
<text xml:space="preserve" text-anchor="start" x="8" y="-118.5" font-family="Helvetica,sans-Serif" font-size="10.00">RTOS::TickService::</text>
<text xml:space="preserve" text-anchor="middle" x="53.38" y="-106.5" font-family="Helvetica,sans-Serif" font-size="10.00">start</text>
</a>
</g>
</g>
<!-- Node2 -->
<g id="Node000002" class="node">
<title>Node2</title>
<g id="a_Node000002"><a xlink:href="../../d7/ded/a00196.html#a9cde35c56ca506098def0231a988e60b" target="_top" xlink:title="Delays the current task for a specified number of ticks.">
<polygon fill="white" stroke="#666666" points="266,-208 142.75,-208 142.75,-188 266,-188 266,-208"/>
<text xml:space="preserve" text-anchor="middle" x="204.38" y="-194.5" font-family="Helvetica,sans-Serif" font-size="10.00">RTOS::Task::delayTicks</text>
</a>
</g>
</g>
<!-- Node1&#45;&gt;Node2 -->
<g id="edge1_Node000001_Node000002" class="edge">
<title>Node1&#45;&gt;Node2</title>
<g id="a_edge1_Node000001_Node000002"><a xlink:title=" ">
<path fill="none" stroke="#63b8ff" d="M73.58,-132.43C90.76,-146.43 117.11,-166.25 142.75,-179 146.06,-180.65 149.54,-182.19 153.09,-183.62"/>
<polygon fill="#63b8ff" stroke="#63b8ff" points="151.84,-186.89 162.43,-187.08 154.27,-180.32 151.84,-186.89"/>
</a>
</g>
</g>
<!-- Node3 -->
<g id="Node000003" class="node">
<title>Node3</title>
<g id="a_Node000003"><a xlink:href="../../d1/d72/a00204.html#a0fe8362c851a572e236d8c4978c0677a" target="_top" xlink:title="Returns the current tick count (task context).">
<polygon fill="white" stroke="#666666" points="265.25,-170 143.5,-170 143.5,-150 265.25,-150 265.25,-170"/>
<text xml:space="preserve" text-anchor="middle" x="204.38" y="-156.5" font-family="Helvetica,sans-Serif" font-size="10.00">RTOS::TickCounter::get</text>
</a>
</g>
</g>
<!-- Node1&#45;&gt;Node3 -->
<g id="edge2_Node000001_Node000003" class="edge">
<title>Node1&#45;&gt;Node3</title>
<g id="a_edge2_Node000001_Node000003"><a xlink:title=" ">
<path fill="none" stroke="#63b8ff" d="M106.91,-131.51C123.38,-136.38 141.43,-141.71 157.41,-146.43"/>
<polygon fill="#63b8ff" stroke="#63b8ff" points="156.07,-149.68 166.65,-149.16 158.05,-142.97 156.07,-149.68"/>
</a>
</g>
</g>
<!-- Node4 -->
<g id="Node000004" class="node">
<title>Node4</title>
<g id="a_Node000004"><a xlink:href="../../d1/d72/a00204.html#ad6915fe87c8e6127f5357b1a5eeb12e2" target="_top" xlink:title="Returns elapsed ticks since a given start tick.">
<polygon fill="white" stroke="#666666" points="261.12,-132 147.62,-132 147.62,-100 261.12,-100 261.12,-132"/>
<text xml:space="preserve" text-anchor="start" x="155.62" y="-118.5" font-family="Helvetica,sans-Serif" font-size="10.00">RTOS::TickCounter::</text>
<text xml:space="preserve" text-anchor="middle" x="204.38" y="-106.5" font-family="Helvetica,sans-Serif" font-size="10.00">getElapsedTicksSince</text>
</a>
</g>
</g>
<!-- Node1&#45;&gt;Node4 -->
<g id="edge3_Node000001_Node000004" class="edge">
<title>Node1&#45;&gt;Node4</title>
<g id="a_edge3_Node000001_Node000004"><a xlink:title=" ">
<path fill="none" stroke="#63b8ff" d="M106.91,-116C116.3,-116 126.21,-116 135.95,-116"/>
<polygon fill="#63b8ff" stroke="#63b8ff" points="135.76,-119.5 145.76,-116 135.76,-112.5 135.76,-119.5"/>
</a>
</g>
</g>
<!-- Node5 -->
<g id="Node000005" class="node">
<title>Node5</title>
<g id="a_Node000005"><a xlink:href="../../dc/d31/a00208.html#a2b5b44562ccf4a0b03bd2eb38a071f81" target="_top" xlink:title="Check if the tick service is running.">
<polygon fill="white" stroke="#666666" points="257.75,-82 151,-82 151,-50 257.75,-50 257.75,-82"/>
<text xml:space="preserve" text-anchor="start" x="159" y="-68.5" font-family="Helvetica,sans-Serif" font-size="10.00">RTOS::TickService::</text>
<text xml:space="preserve" text-anchor="middle" x="204.38" y="-56.5" font-family="Helvetica,sans-Serif" font-size="10.00">isRunning</text>
</a>
</g>
</g>
<!-- Node1&#45;&gt;Node5 -->
<g id="edge4_Node000001_Node000005" class="edge">
<title>Node1&#45;&gt;Node5</title>
<g id="a_edge4_Node000001_Node000005"><a xlink:title=" ">
<path fill="none" stroke="#63b8ff" d="M103.16,-99.63C116.09,-95.29 130.19,-90.56 143.63,-86.05"/>
<polygon fill="#63b8ff" stroke="#63b8ff" points="144.42,-89.48 152.79,-82.98 142.19,-82.84 144.42,-89.48"/>
</a>
</g>
</g>
<!-- Node6 -->
<g id="Node000006" class="node">
<title>Node6</title>
<g id="a_Node000006"><a xlink:href="../../d1/d72/a00204.html#ac0cef5f74597d9fd2e71b9eed937365d" target="_top" xlink:title="Converts milliseconds to FreeRTOS ticks.">
<polygon fill="white" stroke="#666666" points="258.5,-32 150.25,-32 150.25,0 258.5,0 258.5,-32"/>
<text xml:space="preserve" text-anchor="start" x="158.25" y="-18.5" font-family="Helvetica,sans-Serif" font-size="10.00">RTOS::TickCounter::</text>
<text xml:space="preserve" text-anchor="middle" x="204.38" y="-6.5" font-family="Helvetica,sans-Serif" font-size="10.00">msToTicks</text>
</a>
</g>
</g>
<!-- Node1&#45;&gt;Node6 -->
<g id="edge5_Node000001_Node000006" class="edge">
<title>Node1&#45;&gt;Node6</title>
<g id="a_edge5_Node000001_Node000006"><a xlink:title=" ">
<path fill="none" stroke="#63b8ff" d="M70.42,-99.65C87.26,-83.18 115.09,-57.86 142.75,-41 144.65,-39.84 146.6,-38.72 148.61,-37.63"/>
<polygon fill="#63b8ff" stroke="#63b8ff" points="150.16,-40.76 157.52,-33.14 147.01,-34.51 150.16,-40.76"/>
</a>
</g>
</g>
</g>
</svg>
