<?xml version="1.0" encoding="UTF-8" standalone="no"?>
<!DOCTYPE svg PUBLIC "-//W3C//DTD SVG 1.1//EN"
 "http://www.w3.org/Graphics/SVG/1.1/DTD/svg11.dtd">
<!-- Generated by graphviz version 13.1.0 (20250701.0955)
 -->
<!-- Title: Lib::Canbus::CanServiceBase Pages: 1 -->
<svg width="636pt" height="630pt"
 viewBox="0.00 0.00 636.00 630.00" xmlns="http://www.w3.org/2000/svg" xmlns:xlink="http://www.w3.org/1999/xlink">
<g id="graph0" class="graph" transform="scale(1 1) rotate(0) translate(4 626)">
<title>Lib::Canbus::CanServiceBase</title>
<!-- Node1 -->
<g id="Node000001" class="node">
<title>Node1</title>
<g id="a_Node000001"><a xlink:title="Base class for CAN bus services.">
<polygon fill="#999999" stroke="none" points="329.75,-260 170.75,-260 170.75,0 329.75,0 329.75,-260"/>
<text xml:space="preserve" text-anchor="start" x="184.25" y="-246.5" font-family="Helvetica,sans-Serif" font-size="10.00">Lib::Canbus::CanServiceBase</text>
<text xml:space="preserve" text-anchor="start" x="175.12" y="-230.5" font-family="Helvetica,sans-Serif" font-size="10.00">#</text>
<text xml:space="preserve" text-anchor="start" x="184.75" y="-230.5" font-family="Helvetica,sans-Serif" font-size="10.00">id</text>
<text xml:space="preserve" text-anchor="start" x="175.12" y="-214.5" font-family="Helvetica,sans-Serif" font-size="10.00">#</text>
<text xml:space="preserve" text-anchor="start" x="184.75" y="-214.5" font-family="Helvetica,sans-Serif" font-size="10.00">SEND_TIMEOUT</text>
<text xml:space="preserve" text-anchor="start" x="175.12" y="-198.5" font-family="Helvetica,sans-Serif" font-size="10.00">#</text>
<text xml:space="preserve" text-anchor="start" x="184.75" y="-198.5" font-family="Helvetica,sans-Serif" font-size="10.00">RECEIVE_TIMEOUT</text>
<text xml:space="preserve" text-anchor="start" x="174.75" y="-182.5" font-family="Helvetica,sans-Serif" font-size="10.00">+</text>
<text xml:space="preserve" text-anchor="start" x="184.75" y="-182.5" font-family="Helvetica,sans-Serif" font-size="10.00">CanServiceBase()</text>
<text xml:space="preserve" text-anchor="start" x="174.75" y="-166.5" font-family="Helvetica,sans-Serif" font-size="10.00">+</text>
<text xml:space="preserve" text-anchor="start" x="184.75" y="-166.5" font-family="Helvetica,sans-Serif" font-size="10.00">~CanServiceBase()</text>
<text xml:space="preserve" text-anchor="start" x="174.75" y="-150.5" font-family="Helvetica,sans-Serif" font-size="10.00">+</text>
<text xml:space="preserve" text-anchor="start" x="184.75" y="-150.5" font-family="Helvetica,sans-Serif" font-size="10.00">start()</text>
<text xml:space="preserve" text-anchor="start" x="174.75" y="-134.5" font-family="Helvetica,sans-Serif" font-size="10.00">+</text>
<text xml:space="preserve" text-anchor="start" x="184.75" y="-134.5" font-family="Helvetica,sans-Serif" font-size="10.00">stop()</text>
<text xml:space="preserve" text-anchor="start" x="174.75" y="-118.5" font-family="Helvetica,sans-Serif" font-size="10.00">+</text>
<text xml:space="preserve" text-anchor="start" x="184.75" y="-118.5" font-family="Helvetica,sans-Serif" font-size="10.00">receive()</text>
<text xml:space="preserve" text-anchor="start" x="174.75" y="-102.5" font-family="Helvetica,sans-Serif" font-size="10.00">+</text>
<text xml:space="preserve" text-anchor="start" x="184.75" y="-102.5" font-family="Helvetica,sans-Serif" font-size="10.00">send()</text>
<text xml:space="preserve" text-anchor="start" x="174.75" y="-86.5" font-family="Helvetica,sans-Serif" font-size="10.00">+</text>
<text xml:space="preserve" text-anchor="start" x="184.75" y="-86.5" font-family="Helvetica,sans-Serif" font-size="10.00">send()</text>
<text xml:space="preserve" text-anchor="start" x="174.75" y="-70.5" font-family="Helvetica,sans-Serif" font-size="10.00">+</text>
<text xml:space="preserve" text-anchor="start" x="184.75" y="-70.5" font-family="Helvetica,sans-Serif" font-size="10.00">send()</text>
<text xml:space="preserve" text-anchor="start" x="174.75" y="-54.5" font-family="Helvetica,sans-Serif" font-size="10.00">+</text>
<text xml:space="preserve" text-anchor="start" x="184.75" y="-54.5" font-family="Helvetica,sans-Serif" font-size="10.00">getDiagnostic()</text>
<text xml:space="preserve" text-anchor="start" x="174.75" y="-38.5" font-family="Helvetica,sans-Serif" font-size="10.00">+</text>
<text xml:space="preserve" text-anchor="start" x="184.75" y="-38.5" font-family="Helvetica,sans-Serif" font-size="10.00">handleMessageReceivedEvent()</text>
<text xml:space="preserve" text-anchor="start" x="174.75" y="-22.5" font-family="Helvetica,sans-Serif" font-size="10.00">+</text>
<text xml:space="preserve" text-anchor="start" x="184.75" y="-22.5" font-family="Helvetica,sans-Serif" font-size="10.00">handleErrorEvent()</text>
<text xml:space="preserve" text-anchor="start" x="174.75" y="-6.5" font-family="Helvetica,sans-Serif" font-size="10.00">+</text>
<text xml:space="preserve" text-anchor="start" x="184.75" y="-6.5" font-family="Helvetica,sans-Serif" font-size="10.00">taskFn()</text>
<polygon fill="#666666" stroke="#666666" points="170.75,-242 170.75,-242 329.75,-242 329.75,-242 170.75,-242"/>
<polygon fill="#666666" stroke="#666666" points="170.75,-194 170.75,-194 182.75,-194 182.75,-194 170.75,-194"/>
<polygon fill="#666666" stroke="#666666" points="182.75,-194 182.75,-194 329.75,-194 329.75,-194 182.75,-194"/>
<polygon fill="none" stroke="#666666" points="170.75,0 170.75,-260 329.75,-260 329.75,0 170.75,0"/>
</a>
</g>
</g>
<!-- Node2 -->
<g id="Node000002" class="node">
<title>Node2</title>
<g id="a_Node000002"><a xlink:title=" ">
<polygon fill="white" stroke="none" points="66.5,-494 0,-494 0,-442 66.5,-442 66.5,-494"/>
<text xml:space="preserve" text-anchor="start" x="4" y="-480.5" font-family="Helvetica,sans-Serif" font-size="10.00">CanPortBase</text>
<text xml:space="preserve" text-anchor="start" x="31.75" y="-464.5" font-family="Helvetica,sans-Serif" font-size="10.00"> </text>
<text xml:space="preserve" text-anchor="start" x="31.75" y="-448.5" font-family="Helvetica,sans-Serif" font-size="10.00"> </text>
<polygon fill="#bfbfbf" stroke="#bfbfbf" points="0,-476 0,-476 66.5,-476 66.5,-476 0,-476"/>
<polygon fill="#bfbfbf" stroke="#bfbfbf" points="0,-460 0,-460 66.5,-460 66.5,-460 0,-460"/>
<polygon fill="none" stroke="#bfbfbf" points="0,-442 0,-494 66.5,-494 66.5,-442 0,-442"/>
</a>
</g>
</g>
<!-- Node2&#45;&gt;Node1 -->
<g id="edge1_Node000001_Node000002" class="edge">
<title>Node2&#45;&gt;Node1</title>
<g id="a_edge1_Node000001_Node000002"><a xlink:title=" ">
<path fill="none" stroke="#63b8ff" d="M37.97,-431.11C43.38,-398.83 54.33,-350.93 75.25,-314 99.85,-270.59 137.03,-229.7 170.81,-197.63"/>
<polygon fill="none" stroke="#63b8ff" points="34.55,-430.34 36.46,-440.76 41.47,-431.42 34.55,-430.34"/>
</a>
</g>
</g>
<!-- Node3 -->
<g id="Node000003" class="node">
<title>Node3</title>
<g id="a_Node000003"><a xlink:href="../../d1/d23/class_r_t_o_s_1_1_task.html" target="_top" xlink:title="Task class for FreeRTOS thread management.">
<polygon fill="white" stroke="none" points="230.38,-622 84.12,-622 84.12,-314 230.38,-314 230.38,-622"/>
<text xml:space="preserve" text-anchor="start" x="130.25" y="-608.5" font-family="Helvetica,sans-Serif" font-size="10.00">RTOS::Task</text>
<text xml:space="preserve" text-anchor="start" x="88.12" y="-592.5" font-family="Helvetica,sans-Serif" font-size="10.00">+</text>
<text xml:space="preserve" text-anchor="start" x="98.12" y="-592.5" font-family="Helvetica,sans-Serif" font-size="10.00">DEFAULT_TASK_PRIORITY</text>
<text xml:space="preserve" text-anchor="start" x="88.12" y="-576.5" font-family="Helvetica,sans-Serif" font-size="10.00">+</text>
<text xml:space="preserve" text-anchor="start" x="98.12" y="-576.5" font-family="Helvetica,sans-Serif" font-size="10.00">MIN_STACK_SIZE</text>
<text xml:space="preserve" text-anchor="start" x="88.12" y="-560.5" font-family="Helvetica,sans-Serif" font-size="10.00">+</text>
<text xml:space="preserve" text-anchor="start" x="98.12" y="-560.5" font-family="Helvetica,sans-Serif" font-size="10.00">DEFAULT_STACK_SIZE</text>
<text xml:space="preserve" text-anchor="start" x="88.12" y="-544.5" font-family="Helvetica,sans-Serif" font-size="10.00">+</text>
<text xml:space="preserve" text-anchor="start" x="98.12" y="-544.5" font-family="Helvetica,sans-Serif" font-size="10.00">Task()</text>
<text xml:space="preserve" text-anchor="start" x="88.12" y="-528.5" font-family="Helvetica,sans-Serif" font-size="10.00">+</text>
<text xml:space="preserve" text-anchor="start" x="98.12" y="-528.5" font-family="Helvetica,sans-Serif" font-size="10.00">Task()</text>
<text xml:space="preserve" text-anchor="start" x="88.12" y="-512.5" font-family="Helvetica,sans-Serif" font-size="10.00">+</text>
<text xml:space="preserve" text-anchor="start" x="98.12" y="-512.5" font-family="Helvetica,sans-Serif" font-size="10.00">Task()</text>
<text xml:space="preserve" text-anchor="start" x="88.12" y="-496.5" font-family="Helvetica,sans-Serif" font-size="10.00">+</text>
<text xml:space="preserve" text-anchor="start" x="98.12" y="-496.5" font-family="Helvetica,sans-Serif" font-size="10.00">Task()</text>
<text xml:space="preserve" text-anchor="start" x="88.12" y="-480.5" font-family="Helvetica,sans-Serif" font-size="10.00">+</text>
<text xml:space="preserve" text-anchor="start" x="98.12" y="-480.5" font-family="Helvetica,sans-Serif" font-size="10.00">Task()</text>
<text xml:space="preserve" text-anchor="start" x="88.12" y="-464.5" font-family="Helvetica,sans-Serif" font-size="10.00">+</text>
<text xml:space="preserve" text-anchor="start" x="98.12" y="-464.5" font-family="Helvetica,sans-Serif" font-size="10.00">operator=()</text>
<text xml:space="preserve" text-anchor="start" x="88.12" y="-448.5" font-family="Helvetica,sans-Serif" font-size="10.00">+</text>
<text xml:space="preserve" text-anchor="start" x="98.12" y="-448.5" font-family="Helvetica,sans-Serif" font-size="10.00">operator=()</text>
<text xml:space="preserve" text-anchor="start" x="88.12" y="-432.5" font-family="Helvetica,sans-Serif" font-size="10.00">+</text>
<text xml:space="preserve" text-anchor="start" x="98.12" y="-432.5" font-family="Helvetica,sans-Serif" font-size="10.00">~Task()</text>
<text xml:space="preserve" text-anchor="start" x="88.12" y="-416.5" font-family="Helvetica,sans-Serif" font-size="10.00">+</text>
<text xml:space="preserve" text-anchor="start" x="98.12" y="-416.5" font-family="Helvetica,sans-Serif" font-size="10.00">operator==()</text>
<text xml:space="preserve" text-anchor="start" x="88.12" y="-400.5" font-family="Helvetica,sans-Serif" font-size="10.00">+</text>
<text xml:space="preserve" text-anchor="start" x="98.12" y="-400.5" font-family="Helvetica,sans-Serif" font-size="10.00">operator!=()</text>
<text xml:space="preserve" text-anchor="start" x="98.12" y="-384.5" font-family="Helvetica,sans-Serif" font-size="10.00">and 18 more...</text>
<text xml:space="preserve" text-anchor="start" x="88.12" y="-368.5" font-family="Helvetica,sans-Serif" font-size="10.00">+</text>
<text xml:space="preserve" text-anchor="start" x="98.12" y="-368.5" font-family="Helvetica,sans-Serif" font-size="10.00">yield()</text>
<text xml:space="preserve" text-anchor="start" x="88.12" y="-352.5" font-family="Helvetica,sans-Serif" font-size="10.00">+</text>
<text xml:space="preserve" text-anchor="start" x="98.12" y="-352.5" font-family="Helvetica,sans-Serif" font-size="10.00">sleep()</text>
<text xml:space="preserve" text-anchor="start" x="88.12" y="-336.5" font-family="Helvetica,sans-Serif" font-size="10.00">+</text>
<text xml:space="preserve" text-anchor="start" x="98.12" y="-336.5" font-family="Helvetica,sans-Serif" font-size="10.00">delay()</text>
<text xml:space="preserve" text-anchor="start" x="88.12" y="-320.5" font-family="Helvetica,sans-Serif" font-size="10.00">+</text>
<text xml:space="preserve" text-anchor="start" x="98.12" y="-320.5" font-family="Helvetica,sans-Serif" font-size="10.00">delayTicks()</text>
<polygon fill="#666666" stroke="#666666" points="84.12,-604 84.12,-604 230.38,-604 230.38,-604 84.12,-604"/>
<polygon fill="#666666" stroke="#666666" points="84.12,-556 84.12,-556 96.12,-556 96.12,-556 84.12,-556"/>
<polygon fill="#666666" stroke="#666666" points="96.12,-556 96.12,-556 230.38,-556 230.38,-556 96.12,-556"/>
<polygon fill="none" stroke="#666666" points="84.12,-314 84.12,-622 230.38,-622 230.38,-314 84.12,-314"/>
</a>
</g>
</g>
<!-- Node3&#45;&gt;Node1 -->
<g id="edge2_Node000001_Node000003" class="edge">
<title>Node3&#45;&gt;Node1</title>
<g id="a_edge2_Node000001_Node000003"><a xlink:title=" ">
<path fill="none" stroke="#63b8ff" d="M199.53,-314.24C203.43,-300.16 207.37,-285.94 211.23,-271.97"/>
<polygon fill="none" stroke="#63b8ff" points="211.17,-272.21 208.91,-265.36 214.37,-260.64 216.62,-267.49 211.17,-272.21"/>
</a>
</g>
<text xml:space="preserve" text-anchor="start" x="212.32" y="-283.5" font-family="Helvetica,sans-Serif" font-size="10.00" fill="grey">#task</text>
</g>
<!-- Node4 -->
<g id="Node000004" class="node">
<title>Node4</title>
<g id="a_Node000004"><a xlink:href="../../d4/d29/struct_lib_1_1_canbus_1_1_can_service_base_1_1_diagnostic.html" target="_top" xlink:title="Diagnostic info for CAN bus communication.">
<polygon fill="white" stroke="none" points="440.5,-534 248,-534 248,-402 440.5,-402 440.5,-534"/>
<text xml:space="preserve" text-anchor="start" x="252" y="-520.5" font-family="Helvetica,sans-Serif" font-size="10.00">Lib::Canbus::CanServiceBase::Diagnostic</text>
<text xml:space="preserve" text-anchor="start" x="270.69" y="-504.5" font-family="Helvetica,sans-Serif" font-size="10.00">+</text>
<text xml:space="preserve" text-anchor="start" x="299.38" y="-504.5" font-family="Helvetica,sans-Serif" font-size="10.00">receivedMessages</text>
<text xml:space="preserve" text-anchor="start" x="270.69" y="-488.5" font-family="Helvetica,sans-Serif" font-size="10.00">+</text>
<text xml:space="preserve" text-anchor="start" x="299.38" y="-488.5" font-family="Helvetica,sans-Serif" font-size="10.00">sentMessages</text>
<text xml:space="preserve" text-anchor="start" x="270.69" y="-472.5" font-family="Helvetica,sans-Serif" font-size="10.00">+</text>
<text xml:space="preserve" text-anchor="start" x="299.38" y="-472.5" font-family="Helvetica,sans-Serif" font-size="10.00">txMailboxAbortCounter</text>
<text xml:space="preserve" text-anchor="start" x="270.69" y="-456.5" font-family="Helvetica,sans-Serif" font-size="10.00">+</text>
<text xml:space="preserve" text-anchor="start" x="299.38" y="-456.5" font-family="Helvetica,sans-Serif" font-size="10.00">rxFifoFullCounter</text>
<text xml:space="preserve" text-anchor="start" x="270.69" y="-440.5" font-family="Helvetica,sans-Serif" font-size="10.00">+</text>
<text xml:space="preserve" text-anchor="start" x="299.38" y="-440.5" font-family="Helvetica,sans-Serif" font-size="10.00">errorCounter</text>
<text xml:space="preserve" text-anchor="start" x="270.69" y="-424.5" font-family="Helvetica,sans-Serif" font-size="10.00">+</text>
<text xml:space="preserve" text-anchor="start" x="299.38" y="-424.5" font-family="Helvetica,sans-Serif" font-size="10.00">errorCode</text>
<text xml:space="preserve" text-anchor="start" x="342.75" y="-408.5" font-family="Helvetica,sans-Serif" font-size="10.00"> </text>
<polygon fill="#666666" stroke="#666666" points="248,-516 248,-516 440.5,-516 440.5,-516 248,-516"/>
<polygon fill="#666666" stroke="#666666" points="248,-420 248,-420 297.38,-420 297.38,-420 248,-420"/>
<polygon fill="#666666" stroke="#666666" points="297.38,-420 297.38,-420 440.5,-420 440.5,-420 297.38,-420"/>
<polygon fill="none" stroke="#666666" points="248,-402 248,-534 440.5,-534 440.5,-402 248,-402"/>
</a>
</g>
</g>
<!-- Node4&#45;&gt;Node1 -->
<g id="edge3_Node000001_Node000004" class="edge">
<title>Node4&#45;&gt;Node1</title>
<g id="a_edge3_Node000001_Node000004"><a xlink:title=" ">
<path fill="none" stroke="#63b8ff" d="M326.13,-402.22C315.79,-365.27 302.41,-317.45 289.77,-272.28"/>
<polygon fill="none" stroke="#63b8ff" points="289.8,-272.35 284.33,-267.65 286.56,-260.8 292.03,-265.5 289.8,-272.35"/>
</a>
</g>
<text xml:space="preserve" text-anchor="start" x="297.43" y="-283.5" font-family="Helvetica,sans-Serif" font-size="10.00" fill="grey">#diagnostic</text>
</g>
<!-- Node5 -->
<g id="Node000005" class="node">
<title>Node5</title>
<g id="a_Node000005"><a xlink:href="../../de/d77/class_r_t_o_s_1_1_queue.html" target="_top" xlink:title=" ">
<polygon fill="white" stroke="none" points="627.88,-582 458.62,-582 458.62,-354 627.88,-354 627.88,-582"/>
<text xml:space="preserve" text-anchor="start" x="462.62" y="-568.5" font-family="Helvetica,sans-Serif" font-size="10.00">RTOS::Queue&lt; CanRxMessage, 8 &gt;</text>
<text xml:space="preserve" text-anchor="start" x="481.12" y="-552.5" font-family="Helvetica,sans-Serif" font-size="10.00">+</text>
<text xml:space="preserve" text-anchor="start" x="509.62" y="-552.5" font-family="Helvetica,sans-Serif" font-size="10.00">LENGTH</text>
<text xml:space="preserve" text-anchor="start" x="481.12" y="-536.5" font-family="Helvetica,sans-Serif" font-size="10.00">+</text>
<text xml:space="preserve" text-anchor="start" x="509.62" y="-536.5" font-family="Helvetica,sans-Serif" font-size="10.00">ELEMENT_SIZE</text>
<text xml:space="preserve" text-anchor="start" x="481.12" y="-520.5" font-family="Helvetica,sans-Serif" font-size="10.00">+</text>
<text xml:space="preserve" text-anchor="start" x="509.62" y="-520.5" font-family="Helvetica,sans-Serif" font-size="10.00">Queue()</text>
<text xml:space="preserve" text-anchor="start" x="481.12" y="-504.5" font-family="Helvetica,sans-Serif" font-size="10.00">+</text>
<text xml:space="preserve" text-anchor="start" x="509.62" y="-504.5" font-family="Helvetica,sans-Serif" font-size="10.00">~Queue()</text>
<text xml:space="preserve" text-anchor="start" x="481.12" y="-488.5" font-family="Helvetica,sans-Serif" font-size="10.00">+</text>
<text xml:space="preserve" text-anchor="start" x="509.62" y="-488.5" font-family="Helvetica,sans-Serif" font-size="10.00">operator=()</text>
<text xml:space="preserve" text-anchor="start" x="481.12" y="-472.5" font-family="Helvetica,sans-Serif" font-size="10.00">+</text>
<text xml:space="preserve" text-anchor="start" x="509.62" y="-472.5" font-family="Helvetica,sans-Serif" font-size="10.00">create()</text>
<text xml:space="preserve" text-anchor="start" x="481.12" y="-456.5" font-family="Helvetica,sans-Serif" font-size="10.00">+</text>
<text xml:space="preserve" text-anchor="start" x="509.62" y="-456.5" font-family="Helvetica,sans-Serif" font-size="10.00">destroy()</text>
<text xml:space="preserve" text-anchor="start" x="481.12" y="-440.5" font-family="Helvetica,sans-Serif" font-size="10.00">+</text>
<text xml:space="preserve" text-anchor="start" x="509.62" y="-440.5" font-family="Helvetica,sans-Serif" font-size="10.00">reset()</text>
<text xml:space="preserve" text-anchor="start" x="481.12" y="-424.5" font-family="Helvetica,sans-Serif" font-size="10.00">+</text>
<text xml:space="preserve" text-anchor="start" x="509.62" y="-424.5" font-family="Helvetica,sans-Serif" font-size="10.00">receive()</text>
<text xml:space="preserve" text-anchor="start" x="481.12" y="-408.5" font-family="Helvetica,sans-Serif" font-size="10.00">+</text>
<text xml:space="preserve" text-anchor="start" x="509.62" y="-408.5" font-family="Helvetica,sans-Serif" font-size="10.00">receiveFromISR()</text>
<text xml:space="preserve" text-anchor="start" x="481.12" y="-392.5" font-family="Helvetica,sans-Serif" font-size="10.00">+</text>
<text xml:space="preserve" text-anchor="start" x="509.62" y="-392.5" font-family="Helvetica,sans-Serif" font-size="10.00">peek()</text>
<text xml:space="preserve" text-anchor="start" x="481.12" y="-376.5" font-family="Helvetica,sans-Serif" font-size="10.00">+</text>
<text xml:space="preserve" text-anchor="start" x="509.62" y="-376.5" font-family="Helvetica,sans-Serif" font-size="10.00">peekFromISR()</text>
<text xml:space="preserve" text-anchor="start" x="509.62" y="-360.5" font-family="Helvetica,sans-Serif" font-size="10.00">and 20 more...</text>
<polygon fill="#666666" stroke="#666666" points="458.62,-564 458.62,-564 627.88,-564 627.88,-564 458.62,-564"/>
<polygon fill="#666666" stroke="#666666" points="458.62,-532 458.62,-532 507.62,-532 507.62,-532 458.62,-532"/>
<polygon fill="#666666" stroke="#666666" points="507.62,-532 507.62,-532 627.88,-532 627.88,-532 507.62,-532"/>
<polygon fill="none" stroke="#666666" points="458.62,-354 458.62,-582 627.88,-582 627.88,-354 458.62,-354"/>
</a>
</g>
</g>
<!-- Node5&#45;&gt;Node1 -->
<g id="edge4_Node000001_Node000005" class="edge">
<title>Node5&#45;&gt;Node1</title>
<g id="a_edge4_Node000001_Node000005"><a xlink:title=" ">
<path fill="none" stroke="#63b8ff" d="M478.95,-354.21C469.56,-340.25 459.56,-326.51 449.25,-314 416.65,-274.43 375.64,-235.31 339.33,-203.46"/>
<polygon fill="none" stroke="#63b8ff" points="339.45,-203.56 332.3,-202.64 330.39,-195.69 337.55,-196.61 339.45,-203.56"/>
</a>
</g>
<text xml:space="preserve" text-anchor="start" x="433.11" y="-283.5" font-family="Helvetica,sans-Serif" font-size="10.00" fill="grey">#queueRxMessage</text>
</g>
</g>
</svg>
