<?xml version="1.0" encoding="UTF-8" standalone="no"?>
<!DOCTYPE svg PUBLIC "-//W3C//DTD SVG 1.1//EN"
 "http://www.w3.org/Graphics/SVG/1.1/DTD/svg11.dtd">
<!-- Generated by graphviz version 13.1.0 (20250701.0955)
 -->
<!-- Title: Lib::System::Version::Base Pages: 1 -->
<svg width="318pt" height="292pt"
 viewBox="0.00 0.00 318.00 292.00" xmlns="http://www.w3.org/2000/svg" xmlns:xlink="http://www.w3.org/1999/xlink">
<g id="graph0" class="graph" transform="scale(1 1) rotate(0) translate(4 288)">
<title>Lib::System::Version::Base</title>
<!-- Node1 -->
<g id="Node000001" class="node">
<title>Node1</title>
<g id="a_Node000001"><a xlink:title="Base class for version handling.">
<polygon fill="#999999" stroke="none" points="218.25,-284 91,-284 91,-152 218.25,-152 218.25,-284"/>
<text xml:space="preserve" text-anchor="start" x="95" y="-270.5" font-family="Helvetica,sans-Serif" font-size="10.00">Lib::System::Version::Base</text>
<text xml:space="preserve" text-anchor="start" x="153.12" y="-254.5" font-family="Helvetica,sans-Serif" font-size="10.00"> </text>
<text xml:space="preserve" text-anchor="start" x="100.38" y="-238.5" font-family="Helvetica,sans-Serif" font-size="10.00">+</text>
<text xml:space="preserve" text-anchor="start" x="115.75" y="-238.5" font-family="Helvetica,sans-Serif" font-size="10.00">Base()</text>
<text xml:space="preserve" text-anchor="start" x="100.38" y="-222.5" font-family="Helvetica,sans-Serif" font-size="10.00">+</text>
<text xml:space="preserve" text-anchor="start" x="115.75" y="-222.5" font-family="Helvetica,sans-Serif" font-size="10.00">operator uint32_t()</text>
<text xml:space="preserve" text-anchor="start" x="100.38" y="-206.5" font-family="Helvetica,sans-Serif" font-size="10.00">+</text>
<text xml:space="preserve" text-anchor="start" x="115.75" y="-206.5" font-family="Helvetica,sans-Serif" font-size="10.00">operator std::string()</text>
<text xml:space="preserve" text-anchor="start" x="100.38" y="-190.5" font-family="Helvetica,sans-Serif" font-size="10.00">+</text>
<text xml:space="preserve" text-anchor="start" x="115.75" y="-190.5" font-family="Helvetica,sans-Serif" font-size="10.00">stringToDateTime()</text>
<text xml:space="preserve" text-anchor="start" x="100.38" y="-174.5" font-family="Helvetica,sans-Serif" font-size="10.00">+</text>
<text xml:space="preserve" text-anchor="start" x="115.75" y="-174.5" font-family="Helvetica,sans-Serif" font-size="10.00">stringToU32()</text>
<text xml:space="preserve" text-anchor="start" x="100.75" y="-158.5" font-family="Helvetica,sans-Serif" font-size="10.00">#</text>
<text xml:space="preserve" text-anchor="start" x="115.75" y="-158.5" font-family="Helvetica,sans-Serif" font-size="10.00">subVersion()</text>
<polygon fill="#666666" stroke="#666666" points="91,-266 91,-266 218.25,-266 218.25,-266 91,-266"/>
<polygon fill="#666666" stroke="#666666" points="91,-250 91,-250 218.25,-250 218.25,-250 91,-250"/>
<polygon fill="none" stroke="#666666" points="91,-152 91,-284 218.25,-284 218.25,-152 91,-152"/>
</a>
</g>
</g>
<!-- Node2 -->
<g id="Node000002" class="node">
<title>Node2</title>
<g id="a_Node000002"><a xlink:href="../../df/d5e/class_lib_1_1_system_1_1_version_1_1_firmware.html" target="_top" xlink:title="Firmware version management.">
<polygon fill="white" stroke="none" points="145.25,-116 0,-116 0,0 145.25,0 145.25,-116"/>
<text xml:space="preserve" text-anchor="start" x="4" y="-102.5" font-family="Helvetica,sans-Serif" font-size="10.00">Lib::System::Version::Firmware</text>
<text xml:space="preserve" text-anchor="start" x="71.12" y="-86.5" font-family="Helvetica,sans-Serif" font-size="10.00"> </text>
<text xml:space="preserve" text-anchor="start" x="13.88" y="-70.5" font-family="Helvetica,sans-Serif" font-size="10.00">+</text>
<text xml:space="preserve" text-anchor="start" x="33.75" y="-70.5" font-family="Helvetica,sans-Serif" font-size="10.00">Firmware()</text>
<text xml:space="preserve" text-anchor="start" x="13.88" y="-54.5" font-family="Helvetica,sans-Serif" font-size="10.00">+</text>
<text xml:space="preserve" text-anchor="start" x="33.75" y="-54.5" font-family="Helvetica,sans-Serif" font-size="10.00">~Firmware()</text>
<text xml:space="preserve" text-anchor="start" x="13.88" y="-38.5" font-family="Helvetica,sans-Serif" font-size="10.00">+</text>
<text xml:space="preserve" text-anchor="start" x="33.75" y="-38.5" font-family="Helvetica,sans-Serif" font-size="10.00">operator uint32_t()</text>
<text xml:space="preserve" text-anchor="start" x="13.88" y="-22.5" font-family="Helvetica,sans-Serif" font-size="10.00">+</text>
<text xml:space="preserve" text-anchor="start" x="33.75" y="-22.5" font-family="Helvetica,sans-Serif" font-size="10.00">operator std::string()</text>
<text xml:space="preserve" text-anchor="start" x="14.25" y="-6.5" font-family="Helvetica,sans-Serif" font-size="10.00">#</text>
<text xml:space="preserve" text-anchor="start" x="33.75" y="-6.5" font-family="Helvetica,sans-Serif" font-size="10.00">subVersion()</text>
<polygon fill="#666666" stroke="#666666" points="0,-98 0,-98 145.25,-98 145.25,-98 0,-98"/>
<polygon fill="#666666" stroke="#666666" points="0,-82 0,-82 145.25,-82 145.25,-82 0,-82"/>
<polygon fill="none" stroke="#666666" points="0,0 0,-116 145.25,-116 145.25,0 0,0"/>
</a>
</g>
</g>
<!-- Node1&#45;&gt;Node2 -->
<g id="edge1_Node000001_Node000002" class="edge">
<title>Node1&#45;&gt;Node2</title>
<g id="a_edge1_Node000001_Node000002"><a xlink:title=" ">
<path fill="none" stroke="#63b8ff" d="M115.84,-142.27C111.22,-133.36 106.55,-124.38 102.09,-115.77"/>
<polygon fill="none" stroke="#63b8ff" points="112.63,-143.67 120.34,-150.94 118.84,-140.45 112.63,-143.67"/>
</a>
</g>
</g>
<!-- Node3 -->
<g id="Node000003" class="node">
<title>Node3</title>
<g id="a_Node000003"><a xlink:href="../../d1/dd7/class_lib_1_1_system_1_1_version_1_1_hardware.html" target="_top" xlink:title="Hardware version management.">
<polygon fill="white" stroke="none" points="310,-100 163.25,-100 163.25,-16 310,-16 310,-100"/>
<text xml:space="preserve" text-anchor="start" x="167.25" y="-86.5" font-family="Helvetica,sans-Serif" font-size="10.00">Lib::System::Version::Hardware</text>
<text xml:space="preserve" text-anchor="start" x="235.12" y="-70.5" font-family="Helvetica,sans-Serif" font-size="10.00"> </text>
<text xml:space="preserve" text-anchor="start" x="177.5" y="-54.5" font-family="Helvetica,sans-Serif" font-size="10.00">+</text>
<text xml:space="preserve" text-anchor="start" x="197.75" y="-54.5" font-family="Helvetica,sans-Serif" font-size="10.00">Hardware()</text>
<text xml:space="preserve" text-anchor="start" x="177.5" y="-38.5" font-family="Helvetica,sans-Serif" font-size="10.00">+</text>
<text xml:space="preserve" text-anchor="start" x="197.75" y="-38.5" font-family="Helvetica,sans-Serif" font-size="10.00">operator uint32_t()</text>
<text xml:space="preserve" text-anchor="start" x="177.5" y="-22.5" font-family="Helvetica,sans-Serif" font-size="10.00">+</text>
<text xml:space="preserve" text-anchor="start" x="197.75" y="-22.5" font-family="Helvetica,sans-Serif" font-size="10.00">operator std::string()</text>
<polygon fill="#666666" stroke="#666666" points="163.25,-82 163.25,-82 310,-82 310,-82 163.25,-82"/>
<polygon fill="#666666" stroke="#666666" points="163.25,-66 163.25,-66 310,-66 310,-66 163.25,-66"/>
<polygon fill="none" stroke="#666666" points="163.25,-16 163.25,-100 310,-100 310,-16 163.25,-16"/>
</a>
</g>
</g>
<!-- Node1&#45;&gt;Node3 -->
<g id="edge2_Node000001_Node000003" class="edge">
<title>Node1&#45;&gt;Node3</title>
<g id="a_edge2_Node000001_Node000003"><a xlink:title=" ">
<path fill="none" stroke="#63b8ff" d="M193.43,-142.23C201.01,-127.63 208.68,-112.84 215.42,-99.86"/>
<polygon fill="none" stroke="#63b8ff" points="190.41,-140.45 188.91,-150.94 196.62,-143.67 190.41,-140.45"/>
</a>
</g>
</g>
</g>
</svg>
