<?xml version="1.0" encoding="UTF-8" standalone="no"?>
<!DOCTYPE svg PUBLIC "-//W3C//DTD SVG 1.1//EN"
 "http://www.w3.org/Graphics/SVG/1.1/DTD/svg11.dtd">
<!-- Generated by graphviz version 13.1.0 (20250701.0955)
 -->
<!-- Title: Lib::BSP::W25Q128JVSIQ::Config Pages: 1 -->
<svg width="168pt" height="76pt"
 viewBox="0.00 0.00 168.00 76.00" xmlns="http://www.w3.org/2000/svg" xmlns:xlink="http://www.w3.org/1999/xlink">
<g id="graph0" class="graph" transform="scale(1 1) rotate(0) translate(4 72)">
<title>Lib::BSP::W25Q128JVSIQ::Config</title>
<!-- Node1 -->
<g id="Node000001" class="node">
<title>Node1</title>
<g id="a_Node000001"><a xlink:title="Configuration for W25Q128JVSIQ.">
<polygon fill="#999999" stroke="none" points="160.25,-68 0,-68 0,0 160.25,0 160.25,-68"/>
<text xml:space="preserve" text-anchor="start" x="4" y="-54.5" font-family="Helvetica,sans-Serif" font-size="10.00">Lib::BSP::W25Q128JVSIQ::Config</text>
<text xml:space="preserve" text-anchor="start" x="28.69" y="-38.5" font-family="Helvetica,sans-Serif" font-size="10.00">+</text>
<text xml:space="preserve" text-anchor="start" x="63.38" y="-38.5" font-family="Helvetica,sans-Serif" font-size="10.00">spiHandle</text>
<text xml:space="preserve" text-anchor="start" x="28.69" y="-22.5" font-family="Helvetica,sans-Serif" font-size="10.00">+</text>
<text xml:space="preserve" text-anchor="start" x="63.38" y="-22.5" font-family="Helvetica,sans-Serif" font-size="10.00">nss</text>
<text xml:space="preserve" text-anchor="start" x="78.62" y="-6.5" font-family="Helvetica,sans-Serif" font-size="10.00"> </text>
<polygon fill="#666666" stroke="#666666" points="0,-50 0,-50 160.25,-50 160.25,-50 0,-50"/>
<polygon fill="#666666" stroke="#666666" points="0,-18 0,-18 61.38,-18 61.38,-18 0,-18"/>
<polygon fill="#666666" stroke="#666666" points="61.38,-18 61.38,-18 160.25,-18 160.25,-18 61.38,-18"/>
<polygon fill="none" stroke="#666666" points="0,0 0,-68 160.25,-68 160.25,0 0,0"/>
</a>
</g>
</g>
</g>
</svg>
