<?xml version="1.0" encoding="UTF-8" standalone="no"?>
<!DOCTYPE svg PUBLIC "-//W3C//DTD SVG 1.1//EN"
 "http://www.w3.org/Graphics/SVG/1.1/DTD/svg11.dtd">
<!-- Generated by graphviz version 13.1.0 (20250701.0955)
 -->
<!-- Title: Lib::BSP::Display::Driver&lt; Controller::ILI9341 &gt;::Config Pages: 1 -->
<svg width="199pt" height="232pt"
 viewBox="0.00 0.00 199.00 232.00" xmlns="http://www.w3.org/2000/svg" xmlns:xlink="http://www.w3.org/1999/xlink">
<g id="graph0" class="graph" transform="scale(1 1) rotate(0) translate(4 228)">
<title>Lib::BSP::Display::Driver&lt; Controller::ILI9341 &gt;::Config</title>
<!-- Node1 -->
<g id="Node000001" class="node">
<title>Node1</title>
<g id="a_Node000001"><a xlink:title="Configuration for ILI9341 driver.">
<polygon fill="#999999" stroke="none" points="92.75,-44 0.75,-44 0.75,0 92.75,0 92.75,-44"/>
<text xml:space="preserve" text-anchor="start" x="4.75" y="-30.5" font-family="Helvetica,sans-Serif" font-size="10.00">Lib::BSP::Display::</text>
<text xml:space="preserve" text-anchor="start" x="4.75" y="-18.5" font-family="Helvetica,sans-Serif" font-size="10.00">Driver&lt; Controller::</text>
<text xml:space="preserve" text-anchor="start" x="8.88" y="-6.5" font-family="Helvetica,sans-Serif" font-size="10.00">ILI9341 &gt;::Config</text>
<polygon fill="none" stroke="#666666" points="0.75,0 0.75,-44 92.75,-44 92.75,0 0.75,0"/>
</a>
</g>
</g>
<!-- Node2 -->
<g id="Node000002" class="node">
<title>Node2</title>
<g id="a_Node000002"><a xlink:title=" ">
<polygon fill="white" stroke="none" points="45.5,-150 0,-150 0,-130 45.5,-130 45.5,-150"/>
<text xml:space="preserve" text-anchor="start" x="4" y="-136.5" font-family="Helvetica,sans-Serif" font-size="10.00">Handle *</text>
<polygon fill="none" stroke="#bfbfbf" points="0,-130 0,-150 45.5,-150 45.5,-130 0,-130"/>
</a>
</g>
</g>
<!-- Node2&#45;&gt;Node1 -->
<g id="edge1_Node000001_Node000002" class="edge">
<title>Node2&#45;&gt;Node1</title>
<g id="a_edge1_Node000001_Node000002"><a xlink:title=" ">
<path fill="none" stroke="#63b8ff" d="M24.55,-130.28C27.75,-114.83 34.57,-81.88 39.81,-56.54"/>
<polygon fill="none" stroke="#63b8ff" points="39.84,-56.4 37.14,-49.72 42.27,-44.65 44.97,-51.34 39.84,-56.4"/>
</a>
</g>
<text xml:space="preserve" text-anchor="start" x="41.3" y="-83.5" font-family="Helvetica,sans-Serif" font-size="10.00" fill="grey">+spi</text>
</g>
<!-- Node3 -->
<g id="Node000003" class="node">
<title>Node3</title>
<g id="a_Node000003"><a xlink:href="../../d3/d9a/class_lib_1_1_h_a_l_1_1_g_p_i_o_1_1_handle.html" target="_top" xlink:title="GPIO pin handle abstraction.">
<polygon fill="white" stroke="none" points="177.62,-150 63.88,-150 63.88,-130 177.62,-130 177.62,-150"/>
<text xml:space="preserve" text-anchor="start" x="67.88" y="-136.5" font-family="Helvetica,sans-Serif" font-size="10.00">Lib::HAL::GPIO::Handle</text>
<polygon fill="none" stroke="#666666" points="63.88,-130 63.88,-150 177.62,-150 177.62,-130 63.88,-130"/>
</a>
</g>
</g>
<!-- Node3&#45;&gt;Node1 -->
<g id="edge2_Node000001_Node000003" class="edge">
<title>Node3&#45;&gt;Node1</title>
<g id="a_edge2_Node000001_Node000003"><a xlink:title=" ">
<path fill="none" stroke="#63b8ff" d="M115.19,-130.28C105.06,-114.4 83.14,-80.04 66.82,-54.46"/>
<polygon fill="none" stroke="#63b8ff" points="66.94,-54.65 60.34,-51.74 60.48,-44.53 67.08,-47.44 66.94,-54.65"/>
</a>
</g>
<text xml:space="preserve" text-anchor="start" x="105.87" y="-99.5" font-family="Helvetica,sans-Serif" font-size="10.00" fill="grey">+di</text>
<text xml:space="preserve" text-anchor="start" x="105.87" y="-83.5" font-family="Helvetica,sans-Serif" font-size="10.00" fill="grey">+nrst</text>
<text xml:space="preserve" text-anchor="start" x="105.87" y="-67.5" font-family="Helvetica,sans-Serif" font-size="10.00" fill="grey">+nss</text>
</g>
<!-- Node4 -->
<g id="Node000004" class="node">
<title>Node4</title>
<g id="a_Node000004"><a xlink:title=" ">
<polygon fill="white" stroke="none" points="121.5,-224 40,-224 40,-204 121.5,-204 121.5,-224"/>
<text xml:space="preserve" text-anchor="start" x="44" y="-210.5" font-family="Helvetica,sans-Serif" font-size="10.00">GPIO_TypeDef *</text>
<polygon fill="none" stroke="#bfbfbf" points="40,-204 40,-224 121.5,-224 121.5,-204 40,-204"/>
</a>
</g>
</g>
<!-- Node4&#45;&gt;Node3 -->
<g id="edge3_Node000003_Node000004" class="edge">
<title>Node4&#45;&gt;Node3</title>
<g id="a_edge3_Node000003_Node000004"><a xlink:title=" ">
<path fill="none" stroke="#63b8ff" d="M85.65,-204.17C91.59,-193.48 101.77,-175.16 109.65,-160.99"/>
<polygon fill="none" stroke="#63b8ff" points="109.54,-161.18 108.96,-153.99 115.37,-150.69 115.95,-157.88 109.54,-161.18"/>
</a>
</g>
<text xml:space="preserve" text-anchor="start" x="108.51" y="-173.5" font-family="Helvetica,sans-Serif" font-size="10.00" fill="grey">+port</text>
</g>
<!-- Node5 -->
<g id="Node000005" class="node">
<title>Node5</title>
<g id="a_Node000005"><a xlink:title=" ">
<polygon fill="white" stroke="none" points="182,-224 139.5,-224 139.5,-204 182,-204 182,-224"/>
<text xml:space="preserve" text-anchor="start" x="143.5" y="-210.5" font-family="Helvetica,sans-Serif" font-size="10.00">uint16_t</text>
<polygon fill="none" stroke="#bfbfbf" points="139.5,-204 139.5,-224 182,-224 182,-204 139.5,-204"/>
</a>
</g>
</g>
<!-- Node5&#45;&gt;Node3 -->
<g id="edge4_Node000003_Node000005" class="edge">
<title>Node5&#45;&gt;Node3</title>
<g id="a_edge4_Node000003_Node000005"><a xlink:title=" ">
<path fill="none" stroke="#63b8ff" d="M156.57,-204.25C152.12,-195.09 144.78,-180.35 137.75,-168 136.38,-165.59 134.9,-163.1 133.4,-160.64"/>
<polygon fill="none" stroke="#63b8ff" points="133.5,-160.79 126.91,-157.85 127.1,-150.64 133.68,-153.59 133.5,-160.79"/>
</a>
</g>
<text xml:space="preserve" text-anchor="start" x="149.99" y="-173.5" font-family="Helvetica,sans-Serif" font-size="10.00" fill="grey">+number</text>
</g>
</g>
</svg>
