<?xml version="1.0" encoding="UTF-8" standalone="no"?>
<!DOCTYPE svg PUBLIC "-//W3C//DTD SVG 1.1//EN"
 "http://www.w3.org/Graphics/SVG/1.1/DTD/svg11.dtd">
<!-- Generated by graphviz version 13.1.0 (20250701.0955)
 -->
<!-- Title: Lib::HAL::UART::Base::getHandle Pages: 1 -->
<svg width="789pt" height="355pt"
 viewBox="0.00 0.00 789.00 355.00" xmlns="http://www.w3.org/2000/svg" xmlns:xlink="http://www.w3.org/1999/xlink">
<g id="graph0" class="graph" transform="scale(1 1) rotate(0) translate(4 351)">
<title>Lib::HAL::UART::Base::getHandle</title>
<!-- Node1 -->
<g id="Node000001" class="node">
<title>Node1</title>
<g id="a_Node000001"><a xlink:title="Gets the underlying UART handle.">
<polygon fill="#999999" stroke="#666666" points="780.5,-188 676,-188 676,-159 780.5,-159 780.5,-188"/>
<text xml:space="preserve" text-anchor="start" x="684" y="-175.45" font-family="Arial" font-size="9.00">Lib::HAL::UART::Base</text>
<text xml:space="preserve" text-anchor="middle" x="728.25" y="-164.95" font-family="Arial" font-size="9.00">::getHandle</text>
</a>
</g>
</g>
<!-- Node2 -->
<g id="Node000002" class="node">
<title>Node2</title>
<g id="a_Node000002"><a xlink:href="../../db/d98/a01675.html#ada8d528677c2376ab76155378d58d1a2" target="_top" xlink:title="Gets the UART handle.">
<polygon fill="white" stroke="#666666" points="640,-188 507,-188 507,-159 640,-159 640,-188"/>
<text xml:space="preserve" text-anchor="start" x="515" y="-175.45" font-family="Arial" font-size="9.00">Lib::HAL::UART::Transperent</text>
<text xml:space="preserve" text-anchor="middle" x="573.5" y="-164.95" font-family="Arial" font-size="9.00">Base::getHandle</text>
</a>
</g>
</g>
<!-- Node1&#45;&gt;Node2 -->
<g id="edge1_Node000001_Node000002" class="edge">
<title>Node1&#45;&gt;Node2</title>
<g id="a_edge1_Node000001_Node000002"><a xlink:title=" ">
<path fill="none" stroke="#63b8ff" d="M664.15,-173.5C656.26,-173.5 648.17,-173.5 640.24,-173.5"/>
<polygon fill="#63b8ff" stroke="#63b8ff" points="664.02,-177 674.02,-173.5 664.02,-170 664.02,-177"/>
</a>
</g>
</g>
<!-- Node3 -->
<g id="Node000003" class="node">
<title>Node3</title>
<g id="a_Node000003"><a xlink:href="../../db/d98/a01675.html#a3d4a00f9392dd5d83522a24394b7995c" target="_top" xlink:title="Aborts ongoing UART operations.">
<polygon fill="white" stroke="#666666" points="471,-300 338,-300 338,-271 471,-271 471,-300"/>
<text xml:space="preserve" text-anchor="start" x="346" y="-287.45" font-family="Arial" font-size="9.00">Lib::HAL::UART::Transperent</text>
<text xml:space="preserve" text-anchor="middle" x="404.5" y="-276.95" font-family="Arial" font-size="9.00">Base::abort</text>
</a>
</g>
</g>
<!-- Node2&#45;&gt;Node3 -->
<g id="edge2_Node000002_Node000003" class="edge">
<title>Node2&#45;&gt;Node3</title>
<g id="a_edge2_Node000002_Node000003"><a xlink:title=" ">
<path fill="none" stroke="#63b8ff" d="M548.08,-195.67C528.23,-213 499.03,-237.01 471,-254.5 461.61,-260.36 450.93,-265.85 440.97,-270.54"/>
<polygon fill="#63b8ff" stroke="#63b8ff" points="550.19,-198.47 555.37,-189.22 545.56,-193.22 550.19,-198.47"/>
</a>
</g>
</g>
<!-- Node6 -->
<g id="Node000006" class="node">
<title>Node6</title>
<g id="a_Node000006"><a xlink:href="../../db/d98/a01675.html#a6605e6c85c2a19af871b6d250a6fdfab" target="_top" xlink:title="Closes the UART device, releases buffers/semaphores, and unregisters from DeviceManager.">
<polygon fill="white" stroke="#666666" points="302,-253 169,-253 169,-224 302,-224 302,-253"/>
<text xml:space="preserve" text-anchor="start" x="177" y="-240.45" font-family="Arial" font-size="9.00">Lib::HAL::UART::Transperent</text>
<text xml:space="preserve" text-anchor="middle" x="235.5" y="-229.95" font-family="Arial" font-size="9.00">Base::close</text>
</a>
</g>
</g>
<!-- Node2&#45;&gt;Node6 -->
<g id="edge5_Node000002_Node000006" class="edge">
<title>Node2&#45;&gt;Node6</title>
<g id="a_edge5_Node000002_Node000006"><a xlink:title=" ">
<path fill="none" stroke="#63b8ff" d="M537.64,-193.92C518.6,-204.05 494.22,-215.4 471,-221.5 415.34,-236.13 349.85,-239.8 302.25,-240.15"/>
<polygon fill="#63b8ff" stroke="#63b8ff" points="539.21,-197.06 546.3,-189.19 535.85,-190.91 539.21,-197.06"/>
</a>
</g>
</g>
<!-- Node10 -->
<g id="Node000010" class="node">
<title>Node10</title>
<g id="a_Node000010"><a xlink:href="../../db/d98/a01675.html#a41e87839d6d05ca19c0c57698cd816ed" target="_top" xlink:title="Deinitializes the UART device and unregisters HAL callbacks.">
<polygon fill="white" stroke="#666666" points="471,-212 338,-212 338,-183 471,-183 471,-212"/>
<text xml:space="preserve" text-anchor="start" x="346" y="-199.45" font-family="Arial" font-size="9.00">Lib::HAL::UART::Transperent</text>
<text xml:space="preserve" text-anchor="middle" x="404.5" y="-188.95" font-family="Arial" font-size="9.00">Base::deinit</text>
</a>
</g>
</g>
<!-- Node2&#45;&gt;Node10 -->
<g id="edge9_Node000002_Node000010" class="edge">
<title>Node2&#45;&gt;Node10</title>
<g id="a_edge9_Node000002_Node000010"><a xlink:title=" ">
<path fill="none" stroke="#63b8ff" d="M495.62,-184.55C487.52,-185.71 479.34,-186.89 471.38,-188.03"/>
<polygon fill="#63b8ff" stroke="#63b8ff" points="496.08,-188.02 505.48,-183.13 495.08,-181.09 496.08,-188.02"/>
</a>
</g>
</g>
<!-- Node11 -->
<g id="Node000011" class="node">
<title>Node11</title>
<g id="a_Node000011"><a xlink:href="../../db/d98/a01675.html#a8683f75b305cf23b6738ce4fc839a76c" target="_top" xlink:title="Initializes the UART device and registers HAL callbacks.">
<polygon fill="white" stroke="#666666" points="471,-165 338,-165 338,-136 471,-136 471,-165"/>
<text xml:space="preserve" text-anchor="start" x="346" y="-152.45" font-family="Arial" font-size="9.00">Lib::HAL::UART::Transperent</text>
<text xml:space="preserve" text-anchor="middle" x="404.5" y="-141.95" font-family="Arial" font-size="9.00">Base::init</text>
</a>
</g>
</g>
<!-- Node2&#45;&gt;Node11 -->
<g id="edge11_Node000002_Node000011" class="edge">
<title>Node2&#45;&gt;Node11</title>
<g id="a_edge11_Node000002_Node000011"><a xlink:title=" ">
<path fill="none" stroke="#63b8ff" d="M495.62,-162.91C487.52,-161.8 479.34,-160.67 471.38,-159.57"/>
<polygon fill="#63b8ff" stroke="#63b8ff" points="495.09,-166.37 505.48,-164.27 496.05,-159.44 495.09,-166.37"/>
</a>
</g>
</g>
<!-- Node12 -->
<g id="Node000012" class="node">
<title>Node12</title>
<g id="a_Node000012"><a xlink:href="../../db/d98/a01675.html#abbc934fd92a1b8b40de1f475d433b828" target="_top" xlink:title="Opens the UART device, initializes buffers/semaphores, and registers with DeviceManager.">
<polygon fill="white" stroke="#666666" points="302,-144 169,-144 169,-115 302,-115 302,-144"/>
<text xml:space="preserve" text-anchor="start" x="177" y="-131.45" font-family="Arial" font-size="9.00">Lib::HAL::UART::Transperent</text>
<text xml:space="preserve" text-anchor="middle" x="235.5" y="-120.95" font-family="Arial" font-size="9.00">Base::open</text>
</a>
</g>
</g>
<!-- Node2&#45;&gt;Node12 -->
<g id="edge15_Node000002_Node000012" class="edge">
<title>Node2&#45;&gt;Node12</title>
<g id="a_edge15_Node000002_Node000012"><a xlink:title=" ">
<path fill="none" stroke="#63b8ff" d="M537.7,-153.27C518.67,-143.37 494.3,-132.53 471,-127.5 415.09,-115.42 349.91,-117.2 302.49,-121.27"/>
<polygon fill="#63b8ff" stroke="#63b8ff" points="535.88,-156.26 546.34,-157.91 539.19,-150.09 535.88,-156.26"/>
</a>
</g>
</g>
<!-- Node15 -->
<g id="Node000015" class="node">
<title>Node15</title>
<g id="a_Node000015"><a xlink:href="../../db/d98/a01675.html#aba6d2877bdaff45fe24aa8317c98593c" target="_top" xlink:title="Sends data through UART.">
<polygon fill="white" stroke="#666666" points="471,-78 338,-78 338,-49 471,-49 471,-78"/>
<text xml:space="preserve" text-anchor="start" x="346" y="-65.45" font-family="Arial" font-size="9.00">Lib::HAL::UART::Transperent</text>
<text xml:space="preserve" text-anchor="middle" x="404.5" y="-54.95" font-family="Arial" font-size="9.00">Base::sendFunc</text>
</a>
</g>
</g>
<!-- Node2&#45;&gt;Node15 -->
<g id="edge16_Node000002_Node000015" class="edge">
<title>Node2&#45;&gt;Node15</title>
<g id="a_edge16_Node000002_Node000015"><a xlink:title=" ">
<path fill="none" stroke="#63b8ff" d="M547.74,-151.23C527.91,-134.1 498.89,-110.54 471,-93.5 461.93,-87.96 451.66,-82.79 441.99,-78.35"/>
<polygon fill="#63b8ff" stroke="#63b8ff" points="545.2,-153.66 555.03,-157.61 549.81,-148.39 545.2,-153.66"/>
</a>
</g>
</g>
<!-- Node4 -->
<g id="Node000004" class="node">
<title>Node4</title>
<g id="a_Node000004"><a xlink:href="../../d2/dca/a01683.html#a810596a49daddddbd926c7429741c151" target="_top" xlink:title="Aborts ongoing UART operation.">
<polygon fill="white" stroke="#666666" points="285.5,-347 185.5,-347 185.5,-318 285.5,-318 285.5,-347"/>
<text xml:space="preserve" text-anchor="start" x="193.5" y="-334.45" font-family="Arial" font-size="9.00">Lib::HAL::UART::Port</text>
<text xml:space="preserve" text-anchor="middle" x="235.5" y="-323.95" font-family="Arial" font-size="9.00">&lt; DMA &gt;::abort</text>
</a>
</g>
</g>
<!-- Node3&#45;&gt;Node4 -->
<g id="edge3_Node000003_Node000004" class="edge">
<title>Node3&#45;&gt;Node4</title>
<g id="a_edge3_Node000003_Node000004"><a xlink:title=" ">
<path fill="none" stroke="#63b8ff" d="M339.74,-303.44C321.89,-308.47 302.75,-313.85 285.87,-318.61"/>
<polygon fill="#63b8ff" stroke="#63b8ff" points="340.53,-306.86 349.2,-300.78 338.63,-300.12 340.53,-306.86"/>
</a>
</g>
</g>
<!-- Node5 -->
<g id="Node000005" class="node">
<title>Node5</title>
<g id="a_Node000005"><a xlink:href="../../d7/db8/a01687.html#abeb71d6bc3f1b19c34654642bbde5858" target="_top" xlink:title="Aborts ongoing UART operation.">
<polygon fill="white" stroke="#666666" points="285.5,-300 185.5,-300 185.5,-271 285.5,-271 285.5,-300"/>
<text xml:space="preserve" text-anchor="start" x="193.5" y="-287.45" font-family="Arial" font-size="9.00">Lib::HAL::UART::Port</text>
<text xml:space="preserve" text-anchor="middle" x="235.5" y="-276.95" font-family="Arial" font-size="9.00">&lt; IT &gt;::abort</text>
</a>
</g>
</g>
<!-- Node3&#45;&gt;Node5 -->
<g id="edge4_Node000003_Node000005" class="edge">
<title>Node3&#45;&gt;Node5</title>
<g id="a_edge4_Node000003_Node000005"><a xlink:title=" ">
<path fill="none" stroke="#63b8ff" d="M326.87,-285.5C312.92,-285.5 298.72,-285.5 285.82,-285.5"/>
<polygon fill="#63b8ff" stroke="#63b8ff" points="326.46,-289 336.46,-285.5 326.46,-282 326.46,-289"/>
</a>
</g>
</g>
<!-- Node7 -->
<g id="Node000007" class="node">
<title>Node7</title>
<g id="a_Node000007"><a xlink:href="../../db/d98/a01675.html#a1b8b845b654a6d1c8c9fad2e35aabc72" target="_top" xlink:title="Destructor of the TransperentBase class.">
<polygon fill="white" stroke="#666666" points="133,-311 0,-311 0,-282 133,-282 133,-311"/>
<text xml:space="preserve" text-anchor="start" x="8" y="-298.45" font-family="Arial" font-size="9.00">Lib::HAL::UART::Transperent</text>
<text xml:space="preserve" text-anchor="middle" x="66.5" y="-287.95" font-family="Arial" font-size="9.00">Base::~TransperentBase</text>
</a>
</g>
</g>
<!-- Node6&#45;&gt;Node7 -->
<g id="edge6_Node000006_Node000007" class="edge">
<title>Node6&#45;&gt;Node7</title>
<g id="a_edge6_Node000006_Node000007"><a xlink:title=" ">
<path fill="none" stroke="#63b8ff" d="M180.68,-257.19C158.02,-265.06 132.02,-274.09 110.65,-281.51"/>
<polygon fill="#63b8ff" stroke="#63b8ff" points="181.77,-260.52 190.06,-253.93 179.47,-253.91 181.77,-260.52"/>
</a>
</g>
</g>
<!-- Node8 -->
<g id="Node000008" class="node">
<title>Node8</title>
<g id="a_Node000008"><a xlink:href="../../d2/dca/a01683.html#ae12202389b9e2ea48011e67b877117eb" target="_top" xlink:title="Closes the UART port.">
<polygon fill="white" stroke="#666666" points="116.5,-264 16.5,-264 16.5,-235 116.5,-235 116.5,-264"/>
<text xml:space="preserve" text-anchor="start" x="24.5" y="-251.45" font-family="Arial" font-size="9.00">Lib::HAL::UART::Port</text>
<text xml:space="preserve" text-anchor="middle" x="66.5" y="-240.95" font-family="Arial" font-size="9.00">&lt; DMA &gt;::close</text>
</a>
</g>
</g>
<!-- Node6&#45;&gt;Node8 -->
<g id="edge7_Node000006_Node000008" class="edge">
<title>Node6&#45;&gt;Node8</title>
<g id="a_edge7_Node000006_Node000008"><a xlink:title=" ">
<path fill="none" stroke="#63b8ff" d="M157.87,-243.55C143.92,-244.47 129.72,-245.4 116.82,-246.25"/>
<polygon fill="#63b8ff" stroke="#63b8ff" points="157.72,-247.07 167.47,-242.92 157.26,-240.08 157.72,-247.07"/>
</a>
</g>
</g>
<!-- Node9 -->
<g id="Node000009" class="node">
<title>Node9</title>
<g id="a_Node000009"><a xlink:href="../../d7/db8/a01687.html#a68cfd12d85d5d1ed2b5038704f013e05" target="_top" xlink:title="Closes the UART port.">
<polygon fill="white" stroke="#666666" points="116.5,-217 16.5,-217 16.5,-188 116.5,-188 116.5,-217"/>
<text xml:space="preserve" text-anchor="start" x="24.5" y="-204.45" font-family="Arial" font-size="9.00">Lib::HAL::UART::Port</text>
<text xml:space="preserve" text-anchor="middle" x="66.5" y="-193.95" font-family="Arial" font-size="9.00">&lt; IT &gt;::close</text>
</a>
</g>
</g>
<!-- Node6&#45;&gt;Node9 -->
<g id="edge8_Node000006_Node000009" class="edge">
<title>Node6&#45;&gt;Node9</title>
<g id="a_edge8_Node000006_Node000009"><a xlink:title=" ">
<path fill="none" stroke="#63b8ff" d="M157.87,-221.98C143.92,-218.97 129.72,-215.91 116.82,-213.13"/>
<polygon fill="#63b8ff" stroke="#63b8ff" points="156.98,-225.37 167.5,-224.06 158.46,-218.53 156.98,-225.37"/>
</a>
</g>
</g>
<!-- Node10&#45;&gt;Node6 -->
<g id="edge10_Node000010_Node000006" class="edge">
<title>Node10&#45;&gt;Node6</title>
<g id="a_edge10_Node000010_Node000006"><a xlink:title=" ">
<path fill="none" stroke="#63b8ff" d="M331.88,-215.08C320.43,-217.89 308.67,-220.78 297.5,-223.52"/>
<polygon fill="#63b8ff" stroke="#63b8ff" points="332.39,-218.56 341.27,-212.78 330.72,-211.76 332.39,-218.56"/>
</a>
</g>
</g>
<!-- Node11&#45;&gt;Node12 -->
<g id="edge12_Node000011_Node000012" class="edge">
<title>Node11&#45;&gt;Node12</title>
<g id="a_edge12_Node000011_Node000012"><a xlink:title=" ">
<path fill="none" stroke="#63b8ff" d="M326.62,-140.83C318.52,-139.81 310.34,-138.79 302.38,-137.78"/>
<polygon fill="#63b8ff" stroke="#63b8ff" points="326.12,-144.3 336.47,-142.07 326.99,-137.35 326.12,-144.3"/>
</a>
</g>
</g>
<!-- Node13 -->
<g id="Node000013" class="node">
<title>Node13</title>
<g id="a_Node000013"><a xlink:href="../../d2/dca/a01683.html#a0cd9c0c700be46fa5ea5f18ccf253411" target="_top" xlink:title="Opens the UART port.">
<polygon fill="white" stroke="#666666" points="116.5,-170 16.5,-170 16.5,-141 116.5,-141 116.5,-170"/>
<text xml:space="preserve" text-anchor="start" x="24.5" y="-157.45" font-family="Arial" font-size="9.00">Lib::HAL::UART::Port</text>
<text xml:space="preserve" text-anchor="middle" x="66.5" y="-146.95" font-family="Arial" font-size="9.00">&lt; DMA &gt;::open</text>
</a>
</g>
</g>
<!-- Node12&#45;&gt;Node13 -->
<g id="edge13_Node000012_Node000013" class="edge">
<title>Node12&#45;&gt;Node13</title>
<g id="a_edge13_Node000012_Node000013"><a xlink:title=" ">
<path fill="none" stroke="#63b8ff" d="M157.87,-141.43C143.92,-143.6 129.72,-145.81 116.82,-147.82"/>
<polygon fill="#63b8ff" stroke="#63b8ff" points="158.14,-144.93 167.48,-139.93 157.06,-138.01 158.14,-144.93"/>
</a>
</g>
</g>
<!-- Node14 -->
<g id="Node000014" class="node">
<title>Node14</title>
<g id="a_Node000014"><a xlink:href="../../d7/db8/a01687.html#add21178ef803d3687d3802b2636ca917" target="_top" xlink:title="Opens the UART port.">
<polygon fill="white" stroke="#666666" points="116.5,-123 16.5,-123 16.5,-94 116.5,-94 116.5,-123"/>
<text xml:space="preserve" text-anchor="start" x="24.5" y="-110.45" font-family="Arial" font-size="9.00">Lib::HAL::UART::Port</text>
<text xml:space="preserve" text-anchor="middle" x="66.5" y="-99.95" font-family="Arial" font-size="9.00">&lt; IT &gt;::open</text>
</a>
</g>
</g>
<!-- Node12&#45;&gt;Node14 -->
<g id="edge14_Node000012_Node000014" class="edge">
<title>Node12&#45;&gt;Node14</title>
<g id="a_edge14_Node000012_Node000014"><a xlink:title=" ">
<path fill="none" stroke="#63b8ff" d="M157.87,-119.86C143.92,-118.11 129.72,-116.32 116.82,-114.7"/>
<polygon fill="#63b8ff" stroke="#63b8ff" points="157.12,-123.3 167.47,-121.07 157.99,-116.35 157.12,-123.3"/>
</a>
</g>
</g>
<!-- Node16 -->
<g id="Node000016" class="node">
<title>Node16</title>
<g id="a_Node000016"><a xlink:href="../../db/d98/a01675.html#a1ef3dc38466a5735621cbbdf81f0d344" target="_top" xlink:title="Sends data through UART and waits for TX completion.">
<polygon fill="white" stroke="#666666" points="302,-76 169,-76 169,-47 302,-47 302,-76"/>
<text xml:space="preserve" text-anchor="start" x="177" y="-63.45" font-family="Arial" font-size="9.00">Lib::HAL::UART::Transperent</text>
<text xml:space="preserve" text-anchor="middle" x="235.5" y="-52.95" font-family="Arial" font-size="9.00">Base::send</text>
</a>
</g>
</g>
<!-- Node15&#45;&gt;Node16 -->
<g id="edge17_Node000015_Node000016" class="edge">
<title>Node15&#45;&gt;Node16</title>
<g id="a_edge17_Node000015_Node000016"><a xlink:title=" ">
<path fill="none" stroke="#63b8ff" d="M326.62,-62.58C318.52,-62.48 310.34,-62.38 302.38,-62.29"/>
<polygon fill="#63b8ff" stroke="#63b8ff" points="326.42,-66.08 336.46,-62.7 326.51,-59.08 326.42,-66.08"/>
</a>
</g>
</g>
<!-- Node17 -->
<g id="Node000017" class="node">
<title>Node17</title>
<g id="a_Node000017"><a xlink:href="../../d2/dca/a01683.html#a360cbc6a5cd976c5596b8a726b892470" target="_top" xlink:title="Sends data via UART using DMA.">
<polygon fill="white" stroke="#666666" points="116.5,-76 16.5,-76 16.5,-47 116.5,-47 116.5,-76"/>
<text xml:space="preserve" text-anchor="start" x="24.5" y="-63.45" font-family="Arial" font-size="9.00">Lib::HAL::UART::Port</text>
<text xml:space="preserve" text-anchor="middle" x="66.5" y="-52.95" font-family="Arial" font-size="9.00">&lt; DMA &gt;::send</text>
</a>
</g>
</g>
<!-- Node16&#45;&gt;Node17 -->
<g id="edge18_Node000016_Node000017" class="edge">
<title>Node16&#45;&gt;Node17</title>
<g id="a_edge18_Node000016_Node000017"><a xlink:title=" ">
<path fill="none" stroke="#63b8ff" d="M157.87,-61.5C143.92,-61.5 129.72,-61.5 116.82,-61.5"/>
<polygon fill="#63b8ff" stroke="#63b8ff" points="157.46,-65 167.46,-61.5 157.46,-58 157.46,-65"/>
</a>
</g>
</g>
<!-- Node18 -->
<g id="Node000018" class="node">
<title>Node18</title>
<g id="a_Node000018"><a xlink:href="../../d7/db8/a01687.html#afc3e3804adde40d80fef453f1c667a6a" target="_top" xlink:title="Sends data via UART using interrupts.">
<polygon fill="white" stroke="#666666" points="116.5,-29 16.5,-29 16.5,0 116.5,0 116.5,-29"/>
<text xml:space="preserve" text-anchor="start" x="24.5" y="-16.45" font-family="Arial" font-size="9.00">Lib::HAL::UART::Port</text>
<text xml:space="preserve" text-anchor="middle" x="66.5" y="-5.95" font-family="Arial" font-size="9.00">&lt; IT &gt;::send</text>
</a>
</g>
</g>
<!-- Node16&#45;&gt;Node18 -->
<g id="edge19_Node000016_Node000018" class="edge">
<title>Node16&#45;&gt;Node18</title>
<g id="a_edge19_Node000016_Node000018"><a xlink:title=" ">
<path fill="none" stroke="#63b8ff" d="M170.74,-43.56C152.89,-38.53 133.75,-33.15 116.87,-28.39"/>
<polygon fill="#63b8ff" stroke="#63b8ff" points="169.63,-46.88 180.2,-46.22 171.53,-40.14 169.63,-46.88"/>
</a>
</g>
</g>
</g>
</svg>
