<?xml version="1.0" encoding="UTF-8" standalone="no"?>
<!DOCTYPE svg PUBLIC "-//W3C//DTD SVG 1.1//EN"
 "http://www.w3.org/Graphics/SVG/1.1/DTD/svg11.dtd">
<!-- Generated by graphviz version 13.1.0 (20250701.0955)
 -->
<!-- Title: Lib::BSP::DigitalPeripheral::PortBase Pages: 1 -->
<svg width="148pt" height="160pt"
 viewBox="0.00 0.00 148.00 160.00" xmlns="http://www.w3.org/2000/svg" xmlns:xlink="http://www.w3.org/1999/xlink">
<g id="graph0" class="graph" transform="scale(1 1) rotate(0) translate(4 155.5)">
<title>Lib::BSP::DigitalPeripheral::PortBase</title>
<!-- Node1 -->
<g id="Node000001" class="node">
<title>Node1</title>
<g id="a_Node000001"><a xlink:title="Abstract base class for digital peripheral ports.">
<polygon fill="#999999" stroke="none" points="139.5,-151.5 0,-151.5 0,0 139.5,0 139.5,-151.5"/>
<text xml:space="preserve" text-anchor="start" x="15.38" y="-138.95" font-family="Arial" font-size="9.00">Lib::BSP::DigitalPeripheral</text>
<text xml:space="preserve" text-anchor="start" x="48.75" y="-128.45" font-family="Arial" font-size="9.00">::PortBase</text>
<text xml:space="preserve" text-anchor="start" x="68.62" y="-113.95" font-family="Arial" font-size="9.00"> </text>
<text xml:space="preserve" text-anchor="start" x="4" y="-99.45" font-family="Arial" font-size="9.00">+</text>
<text xml:space="preserve" text-anchor="start" x="13.25" y="-99.45" font-family="Arial" font-size="9.00">PortBase()=default</text>
<text xml:space="preserve" text-anchor="start" x="4" y="-84.95" font-family="Arial" font-size="9.00">+</text>
<text xml:space="preserve" text-anchor="start" x="13.25" y="-84.95" font-family="Arial" font-size="9.00">virtual ~PortBase()</text>
<text xml:space="preserve" text-anchor="start" x="13.25" y="-74.45" font-family="Arial" font-size="9.00">=default</text>
<text xml:space="preserve" text-anchor="start" x="4" y="-59.95" font-family="Arial" font-size="9.00">+</text>
<text xml:space="preserve" text-anchor="start" x="13.25" y="-59.95" font-family="Arial" font-size="9.00">virtual void init()=0</text>
<text xml:space="preserve" text-anchor="start" x="4" y="-45.45" font-family="Arial" font-size="9.00">+</text>
<text xml:space="preserve" text-anchor="start" x="13.25" y="-45.45" font-family="Arial" font-size="9.00">virtual void preInit()=0</text>
<text xml:space="preserve" text-anchor="start" x="4" y="-30.95" font-family="Arial" font-size="9.00">+</text>
<text xml:space="preserve" text-anchor="start" x="13.25" y="-30.95" font-family="Arial" font-size="9.00">virtual bool update()=0</text>
<text xml:space="preserve" text-anchor="start" x="4" y="-16.45" font-family="Arial" font-size="9.00">+</text>
<text xml:space="preserve" text-anchor="start" x="13.25" y="-16.45" font-family="Arial" font-size="9.00">virtual bool waitForCompleted</text>
<text xml:space="preserve" text-anchor="start" x="13.25" y="-5.95" font-family="Arial" font-size="9.00">(uint32_t timeout)=0</text>
<polygon fill="#666666" stroke="#666666" points="0,-124.5 0,-124.5 139.5,-124.5 139.5,-124.5 0,-124.5"/>
<polygon fill="#666666" stroke="#666666" points="0,-110 0,-110 139.5,-110 139.5,-110 0,-110"/>
<polygon fill="none" stroke="#666666" points="0,0 0,-151.5 139.5,-151.5 139.5,0 0,0"/>
</a>
</g>
</g>
</g>
</svg>
