<?xml version="1.0" encoding="UTF-8" standalone="no"?>
<!DOCTYPE svg PUBLIC "-//W3C//DTD SVG 1.1//EN"
 "http://www.w3.org/Graphics/SVG/1.1/DTD/svg11.dtd">
<!-- Generated by graphviz version 13.1.0 (20250701.0955)
 -->
<!-- Title: Lib::BSP::EEPROM::I2C::DriverBase::close Pages: 1 -->
<svg width="271pt" height="84pt"
 viewBox="0.00 0.00 271.00 84.00" xmlns="http://www.w3.org/2000/svg" xmlns:xlink="http://www.w3.org/1999/xlink">
<g id="graph0" class="graph" transform="scale(1 1) rotate(0) translate(4 80)">
<title>Lib::BSP::EEPROM::I2C::DriverBase::close</title>
<!-- Node1 -->
<g id="Node000001" class="node">
<title>Node1</title>
<g id="a_Node000001"><a xlink:title="Closes the EEPROM device.">
<polygon fill="#999999" stroke="#666666" points="263,-52 149.5,-52 149.5,-23 263,-23 263,-52"/>
<text xml:space="preserve" text-anchor="start" x="157.5" y="-39.45" font-family="Arial" font-size="9.00">Lib::BSP::EEPROM::I2C</text>
<text xml:space="preserve" text-anchor="middle" x="206.25" y="-28.95" font-family="Arial" font-size="9.00">::DriverBase::close</text>
</a>
</g>
</g>
<!-- Node2 -->
<g id="Node000002" class="node">
<title>Node2</title>
<g id="a_Node000002"><a xlink:href="../../d1/d0d/a01191.html#af66c113f05af4daf48915029c9d5f7e1" target="_top" xlink:title="Closes the EEPROM device.">
<polygon fill="white" stroke="#666666" points="113.5,-76 0,-76 0,-47 113.5,-47 113.5,-76"/>
<text xml:space="preserve" text-anchor="start" x="8" y="-63.45" font-family="Arial" font-size="9.00">Lib::BSP::EEPROM::I2C</text>
<text xml:space="preserve" text-anchor="middle" x="56.75" y="-52.95" font-family="Arial" font-size="9.00">::M24C16::close</text>
</a>
</g>
</g>
<!-- Node1&#45;&gt;Node2 -->
<g id="edge1_Node000001_Node000002" class="edge">
<title>Node1&#45;&gt;Node2</title>
<g id="a_edge1_Node000001_Node000002"><a xlink:title=" ">
<path fill="none" stroke="#63b8ff" d="M137.81,-48.47C129.77,-49.78 121.63,-51.11 113.78,-52.38"/>
<polygon fill="#63b8ff" stroke="#63b8ff" points="138.26,-51.95 147.57,-46.88 137.14,-45.04 138.26,-51.95"/>
</a>
</g>
</g>
<!-- Node3 -->
<g id="Node000003" class="node">
<title>Node3</title>
<g id="a_Node000003"><a xlink:href="../../d8/df3/a01195.html#a8b0a919c10b4dd4f3b439dd570d5656e" target="_top" xlink:title="Closes the EEPROM device.">
<polygon fill="white" stroke="#666666" points="113.5,-29 0,-29 0,0 113.5,0 113.5,-29"/>
<text xml:space="preserve" text-anchor="start" x="8" y="-16.45" font-family="Arial" font-size="9.00">Lib::BSP::EEPROM::I2C</text>
<text xml:space="preserve" text-anchor="middle" x="56.75" y="-5.95" font-family="Arial" font-size="9.00">::M24C64W::close</text>
</a>
</g>
</g>
<!-- Node1&#45;&gt;Node3 -->
<g id="edge2_Node000001_Node000003" class="edge">
<title>Node1&#45;&gt;Node3</title>
<g id="a_edge2_Node000001_Node000003"><a xlink:title=" ">
<path fill="none" stroke="#63b8ff" d="M137.81,-26.98C129.77,-25.73 121.63,-24.46 113.78,-23.24"/>
<polygon fill="#63b8ff" stroke="#63b8ff" points="137.15,-30.42 147.57,-28.51 138.23,-23.51 137.15,-30.42"/>
</a>
</g>
</g>
</g>
</svg>
