<?xml version="1.0" encoding="UTF-8" standalone="no"?>
<!DOCTYPE svg PUBLIC "-//W3C//DTD SVG 1.1//EN"
 "http://www.w3.org/Graphics/SVG/1.1/DTD/svg11.dtd">
<!-- Generated by graphviz version 13.1.0 (20250701.0955)
 -->
<!-- Title: Lib::HAL::GPIO::ExtInterrupt::DeviceManager::instance Pages: 1 -->
<svg width="466pt" height="121pt"
 viewBox="0.00 0.00 466.00 121.00" xmlns="http://www.w3.org/2000/svg" xmlns:xlink="http://www.w3.org/1999/xlink">
<g id="graph0" class="graph" transform="scale(1 1) rotate(0) translate(4 117)">
<title>Lib::HAL::GPIO::ExtInterrupt::DeviceManager::instance</title>
<!-- Node1 -->
<g id="Node000001" class="node">
<title>Node1</title>
<g id="a_Node000001"><a xlink:title="Retrieves the singleton instance of DeviceManager.">
<polygon fill="#999999" stroke="#666666" points="457.5,-71 329,-71 329,-42 457.5,-42 457.5,-71"/>
<text xml:space="preserve" text-anchor="start" x="337" y="-58.45" font-family="Arial" font-size="9.00">Lib::HAL::GPIO::ExtInterrupt</text>
<text xml:space="preserve" text-anchor="middle" x="393.25" y="-47.95" font-family="Arial" font-size="9.00">::DeviceManager::instance</text>
</a>
</g>
</g>
<!-- Node1&#45;&gt;Node1 -->
<g id="edge3_Node000001_Node000001" class="edge">
<title>Node1&#45;&gt;Node1</title>
<g id="a_edge3_Node000001_Node000001"><a xlink:title=" ">
<path fill="none" stroke="#63b8ff" d="M421.17,-82.56C416.79,-86.41 407.48,-89 393.25,-89 367.23,-89 357.67,-80.32 364.58,-71.21"/>
<polygon fill="#63b8ff" stroke="#63b8ff" points="424.65,-82.92 421.82,-72.72 417.67,-82.47 424.65,-82.92"/>
</a>
</g>
</g>
<!-- Node2 -->
<g id="Node000002" class="node">
<title>Node2</title>
<g id="a_Node000002"><a xlink:href="../../d6/dd7/a01555.html#a6301a8ebc9d990f5e6a5456521d0c9a2" target="_top" xlink:title="Binds a callback function to the interrupt.">
<polygon fill="white" stroke="#666666" points="293,-113 164.5,-113 164.5,-84 293,-84 293,-113"/>
<text xml:space="preserve" text-anchor="start" x="172.5" y="-100.45" font-family="Arial" font-size="9.00">Lib::HAL::GPIO::ExtInterrupt</text>
<text xml:space="preserve" text-anchor="middle" x="228.75" y="-89.95" font-family="Arial" font-size="9.00">::bind</text>
</a>
</g>
</g>
<!-- Node1&#45;&gt;Node2 -->
<g id="edge1_Node000001_Node000002" class="edge">
<title>Node1&#45;&gt;Node2</title>
<g id="a_edge1_Node000001_Node000002"><a xlink:title=" ">
<path fill="none" stroke="#63b8ff" d="M323.62,-74.24C311.63,-77.34 299.25,-80.54 287.59,-83.55"/>
<polygon fill="#63b8ff" stroke="#63b8ff" points="324.23,-77.7 333.04,-71.8 322.48,-70.92 324.23,-77.7"/>
</a>
</g>
</g>
<!-- Node3 -->
<g id="Node000003" class="node">
<title>Node3</title>
<g id="a_Node000003"><a xlink:href="../../d4/da8/a00437.html#a0eaf9f4f2a607782ed611a9cfc9f443a" target="_top" xlink:title="STM32 HAL EXTI callback trampoline.">
<polygon fill="white" stroke="#666666" points="292.25,-65.75 165.25,-65.75 165.25,-47.25 292.25,-47.25 292.25,-65.75"/>
<text xml:space="preserve" text-anchor="middle" x="228.75" y="-53.2" font-family="Arial" font-size="9.00">HAL_GPIO_EXTI_Callback</text>
</a>
</g>
</g>
<!-- Node1&#45;&gt;Node3 -->
<g id="edge2_Node000001_Node000003" class="edge">
<title>Node1&#45;&gt;Node3</title>
<g id="a_edge2_Node000001_Node000003"><a xlink:title=" ">
<path fill="none" stroke="#63b8ff" d="M317.64,-56.5C309.27,-56.5 300.8,-56.5 292.6,-56.5"/>
<polygon fill="#63b8ff" stroke="#63b8ff" points="317.44,-60 327.44,-56.5 317.44,-53 317.44,-60"/>
</a>
</g>
</g>
<!-- Node4 -->
<g id="Node000004" class="node">
<title>Node4</title>
<g id="a_Node000004"><a xlink:href="../../d6/dd7/a01555.html#aa97095656a7722cd726dcb602fee85fa" target="_top" xlink:title="Unbinds the callback function and removes the device from the manager.">
<polygon fill="white" stroke="#666666" points="293,-29 164.5,-29 164.5,0 293,0 293,-29"/>
<text xml:space="preserve" text-anchor="start" x="172.5" y="-16.45" font-family="Arial" font-size="9.00">Lib::HAL::GPIO::ExtInterrupt</text>
<text xml:space="preserve" text-anchor="middle" x="228.75" y="-5.95" font-family="Arial" font-size="9.00">::unbind</text>
</a>
</g>
</g>
<!-- Node1&#45;&gt;Node4 -->
<g id="edge4_Node000001_Node000004" class="edge">
<title>Node1&#45;&gt;Node4</title>
<g id="a_edge4_Node000001_Node000004"><a xlink:title=" ">
<path fill="none" stroke="#63b8ff" d="M323.62,-38.76C311.63,-35.66 299.25,-32.46 287.59,-29.45"/>
<polygon fill="#63b8ff" stroke="#63b8ff" points="322.48,-42.08 333.04,-41.2 324.23,-35.3 322.48,-42.08"/>
</a>
</g>
</g>
<!-- Node5 -->
<g id="Node000005" class="node">
<title>Node5</title>
<g id="a_Node000005"><a xlink:href="../../d6/dd7/a01555.html#a0500efb3e0dbde6f95fd02948060723b" target="_top" xlink:title="Destructor of the ExtInterrupt class.">
<polygon fill="white" stroke="#666666" points="128.5,-29 0,-29 0,0 128.5,0 128.5,-29"/>
<text xml:space="preserve" text-anchor="start" x="8" y="-16.45" font-family="Arial" font-size="9.00">Lib::HAL::GPIO::ExtInterrupt</text>
<text xml:space="preserve" text-anchor="middle" x="64.25" y="-5.95" font-family="Arial" font-size="9.00">::~ExtInterrupt</text>
</a>
</g>
</g>
<!-- Node4&#45;&gt;Node5 -->
<g id="edge5_Node000004_Node000005" class="edge">
<title>Node4&#45;&gt;Node5</title>
<g id="a_edge5_Node000004_Node000005"><a xlink:title=" ">
<path fill="none" stroke="#63b8ff" d="M153.11,-14.5C145.02,-14.5 136.85,-14.5 128.9,-14.5"/>
<polygon fill="#63b8ff" stroke="#63b8ff" points="152.94,-18 162.94,-14.5 152.94,-11 152.94,-18"/>
</a>
</g>
</g>
</g>
</svg>
