<?xml version="1.0" encoding="UTF-8" standalone="no"?>
<!DOCTYPE svg PUBLIC "-//W3C//DTD SVG 1.1//EN"
 "http://www.w3.org/Graphics/SVG/1.1/DTD/svg11.dtd">
<!-- Generated by graphviz version 13.1.0 (20250701.0955)
 -->
<!-- Title: Lib::USB::SerialPortRepeaterBase::Config Pages: 1 -->
<svg width="267pt" height="419pt"
 viewBox="0.00 0.00 267.00 419.00" xmlns="http://www.w3.org/2000/svg" xmlns:xlink="http://www.w3.org/1999/xlink">
<g id="graph0" class="graph" transform="scale(1 1) rotate(0) translate(4 415)">
<title>Lib::USB::SerialPortRepeaterBase::Config</title>
<!-- Node1 -->
<g id="Node000001" class="node">
<title>Node1</title>
<g id="a_Node000001"><a xlink:title="Configuration structure for SerialPortRepeaterBase.">
<polygon fill="#999999" stroke="none" points="228.5,-58 101.25,-58 101.25,0 228.5,0 228.5,-58"/>
<text xml:space="preserve" text-anchor="start" x="105.25" y="-45.45" font-family="Arial" font-size="9.00">Lib::USB::SerialPortRepeater</text>
<text xml:space="preserve" text-anchor="start" x="138.62" y="-34.95" font-family="Arial" font-size="9.00">Base::Config</text>
<text xml:space="preserve" text-anchor="start" x="163.75" y="-20.45" font-family="Arial" font-size="9.00"> </text>
<text xml:space="preserve" text-anchor="start" x="163.75" y="-5.95" font-family="Arial" font-size="9.00"> </text>
<polygon fill="#666666" stroke="#666666" points="101.25,-31 101.25,-31 228.5,-31 228.5,-31 101.25,-31"/>
<polygon fill="#666666" stroke="#666666" points="101.25,-16.5 101.25,-16.5 228.5,-16.5 228.5,-16.5 101.25,-16.5"/>
<polygon fill="none" stroke="#666666" points="101.25,0 101.25,-58 228.5,-58 228.5,0 101.25,0"/>
</a>
</g>
</g>
<!-- Node2 -->
<g id="Node000002" class="node">
<title>Node2</title>
<g id="a_Node000002"><a xlink:href="../../d8/dd1/a01894.html" target="_top" xlink:title="Configuration for the SerialPort class.">
<polygon fill="white" stroke="none" points="169.38,-153 80.38,-153 80.38,-95 169.38,-95 169.38,-153"/>
<text xml:space="preserve" text-anchor="start" x="84.38" y="-140.45" font-family="Arial" font-size="9.00">Lib::USB::SerialPort</text>
<text xml:space="preserve" text-anchor="start" x="109.12" y="-129.95" font-family="Arial" font-size="9.00">::Config</text>
<text xml:space="preserve" text-anchor="start" x="123.75" y="-115.45" font-family="Arial" font-size="9.00"> </text>
<text xml:space="preserve" text-anchor="start" x="123.75" y="-100.95" font-family="Arial" font-size="9.00"> </text>
<polygon fill="#666666" stroke="#666666" points="80.38,-126 80.38,-126 169.38,-126 169.38,-126 80.38,-126"/>
<polygon fill="#666666" stroke="#666666" points="80.38,-111.5 80.38,-111.5 169.38,-111.5 169.38,-111.5 80.38,-111.5"/>
<polygon fill="none" stroke="#666666" points="80.38,-95 80.38,-153 169.38,-153 169.38,-95 80.38,-95"/>
</a>
</g>
</g>
<!-- Node2&#45;&gt;Node1 -->
<g id="edge1_Node000001_Node000002" class="edge">
<title>Node2&#45;&gt;Node1</title>
<g id="a_edge1_Node000001_Node000002"><a xlink:title=" ">
<path fill="none" stroke="#63b8ff" d="M141.31,-84.8C145.18,-75.79 149.24,-66.34 152.88,-57.88"/>
<polygon fill="none" stroke="#63b8ff" points="138.21,-83.14 137.47,-93.71 144.64,-85.9 138.21,-83.14"/>
</a>
</g>
</g>
<!-- Node3 -->
<g id="Node000003" class="node">
<title>Node3</title>
<g id="a_Node000003"><a xlink:title=" ">
<polygon fill="white" stroke="none" points="107.75,-289.25 0,-289.25 0,-241.75 107.75,-241.75 107.75,-289.25"/>
<text xml:space="preserve" text-anchor="start" x="4" y="-276.7" font-family="Arial" font-size="9.00">UART_HandleTypeDef *</text>
<text xml:space="preserve" text-anchor="start" x="52.75" y="-262.2" font-family="Arial" font-size="9.00"> </text>
<text xml:space="preserve" text-anchor="start" x="52.75" y="-247.7" font-family="Arial" font-size="9.00"> </text>
<polygon fill="#bfbfbf" stroke="#bfbfbf" points="0,-272.75 0,-272.75 107.75,-272.75 107.75,-272.75 0,-272.75"/>
<polygon fill="#bfbfbf" stroke="#bfbfbf" points="0,-258.25 0,-258.25 107.75,-258.25 107.75,-258.25 0,-258.25"/>
<polygon fill="none" stroke="#bfbfbf" points="0,-241.75 0,-289.25 107.75,-289.25 107.75,-241.75 0,-241.75"/>
</a>
</g>
</g>
<!-- Node3&#45;&gt;Node2 -->
<g id="edge2_Node000002_Node000003" class="edge">
<title>Node3&#45;&gt;Node2</title>
<g id="a_edge2_Node000002_Node000003"><a xlink:title=" ">
<path fill="none" stroke="#63b8ff" d="M51.36,-241.82C50.24,-221.88 51.32,-192.73 63.62,-171 65.82,-167.12 68.49,-163.47 71.48,-160.05"/>
<polygon fill="none" stroke="#63b8ff" points="71.41,-160.12 72.86,-153.06 79.94,-151.68 78.49,-158.75 71.41,-160.12"/>
</a>
</g>
<text xml:space="preserve" text-anchor="start" x="66.62" y="-190.45" font-family="Arial" font-size="9.00" fill="grey">+rxPortHandle</text>
<text xml:space="preserve" text-anchor="start" x="66.62" y="-175.95" font-family="Arial" font-size="9.00" fill="grey">+txPortHandle</text>
</g>
<!-- Node4 -->
<g id="Node000004" class="node">
<title>Node4</title>
<g id="a_Node000004"><a xlink:href="../../d2/dc1/a01562.html" target="_top" xlink:title="GPIO pin handle abstraction.">
<polygon fill="white" stroke="none" points="243.88,-311 139.88,-311 139.88,-220 243.88,-220 243.88,-311"/>
<text xml:space="preserve" text-anchor="start" x="143.88" y="-298.45" font-family="Arial" font-size="9.00">Lib::HAL::GPIO::Handle</text>
<text xml:space="preserve" text-anchor="start" x="190.75" y="-283.95" font-family="Arial" font-size="9.00"> </text>
<text xml:space="preserve" text-anchor="start" x="152.81" y="-269.45" font-family="Arial" font-size="9.00">+</text>
<text xml:space="preserve" text-anchor="start" x="171" y="-269.45" font-family="Arial" font-size="9.00">Handle()</text>
<text xml:space="preserve" text-anchor="start" x="152.81" y="-254.95" font-family="Arial" font-size="9.00">+</text>
<text xml:space="preserve" text-anchor="start" x="171" y="-254.95" font-family="Arial" font-size="9.00">Handle()</text>
<text xml:space="preserve" text-anchor="start" x="152.81" y="-240.45" font-family="Arial" font-size="9.00">+</text>
<text xml:space="preserve" text-anchor="start" x="171" y="-240.45" font-family="Arial" font-size="9.00">~Handle()</text>
<text xml:space="preserve" text-anchor="start" x="152.81" y="-225.95" font-family="Arial" font-size="9.00">+</text>
<text xml:space="preserve" text-anchor="start" x="171" y="-225.95" font-family="Arial" font-size="9.00">operator==()</text>
<polygon fill="#666666" stroke="#666666" points="139.88,-294.5 139.88,-294.5 243.88,-294.5 243.88,-294.5 139.88,-294.5"/>
<polygon fill="#666666" stroke="#666666" points="139.88,-280 139.88,-280 243.88,-280 243.88,-280 139.88,-280"/>
<polygon fill="none" stroke="#666666" points="139.88,-220 139.88,-311 243.88,-311 243.88,-220 139.88,-220"/>
</a>
</g>
</g>
<!-- Node4&#45;&gt;Node1 -->
<g id="edge6_Node000001_Node000004" class="edge">
<title>Node4&#45;&gt;Node1</title>
<g id="a_edge6_Node000001_Node000004"><a xlink:title=" ">
<path fill="none" stroke="#63b8ff" d="M193.41,-220.2C193.54,-204.62 193.23,-187.01 191.88,-171 188.98,-136.85 185.37,-128.65 178.88,-95 177.34,-87.06 175.6,-78.6 173.88,-70.5"/>
<polygon fill="none" stroke="#63b8ff" points="173.85,-70.39 168.68,-65.37 171.32,-58.66 176.5,-63.68 173.85,-70.39"/>
</a>
</g>
<text xml:space="preserve" text-anchor="start" x="192.92" y="-127.95" font-family="Arial" font-size="9.00" fill="grey">+usbDetect</text>
<text xml:space="preserve" text-anchor="start" x="192.92" y="-113.45" font-family="Arial" font-size="9.00" fill="grey">+usbDisable</text>
</g>
<!-- Node4&#45;&gt;Node2 -->
<g id="edge3_Node000002_Node000004" class="edge">
<title>Node4&#45;&gt;Node2</title>
<g id="a_edge3_Node000002_Node000004"><a xlink:title=" ">
<path fill="none" stroke="#63b8ff" d="M153.76,-220.27C149.78,-214.37 146.1,-208.2 143.12,-202 137.67,-190.63 133.78,-177.51 131.03,-165.37"/>
<polygon fill="none" stroke="#63b8ff" points="131.03,-165.34 125.92,-160.25 128.66,-153.58 133.76,-158.67 131.03,-165.34"/>
</a>
</g>
<text xml:space="preserve" text-anchor="start" x="146.12" y="-183.2" font-family="Arial" font-size="9.00" fill="grey">+pinNRST</text>
</g>
<!-- Node5 -->
<g id="Node000005" class="node">
<title>Node5</title>
<g id="a_Node000005"><a xlink:title=" ">
<polygon fill="white" stroke="none" points="191.62,-411 116.12,-411 116.12,-363.5 191.62,-363.5 191.62,-411"/>
<text xml:space="preserve" text-anchor="start" x="120.12" y="-398.45" font-family="Arial" font-size="9.00">GPIO_TypeDef *</text>
<text xml:space="preserve" text-anchor="start" x="152.75" y="-383.95" font-family="Arial" font-size="9.00"> </text>
<text xml:space="preserve" text-anchor="start" x="152.75" y="-369.45" font-family="Arial" font-size="9.00"> </text>
<polygon fill="#bfbfbf" stroke="#bfbfbf" points="116.12,-394.5 116.12,-394.5 191.62,-394.5 191.62,-394.5 116.12,-394.5"/>
<polygon fill="#bfbfbf" stroke="#bfbfbf" points="116.12,-380 116.12,-380 191.62,-380 191.62,-380 116.12,-380"/>
<polygon fill="none" stroke="#bfbfbf" points="116.12,-363.5 116.12,-411 191.62,-411 191.62,-363.5 116.12,-363.5"/>
</a>
</g>
</g>
<!-- Node5&#45;&gt;Node4 -->
<g id="edge4_Node000004_Node000005" class="edge">
<title>Node5&#45;&gt;Node4</title>
<g id="a_edge4_Node000004_Node000005"><a xlink:title=" ">
<path fill="none" stroke="#63b8ff" d="M161.02,-363.73C164.72,-352.08 169.41,-337.3 174.01,-322.8"/>
<polygon fill="none" stroke="#63b8ff" points="173.93,-323.05 171.93,-316.12 177.56,-311.61 179.56,-318.54 173.93,-323.05"/>
</a>
</g>
<text xml:space="preserve" text-anchor="start" x="174.74" y="-333.95" font-family="Arial" font-size="9.00" fill="grey">+port</text>
</g>
<!-- Node6 -->
<g id="Node000006" class="node">
<title>Node6</title>
<g id="a_Node000006"><a xlink:title=" ">
<polygon fill="white" stroke="none" points="250.38,-411 209.38,-411 209.38,-363.5 250.38,-363.5 250.38,-411"/>
<text xml:space="preserve" text-anchor="start" x="213.38" y="-398.45" font-family="Arial" font-size="9.00">uint16_t</text>
<text xml:space="preserve" text-anchor="start" x="228.75" y="-383.95" font-family="Arial" font-size="9.00"> </text>
<text xml:space="preserve" text-anchor="start" x="228.75" y="-369.45" font-family="Arial" font-size="9.00"> </text>
<polygon fill="#bfbfbf" stroke="#bfbfbf" points="209.38,-394.5 209.38,-394.5 250.38,-394.5 250.38,-394.5 209.38,-394.5"/>
<polygon fill="#bfbfbf" stroke="#bfbfbf" points="209.38,-380 209.38,-380 250.38,-380 250.38,-380 209.38,-380"/>
<polygon fill="none" stroke="#bfbfbf" points="209.38,-363.5 209.38,-411 250.38,-411 250.38,-363.5 209.38,-363.5"/>
</a>
</g>
</g>
<!-- Node6&#45;&gt;Node4 -->
<g id="edge5_Node000004_Node000006" class="edge">
<title>Node6&#45;&gt;Node4</title>
<g id="a_edge5_Node000004_Node000006"><a xlink:title=" ">
<path fill="none" stroke="#63b8ff" d="M222.73,-363.73C219.03,-352.08 214.34,-337.3 209.74,-322.8"/>
<polygon fill="none" stroke="#63b8ff" points="209.82,-323.05 204.19,-318.54 206.19,-311.61 211.82,-316.12 209.82,-323.05"/>
</a>
</g>
<text xml:space="preserve" text-anchor="start" x="219.5" y="-333.95" font-family="Arial" font-size="9.00" fill="grey">+number</text>
</g>
</g>
</svg>
