<?xml version="1.0" encoding="UTF-8" standalone="no"?>
<!DOCTYPE svg PUBLIC "-//W3C//DTD SVG 1.1//EN"
 "http://www.w3.org/Graphics/SVG/1.1/DTD/svg11.dtd">
<!-- Generated by graphviz version 12.2.1 (20241206.2353)
 -->
<!-- Title: RTC.hpp Pages: 1 -->
<svg width="411pt" height="140pt"
 viewBox="0.00 0.00 410.88 140.00" xmlns="http://www.w3.org/2000/svg" xmlns:xlink="http://www.w3.org/1999/xlink">
<g id="graph0" class="graph" transform="scale(1 1) rotate(0) translate(4 136)">
<title>RTC.hpp</title>
<!-- Node1 -->
<g id="Node000001" class="node">
<title>Node1</title>
<g id="a_Node000001"><a xlink:title="Provides the RTCBase class for managing RTC operations.">
<polygon fill="#999999" stroke="#666666" points="247.5,-132 192.5,-132 192.5,-112 247.5,-112 247.5,-132"/>
<text text-anchor="middle" x="220" y="-118.5" font-family="Helvetica,sans-Serif" font-size="10.00">RTC.hpp</text>
</a>
</g>
</g>
<!-- Node2 -->
<g id="Node000002" class="node">
<title>Node2</title>
<g id="a_Node000002"><a xlink:href="../../d7/d9a/a00152.html" target="_top" xlink:title="RTC Device class for managing RTC operations.">
<polygon fill="white" stroke="#666666" points="277.5,-76 162.5,-76 162.5,-56 277.5,-56 277.5,-76"/>
<text text-anchor="middle" x="220" y="-62.5" font-family="Helvetica,sans-Serif" font-size="10.00">class/RTC/Device.hpp</text>
</a>
</g>
</g>
<!-- Node1&#45;&gt;Node2 -->
<g id="edge1_Node000001_Node000002" class="edge">
<title>Node1&#45;&gt;Node2</title>
<g id="a_edge1_Node000001_Node000002"><a xlink:title=" ">
<path fill="none" stroke="#63b8ff" d="M220,-111.59C220,-105.01 220,-95.96 220,-87.73"/>
<polygon fill="#63b8ff" stroke="#63b8ff" points="223.5,-87.81 220,-77.81 216.5,-87.81 223.5,-87.81"/>
</a>
</g>
</g>
<!-- Node3 -->
<g id="Node000003" class="node">
<title>Node3</title>
<g id="a_Node000003"><a xlink:href="../../d0/dc2/a00104.html" target="_top" xlink:title="Manages the Backup SRAM power domain.">
<polygon fill="white" stroke="#666666" points="130,-20 0,-20 0,0 130,0 130,-20"/>
<text text-anchor="middle" x="65" y="-6.5" font-family="Helvetica,sans-Serif" font-size="10.00">../BKPSRAM/Domain.hpp</text>
</a>
</g>
</g>
<!-- Node2&#45;&gt;Node3 -->
<g id="edge2_Node000002_Node000003" class="edge">
<title>Node2&#45;&gt;Node3</title>
<g id="a_edge2_Node000002_Node000003"><a xlink:title=" ">
<path fill="none" stroke="#63b8ff" d="M193,-55.59C168.04,-46.9 130.7,-33.89 102.78,-24.16"/>
<polygon fill="#63b8ff" stroke="#63b8ff" points="104.23,-20.96 93.64,-20.98 101.93,-27.57 104.23,-20.96"/>
</a>
</g>
</g>
<!-- Node4 -->
<g id="Node000004" class="node">
<title>Node4</title>
<g id="a_Node000004"><a xlink:title=" ">
<polygon fill="#e0e0e0" stroke="#999999" points="196.12,-20 147.88,-20 147.88,0 196.12,0 196.12,-20"/>
<text text-anchor="middle" x="172" y="-6.5" font-family="Helvetica,sans-Serif" font-size="10.00">cassert</text>
</a>
</g>
</g>
<!-- Node2&#45;&gt;Node4 -->
<g id="edge3_Node000002_Node000004" class="edge">
<title>Node2&#45;&gt;Node4</title>
<g id="a_edge3_Node000002_Node000004"><a xlink:title=" ">
<path fill="none" stroke="#63b8ff" d="M211.64,-55.59C205.1,-48.24 195.82,-37.8 187.88,-28.87"/>
<polygon fill="#63b8ff" stroke="#63b8ff" points="190.53,-26.58 181.27,-21.43 185.3,-31.23 190.53,-26.58"/>
</a>
</g>
</g>
<!-- Node5 -->
<g id="Node000005" class="node">
<title>Node5</title>
<g id="a_Node000005"><a xlink:title=" ">
<polygon fill="#e0e0e0" stroke="#999999" points="323.5,-20 214.5,-20 214.5,0 323.5,0 323.5,-20"/>
<text text-anchor="middle" x="269" y="-6.5" font-family="Helvetica,sans-Serif" font-size="10.00">Helper/DateTime.hpp</text>
</a>
</g>
</g>
<!-- Node2&#45;&gt;Node5 -->
<g id="edge4_Node000002_Node000005" class="edge">
<title>Node2&#45;&gt;Node5</title>
<g id="a_edge4_Node000002_Node000005"><a xlink:title=" ">
<path fill="none" stroke="#63b8ff" d="M228.54,-55.59C235.28,-48.16 244.89,-37.58 253.04,-28.58"/>
<polygon fill="#63b8ff" stroke="#63b8ff" points="255.42,-31.18 259.55,-21.42 250.23,-26.47 255.42,-31.18"/>
</a>
</g>
</g>
<!-- Node6 -->
<g id="Node000006" class="node">
<title>Node6</title>
<g id="a_Node000006"><a xlink:title=" ">
<polygon fill="#e0e0e0" stroke="#999999" points="402.88,-20 341.12,-20 341.12,0 402.88,0 402.88,-20"/>
<text text-anchor="middle" x="372" y="-6.5" font-family="Helvetica,sans-Serif" font-size="10.00">RTOS.hpp</text>
</a>
</g>
</g>
<!-- Node2&#45;&gt;Node6 -->
<g id="edge5_Node000002_Node000006" class="edge">
<title>Node2&#45;&gt;Node6</title>
<g id="a_edge5_Node000002_Node000006"><a xlink:title=" ">
<path fill="none" stroke="#63b8ff" d="M246.48,-55.59C270.85,-46.94 307.25,-34 334.59,-24.29"/>
<polygon fill="#63b8ff" stroke="#63b8ff" points="335.64,-27.63 343.89,-20.99 333.3,-21.04 335.64,-27.63"/>
</a>
</g>
</g>
</g>
</svg>
