<?xml version="1.0" encoding="UTF-8" standalone="no"?>
<!DOCTYPE svg PUBLIC "-//W3C//DTD SVG 1.1//EN"
 "http://www.w3.org/Graphics/SVG/1.1/DTD/svg11.dtd">
<!-- Generated by graphviz version 13.1.0 (20250701.0955)
 -->
<!-- Title: SerialPortRepeaterBase.hpp Pages: 1 -->
<svg width="163pt" height="364pt"
 viewBox="0.00 0.00 163.00 364.00" xmlns="http://www.w3.org/2000/svg" xmlns:xlink="http://www.w3.org/1999/xlink">
<g id="graph0" class="graph" transform="scale(1 1) rotate(0) translate(4 360)">
<title>SerialPortRepeaterBase.hpp</title>
<!-- Node1 -->
<g id="Node000001" class="node">
<title>Node1</title>
<g id="a_Node000001"><a xlink:title="Base class for serial port repeater functionality.">
<polygon fill="#999999" stroke="#666666" points="139.75,-356 0,-356 0,-336 139.75,-336 139.75,-356"/>
<text xml:space="preserve" text-anchor="middle" x="69.88" y="-342.5" font-family="Helvetica,sans-Serif" font-size="10.00">SerialPortRepeaterBase.hpp</text>
</a>
</g>
</g>
<!-- Node2 -->
<g id="Node000002" class="node">
<title>Node2</title>
<g id="a_Node000002"><a xlink:href="../../d5/df1/a00206.html" target="_top" xlink:title="SerialPortRepeater for USB serial port repeating in embedded systems.">
<polygon fill="white" stroke="#666666" points="125.88,-300 13.88,-300 13.88,-280 125.88,-280 125.88,-300"/>
<text xml:space="preserve" text-anchor="middle" x="69.88" y="-286.5" font-family="Helvetica,sans-Serif" font-size="10.00">SerialPortRepeter.hpp</text>
</a>
</g>
</g>
<!-- Node1&#45;&gt;Node2 -->
<g id="edge1_Node000001_Node000002" class="edge">
<title>Node1&#45;&gt;Node2</title>
<g id="a_edge1_Node000001_Node000002"><a xlink:title=" ">
<path fill="none" stroke="#63b8ff" d="M69.88,-324.13C69.88,-315.9 69.88,-306.85 69.88,-300.3"/>
<polygon fill="#63b8ff" stroke="#63b8ff" points="66.38,-324.08 69.88,-334.08 73.38,-324.08 66.38,-324.08"/>
</a>
</g>
</g>
<!-- Node3 -->
<g id="Node000003" class="node">
<title>Node3</title>
<g id="a_Node000003"><a xlink:href="../../d3/de5/a00209.html" target="_top" xlink:title="USB communication global serial port repeater instance.">
<polygon fill="white" stroke="#666666" points="97.75,-244 42,-244 42,-224 97.75,-224 97.75,-244"/>
<text xml:space="preserve" text-anchor="middle" x="69.88" y="-230.5" font-family="Helvetica,sans-Serif" font-size="10.00">USB.hpp</text>
</a>
</g>
</g>
<!-- Node2&#45;&gt;Node3 -->
<g id="edge2_Node000002_Node000003" class="edge">
<title>Node2&#45;&gt;Node3</title>
<g id="a_edge2_Node000002_Node000003"><a xlink:title=" ">
<path fill="none" stroke="#63b8ff" d="M69.88,-268.13C69.88,-259.9 69.88,-250.85 69.88,-244.3"/>
<polygon fill="#63b8ff" stroke="#63b8ff" points="66.38,-268.08 69.88,-278.08 73.38,-268.08 66.38,-268.08"/>
</a>
</g>
</g>
<!-- Node4 -->
<g id="Node000004" class="node">
<title>Node4</title>
<g id="a_Node000004"><a xlink:href="../../d7/d3f/a00173.html" target="_top" xlink:title="Startup mode management for system initialization.">
<polygon fill="white" stroke="#666666" points="115,-188 24.75,-188 24.75,-168 115,-168 115,-188"/>
<text xml:space="preserve" text-anchor="middle" x="69.88" y="-174.5" font-family="Helvetica,sans-Serif" font-size="10.00">StartupMode.hpp</text>
</a>
</g>
</g>
<!-- Node3&#45;&gt;Node4 -->
<g id="edge3_Node000003_Node000004" class="edge">
<title>Node3&#45;&gt;Node4</title>
<g id="a_edge3_Node000003_Node000004"><a xlink:title=" ">
<path fill="none" stroke="#63b8ff" d="M69.88,-212.13C69.88,-203.9 69.88,-194.85 69.88,-188.3"/>
<polygon fill="#63b8ff" stroke="#63b8ff" points="66.38,-212.08 69.88,-222.08 73.38,-212.08 66.38,-212.08"/>
</a>
</g>
</g>
<!-- Node5 -->
<g id="Node000005" class="node">
<title>Node5</title>
<g id="a_Node000005"><a xlink:href="../../db/dd9/a00179.html" target="_top" xlink:title="System&#45;wide global objects and startup state definitions.">
<polygon fill="white" stroke="#666666" points="104.12,-132 35.62,-132 35.62,-112 104.12,-112 104.12,-132"/>
<text xml:space="preserve" text-anchor="middle" x="69.88" y="-118.5" font-family="Helvetica,sans-Serif" font-size="10.00">System.hpp</text>
</a>
</g>
</g>
<!-- Node4&#45;&gt;Node5 -->
<g id="edge4_Node000004_Node000005" class="edge">
<title>Node4&#45;&gt;Node5</title>
<g id="a_edge4_Node000004_Node000005"><a xlink:title=" ">
<path fill="none" stroke="#63b8ff" d="M69.88,-156.13C69.88,-147.9 69.88,-138.85 69.88,-132.3"/>
<polygon fill="#63b8ff" stroke="#63b8ff" points="66.38,-156.08 69.88,-166.08 73.38,-156.08 66.38,-156.08"/>
</a>
</g>
</g>
<!-- Node6 -->
<g id="Node000006" class="node">
<title>Node6</title>
<g id="a_Node000006"><a xlink:href="../../d7/d25/a00182.html" target="_top" xlink:title="Declares the ModelBase class for TouchGFX UI model aggregation.">
<polygon fill="white" stroke="#666666" points="111.62,-20 28.12,-20 28.12,0 111.62,0 111.62,-20"/>
<text xml:space="preserve" text-anchor="middle" x="69.88" y="-6.5" font-family="Helvetica,sans-Serif" font-size="10.00">ModelBase.hpp</text>
</a>
</g>
</g>
<!-- Node5&#45;&gt;Node6 -->
<g id="edge5_Node000005_Node000006" class="edge">
<title>Node5&#45;&gt;Node6</title>
<g id="a_edge5_Node000005_Node000006"><a xlink:title=" ">
<path fill="none" stroke="#63b8ff" d="M60.08,-101.24C56.79,-93.56 53.52,-84.56 51.88,-76 47.98,-55.76 57.95,-32.63 64.56,-20.15"/>
<polygon fill="#63b8ff" stroke="#63b8ff" points="56.9,-102.69 64.28,-110.29 63.25,-99.75 56.9,-102.69"/>
</a>
</g>
</g>
<!-- Node7 -->
<g id="Node000007" class="node">
<title>Node7</title>
<g id="a_Node000007"><a xlink:href="../../de/db1/a00197.html" target="_top" xlink:title="Declares the ModelSystem class and related types for TouchGFX model layer system management.">
<polygon fill="white" stroke="#666666" points="155.25,-76 60.5,-76 60.5,-56 155.25,-56 155.25,-76"/>
<text xml:space="preserve" text-anchor="middle" x="107.88" y="-62.5" font-family="Helvetica,sans-Serif" font-size="10.00">ModelSystem.hpp</text>
</a>
</g>
</g>
<!-- Node5&#45;&gt;Node7 -->
<g id="edge6_Node000005_Node000007" class="edge">
<title>Node5&#45;&gt;Node7</title>
<g id="a_edge6_Node000005_Node000007"><a xlink:title=" ">
<path fill="none" stroke="#63b8ff" d="M82.94,-102.44C89.14,-93.62 96.29,-83.47 101.33,-76.3"/>
<polygon fill="#63b8ff" stroke="#63b8ff" points="80.26,-100.16 77.37,-110.36 85.98,-104.19 80.26,-100.16"/>
</a>
</g>
</g>
<!-- Node7&#45;&gt;Node6 -->
<g id="edge7_Node000007_Node000006" class="edge">
<title>Node7&#45;&gt;Node6</title>
<g id="a_edge7_Node000007_Node000006"><a xlink:title=" ">
<path fill="none" stroke="#63b8ff" d="M94.81,-46.44C88.61,-37.62 81.46,-27.47 76.42,-20.3"/>
<polygon fill="#63b8ff" stroke="#63b8ff" points="91.77,-48.19 100.38,-54.36 97.49,-44.16 91.77,-48.19"/>
</a>
</g>
</g>
</g>
</svg>
