<?xml version="1.0" encoding="UTF-8" standalone="no"?>
<!DOCTYPE svg PUBLIC "-//W3C//DTD SVG 1.1//EN"
 "http://www.w3.org/Graphics/SVG/1.1/DTD/svg11.dtd">
<!-- Generated by graphviz version 10.0.1 (20240210.2158)
 -->
<!-- Title: Lib::Xbee::API::Service::ServiceBase Pages: 1 -->
<svg width="550pt" height="476pt"
 viewBox="0.00 0.00 550.00 476.00" xmlns="http://www.w3.org/2000/svg" xmlns:xlink="http://www.w3.org/1999/xlink">
<g id="graph0" class="graph" transform="scale(1 1) rotate(0) translate(4 472)">
<title>Lib::Xbee::API::Service::ServiceBase</title>
<!-- Node1 -->
<g id="Node000001" class="node">
<title>Node1</title>
<g id="a_Node000001"><a xlink:title="Base class for services in the Xbee API.">
<polygon fill="#999999" stroke="none" points="312,-468 203,-468 203,-292 312,-292 312,-468"/>
<text text-anchor="start" x="208" y="-454.5" font-family="Helvetica,sans-Serif" font-size="10.00">Lib::Xbee::API::Service</text>
<text text-anchor="start" x="227.5" y="-442.5" font-family="Helvetica,sans-Serif" font-size="10.00">::ServiceBase</text>
<text text-anchor="start" x="256" y="-426.5" font-family="Helvetica,sans-Serif" font-size="10.00"> </text>
<text text-anchor="start" x="211.88" y="-410.5" font-family="Helvetica,sans-Serif" font-size="10.00">#</text>
<text text-anchor="start" x="226" y="-410.5" font-family="Helvetica,sans-Serif" font-size="10.00">ServiceBase()</text>
<text text-anchor="start" x="211.88" y="-394.5" font-family="Helvetica,sans-Serif" font-size="10.00">#</text>
<text text-anchor="start" x="226" y="-394.5" font-family="Helvetica,sans-Serif" font-size="10.00">~ServiceBase()</text>
<text text-anchor="start" x="211.88" y="-378.5" font-family="Helvetica,sans-Serif" font-size="10.00">#</text>
<text text-anchor="start" x="226" y="-378.5" font-family="Helvetica,sans-Serif" font-size="10.00">open()</text>
<text text-anchor="start" x="211.88" y="-362.5" font-family="Helvetica,sans-Serif" font-size="10.00">#</text>
<text text-anchor="start" x="226" y="-362.5" font-family="Helvetica,sans-Serif" font-size="10.00">close()</text>
<text text-anchor="start" x="211.88" y="-346.5" font-family="Helvetica,sans-Serif" font-size="10.00">#</text>
<text text-anchor="start" x="226" y="-346.5" font-family="Helvetica,sans-Serif" font-size="10.00">isOpen()</text>
<text text-anchor="start" x="211.88" y="-330.5" font-family="Helvetica,sans-Serif" font-size="10.00">#</text>
<text text-anchor="start" x="226" y="-330.5" font-family="Helvetica,sans-Serif" font-size="10.00">initCallback()</text>
<text text-anchor="start" x="211.88" y="-314.5" font-family="Helvetica,sans-Serif" font-size="10.00">#</text>
<text text-anchor="start" x="226" y="-314.5" font-family="Helvetica,sans-Serif" font-size="10.00">updateCallback()</text>
<text text-anchor="start" x="211.88" y="-298.5" font-family="Helvetica,sans-Serif" font-size="10.00">#</text>
<text text-anchor="start" x="226" y="-298.5" font-family="Helvetica,sans-Serif" font-size="10.00">closeCallback()</text>
<polygon fill="#666666" stroke="#666666" points="203,-438 203,-438 312,-438 312,-438 203,-438"/>
<polygon fill="#666666" stroke="#666666" points="203,-422 203,-422 312,-422 312,-422 203,-422"/>
<polygon fill="none" stroke="#666666" points="203,-292 203,-468 312,-468 312,-292 203,-292"/>
</a>
</g>
</g>
<!-- Node2 -->
<g id="Node000002" class="node">
<title>Node2</title>
<g id="a_Node000002"><a xlink:href="../../de/dab/a00319.html" target="_top" xlink:title="Scans channels and updates connection quality in the Xbee module.">
<polygon fill="white" stroke="none" points="109,-192 0,-192 0,-64 109,-64 109,-192"/>
<text text-anchor="start" x="5" y="-178.5" font-family="Helvetica,sans-Serif" font-size="10.00">Lib::Xbee::API::Service</text>
<text text-anchor="start" x="15.88" y="-166.5" font-family="Helvetica,sans-Serif" font-size="10.00">::ChannelScanner</text>
<text text-anchor="start" x="6" y="-150.5" font-family="Helvetica,sans-Serif" font-size="10.00">+</text>
<text text-anchor="start" x="18" y="-150.5" font-family="Helvetica,sans-Serif" font-size="10.00">onError</text>
<text text-anchor="start" x="6" y="-134.5" font-family="Helvetica,sans-Serif" font-size="10.00">+</text>
<text text-anchor="start" x="18" y="-134.5" font-family="Helvetica,sans-Serif" font-size="10.00">ChannelScanner()</text>
<text text-anchor="start" x="6" y="-118.5" font-family="Helvetica,sans-Serif" font-size="10.00">+</text>
<text text-anchor="start" x="18" y="-118.5" font-family="Helvetica,sans-Serif" font-size="10.00">~ChannelScanner()</text>
<text text-anchor="start" x="6" y="-102.5" font-family="Helvetica,sans-Serif" font-size="10.00">+</text>
<text text-anchor="start" x="18" y="-102.5" font-family="Helvetica,sans-Serif" font-size="10.00">open()</text>
<text text-anchor="start" x="6" y="-86.5" font-family="Helvetica,sans-Serif" font-size="10.00">+</text>
<text text-anchor="start" x="18" y="-86.5" font-family="Helvetica,sans-Serif" font-size="10.00">close()</text>
<text text-anchor="start" x="6" y="-70.5" font-family="Helvetica,sans-Serif" font-size="10.00">+</text>
<text text-anchor="start" x="18" y="-70.5" font-family="Helvetica,sans-Serif" font-size="10.00">updateCallback()</text>
<polygon fill="#666666" stroke="#666666" points="0,-162 0,-162 109,-162 109,-162 0,-162"/>
<polygon fill="#666666" stroke="#666666" points="0,-146 0,-146 16,-146 16,-146 0,-146"/>
<polygon fill="#666666" stroke="#666666" points="16,-146 16,-146 109,-146 109,-146 16,-146"/>
<polygon fill="none" stroke="#666666" points="0,-64 0,-192 109,-192 109,-64 0,-64"/>
</a>
</g>
</g>
<!-- Node1&#45;&gt;Node2 -->
<g id="edge1_Node000001_Node000002" class="edge">
<title>Node1&#45;&gt;Node2</title>
<g id="a_edge1_Node000001_Node000002"><a xlink:title=" ">
<path fill="none" stroke="#63b8ff" d="M194.35,-332.44C168.35,-311.14 139.29,-284.35 117.5,-256 102.65,-236.68 89.87,-213.31 79.77,-191.91"/>
<polygon fill="none" stroke="#63b8ff" points="191.88,-334.94 201.86,-338.5 196.27,-329.5 191.88,-334.94"/>
</a>
</g>
</g>
<!-- Node3 -->
<g id="Node000003" class="node">
<title>Node3</title>
<g id="a_Node000003"><a xlink:href="../../d8/df7/a00331.html" target="_top" xlink:title="Discovers nodes in a network.">
<polygon fill="white" stroke="none" points="236,-216 127,-216 127,-40 236,-40 236,-216"/>
<text text-anchor="start" x="132" y="-202.5" font-family="Helvetica,sans-Serif" font-size="10.00">Lib::Xbee::API::Service</text>
<text text-anchor="start" x="139.88" y="-190.5" font-family="Helvetica,sans-Serif" font-size="10.00">::NetworkDiscovery</text>
<text text-anchor="start" x="180" y="-174.5" font-family="Helvetica,sans-Serif" font-size="10.00"> </text>
<text text-anchor="start" x="131.5" y="-158.5" font-family="Helvetica,sans-Serif" font-size="10.00">+</text>
<text text-anchor="start" x="142" y="-158.5" font-family="Helvetica,sans-Serif" font-size="10.00">NetworkDiscovery()</text>
<text text-anchor="start" x="131.5" y="-142.5" font-family="Helvetica,sans-Serif" font-size="10.00">+</text>
<text text-anchor="start" x="142" y="-142.5" font-family="Helvetica,sans-Serif" font-size="10.00">~NetworkDiscovery()</text>
<text text-anchor="start" x="131.5" y="-126.5" font-family="Helvetica,sans-Serif" font-size="10.00">+</text>
<text text-anchor="start" x="142" y="-126.5" font-family="Helvetica,sans-Serif" font-size="10.00">open()</text>
<text text-anchor="start" x="131.5" y="-110.5" font-family="Helvetica,sans-Serif" font-size="10.00">+</text>
<text text-anchor="start" x="142" y="-110.5" font-family="Helvetica,sans-Serif" font-size="10.00">close()</text>
<text text-anchor="start" x="131.5" y="-94.5" font-family="Helvetica,sans-Serif" font-size="10.00">+</text>
<text text-anchor="start" x="142" y="-94.5" font-family="Helvetica,sans-Serif" font-size="10.00">initCallback()</text>
<text text-anchor="start" x="131.5" y="-78.5" font-family="Helvetica,sans-Serif" font-size="10.00">+</text>
<text text-anchor="start" x="142" y="-78.5" font-family="Helvetica,sans-Serif" font-size="10.00">updateCallback()</text>
<text text-anchor="start" x="131.5" y="-62.5" font-family="Helvetica,sans-Serif" font-size="10.00">+</text>
<text text-anchor="start" x="142" y="-62.5" font-family="Helvetica,sans-Serif" font-size="10.00">closeCallback()</text>
<text text-anchor="start" x="131.5" y="-46.5" font-family="Helvetica,sans-Serif" font-size="10.00">+</text>
<text text-anchor="start" x="142" y="-46.5" font-family="Helvetica,sans-Serif" font-size="10.00">start()</text>
<polygon fill="#666666" stroke="#666666" points="127,-186 127,-186 236,-186 236,-186 127,-186"/>
<polygon fill="#666666" stroke="#666666" points="127,-170 127,-170 236,-170 236,-170 127,-170"/>
<polygon fill="none" stroke="#666666" points="127,-40 127,-216 236,-216 236,-40 127,-40"/>
</a>
</g>
</g>
<!-- Node1&#45;&gt;Node3 -->
<g id="edge2_Node000001_Node000003" class="edge">
<title>Node1&#45;&gt;Node3</title>
<g id="a_edge2_Node000001_Node000003"><a xlink:title=" ">
<path fill="none" stroke="#63b8ff" d="M227.82,-281.38C221.22,-259.67 214.27,-236.81 207.82,-215.58"/>
<polygon fill="none" stroke="#63b8ff" points="224.43,-282.27 230.69,-290.82 231.13,-280.23 224.43,-282.27"/>
</a>
</g>
</g>
<!-- Node4 -->
<g id="Node000004" class="node">
<title>Node4</title>
<g id="a_Node000004"><a xlink:href="../../d0/dc5/a00343.html" target="_top" xlink:title="Manages and manipulates various parameters related to XBee devices.">
<polygon fill="white" stroke="none" points="415,-256 254,-256 254,0 415,0 415,-256"/>
<text text-anchor="start" x="285" y="-242.5" font-family="Helvetica,sans-Serif" font-size="10.00">Lib::Xbee::API::Service</text>
<text text-anchor="start" x="306.38" y="-230.5" font-family="Helvetica,sans-Serif" font-size="10.00">::Parameters</text>
<text text-anchor="start" x="258" y="-214.5" font-family="Helvetica,sans-Serif" font-size="10.00">+</text>
<text text-anchor="start" x="268" y="-214.5" font-family="Helvetica,sans-Serif" font-size="10.00">data</text>
<text text-anchor="start" x="258" y="-198.5" font-family="Helvetica,sans-Serif" font-size="10.00">+</text>
<text text-anchor="start" x="268" y="-198.5" font-family="Helvetica,sans-Serif" font-size="10.00">Parameters()</text>
<text text-anchor="start" x="258" y="-182.5" font-family="Helvetica,sans-Serif" font-size="10.00">+</text>
<text text-anchor="start" x="268" y="-182.5" font-family="Helvetica,sans-Serif" font-size="10.00">open()</text>
<text text-anchor="start" x="258" y="-166.5" font-family="Helvetica,sans-Serif" font-size="10.00">+</text>
<text text-anchor="start" x="268" y="-166.5" font-family="Helvetica,sans-Serif" font-size="10.00">close()</text>
<text text-anchor="start" x="258" y="-150.5" font-family="Helvetica,sans-Serif" font-size="10.00">+</text>
<text text-anchor="start" x="268" y="-150.5" font-family="Helvetica,sans-Serif" font-size="10.00">read()</text>
<text text-anchor="start" x="258" y="-134.5" font-family="Helvetica,sans-Serif" font-size="10.00">+</text>
<text text-anchor="start" x="268" y="-134.5" font-family="Helvetica,sans-Serif" font-size="10.00">initCallback()</text>
<text text-anchor="start" x="258" y="-118.5" font-family="Helvetica,sans-Serif" font-size="10.00">+</text>
<text text-anchor="start" x="268" y="-118.5" font-family="Helvetica,sans-Serif" font-size="10.00">updateCallback()</text>
<text text-anchor="start" x="258" y="-102.5" font-family="Helvetica,sans-Serif" font-size="10.00">+</text>
<text text-anchor="start" x="268" y="-102.5" font-family="Helvetica,sans-Serif" font-size="10.00">closeCallback()</text>
<text text-anchor="start" x="258" y="-86.5" font-family="Helvetica,sans-Serif" font-size="10.00">+</text>
<text text-anchor="start" x="268" y="-86.5" font-family="Helvetica,sans-Serif" font-size="10.00">getChannel()</text>
<text text-anchor="start" x="258" y="-70.5" font-family="Helvetica,sans-Serif" font-size="10.00">+</text>
<text text-anchor="start" x="268" y="-70.5" font-family="Helvetica,sans-Serif" font-size="10.00">setChannel()</text>
<text text-anchor="start" x="258" y="-54.5" font-family="Helvetica,sans-Serif" font-size="10.00">+</text>
<text text-anchor="start" x="268" y="-54.5" font-family="Helvetica,sans-Serif" font-size="10.00">getPanId()</text>
<text text-anchor="start" x="258" y="-38.5" font-family="Helvetica,sans-Serif" font-size="10.00">+</text>
<text text-anchor="start" x="268" y="-38.5" font-family="Helvetica,sans-Serif" font-size="10.00">setPanId()</text>
<text text-anchor="start" x="258" y="-22.5" font-family="Helvetica,sans-Serif" font-size="10.00">+</text>
<text text-anchor="start" x="268" y="-22.5" font-family="Helvetica,sans-Serif" font-size="10.00">pauseReadDynamicParameters()</text>
<text text-anchor="start" x="258" y="-6.5" font-family="Helvetica,sans-Serif" font-size="10.00">+</text>
<text text-anchor="start" x="268" y="-6.5" font-family="Helvetica,sans-Serif" font-size="10.00">writeChanges()</text>
<polygon fill="#666666" stroke="#666666" points="254,-226 254,-226 415,-226 415,-226 254,-226"/>
<polygon fill="#666666" stroke="#666666" points="254,-210 254,-210 266,-210 266,-210 254,-210"/>
<polygon fill="#666666" stroke="#666666" points="266,-210 266,-210 415,-210 415,-210 266,-210"/>
<polygon fill="none" stroke="#666666" points="254,0 254,-256 415,-256 415,0 254,0"/>
</a>
</g>
</g>
<!-- Node1&#45;&gt;Node4 -->
<g id="edge3_Node000001_Node000004" class="edge">
<title>Node1&#45;&gt;Node4</title>
<g id="a_edge3_Node000001_Node000004"><a xlink:title=" ">
<path fill="none" stroke="#63b8ff" d="M287.59,-281.31C290.18,-272.89 292.83,-264.29 295.48,-255.69"/>
<polygon fill="none" stroke="#63b8ff" points="284.26,-280.23 284.66,-290.82 290.95,-282.29 284.26,-280.23"/>
</a>
</g>
</g>
<!-- Node5 -->
<g id="Node000005" class="node">
<title>Node5</title>
<g id="a_Node000005"><a xlink:href="../../df/dc2/a00367.html" target="_top" xlink:title="SpectrumAnalyzer class.">
<polygon fill="white" stroke="none" points="542,-232 433,-232 433,-24 542,-24 542,-232"/>
<text text-anchor="start" x="438" y="-218.5" font-family="Helvetica,sans-Serif" font-size="10.00">Lib::Xbee::API::Service</text>
<text text-anchor="start" x="444.38" y="-206.5" font-family="Helvetica,sans-Serif" font-size="10.00">::SpectrumAnalyzer</text>
<text text-anchor="start" x="486" y="-190.5" font-family="Helvetica,sans-Serif" font-size="10.00"> </text>
<text text-anchor="start" x="438" y="-174.5" font-family="Helvetica,sans-Serif" font-size="10.00">+</text>
<text text-anchor="start" x="449" y="-174.5" font-family="Helvetica,sans-Serif" font-size="10.00">SpectrumAnalyzer()</text>
<text text-anchor="start" x="438" y="-158.5" font-family="Helvetica,sans-Serif" font-size="10.00">+</text>
<text text-anchor="start" x="449" y="-158.5" font-family="Helvetica,sans-Serif" font-size="10.00">open()</text>
<text text-anchor="start" x="438" y="-142.5" font-family="Helvetica,sans-Serif" font-size="10.00">+</text>
<text text-anchor="start" x="449" y="-142.5" font-family="Helvetica,sans-Serif" font-size="10.00">close()</text>
<text text-anchor="start" x="438" y="-126.5" font-family="Helvetica,sans-Serif" font-size="10.00">+</text>
<text text-anchor="start" x="449" y="-126.5" font-family="Helvetica,sans-Serif" font-size="10.00">isNewData()</text>
<text text-anchor="start" x="438" y="-110.5" font-family="Helvetica,sans-Serif" font-size="10.00">+</text>
<text text-anchor="start" x="449" y="-110.5" font-family="Helvetica,sans-Serif" font-size="10.00">initCallback()</text>
<text text-anchor="start" x="438" y="-94.5" font-family="Helvetica,sans-Serif" font-size="10.00">+</text>
<text text-anchor="start" x="449" y="-94.5" font-family="Helvetica,sans-Serif" font-size="10.00">updateCallback()</text>
<text text-anchor="start" x="438" y="-78.5" font-family="Helvetica,sans-Serif" font-size="10.00">+</text>
<text text-anchor="start" x="449" y="-78.5" font-family="Helvetica,sans-Serif" font-size="10.00">closeCallback()</text>
<text text-anchor="start" x="438" y="-62.5" font-family="Helvetica,sans-Serif" font-size="10.00">+</text>
<text text-anchor="start" x="449" y="-62.5" font-family="Helvetica,sans-Serif" font-size="10.00">getCurrentArray()</text>
<text text-anchor="start" x="438" y="-46.5" font-family="Helvetica,sans-Serif" font-size="10.00">+</text>
<text text-anchor="start" x="449" y="-46.5" font-family="Helvetica,sans-Serif" font-size="10.00">getAverageArray()</text>
<text text-anchor="start" x="438" y="-30.5" font-family="Helvetica,sans-Serif" font-size="10.00">+</text>
<text text-anchor="start" x="449" y="-30.5" font-family="Helvetica,sans-Serif" font-size="10.00">getMaxArray()</text>
<polygon fill="#666666" stroke="#666666" points="433,-202 433,-202 542,-202 542,-202 433,-202"/>
<polygon fill="#666666" stroke="#666666" points="433,-186 433,-186 542,-186 542,-186 433,-186"/>
<polygon fill="none" stroke="#666666" points="433,-24 433,-232 542,-232 542,-24 433,-24"/>
</a>
</g>
</g>
<!-- Node1&#45;&gt;Node5 -->
<g id="edge4_Node000001_Node000005" class="edge">
<title>Node1&#45;&gt;Node5</title>
<g id="a_edge4_Node000001_Node000005"><a xlink:title=" ">
<path fill="none" stroke="#63b8ff" d="M321.02,-342.54C354.92,-320.72 395.51,-290.54 424.5,-256 430.75,-248.55 436.57,-240.38 441.95,-231.88"/>
<polygon fill="none" stroke="#63b8ff" points="319.51,-339.36 312.93,-347.66 323.25,-345.27 319.51,-339.36"/>
</a>
</g>
</g>
</g>
</svg>
