<?xml version="1.0" encoding="UTF-8" standalone="no"?>
<!DOCTYPE svg PUBLIC "-//W3C//DTD SVG 1.1//EN"
 "http://www.w3.org/Graphics/SVG/1.1/DTD/svg11.dtd">
<!-- Generated by graphviz version 12.2.1 (20241206.2353)
 -->
<!-- Title: Lib::HAL::GPIO::PinInput::read Pages: 1 -->
<svg width="307pt" height="90pt"
 viewBox="0.00 0.00 307.00 90.00" xmlns="http://www.w3.org/2000/svg" xmlns:xlink="http://www.w3.org/1999/xlink">
<g id="graph0" class="graph" transform="scale(1 1) rotate(0) translate(4 86)">
<title>Lib::HAL::GPIO::PinInput::read</title>
<!-- Node1 -->
<g id="Node000001" class="node">
<title>Node1</title>
<g id="a_Node000001"><a xlink:title="Read the state of the GPIO pin.">
<polygon fill="#999999" stroke="#666666" points="127,-57 0,-57 0,-25 127,-25 127,-57"/>
<text text-anchor="start" x="8" y="-43.5" font-family="Helvetica,sans-Serif" font-size="10.00">Lib::HAL::GPIO::PinInput</text>
<text text-anchor="middle" x="63.5" y="-31.5" font-family="Helvetica,sans-Serif" font-size="10.00">::read</text>
</a>
</g>
</g>
<!-- Node2 -->
<g id="Node000002" class="node">
<title>Node2</title>
<g id="a_Node000002"><a xlink:href="../../d4/d04/a00255.html#a473c7fe7b14f3149340e3bc1248b173a" target="_top" xlink:title="Get the pin number.">
<polygon fill="white" stroke="#666666" points="299,-82 163,-82 163,-50 299,-50 299,-82"/>
<text text-anchor="start" x="171" y="-68.5" font-family="Helvetica,sans-Serif" font-size="10.00">Lib::HAL::GPIO::PinHandle</text>
<text text-anchor="middle" x="231" y="-56.5" font-family="Helvetica,sans-Serif" font-size="10.00">::getPinNumber</text>
</a>
</g>
</g>
<!-- Node1&#45;&gt;Node2 -->
<g id="edge1_Node000001_Node000002" class="edge">
<title>Node1&#45;&gt;Node2</title>
<g id="a_edge1_Node000001_Node000002"><a xlink:title=" ">
<path fill="none" stroke="#63b8ff" d="M127.07,-50.45C135.06,-51.66 143.32,-52.91 151.52,-54.15"/>
<polygon fill="#63b8ff" stroke="#63b8ff" points="150.74,-57.57 161.15,-55.6 151.78,-50.65 150.74,-57.57"/>
</a>
</g>
</g>
<!-- Node3 -->
<g id="Node000003" class="node">
<title>Node3</title>
<g id="a_Node000003"><a xlink:href="../../d4/d04/a00255.html#ae1907be94c6c2d15032baff3e06286f8" target="_top" xlink:title="Get the GPIO port.">
<polygon fill="white" stroke="#666666" points="299,-32 163,-32 163,0 299,0 299,-32"/>
<text text-anchor="start" x="171" y="-18.5" font-family="Helvetica,sans-Serif" font-size="10.00">Lib::HAL::GPIO::PinHandle</text>
<text text-anchor="middle" x="231" y="-6.5" font-family="Helvetica,sans-Serif" font-size="10.00">::getPort</text>
</a>
</g>
</g>
<!-- Node1&#45;&gt;Node3 -->
<g id="edge2_Node000001_Node000003" class="edge">
<title>Node1&#45;&gt;Node3</title>
<g id="a_edge2_Node000001_Node000003"><a xlink:title=" ">
<path fill="none" stroke="#63b8ff" d="M127.07,-31.55C135.06,-30.34 143.32,-29.09 151.52,-27.85"/>
<polygon fill="#63b8ff" stroke="#63b8ff" points="151.78,-31.35 161.15,-26.4 150.74,-24.43 151.78,-31.35"/>
</a>
</g>
</g>
</g>
</svg>
