<?xml version="1.0" encoding="UTF-8" standalone="no"?>
<!DOCTYPE svg PUBLIC "-//W3C//DTD SVG 1.1//EN"
 "http://www.w3.org/Graphics/SVG/1.1/DTD/svg11.dtd">
<!-- Generated by graphviz version 13.1.0 (20250701.0955)
 -->
<!-- Title: ModelDisplay Pages: 1 -->
<svg width="157pt" height="157pt"
 viewBox="0.00 0.00 157.00 157.00" xmlns="http://www.w3.org/2000/svg" xmlns:xlink="http://www.w3.org/1999/xlink">
<g id="graph0" class="graph" transform="scale(1 1) rotate(0) translate(4 153)">
<title>ModelDisplay</title>
<!-- Node1 -->
<g id="Node000001" class="node">
<title>Node1</title>
<g id="a_Node000001"><a xlink:title="ModelDisplay for TouchGFX UI display parameter management.">
<polygon fill="#999999" stroke="none" points="148.5,-149 0,-149 0,0 148.5,0 148.5,-149"/>
<text xml:space="preserve" text-anchor="start" x="46.12" y="-136.45" font-family="Arial" font-size="9.00">ModelDisplay</text>
<text xml:space="preserve" text-anchor="start" x="73.12" y="-121.95" font-family="Arial" font-size="9.00"> </text>
<text xml:space="preserve" text-anchor="start" x="4" y="-107.45" font-family="Arial" font-size="9.00">+</text>
<text xml:space="preserve" text-anchor="start" x="13.25" y="-107.45" font-family="Arial" font-size="9.00">ModelDisplay()</text>
<text xml:space="preserve" text-anchor="start" x="4" y="-92.95" font-family="Arial" font-size="9.00">+</text>
<text xml:space="preserve" text-anchor="start" x="13.25" y="-92.95" font-family="Arial" font-size="9.00">~ModelDisplay()</text>
<text xml:space="preserve" text-anchor="start" x="4" y="-78.45" font-family="Arial" font-size="9.00">+</text>
<text xml:space="preserve" text-anchor="start" x="13.25" y="-78.45" font-family="Arial" font-size="9.00">getBacklight()</text>
<text xml:space="preserve" text-anchor="start" x="4" y="-63.95" font-family="Arial" font-size="9.00">+</text>
<text xml:space="preserve" text-anchor="start" x="13.25" y="-63.95" font-family="Arial" font-size="9.00">setBacklight()</text>
<text xml:space="preserve" text-anchor="start" x="4" y="-49.45" font-family="Arial" font-size="9.00">+</text>
<text xml:space="preserve" text-anchor="start" x="13.25" y="-49.45" font-family="Arial" font-size="9.00">getRotation()</text>
<text xml:space="preserve" text-anchor="start" x="4" y="-34.95" font-family="Arial" font-size="9.00">+</text>
<text xml:space="preserve" text-anchor="start" x="13.25" y="-34.95" font-family="Arial" font-size="9.00">setRotation()</text>
<text xml:space="preserve" text-anchor="start" x="4" y="-20.45" font-family="Arial" font-size="9.00">+</text>
<text xml:space="preserve" text-anchor="start" x="13.25" y="-20.45" font-family="Arial" font-size="9.00">saveParameters()</text>
<text xml:space="preserve" text-anchor="start" x="4" y="-5.95" font-family="Arial" font-size="9.00">+</text>
<text xml:space="preserve" text-anchor="start" x="13.25" y="-5.95" font-family="Arial" font-size="9.00">storageOfParametersIsPresent()</text>
<polygon fill="#666666" stroke="#666666" points="0,-132.5 0,-132.5 148.5,-132.5 148.5,-132.5 0,-132.5"/>
<polygon fill="#666666" stroke="#666666" points="0,-118 0,-118 148.5,-118 148.5,-118 0,-118"/>
<polygon fill="none" stroke="#666666" points="0,0 0,-149 148.5,-149 148.5,0 0,0"/>
</a>
</g>
</g>
</g>
</svg>
