<?xml version="1.0" encoding="UTF-8" standalone="no"?>
<!DOCTYPE svg PUBLIC "-//W3C//DTD SVG 1.1//EN"
 "http://www.w3.org/Graphics/SVG/1.1/DTD/svg11.dtd">
<!-- Generated by graphviz version 13.1.0 (20250701.0955)
 -->
<!-- Title: Lib::HAL::TIM::Base Pages: 1 -->
<svg width="187pt" height="332pt"
 viewBox="0.00 0.00 187.00 332.00" xmlns="http://www.w3.org/2000/svg" xmlns:xlink="http://www.w3.org/1999/xlink">
<g id="graph0" class="graph" transform="scale(1 1) rotate(0) translate(4 328)">
<title>Lib::HAL::TIM::Base</title>
<!-- Node1 -->
<g id="Node000001" class="node">
<title>Node1</title>
<g id="a_Node000001"><a xlink:title=" ">
<polygon fill="#999999" stroke="none" points="178.5,-324 0,-324 0,-156 178.5,-156 178.5,-324"/>
<text xml:space="preserve" text-anchor="start" x="44.25" y="-310.5" font-family="Helvetica,sans-Serif" font-size="10.00">Lib::HAL::TIM::Base</text>
<text xml:space="preserve" text-anchor="start" x="87.75" y="-294.5" font-family="Helvetica,sans-Serif" font-size="10.00"> </text>
<text xml:space="preserve" text-anchor="start" x="4" y="-278.5" font-family="Helvetica,sans-Serif" font-size="10.00">+</text>
<text xml:space="preserve" text-anchor="start" x="14" y="-278.5" font-family="Helvetica,sans-Serif" font-size="10.00">TIM_HandleTypeDef *</text>
<text xml:space="preserve" text-anchor="start" x="14" y="-266.5" font-family="Helvetica,sans-Serif" font-size="10.00"> getHandle() const</text>
<text xml:space="preserve" text-anchor="start" x="4.38" y="-250.5" font-family="Helvetica,sans-Serif" font-size="10.00">#</text>
<text xml:space="preserve" text-anchor="start" x="14" y="-250.5" font-family="Helvetica,sans-Serif" font-size="10.00">Base(TIM_HandleTypeDef</text>
<text xml:space="preserve" text-anchor="start" x="14" y="-238.5" font-family="Helvetica,sans-Serif" font-size="10.00"> *hnd)</text>
<text xml:space="preserve" text-anchor="start" x="4.38" y="-222.5" font-family="Helvetica,sans-Serif" font-size="10.00">#</text>
<text xml:space="preserve" text-anchor="start" x="14" y="-222.5" font-family="Helvetica,sans-Serif" font-size="10.00">virtual ~Base()=default</text>
<text xml:space="preserve" text-anchor="start" x="4.38" y="-206.5" font-family="Helvetica,sans-Serif" font-size="10.00">#</text>
<text xml:space="preserve" text-anchor="start" x="14" y="-206.5" font-family="Helvetica,sans-Serif" font-size="10.00">virtual bool open()</text>
<text xml:space="preserve" text-anchor="start" x="4.38" y="-190.5" font-family="Helvetica,sans-Serif" font-size="10.00">#</text>
<text xml:space="preserve" text-anchor="start" x="14" y="-190.5" font-family="Helvetica,sans-Serif" font-size="10.00">virtual bool close()</text>
<text xml:space="preserve" text-anchor="start" x="4.38" y="-174.5" font-family="Helvetica,sans-Serif" font-size="10.00">#</text>
<text xml:space="preserve" text-anchor="start" x="14" y="-174.5" font-family="Helvetica,sans-Serif" font-size="10.00">virtual void emitCallback</text>
<text xml:space="preserve" text-anchor="start" x="14" y="-162.5" font-family="Helvetica,sans-Serif" font-size="10.00">(HAL_TIM_CallbackIDTypeDef id)=0</text>
<polygon fill="#666666" stroke="#666666" points="0,-306 0,-306 178.5,-306 178.5,-306 0,-306"/>
<polygon fill="#666666" stroke="#666666" points="0,-290 0,-290 178.5,-290 178.5,-290 0,-290"/>
<polygon fill="none" stroke="#666666" points="0,-156 0,-324 178.5,-324 178.5,-156 0,-156"/>
</a>
</g>
</g>
<!-- Node2 -->
<g id="Node000002" class="node">
<title>Node2</title>
<g id="a_Node000002"><a xlink:href="../../da/d97/a01528.html" target="_top" xlink:title="Specialization of Timer for encoder mode.">
<polygon fill="white" stroke="none" points="159.75,-120 18.75,-120 18.75,0 159.75,0 159.75,-120"/>
<text xml:space="preserve" text-anchor="start" x="39.75" y="-106.5" font-family="Helvetica,sans-Serif" font-size="10.00">Lib::HAL::TIM::Timer</text>
<text xml:space="preserve" text-anchor="start" x="39.75" y="-94.5" font-family="Helvetica,sans-Serif" font-size="10.00">&lt; Mode::ENCODER &gt;</text>
<text xml:space="preserve" text-anchor="start" x="22.75" y="-78.5" font-family="Helvetica,sans-Serif" font-size="10.00">+</text>
<text xml:space="preserve" text-anchor="start" x="32.75" y="-78.5" font-family="Helvetica,sans-Serif" font-size="10.00">std::function&lt; void</text>
<text xml:space="preserve" text-anchor="start" x="32.75" y="-66.5" font-family="Helvetica,sans-Serif" font-size="10.00">(uint32_t)&gt; onValueChanged</text>
<text xml:space="preserve" text-anchor="start" x="22.75" y="-50.5" font-family="Helvetica,sans-Serif" font-size="10.00">+</text>
<text xml:space="preserve" text-anchor="start" x="32.75" y="-50.5" font-family="Helvetica,sans-Serif" font-size="10.00">Timer(TIM_HandleTypeDef</text>
<text xml:space="preserve" text-anchor="start" x="32.75" y="-38.5" font-family="Helvetica,sans-Serif" font-size="10.00"> *hnd)</text>
<text xml:space="preserve" text-anchor="start" x="22.75" y="-22.5" font-family="Helvetica,sans-Serif" font-size="10.00">+</text>
<text xml:space="preserve" text-anchor="start" x="32.75" y="-22.5" font-family="Helvetica,sans-Serif" font-size="10.00">bool open() override</text>
<text xml:space="preserve" text-anchor="start" x="22.75" y="-6.5" font-family="Helvetica,sans-Serif" font-size="10.00">+</text>
<text xml:space="preserve" text-anchor="start" x="32.75" y="-6.5" font-family="Helvetica,sans-Serif" font-size="10.00">bool close() override</text>
<polygon fill="#666666" stroke="#666666" points="18.75,-90 18.75,-90 159.75,-90 159.75,-90 18.75,-90"/>
<polygon fill="#666666" stroke="#666666" points="18.75,-62 18.75,-62 30.75,-62 30.75,-62 18.75,-62"/>
<polygon fill="#666666" stroke="#666666" points="30.75,-62 30.75,-62 159.75,-62 159.75,-62 30.75,-62"/>
<polygon fill="none" stroke="#666666" points="18.75,0 18.75,-120 159.75,-120 159.75,0 18.75,0"/>
</a>
</g>
</g>
<!-- Node1&#45;&gt;Node2 -->
<g id="edge1_Node000001_Node000002" class="edge">
<title>Node1&#45;&gt;Node2</title>
<g id="a_edge1_Node000001_Node000002"><a xlink:title=" ">
<path fill="none" stroke="#63b8ff" d="M89.25,-144.74C89.25,-136.31 89.25,-127.94 89.25,-119.94"/>
<polygon fill="none" stroke="#63b8ff" points="85.75,-144.74 89.25,-154.74 92.75,-144.74 85.75,-144.74"/>
</a>
</g>
</g>
</g>
</svg>
