<?xml version="1.0" encoding="UTF-8" standalone="no"?>
<!DOCTYPE svg PUBLIC "-//W3C//DTD SVG 1.1//EN"
 "http://www.w3.org/Graphics/SVG/1.1/DTD/svg11.dtd">
<!-- Generated by graphviz version 13.1.0 (20250701.0955)
 -->
<!-- Title: CanTxHeader Pages: 1 -->
<svg width="124pt" height="196pt"
 viewBox="0.00 0.00 124.00 196.00" xmlns="http://www.w3.org/2000/svg" xmlns:xlink="http://www.w3.org/1999/xlink">
<g id="graph0" class="graph" transform="scale(1 1) rotate(0) translate(4 192)">
<title>CanTxHeader</title>
<!-- Node1 -->
<g id="Node000001" class="node">
<title>Node1</title>
<g id="a_Node000001"><a xlink:title="CAN TX Header class.">
<polygon fill="#999999" stroke="none" points="116.25,-100 0,-100 0,0 116.25,0 116.25,-100"/>
<text xml:space="preserve" text-anchor="start" x="27.75" y="-86.5" font-family="Helvetica,sans-Serif" font-size="10.00">CanTxHeader</text>
<text xml:space="preserve" text-anchor="start" x="4" y="-70.5" font-family="Helvetica,sans-Serif" font-size="10.00">+</text>
<text xml:space="preserve" text-anchor="start" x="14" y="-70.5" font-family="Helvetica,sans-Serif" font-size="10.00">MAX_DATA_LENGTH</text>
<text xml:space="preserve" text-anchor="start" x="4" y="-54.5" font-family="Helvetica,sans-Serif" font-size="10.00">+</text>
<text xml:space="preserve" text-anchor="start" x="14" y="-54.5" font-family="Helvetica,sans-Serif" font-size="10.00">CanTxHeader()</text>
<text xml:space="preserve" text-anchor="start" x="4" y="-38.5" font-family="Helvetica,sans-Serif" font-size="10.00">+</text>
<text xml:space="preserve" text-anchor="start" x="14" y="-38.5" font-family="Helvetica,sans-Serif" font-size="10.00">CanTxHeader()</text>
<text xml:space="preserve" text-anchor="start" x="4" y="-22.5" font-family="Helvetica,sans-Serif" font-size="10.00">+</text>
<text xml:space="preserve" text-anchor="start" x="14" y="-22.5" font-family="Helvetica,sans-Serif" font-size="10.00">~CanTxHeader()</text>
<text xml:space="preserve" text-anchor="start" x="4" y="-6.5" font-family="Helvetica,sans-Serif" font-size="10.00">+</text>
<text xml:space="preserve" text-anchor="start" x="14" y="-6.5" font-family="Helvetica,sans-Serif" font-size="10.00">setDataLength()</text>
<polygon fill="#666666" stroke="#666666" points="0,-82 0,-82 116.25,-82 116.25,-82 0,-82"/>
<polygon fill="#666666" stroke="#666666" points="0,-66 0,-66 12,-66 12,-66 0,-66"/>
<polygon fill="#666666" stroke="#666666" points="12,-66 12,-66 116.25,-66 116.25,-66 12,-66"/>
<polygon fill="none" stroke="#666666" points="0,0 0,-100 116.25,-100 116.25,0 0,0"/>
</a>
</g>
</g>
<!-- Node2 -->
<g id="Node000002" class="node">
<title>Node2</title>
<g id="a_Node000002"><a xlink:title=" ">
<polygon fill="white" stroke="none" points="115.38,-188 0.88,-188 0.88,-136 115.38,-136 115.38,-188"/>
<text xml:space="preserve" text-anchor="start" x="4.88" y="-174.5" font-family="Helvetica,sans-Serif" font-size="10.00">CAN_TxHeaderTypeDef</text>
<text xml:space="preserve" text-anchor="start" x="56.62" y="-158.5" font-family="Helvetica,sans-Serif" font-size="10.00"> </text>
<text xml:space="preserve" text-anchor="start" x="56.62" y="-142.5" font-family="Helvetica,sans-Serif" font-size="10.00"> </text>
<polygon fill="#bfbfbf" stroke="#bfbfbf" points="0.88,-170 0.88,-170 115.38,-170 115.38,-170 0.88,-170"/>
<polygon fill="#bfbfbf" stroke="#bfbfbf" points="0.88,-154 0.88,-154 115.38,-154 115.38,-154 0.88,-154"/>
<polygon fill="none" stroke="#bfbfbf" points="0.88,-136 0.88,-188 115.38,-188 115.38,-136 0.88,-136"/>
</a>
</g>
</g>
<!-- Node2&#45;&gt;Node1 -->
<g id="edge1_Node000001_Node000002" class="edge">
<title>Node2&#45;&gt;Node1</title>
<g id="a_edge1_Node000001_Node000002"><a xlink:title=" ">
<path fill="none" stroke="#63b8ff" d="M58.12,-124.53C58.12,-116.58 58.12,-108.05 58.12,-99.72"/>
<polygon fill="none" stroke="#63b8ff" points="54.63,-124.53 58.13,-134.53 61.63,-124.53 54.63,-124.53"/>
</a>
</g>
</g>
</g>
</svg>
