<?xml version="1.0" encoding="UTF-8" standalone="no"?>
<!DOCTYPE svg PUBLIC "-//W3C//DTD SVG 1.1//EN"
 "http://www.w3.org/Graphics/SVG/1.1/DTD/svg11.dtd">
<!-- Generated by graphviz version 13.1.0 (20250701.0955)
 -->
<!-- Title: Lib::Helper::DateTime::Date::toString Pages: 1 -->
<svg width="530pt" height="84pt"
 viewBox="0.00 0.00 530.00 84.00" xmlns="http://www.w3.org/2000/svg" xmlns:xlink="http://www.w3.org/1999/xlink">
<g id="graph0" class="graph" transform="scale(1 1) rotate(0) translate(4 80)">
<title>Lib::Helper::DateTime::Date::toString</title>
<!-- Node1 -->
<g id="Node000001" class="node">
<title>Node1</title>
<g id="a_Node000001"><a xlink:title="Converts date to string in DD.MM.YYYY format.">
<polygon fill="#999999" stroke="#666666" points="522.25,-52 417,-52 417,-23 522.25,-23 522.25,-52"/>
<text xml:space="preserve" text-anchor="start" x="425" y="-39.45" font-family="Arial" font-size="9.00">Lib::Helper::DateTime</text>
<text xml:space="preserve" text-anchor="middle" x="469.62" y="-28.95" font-family="Arial" font-size="9.00">::Date::toString</text>
</a>
</g>
</g>
<!-- Node1&#45;&gt;Node1 -->
<g id="edge5_Node000001_Node000001" class="edge">
<title>Node1&#45;&gt;Node1</title>
<g id="a_edge5_Node000001_Node000001"><a xlink:title=" ">
<path fill="none" stroke="#63b8ff" d="M493.6,-63.56C489.84,-67.41 481.85,-70 469.62,-70 447.28,-70 439.07,-61.32 445.01,-52.21"/>
<polygon fill="#63b8ff" stroke="#63b8ff" points="497.09,-63.9 494.16,-53.72 490.1,-63.5 497.09,-63.9"/>
</a>
</g>
</g>
<!-- Node2 -->
<g id="Node000002" class="node">
<title>Node2</title>
<g id="a_Node000002"><a xlink:href="../../d7/d02/a01771.html#a35b3783e441eed8f89cf517952d00621" target="_top" xlink:title="Converts date to string.">
<polygon fill="white" stroke="#666666" points="381,-76 275.75,-76 275.75,-47 381,-47 381,-76"/>
<text xml:space="preserve" text-anchor="start" x="283.75" y="-63.45" font-family="Arial" font-size="9.00">Lib::Helper::DateTime</text>
<text xml:space="preserve" text-anchor="middle" x="328.38" y="-52.95" font-family="Arial" font-size="9.00">::Date::string</text>
</a>
</g>
</g>
<!-- Node1&#45;&gt;Node2 -->
<g id="edge1_Node000001_Node000002" class="edge">
<title>Node1&#45;&gt;Node2</title>
<g id="a_edge1_Node000001_Node000002"><a xlink:title=" ">
<path fill="none" stroke="#63b8ff" d="M405.46,-48.39C397.36,-49.78 389.15,-51.2 381.27,-52.56"/>
<polygon fill="#63b8ff" stroke="#63b8ff" points="406.02,-51.84 415.28,-46.69 404.83,-44.94 406.02,-51.84"/>
</a>
</g>
</g>
<!-- Node3 -->
<g id="Node000003" class="node">
<title>Node3</title>
<g id="a_Node000003"><a xlink:href="../../d1/de6/a01867.html#a1c86a52c80e835367fabf3f90661ad1f" target="_top" xlink:title="Conversion operator to std::string.">
<polygon fill="white" stroke="#666666" points="377.62,-29 279.12,-29 279.12,0 377.62,0 377.62,-29"/>
<text xml:space="preserve" text-anchor="start" x="287.12" y="-16.45" font-family="Arial" font-size="9.00">Lib::System::Version</text>
<text xml:space="preserve" text-anchor="middle" x="328.38" y="-5.95" font-family="Arial" font-size="9.00">::Firmware::string</text>
</a>
</g>
</g>
<!-- Node1&#45;&gt;Node3 -->
<g id="edge2_Node000001_Node000003" class="edge">
<title>Node1&#45;&gt;Node3</title>
<g id="a_edge2_Node000001_Node000003"><a xlink:title=" ">
<path fill="none" stroke="#63b8ff" d="M405.61,-27.09C396.36,-25.56 386.95,-24.01 378.04,-22.54"/>
<polygon fill="#63b8ff" stroke="#63b8ff" points="404.84,-30.51 415.28,-28.69 405.98,-23.61 404.84,-30.51"/>
</a>
</g>
</g>
<!-- Node4 -->
<g id="Node000004" class="node">
<title>Node4</title>
<g id="a_Node000004"><a xlink:href="../../d1/de6/a01867.html#a7daf2f9531d02dc5f7adbf61c436d2cf" target="_top" xlink:title="Constructor of the Firmware class.">
<polygon fill="white" stroke="#666666" points="239.75,-29 138.25,-29 138.25,0 239.75,0 239.75,-29"/>
<text xml:space="preserve" text-anchor="start" x="146.25" y="-16.45" font-family="Arial" font-size="9.00">Lib::System::Version</text>
<text xml:space="preserve" text-anchor="middle" x="189" y="-5.95" font-family="Arial" font-size="9.00">::Firmware::Firmware</text>
</a>
</g>
</g>
<!-- Node3&#45;&gt;Node4 -->
<g id="edge3_Node000003_Node000004" class="edge">
<title>Node3&#45;&gt;Node4</title>
<g id="a_edge3_Node000003_Node000004"><a xlink:title=" ">
<path fill="none" stroke="#63b8ff" d="M267.44,-14.5C258.23,-14.5 248.81,-14.5 239.85,-14.5"/>
<polygon fill="#63b8ff" stroke="#63b8ff" points="267.43,-18 277.43,-14.5 267.43,-11 267.43,-18"/>
</a>
</g>
</g>
<!-- Node5 -->
<g id="Node000005" class="node">
<title>Node5</title>
<g id="a_Node000005"><a xlink:href="../../d5/d89/a00907.html#a8c0200b7ac31f4166f8ace12681f0e0b" target="_top" xlink:title="Constructor of the BuildVersion class.">
<polygon fill="white" stroke="#666666" points="102.25,-29 0,-29 0,0 102.25,0 102.25,-29"/>
<text xml:space="preserve" text-anchor="start" x="8" y="-16.45" font-family="Arial" font-size="9.00">System::BuildVersion</text>
<text xml:space="preserve" text-anchor="middle" x="51.12" y="-5.95" font-family="Arial" font-size="9.00">::BuildVersion</text>
</a>
</g>
</g>
<!-- Node4&#45;&gt;Node5 -->
<g id="edge4_Node000004_Node000005" class="edge">
<title>Node4&#45;&gt;Node5</title>
<g id="a_edge4_Node000004_Node000005"><a xlink:title=" ">
<path fill="none" stroke="#63b8ff" d="M126.3,-14.5C118.36,-14.5 110.31,-14.5 102.58,-14.5"/>
<polygon fill="#63b8ff" stroke="#63b8ff" points="126.28,-18 136.28,-14.5 126.28,-11 126.28,-18"/>
</a>
</g>
</g>
</g>
</svg>
