<?xml version="1.0" encoding="UTF-8" standalone="no"?>
<!DOCTYPE svg PUBLIC "-//W3C//DTD SVG 1.1//EN"
 "http://www.w3.org/Graphics/SVG/1.1/DTD/svg11.dtd">
<!-- Generated by graphviz version 13.1.0 (20250701.0955)
 -->
<!-- Title: Lib::Helper::DateTime::Date::dayOfWeek Pages: 1 -->
<svg width="287pt" height="84pt"
 viewBox="0.00 0.00 287.00 84.00" xmlns="http://www.w3.org/2000/svg" xmlns:xlink="http://www.w3.org/1999/xlink">
<g id="graph0" class="graph" transform="scale(1 1) rotate(0) translate(4 80)">
<title>Lib::Helper::DateTime::Date::dayOfWeek</title>
<!-- Node1 -->
<g id="Node000001" class="node">
<title>Node1</title>
<g id="a_Node000001"><a xlink:title="Returns day of week for this date.">
<polygon fill="#999999" stroke="#666666" points="278.75,-52 173.5,-52 173.5,-23 278.75,-23 278.75,-52"/>
<text xml:space="preserve" text-anchor="start" x="181.5" y="-39.45" font-family="Arial" font-size="9.00">Lib::Helper::DateTime</text>
<text xml:space="preserve" text-anchor="middle" x="226.12" y="-28.95" font-family="Arial" font-size="9.00">::Date::dayOfWeek</text>
</a>
</g>
</g>
<!-- Node1&#45;&gt;Node1 -->
<g id="edge1_Node000001_Node000001" class="edge">
<title>Node1&#45;&gt;Node1</title>
<g id="a_edge1_Node000001_Node000001"><a xlink:title=" ">
<path fill="none" stroke="#63b8ff" d="M252.84,-63.56C248.64,-67.41 239.74,-70 226.12,-70 201.23,-70 192.09,-61.32 198.7,-52.21"/>
<polygon fill="#63b8ff" stroke="#63b8ff" points="256.32,-63.92 253.46,-53.72 249.33,-63.48 256.32,-63.92"/>
</a>
</g>
</g>
<!-- Node2 -->
<g id="Node000002" class="node">
<title>Node2</title>
<g id="a_Node000002"><a xlink:href="../../d7/d02/a01771.html#afe68321c151be7553bf4fb407363c54d" target="_top" xlink:title="Returns long string for day of week.">
<polygon fill="white" stroke="#666666" points="137.12,-76 0.38,-76 0.38,-47 137.12,-47 137.12,-76"/>
<text xml:space="preserve" text-anchor="start" x="8.38" y="-63.45" font-family="Arial" font-size="9.00">Lib::Helper::DateTime</text>
<text xml:space="preserve" text-anchor="middle" x="68.75" y="-52.95" font-family="Arial" font-size="9.00">::Date::dayOfWeekLongString</text>
</a>
</g>
</g>
<!-- Node1&#45;&gt;Node2 -->
<g id="edge2_Node000001_Node000002" class="edge">
<title>Node1&#45;&gt;Node2</title>
<g id="a_edge2_Node000001_Node000002"><a xlink:title=" ">
<path fill="none" stroke="#63b8ff" d="M162.14,-47.23C154.05,-48.48 145.73,-49.76 137.57,-51.02"/>
<polygon fill="#63b8ff" stroke="#63b8ff" points="162.54,-50.71 171.89,-45.72 161.47,-43.79 162.54,-50.71"/>
</a>
</g>
</g>
<!-- Node3 -->
<g id="Node000003" class="node">
<title>Node3</title>
<g id="a_Node000003"><a xlink:href="../../d7/d02/a01771.html#a7c0cdc66f736c7c6375d7460cb57a677" target="_top" xlink:title="Returns short string for day of week.">
<polygon fill="white" stroke="#666666" points="137.5,-29 0,-29 0,0 137.5,0 137.5,-29"/>
<text xml:space="preserve" text-anchor="start" x="8" y="-16.45" font-family="Arial" font-size="9.00">Lib::Helper::DateTime</text>
<text xml:space="preserve" text-anchor="middle" x="68.75" y="-5.95" font-family="Arial" font-size="9.00">::Date::dayOfWeekShortString</text>
</a>
</g>
</g>
<!-- Node1&#45;&gt;Node3 -->
<g id="edge3_Node000001_Node000003" class="edge">
<title>Node1&#45;&gt;Node3</title>
<g id="a_edge3_Node000001_Node000003"><a xlink:title=" ">
<path fill="none" stroke="#63b8ff" d="M162.22,-28.19C154.2,-27 145.95,-25.78 137.85,-24.58"/>
<polygon fill="#63b8ff" stroke="#63b8ff" points="161.49,-31.62 171.89,-29.62 162.51,-24.69 161.49,-31.62"/>
</a>
</g>
</g>
</g>
</svg>
