<?xml version="1.0" encoding="UTF-8" standalone="no"?>
<!DOCTYPE svg PUBLIC "-//W3C//DTD SVG 1.1//EN"
 "http://www.w3.org/Graphics/SVG/1.1/DTD/svg11.dtd">
<!-- Generated by graphviz version 13.1.0 (20250701.0955)
 -->
<!-- Title: CanServiceTemplate.hpp Pages: 1 -->
<svg width="134pt" height="140pt"
 viewBox="0.00 0.00 134.00 140.00" xmlns="http://www.w3.org/2000/svg" xmlns:xlink="http://www.w3.org/1999/xlink">
<g id="graph0" class="graph" transform="scale(1 1) rotate(0) translate(4 136)">
<title>CanServiceTemplate.hpp</title>
<!-- Node1 -->
<g id="Node000001" class="node">
<title>Node1</title>
<g id="a_Node000001"><a xlink:title="Template class for the Canbus service.">
<polygon fill="#999999" stroke="#666666" points="125.5,-132 0,-132 0,-112 125.5,-112 125.5,-132"/>
<text xml:space="preserve" text-anchor="middle" x="62.75" y="-118.5" font-family="Helvetica,sans-Serif" font-size="10.00">CanServiceTemplate.hpp</text>
</a>
</g>
</g>
<!-- Node2 -->
<g id="Node000002" class="node">
<title>Node2</title>
<g id="a_Node000002"><a xlink:href="../../d3/dbb/_can_service_mode_8hpp.html" target="_top" xlink:title="CAN bus operation mode enumeration.">
<polygon fill="white" stroke="#666666" points="117.62,-76 7.88,-76 7.88,-56 117.62,-56 117.62,-76"/>
<text xml:space="preserve" text-anchor="middle" x="62.75" y="-62.5" font-family="Helvetica,sans-Serif" font-size="10.00">CanServiceMode.hpp</text>
</a>
</g>
</g>
<!-- Node1&#45;&gt;Node2 -->
<g id="edge1_Node000001_Node000002" class="edge">
<title>Node1&#45;&gt;Node2</title>
<g id="a_edge1_Node000001_Node000002"><a xlink:title=" ">
<path fill="none" stroke="#63b8ff" d="M62.75,-111.59C62.75,-105.01 62.75,-95.96 62.75,-87.73"/>
<polygon fill="#63b8ff" stroke="#63b8ff" points="66.25,-87.81 62.75,-77.81 59.25,-87.81 66.25,-87.81"/>
</a>
</g>
</g>
<!-- Node3 -->
<g id="Node000003" class="node">
<title>Node3</title>
<g id="a_Node000003"><a xlink:title=" ">
<polygon fill="#e0e0e0" stroke="#999999" points="85.38,-20 40.12,-20 40.12,0 85.38,0 85.38,-20"/>
<text xml:space="preserve" text-anchor="middle" x="62.75" y="-6.5" font-family="Helvetica,sans-Serif" font-size="10.00">cstdint</text>
</a>
</g>
</g>
<!-- Node2&#45;&gt;Node3 -->
<g id="edge2_Node000002_Node000003" class="edge">
<title>Node2&#45;&gt;Node3</title>
<g id="a_edge2_Node000002_Node000003"><a xlink:title=" ">
<path fill="none" stroke="#63b8ff" d="M62.75,-55.59C62.75,-49.01 62.75,-39.96 62.75,-31.73"/>
<polygon fill="#63b8ff" stroke="#63b8ff" points="66.25,-31.81 62.75,-21.81 59.25,-31.81 66.25,-31.81"/>
</a>
</g>
</g>
</g>
</svg>
