<?xml version="1.0" encoding="UTF-8" standalone="no"?>
<!DOCTYPE svg PUBLIC "-//W3C//DTD SVG 1.1//EN"
 "http://www.w3.org/Graphics/SVG/1.1/DTD/svg11.dtd">
<!-- Generated by graphviz version 13.1.0 (20250701.0955)
 -->
<!-- Title: Lib::Helper::Singleton::Singleton Pages: 1 -->
<svg width="357pt" height="46pt"
 viewBox="0.00 0.00 357.00 46.00" xmlns="http://www.w3.org/2000/svg" xmlns:xlink="http://www.w3.org/1999/xlink">
<g id="graph0" class="graph" transform="scale(1 1) rotate(0) translate(4 42)">
<title>Lib::Helper::Singleton::Singleton</title>
<!-- Node1 -->
<g id="Node000001" class="node">
<title>Node1</title>
<g id="a_Node000001"><a xlink:title="Deleted copy constructor of Singleton class.">
<polygon fill="#999999" stroke="#666666" points="349.25,-20 193,-20 193,0 349.25,0 349.25,-20"/>
<text xml:space="preserve" text-anchor="middle" x="271.12" y="-6.5" font-family="Helvetica,sans-Serif" font-size="10.00">Lib::Helper::Singleton::Singleton</text>
</a>
</g>
</g>
<!-- Node1&#45;&gt;Node1 -->
<g id="edge1_Node000001_Node000001" class="edge">
<title>Node1&#45;&gt;Node1</title>
<g id="a_edge1_Node000001_Node000001"><a xlink:title=" ">
<path fill="none" stroke="#63b8ff" d="M305.53,-31.11C301.43,-35.14 289.96,-38 271.12,-38 237.64,-38 227.44,-28.98 240.52,-20.34"/>
<polygon fill="#63b8ff" stroke="#63b8ff" points="308.86,-30.03 302.23,-21.77 302.26,-32.36 308.86,-30.03"/>
</a>
</g>
</g>
<!-- Node2 -->
<g id="Node000002" class="node">
<title>Node2</title>
<g id="a_Node000002"><a xlink:href="../../d6/dea/class_lib_1_1_helper_1_1_singleton.html#ae109b45d35700f9ced85cc5607d7c488" target="_top" xlink:title="Deleted copy assignment operator of Singleton class.">
<polygon fill="white" stroke="#666666" points="157,-20 0,-20 0,0 157,0 157,-20"/>
<text xml:space="preserve" text-anchor="middle" x="78.5" y="-6.5" font-family="Helvetica,sans-Serif" font-size="10.00">Lib::Helper::Singleton::operator=</text>
</a>
</g>
</g>
<!-- Node1&#45;&gt;Node2 -->
<g id="edge2_Node000001_Node000002" class="edge">
<title>Node1&#45;&gt;Node2</title>
<g id="a_edge2_Node000001_Node000002"><a xlink:title=" ">
<path fill="none" stroke="#63b8ff" d="M181.31,-10C173.28,-10 165.2,-10 157.28,-10"/>
<polygon fill="#63b8ff" stroke="#63b8ff" points="181.08,-13.5 191.08,-10 181.08,-6.5 181.08,-13.5"/>
</a>
</g>
</g>
</g>
</svg>
