<?xml version="1.0" encoding="UTF-8" standalone="no"?>
<!DOCTYPE svg PUBLIC "-//W3C//DTD SVG 1.1//EN"
 "http://www.w3.org/Graphics/SVG/1.1/DTD/svg11.dtd">
<!-- Generated by graphviz version 13.1.0 (20250701.0955)
 -->
<!-- Title: Lib::Xbee::Core::Frame0x00 Pages: 1 -->
<svg width="315pt" height="265pt"
 viewBox="0.00 0.00 315.00 265.00" xmlns="http://www.w3.org/2000/svg" xmlns:xlink="http://www.w3.org/1999/xlink">
<g id="graph0" class="graph" transform="scale(1 1) rotate(0) translate(4 260.5)">
<title>Lib::Xbee::Core::Frame0x00</title>
<!-- Node1 -->
<g id="Node000001" class="node">
<title>Node1</title>
<g id="a_Node000001"><a xlink:title="Frame0x00 TX Request frame (64&#45;bit address).">
<polygon fill="#999999" stroke="none" points="225.25,-18.5 102.5,-18.5 102.5,0 225.25,0 225.25,-18.5"/>
<text xml:space="preserve" text-anchor="start" x="106.5" y="-5.95" font-family="Arial" font-size="9.00">Lib::Xbee::Core::Frame0x00</text>
<polygon fill="none" stroke="#666666" points="102.5,0 102.5,-18.5 225.25,-18.5 225.25,0 102.5,0"/>
</a>
</g>
</g>
<!-- Node2 -->
<g id="Node000002" class="node">
<title>Node2</title>
<g id="a_Node000002"><a xlink:href="../../dd/d99/a02151.html" target="_top" xlink:title="Abstract base class for Xbee send requests.">
<polygon fill="white" stroke="none" points="151.88,-89.5 29.88,-89.5 29.88,-71 151.88,-71 151.88,-89.5"/>
<text xml:space="preserve" text-anchor="start" x="33.88" y="-76.95" font-family="Arial" font-size="9.00">Lib::Xbee::Core::QueryBase</text>
<polygon fill="none" stroke="#666666" points="29.88,-71 29.88,-89.5 151.88,-89.5 151.88,-71 29.88,-71"/>
</a>
</g>
</g>
<!-- Node2&#45;&gt;Node1 -->
<g id="edge1_Node000001_Node000002" class="edge">
<title>Node2&#45;&gt;Node1</title>
<g id="a_edge1_Node000001_Node000002"><a xlink:title=" ">
<path fill="none" stroke="#63b8ff" d="M107.84,-63.21C122.67,-49.2 143.6,-29.42 155.23,-18.43"/>
<polygon fill="none" stroke="#63b8ff" points="105.5,-60.61 100.64,-70.02 110.31,-65.7 105.5,-60.61"/>
</a>
</g>
</g>
<!-- Node3 -->
<g id="Node000003" class="node">
<title>Node3</title>
<g id="a_Node000003"><a xlink:href="../../d9/d96/a02091.html" target="_top" xlink:title="Type&#45;tagged byte buffer for Xbee Core frame payloads.">
<polygon fill="white" stroke="none" points="137.12,-185.5 34.62,-185.5 34.62,-156.5 137.12,-156.5 137.12,-185.5"/>
<text xml:space="preserve" text-anchor="start" x="38.62" y="-172.95" font-family="Arial" font-size="9.00">Lib::Xbee::Core::Frame</text>
<text xml:space="preserve" text-anchor="start" x="73.88" y="-162.45" font-family="Arial" font-size="9.00">::Data</text>
<polygon fill="none" stroke="#666666" points="34.62,-156.5 34.62,-185.5 137.12,-185.5 137.12,-156.5 34.62,-156.5"/>
</a>
</g>
</g>
<!-- Node3&#45;&gt;Node2 -->
<g id="edge2_Node000002_Node000003" class="edge">
<title>Node3&#45;&gt;Node2</title>
<g id="a_edge2_Node000002_Node000003"><a xlink:title=" ">
<path fill="none" stroke="#63b8ff" d="M86.63,-156.52C87.45,-142.04 88.76,-118.85 89.7,-102.04"/>
<polygon fill="none" stroke="#63b8ff" points="89.71,-101.93 86.05,-95.71 90.39,-89.95 94.04,-96.16 89.71,-101.93"/>
</a>
</g>
<text xml:space="preserve" text-anchor="start" x="92.26" y="-119.7" font-family="Arial" font-size="9.00" fill="grey">#frameData</text>
</g>
<!-- Node4 -->
<g id="Node000004" class="node">
<title>Node4</title>
<g id="a_Node000004"><a xlink:title=" ">
<polygon fill="white" stroke="none" points="35.75,-256.5 0,-256.5 0,-238 35.75,-238 35.75,-256.5"/>
<text xml:space="preserve" text-anchor="start" x="4" y="-243.95" font-family="Arial" font-size="9.00">uint8_t</text>
<polygon fill="none" stroke="#bfbfbf" points="0,-238 0,-256.5 35.75,-256.5 35.75,-238 0,-238"/>
</a>
</g>
</g>
<!-- Node4&#45;&gt;Node1 -->
<g id="edge4_Node000001_Node000004" class="edge">
<title>Node4&#45;&gt;Node1</title>
<g id="a_edge4_Node000001_Node000004"><a xlink:title=" ">
<path fill="none" stroke="#63b8ff" d="M15.15,-238.01C6.84,-211.18 -15.52,-125 20.88,-71 38.21,-45.28 68.82,-30.41 97.29,-21.83"/>
<polygon fill="none" stroke="#63b8ff" points="97.29,-21.83 102.02,-16.39 108.86,-18.66 104.13,-24.1 97.29,-21.83"/>
</a>
</g>
<text xml:space="preserve" text-anchor="start" x="7.97" y="-126.95" font-family="Arial" font-size="9.00" fill="grey">+frameId</text>
<text xml:space="preserve" text-anchor="start" x="7.97" y="-112.45" font-family="Arial" font-size="9.00" fill="grey">+options</text>
</g>
<!-- Node4&#45;&gt;Node3 -->
<g id="edge3_Node000003_Node000004" class="edge">
<title>Node4&#45;&gt;Node3</title>
<g id="a_edge3_Node000003_Node000004"><a xlink:title=" ">
<path fill="none" stroke="#63b8ff" d="M25.41,-238.02C34.91,-227.65 51.61,-209.41 65.06,-194.73"/>
<polygon fill="none" stroke="#63b8ff" points="65.01,-194.78 66.11,-187.66 73.11,-185.94 72.01,-193.06 65.01,-194.78"/>
</a>
</g>
<text xml:space="preserve" text-anchor="start" x="58.95" y="-208.45" font-family="Arial" font-size="9.00" fill="grey">+type</text>
</g>
<!-- Node5 -->
<g id="Node000005" class="node">
<title>Node5</title>
<g id="a_Node000005"><a xlink:title=" ">
<polygon fill="white" stroke="none" points="211.38,-89.5 170.38,-89.5 170.38,-71 211.38,-71 211.38,-89.5"/>
<text xml:space="preserve" text-anchor="start" x="174.38" y="-76.95" font-family="Arial" font-size="9.00">uint64_t</text>
<polygon fill="none" stroke="#bfbfbf" points="170.38,-71 170.38,-89.5 211.38,-89.5 211.38,-71 170.38,-71"/>
</a>
</g>
</g>
<!-- Node5&#45;&gt;Node1 -->
<g id="edge5_Node000001_Node000005" class="edge">
<title>Node5&#45;&gt;Node1</title>
<g id="a_edge5_Node000001_Node000005"><a xlink:title=" ">
<path fill="none" stroke="#63b8ff" d="M187.67,-71.06C183.77,-61.1 177.06,-43.94 171.75,-30.38"/>
<polygon fill="none" stroke="#63b8ff" points="171.78,-30.44 165.86,-26.31 167.4,-19.26 173.31,-23.39 171.78,-30.44"/>
</a>
</g>
<text xml:space="preserve" text-anchor="start" x="183.59" y="-41.45" font-family="Arial" font-size="9.00" fill="grey">+dstAddress</text>
</g>
<!-- Node6 -->
<g id="Node000006" class="node">
<title>Node6</title>
<g id="a_Node000006"><a xlink:title=" ">
<polygon fill="white" stroke="none" points="306.62,-89.5 231.12,-89.5 231.12,-71 306.62,-71 306.62,-89.5"/>
<text xml:space="preserve" text-anchor="start" x="235.12" y="-76.95" font-family="Arial" font-size="9.00">vector&lt; uint8_t &gt;</text>
<polygon fill="none" stroke="#bfbfbf" points="231.12,-71 231.12,-89.5 306.62,-89.5 306.62,-71 231.12,-71"/>
</a>
</g>
</g>
<!-- Node6&#45;&gt;Node1 -->
<g id="edge6_Node000001_Node000006" class="edge">
<title>Node6&#45;&gt;Node1</title>
<g id="a_edge6_Node000001_Node000006"><a xlink:title=" ">
<path fill="none" stroke="#63b8ff" d="M265.75,-71.14C261.66,-61.55 253.61,-45.72 241.88,-36.5 234.54,-30.73 225.87,-26.2 217.02,-22.65"/>
<polygon fill="none" stroke="#63b8ff" points="217.12,-22.68 210.13,-24.46 205.81,-18.69 212.8,-16.91 217.12,-22.68"/>
</a>
</g>
<text xml:space="preserve" text-anchor="start" x="259.24" y="-41.45" font-family="Arial" font-size="9.00" fill="grey">+rfData</text>
</g>
</g>
</svg>
