<?xml version="1.0" encoding="UTF-8" standalone="no"?>
<!DOCTYPE svg PUBLIC "-//W3C//DTD SVG 1.1//EN"
 "http://www.w3.org/Graphics/SVG/1.1/DTD/svg11.dtd">
<!-- Generated by graphviz version 12.2.1 (20241206.2353)
 -->
<!-- Title: ApplicationBase.hpp Pages: 1 -->
<svg width="694pt" height="140pt"
 viewBox="0.00 0.00 694.00 140.00" xmlns="http://www.w3.org/2000/svg" xmlns:xlink="http://www.w3.org/1999/xlink">
<g id="graph0" class="graph" transform="scale(1 1) rotate(0) translate(4 136)">
<title>ApplicationBase.hpp</title>
<!-- Node1 -->
<g id="Node000001" class="node">
<title>Node1</title>
<g id="a_Node000001"><a xlink:title="Defines the base class for application components.">
<polygon fill="#999999" stroke="#666666" points="354.75,-132 249.5,-132 249.5,-112 354.75,-112 354.75,-132"/>
<text text-anchor="middle" x="302.12" y="-118.5" font-family="Arial" font-size="10.00">ApplicationBase.hpp</text>
</a>
</g>
</g>
<!-- Node2 -->
<g id="Node000002" class="node">
<title>Node2</title>
<g id="a_Node000002"><a xlink:href="../../df/d03/a00062.html" target="_top" xlink:title="Declaration of the ApplicationManager class.">
<polygon fill="white" stroke="#666666" points="120.25,-76 0,-76 0,-56 120.25,-56 120.25,-76"/>
<text text-anchor="middle" x="60.12" y="-62.5" font-family="Arial" font-size="10.00">ApplicationManager.hpp</text>
</a>
</g>
</g>
<!-- Node1&#45;&gt;Node2 -->
<g id="edge1_Node000001_Node000002" class="edge">
<title>Node1&#45;&gt;Node2</title>
<g id="a_edge1_Node000001_Node000002"><a xlink:title=" ">
<path fill="none" stroke="#63b8ff" d="M248.63,-109.06C204.64,-99.25 143.14,-85.52 102.51,-76.46"/>
<polygon fill="#63b8ff" stroke="#63b8ff" points="247.7,-112.44 258.22,-111.2 249.22,-105.61 247.7,-112.44"/>
</a>
</g>
</g>
<!-- Node3 -->
<g id="Node000003" class="node">
<title>Node3</title>
<g id="a_Node000003"><a xlink:href="../../da/d24/a00068.html" target="_top" xlink:title="This file contains the definition of the ApplicationNone class.">
<polygon fill="white" stroke="#666666" points="244.12,-76 138.12,-76 138.12,-56 244.12,-56 244.12,-76"/>
<text text-anchor="middle" x="191.12" y="-62.5" font-family="Arial" font-size="10.00">ApplicationNone.hpp</text>
</a>
</g>
</g>
<!-- Node1&#45;&gt;Node3 -->
<g id="edge2_Node000001_Node000003" class="edge">
<title>Node1&#45;&gt;Node3</title>
<g id="a_edge2_Node000001_Node000003"><a xlink:title=" ">
<path fill="none" stroke="#63b8ff" d="M272.55,-106.61C252.93,-97.07 227.74,-84.81 210.61,-76.48"/>
<polygon fill="#63b8ff" stroke="#63b8ff" points="270.91,-109.7 281.43,-110.93 273.97,-103.41 270.91,-109.7"/>
</a>
</g>
</g>
<!-- Node4 -->
<g id="Node000004" class="node">
<title>Node4</title>
<g id="a_Node000004"><a xlink:href="../../db/db6/a00074.html" target="_top" xlink:title="Declaration of the RemoteIO class, which extends the ApplicationBase class.">
<polygon fill="white" stroke="#666666" points="342,-76 262.25,-76 262.25,-56 342,-56 342,-76"/>
<text text-anchor="middle" x="302.12" y="-62.5" font-family="Arial" font-size="10.00">RemoteIO.hpp</text>
</a>
</g>
</g>
<!-- Node1&#45;&gt;Node4 -->
<g id="edge3_Node000001_Node000004" class="edge">
<title>Node1&#45;&gt;Node4</title>
<g id="a_edge3_Node000001_Node000004"><a xlink:title=" ">
<path fill="none" stroke="#63b8ff" d="M302.12,-100.13C302.12,-91.9 302.12,-82.85 302.12,-76.3"/>
<polygon fill="#63b8ff" stroke="#63b8ff" points="298.63,-100.08 302.13,-110.08 305.63,-100.08 298.63,-100.08"/>
</a>
</g>
</g>
<!-- Node7 -->
<g id="Node000007" class="node">
<title>Node7</title>
<g id="a_Node000007"><a xlink:href="../../d2/d1f/a00083.html" target="_top" xlink:title="Header file for the RotationTableParallel class.">
<polygon fill="white" stroke="#666666" points="497.62,-76 370.62,-76 370.62,-56 497.62,-56 497.62,-76"/>
<text text-anchor="middle" x="434.12" y="-62.5" font-family="Arial" font-size="10.00">RotationTableParallel.hpp</text>
</a>
</g>
</g>
<!-- Node1&#45;&gt;Node7 -->
<g id="edge6_Node000001_Node000007" class="edge">
<title>Node1&#45;&gt;Node7</title>
<g id="a_edge6_Node000001_Node000007"><a xlink:title=" ">
<path fill="none" stroke="#63b8ff" d="M335.68,-107.27C359.23,-97.64 390.11,-85.01 410.95,-76.48"/>
<polygon fill="#63b8ff" stroke="#63b8ff" points="334.45,-104 326.52,-111.02 337.1,-110.47 334.45,-104"/>
</a>
</g>
</g>
<!-- Node10 -->
<g id="Node000010" class="node">
<title>Node10</title>
<g id="a_Node000010"><a xlink:href="../../d1/dc1/a00092.html" target="_top" xlink:title="Declaration of the RotationTableSerial class.">
<polygon fill="white" stroke="#666666" points="634.88,-76 515.38,-76 515.38,-56 634.88,-56 634.88,-76"/>
<text text-anchor="middle" x="575.12" y="-62.5" font-family="Arial" font-size="10.00">RotationTableSerial.hpp</text>
</a>
</g>
</g>
<!-- Node1&#45;&gt;Node10 -->
<g id="edge9_Node000001_Node000010" class="edge">
<title>Node1&#45;&gt;Node10</title>
<g id="a_edge9_Node000001_Node000010"><a xlink:title=" ">
<path fill="none" stroke="#63b8ff" d="M361.21,-109.31C410.92,-99.48 481.08,-85.6 527.31,-76.46"/>
<polygon fill="#63b8ff" stroke="#63b8ff" points="360.61,-105.86 351.48,-111.24 361.96,-112.73 360.61,-105.86"/>
</a>
</g>
</g>
<!-- Node5 -->
<g id="Node000005" class="node">
<title>Node5</title>
<g id="a_Node000005"><a xlink:href="../../d1/d09/a00077.html" target="_top" xlink:title="Header file for the RemoteIO57600 class.">
<polygon fill="white" stroke="#666666" points="228.12,-20 122.12,-20 122.12,0 228.12,0 228.12,-20"/>
<text text-anchor="middle" x="175.12" y="-6.5" font-family="Arial" font-size="10.00">RemoteIO57600.hpp</text>
</a>
</g>
</g>
<!-- Node4&#45;&gt;Node5 -->
<g id="edge4_Node000004_Node000005" class="edge">
<title>Node4&#45;&gt;Node5</title>
<g id="a_edge4_Node000004_Node000005"><a xlink:title=" ">
<path fill="none" stroke="#63b8ff" d="M269.53,-51.14C246.91,-41.52 217.38,-28.97 197.42,-20.48"/>
<polygon fill="#63b8ff" stroke="#63b8ff" points="268.04,-54.31 278.61,-55 270.78,-47.87 268.04,-54.31"/>
</a>
</g>
</g>
<!-- Node6 -->
<g id="Node000006" class="node">
<title>Node6</title>
<g id="a_Node000006"><a xlink:href="../../da/dec/a00080.html" target="_top" xlink:title="Header file for the RemoteIO9600 class.">
<polygon fill="white" stroke="#666666" points="346.5,-20 245.75,-20 245.75,0 346.5,0 346.5,-20"/>
<text text-anchor="middle" x="296.12" y="-6.5" font-family="Arial" font-size="10.00">RemoteIO9600.hpp</text>
</a>
</g>
</g>
<!-- Node4&#45;&gt;Node6 -->
<g id="edge5_Node000004_Node000006" class="edge">
<title>Node4&#45;&gt;Node6</title>
<g id="a_edge5_Node000004_Node000006"><a xlink:title=" ">
<path fill="none" stroke="#63b8ff" d="M299.84,-44.43C298.91,-36.11 297.9,-26.93 297.16,-20.3"/>
<polygon fill="#63b8ff" stroke="#63b8ff" points="296.33,-44.54 300.91,-54.09 303.29,-43.76 296.33,-44.54"/>
</a>
</g>
</g>
<!-- Node8 -->
<g id="Node000008" class="node">
<title>Node8</title>
<g id="a_Node000008"><a xlink:href="../../da/d2a/a00086.html" target="_top" xlink:title="Defines the RotationTableParallel6Pins class which extends RotationTableParallel with a 6&#45;pin paralle...">
<polygon fill="white" stroke="#666666" points="516,-20 364.25,-20 364.25,0 516,0 516,-20"/>
<text text-anchor="middle" x="440.12" y="-6.5" font-family="Arial" font-size="10.00">RotationTableParallel6Pins.hpp</text>
</a>
</g>
</g>
<!-- Node7&#45;&gt;Node8 -->
<g id="edge7_Node000007_Node000008" class="edge">
<title>Node7&#45;&gt;Node8</title>
<g id="a_edge7_Node000007_Node000008"><a xlink:title=" ">
<path fill="none" stroke="#63b8ff" d="M436.41,-44.43C437.34,-36.11 438.35,-26.93 439.09,-20.3"/>
<polygon fill="#63b8ff" stroke="#63b8ff" points="432.96,-43.76 435.34,-54.09 439.92,-44.54 432.96,-43.76"/>
</a>
</g>
</g>
<!-- Node9 -->
<g id="Node000009" class="node">
<title>Node9</title>
<g id="a_Node000009"><a xlink:href="../../db/dab/a00089.html" target="_top" xlink:title="Defines the RotationTableParallel7Pins class which extends RotationTableParallel with a 7&#45;pin paralle...">
<polygon fill="white" stroke="#666666" points="686,-20 534.25,-20 534.25,0 686,0 686,-20"/>
<text text-anchor="middle" x="610.12" y="-6.5" font-family="Arial" font-size="10.00">RotationTableParallel7Pins.hpp</text>
</a>
</g>
</g>
<!-- Node7&#45;&gt;Node9 -->
<g id="edge8_Node000007_Node000009" class="edge">
<title>Node7&#45;&gt;Node9</title>
<g id="a_edge8_Node000007_Node000009"><a xlink:title=" ">
<path fill="none" stroke="#63b8ff" d="M475.5,-52.31C507.27,-42.56 550.43,-29.32 579.23,-20.48"/>
<polygon fill="#63b8ff" stroke="#63b8ff" points="474.76,-48.87 466.23,-55.15 476.82,-55.56 474.76,-48.87"/>
</a>
</g>
</g>
</g>
</svg>
