<?xml version="1.0" encoding="UTF-8" standalone="no"?>
<!DOCTYPE svg PUBLIC "-//W3C//DTD SVG 1.1//EN"
 "http://www.w3.org/Graphics/SVG/1.1/DTD/svg11.dtd">
<!-- Generated by graphviz version 12.2.1 (20241206.2353)
 -->
<!-- Title: Lib::Xbee::Core::Protocol::processMessage Pages: 1 -->
<svg width="625pt" height="118pt"
 viewBox="0.00 0.00 624.75 118.00" xmlns="http://www.w3.org/2000/svg" xmlns:xlink="http://www.w3.org/1999/xlink">
<g id="graph0" class="graph" transform="scale(1 1) rotate(0) translate(4 114)">
<title>Lib::Xbee::Core::Protocol::processMessage</title>
<!-- Node1 -->
<g id="Node000001" class="node">
<title>Node1</title>
<g id="a_Node000001"><a xlink:title="Processes a Digi API frame message.">
<polygon fill="#999999" stroke="#666666" points="126.25,-85 0,-85 0,-53 126.25,-53 126.25,-85"/>
<text text-anchor="start" x="8" y="-71.5" font-family="Helvetica,sans-Serif" font-size="10.00">Lib::Xbee::Core::Protocol</text>
<text text-anchor="middle" x="63.12" y="-59.5" font-family="Helvetica,sans-Serif" font-size="10.00">::processMessage</text>
</a>
</g>
</g>
<!-- Node2 -->
<g id="Node000002" class="node">
<title>Node2</title>
<g id="a_Node000002"><a xlink:href="../../dd/d9c/a00487.html#a9d5b840ed435d39434f8a6fb1c183442" target="_top" xlink:title="Get the singleton instance of the ResponseEvents class.">
<polygon fill="white" stroke="#666666" points="296.75,-110 162.25,-110 162.25,-78 296.75,-78 296.75,-110"/>
<text text-anchor="start" x="170.25" y="-96.5" font-family="Helvetica,sans-Serif" font-size="10.00">Lib::Xbee::Core::Response</text>
<text text-anchor="middle" x="229.5" y="-84.5" font-family="Helvetica,sans-Serif" font-size="10.00">Events::getInstance</text>
</a>
</g>
</g>
<!-- Node1&#45;&gt;Node2 -->
<g id="edge1_Node000001_Node000002" class="edge">
<title>Node1&#45;&gt;Node2</title>
<g id="a_edge1_Node000001_Node000002"><a xlink:title=" ">
<path fill="none" stroke="#63b8ff" d="M126.74,-78.52C134.57,-79.71 142.65,-80.94 150.68,-82.16"/>
<polygon fill="#63b8ff" stroke="#63b8ff" points="150.05,-85.61 160.46,-83.65 151.1,-78.69 150.05,-85.61"/>
</a>
</g>
</g>
<!-- Node3 -->
<g id="Node000003" class="node">
<title>Node3</title>
<g id="a_Node000003"><a xlink:href="../../d0/dc4/a00443.html#a3d61ecbff974d958bd340d92b598f0c5" target="_top" xlink:title="Parses a Digi API frame into frame data.">
<polygon fill="white" stroke="#666666" points="292.62,-60 166.38,-60 166.38,-28 292.62,-28 292.62,-60"/>
<text text-anchor="start" x="174.38" y="-46.5" font-family="Helvetica,sans-Serif" font-size="10.00">Lib::Xbee::Core::Protocol</text>
<text text-anchor="middle" x="229.5" y="-34.5" font-family="Helvetica,sans-Serif" font-size="10.00">::parse</text>
</a>
</g>
</g>
<!-- Node1&#45;&gt;Node3 -->
<g id="edge2_Node000001_Node000003" class="edge">
<title>Node1&#45;&gt;Node3</title>
<g id="a_edge2_Node000001_Node000003"><a xlink:title=" ">
<path fill="none" stroke="#63b8ff" d="M126.74,-59.48C135.9,-58.08 145.4,-56.64 154.76,-55.22"/>
<polygon fill="#63b8ff" stroke="#63b8ff" points="155.21,-58.69 164.57,-53.72 154.15,-51.77 155.21,-58.69"/>
</a>
</g>
</g>
<!-- Node4 -->
<g id="Node000004" class="node">
<title>Node4</title>
<g id="a_Node000004"><a xlink:href="../../db/dbc/a00395.html#a216af07f71c2c1f5a718f814885eefee" target="_top" xlink:title="Retrieves the data stored in the buffer.">
<polygon fill="white" stroke="#666666" points="616.75,-82 495,-82 495,-50 616.75,-50 616.75,-82"/>
<text text-anchor="start" x="503" y="-68.5" font-family="Helvetica,sans-Serif" font-size="10.00">Lib::Xbee::Core::DigiApi</text>
<text text-anchor="middle" x="555.88" y="-56.5" font-family="Helvetica,sans-Serif" font-size="10.00">FrameBuffer::getData</text>
</a>
</g>
</g>
<!-- Node3&#45;&gt;Node4 -->
<g id="edge3_Node000003_Node000004" class="edge">
<title>Node3&#45;&gt;Node4</title>
<g id="a_edge3_Node000003_Node000004"><a xlink:title=" ">
<path fill="none" stroke="#63b8ff" d="M293.04,-48.24C347.47,-51.93 426.34,-57.28 483.28,-61.14"/>
<polygon fill="#63b8ff" stroke="#63b8ff" points="482.99,-64.63 493.21,-61.82 483.47,-57.65 482.99,-64.63"/>
</a>
</g>
</g>
<!-- Node5 -->
<g id="Node000005" class="node">
<title>Node5</title>
<g id="a_Node000005"><a xlink:href="../../d0/dc4/a00443.html#a4b619cc34a94dcdca9a1c97e75c83045" target="_top" xlink:title="Validates a Digi API frame.">
<polygon fill="white" stroke="#666666" points="459,-38 332.75,-38 332.75,-6 459,-6 459,-38"/>
<text text-anchor="start" x="340.75" y="-24.5" font-family="Helvetica,sans-Serif" font-size="10.00">Lib::Xbee::Core::Protocol</text>
<text text-anchor="middle" x="395.88" y="-12.5" font-family="Helvetica,sans-Serif" font-size="10.00">::isValid</text>
</a>
</g>
</g>
<!-- Node3&#45;&gt;Node5 -->
<g id="edge4_Node000003_Node000005" class="edge">
<title>Node3&#45;&gt;Node5</title>
<g id="a_edge4_Node000003_Node000005"><a xlink:title=" ">
<path fill="none" stroke="#63b8ff" d="M293.11,-35.62C302.27,-34.39 311.77,-33.12 321.13,-31.87"/>
<polygon fill="#63b8ff" stroke="#63b8ff" points="321.49,-35.35 330.94,-30.56 320.56,-28.42 321.49,-35.35"/>
</a>
</g>
</g>
<!-- Node5&#45;&gt;Node4 -->
<g id="edge5_Node000005_Node000004" class="edge">
<title>Node5&#45;&gt;Node4</title>
<g id="a_edge5_Node000005_Node000004"><a xlink:title=" ">
<path fill="none" stroke="#63b8ff" d="M455.71,-38.38C465.21,-41.03 475.12,-43.79 484.85,-46.5"/>
<polygon fill="#63b8ff" stroke="#63b8ff" points="483.7,-49.81 494.27,-49.12 485.58,-43.07 483.7,-49.81"/>
</a>
</g>
</g>
<!-- Node6 -->
<g id="Node000006" class="node">
<title>Node6</title>
<g id="a_Node000006"><a xlink:href="../../db/dbc/a00395.html#a9211d70f8b7f885df1472c90a91a2caf" target="_top" xlink:title="Gets the size of the buffer.">
<polygon fill="white" stroke="#666666" points="616.75,-32 495,-32 495,0 616.75,0 616.75,-32"/>
<text text-anchor="start" x="503" y="-18.5" font-family="Helvetica,sans-Serif" font-size="10.00">Lib::Xbee::Core::DigiApi</text>
<text text-anchor="middle" x="555.88" y="-6.5" font-family="Helvetica,sans-Serif" font-size="10.00">FrameBuffer::getSize</text>
</a>
</g>
</g>
<!-- Node5&#45;&gt;Node6 -->
<g id="edge6_Node000005_Node000006" class="edge">
<title>Node5&#45;&gt;Node6</title>
<g id="a_edge6_Node000005_Node000006"><a xlink:title=" ">
<path fill="none" stroke="#63b8ff" d="M459.32,-19.63C467.24,-19.33 475.38,-19.02 483.42,-18.71"/>
<polygon fill="#63b8ff" stroke="#63b8ff" points="483.32,-22.22 493.18,-18.34 483.05,-15.23 483.32,-22.22"/>
</a>
</g>
</g>
</g>
</svg>
