<?xml version="1.0" encoding="UTF-8" standalone="no"?>
<!DOCTYPE svg PUBLIC "-//W3C//DTD SVG 1.1//EN"
 "http://www.w3.org/Graphics/SVG/1.1/DTD/svg11.dtd">
<!-- Generated by graphviz version 13.1.0 (20250701.0955)
 -->
<!-- Title: Lib::BSP::DeviceDriverManager Pages: 1 -->
<svg width="146pt" height="164pt"
 viewBox="0.00 0.00 146.00 164.00" xmlns="http://www.w3.org/2000/svg" xmlns:xlink="http://www.w3.org/1999/xlink">
<g id="graph0" class="graph" transform="scale(1 1) rotate(0) translate(4 159.5)">
<title>Lib::BSP::DeviceDriverManager</title>
<!-- Node1 -->
<g id="Node000001" class="node">
<title>Node1</title>
<g id="a_Node000001"><a xlink:title="Device driver manager for STM32 BSP.">
<polygon fill="#999999" stroke="none" points="137.75,-18.5 0,-18.5 0,0 137.75,0 137.75,-18.5"/>
<text xml:space="preserve" text-anchor="start" x="4" y="-5.95" font-family="Arial" font-size="9.00">Lib::BSP::DeviceDriverManager</text>
<polygon fill="none" stroke="#666666" points="0,0 0,-18.5 137.75,-18.5 137.75,0 0,0"/>
</a>
</g>
</g>
<!-- Node2 -->
<g id="Node000002" class="node">
<title>Node2</title>
<g id="a_Node000002"><a xlink:href="../../d8/df7/a01711.html" target="_top" xlink:title=" ">
<polygon fill="white" stroke="none" points="117.88,-84.5 19.88,-84.5 19.88,-55.5 117.88,-55.5 117.88,-84.5"/>
<text xml:space="preserve" text-anchor="start" x="23.88" y="-71.95" font-family="Arial" font-size="9.00">Lib::Helper::Container</text>
<text xml:space="preserve" text-anchor="start" x="24.25" y="-61.45" font-family="Arial" font-size="9.00">&lt; DeviceDriverBase &gt;</text>
<polygon fill="none" stroke="#666666" points="19.88,-55.5 19.88,-84.5 117.88,-84.5 117.88,-55.5 19.88,-55.5"/>
</a>
</g>
</g>
<!-- Node2&#45;&gt;Node1 -->
<g id="edge1_Node000001_Node000002" class="edge">
<title>Node2&#45;&gt;Node1</title>
<g id="a_edge1_Node000001_Node000002"><a xlink:title=" ">
<path fill="none" stroke="#63b8ff" d="M68.88,-44.46C68.88,-35.09 68.88,-25.05 68.88,-18.29"/>
<polygon fill="none" stroke="#63b8ff" points="65.38,-44.16 68.88,-54.16 72.38,-44.16 65.38,-44.16"/>
</a>
</g>
</g>
<!-- Node3 -->
<g id="Node000003" class="node">
<title>Node3</title>
<g id="a_Node000003"><a xlink:href="../../df/d04/a02287.html" target="_top" xlink:title=" ">
<polygon fill="white" stroke="none" points="132.88,-155.5 4.88,-155.5 4.88,-137 132.88,-137 132.88,-155.5"/>
<text xml:space="preserve" text-anchor="start" x="8.88" y="-142.95" font-family="Arial" font-size="9.00">vector&lt; DeviceDriverBase * &gt;</text>
<polygon fill="none" stroke="#bfbfbf" points="4.88,-137 4.88,-155.5 132.88,-155.5 132.88,-137 4.88,-137"/>
</a>
</g>
</g>
<!-- Node3&#45;&gt;Node2 -->
<g id="edge2_Node000002_Node000003" class="edge">
<title>Node3&#45;&gt;Node2</title>
<g id="a_edge2_Node000002_Node000003"><a xlink:title=" ">
<path fill="none" stroke="#63b8ff" d="M68.88,-137.02C68.88,-127.45 68.88,-111.17 68.88,-97.17"/>
<polygon fill="none" stroke="#63b8ff" points="68.88,-97.17 64.88,-91.17 68.88,-85.17 72.88,-91.17 68.88,-97.17"/>
</a>
</g>
<text xml:space="preserve" text-anchor="start" x="71.88" y="-107.45" font-family="Arial" font-size="9.00" fill="grey">#storage</text>
</g>
</g>
</svg>
