<?xml version="1.0" encoding="UTF-8" standalone="no"?>
<!DOCTYPE svg PUBLIC "-//W3C//DTD SVG 1.1//EN"
 "http://www.w3.org/Graphics/SVG/1.1/DTD/svg11.dtd">
<!-- Generated by graphviz version 13.1.0 (20250701.0955)
 -->
<!-- Title: Lib::Xbee::Core::Frame0x17 Pages: 1 -->
<svg width="162pt" height="292pt"
 viewBox="0.00 0.00 162.00 292.00" xmlns="http://www.w3.org/2000/svg" xmlns:xlink="http://www.w3.org/1999/xlink">
<g id="graph0" class="graph" transform="scale(1 1) rotate(0) translate(4 288)">
<title>Lib::Xbee::Core::Frame0x17</title>
<!-- Node1 -->
<g id="Node000001" class="node">
<title>Node1</title>
<g id="a_Node000001"><a xlink:title="Remote AT Command Request frame (0x17) for Xbee API.">
<polygon fill="#999999" stroke="none" points="153.75,-140 0,-140 0,0 153.75,0 153.75,-140"/>
<text xml:space="preserve" text-anchor="start" x="15.38" y="-126.5" font-family="Helvetica,sans-Serif" font-size="10.00">Lib::Xbee::Core::Frame0x17</text>
<text xml:space="preserve" text-anchor="start" x="4" y="-110.5" font-family="Helvetica,sans-Serif" font-size="10.00">+</text>
<text xml:space="preserve" text-anchor="start" x="14" y="-110.5" font-family="Helvetica,sans-Serif" font-size="10.00">uint8_t frameId</text>
<text xml:space="preserve" text-anchor="start" x="4" y="-94.5" font-family="Helvetica,sans-Serif" font-size="10.00">+</text>
<text xml:space="preserve" text-anchor="start" x="14" y="-94.5" font-family="Helvetica,sans-Serif" font-size="10.00">uint64_t dstAddr</text>
<text xml:space="preserve" text-anchor="start" x="4" y="-78.5" font-family="Helvetica,sans-Serif" font-size="10.00">+</text>
<text xml:space="preserve" text-anchor="start" x="14" y="-78.5" font-family="Helvetica,sans-Serif" font-size="10.00">uint8_t remoteCommandOption</text>
<text xml:space="preserve" text-anchor="start" x="4" y="-62.5" font-family="Helvetica,sans-Serif" font-size="10.00">+</text>
<text xml:space="preserve" text-anchor="start" x="14" y="-62.5" font-family="Helvetica,sans-Serif" font-size="10.00">uint16_t atCmd</text>
<text xml:space="preserve" text-anchor="start" x="4" y="-46.5" font-family="Helvetica,sans-Serif" font-size="10.00">+</text>
<text xml:space="preserve" text-anchor="start" x="14" y="-46.5" font-family="Helvetica,sans-Serif" font-size="10.00">std::vector&lt; uint8</text>
<text xml:space="preserve" text-anchor="start" x="14" y="-34.5" font-family="Helvetica,sans-Serif" font-size="10.00">_t &gt; parameters</text>
<text xml:space="preserve" text-anchor="start" x="4" y="-18.5" font-family="Helvetica,sans-Serif" font-size="10.00">+</text>
<text xml:space="preserve" text-anchor="start" x="14" y="-18.5" font-family="Helvetica,sans-Serif" font-size="10.00">operator Frame::Data</text>
<text xml:space="preserve" text-anchor="start" x="14" y="-6.5" font-family="Helvetica,sans-Serif" font-size="10.00">() override</text>
<polygon fill="#666666" stroke="#666666" points="0,-122 0,-122 153.75,-122 153.75,-122 0,-122"/>
<polygon fill="#666666" stroke="#666666" points="0,-30 0,-30 12,-30 12,-30 0,-30"/>
<polygon fill="#666666" stroke="#666666" points="12,-30 12,-30 153.75,-30 153.75,-30 12,-30"/>
<polygon fill="none" stroke="#666666" points="0,0 0,-140 153.75,-140 153.75,0 0,0"/>
</a>
</g>
</g>
<!-- Node2 -->
<g id="Node000002" class="node">
<title>Node2</title>
<g id="a_Node000002"><a xlink:href="../../dc/daf/class_lib_1_1_xbee_1_1_core_1_1_query_base.html" target="_top" xlink:title="Abstract base class for Xbee send requests.">
<polygon fill="white" stroke="none" points="142.38,-284 11.38,-284 11.38,-176 142.38,-176 142.38,-284"/>
<text xml:space="preserve" text-anchor="start" x="15.38" y="-270.5" font-family="Helvetica,sans-Serif" font-size="10.00">Lib::Xbee::Core::QueryBase</text>
<text xml:space="preserve" text-anchor="start" x="18.12" y="-254.5" font-family="Helvetica,sans-Serif" font-size="10.00">#</text>
<text xml:space="preserve" text-anchor="start" x="30.12" y="-254.5" font-family="Helvetica,sans-Serif" font-size="10.00">Frame::Data frameData</text>
<text xml:space="preserve" text-anchor="start" x="17.75" y="-238.5" font-family="Helvetica,sans-Serif" font-size="10.00">+</text>
<text xml:space="preserve" text-anchor="start" x="30.12" y="-238.5" font-family="Helvetica,sans-Serif" font-size="10.00">virtual operator Frame</text>
<text xml:space="preserve" text-anchor="start" x="30.12" y="-226.5" font-family="Helvetica,sans-Serif" font-size="10.00">::Data()=0</text>
<text xml:space="preserve" text-anchor="start" x="17.75" y="-210.5" font-family="Helvetica,sans-Serif" font-size="10.00">+</text>
<text xml:space="preserve" text-anchor="start" x="30.12" y="-210.5" font-family="Helvetica,sans-Serif" font-size="10.00">QueryBase()=default</text>
<text xml:space="preserve" text-anchor="start" x="17.75" y="-194.5" font-family="Helvetica,sans-Serif" font-size="10.00">+</text>
<text xml:space="preserve" text-anchor="start" x="30.12" y="-194.5" font-family="Helvetica,sans-Serif" font-size="10.00">virtual ~QueryBase</text>
<text xml:space="preserve" text-anchor="start" x="30.12" y="-182.5" font-family="Helvetica,sans-Serif" font-size="10.00">()=default</text>
<polygon fill="#666666" stroke="#666666" points="11.38,-266 11.38,-266 142.38,-266 142.38,-266 11.38,-266"/>
<polygon fill="#666666" stroke="#666666" points="11.38,-250 11.38,-250 28.12,-250 28.12,-250 11.38,-250"/>
<polygon fill="#666666" stroke="#666666" points="28.12,-250 28.12,-250 142.38,-250 142.38,-250 28.12,-250"/>
<polygon fill="none" stroke="#666666" points="11.38,-176 11.38,-284 142.38,-284 142.38,-176 11.38,-176"/>
</a>
</g>
</g>
<!-- Node2&#45;&gt;Node1 -->
<g id="edge1_Node000001_Node000002" class="edge">
<title>Node2&#45;&gt;Node1</title>
<g id="a_edge1_Node000001_Node000002"><a xlink:title=" ">
<path fill="none" stroke="#63b8ff" d="M76.88,-164.95C76.88,-156.72 76.88,-148.27 76.88,-139.97"/>
<polygon fill="none" stroke="#63b8ff" points="73.38,-164.87 76.88,-174.87 80.38,-164.87 73.38,-164.87"/>
</a>
</g>
</g>
</g>
</svg>
