<?xml version="1.0" encoding="UTF-8" standalone="no"?>
<!DOCTYPE svg PUBLIC "-//W3C//DTD SVG 1.1//EN"
 "http://www.w3.org/Graphics/SVG/1.1/DTD/svg11.dtd">
<!-- Generated by graphviz version 13.1.0 (20250701.0955)
 -->
<!-- Title: Lib::Xbee::Core::Frame0x17 Pages: 1 -->
<svg width="154pt" height="268pt"
 viewBox="0.00 0.00 154.00 268.00" xmlns="http://www.w3.org/2000/svg" xmlns:xlink="http://www.w3.org/1999/xlink">
<g id="graph0" class="graph" transform="scale(1 1) rotate(0) translate(4 264)">
<title>Lib::Xbee::Core::Frame0x17</title>
<!-- Node1 -->
<g id="Node000001" class="node">
<title>Node1</title>
<g id="a_Node000001"><a xlink:title="Frame0x17 remote AT command request.">
<polygon fill="#999999" stroke="none" points="145.5,-126.5 0,-126.5 0,0 145.5,0 145.5,-126.5"/>
<text xml:space="preserve" text-anchor="start" x="15.38" y="-113.95" font-family="Arial" font-size="9.00">Lib::Xbee::Core::Frame0x17</text>
<text xml:space="preserve" text-anchor="start" x="4" y="-99.45" font-family="Arial" font-size="9.00">+</text>
<text xml:space="preserve" text-anchor="start" x="13.25" y="-99.45" font-family="Arial" font-size="9.00">uint8_t frameId</text>
<text xml:space="preserve" text-anchor="start" x="4" y="-84.95" font-family="Arial" font-size="9.00">+</text>
<text xml:space="preserve" text-anchor="start" x="13.25" y="-84.95" font-family="Arial" font-size="9.00">uint64_t dstAddr</text>
<text xml:space="preserve" text-anchor="start" x="4" y="-70.45" font-family="Arial" font-size="9.00">+</text>
<text xml:space="preserve" text-anchor="start" x="13.25" y="-70.45" font-family="Arial" font-size="9.00">uint8_t remoteCommandOption</text>
<text xml:space="preserve" text-anchor="start" x="4" y="-55.95" font-family="Arial" font-size="9.00">+</text>
<text xml:space="preserve" text-anchor="start" x="13.25" y="-55.95" font-family="Arial" font-size="9.00">uint16_t atCommand</text>
<text xml:space="preserve" text-anchor="start" x="4" y="-41.45" font-family="Arial" font-size="9.00">+</text>
<text xml:space="preserve" text-anchor="start" x="13.25" y="-41.45" font-family="Arial" font-size="9.00">std::vector&lt; uint8</text>
<text xml:space="preserve" text-anchor="start" x="13.25" y="-30.95" font-family="Arial" font-size="9.00">_t &gt; parameters</text>
<text xml:space="preserve" text-anchor="start" x="4" y="-16.45" font-family="Arial" font-size="9.00">+</text>
<text xml:space="preserve" text-anchor="start" x="13.25" y="-16.45" font-family="Arial" font-size="9.00">operator Frame::Data</text>
<text xml:space="preserve" text-anchor="start" x="13.25" y="-5.95" font-family="Arial" font-size="9.00">() override</text>
<polygon fill="#666666" stroke="#666666" points="0,-110 0,-110 145.5,-110 145.5,-110 0,-110"/>
<polygon fill="#666666" stroke="#666666" points="0,-27 0,-27 11.25,-27 11.25,-27 0,-27"/>
<polygon fill="#666666" stroke="#666666" points="11.25,-27 11.25,-27 145.5,-27 145.5,-27 11.25,-27"/>
<polygon fill="none" stroke="#666666" points="0,0 0,-126.5 145.5,-126.5 145.5,0 0,0"/>
</a>
</g>
</g>
<!-- Node2 -->
<g id="Node000002" class="node">
<title>Node2</title>
<g id="a_Node000002"><a xlink:href="../../dc/daf/class_lib_1_1_xbee_1_1_core_1_1_query_base.html" target="_top" xlink:title="Abstract base class for Xbee send requests.">
<polygon fill="white" stroke="none" points="133.75,-260 11.75,-260 11.75,-162.5 133.75,-162.5 133.75,-260"/>
<text xml:space="preserve" text-anchor="start" x="15.75" y="-247.45" font-family="Arial" font-size="9.00">Lib::Xbee::Core::QueryBase</text>
<text xml:space="preserve" text-anchor="start" x="18.12" y="-232.95" font-family="Arial" font-size="9.00">#</text>
<text xml:space="preserve" text-anchor="start" x="29.75" y="-232.95" font-family="Arial" font-size="9.00">Frame::Data frameData</text>
<text xml:space="preserve" text-anchor="start" x="18.12" y="-218.45" font-family="Arial" font-size="9.00">+</text>
<text xml:space="preserve" text-anchor="start" x="29.75" y="-218.45" font-family="Arial" font-size="9.00">virtual operator Frame</text>
<text xml:space="preserve" text-anchor="start" x="29.75" y="-207.95" font-family="Arial" font-size="9.00">::Data()=0</text>
<text xml:space="preserve" text-anchor="start" x="18.12" y="-193.45" font-family="Arial" font-size="9.00">+</text>
<text xml:space="preserve" text-anchor="start" x="29.75" y="-193.45" font-family="Arial" font-size="9.00">QueryBase()=default</text>
<text xml:space="preserve" text-anchor="start" x="18.12" y="-178.95" font-family="Arial" font-size="9.00">+</text>
<text xml:space="preserve" text-anchor="start" x="29.75" y="-178.95" font-family="Arial" font-size="9.00">virtual ~QueryBase</text>
<text xml:space="preserve" text-anchor="start" x="29.75" y="-168.45" font-family="Arial" font-size="9.00">()=default</text>
<polygon fill="#666666" stroke="#666666" points="11.75,-243.5 11.75,-243.5 133.75,-243.5 133.75,-243.5 11.75,-243.5"/>
<polygon fill="#666666" stroke="#666666" points="11.75,-229 11.75,-229 27.75,-229 27.75,-229 11.75,-229"/>
<polygon fill="#666666" stroke="#666666" points="27.75,-229 27.75,-229 133.75,-229 133.75,-229 27.75,-229"/>
<polygon fill="none" stroke="#666666" points="11.75,-162.5 11.75,-260 133.75,-260 133.75,-162.5 11.75,-162.5"/>
</a>
</g>
</g>
<!-- Node2&#45;&gt;Node1 -->
<g id="edge1_Node000001_Node000002" class="edge">
<title>Node2&#45;&gt;Node1</title>
<g id="a_edge1_Node000001_Node000002"><a xlink:title=" ">
<path fill="none" stroke="#63b8ff" d="M72.75,-151.39C72.75,-143.13 72.75,-134.62 72.75,-126.3"/>
<polygon fill="none" stroke="#63b8ff" points="69.25,-151.33 72.75,-161.33 76.25,-151.33 69.25,-151.33"/>
</a>
</g>
</g>
</g>
</svg>
