<?xml version="1.0" encoding="UTF-8" standalone="no"?>
<!DOCTYPE svg PUBLIC "-//W3C//DTD SVG 1.1//EN"
 "http://www.w3.org/Graphics/SVG/1.1/DTD/svg11.dtd">
<!-- Generated by graphviz version 13.1.0 (20250701.0955)
 -->
<!-- Title: Lib::Canbus::ServiceBase::Diagnostic Pages: 1 -->
<svg width="170pt" height="181pt"
 viewBox="0.00 0.00 170.00 181.00" xmlns="http://www.w3.org/2000/svg" xmlns:xlink="http://www.w3.org/1999/xlink">
<g id="graph0" class="graph" transform="scale(1 1) rotate(0) translate(4 176.5)">
<title>Lib::Canbus::ServiceBase::Diagnostic</title>
<!-- Node1 -->
<g id="Node000001" class="node">
<title>Node1</title>
<g id="a_Node000001"><a xlink:title=" ">
<polygon fill="#999999" stroke="none" points="113.75,-29 0,-29 0,0 113.75,0 113.75,-29"/>
<text xml:space="preserve" text-anchor="start" x="4" y="-16.45" font-family="Arial" font-size="9.00">Lib::Canbus::ServiceBase</text>
<text xml:space="preserve" text-anchor="start" x="32.88" y="-5.95" font-family="Arial" font-size="9.00">::Diagnostic</text>
<polygon fill="none" stroke="#666666" points="0,0 0,-29 113.75,-29 113.75,0 0,0"/>
</a>
</g>
</g>
<!-- Node2 -->
<g id="Node000002" class="node">
<title>Node2</title>
<g id="a_Node000002"><a xlink:title=" ">
<polygon fill="white" stroke="none" points="77.38,-172.5 36.38,-172.5 36.38,-154 77.38,-154 77.38,-172.5"/>
<text xml:space="preserve" text-anchor="start" x="40.38" y="-159.95" font-family="Arial" font-size="9.00">uint32_t</text>
<polygon fill="none" stroke="#bfbfbf" points="36.38,-154 36.38,-172.5 77.38,-172.5 77.38,-154 36.38,-154"/>
</a>
</g>
</g>
<!-- Node2&#45;&gt;Node1 -->
<g id="edge1_Node000001_Node000002" class="edge">
<title>Node2&#45;&gt;Node1</title>
<g id="a_edge1_Node000001_Node000002"><a xlink:title=" ">
<path fill="none" stroke="#63b8ff" d="M56.88,-154.36C56.88,-133.42 56.88,-75.71 56.88,-41.64"/>
<polygon fill="none" stroke="#63b8ff" points="56.88,-41.56 52.88,-35.56 56.88,-29.56 60.88,-35.56 56.88,-41.56"/>
</a>
</g>
<text xml:space="preserve" text-anchor="start" x="59.88" y="-124.45" font-family="Arial" font-size="9.00" fill="grey">+errorCode</text>
<text xml:space="preserve" text-anchor="start" x="59.88" y="-109.95" font-family="Arial" font-size="9.00" fill="grey">+errorCounter</text>
<text xml:space="preserve" text-anchor="start" x="59.88" y="-95.45" font-family="Arial" font-size="9.00" fill="grey">+receivedMessages</text>
<text xml:space="preserve" text-anchor="start" x="59.88" y="-80.95" font-family="Arial" font-size="9.00" fill="grey">+rxFifoFullCounter</text>
<text xml:space="preserve" text-anchor="start" x="59.88" y="-66.45" font-family="Arial" font-size="9.00" fill="grey">+sentMessages</text>
<text xml:space="preserve" text-anchor="start" x="59.88" y="-51.95" font-family="Arial" font-size="9.00" fill="grey">+txMailboxAbortCounter</text>
</g>
</g>
</svg>
