<?xml version="1.0" encoding="UTF-8" standalone="no"?>
<!DOCTYPE svg PUBLIC "-//W3C//DTD SVG 1.1//EN"
 "http://www.w3.org/Graphics/SVG/1.1/DTD/svg11.dtd">
<!-- Generated by graphviz version 13.1.0 (20250701.0955)
 -->
<!-- Title: BSP::OutputsBase Pages: 1 -->
<svg width="280pt" height="295pt"
 viewBox="0.00 0.00 280.00 295.00" xmlns="http://www.w3.org/2000/svg" xmlns:xlink="http://www.w3.org/1999/xlink">
<g id="graph0" class="graph" transform="scale(1 1) rotate(0) translate(4 290.5)">
<title>BSP::OutputsBase</title>
<!-- Node1 -->
<g id="Node000001" class="node">
<title>Node1</title>
<g id="a_Node000001"><a xlink:title="Abstract base class for digital output device management.">
<polygon fill="#999999" stroke="none" points="182.88,-286.5 88.38,-286.5 88.38,-166.5 182.88,-166.5 182.88,-286.5"/>
<text xml:space="preserve" text-anchor="start" x="98.12" y="-273.95" font-family="Arial" font-size="9.00">BSP::OutputsBase</text>
<text xml:space="preserve" text-anchor="start" x="134.5" y="-259.45" font-family="Arial" font-size="9.00"> </text>
<text xml:space="preserve" text-anchor="start" x="92.38" y="-244.95" font-family="Arial" font-size="9.00">+</text>
<text xml:space="preserve" text-anchor="start" x="101.62" y="-244.95" font-family="Arial" font-size="9.00">OutputsBase()</text>
<text xml:space="preserve" text-anchor="start" x="92.38" y="-230.45" font-family="Arial" font-size="9.00">+</text>
<text xml:space="preserve" text-anchor="start" x="101.62" y="-230.45" font-family="Arial" font-size="9.00">~OutputsBase()</text>
<text xml:space="preserve" text-anchor="start" x="92.38" y="-215.95" font-family="Arial" font-size="9.00">+</text>
<text xml:space="preserve" text-anchor="start" x="101.62" y="-215.95" font-family="Arial" font-size="9.00">init()</text>
<text xml:space="preserve" text-anchor="start" x="92.38" y="-201.45" font-family="Arial" font-size="9.00">+</text>
<text xml:space="preserve" text-anchor="start" x="101.62" y="-201.45" font-family="Arial" font-size="9.00">deinit()</text>
<text xml:space="preserve" text-anchor="start" x="92.38" y="-186.95" font-family="Arial" font-size="9.00">+</text>
<text xml:space="preserve" text-anchor="start" x="101.62" y="-186.95" font-family="Arial" font-size="9.00">getErrorState()</text>
<text xml:space="preserve" text-anchor="start" x="92.38" y="-172.45" font-family="Arial" font-size="9.00">+</text>
<text xml:space="preserve" text-anchor="start" x="101.62" y="-172.45" font-family="Arial" font-size="9.00">bindErrorHandler()</text>
<polygon fill="#666666" stroke="#666666" points="88.38,-270 88.38,-270 182.88,-270 182.88,-270 88.38,-270"/>
<polygon fill="#666666" stroke="#666666" points="88.38,-255.5 88.38,-255.5 182.88,-255.5 182.88,-255.5 88.38,-255.5"/>
<polygon fill="none" stroke="#666666" points="88.38,-166.5 88.38,-286.5 182.88,-286.5 182.88,-166.5 88.38,-166.5"/>
</a>
</g>
</g>
<!-- Node2 -->
<g id="Node000002" class="node">
<title>Node2</title>
<g id="a_Node000002"><a xlink:href="../../d5/df0/class_b_s_p_1_1_outputs_3_01_output_version_1_1_v1_01_4.html" target="_top" xlink:title="Outputs implementation for OutputVersion::V1.">
<polygon fill="white" stroke="none" points="127.25,-130.5 0,-130.5 0,0 127.25,0 127.25,-130.5"/>
<text xml:space="preserve" text-anchor="start" x="4" y="-117.95" font-family="Arial" font-size="9.00">BSP::Outputs&lt; OutputVersion</text>
<text xml:space="preserve" text-anchor="start" x="52" y="-107.45" font-family="Arial" font-size="9.00">::V1 &gt;</text>
<text xml:space="preserve" text-anchor="start" x="62.5" y="-92.95" font-family="Arial" font-size="9.00"> </text>
<text xml:space="preserve" text-anchor="start" x="12.19" y="-78.45" font-family="Arial" font-size="9.00">+</text>
<text xml:space="preserve" text-anchor="start" x="29.62" y="-78.45" font-family="Arial" font-size="9.00">Outputs()</text>
<text xml:space="preserve" text-anchor="start" x="12.19" y="-63.95" font-family="Arial" font-size="9.00">+</text>
<text xml:space="preserve" text-anchor="start" x="29.62" y="-63.95" font-family="Arial" font-size="9.00">~Outputs()</text>
<text xml:space="preserve" text-anchor="start" x="12.19" y="-49.45" font-family="Arial" font-size="9.00">+</text>
<text xml:space="preserve" text-anchor="start" x="29.62" y="-49.45" font-family="Arial" font-size="9.00">init()</text>
<text xml:space="preserve" text-anchor="start" x="12.19" y="-34.95" font-family="Arial" font-size="9.00">+</text>
<text xml:space="preserve" text-anchor="start" x="29.62" y="-34.95" font-family="Arial" font-size="9.00">deinit()</text>
<text xml:space="preserve" text-anchor="start" x="12.19" y="-20.45" font-family="Arial" font-size="9.00">+</text>
<text xml:space="preserve" text-anchor="start" x="29.62" y="-20.45" font-family="Arial" font-size="9.00">getErrorState()</text>
<text xml:space="preserve" text-anchor="start" x="12.19" y="-5.95" font-family="Arial" font-size="9.00">+</text>
<text xml:space="preserve" text-anchor="start" x="29.62" y="-5.95" font-family="Arial" font-size="9.00">bindErrorHandler()</text>
<polygon fill="#666666" stroke="#666666" points="0,-103.5 0,-103.5 127.25,-103.5 127.25,-103.5 0,-103.5"/>
<polygon fill="#666666" stroke="#666666" points="0,-89 0,-89 127.25,-89 127.25,-89 0,-89"/>
<polygon fill="none" stroke="#666666" points="0,0 0,-130.5 127.25,-130.5 127.25,0 0,0"/>
</a>
</g>
</g>
<!-- Node1&#45;&gt;Node2 -->
<g id="edge1_Node000001_Node000002" class="edge">
<title>Node1&#45;&gt;Node2</title>
<g id="a_edge1_Node000001_Node000002"><a xlink:title=" ">
<path fill="none" stroke="#63b8ff" d="M104.34,-156.3C100.46,-147.72 96.51,-138.98 92.66,-130.48"/>
<polygon fill="none" stroke="#63b8ff" points="101.09,-157.6 108.4,-165.27 107.47,-154.72 101.09,-157.6"/>
</a>
</g>
</g>
<!-- Node3 -->
<g id="Node000003" class="node">
<title>Node3</title>
<g id="a_Node000003"><a xlink:href="../../d5/daa/class_b_s_p_1_1_outputs_3_01_output_version_1_1_v2_01_4.html" target="_top" xlink:title="Outputs implementation for OutputVersion::V2 (DRV8908&#45;based).">
<polygon fill="white" stroke="none" points="272.25,-130.5 145,-130.5 145,0 272.25,0 272.25,-130.5"/>
<text xml:space="preserve" text-anchor="start" x="149" y="-117.95" font-family="Arial" font-size="9.00">BSP::Outputs&lt; OutputVersion</text>
<text xml:space="preserve" text-anchor="start" x="197" y="-107.45" font-family="Arial" font-size="9.00">::V2 &gt;</text>
<text xml:space="preserve" text-anchor="start" x="207.5" y="-92.95" font-family="Arial" font-size="9.00"> </text>
<text xml:space="preserve" text-anchor="start" x="157.19" y="-78.45" font-family="Arial" font-size="9.00">+</text>
<text xml:space="preserve" text-anchor="start" x="174.62" y="-78.45" font-family="Arial" font-size="9.00">Outputs()</text>
<text xml:space="preserve" text-anchor="start" x="157.19" y="-63.95" font-family="Arial" font-size="9.00">+</text>
<text xml:space="preserve" text-anchor="start" x="174.62" y="-63.95" font-family="Arial" font-size="9.00">~Outputs()</text>
<text xml:space="preserve" text-anchor="start" x="157.19" y="-49.45" font-family="Arial" font-size="9.00">+</text>
<text xml:space="preserve" text-anchor="start" x="174.62" y="-49.45" font-family="Arial" font-size="9.00">init()</text>
<text xml:space="preserve" text-anchor="start" x="157.19" y="-34.95" font-family="Arial" font-size="9.00">+</text>
<text xml:space="preserve" text-anchor="start" x="174.62" y="-34.95" font-family="Arial" font-size="9.00">deinit()</text>
<text xml:space="preserve" text-anchor="start" x="157.19" y="-20.45" font-family="Arial" font-size="9.00">+</text>
<text xml:space="preserve" text-anchor="start" x="174.62" y="-20.45" font-family="Arial" font-size="9.00">getErrorState()</text>
<text xml:space="preserve" text-anchor="start" x="157.19" y="-5.95" font-family="Arial" font-size="9.00">+</text>
<text xml:space="preserve" text-anchor="start" x="174.62" y="-5.95" font-family="Arial" font-size="9.00">bindErrorHandler()</text>
<polygon fill="#666666" stroke="#666666" points="145,-103.5 145,-103.5 272.25,-103.5 272.25,-103.5 145,-103.5"/>
<polygon fill="#666666" stroke="#666666" points="145,-89 145,-89 272.25,-89 272.25,-89 145,-89"/>
<polygon fill="none" stroke="#666666" points="145,0 145,-130.5 272.25,-130.5 272.25,0 145,0"/>
</a>
</g>
</g>
<!-- Node1&#45;&gt;Node3 -->
<g id="edge2_Node000001_Node000003" class="edge">
<title>Node1&#45;&gt;Node3</title>
<g id="a_edge2_Node000001_Node000003"><a xlink:title=" ">
<path fill="none" stroke="#63b8ff" d="M167.35,-156.3C171.28,-147.72 175.29,-138.98 179.18,-130.48"/>
<polygon fill="none" stroke="#63b8ff" points="164.22,-154.73 163.23,-165.28 170.58,-157.65 164.22,-154.73"/>
</a>
</g>
</g>
</g>
</svg>
