<?xml version="1.0" encoding="UTF-8" standalone="no"?>
<!DOCTYPE svg PUBLIC "-//W3C//DTD SVG 1.1//EN"
 "http://www.w3.org/Graphics/SVG/1.1/DTD/svg11.dtd">
<!-- Generated by graphviz version 12.2.1 (20241206.2353)
 -->
<!-- Title: ComDriver.hpp Pages: 1 -->
<svg width="1935pt" height="264pt"
 viewBox="0.00 0.00 1935.12 264.00" xmlns="http://www.w3.org/2000/svg" xmlns:xlink="http://www.w3.org/1999/xlink">
<g id="graph0" class="graph" transform="scale(1 1) rotate(0) translate(4 260)">
<title>ComDriver.hpp</title>
<!-- Node1 -->
<g id="Node000001" class="node">
<title>Node1</title>
<g id="a_Node000001"><a xlink:title="Defines the ComDriver class for handling communication with the XBee module.">
<polygon fill="#999999" stroke="#666666" points="580.12,-256 498.12,-256 498.12,-236 580.12,-236 580.12,-256"/>
<text text-anchor="middle" x="539.12" y="-242.5" font-family="Helvetica,sans-Serif" font-size="10.00">ComDriver.hpp</text>
</a>
</g>
</g>
<!-- Node2 -->
<g id="Node000002" class="node">
<title>Node2</title>
<g id="a_Node000002"><a xlink:href="../../d5/db1/a00140.html" target="_top" xlink:title="Abstract base class for communication ports.">
<polygon fill="white" stroke="#666666" points="96.25,-200 0,-200 0,-180 96.25,-180 96.25,-200"/>
<text text-anchor="middle" x="48.12" y="-186.5" font-family="Helvetica,sans-Serif" font-size="10.00">ComPortBase.hpp</text>
</a>
</g>
</g>
<!-- Node1&#45;&gt;Node2 -->
<g id="edge1_Node000001_Node000002" class="edge">
<title>Node1&#45;&gt;Node2</title>
<g id="a_edge1_Node000001_Node000002"><a xlink:title=" ">
<path fill="none" stroke="#63b8ff" d="M497.75,-241.45C422.35,-234.82 257.28,-219.57 107.8,-200.29"/>
<polygon fill="#63b8ff" stroke="#63b8ff" points="108.48,-196.85 98.11,-199.03 107.58,-203.79 108.48,-196.85"/>
</a>
</g>
</g>
<!-- Node3 -->
<g id="Node000003" class="node">
<title>Node3</title>
<g id="a_Node000003"><a xlink:href="../../d7/dce/a00143.html" target="_top" xlink:title="This file contains the definition of the Diagnostic class used for tracking various message statistic...">
<polygon fill="white" stroke="#666666" points="195.75,-200 114.5,-200 114.5,-180 195.75,-180 195.75,-200"/>
<text text-anchor="middle" x="155.12" y="-186.5" font-family="Helvetica,sans-Serif" font-size="10.00">Diagnostic.hpp</text>
</a>
</g>
</g>
<!-- Node1&#45;&gt;Node3 -->
<g id="edge2_Node000001_Node000003" class="edge">
<title>Node1&#45;&gt;Node3</title>
<g id="a_edge2_Node000001_Node000003"><a xlink:title=" ">
<path fill="none" stroke="#63b8ff" d="M497.78,-239.7C435.39,-231.62 313.46,-215.52 210.12,-200 209.12,-199.85 208.11,-199.7 207.08,-199.54"/>
<polygon fill="#63b8ff" stroke="#63b8ff" points="207.87,-196.12 197.45,-198.04 206.79,-203.04 207.87,-196.12"/>
</a>
</g>
</g>
<!-- Node4 -->
<g id="Node000004" class="node">
<title>Node4</title>
<g id="a_Node000004"><a xlink:href="../../d9/db6/a00146.html" target="_top" xlink:title="This file contains the definition of the DigiApiFrameBuffer class.">
<polygon fill="white" stroke="#666666" points="335.88,-88 216.38,-88 216.38,-68 335.88,-68 335.88,-88"/>
<text text-anchor="middle" x="276.12" y="-74.5" font-family="Helvetica,sans-Serif" font-size="10.00">DigiApiFrameBuffer.hpp</text>
</a>
</g>
</g>
<!-- Node1&#45;&gt;Node4 -->
<g id="edge3_Node000001_Node000004" class="edge">
<title>Node1&#45;&gt;Node4</title>
<g id="a_edge3_Node000001_Node000004"><a xlink:title=" ">
<path fill="none" stroke="#63b8ff" d="M497.86,-243.42C435.87,-238.55 320.39,-219.26 268.12,-144 259,-130.87 262.32,-112.55 267.16,-98.71"/>
<polygon fill="#63b8ff" stroke="#63b8ff" points="270.28,-100.33 270.78,-89.74 263.79,-97.71 270.28,-100.33"/>
</a>
</g>
</g>
<!-- Node8 -->
<g id="Node000008" class="node">
<title>Node8</title>
<g id="a_Node000008"><a xlink:href="../../d5/de9/a00176.html" target="_top" xlink:title="This file contains the definition of the Protocol class used for handling XBee communication.">
<polygon fill="white" stroke="#666666" points="574.5,-200 503.75,-200 503.75,-180 574.5,-180 574.5,-200"/>
<text text-anchor="middle" x="539.12" y="-186.5" font-family="Helvetica,sans-Serif" font-size="10.00">Protocol.hpp</text>
</a>
</g>
</g>
<!-- Node1&#45;&gt;Node8 -->
<g id="edge7_Node000001_Node000008" class="edge">
<title>Node1&#45;&gt;Node8</title>
<g id="a_edge7_Node000001_Node000008"><a xlink:title=" ">
<path fill="none" stroke="#63b8ff" d="M539.12,-235.59C539.12,-229.01 539.12,-219.96 539.12,-211.73"/>
<polygon fill="#63b8ff" stroke="#63b8ff" points="542.63,-211.81 539.13,-201.81 535.63,-211.81 542.63,-211.81"/>
</a>
</g>
</g>
<!-- Node27 -->
<g id="Node000027" class="node">
<title>Node27</title>
<g id="a_Node000027"><a xlink:title=" ">
<polygon fill="#e0e0e0" stroke="#999999" points="1927.12,-88 1869.12,-88 1869.12,-68 1927.12,-68 1927.12,-88"/>
<text text-anchor="middle" x="1898.12" y="-74.5" font-family="Helvetica,sans-Serif" font-size="10.00">functional</text>
</a>
</g>
</g>
<!-- Node1&#45;&gt;Node27 -->
<g id="edge54_Node000001_Node000027" class="edge">
<title>Node1&#45;&gt;Node27</title>
<g id="a_edge54_Node000001_Node000027"><a xlink:title=" ">
<path fill="none" stroke="#63b8ff" d="M580.31,-240.75C772.31,-220.83 1581.32,-135.79 1857.56,-88.27"/>
<polygon fill="#63b8ff" stroke="#63b8ff" points="1858,-91.74 1867.24,-86.57 1856.79,-84.85 1858,-91.74"/>
</a>
</g>
</g>
<!-- Node28 -->
<g id="Node000028" class="node">
<title>Node28</title>
<g id="a_Node000028"><a xlink:title=" ">
<polygon fill="#e0e0e0" stroke="#999999" points="1316,-200 1218.25,-200 1218.25,-180 1316,-180 1316,-200"/>
<text text-anchor="middle" x="1267.12" y="-186.5" font-family="Helvetica,sans-Serif" font-size="10.00">Lib/HAL/GPIO.hpp</text>
</a>
</g>
</g>
<!-- Node1&#45;&gt;Node28 -->
<g id="edge55_Node000001_Node000028" class="edge">
<title>Node1&#45;&gt;Node28</title>
<g id="a_edge55_Node000001_Node000028"><a xlink:title=" ">
<path fill="none" stroke="#63b8ff" d="M580.46,-243.27C685.08,-238.67 968.78,-224.74 1204.12,-200 1204.97,-199.91 1205.82,-199.82 1206.68,-199.73"/>
<polygon fill="#63b8ff" stroke="#63b8ff" points="1206.97,-203.22 1216.49,-198.56 1206.14,-196.26 1206.97,-203.22"/>
</a>
</g>
</g>
<!-- Node29 -->
<g id="Node000029" class="node">
<title>Node29</title>
<g id="a_Node000029"><a xlink:title=" ">
<polygon fill="#e0e0e0" stroke="#999999" points="1433.75,-200 1334.5,-200 1334.5,-180 1433.75,-180 1433.75,-200"/>
<text text-anchor="middle" x="1384.12" y="-186.5" font-family="Helvetica,sans-Serif" font-size="10.00">Lib/HAL/UART.hpp</text>
</a>
</g>
</g>
<!-- Node1&#45;&gt;Node29 -->
<g id="edge56_Node000001_Node000029" class="edge">
<title>Node1&#45;&gt;Node29</title>
<g id="a_edge56_Node000001_Node000029"><a xlink:title=" ">
<path fill="none" stroke="#63b8ff" d="M580.57,-244C696.25,-240.92 1032.66,-229.98 1323.09,-200.1"/>
<polygon fill="#63b8ff" stroke="#63b8ff" points="1323.18,-203.61 1332.77,-199.1 1322.46,-196.65 1323.18,-203.61"/>
</a>
</g>
</g>
<!-- Node5 -->
<g id="Node000005" class="node">
<title>Node5</title>
<g id="a_Node000005"><a xlink:title=" ">
<polygon fill="#e0e0e0" stroke="#999999" points="264,-26 226.25,-26 226.25,-6 264,-6 264,-26"/>
<text text-anchor="middle" x="245.12" y="-12.5" font-family="Helvetica,sans-Serif" font-size="10.00">array</text>
</a>
</g>
</g>
<!-- Node4&#45;&gt;Node5 -->
<g id="edge4_Node000004_Node000005" class="edge">
<title>Node4&#45;&gt;Node5</title>
<g id="a_edge4_Node000004_Node000005"><a xlink:title=" ">
<path fill="none" stroke="#63b8ff" d="M271.28,-67.62C266.93,-59.21 260.42,-46.6 254.98,-36.07"/>
<polygon fill="#63b8ff" stroke="#63b8ff" points="258.23,-34.74 250.53,-27.46 252.01,-37.95 258.23,-34.74"/>
</a>
</g>
</g>
<!-- Node6 -->
<g id="Node000006" class="node">
<title>Node6</title>
<g id="a_Node000006"><a xlink:title=" ">
<polygon fill="#e0e0e0" stroke="#999999" points="333.75,-26 282.5,-26 282.5,-6 333.75,-6 333.75,-26"/>
<text text-anchor="middle" x="308.12" y="-12.5" font-family="Helvetica,sans-Serif" font-size="10.00">memory</text>
</a>
</g>
</g>
<!-- Node4&#45;&gt;Node6 -->
<g id="edge5_Node000004_Node000006" class="edge">
<title>Node4&#45;&gt;Node6</title>
<g id="a_edge5_Node000004_Node000006"><a xlink:title=" ">
<path fill="none" stroke="#63b8ff" d="M281.12,-67.62C285.61,-59.21 292.34,-46.6 297.95,-36.07"/>
<polygon fill="#63b8ff" stroke="#63b8ff" points="300.93,-37.92 302.55,-27.45 294.76,-34.62 300.93,-37.92"/>
</a>
</g>
</g>
<!-- Node7 -->
<g id="Node000007" class="node">
<title>Node7</title>
<g id="a_Node000007"><a xlink:title=" ">
<polygon fill="#e0e0e0" stroke="#999999" points="880.62,-26 837.62,-26 837.62,-6 880.62,-6 880.62,-26"/>
<text text-anchor="middle" x="859.12" y="-12.5" font-family="Helvetica,sans-Serif" font-size="10.00">vector</text>
</a>
</g>
</g>
<!-- Node4&#45;&gt;Node7 -->
<g id="edge6_Node000004_Node000007" class="edge">
<title>Node4&#45;&gt;Node7</title>
<g id="a_edge6_Node000004_Node000007"><a xlink:title=" ">
<path fill="none" stroke="#63b8ff" d="M336.29,-69.68C341.31,-69.1 346.3,-68.53 351.12,-68 530.04,-48.29 744.77,-27.76 825.91,-20.11"/>
<polygon fill="#63b8ff" stroke="#63b8ff" points="826.19,-23.6 835.82,-19.18 825.53,-16.63 826.19,-23.6"/>
</a>
</g>
</g>
<!-- Node8&#45;&gt;Node4 -->
<g id="edge12_Node000008_Node000004" class="edge">
<title>Node8&#45;&gt;Node4</title>
<g id="a_edge12_Node000008_Node000004"><a xlink:title=" ">
<path fill="none" stroke="#63b8ff" d="M503.32,-187.99C439.57,-185.37 310.32,-176.14 281.12,-144 270.41,-132.21 269.97,-113.73 271.74,-99.49"/>
<polygon fill="#63b8ff" stroke="#63b8ff" points="275.16,-100.27 273.41,-89.82 268.26,-99.08 275.16,-100.27"/>
</a>
</g>
</g>
<!-- Node8&#45;&gt;Node7 -->
<g id="edge53_Node000008_Node000007" class="edge">
<title>Node8&#45;&gt;Node7</title>
<g id="a_edge53_Node000008_Node000007"><a xlink:title=" ">
<path fill="none" stroke="#63b8ff" d="M574.88,-180.34C593.88,-173.73 615.63,-162.51 627.12,-144 644.94,-115.3 606.8,-94.2 628.12,-68 652.76,-37.75 768.05,-24.31 825.88,-19.39"/>
<polygon fill="#63b8ff" stroke="#63b8ff" points="826.1,-22.88 835.78,-18.59 825.53,-15.91 826.1,-22.88"/>
</a>
</g>
</g>
<!-- Node9 -->
<g id="Node000009" class="node">
<title>Node9</title>
<g id="a_Node000009"><a xlink:href="../../d1/d88/a00128.html" target="_top" xlink:title="Defines the ApiMode enumeration for Xbee communication modes.">
<polygon fill="white" stroke="#666666" points="1161.75,-144 1086.5,-144 1086.5,-124 1161.75,-124 1161.75,-144"/>
<text text-anchor="middle" x="1124.12" y="-130.5" font-family="Helvetica,sans-Serif" font-size="10.00">APIMode.hpp</text>
</a>
</g>
</g>
<!-- Node8&#45;&gt;Node9 -->
<g id="edge8_Node000008_Node000009" class="edge">
<title>Node8&#45;&gt;Node9</title>
<g id="a_edge8_Node000008_Node000009"><a xlink:title=" ">
<path fill="none" stroke="#63b8ff" d="M574.84,-187.32C659.69,-183.05 880.24,-170.32 1074.91,-144.15"/>
<polygon fill="#63b8ff" stroke="#63b8ff" points="1075.28,-147.64 1084.72,-142.82 1074.34,-140.7 1075.28,-147.64"/>
</a>
</g>
</g>
<!-- Node10 -->
<g id="Node000010" class="node">
<title>Node10</title>
<g id="a_Node000010"><a xlink:href="../../de/d76/a00134.html" target="_top" xlink:title="Defines the Checksum class for calculating checksums for DigiApiFrameBuffer and raw data arrays.">
<polygon fill="white" stroke="#666666" points="372.12,-144 290.12,-144 290.12,-124 372.12,-124 372.12,-144"/>
<text text-anchor="middle" x="331.12" y="-130.5" font-family="Helvetica,sans-Serif" font-size="10.00">Checksum.hpp</text>
</a>
</g>
</g>
<!-- Node8&#45;&gt;Node10 -->
<g id="edge9_Node000008_Node000010" class="edge">
<title>Node8&#45;&gt;Node10</title>
<g id="a_edge9_Node000008_Node000010"><a xlink:title=" ">
<path fill="none" stroke="#63b8ff" d="M503.37,-179.72C468.8,-170.74 416.22,-157.09 378.25,-147.23"/>
<polygon fill="#63b8ff" stroke="#63b8ff" points="379.48,-143.94 368.93,-144.81 377.73,-150.71 379.48,-143.94"/>
</a>
</g>
</g>
<!-- Node11 -->
<g id="Node000011" class="node">
<title>Node11</title>
<g id="a_Node000011"><a xlink:href="../../d3/df8/a00155.html" target="_top" xlink:title="Defines the Header structure for Xbee frames.">
<polygon fill="white" stroke="#666666" points="457.62,-88 360.62,-88 360.62,-68 457.62,-68 457.62,-88"/>
<text text-anchor="middle" x="409.12" y="-74.5" font-family="Helvetica,sans-Serif" font-size="10.00">Frame/Header.hpp</text>
</a>
</g>
</g>
<!-- Node8&#45;&gt;Node11 -->
<g id="edge18_Node000008_Node000011" class="edge">
<title>Node8&#45;&gt;Node11</title>
<g id="a_edge18_Node000008_Node000011"><a xlink:title=" ">
<path fill="none" stroke="#63b8ff" d="M532.99,-179.75C523.75,-166.31 505.22,-141.13 485.12,-124 471.23,-112.15 453.81,-101.59 439.16,-93.68"/>
<polygon fill="#63b8ff" stroke="#63b8ff" points="440.9,-90.64 430.41,-89.11 437.66,-96.84 440.9,-90.64"/>
</a>
</g>
</g>
<!-- Node12 -->
<g id="Node000012" class="node">
<title>Node12</title>
<g id="a_Node000012"><a xlink:href="../../d7/d9a/a00152.html" target="_top" xlink:title="This file contains the definition of the Data class used in the Lib::Digi::Core::Frame namespace.">
<polygon fill="white" stroke="#666666" points="618.38,-144 531.88,-144 531.88,-124 618.38,-124 618.38,-144"/>
<text text-anchor="middle" x="575.12" y="-130.5" font-family="Helvetica,sans-Serif" font-size="10.00">Frame/Data.hpp</text>
</a>
</g>
</g>
<!-- Node8&#45;&gt;Node12 -->
<g id="edge13_Node000008_Node000012" class="edge">
<title>Node8&#45;&gt;Node12</title>
<g id="a_edge13_Node000008_Node000012"><a xlink:title=" ">
<path fill="none" stroke="#63b8ff" d="M545.4,-179.59C550.14,-172.47 556.82,-162.45 562.65,-153.72"/>
<polygon fill="#63b8ff" stroke="#63b8ff" points="565.45,-155.82 568.09,-145.56 559.63,-151.94 565.45,-155.82"/>
</a>
</g>
</g>
<!-- Node15 -->
<g id="Node000015" class="node">
<title>Node15</title>
<g id="a_Node000015"><a xlink:href="../../d6/d7d/a00161.html" target="_top" xlink:title="DIGI API Frame Type.">
<polygon fill="white" stroke="#666666" points="476.38,-144 389.88,-144 389.88,-124 476.38,-124 476.38,-144"/>
<text text-anchor="middle" x="433.12" y="-130.5" font-family="Helvetica,sans-Serif" font-size="10.00">Frame/Type.hpp</text>
</a>
</g>
</g>
<!-- Node8&#45;&gt;Node15 -->
<g id="edge19_Node000008_Node000015" class="edge">
<title>Node8&#45;&gt;Node15</title>
<g id="a_edge19_Node000008_Node000015"><a xlink:title=" ">
<path fill="none" stroke="#63b8ff" d="M520.66,-179.59C504.42,-171.32 480.52,-159.14 461.79,-149.6"/>
<polygon fill="#63b8ff" stroke="#63b8ff" points="463.58,-146.59 453.08,-145.17 460.4,-152.82 463.58,-146.59"/>
</a>
</g>
</g>
<!-- Node16 -->
<g id="Node000016" class="node">
<title>Node16</title>
<g id="a_Node000016"><a xlink:href="../../de/d79/a00203.html" target="_top" xlink:title="Defines the ResponseEvents class for handling various XBee response events.">
<polygon fill="white" stroke="#666666" points="1068,-144 958.25,-144 958.25,-124 1068,-124 1068,-144"/>
<text text-anchor="middle" x="1013.12" y="-130.5" font-family="Helvetica,sans-Serif" font-size="10.00">ResponseEvents.hpp</text>
</a>
</g>
</g>
<!-- Node8&#45;&gt;Node16 -->
<g id="edge20_Node000008_Node000016" class="edge">
<title>Node8&#45;&gt;Node16</title>
<g id="a_edge20_Node000008_Node000016"><a xlink:title=" ">
<path fill="none" stroke="#63b8ff" d="M574.75,-184.94C653.74,-175.94 844.6,-154.2 946.46,-142.59"/>
<polygon fill="#63b8ff" stroke="#63b8ff" points="946.78,-146.08 956.32,-141.47 945.99,-139.13 946.78,-146.08"/>
</a>
</g>
</g>
<!-- Node10&#45;&gt;Node4 -->
<g id="edge10_Node000010_Node000004" class="edge">
<title>Node10&#45;&gt;Node4</title>
<g id="a_edge10_Node000010_Node000004"><a xlink:title=" ">
<path fill="none" stroke="#63b8ff" d="M321.54,-123.59C313.89,-116.08 302.97,-105.35 293.75,-96.3"/>
<polygon fill="#63b8ff" stroke="#63b8ff" points="296.26,-93.87 286.68,-89.36 291.36,-98.86 296.26,-93.87"/>
</a>
</g>
</g>
<!-- Node10&#45;&gt;Node11 -->
<g id="edge11_Node000010_Node000011" class="edge">
<title>Node10&#45;&gt;Node11</title>
<g id="a_edge11_Node000010_Node000011"><a xlink:title=" ">
<path fill="none" stroke="#63b8ff" d="M344.71,-123.59C356.16,-115.67 372.79,-104.16 386.28,-94.82"/>
<polygon fill="#63b8ff" stroke="#63b8ff" points="387.96,-97.91 394.19,-89.34 383.97,-92.16 387.96,-97.91"/>
</a>
</g>
</g>
<!-- Node12&#45;&gt;Node7 -->
<g id="edge17_Node000012_Node000007" class="edge">
<title>Node12&#45;&gt;Node7</title>
<g id="a_edge17_Node000012_Node000007"><a xlink:title=" ">
<path fill="none" stroke="#63b8ff" d="M575.14,-123.91C575.7,-109.74 578.96,-82.51 595.12,-68 628.82,-37.75 763.05,-24.06 826.1,-19.2"/>
<polygon fill="#63b8ff" stroke="#63b8ff" points="826.13,-22.71 835.84,-18.48 825.61,-15.73 826.13,-22.71"/>
</a>
</g>
</g>
<!-- Node13 -->
<g id="Node000013" class="node">
<title>Node13</title>
<g id="a_Node000013"><a xlink:href="../../d6/db8/a00158.html" target="_top" xlink:title="Helper functions for byte swapping, conversion, and vector manipulation.">
<polygon fill="white" stroke="#666666" points="542.75,-88 479.5,-88 479.5,-68 542.75,-68 542.75,-88"/>
<text text-anchor="middle" x="511.12" y="-74.5" font-family="Helvetica,sans-Serif" font-size="10.00">Helper.hpp</text>
</a>
</g>
</g>
<!-- Node12&#45;&gt;Node13 -->
<g id="edge14_Node000012_Node000013" class="edge">
<title>Node12&#45;&gt;Node13</title>
<g id="a_edge14_Node000012_Node000013"><a xlink:title=" ">
<path fill="none" stroke="#63b8ff" d="M563.98,-123.59C554.8,-115.85 541.57,-104.69 530.64,-95.47"/>
<polygon fill="#63b8ff" stroke="#63b8ff" points="533.2,-93.05 523.3,-89.27 528.69,-98.4 533.2,-93.05"/>
</a>
</g>
</g>
<!-- Node13&#45;&gt;Node7 -->
<g id="edge16_Node000013_Node000007" class="edge">
<title>Node13&#45;&gt;Node7</title>
<g id="a_edge16_Node000013_Node000007"><a xlink:title=" ">
<path fill="none" stroke="#63b8ff" d="M542.78,-70.7C547.58,-69.77 552.48,-68.85 557.12,-68 654.84,-50.19 770.74,-31.22 826.27,-22.26"/>
<polygon fill="#63b8ff" stroke="#63b8ff" points="826.67,-25.74 835.99,-20.7 825.56,-18.83 826.67,-25.74"/>
</a>
</g>
</g>
<!-- Node14 -->
<g id="Node000014" class="node">
<title>Node14</title>
<g id="a_Node000014"><a xlink:title=" ">
<polygon fill="#e0e0e0" stroke="#999999" points="569.38,-26 452.88,-26 452.88,-6 569.38,-6 569.38,-26"/>
<text text-anchor="middle" x="511.12" y="-12.5" font-family="Helvetica,sans-Serif" font-size="10.00">Helper/SwapBytes.hpp</text>
</a>
</g>
</g>
<!-- Node13&#45;&gt;Node14 -->
<g id="edge15_Node000013_Node000014" class="edge">
<title>Node13&#45;&gt;Node14</title>
<g id="a_edge15_Node000013_Node000014"><a xlink:title=" ">
<path fill="none" stroke="#63b8ff" d="M511.12,-67.62C511.12,-59.56 511.12,-47.65 511.12,-37.41"/>
<polygon fill="#63b8ff" stroke="#63b8ff" points="514.63,-37.63 511.13,-27.63 507.63,-37.63 514.63,-37.63"/>
</a>
</g>
</g>
<!-- Node17 -->
<g id="Node000017" class="node">
<title>Node17</title>
<g id="a_Node000017"><a xlink:href="../../d5/df1/a00206.html" target="_top" xlink:title="Defines the Frame0x80 class for handling 64&#45;bit Receive Packet frames (ID 0x80) from XBee devices.">
<polygon fill="white" stroke="#666666" points="1697.12,-88 1561.12,-88 1561.12,-68 1697.12,-68 1697.12,-88"/>
<text text-anchor="middle" x="1629.12" y="-74.5" font-family="Helvetica,sans-Serif" font-size="10.00">Responses/Frame0x80.hpp</text>
</a>
</g>
</g>
<!-- Node16&#45;&gt;Node17 -->
<g id="edge21_Node000016_Node000017" class="edge">
<title>Node16&#45;&gt;Node17</title>
<g id="a_edge21_Node000016_Node000017"><a xlink:title=" ">
<path fill="none" stroke="#63b8ff" d="M1068.26,-125.02C1071.25,-124.66 1074.22,-124.31 1077.12,-124 1283.92,-101.65 1339.44,-108.06 1549.29,-88.23"/>
<polygon fill="#63b8ff" stroke="#63b8ff" points="1549.58,-91.72 1559.2,-87.29 1548.91,-84.75 1549.58,-91.72"/>
</a>
</g>
</g>
<!-- Node20 -->
<g id="Node000020" class="node">
<title>Node20</title>
<g id="a_Node000020"><a xlink:href="../../d3/de5/a00209.html" target="_top" xlink:title="Defines the Frame0x81 class for handling specific frame data in the Xbee communication protocol.">
<polygon fill="white" stroke="#666666" points="773.12,-88 637.12,-88 637.12,-68 773.12,-68 773.12,-88"/>
<text text-anchor="middle" x="705.12" y="-74.5" font-family="Helvetica,sans-Serif" font-size="10.00">Responses/Frame0x81.hpp</text>
</a>
</g>
</g>
<!-- Node16&#45;&gt;Node20 -->
<g id="edge25_Node000016_Node000020" class="edge">
<title>Node16&#45;&gt;Node20</title>
<g id="a_edge25_Node000016_Node000020"><a xlink:title=" ">
<path fill="none" stroke="#63b8ff" d="M959.12,-123.53C906.5,-114.31 826.45,-100.27 770.31,-90.43"/>
<polygon fill="#63b8ff" stroke="#63b8ff" points="771.01,-87 760.56,-88.72 769.8,-93.89 771.01,-87"/>
</a>
</g>
</g>
<!-- Node21 -->
<g id="Node000021" class="node">
<title>Node21</title>
<g id="a_Node000021"><a xlink:href="../../dd/dc1/a00212.html" target="_top" xlink:title="Defines the Frame0x88 class for handling Frame&#45;0x88 responses from the device.">
<polygon fill="white" stroke="#666666" points="927.12,-88 791.12,-88 791.12,-68 927.12,-68 927.12,-88"/>
<text text-anchor="middle" x="859.12" y="-74.5" font-family="Helvetica,sans-Serif" font-size="10.00">Responses/Frame0x88.hpp</text>
</a>
</g>
</g>
<!-- Node16&#45;&gt;Node21 -->
<g id="edge29_Node000016_Node000021" class="edge">
<title>Node16&#45;&gt;Node21</title>
<g id="a_edge29_Node000016_Node000021"><a xlink:title=" ">
<path fill="none" stroke="#63b8ff" d="M986.3,-123.59C961.5,-114.9 924.4,-101.89 896.66,-92.16"/>
<polygon fill="#63b8ff" stroke="#63b8ff" points="898.18,-88.99 887.59,-88.98 895.87,-95.59 898.18,-88.99"/>
</a>
</g>
</g>
<!-- Node22 -->
<g id="Node000022" class="node">
<title>Node22</title>
<g id="a_Node000022"><a xlink:href="../../d3/dd5/a00215.html" target="_top" xlink:title="Header file for the Frame0x89 class.">
<polygon fill="white" stroke="#666666" points="1081.12,-88 945.12,-88 945.12,-68 1081.12,-68 1081.12,-88"/>
<text text-anchor="middle" x="1013.12" y="-74.5" font-family="Helvetica,sans-Serif" font-size="10.00">Responses/Frame0x89.hpp</text>
</a>
</g>
</g>
<!-- Node16&#45;&gt;Node22 -->
<g id="edge33_Node000016_Node000022" class="edge">
<title>Node16&#45;&gt;Node22</title>
<g id="a_edge33_Node000016_Node000022"><a xlink:title=" ">
<path fill="none" stroke="#63b8ff" d="M1013.12,-123.59C1013.12,-117.01 1013.12,-107.96 1013.12,-99.73"/>
<polygon fill="#63b8ff" stroke="#63b8ff" points="1016.63,-99.81 1013.13,-89.81 1009.63,-99.81 1016.63,-99.81"/>
</a>
</g>
</g>
<!-- Node23 -->
<g id="Node000023" class="node">
<title>Node23</title>
<g id="a_Node000023"><a xlink:href="../../dc/d9a/a00218.html" target="_top" xlink:title="Defines the Frame0x8a class which represents a specific type of frame response from the XBee module.">
<polygon fill="white" stroke="#666666" points="1851.12,-88 1715.12,-88 1715.12,-68 1851.12,-68 1851.12,-88"/>
<text text-anchor="middle" x="1783.12" y="-74.5" font-family="Helvetica,sans-Serif" font-size="10.00">Responses/Frame0x8a.hpp</text>
</a>
</g>
</g>
<!-- Node16&#45;&gt;Node23 -->
<g id="edge37_Node000016_Node000023" class="edge">
<title>Node16&#45;&gt;Node23</title>
<g id="a_edge37_Node000016_Node000023"><a xlink:title=" ">
<path fill="none" stroke="#63b8ff" d="M1068.25,-124.95C1071.25,-124.61 1074.22,-124.29 1077.12,-124 1352.11,-96.84 1425.25,-111.86 1703.45,-88.18"/>
<polygon fill="#63b8ff" stroke="#63b8ff" points="1703.54,-91.68 1713.2,-87.34 1702.94,-84.71 1703.54,-91.68"/>
</a>
</g>
</g>
<!-- Node24 -->
<g id="Node000024" class="node">
<title>Node24</title>
<g id="a_Node000024"><a xlink:href="../../dd/d52/a00221.html" target="_top" xlink:title="Defines the Frame0x8b class for handling the Extended Transmit Status frame (0x8B) in the XBee librar...">
<polygon fill="white" stroke="#666666" points="1235.12,-88 1099.12,-88 1099.12,-68 1235.12,-68 1235.12,-88"/>
<text text-anchor="middle" x="1167.12" y="-74.5" font-family="Helvetica,sans-Serif" font-size="10.00">Responses/Frame0x8b.hpp</text>
</a>
</g>
</g>
<!-- Node16&#45;&gt;Node24 -->
<g id="edge40_Node000016_Node000024" class="edge">
<title>Node16&#45;&gt;Node24</title>
<g id="a_edge40_Node000016_Node000024"><a xlink:title=" ">
<path fill="none" stroke="#63b8ff" d="M1039.95,-123.59C1064.75,-114.9 1101.85,-101.89 1129.59,-92.16"/>
<polygon fill="#63b8ff" stroke="#63b8ff" points="1130.38,-95.59 1138.66,-88.98 1128.07,-88.99 1130.38,-95.59"/>
</a>
</g>
</g>
<!-- Node25 -->
<g id="Node000025" class="node">
<title>Node25</title>
<g id="a_Node000025"><a xlink:href="../../d5/ddf/a00224.html" target="_top" xlink:title="Frame 0x90: 64&#45;bit Receive Packet.">
<polygon fill="white" stroke="#666666" points="1389.12,-88 1253.12,-88 1253.12,-68 1389.12,-68 1389.12,-88"/>
<text text-anchor="middle" x="1321.12" y="-74.5" font-family="Helvetica,sans-Serif" font-size="10.00">Responses/Frame0x90.hpp</text>
</a>
</g>
</g>
<!-- Node16&#45;&gt;Node25 -->
<g id="edge44_Node000016_Node000025" class="edge">
<title>Node16&#45;&gt;Node25</title>
<g id="a_edge44_Node000016_Node000025"><a xlink:title=" ">
<path fill="none" stroke="#63b8ff" d="M1067.13,-123.53C1119.75,-114.31 1199.8,-100.27 1255.94,-90.43"/>
<polygon fill="#63b8ff" stroke="#63b8ff" points="1256.45,-93.89 1265.69,-88.72 1255.24,-87 1256.45,-93.89"/>
</a>
</g>
</g>
<!-- Node26 -->
<g id="Node000026" class="node">
<title>Node26</title>
<g id="a_Node000026"><a xlink:href="../../d9/d01/a00227.html" target="_top" xlink:title="Defines the Frame0x97 class for handling XBee response frames with ID 0x97.">
<polygon fill="white" stroke="#666666" points="1543.12,-88 1407.12,-88 1407.12,-68 1543.12,-68 1543.12,-88"/>
<text text-anchor="middle" x="1475.12" y="-74.5" font-family="Helvetica,sans-Serif" font-size="10.00">Responses/Frame0x97.hpp</text>
</a>
</g>
</g>
<!-- Node16&#45;&gt;Node26 -->
<g id="edge48_Node000016_Node000026" class="edge">
<title>Node16&#45;&gt;Node26</title>
<g id="a_edge48_Node000016_Node000026"><a xlink:title=" ">
<path fill="none" stroke="#63b8ff" d="M1068.27,-125.15C1071.26,-124.75 1074.23,-124.37 1077.12,-124 1215.94,-106.46 1253.6,-104.43 1395.4,-88.3"/>
<polygon fill="#63b8ff" stroke="#63b8ff" points="1395.65,-91.8 1405.19,-87.19 1394.86,-84.84 1395.65,-91.8"/>
</a>
</g>
</g>
<!-- Node16&#45;&gt;Node27 -->
<g id="edge52_Node000016_Node000027" class="edge">
<title>Node16&#45;&gt;Node27</title>
<g id="a_edge52_Node000016_Node000027"><a xlink:title=" ">
<path fill="none" stroke="#63b8ff" d="M1068.24,-124.91C1071.25,-124.58 1074.22,-124.27 1077.12,-124 1420.27,-92.06 1513.14,-135.4 1857.46,-88.1"/>
<polygon fill="#63b8ff" stroke="#63b8ff" points="1857.85,-91.58 1867.27,-86.73 1856.88,-84.64 1857.85,-91.58"/>
</a>
</g>
</g>
<!-- Node17&#45;&gt;Node7 -->
<g id="edge24_Node000017_Node000007" class="edge">
<title>Node17&#45;&gt;Node7</title>
<g id="a_edge24_Node000017_Node000007"><a xlink:title=" ">
<path fill="none" stroke="#63b8ff" d="M1560.71,-68.85C1557.81,-68.55 1554.94,-68.27 1552.12,-68 1298.78,-43.88 992.4,-24.88 892.42,-18.94"/>
<polygon fill="#63b8ff" stroke="#63b8ff" points="892.7,-15.45 882.51,-18.36 892.29,-22.44 892.7,-15.45"/>
</a>
</g>
</g>
<!-- Node18 -->
<g id="Node000018" class="node">
<title>Node18</title>
<g id="a_Node000018"><a xlink:title=" ">
<polygon fill="#e0e0e0" stroke="#999999" points="1227,-32 1123.25,-32 1123.25,0 1227,0 1227,-32"/>
<text text-anchor="start" x="1131.25" y="-18.5" font-family="Helvetica,sans-Serif" font-size="10.00">Lib/Digi/Core/Frame</text>
<text text-anchor="middle" x="1175.12" y="-6.5" font-family="Helvetica,sans-Serif" font-size="10.00">/Data.hpp</text>
</a>
</g>
</g>
<!-- Node17&#45;&gt;Node18 -->
<g id="edge22_Node000017_Node000018" class="edge">
<title>Node17&#45;&gt;Node18</title>
<g id="a_edge22_Node000017_Node000018"><a xlink:title=" ">
<path fill="none" stroke="#63b8ff" d="M1560.84,-68.98C1456.33,-56.69 1267.14,-34.36 1252.12,-32 1247.58,-31.29 1242.9,-30.5 1238.2,-29.68"/>
<polygon fill="#63b8ff" stroke="#63b8ff" points="1239.18,-26.3 1228.71,-27.96 1237.93,-33.18 1239.18,-26.3"/>
</a>
</g>
</g>
<!-- Node19 -->
<g id="Node000019" class="node">
<title>Node19</title>
<g id="a_Node000019"><a xlink:title=" ">
<polygon fill="#e0e0e0" stroke="#999999" points="1365,-32 1261.25,-32 1261.25,0 1365,0 1365,-32"/>
<text text-anchor="start" x="1269.25" y="-18.5" font-family="Helvetica,sans-Serif" font-size="10.00">Lib/Digi/Core/Frame</text>
<text text-anchor="middle" x="1313.12" y="-6.5" font-family="Helvetica,sans-Serif" font-size="10.00">/Helper.hpp</text>
</a>
</g>
</g>
<!-- Node17&#45;&gt;Node19 -->
<g id="edge23_Node000017_Node000019" class="edge">
<title>Node17&#45;&gt;Node19</title>
<g id="a_edge23_Node000017_Node000019"><a xlink:title=" ">
<path fill="none" stroke="#63b8ff" d="M1579.4,-67.56C1524.62,-57.16 1436.38,-40.4 1376.63,-29.06"/>
<polygon fill="#63b8ff" stroke="#63b8ff" points="1377.41,-25.64 1366.94,-27.22 1376.11,-32.52 1377.41,-25.64"/>
</a>
</g>
</g>
<!-- Node20&#45;&gt;Node7 -->
<g id="edge28_Node000020_Node000007" class="edge">
<title>Node20&#45;&gt;Node7</title>
<g id="a_edge28_Node000020_Node000007"><a xlink:title=" ">
<path fill="none" stroke="#63b8ff" d="M729.19,-67.62C755.44,-57.4 797.61,-40.97 826.75,-29.61"/>
<polygon fill="#63b8ff" stroke="#63b8ff" points="827.77,-32.97 835.81,-26.08 825.23,-26.45 827.77,-32.97"/>
</a>
</g>
</g>
<!-- Node20&#45;&gt;Node18 -->
<g id="edge26_Node000020_Node000018" class="edge">
<title>Node20&#45;&gt;Node18</title>
<g id="a_edge26_Node000020_Node000018"><a xlink:title=" ">
<path fill="none" stroke="#63b8ff" d="M773.47,-68.28C864.32,-56.68 1023.65,-36.34 1111.86,-25.08"/>
<polygon fill="#63b8ff" stroke="#63b8ff" points="1112.06,-28.58 1121.54,-23.84 1111.18,-21.64 1112.06,-28.58"/>
</a>
</g>
</g>
<!-- Node20&#45;&gt;Node19 -->
<g id="edge27_Node000020_Node000019" class="edge">
<title>Node20&#45;&gt;Node19</title>
<g id="a_edge27_Node000020_Node000019"><a xlink:title=" ">
<path fill="none" stroke="#63b8ff" d="M773.54,-68.87C776.44,-68.57 779.31,-68.28 782.12,-68 983.57,-48.25 1035.58,-59.4 1236.12,-32 1240.68,-31.38 1245.37,-30.66 1250.08,-29.88"/>
<polygon fill="#63b8ff" stroke="#63b8ff" points="1250.33,-33.39 1259.58,-28.23 1249.13,-26.49 1250.33,-33.39"/>
</a>
</g>
</g>
<!-- Node21&#45;&gt;Node7 -->
<g id="edge32_Node000021_Node000007" class="edge">
<title>Node21&#45;&gt;Node7</title>
<g id="a_edge32_Node000021_Node000007"><a xlink:title=" ">
<path fill="none" stroke="#63b8ff" d="M859.12,-67.62C859.12,-59.56 859.12,-47.65 859.12,-37.41"/>
<polygon fill="#63b8ff" stroke="#63b8ff" points="862.63,-37.63 859.13,-27.63 855.63,-37.63 862.63,-37.63"/>
</a>
</g>
</g>
<!-- Node21&#45;&gt;Node18 -->
<g id="edge30_Node000021_Node000018" class="edge">
<title>Node21&#45;&gt;Node18</title>
<g id="a_edge30_Node000021_Node000018"><a xlink:title=" ">
<path fill="none" stroke="#63b8ff" d="M908.85,-67.56C963.63,-57.16 1051.87,-40.4 1111.62,-29.06"/>
<polygon fill="#63b8ff" stroke="#63b8ff" points="1112.14,-32.52 1121.31,-27.22 1110.84,-25.64 1112.14,-32.52"/>
</a>
</g>
</g>
<!-- Node21&#45;&gt;Node19 -->
<g id="edge31_Node000021_Node000019" class="edge">
<title>Node21&#45;&gt;Node19</title>
<g id="a_edge31_Node000021_Node000019"><a xlink:title=" ">
<path fill="none" stroke="#63b8ff" d="M927.41,-68.98C1031.92,-56.69 1221.11,-34.36 1236.12,-32 1240.67,-31.29 1245.35,-30.5 1250.05,-29.68"/>
<polygon fill="#63b8ff" stroke="#63b8ff" points="1250.32,-33.18 1259.54,-27.96 1249.07,-26.3 1250.32,-33.18"/>
</a>
</g>
</g>
<!-- Node22&#45;&gt;Node7 -->
<g id="edge36_Node000022_Node000007" class="edge">
<title>Node22&#45;&gt;Node7</title>
<g id="a_edge36_Node000022_Node000007"><a xlink:title=" ">
<path fill="none" stroke="#63b8ff" d="M989.06,-67.62C962.81,-57.4 920.64,-40.97 891.5,-29.61"/>
<polygon fill="#63b8ff" stroke="#63b8ff" points="893.02,-26.45 882.44,-26.08 890.48,-32.97 893.02,-26.45"/>
</a>
</g>
</g>
<!-- Node22&#45;&gt;Node18 -->
<g id="edge34_Node000022_Node000018" class="edge">
<title>Node22&#45;&gt;Node18</title>
<g id="a_edge34_Node000022_Node000018"><a xlink:title=" ">
<path fill="none" stroke="#63b8ff" d="M1038.44,-67.62C1060.93,-59.3 1094.52,-46.86 1122.77,-36.39"/>
<polygon fill="#63b8ff" stroke="#63b8ff" points="1123.72,-39.77 1131.88,-33.02 1121.29,-33.21 1123.72,-39.77"/>
</a>
</g>
</g>
<!-- Node22&#45;&gt;Node19 -->
<g id="edge35_Node000022_Node000019" class="edge">
<title>Node22&#45;&gt;Node19</title>
<g id="a_edge35_Node000022_Node000019"><a xlink:title=" ">
<path fill="none" stroke="#63b8ff" d="M1060.33,-67.56C1111.46,-57.33 1193.28,-40.97 1249.93,-29.64"/>
<polygon fill="#63b8ff" stroke="#63b8ff" points="1250.3,-33.13 1259.42,-27.74 1248.93,-26.27 1250.3,-33.13"/>
</a>
</g>
</g>
<!-- Node23&#45;&gt;Node18 -->
<g id="edge38_Node000023_Node000018" class="edge">
<title>Node23&#45;&gt;Node18</title>
<g id="a_edge38_Node000023_Node000018"><a xlink:title=" ">
<path fill="none" stroke="#63b8ff" d="M1714.71,-68.87C1711.81,-68.57 1708.94,-68.28 1706.12,-68 1504.68,-48.25 1452.67,-59.4 1252.12,-32 1247.57,-31.38 1242.88,-30.66 1238.17,-29.88"/>
<polygon fill="#63b8ff" stroke="#63b8ff" points="1239.12,-26.49 1228.67,-28.23 1237.92,-33.39 1239.12,-26.49"/>
</a>
</g>
</g>
<!-- Node23&#45;&gt;Node19 -->
<g id="edge39_Node000023_Node000019" class="edge">
<title>Node23&#45;&gt;Node19</title>
<g id="a_edge39_Node000023_Node000019"><a xlink:title=" ">
<path fill="none" stroke="#63b8ff" d="M1714.78,-68.28C1623.93,-56.68 1464.6,-36.34 1376.39,-25.08"/>
<polygon fill="#63b8ff" stroke="#63b8ff" points="1377.07,-21.64 1366.71,-23.84 1376.19,-28.58 1377.07,-21.64"/>
</a>
</g>
</g>
<!-- Node24&#45;&gt;Node7 -->
<g id="edge43_Node000024_Node000007" class="edge">
<title>Node24&#45;&gt;Node7</title>
<g id="a_edge43_Node000024_Node000007"><a xlink:title=" ">
<path fill="none" stroke="#63b8ff" d="M1118.66,-67.56C1055.37,-55.23 946.26,-33.97 891.9,-23.38"/>
<polygon fill="#63b8ff" stroke="#63b8ff" points="892.82,-20 882.34,-21.52 891.48,-26.87 892.82,-20"/>
</a>
</g>
</g>
<!-- Node24&#45;&gt;Node18 -->
<g id="edge41_Node000024_Node000018" class="edge">
<title>Node24&#45;&gt;Node18</title>
<g id="a_edge41_Node000024_Node000018"><a xlink:title=" ">
<path fill="none" stroke="#63b8ff" d="M1168.38,-67.62C1169.25,-61.1 1170.45,-52.05 1171.6,-43.4"/>
<polygon fill="#63b8ff" stroke="#63b8ff" points="1175.05,-44.02 1172.91,-33.64 1168.12,-43.09 1175.05,-44.02"/>
</a>
</g>
</g>
<!-- Node24&#45;&gt;Node19 -->
<g id="edge42_Node000024_Node000019" class="edge">
<title>Node24&#45;&gt;Node19</title>
<g id="a_edge42_Node000024_Node000019"><a xlink:title=" ">
<path fill="none" stroke="#63b8ff" d="M1189.94,-67.62C1209.94,-59.41 1239.68,-47.18 1264.93,-36.81"/>
<polygon fill="#63b8ff" stroke="#63b8ff" points="1266.11,-40.1 1274.03,-33.07 1263.45,-33.63 1266.11,-40.1"/>
</a>
</g>
</g>
<!-- Node25&#45;&gt;Node7 -->
<g id="edge47_Node000025_Node000007" class="edge">
<title>Node25&#45;&gt;Node7</title>
<g id="a_edge47_Node000025_Node000007"><a xlink:title=" ">
<path fill="none" stroke="#63b8ff" d="M1252.96,-68.15C1152.17,-55.06 967.26,-31.04 892.15,-21.29"/>
<polygon fill="#63b8ff" stroke="#63b8ff" points="892.93,-17.86 882.56,-20.04 892.03,-24.8 892.93,-17.86"/>
</a>
</g>
</g>
<!-- Node25&#45;&gt;Node18 -->
<g id="edge45_Node000025_Node000018" class="edge">
<title>Node25&#45;&gt;Node18</title>
<g id="a_edge45_Node000025_Node000018"><a xlink:title=" ">
<path fill="none" stroke="#63b8ff" d="M1298.31,-67.62C1278.31,-59.41 1248.57,-47.18 1223.32,-36.81"/>
<polygon fill="#63b8ff" stroke="#63b8ff" points="1224.8,-33.63 1214.22,-33.07 1222.14,-40.1 1224.8,-33.63"/>
</a>
</g>
</g>
<!-- Node25&#45;&gt;Node19 -->
<g id="edge46_Node000025_Node000019" class="edge">
<title>Node25&#45;&gt;Node19</title>
<g id="a_edge46_Node000025_Node000019"><a xlink:title=" ">
<path fill="none" stroke="#63b8ff" d="M1319.88,-67.62C1319,-61.1 1317.8,-52.05 1316.65,-43.4"/>
<polygon fill="#63b8ff" stroke="#63b8ff" points="1320.13,-43.09 1315.34,-33.64 1313.2,-44.02 1320.13,-43.09"/>
</a>
</g>
</g>
<!-- Node26&#45;&gt;Node7 -->
<g id="edge51_Node000026_Node000007" class="edge">
<title>Node26&#45;&gt;Node7</title>
<g id="a_edge51_Node000026_Node000007"><a xlink:title=" ">
<path fill="none" stroke="#63b8ff" d="M1406.7,-68.92C1403.8,-68.61 1400.94,-68.3 1398.12,-68 1206.8,-47.77 976.85,-27.29 892.35,-19.89"/>
<polygon fill="#63b8ff" stroke="#63b8ff" points="892.74,-16.41 882.47,-19.02 892.13,-23.38 892.74,-16.41"/>
</a>
</g>
</g>
<!-- Node26&#45;&gt;Node18 -->
<g id="edge49_Node000026_Node000018" class="edge">
<title>Node26&#45;&gt;Node18</title>
<g id="a_edge49_Node000026_Node000018"><a xlink:title=" ">
<path fill="none" stroke="#63b8ff" d="M1427.92,-67.56C1376.79,-57.33 1294.97,-40.97 1238.32,-29.64"/>
<polygon fill="#63b8ff" stroke="#63b8ff" points="1239.32,-26.27 1228.83,-27.74 1237.95,-33.13 1239.32,-26.27"/>
</a>
</g>
</g>
<!-- Node26&#45;&gt;Node19 -->
<g id="edge50_Node000026_Node000019" class="edge">
<title>Node26&#45;&gt;Node19</title>
<g id="a_edge50_Node000026_Node000019"><a xlink:title=" ">
<path fill="none" stroke="#63b8ff" d="M1449.81,-67.62C1427.32,-59.3 1393.73,-46.86 1365.48,-36.39"/>
<polygon fill="#63b8ff" stroke="#63b8ff" points="1366.96,-33.21 1356.37,-33.02 1364.53,-39.77 1366.96,-33.21"/>
</a>
</g>
</g>
</g>
</svg>
