<?xml version="1.0" encoding="UTF-8" standalone="no"?>
<!DOCTYPE svg PUBLIC "-//W3C//DTD SVG 1.1//EN"
 "http://www.w3.org/Graphics/SVG/1.1/DTD/svg11.dtd">
<!-- Generated by graphviz version 12.2.1 (20241206.2353)
 -->
<!-- Title: DigiApiFrameBuffer.hpp Pages: 1 -->
<svg width="128pt" height="84pt"
 viewBox="0.00 0.00 127.50 84.00" xmlns="http://www.w3.org/2000/svg" xmlns:xlink="http://www.w3.org/1999/xlink">
<g id="graph0" class="graph" transform="scale(1 1) rotate(0) translate(4 80)">
<title>DigiApiFrameBuffer.hpp</title>
<!-- Node1 -->
<g id="Node000001" class="node">
<title>Node1</title>
<g id="a_Node000001"><a xlink:title="This file contains the definition of the DigiApiFrameBuffer class.">
<polygon fill="#999999" stroke="#666666" points="119.5,-76 0,-76 0,-56 119.5,-56 119.5,-76"/>
<text text-anchor="middle" x="59.75" y="-62.5" font-family="Helvetica,sans-Serif" font-size="10.00">DigiApiFrameBuffer.hpp</text>
</a>
</g>
</g>
<!-- Node2 -->
<g id="Node000002" class="node">
<title>Node2</title>
<g id="a_Node000002"><a xlink:title=" ">
<polygon fill="#e0e0e0" stroke="#999999" points="49.62,-20 11.88,-20 11.88,0 49.62,0 49.62,-20"/>
<text text-anchor="middle" x="30.75" y="-6.5" font-family="Helvetica,sans-Serif" font-size="10.00">array</text>
</a>
</g>
</g>
<!-- Node1&#45;&gt;Node2 -->
<g id="edge1_Node000001_Node000002" class="edge">
<title>Node1&#45;&gt;Node2</title>
<g id="a_edge1_Node000001_Node000002"><a xlink:title=" ">
<path fill="none" stroke="#63b8ff" d="M54.7,-55.59C50.96,-48.63 45.73,-38.89 41.11,-30.29"/>
<polygon fill="#63b8ff" stroke="#63b8ff" points="44.27,-28.79 36.46,-21.63 38.11,-32.1 44.27,-28.79"/>
</a>
</g>
</g>
<!-- Node3 -->
<g id="Node000003" class="node">
<title>Node3</title>
<g id="a_Node000003"><a xlink:title=" ">
<polygon fill="#e0e0e0" stroke="#999999" points="110.25,-20 67.25,-20 67.25,0 110.25,0 110.25,-20"/>
<text text-anchor="middle" x="88.75" y="-6.5" font-family="Helvetica,sans-Serif" font-size="10.00">vector</text>
</a>
</g>
</g>
<!-- Node1&#45;&gt;Node3 -->
<g id="edge2_Node000001_Node000003" class="edge">
<title>Node1&#45;&gt;Node3</title>
<g id="a_edge2_Node000001_Node000003"><a xlink:title=" ">
<path fill="none" stroke="#63b8ff" d="M64.8,-55.59C68.54,-48.63 73.77,-38.89 78.39,-30.29"/>
<polygon fill="#63b8ff" stroke="#63b8ff" points="81.39,-32.1 83.04,-21.63 75.23,-28.79 81.39,-32.1"/>
</a>
</g>
</g>
</g>
</svg>
