<?xml version="1.0" encoding="UTF-8" standalone="no"?>
<!DOCTYPE svg PUBLIC "-//W3C//DTD SVG 1.1//EN"
 "http://www.w3.org/Graphics/SVG/1.1/DTD/svg11.dtd">
<!-- Generated by graphviz version 13.1.0 (20250701.0955)
 -->
<!-- Title: Lib::HAL::BKPSRAM::Domain::enable Pages: 1 -->
<svg width="285pt" height="128pt"
 viewBox="0.00 0.00 285.00 128.00" xmlns="http://www.w3.org/2000/svg" xmlns:xlink="http://www.w3.org/1999/xlink">
<g id="graph0" class="graph" transform="scale(1 1) rotate(0) translate(4 124)">
<title>Lib::HAL::BKPSRAM::Domain::enable</title>
<!-- Node1 -->
<g id="Node000001" class="node">
<title>Node1</title>
<g id="a_Node000001"><a xlink:title="Enables the Backup RAM Domain after RTC clock source selection.">
<polygon fill="#999999" stroke="#666666" points="277.25,-76 161.5,-76 161.5,-44 277.25,-44 277.25,-76"/>
<text xml:space="preserve" text-anchor="start" x="169.5" y="-62.5" font-family="Helvetica,sans-Serif" font-size="10.00">Lib::HAL::BKPSRAM::</text>
<text xml:space="preserve" text-anchor="middle" x="219.38" y="-50.5" font-family="Helvetica,sans-Serif" font-size="10.00">Domain::enable</text>
</a>
</g>
</g>
<!-- Node2 -->
<g id="Node000002" class="node">
<title>Node2</title>
<g id="a_Node000002"><a xlink:href="../../da/d0e/class_lib_1_1_h_a_l_1_1_b_k_p_s_r_a_m_1_1_driver.html#a52f34ea6ee8bdaf517f691dba8b1175a" target="_top" xlink:title="Enables the Backup RAM domain to allow access to backup memory.">
<polygon fill="white" stroke="#666666" points="120.62,-120 4.88,-120 4.88,-88 120.62,-88 120.62,-120"/>
<text xml:space="preserve" text-anchor="start" x="12.88" y="-106.5" font-family="Helvetica,sans-Serif" font-size="10.00">Lib::HAL::BKPSRAM::</text>
<text xml:space="preserve" text-anchor="middle" x="62.75" y="-94.5" font-family="Helvetica,sans-Serif" font-size="10.00">Driver::open</text>
</a>
</g>
</g>
<!-- Node1&#45;&gt;Node2 -->
<g id="edge1_Node000001_Node000002" class="edge">
<title>Node1&#45;&gt;Node2</title>
<g id="a_edge1_Node000001_Node000002"><a xlink:title=" ">
<path fill="none" stroke="#63b8ff" d="M150.29,-79.38C140.48,-82.17 130.47,-85.01 120.91,-87.73"/>
<polygon fill="#63b8ff" stroke="#63b8ff" points="151.12,-82.78 159.78,-76.67 149.21,-76.04 151.12,-82.78"/>
</a>
</g>
</g>
<!-- Node3 -->
<g id="Node000003" class="node">
<title>Node3</title>
<g id="a_Node000003"><a xlink:href="../../da/db6/class_lib_1_1_h_a_l_1_1_r_t_clock.html#acad649f84506b15f8a7cc40b2ed4c663" target="_top" xlink:title="Opens the RTC, enabling backup SRAM and optionally starting the update task.">
<polygon fill="white" stroke="#666666" points="125.5,-70 0,-70 0,-50 125.5,-50 125.5,-70"/>
<text xml:space="preserve" text-anchor="middle" x="62.75" y="-56.5" font-family="Helvetica,sans-Serif" font-size="10.00">Lib::HAL::RTClock::open</text>
</a>
</g>
</g>
<!-- Node1&#45;&gt;Node3 -->
<g id="edge2_Node000001_Node000003" class="edge">
<title>Node1&#45;&gt;Node3</title>
<g id="a_edge2_Node000001_Node000003"><a xlink:title=" ">
<path fill="none" stroke="#63b8ff" d="M150,-60C141.96,-60 133.79,-60 125.85,-60"/>
<polygon fill="#63b8ff" stroke="#63b8ff" points="149.72,-63.5 159.72,-60 149.72,-56.5 149.72,-63.5"/>
</a>
</g>
</g>
<!-- Node4 -->
<g id="Node000004" class="node">
<title>Node4</title>
<g id="a_Node000004"><a xlink:href="../../db/d9e/class_lib_1_1_h_a_l_1_1_b_k_p_s_r_a_m_1_1_domain.html#a26df8a41e8dbe7f07161a3f024b05426" target="_top" xlink:title="Resets the Backup RAM Domain, including RTC peripheral and clock source selection,...">
<polygon fill="white" stroke="#666666" points="120.62,-32 4.88,-32 4.88,0 120.62,0 120.62,-32"/>
<text xml:space="preserve" text-anchor="start" x="12.88" y="-18.5" font-family="Helvetica,sans-Serif" font-size="10.00">Lib::HAL::BKPSRAM::</text>
<text xml:space="preserve" text-anchor="middle" x="62.75" y="-6.5" font-family="Helvetica,sans-Serif" font-size="10.00">Domain::reset</text>
</a>
</g>
</g>
<!-- Node1&#45;&gt;Node4 -->
<g id="edge3_Node000001_Node000004" class="edge">
<title>Node1&#45;&gt;Node4</title>
<g id="a_edge3_Node000001_Node000004"><a xlink:title=" ">
<path fill="none" stroke="#63b8ff" d="M150.29,-40.62C140.48,-37.83 130.47,-34.99 120.91,-32.27"/>
<polygon fill="#63b8ff" stroke="#63b8ff" points="149.21,-43.96 159.78,-43.33 151.12,-37.22 149.21,-43.96"/>
</a>
</g>
</g>
</g>
</svg>
