<?xml version="1.0" encoding="UTF-8" standalone="no"?>
<!DOCTYPE svg PUBLIC "-//W3C//DTD SVG 1.1//EN"
 "http://www.w3.org/Graphics/SVG/1.1/DTD/svg11.dtd">
<!-- Generated by graphviz version 13.1.0 (20250701.0955)
 -->
<!-- Title: Lib::BSP::Voltmeter::Base Pages: 1 -->
<svg width="229pt" height="224pt"
 viewBox="0.00 0.00 229.00 224.00" xmlns="http://www.w3.org/2000/svg" xmlns:xlink="http://www.w3.org/1999/xlink">
<g id="graph0" class="graph" transform="scale(1 1) rotate(0) translate(4 220)">
<title>Lib::BSP::Voltmeter::Base</title>
<!-- Node1 -->
<g id="Node000001" class="node">
<title>Node1</title>
<g id="a_Node000001"><a xlink:title="Voltmeter base class for ADC voltage measurement.">
<polygon fill="#999999" stroke="none" points="134.88,-116 14.88,-116 14.88,0 134.88,0 134.88,-116"/>
<text xml:space="preserve" text-anchor="start" x="35.88" y="-103.45" font-family="Arial" font-size="9.00">Lib::BSP::Voltmeter</text>
<text xml:space="preserve" text-anchor="start" x="62.12" y="-92.95" font-family="Arial" font-size="9.00">::Base</text>
<text xml:space="preserve" text-anchor="start" x="73.75" y="-78.45" font-family="Arial" font-size="9.00"> </text>
<text xml:space="preserve" text-anchor="start" x="18.88" y="-63.95" font-family="Arial" font-size="9.00">#</text>
<text xml:space="preserve" text-anchor="start" x="28.12" y="-63.95" font-family="Arial" font-size="9.00">Base()</text>
<text xml:space="preserve" text-anchor="start" x="18.88" y="-49.45" font-family="Arial" font-size="9.00">#</text>
<text xml:space="preserve" text-anchor="start" x="28.12" y="-49.45" font-family="Arial" font-size="9.00">~Base()</text>
<text xml:space="preserve" text-anchor="start" x="18.88" y="-34.95" font-family="Arial" font-size="9.00">#</text>
<text xml:space="preserve" text-anchor="start" x="28.12" y="-34.95" font-family="Arial" font-size="9.00">init()</text>
<text xml:space="preserve" text-anchor="start" x="18.88" y="-20.45" font-family="Arial" font-size="9.00">#</text>
<text xml:space="preserve" text-anchor="start" x="28.12" y="-20.45" font-family="Arial" font-size="9.00">tick()</text>
<text xml:space="preserve" text-anchor="start" x="18.88" y="-5.95" font-family="Arial" font-size="9.00">#</text>
<text xml:space="preserve" text-anchor="start" x="28.12" y="-5.95" font-family="Arial" font-size="9.00">valueChangedCallback()</text>
<polygon fill="#666666" stroke="#666666" points="14.88,-89 14.88,-89 134.88,-89 134.88,-89 14.88,-89"/>
<polygon fill="#666666" stroke="#666666" points="14.88,-74.5 14.88,-74.5 134.88,-74.5 134.88,-74.5 14.88,-74.5"/>
<polygon fill="none" stroke="#666666" points="14.88,0 14.88,-116 134.88,-116 134.88,0 14.88,0"/>
</a>
</g>
</g>
<!-- Node2 -->
<g id="Node000002" class="node">
<title>Node2</title>
<g id="a_Node000002"><a xlink:href="../../d5/dea/a02927.html" target="_top" xlink:title=" ">
<polygon fill="white" stroke="none" points="53.75,-216 0,-216 0,-168.5 53.75,-168.5 53.75,-216"/>
<text xml:space="preserve" text-anchor="start" x="4" y="-203.45" font-family="Arial" font-size="9.00">DriverBase</text>
<text xml:space="preserve" text-anchor="start" x="25.75" y="-188.95" font-family="Arial" font-size="9.00"> </text>
<text xml:space="preserve" text-anchor="start" x="25.75" y="-174.45" font-family="Arial" font-size="9.00"> </text>
<polygon fill="#bfbfbf" stroke="#bfbfbf" points="0,-199.5 0,-199.5 53.75,-199.5 53.75,-199.5 0,-199.5"/>
<polygon fill="#bfbfbf" stroke="#bfbfbf" points="0,-185 0,-185 53.75,-185 53.75,-185 0,-185"/>
<polygon fill="none" stroke="#bfbfbf" points="0,-168.5 0,-216 53.75,-216 53.75,-168.5 0,-168.5"/>
</a>
</g>
</g>
<!-- Node2&#45;&gt;Node1 -->
<g id="edge1_Node000001_Node000002" class="edge">
<title>Node2&#45;&gt;Node1</title>
<g id="a_edge1_Node000001_Node000002"><a xlink:title=" ">
<path fill="none" stroke="#63b8ff" d="M38.97,-157.92C43.61,-145.15 49.04,-130.19 54.25,-115.83"/>
<polygon fill="none" stroke="#63b8ff" points="35.76,-156.5 35.64,-167.09 42.34,-158.89 35.76,-156.5"/>
</a>
</g>
</g>
<!-- Node3 -->
<g id="Node000003" class="node">
<title>Node3</title>
<g id="a_Node000003"><a xlink:title=" ">
<polygon fill="white" stroke="none" points="175.88,-216 71.88,-216 71.88,-168.5 175.88,-168.5 175.88,-216"/>
<text xml:space="preserve" text-anchor="start" x="75.88" y="-203.45" font-family="Arial" font-size="9.00">Linear&lt; uint32_t, float &gt;</text>
<text xml:space="preserve" text-anchor="start" x="122.75" y="-188.95" font-family="Arial" font-size="9.00"> </text>
<text xml:space="preserve" text-anchor="start" x="122.75" y="-174.45" font-family="Arial" font-size="9.00"> </text>
<polygon fill="#bfbfbf" stroke="#bfbfbf" points="71.88,-199.5 71.88,-199.5 175.88,-199.5 175.88,-199.5 71.88,-199.5"/>
<polygon fill="#bfbfbf" stroke="#bfbfbf" points="71.88,-185 71.88,-185 175.88,-185 175.88,-185 71.88,-185"/>
<polygon fill="none" stroke="#bfbfbf" points="71.88,-168.5 71.88,-216 175.88,-216 175.88,-168.5 71.88,-168.5"/>
</a>
</g>
</g>
<!-- Node3&#45;&gt;Node1 -->
<g id="edge2_Node000001_Node000003" class="edge">
<title>Node3&#45;&gt;Node1</title>
<g id="a_edge2_Node000001_Node000003"><a xlink:title=" ">
<path fill="none" stroke="#63b8ff" d="M115.45,-168.52C111.2,-157.04 105.79,-142.43 100.31,-127.66"/>
<polygon fill="none" stroke="#63b8ff" points="100.41,-127.93 94.58,-123.69 96.24,-116.68 102.08,-120.91 100.41,-127.93"/>
</a>
</g>
<text xml:space="preserve" text-anchor="start" x="111.03" y="-138.95" font-family="Arial" font-size="9.00" fill="grey">#adcToVoltageInterpolator</text>
</g>
</g>
</svg>
