<?xml version="1.0" encoding="UTF-8" standalone="no"?>
<!DOCTYPE svg PUBLIC "-//W3C//DTD SVG 1.1//EN"
 "http://www.w3.org/Graphics/SVG/1.1/DTD/svg11.dtd">
<!-- Generated by graphviz version 13.1.0 (20250701.0955)
 -->
<!-- Title: ModelXbee::TransmitTime Pages: 1 -->
<svg width="131pt" height="140pt"
 viewBox="0.00 0.00 131.00 140.00" xmlns="http://www.w3.org/2000/svg" xmlns:xlink="http://www.w3.org/1999/xlink">
<g id="graph0" class="graph" transform="scale(1 1) rotate(0) translate(4 136)">
<title>ModelXbee::TransmitTime</title>
<!-- Node1 -->
<g id="Node000001" class="node">
<title>Node1</title>
<g id="a_Node000001"><a xlink:title="TransmitTime interface for XBee transmit time statistics.">
<polygon fill="#999999" stroke="none" points="122.75,-132 0,-132 0,0 122.75,0 122.75,-132"/>
<text xml:space="preserve" text-anchor="start" x="4" y="-118.5" font-family="Helvetica,sans-Serif" font-size="10.00">ModelXbee::TransmitTime</text>
<text xml:space="preserve" text-anchor="start" x="59.88" y="-102.5" font-family="Helvetica,sans-Serif" font-size="10.00"> </text>
<text xml:space="preserve" text-anchor="start" x="14.81" y="-86.5" font-family="Helvetica,sans-Serif" font-size="10.00">+</text>
<text xml:space="preserve" text-anchor="start" x="35.62" y="-86.5" font-family="Helvetica,sans-Serif" font-size="10.00">getValue()</text>
<text xml:space="preserve" text-anchor="start" x="14.81" y="-70.5" font-family="Helvetica,sans-Serif" font-size="10.00">+</text>
<text xml:space="preserve" text-anchor="start" x="35.62" y="-70.5" font-family="Helvetica,sans-Serif" font-size="10.00">getMin()</text>
<text xml:space="preserve" text-anchor="start" x="14.81" y="-54.5" font-family="Helvetica,sans-Serif" font-size="10.00">+</text>
<text xml:space="preserve" text-anchor="start" x="35.62" y="-54.5" font-family="Helvetica,sans-Serif" font-size="10.00">getMax()</text>
<text xml:space="preserve" text-anchor="start" x="14.81" y="-38.5" font-family="Helvetica,sans-Serif" font-size="10.00">+</text>
<text xml:space="preserve" text-anchor="start" x="35.62" y="-38.5" font-family="Helvetica,sans-Serif" font-size="10.00">getData()</text>
<text xml:space="preserve" text-anchor="start" x="14.81" y="-22.5" font-family="Helvetica,sans-Serif" font-size="10.00">+</text>
<text xml:space="preserve" text-anchor="start" x="35.62" y="-22.5" font-family="Helvetica,sans-Serif" font-size="10.00">tick()</text>
<text xml:space="preserve" text-anchor="start" x="14.81" y="-6.5" font-family="Helvetica,sans-Serif" font-size="10.00">+</text>
<text xml:space="preserve" text-anchor="start" x="35.62" y="-6.5" font-family="Helvetica,sans-Serif" font-size="10.00">clearMinMax()</text>
<polygon fill="#666666" stroke="#666666" points="0,-114 0,-114 122.75,-114 122.75,-114 0,-114"/>
<polygon fill="#666666" stroke="#666666" points="0,-98 0,-98 122.75,-98 122.75,-98 0,-98"/>
<polygon fill="none" stroke="#666666" points="0,0 0,-132 122.75,-132 122.75,0 0,0"/>
</a>
</g>
</g>
</g>
</svg>
