<?xml version="1.0" encoding="UTF-8" standalone="no"?>
<!DOCTYPE svg PUBLIC "-//W3C//DTD SVG 1.1//EN"
 "http://www.w3.org/Graphics/SVG/1.1/DTD/svg11.dtd">
<!-- Generated by graphviz version 13.1.0 (20250701.0955)
 -->
<!-- Title: DAL.hpp Pages: 1 -->
<svg width="318pt" height="196pt"
 viewBox="0.00 0.00 318.00 196.00" xmlns="http://www.w3.org/2000/svg" xmlns:xlink="http://www.w3.org/1999/xlink">
<g id="graph0" class="graph" transform="scale(1 1) rotate(0) translate(4 192)">
<title>DAL.hpp</title>
<!-- Node1 -->
<g id="Node000001" class="node">
<title>Node1</title>
<g id="a_Node000001"><a xlink:title="Data Abstraction Layer namespace with global singleton device objects.">
<polygon fill="#999999" stroke="#666666" points="192.38,-188 138.12,-188 138.12,-168 192.38,-168 192.38,-188"/>
<text xml:space="preserve" text-anchor="middle" x="165.25" y="-174.5" font-family="Helvetica,sans-Serif" font-size="10.00">DAL.hpp</text>
</a>
</g>
</g>
<!-- Node2 -->
<g id="Node000002" class="node">
<title>Node2</title>
<g id="a_Node000002"><a xlink:href="../../d2/df5/a00137.html" target="_top" xlink:title="CAN bus node data structure for DAL integration.">
<polygon fill="white" stroke="#666666" points="98.5,-132 0,-132 0,-112 98.5,-112 98.5,-132"/>
<text xml:space="preserve" text-anchor="middle" x="49.25" y="-118.5" font-family="Helvetica,sans-Serif" font-size="10.00">DAL/CanNode.hpp</text>
</a>
</g>
</g>
<!-- Node1&#45;&gt;Node2 -->
<g id="edge1_Node000001_Node000002" class="edge">
<title>Node1&#45;&gt;Node2</title>
<g id="a_edge1_Node000001_Node000002"><a xlink:title=" ">
<path fill="none" stroke="#63b8ff" d="M145.04,-167.59C127.02,-159.21 100.38,-146.8 79.77,-137.21"/>
<polygon fill="#63b8ff" stroke="#63b8ff" points="81.53,-134.17 70.99,-133.12 78.57,-140.51 81.53,-134.17"/>
</a>
</g>
</g>
<!-- Node3 -->
<g id="Node000003" class="node">
<title>Node3</title>
<g id="a_Node000003"><a xlink:title=" ">
<polygon fill="#e0e0e0" stroke="#999999" points="140.88,-76 95.62,-76 95.62,-56 140.88,-56 140.88,-76"/>
<text xml:space="preserve" text-anchor="middle" x="118.25" y="-62.5" font-family="Helvetica,sans-Serif" font-size="10.00">cstdint</text>
</a>
</g>
</g>
<!-- Node1&#45;&gt;Node3 -->
<g id="edge10_Node000001_Node000003" class="edge">
<title>Node1&#45;&gt;Node3</title>
<g id="a_edge10_Node000001_Node000003"><a xlink:title=" ">
<path fill="none" stroke="#63b8ff" d="M161.05,-167.72C156.95,-158.64 150.58,-144.41 145.25,-132 138.75,-116.87 131.61,-99.66 126.31,-86.75"/>
<polygon fill="#63b8ff" stroke="#63b8ff" points="129.62,-85.62 122.6,-77.69 123.15,-88.27 129.62,-85.62"/>
</a>
</g>
</g>
<!-- Node4 -->
<g id="Node000004" class="node">
<title>Node4</title>
<g id="a_Node000004"><a xlink:href="../../d5/db1/a00140.html" target="_top" xlink:title="Peripheral I/O state management for CAN bus nodes.">
<polygon fill="white" stroke="#666666" points="254.62,-132 153.88,-132 153.88,-112 254.62,-112 254.62,-132"/>
<text xml:space="preserve" text-anchor="middle" x="204.25" y="-118.5" font-family="Helvetica,sans-Serif" font-size="10.00">DAL/Peripheral.hpp</text>
</a>
</g>
</g>
<!-- Node1&#45;&gt;Node4 -->
<g id="edge3_Node000001_Node000004" class="edge">
<title>Node1&#45;&gt;Node4</title>
<g id="a_edge3_Node000001_Node000004"><a xlink:title=" ">
<path fill="none" stroke="#63b8ff" d="M172.04,-167.59C177.24,-160.39 184.58,-150.23 190.94,-141.43"/>
<polygon fill="#63b8ff" stroke="#63b8ff" points="193.63,-143.68 196.65,-133.53 187.96,-139.58 193.63,-143.68"/>
</a>
</g>
</g>
<!-- Node9 -->
<g id="Node000009" class="node">
<title>Node9</title>
<g id="a_Node000009"><a xlink:title=" ">
<polygon fill="#e0e0e0" stroke="#999999" points="310.12,-132 272.38,-132 272.38,-112 310.12,-112 310.12,-132"/>
<text xml:space="preserve" text-anchor="middle" x="291.25" y="-118.5" font-family="Helvetica,sans-Serif" font-size="10.00">array</text>
</a>
</g>
</g>
<!-- Node1&#45;&gt;Node9 -->
<g id="edge9_Node000001_Node000009" class="edge">
<title>Node1&#45;&gt;Node9</title>
<g id="a_edge9_Node000001_Node000009"><a xlink:title=" ">
<path fill="none" stroke="#63b8ff" d="M187.2,-167.59C207.8,-158.76 238.77,-145.49 261.57,-135.72"/>
<polygon fill="#63b8ff" stroke="#63b8ff" points="262.82,-138.99 270.64,-131.83 260.07,-132.56 262.82,-138.99"/>
</a>
</g>
</g>
<!-- Node2&#45;&gt;Node3 -->
<g id="edge2_Node000002_Node000003" class="edge">
<title>Node2&#45;&gt;Node3</title>
<g id="a_edge2_Node000002_Node000003"><a xlink:title=" ">
<path fill="none" stroke="#63b8ff" d="M61.27,-111.59C71.26,-103.77 85.71,-92.46 97.56,-83.19"/>
<polygon fill="#63b8ff" stroke="#63b8ff" points="99.46,-86.15 105.18,-77.23 95.14,-80.64 99.46,-86.15"/>
</a>
</g>
</g>
<!-- Node4&#45;&gt;Node3 -->
<g id="edge8_Node000004_Node000003" class="edge">
<title>Node4&#45;&gt;Node3</title>
<g id="a_edge8_Node000004_Node000003"><a xlink:title=" ">
<path fill="none" stroke="#63b8ff" d="M189.27,-111.59C176.52,-103.59 157.96,-91.93 143.01,-82.54"/>
<polygon fill="#63b8ff" stroke="#63b8ff" points="144.96,-79.64 134.63,-77.28 141.24,-85.57 144.96,-79.64"/>
</a>
</g>
</g>
<!-- Node5 -->
<g id="Node000005" class="node">
<title>Node5</title>
<g id="a_Node000005"><a xlink:href="../../d6/dd7/a02375.html" target="_top" xlink:title="Event class for managing and emitting events with listeners.">
<polygon fill="white" stroke="#666666" points="266,-76 158.5,-76 158.5,-56 266,-56 266,-76"/>
<text xml:space="preserve" text-anchor="middle" x="212.25" y="-62.5" font-family="Helvetica,sans-Serif" font-size="10.00">Lib/Helper/Event.hpp</text>
</a>
</g>
</g>
<!-- Node4&#45;&gt;Node5 -->
<g id="edge4_Node000004_Node000005" class="edge">
<title>Node4&#45;&gt;Node5</title>
<g id="a_edge4_Node000004_Node000005"><a xlink:title=" ">
<path fill="none" stroke="#63b8ff" d="M205.64,-111.59C206.63,-104.93 207.99,-95.75 209.22,-87.44"/>
<polygon fill="#63b8ff" stroke="#63b8ff" points="212.65,-88.2 210.65,-77.8 205.72,-87.17 212.65,-88.2"/>
</a>
</g>
</g>
<!-- Node6 -->
<g id="Node000006" class="node">
<title>Node6</title>
<g id="a_Node000006"><a xlink:title=" ">
<polygon fill="#e0e0e0" stroke="#999999" points="165.12,-20 109.38,-20 109.38,0 165.12,0 165.12,-20"/>
<text xml:space="preserve" text-anchor="middle" x="137.25" y="-6.5" font-family="Helvetica,sans-Serif" font-size="10.00">algorithm</text>
</a>
</g>
</g>
<!-- Node5&#45;&gt;Node6 -->
<g id="edge5_Node000005_Node000006" class="edge">
<title>Node5&#45;&gt;Node6</title>
<g id="a_edge5_Node000005_Node000006"><a xlink:title=" ">
<path fill="none" stroke="#63b8ff" d="M199.19,-55.59C188.28,-47.74 172.5,-36.38 159.59,-27.09"/>
<polygon fill="#63b8ff" stroke="#63b8ff" points="161.8,-24.37 151.64,-21.36 157.71,-30.05 161.8,-24.37"/>
</a>
</g>
</g>
<!-- Node7 -->
<g id="Node000007" class="node">
<title>Node7</title>
<g id="a_Node000007"><a xlink:title=" ">
<polygon fill="#e0e0e0" stroke="#999999" points="241.25,-20 183.25,-20 183.25,0 241.25,0 241.25,-20"/>
<text xml:space="preserve" text-anchor="middle" x="212.25" y="-6.5" font-family="Helvetica,sans-Serif" font-size="10.00">functional</text>
</a>
</g>
</g>
<!-- Node5&#45;&gt;Node7 -->
<g id="edge6_Node000005_Node000007" class="edge">
<title>Node5&#45;&gt;Node7</title>
<g id="a_edge6_Node000005_Node000007"><a xlink:title=" ">
<path fill="none" stroke="#63b8ff" d="M212.25,-55.59C212.25,-49.01 212.25,-39.96 212.25,-31.73"/>
<polygon fill="#63b8ff" stroke="#63b8ff" points="215.75,-31.81 212.25,-21.81 208.75,-31.81 215.75,-31.81"/>
</a>
</g>
</g>
<!-- Node8 -->
<g id="Node000008" class="node">
<title>Node8</title>
<g id="a_Node000008"><a xlink:title=" ">
<polygon fill="#e0e0e0" stroke="#999999" points="302.75,-20 259.75,-20 259.75,0 302.75,0 302.75,-20"/>
<text xml:space="preserve" text-anchor="middle" x="281.25" y="-6.5" font-family="Helvetica,sans-Serif" font-size="10.00">vector</text>
</a>
</g>
</g>
<!-- Node5&#45;&gt;Node8 -->
<g id="edge7_Node000005_Node000008" class="edge">
<title>Node5&#45;&gt;Node8</title>
<g id="a_edge7_Node000005_Node000008"><a xlink:title=" ">
<path fill="none" stroke="#63b8ff" d="M224.27,-55.59C234.26,-47.77 248.71,-36.46 260.56,-27.19"/>
<polygon fill="#63b8ff" stroke="#63b8ff" points="262.46,-30.15 268.18,-21.23 258.14,-24.64 262.46,-30.15"/>
</a>
</g>
</g>
</g>
</svg>
