<?xml version="1.0" encoding="UTF-8" standalone="no"?>
<!DOCTYPE svg PUBLIC "-//W3C//DTD SVG 1.1//EN"
 "http://www.w3.org/Graphics/SVG/1.1/DTD/svg11.dtd">
<!-- Generated by graphviz version 13.1.0 (20250701.0955)
 -->
<!-- Title: BSP::Leds::Config Pages: 1 -->
<svg width="105pt" height="182pt"
 viewBox="0.00 0.00 105.00 182.00" xmlns="http://www.w3.org/2000/svg" xmlns:xlink="http://www.w3.org/1999/xlink">
<g id="graph0" class="graph" transform="scale(1 1) rotate(0) translate(4 178)">
<title>BSP::Leds::Config</title>
<!-- Node1 -->
<g id="Node000001" class="node">
<title>Node1</title>
<g id="a_Node000001"><a xlink:title="Configuration structure for board LEDs, specifying pin assignments.">
<polygon fill="#999999" stroke="none" points="89.75,-52 0,-52 0,0 89.75,0 89.75,-52"/>
<text xml:space="preserve" text-anchor="start" x="4" y="-38.5" font-family="Helvetica,sans-Serif" font-size="10.00">BSP::Leds::Config</text>
<text xml:space="preserve" text-anchor="start" x="43.38" y="-22.5" font-family="Helvetica,sans-Serif" font-size="10.00"> </text>
<text xml:space="preserve" text-anchor="start" x="43.38" y="-6.5" font-family="Helvetica,sans-Serif" font-size="10.00"> </text>
<polygon fill="#666666" stroke="#666666" points="0,-34 0,-34 89.75,-34 89.75,-34 0,-34"/>
<polygon fill="#666666" stroke="#666666" points="0,-18 0,-18 89.75,-18 89.75,-18 0,-18"/>
<polygon fill="none" stroke="#666666" points="0,0 0,-52 89.75,-52 89.75,0 0,0"/>
</a>
</g>
</g>
<!-- Node2 -->
<g id="Node000002" class="node">
<title>Node2</title>
<g id="a_Node000002"><a xlink:title=" ">
<polygon fill="white" stroke="none" points="71.38,-174 18.38,-174 18.38,-122 71.38,-122 71.38,-174"/>
<text xml:space="preserve" text-anchor="start" x="22.38" y="-160.5" font-family="Helvetica,sans-Serif" font-size="10.00">PinHandle</text>
<text xml:space="preserve" text-anchor="start" x="43.38" y="-144.5" font-family="Helvetica,sans-Serif" font-size="10.00"> </text>
<text xml:space="preserve" text-anchor="start" x="43.38" y="-128.5" font-family="Helvetica,sans-Serif" font-size="10.00"> </text>
<polygon fill="#bfbfbf" stroke="#bfbfbf" points="18.38,-156 18.38,-156 71.38,-156 71.38,-156 18.38,-156"/>
<polygon fill="#bfbfbf" stroke="#bfbfbf" points="18.38,-140 18.38,-140 71.38,-140 71.38,-140 18.38,-140"/>
<polygon fill="none" stroke="#bfbfbf" points="18.38,-122 18.38,-174 71.38,-174 71.38,-122 18.38,-122"/>
</a>
</g>
</g>
<!-- Node2&#45;&gt;Node1 -->
<g id="edge1_Node000001_Node000002" class="edge">
<title>Node2&#45;&gt;Node1</title>
<g id="a_edge1_Node000001_Node000002"><a xlink:title=" ">
<path fill="none" stroke="#63b8ff" d="M44.88,-122.14C44.88,-105.56 44.88,-83.47 44.88,-64.74"/>
<polygon fill="none" stroke="#63b8ff" points="44.88,-64.73 40.88,-58.73 44.88,-52.73 48.88,-58.73 44.88,-64.73"/>
</a>
</g>
<text xml:space="preserve" text-anchor="start" x="47.88" y="-91.5" font-family="Helvetica,sans-Serif" font-size="10.00" fill="grey">+errorLed</text>
<text xml:space="preserve" text-anchor="start" x="47.88" y="-75.5" font-family="Helvetica,sans-Serif" font-size="10.00" fill="grey">+readyLed</text>
</g>
</g>
</svg>
