<?xml version="1.0" encoding="UTF-8" standalone="no"?>
<!DOCTYPE svg PUBLIC "-//W3C//DTD SVG 1.1//EN"
 "http://www.w3.org/Graphics/SVG/1.1/DTD/svg11.dtd">
<!-- Generated by graphviz version 13.1.0 (20250701.0955)
 -->
<!-- Title: Lib::BSP::FMEM::SPI::Config Pages: 1 -->
<svg width="189pt" height="310pt"
 viewBox="0.00 0.00 189.00 310.00" xmlns="http://www.w3.org/2000/svg" xmlns:xlink="http://www.w3.org/1999/xlink">
<g id="graph0" class="graph" transform="scale(1 1) rotate(0) translate(4 305.5)">
<title>Lib::BSP::FMEM::SPI::Config</title>
<!-- Node1 -->
<g id="Node000001" class="node">
<title>Node1</title>
<g id="a_Node000001"><a xlink:title="SPI flash memory driver configuration.">
<polygon fill="#999999" stroke="none" points="102.38,-58 9.62,-58 9.62,0 102.38,0 102.38,-58"/>
<text xml:space="preserve" text-anchor="start" x="13.62" y="-45.45" font-family="Arial" font-size="9.00">Lib::BSP::FMEM::SPI</text>
<text xml:space="preserve" text-anchor="start" x="40.25" y="-34.95" font-family="Arial" font-size="9.00">::Config</text>
<text xml:space="preserve" text-anchor="start" x="54.88" y="-20.45" font-family="Arial" font-size="9.00"> </text>
<text xml:space="preserve" text-anchor="start" x="54.88" y="-5.95" font-family="Arial" font-size="9.00"> </text>
<polygon fill="#666666" stroke="#666666" points="9.62,-31 9.62,-31 102.38,-31 102.38,-31 9.62,-31"/>
<polygon fill="#666666" stroke="#666666" points="9.62,-16.5 9.62,-16.5 102.38,-16.5 102.38,-16.5 9.62,-16.5"/>
<polygon fill="none" stroke="#666666" points="9.62,0 9.62,-58 102.38,-58 102.38,0 9.62,0"/>
</a>
</g>
</g>
<!-- Node2 -->
<g id="Node000002" class="node">
<title>Node2</title>
<g id="a_Node000002"><a xlink:title=" ">
<polygon fill="white" stroke="none" points="44,-179.75 0,-179.75 0,-132.25 44,-132.25 44,-179.75"/>
<text xml:space="preserve" text-anchor="start" x="4" y="-167.2" font-family="Arial" font-size="9.00">Handle *</text>
<text xml:space="preserve" text-anchor="start" x="20.88" y="-152.7" font-family="Arial" font-size="9.00"> </text>
<text xml:space="preserve" text-anchor="start" x="20.88" y="-138.2" font-family="Arial" font-size="9.00"> </text>
<polygon fill="#bfbfbf" stroke="#bfbfbf" points="0,-163.25 0,-163.25 44,-163.25 44,-163.25 0,-163.25"/>
<polygon fill="#bfbfbf" stroke="#bfbfbf" points="0,-148.75 0,-148.75 44,-148.75 44,-148.75 0,-148.75"/>
<polygon fill="none" stroke="#bfbfbf" points="0,-132.25 0,-179.75 44,-179.75 44,-132.25 0,-132.25"/>
</a>
</g>
</g>
<!-- Node2&#45;&gt;Node1 -->
<g id="edge1_Node000001_Node000002" class="edge">
<title>Node2&#45;&gt;Node1</title>
<g id="a_edge1_Node000001_Node000002"><a xlink:title=" ">
<path fill="none" stroke="#63b8ff" d="M28.16,-132.36C32.86,-115.08 39.46,-90.83 45.05,-70.26"/>
<polygon fill="none" stroke="#63b8ff" points="45.08,-70.16 42.79,-63.32 48.23,-58.58 50.51,-65.42 45.08,-70.16"/>
</a>
</g>
<text xml:space="preserve" text-anchor="start" x="46.05" y="-80.95" font-family="Arial" font-size="9.00" fill="grey">+spi</text>
</g>
<!-- Node3 -->
<g id="Node000003" class="node">
<title>Node3</title>
<g id="a_Node000003"><a xlink:href="../../d2/d49/a01561.html" target="_top" xlink:title="GPIO pin handle abstraction.">
<polygon fill="white" stroke="none" points="166,-201.5 62,-201.5 62,-110.5 166,-110.5 166,-201.5"/>
<text xml:space="preserve" text-anchor="start" x="66" y="-188.95" font-family="Arial" font-size="9.00">Lib::HAL::GPIO::Handle</text>
<text xml:space="preserve" text-anchor="start" x="112.88" y="-174.45" font-family="Arial" font-size="9.00"> </text>
<text xml:space="preserve" text-anchor="start" x="74.94" y="-159.95" font-family="Arial" font-size="9.00">+</text>
<text xml:space="preserve" text-anchor="start" x="93.12" y="-159.95" font-family="Arial" font-size="9.00">Handle()</text>
<text xml:space="preserve" text-anchor="start" x="74.94" y="-145.45" font-family="Arial" font-size="9.00">+</text>
<text xml:space="preserve" text-anchor="start" x="93.12" y="-145.45" font-family="Arial" font-size="9.00">Handle()</text>
<text xml:space="preserve" text-anchor="start" x="74.94" y="-130.95" font-family="Arial" font-size="9.00">+</text>
<text xml:space="preserve" text-anchor="start" x="93.12" y="-130.95" font-family="Arial" font-size="9.00">~Handle()</text>
<text xml:space="preserve" text-anchor="start" x="74.94" y="-116.45" font-family="Arial" font-size="9.00">+</text>
<text xml:space="preserve" text-anchor="start" x="93.12" y="-116.45" font-family="Arial" font-size="9.00">operator==()</text>
<polygon fill="#666666" stroke="#666666" points="62,-185 62,-185 166,-185 166,-185 62,-185"/>
<polygon fill="#666666" stroke="#666666" points="62,-170.5 62,-170.5 166,-170.5 166,-170.5 62,-170.5"/>
<polygon fill="none" stroke="#666666" points="62,-110.5 62,-201.5 166,-201.5 166,-110.5 62,-110.5"/>
</a>
</g>
</g>
<!-- Node3&#45;&gt;Node1 -->
<g id="edge2_Node000001_Node000003" class="edge">
<title>Node3&#45;&gt;Node1</title>
<g id="a_edge2_Node000001_Node000003"><a xlink:title=" ">
<path fill="none" stroke="#63b8ff" d="M93.39,-110.58C87.16,-97.15 80.36,-82.5 74.29,-69.42"/>
<polygon fill="none" stroke="#63b8ff" points="74.39,-69.63 68.23,-65.87 69.34,-58.74 75.49,-62.5 74.39,-69.63"/>
</a>
</g>
<text xml:space="preserve" text-anchor="start" x="88" y="-80.95" font-family="Arial" font-size="9.00" fill="grey">+nss</text>
</g>
<!-- Node4 -->
<g id="Node000004" class="node">
<title>Node4</title>
<g id="a_Node000004"><a xlink:title=" ">
<polygon fill="white" stroke="none" points="113.75,-301.5 38.25,-301.5 38.25,-254 113.75,-254 113.75,-301.5"/>
<text xml:space="preserve" text-anchor="start" x="42.25" y="-288.95" font-family="Arial" font-size="9.00">GPIO_TypeDef *</text>
<text xml:space="preserve" text-anchor="start" x="74.88" y="-274.45" font-family="Arial" font-size="9.00"> </text>
<text xml:space="preserve" text-anchor="start" x="74.88" y="-259.95" font-family="Arial" font-size="9.00"> </text>
<polygon fill="#bfbfbf" stroke="#bfbfbf" points="38.25,-285 38.25,-285 113.75,-285 113.75,-285 38.25,-285"/>
<polygon fill="#bfbfbf" stroke="#bfbfbf" points="38.25,-270.5 38.25,-270.5 113.75,-270.5 113.75,-270.5 38.25,-270.5"/>
<polygon fill="none" stroke="#bfbfbf" points="38.25,-254 38.25,-301.5 113.75,-301.5 113.75,-254 38.25,-254"/>
</a>
</g>
</g>
<!-- Node4&#45;&gt;Node3 -->
<g id="edge3_Node000003_Node000004" class="edge">
<title>Node4&#45;&gt;Node3</title>
<g id="a_edge3_Node000003_Node000004"><a xlink:title=" ">
<path fill="none" stroke="#63b8ff" d="M83.15,-254.23C86.84,-242.58 91.53,-227.8 96.14,-213.3"/>
<polygon fill="none" stroke="#63b8ff" points="96.05,-213.55 94.06,-206.62 99.68,-202.11 101.68,-209.04 96.05,-213.55"/>
</a>
</g>
<text xml:space="preserve" text-anchor="start" x="96.86" y="-224.45" font-family="Arial" font-size="9.00" fill="grey">+port</text>
</g>
<!-- Node5 -->
<g id="Node000005" class="node">
<title>Node5</title>
<g id="a_Node000005"><a xlink:title=" ">
<polygon fill="white" stroke="none" points="172.5,-301.5 131.5,-301.5 131.5,-254 172.5,-254 172.5,-301.5"/>
<text xml:space="preserve" text-anchor="start" x="135.5" y="-288.95" font-family="Arial" font-size="9.00">uint16_t</text>
<text xml:space="preserve" text-anchor="start" x="150.88" y="-274.45" font-family="Arial" font-size="9.00"> </text>
<text xml:space="preserve" text-anchor="start" x="150.88" y="-259.95" font-family="Arial" font-size="9.00"> </text>
<polygon fill="#bfbfbf" stroke="#bfbfbf" points="131.5,-285 131.5,-285 172.5,-285 172.5,-285 131.5,-285"/>
<polygon fill="#bfbfbf" stroke="#bfbfbf" points="131.5,-270.5 131.5,-270.5 172.5,-270.5 172.5,-270.5 131.5,-270.5"/>
<polygon fill="none" stroke="#bfbfbf" points="131.5,-254 131.5,-301.5 172.5,-301.5 172.5,-254 131.5,-254"/>
</a>
</g>
</g>
<!-- Node5&#45;&gt;Node3 -->
<g id="edge4_Node000003_Node000005" class="edge">
<title>Node5&#45;&gt;Node3</title>
<g id="a_edge4_Node000003_Node000005"><a xlink:title=" ">
<path fill="none" stroke="#63b8ff" d="M144.85,-254.23C141.16,-242.58 136.47,-227.8 131.86,-213.3"/>
<polygon fill="none" stroke="#63b8ff" points="131.95,-213.55 126.32,-209.04 128.32,-202.11 133.94,-206.62 131.95,-213.55"/>
</a>
</g>
<text xml:space="preserve" text-anchor="start" x="141.62" y="-224.45" font-family="Arial" font-size="9.00" fill="grey">+number</text>
</g>
</g>
</svg>
