<?xml version="1.0" encoding="UTF-8" standalone="no"?>
<!DOCTYPE svg PUBLIC "-//W3C//DTD SVG 1.1//EN"
 "http://www.w3.org/Graphics/SVG/1.1/DTD/svg11.dtd">
<!-- Generated by graphviz version 13.1.0 (20250701.0955)
 -->
<!-- Title: Lib::BSP::DigitalPeripheral::MapField Pages: 1 -->
<svg width="132pt" height="128pt"
 viewBox="0.00 0.00 132.00 128.00" xmlns="http://www.w3.org/2000/svg" xmlns:xlink="http://www.w3.org/1999/xlink">
<g id="graph0" class="graph" transform="scale(1 1) rotate(0) translate(4 124)">
<title>Lib::BSP::DigitalPeripheral::MapField</title>
<!-- Node1 -->
<g id="Node000001" class="node">
<title>Node1</title>
<g id="a_Node000001"><a xlink:title="Represents a mapping between a digital peripheral port and its mask.">
<polygon fill="#999999" stroke="none" points="124.25,-120 0,-120 0,0 124.25,0 124.25,-120"/>
<text xml:space="preserve" text-anchor="start" x="4" y="-106.5" font-family="Helvetica,sans-Serif" font-size="10.00">Lib::BSP::DigitalPeripheral</text>
<text xml:space="preserve" text-anchor="start" x="39.25" y="-94.5" font-family="Helvetica,sans-Serif" font-size="10.00">::MapField</text>
<text xml:space="preserve" text-anchor="start" x="7.69" y="-78.5" font-family="Helvetica,sans-Serif" font-size="10.00">+</text>
<text xml:space="preserve" text-anchor="start" x="21.38" y="-78.5" font-family="Helvetica,sans-Serif" font-size="10.00">uint8_t port</text>
<text xml:space="preserve" text-anchor="start" x="7.69" y="-62.5" font-family="Helvetica,sans-Serif" font-size="10.00">+</text>
<text xml:space="preserve" text-anchor="start" x="21.38" y="-62.5" font-family="Helvetica,sans-Serif" font-size="10.00">uint8_t mask</text>
<text xml:space="preserve" text-anchor="start" x="7.69" y="-46.5" font-family="Helvetica,sans-Serif" font-size="10.00">+</text>
<text xml:space="preserve" text-anchor="start" x="21.38" y="-46.5" font-family="Helvetica,sans-Serif" font-size="10.00">constexpr MapField()</text>
<text xml:space="preserve" text-anchor="start" x="7.69" y="-30.5" font-family="Helvetica,sans-Serif" font-size="10.00">+</text>
<text xml:space="preserve" text-anchor="start" x="21.38" y="-30.5" font-family="Helvetica,sans-Serif" font-size="10.00">constexpr MapField</text>
<text xml:space="preserve" text-anchor="start" x="21.38" y="-18.5" font-family="Helvetica,sans-Serif" font-size="10.00">(uint8_t port, uint8</text>
<text xml:space="preserve" text-anchor="start" x="21.38" y="-6.5" font-family="Helvetica,sans-Serif" font-size="10.00">_t mask)</text>
<polygon fill="#666666" stroke="#666666" points="0,-90 0,-90 124.25,-90 124.25,-90 0,-90"/>
<polygon fill="#666666" stroke="#666666" points="0,-58 0,-58 19.38,-58 19.38,-58 0,-58"/>
<polygon fill="#666666" stroke="#666666" points="19.38,-58 19.38,-58 124.25,-58 124.25,-58 19.38,-58"/>
<polygon fill="none" stroke="#666666" points="0,0 0,-120 124.25,-120 124.25,0 0,0"/>
</a>
</g>
</g>
</g>
</svg>
