<?xml version="1.0" encoding="UTF-8" standalone="no"?>
<!DOCTYPE svg PUBLIC "-//W3C//DTD SVG 1.1//EN"
 "http://www.w3.org/Graphics/SVG/1.1/DTD/svg11.dtd">
<!-- Generated by graphviz version 13.1.0 (20250701.0955)
 -->
<!-- Title: BSP::Inputs Pages: 1 -->
<svg width="112pt" height="104pt"
 viewBox="0.00 0.00 112.00 104.00" xmlns="http://www.w3.org/2000/svg" xmlns:xlink="http://www.w3.org/1999/xlink">
<g id="graph0" class="graph" transform="scale(1 1) rotate(0) translate(4 100)">
<title>BSP::Inputs</title>
<!-- Node1 -->
<g id="Node000001" class="node">
<title>Node1</title>
<g id="a_Node000001"><a xlink:title="Manages multiple digital input ports and handles SPI&#45;based input scanning.">
<polygon fill="#999999" stroke="none" points="103.5,-96 0,-96 0,0 103.5,0 103.5,-96"/>
<text xml:space="preserve" text-anchor="start" x="25.12" y="-82.5" font-family="Helvetica,sans-Serif" font-size="10.00">BSP::Inputs</text>
<text xml:space="preserve" text-anchor="start" x="50.25" y="-66.5" font-family="Helvetica,sans-Serif" font-size="10.00"> </text>
<text xml:space="preserve" text-anchor="start" x="4" y="-50.5" font-family="Helvetica,sans-Serif" font-size="10.00">+</text>
<text xml:space="preserve" text-anchor="start" x="14" y="-50.5" font-family="Helvetica,sans-Serif" font-size="10.00">Inputs(const Config</text>
<text xml:space="preserve" text-anchor="start" x="14" y="-38.5" font-family="Helvetica,sans-Serif" font-size="10.00"> &amp;config)</text>
<text xml:space="preserve" text-anchor="start" x="4" y="-22.5" font-family="Helvetica,sans-Serif" font-size="10.00">+</text>
<text xml:space="preserve" text-anchor="start" x="14" y="-22.5" font-family="Helvetica,sans-Serif" font-size="10.00">~Inputs()</text>
<text xml:space="preserve" text-anchor="start" x="4" y="-6.5" font-family="Helvetica,sans-Serif" font-size="10.00">+</text>
<text xml:space="preserve" text-anchor="start" x="14" y="-6.5" font-family="Helvetica,sans-Serif" font-size="10.00">void init()</text>
<polygon fill="#666666" stroke="#666666" points="0,-78 0,-78 103.5,-78 103.5,-78 0,-78"/>
<polygon fill="#666666" stroke="#666666" points="0,-62 0,-62 103.5,-62 103.5,-62 0,-62"/>
<polygon fill="none" stroke="#666666" points="0,0 0,-96 103.5,-96 103.5,0 0,0"/>
</a>
</g>
</g>
</g>
</svg>
