<?xml version="1.0" encoding="UTF-8" standalone="no"?>
<!DOCTYPE svg PUBLIC "-//W3C//DTD SVG 1.1//EN"
 "http://www.w3.org/Graphics/SVG/1.1/DTD/svg11.dtd">
<!-- Generated by graphviz version 13.1.0 (20250701.0955)
 -->
<!-- Title: Container.hpp Pages: 1 -->
<svg width="357pt" height="84pt"
 viewBox="0.00 0.00 357.00 84.00" xmlns="http://www.w3.org/2000/svg" xmlns:xlink="http://www.w3.org/1999/xlink">
<g id="graph0" class="graph" transform="scale(1 1) rotate(0) translate(4 80)">
<title>Container.hpp</title>
<!-- Node1 -->
<g id="Node000001" class="node">
<title>Node1</title>
<g id="a_Node000001"><a xlink:title="Container template class for managing collections of pointer elements.">
<polygon fill="#999999" stroke="#666666" points="207.25,-76 130.5,-76 130.5,-56 207.25,-56 207.25,-76"/>
<text xml:space="preserve" text-anchor="middle" x="168.88" y="-62.5" font-family="Helvetica,sans-Serif" font-size="10.00">Container.hpp</text>
</a>
</g>
</g>
<!-- Node2 -->
<g id="Node000002" class="node">
<title>Node2</title>
<g id="a_Node000002"><a xlink:title=" ">
<polygon fill="#e0e0e0" stroke="#999999" points="55.75,-20 0,-20 0,0 55.75,0 55.75,-20"/>
<text xml:space="preserve" text-anchor="middle" x="27.88" y="-6.5" font-family="Helvetica,sans-Serif" font-size="10.00">algorithm</text>
</a>
</g>
</g>
<!-- Node1&#45;&gt;Node2 -->
<g id="edge1_Node000001_Node000002" class="edge">
<title>Node1&#45;&gt;Node2</title>
<g id="a_edge1_Node000001_Node000002"><a xlink:title=" ">
<path fill="none" stroke="#63b8ff" d="M144.31,-55.59C121.91,-47.01 88.54,-34.23 63.26,-24.55"/>
<polygon fill="#63b8ff" stroke="#63b8ff" points="64.63,-21.33 54.04,-21.02 62.13,-27.87 64.63,-21.33"/>
</a>
</g>
</g>
<!-- Node3 -->
<g id="Node000003" class="node">
<title>Node3</title>
<g id="a_Node000003"><a xlink:title=" ">
<polygon fill="#e0e0e0" stroke="#999999" points="122,-20 73.75,-20 73.75,0 122,0 122,-20"/>
<text xml:space="preserve" text-anchor="middle" x="97.88" y="-6.5" font-family="Helvetica,sans-Serif" font-size="10.00">cassert</text>
</a>
</g>
</g>
<!-- Node1&#45;&gt;Node3 -->
<g id="edge2_Node000001_Node000003" class="edge">
<title>Node1&#45;&gt;Node3</title>
<g id="a_edge2_Node000001_Node000003"><a xlink:title=" ">
<path fill="none" stroke="#63b8ff" d="M156.51,-55.59C146.23,-47.77 131.36,-36.46 119.16,-27.19"/>
<polygon fill="#63b8ff" stroke="#63b8ff" points="121.38,-24.48 111.31,-21.21 117.15,-30.05 121.38,-24.48"/>
</a>
</g>
</g>
<!-- Node4 -->
<g id="Node000004" class="node">
<title>Node4</title>
<g id="a_Node000004"><a xlink:title=" ">
<polygon fill="#e0e0e0" stroke="#999999" points="197.88,-20 139.88,-20 139.88,0 197.88,0 197.88,-20"/>
<text xml:space="preserve" text-anchor="middle" x="168.88" y="-6.5" font-family="Helvetica,sans-Serif" font-size="10.00">functional</text>
</a>
</g>
</g>
<!-- Node1&#45;&gt;Node4 -->
<g id="edge3_Node000001_Node000004" class="edge">
<title>Node1&#45;&gt;Node4</title>
<g id="a_edge3_Node000001_Node000004"><a xlink:title=" ">
<path fill="none" stroke="#63b8ff" d="M168.88,-55.59C168.88,-49.01 168.88,-39.96 168.88,-31.73"/>
<polygon fill="#63b8ff" stroke="#63b8ff" points="172.38,-31.81 168.88,-21.81 165.38,-31.81 172.38,-31.81"/>
</a>
</g>
</g>
<!-- Node5 -->
<g id="Node000005" class="node">
<title>Node5</title>
<g id="a_Node000005"><a xlink:title=" ">
<polygon fill="#e0e0e0" stroke="#999999" points="288,-20 215.75,-20 215.75,0 288,0 288,-20"/>
<text xml:space="preserve" text-anchor="middle" x="251.88" y="-6.5" font-family="Helvetica,sans-Serif" font-size="10.00">initializer_list</text>
</a>
</g>
</g>
<!-- Node1&#45;&gt;Node5 -->
<g id="edge4_Node000001_Node000005" class="edge">
<title>Node1&#45;&gt;Node5</title>
<g id="a_edge4_Node000001_Node000005"><a xlink:title=" ">
<path fill="none" stroke="#63b8ff" d="M183.33,-55.59C195.63,-47.59 213.55,-35.93 227.98,-26.54"/>
<polygon fill="#63b8ff" stroke="#63b8ff" points="229.56,-29.69 236.04,-21.3 225.75,-23.82 229.56,-29.69"/>
</a>
</g>
</g>
<!-- Node6 -->
<g id="Node000006" class="node">
<title>Node6</title>
<g id="a_Node000006"><a xlink:title=" ">
<polygon fill="#e0e0e0" stroke="#999999" points="349.38,-20 306.38,-20 306.38,0 349.38,0 349.38,-20"/>
<text xml:space="preserve" text-anchor="middle" x="327.88" y="-6.5" font-family="Helvetica,sans-Serif" font-size="10.00">vector</text>
</a>
</g>
</g>
<!-- Node1&#45;&gt;Node6 -->
<g id="edge5_Node000001_Node000006" class="edge">
<title>Node1&#45;&gt;Node6</title>
<g id="a_edge5_Node000001_Node000006"><a xlink:title=" ">
<path fill="none" stroke="#63b8ff" d="M196.57,-55.59C224.06,-46.26 266.19,-31.95 295.28,-22.07"/>
<polygon fill="#63b8ff" stroke="#63b8ff" points="296.33,-25.41 304.68,-18.88 294.08,-18.78 296.33,-25.41"/>
</a>
</g>
</g>
</g>
</svg>
