<?xml version="1.0" encoding="UTF-8" standalone="no"?>
<!DOCTYPE svg PUBLIC "-//W3C//DTD SVG 1.1//EN"
 "http://www.w3.org/Graphics/SVG/1.1/DTD/svg11.dtd">
<!-- Generated by graphviz version 13.1.0 (20250701.0955)
 -->
<!-- Title: Lib::Xbee::Core::Diagnostic Pages: 1 -->
<svg width="207pt" height="199pt"
 viewBox="0.00 0.00 207.00 199.00" xmlns="http://www.w3.org/2000/svg" xmlns:xlink="http://www.w3.org/1999/xlink">
<g id="graph0" class="graph" transform="scale(1 1) rotate(0) translate(4 195)">
<title>Lib::Xbee::Core::Diagnostic</title>
<!-- Node1 -->
<g id="Node000001" class="node">
<title>Node1</title>
<g id="a_Node000001"><a xlink:title="Diagnostic counters for XBEE API communication.">
<polygon fill="#999999" stroke="none" points="119.75,-18.5 0,-18.5 0,0 119.75,0 119.75,-18.5"/>
<text xml:space="preserve" text-anchor="start" x="4" y="-5.95" font-family="Arial" font-size="9.00">Lib::Xbee::Core::Diagnostic</text>
<polygon fill="none" stroke="#666666" points="0,0 0,-18.5 119.75,-18.5 119.75,0 0,0"/>
</a>
</g>
</g>
<!-- Node2 -->
<g id="Node000002" class="node">
<title>Node2</title>
<g id="a_Node000002"><a xlink:title=" ">
<polygon fill="white" stroke="none" points="80.38,-191 39.38,-191 39.38,-172.5 80.38,-172.5 80.38,-191"/>
<text xml:space="preserve" text-anchor="start" x="43.38" y="-178.45" font-family="Arial" font-size="9.00">uint32_t</text>
<polygon fill="none" stroke="#bfbfbf" points="39.38,-172.5 39.38,-191 80.38,-191 80.38,-172.5 39.38,-172.5"/>
</a>
</g>
</g>
<!-- Node2&#45;&gt;Node1 -->
<g id="edge1_Node000001_Node000002" class="edge">
<title>Node2&#45;&gt;Node1</title>
<g id="a_edge1_Node000001_Node000002"><a xlink:title=" ">
<path fill="none" stroke="#63b8ff" d="M59.88,-172.53C59.88,-147.1 59.88,-69.17 59.88,-31.32"/>
<polygon fill="none" stroke="#63b8ff" points="59.88,-31.29 55.88,-25.29 59.88,-19.29 63.88,-25.29 59.88,-31.29"/>
</a>
</g>
<text xml:space="preserve" text-anchor="start" x="62.88" y="-142.95" font-family="Arial" font-size="9.00" fill="grey">+ignoredMessagesByTimeout</text>
<text xml:space="preserve" text-anchor="start" x="62.88" y="-128.45" font-family="Arial" font-size="9.00" fill="grey">+invalidMessages</text>
<text xml:space="preserve" text-anchor="start" x="62.88" y="-113.95" font-family="Arial" font-size="9.00" fill="grey">+maxMsgLengthErrors</text>
<text xml:space="preserve" text-anchor="start" x="62.88" y="-99.45" font-family="Arial" font-size="9.00" fill="grey">+receivedAtCommandMessages</text>
<text xml:space="preserve" text-anchor="start" x="62.88" y="-84.95" font-family="Arial" font-size="9.00" fill="grey">+receivedDataMessages</text>
<text xml:space="preserve" text-anchor="start" x="62.88" y="-70.45" font-family="Arial" font-size="9.00" fill="grey">+sentAtCommandMessages</text>
<text xml:space="preserve" text-anchor="start" x="62.88" y="-55.95" font-family="Arial" font-size="9.00" fill="grey">+sentDataMessages</text>
<text xml:space="preserve" text-anchor="start" x="62.88" y="-41.45" font-family="Arial" font-size="9.00" fill="grey">+sentDataMessagesTimeout</text>
</g>
</g>
</svg>
