<?xml version="1.0" encoding="UTF-8" standalone="no"?>
<!DOCTYPE svg PUBLIC "-//W3C//DTD SVG 1.1//EN"
 "http://www.w3.org/Graphics/SVG/1.1/DTD/svg11.dtd">
<!-- Generated by graphviz version 13.1.0 (20250701.0955)
 -->
<!-- Title: Lib::BSP::Ethercat::PDI::LAN9252::Helper::U32 Pages: 1 -->
<svg width="339pt" height="493pt"
 viewBox="0.00 0.00 339.00 493.00" xmlns="http://www.w3.org/2000/svg" xmlns:xlink="http://www.w3.org/1999/xlink">
<g id="graph0" class="graph" transform="scale(1 1) rotate(0) translate(4 488.5)">
<title>Lib::BSP::Ethercat::PDI::LAN9252::Helper::U32</title>
<!-- Node1 -->
<g id="Node000001" class="node">
<title>Node1</title>
<g id="a_Node000001"><a xlink:title="Union for 32&#45;bit value access as words and bytes.">
<polygon fill="#999999" stroke="none" points="330.75,-280.5 0,-280.5 0,0 330.75,0 330.75,-280.5"/>
<text xml:space="preserve" text-anchor="start" x="106.88" y="-267.95" font-family="Arial" font-size="9.00">Lib::BSP::Ethercat</text>
<text xml:space="preserve" text-anchor="start" x="106.88" y="-257.45" font-family="Arial" font-size="9.00">::PDI::LAN9252::Helper::U32</text>
<text xml:space="preserve" text-anchor="start" x="4" y="-242.95" font-family="Arial" font-size="9.00">+</text>
<text xml:space="preserve" text-anchor="start" x="13.25" y="-242.95" font-family="Arial" font-size="9.00">uint32_t value</text>
<text xml:space="preserve" text-anchor="start" x="4" y="-228.45" font-family="Arial" font-size="9.00">+</text>
<text xml:space="preserve" text-anchor="start" x="13.25" y="-228.45" font-family="Arial" font-size="9.00">uint16_t words</text>
<text xml:space="preserve" text-anchor="start" x="4" y="-213.95" font-family="Arial" font-size="9.00">+</text>
<text xml:space="preserve" text-anchor="start" x="13.25" y="-213.95" font-family="Arial" font-size="9.00">uint8_t bytes</text>
<text xml:space="preserve" text-anchor="start" x="4" y="-199.45" font-family="Arial" font-size="9.00">+</text>
<text xml:space="preserve" text-anchor="start" x="13.25" y="-199.45" font-family="Arial" font-size="9.00">uint16_t lowWord</text>
<text xml:space="preserve" text-anchor="start" x="4" y="-184.95" font-family="Arial" font-size="9.00">+</text>
<text xml:space="preserve" text-anchor="start" x="13.25" y="-184.95" font-family="Arial" font-size="9.00">uint16_t highWord</text>
<text xml:space="preserve" text-anchor="start" x="4" y="-170.45" font-family="Arial" font-size="9.00">+</text>
<text xml:space="preserve" text-anchor="start" x="13.25" y="-170.45" font-family="Arial" font-size="9.00">struct Lib::BSP::Ethercat</text>
<text xml:space="preserve" text-anchor="start" x="13.25" y="-159.95" font-family="Arial" font-size="9.00">::PDI::LAN9252::Helper</text>
<text xml:space="preserve" text-anchor="start" x="13.25" y="-149.45" font-family="Arial" font-size="9.00">::U32::@157142323005345252064073052341261303256311277373 word</text>
<text xml:space="preserve" text-anchor="start" x="4" y="-134.95" font-family="Arial" font-size="9.00">+</text>
<text xml:space="preserve" text-anchor="start" x="13.25" y="-134.95" font-family="Arial" font-size="9.00">uint8_t lowByte</text>
<text xml:space="preserve" text-anchor="start" x="4" y="-120.45" font-family="Arial" font-size="9.00">+</text>
<text xml:space="preserve" text-anchor="start" x="13.25" y="-120.45" font-family="Arial" font-size="9.00">uint8_t highByte</text>
<text xml:space="preserve" text-anchor="start" x="4" y="-105.95" font-family="Arial" font-size="9.00">+</text>
<text xml:space="preserve" text-anchor="start" x="13.25" y="-105.95" font-family="Arial" font-size="9.00">uint8_t upperByte</text>
<text xml:space="preserve" text-anchor="start" x="4" y="-91.45" font-family="Arial" font-size="9.00">+</text>
<text xml:space="preserve" text-anchor="start" x="13.25" y="-91.45" font-family="Arial" font-size="9.00">uint8_t mostByte</text>
<text xml:space="preserve" text-anchor="start" x="4" y="-76.95" font-family="Arial" font-size="9.00">+</text>
<text xml:space="preserve" text-anchor="start" x="13.25" y="-76.95" font-family="Arial" font-size="9.00">struct Lib::BSP::Ethercat</text>
<text xml:space="preserve" text-anchor="start" x="13.25" y="-66.45" font-family="Arial" font-size="9.00">::PDI::LAN9252::Helper</text>
<text xml:space="preserve" text-anchor="start" x="13.25" y="-55.95" font-family="Arial" font-size="9.00">::U32::@133240142123101261120133330346016003036176267275 byte</text>
<text xml:space="preserve" text-anchor="start" x="4" y="-41.45" font-family="Arial" font-size="9.00">+</text>
<text xml:space="preserve" text-anchor="start" x="13.25" y="-41.45" font-family="Arial" font-size="9.00">struct Lib::BSP::Ethercat</text>
<text xml:space="preserve" text-anchor="start" x="13.25" y="-30.95" font-family="Arial" font-size="9.00">::PDI::LAN9252::Helper</text>
<text xml:space="preserve" text-anchor="start" x="13.25" y="-20.45" font-family="Arial" font-size="9.00">::U32::@357015336047015003172107362337270011376334011357 uword</text>
<text xml:space="preserve" text-anchor="start" x="164.25" y="-5.95" font-family="Arial" font-size="9.00"> </text>
<polygon fill="#666666" stroke="#666666" points="0,-253.5 0,-253.5 330.75,-253.5 330.75,-253.5 0,-253.5"/>
<polygon fill="#666666" stroke="#666666" points="0,-16.5 0,-16.5 11.25,-16.5 11.25,-16.5 0,-16.5"/>
<polygon fill="#666666" stroke="#666666" points="11.25,-16.5 11.25,-16.5 330.75,-16.5 330.75,-16.5 11.25,-16.5"/>
<polygon fill="none" stroke="#666666" points="0,0 0,-280.5 330.75,-280.5 330.75,0 0,0"/>
</a>
</g>
</g>
<!-- Node2 -->
<g id="Node000002" class="node">
<title>Node2</title>
<g id="a_Node000002"><a xlink:href="../../dd/d37/union_lib_1_1_b_s_p_1_1_ethercat_1_1_p_d_i_1_1_l_a_n9252_1_1_helper_1_1_u16.html" target="_top" xlink:title="Union for 16&#45;bit value access as bytes.">
<polygon fill="white" stroke="none" points="327.38,-484.5 3.38,-484.5 3.38,-347.5 327.38,-347.5 327.38,-484.5"/>
<text xml:space="preserve" text-anchor="start" x="106.88" y="-471.95" font-family="Arial" font-size="9.00">Lib::BSP::Ethercat</text>
<text xml:space="preserve" text-anchor="start" x="106.88" y="-461.45" font-family="Arial" font-size="9.00">::PDI::LAN9252::Helper::U16</text>
<text xml:space="preserve" text-anchor="start" x="7.38" y="-446.95" font-family="Arial" font-size="9.00">+</text>
<text xml:space="preserve" text-anchor="start" x="16.62" y="-446.95" font-family="Arial" font-size="9.00">uint16_t value</text>
<text xml:space="preserve" text-anchor="start" x="7.38" y="-432.45" font-family="Arial" font-size="9.00">+</text>
<text xml:space="preserve" text-anchor="start" x="16.62" y="-432.45" font-family="Arial" font-size="9.00">uint8_t bytes</text>
<text xml:space="preserve" text-anchor="start" x="7.38" y="-417.95" font-family="Arial" font-size="9.00">+</text>
<text xml:space="preserve" text-anchor="start" x="16.62" y="-417.95" font-family="Arial" font-size="9.00">uint8_t lowByte</text>
<text xml:space="preserve" text-anchor="start" x="7.38" y="-403.45" font-family="Arial" font-size="9.00">+</text>
<text xml:space="preserve" text-anchor="start" x="16.62" y="-403.45" font-family="Arial" font-size="9.00">uint8_t highByte</text>
<text xml:space="preserve" text-anchor="start" x="7.38" y="-388.95" font-family="Arial" font-size="9.00">+</text>
<text xml:space="preserve" text-anchor="start" x="16.62" y="-388.95" font-family="Arial" font-size="9.00">struct Lib::BSP::Ethercat</text>
<text xml:space="preserve" text-anchor="start" x="16.62" y="-378.45" font-family="Arial" font-size="9.00">::PDI::LAN9252::Helper</text>
<text xml:space="preserve" text-anchor="start" x="16.62" y="-367.95" font-family="Arial" font-size="9.00">::U16::@023054350214324073354270231006240327225303123350 byte</text>
<text xml:space="preserve" text-anchor="start" x="164.25" y="-353.45" font-family="Arial" font-size="9.00"> </text>
<polygon fill="#666666" stroke="#666666" points="3.38,-457.5 3.38,-457.5 327.38,-457.5 327.38,-457.5 3.38,-457.5"/>
<polygon fill="#666666" stroke="#666666" points="3.38,-364 3.38,-364 14.62,-364 14.62,-364 3.38,-364"/>
<polygon fill="#666666" stroke="#666666" points="14.62,-364 14.62,-364 327.38,-364 327.38,-364 14.62,-364"/>
<polygon fill="none" stroke="#666666" points="3.38,-347.5 3.38,-484.5 327.38,-484.5 327.38,-347.5 3.38,-347.5"/>
</a>
</g>
</g>
<!-- Node2&#45;&gt;Node1 -->
<g id="edge1_Node000001_Node000002" class="edge">
<title>Node2&#45;&gt;Node1</title>
<g id="a_edge1_Node000001_Node000002"><a xlink:title=" ">
<path fill="none" stroke="#63b8ff" d="M165.38,-347.68C165.38,-330.95 165.38,-312.32 165.38,-293.3"/>
<polygon fill="none" stroke="#63b8ff" points="165.38,-293.32 161.38,-287.32 165.38,-281.32 169.38,-287.32 165.38,-293.32"/>
</a>
</g>
<text xml:space="preserve" text-anchor="start" x="168.38" y="-317.95" font-family="Arial" font-size="9.00" fill="grey">+high</text>
<text xml:space="preserve" text-anchor="start" x="168.38" y="-303.45" font-family="Arial" font-size="9.00" fill="grey">+low</text>
</g>
</g>
</svg>
