<?xml version="1.0" encoding="UTF-8" standalone="no"?>
<!DOCTYPE svg PUBLIC "-//W3C//DTD SVG 1.1//EN"
 "http://www.w3.org/Graphics/SVG/1.1/DTD/svg11.dtd">
<!-- Generated by graphviz version 13.1.0 (20250701.0955)
 -->
<!-- Title: Lib::HAL::GPIO::ExtInterrupt::DeviceManager::instance Pages: 1 -->
<svg width="506pt" height="90pt"
 viewBox="0.00 0.00 506.00 90.00" xmlns="http://www.w3.org/2000/svg" xmlns:xlink="http://www.w3.org/1999/xlink">
<g id="graph0" class="graph" transform="scale(1 1) rotate(0) translate(4 86)">
<title>Lib::HAL::GPIO::ExtInterrupt::DeviceManager::instance</title>
<!-- Node1 -->
<g id="Node000001" class="node">
<title>Node1</title>
<g id="a_Node000001"><a xlink:title="Retrieves the singleton instance of the DeviceManager.">
<polygon fill="#999999" stroke="#666666" points="498,-57 356,-57 356,-25 498,-25 498,-57"/>
<text xml:space="preserve" text-anchor="start" x="364" y="-43.5" font-family="Helvetica,sans-Serif" font-size="10.00">Lib::HAL::GPIO::ExtInterrupt</text>
<text xml:space="preserve" text-anchor="middle" x="427" y="-31.5" font-family="Helvetica,sans-Serif" font-size="10.00">::DeviceManager::instance</text>
</a>
</g>
</g>
<!-- Node1&#45;&gt;Node1 -->
<g id="edge2_Node000001_Node000001" class="edge">
<title>Node1&#45;&gt;Node1</title>
<g id="a_edge2_Node000001_Node000001"><a xlink:title=" ">
<path fill="none" stroke="#63b8ff" d="M456.66,-68.71C451.72,-72.48 441.83,-75 427,-75 399.88,-75 389.29,-66.58 395.22,-57.44"/>
<polygon fill="#63b8ff" stroke="#63b8ff" points="460.09,-69.4 458.5,-58.93 453.21,-68.11 460.09,-69.4"/>
</a>
</g>
</g>
<!-- Node2 -->
<g id="Node000002" class="node">
<title>Node2</title>
<g id="a_Node000002"><a xlink:href="../../d2/d2f/a01460.html#a6301a8ebc9d990f5e6a5456521d0c9a2" target="_top" xlink:title="Binds a callback function to the external interrupt.">
<polygon fill="white" stroke="#666666" points="320,-82 178,-82 178,-50 320,-50 320,-82"/>
<text xml:space="preserve" text-anchor="start" x="186" y="-68.5" font-family="Helvetica,sans-Serif" font-size="10.00">Lib::HAL::GPIO::ExtInterrupt</text>
<text xml:space="preserve" text-anchor="middle" x="249" y="-56.5" font-family="Helvetica,sans-Serif" font-size="10.00">::bind</text>
</a>
</g>
</g>
<!-- Node1&#45;&gt;Node2 -->
<g id="edge1_Node000001_Node000002" class="edge">
<title>Node1&#45;&gt;Node2</title>
<g id="a_edge1_Node000001_Node000002"><a xlink:title=" ">
<path fill="none" stroke="#63b8ff" d="M344.45,-52.58C336.44,-53.72 328.37,-54.87 320.49,-55.99"/>
<polygon fill="#63b8ff" stroke="#63b8ff" points="344.77,-56.07 354.18,-51.2 343.79,-49.14 344.77,-56.07"/>
</a>
</g>
</g>
<!-- Node3 -->
<g id="Node000003" class="node">
<title>Node3</title>
<g id="a_Node000003"><a xlink:href="../../d2/d2f/a01460.html#aa97095656a7722cd726dcb602fee85fa" target="_top" xlink:title="Unbinds the callback and removes the device from the manager.">
<polygon fill="white" stroke="#666666" points="320,-32 178,-32 178,0 320,0 320,-32"/>
<text xml:space="preserve" text-anchor="start" x="186" y="-18.5" font-family="Helvetica,sans-Serif" font-size="10.00">Lib::HAL::GPIO::ExtInterrupt</text>
<text xml:space="preserve" text-anchor="middle" x="249" y="-6.5" font-family="Helvetica,sans-Serif" font-size="10.00">::unbind</text>
</a>
</g>
</g>
<!-- Node1&#45;&gt;Node3 -->
<g id="edge3_Node000001_Node000003" class="edge">
<title>Node1&#45;&gt;Node3</title>
<g id="a_edge3_Node000001_Node000003"><a xlink:title=" ">
<path fill="none" stroke="#63b8ff" d="M344.45,-29.42C336.44,-28.28 328.37,-27.13 320.49,-26.01"/>
<polygon fill="#63b8ff" stroke="#63b8ff" points="343.79,-32.86 354.18,-30.8 344.77,-25.93 343.79,-32.86"/>
</a>
</g>
</g>
<!-- Node4 -->
<g id="Node000004" class="node">
<title>Node4</title>
<g id="a_Node000004"><a xlink:href="../../d2/d2f/a01460.html#a0500efb3e0dbde6f95fd02948060723b" target="_top" xlink:title="Destructor for ExtInterrupt.">
<polygon fill="white" stroke="#666666" points="142,-32 0,-32 0,0 142,0 142,-32"/>
<text xml:space="preserve" text-anchor="start" x="8" y="-18.5" font-family="Helvetica,sans-Serif" font-size="10.00">Lib::HAL::GPIO::ExtInterrupt</text>
<text xml:space="preserve" text-anchor="middle" x="71" y="-6.5" font-family="Helvetica,sans-Serif" font-size="10.00">::~ExtInterrupt</text>
</a>
</g>
</g>
<!-- Node3&#45;&gt;Node4 -->
<g id="edge4_Node000003_Node000004" class="edge">
<title>Node3&#45;&gt;Node4</title>
<g id="a_edge4_Node000003_Node000004"><a xlink:title=" ">
<path fill="none" stroke="#63b8ff" d="M166.17,-16C158.26,-16 150.28,-16 142.49,-16"/>
<polygon fill="#63b8ff" stroke="#63b8ff" points="166.17,-19.5 176.17,-16 166.17,-12.5 166.17,-19.5"/>
</a>
</g>
</g>
</g>
</svg>
