<?xml version="1.0" encoding="UTF-8" standalone="no"?>
<!DOCTYPE svg PUBLIC "-//W3C//DTD SVG 1.1//EN"
 "http://www.w3.org/Graphics/SVG/1.1/DTD/svg11.dtd">
<!-- Generated by graphviz version 13.1.0 (20250701.0955)
 -->
<!-- Title: Node.hpp Pages: 1 -->
<svg width="355pt" height="140pt"
 viewBox="0.00 0.00 355.00 140.00" xmlns="http://www.w3.org/2000/svg" xmlns:xlink="http://www.w3.org/1999/xlink">
<g id="graph0" class="graph" transform="scale(1 1) rotate(0) translate(4 136)">
<title>Node.hpp</title>
<!-- Node1 -->
<g id="Node000001" class="node">
<title>Node1</title>
<g id="a_Node000001"><a xlink:title="Ethernet Node class.">
<polygon fill="#999999" stroke="#666666" points="261.62,-132 203.62,-132 203.62,-112 261.62,-112 261.62,-132"/>
<text xml:space="preserve" text-anchor="middle" x="232.62" y="-118.5" font-family="Helvetica,sans-Serif" font-size="10.00">Node.hpp</text>
</a>
</g>
</g>
<!-- Node2 -->
<g id="Node000002" class="node">
<title>Node2</title>
<g id="a_Node000002"><a xlink:href="../../dd/da2/_i_p_address_8hpp_source.html" target="_top" xlink:title=" ">
<polygon fill="white" stroke="#666666" points="230.12,-76 151.12,-76 151.12,-56 230.12,-56 230.12,-76"/>
<text xml:space="preserve" text-anchor="middle" x="190.62" y="-62.5" font-family="Helvetica,sans-Serif" font-size="10.00">IpAddress.hpp</text>
</a>
</g>
</g>
<!-- Node1&#45;&gt;Node2 -->
<g id="edge1_Node000001_Node000002" class="edge">
<title>Node1&#45;&gt;Node2</title>
<g id="a_edge1_Node000001_Node000002"><a xlink:title=" ">
<path fill="none" stroke="#63b8ff" d="M225.31,-111.59C219.65,-104.32 211.64,-94.02 204.74,-85.15"/>
<polygon fill="#63b8ff" stroke="#63b8ff" points="207.69,-83.24 198.79,-77.49 202.16,-87.54 207.69,-83.24"/>
</a>
</g>
</g>
<!-- Node9 -->
<g id="Node000009" class="node">
<title>Node9</title>
<g id="a_Node000009"><a xlink:href="../../d7/daf/_ethernet_2base_2_port_8hpp.html" target="_top" xlink:title="TCP Port class.">
<polygon fill="white" stroke="#666666" points="301,-76 248.25,-76 248.25,-56 301,-56 301,-76"/>
<text xml:space="preserve" text-anchor="middle" x="274.62" y="-62.5" font-family="Helvetica,sans-Serif" font-size="10.00">Port.hpp</text>
</a>
</g>
</g>
<!-- Node1&#45;&gt;Node9 -->
<g id="edge8_Node000001_Node000009" class="edge">
<title>Node1&#45;&gt;Node9</title>
<g id="a_edge8_Node000001_Node000009"><a xlink:title=" ">
<path fill="none" stroke="#63b8ff" d="M239.94,-111.59C245.6,-104.32 253.61,-94.02 260.51,-85.15"/>
<polygon fill="#63b8ff" stroke="#63b8ff" points="263.09,-87.54 266.46,-77.49 257.56,-83.24 263.09,-87.54"/>
</a>
</g>
</g>
<!-- Node3 -->
<g id="Node000003" class="node">
<title>Node3</title>
<g id="a_Node000003"><a xlink:title=" ">
<polygon fill="#e0e0e0" stroke="#999999" points="158.5,-20 120.75,-20 120.75,0 158.5,0 158.5,-20"/>
<text xml:space="preserve" text-anchor="middle" x="139.62" y="-6.5" font-family="Helvetica,sans-Serif" font-size="10.00">array</text>
</a>
</g>
</g>
<!-- Node2&#45;&gt;Node3 -->
<g id="edge2_Node000002_Node000003" class="edge">
<title>Node2&#45;&gt;Node3</title>
<g id="a_edge2_Node000002_Node000003"><a xlink:title=" ">
<path fill="none" stroke="#63b8ff" d="M181.74,-55.59C174.72,-48.16 164.72,-37.58 156.23,-28.58"/>
<polygon fill="#63b8ff" stroke="#63b8ff" points="158.86,-26.27 149.45,-21.4 153.77,-31.07 158.86,-26.27"/>
</a>
</g>
</g>
<!-- Node4 -->
<g id="Node000004" class="node">
<title>Node4</title>
<g id="a_Node000004"><a xlink:title=" ">
<polygon fill="#e0e0e0" stroke="#999999" points="224.75,-20 176.5,-20 176.5,0 224.75,0 224.75,-20"/>
<text xml:space="preserve" text-anchor="middle" x="200.62" y="-6.5" font-family="Helvetica,sans-Serif" font-size="10.00">cassert</text>
</a>
</g>
</g>
<!-- Node2&#45;&gt;Node4 -->
<g id="edge3_Node000002_Node000004" class="edge">
<title>Node2&#45;&gt;Node4</title>
<g id="a_edge3_Node000002_Node000004"><a xlink:title=" ">
<path fill="none" stroke="#63b8ff" d="M192.37,-55.59C193.6,-48.93 195.3,-39.75 196.84,-31.44"/>
<polygon fill="#63b8ff" stroke="#63b8ff" points="200.25,-32.26 198.63,-21.79 193.37,-30.98 200.25,-32.26"/>
</a>
</g>
</g>
<!-- Node5 -->
<g id="Node000005" class="node">
<title>Node5</title>
<g id="a_Node000005"><a xlink:title=" ">
<polygon fill="#e0e0e0" stroke="#999999" points="288.25,-20 243,-20 243,0 288.25,0 288.25,-20"/>
<text xml:space="preserve" text-anchor="middle" x="265.62" y="-6.5" font-family="Helvetica,sans-Serif" font-size="10.00">cstdint</text>
</a>
</g>
</g>
<!-- Node2&#45;&gt;Node5 -->
<g id="edge4_Node000002_Node000005" class="edge">
<title>Node2&#45;&gt;Node5</title>
<g id="a_edge4_Node000002_Node000005"><a xlink:title=" ">
<path fill="none" stroke="#63b8ff" d="M203.69,-55.59C214.59,-47.74 230.38,-36.38 243.28,-27.09"/>
<polygon fill="#63b8ff" stroke="#63b8ff" points="245.16,-30.05 251.23,-21.36 241.07,-24.37 245.16,-30.05"/>
</a>
</g>
</g>
<!-- Node6 -->
<g id="Node000006" class="node">
<title>Node6</title>
<g id="a_Node000006"><a xlink:title=" ">
<polygon fill="#e0e0e0" stroke="#999999" points="45.25,-20 0,-20 0,0 45.25,0 45.25,-20"/>
<text xml:space="preserve" text-anchor="middle" x="22.62" y="-6.5" font-family="Helvetica,sans-Serif" font-size="10.00">cstring</text>
</a>
</g>
</g>
<!-- Node2&#45;&gt;Node6 -->
<g id="edge5_Node000002_Node000006" class="edge">
<title>Node2&#45;&gt;Node6</title>
<g id="a_edge5_Node000002_Node000006"><a xlink:title=" ">
<path fill="none" stroke="#63b8ff" d="M161.36,-55.59C132.06,-46.17 87.01,-31.7 56.25,-21.81"/>
<polygon fill="#63b8ff" stroke="#63b8ff" points="57.65,-18.58 47.06,-18.85 55.51,-25.25 57.65,-18.58"/>
</a>
</g>
</g>
<!-- Node7 -->
<g id="Node000007" class="node">
<title>Node7</title>
<g id="a_Node000007"><a xlink:title=" ">
<polygon fill="#e0e0e0" stroke="#999999" points="102.25,-20 63,-20 63,0 102.25,0 102.25,-20"/>
<text xml:space="preserve" text-anchor="middle" x="82.62" y="-6.5" font-family="Helvetica,sans-Serif" font-size="10.00">limits</text>
</a>
</g>
</g>
<!-- Node2&#45;&gt;Node7 -->
<g id="edge6_Node000002_Node000007" class="edge">
<title>Node2&#45;&gt;Node7</title>
<g id="a_edge6_Node000002_Node000007"><a xlink:title=" ">
<path fill="none" stroke="#63b8ff" d="M171.81,-55.59C155.27,-47.32 130.91,-35.14 111.83,-25.6"/>
<polygon fill="#63b8ff" stroke="#63b8ff" points="113.45,-22.5 102.94,-21.16 110.32,-28.76 113.45,-22.5"/>
</a>
</g>
</g>
<!-- Node8 -->
<g id="Node000008" class="node">
<title>Node8</title>
<g id="a_Node000008"><a xlink:title=" ">
<polygon fill="#e0e0e0" stroke="#999999" points="346.62,-20 306.62,-20 306.62,0 346.62,0 346.62,-20"/>
<text xml:space="preserve" text-anchor="middle" x="326.62" y="-6.5" font-family="Helvetica,sans-Serif" font-size="10.00">string</text>
</a>
</g>
</g>
<!-- Node2&#45;&gt;Node8 -->
<g id="edge7_Node000002_Node000008" class="edge">
<title>Node2&#45;&gt;Node8</title>
<g id="a_edge7_Node000002_Node000008"><a xlink:title=" ">
<path fill="none" stroke="#63b8ff" d="M214.31,-55.59C236.88,-46.63 270.99,-33.09 295.7,-23.28"/>
<polygon fill="#63b8ff" stroke="#63b8ff" points="296.9,-26.57 304.9,-19.62 294.32,-20.06 296.9,-26.57"/>
</a>
</g>
</g>
<!-- Node9&#45;&gt;Node5 -->
<g id="edge9_Node000009_Node000005" class="edge">
<title>Node9&#45;&gt;Node5</title>
<g id="a_edge9_Node000009_Node000005"><a xlink:title=" ">
<path fill="none" stroke="#63b8ff" d="M273.06,-55.59C271.95,-48.93 270.42,-39.75 269.03,-31.44"/>
<polygon fill="#63b8ff" stroke="#63b8ff" points="272.52,-31.08 267.42,-21.79 265.62,-32.23 272.52,-31.08"/>
</a>
</g>
</g>
<!-- Node9&#45;&gt;Node8 -->
<g id="edge10_Node000009_Node000008" class="edge">
<title>Node9&#45;&gt;Node8</title>
<g id="a_edge10_Node000009_Node000008"><a xlink:title=" ">
<path fill="none" stroke="#63b8ff" d="M283.68,-55.59C290.84,-48.16 301.03,-37.58 309.69,-28.58"/>
<polygon fill="#63b8ff" stroke="#63b8ff" points="312.21,-31.02 316.62,-21.39 307.16,-26.16 312.21,-31.02"/>
</a>
</g>
</g>
</g>
</svg>
