<?xml version="1.0" encoding="UTF-8" standalone="no"?>
<!DOCTYPE svg PUBLIC "-//W3C//DTD SVG 1.1//EN"
 "http://www.w3.org/Graphics/SVG/1.1/DTD/svg11.dtd">
<!-- Generated by graphviz version 13.1.0 (20250701.0955)
 -->
<!-- Title: Lib::HAL::CAN::Filter::setFilterActivation Pages: 1 -->
<svg width="530pt" height="37pt"
 viewBox="0.00 0.00 530.00 37.00" xmlns="http://www.w3.org/2000/svg" xmlns:xlink="http://www.w3.org/1999/xlink">
<g id="graph0" class="graph" transform="scale(1 1) rotate(0) translate(4 33)">
<title>Lib::HAL::CAN::Filter::setFilterActivation</title>
<!-- Node1 -->
<g id="Node000001" class="node">
<title>Node1</title>
<g id="a_Node000001"><a xlink:title="Sets filter activation state.">
<polygon fill="#999999" stroke="#666666" points="521.5,-29 421.5,-29 421.5,0 521.5,0 521.5,-29"/>
<text xml:space="preserve" text-anchor="start" x="429.5" y="-16.45" font-family="Arial" font-size="9.00">Lib::HAL::CAN::Filter</text>
<text xml:space="preserve" text-anchor="middle" x="471.5" y="-5.95" font-family="Arial" font-size="9.00">::setFilterActivation</text>
</a>
</g>
</g>
<!-- Node2 -->
<g id="Node000002" class="node">
<title>Node2</title>
<g id="a_Node000002"><a xlink:href="../../da/d1a/class_lib_1_1_h_a_l_1_1_c_a_n_1_1_filter.html#a325c373c3bd483d57d79db1f64fe9d1b" target="_top" xlink:title="Enables or disables the filter.">
<polygon fill="white" stroke="#666666" points="385.5,-29 285.5,-29 285.5,0 385.5,0 385.5,-29"/>
<text xml:space="preserve" text-anchor="start" x="293.5" y="-16.45" font-family="Arial" font-size="9.00">Lib::HAL::CAN::Filter</text>
<text xml:space="preserve" text-anchor="middle" x="335.5" y="-5.95" font-family="Arial" font-size="9.00">::enable</text>
</a>
</g>
</g>
<!-- Node1&#45;&gt;Node2 -->
<g id="edge1_Node000001_Node000002" class="edge">
<title>Node1&#45;&gt;Node2</title>
<g id="a_edge1_Node000001_Node000002"><a xlink:title=" ">
<path fill="none" stroke="#63b8ff" d="M409.98,-14.5C401.83,-14.5 393.55,-14.5 385.63,-14.5"/>
<polygon fill="#63b8ff" stroke="#63b8ff" points="409.85,-18 419.85,-14.5 409.85,-11 409.85,-18"/>
</a>
</g>
</g>
<!-- Node3 -->
<g id="Node000003" class="node">
<title>Node3</title>
<g id="a_Node000003"><a xlink:href="../../d8/dc1/class_lib_1_1_h_a_l_1_1_c_a_n_1_1_port_base.html#a14d7f125e79116cc3dd489283d7445b7" target="_top" xlink:title="Configures the CAN filter.">
<polygon fill="white" stroke="#666666" points="249.5,-29 132.25,-29 132.25,0 249.5,0 249.5,-29"/>
<text xml:space="preserve" text-anchor="start" x="140.25" y="-16.45" font-family="Arial" font-size="9.00">Lib::HAL::CAN::PortBase</text>
<text xml:space="preserve" text-anchor="middle" x="190.88" y="-5.95" font-family="Arial" font-size="9.00">::setFilter</text>
</a>
</g>
</g>
<!-- Node2&#45;&gt;Node3 -->
<g id="edge2_Node000002_Node000003" class="edge">
<title>Node2&#45;&gt;Node3</title>
<g id="a_edge2_Node000002_Node000003"><a xlink:title=" ">
<path fill="none" stroke="#63b8ff" d="M273.55,-14.5C265.61,-14.5 257.49,-14.5 249.6,-14.5"/>
<polygon fill="#63b8ff" stroke="#63b8ff" points="273.5,-18 283.5,-14.5 273.5,-11 273.5,-18"/>
</a>
</g>
</g>
<!-- Node4 -->
<g id="Node000004" class="node">
<title>Node4</title>
<g id="a_Node000004"><a xlink:href="../../d1/db0/class_lib_1_1_h_a_l_1_1_c_a_n_1_1_port.html#af2028bbd5afcd65d8e3d1b4eebbd3cce" target="_top" xlink:title="Sets a CAN message filter.">
<polygon fill="white" stroke="#666666" points="96.25,-29 0,-29 0,0 96.25,0 96.25,-29"/>
<text xml:space="preserve" text-anchor="start" x="8" y="-16.45" font-family="Arial" font-size="9.00">Lib::HAL::CAN::Port</text>
<text xml:space="preserve" text-anchor="middle" x="48.12" y="-5.95" font-family="Arial" font-size="9.00">::setFilter</text>
</a>
</g>
</g>
<!-- Node3&#45;&gt;Node4 -->
<g id="edge3_Node000003_Node000004" class="edge">
<title>Node3&#45;&gt;Node4</title>
<g id="a_edge3_Node000003_Node000004"><a xlink:title=" ">
<path fill="none" stroke="#63b8ff" d="M120.36,-14.5C112.22,-14.5 104.06,-14.5 96.33,-14.5"/>
<polygon fill="#63b8ff" stroke="#63b8ff" points="120.3,-18 130.3,-14.5 120.3,-11 120.3,-18"/>
</a>
</g>
</g>
</g>
</svg>
