<?xml version="1.0" encoding="UTF-8" standalone="no"?>
<!DOCTYPE svg PUBLIC "-//W3C//DTD SVG 1.1//EN"
 "http://www.w3.org/Graphics/SVG/1.1/DTD/svg11.dtd">
<!-- Generated by graphviz version 13.1.0 (20250701.0955)
 -->
<!-- Title: Group.hpp Pages: 1 -->
<svg width="131pt" height="196pt"
 viewBox="0.00 0.00 131.00 196.00" xmlns="http://www.w3.org/2000/svg" xmlns:xlink="http://www.w3.org/1999/xlink">
<g id="graph0" class="graph" transform="scale(1 1) rotate(0) translate(4 192)">
<title>Group.hpp</title>
<!-- Node1 -->
<g id="Node000001" class="node">
<title>Node1</title>
<g id="a_Node000001"><a xlink:title="Defines the Group class for logical error grouping and management.">
<polygon fill="#999999" stroke="#666666" points="69.89,-188 8.89,-188 8.89,-168 69.89,-168 69.89,-188"/>
<text xml:space="preserve" text-anchor="middle" x="39.39" y="-174.5" font-family="Helvetica,sans-Serif" font-size="10.00">Group.hpp</text>
</a>
</g>
</g>
<!-- Node2 -->
<g id="Node000002" class="node">
<title>Node2</title>
<g id="a_Node000002"><a xlink:href="../../d8/db5/_dispatcher_8hpp.html" target="_top" xlink:title="Manages error instances and their states.">
<polygon fill="white" stroke="#666666" points="96.39,-76 14.39,-76 14.39,-56 96.39,-56 96.39,-76"/>
<text xml:space="preserve" text-anchor="middle" x="55.39" y="-62.5" font-family="Helvetica,sans-Serif" font-size="10.00">Dispatcher.hpp</text>
</a>
</g>
</g>
<!-- Node1&#45;&gt;Node2 -->
<g id="edge1_Node000001_Node000002" class="edge">
<title>Node1&#45;&gt;Node2</title>
<g id="a_edge1_Node000001_Node000002"><a xlink:title=" ">
<path fill="none" stroke="#63b8ff" d="M42.4,-156.31C45.89,-132.36 51.47,-93.95 54.03,-76.35"/>
<polygon fill="#63b8ff" stroke="#63b8ff" points="38.95,-155.72 40.98,-166.12 45.88,-156.73 38.95,-155.72"/>
</a>
</g>
</g>
<!-- Node3 -->
<g id="Node000003" class="node">
<title>Node3</title>
<g id="a_Node000003"><a xlink:href="../../da/dc7/_observer_8hpp.html" target="_top" xlink:title="Defines the Observer class for monitoring and managing error states.">
<polygon fill="white" stroke="#666666" points="92.64,-20 18.14,-20 18.14,0 92.64,0 92.64,-20"/>
<text xml:space="preserve" text-anchor="middle" x="55.39" y="-6.5" font-family="Helvetica,sans-Serif" font-size="10.00">Observer.hpp</text>
</a>
</g>
</g>
<!-- Node1&#45;&gt;Node3 -->
<g id="edge6_Node000001_Node000003" class="edge">
<title>Node1&#45;&gt;Node3</title>
<g id="a_edge6_Node000001_Node000003"><a xlink:title=" ">
<path fill="none" stroke="#63b8ff" d="M26.24,-158.11C11.05,-133.79 -9.99,-90.55 5.39,-56 12.24,-40.64 27.2,-28.32 38.99,-20.48"/>
<polygon fill="#63b8ff" stroke="#63b8ff" points="23.21,-159.88 31.63,-166.31 29.06,-156.03 23.21,-159.88"/>
</a>
</g>
</g>
<!-- Node4 -->
<g id="Node000004" class="node">
<title>Node4</title>
<g id="a_Node000004"><a xlink:href="../../dc/d89/_error_8hpp.html" target="_top" xlink:title="Defines the Error class for handling error states and groups.">
<polygon fill="white" stroke="#666666" points="123.27,-132 67.52,-132 67.52,-112 123.27,-112 123.27,-132"/>
<text xml:space="preserve" text-anchor="middle" x="95.39" y="-118.5" font-family="Helvetica,sans-Serif" font-size="10.00">Error.hpp</text>
</a>
</g>
</g>
<!-- Node1&#45;&gt;Node4 -->
<g id="edge3_Node000001_Node000004" class="edge">
<title>Node1&#45;&gt;Node4</title>
<g id="a_edge3_Node000001_Node000004"><a xlink:title=" ">
<path fill="none" stroke="#63b8ff" d="M57.18,-159.85C66.65,-150.72 77.91,-139.86 85.75,-132.3"/>
<polygon fill="#63b8ff" stroke="#63b8ff" points="55.01,-157.08 50.24,-166.54 59.87,-162.12 55.01,-157.08"/>
</a>
</g>
</g>
<!-- Node2&#45;&gt;Node3 -->
<g id="edge2_Node000002_Node000003" class="edge">
<title>Node2&#45;&gt;Node3</title>
<g id="a_edge2_Node000002_Node000003"><a xlink:title=" ">
<path fill="none" stroke="#63b8ff" d="M55.39,-44.13C55.39,-35.9 55.39,-26.85 55.39,-20.3"/>
<polygon fill="#63b8ff" stroke="#63b8ff" points="51.89,-44.08 55.39,-54.08 58.89,-44.08 51.89,-44.08"/>
</a>
</g>
</g>
<!-- Node4&#45;&gt;Node2 -->
<g id="edge4_Node000004_Node000002" class="edge">
<title>Node4&#45;&gt;Node2</title>
<g id="a_edge4_Node000004_Node000002"><a xlink:title=" ">
<path fill="none" stroke="#63b8ff" d="M81.64,-102.44C75.11,-93.62 67.59,-83.47 62.28,-76.3"/>
<polygon fill="#63b8ff" stroke="#63b8ff" points="78.76,-104.43 87.53,-110.38 84.39,-100.26 78.76,-104.43"/>
</a>
</g>
</g>
<!-- Node4&#45;&gt;Node3 -->
<g id="edge5_Node000004_Node000003" class="edge">
<title>Node4&#45;&gt;Node3</title>
<g id="a_edge5_Node000004_Node000003"><a xlink:title=" ">
<path fill="none" stroke="#63b8ff" d="M103.93,-101.38C108.41,-88.07 111.79,-70.36 105.39,-56 98.55,-40.64 83.59,-28.32 71.8,-20.48"/>
<polygon fill="#63b8ff" stroke="#63b8ff" points="100.81,-99.74 100.46,-110.33 107.34,-102.27 100.81,-99.74"/>
</a>
</g>
</g>
</g>
</svg>
