<?xml version="1.0" encoding="UTF-8" standalone="no"?>
<!DOCTYPE svg PUBLIC "-//W3C//DTD SVG 1.1//EN"
 "http://www.w3.org/Graphics/SVG/1.1/DTD/svg11.dtd">
<!-- Generated by graphviz version 13.1.0 (20250701.0955)
 -->
<!-- Title: ModelDiagnostic::Listener Pages: 1 -->
<svg width="123pt" height="81pt"
 viewBox="0.00 0.00 123.00 81.00" xmlns="http://www.w3.org/2000/svg" xmlns:xlink="http://www.w3.org/1999/xlink">
<g id="graph0" class="graph" transform="scale(1 1) rotate(0) translate(4 76.5)">
<title>ModelDiagnostic::Listener</title>
<!-- Node1 -->
<g id="Node000001" class="node">
<title>Node1</title>
<g id="a_Node000001"><a xlink:title="Listener interface for diagnostic events.">
<polygon fill="#999999" stroke="none" points="114.5,-72.5 0,-72.5 0,0 114.5,0 114.5,-72.5"/>
<text xml:space="preserve" text-anchor="start" x="4" y="-59.95" font-family="Arial" font-size="9.00">ModelDiagnostic::Listener</text>
<text xml:space="preserve" text-anchor="start" x="56.12" y="-45.45" font-family="Arial" font-size="9.00"> </text>
<text xml:space="preserve" text-anchor="start" x="10.31" y="-30.95" font-family="Arial" font-size="9.00">+</text>
<text xml:space="preserve" text-anchor="start" x="25.88" y="-30.95" font-family="Arial" font-size="9.00">Listener()=default</text>
<text xml:space="preserve" text-anchor="start" x="10.31" y="-16.45" font-family="Arial" font-size="9.00">+</text>
<text xml:space="preserve" text-anchor="start" x="25.88" y="-16.45" font-family="Arial" font-size="9.00">virtual ~Listener()</text>
<text xml:space="preserve" text-anchor="start" x="25.88" y="-5.95" font-family="Arial" font-size="9.00">=default</text>
<polygon fill="#666666" stroke="#666666" points="0,-56 0,-56 114.5,-56 114.5,-56 0,-56"/>
<polygon fill="#666666" stroke="#666666" points="0,-41.5 0,-41.5 114.5,-41.5 114.5,-41.5 0,-41.5"/>
<polygon fill="none" stroke="#666666" points="0,0 0,-72.5 114.5,-72.5 114.5,0 0,0"/>
</a>
</g>
</g>
</g>
</svg>
