<?xml version="1.0" encoding="UTF-8" standalone="no"?>
<!DOCTYPE svg PUBLIC "-//W3C//DTD SVG 1.1//EN"
 "http://www.w3.org/Graphics/SVG/1.1/DTD/svg11.dtd">
<!-- Generated by graphviz version 13.1.0 (20250701.0955)
 -->
<!-- Title: Lib::BSP::XPT2046::Driver::Data Pages: 1 -->
<svg width="1049pt" height="340pt"
 viewBox="0.00 0.00 1049.00 340.00" xmlns="http://www.w3.org/2000/svg" xmlns:xlink="http://www.w3.org/1999/xlink">
<g id="graph0" class="graph" transform="scale(1 1) rotate(0) translate(4 336)">
<title>Lib::BSP::XPT2046::Driver::Data</title>
<!-- Node1 -->
<g id="Node000001" class="node">
<title>Node1</title>
<g id="a_Node000001"><a xlink:title="Internal data storage for Driver.">
<polygon fill="#999999" stroke="none" points="584.5,-32 485,-32 485,0 584.5,0 584.5,-32"/>
<text xml:space="preserve" text-anchor="start" x="489" y="-18.5" font-family="Helvetica,sans-Serif" font-size="10.00">Lib::BSP::XPT2046::</text>
<text xml:space="preserve" text-anchor="start" x="508.12" y="-6.5" font-family="Helvetica,sans-Serif" font-size="10.00">Driver::Data</text>
<polygon fill="none" stroke="#666666" points="485,0 485,-32 584.5,-32 584.5,0 485,0"/>
</a>
</g>
</g>
<!-- Node2 -->
<g id="Node000002" class="node">
<title>Node2</title>
<g id="a_Node000002"><a xlink:href="../../d8/d01/struct_lib_1_1_b_s_p_1_1_x_p_t2046_1_1_driver_1_1_position.html" target="_top" xlink:title="Touch position.">
<polygon fill="white" stroke="none" points="99.5,-172 0,-172 0,-140 99.5,-140 99.5,-172"/>
<text xml:space="preserve" text-anchor="start" x="4" y="-158.5" font-family="Helvetica,sans-Serif" font-size="10.00">Lib::BSP::XPT2046::</text>
<text xml:space="preserve" text-anchor="start" x="16" y="-146.5" font-family="Helvetica,sans-Serif" font-size="10.00">Driver::Position</text>
<polygon fill="none" stroke="#666666" points="0,-140 0,-172 99.5,-172 99.5,-140 0,-140"/>
</a>
</g>
</g>
<!-- Node2&#45;&gt;Node1 -->
<g id="edge1_Node000001_Node000002" class="edge">
<title>Node2&#45;&gt;Node1</title>
<g id="a_edge1_Node000001_Node000002"><a xlink:title=" ">
<path fill="none" stroke="#63b8ff" d="M54.41,-140.38C62.79,-116.74 82.86,-70.69 117.5,-50 147.21,-32.26 363.77,-22.65 472.63,-18.89"/>
<polygon fill="none" stroke="#63b8ff" points="472.46,-18.9 478.32,-14.7 484.45,-18.49 478.59,-22.69 472.46,-18.9"/>
</a>
</g>
<text xml:space="preserve" text-anchor="start" x="120.5" y="-103.5" font-family="Helvetica,sans-Serif" font-size="10.00" fill="grey">+position</text>
<text xml:space="preserve" text-anchor="start" x="120.5" y="-87.5" font-family="Helvetica,sans-Serif" font-size="10.00" fill="grey">+rawPosition</text>
<text xml:space="preserve" text-anchor="start" x="120.5" y="-71.5" font-family="Helvetica,sans-Serif" font-size="10.00" fill="grey">+tempPosition</text>
<text xml:space="preserve" text-anchor="start" x="120.5" y="-55.5" font-family="Helvetica,sans-Serif" font-size="10.00" fill="grey">+tempRawPosition</text>
</g>
<!-- Node3 -->
<g id="Node000003" class="node">
<title>Node3</title>
<g id="a_Node000003"><a xlink:title=" ">
<polygon fill="white" stroke="none" points="447.38,-332 410.12,-332 410.12,-312 447.38,-312 447.38,-332"/>
<text xml:space="preserve" text-anchor="start" x="414.12" y="-318.5" font-family="Helvetica,sans-Serif" font-size="10.00">int32_t</text>
<polygon fill="none" stroke="#bfbfbf" points="410.12,-312 410.12,-332 447.38,-332 447.38,-312 410.12,-312"/>
</a>
</g>
</g>
<!-- Node3&#45;&gt;Node2 -->
<g id="edge2_Node000002_Node000003" class="edge">
<title>Node3&#45;&gt;Node2</title>
<g id="a_edge2_Node000002_Node000003"><a xlink:title=" ">
<path fill="none" stroke="#63b8ff" d="M410.21,-312.98C353.33,-288.36 180.04,-213.38 96.18,-177.09"/>
<polygon fill="none" stroke="#63b8ff" points="96.08,-177.05 88.99,-178.34 85.07,-172.28 92.16,-171 96.08,-177.05"/>
</a>
</g>
<text xml:space="preserve" text-anchor="start" x="368.21" y="-249.5" font-family="Helvetica,sans-Serif" font-size="10.00" fill="grey">+x</text>
<text xml:space="preserve" text-anchor="start" x="368.21" y="-233.5" font-family="Helvetica,sans-Serif" font-size="10.00" fill="grey">+y</text>
</g>
<!-- Node12 -->
<g id="Node000012" class="node">
<title>Node12</title>
<g id="a_Node000012"><a xlink:href="../../d4/ddd/struct_lib_1_1_b_s_p_1_1_x_p_t2046_1_1_driver_1_1_parameters.html" target="_top" xlink:title="Touch screen parameters.">
<polygon fill="white" stroke="none" points="701.5,-172 602,-172 602,-140 701.5,-140 701.5,-172"/>
<text xml:space="preserve" text-anchor="start" x="606" y="-158.5" font-family="Helvetica,sans-Serif" font-size="10.00">Lib::BSP::XPT2046::</text>
<text xml:space="preserve" text-anchor="start" x="610.5" y="-146.5" font-family="Helvetica,sans-Serif" font-size="10.00">Driver::Parameters</text>
<polygon fill="none" stroke="#666666" points="602,-140 602,-172 701.5,-172 701.5,-140 602,-140"/>
</a>
</g>
</g>
<!-- Node3&#45;&gt;Node12 -->
<g id="edge12_Node000012_Node000003" class="edge">
<title>Node3&#45;&gt;Node12</title>
<g id="a_edge12_Node000012_Node000003"><a xlink:title=" ">
<path fill="none" stroke="#63b8ff" d="M437.41,-312.31C459.18,-290.77 518.53,-233.89 575.25,-196 585.17,-189.37 596.37,-183.08 607.07,-177.55"/>
<polygon fill="none" stroke="#63b8ff" points="606.87,-177.65 610.45,-171.39 617.61,-172.28 614.03,-178.55 606.87,-177.65"/>
</a>
</g>
<text xml:space="preserve" text-anchor="start" x="578.25" y="-281.5" font-family="Helvetica,sans-Serif" font-size="10.00" fill="grey">+dispHeight</text>
<text xml:space="preserve" text-anchor="start" x="578.25" y="-265.5" font-family="Helvetica,sans-Serif" font-size="10.00" fill="grey">+dispWidth</text>
<text xml:space="preserve" text-anchor="start" x="578.25" y="-249.5" font-family="Helvetica,sans-Serif" font-size="10.00" fill="grey">+xMax</text>
<text xml:space="preserve" text-anchor="start" x="578.25" y="-233.5" font-family="Helvetica,sans-Serif" font-size="10.00" fill="grey">+xMin</text>
<text xml:space="preserve" text-anchor="start" x="578.25" y="-217.5" font-family="Helvetica,sans-Serif" font-size="10.00" fill="grey">+yMax</text>
<text xml:space="preserve" text-anchor="start" x="578.25" y="-201.5" font-family="Helvetica,sans-Serif" font-size="10.00" fill="grey">+yMin</text>
</g>
<!-- Node4 -->
<g id="Node000004" class="node">
<title>Node4</title>
<g id="a_Node000004"><a xlink:href="../../d5/d05/class_lib_1_1_h_a_l_1_1_g_p_i_o_1_1_pin.html" target="_top" xlink:title=" ">
<polygon fill="white" stroke="none" points="230.25,-178 117.25,-178 117.25,-134 230.25,-134 230.25,-178"/>
<text xml:space="preserve" text-anchor="start" x="121.25" y="-164.5" font-family="Helvetica,sans-Serif" font-size="10.00">Lib::HAL::GPIO::Pin</text>
<text xml:space="preserve" text-anchor="start" x="121.25" y="-152.5" font-family="Helvetica,sans-Serif" font-size="10.00">&lt; Lib::HAL::GPIO::Type</text>
<text xml:space="preserve" text-anchor="start" x="150.88" y="-140.5" font-family="Helvetica,sans-Serif" font-size="10.00">::INPUT &gt;</text>
<polygon fill="none" stroke="#666666" points="117.25,-134 117.25,-178 230.25,-178 230.25,-134 117.25,-134"/>
</a>
</g>
</g>
<!-- Node4&#45;&gt;Node1 -->
<g id="edge3_Node000001_Node000004" class="edge">
<title>Node4&#45;&gt;Node1</title>
<g id="a_edge3_Node000001_Node000004"><a xlink:title=" ">
<path fill="none" stroke="#63b8ff" d="M191.37,-134.04C213.36,-109.45 253.4,-69.56 297,-50 327.42,-36.35 412.69,-26.87 472.37,-21.68"/>
<polygon fill="none" stroke="#63b8ff" points="472.2,-21.7 477.84,-17.21 484.16,-20.69 478.52,-25.18 472.2,-21.7"/>
</a>
</g>
<text xml:space="preserve" text-anchor="start" x="300" y="-87.5" font-family="Helvetica,sans-Serif" font-size="10.00" fill="grey">+nirq</text>
<text xml:space="preserve" text-anchor="start" x="300" y="-71.5" font-family="Helvetica,sans-Serif" font-size="10.00" fill="grey">+so</text>
</g>
<!-- Node5 -->
<g id="Node000005" class="node">
<title>Node5</title>
<g id="a_Node000005"><a xlink:href="../../d5/d05/class_lib_1_1_h_a_l_1_1_g_p_i_o_1_1_pin.html" target="_top" xlink:title=" ">
<polygon fill="white" stroke="none" points="361.25,-178 248.25,-178 248.25,-134 361.25,-134 361.25,-178"/>
<text xml:space="preserve" text-anchor="start" x="252.25" y="-164.5" font-family="Helvetica,sans-Serif" font-size="10.00">Lib::HAL::GPIO::Pin</text>
<text xml:space="preserve" text-anchor="start" x="252.25" y="-152.5" font-family="Helvetica,sans-Serif" font-size="10.00">&lt; Lib::HAL::GPIO::Type</text>
<text xml:space="preserve" text-anchor="start" x="276.62" y="-140.5" font-family="Helvetica,sans-Serif" font-size="10.00">::OUTPUT &gt;</text>
<polygon fill="none" stroke="#666666" points="248.25,-134 248.25,-178 361.25,-178 361.25,-134 248.25,-134"/>
</a>
</g>
</g>
<!-- Node5&#45;&gt;Node1 -->
<g id="edge4_Node000001_Node000005" class="edge">
<title>Node5&#45;&gt;Node1</title>
<g id="a_edge4_Node000001_Node000005"><a xlink:title=" ">
<path fill="none" stroke="#63b8ff" d="M316.32,-134.14C330.8,-110.04 357.9,-71.02 392,-50 416.1,-35.15 446.22,-26.97 472.58,-22.48"/>
<polygon fill="none" stroke="#63b8ff" points="472.42,-22.5 477.74,-17.64 484.28,-20.69 478.95,-25.55 472.42,-22.5"/>
</a>
</g>
<text xml:space="preserve" text-anchor="start" x="395" y="-95.5" font-family="Helvetica,sans-Serif" font-size="10.00" fill="grey">+nss</text>
<text xml:space="preserve" text-anchor="start" x="395" y="-79.5" font-family="Helvetica,sans-Serif" font-size="10.00" fill="grey">+sck</text>
<text xml:space="preserve" text-anchor="start" x="395" y="-63.5" font-family="Helvetica,sans-Serif" font-size="10.00" fill="grey">+si</text>
</g>
<!-- Node6 -->
<g id="Node000006" class="node">
<title>Node6</title>
<g id="a_Node000006"><a xlink:href="../../d8/dfa/class_lib_1_1_helper_1_1_integrator.html" target="_top" xlink:title=" ">
<polygon fill="white" stroke="none" points="482,-172 379.5,-172 379.5,-140 482,-140 482,-172"/>
<text xml:space="preserve" text-anchor="start" x="383.5" y="-158.5" font-family="Helvetica,sans-Serif" font-size="10.00">Lib::Helper::Integrator</text>
<text xml:space="preserve" text-anchor="start" x="398.88" y="-146.5" font-family="Helvetica,sans-Serif" font-size="10.00">&lt; int32_t, 10 &gt;</text>
<polygon fill="none" stroke="#bfbfbf" points="379.5,-140 379.5,-172 482,-172 482,-140 379.5,-140"/>
</a>
</g>
</g>
<!-- Node6&#45;&gt;Node1 -->
<g id="edge5_Node000001_Node000006" class="edge">
<title>Node6&#45;&gt;Node1</title>
<g id="a_edge5_Node000001_Node000006"><a xlink:title=" ">
<path fill="none" stroke="#63b8ff" d="M427.22,-140.35C422.84,-118.3 418.18,-76.34 438.5,-50 447.09,-38.86 459.65,-31.46 472.88,-26.55"/>
<polygon fill="none" stroke="#63b8ff" points="472.81,-26.57 477.33,-20.96 484.26,-22.97 479.73,-28.59 472.81,-26.57"/>
</a>
</g>
<text xml:space="preserve" text-anchor="start" x="441.5" y="-87.5" font-family="Helvetica,sans-Serif" font-size="10.00" fill="grey">+integratorX</text>
<text xml:space="preserve" text-anchor="start" x="441.5" y="-71.5" font-family="Helvetica,sans-Serif" font-size="10.00" fill="grey">+integratorY</text>
</g>
<!-- Node7 -->
<g id="Node000007" class="node">
<title>Node7</title>
<g id="a_Node000007"><a xlink:title=" ">
<polygon fill="white" stroke="none" points="527.12,-166 500.38,-166 500.38,-146 527.12,-146 527.12,-166"/>
<text xml:space="preserve" text-anchor="start" x="504.38" y="-152.5" font-family="Helvetica,sans-Serif" font-size="10.00">float</text>
<polygon fill="none" stroke="#bfbfbf" points="500.38,-146 500.38,-166 527.12,-166 527.12,-146 500.38,-146"/>
</a>
</g>
</g>
<!-- Node7&#45;&gt;Node1 -->
<g id="edge6_Node000001_Node000007" class="edge">
<title>Node7&#45;&gt;Node1</title>
<g id="a_edge6_Node000001_Node000007"><a xlink:title=" ">
<path fill="none" stroke="#63b8ff" d="M510.92,-146.23C505.45,-127.77 495,-83.83 507.25,-50 508.24,-47.27 509.57,-44.6 511.1,-42.04"/>
<polygon fill="none" stroke="#63b8ff" points="511.11,-42.03 511.48,-34.83 518.27,-32.39 517.9,-39.6 511.11,-42.03"/>
</a>
</g>
<text xml:space="preserve" text-anchor="start" x="510.25" y="-87.5" font-family="Helvetica,sans-Serif" font-size="10.00" fill="grey">+devX</text>
<text xml:space="preserve" text-anchor="start" x="510.25" y="-71.5" font-family="Helvetica,sans-Serif" font-size="10.00" fill="grey">+devY</text>
</g>
<!-- Node8 -->
<g id="Node000008" class="node">
<title>Node8</title>
<g id="a_Node000008"><a xlink:title=" ">
<polygon fill="white" stroke="none" points="576.75,-166 550.75,-166 550.75,-146 576.75,-146 576.75,-166"/>
<text xml:space="preserve" text-anchor="start" x="554.75" y="-152.5" font-family="Helvetica,sans-Serif" font-size="10.00">bool</text>
<polygon fill="none" stroke="#bfbfbf" points="550.75,-146 550.75,-166 576.75,-166 576.75,-146 550.75,-146"/>
</a>
</g>
</g>
<!-- Node8&#45;&gt;Node1 -->
<g id="edge7_Node000001_Node000008" class="edge">
<title>Node8&#45;&gt;Node1</title>
<g id="a_edge7_Node000001_Node000008"><a xlink:title=" ">
<path fill="none" stroke="#63b8ff" d="M561.87,-146.01C558.09,-127.86 549.24,-85.54 541.75,-50 541.36,-48.14 540.95,-46.22 540.54,-44.28"/>
<polygon fill="none" stroke="#63b8ff" points="540.57,-44.4 535.41,-39.36 538.08,-32.66 543.24,-37.71 540.57,-44.4"/>
</a>
</g>
<text xml:space="preserve" text-anchor="start" x="558.39" y="-87.5" font-family="Helvetica,sans-Serif" font-size="10.00" fill="grey">+isReady</text>
<text xml:space="preserve" text-anchor="start" x="558.39" y="-71.5" font-family="Helvetica,sans-Serif" font-size="10.00" fill="grey">+lastPressState</text>
</g>
<!-- Node9 -->
<g id="Node000009" class="node">
<title>Node9</title>
<g id="a_Node000009"><a xlink:title=" ">
<polygon fill="white" stroke="none" points="926.38,-332 889.12,-332 889.12,-312 926.38,-312 926.38,-332"/>
<text xml:space="preserve" text-anchor="start" x="893.12" y="-318.5" font-family="Helvetica,sans-Serif" font-size="10.00">uint8_t</text>
<polygon fill="none" stroke="#bfbfbf" points="889.12,-312 889.12,-332 926.38,-332 926.38,-312 889.12,-312"/>
</a>
</g>
</g>
<!-- Node9&#45;&gt;Node1 -->
<g id="edge8_Node000001_Node000009" class="edge">
<title>Node9&#45;&gt;Node1</title>
<g id="a_edge8_Node000001_Node000009"><a xlink:title=" ">
<path fill="none" stroke="#63b8ff" d="M926.29,-314.51C935.62,-310.21 946.12,-303.58 951.75,-294 1006.79,-200.43 1021.51,-122.54 940.75,-50 915.78,-27.57 704.6,-20.26 597.09,-17.98"/>
<polygon fill="none" stroke="#63b8ff" points="597.1,-17.98 591.02,-21.86 585.11,-17.74 591.19,-13.86 597.1,-17.98"/>
</a>
</g>
<text xml:space="preserve" text-anchor="start" x="1000.18" y="-152.5" font-family="Helvetica,sans-Serif" font-size="10.00" fill="grey">+rotation</text>
</g>
<!-- Node9&#45;&gt;Node12 -->
<g id="edge13_Node000012_Node000009" class="edge">
<title>Node9&#45;&gt;Node12</title>
<g id="a_edge13_Node000012_Node000009"><a xlink:title=" ">
<path fill="none" stroke="#63b8ff" d="M896.49,-312.2C868.93,-290.86 795.58,-235.28 729.75,-196 718.94,-189.55 706.93,-183.18 695.63,-177.51"/>
<polygon fill="none" stroke="#63b8ff" points="695.78,-177.58 688.63,-178.53 685.01,-172.29 692.16,-171.35 695.78,-177.58"/>
</a>
</g>
<text xml:space="preserve" text-anchor="start" x="875.47" y="-249.5" font-family="Helvetica,sans-Serif" font-size="10.00" fill="grey">+rotationFlip</text>
<text xml:space="preserve" text-anchor="start" x="875.47" y="-233.5" font-family="Helvetica,sans-Serif" font-size="10.00" fill="grey">+rotationNormal</text>
</g>
<!-- Node10 -->
<g id="Node000010" class="node">
<title>Node10</title>
<g id="a_Node000010"><a xlink:title=" ">
<polygon fill="white" stroke="none" points="715,-332 672.5,-332 672.5,-312 715,-312 715,-332"/>
<text xml:space="preserve" text-anchor="start" x="676.5" y="-318.5" font-family="Helvetica,sans-Serif" font-size="10.00">uint32_t</text>
<polygon fill="none" stroke="#bfbfbf" points="672.5,-312 672.5,-332 715,-332 715,-312 672.5,-312"/>
</a>
</g>
</g>
<!-- Node10&#45;&gt;Node1 -->
<g id="edge9_Node000001_Node000010" class="edge">
<title>Node10&#45;&gt;Node1</title>
<g id="a_edge9_Node000001_Node000010"><a xlink:title=" ">
<path fill="none" stroke="#63b8ff" d="M709.14,-312.23C715.53,-307.69 722.26,-301.51 725.75,-294 738.91,-265.68 729.58,-61.26 719.75,-50 703.86,-31.8 644.46,-23.62 597.19,-19.95"/>
<polygon fill="none" stroke="#63b8ff" points="597.1,-19.94 590.83,-23.51 585.13,-19.09 591.4,-15.53 597.1,-19.94"/>
</a>
</g>
<text xml:space="preserve" text-anchor="start" x="734.71" y="-152.5" font-family="Helvetica,sans-Serif" font-size="10.00" fill="grey">+debounceTime</text>
</g>
<!-- Node10&#45;&gt;Node12 -->
<g id="edge14_Node000012_Node000010" class="edge">
<title>Node10&#45;&gt;Node12</title>
<g id="a_edge14_Node000012_Node000010"><a xlink:title=" ">
<path fill="none" stroke="#63b8ff" d="M672.88,-313.5C664.18,-309.21 654.96,-302.89 650,-294 630.99,-259.93 637.06,-213.28 643.87,-184.15"/>
<polygon fill="none" stroke="#63b8ff" points="643.85,-184.25 641.47,-177.44 646.84,-172.63 649.22,-179.43 643.85,-184.25"/>
</a>
</g>
<text xml:space="preserve" text-anchor="start" x="653" y="-241.5" font-family="Helvetica,sans-Serif" font-size="10.00" fill="grey">+debounceTime</text>
</g>
<!-- Node11 -->
<g id="Node000011" class="node">
<title>Node11</title>
<g id="a_Node000011"><a xlink:href="../../d7/d30/class_lib_1_1_free_r_t_o_s_1_1_timeout.html" target="_top" xlink:title="Manages timeouts using FreeRTOS tick counts, supporting setting, checking, disabling,...">
<polygon fill="white" stroke="none" points="948,-166 833.5,-166 833.5,-146 948,-146 948,-166"/>
<text xml:space="preserve" text-anchor="start" x="837.5" y="-152.5" font-family="Helvetica,sans-Serif" font-size="10.00">Lib::FreeRTOS::Timeout</text>
<polygon fill="none" stroke="#666666" points="833.5,-146 833.5,-166 948,-166 948,-146 833.5,-146"/>
</a>
</g>
</g>
<!-- Node11&#45;&gt;Node1 -->
<g id="edge10_Node000001_Node000011" class="edge">
<title>Node11&#45;&gt;Node1</title>
<g id="a_edge10_Node000001_Node000011"><a xlink:title=" ">
<path fill="none" stroke="#63b8ff" d="M882.47,-146.11C862.55,-125.36 809.46,-73.67 753.75,-50 703.66,-28.72 642.02,-20.88 596.91,-18.13"/>
<polygon fill="none" stroke="#63b8ff" points="596.95,-18.13 590.74,-21.81 584.96,-17.5 591.16,-13.82 596.95,-18.13"/>
</a>
</g>
<text xml:space="preserve" text-anchor="start" x="851.73" y="-79.5" font-family="Helvetica,sans-Serif" font-size="10.00" fill="grey">+timeoutDebounce</text>
</g>
<!-- Node12&#45;&gt;Node1 -->
<g id="edge11_Node000001_Node000012" class="edge">
<title>Node12&#45;&gt;Node1</title>
<g id="a_edge11_Node000001_Node000012"><a xlink:title=" ">
<path fill="none" stroke="#63b8ff" d="M653.95,-140.17C656.38,-117.87 657.45,-75.6 635.75,-50 625.73,-38.18 611.42,-30.57 596.7,-25.67"/>
<polygon fill="none" stroke="#63b8ff" points="596.75,-25.68 589.88,-27.89 585.2,-22.41 592.07,-20.19 596.75,-25.68"/>
</a>
</g>
<text xml:space="preserve" text-anchor="start" x="658.16" y="-79.5" font-family="Helvetica,sans-Serif" font-size="10.00" fill="grey">+parameters</text>
</g>
</g>
</svg>
