<?xml version="1.0" encoding="UTF-8" standalone="no"?>
<!DOCTYPE svg PUBLIC "-//W3C//DTD SVG 1.1//EN"
 "http://www.w3.org/Graphics/SVG/1.1/DTD/svg11.dtd">
<!-- Generated by graphviz version 12.2.1 (20241206.2353)
 -->
<!-- Title: System Pages: 1 -->
<svg width="245pt" height="313pt"
 viewBox="0.00 0.00 244.75 313.00" xmlns="http://www.w3.org/2000/svg" xmlns:xlink="http://www.w3.org/1999/xlink">
<g id="graph0" class="graph" transform="scale(1 1) rotate(0) translate(4 309)">
<title>System</title>
<!-- Node1 -->
<g id="Node000001" class="node">
<title>Node1</title>
<g id="a_Node000001"><a xlink:title=" ">
<polygon fill="#999999" stroke="none" points="124.62,-68 49.62,-68 49.62,0 124.62,0 124.62,-68"/>
<text text-anchor="start" x="70.25" y="-54.5" font-family="Helvetica,sans-Serif" font-size="10.00">System</text>
<text text-anchor="start" x="85.62" y="-38.5" font-family="Helvetica,sans-Serif" font-size="10.00"> </text>
<text text-anchor="start" x="53.62" y="-22.5" font-family="Helvetica,sans-Serif" font-size="10.00">+</text>
<text text-anchor="start" x="63.62" y="-22.5" font-family="Helvetica,sans-Serif" font-size="10.00">setup()</text>
<text text-anchor="start" x="53.62" y="-6.5" font-family="Helvetica,sans-Serif" font-size="10.00">+</text>
<text text-anchor="start" x="63.62" y="-6.5" font-family="Helvetica,sans-Serif" font-size="10.00">getInstance()</text>
<polygon fill="#666666" stroke="#666666" points="49.62,-50 49.62,-50 124.62,-50 124.62,-50 49.62,-50"/>
<polygon fill="#666666" stroke="#666666" points="49.62,-34 49.62,-34 124.62,-34 124.62,-34 49.62,-34"/>
<polygon fill="none" stroke="#666666" points="49.62,0 49.62,-68 124.62,-68 124.62,0 49.62,0"/>
</a>
</g>
</g>
<!-- Node2 -->
<g id="Node000002" class="node">
<title>Node2</title>
<g id="a_Node000002"><a xlink:title=" ">
<polygon fill="white" stroke="none" points="100.25,-192 0,-192 0,-140 100.25,-140 100.25,-192"/>
<text text-anchor="start" x="4" y="-178.5" font-family="Helvetica,sans-Serif" font-size="10.00">Lib::System::System</text>
<text text-anchor="start" x="48.62" y="-162.5" font-family="Helvetica,sans-Serif" font-size="10.00"> </text>
<text text-anchor="start" x="48.62" y="-146.5" font-family="Helvetica,sans-Serif" font-size="10.00"> </text>
<polygon fill="#bfbfbf" stroke="#bfbfbf" points="0,-174 0,-174 100.25,-174 100.25,-174 0,-174"/>
<polygon fill="#bfbfbf" stroke="#bfbfbf" points="0,-158 0,-158 100.25,-158 100.25,-158 0,-158"/>
<polygon fill="none" stroke="#bfbfbf" points="0,-140 0,-192 100.25,-192 100.25,-140 0,-140"/>
</a>
</g>
</g>
<!-- Node2&#45;&gt;Node1 -->
<g id="edge1_Node000001_Node000002" class="edge">
<title>Node2&#45;&gt;Node1</title>
<g id="a_edge1_Node000001_Node000002"><a xlink:title=" ">
<path fill="none" stroke="#63b8ff" d="M60.32,-129.17C65.81,-109.89 72.53,-86.29 77.86,-67.54"/>
<polygon fill="none" stroke="#63b8ff" points="56.96,-128.21 57.59,-138.79 63.69,-130.13 56.96,-128.21"/>
</a>
</g>
</g>
<!-- Node3 -->
<g id="Node000003" class="node">
<title>Node3</title>
<g id="a_Node000003"><a xlink:href="../../d8/d95/a00379.html" target="_top" xlink:title="A class that manages system parameters.">
<polygon fill="white" stroke="none" points="216.12,-216 118.12,-216 118.12,-116 216.12,-116 216.12,-216"/>
<text text-anchor="start" x="122.12" y="-202.5" font-family="Helvetica,sans-Serif" font-size="10.00">System::Parameters</text>
<text text-anchor="start" x="165.62" y="-186.5" font-family="Helvetica,sans-Serif" font-size="10.00"> </text>
<text text-anchor="start" x="122.25" y="-170.5" font-family="Helvetica,sans-Serif" font-size="10.00">+</text>
<text text-anchor="start" x="132.38" y="-170.5" font-family="Helvetica,sans-Serif" font-size="10.00">Parameters()</text>
<text text-anchor="start" x="122.25" y="-154.5" font-family="Helvetica,sans-Serif" font-size="10.00">+</text>
<text text-anchor="start" x="132.38" y="-154.5" font-family="Helvetica,sans-Serif" font-size="10.00">~Parameters()</text>
<text text-anchor="start" x="122.25" y="-138.5" font-family="Helvetica,sans-Serif" font-size="10.00">+</text>
<text text-anchor="start" x="132.38" y="-138.5" font-family="Helvetica,sans-Serif" font-size="10.00">restoreByDefault()</text>
<text text-anchor="start" x="122.25" y="-122.5" font-family="Helvetica,sans-Serif" font-size="10.00">+</text>
<text text-anchor="start" x="132.38" y="-122.5" font-family="Helvetica,sans-Serif" font-size="10.00">getData()</text>
<polygon fill="#666666" stroke="#666666" points="118.12,-198 118.12,-198 216.12,-198 216.12,-198 118.12,-198"/>
<polygon fill="#666666" stroke="#666666" points="118.12,-182 118.12,-182 216.12,-182 216.12,-182 118.12,-182"/>
<polygon fill="none" stroke="#666666" points="118.12,-116 118.12,-216 216.12,-216 216.12,-116 118.12,-116"/>
</a>
</g>
</g>
<!-- Node3&#45;&gt;Node1 -->
<g id="edge2_Node000001_Node000003" class="edge">
<title>Node3&#45;&gt;Node1</title>
<g id="a_edge2_Node000001_Node000003"><a xlink:title=" ">
<path fill="none" stroke="#63b8ff" d="M137.11,-116.22C129.58,-103.99 121.55,-90.94 114.18,-78.96"/>
<polygon fill="none" stroke="#63b8ff" points="114.11,-78.86 107.56,-75.84 107.82,-68.64 114.37,-71.65 114.11,-78.86"/>
</a>
</g>
<text text-anchor="middle" x="153.6" y="-88.5" font-family="Helvetica,sans-Serif" font-size="10.00" fill="grey"> +parameters</text>
</g>
<!-- Node4 -->
<g id="Node000004" class="node">
<title>Node4</title>
<g id="a_Node000004"><a xlink:title=" ">
<polygon fill="white" stroke="none" points="236.75,-305 97.5,-305 97.5,-253 236.75,-253 236.75,-305"/>
<text text-anchor="start" x="101.5" y="-291.5" font-family="Helvetica,sans-Serif" font-size="10.00">Lib::System::ParametersBase</text>
<text text-anchor="start" x="165.62" y="-275.5" font-family="Helvetica,sans-Serif" font-size="10.00"> </text>
<text text-anchor="start" x="165.62" y="-259.5" font-family="Helvetica,sans-Serif" font-size="10.00"> </text>
<polygon fill="#bfbfbf" stroke="#bfbfbf" points="97.5,-287 97.5,-287 236.75,-287 236.75,-287 97.5,-287"/>
<polygon fill="#bfbfbf" stroke="#bfbfbf" points="97.5,-271 97.5,-271 236.75,-271 236.75,-271 97.5,-271"/>
<polygon fill="none" stroke="#bfbfbf" points="97.5,-253 97.5,-305 236.75,-305 236.75,-253 97.5,-253"/>
</a>
</g>
</g>
<!-- Node4&#45;&gt;Node3 -->
<g id="edge3_Node000003_Node000004" class="edge">
<title>Node4&#45;&gt;Node3</title>
<g id="a_edge3_Node000003_Node000004"><a xlink:title=" ">
<path fill="none" stroke="#63b8ff" d="M167.12,-241.61C167.12,-233.4 167.12,-224.56 167.12,-215.93"/>
<polygon fill="none" stroke="#63b8ff" points="163.63,-241.58 167.13,-251.58 170.63,-241.58 163.63,-241.58"/>
</a>
</g>
</g>
</g>
</svg>
