<?xml version="1.0" encoding="UTF-8" standalone="no"?>
<!DOCTYPE svg PUBLIC "-//W3C//DTD SVG 1.1//EN"
 "http://www.w3.org/Graphics/SVG/1.1/DTD/svg11.dtd">
<!-- Generated by graphviz version 13.1.0 (20250701.0955)
 -->
<!-- Title: EventGroup.hpp Pages: 1 -->
<svg width="796pt" height="196pt"
 viewBox="0.00 0.00 796.00 196.00" xmlns="http://www.w3.org/2000/svg" xmlns:xlink="http://www.w3.org/1999/xlink">
<g id="graph0" class="graph" transform="scale(1 1) rotate(0) translate(4 192)">
<title>EventGroup.hpp</title>
<!-- Node1 -->
<g id="Node000001" class="node">
<title>Node1</title>
<g id="a_Node000001"><a xlink:title="EventGroup class and event bits utilities for RTOS event synchronization.">
<polygon fill="#999999" stroke="#666666" points="389.12,-188 302.62,-188 302.62,-168 389.12,-168 389.12,-188"/>
<text xml:space="preserve" text-anchor="middle" x="345.88" y="-174.5" font-family="Helvetica,sans-Serif" font-size="10.00">EventGroup.hpp</text>
</a>
</g>
</g>
<!-- Node2 -->
<g id="Node000002" class="node">
<title>Node2</title>
<g id="a_Node000002"><a xlink:title=" ">
<polygon fill="#e0e0e0" stroke="#999999" points="37.75,-132 0,-132 0,-112 37.75,-112 37.75,-132"/>
<text xml:space="preserve" text-anchor="middle" x="18.88" y="-118.5" font-family="Helvetica,sans-Serif" font-size="10.00">array</text>
</a>
</g>
</g>
<!-- Node1&#45;&gt;Node2 -->
<g id="edge1_Node000001_Node000002" class="edge">
<title>Node1&#45;&gt;Node2</title>
<g id="a_edge1_Node000001_Node000002"><a xlink:title=" ">
<path fill="none" stroke="#63b8ff" d="M302.13,-172.66C245.68,-166.57 144.32,-153.97 49.03,-132.17"/>
<polygon fill="#63b8ff" stroke="#63b8ff" points="50.05,-128.82 39.51,-129.95 48.46,-135.63 50.05,-128.82"/>
</a>
</g>
</g>
<!-- Node3 -->
<g id="Node000003" class="node">
<title>Node3</title>
<g id="a_Node000003"><a xlink:title=" ">
<polygon fill="#e0e0e0" stroke="#999999" points="95.88,-132 55.88,-132 55.88,-112 95.88,-112 95.88,-132"/>
<text xml:space="preserve" text-anchor="middle" x="75.88" y="-118.5" font-family="Helvetica,sans-Serif" font-size="10.00">bitset</text>
</a>
</g>
</g>
<!-- Node1&#45;&gt;Node3 -->
<g id="edge2_Node000001_Node000003" class="edge">
<title>Node1&#45;&gt;Node3</title>
<g id="a_edge2_Node000001_Node000003"><a xlink:title=" ">
<path fill="none" stroke="#63b8ff" d="M302.19,-169.62C254.67,-161.37 176.58,-147.17 109.88,-132 109.05,-131.81 108.21,-131.62 107.37,-131.42"/>
<polygon fill="#63b8ff" stroke="#63b8ff" points="108.33,-128.05 97.78,-129.03 106.64,-134.84 108.33,-128.05"/>
</a>
</g>
</g>
<!-- Node4 -->
<g id="Node000004" class="node">
<title>Node4</title>
<g id="a_Node000004"><a xlink:title=" ">
<polygon fill="#e0e0e0" stroke="#999999" points="266,-20 217.75,-20 217.75,0 266,0 266,-20"/>
<text xml:space="preserve" text-anchor="middle" x="241.88" y="-6.5" font-family="Helvetica,sans-Serif" font-size="10.00">cassert</text>
</a>
</g>
</g>
<!-- Node1&#45;&gt;Node4 -->
<g id="edge3_Node000001_Node000004" class="edge">
<title>Node1&#45;&gt;Node4</title>
<g id="a_edge3_Node000001_Node000004"><a xlink:title=" ">
<path fill="none" stroke="#63b8ff" d="M330.33,-167.58C306.31,-152 261.04,-118.35 242.88,-76 236.87,-62.01 236.92,-44.72 238.3,-31.48"/>
<polygon fill="#63b8ff" stroke="#63b8ff" points="241.74,-32.17 239.68,-21.78 234.81,-31.19 241.74,-32.17"/>
</a>
</g>
</g>
<!-- Node5 -->
<g id="Node000005" class="node">
<title>Node5</title>
<g id="a_Node000005"><a xlink:title=" ">
<polygon fill="#e0e0e0" stroke="#999999" points="497.5,-20 452.25,-20 452.25,0 497.5,0 497.5,-20"/>
<text xml:space="preserve" text-anchor="middle" x="474.88" y="-6.5" font-family="Helvetica,sans-Serif" font-size="10.00">cstdint</text>
</a>
</g>
</g>
<!-- Node1&#45;&gt;Node5 -->
<g id="edge4_Node000001_Node000005" class="edge">
<title>Node1&#45;&gt;Node5</title>
<g id="a_edge4_Node000001_Node000005"><a xlink:title=" ">
<path fill="none" stroke="#63b8ff" d="M373.76,-167.55C409.2,-153.79 468.58,-124.47 491.88,-76 498.9,-61.38 493.28,-43.46 486.67,-30.15"/>
<polygon fill="#63b8ff" stroke="#63b8ff" points="489.81,-28.58 481.89,-21.54 483.69,-31.98 489.81,-28.58"/>
</a>
</g>
</g>
<!-- Node6 -->
<g id="Node000006" class="node">
<title>Node6</title>
<g id="a_Node000006"><a xlink:title=" ">
<polygon fill="#e0e0e0" stroke="#999999" points="199.5,-20 160.25,-20 160.25,0 199.5,0 199.5,-20"/>
<text xml:space="preserve" text-anchor="middle" x="179.88" y="-6.5" font-family="Helvetica,sans-Serif" font-size="10.00">limits</text>
</a>
</g>
</g>
<!-- Node1&#45;&gt;Node6 -->
<g id="edge5_Node000001_Node000006" class="edge">
<title>Node1&#45;&gt;Node6</title>
<g id="a_edge5_Node000001_Node000006"><a xlink:title=" ">
<path fill="none" stroke="#63b8ff" d="M321.82,-167.61C304.15,-159.89 280.29,-147.69 262.88,-132 229.57,-102 202.84,-56.08 189.37,-30.29"/>
<polygon fill="#63b8ff" stroke="#63b8ff" points="192.63,-28.96 184.98,-21.63 186.39,-32.13 192.63,-28.96"/>
</a>
</g>
</g>
<!-- Node7 -->
<g id="Node000007" class="node">
<title>Node7</title>
<g id="a_Node000007"><a xlink:title=" ">
<polygon fill="#e0e0e0" stroke="#999999" points="687.5,-132 636.25,-132 636.25,-112 687.5,-112 687.5,-132"/>
<text xml:space="preserve" text-anchor="middle" x="661.88" y="-118.5" font-family="Helvetica,sans-Serif" font-size="10.00">memory</text>
</a>
</g>
</g>
<!-- Node1&#45;&gt;Node7 -->
<g id="edge6_Node000001_Node000007" class="edge">
<title>Node1&#45;&gt;Node7</title>
<g id="a_edge6_Node000001_Node000007"><a xlink:title=" ">
<path fill="none" stroke="#63b8ff" d="M389.52,-170.71C444.05,-162.66 540.13,-147.84 621.88,-132 622.88,-131.8 623.91,-131.6 624.94,-131.39"/>
<polygon fill="#63b8ff" stroke="#63b8ff" points="625.56,-134.84 634.62,-129.35 624.11,-127.99 625.56,-134.84"/>
</a>
</g>
</g>
<!-- Node8 -->
<g id="Node000008" class="node">
<title>Node8</title>
<g id="a_Node000008"><a xlink:title=" ">
<polygon fill="#e0e0e0" stroke="#999999" points="586.25,-20 515.5,-20 515.5,0 586.25,0 586.25,-20"/>
<text xml:space="preserve" text-anchor="middle" x="550.88" y="-6.5" font-family="Helvetica,sans-Serif" font-size="10.00">FreeRTOS.h</text>
</a>
</g>
</g>
<!-- Node1&#45;&gt;Node8 -->
<g id="edge7_Node000001_Node000008" class="edge">
<title>Node1&#45;&gt;Node8</title>
<g id="a_edge7_Node000001_Node000008"><a xlink:title=" ">
<path fill="none" stroke="#63b8ff" d="M388.93,-167.56C413.51,-160.64 443.9,-149.37 466.88,-132 502.94,-104.73 529.26,-57.4 542.09,-30.73"/>
<polygon fill="#63b8ff" stroke="#63b8ff" points="545.22,-32.3 546.25,-21.76 538.87,-29.36 545.22,-32.3"/>
</a>
</g>
</g>
<!-- Node9 -->
<g id="Node000009" class="node">
<title>Node9</title>
<g id="a_Node000009"><a xlink:href="../../d6/d24/_tick_counter_8hpp.html" target="_top" xlink:title="Tick counter utilities for FreeRTOS.">
<polygon fill="white" stroke="#666666" points="353.88,-76 265.88,-76 265.88,-56 353.88,-56 353.88,-76"/>
<text xml:space="preserve" text-anchor="middle" x="309.88" y="-62.5" font-family="Helvetica,sans-Serif" font-size="10.00">TickCounter.hpp</text>
</a>
</g>
</g>
<!-- Node1&#45;&gt;Node9 -->
<g id="edge8_Node000001_Node000009" class="edge">
<title>Node1&#45;&gt;Node9</title>
<g id="a_edge8_Node000001_Node000009"><a xlink:title=" ">
<path fill="none" stroke="#63b8ff" d="M342.81,-167.62C336.99,-149.84 324.24,-110.88 316.42,-87"/>
<polygon fill="#63b8ff" stroke="#63b8ff" points="319.84,-86.21 313.41,-77.79 313.19,-88.39 319.84,-86.21"/>
</a>
</g>
</g>
<!-- Node12 -->
<g id="Node000012" class="node">
<title>Node12</title>
<g id="a_Node000012"><a xlink:href="../../de/d1a/_timeout_8hpp.html" target="_top" xlink:title="Timeout utility for FreeRTOS tick&#45;based timing.">
<polygon fill="white" stroke="#666666" points="412.88,-132 342.88,-132 342.88,-112 412.88,-112 412.88,-132"/>
<text xml:space="preserve" text-anchor="middle" x="377.88" y="-118.5" font-family="Helvetica,sans-Serif" font-size="10.00">Timeout.hpp</text>
</a>
</g>
</g>
<!-- Node1&#45;&gt;Node12 -->
<g id="edge15_Node000001_Node000012" class="edge">
<title>Node1&#45;&gt;Node12</title>
<g id="a_edge15_Node000001_Node000012"><a xlink:title=" ">
<path fill="none" stroke="#63b8ff" d="M351.45,-167.59C355.62,-160.55 361.48,-150.67 366.62,-142"/>
<polygon fill="#63b8ff" stroke="#63b8ff" points="369.51,-143.99 371.59,-133.6 363.48,-140.42 369.51,-143.99"/>
</a>
</g>
</g>
<!-- Node14 -->
<g id="Node000014" class="node">
<title>Node14</title>
<g id="a_Node000014"><a xlink:title=" ">
<polygon fill="#e0e0e0" stroke="#999999" points="788.25,-132 705.5,-132 705.5,-112 788.25,-112 788.25,-132"/>
<text xml:space="preserve" text-anchor="middle" x="746.88" y="-118.5" font-family="Helvetica,sans-Serif" font-size="10.00">event_groups.h</text>
</a>
</g>
</g>
<!-- Node1&#45;&gt;Node14 -->
<g id="edge23_Node000001_Node000014" class="edge">
<title>Node1&#45;&gt;Node14</title>
<g id="a_edge23_Node000001_Node000014"><a xlink:title=" ">
<path fill="none" stroke="#63b8ff" d="M389.48,-172.13C453.86,-164.78 578.42,-149.96 694,-132.38"/>
<polygon fill="#63b8ff" stroke="#63b8ff" points="694.31,-135.88 703.66,-130.9 693.25,-128.96 694.31,-135.88"/>
</a>
</g>
</g>
<!-- Node9&#45;&gt;Node4 -->
<g id="edge11_Node000009_Node000004" class="edge">
<title>Node9&#45;&gt;Node4</title>
<g id="a_edge11_Node000009_Node000004"><a xlink:title=" ">
<path fill="none" stroke="#63b8ff" d="M298.03,-55.59C288.18,-47.77 273.94,-36.46 262.27,-27.19"/>
<polygon fill="#63b8ff" stroke="#63b8ff" points="264.78,-24.72 254.77,-21.24 260.42,-30.2 264.78,-24.72"/>
</a>
</g>
</g>
<!-- Node9&#45;&gt;Node5 -->
<g id="edge13_Node000009_Node000005" class="edge">
<title>Node9&#45;&gt;Node5</title>
<g id="a_edge13_Node000009_Node000005"><a xlink:title=" ">
<path fill="none" stroke="#63b8ff" d="M338.62,-55.59C367.11,-46.27 410.75,-31.99 440.93,-22.11"/>
<polygon fill="#63b8ff" stroke="#63b8ff" points="441.93,-25.47 450.34,-19.03 439.75,-18.81 441.93,-25.47"/>
</a>
</g>
</g>
<!-- Node9&#45;&gt;Node6 -->
<g id="edge14_Node000009_Node000006" class="edge">
<title>Node9&#45;&gt;Node6</title>
<g id="a_edge14_Node000009_Node000006"><a xlink:title=" ">
<path fill="none" stroke="#63b8ff" d="M287.23,-55.59C265.88,-46.72 233.73,-33.37 210.17,-23.59"/>
<polygon fill="#63b8ff" stroke="#63b8ff" points="211.68,-20.42 201.11,-19.82 209,-26.89 211.68,-20.42"/>
</a>
</g>
</g>
<!-- Node9&#45;&gt;Node8 -->
<g id="edge9_Node000009_Node000008" class="edge">
<title>Node9&#45;&gt;Node8</title>
<g id="a_edge9_Node000009_Node000008"><a xlink:title=" ">
<path fill="none" stroke="#63b8ff" d="M352.13,-55.53C394.73,-45.99 460.3,-31.29 504.36,-21.42"/>
<polygon fill="#63b8ff" stroke="#63b8ff" points="504.87,-24.89 513.87,-19.29 503.34,-18.06 504.87,-24.89"/>
</a>
</g>
</g>
<!-- Node10 -->
<g id="Node000010" class="node">
<title>Node10</title>
<g id="a_Node000010"><a xlink:title=" ">
<polygon fill="#e0e0e0" stroke="#999999" points="331.38,-20 288.38,-20 288.38,0 331.38,0 331.38,-20"/>
<text xml:space="preserve" text-anchor="middle" x="309.88" y="-6.5" font-family="Helvetica,sans-Serif" font-size="10.00">task.h</text>
</a>
</g>
</g>
<!-- Node9&#45;&gt;Node10 -->
<g id="edge10_Node000009_Node000010" class="edge">
<title>Node9&#45;&gt;Node10</title>
<g id="a_edge10_Node000009_Node000010"><a xlink:title=" ">
<path fill="none" stroke="#63b8ff" d="M309.88,-55.59C309.88,-49.01 309.88,-39.96 309.88,-31.73"/>
<polygon fill="#63b8ff" stroke="#63b8ff" points="313.38,-31.81 309.88,-21.81 306.38,-31.81 313.38,-31.81"/>
</a>
</g>
</g>
<!-- Node11 -->
<g id="Node000011" class="node">
<title>Node11</title>
<g id="a_Node000011"><a xlink:title=" ">
<polygon fill="#e0e0e0" stroke="#999999" points="402,-20 353.75,-20 353.75,0 402,0 402,-20"/>
<text xml:space="preserve" text-anchor="middle" x="377.88" y="-6.5" font-family="Helvetica,sans-Serif" font-size="10.00">cstddef</text>
</a>
</g>
</g>
<!-- Node9&#45;&gt;Node11 -->
<g id="edge12_Node000009_Node000011" class="edge">
<title>Node9&#45;&gt;Node11</title>
<g id="a_edge12_Node000009_Node000011"><a xlink:title=" ">
<path fill="none" stroke="#63b8ff" d="M321.72,-55.59C331.57,-47.77 345.81,-36.46 357.48,-27.19"/>
<polygon fill="#63b8ff" stroke="#63b8ff" points="359.33,-30.2 364.98,-21.24 354.97,-24.72 359.33,-30.2"/>
</a>
</g>
</g>
<!-- Node12&#45;&gt;Node4 -->
<g id="edge19_Node000012_Node000004" class="edge">
<title>Node12&#45;&gt;Node4</title>
<g id="a_edge19_Node000012_Node000004"><a xlink:title=" ">
<path fill="none" stroke="#63b8ff" d="M342.57,-116.94C315.29,-111.92 278.62,-100.75 256.88,-76 246.22,-63.88 242.72,-45.69 241.75,-31.64"/>
<polygon fill="#63b8ff" stroke="#63b8ff" points="245.25,-31.59 241.47,-21.7 238.25,-31.79 245.25,-31.59"/>
</a>
</g>
</g>
<!-- Node12&#45;&gt;Node5 -->
<g id="edge21_Node000012_Node000005" class="edge">
<title>Node12&#45;&gt;Node5</title>
<g id="a_edge21_Node000012_Node000005"><a xlink:title=" ">
<path fill="none" stroke="#63b8ff" d="M413.36,-114.5C435.15,-108.48 461.39,-97.12 474.88,-76 483.24,-62.89 482.6,-45.06 480.23,-31.39"/>
<polygon fill="#63b8ff" stroke="#63b8ff" points="483.67,-30.74 478.09,-21.74 476.83,-32.26 483.67,-30.74"/>
</a>
</g>
</g>
<!-- Node12&#45;&gt;Node6 -->
<g id="edge22_Node000012_Node000006" class="edge">
<title>Node12&#45;&gt;Node6</title>
<g id="a_edge22_Node000012_Node000006"><a xlink:title=" ">
<path fill="none" stroke="#63b8ff" d="M342.59,-114.12C314.11,-107.46 273.83,-95.47 242.88,-76 223.2,-63.63 205.24,-43.86 193.57,-29.37"/>
<polygon fill="#63b8ff" stroke="#63b8ff" points="196.38,-27.28 187.48,-21.53 190.85,-31.58 196.38,-27.28"/>
</a>
</g>
</g>
<!-- Node12&#45;&gt;Node8 -->
<g id="edge16_Node000012_Node000008" class="edge">
<title>Node12&#45;&gt;Node8</title>
<g id="a_edge16_Node000012_Node000008"><a xlink:title=" ">
<path fill="none" stroke="#63b8ff" d="M413.33,-111.61C436.93,-104.3 467.9,-92.58 491.88,-76 510.41,-63.18 527.22,-43.49 538.11,-29.13"/>
<polygon fill="#63b8ff" stroke="#63b8ff" points="540.67,-31.56 543.76,-21.42 535.03,-27.42 540.67,-31.56"/>
</a>
</g>
</g>
<!-- Node12&#45;&gt;Node9 -->
<g id="edge17_Node000012_Node000009" class="edge">
<title>Node12&#45;&gt;Node9</title>
<g id="a_edge17_Node000012_Node000009"><a xlink:title=" ">
<path fill="none" stroke="#63b8ff" d="M366.03,-111.59C356.18,-103.77 341.94,-92.46 330.27,-83.19"/>
<polygon fill="#63b8ff" stroke="#63b8ff" points="332.78,-80.72 322.77,-77.24 328.42,-86.2 332.78,-80.72"/>
</a>
</g>
</g>
<!-- Node12&#45;&gt;Node11 -->
<g id="edge20_Node000012_Node000011" class="edge">
<title>Node12&#45;&gt;Node11</title>
<g id="a_edge20_Node000012_Node000011"><a xlink:title=" ">
<path fill="none" stroke="#63b8ff" d="M377.88,-111.62C377.88,-94.01 377.88,-55.59 377.88,-31.65"/>
<polygon fill="#63b8ff" stroke="#63b8ff" points="381.38,-31.87 377.88,-21.87 374.38,-31.87 381.38,-31.87"/>
</a>
</g>
</g>
<!-- Node13 -->
<g id="Node000013" class="node">
<title>Node13</title>
<g id="a_Node000013"><a xlink:title=" ">
<polygon fill="#e0e0e0" stroke="#999999" points="465.75,-76 410,-76 410,-56 465.75,-56 465.75,-76"/>
<text xml:space="preserve" text-anchor="middle" x="437.88" y="-62.5" font-family="Helvetica,sans-Serif" font-size="10.00">algorithm</text>
</a>
</g>
</g>
<!-- Node12&#45;&gt;Node13 -->
<g id="edge18_Node000012_Node000013" class="edge">
<title>Node12&#45;&gt;Node13</title>
<g id="a_edge18_Node000012_Node000013"><a xlink:title=" ">
<path fill="none" stroke="#63b8ff" d="M388.33,-111.59C396.84,-103.93 409.09,-92.91 419.27,-83.75"/>
<polygon fill="#63b8ff" stroke="#63b8ff" points="421.33,-86.6 426.42,-77.31 416.64,-81.4 421.33,-86.6"/>
</a>
</g>
</g>
</g>
</svg>
