<?xml version="1.0" encoding="UTF-8" standalone="no"?>
<!DOCTYPE svg PUBLIC "-//W3C//DTD SVG 1.1//EN"
 "http://www.w3.org/Graphics/SVG/1.1/DTD/svg11.dtd">
<!-- Generated by graphviz version 12.2.1 (20241206.2353)
 -->
<!-- Title: App::ApplicationBase Pages: 1 -->
<svg width="503pt" height="300pt"
 viewBox="0.00 0.00 503.25 300.00" xmlns="http://www.w3.org/2000/svg" xmlns:xlink="http://www.w3.org/1999/xlink">
<g id="graph0" class="graph" transform="scale(1 1) rotate(0) translate(4 296)">
<title>App::ApplicationBase</title>
<!-- Node1 -->
<g id="Node000001" class="node">
<title>Node1</title>
<g id="a_Node000001"><a xlink:title="Base class for application components.">
<polygon fill="#999999" stroke="none" points="285.12,-292 183.38,-292 183.38,-208 285.12,-208 285.12,-292"/>
<text text-anchor="start" x="187.38" y="-278.5" font-family="Helvetica,sans-Serif" font-size="10.00">App::ApplicationBase</text>
<text text-anchor="start" x="232.75" y="-262.5" font-family="Helvetica,sans-Serif" font-size="10.00"> </text>
<text text-anchor="start" x="187.88" y="-246.5" font-family="Helvetica,sans-Serif" font-size="10.00">#</text>
<text text-anchor="start" x="197.62" y="-246.5" font-family="Helvetica,sans-Serif" font-size="10.00">ApplicationBase()</text>
<text text-anchor="start" x="187.88" y="-230.5" font-family="Helvetica,sans-Serif" font-size="10.00">#</text>
<text text-anchor="start" x="197.62" y="-230.5" font-family="Helvetica,sans-Serif" font-size="10.00">~ApplicationBase()</text>
<text text-anchor="start" x="187.88" y="-214.5" font-family="Helvetica,sans-Serif" font-size="10.00">#</text>
<text text-anchor="start" x="197.62" y="-214.5" font-family="Helvetica,sans-Serif" font-size="10.00">getName()</text>
<polygon fill="#666666" stroke="#666666" points="183.38,-274 183.38,-274 285.12,-274 285.12,-274 183.38,-274"/>
<polygon fill="#666666" stroke="#666666" points="183.38,-258 183.38,-258 285.12,-258 285.12,-258 183.38,-258"/>
<polygon fill="none" stroke="#666666" points="183.38,-208 183.38,-292 285.12,-292 285.12,-208 183.38,-208"/>
</a>
</g>
</g>
<!-- Node2 -->
<g id="Node000002" class="node">
<title>Node2</title>
<g id="a_Node000002"><a xlink:href="../../d3/d42/a00235.html" target="_top" xlink:title="The ApplicationNone class represents an application that does not perform any specific functionality.">
<polygon fill="white" stroke="none" points="102.5,-164 0,-164 0,-96 102.5,-96 102.5,-164"/>
<text text-anchor="start" x="4" y="-150.5" font-family="Helvetica,sans-Serif" font-size="10.00">App::ApplicationNone</text>
<text text-anchor="start" x="49.75" y="-134.5" font-family="Helvetica,sans-Serif" font-size="10.00"> </text>
<text text-anchor="start" x="10.88" y="-118.5" font-family="Helvetica,sans-Serif" font-size="10.00">+</text>
<text text-anchor="start" x="27.75" y="-118.5" font-family="Helvetica,sans-Serif" font-size="10.00">getName()</text>
<text text-anchor="start" x="10.88" y="-102.5" font-family="Helvetica,sans-Serif" font-size="10.00">+</text>
<text text-anchor="start" x="27.75" y="-102.5" font-family="Helvetica,sans-Serif" font-size="10.00">getInstance()</text>
<polygon fill="#666666" stroke="#666666" points="0,-146 0,-146 102.5,-146 102.5,-146 0,-146"/>
<polygon fill="#666666" stroke="#666666" points="0,-130 0,-130 102.5,-130 102.5,-130 0,-130"/>
<polygon fill="none" stroke="#666666" points="0,-96 0,-164 102.5,-164 102.5,-96 0,-96"/>
</a>
</g>
</g>
<!-- Node1&#45;&gt;Node2 -->
<g id="edge1_Node000001_Node000002" class="edge">
<title>Node1&#45;&gt;Node2</title>
<g id="a_edge1_Node000001_Node000002"><a xlink:title=" ">
<path fill="none" stroke="#63b8ff" d="M174.08,-211.51C154.31,-199.05 132.27,-185.04 112.25,-172 108.19,-169.35 103.99,-166.59 99.78,-163.8"/>
<polygon fill="none" stroke="#63b8ff" points="171.98,-214.32 182.31,-216.68 175.7,-208.39 171.98,-214.32"/>
</a>
</g>
</g>
<!-- Node3 -->
<g id="Node000003" class="node">
<title>Node3</title>
<g id="a_Node000003"><a xlink:href="../../d0/d1f/a00247.html" target="_top" xlink:title="The RemoteIOBase class is responsible for managing remote I/O operations.">
<polygon fill="white" stroke="none" points="219.62,-172 120.88,-172 120.88,-88 219.62,-88 219.62,-172"/>
<text text-anchor="start" x="124.88" y="-158.5" font-family="Helvetica,sans-Serif" font-size="10.00">App::RemoteIOBase</text>
<text text-anchor="start" x="168.75" y="-142.5" font-family="Helvetica,sans-Serif" font-size="10.00"> </text>
<text text-anchor="start" x="125.19" y="-126.5" font-family="Helvetica,sans-Serif" font-size="10.00">+</text>
<text text-anchor="start" x="135.5" y="-126.5" font-family="Helvetica,sans-Serif" font-size="10.00">RemoteIOBase()</text>
<text text-anchor="start" x="125.19" y="-110.5" font-family="Helvetica,sans-Serif" font-size="10.00">+</text>
<text text-anchor="start" x="135.5" y="-110.5" font-family="Helvetica,sans-Serif" font-size="10.00">~RemoteIOBase()</text>
<text text-anchor="start" x="125.19" y="-94.5" font-family="Helvetica,sans-Serif" font-size="10.00">+</text>
<text text-anchor="start" x="135.5" y="-94.5" font-family="Helvetica,sans-Serif" font-size="10.00">getName()</text>
<polygon fill="#666666" stroke="#666666" points="120.88,-154 120.88,-154 219.62,-154 219.62,-154 120.88,-154"/>
<polygon fill="#666666" stroke="#666666" points="120.88,-138 120.88,-138 219.62,-138 219.62,-138 120.88,-138"/>
<polygon fill="none" stroke="#666666" points="120.88,-88 120.88,-172 219.62,-172 219.62,-88 120.88,-88"/>
</a>
</g>
</g>
<!-- Node1&#45;&gt;Node3 -->
<g id="edge2_Node000001_Node000003" class="edge">
<title>Node1&#45;&gt;Node3</title>
<g id="a_edge2_Node000001_Node000003"><a xlink:title=" ">
<path fill="none" stroke="#63b8ff" d="M206.57,-197.97C201.84,-189.25 196.98,-180.28 192.42,-171.87"/>
<polygon fill="none" stroke="#63b8ff" points="203.48,-199.61 211.32,-206.73 209.63,-196.27 203.48,-199.61"/>
</a>
</g>
</g>
<!-- Node6 -->
<g id="Node000006" class="node">
<title>Node6</title>
<g id="a_Node000006"><a xlink:href="../../d3/d1a/a00251.html" target="_top" xlink:title="The RotationTableParallel class is responsible for managing the rotation table in parallel configurat...">
<polygon fill="white" stroke="none" points="361,-172 237.5,-172 237.5,-88 361,-88 361,-172"/>
<text text-anchor="start" x="241.5" y="-158.5" font-family="Helvetica,sans-Serif" font-size="10.00">App::RotationTableParallel</text>
<text text-anchor="start" x="297.75" y="-142.5" font-family="Helvetica,sans-Serif" font-size="10.00"> </text>
<text text-anchor="start" x="241.81" y="-126.5" font-family="Helvetica,sans-Serif" font-size="10.00">+</text>
<text text-anchor="start" x="252.12" y="-126.5" font-family="Helvetica,sans-Serif" font-size="10.00">RotationTableParallel()</text>
<text text-anchor="start" x="241.81" y="-110.5" font-family="Helvetica,sans-Serif" font-size="10.00">+</text>
<text text-anchor="start" x="252.12" y="-110.5" font-family="Helvetica,sans-Serif" font-size="10.00">~RotationTableParallel()</text>
<text text-anchor="start" x="241.81" y="-94.5" font-family="Helvetica,sans-Serif" font-size="10.00">+</text>
<text text-anchor="start" x="252.12" y="-94.5" font-family="Helvetica,sans-Serif" font-size="10.00">getName()</text>
<polygon fill="#666666" stroke="#666666" points="237.5,-154 237.5,-154 361,-154 361,-154 237.5,-154"/>
<polygon fill="#666666" stroke="#666666" points="237.5,-138 237.5,-138 361,-138 361,-138 237.5,-138"/>
<polygon fill="none" stroke="#666666" points="237.5,-88 237.5,-172 361,-172 361,-88 237.5,-88"/>
</a>
</g>
</g>
<!-- Node1&#45;&gt;Node6 -->
<g id="edge5_Node000001_Node000006" class="edge">
<title>Node1&#45;&gt;Node6</title>
<g id="a_edge5_Node000001_Node000006"><a xlink:title=" ">
<path fill="none" stroke="#63b8ff" d="M262.2,-198.26C267.06,-189.44 272.05,-180.38 276.74,-171.87"/>
<polygon fill="none" stroke="#63b8ff" points="259.29,-196.29 257.53,-206.73 265.42,-199.66 259.29,-196.29"/>
</a>
</g>
</g>
<!-- Node7 -->
<g id="Node000007" class="node">
<title>Node7</title>
<g id="a_Node000007"><a xlink:href="../../d4/d04/a00255.html" target="_top" xlink:title="The RotationTableSerial class is responsible for managing the rotation table in serial mode.">
<polygon fill="white" stroke="none" points="495.25,-172 379.25,-172 379.25,-88 495.25,-88 495.25,-172"/>
<text text-anchor="start" x="383.25" y="-158.5" font-family="Helvetica,sans-Serif" font-size="10.00">App::RotationTableSerial</text>
<text text-anchor="start" x="435.75" y="-142.5" font-family="Helvetica,sans-Serif" font-size="10.00"> </text>
<text text-anchor="start" x="383.56" y="-126.5" font-family="Helvetica,sans-Serif" font-size="10.00">+</text>
<text text-anchor="start" x="393.88" y="-126.5" font-family="Helvetica,sans-Serif" font-size="10.00">RotationTableSerial()</text>
<text text-anchor="start" x="383.56" y="-110.5" font-family="Helvetica,sans-Serif" font-size="10.00">+</text>
<text text-anchor="start" x="393.88" y="-110.5" font-family="Helvetica,sans-Serif" font-size="10.00">~RotationTableSerial()</text>
<text text-anchor="start" x="383.56" y="-94.5" font-family="Helvetica,sans-Serif" font-size="10.00">+</text>
<text text-anchor="start" x="393.88" y="-94.5" font-family="Helvetica,sans-Serif" font-size="10.00">getName()</text>
<polygon fill="#666666" stroke="#666666" points="379.25,-154 379.25,-154 495.25,-154 495.25,-154 379.25,-154"/>
<polygon fill="#666666" stroke="#666666" points="379.25,-138 379.25,-138 495.25,-138 495.25,-138 379.25,-138"/>
<polygon fill="none" stroke="#666666" points="379.25,-88 379.25,-172 495.25,-172 495.25,-88 379.25,-88"/>
</a>
</g>
</g>
<!-- Node1&#45;&gt;Node7 -->
<g id="edge6_Node000001_Node000007" class="edge">
<title>Node1&#45;&gt;Node7</title>
<g id="a_edge6_Node000001_Node000007"><a xlink:title=" ">
<path fill="none" stroke="#63b8ff" d="M294.76,-215.32C318.41,-202.01 345.7,-186.46 370.25,-172 373.31,-170.2 376.43,-168.34 379.58,-166.46"/>
<polygon fill="none" stroke="#63b8ff" points="293.18,-212.19 286.18,-220.14 296.61,-218.29 293.18,-212.19"/>
</a>
</g>
</g>
<!-- Node4 -->
<g id="Node000004" class="node">
<title>Node4</title>
<g id="a_Node000004"><a xlink:href="../../d0/d27/a00239.html" target="_top" xlink:title="A class that represents a remote I/O interface with a baud rate of 57600.">
<polygon fill="white" stroke="none" points="162.5,-52 60,-52 60,0 162.5,0 162.5,-52"/>
<text text-anchor="start" x="64" y="-38.5" font-family="Helvetica,sans-Serif" font-size="10.00">App::RemoteIO57600</text>
<text text-anchor="start" x="109.75" y="-22.5" font-family="Helvetica,sans-Serif" font-size="10.00"> </text>
<text text-anchor="start" x="65.81" y="-6.5" font-family="Helvetica,sans-Serif" font-size="10.00">+</text>
<text text-anchor="start" x="77.62" y="-6.5" font-family="Helvetica,sans-Serif" font-size="10.00">RemoteIO57600()</text>
<polygon fill="#666666" stroke="#666666" points="60,-34 60,-34 162.5,-34 162.5,-34 60,-34"/>
<polygon fill="#666666" stroke="#666666" points="60,-18 60,-18 162.5,-18 162.5,-18 60,-18"/>
<polygon fill="none" stroke="#666666" points="60,0 60,-52 162.5,-52 162.5,0 60,0"/>
</a>
</g>
</g>
<!-- Node3&#45;&gt;Node4 -->
<g id="edge3_Node000003_Node000004" class="edge">
<title>Node3&#45;&gt;Node4</title>
<g id="a_edge3_Node000003_Node000004"><a xlink:title=" ">
<path fill="none" stroke="#63b8ff" d="M140.85,-78.18C135.53,-68.98 130.21,-59.78 125.57,-51.76"/>
<polygon fill="none" stroke="#63b8ff" points="137.8,-79.89 145.83,-86.79 143.86,-76.38 137.8,-79.89"/>
</a>
</g>
</g>
<!-- Node5 -->
<g id="Node000005" class="node">
<title>Node5</title>
<g id="a_Node000005"><a xlink:href="../../d6/d82/a00243.html" target="_top" xlink:title="The RemoteIO9600 class is responsible for managing the communication with the remote I/O base at a ba...">
<polygon fill="white" stroke="none" points="277.88,-52 180.62,-52 180.62,0 277.88,0 277.88,-52"/>
<text text-anchor="start" x="184.62" y="-38.5" font-family="Helvetica,sans-Serif" font-size="10.00">App::RemoteIO9600</text>
<text text-anchor="start" x="227.75" y="-22.5" font-family="Helvetica,sans-Serif" font-size="10.00"> </text>
<text text-anchor="start" x="186.44" y="-6.5" font-family="Helvetica,sans-Serif" font-size="10.00">+</text>
<text text-anchor="start" x="198.25" y="-6.5" font-family="Helvetica,sans-Serif" font-size="10.00">RemoteIO9600()</text>
<polygon fill="#666666" stroke="#666666" points="180.62,-34 180.62,-34 277.88,-34 277.88,-34 180.62,-34"/>
<polygon fill="#666666" stroke="#666666" points="180.62,-18 180.62,-18 277.88,-18 277.88,-18 180.62,-18"/>
<polygon fill="none" stroke="#666666" points="180.62,0 180.62,-52 277.88,-52 277.88,0 180.62,0"/>
</a>
</g>
</g>
<!-- Node3&#45;&gt;Node5 -->
<g id="edge4_Node000003_Node000005" class="edge">
<title>Node3&#45;&gt;Node5</title>
<g id="a_edge4_Node000003_Node000005"><a xlink:title=" ">
<path fill="none" stroke="#63b8ff" d="M199.65,-78.18C204.97,-68.98 210.29,-59.78 214.93,-51.76"/>
<polygon fill="none" stroke="#63b8ff" points="196.64,-76.38 194.67,-86.79 202.7,-79.89 196.64,-76.38"/>
</a>
</g>
</g>
</g>
</svg>
