<?xml version="1.0" encoding="UTF-8" standalone="no"?>
<!DOCTYPE svg PUBLIC "-//W3C//DTD SVG 1.1//EN"
 "http://www.w3.org/Graphics/SVG/1.1/DTD/svg11.dtd">
<!-- Generated by graphviz version 12.2.1 (20241206.2353)
 -->
<!-- Title: Lib::Xbee::Core::Frame::Helper::Vector Pages: 1 -->
<svg width="118pt" height="168pt"
 viewBox="0.00 0.00 118.00 168.00" xmlns="http://www.w3.org/2000/svg" xmlns:xlink="http://www.w3.org/1999/xlink">
<g id="graph0" class="graph" transform="scale(1 1) rotate(0) translate(4 164)">
<title>Lib::Xbee::Core::Frame::Helper::Vector</title>
<!-- Node1 -->
<g id="Node000001" class="node">
<title>Node1</title>
<g id="a_Node000001"><a xlink:title="Provides functions for manipulating std::vector&lt;uint8_t&gt;.">
<polygon fill="#999999" stroke="none" points="110,-160 0,-160 0,0 110,0 110,-160"/>
<text text-anchor="start" x="4" y="-146.5" font-family="Helvetica,sans-Serif" font-size="10.00">Lib::Xbee::Core::Frame</text>
<text text-anchor="start" x="20.88" y="-134.5" font-family="Helvetica,sans-Serif" font-size="10.00">::Helper::Vector</text>
<text text-anchor="start" x="53.5" y="-118.5" font-family="Helvetica,sans-Serif" font-size="10.00"> </text>
<text text-anchor="start" x="17.62" y="-102.5" font-family="Helvetica,sans-Serif" font-size="10.00">+</text>
<text text-anchor="start" x="41.25" y="-102.5" font-family="Helvetica,sans-Serif" font-size="10.00">append()</text>
<text text-anchor="start" x="17.62" y="-86.5" font-family="Helvetica,sans-Serif" font-size="10.00">+</text>
<text text-anchor="start" x="41.25" y="-86.5" font-family="Helvetica,sans-Serif" font-size="10.00">append()</text>
<text text-anchor="start" x="17.62" y="-70.5" font-family="Helvetica,sans-Serif" font-size="10.00">+</text>
<text text-anchor="start" x="41.25" y="-70.5" font-family="Helvetica,sans-Serif" font-size="10.00">append()</text>
<text text-anchor="start" x="17.62" y="-54.5" font-family="Helvetica,sans-Serif" font-size="10.00">+</text>
<text text-anchor="start" x="41.25" y="-54.5" font-family="Helvetica,sans-Serif" font-size="10.00">append()</text>
<text text-anchor="start" x="17.62" y="-38.5" font-family="Helvetica,sans-Serif" font-size="10.00">+</text>
<text text-anchor="start" x="41.25" y="-38.5" font-family="Helvetica,sans-Serif" font-size="10.00">assign()</text>
<text text-anchor="start" x="17.62" y="-22.5" font-family="Helvetica,sans-Serif" font-size="10.00">+</text>
<text text-anchor="start" x="41.25" y="-22.5" font-family="Helvetica,sans-Serif" font-size="10.00">append()</text>
<text text-anchor="start" x="17.62" y="-6.5" font-family="Helvetica,sans-Serif" font-size="10.00">+</text>
<text text-anchor="start" x="41.25" y="-6.5" font-family="Helvetica,sans-Serif" font-size="10.00">append()</text>
<polygon fill="#666666" stroke="#666666" points="0,-130 0,-130 110,-130 110,-130 0,-130"/>
<polygon fill="#666666" stroke="#666666" points="0,-114 0,-114 110,-114 110,-114 0,-114"/>
<polygon fill="none" stroke="#666666" points="0,0 0,-160 110,-160 110,0 0,0"/>
</a>
</g>
</g>
</g>
</svg>
