<?xml version="1.0" encoding="UTF-8" standalone="no"?>
<!DOCTYPE svg PUBLIC "-//W3C//DTD SVG 1.1//EN"
 "http://www.w3.org/Graphics/SVG/1.1/DTD/svg11.dtd">
<!-- Generated by graphviz version 13.1.0 (20250701.0955)
 -->
<!-- Title: Lib::Xbee::API::Pause Pages: 1 -->
<svg width="280pt" height="196pt"
 viewBox="0.00 0.00 280.00 196.00" xmlns="http://www.w3.org/2000/svg" xmlns:xlink="http://www.w3.org/1999/xlink">
<g id="graph0" class="graph" transform="scale(1 1) rotate(0) translate(4 192)">
<title>Lib::Xbee::API::Pause</title>
<!-- Node1 -->
<g id="Node000001" class="node">
<title>Node1</title>
<g id="a_Node000001"><a xlink:title="Abstract base class for pause and resume services.">
<polygon fill="#999999" stroke="none" points="187.62,-188 82.12,-188 82.12,-168 187.62,-168 187.62,-188"/>
<text xml:space="preserve" text-anchor="start" x="86.12" y="-174.5" font-family="Helvetica,sans-Serif" font-size="10.00">Lib::Xbee::API::Pause</text>
<polygon fill="none" stroke="#666666" points="82.12,-168 82.12,-188 187.62,-188 187.62,-168 82.12,-168"/>
</a>
</g>
</g>
<!-- Node2 -->
<g id="Node000002" class="node">
<title>Node2</title>
<g id="a_Node000002"><a xlink:href="../../d2/d61/class_lib_1_1_xbee_1_1_a_p_i_1_1_application_base.html" target="_top" xlink:title="Base class for Xbee API applications.">
<polygon fill="white" stroke="none" points="209,-132 60.75,-132 60.75,-112 209,-112 209,-132"/>
<text xml:space="preserve" text-anchor="start" x="64.75" y="-118.5" font-family="Helvetica,sans-Serif" font-size="10.00">Lib::Xbee::API::ApplicationBase</text>
<polygon fill="none" stroke="#666666" points="60.75,-112 60.75,-132 209,-132 209,-112 60.75,-112"/>
</a>
</g>
</g>
<!-- Node1&#45;&gt;Node2 -->
<g id="edge1_Node000001_Node000002" class="edge">
<title>Node1&#45;&gt;Node2</title>
<g id="a_edge1_Node000001_Node000002"><a xlink:title=" ">
<path fill="none" stroke="#63b8ff" d="M134.88,-156.61C134.88,-148.02 134.88,-138.47 134.88,-131.75"/>
<polygon fill="none" stroke="#63b8ff" points="131.38,-156.57 134.88,-166.57 138.38,-156.57 131.38,-156.57"/>
</a>
</g>
</g>
<!-- Node3 -->
<g id="Node000003" class="node">
<title>Node3</title>
<g id="a_Node000003"><a xlink:href="../../dd/d1f/class_lib_1_1_xbee_1_1_a_p_i_1_1_client_base.html" target="_top" xlink:title="Base class for Xbee API client applications.">
<polygon fill="white" stroke="none" points="125.75,-76 0,-76 0,-56 125.75,-56 125.75,-76"/>
<text xml:space="preserve" text-anchor="start" x="4" y="-62.5" font-family="Helvetica,sans-Serif" font-size="10.00">Lib::Xbee::API::ClientBase</text>
<polygon fill="none" stroke="#666666" points="0,-56 0,-76 125.75,-76 125.75,-56 0,-56"/>
</a>
</g>
</g>
<!-- Node2&#45;&gt;Node3 -->
<g id="edge2_Node000002_Node000003" class="edge">
<title>Node2&#45;&gt;Node3</title>
<g id="a_edge2_Node000002_Node000003"><a xlink:title=" ">
<path fill="none" stroke="#63b8ff" d="M113.92,-105.29C101.1,-95.67 85.16,-83.72 74.54,-75.75"/>
<polygon fill="none" stroke="#63b8ff" points="111.67,-107.97 121.77,-111.17 115.87,-102.37 111.67,-107.97"/>
</a>
</g>
</g>
<!-- Node5 -->
<g id="Node000005" class="node">
<title>Node5</title>
<g id="a_Node000005"><a xlink:href="../../d4/dbb/class_lib_1_1_xbee_1_1_a_p_i_1_1_server_base.html" target="_top" xlink:title="Base class for Xbee server&#45;side communication.">
<polygon fill="white" stroke="none" points="272.25,-76 143.5,-76 143.5,-56 272.25,-56 272.25,-76"/>
<text xml:space="preserve" text-anchor="start" x="147.5" y="-62.5" font-family="Helvetica,sans-Serif" font-size="10.00">Lib::Xbee::API::ServerBase</text>
<polygon fill="none" stroke="#666666" points="143.5,-56 143.5,-76 272.25,-76 272.25,-56 143.5,-56"/>
</a>
</g>
</g>
<!-- Node2&#45;&gt;Node5 -->
<g id="edge4_Node000002_Node000005" class="edge">
<title>Node2&#45;&gt;Node5</title>
<g id="a_edge4_Node000002_Node000005"><a xlink:title=" ">
<path fill="none" stroke="#63b8ff" d="M156.12,-105.29C169.12,-95.67 185.28,-83.72 196.04,-75.75"/>
<polygon fill="none" stroke="#63b8ff" points="154.1,-102.42 148.15,-111.18 158.27,-108.05 154.1,-102.42"/>
</a>
</g>
</g>
<!-- Node4 -->
<g id="Node000004" class="node">
<title>Node4</title>
<g id="a_Node000004"><a xlink:href="../../d3/daf/class_xbee_1_1_client.html" target="_top" xlink:title="Xbee wireless communication client for embedded firmware applications.">
<polygon fill="white" stroke="none" points="93.88,-20 31.88,-20 31.88,0 93.88,0 93.88,-20"/>
<text xml:space="preserve" text-anchor="start" x="35.88" y="-6.5" font-family="Helvetica,sans-Serif" font-size="10.00">Xbee::Client</text>
<polygon fill="none" stroke="#666666" points="31.88,0 31.88,-20 93.88,-20 93.88,0 31.88,0"/>
</a>
</g>
</g>
<!-- Node3&#45;&gt;Node4 -->
<g id="edge3_Node000003_Node000004" class="edge">
<title>Node3&#45;&gt;Node4</title>
<g id="a_edge3_Node000003_Node000004"><a xlink:title=" ">
<path fill="none" stroke="#63b8ff" d="M62.88,-44.61C62.88,-36.02 62.88,-26.47 62.88,-19.75"/>
<polygon fill="none" stroke="#63b8ff" points="59.38,-44.57 62.88,-54.57 66.38,-44.57 59.38,-44.57"/>
</a>
</g>
</g>
</g>
</svg>
