<?xml version="1.0" encoding="UTF-8" standalone="no"?>
<!DOCTYPE svg PUBLIC "-//W3C//DTD SVG 1.1//EN"
 "http://www.w3.org/Graphics/SVG/1.1/DTD/svg11.dtd">
<!-- Generated by graphviz version 10.0.1 (20240210.2158)
 -->
<!-- Title: Lib::Xbee::Core::AtCommandString Pages: 1 -->
<svg width="144pt" height="104pt"
 viewBox="0.00 0.00 144.00 104.00" xmlns="http://www.w3.org/2000/svg" xmlns:xlink="http://www.w3.org/1999/xlink">
<g id="graph0" class="graph" transform="scale(1 1) rotate(0) translate(4 100)">
<title>Lib::Xbee::Core::AtCommandString</title>
<!-- Node1 -->
<g id="Node000001" class="node">
<title>Node1</title>
<g id="a_Node000001"><a xlink:title="Represents an AT command string in the Xbee library.">
<polygon fill="#999999" stroke="none" points="136,-96 0,-96 0,0 136,0 136,-96"/>
<text text-anchor="start" x="5" y="-82.5" font-family="Helvetica,sans-Serif" font-size="10.00">Lib::Xbee::Core::AtCommand</text>
<text text-anchor="start" x="55.25" y="-70.5" font-family="Helvetica,sans-Serif" font-size="10.00">String</text>
<text text-anchor="start" x="66.5" y="-54.5" font-family="Helvetica,sans-Serif" font-size="10.00"> </text>
<text text-anchor="start" x="12" y="-38.5" font-family="Helvetica,sans-Serif" font-size="10.00">+</text>
<text text-anchor="start" x="30" y="-38.5" font-family="Helvetica,sans-Serif" font-size="10.00">AtCommandString()</text>
<text text-anchor="start" x="12" y="-22.5" font-family="Helvetica,sans-Serif" font-size="10.00">+</text>
<text text-anchor="start" x="30" y="-22.5" font-family="Helvetica,sans-Serif" font-size="10.00">AtCommandString()</text>
<text text-anchor="start" x="12" y="-6.5" font-family="Helvetica,sans-Serif" font-size="10.00">+</text>
<text text-anchor="start" x="30" y="-6.5" font-family="Helvetica,sans-Serif" font-size="10.00">operator uint16_t()</text>
<polygon fill="#666666" stroke="#666666" points="0,-66 0,-66 136,-66 136,-66 0,-66"/>
<polygon fill="#666666" stroke="#666666" points="0,-50 0,-50 136,-50 136,-50 0,-50"/>
<polygon fill="none" stroke="#666666" points="0,0 0,-96 136,-96 136,0 0,0"/>
</a>
</g>
</g>
</g>
</svg>
