<?xml version="1.0" encoding="UTF-8" standalone="no"?>
<!DOCTYPE svg PUBLIC "-//W3C//DTD SVG 1.1//EN"
 "http://www.w3.org/Graphics/SVG/1.1/DTD/svg11.dtd">
<!-- Generated by graphviz version 13.1.0 (20250701.0955)
 -->
<!-- Title: RTOS::StreamBuffer::getCapacity Pages: 1 -->
<svg width="258pt" height="90pt"
 viewBox="0.00 0.00 258.00 90.00" xmlns="http://www.w3.org/2000/svg" xmlns:xlink="http://www.w3.org/1999/xlink">
<g id="graph0" class="graph" transform="scale(1 1) rotate(0) translate(4 86)">
<title>RTOS::StreamBuffer::getCapacity</title>
<!-- Node1 -->
<g id="Node000001" class="node">
<title>Node1</title>
<g id="a_Node000001"><a xlink:title="Gets the total buffer capacity.">
<polygon fill="#999999" stroke="#666666" points="106,-57 0,-57 0,-25 106,-25 106,-57"/>
<text xml:space="preserve" text-anchor="start" x="8" y="-43.5" font-family="Helvetica,sans-Serif" font-size="10.00">RTOS::StreamBuffer</text>
<text xml:space="preserve" text-anchor="middle" x="53" y="-31.5" font-family="Helvetica,sans-Serif" font-size="10.00">::getCapacity</text>
</a>
</g>
</g>
<!-- Node2 -->
<g id="Node000002" class="node">
<title>Node2</title>
<g id="a_Node000002"><a xlink:href="../../de/dd2/a00207.html#a106b6b1961b742c76bd83f3d032aad3a" target="_top" xlink:title="Gets the number of bytes available to read.">
<polygon fill="white" stroke="#666666" points="249.12,-82 143.12,-82 143.12,-50 249.12,-50 249.12,-82"/>
<text xml:space="preserve" text-anchor="start" x="151.12" y="-68.5" font-family="Helvetica,sans-Serif" font-size="10.00">RTOS::StreamBuffer</text>
<text xml:space="preserve" text-anchor="middle" x="196.12" y="-56.5" font-family="Helvetica,sans-Serif" font-size="10.00">::getBytesAvailable</text>
</a>
</g>
</g>
<!-- Node1&#45;&gt;Node2 -->
<g id="edge1_Node000001_Node000002" class="edge">
<title>Node1&#45;&gt;Node2</title>
<g id="a_edge1_Node000001_Node000002"><a xlink:title=" ">
<path fill="none" stroke="#63b8ff" d="M106.15,-50.24C114.45,-51.71 123.11,-53.24 131.64,-54.75"/>
<polygon fill="#63b8ff" stroke="#63b8ff" points="130.77,-58.15 141.23,-56.45 131.99,-51.26 130.77,-58.15"/>
</a>
</g>
</g>
<!-- Node3 -->
<g id="Node000003" class="node">
<title>Node3</title>
<g id="a_Node000003"><a xlink:href="../../de/dd2/a00207.html#a9fa51825dff8d1fb8914b5700becd22a" target="_top" xlink:title="Gets the number of free bytes available to write.">
<polygon fill="white" stroke="#666666" points="250.25,-32 142,-32 142,0 250.25,0 250.25,-32"/>
<text xml:space="preserve" text-anchor="start" x="150" y="-18.5" font-family="Helvetica,sans-Serif" font-size="10.00">RTOS::StreamBuffer</text>
<text xml:space="preserve" text-anchor="middle" x="196.12" y="-6.5" font-family="Helvetica,sans-Serif" font-size="10.00">::getSpacesAvailable</text>
</a>
</g>
</g>
<!-- Node1&#45;&gt;Node3 -->
<g id="edge2_Node000001_Node000003" class="edge">
<title>Node1&#45;&gt;Node3</title>
<g id="a_edge2_Node000001_Node000003"><a xlink:title=" ">
<path fill="none" stroke="#63b8ff" d="M106.15,-31.76C114.14,-30.35 122.47,-28.87 130.68,-27.42"/>
<polygon fill="#63b8ff" stroke="#63b8ff" points="131.05,-30.91 140.28,-25.71 129.83,-24.01 131.05,-30.91"/>
</a>
</g>
</g>
</g>
</svg>
