<?xml version="1.0" encoding="UTF-8" standalone="no"?>
<!DOCTYPE svg PUBLIC "-//W3C//DTD SVG 1.1//EN"
 "http://www.w3.org/Graphics/SVG/1.1/DTD/svg11.dtd">
<!-- Generated by graphviz version 13.1.0 (20250701.0955)
 -->
<!-- Title: DriverBase.hpp Pages: 1 -->
<svg width="92pt" height="140pt"
 viewBox="0.00 0.00 92.00 140.00" xmlns="http://www.w3.org/2000/svg" xmlns:xlink="http://www.w3.org/1999/xlink">
<g id="graph0" class="graph" transform="scale(1 1) rotate(0) translate(4 136)">
<title>DriverBase.hpp</title>
<!-- Node1 -->
<g id="Node000001" class="node">
<title>Node1</title>
<g id="a_Node000001"><a xlink:title="Abstract base class for display drivers.">
<polygon fill="#999999" stroke="#666666" points="83.5,-132 0,-132 0,-112 83.5,-112 83.5,-132"/>
<text xml:space="preserve" text-anchor="middle" x="41.75" y="-118.5" font-family="Helvetica,sans-Serif" font-size="10.00">DriverBase.hpp</text>
</a>
</g>
</g>
<!-- Node2 -->
<g id="Node000002" class="node">
<title>Node2</title>
<g id="a_Node000002"><a xlink:href="../../d6/ded/_display_2_components_2_i_l_i9341_2_driver_8hpp.html" target="_top" xlink:title="ILI9341 display controller driver.">
<polygon fill="white" stroke="#666666" points="72.25,-76 11.25,-76 11.25,-56 72.25,-56 72.25,-76"/>
<text xml:space="preserve" text-anchor="middle" x="41.75" y="-62.5" font-family="Helvetica,sans-Serif" font-size="10.00">Driver.hpp</text>
</a>
</g>
</g>
<!-- Node1&#45;&gt;Node2 -->
<g id="edge1_Node000001_Node000002" class="edge">
<title>Node1&#45;&gt;Node2</title>
<g id="a_edge1_Node000001_Node000002"><a xlink:title=" ">
<path fill="none" stroke="#63b8ff" d="M41.75,-100.13C41.75,-91.9 41.75,-82.85 41.75,-76.3"/>
<polygon fill="#63b8ff" stroke="#63b8ff" points="38.25,-100.08 41.75,-110.08 45.25,-100.08 38.25,-100.08"/>
</a>
</g>
</g>
<!-- Node3 -->
<g id="Node000003" class="node">
<title>Node3</title>
<g id="a_Node000003"><a xlink:href="../../d1/db8/_i_l_i9341_8hpp.html" target="_top" xlink:title="ILI9341 display driver alias header.">
<polygon fill="white" stroke="#666666" points="75.25,-20 8.25,-20 8.25,0 75.25,0 75.25,-20"/>
<text xml:space="preserve" text-anchor="middle" x="41.75" y="-6.5" font-family="Helvetica,sans-Serif" font-size="10.00">ILI9341.hpp</text>
</a>
</g>
</g>
<!-- Node2&#45;&gt;Node3 -->
<g id="edge2_Node000002_Node000003" class="edge">
<title>Node2&#45;&gt;Node3</title>
<g id="a_edge2_Node000002_Node000003"><a xlink:title=" ">
<path fill="none" stroke="#63b8ff" d="M41.75,-44.13C41.75,-35.9 41.75,-26.85 41.75,-20.3"/>
<polygon fill="#63b8ff" stroke="#63b8ff" points="38.25,-44.08 41.75,-54.08 45.25,-44.08 38.25,-44.08"/>
</a>
</g>
</g>
</g>
</svg>
