<?xml version="1.0" encoding="UTF-8" standalone="no"?>
<!DOCTYPE svg PUBLIC "-//W3C//DTD SVG 1.1//EN"
 "http://www.w3.org/Graphics/SVG/1.1/DTD/svg11.dtd">
<!-- Generated by graphviz version 12.2.1 (20241206.2353)
 -->
<!-- Title: ScreenBase.hpp Pages: 1 -->
<svg width="2163pt" height="196pt"
 viewBox="0.00 0.00 2163.12 196.00" xmlns="http://www.w3.org/2000/svg" xmlns:xlink="http://www.w3.org/1999/xlink">
<g id="graph0" class="graph" transform="scale(1 1) rotate(0) translate(4 192)">
<title>ScreenBase.hpp</title>
<!-- Node1 -->
<g id="Node000001" class="node">
<title>Node1</title>
<g id="a_Node000001"><a xlink:title="Defines the ScreenBase class for UI components.">
<polygon fill="#999999" stroke="#666666" points="1180.12,-188 1092.12,-188 1092.12,-168 1180.12,-168 1180.12,-188"/>
<text text-anchor="middle" x="1136.12" y="-174.5" font-family="Arial" font-size="10.00">ScreenBase.hpp</text>
</a>
</g>
</g>
<!-- Node2 -->
<g id="Node000002" class="node">
<title>Node2</title>
<g id="a_Node000002"><a xlink:href="../../d1/d09/a00077.html" target="_top" xlink:title="Defines the base class for application components.">
<polygon fill="white" stroke="#666666" points="291.75,-132 186.5,-132 186.5,-112 291.75,-112 291.75,-132"/>
<text text-anchor="middle" x="239.12" y="-118.5" font-family="Arial" font-size="10.00">ApplicationBase.hpp</text>
</a>
</g>
</g>
<!-- Node1&#45;&gt;Node2 -->
<g id="edge1_Node000001_Node000002" class="edge">
<title>Node1&#45;&gt;Node2</title>
<g id="a_edge1_Node000001_Node000002"><a xlink:title=" ">
<path fill="none" stroke="#63b8ff" d="M1080.48,-175.74C946.19,-172.31 593.8,-161.07 301.12,-132 298.2,-131.71 295.21,-131.38 292.19,-131.02"/>
<polygon fill="#63b8ff" stroke="#63b8ff" points="1080.06,-179.23 1090.15,-175.98 1080.24,-172.23 1080.06,-179.23"/>
</a>
</g>
</g>
<!-- Node3 -->
<g id="Node000003" class="node">
<title>Node3</title>
<g id="a_Node000003"><a xlink:href="../../da/dec/a00080.html" target="_top" xlink:title="Declaration of the ApplicationManager class.">
<polygon fill="white" stroke="#666666" points="120.25,-76 0,-76 0,-56 120.25,-56 120.25,-76"/>
<text text-anchor="middle" x="60.12" y="-62.5" font-family="Arial" font-size="10.00">ApplicationManager.hpp</text>
</a>
</g>
</g>
<!-- Node1&#45;&gt;Node3 -->
<g id="edge11_Node000001_Node000003" class="edge">
<title>Node1&#45;&gt;Node3</title>
<g id="a_edge11_Node000001_Node000003"><a xlink:title=" ">
<path fill="none" stroke="#63b8ff" d="M1080.46,-175.87C888.9,-171.78 263.84,-156.65 177.12,-132 135.55,-120.18 92.63,-91.22 72.26,-76.27"/>
<polygon fill="#63b8ff" stroke="#63b8ff" points="1080.33,-179.37 1090.4,-176.08 1080.48,-172.37 1080.33,-179.37"/>
</a>
</g>
</g>
<!-- Node12 -->
<g id="Node000012" class="node">
<title>Node12</title>
<g id="a_Node000012"><a xlink:href="../../da/d15/a00188.html" target="_top" xlink:title="This file contains the declaration of the ApplicationView class.">
<polygon fill="white" stroke="#666666" points="414,-132 310.25,-132 310.25,-112 414,-112 414,-132"/>
<text text-anchor="middle" x="362.12" y="-118.5" font-family="Arial" font-size="10.00">ApplicationView.hpp</text>
</a>
</g>
</g>
<!-- Node1&#45;&gt;Node12 -->
<g id="edge12_Node000001_Node000012" class="edge">
<title>Node1&#45;&gt;Node12</title>
<g id="a_edge12_Node000001_Node000012"><a xlink:title=" ">
<path fill="none" stroke="#63b8ff" d="M1080.36,-175.07C960.05,-170.54 667.25,-157.67 423.12,-132 420.25,-131.7 417.3,-131.36 414.33,-131"/>
<polygon fill="#63b8ff" stroke="#63b8ff" points="1080.16,-178.56 1090.28,-175.43 1080.42,-171.57 1080.16,-178.56"/>
</a>
</g>
</g>
<!-- Node13 -->
<g id="Node000013" class="node">
<title>Node13</title>
<g id="a_Node000013"><a xlink:href="../../d9/dd0/a00191.html" target="_top" xlink:title="Header file for the EditProduceDate screen class.">
<polygon fill="white" stroke="#666666" points="540.62,-132 431.62,-132 431.62,-112 540.62,-112 540.62,-132"/>
<text text-anchor="middle" x="486.12" y="-118.5" font-family="Arial" font-size="10.00">EditProduceDate.hpp</text>
</a>
</g>
</g>
<!-- Node1&#45;&gt;Node13 -->
<g id="edge13_Node000001_Node000013" class="edge">
<title>Node1&#45;&gt;Node13</title>
<g id="a_edge13_Node000001_Node000013"><a xlink:title=" ">
<path fill="none" stroke="#63b8ff" d="M1080.45,-173.9C976.2,-167.83 744.5,-153.11 550.12,-132 547.11,-131.67 544.02,-131.31 540.91,-130.94"/>
<polygon fill="#63b8ff" stroke="#63b8ff" points="1080.23,-177.39 1090.42,-174.47 1080.64,-170.4 1080.23,-177.39"/>
</a>
</g>
</g>
<!-- Node14 -->
<g id="Node000014" class="node">
<title>Node14</title>
<g id="a_Node000014"><a xlink:href="../../dc/d57/a00194.html" target="_top" xlink:title="Header file for the EditSaleDate screen class.">
<polygon fill="white" stroke="#666666" points="651.38,-132 558.88,-132 558.88,-112 651.38,-112 651.38,-132"/>
<text text-anchor="middle" x="605.12" y="-118.5" font-family="Arial" font-size="10.00">EditSaleDate.hpp</text>
</a>
</g>
</g>
<!-- Node1&#45;&gt;Node14 -->
<g id="edge14_Node000001_Node000014" class="edge">
<title>Node1&#45;&gt;Node14</title>
<g id="a_edge14_Node000001_Node000014"><a xlink:title=" ">
<path fill="none" stroke="#63b8ff" d="M1080.28,-172.96C991.21,-166.23 811.6,-151.53 660.12,-132 657.34,-131.64 654.48,-131.25 651.6,-130.83"/>
<polygon fill="#63b8ff" stroke="#63b8ff" points="1079.97,-176.44 1090.21,-173.7 1080.5,-169.46 1079.97,-176.44"/>
</a>
</g>
</g>
<!-- Node15 -->
<g id="Node000015" class="node">
<title>Node15</title>
<g id="a_Node000015"><a xlink:href="../../de/db1/a00197.html" target="_top" xlink:title="Header file for the FirmwareVersion class.">
<polygon fill="white" stroke="#666666" points="776.88,-132 669.38,-132 669.38,-112 776.88,-112 776.88,-132"/>
<text text-anchor="middle" x="723.12" y="-118.5" font-family="Arial" font-size="10.00">FirmwareVersion.hpp</text>
</a>
</g>
</g>
<!-- Node1&#45;&gt;Node15 -->
<g id="edge15_Node000001_Node000015" class="edge">
<title>Node1&#45;&gt;Node15</title>
<g id="a_edge15_Node000001_Node000015"><a xlink:title=" ">
<path fill="none" stroke="#63b8ff" d="M1080.88,-170.14C1011.87,-161.52 890.21,-146.13 786.12,-132 783.17,-131.6 780.14,-131.18 777.07,-130.76"/>
<polygon fill="#63b8ff" stroke="#63b8ff" points="1080.04,-173.56 1090.4,-171.33 1080.91,-166.62 1080.04,-173.56"/>
</a>
</g>
</g>
<!-- Node16 -->
<g id="Node000016" class="node">
<title>Node16</title>
<g id="a_Node000016"><a xlink:href="../../d3/db1/a00200.html" target="_top" xlink:title="Declaration of the HardwareVersion screen class.">
<polygon fill="white" stroke="#666666" points="903.62,-132 794.62,-132 794.62,-112 903.62,-112 903.62,-132"/>
<text text-anchor="middle" x="849.12" y="-118.5" font-family="Arial" font-size="10.00">HardwareVersion.hpp</text>
</a>
</g>
</g>
<!-- Node1&#45;&gt;Node16 -->
<g id="edge16_Node000001_Node000016" class="edge">
<title>Node1&#45;&gt;Node16</title>
<g id="a_edge16_Node000001_Node000016"><a xlink:title=" ">
<path fill="none" stroke="#63b8ff" d="M1080.78,-166.59C1028.22,-156.7 949.92,-141.96 899.18,-132.42"/>
<polygon fill="#63b8ff" stroke="#63b8ff" points="1079.95,-169.99 1090.42,-168.4 1081.24,-163.11 1079.95,-169.99"/>
</a>
</g>
</g>
<!-- Node17 -->
<g id="Node000017" class="node">
<title>Node17</title>
<g id="a_Node000017"><a xlink:href="../../d5/de9/a00176.html" target="_top" xlink:title="Declaration of the MenuBase class, which represents a base class for menu screens in the UI.">
<polygon fill="white" stroke="#666666" points="1002.75,-132 921.5,-132 921.5,-112 1002.75,-112 1002.75,-132"/>
<text text-anchor="middle" x="962.12" y="-118.5" font-family="Arial" font-size="10.00">MenuBase.hpp</text>
</a>
</g>
</g>
<!-- Node1&#45;&gt;Node17 -->
<g id="edge17_Node000001_Node000017" class="edge">
<title>Node1&#45;&gt;Node17</title>
<g id="a_edge17_Node000001_Node000017"><a xlink:title=" ">
<path fill="none" stroke="#63b8ff" d="M1095.22,-164.31C1063.81,-154.56 1021.14,-141.32 992.67,-132.48"/>
<polygon fill="#63b8ff" stroke="#63b8ff" points="1093.78,-167.52 1104.37,-167.15 1095.86,-160.84 1093.78,-167.52"/>
</a>
</g>
</g>
<!-- Node22 -->
<g id="Node000022" class="node">
<title>Node22</title>
<g id="a_Node000022"><a xlink:href="../../d3/dd5/a00215.html" target="_top" xlink:title="Header file for the PeripheralInputs class.">
<polygon fill="white" stroke="#666666" points="1125.75,-132 1020.5,-132 1020.5,-112 1125.75,-112 1125.75,-132"/>
<text text-anchor="middle" x="1073.12" y="-118.5" font-family="Arial" font-size="10.00">PeripheralInputs.hpp</text>
</a>
</g>
</g>
<!-- Node1&#45;&gt;Node22 -->
<g id="edge22_Node000001_Node000022" class="edge">
<title>Node1&#45;&gt;Node22</title>
<g id="a_edge22_Node000001_Node000022"><a xlink:title=" ">
<path fill="none" stroke="#63b8ff" d="M1116.44,-160.13C1105.72,-150.94 1092.88,-139.93 1083.97,-132.3"/>
<polygon fill="#63b8ff" stroke="#63b8ff" points="1114.13,-162.76 1124,-166.61 1118.69,-157.44 1114.13,-162.76"/>
</a>
</g>
</g>
<!-- Node23 -->
<g id="Node000023" class="node">
<title>Node23</title>
<g id="a_Node000023"><a xlink:href="../../dc/d9a/a00218.html" target="_top" xlink:title="Declaration of the PeripheralOutputs class for managing peripheral output screens.">
<polygon fill="white" stroke="#666666" points="1256.5,-132 1143.75,-132 1143.75,-112 1256.5,-112 1256.5,-132"/>
<text text-anchor="middle" x="1200.12" y="-118.5" font-family="Arial" font-size="10.00">PeripheralOutputs.hpp</text>
</a>
</g>
</g>
<!-- Node1&#45;&gt;Node23 -->
<g id="edge23_Node000001_Node000023" class="edge">
<title>Node1&#45;&gt;Node23</title>
<g id="a_edge23_Node000001_Node000023"><a xlink:title=" ">
<path fill="none" stroke="#63b8ff" d="M1155.8,-160.4C1166.74,-151.17 1179.97,-140.01 1189.1,-132.3"/>
<polygon fill="#63b8ff" stroke="#63b8ff" points="1153.82,-157.49 1148.43,-166.62 1158.33,-162.84 1153.82,-157.49"/>
</a>
</g>
</g>
<!-- Node24 -->
<g id="Node000024" class="node">
<title>Node24</title>
<g id="a_Node000024"><a xlink:href="../../dd/d52/a00221.html" target="_top" xlink:title="Declaration of the ProduceDateVeiw class.">
<polygon fill="white" stroke="#666666" points="1386.12,-132 1274.12,-132 1274.12,-112 1386.12,-112 1386.12,-132"/>
<text text-anchor="middle" x="1330.12" y="-118.5" font-family="Arial" font-size="10.00">ProduceDateVeiw.hpp</text>
</a>
</g>
</g>
<!-- Node1&#45;&gt;Node24 -->
<g id="edge24_Node000001_Node000024" class="edge">
<title>Node1&#45;&gt;Node24</title>
<g id="a_edge24_Node000001_Node000024"><a xlink:title=" ">
<path fill="none" stroke="#63b8ff" d="M1180.82,-164.56C1215.91,-154.79 1264.05,-141.39 1296.07,-132.48"/>
<polygon fill="#63b8ff" stroke="#63b8ff" points="1180.07,-161.13 1171.38,-167.19 1181.95,-167.88 1180.07,-161.13"/>
</a>
</g>
</g>
<!-- Node25 -->
<g id="Node000025" class="node">
<title>Node25</title>
<g id="a_Node000025"><a xlink:href="../../d5/ddf/a00224.html" target="_top" xlink:title="Declaration of the RemoteIOWork screen class for the UI module.">
<polygon fill="white" stroke="#666666" points="1506.25,-132 1404,-132 1404,-112 1506.25,-112 1506.25,-132"/>
<text text-anchor="middle" x="1455.12" y="-118.5" font-family="Arial" font-size="10.00">RemoteIOWork.hpp</text>
</a>
</g>
</g>
<!-- Node1&#45;&gt;Node25 -->
<g id="edge25_Node000001_Node000025" class="edge">
<title>Node1&#45;&gt;Node25</title>
<g id="a_edge25_Node000001_Node000025"><a xlink:title=" ">
<path fill="none" stroke="#63b8ff" d="M1191.58,-167.61C1251.34,-157.5 1345.65,-141.53 1403.76,-131.69"/>
<polygon fill="#63b8ff" stroke="#63b8ff" points="1191.25,-164.12 1181.97,-169.24 1192.42,-171.02 1191.25,-164.12"/>
</a>
</g>
</g>
<!-- Node26 -->
<g id="Node000026" class="node">
<title>Node26</title>
<g id="a_Node000026"><a xlink:href="../../d9/d01/a00227.html" target="_top" xlink:title="Declaration of the ResetState screen class.">
<polygon fill="white" stroke="#666666" points="1608.25,-132 1524,-132 1524,-112 1608.25,-112 1608.25,-132"/>
<text text-anchor="middle" x="1566.12" y="-118.5" font-family="Arial" font-size="10.00">ResetState.hpp</text>
</a>
</g>
</g>
<!-- Node1&#45;&gt;Node26 -->
<g id="edge26_Node000001_Node000026" class="edge">
<title>Node1&#45;&gt;Node26</title>
<g id="a_edge26_Node000001_Node000026"><a xlink:title=" ">
<path fill="none" stroke="#63b8ff" d="M1191.93,-171.37C1265.95,-163.68 1400.63,-148.89 1515.12,-132 1517.88,-131.59 1520.72,-131.15 1523.58,-130.69"/>
<polygon fill="#63b8ff" stroke="#63b8ff" points="1191.67,-167.88 1182.08,-172.39 1192.39,-174.84 1191.67,-167.88"/>
</a>
</g>
</g>
<!-- Node27 -->
<g id="Node000027" class="node">
<title>Node27</title>
<g id="a_Node000027"><a xlink:href="../../d1/da8/a00230.html" target="_top" xlink:title="Declaration of the SaleDateVeiw class, which represents a screen for displaying sale dates.">
<polygon fill="white" stroke="#666666" points="1721.88,-132 1626.38,-132 1626.38,-112 1721.88,-112 1721.88,-132"/>
<text text-anchor="middle" x="1674.12" y="-118.5" font-family="Arial" font-size="10.00">SaleDateVeiw.hpp</text>
</a>
</g>
</g>
<!-- Node1&#45;&gt;Node27 -->
<g id="edge27_Node000001_Node000027" class="edge">
<title>Node1&#45;&gt;Node27</title>
<g id="a_edge27_Node000001_Node000027"><a xlink:title=" ">
<path fill="none" stroke="#63b8ff" d="M1191.57,-172.96C1281.21,-166.17 1463.46,-151.3 1617.12,-132 1620.01,-131.64 1622.97,-131.24 1625.95,-130.83"/>
<polygon fill="#63b8ff" stroke="#63b8ff" points="1191.55,-169.45 1181.84,-173.69 1192.07,-176.43 1191.55,-169.45"/>
</a>
</g>
</g>
<!-- Node28 -->
<g id="Node000028" class="node">
<title>Node28</title>
<g id="a_Node000028"><a xlink:href="../../de/df3/a00185.html" target="_top" xlink:title="Header file for the ScreenManager class in the UI namespace.">
<polygon fill="white" stroke="#666666" points="1842.62,-132 1739.62,-132 1739.62,-112 1842.62,-112 1842.62,-132"/>
<text text-anchor="middle" x="1791.12" y="-118.5" font-family="Arial" font-size="10.00">ScreenManager.hpp</text>
</a>
</g>
</g>
<!-- Node1&#45;&gt;Node28 -->
<g id="edge28_Node000001_Node000028" class="edge">
<title>Node1&#45;&gt;Node28</title>
<g id="a_edge28_Node000001_Node000028"><a xlink:title=" ">
<path fill="none" stroke="#63b8ff" d="M1191.55,-174.17C1296.9,-168.49 1533.18,-154.3 1731.12,-132 1733.85,-131.69 1736.63,-131.36 1739.45,-131"/>
<polygon fill="#63b8ff" stroke="#63b8ff" points="1191.58,-170.66 1181.78,-174.69 1191.95,-177.65 1191.58,-170.66"/>
</a>
</g>
</g>
<!-- Node29 -->
<g id="Node000029" class="node">
<title>Node29</title>
<g id="a_Node000029"><a xlink:href="../../d6/de1/a00233.html" target="_top" xlink:title="Declaration of the SerialNumber screen class.">
<polygon fill="white" stroke="#666666" points="1955.12,-132 1861.12,-132 1861.12,-112 1955.12,-112 1955.12,-132"/>
<text text-anchor="middle" x="1908.12" y="-118.5" font-family="Arial" font-size="10.00">SerialNumber.hpp</text>
</a>
</g>
</g>
<!-- Node1&#45;&gt;Node29 -->
<g id="edge29_Node000001_Node000029" class="edge">
<title>Node1&#45;&gt;Node29</title>
<g id="a_edge29_Node000001_Node000029"><a xlink:title=" ">
<path fill="none" stroke="#63b8ff" d="M1191.71,-175.34C1312.3,-171.32 1606.85,-159.35 1852.12,-132 1854.96,-131.68 1857.88,-131.32 1860.81,-130.93"/>
<polygon fill="#63b8ff" stroke="#63b8ff" points="1191.64,-171.84 1181.76,-175.66 1191.87,-178.83 1191.64,-171.84"/>
</a>
</g>
</g>
<!-- Node30 -->
<g id="Node000030" class="node">
<title>Node30</title>
<g id="a_Node000030"><a xlink:href="../../d7/d40/a00236.html" target="_top" xlink:title="Declaration of the Welcome screen class for the UI.">
<polygon fill="white" stroke="#666666" points="2048.75,-132 1973.5,-132 1973.5,-112 2048.75,-112 2048.75,-132"/>
<text text-anchor="middle" x="2011.12" y="-118.5" font-family="Arial" font-size="10.00">Welcome.hpp</text>
</a>
</g>
</g>
<!-- Node1&#45;&gt;Node30 -->
<g id="edge30_Node000001_Node000030" class="edge">
<title>Node1&#45;&gt;Node30</title>
<g id="a_edge30_Node000001_Node000030"><a xlink:title=" ">
<path fill="none" stroke="#63b8ff" d="M1191.8,-176.56C1325.47,-174.95 1674.91,-167.39 1964.12,-132 1967.09,-131.64 1970.16,-131.2 1973.23,-130.71"/>
<polygon fill="#63b8ff" stroke="#63b8ff" points="1191.77,-173.06 1181.81,-176.68 1191.85,-180.06 1191.77,-173.06"/>
</a>
</g>
</g>
<!-- Node31 -->
<g id="Node000031" class="node">
<title>Node31</title>
<g id="a_Node000031"><a xlink:href="../../d0/d27/a00239.html" target="_top" xlink:title="Declaration of the WorkScreen class.">
<polygon fill="white" stroke="#666666" points="2155.12,-132 2067.12,-132 2067.12,-112 2155.12,-112 2155.12,-132"/>
<text text-anchor="middle" x="2111.12" y="-118.5" font-family="Arial" font-size="10.00">WorkScreen.hpp</text>
</a>
</g>
</g>
<!-- Node1&#45;&gt;Node31 -->
<g id="edge31_Node000001_Node000031" class="edge">
<title>Node1&#45;&gt;Node31</title>
<g id="a_edge31_Node000001_Node000031"><a xlink:title=" ">
<path fill="none" stroke="#63b8ff" d="M1191.52,-176.6C1335.08,-175.06 1730.83,-167.65 2058.12,-132 2060.91,-131.7 2063.77,-131.34 2066.65,-130.95"/>
<polygon fill="#63b8ff" stroke="#63b8ff" points="1191.89,-173.09 1181.93,-176.7 1191.96,-180.09 1191.89,-173.09"/>
</a>
</g>
</g>
<!-- Node2&#45;&gt;Node3 -->
<g id="edge2_Node000002_Node000003" class="edge">
<title>Node2&#45;&gt;Node3</title>
<g id="a_edge2_Node000002_Node000003"><a xlink:title=" ">
<path fill="none" stroke="#63b8ff" d="M197.04,-108.31C164.74,-98.56 120.84,-85.32 91.55,-76.48"/>
<polygon fill="#63b8ff" stroke="#63b8ff" points="195.91,-111.62 206.5,-111.16 197.93,-104.92 195.91,-111.62"/>
</a>
</g>
</g>
<!-- Node4 -->
<g id="Node000004" class="node">
<title>Node4</title>
<g id="a_Node000004"><a xlink:href="../../da/d2a/a00086.html" target="_top" xlink:title="This file contains the definition of the ApplicationNone class.">
<polygon fill="white" stroke="#666666" points="244.12,-76 138.12,-76 138.12,-56 244.12,-56 244.12,-76"/>
<text text-anchor="middle" x="191.12" y="-62.5" font-family="Arial" font-size="10.00">ApplicationNone.hpp</text>
</a>
</g>
</g>
<!-- Node2&#45;&gt;Node4 -->
<g id="edge3_Node000002_Node000004" class="edge">
<title>Node2&#45;&gt;Node4</title>
<g id="a_edge3_Node000002_Node000004"><a xlink:title=" ">
<path fill="none" stroke="#63b8ff" d="M223.13,-103C215.18,-94.06 205.9,-83.62 199.39,-76.3"/>
<polygon fill="#63b8ff" stroke="#63b8ff" points="220.5,-105.31 229.76,-110.46 225.73,-100.66 220.5,-105.31"/>
</a>
</g>
</g>
<!-- Node5 -->
<g id="Node000005" class="node">
<title>Node5</title>
<g id="a_Node000005"><a xlink:href="../../d1/dc1/a00092.html" target="_top" xlink:title="Declaration of the RemoteIO class, which extends the ApplicationBase class.">
<polygon fill="white" stroke="#666666" points="342,-76 262.25,-76 262.25,-56 342,-56 342,-76"/>
<text text-anchor="middle" x="302.12" y="-62.5" font-family="Arial" font-size="10.00">RemoteIO.hpp</text>
</a>
</g>
</g>
<!-- Node2&#45;&gt;Node5 -->
<g id="edge4_Node000002_Node000005" class="edge">
<title>Node2&#45;&gt;Node5</title>
<g id="a_edge4_Node000002_Node000005"><a xlink:title=" ">
<path fill="none" stroke="#63b8ff" d="M258.81,-104.13C269.53,-94.94 282.37,-83.93 291.28,-76.3"/>
<polygon fill="#63b8ff" stroke="#63b8ff" points="256.56,-101.44 251.25,-110.61 261.12,-106.76 256.56,-101.44"/>
</a>
</g>
</g>
<!-- Node8 -->
<g id="Node000008" class="node">
<title>Node8</title>
<g id="a_Node000008"><a xlink:href="../../d4/d3a/a00101.html" target="_top" xlink:title="Header file for the RotationTableParallel class.">
<polygon fill="white" stroke="#666666" points="497.62,-76 370.62,-76 370.62,-56 497.62,-56 497.62,-76"/>
<text text-anchor="middle" x="434.12" y="-62.5" font-family="Arial" font-size="10.00">RotationTableParallel.hpp</text>
</a>
</g>
</g>
<!-- Node2&#45;&gt;Node8 -->
<g id="edge7_Node000002_Node000008" class="edge">
<title>Node2&#45;&gt;Node8</title>
<g id="a_edge7_Node000002_Node000008"><a xlink:title=" ">
<path fill="none" stroke="#63b8ff" d="M284.05,-108.56C319.33,-98.79 367.71,-85.39 399.89,-76.48"/>
<polygon fill="#63b8ff" stroke="#63b8ff" points="283.25,-105.15 274.55,-111.19 285.12,-111.89 283.25,-105.15"/>
</a>
</g>
</g>
<!-- Node11 -->
<g id="Node000011" class="node">
<title>Node11</title>
<g id="a_Node000011"><a xlink:href="../../d4/d81/a00110.html" target="_top" xlink:title="Declaration of the RotationTableSerial class.">
<polygon fill="white" stroke="#666666" points="634.88,-76 515.38,-76 515.38,-56 634.88,-56 634.88,-76"/>
<text text-anchor="middle" x="575.12" y="-62.5" font-family="Arial" font-size="10.00">RotationTableSerial.hpp</text>
</a>
</g>
</g>
<!-- Node2&#45;&gt;Node11 -->
<g id="edge10_Node000002_Node000011" class="edge">
<title>Node2&#45;&gt;Node11</title>
<g id="a_edge10_Node000002_Node000011"><a xlink:title=" ">
<path fill="none" stroke="#63b8ff" d="M303.08,-110.72C364.46,-100.86 456.38,-86.08 516.06,-76.49"/>
<polygon fill="#63b8ff" stroke="#63b8ff" points="302.81,-107.22 293.49,-112.26 303.92,-114.13 302.81,-107.22"/>
</a>
</g>
</g>
<!-- Node6 -->
<g id="Node000006" class="node">
<title>Node6</title>
<g id="a_Node000006"><a xlink:href="../../d9/d77/a00095.html" target="_top" xlink:title="Header file for the RemoteIO57600 class.">
<polygon fill="white" stroke="#666666" points="228.12,-20 122.12,-20 122.12,0 228.12,0 228.12,-20"/>
<text text-anchor="middle" x="175.12" y="-6.5" font-family="Arial" font-size="10.00">RemoteIO57600.hpp</text>
</a>
</g>
</g>
<!-- Node5&#45;&gt;Node6 -->
<g id="edge5_Node000005_Node000006" class="edge">
<title>Node5&#45;&gt;Node6</title>
<g id="a_edge5_Node000005_Node000006"><a xlink:title=" ">
<path fill="none" stroke="#63b8ff" d="M269.53,-51.14C246.91,-41.52 217.38,-28.97 197.42,-20.48"/>
<polygon fill="#63b8ff" stroke="#63b8ff" points="268.04,-54.31 278.61,-55 270.78,-47.87 268.04,-54.31"/>
</a>
</g>
</g>
<!-- Node7 -->
<g id="Node000007" class="node">
<title>Node7</title>
<g id="a_Node000007"><a xlink:href="../../d1/d44/a00098.html" target="_top" xlink:title="Header file for the RemoteIO9600 class.">
<polygon fill="white" stroke="#666666" points="346.5,-20 245.75,-20 245.75,0 346.5,0 346.5,-20"/>
<text text-anchor="middle" x="296.12" y="-6.5" font-family="Arial" font-size="10.00">RemoteIO9600.hpp</text>
</a>
</g>
</g>
<!-- Node5&#45;&gt;Node7 -->
<g id="edge6_Node000005_Node000007" class="edge">
<title>Node5&#45;&gt;Node7</title>
<g id="a_edge6_Node000005_Node000007"><a xlink:title=" ">
<path fill="none" stroke="#63b8ff" d="M299.84,-44.43C298.91,-36.11 297.9,-26.93 297.16,-20.3"/>
<polygon fill="#63b8ff" stroke="#63b8ff" points="296.33,-44.54 300.91,-54.09 303.29,-43.76 296.33,-44.54"/>
</a>
</g>
</g>
<!-- Node9 -->
<g id="Node000009" class="node">
<title>Node9</title>
<g id="a_Node000009"><a xlink:href="../../d0/dc2/a00104.html" target="_top" xlink:title="Defines the RotationTableParallel6Pins class which extends RotationTableParallel with a 6&#45;pin paralle...">
<polygon fill="white" stroke="#666666" points="516,-20 364.25,-20 364.25,0 516,0 516,-20"/>
<text text-anchor="middle" x="440.12" y="-6.5" font-family="Arial" font-size="10.00">RotationTableParallel6Pins.hpp</text>
</a>
</g>
</g>
<!-- Node8&#45;&gt;Node9 -->
<g id="edge8_Node000008_Node000009" class="edge">
<title>Node8&#45;&gt;Node9</title>
<g id="a_edge8_Node000008_Node000009"><a xlink:title=" ">
<path fill="none" stroke="#63b8ff" d="M436.41,-44.43C437.34,-36.11 438.35,-26.93 439.09,-20.3"/>
<polygon fill="#63b8ff" stroke="#63b8ff" points="432.96,-43.76 435.34,-54.09 439.92,-44.54 432.96,-43.76"/>
</a>
</g>
</g>
<!-- Node10 -->
<g id="Node000010" class="node">
<title>Node10</title>
<g id="a_Node000010"><a xlink:href="../../df/d98/a00107.html" target="_top" xlink:title="Defines the RotationTableParallel7Pins class which extends RotationTableParallel with a 7&#45;pin paralle...">
<polygon fill="white" stroke="#666666" points="686,-20 534.25,-20 534.25,0 686,0 686,-20"/>
<text text-anchor="middle" x="610.12" y="-6.5" font-family="Arial" font-size="10.00">RotationTableParallel7Pins.hpp</text>
</a>
</g>
</g>
<!-- Node8&#45;&gt;Node10 -->
<g id="edge9_Node000008_Node000010" class="edge">
<title>Node8&#45;&gt;Node10</title>
<g id="a_edge9_Node000008_Node000010"><a xlink:title=" ">
<path fill="none" stroke="#63b8ff" d="M475.5,-52.31C507.27,-42.56 550.43,-29.32 579.23,-20.48"/>
<polygon fill="#63b8ff" stroke="#63b8ff" points="474.76,-48.87 466.23,-55.15 476.82,-55.56 474.76,-48.87"/>
</a>
</g>
</g>
<!-- Node18 -->
<g id="Node000018" class="node">
<title>Node18</title>
<g id="a_Node000018"><a xlink:href="../../de/d79/a00203.html" target="_top" xlink:title="Declaration of the MenuMain class, which represents the main menu screen in the UI.">
<polygon fill="white" stroke="#666666" points="781,-76 701.25,-76 701.25,-56 781,-56 781,-76"/>
<text text-anchor="middle" x="741.12" y="-62.5" font-family="Arial" font-size="10.00">MenuMain.hpp</text>
</a>
</g>
</g>
<!-- Node17&#45;&gt;Node18 -->
<g id="edge18_Node000017_Node000018" class="edge">
<title>Node17&#45;&gt;Node18</title>
<g id="a_edge18_Node000017_Node000018"><a xlink:title=" ">
<path fill="none" stroke="#63b8ff" d="M912.25,-108.81C872.15,-99.01 816.62,-85.45 779.83,-76.46"/>
<polygon fill="#63b8ff" stroke="#63b8ff" points="911.36,-112.2 921.91,-111.17 913.02,-105.4 911.36,-112.2"/>
</a>
</g>
</g>
<!-- Node19 -->
<g id="Node000019" class="node">
<title>Node19</title>
<g id="a_Node000019"><a xlink:href="../../d5/df1/a00206.html" target="_top" xlink:title="Header file for the MenuSelectApplication class.">
<polygon fill="white" stroke="#666666" points="933.38,-76 798.88,-76 798.88,-56 933.38,-56 933.38,-76"/>
<text text-anchor="middle" x="866.12" y="-62.5" font-family="Arial" font-size="10.00">MenuSelectApplication.hpp</text>
</a>
</g>
</g>
<!-- Node17&#45;&gt;Node19 -->
<g id="edge19_Node000017_Node000019" class="edge">
<title>Node17&#45;&gt;Node19</title>
<g id="a_edge19_Node000017_Node000019"><a xlink:title=" ">
<path fill="none" stroke="#63b8ff" d="M935.6,-106.08C918.78,-96.62 897.52,-84.66 882.98,-76.48"/>
<polygon fill="#63b8ff" stroke="#63b8ff" points="933.65,-109 944.08,-110.85 937.08,-102.9 933.65,-109"/>
</a>
</g>
</g>
<!-- Node20 -->
<g id="Node000020" class="node">
<title>Node20</title>
<g id="a_Node000020"><a xlink:href="../../d3/de5/a00209.html" target="_top" xlink:title="Declaration of the MenuSystemSetup class, which is a part of the UI Screen module.">
<polygon fill="white" stroke="#666666" points="1069.12,-76 951.12,-76 951.12,-56 1069.12,-56 1069.12,-76"/>
<text text-anchor="middle" x="1010.12" y="-62.5" font-family="Arial" font-size="10.00">MenuSystemSetup.hpp</text>
</a>
</g>
</g>
<!-- Node17&#45;&gt;Node20 -->
<g id="edge20_Node000017_Node000020" class="edge">
<title>Node17&#45;&gt;Node20</title>
<g id="a_edge20_Node000017_Node000020"><a xlink:title=" ">
<path fill="none" stroke="#63b8ff" d="M978.12,-103C986.07,-94.06 995.35,-83.62 1001.86,-76.3"/>
<polygon fill="#63b8ff" stroke="#63b8ff" points="975.52,-100.66 971.49,-110.46 980.75,-105.31 975.52,-100.66"/>
</a>
</g>
</g>
<!-- Node21 -->
<g id="Node000021" class="node">
<title>Node21</title>
<g id="a_Node000021"><a xlink:href="../../dd/dc1/a00212.html" target="_top" xlink:title="Declaration of the MenuSystemView class.">
<polygon fill="white" stroke="#666666" points="1200.88,-76 1087.38,-76 1087.38,-56 1200.88,-56 1200.88,-76"/>
<text text-anchor="middle" x="1144.12" y="-62.5" font-family="Arial" font-size="10.00">MenuSystemView.hpp</text>
</a>
</g>
</g>
<!-- Node17&#45;&gt;Node21 -->
<g id="edge21_Node000017_Node000021" class="edge">
<title>Node17&#45;&gt;Node21</title>
<g id="a_edge21_Node000017_Node000021"><a xlink:title=" ">
<path fill="none" stroke="#63b8ff" d="M1004.48,-108.43C1037.37,-98.67 1082.26,-85.35 1112.18,-76.48"/>
<polygon fill="#63b8ff" stroke="#63b8ff" points="1003.87,-104.96 995.28,-111.16 1005.86,-111.67 1003.87,-104.96"/>
</a>
</g>
</g>
</g>
</svg>
