<?xml version="1.0" encoding="UTF-8" standalone="no"?>
<!DOCTYPE svg PUBLIC "-//W3C//DTD SVG 1.1//EN"
 "http://www.w3.org/Graphics/SVG/1.1/DTD/svg11.dtd">
<!-- Generated by graphviz version 13.1.0 (20250701.0955)
 -->
<!-- Title: ModelBase::Listener Pages: 1 -->
<svg width="706pt" height="344pt"
 viewBox="0.00 0.00 706.00 344.00" xmlns="http://www.w3.org/2000/svg" xmlns:xlink="http://www.w3.org/1999/xlink">
<g id="graph0" class="graph" transform="scale(1 1) rotate(0) translate(4 340)">
<title>ModelBase::Listener</title>
<!-- Node1 -->
<g id="Node000001" class="node">
<title>Node1</title>
<g id="a_Node000001"><a xlink:title="Listener interface for model event notifications.">
<polygon fill="#999999" stroke="none" points="431.88,-52 334.62,-52 334.62,0 431.88,0 431.88,-52"/>
<text xml:space="preserve" text-anchor="start" x="338.62" y="-38.5" font-family="Helvetica,sans-Serif" font-size="10.00">ModelBase::Listener</text>
<text xml:space="preserve" text-anchor="start" x="381.75" y="-22.5" font-family="Helvetica,sans-Serif" font-size="10.00"> </text>
<text xml:space="preserve" text-anchor="start" x="381.75" y="-6.5" font-family="Helvetica,sans-Serif" font-size="10.00"> </text>
<polygon fill="#666666" stroke="#666666" points="334.62,-34 334.62,-34 431.88,-34 431.88,-34 334.62,-34"/>
<polygon fill="#666666" stroke="#666666" points="334.62,-18 334.62,-18 431.88,-18 431.88,-18 334.62,-18"/>
<polygon fill="none" stroke="#666666" points="334.62,0 334.62,-52 431.88,-52 431.88,0 334.62,0"/>
</a>
</g>
</g>
<!-- Node2 -->
<g id="Node000002" class="node">
<title>Node2</title>
<g id="a_Node000002"><a xlink:href="../../da/df6/class_model_xbee_1_1_listener.html" target="_top" xlink:title="Listener interface for XBee model events.">
<polygon fill="white" stroke="none" points="178.5,-336 0,-336 0,-88 178.5,-88 178.5,-336"/>
<text xml:space="preserve" text-anchor="start" x="44.62" y="-322.5" font-family="Helvetica,sans-Serif" font-size="10.00">ModelXbee::Listener</text>
<text xml:space="preserve" text-anchor="start" x="87.75" y="-306.5" font-family="Helvetica,sans-Serif" font-size="10.00"> </text>
<text xml:space="preserve" text-anchor="start" x="4" y="-290.5" font-family="Helvetica,sans-Serif" font-size="10.00">+</text>
<text xml:space="preserve" text-anchor="start" x="14" y="-290.5" font-family="Helvetica,sans-Serif" font-size="10.00">Listener()</text>
<text xml:space="preserve" text-anchor="start" x="4" y="-274.5" font-family="Helvetica,sans-Serif" font-size="10.00">+</text>
<text xml:space="preserve" text-anchor="start" x="14" y="-274.5" font-family="Helvetica,sans-Serif" font-size="10.00">~Listener()</text>
<text xml:space="preserve" text-anchor="start" x="4" y="-258.5" font-family="Helvetica,sans-Serif" font-size="10.00">+</text>
<text xml:space="preserve" text-anchor="start" x="14" y="-258.5" font-family="Helvetica,sans-Serif" font-size="10.00">xbeeSignalStrengthValueChanged()</text>
<text xml:space="preserve" text-anchor="start" x="4" y="-242.5" font-family="Helvetica,sans-Serif" font-size="10.00">+</text>
<text xml:space="preserve" text-anchor="start" x="14" y="-242.5" font-family="Helvetica,sans-Serif" font-size="10.00">xbeeSignalStrengthMinValue</text>
<text xml:space="preserve" text-anchor="start" x="14" y="-230.5" font-family="Helvetica,sans-Serif" font-size="10.00">Changed()</text>
<text xml:space="preserve" text-anchor="start" x="4" y="-214.5" font-family="Helvetica,sans-Serif" font-size="10.00">+</text>
<text xml:space="preserve" text-anchor="start" x="14" y="-214.5" font-family="Helvetica,sans-Serif" font-size="10.00">xbeeSignalStrengthMaxValue</text>
<text xml:space="preserve" text-anchor="start" x="14" y="-202.5" font-family="Helvetica,sans-Serif" font-size="10.00">Changed()</text>
<text xml:space="preserve" text-anchor="start" x="4" y="-186.5" font-family="Helvetica,sans-Serif" font-size="10.00">+</text>
<text xml:space="preserve" text-anchor="start" x="14" y="-186.5" font-family="Helvetica,sans-Serif" font-size="10.00">xbeeConnectionStateChanged()</text>
<text xml:space="preserve" text-anchor="start" x="4" y="-170.5" font-family="Helvetica,sans-Serif" font-size="10.00">+</text>
<text xml:space="preserve" text-anchor="start" x="14" y="-170.5" font-family="Helvetica,sans-Serif" font-size="10.00">xbeeRetryCounterChanged()</text>
<text xml:space="preserve" text-anchor="start" x="4" y="-154.5" font-family="Helvetica,sans-Serif" font-size="10.00">+</text>
<text xml:space="preserve" text-anchor="start" x="14" y="-154.5" font-family="Helvetica,sans-Serif" font-size="10.00">xbeeReconnectionCounterChanged()</text>
<text xml:space="preserve" text-anchor="start" x="4" y="-138.5" font-family="Helvetica,sans-Serif" font-size="10.00">+</text>
<text xml:space="preserve" text-anchor="start" x="14" y="-138.5" font-family="Helvetica,sans-Serif" font-size="10.00">xbeeSignalStrengthAddData</text>
<text xml:space="preserve" text-anchor="start" x="14" y="-126.5" font-family="Helvetica,sans-Serif" font-size="10.00">Point()</text>
<text xml:space="preserve" text-anchor="start" x="4" y="-110.5" font-family="Helvetica,sans-Serif" font-size="10.00">+</text>
<text xml:space="preserve" text-anchor="start" x="14" y="-110.5" font-family="Helvetica,sans-Serif" font-size="10.00">xbeeTransmitTimeValueChanged()</text>
<text xml:space="preserve" text-anchor="start" x="14" y="-94.5" font-family="Helvetica,sans-Serif" font-size="10.00">and 13 more...</text>
<polygon fill="#666666" stroke="#666666" points="0,-318 0,-318 178.5,-318 178.5,-318 0,-318"/>
<polygon fill="#666666" stroke="#666666" points="0,-302 0,-302 178.5,-302 178.5,-302 0,-302"/>
<polygon fill="none" stroke="#666666" points="0,-88 0,-336 178.5,-336 178.5,-88 0,-88"/>
</a>
</g>
</g>
<!-- Node2&#45;&gt;Node1 -->
<g id="edge1_Node000001_Node000002" class="edge">
<title>Node2&#45;&gt;Node1</title>
<g id="a_edge1_Node000001_Node000002"><a xlink:title=" ">
<path fill="none" stroke="#63b8ff" d="M187.78,-88.28C239.01,-55.6 295.13,-41.19 334.63,-33.88"/>
<polygon fill="none" stroke="#63b8ff" points="185.92,-85.3 179.53,-93.75 189.8,-91.13 185.92,-85.3"/>
</a>
</g>
</g>
<!-- Node3 -->
<g id="Node000003" class="node">
<title>Node3</title>
<g id="a_Node000003"><a xlink:href="../../da/da3/class_model_canbus_1_1_listener.html" target="_top" xlink:title="Listener interface for CAN bus model events.">
<polygon fill="white" stroke="none" points="379.75,-282 196.75,-282 196.75,-142 379.75,-142 379.75,-282"/>
<text xml:space="preserve" text-anchor="start" x="238" y="-268.5" font-family="Helvetica,sans-Serif" font-size="10.00">ModelCanbus::Listener</text>
<text xml:space="preserve" text-anchor="start" x="286.75" y="-252.5" font-family="Helvetica,sans-Serif" font-size="10.00"> </text>
<text xml:space="preserve" text-anchor="start" x="200.75" y="-236.5" font-family="Helvetica,sans-Serif" font-size="10.00">+</text>
<text xml:space="preserve" text-anchor="start" x="210.75" y="-236.5" font-family="Helvetica,sans-Serif" font-size="10.00">Listener()</text>
<text xml:space="preserve" text-anchor="start" x="200.75" y="-220.5" font-family="Helvetica,sans-Serif" font-size="10.00">+</text>
<text xml:space="preserve" text-anchor="start" x="210.75" y="-220.5" font-family="Helvetica,sans-Serif" font-size="10.00">~Listener()</text>
<text xml:space="preserve" text-anchor="start" x="200.75" y="-204.5" font-family="Helvetica,sans-Serif" font-size="10.00">+</text>
<text xml:space="preserve" text-anchor="start" x="210.75" y="-204.5" font-family="Helvetica,sans-Serif" font-size="10.00">canbusNodeActivityChanged</text>
<text xml:space="preserve" text-anchor="start" x="210.75" y="-192.5" font-family="Helvetica,sans-Serif" font-size="10.00">Callback()</text>
<text xml:space="preserve" text-anchor="start" x="200.75" y="-176.5" font-family="Helvetica,sans-Serif" font-size="10.00">+</text>
<text xml:space="preserve" text-anchor="start" x="210.75" y="-176.5" font-family="Helvetica,sans-Serif" font-size="10.00">canbusNodeInputsChangedCallback()</text>
<text xml:space="preserve" text-anchor="start" x="200.75" y="-160.5" font-family="Helvetica,sans-Serif" font-size="10.00">+</text>
<text xml:space="preserve" text-anchor="start" x="210.75" y="-160.5" font-family="Helvetica,sans-Serif" font-size="10.00">canbusNodeOutputsChanged</text>
<text xml:space="preserve" text-anchor="start" x="210.75" y="-148.5" font-family="Helvetica,sans-Serif" font-size="10.00">Callback()</text>
<polygon fill="#666666" stroke="#666666" points="196.75,-264 196.75,-264 379.75,-264 379.75,-264 196.75,-264"/>
<polygon fill="#666666" stroke="#666666" points="196.75,-248 196.75,-248 379.75,-248 379.75,-248 196.75,-248"/>
<polygon fill="none" stroke="#666666" points="196.75,-142 196.75,-282 379.75,-282 379.75,-142 196.75,-142"/>
</a>
</g>
</g>
<!-- Node3&#45;&gt;Node1 -->
<g id="edge2_Node000001_Node000003" class="edge">
<title>Node3&#45;&gt;Node1</title>
<g id="a_edge2_Node000001_Node000003"><a xlink:title=" ">
<path fill="none" stroke="#63b8ff" d="M328.99,-132.1C343.9,-103.22 359.72,-72.57 370.41,-51.88"/>
<polygon fill="none" stroke="#63b8ff" points="325.93,-130.39 324.45,-140.88 332.15,-133.6 325.93,-130.39"/>
</a>
</g>
</g>
<!-- Node4 -->
<g id="Node000004" class="node">
<title>Node4</title>
<g id="a_Node000004"><a xlink:href="../../d1/d8c/class_model_peripheral_1_1_listener.html" target="_top" xlink:title="Listener interface for peripheral events and state changes.">
<polygon fill="white" stroke="none" points="558.88,-270 397.62,-270 397.62,-154 558.88,-154 558.88,-270"/>
<text xml:space="preserve" text-anchor="start" x="423.12" y="-256.5" font-family="Helvetica,sans-Serif" font-size="10.00">ModelPeripheral::Listener</text>
<text xml:space="preserve" text-anchor="start" x="476.75" y="-240.5" font-family="Helvetica,sans-Serif" font-size="10.00"> </text>
<text xml:space="preserve" text-anchor="start" x="401.62" y="-224.5" font-family="Helvetica,sans-Serif" font-size="10.00">+</text>
<text xml:space="preserve" text-anchor="start" x="411.62" y="-224.5" font-family="Helvetica,sans-Serif" font-size="10.00">Listener()</text>
<text xml:space="preserve" text-anchor="start" x="401.62" y="-208.5" font-family="Helvetica,sans-Serif" font-size="10.00">+</text>
<text xml:space="preserve" text-anchor="start" x="411.62" y="-208.5" font-family="Helvetica,sans-Serif" font-size="10.00">~Listener()</text>
<text xml:space="preserve" text-anchor="start" x="401.62" y="-192.5" font-family="Helvetica,sans-Serif" font-size="10.00">+</text>
<text xml:space="preserve" text-anchor="start" x="411.62" y="-192.5" font-family="Helvetica,sans-Serif" font-size="10.00">peripheralInputsChanged()</text>
<text xml:space="preserve" text-anchor="start" x="401.62" y="-176.5" font-family="Helvetica,sans-Serif" font-size="10.00">+</text>
<text xml:space="preserve" text-anchor="start" x="411.62" y="-176.5" font-family="Helvetica,sans-Serif" font-size="10.00">peripheralOutputsChanged()</text>
<text xml:space="preserve" text-anchor="start" x="401.62" y="-160.5" font-family="Helvetica,sans-Serif" font-size="10.00">+</text>
<text xml:space="preserve" text-anchor="start" x="411.62" y="-160.5" font-family="Helvetica,sans-Serif" font-size="10.00">peripheralNodeActivityChanged()</text>
<polygon fill="#666666" stroke="#666666" points="397.62,-252 397.62,-252 558.88,-252 558.88,-252 397.62,-252"/>
<polygon fill="#666666" stroke="#666666" points="397.62,-236 397.62,-236 558.88,-236 558.88,-236 397.62,-236"/>
<polygon fill="none" stroke="#666666" points="397.62,-154 397.62,-270 558.88,-270 558.88,-154 397.62,-154"/>
</a>
</g>
</g>
<!-- Node4&#45;&gt;Node1 -->
<g id="edge3_Node000001_Node000004" class="edge">
<title>Node4&#45;&gt;Node1</title>
<g id="a_edge3_Node000001_Node000004"><a xlink:title=" ">
<path fill="none" stroke="#63b8ff" d="M443.57,-143.83C427.05,-111.83 408.29,-75.51 396.14,-51.98"/>
<polygon fill="none" stroke="#63b8ff" points="440.45,-145.42 448.15,-152.7 446.67,-142.21 440.45,-145.42"/>
</a>
</g>
</g>
<!-- Node5 -->
<g id="Node000005" class="node">
<title>Node5</title>
<g id="a_Node000005"><a xlink:href="../../dd/d0f/class_model_diagnostic_1_1_listener.html" target="_top" xlink:title="Listener interface for receiving diagnostic state change events.">
<polygon fill="white" stroke="none" points="697.88,-246 576.62,-246 576.62,-178 697.88,-178 697.88,-246"/>
<text xml:space="preserve" text-anchor="start" x="580.62" y="-232.5" font-family="Helvetica,sans-Serif" font-size="10.00">ModelDiagnostic::Listener</text>
<text xml:space="preserve" text-anchor="start" x="635.75" y="-216.5" font-family="Helvetica,sans-Serif" font-size="10.00"> </text>
<text xml:space="preserve" text-anchor="start" x="594.81" y="-200.5" font-family="Helvetica,sans-Serif" font-size="10.00">+</text>
<text xml:space="preserve" text-anchor="start" x="619" y="-200.5" font-family="Helvetica,sans-Serif" font-size="10.00">Listener()</text>
<text xml:space="preserve" text-anchor="start" x="594.81" y="-184.5" font-family="Helvetica,sans-Serif" font-size="10.00">+</text>
<text xml:space="preserve" text-anchor="start" x="619" y="-184.5" font-family="Helvetica,sans-Serif" font-size="10.00">~Listener()</text>
<polygon fill="#666666" stroke="#666666" points="576.62,-228 576.62,-228 697.88,-228 697.88,-228 576.62,-228"/>
<polygon fill="#666666" stroke="#666666" points="576.62,-212 576.62,-212 697.88,-212 697.88,-212 576.62,-212"/>
<polygon fill="none" stroke="#666666" points="576.62,-178 576.62,-246 697.88,-246 697.88,-178 576.62,-178"/>
</a>
</g>
</g>
<!-- Node5&#45;&gt;Node1 -->
<g id="edge4_Node000001_Node000005" class="edge">
<title>Node5&#45;&gt;Node1</title>
<g id="a_edge4_Node000001_Node000005"><a xlink:title=" ">
<path fill="none" stroke="#63b8ff" d="M622.22,-167.53C611.07,-141.17 593.41,-108.73 568.25,-88 528.96,-55.64 471.93,-40.25 431.6,-33.05"/>
<polygon fill="none" stroke="#63b8ff" points="618.9,-168.67 625.89,-176.63 625.39,-166.05 618.9,-168.67"/>
</a>
</g>
</g>
</g>
</svg>
