<?xml version="1.0" encoding="UTF-8" standalone="no"?>
<!DOCTYPE svg PUBLIC "-//W3C//DTD SVG 1.1//EN"
 "http://www.w3.org/Graphics/SVG/1.1/DTD/svg11.dtd">
<!-- Generated by graphviz version 3.0.0 (20220226.1711)
 -->
<!-- Title: transmit Pages: 1 -->
<svg width="566pt" height="88pt"
 viewBox="0.00 0.00 566.00 88.00" xmlns="http://www.w3.org/2000/svg" xmlns:xlink="http://www.w3.org/1999/xlink">
<g id="graph0" class="graph" transform="scale(1 1) rotate(0) translate(4 84)">
<title>transmit</title>
<!-- Node1 -->
<g id="node1" class="node">
<title>Node1</title>
<g id="a_node1"><a xlink:title="Transmit an amount of data in non&#45;blocking mode with Interrupt.">
<polygon fill="#bfbfbf" stroke="black" points="506,-30 506,-49 558,-49 558,-30 506,-30"/>
<text text-anchor="middle" x="532" y="-37" font-family="Helvetica,sans-Serif" font-size="10.00">transmit</text>
</a>
</g>
</g>
<!-- Node2 -->
<g id="node2" class="node">
<title>Node2</title>
<g id="a_node2"><a xlink:href="../../d0/d5e/class_b_s_p_1_1_c_t_a_s6424_1_1_x_i2_s.html#a3937eb08b9bcd877a5bfe3b76d0649d2" target="_top" xlink:title="Start Play.">
<polygon fill="none" stroke="black" points="355,-49.5 355,-79.5 470,-79.5 470,-49.5 355,-49.5"/>
<text text-anchor="start" x="363" y="-67.5" font-family="Helvetica,sans-Serif" font-size="10.00">BSP::CTAS6424::XI2S</text>
<text text-anchor="middle" x="412.5" y="-56.5" font-family="Helvetica,sans-Serif" font-size="10.00">::play</text>
</a>
</g>
</g>
<!-- Node1&#45;&gt;Node2 -->
<g id="edge1" class="edge">
<title>Node1&#45;&gt;Node2</title>
<path fill="none" stroke="midnightblue" d="M495.91,-46.97C487.76,-48.7 478.87,-50.59 470.05,-52.47"/>
<polygon fill="midnightblue" stroke="midnightblue" points="496.74,-50.37 505.79,-44.86 495.28,-43.52 496.74,-50.37"/>
</g>
<!-- Node5 -->
<g id="node5" class="node">
<title>Node5</title>
<g id="a_node5"><a xlink:href="../../d0/d5e/class_b_s_p_1_1_c_t_a_s6424_1_1_x_i2_s.html#a20b935c1b48a79e0e41767aa44b168c5" target="_top" xlink:title="Transmit completed callback.">
<polygon fill="none" stroke="black" points="355,-0.5 355,-30.5 470,-30.5 470,-0.5 355,-0.5"/>
<text text-anchor="start" x="363" y="-18.5" font-family="Helvetica,sans-Serif" font-size="10.00">BSP::CTAS6424::XI2S</text>
<text text-anchor="middle" x="412.5" y="-7.5" font-family="Helvetica,sans-Serif" font-size="10.00">::sampleProcess</text>
</a>
</g>
</g>
<!-- Node1&#45;&gt;Node5 -->
<g id="edge4" class="edge">
<title>Node1&#45;&gt;Node5</title>
<path fill="none" stroke="midnightblue" d="M495.91,-32.33C487.76,-30.67 478.87,-28.85 470.05,-27.05"/>
<polygon fill="midnightblue" stroke="midnightblue" points="495.3,-35.78 505.79,-34.35 496.7,-28.92 495.3,-35.78"/>
</g>
<!-- Node3 -->
<g id="node3" class="node">
<title>Node3</title>
<g id="a_node3"><a xlink:href="../../da/d4b/class_b_s_p_1_1_c_t_a_s6424.html#a97b11dcf6ef13ec8b5bbf55a465eb751" target="_top" xlink:title="Open the Driver.">
<polygon fill="none" stroke="black" points="182,-55 182,-74 298,-74 298,-55 182,-55"/>
<text text-anchor="middle" x="240" y="-62" font-family="Helvetica,sans-Serif" font-size="10.00">BSP::CTAS6424::open</text>
</a>
</g>
</g>
<!-- Node2&#45;&gt;Node3 -->
<g id="edge2" class="edge">
<title>Node2&#45;&gt;Node3</title>
<path fill="none" stroke="midnightblue" d="M344.3,-64.5C329.02,-64.5 312.92,-64.5 298.11,-64.5"/>
<polygon fill="midnightblue" stroke="midnightblue" points="344.73,-68 354.73,-64.5 344.73,-61 344.73,-68"/>
</g>
<!-- Node4 -->
<g id="node4" class="node">
<title>Node4</title>
<g id="a_node4"><a xlink:href="../../dc/dda/class_b_s_p_1_1_c_audio_driver.html#a962ee220e6ef097784a3bf237efb639a" target="_top" xlink:title="Open The Driver.">
<polygon fill="none" stroke="black" points="0,-55 0,-74 125,-74 125,-55 0,-55"/>
<text text-anchor="middle" x="62.5" y="-62" font-family="Helvetica,sans-Serif" font-size="10.00">BSP::CAudioDriver::open</text>
</a>
</g>
</g>
<!-- Node3&#45;&gt;Node4 -->
<g id="edge3" class="edge">
<title>Node3&#45;&gt;Node4</title>
<path fill="none" stroke="midnightblue" d="M171.17,-64.5C155.98,-64.5 139.95,-64.5 125.02,-64.5"/>
<polygon fill="midnightblue" stroke="midnightblue" points="171.53,-68 181.53,-64.5 171.53,-61 171.53,-68"/>
</g>
<!-- Node6 -->
<g id="node6" class="node">
<title>Node6</title>
<g id="a_node6"><a xlink:href="../../da/d4b/class_b_s_p_1_1_c_t_a_s6424.html#af1a3baaf296e7a15e6ebbe0fb60e1120" target="_top" xlink:title="I2S Transmit Completed callback.">
<polygon fill="none" stroke="black" points="161,-6 161,-25 319,-25 319,-6 161,-6"/>
<text text-anchor="middle" x="240" y="-13" font-family="Helvetica,sans-Serif" font-size="10.00">BSP::CTAS6424::txCpltCallback</text>
</a>
</g>
</g>
<!-- Node5&#45;&gt;Node6 -->
<g id="edge5" class="edge">
<title>Node5&#45;&gt;Node6</title>
<path fill="none" stroke="midnightblue" d="M344.64,-15.5C336.26,-15.5 327.62,-15.5 319.08,-15.5"/>
<polygon fill="midnightblue" stroke="midnightblue" points="344.73,-19 354.73,-15.5 344.73,-12 344.73,-19"/>
</g>
<!-- Node7 -->
<g id="node7" class="node">
<title>Node7</title>
<g id="a_node7"><a xlink:href="../../dc/dda/class_b_s_p_1_1_c_audio_driver.html#a6ef37486edf65d9d7f76cad495df4278" target="_top" xlink:title="Transmit Competed Callback.">
<polygon fill="none" stroke="black" points="10.5,-0.5 10.5,-30.5 114.5,-30.5 114.5,-0.5 10.5,-0.5"/>
<text text-anchor="start" x="18.5" y="-18.5" font-family="Helvetica,sans-Serif" font-size="10.00">BSP::CAudioDriver::</text>
<text text-anchor="middle" x="62.5" y="-7.5" font-family="Helvetica,sans-Serif" font-size="10.00">txCpltCallback</text>
</a>
</g>
</g>
<!-- Node6&#45;&gt;Node7 -->
<g id="edge6" class="edge">
<title>Node6&#45;&gt;Node7</title>
<path fill="none" stroke="midnightblue" d="M150.45,-15.5C138.18,-15.5 125.92,-15.5 114.65,-15.5"/>
<polygon fill="midnightblue" stroke="midnightblue" points="150.75,-19 160.75,-15.5 150.75,-12 150.75,-19"/>
</g>
</g>
</svg>
