<?xml version="1.0" encoding="UTF-8" standalone="no"?>
<!DOCTYPE svg PUBLIC "-//W3C//DTD SVG 1.1//EN"
 "http://www.w3.org/Graphics/SVG/1.1/DTD/svg11.dtd">
<!-- Generated by graphviz version 13.1.0 (20250701.0955)
 -->
<!-- Title: BSP::Leds Pages: 1 -->
<svg width="130pt" height="197pt"
 viewBox="0.00 0.00 130.00 197.00" xmlns="http://www.w3.org/2000/svg" xmlns:xlink="http://www.w3.org/1999/xlink">
<g id="graph0" class="graph" transform="scale(1 1) rotate(0) translate(4 193)">
<title>BSP::Leds</title>
<!-- Node1 -->
<g id="Node000001" class="node">
<title>Node1</title>
<g id="a_Node000001"><a xlink:title="LED controller for ready and error indicators.">
<polygon fill="#999999" stroke="none" points="86.38,-105.5 35.62,-105.5 35.62,0 86.38,0 86.38,-105.5"/>
<text xml:space="preserve" text-anchor="start" x="39.62" y="-92.95" font-family="Arial" font-size="9.00">BSP::Leds</text>
<text xml:space="preserve" text-anchor="start" x="40.12" y="-78.45" font-family="Arial" font-size="9.00">+</text>
<text xml:space="preserve" text-anchor="start" x="49.88" y="-78.45" font-family="Arial" font-size="9.00">ready</text>
<text xml:space="preserve" text-anchor="start" x="40.12" y="-63.95" font-family="Arial" font-size="9.00">+</text>
<text xml:space="preserve" text-anchor="start" x="49.88" y="-63.95" font-family="Arial" font-size="9.00">error</text>
<text xml:space="preserve" text-anchor="start" x="40.12" y="-49.45" font-family="Arial" font-size="9.00">+</text>
<text xml:space="preserve" text-anchor="start" x="49.88" y="-49.45" font-family="Arial" font-size="9.00">Leds()</text>
<text xml:space="preserve" text-anchor="start" x="40.12" y="-34.95" font-family="Arial" font-size="9.00">+</text>
<text xml:space="preserve" text-anchor="start" x="49.88" y="-34.95" font-family="Arial" font-size="9.00">Leds()</text>
<text xml:space="preserve" text-anchor="start" x="40.12" y="-20.45" font-family="Arial" font-size="9.00">+</text>
<text xml:space="preserve" text-anchor="start" x="49.88" y="-20.45" font-family="Arial" font-size="9.00">~Leds()</text>
<text xml:space="preserve" text-anchor="start" x="40.12" y="-5.95" font-family="Arial" font-size="9.00">+</text>
<text xml:space="preserve" text-anchor="start" x="49.88" y="-5.95" font-family="Arial" font-size="9.00">init()</text>
<polygon fill="#666666" stroke="#666666" points="35.62,-89 35.62,-89 86.38,-89 86.38,-89 35.62,-89"/>
<polygon fill="#666666" stroke="#666666" points="35.62,-60 35.62,-60 47.88,-60 47.88,-60 35.62,-60"/>
<polygon fill="#666666" stroke="#666666" points="47.88,-60 47.88,-60 86.38,-60 86.38,-60 47.88,-60"/>
<polygon fill="none" stroke="#666666" points="35.62,0 35.62,-105.5 86.38,-105.5 86.38,0 35.62,0"/>
</a>
</g>
</g>
<!-- Node2 -->
<g id="Node000002" class="node">
<title>Node2</title>
<g id="a_Node000002"><a xlink:href="../../db/d27/class_lib_1_1_b_s_p_1_1_device_driver_base.html" target="_top" xlink:title=" ">
<polygon fill="white" stroke="none" points="122,-189 0,-189 0,-141.5 122,-141.5 122,-189"/>
<text xml:space="preserve" text-anchor="start" x="4" y="-176.45" font-family="Arial" font-size="9.00">Lib::BSP::DeviceDriverBase</text>
<text xml:space="preserve" text-anchor="start" x="59.88" y="-161.95" font-family="Arial" font-size="9.00"> </text>
<text xml:space="preserve" text-anchor="start" x="59.88" y="-147.45" font-family="Arial" font-size="9.00"> </text>
<polygon fill="#bfbfbf" stroke="#bfbfbf" points="0,-172.5 0,-172.5 122,-172.5 122,-172.5 0,-172.5"/>
<polygon fill="#bfbfbf" stroke="#bfbfbf" points="0,-158 0,-158 122,-158 122,-158 0,-158"/>
<polygon fill="none" stroke="#bfbfbf" points="0,-141.5 0,-189 122,-189 122,-141.5 0,-141.5"/>
</a>
</g>
</g>
<!-- Node2&#45;&gt;Node1 -->
<g id="edge1_Node000001_Node000002" class="edge">
<title>Node2&#45;&gt;Node1</title>
<g id="a_edge1_Node000001_Node000002"><a xlink:title=" ">
<path fill="none" stroke="#63b8ff" d="M61,-130.19C61,-122.24 61,-113.6 61,-105.08"/>
<polygon fill="none" stroke="#63b8ff" points="57.5,-130.11 61,-140.11 64.5,-130.11 57.5,-130.11"/>
</a>
</g>
</g>
</g>
</svg>
