<?xml version="1.0" encoding="UTF-8" standalone="no"?>
<!DOCTYPE svg PUBLIC "-//W3C//DTD SVG 1.1//EN"
 "http://www.w3.org/Graphics/SVG/1.1/DTD/svg11.dtd">
<!-- Generated by graphviz version 13.1.0 (20250701.0955)
 -->
<!-- Title: BSP::Leds Pages: 1 -->
<svg width="110pt" height="212pt"
 viewBox="0.00 0.00 110.00 212.00" xmlns="http://www.w3.org/2000/svg" xmlns:xlink="http://www.w3.org/1999/xlink">
<g id="graph0" class="graph" transform="scale(1 1) rotate(0) translate(4 208)">
<title>BSP::Leds</title>
<!-- Node1 -->
<g id="Node000001" class="node">
<title>Node1</title>
<g id="a_Node000001"><a xlink:title="Provides management and control for board status LEDs, supporting on, off, and blinking modes.">
<polygon fill="#999999" stroke="none" points="78.5,-116 23.25,-116 23.25,0 78.5,0 78.5,-116"/>
<text xml:space="preserve" text-anchor="start" x="27.25" y="-102.5" font-family="Helvetica,sans-Serif" font-size="10.00">BSP::Leds</text>
<text xml:space="preserve" text-anchor="start" x="28.31" y="-86.5" font-family="Helvetica,sans-Serif" font-size="10.00">+</text>
<text xml:space="preserve" text-anchor="start" x="39.38" y="-86.5" font-family="Helvetica,sans-Serif" font-size="10.00">ready</text>
<text xml:space="preserve" text-anchor="start" x="28.31" y="-70.5" font-family="Helvetica,sans-Serif" font-size="10.00">+</text>
<text xml:space="preserve" text-anchor="start" x="39.38" y="-70.5" font-family="Helvetica,sans-Serif" font-size="10.00">error</text>
<text xml:space="preserve" text-anchor="start" x="28.31" y="-54.5" font-family="Helvetica,sans-Serif" font-size="10.00">+</text>
<text xml:space="preserve" text-anchor="start" x="39.38" y="-54.5" font-family="Helvetica,sans-Serif" font-size="10.00">Leds()</text>
<text xml:space="preserve" text-anchor="start" x="28.31" y="-38.5" font-family="Helvetica,sans-Serif" font-size="10.00">+</text>
<text xml:space="preserve" text-anchor="start" x="39.38" y="-38.5" font-family="Helvetica,sans-Serif" font-size="10.00">Leds()</text>
<text xml:space="preserve" text-anchor="start" x="28.31" y="-22.5" font-family="Helvetica,sans-Serif" font-size="10.00">+</text>
<text xml:space="preserve" text-anchor="start" x="39.38" y="-22.5" font-family="Helvetica,sans-Serif" font-size="10.00">~Leds()</text>
<text xml:space="preserve" text-anchor="start" x="28.31" y="-6.5" font-family="Helvetica,sans-Serif" font-size="10.00">+</text>
<text xml:space="preserve" text-anchor="start" x="39.38" y="-6.5" font-family="Helvetica,sans-Serif" font-size="10.00">init()</text>
<polygon fill="#666666" stroke="#666666" points="23.25,-98 23.25,-98 78.5,-98 78.5,-98 23.25,-98"/>
<polygon fill="#666666" stroke="#666666" points="23.25,-66 23.25,-66 37.38,-66 37.38,-66 23.25,-66"/>
<polygon fill="#666666" stroke="#666666" points="37.38,-66 37.38,-66 78.5,-66 78.5,-66 37.38,-66"/>
<polygon fill="none" stroke="#666666" points="23.25,0 23.25,-116 78.5,-116 78.5,0 23.25,0"/>
</a>
</g>
</g>
<!-- Node2 -->
<g id="Node000002" class="node">
<title>Node2</title>
<g id="a_Node000002"><a xlink:href="../../df/d30/class_lib_1_1_b_s_p_1_1_driver_base.html" target="_top" xlink:title=" ">
<polygon fill="white" stroke="none" points="101.75,-204 0,-204 0,-152 101.75,-152 101.75,-204"/>
<text xml:space="preserve" text-anchor="start" x="4" y="-190.5" font-family="Helvetica,sans-Serif" font-size="10.00">Lib::BSP::DriverBase</text>
<text xml:space="preserve" text-anchor="start" x="49.38" y="-174.5" font-family="Helvetica,sans-Serif" font-size="10.00"> </text>
<text xml:space="preserve" text-anchor="start" x="49.38" y="-158.5" font-family="Helvetica,sans-Serif" font-size="10.00"> </text>
<polygon fill="#bfbfbf" stroke="#bfbfbf" points="0,-186 0,-186 101.75,-186 101.75,-186 0,-186"/>
<polygon fill="#bfbfbf" stroke="#bfbfbf" points="0,-170 0,-170 101.75,-170 101.75,-170 0,-170"/>
<polygon fill="none" stroke="#bfbfbf" points="0,-152 0,-204 101.75,-204 101.75,-152 0,-152"/>
</a>
</g>
</g>
<!-- Node2&#45;&gt;Node1 -->
<g id="edge1_Node000001_Node000002" class="edge">
<title>Node2&#45;&gt;Node1</title>
<g id="a_edge1_Node000001_Node000002"><a xlink:title=" ">
<path fill="none" stroke="#63b8ff" d="M50.88,-140.82C50.88,-132.89 50.88,-124.31 50.88,-115.79"/>
<polygon fill="none" stroke="#63b8ff" points="47.38,-140.75 50.88,-150.75 54.38,-140.75 47.38,-140.75"/>
</a>
</g>
</g>
</g>
</svg>
