<?xml version="1.0" encoding="UTF-8" standalone="no"?>
<!DOCTYPE svg PUBLIC "-//W3C//DTD SVG 1.1//EN"
 "http://www.w3.org/Graphics/SVG/1.1/DTD/svg11.dtd">
<!-- Generated by graphviz version 13.1.0 (20250701.0955)
 -->
<!-- Title: BSP::Leds Pages: 1 -->
<svg width="132pt" height="272pt"
 viewBox="0.00 0.00 132.00 272.00" xmlns="http://www.w3.org/2000/svg" xmlns:xlink="http://www.w3.org/1999/xlink">
<g id="graph0" class="graph" transform="scale(1 1) rotate(0) translate(4 268)">
<title>BSP::Leds</title>
<!-- Node1 -->
<g id="Node000001" class="node">
<title>Node1</title>
<g id="a_Node000001"><a xlink:title="Leds driver class.">
<polygon fill="#999999" stroke="none" points="120.75,-116 3,-116 3,0 120.75,0 120.75,-116"/>
<text xml:space="preserve" text-anchor="start" x="40.5" y="-103.45" font-family="Arial" font-size="9.00">BSP::Leds</text>
<text xml:space="preserve" text-anchor="start" x="7" y="-88.95" font-family="Arial" font-size="9.00">+</text>
<text xml:space="preserve" text-anchor="start" x="16.25" y="-88.95" font-family="Arial" font-size="9.00">Led ready</text>
<text xml:space="preserve" text-anchor="start" x="7" y="-74.45" font-family="Arial" font-size="9.00">+</text>
<text xml:space="preserve" text-anchor="start" x="16.25" y="-74.45" font-family="Arial" font-size="9.00">Led error</text>
<text xml:space="preserve" text-anchor="start" x="7" y="-59.95" font-family="Arial" font-size="9.00">+</text>
<text xml:space="preserve" text-anchor="start" x="16.25" y="-59.95" font-family="Arial" font-size="9.00">Leds(const Config</text>
<text xml:space="preserve" text-anchor="start" x="16.25" y="-49.45" font-family="Arial" font-size="9.00"> &amp;config)</text>
<text xml:space="preserve" text-anchor="start" x="7" y="-34.95" font-family="Arial" font-size="9.00">+</text>
<text xml:space="preserve" text-anchor="start" x="16.25" y="-34.95" font-family="Arial" font-size="9.00">Leds()</text>
<text xml:space="preserve" text-anchor="start" x="7" y="-20.45" font-family="Arial" font-size="9.00">+</text>
<text xml:space="preserve" text-anchor="start" x="16.25" y="-20.45" font-family="Arial" font-size="9.00">~Leds() override=default</text>
<text xml:space="preserve" text-anchor="start" x="7" y="-5.95" font-family="Arial" font-size="9.00">+</text>
<text xml:space="preserve" text-anchor="start" x="16.25" y="-5.95" font-family="Arial" font-size="9.00">void init() override</text>
<polygon fill="#666666" stroke="#666666" points="3,-99.5 3,-99.5 120.75,-99.5 120.75,-99.5 3,-99.5"/>
<polygon fill="#666666" stroke="#666666" points="3,-70.5 3,-70.5 14.25,-70.5 14.25,-70.5 3,-70.5"/>
<polygon fill="#666666" stroke="#666666" points="14.25,-70.5 14.25,-70.5 120.75,-70.5 120.75,-70.5 14.25,-70.5"/>
<polygon fill="none" stroke="#666666" points="3,0 3,-116 120.75,-116 120.75,0 3,0"/>
</a>
</g>
</g>
<!-- Node2 -->
<g id="Node000002" class="node">
<title>Node2</title>
<g id="a_Node000002"><a xlink:href="../../db/d27/class_lib_1_1_b_s_p_1_1_device_driver_base.html" target="_top" xlink:title="Device driver base class.">
<polygon fill="white" stroke="none" points="123.75,-264 0,-264 0,-152 123.75,-152 123.75,-264"/>
<text xml:space="preserve" text-anchor="start" x="4.88" y="-251.45" font-family="Arial" font-size="9.00">Lib::BSP::DeviceDriverBase</text>
<text xml:space="preserve" text-anchor="start" x="60.75" y="-236.95" font-family="Arial" font-size="9.00"> </text>
<text xml:space="preserve" text-anchor="start" x="4" y="-222.45" font-family="Arial" font-size="9.00">+</text>
<text xml:space="preserve" text-anchor="start" x="13.25" y="-222.45" font-family="Arial" font-size="9.00">DeviceDriverBase()</text>
<text xml:space="preserve" text-anchor="start" x="13.25" y="-211.95" font-family="Arial" font-size="9.00">=default</text>
<text xml:space="preserve" text-anchor="start" x="4" y="-197.45" font-family="Arial" font-size="9.00">+</text>
<text xml:space="preserve" text-anchor="start" x="13.25" y="-197.45" font-family="Arial" font-size="9.00">virtual ~DeviceDriverBase</text>
<text xml:space="preserve" text-anchor="start" x="13.25" y="-186.95" font-family="Arial" font-size="9.00">()=default</text>
<text xml:space="preserve" text-anchor="start" x="4" y="-172.45" font-family="Arial" font-size="9.00">+</text>
<text xml:space="preserve" text-anchor="start" x="13.25" y="-172.45" font-family="Arial" font-size="9.00">virtual void init()</text>
<text xml:space="preserve" text-anchor="start" x="4" y="-157.95" font-family="Arial" font-size="9.00">+</text>
<text xml:space="preserve" text-anchor="start" x="13.25" y="-157.95" font-family="Arial" font-size="9.00">virtual void tick()=0</text>
<polygon fill="#666666" stroke="#666666" points="0,-247.5 0,-247.5 123.75,-247.5 123.75,-247.5 0,-247.5"/>
<polygon fill="#666666" stroke="#666666" points="0,-233 0,-233 123.75,-233 123.75,-233 0,-233"/>
<polygon fill="none" stroke="#666666" points="0,-152 0,-264 123.75,-264 123.75,-152 0,-152"/>
</a>
</g>
</g>
<!-- Node2&#45;&gt;Node1 -->
<g id="edge1_Node000001_Node000002" class="edge">
<title>Node2&#45;&gt;Node1</title>
<g id="a_edge1_Node000001_Node000002"><a xlink:title=" ">
<path fill="none" stroke="#63b8ff" d="M61.88,-141.03C61.88,-132.66 61.88,-124.15 61.88,-115.94"/>
<polygon fill="none" stroke="#63b8ff" points="58.38,-140.8 61.88,-150.8 65.38,-140.8 58.38,-140.8"/>
</a>
</g>
</g>
</g>
</svg>
