<?xml version="1.0" encoding="UTF-8" standalone="no"?>
<!DOCTYPE svg PUBLIC "-//W3C//DTD SVG 1.1//EN"
 "http://www.w3.org/Graphics/SVG/1.1/DTD/svg11.dtd">
<!-- Generated by graphviz version 13.1.0 (20250701.0955)
 -->
<!-- Title: CAN_RxHeaderTypeDef Pages: 1 -->
<svg width="141pt" height="84pt"
 viewBox="0.00 0.00 141.00 84.00" xmlns="http://www.w3.org/2000/svg" xmlns:xlink="http://www.w3.org/1999/xlink">
<g id="graph0" class="graph" transform="scale(1 1) rotate(0) translate(4 80)">
<title>CAN_RxHeaderTypeDef</title>
<!-- Node1 -->
<g id="Node000001" class="node">
<title>Node1</title>
<g id="a_Node000001"><a xlink:title=" ">
<polygon fill="#999999" stroke="none" points="124.25,-76 8.25,-76 8.25,-56 124.25,-56 124.25,-76"/>
<text xml:space="preserve" text-anchor="start" x="12.25" y="-62.5" font-family="Helvetica,sans-Serif" font-size="10.00">CAN_RxHeaderTypeDef</text>
<polygon fill="none" stroke="#666666" points="8.25,-56 8.25,-76 124.25,-76 124.25,-56 8.25,-56"/>
</a>
</g>
</g>
<!-- Node2 -->
<g id="Node000002" class="node">
<title>Node2</title>
<g id="a_Node000002"><a xlink:href="../../dc/d1b/class_lib_1_1_h_a_l_1_1_c_a_n_1_1_rx_message.html" target="_top" xlink:title="CAN receive message wrapper class inheriting from CAN_RxHeaderTypeDef.">
<polygon fill="white" stroke="none" points="132.5,-20 0,-20 0,0 132.5,0 132.5,-20"/>
<text xml:space="preserve" text-anchor="start" x="4" y="-6.5" font-family="Helvetica,sans-Serif" font-size="10.00">Lib::HAL::CAN::RxMessage</text>
<polygon fill="none" stroke="#666666" points="0,0 0,-20 132.5,-20 132.5,0 0,0"/>
</a>
</g>
</g>
<!-- Node1&#45;&gt;Node2 -->
<g id="edge1_Node000001_Node000002" class="edge">
<title>Node1&#45;&gt;Node2</title>
<g id="a_edge1_Node000001_Node000002"><a xlink:title=" ">
<path fill="none" stroke="#63b8ff" d="M66.25,-44.61C66.25,-36.02 66.25,-26.47 66.25,-19.75"/>
<polygon fill="none" stroke="#63b8ff" points="62.75,-44.57 66.25,-54.57 69.75,-44.57 62.75,-44.57"/>
</a>
</g>
</g>
</g>
</svg>
