<?xml version="1.0" encoding="UTF-8" standalone="no"?>
<!DOCTYPE svg PUBLIC "-//W3C//DTD SVG 1.1//EN"
 "http://www.w3.org/Graphics/SVG/1.1/DTD/svg11.dtd">
<!-- Generated by graphviz version 12.2.1 (20241206.2353)
 -->
<!-- Title: Lib::Xbee::Core::Frame::Data::append Pages: 1 -->
<svg width="301pt" height="240pt"
 viewBox="0.00 0.00 301.00 240.00" xmlns="http://www.w3.org/2000/svg" xmlns:xlink="http://www.w3.org/1999/xlink">
<g id="graph0" class="graph" transform="scale(1 1) rotate(0) translate(4 236)">
<title>Lib::Xbee::Core::Frame::Data::append</title>
<!-- Node1 -->
<g id="Node000001" class="node">
<title>Node1</title>
<g id="a_Node000001"><a xlink:title="Appends a sequence of bytes to the vector.">
<polygon fill="#999999" stroke="#666666" points="293,-132 175,-132 175,-100 293,-100 293,-132"/>
<text text-anchor="start" x="183" y="-118.5" font-family="Helvetica,sans-Serif" font-size="10.00">Lib::Xbee::Core::Frame</text>
<text text-anchor="middle" x="234" y="-106.5" font-family="Helvetica,sans-Serif" font-size="10.00">::Data::append</text>
</a>
</g>
</g>
<!-- Node2 -->
<g id="Node000002" class="node">
<title>Node2</title>
<g id="a_Node000002"><a xlink:href="../../de/d84/a00447.html#ad89717f6738c10191c8074c4d758ef59" target="_top" xlink:title="Default constructor for the Frame0x00 class.">
<polygon fill="white" stroke="#666666" points="139,-232 0,-232 0,-200 139,-200 139,-232"/>
<text text-anchor="start" x="8" y="-218.5" font-family="Helvetica,sans-Serif" font-size="10.00">Lib::Xbee::Core::Frame0x00</text>
<text text-anchor="middle" x="69.5" y="-206.5" font-family="Helvetica,sans-Serif" font-size="10.00">::Data</text>
</a>
</g>
</g>
<!-- Node1&#45;&gt;Node2 -->
<g id="edge1_Node000001_Node000002" class="edge">
<title>Node1&#45;&gt;Node2</title>
<g id="a_edge1_Node000001_Node000002"><a xlink:title=" ">
<path fill="none" stroke="#63b8ff" d="M207.98,-139.7C189.92,-155.83 164.34,-176.77 139,-191 133.48,-194.1 127.5,-196.94 121.46,-199.51"/>
<polygon fill="#63b8ff" stroke="#63b8ff" points="210.05,-142.55 215.09,-133.23 205.34,-137.37 210.05,-142.55"/>
</a>
</g>
</g>
<!-- Node3 -->
<g id="Node000003" class="node">
<title>Node3</title>
<g id="a_Node000003"><a xlink:href="../../d9/d69/a00451.html#ae0f0bb812e62a2da0b89691d664fe9ce" target="_top" xlink:title="Converts the frame data into a Frame::Data object.">
<polygon fill="white" stroke="#666666" points="139,-182 0,-182 0,-150 139,-150 139,-182"/>
<text text-anchor="start" x="8" y="-168.5" font-family="Helvetica,sans-Serif" font-size="10.00">Lib::Xbee::Core::Frame0x01</text>
<text text-anchor="middle" x="69.5" y="-156.5" font-family="Helvetica,sans-Serif" font-size="10.00">::Data</text>
</a>
</g>
</g>
<!-- Node1&#45;&gt;Node3 -->
<g id="edge2_Node000001_Node000003" class="edge">
<title>Node1&#45;&gt;Node3</title>
<g id="a_edge2_Node000001_Node000003"><a xlink:title=" ">
<path fill="none" stroke="#63b8ff" d="M169.12,-135.66C154.22,-140.24 138.51,-145.08 124.11,-149.51"/>
<polygon fill="#63b8ff" stroke="#63b8ff" points="169.82,-139.1 178.34,-132.82 167.76,-132.41 169.82,-139.1"/>
</a>
</g>
</g>
<!-- Node4 -->
<g id="Node000004" class="node">
<title>Node4</title>
<g id="a_Node000004"><a xlink:href="../../dd/d63/a00455.html#a9b9686c306cc8a769c2af008a9c90962" target="_top" xlink:title="Converts the frame data into a Frame::Data object.">
<polygon fill="white" stroke="#666666" points="139,-132 0,-132 0,-100 139,-100 139,-132"/>
<text text-anchor="start" x="8" y="-118.5" font-family="Helvetica,sans-Serif" font-size="10.00">Lib::Xbee::Core::Frame0x08</text>
<text text-anchor="middle" x="69.5" y="-106.5" font-family="Helvetica,sans-Serif" font-size="10.00">::Data</text>
</a>
</g>
</g>
<!-- Node1&#45;&gt;Node4 -->
<g id="edge3_Node000001_Node000004" class="edge">
<title>Node1&#45;&gt;Node4</title>
<g id="a_edge3_Node000001_Node000004"><a xlink:title=" ">
<path fill="none" stroke="#63b8ff" d="M163.32,-116C155.39,-116 147.31,-116 139.39,-116"/>
<polygon fill="#63b8ff" stroke="#63b8ff" points="163.28,-119.5 173.28,-116 163.28,-112.5 163.28,-119.5"/>
</a>
</g>
</g>
<!-- Node5 -->
<g id="Node000005" class="node">
<title>Node5</title>
<g id="a_Node000005"><a xlink:href="../../d2/d91/a00459.html#ada5cf058e970e50629475a98a0c13bbf" target="_top" xlink:title="Converts the frame data into a Frame::Data object.">
<polygon fill="white" stroke="#666666" points="139,-82 0,-82 0,-50 139,-50 139,-82"/>
<text text-anchor="start" x="8" y="-68.5" font-family="Helvetica,sans-Serif" font-size="10.00">Lib::Xbee::Core::Frame0x09</text>
<text text-anchor="middle" x="69.5" y="-56.5" font-family="Helvetica,sans-Serif" font-size="10.00">::Data</text>
</a>
</g>
</g>
<!-- Node1&#45;&gt;Node5 -->
<g id="edge4_Node000001_Node000005" class="edge">
<title>Node1&#45;&gt;Node5</title>
<g id="a_edge4_Node000001_Node000005"><a xlink:title=" ">
<path fill="none" stroke="#63b8ff" d="M169.12,-96.34C154.22,-91.76 138.51,-86.92 124.11,-82.49"/>
<polygon fill="#63b8ff" stroke="#63b8ff" points="167.76,-99.59 178.34,-99.18 169.82,-92.9 167.76,-99.59"/>
</a>
</g>
</g>
<!-- Node6 -->
<g id="Node000006" class="node">
<title>Node6</title>
<g id="a_Node000006"><a xlink:href="../../d3/d5d/a00463.html#a11da4ad8132751b53eb68f726c7bb784" target="_top" xlink:title="Converts the frame data into a Frame::Data object.">
<polygon fill="white" stroke="#666666" points="139,-32 0,-32 0,0 139,0 139,-32"/>
<text text-anchor="start" x="8" y="-18.5" font-family="Helvetica,sans-Serif" font-size="10.00">Lib::Xbee::Core::Frame0x17</text>
<text text-anchor="middle" x="69.5" y="-6.5" font-family="Helvetica,sans-Serif" font-size="10.00">::Data</text>
</a>
</g>
</g>
<!-- Node1&#45;&gt;Node6 -->
<g id="edge5_Node000001_Node000006" class="edge">
<title>Node1&#45;&gt;Node6</title>
<g id="a_edge5_Node000001_Node000006"><a xlink:title=" ">
<path fill="none" stroke="#63b8ff" d="M207.98,-92.3C189.92,-76.17 164.34,-55.23 139,-41 133.48,-37.9 127.5,-35.06 121.46,-32.49"/>
<polygon fill="#63b8ff" stroke="#63b8ff" points="205.34,-94.63 215.09,-98.77 210.05,-89.45 205.34,-94.63"/>
</a>
</g>
</g>
</g>
</svg>
