<?xml version="1.0" encoding="UTF-8" standalone="no"?>
<!DOCTYPE svg PUBLIC "-//W3C//DTD SVG 1.1//EN"
 "http://www.w3.org/Graphics/SVG/1.1/DTD/svg11.dtd">
<!-- Generated by graphviz version 12.2.1 (20241206.2353)
 -->
<!-- Title: Display.hpp Pages: 1 -->
<svg width="435pt" height="140pt"
 viewBox="0.00 0.00 434.50 140.00" xmlns="http://www.w3.org/2000/svg" xmlns:xlink="http://www.w3.org/1999/xlink">
<g id="graph0" class="graph" transform="scale(1 1) rotate(0) translate(4 136)">
<title>Display.hpp</title>
<!-- Node1 -->
<g id="Node000001" class="node">
<title>Node1</title>
<g id="a_Node000001"><a xlink:title="This file contains the declaration of the Display class for the BSP (Board Support Package).">
<polygon fill="#999999" stroke="#666666" points="138.12,-132 71.12,-132 71.12,-112 138.12,-112 138.12,-132"/>
<text text-anchor="middle" x="104.62" y="-118.5" font-family="Arial" font-size="10.00">Display.hpp</text>
</a>
</g>
</g>
<!-- Node2 -->
<g id="Node000002" class="node">
<title>Node2</title>
<g id="a_Node000002"><a xlink:href="../../d9/d77/a00095.html" target="_top" xlink:title="This file contains the declaration of the Keyboard class for handling keyboard input and button event...">
<polygon fill="white" stroke="#666666" points="142.62,-76 66.62,-76 66.62,-56 142.62,-56 142.62,-76"/>
<text text-anchor="middle" x="104.62" y="-62.5" font-family="Arial" font-size="10.00">Keyboard.hpp</text>
</a>
</g>
</g>
<!-- Node1&#45;&gt;Node2 -->
<g id="edge1_Node000001_Node000002" class="edge">
<title>Node1&#45;&gt;Node2</title>
<g id="a_edge1_Node000001_Node000002"><a xlink:title=" ">
<path fill="none" stroke="#63b8ff" d="M104.62,-111.59C104.62,-105.01 104.62,-95.96 104.62,-87.73"/>
<polygon fill="#63b8ff" stroke="#63b8ff" points="108.13,-87.81 104.63,-77.81 101.13,-87.81 108.13,-87.81"/>
</a>
</g>
</g>
<!-- Node4 -->
<g id="Node000004" class="node">
<title>Node4</title>
<g id="a_Node000004"><a xlink:title=" ">
<polygon fill="#e0e0e0" stroke="#999999" points="51.25,-20 0,-20 0,0 51.25,0 51.25,-20"/>
<text text-anchor="middle" x="25.62" y="-6.5" font-family="Arial" font-size="10.00">memory</text>
</a>
</g>
</g>
<!-- Node1&#45;&gt;Node4 -->
<g id="edge8_Node000001_Node000004" class="edge">
<title>Node1&#45;&gt;Node4</title>
<g id="a_edge8_Node000001_Node000004"><a xlink:title=" ">
<path fill="none" stroke="#63b8ff" d="M92.68,-111.61C82.44,-103.12 67.77,-89.85 57.62,-76 47.39,-62.03 38.91,-44.29 33.26,-30.87"/>
<polygon fill="#63b8ff" stroke="#63b8ff" points="36.59,-29.77 29.61,-21.8 30.09,-32.38 36.59,-29.77"/>
</a>
</g>
</g>
<!-- Node5 -->
<g id="Node000005" class="node">
<title>Node5</title>
<g id="a_Node000005"><a xlink:href="../../d4/d3a/a00101.html" target="_top" xlink:title="This file contains the declaration of the Led class, which is responsible for controlling an LED.">
<polygon fill="white" stroke="#666666" points="237.88,-76 187.38,-76 187.38,-56 237.88,-56 237.88,-76"/>
<text text-anchor="middle" x="212.62" y="-62.5" font-family="Arial" font-size="10.00">Led.hpp</text>
</a>
</g>
</g>
<!-- Node1&#45;&gt;Node5 -->
<g id="edge4_Node000001_Node000005" class="edge">
<title>Node1&#45;&gt;Node5</title>
<g id="a_edge4_Node000001_Node000005"><a xlink:title=" ">
<path fill="none" stroke="#63b8ff" d="M123.44,-111.59C139.98,-103.32 164.34,-91.14 183.42,-81.6"/>
<polygon fill="#63b8ff" stroke="#63b8ff" points="184.93,-84.76 192.31,-77.16 181.8,-78.5 184.93,-84.76"/>
</a>
</g>
</g>
<!-- Node3 -->
<g id="Node000003" class="node">
<title>Node3</title>
<g id="a_Node000003"><a xlink:title=" ">
<polygon fill="#e0e0e0" stroke="#999999" points="150.25,-20 69,-20 69,0 150.25,0 150.25,-20"/>
<text text-anchor="middle" x="109.62" y="-6.5" font-family="Arial" font-size="10.00">FreeRTOS.hpp</text>
</a>
</g>
</g>
<!-- Node2&#45;&gt;Node3 -->
<g id="edge2_Node000002_Node000003" class="edge">
<title>Node2&#45;&gt;Node3</title>
<g id="a_edge2_Node000002_Node000003"><a xlink:title=" ">
<path fill="none" stroke="#63b8ff" d="M105.5,-55.59C106.11,-49.01 106.94,-39.96 107.71,-31.73"/>
<polygon fill="#63b8ff" stroke="#63b8ff" points="111.19,-32.09 108.62,-21.81 104.22,-31.44 111.19,-32.09"/>
</a>
</g>
</g>
<!-- Node2&#45;&gt;Node4 -->
<g id="edge3_Node000002_Node000004" class="edge">
<title>Node2&#45;&gt;Node4</title>
<g id="a_edge3_Node000002_Node000004"><a xlink:title=" ">
<path fill="none" stroke="#63b8ff" d="M90.86,-55.59C79.27,-47.67 62.43,-36.16 48.76,-26.82"/>
<polygon fill="#63b8ff" stroke="#63b8ff" points="50.97,-24.09 40.74,-21.33 47.02,-29.87 50.97,-24.09"/>
</a>
</g>
</g>
<!-- Node5&#45;&gt;Node3 -->
<g id="edge5_Node000005_Node000003" class="edge">
<title>Node5&#45;&gt;Node3</title>
<g id="a_edge5_Node000005_Node000003"><a xlink:title=" ">
<path fill="none" stroke="#63b8ff" d="M194.68,-55.59C178.98,-47.36 155.89,-35.26 137.74,-25.74"/>
<polygon fill="#63b8ff" stroke="#63b8ff" points="139.53,-22.73 129.05,-21.18 136.28,-28.93 139.53,-22.73"/>
</a>
</g>
</g>
<!-- Node6 -->
<g id="Node000006" class="node">
<title>Node6</title>
<g id="a_Node000006"><a xlink:title=" ">
<polygon fill="#e0e0e0" stroke="#999999" points="310.62,-20 168.62,-20 168.62,0 310.62,0 310.62,-20"/>
<text text-anchor="middle" x="239.62" y="-6.5" font-family="Arial" font-size="10.00">Lib/BSP/DeviceManager.hpp</text>
</a>
</g>
</g>
<!-- Node5&#45;&gt;Node6 -->
<g id="edge6_Node000005_Node000006" class="edge">
<title>Node5&#45;&gt;Node6</title>
<g id="a_edge6_Node000005_Node000006"><a xlink:title=" ">
<path fill="none" stroke="#63b8ff" d="M217.33,-55.59C220.77,-48.7 225.57,-39.1 229.84,-30.57"/>
<polygon fill="#63b8ff" stroke="#63b8ff" points="232.96,-32.16 234.3,-21.65 226.7,-29.03 232.96,-32.16"/>
</a>
</g>
</g>
<!-- Node7 -->
<g id="Node000007" class="node">
<title>Node7</title>
<g id="a_Node000007"><a xlink:title=" ">
<polygon fill="#e0e0e0" stroke="#999999" points="426.5,-20 328.75,-20 328.75,0 426.5,0 426.5,-20"/>
<text text-anchor="middle" x="377.62" y="-6.5" font-family="Arial" font-size="10.00">Lib/HAL/GPIO.hpp</text>
</a>
</g>
</g>
<!-- Node5&#45;&gt;Node7 -->
<g id="edge7_Node000005_Node000007" class="edge">
<title>Node5&#45;&gt;Node7</title>
<g id="a_edge7_Node000005_Node000007"><a xlink:title=" ">
<path fill="none" stroke="#63b8ff" d="M238.04,-56.68C264.69,-47.96 306.93,-34.14 337.97,-23.98"/>
<polygon fill="#63b8ff" stroke="#63b8ff" points="338.99,-27.33 347.41,-20.89 336.81,-20.67 338.99,-27.33"/>
</a>
</g>
</g>
</g>
</svg>
