<?xml version="1.0" encoding="UTF-8" standalone="no"?>
<!DOCTYPE svg PUBLIC "-//W3C//DTD SVG 1.1//EN"
 "http://www.w3.org/Graphics/SVG/1.1/DTD/svg11.dtd">
<!-- Generated by graphviz version 13.1.0 (20250701.0955)
 -->
<!-- Title: Display.hpp Pages: 1 -->
<svg width="92pt" height="140pt"
 viewBox="0.00 0.00 92.00 140.00" xmlns="http://www.w3.org/2000/svg" xmlns:xlink="http://www.w3.org/1999/xlink">
<g id="graph0" class="graph" transform="scale(1 1) rotate(0) translate(4 136)">
<title>Display.hpp</title>
<!-- Node1 -->
<g id="Node000001" class="node">
<title>Node1</title>
<g id="a_Node000001"><a xlink:title="Display class for ILI9341 TFT integration on U146 platform.">
<polygon fill="#999999" stroke="#666666" points="75.25,-132 8.25,-132 8.25,-112 75.25,-112 75.25,-132"/>
<text xml:space="preserve" text-anchor="middle" x="41.75" y="-118.5" font-family="Helvetica,sans-Serif" font-size="10.00">Display.hpp</text>
</a>
</g>
</g>
<!-- Node2 -->
<g id="Node000002" class="node">
<title>Node2</title>
<g id="a_Node000002"><a xlink:href="../../d1/d88/a00128.html" target="_top" xlink:title="Board Support Package namespace with singleton instances for hardware abstraction.">
<polygon fill="white" stroke="#666666" points="68.5,-76 15,-76 15,-56 68.5,-56 68.5,-76"/>
<text xml:space="preserve" text-anchor="middle" x="41.75" y="-62.5" font-family="Helvetica,sans-Serif" font-size="10.00">BSP.hpp</text>
</a>
</g>
</g>
<!-- Node1&#45;&gt;Node2 -->
<g id="edge1_Node000001_Node000002" class="edge">
<title>Node1&#45;&gt;Node2</title>
<g id="a_edge1_Node000001_Node000002"><a xlink:title=" ">
<path fill="none" stroke="#63b8ff" d="M41.75,-100.13C41.75,-91.9 41.75,-82.85 41.75,-76.3"/>
<polygon fill="#63b8ff" stroke="#63b8ff" points="38.25,-100.08 41.75,-110.08 45.25,-100.08 38.25,-100.08"/>
</a>
</g>
</g>
<!-- Node3 -->
<g id="Node000003" class="node">
<title>Node3</title>
<g id="a_Node000003"><a xlink:href="../../d7/d25/a00182.html" target="_top" xlink:title="Declares the ModelBase class for TouchGFX UI model aggregation.">
<polygon fill="white" stroke="#666666" points="83.5,-20 0,-20 0,0 83.5,0 83.5,-20"/>
<text xml:space="preserve" text-anchor="middle" x="41.75" y="-6.5" font-family="Helvetica,sans-Serif" font-size="10.00">ModelBase.hpp</text>
</a>
</g>
</g>
<!-- Node2&#45;&gt;Node3 -->
<g id="edge2_Node000002_Node000003" class="edge">
<title>Node2&#45;&gt;Node3</title>
<g id="a_edge2_Node000002_Node000003"><a xlink:title=" ">
<path fill="none" stroke="#63b8ff" d="M41.75,-44.13C41.75,-35.9 41.75,-26.85 41.75,-20.3"/>
<polygon fill="#63b8ff" stroke="#63b8ff" points="38.25,-44.08 41.75,-54.08 45.25,-44.08 38.25,-44.08"/>
</a>
</g>
</g>
</g>
</svg>
