<?xml version="1.0" encoding="UTF-8" standalone="no"?>
<!DOCTYPE svg PUBLIC "-//W3C//DTD SVG 1.1//EN"
 "http://www.w3.org/Graphics/SVG/1.1/DTD/svg11.dtd">
<!-- Generated by graphviz version 13.1.0 (20250701.0955)
 -->
<!-- Title: Lib::FreeRTOS::MemoryManager Pages: 1 -->
<svg width="150pt" height="256pt"
 viewBox="0.00 0.00 150.00 256.00" xmlns="http://www.w3.org/2000/svg" xmlns:xlink="http://www.w3.org/1999/xlink">
<g id="graph0" class="graph" transform="scale(1 1) rotate(0) translate(4 251.5)">
<title>Lib::FreeRTOS::MemoryManager</title>
<!-- Node1 -->
<g id="Node000001" class="node">
<title>Node1</title>
<g id="a_Node000001"><a xlink:title="FreeRTOS heap memory manager with diagnostics.">
<polygon fill="#999999" stroke="none" points="142.25,-108 0,-108 0,0 142.25,0 142.25,-108"/>
<text xml:space="preserve" text-anchor="start" x="4" y="-95.45" font-family="Arial" font-size="9.00">Lib::FreeRTOS::MemoryManager</text>
<text xml:space="preserve" text-anchor="start" x="70" y="-80.95" font-family="Arial" font-size="9.00"> </text>
<text xml:space="preserve" text-anchor="start" x="9.38" y="-66.45" font-family="Arial" font-size="9.00">+</text>
<text xml:space="preserve" text-anchor="start" x="24" y="-66.45" font-family="Arial" font-size="9.00">static void * malloc</text>
<text xml:space="preserve" text-anchor="start" x="24" y="-55.95" font-family="Arial" font-size="9.00">(size_t size)</text>
<text xml:space="preserve" text-anchor="start" x="9.38" y="-41.45" font-family="Arial" font-size="9.00">+</text>
<text xml:space="preserve" text-anchor="start" x="24" y="-41.45" font-family="Arial" font-size="9.00">static void free(void</text>
<text xml:space="preserve" text-anchor="start" x="24" y="-30.95" font-family="Arial" font-size="9.00"> *memory)</text>
<text xml:space="preserve" text-anchor="start" x="9.38" y="-16.45" font-family="Arial" font-size="9.00">+</text>
<text xml:space="preserve" text-anchor="start" x="24" y="-16.45" font-family="Arial" font-size="9.00">static size_t getFreeHeap</text>
<text xml:space="preserve" text-anchor="start" x="24" y="-5.95" font-family="Arial" font-size="9.00">Size()</text>
<polygon fill="#666666" stroke="#666666" points="0,-91.5 0,-91.5 142.25,-91.5 142.25,-91.5 0,-91.5"/>
<polygon fill="#666666" stroke="#666666" points="0,-77 0,-77 142.25,-77 142.25,-77 0,-77"/>
<polygon fill="none" stroke="#666666" points="0,0 0,-108 142.25,-108 142.25,0 0,0"/>
</a>
</g>
</g>
<!-- Node2 -->
<g id="Node000002" class="node">
<title>Node2</title>
<g id="a_Node000002"><a xlink:href="../../d8/dde/struct_lib_1_1_free_r_t_o_s_1_1_memory_manager_1_1_diagnostic.html" target="_top" xlink:title="Diagnostic counters for heap memory operations.">
<polygon fill="white" stroke="none" points="142.25,-247.5 0,-247.5 0,-160.5 142.25,-160.5 142.25,-247.5"/>
<text xml:space="preserve" text-anchor="start" x="4" y="-234.95" font-family="Arial" font-size="9.00">Lib::FreeRTOS::MemoryManager</text>
<text xml:space="preserve" text-anchor="start" x="47.12" y="-224.45" font-family="Arial" font-size="9.00">::Diagnostic</text>
<text xml:space="preserve" text-anchor="start" x="14.44" y="-209.95" font-family="Arial" font-size="9.00">+</text>
<text xml:space="preserve" text-anchor="start" x="34.12" y="-209.95" font-family="Arial" font-size="9.00">uint32_t allocated</text>
<text xml:space="preserve" text-anchor="start" x="14.44" y="-195.45" font-family="Arial" font-size="9.00">+</text>
<text xml:space="preserve" text-anchor="start" x="34.12" y="-195.45" font-family="Arial" font-size="9.00">uint32_t deallocated</text>
<text xml:space="preserve" text-anchor="start" x="14.44" y="-180.95" font-family="Arial" font-size="9.00">+</text>
<text xml:space="preserve" text-anchor="start" x="34.12" y="-180.95" font-family="Arial" font-size="9.00">uint32_t active</text>
<text xml:space="preserve" text-anchor="start" x="70" y="-166.45" font-family="Arial" font-size="9.00"> </text>
<polygon fill="#666666" stroke="#666666" points="0,-220.5 0,-220.5 142.25,-220.5 142.25,-220.5 0,-220.5"/>
<polygon fill="#666666" stroke="#666666" points="0,-177 0,-177 32.12,-177 32.12,-177 0,-177"/>
<polygon fill="#666666" stroke="#666666" points="32.12,-177 32.12,-177 142.25,-177 142.25,-177 32.12,-177"/>
<polygon fill="none" stroke="#666666" points="0,-160.5 0,-247.5 142.25,-247.5 142.25,-160.5 0,-160.5"/>
</a>
</g>
</g>
<!-- Node2&#45;&gt;Node1 -->
<g id="edge1_Node000001_Node000002" class="edge">
<title>Node2&#45;&gt;Node1</title>
<g id="a_edge1_Node000001_Node000002"><a xlink:title=" ">
<path fill="none" stroke="#63b8ff" d="M71.12,-160.59C71.12,-148.16 71.12,-134.27 71.12,-120.75"/>
<polygon fill="none" stroke="#63b8ff" points="71.13,-120.86 67.13,-114.86 71.13,-108.86 75.13,-114.86 71.13,-120.86"/>
</a>
</g>
<text xml:space="preserve" text-anchor="start" x="74.12" y="-130.95" font-family="Arial" font-size="9.00" fill="grey">+diagnostic</text>
</g>
</g>
</svg>
