<?xml version="1.0" encoding="UTF-8" standalone="no"?>
<!DOCTYPE svg PUBLIC "-//W3C//DTD SVG 1.1//EN"
 "http://www.w3.org/Graphics/SVG/1.1/DTD/svg11.dtd">
<!-- Generated by graphviz version 13.1.0 (20250701.0955)
 -->
<!-- Title: RTOS::Timeout::getRemaining Pages: 1 -->
<svg width="638pt" height="94pt"
 viewBox="0.00 0.00 638.00 94.00" xmlns="http://www.w3.org/2000/svg" xmlns:xlink="http://www.w3.org/1999/xlink">
<g id="graph0" class="graph" transform="scale(1 1) rotate(0) translate(4 90)">
<title>RTOS::Timeout::getRemaining</title>
<!-- Node1 -->
<g id="Node000001" class="node">
<title>Node1</title>
<g id="a_Node000001"><a xlink:title="Returns remaining ticks until timeout expires.">
<polygon fill="#999999" stroke="#666666" points="150.25,-42 0,-42 0,-22 150.25,-22 150.25,-42"/>
<text xml:space="preserve" text-anchor="middle" x="75.12" y="-28.5" font-family="Helvetica,sans-Serif" font-size="10.00">RTOS::Timeout::getRemaining</text>
</a>
</g>
</g>
<!-- Node2 -->
<g id="Node000002" class="node">
<title>Node2</title>
<g id="a_Node000002"><a xlink:href="../../d0/d81/a00180.html#ac222ca3aa3f00628bd8a6ff62041ea70" target="_top" xlink:title="Get remaining ticks before timeout.">
<polygon fill="white" stroke="#666666" points="308.38,-70 200.12,-70 200.12,-38 308.38,-38 308.38,-70"/>
<text xml:space="preserve" text-anchor="start" x="208.12" y="-56.5" font-family="Helvetica,sans-Serif" font-size="10.00">RTOS::TickCounter::</text>
<text xml:space="preserve" text-anchor="middle" x="254.25" y="-44.5" font-family="Helvetica,sans-Serif" font-size="10.00">getRemainingTicks</text>
</a>
</g>
</g>
<!-- Node1&#45;&gt;Node2 -->
<g id="edge1_Node000001_Node000002" class="edge">
<title>Node1&#45;&gt;Node2</title>
<g id="a_edge1_Node000001_Node000002"><a xlink:title=" ">
<path fill="none" stroke="#63b8ff" d="M150.73,-41.27C163.32,-42.83 176.31,-44.44 188.62,-45.97"/>
<polygon fill="#63b8ff" stroke="#63b8ff" points="187.85,-49.4 198.21,-47.16 188.72,-42.46 187.85,-49.4"/>
</a>
</g>
</g>
<!-- Node6 -->
<g id="Node000006" class="node">
<title>Node6</title>
<g id="a_Node000006"><a xlink:href="../../dd/da2/a00192.html#a1c0d42cfc8bef1eddfab7ea49848e88b" target="_top" xlink:title="Checks if timeout is disabled.">
<polygon fill="white" stroke="#666666" points="322.25,-20 186.25,-20 186.25,0 322.25,0 322.25,-20"/>
<text xml:space="preserve" text-anchor="middle" x="254.25" y="-6.5" font-family="Helvetica,sans-Serif" font-size="10.00">RTOS::Timeout::isDisabled</text>
</a>
</g>
</g>
<!-- Node1&#45;&gt;Node6 -->
<g id="edge5_Node000001_Node000006" class="edge">
<title>Node1&#45;&gt;Node6</title>
<g id="a_edge5_Node000001_Node000006"><a xlink:title=" ">
<path fill="none" stroke="#63b8ff" d="M150.73,-22.73C158.54,-21.76 166.5,-20.77 174.36,-19.8"/>
<polygon fill="#63b8ff" stroke="#63b8ff" points="174.78,-23.27 184.27,-18.57 173.92,-16.33 174.78,-23.27"/>
</a>
</g>
</g>
<!-- Node3 -->
<g id="Node000003" class="node">
<title>Node3</title>
<g id="a_Node000003"><a xlink:href="../../d0/d81/a00180.html#ad6915fe87c8e6127f5357b1a5eeb12e2" target="_top" xlink:title="Calculate elapsed ticks since a given tick count.">
<polygon fill="white" stroke="#666666" points="471.75,-70 358.25,-70 358.25,-38 471.75,-38 471.75,-70"/>
<text xml:space="preserve" text-anchor="start" x="366.25" y="-56.5" font-family="Helvetica,sans-Serif" font-size="10.00">RTOS::TickCounter::</text>
<text xml:space="preserve" text-anchor="middle" x="415" y="-44.5" font-family="Helvetica,sans-Serif" font-size="10.00">getElapsedTicksSince</text>
</a>
</g>
</g>
<!-- Node2&#45;&gt;Node3 -->
<g id="edge2_Node000002_Node000003" class="edge">
<title>Node2&#45;&gt;Node3</title>
<g id="a_edge2_Node000002_Node000003"><a xlink:title=" ">
<path fill="none" stroke="#63b8ff" d="M308.55,-54C320.69,-54 333.74,-54 346.39,-54"/>
<polygon fill="#63b8ff" stroke="#63b8ff" points="346.34,-57.5 356.34,-54 346.34,-50.5 346.34,-57.5"/>
</a>
</g>
</g>
<!-- Node4 -->
<g id="Node000004" class="node">
<title>Node4</title>
<g id="a_Node000004"><a xlink:href="../../d0/d81/a00180.html#a0fe8362c851a572e236d8c4978c0677a" target="_top" xlink:title="Get current FreeRTOS tick count.">
<polygon fill="white" stroke="#666666" points="629.5,-86 507.75,-86 507.75,-66 629.5,-66 629.5,-86"/>
<text xml:space="preserve" text-anchor="middle" x="568.62" y="-72.5" font-family="Helvetica,sans-Serif" font-size="10.00">RTOS::TickCounter::get</text>
</a>
</g>
</g>
<!-- Node3&#45;&gt;Node4 -->
<g id="edge3_Node000003_Node000004" class="edge">
<title>Node3&#45;&gt;Node4</title>
<g id="a_edge3_Node000003_Node000004"><a xlink:title=" ">
<path fill="none" stroke="#63b8ff" d="M472.03,-62.13C479.88,-63.27 488.04,-64.45 496.14,-65.63"/>
<polygon fill="#63b8ff" stroke="#63b8ff" points="495.6,-69.09 506,-67.06 496.61,-62.16 495.6,-69.09"/>
</a>
</g>
</g>
<!-- Node5 -->
<g id="Node000005" class="node">
<title>Node5</title>
<g id="a_Node000005"><a xlink:href="../../d0/d81/a00180.html#a0260ddc7279e91581fa509a6e945609e" target="_top" xlink:title="Calculate elapsed ticks between two tick counts.">
<polygon fill="white" stroke="#666666" points="622.75,-48 514.5,-48 514.5,-16 622.75,-16 622.75,-48"/>
<text xml:space="preserve" text-anchor="start" x="522.5" y="-34.5" font-family="Helvetica,sans-Serif" font-size="10.00">RTOS::TickCounter::</text>
<text xml:space="preserve" text-anchor="middle" x="568.62" y="-22.5" font-family="Helvetica,sans-Serif" font-size="10.00">getElapsedTicks</text>
</a>
</g>
</g>
<!-- Node3&#45;&gt;Node5 -->
<g id="edge4_Node000003_Node000005" class="edge">
<title>Node3&#45;&gt;Node5</title>
<g id="a_edge4_Node000003_Node000005"><a xlink:title=" ">
<path fill="none" stroke="#63b8ff" d="M472.03,-45.87C482.02,-44.42 492.5,-42.9 502.72,-41.42"/>
<polygon fill="#63b8ff" stroke="#63b8ff" points="503.2,-44.88 512.6,-39.98 502.2,-37.96 503.2,-44.88"/>
</a>
</g>
</g>
</g>
</svg>
