<?xml version="1.0" encoding="UTF-8" standalone="no"?>
<!DOCTYPE svg PUBLIC "-//W3C//DTD SVG 1.1//EN"
 "http://www.w3.org/Graphics/SVG/1.1/DTD/svg11.dtd">
<!-- Generated by graphviz version 13.1.0 (20250701.0955)
 -->
<!-- Title: Lib::Xbee::Core::Frame0x8a Pages: 1 -->
<svg width="140pt" height="66pt"
 viewBox="0.00 0.00 140.00 66.00" xmlns="http://www.w3.org/2000/svg" xmlns:xlink="http://www.w3.org/1999/xlink">
<g id="graph0" class="graph" transform="scale(1 1) rotate(0) translate(4 62)">
<title>Lib::Xbee::Core::Frame0x8a</title>
<!-- Node1 -->
<g id="Node000001" class="node">
<title>Node1</title>
<g id="a_Node000001"><a xlink:title="XBee modem status response frame (0x8A).">
<polygon fill="#999999" stroke="none" points="132,-58 0,-58 0,0 132,0 132,-58"/>
<text xml:space="preserve" text-anchor="start" x="8.62" y="-45.45" font-family="Arial" font-size="9.00">Lib::Xbee::Core::Frame0x8a</text>
<text xml:space="preserve" text-anchor="start" x="4" y="-30.95" font-family="Arial" font-size="9.00">+</text>
<text xml:space="preserve" text-anchor="start" x="13.25" y="-30.95" font-family="Arial" font-size="9.00">ModemStatus modemStatus</text>
<text xml:space="preserve" text-anchor="start" x="4" y="-16.45" font-family="Arial" font-size="9.00">+</text>
<text xml:space="preserve" text-anchor="start" x="13.25" y="-16.45" font-family="Arial" font-size="9.00">Frame0x8a(const Frame</text>
<text xml:space="preserve" text-anchor="start" x="13.25" y="-5.95" font-family="Arial" font-size="9.00">::Data &amp;frame)</text>
<polygon fill="#666666" stroke="#666666" points="0,-41.5 0,-41.5 132,-41.5 132,-41.5 0,-41.5"/>
<polygon fill="#666666" stroke="#666666" points="0,-27 0,-27 11.25,-27 11.25,-27 0,-27"/>
<polygon fill="#666666" stroke="#666666" points="11.25,-27 11.25,-27 132,-27 132,-27 11.25,-27"/>
<polygon fill="none" stroke="#666666" points="0,0 0,-58 132,-58 132,0 0,0"/>
</a>
</g>
</g>
</g>
</svg>
