<?xml version="1.0" encoding="UTF-8" standalone="no"?>
<!DOCTYPE svg PUBLIC "-//W3C//DTD SVG 1.1//EN"
 "http://www.w3.org/Graphics/SVG/1.1/DTD/svg11.dtd">
<!-- Generated by graphviz version 2.50.0 (20211204.2007)
 -->
<!-- Title: _writeRegister Pages: 1 -->
<svg width="648pt" height="116pt"
 viewBox="0.00 0.00 648.00 115.50" xmlns="http://www.w3.org/2000/svg" xmlns:xlink="http://www.w3.org/1999/xlink">
<g id="graph0" class="graph" transform="scale(1 1) rotate(0) translate(4 111.5)">
<title>_writeRegister</title>
<!-- Node1 -->
<g id="node1" class="node">
<title>Node1</title>
<g id="a_node1"><a xlink:title="Write Chip Register.">
<polygon fill="#bfbfbf" stroke="black" points="562,-69 562,-88 640,-88 640,-69 562,-69"/>
<text text-anchor="middle" x="601" y="-76" font-family="Helvetica,sans-Serif" font-size="10.00">_writeRegister</text>
</a>
</g>
</g>
<!-- Node2 -->
<g id="node2" class="node">
<title>Node2</title>
<g id="a_node2"><a xlink:href="../../d6/df8/class_b_s_p_1_1_c_t_a_s8424.html#a97b11dcf6ef13ec8b5bbf55a465eb751" target="_top" xlink:title="Open the Driver.">
<polygon fill="none" stroke="black" points="205,-88 205,-107 243,-107 243,-88 205,-88"/>
<text text-anchor="middle" x="224" y="-95" font-family="Helvetica,sans-Serif" font-size="10.00">open</text>
</a>
</g>
</g>
<!-- Node1&#45;&gt;Node2 -->
<g id="edge1" class="edge">
<title>Node1&#45;&gt;Node2</title>
<path fill="none" stroke="midnightblue" d="M551.95,-80.93C468.15,-85.18 298.88,-93.76 243.2,-96.58"/>
<polygon fill="midnightblue" stroke="midnightblue" points="552.17,-84.43 561.98,-80.43 551.81,-77.44 552.17,-84.43"/>
</g>
<!-- Node4 -->
<g id="node4" class="node">
<title>Node4</title>
<g id="a_node4"><a xlink:href="../../d6/df8/class_b_s_p_1_1_c_t_a_s8424.html#accfa96eae13bdd6b2081f59ead41eb85" target="_top" xlink:title="Set the Audio Volume.">
<polygon fill="none" stroke="black" points="463,-50 463,-69 526,-69 526,-50 463,-50"/>
<text text-anchor="middle" x="494.5" y="-57" font-family="Helvetica,sans-Serif" font-size="10.00">setVolume</text>
</a>
</g>
</g>
<!-- Node1&#45;&gt;Node4 -->
<g id="edge3" class="edge">
<title>Node1&#45;&gt;Node4</title>
<path fill="none" stroke="midnightblue" d="M552.13,-69.8C543.29,-68.19 534.29,-66.55 526.14,-65.07"/>
<polygon fill="midnightblue" stroke="midnightblue" points="551.51,-73.24 561.98,-71.59 552.76,-66.35 551.51,-73.24"/>
</g>
<!-- Node3 -->
<g id="node3" class="node">
<title>Node3</title>
<g id="a_node3"><a xlink:href="../../dc/dda/class_b_s_p_1_1_c_audio_driver.html#a962ee220e6ef097784a3bf237efb639a" target="_top" xlink:title="Open The Driver.">
<polygon fill="none" stroke="black" points="0,-88 0,-107 125,-107 125,-88 0,-88"/>
<text text-anchor="middle" x="62.5" y="-95" font-family="Helvetica,sans-Serif" font-size="10.00">BSP::CAudioDriver::open</text>
</a>
</g>
</g>
<!-- Node2&#45;&gt;Node3 -->
<g id="edge2" class="edge">
<title>Node2&#45;&gt;Node3</title>
<path fill="none" stroke="midnightblue" d="M194.5,-97.5C175.24,-97.5 149.06,-97.5 125.16,-97.5"/>
<polygon fill="midnightblue" stroke="midnightblue" points="194.7,-101 204.7,-97.5 194.7,-94 194.7,-101"/>
</g>
<!-- Node5 -->
<g id="node5" class="node">
<title>Node5</title>
<g id="a_node5"><a xlink:href="../../d6/df8/class_b_s_p_1_1_c_t_a_s8424.html#aca31bee42efc0cd3a59aeceb25ced4bb" target="_top" xlink:title="Audio Mute.">
<polygon fill="none" stroke="black" points="356,-50 356,-69 394,-69 394,-50 356,-50"/>
<text text-anchor="middle" x="375" y="-57" font-family="Helvetica,sans-Serif" font-size="10.00">mute</text>
</a>
</g>
</g>
<!-- Node4&#45;&gt;Node5 -->
<g id="edge4" class="edge">
<title>Node4&#45;&gt;Node5</title>
<path fill="none" stroke="midnightblue" d="M452.85,-59.5C432.93,-59.5 409.94,-59.5 394.33,-59.5"/>
<polygon fill="midnightblue" stroke="midnightblue" points="452.94,-63 462.93,-59.5 452.93,-56 452.94,-63"/>
</g>
<!-- Node7 -->
<g id="node7" class="node">
<title>Node7</title>
<g id="a_node7"><a xlink:href="../../dc/dda/class_b_s_p_1_1_c_audio_driver.html#afd1f41ddc71e95acea8cd3c5510ab2c5" target="_top" xlink:title="Set The Audio Volume.">
<polygon fill="none" stroke="black" points="323,-0.5 323,-30.5 427,-30.5 427,-0.5 323,-0.5"/>
<text text-anchor="start" x="331" y="-18.5" font-family="Helvetica,sans-Serif" font-size="10.00">BSP::CAudioDriver::</text>
<text text-anchor="middle" x="375" y="-7.5" font-family="Helvetica,sans-Serif" font-size="10.00">setVolume</text>
</a>
</g>
</g>
<!-- Node4&#45;&gt;Node7 -->
<g id="edge7" class="edge">
<title>Node4&#45;&gt;Node7</title>
<path fill="none" stroke="midnightblue" d="M458.31,-46.32C445.06,-41.36 429.9,-35.68 416.23,-30.57"/>
<polygon fill="midnightblue" stroke="midnightblue" points="457.41,-49.72 468,-49.95 459.87,-43.17 457.41,-49.72"/>
</g>
<!-- Node5&#45;&gt;Node2 -->
<g id="edge6" class="edge">
<title>Node5&#45;&gt;Node2</title>
<path fill="none" stroke="midnightblue" d="M345.86,-66.68C315.82,-74.34 269.08,-86.26 243.42,-92.8"/>
<polygon fill="midnightblue" stroke="midnightblue" points="346.9,-70.02 355.73,-64.16 345.17,-63.24 346.9,-70.02"/>
</g>
<!-- Node6 -->
<g id="node6" class="node">
<title>Node6</title>
<g id="a_node6"><a xlink:href="../../dc/dda/class_b_s_p_1_1_c_audio_driver.html#a36a5e3478f621ae893cbc34e2f4d6143" target="_top" xlink:title="Audio Mute.">
<polygon fill="none" stroke="black" points="161,-50 161,-69 287,-69 287,-50 161,-50"/>
<text text-anchor="middle" x="224" y="-57" font-family="Helvetica,sans-Serif" font-size="10.00">BSP::CAudioDriver::mute</text>
</a>
</g>
</g>
<!-- Node5&#45;&gt;Node6 -->
<g id="edge5" class="edge">
<title>Node5&#45;&gt;Node6</title>
<path fill="none" stroke="midnightblue" d="M345.62,-59.5C329.02,-59.5 307.39,-59.5 287.04,-59.5"/>
<polygon fill="midnightblue" stroke="midnightblue" points="345.73,-63 355.73,-59.5 345.73,-56 345.73,-63"/>
</g>
</g>
</svg>
