<?xml version="1.0" encoding="UTF-8" standalone="no"?>
<!DOCTYPE svg PUBLIC "-//W3C//DTD SVG 1.1//EN"
 "http://www.w3.org/Graphics/SVG/1.1/DTD/svg11.dtd">
<!-- Generated by graphviz version 13.1.0 (20250701.0955)
 -->
<!-- Title: Lib::FreeRTOS::MemoryManager Pages: 1 -->
<svg width="160pt" height="278pt"
 viewBox="0.00 0.00 160.00 278.00" xmlns="http://www.w3.org/2000/svg" xmlns:xlink="http://www.w3.org/1999/xlink">
<g id="graph0" class="graph" transform="scale(1 1) rotate(0) translate(4 274)">
<title>Lib::FreeRTOS::MemoryManager</title>
<!-- Node1 -->
<g id="Node000001" class="node">
<title>Node1</title>
<g id="a_Node000001"><a xlink:title="Encapsulates FreeRTOS heap memory management and diagnostics.">
<polygon fill="#999999" stroke="none" points="152,-120 0,-120 0,0 152,0 152,-120"/>
<text xml:space="preserve" text-anchor="start" x="4" y="-106.5" font-family="Helvetica,sans-Serif" font-size="10.00">Lib::FreeRTOS::MemoryManager</text>
<text xml:space="preserve" text-anchor="start" x="74.5" y="-90.5" font-family="Helvetica,sans-Serif" font-size="10.00"> </text>
<text xml:space="preserve" text-anchor="start" x="16.12" y="-74.5" font-family="Helvetica,sans-Serif" font-size="10.00">+</text>
<text xml:space="preserve" text-anchor="start" x="38.25" y="-74.5" font-family="Helvetica,sans-Serif" font-size="10.00">static void * malloc</text>
<text xml:space="preserve" text-anchor="start" x="38.25" y="-62.5" font-family="Helvetica,sans-Serif" font-size="10.00">(std::size_t size)</text>
<text xml:space="preserve" text-anchor="start" x="16.12" y="-46.5" font-family="Helvetica,sans-Serif" font-size="10.00">+</text>
<text xml:space="preserve" text-anchor="start" x="38.25" y="-46.5" font-family="Helvetica,sans-Serif" font-size="10.00">static void free(void</text>
<text xml:space="preserve" text-anchor="start" x="38.25" y="-34.5" font-family="Helvetica,sans-Serif" font-size="10.00"> *ptr)</text>
<text xml:space="preserve" text-anchor="start" x="16.12" y="-18.5" font-family="Helvetica,sans-Serif" font-size="10.00">+</text>
<text xml:space="preserve" text-anchor="start" x="38.25" y="-18.5" font-family="Helvetica,sans-Serif" font-size="10.00">static std::size_t</text>
<text xml:space="preserve" text-anchor="start" x="38.25" y="-6.5" font-family="Helvetica,sans-Serif" font-size="10.00"> getFreeHeapSize()</text>
<polygon fill="#666666" stroke="#666666" points="0,-102 0,-102 152,-102 152,-102 0,-102"/>
<polygon fill="#666666" stroke="#666666" points="0,-86 0,-86 152,-86 152,-86 0,-86"/>
<polygon fill="none" stroke="#666666" points="0,0 0,-120 152,-120 152,0 0,0"/>
</a>
</g>
</g>
<!-- Node2 -->
<g id="Node000002" class="node">
<title>Node2</title>
<g id="a_Node000002"><a xlink:href="../../d9/d79/a01360.html" target="_top" xlink:title="Holds diagnostic counters for memory allocations, deallocations, and active allocations.">
<polygon fill="white" stroke="none" points="152,-270 0,-270 0,-174 152,-174 152,-270"/>
<text xml:space="preserve" text-anchor="start" x="4" y="-256.5" font-family="Helvetica,sans-Serif" font-size="10.00">Lib::FreeRTOS::MemoryManager</text>
<text xml:space="preserve" text-anchor="start" x="49.75" y="-244.5" font-family="Helvetica,sans-Serif" font-size="10.00">::Diagnostic</text>
<text xml:space="preserve" text-anchor="start" x="15.75" y="-228.5" font-family="Helvetica,sans-Serif" font-size="10.00">+</text>
<text xml:space="preserve" text-anchor="start" x="37.5" y="-228.5" font-family="Helvetica,sans-Serif" font-size="10.00">uint32_t allocated</text>
<text xml:space="preserve" text-anchor="start" x="15.75" y="-212.5" font-family="Helvetica,sans-Serif" font-size="10.00">+</text>
<text xml:space="preserve" text-anchor="start" x="37.5" y="-212.5" font-family="Helvetica,sans-Serif" font-size="10.00">uint32_t deallocated</text>
<text xml:space="preserve" text-anchor="start" x="15.75" y="-196.5" font-family="Helvetica,sans-Serif" font-size="10.00">+</text>
<text xml:space="preserve" text-anchor="start" x="37.5" y="-196.5" font-family="Helvetica,sans-Serif" font-size="10.00">uint32_t active</text>
<text xml:space="preserve" text-anchor="start" x="74.5" y="-180.5" font-family="Helvetica,sans-Serif" font-size="10.00"> </text>
<polygon fill="#666666" stroke="#666666" points="0,-240 0,-240 152,-240 152,-240 0,-240"/>
<polygon fill="#666666" stroke="#666666" points="0,-192 0,-192 35.5,-192 35.5,-192 0,-192"/>
<polygon fill="#666666" stroke="#666666" points="35.5,-192 35.5,-192 152,-192 152,-192 35.5,-192"/>
<polygon fill="none" stroke="#666666" points="0,-174 0,-270 152,-270 152,-174 0,-174"/>
</a>
</g>
</g>
<!-- Node2&#45;&gt;Node1 -->
<g id="edge1_Node000001_Node000002" class="edge">
<title>Node2&#45;&gt;Node1</title>
<g id="a_edge1_Node000001_Node000002"><a xlink:title=" ">
<path fill="none" stroke="#63b8ff" d="M76,-174.29C76,-161.23 76,-146.72 76,-132.57"/>
<polygon fill="none" stroke="#63b8ff" points="76,-132.63 72,-126.63 76,-120.63 80,-126.63 76,-132.63"/>
</a>
</g>
<text xml:space="preserve" text-anchor="start" x="79" y="-143.5" font-family="Helvetica,sans-Serif" font-size="10.00" fill="grey">+diagnostic</text>
</g>
</g>
</svg>
