<?xml version="1.0" encoding="UTF-8" standalone="no"?>
<!DOCTYPE svg PUBLIC "-//W3C//DTD SVG 1.1//EN"
 "http://www.w3.org/Graphics/SVG/1.1/DTD/svg11.dtd">
<!-- Generated by graphviz version 13.1.0 (20250701.0955)
 -->
<!-- Title: Lib::BSP::W25Q128JVSIQ::Config Pages: 1 -->
<svg width="138pt" height="266pt"
 viewBox="0.00 0.00 138.00 266.00" xmlns="http://www.w3.org/2000/svg" xmlns:xlink="http://www.w3.org/1999/xlink">
<g id="graph0" class="graph" transform="scale(1 1) rotate(0) translate(4 262)">
<title>Lib::BSP::W25Q128JVSIQ::Config</title>
<!-- Node1 -->
<g id="Node000001" class="node">
<title>Node1</title>
<g id="a_Node000001"><a xlink:title="Configuration for W25Q128JVSIQ driver.">
<polygon fill="#999999" stroke="none" points="129.75,-64 0,-64 0,0 129.75,0 129.75,-64"/>
<text xml:space="preserve" text-anchor="start" x="6" y="-50.5" font-family="Helvetica,sans-Serif" font-size="10.00">Lib::BSP::W25Q128JVSIQ</text>
<text xml:space="preserve" text-anchor="start" x="47.62" y="-38.5" font-family="Helvetica,sans-Serif" font-size="10.00">::Config</text>
<text xml:space="preserve" text-anchor="start" x="4" y="-22.5" font-family="Helvetica,sans-Serif" font-size="10.00">+</text>
<text xml:space="preserve" text-anchor="start" x="14" y="-22.5" font-family="Helvetica,sans-Serif" font-size="10.00">SPI_HandleTypeDef * spi</text>
<text xml:space="preserve" text-anchor="start" x="63.38" y="-6.5" font-family="Helvetica,sans-Serif" font-size="10.00"> </text>
<polygon fill="#666666" stroke="#666666" points="0,-34 0,-34 129.75,-34 129.75,-34 0,-34"/>
<polygon fill="#666666" stroke="#666666" points="0,-18 0,-18 12,-18 12,-18 0,-18"/>
<polygon fill="#666666" stroke="#666666" points="12,-18 12,-18 129.75,-18 129.75,-18 12,-18"/>
<polygon fill="none" stroke="#666666" points="0,0 0,-64 129.75,-64 129.75,0 0,0"/>
</a>
</g>
</g>
<!-- Node2 -->
<g id="Node000002" class="node">
<title>Node2</title>
<g id="a_Node000002"><a xlink:href="../../d3/d9a/class_lib_1_1_h_a_l_1_1_g_p_i_o_1_1_handle.html" target="_top" xlink:title="GPIO pin handle abstraction.">
<polygon fill="white" stroke="none" points="124.88,-258 4.88,-258 4.88,-118 124.88,-118 124.88,-258"/>
<text xml:space="preserve" text-anchor="start" x="12" y="-244.5" font-family="Helvetica,sans-Serif" font-size="10.00">Lib::HAL::GPIO::Handle</text>
<text xml:space="preserve" text-anchor="start" x="8.88" y="-228.5" font-family="Helvetica,sans-Serif" font-size="10.00">+</text>
<text xml:space="preserve" text-anchor="start" x="18.88" y="-228.5" font-family="Helvetica,sans-Serif" font-size="10.00">GPIO_TypeDef * port</text>
<text xml:space="preserve" text-anchor="start" x="8.88" y="-212.5" font-family="Helvetica,sans-Serif" font-size="10.00">+</text>
<text xml:space="preserve" text-anchor="start" x="18.88" y="-212.5" font-family="Helvetica,sans-Serif" font-size="10.00">uint16_t number</text>
<text xml:space="preserve" text-anchor="start" x="8.88" y="-196.5" font-family="Helvetica,sans-Serif" font-size="10.00">+</text>
<text xml:space="preserve" text-anchor="start" x="18.88" y="-196.5" font-family="Helvetica,sans-Serif" font-size="10.00">Handle()=default</text>
<text xml:space="preserve" text-anchor="start" x="8.88" y="-180.5" font-family="Helvetica,sans-Serif" font-size="10.00">+</text>
<text xml:space="preserve" text-anchor="start" x="18.88" y="-180.5" font-family="Helvetica,sans-Serif" font-size="10.00">Handle(GPIO_TypeDef</text>
<text xml:space="preserve" text-anchor="start" x="18.88" y="-168.5" font-family="Helvetica,sans-Serif" font-size="10.00"> *port, uint16_t number)</text>
<text xml:space="preserve" text-anchor="start" x="8.88" y="-152.5" font-family="Helvetica,sans-Serif" font-size="10.00">+</text>
<text xml:space="preserve" text-anchor="start" x="18.88" y="-152.5" font-family="Helvetica,sans-Serif" font-size="10.00">~Handle()=default</text>
<text xml:space="preserve" text-anchor="start" x="8.88" y="-136.5" font-family="Helvetica,sans-Serif" font-size="10.00">+</text>
<text xml:space="preserve" text-anchor="start" x="18.88" y="-136.5" font-family="Helvetica,sans-Serif" font-size="10.00">bool operator==(const</text>
<text xml:space="preserve" text-anchor="start" x="18.88" y="-124.5" font-family="Helvetica,sans-Serif" font-size="10.00"> Handle &amp;ref) const</text>
<polygon fill="#666666" stroke="#666666" points="4.88,-240 4.88,-240 124.88,-240 124.88,-240 4.88,-240"/>
<polygon fill="#666666" stroke="#666666" points="4.88,-208 4.88,-208 16.88,-208 16.88,-208 4.88,-208"/>
<polygon fill="#666666" stroke="#666666" points="16.88,-208 16.88,-208 124.88,-208 124.88,-208 16.88,-208"/>
<polygon fill="none" stroke="#666666" points="4.88,-118 4.88,-258 124.88,-258 124.88,-118 4.88,-118"/>
</a>
</g>
</g>
<!-- Node2&#45;&gt;Node1 -->
<g id="edge1_Node000001_Node000002" class="edge">
<title>Node2&#45;&gt;Node1</title>
<g id="a_edge1_Node000001_Node000002"><a xlink:title=" ">
<path fill="none" stroke="#63b8ff" d="M64.88,-118.11C64.88,-103.96 64.88,-89.45 64.88,-76.5"/>
<polygon fill="none" stroke="#63b8ff" points="64.88,-76.56 60.88,-70.56 64.88,-64.56 68.88,-70.56 64.88,-76.56"/>
</a>
</g>
<text xml:space="preserve" text-anchor="start" x="67.88" y="-87.5" font-family="Helvetica,sans-Serif" font-size="10.00" fill="grey">+nss</text>
</g>
</g>
</svg>
