<?xml version="1.0" encoding="UTF-8" standalone="no"?>
<!DOCTYPE svg PUBLIC "-//W3C//DTD SVG 1.1//EN"
 "http://www.w3.org/Graphics/SVG/1.1/DTD/svg11.dtd">
<!-- Generated by graphviz version 13.1.0 (20250701.0955)
 -->
<!-- Title: Lib::BSP::W25Q128JVSIQ::Config Pages: 1 -->
<svg width="130pt" height="245pt"
 viewBox="0.00 0.00 130.00 245.00" xmlns="http://www.w3.org/2000/svg" xmlns:xlink="http://www.w3.org/1999/xlink">
<g id="graph0" class="graph" transform="scale(1 1) rotate(0) translate(4 241)">
<title>Lib::BSP::W25Q128JVSIQ::Config</title>
<!-- Node1 -->
<g id="Node000001" class="node">
<title>Node1</title>
<g id="a_Node000001"><a xlink:title="Configuration for W25Q128JVSIQ driver.">
<polygon fill="#999999" stroke="none" points="121.5,-58 0,-58 0,0 121.5,0 121.5,-58"/>
<text xml:space="preserve" text-anchor="start" x="7.5" y="-45.45" font-family="Arial" font-size="9.00">Lib::BSP::W25Q128JVSIQ</text>
<text xml:space="preserve" text-anchor="start" x="45" y="-34.95" font-family="Arial" font-size="9.00">::Config</text>
<text xml:space="preserve" text-anchor="start" x="4" y="-20.45" font-family="Arial" font-size="9.00">+</text>
<text xml:space="preserve" text-anchor="start" x="13.25" y="-20.45" font-family="Arial" font-size="9.00">SPI_HandleTypeDef * spi</text>
<text xml:space="preserve" text-anchor="start" x="59.62" y="-5.95" font-family="Arial" font-size="9.00"> </text>
<polygon fill="#666666" stroke="#666666" points="0,-31 0,-31 121.5,-31 121.5,-31 0,-31"/>
<polygon fill="#666666" stroke="#666666" points="0,-16.5 0,-16.5 11.25,-16.5 11.25,-16.5 0,-16.5"/>
<polygon fill="#666666" stroke="#666666" points="11.25,-16.5 11.25,-16.5 121.5,-16.5 121.5,-16.5 11.25,-16.5"/>
<polygon fill="none" stroke="#666666" points="0,0 0,-58 121.5,-58 121.5,0 0,0"/>
</a>
</g>
</g>
<!-- Node2 -->
<g id="Node000002" class="node">
<title>Node2</title>
<g id="a_Node000002"><a xlink:href="../../d3/d9a/class_lib_1_1_h_a_l_1_1_g_p_i_o_1_1_handle.html" target="_top" xlink:title="GPIO pin handle abstraction.">
<polygon fill="white" stroke="none" points="117.38,-237 4.12,-237 4.12,-110.5 117.38,-110.5 117.38,-237"/>
<text xml:space="preserve" text-anchor="start" x="12.75" y="-224.45" font-family="Arial" font-size="9.00">Lib::HAL::GPIO::Handle</text>
<text xml:space="preserve" text-anchor="start" x="8.12" y="-209.95" font-family="Arial" font-size="9.00">+</text>
<text xml:space="preserve" text-anchor="start" x="17.38" y="-209.95" font-family="Arial" font-size="9.00">GPIO_TypeDef * port</text>
<text xml:space="preserve" text-anchor="start" x="8.12" y="-195.45" font-family="Arial" font-size="9.00">+</text>
<text xml:space="preserve" text-anchor="start" x="17.38" y="-195.45" font-family="Arial" font-size="9.00">uint16_t number</text>
<text xml:space="preserve" text-anchor="start" x="8.12" y="-180.95" font-family="Arial" font-size="9.00">+</text>
<text xml:space="preserve" text-anchor="start" x="17.38" y="-180.95" font-family="Arial" font-size="9.00">Handle()=default</text>
<text xml:space="preserve" text-anchor="start" x="8.12" y="-166.45" font-family="Arial" font-size="9.00">+</text>
<text xml:space="preserve" text-anchor="start" x="17.38" y="-166.45" font-family="Arial" font-size="9.00">Handle(GPIO_TypeDef</text>
<text xml:space="preserve" text-anchor="start" x="17.38" y="-155.95" font-family="Arial" font-size="9.00"> *port, uint16_t number)</text>
<text xml:space="preserve" text-anchor="start" x="8.12" y="-141.45" font-family="Arial" font-size="9.00">+</text>
<text xml:space="preserve" text-anchor="start" x="17.38" y="-141.45" font-family="Arial" font-size="9.00">~Handle()=default</text>
<text xml:space="preserve" text-anchor="start" x="8.12" y="-126.95" font-family="Arial" font-size="9.00">+</text>
<text xml:space="preserve" text-anchor="start" x="17.38" y="-126.95" font-family="Arial" font-size="9.00">bool operator==(const</text>
<text xml:space="preserve" text-anchor="start" x="17.38" y="-116.45" font-family="Arial" font-size="9.00"> Handle &amp;other) const</text>
<polygon fill="#666666" stroke="#666666" points="4.12,-220.5 4.12,-220.5 117.38,-220.5 117.38,-220.5 4.12,-220.5"/>
<polygon fill="#666666" stroke="#666666" points="4.12,-191.5 4.12,-191.5 15.38,-191.5 15.38,-191.5 4.12,-191.5"/>
<polygon fill="#666666" stroke="#666666" points="15.38,-191.5 15.38,-191.5 117.38,-191.5 117.38,-191.5 15.38,-191.5"/>
<polygon fill="none" stroke="#666666" points="4.12,-110.5 4.12,-237 117.38,-237 117.38,-110.5 4.12,-110.5"/>
</a>
</g>
</g>
<!-- Node2&#45;&gt;Node1 -->
<g id="edge1_Node000001_Node000002" class="edge">
<title>Node2&#45;&gt;Node1</title>
<g id="a_edge1_Node000001_Node000002"><a xlink:title=" ">
<path fill="none" stroke="#63b8ff" d="M60.75,-110.55C60.75,-96.98 60.75,-82.96 60.75,-70.49"/>
<polygon fill="none" stroke="#63b8ff" points="60.75,-70.57 56.75,-64.57 60.75,-58.57 64.75,-64.57 60.75,-70.57"/>
</a>
</g>
<text xml:space="preserve" text-anchor="start" x="63.75" y="-80.95" font-family="Arial" font-size="9.00" fill="grey">+nss</text>
</g>
</g>
</svg>
