<?xml version="1.0" encoding="UTF-8" standalone="no"?>
<!DOCTYPE svg PUBLIC "-//W3C//DTD SVG 1.1//EN"
 "http://www.w3.org/Graphics/SVG/1.1/DTD/svg11.dtd">
<!-- Generated by graphviz version 12.2.1 (20241206.2353)
 -->
<!-- Title: Lib::HAL::UARTBase::receive Pages: 1 -->
<svg width="437pt" height="90pt"
 viewBox="0.00 0.00 437.00 90.00" xmlns="http://www.w3.org/2000/svg" xmlns:xlink="http://www.w3.org/1999/xlink">
<g id="graph0" class="graph" transform="scale(1 1) rotate(0) translate(4 86)">
<title>Lib::HAL::UARTBase::receive</title>
<!-- Node1 -->
<g id="Node000001" class="node">
<title>Node1</title>
<g id="a_Node000001"><a xlink:title="Receives data from the UART.">
<polygon fill="#999999" stroke="#666666" points="109.75,-57 0,-57 0,-25 109.75,-25 109.75,-57"/>
<text text-anchor="start" x="8" y="-43.5" font-family="Helvetica,sans-Serif" font-size="10.00">Lib::HAL::UARTBase</text>
<text text-anchor="middle" x="54.88" y="-31.5" font-family="Helvetica,sans-Serif" font-size="10.00">::receive</text>
</a>
</g>
</g>
<!-- Node2 -->
<g id="Node000002" class="node">
<title>Node2</title>
<g id="a_Node000002"><a xlink:href="../../de/d55/a00323.html#a222488a3721d7e90472b88cbd4069406" target="_top" xlink:title="Receives data using interrupt mode.">
<polygon fill="white" stroke="#666666" points="269.38,-82 159.62,-82 159.62,-50 269.38,-50 269.38,-82"/>
<text text-anchor="start" x="167.62" y="-68.5" font-family="Helvetica,sans-Serif" font-size="10.00">Lib::HAL::UARTBase</text>
<text text-anchor="middle" x="214.5" y="-56.5" font-family="Helvetica,sans-Serif" font-size="10.00">::receiveFunc</text>
</a>
</g>
</g>
<!-- Node1&#45;&gt;Node2 -->
<g id="edge1_Node000001_Node000002" class="edge">
<title>Node1&#45;&gt;Node2</title>
<g id="a_edge1_Node000001_Node000002"><a xlink:title=" ">
<path fill="none" stroke="#63b8ff" d="M110.12,-49.6C122.26,-51.53 135.26,-53.59 147.8,-55.58"/>
<polygon fill="#63b8ff" stroke="#63b8ff" points="147.23,-59.03 157.66,-57.14 148.33,-52.12 147.23,-59.03"/>
</a>
</g>
</g>
<!-- Node4 -->
<g id="Node000004" class="node">
<title>Node4</title>
<g id="a_Node000004"><a xlink:href="../../de/d55/a00323.html#a4fb67c3c41f48cbb342ec804acdd2ca8" target="_top" xlink:title="Waits for the receive operation to complete.">
<polygon fill="white" stroke="#666666" points="283.25,-32 145.75,-32 145.75,0 283.25,0 283.25,-32"/>
<text text-anchor="start" x="153.75" y="-18.5" font-family="Helvetica,sans-Serif" font-size="10.00">Lib::HAL::UARTBase</text>
<text text-anchor="middle" x="214.5" y="-6.5" font-family="Helvetica,sans-Serif" font-size="10.00">::waitForReceiveCompleted</text>
</a>
</g>
</g>
<!-- Node1&#45;&gt;Node4 -->
<g id="edge3_Node000001_Node000004" class="edge">
<title>Node1&#45;&gt;Node4</title>
<g id="a_edge3_Node000001_Node000004"><a xlink:title=" ">
<path fill="none" stroke="#63b8ff" d="M110.12,-32.4C117.96,-31.15 126.15,-29.85 134.36,-28.55"/>
<polygon fill="#63b8ff" stroke="#63b8ff" points="134.69,-32.04 144.01,-27.02 133.59,-25.13 134.69,-32.04"/>
</a>
</g>
</g>
<!-- Node3 -->
<g id="Node000003" class="node">
<title>Node3</title>
<g id="a_Node000003"><a xlink:href="../../de/d55/a00323.html#ad608aca2a901c18171ad8f78691ac987" target="_top" xlink:title="Gets the UART handle.">
<polygon fill="white" stroke="#666666" points="429,-82 319.25,-82 319.25,-50 429,-50 429,-82"/>
<text text-anchor="start" x="327.25" y="-68.5" font-family="Helvetica,sans-Serif" font-size="10.00">Lib::HAL::UARTBase</text>
<text text-anchor="middle" x="374.12" y="-56.5" font-family="Helvetica,sans-Serif" font-size="10.00">::getHandle</text>
</a>
</g>
</g>
<!-- Node2&#45;&gt;Node3 -->
<g id="edge2_Node000002_Node000003" class="edge">
<title>Node2&#45;&gt;Node3</title>
<g id="a_edge2_Node000002_Node000003"><a xlink:title=" ">
<path fill="none" stroke="#63b8ff" d="M269.75,-66C281.88,-66 294.88,-66 307.43,-66"/>
<polygon fill="#63b8ff" stroke="#63b8ff" points="307.27,-69.5 317.27,-66 307.27,-62.5 307.27,-69.5"/>
</a>
</g>
</g>
</g>
</svg>
