<?xml version="1.0" encoding="UTF-8" standalone="no"?>
<!DOCTYPE svg PUBLIC "-//W3C//DTD SVG 1.1//EN"
 "http://www.w3.org/Graphics/SVG/1.1/DTD/svg11.dtd">
<!-- Generated by graphviz version 13.1.0 (20250701.0955)
 -->
<!-- Title: Lib::FreeRTOS::Semaphore Pages: 1 -->
<svg width="150pt" height="580pt"
 viewBox="0.00 0.00 150.00 580.00" xmlns="http://www.w3.org/2000/svg" xmlns:xlink="http://www.w3.org/1999/xlink">
<g id="graph0" class="graph" transform="scale(1 1) rotate(0) translate(4 576)">
<title>Lib::FreeRTOS::Semaphore</title>
<!-- Node1 -->
<g id="Node000001" class="node">
<title>Node1</title>
<g id="a_Node000001"><a xlink:title="FreeRTOS binary semaphore wrapper.">
<polygon fill="#999999" stroke="none" points="136.75,-188.5 4.75,-188.5 4.75,0 136.75,0 136.75,-188.5"/>
<text xml:space="preserve" text-anchor="start" x="14.5" y="-175.95" font-family="Arial" font-size="9.00">Lib::FreeRTOS::Semaphore</text>
<text xml:space="preserve" text-anchor="start" x="69.62" y="-161.45" font-family="Arial" font-size="9.00"> </text>
<text xml:space="preserve" text-anchor="start" x="8.75" y="-146.95" font-family="Arial" font-size="9.00">+</text>
<text xml:space="preserve" text-anchor="start" x="18" y="-146.95" font-family="Arial" font-size="9.00">Semaphore()</text>
<text xml:space="preserve" text-anchor="start" x="8.75" y="-132.45" font-family="Arial" font-size="9.00">+</text>
<text xml:space="preserve" text-anchor="start" x="18" y="-132.45" font-family="Arial" font-size="9.00">~Semaphore()</text>
<text xml:space="preserve" text-anchor="start" x="8.75" y="-117.95" font-family="Arial" font-size="9.00">+</text>
<text xml:space="preserve" text-anchor="start" x="18" y="-117.95" font-family="Arial" font-size="9.00">create()</text>
<text xml:space="preserve" text-anchor="start" x="8.75" y="-103.45" font-family="Arial" font-size="9.00">+</text>
<text xml:space="preserve" text-anchor="start" x="18" y="-103.45" font-family="Arial" font-size="9.00">release()</text>
<text xml:space="preserve" text-anchor="start" x="8.75" y="-88.95" font-family="Arial" font-size="9.00">+</text>
<text xml:space="preserve" text-anchor="start" x="18" y="-88.95" font-family="Arial" font-size="9.00">take()</text>
<text xml:space="preserve" text-anchor="start" x="8.75" y="-74.45" font-family="Arial" font-size="9.00">+</text>
<text xml:space="preserve" text-anchor="start" x="18" y="-74.45" font-family="Arial" font-size="9.00">give()</text>
<text xml:space="preserve" text-anchor="start" x="8.75" y="-59.95" font-family="Arial" font-size="9.00">+</text>
<text xml:space="preserve" text-anchor="start" x="18" y="-59.95" font-family="Arial" font-size="9.00">takeFromISR()</text>
<text xml:space="preserve" text-anchor="start" x="8.75" y="-45.45" font-family="Arial" font-size="9.00">+</text>
<text xml:space="preserve" text-anchor="start" x="18" y="-45.45" font-family="Arial" font-size="9.00">giveFromISR()</text>
<text xml:space="preserve" text-anchor="start" x="8.75" y="-30.95" font-family="Arial" font-size="9.00">+</text>
<text xml:space="preserve" text-anchor="start" x="18" y="-30.95" font-family="Arial" font-size="9.00">isCreated()</text>
<text xml:space="preserve" text-anchor="start" x="8.75" y="-16.45" font-family="Arial" font-size="9.00">+</text>
<text xml:space="preserve" text-anchor="start" x="18" y="-16.45" font-family="Arial" font-size="9.00">operator SemaphoreHandle</text>
<text xml:space="preserve" text-anchor="start" x="18" y="-5.95" font-family="Arial" font-size="9.00">_t &amp;()</text>
<polygon fill="#666666" stroke="#666666" points="4.75,-172 4.75,-172 136.75,-172 136.75,-172 4.75,-172"/>
<polygon fill="#666666" stroke="#666666" points="4.75,-157.5 4.75,-157.5 136.75,-157.5 136.75,-157.5 4.75,-157.5"/>
<polygon fill="none" stroke="#666666" points="4.75,0 4.75,-188.5 136.75,-188.5 136.75,0 4.75,0"/>
</a>
</g>
</g>
<!-- Node2 -->
<g id="Node000002" class="node">
<title>Node2</title>
<g id="a_Node000002"><a xlink:href="../../da/d90/class_lib_1_1_free_r_t_o_s_1_1_semaphore_base.html" target="_top" xlink:title="Abstract base class for FreeRTOS semaphore wrappers.">
<polygon fill="white" stroke="none" points="141.5,-472 0,-472 0,-225.5 141.5,-225.5 141.5,-472"/>
<text xml:space="preserve" text-anchor="start" x="4" y="-459.45" font-family="Arial" font-size="9.00">Lib::FreeRTOS::SemaphoreBase</text>
<text xml:space="preserve" text-anchor="start" x="69.62" y="-444.95" font-family="Arial" font-size="9.00"> </text>
<text xml:space="preserve" text-anchor="start" x="6.38" y="-430.45" font-family="Arial" font-size="9.00">#</text>
<text xml:space="preserve" text-anchor="start" x="18" y="-430.45" font-family="Arial" font-size="9.00">SemaphoreBase()</text>
<text xml:space="preserve" text-anchor="start" x="6.38" y="-415.95" font-family="Arial" font-size="9.00">#</text>
<text xml:space="preserve" text-anchor="start" x="18" y="-415.95" font-family="Arial" font-size="9.00">SemaphoreBase()</text>
<text xml:space="preserve" text-anchor="start" x="6.38" y="-401.45" font-family="Arial" font-size="9.00">#</text>
<text xml:space="preserve" text-anchor="start" x="18" y="-401.45" font-family="Arial" font-size="9.00">operator=()</text>
<text xml:space="preserve" text-anchor="start" x="6.38" y="-386.95" font-family="Arial" font-size="9.00">#</text>
<text xml:space="preserve" text-anchor="start" x="18" y="-386.95" font-family="Arial" font-size="9.00">SemaphoreBase()</text>
<text xml:space="preserve" text-anchor="start" x="6.38" y="-372.45" font-family="Arial" font-size="9.00">#</text>
<text xml:space="preserve" text-anchor="start" x="18" y="-372.45" font-family="Arial" font-size="9.00">operator=()</text>
<text xml:space="preserve" text-anchor="start" x="6.38" y="-357.95" font-family="Arial" font-size="9.00">#</text>
<text xml:space="preserve" text-anchor="start" x="18" y="-357.95" font-family="Arial" font-size="9.00">~SemaphoreBase()</text>
<text xml:space="preserve" text-anchor="start" x="6.38" y="-343.45" font-family="Arial" font-size="9.00">#</text>
<text xml:space="preserve" text-anchor="start" x="18" y="-343.45" font-family="Arial" font-size="9.00">create()</text>
<text xml:space="preserve" text-anchor="start" x="6.38" y="-328.95" font-family="Arial" font-size="9.00">#</text>
<text xml:space="preserve" text-anchor="start" x="18" y="-328.95" font-family="Arial" font-size="9.00">release()</text>
<text xml:space="preserve" text-anchor="start" x="6.38" y="-314.45" font-family="Arial" font-size="9.00">#</text>
<text xml:space="preserve" text-anchor="start" x="18" y="-314.45" font-family="Arial" font-size="9.00">take()</text>
<text xml:space="preserve" text-anchor="start" x="6.38" y="-299.95" font-family="Arial" font-size="9.00">#</text>
<text xml:space="preserve" text-anchor="start" x="18" y="-299.95" font-family="Arial" font-size="9.00">give()</text>
<text xml:space="preserve" text-anchor="start" x="6.38" y="-285.45" font-family="Arial" font-size="9.00">#</text>
<text xml:space="preserve" text-anchor="start" x="18" y="-285.45" font-family="Arial" font-size="9.00">takeFromISR()</text>
<text xml:space="preserve" text-anchor="start" x="6.38" y="-270.95" font-family="Arial" font-size="9.00">#</text>
<text xml:space="preserve" text-anchor="start" x="18" y="-270.95" font-family="Arial" font-size="9.00">giveFromISR()</text>
<text xml:space="preserve" text-anchor="start" x="6.38" y="-256.45" font-family="Arial" font-size="9.00">#</text>
<text xml:space="preserve" text-anchor="start" x="18" y="-256.45" font-family="Arial" font-size="9.00">operator SemaphoreHandle</text>
<text xml:space="preserve" text-anchor="start" x="18" y="-245.95" font-family="Arial" font-size="9.00">_t &amp;()</text>
<text xml:space="preserve" text-anchor="start" x="6.38" y="-231.45" font-family="Arial" font-size="9.00">#</text>
<text xml:space="preserve" text-anchor="start" x="18" y="-231.45" font-family="Arial" font-size="9.00">isCreated()</text>
<polygon fill="#666666" stroke="#666666" points="0,-455.5 0,-455.5 141.5,-455.5 141.5,-455.5 0,-455.5"/>
<polygon fill="#666666" stroke="#666666" points="0,-441 0,-441 141.5,-441 141.5,-441 0,-441"/>
<polygon fill="none" stroke="#666666" points="0,-225.5 0,-472 141.5,-472 141.5,-225.5 0,-225.5"/>
</a>
</g>
</g>
<!-- Node2&#45;&gt;Node1 -->
<g id="edge1_Node000001_Node000002" class="edge">
<title>Node2&#45;&gt;Node1</title>
<g id="a_edge1_Node000001_Node000002"><a xlink:title=" ">
<path fill="none" stroke="#63b8ff" d="M70.75,-214.06C70.75,-205.32 70.75,-196.62 70.75,-188.14"/>
<polygon fill="none" stroke="#63b8ff" points="67.25,-214.05 70.75,-224.05 74.25,-214.05 67.25,-214.05"/>
</a>
</g>
</g>
<!-- Node3 -->
<g id="Node000003" class="node">
<title>Node3</title>
<g id="a_Node000003"><a xlink:title=" ">
<polygon fill="white" stroke="none" points="117.5,-572 24,-572 24,-524.5 117.5,-524.5 117.5,-572"/>
<text xml:space="preserve" text-anchor="start" x="28" y="-559.45" font-family="Arial" font-size="9.00">SemaphoreHandle_t</text>
<text xml:space="preserve" text-anchor="start" x="69.62" y="-544.95" font-family="Arial" font-size="9.00"> </text>
<text xml:space="preserve" text-anchor="start" x="69.62" y="-530.45" font-family="Arial" font-size="9.00"> </text>
<polygon fill="#bfbfbf" stroke="#bfbfbf" points="24,-555.5 24,-555.5 117.5,-555.5 117.5,-555.5 24,-555.5"/>
<polygon fill="#bfbfbf" stroke="#bfbfbf" points="24,-541 24,-541 117.5,-541 117.5,-541 24,-541"/>
<polygon fill="none" stroke="#bfbfbf" points="24,-524.5 24,-572 117.5,-572 117.5,-524.5 24,-524.5"/>
</a>
</g>
</g>
<!-- Node3&#45;&gt;Node2 -->
<g id="edge2_Node000002_Node000003" class="edge">
<title>Node3&#45;&gt;Node2</title>
<g id="a_edge2_Node000002_Node000003"><a xlink:title=" ">
<path fill="none" stroke="#63b8ff" d="M70.75,-524.59C70.75,-513.83 70.75,-500 70.75,-484.85"/>
<polygon fill="none" stroke="#63b8ff" points="70.75,-484.75 66.75,-478.75 70.75,-472.75 74.75,-478.75 70.75,-484.75"/>
</a>
</g>
<text xml:space="preserve" text-anchor="start" x="73.75" y="-494.95" font-family="Arial" font-size="9.00" fill="grey">#handle</text>
</g>
</g>
</svg>
