<?xml version="1.0" encoding="UTF-8" standalone="no"?>
<!DOCTYPE svg PUBLIC "-//W3C//DTD SVG 1.1//EN"
 "http://www.w3.org/Graphics/SVG/1.1/DTD/svg11.dtd">
<!-- Generated by graphviz version 13.1.0 (20250701.0955)
 -->
<!-- Title: BSP::Outputs&lt; OutputVersion::V1 &gt;::Config Pages: 1 -->
<svg width="135pt" height="270pt"
 viewBox="0.00 0.00 135.00 270.00" xmlns="http://www.w3.org/2000/svg" xmlns:xlink="http://www.w3.org/1999/xlink">
<g id="graph0" class="graph" transform="scale(1 1) rotate(0) translate(4 266)">
<title>BSP::Outputs&lt; OutputVersion::V1 &gt;::Config</title>
<!-- Node1 -->
<g id="Node000001" class="node">
<title>Node1</title>
<g id="a_Node000001"><a xlink:title="Configuration structure for Outputs V1.">
<polygon fill="#999999" stroke="none" points="127.25,-68.5 0,-68.5 0,0 127.25,0 127.25,-68.5"/>
<text xml:space="preserve" text-anchor="start" x="4" y="-55.95" font-family="Arial" font-size="9.00">BSP::Outputs&lt; OutputVersion</text>
<text xml:space="preserve" text-anchor="start" x="36.25" y="-45.45" font-family="Arial" font-size="9.00">::V1 &gt;::Config</text>
<text xml:space="preserve" text-anchor="start" x="9.38" y="-30.95" font-family="Arial" font-size="9.00">+</text>
<text xml:space="preserve" text-anchor="start" x="24" y="-30.95" font-family="Arial" font-size="9.00">Lib::HAL::SPI::Handle</text>
<text xml:space="preserve" text-anchor="start" x="24" y="-20.45" font-family="Arial" font-size="9.00"> * spiHandle</text>
<text xml:space="preserve" text-anchor="start" x="62.5" y="-5.95" font-family="Arial" font-size="9.00"> </text>
<polygon fill="#666666" stroke="#666666" points="0,-41.5 0,-41.5 127.25,-41.5 127.25,-41.5 0,-41.5"/>
<polygon fill="#666666" stroke="#666666" points="0,-16.5 0,-16.5 22,-16.5 22,-16.5 0,-16.5"/>
<polygon fill="#666666" stroke="#666666" points="22,-16.5 22,-16.5 127.25,-16.5 127.25,-16.5 22,-16.5"/>
<polygon fill="none" stroke="#666666" points="0,0 0,-68.5 127.25,-68.5 127.25,0 0,0"/>
</a>
</g>
</g>
<!-- Node2 -->
<g id="Node000002" class="node">
<title>Node2</title>
<g id="a_Node000002"><a xlink:href="../../d3/d9a/class_lib_1_1_h_a_l_1_1_g_p_i_o_1_1_handle.html" target="_top" xlink:title="GPIO pin handle abstraction.">
<polygon fill="white" stroke="none" points="120.25,-262 7,-262 7,-135.5 120.25,-135.5 120.25,-262"/>
<text xml:space="preserve" text-anchor="start" x="15.62" y="-249.45" font-family="Arial" font-size="9.00">Lib::HAL::GPIO::Handle</text>
<text xml:space="preserve" text-anchor="start" x="11" y="-234.95" font-family="Arial" font-size="9.00">+</text>
<text xml:space="preserve" text-anchor="start" x="20.25" y="-234.95" font-family="Arial" font-size="9.00">GPIO_TypeDef * port</text>
<text xml:space="preserve" text-anchor="start" x="11" y="-220.45" font-family="Arial" font-size="9.00">+</text>
<text xml:space="preserve" text-anchor="start" x="20.25" y="-220.45" font-family="Arial" font-size="9.00">uint16_t number</text>
<text xml:space="preserve" text-anchor="start" x="11" y="-205.95" font-family="Arial" font-size="9.00">+</text>
<text xml:space="preserve" text-anchor="start" x="20.25" y="-205.95" font-family="Arial" font-size="9.00">Handle()=default</text>
<text xml:space="preserve" text-anchor="start" x="11" y="-191.45" font-family="Arial" font-size="9.00">+</text>
<text xml:space="preserve" text-anchor="start" x="20.25" y="-191.45" font-family="Arial" font-size="9.00">Handle(GPIO_TypeDef</text>
<text xml:space="preserve" text-anchor="start" x="20.25" y="-180.95" font-family="Arial" font-size="9.00"> *port, uint16_t number)</text>
<text xml:space="preserve" text-anchor="start" x="11" y="-166.45" font-family="Arial" font-size="9.00">+</text>
<text xml:space="preserve" text-anchor="start" x="20.25" y="-166.45" font-family="Arial" font-size="9.00">~Handle()=default</text>
<text xml:space="preserve" text-anchor="start" x="11" y="-151.95" font-family="Arial" font-size="9.00">+</text>
<text xml:space="preserve" text-anchor="start" x="20.25" y="-151.95" font-family="Arial" font-size="9.00">bool operator==(const</text>
<text xml:space="preserve" text-anchor="start" x="20.25" y="-141.45" font-family="Arial" font-size="9.00"> Handle &amp;other) const</text>
<polygon fill="#666666" stroke="#666666" points="7,-245.5 7,-245.5 120.25,-245.5 120.25,-245.5 7,-245.5"/>
<polygon fill="#666666" stroke="#666666" points="7,-216.5 7,-216.5 18.25,-216.5 18.25,-216.5 7,-216.5"/>
<polygon fill="#666666" stroke="#666666" points="18.25,-216.5 18.25,-216.5 120.25,-216.5 120.25,-216.5 18.25,-216.5"/>
<polygon fill="none" stroke="#666666" points="7,-135.5 7,-262 120.25,-262 120.25,-135.5 7,-135.5"/>
</a>
</g>
</g>
<!-- Node2&#45;&gt;Node1 -->
<g id="edge1_Node000001_Node000002" class="edge">
<title>Node2&#45;&gt;Node1</title>
<g id="a_edge1_Node000001_Node000002"><a xlink:title=" ">
<path fill="none" stroke="#63b8ff" d="M63.62,-135.85C63.62,-117.73 63.62,-98.25 63.62,-81.31"/>
<polygon fill="none" stroke="#63b8ff" points="63.63,-81.23 59.63,-75.23 63.63,-69.23 67.63,-75.23 63.63,-81.23"/>
</a>
</g>
<text xml:space="preserve" text-anchor="start" x="66.62" y="-105.95" font-family="Arial" font-size="9.00" fill="grey">+csPinHandle</text>
<text xml:space="preserve" text-anchor="start" x="66.62" y="-91.45" font-family="Arial" font-size="9.00" fill="grey">+ssPinHandle</text>
</g>
</g>
</svg>
