<?xml version="1.0" encoding="UTF-8" standalone="no"?>
<!DOCTYPE svg PUBLIC "-//W3C//DTD SVG 1.1//EN"
 "http://www.w3.org/Graphics/SVG/1.1/DTD/svg11.dtd">
<!-- Generated by graphviz version 13.1.0 (20250701.0955)
 -->
<!-- Title: Communication Layer Pages: 1 -->
<svg width="224pt" height="64pt"
 viewBox="0.00 0.00 224.00 64.00" xmlns="http://www.w3.org/2000/svg" xmlns:xlink="http://www.w3.org/1999/xlink">
<g id="graph0" class="graph" transform="scale(1 1) rotate(0) translate(4 59.5)">
<title>Communication Layer</title>
<!-- Node3 -->
<g id="Node000003" class="node">
<title>Node3</title>
<g id="a_Node000003"><a xlink:href="../../d6/df4/group___canbus.html" target="_top" xlink:title=" ">
<polygon fill="white" stroke="#666666" points="215.75,-55.5 142,-55.5 142,-37 215.75,-37 215.75,-55.5"/>
<text xml:space="preserve" text-anchor="middle" x="178.88" y="-42.95" font-family="Arial" font-size="9.00">Canbus Layer</text>
</a>
</g>
</g>
<!-- Node1 -->
<g id="Node000001" class="node">
<title>Node1</title>
<g id="a_Node000001"><a xlink:title=" ">
<polygon fill="#999999" stroke="#666666" points="106,-36.5 0,-36.5 0,-18 106,-18 106,-36.5"/>
<text xml:space="preserve" text-anchor="middle" x="53" y="-23.95" font-family="Arial" font-size="9.00">Communication Layer</text>
</a>
</g>
</g>
<!-- Node1&#45;&gt;Node3 -->
<g id="edge2" class="edge">
<title>Node1&#45;&gt;Node3</title>
<path fill="none" stroke="black" d="M117.42,-36.98C125.69,-38.25 133.93,-39.51 141.54,-40.68"/>
<polygon fill="black" stroke="black" points="118.09,-33.54 107.67,-35.48 117.02,-40.46 118.09,-33.54"/>
</g>
<!-- Node2 -->
<g id="Node000002" class="node">
<title>Node2</title>
<g id="a_Node000002"><a xlink:href="../../d5/de2/group___xbee.html" target="_top" xlink:title=" ">
<polygon fill="white" stroke="#666666" points="211.62,-18.5 146.12,-18.5 146.12,0 211.62,0 211.62,-18.5"/>
<text xml:space="preserve" text-anchor="middle" x="178.88" y="-5.95" font-family="Arial" font-size="9.00">XBEE Layer</text>
</a>
</g>
</g>
<!-- Node1&#45;&gt;Node2 -->
<g id="edge1" class="edge">
<title>Node1&#45;&gt;Node2</title>
<path fill="none" stroke="black" d="M117.33,-18.05C127.24,-16.61 137.1,-15.18 145.9,-13.9"/>
<polygon fill="black" stroke="black" points="117.07,-14.55 107.67,-19.45 118.07,-21.48 117.07,-14.55"/>
</g>
</g>
</svg>
