<?xml version="1.0" encoding="UTF-8" standalone="no"?>
<!DOCTYPE svg PUBLIC "-//W3C//DTD SVG 1.1//EN"
 "http://www.w3.org/Graphics/SVG/1.1/DTD/svg11.dtd">
<!-- Generated by graphviz version 3.0.0 (20220226.1711)
 -->
<!-- Title: sendCommand Pages: 1 -->
<svg width="432pt" height="28pt"
 viewBox="0.00 0.00 432.00 28.00" xmlns="http://www.w3.org/2000/svg" xmlns:xlink="http://www.w3.org/1999/xlink">
<g id="graph0" class="graph" transform="scale(1 1) rotate(0) translate(4 24)">
<title>sendCommand</title>
<!-- Node1 -->
<g id="node1" class="node">
<title>Node1</title>
<g id="a_node1"><a xlink:title="Send Command.">
<polygon fill="#bfbfbf" stroke="black" points="342,-0.5 342,-19.5 424,-19.5 424,-0.5 342,-0.5"/>
<text text-anchor="middle" x="383" y="-7.5" font-family="Helvetica,sans-Serif" font-size="10.00">sendCommand</text>
</a>
</g>
</g>
<!-- Node2 -->
<g id="node2" class="node">
<title>Node2</title>
<g id="a_node2"><a xlink:href="../../d6/d73/class_b_s_p_1_1_c_s25_f_lxxx.html#a939ff8a9c7c071c0d1d815b3a8aa888f" target="_top" xlink:title="Read Chip ID.">
<polygon fill="none" stroke="black" points="160,-0.5 160,-19.5 306,-19.5 306,-0.5 160,-0.5"/>
<text text-anchor="middle" x="233" y="-7.5" font-family="Helvetica,sans-Serif" font-size="10.00">BSP::CS25FLxxx::readChipId</text>
</a>
</g>
</g>
<!-- Node1&#45;&gt;Node2 -->
<g id="edge1" class="edge">
<title>Node1&#45;&gt;Node2</title>
<path fill="none" stroke="midnightblue" d="M331.73,-10C323.44,-10 314.71,-10 306.02,-10"/>
<polygon fill="midnightblue" stroke="midnightblue" points="331.95,-13.5 341.95,-10 331.95,-6.5 331.95,-13.5"/>
</g>
<!-- Node3 -->
<g id="node3" class="node">
<title>Node3</title>
<g id="a_node3"><a xlink:href="../../dc/d79/class_b_s_p_1_1_c_quad_flash.html#a962ee220e6ef097784a3bf237efb639a" target="_top" xlink:title="Open S25FLxxx.">
<polygon fill="none" stroke="black" points="0,-0.5 0,-19.5 124,-19.5 124,-0.5 0,-0.5"/>
<text text-anchor="middle" x="62" y="-7.5" font-family="Helvetica,sans-Serif" font-size="10.00">BSP::CQuadFlash::open</text>
</a>
</g>
</g>
<!-- Node2&#45;&gt;Node3 -->
<g id="edge2" class="edge">
<title>Node2&#45;&gt;Node3</title>
<path fill="none" stroke="midnightblue" d="M149.71,-10C141.06,-10 132.37,-10 124.02,-10"/>
<polygon fill="midnightblue" stroke="midnightblue" points="149.84,-13.5 159.84,-10 149.84,-6.5 149.84,-13.5"/>
</g>
</g>
</svg>
