<?xml version="1.0" encoding="UTF-8" standalone="no"?>
<!DOCTYPE svg PUBLIC "-//W3C//DTD SVG 1.1//EN"
 "http://www.w3.org/Graphics/SVG/1.1/DTD/svg11.dtd">
<!-- Generated by graphviz version 13.1.0 (20250701.0955)
 -->
<!-- Title: Lib::HAL::RTClock Pages: 1 -->
<svg width="146pt" height="108pt"
 viewBox="0.00 0.00 146.00 108.00" xmlns="http://www.w3.org/2000/svg" xmlns:xlink="http://www.w3.org/1999/xlink">
<g id="graph0" class="graph" transform="scale(1 1) rotate(0) translate(4 104)">
<title>Lib::HAL::RTClock</title>
<!-- Node1 -->
<g id="Node000001" class="node">
<title>Node1</title>
<g id="a_Node000001"><a xlink:title="RTClock class.">
<polygon fill="#999999" stroke="none" points="99.12,-18.5 16.88,-18.5 16.88,0 99.12,0 99.12,-18.5"/>
<text xml:space="preserve" text-anchor="start" x="20.88" y="-5.95" font-family="Arial" font-size="9.00">Lib::HAL::RTClock</text>
<polygon fill="none" stroke="#666666" points="16.88,0 16.88,-18.5 99.12,-18.5 99.12,0 16.88,0"/>
</a>
</g>
</g>
<!-- Node2 -->
<g id="Node000002" class="node">
<title>Node2</title>
<g id="a_Node000002"><a xlink:title=" ">
<polygon fill="white" stroke="none" points="116,-100 0,-100 0,-71 116,-71 116,-100"/>
<text xml:space="preserve" text-anchor="start" x="4" y="-87.45" font-family="Arial" font-size="9.00">function&lt; void(const</text>
<text xml:space="preserve" text-anchor="start" x="4" y="-76.95" font-family="Arial" font-size="9.00"> Lib::Helper::DateTime &amp;)&gt;</text>
<polygon fill="none" stroke="#bfbfbf" points="0,-71 0,-100 116,-100 116,-71 0,-71"/>
</a>
</g>
</g>
<!-- Node2&#45;&gt;Node1 -->
<g id="edge1_Node000001_Node000002" class="edge">
<title>Node2&#45;&gt;Node1</title>
<g id="a_edge1_Node000001_Node000002"><a xlink:title=" ">
<path fill="none" stroke="#63b8ff" d="M58,-71.23C58,-60.07 58,-43.94 58,-31.07"/>
<polygon fill="none" stroke="#63b8ff" points="58,-31.27 54,-25.27 58,-19.27 62,-25.27 58,-31.27"/>
</a>
</g>
<text xml:space="preserve" text-anchor="start" x="61" y="-41.45" font-family="Arial" font-size="9.00" fill="grey">+onTimeChanged</text>
</g>
</g>
</svg>
