<?xml version="1.0" encoding="UTF-8" standalone="no"?>
<!DOCTYPE svg PUBLIC "-//W3C//DTD SVG 1.1//EN"
 "http://www.w3.org/Graphics/SVG/1.1/DTD/svg11.dtd">
<!-- Generated by graphviz version 12.2.1 (20241206.2353)
 -->
<!-- Title: ComPort::Config Pages: 1 -->
<svg width="126pt" height="72pt"
 viewBox="0.00 0.00 125.75 72.00" xmlns="http://www.w3.org/2000/svg" xmlns:xlink="http://www.w3.org/1999/xlink">
<g id="graph0" class="graph" transform="scale(1 1) rotate(0) translate(4 68)">
<title>ComPort::Config</title>
<!-- Node1 -->
<g id="Node000001" class="node">
<title>Node1</title>
<g id="a_Node000001"><a xlink:title="Configuration for ComPort.">
<polygon fill="#999999" stroke="none" points="117.75,-64 0,-64 0,0 117.75,0 117.75,-64"/>
<text text-anchor="start" x="22.12" y="-50.5" font-family="Helvetica,sans-Serif" font-size="10.00">ComPort::Config</text>
<text text-anchor="start" x="4" y="-34.5" font-family="Helvetica,sans-Serif" font-size="10.00">+</text>
<text text-anchor="start" x="14" y="-34.5" font-family="Helvetica,sans-Serif" font-size="10.00">UART_HandleTypeDef</text>
<text text-anchor="start" x="14" y="-22.5" font-family="Helvetica,sans-Serif" font-size="10.00"> * uartHandle</text>
<text text-anchor="start" x="57.38" y="-6.5" font-family="Helvetica,sans-Serif" font-size="10.00"> </text>
<polygon fill="#666666" stroke="#666666" points="0,-46 0,-46 117.75,-46 117.75,-46 0,-46"/>
<polygon fill="#666666" stroke="#666666" points="0,-18 0,-18 12,-18 12,-18 0,-18"/>
<polygon fill="#666666" stroke="#666666" points="12,-18 12,-18 117.75,-18 117.75,-18 12,-18"/>
<polygon fill="none" stroke="#666666" points="0,0 0,-64 117.75,-64 117.75,0 0,0"/>
</a>
</g>
</g>
</g>
</svg>
