<?xml version="1.0" encoding="UTF-8" standalone="no"?>
<!DOCTYPE svg PUBLIC "-//W3C//DTD SVG 1.1//EN"
 "http://www.w3.org/Graphics/SVG/1.1/DTD/svg11.dtd">
<!-- Generated by graphviz version 12.2.1 (20241206.2353)
 -->
<!-- Title: Lib::Xbee::API::ServerBase Pages: 1 -->
<svg width="177pt" height="820pt"
 viewBox="0.00 0.00 176.75 820.00" xmlns="http://www.w3.org/2000/svg" xmlns:xlink="http://www.w3.org/1999/xlink">
<g id="graph0" class="graph" transform="scale(1 1) rotate(0) translate(4 816)">
<title>Lib::Xbee::API::ServerBase</title>
<!-- Node1 -->
<g id="Node000001" class="node">
<title>Node1</title>
<g id="a_Node000001"><a xlink:title="A base class for server applications, inheriting from ApplicationBase.">
<polygon fill="#999999" stroke="none" points="154.88,-192 13.88,-192 13.88,0 154.88,0 154.88,-192"/>
<text text-anchor="start" x="24" y="-178.5" font-family="Helvetica,sans-Serif" font-size="10.00">Lib::Xbee::API::ServerBase</text>
<text text-anchor="start" x="82.88" y="-162.5" font-family="Helvetica,sans-Serif" font-size="10.00"> </text>
<text text-anchor="start" x="17.88" y="-146.5" font-family="Helvetica,sans-Serif" font-size="10.00">+</text>
<text text-anchor="start" x="27.88" y="-146.5" font-family="Helvetica,sans-Serif" font-size="10.00">start()</text>
<text text-anchor="start" x="17.88" y="-130.5" font-family="Helvetica,sans-Serif" font-size="10.00">+</text>
<text text-anchor="start" x="27.88" y="-130.5" font-family="Helvetica,sans-Serif" font-size="10.00">getModulePresent()</text>
<text text-anchor="start" x="18.25" y="-114.5" font-family="Helvetica,sans-Serif" font-size="10.00">#</text>
<text text-anchor="start" x="27.88" y="-114.5" font-family="Helvetica,sans-Serif" font-size="10.00">ServerBase()</text>
<text text-anchor="start" x="18.25" y="-98.5" font-family="Helvetica,sans-Serif" font-size="10.00">#</text>
<text text-anchor="start" x="27.88" y="-98.5" font-family="Helvetica,sans-Serif" font-size="10.00">~ServerBase()</text>
<text text-anchor="start" x="18.25" y="-82.5" font-family="Helvetica,sans-Serif" font-size="10.00">#</text>
<text text-anchor="start" x="27.88" y="-82.5" font-family="Helvetica,sans-Serif" font-size="10.00">sendData()</text>
<text text-anchor="start" x="18.25" y="-66.5" font-family="Helvetica,sans-Serif" font-size="10.00">#</text>
<text text-anchor="start" x="27.88" y="-66.5" font-family="Helvetica,sans-Serif" font-size="10.00">outputsUpdatedSucceessful</text>
<text text-anchor="start" x="27.88" y="-54.5" font-family="Helvetica,sans-Serif" font-size="10.00">Callback()</text>
<text text-anchor="start" x="18.25" y="-38.5" font-family="Helvetica,sans-Serif" font-size="10.00">#</text>
<text text-anchor="start" x="27.88" y="-38.5" font-family="Helvetica,sans-Serif" font-size="10.00">handleTaskTickEvent()</text>
<text text-anchor="start" x="18.25" y="-22.5" font-family="Helvetica,sans-Serif" font-size="10.00">#</text>
<text text-anchor="start" x="27.88" y="-22.5" font-family="Helvetica,sans-Serif" font-size="10.00">handleIncomingMessage()</text>
<text text-anchor="start" x="18.25" y="-6.5" font-family="Helvetica,sans-Serif" font-size="10.00">#</text>
<text text-anchor="start" x="27.88" y="-6.5" font-family="Helvetica,sans-Serif" font-size="10.00">handleOutgoingMessage()</text>
<polygon fill="#666666" stroke="#666666" points="13.88,-174 13.88,-174 154.88,-174 154.88,-174 13.88,-174"/>
<polygon fill="#666666" stroke="#666666" points="13.88,-158 13.88,-158 154.88,-158 154.88,-158 13.88,-158"/>
<polygon fill="none" stroke="#666666" points="13.88,0 13.88,-192 154.88,-192 154.88,0 13.88,0"/>
</a>
</g>
</g>
<!-- Node2 -->
<g id="Node000002" class="node">
<title>Node2</title>
<g id="a_Node000002"><a xlink:href="../../dc/d19/a01056.html" target="_top" xlink:title="Base class for Xbee application implementations.">
<polygon fill="white" stroke="none" points="168.75,-676 0,-676 0,-228 168.75,-228 168.75,-676"/>
<text text-anchor="start" x="14.25" y="-662.5" font-family="Helvetica,sans-Serif" font-size="10.00">Lib::Xbee::API::ApplicationBase</text>
<text text-anchor="start" x="4" y="-646.5" font-family="Helvetica,sans-Serif" font-size="10.00">+</text>
<text text-anchor="start" x="14" y="-646.5" font-family="Helvetica,sans-Serif" font-size="10.00">connection</text>
<text text-anchor="start" x="4" y="-630.5" font-family="Helvetica,sans-Serif" font-size="10.00">+</text>
<text text-anchor="start" x="14" y="-630.5" font-family="Helvetica,sans-Serif" font-size="10.00">diagnostic</text>
<text text-anchor="start" x="4" y="-614.5" font-family="Helvetica,sans-Serif" font-size="10.00">+</text>
<text text-anchor="start" x="14" y="-614.5" font-family="Helvetica,sans-Serif" font-size="10.00">modemStatus</text>
<text text-anchor="start" x="4" y="-598.5" font-family="Helvetica,sans-Serif" font-size="10.00">+</text>
<text text-anchor="start" x="14" y="-598.5" font-family="Helvetica,sans-Serif" font-size="10.00">spectrumAnalyzer</text>
<text text-anchor="start" x="4" y="-582.5" font-family="Helvetica,sans-Serif" font-size="10.00">+</text>
<text text-anchor="start" x="14" y="-582.5" font-family="Helvetica,sans-Serif" font-size="10.00">parameters</text>
<text text-anchor="start" x="4" y="-566.5" font-family="Helvetica,sans-Serif" font-size="10.00">+</text>
<text text-anchor="start" x="14" y="-566.5" font-family="Helvetica,sans-Serif" font-size="10.00">networkDiscovery</text>
<text text-anchor="start" x="4" y="-550.5" font-family="Helvetica,sans-Serif" font-size="10.00">+</text>
<text text-anchor="start" x="14" y="-550.5" font-family="Helvetica,sans-Serif" font-size="10.00">channelScanner</text>
<text text-anchor="start" x="4.38" y="-534.5" font-family="Helvetica,sans-Serif" font-size="10.00">#</text>
<text text-anchor="start" x="14" y="-534.5" font-family="Helvetica,sans-Serif" font-size="10.00">messageFrameId</text>
<text text-anchor="start" x="4.38" y="-518.5" font-family="Helvetica,sans-Serif" font-size="10.00">#</text>
<text text-anchor="start" x="14" y="-518.5" font-family="Helvetica,sans-Serif" font-size="10.00">queueRxMessage</text>
<text text-anchor="start" x="4.38" y="-502.5" font-family="Helvetica,sans-Serif" font-size="10.00">#</text>
<text text-anchor="start" x="14" y="-502.5" font-family="Helvetica,sans-Serif" font-size="10.00">queueTransmitDeliveryStatus</text>
<text text-anchor="start" x="4.38" y="-486.5" font-family="Helvetica,sans-Serif" font-size="10.00">#</text>
<text text-anchor="start" x="14" y="-486.5" font-family="Helvetica,sans-Serif" font-size="10.00">MAX_RESPONSE_TIME</text>
<text text-anchor="start" x="4.38" y="-470.5" font-family="Helvetica,sans-Serif" font-size="10.00">#</text>
<text text-anchor="start" x="14" y="-470.5" font-family="Helvetica,sans-Serif" font-size="10.00">PAUSE_BETWEEN_MESSAGES</text>
<text text-anchor="start" x="14" y="-458.5" font-family="Helvetica,sans-Serif" font-size="10.00">_IN_DISCONNECTED</text>
<text text-anchor="start" x="4.38" y="-442.5" font-family="Helvetica,sans-Serif" font-size="10.00">#</text>
<text text-anchor="start" x="14" y="-442.5" font-family="Helvetica,sans-Serif" font-size="10.00">CONNECTION_TIMEOUT</text>
<text text-anchor="start" x="4.38" y="-426.5" font-family="Helvetica,sans-Serif" font-size="10.00">#</text>
<text text-anchor="start" x="14" y="-426.5" font-family="Helvetica,sans-Serif" font-size="10.00">TRANSACTION_TIMEOUT</text>
<text text-anchor="start" x="4" y="-410.5" font-family="Helvetica,sans-Serif" font-size="10.00">+</text>
<text text-anchor="start" x="14" y="-410.5" font-family="Helvetica,sans-Serif" font-size="10.00">pause()</text>
<text text-anchor="start" x="4" y="-394.5" font-family="Helvetica,sans-Serif" font-size="10.00">+</text>
<text text-anchor="start" x="14" y="-394.5" font-family="Helvetica,sans-Serif" font-size="10.00">resume()</text>
<text text-anchor="start" x="4.38" y="-378.5" font-family="Helvetica,sans-Serif" font-size="10.00">#</text>
<text text-anchor="start" x="14" y="-378.5" font-family="Helvetica,sans-Serif" font-size="10.00">ApplicationBase()</text>
<text text-anchor="start" x="4.38" y="-362.5" font-family="Helvetica,sans-Serif" font-size="10.00">#</text>
<text text-anchor="start" x="14" y="-362.5" font-family="Helvetica,sans-Serif" font-size="10.00">~ApplicationBase()</text>
<text text-anchor="start" x="4.38" y="-346.5" font-family="Helvetica,sans-Serif" font-size="10.00">#</text>
<text text-anchor="start" x="14" y="-346.5" font-family="Helvetica,sans-Serif" font-size="10.00">start()</text>
<text text-anchor="start" x="4.38" y="-330.5" font-family="Helvetica,sans-Serif" font-size="10.00">#</text>
<text text-anchor="start" x="14" y="-330.5" font-family="Helvetica,sans-Serif" font-size="10.00">sendData()</text>
<text text-anchor="start" x="4.38" y="-314.5" font-family="Helvetica,sans-Serif" font-size="10.00">#</text>
<text text-anchor="start" x="14" y="-314.5" font-family="Helvetica,sans-Serif" font-size="10.00">getModulePresent()</text>
<text text-anchor="start" x="4.38" y="-298.5" font-family="Helvetica,sans-Serif" font-size="10.00">#</text>
<text text-anchor="start" x="14" y="-298.5" font-family="Helvetica,sans-Serif" font-size="10.00">handleIncomingMessage()</text>
<text text-anchor="start" x="4.38" y="-282.5" font-family="Helvetica,sans-Serif" font-size="10.00">#</text>
<text text-anchor="start" x="14" y="-282.5" font-family="Helvetica,sans-Serif" font-size="10.00">handleOutgoingMessage()</text>
<text text-anchor="start" x="4.38" y="-266.5" font-family="Helvetica,sans-Serif" font-size="10.00">#</text>
<text text-anchor="start" x="14" y="-266.5" font-family="Helvetica,sans-Serif" font-size="10.00">handleTaskTickEvent()</text>
<text text-anchor="start" x="4.38" y="-250.5" font-family="Helvetica,sans-Serif" font-size="10.00">#</text>
<text text-anchor="start" x="14" y="-250.5" font-family="Helvetica,sans-Serif" font-size="10.00">taskInitCallback()</text>
<text text-anchor="start" x="4.38" y="-234.5" font-family="Helvetica,sans-Serif" font-size="10.00">#</text>
<text text-anchor="start" x="14" y="-234.5" font-family="Helvetica,sans-Serif" font-size="10.00">taskLoopCallback()</text>
<polygon fill="#666666" stroke="#666666" points="0,-658 0,-658 168.75,-658 168.75,-658 0,-658"/>
<polygon fill="#666666" stroke="#666666" points="0,-422 0,-422 12,-422 12,-422 0,-422"/>
<polygon fill="#666666" stroke="#666666" points="12,-422 12,-422 168.75,-422 168.75,-422 12,-422"/>
<polygon fill="none" stroke="#666666" points="0,-228 0,-676 168.75,-676 168.75,-228 0,-228"/>
</a>
</g>
</g>
<!-- Node2&#45;&gt;Node1 -->
<g id="edge1_Node000001_Node000002" class="edge">
<title>Node2&#45;&gt;Node1</title>
<g id="a_edge1_Node000001_Node000002"><a xlink:title=" ">
<path fill="none" stroke="#63b8ff" d="M84.38,-216.78C84.38,-208.29 84.38,-199.99 84.38,-191.97"/>
<polygon fill="none" stroke="#63b8ff" points="80.88,-216.55 84.38,-226.55 87.88,-216.55 80.88,-216.55"/>
</a>
</g>
</g>
<!-- Node3 -->
<g id="Node000003" class="node">
<title>Node3</title>
<g id="a_Node000003"><a xlink:href="../../dc/d51/a01120.html" target="_top" xlink:title="Provides an interface for pausing and resuming operations.">
<polygon fill="white" stroke="none" points="137.12,-812 31.62,-812 31.62,-712 137.12,-712 137.12,-812"/>
<text text-anchor="start" x="35.62" y="-798.5" font-family="Helvetica,sans-Serif" font-size="10.00">Lib::Xbee::API::Pause</text>
<text text-anchor="start" x="82.88" y="-782.5" font-family="Helvetica,sans-Serif" font-size="10.00"> </text>
<text text-anchor="start" x="47.56" y="-766.5" font-family="Helvetica,sans-Serif" font-size="10.00">+</text>
<text text-anchor="start" x="69.5" y="-766.5" font-family="Helvetica,sans-Serif" font-size="10.00">Pause()</text>
<text text-anchor="start" x="47.56" y="-750.5" font-family="Helvetica,sans-Serif" font-size="10.00">+</text>
<text text-anchor="start" x="69.5" y="-750.5" font-family="Helvetica,sans-Serif" font-size="10.00">~Pause()</text>
<text text-anchor="start" x="47.56" y="-734.5" font-family="Helvetica,sans-Serif" font-size="10.00">+</text>
<text text-anchor="start" x="69.5" y="-734.5" font-family="Helvetica,sans-Serif" font-size="10.00">pause()</text>
<text text-anchor="start" x="47.56" y="-718.5" font-family="Helvetica,sans-Serif" font-size="10.00">+</text>
<text text-anchor="start" x="69.5" y="-718.5" font-family="Helvetica,sans-Serif" font-size="10.00">resume()</text>
<polygon fill="#666666" stroke="#666666" points="31.62,-794 31.62,-794 137.12,-794 137.12,-794 31.62,-794"/>
<polygon fill="#666666" stroke="#666666" points="31.62,-778 31.62,-778 137.12,-778 137.12,-778 31.62,-778"/>
<polygon fill="none" stroke="#666666" points="31.62,-712 31.62,-812 137.12,-812 137.12,-712 31.62,-712"/>
</a>
</g>
</g>
<!-- Node3&#45;&gt;Node2 -->
<g id="edge2_Node000002_Node000003" class="edge">
<title>Node3&#45;&gt;Node2</title>
<g id="a_edge2_Node000002_Node000003"><a xlink:title=" ">
<path fill="none" stroke="#63b8ff" d="M84.38,-700.73C84.38,-692.9 84.38,-684.54 84.38,-675.82"/>
<polygon fill="none" stroke="#63b8ff" points="80.88,-700.68 84.38,-710.68 87.88,-700.68 80.88,-700.68"/>
</a>
</g>
</g>
</g>
</svg>
