<?xml version="1.0" encoding="UTF-8" standalone="no"?>
<!DOCTYPE svg PUBLIC "-//W3C//DTD SVG 1.1//EN"
 "http://www.w3.org/Graphics/SVG/1.1/DTD/svg11.dtd">
<!-- Generated by graphviz version 14.0.5 (20251129.0259)
 -->
<!-- Title: AdcTransparentPortBase.hpp Pages: 1 -->
<svg width="152pt" height="140pt"
 viewBox="0.00 0.00 152.00 140.00" xmlns="http://www.w3.org/2000/svg" xmlns:xlink="http://www.w3.org/1999/xlink">
<g id="graph0" class="graph" transform="scale(1 1) rotate(0) translate(4 136)">
<title>AdcTransparentPortBase.hpp</title>
<!-- Node1 -->
<g id="Node000001" class="node">
<title>Node1</title>
<g id="a_Node000001"><a xlink:title=" ">
<polygon fill="#999999" stroke="#666666" points="144.25,-132 0,-132 0,-112 144.25,-112 144.25,-132"/>
<text xml:space="preserve" text-anchor="middle" x="72.12" y="-118.5" font-family="Helvetica,sans-Serif" font-size="10.00">AdcTransparentPortBase.hpp</text>
</a>
</g>
</g>
<!-- Node2 -->
<g id="Node000002" class="node">
<title>Node2</title>
<g id="a_Node000002"><a xlink:href="../../da/dec/a00080.html" target="_top" xlink:title=" ">
<polygon fill="white" stroke="#666666" points="118.38,-76 25.88,-76 25.88,-56 118.38,-56 118.38,-76"/>
<text xml:space="preserve" text-anchor="middle" x="72.12" y="-62.5" font-family="Helvetica,sans-Serif" font-size="10.00">AdcPortDMA.hpp</text>
</a>
</g>
</g>
<!-- Node1&#45;&gt;Node2 -->
<g id="edge1_Node000001_Node000002" class="edge">
<title>Node1&#45;&gt;Node2</title>
<g id="a_edge1_Node000001_Node000002"><a xlink:title=" ">
<path fill="none" stroke="#63b8ff" d="M72.12,-100.13C72.12,-91.9 72.12,-82.85 72.12,-76.3"/>
<polygon fill="#63b8ff" stroke="#63b8ff" points="68.63,-100.08 72.13,-110.08 75.63,-100.08 68.63,-100.08"/>
</a>
</g>
</g>
<!-- Node3 -->
<g id="Node000003" class="node">
<title>Node3</title>
<g id="a_Node000003"><a xlink:href="../../da/d24/a00068.html" target="_top" xlink:title=" ">
<polygon fill="white" stroke="#666666" points="109.38,-20 34.88,-20 34.88,0 109.38,0 109.38,-20"/>
<text xml:space="preserve" text-anchor="middle" x="72.12" y="-6.5" font-family="Helvetica,sans-Serif" font-size="10.00">ADCPort.hpp</text>
</a>
</g>
</g>
<!-- Node2&#45;&gt;Node3 -->
<g id="edge2_Node000002_Node000003" class="edge">
<title>Node2&#45;&gt;Node3</title>
<g id="a_edge2_Node000002_Node000003"><a xlink:title=" ">
<path fill="none" stroke="#63b8ff" d="M72.12,-44.13C72.12,-35.9 72.12,-26.85 72.12,-20.3"/>
<polygon fill="#63b8ff" stroke="#63b8ff" points="68.63,-44.08 72.13,-54.08 75.63,-44.08 68.63,-44.08"/>
</a>
</g>
</g>
</g>
</svg>
