<?xml version="1.0" encoding="UTF-8" standalone="no"?>
<!DOCTYPE svg PUBLIC "-//W3C//DTD SVG 1.1//EN"
 "http://www.w3.org/Graphics/SVG/1.1/DTD/svg11.dtd">
<!-- Generated by graphviz version 12.2.1 (20241206.2353)
 -->
<!-- Title: ResponseEvents.hpp Pages: 1 -->
<svg width="1298pt" height="152pt"
 viewBox="0.00 0.00 1298.00 152.00" xmlns="http://www.w3.org/2000/svg" xmlns:xlink="http://www.w3.org/1999/xlink">
<g id="graph0" class="graph" transform="scale(1 1) rotate(0) translate(4 148)">
<title>ResponseEvents.hpp</title>
<!-- Node1 -->
<g id="Node000001" class="node">
<title>Node1</title>
<g id="a_Node000001"><a xlink:title="Defines the ResponseEvents class for handling various XBee response events.">
<polygon fill="#999999" stroke="#666666" points="738.88,-144 629.12,-144 629.12,-124 738.88,-124 738.88,-144"/>
<text text-anchor="middle" x="684" y="-130.5" font-family="Helvetica,sans-Serif" font-size="10.00">ResponseEvents.hpp</text>
</a>
</g>
</g>
<!-- Node2 -->
<g id="Node000002" class="node">
<title>Node2</title>
<g id="a_Node000002"><a xlink:href="../../de/db1/a00197.html" target="_top" xlink:title="Defines the Frame0x80 class for handling 64&#45;bit Receive Packet frames (ID 0x80) from XBee devices.">
<polygon fill="white" stroke="#666666" points="598,-88 462,-88 462,-68 598,-68 598,-88"/>
<text text-anchor="middle" x="530" y="-74.5" font-family="Helvetica,sans-Serif" font-size="10.00">Responses/Frame0x80.hpp</text>
</a>
</g>
</g>
<!-- Node1&#45;&gt;Node2 -->
<g id="edge1_Node000001_Node000002" class="edge">
<title>Node1&#45;&gt;Node2</title>
<g id="a_edge1_Node000001_Node000002"><a xlink:title=" ">
<path fill="none" stroke="#63b8ff" d="M657.18,-123.59C632.37,-114.9 595.27,-101.89 567.53,-92.16"/>
<polygon fill="#63b8ff" stroke="#63b8ff" points="569.06,-88.99 558.46,-88.98 566.74,-95.59 569.06,-88.99"/>
</a>
</g>
</g>
<!-- Node6 -->
<g id="Node000006" class="node">
<title>Node6</title>
<g id="a_Node000006"><a xlink:href="../../d3/db1/a00200.html" target="_top" xlink:title="Defines the Frame0x81 class for handling specific frame data in the Xbee communication protocol.">
<polygon fill="white" stroke="#666666" points="752,-88 616,-88 616,-68 752,-68 752,-88"/>
<text text-anchor="middle" x="684" y="-74.5" font-family="Helvetica,sans-Serif" font-size="10.00">Responses/Frame0x81.hpp</text>
</a>
</g>
</g>
<!-- Node1&#45;&gt;Node6 -->
<g id="edge5_Node000001_Node000006" class="edge">
<title>Node1&#45;&gt;Node6</title>
<g id="a_edge5_Node000001_Node000006"><a xlink:title=" ">
<path fill="none" stroke="#63b8ff" d="M684,-123.59C684,-117.01 684,-107.96 684,-99.73"/>
<polygon fill="#63b8ff" stroke="#63b8ff" points="687.5,-99.81 684,-89.81 680.5,-99.81 687.5,-99.81"/>
</a>
</g>
</g>
<!-- Node7 -->
<g id="Node000007" class="node">
<title>Node7</title>
<g id="a_Node000007"><a xlink:href="../../de/d79/a00203.html" target="_top" xlink:title="Defines the Frame0x88 class for handling Frame&#45;0x88 responses from the device.">
<polygon fill="white" stroke="#666666" points="906,-88 770,-88 770,-68 906,-68 906,-88"/>
<text text-anchor="middle" x="838" y="-74.5" font-family="Helvetica,sans-Serif" font-size="10.00">Responses/Frame0x88.hpp</text>
</a>
</g>
</g>
<!-- Node1&#45;&gt;Node7 -->
<g id="edge9_Node000001_Node000007" class="edge">
<title>Node1&#45;&gt;Node7</title>
<g id="a_edge9_Node000001_Node000007"><a xlink:title=" ">
<path fill="none" stroke="#63b8ff" d="M710.82,-123.59C735.63,-114.9 772.73,-101.89 800.47,-92.16"/>
<polygon fill="#63b8ff" stroke="#63b8ff" points="801.26,-95.59 809.54,-88.98 798.94,-88.99 801.26,-95.59"/>
</a>
</g>
</g>
<!-- Node8 -->
<g id="Node000008" class="node">
<title>Node8</title>
<g id="a_Node000008"><a xlink:href="../../d5/df1/a00206.html" target="_top" xlink:title="Header file for the Frame0x89 class.">
<polygon fill="white" stroke="#666666" points="1060,-88 924,-88 924,-68 1060,-68 1060,-88"/>
<text text-anchor="middle" x="992" y="-74.5" font-family="Helvetica,sans-Serif" font-size="10.00">Responses/Frame0x89.hpp</text>
</a>
</g>
</g>
<!-- Node1&#45;&gt;Node8 -->
<g id="edge13_Node000001_Node000008" class="edge">
<title>Node1&#45;&gt;Node8</title>
<g id="a_edge13_Node000001_Node000008"><a xlink:title=" ">
<path fill="none" stroke="#63b8ff" d="M738,-123.53C790.62,-114.31 870.68,-100.27 926.82,-90.43"/>
<polygon fill="#63b8ff" stroke="#63b8ff" points="927.32,-93.89 936.57,-88.72 926.12,-87 927.32,-93.89"/>
</a>
</g>
</g>
<!-- Node9 -->
<g id="Node000009" class="node">
<title>Node9</title>
<g id="a_Node000009"><a xlink:href="../../d3/de5/a00209.html" target="_top" xlink:title="Defines the Frame0x8a class which represents the Modem Status frame (0x8A) in the XBee API.">
<polygon fill="white" stroke="#666666" points="136,-88 0,-88 0,-68 136,-68 136,-88"/>
<text text-anchor="middle" x="68" y="-74.5" font-family="Helvetica,sans-Serif" font-size="10.00">Responses/Frame0x8a.hpp</text>
</a>
</g>
</g>
<!-- Node1&#45;&gt;Node9 -->
<g id="edge17_Node000001_Node000009" class="edge">
<title>Node1&#45;&gt;Node9</title>
<g id="a_edge17_Node000001_Node000009"><a xlink:title=" ">
<path fill="none" stroke="#63b8ff" d="M628.85,-129C533.22,-121.93 330.14,-106.34 147.84,-88.26"/>
<polygon fill="#63b8ff" stroke="#63b8ff" points="148.23,-84.78 137.93,-87.27 147.53,-91.74 148.23,-84.78"/>
</a>
</g>
</g>
<!-- Node10 -->
<g id="Node000010" class="node">
<title>Node10</title>
<g id="a_Node000010"><a xlink:href="../../dd/dc1/a00212.html" target="_top" xlink:title="Defines the Frame0x8b class for handling the Extended Transmit Status frame (0x8B) in the XBee librar...">
<polygon fill="white" stroke="#666666" points="1214,-88 1078,-88 1078,-68 1214,-68 1214,-88"/>
<text text-anchor="middle" x="1146" y="-74.5" font-family="Helvetica,sans-Serif" font-size="10.00">Responses/Frame0x8b.hpp</text>
</a>
</g>
</g>
<!-- Node1&#45;&gt;Node10 -->
<g id="edge20_Node000001_Node000010" class="edge">
<title>Node1&#45;&gt;Node10</title>
<g id="a_edge20_Node000001_Node000010"><a xlink:title=" ">
<path fill="none" stroke="#63b8ff" d="M739.27,-126.54C820.55,-117.04 972.76,-99.25 1066.17,-88.33"/>
<polygon fill="#63b8ff" stroke="#63b8ff" points="1066.51,-91.81 1076.04,-87.18 1065.7,-84.86 1066.51,-91.81"/>
</a>
</g>
</g>
<!-- Node11 -->
<g id="Node000011" class="node">
<title>Node11</title>
<g id="a_Node000011"><a xlink:href="../../d3/dd5/a00215.html" target="_top" xlink:title="Frame 0x90: 64&#45;bit Receive Packet.">
<polygon fill="white" stroke="#666666" points="290,-88 154,-88 154,-68 290,-68 290,-88"/>
<text text-anchor="middle" x="222" y="-74.5" font-family="Helvetica,sans-Serif" font-size="10.00">Responses/Frame0x90.hpp</text>
</a>
</g>
</g>
<!-- Node1&#45;&gt;Node11 -->
<g id="edge24_Node000001_Node000011" class="edge">
<title>Node1&#45;&gt;Node11</title>
<g id="a_edge24_Node000001_Node000011"><a xlink:title=" ">
<path fill="none" stroke="#63b8ff" d="M628.73,-126.54C547.45,-117.04 395.24,-99.25 301.83,-88.33"/>
<polygon fill="#63b8ff" stroke="#63b8ff" points="302.3,-84.86 291.96,-87.18 301.49,-91.81 302.3,-84.86"/>
</a>
</g>
</g>
<!-- Node12 -->
<g id="Node000012" class="node">
<title>Node12</title>
<g id="a_Node000012"><a xlink:href="../../dc/d9a/a00218.html" target="_top" xlink:title="Defines the Frame0x97 class for handling XBee response frames with ID 0x97.">
<polygon fill="white" stroke="#666666" points="444,-88 308,-88 308,-68 444,-68 444,-88"/>
<text text-anchor="middle" x="376" y="-74.5" font-family="Helvetica,sans-Serif" font-size="10.00">Responses/Frame0x97.hpp</text>
</a>
</g>
</g>
<!-- Node1&#45;&gt;Node12 -->
<g id="edge28_Node000001_Node000012" class="edge">
<title>Node1&#45;&gt;Node12</title>
<g id="a_edge28_Node000001_Node000012"><a xlink:title=" ">
<path fill="none" stroke="#63b8ff" d="M630,-123.53C577.38,-114.31 497.32,-100.27 441.18,-90.43"/>
<polygon fill="#63b8ff" stroke="#63b8ff" points="441.88,-87 431.43,-88.72 440.68,-93.89 441.88,-87"/>
</a>
</g>
</g>
<!-- Node13 -->
<g id="Node000013" class="node">
<title>Node13</title>
<g id="a_Node000013"><a xlink:title=" ">
<polygon fill="#e0e0e0" stroke="#999999" points="1290,-88 1232,-88 1232,-68 1290,-68 1290,-88"/>
<text text-anchor="middle" x="1261" y="-74.5" font-family="Helvetica,sans-Serif" font-size="10.00">functional</text>
</a>
</g>
</g>
<!-- Node1&#45;&gt;Node13 -->
<g id="edge32_Node000001_Node000013" class="edge">
<title>Node1&#45;&gt;Node13</title>
<g id="a_edge32_Node000001_Node000013"><a xlink:title=" ">
<path fill="none" stroke="#63b8ff" d="M739.03,-131.12C834.91,-127.25 1038.91,-116.41 1220.27,-88.21"/>
<polygon fill="#63b8ff" stroke="#63b8ff" points="1220.8,-91.67 1230.13,-86.65 1219.71,-84.75 1220.8,-91.67"/>
</a>
</g>
</g>
<!-- Node3 -->
<g id="Node000003" class="node">
<title>Node3</title>
<g id="a_Node000003"><a xlink:title=" ">
<polygon fill="#e0e0e0" stroke="#999999" points="711.5,-32 602.5,-32 602.5,0 711.5,0 711.5,-32"/>
<text text-anchor="start" x="610.5" y="-18.5" font-family="Helvetica,sans-Serif" font-size="10.00">Lib/Xbee/Core/Frame</text>
<text text-anchor="middle" x="657" y="-6.5" font-family="Helvetica,sans-Serif" font-size="10.00">/Data.hpp</text>
</a>
</g>
</g>
<!-- Node2&#45;&gt;Node3 -->
<g id="edge2_Node000002_Node000003" class="edge">
<title>Node2&#45;&gt;Node3</title>
<g id="a_edge2_Node000002_Node000003"><a xlink:title=" ">
<path fill="none" stroke="#63b8ff" d="M549.84,-67.62C566.99,-59.52 592.37,-47.53 614.12,-37.26"/>
<polygon fill="#63b8ff" stroke="#63b8ff" points="615.54,-40.46 623.09,-33.02 612.55,-34.13 615.54,-40.46"/>
</a>
</g>
</g>
<!-- Node4 -->
<g id="Node000004" class="node">
<title>Node4</title>
<g id="a_Node000004"><a xlink:title=" ">
<polygon fill="#e0e0e0" stroke="#999999" points="584.5,-32 475.5,-32 475.5,0 584.5,0 584.5,-32"/>
<text text-anchor="start" x="483.5" y="-18.5" font-family="Helvetica,sans-Serif" font-size="10.00">Lib/Xbee/Core/Frame</text>
<text text-anchor="middle" x="530" y="-6.5" font-family="Helvetica,sans-Serif" font-size="10.00">/Helper.hpp</text>
</a>
</g>
</g>
<!-- Node2&#45;&gt;Node4 -->
<g id="edge3_Node000002_Node000004" class="edge">
<title>Node2&#45;&gt;Node4</title>
<g id="a_edge3_Node000002_Node000004"><a xlink:title=" ">
<path fill="none" stroke="#63b8ff" d="M530,-67.62C530,-61.1 530,-52.05 530,-43.4"/>
<polygon fill="#63b8ff" stroke="#63b8ff" points="533.5,-43.65 530,-33.65 526.5,-43.65 533.5,-43.65"/>
</a>
</g>
</g>
<!-- Node5 -->
<g id="Node000005" class="node">
<title>Node5</title>
<g id="a_Node000005"><a xlink:title=" ">
<polygon fill="#e0e0e0" stroke="#999999" points="772.5,-26 729.5,-26 729.5,-6 772.5,-6 772.5,-26"/>
<text text-anchor="middle" x="751" y="-12.5" font-family="Helvetica,sans-Serif" font-size="10.00">vector</text>
</a>
</g>
</g>
<!-- Node2&#45;&gt;Node5 -->
<g id="edge4_Node000002_Node000005" class="edge">
<title>Node2&#45;&gt;Node5</title>
<g id="a_edge4_Node000002_Node000005"><a xlink:title=" ">
<path fill="none" stroke="#63b8ff" d="M584.9,-67.58C623.62,-60.09 676.32,-48.18 721,-32 721.8,-31.71 722.61,-31.4 723.42,-31.09"/>
<polygon fill="#63b8ff" stroke="#63b8ff" points="724.77,-34.32 732.47,-27.04 721.91,-27.92 724.77,-34.32"/>
</a>
</g>
</g>
<!-- Node6&#45;&gt;Node3 -->
<g id="edge6_Node000006_Node000003" class="edge">
<title>Node6&#45;&gt;Node3</title>
<g id="a_edge6_Node000006_Node000003"><a xlink:title=" ">
<path fill="none" stroke="#63b8ff" d="M679.78,-67.62C676.74,-60.88 672.49,-51.43 668.48,-42.52"/>
<polygon fill="#63b8ff" stroke="#63b8ff" points="671.73,-41.2 664.43,-33.52 665.35,-44.08 671.73,-41.2"/>
</a>
</g>
</g>
<!-- Node6&#45;&gt;Node4 -->
<g id="edge7_Node000006_Node000004" class="edge">
<title>Node6&#45;&gt;Node4</title>
<g id="a_edge7_Node000006_Node000004"><a xlink:title=" ">
<path fill="none" stroke="#63b8ff" d="M659.94,-67.62C638.75,-59.37 607.19,-47.07 580.48,-36.67"/>
<polygon fill="#63b8ff" stroke="#63b8ff" points="581.76,-33.41 571.17,-33.04 579.22,-39.93 581.76,-33.41"/>
</a>
</g>
</g>
<!-- Node6&#45;&gt;Node5 -->
<g id="edge8_Node000006_Node000005" class="edge">
<title>Node6&#45;&gt;Node5</title>
<g id="a_edge8_Node000006_Node000005"><a xlink:title=" ">
<path fill="none" stroke="#63b8ff" d="M694.47,-67.62C704.56,-58.59 720.05,-44.72 732.26,-33.78"/>
<polygon fill="#63b8ff" stroke="#63b8ff" points="734.58,-36.4 739.7,-27.12 729.91,-31.19 734.58,-36.4"/>
</a>
</g>
</g>
<!-- Node7&#45;&gt;Node3 -->
<g id="edge10_Node000007_Node000003" class="edge">
<title>Node7&#45;&gt;Node3</title>
<g id="a_edge10_Node000007_Node000003"><a xlink:title=" ">
<path fill="none" stroke="#63b8ff" d="M809.72,-67.62C784.26,-59.19 746.07,-46.53 714.25,-35.98"/>
<polygon fill="#63b8ff" stroke="#63b8ff" points="715.76,-32.79 705.17,-32.97 713.56,-39.44 715.76,-32.79"/>
</a>
</g>
</g>
<!-- Node7&#45;&gt;Node4 -->
<g id="edge11_Node000007_Node000004" class="edge">
<title>Node7&#45;&gt;Node4</title>
<g id="a_edge11_Node000007_Node000004"><a xlink:title=" ">
<path fill="none" stroke="#63b8ff" d="M782.62,-67.56C735.58,-59.38 666.02,-46.85 596.01,-32.36"/>
<polygon fill="#63b8ff" stroke="#63b8ff" points="596.76,-28.94 586.26,-30.33 595.33,-35.8 596.76,-28.94"/>
</a>
</g>
</g>
<!-- Node7&#45;&gt;Node5 -->
<g id="edge12_Node000007_Node000005" class="edge">
<title>Node7&#45;&gt;Node5</title>
<g id="a_edge12_Node000007_Node000005"><a xlink:title=" ">
<path fill="none" stroke="#63b8ff" d="M824.41,-67.62C810.87,-58.29 789.85,-43.79 773.76,-32.7"/>
<polygon fill="#63b8ff" stroke="#63b8ff" points="775.96,-29.96 765.74,-27.17 771.99,-35.73 775.96,-29.96"/>
</a>
</g>
</g>
<!-- Node8&#45;&gt;Node3 -->
<g id="edge14_Node000008_Node000003" class="edge">
<title>Node8&#45;&gt;Node3</title>
<g id="a_edge14_Node000008_Node000003"><a xlink:title=" ">
<path fill="none" stroke="#63b8ff" d="M927.45,-67.5C874.98,-59.5 798.82,-47.27 722.95,-32.31"/>
<polygon fill="#63b8ff" stroke="#63b8ff" points="723.74,-28.9 713.25,-30.38 722.37,-35.76 723.74,-28.9"/>
</a>
</g>
</g>
<!-- Node8&#45;&gt;Node4 -->
<g id="edge15_Node000008_Node000004" class="edge">
<title>Node8&#45;&gt;Node4</title>
<g id="a_edge15_Node000008_Node000004"><a xlink:title=" ">
<path fill="none" stroke="#63b8ff" d="M923.57,-68.98C920.67,-68.65 917.81,-68.32 915,-68 775.99,-52.08 737.41,-56.19 595.99,-32.21"/>
<polygon fill="#63b8ff" stroke="#63b8ff" points="596.67,-28.77 586.22,-30.53 595.48,-35.67 596.67,-28.77"/>
</a>
</g>
</g>
<!-- Node8&#45;&gt;Node5 -->
<g id="edge16_Node000008_Node000005" class="edge">
<title>Node8&#45;&gt;Node5</title>
<g id="a_edge16_Node000008_Node000005"><a xlink:title=" ">
<path fill="none" stroke="#63b8ff" d="M954.08,-67.56C907.23,-55.9 828.3,-36.24 783.89,-25.19"/>
<polygon fill="#63b8ff" stroke="#63b8ff" points="784.88,-21.83 774.33,-22.81 783.19,-28.62 784.88,-21.83"/>
</a>
</g>
</g>
<!-- Node9&#45;&gt;Node3 -->
<g id="edge18_Node000009_Node000003" class="edge">
<title>Node9&#45;&gt;Node3</title>
<g id="a_edge18_Node000009_Node000003"><a xlink:title=" ">
<path fill="none" stroke="#63b8ff" d="M136.42,-68.87C139.32,-68.57 142.19,-68.28 145,-68 340.54,-48.74 394.28,-62.74 590.82,-32.36"/>
<polygon fill="#63b8ff" stroke="#63b8ff" points="591.29,-35.83 600.63,-30.82 590.21,-28.92 591.29,-35.83"/>
</a>
</g>
</g>
<!-- Node9&#45;&gt;Node4 -->
<g id="edge19_Node000009_Node000004" class="edge">
<title>Node9&#45;&gt;Node4</title>
<g id="a_edge19_Node000009_Node000004"><a xlink:title=" ">
<path fill="none" stroke="#63b8ff" d="M136.17,-68.15C224.33,-56.7 376.87,-36.89 463.97,-25.58"/>
<polygon fill="#63b8ff" stroke="#63b8ff" points="464.33,-29.06 473.79,-24.3 463.43,-22.12 464.33,-29.06"/>
</a>
</g>
</g>
<!-- Node10&#45;&gt;Node3 -->
<g id="edge21_Node000010_Node000003" class="edge">
<title>Node10&#45;&gt;Node3</title>
<g id="a_edge21_Node000010_Node000003"><a xlink:title=" ">
<path fill="none" stroke="#63b8ff" d="M1077.57,-68.95C1074.68,-68.63 1071.81,-68.31 1069,-68 918.07,-51.37 876.28,-57.49 722.96,-32.18"/>
<polygon fill="#63b8ff" stroke="#63b8ff" points="723.65,-28.75 713.21,-30.56 722.5,-35.66 723.65,-28.75"/>
</a>
</g>
</g>
<!-- Node10&#45;&gt;Node4 -->
<g id="edge22_Node000010_Node000004" class="edge">
<title>Node10&#45;&gt;Node4</title>
<g id="a_edge22_Node000010_Node000004"><a xlink:title=" ">
<path fill="none" stroke="#63b8ff" d="M1077.58,-68.86C1074.68,-68.56 1071.81,-68.27 1069,-68 861.96,-48.06 805.23,-63.68 596.08,-32.15"/>
<polygon fill="#63b8ff" stroke="#63b8ff" points="596.61,-28.69 586.2,-30.64 595.56,-35.61 596.61,-28.69"/>
</a>
</g>
</g>
<!-- Node10&#45;&gt;Node5 -->
<g id="edge23_Node000010_Node000005" class="edge">
<title>Node10&#45;&gt;Node5</title>
<g id="a_edge23_Node000010_Node000005"><a xlink:title=" ">
<path fill="none" stroke="#63b8ff" d="M1083.85,-67.56C998.97,-54.67 849.82,-32.01 783.91,-22"/>
<polygon fill="#63b8ff" stroke="#63b8ff" points="784.51,-18.55 774.1,-20.51 783.46,-25.47 784.51,-18.55"/>
</a>
</g>
</g>
<!-- Node11&#45;&gt;Node3 -->
<g id="edge25_Node000011_Node000003" class="edge">
<title>Node11&#45;&gt;Node3</title>
<g id="a_edge25_Node000011_Node000003"><a xlink:title=" ">
<path fill="none" stroke="#63b8ff" d="M290.23,-68.95C383.45,-57.92 543.78,-38.86 590.98,-32.17"/>
<polygon fill="#63b8ff" stroke="#63b8ff" points="591.25,-35.67 600.61,-30.69 590.19,-28.75 591.25,-35.67"/>
</a>
</g>
</g>
<!-- Node11&#45;&gt;Node4 -->
<g id="edge26_Node000011_Node000004" class="edge">
<title>Node11&#45;&gt;Node4</title>
<g id="a_edge26_Node000011_Node000004"><a xlink:title=" ">
<path fill="none" stroke="#63b8ff" d="M270.46,-67.56C322.56,-57.41 405.69,-41.22 463.79,-29.9"/>
<polygon fill="#63b8ff" stroke="#63b8ff" points="464.43,-33.34 473.58,-27.99 463.09,-26.47 464.43,-33.34"/>
</a>
</g>
</g>
<!-- Node11&#45;&gt;Node5 -->
<g id="edge27_Node000011_Node000005" class="edge">
<title>Node11&#45;&gt;Node5</title>
<g id="a_edge27_Node000011_Node000005"><a xlink:title=" ">
<path fill="none" stroke="#63b8ff" d="M290.42,-68.89C293.32,-68.58 296.19,-68.28 299,-68 486.28,-49.07 539.8,-83 721,-32 722.18,-31.67 723.36,-31.29 724.55,-30.88"/>
<polygon fill="#63b8ff" stroke="#63b8ff" points="725.74,-34.17 733.56,-27.02 722.99,-27.74 725.74,-34.17"/>
</a>
</g>
</g>
<!-- Node12&#45;&gt;Node3 -->
<g id="edge29_Node000012_Node000003" class="edge">
<title>Node12&#45;&gt;Node3</title>
<g id="a_edge29_Node000012_Node000003"><a xlink:title=" ">
<path fill="none" stroke="#63b8ff" d="M423.72,-67.58C465.52,-59.23 528.2,-46.48 591.13,-32.61"/>
<polygon fill="#63b8ff" stroke="#63b8ff" points="591.56,-36.09 600.57,-30.51 590.05,-29.26 591.56,-36.09"/>
</a>
</g>
</g>
<!-- Node12&#45;&gt;Node4 -->
<g id="edge30_Node000012_Node000004" class="edge">
<title>Node12&#45;&gt;Node4</title>
<g id="a_edge30_Node000012_Node000004"><a xlink:title=" ">
<path fill="none" stroke="#63b8ff" d="M400.06,-67.62C421.25,-59.37 452.81,-47.07 479.52,-36.67"/>
<polygon fill="#63b8ff" stroke="#63b8ff" points="480.78,-39.93 488.83,-33.04 478.24,-33.41 480.78,-39.93"/>
</a>
</g>
</g>
<!-- Node12&#45;&gt;Node5 -->
<g id="edge31_Node000012_Node000005" class="edge">
<title>Node12&#45;&gt;Node5</title>
<g id="a_edge31_Node000012_Node000005"><a xlink:title=" ">
<path fill="none" stroke="#63b8ff" d="M444.12,-68.7C540.88,-56.84 707.93,-36 721,-32 722.14,-31.65 723.29,-31.26 724.44,-30.84"/>
<polygon fill="#63b8ff" stroke="#63b8ff" points="725.42,-34.23 733.2,-27.04 722.64,-27.81 725.42,-34.23"/>
</a>
</g>
</g>
</g>
</svg>
