<?xml version="1.0" encoding="UTF-8" standalone="no"?>
<!DOCTYPE svg PUBLIC "-//W3C//DTD SVG 1.1//EN"
 "http://www.w3.org/Graphics/SVG/1.1/DTD/svg11.dtd">
<!-- Generated by graphviz version 16.1.0 (20260904.0139)
 -->
<!-- Title: Mutex.hpp Pages: 1 -->
<svg width="594pt" height="196pt"
 viewBox="0.00 0.00 594.00 196.00" xmlns="http://www.w3.org/2000/svg" xmlns:xlink="http://www.w3.org/1999/xlink">
<g id="graph0" class="graph" transform="scale(1 1) rotate(0) translate(4 192)">
<title>Mutex.hpp</title>
<!-- Node1 -->
<g id="Node000001" class="node">
<title>Node1</title>
<g id="a_Node000001"><a xlink:title="RAII wrapper for FreeRTOS mutex and recursive mutex synchronization primitives.">
<polygon fill="#999999" stroke="#666666" points="397,-188 335.25,-188 335.25,-168 397,-168 397,-188"/>
<text xml:space="preserve" text-anchor="middle" x="366.12" y="-174.5" font-family="Helvetica,sans-Serif" font-size="10.00">Mutex.hpp</text>
</a>
</g>
</g>
<!-- Node2 -->
<g id="Node000002" class="node">
<title>Node2</title>
<g id="a_Node000002"><a xlink:href="../../d4/d2a/a00632.html" target="_top" xlink:title="RAII&#45;based wrapper for FreeRTOS kernel control primitives.">
<polygon fill="white" stroke="#666666" points="228.38,-132 165.88,-132 165.88,-112 228.38,-112 228.38,-132"/>
<text xml:space="preserve" text-anchor="middle" x="197.12" y="-118.5" font-family="Helvetica,sans-Serif" font-size="10.00">Kernel.hpp</text>
</a>
</g>
</g>
<!-- Node1&#45;&gt;Node2 -->
<g id="edge1_Node000001_Node000002" class="edge">
<title>Node1&#45;&gt;Node2</title>
<g id="a_edge1_Node000001_Node000002"><a xlink:title=" ">
<path fill="none" stroke="#63b8ff" d="M336.69,-167.59C309.23,-158.82 268.03,-145.66 237.51,-135.9"/>
<polygon fill="#63b8ff" stroke="#63b8ff" points="238.82,-132.65 228.23,-132.94 236.69,-139.32 238.82,-132.65"/>
</a>
</g>
</g>
<!-- Node3 -->
<g id="Node000003" class="node">
<title>Node3</title>
<g id="a_Node000003"><a xlink:href="../../d8/d73/a00674.html" target="_top" xlink:title="FreeRTOS system tick counter utility providing type&#45;safe time conversions.">
<polygon fill="white" stroke="#666666" points="300.12,-76 212.12,-76 212.12,-56 300.12,-56 300.12,-76"/>
<text xml:space="preserve" text-anchor="middle" x="256.12" y="-62.5" font-family="Helvetica,sans-Serif" font-size="10.00">TickCounter.hpp</text>
</a>
</g>
</g>
<!-- Node1&#45;&gt;Node3 -->
<g id="edge15_Node000001_Node000003" class="edge">
<title>Node1&#45;&gt;Node3</title>
<g id="a_edge15_Node000001_Node000003"><a xlink:title=" ">
<path fill="none" stroke="#63b8ff" d="M356.75,-167.62C338.32,-149.19 297.13,-108.01 273.57,-84.44"/>
<polygon fill="#63b8ff" stroke="#63b8ff" points="276.1,-82.02 266.55,-77.43 271.15,-86.97 276.1,-82.02"/>
</a>
</g>
</g>
<!-- Node4 -->
<g id="Node000004" class="node">
<title>Node4</title>
<g id="a_Node000004"><a xlink:title=" ">
<polygon fill="#e0e0e0" stroke="#999999" points="48.25,-20 0,-20 0,0 48.25,0 48.25,-20"/>
<text xml:space="preserve" text-anchor="middle" x="24.12" y="-6.5" font-family="Helvetica,sans-Serif" font-size="10.00">cassert</text>
</a>
</g>
</g>
<!-- Node1&#45;&gt;Node4 -->
<g id="edge20_Node000001_Node000004" class="edge">
<title>Node1&#45;&gt;Node4</title>
<g id="a_edge20_Node000001_Node000004"><a xlink:title=" ">
<path fill="none" stroke="#63b8ff" d="M335.14,-176.78C271.57,-174.55 125.98,-159.99 50.12,-76 38.78,-63.44 32.09,-45.32 28.34,-31.4"/>
<polygon fill="#63b8ff" stroke="#63b8ff" points="31.82,-30.89 26.11,-21.97 25,-32.5 31.82,-30.89"/>
</a>
</g>
</g>
<!-- Node5 -->
<g id="Node000005" class="node">
<title>Node5</title>
<g id="a_Node000005"><a xlink:title=" ">
<polygon fill="#e0e0e0" stroke="#999999" points="356.75,-20 311.5,-20 311.5,0 356.75,0 356.75,-20"/>
<text xml:space="preserve" text-anchor="middle" x="334.12" y="-6.5" font-family="Helvetica,sans-Serif" font-size="10.00">chrono</text>
</a>
</g>
</g>
<!-- Node1&#45;&gt;Node5 -->
<g id="edge21_Node000001_Node000005" class="edge">
<title>Node1&#45;&gt;Node5</title>
<g id="a_edge21_Node000001_Node000005"><a xlink:title=" ">
<path fill="none" stroke="#63b8ff" d="M379.75,-167.73C390.27,-159.68 404.02,-146.97 410.12,-132 413.48,-123.77 412.94,-120.43 410.12,-112 398.84,-78.22 371.31,-46.68 352.68,-28.11"/>
<polygon fill="#63b8ff" stroke="#63b8ff" points="355.31,-25.79 345.68,-21.36 350.45,-30.82 355.31,-25.79"/>
</a>
</g>
</g>
<!-- Node6 -->
<g id="Node000006" class="node">
<title>Node6</title>
<g id="a_Node000006"><a xlink:title=" ">
<polygon fill="#e0e0e0" stroke="#999999" points="445.75,-20 400.5,-20 400.5,0 445.75,0 445.75,-20"/>
<text xml:space="preserve" text-anchor="middle" x="423.12" y="-6.5" font-family="Helvetica,sans-Serif" font-size="10.00">cstdint</text>
</a>
</g>
</g>
<!-- Node1&#45;&gt;Node6 -->
<g id="edge22_Node000001_Node000006" class="edge">
<title>Node1&#45;&gt;Node6</title>
<g id="a_edge22_Node000001_Node000006"><a xlink:title=" ">
<path fill="none" stroke="#63b8ff" d="M386.56,-167.61C400.23,-160.11 417.12,-148.16 425.12,-132 441.07,-99.78 434.81,-56.58 428.9,-31.47"/>
<polygon fill="#63b8ff" stroke="#63b8ff" points="432.32,-30.7 426.43,-21.9 425.54,-32.45 432.32,-30.7"/>
</a>
</g>
</g>
<!-- Node12 -->
<g id="Node000012" class="node">
<title>Node12</title>
<g id="a_Node000012"><a xlink:href="../../dc/de4/a00677.html" target="_top" xlink:title="FreeRTOS&#45;compatible timeout management utility.">
<polygon fill="white" stroke="#666666" points="401.12,-132 331.12,-132 331.12,-112 401.12,-112 401.12,-132"/>
<text xml:space="preserve" text-anchor="middle" x="366.12" y="-118.5" font-family="Helvetica,sans-Serif" font-size="10.00">Timeout.hpp</text>
</a>
</g>
</g>
<!-- Node1&#45;&gt;Node12 -->
<g id="edge16_Node000001_Node000012" class="edge">
<title>Node1&#45;&gt;Node12</title>
<g id="a_edge16_Node000001_Node000012"><a xlink:title=" ">
<path fill="none" stroke="#63b8ff" d="M366.12,-167.59C366.12,-161.01 366.12,-151.96 366.12,-143.73"/>
<polygon fill="#63b8ff" stroke="#63b8ff" points="369.63,-143.81 366.13,-133.81 362.63,-143.81 369.63,-143.81"/>
</a>
</g>
</g>
<!-- Node13 -->
<g id="Node000013" class="node">
<title>Node13</title>
<g id="a_Node000013"><a xlink:title=" ">
<polygon fill="#e0e0e0" stroke="#999999" points="585.75,-132 546.5,-132 546.5,-112 585.75,-112 585.75,-132"/>
<text xml:space="preserve" text-anchor="middle" x="566.12" y="-118.5" font-family="Helvetica,sans-Serif" font-size="10.00">utility</text>
</a>
</g>
</g>
<!-- Node1&#45;&gt;Node13 -->
<g id="edge23_Node000001_Node000013" class="edge">
<title>Node1&#45;&gt;Node13</title>
<g id="a_edge23_Node000001_Node000013"><a xlink:title=" ">
<path fill="none" stroke="#63b8ff" d="M397.38,-168.56C435.01,-158.4 497.83,-141.44 535.28,-131.33"/>
<polygon fill="#63b8ff" stroke="#63b8ff" points="535.83,-134.81 544.57,-128.82 534,-128.05 535.83,-134.81"/>
</a>
</g>
</g>
<!-- Node2&#45;&gt;Node3 -->
<g id="edge2_Node000002_Node000003" class="edge">
<title>Node2&#45;&gt;Node3</title>
<g id="a_edge2_Node000002_Node000003"><a xlink:title=" ">
<path fill="none" stroke="#63b8ff" d="M207.4,-111.59C215.69,-104.01 227.57,-93.13 237.53,-84.02"/>
<polygon fill="#63b8ff" stroke="#63b8ff" points="239.84,-86.65 244.85,-77.32 235.11,-81.49 239.84,-86.65"/>
</a>
</g>
</g>
<!-- Node2&#45;&gt;Node4 -->
<g id="edge9_Node000002_Node000004" class="edge">
<title>Node2&#45;&gt;Node4</title>
<g id="a_edge9_Node000002_Node000004"><a xlink:title=" ">
<path fill="none" stroke="#63b8ff" d="M165.43,-114.81C138.83,-108.44 100.84,-96.49 73.12,-76 56.64,-63.82 43.11,-44.58 34.47,-30.18"/>
<polygon fill="#63b8ff" stroke="#63b8ff" points="37.6,-28.59 29.6,-21.64 31.51,-32.06 37.6,-28.59"/>
</a>
</g>
</g>
<!-- Node2&#45;&gt;Node5 -->
<g id="edge10_Node000002_Node000005" class="edge">
<title>Node2&#45;&gt;Node5</title>
<g id="a_edge10_Node000002_Node000005"><a xlink:title=" ">
<path fill="none" stroke="#63b8ff" d="M228.74,-115.47C253.56,-109.6 287.43,-98.02 309.12,-76 321.07,-63.88 327.44,-45.43 330.75,-31.28"/>
<polygon fill="#63b8ff" stroke="#63b8ff" points="334.14,-32.2 332.64,-21.71 327.27,-30.84 334.14,-32.2"/>
</a>
</g>
</g>
<!-- Node2&#45;&gt;Node6 -->
<g id="edge12_Node000002_Node000006" class="edge">
<title>Node2&#45;&gt;Node6</title>
<g id="a_edge12_Node000002_Node000006"><a xlink:title=" ">
<path fill="none" stroke="#63b8ff" d="M228.78,-112.88C256.15,-105.24 296.37,-92.51 329.12,-76 356.31,-62.3 384.67,-41.68 403.04,-27.35"/>
<polygon fill="#63b8ff" stroke="#63b8ff" points="405.06,-30.21 410.72,-21.25 400.71,-24.72 405.06,-30.21"/>
</a>
</g>
</g>
<!-- Node9 -->
<g id="Node000009" class="node">
<title>Node9</title>
<g id="a_Node000009"><a xlink:title=" ">
<polygon fill="#e0e0e0" stroke="#999999" points="153,-20 91.25,-20 91.25,0 153,0 153,-20"/>
<text xml:space="preserve" text-anchor="middle" x="122.12" y="-6.5" font-family="Helvetica,sans-Serif" font-size="10.00">type_traits</text>
</a>
</g>
</g>
<!-- Node2&#45;&gt;Node9 -->
<g id="edge14_Node000002_Node000009" class="edge">
<title>Node2&#45;&gt;Node9</title>
<g id="a_edge14_Node000002_Node000009"><a xlink:title=" ">
<path fill="none" stroke="#63b8ff" d="M165.5,-118.33C138.08,-114.16 99.92,-103.45 81.12,-76 70.04,-59.8 85.23,-40.75 100.17,-27.48"/>
<polygon fill="#63b8ff" stroke="#63b8ff" points="102.09,-30.43 107.56,-21.36 97.63,-25.04 102.09,-30.43"/>
</a>
</g>
</g>
<!-- Node10 -->
<g id="Node000010" class="node">
<title>Node10</title>
<g id="a_Node000010"><a xlink:title=" ">
<polygon fill="#e0e0e0" stroke="#999999" points="138.25,-76 90,-76 90,-56 138.25,-56 138.25,-76"/>
<text xml:space="preserve" text-anchor="middle" x="114.12" y="-62.5" font-family="Helvetica,sans-Serif" font-size="10.00">cstddef</text>
</a>
</g>
</g>
<!-- Node2&#45;&gt;Node10 -->
<g id="edge11_Node000002_Node000010" class="edge">
<title>Node2&#45;&gt;Node10</title>
<g id="a_edge11_Node000002_Node000010"><a xlink:title=" ">
<path fill="none" stroke="#63b8ff" d="M182.67,-111.59C170.37,-103.59 152.45,-91.93 138.02,-82.54"/>
<polygon fill="#63b8ff" stroke="#63b8ff" points="140.25,-79.82 129.96,-77.3 136.44,-85.69 140.25,-79.82"/>
</a>
</g>
</g>
<!-- Node11 -->
<g id="Node000011" class="node">
<title>Node11</title>
<g id="a_Node000011"><a xlink:title=" ">
<polygon fill="#e0e0e0" stroke="#999999" points="193.62,-76 156.62,-76 156.62,-56 193.62,-56 193.62,-76"/>
<text xml:space="preserve" text-anchor="middle" x="175.12" y="-62.5" font-family="Helvetica,sans-Serif" font-size="10.00">span</text>
</a>
</g>
</g>
<!-- Node2&#45;&gt;Node11 -->
<g id="edge13_Node000002_Node000011" class="edge">
<title>Node2&#45;&gt;Node11</title>
<g id="a_edge13_Node000002_Node000011"><a xlink:title=" ">
<path fill="none" stroke="#63b8ff" d="M193.29,-111.59C190.52,-104.78 186.66,-95.32 183.22,-86.86"/>
<polygon fill="#63b8ff" stroke="#63b8ff" points="186.5,-85.64 179.48,-77.7 180.02,-88.28 186.5,-85.64"/>
</a>
</g>
</g>
<!-- Node3&#45;&gt;Node4 -->
<g id="edge3_Node000003_Node000004" class="edge">
<title>Node3&#45;&gt;Node4</title>
<g id="a_edge3_Node000003_Node000004"><a xlink:title=" ">
<path fill="none" stroke="#63b8ff" d="M215.45,-55.53C171.38,-45.27 101.75,-29.07 59.76,-19.29"/>
<polygon fill="#63b8ff" stroke="#63b8ff" points="60.7,-15.92 50.17,-17.06 59.11,-22.74 60.7,-15.92"/>
</a>
</g>
</g>
<!-- Node3&#45;&gt;Node5 -->
<g id="edge4_Node000003_Node000005" class="edge">
<title>Node3&#45;&gt;Node5</title>
<g id="a_edge4_Node000003_Node000005"><a xlink:title=" ">
<path fill="none" stroke="#63b8ff" d="M269.71,-55.59C281.16,-47.67 297.79,-36.16 311.28,-26.82"/>
<polygon fill="#63b8ff" stroke="#63b8ff" points="312.96,-29.91 319.19,-21.34 308.97,-24.16 312.96,-29.91"/>
</a>
</g>
</g>
<!-- Node3&#45;&gt;Node6 -->
<g id="edge5_Node000003_Node000006" class="edge">
<title>Node3&#45;&gt;Node6</title>
<g id="a_edge5_Node000003_Node000006"><a xlink:title=" ">
<path fill="none" stroke="#63b8ff" d="M285.21,-55.59C314.26,-46.2 358.87,-31.78 389.44,-21.89"/>
<polygon fill="#63b8ff" stroke="#63b8ff" points="390.13,-25.35 398.57,-18.94 387.98,-18.69 390.13,-25.35"/>
</a>
</g>
</g>
<!-- Node7 -->
<g id="Node000007" class="node">
<title>Node7</title>
<g id="a_Node000007"><a xlink:title=" ">
<polygon fill="#e0e0e0" stroke="#999999" points="227.75,-20 188.5,-20 188.5,0 227.75,0 227.75,-20"/>
<text xml:space="preserve" text-anchor="middle" x="208.12" y="-6.5" font-family="Helvetica,sans-Serif" font-size="10.00">limits</text>
</a>
</g>
</g>
<!-- Node3&#45;&gt;Node7 -->
<g id="edge6_Node000003_Node000007" class="edge">
<title>Node3&#45;&gt;Node7</title>
<g id="a_edge6_Node000003_Node000007"><a xlink:title=" ">
<path fill="none" stroke="#63b8ff" d="M247.76,-55.59C241.23,-48.24 231.94,-37.8 224.01,-28.87"/>
<polygon fill="#63b8ff" stroke="#63b8ff" points="226.66,-26.58 217.4,-21.43 221.42,-31.23 226.66,-26.58"/>
</a>
</g>
</g>
<!-- Node8 -->
<g id="Node000008" class="node">
<title>Node8</title>
<g id="a_Node000008"><a xlink:title=" ">
<polygon fill="#e0e0e0" stroke="#999999" points="280.5,-20 245.75,-20 245.75,0 280.5,0 280.5,-20"/>
<text xml:space="preserve" text-anchor="middle" x="263.12" y="-6.5" font-family="Helvetica,sans-Serif" font-size="10.00">ratio</text>
</a>
</g>
</g>
<!-- Node3&#45;&gt;Node8 -->
<g id="edge7_Node000003_Node000008" class="edge">
<title>Node3&#45;&gt;Node8</title>
<g id="a_edge7_Node000003_Node000008"><a xlink:title=" ">
<path fill="none" stroke="#63b8ff" d="M257.34,-55.59C258.21,-48.93 259.4,-39.75 260.48,-31.44"/>
<polygon fill="#63b8ff" stroke="#63b8ff" points="263.91,-32.17 261.73,-21.8 256.97,-31.27 263.91,-32.17"/>
</a>
</g>
</g>
<!-- Node3&#45;&gt;Node9 -->
<g id="edge8_Node000003_Node000009" class="edge">
<title>Node3&#45;&gt;Node9</title>
<g id="a_edge8_Node000003_Node000009"><a xlink:title=" ">
<path fill="none" stroke="#63b8ff" d="M232.78,-55.59C211.59,-47.05 180.06,-34.35 156.07,-24.68"/>
<polygon fill="#63b8ff" stroke="#63b8ff" points="157.64,-21.54 147.05,-21.05 155.02,-28.03 157.64,-21.54"/>
</a>
</g>
</g>
<!-- Node12&#45;&gt;Node3 -->
<g id="edge17_Node000012_Node000003" class="edge">
<title>Node12&#45;&gt;Node3</title>
<g id="a_edge17_Node000012_Node000003"><a xlink:title=" ">
<path fill="none" stroke="#63b8ff" d="M346.96,-111.59C330.03,-103.28 305.08,-91.03 285.6,-81.47"/>
<polygon fill="#63b8ff" stroke="#63b8ff" points="287.31,-78.41 276.79,-77.15 284.23,-84.7 287.31,-78.41"/>
</a>
</g>
</g>
<!-- Node12&#45;&gt;Node5 -->
<g id="edge18_Node000012_Node000005" class="edge">
<title>Node12&#45;&gt;Node5</title>
<g id="a_edge18_Node000012_Node000005"><a xlink:title=" ">
<path fill="none" stroke="#63b8ff" d="M363.4,-111.62C358.25,-93.92 346.99,-55.24 340.04,-31.32"/>
<polygon fill="#63b8ff" stroke="#63b8ff" points="343.42,-30.43 337.27,-21.81 336.7,-32.39 343.42,-30.43"/>
</a>
</g>
</g>
<!-- Node12&#45;&gt;Node6 -->
<g id="edge19_Node000012_Node000006" class="edge">
<title>Node12&#45;&gt;Node6</title>
<g id="a_edge19_Node000012_Node000006"><a xlink:title=" ">
<path fill="none" stroke="#63b8ff" d="M382.83,-111.51C394.9,-103.67 410.38,-91.35 418.12,-76 425,-62.37 426.02,-45.06 425.44,-31.73"/>
<polygon fill="#63b8ff" stroke="#63b8ff" points="428.94,-31.62 424.66,-21.92 421.97,-32.17 428.94,-31.62"/>
</a>
</g>
</g>
</g>
</svg>
