<?xml version="1.0" encoding="UTF-8" standalone="no"?>
<!DOCTYPE svg PUBLIC "-//W3C//DTD SVG 1.1//EN"
 "http://www.w3.org/Graphics/SVG/1.1/DTD/svg11.dtd">
<!-- Generated by graphviz version 10.0.1 (20240210.2158)
 -->
<!-- Title: ApiMode.hpp Pages: 1 -->
<svg width="196pt" height="140pt"
 viewBox="0.00 0.00 196.25 140.00" xmlns="http://www.w3.org/2000/svg" xmlns:xlink="http://www.w3.org/1999/xlink">
<g id="graph0" class="graph" transform="scale(1 1) rotate(0) translate(4 136)">
<title>ApiMode.hpp</title>
<!-- Node1 -->
<g id="Node000001" class="node">
<title>Node1</title>
<g id="a_Node000001"><a xlink:title="Defines the ApiMode enumeration for Xbee communication modes.">
<polygon fill="#999999" stroke="#666666" points="134.25,-132 61.25,-132 61.25,-112 134.25,-112 134.25,-132"/>
<text text-anchor="middle" x="97.75" y="-118.5" font-family="Helvetica,sans-Serif" font-size="10.00">ApiMode.hpp</text>
</a>
</g>
</g>
<!-- Node2 -->
<g id="Node000002" class="node">
<title>Node2</title>
<g id="a_Node000002"><a xlink:href="../../d9/db6/a00146.html" target="_top" xlink:title="Header file for the EscapedCode class used in the Xbee library.">
<polygon fill="white" stroke="#666666" points="95.5,-76 0,-76 0,-56 95.5,-56 95.5,-76"/>
<text text-anchor="middle" x="47.75" y="-62.5" font-family="Helvetica,sans-Serif" font-size="10.00">EscapedCode.hpp</text>
</a>
</g>
</g>
<!-- Node1&#45;&gt;Node2 -->
<g id="edge1_Node000001_Node000002" class="edge">
<title>Node1&#45;&gt;Node2</title>
<g id="a_edge1_Node000001_Node000002"><a xlink:title=" ">
<path fill="none" stroke="#63b8ff" d="M81.35,-103.29C73.01,-94.28 63.21,-83.7 56.36,-76.3"/>
<polygon fill="#63b8ff" stroke="#63b8ff" points="78.65,-105.52 88.01,-110.48 83.79,-100.77 78.65,-105.52"/>
</a>
</g>
</g>
<!-- Node3 -->
<g id="Node000003" class="node">
<title>Node3</title>
<g id="a_Node000003"><a xlink:href="../../d7/d3f/a00173.html" target="_top" xlink:title="This file contains the definition of the Protocol class used for handling XBee communication.">
<polygon fill="white" stroke="#666666" points="184.12,-76 113.38,-76 113.38,-56 184.12,-56 184.12,-76"/>
<text text-anchor="middle" x="148.75" y="-62.5" font-family="Helvetica,sans-Serif" font-size="10.00">Protocol.hpp</text>
</a>
</g>
</g>
<!-- Node1&#45;&gt;Node3 -->
<g id="edge2_Node000001_Node000003" class="edge">
<title>Node1&#45;&gt;Node3</title>
<g id="a_edge2_Node000001_Node000003"><a xlink:title=" ">
<path fill="none" stroke="#63b8ff" d="M114.48,-103.29C122.99,-94.28 132.98,-83.7 139.97,-76.3"/>
<polygon fill="#63b8ff" stroke="#63b8ff" points="111.99,-100.82 107.67,-110.49 117.08,-105.63 111.99,-100.82"/>
</a>
</g>
</g>
<!-- Node4 -->
<g id="Node000004" class="node">
<title>Node4</title>
<g id="a_Node000004"><a xlink:href="../../de/d76/a00134.html" target="_top" xlink:title="Defines the ComDriver class for handling communication with the XBee module.">
<polygon fill="white" stroke="#666666" points="188.25,-20 109.25,-20 109.25,0 188.25,0 188.25,-20"/>
<text text-anchor="middle" x="148.75" y="-6.5" font-family="Helvetica,sans-Serif" font-size="10.00">ComDriver.hpp</text>
</a>
</g>
</g>
<!-- Node3&#45;&gt;Node4 -->
<g id="edge3_Node000003_Node000004" class="edge">
<title>Node3&#45;&gt;Node4</title>
<g id="a_edge3_Node000003_Node000004"><a xlink:title=" ">
<path fill="none" stroke="#63b8ff" d="M148.75,-44.13C148.75,-35.9 148.75,-26.85 148.75,-20.3"/>
<polygon fill="#63b8ff" stroke="#63b8ff" points="145.25,-44.08 148.75,-54.08 152.25,-44.08 145.25,-44.08"/>
</a>
</g>
</g>
</g>
</svg>
