<?xml version="1.0" encoding="UTF-8" standalone="no"?>
<!DOCTYPE svg PUBLIC "-//W3C//DTD SVG 1.1//EN"
 "http://www.w3.org/Graphics/SVG/1.1/DTD/svg11.dtd">
<!-- Generated by graphviz version 13.1.0 (20250701.0955)
 -->
<!-- Title: Lib::Xbee::API::Service::Parameters::Impl::NewData Pages: 1 -->
<svg width="132pt" height="110pt"
 viewBox="0.00 0.00 132.00 110.00" xmlns="http://www.w3.org/2000/svg" xmlns:xlink="http://www.w3.org/1999/xlink">
<g id="graph0" class="graph" transform="scale(1 1) rotate(0) translate(4 105.5)">
<title>Lib::Xbee::API::Service::Parameters::Impl::NewData</title>
<!-- Node1 -->
<g id="Node000001" class="node">
<title>Node1</title>
<g id="a_Node000001"><a xlink:title="Structure for new parameter values to be written.">
<polygon fill="#999999" stroke="none" points="124.25,-101.5 0,-101.5 0,0 124.25,0 124.25,-101.5"/>
<text xml:space="preserve" text-anchor="start" x="4" y="-88.95" font-family="Arial" font-size="9.00">Lib::Xbee::API::Service</text>
<text xml:space="preserve" text-anchor="start" x="4" y="-78.45" font-family="Arial" font-size="9.00">::Parameters::Impl::NewData</text>
<text xml:space="preserve" text-anchor="start" x="5.62" y="-63.95" font-family="Arial" font-size="9.00">+</text>
<text xml:space="preserve" text-anchor="start" x="16.5" y="-63.95" font-family="Arial" font-size="9.00">uint16_t panId</text>
<text xml:space="preserve" text-anchor="start" x="5.62" y="-49.45" font-family="Arial" font-size="9.00">+</text>
<text xml:space="preserve" text-anchor="start" x="16.5" y="-49.45" font-family="Arial" font-size="9.00">uint8_t channel</text>
<text xml:space="preserve" text-anchor="start" x="5.62" y="-34.95" font-family="Arial" font-size="9.00">+</text>
<text xml:space="preserve" text-anchor="start" x="16.5" y="-34.95" font-family="Arial" font-size="9.00">bool isChannelChanged</text>
<text xml:space="preserve" text-anchor="start" x="5.62" y="-20.45" font-family="Arial" font-size="9.00">+</text>
<text xml:space="preserve" text-anchor="start" x="16.5" y="-20.45" font-family="Arial" font-size="9.00">bool isPanIdChanged</text>
<text xml:space="preserve" text-anchor="start" x="61" y="-5.95" font-family="Arial" font-size="9.00"> </text>
<polygon fill="#666666" stroke="#666666" points="0,-74.5 0,-74.5 124.25,-74.5 124.25,-74.5 0,-74.5"/>
<polygon fill="#666666" stroke="#666666" points="0,-16.5 0,-16.5 14.5,-16.5 14.5,-16.5 0,-16.5"/>
<polygon fill="#666666" stroke="#666666" points="14.5,-16.5 14.5,-16.5 124.25,-16.5 124.25,-16.5 14.5,-16.5"/>
<polygon fill="none" stroke="#666666" points="0,0 0,-101.5 124.25,-101.5 124.25,0 0,0"/>
</a>
</g>
</g>
</g>
</svg>
