<?xml version="1.0" encoding="UTF-8" standalone="no"?>
<!DOCTYPE svg PUBLIC "-//W3C//DTD SVG 1.1//EN"
 "http://www.w3.org/Graphics/SVG/1.1/DTD/svg11.dtd">
<!-- Generated by graphviz version 13.1.0 (20250701.0955)
 -->
<!-- Title: Lib::BSP::Display::Driver&lt; Controller::ILI9341 &gt;::Config Pages: 1 -->
<svg width="177pt" height="120pt"
 viewBox="0.00 0.00 177.00 120.00" xmlns="http://www.w3.org/2000/svg" xmlns:xlink="http://www.w3.org/1999/xlink">
<g id="graph0" class="graph" transform="scale(1 1) rotate(0) translate(4 116)">
<title>Lib::BSP::Display::Driver&lt; Controller::ILI9341 &gt;::Config</title>
<!-- Node1 -->
<g id="Node000001" class="node">
<title>Node1</title>
<g id="a_Node000001"><a xlink:title="Configuration structure for ILI9341 driver.">
<polygon fill="#999999" stroke="none" points="169.25,-112 0,-112 0,0 169.25,0 169.25,-112"/>
<text xml:space="preserve" text-anchor="start" x="4" y="-98.5" font-family="Helvetica,sans-Serif" font-size="10.00">Lib::BSP::Display::Driver&lt; Controller</text>
<text xml:space="preserve" text-anchor="start" x="43.75" y="-86.5" font-family="Helvetica,sans-Serif" font-size="10.00">::ILI9341 &gt;::Config</text>
<text xml:space="preserve" text-anchor="start" x="35.44" y="-70.5" font-family="Helvetica,sans-Serif" font-size="10.00">+</text>
<text xml:space="preserve" text-anchor="start" x="76.88" y="-70.5" font-family="Helvetica,sans-Serif" font-size="10.00">spi</text>
<text xml:space="preserve" text-anchor="start" x="35.44" y="-54.5" font-family="Helvetica,sans-Serif" font-size="10.00">+</text>
<text xml:space="preserve" text-anchor="start" x="76.88" y="-54.5" font-family="Helvetica,sans-Serif" font-size="10.00">dcPin</text>
<text xml:space="preserve" text-anchor="start" x="35.44" y="-38.5" font-family="Helvetica,sans-Serif" font-size="10.00">+</text>
<text xml:space="preserve" text-anchor="start" x="76.88" y="-38.5" font-family="Helvetica,sans-Serif" font-size="10.00">csPin</text>
<text xml:space="preserve" text-anchor="start" x="35.44" y="-22.5" font-family="Helvetica,sans-Serif" font-size="10.00">+</text>
<text xml:space="preserve" text-anchor="start" x="76.88" y="-22.5" font-family="Helvetica,sans-Serif" font-size="10.00">rstPin</text>
<text xml:space="preserve" text-anchor="start" x="83.12" y="-6.5" font-family="Helvetica,sans-Serif" font-size="10.00"> </text>
<polygon fill="#666666" stroke="#666666" points="0,-82 0,-82 169.25,-82 169.25,-82 0,-82"/>
<polygon fill="#666666" stroke="#666666" points="0,-18 0,-18 74.88,-18 74.88,-18 0,-18"/>
<polygon fill="#666666" stroke="#666666" points="74.88,-18 74.88,-18 169.25,-18 169.25,-18 74.88,-18"/>
<polygon fill="none" stroke="#666666" points="0,0 0,-112 169.25,-112 169.25,0 0,0"/>
</a>
</g>
</g>
</g>
</svg>
