<?xml version="1.0" encoding="UTF-8" standalone="no"?>
<!DOCTYPE svg PUBLIC "-//W3C//DTD SVG 1.1//EN"
 "http://www.w3.org/Graphics/SVG/1.1/DTD/svg11.dtd">
<!-- Generated by graphviz version 12.2.1 (20241206.2353)
 -->
<!-- Title: Lib::Digi::Core::Frame0x97 Pages: 1 -->
<svg width="134pt" height="240pt"
 viewBox="0.00 0.00 133.75 240.00" xmlns="http://www.w3.org/2000/svg" xmlns:xlink="http://www.w3.org/1999/xlink">
<g id="graph0" class="graph" transform="scale(1 1) rotate(0) translate(4 236)">
<title>Lib::Digi::Core::Frame0x97</title>
<!-- Node1 -->
<g id="Node000001" class="node">
<title>Node1</title>
<g id="a_Node000001"><a xlink:title="Represents a response frame with ID 0x97 from an XBee device.">
<polygon fill="#999999" stroke="none" points="125.75,-132 0,-132 0,0 125.75,0 125.75,-132"/>
<text text-anchor="start" x="4" y="-118.5" font-family="Helvetica,sans-Serif" font-size="10.00">Lib::Digi::Core::Frame0x97</text>
<text text-anchor="start" x="15.75" y="-102.5" font-family="Helvetica,sans-Serif" font-size="10.00">+</text>
<text text-anchor="start" x="37.5" y="-102.5" font-family="Helvetica,sans-Serif" font-size="10.00">frameId</text>
<text text-anchor="start" x="15.75" y="-86.5" font-family="Helvetica,sans-Serif" font-size="10.00">+</text>
<text text-anchor="start" x="37.5" y="-86.5" font-family="Helvetica,sans-Serif" font-size="10.00">dstAddr64</text>
<text text-anchor="start" x="15.75" y="-70.5" font-family="Helvetica,sans-Serif" font-size="10.00">+</text>
<text text-anchor="start" x="37.5" y="-70.5" font-family="Helvetica,sans-Serif" font-size="10.00">dstAddr16</text>
<text text-anchor="start" x="15.75" y="-54.5" font-family="Helvetica,sans-Serif" font-size="10.00">+</text>
<text text-anchor="start" x="37.5" y="-54.5" font-family="Helvetica,sans-Serif" font-size="10.00">atCmd</text>
<text text-anchor="start" x="15.75" y="-38.5" font-family="Helvetica,sans-Serif" font-size="10.00">+</text>
<text text-anchor="start" x="37.5" y="-38.5" font-family="Helvetica,sans-Serif" font-size="10.00">status</text>
<text text-anchor="start" x="15.75" y="-22.5" font-family="Helvetica,sans-Serif" font-size="10.00">+</text>
<text text-anchor="start" x="37.5" y="-22.5" font-family="Helvetica,sans-Serif" font-size="10.00">Frame0x97()</text>
<text text-anchor="start" x="15.75" y="-6.5" font-family="Helvetica,sans-Serif" font-size="10.00">+</text>
<text text-anchor="start" x="37.5" y="-6.5" font-family="Helvetica,sans-Serif" font-size="10.00">~Frame0x97()</text>
<polygon fill="#666666" stroke="#666666" points="0,-114 0,-114 125.75,-114 125.75,-114 0,-114"/>
<polygon fill="#666666" stroke="#666666" points="0,-34 0,-34 35.5,-34 35.5,-34 0,-34"/>
<polygon fill="#666666" stroke="#666666" points="35.5,-34 35.5,-34 125.75,-34 125.75,-34 35.5,-34"/>
<polygon fill="none" stroke="#666666" points="0,0 0,-132 125.75,-132 125.75,0 0,0"/>
</a>
</g>
</g>
<!-- Node2 -->
<g id="Node000002" class="node">
<title>Node2</title>
<g id="a_Node000002"><a xlink:title=" ">
<polygon fill="white" stroke="none" points="113.75,-232 12,-232 12,-180 113.75,-180 113.75,-232"/>
<text text-anchor="start" x="16" y="-218.5" font-family="Helvetica,sans-Serif" font-size="10.00">std::vector&lt; uint8_t &gt;</text>
<text text-anchor="start" x="27" y="-202.5" font-family="Helvetica,sans-Serif" font-size="10.00">+</text>
<text text-anchor="start" x="48" y="-202.5" font-family="Helvetica,sans-Serif" font-size="10.00">elements</text>
<text text-anchor="start" x="61.38" y="-186.5" font-family="Helvetica,sans-Serif" font-size="10.00"> </text>
<polygon fill="#666666" stroke="#666666" points="12,-214 12,-214 113.75,-214 113.75,-214 12,-214"/>
<polygon fill="#666666" stroke="#666666" points="12,-198 12,-198 46,-198 46,-198 12,-198"/>
<polygon fill="#666666" stroke="#666666" points="46,-198 46,-198 113.75,-198 113.75,-198 46,-198"/>
<polygon fill="none" stroke="#666666" points="12,-180 12,-232 113.75,-232 113.75,-180 12,-180"/>
</a>
</g>
</g>
<!-- Node2&#45;&gt;Node1 -->
<g id="edge1_Node000001_Node000002" class="edge">
<title>Node2&#45;&gt;Node1</title>
<g id="a_edge1_Node000001_Node000002"><a xlink:title=" ">
<path fill="none" stroke="#63b8ff" d="M62.88,-180.01C62.88,-169.81 62.88,-157.42 62.88,-144.62"/>
<polygon fill="none" stroke="#63b8ff" points="62.88,-144.66 58.88,-138.66 62.88,-132.66 66.88,-138.66 62.88,-144.66"/>
</a>
</g>
<text text-anchor="middle" x="91.75" y="-152.5" font-family="Helvetica,sans-Serif" font-size="10.00" fill="grey"> +parameters</text>
</g>
</g>
</svg>
