<?xml version="1.0" encoding="UTF-8" standalone="no"?>
<!DOCTYPE svg PUBLIC "-//W3C//DTD SVG 1.1//EN"
 "http://www.w3.org/Graphics/SVG/1.1/DTD/svg11.dtd">
<!-- Generated by graphviz version 12.2.1 (20241206.2353)
 -->
<!-- Title: QueryBase.hpp Pages: 1 -->
<svg width="376pt" height="140pt"
 viewBox="0.00 0.00 376.38 140.00" xmlns="http://www.w3.org/2000/svg" xmlns:xlink="http://www.w3.org/1999/xlink">
<g id="graph0" class="graph" transform="scale(1 1) rotate(0) translate(4 136)">
<title>QueryBase.hpp</title>
<!-- Node1 -->
<g id="Node000001" class="node">
<title>Node1</title>
<g id="a_Node000001"><a xlink:title="Defines the base class for all query types in the Xbee library.">
<polygon fill="#999999" stroke="#666666" points="158.12,-132 74.62,-132 74.62,-112 158.12,-112 158.12,-132"/>
<text text-anchor="middle" x="116.38" y="-118.5" font-family="Helvetica,sans-Serif" font-size="10.00">QueryBase.hpp</text>
</a>
</g>
</g>
<!-- Node2 -->
<g id="Node000002" class="node">
<title>Node2</title>
<g id="a_Node000002"><a xlink:href="../../d5/de9/a00176.html" target="_top" xlink:title="Defines the Frame0x08 class for handling Local AT Command Request frames.">
<polygon fill="white" stroke="#666666" points="112.12,-76 28.62,-76 28.62,-56 112.12,-56 112.12,-76"/>
<text text-anchor="middle" x="70.38" y="-62.5" font-family="Helvetica,sans-Serif" font-size="10.00">Frame0x08.hpp</text>
</a>
</g>
</g>
<!-- Node1&#45;&gt;Node2 -->
<g id="edge1_Node000001_Node000002" class="edge">
<title>Node1&#45;&gt;Node2</title>
<g id="a_edge1_Node000001_Node000002"><a xlink:title=" ">
<path fill="none" stroke="#63b8ff" d="M101.04,-103C93.42,-94.06 84.54,-83.62 78.3,-76.3"/>
<polygon fill="#63b8ff" stroke="#63b8ff" points="98.23,-105.1 107.38,-110.44 103.56,-100.56 98.23,-105.1"/>
</a>
</g>
</g>
<!-- Node4 -->
<g id="Node000004" class="node">
<title>Node4</title>
<g id="a_Node000004"><a xlink:href="../../db/ddf/a00164.html" target="_top" xlink:title="This file contains the definition of the Module class, which is part of the Lib::Xbee::Core namespace...">
<polygon fill="white" stroke="#666666" points="203.5,-76 137.25,-76 137.25,-56 203.5,-56 203.5,-76"/>
<text text-anchor="middle" x="170.38" y="-62.5" font-family="Helvetica,sans-Serif" font-size="10.00">Module.hpp</text>
</a>
</g>
</g>
<!-- Node1&#45;&gt;Node4 -->
<g id="edge3_Node000001_Node000004" class="edge">
<title>Node1&#45;&gt;Node4</title>
<g id="a_edge3_Node000001_Node000004"><a xlink:title=" ">
<path fill="none" stroke="#63b8ff" d="M133.81,-103.57C142.88,-94.5 153.6,-83.78 161.08,-76.3"/>
<polygon fill="#63b8ff" stroke="#63b8ff" points="131.45,-100.98 126.85,-110.52 136.4,-105.93 131.45,-100.98"/>
</a>
</g>
</g>
<!-- Node3 -->
<g id="Node000003" class="node">
<title>Node3</title>
<g id="a_Node000003"><a xlink:href="../../d3/df8/a00155.html" target="_top" xlink:title="This file contains the definition of the LocalAtCommand class, which is used to send and receive AT c...">
<polygon fill="white" stroke="#666666" points="112.75,-20 0,-20 0,0 112.75,0 112.75,-20"/>
<text text-anchor="middle" x="56.38" y="-6.5" font-family="Helvetica,sans-Serif" font-size="10.00">LocalAtCommand.hpp</text>
</a>
</g>
</g>
<!-- Node2&#45;&gt;Node3 -->
<g id="edge2_Node000002_Node000003" class="edge">
<title>Node2&#45;&gt;Node3</title>
<g id="a_edge2_Node000002_Node000003"><a xlink:title=" ">
<path fill="none" stroke="#63b8ff" d="M65.12,-44.71C62.94,-36.32 60.52,-27.01 58.79,-20.3"/>
<polygon fill="#63b8ff" stroke="#63b8ff" points="61.66,-45.33 67.56,-54.13 68.43,-43.57 61.66,-45.33"/>
</a>
</g>
</g>
<!-- Node4&#45;&gt;Node3 -->
<g id="edge4_Node000004_Node000003" class="edge">
<title>Node4&#45;&gt;Node3</title>
<g id="a_edge4_Node000004_Node000003"><a xlink:title=" ">
<path fill="none" stroke="#63b8ff" d="M140.28,-50.75C120.09,-41.18 94.06,-28.85 76.39,-20.48"/>
<polygon fill="#63b8ff" stroke="#63b8ff" points="138.61,-53.83 149.15,-54.95 141.61,-47.5 138.61,-53.83"/>
</a>
</g>
</g>
<!-- Node5 -->
<g id="Node000005" class="node">
<title>Node5</title>
<g id="a_Node000005"><a xlink:href="../../d6/d7d/a00161.html" target="_top" xlink:title="This file contains the definition of the ModemStatus class which handles various modem status events.">
<polygon fill="white" stroke="#666666" points="226.12,-20 130.62,-20 130.62,0 226.12,0 226.12,-20"/>
<text text-anchor="middle" x="178.38" y="-6.5" font-family="Helvetica,sans-Serif" font-size="10.00">ModemStatus.hpp</text>
</a>
</g>
</g>
<!-- Node4&#45;&gt;Node5 -->
<g id="edge5_Node000004_Node000005" class="edge">
<title>Node4&#45;&gt;Node5</title>
<g id="a_edge5_Node000004_Node000005"><a xlink:title=" ">
<path fill="none" stroke="#63b8ff" d="M173.42,-44.43C174.66,-36.11 176.01,-26.93 177,-20.3"/>
<polygon fill="#63b8ff" stroke="#63b8ff" points="169.99,-43.69 171.99,-54.1 176.92,-44.72 169.99,-43.69"/>
</a>
</g>
</g>
<!-- Node6 -->
<g id="Node000006" class="node">
<title>Node6</title>
<g id="a_Node000006"><a xlink:href="../../d9/dd0/a00191.html" target="_top" xlink:title="This file contains the definition of the RemoteAtCommand class, which is used to send and receive rem...">
<polygon fill="white" stroke="#666666" points="368.38,-20 244.38,-20 244.38,0 368.38,0 368.38,-20"/>
<text text-anchor="middle" x="306.38" y="-6.5" font-family="Helvetica,sans-Serif" font-size="10.00">RemoteAtCommand.hpp</text>
</a>
</g>
</g>
<!-- Node4&#45;&gt;Node6 -->
<g id="edge6_Node000004_Node000006" class="edge">
<title>Node4&#45;&gt;Node6</title>
<g id="a_edge6_Node000004_Node000006"><a xlink:title=" ">
<path fill="none" stroke="#63b8ff" d="M204.62,-51.4C228.92,-41.75 260.93,-29.05 282.5,-20.48"/>
<polygon fill="#63b8ff" stroke="#63b8ff" points="203.47,-48.09 195.47,-55.04 206.06,-54.6 203.47,-48.09"/>
</a>
</g>
</g>
</g>
</svg>
