<?xml version="1.0" encoding="UTF-8" standalone="no"?>
<!DOCTYPE svg PUBLIC "-//W3C//DTD SVG 1.1//EN"
 "http://www.w3.org/Graphics/SVG/1.1/DTD/svg11.dtd">
<!-- Generated by graphviz version 13.1.0 (20250701.0955)
 -->
<!-- Title: Lib::Helper::Convert::BcdHelper Pages: 1 -->
<svg width="115pt" height="102pt"
 viewBox="0.00 0.00 115.00 102.00" xmlns="http://www.w3.org/2000/svg" xmlns:xlink="http://www.w3.org/1999/xlink">
<g id="graph0" class="graph" transform="scale(1 1) rotate(0) translate(4 97.5)">
<title>Lib::Helper::Convert::BcdHelper</title>
<!-- Node1 -->
<g id="Node000001" class="node">
<title>Node1</title>
<g id="a_Node000001"><a xlink:title="Utility class for BCD (Binary&#45;Coded Decimal) conversions.">
<polygon fill="#999999" stroke="none" points="106.5,-93.5 0,-93.5 0,0 106.5,0 106.5,-93.5"/>
<text xml:space="preserve" text-anchor="start" x="12.38" y="-80.95" font-family="Arial" font-size="9.00">Lib::Helper::Convert</text>
<text xml:space="preserve" text-anchor="start" x="29.25" y="-70.45" font-family="Arial" font-size="9.00">::BcdHelper</text>
<text xml:space="preserve" text-anchor="start" x="52.12" y="-55.95" font-family="Arial" font-size="9.00"> </text>
<text xml:space="preserve" text-anchor="start" x="4" y="-41.45" font-family="Arial" font-size="9.00">+</text>
<text xml:space="preserve" text-anchor="start" x="13.25" y="-41.45" font-family="Arial" font-size="9.00">static uint16_t toHex</text>
<text xml:space="preserve" text-anchor="start" x="13.25" y="-30.95" font-family="Arial" font-size="9.00">(uint16_t value)</text>
<text xml:space="preserve" text-anchor="start" x="4" y="-16.45" font-family="Arial" font-size="9.00">+</text>
<text xml:space="preserve" text-anchor="start" x="13.25" y="-16.45" font-family="Arial" font-size="9.00">static char toAsc(uint8</text>
<text xml:space="preserve" text-anchor="start" x="13.25" y="-5.95" font-family="Arial" font-size="9.00">_t value)</text>
<polygon fill="#666666" stroke="#666666" points="0,-66.5 0,-66.5 106.5,-66.5 106.5,-66.5 0,-66.5"/>
<polygon fill="#666666" stroke="#666666" points="0,-52 0,-52 106.5,-52 106.5,-52 0,-52"/>
<polygon fill="none" stroke="#666666" points="0,0 0,-93.5 106.5,-93.5 106.5,0 0,0"/>
</a>
</g>
</g>
</g>
</svg>
