<?xml version="1.0" encoding="UTF-8" standalone="no"?>
<!DOCTYPE svg PUBLIC "-//W3C//DTD SVG 1.1//EN"
 "http://www.w3.org/Graphics/SVG/1.1/DTD/svg11.dtd">
<!-- Generated by graphviz version 13.1.0 (20250701.0955)
 -->
<!-- Title: RTOS::Mutex::unlock Pages: 1 -->
<svg width="412pt" height="40pt"
 viewBox="0.00 0.00 412.00 40.00" xmlns="http://www.w3.org/2000/svg" xmlns:xlink="http://www.w3.org/1999/xlink">
<g id="graph0" class="graph" transform="scale(1 1) rotate(0) translate(4 36)">
<title>RTOS::Mutex::unlock</title>
<!-- Node1 -->
<g id="Node000001" class="node">
<title>Node1</title>
<g id="a_Node000001"><a xlink:title="Releases the mutex and allows other tasks to acquire it.">
<polygon fill="#999999" stroke="#666666" points="110.5,-26 0,-26 0,-6 110.5,-6 110.5,-26"/>
<text xml:space="preserve" text-anchor="middle" x="55.25" y="-12.5" font-family="Helvetica,sans-Serif" font-size="10.00">RTOS::Mutex::unlock</text>
</a>
</g>
</g>
<!-- Node2 -->
<g id="Node000002" class="node">
<title>Node2</title>
<g id="a_Node000002"><a xlink:href="../../dc/d52/a00183.html#afd31afde78f47fa803851f172457fffd" target="_top" xlink:title="Releases the mutex from task context.">
<polygon fill="white" stroke="#666666" points="246.5,-26 146.5,-26 146.5,-6 246.5,-6 246.5,-26"/>
<text xml:space="preserve" text-anchor="middle" x="196.5" y="-12.5" font-family="Helvetica,sans-Serif" font-size="10.00">RTOS::Mutex::give</text>
</a>
</g>
</g>
<!-- Node1&#45;&gt;Node2 -->
<g id="edge1_Node000001_Node000002" class="edge">
<title>Node1&#45;&gt;Node2</title>
<g id="a_edge1_Node000001_Node000002"><a xlink:title=" ">
<path fill="none" stroke="#63b8ff" d="M110.89,-16C118.67,-16 126.71,-16 134.6,-16"/>
<polygon fill="#63b8ff" stroke="#63b8ff" points="134.49,-19.5 144.49,-16 134.49,-12.5 134.49,-19.5"/>
</a>
</g>
</g>
<!-- Node3 -->
<g id="Node000003" class="node">
<title>Node3</title>
<g id="a_Node000003"><a xlink:href="../../d8/d72/a00199.html#a97ac23e2c0fb9235e1e13a56dcc27c23" target="_top" xlink:title="Gives the semaphore.">
<polygon fill="white" stroke="#666666" points="403.5,-32 282.5,-32 282.5,0 403.5,0 403.5,-32"/>
<text xml:space="preserve" text-anchor="start" x="290.5" y="-18.5" font-family="Helvetica,sans-Serif" font-size="10.00">RTOS::SemaphoreBase</text>
<text xml:space="preserve" text-anchor="middle" x="343" y="-6.5" font-family="Helvetica,sans-Serif" font-size="10.00">::give</text>
</a>
</g>
</g>
<!-- Node2&#45;&gt;Node3 -->
<g id="edge2_Node000002_Node000003" class="edge">
<title>Node2&#45;&gt;Node3</title>
<g id="a_edge2_Node000002_Node000003"><a xlink:title=" ">
<path fill="none" stroke="#63b8ff" d="M246.82,-16C254.55,-16 262.66,-16 270.76,-16"/>
<polygon fill="#63b8ff" stroke="#63b8ff" points="270.64,-19.5 280.64,-16 270.64,-12.5 270.64,-19.5"/>
</a>
</g>
</g>
</g>
</svg>
