<?xml version="1.0" encoding="UTF-8" standalone="no"?>
<!DOCTYPE svg PUBLIC "-//W3C//DTD SVG 1.1//EN"
 "http://www.w3.org/Graphics/SVG/1.1/DTD/svg11.dtd">
<!-- Generated by graphviz version 13.1.0 (20250701.0955)
 -->
<!-- Title: System::SerialNumber Pages: 1 -->
<svg width="125pt" height="81pt"
 viewBox="0.00 0.00 125.00 81.00" xmlns="http://www.w3.org/2000/svg" xmlns:xlink="http://www.w3.org/1999/xlink">
<g id="graph0" class="graph" transform="scale(1 1) rotate(0) translate(4 77)">
<title>System::SerialNumber</title>
<!-- Node1 -->
<g id="Node000001" class="node">
<title>Node1</title>
<g id="a_Node000001"><a xlink:title="SerialNumber type for firmware builds.">
<polygon fill="#999999" stroke="none" points="108.12,-18.5 8.62,-18.5 8.62,0 108.12,0 108.12,-18.5"/>
<text xml:space="preserve" text-anchor="start" x="12.62" y="-5.95" font-family="Arial" font-size="9.00">System::SerialNumber</text>
<polygon fill="none" stroke="#666666" points="8.62,0 8.62,-18.5 108.12,-18.5 108.12,0 8.62,0"/>
</a>
</g>
</g>
<!-- Node2 -->
<g id="Node000002" class="node">
<title>Node2</title>
<g id="a_Node000002"><a xlink:href="../../d2/d3e/a01851.html" target="_top" xlink:title="SerialNumber device serial number generator.">
<polygon fill="white" stroke="none" points="116.75,-73 0,-73 0,-54.5 116.75,-54.5 116.75,-73"/>
<text xml:space="preserve" text-anchor="start" x="4" y="-60.45" font-family="Arial" font-size="9.00">Lib::System::SerialNumber</text>
<polygon fill="none" stroke="#666666" points="0,-54.5 0,-73 116.75,-73 116.75,-54.5 0,-54.5"/>
</a>
</g>
</g>
<!-- Node2&#45;&gt;Node1 -->
<g id="edge1_Node000001_Node000002" class="edge">
<title>Node2&#45;&gt;Node1</title>
<g id="a_edge1_Node000001_Node000002"><a xlink:title=" ">
<path fill="none" stroke="#63b8ff" d="M58.38,-43.1C58.38,-34.47 58.38,-24.82 58.38,-18.22"/>
<polygon fill="none" stroke="#63b8ff" points="54.88,-43.03 58.38,-53.03 61.88,-43.03 54.88,-43.03"/>
</a>
</g>
</g>
</g>
</svg>
