<?xml version="1.0" encoding="UTF-8" standalone="no"?>
<!DOCTYPE svg PUBLIC "-//W3C//DTD SVG 1.1//EN"
 "http://www.w3.org/Graphics/SVG/1.1/DTD/svg11.dtd">
<!-- Generated by graphviz version 3.0.0 (20220226.1711)
 -->
<!-- Title: CFlashRecord.hxx Pages: 1 -->
<svg width="133pt" height="196pt"
 viewBox="0.00 0.00 133.00 196.00" xmlns="http://www.w3.org/2000/svg" xmlns:xlink="http://www.w3.org/1999/xlink">
<g id="graph0" class="graph" transform="scale(1 1) rotate(0) translate(4 192)">
<title>CFlashRecord.hxx</title>
<!-- Node1 -->
<g id="node1" class="node">
<title>Node1</title>
<g id="a_node1"><a xlink:title="Sound File class.">
<polygon fill="#bfbfbf" stroke="black" points="28,-168.5 28,-187.5 125,-187.5 125,-168.5 28,-168.5"/>
<text text-anchor="middle" x="76.5" y="-175.5" font-family="Helvetica,sans-Serif" font-size="10.00">CFlashRecord.hxx</text>
</a>
</g>
</g>
<!-- Node2 -->
<g id="node2" class="node">
<title>Node2</title>
<g id="a_node2"><a xlink:href="../../d4/dc1/_sound_2_c_container_8hxx_source.html" target="_top" xlink:title=" ">
<polygon fill="none" stroke="black" points="0,-112.5 0,-131.5 83,-131.5 83,-112.5 0,-112.5"/>
<text text-anchor="middle" x="41.5" y="-119.5" font-family="Helvetica,sans-Serif" font-size="10.00">CContainer.hxx</text>
</a>
</g>
</g>
<!-- Node1&#45;&gt;Node2 -->
<g id="edge1" class="edge">
<title>Node1&#45;&gt;Node2</title>
<path fill="none" stroke="midnightblue" d="M65.2,-159.57C59.18,-150.27 52.03,-139.25 47.17,-131.75"/>
<polygon fill="midnightblue" stroke="midnightblue" points="62.34,-161.6 70.72,-168.08 68.22,-157.79 62.34,-161.6"/>
</g>
<!-- Node3 -->
<g id="node3" class="node">
<title>Node3</title>
<g id="a_node3"><a xlink:href="../../d8/da4/_sound_8hpp.html" target="_top" xlink:title="Sound Layer.">
<polygon fill="none" stroke="black" points="45,-56.5 45,-75.5 108,-75.5 108,-56.5 45,-56.5"/>
<text text-anchor="middle" x="76.5" y="-63.5" font-family="Helvetica,sans-Serif" font-size="10.00">Sound.hpp</text>
</a>
</g>
</g>
<!-- Node1&#45;&gt;Node3 -->
<g id="edge4" class="edge">
<title>Node1&#45;&gt;Node3</title>
<path fill="none" stroke="midnightblue" d="M84.56,-158.83C87.71,-150.78 90.93,-141.09 92.5,-132 96.02,-111.61 86.91,-88.15 81.03,-75.75"/>
<polygon fill="midnightblue" stroke="midnightblue" points="81.24,-157.7 80.61,-168.28 87.69,-160.4 81.24,-157.7"/>
</g>
<!-- Node2&#45;&gt;Node3 -->
<g id="edge2" class="edge">
<title>Node2&#45;&gt;Node3</title>
<path fill="none" stroke="midnightblue" d="M52.8,-103.57C58.82,-94.27 65.97,-83.25 70.83,-75.75"/>
<polygon fill="midnightblue" stroke="midnightblue" points="49.78,-101.79 47.28,-112.08 55.66,-105.6 49.78,-101.79"/>
</g>
<!-- Node4 -->
<g id="node4" class="node">
<title>Node4</title>
<g id="a_node4"><a xlink:href="../../d2/d10/_sound_8cpp.html" target="_top" xlink:title="Sound Layer.">
<polygon fill="none" stroke="black" points="45,-0.5 45,-19.5 108,-19.5 108,-0.5 45,-0.5"/>
<text text-anchor="middle" x="76.5" y="-7.5" font-family="Helvetica,sans-Serif" font-size="10.00">Sound.cpp</text>
</a>
</g>
</g>
<!-- Node3&#45;&gt;Node4 -->
<g id="edge3" class="edge">
<title>Node3&#45;&gt;Node4</title>
<path fill="none" stroke="midnightblue" d="M76.5,-45.8C76.5,-36.91 76.5,-26.78 76.5,-19.75"/>
<polygon fill="midnightblue" stroke="midnightblue" points="73,-46.08 76.5,-56.08 80,-46.08 73,-46.08"/>
</g>
</g>
</svg>
