<?xml version="1.0" encoding="UTF-8" standalone="no"?>
<!DOCTYPE svg PUBLIC "-//W3C//DTD SVG 1.1//EN"
 "http://www.w3.org/Graphics/SVG/1.1/DTD/svg11.dtd">
<!-- Generated by graphviz version 13.1.0 (20250701.0955)
 -->
<!-- Title: Lib::Xbee::API::NodeInfo Pages: 1 -->
<svg width="819pt" height="238pt"
 viewBox="0.00 0.00 819.00 238.00" xmlns="http://www.w3.org/2000/svg" xmlns:xlink="http://www.w3.org/1999/xlink">
<g id="graph0" class="graph" transform="scale(1 1) rotate(0) translate(4 234)">
<title>Lib::Xbee::API::NodeInfo</title>
<!-- Node1 -->
<g id="Node000001" class="node">
<title>Node1</title>
<g id="a_Node000001"><a xlink:title="Holds information about an Xbee node.">
<polygon fill="#999999" stroke="none" points="469.5,-52 352,-52 352,0 469.5,0 469.5,-52"/>
<text xml:space="preserve" text-anchor="start" x="356" y="-38.5" font-family="Helvetica,sans-Serif" font-size="10.00">Lib::Xbee::API::NodeInfo</text>
<text xml:space="preserve" text-anchor="start" x="409.25" y="-22.5" font-family="Helvetica,sans-Serif" font-size="10.00"> </text>
<text xml:space="preserve" text-anchor="start" x="409.25" y="-6.5" font-family="Helvetica,sans-Serif" font-size="10.00"> </text>
<polygon fill="#666666" stroke="#666666" points="352,-34 352,-34 469.5,-34 469.5,-34 352,-34"/>
<polygon fill="#666666" stroke="#666666" points="352,-18 352,-18 469.5,-18 469.5,-18 352,-18"/>
<polygon fill="none" stroke="#666666" points="352,0 352,-52 469.5,-52 469.5,0 352,0"/>
</a>
</g>
</g>
<!-- Node2 -->
<g id="Node000002" class="node">
<title>Node2</title>
<g id="a_Node000002"><a xlink:href="../../dc/dec/a01804.html" target="_top" xlink:title="Represents a 64&#45;bit MAC address.">
<polygon fill="white" stroke="none" points="117.5,-230 0,-230 0,-122 117.5,-122 117.5,-230"/>
<text xml:space="preserve" text-anchor="start" x="4" y="-216.5" font-family="Helvetica,sans-Serif" font-size="10.00">Lib::Xbee::API::NodeInfo</text>
<text xml:space="preserve" text-anchor="start" x="28.38" y="-204.5" font-family="Helvetica,sans-Serif" font-size="10.00">::MacAddress</text>
<text xml:space="preserve" text-anchor="start" x="4.88" y="-188.5" font-family="Helvetica,sans-Serif" font-size="10.00">+</text>
<text xml:space="preserve" text-anchor="start" x="15.75" y="-188.5" font-family="Helvetica,sans-Serif" font-size="10.00">uint32_t msb</text>
<text xml:space="preserve" text-anchor="start" x="4.88" y="-172.5" font-family="Helvetica,sans-Serif" font-size="10.00">+</text>
<text xml:space="preserve" text-anchor="start" x="15.75" y="-172.5" font-family="Helvetica,sans-Serif" font-size="10.00">uint32_t lsb</text>
<text xml:space="preserve" text-anchor="start" x="4.88" y="-156.5" font-family="Helvetica,sans-Serif" font-size="10.00">+</text>
<text xml:space="preserve" text-anchor="start" x="15.75" y="-156.5" font-family="Helvetica,sans-Serif" font-size="10.00">MacAddress()=default</text>
<text xml:space="preserve" text-anchor="start" x="4.88" y="-140.5" font-family="Helvetica,sans-Serif" font-size="10.00">+</text>
<text xml:space="preserve" text-anchor="start" x="15.75" y="-140.5" font-family="Helvetica,sans-Serif" font-size="10.00">operator uint64_t</text>
<text xml:space="preserve" text-anchor="start" x="15.75" y="-128.5" font-family="Helvetica,sans-Serif" font-size="10.00">() const</text>
<polygon fill="#666666" stroke="#666666" points="0,-200 0,-200 117.5,-200 117.5,-200 0,-200"/>
<polygon fill="#666666" stroke="#666666" points="0,-168 0,-168 13.75,-168 13.75,-168 0,-168"/>
<polygon fill="#666666" stroke="#666666" points="13.75,-168 13.75,-168 117.5,-168 117.5,-168 13.75,-168"/>
<polygon fill="none" stroke="#666666" points="0,-122 0,-230 117.5,-230 117.5,-122 0,-122"/>
</a>
</g>
</g>
<!-- Node2&#45;&gt;Node1 -->
<g id="edge1_Node000001_Node000002" class="edge">
<title>Node2&#45;&gt;Node1</title>
<g id="a_edge1_Node000001_Node000002"><a xlink:title=" ">
<path fill="none" stroke="#63b8ff" d="M106.15,-122.25C126.24,-102.96 151.06,-82.77 177.25,-70 228.16,-45.18 291.69,-34.62 339.62,-30.16"/>
<polygon fill="none" stroke="#63b8ff" points="339.53,-30.16 345.18,-25.67 351.49,-29.15 345.85,-33.64 339.53,-30.16"/>
</a>
</g>
<text xml:space="preserve" text-anchor="start" x="180.25" y="-91.5" font-family="Helvetica,sans-Serif" font-size="10.00" fill="grey">+destMacAddress</text>
<text xml:space="preserve" text-anchor="start" x="180.25" y="-75.5" font-family="Helvetica,sans-Serif" font-size="10.00" fill="grey">+macAddress</text>
</g>
<!-- Node3 -->
<g id="Node000003" class="node">
<title>Node3</title>
<g id="a_Node000003"><a xlink:href="../../d7/d02/a01808.html" target="_top" xlink:title="Contains network identification information.">
<polygon fill="white" stroke="none" points="261.75,-216 135.75,-216 135.75,-136 261.75,-136 261.75,-216"/>
<text xml:space="preserve" text-anchor="start" x="144" y="-202.5" font-family="Helvetica,sans-Serif" font-size="10.00">Lib::Xbee::API::NodeInfo</text>
<text xml:space="preserve" text-anchor="start" x="169.12" y="-190.5" font-family="Helvetica,sans-Serif" font-size="10.00">::NetworkInfo</text>
<text xml:space="preserve" text-anchor="start" x="139.75" y="-174.5" font-family="Helvetica,sans-Serif" font-size="10.00">+</text>
<text xml:space="preserve" text-anchor="start" x="149.75" y="-174.5" font-family="Helvetica,sans-Serif" font-size="10.00">uint16_t networkID</text>
<text xml:space="preserve" text-anchor="start" x="139.75" y="-158.5" font-family="Helvetica,sans-Serif" font-size="10.00">+</text>
<text xml:space="preserve" text-anchor="start" x="149.75" y="-158.5" font-family="Helvetica,sans-Serif" font-size="10.00">uint16_t networkChannel</text>
<text xml:space="preserve" text-anchor="start" x="197.25" y="-142.5" font-family="Helvetica,sans-Serif" font-size="10.00"> </text>
<polygon fill="#666666" stroke="#666666" points="135.75,-186 135.75,-186 261.75,-186 261.75,-186 135.75,-186"/>
<polygon fill="#666666" stroke="#666666" points="135.75,-154 135.75,-154 147.75,-154 147.75,-154 135.75,-154"/>
<polygon fill="#666666" stroke="#666666" points="147.75,-154 147.75,-154 261.75,-154 261.75,-154 147.75,-154"/>
<polygon fill="none" stroke="#666666" points="135.75,-136 135.75,-216 261.75,-216 261.75,-136 135.75,-136"/>
</a>
</g>
</g>
<!-- Node3&#45;&gt;Node1 -->
<g id="edge2_Node000001_Node000003" class="edge">
<title>Node3&#45;&gt;Node1</title>
<g id="a_edge2_Node000001_Node000003"><a xlink:title=" ">
<path fill="none" stroke="#63b8ff" d="M233.19,-136.2C253.82,-114.65 281.46,-88.54 309.75,-70 319.19,-63.81 329.67,-58.19 340.19,-53.2"/>
<polygon fill="none" stroke="#63b8ff" points="340.3,-53.15 344.11,-47.03 351.23,-48.21 347.41,-54.32 340.3,-53.15"/>
</a>
</g>
<text xml:space="preserve" text-anchor="start" x="312.75" y="-83.5" font-family="Helvetica,sans-Serif" font-size="10.00" fill="grey">+networkInfo</text>
</g>
<!-- Node4 -->
<g id="Node000004" class="node">
<title>Node4</title>
<g id="a_Node000004"><a xlink:href="../../dc/d5b/a01812.html" target="_top" xlink:title="Holds discovery information.">
<polygon fill="white" stroke="none" points="403.25,-208 280.25,-208 280.25,-144 403.25,-144 403.25,-208"/>
<text xml:space="preserve" text-anchor="start" x="287" y="-194.5" font-family="Helvetica,sans-Serif" font-size="10.00">Lib::Xbee::API::NodeInfo</text>
<text xml:space="preserve" text-anchor="start" x="316.62" y="-182.5" font-family="Helvetica,sans-Serif" font-size="10.00">::Discovery</text>
<text xml:space="preserve" text-anchor="start" x="284.25" y="-166.5" font-family="Helvetica,sans-Serif" font-size="10.00">+</text>
<text xml:space="preserve" text-anchor="start" x="294.25" y="-166.5" font-family="Helvetica,sans-Serif" font-size="10.00">std::string nodeIdentifier</text>
<text xml:space="preserve" text-anchor="start" x="340.25" y="-150.5" font-family="Helvetica,sans-Serif" font-size="10.00"> </text>
<polygon fill="#666666" stroke="#666666" points="280.25,-178 280.25,-178 403.25,-178 403.25,-178 280.25,-178"/>
<polygon fill="#666666" stroke="#666666" points="280.25,-162 280.25,-162 292.25,-162 292.25,-162 280.25,-162"/>
<polygon fill="#666666" stroke="#666666" points="292.25,-162 292.25,-162 403.25,-162 403.25,-162 292.25,-162"/>
<polygon fill="none" stroke="#666666" points="280.25,-144 280.25,-208 403.25,-208 403.25,-144 280.25,-144"/>
</a>
</g>
</g>
<!-- Node4&#45;&gt;Node1 -->
<g id="edge3_Node000001_Node000004" class="edge">
<title>Node4&#45;&gt;Node1</title>
<g id="a_edge3_Node000001_Node000004"><a xlink:title=" ">
<path fill="none" stroke="#63b8ff" d="M356.05,-144.33C367.04,-120.76 382.25,-88.12 393.85,-63.26"/>
<polygon fill="none" stroke="#63b8ff" points="393.76,-63.44 392.67,-56.31 398.83,-52.56 399.92,-59.69 393.76,-63.44"/>
</a>
</g>
<text xml:space="preserve" text-anchor="start" x="393.36" y="-83.5" font-family="Helvetica,sans-Serif" font-size="10.00" fill="grey">+discovery</text>
</g>
<!-- Node5 -->
<g id="Node000005" class="node">
<title>Node5</title>
<g id="a_Node000005"><a xlink:href="../../d6/dc4/a01816.html" target="_top" xlink:title="Contains firmware and hardware version information.">
<polygon fill="white" stroke="none" points="538.5,-216 421,-216 421,-136 538.5,-136 538.5,-216"/>
<text xml:space="preserve" text-anchor="start" x="425" y="-202.5" font-family="Helvetica,sans-Serif" font-size="10.00">Lib::Xbee::API::NodeInfo</text>
<text xml:space="preserve" text-anchor="start" x="458" y="-190.5" font-family="Helvetica,sans-Serif" font-size="10.00">::Versions</text>
<text xml:space="preserve" text-anchor="start" x="430.56" y="-174.5" font-family="Helvetica,sans-Serif" font-size="10.00">+</text>
<text xml:space="preserve" text-anchor="start" x="446.12" y="-174.5" font-family="Helvetica,sans-Serif" font-size="10.00">uint16_t firmware</text>
<text xml:space="preserve" text-anchor="start" x="430.56" y="-158.5" font-family="Helvetica,sans-Serif" font-size="10.00">+</text>
<text xml:space="preserve" text-anchor="start" x="446.12" y="-158.5" font-family="Helvetica,sans-Serif" font-size="10.00">uint16_t hardware</text>
<text xml:space="preserve" text-anchor="start" x="478.25" y="-142.5" font-family="Helvetica,sans-Serif" font-size="10.00"> </text>
<polygon fill="#666666" stroke="#666666" points="421,-186 421,-186 538.5,-186 538.5,-186 421,-186"/>
<polygon fill="#666666" stroke="#666666" points="421,-154 421,-154 444.12,-154 444.12,-154 421,-154"/>
<polygon fill="#666666" stroke="#666666" points="444.12,-154 444.12,-154 538.5,-154 538.5,-154 444.12,-154"/>
<polygon fill="none" stroke="#666666" points="421,-136 421,-216 538.5,-216 538.5,-136 421,-136"/>
</a>
</g>
</g>
<!-- Node5&#45;&gt;Node1 -->
<g id="edge4_Node000001_Node000005" class="edge">
<title>Node5&#45;&gt;Node1</title>
<g id="a_edge4_Node000001_Node000005"><a xlink:title=" ">
<path fill="none" stroke="#63b8ff" d="M472.57,-136.24C467.73,-115.7 460.12,-90.54 448.75,-70 447.28,-67.35 445.63,-64.73 443.86,-62.16"/>
<polygon fill="none" stroke="#63b8ff" points="443.9,-62.21 437.07,-59.89 436.59,-52.7 443.42,-55.02 443.9,-62.21"/>
</a>
</g>
<text xml:space="preserve" text-anchor="start" x="466.05" y="-83.5" font-family="Helvetica,sans-Serif" font-size="10.00" fill="grey">+versions</text>
</g>
<!-- Node6 -->
<g id="Node000006" class="node">
<title>Node6</title>
<g id="a_Node000006"><a xlink:href="../../d5/dd6/a01820.html" target="_top" xlink:title="Holds monitoring data.">
<polygon fill="white" stroke="none" points="674.5,-216 557,-216 557,-136 674.5,-136 674.5,-216"/>
<text xml:space="preserve" text-anchor="start" x="561" y="-202.5" font-family="Helvetica,sans-Serif" font-size="10.00">Lib::Xbee::API::NodeInfo</text>
<text xml:space="preserve" text-anchor="start" x="596.62" y="-190.5" font-family="Helvetica,sans-Serif" font-size="10.00">::Monitor</text>
<text xml:space="preserve" text-anchor="start" x="567.5" y="-174.5" font-family="Helvetica,sans-Serif" font-size="10.00">+</text>
<text xml:space="preserve" text-anchor="start" x="584" y="-174.5" font-family="Helvetica,sans-Serif" font-size="10.00">float voltage</text>
<text xml:space="preserve" text-anchor="start" x="567.5" y="-158.5" font-family="Helvetica,sans-Serif" font-size="10.00">+</text>
<text xml:space="preserve" text-anchor="start" x="584" y="-158.5" font-family="Helvetica,sans-Serif" font-size="10.00">float temperature</text>
<text xml:space="preserve" text-anchor="start" x="614.25" y="-142.5" font-family="Helvetica,sans-Serif" font-size="10.00"> </text>
<polygon fill="#666666" stroke="#666666" points="557,-186 557,-186 674.5,-186 674.5,-186 557,-186"/>
<polygon fill="#666666" stroke="#666666" points="557,-154 557,-154 582,-154 582,-154 557,-154"/>
<polygon fill="#666666" stroke="#666666" points="582,-154 582,-154 674.5,-154 674.5,-154 582,-154"/>
<polygon fill="none" stroke="#666666" points="557,-136 557,-216 674.5,-216 674.5,-136 557,-136"/>
</a>
</g>
</g>
<!-- Node6&#45;&gt;Node1 -->
<g id="edge5_Node000001_Node000006" class="edge">
<title>Node6&#45;&gt;Node1</title>
<g id="a_edge5_Node000001_Node000006"><a xlink:title=" ">
<path fill="none" stroke="#63b8ff" d="M585.71,-136.13C567.36,-114.42 542.36,-88.17 515.75,-70 505.2,-62.79 493.25,-56.48 481.29,-51.06"/>
<polygon fill="none" stroke="#63b8ff" points="481.24,-51.04 474.15,-52.35 470.21,-46.31 477.3,-45 481.24,-51.04"/>
</a>
</g>
<text xml:space="preserve" text-anchor="start" x="558.24" y="-83.5" font-family="Helvetica,sans-Serif" font-size="10.00" fill="grey">+monitor</text>
</g>
<!-- Node7 -->
<g id="Node000007" class="node">
<title>Node7</title>
<g id="a_Node000007"><a xlink:href="../../d2/d77/a01824.html" target="_top" xlink:title="Contains MAC diagnostic counters.">
<polygon fill="white" stroke="none" points="810.5,-216 693,-216 693,-136 810.5,-136 810.5,-216"/>
<text xml:space="preserve" text-anchor="start" x="697" y="-202.5" font-family="Helvetica,sans-Serif" font-size="10.00">Lib::Xbee::API::NodeInfo</text>
<text xml:space="preserve" text-anchor="start" x="716.12" y="-190.5" font-family="Helvetica,sans-Serif" font-size="10.00">::MacDiagnostic</text>
<text xml:space="preserve" text-anchor="start" x="699.94" y="-174.5" font-family="Helvetica,sans-Serif" font-size="10.00">+</text>
<text xml:space="preserve" text-anchor="start" x="712.88" y="-174.5" font-family="Helvetica,sans-Serif" font-size="10.00">uint16_t ascFailures</text>
<text xml:space="preserve" text-anchor="start" x="699.94" y="-158.5" font-family="Helvetica,sans-Serif" font-size="10.00">+</text>
<text xml:space="preserve" text-anchor="start" x="712.88" y="-158.5" font-family="Helvetica,sans-Serif" font-size="10.00">uint16_t ccaFailures</text>
<text xml:space="preserve" text-anchor="start" x="750.25" y="-142.5" font-family="Helvetica,sans-Serif" font-size="10.00"> </text>
<polygon fill="#666666" stroke="#666666" points="693,-186 693,-186 810.5,-186 810.5,-186 693,-186"/>
<polygon fill="#666666" stroke="#666666" points="693,-154 693,-154 710.88,-154 710.88,-154 693,-154"/>
<polygon fill="#666666" stroke="#666666" points="710.88,-154 710.88,-154 810.5,-154 810.5,-154 710.88,-154"/>
<polygon fill="none" stroke="#666666" points="693,-136 693,-216 810.5,-216 810.5,-136 693,-136"/>
</a>
</g>
</g>
<!-- Node7&#45;&gt;Node1 -->
<g id="edge6_Node000001_Node000007" class="edge">
<title>Node7&#45;&gt;Node1</title>
<g id="a_edge6_Node000001_Node000007"><a xlink:title=" ">
<path fill="none" stroke="#63b8ff" d="M703.1,-136.28C696.66,-131.39 690.09,-126.52 683.75,-122 649.22,-97.39 642.85,-86.43 603.75,-70 565.11,-53.76 519.42,-43.23 482.2,-36.66"/>
<polygon fill="none" stroke="#63b8ff" points="482.13,-36.65 475.55,-39.59 470.3,-34.65 476.88,-31.7 482.13,-36.65"/>
</a>
</g>
<text xml:space="preserve" text-anchor="start" x="661.63" y="-83.5" font-family="Helvetica,sans-Serif" font-size="10.00" fill="grey">+macDiagnostic</text>
</g>
</g>
</svg>
