<?xml version="1.0" encoding="UTF-8" standalone="no"?>
<!DOCTYPE svg PUBLIC "-//W3C//DTD SVG 1.1//EN"
 "http://www.w3.org/Graphics/SVG/1.1/DTD/svg11.dtd">
<!-- Generated by graphviz version 13.1.0 (20250701.0955)
 -->
<!-- Title: Lib::Digi::API::Service::ServiceBase Pages: 1 -->
<svg width="808pt" height="484pt"
 viewBox="0.00 0.00 808.00 484.00" xmlns="http://www.w3.org/2000/svg" xmlns:xlink="http://www.w3.org/1999/xlink">
<g id="graph0" class="graph" transform="scale(1 1) rotate(0) translate(4 480)">
<title>Lib::Digi::API::Service::ServiceBase</title>
<!-- Node1 -->
<g id="Node000001" class="node">
<title>Node1</title>
<g id="a_Node000001"><a xlink:title="Base class for Digi API services.">
<polygon fill="#999999" stroke="none" points="482.25,-476 315.25,-476 315.25,-280 482.25,-280 482.25,-476"/>
<text xml:space="preserve" text-anchor="start" x="319.25" y="-462.5" font-family="Helvetica,sans-Serif" font-size="10.00">Lib::Digi::API::Service::ServiceBase</text>
<text xml:space="preserve" text-anchor="start" x="339.25" y="-446.5" font-family="Helvetica,sans-Serif" font-size="10.00">#</text>
<text xml:space="preserve" text-anchor="start" x="368.5" y="-446.5" font-family="Helvetica,sans-Serif" font-size="10.00">isOpen</text>
<text xml:space="preserve" text-anchor="start" x="339.25" y="-430.5" font-family="Helvetica,sans-Serif" font-size="10.00">#</text>
<text xml:space="preserve" text-anchor="start" x="368.5" y="-430.5" font-family="Helvetica,sans-Serif" font-size="10.00">hasClosed</text>
<text xml:space="preserve" text-anchor="start" x="339.25" y="-414.5" font-family="Helvetica,sans-Serif" font-size="10.00">#</text>
<text xml:space="preserve" text-anchor="start" x="368.5" y="-414.5" font-family="Helvetica,sans-Serif" font-size="10.00">isFirstUpdate</text>
<text xml:space="preserve" text-anchor="start" x="339.25" y="-398.5" font-family="Helvetica,sans-Serif" font-size="10.00">#</text>
<text xml:space="preserve" text-anchor="start" x="368.5" y="-398.5" font-family="Helvetica,sans-Serif" font-size="10.00">ServiceBase()</text>
<text xml:space="preserve" text-anchor="start" x="339.25" y="-382.5" font-family="Helvetica,sans-Serif" font-size="10.00">#</text>
<text xml:space="preserve" text-anchor="start" x="368.5" y="-382.5" font-family="Helvetica,sans-Serif" font-size="10.00">~ServiceBase()</text>
<text xml:space="preserve" text-anchor="start" x="339.25" y="-366.5" font-family="Helvetica,sans-Serif" font-size="10.00">#</text>
<text xml:space="preserve" text-anchor="start" x="368.5" y="-366.5" font-family="Helvetica,sans-Serif" font-size="10.00">open()</text>
<text xml:space="preserve" text-anchor="start" x="339.25" y="-350.5" font-family="Helvetica,sans-Serif" font-size="10.00">#</text>
<text xml:space="preserve" text-anchor="start" x="368.5" y="-350.5" font-family="Helvetica,sans-Serif" font-size="10.00">close()</text>
<text xml:space="preserve" text-anchor="start" x="339.25" y="-334.5" font-family="Helvetica,sans-Serif" font-size="10.00">#</text>
<text xml:space="preserve" text-anchor="start" x="368.5" y="-334.5" font-family="Helvetica,sans-Serif" font-size="10.00">isServiceOpen()</text>
<text xml:space="preserve" text-anchor="start" x="339.25" y="-318.5" font-family="Helvetica,sans-Serif" font-size="10.00">#</text>
<text xml:space="preserve" text-anchor="start" x="368.5" y="-318.5" font-family="Helvetica,sans-Serif" font-size="10.00">beginUpdate()</text>
<text xml:space="preserve" text-anchor="start" x="339.25" y="-302.5" font-family="Helvetica,sans-Serif" font-size="10.00">#</text>
<text xml:space="preserve" text-anchor="start" x="368.5" y="-302.5" font-family="Helvetica,sans-Serif" font-size="10.00">update()</text>
<text xml:space="preserve" text-anchor="start" x="339.25" y="-286.5" font-family="Helvetica,sans-Serif" font-size="10.00">#</text>
<text xml:space="preserve" text-anchor="start" x="368.5" y="-286.5" font-family="Helvetica,sans-Serif" font-size="10.00">endUpdate()</text>
<polygon fill="#666666" stroke="#666666" points="315.25,-458 315.25,-458 482.25,-458 482.25,-458 315.25,-458"/>
<polygon fill="#666666" stroke="#666666" points="315.25,-410 315.25,-410 366.5,-410 366.5,-410 315.25,-410"/>
<polygon fill="#666666" stroke="#666666" points="366.5,-410 366.5,-410 482.25,-410 482.25,-410 366.5,-410"/>
<polygon fill="none" stroke="#666666" points="315.25,-280 315.25,-476 482.25,-476 482.25,-280 315.25,-280"/>
</a>
</g>
</g>
<!-- Node2 -->
<g id="Node000002" class="node">
<title>Node2</title>
<g id="a_Node000002"><a xlink:href="../../d1/d2b/class_lib_1_1_digi_1_1_a_p_i_1_1_service_1_1_channel_scanner.html" target="_top" xlink:title="ChannelScanner service class.">
<polygon fill="white" stroke="none" points="183.5,-180 0,-180 0,-64 183.5,-64 183.5,-180"/>
<text xml:space="preserve" text-anchor="start" x="4" y="-166.5" font-family="Helvetica,sans-Serif" font-size="10.00">Lib::Digi::API::Service::ChannelScanner</text>
<text xml:space="preserve" text-anchor="start" x="24.38" y="-150.5" font-family="Helvetica,sans-Serif" font-size="10.00">+</text>
<text xml:space="preserve" text-anchor="start" x="54.75" y="-150.5" font-family="Helvetica,sans-Serif" font-size="10.00">onError</text>
<text xml:space="preserve" text-anchor="start" x="24.38" y="-134.5" font-family="Helvetica,sans-Serif" font-size="10.00">+</text>
<text xml:space="preserve" text-anchor="start" x="54.75" y="-134.5" font-family="Helvetica,sans-Serif" font-size="10.00">ChannelScanner()</text>
<text xml:space="preserve" text-anchor="start" x="24.38" y="-118.5" font-family="Helvetica,sans-Serif" font-size="10.00">+</text>
<text xml:space="preserve" text-anchor="start" x="54.75" y="-118.5" font-family="Helvetica,sans-Serif" font-size="10.00">~ChannelScanner()</text>
<text xml:space="preserve" text-anchor="start" x="24.38" y="-102.5" font-family="Helvetica,sans-Serif" font-size="10.00">+</text>
<text xml:space="preserve" text-anchor="start" x="54.75" y="-102.5" font-family="Helvetica,sans-Serif" font-size="10.00">open()</text>
<text xml:space="preserve" text-anchor="start" x="24.38" y="-86.5" font-family="Helvetica,sans-Serif" font-size="10.00">+</text>
<text xml:space="preserve" text-anchor="start" x="54.75" y="-86.5" font-family="Helvetica,sans-Serif" font-size="10.00">close()</text>
<text xml:space="preserve" text-anchor="start" x="24.38" y="-70.5" font-family="Helvetica,sans-Serif" font-size="10.00">+</text>
<text xml:space="preserve" text-anchor="start" x="54.75" y="-70.5" font-family="Helvetica,sans-Serif" font-size="10.00">update()</text>
<polygon fill="#666666" stroke="#666666" points="0,-162 0,-162 183.5,-162 183.5,-162 0,-162"/>
<polygon fill="#666666" stroke="#666666" points="0,-146 0,-146 52.75,-146 52.75,-146 0,-146"/>
<polygon fill="#666666" stroke="#666666" points="52.75,-146 52.75,-146 183.5,-146 183.5,-146 52.75,-146"/>
<polygon fill="none" stroke="#666666" points="0,-64 0,-180 183.5,-180 183.5,-64 0,-64"/>
</a>
</g>
</g>
<!-- Node1&#45;&gt;Node2 -->
<g id="edge1_Node000001_Node000002" class="edge">
<title>Node1&#45;&gt;Node2</title>
<g id="a_edge1_Node000001_Node000002"><a xlink:title=" ">
<path fill="none" stroke="#63b8ff" d="M305.72,-325.21C268.76,-302.58 226.99,-274.29 192.75,-244 171.23,-224.96 150.37,-201.19 133.25,-179.76"/>
<polygon fill="none" stroke="#63b8ff" points="303.84,-328.16 314.2,-330.35 307.47,-322.18 303.84,-328.16"/>
</a>
</g>
</g>
<!-- Node3 -->
<g id="Node000003" class="node">
<title>Node3</title>
<g id="a_Node000003"><a xlink:href="../../d8/d0a/class_lib_1_1_digi_1_1_a_p_i_1_1_service_1_1_network_discovery.html" target="_top" xlink:title="NetworkDiscovery service class.">
<polygon fill="white" stroke="none" points="394,-188 201.5,-188 201.5,-56 394,-56 394,-188"/>
<text xml:space="preserve" text-anchor="start" x="205.5" y="-174.5" font-family="Helvetica,sans-Serif" font-size="10.00">Lib::Digi::API::Service::NetworkDiscovery</text>
<text xml:space="preserve" text-anchor="start" x="296.25" y="-158.5" font-family="Helvetica,sans-Serif" font-size="10.00"> </text>
<text xml:space="preserve" text-anchor="start" x="225.88" y="-142.5" font-family="Helvetica,sans-Serif" font-size="10.00">+</text>
<text xml:space="preserve" text-anchor="start" x="256.25" y="-142.5" font-family="Helvetica,sans-Serif" font-size="10.00">NetworkDiscovery()</text>
<text xml:space="preserve" text-anchor="start" x="225.88" y="-126.5" font-family="Helvetica,sans-Serif" font-size="10.00">+</text>
<text xml:space="preserve" text-anchor="start" x="256.25" y="-126.5" font-family="Helvetica,sans-Serif" font-size="10.00">~NetworkDiscovery()</text>
<text xml:space="preserve" text-anchor="start" x="225.88" y="-110.5" font-family="Helvetica,sans-Serif" font-size="10.00">+</text>
<text xml:space="preserve" text-anchor="start" x="256.25" y="-110.5" font-family="Helvetica,sans-Serif" font-size="10.00">open()</text>
<text xml:space="preserve" text-anchor="start" x="225.88" y="-94.5" font-family="Helvetica,sans-Serif" font-size="10.00">+</text>
<text xml:space="preserve" text-anchor="start" x="256.25" y="-94.5" font-family="Helvetica,sans-Serif" font-size="10.00">close()</text>
<text xml:space="preserve" text-anchor="start" x="225.88" y="-78.5" font-family="Helvetica,sans-Serif" font-size="10.00">+</text>
<text xml:space="preserve" text-anchor="start" x="256.25" y="-78.5" font-family="Helvetica,sans-Serif" font-size="10.00">update()</text>
<text xml:space="preserve" text-anchor="start" x="225.88" y="-62.5" font-family="Helvetica,sans-Serif" font-size="10.00">+</text>
<text xml:space="preserve" text-anchor="start" x="256.25" y="-62.5" font-family="Helvetica,sans-Serif" font-size="10.00">start()</text>
<polygon fill="#666666" stroke="#666666" points="201.5,-170 201.5,-170 394,-170 394,-170 201.5,-170"/>
<polygon fill="#666666" stroke="#666666" points="201.5,-154 201.5,-154 394,-154 394,-154 201.5,-154"/>
<polygon fill="none" stroke="#666666" points="201.5,-56 201.5,-188 394,-188 394,-56 201.5,-56"/>
</a>
</g>
</g>
<!-- Node1&#45;&gt;Node3 -->
<g id="edge2_Node000001_Node000003" class="edge">
<title>Node1&#45;&gt;Node3</title>
<g id="a_edge2_Node000001_Node000003"><a xlink:title=" ">
<path fill="none" stroke="#63b8ff" d="M356.06,-269.63C344.96,-241.74 333.36,-212.55 323.45,-187.62"/>
<polygon fill="none" stroke="#63b8ff" points="352.77,-270.84 359.72,-278.84 359.28,-268.26 352.77,-270.84"/>
</a>
</g>
</g>
<!-- Node4 -->
<g id="Node000004" class="node">
<title>Node4</title>
<g id="a_Node000004"><a xlink:href="../../d6/d36/class_lib_1_1_digi_1_1_a_p_i_1_1_service_1_1_parameters.html" target="_top" xlink:title="Parameters service class.">
<polygon fill="white" stroke="none" points="589.62,-244 411.88,-244 411.88,0 589.62,0 589.62,-244"/>
<text xml:space="preserve" text-anchor="start" x="423.88" y="-230.5" font-family="Helvetica,sans-Serif" font-size="10.00">Lib::Digi::API::Service::Parameters</text>
<text xml:space="preserve" text-anchor="start" x="415.88" y="-214.5" font-family="Helvetica,sans-Serif" font-size="10.00">+</text>
<text xml:space="preserve" text-anchor="start" x="425.88" y="-214.5" font-family="Helvetica,sans-Serif" font-size="10.00">data</text>
<text xml:space="preserve" text-anchor="start" x="415.88" y="-198.5" font-family="Helvetica,sans-Serif" font-size="10.00">+</text>
<text xml:space="preserve" text-anchor="start" x="425.88" y="-198.5" font-family="Helvetica,sans-Serif" font-size="10.00">Parameters()</text>
<text xml:space="preserve" text-anchor="start" x="415.88" y="-182.5" font-family="Helvetica,sans-Serif" font-size="10.00">+</text>
<text xml:space="preserve" text-anchor="start" x="425.88" y="-182.5" font-family="Helvetica,sans-Serif" font-size="10.00">open()</text>
<text xml:space="preserve" text-anchor="start" x="415.88" y="-166.5" font-family="Helvetica,sans-Serif" font-size="10.00">+</text>
<text xml:space="preserve" text-anchor="start" x="425.88" y="-166.5" font-family="Helvetica,sans-Serif" font-size="10.00">close()</text>
<text xml:space="preserve" text-anchor="start" x="415.88" y="-150.5" font-family="Helvetica,sans-Serif" font-size="10.00">+</text>
<text xml:space="preserve" text-anchor="start" x="425.88" y="-150.5" font-family="Helvetica,sans-Serif" font-size="10.00">read()</text>
<text xml:space="preserve" text-anchor="start" x="415.88" y="-134.5" font-family="Helvetica,sans-Serif" font-size="10.00">+</text>
<text xml:space="preserve" text-anchor="start" x="425.88" y="-134.5" font-family="Helvetica,sans-Serif" font-size="10.00">beginUpdate()</text>
<text xml:space="preserve" text-anchor="start" x="415.88" y="-118.5" font-family="Helvetica,sans-Serif" font-size="10.00">+</text>
<text xml:space="preserve" text-anchor="start" x="425.88" y="-118.5" font-family="Helvetica,sans-Serif" font-size="10.00">endUpdate()</text>
<text xml:space="preserve" text-anchor="start" x="415.88" y="-102.5" font-family="Helvetica,sans-Serif" font-size="10.00">+</text>
<text xml:space="preserve" text-anchor="start" x="425.88" y="-102.5" font-family="Helvetica,sans-Serif" font-size="10.00">update()</text>
<text xml:space="preserve" text-anchor="start" x="415.88" y="-86.5" font-family="Helvetica,sans-Serif" font-size="10.00">+</text>
<text xml:space="preserve" text-anchor="start" x="425.88" y="-86.5" font-family="Helvetica,sans-Serif" font-size="10.00">getChannel()</text>
<text xml:space="preserve" text-anchor="start" x="415.88" y="-70.5" font-family="Helvetica,sans-Serif" font-size="10.00">+</text>
<text xml:space="preserve" text-anchor="start" x="425.88" y="-70.5" font-family="Helvetica,sans-Serif" font-size="10.00">getPanId()</text>
<text xml:space="preserve" text-anchor="start" x="415.88" y="-54.5" font-family="Helvetica,sans-Serif" font-size="10.00">+</text>
<text xml:space="preserve" text-anchor="start" x="425.88" y="-54.5" font-family="Helvetica,sans-Serif" font-size="10.00">setChannel()</text>
<text xml:space="preserve" text-anchor="start" x="415.88" y="-38.5" font-family="Helvetica,sans-Serif" font-size="10.00">+</text>
<text xml:space="preserve" text-anchor="start" x="425.88" y="-38.5" font-family="Helvetica,sans-Serif" font-size="10.00">setPanId()</text>
<text xml:space="preserve" text-anchor="start" x="415.88" y="-22.5" font-family="Helvetica,sans-Serif" font-size="10.00">+</text>
<text xml:space="preserve" text-anchor="start" x="425.88" y="-22.5" font-family="Helvetica,sans-Serif" font-size="10.00">setPauseReadDynamicParameters()</text>
<text xml:space="preserve" text-anchor="start" x="415.88" y="-6.5" font-family="Helvetica,sans-Serif" font-size="10.00">+</text>
<text xml:space="preserve" text-anchor="start" x="425.88" y="-6.5" font-family="Helvetica,sans-Serif" font-size="10.00">writeChanges()</text>
<polygon fill="#666666" stroke="#666666" points="411.88,-226 411.88,-226 589.62,-226 589.62,-226 411.88,-226"/>
<polygon fill="#666666" stroke="#666666" points="411.88,-210 411.88,-210 423.88,-210 423.88,-210 411.88,-210"/>
<polygon fill="#666666" stroke="#666666" points="423.88,-210 423.88,-210 589.62,-210 589.62,-210 423.88,-210"/>
<polygon fill="none" stroke="#666666" points="411.88,0 411.88,-244 589.62,-244 589.62,0 411.88,0"/>
</a>
</g>
</g>
<!-- Node1&#45;&gt;Node4 -->
<g id="edge3_Node000001_Node000004" class="edge">
<title>Node1&#45;&gt;Node4</title>
<g id="a_edge3_Node000001_Node000004"><a xlink:title=" ">
<path fill="none" stroke="#63b8ff" d="M441.79,-269.83C445.24,-261.23 448.74,-252.51 452.23,-243.82"/>
<polygon fill="none" stroke="#63b8ff" points="438.65,-268.26 438.17,-278.84 445.14,-270.87 438.65,-268.26"/>
</a>
</g>
</g>
<!-- Node5 -->
<g id="Node000005" class="node">
<title>Node5</title>
<g id="a_Node000005"><a xlink:href="../../dd/d07/class_lib_1_1_digi_1_1_a_p_i_1_1_service_1_1_spectrum_analyzer.html" target="_top" xlink:title="SpectrumAnalyzer service class.">
<polygon fill="white" stroke="none" points="799.62,-220 607.88,-220 607.88,-24 799.62,-24 799.62,-220"/>
<text xml:space="preserve" text-anchor="start" x="611.88" y="-206.5" font-family="Helvetica,sans-Serif" font-size="10.00">Lib::Digi::API::Service::SpectrumAnalyzer</text>
<text xml:space="preserve" text-anchor="start" x="702.25" y="-190.5" font-family="Helvetica,sans-Serif" font-size="10.00"> </text>
<text xml:space="preserve" text-anchor="start" x="633.75" y="-174.5" font-family="Helvetica,sans-Serif" font-size="10.00">+</text>
<text xml:space="preserve" text-anchor="start" x="665.62" y="-174.5" font-family="Helvetica,sans-Serif" font-size="10.00">SpectrumAnalyzer()</text>
<text xml:space="preserve" text-anchor="start" x="633.75" y="-158.5" font-family="Helvetica,sans-Serif" font-size="10.00">+</text>
<text xml:space="preserve" text-anchor="start" x="665.62" y="-158.5" font-family="Helvetica,sans-Serif" font-size="10.00">open()</text>
<text xml:space="preserve" text-anchor="start" x="633.75" y="-142.5" font-family="Helvetica,sans-Serif" font-size="10.00">+</text>
<text xml:space="preserve" text-anchor="start" x="665.62" y="-142.5" font-family="Helvetica,sans-Serif" font-size="10.00">close()</text>
<text xml:space="preserve" text-anchor="start" x="633.75" y="-126.5" font-family="Helvetica,sans-Serif" font-size="10.00">+</text>
<text xml:space="preserve" text-anchor="start" x="665.62" y="-126.5" font-family="Helvetica,sans-Serif" font-size="10.00">checkNewData()</text>
<text xml:space="preserve" text-anchor="start" x="633.75" y="-110.5" font-family="Helvetica,sans-Serif" font-size="10.00">+</text>
<text xml:space="preserve" text-anchor="start" x="665.62" y="-110.5" font-family="Helvetica,sans-Serif" font-size="10.00">beginUpdate()</text>
<text xml:space="preserve" text-anchor="start" x="633.75" y="-94.5" font-family="Helvetica,sans-Serif" font-size="10.00">+</text>
<text xml:space="preserve" text-anchor="start" x="665.62" y="-94.5" font-family="Helvetica,sans-Serif" font-size="10.00">update()</text>
<text xml:space="preserve" text-anchor="start" x="633.75" y="-78.5" font-family="Helvetica,sans-Serif" font-size="10.00">+</text>
<text xml:space="preserve" text-anchor="start" x="665.62" y="-78.5" font-family="Helvetica,sans-Serif" font-size="10.00">endUpdate()</text>
<text xml:space="preserve" text-anchor="start" x="633.75" y="-62.5" font-family="Helvetica,sans-Serif" font-size="10.00">+</text>
<text xml:space="preserve" text-anchor="start" x="665.62" y="-62.5" font-family="Helvetica,sans-Serif" font-size="10.00">getCurrentArray()</text>
<text xml:space="preserve" text-anchor="start" x="633.75" y="-46.5" font-family="Helvetica,sans-Serif" font-size="10.00">+</text>
<text xml:space="preserve" text-anchor="start" x="665.62" y="-46.5" font-family="Helvetica,sans-Serif" font-size="10.00">getAverageArray()</text>
<text xml:space="preserve" text-anchor="start" x="633.75" y="-30.5" font-family="Helvetica,sans-Serif" font-size="10.00">+</text>
<text xml:space="preserve" text-anchor="start" x="665.62" y="-30.5" font-family="Helvetica,sans-Serif" font-size="10.00">getMaxArray()</text>
<polygon fill="#666666" stroke="#666666" points="607.88,-202 607.88,-202 799.62,-202 799.62,-202 607.88,-202"/>
<polygon fill="#666666" stroke="#666666" points="607.88,-186 607.88,-186 799.62,-186 799.62,-186 607.88,-186"/>
<polygon fill="none" stroke="#666666" points="607.88,-24 607.88,-220 799.62,-220 799.62,-24 607.88,-24"/>
</a>
</g>
</g>
<!-- Node1&#45;&gt;Node5 -->
<g id="edge4_Node000001_Node000005" class="edge">
<title>Node1&#45;&gt;Node5</title>
<g id="a_edge4_Node000001_Node000005"><a xlink:title=" ">
<path fill="none" stroke="#63b8ff" d="M491.45,-322.73C526.59,-300.3 565.99,-272.82 598.75,-244 607.31,-236.47 615.83,-228.25 624.08,-219.75"/>
<polygon fill="none" stroke="#63b8ff" points="490.01,-319.5 483.42,-327.81 493.75,-325.42 490.01,-319.5"/>
</a>
</g>
</g>
</g>
</svg>
