<?xml version="1.0" encoding="UTF-8" standalone="no"?>
<!DOCTYPE svg PUBLIC "-//W3C//DTD SVG 1.1//EN"
 "http://www.w3.org/Graphics/SVG/1.1/DTD/svg11.dtd">
<!-- Generated by graphviz version 12.2.1 (20241206.2353)
 -->
<!-- Title: ChannelScanner.hpp Pages: 1 -->
<svg width="1114pt" height="208pt"
 viewBox="0.00 0.00 1113.88 208.00" xmlns="http://www.w3.org/2000/svg" xmlns:xlink="http://www.w3.org/1999/xlink">
<g id="graph0" class="graph" transform="scale(1 1) rotate(0) translate(4 204)">
<title>ChannelScanner.hpp</title>
<!-- Node1 -->
<g id="Node000001" class="node">
<title>Node1</title>
<g id="a_Node000001"><a xlink:title="Header file for the ChannelScanner service class.">
<polygon fill="#999999" stroke="#666666" points="997.25,-200 890.5,-200 890.5,-180 997.25,-180 997.25,-200"/>
<text text-anchor="middle" x="943.88" y="-186.5" font-family="Helvetica,sans-Serif" font-size="10.00">ChannelScanner.hpp</text>
</a>
</g>
</g>
<!-- Node2 -->
<g id="Node000002" class="node">
<title>Node2</title>
<g id="a_Node000002"><a xlink:title=" ">
<polygon fill="#e0e0e0" stroke="#999999" points="139.75,-82 0,-82 0,-62 139.75,-62 139.75,-82"/>
<text text-anchor="middle" x="69.88" y="-68.5" font-family="Helvetica,sans-Serif" font-size="10.00">Lib/Digi/API/Connection.hpp</text>
</a>
</g>
</g>
<!-- Node1&#45;&gt;Node2 -->
<g id="edge1_Node000001_Node000002" class="edge">
<title>Node1&#45;&gt;Node2</title>
<g id="a_edge1_Node000001_Node000002"><a xlink:title=" ">
<path fill="none" stroke="#63b8ff" d="M890.21,-183.33C761.79,-169.52 426.8,-132 148.88,-88 142.17,-86.94 135.16,-85.74 128.21,-84.49"/>
<polygon fill="#63b8ff" stroke="#63b8ff" points="128.95,-81.07 118.49,-82.71 127.69,-87.96 128.95,-81.07"/>
</a>
</g>
</g>
<!-- Node3 -->
<g id="Node000003" class="node">
<title>Node3</title>
<g id="a_Node000003"><a xlink:href="../../d4/d3e/a00116.html" target="_top" xlink:title="This file contains the declaration and implementation of the Parameters class, which is part of the L...">
<polygon fill="white" stroke="#666666" points="684.38,-144 599.38,-144 599.38,-124 684.38,-124 684.38,-144"/>
<text text-anchor="middle" x="641.88" y="-130.5" font-family="Helvetica,sans-Serif" font-size="10.00">Parameters.hpp</text>
</a>
</g>
</g>
<!-- Node1&#45;&gt;Node3 -->
<g id="edge2_Node000001_Node000003" class="edge">
<title>Node1&#45;&gt;Node3</title>
<g id="a_edge2_Node000001_Node000003"><a xlink:title=" ">
<path fill="none" stroke="#63b8ff" d="M890.93,-179.53C836.12,-169.73 750.96,-154.51 695.8,-144.64"/>
<polygon fill="#63b8ff" stroke="#63b8ff" points="696.46,-141.2 686,-142.89 695.23,-148.1 696.46,-141.2"/>
</a>
</g>
</g>
<!-- Node7 -->
<g id="Node000007" class="node">
<title>Node7</title>
<g id="a_Node000007"><a xlink:href="../../df/d6a/a00119.html" target="_top" xlink:title="Declaration of the ServiceBase class for the Xbee API services.">
<polygon fill="white" stroke="#666666" points="936,-82 845.75,-82 845.75,-62 936,-62 936,-82"/>
<text text-anchor="middle" x="890.88" y="-68.5" font-family="Helvetica,sans-Serif" font-size="10.00">ServiceBase.hpp</text>
</a>
</g>
</g>
<!-- Node1&#45;&gt;Node7 -->
<g id="edge11_Node000001_Node000007" class="edge">
<title>Node1&#45;&gt;Node7</title>
<g id="a_edge11_Node000001_Node000007"><a xlink:title=" ">
<path fill="none" stroke="#63b8ff" d="M939.54,-179.51C930.88,-160.55 911.28,-117.67 899.77,-92.48"/>
<polygon fill="#63b8ff" stroke="#63b8ff" points="903.09,-91.32 895.75,-83.68 896.73,-94.23 903.09,-91.32"/>
</a>
</g>
</g>
<!-- Node8 -->
<g id="Node000008" class="node">
<title>Node8</title>
<g id="a_Node000008"><a xlink:title=" ">
<polygon fill="#e0e0e0" stroke="#999999" points="967.5,-20 886.25,-20 886.25,0 967.5,0 967.5,-20"/>
<text text-anchor="middle" x="926.88" y="-6.5" font-family="Helvetica,sans-Serif" font-size="10.00">FreeRTOS.hpp</text>
</a>
</g>
</g>
<!-- Node1&#45;&gt;Node8 -->
<g id="edge13_Node000001_Node000008" class="edge">
<title>Node1&#45;&gt;Node8</title>
<g id="a_edge13_Node000001_Node000008"><a xlink:title=" ">
<path fill="none" stroke="#63b8ff" d="M945.21,-179.53C948.03,-157.57 953.65,-101.58 944.88,-56 943.23,-47.44 939.96,-38.44 936.67,-30.76"/>
<polygon fill="#63b8ff" stroke="#63b8ff" points="939.85,-29.31 932.47,-21.71 933.5,-32.25 939.85,-29.31"/>
</a>
</g>
</g>
<!-- Node11 -->
<g id="Node000011" class="node">
<title>Node11</title>
<g id="a_Node000011"><a xlink:title=" ">
<polygon fill="#e0e0e0" stroke="#999999" points="1029.75,-144 992,-144 992,-124 1029.75,-124 1029.75,-144"/>
<text text-anchor="middle" x="1010.88" y="-130.5" font-family="Helvetica,sans-Serif" font-size="10.00">array</text>
</a>
</g>
</g>
<!-- Node1&#45;&gt;Node11 -->
<g id="edge12_Node000001_Node000011" class="edge">
<title>Node1&#45;&gt;Node11</title>
<g id="a_edge12_Node000001_Node000011"><a xlink:title=" ">
<path fill="none" stroke="#63b8ff" d="M955.55,-179.59C965.15,-171.85 979,-160.69 990.44,-151.47"/>
<polygon fill="#63b8ff" stroke="#63b8ff" points="992.57,-154.25 998.16,-145.25 988.18,-148.8 992.57,-154.25"/>
</a>
</g>
</g>
<!-- Node12 -->
<g id="Node000012" class="node">
<title>Node12</title>
<g id="a_Node000012"><a xlink:title=" ">
<polygon fill="#e0e0e0" stroke="#999999" points="1105.88,-144 1047.88,-144 1047.88,-124 1105.88,-124 1105.88,-144"/>
<text text-anchor="middle" x="1076.88" y="-130.5" font-family="Helvetica,sans-Serif" font-size="10.00">functional</text>
</a>
</g>
</g>
<!-- Node1&#45;&gt;Node12 -->
<g id="edge14_Node000001_Node000012" class="edge">
<title>Node1&#45;&gt;Node12</title>
<g id="a_edge14_Node000001_Node000012"><a xlink:title=" ">
<path fill="none" stroke="#63b8ff" d="M967.04,-179.59C988.08,-171.05 1019.37,-158.35 1043.18,-148.68"/>
<polygon fill="#63b8ff" stroke="#63b8ff" points="1044.18,-152.05 1052.13,-145.05 1041.54,-145.57 1044.18,-152.05"/>
</a>
</g>
</g>
<!-- Node3&#45;&gt;Node2 -->
<g id="edge3_Node000003_Node000002" class="edge">
<title>Node3&#45;&gt;Node2</title>
<g id="a_edge3_Node000003_Node000002"><a xlink:title=" ">
<path fill="none" stroke="#63b8ff" d="M599.18,-130.5C513.51,-125.17 314.63,-111.25 148.88,-88 141.71,-87 134.22,-85.78 126.81,-84.49"/>
<polygon fill="#63b8ff" stroke="#63b8ff" points="127.66,-81.09 117.19,-82.75 126.41,-87.97 127.66,-81.09"/>
</a>
</g>
</g>
<!-- Node4 -->
<g id="Node000004" class="node">
<title>Node4</title>
<g id="a_Node000004"><a xlink:title=" ">
<polygon fill="#e0e0e0" stroke="#999999" points="261.75,-88 158,-88 158,-56 261.75,-56 261.75,-88"/>
<text text-anchor="start" x="166" y="-74.5" font-family="Helvetica,sans-Serif" font-size="10.00">Lib/Digi/Core/Frame</text>
<text text-anchor="middle" x="209.88" y="-62.5" font-family="Helvetica,sans-Serif" font-size="10.00">/Helper.hpp</text>
</a>
</g>
</g>
<!-- Node3&#45;&gt;Node4 -->
<g id="edge4_Node000003_Node000004" class="edge">
<title>Node3&#45;&gt;Node4</title>
<g id="a_edge4_Node000003_Node000004"><a xlink:title=" ">
<path fill="none" stroke="#63b8ff" d="M599.06,-129.49C531.77,-123.62 396.99,-110.37 273.2,-88.29"/>
<polygon fill="#63b8ff" stroke="#63b8ff" points="273.98,-84.87 263.52,-86.53 272.73,-91.76 273.98,-84.87"/>
</a>
</g>
</g>
<!-- Node5 -->
<g id="Node000005" class="node">
<title>Node5</title>
<g id="a_Node000005"><a xlink:title=" ">
<polygon fill="#e0e0e0" stroke="#999999" points="452.25,-82 279.5,-82 279.5,-62 452.25,-62 452.25,-82"/>
<text text-anchor="middle" x="365.88" y="-68.5" font-family="Helvetica,sans-Serif" font-size="10.00">Lib/Digi/Core/LocalAtCommand.hpp</text>
</a>
</g>
</g>
<!-- Node3&#45;&gt;Node5 -->
<g id="edge5_Node000003_Node000005" class="edge">
<title>Node3&#45;&gt;Node5</title>
<g id="a_edge5_Node000003_Node000005"><a xlink:title=" ">
<path fill="none" stroke="#63b8ff" d="M599.05,-123.69C550.95,-113.23 472.77,-96.24 420.35,-84.84"/>
<polygon fill="#63b8ff" stroke="#63b8ff" points="421.25,-81.46 410.73,-82.75 419.76,-88.3 421.25,-81.46"/>
</a>
</g>
</g>
<!-- Node6 -->
<g id="Node000006" class="node">
<title>Node6</title>
<g id="a_Node000006"><a xlink:title=" ">
<polygon fill="#e0e0e0" stroke="#999999" points="653.88,-82 469.88,-82 469.88,-62 653.88,-62 653.88,-82"/>
<text text-anchor="middle" x="561.88" y="-68.5" font-family="Helvetica,sans-Serif" font-size="10.00">Lib/Digi/Core/RemoteAtCommand.hpp</text>
</a>
</g>
</g>
<!-- Node3&#45;&gt;Node6 -->
<g id="edge6_Node000003_Node000006" class="edge">
<title>Node3&#45;&gt;Node6</title>
<g id="a_edge6_Node000003_Node000006"><a xlink:title=" ">
<path fill="none" stroke="#63b8ff" d="M629.38,-123.62C617.05,-114.38 597.96,-100.07 583.23,-89.01"/>
<polygon fill="#63b8ff" stroke="#63b8ff" points="585.6,-86.42 575.5,-83.22 581.4,-92.02 585.6,-86.42"/>
</a>
</g>
</g>
<!-- Node3&#45;&gt;Node7 -->
<g id="edge7_Node000003_Node000007" class="edge">
<title>Node3&#45;&gt;Node7</title>
<g id="a_edge7_Node000003_Node000007"><a xlink:title=" ">
<path fill="none" stroke="#63b8ff" d="M684.61,-123.71C724.21,-114.96 784.68,-101.26 836.88,-88 840.16,-87.16 843.56,-86.28 846.97,-85.37"/>
<polygon fill="#63b8ff" stroke="#63b8ff" points="847.61,-88.82 856.35,-82.83 845.78,-82.07 847.61,-88.82"/>
</a>
</g>
</g>
<!-- Node9 -->
<g id="Node000009" class="node">
<title>Node9</title>
<g id="a_Node000009"><a xlink:title=" ">
<polygon fill="#e0e0e0" stroke="#999999" points="769.75,-88 672,-88 672,-56 769.75,-56 769.75,-88"/>
<text text-anchor="start" x="680" y="-74.5" font-family="Helvetica,sans-Serif" font-size="10.00">Lib/Helper/Convert</text>
<text text-anchor="middle" x="720.88" y="-62.5" font-family="Helvetica,sans-Serif" font-size="10.00">/Bcd.hpp</text>
</a>
</g>
</g>
<!-- Node3&#45;&gt;Node9 -->
<g id="edge9_Node000003_Node000009" class="edge">
<title>Node3&#45;&gt;Node9</title>
<g id="a_edge9_Node000003_Node000009"><a xlink:title=" ">
<path fill="none" stroke="#63b8ff" d="M654.22,-123.62C664.21,-116.04 678.68,-105.05 691.59,-95.24"/>
<polygon fill="#63b8ff" stroke="#63b8ff" points="693.58,-98.12 699.43,-89.29 689.35,-92.55 693.58,-98.12"/>
</a>
</g>
</g>
<!-- Node10 -->
<g id="Node000010" class="node">
<title>Node10</title>
<g id="a_Node000010"><a xlink:title=" ">
<polygon fill="#e0e0e0" stroke="#999999" points="827.88,-82 787.88,-82 787.88,-62 827.88,-62 827.88,-82"/>
<text text-anchor="middle" x="807.88" y="-68.5" font-family="Helvetica,sans-Serif" font-size="10.00">string</text>
</a>
</g>
</g>
<!-- Node3&#45;&gt;Node10 -->
<g id="edge10_Node000003_Node000010" class="edge">
<title>Node3&#45;&gt;Node10</title>
<g id="a_edge10_Node000003_Node000010"><a xlink:title=" ">
<path fill="none" stroke="#63b8ff" d="M675.64,-123.55C703.71,-115.31 744.48,-102.44 778.88,-88 779.5,-87.74 780.12,-87.47 780.75,-87.2"/>
<polygon fill="#63b8ff" stroke="#63b8ff" points="782.03,-90.46 789.55,-83 779.02,-84.14 782.03,-90.46"/>
</a>
</g>
</g>
<!-- Node7&#45;&gt;Node8 -->
<g id="edge8_Node000007_Node000008" class="edge">
<title>Node7&#45;&gt;Node8</title>
<g id="a_edge8_Node000007_Node000008"><a xlink:title=" ">
<path fill="none" stroke="#63b8ff" d="M896.5,-61.62C901.6,-53.12 909.28,-40.33 915.63,-29.74"/>
<polygon fill="#63b8ff" stroke="#63b8ff" points="918.48,-31.79 920.63,-21.41 912.48,-28.18 918.48,-31.79"/>
</a>
</g>
</g>
</g>
</svg>
