<?xml version="1.0" encoding="UTF-8" standalone="no"?>
<!DOCTYPE svg PUBLIC "-//W3C//DTD SVG 1.1//EN"
 "http://www.w3.org/Graphics/SVG/1.1/DTD/svg11.dtd">
<!-- Generated by graphviz version 13.1.0 (20250701.0955)
 -->
<!-- Title: Lib::Helper::Integrator::process Pages: 1 -->
<svg width="287pt" height="78pt"
 viewBox="0.00 0.00 287.00 78.00" xmlns="http://www.w3.org/2000/svg" xmlns:xlink="http://www.w3.org/1999/xlink">
<g id="graph0" class="graph" transform="scale(1 1) rotate(0) translate(4 74)">
<title>Lib::Helper::Integrator::process</title>
<!-- Node1 -->
<g id="Node000001" class="node">
<title>Node1</title>
<g id="a_Node000001"><a xlink:title="Adds a value and returns the updated average in a single call.">
<polygon fill="#999999" stroke="#666666" points="110.5,-54 0,-54 0,-22 110.5,-22 110.5,-54"/>
<text xml:space="preserve" text-anchor="start" x="8" y="-40.5" font-family="Helvetica,sans-Serif" font-size="10.00">Lib::Helper::Integrator</text>
<text xml:space="preserve" text-anchor="middle" x="55.25" y="-28.5" font-family="Helvetica,sans-Serif" font-size="10.00">::process</text>
</a>
</g>
</g>
<!-- Node2 -->
<g id="Node000002" class="node">
<title>Node2</title>
<g id="a_Node000002"><a xlink:href="../../d0/dc0/a01652.html#a3f2f57aaa386b9f8a8d0daf879e84270" target="_top" xlink:title="Adds a new value to the integrator, removing the oldest if the buffer is full.">
<polygon fill="white" stroke="#666666" points="278.75,-70 146.5,-70 146.5,-50 278.75,-50 278.75,-70"/>
<text xml:space="preserve" text-anchor="middle" x="212.62" y="-56.5" font-family="Helvetica,sans-Serif" font-size="10.00">Lib::Helper::Integrator::add</text>
</a>
</g>
</g>
<!-- Node1&#45;&gt;Node2 -->
<g id="edge1_Node000001_Node000002" class="edge">
<title>Node1&#45;&gt;Node2</title>
<g id="a_edge1_Node000001_Node000002"><a xlink:title=" ">
<path fill="none" stroke="#63b8ff" d="M110.59,-45.69C118.47,-46.81 126.71,-47.98 134.93,-49.14"/>
<polygon fill="#63b8ff" stroke="#63b8ff" points="134.2,-52.57 144.6,-50.51 135.19,-45.64 134.2,-52.57"/>
</a>
</g>
</g>
<!-- Node3 -->
<g id="Node000003" class="node">
<title>Node3</title>
<g id="a_Node000003"><a xlink:href="../../d0/dc0/a01652.html#af0b0b3d534f728f885f81c41ea2eecc7" target="_top" xlink:title="Computes and returns the current average of the buffered values.">
<polygon fill="white" stroke="#666666" points="267.88,-32 157.38,-32 157.38,0 267.88,0 267.88,-32"/>
<text xml:space="preserve" text-anchor="start" x="165.38" y="-18.5" font-family="Helvetica,sans-Serif" font-size="10.00">Lib::Helper::Integrator</text>
<text xml:space="preserve" text-anchor="middle" x="212.62" y="-6.5" font-family="Helvetica,sans-Serif" font-size="10.00">::result</text>
</a>
</g>
</g>
<!-- Node1&#45;&gt;Node3 -->
<g id="edge2_Node000001_Node000003" class="edge">
<title>Node1&#45;&gt;Node3</title>
<g id="a_edge2_Node000001_Node000003"><a xlink:title=" ">
<path fill="none" stroke="#63b8ff" d="M110.59,-30.31C122,-28.69 134.15,-26.97 145.92,-25.3"/>
<polygon fill="#63b8ff" stroke="#63b8ff" points="146.14,-28.81 155.55,-23.94 145.16,-21.88 146.14,-28.81"/>
</a>
</g>
</g>
</g>
</svg>
