<?xml version="1.0" encoding="UTF-8" standalone="no"?>
<!DOCTYPE svg PUBLIC "-//W3C//DTD SVG 1.1//EN"
 "http://www.w3.org/Graphics/SVG/1.1/DTD/svg11.dtd">
<!-- Generated by graphviz version 13.1.0 (20250701.0955)
 -->
<!-- Title: AdcPortIT.hpp Pages: 1 -->
<svg width="86pt" height="140pt"
 viewBox="0.00 0.00 86.00 140.00" xmlns="http://www.w3.org/2000/svg" xmlns:xlink="http://www.w3.org/1999/xlink">
<g id="graph0" class="graph" transform="scale(1 1) rotate(0) translate(4 136)">
<title>AdcPortIT.hpp</title>
<!-- Node1 -->
<g id="Node000001" class="node">
<title>Node1</title>
<g id="a_Node000001"><a xlink:title="ADC interrupt&#45;driven port implementation.">
<polygon fill="#999999" stroke="#666666" points="78.25,-132 0,-132 0,-112 78.25,-112 78.25,-132"/>
<text xml:space="preserve" text-anchor="middle" x="39.12" y="-118.5" font-family="Helvetica,sans-Serif" font-size="10.00">AdcPortIT.hpp</text>
</a>
</g>
</g>
<!-- Node2 -->
<g id="Node000002" class="node">
<title>Node2</title>
<g id="a_Node000002"><a xlink:href="../../da/dad/_a_d_c_port_8hpp.html" target="_top" xlink:title="ADC port type aliases.">
<polygon fill="white" stroke="#666666" points="76.38,-76 1.88,-76 1.88,-56 76.38,-56 76.38,-76"/>
<text xml:space="preserve" text-anchor="middle" x="39.12" y="-62.5" font-family="Helvetica,sans-Serif" font-size="10.00">ADCPort.hpp</text>
</a>
</g>
</g>
<!-- Node1&#45;&gt;Node2 -->
<g id="edge1_Node000001_Node000002" class="edge">
<title>Node1&#45;&gt;Node2</title>
<g id="a_edge1_Node000001_Node000002"><a xlink:title=" ">
<path fill="none" stroke="#63b8ff" d="M39.12,-100.13C39.12,-91.9 39.12,-82.85 39.12,-76.3"/>
<polygon fill="#63b8ff" stroke="#63b8ff" points="35.63,-100.08 39.13,-110.08 42.63,-100.08 35.63,-100.08"/>
</a>
</g>
</g>
<!-- Node3 -->
<g id="Node000003" class="node">
<title>Node3</title>
<g id="a_Node000003"><a xlink:href="../../db/dea/_b_s_p_2_voltmeter_2_base_8hpp.html" target="_top" xlink:title="Base class for voltmeter devices.">
<polygon fill="white" stroke="#666666" points="67.75,-20 10.5,-20 10.5,0 67.75,0 67.75,-20"/>
<text xml:space="preserve" text-anchor="middle" x="39.12" y="-6.5" font-family="Helvetica,sans-Serif" font-size="10.00">Base.hpp</text>
</a>
</g>
</g>
<!-- Node2&#45;&gt;Node3 -->
<g id="edge2_Node000002_Node000003" class="edge">
<title>Node2&#45;&gt;Node3</title>
<g id="a_edge2_Node000002_Node000003"><a xlink:title=" ">
<path fill="none" stroke="#63b8ff" d="M39.12,-44.13C39.12,-35.9 39.12,-26.85 39.12,-20.3"/>
<polygon fill="#63b8ff" stroke="#63b8ff" points="35.63,-44.08 39.13,-54.08 42.63,-44.08 35.63,-44.08"/>
</a>
</g>
</g>
</g>
</svg>
