<?xml version="1.0" encoding="UTF-8" standalone="no"?>
<!DOCTYPE svg PUBLIC "-//W3C//DTD SVG 1.1//EN"
 "http://www.w3.org/Graphics/SVG/1.1/DTD/svg11.dtd">
<!-- Generated by graphviz version 12.2.1 (20241206.2353)
 -->
<!-- Title: Lib::HAL::GPIO::Input::setMode Pages: 1 -->
<svg width="286pt" height="140pt"
 viewBox="0.00 0.00 286.00 140.00" xmlns="http://www.w3.org/2000/svg" xmlns:xlink="http://www.w3.org/1999/xlink">
<g id="graph0" class="graph" transform="scale(1 1) rotate(0) translate(4 136)">
<title>Lib::HAL::GPIO::Input::setMode</title>
<!-- Node1 -->
<g id="Node000001" class="node">
<title>Node1</title>
<g id="a_Node000001"><a xlink:title="Configures the mode of the GPIO pin.">
<polygon fill="#999999" stroke="#666666" points="112.75,-82 0,-82 0,-50 112.75,-50 112.75,-82"/>
<text text-anchor="start" x="8" y="-68.5" font-family="Helvetica,sans-Serif" font-size="10.00">Lib::HAL::GPIO::Input</text>
<text text-anchor="middle" x="56.38" y="-56.5" font-family="Helvetica,sans-Serif" font-size="10.00">::setMode</text>
</a>
</g>
</g>
<!-- Node2 -->
<g id="Node000002" class="node">
<title>Node2</title>
<g id="a_Node000002"><a xlink:href="../../d0/d19/a00273.html#ac053911b956598be5316d18107d08c92" target="_top" xlink:title="Gets the pin number.">
<polygon fill="white" stroke="#666666" points="274.25,-132 152.5,-132 152.5,-100 274.25,-100 274.25,-132"/>
<text text-anchor="start" x="160.5" y="-118.5" font-family="Helvetica,sans-Serif" font-size="10.00">Lib::HAL::GPIO::Handle</text>
<text text-anchor="middle" x="213.38" y="-106.5" font-family="Helvetica,sans-Serif" font-size="10.00">::getPinNumber</text>
</a>
</g>
</g>
<!-- Node1&#45;&gt;Node2 -->
<g id="edge1_Node000001_Node000002" class="edge">
<title>Node1&#45;&gt;Node2</title>
<g id="a_edge1_Node000001_Node000002"><a xlink:title=" ">
<path fill="none" stroke="#63b8ff" d="M108.13,-82.37C121.71,-86.75 136.53,-91.54 150.63,-96.08"/>
<polygon fill="#63b8ff" stroke="#63b8ff" points="149.21,-99.3 159.8,-99.04 151.36,-92.64 149.21,-99.3"/>
</a>
</g>
</g>
<!-- Node3 -->
<g id="Node000003" class="node">
<title>Node3</title>
<g id="a_Node000003"><a xlink:href="../../d0/d19/a00273.html#a672f8792c2abb55f00e2ed43ebb2ae04" target="_top" xlink:title="Gets the GPIO port.">
<polygon fill="white" stroke="#666666" points="274.25,-82 152.5,-82 152.5,-50 274.25,-50 274.25,-82"/>
<text text-anchor="start" x="160.5" y="-68.5" font-family="Helvetica,sans-Serif" font-size="10.00">Lib::HAL::GPIO::Handle</text>
<text text-anchor="middle" x="213.38" y="-56.5" font-family="Helvetica,sans-Serif" font-size="10.00">::getPort</text>
</a>
</g>
</g>
<!-- Node1&#45;&gt;Node3 -->
<g id="edge2_Node000001_Node000003" class="edge">
<title>Node1&#45;&gt;Node3</title>
<g id="a_edge2_Node000001_Node000003"><a xlink:title=" ">
<path fill="none" stroke="#63b8ff" d="M112.9,-66C121.97,-66 131.49,-66 140.89,-66"/>
<polygon fill="#63b8ff" stroke="#63b8ff" points="140.74,-69.5 150.74,-66 140.74,-62.5 140.74,-69.5"/>
</a>
</g>
</g>
<!-- Node4 -->
<g id="Node000004" class="node">
<title>Node4</title>
<g id="a_Node000004"><a xlink:href="../../d3/d58/a00285.html#aae1c84e46a06a0099ea172710ba2fe4e" target="_top" xlink:title="Configures the mode of a GPIO pin.">
<polygon fill="white" stroke="#666666" points="278,-32 148.75,-32 148.75,0 278,0 278,-32"/>
<text text-anchor="start" x="156.75" y="-18.5" font-family="Helvetica,sans-Serif" font-size="10.00">Lib::HAL::GPIO::PinMode</text>
<text text-anchor="middle" x="213.38" y="-6.5" font-family="Helvetica,sans-Serif" font-size="10.00">::setMode</text>
</a>
</g>
</g>
<!-- Node1&#45;&gt;Node4 -->
<g id="edge3_Node000001_Node000004" class="edge">
<title>Node1&#45;&gt;Node4</title>
<g id="a_edge3_Node000001_Node000004"><a xlink:title=" ">
<path fill="none" stroke="#63b8ff" d="M108.13,-49.63C121.71,-45.25 136.53,-40.46 150.63,-35.92"/>
<polygon fill="#63b8ff" stroke="#63b8ff" points="151.36,-39.36 159.8,-32.96 149.21,-32.7 151.36,-39.36"/>
</a>
</g>
</g>
</g>
</svg>
