<?xml version="1.0" encoding="UTF-8" standalone="no"?>
<!DOCTYPE svg PUBLIC "-//W3C//DTD SVG 1.1//EN"
 "http://www.w3.org/Graphics/SVG/1.1/DTD/svg11.dtd">
<!-- Generated by graphviz version 13.1.0 (20250701.0955)
 -->
<!-- Title: Lib::BSP::EEPROM::I2C::M24C64W::write Pages: 1 -->
<svg width="712pt" height="28pt"
 viewBox="0.00 0.00 712.00 28.00" xmlns="http://www.w3.org/2000/svg" xmlns:xlink="http://www.w3.org/1999/xlink">
<g id="graph0" class="graph" transform="scale(1 1) rotate(0) translate(4 24)">
<title>Lib::BSP::EEPROM::I2C::M24C64W::write</title>
<!-- Node1 -->
<g id="Node000001" class="node">
<title>Node1</title>
<g id="a_Node000001"><a xlink:title="Writes data to EEPROM at specified address.">
<polygon fill="#999999" stroke="#666666" points="205,-20 0,-20 0,0 205,0 205,-20"/>
<text xml:space="preserve" text-anchor="middle" x="102.5" y="-6.5" font-family="Helvetica,sans-Serif" font-size="10.00">Lib::BSP::EEPROM::I2C::M24C64W::write</text>
</a>
</g>
</g>
<!-- Node2 -->
<g id="Node000002" class="node">
<title>Node2</title>
<g id="a_Node000002"><a xlink:href="../../d1/d8d/class_lib_1_1_b_s_p_1_1_e_e_p_r_o_m_1_1_i2_c_1_1_driver_base.html#a298219aa6f6e02d338b4591497dc1916" target="_top" xlink:title="Writes data to the EEPROM using 16&#45;bit memory addressing.">
<polygon fill="white" stroke="#666666" points="459.5,-20 241,-20 241,0 459.5,0 459.5,-20"/>
<text xml:space="preserve" text-anchor="middle" x="350.25" y="-6.5" font-family="Helvetica,sans-Serif" font-size="10.00">Lib::BSP::EEPROM::I2C::DriverBase::write16</text>
</a>
</g>
</g>
<!-- Node1&#45;&gt;Node2 -->
<g id="edge1_Node000001_Node000002" class="edge">
<title>Node1&#45;&gt;Node2</title>
<g id="a_edge1_Node000001_Node000002"><a xlink:title=" ">
<path fill="none" stroke="#63b8ff" d="M205.23,-10C213.22,-10 221.33,-10 229.42,-10"/>
<polygon fill="#63b8ff" stroke="#63b8ff" points="229.32,-13.5 239.32,-10 229.32,-6.5 229.32,-13.5"/>
</a>
</g>
</g>
<!-- Node3 -->
<g id="Node000003" class="node">
<title>Node3</title>
<g id="a_Node000003"><a xlink:href="../../d1/d8d/class_lib_1_1_b_s_p_1_1_e_e_p_r_o_m_1_1_i2_c_1_1_driver_base.html#ac9a6cb77bdd85caf6cecee2fc704cbbd" target="_top" xlink:title="Writes data to the EEPROM.">
<polygon fill="white" stroke="#666666" points="703.5,-20 495.5,-20 495.5,0 703.5,0 703.5,-20"/>
<text xml:space="preserve" text-anchor="middle" x="599.5" y="-6.5" font-family="Helvetica,sans-Serif" font-size="10.00">Lib::BSP::EEPROM::I2C::DriverBase::write</text>
</a>
</g>
</g>
<!-- Node2&#45;&gt;Node3 -->
<g id="edge2_Node000002_Node000003" class="edge">
<title>Node2&#45;&gt;Node3</title>
<g id="a_edge2_Node000002_Node000003"><a xlink:title=" ">
<path fill="none" stroke="#63b8ff" d="M459.7,-10C467.72,-10 475.83,-10 483.9,-10"/>
<polygon fill="#63b8ff" stroke="#63b8ff" points="483.73,-13.5 493.73,-10 483.73,-6.5 483.73,-13.5"/>
</a>
</g>
</g>
</g>
</svg>
