<?xml version="1.0" encoding="UTF-8" standalone="no"?>
<!DOCTYPE svg PUBLIC "-//W3C//DTD SVG 1.1//EN"
 "http://www.w3.org/Graphics/SVG/1.1/DTD/svg11.dtd">
<!-- Generated by graphviz version 13.1.0 (20250701.0955)
 -->
<!-- Title: ModelXbee::Listener Pages: 1 -->
<svg width="163pt" height="389pt"
 viewBox="0.00 0.00 163.00 389.00" xmlns="http://www.w3.org/2000/svg" xmlns:xlink="http://www.w3.org/1999/xlink">
<g id="graph0" class="graph" transform="scale(1 1) rotate(0) translate(4 385)">
<title>ModelXbee::Listener</title>
<!-- Node1 -->
<g id="Node000001" class="node">
<title>Node1</title>
<g id="a_Node000001"><a xlink:title="Listener class for ModelXbee events.">
<polygon fill="#999999" stroke="none" points="154.5,-381 0,-381 0,-83.5 154.5,-83.5 154.5,-381"/>
<text xml:space="preserve" text-anchor="start" x="34.88" y="-368.45" font-family="Arial" font-size="9.00">ModelXbee::Listener</text>
<text xml:space="preserve" text-anchor="start" x="76.12" y="-353.95" font-family="Arial" font-size="9.00"> </text>
<text xml:space="preserve" text-anchor="start" x="4" y="-339.45" font-family="Arial" font-size="9.00">+</text>
<text xml:space="preserve" text-anchor="start" x="13.25" y="-339.45" font-family="Arial" font-size="9.00">Listener()=default</text>
<text xml:space="preserve" text-anchor="start" x="4" y="-324.95" font-family="Arial" font-size="9.00">+</text>
<text xml:space="preserve" text-anchor="start" x="13.25" y="-324.95" font-family="Arial" font-size="9.00">virtual ~Listener()</text>
<text xml:space="preserve" text-anchor="start" x="13.25" y="-314.45" font-family="Arial" font-size="9.00">=default</text>
<text xml:space="preserve" text-anchor="start" x="4" y="-299.95" font-family="Arial" font-size="9.00">+</text>
<text xml:space="preserve" text-anchor="start" x="13.25" y="-299.95" font-family="Arial" font-size="9.00">virtual void xbeeSignalStrength</text>
<text xml:space="preserve" text-anchor="start" x="13.25" y="-289.45" font-family="Arial" font-size="9.00">ValueChanged(float value)</text>
<text xml:space="preserve" text-anchor="start" x="4" y="-274.95" font-family="Arial" font-size="9.00">+</text>
<text xml:space="preserve" text-anchor="start" x="13.25" y="-274.95" font-family="Arial" font-size="9.00">virtual void xbeeSignalStrength</text>
<text xml:space="preserve" text-anchor="start" x="13.25" y="-264.45" font-family="Arial" font-size="9.00">MinValueChanged(uint8_t value)</text>
<text xml:space="preserve" text-anchor="start" x="4" y="-249.95" font-family="Arial" font-size="9.00">+</text>
<text xml:space="preserve" text-anchor="start" x="13.25" y="-249.95" font-family="Arial" font-size="9.00">virtual void xbeeSignalStrength</text>
<text xml:space="preserve" text-anchor="start" x="13.25" y="-239.45" font-family="Arial" font-size="9.00">MaxValueChanged(uint8_t value)</text>
<text xml:space="preserve" text-anchor="start" x="4" y="-224.95" font-family="Arial" font-size="9.00">+</text>
<text xml:space="preserve" text-anchor="start" x="13.25" y="-224.95" font-family="Arial" font-size="9.00">virtual void xbeeConnection</text>
<text xml:space="preserve" text-anchor="start" x="13.25" y="-214.45" font-family="Arial" font-size="9.00">StateChanged(uint8_t value)</text>
<text xml:space="preserve" text-anchor="start" x="4" y="-199.95" font-family="Arial" font-size="9.00">+</text>
<text xml:space="preserve" text-anchor="start" x="13.25" y="-199.95" font-family="Arial" font-size="9.00">virtual void xbeeRetryCounter</text>
<text xml:space="preserve" text-anchor="start" x="13.25" y="-189.45" font-family="Arial" font-size="9.00">Changed(uint32_t value)</text>
<text xml:space="preserve" text-anchor="start" x="4" y="-174.95" font-family="Arial" font-size="9.00">+</text>
<text xml:space="preserve" text-anchor="start" x="13.25" y="-174.95" font-family="Arial" font-size="9.00">virtual void xbeeReconnection</text>
<text xml:space="preserve" text-anchor="start" x="13.25" y="-164.45" font-family="Arial" font-size="9.00">CounterChanged(uint32_t value)</text>
<text xml:space="preserve" text-anchor="start" x="4" y="-149.95" font-family="Arial" font-size="9.00">+</text>
<text xml:space="preserve" text-anchor="start" x="13.25" y="-149.95" font-family="Arial" font-size="9.00">virtual void xbeeSignalStrength</text>
<text xml:space="preserve" text-anchor="start" x="13.25" y="-139.45" font-family="Arial" font-size="9.00">AddDataPoint(float value)</text>
<text xml:space="preserve" text-anchor="start" x="4" y="-124.95" font-family="Arial" font-size="9.00">+</text>
<text xml:space="preserve" text-anchor="start" x="13.25" y="-124.95" font-family="Arial" font-size="9.00">virtual void xbeeTransmit</text>
<text xml:space="preserve" text-anchor="start" x="13.25" y="-114.45" font-family="Arial" font-size="9.00">TimeValueChanged(uint32</text>
<text xml:space="preserve" text-anchor="start" x="13.25" y="-103.95" font-family="Arial" font-size="9.00">_t value)</text>
<text xml:space="preserve" text-anchor="start" x="13.25" y="-89.45" font-family="Arial" font-size="9.00">and 13 more...</text>
<polygon fill="#666666" stroke="#666666" points="0,-364.5 0,-364.5 154.5,-364.5 154.5,-364.5 0,-364.5"/>
<polygon fill="#666666" stroke="#666666" points="0,-350 0,-350 154.5,-350 154.5,-350 0,-350"/>
<polygon fill="none" stroke="#666666" points="0,-83.5 0,-381 154.5,-381 154.5,-83.5 0,-83.5"/>
</a>
</g>
</g>
<!-- Node2 -->
<g id="Node000002" class="node">
<title>Node2</title>
<g id="a_Node000002"><a xlink:href="../../df/d93/class_model_base_1_1_listener.html" target="_top" xlink:title="Listener interface for model events.">
<polygon fill="white" stroke="none" points="123.25,-47.5 31.25,-47.5 31.25,0 123.25,0 123.25,-47.5"/>
<text xml:space="preserve" text-anchor="start" x="35.25" y="-34.95" font-family="Arial" font-size="9.00">ModelBase::Listener</text>
<text xml:space="preserve" text-anchor="start" x="76.12" y="-20.45" font-family="Arial" font-size="9.00"> </text>
<text xml:space="preserve" text-anchor="start" x="76.12" y="-5.95" font-family="Arial" font-size="9.00"> </text>
<polygon fill="#666666" stroke="#666666" points="31.25,-31 31.25,-31 123.25,-31 123.25,-31 31.25,-31"/>
<polygon fill="#666666" stroke="#666666" points="31.25,-16.5 31.25,-16.5 123.25,-16.5 123.25,-16.5 31.25,-16.5"/>
<polygon fill="none" stroke="#666666" points="31.25,0 31.25,-47.5 123.25,-47.5 123.25,0 31.25,0"/>
</a>
</g>
</g>
<!-- Node1&#45;&gt;Node2 -->
<g id="edge1_Node000001_Node000002" class="edge">
<title>Node1&#45;&gt;Node2</title>
<g id="a_edge1_Node000001_Node000002"><a xlink:title=" ">
<path fill="none" stroke="#63b8ff" d="M77.25,-72.27C77.25,-62.9 77.25,-54.4 77.25,-47.26"/>
<polygon fill="none" stroke="#63b8ff" points="73.75,-72.13 77.25,-82.13 80.75,-72.13 73.75,-72.13"/>
</a>
</g>
</g>
</g>
</svg>
