<?xml version="1.0" encoding="UTF-8" standalone="no"?>
<!DOCTYPE svg PUBLIC "-//W3C//DTD SVG 1.1//EN"
 "http://www.w3.org/Graphics/SVG/1.1/DTD/svg11.dtd">
<!-- Generated by graphviz version 14.0.5 (20251129.0259)
 -->
<!-- Title: StreamBuffer.hpp Pages: 1 -->
<svg width="370pt" height="84pt"
 viewBox="0.00 0.00 370.00 84.00" xmlns="http://www.w3.org/2000/svg" xmlns:xlink="http://www.w3.org/1999/xlink">
<g id="graph0" class="graph" transform="scale(1 1) rotate(0) translate(4 80)">
<title>StreamBuffer.hpp</title>
<!-- Node1 -->
<g id="Node000001" class="node">
<title>Node1</title>
<g id="a_Node000001"><a xlink:title="StreamBuffer class.">
<polygon fill="#999999" stroke="#666666" points="260.25,-76 168.5,-76 168.5,-56 260.25,-56 260.25,-76"/>
<text xml:space="preserve" text-anchor="middle" x="214.38" y="-62.5" font-family="Helvetica,sans-Serif" font-size="10.00">StreamBuffer.hpp</text>
</a>
</g>
</g>
<!-- Node2 -->
<g id="Node000002" class="node">
<title>Node2</title>
<g id="a_Node000002"><a xlink:title=" ">
<polygon fill="#e0e0e0" stroke="#999999" points="70.75,-20 0,-20 0,0 70.75,0 70.75,-20"/>
<text xml:space="preserve" text-anchor="middle" x="35.38" y="-6.5" font-family="Helvetica,sans-Serif" font-size="10.00">FreeRTOS.h</text>
</a>
</g>
</g>
<!-- Node1&#45;&gt;Node2 -->
<g id="edge1_Node000001_Node000002" class="edge">
<title>Node1&#45;&gt;Node2</title>
<g id="a_edge1_Node000001_Node000002"><a xlink:title=" ">
<path fill="none" stroke="#63b8ff" d="M183.2,-55.59C153.99,-46.78 110.1,-33.54 77.72,-23.78"/>
<polygon fill="#63b8ff" stroke="#63b8ff" points="78.83,-20.45 68.25,-20.92 76.81,-27.16 78.83,-20.45"/>
</a>
</g>
</g>
<!-- Node3 -->
<g id="Node000003" class="node">
<title>Node3</title>
<g id="a_Node000003"><a xlink:title=" ">
<polygon fill="#e0e0e0" stroke="#999999" points="172.12,-20 88.62,-20 88.62,0 172.12,0 172.12,-20"/>
<text xml:space="preserve" text-anchor="middle" x="130.38" y="-6.5" font-family="Helvetica,sans-Serif" font-size="10.00">stream_buffer.h</text>
</a>
</g>
</g>
<!-- Node1&#45;&gt;Node3 -->
<g id="edge2_Node000001_Node000003" class="edge">
<title>Node1&#45;&gt;Node3</title>
<g id="a_edge2_Node000001_Node000003"><a xlink:title=" ">
<path fill="none" stroke="#63b8ff" d="M199.74,-55.59C187.29,-47.59 169.16,-35.93 154.55,-26.54"/>
<polygon fill="#63b8ff" stroke="#63b8ff" points="156.7,-23.76 146.39,-21.3 152.91,-29.65 156.7,-23.76"/>
</a>
</g>
</g>
<!-- Node4 -->
<g id="Node000004" class="node">
<title>Node4</title>
<g id="a_Node000004"><a xlink:title=" ">
<polygon fill="#e0e0e0" stroke="#999999" points="238.5,-20 190.25,-20 190.25,0 238.5,0 238.5,-20"/>
<text xml:space="preserve" text-anchor="middle" x="214.38" y="-6.5" font-family="Helvetica,sans-Serif" font-size="10.00">cassert</text>
</a>
</g>
</g>
<!-- Node1&#45;&gt;Node4 -->
<g id="edge3_Node000001_Node000004" class="edge">
<title>Node1&#45;&gt;Node4</title>
<g id="a_edge3_Node000001_Node000004"><a xlink:title=" ">
<path fill="none" stroke="#63b8ff" d="M214.38,-55.59C214.38,-49.01 214.38,-39.96 214.38,-31.73"/>
<polygon fill="#63b8ff" stroke="#63b8ff" points="217.88,-31.81 214.38,-21.81 210.88,-31.81 217.88,-31.81"/>
</a>
</g>
</g>
<!-- Node5 -->
<g id="Node000005" class="node">
<title>Node5</title>
<g id="a_Node000005"><a xlink:title=" ">
<polygon fill="#e0e0e0" stroke="#999999" points="304.5,-20 256.25,-20 256.25,0 304.5,0 304.5,-20"/>
<text xml:space="preserve" text-anchor="middle" x="280.38" y="-6.5" font-family="Helvetica,sans-Serif" font-size="10.00">cstddef</text>
</a>
</g>
</g>
<!-- Node1&#45;&gt;Node5 -->
<g id="edge4_Node000001_Node000005" class="edge">
<title>Node1&#45;&gt;Node5</title>
<g id="a_edge4_Node000001_Node000005"><a xlink:title=" ">
<path fill="none" stroke="#63b8ff" d="M225.87,-55.59C235.34,-47.85 248.98,-36.69 260.25,-27.47"/>
<polygon fill="#63b8ff" stroke="#63b8ff" points="262.32,-30.3 267.84,-21.26 257.88,-24.88 262.32,-30.3"/>
</a>
</g>
</g>
<!-- Node6 -->
<g id="Node000006" class="node">
<title>Node6</title>
<g id="a_Node000006"><a xlink:title=" ">
<polygon fill="#e0e0e0" stroke="#999999" points="362,-20 322.75,-20 322.75,0 362,0 362,-20"/>
<text xml:space="preserve" text-anchor="middle" x="342.38" y="-6.5" font-family="Helvetica,sans-Serif" font-size="10.00">utility</text>
</a>
</g>
</g>
<!-- Node1&#45;&gt;Node6 -->
<g id="edge5_Node000001_Node000006" class="edge">
<title>Node1&#45;&gt;Node6</title>
<g id="a_edge5_Node000001_Node000006"><a xlink:title=" ">
<path fill="none" stroke="#63b8ff" d="M236.67,-55.59C257.57,-46.78 288.98,-33.53 312.13,-23.76"/>
<polygon fill="#63b8ff" stroke="#63b8ff" points="313.19,-27.11 321.04,-20 310.47,-20.66 313.19,-27.11"/>
</a>
</g>
</g>
</g>
</svg>
