<?xml version="1.0" encoding="UTF-8" standalone="no"?>
<!DOCTYPE svg PUBLIC "-//W3C//DTD SVG 1.1//EN"
 "http://www.w3.org/Graphics/SVG/1.1/DTD/svg11.dtd">
<!-- Generated by graphviz version 13.1.0 (20250701.0955)
 -->
<!-- Title: Lib::HAL::SPI::Master::Port&lt; DMA &gt; Pages: 1 -->
<svg width="315pt" height="991pt"
 viewBox="0.00 0.00 315.00 991.00" xmlns="http://www.w3.org/2000/svg" xmlns:xlink="http://www.w3.org/1999/xlink">
<g id="graph0" class="graph" transform="scale(1 1) rotate(0) translate(4 987)">
<title>Lib::HAL::SPI::Master::Port&lt; DMA &gt;</title>
<!-- Node1 -->
<g id="Node000001" class="node">
<title>Node1</title>
<g id="a_Node000001"><a xlink:title="SPI Master DMA port specialization.">
<polygon fill="#999999" stroke="none" points="250.38,-232 131.12,-232 131.12,0 250.38,0 250.38,-232"/>
<text xml:space="preserve" text-anchor="start" x="147.62" y="-219.45" font-family="Arial" font-size="9.00">Lib::HAL::SPI::Master</text>
<text xml:space="preserve" text-anchor="start" x="163" y="-208.95" font-family="Arial" font-size="9.00">::Port&lt; DMA &gt;</text>
<text xml:space="preserve" text-anchor="start" x="189.62" y="-194.45" font-family="Arial" font-size="9.00"> </text>
<text xml:space="preserve" text-anchor="start" x="135.12" y="-179.95" font-family="Arial" font-size="9.00">+</text>
<text xml:space="preserve" text-anchor="start" x="144.38" y="-179.95" font-family="Arial" font-size="9.00">Port()</text>
<text xml:space="preserve" text-anchor="start" x="135.12" y="-165.45" font-family="Arial" font-size="9.00">+</text>
<text xml:space="preserve" text-anchor="start" x="144.38" y="-165.45" font-family="Arial" font-size="9.00">~Port()</text>
<text xml:space="preserve" text-anchor="start" x="135.12" y="-150.95" font-family="Arial" font-size="9.00">+</text>
<text xml:space="preserve" text-anchor="start" x="144.38" y="-150.95" font-family="Arial" font-size="9.00">open()</text>
<text xml:space="preserve" text-anchor="start" x="135.12" y="-136.45" font-family="Arial" font-size="9.00">+</text>
<text xml:space="preserve" text-anchor="start" x="144.38" y="-136.45" font-family="Arial" font-size="9.00">close()</text>
<text xml:space="preserve" text-anchor="start" x="135.12" y="-121.95" font-family="Arial" font-size="9.00">+</text>
<text xml:space="preserve" text-anchor="start" x="144.38" y="-121.95" font-family="Arial" font-size="9.00">init()</text>
<text xml:space="preserve" text-anchor="start" x="135.12" y="-107.45" font-family="Arial" font-size="9.00">+</text>
<text xml:space="preserve" text-anchor="start" x="144.38" y="-107.45" font-family="Arial" font-size="9.00">deinit()</text>
<text xml:space="preserve" text-anchor="start" x="135.12" y="-92.95" font-family="Arial" font-size="9.00">+</text>
<text xml:space="preserve" text-anchor="start" x="144.38" y="-92.95" font-family="Arial" font-size="9.00">receive()</text>
<text xml:space="preserve" text-anchor="start" x="135.12" y="-78.45" font-family="Arial" font-size="9.00">+</text>
<text xml:space="preserve" text-anchor="start" x="144.38" y="-78.45" font-family="Arial" font-size="9.00">send()</text>
<text xml:space="preserve" text-anchor="start" x="135.12" y="-63.95" font-family="Arial" font-size="9.00">+</text>
<text xml:space="preserve" text-anchor="start" x="144.38" y="-63.95" font-family="Arial" font-size="9.00">sendReceive()</text>
<text xml:space="preserve" text-anchor="start" x="135.12" y="-49.45" font-family="Arial" font-size="9.00">+</text>
<text xml:space="preserve" text-anchor="start" x="144.38" y="-49.45" font-family="Arial" font-size="9.00">getHandle()</text>
<text xml:space="preserve" text-anchor="start" x="135.12" y="-34.95" font-family="Arial" font-size="9.00">+</text>
<text xml:space="preserve" text-anchor="start" x="144.38" y="-34.95" font-family="Arial" font-size="9.00">waitForRxCompleted()</text>
<text xml:space="preserve" text-anchor="start" x="135.12" y="-20.45" font-family="Arial" font-size="9.00">+</text>
<text xml:space="preserve" text-anchor="start" x="144.38" y="-20.45" font-family="Arial" font-size="9.00">waitForTxCompleted()</text>
<text xml:space="preserve" text-anchor="start" x="135.12" y="-5.95" font-family="Arial" font-size="9.00">+</text>
<text xml:space="preserve" text-anchor="start" x="144.38" y="-5.95" font-family="Arial" font-size="9.00">waitForTxRxCompleted()</text>
<polygon fill="#666666" stroke="#666666" points="131.12,-205 131.12,-205 250.38,-205 250.38,-205 131.12,-205"/>
<polygon fill="#666666" stroke="#666666" points="131.12,-190.5 131.12,-190.5 250.38,-190.5 250.38,-190.5 131.12,-190.5"/>
<polygon fill="none" stroke="#666666" points="131.12,0 131.12,-232 250.38,-232 250.38,0 131.12,0"/>
</a>
</g>
</g>
<!-- Node2 -->
<g id="Node000002" class="node">
<title>Node2</title>
<g id="a_Node000002"><a xlink:href="../../d3/d33/a01630.html" target="_top" xlink:title="Transparent SPI master base class with FreeRTOS event notification.">
<polygon fill="white" stroke="none" points="187.25,-618 88.25,-618 88.25,-328 187.25,-328 187.25,-618"/>
<text xml:space="preserve" text-anchor="start" x="94.62" y="-605.45" font-family="Arial" font-size="9.00">Lib::HAL::SPI::Master</text>
<text xml:space="preserve" text-anchor="start" x="100.25" y="-594.95" font-family="Arial" font-size="9.00">::TransperentBase</text>
<text xml:space="preserve" text-anchor="start" x="136.62" y="-580.45" font-family="Arial" font-size="9.00"> </text>
<text xml:space="preserve" text-anchor="start" x="92.25" y="-565.95" font-family="Arial" font-size="9.00">+</text>
<text xml:space="preserve" text-anchor="start" x="101.5" y="-565.95" font-family="Arial" font-size="9.00">~TransperentBase()</text>
<text xml:space="preserve" text-anchor="start" x="92.25" y="-551.45" font-family="Arial" font-size="9.00">+</text>
<text xml:space="preserve" text-anchor="start" x="101.5" y="-551.45" font-family="Arial" font-size="9.00">getHandle()</text>
<text xml:space="preserve" text-anchor="start" x="92.25" y="-536.95" font-family="Arial" font-size="9.00">+</text>
<text xml:space="preserve" text-anchor="start" x="101.5" y="-536.95" font-family="Arial" font-size="9.00">open()</text>
<text xml:space="preserve" text-anchor="start" x="92.25" y="-522.45" font-family="Arial" font-size="9.00">+</text>
<text xml:space="preserve" text-anchor="start" x="101.5" y="-522.45" font-family="Arial" font-size="9.00">close()</text>
<text xml:space="preserve" text-anchor="start" x="92.25" y="-507.95" font-family="Arial" font-size="9.00">+</text>
<text xml:space="preserve" text-anchor="start" x="101.5" y="-507.95" font-family="Arial" font-size="9.00">init()</text>
<text xml:space="preserve" text-anchor="start" x="92.25" y="-493.45" font-family="Arial" font-size="9.00">+</text>
<text xml:space="preserve" text-anchor="start" x="101.5" y="-493.45" font-family="Arial" font-size="9.00">deinit()</text>
<text xml:space="preserve" text-anchor="start" x="92.25" y="-478.95" font-family="Arial" font-size="9.00">+</text>
<text xml:space="preserve" text-anchor="start" x="101.5" y="-478.95" font-family="Arial" font-size="9.00">receive()</text>
<text xml:space="preserve" text-anchor="start" x="92.25" y="-464.45" font-family="Arial" font-size="9.00">+</text>
<text xml:space="preserve" text-anchor="start" x="101.5" y="-464.45" font-family="Arial" font-size="9.00">send()</text>
<text xml:space="preserve" text-anchor="start" x="92.25" y="-449.95" font-family="Arial" font-size="9.00">+</text>
<text xml:space="preserve" text-anchor="start" x="101.5" y="-449.95" font-family="Arial" font-size="9.00">sendReceive()</text>
<text xml:space="preserve" text-anchor="start" x="92.25" y="-435.45" font-family="Arial" font-size="9.00">+</text>
<text xml:space="preserve" text-anchor="start" x="101.5" y="-435.45" font-family="Arial" font-size="9.00">abort()</text>
<text xml:space="preserve" text-anchor="start" x="101.5" y="-420.95" font-family="Arial" font-size="9.00">and 12 more...</text>
<text xml:space="preserve" text-anchor="start" x="92.25" y="-406.45" font-family="Arial" font-size="9.00">#</text>
<text xml:space="preserve" text-anchor="start" x="101.5" y="-406.45" font-family="Arial" font-size="9.00">TransperentBase()</text>
<text xml:space="preserve" text-anchor="start" x="92.25" y="-391.95" font-family="Arial" font-size="9.00">#</text>
<text xml:space="preserve" text-anchor="start" x="101.5" y="-391.95" font-family="Arial" font-size="9.00">receiveFunc()</text>
<text xml:space="preserve" text-anchor="start" x="92.25" y="-377.45" font-family="Arial" font-size="9.00">#</text>
<text xml:space="preserve" text-anchor="start" x="101.5" y="-377.45" font-family="Arial" font-size="9.00">sendFunc()</text>
<text xml:space="preserve" text-anchor="start" x="92.25" y="-362.95" font-family="Arial" font-size="9.00">#</text>
<text xml:space="preserve" text-anchor="start" x="101.5" y="-362.95" font-family="Arial" font-size="9.00">sendReceiveFunc()</text>
<text xml:space="preserve" text-anchor="start" x="92.25" y="-348.45" font-family="Arial" font-size="9.00">#</text>
<text xml:space="preserve" text-anchor="start" x="101.5" y="-348.45" font-family="Arial" font-size="9.00">abortFunc()</text>
<text xml:space="preserve" text-anchor="start" x="92.25" y="-333.95" font-family="Arial" font-size="9.00">#</text>
<text xml:space="preserve" text-anchor="start" x="101.5" y="-333.95" font-family="Arial" font-size="9.00">emitCallback()</text>
<polygon fill="#666666" stroke="#666666" points="88.25,-591 88.25,-591 187.25,-591 187.25,-591 88.25,-591"/>
<polygon fill="#666666" stroke="#666666" points="88.25,-576.5 88.25,-576.5 187.25,-576.5 187.25,-576.5 88.25,-576.5"/>
<polygon fill="none" stroke="#666666" points="88.25,-328 88.25,-618 187.25,-618 187.25,-328 88.25,-328"/>
</a>
</g>
</g>
<!-- Node2&#45;&gt;Node1 -->
<g id="edge1_Node000001_Node000002" class="edge">
<title>Node2&#45;&gt;Node1</title>
<g id="a_edge1_Node000001_Node000002"><a xlink:title=" ">
<path fill="none" stroke="#63b8ff" d="M160.92,-316.81C165.18,-288.3 169.55,-259.01 173.59,-231.95"/>
<polygon fill="none" stroke="#63b8ff" points="157.47,-316.22 159.45,-326.62 164.39,-317.25 157.47,-316.22"/>
</a>
</g>
</g>
<!-- Node3 -->
<g id="Node000003" class="node">
<title>Node3</title>
<g id="a_Node000003"><a xlink:href="../../d1/d3a/a01622.html" target="_top" xlink:title="Abstract SPI master base class.">
<polygon fill="white" stroke="none" points="184.88,-858 90.62,-858 90.62,-655 184.88,-655 184.88,-858"/>
<text xml:space="preserve" text-anchor="start" x="94.62" y="-845.45" font-family="Arial" font-size="9.00">Lib::HAL::SPI::Master</text>
<text xml:space="preserve" text-anchor="start" x="125" y="-834.95" font-family="Arial" font-size="9.00">::Base</text>
<text xml:space="preserve" text-anchor="start" x="136.62" y="-820.45" font-family="Arial" font-size="9.00"> </text>
<text xml:space="preserve" text-anchor="start" x="98.88" y="-805.95" font-family="Arial" font-size="9.00">+</text>
<text xml:space="preserve" text-anchor="start" x="112.38" y="-805.95" font-family="Arial" font-size="9.00">Base()</text>
<text xml:space="preserve" text-anchor="start" x="98.88" y="-791.45" font-family="Arial" font-size="9.00">+</text>
<text xml:space="preserve" text-anchor="start" x="112.38" y="-791.45" font-family="Arial" font-size="9.00">~Base()</text>
<text xml:space="preserve" text-anchor="start" x="98.88" y="-776.95" font-family="Arial" font-size="9.00">+</text>
<text xml:space="preserve" text-anchor="start" x="112.38" y="-776.95" font-family="Arial" font-size="9.00">open()</text>
<text xml:space="preserve" text-anchor="start" x="98.88" y="-762.45" font-family="Arial" font-size="9.00">+</text>
<text xml:space="preserve" text-anchor="start" x="112.38" y="-762.45" font-family="Arial" font-size="9.00">close()</text>
<text xml:space="preserve" text-anchor="start" x="98.88" y="-747.95" font-family="Arial" font-size="9.00">+</text>
<text xml:space="preserve" text-anchor="start" x="112.38" y="-747.95" font-family="Arial" font-size="9.00">init()</text>
<text xml:space="preserve" text-anchor="start" x="98.88" y="-733.45" font-family="Arial" font-size="9.00">+</text>
<text xml:space="preserve" text-anchor="start" x="112.38" y="-733.45" font-family="Arial" font-size="9.00">deinit()</text>
<text xml:space="preserve" text-anchor="start" x="98.88" y="-718.95" font-family="Arial" font-size="9.00">+</text>
<text xml:space="preserve" text-anchor="start" x="112.38" y="-718.95" font-family="Arial" font-size="9.00">receive()</text>
<text xml:space="preserve" text-anchor="start" x="98.88" y="-704.45" font-family="Arial" font-size="9.00">+</text>
<text xml:space="preserve" text-anchor="start" x="112.38" y="-704.45" font-family="Arial" font-size="9.00">send()</text>
<text xml:space="preserve" text-anchor="start" x="98.88" y="-689.95" font-family="Arial" font-size="9.00">+</text>
<text xml:space="preserve" text-anchor="start" x="112.38" y="-689.95" font-family="Arial" font-size="9.00">sendReceive()</text>
<text xml:space="preserve" text-anchor="start" x="98.88" y="-675.45" font-family="Arial" font-size="9.00">+</text>
<text xml:space="preserve" text-anchor="start" x="112.38" y="-675.45" font-family="Arial" font-size="9.00">abort()</text>
<text xml:space="preserve" text-anchor="start" x="98.88" y="-660.95" font-family="Arial" font-size="9.00">+</text>
<text xml:space="preserve" text-anchor="start" x="112.38" y="-660.95" font-family="Arial" font-size="9.00">getHandle()</text>
<polygon fill="#666666" stroke="#666666" points="90.62,-831 90.62,-831 184.88,-831 184.88,-831 90.62,-831"/>
<polygon fill="#666666" stroke="#666666" points="90.62,-816.5 90.62,-816.5 184.88,-816.5 184.88,-816.5 90.62,-816.5"/>
<polygon fill="none" stroke="#666666" points="90.62,-655 90.62,-858 184.88,-858 184.88,-655 90.62,-655"/>
</a>
</g>
</g>
<!-- Node3&#45;&gt;Node2 -->
<g id="edge2_Node000002_Node000003" class="edge">
<title>Node3&#45;&gt;Node2</title>
<g id="a_edge2_Node000002_Node000003"><a xlink:title=" ">
<path fill="none" stroke="darkgreen" d="M137.75,-643.84C137.75,-635.23 137.75,-626.46 137.75,-617.68"/>
<polygon fill="none" stroke="darkgreen" points="134.25,-643.55 137.75,-653.55 141.25,-643.55 134.25,-643.55"/>
</a>
</g>
</g>
<!-- Node4 -->
<g id="Node000004" class="node">
<title>Node4</title>
<g id="a_Node000004"><a xlink:href="../../d6/d02/a01542.html" target="_top" xlink:title=" ">
<polygon fill="white" stroke="none" points="99.5,-983 0,-983 0,-910.5 99.5,-910.5 99.5,-983"/>
<text xml:space="preserve" text-anchor="start" x="4" y="-970.45" font-family="Arial" font-size="9.00">Lib::HAL::Handle&lt; SPI</text>
<text xml:space="preserve" text-anchor="start" x="11.12" y="-959.95" font-family="Arial" font-size="9.00">_HandleTypeDef &gt;</text>
<text xml:space="preserve" text-anchor="start" x="48.62" y="-945.45" font-family="Arial" font-size="9.00"> </text>
<text xml:space="preserve" text-anchor="start" x="12.38" y="-930.95" font-family="Arial" font-size="9.00">+</text>
<text xml:space="preserve" text-anchor="start" x="30" y="-930.95" font-family="Arial" font-size="9.00">~Handle()</text>
<text xml:space="preserve" text-anchor="start" x="12.38" y="-916.45" font-family="Arial" font-size="9.00">+</text>
<text xml:space="preserve" text-anchor="start" x="30" y="-916.45" font-family="Arial" font-size="9.00">getHandle()</text>
<polygon fill="#666666" stroke="#666666" points="0,-956 0,-956 99.5,-956 99.5,-956 0,-956"/>
<polygon fill="#666666" stroke="#666666" points="0,-941.5 0,-941.5 99.5,-941.5 99.5,-941.5 0,-941.5"/>
<polygon fill="none" stroke="#666666" points="0,-910.5 0,-983 99.5,-983 99.5,-910.5 0,-910.5"/>
</a>
</g>
</g>
<!-- Node4&#45;&gt;Node3 -->
<g id="edge3_Node000003_Node000004" class="edge">
<title>Node4&#45;&gt;Node3</title>
<g id="a_edge3_Node000003_Node000004"><a xlink:title=" ">
<path fill="none" stroke="darkgreen" d="M70.8,-900.73C76.89,-887.69 83.81,-872.9 90.82,-857.9"/>
<polygon fill="none" stroke="darkgreen" points="67.8,-898.87 66.74,-909.41 74.14,-901.83 67.8,-898.87"/>
</a>
</g>
</g>
<!-- Node5 -->
<g id="Node000005" class="node">
<title>Node5</title>
<g id="a_Node000005"><a xlink:title=" ">
<polygon fill="white" stroke="none" points="158.25,-970.5 117.25,-970.5 117.25,-923 158.25,-923 158.25,-970.5"/>
<text xml:space="preserve" text-anchor="start" x="121.25" y="-957.95" font-family="Arial" font-size="9.00">uint32_t</text>
<text xml:space="preserve" text-anchor="start" x="136.62" y="-943.45" font-family="Arial" font-size="9.00"> </text>
<text xml:space="preserve" text-anchor="start" x="136.62" y="-928.95" font-family="Arial" font-size="9.00"> </text>
<polygon fill="#bfbfbf" stroke="#bfbfbf" points="117.25,-954 117.25,-954 158.25,-954 158.25,-954 117.25,-954"/>
<polygon fill="#bfbfbf" stroke="#bfbfbf" points="117.25,-939.5 117.25,-939.5 158.25,-939.5 158.25,-939.5 117.25,-939.5"/>
<polygon fill="none" stroke="#bfbfbf" points="117.25,-923 117.25,-970.5 158.25,-970.5 158.25,-923 117.25,-923"/>
</a>
</g>
</g>
<!-- Node5&#45;&gt;Node3 -->
<g id="edge4_Node000003_Node000005" class="edge">
<title>Node5&#45;&gt;Node3</title>
<g id="a_edge4_Node000003_Node000005"><a xlink:title=" ">
<path fill="none" stroke="#63b8ff" d="M137.75,-923.04C137.75,-909.26 137.75,-890.52 137.75,-870.6"/>
<polygon fill="none" stroke="#63b8ff" points="137.75,-870.63 133.75,-864.63 137.75,-858.63 141.75,-864.63 137.75,-870.63"/>
</a>
</g>
<text xml:space="preserve" text-anchor="start" x="140.75" y="-880.95" font-family="Arial" font-size="9.00" fill="grey">+DEFAULT_TIMEOUT</text>
</g>
<!-- Node6 -->
<g id="Node000006" class="node">
<title>Node6</title>
<g id="a_Node000006"><a xlink:title=" ">
<polygon fill="white" stroke="none" points="306.75,-970.5 208.75,-970.5 208.75,-923 306.75,-923 306.75,-970.5"/>
<text xml:space="preserve" text-anchor="start" x="212.75" y="-957.95" font-family="Arial" font-size="9.00">SPI_HandleTypeDef *</text>
<text xml:space="preserve" text-anchor="start" x="256.62" y="-943.45" font-family="Arial" font-size="9.00"> </text>
<text xml:space="preserve" text-anchor="start" x="256.62" y="-928.95" font-family="Arial" font-size="9.00"> </text>
<polygon fill="#bfbfbf" stroke="#bfbfbf" points="208.75,-954 208.75,-954 306.75,-954 306.75,-954 208.75,-954"/>
<polygon fill="#bfbfbf" stroke="#bfbfbf" points="208.75,-939.5 208.75,-939.5 306.75,-939.5 306.75,-939.5 208.75,-939.5"/>
<polygon fill="none" stroke="#bfbfbf" points="208.75,-923 208.75,-970.5 306.75,-970.5 306.75,-923 208.75,-923"/>
</a>
</g>
</g>
<!-- Node6&#45;&gt;Node3 -->
<g id="edge5_Node000003_Node000006" class="edge">
<title>Node6&#45;&gt;Node3</title>
<g id="a_edge5_Node000003_Node000006"><a xlink:title=" ">
<path fill="none" stroke="#63b8ff" d="M252.98,-923.19C249.44,-909.08 243.82,-890.83 235.75,-876 224.23,-854.83 208.65,-833.85 193.3,-815.57"/>
<polygon fill="none" stroke="#63b8ff" points="193.23,-815.49 186.29,-813.54 185.41,-806.38 192.36,-808.33 193.23,-815.49"/>
</a>
</g>
<text xml:space="preserve" text-anchor="start" x="246.27" y="-880.95" font-family="Arial" font-size="9.00" fill="grey">#handle</text>
</g>
<!-- Node7 -->
<g id="Node000007" class="node">
<title>Node7</title>
<g id="a_Node000007"><a xlink:title=" ">
<polygon fill="white" stroke="none" points="281.88,-496.75 205.62,-496.75 205.62,-449.25 281.88,-449.25 281.88,-496.75"/>
<text xml:space="preserve" text-anchor="start" x="209.62" y="-484.2" font-family="Arial" font-size="9.00">function&lt; void()&gt;</text>
<text xml:space="preserve" text-anchor="start" x="242.62" y="-469.7" font-family="Arial" font-size="9.00"> </text>
<text xml:space="preserve" text-anchor="start" x="242.62" y="-455.2" font-family="Arial" font-size="9.00"> </text>
<polygon fill="#bfbfbf" stroke="#bfbfbf" points="205.62,-480.25 205.62,-480.25 281.88,-480.25 281.88,-480.25 205.62,-480.25"/>
<polygon fill="#bfbfbf" stroke="#bfbfbf" points="205.62,-465.75 205.62,-465.75 281.88,-465.75 281.88,-465.75 205.62,-465.75"/>
<polygon fill="none" stroke="#bfbfbf" points="205.62,-449.25 205.62,-496.75 281.88,-496.75 281.88,-449.25 205.62,-449.25"/>
</a>
</g>
</g>
<!-- Node7&#45;&gt;Node1 -->
<g id="edge6_Node000001_Node000007" class="edge">
<title>Node7&#45;&gt;Node1</title>
<g id="a_edge6_Node000001_Node000007"><a xlink:title=" ">
<path fill="none" stroke="#63b8ff" d="M240.35,-449.25C234.25,-408.37 221.01,-319.71 209.75,-244.25"/>
<polygon fill="none" stroke="#63b8ff" points="209.79,-244.54 204.95,-239.2 208.02,-232.67 212.86,-238.01 209.79,-244.54"/>
</a>
</g>
<text xml:space="preserve" text-anchor="start" x="221.84" y="-298.45" font-family="Arial" font-size="9.00" fill="grey">+onAbortComplete</text>
<text xml:space="preserve" text-anchor="start" x="221.84" y="-283.95" font-family="Arial" font-size="9.00" fill="grey">+onRxComplete</text>
<text xml:space="preserve" text-anchor="start" x="221.84" y="-269.45" font-family="Arial" font-size="9.00" fill="grey">+onTxComplete</text>
<text xml:space="preserve" text-anchor="start" x="221.84" y="-254.95" font-family="Arial" font-size="9.00" fill="grey">+onTxRxComplete</text>
</g>
</g>
</svg>
