<?xml version="1.0" encoding="UTF-8" standalone="no"?>
<!DOCTYPE svg PUBLIC "-//W3C//DTD SVG 1.1//EN"
 "http://www.w3.org/Graphics/SVG/1.1/DTD/svg11.dtd">
<!-- Generated by graphviz version 10.0.1 (20240210.2158)
 -->
<!-- Title: Lib::Xbee::Core::QueueMessage Pages: 1 -->
<svg width="158pt" height="120pt"
 viewBox="0.00 0.00 158.00 120.00" xmlns="http://www.w3.org/2000/svg" xmlns:xlink="http://www.w3.org/1999/xlink">
<g id="graph0" class="graph" transform="scale(1 1) rotate(0) translate(4 116)">
<title>Lib::Xbee::Core::QueueMessage</title>
<!-- Node1 -->
<g id="Node000001" class="node">
<title>Node1</title>
<g id="a_Node000001"><a xlink:title="Manages a fixed&#45;size array of data.">
<polygon fill="#999999" stroke="none" points="150,-112 0,-112 0,0 150,0 150,-112"/>
<text text-anchor="start" x="4.88" y="-98.5" font-family="Helvetica,sans-Serif" font-size="10.00">Lib::Xbee::Core::QueueMessage</text>
<text text-anchor="start" x="16" y="-82.5" font-family="Helvetica,sans-Serif" font-size="10.00">+</text>
<text text-anchor="start" x="38" y="-82.5" font-family="Helvetica,sans-Serif" font-size="10.00">data</text>
<text text-anchor="start" x="16" y="-66.5" font-family="Helvetica,sans-Serif" font-size="10.00">+</text>
<text text-anchor="start" x="38" y="-66.5" font-family="Helvetica,sans-Serif" font-size="10.00">size</text>
<text text-anchor="start" x="16" y="-50.5" font-family="Helvetica,sans-Serif" font-size="10.00">+</text>
<text text-anchor="start" x="38" y="-50.5" font-family="Helvetica,sans-Serif" font-size="10.00">DATA_SIZE</text>
<text text-anchor="start" x="16" y="-34.5" font-family="Helvetica,sans-Serif" font-size="10.00">+</text>
<text text-anchor="start" x="38" y="-34.5" font-family="Helvetica,sans-Serif" font-size="10.00">QueueMessage()</text>
<text text-anchor="start" x="16" y="-18.5" font-family="Helvetica,sans-Serif" font-size="10.00">+</text>
<text text-anchor="start" x="38" y="-18.5" font-family="Helvetica,sans-Serif" font-size="10.00">operator std::vector</text>
<text text-anchor="start" x="38" y="-6.5" font-family="Helvetica,sans-Serif" font-size="10.00">&lt; uint8_t &gt;()</text>
<polygon fill="#666666" stroke="#666666" points="0,-94 0,-94 150,-94 150,-94 0,-94"/>
<polygon fill="#666666" stroke="#666666" points="0,-46 0,-46 36,-46 36,-46 0,-46"/>
<polygon fill="#666666" stroke="#666666" points="36,-46 36,-46 150,-46 150,-46 36,-46"/>
<polygon fill="none" stroke="#666666" points="0,0 0,-112 150,-112 150,0 0,0"/>
</a>
</g>
</g>
</g>
</svg>
