<?xml version="1.0" encoding="UTF-8" standalone="no"?>
<!DOCTYPE svg PUBLIC "-//W3C//DTD SVG 1.1//EN"
 "http://www.w3.org/Graphics/SVG/1.1/DTD/svg11.dtd">
<!-- Generated by graphviz version 13.1.0 (20250701.0955)
 -->
<!-- Title: Lib::Helper::Delay&lt; DelayType::MICRO_SEC &gt; Pages: 1 -->
<svg width="134pt" height="92pt"
 viewBox="0.00 0.00 134.00 92.00" xmlns="http://www.w3.org/2000/svg" xmlns:xlink="http://www.w3.org/1999/xlink">
<g id="graph0" class="graph" transform="scale(1 1) rotate(0) translate(4 87.5)">
<title>Lib::Helper::Delay&lt; DelayType::MICRO_SEC &gt;</title>
<!-- Node1 -->
<g id="Node000001" class="node">
<title>Node1</title>
<g id="a_Node000001"><a xlink:title="Microsecond delay specialization.">
<polygon fill="#999999" stroke="none" points="125.75,-29 0,-29 0,0 125.75,0 125.75,-29"/>
<text xml:space="preserve" text-anchor="start" x="4" y="-16.45" font-family="Arial" font-size="9.00">Lib::Helper::Delay</text>
<text xml:space="preserve" text-anchor="start" x="4" y="-5.95" font-family="Arial" font-size="9.00">&lt; DelayType::MICRO_SEC &gt;</text>
<polygon fill="none" stroke="#666666" points="0,0 0,-29 125.75,-29 125.75,0 0,0"/>
</a>
</g>
</g>
<!-- Node2 -->
<g id="Node000002" class="node">
<title>Node2</title>
<g id="a_Node000002"><a xlink:href="../../d1/d6b/a01775.html" target="_top" xlink:title="Base class for DWT&#45;based delays.">
<polygon fill="white" stroke="none" points="114.12,-83.5 11.62,-83.5 11.62,-65 114.12,-65 114.12,-83.5"/>
<text xml:space="preserve" text-anchor="start" x="15.62" y="-70.95" font-family="Arial" font-size="9.00">Lib::Helper::DelayBase</text>
<polygon fill="none" stroke="#666666" points="11.62,-65 11.62,-83.5 114.12,-83.5 114.12,-65 11.62,-65"/>
</a>
</g>
</g>
<!-- Node2&#45;&gt;Node1 -->
<g id="edge1_Node000001_Node000002" class="edge">
<title>Node2&#45;&gt;Node1</title>
<g id="a_edge1_Node000001_Node000002"><a xlink:title=" ">
<path fill="none" stroke="#63b8ff" d="M62.88,-53.99C62.88,-45.72 62.88,-36.26 62.88,-28.79"/>
<polygon fill="none" stroke="#63b8ff" points="59.38,-53.71 62.88,-63.71 66.38,-53.71 59.38,-53.71"/>
</a>
</g>
</g>
</g>
</svg>
