<?xml version="1.0" encoding="UTF-8" standalone="no"?>
<!DOCTYPE svg PUBLIC "-//W3C//DTD SVG 1.1//EN"
 "http://www.w3.org/Graphics/SVG/1.1/DTD/svg11.dtd">
<!-- Generated by graphviz version 13.1.0 (20250701.0955)
 -->
<!-- Title: Integrator.hpp Pages: 1 -->
<svg width="380pt" height="308pt"
 viewBox="0.00 0.00 380.00 308.00" xmlns="http://www.w3.org/2000/svg" xmlns:xlink="http://www.w3.org/1999/xlink">
<g id="graph0" class="graph" transform="scale(1 1) rotate(0) translate(4 304)">
<title>Integrator.hpp</title>
<!-- Node1 -->
<g id="Node000001" class="node">
<title>Node1</title>
<g id="a_Node000001"><a xlink:title="Integrator class for running average calculation over a fixed&#45;size window.">
<polygon fill="#999999" stroke="#666666" points="238.38,-300 162.38,-300 162.38,-280 238.38,-280 238.38,-300"/>
<text xml:space="preserve" text-anchor="middle" x="200.38" y="-286.5" font-family="Helvetica,sans-Serif" font-size="10.00">Integrator.hpp</text>
</a>
</g>
</g>
<!-- Node2 -->
<g id="Node000002" class="node">
<title>Node2</title>
<g id="a_Node000002"><a xlink:href="../../d8/d6f/a02234.html" target="_top" xlink:title="Voltmeter base class for ADC voltage measurement.">
<polygon fill="white" stroke="#666666" points="95,-244 37.75,-244 37.75,-224 95,-224 95,-244"/>
<text xml:space="preserve" text-anchor="middle" x="66.38" y="-230.5" font-family="Helvetica,sans-Serif" font-size="10.00">Base.hpp</text>
</a>
</g>
</g>
<!-- Node1&#45;&gt;Node2 -->
<g id="edge1_Node000001_Node000002" class="edge">
<title>Node1&#45;&gt;Node2</title>
<g id="a_edge1_Node000001_Node000002"><a xlink:title=" ">
<path fill="none" stroke="#63b8ff" d="M166.63,-275.4C142.69,-265.75 111.16,-253.05 89.9,-244.48"/>
<polygon fill="#63b8ff" stroke="#63b8ff" points="165.05,-278.54 175.63,-279.03 167.66,-272.04 165.05,-278.54"/>
</a>
</g>
</g>
<!-- Node3 -->
<g id="Node000003" class="node">
<title>Node3</title>
<g id="a_Node000003"><a xlink:href="../../d0/d3e/a00566.html" target="_top" xlink:title="Connection management for Xbee API client applications.">
<polygon fill="white" stroke="#666666" points="197.5,-244 113.25,-244 113.25,-224 197.5,-224 197.5,-244"/>
<text xml:space="preserve" text-anchor="middle" x="155.38" y="-230.5" font-family="Helvetica,sans-Serif" font-size="10.00">Connection.hpp</text>
</a>
</g>
</g>
<!-- Node1&#45;&gt;Node3 -->
<g id="edge2_Node000001_Node000003" class="edge">
<title>Node1&#45;&gt;Node3</title>
<g id="a_edge2_Node000001_Node000003"><a xlink:title=" ">
<path fill="none" stroke="#63b8ff" d="M185.38,-271C177.92,-262.06 169.23,-251.62 163.12,-244.3"/>
<polygon fill="#63b8ff" stroke="#63b8ff" points="182.48,-272.99 191.57,-278.43 187.85,-268.51 182.48,-272.99"/>
</a>
</g>
</g>
<!-- Node9 -->
<g id="Node000009" class="node">
<title>Node9</title>
<g id="a_Node000009"><a xlink:href="../../df/d73/a02312.html" target="_top" xlink:title="Touch screen driver for XPT2046 controller.">
<polygon fill="white" stroke="#666666" points="276.88,-244 215.88,-244 215.88,-224 276.88,-224 276.88,-244"/>
<text xml:space="preserve" text-anchor="middle" x="246.38" y="-230.5" font-family="Helvetica,sans-Serif" font-size="10.00">Driver.hpp</text>
</a>
</g>
</g>
<!-- Node1&#45;&gt;Node9 -->
<g id="edge12_Node000001_Node000009" class="edge">
<title>Node1&#45;&gt;Node9</title>
<g id="a_edge12_Node000001_Node000009"><a xlink:title=" ">
<path fill="none" stroke="#63b8ff" d="M215.71,-271C223.33,-262.06 232.21,-251.62 238.45,-244.3"/>
<polygon fill="#63b8ff" stroke="#63b8ff" points="213.19,-268.56 209.37,-278.44 218.52,-273.1 213.19,-268.56"/>
</a>
</g>
</g>
<!-- Node13 -->
<g id="Node000013" class="node">
<title>Node13</title>
<g id="a_Node000013"><a xlink:href="../../d3/d07/a00305.html" target="_top" xlink:title="Touch screen driver for XPT2046 controller.">
<polygon fill="white" stroke="#666666" points="371.75,-244 295,-244 295,-224 371.75,-224 371.75,-244"/>
<text xml:space="preserve" text-anchor="middle" x="333.38" y="-230.5" font-family="Helvetica,sans-Serif" font-size="10.00">Driver_v2.hpp</text>
</a>
</g>
</g>
<!-- Node1&#45;&gt;Node13 -->
<g id="edge16_Node000001_Node000013" class="edge">
<title>Node1&#45;&gt;Node13</title>
<g id="a_edge16_Node000001_Node000013"><a xlink:title=" ">
<path fill="none" stroke="#63b8ff" d="M234.19,-275.27C257.91,-265.64 289.02,-253.01 310.03,-244.48"/>
<polygon fill="#63b8ff" stroke="#63b8ff" points="232.89,-272.02 224.94,-279.02 235.53,-278.51 232.89,-272.02"/>
</a>
</g>
</g>
<!-- Node4 -->
<g id="Node000004" class="node">
<title>Node4</title>
<g id="a_Node000004"><a xlink:href="../../dc/dae/a00563.html" target="_top" xlink:title="Base class for Xbee API applications (U146&#45;Firmware).">
<polygon fill="white" stroke="#666666" points="211,-76 105.75,-76 105.75,-56 211,-56 211,-76"/>
<text xml:space="preserve" text-anchor="middle" x="158.38" y="-62.5" font-family="Helvetica,sans-Serif" font-size="10.00">ApplicationBase.hpp</text>
</a>
</g>
</g>
<!-- Node3&#45;&gt;Node4 -->
<g id="edge3_Node000003_Node000004" class="edge">
<title>Node3&#45;&gt;Node4</title>
<g id="a_edge3_Node000003_Node000004"><a xlink:title=" ">
<path fill="none" stroke="#63b8ff" d="M181.94,-217.1C191.85,-209.64 202,-199.77 207.38,-188 226.12,-146.98 186.12,-96.62 167.37,-76.22"/>
<polygon fill="#63b8ff" stroke="#63b8ff" points="180.16,-214.09 173.92,-222.65 184.14,-219.84 180.16,-214.09"/>
</a>
</g>
</g>
<!-- Node5 -->
<g id="Node000005" class="node">
<title>Node5</title>
<g id="a_Node000005"><a xlink:href="../../d7/d54/a02342.html" target="_top" xlink:title="Base class for Xbee API client applications.">
<polygon fill="white" stroke="#666666" points="82.75,-20 0,-20 0,0 82.75,0 82.75,-20"/>
<text xml:space="preserve" text-anchor="middle" x="41.38" y="-6.5" font-family="Helvetica,sans-Serif" font-size="10.00">ClientBase.hpp</text>
</a>
</g>
</g>
<!-- Node3&#45;&gt;Node5 -->
<g id="edge8_Node000003_Node000005" class="edge">
<title>Node3&#45;&gt;Node5</title>
<g id="a_edge8_Node000003_Node000005"><a xlink:title=" ">
<path fill="none" stroke="#63b8ff" d="M127.78,-217.73C100.59,-200.85 60.93,-170.84 45.38,-132 29.75,-92.98 36.1,-41.07 39.62,-20.23"/>
<polygon fill="#63b8ff" stroke="#63b8ff" points="125.83,-220.64 136.21,-222.77 129.42,-214.63 125.83,-220.64"/>
</a>
</g>
</g>
<!-- Node7 -->
<g id="Node000007" class="node">
<title>Node7</title>
<g id="a_Node000007"><a xlink:href="../../d9/d42/a00575.html" target="_top" xlink:title="Channel scanning service for XBee API.">
<polygon fill="white" stroke="#666666" points="160.75,-132 54,-132 54,-112 160.75,-112 160.75,-132"/>
<text xml:space="preserve" text-anchor="middle" x="107.38" y="-118.5" font-family="Helvetica,sans-Serif" font-size="10.00">ChannelScanner.hpp</text>
</a>
</g>
</g>
<!-- Node3&#45;&gt;Node7 -->
<g id="edge6_Node000003_Node000007" class="edge">
<title>Node3&#45;&gt;Node7</title>
<g id="a_edge6_Node000003_Node000007"><a xlink:title=" ">
<path fill="none" stroke="#63b8ff" d="M128.81,-217.1C118.9,-209.64 108.75,-199.77 103.38,-188 95.01,-169.7 100.21,-145.42 104.16,-132.33"/>
<polygon fill="#63b8ff" stroke="#63b8ff" points="126.61,-219.84 136.83,-222.65 130.59,-214.09 126.61,-219.84"/>
</a>
</g>
</g>
<!-- Node8 -->
<g id="Node000008" class="node">
<title>Node8</title>
<g id="a_Node000008"><a xlink:href="../../d1/ded/a02471.html" target="_top" xlink:title="Module Parameters Service for Xbee API.">
<polygon fill="white" stroke="#666666" points="197.88,-188 112.88,-188 112.88,-168 197.88,-168 197.88,-188"/>
<text xml:space="preserve" text-anchor="middle" x="155.38" y="-174.5" font-family="Helvetica,sans-Serif" font-size="10.00">Parameters.hpp</text>
</a>
</g>
</g>
<!-- Node3&#45;&gt;Node8 -->
<g id="edge9_Node000003_Node000008" class="edge">
<title>Node3&#45;&gt;Node8</title>
<g id="a_edge9_Node000003_Node000008"><a xlink:title=" ">
<path fill="none" stroke="#63b8ff" d="M155.38,-212.13C155.38,-203.9 155.38,-194.85 155.38,-188.3"/>
<polygon fill="#63b8ff" stroke="#63b8ff" points="151.88,-212.08 155.38,-222.08 158.88,-212.08 151.88,-212.08"/>
</a>
</g>
</g>
<!-- Node4&#45;&gt;Node5 -->
<g id="edge4_Node000004_Node000005" class="edge">
<title>Node4&#45;&gt;Node5</title>
<g id="a_edge4_Node000004_Node000005"><a xlink:title=" ">
<path fill="none" stroke="#63b8ff" d="M127.78,-50.88C107.02,-41.3 80.14,-28.89 61.91,-20.48"/>
<polygon fill="#63b8ff" stroke="#63b8ff" points="126.07,-53.95 136.62,-54.96 129.01,-47.59 126.07,-53.95"/>
</a>
</g>
</g>
<!-- Node6 -->
<g id="Node000006" class="node">
<title>Node6</title>
<g id="a_Node000006"><a xlink:href="../../d8/d26/a02357.html" target="_top" xlink:title="Xbee Server Base class for server&#45;side communication.">
<polygon fill="white" stroke="#666666" points="201.25,-20 115.5,-20 115.5,0 201.25,0 201.25,-20"/>
<text xml:space="preserve" text-anchor="middle" x="158.38" y="-6.5" font-family="Helvetica,sans-Serif" font-size="10.00">ServerBase.hpp</text>
</a>
</g>
</g>
<!-- Node4&#45;&gt;Node6 -->
<g id="edge5_Node000004_Node000006" class="edge">
<title>Node4&#45;&gt;Node6</title>
<g id="a_edge5_Node000004_Node000006"><a xlink:title=" ">
<path fill="none" stroke="#63b8ff" d="M158.38,-44.13C158.38,-35.9 158.38,-26.85 158.38,-20.3"/>
<polygon fill="#63b8ff" stroke="#63b8ff" points="154.88,-44.08 158.38,-54.08 161.88,-44.08 154.88,-44.08"/>
</a>
</g>
</g>
<!-- Node7&#45;&gt;Node4 -->
<g id="edge7_Node000007_Node000004" class="edge">
<title>Node7&#45;&gt;Node4</title>
<g id="a_edge7_Node000007_Node000004"><a xlink:title=" ">
<path fill="none" stroke="#63b8ff" d="M124.11,-103.29C132.61,-94.28 142.6,-83.7 149.59,-76.3"/>
<polygon fill="#63b8ff" stroke="#63b8ff" points="121.62,-100.82 117.3,-110.49 126.71,-105.63 121.62,-100.82"/>
</a>
</g>
</g>
<!-- Node8&#45;&gt;Node4 -->
<g id="edge10_Node000008_Node000004" class="edge">
<title>Node8&#45;&gt;Node4</title>
<g id="a_edge10_Node000008_Node000004"><a xlink:title=" ">
<path fill="none" stroke="#63b8ff" d="M163.09,-156.78C165.63,-149.14 168.12,-140.28 169.38,-132 172.4,-112.09 166.07,-88.83 161.81,-76.24"/>
<polygon fill="#63b8ff" stroke="#63b8ff" points="159.82,-155.52 159.75,-166.12 166.41,-157.88 159.82,-155.52"/>
</a>
</g>
</g>
<!-- Node8&#45;&gt;Node7 -->
<g id="edge11_Node000008_Node000007" class="edge">
<title>Node8&#45;&gt;Node7</title>
<g id="a_edge11_Node000008_Node000007"><a xlink:title=" ">
<path fill="none" stroke="#63b8ff" d="M139.38,-159C131.43,-150.06 122.15,-139.62 115.64,-132.3"/>
<polygon fill="#63b8ff" stroke="#63b8ff" points="136.75,-161.31 146.01,-166.46 141.98,-156.66 136.75,-161.31"/>
</a>
</g>
</g>
<!-- Node10 -->
<g id="Node000010" class="node">
<title>Node10</title>
<g id="a_Node000010"><a xlink:href="../../df/dc8/a00122.html" target="_top" xlink:title="Declares the BSP::TouchScreen class for STM32 touch screen controller integration.">
<polygon fill="white" stroke="#666666" points="346.25,-188 254.5,-188 254.5,-168 346.25,-168 346.25,-188"/>
<text xml:space="preserve" text-anchor="middle" x="300.38" y="-174.5" font-family="Helvetica,sans-Serif" font-size="10.00">TouchScreen.hpp</text>
</a>
</g>
</g>
<!-- Node9&#45;&gt;Node10 -->
<g id="edge13_Node000009_Node000010" class="edge">
<title>Node9&#45;&gt;Node10</title>
<g id="a_edge13_Node000009_Node000010"><a xlink:title=" ">
<path fill="none" stroke="#63b8ff" d="M263.81,-215.57C272.88,-206.5 283.6,-195.78 291.08,-188.3"/>
<polygon fill="#63b8ff" stroke="#63b8ff" points="261.45,-212.98 256.85,-222.52 266.4,-217.93 261.45,-212.98"/>
</a>
</g>
</g>
<!-- Node11 -->
<g id="Node000011" class="node">
<title>Node11</title>
<g id="a_Node000011"><a xlink:href="../../d1/d88/a00128.html" target="_top" xlink:title="Board Support Package namespace with singleton instances for hardware abstraction.">
<polygon fill="white" stroke="#666666" points="327.12,-132 273.62,-132 273.62,-112 327.12,-112 327.12,-132"/>
<text xml:space="preserve" text-anchor="middle" x="300.38" y="-118.5" font-family="Helvetica,sans-Serif" font-size="10.00">BSP.hpp</text>
</a>
</g>
</g>
<!-- Node10&#45;&gt;Node11 -->
<g id="edge14_Node000010_Node000011" class="edge">
<title>Node10&#45;&gt;Node11</title>
<g id="a_edge14_Node000010_Node000011"><a xlink:title=" ">
<path fill="none" stroke="#63b8ff" d="M300.38,-156.13C300.38,-147.9 300.38,-138.85 300.38,-132.3"/>
<polygon fill="#63b8ff" stroke="#63b8ff" points="296.88,-156.08 300.38,-166.08 303.88,-156.08 296.88,-156.08"/>
</a>
</g>
</g>
<!-- Node12 -->
<g id="Node000012" class="node">
<title>Node12</title>
<g id="a_Node000012"><a xlink:href="../../d7/d25/a00182.html" target="_top" xlink:title="Declares the ModelBase class for TouchGFX UI model aggregation.">
<polygon fill="white" stroke="#666666" points="342.12,-76 258.62,-76 258.62,-56 342.12,-56 342.12,-76"/>
<text xml:space="preserve" text-anchor="middle" x="300.38" y="-62.5" font-family="Helvetica,sans-Serif" font-size="10.00">ModelBase.hpp</text>
</a>
</g>
</g>
<!-- Node11&#45;&gt;Node12 -->
<g id="edge15_Node000011_Node000012" class="edge">
<title>Node11&#45;&gt;Node12</title>
<g id="a_edge15_Node000011_Node000012"><a xlink:title=" ">
<path fill="none" stroke="#63b8ff" d="M300.38,-100.13C300.38,-91.9 300.38,-82.85 300.38,-76.3"/>
<polygon fill="#63b8ff" stroke="#63b8ff" points="296.88,-100.08 300.38,-110.08 303.88,-100.08 296.88,-100.08"/>
</a>
</g>
</g>
</g>
</svg>
