<?xml version="1.0" encoding="UTF-8" standalone="no"?>
<!DOCTYPE svg PUBLIC "-//W3C//DTD SVG 1.1//EN"
 "http://www.w3.org/Graphics/SVG/1.1/DTD/svg11.dtd">
<!-- Generated by graphviz version 13.1.0 (20250701.0955)
 -->
<!-- Title: Lib::BSP::TouchScreen::XPT2046 Pages: 1 -->
<svg width="165pt" height="140pt"
 viewBox="0.00 0.00 165.00 140.00" xmlns="http://www.w3.org/2000/svg" xmlns:xlink="http://www.w3.org/1999/xlink">
<g id="graph0" class="graph" transform="scale(1 1) rotate(0) translate(4 136)">
<title>Lib::BSP::TouchScreen::XPT2046</title>
<!-- Node1 -->
<g id="Node000001" class="node">
<title>Node1</title>
<g id="a_Node000001"><a xlink:title="Driver for the XPT2046 resistive touch controller.">
<polygon fill="#999999" stroke="none" points="156.5,-132 0,-132 0,0 156.5,0 156.5,-132"/>
<text xml:space="preserve" text-anchor="start" x="4" y="-118.5" font-family="Helvetica,sans-Serif" font-size="10.00">Lib::BSP::TouchScreen::XPT2046</text>
<text xml:space="preserve" text-anchor="start" x="76.75" y="-102.5" font-family="Helvetica,sans-Serif" font-size="10.00"> </text>
<text xml:space="preserve" text-anchor="start" x="24.56" y="-86.5" font-family="Helvetica,sans-Serif" font-size="10.00">+</text>
<text xml:space="preserve" text-anchor="start" x="55.12" y="-86.5" font-family="Helvetica,sans-Serif" font-size="10.00">XPT2046()</text>
<text xml:space="preserve" text-anchor="start" x="24.56" y="-70.5" font-family="Helvetica,sans-Serif" font-size="10.00">+</text>
<text xml:space="preserve" text-anchor="start" x="55.12" y="-70.5" font-family="Helvetica,sans-Serif" font-size="10.00">XPT2046()</text>
<text xml:space="preserve" text-anchor="start" x="24.56" y="-54.5" font-family="Helvetica,sans-Serif" font-size="10.00">+</text>
<text xml:space="preserve" text-anchor="start" x="55.12" y="-54.5" font-family="Helvetica,sans-Serif" font-size="10.00">~XPT2046()</text>
<text xml:space="preserve" text-anchor="start" x="24.56" y="-38.5" font-family="Helvetica,sans-Serif" font-size="10.00">+</text>
<text xml:space="preserve" text-anchor="start" x="55.12" y="-38.5" font-family="Helvetica,sans-Serif" font-size="10.00">start()</text>
<text xml:space="preserve" text-anchor="start" x="24.56" y="-22.5" font-family="Helvetica,sans-Serif" font-size="10.00">+</text>
<text xml:space="preserve" text-anchor="start" x="55.12" y="-22.5" font-family="Helvetica,sans-Serif" font-size="10.00">read()</text>
<text xml:space="preserve" text-anchor="start" x="24.56" y="-6.5" font-family="Helvetica,sans-Serif" font-size="10.00">+</text>
<text xml:space="preserve" text-anchor="start" x="55.12" y="-6.5" font-family="Helvetica,sans-Serif" font-size="10.00">setRotation()</text>
<polygon fill="#666666" stroke="#666666" points="0,-114 0,-114 156.5,-114 156.5,-114 0,-114"/>
<polygon fill="#666666" stroke="#666666" points="0,-98 0,-98 156.5,-98 156.5,-98 0,-98"/>
<polygon fill="none" stroke="#666666" points="0,0 0,-132 156.5,-132 156.5,0 0,0"/>
</a>
</g>
</g>
</g>
</svg>
