<?xml version="1.0" encoding="UTF-8" standalone="no"?>
<!DOCTYPE svg PUBLIC "-//W3C//DTD SVG 1.1//EN"
 "http://www.w3.org/Graphics/SVG/1.1/DTD/svg11.dtd">
<!-- Generated by graphviz version 13.1.0 (20250701.0955)
 -->
<!-- Title: MessageBuffer.hpp Pages: 1 -->
<svg width="234pt" height="84pt"
 viewBox="0.00 0.00 234.00 84.00" xmlns="http://www.w3.org/2000/svg" xmlns:xlink="http://www.w3.org/1999/xlink">
<g id="graph0" class="graph" transform="scale(1 1) rotate(0) translate(4 80)">
<title>MessageBuffer.hpp</title>
<!-- Node1 -->
<g id="Node000001" class="node">
<title>Node1</title>
<g id="a_Node000001"><a xlink:title="Provides a type&#45;safe C++ wrapper for FreeRTOS message buffers.">
<polygon fill="#999999" stroke="#666666" points="185.62,-76 85.62,-76 85.62,-56 185.62,-56 185.62,-76"/>
<text xml:space="preserve" text-anchor="middle" x="135.62" y="-62.5" font-family="Helvetica,sans-Serif" font-size="10.00">MessageBuffer.hpp</text>
</a>
</g>
</g>
<!-- Node2 -->
<g id="Node000002" class="node">
<title>Node2</title>
<g id="a_Node000002"><a xlink:title=" ">
<polygon fill="#e0e0e0" stroke="#999999" points="93.25,-20 0,-20 0,0 93.25,0 93.25,-20"/>
<text xml:space="preserve" text-anchor="middle" x="46.62" y="-6.5" font-family="Helvetica,sans-Serif" font-size="10.00">message_buffer.h</text>
</a>
</g>
</g>
<!-- Node1&#45;&gt;Node2 -->
<g id="edge1_Node000001_Node000002" class="edge">
<title>Node1&#45;&gt;Node2</title>
<g id="a_edge1_Node000001_Node000002"><a xlink:title=" ">
<path fill="none" stroke="#63b8ff" d="M120.12,-55.59C106.8,-47.51 87.35,-35.71 71.8,-26.27"/>
<polygon fill="#63b8ff" stroke="#63b8ff" points="73.91,-23.46 63.54,-21.26 70.28,-29.44 73.91,-23.46"/>
</a>
</g>
</g>
<!-- Node3 -->
<g id="Node000003" class="node">
<title>Node3</title>
<g id="a_Node000003"><a xlink:title=" ">
<polygon fill="#e0e0e0" stroke="#999999" points="159.75,-20 111.5,-20 111.5,0 159.75,0 159.75,-20"/>
<text xml:space="preserve" text-anchor="middle" x="135.62" y="-6.5" font-family="Helvetica,sans-Serif" font-size="10.00">cassert</text>
</a>
</g>
</g>
<!-- Node1&#45;&gt;Node3 -->
<g id="edge2_Node000001_Node000003" class="edge">
<title>Node1&#45;&gt;Node3</title>
<g id="a_edge2_Node000001_Node000003"><a xlink:title=" ">
<path fill="none" stroke="#63b8ff" d="M135.62,-55.59C135.62,-49.01 135.62,-39.96 135.62,-31.73"/>
<polygon fill="#63b8ff" stroke="#63b8ff" points="139.13,-31.81 135.63,-21.81 132.13,-31.81 139.13,-31.81"/>
</a>
</g>
</g>
<!-- Node4 -->
<g id="Node000004" class="node">
<title>Node4</title>
<g id="a_Node000004"><a xlink:title=" ">
<polygon fill="#e0e0e0" stroke="#999999" points="225.75,-20 177.5,-20 177.5,0 225.75,0 225.75,-20"/>
<text xml:space="preserve" text-anchor="middle" x="201.62" y="-6.5" font-family="Helvetica,sans-Serif" font-size="10.00">cstddef</text>
</a>
</g>
</g>
<!-- Node1&#45;&gt;Node4 -->
<g id="edge3_Node000001_Node000004" class="edge">
<title>Node1&#45;&gt;Node4</title>
<g id="a_edge3_Node000001_Node000004"><a xlink:title=" ">
<path fill="none" stroke="#63b8ff" d="M147.12,-55.59C156.59,-47.85 170.23,-36.69 181.5,-27.47"/>
<polygon fill="#63b8ff" stroke="#63b8ff" points="183.57,-30.3 189.09,-21.26 179.13,-24.88 183.57,-30.3"/>
</a>
</g>
</g>
</g>
</svg>
