<?xml version="1.0" encoding="UTF-8" standalone="no"?>
<!DOCTYPE svg PUBLIC "-//W3C//DTD SVG 1.1//EN"
 "http://www.w3.org/Graphics/SVG/1.1/DTD/svg11.dtd">
<!-- Generated by graphviz version 13.1.0 (20250701.0955)
 -->
<!-- Title: BSP::TouchScreen Pages: 1 -->
<svg width="246pt" height="208pt"
 viewBox="0.00 0.00 246.00 208.00" xmlns="http://www.w3.org/2000/svg" xmlns:xlink="http://www.w3.org/1999/xlink">
<g id="graph0" class="graph" transform="scale(1 1) rotate(0) translate(4 204)">
<title>BSP::TouchScreen</title>
<!-- Node1 -->
<g id="Node000001" class="node">
<title>Node1</title>
<g id="a_Node000001"><a xlink:title="Touch screen controller integrating XPT2046 driver with TouchGFX.">
<polygon fill="#999999" stroke="none" points="169.5,-100 78.25,-100 78.25,0 169.5,0 169.5,-100"/>
<text xml:space="preserve" text-anchor="start" x="82.25" y="-86.5" font-family="Helvetica,sans-Serif" font-size="10.00">BSP::TouchScreen</text>
<text xml:space="preserve" text-anchor="start" x="122.38" y="-70.5" font-family="Helvetica,sans-Serif" font-size="10.00"> </text>
<text xml:space="preserve" text-anchor="start" x="84.62" y="-54.5" font-family="Helvetica,sans-Serif" font-size="10.00">+</text>
<text xml:space="preserve" text-anchor="start" x="97" y="-54.5" font-family="Helvetica,sans-Serif" font-size="10.00">TouchScreen()</text>
<text xml:space="preserve" text-anchor="start" x="84.62" y="-38.5" font-family="Helvetica,sans-Serif" font-size="10.00">+</text>
<text xml:space="preserve" text-anchor="start" x="97" y="-38.5" font-family="Helvetica,sans-Serif" font-size="10.00">init()</text>
<text xml:space="preserve" text-anchor="start" x="84.62" y="-22.5" font-family="Helvetica,sans-Serif" font-size="10.00">+</text>
<text xml:space="preserve" text-anchor="start" x="97" y="-22.5" font-family="Helvetica,sans-Serif" font-size="10.00">sampleTouch()</text>
<text xml:space="preserve" text-anchor="start" x="84.62" y="-6.5" font-family="Helvetica,sans-Serif" font-size="10.00">+</text>
<text xml:space="preserve" text-anchor="start" x="97" y="-6.5" font-family="Helvetica,sans-Serif" font-size="10.00">setRotation()</text>
<polygon fill="#666666" stroke="#666666" points="78.25,-82 78.25,-82 169.5,-82 169.5,-82 78.25,-82"/>
<polygon fill="#666666" stroke="#666666" points="78.25,-66 78.25,-66 169.5,-66 169.5,-66 78.25,-66"/>
<polygon fill="none" stroke="#666666" points="78.25,0 78.25,-100 169.5,-100 169.5,0 78.25,0"/>
</a>
</g>
</g>
<!-- Node2 -->
<g id="Node000002" class="node">
<title>Node2</title>
<g id="a_Node000002"><a xlink:title=" ">
<polygon fill="white" stroke="none" points="119.75,-194 0,-194 0,-142 119.75,-142 119.75,-194"/>
<text xml:space="preserve" text-anchor="start" x="4" y="-180.5" font-family="Helvetica,sans-Serif" font-size="10.00">touchgfx::TouchController</text>
<text xml:space="preserve" text-anchor="start" x="58.38" y="-164.5" font-family="Helvetica,sans-Serif" font-size="10.00"> </text>
<text xml:space="preserve" text-anchor="start" x="58.38" y="-148.5" font-family="Helvetica,sans-Serif" font-size="10.00"> </text>
<polygon fill="#bfbfbf" stroke="#bfbfbf" points="0,-176 0,-176 119.75,-176 119.75,-176 0,-176"/>
<polygon fill="#bfbfbf" stroke="#bfbfbf" points="0,-160 0,-160 119.75,-160 119.75,-160 0,-160"/>
<polygon fill="none" stroke="#bfbfbf" points="0,-142 0,-194 119.75,-194 119.75,-142 0,-142"/>
</a>
</g>
</g>
<!-- Node2&#45;&gt;Node1 -->
<g id="edge1_Node000001_Node000002" class="edge">
<title>Node2&#45;&gt;Node1</title>
<g id="a_edge1_Node000001_Node000002"><a xlink:title=" ">
<path fill="none" stroke="#63b8ff" d="M79.01,-132.32C84.66,-122.08 90.95,-110.67 97,-99.72"/>
<polygon fill="none" stroke="#63b8ff" points="76.1,-130.34 74.34,-140.79 82.23,-133.72 76.1,-130.34"/>
</a>
</g>
</g>
<!-- Node3 -->
<g id="Node000003" class="node">
<title>Node3</title>
<g id="a_Node000003"><a xlink:href="../../d5/d6b/class_lib_1_1_b_s_p_1_1_x_p_t2046_1_1_driver.html" target="_top" xlink:title=" ">
<polygon fill="white" stroke="none" points="237.62,-200 138.12,-200 138.12,-136 237.62,-136 237.62,-200"/>
<text xml:space="preserve" text-anchor="start" x="142.12" y="-186.5" font-family="Helvetica,sans-Serif" font-size="10.00">Lib::BSP::XPT2046::</text>
<text xml:space="preserve" text-anchor="start" x="174.75" y="-174.5" font-family="Helvetica,sans-Serif" font-size="10.00">Driver</text>
<text xml:space="preserve" text-anchor="start" x="186.38" y="-158.5" font-family="Helvetica,sans-Serif" font-size="10.00"> </text>
<text xml:space="preserve" text-anchor="start" x="186.38" y="-142.5" font-family="Helvetica,sans-Serif" font-size="10.00"> </text>
<polygon fill="#bfbfbf" stroke="#bfbfbf" points="138.12,-170 138.12,-170 237.62,-170 237.62,-170 138.12,-170"/>
<polygon fill="#bfbfbf" stroke="#bfbfbf" points="138.12,-154 138.12,-154 237.62,-154 237.62,-154 138.12,-154"/>
<polygon fill="none" stroke="#bfbfbf" points="138.12,-136 138.12,-200 237.62,-200 237.62,-136 138.12,-136"/>
</a>
</g>
</g>
<!-- Node3&#45;&gt;Node1 -->
<g id="edge2_Node000001_Node000003" class="edge">
<title>Node3&#45;&gt;Node1</title>
<g id="a_edge2_Node000001_Node000003"><a xlink:title=" ">
<path fill="none" stroke="#8b1a1a" d="M165.35,-126.18C160.66,-117.68 155.68,-108.64 150.85,-99.89"/>
<polygon fill="none" stroke="#8b1a1a" points="162.27,-127.83 170.16,-134.89 168.39,-124.45 162.27,-127.83"/>
</a>
</g>
</g>
</g>
</svg>
