<?xml version="1.0" encoding="UTF-8" standalone="no"?>
<!DOCTYPE svg PUBLIC "-//W3C//DTD SVG 1.1//EN"
 "http://www.w3.org/Graphics/SVG/1.1/DTD/svg11.dtd">
<!-- Generated by graphviz version 13.1.0 (20250701.0955)
 -->
<!-- Title: BSP::TouchScreen Pages: 1 -->
<svg width="276pt" height="508pt"
 viewBox="0.00 0.00 276.00 508.00" xmlns="http://www.w3.org/2000/svg" xmlns:xlink="http://www.w3.org/1999/xlink">
<g id="graph0" class="graph" transform="scale(1 1) rotate(0) translate(4 503.5)">
<title>BSP::TouchScreen</title>
<!-- Node1 -->
<g id="Node000001" class="node">
<title>Node1</title>
<g id="a_Node000001"><a xlink:title="TouchScreen controller integrating XPT2046 driver with TouchGFX.">
<polygon fill="#999999" stroke="none" points="194.25,-112 60,-112 60,0 194.25,0 194.25,-112"/>
<text xml:space="preserve" text-anchor="start" x="88.88" y="-99.45" font-family="Arial" font-size="9.00">BSP::TouchScreen</text>
<text xml:space="preserve" text-anchor="start" x="126" y="-84.95" font-family="Arial" font-size="9.00"> </text>
<text xml:space="preserve" text-anchor="start" x="64" y="-70.45" font-family="Arial" font-size="9.00">+</text>
<text xml:space="preserve" text-anchor="start" x="73.25" y="-70.45" font-family="Arial" font-size="9.00">TouchScreen()</text>
<text xml:space="preserve" text-anchor="start" x="64" y="-55.95" font-family="Arial" font-size="9.00">+</text>
<text xml:space="preserve" text-anchor="start" x="73.25" y="-55.95" font-family="Arial" font-size="9.00">void init() override</text>
<text xml:space="preserve" text-anchor="start" x="64" y="-41.45" font-family="Arial" font-size="9.00">+</text>
<text xml:space="preserve" text-anchor="start" x="73.25" y="-41.45" font-family="Arial" font-size="9.00">bool sampleTouch(int32</text>
<text xml:space="preserve" text-anchor="start" x="73.25" y="-30.95" font-family="Arial" font-size="9.00">_t &amp;x, int32_t &amp;y) override</text>
<text xml:space="preserve" text-anchor="start" x="64" y="-16.45" font-family="Arial" font-size="9.00">+</text>
<text xml:space="preserve" text-anchor="start" x="73.25" y="-16.45" font-family="Arial" font-size="9.00">void setRotation(bool</text>
<text xml:space="preserve" text-anchor="start" x="73.25" y="-5.95" font-family="Arial" font-size="9.00"> isRotationEnabled) override</text>
<polygon fill="#666666" stroke="#666666" points="60,-95.5 60,-95.5 194.25,-95.5 194.25,-95.5 60,-95.5"/>
<polygon fill="#666666" stroke="#666666" points="60,-81 60,-81 194.25,-81 194.25,-81 60,-81"/>
<polygon fill="none" stroke="#666666" points="60,0 60,-112 194.25,-112 194.25,0 60,0"/>
</a>
</g>
</g>
<!-- Node2 -->
<g id="Node000002" class="node">
<title>Node2</title>
<g id="a_Node000002"><a xlink:title=" ">
<polygon fill="white" stroke="none" points="112.25,-347.5 0,-347.5 0,-300 112.25,-300 112.25,-347.5"/>
<text xml:space="preserve" text-anchor="start" x="4" y="-334.95" font-family="Arial" font-size="9.00">touchgfx::TouchController</text>
<text xml:space="preserve" text-anchor="start" x="55" y="-320.45" font-family="Arial" font-size="9.00"> </text>
<text xml:space="preserve" text-anchor="start" x="55" y="-305.95" font-family="Arial" font-size="9.00"> </text>
<polygon fill="#bfbfbf" stroke="#bfbfbf" points="0,-331 0,-331 112.25,-331 112.25,-331 0,-331"/>
<polygon fill="#bfbfbf" stroke="#bfbfbf" points="0,-316.5 0,-316.5 112.25,-316.5 112.25,-316.5 0,-316.5"/>
<polygon fill="none" stroke="#bfbfbf" points="0,-300 0,-347.5 112.25,-347.5 112.25,-300 0,-300"/>
</a>
</g>
</g>
<!-- Node2&#45;&gt;Node1 -->
<g id="edge1_Node000001_Node000002" class="edge">
<title>Node2&#45;&gt;Node1</title>
<g id="a_edge1_Node000001_Node000002"><a xlink:title=" ">
<path fill="none" stroke="#63b8ff" d="M65.14,-289C77.07,-244.37 98.23,-165.17 112.46,-111.87"/>
<polygon fill="none" stroke="#63b8ff" points="61.77,-288.07 62.57,-298.63 68.53,-289.87 61.77,-288.07"/>
</a>
</g>
</g>
<!-- Node3 -->
<g id="Node000003" class="node">
<title>Node3</title>
<g id="a_Node000003"><a xlink:href="../../d5/d6b/class_lib_1_1_b_s_p_1_1_x_p_t2046_1_1_driver.html" target="_top" xlink:title="XPT2046 touch screen driver.">
<polygon fill="white" stroke="none" points="267.75,-499.5 130.5,-499.5 130.5,-148 267.75,-148 267.75,-499.5"/>
<text xml:space="preserve" text-anchor="start" x="157.88" y="-486.95" font-family="Arial" font-size="9.00">Lib::BSP::XPT2046::</text>
<text xml:space="preserve" text-anchor="start" x="186.75" y="-476.45" font-family="Arial" font-size="9.00">Driver</text>
<text xml:space="preserve" text-anchor="start" x="134.5" y="-461.95" font-family="Arial" font-size="9.00">#</text>
<text xml:space="preserve" text-anchor="start" x="143.75" y="-461.95" font-family="Arial" font-size="9.00">Impl * impl</text>
<text xml:space="preserve" text-anchor="start" x="134.5" y="-447.45" font-family="Arial" font-size="9.00">#</text>
<text xml:space="preserve" text-anchor="start" x="143.75" y="-447.45" font-family="Arial" font-size="9.00">const Parameters parameters</text>
<text xml:space="preserve" text-anchor="start" x="134.5" y="-432.95" font-family="Arial" font-size="9.00">#</text>
<text xml:space="preserve" text-anchor="start" x="143.75" y="-432.95" font-family="Arial" font-size="9.00">static constexpr uint8</text>
<text xml:space="preserve" text-anchor="start" x="143.75" y="-422.45" font-family="Arial" font-size="9.00">_t CMD_READ_X</text>
<text xml:space="preserve" text-anchor="start" x="134.5" y="-407.95" font-family="Arial" font-size="9.00">#</text>
<text xml:space="preserve" text-anchor="start" x="143.75" y="-407.95" font-family="Arial" font-size="9.00">static constexpr uint8</text>
<text xml:space="preserve" text-anchor="start" x="143.75" y="-397.45" font-family="Arial" font-size="9.00">_t CMD_READ_Y</text>
<text xml:space="preserve" text-anchor="start" x="134.5" y="-382.95" font-family="Arial" font-size="9.00">+</text>
<text xml:space="preserve" text-anchor="start" x="143.75" y="-382.95" font-family="Arial" font-size="9.00">Driver(const Config</text>
<text xml:space="preserve" text-anchor="start" x="143.75" y="-372.45" font-family="Arial" font-size="9.00"> &amp;config, const Parameters</text>
<text xml:space="preserve" text-anchor="start" x="143.75" y="-361.95" font-family="Arial" font-size="9.00"> &amp;params)</text>
<text xml:space="preserve" text-anchor="start" x="134.5" y="-347.45" font-family="Arial" font-size="9.00">+</text>
<text xml:space="preserve" text-anchor="start" x="143.75" y="-347.45" font-family="Arial" font-size="9.00">virtual ~Driver()</text>
<text xml:space="preserve" text-anchor="start" x="134.5" y="-332.95" font-family="Arial" font-size="9.00">+</text>
<text xml:space="preserve" text-anchor="start" x="143.75" y="-332.95" font-family="Arial" font-size="9.00">virtual void init()</text>
<text xml:space="preserve" text-anchor="start" x="134.5" y="-318.45" font-family="Arial" font-size="9.00">+</text>
<text xml:space="preserve" text-anchor="start" x="143.75" y="-318.45" font-family="Arial" font-size="9.00">bool sampleTouch(int32</text>
<text xml:space="preserve" text-anchor="start" x="143.75" y="-307.95" font-family="Arial" font-size="9.00">_t &amp;x, int32_t &amp;y) const</text>
<text xml:space="preserve" text-anchor="start" x="134.5" y="-293.45" font-family="Arial" font-size="9.00">+</text>
<text xml:space="preserve" text-anchor="start" x="143.75" y="-293.45" font-family="Arial" font-size="9.00">virtual void setRotation</text>
<text xml:space="preserve" text-anchor="start" x="143.75" y="-282.95" font-family="Arial" font-size="9.00">(bool value)</text>
<text xml:space="preserve" text-anchor="start" x="134.5" y="-268.45" font-family="Arial" font-size="9.00">+</text>
<text xml:space="preserve" text-anchor="start" x="143.75" y="-268.45" font-family="Arial" font-size="9.00">Driver(const Config</text>
<text xml:space="preserve" text-anchor="start" x="143.75" y="-257.95" font-family="Arial" font-size="9.00"> &amp;config, const Parameters</text>
<text xml:space="preserve" text-anchor="start" x="143.75" y="-247.45" font-family="Arial" font-size="9.00"> &amp;params)</text>
<text xml:space="preserve" text-anchor="start" x="134.5" y="-232.95" font-family="Arial" font-size="9.00">+</text>
<text xml:space="preserve" text-anchor="start" x="143.75" y="-232.95" font-family="Arial" font-size="9.00">virtual ~Driver()</text>
<text xml:space="preserve" text-anchor="start" x="134.5" y="-218.45" font-family="Arial" font-size="9.00">+</text>
<text xml:space="preserve" text-anchor="start" x="143.75" y="-218.45" font-family="Arial" font-size="9.00">virtual void init()</text>
<text xml:space="preserve" text-anchor="start" x="134.5" y="-203.95" font-family="Arial" font-size="9.00">+</text>
<text xml:space="preserve" text-anchor="start" x="143.75" y="-203.95" font-family="Arial" font-size="9.00">bool sampleTouch(int32</text>
<text xml:space="preserve" text-anchor="start" x="143.75" y="-193.45" font-family="Arial" font-size="9.00">_t &amp;x, int32_t &amp;y) const</text>
<text xml:space="preserve" text-anchor="start" x="134.5" y="-178.95" font-family="Arial" font-size="9.00">+</text>
<text xml:space="preserve" text-anchor="start" x="143.75" y="-178.95" font-family="Arial" font-size="9.00">virtual void setRotation</text>
<text xml:space="preserve" text-anchor="start" x="143.75" y="-168.45" font-family="Arial" font-size="9.00">(bool value)</text>
<text xml:space="preserve" text-anchor="start" x="134.5" y="-153.95" font-family="Arial" font-size="9.00">#</text>
<text xml:space="preserve" text-anchor="start" x="143.75" y="-153.95" font-family="Arial" font-size="9.00">void taskFn()</text>
<polygon fill="#666666" stroke="#666666" points="130.5,-472.5 130.5,-472.5 267.75,-472.5 267.75,-472.5 130.5,-472.5"/>
<polygon fill="#666666" stroke="#666666" points="130.5,-393.5 130.5,-393.5 141.75,-393.5 141.75,-393.5 130.5,-393.5"/>
<polygon fill="#666666" stroke="#666666" points="141.75,-393.5 141.75,-393.5 267.75,-393.5 267.75,-393.5 141.75,-393.5"/>
<polygon fill="none" stroke="#666666" points="130.5,-148 130.5,-499.5 267.75,-499.5 267.75,-148 130.5,-148"/>
</a>
</g>
</g>
<!-- Node3&#45;&gt;Node1 -->
<g id="edge2_Node000001_Node000003" class="edge">
<title>Node3&#45;&gt;Node1</title>
<g id="a_edge2_Node000001_Node000003"><a xlink:title=" ">
<path fill="none" stroke="#8b1a1a" d="M148.82,-137.08C146.42,-128.2 144.11,-119.7 141.97,-111.77"/>
<polygon fill="none" stroke="#8b1a1a" points="145.41,-137.89 151.41,-146.62 152.17,-136.06 145.41,-137.89"/>
</a>
</g>
</g>
</g>
</svg>
