<?xml version="1.0" encoding="UTF-8" standalone="no"?>
<!DOCTYPE svg PUBLIC "-//W3C//DTD SVG 1.1//EN"
 "http://www.w3.org/Graphics/SVG/1.1/DTD/svg11.dtd">
<!-- Generated by graphviz version 13.1.0 (20250701.0955)
 -->
<!-- Title: RTOS::TickCounter::getElapsedTicks Pages: 1 -->
<svg width="997pt" height="321pt"
 viewBox="0.00 0.00 997.00 321.00" xmlns="http://www.w3.org/2000/svg" xmlns:xlink="http://www.w3.org/1999/xlink">
<g id="graph0" class="graph" transform="scale(1 1) rotate(0) translate(4 317)">
<title>RTOS::TickCounter::getElapsedTicks</title>
<!-- Node1 -->
<g id="Node000001" class="node">
<title>Node1</title>
<g id="a_Node000001"><a xlink:title="Calculates elapsed ticks between two tick counts with overflow handling.">
<polygon fill="#999999" stroke="#666666" points="989.25,-157 881,-157 881,-125 989.25,-125 989.25,-157"/>
<text xml:space="preserve" text-anchor="start" x="889" y="-143.5" font-family="Helvetica,sans-Serif" font-size="10.00">RTOS::TickCounter::</text>
<text xml:space="preserve" text-anchor="middle" x="935.12" y="-131.5" font-family="Helvetica,sans-Serif" font-size="10.00">getElapsedTicks</text>
</a>
</g>
</g>
<!-- Node2 -->
<g id="Node000002" class="node">
<title>Node2</title>
<g id="a_Node000002"><a xlink:href="../../dd/de3/a00201.html#a8c98115e0686dac9274db23731149684" target="_top" xlink:title="Calculates elapsed milliseconds between two tick counts with overflow handling.">
<polygon fill="white" stroke="#666666" points="842.38,-222 734.12,-222 734.12,-190 842.38,-190 842.38,-222"/>
<text xml:space="preserve" text-anchor="start" x="742.12" y="-208.5" font-family="Helvetica,sans-Serif" font-size="10.00">RTOS::TickCounter::</text>
<text xml:space="preserve" text-anchor="middle" x="788.25" y="-196.5" font-family="Helvetica,sans-Serif" font-size="10.00">getElapsedMs</text>
</a>
</g>
</g>
<!-- Node1&#45;&gt;Node2 -->
<g id="edge1_Node000001_Node000002" class="edge">
<title>Node1&#45;&gt;Node2</title>
<g id="a_edge1_Node000001_Node000002"><a xlink:title=" ">
<path fill="none" stroke="#63b8ff" d="M887.16,-162.07C867.26,-171 844.41,-181.25 825.8,-189.6"/>
<polygon fill="#63b8ff" stroke="#63b8ff" points="888.49,-165.31 896.19,-158.02 885.63,-158.92 888.49,-165.31"/>
</a>
</g>
</g>
<!-- Node6 -->
<g id="Node000006" class="node">
<title>Node6</title>
<g id="a_Node000006"><a xlink:href="../../dd/de3/a00201.html#ad6915fe87c8e6127f5357b1a5eeb12e2" target="_top" xlink:title="Calculates elapsed ticks from a starting tick count to the current time.">
<polygon fill="white" stroke="#666666" points="845,-132 731.5,-132 731.5,-100 845,-100 845,-132"/>
<text xml:space="preserve" text-anchor="start" x="739.5" y="-118.5" font-family="Helvetica,sans-Serif" font-size="10.00">RTOS::TickCounter::</text>
<text xml:space="preserve" text-anchor="middle" x="788.25" y="-106.5" font-family="Helvetica,sans-Serif" font-size="10.00">getElapsedTicksSince</text>
</a>
</g>
</g>
<!-- Node1&#45;&gt;Node6 -->
<g id="edge5_Node000001_Node000006" class="edge">
<title>Node1&#45;&gt;Node6</title>
<g id="a_edge5_Node000001_Node000006"><a xlink:title=" ">
<path fill="none" stroke="#63b8ff" d="M869.42,-129.84C861.44,-128.46 853.32,-127.06 845.48,-125.7"/>
<polygon fill="#63b8ff" stroke="#63b8ff" points="868.65,-133.25 879.1,-131.5 869.84,-126.35 868.65,-133.25"/>
</a>
</g>
</g>
<!-- Node3 -->
<g id="Node000003" class="node">
<title>Node3</title>
<g id="a_Node000003"><a xlink:href="../../dd/de3/a00201.html#a656362bb6a790f57d2802b677fa25a5b" target="_top" xlink:title="Calculates elapsed milliseconds from a starting tick count to the current time.">
<polygon fill="white" stroke="#666666" points="680.12,-263 571.88,-263 571.88,-231 680.12,-231 680.12,-263"/>
<text xml:space="preserve" text-anchor="start" x="579.88" y="-249.5" font-family="Helvetica,sans-Serif" font-size="10.00">RTOS::TickCounter::</text>
<text xml:space="preserve" text-anchor="middle" x="626" y="-237.5" font-family="Helvetica,sans-Serif" font-size="10.00">getElapsedMsSince</text>
</a>
</g>
</g>
<!-- Node2&#45;&gt;Node3 -->
<g id="edge2_Node000002_Node000003" class="edge">
<title>Node2&#45;&gt;Node3</title>
<g id="a_edge2_Node000002_Node000003"><a xlink:title=" ">
<path fill="none" stroke="#63b8ff" d="M722.79,-222.49C708.72,-226.09 693.98,-229.86 680.4,-233.34"/>
<polygon fill="#63b8ff" stroke="#63b8ff" points="723.6,-225.9 732.42,-220.03 721.87,-219.12 723.6,-225.9"/>
</a>
</g>
</g>
<!-- Node4 -->
<g id="Node000004" class="node">
<title>Node4</title>
<g id="a_Node000004"><a xlink:href="../../dd/de3/a00201.html#a990a0d5e6a63f188b60a7d4d2850ff75" target="_top" xlink:title="Calculates remaining time until timeout expiration in milliseconds.">
<polygon fill="white" stroke="#666666" points="499.88,-313 388.62,-313 388.62,-281 499.88,-281 499.88,-313"/>
<text xml:space="preserve" text-anchor="start" x="396.62" y="-299.5" font-family="Helvetica,sans-Serif" font-size="10.00">RTOS::TickCounter::</text>
<text xml:space="preserve" text-anchor="middle" x="444.25" y="-287.5" font-family="Helvetica,sans-Serif" font-size="10.00">getRemainingTimeMs</text>
</a>
</g>
</g>
<!-- Node3&#45;&gt;Node4 -->
<g id="edge3_Node000003_Node000004" class="edge">
<title>Node3&#45;&gt;Node4</title>
<g id="a_edge3_Node000003_Node000004"><a xlink:title=" ">
<path fill="none" stroke="#63b8ff" d="M560.51,-264.94C540.83,-270.41 519.36,-276.38 500.36,-281.67"/>
<polygon fill="#63b8ff" stroke="#63b8ff" points="561.4,-268.32 570.1,-262.27 559.53,-261.58 561.4,-268.32"/>
</a>
</g>
</g>
<!-- Node5 -->
<g id="Node000005" class="node">
<title>Node5</title>
<g id="a_Node000005"><a xlink:href="../../dd/de3/a00201.html#ae65b19457bd9b4fe8ecca581ad42adf6" target="_top" xlink:title="Checks if a timeout period has elapsed since a starting tick count.">
<polygon fill="white" stroke="#666666" points="498.38,-263 390.12,-263 390.12,-231 498.38,-231 498.38,-263"/>
<text xml:space="preserve" text-anchor="start" x="398.12" y="-249.5" font-family="Helvetica,sans-Serif" font-size="10.00">RTOS::TickCounter::</text>
<text xml:space="preserve" text-anchor="middle" x="444.25" y="-237.5" font-family="Helvetica,sans-Serif" font-size="10.00">hasTimedOut</text>
</a>
</g>
</g>
<!-- Node3&#45;&gt;Node5 -->
<g id="edge4_Node000003_Node000005" class="edge">
<title>Node3&#45;&gt;Node5</title>
<g id="a_edge4_Node000003_Node000005"><a xlink:title=" ">
<path fill="none" stroke="#63b8ff" d="M560.25,-247C540.1,-247 518.1,-247 498.8,-247"/>
<polygon fill="#63b8ff" stroke="#63b8ff" points="560.04,-250.5 570.04,-247 560.04,-243.5 560.04,-250.5"/>
</a>
</g>
</g>
<!-- Node7 -->
<g id="Node000007" class="node">
<title>Node7</title>
<g id="a_Node000007"><a xlink:href="../../d1/de1/a00213.html#a7d284ed1a91d568f176eb93a816e2b13" target="_top" xlink:title="Get elapsed time since timeout was started.">
<polygon fill="white" stroke="#666666" points="695.5,-170 556.5,-170 556.5,-150 695.5,-150 695.5,-170"/>
<text xml:space="preserve" text-anchor="middle" x="626" y="-156.5" font-family="Helvetica,sans-Serif" font-size="10.00">RTOS::Timeout::getElapsed</text>
</a>
</g>
</g>
<!-- Node6&#45;&gt;Node7 -->
<g id="edge6_Node000006_Node000007" class="edge">
<title>Node6&#45;&gt;Node7</title>
<g id="a_edge6_Node000006_Node000007"><a xlink:title=" ">
<path fill="none" stroke="#63b8ff" d="M720.27,-134.39C701.46,-139.56 681.65,-145 665.15,-149.53"/>
<polygon fill="#63b8ff" stroke="#63b8ff" points="721.03,-137.81 729.74,-131.79 719.17,-131.06 721.03,-137.81"/>
</a>
</g>
</g>
<!-- Node10 -->
<g id="Node000010" class="node">
<title>Node10</title>
<g id="a_Node000010"><a xlink:href="../../dd/de3/a00201.html#ac222ca3aa3f00628bd8a6ff62041ea70" target="_top" xlink:title="Calculates remaining ticks until timeout expiration.">
<polygon fill="white" stroke="#666666" points="680.12,-132 571.88,-132 571.88,-100 680.12,-100 680.12,-132"/>
<text xml:space="preserve" text-anchor="start" x="579.88" y="-118.5" font-family="Helvetica,sans-Serif" font-size="10.00">RTOS::TickCounter::</text>
<text xml:space="preserve" text-anchor="middle" x="626" y="-106.5" font-family="Helvetica,sans-Serif" font-size="10.00">getRemainingTicks</text>
</a>
</g>
</g>
<!-- Node6&#45;&gt;Node10 -->
<g id="edge9_Node000006_Node000010" class="edge">
<title>Node6&#45;&gt;Node10</title>
<g id="a_edge9_Node000006_Node000010"><a xlink:title=" ">
<path fill="none" stroke="#63b8ff" d="M719.84,-116C706.74,-116 693.17,-116 680.59,-116"/>
<polygon fill="#63b8ff" stroke="#63b8ff" points="719.69,-119.5 729.69,-116 719.69,-112.5 719.69,-119.5"/>
</a>
</g>
</g>
<!-- Node15 -->
<g id="Node000015" class="node">
<title>Node15</title>
<g id="a_Node000015"><a xlink:href="../../dd/de3/a00201.html#a29654984a0cf81674d5a17fcc63d7df3" target="_top" xlink:title="Checks if a timeout period has elapsed since a starting tick count using tick units.">
<polygon fill="white" stroke="#666666" points="680.12,-82 571.88,-82 571.88,-50 680.12,-50 680.12,-82"/>
<text xml:space="preserve" text-anchor="start" x="579.88" y="-68.5" font-family="Helvetica,sans-Serif" font-size="10.00">RTOS::TickCounter::</text>
<text xml:space="preserve" text-anchor="middle" x="626" y="-56.5" font-family="Helvetica,sans-Serif" font-size="10.00">hasTimedOutTicks</text>
</a>
</g>
</g>
<!-- Node6&#45;&gt;Node15 -->
<g id="edge14_Node000006_Node000015" class="edge">
<title>Node6&#45;&gt;Node15</title>
<g id="a_edge14_Node000006_Node000015"><a xlink:title=" ">
<path fill="none" stroke="#63b8ff" d="M723.82,-96.21C709.26,-91.67 693.93,-86.88 679.86,-82.49"/>
<polygon fill="#63b8ff" stroke="#63b8ff" points="722.74,-99.54 733.33,-99.18 724.83,-92.86 722.74,-99.54"/>
</a>
</g>
</g>
<!-- Node19 -->
<g id="Node000019" class="node">
<title>Node19</title>
<g id="a_Node000019"><a xlink:href="../../d5/d13/a00205.html#ac735c01182cf815361e5c13544300231" target="_top" xlink:title="Start the periodic tick event dispatch loop.">
<polygon fill="white" stroke="#666666" points="679.38,-32 572.62,-32 572.62,0 679.38,0 679.38,-32"/>
<text xml:space="preserve" text-anchor="start" x="580.62" y="-18.5" font-family="Helvetica,sans-Serif" font-size="10.00">RTOS::TickService::</text>
<text xml:space="preserve" text-anchor="middle" x="626" y="-6.5" font-family="Helvetica,sans-Serif" font-size="10.00">start</text>
</a>
</g>
</g>
<!-- Node6&#45;&gt;Node19 -->
<g id="edge18_Node000006_Node000019" class="edge">
<title>Node6&#45;&gt;Node19</title>
<g id="a_edge18_Node000006_Node000019"><a xlink:title=" ">
<path fill="none" stroke="#63b8ff" d="M762.93,-92.27C745.34,-76.11 720.39,-55.17 695.5,-41 690,-37.87 684.03,-35.01 678,-32.43"/>
<polygon fill="#63b8ff" stroke="#63b8ff" points="760.14,-94.45 769.83,-98.73 764.92,-89.34 760.14,-94.45"/>
</a>
</g>
</g>
<!-- Node8 -->
<g id="Node000008" class="node">
<title>Node8</title>
<g id="a_Node000008"><a xlink:href="../../d1/de1/a00213.html#aad0f7b2562a1db21d6b9889adaad0407" target="_top" xlink:title="Get elapsed time in milliseconds.">
<polygon fill="white" stroke="#666666" points="520.5,-213 368,-213 368,-193 520.5,-193 520.5,-213"/>
<text xml:space="preserve" text-anchor="middle" x="444.25" y="-199.5" font-family="Helvetica,sans-Serif" font-size="10.00">RTOS::Timeout::getElapsedMs</text>
</a>
</g>
</g>
<!-- Node7&#45;&gt;Node8 -->
<g id="edge7_Node000007_Node000008" class="edge">
<title>Node7&#45;&gt;Node8</title>
<g id="a_edge7_Node000007_Node000008"><a xlink:title=" ">
<path fill="none" stroke="#63b8ff" d="M570.61,-173.01C544.48,-179.26 513.57,-186.66 488.98,-192.54"/>
<polygon fill="#63b8ff" stroke="#63b8ff" points="571.1,-176.49 580.02,-170.76 569.48,-169.68 571.1,-176.49"/>
</a>
</g>
</g>
<!-- Node9 -->
<g id="Node000009" class="node">
<title>Node9</title>
<g id="a_Node000009"><a xlink:href="../../d1/de1/a00213.html#ad0cc9f6cd4a3ebd568027e5dc23433d9" target="_top" xlink:title="Get timeout progress as percentage.">
<polygon fill="white" stroke="#666666" points="515.62,-175 372.88,-175 372.88,-143 515.62,-143 515.62,-175"/>
<text xml:space="preserve" text-anchor="start" x="380.88" y="-161.5" font-family="Helvetica,sans-Serif" font-size="10.00">RTOS::Timeout::getProgress</text>
<text xml:space="preserve" text-anchor="middle" x="444.25" y="-149.5" font-family="Helvetica,sans-Serif" font-size="10.00">Percent</text>
</a>
</g>
</g>
<!-- Node7&#45;&gt;Node9 -->
<g id="edge8_Node000007_Node000009" class="edge">
<title>Node7&#45;&gt;Node9</title>
<g id="a_edge8_Node000007_Node000009"><a xlink:title=" ">
<path fill="none" stroke="#63b8ff" d="M544.78,-159.55C535.13,-159.5 525.33,-159.45 515.83,-159.39"/>
<polygon fill="#63b8ff" stroke="#63b8ff" points="544.49,-163.05 554.5,-159.61 544.52,-156.05 544.49,-163.05"/>
</a>
</g>
</g>
<!-- Node11 -->
<g id="Node000011" class="node">
<title>Node11</title>
<g id="a_Node000011"><a xlink:href="../../d1/de1/a00213.html#a7c9970080cf34f6199d970b3bd64447f" target="_top" xlink:title="Get remaining timeout duration in ticks.">
<polygon fill="white" stroke="#666666" points="519.38,-125 369.12,-125 369.12,-105 519.38,-105 519.38,-125"/>
<text xml:space="preserve" text-anchor="middle" x="444.25" y="-111.5" font-family="Helvetica,sans-Serif" font-size="10.00">RTOS::Timeout::getRemaining</text>
</a>
</g>
</g>
<!-- Node10&#45;&gt;Node11 -->
<g id="edge10_Node000010_Node000011" class="edge">
<title>Node10&#45;&gt;Node11</title>
<g id="a_edge10_Node000010_Node000011"><a xlink:title=" ">
<path fill="none" stroke="#63b8ff" d="M560.25,-115.64C547.12,-115.57 533.21,-115.49 519.78,-115.41"/>
<polygon fill="#63b8ff" stroke="#63b8ff" points="560.02,-119.14 570.04,-115.69 560.06,-112.14 560.02,-119.14"/>
</a>
</g>
</g>
<!-- Node12 -->
<g id="Node000012" class="node">
<title>Node12</title>
<g id="a_Node000012"><a xlink:href="../../d1/de1/a00213.html#aa0d343779f312d14ba3af6c2c8c11a59" target="_top" xlink:title="Get remaining timeout duration in milliseconds.">
<polygon fill="white" stroke="#666666" points="332,-168 168.25,-168 168.25,-148 332,-148 332,-168"/>
<text xml:space="preserve" text-anchor="middle" x="250.12" y="-154.5" font-family="Helvetica,sans-Serif" font-size="10.00">RTOS::Timeout::getRemainingMs</text>
</a>
</g>
</g>
<!-- Node11&#45;&gt;Node12 -->
<g id="edge11_Node000011_Node000012" class="edge">
<title>Node11&#45;&gt;Node12</title>
<g id="a_edge11_Node000011_Node000012"><a xlink:title=" ">
<path fill="none" stroke="#63b8ff" d="M385.86,-127.84C357.77,-134.13 324.38,-141.6 297.87,-147.54"/>
<polygon fill="#63b8ff" stroke="#63b8ff" points="386.27,-131.34 395.26,-125.74 384.74,-124.51 386.27,-131.34"/>
</a>
</g>
</g>
<!-- Node13 -->
<g id="Node000013" class="node">
<title>Node13</title>
<g id="a_Node000013"><a xlink:href="../../d1/de1/a00213.html#afa5201886dcc6c0974c3752324d0d51c" target="_top" xlink:title="Check if timeout will expire within specified ticks.">
<polygon fill="white" stroke="#666666" points="316.25,-130 184,-130 184,-98 316.25,-98 316.25,-130"/>
<text xml:space="preserve" text-anchor="start" x="192" y="-116.5" font-family="Helvetica,sans-Serif" font-size="10.00">RTOS::Timeout::willExpire</text>
<text xml:space="preserve" text-anchor="middle" x="250.12" y="-104.5" font-family="Helvetica,sans-Serif" font-size="10.00">Within</text>
</a>
</g>
</g>
<!-- Node11&#45;&gt;Node13 -->
<g id="edge12_Node000011_Node000013" class="edge">
<title>Node11&#45;&gt;Node13</title>
<g id="a_edge12_Node000011_Node000013"><a xlink:title=" ">
<path fill="none" stroke="#63b8ff" d="M357.3,-114.55C343.62,-114.48 329.67,-114.41 316.57,-114.34"/>
<polygon fill="#63b8ff" stroke="#63b8ff" points="357.16,-118.05 367.18,-114.6 357.2,-111.05 357.16,-118.05"/>
</a>
</g>
</g>
<!-- Node14 -->
<g id="Node000014" class="node">
<title>Node14</title>
<g id="a_Node000014"><a xlink:href="../../d1/de1/a00213.html#a415352c21da62d71455c1125aba9f066" target="_top" xlink:title="Check if timeout will expire within specified milliseconds.">
<polygon fill="white" stroke="#666666" points="132.25,-130 0,-130 0,-98 132.25,-98 132.25,-130"/>
<text xml:space="preserve" text-anchor="start" x="8" y="-116.5" font-family="Helvetica,sans-Serif" font-size="10.00">RTOS::Timeout::willExpire</text>
<text xml:space="preserve" text-anchor="middle" x="66.12" y="-104.5" font-family="Helvetica,sans-Serif" font-size="10.00">WithinMs</text>
</a>
</g>
</g>
<!-- Node13&#45;&gt;Node14 -->
<g id="edge13_Node000013_Node000014" class="edge">
<title>Node13&#45;&gt;Node14</title>
<g id="a_edge13_Node000013_Node000014"><a xlink:title=" ">
<path fill="none" stroke="#63b8ff" d="M172.22,-114C159.04,-114 145.45,-114 132.6,-114"/>
<polygon fill="#63b8ff" stroke="#63b8ff" points="172.16,-117.5 182.16,-114 172.16,-110.5 172.16,-117.5"/>
</a>
</g>
</g>
<!-- Node16 -->
<g id="Node000016" class="node">
<title>Node16</title>
<g id="a_Node000016"><a xlink:href="../../d1/de1/a00213.html#a0323d632712ac0fe685a1109c9b60c1a" target="_top" xlink:title="Check if timeout has expired.">
<polygon fill="white" stroke="#666666" points="509.62,-76 378.88,-76 378.88,-56 509.62,-56 509.62,-76"/>
<text xml:space="preserve" text-anchor="middle" x="444.25" y="-62.5" font-family="Helvetica,sans-Serif" font-size="10.00">RTOS::Timeout::isExpired</text>
</a>
</g>
</g>
<!-- Node15&#45;&gt;Node16 -->
<g id="edge15_Node000015_Node000016" class="edge">
<title>Node15&#45;&gt;Node16</title>
<g id="a_edge15_Node000015_Node000016"><a xlink:title=" ">
<path fill="none" stroke="#63b8ff" d="M560.41,-66C543.99,-66 526.35,-66 509.92,-66"/>
<polygon fill="#63b8ff" stroke="#63b8ff" points="560.04,-69.5 570.04,-66 560.04,-62.5 560.04,-69.5"/>
</a>
</g>
</g>
<!-- Node17 -->
<g id="Node000017" class="node">
<title>Node17</title>
<g id="a_Node000017"><a xlink:href="../../d1/de1/a00213.html#a11a9f02a546f98502dce9d30a4d8562f" target="_top" xlink:title="Inequality comparison with boolean expiration state.">
<polygon fill="white" stroke="#666666" points="317.38,-79 182.88,-79 182.88,-59 317.38,-59 317.38,-79"/>
<text xml:space="preserve" text-anchor="middle" x="250.12" y="-65.5" font-family="Helvetica,sans-Serif" font-size="10.00">RTOS::Timeout::operator!=</text>
</a>
</g>
</g>
<!-- Node16&#45;&gt;Node17 -->
<g id="edge16_Node000016_Node000017" class="edge">
<title>Node16&#45;&gt;Node17</title>
<g id="a_edge16_Node000016_Node000017"><a xlink:title=" ">
<path fill="none" stroke="#63b8ff" d="M367.26,-67.19C350.84,-67.44 333.61,-67.71 317.59,-67.96"/>
<polygon fill="#63b8ff" stroke="#63b8ff" points="367.02,-70.69 376.96,-67.04 366.91,-63.69 367.02,-70.69"/>
</a>
</g>
</g>
<!-- Node18 -->
<g id="Node000018" class="node">
<title>Node18</title>
<g id="a_Node000018"><a xlink:href="../../d1/de1/a00213.html#a2e21851db10482d0274ec8adb2a74d75" target="_top" xlink:title="Equality comparison with boolean expiration state.">
<polygon fill="white" stroke="#666666" points="318.88,-41 181.38,-41 181.38,-21 318.88,-21 318.88,-41"/>
<text xml:space="preserve" text-anchor="middle" x="250.12" y="-27.5" font-family="Helvetica,sans-Serif" font-size="10.00">RTOS::Timeout::operator==</text>
</a>
</g>
</g>
<!-- Node16&#45;&gt;Node18 -->
<g id="edge17_Node000016_Node000018" class="edge">
<title>Node16&#45;&gt;Node18</title>
<g id="a_edge17_Node000016_Node000018"><a xlink:title=" ">
<path fill="none" stroke="#63b8ff" d="M374.75,-53.52C353.07,-49.57 329.36,-45.25 308.54,-41.46"/>
<polygon fill="#63b8ff" stroke="#63b8ff" points="373.91,-56.93 384.38,-55.27 375.17,-50.04 373.91,-56.93"/>
</a>
</g>
</g>
</g>
</svg>
