<?xml version="1.0" encoding="UTF-8" standalone="no"?>
<!DOCTYPE svg PUBLIC "-//W3C//DTD SVG 1.1//EN"
 "http://www.w3.org/Graphics/SVG/1.1/DTD/svg11.dtd">
<!-- Generated by graphviz version 12.2.1 (20241206.2353)
 -->
<!-- Title: Lib::Xbee::API::Service::NetworkDiscovery::Node Pages: 1 -->
<svg width="132pt" height="104pt"
 viewBox="0.00 0.00 132.25 104.00" xmlns="http://www.w3.org/2000/svg" xmlns:xlink="http://www.w3.org/1999/xlink">
<g id="graph0" class="graph" transform="scale(1 1) rotate(0) translate(4 100)">
<title>Lib::Xbee::API::Service::NetworkDiscovery::Node</title>
<!-- Node1 -->
<g id="Node000001" class="node">
<title>Node1</title>
<g id="a_Node000001"><a xlink:title="Represents a node in the network.">
<polygon fill="#999999" stroke="none" points="124.25,-96 0,-96 0,0 124.25,0 124.25,-96"/>
<text text-anchor="start" x="4" y="-82.5" font-family="Helvetica,sans-Serif" font-size="10.00">Lib::Xbee::API::Service</text>
<text text-anchor="start" x="4" y="-70.5" font-family="Helvetica,sans-Serif" font-size="10.00">::NetworkDiscovery::Node</text>
<text text-anchor="start" x="15.94" y="-54.5" font-family="Helvetica,sans-Serif" font-size="10.00">+</text>
<text text-anchor="start" x="37.88" y="-54.5" font-family="Helvetica,sans-Serif" font-size="10.00">nodeAddr16</text>
<text text-anchor="start" x="15.94" y="-38.5" font-family="Helvetica,sans-Serif" font-size="10.00">+</text>
<text text-anchor="start" x="37.88" y="-38.5" font-family="Helvetica,sans-Serif" font-size="10.00">macAddress</text>
<text text-anchor="start" x="15.94" y="-22.5" font-family="Helvetica,sans-Serif" font-size="10.00">+</text>
<text text-anchor="start" x="37.88" y="-22.5" font-family="Helvetica,sans-Serif" font-size="10.00">nodeIdentifier</text>
<text text-anchor="start" x="15.94" y="-6.5" font-family="Helvetica,sans-Serif" font-size="10.00">+</text>
<text text-anchor="start" x="37.88" y="-6.5" font-family="Helvetica,sans-Serif" font-size="10.00">Node()</text>
<polygon fill="#666666" stroke="#666666" points="0,-66 0,-66 124.25,-66 124.25,-66 0,-66"/>
<polygon fill="#666666" stroke="#666666" points="0,-18 0,-18 35.88,-18 35.88,-18 0,-18"/>
<polygon fill="#666666" stroke="#666666" points="35.88,-18 35.88,-18 124.25,-18 124.25,-18 35.88,-18"/>
<polygon fill="none" stroke="#666666" points="0,0 0,-96 124.25,-96 124.25,0 0,0"/>
</a>
</g>
</g>
</g>
</svg>
