<?xml version="1.0" encoding="UTF-8" standalone="no"?>
<!DOCTYPE svg PUBLIC "-//W3C//DTD SVG 1.1//EN"
 "http://www.w3.org/Graphics/SVG/1.1/DTD/svg11.dtd">
<!-- Generated by graphviz version 13.1.0 (20250701.0955)
 -->
<!-- Title: Lib::BSP::Termometer::DTH::Base Pages: 1 -->
<svg width="375pt" height="841pt"
 viewBox="0.00 0.00 375.00 841.00" xmlns="http://www.w3.org/2000/svg" xmlns:xlink="http://www.w3.org/1999/xlink">
<g id="graph0" class="graph" transform="scale(1 1) rotate(0) translate(4 837)">
<title>Lib::BSP::Termometer::DTH::Base</title>
<!-- Node1 -->
<g id="Node000001" class="node">
<title>Node1</title>
<g id="a_Node000001"><a xlink:title="Base class for DTH thermometer drivers.">
<polygon fill="#999999" stroke="none" points="158.12,-233 41.13,-233 41.13,0 158.12,0 158.12,-233"/>
<text xml:space="preserve" text-anchor="start" x="55.38" y="-220.45" font-family="Arial" font-size="9.00">Lib::BSP::Termometer</text>
<text xml:space="preserve" text-anchor="start" x="75.25" y="-209.95" font-family="Arial" font-size="9.00">::DTH::Base</text>
<text xml:space="preserve" text-anchor="start" x="45.12" y="-195.45" font-family="Arial" font-size="9.00">#</text>
<text xml:space="preserve" text-anchor="start" x="54.38" y="-195.45" font-family="Arial" font-size="9.00">static constexpr std</text>
<text xml:space="preserve" text-anchor="start" x="54.38" y="-184.95" font-family="Arial" font-size="9.00">::array&lt; uint8_t, 8 &gt;</text>
<text xml:space="preserve" text-anchor="start" x="54.38" y="-174.45" font-family="Arial" font-size="9.00"> BIT_MASK_8MSB</text>
<text xml:space="preserve" text-anchor="start" x="45.12" y="-159.95" font-family="Arial" font-size="9.00">+</text>
<text xml:space="preserve" text-anchor="start" x="54.38" y="-159.95" font-family="Arial" font-size="9.00">Base(const Config</text>
<text xml:space="preserve" text-anchor="start" x="54.38" y="-149.45" font-family="Arial" font-size="9.00"> &amp;config)</text>
<text xml:space="preserve" text-anchor="start" x="45.12" y="-134.95" font-family="Arial" font-size="9.00">+</text>
<text xml:space="preserve" text-anchor="start" x="54.38" y="-134.95" font-family="Arial" font-size="9.00">virtual ~Base()=default</text>
<text xml:space="preserve" text-anchor="start" x="45.12" y="-120.45" font-family="Arial" font-size="9.00">+</text>
<text xml:space="preserve" text-anchor="start" x="54.38" y="-120.45" font-family="Arial" font-size="9.00">virtual bool start()</text>
<text xml:space="preserve" text-anchor="start" x="45.12" y="-105.95" font-family="Arial" font-size="9.00">+</text>
<text xml:space="preserve" text-anchor="start" x="54.38" y="-105.95" font-family="Arial" font-size="9.00">virtual void taskFn()=0</text>
<text xml:space="preserve" text-anchor="start" x="45.12" y="-91.45" font-family="Arial" font-size="9.00">#</text>
<text xml:space="preserve" text-anchor="start" x="54.38" y="-91.45" font-family="Arial" font-size="9.00">void startupImpulse</text>
<text xml:space="preserve" text-anchor="start" x="54.38" y="-80.95" font-family="Arial" font-size="9.00">(uint32_t duration)</text>
<text xml:space="preserve" text-anchor="start" x="45.12" y="-66.45" font-family="Arial" font-size="9.00">#</text>
<text xml:space="preserve" text-anchor="start" x="54.38" y="-66.45" font-family="Arial" font-size="9.00">void endReceivedData()</text>
<text xml:space="preserve" text-anchor="start" x="45.12" y="-51.95" font-family="Arial" font-size="9.00">#</text>
<text xml:space="preserve" text-anchor="start" x="54.38" y="-51.95" font-family="Arial" font-size="9.00">bool beginReceiveData</text>
<text xml:space="preserve" text-anchor="start" x="54.38" y="-41.45" font-family="Arial" font-size="9.00">(uint32_t *buffer, size</text>
<text xml:space="preserve" text-anchor="start" x="54.38" y="-30.95" font-family="Arial" font-size="9.00">_t length)</text>
<text xml:space="preserve" text-anchor="start" x="45.12" y="-16.45" font-family="Arial" font-size="9.00">#</text>
<text xml:space="preserve" text-anchor="start" x="54.38" y="-16.45" font-family="Arial" font-size="9.00">bool waitForComplete</text>
<text xml:space="preserve" text-anchor="start" x="54.38" y="-5.95" font-family="Arial" font-size="9.00">(uint32_t timeoutMs)</text>
<polygon fill="#666666" stroke="#666666" points="41.12,-206 41.12,-206 158.12,-206 158.12,-206 41.12,-206"/>
<polygon fill="#666666" stroke="#666666" points="41.12,-170.5 41.12,-170.5 52.38,-170.5 52.38,-170.5 41.12,-170.5"/>
<polygon fill="#666666" stroke="#666666" points="52.38,-170.5 52.38,-170.5 158.12,-170.5 158.12,-170.5 52.38,-170.5"/>
<polygon fill="none" stroke="#666666" points="41.12,0 41.12,-233 158.12,-233 158.12,0 41.12,0"/>
</a>
</g>
</g>
<!-- Node2 -->
<g id="Node000002" class="node">
<title>Node2</title>
<g id="a_Node000002"><a xlink:href="../../d7/d6e/class_lib_1_1_b_s_p_1_1_termometer_1_1_d_t_h_1_1_parm.html" target="_top" xlink:title="DTHxx protocol parameter constants.">
<polygon fill="white" stroke="none" points="167.25,-654 0,-654 0,-285.5 167.25,-285.5 167.25,-654"/>
<text xml:space="preserve" text-anchor="start" x="39.38" y="-641.45" font-family="Arial" font-size="9.00">Lib::BSP::Termometer</text>
<text xml:space="preserve" text-anchor="start" x="58.88" y="-630.95" font-family="Arial" font-size="9.00">::DTH::Parm</text>
<text xml:space="preserve" text-anchor="start" x="4" y="-616.45" font-family="Arial" font-size="9.00">+</text>
<text xml:space="preserve" text-anchor="start" x="13.25" y="-616.45" font-family="Arial" font-size="9.00">static constexpr size</text>
<text xml:space="preserve" text-anchor="start" x="13.25" y="-605.95" font-family="Arial" font-size="9.00">_t RAW_BITS_NUMBER</text>
<text xml:space="preserve" text-anchor="start" x="4" y="-591.45" font-family="Arial" font-size="9.00">+</text>
<text xml:space="preserve" text-anchor="start" x="13.25" y="-591.45" font-family="Arial" font-size="9.00">static constexpr size</text>
<text xml:space="preserve" text-anchor="start" x="13.25" y="-580.95" font-family="Arial" font-size="9.00">_t RAW_BYTES_NUMBER</text>
<text xml:space="preserve" text-anchor="start" x="4" y="-566.45" font-family="Arial" font-size="9.00">+</text>
<text xml:space="preserve" text-anchor="start" x="13.25" y="-566.45" font-family="Arial" font-size="9.00">static constexpr uint32</text>
<text xml:space="preserve" text-anchor="start" x="13.25" y="-555.95" font-family="Arial" font-size="9.00">_t TREL_MIN</text>
<text xml:space="preserve" text-anchor="start" x="4" y="-541.45" font-family="Arial" font-size="9.00">+</text>
<text xml:space="preserve" text-anchor="start" x="13.25" y="-541.45" font-family="Arial" font-size="9.00">static constexpr uint32</text>
<text xml:space="preserve" text-anchor="start" x="13.25" y="-530.95" font-family="Arial" font-size="9.00">_t TREL_MAX</text>
<text xml:space="preserve" text-anchor="start" x="4" y="-516.45" font-family="Arial" font-size="9.00">+</text>
<text xml:space="preserve" text-anchor="start" x="13.25" y="-516.45" font-family="Arial" font-size="9.00">static constexpr uint32</text>
<text xml:space="preserve" text-anchor="start" x="13.25" y="-505.95" font-family="Arial" font-size="9.00">_t TREH_MIN</text>
<text xml:space="preserve" text-anchor="start" x="4" y="-491.45" font-family="Arial" font-size="9.00">+</text>
<text xml:space="preserve" text-anchor="start" x="13.25" y="-491.45" font-family="Arial" font-size="9.00">static constexpr uint32</text>
<text xml:space="preserve" text-anchor="start" x="13.25" y="-480.95" font-family="Arial" font-size="9.00">_t TREH_MAX</text>
<text xml:space="preserve" text-anchor="start" x="4" y="-466.45" font-family="Arial" font-size="9.00">+</text>
<text xml:space="preserve" text-anchor="start" x="13.25" y="-466.45" font-family="Arial" font-size="9.00">static constexpr uint32</text>
<text xml:space="preserve" text-anchor="start" x="13.25" y="-455.95" font-family="Arial" font-size="9.00">_t TH_ZERO_MIN</text>
<text xml:space="preserve" text-anchor="start" x="4" y="-441.45" font-family="Arial" font-size="9.00">+</text>
<text xml:space="preserve" text-anchor="start" x="13.25" y="-441.45" font-family="Arial" font-size="9.00">static constexpr uint32</text>
<text xml:space="preserve" text-anchor="start" x="13.25" y="-430.95" font-family="Arial" font-size="9.00">_t TH_ZERO_MAX</text>
<text xml:space="preserve" text-anchor="start" x="4" y="-416.45" font-family="Arial" font-size="9.00">+</text>
<text xml:space="preserve" text-anchor="start" x="13.25" y="-416.45" font-family="Arial" font-size="9.00">static constexpr uint32</text>
<text xml:space="preserve" text-anchor="start" x="13.25" y="-405.95" font-family="Arial" font-size="9.00">_t TH_ONE_MIN</text>
<text xml:space="preserve" text-anchor="start" x="4" y="-391.45" font-family="Arial" font-size="9.00">+</text>
<text xml:space="preserve" text-anchor="start" x="13.25" y="-391.45" font-family="Arial" font-size="9.00">static constexpr uint32</text>
<text xml:space="preserve" text-anchor="start" x="13.25" y="-380.95" font-family="Arial" font-size="9.00">_t TH_ONE_MAX</text>
<text xml:space="preserve" text-anchor="start" x="4" y="-366.45" font-family="Arial" font-size="9.00">+</text>
<text xml:space="preserve" text-anchor="start" x="13.25" y="-366.45" font-family="Arial" font-size="9.00">static constexpr uint32</text>
<text xml:space="preserve" text-anchor="start" x="13.25" y="-355.95" font-family="Arial" font-size="9.00">_t TL_MIN</text>
<text xml:space="preserve" text-anchor="start" x="4" y="-341.45" font-family="Arial" font-size="9.00">+</text>
<text xml:space="preserve" text-anchor="start" x="13.25" y="-341.45" font-family="Arial" font-size="9.00">static constexpr uint32</text>
<text xml:space="preserve" text-anchor="start" x="13.25" y="-330.95" font-family="Arial" font-size="9.00">_t TL_MAX</text>
<text xml:space="preserve" text-anchor="start" x="4" y="-316.45" font-family="Arial" font-size="9.00">+</text>
<text xml:space="preserve" text-anchor="start" x="13.25" y="-316.45" font-family="Arial" font-size="9.00">static constexpr uint32</text>
<text xml:space="preserve" text-anchor="start" x="13.25" y="-305.95" font-family="Arial" font-size="9.00">_t RECEIVE_RESPONSE_TIMEOUT</text>
<text xml:space="preserve" text-anchor="start" x="82.5" y="-291.45" font-family="Arial" font-size="9.00"> </text>
<polygon fill="#666666" stroke="#666666" points="0,-627 0,-627 167.25,-627 167.25,-627 0,-627"/>
<polygon fill="#666666" stroke="#666666" points="0,-302 0,-302 11.25,-302 11.25,-302 0,-302"/>
<polygon fill="#666666" stroke="#666666" points="11.25,-302 11.25,-302 167.25,-302 167.25,-302 11.25,-302"/>
<polygon fill="none" stroke="#666666" points="0,-285.5 0,-654 167.25,-654 167.25,-285.5 0,-285.5"/>
</a>
</g>
</g>
<!-- Node2&#45;&gt;Node1 -->
<g id="edge1_Node000001_Node000002" class="edge">
<title>Node2&#45;&gt;Node1</title>
<g id="a_edge1_Node000001_Node000002"><a xlink:title=" ">
<path fill="none" stroke="darkgreen" d="M92.48,-274.31C93.13,-260.18 93.76,-246.21 94.37,-232.78"/>
<polygon fill="none" stroke="darkgreen" points="88.99,-274.01 92.03,-284.15 95.99,-274.32 88.99,-274.01"/>
</a>
</g>
</g>
<!-- Node3 -->
<g id="Node000003" class="node">
<title>Node3</title>
<g id="a_Node000003"><a xlink:href="../../d9/dfe/struct_lib_1_1_b_s_p_1_1_termometer_1_1_d_t_h_1_1_base_1_1_config.html" target="_top" xlink:title="Configuration structure for DTH base driver.">
<polygon fill="white" stroke="none" points="293.62,-498.75 185.62,-498.75 185.62,-440.75 293.62,-440.75 293.62,-498.75"/>
<text xml:space="preserve" text-anchor="start" x="195.38" y="-486.2" font-family="Arial" font-size="9.00">Lib::BSP::Termometer</text>
<text xml:space="preserve" text-anchor="start" x="199.5" y="-475.7" font-family="Arial" font-size="9.00">::DTH::Base::Config</text>
<text xml:space="preserve" text-anchor="start" x="189.62" y="-461.2" font-family="Arial" font-size="9.00">+</text>
<text xml:space="preserve" text-anchor="start" x="198.88" y="-461.2" font-family="Arial" font-size="9.00">uint32_t updatePeriod</text>
<text xml:space="preserve" text-anchor="start" x="238.5" y="-446.7" font-family="Arial" font-size="9.00"> </text>
<polygon fill="#666666" stroke="#666666" points="185.62,-471.75 185.62,-471.75 293.62,-471.75 293.62,-471.75 185.62,-471.75"/>
<polygon fill="#666666" stroke="#666666" points="185.62,-457.25 185.62,-457.25 196.88,-457.25 196.88,-457.25 185.62,-457.25"/>
<polygon fill="#666666" stroke="#666666" points="196.88,-457.25 196.88,-457.25 293.62,-457.25 293.62,-457.25 196.88,-457.25"/>
<polygon fill="none" stroke="#666666" points="185.62,-440.75 185.62,-498.75 293.62,-498.75 293.62,-440.75 185.62,-440.75"/>
</a>
</g>
</g>
<!-- Node3&#45;&gt;Node1 -->
<g id="edge2_Node000001_Node000003" class="edge">
<title>Node3&#45;&gt;Node1</title>
<g id="a_edge2_Node000001_Node000003"><a xlink:title=" ">
<path fill="none" stroke="#63b8ff" d="M230.97,-440.81C219.53,-404.6 198.3,-339.7 176.62,-285.5 171.33,-272.25 165.55,-258.54 159.61,-244.92"/>
<polygon fill="none" stroke="#63b8ff" points="159.56,-244.79 153.48,-240.91 154.72,-233.81 160.8,-237.69 159.56,-244.79"/>
</a>
</g>
<text xml:space="preserve" text-anchor="start" x="172.03" y="-255.95" font-family="Arial" font-size="9.00" fill="grey">#config</text>
</g>
<!-- Node4 -->
<g id="Node000004" class="node">
<title>Node4</title>
<g id="a_Node000004"><a xlink:href="../../d2/de4/class_lib_1_1_h_a_l_1_1_timer_1_1_handle.html" target="_top" xlink:title="Handle for STM32 TIM peripheral channel.">
<polygon fill="white" stroke="none" points="236.12,-811.25 101.12,-811.25 101.12,-728.25 236.12,-728.25 236.12,-811.25"/>
<text xml:space="preserve" text-anchor="start" x="119.88" y="-798.7" font-family="Arial" font-size="9.00">Lib::HAL::Timer::Handle</text>
<text xml:space="preserve" text-anchor="start" x="105.12" y="-784.2" font-family="Arial" font-size="9.00">+</text>
<text xml:space="preserve" text-anchor="start" x="114.38" y="-784.2" font-family="Arial" font-size="9.00">TIM_HandleTypeDef *</text>
<text xml:space="preserve" text-anchor="start" x="114.38" y="-773.7" font-family="Arial" font-size="9.00"> handle</text>
<text xml:space="preserve" text-anchor="start" x="105.12" y="-759.2" font-family="Arial" font-size="9.00">+</text>
<text xml:space="preserve" text-anchor="start" x="114.38" y="-759.2" font-family="Arial" font-size="9.00">uint32_t channel</text>
<text xml:space="preserve" text-anchor="start" x="105.12" y="-744.7" font-family="Arial" font-size="9.00">+</text>
<text xml:space="preserve" text-anchor="start" x="114.38" y="-744.7" font-family="Arial" font-size="9.00">Handle(TIM_HandleTypeDef</text>
<text xml:space="preserve" text-anchor="start" x="114.38" y="-734.2" font-family="Arial" font-size="9.00"> *handle, uint32_t channel)</text>
<polygon fill="#666666" stroke="#666666" points="101.12,-794.75 101.12,-794.75 236.12,-794.75 236.12,-794.75 101.12,-794.75"/>
<polygon fill="#666666" stroke="#666666" points="101.12,-755.25 101.12,-755.25 112.38,-755.25 112.38,-755.25 101.12,-755.25"/>
<polygon fill="#666666" stroke="#666666" points="112.38,-755.25 112.38,-755.25 236.12,-755.25 236.12,-755.25 112.38,-755.25"/>
<polygon fill="none" stroke="#666666" points="101.12,-728.25 101.12,-811.25 236.12,-811.25 236.12,-728.25 101.12,-728.25"/>
</a>
</g>
</g>
<!-- Node4&#45;&gt;Node3 -->
<g id="edge3_Node000003_Node000004" class="edge">
<title>Node4&#45;&gt;Node3</title>
<g id="a_edge3_Node000003_Node000004"><a xlink:title=" ">
<path fill="none" stroke="#63b8ff" d="M178.27,-728.25C191.85,-671.26 216.45,-568.02 230.01,-511.11"/>
<polygon fill="none" stroke="#63b8ff" points="229.98,-511.25 227.48,-504.48 232.76,-499.58 235.26,-506.34 229.98,-511.25"/>
</a>
</g>
<text xml:space="preserve" text-anchor="start" x="194.59" y="-676.95" font-family="Arial" font-size="9.00" fill="grey">+timerHandle</text>
</g>
<!-- Node5 -->
<g id="Node000005" class="node">
<title>Node5</title>
<g id="a_Node000005"><a xlink:href="../../d3/d9a/class_lib_1_1_h_a_l_1_1_g_p_i_o_1_1_handle.html" target="_top" xlink:title="GPIO pin handle abstraction.">
<polygon fill="white" stroke="none" points="367.25,-833 254,-833 254,-706.5 367.25,-706.5 367.25,-833"/>
<text xml:space="preserve" text-anchor="start" x="262.62" y="-820.45" font-family="Arial" font-size="9.00">Lib::HAL::GPIO::Handle</text>
<text xml:space="preserve" text-anchor="start" x="258" y="-805.95" font-family="Arial" font-size="9.00">+</text>
<text xml:space="preserve" text-anchor="start" x="267.25" y="-805.95" font-family="Arial" font-size="9.00">GPIO_TypeDef * port</text>
<text xml:space="preserve" text-anchor="start" x="258" y="-791.45" font-family="Arial" font-size="9.00">+</text>
<text xml:space="preserve" text-anchor="start" x="267.25" y="-791.45" font-family="Arial" font-size="9.00">uint16_t number</text>
<text xml:space="preserve" text-anchor="start" x="258" y="-776.95" font-family="Arial" font-size="9.00">+</text>
<text xml:space="preserve" text-anchor="start" x="267.25" y="-776.95" font-family="Arial" font-size="9.00">Handle()=default</text>
<text xml:space="preserve" text-anchor="start" x="258" y="-762.45" font-family="Arial" font-size="9.00">+</text>
<text xml:space="preserve" text-anchor="start" x="267.25" y="-762.45" font-family="Arial" font-size="9.00">Handle(GPIO_TypeDef</text>
<text xml:space="preserve" text-anchor="start" x="267.25" y="-751.95" font-family="Arial" font-size="9.00"> *port, uint16_t number)</text>
<text xml:space="preserve" text-anchor="start" x="258" y="-737.45" font-family="Arial" font-size="9.00">+</text>
<text xml:space="preserve" text-anchor="start" x="267.25" y="-737.45" font-family="Arial" font-size="9.00">~Handle()=default</text>
<text xml:space="preserve" text-anchor="start" x="258" y="-722.95" font-family="Arial" font-size="9.00">+</text>
<text xml:space="preserve" text-anchor="start" x="267.25" y="-722.95" font-family="Arial" font-size="9.00">bool operator==(const</text>
<text xml:space="preserve" text-anchor="start" x="267.25" y="-712.45" font-family="Arial" font-size="9.00"> Handle &amp;other) const</text>
<polygon fill="#666666" stroke="#666666" points="254,-816.5 254,-816.5 367.25,-816.5 367.25,-816.5 254,-816.5"/>
<polygon fill="#666666" stroke="#666666" points="254,-787.5 254,-787.5 265.25,-787.5 265.25,-787.5 254,-787.5"/>
<polygon fill="#666666" stroke="#666666" points="265.25,-787.5 265.25,-787.5 367.25,-787.5 367.25,-787.5 265.25,-787.5"/>
<polygon fill="none" stroke="#666666" points="254,-706.5 254,-833 367.25,-833 367.25,-706.5 254,-706.5"/>
</a>
</g>
</g>
<!-- Node5&#45;&gt;Node3 -->
<g id="edge4_Node000003_Node000005" class="edge">
<title>Node5&#45;&gt;Node3</title>
<g id="a_edge4_Node000003_Node000005"><a xlink:title=" ">
<path fill="none" stroke="#63b8ff" d="M295.83,-706.64C281.84,-647.92 261.25,-561.53 249.27,-511.22"/>
<polygon fill="none" stroke="#63b8ff" points="249.26,-511.19 243.98,-506.28 246.48,-499.52 251.76,-504.43 249.26,-511.19"/>
</a>
</g>
<text xml:space="preserve" text-anchor="start" x="292.65" y="-676.95" font-family="Arial" font-size="9.00" fill="grey">+pin</text>
</g>
</g>
</svg>
