<?xml version="1.0" encoding="UTF-8" standalone="no"?>
<!DOCTYPE svg PUBLIC "-//W3C//DTD SVG 1.1//EN"
 "http://www.w3.org/Graphics/SVG/1.1/DTD/svg11.dtd">
<!-- Generated by graphviz version 13.1.0 (20250701.0955)
 -->
<!-- Title: RTOS::Mutex::LockGuard::LockGuard Pages: 1 -->
<svg width="282pt" height="66pt"
 viewBox="0.00 0.00 282.00 66.00" xmlns="http://www.w3.org/2000/svg" xmlns:xlink="http://www.w3.org/1999/xlink">
<g id="graph0" class="graph" transform="scale(1 1) rotate(0) translate(4 62)">
<title>RTOS::Mutex::LockGuard::LockGuard</title>
<!-- Node1 -->
<g id="Node000001" class="node">
<title>Node1</title>
<g id="a_Node000001"><a xlink:title="Constructor of LockGuard class.">
<polygon fill="#999999" stroke="#666666" points="129.25,-45 0,-45 0,-13 129.25,-13 129.25,-45"/>
<text xml:space="preserve" text-anchor="start" x="8" y="-31.5" font-family="Helvetica,sans-Serif" font-size="10.00">RTOS::Mutex::LockGuard</text>
<text xml:space="preserve" text-anchor="middle" x="64.62" y="-19.5" font-family="Helvetica,sans-Serif" font-size="10.00">::LockGuard</text>
</a>
</g>
</g>
<!-- Node2 -->
<g id="Node000002" class="node">
<title>Node2</title>
<g id="a_Node000002"><a xlink:href="../../db/ddf/a00164.html#a5682f17d2c525bc2e2b83ec801e817e8" target="_top" xlink:title="Constructor of Mutex class.">
<polygon fill="white" stroke="#666666" points="274.25,-58 165.25,-58 165.25,-38 274.25,-38 274.25,-58"/>
<text xml:space="preserve" text-anchor="middle" x="219.75" y="-44.5" font-family="Helvetica,sans-Serif" font-size="10.00">RTOS::Mutex::Mutex</text>
</a>
</g>
</g>
<!-- Node1&#45;&gt;Node2 -->
<g id="edge1_Node000001_Node000002" class="edge">
<title>Node1&#45;&gt;Node2</title>
<g id="a_edge1_Node000001_Node000002"><a xlink:title=" ">
<path fill="none" stroke="#63b8ff" d="M129.68,-36.95C137.7,-37.94 145.91,-38.96 153.94,-39.96"/>
<polygon fill="#63b8ff" stroke="#63b8ff" points="153.28,-43.4 163.64,-41.16 154.15,-36.46 153.28,-43.4"/>
</a>
</g>
</g>
<!-- Node3 -->
<g id="Node000003" class="node">
<title>Node3</title>
<g id="a_Node000003"><a xlink:href="../../db/ddf/a00164.html#a582af6c4d15cc06c7f28e3da3d739c3f" target="_top" xlink:title="Attempts to acquire the mutex lock with an optional timeout.">
<polygon fill="white" stroke="#666666" points="269.75,-20 169.75,-20 169.75,0 269.75,0 269.75,-20"/>
<text xml:space="preserve" text-anchor="middle" x="219.75" y="-6.5" font-family="Helvetica,sans-Serif" font-size="10.00">RTOS::Mutex::lock</text>
</a>
</g>
</g>
<!-- Node1&#45;&gt;Node3 -->
<g id="edge2_Node000001_Node000003" class="edge">
<title>Node1&#45;&gt;Node3</title>
<g id="a_edge2_Node000001_Node000003"><a xlink:title=" ">
<path fill="none" stroke="#63b8ff" d="M129.68,-21.05C139.12,-19.88 148.81,-18.68 158.18,-17.52"/>
<polygon fill="#63b8ff" stroke="#63b8ff" points="158.4,-21.01 167.9,-16.31 157.54,-14.07 158.4,-21.01"/>
</a>
</g>
</g>
</g>
</svg>
