<?xml version="1.0" encoding="UTF-8" standalone="no"?>
<!DOCTYPE svg PUBLIC "-//W3C//DTD SVG 1.1//EN"
 "http://www.w3.org/Graphics/SVG/1.1/DTD/svg11.dtd">
<!-- Generated by graphviz version 12.2.1 (20241206.2353)
 -->
<!-- Title: Lib::HAL::Adc::PortBase::PortBase Pages: 1 -->
<svg width="290pt" height="90pt"
 viewBox="0.00 0.00 289.75 90.00" xmlns="http://www.w3.org/2000/svg" xmlns:xlink="http://www.w3.org/1999/xlink">
<g id="graph0" class="graph" transform="scale(1 1) rotate(0) translate(4 86)">
<title>Lib::HAL::Adc::PortBase::PortBase</title>
<!-- Node1 -->
<g id="Node000001" class="node">
<title>Node1</title>
<g id="a_Node000001"><a xlink:title="Constructor for the PortBase class.">
<polygon fill="#999999" stroke="#666666" points="124,-57 0,-57 0,-25 124,-25 124,-57"/>
<text text-anchor="start" x="8" y="-43.5" font-family="Helvetica,sans-Serif" font-size="10.00">Lib::HAL::Adc::PortBase</text>
<text text-anchor="middle" x="62" y="-31.5" font-family="Helvetica,sans-Serif" font-size="10.00">::PortBase</text>
</a>
</g>
</g>
<!-- Node2 -->
<g id="Node000002" class="node">
<title>Node2</title>
<g id="a_Node000002"><a xlink:href="../../d8/d72/a00199.html#ac2477a5735d7f434329f7e3f0eaa49a5" target="_top" xlink:title="Default constructor for the Channel class.">
<polygon fill="white" stroke="#666666" points="280.62,-82 161.12,-82 161.12,-50 280.62,-50 280.62,-82"/>
<text text-anchor="start" x="169.12" y="-68.5" font-family="Helvetica,sans-Serif" font-size="10.00">Lib::HAL::Adc::Channel</text>
<text text-anchor="middle" x="220.88" y="-56.5" font-family="Helvetica,sans-Serif" font-size="10.00">::Channel</text>
</a>
</g>
</g>
<!-- Node1&#45;&gt;Node2 -->
<g id="edge1_Node000001_Node000002" class="edge">
<title>Node1&#45;&gt;Node2</title>
<g id="a_edge1_Node000001_Node000002"><a xlink:title=" ">
<path fill="none" stroke="#63b8ff" d="M124.1,-50.74C132.48,-52.07 141.13,-53.45 149.65,-54.81"/>
<polygon fill="#63b8ff" stroke="#63b8ff" points="148.82,-58.22 159.25,-56.34 149.92,-51.31 148.82,-58.22"/>
</a>
</g>
</g>
<!-- Node3 -->
<g id="Node000003" class="node">
<title>Node3</title>
<g id="a_Node000003"><a xlink:href="../../de/d79/a00203.html#a383a17781a0b22b499c31cd84970b3eb" target="_top" xlink:title="Constructor for the Interface class.">
<polygon fill="white" stroke="#666666" points="281.75,-32 160,-32 160,0 281.75,0 281.75,-32"/>
<text text-anchor="start" x="168" y="-18.5" font-family="Helvetica,sans-Serif" font-size="10.00">Lib::HAL::Adc::Interface</text>
<text text-anchor="middle" x="220.88" y="-6.5" font-family="Helvetica,sans-Serif" font-size="10.00">::Interface</text>
</a>
</g>
</g>
<!-- Node1&#45;&gt;Node3 -->
<g id="edge2_Node000001_Node000003" class="edge">
<title>Node1&#45;&gt;Node3</title>
<g id="a_edge2_Node000001_Node000003"><a xlink:title=" ">
<path fill="none" stroke="#63b8ff" d="M124.1,-31.26C132.05,-30 140.26,-28.69 148.36,-27.4"/>
<polygon fill="#63b8ff" stroke="#63b8ff" points="148.89,-30.86 158.22,-25.83 147.79,-23.94 148.89,-30.86"/>
</a>
</g>
</g>
</g>
</svg>
