<?xml version="1.0" encoding="UTF-8" standalone="no"?>
<!DOCTYPE svg PUBLIC "-//W3C//DTD SVG 1.1//EN"
 "http://www.w3.org/Graphics/SVG/1.1/DTD/svg11.dtd">
<!-- Generated by graphviz version 13.1.0 (20250701.0955)
 -->
<!-- Title: Lib::HAL::TIM::Base::DeviceManager::remove Pages: 1 -->
<svg width="481pt" height="140pt"
 viewBox="0.00 0.00 481.00 140.00" xmlns="http://www.w3.org/2000/svg" xmlns:xlink="http://www.w3.org/1999/xlink">
<g id="graph0" class="graph" transform="scale(1 1) rotate(0) translate(4 136)">
<title>Lib::HAL::TIM::Base::DeviceManager::remove</title>
<!-- Node1 -->
<g id="Node000001" class="node">
<title>Node1</title>
<g id="a_Node000001"><a xlink:title="Removes a TIM device and unregisters all HAL callbacks.">
<polygon fill="#999999" stroke="#666666" points="128.5,-82 0,-82 0,-50 128.5,-50 128.5,-82"/>
<text xml:space="preserve" text-anchor="start" x="8" y="-68.5" font-family="Helvetica,sans-Serif" font-size="10.00">Lib::HAL::TIM::Base</text>
<text xml:space="preserve" text-anchor="middle" x="64.25" y="-56.5" font-family="Helvetica,sans-Serif" font-size="10.00">::DeviceManager::remove</text>
</a>
</g>
</g>
<!-- Node2 -->
<g id="Node000002" class="node">
<title>Node2</title>
<g id="a_Node000002"><a xlink:href="../../d4/de3/class_lib_1_1_h_a_l_1_1_t_i_m_1_1_base.html#a563f6e2bf6b978f526c5fa87583bc588" target="_top" xlink:title="Constructs a TIM base device with the given handle.">
<polygon fill="white" stroke="#666666" points="293,-132 187,-132 187,-100 293,-100 293,-132"/>
<text xml:space="preserve" text-anchor="start" x="195" y="-118.5" font-family="Helvetica,sans-Serif" font-size="10.00">Lib::HAL::TIM::Base</text>
<text xml:space="preserve" text-anchor="middle" x="240" y="-106.5" font-family="Helvetica,sans-Serif" font-size="10.00">::Base</text>
</a>
</g>
</g>
<!-- Node1&#45;&gt;Node2 -->
<g id="edge1_Node000001_Node000002" class="edge">
<title>Node1&#45;&gt;Node2</title>
<g id="a_edge1_Node000001_Node000002"><a xlink:title=" ">
<path fill="none" stroke="#63b8ff" d="M122.14,-82.37C139.35,-87.32 158.36,-92.79 175.94,-97.85"/>
<polygon fill="#63b8ff" stroke="#63b8ff" points="174.65,-101.12 185.23,-100.53 176.59,-94.4 174.65,-101.12"/>
</a>
</g>
</g>
<!-- Node3 -->
<g id="Node000003" class="node">
<title>Node3</title>
<g id="a_Node000003"><a xlink:href="../../d4/de3/class_lib_1_1_h_a_l_1_1_t_i_m_1_1_base.html#a9c1d70b49613a972382dcbf845474280" target="_top" xlink:title="Returns the underlying TIM handle.">
<polygon fill="white" stroke="#666666" points="293,-82 187,-82 187,-50 293,-50 293,-82"/>
<text xml:space="preserve" text-anchor="start" x="195" y="-68.5" font-family="Helvetica,sans-Serif" font-size="10.00">Lib::HAL::TIM::Base</text>
<text xml:space="preserve" text-anchor="middle" x="240" y="-56.5" font-family="Helvetica,sans-Serif" font-size="10.00">::getHandle</text>
</a>
</g>
</g>
<!-- Node1&#45;&gt;Node3 -->
<g id="edge2_Node000001_Node000003" class="edge">
<title>Node1&#45;&gt;Node3</title>
<g id="a_edge2_Node000001_Node000003"><a xlink:title=" ">
<path fill="none" stroke="#63b8ff" d="M128.96,-66C144.09,-66 160.23,-66 175.35,-66"/>
<polygon fill="#63b8ff" stroke="#63b8ff" points="175.17,-69.5 185.17,-66 175.17,-62.5 175.17,-69.5"/>
</a>
</g>
</g>
<!-- Node4 -->
<g id="Node000004" class="node">
<title>Node4</title>
<g id="a_Node000004"><a xlink:href="../../d5/d35/class_lib_1_1_h_a_l_1_1_device_manager_base.html#a92a61cd08aed0e18c54eaaadc9b6d45c" target="_top" xlink:title="Removes a device pointer from the manager and stops tracking it.">
<polygon fill="white" stroke="#666666" points="315.5,-32 164.5,-32 164.5,0 315.5,0 315.5,-32"/>
<text xml:space="preserve" text-anchor="start" x="172.5" y="-18.5" font-family="Helvetica,sans-Serif" font-size="10.00">Lib::HAL::DeviceManagerBase</text>
<text xml:space="preserve" text-anchor="middle" x="240" y="-6.5" font-family="Helvetica,sans-Serif" font-size="10.00">::remove</text>
</a>
</g>
</g>
<!-- Node1&#45;&gt;Node4 -->
<g id="edge3_Node000001_Node000004" class="edge">
<title>Node1&#45;&gt;Node4</title>
<g id="a_edge3_Node000001_Node000004"><a xlink:title=" ">
<path fill="none" stroke="#63b8ff" d="M122.14,-49.63C137.66,-45.16 154.64,-40.28 170.72,-35.65"/>
<polygon fill="#63b8ff" stroke="#63b8ff" points="171.59,-39.04 180.23,-32.91 169.65,-32.31 171.59,-39.04"/>
</a>
</g>
</g>
<!-- Node5 -->
<g id="Node000005" class="node">
<title>Node5</title>
<g id="a_Node000005"><a xlink:href="../../d9/d33/class_lib_1_1_helper_1_1_container.html#a2de083e968c5fdeadb85885ed4fa54b6" target="_top" xlink:title=" ">
<polygon fill="white" stroke="#666666" points="472.5,-32 351.5,-32 351.5,0 472.5,0 472.5,-32"/>
<text xml:space="preserve" text-anchor="start" x="359.5" y="-18.5" font-family="Helvetica,sans-Serif" font-size="10.00">Lib::Helper::Container</text>
<text xml:space="preserve" text-anchor="middle" x="412" y="-6.5" font-family="Helvetica,sans-Serif" font-size="10.00">&lt; T_DEVICE &gt;::remove</text>
</a>
</g>
</g>
<!-- Node4&#45;&gt;Node5 -->
<g id="edge4_Node000004_Node000005" class="edge">
<title>Node4&#45;&gt;Node5</title>
<g id="a_edge4_Node000004_Node000005"><a xlink:title=" ">
<path fill="none" stroke="#63b8ff" d="M315.56,-16C323.54,-16 331.63,-16 339.57,-16"/>
<polygon fill="#63b8ff" stroke="#63b8ff" points="339.53,-19.5 349.53,-16 339.53,-12.5 339.53,-19.5"/>
</a>
</g>
</g>
</g>
</svg>
