<?xml version="1.0" encoding="UTF-8" standalone="no"?>
<!DOCTYPE svg PUBLIC "-//W3C//DTD SVG 1.1//EN"
 "http://www.w3.org/Graphics/SVG/1.1/DTD/svg11.dtd">
<!-- Generated by graphviz version 13.1.0 (20250701.0955)
 -->
<!-- Title: AdcHandle.hpp Pages: 1 -->
<svg width="139pt" height="140pt"
 viewBox="0.00 0.00 139.00 140.00" xmlns="http://www.w3.org/2000/svg" xmlns:xlink="http://www.w3.org/1999/xlink">
<g id="graph0" class="graph" transform="scale(1 1) rotate(0) translate(4 136)">
<title>AdcHandle.hpp</title>
<!-- Node1 -->
<g id="Node000001" class="node">
<title>Node1</title>
<g id="a_Node000001"><a xlink:title="AdcHandle type definition.">
<polygon fill="#999999" stroke="#666666" points="104.12,-132 21.38,-132 21.38,-112 104.12,-112 104.12,-132"/>
<text xml:space="preserve" text-anchor="middle" x="62.75" y="-118.5" font-family="Helvetica,sans-Serif" font-size="10.00">AdcHandle.hpp</text>
</a>
</g>
</g>
<!-- Node2 -->
<g id="Node000002" class="node">
<title>Node2</title>
<g id="a_Node000002"><a xlink:href="../../d6/d2a/_handle_8hpp.html" target="_top" xlink:title="Handle wrapper for hardware abstraction.">
<polygon fill="white" stroke="#666666" points="125.5,-76 0,-76 0,-56 125.5,-56 125.5,-76"/>
<text xml:space="preserve" text-anchor="middle" x="62.75" y="-62.5" font-family="Helvetica,sans-Serif" font-size="10.00">Lib/HAL/core/Handle.hpp</text>
</a>
</g>
</g>
<!-- Node1&#45;&gt;Node2 -->
<g id="edge1_Node000001_Node000002" class="edge">
<title>Node1&#45;&gt;Node2</title>
<g id="a_edge1_Node000001_Node000002"><a xlink:title=" ">
<path fill="none" stroke="#63b8ff" d="M62.75,-111.59C62.75,-105.01 62.75,-95.96 62.75,-87.73"/>
<polygon fill="#63b8ff" stroke="#63b8ff" points="66.25,-87.81 62.75,-77.81 59.25,-87.81 66.25,-87.81"/>
</a>
</g>
</g>
<!-- Node3 -->
<g id="Node000003" class="node">
<title>Node3</title>
<g id="a_Node000003"><a xlink:title=" ">
<polygon fill="#e0e0e0" stroke="#999999" points="50.88,-20 2.62,-20 2.62,0 50.88,0 50.88,-20"/>
<text xml:space="preserve" text-anchor="middle" x="26.75" y="-6.5" font-family="Helvetica,sans-Serif" font-size="10.00">cassert</text>
</a>
</g>
</g>
<!-- Node2&#45;&gt;Node3 -->
<g id="edge2_Node000002_Node000003" class="edge">
<title>Node2&#45;&gt;Node3</title>
<g id="a_edge2_Node000002_Node000003"><a xlink:title=" ">
<path fill="none" stroke="#63b8ff" d="M56.48,-55.59C51.73,-48.47 45.05,-38.45 39.23,-29.72"/>
<polygon fill="#63b8ff" stroke="#63b8ff" points="42.25,-27.94 33.79,-21.56 36.42,-31.82 42.25,-27.94"/>
</a>
</g>
</g>
<!-- Node4 -->
<g id="Node000004" class="node">
<title>Node4</title>
<g id="a_Node000004"><a xlink:title=" ">
<polygon fill="#e0e0e0" stroke="#999999" points="130.62,-20 68.88,-20 68.88,0 130.62,0 130.62,-20"/>
<text xml:space="preserve" text-anchor="middle" x="99.75" y="-6.5" font-family="Helvetica,sans-Serif" font-size="10.00">type_traits</text>
</a>
</g>
</g>
<!-- Node2&#45;&gt;Node4 -->
<g id="edge3_Node000002_Node000004" class="edge">
<title>Node2&#45;&gt;Node4</title>
<g id="a_edge3_Node000002_Node000004"><a xlink:title=" ">
<path fill="none" stroke="#63b8ff" d="M69.19,-55.59C74.08,-48.47 80.94,-38.45 86.93,-29.72"/>
<polygon fill="#63b8ff" stroke="#63b8ff" points="89.76,-31.77 92.52,-21.55 83.98,-27.82 89.76,-31.77"/>
</a>
</g>
</g>
</g>
</svg>
