<?xml version="1.0" encoding="UTF-8" standalone="no"?>
<!DOCTYPE svg PUBLIC "-//W3C//DTD SVG 1.1//EN"
 "http://www.w3.org/Graphics/SVG/1.1/DTD/svg11.dtd">
<!-- Generated by graphviz version 12.2.1 (20241206.2353)
 -->
<!-- Title: Lib::HAL::CAN::TxMessage::TxMessage Pages: 1 -->
<svg width="322pt" height="90pt"
 viewBox="0.00 0.00 322.00 90.00" xmlns="http://www.w3.org/2000/svg" xmlns:xlink="http://www.w3.org/1999/xlink">
<g id="graph0" class="graph" transform="scale(1 1) rotate(0) translate(4 86)">
<title>Lib::HAL::CAN::TxMessage::TxMessage</title>
<!-- Node1 -->
<g id="Node000001" class="node">
<title>Node1</title>
<g id="a_Node000001"><a xlink:title="Default constructor.">
<polygon fill="#999999" stroke="#666666" points="314,-57 175,-57 175,-25 314,-25 314,-57"/>
<text text-anchor="start" x="183" y="-43.5" font-family="Helvetica,sans-Serif" font-size="10.00">Lib::HAL::CAN::TxMessage</text>
<text text-anchor="middle" x="244.5" y="-31.5" font-family="Helvetica,sans-Serif" font-size="10.00">::TxMessage</text>
</a>
</g>
</g>
<!-- Node2 -->
<g id="Node000002" class="node">
<title>Node2</title>
<g id="a_Node000002"><a xlink:href="../../d9/d39/a00257.html#ac627eb6b0b3fa94d6a1608b06512b3b0" target="_top" xlink:title="Copy constructor.">
<polygon fill="white" stroke="#666666" points="139,-82 0,-82 0,-50 139,-50 139,-82"/>
<text text-anchor="start" x="8" y="-68.5" font-family="Helvetica,sans-Serif" font-size="10.00">Lib::HAL::CAN::TxMessage</text>
<text text-anchor="middle" x="69.5" y="-56.5" font-family="Helvetica,sans-Serif" font-size="10.00">::TxMessage</text>
</a>
</g>
</g>
<!-- Node1&#45;&gt;Node2 -->
<g id="edge1_Node000001_Node000002" class="edge">
<title>Node1&#45;&gt;Node2</title>
<g id="a_edge1_Node000001_Node000002"><a xlink:title=" ">
<path fill="none" stroke="#63b8ff" d="M163.38,-52.58C155.38,-53.73 147.3,-54.9 139.42,-56.04"/>
<polygon fill="#63b8ff" stroke="#63b8ff" points="163.73,-56.06 173.13,-51.17 162.73,-49.14 163.73,-56.06"/>
</a>
</g>
</g>
<!-- Node3 -->
<g id="Node000003" class="node">
<title>Node3</title>
<g id="a_Node000003"><a xlink:href="../../d9/d39/a00257.html#adc96310fde475174bfbf29330ac5d7c6" target="_top" xlink:title="Constructs a TxMessage with specified parameters.">
<polygon fill="white" stroke="#666666" points="139,-32 0,-32 0,0 139,0 139,-32"/>
<text text-anchor="start" x="8" y="-18.5" font-family="Helvetica,sans-Serif" font-size="10.00">Lib::HAL::CAN::TxMessage</text>
<text text-anchor="middle" x="69.5" y="-6.5" font-family="Helvetica,sans-Serif" font-size="10.00">::TxMessage</text>
</a>
</g>
</g>
<!-- Node1&#45;&gt;Node3 -->
<g id="edge2_Node000001_Node000003" class="edge">
<title>Node1&#45;&gt;Node3</title>
<g id="a_edge2_Node000001_Node000003"><a xlink:title=" ">
<path fill="none" stroke="#63b8ff" d="M163.38,-29.42C155.38,-28.27 147.3,-27.1 139.42,-25.96"/>
<polygon fill="#63b8ff" stroke="#63b8ff" points="162.73,-32.86 173.13,-30.83 163.73,-25.94 162.73,-32.86"/>
</a>
</g>
</g>
</g>
</svg>
