<?xml version="1.0" encoding="UTF-8" standalone="no"?>
<!DOCTYPE svg PUBLIC "-//W3C//DTD SVG 1.1//EN"
 "http://www.w3.org/Graphics/SVG/1.1/DTD/svg11.dtd">
<!-- Generated by graphviz version 13.1.0 (20250701.0955)
 -->
<!-- Title: Lib::Digi::API::UserProtocol::parse Pages: 1 -->
<svg width="450pt" height="142pt"
 viewBox="0.00 0.00 450.00 142.00" xmlns="http://www.w3.org/2000/svg" xmlns:xlink="http://www.w3.org/1999/xlink">
<g id="graph0" class="graph" transform="scale(1 1) rotate(0) translate(4 138)">
<title>Lib::Digi::API::UserProtocol::parse</title>
<!-- Node1 -->
<g id="Node000001" class="node">
<title>Node1</title>
<g id="a_Node000001"><a xlink:title="Parses the incoming message.">
<polygon fill="#999999" stroke="#666666" points="167.5,-77 0,-77 0,-57 167.5,-57 167.5,-77"/>
<text xml:space="preserve" text-anchor="middle" x="83.75" y="-63.5" font-family="Helvetica,sans-Serif" font-size="10.00">Lib::Digi::API::UserProtocol::parse</text>
</a>
</g>
</g>
<!-- Node2 -->
<g id="Node000002" class="node">
<title>Node2</title>
<g id="a_Node000002"><a xlink:href="../../d6/d71/class_lib_1_1_digi_1_1_a_p_i_1_1_user_protocol.html#a7e0d29fa19de00f8f3deb8d981f507ff" target="_top" xlink:title="Handles get parameters.">
<polygon fill="white" stroke="#666666" points="441.5,-134 203.5,-134 203.5,-114 441.5,-114 441.5,-134"/>
<text xml:space="preserve" text-anchor="middle" x="322.5" y="-120.5" font-family="Helvetica,sans-Serif" font-size="10.00">Lib::Digi::API::UserProtocol::handleGetParameters</text>
</a>
</g>
</g>
<!-- Node1&#45;&gt;Node2 -->
<g id="edge1_Node000001_Node000002" class="edge">
<title>Node1&#45;&gt;Node2</title>
<g id="a_edge1_Node000001_Node000002"><a xlink:title=" ">
<path fill="none" stroke="#63b8ff" d="M113.2,-77.44C137.05,-85.86 172.13,-97.5 203.5,-105 213.43,-107.37 223.9,-109.54 234.34,-111.48"/>
<polygon fill="#63b8ff" stroke="#63b8ff" points="233.68,-114.92 244.14,-113.24 234.91,-108.03 233.68,-114.92"/>
</a>
</g>
</g>
<!-- Node3 -->
<g id="Node000003" class="node">
<title>Node3</title>
<g id="a_Node000003"><a xlink:href="../../d6/d71/class_lib_1_1_digi_1_1_a_p_i_1_1_user_protocol.html#abc1f9a6acb24432af0c8b45d2a0dacc0" target="_top" xlink:title="Handles inputs update.">
<polygon fill="white" stroke="#666666" points="437.75,-96 207.25,-96 207.25,-76 437.75,-76 437.75,-96"/>
<text xml:space="preserve" text-anchor="middle" x="322.5" y="-82.5" font-family="Helvetica,sans-Serif" font-size="10.00">Lib::Digi::API::UserProtocol::handleInputsUpdate</text>
</a>
</g>
</g>
<!-- Node1&#45;&gt;Node3 -->
<g id="edge2_Node000001_Node000003" class="edge">
<title>Node1&#45;&gt;Node3</title>
<g id="a_edge2_Node000001_Node000003"><a xlink:title=" ">
<path fill="none" stroke="#63b8ff" d="M167.89,-73.67C176.88,-74.39 186.18,-75.14 195.54,-75.89"/>
<polygon fill="#63b8ff" stroke="#63b8ff" points="195.22,-79.38 205.47,-76.69 195.78,-72.4 195.22,-79.38"/>
</a>
</g>
</g>
<!-- Node4 -->
<g id="Node000004" class="node">
<title>Node4</title>
<g id="a_Node000004"><a xlink:href="../../d6/d71/class_lib_1_1_digi_1_1_a_p_i_1_1_user_protocol.html#a7110c8e683688a76cdcb8d815f2eb214" target="_top" xlink:title="Handles outputs update.">
<polygon fill="white" stroke="#666666" points="441.5,-58 203.5,-58 203.5,-38 441.5,-38 441.5,-58"/>
<text xml:space="preserve" text-anchor="middle" x="322.5" y="-44.5" font-family="Helvetica,sans-Serif" font-size="10.00">Lib::Digi::API::UserProtocol::handleOutputsUpdate</text>
</a>
</g>
</g>
<!-- Node1&#45;&gt;Node4 -->
<g id="edge3_Node000001_Node000004" class="edge">
<title>Node1&#45;&gt;Node4</title>
<g id="a_edge3_Node000001_Node000004"><a xlink:title=" ">
<path fill="none" stroke="#63b8ff" d="M167.89,-60.33C175.67,-59.7 183.69,-59.06 191.77,-58.41"/>
<polygon fill="#63b8ff" stroke="#63b8ff" points="192.03,-61.9 201.72,-57.61 191.47,-54.92 192.03,-61.9"/>
</a>
</g>
</g>
<!-- Node5 -->
<g id="Node000005" class="node">
<title>Node5</title>
<g id="a_Node000005"><a xlink:href="../../d6/d71/class_lib_1_1_digi_1_1_a_p_i_1_1_user_protocol.html#af20468877ca75dbe647559724e2f1a18" target="_top" xlink:title="Handles set parameters.">
<polygon fill="white" stroke="#666666" points="441.12,-20 203.88,-20 203.88,0 441.12,0 441.12,-20"/>
<text xml:space="preserve" text-anchor="middle" x="322.5" y="-6.5" font-family="Helvetica,sans-Serif" font-size="10.00">Lib::Digi::API::UserProtocol::handleSetParameters</text>
</a>
</g>
</g>
<!-- Node1&#45;&gt;Node5 -->
<g id="edge4_Node000001_Node000005" class="edge">
<title>Node1&#45;&gt;Node5</title>
<g id="a_edge4_Node000001_Node000005"><a xlink:title=" ">
<path fill="none" stroke="#63b8ff" d="M113.2,-56.56C137.05,-48.14 172.13,-36.5 203.5,-29 213.43,-26.63 223.9,-24.46 234.34,-22.52"/>
<polygon fill="#63b8ff" stroke="#63b8ff" points="234.91,-25.97 244.14,-20.76 233.68,-19.08 234.91,-25.97"/>
</a>
</g>
</g>
</g>
</svg>
