<?xml version="1.0" encoding="UTF-8" standalone="no"?>
<!DOCTYPE svg PUBLIC "-//W3C//DTD SVG 1.1//EN"
 "http://www.w3.org/Graphics/SVG/1.1/DTD/svg11.dtd">
<!-- Generated by graphviz version 12.2.1 (20241206.2353)
 -->
<!-- Title: Lib::Digi::API::ClientBase Pages: 1 -->
<svg width="184pt" height="780pt"
 viewBox="0.00 0.00 184.25 780.00" xmlns="http://www.w3.org/2000/svg" xmlns:xlink="http://www.w3.org/1999/xlink">
<g id="graph0" class="graph" transform="scale(1 1) rotate(0) translate(4 776)">
<title>Lib::Digi::API::ClientBase</title>
<!-- Node1 -->
<g id="Node000001" class="node">
<title>Node1</title>
<g id="a_Node000001"><a xlink:title="A base class for client applications, inheriting from ApplicationBase.">
<polygon fill="#999999" stroke="none" points="153.75,-164 22.5,-164 22.5,0 153.75,0 153.75,-164"/>
<text text-anchor="start" x="31.88" y="-150.5" font-family="Helvetica,sans-Serif" font-size="10.00">Lib::Digi::API::ClientBase</text>
<text text-anchor="start" x="86.62" y="-134.5" font-family="Helvetica,sans-Serif" font-size="10.00"> </text>
<text text-anchor="start" x="26.5" y="-118.5" font-family="Helvetica,sans-Serif" font-size="10.00">#</text>
<text text-anchor="start" x="35.75" y="-118.5" font-family="Helvetica,sans-Serif" font-size="10.00">ClientBase()</text>
<text text-anchor="start" x="26.5" y="-102.5" font-family="Helvetica,sans-Serif" font-size="10.00">#</text>
<text text-anchor="start" x="35.75" y="-102.5" font-family="Helvetica,sans-Serif" font-size="10.00">~ClientBase()</text>
<text text-anchor="start" x="26.5" y="-86.5" font-family="Helvetica,sans-Serif" font-size="10.00">#</text>
<text text-anchor="start" x="35.75" y="-86.5" font-family="Helvetica,sans-Serif" font-size="10.00">start()</text>
<text text-anchor="start" x="26.5" y="-70.5" font-family="Helvetica,sans-Serif" font-size="10.00">#</text>
<text text-anchor="start" x="35.75" y="-70.5" font-family="Helvetica,sans-Serif" font-size="10.00">sendData()</text>
<text text-anchor="start" x="26.5" y="-54.5" font-family="Helvetica,sans-Serif" font-size="10.00">#</text>
<text text-anchor="start" x="35.75" y="-54.5" font-family="Helvetica,sans-Serif" font-size="10.00">getModulePresent()</text>
<text text-anchor="start" x="26.5" y="-38.5" font-family="Helvetica,sans-Serif" font-size="10.00">#</text>
<text text-anchor="start" x="35.75" y="-38.5" font-family="Helvetica,sans-Serif" font-size="10.00">handleIncomingMessage()</text>
<text text-anchor="start" x="26.5" y="-22.5" font-family="Helvetica,sans-Serif" font-size="10.00">#</text>
<text text-anchor="start" x="35.75" y="-22.5" font-family="Helvetica,sans-Serif" font-size="10.00">handleOutgoingMessage()</text>
<text text-anchor="start" x="26.5" y="-6.5" font-family="Helvetica,sans-Serif" font-size="10.00">#</text>
<text text-anchor="start" x="35.75" y="-6.5" font-family="Helvetica,sans-Serif" font-size="10.00">handleTaskTickEvent()</text>
<polygon fill="#666666" stroke="#666666" points="22.5,-146 22.5,-146 153.75,-146 153.75,-146 22.5,-146"/>
<polygon fill="#666666" stroke="#666666" points="22.5,-130 22.5,-130 153.75,-130 153.75,-130 22.5,-130"/>
<polygon fill="none" stroke="#666666" points="22.5,0 22.5,-164 153.75,-164 153.75,0 22.5,0"/>
</a>
</g>
</g>
<!-- Node2 -->
<g id="Node000002" class="node">
<title>Node2</title>
<g id="a_Node000002"><a xlink:href="../../dc/d19/a01056.html" target="_top" xlink:title="Base class for Xbee application implementations.">
<polygon fill="white" stroke="none" points="176.25,-636 0,-636 0,-200 176.25,-200 176.25,-636"/>
<text text-anchor="start" x="20.62" y="-622.5" font-family="Helvetica,sans-Serif" font-size="10.00">Lib::Digi::API::ApplicationBase</text>
<text text-anchor="start" x="4" y="-606.5" font-family="Helvetica,sans-Serif" font-size="10.00">+</text>
<text text-anchor="start" x="14" y="-606.5" font-family="Helvetica,sans-Serif" font-size="10.00">connection</text>
<text text-anchor="start" x="4" y="-590.5" font-family="Helvetica,sans-Serif" font-size="10.00">+</text>
<text text-anchor="start" x="14" y="-590.5" font-family="Helvetica,sans-Serif" font-size="10.00">diagnostic</text>
<text text-anchor="start" x="4" y="-574.5" font-family="Helvetica,sans-Serif" font-size="10.00">+</text>
<text text-anchor="start" x="14" y="-574.5" font-family="Helvetica,sans-Serif" font-size="10.00">modemStatus</text>
<text text-anchor="start" x="4" y="-558.5" font-family="Helvetica,sans-Serif" font-size="10.00">+</text>
<text text-anchor="start" x="14" y="-558.5" font-family="Helvetica,sans-Serif" font-size="10.00">spectrumAnalyzer</text>
<text text-anchor="start" x="4" y="-542.5" font-family="Helvetica,sans-Serif" font-size="10.00">+</text>
<text text-anchor="start" x="14" y="-542.5" font-family="Helvetica,sans-Serif" font-size="10.00">parameters</text>
<text text-anchor="start" x="4" y="-526.5" font-family="Helvetica,sans-Serif" font-size="10.00">+</text>
<text text-anchor="start" x="14" y="-526.5" font-family="Helvetica,sans-Serif" font-size="10.00">networkDiscovery</text>
<text text-anchor="start" x="4" y="-510.5" font-family="Helvetica,sans-Serif" font-size="10.00">+</text>
<text text-anchor="start" x="14" y="-510.5" font-family="Helvetica,sans-Serif" font-size="10.00">channelScanner</text>
<text text-anchor="start" x="4.38" y="-494.5" font-family="Helvetica,sans-Serif" font-size="10.00">#</text>
<text text-anchor="start" x="14" y="-494.5" font-family="Helvetica,sans-Serif" font-size="10.00">messageFrameId</text>
<text text-anchor="start" x="4.38" y="-478.5" font-family="Helvetica,sans-Serif" font-size="10.00">#</text>
<text text-anchor="start" x="14" y="-478.5" font-family="Helvetica,sans-Serif" font-size="10.00">queueRxMessage</text>
<text text-anchor="start" x="4.38" y="-462.5" font-family="Helvetica,sans-Serif" font-size="10.00">#</text>
<text text-anchor="start" x="14" y="-462.5" font-family="Helvetica,sans-Serif" font-size="10.00">queueTransmitDeliveryStatus</text>
<text text-anchor="start" x="4.38" y="-446.5" font-family="Helvetica,sans-Serif" font-size="10.00">#</text>
<text text-anchor="start" x="14" y="-446.5" font-family="Helvetica,sans-Serif" font-size="10.00">MAX_RESPONSE_TIME</text>
<text text-anchor="start" x="4.38" y="-430.5" font-family="Helvetica,sans-Serif" font-size="10.00">#</text>
<text text-anchor="start" x="14" y="-430.5" font-family="Helvetica,sans-Serif" font-size="10.00">PAUSE_CONNECTION_ATTEMPT</text>
<text text-anchor="start" x="4.38" y="-414.5" font-family="Helvetica,sans-Serif" font-size="10.00">#</text>
<text text-anchor="start" x="14" y="-414.5" font-family="Helvetica,sans-Serif" font-size="10.00">CONNECTION_TIMEOUT</text>
<text text-anchor="start" x="4.38" y="-398.5" font-family="Helvetica,sans-Serif" font-size="10.00">#</text>
<text text-anchor="start" x="14" y="-398.5" font-family="Helvetica,sans-Serif" font-size="10.00">TRANSACTION_TIMEOUT</text>
<text text-anchor="start" x="4" y="-382.5" font-family="Helvetica,sans-Serif" font-size="10.00">+</text>
<text text-anchor="start" x="14" y="-382.5" font-family="Helvetica,sans-Serif" font-size="10.00">pause()</text>
<text text-anchor="start" x="4" y="-366.5" font-family="Helvetica,sans-Serif" font-size="10.00">+</text>
<text text-anchor="start" x="14" y="-366.5" font-family="Helvetica,sans-Serif" font-size="10.00">resume()</text>
<text text-anchor="start" x="4.38" y="-350.5" font-family="Helvetica,sans-Serif" font-size="10.00">#</text>
<text text-anchor="start" x="14" y="-350.5" font-family="Helvetica,sans-Serif" font-size="10.00">ApplicationBase()</text>
<text text-anchor="start" x="4.38" y="-334.5" font-family="Helvetica,sans-Serif" font-size="10.00">#</text>
<text text-anchor="start" x="14" y="-334.5" font-family="Helvetica,sans-Serif" font-size="10.00">~ApplicationBase()</text>
<text text-anchor="start" x="4.38" y="-318.5" font-family="Helvetica,sans-Serif" font-size="10.00">#</text>
<text text-anchor="start" x="14" y="-318.5" font-family="Helvetica,sans-Serif" font-size="10.00">start()</text>
<text text-anchor="start" x="4.38" y="-302.5" font-family="Helvetica,sans-Serif" font-size="10.00">#</text>
<text text-anchor="start" x="14" y="-302.5" font-family="Helvetica,sans-Serif" font-size="10.00">sendData()</text>
<text text-anchor="start" x="4.38" y="-286.5" font-family="Helvetica,sans-Serif" font-size="10.00">#</text>
<text text-anchor="start" x="14" y="-286.5" font-family="Helvetica,sans-Serif" font-size="10.00">getModulePresent()</text>
<text text-anchor="start" x="4.38" y="-270.5" font-family="Helvetica,sans-Serif" font-size="10.00">#</text>
<text text-anchor="start" x="14" y="-270.5" font-family="Helvetica,sans-Serif" font-size="10.00">handleIncomingMessage()</text>
<text text-anchor="start" x="4.38" y="-254.5" font-family="Helvetica,sans-Serif" font-size="10.00">#</text>
<text text-anchor="start" x="14" y="-254.5" font-family="Helvetica,sans-Serif" font-size="10.00">handleOutgoingMessage()</text>
<text text-anchor="start" x="4.38" y="-238.5" font-family="Helvetica,sans-Serif" font-size="10.00">#</text>
<text text-anchor="start" x="14" y="-238.5" font-family="Helvetica,sans-Serif" font-size="10.00">handleTaskTickEvent()</text>
<text text-anchor="start" x="4.38" y="-222.5" font-family="Helvetica,sans-Serif" font-size="10.00">#</text>
<text text-anchor="start" x="14" y="-222.5" font-family="Helvetica,sans-Serif" font-size="10.00">taskInitCallback()</text>
<text text-anchor="start" x="4.38" y="-206.5" font-family="Helvetica,sans-Serif" font-size="10.00">#</text>
<text text-anchor="start" x="14" y="-206.5" font-family="Helvetica,sans-Serif" font-size="10.00">taskLoopCallback()</text>
<polygon fill="#666666" stroke="#666666" points="0,-618 0,-618 176.25,-618 176.25,-618 0,-618"/>
<polygon fill="#666666" stroke="#666666" points="0,-394 0,-394 12,-394 12,-394 0,-394"/>
<polygon fill="#666666" stroke="#666666" points="12,-394 12,-394 176.25,-394 176.25,-394 12,-394"/>
<polygon fill="none" stroke="#666666" points="0,-200 0,-636 176.25,-636 176.25,-200 0,-200"/>
</a>
</g>
</g>
<!-- Node2&#45;&gt;Node1 -->
<g id="edge1_Node000001_Node000002" class="edge">
<title>Node2&#45;&gt;Node1</title>
<g id="a_edge1_Node000001_Node000002"><a xlink:title=" ">
<path fill="none" stroke="#63b8ff" d="M88.12,-188.87C88.12,-180.29 88.12,-171.96 88.12,-163.99"/>
<polygon fill="none" stroke="#63b8ff" points="84.63,-188.77 88.13,-198.77 91.63,-188.77 84.63,-188.77"/>
</a>
</g>
</g>
<!-- Node3 -->
<g id="Node000003" class="node">
<title>Node3</title>
<g id="a_Node000003"><a xlink:href="../../dc/d51/a01120.html" target="_top" xlink:title="Provides an interface for pausing and resuming operations.">
<polygon fill="white" stroke="none" points="138.25,-772 38,-772 38,-672 138.25,-672 138.25,-772"/>
<text text-anchor="start" x="42" y="-758.5" font-family="Helvetica,sans-Serif" font-size="10.00">Lib::Digi::API::Pause</text>
<text text-anchor="start" x="86.62" y="-742.5" font-family="Helvetica,sans-Serif" font-size="10.00"> </text>
<text text-anchor="start" x="52.62" y="-726.5" font-family="Helvetica,sans-Serif" font-size="10.00">+</text>
<text text-anchor="start" x="73.25" y="-726.5" font-family="Helvetica,sans-Serif" font-size="10.00">Pause()</text>
<text text-anchor="start" x="52.62" y="-710.5" font-family="Helvetica,sans-Serif" font-size="10.00">+</text>
<text text-anchor="start" x="73.25" y="-710.5" font-family="Helvetica,sans-Serif" font-size="10.00">~Pause()</text>
<text text-anchor="start" x="52.62" y="-694.5" font-family="Helvetica,sans-Serif" font-size="10.00">+</text>
<text text-anchor="start" x="73.25" y="-694.5" font-family="Helvetica,sans-Serif" font-size="10.00">pause()</text>
<text text-anchor="start" x="52.62" y="-678.5" font-family="Helvetica,sans-Serif" font-size="10.00">+</text>
<text text-anchor="start" x="73.25" y="-678.5" font-family="Helvetica,sans-Serif" font-size="10.00">resume()</text>
<polygon fill="#666666" stroke="#666666" points="38,-754 38,-754 138.25,-754 138.25,-754 38,-754"/>
<polygon fill="#666666" stroke="#666666" points="38,-738 38,-738 138.25,-738 138.25,-738 38,-738"/>
<polygon fill="none" stroke="#666666" points="38,-672 38,-772 138.25,-772 138.25,-672 38,-672"/>
</a>
</g>
</g>
<!-- Node3&#45;&gt;Node2 -->
<g id="edge2_Node000002_Node000003" class="edge">
<title>Node3&#45;&gt;Node2</title>
<g id="a_edge2_Node000002_Node000003"><a xlink:title=" ">
<path fill="none" stroke="#63b8ff" d="M88.12,-660.69C88.12,-652.87 88.12,-644.53 88.12,-635.83"/>
<polygon fill="none" stroke="#63b8ff" points="84.63,-660.63 88.13,-670.63 91.63,-660.63 84.63,-660.63"/>
</a>
</g>
</g>
</g>
</svg>
