<?xml version="1.0" encoding="UTF-8" standalone="no"?>
<!DOCTYPE svg PUBLIC "-//W3C//DTD SVG 1.1//EN"
 "http://www.w3.org/Graphics/SVG/1.1/DTD/svg11.dtd">
<!-- Generated by graphviz version 13.1.0 (20250701.0955)
 -->
<!-- Title: RTOS::EventGroup::isCreated Pages: 1 -->
<svg width="356pt" height="104pt"
 viewBox="0.00 0.00 356.00 104.00" xmlns="http://www.w3.org/2000/svg" xmlns:xlink="http://www.w3.org/1999/xlink">
<g id="graph0" class="graph" transform="scale(1 1) rotate(0) translate(4 100)">
<title>RTOS::EventGroup::isCreated</title>
<!-- Node1 -->
<g id="Node000001" class="node">
<title>Node1</title>
<g id="a_Node000001"><a xlink:title="Checks if the event group is created.">
<polygon fill="#999999" stroke="#666666" points="347.75,-58 199,-58 199,-38 347.75,-38 347.75,-58"/>
<text xml:space="preserve" text-anchor="middle" x="273.38" y="-44.5" font-family="Helvetica,sans-Serif" font-size="10.00">RTOS::EventGroup::isCreated</text>
</a>
</g>
</g>
<!-- Node2 -->
<g id="Node000002" class="node">
<title>Node2</title>
<g id="a_Node000002"><a xlink:href="../../db/ddd/class_r_t_o_s_1_1_event_group.html#a427ae2886c5c4a296fa82a8d02f430f4" target="_top" xlink:title="Gets the state of the event group.">
<polygon fill="white" stroke="#666666" points="153.25,-96 9.75,-96 9.75,-76 153.25,-76 153.25,-96"/>
<text xml:space="preserve" text-anchor="middle" x="81.5" y="-82.5" font-family="Helvetica,sans-Serif" font-size="10.00">RTOS::EventGroup::getState</text>
</a>
</g>
</g>
<!-- Node1&#45;&gt;Node2 -->
<g id="edge1_Node000001_Node000002" class="edge">
<title>Node1&#45;&gt;Node2</title>
<g id="a_edge1_Node000001_Node000002"><a xlink:title=" ">
<path fill="none" stroke="#63b8ff" d="M208.81,-60.72C184.73,-65.54 157.63,-70.96 134.72,-75.55"/>
<polygon fill="#63b8ff" stroke="#63b8ff" points="209.39,-64.18 218.5,-58.78 208.01,-57.31 209.39,-64.18"/>
</a>
</g>
</g>
<!-- Node3 -->
<g id="Node000003" class="node">
<title>Node3</title>
<g id="a_Node000003"><a xlink:href="../../db/ddd/class_r_t_o_s_1_1_event_group.html#a64add0f43154d7bcba6da15f5e6f5d2d" target="_top" xlink:title="Checks if the event group is valid.">
<polygon fill="white" stroke="#666666" points="149.12,-58 13.88,-58 13.88,-38 149.12,-38 149.12,-58"/>
<text xml:space="preserve" text-anchor="middle" x="81.5" y="-44.5" font-family="Helvetica,sans-Serif" font-size="10.00">RTOS::EventGroup::isValid</text>
</a>
</g>
</g>
<!-- Node1&#45;&gt;Node3 -->
<g id="edge2_Node000001_Node000003" class="edge">
<title>Node1&#45;&gt;Node3</title>
<g id="a_edge2_Node000001_Node000003"><a xlink:title=" ">
<path fill="none" stroke="#63b8ff" d="M187.53,-48C174.72,-48 161.67,-48 149.32,-48"/>
<polygon fill="#63b8ff" stroke="#63b8ff" points="187.18,-51.5 197.18,-48 187.18,-44.5 187.18,-51.5"/>
</a>
</g>
</g>
<!-- Node4 -->
<g id="Node000004" class="node">
<title>Node4</title>
<g id="a_Node000004"><a xlink:href="../../db/ddd/class_r_t_o_s_1_1_event_group.html#a55b9f397f0d8b532c659f9ab2fcd210b" target="_top" xlink:title="Conversion operator to bool.">
<polygon fill="white" stroke="#666666" points="163,-20 0,-20 0,0 163,0 163,-20"/>
<text xml:space="preserve" text-anchor="middle" x="81.5" y="-6.5" font-family="Helvetica,sans-Serif" font-size="10.00">RTOS::EventGroup::operator bool</text>
</a>
</g>
</g>
<!-- Node1&#45;&gt;Node4 -->
<g id="edge3_Node000001_Node000004" class="edge">
<title>Node1&#45;&gt;Node4</title>
<g id="a_edge3_Node000001_Node000004"><a xlink:title=" ">
<path fill="none" stroke="#63b8ff" d="M208.81,-35.28C184.73,-30.46 157.63,-25.04 134.72,-20.45"/>
<polygon fill="#63b8ff" stroke="#63b8ff" points="208.01,-38.69 218.5,-37.22 209.39,-31.82 208.01,-38.69"/>
</a>
</g>
</g>
</g>
</svg>
