<?xml version="1.0" encoding="UTF-8" standalone="no"?>
<!DOCTYPE svg PUBLIC "-//W3C//DTD SVG 1.1//EN"
 "http://www.w3.org/Graphics/SVG/1.1/DTD/svg11.dtd">
<!-- Generated by graphviz version 13.1.0 (20250701.0955)
 -->
<!-- Title: RTOS::EventGroup::clearAllBits Pages: 1 -->
<svg width="519pt" height="28pt"
 viewBox="0.00 0.00 519.00 28.00" xmlns="http://www.w3.org/2000/svg" xmlns:xlink="http://www.w3.org/1999/xlink">
<g id="graph0" class="graph" transform="scale(1 1) rotate(0) translate(4 24)">
<title>RTOS::EventGroup::clearAllBits</title>
<!-- Node1 -->
<g id="Node000001" class="node">
<title>Node1</title>
<g id="a_Node000001"><a xlink:title="Clears all event bits.">
<polygon fill="#999999" stroke="#666666" points="156.25,-20 0,-20 0,0 156.25,0 156.25,-20"/>
<text xml:space="preserve" text-anchor="middle" x="78.12" y="-6.5" font-family="Helvetica,sans-Serif" font-size="10.00">RTOS::EventGroup::clearAllBits</text>
</a>
</g>
</g>
<!-- Node2 -->
<g id="Node000002" class="node">
<title>Node2</title>
<g id="a_Node000002"><a xlink:href="../../db/ddd/class_r_t_o_s_1_1_event_group.html#a6baaf9e6c921c165af2b86fcb50b713d" target="_top" xlink:title="Clears the specified event bits.">
<polygon fill="white" stroke="#666666" points="337.25,-20 192.25,-20 192.25,0 337.25,0 337.25,-20"/>
<text xml:space="preserve" text-anchor="middle" x="264.75" y="-6.5" font-family="Helvetica,sans-Serif" font-size="10.00">RTOS::EventGroup::clearBits</text>
</a>
</g>
</g>
<!-- Node1&#45;&gt;Node2 -->
<g id="edge1_Node000001_Node000002" class="edge">
<title>Node1&#45;&gt;Node2</title>
<g id="a_edge1_Node000001_Node000002"><a xlink:title=" ">
<path fill="none" stroke="#63b8ff" d="M156.62,-10C164.44,-10 172.41,-10 180.3,-10"/>
<polygon fill="#63b8ff" stroke="#63b8ff" points="180.24,-13.5 190.24,-10 180.24,-6.5 180.24,-13.5"/>
</a>
</g>
</g>
<!-- Node3 -->
<g id="Node000003" class="node">
<title>Node3</title>
<g id="a_Node000003"><a xlink:href="../../db/ddd/class_r_t_o_s_1_1_event_group.html#ab940e7baf67c42162d8700c967c6903f" target="_top" xlink:title="Gets the current event bits.">
<polygon fill="white" stroke="#666666" points="510.75,-20 373.25,-20 373.25,0 510.75,0 510.75,-20"/>
<text xml:space="preserve" text-anchor="middle" x="442" y="-6.5" font-family="Helvetica,sans-Serif" font-size="10.00">RTOS::EventGroup::getBits</text>
</a>
</g>
</g>
<!-- Node2&#45;&gt;Node3 -->
<g id="edge2_Node000002_Node000003" class="edge">
<title>Node2&#45;&gt;Node3</title>
<g id="a_edge2_Node000002_Node000003"><a xlink:title=" ">
<path fill="none" stroke="#63b8ff" d="M337.54,-10C345.5,-10 353.65,-10 361.7,-10"/>
<polygon fill="#63b8ff" stroke="#63b8ff" points="361.48,-13.5 371.48,-10 361.48,-6.5 361.48,-13.5"/>
</a>
</g>
</g>
</g>
</svg>
