<?xml version="1.0" encoding="UTF-8" standalone="no"?>
<!DOCTYPE svg PUBLIC "-//W3C//DTD SVG 1.1//EN"
 "http://www.w3.org/Graphics/SVG/1.1/DTD/svg11.dtd">
<!-- Generated by graphviz version 13.1.0 (20250701.0955)
 -->
<!-- Title: RTOS::EventGroup::create Pages: 1 -->
<svg width="363pt" height="66pt"
 viewBox="0.00 0.00 363.00 66.00" xmlns="http://www.w3.org/2000/svg" xmlns:xlink="http://www.w3.org/1999/xlink">
<g id="graph0" class="graph" transform="scale(1 1) rotate(0) translate(4 62)">
<title>RTOS::EventGroup::create</title>
<!-- Node1 -->
<g id="Node000001" class="node">
<title>Node1</title>
<g id="a_Node000001"><a xlink:title="Creates the event group.">
<polygon fill="#999999" stroke="#666666" points="355.25,-39 221.5,-39 221.5,-19 355.25,-19 355.25,-39"/>
<text xml:space="preserve" text-anchor="middle" x="288.38" y="-25.5" font-family="Helvetica,sans-Serif" font-size="10.00">RTOS::EventGroup::create</text>
</a>
</g>
</g>
<!-- Node2 -->
<g id="Node000002" class="node">
<title>Node2</title>
<g id="a_Node000002"><a xlink:href="../../db/ddd/class_r_t_o_s_1_1_event_group.html#a61a8779292999712471f4678597d0ac0" target="_top" xlink:title="Creates a new EventGroup instance and sets initial bits.">
<polygon fill="white" stroke="#666666" points="178.38,-58 7.12,-58 7.12,-38 178.38,-38 178.38,-58"/>
<text xml:space="preserve" text-anchor="middle" x="92.75" y="-44.5" font-family="Helvetica,sans-Serif" font-size="10.00">RTOS::EventGroup::createWithBits</text>
</a>
</g>
</g>
<!-- Node1&#45;&gt;Node2 -->
<g id="edge1_Node000001_Node000002" class="edge">
<title>Node1&#45;&gt;Node2</title>
<g id="a_edge1_Node000001_Node000002"><a xlink:title=" ">
<path fill="none" stroke="#63b8ff" d="M209.7,-36.62C199.55,-37.62 189.11,-38.64 178.85,-39.65"/>
<polygon fill="#63b8ff" stroke="#63b8ff" points="209.89,-40.12 219.5,-35.66 209.21,-33.15 209.89,-40.12"/>
</a>
</g>
</g>
<!-- Node3 -->
<g id="Node000003" class="node">
<title>Node3</title>
<g id="a_Node000003"><a xlink:href="../../db/ddd/class_r_t_o_s_1_1_event_group.html#abffd9fee74980564563161d29dd6aa18" target="_top" xlink:title="Creates a new EventGroup instance and sets bits by indices.">
<polygon fill="white" stroke="#666666" points="185.5,-20 0,-20 0,0 185.5,0 185.5,-20"/>
<text xml:space="preserve" text-anchor="middle" x="92.75" y="-6.5" font-family="Helvetica,sans-Serif" font-size="10.00">RTOS::EventGroup::createWithIndices</text>
</a>
</g>
</g>
<!-- Node1&#45;&gt;Node3 -->
<g id="edge2_Node000001_Node000003" class="edge">
<title>Node1&#45;&gt;Node3</title>
<g id="a_edge2_Node000001_Node000003"><a xlink:title=" ">
<path fill="none" stroke="#63b8ff" d="M209.63,-21.37C201.75,-20.6 193.71,-19.81 185.7,-19.02"/>
<polygon fill="#63b8ff" stroke="#63b8ff" points="209.21,-24.85 219.5,-22.34 209.89,-17.88 209.21,-24.85"/>
</a>
</g>
</g>
</g>
</svg>
