<?xml version="1.0" encoding="UTF-8" standalone="no"?>
<!DOCTYPE svg PUBLIC "-//W3C//DTD SVG 1.1//EN"
 "http://www.w3.org/Graphics/SVG/1.1/DTD/svg11.dtd">
<!-- Generated by graphviz version 13.1.0 (20250701.0955)
 -->
<!-- Title: RTOS::EventGroup::syncBits Pages: 1 -->
<svg width="563pt" height="66pt"
 viewBox="0.00 0.00 563.00 66.00" xmlns="http://www.w3.org/2000/svg" xmlns:xlink="http://www.w3.org/1999/xlink">
<g id="graph0" class="graph" transform="scale(1 1) rotate(0) translate(4 62)">
<title>RTOS::EventGroup::syncBits</title>
<!-- Node1 -->
<g id="Node000001" class="node">
<title>Node1</title>
<g id="a_Node000001"><a xlink:title="Synchronizes event bits with other tasks using a timeout in milliseconds.">
<polygon fill="#999999" stroke="#666666" points="145,-39 0,-39 0,-19 145,-19 145,-39"/>
<text xml:space="preserve" text-anchor="middle" x="72.5" y="-25.5" font-family="Helvetica,sans-Serif" font-size="10.00">RTOS::EventGroup::syncBits</text>
</a>
</g>
</g>
<!-- Node2 -->
<g id="Node000002" class="node">
<title>Node2</title>
<g id="a_Node000002"><a xlink:href="../../da/d2c/class_r_t_o_s_1_1_tick_counter.html#ac0cef5f74597d9fd2e71b9eed937365d" target="_top" xlink:title="Convert milliseconds to ticks.">
<polygon fill="white" stroke="#666666" points="337.25,-58 181,-58 181,-38 337.25,-38 337.25,-58"/>
<text xml:space="preserve" text-anchor="middle" x="259.12" y="-44.5" font-family="Helvetica,sans-Serif" font-size="10.00">RTOS::TickCounter::msToTicks</text>
</a>
</g>
</g>
<!-- Node1&#45;&gt;Node2 -->
<g id="edge1_Node000001_Node000002" class="edge">
<title>Node1&#45;&gt;Node2</title>
<g id="a_edge1_Node000001_Node000002"><a xlink:title=" ">
<path fill="none" stroke="#63b8ff" d="M145.41,-36.4C153.25,-37.21 161.31,-38.04 169.32,-38.86"/>
<polygon fill="#63b8ff" stroke="#63b8ff" points="168.8,-42.33 179.1,-39.87 169.51,-35.36 168.8,-42.33"/>
</a>
</g>
</g>
<!-- Node4 -->
<g id="Node000004" class="node">
<title>Node4</title>
<g id="a_Node000004"><a xlink:href="../../db/ddd/class_r_t_o_s_1_1_event_group.html#adfec7dfbd63b1807a0c6f85a5fa282dc" target="_top" xlink:title="Synchronizes event bits with other tasks.">
<polygon fill="white" stroke="#666666" points="331.62,-20 186.62,-20 186.62,0 331.62,0 331.62,-20"/>
<text xml:space="preserve" text-anchor="middle" x="259.12" y="-6.5" font-family="Helvetica,sans-Serif" font-size="10.00">RTOS::EventGroup::syncBits</text>
</a>
</g>
</g>
<!-- Node1&#45;&gt;Node4 -->
<g id="edge3_Node000001_Node000004" class="edge">
<title>Node1&#45;&gt;Node4</title>
<g id="a_edge3_Node000001_Node000004"><a xlink:title=" ">
<path fill="none" stroke="#63b8ff" d="M145.41,-21.6C155.19,-20.59 165.3,-19.55 175.26,-18.53"/>
<polygon fill="#63b8ff" stroke="#63b8ff" points="175.32,-22.04 184.91,-17.54 174.6,-15.08 175.32,-22.04"/>
</a>
</g>
</g>
<!-- Node3 -->
<g id="Node000003" class="node">
<title>Node3</title>
<g id="a_Node000003"><a xlink:href="../../da/d2c/class_r_t_o_s_1_1_tick_counter.html#aa4f09aa2584d95ea6f0d171179c54b24" target="_top" xlink:title="Get tick period in milliseconds.">
<polygon fill="white" stroke="#666666" points="555,-58 373.25,-58 373.25,-38 555,-38 555,-58"/>
<text xml:space="preserve" text-anchor="middle" x="464.12" y="-44.5" font-family="Helvetica,sans-Serif" font-size="10.00">RTOS::TickCounter::getTickPeriodMs</text>
</a>
</g>
</g>
<!-- Node2&#45;&gt;Node3 -->
<g id="edge2_Node000002_Node000003" class="edge">
<title>Node2&#45;&gt;Node3</title>
<g id="a_edge2_Node000002_Node000003"><a xlink:title=" ">
<path fill="none" stroke="#63b8ff" d="M337.74,-48C345.58,-48 353.61,-48 361.65,-48"/>
<polygon fill="#63b8ff" stroke="#63b8ff" points="361.48,-51.5 371.48,-48 361.48,-44.5 361.48,-51.5"/>
</a>
</g>
</g>
<!-- Node5 -->
<g id="Node000005" class="node">
<title>Node5</title>
<g id="a_Node000005"><a xlink:href="../../db/ddd/class_r_t_o_s_1_1_event_group.html#ab940e7baf67c42162d8700c967c6903f" target="_top" xlink:title="Gets the current event bits.">
<polygon fill="white" stroke="#666666" points="532.88,-20 395.38,-20 395.38,0 532.88,0 532.88,-20"/>
<text xml:space="preserve" text-anchor="middle" x="464.12" y="-6.5" font-family="Helvetica,sans-Serif" font-size="10.00">RTOS::EventGroup::getBits</text>
</a>
</g>
</g>
<!-- Node4&#45;&gt;Node5 -->
<g id="edge4_Node000004_Node000005" class="edge">
<title>Node4&#45;&gt;Node5</title>
<g id="a_edge4_Node000004_Node000005"><a xlink:title=" ">
<path fill="none" stroke="#63b8ff" d="M331.98,-10C348.82,-10 366.86,-10 384,-10"/>
<polygon fill="#63b8ff" stroke="#63b8ff" points="383.59,-13.5 393.59,-10 383.59,-6.5 383.59,-13.5"/>
</a>
</g>
</g>
</g>
</svg>
