<?xml version="1.0" encoding="UTF-8" standalone="no"?>
<!DOCTYPE svg PUBLIC "-//W3C//DTD SVG 1.1//EN"
 "http://www.w3.org/Graphics/SVG/1.1/DTD/svg11.dtd">
<!-- Generated by graphviz version 13.1.0 (20250701.0955)
 -->
<!-- Title: RTOS::EventGroup::waitForBit Pages: 1 -->
<svg width="525pt" height="28pt"
 viewBox="0.00 0.00 525.00 28.00" xmlns="http://www.w3.org/2000/svg" xmlns:xlink="http://www.w3.org/1999/xlink">
<g id="graph0" class="graph" transform="scale(1 1) rotate(0) translate(4 24)">
<title>RTOS::EventGroup::waitForBit</title>
<!-- Node1 -->
<g id="Node000001" class="node">
<title>Node1</title>
<g id="a_Node000001"><a xlink:title="Waits for a single bit to be set.">
<polygon fill="#999999" stroke="#666666" points="151,-20 0,-20 0,0 151,0 151,-20"/>
<text xml:space="preserve" text-anchor="middle" x="75.5" y="-6.5" font-family="Helvetica,sans-Serif" font-size="10.00">RTOS::EventGroup::waitForBit</text>
</a>
</g>
</g>
<!-- Node2 -->
<g id="Node000002" class="node">
<title>Node2</title>
<g id="a_Node000002"><a xlink:href="../../db/ddd/class_r_t_o_s_1_1_event_group.html#aee9cdfc6bc05fcd45edfce9ffc848459" target="_top" xlink:title="Waits for specified bits to be set.">
<polygon fill="white" stroke="#666666" points="343.25,-20 187,-20 187,0 343.25,0 343.25,-20"/>
<text xml:space="preserve" text-anchor="middle" x="265.12" y="-6.5" font-family="Helvetica,sans-Serif" font-size="10.00">RTOS::EventGroup::waitForBits</text>
</a>
</g>
</g>
<!-- Node1&#45;&gt;Node2 -->
<g id="edge1_Node000001_Node000002" class="edge">
<title>Node1&#45;&gt;Node2</title>
<g id="a_edge1_Node000001_Node000002"><a xlink:title=" ">
<path fill="none" stroke="#63b8ff" d="M151.46,-10C159.21,-10 167.14,-10 175.03,-10"/>
<polygon fill="#63b8ff" stroke="#63b8ff" points="175,-13.5 185,-10 175,-6.5 175,-13.5"/>
</a>
</g>
</g>
<!-- Node3 -->
<g id="Node000003" class="node">
<title>Node3</title>
<g id="a_Node000003"><a xlink:href="../../db/ddd/class_r_t_o_s_1_1_event_group.html#ab940e7baf67c42162d8700c967c6903f" target="_top" xlink:title="Gets the current event bits.">
<polygon fill="white" stroke="#666666" points="516.75,-20 379.25,-20 379.25,0 516.75,0 516.75,-20"/>
<text xml:space="preserve" text-anchor="middle" x="448" y="-6.5" font-family="Helvetica,sans-Serif" font-size="10.00">RTOS::EventGroup::getBits</text>
</a>
</g>
</g>
<!-- Node2&#45;&gt;Node3 -->
<g id="edge2_Node000002_Node000003" class="edge">
<title>Node2&#45;&gt;Node3</title>
<g id="a_edge2_Node000002_Node000003"><a xlink:title=" ">
<path fill="none" stroke="#63b8ff" d="M343.62,-10C351.48,-10 359.47,-10 367.35,-10"/>
<polygon fill="#63b8ff" stroke="#63b8ff" points="367.28,-13.5 377.28,-10 367.28,-6.5 367.28,-13.5"/>
</a>
</g>
</g>
</g>
</svg>
