<?xml version="1.0" encoding="UTF-8" standalone="no"?>
<!DOCTYPE svg PUBLIC "-//W3C//DTD SVG 1.1//EN"
 "http://www.w3.org/Graphics/SVG/1.1/DTD/svg11.dtd">
<!-- Generated by graphviz version 13.1.0 (20250701.0955)
 -->
<!-- Title: RTOS::EventGroup::getBits Pages: 1 -->
<svg width="774pt" height="389pt"
 viewBox="0.00 0.00 774.00 389.00" xmlns="http://www.w3.org/2000/svg" xmlns:xlink="http://www.w3.org/1999/xlink">
<g id="graph0" class="graph" transform="scale(1 1) rotate(0) translate(4 385)">
<title>RTOS::EventGroup::getBits</title>
<!-- Node1 -->
<g id="Node000001" class="node">
<title>Node1</title>
<g id="a_Node000001"><a xlink:title="Gets the current event bits.">
<polygon fill="#999999" stroke="#666666" points="766,-229 628.5,-229 628.5,-209 766,-209 766,-229"/>
<text xml:space="preserve" text-anchor="middle" x="697.25" y="-215.5" font-family="Helvetica,sans-Serif" font-size="10.00">RTOS::EventGroup::getBits</text>
</a>
</g>
</g>
<!-- Node2 -->
<g id="Node000002" class="node">
<title>Node2</title>
<g id="a_Node000002"><a xlink:href="../../db/ddd/class_r_t_o_s_1_1_event_group.html#ab391c8600fc925dddf71eb365ac7ae7a" target="_top" xlink:title="Checks if all of the specified bits are set.">
<polygon fill="white" stroke="#666666" points="588.75,-381 440,-381 440,-361 588.75,-361 588.75,-381"/>
<text xml:space="preserve" text-anchor="middle" x="514.38" y="-367.5" font-family="Helvetica,sans-Serif" font-size="10.00">RTOS::EventGroup::allBitsSet</text>
</a>
</g>
</g>
<!-- Node1&#45;&gt;Node2 -->
<g id="edge1_Node000001_Node000002" class="edge">
<title>Node1&#45;&gt;Node2</title>
<g id="a_edge1_Node000001_Node000002"><a xlink:title=" ">
<path fill="none" stroke="#63b8ff" d="M686.18,-239.19C670.39,-268.69 636.96,-323.19 592.5,-352 587.18,-355.45 581.28,-358.27 575.18,-360.58"/>
<polygon fill="#63b8ff" stroke="#63b8ff" points="689.16,-241.04 690.66,-230.56 682.95,-237.82 689.16,-241.04"/>
</a>
</g>
</g>
<!-- Node3 -->
<g id="Node000003" class="node">
<title>Node3</title>
<g id="a_Node000003"><a xlink:href="../../db/ddd/class_r_t_o_s_1_1_event_group.html#a9ab08e200876987fa24f0b79a73f96fd" target="_top" xlink:title="Checks if any of the specified bits are set.">
<polygon fill="white" stroke="#666666" points="591.75,-343 437,-343 437,-323 591.75,-323 591.75,-343"/>
<text xml:space="preserve" text-anchor="middle" x="514.38" y="-329.5" font-family="Helvetica,sans-Serif" font-size="10.00">RTOS::EventGroup::anyBitsSet</text>
</a>
</g>
</g>
<!-- Node1&#45;&gt;Node3 -->
<g id="edge2_Node000001_Node000003" class="edge">
<title>Node1&#45;&gt;Node3</title>
<g id="a_edge2_Node000001_Node000003"><a xlink:title=" ">
<path fill="none" stroke="#63b8ff" d="M679.19,-237.86C659.94,-258.09 626.82,-289.89 592.5,-309 582.45,-314.59 570.93,-319.07 559.91,-322.56"/>
<polygon fill="#63b8ff" stroke="#63b8ff" points="681.72,-240.28 685.98,-230.57 676.6,-235.5 681.72,-240.28"/>
</a>
</g>
</g>
<!-- Node4 -->
<g id="Node000004" class="node">
<title>Node4</title>
<g id="a_Node000004"><a xlink:href="../../db/ddd/class_r_t_o_s_1_1_event_group.html#a32fea73e65f36e2c8706f7b1b781789a" target="_top" xlink:title="Clears a single event bit.">
<polygon fill="white" stroke="#666666" points="385.25,-305 245.5,-305 245.5,-285 385.25,-285 385.25,-305"/>
<text xml:space="preserve" text-anchor="middle" x="315.38" y="-291.5" font-family="Helvetica,sans-Serif" font-size="10.00">RTOS::EventGroup::clearBit</text>
</a>
</g>
</g>
<!-- Node1&#45;&gt;Node4 -->
<g id="edge3_Node000001_Node000004" class="edge">
<title>Node1&#45;&gt;Node4</title>
<g id="a_edge3_Node000001_Node000004"><a xlink:title=" ">
<path fill="none" stroke="#63b8ff" d="M672.71,-235.84C652.5,-249.31 622.02,-267.33 592.5,-276 524.15,-296.07 442.36,-299.26 385.62,-298.4"/>
<polygon fill="#63b8ff" stroke="#63b8ff" points="674.5,-238.86 680.78,-230.32 670.55,-233.08 674.5,-238.86"/>
</a>
</g>
</g>
<!-- Node5 -->
<g id="Node000005" class="node">
<title>Node5</title>
<g id="a_Node000005"><a xlink:href="../../db/ddd/class_r_t_o_s_1_1_event_group.html#a6baaf9e6c921c165af2b86fcb50b713d" target="_top" xlink:title="Clears the specified event bits.">
<polygon fill="white" stroke="#666666" points="586.88,-267 441.88,-267 441.88,-247 586.88,-247 586.88,-267"/>
<text xml:space="preserve" text-anchor="middle" x="514.38" y="-253.5" font-family="Helvetica,sans-Serif" font-size="10.00">RTOS::EventGroup::clearBits</text>
</a>
</g>
</g>
<!-- Node1&#45;&gt;Node5 -->
<g id="edge4_Node000001_Node000005" class="edge">
<title>Node1&#45;&gt;Node5</title>
<g id="a_edge4_Node000001_Node000005"><a xlink:title=" ">
<path fill="none" stroke="#63b8ff" d="M635.38,-231.79C612.53,-236.59 586.84,-241.99 565.12,-246.55"/>
<polygon fill="#63b8ff" stroke="#63b8ff" points="635.8,-235.28 644.87,-229.8 634.36,-228.43 635.8,-235.28"/>
</a>
</g>
</g>
<!-- Node7 -->
<g id="Node000007" class="node">
<title>Node7</title>
<g id="a_Node000007"><a xlink:href="../../db/ddd/class_r_t_o_s_1_1_event_group.html#a06ff768b84f44803bb09725dae31c4fc" target="_top" xlink:title="Checks if a specific bit is set.">
<polygon fill="white" stroke="#666666" points="585,-229 443.75,-229 443.75,-209 585,-209 585,-229"/>
<text xml:space="preserve" text-anchor="middle" x="514.38" y="-215.5" font-family="Helvetica,sans-Serif" font-size="10.00">RTOS::EventGroup::isBitSet</text>
</a>
</g>
</g>
<!-- Node1&#45;&gt;Node7 -->
<g id="edge7_Node000001_Node000007" class="edge">
<title>Node1&#45;&gt;Node7</title>
<g id="a_edge7_Node000001_Node000007"><a xlink:title=" ">
<path fill="none" stroke="#63b8ff" d="M616.82,-219C606.3,-219 595.58,-219 585.24,-219"/>
<polygon fill="#63b8ff" stroke="#63b8ff" points="616.61,-222.5 626.61,-219 616.61,-215.5 616.61,-222.5"/>
</a>
</g>
</g>
<!-- Node8 -->
<g id="Node000008" class="node">
<title>Node8</title>
<g id="a_Node000008"><a xlink:href="../../db/ddd/class_r_t_o_s_1_1_event_group.html#a7334a4b6c75d487aadf4d05ef9ab661e" target="_top" xlink:title="Sets a single event bit.">
<polygon fill="white" stroke="#666666" points="580.5,-191 448.25,-191 448.25,-171 580.5,-171 580.5,-191"/>
<text xml:space="preserve" text-anchor="middle" x="514.38" y="-177.5" font-family="Helvetica,sans-Serif" font-size="10.00">RTOS::EventGroup::setBit</text>
</a>
</g>
</g>
<!-- Node1&#45;&gt;Node8 -->
<g id="edge8_Node000001_Node000008" class="edge">
<title>Node1&#45;&gt;Node8</title>
<g id="a_edge8_Node000001_Node000008"><a xlink:title=" ">
<path fill="none" stroke="#63b8ff" d="M635.38,-206.21C612.53,-201.41 586.84,-196.01 565.12,-191.45"/>
<polygon fill="#63b8ff" stroke="#63b8ff" points="634.36,-209.57 644.87,-208.2 635.8,-202.72 634.36,-209.57"/>
</a>
</g>
</g>
<!-- Node9 -->
<g id="Node000009" class="node">
<title>Node9</title>
<g id="a_Node000009"><a xlink:href="../../db/ddd/class_r_t_o_s_1_1_event_group.html#adfec7dfbd63b1807a0c6f85a5fa282dc" target="_top" xlink:title="Synchronizes event bits with other tasks.">
<polygon fill="white" stroke="#666666" points="586.88,-153 441.88,-153 441.88,-133 586.88,-133 586.88,-153"/>
<text xml:space="preserve" text-anchor="middle" x="514.38" y="-139.5" font-family="Helvetica,sans-Serif" font-size="10.00">RTOS::EventGroup::syncBits</text>
</a>
</g>
</g>
<!-- Node1&#45;&gt;Node9 -->
<g id="edge9_Node000001_Node000009" class="edge">
<title>Node1&#45;&gt;Node9</title>
<g id="a_edge9_Node000001_Node000009"><a xlink:title=" ">
<path fill="none" stroke="#63b8ff" d="M670.85,-202.59C650.38,-189.98 620.51,-172.93 592.5,-162 584.02,-158.69 574.79,-155.83 565.75,-153.4"/>
<polygon fill="#63b8ff" stroke="#63b8ff" points="668.74,-205.4 679.08,-207.74 672.46,-199.47 668.74,-205.4"/>
</a>
</g>
</g>
<!-- Node12 -->
<g id="Node000012" class="node">
<title>Node12</title>
<g id="a_Node000012"><a xlink:href="../../db/ddd/class_r_t_o_s_1_1_event_group.html#aee9cdfc6bc05fcd45edfce9ffc848459" target="_top" xlink:title="Waits for specified bits to be set.">
<polygon fill="white" stroke="#666666" points="592.5,-96 436.25,-96 436.25,-76 592.5,-76 592.5,-96"/>
<text xml:space="preserve" text-anchor="middle" x="514.38" y="-82.5" font-family="Helvetica,sans-Serif" font-size="10.00">RTOS::EventGroup::waitForBits</text>
</a>
</g>
</g>
<!-- Node1&#45;&gt;Node12 -->
<g id="edge12_Node000001_Node000012" class="edge">
<title>Node1&#45;&gt;Node12</title>
<g id="a_edge12_Node000001_Node000012"><a xlink:title=" ">
<path fill="none" stroke="#63b8ff" d="M679.03,-200.33C659.46,-179.83 625.87,-146.81 592.5,-124 576.36,-112.97 556.54,-103.27 541.04,-96.44"/>
<polygon fill="#63b8ff" stroke="#63b8ff" points="676.32,-202.55 685.72,-207.43 681.41,-197.75 676.32,-202.55"/>
</a>
</g>
</g>
<!-- Node16 -->
<g id="Node000016" class="node">
<title>Node16</title>
<g id="a_Node000016"><a xlink:href="../../db/ddd/class_r_t_o_s_1_1_event_group.html#a2560761cafbf94cdbabc65dbca709720" target="_top" xlink:title="Waits for specified bits with a timeout in milliseconds.">
<polygon fill="white" stroke="#666666" points="400.25,-20 230.5,-20 230.5,0 400.25,0 400.25,-20"/>
<text xml:space="preserve" text-anchor="middle" x="315.38" y="-6.5" font-family="Helvetica,sans-Serif" font-size="10.00">RTOS::EventGroup::waitForBitsMs</text>
</a>
</g>
</g>
<!-- Node1&#45;&gt;Node16 -->
<g id="edge18_Node000001_Node000016" class="edge">
<title>Node1&#45;&gt;Node16</title>
<g id="a_edge18_Node000001_Node000016"><a xlink:title=" ">
<path fill="none" stroke="#63b8ff" d="M688.33,-198.55C674.34,-165.3 641.97,-99.96 592.5,-67 535.67,-29.14 458.79,-15.62 400.58,-11.15"/>
<polygon fill="#63b8ff" stroke="#63b8ff" points="684.94,-199.5 691.94,-207.46 691.43,-196.87 684.94,-199.5"/>
</a>
</g>
</g>
<!-- Node5&#45;&gt;Node4 -->
<g id="edge6_Node000005_Node000004" class="edge">
<title>Node5&#45;&gt;Node4</title>
<g id="a_edge6_Node000005_Node000004"><a xlink:title=" ">
<path fill="none" stroke="#63b8ff" d="M447.76,-269.66C422.7,-274.49 394.43,-279.94 370.55,-284.55"/>
<polygon fill="#63b8ff" stroke="#63b8ff" points="448.38,-273.1 457.54,-267.77 447.05,-266.23 448.38,-273.1"/>
</a>
</g>
</g>
<!-- Node6 -->
<g id="Node000006" class="node">
<title>Node6</title>
<g id="a_Node000006"><a xlink:href="../../db/ddd/class_r_t_o_s_1_1_event_group.html#ae3f87c78f0997af15819097a6f4bcbe8" target="_top" xlink:title="Clears all event bits.">
<polygon fill="white" stroke="#666666" points="393.5,-267 237.25,-267 237.25,-247 393.5,-247 393.5,-267"/>
<text xml:space="preserve" text-anchor="middle" x="315.38" y="-253.5" font-family="Helvetica,sans-Serif" font-size="10.00">RTOS::EventGroup::clearAllBits</text>
</a>
</g>
</g>
<!-- Node5&#45;&gt;Node6 -->
<g id="edge5_Node000005_Node000006" class="edge">
<title>Node5&#45;&gt;Node6</title>
<g id="a_edge5_Node000005_Node000006"><a xlink:title=" ">
<path fill="none" stroke="#63b8ff" d="M430.01,-257C418,-257 405.67,-257 393.78,-257"/>
<polygon fill="#63b8ff" stroke="#63b8ff" points="429.9,-260.5 439.9,-257 429.9,-253.5 429.9,-260.5"/>
</a>
</g>
</g>
<!-- Node10 -->
<g id="Node000010" class="node">
<title>Node10</title>
<g id="a_Node000010"><a xlink:href="../../db/ddd/class_r_t_o_s_1_1_event_group.html#ae94a3859c7084a1a914055f9a0e60f80" target="_top" xlink:title="Synchronizes a single bit with another task.">
<polygon fill="white" stroke="#666666" points="385.25,-210 245.5,-210 245.5,-190 385.25,-190 385.25,-210"/>
<text xml:space="preserve" text-anchor="middle" x="315.38" y="-196.5" font-family="Helvetica,sans-Serif" font-size="10.00">RTOS::EventGroup::syncBit</text>
</a>
</g>
</g>
<!-- Node9&#45;&gt;Node10 -->
<g id="edge10_Node000009_Node000010" class="edge">
<title>Node9&#45;&gt;Node10</title>
<g id="a_edge10_Node000009_Node000010"><a xlink:title=" ">
<path fill="none" stroke="#63b8ff" d="M452.66,-156.46C447.06,-158.15 441.51,-160 436.25,-162 419.34,-168.43 417.22,-174.73 400.25,-181 391.29,-184.31 381.56,-187.16 372.02,-189.56"/>
<polygon fill="#63b8ff" stroke="#63b8ff" points="453.33,-159.91 462,-153.82 451.42,-153.17 453.33,-159.91"/>
</a>
</g>
</g>
<!-- Node11 -->
<g id="Node000011" class="node">
<title>Node11</title>
<g id="a_Node000011"><a xlink:href="../../db/ddd/class_r_t_o_s_1_1_event_group.html#a9a1ad03ef8da6c858f612c0455138b06" target="_top" xlink:title="Synchronizes event bits with other tasks using a timeout in milliseconds.">
<polygon fill="white" stroke="#666666" points="387.88,-172 242.88,-172 242.88,-152 387.88,-152 387.88,-172"/>
<text xml:space="preserve" text-anchor="middle" x="315.38" y="-158.5" font-family="Helvetica,sans-Serif" font-size="10.00">RTOS::EventGroup::syncBits</text>
</a>
</g>
</g>
<!-- Node9&#45;&gt;Node11 -->
<g id="edge11_Node000009_Node000011" class="edge">
<title>Node9&#45;&gt;Node11</title>
<g id="a_edge11_Node000009_Node000011"><a xlink:title=" ">
<path fill="none" stroke="#63b8ff" d="M430.29,-151.01C416.28,-152.36 401.83,-153.76 388.14,-155.08"/>
<polygon fill="#63b8ff" stroke="#63b8ff" points="430.29,-154.53 439.91,-150.09 429.62,-147.56 430.29,-154.53"/>
</a>
</g>
</g>
<!-- Node13 -->
<g id="Node000013" class="node">
<title>Node13</title>
<g id="a_Node000013"><a xlink:href="../../db/ddd/class_r_t_o_s_1_1_event_group.html#ad7fc5538c055913a70fb6d7b49f058aa" target="_top" xlink:title="Tries to wait for specified bits without blocking.">
<polygon fill="white" stroke="#666666" points="399.88,-134 230.88,-134 230.88,-114 399.88,-114 399.88,-134"/>
<text xml:space="preserve" text-anchor="middle" x="315.38" y="-120.5" font-family="Helvetica,sans-Serif" font-size="10.00">RTOS::EventGroup::tryWaitForBits</text>
</a>
</g>
</g>
<!-- Node12&#45;&gt;Node13 -->
<g id="edge13_Node000012_Node000013" class="edge">
<title>Node12&#45;&gt;Node13</title>
<g id="a_edge13_Node000012_Node000013"><a xlink:title=" ">
<path fill="none" stroke="#63b8ff" d="M447.76,-98.66C422.7,-103.49 394.43,-108.94 370.55,-113.55"/>
<polygon fill="#63b8ff" stroke="#63b8ff" points="448.38,-102.1 457.54,-96.77 447.05,-95.23 448.38,-102.1"/>
</a>
</g>
</g>
<!-- Node14 -->
<g id="Node000014" class="node">
<title>Node14</title>
<g id="a_Node000014"><a xlink:href="../../db/ddd/class_r_t_o_s_1_1_event_group.html#a378d55e55fc56f425f050b166d9b5837" target="_top" xlink:title="Waits for a single bit to be set.">
<polygon fill="white" stroke="#666666" points="390.88,-96 239.88,-96 239.88,-76 390.88,-76 390.88,-96"/>
<text xml:space="preserve" text-anchor="middle" x="315.38" y="-82.5" font-family="Helvetica,sans-Serif" font-size="10.00">RTOS::EventGroup::waitForBit</text>
</a>
</g>
</g>
<!-- Node12&#45;&gt;Node14 -->
<g id="edge14_Node000012_Node000014" class="edge">
<title>Node12&#45;&gt;Node14</title>
<g id="a_edge14_Node000012_Node000014"><a xlink:title=" ">
<path fill="none" stroke="#63b8ff" d="M424.37,-86C413.32,-86 402.11,-86 391.3,-86"/>
<polygon fill="#63b8ff" stroke="#63b8ff" points="424.28,-89.5 434.28,-86 424.28,-82.5 424.28,-89.5"/>
</a>
</g>
</g>
<!-- Node15 -->
<g id="Node000015" class="node">
<title>Node15</title>
<g id="a_Node000015"><a xlink:href="../../db/ddd/class_r_t_o_s_1_1_event_group.html#ae25661dbfd091cd987cac1057a565bfe" target="_top" xlink:title="Waits for specified bits with a Timeout object.">
<polygon fill="white" stroke="#666666" points="393.5,-58 237.25,-58 237.25,-38 393.5,-38 393.5,-58"/>
<text xml:space="preserve" text-anchor="middle" x="315.38" y="-44.5" font-family="Helvetica,sans-Serif" font-size="10.00">RTOS::EventGroup::waitForBits</text>
</a>
</g>
</g>
<!-- Node12&#45;&gt;Node15 -->
<g id="edge15_Node000012_Node000015" class="edge">
<title>Node12&#45;&gt;Node15</title>
<g id="a_edge15_Node000012_Node000015"><a xlink:title=" ">
<path fill="none" stroke="#63b8ff" d="M447.76,-73.34C422.7,-68.51 394.43,-63.06 370.55,-58.45"/>
<polygon fill="#63b8ff" stroke="#63b8ff" points="447.05,-76.77 457.54,-75.23 448.38,-69.9 447.05,-76.77"/>
</a>
</g>
</g>
<!-- Node12&#45;&gt;Node16 -->
<g id="edge16_Node000012_Node000016" class="edge">
<title>Node12&#45;&gt;Node16</title>
<g id="a_edge16_Node000012_Node000016"><a xlink:title=" ">
<path fill="none" stroke="#63b8ff" d="M486.15,-69.9C463.74,-57.24 430.8,-39.97 400.25,-29 391.12,-25.72 381.21,-22.88 371.52,-20.47"/>
<polygon fill="#63b8ff" stroke="#63b8ff" points="484.22,-72.83 494.64,-74.77 487.7,-66.76 484.22,-72.83"/>
</a>
</g>
</g>
<!-- Node17 -->
<g id="Node000017" class="node">
<title>Node17</title>
<g id="a_Node000017"><a xlink:href="../../db/ddd/class_r_t_o_s_1_1_event_group.html#a8c3eb82ef1804ee100cf7b7b66950cd7" target="_top" xlink:title="Waits for specified bits with a timeout in seconds.">
<polygon fill="white" stroke="#666666" points="194.5,-20 0,-20 0,0 194.5,0 194.5,-20"/>
<text xml:space="preserve" text-anchor="middle" x="97.25" y="-6.5" font-family="Helvetica,sans-Serif" font-size="10.00">RTOS::EventGroup::waitForBitsSeconds</text>
</a>
</g>
</g>
<!-- Node16&#45;&gt;Node17 -->
<g id="edge17_Node000016_Node000017" class="edge">
<title>Node16&#45;&gt;Node17</title>
<g id="a_edge17_Node000016_Node000017"><a xlink:title=" ">
<path fill="none" stroke="#63b8ff" d="M218.93,-10C210.91,-10 202.79,-10 194.76,-10"/>
<polygon fill="#63b8ff" stroke="#63b8ff" points="218.68,-13.5 228.68,-10 218.68,-6.5 218.68,-13.5"/>
</a>
</g>
</g>
</g>
</svg>
