<?xml version="1.0" encoding="UTF-8" standalone="no"?>
<!DOCTYPE svg PUBLIC "-//W3C//DTD SVG 1.1//EN"
 "http://www.w3.org/Graphics/SVG/1.1/DTD/svg11.dtd">
<!-- Generated by graphviz version 13.1.0 (20250701.0955)
 -->
<!-- Title: RTOS::EventGroup::clearBit Pages: 1 -->
<svg width="502pt" height="47pt"
 viewBox="0.00 0.00 502.00 47.00" xmlns="http://www.w3.org/2000/svg" xmlns:xlink="http://www.w3.org/1999/xlink">
<g id="graph0" class="graph" transform="scale(1 1) rotate(0) translate(4 43)">
<title>RTOS::EventGroup::clearBit</title>
<!-- Node1 -->
<g id="Node000001" class="node">
<title>Node1</title>
<g id="a_Node000001"><a xlink:title="Clears a single event bit.">
<polygon fill="#999999" stroke="#666666" points="139.75,-20 0,-20 0,0 139.75,0 139.75,-20"/>
<text xml:space="preserve" text-anchor="middle" x="69.88" y="-6.5" font-family="Helvetica,sans-Serif" font-size="10.00">RTOS::EventGroup::clearBit</text>
</a>
</g>
</g>
<!-- Node2 -->
<g id="Node000002" class="node">
<title>Node2</title>
<g id="a_Node000002"><a xlink:href="../../db/ddd/class_r_t_o_s_1_1_event_group.html#a6baaf9e6c921c165af2b86fcb50b713d" target="_top" xlink:title="Clears the specified event bits.">
<polygon fill="white" stroke="#666666" points="320.75,-39 175.75,-39 175.75,-19 320.75,-19 320.75,-39"/>
<text xml:space="preserve" text-anchor="middle" x="248.25" y="-25.5" font-family="Helvetica,sans-Serif" font-size="10.00">RTOS::EventGroup::clearBits</text>
</a>
</g>
</g>
<!-- Node1&#45;&gt;Node2 -->
<g id="edge1_Node000001_Node000002" class="edge">
<title>Node1&#45;&gt;Node2</title>
<g id="a_edge1_Node000001_Node000002"><a xlink:title=" ">
<path fill="none" stroke="#63b8ff" d="M140.08,-17.45C147.95,-18.3 156.03,-19.17 164.06,-20.04"/>
<polygon fill="#63b8ff" stroke="#63b8ff" points="163.52,-23.5 173.84,-21.09 164.27,-16.54 163.52,-23.5"/>
</a>
</g>
</g>
<!-- Node3 -->
<g id="Node000003" class="node">
<title>Node3</title>
<g id="a_Node000003"><a xlink:href="../../db/ddd/class_r_t_o_s_1_1_event_group.html#ab940e7baf67c42162d8700c967c6903f" target="_top" xlink:title="Gets the current event bits.">
<polygon fill="white" stroke="#666666" points="494.25,-20 356.75,-20 356.75,0 494.25,0 494.25,-20"/>
<text xml:space="preserve" text-anchor="middle" x="425.5" y="-6.5" font-family="Helvetica,sans-Serif" font-size="10.00">RTOS::EventGroup::getBits</text>
</a>
</g>
</g>
<!-- Node1&#45;&gt;Node3 -->
<g id="edge3_Node000001_Node000003" class="edge">
<title>Node1&#45;&gt;Node3</title>
<g id="a_edge3_Node000001_Node000003"><a xlink:title=" ">
<path fill="none" stroke="#63b8ff" d="M139.9,-10C198.74,-10 283.35,-10 345.02,-10"/>
<polygon fill="#63b8ff" stroke="#63b8ff" points="344.74,-13.5 354.74,-10 344.74,-6.5 344.74,-13.5"/>
</a>
</g>
</g>
<!-- Node2&#45;&gt;Node3 -->
<g id="edge2_Node000002_Node000003" class="edge">
<title>Node2&#45;&gt;Node3</title>
<g id="a_edge2_Node000002_Node000003"><a xlink:title=" ">
<path fill="none" stroke="#63b8ff" d="M321.04,-21.22C329,-20.35 337.15,-19.47 345.2,-18.6"/>
<polygon fill="#63b8ff" stroke="#63b8ff" points="345.43,-22.09 354.99,-17.54 344.67,-15.13 345.43,-22.09"/>
</a>
</g>
</g>
</g>
</svg>
