<?xml version="1.0" encoding="UTF-8" standalone="no"?>
<!DOCTYPE svg PUBLIC "-//W3C//DTD SVG 1.1//EN"
 "http://www.w3.org/Graphics/SVG/1.1/DTD/svg11.dtd">
<!-- Generated by graphviz version 13.1.0 (20250701.0955)
 -->
<!-- Title: Lib::Digi::Core::Protocol::parse Pages: 1 -->
<svg width="580pt" height="66pt"
 viewBox="0.00 0.00 580.00 66.00" xmlns="http://www.w3.org/2000/svg" xmlns:xlink="http://www.w3.org/1999/xlink">
<g id="graph0" class="graph" transform="scale(1 1) rotate(0) translate(4 62)">
<title>Lib::Digi::Core::Protocol::parse</title>
<!-- Node1 -->
<g id="Node000001" class="node">
<title>Node1</title>
<g id="a_Node000001"><a xlink:title="Parses the incoming Digi API frame.">
<polygon fill="#999999" stroke="#666666" points="151,-39 0,-39 0,-19 151,-19 151,-39"/>
<text xml:space="preserve" text-anchor="middle" x="75.5" y="-25.5" font-family="Helvetica,sans-Serif" font-size="10.00">Lib::Digi::Core::Protocol::parse</text>
</a>
</g>
</g>
<!-- Node2 -->
<g id="Node000002" class="node">
<title>Node2</title>
<g id="a_Node000002"><a xlink:href="../../d0/d78/class_lib_1_1_digi_1_1_core_1_1_api_frame_buffer.html#af330a9ce26933f4495d1e727a6394423" target="_top" xlink:title="Get pointer to the data array.">
<polygon fill="white" stroke="#666666" points="571.5,-58 378.5,-58 378.5,-38 571.5,-38 571.5,-58"/>
<text xml:space="preserve" text-anchor="middle" x="475" y="-44.5" font-family="Helvetica,sans-Serif" font-size="10.00">Lib::Digi::Core::ApiFrameBuffer::getData</text>
</a>
</g>
</g>
<!-- Node1&#45;&gt;Node2 -->
<g id="edge1_Node000001_Node000002" class="edge">
<title>Node1&#45;&gt;Node2</title>
<g id="a_edge1_Node000001_Node000002"><a xlink:title=" ">
<path fill="none" stroke="#63b8ff" d="M151.27,-32.57C212.09,-35.48 298.7,-39.62 366.89,-42.88"/>
<polygon fill="#63b8ff" stroke="#63b8ff" points="366.43,-46.36 376.59,-43.34 366.77,-39.37 366.43,-46.36"/>
</a>
</g>
</g>
<!-- Node3 -->
<g id="Node000003" class="node">
<title>Node3</title>
<g id="a_Node000003"><a xlink:href="../../d0/dad/class_lib_1_1_digi_1_1_core_1_1_protocol.html#a3e4e1a9ec8c49987cdd4ca168ad1885c" target="_top" xlink:title="Checks whether the Digi API frame is valid (non&#45;escaped message).">
<polygon fill="white" stroke="#666666" points="342.5,-20 187,-20 187,0 342.5,0 342.5,-20"/>
<text xml:space="preserve" text-anchor="middle" x="264.75" y="-6.5" font-family="Helvetica,sans-Serif" font-size="10.00">Lib::Digi::Core::Protocol::isValid</text>
</a>
</g>
</g>
<!-- Node1&#45;&gt;Node3 -->
<g id="edge2_Node000001_Node000003" class="edge">
<title>Node1&#45;&gt;Node3</title>
<g id="a_edge2_Node000001_Node000003"><a xlink:title=" ">
<path fill="none" stroke="#63b8ff" d="M151.31,-21.41C159.21,-20.61 167.29,-19.79 175.31,-18.97"/>
<polygon fill="#63b8ff" stroke="#63b8ff" points="175.5,-22.47 185.1,-17.98 174.8,-15.51 175.5,-22.47"/>
</a>
</g>
</g>
<!-- Node3&#45;&gt;Node2 -->
<g id="edge3_Node000003_Node000002" class="edge">
<title>Node3&#45;&gt;Node2</title>
<g id="a_edge3_Node000003_Node000002"><a xlink:title=" ">
<path fill="none" stroke="#63b8ff" d="M323.21,-20.48C348.7,-25.14 378.9,-30.65 405.55,-35.51"/>
<polygon fill="#63b8ff" stroke="#63b8ff" points="404.78,-38.93 415.24,-37.28 406.03,-32.04 404.78,-38.93"/>
</a>
</g>
</g>
<!-- Node4 -->
<g id="Node000004" class="node">
<title>Node4</title>
<g id="a_Node000004"><a xlink:href="../../d0/d78/class_lib_1_1_digi_1_1_core_1_1_api_frame_buffer.html#aee12a2741eeba5e11e1fa84b36d86842" target="_top" xlink:title="Get the size of stored data.">
<polygon fill="white" stroke="#666666" points="570.75,-20 379.25,-20 379.25,0 570.75,0 570.75,-20"/>
<text xml:space="preserve" text-anchor="middle" x="475" y="-6.5" font-family="Helvetica,sans-Serif" font-size="10.00">Lib::Digi::Core::ApiFrameBuffer::getSize</text>
</a>
</g>
</g>
<!-- Node3&#45;&gt;Node4 -->
<g id="edge4_Node000003_Node000004" class="edge">
<title>Node3&#45;&gt;Node4</title>
<g id="a_edge4_Node000003_Node000004"><a xlink:title=" ">
<path fill="none" stroke="#63b8ff" d="M343,-10C351.04,-10 359.3,-10 367.59,-10"/>
<polygon fill="#63b8ff" stroke="#63b8ff" points="367.37,-13.5 377.37,-10 367.37,-6.5 367.37,-13.5"/>
</a>
</g>
</g>
</g>
</svg>
