<?xml version="1.0" encoding="UTF-8" standalone="no"?>
<!DOCTYPE svg PUBLIC "-//W3C//DTD SVG 1.1//EN"
 "http://www.w3.org/Graphics/SVG/1.1/DTD/svg11.dtd">
<!-- Generated by graphviz version 12.2.1 (20241206.2353)
 -->
<!-- Title: Lib::Xbee::Core::QueryBase Pages: 1 -->
<svg width="735pt" height="276pt"
 viewBox="0.00 0.00 735.00 276.00" xmlns="http://www.w3.org/2000/svg" xmlns:xlink="http://www.w3.org/1999/xlink">
<g id="graph0" class="graph" transform="scale(1 1) rotate(0) translate(4 272)">
<title>Lib::Xbee::Core::QueryBase</title>
<!-- Node1 -->
<g id="Node000001" class="node">
<title>Node1</title>
<g id="a_Node000001"><a xlink:title="An abstract base class for query objects.">
<polygon fill="#999999" stroke="none" points="429,-268 298,-268 298,-184 429,-184 429,-268"/>
<text text-anchor="start" x="302" y="-254.5" font-family="Helvetica,sans-Serif" font-size="10.00">Lib::Xbee::Core::QueryBase</text>
<text text-anchor="start" x="362" y="-238.5" font-family="Helvetica,sans-Serif" font-size="10.00"> </text>
<text text-anchor="start" x="305.5" y="-222.5" font-family="Helvetica,sans-Serif" font-size="10.00">+</text>
<text text-anchor="start" x="319" y="-222.5" font-family="Helvetica,sans-Serif" font-size="10.00">operator Frame::Data()</text>
<text text-anchor="start" x="305.88" y="-206.5" font-family="Helvetica,sans-Serif" font-size="10.00">#</text>
<text text-anchor="start" x="319" y="-206.5" font-family="Helvetica,sans-Serif" font-size="10.00">QueryBase()</text>
<text text-anchor="start" x="305.88" y="-190.5" font-family="Helvetica,sans-Serif" font-size="10.00">#</text>
<text text-anchor="start" x="319" y="-190.5" font-family="Helvetica,sans-Serif" font-size="10.00">~QueryBase()</text>
<polygon fill="#666666" stroke="#666666" points="298,-250 298,-250 429,-250 429,-250 298,-250"/>
<polygon fill="#666666" stroke="#666666" points="298,-234 298,-234 429,-234 429,-234 298,-234"/>
<polygon fill="none" stroke="#666666" points="298,-184 298,-268 429,-268 429,-184 298,-184"/>
</a>
</g>
</g>
<!-- Node2 -->
<g id="Node000002" class="node">
<title>Node2</title>
<g id="a_Node000002"><a xlink:href="../../d3/d51/a01264.html" target="_top" xlink:title="Represents a 64&#45;bit Transmit Request frame (Frame 0x00) for XBee communication.">
<polygon fill="white" stroke="none" points="131,-140 0,-140 0,-8 131,-8 131,-140"/>
<text text-anchor="start" x="4" y="-126.5" font-family="Helvetica,sans-Serif" font-size="10.00">Lib::Xbee::Core::Frame0x00</text>
<text text-anchor="start" x="7.5" y="-110.5" font-family="Helvetica,sans-Serif" font-size="10.00">+</text>
<text text-anchor="start" x="21" y="-110.5" font-family="Helvetica,sans-Serif" font-size="10.00">frameId</text>
<text text-anchor="start" x="7.5" y="-94.5" font-family="Helvetica,sans-Serif" font-size="10.00">+</text>
<text text-anchor="start" x="21" y="-94.5" font-family="Helvetica,sans-Serif" font-size="10.00">dstAddress</text>
<text text-anchor="start" x="7.5" y="-78.5" font-family="Helvetica,sans-Serif" font-size="10.00">+</text>
<text text-anchor="start" x="21" y="-78.5" font-family="Helvetica,sans-Serif" font-size="10.00">options</text>
<text text-anchor="start" x="7.5" y="-62.5" font-family="Helvetica,sans-Serif" font-size="10.00">+</text>
<text text-anchor="start" x="21" y="-62.5" font-family="Helvetica,sans-Serif" font-size="10.00">rfData</text>
<text text-anchor="start" x="7.5" y="-46.5" font-family="Helvetica,sans-Serif" font-size="10.00">+</text>
<text text-anchor="start" x="21" y="-46.5" font-family="Helvetica,sans-Serif" font-size="10.00">Frame0x00()</text>
<text text-anchor="start" x="7.5" y="-30.5" font-family="Helvetica,sans-Serif" font-size="10.00">+</text>
<text text-anchor="start" x="21" y="-30.5" font-family="Helvetica,sans-Serif" font-size="10.00">~Frame0x00()</text>
<text text-anchor="start" x="7.5" y="-14.5" font-family="Helvetica,sans-Serif" font-size="10.00">+</text>
<text text-anchor="start" x="21" y="-14.5" font-family="Helvetica,sans-Serif" font-size="10.00">operator Frame::Data()</text>
<polygon fill="#666666" stroke="#666666" points="0,-122 0,-122 131,-122 131,-122 0,-122"/>
<polygon fill="#666666" stroke="#666666" points="0,-58 0,-58 19,-58 19,-58 0,-58"/>
<polygon fill="#666666" stroke="#666666" points="19,-58 19,-58 131,-58 131,-58 19,-58"/>
<polygon fill="none" stroke="#666666" points="0,-8 0,-140 131,-140 131,-8 0,-8"/>
</a>
</g>
</g>
<!-- Node1&#45;&gt;Node2 -->
<g id="edge1_Node000001_Node000002" class="edge">
<title>Node1&#45;&gt;Node2</title>
<g id="a_edge1_Node000001_Node000002"><a xlink:title=" ">
<path fill="none" stroke="#63b8ff" d="M287.42,-207.94C242.22,-195.66 185.03,-176.22 139.5,-148 135.51,-145.53 131.57,-142.81 127.71,-139.91"/>
<polygon fill="none" stroke="#63b8ff" points="286.31,-211.27 296.88,-210.45 288.11,-204.5 286.31,-211.27"/>
</a>
</g>
</g>
<!-- Node3 -->
<g id="Node000003" class="node">
<title>Node3</title>
<g id="a_Node000003"><a xlink:href="../../dc/dd9/a01268.html" target="_top" xlink:title="Represents a frame with type 0x01 for transmitting data to a 16&#45;bit address.">
<polygon fill="white" stroke="none" points="280,-140 149,-140 149,-8 280,-8 280,-140"/>
<text text-anchor="start" x="153" y="-126.5" font-family="Helvetica,sans-Serif" font-size="10.00">Lib::Xbee::Core::Frame0x01</text>
<text text-anchor="start" x="156.5" y="-110.5" font-family="Helvetica,sans-Serif" font-size="10.00">+</text>
<text text-anchor="start" x="170" y="-110.5" font-family="Helvetica,sans-Serif" font-size="10.00">frameId</text>
<text text-anchor="start" x="156.5" y="-94.5" font-family="Helvetica,sans-Serif" font-size="10.00">+</text>
<text text-anchor="start" x="170" y="-94.5" font-family="Helvetica,sans-Serif" font-size="10.00">dstAddress</text>
<text text-anchor="start" x="156.5" y="-78.5" font-family="Helvetica,sans-Serif" font-size="10.00">+</text>
<text text-anchor="start" x="170" y="-78.5" font-family="Helvetica,sans-Serif" font-size="10.00">options</text>
<text text-anchor="start" x="156.5" y="-62.5" font-family="Helvetica,sans-Serif" font-size="10.00">+</text>
<text text-anchor="start" x="170" y="-62.5" font-family="Helvetica,sans-Serif" font-size="10.00">rfData</text>
<text text-anchor="start" x="156.5" y="-46.5" font-family="Helvetica,sans-Serif" font-size="10.00">+</text>
<text text-anchor="start" x="170" y="-46.5" font-family="Helvetica,sans-Serif" font-size="10.00">Frame0x01()</text>
<text text-anchor="start" x="156.5" y="-30.5" font-family="Helvetica,sans-Serif" font-size="10.00">+</text>
<text text-anchor="start" x="170" y="-30.5" font-family="Helvetica,sans-Serif" font-size="10.00">~Frame0x01()</text>
<text text-anchor="start" x="156.5" y="-14.5" font-family="Helvetica,sans-Serif" font-size="10.00">+</text>
<text text-anchor="start" x="170" y="-14.5" font-family="Helvetica,sans-Serif" font-size="10.00">operator Frame::Data()</text>
<polygon fill="#666666" stroke="#666666" points="149,-122 149,-122 280,-122 280,-122 149,-122"/>
<polygon fill="#666666" stroke="#666666" points="149,-58 149,-58 168,-58 168,-58 149,-58"/>
<polygon fill="#666666" stroke="#666666" points="168,-58 168,-58 280,-58 280,-58 168,-58"/>
<polygon fill="none" stroke="#666666" points="149,-8 149,-140 280,-140 280,-8 149,-8"/>
</a>
</g>
</g>
<!-- Node1&#45;&gt;Node3 -->
<g id="edge2_Node000001_Node000003" class="edge">
<title>Node1&#45;&gt;Node3</title>
<g id="a_edge2_Node000001_Node000003"><a xlink:title=" ">
<path fill="none" stroke="#63b8ff" d="M314.99,-176.17C303.5,-164.59 291.06,-152.07 278.97,-139.91"/>
<polygon fill="none" stroke="#63b8ff" points="312.19,-178.31 321.72,-182.94 317.15,-173.38 312.19,-178.31"/>
</a>
</g>
</g>
<!-- Node4 -->
<g id="Node000004" class="node">
<title>Node4</title>
<g id="a_Node000004"><a xlink:href="../../d4/d0e/a01272.html" target="_top" xlink:title="Represents a Local AT Command Request frame (Frame 0x08) for XBee communication.">
<polygon fill="white" stroke="none" points="429,-132 298,-132 298,-16 429,-16 429,-132"/>
<text text-anchor="start" x="302" y="-118.5" font-family="Helvetica,sans-Serif" font-size="10.00">Lib::Xbee::Core::Frame0x08</text>
<text text-anchor="start" x="305.5" y="-102.5" font-family="Helvetica,sans-Serif" font-size="10.00">+</text>
<text text-anchor="start" x="319" y="-102.5" font-family="Helvetica,sans-Serif" font-size="10.00">id</text>
<text text-anchor="start" x="305.5" y="-86.5" font-family="Helvetica,sans-Serif" font-size="10.00">+</text>
<text text-anchor="start" x="319" y="-86.5" font-family="Helvetica,sans-Serif" font-size="10.00">at</text>
<text text-anchor="start" x="305.5" y="-70.5" font-family="Helvetica,sans-Serif" font-size="10.00">+</text>
<text text-anchor="start" x="319" y="-70.5" font-family="Helvetica,sans-Serif" font-size="10.00">parameters</text>
<text text-anchor="start" x="305.5" y="-54.5" font-family="Helvetica,sans-Serif" font-size="10.00">+</text>
<text text-anchor="start" x="319" y="-54.5" font-family="Helvetica,sans-Serif" font-size="10.00">Frame0x08()</text>
<text text-anchor="start" x="305.5" y="-38.5" font-family="Helvetica,sans-Serif" font-size="10.00">+</text>
<text text-anchor="start" x="319" y="-38.5" font-family="Helvetica,sans-Serif" font-size="10.00">~Frame0x08()</text>
<text text-anchor="start" x="305.5" y="-22.5" font-family="Helvetica,sans-Serif" font-size="10.00">+</text>
<text text-anchor="start" x="319" y="-22.5" font-family="Helvetica,sans-Serif" font-size="10.00">operator Frame::Data()</text>
<polygon fill="#666666" stroke="#666666" points="298,-114 298,-114 429,-114 429,-114 298,-114"/>
<polygon fill="#666666" stroke="#666666" points="298,-66 298,-66 317,-66 317,-66 298,-66"/>
<polygon fill="#666666" stroke="#666666" points="317,-66 317,-66 429,-66 429,-66 317,-66"/>
<polygon fill="none" stroke="#666666" points="298,-16 298,-132 429,-132 429,-16 298,-16"/>
</a>
</g>
</g>
<!-- Node1&#45;&gt;Node4 -->
<g id="edge3_Node000001_Node000004" class="edge">
<title>Node1&#45;&gt;Node4</title>
<g id="a_edge3_Node000001_Node000004"><a xlink:title=" ">
<path fill="none" stroke="#63b8ff" d="M363.5,-172.75C363.5,-159.57 363.5,-145.36 363.5,-131.96"/>
<polygon fill="none" stroke="#63b8ff" points="360,-172.5 363.5,-182.5 367,-172.5 360,-172.5"/>
</a>
</g>
</g>
<!-- Node5 -->
<g id="Node000005" class="node">
<title>Node5</title>
<g id="a_Node000005"><a xlink:href="../../d5/d37/a01276.html" target="_top" xlink:title="Represents a Queue Local AT Command Request frame (Frame 0x09) for XBee communication.">
<polygon fill="white" stroke="none" points="578,-132 447,-132 447,-16 578,-16 578,-132"/>
<text text-anchor="start" x="451" y="-118.5" font-family="Helvetica,sans-Serif" font-size="10.00">Lib::Xbee::Core::Frame0x09</text>
<text text-anchor="start" x="454.5" y="-102.5" font-family="Helvetica,sans-Serif" font-size="10.00">+</text>
<text text-anchor="start" x="468" y="-102.5" font-family="Helvetica,sans-Serif" font-size="10.00">frameId</text>
<text text-anchor="start" x="454.5" y="-86.5" font-family="Helvetica,sans-Serif" font-size="10.00">+</text>
<text text-anchor="start" x="468" y="-86.5" font-family="Helvetica,sans-Serif" font-size="10.00">atCmd</text>
<text text-anchor="start" x="454.5" y="-70.5" font-family="Helvetica,sans-Serif" font-size="10.00">+</text>
<text text-anchor="start" x="468" y="-70.5" font-family="Helvetica,sans-Serif" font-size="10.00">parameterValue</text>
<text text-anchor="start" x="454.5" y="-54.5" font-family="Helvetica,sans-Serif" font-size="10.00">+</text>
<text text-anchor="start" x="468" y="-54.5" font-family="Helvetica,sans-Serif" font-size="10.00">Frame0x09()</text>
<text text-anchor="start" x="454.5" y="-38.5" font-family="Helvetica,sans-Serif" font-size="10.00">+</text>
<text text-anchor="start" x="468" y="-38.5" font-family="Helvetica,sans-Serif" font-size="10.00">~Frame0x09()</text>
<text text-anchor="start" x="454.5" y="-22.5" font-family="Helvetica,sans-Serif" font-size="10.00">+</text>
<text text-anchor="start" x="468" y="-22.5" font-family="Helvetica,sans-Serif" font-size="10.00">operator Frame::Data()</text>
<polygon fill="#666666" stroke="#666666" points="447,-114 447,-114 578,-114 578,-114 447,-114"/>
<polygon fill="#666666" stroke="#666666" points="447,-66 447,-66 466,-66 466,-66 447,-66"/>
<polygon fill="#666666" stroke="#666666" points="466,-66 466,-66 578,-66 578,-66 466,-66"/>
<polygon fill="none" stroke="#666666" points="447,-16 447,-132 578,-132 578,-16 447,-16"/>
</a>
</g>
</g>
<!-- Node1&#45;&gt;Node5 -->
<g id="edge4_Node000001_Node000005" class="edge">
<title>Node1&#45;&gt;Node5</title>
<g id="a_edge4_Node000001_Node000005"><a xlink:title=" ">
<path fill="none" stroke="#63b8ff" d="M412.25,-175.92C426.21,-161.87 441.54,-146.44 455.92,-131.96"/>
<polygon fill="none" stroke="#63b8ff" points="409.85,-173.38 405.28,-182.94 414.81,-178.31 409.85,-173.38"/>
</a>
</g>
</g>
<!-- Node6 -->
<g id="Node000006" class="node">
<title>Node6</title>
<g id="a_Node000006"><a xlink:href="../../d8/d0d/a01280.html" target="_top" xlink:title="Represents a Remote AT Command Request frame (Frame 0x17) for XBee communication.">
<polygon fill="white" stroke="none" points="727,-148 596,-148 596,0 727,0 727,-148"/>
<text text-anchor="start" x="600" y="-134.5" font-family="Helvetica,sans-Serif" font-size="10.00">Lib::Xbee::Core::Frame0x17</text>
<text text-anchor="start" x="602.38" y="-118.5" font-family="Helvetica,sans-Serif" font-size="10.00">+</text>
<text text-anchor="start" x="614.75" y="-118.5" font-family="Helvetica,sans-Serif" font-size="10.00">frameId</text>
<text text-anchor="start" x="602.38" y="-102.5" font-family="Helvetica,sans-Serif" font-size="10.00">+</text>
<text text-anchor="start" x="614.75" y="-102.5" font-family="Helvetica,sans-Serif" font-size="10.00">atCmd</text>
<text text-anchor="start" x="602.38" y="-86.5" font-family="Helvetica,sans-Serif" font-size="10.00">+</text>
<text text-anchor="start" x="614.75" y="-86.5" font-family="Helvetica,sans-Serif" font-size="10.00">remoteCommandOption</text>
<text text-anchor="start" x="602.38" y="-70.5" font-family="Helvetica,sans-Serif" font-size="10.00">+</text>
<text text-anchor="start" x="614.75" y="-70.5" font-family="Helvetica,sans-Serif" font-size="10.00">parameters</text>
<text text-anchor="start" x="602.38" y="-54.5" font-family="Helvetica,sans-Serif" font-size="10.00">+</text>
<text text-anchor="start" x="614.75" y="-54.5" font-family="Helvetica,sans-Serif" font-size="10.00">destinationAddress</text>
<text text-anchor="start" x="602.38" y="-38.5" font-family="Helvetica,sans-Serif" font-size="10.00">+</text>
<text text-anchor="start" x="614.75" y="-38.5" font-family="Helvetica,sans-Serif" font-size="10.00">Frame0x17()</text>
<text text-anchor="start" x="602.38" y="-22.5" font-family="Helvetica,sans-Serif" font-size="10.00">+</text>
<text text-anchor="start" x="614.75" y="-22.5" font-family="Helvetica,sans-Serif" font-size="10.00">~Frame0x17()</text>
<text text-anchor="start" x="602.38" y="-6.5" font-family="Helvetica,sans-Serif" font-size="10.00">+</text>
<text text-anchor="start" x="614.75" y="-6.5" font-family="Helvetica,sans-Serif" font-size="10.00">operator Frame::Data()</text>
<polygon fill="#666666" stroke="#666666" points="596,-130 596,-130 727,-130 727,-130 596,-130"/>
<polygon fill="#666666" stroke="#666666" points="596,-50 596,-50 612.75,-50 612.75,-50 596,-50"/>
<polygon fill="#666666" stroke="#666666" points="612.75,-50 612.75,-50 727,-50 727,-50 612.75,-50"/>
<polygon fill="none" stroke="#666666" points="596,0 596,-148 727,-148 727,0 596,0"/>
</a>
</g>
</g>
<!-- Node1&#45;&gt;Node6 -->
<g id="edge5_Node000001_Node000006" class="edge">
<title>Node1&#45;&gt;Node6</title>
<g id="a_edge5_Node000001_Node000006"><a xlink:title=" ">
<path fill="none" stroke="#63b8ff" d="M439.58,-207.94C484.78,-195.66 541.97,-176.22 587.5,-148 590.41,-146.19 593.3,-144.25 596.16,-142.21"/>
<polygon fill="none" stroke="#63b8ff" points="438.89,-204.5 430.12,-210.45 440.69,-211.27 438.89,-204.5"/>
</a>
</g>
</g>
</g>
</svg>
