<?xml version="1.0" encoding="UTF-8" standalone="no"?>
<!DOCTYPE svg PUBLIC "-//W3C//DTD SVG 1.1//EN"
 "http://www.w3.org/Graphics/SVG/1.1/DTD/svg11.dtd">
<!-- Generated by graphviz version 13.1.0 (20250701.0955)
 -->
<!-- Title: BSP::Leds Pages: 1 -->
<svg width="240pt" height="286pt"
 viewBox="0.00 0.00 240.00 286.00" xmlns="http://www.w3.org/2000/svg" xmlns:xlink="http://www.w3.org/1999/xlink">
<g id="graph0" class="graph" transform="scale(1 1) rotate(0) translate(4 282)">
<title>BSP::Leds</title>
<!-- Node1 -->
<g id="Node000001" class="node">
<title>Node1</title>
<g id="a_Node000001"><a xlink:title="LED controller for ready and error indicators.">
<polygon fill="#999999" stroke="none" points="148.38,-91 97.62,-91 97.62,0 148.38,0 148.38,-91"/>
<text xml:space="preserve" text-anchor="start" x="101.62" y="-78.45" font-family="Arial" font-size="9.00">BSP::Leds</text>
<text xml:space="preserve" text-anchor="start" x="121.88" y="-63.95" font-family="Arial" font-size="9.00"> </text>
<text xml:space="preserve" text-anchor="start" x="102.12" y="-49.45" font-family="Arial" font-size="9.00">+</text>
<text xml:space="preserve" text-anchor="start" x="111.88" y="-49.45" font-family="Arial" font-size="9.00">Leds()</text>
<text xml:space="preserve" text-anchor="start" x="102.12" y="-34.95" font-family="Arial" font-size="9.00">+</text>
<text xml:space="preserve" text-anchor="start" x="111.88" y="-34.95" font-family="Arial" font-size="9.00">Leds()</text>
<text xml:space="preserve" text-anchor="start" x="102.12" y="-20.45" font-family="Arial" font-size="9.00">+</text>
<text xml:space="preserve" text-anchor="start" x="111.88" y="-20.45" font-family="Arial" font-size="9.00">~Leds()</text>
<text xml:space="preserve" text-anchor="start" x="102.12" y="-5.95" font-family="Arial" font-size="9.00">+</text>
<text xml:space="preserve" text-anchor="start" x="111.88" y="-5.95" font-family="Arial" font-size="9.00">init()</text>
<polygon fill="#666666" stroke="#666666" points="97.62,-74.5 97.62,-74.5 148.38,-74.5 148.38,-74.5 97.62,-74.5"/>
<polygon fill="#666666" stroke="#666666" points="97.62,-60 97.62,-60 148.38,-60 148.38,-60 97.62,-60"/>
<polygon fill="none" stroke="#666666" points="97.62,0 97.62,-91 148.38,-91 148.38,0 97.62,0"/>
</a>
</g>
</g>
<!-- Node2 -->
<g id="Node000002" class="node">
<title>Node2</title>
<g id="a_Node000002"><a xlink:href="../../db/d27/class_lib_1_1_b_s_p_1_1_device_driver_base.html" target="_top" xlink:title="Base class for BSP drivers.">
<polygon fill="white" stroke="none" points="122,-263.5 0,-263.5 0,-172.5 122,-172.5 122,-263.5"/>
<text xml:space="preserve" text-anchor="start" x="4" y="-250.95" font-family="Arial" font-size="9.00">Lib::BSP::DeviceDriverBase</text>
<text xml:space="preserve" text-anchor="start" x="59.88" y="-236.45" font-family="Arial" font-size="9.00"> </text>
<text xml:space="preserve" text-anchor="start" x="8.81" y="-221.95" font-family="Arial" font-size="9.00">+</text>
<text xml:space="preserve" text-anchor="start" x="22.88" y="-221.95" font-family="Arial" font-size="9.00">DeviceDriverBase()</text>
<text xml:space="preserve" text-anchor="start" x="8.81" y="-207.45" font-family="Arial" font-size="9.00">+</text>
<text xml:space="preserve" text-anchor="start" x="22.88" y="-207.45" font-family="Arial" font-size="9.00">~DeviceDriverBase()</text>
<text xml:space="preserve" text-anchor="start" x="8.81" y="-192.95" font-family="Arial" font-size="9.00">+</text>
<text xml:space="preserve" text-anchor="start" x="22.88" y="-192.95" font-family="Arial" font-size="9.00">init()</text>
<text xml:space="preserve" text-anchor="start" x="8.81" y="-178.45" font-family="Arial" font-size="9.00">+</text>
<text xml:space="preserve" text-anchor="start" x="22.88" y="-178.45" font-family="Arial" font-size="9.00">tick()</text>
<polygon fill="#666666" stroke="#666666" points="0,-247 0,-247 122,-247 122,-247 0,-247"/>
<polygon fill="#666666" stroke="#666666" points="0,-232.5 0,-232.5 122,-232.5 122,-232.5 0,-232.5"/>
<polygon fill="none" stroke="#666666" points="0,-172.5 0,-263.5 122,-263.5 122,-172.5 0,-172.5"/>
</a>
</g>
</g>
<!-- Node2&#45;&gt;Node1 -->
<g id="edge1_Node000001_Node000002" class="edge">
<title>Node2&#45;&gt;Node1</title>
<g id="a_edge1_Node000001_Node000002"><a xlink:title=" ">
<path fill="none" stroke="#63b8ff" d="M81,-162.01C89.36,-139.02 98.94,-112.66 106.85,-90.93"/>
<polygon fill="none" stroke="#63b8ff" points="77.77,-160.63 77.65,-171.23 84.35,-163.02 77.77,-160.63"/>
</a>
</g>
</g>
<!-- Node3 -->
<g id="Node000003" class="node">
<title>Node3</title>
<g id="a_Node000003"><a xlink:href="../../d7/dc4/class_b_s_p_1_1_leds_1_1_led.html" target="_top" xlink:title="Single LED control abstraction.">
<polygon fill="white" stroke="none" points="231.75,-278 140.25,-278 140.25,-158 231.75,-158 231.75,-278"/>
<text xml:space="preserve" text-anchor="start" x="154.5" y="-265.45" font-family="Arial" font-size="9.00">BSP::Leds::Led</text>
<text xml:space="preserve" text-anchor="start" x="184.88" y="-250.95" font-family="Arial" font-size="9.00"> </text>
<text xml:space="preserve" text-anchor="start" x="144.25" y="-236.45" font-family="Arial" font-size="9.00">+</text>
<text xml:space="preserve" text-anchor="start" x="153.5" y="-236.45" font-family="Arial" font-size="9.00">Led()</text>
<text xml:space="preserve" text-anchor="start" x="144.25" y="-221.95" font-family="Arial" font-size="9.00">+</text>
<text xml:space="preserve" text-anchor="start" x="153.5" y="-221.95" font-family="Arial" font-size="9.00">~Led()</text>
<text xml:space="preserve" text-anchor="start" x="144.25" y="-207.45" font-family="Arial" font-size="9.00">+</text>
<text xml:space="preserve" text-anchor="start" x="153.5" y="-207.45" font-family="Arial" font-size="9.00">on()</text>
<text xml:space="preserve" text-anchor="start" x="144.25" y="-192.95" font-family="Arial" font-size="9.00">+</text>
<text xml:space="preserve" text-anchor="start" x="153.5" y="-192.95" font-family="Arial" font-size="9.00">off()</text>
<text xml:space="preserve" text-anchor="start" x="144.25" y="-178.45" font-family="Arial" font-size="9.00">+</text>
<text xml:space="preserve" text-anchor="start" x="153.5" y="-178.45" font-family="Arial" font-size="9.00">blink()</text>
<text xml:space="preserve" text-anchor="start" x="144.25" y="-163.95" font-family="Arial" font-size="9.00">+</text>
<text xml:space="preserve" text-anchor="start" x="153.5" y="-163.95" font-family="Arial" font-size="9.00">handleTickEvent()</text>
<polygon fill="#666666" stroke="#666666" points="140.25,-261.5 140.25,-261.5 231.75,-261.5 231.75,-261.5 140.25,-261.5"/>
<polygon fill="#666666" stroke="#666666" points="140.25,-247 140.25,-247 231.75,-247 231.75,-247 140.25,-247"/>
<polygon fill="none" stroke="#666666" points="140.25,-158 140.25,-278 231.75,-278 231.75,-158 140.25,-158"/>
</a>
</g>
</g>
<!-- Node3&#45;&gt;Node1 -->
<g id="edge2_Node000001_Node000003" class="edge">
<title>Node3&#45;&gt;Node1</title>
<g id="a_edge2_Node000001_Node000003"><a xlink:title=" ">
<path fill="none" stroke="#63b8ff" d="M164.32,-158.32C157.67,-140.32 150.37,-120.56 143.78,-102.73"/>
<polygon fill="none" stroke="#63b8ff" points="143.82,-102.84 137.99,-98.6 139.66,-91.58 145.49,-95.82 143.82,-102.84"/>
</a>
</g>
<text xml:space="preserve" text-anchor="start" x="159.39" y="-128.45" font-family="Arial" font-size="9.00" fill="grey">+error</text>
<text xml:space="preserve" text-anchor="start" x="159.39" y="-113.95" font-family="Arial" font-size="9.00" fill="grey">+ready</text>
</g>
</g>
</svg>
