<?xml version="1.0" encoding="UTF-8" standalone="no"?>
<!DOCTYPE svg PUBLIC "-//W3C//DTD SVG 1.1//EN"
 "http://www.w3.org/Graphics/SVG/1.1/DTD/svg11.dtd">
<!-- Generated by graphviz version 13.1.0 (20250701.0955)
 -->
<!-- Title: Leds Pages: 1 -->
<svg width="172pt" height="286pt"
 viewBox="0.00 0.00 172.00 286.00" xmlns="http://www.w3.org/2000/svg" xmlns:xlink="http://www.w3.org/1999/xlink">
<g id="graph0" class="graph" transform="scale(1 1) rotate(0) translate(4 282)">
<title>Leds</title>
<!-- Node1 -->
<g id="Node000001" class="node">
<title>Node1</title>
<g id="a_Node000001"><a xlink:title="Provides management and control for board status LEDs, supporting on, off, and blinking modes.">
<polygon fill="#999999" stroke="none" points="96.25,-91 47.5,-91 47.5,0 96.25,0 96.25,-91"/>
<text xml:space="preserve" text-anchor="start" x="61.75" y="-78.45" font-family="Arial" font-size="9.00">Leds</text>
<text xml:space="preserve" text-anchor="start" x="70.75" y="-63.95" font-family="Arial" font-size="9.00"> </text>
<text xml:space="preserve" text-anchor="start" x="51.5" y="-49.45" font-family="Arial" font-size="9.00">+</text>
<text xml:space="preserve" text-anchor="start" x="60.75" y="-49.45" font-family="Arial" font-size="9.00">Leds()</text>
<text xml:space="preserve" text-anchor="start" x="51.5" y="-34.95" font-family="Arial" font-size="9.00">+</text>
<text xml:space="preserve" text-anchor="start" x="60.75" y="-34.95" font-family="Arial" font-size="9.00">Leds()</text>
<text xml:space="preserve" text-anchor="start" x="51.5" y="-20.45" font-family="Arial" font-size="9.00">+</text>
<text xml:space="preserve" text-anchor="start" x="60.75" y="-20.45" font-family="Arial" font-size="9.00">~Leds()</text>
<text xml:space="preserve" text-anchor="start" x="51.5" y="-5.95" font-family="Arial" font-size="9.00">+</text>
<text xml:space="preserve" text-anchor="start" x="60.75" y="-5.95" font-family="Arial" font-size="9.00">init()</text>
<polygon fill="#666666" stroke="#666666" points="47.5,-74.5 47.5,-74.5 96.25,-74.5 96.25,-74.5 47.5,-74.5"/>
<polygon fill="#666666" stroke="#666666" points="47.5,-60 47.5,-60 96.25,-60 96.25,-60 47.5,-60"/>
<polygon fill="none" stroke="#666666" points="47.5,0 47.5,-91 96.25,-91 96.25,0 47.5,0"/>
</a>
</g>
</g>
<!-- Node2 -->
<g id="Node000002" class="node">
<title>Node2</title>
<g id="a_Node000002"><a xlink:href="../../df/d30/class_lib_1_1_b_s_p_1_1_driver_base.html" target="_top" xlink:title=" ">
<polygon fill="white" stroke="none" points="53.75,-241.75 0,-241.75 0,-194.25 53.75,-194.25 53.75,-241.75"/>
<text xml:space="preserve" text-anchor="start" x="4" y="-229.2" font-family="Arial" font-size="9.00">DriverBase</text>
<text xml:space="preserve" text-anchor="start" x="25.75" y="-214.7" font-family="Arial" font-size="9.00"> </text>
<text xml:space="preserve" text-anchor="start" x="25.75" y="-200.2" font-family="Arial" font-size="9.00"> </text>
<polygon fill="#bfbfbf" stroke="#bfbfbf" points="0,-225.25 0,-225.25 53.75,-225.25 53.75,-225.25 0,-225.25"/>
<polygon fill="#bfbfbf" stroke="#bfbfbf" points="0,-210.75 0,-210.75 53.75,-210.75 53.75,-210.75 0,-210.75"/>
<polygon fill="none" stroke="#bfbfbf" points="0,-194.25 0,-241.75 53.75,-241.75 53.75,-194.25 0,-194.25"/>
</a>
</g>
</g>
<!-- Node2&#45;&gt;Node1 -->
<g id="edge1_Node000001_Node000002" class="edge">
<title>Node2&#45;&gt;Node1</title>
<g id="a_edge1_Node000001_Node000002"><a xlink:title=" ">
<path fill="none" stroke="#63b8ff" d="M35.75,-183.38C42.73,-156.94 52.51,-119.87 60.14,-90.97"/>
<polygon fill="none" stroke="#63b8ff" points="32.4,-182.33 33.24,-192.9 39.17,-184.12 32.4,-182.33"/>
</a>
</g>
</g>
<!-- Node3 -->
<g id="Node000003" class="node">
<title>Node3</title>
<g id="a_Node000003"><a xlink:href="../../d7/dc4/class_b_s_p_1_1_leds_1_1_led.html" target="_top" xlink:title="Represents a single board LED and manages its output state and behavior.">
<polygon fill="white" stroke="none" points="163.62,-278 72.12,-278 72.12,-158 163.62,-158 163.62,-278"/>
<text xml:space="preserve" text-anchor="start" x="110" y="-265.45" font-family="Arial" font-size="9.00">Led</text>
<text xml:space="preserve" text-anchor="start" x="116.75" y="-250.95" font-family="Arial" font-size="9.00"> </text>
<text xml:space="preserve" text-anchor="start" x="76.12" y="-236.45" font-family="Arial" font-size="9.00">+</text>
<text xml:space="preserve" text-anchor="start" x="85.38" y="-236.45" font-family="Arial" font-size="9.00">Led()</text>
<text xml:space="preserve" text-anchor="start" x="76.12" y="-221.95" font-family="Arial" font-size="9.00">+</text>
<text xml:space="preserve" text-anchor="start" x="85.38" y="-221.95" font-family="Arial" font-size="9.00">~Led()</text>
<text xml:space="preserve" text-anchor="start" x="76.12" y="-207.45" font-family="Arial" font-size="9.00">+</text>
<text xml:space="preserve" text-anchor="start" x="85.38" y="-207.45" font-family="Arial" font-size="9.00">on()</text>
<text xml:space="preserve" text-anchor="start" x="76.12" y="-192.95" font-family="Arial" font-size="9.00">+</text>
<text xml:space="preserve" text-anchor="start" x="85.38" y="-192.95" font-family="Arial" font-size="9.00">off()</text>
<text xml:space="preserve" text-anchor="start" x="76.12" y="-178.45" font-family="Arial" font-size="9.00">+</text>
<text xml:space="preserve" text-anchor="start" x="85.38" y="-178.45" font-family="Arial" font-size="9.00">blink()</text>
<text xml:space="preserve" text-anchor="start" x="76.12" y="-163.95" font-family="Arial" font-size="9.00">+</text>
<text xml:space="preserve" text-anchor="start" x="85.38" y="-163.95" font-family="Arial" font-size="9.00">handleTickEvent()</text>
<polygon fill="#666666" stroke="#666666" points="72.12,-261.5 72.12,-261.5 163.62,-261.5 163.62,-261.5 72.12,-261.5"/>
<polygon fill="#666666" stroke="#666666" points="72.12,-247 72.12,-247 163.62,-247 163.62,-247 72.12,-247"/>
<polygon fill="none" stroke="#666666" points="72.12,-158 72.12,-278 163.62,-278 163.62,-158 72.12,-158"/>
</a>
</g>
</g>
<!-- Node3&#45;&gt;Node1 -->
<g id="edge2_Node000001_Node000003" class="edge">
<title>Node3&#45;&gt;Node1</title>
<g id="a_edge2_Node000001_Node000003"><a xlink:title=" ">
<path fill="none" stroke="#63b8ff" d="M102.04,-158.32C97.23,-140.5 91.96,-120.94 87.18,-103.25"/>
<polygon fill="none" stroke="#63b8ff" points="87.17,-103.19 81.75,-98.44 84.04,-91.61 89.47,-96.36 87.17,-103.19"/>
</a>
</g>
<text xml:space="preserve" text-anchor="start" x="99.25" y="-128.45" font-family="Arial" font-size="9.00" fill="grey">+error</text>
<text xml:space="preserve" text-anchor="start" x="99.25" y="-113.95" font-family="Arial" font-size="9.00" fill="grey">+ready</text>
</g>
</g>
</svg>
