<?xml version="1.0" encoding="UTF-8" standalone="no"?>
<!DOCTYPE svg PUBLIC "-//W3C//DTD SVG 1.1//EN"
 "http://www.w3.org/Graphics/SVG/1.1/DTD/svg11.dtd">
<!-- Generated by graphviz version 10.0.1 (20240210.2158)
 -->
<!-- Title: Message.hpp Pages: 1 -->
<svg width="106pt" height="84pt"
 viewBox="0.00 0.00 105.62 84.00" xmlns="http://www.w3.org/2000/svg" xmlns:xlink="http://www.w3.org/1999/xlink">
<g id="graph0" class="graph" transform="scale(1 1) rotate(0) translate(4 80)">
<title>Message.hpp</title>
<!-- Node1 -->
<g id="Node000001" class="node">
<title>Node1</title>
<g id="a_Node000001"><a xlink:title="Defines the Message class for handling Xbee messages.">
<polygon fill="#999999" stroke="#666666" points="85.12,-76 10.62,-76 10.62,-56 85.12,-56 85.12,-76"/>
<text text-anchor="middle" x="47.88" y="-62.5" font-family="Helvetica,sans-Serif" font-size="10.00">Message.hpp</text>
</a>
</g>
</g>
<!-- Node2 -->
<g id="Node000002" class="node">
<title>Node2</title>
<g id="a_Node000002"><a xlink:title=" ">
<polygon fill="#e0e0e0" stroke="#999999" points="37.75,-20 0,-20 0,0 37.75,0 37.75,-20"/>
<text text-anchor="middle" x="18.88" y="-6.5" font-family="Helvetica,sans-Serif" font-size="10.00">array</text>
</a>
</g>
</g>
<!-- Node1&#45;&gt;Node2 -->
<g id="edge1_Node000001_Node000002" class="edge">
<title>Node1&#45;&gt;Node2</title>
<g id="a_edge1_Node000001_Node000002"><a xlink:title=" ">
<path fill="none" stroke="#63b8ff" d="M42.82,-55.59C39.08,-48.63 33.85,-38.89 29.23,-30.29"/>
<polygon fill="#63b8ff" stroke="#63b8ff" points="32.4,-28.79 24.58,-21.63 26.23,-32.1 32.4,-28.79"/>
</a>
</g>
</g>
<!-- Node3 -->
<g id="Node000003" class="node">
<title>Node3</title>
<g id="a_Node000003"><a xlink:title=" ">
<polygon fill="#e0e0e0" stroke="#999999" points="97.62,-20 56.12,-20 56.12,0 97.62,0 97.62,-20"/>
<text text-anchor="middle" x="76.88" y="-6.5" font-family="Helvetica,sans-Serif" font-size="10.00">vector</text>
</a>
</g>
</g>
<!-- Node1&#45;&gt;Node3 -->
<g id="edge2_Node000001_Node000003" class="edge">
<title>Node1&#45;&gt;Node3</title>
<g id="a_edge2_Node000001_Node000003"><a xlink:title=" ">
<path fill="none" stroke="#63b8ff" d="M52.93,-55.59C56.67,-48.63 61.9,-38.89 66.52,-30.29"/>
<polygon fill="#63b8ff" stroke="#63b8ff" points="69.52,-32.1 71.17,-21.63 63.35,-28.79 69.52,-32.1"/>
</a>
</g>
</g>
</g>
</svg>
