<?xml version="1.0" encoding="UTF-8" standalone="no"?>
<!DOCTYPE svg PUBLIC "-//W3C//DTD SVG 1.1//EN"
 "http://www.w3.org/Graphics/SVG/1.1/DTD/svg11.dtd">
<!-- Generated by graphviz version 13.1.0 (20250701.0955)
 -->
<!-- Title: Queue.hpp Pages: 1 -->
<svg width="343pt" height="84pt"
 viewBox="0.00 0.00 343.00 84.00" xmlns="http://www.w3.org/2000/svg" xmlns:xlink="http://www.w3.org/1999/xlink">
<g id="graph0" class="graph" transform="scale(1 1) rotate(0) translate(4 80)">
<title>Queue.hpp</title>
<!-- Node1 -->
<g id="Node000001" class="node">
<title>Node1</title>
<g id="a_Node000001"><a xlink:title="RTOS queue abstraction for FreeRTOS.">
<polygon fill="#999999" stroke="#666666" points="213,-76 149.75,-76 149.75,-56 213,-56 213,-76"/>
<text xml:space="preserve" text-anchor="middle" x="181.38" y="-62.5" font-family="Helvetica,sans-Serif" font-size="10.00">Queue.hpp</text>
</a>
</g>
</g>
<!-- Node2 -->
<g id="Node000002" class="node">
<title>Node2</title>
<g id="a_Node000002"><a xlink:title=" ">
<polygon fill="#e0e0e0" stroke="#999999" points="70.75,-20 0,-20 0,0 70.75,0 70.75,-20"/>
<text xml:space="preserve" text-anchor="middle" x="35.38" y="-6.5" font-family="Helvetica,sans-Serif" font-size="10.00">FreeRTOS.h</text>
</a>
</g>
</g>
<!-- Node1&#45;&gt;Node2 -->
<g id="edge1_Node000001_Node000002" class="edge">
<title>Node1&#45;&gt;Node2</title>
<g id="a_edge1_Node000001_Node000002"><a xlink:title=" ">
<path fill="none" stroke="#63b8ff" d="M155.94,-55.59C132.64,-46.97 97.88,-34.12 71.66,-24.42"/>
<polygon fill="#63b8ff" stroke="#63b8ff" points="73.02,-21.19 62.42,-21 70.59,-27.76 73.02,-21.19"/>
</a>
</g>
</g>
<!-- Node3 -->
<g id="Node000003" class="node">
<title>Node3</title>
<g id="a_Node000003"><a xlink:title=" ">
<polygon fill="#e0e0e0" stroke="#999999" points="139.62,-20 89.12,-20 89.12,0 139.62,0 139.62,-20"/>
<text xml:space="preserve" text-anchor="middle" x="114.38" y="-6.5" font-family="Helvetica,sans-Serif" font-size="10.00">queue.h</text>
</a>
</g>
</g>
<!-- Node1&#45;&gt;Node3 -->
<g id="edge2_Node000001_Node000003" class="edge">
<title>Node1&#45;&gt;Node3</title>
<g id="a_edge2_Node000001_Node000003"><a xlink:title=" ">
<path fill="none" stroke="#63b8ff" d="M169.7,-55.59C160.1,-47.85 146.25,-36.69 134.81,-27.47"/>
<polygon fill="#63b8ff" stroke="#63b8ff" points="137.07,-24.8 127.09,-21.25 132.68,-30.25 137.07,-24.8"/>
</a>
</g>
</g>
<!-- Node4 -->
<g id="Node000004" class="node">
<title>Node4</title>
<g id="a_Node000004"><a xlink:title=" ">
<polygon fill="#e0e0e0" stroke="#999999" points="205.5,-20 157.25,-20 157.25,0 205.5,0 205.5,-20"/>
<text xml:space="preserve" text-anchor="middle" x="181.38" y="-6.5" font-family="Helvetica,sans-Serif" font-size="10.00">cassert</text>
</a>
</g>
</g>
<!-- Node1&#45;&gt;Node4 -->
<g id="edge3_Node000001_Node000004" class="edge">
<title>Node1&#45;&gt;Node4</title>
<g id="a_edge3_Node000001_Node000004"><a xlink:title=" ">
<path fill="none" stroke="#63b8ff" d="M181.38,-55.59C181.38,-49.01 181.38,-39.96 181.38,-31.73"/>
<polygon fill="#63b8ff" stroke="#63b8ff" points="184.88,-31.81 181.38,-21.81 177.88,-31.81 184.88,-31.81"/>
</a>
</g>
</g>
<!-- Node5 -->
<g id="Node000005" class="node">
<title>Node5</title>
<g id="a_Node000005"><a xlink:title=" ">
<polygon fill="#e0e0e0" stroke="#999999" points="271.5,-20 223.25,-20 223.25,0 271.5,0 271.5,-20"/>
<text xml:space="preserve" text-anchor="middle" x="247.38" y="-6.5" font-family="Helvetica,sans-Serif" font-size="10.00">cstddef</text>
</a>
</g>
</g>
<!-- Node1&#45;&gt;Node5 -->
<g id="edge4_Node000001_Node000005" class="edge">
<title>Node1&#45;&gt;Node5</title>
<g id="a_edge4_Node000001_Node000005"><a xlink:title=" ">
<path fill="none" stroke="#63b8ff" d="M192.87,-55.59C202.34,-47.85 215.98,-36.69 227.25,-27.47"/>
<polygon fill="#63b8ff" stroke="#63b8ff" points="229.32,-30.3 234.84,-21.26 224.88,-24.88 229.32,-30.3"/>
</a>
</g>
</g>
<!-- Node6 -->
<g id="Node000006" class="node">
<title>Node6</title>
<g id="a_Node000006"><a xlink:title=" ">
<polygon fill="#e0e0e0" stroke="#999999" points="335,-20 289.75,-20 289.75,0 335,0 335,-20"/>
<text xml:space="preserve" text-anchor="middle" x="312.38" y="-6.5" font-family="Helvetica,sans-Serif" font-size="10.00">cstdint</text>
</a>
</g>
</g>
<!-- Node1&#45;&gt;Node6 -->
<g id="edge5_Node000001_Node000006" class="edge">
<title>Node1&#45;&gt;Node6</title>
<g id="a_edge5_Node000001_Node000006"><a xlink:title=" ">
<path fill="none" stroke="#63b8ff" d="M204.19,-55.59C224.82,-47.09 255.46,-34.46 278.87,-24.81"/>
<polygon fill="#63b8ff" stroke="#63b8ff" points="280.07,-28.1 287.98,-21.06 277.4,-21.63 280.07,-28.1"/>
</a>
</g>
</g>
</g>
</svg>
