<?xml version="1.0" encoding="UTF-8" standalone="no"?>
<!DOCTYPE svg PUBLIC "-//W3C//DTD SVG 1.1//EN"
 "http://www.w3.org/Graphics/SVG/1.1/DTD/svg11.dtd">
<!-- Generated by graphviz version 13.1.0 (20250701.0955)
 -->
<!-- Title: RTOS::TickCounter::getRemainingTicks Pages: 1 -->
<svg width="796pt" height="66pt"
 viewBox="0.00 0.00 796.00 66.00" xmlns="http://www.w3.org/2000/svg" xmlns:xlink="http://www.w3.org/1999/xlink">
<g id="graph0" class="graph" transform="scale(1 1) rotate(0) translate(4 62)">
<title>RTOS::TickCounter::getRemainingTicks</title>
<!-- Node1 -->
<g id="Node000001" class="node">
<title>Node1</title>
<g id="a_Node000001"><a xlink:title="Get remaining ticks before timeout.">
<polygon fill="#999999" stroke="#666666" points="787.75,-39 595.5,-39 595.5,-19 787.75,-19 787.75,-39"/>
<text xml:space="preserve" text-anchor="middle" x="691.62" y="-25.5" font-family="Helvetica,sans-Serif" font-size="10.00">RTOS::TickCounter::getRemainingTicks</text>
</a>
</g>
</g>
<!-- Node2 -->
<g id="Node000002" class="node">
<title>Node2</title>
<g id="a_Node000002"><a xlink:href="../../dc/d33/class_r_t_o_s_1_1_timeout.html#a7c9970080cf34f6199d970b3bd64447f" target="_top" xlink:title="Get remaining time in ticks.">
<polygon fill="white" stroke="#666666" points="559.5,-39 409.25,-39 409.25,-19 559.5,-19 559.5,-39"/>
<text xml:space="preserve" text-anchor="middle" x="484.38" y="-25.5" font-family="Helvetica,sans-Serif" font-size="10.00">RTOS::Timeout::getRemaining</text>
</a>
</g>
</g>
<!-- Node1&#45;&gt;Node2 -->
<g id="edge1_Node000001_Node000002" class="edge">
<title>Node1&#45;&gt;Node2</title>
<g id="a_edge1_Node000001_Node000002"><a xlink:title=" ">
<path fill="none" stroke="#63b8ff" d="M583.82,-29C575.77,-29 567.75,-29 559.97,-29"/>
<polygon fill="#63b8ff" stroke="#63b8ff" points="583.7,-32.5 593.7,-29 583.7,-25.5 583.7,-32.5"/>
</a>
</g>
</g>
<!-- Node3 -->
<g id="Node000003" class="node">
<title>Node3</title>
<g id="a_Node000003"><a xlink:href="../../dc/d33/class_r_t_o_s_1_1_timeout.html#aa0d343779f312d14ba3af6c2c8c11a59" target="_top" xlink:title="Get remaining time in milliseconds.">
<polygon fill="white" stroke="#666666" points="373.25,-58 209.5,-58 209.5,-38 373.25,-38 373.25,-58"/>
<text xml:space="preserve" text-anchor="middle" x="291.38" y="-44.5" font-family="Helvetica,sans-Serif" font-size="10.00">RTOS::Timeout::getRemainingMs</text>
</a>
</g>
</g>
<!-- Node2&#45;&gt;Node3 -->
<g id="edge2_Node000002_Node000003" class="edge">
<title>Node2&#45;&gt;Node3</title>
<g id="a_edge2_Node000002_Node000003"><a xlink:title=" ">
<path fill="none" stroke="#63b8ff" d="M397.7,-37.52C389.66,-38.32 381.52,-39.13 373.52,-39.93"/>
<polygon fill="#63b8ff" stroke="#63b8ff" points="397.87,-41.02 407.48,-36.55 397.18,-34.06 397.87,-41.02"/>
</a>
</g>
</g>
<!-- Node4 -->
<g id="Node000004" class="node">
<title>Node4</title>
<g id="a_Node000004"><a xlink:href="../../dc/d33/class_r_t_o_s_1_1_timeout.html#a5f6d717f1c112c27c17e6cdac1770c2a" target="_top" xlink:title="Check if timeout will expire within specified ticks.">
<polygon fill="white" stroke="#666666" points="371.38,-20 211.38,-20 211.38,0 371.38,0 371.38,-20"/>
<text xml:space="preserve" text-anchor="middle" x="291.38" y="-6.5" font-family="Helvetica,sans-Serif" font-size="10.00">RTOS::Timeout::willExpireWithin</text>
</a>
</g>
</g>
<!-- Node2&#45;&gt;Node4 -->
<g id="edge3_Node000002_Node000004" class="edge">
<title>Node2&#45;&gt;Node4</title>
<g id="a_edge3_Node000002_Node000004"><a xlink:title=" ">
<path fill="none" stroke="#63b8ff" d="M397.67,-20.47C389,-19.61 380.22,-18.74 371.62,-17.88"/>
<polygon fill="#63b8ff" stroke="#63b8ff" points="397.18,-23.94 407.48,-21.45 397.87,-16.98 397.18,-23.94"/>
</a>
</g>
</g>
<!-- Node5 -->
<g id="Node000005" class="node">
<title>Node5</title>
<g id="a_Node000005"><a xlink:href="../../dc/d33/class_r_t_o_s_1_1_timeout.html#a9e227af5491b90346a72de5bef9a159d" target="_top" xlink:title="Check if timeout will expire within specified milliseconds.">
<polygon fill="white" stroke="#666666" points="173.5,-20 0,-20 0,0 173.5,0 173.5,-20"/>
<text xml:space="preserve" text-anchor="middle" x="86.75" y="-6.5" font-family="Helvetica,sans-Serif" font-size="10.00">RTOS::Timeout::willExpireWithinMs</text>
</a>
</g>
</g>
<!-- Node4&#45;&gt;Node5 -->
<g id="edge4_Node000004_Node000005" class="edge">
<title>Node4&#45;&gt;Node5</title>
<g id="a_edge4_Node000004_Node000005"><a xlink:title=" ">
<path fill="none" stroke="#63b8ff" d="M199.9,-10C191.27,-10 182.53,-10 173.94,-10"/>
<polygon fill="#63b8ff" stroke="#63b8ff" points="199.65,-13.5 209.65,-10 199.65,-6.5 199.65,-13.5"/>
</a>
</g>
</g>
</g>
</svg>
