<?xml version="1.0" encoding="UTF-8" standalone="no"?>
<!DOCTYPE svg PUBLIC "-//W3C//DTD SVG 1.1//EN"
 "http://www.w3.org/Graphics/SVG/1.1/DTD/svg11.dtd">
<!-- Generated by graphviz version 13.1.0 (20250701.0955)
 -->
<!-- Title: RTOS::TickCounter::getElapsedMsSince Pages: 1 -->
<svg width="443pt" height="66pt"
 viewBox="0.00 0.00 443.00 66.00" xmlns="http://www.w3.org/2000/svg" xmlns:xlink="http://www.w3.org/1999/xlink">
<g id="graph0" class="graph" transform="scale(1 1) rotate(0) translate(4 62)">
<title>RTOS::TickCounter::getElapsedMsSince</title>
<!-- Node1 -->
<g id="Node000001" class="node">
<title>Node1</title>
<g id="a_Node000001"><a xlink:title="Get elapsed milliseconds since a given tick count.">
<polygon fill="#999999" stroke="#666666" points="434.75,-39 239.5,-39 239.5,-19 434.75,-19 434.75,-39"/>
<text xml:space="preserve" text-anchor="middle" x="337.12" y="-25.5" font-family="Helvetica,sans-Serif" font-size="10.00">RTOS::TickCounter::getElapsedMsSince</text>
</a>
</g>
</g>
<!-- Node2 -->
<g id="Node000002" class="node">
<title>Node2</title>
<g id="a_Node000002"><a xlink:href="../../da/d2c/class_r_t_o_s_1_1_tick_counter.html#a990a0d5e6a63f188b60a7d4d2850ff75" target="_top" xlink:title="Get remaining time in milliseconds before timeout.">
<polygon fill="white" stroke="#666666" points="203.5,-58 0,-58 0,-38 203.5,-38 203.5,-58"/>
<text xml:space="preserve" text-anchor="middle" x="101.75" y="-44.5" font-family="Helvetica,sans-Serif" font-size="10.00">RTOS::TickCounter::getRemainingTimeMs</text>
</a>
</g>
</g>
<!-- Node1&#45;&gt;Node2 -->
<g id="edge1_Node000001_Node000002" class="edge">
<title>Node1&#45;&gt;Node2</title>
<g id="a_edge1_Node000001_Node000002"><a xlink:title=" ">
<path fill="none" stroke="#63b8ff" d="M227.92,-37.81C219.92,-38.46 211.87,-39.12 203.91,-39.76"/>
<polygon fill="#63b8ff" stroke="#63b8ff" points="227.99,-41.32 237.67,-37.02 227.42,-34.34 227.99,-41.32"/>
</a>
</g>
</g>
<!-- Node3 -->
<g id="Node000003" class="node">
<title>Node3</title>
<g id="a_Node000003"><a xlink:href="../../da/d2c/class_r_t_o_s_1_1_tick_counter.html#ae65b19457bd9b4fe8ecca581ad42adf6" target="_top" xlink:title="Check if a timeout (in milliseconds) has occurred since a given tick count.">
<polygon fill="white" stroke="#666666" points="185.12,-20 18.38,-20 18.38,0 185.12,0 185.12,-20"/>
<text xml:space="preserve" text-anchor="middle" x="101.75" y="-6.5" font-family="Helvetica,sans-Serif" font-size="10.00">RTOS::TickCounter::hasTimedOut</text>
</a>
</g>
</g>
<!-- Node1&#45;&gt;Node3 -->
<g id="edge2_Node000001_Node000003" class="edge">
<title>Node1&#45;&gt;Node3</title>
<g id="a_edge2_Node000001_Node000003"><a xlink:title=" ">
<path fill="none" stroke="#63b8ff" d="M227.78,-20.18C213.5,-19.02 199.05,-17.84 185.29,-16.72"/>
<polygon fill="#63b8ff" stroke="#63b8ff" points="227.42,-23.66 237.67,-20.98 227.99,-16.68 227.42,-23.66"/>
</a>
</g>
</g>
</g>
</svg>
