<?xml version="1.0" encoding="UTF-8" standalone="no"?>
<!DOCTYPE svg PUBLIC "-//W3C//DTD SVG 1.1//EN"
 "http://www.w3.org/Graphics/SVG/1.1/DTD/svg11.dtd">
<!-- Generated by graphviz version 13.1.0 (20250701.0955)
 -->
<!-- Title: RTOS::TickCounter::msToTicks Pages: 1 -->
<svg width="610pt" height="388pt"
 viewBox="0.00 0.00 610.00 388.00" xmlns="http://www.w3.org/2000/svg" xmlns:xlink="http://www.w3.org/1999/xlink">
<g id="graph0" class="graph" transform="scale(1 1) rotate(0) translate(4 384)">
<title>RTOS::TickCounter::msToTicks</title>
<!-- Node1 -->
<g id="Node000001" class="node">
<title>Node1</title>
<g id="a_Node000001"><a xlink:title="Convert milliseconds to ticks.">
<polygon fill="#999999" stroke="#666666" points="602.25,-200 446,-200 446,-180 602.25,-180 602.25,-200"/>
<text xml:space="preserve" text-anchor="middle" x="524.12" y="-186.5" font-family="Helvetica,sans-Serif" font-size="10.00">RTOS::TickCounter::msToTicks</text>
</a>
</g>
</g>
<!-- Node2 -->
<g id="Node000002" class="node">
<title>Node2</title>
<g id="a_Node000002"><a xlink:href="../../d4/d93/class_r_t_o_s_1_1_kernel.html#ae3ea57199fa9aa21eb52b7af62f7e121" target="_top" xlink:title="Delays current task by milliseconds.">
<polygon fill="white" stroke="#666666" points="380,-380 260.5,-380 260.5,-360 380,-360 380,-380"/>
<text xml:space="preserve" text-anchor="middle" x="320.25" y="-366.5" font-family="Helvetica,sans-Serif" font-size="10.00">RTOS::Kernel::delayMs</text>
</a>
</g>
</g>
<!-- Node1&#45;&gt;Node2 -->
<g id="edge1_Node000001_Node000002" class="edge">
<title>Node1&#45;&gt;Node2</title>
<g id="a_edge1_Node000001_Node000002"><a xlink:title=" ">
<path fill="none" stroke="#63b8ff" d="M514.7,-210.67C499.38,-245.51 463.49,-315.6 410,-351 401.06,-356.91 390.61,-361.03 380.08,-363.88"/>
<polygon fill="#63b8ff" stroke="#63b8ff" points="517.82,-212.27 518.51,-201.7 511.38,-209.53 517.82,-212.27"/>
</a>
</g>
</g>
<!-- Node4 -->
<g id="Node000004" class="node">
<title>Node4</title>
<g id="a_Node000004"><a xlink:href="../../dc/d33/class_r_t_o_s_1_1_timeout.html#ad964cb7ef28b873abf941e8ff655bf3b" target="_top" xlink:title="Extend timeout by specified milliseconds.">
<polygon fill="white" stroke="#666666" points="386.75,-342 253.75,-342 253.75,-322 386.75,-322 386.75,-342"/>
<text xml:space="preserve" text-anchor="middle" x="320.25" y="-328.5" font-family="Helvetica,sans-Serif" font-size="10.00">RTOS::Timeout::extendMs</text>
</a>
</g>
</g>
<!-- Node1&#45;&gt;Node4 -->
<g id="edge3_Node000001_Node000004" class="edge">
<title>Node1&#45;&gt;Node4</title>
<g id="a_edge3_Node000001_Node000004"><a xlink:title=" ">
<path fill="none" stroke="#63b8ff" d="M510.85,-209.64C492.48,-237.3 455.12,-287.22 410,-313 402.89,-317.06 395,-320.26 386.95,-322.78"/>
<polygon fill="#63b8ff" stroke="#63b8ff" points="513.63,-211.8 516.12,-201.5 507.75,-208 513.63,-211.8"/>
</a>
</g>
</g>
<!-- Node5 -->
<g id="Node000005" class="node">
<title>Node5</title>
<g id="a_Node000005"><a xlink:href="../../dc/d33/class_r_t_o_s_1_1_timeout.html#a659f3331f019dc970488edd367ab17ce" target="_top" xlink:title="Create Timeout from milliseconds.">
<polygon fill="white" stroke="#666666" points="402.12,-304 238.38,-304 238.38,-284 402.12,-284 402.12,-304"/>
<text xml:space="preserve" text-anchor="middle" x="320.25" y="-290.5" font-family="Helvetica,sans-Serif" font-size="10.00">RTOS::Timeout::fromMilliseconds</text>
</a>
</g>
</g>
<!-- Node1&#45;&gt;Node5 -->
<g id="edge4_Node000001_Node000005" class="edge">
<title>Node1&#45;&gt;Node5</title>
<g id="a_edge4_Node000001_Node000005"><a xlink:title=" ">
<path fill="none" stroke="#63b8ff" d="M504.25,-208.34C483.06,-227.87 446.8,-258.23 410,-275 402.54,-278.4 394.46,-281.2 386.3,-283.51"/>
<polygon fill="#63b8ff" stroke="#63b8ff" points="506.63,-210.9 511.51,-201.5 501.83,-205.81 506.63,-210.9"/>
</a>
</g>
</g>
<!-- Node6 -->
<g id="Node000006" class="node">
<title>Node6</title>
<g id="a_Node000006"><a xlink:href="../../da/d2c/class_r_t_o_s_1_1_tick_counter.html#a5b408b93923afb8debb092cce9b038c0" target="_top" xlink:title="Convert seconds to ticks.">
<polygon fill="white" stroke="#666666" points="410,-266 230.5,-266 230.5,-246 410,-246 410,-266"/>
<text xml:space="preserve" text-anchor="middle" x="320.25" y="-252.5" font-family="Helvetica,sans-Serif" font-size="10.00">RTOS::TickCounter::secondsToTicks</text>
</a>
</g>
</g>
<!-- Node1&#45;&gt;Node6 -->
<g id="edge5_Node000001_Node000006" class="edge">
<title>Node1&#45;&gt;Node6</title>
<g id="a_edge5_Node000001_Node000006"><a xlink:title=" ">
<path fill="none" stroke="#63b8ff" d="M491.21,-205.1C468.86,-215.22 438.09,-228.24 410,-237 399.62,-240.24 388.39,-243.11 377.52,-245.58"/>
<polygon fill="#63b8ff" stroke="#63b8ff" points="492.45,-208.38 500.08,-201.03 489.53,-202.02 492.45,-208.38"/>
</a>
</g>
</g>
<!-- Node9 -->
<g id="Node000009" class="node">
<title>Node9</title>
<g id="a_Node000009"><a xlink:href="../../dc/d33/class_r_t_o_s_1_1_timeout.html#a52c0f44c1a6b6f4009f6ed93153fd18f" target="_top" xlink:title="Set timeout duration in milliseconds.">
<polygon fill="white" stroke="#666666" points="399.12,-228 241.38,-228 241.38,-208 399.12,-208 399.12,-228"/>
<text xml:space="preserve" text-anchor="middle" x="320.25" y="-214.5" font-family="Helvetica,sans-Serif" font-size="10.00">RTOS::Timeout::setMilliseconds</text>
</a>
</g>
</g>
<!-- Node1&#45;&gt;Node9 -->
<g id="edge8_Node000001_Node000009" class="edge">
<title>Node1&#45;&gt;Node9</title>
<g id="a_edge8_Node000001_Node000009"><a xlink:title=" ">
<path fill="none" stroke="#63b8ff" d="M436.27,-202.05C423.19,-203.86 409.78,-205.72 396.95,-207.5"/>
<polygon fill="#63b8ff" stroke="#63b8ff" points="436.74,-205.51 446.17,-200.67 435.78,-198.58 436.74,-205.51"/>
</a>
</g>
</g>
<!-- Node10 -->
<g id="Node000010" class="node">
<title>Node10</title>
<g id="a_Node000010"><a xlink:href="../../d0/d51/class_r_t_o_s_1_1_tick_service.html#a5265b025083811cd305cd42c5b9500ff" target="_top" xlink:title="Start the tick service with a specified interval.">
<polygon fill="white" stroke="#666666" points="383.38,-172 257.12,-172 257.12,-152 383.38,-152 383.38,-172"/>
<text xml:space="preserve" text-anchor="middle" x="320.25" y="-158.5" font-family="Helvetica,sans-Serif" font-size="10.00">RTOS::TickService::start</text>
</a>
</g>
</g>
<!-- Node1&#45;&gt;Node10 -->
<g id="edge9_Node000001_Node000010" class="edge">
<title>Node1&#45;&gt;Node10</title>
<g id="a_edge9_Node000001_Node000010"><a xlink:title=" ">
<path fill="none" stroke="#63b8ff" d="M436.44,-177.98C418.73,-175.52 400.42,-172.98 383.76,-170.67"/>
<polygon fill="#63b8ff" stroke="#63b8ff" points="435.78,-181.42 446.17,-179.33 436.74,-174.49 435.78,-181.42"/>
</a>
</g>
</g>
<!-- Node11 -->
<g id="Node000011" class="node">
<title>Node11</title>
<g id="a_Node000011"><a xlink:href="../../db/ddd/class_r_t_o_s_1_1_event_group.html#a9a1ad03ef8da6c858f612c0455138b06" target="_top" xlink:title="Synchronizes event bits with other tasks using a timeout in milliseconds.">
<polygon fill="white" stroke="#666666" points="392.75,-134 247.75,-134 247.75,-114 392.75,-114 392.75,-134"/>
<text xml:space="preserve" text-anchor="middle" x="320.25" y="-120.5" font-family="Helvetica,sans-Serif" font-size="10.00">RTOS::EventGroup::syncBits</text>
</a>
</g>
</g>
<!-- Node1&#45;&gt;Node11 -->
<g id="edge11_Node000001_Node000011" class="edge">
<title>Node1&#45;&gt;Node11</title>
<g id="a_edge11_Node000001_Node000011"><a xlink:title=" ">
<path fill="none" stroke="#63b8ff" d="M491.21,-174.9C468.86,-164.78 438.09,-151.76 410,-143 399.62,-139.76 388.39,-136.89 377.52,-134.42"/>
<polygon fill="#63b8ff" stroke="#63b8ff" points="489.53,-177.98 500.08,-178.97 492.45,-171.62 489.53,-177.98"/>
</a>
</g>
</g>
<!-- Node12 -->
<g id="Node000012" class="node">
<title>Node12</title>
<g id="a_Node000012"><a xlink:href="../../d3/de9/class_r_t_o_s_1_1_semaphore.html#a4a7818ec0650533bfcb8006d2d0a6a0e" target="_top" xlink:title="Takes the semaphore with a timeout in milliseconds.">
<polygon fill="white" stroke="#666666" points="388.62,-96 251.88,-96 251.88,-76 388.62,-76 388.62,-96"/>
<text xml:space="preserve" text-anchor="middle" x="320.25" y="-82.5" font-family="Helvetica,sans-Serif" font-size="10.00">RTOS::Semaphore::takeMs</text>
</a>
</g>
</g>
<!-- Node1&#45;&gt;Node12 -->
<g id="edge12_Node000001_Node000012" class="edge">
<title>Node1&#45;&gt;Node12</title>
<g id="a_edge12_Node000001_Node000012"><a xlink:title=" ">
<path fill="none" stroke="#63b8ff" d="M504.25,-171.66C483.06,-152.13 446.8,-121.77 410,-105 402.54,-101.6 394.46,-98.8 386.3,-96.49"/>
<polygon fill="#63b8ff" stroke="#63b8ff" points="501.83,-174.19 511.51,-178.5 506.63,-169.1 501.83,-174.19"/>
</a>
</g>
</g>
<!-- Node14 -->
<g id="Node000014" class="node">
<title>Node14</title>
<g id="a_Node000014"><a xlink:href="../../db/ddd/class_r_t_o_s_1_1_event_group.html#a2560761cafbf94cdbabc65dbca709720" target="_top" xlink:title="Waits for specified bits with a timeout in milliseconds.">
<polygon fill="white" stroke="#666666" points="405.12,-58 235.38,-58 235.38,-38 405.12,-38 405.12,-58"/>
<text xml:space="preserve" text-anchor="middle" x="320.25" y="-44.5" font-family="Helvetica,sans-Serif" font-size="10.00">RTOS::EventGroup::waitForBitsMs</text>
</a>
</g>
</g>
<!-- Node1&#45;&gt;Node14 -->
<g id="edge14_Node000001_Node000014" class="edge">
<title>Node1&#45;&gt;Node14</title>
<g id="a_edge14_Node000001_Node000014"><a xlink:title=" ">
<path fill="none" stroke="#63b8ff" d="M510.85,-170.36C492.48,-142.7 455.12,-92.78 410,-67 403.98,-63.56 397.41,-60.74 390.65,-58.43"/>
<polygon fill="#63b8ff" stroke="#63b8ff" points="507.75,-172 516.12,-178.5 513.63,-168.2 507.75,-172"/>
</a>
</g>
</g>
<!-- Node16 -->
<g id="Node000016" class="node">
<title>Node16</title>
<g id="a_Node000016"><a xlink:href="../../dc/d33/class_r_t_o_s_1_1_timeout.html#a9e227af5491b90346a72de5bef9a159d" target="_top" xlink:title="Check if timeout will expire within specified milliseconds.">
<polygon fill="white" stroke="#666666" points="407,-20 233.5,-20 233.5,0 407,0 407,-20"/>
<text xml:space="preserve" text-anchor="middle" x="320.25" y="-6.5" font-family="Helvetica,sans-Serif" font-size="10.00">RTOS::Timeout::willExpireWithinMs</text>
</a>
</g>
</g>
<!-- Node1&#45;&gt;Node16 -->
<g id="edge16_Node000001_Node000016" class="edge">
<title>Node1&#45;&gt;Node16</title>
<g id="a_edge16_Node000001_Node000016"><a xlink:title=" ">
<path fill="none" stroke="#63b8ff" d="M514.7,-169.33C499.38,-134.49 463.49,-64.4 410,-29 404.74,-25.52 398.96,-22.67 392.95,-20.32"/>
<polygon fill="#63b8ff" stroke="#63b8ff" points="511.38,-170.47 518.51,-178.3 517.82,-167.73 511.38,-170.47"/>
</a>
</g>
</g>
<!-- Node3 -->
<g id="Node000003" class="node">
<title>Node3</title>
<g id="a_Node000003"><a xlink:href="../../d4/d93/class_r_t_o_s_1_1_kernel.html#ad32b44fbe11fac096529316e35f6f1b5" target="_top" xlink:title="Delays current task by seconds.">
<polygon fill="white" stroke="#666666" points="169.38,-380 25.12,-380 25.12,-360 169.38,-360 169.38,-380"/>
<text xml:space="preserve" text-anchor="middle" x="97.25" y="-366.5" font-family="Helvetica,sans-Serif" font-size="10.00">RTOS::Kernel::delaySeconds</text>
</a>
</g>
</g>
<!-- Node2&#45;&gt;Node3 -->
<g id="edge2_Node000002_Node000003" class="edge">
<title>Node2&#45;&gt;Node3</title>
<g id="a_edge2_Node000002_Node000003"><a xlink:title=" ">
<path fill="none" stroke="#63b8ff" d="M248.7,-370C223.51,-370 195.12,-370 169.85,-370"/>
<polygon fill="#63b8ff" stroke="#63b8ff" points="248.51,-373.5 258.51,-370 248.51,-366.5 248.51,-373.5"/>
</a>
</g>
</g>
<!-- Node7 -->
<g id="Node000007" class="node">
<title>Node7</title>
<g id="a_Node000007"><a xlink:href="../../dc/d33/class_r_t_o_s_1_1_timeout.html#a5c39e1b647d82102ceaf72d3c850bfe5" target="_top" xlink:title="Create Timeout from seconds.">
<polygon fill="white" stroke="#666666" points="171.25,-285 23.25,-285 23.25,-265 171.25,-265 171.25,-285"/>
<text xml:space="preserve" text-anchor="middle" x="97.25" y="-271.5" font-family="Helvetica,sans-Serif" font-size="10.00">RTOS::Timeout::fromSeconds</text>
</a>
</g>
</g>
<!-- Node6&#45;&gt;Node7 -->
<g id="edge6_Node000006_Node000007" class="edge">
<title>Node6&#45;&gt;Node7</title>
<g id="a_edge6_Node000006_Node000007"><a xlink:title=" ">
<path fill="none" stroke="#63b8ff" d="M219.24,-264.6C203.14,-265.98 186.74,-267.39 171.43,-268.71"/>
<polygon fill="#63b8ff" stroke="#63b8ff" points="219.14,-268.12 228.81,-263.78 218.55,-261.15 219.14,-268.12"/>
</a>
</g>
</g>
<!-- Node8 -->
<g id="Node000008" class="node">
<title>Node8</title>
<g id="a_Node000008"><a xlink:href="../../dc/d33/class_r_t_o_s_1_1_timeout.html#a16bd88741697e1982bf87543480f1e4b" target="_top" xlink:title="Set timeout duration in seconds.">
<polygon fill="white" stroke="#666666" points="168.25,-247 26.25,-247 26.25,-227 168.25,-227 168.25,-247"/>
<text xml:space="preserve" text-anchor="middle" x="97.25" y="-233.5" font-family="Helvetica,sans-Serif" font-size="10.00">RTOS::Timeout::setSeconds</text>
</a>
</g>
</g>
<!-- Node6&#45;&gt;Node8 -->
<g id="edge7_Node000006_Node000008" class="edge">
<title>Node6&#45;&gt;Node8</title>
<g id="a_edge7_Node000006_Node000008"><a xlink:title=" ">
<path fill="none" stroke="#63b8ff" d="M219.18,-247.4C202.13,-245.93 184.74,-244.44 168.67,-243.05"/>
<polygon fill="#63b8ff" stroke="#63b8ff" points="218.55,-250.85 228.81,-248.22 219.14,-243.88 218.55,-250.85"/>
</a>
</g>
</g>
<!-- Node10&#45;&gt;Node10 -->
<g id="edge10_Node000010_Node000010" class="edge">
<title>Node10&#45;&gt;Node10</title>
<g id="a_edge10_Node000010_Node000010"><a xlink:title=" ">
<path fill="none" stroke="#63b8ff" d="M356.66,-183.11C352.32,-187.14 340.18,-190 320.25,-190 284.81,-190 274.01,-180.98 287.86,-172.34"/>
<polygon fill="#63b8ff" stroke="#63b8ff" points="359.95,-181.9 353.17,-173.76 353.39,-184.35 359.95,-181.9"/>
</a>
</g>
</g>
<!-- Node13 -->
<g id="Node000013" class="node">
<title>Node13</title>
<g id="a_Node000013"><a xlink:href="../../d3/de9/class_r_t_o_s_1_1_semaphore.html#a5c38539632b06a44afe1cdfc4fe638a9" target="_top" xlink:title="Takes the semaphore with a timeout in seconds.">
<polygon fill="white" stroke="#666666" points="178,-96 16.5,-96 16.5,-76 178,-76 178,-96"/>
<text xml:space="preserve" text-anchor="middle" x="97.25" y="-82.5" font-family="Helvetica,sans-Serif" font-size="10.00">RTOS::Semaphore::takeSeconds</text>
</a>
</g>
</g>
<!-- Node12&#45;&gt;Node13 -->
<g id="edge13_Node000012_Node000013" class="edge">
<title>Node12&#45;&gt;Node13</title>
<g id="a_edge13_Node000012_Node000013"><a xlink:title=" ">
<path fill="none" stroke="#63b8ff" d="M240.14,-86C220.06,-86 198.48,-86 178.35,-86"/>
<polygon fill="#63b8ff" stroke="#63b8ff" points="239.93,-89.5 249.93,-86 239.93,-82.5 239.93,-89.5"/>
</a>
</g>
</g>
<!-- Node15 -->
<g id="Node000015" class="node">
<title>Node15</title>
<g id="a_Node000015"><a xlink:href="../../db/ddd/class_r_t_o_s_1_1_event_group.html#a8c3eb82ef1804ee100cf7b7b66950cd7" target="_top" xlink:title="Waits for specified bits with a timeout in seconds.">
<polygon fill="white" stroke="#666666" points="194.5,-58 0,-58 0,-38 194.5,-38 194.5,-58"/>
<text xml:space="preserve" text-anchor="middle" x="97.25" y="-44.5" font-family="Helvetica,sans-Serif" font-size="10.00">RTOS::EventGroup::waitForBitsSeconds</text>
</a>
</g>
</g>
<!-- Node14&#45;&gt;Node15 -->
<g id="edge15_Node000014_Node000015" class="edge">
<title>Node14&#45;&gt;Node15</title>
<g id="a_edge15_Node000014_Node000015"><a xlink:title=" ">
<path fill="none" stroke="#63b8ff" d="M223.85,-48C214.21,-48 204.42,-48 194.77,-48"/>
<polygon fill="#63b8ff" stroke="#63b8ff" points="223.56,-51.5 233.56,-48 223.56,-44.5 223.56,-51.5"/>
</a>
</g>
</g>
</g>
</svg>
