<?xml version="1.0" encoding="UTF-8" standalone="no"?>
<!DOCTYPE svg PUBLIC "-//W3C//DTD SVG 1.1//EN"
 "http://www.w3.org/Graphics/SVG/1.1/DTD/svg11.dtd">
<!-- Generated by graphviz version 12.2.1 (20241206.2353)
 -->
<!-- Title: Lib::HAL::GPIO::EXTIBase::DeviceManager::removeDevice Pages: 1 -->
<svg width="517pt" height="90pt"
 viewBox="0.00 0.00 517.25 90.00" xmlns="http://www.w3.org/2000/svg" xmlns:xlink="http://www.w3.org/1999/xlink">
<g id="graph0" class="graph" transform="scale(1 1) rotate(0) translate(4 86)">
<title>Lib::HAL::GPIO::EXTIBase::DeviceManager::removeDevice</title>
<!-- Node1 -->
<g id="Node000001" class="node">
<title>Node1</title>
<g id="a_Node000001"><a xlink:title=" ">
<polygon fill="#999999" stroke="#666666" points="159.25,-57 0,-57 0,-25 159.25,-25 159.25,-57"/>
<text text-anchor="start" x="8" y="-43.5" font-family="Helvetica,sans-Serif" font-size="10.00">Lib::HAL::GPIO::EXTIBase</text>
<text text-anchor="middle" x="79.62" y="-31.5" font-family="Helvetica,sans-Serif" font-size="10.00">::DeviceManager::removeDevice</text>
</a>
</g>
</g>
<!-- Node2 -->
<g id="Node000002" class="node">
<title>Node2</title>
<g id="a_Node000002"><a xlink:href="../../d3/d5e/a00275.html#a07c53b017cd0a4a384b069d879708c2c" target="_top" xlink:title=" ">
<polygon fill="white" stroke="#666666" points="338.75,-82 202.75,-82 202.75,-50 338.75,-50 338.75,-82"/>
<text text-anchor="start" x="210.75" y="-68.5" font-family="Helvetica,sans-Serif" font-size="10.00">Lib::HAL::GPIO::EXTIBase</text>
<text text-anchor="middle" x="270.75" y="-56.5" font-family="Helvetica,sans-Serif" font-size="10.00">::EXTIBase</text>
</a>
</g>
</g>
<!-- Node1&#45;&gt;Node2 -->
<g id="edge1_Node000001_Node000002" class="edge">
<title>Node1&#45;&gt;Node2</title>
<g id="a_edge1_Node000001_Node000002"><a xlink:title=" ">
<path fill="none" stroke="#63b8ff" d="M159.74,-51.46C170.14,-52.83 180.81,-54.24 191.2,-55.62"/>
<polygon fill="#63b8ff" stroke="#63b8ff" points="190.48,-59.05 200.86,-56.89 191.4,-52.11 190.48,-59.05"/>
</a>
</g>
</g>
<!-- Node4 -->
<g id="Node000004" class="node">
<title>Node4</title>
<g id="a_Node000004"><a xlink:href="../../d6/d82/a00243.html#a0d43f49e3ffe637bfc1f1647584af926" target="_top" xlink:title="Removes a device from the manager.">
<polygon fill="white" stroke="#666666" points="346.25,-32 195.25,-32 195.25,0 346.25,0 346.25,-32"/>
<text text-anchor="start" x="203.25" y="-18.5" font-family="Helvetica,sans-Serif" font-size="10.00">Lib::HAL::DeviceManagerBase</text>
<text text-anchor="middle" x="270.75" y="-6.5" font-family="Helvetica,sans-Serif" font-size="10.00">::removeDevice</text>
</a>
</g>
</g>
<!-- Node1&#45;&gt;Node4 -->
<g id="edge3_Node000001_Node000004" class="edge">
<title>Node1&#45;&gt;Node4</title>
<g id="a_edge3_Node000001_Node000004"><a xlink:title=" ">
<path fill="none" stroke="#63b8ff" d="M159.74,-30.54C167.65,-29.5 175.71,-28.43 183.69,-27.38"/>
<polygon fill="#63b8ff" stroke="#63b8ff" points="183.93,-30.87 193.39,-26.09 183.02,-23.93 183.93,-30.87"/>
</a>
</g>
</g>
<!-- Node3 -->
<g id="Node000003" class="node">
<title>Node3</title>
<g id="a_Node000003"><a xlink:href="../../d1/dd4/a00267.html#a70e22816d777bad901562f2ce744c759" target="_top" xlink:title=" ">
<polygon fill="white" stroke="#666666" points="509.25,-82 382.25,-82 382.25,-50 509.25,-50 509.25,-82"/>
<text text-anchor="start" x="390.25" y="-68.5" font-family="Helvetica,sans-Serif" font-size="10.00">Lib::HAL::GPIO::PinInput</text>
<text text-anchor="middle" x="445.75" y="-56.5" font-family="Helvetica,sans-Serif" font-size="10.00">::PinInput</text>
</a>
</g>
</g>
<!-- Node2&#45;&gt;Node3 -->
<g id="edge2_Node000002_Node000003" class="edge">
<title>Node2&#45;&gt;Node3</title>
<g id="a_edge2_Node000002_Node000003"><a xlink:title=" ">
<path fill="none" stroke="#63b8ff" d="M339.13,-66C349.44,-66 360.14,-66 370.58,-66"/>
<polygon fill="#63b8ff" stroke="#63b8ff" points="370.28,-69.5 380.28,-66 370.28,-62.5 370.28,-69.5"/>
</a>
</g>
</g>
</g>
</svg>
