<?xml version="1.0" encoding="UTF-8" standalone="no"?>
<!DOCTYPE svg PUBLIC "-//W3C//DTD SVG 1.1//EN"
 "http://www.w3.org/Graphics/SVG/1.1/DTD/svg11.dtd">
<!-- Generated by graphviz version 13.1.0 (20250701.0955)
 -->
<!-- Title: Lib::BSP::XPT2046::Driver::Position Pages: 1 -->
<svg width="99pt" height="123pt"
 viewBox="0.00 0.00 99.00 123.00" xmlns="http://www.w3.org/2000/svg" xmlns:xlink="http://www.w3.org/1999/xlink">
<g id="graph0" class="graph" transform="scale(1 1) rotate(0) translate(4 118.5)">
<title>Lib::BSP::XPT2046::Driver::Position</title>
<!-- Node1 -->
<g id="Node000001" class="node">
<title>Node1</title>
<g id="a_Node000001"><a xlink:title="Touch position.">
<polygon fill="#999999" stroke="none" points="90.5,-29 0,-29 0,0 90.5,0 90.5,-29"/>
<text xml:space="preserve" text-anchor="start" x="4" y="-16.45" font-family="Arial" font-size="9.00">Lib::BSP::XPT2046::</text>
<text xml:space="preserve" text-anchor="start" x="14.12" y="-5.95" font-family="Arial" font-size="9.00">Driver::Position</text>
<polygon fill="none" stroke="#666666" points="0,0 0,-29 90.5,-29 90.5,0 0,0"/>
</a>
</g>
</g>
<!-- Node2 -->
<g id="Node000002" class="node">
<title>Node2</title>
<g id="a_Node000002"><a xlink:title=" ">
<polygon fill="white" stroke="none" points="63.12,-114.5 27.38,-114.5 27.38,-96 63.12,-96 63.12,-114.5"/>
<text xml:space="preserve" text-anchor="start" x="31.38" y="-101.95" font-family="Arial" font-size="9.00">int32_t</text>
<polygon fill="none" stroke="#bfbfbf" points="27.38,-96 27.38,-114.5 63.12,-114.5 63.12,-96 27.38,-96"/>
</a>
</g>
</g>
<!-- Node2&#45;&gt;Node1 -->
<g id="edge1_Node000001_Node000002" class="edge">
<title>Node2&#45;&gt;Node1</title>
<g id="a_edge1_Node000001_Node000002"><a xlink:title=" ">
<path fill="none" stroke="#63b8ff" d="M45.25,-96.06C45.25,-83.82 45.25,-60.21 45.25,-41.7"/>
<polygon fill="none" stroke="#63b8ff" points="45.25,-41.71 41.25,-35.71 45.25,-29.71 49.25,-35.71 45.25,-41.71"/>
</a>
</g>
<text xml:space="preserve" text-anchor="start" x="48.25" y="-66.45" font-family="Arial" font-size="9.00" fill="grey">+x</text>
<text xml:space="preserve" text-anchor="start" x="48.25" y="-51.95" font-family="Arial" font-size="9.00" fill="grey">+y</text>
</g>
</g>
</svg>
