<?xml version="1.0" encoding="UTF-8" standalone="no"?>
<!DOCTYPE svg PUBLIC "-//W3C//DTD SVG 1.1//EN"
 "http://www.w3.org/Graphics/SVG/1.1/DTD/svg11.dtd">
<!-- Generated by graphviz version 12.2.1 (20241206.2353)
 -->
<!-- Title: ServerBase.hpp Pages: 1 -->
<svg width="428pt" height="96pt"
 viewBox="0.00 0.00 428.00 96.00" xmlns="http://www.w3.org/2000/svg" xmlns:xlink="http://www.w3.org/1999/xlink">
<g id="graph0" class="graph" transform="scale(1 1) rotate(0) translate(4 92)">
<title>ServerBase.hpp</title>
<!-- Node1 -->
<g id="Node000001" class="node">
<title>Node1</title>
<g id="a_Node000001"><a xlink:title="This file contains the definition of the ServerBase class, which is a part of the Xbee API library.">
<polygon fill="#999999" stroke="#666666" points="274.25,-88 188.5,-88 188.5,-68 274.25,-68 274.25,-88"/>
<text text-anchor="middle" x="231.38" y="-74.5" font-family="Helvetica,sans-Serif" font-size="10.00">ServerBase.hpp</text>
</a>
</g>
</g>
<!-- Node2 -->
<g id="Node000002" class="node">
<title>Node2</title>
<g id="a_Node000002"><a xlink:title=" ">
<polygon fill="#e0e0e0" stroke="#999999" points="124.75,-32 0,-32 0,0 124.75,0 124.75,-32"/>
<text text-anchor="start" x="8" y="-18.5" font-family="Helvetica,sans-Serif" font-size="10.00">Lib/Xbee/API/Application</text>
<text text-anchor="middle" x="62.38" y="-6.5" font-family="Helvetica,sans-Serif" font-size="10.00">Base.hpp</text>
</a>
</g>
</g>
<!-- Node1&#45;&gt;Node2 -->
<g id="edge1_Node000001_Node000002" class="edge">
<title>Node1&#45;&gt;Node2</title>
<g id="a_edge1_Node000001_Node000002"><a xlink:title=" ">
<path fill="none" stroke="#63b8ff" d="M204.97,-67.62C181.4,-59.26 146.16,-46.75 116.61,-36.25"/>
<polygon fill="#63b8ff" stroke="#63b8ff" points="118.03,-33.04 107.43,-33 115.69,-39.64 118.03,-33.04"/>
</a>
</g>
</g>
<!-- Node3 -->
<g id="Node000003" class="node">
<title>Node3</title>
<g id="a_Node000003"><a xlink:title=" ">
<polygon fill="#e0e0e0" stroke="#999999" points="320.38,-26 142.38,-26 142.38,-6 320.38,-6 320.38,-26"/>
<text text-anchor="middle" x="231.38" y="-12.5" font-family="Helvetica,sans-Serif" font-size="10.00">Lib/Xbee/Core/LocalAtCommand.hpp</text>
</a>
</g>
</g>
<!-- Node1&#45;&gt;Node3 -->
<g id="edge2_Node000001_Node000003" class="edge">
<title>Node1&#45;&gt;Node3</title>
<g id="a_edge2_Node000001_Node000003"><a xlink:title=" ">
<path fill="none" stroke="#63b8ff" d="M231.38,-67.62C231.38,-59.56 231.38,-47.65 231.38,-37.41"/>
<polygon fill="#63b8ff" stroke="#63b8ff" points="234.88,-37.63 231.38,-27.63 227.88,-37.63 234.88,-37.63"/>
</a>
</g>
</g>
<!-- Node4 -->
<g id="Node000004" class="node">
<title>Node4</title>
<g id="a_Node000004"><a xlink:title=" ">
<polygon fill="#e0e0e0" stroke="#999999" points="420,-26 338.75,-26 338.75,-6 420,-6 420,-26"/>
<text text-anchor="middle" x="379.38" y="-12.5" font-family="Helvetica,sans-Serif" font-size="10.00">FreeRTOS.hpp</text>
</a>
</g>
</g>
<!-- Node1&#45;&gt;Node4 -->
<g id="edge3_Node000001_Node000004" class="edge">
<title>Node1&#45;&gt;Node4</title>
<g id="a_edge3_Node000001_Node000004"><a xlink:title=" ">
<path fill="none" stroke="#63b8ff" d="M254.5,-67.62C279.05,-57.67 318.07,-41.85 345.95,-30.55"/>
<polygon fill="#63b8ff" stroke="#63b8ff" points="347.06,-33.88 355.01,-26.88 344.43,-27.39 347.06,-33.88"/>
</a>
</g>
</g>
</g>
</svg>
