<?xml version="1.0" encoding="UTF-8" standalone="no"?>
<!DOCTYPE svg PUBLIC "-//W3C//DTD SVG 1.1//EN"
 "http://www.w3.org/Graphics/SVG/1.1/DTD/svg11.dtd">
<!-- Generated by graphviz version 13.1.0 (20250701.0955)
 -->
<!-- Title: ModelXbee::SpectrumAnalyzer Pages: 1 -->
<svg width="143pt" height="128pt"
 viewBox="0.00 0.00 143.00 128.00" xmlns="http://www.w3.org/2000/svg" xmlns:xlink="http://www.w3.org/1999/xlink">
<g id="graph0" class="graph" transform="scale(1 1) rotate(0) translate(4 124)">
<title>ModelXbee::SpectrumAnalyzer</title>
<!-- Node1 -->
<g id="Node000001" class="node">
<title>Node1</title>
<g id="a_Node000001"><a xlink:title="SpectrumAnalyzer class for XBee spectrum analysis.">
<polygon fill="#999999" stroke="none" points="134.75,-120 0,-120 0,0 134.75,0 134.75,-120"/>
<text xml:space="preserve" text-anchor="start" x="4" y="-107.45" font-family="Arial" font-size="9.00">ModelXbee::SpectrumAnalyzer</text>
<text xml:space="preserve" text-anchor="start" x="66.25" y="-92.95" font-family="Arial" font-size="9.00"> </text>
<text xml:space="preserve" text-anchor="start" x="14.62" y="-78.45" font-family="Arial" font-size="9.00">+</text>
<text xml:space="preserve" text-anchor="start" x="34.5" y="-78.45" font-family="Arial" font-size="9.00">open()</text>
<text xml:space="preserve" text-anchor="start" x="14.62" y="-63.95" font-family="Arial" font-size="9.00">+</text>
<text xml:space="preserve" text-anchor="start" x="34.5" y="-63.95" font-family="Arial" font-size="9.00">close()</text>
<text xml:space="preserve" text-anchor="start" x="14.62" y="-49.45" font-family="Arial" font-size="9.00">+</text>
<text xml:space="preserve" text-anchor="start" x="34.5" y="-49.45" font-family="Arial" font-size="9.00">getCurrentArray()</text>
<text xml:space="preserve" text-anchor="start" x="14.62" y="-34.95" font-family="Arial" font-size="9.00">+</text>
<text xml:space="preserve" text-anchor="start" x="34.5" y="-34.95" font-family="Arial" font-size="9.00">getAverageArray()</text>
<text xml:space="preserve" text-anchor="start" x="14.62" y="-20.45" font-family="Arial" font-size="9.00">+</text>
<text xml:space="preserve" text-anchor="start" x="34.5" y="-20.45" font-family="Arial" font-size="9.00">getMaxArray()</text>
<text xml:space="preserve" text-anchor="start" x="14.62" y="-5.95" font-family="Arial" font-size="9.00">+</text>
<text xml:space="preserve" text-anchor="start" x="34.5" y="-5.95" font-family="Arial" font-size="9.00">tick()</text>
<polygon fill="#666666" stroke="#666666" points="0,-103.5 0,-103.5 134.75,-103.5 134.75,-103.5 0,-103.5"/>
<polygon fill="#666666" stroke="#666666" points="0,-89 0,-89 134.75,-89 134.75,-89 0,-89"/>
<polygon fill="none" stroke="#666666" points="0,0 0,-120 134.75,-120 134.75,0 0,0"/>
</a>
</g>
</g>
</g>
</svg>
