<?xml version="1.0" encoding="UTF-8" standalone="no"?>
<!DOCTYPE svg PUBLIC "-//W3C//DTD SVG 1.1//EN"
 "http://www.w3.org/Graphics/SVG/1.1/DTD/svg11.dtd">
<!-- Generated by graphviz version 13.1.0 (20250701.0955)
 -->
<!-- Title: OTP.hpp Pages: 1 -->
<svg width="182pt" height="84pt"
 viewBox="0.00 0.00 182.00 84.00" xmlns="http://www.w3.org/2000/svg" xmlns:xlink="http://www.w3.org/1999/xlink">
<g id="graph0" class="graph" transform="scale(1 1) rotate(0) translate(4 80)">
<title>OTP.hpp</title>
<!-- Node1 -->
<g id="Node000001" class="node">
<title>Node1</title>
<g id="a_Node000001"><a xlink:title="OTP Flash Memory class.">
<polygon fill="#999999" stroke="#666666" points="106.38,-76 52.88,-76 52.88,-56 106.38,-56 106.38,-76"/>
<text xml:space="preserve" text-anchor="middle" x="79.62" y="-62.5" font-family="Helvetica,sans-Serif" font-size="10.00">OTP.hpp</text>
</a>
</g>
</g>
<!-- Node2 -->
<g id="Node000002" class="node">
<title>Node2</title>
<g id="a_Node000002"><a xlink:href="../../d4/d42/a02330.html" target="_top" xlink:title="System configuration management for OTP Flash memory.">
<polygon fill="white" stroke="#666666" points="63.25,-20 0,-20 0,0 63.25,0 63.25,-20"/>
<text xml:space="preserve" text-anchor="middle" x="31.62" y="-6.5" font-family="Helvetica,sans-Serif" font-size="10.00">Config.hpp</text>
</a>
</g>
</g>
<!-- Node1&#45;&gt;Node2 -->
<g id="edge1_Node000001_Node000002" class="edge">
<title>Node1&#45;&gt;Node2</title>
<g id="a_edge1_Node000001_Node000002"><a xlink:title=" ">
<path fill="none" stroke="#63b8ff" d="M63.63,-47C55.68,-38.06 46.4,-27.62 39.89,-20.3"/>
<polygon fill="#63b8ff" stroke="#63b8ff" points="61,-49.31 70.26,-54.46 66.23,-44.66 61,-49.31"/>
</a>
</g>
</g>
<!-- Node3 -->
<g id="Node000003" class="node">
<title>Node3</title>
<g id="a_Node000003"><a xlink:href="../../d0/dc2/a02477.html" target="_top" xlink:title="Production date management for OTP flash memory.">
<polygon fill="white" stroke="#666666" points="173.5,-20 81.75,-20 81.75,0 173.5,0 173.5,-20"/>
<text xml:space="preserve" text-anchor="middle" x="127.62" y="-6.5" font-family="Helvetica,sans-Serif" font-size="10.00">ProduceDate.hpp</text>
</a>
</g>
</g>
<!-- Node1&#45;&gt;Node3 -->
<g id="edge2_Node000001_Node000003" class="edge">
<title>Node1&#45;&gt;Node3</title>
<g id="a_edge2_Node000001_Node000003"><a xlink:title=" ">
<path fill="none" stroke="#63b8ff" d="M95.62,-47C103.57,-38.06 112.85,-27.62 119.36,-20.3"/>
<polygon fill="#63b8ff" stroke="#63b8ff" points="93.02,-44.66 88.99,-54.46 98.25,-49.31 93.02,-44.66"/>
</a>
</g>
</g>
</g>
</svg>
