<?xml version="1.0" encoding="UTF-8" standalone="no"?>
<!DOCTYPE svg PUBLIC "-//W3C//DTD SVG 1.1//EN"
 "http://www.w3.org/Graphics/SVG/1.1/DTD/svg11.dtd">
<!-- Generated by graphviz version 12.2.1 (20241206.2353)
 -->
<!-- Title: Lib::Digi::API::ApplicationBase::pause Pages: 1 -->
<svg width="469pt" height="99pt"
 viewBox="0.00 0.00 468.50 99.00" xmlns="http://www.w3.org/2000/svg" xmlns:xlink="http://www.w3.org/1999/xlink">
<g id="graph0" class="graph" transform="scale(1 1) rotate(0) translate(4 95)">
<title>Lib::Digi::API::ApplicationBase::pause</title>
<!-- Node1 -->
<g id="Node000001" class="node">
<title>Node1</title>
<g id="a_Node000001"><a xlink:title="Pauses the application by changing its state to PAUSE.">
<polygon fill="#999999" stroke="#666666" points="460.5,-57 332,-57 332,-25 460.5,-25 460.5,-57"/>
<text text-anchor="start" x="340" y="-43.5" font-family="Helvetica,sans-Serif" font-size="10.00">Lib::Digi::API::Application</text>
<text text-anchor="middle" x="396.25" y="-31.5" font-family="Helvetica,sans-Serif" font-size="10.00">Base::pause</text>
</a>
</g>
</g>
<!-- Node2 -->
<g id="Node000002" class="node">
<title>Node2</title>
<g id="a_Node000002"><a xlink:href="../../dc/d19/a01056.html#a5bdc3d73033317f0d42c376fd040fec6" target="_top" xlink:title="Starts the application.">
<polygon fill="white" stroke="#666666" points="296,-57 167.5,-57 167.5,-25 296,-25 296,-57"/>
<text text-anchor="start" x="175.5" y="-43.5" font-family="Helvetica,sans-Serif" font-size="10.00">Lib::Digi::API::Application</text>
<text text-anchor="middle" x="231.75" y="-31.5" font-family="Helvetica,sans-Serif" font-size="10.00">Base::start</text>
</a>
</g>
</g>
<!-- Node1&#45;&gt;Node2 -->
<g id="edge1_Node000001_Node000002" class="edge">
<title>Node1&#45;&gt;Node2</title>
<g id="a_edge1_Node000001_Node000002"><a xlink:title=" ">
<path fill="none" stroke="#63b8ff" d="M320.61,-41C312.52,-41 304.35,-41 296.4,-41"/>
<polygon fill="#63b8ff" stroke="#63b8ff" points="320.44,-44.5 330.44,-41 320.44,-37.5 320.44,-44.5"/>
</a>
</g>
</g>
<!-- Node3 -->
<g id="Node000003" class="node">
<title>Node3</title>
<g id="a_Node000003"><a xlink:href="../../d5/d16/a01060.html#ab3f9388ff95bda4a8154ed8bc56ab46b" target="_top" xlink:title="Starts the client application.">
<polygon fill="white" stroke="#666666" points="130,-91 1.5,-91 1.5,-59 130,-59 130,-91"/>
<text text-anchor="start" x="9.5" y="-77.5" font-family="Helvetica,sans-Serif" font-size="10.00">Lib::Digi::API::ClientBase</text>
<text text-anchor="middle" x="65.75" y="-65.5" font-family="Helvetica,sans-Serif" font-size="10.00">::start</text>
</a>
</g>
</g>
<!-- Node1&#45;&gt;Node3 -->
<g id="edge4_Node000001_Node000003" class="edge">
<title>Node1&#45;&gt;Node3</title>
<g id="a_edge4_Node000001_Node000003"><a xlink:title=" ">
<path fill="none" stroke="#63b8ff" d="M327.29,-60.09C316.88,-62.44 306.2,-64.53 296,-66 240.41,-74 176.51,-75.92 130.32,-76.03"/>
<polygon fill="#63b8ff" stroke="#63b8ff" points="328.05,-63.51 336.97,-57.81 326.44,-56.7 328.05,-63.51"/>
</a>
</g>
</g>
<!-- Node4 -->
<g id="Node000004" class="node">
<title>Node4</title>
<g id="a_Node000004"><a xlink:href="../../d0/dc8/a01124.html#a5c21f80a2a122ffce04fc6f9548b7d6d" target="_top" xlink:title="Starts the server.">
<polygon fill="white" stroke="#666666" points="131.5,-32 0,-32 0,0 131.5,0 131.5,-32"/>
<text text-anchor="start" x="8" y="-18.5" font-family="Helvetica,sans-Serif" font-size="10.00">Lib::Digi::API::ServerBase</text>
<text text-anchor="middle" x="65.75" y="-6.5" font-family="Helvetica,sans-Serif" font-size="10.00">::start</text>
</a>
</g>
</g>
<!-- Node1&#45;&gt;Node4 -->
<g id="edge5_Node000001_Node000004" class="edge">
<title>Node1&#45;&gt;Node4</title>
<g id="a_edge5_Node000001_Node000004"><a xlink:title=" ">
<path fill="none" stroke="#63b8ff" d="M328.87,-21.89C317.97,-19.44 306.73,-17.33 296,-16 240.9,-9.17 177.78,-9.78 131.74,-11.75"/>
<polygon fill="#63b8ff" stroke="#63b8ff" points="328.06,-25.29 338.59,-24.19 329.67,-18.48 328.06,-25.29"/>
</a>
</g>
</g>
<!-- Node2&#45;&gt;Node3 -->
<g id="edge2_Node000002_Node000003" class="edge">
<title>Node2&#45;&gt;Node3</title>
<g id="a_edge2_Node000002_Node000003"><a xlink:title=" ">
<path fill="none" stroke="#63b8ff" d="M156.09,-56.48C147.46,-58.27 138.72,-60.08 130.26,-61.83"/>
<polygon fill="#63b8ff" stroke="#63b8ff" points="156.78,-59.91 165.86,-54.45 155.36,-53.06 156.78,-59.91"/>
</a>
</g>
</g>
<!-- Node2&#45;&gt;Node4 -->
<g id="edge3_Node000002_Node000004" class="edge">
<title>Node2&#45;&gt;Node4</title>
<g id="a_edge3_Node000002_Node000004"><a xlink:title=" ">
<path fill="none" stroke="#63b8ff" d="M156.04,-29.61C147.98,-28.38 139.82,-27.14 131.88,-25.93"/>
<polygon fill="#63b8ff" stroke="#63b8ff" points="155.43,-33.06 165.85,-31.11 156.49,-26.14 155.43,-33.06"/>
</a>
</g>
</g>
</g>
</svg>
