<?xml version="1.0" encoding="UTF-8" standalone="no"?>
<!DOCTYPE svg PUBLIC "-//W3C//DTD SVG 1.1//EN"
 "http://www.w3.org/Graphics/SVG/1.1/DTD/svg11.dtd">
<!-- Generated by graphviz version 12.2.1 (20241206.2353)
 -->
<!-- Title: Lib::Xbee::API::ApplicationBase::start Pages: 1 -->
<svg width="315pt" height="90pt"
 viewBox="0.00 0.00 314.50 90.00" xmlns="http://www.w3.org/2000/svg" xmlns:xlink="http://www.w3.org/1999/xlink">
<g id="graph0" class="graph" transform="scale(1 1) rotate(0) translate(4 86)">
<title>Lib::Xbee::API::ApplicationBase::start</title>
<!-- Node1 -->
<g id="Node000001" class="node">
<title>Node1</title>
<g id="a_Node000001"><a xlink:title="Starts the application and initializes the Xbee module.">
<polygon fill="#999999" stroke="#666666" points="306.5,-57 172.75,-57 172.75,-25 306.5,-25 306.5,-57"/>
<text text-anchor="start" x="180.75" y="-43.5" font-family="Helvetica,sans-Serif" font-size="10.00">Lib::Xbee::API::Application</text>
<text text-anchor="middle" x="239.62" y="-31.5" font-family="Helvetica,sans-Serif" font-size="10.00">Base::start</text>
</a>
</g>
</g>
<!-- Node2 -->
<g id="Node000002" class="node">
<title>Node2</title>
<g id="a_Node000002"><a xlink:href="../../d5/d16/a01060.html#ae08fbf02828f8b0ce1b70a5d80344a31" target="_top" xlink:title="Starts the client application.">
<polygon fill="white" stroke="#666666" points="135.25,-82 1.5,-82 1.5,-50 135.25,-50 135.25,-82"/>
<text text-anchor="start" x="9.5" y="-68.5" font-family="Helvetica,sans-Serif" font-size="10.00">Lib::Xbee::API::ClientBase</text>
<text text-anchor="middle" x="68.38" y="-56.5" font-family="Helvetica,sans-Serif" font-size="10.00">::start</text>
</a>
</g>
</g>
<!-- Node1&#45;&gt;Node2 -->
<g id="edge1_Node000001_Node000002" class="edge">
<title>Node1&#45;&gt;Node2</title>
<g id="a_edge1_Node000001_Node000002"><a xlink:title=" ">
<path fill="none" stroke="#63b8ff" d="M161.47,-52.4C152.85,-53.67 144.14,-54.96 135.67,-56.21"/>
<polygon fill="#63b8ff" stroke="#63b8ff" points="161.83,-55.88 171.21,-50.96 160.8,-48.96 161.83,-55.88"/>
</a>
</g>
</g>
<!-- Node3 -->
<g id="Node000003" class="node">
<title>Node3</title>
<g id="a_Node000003"><a xlink:href="../../d0/dc8/a01124.html#ad7efed3027042931e4d350c2adb4ee46" target="_top" xlink:title="Starts the server.">
<polygon fill="white" stroke="#666666" points="136.75,-32 0,-32 0,0 136.75,0 136.75,-32"/>
<text text-anchor="start" x="8" y="-18.5" font-family="Helvetica,sans-Serif" font-size="10.00">Lib::Xbee::API::ServerBase</text>
<text text-anchor="middle" x="68.38" y="-6.5" font-family="Helvetica,sans-Serif" font-size="10.00">::start</text>
</a>
</g>
</g>
<!-- Node1&#45;&gt;Node3 -->
<g id="edge2_Node000001_Node000003" class="edge">
<title>Node1&#45;&gt;Node3</title>
<g id="a_edge2_Node000001_Node000003"><a xlink:title=" ">
<path fill="none" stroke="#63b8ff" d="M161.34,-29.58C153.24,-28.39 145.05,-27.18 137.07,-26"/>
<polygon fill="#63b8ff" stroke="#63b8ff" points="160.8,-33.04 171.21,-31.04 161.83,-26.12 160.8,-33.04"/>
</a>
</g>
</g>
</g>
</svg>
