<?xml version="1.0" encoding="UTF-8" standalone="no"?>
<!DOCTYPE svg PUBLIC "-//W3C//DTD SVG 1.1//EN"
 "http://www.w3.org/Graphics/SVG/1.1/DTD/svg11.dtd">
<!-- Generated by graphviz version 10.0.1 (20240210.2158)
 -->
<!-- Title: Lib::Xbee::Core::Message Pages: 1 -->
<svg width="129pt" height="136pt"
 viewBox="0.00 0.00 129.00 136.00" xmlns="http://www.w3.org/2000/svg" xmlns:xlink="http://www.w3.org/1999/xlink">
<g id="graph0" class="graph" transform="scale(1 1) rotate(0) translate(4 132)">
<title>Lib::Xbee::Core::Message</title>
<!-- Node1 -->
<g id="Node000001" class="node">
<title>Node1</title>
<g id="a_Node000001"><a xlink:title="Manages and manipulates messages for the Xbee communication module.">
<polygon fill="#999999" stroke="none" points="121,-128 0,-128 0,0 121,0 121,-128"/>
<text text-anchor="start" x="4.62" y="-114.5" font-family="Helvetica,sans-Serif" font-size="10.00">Lib::Xbee::Core::Message</text>
<text text-anchor="start" x="59" y="-98.5" font-family="Helvetica,sans-Serif" font-size="10.00"> </text>
<text text-anchor="start" x="8.5" y="-82.5" font-family="Helvetica,sans-Serif" font-size="10.00">+</text>
<text text-anchor="start" x="23" y="-82.5" font-family="Helvetica,sans-Serif" font-size="10.00">Message()</text>
<text text-anchor="start" x="8.5" y="-66.5" font-family="Helvetica,sans-Serif" font-size="10.00">+</text>
<text text-anchor="start" x="23" y="-66.5" font-family="Helvetica,sans-Serif" font-size="10.00">Message()</text>
<text text-anchor="start" x="8.5" y="-50.5" font-family="Helvetica,sans-Serif" font-size="10.00">+</text>
<text text-anchor="start" x="23" y="-50.5" font-family="Helvetica,sans-Serif" font-size="10.00">Message()</text>
<text text-anchor="start" x="8.5" y="-34.5" font-family="Helvetica,sans-Serif" font-size="10.00">+</text>
<text text-anchor="start" x="23" y="-34.5" font-family="Helvetica,sans-Serif" font-size="10.00">~Message()</text>
<text text-anchor="start" x="8.5" y="-18.5" font-family="Helvetica,sans-Serif" font-size="10.00">+</text>
<text text-anchor="start" x="23" y="-18.5" font-family="Helvetica,sans-Serif" font-size="10.00">operator const std</text>
<text text-anchor="start" x="23" y="-6.5" font-family="Helvetica,sans-Serif" font-size="10.00">::vector&lt; uint8_t &gt;()</text>
<polygon fill="#666666" stroke="#666666" points="0,-110 0,-110 121,-110 121,-110 0,-110"/>
<polygon fill="#666666" stroke="#666666" points="0,-94 0,-94 121,-94 121,-94 0,-94"/>
<polygon fill="none" stroke="#666666" points="0,0 0,-128 121,-128 121,0 0,0"/>
</a>
</g>
</g>
</g>
</svg>
