<?xml version="1.0" encoding="UTF-8" standalone="no"?>
<!DOCTYPE svg PUBLIC "-//W3C//DTD SVG 1.1//EN"
 "http://www.w3.org/Graphics/SVG/1.1/DTD/svg11.dtd">
<!-- Generated by graphviz version 13.1.0 (20250701.0955)
 -->
<!-- Title: Frame0x8b.hpp Pages: 1 -->
<svg width="391pt" height="196pt"
 viewBox="0.00 0.00 391.00 196.00" xmlns="http://www.w3.org/2000/svg" xmlns:xlink="http://www.w3.org/1999/xlink">
<g id="graph0" class="graph" transform="scale(1 1) rotate(0) translate(4 192)">
<title>Frame0x8b.hpp</title>
<!-- Node1 -->
<g id="Node000001" class="node">
<title>Node1</title>
<g id="a_Node000001"><a xlink:title="Frame0x8b.hpp: Extended Transmit Status Response for Digi Core.">
<polygon fill="#999999" stroke="#666666" points="126.77,-188 43.27,-188 43.27,-168 126.77,-168 126.77,-188"/>
<text xml:space="preserve" text-anchor="middle" x="85.02" y="-174.5" font-family="Helvetica,sans-Serif" font-size="10.00">Frame0x8b.hpp</text>
</a>
</g>
</g>
<!-- Node2 -->
<g id="Node000002" class="node">
<title>Node2</title>
<g id="a_Node000002"><a xlink:href="../../dc/d3b/_data_8hpp.html" target="_top" xlink:title="Data class for Digi Core Frame internal data container.">
<polygon fill="white" stroke="#666666" points="158.27,-132 11.77,-132 11.77,-112 158.27,-112 158.27,-132"/>
<text xml:space="preserve" text-anchor="middle" x="85.02" y="-118.5" font-family="Helvetica,sans-Serif" font-size="10.00">Lib/Digi/Core/Frame/Data.hpp</text>
</a>
</g>
</g>
<!-- Node1&#45;&gt;Node2 -->
<g id="edge1_Node000001_Node000002" class="edge">
<title>Node1&#45;&gt;Node2</title>
<g id="a_edge1_Node000001_Node000002"><a xlink:title=" ">
<path fill="none" stroke="#63b8ff" d="M85.02,-167.59C85.02,-161.01 85.02,-151.96 85.02,-143.73"/>
<polygon fill="#63b8ff" stroke="#63b8ff" points="88.52,-143.81 85.02,-133.81 81.52,-143.81 88.52,-143.81"/>
</a>
</g>
</g>
<!-- Node3 -->
<g id="Node000003" class="node">
<title>Node3</title>
<g id="a_Node000003"><a xlink:title=" ">
<polygon fill="#e0e0e0" stroke="#999999" points="109.64,-20 64.39,-20 64.39,0 109.64,0 109.64,-20"/>
<text xml:space="preserve" text-anchor="middle" x="87.02" y="-6.5" font-family="Helvetica,sans-Serif" font-size="10.00">cstdint</text>
</a>
</g>
</g>
<!-- Node1&#45;&gt;Node3 -->
<g id="edge13_Node000001_Node000003" class="edge">
<title>Node1&#45;&gt;Node3</title>
<g id="a_edge13_Node000001_Node000003"><a xlink:title=" ">
<path fill="none" stroke="#63b8ff" d="M51.12,-167.59C33.47,-160.78 13.44,-149.61 3.02,-132 -1.51,-124.35 0,-120.36 3.02,-112 15.59,-77.22 45.94,-45.97 66.5,-27.74"/>
<polygon fill="#63b8ff" stroke="#63b8ff" points="68.7,-30.47 74.01,-21.3 64.14,-25.16 68.7,-30.47"/>
</a>
</g>
</g>
<!-- Node5 -->
<g id="Node000005" class="node">
<title>Node5</title>
<g id="a_Node000005"><a xlink:href="../../de/d2d/_digi_2_core_2_frame_2_helper_8hpp.html" target="_top" xlink:title="Helper utilities for Digi Core Frame operations.">
<polygon fill="white" stroke="#666666" points="330.02,-132 176.02,-132 176.02,-112 330.02,-112 330.02,-132"/>
<text xml:space="preserve" text-anchor="middle" x="253.02" y="-118.5" font-family="Helvetica,sans-Serif" font-size="10.00">Lib/Digi/Core/Frame/Helper.hpp</text>
</a>
</g>
</g>
<!-- Node1&#45;&gt;Node5 -->
<g id="edge4_Node000001_Node000005" class="edge">
<title>Node1&#45;&gt;Node5</title>
<g id="a_edge4_Node000001_Node000005"><a xlink:title=" ">
<path fill="none" stroke="#63b8ff" d="M114.28,-167.59C141.58,-158.82 182.53,-145.66 212.87,-135.9"/>
<polygon fill="#63b8ff" stroke="#63b8ff" points="213.64,-139.33 222.09,-132.94 211.5,-132.67 213.64,-139.33"/>
</a>
</g>
</g>
<!-- Node2&#45;&gt;Node3 -->
<g id="edge2_Node000002_Node000003" class="edge">
<title>Node2&#45;&gt;Node3</title>
<g id="a_edge2_Node000002_Node000003"><a xlink:title=" ">
<path fill="none" stroke="#63b8ff" d="M82.82,-111.75C80.1,-99.15 76.05,-75.88 78.02,-56 78.82,-47.88 80.43,-39.05 82.06,-31.38"/>
<polygon fill="#63b8ff" stroke="#63b8ff" points="85.45,-32.23 84.28,-21.7 78.63,-30.67 85.45,-32.23"/>
</a>
</g>
</g>
<!-- Node4 -->
<g id="Node000004" class="node">
<title>Node4</title>
<g id="a_Node000004"><a xlink:title=" ">
<polygon fill="#e0e0e0" stroke="#999999" points="130.52,-76 87.52,-76 87.52,-56 130.52,-56 130.52,-76"/>
<text xml:space="preserve" text-anchor="middle" x="109.02" y="-62.5" font-family="Helvetica,sans-Serif" font-size="10.00">vector</text>
</a>
</g>
</g>
<!-- Node2&#45;&gt;Node4 -->
<g id="edge3_Node000002_Node000004" class="edge">
<title>Node2&#45;&gt;Node4</title>
<g id="a_edge3_Node000002_Node000004"><a xlink:title=" ">
<path fill="none" stroke="#63b8ff" d="M89.2,-111.59C92.26,-104.7 96.53,-95.1 100.32,-86.57"/>
<polygon fill="#63b8ff" stroke="#63b8ff" points="103.41,-88.24 104.27,-77.68 97.01,-85.4 103.41,-88.24"/>
</a>
</g>
</g>
<!-- Node5&#45;&gt;Node3 -->
<g id="edge10_Node000005_Node000003" class="edge">
<title>Node5&#45;&gt;Node3</title>
<g id="a_edge10_Node000005_Node000003"><a xlink:title=" ">
<path fill="none" stroke="#63b8ff" d="M236.4,-111.54C221.04,-102.68 197.7,-88.91 178.02,-76 153.77,-60.1 126.85,-40.63 108.62,-27.17"/>
<polygon fill="#63b8ff" stroke="#63b8ff" points="110.79,-24.42 100.67,-21.27 106.62,-30.04 110.79,-24.42"/>
</a>
</g>
</g>
<!-- Node5&#45;&gt;Node4 -->
<g id="edge12_Node000005_Node000004" class="edge">
<title>Node5&#45;&gt;Node4</title>
<g id="a_edge12_Node000005_Node000004"><a xlink:title=" ">
<path fill="none" stroke="#63b8ff" d="M227.94,-111.59C203.96,-102.6 167.7,-89.01 141.52,-79.19"/>
<polygon fill="#63b8ff" stroke="#63b8ff" points="143,-76 132.4,-75.77 140.54,-82.56 143,-76"/>
</a>
</g>
</g>
<!-- Node6 -->
<g id="Node000006" class="node">
<title>Node6</title>
<g id="a_Node000006"><a xlink:href="../../d4/dfa/_swap_bytes_8hpp.html" target="_top" xlink:title="Provides utility functions for byte swapping.">
<polygon fill="white" stroke="#666666" points="319.14,-76 186.89,-76 186.89,-56 319.14,-56 319.14,-76"/>
<text xml:space="preserve" text-anchor="middle" x="253.02" y="-62.5" font-family="Helvetica,sans-Serif" font-size="10.00">Lib/Helper/SwapBytes.hpp</text>
</a>
</g>
</g>
<!-- Node5&#45;&gt;Node6 -->
<g id="edge5_Node000005_Node000006" class="edge">
<title>Node5&#45;&gt;Node6</title>
<g id="a_edge5_Node000005_Node000006"><a xlink:title=" ">
<path fill="none" stroke="#63b8ff" d="M253.02,-111.59C253.02,-105.01 253.02,-95.96 253.02,-87.73"/>
<polygon fill="#63b8ff" stroke="#63b8ff" points="256.52,-87.81 253.02,-77.81 249.52,-87.81 256.52,-87.81"/>
</a>
</g>
</g>
<!-- Node10 -->
<g id="Node000010" class="node">
<title>Node10</title>
<g id="a_Node000010"><a xlink:title=" ">
<polygon fill="#e0e0e0" stroke="#999999" points="382.64,-76 337.39,-76 337.39,-56 382.64,-56 382.64,-76"/>
<text xml:space="preserve" text-anchor="middle" x="360.02" y="-62.5" font-family="Helvetica,sans-Serif" font-size="10.00">cstring</text>
</a>
</g>
</g>
<!-- Node5&#45;&gt;Node10 -->
<g id="edge11_Node000005_Node000010" class="edge">
<title>Node5&#45;&gt;Node10</title>
<g id="a_edge11_Node000005_Node000010"><a xlink:title=" ">
<path fill="none" stroke="#63b8ff" d="M271.66,-111.59C288.05,-103.32 312.18,-91.14 331.08,-81.6"/>
<polygon fill="#63b8ff" stroke="#63b8ff" points="332.53,-84.79 339.88,-77.16 329.38,-78.54 332.53,-84.79"/>
</a>
</g>
</g>
<!-- Node6&#45;&gt;Node3 -->
<g id="edge8_Node000006_Node000003" class="edge">
<title>Node6&#45;&gt;Node3</title>
<g id="a_edge8_Node000006_Node000003"><a xlink:title=" ">
<path fill="none" stroke="#63b8ff" d="M224.1,-55.59C195.36,-46.24 151.28,-31.9 120.91,-22.02"/>
<polygon fill="#63b8ff" stroke="#63b8ff" points="122.03,-18.71 111.44,-18.94 119.86,-25.36 122.03,-18.71"/>
</a>
</g>
</g>
<!-- Node7 -->
<g id="Node000007" class="node">
<title>Node7</title>
<g id="a_Node000007"><a xlink:title=" ">
<polygon fill="#e0e0e0" stroke="#999999" points="350.14,-20 301.89,-20 301.89,0 350.14,0 350.14,-20"/>
<text xml:space="preserve" text-anchor="middle" x="326.02" y="-6.5" font-family="Helvetica,sans-Serif" font-size="10.00">cassert</text>
</a>
</g>
</g>
<!-- Node6&#45;&gt;Node7 -->
<g id="edge6_Node000006_Node000007" class="edge">
<title>Node6&#45;&gt;Node7</title>
<g id="a_edge6_Node000006_Node000007"><a xlink:title=" ">
<path fill="none" stroke="#63b8ff" d="M265.73,-55.59C276.41,-47.7 291.9,-36.24 304.5,-26.92"/>
<polygon fill="#63b8ff" stroke="#63b8ff" points="306.27,-29.96 312.23,-21.2 302.11,-24.33 306.27,-29.96"/>
</a>
</g>
</g>
<!-- Node8 -->
<g id="Node000008" class="node">
<title>Node8</title>
<g id="a_Node000008"><a xlink:title=" ">
<polygon fill="#e0e0e0" stroke="#999999" points="204.14,-20 155.89,-20 155.89,0 204.14,0 204.14,-20"/>
<text xml:space="preserve" text-anchor="middle" x="180.02" y="-6.5" font-family="Helvetica,sans-Serif" font-size="10.00">cstddef</text>
</a>
</g>
</g>
<!-- Node6&#45;&gt;Node8 -->
<g id="edge7_Node000006_Node000008" class="edge">
<title>Node6&#45;&gt;Node8</title>
<g id="a_edge7_Node000006_Node000008"><a xlink:title=" ">
<path fill="none" stroke="#63b8ff" d="M240.3,-55.59C229.63,-47.7 214.14,-36.24 201.54,-26.92"/>
<polygon fill="#63b8ff" stroke="#63b8ff" points="203.93,-24.33 193.81,-21.2 199.76,-29.96 203.93,-24.33"/>
</a>
</g>
</g>
<!-- Node9 -->
<g id="Node000009" class="node">
<title>Node9</title>
<g id="a_Node000009"><a xlink:title=" ">
<polygon fill="#e0e0e0" stroke="#999999" points="283.89,-20 222.14,-20 222.14,0 283.89,0 283.89,-20"/>
<text xml:space="preserve" text-anchor="middle" x="253.02" y="-6.5" font-family="Helvetica,sans-Serif" font-size="10.00">type_traits</text>
</a>
</g>
</g>
<!-- Node6&#45;&gt;Node9 -->
<g id="edge9_Node000006_Node000009" class="edge">
<title>Node6&#45;&gt;Node9</title>
<g id="a_edge9_Node000006_Node000009"><a xlink:title=" ">
<path fill="none" stroke="#63b8ff" d="M253.02,-55.59C253.02,-49.01 253.02,-39.96 253.02,-31.73"/>
<polygon fill="#63b8ff" stroke="#63b8ff" points="256.52,-31.81 253.02,-21.81 249.52,-31.81 256.52,-31.81"/>
</a>
</g>
</g>
</g>
</svg>
