<?xml version="1.0" encoding="UTF-8" standalone="no"?>
<!DOCTYPE svg PUBLIC "-//W3C//DTD SVG 1.1//EN"
 "http://www.w3.org/Graphics/SVG/1.1/DTD/svg11.dtd">
<!-- Generated by graphviz version 13.1.0 (20250701.0955)
 -->
<!-- Title: RTOS::Kernel::getTickCount Pages: 1 -->
<svg width="719pt" height="94pt"
 viewBox="0.00 0.00 719.00 94.00" xmlns="http://www.w3.org/2000/svg" xmlns:xlink="http://www.w3.org/1999/xlink">
<g id="graph0" class="graph" transform="scale(1 1) rotate(0) translate(4 90)">
<title>RTOS::Kernel::getTickCount</title>
<!-- Node1 -->
<g id="Node000001" class="node">
<title>Node1</title>
<g id="a_Node000001"><a xlink:title="Get current tick count.">
<polygon fill="#999999" stroke="#666666" points="711.25,-39 570,-39 570,-19 711.25,-19 711.25,-39"/>
<text xml:space="preserve" text-anchor="middle" x="640.62" y="-25.5" font-family="Helvetica,sans-Serif" font-size="10.00">RTOS::Kernel::getTickCount</text>
</a>
</g>
</g>
<!-- Node2 -->
<g id="Node000002" class="node">
<title>Node2</title>
<g id="a_Node000002"><a xlink:href="../../d0/d5e/a00136.html#af16ef9068d7891beac352ff30764142d" target="_top" xlink:title="Get current tick count in milliseconds.">
<polygon fill="white" stroke="#666666" points="534,-58 379.25,-58 379.25,-38 534,-38 534,-58"/>
<text xml:space="preserve" text-anchor="middle" x="456.62" y="-44.5" font-family="Helvetica,sans-Serif" font-size="10.00">RTOS::Kernel::getTickCountMs</text>
</a>
</g>
</g>
<!-- Node1&#45;&gt;Node2 -->
<g id="edge1_Node000001_Node000002" class="edge">
<title>Node1&#45;&gt;Node2</title>
<g id="a_edge1_Node000001_Node000002"><a xlink:title=" ">
<path fill="none" stroke="#63b8ff" d="M558.33,-37.49C550.36,-38.32 542.28,-39.16 534.35,-39.99"/>
<polygon fill="#63b8ff" stroke="#63b8ff" points="558.43,-41 568.01,-36.48 557.7,-34.03 558.43,-41"/>
</a>
</g>
</g>
<!-- Node6 -->
<g id="Node000006" class="node">
<title>Node6</title>
<g id="a_Node000006"><a xlink:href="../../da/dec/a00080.html#a171abd2231ac3f45bc58d0241887dc4d" target="_top" xlink:title="Get current RTOS tick count.">
<polygon fill="white" stroke="#666666" points="499.88,-20 413.38,-20 413.38,0 499.88,0 499.88,-20"/>
<text xml:space="preserve" text-anchor="middle" x="456.62" y="-6.5" font-family="Helvetica,sans-Serif" font-size="10.00">RTOS::getTicks</text>
</a>
</g>
</g>
<!-- Node1&#45;&gt;Node6 -->
<g id="edge5_Node000001_Node000006" class="edge">
<title>Node1&#45;&gt;Node6</title>
<g id="a_edge5_Node000001_Node000006"><a xlink:title=" ">
<path fill="none" stroke="#63b8ff" d="M558.19,-20.5C538.21,-18.41 517.62,-16.26 500.31,-14.46"/>
<polygon fill="#63b8ff" stroke="#63b8ff" points="557.7,-23.97 568.01,-21.52 558.43,-17 557.7,-23.97"/>
</a>
</g>
</g>
<!-- Node3 -->
<g id="Node000003" class="node">
<title>Node3</title>
<g id="a_Node000003"><a xlink:href="../../d0/d5e/a00136.html#a8b8fd8f282c1faed82a77a8ec7b4206d" target="_top" xlink:title="Get current tick count in seconds.">
<polygon fill="white" stroke="#666666" points="343.25,-86 202,-86 202,-54 343.25,-54 343.25,-86"/>
<text xml:space="preserve" text-anchor="start" x="210" y="-72.5" font-family="Helvetica,sans-Serif" font-size="10.00">RTOS::Kernel::getTickCount</text>
<text xml:space="preserve" text-anchor="middle" x="272.62" y="-60.5" font-family="Helvetica,sans-Serif" font-size="10.00">Seconds</text>
</a>
</g>
</g>
<!-- Node2&#45;&gt;Node3 -->
<g id="edge2_Node000002_Node000003" class="edge">
<title>Node2&#45;&gt;Node3</title>
<g id="a_edge2_Node000002_Node000003"><a xlink:title=" ">
<path fill="none" stroke="#63b8ff" d="M367.6,-58.64C359.52,-59.62 351.42,-60.6 343.53,-61.55"/>
<polygon fill="#63b8ff" stroke="#63b8ff" points="367.96,-62.12 377.47,-57.45 367.12,-55.17 367.96,-62.12"/>
</a>
</g>
</g>
<!-- Node4 -->
<g id="Node000004" class="node">
<title>Node4</title>
<g id="a_Node000004"><a xlink:href="../../d0/d5e/a00136.html#ad746860c8adad35654a4d3d596d1ea3c" target="_top" xlink:title="Get system uptime in milliseconds.">
<polygon fill="white" stroke="#666666" points="343.25,-36 202,-36 202,-16 343.25,-16 343.25,-36"/>
<text xml:space="preserve" text-anchor="middle" x="272.62" y="-22.5" font-family="Helvetica,sans-Serif" font-size="10.00">RTOS::Kernel::getUptimeMs</text>
</a>
</g>
</g>
<!-- Node2&#45;&gt;Node4 -->
<g id="edge3_Node000002_Node000004" class="edge">
<title>Node2&#45;&gt;Node4</title>
<g id="a_edge3_Node000002_Node000004"><a xlink:title=" ">
<path fill="none" stroke="#63b8ff" d="M367.6,-37.36C359.52,-36.38 351.42,-35.4 343.53,-34.45"/>
<polygon fill="#63b8ff" stroke="#63b8ff" points="367.12,-40.83 377.47,-38.55 367.96,-33.88 367.12,-40.83"/>
</a>
</g>
</g>
<!-- Node5 -->
<g id="Node000005" class="node">
<title>Node5</title>
<g id="a_Node000005"><a xlink:href="../../d0/d5e/a00136.html#afeb71e23784a9ed4d3371270aa2ae7bf" target="_top" xlink:title="Get system uptime in seconds.">
<polygon fill="white" stroke="#666666" points="166,-36 0,-36 0,-16 166,-16 166,-36"/>
<text xml:space="preserve" text-anchor="middle" x="83" y="-22.5" font-family="Helvetica,sans-Serif" font-size="10.00">RTOS::Kernel::getUptimeSeconds</text>
</a>
</g>
</g>
<!-- Node4&#45;&gt;Node5 -->
<g id="edge4_Node000004_Node000005" class="edge">
<title>Node4&#45;&gt;Node5</title>
<g id="a_edge4_Node000004_Node000005"><a xlink:title=" ">
<path fill="none" stroke="#63b8ff" d="M190.51,-26C182.48,-26 174.32,-26 166.27,-26"/>
<polygon fill="#63b8ff" stroke="#63b8ff" points="190.25,-29.5 200.25,-26 190.25,-22.5 190.25,-29.5"/>
</a>
</g>
</g>
</g>
</svg>
