<?xml version="1.0" encoding="UTF-8" standalone="no"?>
<!DOCTYPE svg PUBLIC "-//W3C//DTD SVG 1.1//EN"
 "http://www.w3.org/Graphics/SVG/1.1/DTD/svg11.dtd">
<!-- Generated by graphviz version 13.1.0 (20250701.0955)
 -->
<!-- Title: RTOS::Kernel::getTickCountMs Pages: 1 -->
<svg width="340pt" height="78pt"
 viewBox="0.00 0.00 340.00 78.00" xmlns="http://www.w3.org/2000/svg" xmlns:xlink="http://www.w3.org/1999/xlink">
<g id="graph0" class="graph" transform="scale(1 1) rotate(0) translate(4 74)">
<title>RTOS::Kernel::getTickCountMs</title>
<!-- Node1 -->
<g id="Node000001" class="node">
<title>Node1</title>
<g id="a_Node000001"><a xlink:title="Get current tick count in milliseconds.">
<polygon fill="#999999" stroke="#666666" points="154.75,-48 0,-48 0,-28 154.75,-28 154.75,-48"/>
<text xml:space="preserve" text-anchor="middle" x="77.38" y="-34.5" font-family="Helvetica,sans-Serif" font-size="10.00">RTOS::Kernel::getTickCountMs</text>
</a>
</g>
</g>
<!-- Node2 -->
<g id="Node000002" class="node">
<title>Node2</title>
<g id="a_Node000002"><a xlink:href="../../d0/d5e/a00136.html#a170c0fdb885c138c4e4706cfc4cbee0f" target="_top" xlink:title="Get current tick count.">
<polygon fill="white" stroke="#666666" points="332,-70 190.75,-70 190.75,-50 332,-50 332,-70"/>
<text xml:space="preserve" text-anchor="middle" x="261.38" y="-56.5" font-family="Helvetica,sans-Serif" font-size="10.00">RTOS::Kernel::getTickCount</text>
</a>
</g>
</g>
<!-- Node1&#45;&gt;Node2 -->
<g id="edge1_Node000001_Node000002" class="edge">
<title>Node1&#45;&gt;Node2</title>
<g id="a_edge1_Node000001_Node000002"><a xlink:title=" ">
<path fill="none" stroke="#63b8ff" d="M155.03,-47.27C163.02,-48.23 171.16,-49.22 179.2,-50.19"/>
<polygon fill="#63b8ff" stroke="#63b8ff" points="178.62,-53.64 188.96,-51.37 179.46,-46.69 178.62,-53.64"/>
</a>
</g>
</g>
<!-- Node3 -->
<g id="Node000003" class="node">
<title>Node3</title>
<g id="a_Node000003"><a xlink:href="../../d1/d72/a00204.html#a4279f1f55ee184a461e549bd9d8284a2" target="_top" xlink:title="Converts ticks to milliseconds.">
<polygon fill="white" stroke="#666666" points="315.5,-32 207.25,-32 207.25,0 315.5,0 315.5,-32"/>
<text xml:space="preserve" text-anchor="start" x="215.25" y="-18.5" font-family="Helvetica,sans-Serif" font-size="10.00">RTOS::TickCounter::</text>
<text xml:space="preserve" text-anchor="middle" x="261.38" y="-6.5" font-family="Helvetica,sans-Serif" font-size="10.00">ticksToMs</text>
</a>
</g>
</g>
<!-- Node1&#45;&gt;Node3 -->
<g id="edge2_Node000001_Node000003" class="edge">
<title>Node1&#45;&gt;Node3</title>
<g id="a_edge2_Node000001_Node000003"><a xlink:title=" ">
<path fill="none" stroke="#63b8ff" d="M155.03,-28.73C168.56,-27.1 182.51,-25.41 195.67,-23.82"/>
<polygon fill="#63b8ff" stroke="#63b8ff" points="195.98,-27.31 205.49,-22.63 195.14,-20.36 195.98,-27.31"/>
</a>
</g>
</g>
</g>
</svg>
