<?xml version="1.0" encoding="UTF-8" standalone="no"?>
<!DOCTYPE svg PUBLIC "-//W3C//DTD SVG 1.1//EN"
 "http://www.w3.org/Graphics/SVG/1.1/DTD/svg11.dtd">
<!-- Generated by graphviz version 13.1.0 (20250701.0955)
 -->
<!-- Title: Lib::USB::SerialPort Pages: 1 -->
<svg width="209pt" height="264pt"
 viewBox="0.00 0.00 209.00 264.00" xmlns="http://www.w3.org/2000/svg" xmlns:xlink="http://www.w3.org/1999/xlink">
<g id="graph0" class="graph" transform="scale(1 1) rotate(0) translate(4 259.5)">
<title>Lib::USB::SerialPort</title>
<!-- Node1 -->
<g id="Node000001" class="node">
<title>Node1</title>
<g id="a_Node000001"><a xlink:title="USB SerialPort configuration.">
<polygon fill="#999999" stroke="none" points="132.62,-134.5 43.62,-134.5 43.62,0 132.62,0 132.62,-134.5"/>
<text xml:space="preserve" text-anchor="start" x="47.62" y="-121.95" font-family="Arial" font-size="9.00">Lib::USB::SerialPort</text>
<text xml:space="preserve" text-anchor="start" x="87" y="-107.45" font-family="Arial" font-size="9.00"> </text>
<text xml:space="preserve" text-anchor="start" x="50.75" y="-92.95" font-family="Arial" font-size="9.00">+</text>
<text xml:space="preserve" text-anchor="start" x="63.12" y="-92.95" font-family="Arial" font-size="9.00">SerialPort()</text>
<text xml:space="preserve" text-anchor="start" x="50.75" y="-78.45" font-family="Arial" font-size="9.00">+</text>
<text xml:space="preserve" text-anchor="start" x="63.12" y="-78.45" font-family="Arial" font-size="9.00">~SerialPort()</text>
<text xml:space="preserve" text-anchor="start" x="50.75" y="-63.95" font-family="Arial" font-size="9.00">+</text>
<text xml:space="preserve" text-anchor="start" x="63.12" y="-63.95" font-family="Arial" font-size="9.00">open()</text>
<text xml:space="preserve" text-anchor="start" x="50.75" y="-49.45" font-family="Arial" font-size="9.00">+</text>
<text xml:space="preserve" text-anchor="start" x="63.12" y="-49.45" font-family="Arial" font-size="9.00">close()</text>
<text xml:space="preserve" text-anchor="start" x="50.75" y="-34.95" font-family="Arial" font-size="9.00">+</text>
<text xml:space="preserve" text-anchor="start" x="63.12" y="-34.95" font-family="Arial" font-size="9.00">resetPin()</text>
<text xml:space="preserve" text-anchor="start" x="50.75" y="-20.45" font-family="Arial" font-size="9.00">+</text>
<text xml:space="preserve" text-anchor="start" x="63.12" y="-20.45" font-family="Arial" font-size="9.00">send()</text>
<text xml:space="preserve" text-anchor="start" x="50.75" y="-5.95" font-family="Arial" font-size="9.00">+</text>
<text xml:space="preserve" text-anchor="start" x="63.12" y="-5.95" font-family="Arial" font-size="9.00">setBaudRate()</text>
<polygon fill="#666666" stroke="#666666" points="43.62,-118 43.62,-118 132.62,-118 132.62,-118 43.62,-118"/>
<polygon fill="#666666" stroke="#666666" points="43.62,-103.5 43.62,-103.5 132.62,-103.5 132.62,-103.5 43.62,-103.5"/>
<polygon fill="none" stroke="#666666" points="43.62,0 43.62,-134.5 132.62,-134.5 132.62,0 43.62,0"/>
</a>
</g>
</g>
<!-- Node2 -->
<g id="Node000002" class="node">
<title>Node2</title>
<g id="a_Node000002"><a xlink:title=" ">
<polygon fill="white" stroke="none" points="76.25,-245 0,-245 0,-197.5 76.25,-197.5 76.25,-245"/>
<text xml:space="preserve" text-anchor="start" x="4" y="-232.45" font-family="Arial" font-size="9.00">function&lt; void()&gt;</text>
<text xml:space="preserve" text-anchor="start" x="37" y="-217.95" font-family="Arial" font-size="9.00"> </text>
<text xml:space="preserve" text-anchor="start" x="37" y="-203.45" font-family="Arial" font-size="9.00"> </text>
<polygon fill="#bfbfbf" stroke="#bfbfbf" points="0,-228.5 0,-228.5 76.25,-228.5 76.25,-228.5 0,-228.5"/>
<polygon fill="#bfbfbf" stroke="#bfbfbf" points="0,-214 0,-214 76.25,-214 76.25,-214 0,-214"/>
<polygon fill="none" stroke="#bfbfbf" points="0,-197.5 0,-245 76.25,-245 76.25,-197.5 0,-197.5"/>
</a>
</g>
</g>
<!-- Node2&#45;&gt;Node1 -->
<g id="edge1_Node000001_Node000002" class="edge">
<title>Node2&#45;&gt;Node1</title>
<g id="a_edge1_Node000001_Node000002"><a xlink:title=" ">
<path fill="none" stroke="#63b8ff" d="M37.01,-197.56C36.95,-184.2 37.93,-167.11 42.12,-152.5 42.73,-150.41 43.38,-148.31 44.09,-146.21"/>
<polygon fill="none" stroke="#63b8ff" points="44.06,-146.29 42.47,-139.26 48.34,-135.08 49.94,-142.11 44.06,-146.29"/>
</a>
</g>
<text xml:space="preserve" text-anchor="start" x="45.12" y="-157.45" font-family="Arial" font-size="9.00" fill="grey">+onPostTransmit</text>
</g>
<!-- Node3 -->
<g id="Node000003" class="node">
<title>Node3</title>
<g id="a_Node000003"><a xlink:title=" ">
<polygon fill="white" stroke="none" points="184,-255.5 94.25,-255.5 94.25,-187 184,-187 184,-255.5"/>
<text xml:space="preserve" text-anchor="start" x="98.25" y="-242.95" font-family="Arial" font-size="9.00">function&lt; void(const</text>
<text xml:space="preserve" text-anchor="start" x="98.25" y="-232.45" font-family="Arial" font-size="9.00"> uint8_t *data, size</text>
<text xml:space="preserve" text-anchor="start" x="123.75" y="-221.95" font-family="Arial" font-size="9.00">_t len)&gt;</text>
<text xml:space="preserve" text-anchor="start" x="138" y="-207.45" font-family="Arial" font-size="9.00"> </text>
<text xml:space="preserve" text-anchor="start" x="138" y="-192.95" font-family="Arial" font-size="9.00"> </text>
<polygon fill="#bfbfbf" stroke="#bfbfbf" points="94.25,-218 94.25,-218 184,-218 184,-218 94.25,-218"/>
<polygon fill="#bfbfbf" stroke="#bfbfbf" points="94.25,-203.5 94.25,-203.5 184,-203.5 184,-203.5 94.25,-203.5"/>
<polygon fill="none" stroke="#bfbfbf" points="94.25,-187 94.25,-255.5 184,-255.5 184,-187 94.25,-187"/>
</a>
</g>
</g>
<!-- Node3&#45;&gt;Node1 -->
<g id="edge2_Node000001_Node000003" class="edge">
<title>Node3&#45;&gt;Node1</title>
<g id="a_edge2_Node000001_Node000003"><a xlink:title=" ">
<path fill="none" stroke="#63b8ff" d="M128.5,-187.13C124.93,-176.1 120.89,-163.76 117.12,-152.5 116.48,-150.57 115.83,-148.63 115.17,-146.66"/>
<polygon fill="none" stroke="#63b8ff" points="115.17,-146.66 109.45,-142.26 111.32,-135.29 117.03,-139.69 115.17,-146.66"/>
</a>
</g>
<text xml:space="preserve" text-anchor="start" x="125.04" y="-157.45" font-family="Arial" font-size="9.00" fill="grey">+onPostReceived</text>
</g>
</g>
</svg>
