<?xml version="1.0" encoding="UTF-8" standalone="no"?>
<!DOCTYPE svg PUBLIC "-//W3C//DTD SVG 1.1//EN"
 "http://www.w3.org/Graphics/SVG/1.1/DTD/svg11.dtd">
<!-- Generated by graphviz version 12.2.1 (20241206.2353)
 -->
<!-- Title: cb_get_inputs Pages: 1 -->
<svg width="283pt" height="28pt"
 viewBox="0.00 0.00 283.25 28.00" xmlns="http://www.w3.org/2000/svg" xmlns:xlink="http://www.w3.org/1999/xlink">
<g id="graph0" class="graph" transform="scale(1 1) rotate(0) translate(4 24)">
<title>cb_get_inputs</title>
<!-- Node1 -->
<g id="Node000001" class="node">
<title>Node1</title>
<g id="a_Node000001"><a xlink:title=" ">
<polygon fill="#999999" stroke="#666666" points="275.25,-20 198.5,-20 198.5,0 275.25,0 275.25,-20"/>
<text text-anchor="middle" x="236.88" y="-6.5" font-family="Helvetica,sans-Serif" font-size="10.00">cb_get_inputs</text>
</a>
</g>
</g>
<!-- Node2 -->
<g id="Node000002" class="node">
<title>Node2</title>
<g id="a_Node000002"><a xlink:href="ecat__slv_8c.html#a5e916cdc70d47e2df99f370dcdf40a6a" target="_top" xlink:title=" ">
<polygon fill="white" stroke="#666666" points="162.5,-20 88.75,-20 88.75,0 162.5,0 162.5,-20"/>
<text text-anchor="middle" x="125.62" y="-6.5" font-family="Helvetica,sans-Serif" font-size="10.00">DIG_process</text>
</a>
</g>
</g>
<!-- Node1&#45;&gt;Node2 -->
<g id="edge1_Node000001_Node000002" class="edge">
<title>Node1&#45;&gt;Node2</title>
<g id="a_edge1_Node000001_Node000002"><a xlink:title=" ">
<path fill="none" stroke="#63b8ff" d="M186.98,-10C178.85,-10 170.55,-10 162.82,-10"/>
<polygon fill="#63b8ff" stroke="#63b8ff" points="186.76,-13.5 196.76,-10 186.76,-6.5 186.76,-13.5"/>
</a>
</g>
</g>
<!-- Node3 -->
<g id="Node000003" class="node">
<title>Node3</title>
<g id="a_Node000003"><a xlink:href="ecat__slv_8c.html#a771f616c41967a475e64eaa386edc579" target="_top" xlink:title=" ">
<polygon fill="white" stroke="#666666" points="52.75,-20 0,-20 0,0 52.75,0 52.75,-20"/>
<text text-anchor="middle" x="26.38" y="-6.5" font-family="Helvetica,sans-Serif" font-size="10.00">ecat_slv</text>
</a>
</g>
</g>
<!-- Node2&#45;&gt;Node3 -->
<g id="edge2_Node000002_Node000003" class="edge">
<title>Node2&#45;&gt;Node3</title>
<g id="a_edge2_Node000002_Node000003"><a xlink:title=" ">
<path fill="none" stroke="#63b8ff" d="M77.16,-10C68.83,-10 60.44,-10 52.99,-10"/>
<polygon fill="#63b8ff" stroke="#63b8ff" points="76.9,-13.5 86.9,-10 76.9,-6.5 76.9,-13.5"/>
</a>
</g>
</g>
</g>
</svg>
