<?xml version="1.0" encoding="UTF-8" standalone="no"?>
<!DOCTYPE svg PUBLIC "-//W3C//DTD SVG 1.1//EN"
 "http://www.w3.org/Graphics/SVG/1.1/DTD/svg11.dtd">
<!-- Generated by graphviz version 12.2.1 (20241206.2353)
 -->
<!-- Title: ecat_slv.c Pages: 1 -->
<svg width="387pt" height="252pt"
 viewBox="0.00 0.00 387.25 252.00" xmlns="http://www.w3.org/2000/svg" xmlns:xlink="http://www.w3.org/1999/xlink">
<g id="graph0" class="graph" transform="scale(1 1) rotate(0) translate(4 248)">
<title>ecat_slv.c</title>
<!-- Node1 -->
<g id="Node000001" class="node">
<title>Node1</title>
<g id="a_Node000001"><a xlink:title=" ">
<polygon fill="#999999" stroke="#666666" points="262,-244 201.75,-244 201.75,-224 262,-224 262,-244"/>
<text text-anchor="middle" x="231.88" y="-230.5" font-family="Helvetica,sans-Serif" font-size="10.00">ecat_slv.c</text>
</a>
</g>
</g>
<!-- Node2 -->
<g id="Node000002" class="node">
<title>Node2</title>
<g id="a_Node000002"><a xlink:href="ecat__slv_8h.html" target="_top" xlink:title=" ">
<polygon fill="white" stroke="#666666" points="147,-188 86.75,-188 86.75,-168 147,-168 147,-188"/>
<text text-anchor="middle" x="116.88" y="-174.5" font-family="Helvetica,sans-Serif" font-size="10.00">ecat_slv.h</text>
</a>
</g>
</g>
<!-- Node1&#45;&gt;Node2 -->
<g id="edge1_Node000001_Node000002" class="edge">
<title>Node1&#45;&gt;Node2</title>
<g id="a_edge1_Node000001_Node000002"><a xlink:title=" ">
<path fill="none" stroke="#63b8ff" d="M211.84,-223.59C194.06,-215.24 167.81,-202.92 147.41,-193.34"/>
<polygon fill="#63b8ff" stroke="#63b8ff" points="148.97,-190.21 138.43,-189.12 146,-196.54 148.97,-190.21"/>
</a>
</g>
</g>
<!-- Node5 -->
<g id="Node000005" class="node">
<title>Node5</title>
<g id="a_Node000005"><a xlink:href="esc_8h.html" target="_top" xlink:title="Headerfile for esc.h.">
<polygon fill="white" stroke="#666666" points="151.88,-132 111.88,-132 111.88,-112 151.88,-112 151.88,-132"/>
<text text-anchor="middle" x="131.88" y="-118.5" font-family="Helvetica,sans-Serif" font-size="10.00">esc.h</text>
</a>
</g>
</g>
<!-- Node1&#45;&gt;Node5 -->
<g id="edge10_Node000001_Node000005" class="edge">
<title>Node1&#45;&gt;Node5</title>
<g id="a_edge10_Node000001_Node000005"><a xlink:title=" ">
<path fill="none" stroke="#63b8ff" d="M223.35,-223.62C206.67,-205.27 169.49,-164.37 148.01,-140.75"/>
<polygon fill="#63b8ff" stroke="#63b8ff" points="150.71,-138.52 141.4,-133.47 145.53,-143.23 150.71,-138.52"/>
</a>
</g>
</g>
<!-- Node8 -->
<g id="Node000008" class="node">
<title>Node8</title>
<g id="a_Node000008"><a xlink:href="esc__coe_8h.html" target="_top" xlink:title="Headerfile for esc_coe.c.">
<polygon fill="white" stroke="#666666" points="259.38,-76 198.38,-76 198.38,-56 259.38,-56 259.38,-76"/>
<text text-anchor="middle" x="228.88" y="-62.5" font-family="Helvetica,sans-Serif" font-size="10.00">esc_coe.h</text>
</a>
</g>
</g>
<!-- Node1&#45;&gt;Node8 -->
<g id="edge11_Node000001_Node000008" class="edge">
<title>Node1&#45;&gt;Node8</title>
<g id="a_edge11_Node000001_Node000008"><a xlink:title=" ">
<path fill="none" stroke="#63b8ff" d="M231.71,-223.6C231.23,-197.46 229.9,-123.48 229.24,-87.36"/>
<polygon fill="#63b8ff" stroke="#63b8ff" points="232.75,-87.75 229.07,-77.81 225.75,-87.87 232.75,-87.75"/>
</a>
</g>
</g>
<!-- Node9 -->
<g id="Node000009" class="node">
<title>Node9</title>
<g id="a_Node000009"><a xlink:href="esc__eoe_8h.html" target="_top" xlink:title="Headerfile for esc_eoe.c.">
<polygon fill="white" stroke="#666666" points="302.38,-132 241.38,-132 241.38,-112 302.38,-112 302.38,-132"/>
<text text-anchor="middle" x="271.88" y="-118.5" font-family="Helvetica,sans-Serif" font-size="10.00">esc_eoe.h</text>
</a>
</g>
</g>
<!-- Node1&#45;&gt;Node9 -->
<g id="edge12_Node000001_Node000009" class="edge">
<title>Node1&#45;&gt;Node9</title>
<g id="a_edge12_Node000001_Node000009"><a xlink:title=" ">
<path fill="none" stroke="#63b8ff" d="M235.29,-223.62C241.75,-205.84 255.92,-166.88 264.6,-143"/>
<polygon fill="#63b8ff" stroke="#63b8ff" points="267.83,-144.37 267.96,-133.78 261.25,-141.98 267.83,-144.37"/>
</a>
</g>
</g>
<!-- Node10 -->
<g id="Node000010" class="node">
<title>Node10</title>
<g id="a_Node000010"><a xlink:href="esc__foe_8h.html" target="_top" xlink:title="Headerfile for esc_foe.c.">
<polygon fill="white" stroke="#666666" points="379.25,-132 320.5,-132 320.5,-112 379.25,-112 379.25,-132"/>
<text text-anchor="middle" x="349.88" y="-118.5" font-family="Helvetica,sans-Serif" font-size="10.00">esc_foe.h</text>
</a>
</g>
</g>
<!-- Node1&#45;&gt;Node10 -->
<g id="edge14_Node000001_Node000010" class="edge">
<title>Node1&#45;&gt;Node10</title>
<g id="a_edge14_Node000001_Node000010"><a xlink:title=" ">
<path fill="none" stroke="#63b8ff" d="M241.94,-223.62C261.79,-205.11 306.27,-163.65 331.5,-140.13"/>
<polygon fill="#63b8ff" stroke="#63b8ff" points="333.8,-142.77 338.73,-133.39 329.03,-137.65 333.8,-142.77"/>
</a>
</g>
</g>
<!-- Node11 -->
<g id="Node000011" class="node">
<title>Node11</title>
<g id="a_Node000011"><a xlink:title=" ">
<polygon fill="#e0e0e0" stroke="#999999" points="368.5,-188 317.25,-188 317.25,-168 368.5,-168 368.5,-188"/>
<text text-anchor="middle" x="342.88" y="-174.5" font-family="Helvetica,sans-Serif" font-size="10.00">stddef.h</text>
</a>
</g>
</g>
<!-- Node1&#45;&gt;Node11 -->
<g id="edge16_Node000001_Node000011" class="edge">
<title>Node1&#45;&gt;Node11</title>
<g id="a_edge16_Node000001_Node000011"><a xlink:title=" ">
<path fill="none" stroke="#63b8ff" d="M251.21,-223.59C268.29,-215.28 293.48,-203.03 313.13,-193.47"/>
<polygon fill="#63b8ff" stroke="#63b8ff" points="314.57,-196.66 322.03,-189.14 311.5,-190.37 314.57,-196.66"/>
</a>
</g>
</g>
<!-- Node3 -->
<g id="Node000003" class="node">
<title>Node3</title>
<g id="a_Node000003"><a xlink:href="options_8h.html" target="_top" xlink:title=" ">
<polygon fill="white" stroke="#666666" points="67.75,-76 12,-76 12,-56 67.75,-56 67.75,-76"/>
<text text-anchor="middle" x="39.88" y="-62.5" font-family="Helvetica,sans-Serif" font-size="10.00">options.h</text>
</a>
</g>
</g>
<!-- Node2&#45;&gt;Node3 -->
<g id="edge2_Node000002_Node000003" class="edge">
<title>Node2&#45;&gt;Node3</title>
<g id="a_edge2_Node000002_Node000003"><a xlink:title=" ">
<path fill="none" stroke="#63b8ff" d="M110.31,-167.62C97.64,-149.52 69.59,-109.45 52.97,-85.7"/>
<polygon fill="#63b8ff" stroke="#63b8ff" points="55.89,-83.78 47.29,-77.59 50.16,-87.79 55.89,-83.78"/>
</a>
</g>
</g>
<!-- Node2&#45;&gt;Node5 -->
<g id="edge4_Node000002_Node000005" class="edge">
<title>Node2&#45;&gt;Node5</title>
<g id="a_edge4_Node000002_Node000005"><a xlink:title=" ">
<path fill="none" stroke="#63b8ff" d="M119.49,-167.59C121.36,-160.86 123.95,-151.53 126.28,-143.15"/>
<polygon fill="#63b8ff" stroke="#63b8ff" points="129.58,-144.33 128.89,-133.76 122.84,-142.46 129.58,-144.33"/>
</a>
</g>
</g>
<!-- Node4 -->
<g id="Node000004" class="node">
<title>Node4</title>
<g id="a_Node000004"><a xlink:title=" ">
<polygon fill="#e0e0e0" stroke="#999999" points="79.75,-20 0,-20 0,0 79.75,0 79.75,-20"/>
<text text-anchor="middle" x="39.88" y="-6.5" font-family="Helvetica,sans-Serif" font-size="10.00">ecat_options.h</text>
</a>
</g>
</g>
<!-- Node3&#45;&gt;Node4 -->
<g id="edge3_Node000003_Node000004" class="edge">
<title>Node3&#45;&gt;Node4</title>
<g id="a_edge3_Node000003_Node000004"><a xlink:title=" ">
<path fill="none" stroke="#63b8ff" d="M39.88,-55.59C39.88,-49.01 39.88,-39.96 39.88,-31.73"/>
<polygon fill="#63b8ff" stroke="#63b8ff" points="43.38,-31.81 39.88,-21.81 36.38,-31.81 43.38,-31.81"/>
</a>
</g>
</g>
<!-- Node5&#45;&gt;Node3 -->
<g id="edge9_Node000005_Node000003" class="edge">
<title>Node5&#45;&gt;Node3</title>
<g id="a_edge9_Node000005_Node000003"><a xlink:title=" ">
<path fill="none" stroke="#63b8ff" d="M115.85,-111.59C102.08,-103.51 81.97,-91.71 65.9,-82.27"/>
<polygon fill="#63b8ff" stroke="#63b8ff" points="67.73,-79.29 57.33,-77.25 64.18,-85.33 67.73,-79.29"/>
</a>
</g>
</g>
<!-- Node6 -->
<g id="Node000006" class="node">
<title>Node6</title>
<g id="a_Node000006"><a xlink:title=" ">
<polygon fill="#e0e0e0" stroke="#999999" points="141.75,-76 86,-76 86,-56 141.75,-56 141.75,-76"/>
<text text-anchor="middle" x="113.88" y="-62.5" font-family="Helvetica,sans-Serif" font-size="10.00">stdbool.h</text>
</a>
</g>
</g>
<!-- Node5&#45;&gt;Node6 -->
<g id="edge5_Node000005_Node000006" class="edge">
<title>Node5&#45;&gt;Node6</title>
<g id="a_edge5_Node000005_Node000006"><a xlink:title=" ">
<path fill="none" stroke="#63b8ff" d="M128.74,-111.59C126.49,-104.86 123.39,-95.53 120.59,-87.15"/>
<polygon fill="#63b8ff" stroke="#63b8ff" points="123.94,-86.11 117.45,-77.73 117.3,-88.33 123.94,-86.11"/>
</a>
</g>
</g>
<!-- Node7 -->
<g id="Node000007" class="node">
<title>Node7</title>
<g id="a_Node000007"><a xlink:title=" ">
<polygon fill="#e0e0e0" stroke="#999999" points="275.25,-20 240.5,-20 240.5,0 275.25,0 275.25,-20"/>
<text text-anchor="middle" x="257.88" y="-6.5" font-family="Helvetica,sans-Serif" font-size="10.00">cc.h</text>
</a>
</g>
</g>
<!-- Node5&#45;&gt;Node7 -->
<g id="edge6_Node000005_Node000007" class="edge">
<title>Node5&#45;&gt;Node7</title>
<g id="a_edge6_Node000005_Node000007"><a xlink:title=" ">
<path fill="none" stroke="#63b8ff" d="M138.73,-111.93C148.98,-98.71 169.29,-73.82 189.88,-56 202.63,-44.96 218.24,-34.45 231.29,-26.37"/>
<polygon fill="#63b8ff" stroke="#63b8ff" points="233.05,-29.39 239.8,-21.22 229.43,-23.4 233.05,-29.39"/>
</a>
</g>
</g>
<!-- Node5&#45;&gt;Node8 -->
<g id="edge7_Node000005_Node000008" class="edge">
<title>Node5&#45;&gt;Node8</title>
<g id="a_edge7_Node000005_Node000008"><a xlink:title=" ">
<path fill="none" stroke="#63b8ff" d="M148.77,-111.59C163.42,-103.44 184.9,-91.48 201.92,-82"/>
<polygon fill="#63b8ff" stroke="#63b8ff" points="203.49,-85.14 210.52,-77.22 200.08,-79.02 203.49,-85.14"/>
</a>
</g>
</g>
<!-- Node8&#45;&gt;Node7 -->
<g id="edge8_Node000008_Node000007" class="edge">
<title>Node8&#45;&gt;Node7</title>
<g id="a_edge8_Node000008_Node000007"><a xlink:title=" ">
<path fill="none" stroke="#63b8ff" d="M233.93,-55.59C237.67,-48.63 242.9,-38.89 247.52,-30.29"/>
<polygon fill="#63b8ff" stroke="#63b8ff" points="250.52,-32.1 252.17,-21.63 244.35,-28.79 250.52,-32.1"/>
</a>
</g>
</g>
<!-- Node9&#45;&gt;Node7 -->
<g id="edge13_Node000009_Node000007" class="edge">
<title>Node9&#45;&gt;Node7</title>
<g id="a_edge13_Node000009_Node000007"><a xlink:title=" ">
<path fill="none" stroke="#63b8ff" d="M272.01,-111.69C272.06,-99.02 271.71,-75.68 268.88,-56 267.69,-47.75 265.66,-38.8 263.66,-31.07"/>
<polygon fill="#63b8ff" stroke="#63b8ff" points="267.1,-30.38 261.08,-21.66 260.35,-32.23 267.1,-30.38"/>
</a>
</g>
</g>
<!-- Node10&#45;&gt;Node7 -->
<g id="edge15_Node000010_Node000007" class="edge">
<title>Node10&#45;&gt;Node7</title>
<g id="a_edge15_Node000010_Node000007"><a xlink:title=" ">
<path fill="none" stroke="#63b8ff" d="M342.03,-111.62C326.75,-93.36 292.78,-52.73 272.99,-29.07"/>
<polygon fill="#63b8ff" stroke="#63b8ff" points="275.77,-26.94 266.67,-21.52 270.4,-31.43 275.77,-26.94"/>
</a>
</g>
</g>
</g>
</svg>
