<?xml version="1.0" encoding="UTF-8" standalone="no"?>
<!DOCTYPE svg PUBLIC "-//W3C//DTD SVG 1.1//EN"
 "http://www.w3.org/Graphics/SVG/1.1/DTD/svg11.dtd">
<!-- Generated by graphviz version 12.2.1 (20241206.2353)
 -->
<!-- Title: SDO_download Pages: 1 -->
<svg width="539pt" height="294pt"
 viewBox="0.00 0.00 539.25 294.00" xmlns="http://www.w3.org/2000/svg" xmlns:xlink="http://www.w3.org/1999/xlink">
<g id="graph0" class="graph" transform="scale(1 1) rotate(0) translate(4 290)">
<title>SDO_download</title>
<!-- Node1 -->
<g id="Node000001" class="node">
<title>Node1</title>
<g id="a_Node000001"><a xlink:title=" ">
<polygon fill="#999999" stroke="#666666" points="84.25,-153 0,-153 0,-133 84.25,-133 84.25,-153"/>
<text text-anchor="middle" x="42.12" y="-139.5" font-family="Helvetica,sans-Serif" font-size="10.00">SDO_download</text>
</a>
</g>
</g>
<!-- Node2 -->
<g id="Node000002" class="node">
<title>Node2</title>
<g id="a_Node000002"><a xlink:href="esc__coe_8c.html#a5482cdfdc514dfd8dda3bef21127d2a3" target="_top" xlink:title=" ">
<polygon fill="white" stroke="#666666" points="236,-286 175,-286 175,-266 236,-266 236,-286"/>
<text text-anchor="middle" x="205.5" y="-272.5" font-family="Helvetica,sans-Serif" font-size="10.00">copy2mbx</text>
</a>
</g>
</g>
<!-- Node1&#45;&gt;Node2 -->
<g id="edge1_Node000001_Node000002" class="edge">
<title>Node1&#45;&gt;Node2</title>
<g id="a_edge1_Node000001_Node000002"><a xlink:title=" ">
<path fill="none" stroke="#63b8ff" d="M47.59,-153.49C57.4,-175.29 82.98,-225.6 120.25,-252 133.01,-261.04 149.1,-266.69 163.8,-270.21"/>
<polygon fill="#63b8ff" stroke="#63b8ff" points="162.7,-273.55 173.21,-272.2 164.15,-266.71 162.7,-273.55"/>
</a>
</g>
</g>
<!-- Node3 -->
<g id="Node000003" class="node">
<title>Node3</title>
<g id="a_Node000003"><a xlink:href="esc_8c.html#a841fc5ea333edff6f722521e0cc257b0" target="_top" xlink:title=" ">
<polygon fill="white" stroke="#666666" points="531.25,-210 441.75,-210 441.75,-190 531.25,-190 531.25,-210"/>
<text text-anchor="middle" x="486.5" y="-196.5" font-family="Helvetica,sans-Serif" font-size="10.00">ESC_claimbuffer</text>
</a>
</g>
</g>
<!-- Node1&#45;&gt;Node3 -->
<g id="edge2_Node000001_Node000003" class="edge">
<title>Node1&#45;&gt;Node3</title>
<g id="a_edge2_Node000001_Node000003"><a xlink:title=" ">
<path fill="none" stroke="#63b8ff" d="M49.64,-153.4C61.28,-170.89 87.55,-205.6 120.25,-219 229.42,-263.75 372.53,-233.53 442.8,-213.59"/>
<polygon fill="#63b8ff" stroke="#63b8ff" points="443.36,-217.08 451.99,-210.92 441.41,-210.36 443.36,-217.08"/>
</a>
</g>
</g>
<!-- Node4 -->
<g id="Node000004" class="node">
<title>Node4</title>
<g id="a_Node000004"><a xlink:href="ecat__slv_8c.html#ad5689b7086ef5eac827fe545aeb1faf2" target="_top" xlink:title=" ">
<polygon fill="white" stroke="#666666" points="290.75,-210 120.25,-210 120.25,-190 290.75,-190 290.75,-210"/>
<text text-anchor="middle" x="205.5" y="-196.5" font-family="Helvetica,sans-Serif" font-size="10.00">ESC_download_post_objecthandler</text>
</a>
</g>
</g>
<!-- Node1&#45;&gt;Node4 -->
<g id="edge3_Node000001_Node000004" class="edge">
<title>Node1&#45;&gt;Node4</title>
<g id="a_edge3_Node000001_Node000004"><a xlink:title=" ">
<path fill="none" stroke="#63b8ff" d="M65.44,-153.44C80.68,-160.35 101.45,-169.33 120.25,-176 130.68,-179.7 141.98,-183.23 152.82,-186.4"/>
<polygon fill="#63b8ff" stroke="#63b8ff" points="151.86,-189.76 162.43,-189.14 153.78,-183.03 151.86,-189.76"/>
</a>
</g>
</g>
<!-- Node5 -->
<g id="Node000005" class="node">
<title>Node5</title>
<g id="a_Node000005"><a xlink:href="ecat__slv_8c.html#a1df5fad5506e2dd539415866ebc4d8aa" target="_top" xlink:title=" ">
<polygon fill="white" stroke="#666666" points="288.12,-20 122.88,-20 122.88,0 288.12,0 288.12,-20"/>
<text text-anchor="middle" x="205.5" y="-6.5" font-family="Helvetica,sans-Serif" font-size="10.00">ESC_download_pre_objecthandler</text>
</a>
</g>
</g>
<!-- Node1&#45;&gt;Node5 -->
<g id="edge4_Node000001_Node000005" class="edge">
<title>Node1&#45;&gt;Node5</title>
<g id="a_edge4_Node000001_Node000005"><a xlink:title=" ">
<path fill="none" stroke="#63b8ff" d="M47.05,-132.55C56.16,-109.82 80.97,-55.81 120.25,-29 122.23,-27.65 124.3,-26.39 126.43,-25.22"/>
<polygon fill="#63b8ff" stroke="#63b8ff" points="127.85,-28.42 135.41,-21 124.87,-22.08 127.85,-28.42"/>
</a>
</g>
</g>
<!-- Node7 -->
<g id="Node000007" class="node">
<title>Node7</title>
<g id="a_Node000007"><a xlink:href="esc__coe_8c.html#aac681a56f7758d04a40543c73b00a590" target="_top" xlink:title=" ">
<polygon fill="white" stroke="#666666" points="529,-68 444,-68 444,-48 529,-48 529,-68"/>
<text text-anchor="middle" x="486.5" y="-54.5" font-family="Helvetica,sans-Serif" font-size="10.00">SDO_findobject</text>
</a>
</g>
</g>
<!-- Node1&#45;&gt;Node7 -->
<g id="edge9_Node000001_Node000007" class="edge">
<title>Node1&#45;&gt;Node7</title>
<g id="a_edge9_Node000001_Node000007"><a xlink:title=" ">
<path fill="none" stroke="#63b8ff" d="M60.21,-132.52C75.41,-123.72 98.53,-111.55 120.25,-105 227.95,-72.52 360.15,-62.49 432.29,-59.39"/>
<polygon fill="#63b8ff" stroke="#63b8ff" points="432.4,-62.88 442.26,-58.99 432.12,-55.89 432.4,-62.88"/>
</a>
</g>
</g>
<!-- Node8 -->
<g id="Node000008" class="node">
<title>Node8</title>
<g id="a_Node000008"><a xlink:href="esc__coe_8c.html#a927a96f01e837b4f879a2b6408c1e389" target="_top" xlink:title=" ">
<polygon fill="white" stroke="#666666" points="398.62,-172 333.88,-172 333.88,-152 398.62,-152 398.62,-172"/>
<text text-anchor="middle" x="366.25" y="-158.5" font-family="Helvetica,sans-Serif" font-size="10.00">SDO_abort</text>
</a>
</g>
</g>
<!-- Node1&#45;&gt;Node8 -->
<g id="edge7_Node000001_Node000008" class="edge">
<title>Node1&#45;&gt;Node8</title>
<g id="a_edge7_Node000001_Node000008"><a xlink:title=" ">
<path fill="none" stroke="#63b8ff" d="M84.58,-145.45C145.88,-149.06 260.13,-155.8 322.29,-159.47"/>
<polygon fill="#63b8ff" stroke="#63b8ff" points="321.93,-162.95 332.12,-160.05 322.34,-155.96 321.93,-162.95"/>
</a>
</g>
</g>
<!-- Node9 -->
<g id="Node000009" class="node">
<title>Node9</title>
<g id="a_Node000009"><a xlink:href="esc__coe_8c.html#ac3a3804b9252a5cfd48a14c2db1cf2e1" target="_top" xlink:title=" ">
<polygon fill="white" stroke="#666666" points="254.38,-58 156.62,-58 156.62,-38 254.38,-38 254.38,-58"/>
<text text-anchor="middle" x="205.5" y="-44.5" font-family="Helvetica,sans-Serif" font-size="10.00">SDO_findsubindex</text>
</a>
</g>
</g>
<!-- Node1&#45;&gt;Node9 -->
<g id="edge10_Node000001_Node000009" class="edge">
<title>Node1&#45;&gt;Node9</title>
<g id="a_edge10_Node000001_Node000009"><a xlink:title=" ">
<path fill="none" stroke="#63b8ff" d="M51.49,-132.69C64.56,-117.25 91.35,-88.19 120.25,-72 127.99,-67.66 136.58,-64.05 145.23,-61.07"/>
<polygon fill="#63b8ff" stroke="#63b8ff" points="146.24,-64.42 154.72,-58.07 144.13,-57.75 146.24,-64.42"/>
</a>
</g>
</g>
<!-- Node10 -->
<g id="Node000010" class="node">
<title>Node10</title>
<g id="a_Node000010"><a xlink:href="esc__coe_8c.html#ac7d1077ca74f53fc6d1366021e3d7066" target="_top" xlink:title=" ">
<polygon fill="white" stroke="#666666" points="243.88,-134 167.12,-134 167.12,-114 243.88,-114 243.88,-134"/>
<text text-anchor="middle" x="205.5" y="-120.5" font-family="Helvetica,sans-Serif" font-size="10.00">set_state_idle</text>
</a>
</g>
</g>
<!-- Node1&#45;&gt;Node10 -->
<g id="edge11_Node000001_Node000010" class="edge">
<title>Node1&#45;&gt;Node10</title>
<g id="a_edge11_Node000001_Node000010"><a xlink:title=" ">
<path fill="none" stroke="#63b8ff" d="M84.68,-138.11C106.23,-135.57 132.7,-132.45 155.27,-129.8"/>
<polygon fill="#63b8ff" stroke="#63b8ff" points="155.65,-133.28 165.17,-128.63 154.83,-126.32 155.65,-133.28"/>
</a>
</g>
</g>
<!-- Node6 -->
<g id="Node000006" class="node">
<title>Node6</title>
<g id="a_Node000006"><a xlink:href="esc__coe_8c.html#a95a6006aa8164dafac3411bfe60aa21b" target="_top" xlink:title=" ">
<polygon fill="white" stroke="#666666" points="405.75,-39 326.75,-39 326.75,-19 405.75,-19 405.75,-39"/>
<text text-anchor="middle" x="366.25" y="-25.5" font-family="Helvetica,sans-Serif" font-size="10.00">COE_maxSub</text>
</a>
</g>
</g>
<!-- Node5&#45;&gt;Node6 -->
<g id="edge5_Node000005_Node000006" class="edge">
<title>Node5&#45;&gt;Node6</title>
<g id="a_edge5_Node000005_Node000006"><a xlink:title=" ">
<path fill="none" stroke="#63b8ff" d="M288.2,-19.78C297.39,-20.88 306.54,-21.97 315.16,-23"/>
<polygon fill="#63b8ff" stroke="#63b8ff" points="314.68,-26.47 325.03,-24.19 315.51,-19.52 314.68,-26.47"/>
</a>
</g>
</g>
<!-- Node6&#45;&gt;Node7 -->
<g id="edge6_Node000006_Node000007" class="edge">
<title>Node6&#45;&gt;Node7</title>
<g id="a_edge6_Node000006_Node000007"><a xlink:title=" ">
<path fill="none" stroke="#63b8ff" d="M405.97,-38.5C414.59,-40.61 423.87,-42.89 432.94,-45.11"/>
<polygon fill="#63b8ff" stroke="#63b8ff" points="431.82,-48.44 442.37,-47.42 433.49,-41.64 431.82,-48.44"/>
</a>
</g>
</g>
<!-- Node8&#45;&gt;Node3 -->
<g id="edge8_Node000008_Node000003" class="edge">
<title>Node8&#45;&gt;Node3</title>
<g id="a_edge8_Node000008_Node000003"><a xlink:title=" ">
<path fill="none" stroke="#63b8ff" d="M398.94,-172.18C412.24,-176.46 427.92,-181.5 442.26,-186.1"/>
<polygon fill="#63b8ff" stroke="#63b8ff" points="440.87,-189.33 451.46,-189.06 443.01,-182.67 440.87,-189.33"/>
</a>
</g>
</g>
<!-- Node10&#45;&gt;Node8 -->
<g id="edge12_Node000010_Node000008" class="edge">
<title>Node10&#45;&gt;Node8</title>
<g id="a_edge12_Node000010_Node000008"><a xlink:title=" ">
<path fill="none" stroke="#63b8ff" d="M244.12,-133.01C267.63,-138.63 297.97,-145.9 322.4,-151.74"/>
<polygon fill="#63b8ff" stroke="#63b8ff" points="321.5,-155.13 332.04,-154.05 323.13,-148.32 321.5,-155.13"/>
</a>
</g>
</g>
</g>
</svg>
