<?xml version="1.0" encoding="UTF-8" standalone="no"?>
<!DOCTYPE svg PUBLIC "-//W3C//DTD SVG 1.1//EN"
 "http://www.w3.org/Graphics/SVG/1.1/DTD/svg11.dtd">
<!-- Generated by graphviz version 12.2.1 (20241206.2353)
 -->
<!-- Title: FOE_data Pages: 1 -->
<svg width="313pt" height="163pt"
 viewBox="0.00 0.00 313.25 162.79" xmlns="http://www.w3.org/2000/svg" xmlns:xlink="http://www.w3.org/1999/xlink">
<g id="graph0" class="graph" transform="scale(1 1) rotate(0) translate(4 158.79)">
<title>FOE_data</title>
<!-- Node1 -->
<g id="Node000001" class="node">
<title>Node1</title>
<g id="a_Node000001"><a xlink:title=" ">
<polygon fill="#999999" stroke="#666666" points="60.25,-96 0,-96 0,-76 60.25,-76 60.25,-96"/>
<text text-anchor="middle" x="30.12" y="-82.5" font-family="Helvetica,sans-Serif" font-size="10.00">FOE_data</text>
</a>
</g>
</g>
<!-- Node2 -->
<g id="Node000002" class="node">
<title>Node2</title>
<g id="a_Node000002"><a xlink:href="esc__foe_8c.html#aa0a0cb7fec14e1860220a272c82152c1" target="_top" xlink:title=" ">
<polygon fill="white" stroke="#666666" points="169.62,-134 106.38,-134 106.38,-114 169.62,-114 169.62,-134"/>
<text text-anchor="middle" x="138" y="-120.5" font-family="Helvetica,sans-Serif" font-size="10.00">FOE_abort</text>
</a>
</g>
</g>
<!-- Node1&#45;&gt;Node2 -->
<g id="edge1_Node000001_Node000002" class="edge">
<title>Node1&#45;&gt;Node2</title>
<g id="a_edge1_Node000001_Node000002"><a xlink:title=" ">
<path fill="none" stroke="#63b8ff" d="M60.34,-96.48C71.79,-100.6 85.12,-105.38 97.42,-109.79"/>
<polygon fill="#63b8ff" stroke="#63b8ff" points="95.87,-112.95 106.46,-113.04 98.23,-106.37 95.87,-112.95"/>
</a>
</g>
</g>
<!-- Node4 -->
<g id="Node000004" class="node">
<title>Node4</title>
<g id="a_Node000004"><a xlink:href="esc__foe_8c.html#ab759787663f3dbf3eefc2d7d4ebb7a48" target="_top" xlink:title=" ">
<polygon fill="white" stroke="#666666" points="287.62,-153 233.38,-153 233.38,-133 287.62,-133 287.62,-153"/>
<text text-anchor="middle" x="260.5" y="-139.5" font-family="Helvetica,sans-Serif" font-size="10.00">FOE_init</text>
</a>
</g>
</g>
<!-- Node1&#45;&gt;Node4 -->
<g id="edge6_Node000001_Node000004" class="edge">
<title>Node1&#45;&gt;Node4</title>
<g id="a_edge6_Node000001_Node000004"><a xlink:title=" ">
<path fill="none" stroke="#63b8ff" d="M38.98,-96.49C50,-110.24 71.5,-133.7 96.25,-143 137.07,-158.34 187.79,-155.24 221.77,-150.33"/>
<polygon fill="#63b8ff" stroke="#63b8ff" points="222.22,-153.8 231.55,-148.78 221.12,-146.88 222.22,-153.8"/>
</a>
</g>
</g>
<!-- Node5 -->
<g id="Node000005" class="node">
<title>Node5</title>
<g id="a_Node000005"><a xlink:href="esc__foe_8c.html#a3dc533c94da57271e465fedbab5c3372" target="_top" xlink:title=" ">
<polygon fill="white" stroke="#666666" points="171.88,-96 104.12,-96 104.12,-76 171.88,-76 171.88,-96"/>
<text text-anchor="middle" x="138" y="-82.5" font-family="Helvetica,sans-Serif" font-size="10.00">FOE_fclose</text>
</a>
</g>
</g>
<!-- Node1&#45;&gt;Node5 -->
<g id="edge4_Node000001_Node000005" class="edge">
<title>Node1&#45;&gt;Node5</title>
<g id="a_edge4_Node000001_Node000005"><a xlink:title=" ">
<path fill="none" stroke="#63b8ff" d="M60.62,-86C70.5,-86 81.75,-86 92.53,-86"/>
<polygon fill="#63b8ff" stroke="#63b8ff" points="92.43,-89.5 102.43,-86 92.43,-82.5 92.43,-89.5"/>
</a>
</g>
</g>
<!-- Node6 -->
<g id="Node000006" class="node">
<title>Node6</title>
<g id="a_Node000006"><a xlink:href="esc__foe_8c.html#ade156a8af993e2d107fab2fe1d46a32b" target="_top" xlink:title=" ">
<polygon fill="white" stroke="#666666" points="170.75,-58 105.25,-58 105.25,-38 170.75,-38 170.75,-58"/>
<text text-anchor="middle" x="138" y="-44.5" font-family="Helvetica,sans-Serif" font-size="10.00">FOE_fwrite</text>
</a>
</g>
</g>
<!-- Node1&#45;&gt;Node6 -->
<g id="edge5_Node000001_Node000006" class="edge">
<title>Node1&#45;&gt;Node6</title>
<g id="a_edge5_Node000001_Node000006"><a xlink:title=" ">
<path fill="none" stroke="#63b8ff" d="M60.34,-75.52C71.79,-71.4 85.12,-66.62 97.42,-62.21"/>
<polygon fill="#63b8ff" stroke="#63b8ff" points="98.23,-65.63 106.46,-58.96 95.87,-59.05 98.23,-65.63"/>
</a>
</g>
</g>
<!-- Node7 -->
<g id="Node000007" class="node">
<title>Node7</title>
<g id="a_Node000007"><a xlink:href="esc__foe_8c.html#a4f46f3b293f1ba5213ab65aa6464ae40" target="_top" xlink:title=" ">
<polygon fill="white" stroke="#666666" points="179.75,-20 96.25,-20 96.25,0 179.75,0 179.75,-20"/>
<text text-anchor="middle" x="138" y="-6.5" font-family="Helvetica,sans-Serif" font-size="10.00">FOE_send_ack</text>
</a>
</g>
</g>
<!-- Node1&#45;&gt;Node7 -->
<g id="edge7_Node000001_Node000007" class="edge">
<title>Node1&#45;&gt;Node7</title>
<g id="a_edge7_Node000001_Node000007"><a xlink:title=" ">
<path fill="none" stroke="#63b8ff" d="M40.99,-75.75C53.15,-63.51 74.85,-42.95 96.25,-29 98.06,-27.82 99.96,-26.67 101.91,-25.56"/>
<polygon fill="#63b8ff" stroke="#63b8ff" points="103.25,-28.81 110.49,-21.07 100.01,-22.6 103.25,-28.81"/>
</a>
</g>
</g>
<!-- Node3 -->
<g id="Node000003" class="node">
<title>Node3</title>
<g id="a_Node000003"><a xlink:href="esc_8c.html#a841fc5ea333edff6f722521e0cc257b0" target="_top" xlink:title=" ">
<polygon fill="white" stroke="#666666" points="305.25,-58 215.75,-58 215.75,-38 305.25,-38 305.25,-58"/>
<text text-anchor="middle" x="260.5" y="-44.5" font-family="Helvetica,sans-Serif" font-size="10.00">ESC_claimbuffer</text>
</a>
</g>
</g>
<!-- Node2&#45;&gt;Node3 -->
<g id="edge2_Node000002_Node000003" class="edge">
<title>Node2&#45;&gt;Node3</title>
<g id="a_edge2_Node000002_Node000003"><a xlink:title=" ">
<path fill="none" stroke="#63b8ff" d="M163.08,-113.67C168.65,-111.03 174.49,-108.07 179.75,-105 200.2,-93.06 221.97,-77.27 237.6,-65.33"/>
<polygon fill="#63b8ff" stroke="#63b8ff" points="239.5,-68.28 245.26,-59.39 235.21,-62.75 239.5,-68.28"/>
</a>
</g>
</g>
<!-- Node2&#45;&gt;Node4 -->
<g id="edge3_Node000002_Node000004" class="edge">
<title>Node2&#45;&gt;Node4</title>
<g id="a_edge3_Node000002_Node000004"><a xlink:title=" ">
<path fill="none" stroke="#63b8ff" d="M170.03,-128.89C185.9,-131.39 205.33,-134.46 222.02,-137.09"/>
<polygon fill="#63b8ff" stroke="#63b8ff" points="221.15,-140.5 231.57,-138.6 222.24,-133.58 221.15,-140.5"/>
</a>
</g>
</g>
<!-- Node7&#45;&gt;Node3 -->
<g id="edge8_Node000007_Node000003" class="edge">
<title>Node7&#45;&gt;Node3</title>
<g id="a_edge8_Node000007_Node000003"><a xlink:title=" ">
<path fill="none" stroke="#63b8ff" d="M172.25,-20.48C185.68,-24.72 201.37,-29.67 215.72,-34.19"/>
<polygon fill="#63b8ff" stroke="#63b8ff" points="214.33,-37.43 224.92,-37.09 216.43,-30.75 214.33,-37.43"/>
</a>
</g>
</g>
</g>
</svg>
