<?xml version="1.0" encoding="UTF-8" standalone="no"?>
<!DOCTYPE svg PUBLIC "-//W3C//DTD SVG 1.1//EN"
 "http://www.w3.org/Graphics/SVG/1.1/DTD/svg11.dtd">
<!-- Generated by graphviz version 12.2.1 (20241206.2353)
 -->
<!-- Title: esc.h Pages: 1 -->
<svg width="267pt" height="140pt"
 viewBox="0.00 0.00 266.75 140.00" xmlns="http://www.w3.org/2000/svg" xmlns:xlink="http://www.w3.org/1999/xlink">
<g id="graph0" class="graph" transform="scale(1 1) rotate(0) translate(4 136)">
<title>esc.h</title>
<!-- Node1 -->
<g id="Node000001" class="node">
<title>Node1</title>
<g id="a_Node000001"><a xlink:title="Headerfile for esc.h.">
<polygon fill="#999999" stroke="#666666" points="132.88,-132 92.88,-132 92.88,-112 132.88,-112 132.88,-132"/>
<text text-anchor="middle" x="112.88" y="-118.5" font-family="Helvetica,sans-Serif" font-size="10.00">esc.h</text>
</a>
</g>
</g>
<!-- Node2 -->
<g id="Node000002" class="node">
<title>Node2</title>
<g id="a_Node000002"><a xlink:title=" ">
<polygon fill="#e0e0e0" stroke="#999999" points="55.75,-76 0,-76 0,-56 55.75,-56 55.75,-76"/>
<text text-anchor="middle" x="27.88" y="-62.5" font-family="Helvetica,sans-Serif" font-size="10.00">stdbool.h</text>
</a>
</g>
</g>
<!-- Node1&#45;&gt;Node2 -->
<g id="edge1_Node000001_Node000002" class="edge">
<title>Node1&#45;&gt;Node2</title>
<g id="a_edge1_Node000001_Node000002"><a xlink:title=" ">
<path fill="none" stroke="#63b8ff" d="M98.07,-111.59C85.47,-103.59 67.12,-91.93 52.34,-82.54"/>
<polygon fill="#63b8ff" stroke="#63b8ff" points="54.39,-79.7 44.07,-77.29 50.64,-85.61 54.39,-79.7"/>
</a>
</g>
</g>
<!-- Node3 -->
<g id="Node000003" class="node">
<title>Node3</title>
<g id="a_Node000003"><a xlink:title=" ">
<polygon fill="#e0e0e0" stroke="#999999" points="131.25,-20 96.5,-20 96.5,0 131.25,0 131.25,-20"/>
<text text-anchor="middle" x="113.88" y="-6.5" font-family="Helvetica,sans-Serif" font-size="10.00">cc.h</text>
</a>
</g>
</g>
<!-- Node1&#45;&gt;Node3 -->
<g id="edge2_Node000001_Node000003" class="edge">
<title>Node1&#45;&gt;Node3</title>
<g id="a_edge2_Node000001_Node000003"><a xlink:title=" ">
<path fill="none" stroke="#63b8ff" d="M110.15,-111.76C106.76,-99.18 101.69,-75.93 103.88,-56 104.77,-47.85 106.55,-39.02 108.36,-31.35"/>
<polygon fill="#63b8ff" stroke="#63b8ff" points="111.75,-32.23 110.83,-21.68 104.97,-30.5 111.75,-32.23"/>
</a>
</g>
</g>
<!-- Node4 -->
<g id="Node000004" class="node">
<title>Node4</title>
<g id="a_Node000004"><a xlink:href="esc__coe_8h.html" target="_top" xlink:title="Headerfile for esc_coe.c.">
<polygon fill="white" stroke="#666666" points="173.38,-76 112.38,-76 112.38,-56 173.38,-56 173.38,-76"/>
<text text-anchor="middle" x="142.88" y="-62.5" font-family="Helvetica,sans-Serif" font-size="10.00">esc_coe.h</text>
</a>
</g>
</g>
<!-- Node1&#45;&gt;Node4 -->
<g id="edge3_Node000001_Node000004" class="edge">
<title>Node1&#45;&gt;Node4</title>
<g id="a_edge3_Node000001_Node000004"><a xlink:title=" ">
<path fill="none" stroke="#63b8ff" d="M118.1,-111.59C121.97,-104.63 127.38,-94.89 132.16,-86.29"/>
<polygon fill="#63b8ff" stroke="#63b8ff" points="135.18,-88.06 136.97,-77.62 129.06,-84.66 135.18,-88.06"/>
</a>
</g>
</g>
<!-- Node5 -->
<g id="Node000005" class="node">
<title>Node5</title>
<g id="a_Node000005"><a xlink:href="options_8h.html" target="_top" xlink:title=" ">
<polygon fill="white" stroke="#666666" points="246.75,-76 191,-76 191,-56 246.75,-56 246.75,-76"/>
<text text-anchor="middle" x="218.88" y="-62.5" font-family="Helvetica,sans-Serif" font-size="10.00">options.h</text>
</a>
</g>
</g>
<!-- Node1&#45;&gt;Node5 -->
<g id="edge5_Node000001_Node000005" class="edge">
<title>Node1&#45;&gt;Node5</title>
<g id="a_edge5_Node000001_Node000005"><a xlink:title=" ">
<path fill="none" stroke="#63b8ff" d="M131.34,-111.59C147.58,-103.32 171.48,-91.14 190.21,-81.6"/>
<polygon fill="#63b8ff" stroke="#63b8ff" points="191.6,-84.82 198.92,-77.17 188.42,-78.59 191.6,-84.82"/>
</a>
</g>
</g>
<!-- Node4&#45;&gt;Node3 -->
<g id="edge4_Node000004_Node000003" class="edge">
<title>Node4&#45;&gt;Node3</title>
<g id="a_edge4_Node000004_Node000003"><a xlink:title=" ">
<path fill="none" stroke="#63b8ff" d="M137.82,-55.59C134.08,-48.63 128.85,-38.89 124.23,-30.29"/>
<polygon fill="#63b8ff" stroke="#63b8ff" points="127.4,-28.79 119.58,-21.63 121.23,-32.1 127.4,-28.79"/>
</a>
</g>
</g>
<!-- Node6 -->
<g id="Node000006" class="node">
<title>Node6</title>
<g id="a_Node000006"><a xlink:title=" ">
<polygon fill="#e0e0e0" stroke="#999999" points="258.75,-20 179,-20 179,0 258.75,0 258.75,-20"/>
<text text-anchor="middle" x="218.88" y="-6.5" font-family="Helvetica,sans-Serif" font-size="10.00">ecat_options.h</text>
</a>
</g>
</g>
<!-- Node5&#45;&gt;Node6 -->
<g id="edge6_Node000005_Node000006" class="edge">
<title>Node5&#45;&gt;Node6</title>
<g id="a_edge6_Node000005_Node000006"><a xlink:title=" ">
<path fill="none" stroke="#63b8ff" d="M218.88,-55.59C218.88,-49.01 218.88,-39.96 218.88,-31.73"/>
<polygon fill="#63b8ff" stroke="#63b8ff" points="222.38,-31.81 218.88,-21.81 215.38,-31.81 222.38,-31.81"/>
</a>
</g>
</g>
</g>
</svg>
