<?xml version="1.0" encoding="UTF-8" standalone="no"?>
<!DOCTYPE svg PUBLIC "-//W3C//DTD SVG 1.1//EN"
 "http://www.w3.org/Graphics/SVG/1.1/DTD/svg11.dtd">
<!-- Generated by graphviz version 12.2.1 (20241206.2353)
 -->
<!-- Title: COE_pdoUnpack Pages: 1 -->
<svg width="226pt" height="66pt"
 viewBox="0.00 0.00 226.00 66.00" xmlns="http://www.w3.org/2000/svg" xmlns:xlink="http://www.w3.org/1999/xlink">
<g id="graph0" class="graph" transform="scale(1 1) rotate(0) translate(4 62)">
<title>COE_pdoUnpack</title>
<!-- Node1 -->
<g id="Node000001" class="node">
<title>Node1</title>
<g id="a_Node000001"><a xlink:title=" ">
<polygon fill="#999999" stroke="#666666" points="92.5,-39 0,-39 0,-19 92.5,-19 92.5,-39"/>
<text text-anchor="middle" x="46.25" y="-25.5" font-family="Helvetica,sans-Serif" font-size="10.00">COE_pdoUnpack</text>
</a>
</g>
</g>
<!-- Node2 -->
<g id="Node000002" class="node">
<title>Node2</title>
<g id="a_Node000002"><a xlink:href="esc__coe_8c.html#a1854528ce30236500a53c4aa4fd9a091" target="_top" xlink:title=" ">
<polygon fill="white" stroke="#666666" points="218,-58 128.5,-58 128.5,-38 218,-38 218,-58"/>
<text text-anchor="middle" x="173.25" y="-44.5" font-family="Helvetica,sans-Serif" font-size="10.00">COE_bitsliceGet</text>
</a>
</g>
</g>
<!-- Node1&#45;&gt;Node2 -->
<g id="edge1_Node000001_Node000002" class="edge">
<title>Node1&#45;&gt;Node2</title>
<g id="a_edge1_Node000001_Node000002"><a xlink:title=" ">
<path fill="none" stroke="#63b8ff" d="M92.73,-35.91C100.61,-37.11 108.87,-38.37 116.98,-39.6"/>
<polygon fill="#63b8ff" stroke="#63b8ff" points="116.35,-43.04 126.77,-41.09 117.41,-36.12 116.35,-43.04"/>
</a>
</g>
</g>
<!-- Node3 -->
<g id="Node000003" class="node">
<title>Node3</title>
<g id="a_Node000003"><a xlink:href="esc__coe_8c.html#a87ec225d990b8a3c055779364dc05ded" target="_top" xlink:title=" ">
<polygon fill="white" stroke="#666666" points="213.5,-20 133,-20 133,0 213.5,0 213.5,-20"/>
<text text-anchor="middle" x="173.25" y="-6.5" font-family="Helvetica,sans-Serif" font-size="10.00">COE_setValue</text>
</a>
</g>
</g>
<!-- Node1&#45;&gt;Node3 -->
<g id="edge2_Node000001_Node000003" class="edge">
<title>Node1&#45;&gt;Node3</title>
<g id="a_edge2_Node000001_Node000003"><a xlink:title=" ">
<path fill="none" stroke="#63b8ff" d="M92.73,-22.09C102.06,-20.67 111.94,-19.17 121.44,-17.72"/>
<polygon fill="#63b8ff" stroke="#63b8ff" points="121.93,-21.19 131.29,-16.23 120.88,-14.27 121.93,-21.19"/>
</a>
</g>
</g>
</g>
</svg>
