<?xml version="1.0" encoding="UTF-8" standalone="no"?>
<!DOCTYPE svg PUBLIC "-//W3C//DTD SVG 1.1//EN"
 "http://www.w3.org/Graphics/SVG/1.1/DTD/svg11.dtd">
<!-- Generated by graphviz version 12.2.1 (20241206.2353)
 -->
<!-- Title: esc_coe.h Pages: 1 -->
<svg width="536pt" height="196pt"
 viewBox="0.00 0.00 536.12 196.00" xmlns="http://www.w3.org/2000/svg" xmlns:xlink="http://www.w3.org/1999/xlink">
<g id="graph0" class="graph" transform="scale(1 1) rotate(0) translate(4 192)">
<title>esc_coe.h</title>
<!-- Node1 -->
<g id="Node000001" class="node">
<title>Node1</title>
<g id="a_Node000001"><a xlink:title="Headerfile for esc_coe.c.">
<polygon fill="#999999" stroke="#666666" points="237.5,-188 176.5,-188 176.5,-168 237.5,-168 237.5,-188"/>
<text text-anchor="middle" x="207" y="-174.5" font-family="Helvetica,sans-Serif" font-size="10.00">esc_coe.h</text>
</a>
</g>
</g>
<!-- Node2 -->
<g id="Node000002" class="node">
<title>Node2</title>
<g id="a_Node000002"><a xlink:href="ecat__slv_8c.html" target="_top" xlink:title=" ">
<polygon fill="white" stroke="#666666" points="528.12,-20 467.88,-20 467.88,0 528.12,0 528.12,-20"/>
<text text-anchor="middle" x="498" y="-6.5" font-family="Helvetica,sans-Serif" font-size="10.00">ecat_slv.c</text>
</a>
</g>
</g>
<!-- Node1&#45;&gt;Node2 -->
<g id="edge1_Node000001_Node000002" class="edge">
<title>Node1&#45;&gt;Node2</title>
<g id="a_edge1_Node000001_Node000002"><a xlink:title=" ">
<path fill="none" stroke="#63b8ff" d="M248.75,-176.65C314.71,-173.56 441.46,-156.79 499,-76 510.79,-59.45 505.5,-34.04 501.33,-20.41"/>
<polygon fill="#63b8ff" stroke="#63b8ff" points="248.92,-173.14 239.06,-177.01 249.19,-180.14 248.92,-173.14"/>
</a>
</g>
</g>
<!-- Node3 -->
<g id="Node000003" class="node">
<title>Node3</title>
<g id="a_Node000003"><a xlink:href="esc_8c.html" target="_top" xlink:title="Base EtherCAT functions for handling the Data Link Layer and Malilboxes.">
<polygon fill="white" stroke="#666666" points="40,-76 0,-76 0,-56 40,-56 40,-76"/>
<text text-anchor="middle" x="20" y="-62.5" font-family="Helvetica,sans-Serif" font-size="10.00">esc.c</text>
</a>
</g>
</g>
<!-- Node1&#45;&gt;Node3 -->
<g id="edge2_Node000001_Node000003" class="edge">
<title>Node1&#45;&gt;Node3</title>
<g id="a_edge2_Node000001_Node000003"><a xlink:title=" ">
<path fill="none" stroke="#63b8ff" d="M181.17,-161.81C141.88,-138.69 68.23,-95.37 35.9,-76.35"/>
<polygon fill="#63b8ff" stroke="#63b8ff" points="179.36,-164.8 189.75,-166.85 182.91,-158.77 179.36,-164.8"/>
</a>
</g>
</g>
<!-- Node4 -->
<g id="Node000004" class="node">
<title>Node4</title>
<g id="a_Node000004"><a xlink:href="esc_8h.html" target="_top" xlink:title="Headerfile for esc.h.">
<polygon fill="white" stroke="#666666" points="267,-132 227,-132 227,-112 267,-112 267,-132"/>
<text text-anchor="middle" x="247" y="-118.5" font-family="Helvetica,sans-Serif" font-size="10.00">esc.h</text>
</a>
</g>
</g>
<!-- Node1&#45;&gt;Node4 -->
<g id="edge3_Node000001_Node000004" class="edge">
<title>Node1&#45;&gt;Node4</title>
<g id="a_edge3_Node000001_Node000004"><a xlink:title=" ">
<path fill="none" stroke="#63b8ff" d="M220.75,-158.44C227.28,-149.62 234.8,-139.47 240.11,-132.3"/>
<polygon fill="#63b8ff" stroke="#63b8ff" points="218.01,-156.26 214.87,-166.38 223.63,-160.43 218.01,-156.26"/>
</a>
</g>
</g>
<!-- Node6 -->
<g id="Node000006" class="node">
<title>Node6</title>
<g id="a_Node000006"><a xlink:href="esc__coe_8c.html" target="_top" xlink:title="CAN over EtherCAT (CoE) module.">
<polygon fill="white" stroke="#666666" points="119.5,-76 58.5,-76 58.5,-56 119.5,-56 119.5,-76"/>
<text text-anchor="middle" x="89" y="-62.5" font-family="Helvetica,sans-Serif" font-size="10.00">esc_coe.c</text>
</a>
</g>
</g>
<!-- Node1&#45;&gt;Node6 -->
<g id="edge14_Node000001_Node000006" class="edge">
<title>Node1&#45;&gt;Node6</title>
<g id="a_edge14_Node000001_Node000006"><a xlink:title=" ">
<path fill="none" stroke="#63b8ff" d="M188.59,-159.84C163.35,-136.31 118.87,-94.84 99.04,-76.35"/>
<polygon fill="#63b8ff" stroke="#63b8ff" points="186.13,-162.33 195.83,-166.59 190.9,-157.21 186.13,-162.33"/>
</a>
</g>
</g>
<!-- Node4&#45;&gt;Node2 -->
<g id="edge4_Node000004_Node000002" class="edge">
<title>Node4&#45;&gt;Node2</title>
<g id="a_edge4_Node000004_Node000002"><a xlink:title=" ">
<path fill="none" stroke="#63b8ff" d="M278.69,-118.87C335.17,-114.45 450.04,-102.39 479,-76 494.99,-61.43 497.81,-34.22 498.13,-20.07"/>
<polygon fill="#63b8ff" stroke="#63b8ff" points="278.47,-115.38 268.76,-119.61 279,-122.36 278.47,-115.38"/>
</a>
</g>
</g>
<!-- Node4&#45;&gt;Node3 -->
<g id="edge7_Node000004_Node000003" class="edge">
<title>Node4&#45;&gt;Node3</title>
<g id="a_edge7_Node000004_Node000003"><a xlink:title=" ">
<path fill="none" stroke="#63b8ff" d="M215.64,-114.51C176.64,-106.29 108.1,-91.33 50,-76 46.85,-75.17 43.52,-74.23 40.28,-73.28"/>
<polygon fill="#63b8ff" stroke="#63b8ff" points="214.77,-117.91 225.27,-116.53 216.2,-111.06 214.77,-117.91"/>
</a>
</g>
</g>
<!-- Node5 -->
<g id="Node000005" class="node">
<title>Node5</title>
<g id="a_Node000005"><a xlink:href="ecat__slv_8h.html" target="_top" xlink:title=" ">
<polygon fill="white" stroke="#666666" points="470.12,-76 409.88,-76 409.88,-56 470.12,-56 470.12,-76"/>
<text text-anchor="middle" x="440" y="-62.5" font-family="Helvetica,sans-Serif" font-size="10.00">ecat_slv.h</text>
</a>
</g>
</g>
<!-- Node4&#45;&gt;Node5 -->
<g id="edge5_Node000004_Node000005" class="edge">
<title>Node4&#45;&gt;Node5</title>
<g id="a_edge5_Node000004_Node000005"><a xlink:title=" ">
<path fill="none" stroke="#63b8ff" d="M278.17,-112.28C314.38,-102.15 373.71,-85.55 409.58,-75.51"/>
<polygon fill="#63b8ff" stroke="#63b8ff" points="277.43,-108.85 268.75,-114.92 279.32,-115.59 277.43,-108.85"/>
</a>
</g>
</g>
<!-- Node4&#45;&gt;Node6 -->
<g id="edge8_Node000004_Node000006" class="edge">
<title>Node4&#45;&gt;Node6</title>
<g id="a_edge8_Node000004_Node000006"><a xlink:title=" ">
<path fill="none" stroke="#63b8ff" d="M215.96,-110.39C187.08,-100.52 144.44,-85.95 116.69,-76.46"/>
<polygon fill="#63b8ff" stroke="#63b8ff" points="214.64,-113.64 225.24,-113.56 216.9,-107.02 214.64,-113.64"/>
</a>
</g>
</g>
<!-- Node7 -->
<g id="Node000007" class="node">
<title>Node7</title>
<g id="a_Node000007"><a xlink:href="esc__eep_8c.html" target="_top" xlink:title="ESI EEPROM emulator module.">
<polygon fill="white" stroke="#666666" points="345.5,-20 284.5,-20 284.5,0 345.5,0 345.5,-20"/>
<text text-anchor="middle" x="315" y="-6.5" font-family="Helvetica,sans-Serif" font-size="10.00">esc_eep.c</text>
</a>
</g>
</g>
<!-- Node4&#45;&gt;Node7 -->
<g id="edge9_Node000004_Node000007" class="edge">
<title>Node4&#45;&gt;Node7</title>
<g id="a_edge9_Node000004_Node000007"><a xlink:title=" ">
<path fill="none" stroke="#63b8ff" d="M278.52,-118.35C305.96,-114.18 344.18,-103.48 363,-76 376.87,-55.74 349.35,-32.81 330.54,-20.32"/>
<polygon fill="#63b8ff" stroke="#63b8ff" points="278.13,-114.87 268.65,-119.61 279.02,-121.81 278.13,-114.87"/>
</a>
</g>
</g>
<!-- Node8 -->
<g id="Node000008" class="node">
<title>Node8</title>
<g id="a_Node000008"><a xlink:href="esc__eep_8h.html" target="_top" xlink:title="Headerfile for esc_eep.c.">
<polygon fill="white" stroke="#666666" points="277.5,-76 216.5,-76 216.5,-56 277.5,-56 277.5,-76"/>
<text text-anchor="middle" x="247" y="-62.5" font-family="Helvetica,sans-Serif" font-size="10.00">esc_eep.h</text>
</a>
</g>
</g>
<!-- Node4&#45;&gt;Node8 -->
<g id="edge10_Node000004_Node000008" class="edge">
<title>Node4&#45;&gt;Node8</title>
<g id="a_edge10_Node000004_Node000008"><a xlink:title=" ">
<path fill="none" stroke="#63b8ff" d="M247,-100.13C247,-91.9 247,-82.85 247,-76.3"/>
<polygon fill="#63b8ff" stroke="#63b8ff" points="243.5,-100.08 247,-110.08 250.5,-100.08 243.5,-100.08"/>
</a>
</g>
</g>
<!-- Node9 -->
<g id="Node000009" class="node">
<title>Node9</title>
<g id="a_Node000009"><a xlink:href="esc__eoe_8c.html" target="_top" xlink:title="Ethernet over EtherCAT (EoE) module.">
<polygon fill="white" stroke="#666666" points="198.5,-76 137.5,-76 137.5,-56 198.5,-56 198.5,-76"/>
<text text-anchor="middle" x="168" y="-62.5" font-family="Helvetica,sans-Serif" font-size="10.00">esc_eoe.c</text>
</a>
</g>
</g>
<!-- Node4&#45;&gt;Node9 -->
<g id="edge12_Node000004_Node000009" class="edge">
<title>Node4&#45;&gt;Node9</title>
<g id="a_edge12_Node000004_Node000009"><a xlink:title=" ">
<path fill="none" stroke="#63b8ff" d="M223.99,-105.27C210.34,-95.94 193.5,-84.43 181.87,-76.48"/>
<polygon fill="#63b8ff" stroke="#63b8ff" points="221.76,-107.99 231.99,-110.74 225.71,-102.21 221.76,-107.99"/>
</a>
</g>
</g>
<!-- Node10 -->
<g id="Node000010" class="node">
<title>Node10</title>
<g id="a_Node000010"><a xlink:href="esc__foe_8c.html" target="_top" xlink:title="File over EtherCAT (FoE) module.">
<polygon fill="white" stroke="#666666" points="354.38,-76 295.62,-76 295.62,-56 354.38,-56 354.38,-76"/>
<text text-anchor="middle" x="325" y="-62.5" font-family="Helvetica,sans-Serif" font-size="10.00">esc_foe.c</text>
</a>
</g>
</g>
<!-- Node4&#45;&gt;Node10 -->
<g id="edge13_Node000004_Node000010" class="edge">
<title>Node4&#45;&gt;Node10</title>
<g id="a_edge13_Node000004_Node000010"><a xlink:title=" ">
<path fill="none" stroke="#63b8ff" d="M269.72,-105.27C283.19,-95.94 299.83,-84.43 311.31,-76.48"/>
<polygon fill="#63b8ff" stroke="#63b8ff" points="268.06,-102.16 261.83,-110.73 272.05,-107.92 268.06,-102.16"/>
</a>
</g>
</g>
<!-- Node5&#45;&gt;Node2 -->
<g id="edge6_Node000005_Node000002" class="edge">
<title>Node5&#45;&gt;Node2</title>
<g id="a_edge6_Node000005_Node000002"><a xlink:title=" ">
<path fill="none" stroke="#63b8ff" d="M458.42,-47.85C468.23,-38.72 479.9,-27.86 488.01,-20.3"/>
<polygon fill="#63b8ff" stroke="#63b8ff" points="456.14,-45.19 451.21,-54.56 460.91,-50.31 456.14,-45.19"/>
</a>
</g>
</g>
<!-- Node8&#45;&gt;Node7 -->
<g id="edge11_Node000008_Node000007" class="edge">
<title>Node8&#45;&gt;Node7</title>
<g id="a_edge11_Node000008_Node000007"><a xlink:title=" ">
<path fill="none" stroke="#63b8ff" d="M267.55,-48.68C279.25,-39.39 293.48,-28.09 303.29,-20.3"/>
<polygon fill="#63b8ff" stroke="#63b8ff" points="265.68,-45.69 260.03,-54.65 270.04,-51.17 265.68,-45.69"/>
</a>
</g>
</g>
</g>
</svg>
