<?xml version="1.0" encoding="UTF-8" standalone="no"?>
<!DOCTYPE svg PUBLIC "-//W3C//DTD SVG 1.1//EN"
 "http://www.w3.org/Graphics/SVG/1.1/DTD/svg11.dtd">
<!-- Generated by graphviz version 12.2.1 (20241206.2353)
 -->
<!-- Title: ESC_startinput Pages: 1 -->
<svg width="469pt" height="180pt"
 viewBox="0.00 0.00 468.75 180.00" xmlns="http://www.w3.org/2000/svg" xmlns:xlink="http://www.w3.org/1999/xlink">
<g id="graph0" class="graph" transform="scale(1 1) rotate(0) translate(4 176)">
<title>ESC_startinput</title>
<!-- Node1 -->
<g id="Node000001" class="node">
<title>Node1</title>
<g id="a_Node000001"><a xlink:title=" ">
<polygon fill="#999999" stroke="#666666" points="82.75,-96 0,-96 0,-76 82.75,-76 82.75,-96"/>
<text text-anchor="middle" x="41.38" y="-82.5" font-family="Helvetica,sans-Serif" font-size="10.00">ESC_startinput</text>
</a>
</g>
</g>
<!-- Node2 -->
<g id="Node000002" class="node">
<title>Node2</title>
<g id="a_Node000002"><a xlink:href="esc_8c.html#a5c7d013280d00c551c34a1b4ba268c93" target="_top" xlink:title=" ">
<polygon fill="white" stroke="#666666" points="342,-172 268.25,-172 268.25,-152 342,-152 342,-172"/>
<text text-anchor="middle" x="305.12" y="-158.5" font-family="Helvetica,sans-Serif" font-size="10.00">ESC_ALerror</text>
</a>
</g>
</g>
<!-- Node1&#45;&gt;Node2 -->
<g id="edge1_Node000001_Node000002" class="edge">
<title>Node1&#45;&gt;Node2</title>
<g id="a_edge1_Node000001_Node000002"><a xlink:title=" ">
<path fill="none" stroke="#63b8ff" d="M52.14,-96.12C65.69,-109.45 91.62,-132.43 118.75,-143 163.28,-160.35 218.14,-164.01 256.58,-163.99"/>
<polygon fill="#63b8ff" stroke="#63b8ff" points="256.48,-167.49 266.45,-163.9 256.41,-160.49 256.48,-167.49"/>
</a>
</g>
</g>
<!-- Node4 -->
<g id="Node000004" class="node">
<title>Node4</title>
<g id="a_Node000004"><a xlink:href="esc_8c.html#aa6c20adb1d3173c4a714b3a4b8e27d9d" target="_top" xlink:title=" ">
<polygon fill="white" stroke="#666666" points="207.5,-58 124,-58 124,-38 207.5,-38 207.5,-58"/>
<text text-anchor="middle" x="165.75" y="-44.5" font-family="Helvetica,sans-Serif" font-size="10.00">ESC_checkDC</text>
</a>
</g>
</g>
<!-- Node1&#45;&gt;Node4 -->
<g id="edge3_Node000001_Node000004" class="edge">
<title>Node1&#45;&gt;Node4</title>
<g id="a_edge3_Node000001_Node000004"><a xlink:title=" ">
<path fill="none" stroke="#63b8ff" d="M76.14,-75.52C89.78,-71.28 105.72,-66.33 120.28,-61.81"/>
<polygon fill="#63b8ff" stroke="#63b8ff" points="121.14,-65.21 129.65,-58.9 119.06,-58.52 121.14,-65.21"/>
</a>
</g>
</g>
<!-- Node7 -->
<g id="Node000007" class="node">
<title>Node7</title>
<g id="a_Node000007"><a xlink:href="esc_8c.html#a34be331ed773a4173a360ae2443927b4" target="_top" xlink:title=" ">
<polygon fill="white" stroke="#666666" points="212.75,-20 118.75,-20 118.75,0 212.75,0 212.75,-20"/>
<text text-anchor="middle" x="165.75" y="-6.5" font-family="Helvetica,sans-Serif" font-size="10.00">ESC_checkSM23</text>
</a>
</g>
</g>
<!-- Node1&#45;&gt;Node7 -->
<g id="edge6_Node000001_Node000007" class="edge">
<title>Node1&#45;&gt;Node7</title>
<g id="a_edge6_Node000001_Node000007"><a xlink:title=" ">
<path fill="none" stroke="#63b8ff" d="M54.42,-75.51C68.94,-63.23 94.44,-42.81 118.75,-29 121.1,-27.67 123.55,-26.38 126.06,-25.14"/>
<polygon fill="#63b8ff" stroke="#63b8ff" points="127.48,-28.34 135.11,-21 124.56,-21.98 127.48,-28.34"/>
</a>
</g>
</g>
<!-- Node8 -->
<g id="Node000008" class="node">
<title>Node8</title>
<g id="a_Node000008"><a xlink:href="esc_8c.html#a036429cc7170b895e3b82d79953b93dd" target="_top" xlink:title=" ">
<polygon fill="white" stroke="#666666" points="209.75,-134 121.75,-134 121.75,-114 209.75,-114 209.75,-134"/>
<text text-anchor="middle" x="165.75" y="-120.5" font-family="Helvetica,sans-Serif" font-size="10.00">ESC_SMdisable</text>
</a>
</g>
</g>
<!-- Node1&#45;&gt;Node8 -->
<g id="edge8_Node000001_Node000008" class="edge">
<title>Node1&#45;&gt;Node8</title>
<g id="a_edge8_Node000001_Node000008"><a xlink:title=" ">
<path fill="none" stroke="#63b8ff" d="M76.14,-96.48C89.78,-100.72 105.72,-105.67 120.28,-110.19"/>
<polygon fill="#63b8ff" stroke="#63b8ff" points="119.06,-113.48 129.65,-113.1 121.14,-106.79 119.06,-113.48"/>
</a>
</g>
</g>
<!-- Node11 -->
<g id="Node000011" class="node">
<title>Node11</title>
<g id="a_Node000011"><a xlink:href="esc_8c.html#aa10eebca955ff5d763c94099162781eb" target="_top" xlink:title=" ">
<polygon fill="white" stroke="#666666" points="208.62,-96 122.88,-96 122.88,-76 208.62,-76 208.62,-96"/>
<text text-anchor="middle" x="165.75" y="-82.5" font-family="Helvetica,sans-Serif" font-size="10.00">ESC_SMenable</text>
</a>
</g>
</g>
<!-- Node1&#45;&gt;Node11 -->
<g id="edge13_Node000001_Node000011" class="edge">
<title>Node1&#45;&gt;Node11</title>
<g id="a_edge13_Node000001_Node000011"><a xlink:title=" ">
<path fill="none" stroke="#63b8ff" d="M83.12,-86C92.12,-86 101.78,-86 111.2,-86"/>
<polygon fill="#63b8ff" stroke="#63b8ff" points="110.99,-89.5 120.99,-86 110.99,-82.5 110.99,-89.5"/>
</a>
</g>
</g>
<!-- Node3 -->
<g id="Node000003" class="node">
<title>Node3</title>
<g id="a_Node000003"><a xlink:href="esc_8h.html#a27cd242b7e69eefc3fa1aa5316c87be5" target="_top" xlink:title=" ">
<polygon fill="white" stroke="#666666" points="460.75,-153 397.5,-153 397.5,-133 460.75,-133 460.75,-153"/>
<text text-anchor="middle" x="429.12" y="-139.5" font-family="Helvetica,sans-Serif" font-size="10.00">ESC_write</text>
</a>
</g>
</g>
<!-- Node2&#45;&gt;Node3 -->
<g id="edge2_Node000002_Node000003" class="edge">
<title>Node2&#45;&gt;Node3</title>
<g id="a_edge2_Node000002_Node000003"><a xlink:title=" ">
<path fill="none" stroke="#63b8ff" d="M342.4,-156.35C356.14,-154.21 371.9,-151.76 386.13,-149.54"/>
<polygon fill="#63b8ff" stroke="#63b8ff" points="386.31,-153.05 395.65,-148.06 385.23,-146.14 386.31,-153.05"/>
</a>
</g>
</g>
<!-- Node5 -->
<g id="Node000005" class="node">
<title>Node5</title>
<g id="a_Node000005"><a xlink:href="esc_8c.html#ae7e5712740a38aeb323435df1505c14d" target="_top" xlink:title=" ">
<polygon fill="white" stroke="#666666" points="361.5,-58 248.75,-58 248.75,-38 361.5,-38 361.5,-58"/>
<text text-anchor="middle" x="305.12" y="-44.5" font-family="Helvetica,sans-Serif" font-size="10.00">ESC_SYNCactivation</text>
</a>
</g>
</g>
<!-- Node4&#45;&gt;Node5 -->
<g id="edge4_Node000004_Node000005" class="edge">
<title>Node4&#45;&gt;Node5</title>
<g id="a_edge4_Node000004_Node000005"><a xlink:title=" ">
<path fill="none" stroke="#63b8ff" d="M207.97,-48C217.21,-48 227.25,-48 237.24,-48"/>
<polygon fill="#63b8ff" stroke="#63b8ff" points="236.94,-51.5 246.94,-48 236.94,-44.5 236.94,-51.5"/>
</a>
</g>
</g>
<!-- Node6 -->
<g id="Node000006" class="node">
<title>Node6</title>
<g id="a_Node000006"><a xlink:href="esc_8h.html#a75dc00eb2f8cedcc7440d77a890b93ce" target="_top" xlink:title=" ">
<polygon fill="white" stroke="#666666" points="459.62,-58 398.62,-58 398.62,-38 459.62,-38 459.62,-58"/>
<text text-anchor="middle" x="429.12" y="-44.5" font-family="Helvetica,sans-Serif" font-size="10.00">ESC_read</text>
</a>
</g>
</g>
<!-- Node5&#45;&gt;Node6 -->
<g id="edge5_Node000005_Node000006" class="edge">
<title>Node5&#45;&gt;Node6</title>
<g id="a_edge5_Node000005_Node000006"><a xlink:title=" ">
<path fill="none" stroke="#63b8ff" d="M361.77,-48C370.21,-48 378.8,-48 386.86,-48"/>
<polygon fill="#63b8ff" stroke="#63b8ff" points="386.72,-51.5 396.72,-48 386.72,-44.5 386.72,-51.5"/>
</a>
</g>
</g>
<!-- Node7&#45;&gt;Node6 -->
<g id="edge7_Node000007_Node000006" class="edge">
<title>Node7&#45;&gt;Node6</title>
<g id="a_edge7_Node000007_Node000006"><a xlink:title=" ">
<path fill="none" stroke="#63b8ff" d="M213.12,-12.16C252.79,-14.58 311.27,-19.47 361.5,-29 369.96,-30.61 378.91,-32.8 387.4,-35.13"/>
<polygon fill="#63b8ff" stroke="#63b8ff" points="386.19,-38.42 396.76,-37.81 388.11,-31.69 386.19,-38.42"/>
</a>
</g>
</g>
<!-- Node9 -->
<g id="Node000009" class="node">
<title>Node9</title>
<g id="a_Node000009"><a xlink:href="esc_8c.html#a969f7dcb558f927793b08340e5f0b615" target="_top" xlink:title=" ">
<polygon fill="white" stroke="#666666" points="349.5,-96 260.75,-96 260.75,-76 349.5,-76 349.5,-96"/>
<text text-anchor="middle" x="305.12" y="-82.5" font-family="Helvetica,sans-Serif" font-size="10.00">ESC_SMreadpdi</text>
</a>
</g>
</g>
<!-- Node8&#45;&gt;Node9 -->
<g id="edge9_Node000008_Node000009" class="edge">
<title>Node8&#45;&gt;Node9</title>
<g id="a_edge9_Node000008_Node000009"><a xlink:title=" ">
<path fill="none" stroke="#63b8ff" d="M204.65,-113.52C220.42,-109.15 238.91,-104.04 255.65,-99.41"/>
<polygon fill="#63b8ff" stroke="#63b8ff" points="256.18,-102.89 264.89,-96.85 254.32,-96.15 256.18,-102.89"/>
</a>
</g>
</g>
<!-- Node10 -->
<g id="Node000010" class="node">
<title>Node10</title>
<g id="a_Node000010"><a xlink:href="esc_8c.html#affa1419beb816ec11170d6aa423e1d83" target="_top" xlink:title=" ">
<polygon fill="white" stroke="#666666" points="350.62,-134 259.62,-134 259.62,-114 350.62,-114 350.62,-134"/>
<text text-anchor="middle" x="305.12" y="-120.5" font-family="Helvetica,sans-Serif" font-size="10.00">ESC_SMwritepdi</text>
</a>
</g>
</g>
<!-- Node8&#45;&gt;Node10 -->
<g id="edge11_Node000008_Node000010" class="edge">
<title>Node8&#45;&gt;Node10</title>
<g id="a_edge11_Node000008_Node000010"><a xlink:title=" ">
<path fill="none" stroke="#63b8ff" d="M210.22,-124C222.25,-124 235.49,-124 248.13,-124"/>
<polygon fill="#63b8ff" stroke="#63b8ff" points="248.01,-127.5 258.01,-124 248.01,-120.5 248.01,-127.5"/>
</a>
</g>
</g>
<!-- Node9&#45;&gt;Node6 -->
<g id="edge10_Node000009_Node000006" class="edge">
<title>Node9&#45;&gt;Node6</title>
<g id="a_edge10_Node000009_Node000006"><a xlink:title=" ">
<path fill="none" stroke="#63b8ff" d="M339.78,-75.52C354.54,-70.92 371.99,-65.49 387.46,-60.66"/>
<polygon fill="#63b8ff" stroke="#63b8ff" points="388.37,-64.05 396.87,-57.73 386.28,-57.37 388.37,-64.05"/>
</a>
</g>
</g>
<!-- Node10&#45;&gt;Node3 -->
<g id="edge12_Node000010_Node000003" class="edge">
<title>Node10&#45;&gt;Node3</title>
<g id="a_edge12_Node000010_Node000003"><a xlink:title=" ">
<path fill="none" stroke="#63b8ff" d="M350.86,-130.97C362.27,-132.74 374.49,-134.65 385.78,-136.4"/>
<polygon fill="#63b8ff" stroke="#63b8ff" points="385.2,-139.86 395.62,-137.94 386.28,-132.94 385.2,-139.86"/>
</a>
</g>
</g>
<!-- Node11&#45;&gt;Node9 -->
<g id="edge14_Node000011_Node000009" class="edge">
<title>Node11&#45;&gt;Node9</title>
<g id="a_edge14_Node000011_Node000009"><a xlink:title=" ">
<path fill="none" stroke="#63b8ff" d="M209.09,-86C221.65,-86 235.6,-86 248.85,-86"/>
<polygon fill="#63b8ff" stroke="#63b8ff" points="248.75,-89.5 258.75,-86 248.75,-82.5 248.75,-89.5"/>
</a>
</g>
</g>
<!-- Node11&#45;&gt;Node10 -->
<g id="edge15_Node000011_Node000010" class="edge">
<title>Node11&#45;&gt;Node10</title>
<g id="a_edge15_Node000011_Node000010"><a xlink:title=" ">
<path fill="none" stroke="#63b8ff" d="M204.65,-96.48C220.42,-100.85 238.91,-105.96 255.65,-110.59"/>
<polygon fill="#63b8ff" stroke="#63b8ff" points="254.32,-113.85 264.89,-113.15 256.18,-107.11 254.32,-113.85"/>
</a>
</g>
</g>
</g>
</svg>
