<?xml version="1.0" encoding="UTF-8" standalone="no"?>
<!DOCTYPE svg PUBLIC "-//W3C//DTD SVG 1.1//EN"
 "http://www.w3.org/Graphics/SVG/1.1/DTD/svg11.dtd">
<!-- Generated by graphviz version 12.2.1 (20241206.2353)
 -->
<!-- Title: _COEentdesc Pages: 1 -->
<svg width="366pt" height="272pt"
 viewBox="0.00 0.00 366.25 272.00" xmlns="http://www.w3.org/2000/svg" xmlns:xlink="http://www.w3.org/1999/xlink">
<g id="graph0" class="graph" transform="scale(1 1) rotate(0) translate(4 268)">
<title>_COEentdesc</title>
<!-- Node1 -->
<g id="Node000001" class="node">
<title>Node1</title>
<g id="a_Node000001"><a xlink:title=" ">
<polygon fill="#999999" stroke="none" points="214.5,-148 121.5,-148 121.5,0 214.5,0 214.5,-148"/>
<text text-anchor="start" x="137.25" y="-134.5" font-family="Helvetica,sans-Serif" font-size="10.00">_COEentdesc</text>
<text text-anchor="start" x="125.5" y="-118.5" font-family="Helvetica,sans-Serif" font-size="10.00">+</text>
<text text-anchor="start" x="135.5" y="-118.5" font-family="Helvetica,sans-Serif" font-size="10.00">uint16_t index</text>
<text text-anchor="start" x="125.5" y="-102.5" font-family="Helvetica,sans-Serif" font-size="10.00">+</text>
<text text-anchor="start" x="135.5" y="-102.5" font-family="Helvetica,sans-Serif" font-size="10.00">uint8_t subindex</text>
<text text-anchor="start" x="125.5" y="-86.5" font-family="Helvetica,sans-Serif" font-size="10.00">+</text>
<text text-anchor="start" x="135.5" y="-86.5" font-family="Helvetica,sans-Serif" font-size="10.00">uint8_t valueinfo</text>
<text text-anchor="start" x="125.5" y="-70.5" font-family="Helvetica,sans-Serif" font-size="10.00">+</text>
<text text-anchor="start" x="135.5" y="-70.5" font-family="Helvetica,sans-Serif" font-size="10.00">uint16_t datatype</text>
<text text-anchor="start" x="125.5" y="-54.5" font-family="Helvetica,sans-Serif" font-size="10.00">+</text>
<text text-anchor="start" x="135.5" y="-54.5" font-family="Helvetica,sans-Serif" font-size="10.00">uint16_t bitlength</text>
<text text-anchor="start" x="125.5" y="-38.5" font-family="Helvetica,sans-Serif" font-size="10.00">+</text>
<text text-anchor="start" x="135.5" y="-38.5" font-family="Helvetica,sans-Serif" font-size="10.00">uint16_t access</text>
<text text-anchor="start" x="125.5" y="-22.5" font-family="Helvetica,sans-Serif" font-size="10.00">+</text>
<text text-anchor="start" x="135.5" y="-22.5" font-family="Helvetica,sans-Serif" font-size="10.00">char name</text>
<text text-anchor="start" x="166.5" y="-6.5" font-family="Helvetica,sans-Serif" font-size="10.00"> </text>
<polygon fill="#666666" stroke="#666666" points="121.5,-130 121.5,-130 214.5,-130 214.5,-130 121.5,-130"/>
<polygon fill="#666666" stroke="#666666" points="121.5,-18 121.5,-18 133.5,-18 133.5,-18 121.5,-18"/>
<polygon fill="#666666" stroke="#666666" points="133.5,-18 133.5,-18 214.5,-18 214.5,-18 133.5,-18"/>
<polygon fill="none" stroke="#666666" points="121.5,0 121.5,-148 214.5,-148 214.5,0 121.5,0"/>
</a>
</g>
</g>
<!-- Node2 -->
<g id="Node000002" class="node">
<title>Node2</title>
<g id="a_Node000002"><a xlink:href="struct__MBXh.html" target="_top" xlink:title=" ">
<polygon fill="white" stroke="none" points="90,-264 0,-264 0,-196 90,-196 90,-264"/>
<text text-anchor="start" x="28.88" y="-250.5" font-family="Helvetica,sans-Serif" font-size="10.00">_MBXh</text>
<text text-anchor="start" x="4" y="-234.5" font-family="Helvetica,sans-Serif" font-size="10.00">+</text>
<text text-anchor="start" x="14" y="-234.5" font-family="Helvetica,sans-Serif" font-size="10.00">uint16_t length</text>
<text text-anchor="start" x="4" y="-218.5" font-family="Helvetica,sans-Serif" font-size="10.00">+</text>
<text text-anchor="start" x="14" y="-218.5" font-family="Helvetica,sans-Serif" font-size="10.00">uint16_t address</text>
<text text-anchor="start" x="43.5" y="-202.5" font-family="Helvetica,sans-Serif" font-size="10.00"> </text>
<polygon fill="#666666" stroke="#666666" points="0,-246 0,-246 90,-246 90,-246 0,-246"/>
<polygon fill="#666666" stroke="#666666" points="0,-214 0,-214 12,-214 12,-214 0,-214"/>
<polygon fill="#666666" stroke="#666666" points="12,-214 12,-214 90,-214 90,-214 12,-214"/>
<polygon fill="none" stroke="#666666" points="0,-196 0,-264 90,-264 90,-196 0,-196"/>
</a>
</g>
</g>
<!-- Node2&#45;&gt;Node1 -->
<g id="edge1_Node000001_Node000002" class="edge">
<title>Node2&#45;&gt;Node1</title>
<g id="a_edge1_Node000001_Node000002"><a xlink:title=" ">
<path fill="none" stroke="#63b8ff" d="M71.09,-196.34C83.46,-180.85 98.74,-161.72 113.48,-143.26"/>
<polygon fill="none" stroke="#63b8ff" points="113.54,-143.19 114.15,-136.01 121.02,-133.82 120.41,-141 113.54,-143.19"/>
</a>
</g>
<text text-anchor="middle" x="120.37" y="-168.5" font-family="Helvetica,sans-Serif" font-size="10.00" fill="grey"> +mbxheader</text>
</g>
<!-- Node3 -->
<g id="Node000003" class="node">
<title>Node3</title>
<g id="a_Node000003"><a xlink:href="struct__COEh.html" target="_top" xlink:title=" ">
<polygon fill="white" stroke="none" points="227.62,-256 108.38,-256 108.38,-204 227.62,-204 227.62,-256"/>
<text text-anchor="start" x="151.88" y="-242.5" font-family="Helvetica,sans-Serif" font-size="10.00">_COEh</text>
<text text-anchor="start" x="112.38" y="-226.5" font-family="Helvetica,sans-Serif" font-size="10.00">+</text>
<text text-anchor="start" x="122.38" y="-226.5" font-family="Helvetica,sans-Serif" font-size="10.00">uint16_t numberservice</text>
<text text-anchor="start" x="166.5" y="-210.5" font-family="Helvetica,sans-Serif" font-size="10.00"> </text>
<polygon fill="#666666" stroke="#666666" points="108.38,-238 108.38,-238 227.62,-238 227.62,-238 108.38,-238"/>
<polygon fill="#666666" stroke="#666666" points="108.38,-222 108.38,-222 120.38,-222 120.38,-222 108.38,-222"/>
<polygon fill="#666666" stroke="#666666" points="120.38,-222 120.38,-222 227.62,-222 227.62,-222 120.38,-222"/>
<polygon fill="none" stroke="#666666" points="108.38,-204 108.38,-256 227.62,-256 227.62,-204 108.38,-204"/>
</a>
</g>
</g>
<!-- Node3&#45;&gt;Node1 -->
<g id="edge2_Node000001_Node000003" class="edge">
<title>Node3&#45;&gt;Node1</title>
<g id="a_edge2_Node000001_Node000003"><a xlink:title=" ">
<path fill="none" stroke="#63b8ff" d="M168,-204.26C168,-192.11 168,-176.69 168,-160.76"/>
<polygon fill="none" stroke="#63b8ff" points="168,-160.82 164,-154.82 168,-148.82 172,-154.82 168,-160.82"/>
</a>
</g>
<text text-anchor="middle" x="195" y="-168.5" font-family="Helvetica,sans-Serif" font-size="10.00" fill="grey"> +coeheader</text>
</g>
<!-- Node4 -->
<g id="Node000004" class="node">
<title>Node4</title>
<g id="a_Node000004"><a xlink:href="struct__INFOh.html" target="_top" xlink:title=" ">
<polygon fill="white" stroke="none" points="358.25,-264 245.75,-264 245.75,-196 358.25,-196 358.25,-264"/>
<text text-anchor="start" x="284.75" y="-250.5" font-family="Helvetica,sans-Serif" font-size="10.00">_INFOh</text>
<text text-anchor="start" x="249.75" y="-234.5" font-family="Helvetica,sans-Serif" font-size="10.00">+</text>
<text text-anchor="start" x="259.75" y="-234.5" font-family="Helvetica,sans-Serif" font-size="10.00">uint8_t reserved</text>
<text text-anchor="start" x="249.75" y="-218.5" font-family="Helvetica,sans-Serif" font-size="10.00">+</text>
<text text-anchor="start" x="259.75" y="-218.5" font-family="Helvetica,sans-Serif" font-size="10.00">uint16_t fragmentsleft</text>
<text text-anchor="start" x="300.5" y="-202.5" font-family="Helvetica,sans-Serif" font-size="10.00"> </text>
<polygon fill="#666666" stroke="#666666" points="245.75,-246 245.75,-246 358.25,-246 358.25,-246 245.75,-246"/>
<polygon fill="#666666" stroke="#666666" points="245.75,-214 245.75,-214 257.75,-214 257.75,-214 245.75,-214"/>
<polygon fill="#666666" stroke="#666666" points="257.75,-214 257.75,-214 358.25,-214 358.25,-214 257.75,-214"/>
<polygon fill="none" stroke="#666666" points="245.75,-196 245.75,-264 358.25,-264 358.25,-196 245.75,-196"/>
</a>
</g>
</g>
<!-- Node4&#45;&gt;Node1 -->
<g id="edge3_Node000001_Node000004" class="edge">
<title>Node4&#45;&gt;Node1</title>
<g id="a_edge3_Node000001_Node000004"><a xlink:title=" ">
<path fill="none" stroke="#63b8ff" d="M273.58,-196.34C258.79,-179.34 240.2,-157.98 222.75,-137.93"/>
<polygon fill="none" stroke="#63b8ff" points="222.77,-137.95 215.82,-136.05 214.89,-128.89 221.85,-130.79 222.77,-137.95"/>
</a>
</g>
<text text-anchor="middle" x="281.83" y="-168.5" font-family="Helvetica,sans-Serif" font-size="10.00" fill="grey"> +infoheader</text>
</g>
</g>
</svg>
