<?xml version="1.0" encoding="UTF-8" standalone="no"?>
<!DOCTYPE svg PUBLIC "-//W3C//DTD SVG 1.1//EN"
 "http://www.w3.org/Graphics/SVG/1.1/DTD/svg11.dtd">
<!-- Generated by graphviz version 12.2.1 (20241206.2353)
 -->
<!-- Title: EOE_get_ip Pages: 1 -->
<svg width="360pt" height="85pt"
 viewBox="0.00 0.00 359.75 85.00" xmlns="http://www.w3.org/2000/svg" xmlns:xlink="http://www.w3.org/1999/xlink">
<g id="graph0" class="graph" transform="scale(1 1) rotate(0) translate(4 81)">
<title>EOE_get_ip</title>
<!-- Node1 -->
<g id="Node000001" class="node">
<title>Node1</title>
<g id="a_Node000001"><a xlink:title="Retrieves the IP address for the EOE (Ethernet over EtherCAT) protocol.">
<polygon fill="#999999" stroke="#666666" points="68.5,-39 0,-39 0,-19 68.5,-19 68.5,-39"/>
<text text-anchor="middle" x="34.25" y="-25.5" font-family="Helvetica,sans-Serif" font-size="10.00">EOE_get_ip</text>
</a>
</g>
</g>
<!-- Node2 -->
<g id="Node000002" class="node">
<title>Node2</title>
<g id="a_Node000002"><a xlink:href="../../dc/d87/a00032.html#a92494e57c6dbfa15739038b5a11f2a81" target="_top" xlink:title="Converts a 32&#45;bit IP address to a byte array.">
<polygon fill="white" stroke="#666666" points="224.75,-77 106,-77 106,-57 224.75,-57 224.75,-77"/>
<text text-anchor="middle" x="165.38" y="-63.5" font-family="Helvetica,sans-Serif" font-size="10.00">EOE_ip_uint32_to_byte</text>
</a>
</g>
</g>
<!-- Node1&#45;&gt;Node2 -->
<g id="edge1_Node000001_Node000002" class="edge">
<title>Node1&#45;&gt;Node2</title>
<g id="a_edge1_Node000001_Node000002"><a xlink:title=" ">
<path fill="none" stroke="#63b8ff" d="M68.84,-38.88C83.9,-43.32 101.9,-48.61 118.2,-53.41"/>
<polygon fill="#63b8ff" stroke="#63b8ff" points="117.12,-56.74 127.7,-56.21 119.09,-50.03 117.12,-56.74"/>
</a>
</g>
</g>
<!-- Node3 -->
<g id="Node000003" class="node">
<title>Node3</title>
<g id="a_Node000003"><a xlink:href="../../dc/d87/a00032.html#a09185e9a340f379047827ee435b93ec6" target="_top" xlink:title="Sends a response indicating no data available.">
<polygon fill="white" stroke="#666666" points="226.25,-39 104.5,-39 104.5,-19 226.25,-19 226.25,-39"/>
<text text-anchor="middle" x="165.38" y="-25.5" font-family="Helvetica,sans-Serif" font-size="10.00">EOE_no_data_response</text>
</a>
</g>
</g>
<!-- Node1&#45;&gt;Node3 -->
<g id="edge2_Node000001_Node000003" class="edge">
<title>Node1&#45;&gt;Node3</title>
<g id="a_edge2_Node000001_Node000003"><a xlink:title=" ">
<path fill="none" stroke="#63b8ff" d="M68.84,-29C76.29,-29 84.46,-29 92.79,-29"/>
<polygon fill="#63b8ff" stroke="#63b8ff" points="92.67,-32.5 102.67,-29 92.67,-25.5 92.67,-32.5"/>
</a>
</g>
</g>
<!-- Node4 -->
<g id="Node000004" class="node">
<title>Node4</title>
<g id="a_Node000004"><a xlink:href="../../d2/de7/a00014.html#a841fc5ea333edff6f722521e0cc257b0" target="_top" xlink:title="Claims a buffer for ESC (EtherCAT Slave Controller) operations.">
<polygon fill="white" stroke="#666666" points="351.75,-20 262.25,-20 262.25,0 351.75,0 351.75,-20"/>
<text text-anchor="middle" x="307" y="-6.5" font-family="Helvetica,sans-Serif" font-size="10.00">ESC_claimbuffer</text>
</a>
</g>
</g>
<!-- Node1&#45;&gt;Node4 -->
<g id="edge4_Node000001_Node000004" class="edge">
<title>Node1&#45;&gt;Node4</title>
<g id="a_edge4_Node000001_Node000004"><a xlink:title=" ">
<path fill="none" stroke="#63b8ff" d="M66.25,-18.59C78.08,-15.12 91.77,-11.71 104.5,-10 153.67,-3.38 210.21,-4.09 250.86,-6.05"/>
<polygon fill="#63b8ff" stroke="#63b8ff" points="250.46,-9.53 260.63,-6.56 250.83,-2.54 250.46,-9.53"/>
</a>
</g>
</g>
<!-- Node3&#45;&gt;Node4 -->
<g id="edge3_Node000003_Node000004" class="edge">
<title>Node3&#45;&gt;Node4</title>
<g id="a_edge3_Node000003_Node000004"><a xlink:title=" ">
<path fill="none" stroke="#63b8ff" d="M226.4,-20.83C234.54,-19.72 242.86,-18.59 250.9,-17.5"/>
<polygon fill="#63b8ff" stroke="#63b8ff" points="251.11,-21 260.55,-16.18 250.17,-14.07 251.11,-21"/>
</a>
</g>
</g>
</g>
</svg>
