<?xml version="1.0" encoding="UTF-8" standalone="no"?>
<!DOCTYPE svg PUBLIC "-//W3C//DTD SVG 1.1//EN"
 "http://www.w3.org/Graphics/SVG/1.1/DTD/svg11.dtd">
<!-- Generated by graphviz version 12.2.1 (20241206.2353)
 -->
<!-- Title: EOE_init_tx Pages: 1 -->
<svg width="573pt" height="85pt"
 viewBox="0.00 0.00 573.25 85.00" xmlns="http://www.w3.org/2000/svg" xmlns:xlink="http://www.w3.org/1999/xlink">
<g id="graph0" class="graph" transform="scale(1 1) rotate(0) translate(4 81)">
<title>EOE_init_tx</title>
<!-- Node1 -->
<g id="Node000001" class="node">
<title>Node1</title>
<g id="a_Node000001"><a xlink:title="Initializes the EOE (Ethernet over EtherCAT) transmission.">
<polygon fill="#999999" stroke="#666666" points="565.25,-58 496.75,-58 496.75,-38 565.25,-38 565.25,-58"/>
<text text-anchor="middle" x="531" y="-44.5" font-family="Helvetica,sans-Serif" font-size="10.00">EOE_init_tx</text>
</a>
</g>
</g>
<!-- Node2 -->
<g id="Node000002" class="node">
<title>Node2</title>
<g id="a_Node000002"><a xlink:href="../../dc/d87/a00032.html#af746d73f40c8cb1e0af5c7bcd8ff7fe1" target="_top" xlink:title="Initializes the Ethernet over EtherCAT (EoE) module.">
<polygon fill="white" stroke="#666666" points="434.88,-77 379.88,-77 379.88,-57 434.88,-57 434.88,-77"/>
<text text-anchor="middle" x="407.38" y="-63.5" font-family="Helvetica,sans-Serif" font-size="10.00">EOE_init</text>
</a>
</g>
</g>
<!-- Node1&#45;&gt;Node2 -->
<g id="edge1_Node000001_Node000002" class="edge">
<title>Node1&#45;&gt;Node2</title>
<g id="a_edge1_Node000001_Node000002"><a xlink:title=" ">
<path fill="none" stroke="#63b8ff" d="M485.19,-55C468.43,-57.62 449.93,-60.51 435.28,-62.8"/>
<polygon fill="#63b8ff" stroke="#63b8ff" points="485.61,-58.48 494.95,-53.48 484.53,-51.56 485.61,-58.48"/>
</a>
</g>
</g>
<!-- Node4 -->
<g id="Node000004" class="node">
<title>Node4</title>
<g id="a_Node000004"><a xlink:href="../../dc/d87/a00032.html#a3f7ec97c0d684c1e4da7e366fe1feea5" target="_top" xlink:title="Sends an EoE (Ethernet over EtherCAT) fragment.">
<polygon fill="white" stroke="#666666" points="460.75,-39 354,-39 354,-19 460.75,-19 460.75,-39"/>
<text text-anchor="middle" x="407.38" y="-25.5" font-family="Helvetica,sans-Serif" font-size="10.00">EOE_send_fragment</text>
</a>
</g>
</g>
<!-- Node1&#45;&gt;Node4 -->
<g id="edge3_Node000001_Node000004" class="edge">
<title>Node1&#45;&gt;Node4</title>
<g id="a_edge3_Node000001_Node000004"><a xlink:title=" ">
<path fill="none" stroke="#63b8ff" d="M485.23,-41.01C477.34,-39.77 469.07,-38.48 460.99,-37.22"/>
<polygon fill="#63b8ff" stroke="#63b8ff" points="484.53,-44.44 494.95,-42.52 485.61,-37.52 484.53,-44.44"/>
</a>
</g>
</g>
<!-- Node3 -->
<g id="Node000003" class="node">
<title>Node3</title>
<g id="a_Node000003"><a xlink:href="../../d4/dee/a00008.html#a3b2e93ee6595a21af2bdcf70f8dd939a" target="_top" xlink:title="Initializes the EtherCAT slave with the given configuration.">
<polygon fill="white" stroke="#666666" points="300.38,-77 229.62,-77 229.62,-57 300.38,-57 300.38,-77"/>
<text text-anchor="middle" x="265" y="-63.5" font-family="Helvetica,sans-Serif" font-size="10.00">ecat_slv_init</text>
</a>
</g>
</g>
<!-- Node2&#45;&gt;Node3 -->
<g id="edge2_Node000002_Node000003" class="edge">
<title>Node2&#45;&gt;Node3</title>
<g id="a_edge2_Node000002_Node000003"><a xlink:title=" ">
<path fill="none" stroke="#63b8ff" d="M368.23,-67C347.22,-67 321.34,-67 300.87,-67"/>
<polygon fill="#63b8ff" stroke="#63b8ff" points="368.13,-70.5 378.13,-67 368.13,-63.5 368.13,-70.5"/>
</a>
</g>
</g>
<!-- Node5 -->
<g id="Node000005" class="node">
<title>Node5</title>
<g id="a_Node000005"><a xlink:href="../../dc/d87/a00032.html#a155e38db4802927e3c45fba9bc7f05e6" target="_top" xlink:title="Processes the transmission of Ethernet over EtherCAT (EoE) data.">
<polygon fill="white" stroke="#666666" points="318,-39 212,-39 212,-19 318,-19 318,-39"/>
<text text-anchor="middle" x="265" y="-25.5" font-family="Helvetica,sans-Serif" font-size="10.00">ESC_eoeprocess_tx</text>
</a>
</g>
</g>
<!-- Node4&#45;&gt;Node5 -->
<g id="edge4_Node000004_Node000005" class="edge">
<title>Node4&#45;&gt;Node5</title>
<g id="a_edge4_Node000004_Node000005"><a xlink:title=" ">
<path fill="none" stroke="#63b8ff" d="M342.2,-29C334.27,-29 326.23,-29 318.5,-29"/>
<polygon fill="#63b8ff" stroke="#63b8ff" points="342.19,-32.5 352.19,-29 342.19,-25.5 342.19,-32.5"/>
</a>
</g>
</g>
<!-- Node6 -->
<g id="Node000006" class="node">
<title>Node6</title>
<g id="a_Node000006"><a xlink:href="../../d4/dee/a00008.html#ac8db332851793f138f93c64b45f0968d" target="_top" xlink:title="Polling function for the EtherCAT slave stack.">
<polygon fill="white" stroke="#666666" points="168.88,-58 95.88,-58 95.88,-38 168.88,-38 168.88,-58"/>
<text text-anchor="middle" x="132.38" y="-44.5" font-family="Helvetica,sans-Serif" font-size="10.00">ecat_slv_poll</text>
</a>
</g>
</g>
<!-- Node5&#45;&gt;Node6 -->
<g id="edge5_Node000005_Node000006" class="edge">
<title>Node5&#45;&gt;Node6</title>
<g id="a_edge5_Node000005_Node000006"><a xlink:title=" ">
<path fill="none" stroke="#63b8ff" d="M200.52,-38.23C189.8,-39.79 179.01,-41.36 169.32,-42.77"/>
<polygon fill="#63b8ff" stroke="#63b8ff" points="200.73,-41.74 210.12,-36.84 199.73,-34.81 200.73,-41.74"/>
</a>
</g>
</g>
<!-- Node8 -->
<g id="Node000008" class="node">
<title>Node8</title>
<g id="a_Node000008"><a xlink:href="../../d4/dee/a00008.html#adf1311ff3a94e7d4a01081e9765edb53" target="_top" xlink:title="Handler for SM change, SM0/1, AL CONTROL and EEPROM events, the application control what interrupts t...">
<polygon fill="white" stroke="#666666" points="176,-20 88.75,-20 88.75,0 176,0 176,-20"/>
<text text-anchor="middle" x="132.38" y="-6.5" font-family="Helvetica,sans-Serif" font-size="10.00">ecat_slv_worker</text>
</a>
</g>
</g>
<!-- Node5&#45;&gt;Node8 -->
<g id="edge7_Node000005_Node000008" class="edge">
<title>Node5&#45;&gt;Node8</title>
<g id="a_edge7_Node000005_Node000008"><a xlink:title=" ">
<path fill="none" stroke="#63b8ff" d="M200.45,-19.76C192.21,-18.56 183.93,-17.35 176.14,-16.22"/>
<polygon fill="#63b8ff" stroke="#63b8ff" points="199.73,-23.19 210.12,-21.16 200.73,-16.26 199.73,-23.19"/>
</a>
</g>
</g>
<!-- Node7 -->
<g id="Node000007" class="node">
<title>Node7</title>
<g id="a_Node000007"><a xlink:href="../../d4/dee/a00008.html#a771f616c41967a475e64eaa386edc579" target="_top" xlink:title="Main function for the EtherCAT slave stack.">
<polygon fill="white" stroke="#666666" points="52.75,-58 0,-58 0,-38 52.75,-38 52.75,-58"/>
<text text-anchor="middle" x="26.38" y="-44.5" font-family="Helvetica,sans-Serif" font-size="10.00">ecat_slv</text>
</a>
</g>
</g>
<!-- Node6&#45;&gt;Node7 -->
<g id="edge6_Node000006_Node000007" class="edge">
<title>Node6&#45;&gt;Node7</title>
<g id="a_edge6_Node000006_Node000007"><a xlink:title=" ">
<path fill="none" stroke="#63b8ff" d="M84.16,-48C73.45,-48 62.47,-48 53.06,-48"/>
<polygon fill="#63b8ff" stroke="#63b8ff" points="84.07,-51.5 94.07,-48 84.07,-44.5 84.07,-51.5"/>
</a>
</g>
</g>
</g>
</svg>
