<?xml version="1.0" encoding="UTF-8" standalone="no"?>
<!DOCTYPE svg PUBLIC "-//W3C//DTD SVG 1.1//EN"
 "http://www.w3.org/Graphics/SVG/1.1/DTD/svg11.dtd">
<!-- Generated by graphviz version 12.2.1 (20241206.2353)
 -->
<!-- Title: EOE_init_rx Pages: 1 -->
<svg width="570pt" height="85pt"
 viewBox="0.00 0.00 570.25 85.00" xmlns="http://www.w3.org/2000/svg" xmlns:xlink="http://www.w3.org/1999/xlink">
<g id="graph0" class="graph" transform="scale(1 1) rotate(0) translate(4 81)">
<title>EOE_init_rx</title>
<!-- Node1 -->
<g id="Node000001" class="node">
<title>Node1</title>
<g id="a_Node000001"><a xlink:title=" ">
<polygon fill="#999999" stroke="#666666" points="562.25,-58 493.75,-58 493.75,-38 562.25,-38 562.25,-58"/>
<text text-anchor="middle" x="528" y="-44.5" font-family="Helvetica,sans-Serif" font-size="10.00">EOE_init_rx</text>
</a>
</g>
</g>
<!-- Node2 -->
<g id="Node000002" class="node">
<title>Node2</title>
<g id="a_Node000002"><a xlink:href="../../dc/d87/a00032.html#af746d73f40c8cb1e0af5c7bcd8ff7fe1" target="_top" xlink:title="Initializes the Ethernet over EtherCAT (EoE) module.">
<polygon fill="white" stroke="#666666" points="426.62,-77 371.62,-77 371.62,-57 426.62,-57 426.62,-77"/>
<text text-anchor="middle" x="399.12" y="-63.5" font-family="Helvetica,sans-Serif" font-size="10.00">EOE_init</text>
</a>
</g>
</g>
<!-- Node1&#45;&gt;Node2 -->
<g id="edge1_Node000001_Node000002" class="edge">
<title>Node1&#45;&gt;Node2</title>
<g id="a_edge1_Node000001_Node000002"><a xlink:title=" ">
<path fill="none" stroke="#63b8ff" d="M481.98,-54.74C463.64,-57.49 443.06,-60.57 427.12,-62.96"/>
<polygon fill="#63b8ff" stroke="#63b8ff" points="482.46,-58.21 491.84,-53.27 481.43,-51.29 482.46,-58.21"/>
</a>
</g>
</g>
<!-- Node4 -->
<g id="Node000004" class="node">
<title>Node4</title>
<g id="a_Node000004"><a xlink:href="../../dc/d87/a00032.html#a58e730d3704d508e191e3f1f399ad8b8" target="_top" xlink:title=" ">
<polygon fill="white" stroke="#666666" points="457.75,-39 340.5,-39 340.5,-19 457.75,-19 457.75,-39"/>
<text text-anchor="middle" x="399.12" y="-25.5" font-family="Helvetica,sans-Serif" font-size="10.00">EOE_receive_fragment</text>
</a>
</g>
</g>
<!-- Node1&#45;&gt;Node4 -->
<g id="edge3_Node000001_Node000004" class="edge">
<title>Node1&#45;&gt;Node4</title>
<g id="a_edge3_Node000001_Node000004"><a xlink:title=" ">
<path fill="none" stroke="#63b8ff" d="M482.21,-41.29C474.38,-40.12 466.13,-38.88 458,-37.67"/>
<polygon fill="#63b8ff" stroke="#63b8ff" points="481.43,-44.71 491.84,-42.73 482.46,-37.79 481.43,-44.71"/>
</a>
</g>
</g>
<!-- Node3 -->
<g id="Node000003" class="node">
<title>Node3</title>
<g id="a_Node000003"><a xlink:href="../../d4/dee/a00008.html#a3b2e93ee6595a21af2bdcf70f8dd939a" target="_top" xlink:title="Initializes the EtherCAT slave with the given configuration.">
<polygon fill="white" stroke="#666666" points="293.62,-77 222.88,-77 222.88,-57 293.62,-57 293.62,-77"/>
<text text-anchor="middle" x="258.25" y="-63.5" font-family="Helvetica,sans-Serif" font-size="10.00">ecat_slv_init</text>
</a>
</g>
</g>
<!-- Node2&#45;&gt;Node3 -->
<g id="edge2_Node000002_Node000003" class="edge">
<title>Node2&#45;&gt;Node3</title>
<g id="a_edge2_Node000002_Node000003"><a xlink:title=" ">
<path fill="none" stroke="#63b8ff" d="M359.85,-67C339.28,-67 314.12,-67 294.1,-67"/>
<polygon fill="#63b8ff" stroke="#63b8ff" points="359.83,-70.5 369.83,-67 359.83,-63.5 359.83,-70.5"/>
</a>
</g>
</g>
<!-- Node5 -->
<g id="Node000005" class="node">
<title>Node5</title>
<g id="a_Node000005"><a xlink:href="../../dc/d87/a00032.html#a6453c21256a457cc8de8387a213f658f" target="_top" xlink:title="Processes the EtherCAT over EtherType (EoE) protocol.">
<polygon fill="white" stroke="#666666" points="304.5,-39 212,-39 212,-19 304.5,-19 304.5,-39"/>
<text text-anchor="middle" x="258.25" y="-25.5" font-family="Helvetica,sans-Serif" font-size="10.00">ESC_eoeprocess</text>
</a>
</g>
</g>
<!-- Node4&#45;&gt;Node5 -->
<g id="edge4_Node000004_Node000005" class="edge">
<title>Node4&#45;&gt;Node5</title>
<g id="a_edge4_Node000004_Node000005"><a xlink:title=" ">
<path fill="none" stroke="#63b8ff" d="M328.66,-29C320.58,-29 312.5,-29 304.86,-29"/>
<polygon fill="#63b8ff" stroke="#63b8ff" points="328.52,-32.5 338.52,-29 328.52,-25.5 328.52,-32.5"/>
</a>
</g>
</g>
<!-- Node6 -->
<g id="Node000006" class="node">
<title>Node6</title>
<g id="a_Node000006"><a xlink:href="../../d4/dee/a00008.html#ac8db332851793f138f93c64b45f0968d" target="_top" xlink:title=" ">
<polygon fill="white" stroke="#666666" points="168.88,-58 95.88,-58 95.88,-38 168.88,-38 168.88,-58"/>
<text text-anchor="middle" x="132.38" y="-44.5" font-family="Helvetica,sans-Serif" font-size="10.00">ecat_slv_poll</text>
</a>
</g>
</g>
<!-- Node5&#45;&gt;Node6 -->
<g id="edge5_Node000005_Node000006" class="edge">
<title>Node5&#45;&gt;Node6</title>
<g id="a_edge5_Node000005_Node000006"><a xlink:title=" ">
<path fill="none" stroke="#63b8ff" d="M200.74,-37.67C189.98,-39.32 178.99,-41 169.1,-42.52"/>
<polygon fill="#63b8ff" stroke="#63b8ff" points="200.98,-41.17 210.33,-36.2 199.92,-34.25 200.98,-41.17"/>
</a>
</g>
</g>
<!-- Node8 -->
<g id="Node000008" class="node">
<title>Node8</title>
<g id="a_Node000008"><a xlink:href="../../d4/dee/a00008.html#adf1311ff3a94e7d4a01081e9765edb53" target="_top" xlink:title=" ">
<polygon fill="white" stroke="#666666" points="176,-20 88.75,-20 88.75,0 176,0 176,-20"/>
<text text-anchor="middle" x="132.38" y="-6.5" font-family="Helvetica,sans-Serif" font-size="10.00">ecat_slv_worker</text>
</a>
</g>
</g>
<!-- Node5&#45;&gt;Node8 -->
<g id="edge7_Node000005_Node000008" class="edge">
<title>Node5&#45;&gt;Node8</title>
<g id="a_edge7_Node000005_Node000008"><a xlink:title=" ">
<path fill="none" stroke="#63b8ff" d="M200.48,-20.29C192.36,-19.05 184.12,-17.78 176.32,-16.59"/>
<polygon fill="#63b8ff" stroke="#63b8ff" points="199.92,-23.75 210.33,-21.8 200.98,-16.83 199.92,-23.75"/>
</a>
</g>
</g>
<!-- Node7 -->
<g id="Node000007" class="node">
<title>Node7</title>
<g id="a_Node000007"><a xlink:href="../../d4/dee/a00008.html#a771f616c41967a475e64eaa386edc579" target="_top" xlink:title=" ">
<polygon fill="white" stroke="#666666" points="52.75,-58 0,-58 0,-38 52.75,-38 52.75,-58"/>
<text text-anchor="middle" x="26.38" y="-44.5" font-family="Helvetica,sans-Serif" font-size="10.00">ecat_slv</text>
</a>
</g>
</g>
<!-- Node6&#45;&gt;Node7 -->
<g id="edge6_Node000006_Node000007" class="edge">
<title>Node6&#45;&gt;Node7</title>
<g id="a_edge6_Node000006_Node000007"><a xlink:title=" ">
<path fill="none" stroke="#63b8ff" d="M84.16,-48C73.45,-48 62.47,-48 53.06,-48"/>
<polygon fill="#63b8ff" stroke="#63b8ff" points="84.07,-51.5 94.07,-48 84.07,-44.5 84.07,-51.5"/>
</a>
</g>
</g>
</g>
</svg>
