<?xml version="1.0" encoding="UTF-8" standalone="no"?>
<!DOCTYPE svg PUBLIC "-//W3C//DTD SVG 1.1//EN"
 "http://www.w3.org/Graphics/SVG/1.1/DTD/svg11.dtd">
<!-- Generated by graphviz version 13.1.0 (20250701.0955)
 -->
<!-- Title: RTOS::EventGroup::isCreated Pages: 1 -->
<svg width="475pt" height="72pt"
 viewBox="0.00 0.00 475.00 72.00" xmlns="http://www.w3.org/2000/svg" xmlns:xlink="http://www.w3.org/1999/xlink">
<g id="graph0" class="graph" transform="scale(1 1) rotate(0) translate(4 68)">
<title>RTOS::EventGroup::isCreated</title>
<!-- Node1 -->
<g id="Node000001" class="node">
<title>Node1</title>
<g id="a_Node000001"><a xlink:title="Checks if the event group has been created.">
<polygon fill="#999999" stroke="#666666" points="466.5,-45 317.75,-45 317.75,-25 466.5,-25 466.5,-45"/>
<text xml:space="preserve" text-anchor="middle" x="392.12" y="-31.5" font-family="Helvetica,sans-Serif" font-size="10.00">RTOS::EventGroup::isCreated</text>
</a>
</g>
</g>
<!-- Node2 -->
<g id="Node000002" class="node">
<title>Node2</title>
<g id="a_Node000002"><a xlink:href="../../d0/d4a/a00147.html#ae123b21b37e587e5e424af4651768471" target="_top" xlink:title="Creates the underlying FreeRTOS event group if not already created.">
<polygon fill="white" stroke="#666666" points="279.12,-64 145.38,-64 145.38,-44 279.12,-44 279.12,-64"/>
<text xml:space="preserve" text-anchor="middle" x="212.25" y="-50.5" font-family="Helvetica,sans-Serif" font-size="10.00">RTOS::EventGroup::create</text>
</a>
</g>
</g>
<!-- Node1&#45;&gt;Node2 -->
<g id="edge1_Node000001_Node000002" class="edge">
<title>Node1&#45;&gt;Node2</title>
<g id="a_edge1_Node000001_Node000002"><a xlink:title=" ">
<path fill="none" stroke="#63b8ff" d="M306.17,-44.07C297.19,-45.03 288.15,-46 279.43,-46.93"/>
<polygon fill="#63b8ff" stroke="#63b8ff" points="306.42,-47.57 315.99,-43.03 305.67,-40.61 306.42,-47.57"/>
</a>
</g>
</g>
<!-- Node3 -->
<g id="Node000003" class="node">
<title>Node3</title>
<g id="a_Node000003"><a xlink:href="../../d0/d4a/a00147.html#ab62fda92e8b329bb70ffde8da9490580" target="_top" xlink:title="Deletes the underlying FreeRTOS event group if created.">
<polygon fill="white" stroke="#666666" points="281.75,-26 142.75,-26 142.75,-6 281.75,-6 281.75,-26"/>
<text xml:space="preserve" text-anchor="middle" x="212.25" y="-12.5" font-family="Helvetica,sans-Serif" font-size="10.00">RTOS::EventGroup::destroy</text>
</a>
</g>
</g>
<!-- Node1&#45;&gt;Node3 -->
<g id="edge2_Node000001_Node000003" class="edge">
<title>Node1&#45;&gt;Node3</title>
<g id="a_edge2_Node000001_Node000003"><a xlink:title=" ">
<path fill="none" stroke="#63b8ff" d="M306.11,-25.92C298.02,-25.05 289.89,-24.19 281.98,-23.34"/>
<polygon fill="#63b8ff" stroke="#63b8ff" points="305.67,-29.39 315.99,-26.97 306.42,-22.43 305.67,-29.39"/>
</a>
</g>
</g>
<!-- Node4 -->
<g id="Node000004" class="node">
<title>Node4</title>
<g id="a_Node000004"><a xlink:href="../../d0/d4a/a00147.html#ab2273906f7c7de0565e852fbceeefaab" target="_top" xlink:title="Destroys the EventGroup object and deletes the underlying FreeRTOS event group if created.">
<polygon fill="white" stroke="#666666" points="106.75,-32 0,-32 0,0 106.75,0 106.75,-32"/>
<text xml:space="preserve" text-anchor="start" x="8" y="-18.5" font-family="Helvetica,sans-Serif" font-size="10.00">RTOS::EventGroup::</text>
<text xml:space="preserve" text-anchor="middle" x="53.38" y="-6.5" font-family="Helvetica,sans-Serif" font-size="10.00">~EventGroup</text>
</a>
</g>
</g>
<!-- Node3&#45;&gt;Node4 -->
<g id="edge3_Node000003_Node000004" class="edge">
<title>Node3&#45;&gt;Node4</title>
<g id="a_edge3_Node000003_Node000004"><a xlink:title=" ">
<path fill="none" stroke="#63b8ff" d="M131,-16C122.89,-16 114.8,-16 107.09,-16"/>
<polygon fill="#63b8ff" stroke="#63b8ff" points="130.93,-19.5 140.93,-16 130.93,-12.5 130.93,-19.5"/>
</a>
</g>
</g>
</g>
</svg>
