<?xml version="1.0" encoding="UTF-8" standalone="no"?>
<!DOCTYPE svg PUBLIC "-//W3C//DTD SVG 1.1//EN"
 "http://www.w3.org/Graphics/SVG/1.1/DTD/svg11.dtd">
<!-- Generated by graphviz version 12.2.1 (20241206.2353)
 -->
<!-- Title: Lib::HAL::GPIO::EXTIBase::read Pages: 1 -->
<svg width="451pt" height="90pt"
 viewBox="0.00 0.00 450.50 90.00" xmlns="http://www.w3.org/2000/svg" xmlns:xlink="http://www.w3.org/1999/xlink">
<g id="graph0" class="graph" transform="scale(1 1) rotate(0) translate(4 86)">
<title>Lib::HAL::GPIO::EXTIBase::read</title>
<!-- Node1 -->
<g id="Node000001" class="node">
<title>Node1</title>
<g id="a_Node000001"><a xlink:title="Reads the state of the GPIO pin.">
<polygon fill="#999999" stroke="#666666" points="136,-57 0,-57 0,-25 136,-25 136,-57"/>
<text text-anchor="start" x="8" y="-43.5" font-family="Helvetica,sans-Serif" font-size="10.00">Lib::HAL::GPIO::EXTIBase</text>
<text text-anchor="middle" x="68" y="-31.5" font-family="Helvetica,sans-Serif" font-size="10.00">::read</text>
</a>
</g>
</g>
<!-- Node2 -->
<g id="Node000002" class="node">
<title>Node2</title>
<g id="a_Node000002"><a xlink:href="../../d6/d4b/a00277.html#a064774fa58f6d9f06d4cfa1e55f19df5" target="_top" xlink:title="Reads the state of the GPIO pin.">
<polygon fill="white" stroke="#666666" points="284.75,-57 172,-57 172,-25 284.75,-25 284.75,-57"/>
<text text-anchor="start" x="180" y="-43.5" font-family="Helvetica,sans-Serif" font-size="10.00">Lib::HAL::GPIO::Input</text>
<text text-anchor="middle" x="228.38" y="-31.5" font-family="Helvetica,sans-Serif" font-size="10.00">::read</text>
</a>
</g>
</g>
<!-- Node1&#45;&gt;Node2 -->
<g id="edge1_Node000001_Node000002" class="edge">
<title>Node1&#45;&gt;Node2</title>
<g id="a_edge1_Node000001_Node000002"><a xlink:title=" ">
<path fill="none" stroke="#63b8ff" d="M136.17,-41C144.1,-41 152.19,-41 160.12,-41"/>
<polygon fill="#63b8ff" stroke="#63b8ff" points="160.07,-44.5 170.07,-41 160.07,-37.5 160.07,-44.5"/>
</a>
</g>
</g>
<!-- Node3 -->
<g id="Node000003" class="node">
<title>Node3</title>
<g id="a_Node000003"><a xlink:href="../../d0/d19/a00273.html#ac053911b956598be5316d18107d08c92" target="_top" xlink:title="Gets the pin number.">
<polygon fill="white" stroke="#666666" points="442.5,-82 320.75,-82 320.75,-50 442.5,-50 442.5,-82"/>
<text text-anchor="start" x="328.75" y="-68.5" font-family="Helvetica,sans-Serif" font-size="10.00">Lib::HAL::GPIO::Handle</text>
<text text-anchor="middle" x="381.62" y="-56.5" font-family="Helvetica,sans-Serif" font-size="10.00">::getPinNumber</text>
</a>
</g>
</g>
<!-- Node2&#45;&gt;Node3 -->
<g id="edge2_Node000002_Node000003" class="edge">
<title>Node2&#45;&gt;Node3</title>
<g id="a_edge2_Node000002_Node000003"><a xlink:title=" ">
<path fill="none" stroke="#63b8ff" d="M284.84,-50.17C292.78,-51.48 301.04,-52.85 309.23,-54.2"/>
<polygon fill="#63b8ff" stroke="#63b8ff" points="308.4,-57.61 318.84,-55.79 309.54,-50.7 308.4,-57.61"/>
</a>
</g>
</g>
<!-- Node4 -->
<g id="Node000004" class="node">
<title>Node4</title>
<g id="a_Node000004"><a xlink:href="../../d0/d19/a00273.html#a672f8792c2abb55f00e2ed43ebb2ae04" target="_top" xlink:title="Gets the GPIO port.">
<polygon fill="white" stroke="#666666" points="442.5,-32 320.75,-32 320.75,0 442.5,0 442.5,-32"/>
<text text-anchor="start" x="328.75" y="-18.5" font-family="Helvetica,sans-Serif" font-size="10.00">Lib::HAL::GPIO::Handle</text>
<text text-anchor="middle" x="381.62" y="-6.5" font-family="Helvetica,sans-Serif" font-size="10.00">::getPort</text>
</a>
</g>
</g>
<!-- Node2&#45;&gt;Node4 -->
<g id="edge3_Node000002_Node000004" class="edge">
<title>Node2&#45;&gt;Node4</title>
<g id="a_edge3_Node000002_Node000004"><a xlink:title=" ">
<path fill="none" stroke="#63b8ff" d="M284.84,-31.83C292.78,-30.52 301.04,-29.15 309.23,-27.8"/>
<polygon fill="#63b8ff" stroke="#63b8ff" points="309.54,-31.3 318.84,-26.21 308.4,-24.39 309.54,-31.3"/>
</a>
</g>
</g>
</g>
</svg>
