<?xml version="1.0" encoding="UTF-8" standalone="no"?>
<!DOCTYPE svg PUBLIC "-//W3C//DTD SVG 1.1//EN"
 "http://www.w3.org/Graphics/SVG/1.1/DTD/svg11.dtd">
<!-- Generated by graphviz version 13.1.0 (20250701.0955)
 -->
<!-- Title: DAL::CanNode Pages: 1 -->
<svg width="123pt" height="182pt"
 viewBox="0.00 0.00 123.00 182.00" xmlns="http://www.w3.org/2000/svg" xmlns:xlink="http://www.w3.org/1999/xlink">
<g id="graph0" class="graph" transform="scale(1 1) rotate(0) translate(4 178)">
<title>DAL::CanNode</title>
<!-- Node1 -->
<g id="Node000001" class="node">
<title>Node1</title>
<g id="a_Node000001"><a xlink:title="Data structure representing a CAN bus node for DAL integration.">
<polygon fill="#999999" stroke="none" points="85.38,-52 10.62,-52 10.62,0 85.38,0 85.38,-52"/>
<text xml:space="preserve" text-anchor="start" x="14.62" y="-38.5" font-family="Helvetica,sans-Serif" font-size="10.00">DAL::CanNode</text>
<text xml:space="preserve" text-anchor="start" x="46.5" y="-22.5" font-family="Helvetica,sans-Serif" font-size="10.00"> </text>
<text xml:space="preserve" text-anchor="start" x="46.5" y="-6.5" font-family="Helvetica,sans-Serif" font-size="10.00"> </text>
<polygon fill="#666666" stroke="#666666" points="10.62,-34 10.62,-34 85.38,-34 85.38,-34 10.62,-34"/>
<polygon fill="#666666" stroke="#666666" points="10.62,-18 10.62,-18 85.38,-18 85.38,-18 10.62,-18"/>
<polygon fill="none" stroke="#666666" points="10.62,0 10.62,-52 85.38,-52 85.38,0 10.62,0"/>
</a>
</g>
</g>
<!-- Node2 -->
<g id="Node000002" class="node">
<title>Node2</title>
<g id="a_Node000002"><a xlink:title=" ">
<polygon fill="white" stroke="none" points="26,-174 0,-174 0,-122 26,-122 26,-174"/>
<text xml:space="preserve" text-anchor="start" x="4" y="-160.5" font-family="Helvetica,sans-Serif" font-size="10.00">bool</text>
<text xml:space="preserve" text-anchor="start" x="11.5" y="-144.5" font-family="Helvetica,sans-Serif" font-size="10.00"> </text>
<text xml:space="preserve" text-anchor="start" x="11.5" y="-128.5" font-family="Helvetica,sans-Serif" font-size="10.00"> </text>
<polygon fill="#bfbfbf" stroke="#bfbfbf" points="0,-156 0,-156 26,-156 26,-156 0,-156"/>
<polygon fill="#bfbfbf" stroke="#bfbfbf" points="0,-140 0,-140 26,-140 26,-140 0,-140"/>
<polygon fill="none" stroke="#bfbfbf" points="0,-122 0,-174 26,-174 26,-122 0,-122"/>
</a>
</g>
</g>
<!-- Node2&#45;&gt;Node1 -->
<g id="edge1_Node000001_Node000002" class="edge">
<title>Node2&#45;&gt;Node1</title>
<g id="a_edge1_Node000001_Node000002"><a xlink:title=" ">
<path fill="none" stroke="#63b8ff" d="M9.2,-122.01C7.83,-106.58 7.85,-86.63 13.75,-70 14.65,-67.47 15.76,-64.98 17.03,-62.54"/>
<polygon fill="none" stroke="#63b8ff" points="17.02,-62.57 16.85,-55.36 23.43,-52.43 23.6,-59.64 17.02,-62.57"/>
</a>
</g>
<text xml:space="preserve" text-anchor="start" x="16.75" y="-83.5" font-family="Helvetica,sans-Serif" font-size="10.00" fill="grey">+isActive</text>
</g>
<!-- Node3 -->
<g id="Node000003" class="node">
<title>Node3</title>
<g id="a_Node000003"><a xlink:title=" ">
<polygon fill="white" stroke="none" points="104.25,-174 61.75,-174 61.75,-122 104.25,-122 104.25,-174"/>
<text xml:space="preserve" text-anchor="start" x="65.75" y="-160.5" font-family="Helvetica,sans-Serif" font-size="10.00">uint64_t</text>
<text xml:space="preserve" text-anchor="start" x="81.5" y="-144.5" font-family="Helvetica,sans-Serif" font-size="10.00"> </text>
<text xml:space="preserve" text-anchor="start" x="81.5" y="-128.5" font-family="Helvetica,sans-Serif" font-size="10.00"> </text>
<polygon fill="#bfbfbf" stroke="#bfbfbf" points="61.75,-156 61.75,-156 104.25,-156 104.25,-156 61.75,-156"/>
<polygon fill="#bfbfbf" stroke="#bfbfbf" points="61.75,-140 61.75,-140 104.25,-140 104.25,-140 61.75,-140"/>
<polygon fill="none" stroke="#bfbfbf" points="61.75,-122 61.75,-174 104.25,-174 104.25,-122 61.75,-122"/>
</a>
</g>
</g>
<!-- Node3&#45;&gt;Node1 -->
<g id="edge2_Node000001_Node000003" class="edge">
<title>Node3&#45;&gt;Node1</title>
<g id="a_edge2_Node000001_Node000003"><a xlink:title=" ">
<path fill="none" stroke="#63b8ff" d="M75.96,-122C71.69,-106.93 66.1,-87.34 61,-70 60.46,-68.18 59.91,-66.31 59.35,-64.43"/>
<polygon fill="none" stroke="#63b8ff" points="59.33,-64.35 53.78,-59.75 55.88,-52.86 61.44,-57.45 59.33,-64.35"/>
</a>
</g>
<text xml:space="preserve" text-anchor="start" x="73.77" y="-91.5" font-family="Helvetica,sans-Serif" font-size="10.00" fill="grey">+inputs</text>
<text xml:space="preserve" text-anchor="start" x="73.77" y="-75.5" font-family="Helvetica,sans-Serif" font-size="10.00" fill="grey">+outputs</text>
</g>
</g>
</svg>
