<?xml version="1.0" encoding="UTF-8" standalone="no"?>
<!DOCTYPE svg PUBLIC "-//W3C//DTD SVG 1.1//EN"
 "http://www.w3.org/Graphics/SVG/1.1/DTD/svg11.dtd">
<!-- Generated by graphviz version 13.1.0 (20250701.0955)
 -->
<!-- Title: Lib::HAL::SPI::Master::TransperentBase::getHandle Pages: 1 -->
<svg width="541pt" height="146pt"
 viewBox="0.00 0.00 541.00 146.00" xmlns="http://www.w3.org/2000/svg" xmlns:xlink="http://www.w3.org/1999/xlink">
<g id="graph0" class="graph" transform="scale(1 1) rotate(0) translate(4 142)">
<title>Lib::HAL::SPI::Master::TransperentBase::getHandle</title>
<!-- Node1 -->
<g id="Node000001" class="node">
<title>Node1</title>
<g id="a_Node000001"><a xlink:title="Returns the SPI handle pointer associated with this object.">
<polygon fill="#999999" stroke="#666666" points="533.25,-76 386.75,-76 386.75,-44 533.25,-44 533.25,-76"/>
<text xml:space="preserve" text-anchor="start" x="394.75" y="-62.5" font-family="Helvetica,sans-Serif" font-size="10.00">Lib::HAL::SPI::Master</text>
<text xml:space="preserve" text-anchor="middle" x="460" y="-50.5" font-family="Helvetica,sans-Serif" font-size="10.00">::TransperentBase::getHandle</text>
</a>
</g>
</g>
<!-- Node2 -->
<g id="Node000002" class="node">
<title>Node2</title>
<g id="a_Node000002"><a xlink:href="../../d2/d09/class_lib_1_1_h_a_l_1_1_s_p_i_1_1_master_1_1_transperent_base_1_1_device_manager.html#a96be51a552181d0c908b52f4e55a884b" target="_top" xlink:title="Deinitializes the SPI device and unregisters callbacks.">
<polygon fill="white" stroke="#666666" points="341.38,-138 170.88,-138 170.88,-94 341.38,-94 341.38,-138"/>
<text xml:space="preserve" text-anchor="start" x="178.88" y="-124.5" font-family="Helvetica,sans-Serif" font-size="10.00">Lib::HAL::SPI::Master</text>
<text xml:space="preserve" text-anchor="start" x="178.88" y="-112.5" font-family="Helvetica,sans-Serif" font-size="10.00">::TransperentBase::DeviceManager</text>
<text xml:space="preserve" text-anchor="middle" x="256.12" y="-100.5" font-family="Helvetica,sans-Serif" font-size="10.00">::deinit</text>
</a>
</g>
</g>
<!-- Node1&#45;&gt;Node2 -->
<g id="edge1_Node000001_Node000002" class="edge">
<title>Node1&#45;&gt;Node2</title>
<g id="a_edge1_Node000001_Node000002"><a xlink:title=" ">
<path fill="none" stroke="#63b8ff" d="M388.43,-79.58C372.1,-84.11 354.6,-88.96 337.87,-93.6"/>
<polygon fill="#63b8ff" stroke="#63b8ff" points="389.36,-82.95 398.06,-76.9 387.49,-76.2 389.36,-82.95"/>
</a>
</g>
</g>
<!-- Node4 -->
<g id="Node000004" class="node">
<title>Node4</title>
<g id="a_Node000004"><a xlink:href="../../d2/d09/class_lib_1_1_h_a_l_1_1_s_p_i_1_1_master_1_1_transperent_base_1_1_device_manager.html#ad8aa05726a3cf91fe474aec59b7961ac" target="_top" xlink:title="Initializes the SPI device and registers callbacks.">
<polygon fill="white" stroke="#666666" points="350.75,-76 161.5,-76 161.5,-44 350.75,-44 350.75,-76"/>
<text xml:space="preserve" text-anchor="start" x="169.5" y="-62.5" font-family="Helvetica,sans-Serif" font-size="10.00">Lib::HAL::SPI::Master</text>
<text xml:space="preserve" text-anchor="middle" x="256.12" y="-50.5" font-family="Helvetica,sans-Serif" font-size="10.00">::TransperentBase::DeviceManager::init</text>
</a>
</g>
</g>
<!-- Node1&#45;&gt;Node4 -->
<g id="edge3_Node000001_Node000004" class="edge">
<title>Node1&#45;&gt;Node4</title>
<g id="a_edge3_Node000001_Node000004"><a xlink:title=" ">
<path fill="none" stroke="#63b8ff" d="M375.02,-60C367.16,-60 359.17,-60 351.23,-60"/>
<polygon fill="#63b8ff" stroke="#63b8ff" points="374.89,-63.5 384.89,-60 374.89,-56.5 374.89,-63.5"/>
</a>
</g>
</g>
<!-- Node6 -->
<g id="Node000006" class="node">
<title>Node6</title>
<g id="a_Node000006"><a xlink:href="../../dd/d3d/class_lib_1_1_h_a_l_1_1_s_p_i_1_1_master_1_1_transperent_base.html#ab8e2cd793d74d7fed6547f8c41e03b11" target="_top" xlink:title="Opens the SPI port, registers the device, and initializes event notification.">
<polygon fill="white" stroke="#666666" points="124.38,-32 1.12,-32 1.12,0 124.38,0 124.38,-32"/>
<text xml:space="preserve" text-anchor="start" x="9.12" y="-18.5" font-family="Helvetica,sans-Serif" font-size="10.00">Lib::HAL::SPI::Master</text>
<text xml:space="preserve" text-anchor="middle" x="62.75" y="-6.5" font-family="Helvetica,sans-Serif" font-size="10.00">::TransperentBase::open</text>
</a>
</g>
</g>
<!-- Node1&#45;&gt;Node6 -->
<g id="edge6_Node000001_Node000006" class="edge">
<title>Node1&#45;&gt;Node6</title>
<g id="a_edge6_Node000001_Node000006"><a xlink:title=" ">
<path fill="none" stroke="#63b8ff" d="M384.4,-41.12C373.18,-38.76 361.7,-36.62 350.75,-35 273.32,-23.57 183.11,-19.01 124.8,-17.2"/>
<polygon fill="#63b8ff" stroke="#63b8ff" points="383.51,-44.51 394.02,-43.22 385,-37.67 383.51,-44.51"/>
</a>
</g>
</g>
<!-- Node3 -->
<g id="Node000003" class="node">
<title>Node3</title>
<g id="a_Node000003"><a xlink:href="../../dd/d3d/class_lib_1_1_h_a_l_1_1_s_p_i_1_1_master_1_1_transperent_base.html#a3616d3e6185b2b1a49864f1a779c16f3" target="_top" xlink:title="Deinitializes the SPI port and releases associated resources.">
<polygon fill="white" stroke="#666666" points="125.5,-132 0,-132 0,-100 125.5,-100 125.5,-132"/>
<text xml:space="preserve" text-anchor="start" x="8" y="-118.5" font-family="Helvetica,sans-Serif" font-size="10.00">Lib::HAL::SPI::Master</text>
<text xml:space="preserve" text-anchor="middle" x="62.75" y="-106.5" font-family="Helvetica,sans-Serif" font-size="10.00">::TransperentBase::deinit</text>
</a>
</g>
</g>
<!-- Node2&#45;&gt;Node3 -->
<g id="edge2_Node000002_Node000003" class="edge">
<title>Node2&#45;&gt;Node3</title>
<g id="a_edge2_Node000002_Node000003"><a xlink:title=" ">
<path fill="none" stroke="#63b8ff" d="M159.32,-116C147.98,-116 136.65,-116 125.96,-116"/>
<polygon fill="#63b8ff" stroke="#63b8ff" points="159.11,-119.5 169.11,-116 159.11,-112.5 159.11,-119.5"/>
</a>
</g>
</g>
<!-- Node5 -->
<g id="Node000005" class="node">
<title>Node5</title>
<g id="a_Node000005"><a xlink:href="../../dd/d3d/class_lib_1_1_h_a_l_1_1_s_p_i_1_1_master_1_1_transperent_base.html#a08da249c76eb06b93280befff9234867" target="_top" xlink:title="Initializes the SPI port and prepares it for communication.">
<polygon fill="white" stroke="#666666" points="120.25,-82 5.25,-82 5.25,-50 120.25,-50 120.25,-82"/>
<text xml:space="preserve" text-anchor="start" x="13.25" y="-68.5" font-family="Helvetica,sans-Serif" font-size="10.00">Lib::HAL::SPI::Master</text>
<text xml:space="preserve" text-anchor="middle" x="62.75" y="-56.5" font-family="Helvetica,sans-Serif" font-size="10.00">::TransperentBase::init</text>
</a>
</g>
</g>
<!-- Node4&#45;&gt;Node5 -->
<g id="edge4_Node000004_Node000005" class="edge">
<title>Node4&#45;&gt;Node5</title>
<g id="a_edge4_Node000004_Node000005"><a xlink:title=" ">
<path fill="none" stroke="#63b8ff" d="M149.81,-63.3C139.83,-63.61 129.99,-63.92 120.73,-64.21"/>
<polygon fill="#63b8ff" stroke="#63b8ff" points="149.72,-66.81 159.61,-62.99 149.5,-59.81 149.72,-66.81"/>
</a>
</g>
</g>
<!-- Node4&#45;&gt;Node6 -->
<g id="edge5_Node000004_Node000006" class="edge">
<title>Node4&#45;&gt;Node6</title>
<g id="a_edge5_Node000004_Node000006"><a xlink:title=" ">
<path fill="none" stroke="#63b8ff" d="M172.6,-41.03C156.57,-37.34 140.04,-33.54 124.85,-30.05"/>
<polygon fill="#63b8ff" stroke="#63b8ff" points="171.59,-44.38 182.12,-43.21 173.16,-37.56 171.59,-44.38"/>
</a>
</g>
</g>
</g>
</svg>
