<?xml version="1.0" encoding="UTF-8" standalone="no"?>
<!DOCTYPE svg PUBLIC "-//W3C//DTD SVG 1.1//EN"
 "http://www.w3.org/Graphics/SVG/1.1/DTD/svg11.dtd">
<!-- Generated by graphviz version 13.1.0 (20250701.0955)
 -->
<!-- Title: Lib::HAL::SPI::Master::TransperentBase::waitForComplete Pages: 1 -->
<svg width="731pt" height="507pt"
 viewBox="0.00 0.00 731.00 507.00" xmlns="http://www.w3.org/2000/svg" xmlns:xlink="http://www.w3.org/1999/xlink">
<g id="graph0" class="graph" transform="scale(1 1) rotate(0) translate(4 503)">
<title>Lib::HAL::SPI::Master::TransperentBase::waitForComplete</title>
<!-- Node1 -->
<g id="Node000001" class="node">
<title>Node1</title>
<g id="a_Node000001"><a xlink:title="Waits for specified event bit to be set within timeout period.">
<polygon fill="#999999" stroke="#666666" points="722.5,-287 557.25,-287 557.25,-258 722.5,-258 722.5,-287"/>
<text xml:space="preserve" text-anchor="start" x="565.25" y="-274.45" font-family="Arial" font-size="9.00">Lib::HAL::SPI::Master</text>
<text xml:space="preserve" text-anchor="middle" x="639.88" y="-263.95" font-family="Arial" font-size="9.00">::TransperentBase::waitForComplete</text>
</a>
</g>
</g>
<!-- Node2 -->
<g id="Node000002" class="node">
<title>Node2</title>
<g id="a_Node000002"><a xlink:href="../../dd/d3d/class_lib_1_1_h_a_l_1_1_s_p_i_1_1_master_1_1_transperent_base.html#ac337f19d36c3aca4377d3f0397bcbe50" target="_top" xlink:title="Waits for abort completion event with timeout.">
<polygon fill="white" stroke="#666666" points="521.25,-457.25 374,-457.25 374,-417.75 521.25,-417.75 521.25,-457.25"/>
<text xml:space="preserve" text-anchor="start" x="382" y="-444.7" font-family="Arial" font-size="9.00">Lib::HAL::SPI::Master</text>
<text xml:space="preserve" text-anchor="start" x="382" y="-434.2" font-family="Arial" font-size="9.00">::TransperentBase::waitForAbort</text>
<text xml:space="preserve" text-anchor="middle" x="447.62" y="-423.7" font-family="Arial" font-size="9.00">Completed</text>
</a>
</g>
</g>
<!-- Node1&#45;&gt;Node2 -->
<g id="edge1_Node000001_Node000002" class="edge">
<title>Node1&#45;&gt;Node2</title>
<g id="a_edge1_Node000001_Node000002"><a xlink:title=" ">
<path fill="none" stroke="#63b8ff" d="M613.35,-294.64C576.15,-326.9 507.61,-386.35 471.79,-417.41"/>
<polygon fill="#63b8ff" stroke="#63b8ff" points="615.25,-297.62 620.51,-288.43 610.66,-292.33 615.25,-297.62"/>
</a>
</g>
</g>
<!-- Node6 -->
<g id="Node000006" class="node">
<title>Node6</title>
<g id="a_Node000006"><a xlink:href="../../dd/d3d/class_lib_1_1_h_a_l_1_1_s_p_i_1_1_master_1_1_transperent_base.html#aa97578858a404daf8fa5cbad6afd156e" target="_top" xlink:title="Waits for receive completion event with timeout.">
<polygon fill="white" stroke="#666666" points="516,-339.25 379.25,-339.25 379.25,-299.75 516,-299.75 516,-339.25"/>
<text xml:space="preserve" text-anchor="start" x="387.25" y="-326.7" font-family="Arial" font-size="9.00">Lib::HAL::SPI::Master</text>
<text xml:space="preserve" text-anchor="start" x="387.25" y="-316.2" font-family="Arial" font-size="9.00">::TransperentBase::waitForRx</text>
<text xml:space="preserve" text-anchor="middle" x="447.62" y="-305.7" font-family="Arial" font-size="9.00">Completed</text>
</a>
</g>
</g>
<!-- Node1&#45;&gt;Node6 -->
<g id="edge5_Node000001_Node000006" class="edge">
<title>Node1&#45;&gt;Node6</title>
<g id="a_edge5_Node000001_Node000006"><a xlink:title=" ">
<path fill="none" stroke="#63b8ff" d="M567.54,-290.12C550.72,-294.28 532.84,-298.69 516.2,-302.81"/>
<polygon fill="#63b8ff" stroke="#63b8ff" points="568.08,-293.59 576.95,-287.8 566.4,-286.8 568.08,-293.59"/>
</a>
</g>
</g>
<!-- Node12 -->
<g id="Node000012" class="node">
<title>Node12</title>
<g id="a_Node000012"><a xlink:href="../../dd/d3d/class_lib_1_1_h_a_l_1_1_s_p_i_1_1_master_1_1_transperent_base.html#ae176e9ab9148380f2307a54cc00bb7a6" target="_top" xlink:title="Waits for transmit completion event with timeout.">
<polygon fill="white" stroke="#666666" points="515.25,-245.25 380,-245.25 380,-205.75 515.25,-205.75 515.25,-245.25"/>
<text xml:space="preserve" text-anchor="start" x="388" y="-232.7" font-family="Arial" font-size="9.00">Lib::HAL::SPI::Master</text>
<text xml:space="preserve" text-anchor="start" x="388" y="-222.2" font-family="Arial" font-size="9.00">::TransperentBase::waitForTx</text>
<text xml:space="preserve" text-anchor="middle" x="447.62" y="-211.7" font-family="Arial" font-size="9.00">Completed</text>
</a>
</g>
</g>
<!-- Node1&#45;&gt;Node12 -->
<g id="edge11_Node000001_Node000012" class="edge">
<title>Node1&#45;&gt;Node12</title>
<g id="a_edge11_Node000001_Node000012"><a xlink:title=" ">
<path fill="none" stroke="#63b8ff" d="M567.42,-254.85C550.41,-250.65 532.32,-246.18 515.53,-242.03"/>
<polygon fill="#63b8ff" stroke="#63b8ff" points="566.4,-258.2 576.95,-257.2 568.08,-251.41 566.4,-258.2"/>
</a>
</g>
</g>
<!-- Node18 -->
<g id="Node000018" class="node">
<title>Node18</title>
<g id="a_Node000018"><a xlink:href="../../dd/d3d/class_lib_1_1_h_a_l_1_1_s_p_i_1_1_master_1_1_transperent_base.html#ac4eeb5db1bc8932abe015e9732a72b3c" target="_top" xlink:title="Waits for transmit/receive completion event with timeout.">
<polygon fill="white" stroke="#666666" points="515.25,-105.25 380,-105.25 380,-65.75 515.25,-65.75 515.25,-105.25"/>
<text xml:space="preserve" text-anchor="start" x="388" y="-92.7" font-family="Arial" font-size="9.00">Lib::HAL::SPI::Master</text>
<text xml:space="preserve" text-anchor="start" x="388" y="-82.2" font-family="Arial" font-size="9.00">::TransperentBase::waitForTx</text>
<text xml:space="preserve" text-anchor="middle" x="447.62" y="-71.7" font-family="Arial" font-size="9.00">RxCompleted</text>
</a>
</g>
</g>
<!-- Node1&#45;&gt;Node18 -->
<g id="edge17_Node000001_Node000018" class="edge">
<title>Node1&#45;&gt;Node18</title>
<g id="a_edge17_Node000001_Node000018"><a xlink:title=" ">
<path fill="none" stroke="#63b8ff" d="M615.77,-249.79C578.25,-212.91 504.71,-140.63 469.02,-105.55"/>
<polygon fill="#63b8ff" stroke="#63b8ff" points="612.96,-251.94 622.55,-256.45 617.87,-246.95 612.96,-251.94"/>
</a>
</g>
</g>
<!-- Node3 -->
<g id="Node000003" class="node">
<title>Node3</title>
<g id="a_Node000003"><a xlink:href="../../dd/d3d/class_lib_1_1_h_a_l_1_1_s_p_i_1_1_master_1_1_transperent_base.html#a0ee1261af66289ebe22ad068e2e2def3" target="_top" xlink:title="Aborts current SPI operation and waits for abort completion.">
<polygon fill="white" stroke="#666666" points="310.25,-499 193.75,-499 193.75,-470 310.25,-470 310.25,-499"/>
<text xml:space="preserve" text-anchor="start" x="201.75" y="-486.45" font-family="Arial" font-size="9.00">Lib::HAL::SPI::Master</text>
<text xml:space="preserve" text-anchor="middle" x="252" y="-475.95" font-family="Arial" font-size="9.00">::TransperentBase::abort</text>
</a>
</g>
</g>
<!-- Node2&#45;&gt;Node3 -->
<g id="edge2_Node000002_Node000003" class="edge">
<title>Node2&#45;&gt;Node3</title>
<g id="a_edge2_Node000002_Node000003"><a xlink:title=" ">
<path fill="none" stroke="#63b8ff" d="M362.8,-457.85C345.14,-462.13 326.9,-466.56 310.47,-470.55"/>
<polygon fill="#63b8ff" stroke="#63b8ff" points="363.34,-461.32 372.23,-455.56 361.69,-454.52 363.34,-461.32"/>
</a>
</g>
</g>
<!-- Node5 -->
<g id="Node000005" class="node">
<title>Node5</title>
<g id="a_Node000005"><a xlink:href="../../d9/de8/class_lib_1_1_h_a_l_1_1_s_p_i_1_1_master_1_1_port_3_01_i_t_01_4.html#ae8eff6a2980af3ecad29ae85c9c2f54c" target="_top" xlink:title="Waits for abort completion in IT mode.">
<polygon fill="white" stroke="#666666" points="332.38,-452 171.62,-452 171.62,-423 332.38,-423 332.38,-452"/>
<text xml:space="preserve" text-anchor="start" x="179.62" y="-439.45" font-family="Arial" font-size="9.00">Lib::HAL::SPI::Master</text>
<text xml:space="preserve" text-anchor="middle" x="252" y="-428.95" font-family="Arial" font-size="9.00">::Port&lt; IT &gt;::waitForAbortCompleted</text>
</a>
</g>
</g>
<!-- Node2&#45;&gt;Node5 -->
<g id="edge4_Node000002_Node000005" class="edge">
<title>Node2&#45;&gt;Node5</title>
<g id="a_edge4_Node000002_Node000005"><a xlink:title=" ">
<path fill="none" stroke="#63b8ff" d="M362.26,-437.5C352.43,-437.5 342.43,-437.5 332.66,-437.5"/>
<polygon fill="#63b8ff" stroke="#63b8ff" points="362.19,-441 372.19,-437.5 362.19,-434 362.19,-441"/>
</a>
</g>
</g>
<!-- Node4 -->
<g id="Node000004" class="node">
<title>Node4</title>
<g id="a_Node000004"><a xlink:href="../../d9/de8/class_lib_1_1_h_a_l_1_1_s_p_i_1_1_master_1_1_port_3_01_i_t_01_4.html#ab4ad30c59b65ddea75dcd99a5c31411b" target="_top" xlink:title="Aborts ongoing SPI transfer in IT mode.">
<polygon fill="white" stroke="#666666" points="116.12,-499 13.88,-499 13.88,-470 116.12,-470 116.12,-499"/>
<text xml:space="preserve" text-anchor="start" x="21.88" y="-486.45" font-family="Arial" font-size="9.00">Lib::HAL::SPI::Master</text>
<text xml:space="preserve" text-anchor="middle" x="65" y="-475.95" font-family="Arial" font-size="9.00">::Port&lt; IT &gt;::abort</text>
</a>
</g>
</g>
<!-- Node3&#45;&gt;Node4 -->
<g id="edge3_Node000003_Node000004" class="edge">
<title>Node3&#45;&gt;Node4</title>
<g id="a_edge3_Node000003_Node000004"><a xlink:title=" ">
<path fill="none" stroke="#63b8ff" d="M181.99,-484.5C160.3,-484.5 136.77,-484.5 116.6,-484.5"/>
<polygon fill="#63b8ff" stroke="#63b8ff" points="181.97,-488 191.97,-484.5 181.97,-481 181.97,-488"/>
</a>
</g>
</g>
<!-- Node7 -->
<g id="Node000007" class="node">
<title>Node7</title>
<g id="a_Node000007"><a xlink:href="../../dd/d3d/class_lib_1_1_h_a_l_1_1_s_p_i_1_1_master_1_1_transperent_base.html#a1696bbb225f7c38d04ca670735900bcf" target="_top" xlink:title="Receives data via SPI into destination buffer with timeout and waits for completion.">
<polygon fill="white" stroke="#666666" points="314.75,-405 189.25,-405 189.25,-376 314.75,-376 314.75,-405"/>
<text xml:space="preserve" text-anchor="start" x="197.25" y="-392.45" font-family="Arial" font-size="9.00">Lib::HAL::SPI::Master</text>
<text xml:space="preserve" text-anchor="middle" x="252" y="-381.95" font-family="Arial" font-size="9.00">::TransperentBase::receive</text>
</a>
</g>
</g>
<!-- Node6&#45;&gt;Node7 -->
<g id="edge6_Node000006_Node000007" class="edge">
<title>Node6&#45;&gt;Node7</title>
<g id="a_edge6_Node000006_Node000007"><a xlink:title=" ">
<path fill="none" stroke="#63b8ff" d="M394.77,-344.33C377,-352.33 356.85,-360.83 338,-367.5 329.93,-370.36 321.32,-373.06 312.8,-375.55"/>
<polygon fill="#63b8ff" stroke="#63b8ff" points="395.9,-347.66 403.55,-340.33 393,-341.29 395.9,-347.66"/>
</a>
</g>
</g>
<!-- Node10 -->
<g id="Node000010" class="node">
<title>Node10</title>
<g id="a_Node000010"><a xlink:href="../../dd/df3/class_lib_1_1_h_a_l_1_1_s_p_i_1_1_master_1_1_port_3_01_d_m_a_01_4.html#a699c4446d92eb412286b9580e5dcb29c" target="_top" xlink:title="Waits for SPI receive completion.">
<polygon fill="white" stroke="#666666" points="333.12,-358 170.88,-358 170.88,-329 333.12,-329 333.12,-358"/>
<text xml:space="preserve" text-anchor="start" x="178.88" y="-345.45" font-family="Arial" font-size="9.00">Lib::HAL::SPI::Master</text>
<text xml:space="preserve" text-anchor="middle" x="252" y="-334.95" font-family="Arial" font-size="9.00">::Port&lt; DMA &gt;::waitForRxCompleted</text>
</a>
</g>
</g>
<!-- Node6&#45;&gt;Node10 -->
<g id="edge9_Node000006_Node000010" class="edge">
<title>Node6&#45;&gt;Node10</title>
<g id="a_edge9_Node000006_Node000010"><a xlink:title=" ">
<path fill="none" stroke="#63b8ff" d="M367.7,-329.28C356.36,-330.69 344.68,-332.14 333.31,-333.54"/>
<polygon fill="#63b8ff" stroke="#63b8ff" points="367.91,-332.78 377.4,-328.08 367.05,-325.84 367.91,-332.78"/>
</a>
</g>
</g>
<!-- Node11 -->
<g id="Node000011" class="node">
<title>Node11</title>
<g id="a_Node000011"><a xlink:href="../../d9/de8/class_lib_1_1_h_a_l_1_1_s_p_i_1_1_master_1_1_port_3_01_i_t_01_4.html#af4e8279c53f4472925e8ea1a6842656b" target="_top" xlink:title="Waits for RX completion in IT mode.">
<polygon fill="white" stroke="#666666" points="327.12,-311 176.88,-311 176.88,-282 327.12,-282 327.12,-311"/>
<text xml:space="preserve" text-anchor="start" x="184.88" y="-298.45" font-family="Arial" font-size="9.00">Lib::HAL::SPI::Master</text>
<text xml:space="preserve" text-anchor="middle" x="252" y="-287.95" font-family="Arial" font-size="9.00">::Port&lt; IT &gt;::waitForRxCompleted</text>
</a>
</g>
</g>
<!-- Node6&#45;&gt;Node11 -->
<g id="edge10_Node000006_Node000011" class="edge">
<title>Node6&#45;&gt;Node11</title>
<g id="a_edge10_Node000006_Node000011"><a xlink:title=" ">
<path fill="none" stroke="#63b8ff" d="M367.87,-310.14C354.57,-308.57 340.81,-306.93 327.62,-305.36"/>
<polygon fill="#63b8ff" stroke="#63b8ff" points="367.06,-313.57 377.4,-311.28 367.88,-306.62 367.06,-313.57"/>
</a>
</g>
</g>
<!-- Node8 -->
<g id="Node000008" class="node">
<title>Node8</title>
<g id="a_Node000008"><a xlink:href="../../dd/df3/class_lib_1_1_h_a_l_1_1_s_p_i_1_1_master_1_1_port_3_01_d_m_a_01_4.html#ade6b3eef69b43a8930d485e8b92b8457" target="_top" xlink:title="Receives data via SPI using DMA.">
<polygon fill="white" stroke="#666666" points="118,-428 12,-428 12,-399 118,-399 118,-428"/>
<text xml:space="preserve" text-anchor="start" x="20" y="-415.45" font-family="Arial" font-size="9.00">Lib::HAL::SPI::Master</text>
<text xml:space="preserve" text-anchor="middle" x="65" y="-404.95" font-family="Arial" font-size="9.00">::Port&lt; DMA &gt;::receive</text>
</a>
</g>
</g>
<!-- Node7&#45;&gt;Node8 -->
<g id="edge7_Node000007_Node000008" class="edge">
<title>Node7&#45;&gt;Node8</title>
<g id="a_edge7_Node000007_Node000008"><a xlink:title=" ">
<path fill="none" stroke="#63b8ff" d="M177.7,-399.61C157.87,-402.08 136.81,-404.7 118.39,-406.99"/>
<polygon fill="#63b8ff" stroke="#63b8ff" points="177.89,-403.12 187.38,-398.41 177.03,-396.17 177.89,-403.12"/>
</a>
</g>
</g>
<!-- Node9 -->
<g id="Node000009" class="node">
<title>Node9</title>
<g id="a_Node000009"><a xlink:href="../../d9/de8/class_lib_1_1_h_a_l_1_1_s_p_i_1_1_master_1_1_port_3_01_i_t_01_4.html#a482852a985889326f353dd23d17391c9" target="_top" xlink:title="Receives data via SPI in IT mode.">
<polygon fill="white" stroke="#666666" points="116.12,-381 13.88,-381 13.88,-352 116.12,-352 116.12,-381"/>
<text xml:space="preserve" text-anchor="start" x="21.88" y="-368.45" font-family="Arial" font-size="9.00">Lib::HAL::SPI::Master</text>
<text xml:space="preserve" text-anchor="middle" x="65" y="-357.95" font-family="Arial" font-size="9.00">::Port&lt; IT &gt;::receive</text>
</a>
</g>
</g>
<!-- Node7&#45;&gt;Node9 -->
<g id="edge8_Node000007_Node000009" class="edge">
<title>Node7&#45;&gt;Node9</title>
<g id="a_edge8_Node000007_Node000009"><a xlink:title=" ">
<path fill="none" stroke="#63b8ff" d="M177.67,-380.99C157.2,-378.33 135.42,-375.51 116.58,-373.06"/>
<polygon fill="#63b8ff" stroke="#63b8ff" points="177.01,-384.43 187.38,-382.25 177.92,-377.49 177.01,-384.43"/>
</a>
</g>
</g>
<!-- Node13 -->
<g id="Node000013" class="node">
<title>Node13</title>
<g id="a_Node000013"><a xlink:href="../../dd/d3d/class_lib_1_1_h_a_l_1_1_s_p_i_1_1_master_1_1_transperent_base.html#a36c32a167506e5340c17ad554f6b77f1" target="_top" xlink:title="Sends data via SPI from source buffer with timeout and waits for completion.">
<polygon fill="white" stroke="#666666" points="309.88,-264 194.12,-264 194.12,-235 309.88,-235 309.88,-264"/>
<text xml:space="preserve" text-anchor="start" x="202.12" y="-251.45" font-family="Arial" font-size="9.00">Lib::HAL::SPI::Master</text>
<text xml:space="preserve" text-anchor="middle" x="252" y="-240.95" font-family="Arial" font-size="9.00">::TransperentBase::send</text>
</a>
</g>
</g>
<!-- Node12&#45;&gt;Node13 -->
<g id="edge12_Node000012_Node000013" class="edge">
<title>Node12&#45;&gt;Node13</title>
<g id="a_edge12_Node000012_Node000013"><a xlink:title=" ">
<path fill="none" stroke="#63b8ff" d="M368.41,-235.19C348.96,-237.61 328.47,-240.15 310.24,-242.41"/>
<polygon fill="#63b8ff" stroke="#63b8ff" points="368.72,-238.68 378.22,-233.98 367.86,-231.74 368.72,-238.68"/>
</a>
</g>
</g>
<!-- Node16 -->
<g id="Node000016" class="node">
<title>Node16</title>
<g id="a_Node000016"><a xlink:href="../../dd/df3/class_lib_1_1_h_a_l_1_1_s_p_i_1_1_master_1_1_port_3_01_d_m_a_01_4.html#affd464c7ad14c43e4142930f15128ee8" target="_top" xlink:title="Waits for SPI transmit completion.">
<polygon fill="white" stroke="#666666" points="332.38,-217 171.62,-217 171.62,-188 332.38,-188 332.38,-217"/>
<text xml:space="preserve" text-anchor="start" x="179.62" y="-204.45" font-family="Arial" font-size="9.00">Lib::HAL::SPI::Master</text>
<text xml:space="preserve" text-anchor="middle" x="252" y="-193.95" font-family="Arial" font-size="9.00">::Port&lt; DMA &gt;::waitForTxCompleted</text>
</a>
</g>
</g>
<!-- Node12&#45;&gt;Node16 -->
<g id="edge15_Node000012_Node000016" class="edge">
<title>Node12&#45;&gt;Node16</title>
<g id="a_edge15_Node000012_Node000016"><a xlink:title=" ">
<path fill="none" stroke="#63b8ff" d="M368.51,-216.22C356.67,-214.82 344.45,-213.36 332.58,-211.95"/>
<polygon fill="#63b8ff" stroke="#63b8ff" points="367.87,-219.67 378.22,-217.37 368.7,-212.72 367.87,-219.67"/>
</a>
</g>
</g>
<!-- Node17 -->
<g id="Node000017" class="node">
<title>Node17</title>
<g id="a_Node000017"><a xlink:href="../../d9/de8/class_lib_1_1_h_a_l_1_1_s_p_i_1_1_master_1_1_port_3_01_i_t_01_4.html#a66b458d8aebd3d3629c15d452acd12e2" target="_top" xlink:title="Waits for TX completion in IT mode.">
<polygon fill="white" stroke="#666666" points="326.38,-170 177.62,-170 177.62,-141 326.38,-141 326.38,-170"/>
<text xml:space="preserve" text-anchor="start" x="185.62" y="-157.45" font-family="Arial" font-size="9.00">Lib::HAL::SPI::Master</text>
<text xml:space="preserve" text-anchor="middle" x="252" y="-146.95" font-family="Arial" font-size="9.00">::Port&lt; IT &gt;::waitForTxCompleted</text>
</a>
</g>
</g>
<!-- Node12&#45;&gt;Node17 -->
<g id="edge16_Node000012_Node000017" class="edge">
<title>Node12&#45;&gt;Node17</title>
<g id="a_edge16_Node000012_Node000017"><a xlink:title=" ">
<path fill="none" stroke="#63b8ff" d="M392.08,-200.82C374.94,-193.5 355.84,-185.77 338,-179.5 328.89,-176.3 319.11,-173.22 309.55,-170.39"/>
<polygon fill="#63b8ff" stroke="#63b8ff" points="390.5,-203.96 401.07,-204.71 393.28,-197.53 390.5,-203.96"/>
</a>
</g>
</g>
<!-- Node14 -->
<g id="Node000014" class="node">
<title>Node14</title>
<g id="a_Node000014"><a xlink:href="../../dd/df3/class_lib_1_1_h_a_l_1_1_s_p_i_1_1_master_1_1_port_3_01_d_m_a_01_4.html#a097a8e2e62011df0cfffb0169c5f7d4d" target="_top" xlink:title="Sends data via SPI using DMA.">
<polygon fill="white" stroke="#666666" points="116.12,-287 13.88,-287 13.88,-258 116.12,-258 116.12,-287"/>
<text xml:space="preserve" text-anchor="start" x="21.88" y="-274.45" font-family="Arial" font-size="9.00">Lib::HAL::SPI::Master</text>
<text xml:space="preserve" text-anchor="middle" x="65" y="-263.95" font-family="Arial" font-size="9.00">::Port&lt; DMA &gt;::send</text>
</a>
</g>
</g>
<!-- Node13&#45;&gt;Node14 -->
<g id="edge13_Node000013_Node000014" class="edge">
<title>Node13&#45;&gt;Node14</title>
<g id="a_edge13_Node000013_Node000014"><a xlink:title=" ">
<path fill="none" stroke="#63b8ff" d="M182.49,-258.02C160.6,-260.74 136.78,-263.7 116.42,-266.23"/>
<polygon fill="#63b8ff" stroke="#63b8ff" points="182.74,-261.51 192.23,-256.81 181.87,-254.57 182.74,-261.51"/>
</a>
</g>
</g>
<!-- Node15 -->
<g id="Node000015" class="node">
<title>Node15</title>
<g id="a_Node000015"><a xlink:href="../../d9/de8/class_lib_1_1_h_a_l_1_1_s_p_i_1_1_master_1_1_port_3_01_i_t_01_4.html#a6024513e7333de48b06617f642d88168" target="_top" xlink:title="Sends data via SPI in IT mode.">
<polygon fill="white" stroke="#666666" points="116.12,-240 13.88,-240 13.88,-211 116.12,-211 116.12,-240"/>
<text xml:space="preserve" text-anchor="start" x="21.88" y="-227.45" font-family="Arial" font-size="9.00">Lib::HAL::SPI::Master</text>
<text xml:space="preserve" text-anchor="middle" x="65" y="-216.95" font-family="Arial" font-size="9.00">::Port&lt; IT &gt;::send</text>
</a>
</g>
</g>
<!-- Node13&#45;&gt;Node15 -->
<g id="edge14_Node000013_Node000015" class="edge">
<title>Node13&#45;&gt;Node15</title>
<g id="a_edge14_Node000013_Node000015"><a xlink:title=" ">
<path fill="none" stroke="#63b8ff" d="M182.49,-240.61C160.6,-237.77 136.78,-234.68 116.42,-232.04"/>
<polygon fill="#63b8ff" stroke="#63b8ff" points="181.86,-244.06 192.23,-241.88 182.76,-237.12 181.86,-244.06"/>
</a>
</g>
</g>
<!-- Node19 -->
<g id="Node000019" class="node">
<title>Node19</title>
<g id="a_Node000019"><a xlink:href="../../dd/d3d/class_lib_1_1_h_a_l_1_1_s_p_i_1_1_master_1_1_transperent_base.html#af4680375637c80d6774c6c032ed73efa" target="_top" xlink:title="Simultaneously sends and receives data via SPI with timeout and waits for completion.">
<polygon fill="white" stroke="#666666" points="326.75,-123 177.25,-123 177.25,-94 326.75,-94 326.75,-123"/>
<text xml:space="preserve" text-anchor="start" x="185.25" y="-110.45" font-family="Arial" font-size="9.00">Lib::HAL::SPI::Master</text>
<text xml:space="preserve" text-anchor="middle" x="252" y="-99.95" font-family="Arial" font-size="9.00">::TransperentBase::sendReceive</text>
</a>
</g>
</g>
<!-- Node18&#45;&gt;Node19 -->
<g id="edge18_Node000018_Node000019" class="edge">
<title>Node18&#45;&gt;Node19</title>
<g id="a_edge18_Node000018_Node000019"><a xlink:title=" ">
<path fill="none" stroke="#63b8ff" d="M368.43,-94.79C354.82,-96.41 340.7,-98.08 327.2,-99.69"/>
<polygon fill="#63b8ff" stroke="#63b8ff" points="368.7,-98.28 378.22,-93.63 367.87,-91.33 368.7,-98.28"/>
</a>
</g>
</g>
<!-- Node22 -->
<g id="Node000022" class="node">
<title>Node22</title>
<g id="a_Node000022"><a xlink:href="../../dd/df3/class_lib_1_1_h_a_l_1_1_s_p_i_1_1_master_1_1_port_3_01_d_m_a_01_4.html#a64c3d85f31f8d4377973a0a5106f680f" target="_top" xlink:title="Waits for SPI transmit/receive completion.">
<polygon fill="white" stroke="#666666" points="338,-76 166,-76 166,-47 338,-47 338,-76"/>
<text xml:space="preserve" text-anchor="start" x="174" y="-63.45" font-family="Arial" font-size="9.00">Lib::HAL::SPI::Master</text>
<text xml:space="preserve" text-anchor="middle" x="252" y="-52.95" font-family="Arial" font-size="9.00">::Port&lt; DMA &gt;::waitForTxRxCompleted</text>
</a>
</g>
</g>
<!-- Node18&#45;&gt;Node22 -->
<g id="edge21_Node000018_Node000022" class="edge">
<title>Node18&#45;&gt;Node22</title>
<g id="a_edge21_Node000018_Node000022"><a xlink:title=" ">
<path fill="none" stroke="#63b8ff" d="M368.29,-75.79C358.43,-74.57 348.31,-73.31 338.35,-72.08"/>
<polygon fill="#63b8ff" stroke="#63b8ff" points="367.86,-79.26 378.22,-77.02 368.72,-72.32 367.86,-79.26"/>
</a>
</g>
</g>
<!-- Node23 -->
<g id="Node000023" class="node">
<title>Node23</title>
<g id="a_Node000023"><a xlink:href="../../d9/de8/class_lib_1_1_h_a_l_1_1_s_p_i_1_1_master_1_1_port_3_01_i_t_01_4.html#a3e98f480bf068781f06f61285a40a25a" target="_top" xlink:title="Waits for TX/RX completion in IT mode.">
<polygon fill="white" stroke="#666666" points="332,-29 172,-29 172,0 332,0 332,-29"/>
<text xml:space="preserve" text-anchor="start" x="180" y="-16.45" font-family="Arial" font-size="9.00">Lib::HAL::SPI::Master</text>
<text xml:space="preserve" text-anchor="middle" x="252" y="-5.95" font-family="Arial" font-size="9.00">::Port&lt; IT &gt;::waitForTxRxCompleted</text>
</a>
</g>
</g>
<!-- Node18&#45;&gt;Node23 -->
<g id="edge22_Node000018_Node000023" class="edge">
<title>Node18&#45;&gt;Node23</title>
<g id="a_edge22_Node000018_Node000023"><a xlink:title=" ">
<path fill="none" stroke="#63b8ff" d="M393.04,-60.63C375.67,-53.03 356.2,-44.97 338,-38.5 329.04,-35.31 319.44,-32.26 310.03,-29.47"/>
<polygon fill="#63b8ff" stroke="#63b8ff" points="391.6,-63.82 402.16,-64.68 394.44,-57.42 391.6,-63.82"/>
</a>
</g>
</g>
<!-- Node20 -->
<g id="Node000020" class="node">
<title>Node20</title>
<g id="a_Node000020"><a xlink:href="../../dd/df3/class_lib_1_1_h_a_l_1_1_s_p_i_1_1_master_1_1_port_3_01_d_m_a_01_4.html#a707a30f2ba22161bcb1ed62b421bbfec" target="_top" xlink:title="Sends and receives data via SPI using DMA.">
<polygon fill="white" stroke="#666666" points="130,-146 0,-146 0,-117 130,-117 130,-146"/>
<text xml:space="preserve" text-anchor="start" x="8" y="-133.45" font-family="Arial" font-size="9.00">Lib::HAL::SPI::Master</text>
<text xml:space="preserve" text-anchor="middle" x="65" y="-122.95" font-family="Arial" font-size="9.00">::Port&lt; DMA &gt;::sendReceive</text>
</a>
</g>
</g>
<!-- Node19&#45;&gt;Node20 -->
<g id="edge19_Node000019_Node000020" class="edge">
<title>Node19&#45;&gt;Node20</title>
<g id="a_edge19_Node000019_Node000020"><a xlink:title=" ">
<path fill="none" stroke="#63b8ff" d="M165.55,-119.12C153.71,-120.6 141.72,-122.09 130.36,-123.5"/>
<polygon fill="#63b8ff" stroke="#63b8ff" points="165.83,-122.62 175.32,-117.91 164.96,-115.67 165.83,-122.62"/>
</a>
</g>
</g>
<!-- Node21 -->
<g id="Node000021" class="node">
<title>Node21</title>
<g id="a_Node000021"><a xlink:href="../../d9/de8/class_lib_1_1_h_a_l_1_1_s_p_i_1_1_master_1_1_port_3_01_i_t_01_4.html#a532e27e3918b8b9a8d242e8a682e31c1" target="_top" xlink:title="Sends and receives data via SPI in IT mode.">
<polygon fill="white" stroke="#666666" points="124,-99 6,-99 6,-70 124,-70 124,-99"/>
<text xml:space="preserve" text-anchor="start" x="14" y="-86.45" font-family="Arial" font-size="9.00">Lib::HAL::SPI::Master</text>
<text xml:space="preserve" text-anchor="middle" x="65" y="-75.95" font-family="Arial" font-size="9.00">::Port&lt; IT &gt;::sendReceive</text>
</a>
</g>
</g>
<!-- Node19&#45;&gt;Node21 -->
<g id="edge20_Node000019_Node000021" class="edge">
<title>Node19&#45;&gt;Node21</title>
<g id="a_edge20_Node000019_Node000021"><a xlink:title=" ">
<path fill="none" stroke="#63b8ff" d="M165.65,-97.43C151.64,-95.61 137.41,-93.76 124.25,-92.06"/>
<polygon fill="#63b8ff" stroke="#63b8ff" points="164.95,-100.87 175.32,-98.68 165.85,-93.92 164.95,-100.87"/>
</a>
</g>
</g>
</g>
</svg>
