<?xml version="1.0" encoding="UTF-8" standalone="no"?>
<!DOCTYPE svg PUBLIC "-//W3C//DTD SVG 1.1//EN"
 "http://www.w3.org/Graphics/SVG/1.1/DTD/svg11.dtd">
<!-- Generated by graphviz version 13.1.0 (20250701.0955)
 -->
<!-- Title: Lib::BSP::EncoderTimer Pages: 1 -->
<svg width="125pt" height="120pt"
 viewBox="0.00 0.00 125.00 120.00" xmlns="http://www.w3.org/2000/svg" xmlns:xlink="http://www.w3.org/1999/xlink">
<g id="graph0" class="graph" transform="scale(1 1) rotate(0) translate(4 116)">
<title>Lib::BSP::EncoderTimer</title>
<!-- Node1 -->
<g id="Node000001" class="node">
<title>Node1</title>
<g id="a_Node000001"><a xlink:title="Rotary encoder and button driver using STM32 timer in encoder mode.">
<polygon fill="#999999" stroke="none" points="117,-112 0,-112 0,0 117,0 117,-112"/>
<text xml:space="preserve" text-anchor="start" x="9.75" y="-99.45" font-family="Arial" font-size="9.00">Lib::BSP::EncoderTimer</text>
<text xml:space="preserve" text-anchor="start" x="57.38" y="-84.95" font-family="Arial" font-size="9.00"> </text>
<text xml:space="preserve" text-anchor="start" x="4" y="-70.45" font-family="Arial" font-size="9.00">+</text>
<text xml:space="preserve" text-anchor="start" x="13.25" y="-70.45" font-family="Arial" font-size="9.00">EncoderTimer(const</text>
<text xml:space="preserve" text-anchor="start" x="13.25" y="-59.95" font-family="Arial" font-size="9.00"> Config &amp;config)</text>
<text xml:space="preserve" text-anchor="start" x="4" y="-45.45" font-family="Arial" font-size="9.00">+</text>
<text xml:space="preserve" text-anchor="start" x="13.25" y="-45.45" font-family="Arial" font-size="9.00">virtual ~EncoderTimer</text>
<text xml:space="preserve" text-anchor="start" x="13.25" y="-34.95" font-family="Arial" font-size="9.00">()=default</text>
<text xml:space="preserve" text-anchor="start" x="4" y="-20.45" font-family="Arial" font-size="9.00">+</text>
<text xml:space="preserve" text-anchor="start" x="13.25" y="-20.45" font-family="Arial" font-size="9.00">virtual bool init()</text>
<text xml:space="preserve" text-anchor="start" x="4" y="-5.95" font-family="Arial" font-size="9.00">+</text>
<text xml:space="preserve" text-anchor="start" x="13.25" y="-5.95" font-family="Arial" font-size="9.00">virtual EventCode read()</text>
<polygon fill="#666666" stroke="#666666" points="0,-95.5 0,-95.5 117,-95.5 117,-95.5 0,-95.5"/>
<polygon fill="#666666" stroke="#666666" points="0,-81 0,-81 117,-81 117,-81 0,-81"/>
<polygon fill="none" stroke="#666666" points="0,0 0,-112 117,-112 117,0 0,0"/>
</a>
</g>
</g>
</g>
</svg>
