<?xml version="1.0" encoding="UTF-8" standalone="no"?>
<!DOCTYPE svg PUBLIC "-//W3C//DTD SVG 1.1//EN"
 "http://www.w3.org/Graphics/SVG/1.1/DTD/svg11.dtd">
<!-- Generated by graphviz version 13.1.0 (20250701.0955)
 -->
<!-- Title: Lib::Xbee::Core::Checksum Pages: 1 -->
<svg width="152pt" height="116pt"
 viewBox="0.00 0.00 152.00 116.00" xmlns="http://www.w3.org/2000/svg" xmlns:xlink="http://www.w3.org/1999/xlink">
<g id="graph0" class="graph" transform="scale(1 1) rotate(0) translate(4 112)">
<title>Lib::Xbee::Core::Checksum</title>
<!-- Node1 -->
<g id="Node000001" class="node">
<title>Node1</title>
<g id="a_Node000001"><a xlink:title="Checksum calculation for Digi API frames.">
<polygon fill="#999999" stroke="none" points="144,-108 0,-108 0,0 144,0 144,-108"/>
<text xml:space="preserve" text-anchor="start" x="16.12" y="-95.45" font-family="Arial" font-size="9.00">Lib::Xbee::Core::Checksum</text>
<text xml:space="preserve" text-anchor="start" x="70.88" y="-80.95" font-family="Arial" font-size="9.00"> </text>
<text xml:space="preserve" text-anchor="start" x="4" y="-66.45" font-family="Arial" font-size="9.00">+</text>
<text xml:space="preserve" text-anchor="start" x="13.25" y="-66.45" font-family="Arial" font-size="9.00">Checksum(const DigiApiFrame</text>
<text xml:space="preserve" text-anchor="start" x="13.25" y="-55.95" font-family="Arial" font-size="9.00">Buffer &amp;apiFrame)</text>
<text xml:space="preserve" text-anchor="start" x="4" y="-41.45" font-family="Arial" font-size="9.00">+</text>
<text xml:space="preserve" text-anchor="start" x="13.25" y="-41.45" font-family="Arial" font-size="9.00">Checksum(const uint8</text>
<text xml:space="preserve" text-anchor="start" x="13.25" y="-30.95" font-family="Arial" font-size="9.00">_t *data)</text>
<text xml:space="preserve" text-anchor="start" x="4" y="-16.45" font-family="Arial" font-size="9.00">+</text>
<text xml:space="preserve" text-anchor="start" x="13.25" y="-16.45" font-family="Arial" font-size="9.00">operator uint8_t()</text>
<text xml:space="preserve" text-anchor="start" x="13.25" y="-5.95" font-family="Arial" font-size="9.00"> const</text>
<polygon fill="#666666" stroke="#666666" points="0,-91.5 0,-91.5 144,-91.5 144,-91.5 0,-91.5"/>
<polygon fill="#666666" stroke="#666666" points="0,-77 0,-77 144,-77 144,-77 0,-77"/>
<polygon fill="none" stroke="#666666" points="0,0 0,-108 144,-108 144,0 0,0"/>
</a>
</g>
</g>
</g>
</svg>
