<?xml version="1.0" encoding="UTF-8" standalone="no"?>
<!DOCTYPE svg PUBLIC "-//W3C//DTD SVG 1.1//EN"
 "http://www.w3.org/Graphics/SVG/1.1/DTD/svg11.dtd">
<!-- Generated by graphviz version 13.1.0 (20250701.0955)
 -->
<!-- Title: Lib::BSP::Beep::Config Pages: 1 -->
<svg width="210pt" height="102pt"
 viewBox="0.00 0.00 210.00 102.00" xmlns="http://www.w3.org/2000/svg" xmlns:xlink="http://www.w3.org/1999/xlink">
<g id="graph0" class="graph" transform="scale(1 1) rotate(0) translate(4 98)">
<title>Lib::BSP::Beep::Config</title>
<!-- Node1 -->
<g id="Node000001" class="node">
<title>Node1</title>
<g id="a_Node000001"><a xlink:title="Holds configuration parameters for the Beep driver.">
<polygon fill="#999999" stroke="none" points="153.38,-20 43.38,-20 43.38,0 153.38,0 153.38,-20"/>
<text xml:space="preserve" text-anchor="start" x="47.38" y="-6.5" font-family="Helvetica,sans-Serif" font-size="10.00">Lib::BSP::Beep::Config</text>
<polygon fill="none" stroke="#666666" points="43.38,0 43.38,-20 153.38,-20 153.38,0 43.38,0"/>
</a>
</g>
</g>
<!-- Node2 -->
<g id="Node000002" class="node">
<title>Node2</title>
<g id="a_Node000002"><a xlink:title=" ">
<polygon fill="white" stroke="none" points="104.75,-94 0,-94 0,-74 104.75,-74 104.75,-94"/>
<text xml:space="preserve" text-anchor="start" x="4" y="-80.5" font-family="Helvetica,sans-Serif" font-size="10.00">TIM_HandleTypeDef *</text>
<polygon fill="none" stroke="#bfbfbf" points="0,-74 0,-94 104.75,-94 104.75,-74 0,-74"/>
</a>
</g>
</g>
<!-- Node2&#45;&gt;Node1 -->
<g id="edge1_Node000001_Node000002" class="edge">
<title>Node2&#45;&gt;Node1</title>
<g id="a_edge1_Node000001_Node000002"><a xlink:title=" ">
<path fill="none" stroke="#63b8ff" d="M51.4,-74.35C50.74,-64.74 51.02,-49.12 57.88,-38 60.42,-33.87 63.86,-30.24 67.66,-27.08"/>
<polygon fill="none" stroke="#63b8ff" points="67.58,-27.14 70.26,-20.45 77.47,-20.36 74.79,-27.05 67.58,-27.14"/>
</a>
</g>
<text xml:space="preserve" text-anchor="start" x="60.88" y="-43.5" font-family="Helvetica,sans-Serif" font-size="10.00" fill="grey">+timerHandle</text>
</g>
<!-- Node3 -->
<g id="Node000003" class="node">
<title>Node3</title>
<g id="a_Node000003"><a xlink:title=" ">
<polygon fill="white" stroke="none" points="165.62,-94 123.12,-94 123.12,-74 165.62,-74 165.62,-94"/>
<text xml:space="preserve" text-anchor="start" x="127.12" y="-80.5" font-family="Helvetica,sans-Serif" font-size="10.00">uint32_t</text>
<polygon fill="none" stroke="#bfbfbf" points="123.12,-74 123.12,-94 165.62,-94 165.62,-74 123.12,-74"/>
</a>
</g>
</g>
<!-- Node3&#45;&gt;Node1 -->
<g id="edge2_Node000001_Node000003" class="edge">
<title>Node3&#45;&gt;Node1</title>
<g id="a_edge2_Node000001_Node000003"><a xlink:title=" ">
<path fill="none" stroke="#63b8ff" d="M140.97,-74.33C137.11,-64.98 130.32,-49.85 122.38,-38 120.48,-35.17 118.31,-32.33 116.07,-29.61"/>
<polygon fill="none" stroke="#63b8ff" points="116.07,-29.61 109.09,-27.79 108.08,-20.65 115.06,-22.47 116.07,-29.61"/>
</a>
</g>
<text xml:space="preserve" text-anchor="start" x="135.59" y="-43.5" font-family="Helvetica,sans-Serif" font-size="10.00" fill="grey">+timerChannel</text>
</g>
</g>
</svg>
