<?xml version="1.0" encoding="UTF-8" standalone="no"?>
<!DOCTYPE svg PUBLIC "-//W3C//DTD SVG 1.1//EN"
 "http://www.w3.org/Graphics/SVG/1.1/DTD/svg11.dtd">
<!-- Generated by graphviz version 13.1.0 (20250701.0955)
 -->
<!-- Title: Lib::HAL::I2C::Master::Base::isReady Pages: 1 -->
<svg width="414pt" height="37pt"
 viewBox="0.00 0.00 414.00 37.00" xmlns="http://www.w3.org/2000/svg" xmlns:xlink="http://www.w3.org/1999/xlink">
<g id="graph0" class="graph" transform="scale(1 1) rotate(0) translate(4 33)">
<title>Lib::HAL::I2C::Master::Base::isReady</title>
<!-- Node1 -->
<g id="Node000001" class="node">
<title>Node1</title>
<g id="a_Node000001"><a xlink:title="Checks if the device at the specified address is ready for I2C communication.">
<polygon fill="#999999" stroke="#666666" points="405.75,-29 303.5,-29 303.5,0 405.75,0 405.75,-29"/>
<text xml:space="preserve" text-anchor="start" x="311.5" y="-16.45" font-family="Arial" font-size="9.00">Lib::HAL::I2C::Master</text>
<text xml:space="preserve" text-anchor="middle" x="354.62" y="-5.95" font-family="Arial" font-size="9.00">::Base::isReady</text>
</a>
</g>
</g>
<!-- Node2 -->
<g id="Node000002" class="node">
<title>Node2</title>
<g id="a_Node000002"><a xlink:href="../../d4/d56/class_lib_1_1_h_a_l_1_1_i2_c_1_1_master_1_1_transperent_base.html#a6eece6d78f1bd8f08e500e0ea068f02f" target="_top" xlink:title="Checks if device is ready.">
<polygon fill="white" stroke="#666666" points="267.5,-29 138.25,-29 138.25,0 267.5,0 267.5,-29"/>
<text xml:space="preserve" text-anchor="start" x="146.25" y="-16.45" font-family="Arial" font-size="9.00">Lib::HAL::I2C::Master</text>
<text xml:space="preserve" text-anchor="middle" x="202.88" y="-5.95" font-family="Arial" font-size="9.00">::TransperentBase::isReady</text>
</a>
</g>
</g>
<!-- Node1&#45;&gt;Node2 -->
<g id="edge1_Node000001_Node000002" class="edge">
<title>Node1&#45;&gt;Node2</title>
<g id="a_edge1_Node000001_Node000002"><a xlink:title=" ">
<path fill="none" stroke="#63b8ff" d="M291.9,-14.5C283.97,-14.5 275.83,-14.5 267.85,-14.5"/>
<polygon fill="#63b8ff" stroke="#63b8ff" points="291.83,-18 301.83,-14.5 291.83,-11 291.83,-18"/>
</a>
</g>
</g>
<!-- Node3 -->
<g id="Node000003" class="node">
<title>Node3</title>
<g id="a_Node000003"><a xlink:href="../../df/d3a/class_lib_1_1_h_a_l_1_1_i2_c_1_1_master_1_1_port_3_01_i_t_01_4.html#ad4a4714625486f0b4ec797ff07f30c15" target="_top" xlink:title="Checks if device is ready for communication.">
<polygon fill="white" stroke="#666666" points="102.25,-29 0,-29 0,0 102.25,0 102.25,-29"/>
<text xml:space="preserve" text-anchor="start" x="8" y="-16.45" font-family="Arial" font-size="9.00">Lib::HAL::I2C::Master</text>
<text xml:space="preserve" text-anchor="middle" x="51.12" y="-5.95" font-family="Arial" font-size="9.00">::Port&lt; IT &gt;::isReady</text>
</a>
</g>
</g>
<!-- Node2&#45;&gt;Node3 -->
<g id="edge2_Node000002_Node000003" class="edge">
<title>Node2&#45;&gt;Node3</title>
<g id="a_edge2_Node000002_Node000003"><a xlink:title=" ">
<path fill="none" stroke="#63b8ff" d="M126.55,-14.5C118.48,-14.5 110.41,-14.5 102.73,-14.5"/>
<polygon fill="#63b8ff" stroke="#63b8ff" points="126.42,-18 136.42,-14.5 126.42,-11 126.42,-18"/>
</a>
</g>
</g>
</g>
</svg>
