<?xml version="1.0" encoding="UTF-8" standalone="no"?>
<!DOCTYPE svg PUBLIC "-//W3C//DTD SVG 1.1//EN"
 "http://www.w3.org/Graphics/SVG/1.1/DTD/svg11.dtd">
<!-- Generated by graphviz version 12.2.1 (20241206.2353)
 -->
<!-- Title: TXPDO_update Pages: 1 -->
<svg width="335pt" height="85pt"
 viewBox="0.00 0.00 335.00 85.00" xmlns="http://www.w3.org/2000/svg" xmlns:xlink="http://www.w3.org/1999/xlink">
<g id="graph0" class="graph" transform="scale(1 1) rotate(0) translate(4 81)">
<title>TXPDO_update</title>
<!-- Node1 -->
<g id="Node000001" class="node">
<title>Node1</title>
<g id="a_Node000001"><a xlink:title=" ">
<polygon fill="#999999" stroke="#666666" points="85,-39 0,-39 0,-19 85,-19 85,-39"/>
<text text-anchor="middle" x="42.5" y="-25.5" font-family="Helvetica,sans-Serif" font-size="10.00">TXPDO_update</text>
</a>
</g>
</g>
<!-- Node2 -->
<g id="Node000002" class="node">
<title>Node2</title>
<g id="a_Node000002"><a xlink:href="../../db/db2/a00020.html#ae9905551aa23cc185eb0bc35d89fb89a" target="_top" xlink:title="Packs Process Data Objects (PDO) into the provided buffer.">
<polygon fill="white" stroke="#666666" points="202.25,-58 121,-58 121,-38 202.25,-38 202.25,-58"/>
<text text-anchor="middle" x="161.62" y="-44.5" font-family="Helvetica,sans-Serif" font-size="10.00">COE_pdoPack</text>
</a>
</g>
</g>
<!-- Node1&#45;&gt;Node2 -->
<g id="edge1_Node000001_Node000002" class="edge">
<title>Node1&#45;&gt;Node2</title>
<g id="a_edge1_Node000001_Node000002"><a xlink:title=" ">
<path fill="none" stroke="#63b8ff" d="M85.45,-35.81C93.22,-37.07 101.4,-38.39 109.41,-39.69"/>
<polygon fill="#63b8ff" stroke="#63b8ff" points="108.61,-43.11 119.04,-41.25 109.73,-36.2 108.61,-43.11"/>
</a>
</g>
</g>
<!-- Node5 -->
<g id="Node000005" class="node">
<title>Node5</title>
<g id="a_Node000005"><a xlink:href="../../d4/d51/a00017.html#a27cd242b7e69eefc3fa1aa5316c87be5" target="_top" xlink:title="Writes data to the specified address in the ESC (EtherCAT Slave Controller).">
<polygon fill="white" stroke="#666666" points="193.25,-20 130,-20 130,0 193.25,0 193.25,-20"/>
<text text-anchor="middle" x="161.62" y="-6.5" font-family="Helvetica,sans-Serif" font-size="10.00">ESC_write</text>
</a>
</g>
</g>
<!-- Node1&#45;&gt;Node5 -->
<g id="edge4_Node000001_Node000005" class="edge">
<title>Node1&#45;&gt;Node5</title>
<g id="a_edge4_Node000001_Node000005"><a xlink:title=" ">
<path fill="none" stroke="#63b8ff" d="M85.45,-22.19C96.16,-20.46 107.66,-18.59 118.38,-16.85"/>
<polygon fill="#63b8ff" stroke="#63b8ff" points="118.82,-20.33 128.13,-15.27 117.7,-13.42 118.82,-20.33"/>
</a>
</g>
</g>
<!-- Node3 -->
<g id="Node000003" class="node">
<title>Node3</title>
<g id="a_Node000003"><a xlink:href="../../db/db2/a00020.html#af32f1f3991b9ced073f92bf0e3c4e893" target="_top" xlink:title=" ">
<polygon fill="white" stroke="#666666" points="327,-77 238.25,-77 238.25,-57 327,-57 327,-77"/>
<text text-anchor="middle" x="282.62" y="-63.5" font-family="Helvetica,sans-Serif" font-size="10.00">COE_bitsliceSet</text>
</a>
</g>
</g>
<!-- Node2&#45;&gt;Node3 -->
<g id="edge2_Node000002_Node000003" class="edge">
<title>Node2&#45;&gt;Node3</title>
<g id="a_edge2_Node000002_Node000003"><a xlink:title=" ">
<path fill="none" stroke="#63b8ff" d="M202.58,-54.38C210.29,-55.61 218.49,-56.92 226.59,-58.21"/>
<polygon fill="#63b8ff" stroke="#63b8ff" points="225.97,-61.66 236.39,-59.78 227.07,-54.75 225.97,-61.66"/>
</a>
</g>
</g>
<!-- Node4 -->
<g id="Node000004" class="node">
<title>Node4</title>
<g id="a_Node000004"><a xlink:href="../../db/db2/a00020.html#ab1b62c76ea4bd392c52d4b0c3d2823c5" target="_top" xlink:title=" ">
<polygon fill="white" stroke="#666666" points="322.88,-39 242.38,-39 242.38,-19 322.88,-19 322.88,-39"/>
<text text-anchor="middle" x="282.62" y="-25.5" font-family="Helvetica,sans-Serif" font-size="10.00">COE_getValue</text>
</a>
</g>
</g>
<!-- Node2&#45;&gt;Node4 -->
<g id="edge3_Node000002_Node000004" class="edge">
<title>Node2&#45;&gt;Node4</title>
<g id="a_edge3_Node000002_Node000004"><a xlink:title=" ">
<path fill="none" stroke="#63b8ff" d="M202.58,-41.62C211.61,-40.18 221.31,-38.63 230.71,-37.13"/>
<polygon fill="#63b8ff" stroke="#63b8ff" points="231.16,-40.6 240.48,-35.57 230.06,-33.69 231.16,-40.6"/>
</a>
</g>
</g>
</g>
</svg>
