<?xml version="1.0" encoding="UTF-8" standalone="no"?>
<!DOCTYPE svg PUBLIC "-//W3C//DTD SVG 1.1//EN"
 "http://www.w3.org/Graphics/SVG/1.1/DTD/svg11.dtd">
<!-- Generated by graphviz version 12.2.1 (20241206.2353)
 -->
<!-- Title: ESC_upload_pre_objecthandler Pages: 1 -->
<svg width="654pt" height="78pt"
 viewBox="0.00 0.00 653.50 78.00" xmlns="http://www.w3.org/2000/svg" xmlns:xlink="http://www.w3.org/1999/xlink">
<g id="graph0" class="graph" transform="scale(1 1) rotate(0) translate(4 74)">
<title>ESC_upload_pre_objecthandler</title>
<!-- Node1 -->
<g id="Node000001" class="node">
<title>Node1</title>
<g id="a_Node000001"><a xlink:title="Function to pre&#45;qualify the incoming SDO upload.">
<polygon fill="#999999" stroke="#666666" points="645.5,-48 493,-48 493,-28 645.5,-28 645.5,-48"/>
<text text-anchor="middle" x="569.25" y="-34.5" font-family="Helvetica,sans-Serif" font-size="10.00">ESC_upload_pre_objecthandler</text>
</a>
</g>
</g>
<!-- Node2 -->
<g id="Node000002" class="node">
<title>Node2</title>
<g id="a_Node000002"><a xlink:href="../../db/db2/a00020.html#a1be009fd0d5a1573b8945c56cc055d61" target="_top" xlink:title=" ">
<polygon fill="white" stroke="#666666" points="434.5,-70 363,-70 363,-50 434.5,-50 434.5,-70"/>
<text text-anchor="middle" x="398.75" y="-56.5" font-family="Helvetica,sans-Serif" font-size="10.00">SDO_upload</text>
</a>
</g>
</g>
<!-- Node1&#45;&gt;Node2 -->
<g id="edge1_Node000001_Node000002" class="edge">
<title>Node1&#45;&gt;Node2</title>
<g id="a_edge1_Node000001_Node000002"><a xlink:title=" ">
<path fill="none" stroke="#63b8ff" d="M481.87,-49.28C465.12,-51.47 448.48,-53.64 434.6,-55.45"/>
<polygon fill="#63b8ff" stroke="#63b8ff" points="481.91,-52.8 491.37,-48.04 481,-45.86 481.91,-52.8"/>
</a>
</g>
</g>
<!-- Node7 -->
<g id="Node000007" class="node">
<title>Node7</title>
<g id="a_Node000007"><a xlink:href="../../db/db2/a00020.html#a4bd58eaefbeac58187803feb054c3569" target="_top" xlink:title=" ">
<polygon fill="white" stroke="#666666" points="457,-32 340.5,-32 340.5,0 457,0 457,-32"/>
<text text-anchor="start" x="348.5" y="-18.5" font-family="Helvetica,sans-Serif" font-size="10.00">SDO_upload_complete</text>
<text text-anchor="middle" x="398.75" y="-6.5" font-family="Helvetica,sans-Serif" font-size="10.00">_access</text>
</a>
</g>
</g>
<!-- Node1&#45;&gt;Node7 -->
<g id="edge6_Node000001_Node000007" class="edge">
<title>Node1&#45;&gt;Node7</title>
<g id="a_edge6_Node000001_Node000007"><a xlink:title=" ">
<path fill="none" stroke="#63b8ff" d="M481.66,-26.69C473.43,-25.62 465.23,-24.55 457.37,-23.52"/>
<polygon fill="#63b8ff" stroke="#63b8ff" points="481,-30.14 491.37,-27.96 481.91,-23.2 481,-30.14"/>
</a>
</g>
</g>
<!-- Node3 -->
<g id="Node000003" class="node">
<title>Node3</title>
<g id="a_Node000003"><a xlink:href="../../db/db2/a00020.html#a71c76794b7e4ed125cc9cda0e8508ccd" target="_top" xlink:title="Processes the CoE (CANopen over EtherCAT) protocol.">
<polygon fill="white" stroke="#666666" points="304.5,-48 212,-48 212,-28 304.5,-28 304.5,-48"/>
<text text-anchor="middle" x="258.25" y="-34.5" font-family="Helvetica,sans-Serif" font-size="10.00">ESC_coeprocess</text>
</a>
</g>
</g>
<!-- Node2&#45;&gt;Node3 -->
<g id="edge2_Node000002_Node000003" class="edge">
<title>Node2&#45;&gt;Node3</title>
<g id="a_edge2_Node000002_Node000003"><a xlink:title=" ">
<path fill="none" stroke="#63b8ff" d="M351.67,-52.68C336.63,-50.29 319.94,-47.64 304.93,-45.26"/>
<polygon fill="#63b8ff" stroke="#63b8ff" points="350.88,-56.1 361.31,-54.21 351.98,-49.19 350.88,-56.1"/>
</a>
</g>
</g>
<!-- Node4 -->
<g id="Node000004" class="node">
<title>Node4</title>
<g id="a_Node000004"><a xlink:href="../../d4/dee/a00008.html#ac8db332851793f138f93c64b45f0968d" target="_top" xlink:title="Polling function for the EtherCAT slave stack.">
<polygon fill="white" stroke="#666666" points="168.88,-67 95.88,-67 95.88,-47 168.88,-47 168.88,-67"/>
<text text-anchor="middle" x="132.38" y="-53.5" font-family="Helvetica,sans-Serif" font-size="10.00">ecat_slv_poll</text>
</a>
</g>
</g>
<!-- Node3&#45;&gt;Node4 -->
<g id="edge3_Node000003_Node000004" class="edge">
<title>Node3&#45;&gt;Node4</title>
<g id="a_edge3_Node000003_Node000004"><a xlink:title=" ">
<path fill="none" stroke="#63b8ff" d="M200.74,-46.67C189.98,-48.32 178.99,-50 169.1,-51.52"/>
<polygon fill="#63b8ff" stroke="#63b8ff" points="200.98,-50.17 210.33,-45.2 199.92,-43.25 200.98,-50.17"/>
</a>
</g>
</g>
<!-- Node6 -->
<g id="Node000006" class="node">
<title>Node6</title>
<g id="a_Node000006"><a xlink:href="../../d4/dee/a00008.html#adf1311ff3a94e7d4a01081e9765edb53" target="_top" xlink:title="Handler for SM change, SM0/1, AL CONTROL and EEPROM events, the application control what interrupts t...">
<polygon fill="white" stroke="#666666" points="176,-29 88.75,-29 88.75,-9 176,-9 176,-29"/>
<text text-anchor="middle" x="132.38" y="-15.5" font-family="Helvetica,sans-Serif" font-size="10.00">ecat_slv_worker</text>
</a>
</g>
</g>
<!-- Node3&#45;&gt;Node6 -->
<g id="edge5_Node000003_Node000006" class="edge">
<title>Node3&#45;&gt;Node6</title>
<g id="a_edge5_Node000003_Node000006"><a xlink:title=" ">
<path fill="none" stroke="#63b8ff" d="M200.48,-29.29C192.36,-28.05 184.12,-26.78 176.32,-25.59"/>
<polygon fill="#63b8ff" stroke="#63b8ff" points="199.92,-32.75 210.33,-30.8 200.98,-25.83 199.92,-32.75"/>
</a>
</g>
</g>
<!-- Node5 -->
<g id="Node000005" class="node">
<title>Node5</title>
<g id="a_Node000005"><a xlink:href="../../d4/dee/a00008.html#a771f616c41967a475e64eaa386edc579" target="_top" xlink:title="Main function for the EtherCAT slave stack.">
<polygon fill="white" stroke="#666666" points="52.75,-67 0,-67 0,-47 52.75,-47 52.75,-67"/>
<text text-anchor="middle" x="26.38" y="-53.5" font-family="Helvetica,sans-Serif" font-size="10.00">ecat_slv</text>
</a>
</g>
</g>
<!-- Node4&#45;&gt;Node5 -->
<g id="edge4_Node000004_Node000005" class="edge">
<title>Node4&#45;&gt;Node5</title>
<g id="a_edge4_Node000004_Node000005"><a xlink:title=" ">
<path fill="none" stroke="#63b8ff" d="M84.16,-57C73.45,-57 62.47,-57 53.06,-57"/>
<polygon fill="#63b8ff" stroke="#63b8ff" points="84.07,-60.5 94.07,-57 84.07,-53.5 84.07,-60.5"/>
</a>
</g>
</g>
<!-- Node7&#45;&gt;Node3 -->
<g id="edge7_Node000007_Node000003" class="edge">
<title>Node7&#45;&gt;Node3</title>
<g id="a_edge7_Node000007_Node000003"><a xlink:title=" ">
<path fill="none" stroke="#63b8ff" d="M328.97,-26.92C320.69,-28.24 312.4,-29.56 304.58,-30.8"/>
<polygon fill="#63b8ff" stroke="#63b8ff" points="329.39,-30.4 338.72,-25.38 328.3,-23.49 329.39,-30.4"/>
</a>
</g>
</g>
</g>
</svg>
