<?xml version="1.0" encoding="UTF-8" standalone="no"?>
<!DOCTYPE svg PUBLIC "-//W3C//DTD SVG 1.1//EN"
 "http://www.w3.org/Graphics/SVG/1.1/DTD/svg11.dtd">
<!-- Generated by graphviz version 12.2.1 (20241206.2353)
 -->
<!-- Title: ESC_upload_post_objecthandler Pages: 1 -->
<svg width="659pt" height="116pt"
 viewBox="0.00 0.00 658.75 116.00" xmlns="http://www.w3.org/2000/svg" xmlns:xlink="http://www.w3.org/1999/xlink">
<g id="graph0" class="graph" transform="scale(1 1) rotate(0) translate(4 112)">
<title>ESC_upload_post_objecthandler</title>
<!-- Node1 -->
<g id="Node000001" class="node">
<title>Node1</title>
<g id="a_Node000001"><a xlink:title="Hook called from the slave stack SDO Upload handler to act on user specified Index and Sub&#45;index.">
<polygon fill="#999999" stroke="#666666" points="650.75,-64 493,-64 493,-44 650.75,-44 650.75,-64"/>
<text text-anchor="middle" x="571.88" y="-50.5" font-family="Helvetica,sans-Serif" font-size="10.00">ESC_upload_post_objecthandler</text>
</a>
</g>
</g>
<!-- Node2 -->
<g id="Node000002" class="node">
<title>Node2</title>
<g id="a_Node000002"><a xlink:href="../../db/db2/a00020.html#a1be009fd0d5a1573b8945c56cc055d61" target="_top" xlink:title="Respond to an SDO Upload request.">
<polygon fill="white" stroke="#666666" points="434.5,-108 363,-108 363,-88 434.5,-88 434.5,-108"/>
<text text-anchor="middle" x="398.75" y="-94.5" font-family="Helvetica,sans-Serif" font-size="10.00">SDO_upload</text>
</a>
</g>
</g>
<!-- Node1&#45;&gt;Node2 -->
<g id="edge1_Node000001_Node000002" class="edge">
<title>Node1&#45;&gt;Node2</title>
<g id="a_edge1_Node000001_Node000002"><a xlink:title=" ">
<path fill="none" stroke="#63b8ff" d="M519.38,-67.24C492.04,-74.27 459.17,-82.72 434.8,-88.99"/>
<polygon fill="#63b8ff" stroke="#63b8ff" points="520.04,-70.68 528.85,-64.8 518.3,-63.9 520.04,-70.68"/>
</a>
</g>
</g>
<!-- Node7 -->
<g id="Node000007" class="node">
<title>Node7</title>
<g id="a_Node000007"><a xlink:href="../../db/db2/a00020.html#a4bd58eaefbeac58187803feb054c3569" target="_top" xlink:title="Handles the completion of an SDO upload access.">
<polygon fill="white" stroke="#666666" points="457,-70 340.5,-70 340.5,-38 457,-38 457,-70"/>
<text text-anchor="start" x="348.5" y="-56.5" font-family="Helvetica,sans-Serif" font-size="10.00">SDO_upload_complete</text>
<text text-anchor="middle" x="398.75" y="-44.5" font-family="Helvetica,sans-Serif" font-size="10.00">_access</text>
</a>
</g>
</g>
<!-- Node1&#45;&gt;Node7 -->
<g id="edge6_Node000001_Node000007" class="edge">
<title>Node1&#45;&gt;Node7</title>
<g id="a_edge6_Node000001_Node000007"><a xlink:title=" ">
<path fill="none" stroke="#63b8ff" d="M481.36,-54C473.25,-54 465.19,-54 457.47,-54"/>
<polygon fill="#63b8ff" stroke="#63b8ff" points="481.31,-57.5 491.31,-54 481.31,-50.5 481.31,-57.5"/>
</a>
</g>
</g>
<!-- Node8 -->
<g id="Node000008" class="node">
<title>Node8</title>
<g id="a_Node000008"><a xlink:href="../../db/db2/a00020.html#a7ca2d23ade5f9f495133f40d4d7fb42f" target="_top" xlink:title=" ">
<polygon fill="white" stroke="#666666" points="453.25,-20 344.25,-20 344.25,0 453.25,0 453.25,-20"/>
<text text-anchor="middle" x="398.75" y="-6.5" font-family="Helvetica,sans-Serif" font-size="10.00">SDO_uploadsegment</text>
</a>
</g>
</g>
<!-- Node1&#45;&gt;Node8 -->
<g id="edge8_Node000001_Node000008" class="edge">
<title>Node1&#45;&gt;Node8</title>
<g id="a_edge8_Node000001_Node000008"><a xlink:title=" ">
<path fill="none" stroke="#63b8ff" d="M519.42,-40.77C494.09,-34.26 463.99,-26.52 440.31,-20.43"/>
<polygon fill="#63b8ff" stroke="#63b8ff" points="518.3,-44.1 528.85,-43.2 520.04,-37.32 518.3,-44.1"/>
</a>
</g>
</g>
<!-- Node3 -->
<g id="Node000003" class="node">
<title>Node3</title>
<g id="a_Node000003"><a xlink:href="../../db/db2/a00020.html#a71c76794b7e4ed125cc9cda0e8508ccd" target="_top" xlink:title="Main CoE function checking the status on current mailbox buffers.">
<polygon fill="white" stroke="#666666" points="304.5,-64 212,-64 212,-44 304.5,-44 304.5,-64"/>
<text text-anchor="middle" x="258.25" y="-50.5" font-family="Helvetica,sans-Serif" font-size="10.00">ESC_coeprocess</text>
</a>
</g>
</g>
<!-- Node2&#45;&gt;Node3 -->
<g id="edge2_Node000002_Node000003" class="edge">
<title>Node2&#45;&gt;Node3</title>
<g id="a_edge2_Node000002_Node000003"><a xlink:title=" ">
<path fill="none" stroke="#63b8ff" d="M354.13,-84.14C333.96,-77.74 310.42,-70.26 291.84,-64.35"/>
<polygon fill="#63b8ff" stroke="#63b8ff" points="352.89,-87.42 363.48,-87.11 355.01,-80.75 352.89,-87.42"/>
</a>
</g>
</g>
<!-- Node4 -->
<g id="Node000004" class="node">
<title>Node4</title>
<g id="a_Node000004"><a xlink:href="../../d4/dee/a00008.html#ac8db332851793f138f93c64b45f0968d" target="_top" xlink:title="Polling function for the EtherCAT slave stack.">
<polygon fill="white" stroke="#666666" points="168.88,-83 95.88,-83 95.88,-63 168.88,-63 168.88,-83"/>
<text text-anchor="middle" x="132.38" y="-69.5" font-family="Helvetica,sans-Serif" font-size="10.00">ecat_slv_poll</text>
</a>
</g>
</g>
<!-- Node3&#45;&gt;Node4 -->
<g id="edge3_Node000003_Node000004" class="edge">
<title>Node3&#45;&gt;Node4</title>
<g id="a_edge3_Node000003_Node000004"><a xlink:title=" ">
<path fill="none" stroke="#63b8ff" d="M200.74,-62.67C189.98,-64.32 178.99,-66 169.1,-67.52"/>
<polygon fill="#63b8ff" stroke="#63b8ff" points="200.98,-66.17 210.33,-61.2 199.92,-59.25 200.98,-66.17"/>
</a>
</g>
</g>
<!-- Node6 -->
<g id="Node000006" class="node">
<title>Node6</title>
<g id="a_Node000006"><a xlink:href="../../d4/dee/a00008.html#adf1311ff3a94e7d4a01081e9765edb53" target="_top" xlink:title="Handler for SM change, SM0/1, AL CONTROL and EEPROM events, the application control what interrupts t...">
<polygon fill="white" stroke="#666666" points="176,-45 88.75,-45 88.75,-25 176,-25 176,-45"/>
<text text-anchor="middle" x="132.38" y="-31.5" font-family="Helvetica,sans-Serif" font-size="10.00">ecat_slv_worker</text>
</a>
</g>
</g>
<!-- Node3&#45;&gt;Node6 -->
<g id="edge5_Node000003_Node000006" class="edge">
<title>Node3&#45;&gt;Node6</title>
<g id="a_edge5_Node000003_Node000006"><a xlink:title=" ">
<path fill="none" stroke="#63b8ff" d="M200.48,-45.29C192.36,-44.05 184.12,-42.78 176.32,-41.59"/>
<polygon fill="#63b8ff" stroke="#63b8ff" points="199.92,-48.75 210.33,-46.8 200.98,-41.83 199.92,-48.75"/>
</a>
</g>
</g>
<!-- Node5 -->
<g id="Node000005" class="node">
<title>Node5</title>
<g id="a_Node000005"><a xlink:href="../../d4/dee/a00008.html#a771f616c41967a475e64eaa386edc579" target="_top" xlink:title="Main function for the EtherCAT slave stack.">
<polygon fill="white" stroke="#666666" points="52.75,-83 0,-83 0,-63 52.75,-63 52.75,-83"/>
<text text-anchor="middle" x="26.38" y="-69.5" font-family="Helvetica,sans-Serif" font-size="10.00">ecat_slv</text>
</a>
</g>
</g>
<!-- Node4&#45;&gt;Node5 -->
<g id="edge4_Node000004_Node000005" class="edge">
<title>Node4&#45;&gt;Node5</title>
<g id="a_edge4_Node000004_Node000005"><a xlink:title=" ">
<path fill="none" stroke="#63b8ff" d="M84.16,-73C73.45,-73 62.47,-73 53.06,-73"/>
<polygon fill="#63b8ff" stroke="#63b8ff" points="84.07,-76.5 94.07,-73 84.07,-69.5 84.07,-76.5"/>
</a>
</g>
</g>
<!-- Node7&#45;&gt;Node3 -->
<g id="edge7_Node000007_Node000003" class="edge">
<title>Node7&#45;&gt;Node3</title>
<g id="a_edge7_Node000007_Node000003"><a xlink:title=" ">
<path fill="none" stroke="#63b8ff" d="M328.97,-54C320.69,-54 312.4,-54 304.58,-54"/>
<polygon fill="#63b8ff" stroke="#63b8ff" points="328.7,-57.5 338.7,-54 328.7,-50.5 328.7,-57.5"/>
</a>
</g>
</g>
<!-- Node8&#45;&gt;Node3 -->
<g id="edge9_Node000008_Node000003" class="edge">
<title>Node8&#45;&gt;Node3</title>
<g id="a_edge9_Node000008_Node000003"><a xlink:title=" ">
<path fill="none" stroke="#63b8ff" d="M354.13,-23.86C333.96,-30.26 310.42,-37.74 291.84,-43.65"/>
<polygon fill="#63b8ff" stroke="#63b8ff" points="355.01,-27.25 363.48,-20.89 352.89,-20.58 355.01,-27.25"/>
</a>
</g>
</g>
</g>
</svg>
