<?xml version="1.0" encoding="UTF-8" standalone="no"?>
<!DOCTYPE svg PUBLIC "-//W3C//DTD SVG 1.1//EN"
 "http://www.w3.org/Graphics/SVG/1.1/DTD/svg11.dtd">
<!-- Generated by graphviz version 12.2.1 (20241206.2353)
 -->
<!-- Title: Lib::HAL::GPIO::PinHandle::getPinNumber Pages: 1 -->
<svg width="488pt" height="240pt"
 viewBox="0.00 0.00 488.00 240.00" xmlns="http://www.w3.org/2000/svg" xmlns:xlink="http://www.w3.org/1999/xlink">
<g id="graph0" class="graph" transform="scale(1 1) rotate(0) translate(4 236)">
<title>Lib::HAL::GPIO::PinHandle::getPinNumber</title>
<!-- Node1 -->
<g id="Node000001" class="node">
<title>Node1</title>
<g id="a_Node000001"><a xlink:title="Get the pin number.">
<polygon fill="#999999" stroke="#666666" points="480,-132 344,-132 344,-100 480,-100 480,-132"/>
<text text-anchor="start" x="352" y="-118.5" font-family="Helvetica,sans-Serif" font-size="10.00">Lib::HAL::GPIO::PinHandle</text>
<text text-anchor="middle" x="412" y="-106.5" font-family="Helvetica,sans-Serif" font-size="10.00">::getPinNumber</text>
</a>
</g>
</g>
<!-- Node2 -->
<g id="Node000002" class="node">
<title>Node2</title>
<g id="a_Node000002"><a xlink:href="../../d3/d5e/a00275.html#a0a05dbbc41573fa505cc35bac29d9b1e" target="_top" xlink:title="Equality operator to compare two PinHandle objects.">
<polygon fill="white" stroke="#666666" points="308,-232 172,-232 172,-200 308,-200 308,-232"/>
<text text-anchor="start" x="180" y="-218.5" font-family="Helvetica,sans-Serif" font-size="10.00">Lib::HAL::GPIO::EXTIBase</text>
<text text-anchor="middle" x="240" y="-206.5" font-family="Helvetica,sans-Serif" font-size="10.00">::operator==</text>
</a>
</g>
</g>
<!-- Node1&#45;&gt;Node2 -->
<g id="edge1_Node000001_Node000002" class="edge">
<title>Node1&#45;&gt;Node2</title>
<g id="a_edge1_Node000001_Node000002"><a xlink:title=" ">
<path fill="none" stroke="#63b8ff" d="M383.09,-139.56C363.12,-155.58 335.08,-176.44 308,-191 302.2,-194.12 295.94,-197.01 289.64,-199.65"/>
<polygon fill="#63b8ff" stroke="#63b8ff" points="385.22,-142.34 390.76,-133.31 380.8,-136.91 385.22,-142.34"/>
</a>
</g>
</g>
<!-- Node3 -->
<g id="Node000003" class="node">
<title>Node3</title>
<g id="a_Node000003"><a xlink:href="../../d1/dd4/a00267.html#a8498743c7ba24f2ec02f1bf6fcabfa37" target="_top" xlink:title="Read the state of the GPIO pin.">
<polygon fill="white" stroke="#666666" points="303.5,-182 176.5,-182 176.5,-150 303.5,-150 303.5,-182"/>
<text text-anchor="start" x="184.5" y="-168.5" font-family="Helvetica,sans-Serif" font-size="10.00">Lib::HAL::GPIO::PinInput</text>
<text text-anchor="middle" x="240" y="-156.5" font-family="Helvetica,sans-Serif" font-size="10.00">::read</text>
</a>
</g>
</g>
<!-- Node1&#45;&gt;Node3 -->
<g id="edge2_Node000001_Node000003" class="edge">
<title>Node1&#45;&gt;Node3</title>
<g id="a_edge2_Node000001_Node000003"><a xlink:title=" ">
<path fill="none" stroke="#63b8ff" d="M344.62,-135.52C328.9,-140.15 312.29,-145.03 297.08,-149.51"/>
<polygon fill="#63b8ff" stroke="#63b8ff" points="345.28,-138.98 353.88,-132.8 343.3,-132.26 345.28,-138.98"/>
</a>
</g>
</g>
<!-- Node5 -->
<g id="Node000005" class="node">
<title>Node5</title>
<g id="a_Node000005"><a xlink:href="../../d1/dd4/a00267.html#a831a8820a9d7f4c9669556b8445d5196" target="_top" xlink:title="Set the mode of the GPIO pin.">
<polygon fill="white" stroke="#666666" points="303.5,-132 176.5,-132 176.5,-100 303.5,-100 303.5,-132"/>
<text text-anchor="start" x="184.5" y="-118.5" font-family="Helvetica,sans-Serif" font-size="10.00">Lib::HAL::GPIO::PinInput</text>
<text text-anchor="middle" x="240" y="-106.5" font-family="Helvetica,sans-Serif" font-size="10.00">::setMode</text>
</a>
</g>
</g>
<!-- Node1&#45;&gt;Node5 -->
<g id="edge4_Node000001_Node000005" class="edge">
<title>Node1&#45;&gt;Node5</title>
<g id="a_edge4_Node000001_Node000005"><a xlink:title=" ">
<path fill="none" stroke="#63b8ff" d="M332.58,-116C322.94,-116 313.19,-116 303.83,-116"/>
<polygon fill="#63b8ff" stroke="#63b8ff" points="332.3,-119.5 342.3,-116 332.3,-112.5 332.3,-119.5"/>
</a>
</g>
</g>
<!-- Node6 -->
<g id="Node000006" class="node">
<title>Node6</title>
<g id="a_Node000006"><a xlink:href="../../dd/d86/a00271.html#af9cfeea65b80477e08123112c30c01ac" target="_top" xlink:title="Toggles the state of the GPIO pin.">
<polygon fill="white" stroke="#666666" points="307.25,-82 172.75,-82 172.75,-50 307.25,-50 307.25,-82"/>
<text text-anchor="start" x="180.75" y="-68.5" font-family="Helvetica,sans-Serif" font-size="10.00">Lib::HAL::GPIO::PinOutput</text>
<text text-anchor="middle" x="240" y="-56.5" font-family="Helvetica,sans-Serif" font-size="10.00">::toggle</text>
</a>
</g>
</g>
<!-- Node1&#45;&gt;Node6 -->
<g id="edge5_Node000001_Node000006" class="edge">
<title>Node1&#45;&gt;Node6</title>
<g id="a_edge5_Node000001_Node000006"><a xlink:title=" ">
<path fill="none" stroke="#63b8ff" d="M344.62,-96.48C328.9,-91.85 312.29,-86.97 297.08,-82.49"/>
<polygon fill="#63b8ff" stroke="#63b8ff" points="343.3,-99.74 353.88,-99.2 345.28,-93.02 343.3,-99.74"/>
</a>
</g>
</g>
<!-- Node7 -->
<g id="Node000007" class="node">
<title>Node7</title>
<g id="a_Node000007"><a xlink:href="../../dd/d86/a00271.html#aaa573d6107f923ee733515c7ae920504" target="_top" xlink:title="Writes a boolean state to the GPIO pin.">
<polygon fill="white" stroke="#666666" points="307.25,-32 172.75,-32 172.75,0 307.25,0 307.25,-32"/>
<text text-anchor="start" x="180.75" y="-18.5" font-family="Helvetica,sans-Serif" font-size="10.00">Lib::HAL::GPIO::PinOutput</text>
<text text-anchor="middle" x="240" y="-6.5" font-family="Helvetica,sans-Serif" font-size="10.00">::write</text>
</a>
</g>
</g>
<!-- Node1&#45;&gt;Node7 -->
<g id="edge6_Node000001_Node000007" class="edge">
<title>Node1&#45;&gt;Node7</title>
<g id="a_edge6_Node000001_Node000007"><a xlink:title=" ">
<path fill="none" stroke="#63b8ff" d="M383.09,-92.44C363.12,-76.42 335.08,-55.56 308,-41 302.2,-37.88 295.94,-34.99 289.64,-32.35"/>
<polygon fill="#63b8ff" stroke="#63b8ff" points="380.8,-95.09 390.76,-98.69 385.22,-89.66 380.8,-95.09"/>
</a>
</g>
</g>
<!-- Node4 -->
<g id="Node000004" class="node">
<title>Node4</title>
<g id="a_Node000004"><a xlink:href="../../d3/d5e/a00275.html#a8802f95e86bd0eaa65981875534badfd" target="_top" xlink:title="Reads the current state of the GPIO pin.">
<polygon fill="white" stroke="#666666" points="136,-182 0,-182 0,-150 136,-150 136,-182"/>
<text text-anchor="start" x="8" y="-168.5" font-family="Helvetica,sans-Serif" font-size="10.00">Lib::HAL::GPIO::EXTIBase</text>
<text text-anchor="middle" x="68" y="-156.5" font-family="Helvetica,sans-Serif" font-size="10.00">::read</text>
</a>
</g>
</g>
<!-- Node3&#45;&gt;Node4 -->
<g id="edge3_Node000003_Node000004" class="edge">
<title>Node3&#45;&gt;Node4</title>
<g id="a_edge3_Node000003_Node000004"><a xlink:title=" ">
<path fill="none" stroke="#63b8ff" d="M164.79,-166C155.35,-166 145.74,-166 136.41,-166"/>
<polygon fill="#63b8ff" stroke="#63b8ff" points="164.67,-169.5 174.67,-166 164.67,-162.5 164.67,-169.5"/>
</a>
</g>
</g>
</g>
</svg>
