<?xml version="1.0" encoding="UTF-8" standalone="no"?>
<!DOCTYPE svg PUBLIC "-//W3C//DTD SVG 1.1//EN"
 "http://www.w3.org/Graphics/SVG/1.1/DTD/svg11.dtd">
<!-- Generated by graphviz version 12.2.1 (20241206.2353)
 -->
<!-- Title: Lib::HAL::GPIO::PinHandle::getPort Pages: 1 -->
<svg width="487pt" height="240pt"
 viewBox="0.00 0.00 486.50 240.00" xmlns="http://www.w3.org/2000/svg" xmlns:xlink="http://www.w3.org/1999/xlink">
<g id="graph0" class="graph" transform="scale(1 1) rotate(0) translate(4 236)">
<title>Lib::HAL::GPIO::PinHandle::getPort</title>
<!-- Node1 -->
<g id="Node000001" class="node">
<title>Node1</title>
<g id="a_Node000001"><a xlink:title="Get the GPIO port.">
<polygon fill="#999999" stroke="#666666" points="478.5,-132 342.5,-132 342.5,-100 478.5,-100 478.5,-132"/>
<text text-anchor="start" x="350.5" y="-118.5" font-family="Helvetica,sans-Serif" font-size="10.00">Lib::HAL::GPIO::PinHandle</text>
<text text-anchor="middle" x="410.5" y="-106.5" font-family="Helvetica,sans-Serif" font-size="10.00">::getPort</text>
</a>
</g>
</g>
<!-- Node2 -->
<g id="Node000002" class="node">
<title>Node2</title>
<g id="a_Node000002"><a xlink:href="../../d1/dd4/a00267.html#aa5579ac0e59bc8670974472f3cf4b1ad" target="_top" xlink:title="Get the GPIO port of the GPIO pin.">
<polygon fill="white" stroke="#666666" points="302.75,-232 175.75,-232 175.75,-200 302.75,-200 302.75,-232"/>
<text text-anchor="start" x="183.75" y="-218.5" font-family="Helvetica,sans-Serif" font-size="10.00">Lib::HAL::GPIO::PinInput</text>
<text text-anchor="middle" x="239.25" y="-206.5" font-family="Helvetica,sans-Serif" font-size="10.00">::getPort</text>
</a>
</g>
</g>
<!-- Node1&#45;&gt;Node2 -->
<g id="edge1_Node000001_Node000002" class="edge">
<title>Node1&#45;&gt;Node2</title>
<g id="a_edge1_Node000001_Node000002"><a xlink:title=" ">
<path fill="none" stroke="#63b8ff" d="M381.57,-139.53C361.59,-155.54 333.55,-176.39 306.5,-191 300.77,-194.1 294.57,-196.98 288.34,-199.61"/>
<polygon fill="#63b8ff" stroke="#63b8ff" points="383.7,-142.31 389.25,-133.28 379.28,-136.88 383.7,-142.31"/>
</a>
</g>
</g>
<!-- Node3 -->
<g id="Node000003" class="node">
<title>Node3</title>
<g id="a_Node000003"><a xlink:href="../../d1/dd4/a00267.html#a8498743c7ba24f2ec02f1bf6fcabfa37" target="_top" xlink:title="Read the state of the GPIO pin.">
<polygon fill="white" stroke="#666666" points="302.75,-182 175.75,-182 175.75,-150 302.75,-150 302.75,-182"/>
<text text-anchor="start" x="183.75" y="-168.5" font-family="Helvetica,sans-Serif" font-size="10.00">Lib::HAL::GPIO::PinInput</text>
<text text-anchor="middle" x="239.25" y="-156.5" font-family="Helvetica,sans-Serif" font-size="10.00">::read</text>
</a>
</g>
</g>
<!-- Node1&#45;&gt;Node3 -->
<g id="edge2_Node000001_Node000003" class="edge">
<title>Node1&#45;&gt;Node3</title>
<g id="a_edge2_Node000001_Node000003"><a xlink:title=" ">
<path fill="none" stroke="#63b8ff" d="M343.42,-135.52C327.77,-140.15 311.23,-145.03 296.08,-149.51"/>
<polygon fill="#63b8ff" stroke="#63b8ff" points="344.03,-138.99 352.63,-132.8 342.05,-132.28 344.03,-138.99"/>
</a>
</g>
</g>
<!-- Node5 -->
<g id="Node000005" class="node">
<title>Node5</title>
<g id="a_Node000005"><a xlink:href="../../d1/dd4/a00267.html#a831a8820a9d7f4c9669556b8445d5196" target="_top" xlink:title="Set the mode of the GPIO pin.">
<polygon fill="white" stroke="#666666" points="302.75,-132 175.75,-132 175.75,-100 302.75,-100 302.75,-132"/>
<text text-anchor="start" x="183.75" y="-118.5" font-family="Helvetica,sans-Serif" font-size="10.00">Lib::HAL::GPIO::PinInput</text>
<text text-anchor="middle" x="239.25" y="-106.5" font-family="Helvetica,sans-Serif" font-size="10.00">::setMode</text>
</a>
</g>
</g>
<!-- Node1&#45;&gt;Node5 -->
<g id="edge4_Node000001_Node000005" class="edge">
<title>Node1&#45;&gt;Node5</title>
<g id="a_edge4_Node000001_Node000005"><a xlink:title=" ">
<path fill="none" stroke="#63b8ff" d="M330.82,-116C321.49,-116 312.06,-116 303,-116"/>
<polygon fill="#63b8ff" stroke="#63b8ff" points="330.61,-119.5 340.61,-116 330.61,-112.5 330.61,-119.5"/>
</a>
</g>
</g>
<!-- Node6 -->
<g id="Node000006" class="node">
<title>Node6</title>
<g id="a_Node000006"><a xlink:href="../../dd/d86/a00271.html#af9cfeea65b80477e08123112c30c01ac" target="_top" xlink:title="Toggles the state of the GPIO pin.">
<polygon fill="white" stroke="#666666" points="306.5,-82 172,-82 172,-50 306.5,-50 306.5,-82"/>
<text text-anchor="start" x="180" y="-68.5" font-family="Helvetica,sans-Serif" font-size="10.00">Lib::HAL::GPIO::PinOutput</text>
<text text-anchor="middle" x="239.25" y="-56.5" font-family="Helvetica,sans-Serif" font-size="10.00">::toggle</text>
</a>
</g>
</g>
<!-- Node1&#45;&gt;Node6 -->
<g id="edge5_Node000001_Node000006" class="edge">
<title>Node1&#45;&gt;Node6</title>
<g id="a_edge5_Node000001_Node000006"><a xlink:title=" ">
<path fill="none" stroke="#63b8ff" d="M343.42,-96.48C327.77,-91.85 311.23,-86.97 296.08,-82.49"/>
<polygon fill="#63b8ff" stroke="#63b8ff" points="342.05,-99.72 352.63,-99.2 344.03,-93.01 342.05,-99.72"/>
</a>
</g>
</g>
<!-- Node7 -->
<g id="Node000007" class="node">
<title>Node7</title>
<g id="a_Node000007"><a xlink:href="../../dd/d86/a00271.html#aaa573d6107f923ee733515c7ae920504" target="_top" xlink:title="Writes a boolean state to the GPIO pin.">
<polygon fill="white" stroke="#666666" points="306.5,-32 172,-32 172,0 306.5,0 306.5,-32"/>
<text text-anchor="start" x="180" y="-18.5" font-family="Helvetica,sans-Serif" font-size="10.00">Lib::HAL::GPIO::PinOutput</text>
<text text-anchor="middle" x="239.25" y="-6.5" font-family="Helvetica,sans-Serif" font-size="10.00">::write</text>
</a>
</g>
</g>
<!-- Node1&#45;&gt;Node7 -->
<g id="edge6_Node000001_Node000007" class="edge">
<title>Node1&#45;&gt;Node7</title>
<g id="a_edge6_Node000001_Node000007"><a xlink:title=" ">
<path fill="none" stroke="#63b8ff" d="M381.57,-92.47C361.59,-76.46 333.55,-55.61 306.5,-41 300.77,-37.9 294.57,-35.02 288.34,-32.39"/>
<polygon fill="#63b8ff" stroke="#63b8ff" points="379.28,-95.12 389.25,-98.72 383.7,-89.69 379.28,-95.12"/>
</a>
</g>
</g>
<!-- Node4 -->
<g id="Node000004" class="node">
<title>Node4</title>
<g id="a_Node000004"><a xlink:href="../../d3/d5e/a00275.html#a8802f95e86bd0eaa65981875534badfd" target="_top" xlink:title="Reads the current state of the GPIO pin.">
<polygon fill="white" stroke="#666666" points="136,-182 0,-182 0,-150 136,-150 136,-182"/>
<text text-anchor="start" x="8" y="-168.5" font-family="Helvetica,sans-Serif" font-size="10.00">Lib::HAL::GPIO::EXTIBase</text>
<text text-anchor="middle" x="68" y="-156.5" font-family="Helvetica,sans-Serif" font-size="10.00">::read</text>
</a>
</g>
</g>
<!-- Node3&#45;&gt;Node4 -->
<g id="edge3_Node000003_Node000004" class="edge">
<title>Node3&#45;&gt;Node4</title>
<g id="a_edge3_Node000003_Node000004"><a xlink:title=" ">
<path fill="none" stroke="#63b8ff" d="M164.45,-166C155.13,-166 145.62,-166 136.4,-166"/>
<polygon fill="#63b8ff" stroke="#63b8ff" points="164.19,-169.5 174.19,-166 164.19,-162.5 164.19,-169.5"/>
</a>
</g>
</g>
</g>
</svg>
