<?xml version="1.0" encoding="UTF-8" standalone="no"?>
<!DOCTYPE svg PUBLIC "-//W3C//DTD SVG 1.1//EN"
 "http://www.w3.org/Graphics/SVG/1.1/DTD/svg11.dtd">
<!-- Generated by graphviz version 13.1.0 (20250701.0955)
 -->
<!-- Title: Lib::Xbee::Core::ComDriver Pages: 1 -->
<svg width="386pt" height="975pt"
 viewBox="0.00 0.00 386.00 975.00" xmlns="http://www.w3.org/2000/svg" xmlns:xlink="http://www.w3.org/1999/xlink">
<g id="graph0" class="graph" transform="scale(1 1) rotate(0) translate(4 971)">
<title>Lib::Xbee::Core::ComDriver</title>
<!-- Node1 -->
<g id="Node000001" class="node">
<title>Node1</title>
<g id="a_Node000001"><a xlink:title="XBEE UART communication driver.">
<polygon fill="#999999" stroke="none" points="269.38,-250.5 126.12,-250.5 126.12,0 269.38,0 269.38,-250.5"/>
<text xml:space="preserve" text-anchor="start" x="141.5" y="-237.95" font-family="Arial" font-size="9.00">Lib::Xbee::Core::ComDriver</text>
<text xml:space="preserve" text-anchor="start" x="196.62" y="-223.45" font-family="Arial" font-size="9.00"> </text>
<text xml:space="preserve" text-anchor="start" x="130.12" y="-208.95" font-family="Arial" font-size="9.00">+</text>
<text xml:space="preserve" text-anchor="start" x="139.38" y="-208.95" font-family="Arial" font-size="9.00">ComDriver()</text>
<text xml:space="preserve" text-anchor="start" x="130.12" y="-194.45" font-family="Arial" font-size="9.00">+</text>
<text xml:space="preserve" text-anchor="start" x="139.38" y="-194.45" font-family="Arial" font-size="9.00">~ComDriver()</text>
<text xml:space="preserve" text-anchor="start" x="130.12" y="-179.95" font-family="Arial" font-size="9.00">+</text>
<text xml:space="preserve" text-anchor="start" x="139.38" y="-179.95" font-family="Arial" font-size="9.00">init()</text>
<text xml:space="preserve" text-anchor="start" x="130.12" y="-165.45" font-family="Arial" font-size="9.00">+</text>
<text xml:space="preserve" text-anchor="start" x="139.38" y="-165.45" font-family="Arial" font-size="9.00">send()</text>
<text xml:space="preserve" text-anchor="start" x="130.12" y="-150.95" font-family="Arial" font-size="9.00">+</text>
<text xml:space="preserve" text-anchor="start" x="139.38" y="-150.95" font-family="Arial" font-size="9.00">signalBeginMessageReceive()</text>
<text xml:space="preserve" text-anchor="start" x="130.12" y="-136.45" font-family="Arial" font-size="9.00">+</text>
<text xml:space="preserve" text-anchor="start" x="139.38" y="-136.45" font-family="Arial" font-size="9.00">signalEndMessageReceived()</text>
<text xml:space="preserve" text-anchor="start" x="130.12" y="-121.95" font-family="Arial" font-size="9.00">+</text>
<text xml:space="preserve" text-anchor="start" x="139.38" y="-121.95" font-family="Arial" font-size="9.00">signalBeginMessageSend()</text>
<text xml:space="preserve" text-anchor="start" x="130.12" y="-107.45" font-family="Arial" font-size="9.00">+</text>
<text xml:space="preserve" text-anchor="start" x="139.38" y="-107.45" font-family="Arial" font-size="9.00">signalEndMessageSend()</text>
<text xml:space="preserve" text-anchor="start" x="130.12" y="-92.95" font-family="Arial" font-size="9.00">+</text>
<text xml:space="preserve" text-anchor="start" x="139.38" y="-92.95" font-family="Arial" font-size="9.00">ComDriver()</text>
<text xml:space="preserve" text-anchor="start" x="130.12" y="-78.45" font-family="Arial" font-size="9.00">+</text>
<text xml:space="preserve" text-anchor="start" x="139.38" y="-78.45" font-family="Arial" font-size="9.00">~ComDriver()</text>
<text xml:space="preserve" text-anchor="start" x="139.38" y="-63.95" font-family="Arial" font-size="9.00">and 22 more...</text>
<text xml:space="preserve" text-anchor="start" x="130.12" y="-49.45" font-family="Arial" font-size="9.00">#</text>
<text xml:space="preserve" text-anchor="start" x="139.38" y="-49.45" font-family="Arial" font-size="9.00">reset()</text>
<text xml:space="preserve" text-anchor="start" x="130.12" y="-34.95" font-family="Arial" font-size="9.00">#</text>
<text xml:space="preserve" text-anchor="start" x="139.38" y="-34.95" font-family="Arial" font-size="9.00">reset()</text>
<text xml:space="preserve" text-anchor="start" x="130.12" y="-20.45" font-family="Arial" font-size="9.00">#</text>
<text xml:space="preserve" text-anchor="start" x="139.38" y="-20.45" font-family="Arial" font-size="9.00">reset()</text>
<text xml:space="preserve" text-anchor="start" x="130.12" y="-5.95" font-family="Arial" font-size="9.00">#</text>
<text xml:space="preserve" text-anchor="start" x="139.38" y="-5.95" font-family="Arial" font-size="9.00">reset()</text>
<polygon fill="#666666" stroke="#666666" points="126.12,-234 126.12,-234 269.38,-234 269.38,-234 126.12,-234"/>
<polygon fill="#666666" stroke="#666666" points="126.12,-219.5 126.12,-219.5 269.38,-219.5 269.38,-219.5 126.12,-219.5"/>
<polygon fill="none" stroke="#666666" points="126.12,0 126.12,-250.5 269.38,-250.5 269.38,0 126.12,0"/>
</a>
</g>
</g>
<!-- Node2 -->
<g id="Node000002" class="node">
<title>Node2</title>
<g id="a_Node000002"><a xlink:href="../../df/d61/class_lib_1_1_free_r_t_o_s_1_1_mutex.html" target="_top" xlink:title="Encapsulates FreeRTOS mutex creation, management, and operations.">
<polygon fill="white" stroke="none" points="119.38,-466.5 22.12,-466.5 22.12,-303 119.38,-303 119.38,-466.5"/>
<text xml:space="preserve" text-anchor="start" x="26.12" y="-453.95" font-family="Arial" font-size="9.00">Lib::FreeRTOS::Mutex</text>
<text xml:space="preserve" text-anchor="start" x="69.62" y="-439.45" font-family="Arial" font-size="9.00"> </text>
<text xml:space="preserve" text-anchor="start" x="31.31" y="-424.95" font-family="Arial" font-size="9.00">+</text>
<text xml:space="preserve" text-anchor="start" x="45.75" y="-424.95" font-family="Arial" font-size="9.00">Mutex()</text>
<text xml:space="preserve" text-anchor="start" x="31.31" y="-410.45" font-family="Arial" font-size="9.00">+</text>
<text xml:space="preserve" text-anchor="start" x="45.75" y="-410.45" font-family="Arial" font-size="9.00">~Mutex()</text>
<text xml:space="preserve" text-anchor="start" x="31.31" y="-395.95" font-family="Arial" font-size="9.00">+</text>
<text xml:space="preserve" text-anchor="start" x="45.75" y="-395.95" font-family="Arial" font-size="9.00">create()</text>
<text xml:space="preserve" text-anchor="start" x="31.31" y="-381.45" font-family="Arial" font-size="9.00">+</text>
<text xml:space="preserve" text-anchor="start" x="45.75" y="-381.45" font-family="Arial" font-size="9.00">release()</text>
<text xml:space="preserve" text-anchor="start" x="31.31" y="-366.95" font-family="Arial" font-size="9.00">+</text>
<text xml:space="preserve" text-anchor="start" x="45.75" y="-366.95" font-family="Arial" font-size="9.00">take()</text>
<text xml:space="preserve" text-anchor="start" x="31.31" y="-352.45" font-family="Arial" font-size="9.00">+</text>
<text xml:space="preserve" text-anchor="start" x="45.75" y="-352.45" font-family="Arial" font-size="9.00">takeFromISR()</text>
<text xml:space="preserve" text-anchor="start" x="31.31" y="-337.95" font-family="Arial" font-size="9.00">+</text>
<text xml:space="preserve" text-anchor="start" x="45.75" y="-337.95" font-family="Arial" font-size="9.00">give()</text>
<text xml:space="preserve" text-anchor="start" x="31.31" y="-323.45" font-family="Arial" font-size="9.00">+</text>
<text xml:space="preserve" text-anchor="start" x="45.75" y="-323.45" font-family="Arial" font-size="9.00">giveFromISR()</text>
<text xml:space="preserve" text-anchor="start" x="31.31" y="-308.95" font-family="Arial" font-size="9.00">+</text>
<text xml:space="preserve" text-anchor="start" x="45.75" y="-308.95" font-family="Arial" font-size="9.00">isCreated()</text>
<polygon fill="#666666" stroke="#666666" points="22.12,-450 22.12,-450 119.38,-450 119.38,-450 22.12,-450"/>
<polygon fill="#666666" stroke="#666666" points="22.12,-435.5 22.12,-435.5 119.38,-435.5 119.38,-435.5 22.12,-435.5"/>
<polygon fill="none" stroke="#666666" points="22.12,-303 22.12,-466.5 119.38,-466.5 119.38,-303 22.12,-303"/>
</a>
</g>
</g>
<!-- Node2&#45;&gt;Node1 -->
<g id="edge1_Node000001_Node000002" class="edge">
<title>Node2&#45;&gt;Node1</title>
<g id="a_edge1_Node000001_Node000002"><a xlink:title=" ">
<path fill="none" stroke="#63b8ff" d="M110.41,-303.33C116.96,-290.06 123.9,-275.98 130.9,-261.8"/>
<polygon fill="none" stroke="#63b8ff" points="130.81,-261.98 129.87,-254.83 136.11,-251.22 137.05,-258.37 130.81,-261.98"/>
</a>
</g>
<text xml:space="preserve" text-anchor="start" x="129.65" y="-273.45" font-family="Arial" font-size="9.00" fill="grey">#mutexSend</text>
</g>
<!-- Node3 -->
<g id="Node000003" class="node">
<title>Node3</title>
<g id="a_Node000003"><a xlink:href="../../da/d90/class_lib_1_1_free_r_t_o_s_1_1_semaphore_base.html" target="_top" xlink:title="Abstract base class for FreeRTOS semaphore wrappers.">
<polygon fill="white" stroke="none" points="141.5,-867 0,-867 0,-620.5 141.5,-620.5 141.5,-867"/>
<text xml:space="preserve" text-anchor="start" x="4" y="-854.45" font-family="Arial" font-size="9.00">Lib::FreeRTOS::SemaphoreBase</text>
<text xml:space="preserve" text-anchor="start" x="69.62" y="-839.95" font-family="Arial" font-size="9.00"> </text>
<text xml:space="preserve" text-anchor="start" x="6.38" y="-825.45" font-family="Arial" font-size="9.00">#</text>
<text xml:space="preserve" text-anchor="start" x="18" y="-825.45" font-family="Arial" font-size="9.00">SemaphoreBase()</text>
<text xml:space="preserve" text-anchor="start" x="6.38" y="-810.95" font-family="Arial" font-size="9.00">#</text>
<text xml:space="preserve" text-anchor="start" x="18" y="-810.95" font-family="Arial" font-size="9.00">SemaphoreBase()</text>
<text xml:space="preserve" text-anchor="start" x="6.38" y="-796.45" font-family="Arial" font-size="9.00">#</text>
<text xml:space="preserve" text-anchor="start" x="18" y="-796.45" font-family="Arial" font-size="9.00">operator=()</text>
<text xml:space="preserve" text-anchor="start" x="6.38" y="-781.95" font-family="Arial" font-size="9.00">#</text>
<text xml:space="preserve" text-anchor="start" x="18" y="-781.95" font-family="Arial" font-size="9.00">SemaphoreBase()</text>
<text xml:space="preserve" text-anchor="start" x="6.38" y="-767.45" font-family="Arial" font-size="9.00">#</text>
<text xml:space="preserve" text-anchor="start" x="18" y="-767.45" font-family="Arial" font-size="9.00">operator=()</text>
<text xml:space="preserve" text-anchor="start" x="6.38" y="-752.95" font-family="Arial" font-size="9.00">#</text>
<text xml:space="preserve" text-anchor="start" x="18" y="-752.95" font-family="Arial" font-size="9.00">~SemaphoreBase()</text>
<text xml:space="preserve" text-anchor="start" x="6.38" y="-738.45" font-family="Arial" font-size="9.00">#</text>
<text xml:space="preserve" text-anchor="start" x="18" y="-738.45" font-family="Arial" font-size="9.00">create()</text>
<text xml:space="preserve" text-anchor="start" x="6.38" y="-723.95" font-family="Arial" font-size="9.00">#</text>
<text xml:space="preserve" text-anchor="start" x="18" y="-723.95" font-family="Arial" font-size="9.00">release()</text>
<text xml:space="preserve" text-anchor="start" x="6.38" y="-709.45" font-family="Arial" font-size="9.00">#</text>
<text xml:space="preserve" text-anchor="start" x="18" y="-709.45" font-family="Arial" font-size="9.00">take()</text>
<text xml:space="preserve" text-anchor="start" x="6.38" y="-694.95" font-family="Arial" font-size="9.00">#</text>
<text xml:space="preserve" text-anchor="start" x="18" y="-694.95" font-family="Arial" font-size="9.00">give()</text>
<text xml:space="preserve" text-anchor="start" x="6.38" y="-680.45" font-family="Arial" font-size="9.00">#</text>
<text xml:space="preserve" text-anchor="start" x="18" y="-680.45" font-family="Arial" font-size="9.00">takeFromISR()</text>
<text xml:space="preserve" text-anchor="start" x="6.38" y="-665.95" font-family="Arial" font-size="9.00">#</text>
<text xml:space="preserve" text-anchor="start" x="18" y="-665.95" font-family="Arial" font-size="9.00">giveFromISR()</text>
<text xml:space="preserve" text-anchor="start" x="6.38" y="-651.45" font-family="Arial" font-size="9.00">#</text>
<text xml:space="preserve" text-anchor="start" x="18" y="-651.45" font-family="Arial" font-size="9.00">operator SemaphoreHandle</text>
<text xml:space="preserve" text-anchor="start" x="18" y="-640.95" font-family="Arial" font-size="9.00">_t &amp;()</text>
<text xml:space="preserve" text-anchor="start" x="6.38" y="-626.45" font-family="Arial" font-size="9.00">#</text>
<text xml:space="preserve" text-anchor="start" x="18" y="-626.45" font-family="Arial" font-size="9.00">isCreated()</text>
<polygon fill="#666666" stroke="#666666" points="0,-850.5 0,-850.5 141.5,-850.5 141.5,-850.5 0,-850.5"/>
<polygon fill="#666666" stroke="#666666" points="0,-836 0,-836 141.5,-836 141.5,-836 0,-836"/>
<polygon fill="none" stroke="#666666" points="0,-620.5 0,-867 141.5,-867 141.5,-620.5 0,-620.5"/>
</a>
</g>
</g>
<!-- Node3&#45;&gt;Node2 -->
<g id="edge2_Node000002_Node000003" class="edge">
<title>Node3&#45;&gt;Node2</title>
<g id="a_edge2_Node000002_Node000003"><a xlink:title=" ">
<path fill="none" stroke="#63b8ff" d="M70.75,-609.43C70.75,-561.36 70.75,-508.62 70.75,-466.43"/>
<polygon fill="none" stroke="#63b8ff" points="67.25,-609.38 70.75,-619.38 74.25,-609.38 67.25,-609.38"/>
</a>
</g>
</g>
<!-- Node4 -->
<g id="Node000004" class="node">
<title>Node4</title>
<g id="a_Node000004"><a xlink:title=" ">
<polygon fill="white" stroke="none" points="117.5,-967 24,-967 24,-919.5 117.5,-919.5 117.5,-967"/>
<text xml:space="preserve" text-anchor="start" x="28" y="-954.45" font-family="Arial" font-size="9.00">SemaphoreHandle_t</text>
<text xml:space="preserve" text-anchor="start" x="69.62" y="-939.95" font-family="Arial" font-size="9.00"> </text>
<text xml:space="preserve" text-anchor="start" x="69.62" y="-925.45" font-family="Arial" font-size="9.00"> </text>
<polygon fill="#bfbfbf" stroke="#bfbfbf" points="24,-950.5 24,-950.5 117.5,-950.5 117.5,-950.5 24,-950.5"/>
<polygon fill="#bfbfbf" stroke="#bfbfbf" points="24,-936 24,-936 117.5,-936 117.5,-936 24,-936"/>
<polygon fill="none" stroke="#bfbfbf" points="24,-919.5 24,-967 117.5,-967 117.5,-919.5 24,-919.5"/>
</a>
</g>
</g>
<!-- Node4&#45;&gt;Node3 -->
<g id="edge3_Node000003_Node000004" class="edge">
<title>Node4&#45;&gt;Node3</title>
<g id="a_edge3_Node000003_Node000004"><a xlink:title=" ">
<path fill="none" stroke="#63b8ff" d="M70.75,-919.59C70.75,-908.83 70.75,-895 70.75,-879.85"/>
<polygon fill="none" stroke="#63b8ff" points="70.75,-879.75 66.75,-873.75 70.75,-867.75 74.75,-873.75 70.75,-879.75"/>
</a>
</g>
<text xml:space="preserve" text-anchor="start" x="73.75" y="-889.95" font-family="Arial" font-size="9.00" fill="grey">#handle</text>
</g>
<!-- Node5 -->
<g id="Node000005" class="node">
<title>Node5</title>
<g id="a_Node000005"><a xlink:href="../../d3/da6/class_lib_1_1_xbee_1_1_core_1_1_diagnostic.html" target="_top" xlink:title="Diagnostic counters for XBEE API communication.">
<polygon fill="white" stroke="none" points="257.62,-415.75 137.88,-415.75 137.88,-353.75 257.62,-353.75 257.62,-415.75"/>
<text xml:space="preserve" text-anchor="start" x="141.88" y="-403.2" font-family="Arial" font-size="9.00">Lib::Xbee::Core::Diagnostic</text>
<text xml:space="preserve" text-anchor="start" x="196.62" y="-388.7" font-family="Arial" font-size="9.00"> </text>
<text xml:space="preserve" text-anchor="start" x="157.38" y="-374.2" font-family="Arial" font-size="9.00">+</text>
<text xml:space="preserve" text-anchor="start" x="182.12" y="-374.2" font-family="Arial" font-size="9.00">instance()</text>
<text xml:space="preserve" text-anchor="start" x="157.38" y="-359.7" font-family="Arial" font-size="9.00">+</text>
<text xml:space="preserve" text-anchor="start" x="182.12" y="-359.7" font-family="Arial" font-size="9.00">instance()</text>
<polygon fill="#666666" stroke="#666666" points="137.88,-399.25 137.88,-399.25 257.62,-399.25 257.62,-399.25 137.88,-399.25"/>
<polygon fill="#666666" stroke="#666666" points="137.88,-384.75 137.88,-384.75 257.62,-384.75 257.62,-384.75 137.88,-384.75"/>
<polygon fill="none" stroke="#666666" points="137.88,-353.75 137.88,-415.75 257.62,-415.75 257.62,-353.75 137.88,-353.75"/>
</a>
</g>
</g>
<!-- Node5&#45;&gt;Node1 -->
<g id="edge4_Node000001_Node000005" class="edge">
<title>Node5&#45;&gt;Node1</title>
<g id="a_edge4_Node000001_Node000005"><a xlink:title=" ">
<path fill="none" stroke="#63b8ff" d="M197.75,-353.96C197.75,-330.97 197.75,-297.37 197.75,-263.02"/>
<polygon fill="none" stroke="#63b8ff" points="197.75,-263.24 193.75,-257.24 197.75,-251.24 201.75,-257.24 197.75,-263.24"/>
</a>
</g>
<text xml:space="preserve" text-anchor="start" x="200.75" y="-273.45" font-family="Arial" font-size="9.00" fill="grey">#diagnostic</text>
</g>
<!-- Node6 -->
<g id="Node000006" class="node">
<title>Node6</title>
<g id="a_Node000006"><a xlink:title=" ">
<polygon fill="white" stroke="none" points="218.25,-767.5 177.25,-767.5 177.25,-720 218.25,-720 218.25,-767.5"/>
<text xml:space="preserve" text-anchor="start" x="181.25" y="-754.95" font-family="Arial" font-size="9.00">uint32_t</text>
<text xml:space="preserve" text-anchor="start" x="196.62" y="-740.45" font-family="Arial" font-size="9.00"> </text>
<text xml:space="preserve" text-anchor="start" x="196.62" y="-725.95" font-family="Arial" font-size="9.00"> </text>
<polygon fill="#bfbfbf" stroke="#bfbfbf" points="177.25,-751 177.25,-751 218.25,-751 218.25,-751 177.25,-751"/>
<polygon fill="#bfbfbf" stroke="#bfbfbf" points="177.25,-736.5 177.25,-736.5 218.25,-736.5 218.25,-736.5 177.25,-736.5"/>
<polygon fill="none" stroke="#bfbfbf" points="177.25,-720 177.25,-767.5 218.25,-767.5 218.25,-720 177.25,-720"/>
</a>
</g>
</g>
<!-- Node6&#45;&gt;Node5 -->
<g id="edge5_Node000005_Node000006" class="edge">
<title>Node6&#45;&gt;Node5</title>
<g id="a_edge5_Node000005_Node000006"><a xlink:title=" ">
<path fill="none" stroke="#63b8ff" d="M197.75,-720.15C197.75,-661.66 197.75,-504.61 197.75,-428.4"/>
<polygon fill="none" stroke="#63b8ff" points="197.75,-428.49 193.75,-422.49 197.75,-416.49 201.75,-422.49 197.75,-428.49"/>
</a>
</g>
<text xml:space="preserve" text-anchor="start" x="200.75" y="-590.95" font-family="Arial" font-size="9.00" fill="grey">+ignoredMessagesByTimeout</text>
<text xml:space="preserve" text-anchor="start" x="200.75" y="-576.45" font-family="Arial" font-size="9.00" fill="grey">+invalidMessages</text>
<text xml:space="preserve" text-anchor="start" x="200.75" y="-561.95" font-family="Arial" font-size="9.00" fill="grey">+maxMsgLengthErrors</text>
<text xml:space="preserve" text-anchor="start" x="200.75" y="-547.45" font-family="Arial" font-size="9.00" fill="grey">+receivedAtCommandMessages</text>
<text xml:space="preserve" text-anchor="start" x="200.75" y="-532.95" font-family="Arial" font-size="9.00" fill="grey">+receivedDataMessages</text>
<text xml:space="preserve" text-anchor="start" x="200.75" y="-518.45" font-family="Arial" font-size="9.00" fill="grey">+sentAtCommandMessages</text>
<text xml:space="preserve" text-anchor="start" x="200.75" y="-503.95" font-family="Arial" font-size="9.00" fill="grey">+sentDataMessages</text>
<text xml:space="preserve" text-anchor="start" x="200.75" y="-489.45" font-family="Arial" font-size="9.00" fill="grey">+sentDataMessagesTimeout</text>
</g>
<!-- Node7 -->
<g id="Node000007" class="node">
<title>Node7</title>
<g id="a_Node000007"><a xlink:href="../../d5/d05/class_lib_1_1_h_a_l_1_1_g_p_i_o_1_1_pin.html" target="_top" xlink:title=" ">
<polygon fill="white" stroke="none" points="377.62,-419 275.88,-419 275.88,-350.5 377.62,-350.5 377.62,-419"/>
<text xml:space="preserve" text-anchor="start" x="279.88" y="-406.45" font-family="Arial" font-size="9.00">Lib::HAL::GPIO::Pin</text>
<text xml:space="preserve" text-anchor="start" x="279.88" y="-395.95" font-family="Arial" font-size="9.00">&lt; Lib::HAL::GPIO::Type</text>
<text xml:space="preserve" text-anchor="start" x="302.38" y="-385.45" font-family="Arial" font-size="9.00">::OUTPUT &gt;</text>
<text xml:space="preserve" text-anchor="start" x="325.62" y="-370.95" font-family="Arial" font-size="9.00"> </text>
<text xml:space="preserve" text-anchor="start" x="325.62" y="-356.45" font-family="Arial" font-size="9.00"> </text>
<polygon fill="#666666" stroke="#666666" points="275.88,-381.5 275.88,-381.5 377.62,-381.5 377.62,-381.5 275.88,-381.5"/>
<polygon fill="#666666" stroke="#666666" points="275.88,-367 275.88,-367 377.62,-367 377.62,-367 275.88,-367"/>
<polygon fill="none" stroke="#666666" points="275.88,-350.5 275.88,-419 377.62,-419 377.62,-350.5 275.88,-350.5"/>
</a>
</g>
</g>
<!-- Node7&#45;&gt;Node1 -->
<g id="edge6_Node000001_Node000007" class="edge">
<title>Node7&#45;&gt;Node1</title>
<g id="a_edge6_Node000001_Node000007"><a xlink:title=" ">
<path fill="none" stroke="#63b8ff" d="M310.15,-350.61C298.53,-327.43 282.17,-294.76 265.51,-261.51"/>
<polygon fill="none" stroke="#63b8ff" points="265.64,-261.76 259.38,-258.19 260.26,-251.04 266.53,-254.61 265.64,-261.76"/>
</a>
</g>
<text xml:space="preserve" text-anchor="start" x="276.8" y="-273.45" font-family="Arial" font-size="9.00" fill="grey">#xrst</text>
</g>
</g>
</svg>
