<?xml version="1.0" encoding="UTF-8" standalone="no"?>
<!DOCTYPE svg PUBLIC "-//W3C//DTD SVG 1.1//EN"
 "http://www.w3.org/Graphics/SVG/1.1/DTD/svg11.dtd">
<!-- Generated by graphviz version 13.1.0 (20250701.0955)
 -->
<!-- Title: Lib::Xbee::Core::Frame0x08 Pages: 1 -->
<svg width="324pt" height="598pt"
 viewBox="0.00 0.00 324.00 598.00" xmlns="http://www.w3.org/2000/svg" xmlns:xlink="http://www.w3.org/1999/xlink">
<g id="graph0" class="graph" transform="scale(1 1) rotate(0) translate(4 594)">
<title>Lib::Xbee::Core::Frame0x08</title>
<!-- Node1 -->
<g id="Node000001" class="node">
<title>Node1</title>
<g id="a_Node000001"><a xlink:title="Builder for Xbee Local AT Command Request (0x08) frames.">
<polygon fill="#999999" stroke="none" points="163.38,-62 40.63,-62 40.63,0 163.38,0 163.38,-62"/>
<text xml:space="preserve" text-anchor="start" x="44.63" y="-49.45" font-family="Arial" font-size="9.00">Lib::Xbee::Core::Frame0x08</text>
<text xml:space="preserve" text-anchor="start" x="100.88" y="-34.95" font-family="Arial" font-size="9.00"> </text>
<text xml:space="preserve" text-anchor="start" x="47.76" y="-20.45" font-family="Arial" font-size="9.00">+</text>
<text xml:space="preserve" text-anchor="start" x="60.13" y="-20.45" font-family="Arial" font-size="9.00">operator Frame::Data()</text>
<text xml:space="preserve" text-anchor="start" x="47.76" y="-5.95" font-family="Arial" font-size="9.00">+</text>
<text xml:space="preserve" text-anchor="start" x="60.13" y="-5.95" font-family="Arial" font-size="9.00">operator Frame::Data()</text>
<polygon fill="#666666" stroke="#666666" points="40.63,-45.5 40.63,-45.5 163.38,-45.5 163.38,-45.5 40.63,-45.5"/>
<polygon fill="#666666" stroke="#666666" points="40.63,-31 40.63,-31 163.38,-31 163.38,-31 40.63,-31"/>
<polygon fill="none" stroke="#666666" points="40.63,0 40.63,-62 163.38,-62 163.38,0 40.63,0"/>
</a>
</g>
</g>
<!-- Node2 -->
<g id="Node000002" class="node">
<title>Node2</title>
<g id="a_Node000002"><a xlink:href="../../dc/daf/class_lib_1_1_xbee_1_1_core_1_1_query_base.html" target="_top" xlink:title="Abstract base class for Xbee send requests.">
<polygon fill="white" stroke="none" points="163.01,-234.5 41.01,-234.5 41.01,-114.5 163.01,-114.5 163.01,-234.5"/>
<text xml:space="preserve" text-anchor="start" x="45.01" y="-221.95" font-family="Arial" font-size="9.00">Lib::Xbee::Core::QueryBase</text>
<text xml:space="preserve" text-anchor="start" x="100.88" y="-207.45" font-family="Arial" font-size="9.00"> </text>
<text xml:space="preserve" text-anchor="start" x="47.95" y="-192.95" font-family="Arial" font-size="9.00">+</text>
<text xml:space="preserve" text-anchor="start" x="60.13" y="-192.95" font-family="Arial" font-size="9.00">operator Frame::Data()</text>
<text xml:space="preserve" text-anchor="start" x="47.95" y="-178.45" font-family="Arial" font-size="9.00">+</text>
<text xml:space="preserve" text-anchor="start" x="60.13" y="-178.45" font-family="Arial" font-size="9.00">QueryBase()</text>
<text xml:space="preserve" text-anchor="start" x="47.95" y="-163.95" font-family="Arial" font-size="9.00">+</text>
<text xml:space="preserve" text-anchor="start" x="60.13" y="-163.95" font-family="Arial" font-size="9.00">~QueryBase()</text>
<text xml:space="preserve" text-anchor="start" x="47.95" y="-149.45" font-family="Arial" font-size="9.00">+</text>
<text xml:space="preserve" text-anchor="start" x="60.13" y="-149.45" font-family="Arial" font-size="9.00">operator Frame::Data()</text>
<text xml:space="preserve" text-anchor="start" x="47.95" y="-134.95" font-family="Arial" font-size="9.00">+</text>
<text xml:space="preserve" text-anchor="start" x="60.13" y="-134.95" font-family="Arial" font-size="9.00">QueryBase()</text>
<text xml:space="preserve" text-anchor="start" x="47.95" y="-120.45" font-family="Arial" font-size="9.00">+</text>
<text xml:space="preserve" text-anchor="start" x="60.13" y="-120.45" font-family="Arial" font-size="9.00">~QueryBase()</text>
<polygon fill="#666666" stroke="#666666" points="41.01,-218 41.01,-218 163.01,-218 163.01,-218 41.01,-218"/>
<polygon fill="#666666" stroke="#666666" points="41.01,-203.5 41.01,-203.5 163.01,-203.5 163.01,-203.5 41.01,-203.5"/>
<polygon fill="none" stroke="#666666" points="41.01,-114.5 41.01,-234.5 163.01,-234.5 163.01,-114.5 41.01,-114.5"/>
</a>
</g>
</g>
<!-- Node2&#45;&gt;Node1 -->
<g id="edge1_Node000001_Node000002" class="edge">
<title>Node2&#45;&gt;Node1</title>
<g id="a_edge1_Node000001_Node000002"><a xlink:title=" ">
<path fill="none" stroke="#63b8ff" d="M95.26,-103.52C95.25,-88.81 95.62,-74.06 96.39,-61.8"/>
<polygon fill="none" stroke="#63b8ff" points="91.76,-103.23 95.33,-113.21 98.76,-103.18 91.76,-103.23"/>
</a>
</g>
</g>
<!-- Node2&#45;&gt;Node1 -->
<g id="edge4_Node000001_Node000002" class="edge">
<title>Node2&#45;&gt;Node1</title>
<g id="a_edge4_Node000001_Node000002"><a xlink:title=" ">
<path fill="none" stroke="#63b8ff" d="M108.76,-103.52C108.77,-88.81 108.4,-74.06 107.63,-61.8"/>
<polygon fill="none" stroke="#63b8ff" points="105.26,-103.18 108.68,-113.21 112.26,-103.23 105.26,-103.18"/>
</a>
</g>
</g>
<!-- Node3 -->
<g id="Node000003" class="node">
<title>Node3</title>
<g id="a_Node000003"><a xlink:href="../../d1/d88/class_lib_1_1_xbee_1_1_core_1_1_frame_1_1_data.html" target="_top" xlink:title="Type&#45;tagged byte buffer for Xbee Core frame payloads.">
<polygon fill="white" stroke="none" points="148.26,-490 45.76,-490 45.76,-287 148.26,-287 148.26,-490"/>
<text xml:space="preserve" text-anchor="start" x="49.76" y="-477.45" font-family="Arial" font-size="9.00">Lib::Xbee::Core::Frame</text>
<text xml:space="preserve" text-anchor="start" x="85.01" y="-466.95" font-family="Arial" font-size="9.00">::Data</text>
<text xml:space="preserve" text-anchor="start" x="95.88" y="-452.45" font-family="Arial" font-size="9.00"> </text>
<text xml:space="preserve" text-anchor="start" x="56.45" y="-437.95" font-family="Arial" font-size="9.00">+</text>
<text xml:space="preserve" text-anchor="start" x="72.38" y="-437.95" font-family="Arial" font-size="9.00">Data()</text>
<text xml:space="preserve" text-anchor="start" x="56.45" y="-423.45" font-family="Arial" font-size="9.00">+</text>
<text xml:space="preserve" text-anchor="start" x="72.38" y="-423.45" font-family="Arial" font-size="9.00">~Data()</text>
<text xml:space="preserve" text-anchor="start" x="56.45" y="-408.95" font-family="Arial" font-size="9.00">+</text>
<text xml:space="preserve" text-anchor="start" x="72.38" y="-408.95" font-family="Arial" font-size="9.00">reset()</text>
<text xml:space="preserve" text-anchor="start" x="56.45" y="-394.45" font-family="Arial" font-size="9.00">+</text>
<text xml:space="preserve" text-anchor="start" x="72.38" y="-394.45" font-family="Arial" font-size="9.00">append()</text>
<text xml:space="preserve" text-anchor="start" x="56.45" y="-379.95" font-family="Arial" font-size="9.00">+</text>
<text xml:space="preserve" text-anchor="start" x="72.38" y="-379.95" font-family="Arial" font-size="9.00">assign()</text>
<text xml:space="preserve" text-anchor="start" x="56.45" y="-365.45" font-family="Arial" font-size="9.00">+</text>
<text xml:space="preserve" text-anchor="start" x="72.38" y="-365.45" font-family="Arial" font-size="9.00">append()</text>
<text xml:space="preserve" text-anchor="start" x="56.45" y="-350.95" font-family="Arial" font-size="9.00">+</text>
<text xml:space="preserve" text-anchor="start" x="72.38" y="-350.95" font-family="Arial" font-size="9.00">append()</text>
<text xml:space="preserve" text-anchor="start" x="56.45" y="-336.45" font-family="Arial" font-size="9.00">+</text>
<text xml:space="preserve" text-anchor="start" x="72.38" y="-336.45" font-family="Arial" font-size="9.00">append()</text>
<text xml:space="preserve" text-anchor="start" x="56.45" y="-321.95" font-family="Arial" font-size="9.00">+</text>
<text xml:space="preserve" text-anchor="start" x="72.38" y="-321.95" font-family="Arial" font-size="9.00">append()</text>
<text xml:space="preserve" text-anchor="start" x="56.45" y="-307.45" font-family="Arial" font-size="9.00">+</text>
<text xml:space="preserve" text-anchor="start" x="72.38" y="-307.45" font-family="Arial" font-size="9.00">append()</text>
<text xml:space="preserve" text-anchor="start" x="72.38" y="-292.95" font-family="Arial" font-size="9.00">and 20 more...</text>
<polygon fill="#666666" stroke="#666666" points="45.76,-463 45.76,-463 148.26,-463 148.26,-463 45.76,-463"/>
<polygon fill="#666666" stroke="#666666" points="45.76,-448.5 45.76,-448.5 148.26,-448.5 148.26,-448.5 45.76,-448.5"/>
<polygon fill="none" stroke="#666666" points="45.76,-287 45.76,-490 148.26,-490 148.26,-287 45.76,-287"/>
</a>
</g>
</g>
<!-- Node3&#45;&gt;Node2 -->
<g id="edge2_Node000002_Node000003" class="edge">
<title>Node3&#45;&gt;Node2</title>
<g id="a_edge2_Node000002_Node000003"><a xlink:title=" ">
<path fill="none" stroke="#63b8ff" d="M99.38,-287.09C99.69,-273.66 100.01,-260.12 100.32,-247.32"/>
<polygon fill="none" stroke="#63b8ff" points="100.32,-247.19 96.46,-241.09 100.6,-235.19 104.46,-241.28 100.32,-247.19"/>
</a>
</g>
<text xml:space="preserve" text-anchor="start" x="103.1" y="-257.45" font-family="Arial" font-size="9.00" fill="grey">#frameData</text>
</g>
<!-- Node4 -->
<g id="Node000004" class="node">
<title>Node4</title>
<g id="a_Node000004"><a xlink:title=" ">
<polygon fill="white" stroke="none" points="46.88,-590 11.13,-590 11.13,-542.5 46.88,-542.5 46.88,-590"/>
<text xml:space="preserve" text-anchor="start" x="15.13" y="-577.45" font-family="Arial" font-size="9.00">uint8_t</text>
<text xml:space="preserve" text-anchor="start" x="27.88" y="-562.95" font-family="Arial" font-size="9.00"> </text>
<text xml:space="preserve" text-anchor="start" x="27.88" y="-548.45" font-family="Arial" font-size="9.00"> </text>
<polygon fill="#bfbfbf" stroke="#bfbfbf" points="11.13,-573.5 11.13,-573.5 46.88,-573.5 46.88,-573.5 11.13,-573.5"/>
<polygon fill="#bfbfbf" stroke="#bfbfbf" points="11.13,-559 11.13,-559 46.88,-559 46.88,-559 11.13,-559"/>
<polygon fill="none" stroke="#bfbfbf" points="11.13,-542.5 11.13,-590 46.88,-590 46.88,-542.5 11.13,-542.5"/>
</a>
</g>
</g>
<!-- Node4&#45;&gt;Node1 -->
<g id="edge5_Node000001_Node000004" class="edge">
<title>Node4&#45;&gt;Node1</title>
<g id="a_edge5_Node000001_Node000004"><a xlink:title=" ">
<path fill="none" stroke="#63b8ff" d="M23.93,-542.71C9.79,-475.14 -25.41,-269.32 32.01,-114.5 37.83,-98.8 48.09,-84.02 58.99,-71.44"/>
<polygon fill="none" stroke="#63b8ff" points="59.07,-71.35 60.18,-64.22 67.19,-62.5 66.08,-69.63 59.07,-71.35"/>
</a>
</g>
<text xml:space="preserve" text-anchor="start" x="5.68" y="-257.45" font-family="Arial" font-size="9.00" fill="grey">+frameId</text>
</g>
<!-- Node4&#45;&gt;Node3 -->
<g id="edge3_Node000003_Node000004" class="edge">
<title>Node4&#45;&gt;Node3</title>
<g id="a_edge3_Node000003_Node000004"><a xlink:title=" ">
<path fill="none" stroke="#63b8ff" d="M37.76,-542.63C42.08,-531.48 47.64,-517.11 53.62,-501.65"/>
<polygon fill="none" stroke="#63b8ff" points="53.6,-501.69 52.04,-494.65 57.93,-490.49 59.5,-497.53 53.6,-501.69"/>
</a>
</g>
<text xml:space="preserve" text-anchor="start" x="54" y="-512.95" font-family="Arial" font-size="9.00" fill="grey">+type</text>
</g>
<!-- Node5 -->
<g id="Node000005" class="node">
<title>Node5</title>
<g id="a_Node000005"><a xlink:title=" ">
<polygon fill="white" stroke="none" points="222.51,-198.25 181.51,-198.25 181.51,-150.75 222.51,-150.75 222.51,-198.25"/>
<text xml:space="preserve" text-anchor="start" x="185.51" y="-185.7" font-family="Arial" font-size="9.00">uint16_t</text>
<text xml:space="preserve" text-anchor="start" x="200.88" y="-171.2" font-family="Arial" font-size="9.00"> </text>
<text xml:space="preserve" text-anchor="start" x="200.88" y="-156.7" font-family="Arial" font-size="9.00"> </text>
<polygon fill="#bfbfbf" stroke="#bfbfbf" points="181.51,-181.75 181.51,-181.75 222.51,-181.75 222.51,-181.75 181.51,-181.75"/>
<polygon fill="#bfbfbf" stroke="#bfbfbf" points="181.51,-167.25 181.51,-167.25 222.51,-167.25 222.51,-167.25 181.51,-167.25"/>
<polygon fill="none" stroke="#bfbfbf" points="181.51,-150.75 181.51,-198.25 222.51,-198.25 222.51,-150.75 181.51,-150.75"/>
</a>
</g>
</g>
<!-- Node5&#45;&gt;Node1 -->
<g id="edge6_Node000001_Node000005" class="edge">
<title>Node5&#45;&gt;Node1</title>
<g id="a_edge6_Node000001_Node000005"><a xlink:title=" ">
<path fill="none" stroke="#63b8ff" d="M192.07,-150.96C186.72,-139.66 179.65,-125.98 172.01,-114.5 162.23,-99.79 150.19,-84.76 138.87,-71.62"/>
<polygon fill="none" stroke="#63b8ff" points="138.91,-71.68 131.95,-69.81 131,-62.66 137.96,-64.53 138.91,-71.68"/>
</a>
</g>
<text xml:space="preserve" text-anchor="start" x="161.19" y="-84.95" font-family="Arial" font-size="9.00" fill="grey">+atCmd</text>
</g>
<!-- Node6 -->
<g id="Node000006" class="node">
<title>Node6</title>
<g id="a_Node000006"><a xlink:title=" ">
<polygon fill="white" stroke="none" points="315.76,-198.25 240.26,-198.25 240.26,-150.75 315.76,-150.75 315.76,-198.25"/>
<text xml:space="preserve" text-anchor="start" x="244.26" y="-185.7" font-family="Arial" font-size="9.00">vector&lt; uint8_t &gt;</text>
<text xml:space="preserve" text-anchor="start" x="276.88" y="-171.2" font-family="Arial" font-size="9.00"> </text>
<text xml:space="preserve" text-anchor="start" x="276.88" y="-156.7" font-family="Arial" font-size="9.00"> </text>
<polygon fill="#bfbfbf" stroke="#bfbfbf" points="240.26,-181.75 240.26,-181.75 315.76,-181.75 315.76,-181.75 240.26,-181.75"/>
<polygon fill="#bfbfbf" stroke="#bfbfbf" points="240.26,-167.25 240.26,-167.25 315.76,-167.25 315.76,-167.25 240.26,-167.25"/>
<polygon fill="none" stroke="#bfbfbf" points="240.26,-150.75 240.26,-198.25 315.76,-198.25 315.76,-150.75 240.26,-150.75"/>
</a>
</g>
</g>
<!-- Node6&#45;&gt;Node1 -->
<g id="edge7_Node000001_Node000006" class="edge">
<title>Node6&#45;&gt;Node1</title>
<g id="a_edge7_Node000001_Node000006"><a xlink:title=" ">
<path fill="none" stroke="#63b8ff" d="M261.19,-151.01C252.67,-139.85 242.03,-126.27 232.01,-114.5 218.46,-98.57 216.79,-92.48 200.01,-80 192.15,-74.16 183.47,-68.72 174.62,-63.76"/>
<polygon fill="none" stroke="#63b8ff" points="174.75,-63.83 167.57,-64.52 164.17,-58.16 171.35,-57.47 174.75,-63.83"/>
</a>
</g>
<text xml:space="preserve" text-anchor="start" x="220.22" y="-84.95" font-family="Arial" font-size="9.00" fill="grey">+parameters</text>
</g>
</g>
</svg>
