<?xml version="1.0" encoding="UTF-8" standalone="no"?>
<!DOCTYPE svg PUBLIC "-//W3C//DTD SVG 1.1//EN"
 "http://www.w3.org/Graphics/SVG/1.1/DTD/svg11.dtd">
<!-- Generated by graphviz version 13.1.0 (20250701.0955)
 -->
<!-- Title: Queue.hpp Pages: 1 -->
<svg width="182pt" height="84pt"
 viewBox="0.00 0.00 182.00 84.00" xmlns="http://www.w3.org/2000/svg" xmlns:xlink="http://www.w3.org/1999/xlink">
<g id="graph0" class="graph" transform="scale(1 1) rotate(0) translate(4 80)">
<title>Queue.hpp</title>
<!-- Node1 -->
<g id="Node000001" class="node">
<title>Node1</title>
<g id="a_Node000001"><a xlink:title="Queue class template providing RTOS queue abstraction for typed message passing.">
<polygon fill="#999999" stroke="#666666" points="123.88,-76 60.62,-76 60.62,-56 123.88,-56 123.88,-76"/>
<text xml:space="preserve" text-anchor="middle" x="92.25" y="-62.5" font-family="Helvetica,sans-Serif" font-size="10.00">Queue.hpp</text>
</a>
</g>
</g>
<!-- Node2 -->
<g id="Node000002" class="node">
<title>Node2</title>
<g id="a_Node000002"><a xlink:title=" ">
<polygon fill="#e0e0e0" stroke="#999999" points="50.5,-20 0,-20 0,0 50.5,0 50.5,-20"/>
<text xml:space="preserve" text-anchor="middle" x="25.25" y="-6.5" font-family="Helvetica,sans-Serif" font-size="10.00">queue.h</text>
</a>
</g>
</g>
<!-- Node1&#45;&gt;Node2 -->
<g id="edge1_Node000001_Node000002" class="edge">
<title>Node1&#45;&gt;Node2</title>
<g id="a_edge1_Node000001_Node000002"><a xlink:title=" ">
<path fill="none" stroke="#63b8ff" d="M80.58,-55.59C70.97,-47.85 57.12,-36.69 45.68,-27.47"/>
<polygon fill="#63b8ff" stroke="#63b8ff" points="47.95,-24.8 37.97,-21.25 43.55,-30.25 47.95,-24.8"/>
</a>
</g>
</g>
<!-- Node3 -->
<g id="Node000003" class="node">
<title>Node3</title>
<g id="a_Node000003"><a xlink:title=" ">
<polygon fill="#e0e0e0" stroke="#999999" points="116.38,-20 68.12,-20 68.12,0 116.38,0 116.38,-20"/>
<text xml:space="preserve" text-anchor="middle" x="92.25" y="-6.5" font-family="Helvetica,sans-Serif" font-size="10.00">cassert</text>
</a>
</g>
</g>
<!-- Node1&#45;&gt;Node3 -->
<g id="edge2_Node000001_Node000003" class="edge">
<title>Node1&#45;&gt;Node3</title>
<g id="a_edge2_Node000001_Node000003"><a xlink:title=" ">
<path fill="none" stroke="#63b8ff" d="M92.25,-55.59C92.25,-49.01 92.25,-39.96 92.25,-31.73"/>
<polygon fill="#63b8ff" stroke="#63b8ff" points="95.75,-31.81 92.25,-21.81 88.75,-31.81 95.75,-31.81"/>
</a>
</g>
</g>
<!-- Node4 -->
<g id="Node000004" class="node">
<title>Node4</title>
<g id="a_Node000004"><a xlink:title=" ">
<polygon fill="#e0e0e0" stroke="#999999" points="174.25,-20 134.25,-20 134.25,0 174.25,0 174.25,-20"/>
<text xml:space="preserve" text-anchor="middle" x="154.25" y="-6.5" font-family="Helvetica,sans-Serif" font-size="10.00">string</text>
</a>
</g>
</g>
<!-- Node1&#45;&gt;Node4 -->
<g id="edge3_Node000001_Node000004" class="edge">
<title>Node1&#45;&gt;Node4</title>
<g id="a_edge3_Node000001_Node000004"><a xlink:title=" ">
<path fill="none" stroke="#63b8ff" d="M103.05,-55.59C111.85,-47.93 124.5,-36.91 135.02,-27.75"/>
<polygon fill="#63b8ff" stroke="#63b8ff" points="137.19,-30.5 142.43,-21.29 132.59,-25.22 137.19,-30.5"/>
</a>
</g>
</g>
</g>
</svg>
