<?xml version="1.0" encoding="UTF-8" standalone="no"?>
<!DOCTYPE svg PUBLIC "-//W3C//DTD SVG 1.1//EN"
 "http://www.w3.org/Graphics/SVG/1.1/DTD/svg11.dtd">
<!-- Generated by graphviz version 13.1.0 (20250701.0955)
 -->
<!-- Title: Lib::Xbee::Core::LocalAtCommand Pages: 1 -->
<svg width="224pt" height="268pt"
 viewBox="0.00 0.00 224.00 268.00" xmlns="http://www.w3.org/2000/svg" xmlns:xlink="http://www.w3.org/1999/xlink">
<g id="graph0" class="graph" transform="scale(1 1) rotate(0) translate(4 263.5)">
<title>Lib::Xbee::Core::LocalAtCommand</title>
<!-- Node1 -->
<g id="Node000001" class="node">
<title>Node1</title>
<g id="a_Node000001"><a xlink:title="Local AT command transaction manager for XBee modules.">
<polygon fill="#999999" stroke="none" points="136.5,-159.5 29.5,-159.5 29.5,0 136.5,0 136.5,-159.5"/>
<text xml:space="preserve" text-anchor="start" x="33.5" y="-146.95" font-family="Arial" font-size="9.00">Lib::Xbee::Core::LocalAt</text>
<text xml:space="preserve" text-anchor="start" x="61.62" y="-136.45" font-family="Arial" font-size="9.00">Command</text>
<text xml:space="preserve" text-anchor="start" x="81.88" y="-121.95" font-family="Arial" font-size="9.00"> </text>
<text xml:space="preserve" text-anchor="start" x="34.75" y="-107.45" font-family="Arial" font-size="9.00">+</text>
<text xml:space="preserve" text-anchor="start" x="45.25" y="-107.45" font-family="Arial" font-size="9.00">LocalAtCommand()</text>
<text xml:space="preserve" text-anchor="start" x="34.75" y="-92.95" font-family="Arial" font-size="9.00">+</text>
<text xml:space="preserve" text-anchor="start" x="45.25" y="-92.95" font-family="Arial" font-size="9.00">~LocalAtCommand()</text>
<text xml:space="preserve" text-anchor="start" x="34.75" y="-78.45" font-family="Arial" font-size="9.00">+</text>
<text xml:space="preserve" text-anchor="start" x="45.25" y="-78.45" font-family="Arial" font-size="9.00">open()</text>
<text xml:space="preserve" text-anchor="start" x="34.75" y="-63.95" font-family="Arial" font-size="9.00">+</text>
<text xml:space="preserve" text-anchor="start" x="45.25" y="-63.95" font-family="Arial" font-size="9.00">close()</text>
<text xml:space="preserve" text-anchor="start" x="34.75" y="-49.45" font-family="Arial" font-size="9.00">+</text>
<text xml:space="preserve" text-anchor="start" x="45.25" y="-49.45" font-family="Arial" font-size="9.00">isOpen()</text>
<text xml:space="preserve" text-anchor="start" x="34.75" y="-34.95" font-family="Arial" font-size="9.00">+</text>
<text xml:space="preserve" text-anchor="start" x="45.25" y="-34.95" font-family="Arial" font-size="9.00">receive()</text>
<text xml:space="preserve" text-anchor="start" x="34.75" y="-20.45" font-family="Arial" font-size="9.00">+</text>
<text xml:space="preserve" text-anchor="start" x="45.25" y="-20.45" font-family="Arial" font-size="9.00">send()</text>
<text xml:space="preserve" text-anchor="start" x="34.75" y="-5.95" font-family="Arial" font-size="9.00">+</text>
<text xml:space="preserve" text-anchor="start" x="45.25" y="-5.95" font-family="Arial" font-size="9.00">send()</text>
<polygon fill="#666666" stroke="#666666" points="29.5,-132.5 29.5,-132.5 136.5,-132.5 136.5,-132.5 29.5,-132.5"/>
<polygon fill="#666666" stroke="#666666" points="29.5,-118 29.5,-118 136.5,-118 136.5,-118 29.5,-118"/>
<polygon fill="none" stroke="#666666" points="29.5,0 29.5,-159.5 136.5,-159.5 136.5,0 29.5,0"/>
</a>
</g>
</g>
<!-- Node2 -->
<g id="Node000002" class="node">
<title>Node2</title>
<g id="a_Node000002"><a xlink:title=" ">
<polygon fill="white" stroke="none" points="32,-259.5 0,-259.5 0,-212 32,-212 32,-259.5"/>
<text xml:space="preserve" text-anchor="start" x="4" y="-246.95" font-family="Arial" font-size="9.00">size_t</text>
<text xml:space="preserve" text-anchor="start" x="14.88" y="-232.45" font-family="Arial" font-size="9.00"> </text>
<text xml:space="preserve" text-anchor="start" x="14.88" y="-217.95" font-family="Arial" font-size="9.00"> </text>
<polygon fill="#bfbfbf" stroke="#bfbfbf" points="0,-243 0,-243 32,-243 32,-243 0,-243"/>
<polygon fill="#bfbfbf" stroke="#bfbfbf" points="0,-228.5 0,-228.5 32,-228.5 32,-228.5 0,-228.5"/>
<polygon fill="none" stroke="#bfbfbf" points="0,-212 0,-259.5 32,-259.5 32,-212 0,-212"/>
</a>
</g>
</g>
<!-- Node2&#45;&gt;Node1 -->
<g id="edge1_Node000001_Node000002" class="edge">
<title>Node2&#45;&gt;Node1</title>
<g id="a_edge1_Node000001_Node000002"><a xlink:title=" ">
<path fill="none" stroke="#63b8ff" d="M13.45,-212.25C12.96,-201.49 13.47,-188.58 17,-177.5 18.83,-171.75 21.12,-166.03 23.75,-160.41"/>
<polygon fill="none" stroke="#63b8ff" points="23.68,-160.54 22.85,-153.37 29.15,-149.85 29.98,-157.02 23.68,-160.54"/>
</a>
</g>
<text xml:space="preserve" text-anchor="start" x="20" y="-182.45" font-family="Arial" font-size="9.00" fill="grey">+MAX_RESPONSE_SIZE</text>
</g>
<!-- Node3 -->
<g id="Node000003" class="node">
<title>Node3</title>
<g id="a_Node000003"><a xlink:title=" ">
<polygon fill="white" stroke="none" points="170.5,-259.5 129.5,-259.5 129.5,-212 170.5,-212 170.5,-259.5"/>
<text xml:space="preserve" text-anchor="start" x="133.5" y="-246.95" font-family="Arial" font-size="9.00">uint32_t</text>
<text xml:space="preserve" text-anchor="start" x="148.88" y="-232.45" font-family="Arial" font-size="9.00"> </text>
<text xml:space="preserve" text-anchor="start" x="148.88" y="-217.95" font-family="Arial" font-size="9.00"> </text>
<polygon fill="#bfbfbf" stroke="#bfbfbf" points="129.5,-243 129.5,-243 170.5,-243 170.5,-243 129.5,-243"/>
<polygon fill="#bfbfbf" stroke="#bfbfbf" points="129.5,-228.5 129.5,-228.5 170.5,-228.5 170.5,-228.5 129.5,-228.5"/>
<polygon fill="none" stroke="#bfbfbf" points="129.5,-212 129.5,-259.5 170.5,-259.5 170.5,-212 129.5,-212"/>
</a>
</g>
</g>
<!-- Node3&#45;&gt;Node1 -->
<g id="edge2_Node000001_Node000003" class="edge">
<title>Node3&#45;&gt;Node1</title>
<g id="a_edge2_Node000001_Node000003"><a xlink:title=" ">
<path fill="none" stroke="#63b8ff" d="M141.68,-212.04C137.71,-201.47 132.78,-188.77 128,-177.5 127.14,-175.48 126.27,-173.43 125.38,-171.38"/>
<polygon fill="none" stroke="#63b8ff" points="125.35,-171.3 119.27,-167.41 120.53,-160.31 126.6,-164.2 125.35,-171.3"/>
</a>
</g>
<text xml:space="preserve" text-anchor="start" x="137.37" y="-182.45" font-family="Arial" font-size="9.00" fill="grey">+SEND_TIMEOUT</text>
</g>
</g>
</svg>
