<?xml version="1.0" encoding="UTF-8" standalone="no"?>
<!DOCTYPE svg PUBLIC "-//W3C//DTD SVG 1.1//EN"
 "http://www.w3.org/Graphics/SVG/1.1/DTD/svg11.dtd">
<!-- Generated by graphviz version 13.1.0 (20250701.0955)
 -->
<!-- Title: Lib::Xbee::Core::QueryBase Pages: 1 -->
<svg width="130pt" height="503pt"
 viewBox="0.00 0.00 130.00 503.00" xmlns="http://www.w3.org/2000/svg" xmlns:xlink="http://www.w3.org/1999/xlink">
<g id="graph0" class="graph" transform="scale(1 1) rotate(0) translate(4 499)">
<title>Lib::Xbee::Core::QueryBase</title>
<!-- Node1 -->
<g id="Node000001" class="node">
<title>Node1</title>
<g id="a_Node000001"><a xlink:title="Abstract base class for Xbee send requests.">
<polygon fill="#999999" stroke="none" points="122,-97.5 0,-97.5 0,0 122,0 122,-97.5"/>
<text xml:space="preserve" text-anchor="start" x="4" y="-84.95" font-family="Arial" font-size="9.00">Lib::Xbee::Core::QueryBase</text>
<text xml:space="preserve" text-anchor="start" x="59.88" y="-70.45" font-family="Arial" font-size="9.00"> </text>
<text xml:space="preserve" text-anchor="start" x="7.69" y="-55.95" font-family="Arial" font-size="9.00">+</text>
<text xml:space="preserve" text-anchor="start" x="20.62" y="-55.95" font-family="Arial" font-size="9.00">virtual operator Frame</text>
<text xml:space="preserve" text-anchor="start" x="20.62" y="-45.45" font-family="Arial" font-size="9.00">::Data()=0</text>
<text xml:space="preserve" text-anchor="start" x="7.69" y="-30.95" font-family="Arial" font-size="9.00">+</text>
<text xml:space="preserve" text-anchor="start" x="20.62" y="-30.95" font-family="Arial" font-size="9.00">QueryBase()=default</text>
<text xml:space="preserve" text-anchor="start" x="7.69" y="-16.45" font-family="Arial" font-size="9.00">+</text>
<text xml:space="preserve" text-anchor="start" x="20.62" y="-16.45" font-family="Arial" font-size="9.00">virtual ~QueryBase</text>
<text xml:space="preserve" text-anchor="start" x="20.62" y="-5.95" font-family="Arial" font-size="9.00">()=default</text>
<polygon fill="#666666" stroke="#666666" points="0,-81 0,-81 122,-81 122,-81 0,-81"/>
<polygon fill="#666666" stroke="#666666" points="0,-66.5 0,-66.5 122,-66.5 122,-66.5 0,-66.5"/>
<polygon fill="none" stroke="#666666" points="0,0 0,-97.5 122,-97.5 122,0 0,0"/>
</a>
</g>
</g>
<!-- Node2 -->
<g id="Node000002" class="node">
<title>Node2</title>
<g id="a_Node000002"><a xlink:href="../../d1/d88/class_lib_1_1_xbee_1_1_core_1_1_frame_1_1_data.html" target="_top" xlink:title="Type&#45;tagged byte buffer for Xbee Core frame payloads.">
<polygon fill="white" stroke="none" points="117.25,-495 4.75,-495 4.75,-150 117.25,-150 117.25,-495"/>
<text xml:space="preserve" text-anchor="start" x="13.75" y="-482.45" font-family="Arial" font-size="9.00">Lib::Xbee::Core::Frame</text>
<text xml:space="preserve" text-anchor="start" x="49" y="-471.95" font-family="Arial" font-size="9.00">::Data</text>
<text xml:space="preserve" text-anchor="start" x="8.75" y="-457.45" font-family="Arial" font-size="9.00">+</text>
<text xml:space="preserve" text-anchor="start" x="18" y="-457.45" font-family="Arial" font-size="9.00">uint8_t type</text>
<text xml:space="preserve" text-anchor="start" x="8.75" y="-442.95" font-family="Arial" font-size="9.00">+</text>
<text xml:space="preserve" text-anchor="start" x="18" y="-442.95" font-family="Arial" font-size="9.00">Data()=default</text>
<text xml:space="preserve" text-anchor="start" x="8.75" y="-428.45" font-family="Arial" font-size="9.00">+</text>
<text xml:space="preserve" text-anchor="start" x="18" y="-428.45" font-family="Arial" font-size="9.00">~Data()=default</text>
<text xml:space="preserve" text-anchor="start" x="8.75" y="-413.95" font-family="Arial" font-size="9.00">+</text>
<text xml:space="preserve" text-anchor="start" x="18" y="-413.95" font-family="Arial" font-size="9.00">void reset()</text>
<text xml:space="preserve" text-anchor="start" x="8.75" y="-399.45" font-family="Arial" font-size="9.00">+</text>
<text xml:space="preserve" text-anchor="start" x="18" y="-399.45" font-family="Arial" font-size="9.00">void append(const void</text>
<text xml:space="preserve" text-anchor="start" x="18" y="-388.95" font-family="Arial" font-size="9.00"> *src, size_t length)</text>
<text xml:space="preserve" text-anchor="start" x="8.75" y="-374.45" font-family="Arial" font-size="9.00">+</text>
<text xml:space="preserve" text-anchor="start" x="18" y="-374.45" font-family="Arial" font-size="9.00">void assign(const void</text>
<text xml:space="preserve" text-anchor="start" x="18" y="-363.95" font-family="Arial" font-size="9.00"> *src, size_t length)</text>
<text xml:space="preserve" text-anchor="start" x="8.75" y="-349.45" font-family="Arial" font-size="9.00">+</text>
<text xml:space="preserve" text-anchor="start" x="18" y="-349.45" font-family="Arial" font-size="9.00">void append(T value)</text>
<text xml:space="preserve" text-anchor="start" x="8.75" y="-334.95" font-family="Arial" font-size="9.00">+</text>
<text xml:space="preserve" text-anchor="start" x="18" y="-334.95" font-family="Arial" font-size="9.00">void append(uint8_t</text>
<text xml:space="preserve" text-anchor="start" x="18" y="-324.45" font-family="Arial" font-size="9.00"> value)</text>
<text xml:space="preserve" text-anchor="start" x="8.75" y="-309.95" font-family="Arial" font-size="9.00">+</text>
<text xml:space="preserve" text-anchor="start" x="18" y="-309.95" font-family="Arial" font-size="9.00">void append(uint16</text>
<text xml:space="preserve" text-anchor="start" x="18" y="-299.45" font-family="Arial" font-size="9.00">_t value)</text>
<text xml:space="preserve" text-anchor="start" x="8.75" y="-284.95" font-family="Arial" font-size="9.00">+</text>
<text xml:space="preserve" text-anchor="start" x="18" y="-284.95" font-family="Arial" font-size="9.00">void append(uint32</text>
<text xml:space="preserve" text-anchor="start" x="18" y="-274.45" font-family="Arial" font-size="9.00">_t value)</text>
<text xml:space="preserve" text-anchor="start" x="8.75" y="-259.95" font-family="Arial" font-size="9.00">+</text>
<text xml:space="preserve" text-anchor="start" x="18" y="-259.95" font-family="Arial" font-size="9.00">void append(uint64</text>
<text xml:space="preserve" text-anchor="start" x="18" y="-249.45" font-family="Arial" font-size="9.00">_t value)</text>
<text xml:space="preserve" text-anchor="start" x="8.75" y="-234.95" font-family="Arial" font-size="9.00">+</text>
<text xml:space="preserve" text-anchor="start" x="18" y="-234.95" font-family="Arial" font-size="9.00">const uint8_t * data</text>
<text xml:space="preserve" text-anchor="start" x="18" y="-224.45" font-family="Arial" font-size="9.00">() const</text>
<text xml:space="preserve" text-anchor="start" x="8.75" y="-209.95" font-family="Arial" font-size="9.00">+</text>
<text xml:space="preserve" text-anchor="start" x="18" y="-209.95" font-family="Arial" font-size="9.00">bool empty() const</text>
<text xml:space="preserve" text-anchor="start" x="8.75" y="-195.45" font-family="Arial" font-size="9.00">+</text>
<text xml:space="preserve" text-anchor="start" x="18" y="-195.45" font-family="Arial" font-size="9.00">size_t size() const</text>
<text xml:space="preserve" text-anchor="start" x="8.75" y="-180.95" font-family="Arial" font-size="9.00">+</text>
<text xml:space="preserve" text-anchor="start" x="18" y="-180.95" font-family="Arial" font-size="9.00">void clear()</text>
<text xml:space="preserve" text-anchor="start" x="8.75" y="-166.45" font-family="Arial" font-size="9.00">+</text>
<text xml:space="preserve" text-anchor="start" x="18" y="-166.45" font-family="Arial" font-size="9.00">void insert(const uint8</text>
<text xml:space="preserve" text-anchor="start" x="18" y="-155.95" font-family="Arial" font-size="9.00">_t *data, size_t length)</text>
<polygon fill="#666666" stroke="#666666" points="4.75,-468 4.75,-468 117.25,-468 117.25,-468 4.75,-468"/>
<polygon fill="#666666" stroke="#666666" points="4.75,-453.5 4.75,-453.5 16,-453.5 16,-453.5 4.75,-453.5"/>
<polygon fill="#666666" stroke="#666666" points="16,-453.5 16,-453.5 117.25,-453.5 117.25,-453.5 16,-453.5"/>
<polygon fill="none" stroke="#666666" points="4.75,-150 4.75,-495 117.25,-495 117.25,-150 4.75,-150"/>
</a>
</g>
</g>
<!-- Node2&#45;&gt;Node1 -->
<g id="edge1_Node000001_Node000002" class="edge">
<title>Node2&#45;&gt;Node1</title>
<g id="a_edge1_Node000001_Node000002"><a xlink:title=" ">
<path fill="none" stroke="#63b8ff" d="M61,-150.17C61,-136.08 61,-122.54 61,-110.21"/>
<polygon fill="none" stroke="#63b8ff" points="61,-110.24 57,-104.24 61,-98.24 65,-104.24 61,-110.24"/>
</a>
</g>
<text xml:space="preserve" text-anchor="start" x="64" y="-120.45" font-family="Arial" font-size="9.00" fill="grey">#frameData</text>
</g>
</g>
</svg>
