<?xml version="1.0" encoding="UTF-8" standalone="no"?>
<!DOCTYPE svg PUBLIC "-//W3C//DTD SVG 1.1//EN"
 "http://www.w3.org/Graphics/SVG/1.1/DTD/svg11.dtd">
<!-- Generated by graphviz version 13.1.0 (20250701.0955)
 -->
<!-- Title: Lib::Xbee::Core::QueryBase Pages: 1 -->
<svg width="130pt" height="484pt"
 viewBox="0.00 0.00 130.00 484.00" xmlns="http://www.w3.org/2000/svg" xmlns:xlink="http://www.w3.org/1999/xlink">
<g id="graph0" class="graph" transform="scale(1 1) rotate(0) translate(4 479.5)">
<title>Lib::Xbee::Core::QueryBase</title>
<!-- Node1 -->
<g id="Node000001" class="node">
<title>Node1</title>
<g id="a_Node000001"><a xlink:title="Abstract base class for Xbee send requests.">
<polygon fill="#999999" stroke="none" points="122,-120 0,-120 0,0 122,0 122,-120"/>
<text xml:space="preserve" text-anchor="start" x="4" y="-107.45" font-family="Arial" font-size="9.00">Lib::Xbee::Core::QueryBase</text>
<text xml:space="preserve" text-anchor="start" x="59.88" y="-92.95" font-family="Arial" font-size="9.00"> </text>
<text xml:space="preserve" text-anchor="start" x="6.94" y="-78.45" font-family="Arial" font-size="9.00">+</text>
<text xml:space="preserve" text-anchor="start" x="19.12" y="-78.45" font-family="Arial" font-size="9.00">operator Frame::Data()</text>
<text xml:space="preserve" text-anchor="start" x="6.94" y="-63.95" font-family="Arial" font-size="9.00">+</text>
<text xml:space="preserve" text-anchor="start" x="19.12" y="-63.95" font-family="Arial" font-size="9.00">QueryBase()</text>
<text xml:space="preserve" text-anchor="start" x="6.94" y="-49.45" font-family="Arial" font-size="9.00">+</text>
<text xml:space="preserve" text-anchor="start" x="19.12" y="-49.45" font-family="Arial" font-size="9.00">~QueryBase()</text>
<text xml:space="preserve" text-anchor="start" x="6.94" y="-34.95" font-family="Arial" font-size="9.00">+</text>
<text xml:space="preserve" text-anchor="start" x="19.12" y="-34.95" font-family="Arial" font-size="9.00">operator Frame::Data()</text>
<text xml:space="preserve" text-anchor="start" x="6.94" y="-20.45" font-family="Arial" font-size="9.00">+</text>
<text xml:space="preserve" text-anchor="start" x="19.12" y="-20.45" font-family="Arial" font-size="9.00">QueryBase()</text>
<text xml:space="preserve" text-anchor="start" x="6.94" y="-5.95" font-family="Arial" font-size="9.00">+</text>
<text xml:space="preserve" text-anchor="start" x="19.12" y="-5.95" font-family="Arial" font-size="9.00">~QueryBase()</text>
<polygon fill="#666666" stroke="#666666" points="0,-103.5 0,-103.5 122,-103.5 122,-103.5 0,-103.5"/>
<polygon fill="#666666" stroke="#666666" points="0,-89 0,-89 122,-89 122,-89 0,-89"/>
<polygon fill="none" stroke="#666666" points="0,0 0,-120 122,-120 122,0 0,0"/>
</a>
</g>
</g>
<!-- Node2 -->
<g id="Node000002" class="node">
<title>Node2</title>
<g id="a_Node000002"><a xlink:href="../../d1/d88/class_lib_1_1_xbee_1_1_core_1_1_frame_1_1_data.html" target="_top" xlink:title="Type&#45;tagged byte buffer for Xbee Core frame payloads.">
<polygon fill="white" stroke="none" points="112.25,-375.5 9.75,-375.5 9.75,-172.5 112.25,-172.5 112.25,-375.5"/>
<text xml:space="preserve" text-anchor="start" x="13.75" y="-362.95" font-family="Arial" font-size="9.00">Lib::Xbee::Core::Frame</text>
<text xml:space="preserve" text-anchor="start" x="49" y="-352.45" font-family="Arial" font-size="9.00">::Data</text>
<text xml:space="preserve" text-anchor="start" x="59.88" y="-337.95" font-family="Arial" font-size="9.00"> </text>
<text xml:space="preserve" text-anchor="start" x="20.44" y="-323.45" font-family="Arial" font-size="9.00">+</text>
<text xml:space="preserve" text-anchor="start" x="36.38" y="-323.45" font-family="Arial" font-size="9.00">Data()</text>
<text xml:space="preserve" text-anchor="start" x="20.44" y="-308.95" font-family="Arial" font-size="9.00">+</text>
<text xml:space="preserve" text-anchor="start" x="36.38" y="-308.95" font-family="Arial" font-size="9.00">~Data()</text>
<text xml:space="preserve" text-anchor="start" x="20.44" y="-294.45" font-family="Arial" font-size="9.00">+</text>
<text xml:space="preserve" text-anchor="start" x="36.38" y="-294.45" font-family="Arial" font-size="9.00">reset()</text>
<text xml:space="preserve" text-anchor="start" x="20.44" y="-279.95" font-family="Arial" font-size="9.00">+</text>
<text xml:space="preserve" text-anchor="start" x="36.38" y="-279.95" font-family="Arial" font-size="9.00">append()</text>
<text xml:space="preserve" text-anchor="start" x="20.44" y="-265.45" font-family="Arial" font-size="9.00">+</text>
<text xml:space="preserve" text-anchor="start" x="36.38" y="-265.45" font-family="Arial" font-size="9.00">assign()</text>
<text xml:space="preserve" text-anchor="start" x="20.44" y="-250.95" font-family="Arial" font-size="9.00">+</text>
<text xml:space="preserve" text-anchor="start" x="36.38" y="-250.95" font-family="Arial" font-size="9.00">append()</text>
<text xml:space="preserve" text-anchor="start" x="20.44" y="-236.45" font-family="Arial" font-size="9.00">+</text>
<text xml:space="preserve" text-anchor="start" x="36.38" y="-236.45" font-family="Arial" font-size="9.00">append()</text>
<text xml:space="preserve" text-anchor="start" x="20.44" y="-221.95" font-family="Arial" font-size="9.00">+</text>
<text xml:space="preserve" text-anchor="start" x="36.38" y="-221.95" font-family="Arial" font-size="9.00">append()</text>
<text xml:space="preserve" text-anchor="start" x="20.44" y="-207.45" font-family="Arial" font-size="9.00">+</text>
<text xml:space="preserve" text-anchor="start" x="36.38" y="-207.45" font-family="Arial" font-size="9.00">append()</text>
<text xml:space="preserve" text-anchor="start" x="20.44" y="-192.95" font-family="Arial" font-size="9.00">+</text>
<text xml:space="preserve" text-anchor="start" x="36.38" y="-192.95" font-family="Arial" font-size="9.00">append()</text>
<text xml:space="preserve" text-anchor="start" x="36.38" y="-178.45" font-family="Arial" font-size="9.00">and 20 more...</text>
<polygon fill="#666666" stroke="#666666" points="9.75,-348.5 9.75,-348.5 112.25,-348.5 112.25,-348.5 9.75,-348.5"/>
<polygon fill="#666666" stroke="#666666" points="9.75,-334 9.75,-334 112.25,-334 112.25,-334 9.75,-334"/>
<polygon fill="none" stroke="#666666" points="9.75,-172.5 9.75,-375.5 112.25,-375.5 112.25,-172.5 9.75,-172.5"/>
</a>
</g>
</g>
<!-- Node2&#45;&gt;Node1 -->
<g id="edge1_Node000001_Node000002" class="edge">
<title>Node2&#45;&gt;Node1</title>
<g id="a_edge1_Node000001_Node000002"><a xlink:title=" ">
<path fill="none" stroke="#63b8ff" d="M61,-172.59C61,-159.16 61,-145.62 61,-132.82"/>
<polygon fill="none" stroke="#63b8ff" points="61,-132.69 57,-126.69 61,-120.69 65,-126.69 61,-132.69"/>
</a>
</g>
<text xml:space="preserve" text-anchor="start" x="64" y="-142.95" font-family="Arial" font-size="9.00" fill="grey">#frameData</text>
</g>
<!-- Node3 -->
<g id="Node000003" class="node">
<title>Node3</title>
<g id="a_Node000003"><a xlink:title=" ">
<polygon fill="white" stroke="none" points="78.88,-475.5 43.12,-475.5 43.12,-428 78.88,-428 78.88,-475.5"/>
<text xml:space="preserve" text-anchor="start" x="47.12" y="-462.95" font-family="Arial" font-size="9.00">uint8_t</text>
<text xml:space="preserve" text-anchor="start" x="59.88" y="-448.45" font-family="Arial" font-size="9.00"> </text>
<text xml:space="preserve" text-anchor="start" x="59.88" y="-433.95" font-family="Arial" font-size="9.00"> </text>
<polygon fill="#bfbfbf" stroke="#bfbfbf" points="43.12,-459 43.12,-459 78.88,-459 78.88,-459 43.12,-459"/>
<polygon fill="#bfbfbf" stroke="#bfbfbf" points="43.12,-444.5 43.12,-444.5 78.88,-444.5 78.88,-444.5 43.12,-444.5"/>
<polygon fill="none" stroke="#bfbfbf" points="43.12,-428 43.12,-475.5 78.88,-475.5 78.88,-428 43.12,-428"/>
</a>
</g>
</g>
<!-- Node3&#45;&gt;Node2 -->
<g id="edge2_Node000002_Node000003" class="edge">
<title>Node3&#45;&gt;Node2</title>
<g id="a_edge2_Node000002_Node000003"><a xlink:title=" ">
<path fill="none" stroke="#63b8ff" d="M61,-428.13C61,-417.2 61,-403.17 61,-388.06"/>
<polygon fill="none" stroke="#63b8ff" points="61,-388.05 57,-382.05 61,-376.05 65,-382.05 61,-388.05"/>
</a>
</g>
<text xml:space="preserve" text-anchor="start" x="64" y="-398.45" font-family="Arial" font-size="9.00" fill="grey">+type</text>
</g>
</g>
</svg>
