<?xml version="1.0" encoding="UTF-8" standalone="no"?>
<!DOCTYPE svg PUBLIC "-//W3C//DTD SVG 1.1//EN"
 "http://www.w3.org/Graphics/SVG/1.1/DTD/svg11.dtd">
<!-- Generated by graphviz version 13.1.0 (20250701.0955)
 -->
<!-- Title: EventGroup.hpp Pages: 1 -->
<svg width="215pt" height="84pt"
 viewBox="0.00 0.00 215.00 84.00" xmlns="http://www.w3.org/2000/svg" xmlns:xlink="http://www.w3.org/1999/xlink">
<g id="graph0" class="graph" transform="scale(1 1) rotate(0) translate(4 80)">
<title>EventGroup.hpp</title>
<!-- Node1 -->
<g id="Node000001" class="node">
<title>Node1</title>
<g id="a_Node000001"><a xlink:title="Event group wrapper for FreeRTOS event groups.">
<polygon fill="#999999" stroke="#666666" points="163.62,-76 77.12,-76 77.12,-56 163.62,-56 163.62,-76"/>
<text xml:space="preserve" text-anchor="middle" x="120.38" y="-62.5" font-family="Helvetica,sans-Serif" font-size="10.00">EventGroup.hpp</text>
</a>
</g>
</g>
<!-- Node2 -->
<g id="Node000002" class="node">
<title>Node2</title>
<g id="a_Node000002"><a xlink:title=" ">
<polygon fill="#e0e0e0" stroke="#999999" points="82.75,-20 0,-20 0,0 82.75,0 82.75,-20"/>
<text xml:space="preserve" text-anchor="middle" x="41.38" y="-6.5" font-family="Helvetica,sans-Serif" font-size="10.00">event_groups.h</text>
</a>
</g>
</g>
<!-- Node1&#45;&gt;Node2 -->
<g id="edge1_Node000001_Node000002" class="edge">
<title>Node1&#45;&gt;Node2</title>
<g id="a_edge1_Node000001_Node000002"><a xlink:title=" ">
<path fill="none" stroke="#63b8ff" d="M106.61,-55.59C95.02,-47.67 78.18,-36.16 64.51,-26.82"/>
<polygon fill="#63b8ff" stroke="#63b8ff" points="66.72,-24.09 56.49,-21.33 62.77,-29.87 66.72,-24.09"/>
</a>
</g>
</g>
<!-- Node3 -->
<g id="Node000003" class="node">
<title>Node3</title>
<g id="a_Node000003"><a xlink:title=" ">
<polygon fill="#e0e0e0" stroke="#999999" points="140.38,-20 100.38,-20 100.38,0 140.38,0 140.38,-20"/>
<text xml:space="preserve" text-anchor="middle" x="120.38" y="-6.5" font-family="Helvetica,sans-Serif" font-size="10.00">bitset</text>
</a>
</g>
</g>
<!-- Node1&#45;&gt;Node3 -->
<g id="edge2_Node000001_Node000003" class="edge">
<title>Node1&#45;&gt;Node3</title>
<g id="a_edge2_Node000001_Node000003"><a xlink:title=" ">
<path fill="none" stroke="#63b8ff" d="M120.38,-55.59C120.38,-49.01 120.38,-39.96 120.38,-31.73"/>
<polygon fill="#63b8ff" stroke="#63b8ff" points="123.88,-31.81 120.38,-21.81 116.88,-31.81 123.88,-31.81"/>
</a>
</g>
</g>
<!-- Node4 -->
<g id="Node000004" class="node">
<title>Node4</title>
<g id="a_Node000004"><a xlink:title=" ">
<polygon fill="#e0e0e0" stroke="#999999" points="206.5,-20 158.25,-20 158.25,0 206.5,0 206.5,-20"/>
<text xml:space="preserve" text-anchor="middle" x="182.38" y="-6.5" font-family="Helvetica,sans-Serif" font-size="10.00">cassert</text>
</a>
</g>
</g>
<!-- Node1&#45;&gt;Node4 -->
<g id="edge3_Node000001_Node000004" class="edge">
<title>Node1&#45;&gt;Node4</title>
<g id="a_edge3_Node000001_Node000004"><a xlink:title=" ">
<path fill="none" stroke="#63b8ff" d="M131.17,-55.59C139.98,-47.93 152.63,-36.91 163.15,-27.75"/>
<polygon fill="#63b8ff" stroke="#63b8ff" points="165.32,-30.5 170.56,-21.29 160.72,-25.22 165.32,-30.5"/>
</a>
</g>
</g>
</g>
</svg>
