<?xml version="1.0" encoding="UTF-8" standalone="no"?>
<!DOCTYPE svg PUBLIC "-//W3C//DTD SVG 1.1//EN"
 "http://www.w3.org/Graphics/SVG/1.1/DTD/svg11.dtd">
<!-- Generated by graphviz version 13.1.0 (20250701.0955)
 -->
<!-- Title: Lib::Xbee::Core::Frame0x8b Pages: 1 -->
<svg width="188pt" height="199pt"
 viewBox="0.00 0.00 188.00 199.00" xmlns="http://www.w3.org/2000/svg" xmlns:xlink="http://www.w3.org/1999/xlink">
<g id="graph0" class="graph" transform="scale(1 1) rotate(0) translate(4 195)">
<title>Lib::Xbee::Core::Frame0x8b</title>
<!-- Node1 -->
<g id="Node000001" class="node">
<title>Node1</title>
<g id="a_Node000001"><a xlink:title="XBee transmit status response frame (0x8B).">
<polygon fill="#999999" stroke="none" points="135.25,-47.5 12.5,-47.5 12.5,0 135.25,0 135.25,-47.5"/>
<text xml:space="preserve" text-anchor="start" x="16.5" y="-34.95" font-family="Arial" font-size="9.00">Lib::Xbee::Core::Frame0x8b</text>
<text xml:space="preserve" text-anchor="start" x="72.75" y="-20.45" font-family="Arial" font-size="9.00"> </text>
<text xml:space="preserve" text-anchor="start" x="29.75" y="-5.95" font-family="Arial" font-size="9.00">+</text>
<text xml:space="preserve" text-anchor="start" x="52.25" y="-5.95" font-family="Arial" font-size="9.00">Frame0x8b()</text>
<polygon fill="#666666" stroke="#666666" points="12.5,-31 12.5,-31 135.25,-31 135.25,-31 12.5,-31"/>
<polygon fill="#666666" stroke="#666666" points="12.5,-16.5 12.5,-16.5 135.25,-16.5 135.25,-16.5 12.5,-16.5"/>
<polygon fill="none" stroke="#666666" points="12.5,0 12.5,-47.5 135.25,-47.5 135.25,0 12.5,0"/>
</a>
</g>
</g>
<!-- Node2 -->
<g id="Node000002" class="node">
<title>Node2</title>
<g id="a_Node000002"><a xlink:title=" ">
<polygon fill="white" stroke="none" points="35.75,-191 0,-191 0,-143.5 35.75,-143.5 35.75,-191"/>
<text xml:space="preserve" text-anchor="start" x="4" y="-178.45" font-family="Arial" font-size="9.00">uint8_t</text>
<text xml:space="preserve" text-anchor="start" x="16.75" y="-163.95" font-family="Arial" font-size="9.00"> </text>
<text xml:space="preserve" text-anchor="start" x="16.75" y="-149.45" font-family="Arial" font-size="9.00"> </text>
<polygon fill="#bfbfbf" stroke="#bfbfbf" points="0,-174.5 0,-174.5 35.75,-174.5 35.75,-174.5 0,-174.5"/>
<polygon fill="#bfbfbf" stroke="#bfbfbf" points="0,-160 0,-160 35.75,-160 35.75,-160 0,-160"/>
<polygon fill="none" stroke="#bfbfbf" points="0,-143.5 0,-191 35.75,-191 35.75,-143.5 0,-143.5"/>
</a>
</g>
</g>
<!-- Node2&#45;&gt;Node1 -->
<g id="edge1_Node000001_Node000002" class="edge">
<title>Node2&#45;&gt;Node1</title>
<g id="a_edge1_Node000001_Node000002"><a xlink:title=" ">
<path fill="none" stroke="#63b8ff" d="M12.61,-143.68C8.85,-122.32 6.4,-89.97 18.88,-65.5 20.46,-62.38 22.42,-59.44 24.63,-56.68"/>
<polygon fill="none" stroke="#63b8ff" points="24.59,-56.72 25.89,-49.63 32.94,-48.11 31.64,-55.2 24.59,-56.72"/>
</a>
</g>
<text xml:space="preserve" text-anchor="start" x="21.88" y="-113.95" font-family="Arial" font-size="9.00" fill="grey">+deliveryStatus</text>
<text xml:space="preserve" text-anchor="start" x="21.88" y="-99.45" font-family="Arial" font-size="9.00" fill="grey">+discoveryStatus</text>
<text xml:space="preserve" text-anchor="start" x="21.88" y="-84.95" font-family="Arial" font-size="9.00" fill="grey">+frameId</text>
<text xml:space="preserve" text-anchor="start" x="21.88" y="-70.45" font-family="Arial" font-size="9.00" fill="grey">+transmitRetryCount</text>
</g>
<!-- Node3 -->
<g id="Node000003" class="node">
<title>Node3</title>
<g id="a_Node000003"><a xlink:title=" ">
<polygon fill="white" stroke="none" points="151.38,-191 110.38,-191 110.38,-143.5 151.38,-143.5 151.38,-191"/>
<text xml:space="preserve" text-anchor="start" x="114.38" y="-178.45" font-family="Arial" font-size="9.00">uint16_t</text>
<text xml:space="preserve" text-anchor="start" x="129.75" y="-163.95" font-family="Arial" font-size="9.00"> </text>
<text xml:space="preserve" text-anchor="start" x="129.75" y="-149.45" font-family="Arial" font-size="9.00"> </text>
<polygon fill="#bfbfbf" stroke="#bfbfbf" points="110.38,-174.5 110.38,-174.5 151.38,-174.5 151.38,-174.5 110.38,-174.5"/>
<polygon fill="#bfbfbf" stroke="#bfbfbf" points="110.38,-160 110.38,-160 151.38,-160 151.38,-160 110.38,-160"/>
<polygon fill="none" stroke="#bfbfbf" points="110.38,-143.5 110.38,-191 151.38,-191 151.38,-143.5 110.38,-143.5"/>
</a>
</g>
</g>
<!-- Node3&#45;&gt;Node1 -->
<g id="edge2_Node000001_Node000003" class="edge">
<title>Node3&#45;&gt;Node1</title>
<g id="a_edge2_Node000001_Node000003"><a xlink:title=" ">
<path fill="none" stroke="#63b8ff" d="M129.13,-143.58C126.78,-122.44 121.33,-90.5 108.88,-65.5 107.59,-62.92 106.11,-60.37 104.49,-57.89"/>
<polygon fill="none" stroke="#63b8ff" points="104.44,-57.82 97.66,-55.38 97.3,-48.17 104.09,-50.62 104.44,-57.82"/>
</a>
</g>
<text xml:space="preserve" text-anchor="start" x="129.37" y="-92.2" font-family="Arial" font-size="9.00" fill="grey">+srcAddr16</text>
</g>
</g>
</svg>
