<?xml version="1.0" encoding="UTF-8" standalone="no"?>
<!DOCTYPE svg PUBLIC "-//W3C//DTD SVG 1.1//EN"
 "http://www.w3.org/Graphics/SVG/1.1/DTD/svg11.dtd">
<!-- Generated by graphviz version 13.1.0 (20250701.0955)
 -->
<!-- Title: RTOS::EventGroup::clearAllBits Pages: 1 -->
<svg width="530pt" height="28pt"
 viewBox="0.00 0.00 530.00 28.00" xmlns="http://www.w3.org/2000/svg" xmlns:xlink="http://www.w3.org/1999/xlink">
<g id="graph0" class="graph" transform="scale(1 1) rotate(0) translate(4 24)">
<title>RTOS::EventGroup::clearAllBits</title>
<!-- Node1 -->
<g id="Node000001" class="node">
<title>Node1</title>
<g id="a_Node000001"><a xlink:title="Clears all event bits.">
<polygon fill="#999999" stroke="#666666" points="156.25,-20 0,-20 0,0 156.25,0 156.25,-20"/>
<text xml:space="preserve" text-anchor="middle" x="78.12" y="-6.5" font-family="Helvetica,sans-Serif" font-size="10.00">RTOS::EventGroup::clearAllBits</text>
</a>
</g>
</g>
<!-- Node2 -->
<g id="Node000002" class="node">
<title>Node2</title>
<g id="a_Node000002"><a xlink:href="../../d9/d7d/a00150.html#a44c825f79126d916f8d7e17d93b416b5" target="_top" xlink:title="Clears event bits from task context.">
<polygon fill="white" stroke="#666666" points="337.25,-20 192.25,-20 192.25,0 337.25,0 337.25,-20"/>
<text xml:space="preserve" text-anchor="middle" x="264.75" y="-6.5" font-family="Helvetica,sans-Serif" font-size="10.00">RTOS::EventGroup::clearBits</text>
</a>
</g>
</g>
<!-- Node1&#45;&gt;Node2 -->
<g id="edge1_Node000001_Node000002" class="edge">
<title>Node1&#45;&gt;Node2</title>
<g id="a_edge1_Node000001_Node000002"><a xlink:title=" ">
<path fill="none" stroke="#63b8ff" d="M156.62,-10C164.44,-10 172.41,-10 180.3,-10"/>
<polygon fill="#63b8ff" stroke="#63b8ff" points="180.24,-13.5 190.24,-10 180.24,-6.5 180.24,-13.5"/>
</a>
</g>
</g>
<!-- Node3 -->
<g id="Node000003" class="node">
<title>Node3</title>
<g id="a_Node000003"><a xlink:href="../../d9/d7d/a00150.html#ae08389e11d83cf7dfc460d5f2fa0dc27" target="_top" xlink:title="Checks if event group is created.">
<polygon fill="white" stroke="#666666" points="522,-20 373.25,-20 373.25,0 522,0 522,-20"/>
<text xml:space="preserve" text-anchor="middle" x="447.62" y="-6.5" font-family="Helvetica,sans-Serif" font-size="10.00">RTOS::EventGroup::isCreated</text>
</a>
</g>
</g>
<!-- Node2&#45;&gt;Node3 -->
<g id="edge2_Node000002_Node000003" class="edge">
<title>Node2&#45;&gt;Node3</title>
<g id="a_edge2_Node000002_Node000003"><a xlink:title=" ">
<path fill="none" stroke="#63b8ff" d="M337.5,-10C345.41,-10 353.52,-10 361.57,-10"/>
<polygon fill="#63b8ff" stroke="#63b8ff" points="361.38,-13.5 371.38,-10 361.38,-6.5 361.38,-13.5"/>
</a>
</g>
</g>
</g>
</svg>
