<?xml version="1.0" encoding="UTF-8" standalone="no"?>
<!DOCTYPE svg PUBLIC "-//W3C//DTD SVG 1.1//EN"
 "http://www.w3.org/Graphics/SVG/1.1/DTD/svg11.dtd">
<!-- Generated by graphviz version 13.1.0 (20250701.0955)
 -->
<!-- Title: RTOS::EventGroup::syncBitsMs Pages: 1 -->
<svg width="532pt" height="78pt"
 viewBox="0.00 0.00 532.00 78.00" xmlns="http://www.w3.org/2000/svg" xmlns:xlink="http://www.w3.org/1999/xlink">
<g id="graph0" class="graph" transform="scale(1 1) rotate(0) translate(4 74)">
<title>RTOS::EventGroup::syncBitsMs</title>
<!-- Node1 -->
<g id="Node000001" class="node">
<title>Node1</title>
<g id="a_Node000001"><a xlink:title="Synchronizes event bits with millisecond timeout.">
<polygon fill="#999999" stroke="#666666" points="158.5,-42 0,-42 0,-22 158.5,-22 158.5,-42"/>
<text xml:space="preserve" text-anchor="middle" x="79.25" y="-28.5" font-family="Helvetica,sans-Serif" font-size="10.00">RTOS::EventGroup::syncBitsMs</text>
</a>
</g>
</g>
<!-- Node2 -->
<g id="Node000002" class="node">
<title>Node2</title>
<g id="a_Node000002"><a xlink:href="../../d0/d24/a00222.html#ac0cef5f74597d9fd2e71b9eed937365d" target="_top" xlink:title="Converts milliseconds to equivalent FreeRTOS tick count.">
<polygon fill="white" stroke="#666666" points="321.12,-70 212.88,-70 212.88,-38 321.12,-38 321.12,-70"/>
<text xml:space="preserve" text-anchor="start" x="220.88" y="-56.5" font-family="Helvetica,sans-Serif" font-size="10.00">RTOS::TickCounter::</text>
<text xml:space="preserve" text-anchor="middle" x="267" y="-44.5" font-family="Helvetica,sans-Serif" font-size="10.00">msToTicks</text>
</a>
</g>
</g>
<!-- Node1&#45;&gt;Node2 -->
<g id="edge1_Node000001_Node000002" class="edge">
<title>Node1&#45;&gt;Node2</title>
<g id="a_edge1_Node000001_Node000002"><a xlink:title=" ">
<path fill="none" stroke="#63b8ff" d="M158.76,-41.3C172.91,-42.97 187.52,-44.71 201.23,-46.33"/>
<polygon fill="#63b8ff" stroke="#63b8ff" points="200.66,-49.79 211.01,-47.49 201.49,-42.83 200.66,-49.79"/>
</a>
</g>
</g>
<!-- Node3 -->
<g id="Node000003" class="node">
<title>Node3</title>
<g id="a_Node000003"><a xlink:href="../../d9/d7d/a00150.html#adfec7dfbd63b1807a0c6f85a5fa282dc" target="_top" xlink:title="Synchronizes event bits with enhanced parameters.">
<polygon fill="white" stroke="#666666" points="339.5,-20 194.5,-20 194.5,0 339.5,0 339.5,-20"/>
<text xml:space="preserve" text-anchor="middle" x="267" y="-6.5" font-family="Helvetica,sans-Serif" font-size="10.00">RTOS::EventGroup::syncBits</text>
</a>
</g>
</g>
<!-- Node1&#45;&gt;Node3 -->
<g id="edge2_Node000001_Node000003" class="edge">
<title>Node1&#45;&gt;Node3</title>
<g id="a_edge2_Node000001_Node000003"><a xlink:title=" ">
<path fill="none" stroke="#63b8ff" d="M158.76,-22.7C166.76,-21.75 174.92,-20.79 182.97,-19.83"/>
<polygon fill="#63b8ff" stroke="#63b8ff" points="183.25,-23.33 192.77,-18.67 182.42,-16.37 183.25,-23.33"/>
</a>
</g>
</g>
<!-- Node4 -->
<g id="Node000004" class="node">
<title>Node4</title>
<g id="a_Node000004"><a xlink:href="../../d9/d7d/a00150.html#ae08389e11d83cf7dfc460d5f2fa0dc27" target="_top" xlink:title="Checks if event group is created.">
<polygon fill="white" stroke="#666666" points="524.25,-20 375.5,-20 375.5,0 524.25,0 524.25,-20"/>
<text xml:space="preserve" text-anchor="middle" x="449.88" y="-6.5" font-family="Helvetica,sans-Serif" font-size="10.00">RTOS::EventGroup::isCreated</text>
</a>
</g>
</g>
<!-- Node3&#45;&gt;Node4 -->
<g id="edge3_Node000003_Node000004" class="edge">
<title>Node3&#45;&gt;Node4</title>
<g id="a_edge3_Node000003_Node000004"><a xlink:title=" ">
<path fill="none" stroke="#63b8ff" d="M339.75,-10C347.66,-10 355.77,-10 363.82,-10"/>
<polygon fill="#63b8ff" stroke="#63b8ff" points="363.63,-13.5 373.63,-10 363.63,-6.5 363.63,-13.5"/>
</a>
</g>
</g>
</g>
</svg>
