<?xml version="1.0" encoding="UTF-8" standalone="no"?>
<!DOCTYPE svg PUBLIC "-//W3C//DTD SVG 1.1//EN"
 "http://www.w3.org/Graphics/SVG/1.1/DTD/svg11.dtd">
<!-- Generated by graphviz version 13.1.0 (20250701.0955)
 -->
<!-- Title: RTOS::EventGroup::tryWaitForBits Pages: 1 -->
<svg width="523pt" height="40pt"
 viewBox="0.00 0.00 523.00 40.00" xmlns="http://www.w3.org/2000/svg" xmlns:xlink="http://www.w3.org/1999/xlink">
<g id="graph0" class="graph" transform="scale(1 1) rotate(0) translate(4 36)">
<title>RTOS::EventGroup::tryWaitForBits</title>
<!-- Node1 -->
<g id="Node000001" class="node">
<title>Node1</title>
<g id="a_Node000001"><a xlink:title="Waits for any of the specified bits to be set without timeout.">
<polygon fill="#999999" stroke="#666666" points="137.5,-32 0,-32 0,0 137.5,0 137.5,-32"/>
<text xml:space="preserve" text-anchor="start" x="8" y="-18.5" font-family="Helvetica,sans-Serif" font-size="10.00">RTOS::EventGroup::tryWait</text>
<text xml:space="preserve" text-anchor="middle" x="68.75" y="-6.5" font-family="Helvetica,sans-Serif" font-size="10.00">ForBits</text>
</a>
</g>
</g>
<!-- Node2 -->
<g id="Node000002" class="node">
<title>Node2</title>
<g id="a_Node000002"><a xlink:href="../../d9/d7d/a00150.html#abe719eb3f4de95c0900fbe0e06b7f118" target="_top" xlink:title="Waits for specified event bits with enhanced parameters.">
<polygon fill="white" stroke="#666666" points="329.75,-26 173.5,-26 173.5,-6 329.75,-6 329.75,-26"/>
<text xml:space="preserve" text-anchor="middle" x="251.62" y="-12.5" font-family="Helvetica,sans-Serif" font-size="10.00">RTOS::EventGroup::waitForBits</text>
</a>
</g>
</g>
<!-- Node1&#45;&gt;Node2 -->
<g id="edge1_Node000001_Node000002" class="edge">
<title>Node1&#45;&gt;Node2</title>
<g id="a_edge1_Node000001_Node000002"><a xlink:title=" ">
<path fill="none" stroke="#63b8ff" d="M137.87,-16C145.7,-16 153.77,-16 161.81,-16"/>
<polygon fill="#63b8ff" stroke="#63b8ff" points="161.64,-19.5 171.64,-16 161.64,-12.5 161.64,-19.5"/>
</a>
</g>
</g>
<!-- Node3 -->
<g id="Node000003" class="node">
<title>Node3</title>
<g id="a_Node000003"><a xlink:href="../../d9/d7d/a00150.html#ae08389e11d83cf7dfc460d5f2fa0dc27" target="_top" xlink:title="Checks if event group is created.">
<polygon fill="white" stroke="#666666" points="514.5,-26 365.75,-26 365.75,-6 514.5,-6 514.5,-26"/>
<text xml:space="preserve" text-anchor="middle" x="440.12" y="-12.5" font-family="Helvetica,sans-Serif" font-size="10.00">RTOS::EventGroup::isCreated</text>
</a>
</g>
</g>
<!-- Node2&#45;&gt;Node3 -->
<g id="edge2_Node000002_Node000003" class="edge">
<title>Node2&#45;&gt;Node3</title>
<g id="a_edge2_Node000002_Node000003"><a xlink:title=" ">
<path fill="none" stroke="#63b8ff" d="M330.1,-16C338.06,-16 346.17,-16 354.21,-16"/>
<polygon fill="#63b8ff" stroke="#63b8ff" points="353.97,-19.5 363.97,-16 353.97,-12.5 353.97,-19.5"/>
</a>
</g>
</g>
</g>
</svg>
