<?xml version="1.0" encoding="UTF-8" standalone="no"?>
<!DOCTYPE svg PUBLIC "-//W3C//DTD SVG 1.1//EN"
 "http://www.w3.org/Graphics/SVG/1.1/DTD/svg11.dtd">
<!-- Generated by graphviz version 10.0.1 (20240210.2158)
 -->
<!-- Title: Lib::Xbee::Core::DigiApiFrameBuffer::getData Pages: 1 -->
<svg width="617pt" height="178pt"
 viewBox="0.00 0.00 617.25 178.00" xmlns="http://www.w3.org/2000/svg" xmlns:xlink="http://www.w3.org/1999/xlink">
<g id="graph0" class="graph" transform="scale(1 1) rotate(0) translate(4 174)">
<title>Lib::Xbee::Core::DigiApiFrameBuffer::getData</title>
<!-- Node1 -->
<g id="Node000001" class="node">
<title>Node1</title>
<g id="a_Node000001"><a xlink:title="Gets the data buffer.">
<polygon fill="#999999" stroke="#666666" points="609.25,-98 490.5,-98 490.5,-66 609.25,-66 609.25,-98"/>
<text text-anchor="start" x="498.5" y="-84.5" font-family="Helvetica,sans-Serif" font-size="10.00">Lib::Xbee::Core::DigiApi</text>
<text text-anchor="middle" x="549.88" y="-72.5" font-family="Helvetica,sans-Serif" font-size="10.00">FrameBuffer::getData</text>
</a>
</g>
</g>
<!-- Node2 -->
<g id="Node000002" class="node">
<title>Node2</title>
<g id="a_Node000002"><a xlink:href="../../d6/db8/a00376.html#aa27f9e2553dca2bf31b5f863c3123e91" target="_top" xlink:title="Constructs a Checksum object and calculates the checksum for the given DigiApiFrameBuffer.">
<polygon fill="white" stroke="#666666" points="454.5,-170 320,-170 320,-138 454.5,-138 454.5,-170"/>
<text text-anchor="start" x="328" y="-156.5" font-family="Helvetica,sans-Serif" font-size="10.00">Lib::Xbee::Core::Checksum</text>
<text text-anchor="middle" x="387.25" y="-144.5" font-family="Helvetica,sans-Serif" font-size="10.00">::Checksum</text>
</a>
</g>
</g>
<!-- Node1&#45;&gt;Node2 -->
<g id="edge1_Node000001_Node000002" class="edge">
<title>Node1&#45;&gt;Node2</title>
<g id="a_edge1_Node000001_Node000002"><a xlink:title=" ">
<path fill="none" stroke="#63b8ff" d="M507.96,-103.51C491.52,-111.85 472.28,-121.24 454.5,-129 447.85,-131.9 440.75,-134.79 433.76,-137.52"/>
<polygon fill="#63b8ff" stroke="#63b8ff" points="509.14,-106.83 516.45,-99.16 505.95,-100.6 509.14,-106.83"/>
</a>
</g>
</g>
<!-- Node3 -->
<g id="Node000003" class="node">
<title>Node3</title>
<g id="a_Node000003"><a xlink:href="../../d3/dea/a00444.html#a4b619cc34a94dcdca9a1c97e75c83045" target="_top" xlink:title="Validates a Digi API frame.">
<polygon fill="white" stroke="#666666" points="449.25,-120 325.25,-120 325.25,-88 449.25,-88 449.25,-120"/>
<text text-anchor="start" x="333.25" y="-106.5" font-family="Helvetica,sans-Serif" font-size="10.00">Lib::Xbee::Core::Protocol</text>
<text text-anchor="middle" x="387.25" y="-94.5" font-family="Helvetica,sans-Serif" font-size="10.00">::isValid</text>
</a>
</g>
</g>
<!-- Node1&#45;&gt;Node3 -->
<g id="edge2_Node000001_Node000003" class="edge">
<title>Node1&#45;&gt;Node3</title>
<g id="a_edge2_Node000001_Node000003"><a xlink:title=" ">
<path fill="none" stroke="#63b8ff" d="M479.06,-91.56C469.26,-92.9 459.25,-94.28 449.62,-95.59"/>
<polygon fill="#63b8ff" stroke="#63b8ff" points="479.5,-95.03 488.93,-90.21 478.55,-88.1 479.5,-95.03"/>
</a>
</g>
</g>
<!-- Node4 -->
<g id="Node000004" class="node">
<title>Node4</title>
<g id="a_Node000004"><a xlink:href="../../d3/dea/a00444.html#a3d61ecbff974d958bd340d92b598f0c5" target="_top" xlink:title="Parses a Digi API frame into frame data.">
<polygon fill="white" stroke="#666666" points="284,-101 160,-101 160,-69 284,-69 284,-101"/>
<text text-anchor="start" x="168" y="-87.5" font-family="Helvetica,sans-Serif" font-size="10.00">Lib::Xbee::Core::Protocol</text>
<text text-anchor="middle" x="222" y="-75.5" font-family="Helvetica,sans-Serif" font-size="10.00">::parse</text>
</a>
</g>
</g>
<!-- Node1&#45;&gt;Node4 -->
<g id="edge5_Node000001_Node000004" class="edge">
<title>Node1&#45;&gt;Node4</title>
<g id="a_edge5_Node000001_Node000004"><a xlink:title=" ">
<path fill="none" stroke="#63b8ff" d="M478.75,-79.52C470.57,-79.31 462.35,-79.12 454.5,-79 394.73,-78.05 379.75,-77.15 320,-79 308.45,-79.36 296.13,-79.95 284.29,-80.63"/>
<polygon fill="#63b8ff" stroke="#63b8ff" points="478.62,-83.02 488.72,-79.8 478.82,-76.02 478.62,-83.02"/>
</a>
</g>
</g>
<!-- Node6 -->
<g id="Node000006" class="node">
<title>Node6</title>
<g id="a_Node000006"><a xlink:href="../../d8/ddd/a00380.html#a69b6c41e48ae2bd6ea04831f60d63d6e" target="_top" xlink:title="Sends the given frame buffer.">
<polygon fill="white" stroke="#666666" points="453.38,-32 321.12,-32 321.12,0 453.38,0 453.38,-32"/>
<text text-anchor="start" x="329.12" y="-18.5" font-family="Helvetica,sans-Serif" font-size="10.00">Lib::Xbee::Core::ComDriver</text>
<text text-anchor="middle" x="387.25" y="-6.5" font-family="Helvetica,sans-Serif" font-size="10.00">::send</text>
</a>
</g>
</g>
<!-- Node1&#45;&gt;Node6 -->
<g id="edge6_Node000001_Node000006" class="edge">
<title>Node1&#45;&gt;Node6</title>
<g id="a_edge6_Node000001_Node000006"><a xlink:title=" ">
<path fill="none" stroke="#63b8ff" d="M498.31,-61.22C475.67,-51.92 449.36,-41.11 428.13,-32.39"/>
<polygon fill="#63b8ff" stroke="#63b8ff" points="496.78,-64.38 507.36,-64.94 499.44,-57.9 496.78,-64.38"/>
</a>
</g>
</g>
<!-- Node3&#45;&gt;Node4 -->
<g id="edge3_Node000003_Node000004" class="edge">
<title>Node3&#45;&gt;Node4</title>
<g id="a_edge3_Node000003_Node000004"><a xlink:title=" ">
<path fill="none" stroke="#63b8ff" d="M313.63,-95.55C303.84,-94.41 293.89,-93.25 284.32,-92.14"/>
<polygon fill="#63b8ff" stroke="#63b8ff" points="313.16,-99.02 323.49,-96.7 313.97,-92.06 313.16,-99.02"/>
</a>
</g>
</g>
<!-- Node5 -->
<g id="Node000005" class="node">
<title>Node5</title>
<g id="a_Node000005"><a xlink:href="../../d3/dea/a00444.html#ae67022a7d24ff87412c540118507ddef" target="_top" xlink:title="Processes a Digi API frame message.">
<polygon fill="white" stroke="#666666" points="124,-101 0,-101 0,-69 124,-69 124,-101"/>
<text text-anchor="start" x="8" y="-87.5" font-family="Helvetica,sans-Serif" font-size="10.00">Lib::Xbee::Core::Protocol</text>
<text text-anchor="middle" x="62" y="-75.5" font-family="Helvetica,sans-Serif" font-size="10.00">::processMessage</text>
</a>
</g>
</g>
<!-- Node4&#45;&gt;Node5 -->
<g id="edge4_Node000004_Node000005" class="edge">
<title>Node4&#45;&gt;Node5</title>
<g id="a_edge4_Node000004_Node000005"><a xlink:title=" ">
<path fill="none" stroke="#63b8ff" d="M148.6,-85C140.53,-85 132.36,-85 124.45,-85"/>
<polygon fill="#63b8ff" stroke="#63b8ff" points="148.4,-88.5 158.4,-85 148.4,-81.5 148.4,-88.5"/>
</a>
</g>
</g>
<!-- Node7 -->
<g id="Node000007" class="node">
<title>Node7</title>
<g id="a_Node000007"><a xlink:href="../../de/df8/a00440.html#a9815b172e850e3d6c009ed9f6f9b2c25" target="_top" xlink:title="Sends the given query.">
<polygon fill="white" stroke="#666666" points="281.75,-32 162.25,-32 162.25,0 281.75,0 281.75,-32"/>
<text text-anchor="start" x="170.25" y="-18.5" font-family="Helvetica,sans-Serif" font-size="10.00">Lib::Xbee::Core::Module</text>
<text text-anchor="middle" x="222" y="-6.5" font-family="Helvetica,sans-Serif" font-size="10.00">::send</text>
</a>
</g>
</g>
<!-- Node6&#45;&gt;Node7 -->
<g id="edge7_Node000006_Node000007" class="edge">
<title>Node6&#45;&gt;Node7</title>
<g id="a_edge7_Node000006_Node000007"><a xlink:title=" ">
<path fill="none" stroke="#63b8ff" d="M309.3,-16C300.17,-16 290.97,-16 282.14,-16"/>
<polygon fill="#63b8ff" stroke="#63b8ff" points="309.28,-19.5 319.28,-16 309.28,-12.5 309.28,-19.5"/>
</a>
</g>
</g>
</g>
</svg>
