<?xml version="1.0" encoding="UTF-8" standalone="no"?>
<!DOCTYPE svg PUBLIC "-//W3C//DTD SVG 1.1//EN"
 "http://www.w3.org/Graphics/SVG/1.1/DTD/svg11.dtd">
<!-- Generated by graphviz version 12.2.1 (20241206.2353)
 -->
<!-- Title: App::RemoteIO9600 Pages: 1 -->
<svg width="110pt" height="332pt"
 viewBox="0.00 0.00 109.75 332.00" xmlns="http://www.w3.org/2000/svg" xmlns:xlink="http://www.w3.org/1999/xlink">
<g id="graph0" class="graph" transform="scale(1 1) rotate(0) translate(4 328)">
<title>App::RemoteIO9600</title>
<!-- Node1 -->
<g id="Node000001" class="node">
<title>Node1</title>
<g id="a_Node000001"><a xlink:title="The RemoteIO9600 class is responsible for managing the communication with the remote I/O base at a ba...">
<polygon fill="#999999" stroke="none" points="99.5,-52 2.25,-52 2.25,0 99.5,0 99.5,-52"/>
<text text-anchor="start" x="6.25" y="-38.5" font-family="Arial" font-size="10.00">App::RemoteIO9600</text>
<text text-anchor="start" x="49.38" y="-22.5" font-family="Arial" font-size="10.00"> </text>
<text text-anchor="start" x="8.06" y="-6.5" font-family="Arial" font-size="10.00">+</text>
<text text-anchor="start" x="19.88" y="-6.5" font-family="Arial" font-size="10.00">RemoteIO9600()</text>
<polygon fill="#666666" stroke="#666666" points="2.25,-34 2.25,-34 99.5,-34 99.5,-34 2.25,-34"/>
<polygon fill="#666666" stroke="#666666" points="2.25,-18 2.25,-18 99.5,-18 99.5,-18 2.25,-18"/>
<polygon fill="none" stroke="#666666" points="2.25,0 2.25,-52 99.5,-52 99.5,0 2.25,0"/>
</a>
</g>
</g>
<!-- Node2 -->
<g id="Node000002" class="node">
<title>Node2</title>
<g id="a_Node000002"><a xlink:href="../../d3/d1a/a00251.html" target="_top" xlink:title="The RemoteIO class is responsible for managing remote I/O operations.">
<polygon fill="white" stroke="none" points="96.25,-188 5.5,-188 5.5,-88 96.25,-88 96.25,-188"/>
<text text-anchor="start" x="16.75" y="-174.5" font-family="Arial" font-size="10.00">App::RemoteIO</text>
<text text-anchor="start" x="49.38" y="-158.5" font-family="Arial" font-size="10.00"> </text>
<text text-anchor="start" x="9.5" y="-142.5" font-family="Arial" font-size="10.00">+</text>
<text text-anchor="start" x="19.5" y="-142.5" font-family="Arial" font-size="10.00">RemoteIO()</text>
<text text-anchor="start" x="9.5" y="-126.5" font-family="Arial" font-size="10.00">+</text>
<text text-anchor="start" x="19.5" y="-126.5" font-family="Arial" font-size="10.00">~RemoteIO()</text>
<text text-anchor="start" x="9.5" y="-110.5" font-family="Arial" font-size="10.00">+</text>
<text text-anchor="start" x="19.5" y="-110.5" font-family="Arial" font-size="10.00">getName()</text>
<text text-anchor="start" x="9.5" y="-94.5" font-family="Arial" font-size="10.00">+</text>
<text text-anchor="start" x="19.5" y="-94.5" font-family="Arial" font-size="10.00">getWorkScreen()</text>
<polygon fill="#666666" stroke="#666666" points="5.5,-170 5.5,-170 96.25,-170 96.25,-170 5.5,-170"/>
<polygon fill="#666666" stroke="#666666" points="5.5,-154 5.5,-154 96.25,-154 96.25,-154 5.5,-154"/>
<polygon fill="none" stroke="#666666" points="5.5,-88 5.5,-188 96.25,-188 96.25,-88 5.5,-88"/>
</a>
</g>
</g>
<!-- Node2&#45;&gt;Node1 -->
<g id="edge1_Node000001_Node000002" class="edge">
<title>Node2&#45;&gt;Node1</title>
<g id="a_edge1_Node000001_Node000002"><a xlink:title=" ">
<path fill="none" stroke="#63b8ff" d="M50.88,-76.63C50.88,-67.93 50.88,-59.4 50.88,-51.94"/>
<polygon fill="none" stroke="#63b8ff" points="47.38,-76.6 50.88,-86.6 54.38,-76.6 47.38,-76.6"/>
</a>
</g>
</g>
<!-- Node3 -->
<g id="Node000003" class="node">
<title>Node3</title>
<g id="a_Node000003"><a xlink:href="../../d0/d27/a00239.html" target="_top" xlink:title="Base class for application components.">
<polygon fill="white" stroke="none" points="101.75,-324 0,-324 0,-224 101.75,-224 101.75,-324"/>
<text text-anchor="start" x="4" y="-310.5" font-family="Arial" font-size="10.00">App::ApplicationBase</text>
<text text-anchor="start" x="49.38" y="-294.5" font-family="Arial" font-size="10.00"> </text>
<text text-anchor="start" x="4.5" y="-278.5" font-family="Arial" font-size="10.00">#</text>
<text text-anchor="start" x="14.25" y="-278.5" font-family="Arial" font-size="10.00">ApplicationBase()</text>
<text text-anchor="start" x="4.5" y="-262.5" font-family="Arial" font-size="10.00">#</text>
<text text-anchor="start" x="14.25" y="-262.5" font-family="Arial" font-size="10.00">~ApplicationBase()</text>
<text text-anchor="start" x="4.5" y="-246.5" font-family="Arial" font-size="10.00">#</text>
<text text-anchor="start" x="14.25" y="-246.5" font-family="Arial" font-size="10.00">getName()</text>
<text text-anchor="start" x="4.5" y="-230.5" font-family="Arial" font-size="10.00">#</text>
<text text-anchor="start" x="14.25" y="-230.5" font-family="Arial" font-size="10.00">getWorkScreen()</text>
<polygon fill="#666666" stroke="#666666" points="0,-306 0,-306 101.75,-306 101.75,-306 0,-306"/>
<polygon fill="#666666" stroke="#666666" points="0,-290 0,-290 101.75,-290 101.75,-290 0,-290"/>
<polygon fill="none" stroke="#666666" points="0,-224 0,-324 101.75,-324 101.75,-224 0,-224"/>
</a>
</g>
</g>
<!-- Node3&#45;&gt;Node2 -->
<g id="edge2_Node000002_Node000003" class="edge">
<title>Node3&#45;&gt;Node2</title>
<g id="a_edge2_Node000002_Node000003"><a xlink:title=" ">
<path fill="none" stroke="#63b8ff" d="M50.88,-212.97C50.88,-204.6 50.88,-196.08 50.88,-187.94"/>
<polygon fill="none" stroke="#63b8ff" points="47.38,-212.73 50.88,-222.73 54.38,-212.73 47.38,-212.73"/>
</a>
</g>
</g>
</g>
</svg>
