<?xml version="1.0" encoding="UTF-8" standalone="no"?>
<!DOCTYPE svg PUBLIC "-//W3C//DTD SVG 1.1//EN"
 "http://www.w3.org/Graphics/SVG/1.1/DTD/svg11.dtd">
<!-- Generated by graphviz version 13.1.0 (20250701.0955)
 -->
<!-- Title: RTOS::Kernel::delayMs Pages: 1 -->
<svg width="308pt" height="66pt"
 viewBox="0.00 0.00 308.00 66.00" xmlns="http://www.w3.org/2000/svg" xmlns:xlink="http://www.w3.org/1999/xlink">
<g id="graph0" class="graph" transform="scale(1 1) rotate(0) translate(4 62)">
<title>RTOS::Kernel::delayMs</title>
<!-- Node1 -->
<g id="Node000001" class="node">
<title>Node1</title>
<g id="a_Node000001"><a xlink:title="Delays the current task for a number of milliseconds.">
<polygon fill="#999999" stroke="#666666" points="299.75,-39 180.25,-39 180.25,-19 299.75,-19 299.75,-39"/>
<text xml:space="preserve" text-anchor="middle" x="240" y="-25.5" font-family="Helvetica,sans-Serif" font-size="10.00">RTOS::Kernel::delayMs</text>
</a>
</g>
</g>
<!-- Node2 -->
<g id="Node000002" class="node">
<title>Node2</title>
<g id="a_Node000002"><a xlink:href="../../da/dec/a00080.html#adc2c0e0e2347eb4c99e3fd264571b10d" target="_top" xlink:title="Delay for a specified number of milliseconds.">
<polygon fill="white" stroke="#666666" points="108.25,-58 36,-58 36,-38 108.25,-38 108.25,-58"/>
<text xml:space="preserve" text-anchor="middle" x="72.12" y="-44.5" font-family="Helvetica,sans-Serif" font-size="10.00">RTOS::delay</text>
</a>
</g>
</g>
<!-- Node1&#45;&gt;Node2 -->
<g id="edge1_Node000001_Node000002" class="edge">
<title>Node1&#45;&gt;Node2</title>
<g id="a_edge1_Node000001_Node000002"><a xlink:title=" ">
<path fill="none" stroke="#63b8ff" d="M168.7,-37.05C148,-39.42 126.24,-41.92 108.71,-43.92"/>
<polygon fill="#63b8ff" stroke="#63b8ff" points="169.01,-40.54 178.55,-35.92 168.21,-33.59 169.01,-40.54"/>
</a>
</g>
</g>
<!-- Node3 -->
<g id="Node000003" class="node">
<title>Node3</title>
<g id="a_Node000003"><a xlink:href="../../da/ddb/a00145.html#ad32b44fbe11fac096529316e35f6f1b5" target="_top" xlink:title="Delays the current task for a number of seconds.">
<polygon fill="white" stroke="#666666" points="144.25,-20 0,-20 0,0 144.25,0 144.25,-20"/>
<text xml:space="preserve" text-anchor="middle" x="72.12" y="-6.5" font-family="Helvetica,sans-Serif" font-size="10.00">RTOS::Kernel::delaySeconds</text>
</a>
</g>
</g>
<!-- Node1&#45;&gt;Node3 -->
<g id="edge2_Node000001_Node000003" class="edge">
<title>Node1&#45;&gt;Node3</title>
<g id="a_edge2_Node000001_Node000003"><a xlink:title=" ">
<path fill="none" stroke="#63b8ff" d="M168.87,-20.97C160.86,-20.05 152.69,-19.11 144.67,-18.19"/>
<polygon fill="#63b8ff" stroke="#63b8ff" points="168.21,-24.41 178.55,-22.08 169.01,-17.46 168.21,-24.41"/>
</a>
</g>
</g>
</g>
</svg>
