<?xml version="1.0" encoding="UTF-8" standalone="no"?>
<!DOCTYPE svg PUBLIC "-//W3C//DTD SVG 1.1//EN"
 "http://www.w3.org/Graphics/SVG/1.1/DTD/svg11.dtd">
<!-- Generated by graphviz version 13.1.0 (20250701.0955)
 -->
<!-- Title: RTOS::Mutex::destroy Pages: 1 -->
<svg width="436pt" height="40pt"
 viewBox="0.00 0.00 436.00 40.00" xmlns="http://www.w3.org/2000/svg" xmlns:xlink="http://www.w3.org/1999/xlink">
<g id="graph0" class="graph" transform="scale(1 1) rotate(0) translate(4 36)">
<title>RTOS::Mutex::destroy</title>
<!-- Node1 -->
<g id="Node000001" class="node">
<title>Node1</title>
<g id="a_Node000001"><a xlink:title="Destroys the Mutex.">
<polygon fill="#999999" stroke="#666666" points="114.25,-26 0,-26 0,-6 114.25,-6 114.25,-26"/>
<text xml:space="preserve" text-anchor="middle" x="57.12" y="-12.5" font-family="Helvetica,sans-Serif" font-size="10.00">RTOS::Mutex::destroy</text>
</a>
</g>
</g>
<!-- Node2 -->
<g id="Node000002" class="node">
<title>Node2</title>
<g id="a_Node000002"><a xlink:href="../../d0/d48/a00165.html#a0e02fdce947578b5cf0b93548c82fe28" target="_top" xlink:title="Destroys the semaphore if created.">
<polygon fill="white" stroke="#666666" points="271.25,-32 150.25,-32 150.25,0 271.25,0 271.25,-32"/>
<text xml:space="preserve" text-anchor="start" x="158.25" y="-18.5" font-family="Helvetica,sans-Serif" font-size="10.00">RTOS::SemaphoreBase</text>
<text xml:space="preserve" text-anchor="middle" x="210.75" y="-6.5" font-family="Helvetica,sans-Serif" font-size="10.00">::destroy</text>
</a>
</g>
</g>
<!-- Node1&#45;&gt;Node2 -->
<g id="edge1_Node000001_Node000002" class="edge">
<title>Node1&#45;&gt;Node2</title>
<g id="a_edge1_Node000001_Node000002"><a xlink:title=" ">
<path fill="none" stroke="#63b8ff" d="M114.58,-16C122.42,-16 130.56,-16 138.63,-16"/>
<polygon fill="#63b8ff" stroke="#63b8ff" points="138.43,-19.5 148.43,-16 138.43,-12.5 138.43,-19.5"/>
</a>
</g>
</g>
<!-- Node3 -->
<g id="Node000003" class="node">
<title>Node3</title>
<g id="a_Node000003"><a xlink:href="../../d0/d48/a00165.html#a01db2bc6a677e5c062f9b9d3c14d8599" target="_top" xlink:title="Checks if the semaphore is created.">
<polygon fill="white" stroke="#666666" points="428.25,-32 307.25,-32 307.25,0 428.25,0 428.25,-32"/>
<text xml:space="preserve" text-anchor="start" x="315.25" y="-18.5" font-family="Helvetica,sans-Serif" font-size="10.00">RTOS::SemaphoreBase</text>
<text xml:space="preserve" text-anchor="middle" x="367.75" y="-6.5" font-family="Helvetica,sans-Serif" font-size="10.00">::isCreated</text>
</a>
</g>
</g>
<!-- Node2&#45;&gt;Node3 -->
<g id="edge2_Node000002_Node000003" class="edge">
<title>Node2&#45;&gt;Node3</title>
<g id="a_edge2_Node000002_Node000003"><a xlink:title=" ">
<path fill="none" stroke="#63b8ff" d="M271.68,-16C279.55,-16 287.68,-16 295.72,-16"/>
<polygon fill="#63b8ff" stroke="#63b8ff" points="295.47,-19.5 305.47,-16 295.47,-12.5 295.47,-19.5"/>
</a>
</g>
</g>
</g>
</svg>
