<?xml version="1.0" encoding="UTF-8" standalone="no"?>
<!DOCTYPE svg PUBLIC "-//W3C//DTD SVG 1.1//EN"
 "http://www.w3.org/Graphics/SVG/1.1/DTD/svg11.dtd">
<!-- Generated by graphviz version 12.2.1 (20241206.2353)
 -->
<!-- Title: Lib::HAL::DeviceManagerBase&lt; T_DEVICE, T_HANDLE &gt; Pages: 1 -->
<svg width="151pt" height="136pt"
 viewBox="0.00 0.00 151.00 136.00" xmlns="http://www.w3.org/2000/svg" xmlns:xlink="http://www.w3.org/1999/xlink">
<g id="graph0" class="graph" transform="scale(1 1) rotate(0) translate(4 132)">
<title>Lib::HAL::DeviceManagerBase&lt; T_DEVICE, T_HANDLE &gt;</title>
<!-- Node1 -->
<g id="Node000001" class="node">
<title>Node1</title>
<g id="a_Node000001"><a xlink:title="Base class for managing devices.">
<polygon fill="#999999" stroke="none" points="143,-128 0,-128 0,0 143,0 143,-128"/>
<text text-anchor="start" x="4" y="-114.5" font-family="Helvetica,sans-Serif" font-size="10.00">Lib::HAL::DeviceManagerBase</text>
<text text-anchor="start" x="9.25" y="-102.5" font-family="Helvetica,sans-Serif" font-size="10.00">&lt; T_DEVICE, T_HANDLE &gt;</text>
<text text-anchor="start" x="11.06" y="-86.5" font-family="Helvetica,sans-Serif" font-size="10.00">&#45;</text>
<text text-anchor="start" x="25.12" y="-86.5" font-family="Helvetica,sans-Serif" font-size="10.00">_devicesMap</text>
<text text-anchor="start" x="9.56" y="-70.5" font-family="Helvetica,sans-Serif" font-size="10.00">+</text>
<text text-anchor="start" x="25.12" y="-70.5" font-family="Helvetica,sans-Serif" font-size="10.00">DeviceManagerBase()</text>
<text text-anchor="start" x="9.56" y="-54.5" font-family="Helvetica,sans-Serif" font-size="10.00">+</text>
<text text-anchor="start" x="25.12" y="-54.5" font-family="Helvetica,sans-Serif" font-size="10.00">~DeviceManagerBase()</text>
<text text-anchor="start" x="9.56" y="-38.5" font-family="Helvetica,sans-Serif" font-size="10.00">+</text>
<text text-anchor="start" x="25.12" y="-38.5" font-family="Helvetica,sans-Serif" font-size="10.00">addDevice()</text>
<text text-anchor="start" x="9.56" y="-22.5" font-family="Helvetica,sans-Serif" font-size="10.00">+</text>
<text text-anchor="start" x="25.12" y="-22.5" font-family="Helvetica,sans-Serif" font-size="10.00">removeDevice()</text>
<text text-anchor="start" x="9.56" y="-6.5" font-family="Helvetica,sans-Serif" font-size="10.00">+</text>
<text text-anchor="start" x="25.12" y="-6.5" font-family="Helvetica,sans-Serif" font-size="10.00">findDevice()</text>
<polygon fill="#666666" stroke="#666666" points="0,-98 0,-98 143,-98 143,-98 0,-98"/>
<polygon fill="#666666" stroke="#666666" points="0,-82 0,-82 23.12,-82 23.12,-82 0,-82"/>
<polygon fill="#666666" stroke="#666666" points="23.12,-82 23.12,-82 143,-82 143,-82 23.12,-82"/>
<polygon fill="none" stroke="#666666" points="0,0 0,-128 143,-128 143,0 0,0"/>
</a>
</g>
</g>
</g>
</svg>
