<?xml version="1.0" encoding="UTF-8" standalone="no"?>
<!DOCTYPE svg PUBLIC "-//W3C//DTD SVG 1.1//EN"
 "http://www.w3.org/Graphics/SVG/1.1/DTD/svg11.dtd">
<!-- Generated by graphviz version 13.1.0 (20250701.0955)
 -->
<!-- Title: Board Supported Peripheral Pages: 1 -->
<svg width="299pt" height="306pt"
 viewBox="0.00 0.00 299.00 306.00" xmlns="http://www.w3.org/2000/svg" xmlns:xlink="http://www.w3.org/1999/xlink">
<g id="graph0" class="graph" transform="scale(1 1) rotate(0) translate(4 301.5)">
<title>Board Supported Peripheral</title>
<!-- Node1 -->
<g id="Node000001" class="node">
<title>Node1</title>
<g id="a_Node000001"><a xlink:title=" ">
<polygon fill="#999999" stroke="#666666" points="130.75,-157.5 0,-157.5 0,-139 130.75,-139 130.75,-157.5"/>
<text xml:space="preserve" text-anchor="middle" x="65.38" y="-144.95" font-family="Arial" font-size="9.00">Board Supported Peripheral</text>
</a>
</g>
</g>
<!-- Node3 -->
<g id="Node000003" class="node">
<title>Node3</title>
<g id="a_Node000003"><a xlink:href="../../d3/dc4/group___backlight.html" target="_top" xlink:title=" ">
<polygon fill="white" stroke="#666666" points="285.5,-297.5 172,-297.5 172,-279 285.5,-279 285.5,-297.5"/>
<text xml:space="preserve" text-anchor="middle" x="228.75" y="-284.95" font-family="Arial" font-size="9.00">Display Backlight Driver</text>
</a>
</g>
</g>
<!-- Node1&#45;&gt;Node3 -->
<g id="edge2" class="edge">
<title>Node1&#45;&gt;Node3</title>
<path fill="none" stroke="black" d="M77.3,-167.39C93.47,-194.05 126.29,-242.15 166.75,-269.25 172.37,-273.02 178.78,-276.06 185.28,-278.53"/>
<polygon fill="black" stroke="black" points="80.44,-165.84 72.35,-159 74.41,-169.39 80.44,-165.84"/>
</g>
<!-- Node5 -->
<g id="Node000005" class="node">
<title>Node5</title>
<g id="a_Node000005"><a xlink:href="../../da/d1b/group___beeper.html" target="_top" xlink:title=" ">
<polygon fill="white" stroke="#666666" points="265.25,-260.5 192.25,-260.5 192.25,-242 265.25,-242 265.25,-260.5"/>
<text xml:space="preserve" text-anchor="middle" x="228.75" y="-247.95" font-family="Arial" font-size="9.00">Beeper Driver</text>
</a>
</g>
</g>
<!-- Node1&#45;&gt;Node5 -->
<g id="edge4" class="edge">
<title>Node1&#45;&gt;Node5</title>
<path fill="none" stroke="black" d="M82.88,-166.09C101.52,-185.26 133.61,-215.37 166.75,-233.25 174.52,-237.44 183.4,-240.78 191.92,-243.37"/>
<polygon fill="black" stroke="black" points="85.55,-163.83 76.12,-159 80.48,-168.65 85.55,-163.83"/>
</g>
<!-- Node6 -->
<g id="Node000006" class="node">
<title>Node6</title>
<g id="a_Node000006"><a xlink:href="../../da/d9b/group___digital_peripheral.html" target="_top" xlink:title=" ">
<polygon fill="white" stroke="#666666" points="281.38,-223.75 176.12,-223.75 176.12,-194.75 281.38,-194.75 281.38,-223.75"/>
<text xml:space="preserve" text-anchor="start" x="184.12" y="-211.2" font-family="Arial" font-size="9.00">Digital Inputs/ Outputs</text>
<text xml:space="preserve" text-anchor="middle" x="228.75" y="-200.7" font-family="Arial" font-size="9.00"> Peripheral</text>
</a>
</g>
</g>
<!-- Node1&#45;&gt;Node6 -->
<g id="edge5" class="edge">
<title>Node1&#45;&gt;Node6</title>
<path fill="none" stroke="black" d="M102.62,-161.95C128.03,-171.56 162.01,-184.4 188.14,-194.28"/>
<polygon fill="black" stroke="black" points="103.95,-158.71 93.36,-158.45 101.48,-165.26 103.95,-158.71"/>
</g>
<!-- Node2 -->
<g id="Node000002" class="node">
<title>Node2</title>
<g id="a_Node000002"><a xlink:href="../../d9/d23/group___display.html" target="_top" xlink:title=" ">
<polygon fill="white" stroke="#666666" points="265.62,-176.5 191.88,-176.5 191.88,-158 265.62,-158 265.62,-176.5"/>
<text xml:space="preserve" text-anchor="middle" x="228.75" y="-163.95" font-family="Arial" font-size="9.00">Display Driver</text>
</a>
</g>
</g>
<!-- Node1&#45;&gt;Node2 -->
<g id="edge1" class="edge">
<title>Node1&#45;&gt;Node2</title>
<path fill="none" stroke="black" d="M142.35,-157.19C159.6,-159.23 177.14,-161.29 191.8,-163.02"/>
<polygon fill="black" stroke="black" points="142.93,-153.74 132.59,-156.05 142.11,-160.69 142.93,-153.74"/>
</g>
<!-- Node8 -->
<g id="Node000008" class="node">
<title>Node8</title>
<g id="a_Node000008"><a xlink:href="../../d9/dd1/group___e_e_p_r_o_m.html" target="_top" xlink:title=" ">
<polygon fill="white" stroke="#666666" points="290,-139.5 167.5,-139.5 167.5,-121 290,-121 290,-139.5"/>
<text xml:space="preserve" text-anchor="middle" x="228.75" y="-126.95" font-family="Arial" font-size="9.00">64KB I2C Serial EEPROM</text>
</a>
</g>
</g>
<!-- Node1&#45;&gt;Node8 -->
<g id="edge7" class="edge">
<title>Node1&#45;&gt;Node8</title>
<path fill="none" stroke="black" d="M142.37,-139.77C150.7,-138.84 159.1,-137.91 167.22,-137"/>
<polygon fill="black" stroke="black" points="142.14,-136.28 132.59,-140.86 142.91,-143.23 142.14,-136.28"/>
</g>
<!-- Node7 -->
<g id="Node000007" class="node">
<title>Node7</title>
<g id="a_Node000007"><a xlink:href="../../d7/d81/group___spi_flash.html" target="_top" xlink:title=" ">
<polygon fill="white" stroke="#666666" points="290.75,-102.75 166.75,-102.75 166.75,-73.75 290.75,-73.75 290.75,-102.75"/>
<text xml:space="preserve" text-anchor="start" x="174.75" y="-90.2" font-family="Arial" font-size="9.00">W25Q128JVSIQ SPI Flash</text>
<text xml:space="preserve" text-anchor="middle" x="228.75" y="-79.7" font-family="Arial" font-size="9.00"> Driver</text>
</a>
</g>
</g>
<!-- Node1&#45;&gt;Node7 -->
<g id="edge6" class="edge">
<title>Node1&#45;&gt;Node7</title>
<path fill="none" stroke="black" d="M102.91,-134.67C128.15,-125.28 161.73,-112.8 187.7,-103.14"/>
<polygon fill="black" stroke="black" points="101.87,-131.32 93.72,-138.08 104.31,-137.88 101.87,-131.32"/>
</g>
<!-- Node4 -->
<g id="Node000004" class="node">
<title>Node4</title>
<g id="a_Node000004"><a xlink:href="../../d7/d08/group___touch_screen.html" target="_top" xlink:title=" ">
<polygon fill="white" stroke="#666666" points="277.62,-55.5 179.88,-55.5 179.88,-37 277.62,-37 277.62,-55.5"/>
<text xml:space="preserve" text-anchor="middle" x="228.75" y="-42.95" font-family="Arial" font-size="9.00">Touch Screen driver</text>
</a>
</g>
</g>
<!-- Node1&#45;&gt;Node4 -->
<g id="edge3" class="edge">
<title>Node1&#45;&gt;Node4</title>
<path fill="none" stroke="black" d="M83.31,-130.65C102.11,-112.02 134.14,-82.92 166.75,-65.25 173.58,-61.55 181.23,-58.46 188.75,-55.91"/>
<polygon fill="black" stroke="black" points="81.02,-127.98 76.48,-137.55 86,-132.9 81.02,-127.98"/>
</g>
<!-- Node9 -->
<g id="Node000009" class="node">
<title>Node9</title>
<g id="a_Node000009"><a xlink:href="../../d5/d6a/group___voltmeter.html" target="_top" xlink:title=" ">
<polygon fill="white" stroke="#666666" points="268.62,-18.5 188.88,-18.5 188.88,0 268.62,0 268.62,-18.5"/>
<text xml:space="preserve" text-anchor="middle" x="228.75" y="-5.95" font-family="Arial" font-size="9.00">Voltmeter driver</text>
</a>
</g>
</g>
<!-- Node1&#45;&gt;Node9 -->
<g id="edge8" class="edge">
<title>Node1&#45;&gt;Node9</title>
<path fill="none" stroke="black" d="M77.58,-128.88C93.88,-102.36 126.63,-55 166.75,-28.25 173.3,-23.88 180.91,-20.47 188.49,-17.83"/>
<polygon fill="black" stroke="black" points="74.7,-126.87 72.57,-137.25 80.71,-130.46 74.7,-126.87"/>
</g>
</g>
</svg>
