<?xml version="1.0" encoding="UTF-8" standalone="no"?>
<!DOCTYPE svg PUBLIC "-//W3C//DTD SVG 1.1//EN"
 "http://www.w3.org/Graphics/SVG/1.1/DTD/svg11.dtd">
<!-- Generated by graphviz version 12.2.1 (20241206.2353)
 -->
<!-- Title: UI::ScreenBase Pages: 1 -->
<svg width="2353pt" height="524pt"
 viewBox="0.00 0.00 2353.38 524.00" xmlns="http://www.w3.org/2000/svg" xmlns:xlink="http://www.w3.org/1999/xlink">
<g id="graph0" class="graph" transform="scale(1 1) rotate(0) translate(4 520)">
<title>UI::ScreenBase</title>
<!-- Node1 -->
<g id="Node000001" class="node">
<title>Node1</title>
<g id="a_Node000001"><a xlink:title="A base class for screen components in the UI.">
<polygon fill="#999999" stroke="none" points="1369.25,-516 1253,-516 1253,-256 1369.25,-256 1369.25,-516"/>
<text text-anchor="start" x="1276.25" y="-502.5" font-family="Arial" font-size="10.00">UI::ScreenBase</text>
<text text-anchor="start" x="1257" y="-486.5" font-family="Arial" font-size="10.00">+</text>
<text text-anchor="start" x="1267" y="-486.5" font-family="Arial" font-size="10.00">onClickLeftButton</text>
<text text-anchor="start" x="1257" y="-470.5" font-family="Arial" font-size="10.00">+</text>
<text text-anchor="start" x="1267" y="-470.5" font-family="Arial" font-size="10.00">onClickRightButton</text>
<text text-anchor="start" x="1257" y="-454.5" font-family="Arial" font-size="10.00">+</text>
<text text-anchor="start" x="1267" y="-454.5" font-family="Arial" font-size="10.00">onClickEnterButton</text>
<text text-anchor="start" x="1257" y="-438.5" font-family="Arial" font-size="10.00">+</text>
<text text-anchor="start" x="1267" y="-438.5" font-family="Arial" font-size="10.00">onClickClearButton</text>
<text text-anchor="start" x="1257" y="-422.5" font-family="Arial" font-size="10.00">+</text>
<text text-anchor="start" x="1267" y="-422.5" font-family="Arial" font-size="10.00">onHoldLeftButton</text>
<text text-anchor="start" x="1257" y="-406.5" font-family="Arial" font-size="10.00">+</text>
<text text-anchor="start" x="1267" y="-406.5" font-family="Arial" font-size="10.00">onHoldRightButton</text>
<text text-anchor="start" x="1257" y="-390.5" font-family="Arial" font-size="10.00">+</text>
<text text-anchor="start" x="1267" y="-390.5" font-family="Arial" font-size="10.00">onHoldEnterButton</text>
<text text-anchor="start" x="1257" y="-374.5" font-family="Arial" font-size="10.00">+</text>
<text text-anchor="start" x="1267" y="-374.5" font-family="Arial" font-size="10.00">onHoldClearButton</text>
<text text-anchor="start" x="1257" y="-358.5" font-family="Arial" font-size="10.00">+</text>
<text text-anchor="start" x="1267" y="-358.5" font-family="Arial" font-size="10.00">clearButtonsFunction()</text>
<text text-anchor="start" x="1257.38" y="-342.5" font-family="Arial" font-size="10.00">#</text>
<text text-anchor="start" x="1267" y="-342.5" font-family="Arial" font-size="10.00">ScreenBase()</text>
<text text-anchor="start" x="1257.38" y="-326.5" font-family="Arial" font-size="10.00">#</text>
<text text-anchor="start" x="1267" y="-326.5" font-family="Arial" font-size="10.00">~ScreenBase()</text>
<text text-anchor="start" x="1257.38" y="-310.5" font-family="Arial" font-size="10.00">#</text>
<text text-anchor="start" x="1267" y="-310.5" font-family="Arial" font-size="10.00">active()</text>
<text text-anchor="start" x="1257.38" y="-294.5" font-family="Arial" font-size="10.00">#</text>
<text text-anchor="start" x="1267" y="-294.5" font-family="Arial" font-size="10.00">deactive()</text>
<text text-anchor="start" x="1257.38" y="-278.5" font-family="Arial" font-size="10.00">#</text>
<text text-anchor="start" x="1267" y="-278.5" font-family="Arial" font-size="10.00">handleTickEvent()</text>
<text text-anchor="start" x="1257.38" y="-262.5" font-family="Arial" font-size="10.00">#</text>
<text text-anchor="start" x="1267" y="-262.5" font-family="Arial" font-size="10.00">handleButtonEvent()</text>
<polygon fill="#666666" stroke="#666666" points="1253,-498 1253,-498 1369.25,-498 1369.25,-498 1253,-498"/>
<polygon fill="#666666" stroke="#666666" points="1253,-370 1253,-370 1265,-370 1265,-370 1253,-370"/>
<polygon fill="#666666" stroke="#666666" points="1265,-370 1265,-370 1369.25,-370 1369.25,-370 1265,-370"/>
<polygon fill="none" stroke="#666666" points="1253,-256 1253,-516 1369.25,-516 1369.25,-256 1253,-256"/>
</a>
</g>
</g>
<!-- Node2 -->
<g id="Node000002" class="node">
<title>Node2</title>
<g id="a_Node000002"><a xlink:href="../../d3/d29/a00419.html" target="_top" xlink:title="A base class for creating menu components in the UI.">
<polygon fill="white" stroke="none" points="328,-220 252.25,-220 252.25,-88 328,-88 328,-220"/>
<text text-anchor="start" x="258.62" y="-206.5" font-family="Arial" font-size="10.00">UI::MenuBase</text>
<text text-anchor="start" x="288.62" y="-190.5" font-family="Arial" font-size="10.00"> </text>
<text text-anchor="start" x="256.25" y="-174.5" font-family="Arial" font-size="10.00">#</text>
<text text-anchor="start" x="265.5" y="-174.5" font-family="Arial" font-size="10.00">MenuBase()</text>
<text text-anchor="start" x="256.25" y="-158.5" font-family="Arial" font-size="10.00">#</text>
<text text-anchor="start" x="265.5" y="-158.5" font-family="Arial" font-size="10.00">~MenuBase()</text>
<text text-anchor="start" x="256.25" y="-142.5" font-family="Arial" font-size="10.00">#</text>
<text text-anchor="start" x="265.5" y="-142.5" font-family="Arial" font-size="10.00">items()</text>
<text text-anchor="start" x="256.25" y="-126.5" font-family="Arial" font-size="10.00">#</text>
<text text-anchor="start" x="265.5" y="-126.5" font-family="Arial" font-size="10.00">active()</text>
<text text-anchor="start" x="256.25" y="-110.5" font-family="Arial" font-size="10.00">#</text>
<text text-anchor="start" x="265.5" y="-110.5" font-family="Arial" font-size="10.00">deactive()</text>
<text text-anchor="start" x="256.25" y="-94.5" font-family="Arial" font-size="10.00">#</text>
<text text-anchor="start" x="265.5" y="-94.5" font-family="Arial" font-size="10.00">setPosition()</text>
<polygon fill="#666666" stroke="#666666" points="252.25,-202 252.25,-202 328,-202 328,-202 252.25,-202"/>
<polygon fill="#666666" stroke="#666666" points="252.25,-186 252.25,-186 328,-186 328,-186 252.25,-186"/>
<polygon fill="none" stroke="#666666" points="252.25,-88 252.25,-220 328,-220 328,-88 252.25,-88"/>
</a>
</g>
</g>
<!-- Node1&#45;&gt;Node2 -->
<g id="edge1_Node000001_Node000002" class="edge">
<title>Node1&#45;&gt;Node2</title>
<g id="a_edge1_Node000001_Node000002"><a xlink:title=" ">
<path fill="none" stroke="#63b8ff" d="M1241.71,-380.05C1045.25,-365 489.75,-314.9 337.12,-220 333.81,-217.94 330.66,-215.55 327.68,-212.94"/>
<polygon fill="none" stroke="#63b8ff" points="1241.27,-383.53 1251.5,-380.79 1241.8,-376.55 1241.27,-383.53"/>
</a>
</g>
</g>
<!-- Node7 -->
<g id="Node000007" class="node">
<title>Node7</title>
<g id="a_Node000007"><a xlink:href="../../d0/dc5/a00435.html" target="_top" xlink:title="A singleton class that represents the application view screen.">
<polygon fill="white" stroke="none" points="476.62,-180 345.62,-180 345.62,-128 476.62,-128 476.62,-180"/>
<text text-anchor="start" x="349.62" y="-166.5" font-family="Arial" font-size="10.00">UI::Screen::ApplicationView</text>
<text text-anchor="start" x="409.62" y="-150.5" font-family="Arial" font-size="10.00"> </text>
<text text-anchor="start" x="363.62" y="-134.5" font-family="Arial" font-size="10.00">+</text>
<text text-anchor="start" x="387.62" y="-134.5" font-family="Arial" font-size="10.00">getInstance()</text>
<polygon fill="#666666" stroke="#666666" points="345.62,-162 345.62,-162 476.62,-162 476.62,-162 345.62,-162"/>
<polygon fill="#666666" stroke="#666666" points="345.62,-146 345.62,-146 476.62,-146 476.62,-146 345.62,-146"/>
<polygon fill="none" stroke="#666666" points="345.62,-128 345.62,-180 476.62,-180 476.62,-128 345.62,-128"/>
</a>
</g>
</g>
<!-- Node1&#45;&gt;Node7 -->
<g id="edge6_Node000001_Node000007" class="edge">
<title>Node1&#45;&gt;Node7</title>
<g id="a_edge6_Node000001_Node000007"><a xlink:title=" ">
<path fill="none" stroke="#63b8ff" d="M1241.96,-383.13C1095.02,-376.68 744.03,-347.94 485.12,-220 465.35,-210.23 446.71,-193.8 433.09,-179.9"/>
<polygon fill="none" stroke="#63b8ff" points="1241.37,-386.61 1251.51,-383.53 1241.66,-379.62 1241.37,-386.61"/>
</a>
</g>
</g>
<!-- Node8 -->
<g id="Node000008" class="node">
<title>Node8</title>
<g id="a_Node000008"><a xlink:href="../../d9/d3a/a00439.html" target="_top" xlink:title="A screen class for editing the produce date.">
<polygon fill="white" stroke="none" points="629.88,-180 494.38,-180 494.38,-128 629.88,-128 629.88,-180"/>
<text text-anchor="start" x="498.38" y="-166.5" font-family="Arial" font-size="10.00">UI::Screen::EditProduceDate</text>
<text text-anchor="start" x="503.94" y="-150.5" font-family="Arial" font-size="10.00">+</text>
<text text-anchor="start" x="519.5" y="-150.5" font-family="Arial" font-size="10.00">onGotoPrevoidScreen</text>
<text text-anchor="start" x="503.94" y="-134.5" font-family="Arial" font-size="10.00">+</text>
<text text-anchor="start" x="519.5" y="-134.5" font-family="Arial" font-size="10.00">getInstance()</text>
<polygon fill="#666666" stroke="#666666" points="494.38,-162 494.38,-162 629.88,-162 629.88,-162 494.38,-162"/>
<polygon fill="#666666" stroke="#666666" points="494.38,-146 494.38,-146 517.5,-146 517.5,-146 494.38,-146"/>
<polygon fill="#666666" stroke="#666666" points="517.5,-146 517.5,-146 629.88,-146 629.88,-146 517.5,-146"/>
<polygon fill="none" stroke="#666666" points="494.38,-128 494.38,-180 629.88,-180 629.88,-128 494.38,-128"/>
</a>
</g>
</g>
<!-- Node1&#45;&gt;Node8 -->
<g id="edge7_Node000001_Node000008" class="edge">
<title>Node1&#45;&gt;Node8</title>
<g id="a_edge7_Node000001_Node000008"><a xlink:title=" ">
<path fill="none" stroke="#63b8ff" d="M1241.81,-378.53C1115.75,-364.52 843.12,-323.86 639.12,-220 619.17,-209.84 599.92,-193.59 585.66,-179.88"/>
<polygon fill="none" stroke="#63b8ff" points="1241.36,-382 1251.68,-379.6 1242.12,-375.04 1241.36,-382"/>
</a>
</g>
</g>
<!-- Node9 -->
<g id="Node000009" class="node">
<title>Node9</title>
<g id="a_Node000009"><a xlink:href="../../d0/dc4/a00443.html" target="_top" xlink:title="A class representing the screen for editing sale dates.">
<polygon fill="white" stroke="none" points="766.62,-180 647.62,-180 647.62,-128 766.62,-128 766.62,-180"/>
<text text-anchor="start" x="651.62" y="-166.5" font-family="Arial" font-size="10.00">UI::Screen::EditSaleDate</text>
<text text-anchor="start" x="653.06" y="-150.5" font-family="Arial" font-size="10.00">+</text>
<text text-anchor="start" x="664.5" y="-150.5" font-family="Arial" font-size="10.00">onGotoPrevoidScreen</text>
<text text-anchor="start" x="653.06" y="-134.5" font-family="Arial" font-size="10.00">+</text>
<text text-anchor="start" x="664.5" y="-134.5" font-family="Arial" font-size="10.00">getInstance()</text>
<polygon fill="#666666" stroke="#666666" points="647.62,-162 647.62,-162 766.62,-162 766.62,-162 647.62,-162"/>
<polygon fill="#666666" stroke="#666666" points="647.62,-146 647.62,-146 662.5,-146 662.5,-146 647.62,-146"/>
<polygon fill="#666666" stroke="#666666" points="662.5,-146 662.5,-146 766.62,-146 766.62,-146 662.5,-146"/>
<polygon fill="none" stroke="#666666" points="647.62,-128 647.62,-180 766.62,-180 766.62,-128 647.62,-128"/>
</a>
</g>
</g>
<!-- Node1&#45;&gt;Node9 -->
<g id="edge8_Node000001_Node000009" class="edge">
<title>Node1&#45;&gt;Node9</title>
<g id="a_edge8_Node000001_Node000009"><a xlink:title=" ">
<path fill="none" stroke="#63b8ff" d="M1242.22,-374.11C1136.26,-355.16 929.49,-309.32 776.12,-220 758.06,-209.48 740.94,-193.4 728.27,-179.87"/>
<polygon fill="none" stroke="#63b8ff" points="1241.45,-377.53 1251.9,-375.82 1242.66,-370.64 1241.45,-377.53"/>
</a>
</g>
</g>
<!-- Node10 -->
<g id="Node000010" class="node">
<title>Node10</title>
<g id="a_Node000010"><a xlink:href="../../de/d84/a00447.html" target="_top" xlink:title="A class for displaying the firmware version.">
<polygon fill="white" stroke="none" points="919.12,-196 785.12,-196 785.12,-112 919.12,-112 919.12,-196"/>
<text text-anchor="start" x="789.12" y="-182.5" font-family="Arial" font-size="10.00">UI::Screen::FirmwareVersion</text>
<text text-anchor="start" x="850.62" y="-166.5" font-family="Arial" font-size="10.00"> </text>
<text text-anchor="start" x="796.94" y="-150.5" font-family="Arial" font-size="10.00">+</text>
<text text-anchor="start" x="814.75" y="-150.5" font-family="Arial" font-size="10.00">FirmwareVersion()</text>
<text text-anchor="start" x="796.94" y="-134.5" font-family="Arial" font-size="10.00">+</text>
<text text-anchor="start" x="814.75" y="-134.5" font-family="Arial" font-size="10.00">~FirmwareVersion()</text>
<text text-anchor="start" x="796.94" y="-118.5" font-family="Arial" font-size="10.00">+</text>
<text text-anchor="start" x="814.75" y="-118.5" font-family="Arial" font-size="10.00">getInstance()</text>
<polygon fill="#666666" stroke="#666666" points="785.12,-178 785.12,-178 919.12,-178 919.12,-178 785.12,-178"/>
<polygon fill="#666666" stroke="#666666" points="785.12,-162 785.12,-162 919.12,-162 919.12,-162 785.12,-162"/>
<polygon fill="none" stroke="#666666" points="785.12,-112 785.12,-196 919.12,-196 919.12,-112 785.12,-112"/>
</a>
</g>
</g>
<!-- Node1&#45;&gt;Node10 -->
<g id="edge9_Node000001_Node000010" class="edge">
<title>Node1&#45;&gt;Node10</title>
<g id="a_edge9_Node000001_Node000010"><a xlink:title=" ">
<path fill="none" stroke="#63b8ff" d="M1242.52,-362.52C1163.44,-335.04 1031.13,-284.17 928.12,-220 916.93,-213.02 905.68,-204.46 895.4,-195.87"/>
<polygon fill="none" stroke="#63b8ff" points="1241.29,-365.8 1251.89,-365.75 1243.58,-359.19 1241.29,-365.8"/>
</a>
</g>
</g>
<!-- Node11 -->
<g id="Node000011" class="node">
<title>Node11</title>
<g id="a_Node000011"><a xlink:href="../../d9/d69/a00451.html" target="_top" xlink:title="A screen class for displaying the hardware version.">
<polygon fill="white" stroke="none" points="1072.88,-196 937.38,-196 937.38,-112 1072.88,-112 1072.88,-196"/>
<text text-anchor="start" x="941.38" y="-182.5" font-family="Arial" font-size="10.00">UI::Screen::HardwareVersion</text>
<text text-anchor="start" x="1003.62" y="-166.5" font-family="Arial" font-size="10.00"> </text>
<text text-anchor="start" x="949.19" y="-150.5" font-family="Arial" font-size="10.00">+</text>
<text text-anchor="start" x="967" y="-150.5" font-family="Arial" font-size="10.00">HardwareVersion()</text>
<text text-anchor="start" x="949.19" y="-134.5" font-family="Arial" font-size="10.00">+</text>
<text text-anchor="start" x="967" y="-134.5" font-family="Arial" font-size="10.00">~HardwareVersion()</text>
<text text-anchor="start" x="949.19" y="-118.5" font-family="Arial" font-size="10.00">+</text>
<text text-anchor="start" x="967" y="-118.5" font-family="Arial" font-size="10.00">getInstance()</text>
<polygon fill="#666666" stroke="#666666" points="937.38,-178 937.38,-178 1072.88,-178 1072.88,-178 937.38,-178"/>
<polygon fill="#666666" stroke="#666666" points="937.38,-162 937.38,-162 1072.88,-162 1072.88,-162 937.38,-162"/>
<polygon fill="none" stroke="#666666" points="937.38,-112 937.38,-196 1072.88,-196 1072.88,-112 937.38,-112"/>
</a>
</g>
</g>
<!-- Node1&#45;&gt;Node11 -->
<g id="edge10_Node000001_Node000011" class="edge">
<title>Node1&#45;&gt;Node11</title>
<g id="a_edge10_Node000001_Node000011"><a xlink:title=" ">
<path fill="none" stroke="#63b8ff" d="M1243.99,-338.66C1197.81,-306.3 1135.43,-261.6 1082.12,-220 1072.33,-212.36 1062.05,-203.95 1052.3,-195.8"/>
<polygon fill="none" stroke="#63b8ff" points="1241.85,-341.44 1252.05,-344.3 1245.86,-335.7 1241.85,-341.44"/>
</a>
</g>
</g>
<!-- Node12 -->
<g id="Node000012" class="node">
<title>Node12</title>
<g id="a_Node000012"><a xlink:href="../../d4/d4b/a00471.html" target="_top" xlink:title="A singleton class derived from ScreenBase that handles peripheral input screens.">
<polygon fill="white" stroke="none" points="1223,-180 1091.25,-180 1091.25,-128 1223,-128 1223,-180"/>
<text text-anchor="start" x="1095.25" y="-166.5" font-family="Arial" font-size="10.00">UI::Screen::PeripheralInputs</text>
<text text-anchor="start" x="1155.62" y="-150.5" font-family="Arial" font-size="10.00"> </text>
<text text-anchor="start" x="1109.44" y="-134.5" font-family="Arial" font-size="10.00">+</text>
<text text-anchor="start" x="1133.62" y="-134.5" font-family="Arial" font-size="10.00">getInstance()</text>
<polygon fill="#666666" stroke="#666666" points="1091.25,-162 1091.25,-162 1223,-162 1223,-162 1091.25,-162"/>
<polygon fill="#666666" stroke="#666666" points="1091.25,-146 1091.25,-146 1223,-146 1223,-146 1091.25,-146"/>
<polygon fill="none" stroke="#666666" points="1091.25,-128 1091.25,-180 1223,-180 1223,-128 1091.25,-128"/>
</a>
</g>
</g>
<!-- Node1&#45;&gt;Node12 -->
<g id="edge11_Node000001_Node000012" class="edge">
<title>Node1&#45;&gt;Node12</title>
<g id="a_edge11_Node000001_Node000012"><a xlink:title=" ">
<path fill="none" stroke="#63b8ff" d="M1246.75,-288.85C1220.04,-248.97 1191.26,-205.98 1173.71,-179.77"/>
<polygon fill="none" stroke="#63b8ff" points="1243.81,-290.75 1252.28,-297.12 1249.63,-286.86 1243.81,-290.75"/>
</a>
</g>
</g>
<!-- Node13 -->
<g id="Node000013" class="node">
<title>Node13</title>
<g id="a_Node000013"><a xlink:href="../../d1/d92/a00475.html" target="_top" xlink:title="A singleton class derived from ScreenBase that handles peripheral output screens.">
<polygon fill="white" stroke="none" points="1380.75,-180 1241.5,-180 1241.5,-128 1380.75,-128 1380.75,-180"/>
<text text-anchor="start" x="1245.5" y="-166.5" font-family="Arial" font-size="10.00">UI::Screen::PeripheralOutputs</text>
<text text-anchor="start" x="1309.62" y="-150.5" font-family="Arial" font-size="10.00"> </text>
<text text-anchor="start" x="1261.56" y="-134.5" font-family="Arial" font-size="10.00">+</text>
<text text-anchor="start" x="1287.62" y="-134.5" font-family="Arial" font-size="10.00">getInstance()</text>
<polygon fill="#666666" stroke="#666666" points="1241.5,-162 1241.5,-162 1380.75,-162 1380.75,-162 1241.5,-162"/>
<polygon fill="#666666" stroke="#666666" points="1241.5,-146 1241.5,-146 1380.75,-146 1380.75,-146 1241.5,-146"/>
<polygon fill="none" stroke="#666666" points="1241.5,-128 1241.5,-180 1380.75,-180 1380.75,-128 1241.5,-128"/>
</a>
</g>
</g>
<!-- Node1&#45;&gt;Node13 -->
<g id="edge12_Node000001_Node000013" class="edge">
<title>Node1&#45;&gt;Node13</title>
<g id="a_edge12_Node000001_Node000013"><a xlink:title=" ">
<path fill="none" stroke="#63b8ff" d="M1311.12,-245.02C1311.12,-220 1311.12,-196.65 1311.12,-180"/>
<polygon fill="none" stroke="#63b8ff" points="1307.63,-244.7 1311.13,-254.7 1314.63,-244.7 1307.63,-244.7"/>
</a>
</g>
</g>
<!-- Node14 -->
<g id="Node000014" class="node">
<title>Node14</title>
<g id="a_Node000014"><a xlink:href="../../d9/d4a/a00479.html" target="_top" xlink:title="A class for displaying the produce date view screen.">
<polygon fill="white" stroke="none" points="1537.75,-180 1398.5,-180 1398.5,-128 1537.75,-128 1537.75,-180"/>
<text text-anchor="start" x="1402.5" y="-166.5" font-family="Arial" font-size="10.00">UI::Screen::ProduceDateVeiw</text>
<text text-anchor="start" x="1466.62" y="-150.5" font-family="Arial" font-size="10.00"> </text>
<text text-anchor="start" x="1418.56" y="-134.5" font-family="Arial" font-size="10.00">+</text>
<text text-anchor="start" x="1444.62" y="-134.5" font-family="Arial" font-size="10.00">getInstance()</text>
<polygon fill="#666666" stroke="#666666" points="1398.5,-162 1398.5,-162 1537.75,-162 1537.75,-162 1398.5,-162"/>
<polygon fill="#666666" stroke="#666666" points="1398.5,-146 1398.5,-146 1537.75,-146 1537.75,-146 1398.5,-146"/>
<polygon fill="none" stroke="#666666" points="1398.5,-128 1398.5,-180 1537.75,-180 1537.75,-128 1398.5,-128"/>
</a>
</g>
</g>
<!-- Node1&#45;&gt;Node14 -->
<g id="edge13_Node000001_Node000014" class="edge">
<title>Node1&#45;&gt;Node14</title>
<g id="a_edge13_Node000001_Node000014"><a xlink:title=" ">
<path fill="none" stroke="#63b8ff" d="M1375.52,-290.66C1403.05,-250.34 1432.96,-206.51 1451.13,-179.9"/>
<polygon fill="none" stroke="#63b8ff" points="1372.74,-288.53 1369.99,-298.76 1378.52,-292.47 1372.74,-288.53"/>
</a>
</g>
</g>
<!-- Node15 -->
<g id="Node000015" class="node">
<title>Node15</title>
<g id="a_Node000015"><a xlink:href="../../dc/da0/a00483.html" target="_top" xlink:title="A class representing the main screen of the UI.">
<polygon fill="white" stroke="none" points="1684.5,-180 1555.75,-180 1555.75,-128 1684.5,-128 1684.5,-180"/>
<text text-anchor="start" x="1559.75" y="-166.5" font-family="Arial" font-size="10.00">UI::Screen::RemoteIOWork</text>
<text text-anchor="start" x="1618.62" y="-150.5" font-family="Arial" font-size="10.00"> </text>
<text text-anchor="start" x="1573.19" y="-134.5" font-family="Arial" font-size="10.00">+</text>
<text text-anchor="start" x="1596.62" y="-134.5" font-family="Arial" font-size="10.00">getInstance()</text>
<polygon fill="#666666" stroke="#666666" points="1555.75,-162 1555.75,-162 1684.5,-162 1684.5,-162 1555.75,-162"/>
<polygon fill="#666666" stroke="#666666" points="1555.75,-146 1555.75,-146 1684.5,-146 1684.5,-146 1555.75,-146"/>
<polygon fill="none" stroke="#666666" points="1555.75,-128 1555.75,-180 1684.5,-180 1684.5,-128 1555.75,-128"/>
</a>
</g>
</g>
<!-- Node1&#45;&gt;Node15 -->
<g id="edge14_Node000001_Node000015" class="edge">
<title>Node1&#45;&gt;Node15</title>
<g id="a_edge14_Node000001_Node000015"><a xlink:title=" ">
<path fill="none" stroke="#63b8ff" d="M1378.6,-340.91C1426.63,-308.78 1492.15,-263.45 1547.12,-220 1563.1,-207.37 1580.14,-192.3 1593.73,-179.85"/>
<polygon fill="none" stroke="#63b8ff" points="1376.87,-337.85 1370.49,-346.31 1380.75,-343.68 1376.87,-337.85"/>
</a>
</g>
</g>
<!-- Node16 -->
<g id="Node000016" class="node">
<title>Node16</title>
<g id="a_Node000016"><a xlink:href="../../dd/d9c/a00487.html" target="_top" xlink:title="A singleton class for managing the reset state screen.">
<polygon fill="white" stroke="none" points="1813.5,-180 1702.75,-180 1702.75,-128 1813.5,-128 1813.5,-180"/>
<text text-anchor="start" x="1706.75" y="-166.5" font-family="Arial" font-size="10.00">UI::Screen::ResetState</text>
<text text-anchor="start" x="1756.62" y="-150.5" font-family="Arial" font-size="10.00"> </text>
<text text-anchor="start" x="1715.69" y="-134.5" font-family="Arial" font-size="10.00">+</text>
<text text-anchor="start" x="1734.62" y="-134.5" font-family="Arial" font-size="10.00">getInstance()</text>
<polygon fill="#666666" stroke="#666666" points="1702.75,-162 1702.75,-162 1813.5,-162 1813.5,-162 1702.75,-162"/>
<polygon fill="#666666" stroke="#666666" points="1702.75,-146 1702.75,-146 1813.5,-146 1813.5,-146 1702.75,-146"/>
<polygon fill="none" stroke="#666666" points="1702.75,-128 1702.75,-180 1813.5,-180 1813.5,-128 1702.75,-128"/>
</a>
</g>
</g>
<!-- Node1&#45;&gt;Node16 -->
<g id="edge15_Node000001_Node000016" class="edge">
<title>Node1&#45;&gt;Node16</title>
<g id="a_edge15_Node000001_Node000016"><a xlink:title=" ">
<path fill="none" stroke="#63b8ff" d="M1380.12,-364.02C1459.81,-337.85 1592.81,-288.13 1693.12,-220 1709.63,-208.79 1725.51,-193.03 1737.45,-179.84"/>
<polygon fill="none" stroke="#63b8ff" points="1379.11,-360.66 1370.68,-367.08 1381.27,-367.32 1379.11,-360.66"/>
</a>
</g>
</g>
<!-- Node17 -->
<g id="Node000017" class="node">
<title>Node17</title>
<g id="a_Node000017"><a xlink:href="../../d6/d60/a00491.html" target="_top" xlink:title="A singleton class for managing the sale date view screen.">
<polygon fill="white" stroke="none" points="1954.5,-180 1831.75,-180 1831.75,-128 1954.5,-128 1954.5,-180"/>
<text text-anchor="start" x="1835.75" y="-166.5" font-family="Arial" font-size="10.00">UI::Screen::SaleDateVeiw</text>
<text text-anchor="start" x="1891.62" y="-150.5" font-family="Arial" font-size="10.00"> </text>
<text text-anchor="start" x="1847.69" y="-134.5" font-family="Arial" font-size="10.00">+</text>
<text text-anchor="start" x="1869.62" y="-134.5" font-family="Arial" font-size="10.00">getInstance()</text>
<polygon fill="#666666" stroke="#666666" points="1831.75,-162 1831.75,-162 1954.5,-162 1954.5,-162 1831.75,-162"/>
<polygon fill="#666666" stroke="#666666" points="1831.75,-146 1831.75,-146 1954.5,-146 1954.5,-146 1831.75,-146"/>
<polygon fill="none" stroke="#666666" points="1831.75,-128 1831.75,-180 1954.5,-180 1954.5,-128 1831.75,-128"/>
</a>
</g>
</g>
<!-- Node1&#45;&gt;Node17 -->
<g id="edge16_Node000001_Node000017" class="edge">
<title>Node1&#45;&gt;Node17</title>
<g id="a_edge16_Node000001_Node000017"><a xlink:title=" ">
<path fill="none" stroke="#63b8ff" d="M1380.32,-372.48C1482.33,-351.92 1676.68,-304.6 1822.12,-220 1840.47,-209.33 1858.09,-193.25 1871.18,-179.75"/>
<polygon fill="none" stroke="#63b8ff" points="1379.86,-369.01 1370.73,-374.39 1381.22,-375.87 1379.86,-369.01"/>
</a>
</g>
</g>
<!-- Node18 -->
<g id="Node000018" class="node">
<title>Node18</title>
<g id="a_Node000018"><a xlink:href="../../db/dc4/a00495.html" target="_top" xlink:title="A singleton class for managing the serial number screen.">
<polygon fill="white" stroke="none" points="2093.38,-180 1972.88,-180 1972.88,-128 2093.38,-128 2093.38,-180"/>
<text text-anchor="start" x="1976.88" y="-166.5" font-family="Arial" font-size="10.00">UI::Screen::SerialNumber</text>
<text text-anchor="start" x="2031.62" y="-150.5" font-family="Arial" font-size="10.00"> </text>
<text text-anchor="start" x="1988.25" y="-134.5" font-family="Arial" font-size="10.00">+</text>
<text text-anchor="start" x="2009.62" y="-134.5" font-family="Arial" font-size="10.00">getInstance()</text>
<polygon fill="#666666" stroke="#666666" points="1972.88,-162 1972.88,-162 2093.38,-162 2093.38,-162 1972.88,-162"/>
<polygon fill="#666666" stroke="#666666" points="1972.88,-146 1972.88,-146 2093.38,-146 2093.38,-146 1972.88,-146"/>
<polygon fill="none" stroke="#666666" points="1972.88,-128 1972.88,-180 2093.38,-180 2093.38,-128 1972.88,-128"/>
</a>
</g>
</g>
<!-- Node1&#45;&gt;Node18 -->
<g id="edge17_Node000001_Node000018" class="edge">
<title>Node1&#45;&gt;Node18</title>
<g id="a_edge17_Node000001_Node000018"><a xlink:title=" ">
<path fill="none" stroke="#63b8ff" d="M1380.27,-378.85C1503.98,-365.47 1768.41,-325.9 1963.12,-220 1981.77,-209.86 1999.27,-193.61 2012.11,-179.89"/>
<polygon fill="none" stroke="#63b8ff" points="1380.19,-375.34 1370.61,-379.87 1380.92,-382.3 1380.19,-375.34"/>
</a>
</g>
</g>
<!-- Node19 -->
<g id="Node000019" class="node">
<title>Node19</title>
<g id="a_Node000019"><a xlink:href="../../d8/d67/a00499.html" target="_top" xlink:title="A singleton class for managing the welcome screen.">
<polygon fill="white" stroke="none" points="2213,-180 2111.25,-180 2111.25,-128 2213,-128 2213,-180"/>
<text text-anchor="start" x="2115.25" y="-166.5" font-family="Arial" font-size="10.00">UI::Screen::Welcome</text>
<text text-anchor="start" x="2160.62" y="-150.5" font-family="Arial" font-size="10.00"> </text>
<text text-anchor="start" x="2121.94" y="-134.5" font-family="Arial" font-size="10.00">+</text>
<text text-anchor="start" x="2138.62" y="-134.5" font-family="Arial" font-size="10.00">getInstance()</text>
<polygon fill="#666666" stroke="#666666" points="2111.25,-162 2111.25,-162 2213,-162 2213,-162 2111.25,-162"/>
<polygon fill="#666666" stroke="#666666" points="2111.25,-146 2111.25,-146 2213,-146 2213,-146 2111.25,-146"/>
<polygon fill="none" stroke="#666666" points="2111.25,-128 2111.25,-180 2213,-180 2213,-128 2111.25,-128"/>
</a>
</g>
</g>
<!-- Node1&#45;&gt;Node19 -->
<g id="edge18_Node000001_Node000019" class="edge">
<title>Node1&#45;&gt;Node19</title>
<g id="a_edge18_Node000001_Node000019"><a xlink:title=" ">
<path fill="none" stroke="#63b8ff" d="M1380.47,-384.43C1524.42,-380.4 1862.23,-355.93 2102.12,-220 2119.36,-210.23 2134.46,-193.8 2145.2,-179.91"/>
<polygon fill="none" stroke="#63b8ff" points="1380.63,-380.92 1370.72,-384.68 1380.81,-387.92 1380.63,-380.92"/>
</a>
</g>
</g>
<!-- Node20 -->
<g id="Node000020" class="node">
<title>Node20</title>
<g id="a_Node000020"><a xlink:href="../../d4/de5/a00503.html" target="_top" xlink:title="A class representing the work screen in the UI.">
<polygon fill="white" stroke="none" points="2345.38,-180 2230.88,-180 2230.88,-128 2345.38,-128 2345.38,-180"/>
<text text-anchor="start" x="2234.88" y="-166.5" font-family="Arial" font-size="10.00">UI::Screen::WorkScreen</text>
<text text-anchor="start" x="2286.62" y="-150.5" font-family="Arial" font-size="10.00"> </text>
<text text-anchor="start" x="2244.75" y="-134.5" font-family="Arial" font-size="10.00">+</text>
<text text-anchor="start" x="2264.62" y="-134.5" font-family="Arial" font-size="10.00">getInstance()</text>
<polygon fill="#666666" stroke="#666666" points="2230.88,-162 2230.88,-162 2345.38,-162 2345.38,-162 2230.88,-162"/>
<polygon fill="#666666" stroke="#666666" points="2230.88,-146 2230.88,-146 2345.38,-146 2345.38,-146 2230.88,-146"/>
<polygon fill="none" stroke="#666666" points="2230.88,-128 2230.88,-180 2345.38,-180 2345.38,-128 2230.88,-128"/>
</a>
</g>
</g>
<!-- Node1&#45;&gt;Node20 -->
<g id="edge19_Node000001_Node000020" class="edge">
<title>Node1&#45;&gt;Node20</title>
<g id="a_edge19_Node000001_Node000020"><a xlink:title=" ">
<path fill="none" stroke="#63b8ff" d="M1380.48,-377.79C1566.78,-357.58 2073.98,-296.84 2222.12,-220 2240.68,-210.37 2257.41,-193.76 2269.39,-179.74"/>
<polygon fill="none" stroke="#63b8ff" points="1380.28,-374.29 1370.71,-378.84 1381.03,-381.25 1380.28,-374.29"/>
</a>
</g>
</g>
<!-- Node3 -->
<g id="Node000003" class="node">
<title>Node3</title>
<g id="a_Node000003"><a xlink:href="../../dd/d63/a00455.html" target="_top" xlink:title="Represents the main menu screen in the UI.">
<polygon fill="white" stroke="none" points="106.25,-52 0,-52 0,0 106.25,0 106.25,-52"/>
<text text-anchor="start" x="4" y="-38.5" font-family="Arial" font-size="10.00">UI::Screen::MenuMain</text>
<text text-anchor="start" x="51.62" y="-22.5" font-family="Arial" font-size="10.00"> </text>
<text text-anchor="start" x="11.81" y="-6.5" font-family="Arial" font-size="10.00">+</text>
<text text-anchor="start" x="29.62" y="-6.5" font-family="Arial" font-size="10.00">getInstance()</text>
<polygon fill="#666666" stroke="#666666" points="0,-34 0,-34 106.25,-34 106.25,-34 0,-34"/>
<polygon fill="#666666" stroke="#666666" points="0,-18 0,-18 106.25,-18 106.25,-18 0,-18"/>
<polygon fill="none" stroke="#666666" points="0,0 0,-52 106.25,-52 106.25,0 0,0"/>
</a>
</g>
</g>
<!-- Node2&#45;&gt;Node3 -->
<g id="edge2_Node000002_Node000003" class="edge">
<title>Node2&#45;&gt;Node3</title>
<g id="a_edge2_Node000002_Node000003"><a xlink:title=" ">
<path fill="none" stroke="#63b8ff" d="M242.16,-127.5C200.63,-105.42 140.91,-73.67 99.77,-51.8"/>
<polygon fill="none" stroke="#63b8ff" points="240.5,-130.58 250.97,-132.19 243.79,-124.4 240.5,-130.58"/>
</a>
</g>
</g>
<!-- Node4 -->
<g id="Node000004" class="node">
<title>Node4</title>
<g id="a_Node000004"><a xlink:href="../../d2/d91/a00459.html" target="_top" xlink:title="A class for managing the application selection menu.">
<polygon fill="white" stroke="none" points="285.62,-52 124.62,-52 124.62,0 285.62,0 285.62,-52"/>
<text text-anchor="start" x="128.62" y="-38.5" font-family="Arial" font-size="10.00">UI::Screen::MenuSelectApplication</text>
<text text-anchor="start" x="203.62" y="-22.5" font-family="Arial" font-size="10.00"> </text>
<text text-anchor="start" x="150.12" y="-6.5" font-family="Arial" font-size="10.00">+</text>
<text text-anchor="start" x="181.62" y="-6.5" font-family="Arial" font-size="10.00">getInstance()</text>
<polygon fill="#666666" stroke="#666666" points="124.62,-34 124.62,-34 285.62,-34 285.62,-34 124.62,-34"/>
<polygon fill="#666666" stroke="#666666" points="124.62,-18 124.62,-18 285.62,-18 285.62,-18 124.62,-18"/>
<polygon fill="none" stroke="#666666" points="124.62,0 124.62,-52 285.62,-52 285.62,0 124.62,0"/>
</a>
</g>
</g>
<!-- Node2&#45;&gt;Node4 -->
<g id="edge3_Node000002_Node000004" class="edge">
<title>Node2&#45;&gt;Node4</title>
<g id="a_edge3_Node000002_Node000004"><a xlink:title=" ">
<path fill="none" stroke="#63b8ff" d="M246.09,-87.72C237.48,-74.96 228.96,-62.33 221.94,-51.92"/>
<polygon fill="none" stroke="#63b8ff" points="243.01,-89.41 251.5,-95.75 248.81,-85.5 243.01,-89.41"/>
</a>
</g>
</g>
<!-- Node5 -->
<g id="Node000005" class="node">
<title>Node5</title>
<g id="a_Node000005"><a xlink:href="../../d3/d5d/a00463.html" target="_top" xlink:title="A class for setting up the system menu in the UI.">
<polygon fill="white" stroke="none" points="448.38,-52 303.88,-52 303.88,0 448.38,0 448.38,-52"/>
<text text-anchor="start" x="307.88" y="-38.5" font-family="Arial" font-size="10.00">UI::Screen::MenuSystemSetup</text>
<text text-anchor="start" x="374.62" y="-22.5" font-family="Arial" font-size="10.00"> </text>
<text text-anchor="start" x="325.25" y="-6.5" font-family="Arial" font-size="10.00">+</text>
<text text-anchor="start" x="352.62" y="-6.5" font-family="Arial" font-size="10.00">getInstance()</text>
<polygon fill="#666666" stroke="#666666" points="303.88,-34 303.88,-34 448.38,-34 448.38,-34 303.88,-34"/>
<polygon fill="#666666" stroke="#666666" points="303.88,-18 303.88,-18 448.38,-18 448.38,-18 303.88,-18"/>
<polygon fill="none" stroke="#666666" points="303.88,0 303.88,-52 448.38,-52 448.38,0 303.88,0"/>
</a>
</g>
</g>
<!-- Node2&#45;&gt;Node5 -->
<g id="edge4_Node000002_Node000005" class="edge">
<title>Node2&#45;&gt;Node5</title>
<g id="a_edge4_Node000002_Node000005"><a xlink:title=" ">
<path fill="none" stroke="#63b8ff" d="M334.28,-88.31C343.12,-75.35 351.9,-62.49 359.12,-51.92"/>
<polygon fill="none" stroke="#63b8ff" points="331.45,-86.25 328.7,-96.48 337.23,-90.2 331.45,-86.25"/>
</a>
</g>
</g>
<!-- Node6 -->
<g id="Node000006" class="node">
<title>Node6</title>
<g id="a_Node000006"><a xlink:href="../../d7/d5e/a00467.html" target="_top" xlink:title="A class for managing the system view menu.">
<polygon fill="white" stroke="none" points="607.5,-52 466.75,-52 466.75,0 607.5,0 607.5,-52"/>
<text text-anchor="start" x="470.75" y="-38.5" font-family="Arial" font-size="10.00">UI::Screen::MenuSystemView</text>
<text text-anchor="start" x="535.62" y="-22.5" font-family="Arial" font-size="10.00"> </text>
<text text-anchor="start" x="487.19" y="-6.5" font-family="Arial" font-size="10.00">+</text>
<text text-anchor="start" x="513.62" y="-6.5" font-family="Arial" font-size="10.00">getInstance()</text>
<polygon fill="#666666" stroke="#666666" points="466.75,-34 466.75,-34 607.5,-34 607.5,-34 466.75,-34"/>
<polygon fill="#666666" stroke="#666666" points="466.75,-18 466.75,-18 607.5,-18 607.5,-18 466.75,-18"/>
<polygon fill="none" stroke="#666666" points="466.75,0 466.75,-52 607.5,-52 607.5,0 466.75,0"/>
</a>
</g>
</g>
<!-- Node2&#45;&gt;Node6 -->
<g id="edge5_Node000002_Node000006" class="edge">
<title>Node2&#45;&gt;Node6</title>
<g id="a_edge5_Node000002_Node000006"><a xlink:title=" ">
<path fill="none" stroke="#63b8ff" d="M336.83,-88.21C336.93,-88.14 337.03,-88.07 337.12,-88 382.5,-55.73 403.88,-68.3 457.12,-52 460.33,-51.02 463.6,-50.01 466.9,-49"/>
<polygon fill="none" stroke="#63b8ff" points="334.62,-85.49 329.16,-94.57 339.09,-90.88 334.62,-85.49"/>
</a>
</g>
</g>
</g>
</svg>
