<?xml version="1.0" encoding="UTF-8" standalone="no"?>
<!DOCTYPE svg PUBLIC "-//W3C//DTD SVG 1.1//EN"
 "http://www.w3.org/Graphics/SVG/1.1/DTD/svg11.dtd">
<!-- Generated by graphviz version 12.2.1 (20241206.2353)
 -->
<!-- Title: App::RemoteIOBase Pages: 1 -->
<svg width="226pt" height="300pt"
 viewBox="0.00 0.00 225.88 300.00" xmlns="http://www.w3.org/2000/svg" xmlns:xlink="http://www.w3.org/1999/xlink">
<g id="graph0" class="graph" transform="scale(1 1) rotate(0) translate(4 296)">
<title>App::RemoteIOBase</title>
<!-- Node1 -->
<g id="Node000001" class="node">
<title>Node1</title>
<g id="a_Node000001"><a xlink:title="The RemoteIOBase class is responsible for managing remote I/O operations.">
<polygon fill="#999999" stroke="none" points="159.62,-172 60.88,-172 60.88,-88 159.62,-88 159.62,-172"/>
<text text-anchor="start" x="64.88" y="-158.5" font-family="Helvetica,sans-Serif" font-size="10.00">App::RemoteIOBase</text>
<text text-anchor="start" x="108.75" y="-142.5" font-family="Helvetica,sans-Serif" font-size="10.00"> </text>
<text text-anchor="start" x="65.19" y="-126.5" font-family="Helvetica,sans-Serif" font-size="10.00">+</text>
<text text-anchor="start" x="75.5" y="-126.5" font-family="Helvetica,sans-Serif" font-size="10.00">RemoteIOBase()</text>
<text text-anchor="start" x="65.19" y="-110.5" font-family="Helvetica,sans-Serif" font-size="10.00">+</text>
<text text-anchor="start" x="75.5" y="-110.5" font-family="Helvetica,sans-Serif" font-size="10.00">~RemoteIOBase()</text>
<text text-anchor="start" x="65.19" y="-94.5" font-family="Helvetica,sans-Serif" font-size="10.00">+</text>
<text text-anchor="start" x="75.5" y="-94.5" font-family="Helvetica,sans-Serif" font-size="10.00">getName()</text>
<polygon fill="#666666" stroke="#666666" points="60.88,-154 60.88,-154 159.62,-154 159.62,-154 60.88,-154"/>
<polygon fill="#666666" stroke="#666666" points="60.88,-138 60.88,-138 159.62,-138 159.62,-138 60.88,-138"/>
<polygon fill="none" stroke="#666666" points="60.88,-88 60.88,-172 159.62,-172 159.62,-88 60.88,-88"/>
</a>
</g>
</g>
<!-- Node3 -->
<g id="Node000003" class="node">
<title>Node3</title>
<g id="a_Node000003"><a xlink:href="../../d3/d42/a00235.html" target="_top" xlink:title="A class that represents a remote I/O interface with a baud rate of 57600.">
<polygon fill="white" stroke="none" points="102.5,-52 0,-52 0,0 102.5,0 102.5,-52"/>
<text text-anchor="start" x="4" y="-38.5" font-family="Helvetica,sans-Serif" font-size="10.00">App::RemoteIO57600</text>
<text text-anchor="start" x="49.75" y="-22.5" font-family="Helvetica,sans-Serif" font-size="10.00"> </text>
<text text-anchor="start" x="5.81" y="-6.5" font-family="Helvetica,sans-Serif" font-size="10.00">+</text>
<text text-anchor="start" x="17.62" y="-6.5" font-family="Helvetica,sans-Serif" font-size="10.00">RemoteIO57600()</text>
<polygon fill="#666666" stroke="#666666" points="0,-34 0,-34 102.5,-34 102.5,-34 0,-34"/>
<polygon fill="#666666" stroke="#666666" points="0,-18 0,-18 102.5,-18 102.5,-18 0,-18"/>
<polygon fill="none" stroke="#666666" points="0,0 0,-52 102.5,-52 102.5,0 0,0"/>
</a>
</g>
</g>
<!-- Node1&#45;&gt;Node3 -->
<g id="edge2_Node000001_Node000003" class="edge">
<title>Node1&#45;&gt;Node3</title>
<g id="a_edge2_Node000001_Node000003"><a xlink:title=" ">
<path fill="none" stroke="#63b8ff" d="M80.85,-78.18C75.53,-68.98 70.21,-59.78 65.57,-51.76"/>
<polygon fill="none" stroke="#63b8ff" points="77.8,-79.89 85.83,-86.79 83.86,-76.38 77.8,-79.89"/>
</a>
</g>
</g>
<!-- Node4 -->
<g id="Node000004" class="node">
<title>Node4</title>
<g id="a_Node000004"><a xlink:href="../../d0/d27/a00239.html" target="_top" xlink:title="The RemoteIO9600 class is responsible for managing the communication with the remote I/O base at a ba...">
<polygon fill="white" stroke="none" points="217.88,-52 120.62,-52 120.62,0 217.88,0 217.88,-52"/>
<text text-anchor="start" x="124.62" y="-38.5" font-family="Helvetica,sans-Serif" font-size="10.00">App::RemoteIO9600</text>
<text text-anchor="start" x="167.75" y="-22.5" font-family="Helvetica,sans-Serif" font-size="10.00"> </text>
<text text-anchor="start" x="126.44" y="-6.5" font-family="Helvetica,sans-Serif" font-size="10.00">+</text>
<text text-anchor="start" x="138.25" y="-6.5" font-family="Helvetica,sans-Serif" font-size="10.00">RemoteIO9600()</text>
<polygon fill="#666666" stroke="#666666" points="120.62,-34 120.62,-34 217.88,-34 217.88,-34 120.62,-34"/>
<polygon fill="#666666" stroke="#666666" points="120.62,-18 120.62,-18 217.88,-18 217.88,-18 120.62,-18"/>
<polygon fill="none" stroke="#666666" points="120.62,0 120.62,-52 217.88,-52 217.88,0 120.62,0"/>
</a>
</g>
</g>
<!-- Node1&#45;&gt;Node4 -->
<g id="edge3_Node000001_Node000004" class="edge">
<title>Node1&#45;&gt;Node4</title>
<g id="a_edge3_Node000001_Node000004"><a xlink:title=" ">
<path fill="none" stroke="#63b8ff" d="M139.65,-78.18C144.97,-68.98 150.29,-59.78 154.93,-51.76"/>
<polygon fill="none" stroke="#63b8ff" points="136.64,-76.38 134.67,-86.79 142.7,-79.89 136.64,-76.38"/>
</a>
</g>
</g>
<!-- Node2 -->
<g id="Node000002" class="node">
<title>Node2</title>
<g id="a_Node000002"><a xlink:href="../../dc/d28/a00223.html" target="_top" xlink:title="Base class for application components.">
<polygon fill="white" stroke="none" points="161.12,-292 59.38,-292 59.38,-208 161.12,-208 161.12,-292"/>
<text text-anchor="start" x="63.38" y="-278.5" font-family="Helvetica,sans-Serif" font-size="10.00">App::ApplicationBase</text>
<text text-anchor="start" x="108.75" y="-262.5" font-family="Helvetica,sans-Serif" font-size="10.00"> </text>
<text text-anchor="start" x="63.88" y="-246.5" font-family="Helvetica,sans-Serif" font-size="10.00">#</text>
<text text-anchor="start" x="73.62" y="-246.5" font-family="Helvetica,sans-Serif" font-size="10.00">ApplicationBase()</text>
<text text-anchor="start" x="63.88" y="-230.5" font-family="Helvetica,sans-Serif" font-size="10.00">#</text>
<text text-anchor="start" x="73.62" y="-230.5" font-family="Helvetica,sans-Serif" font-size="10.00">~ApplicationBase()</text>
<text text-anchor="start" x="63.88" y="-214.5" font-family="Helvetica,sans-Serif" font-size="10.00">#</text>
<text text-anchor="start" x="73.62" y="-214.5" font-family="Helvetica,sans-Serif" font-size="10.00">getName()</text>
<polygon fill="#666666" stroke="#666666" points="59.38,-274 59.38,-274 161.12,-274 161.12,-274 59.38,-274"/>
<polygon fill="#666666" stroke="#666666" points="59.38,-258 59.38,-258 161.12,-258 161.12,-258 59.38,-258"/>
<polygon fill="none" stroke="#666666" points="59.38,-208 59.38,-292 161.12,-292 161.12,-208 59.38,-208"/>
</a>
</g>
</g>
<!-- Node2&#45;&gt;Node1 -->
<g id="edge1_Node000001_Node000002" class="edge">
<title>Node2&#45;&gt;Node1</title>
<g id="a_edge1_Node000001_Node000002"><a xlink:title=" ">
<path fill="none" stroke="#63b8ff" d="M110.25,-196.55C110.25,-188.27 110.25,-179.83 110.25,-171.87"/>
<polygon fill="none" stroke="#63b8ff" points="106.75,-196.55 110.25,-206.55 113.75,-196.55 106.75,-196.55"/>
</a>
</g>
</g>
</g>
</svg>
