<?xml version="1.0" encoding="UTF-8" standalone="no"?>
<!DOCTYPE svg PUBLIC "-//W3C//DTD SVG 1.1//EN"
 "http://www.w3.org/Graphics/SVG/1.1/DTD/svg11.dtd">
<!-- Generated by graphviz version 10.0.1 (20240210.2158)
 -->
<!-- Title: Lib::Xbee::Core::DigiApiFrameBuffer::append Pages: 1 -->
<svg width="442pt" height="58pt"
 viewBox="0.00 0.00 442.25 58.00" xmlns="http://www.w3.org/2000/svg" xmlns:xlink="http://www.w3.org/1999/xlink">
<g id="graph0" class="graph" transform="scale(1 1) rotate(0) translate(4 54)">
<title>Lib::Xbee::Core::DigiApiFrameBuffer::append</title>
<!-- Node1 -->
<g id="Node000001" class="node">
<title>Node1</title>
<g id="a_Node000001"><a xlink:title="Appends a sequence of bytes to the buffer.">
<polygon fill="#999999" stroke="#666666" points="434.25,-32 315.5,-32 315.5,0 434.25,0 434.25,-32"/>
<text text-anchor="start" x="323.5" y="-18.5" font-family="Helvetica,sans-Serif" font-size="10.00">Lib::Xbee::Core::DigiApi</text>
<text text-anchor="middle" x="374.88" y="-6.5" font-family="Helvetica,sans-Serif" font-size="10.00">FrameBuffer::append</text>
</a>
</g>
</g>
<!-- Node1&#45;&gt;Node1 -->
<g id="edge1_Node000001_Node000001" class="edge">
<title>Node1&#45;&gt;Node1</title>
<g id="a_edge1_Node000001_Node000001"><a xlink:title=" ">
<path fill="none" stroke="#63b8ff" d="M401.1,-43.71C396.73,-47.48 387.99,-50 374.88,-50 350.9,-50 341.53,-41.58 346.78,-32.44"/>
<polygon fill="#63b8ff" stroke="#63b8ff" points="404.54,-44.37 402.72,-33.94 397.63,-43.23 404.54,-44.37"/>
</a>
</g>
</g>
<!-- Node2 -->
<g id="Node000002" class="node">
<title>Node2</title>
<g id="a_Node000002"><a xlink:href="../../d6/d66/a00441.html#a4cf01c2c63471e8d59a5238c5e30326a" target="_top" xlink:title="Builds a Digi API frame from frame data.">
<polygon fill="white" stroke="#666666" points="279.5,-32 155.5,-32 155.5,0 279.5,0 279.5,-32"/>
<text text-anchor="start" x="163.5" y="-18.5" font-family="Helvetica,sans-Serif" font-size="10.00">Lib::Xbee::Core::Protocol</text>
<text text-anchor="middle" x="217.5" y="-6.5" font-family="Helvetica,sans-Serif" font-size="10.00">::build</text>
</a>
</g>
</g>
<!-- Node1&#45;&gt;Node2 -->
<g id="edge2_Node000001_Node000002" class="edge">
<title>Node1&#45;&gt;Node2</title>
<g id="a_edge2_Node000001_Node000002"><a xlink:title=" ">
<path fill="none" stroke="#63b8ff" d="M303.65,-16C295.73,-16 287.71,-16 279.91,-16"/>
<polygon fill="#63b8ff" stroke="#63b8ff" points="303.62,-19.5 313.62,-16 303.62,-12.5 303.62,-19.5"/>
</a>
</g>
</g>
<!-- Node3 -->
<g id="Node000003" class="node">
<title>Node3</title>
<g id="a_Node000003"><a xlink:href="../../d4/da8/a00437.html#a9815b172e850e3d6c009ed9f6f9b2c25" target="_top" xlink:title="Sends the given query.">
<polygon fill="white" stroke="#666666" points="119.5,-32 0,-32 0,0 119.5,0 119.5,-32"/>
<text text-anchor="start" x="8" y="-18.5" font-family="Helvetica,sans-Serif" font-size="10.00">Lib::Xbee::Core::Module</text>
<text text-anchor="middle" x="59.75" y="-6.5" font-family="Helvetica,sans-Serif" font-size="10.00">::send</text>
</a>
</g>
</g>
<!-- Node2&#45;&gt;Node3 -->
<g id="edge3_Node000002_Node000003" class="edge">
<title>Node2&#45;&gt;Node3</title>
<g id="a_edge3_Node000002_Node000003"><a xlink:title=" ">
<path fill="none" stroke="#63b8ff" d="M144.05,-16C135.96,-16 127.79,-16 119.9,-16"/>
<polygon fill="#63b8ff" stroke="#63b8ff" points="143.88,-19.5 153.88,-16 143.88,-12.5 143.88,-19.5"/>
</a>
</g>
</g>
</g>
</svg>
