<?xml version="1.0" encoding="UTF-8" standalone="no"?>
<!DOCTYPE svg PUBLIC "-//W3C//DTD SVG 1.1//EN"
 "http://www.w3.org/Graphics/SVG/1.1/DTD/svg11.dtd">
<!-- Generated by graphviz version 12.2.1 (20241206.2353)
 -->
<!-- Title: Leds Pages: 1 -->
<svg width="192pt" height="308pt"
 viewBox="0.00 0.00 191.75 308.00" xmlns="http://www.w3.org/2000/svg" xmlns:xlink="http://www.w3.org/1999/xlink">
<g id="graph0" class="graph" transform="scale(1 1) rotate(0) translate(4 304)">
<title>Leds</title>
<!-- Node1 -->
<g id="Node000001" class="node">
<title>Node1</title>
<g id="a_Node000001"><a xlink:title="BSP LED driver for RX, TX, association, and state LEDs.">
<polygon fill="#999999" stroke="none" points="134.25,-108 22.5,-108 22.5,0 134.25,0 134.25,-108"/>
<text text-anchor="start" x="67.88" y="-94.5" font-family="Helvetica,sans-Serif" font-size="10.00">Leds</text>
<text text-anchor="start" x="76.88" y="-78.5" font-family="Helvetica,sans-Serif" font-size="10.00"> </text>
<text text-anchor="start" x="26.5" y="-62.5" font-family="Helvetica,sans-Serif" font-size="10.00">+</text>
<text text-anchor="start" x="36.5" y="-62.5" font-family="Helvetica,sans-Serif" font-size="10.00">Leds(const Config</text>
<text text-anchor="start" x="36.5" y="-50.5" font-family="Helvetica,sans-Serif" font-size="10.00"> &amp;config)</text>
<text text-anchor="start" x="26.5" y="-34.5" font-family="Helvetica,sans-Serif" font-size="10.00">+</text>
<text text-anchor="start" x="36.5" y="-34.5" font-family="Helvetica,sans-Serif" font-size="10.00">void init() override</text>
<text text-anchor="start" x="26.5" y="-18.5" font-family="Helvetica,sans-Serif" font-size="10.00">+</text>
<text text-anchor="start" x="36.5" y="-18.5" font-family="Helvetica,sans-Serif" font-size="10.00">void handleTickEvent</text>
<text text-anchor="start" x="36.5" y="-6.5" font-family="Helvetica,sans-Serif" font-size="10.00">() override</text>
<polygon fill="#666666" stroke="#666666" points="22.5,-90 22.5,-90 134.25,-90 134.25,-90 22.5,-90"/>
<polygon fill="#666666" stroke="#666666" points="22.5,-74 22.5,-74 134.25,-74 134.25,-74 22.5,-74"/>
<polygon fill="none" stroke="#666666" points="22.5,0 22.5,-108 134.25,-108 134.25,0 22.5,0"/>
</a>
</g>
</g>
<!-- Node2 -->
<g id="Node000002" class="node">
<title>Node2</title>
<g id="a_Node000002"><a xlink:title=" ">
<polygon fill="white" stroke="none" points="56.75,-272 0,-272 0,-220 56.75,-220 56.75,-272"/>
<text text-anchor="start" x="4" y="-258.5" font-family="Helvetica,sans-Serif" font-size="10.00">DriverBase</text>
<text text-anchor="start" x="26.88" y="-242.5" font-family="Helvetica,sans-Serif" font-size="10.00"> </text>
<text text-anchor="start" x="26.88" y="-226.5" font-family="Helvetica,sans-Serif" font-size="10.00"> </text>
<polygon fill="#666666" stroke="#666666" points="0,-254 0,-254 56.75,-254 56.75,-254 0,-254"/>
<polygon fill="#666666" stroke="#666666" points="0,-238 0,-238 56.75,-238 56.75,-238 0,-238"/>
<polygon fill="none" stroke="#666666" points="0,-220 0,-272 56.75,-272 56.75,-220 0,-220"/>
</a>
</g>
</g>
<!-- Node2&#45;&gt;Node1 -->
<g id="edge1_Node000001_Node000002" class="edge">
<title>Node2&#45;&gt;Node1</title>
<g id="a_edge1_Node000001_Node000002"><a xlink:title=" ">
<path fill="none" stroke="#63b8ff" d="M37.83,-209.08C45.35,-180.51 55.97,-140.13 64.46,-107.87"/>
<polygon fill="none" stroke="#63b8ff" points="34.46,-208.14 35.3,-218.7 41.23,-209.92 34.46,-208.14"/>
</a>
</g>
</g>
<!-- Node3 -->
<g id="Node000003" class="node">
<title>Node3</title>
<g id="a_Node000003"><a xlink:href="../../df/d98/a00107.html" target="_top" xlink:title="Single LED abstraction with update callback.">
<polygon fill="white" stroke="none" points="183.75,-300 75,-300 75,-192 183.75,-192 183.75,-300"/>
<text text-anchor="start" x="121.5" y="-286.5" font-family="Helvetica,sans-Serif" font-size="10.00">Led</text>
<text text-anchor="start" x="79" y="-270.5" font-family="Helvetica,sans-Serif" font-size="10.00">+</text>
<text text-anchor="start" x="89" y="-270.5" font-family="Helvetica,sans-Serif" font-size="10.00">std::function&lt; bool</text>
<text text-anchor="start" x="89" y="-258.5" font-family="Helvetica,sans-Serif" font-size="10.00">()&gt; onUpdate</text>
<text text-anchor="start" x="79" y="-242.5" font-family="Helvetica,sans-Serif" font-size="10.00">+</text>
<text text-anchor="start" x="89" y="-242.5" font-family="Helvetica,sans-Serif" font-size="10.00">Led(const PinHandle</text>
<text text-anchor="start" x="89" y="-230.5" font-family="Helvetica,sans-Serif" font-size="10.00"> &amp;pinHandle)</text>
<text text-anchor="start" x="79" y="-214.5" font-family="Helvetica,sans-Serif" font-size="10.00">+</text>
<text text-anchor="start" x="89" y="-214.5" font-family="Helvetica,sans-Serif" font-size="10.00">void set(bool value)</text>
<text text-anchor="start" x="79" y="-198.5" font-family="Helvetica,sans-Serif" font-size="10.00">+</text>
<text text-anchor="start" x="89" y="-198.5" font-family="Helvetica,sans-Serif" font-size="10.00">void tick()</text>
<polygon fill="#666666" stroke="#666666" points="75,-282 75,-282 183.75,-282 183.75,-282 75,-282"/>
<polygon fill="#666666" stroke="#666666" points="75,-254 75,-254 87,-254 87,-254 75,-254"/>
<polygon fill="#666666" stroke="#666666" points="87,-254 87,-254 183.75,-254 183.75,-254 87,-254"/>
<polygon fill="none" stroke="#666666" points="75,-192 75,-300 183.75,-300 183.75,-192 75,-192"/>
</a>
</g>
</g>
<!-- Node3&#45;&gt;Node1 -->
<g id="edge2_Node000001_Node000003" class="edge">
<title>Node3&#45;&gt;Node1</title>
<g id="a_edge2_Node000001_Node000003"><a xlink:title=" ">
<path fill="none" stroke="#63b8ff" d="M115.17,-192.07C109.2,-169.83 102.19,-143.73 95.9,-120.3"/>
<polygon fill="none" stroke="#63b8ff" points="95.94,-120.43 90.52,-115.67 92.83,-108.84 98.25,-113.6 95.94,-120.43"/>
</a>
</g>
<text text-anchor="middle" x="134.69" y="-164.5" font-family="Helvetica,sans-Serif" font-size="10.00" fill="grey"> +ledAssoc</text>
<text text-anchor="middle" x="134.69" y="-152.5" font-family="Helvetica,sans-Serif" font-size="10.00" fill="grey">+ledRx</text>
<text text-anchor="middle" x="134.69" y="-140.5" font-family="Helvetica,sans-Serif" font-size="10.00" fill="grey">+ledState</text>
<text text-anchor="middle" x="134.69" y="-128.5" font-family="Helvetica,sans-Serif" font-size="10.00" fill="grey">+ledTx</text>
</g>
</g>
</svg>
