<?xml version="1.0" encoding="UTF-8" standalone="no"?>
<!DOCTYPE svg PUBLIC "-//W3C//DTD SVG 1.1//EN"
 "http://www.w3.org/Graphics/SVG/1.1/DTD/svg11.dtd">
<!-- Generated by graphviz version 13.1.0 (20250701.0955)
 -->
<!-- Title: Lib::Helper::Convert::HexHelper::toAscii Pages: 1 -->
<svg width="399pt" height="340pt"
 viewBox="0.00 0.00 399.00 340.00" xmlns="http://www.w3.org/2000/svg" xmlns:xlink="http://www.w3.org/1999/xlink">
<g id="graph0" class="graph" transform="scale(1 1) rotate(0) translate(4 336)">
<title>Lib::Helper::Convert::HexHelper::toAscii</title>
<!-- Node1 -->
<g id="Node000001" class="node">
<title>Node1</title>
<g id="a_Node000001"><a xlink:title="Converts a 4&#45;bit value to its ASCII hexadecimal representation.">
<polygon fill="#999999" stroke="#666666" points="391.25,-176 199,-176 199,-156 391.25,-156 391.25,-176"/>
<text xml:space="preserve" text-anchor="middle" x="295.12" y="-162.5" font-family="Helvetica,sans-Serif" font-size="10.00">Lib::Helper::Convert::HexHelper::toAscii</text>
</a>
</g>
</g>
<!-- Node2 -->
<g id="Node000002" class="node">
<title>Node2</title>
<g id="a_Node000002"><a xlink:href="../../df/d17/class_lib_1_1_helper_1_1_convert_1_1_hex_3_01uint16__t_01_4.html#a91da69ccc6941c479624db5c077d7587" target="_top" xlink:title="Converts value to BCD string.">
<polygon fill="white" stroke="#666666" points="163,-332 0,-332 0,-300 163,-300 163,-332"/>
<text xml:space="preserve" text-anchor="start" x="8" y="-318.5" font-family="Helvetica,sans-Serif" font-size="10.00">Lib::Helper::Convert::Hex&lt; uint16</text>
<text xml:space="preserve" text-anchor="middle" x="81.5" y="-306.5" font-family="Helvetica,sans-Serif" font-size="10.00">_t &gt;::toBcdString</text>
</a>
</g>
</g>
<!-- Node1&#45;&gt;Node2 -->
<g id="edge1_Node000001_Node000002" class="edge">
<title>Node1&#45;&gt;Node2</title>
<g id="a_edge1_Node000001_Node000002"><a xlink:title=" ">
<path fill="none" stroke="#63b8ff" d="M279.15,-185.02C256.71,-212.28 211.75,-262.35 163,-291 157.57,-294.19 151.7,-297.01 145.68,-299.5"/>
<polygon fill="#63b8ff" stroke="#63b8ff" points="281.6,-187.55 285.16,-177.57 276.16,-183.15 281.6,-187.55"/>
</a>
</g>
</g>
<!-- Node3 -->
<g id="Node000003" class="node">
<title>Node3</title>
<g id="a_Node000003"><a xlink:href="../../d3/d38/class_lib_1_1_helper_1_1_convert_1_1_hex_3_01uint32__t_01_4.html#a11ef74175fc0818794b7f3175799ee59" target="_top" xlink:title="Converts value to BCD string.">
<polygon fill="white" stroke="#666666" points="163,-282 0,-282 0,-250 163,-250 163,-282"/>
<text xml:space="preserve" text-anchor="start" x="8" y="-268.5" font-family="Helvetica,sans-Serif" font-size="10.00">Lib::Helper::Convert::Hex&lt; uint32</text>
<text xml:space="preserve" text-anchor="middle" x="81.5" y="-256.5" font-family="Helvetica,sans-Serif" font-size="10.00">_t &gt;::toBcdString</text>
</a>
</g>
</g>
<!-- Node1&#45;&gt;Node3 -->
<g id="edge2_Node000001_Node000003" class="edge">
<title>Node1&#45;&gt;Node3</title>
<g id="a_edge2_Node000001_Node000003"><a xlink:title=" ">
<path fill="none" stroke="#63b8ff" d="M269.19,-182.46C243.43,-198.94 201.64,-224.19 163,-241 155.89,-244.09 148.27,-246.98 140.66,-249.61"/>
<polygon fill="#63b8ff" stroke="#63b8ff" points="270.79,-185.59 277.29,-177.23 266.99,-179.72 270.79,-185.59"/>
</a>
</g>
</g>
<!-- Node4 -->
<g id="Node000004" class="node">
<title>Node4</title>
<g id="a_Node000004"><a xlink:href="../../d6/dcc/class_lib_1_1_helper_1_1_convert_1_1_hex_3_01uint8__t_01_4.html#ad1897bcc9aec5b2b3a12bcf0f17c7675" target="_top" xlink:title="Converts value to BCD string.">
<polygon fill="white" stroke="#666666" points="160.38,-232 2.62,-232 2.62,-200 160.38,-200 160.38,-232"/>
<text xml:space="preserve" text-anchor="start" x="10.62" y="-218.5" font-family="Helvetica,sans-Serif" font-size="10.00">Lib::Helper::Convert::Hex&lt; uint8</text>
<text xml:space="preserve" text-anchor="middle" x="81.5" y="-206.5" font-family="Helvetica,sans-Serif" font-size="10.00">_t &gt;::toBcdString</text>
</a>
</g>
</g>
<!-- Node1&#45;&gt;Node4 -->
<g id="edge3_Node000001_Node000004" class="edge">
<title>Node1&#45;&gt;Node4</title>
<g id="a_edge3_Node000001_Node000004"><a xlink:title=" ">
<path fill="none" stroke="#63b8ff" d="M238.78,-179.08C212.31,-185.33 180.33,-192.89 152.21,-199.53"/>
<polygon fill="#63b8ff" stroke="#63b8ff" points="239.36,-182.54 248.29,-176.83 237.75,-175.72 239.36,-182.54"/>
</a>
</g>
</g>
<!-- Node5 -->
<g id="Node000005" class="node">
<title>Node5</title>
<g id="a_Node000005"><a xlink:href="../../df/d17/class_lib_1_1_helper_1_1_convert_1_1_hex_3_01uint16__t_01_4.html#ae7aff74ab0ceeb39e77bdb740d48d0ec" target="_top" xlink:title="Converts value to hexadecimal string.">
<polygon fill="white" stroke="#666666" points="163,-182 0,-182 0,-150 163,-150 163,-182"/>
<text xml:space="preserve" text-anchor="start" x="8" y="-168.5" font-family="Helvetica,sans-Serif" font-size="10.00">Lib::Helper::Convert::Hex&lt; uint16</text>
<text xml:space="preserve" text-anchor="middle" x="81.5" y="-156.5" font-family="Helvetica,sans-Serif" font-size="10.00">_t &gt;::toString</text>
</a>
</g>
</g>
<!-- Node1&#45;&gt;Node5 -->
<g id="edge4_Node000001_Node000005" class="edge">
<title>Node1&#45;&gt;Node5</title>
<g id="a_edge4_Node000001_Node000005"><a xlink:title=" ">
<path fill="none" stroke="#63b8ff" d="M187.23,-166C179.23,-166 171.24,-166 163.44,-166"/>
<polygon fill="#63b8ff" stroke="#63b8ff" points="187.01,-169.5 197.01,-166 187.01,-162.5 187.01,-169.5"/>
</a>
</g>
</g>
<!-- Node6 -->
<g id="Node000006" class="node">
<title>Node6</title>
<g id="a_Node000006"><a xlink:href="../../d3/d38/class_lib_1_1_helper_1_1_convert_1_1_hex_3_01uint32__t_01_4.html#a2121836d99a6be20a488cf0af634b9d7" target="_top" xlink:title="Converts value to hexadecimal string.">
<polygon fill="white" stroke="#666666" points="163,-132 0,-132 0,-100 163,-100 163,-132"/>
<text xml:space="preserve" text-anchor="start" x="8" y="-118.5" font-family="Helvetica,sans-Serif" font-size="10.00">Lib::Helper::Convert::Hex&lt; uint32</text>
<text xml:space="preserve" text-anchor="middle" x="81.5" y="-106.5" font-family="Helvetica,sans-Serif" font-size="10.00">_t &gt;::toString</text>
</a>
</g>
</g>
<!-- Node1&#45;&gt;Node6 -->
<g id="edge5_Node000001_Node000006" class="edge">
<title>Node1&#45;&gt;Node6</title>
<g id="a_edge5_Node000001_Node000006"><a xlink:title=" ">
<path fill="none" stroke="#63b8ff" d="M238.78,-152.92C212.31,-146.67 180.33,-139.11 152.21,-132.47"/>
<polygon fill="#63b8ff" stroke="#63b8ff" points="237.75,-156.28 248.29,-155.17 239.36,-149.46 237.75,-156.28"/>
</a>
</g>
</g>
<!-- Node7 -->
<g id="Node000007" class="node">
<title>Node7</title>
<g id="a_Node000007"><a xlink:href="../../db/d8b/class_lib_1_1_helper_1_1_convert_1_1_hex_3_01uint64__t_01_4.html#af4e2725cfa6a1adf369e28acc7855c85" target="_top" xlink:title="Converts value to hexadecimal string.">
<polygon fill="white" stroke="#666666" points="163,-82 0,-82 0,-50 163,-50 163,-82"/>
<text xml:space="preserve" text-anchor="start" x="8" y="-68.5" font-family="Helvetica,sans-Serif" font-size="10.00">Lib::Helper::Convert::Hex&lt; uint64</text>
<text xml:space="preserve" text-anchor="middle" x="81.5" y="-56.5" font-family="Helvetica,sans-Serif" font-size="10.00">_t &gt;::toString</text>
</a>
</g>
</g>
<!-- Node1&#45;&gt;Node7 -->
<g id="edge6_Node000001_Node000007" class="edge">
<title>Node1&#45;&gt;Node7</title>
<g id="a_edge6_Node000001_Node000007"><a xlink:title=" ">
<path fill="none" stroke="#63b8ff" d="M269.19,-149.54C243.43,-133.06 201.64,-107.81 163,-91 155.89,-87.91 148.27,-85.02 140.66,-82.39"/>
<polygon fill="#63b8ff" stroke="#63b8ff" points="266.99,-152.28 277.29,-154.77 270.79,-146.41 266.99,-152.28"/>
</a>
</g>
</g>
<!-- Node8 -->
<g id="Node000008" class="node">
<title>Node8</title>
<g id="a_Node000008"><a xlink:href="../../d6/dcc/class_lib_1_1_helper_1_1_convert_1_1_hex_3_01uint8__t_01_4.html#a30b913df58306c421cd678dec9ee6be9" target="_top" xlink:title="Converts value to hexadecimal string.">
<polygon fill="white" stroke="#666666" points="160.38,-32 2.62,-32 2.62,0 160.38,0 160.38,-32"/>
<text xml:space="preserve" text-anchor="start" x="10.62" y="-18.5" font-family="Helvetica,sans-Serif" font-size="10.00">Lib::Helper::Convert::Hex&lt; uint8</text>
<text xml:space="preserve" text-anchor="middle" x="81.5" y="-6.5" font-family="Helvetica,sans-Serif" font-size="10.00">_t &gt;::toString</text>
</a>
</g>
</g>
<!-- Node1&#45;&gt;Node8 -->
<g id="edge7_Node000001_Node000008" class="edge">
<title>Node1&#45;&gt;Node8</title>
<g id="a_edge7_Node000001_Node000008"><a xlink:title=" ">
<path fill="none" stroke="#63b8ff" d="M279.15,-146.98C256.71,-119.72 211.75,-69.65 163,-41 157.57,-37.81 151.7,-34.99 145.68,-32.5"/>
<polygon fill="#63b8ff" stroke="#63b8ff" points="276.16,-148.85 285.16,-154.43 281.6,-144.45 276.16,-148.85"/>
</a>
</g>
</g>
</g>
</svg>
