<?xml version="1.0" encoding="UTF-8" standalone="no"?>
<!DOCTYPE svg PUBLIC "-//W3C//DTD SVG 1.1//EN"
 "http://www.w3.org/Graphics/SVG/1.1/DTD/svg11.dtd">
<!-- Generated by graphviz version 13.1.0 (20250701.0955)
 -->
<!-- Title: Buffer Pages: 1 -->
<svg width="284pt" height="98pt"
 viewBox="0.00 0.00 284.00 98.00" xmlns="http://www.w3.org/2000/svg" xmlns:xlink="http://www.w3.org/1999/xlink">
<g id="graph0" class="graph" transform="scale(1 1) rotate(0) translate(4 93.5)">
<title>Buffer</title>
<!-- Node1 -->
<g id="Node000001" class="node">
<title>Node1</title>
<g id="a_Node000001"><a xlink:title="Buffer for managing dynamic or external byte buffers.">
<polygon fill="#999999" stroke="none" points="173.62,-18.5 141.62,-18.5 141.62,0 173.62,0 173.62,-18.5"/>
<text xml:space="preserve" text-anchor="start" x="145.62" y="-5.95" font-family="Arial" font-size="9.00">Buffer</text>
<polygon fill="none" stroke="#666666" points="141.62,0 141.62,-18.5 173.62,-18.5 173.62,0 141.62,0"/>
</a>
</g>
</g>
<!-- Node2 -->
<g id="Node000002" class="node">
<title>Node2</title>
<g id="a_Node000002"><a xlink:title=" ">
<polygon fill="white" stroke="none" points="97.25,-89.5 0,-89.5 0,-71 97.25,-71 97.25,-89.5"/>
<text xml:space="preserve" text-anchor="start" x="4" y="-76.95" font-family="Arial" font-size="9.00">unique_ptr&lt; uint8_t[]&gt;</text>
<polygon fill="none" stroke="#bfbfbf" points="0,-71 0,-89.5 97.25,-89.5 97.25,-71 0,-71"/>
</a>
</g>
</g>
<!-- Node2&#45;&gt;Node1 -->
<g id="edge1_Node000001_Node000002" class="edge">
<title>Node2&#45;&gt;Node1</title>
<g id="a_edge1_Node000001_Node000002"><a xlink:title=" ">
<path fill="none" stroke="#63b8ff" d="M55.23,-71.02C63.15,-61.6 77.23,-46.23 92.12,-36.5 103.57,-29.02 117.49,-23.07 129.55,-18.74"/>
<polygon fill="none" stroke="#63b8ff" points="129.46,-18.77 133.88,-13.08 140.84,-14.97 136.42,-20.66 129.46,-18.77"/>
</a>
</g>
<text xml:space="preserve" text-anchor="start" x="95.12" y="-41.45" font-family="Arial" font-size="9.00" fill="grey">#holder</text>
</g>
<!-- Node3 -->
<g id="Node000003" class="node">
<title>Node3</title>
<g id="a_Node000003"><a xlink:title=" ">
<polygon fill="white" stroke="none" points="151.5,-89.5 115.75,-89.5 115.75,-71 151.5,-71 151.5,-89.5"/>
<text xml:space="preserve" text-anchor="start" x="119.75" y="-76.95" font-family="Arial" font-size="9.00">uint8_t</text>
<polygon fill="none" stroke="#bfbfbf" points="115.75,-71 115.75,-89.5 151.5,-89.5 151.5,-71 115.75,-71"/>
</a>
</g>
</g>
<!-- Node3&#45;&gt;Node1 -->
<g id="edge2_Node000001_Node000003" class="edge">
<title>Node3&#45;&gt;Node1</title>
<g id="a_edge2_Node000001_Node000003"><a xlink:title=" ">
<path fill="none" stroke="#63b8ff" d="M133.15,-71.07C132.93,-62.23 133.43,-47.89 137.88,-36.5 138.95,-33.74 140.41,-31.01 142.04,-28.43"/>
<polygon fill="none" stroke="#63b8ff" points="141.95,-28.56 142.38,-21.36 149.2,-18.99 148.76,-26.19 141.95,-28.56"/>
</a>
</g>
<text xml:space="preserve" text-anchor="start" x="140.88" y="-41.45" font-family="Arial" font-size="9.00" fill="grey">#ptr</text>
</g>
<!-- Node4 -->
<g id="Node000004" class="node">
<title>Node4</title>
<g id="a_Node000004"><a xlink:title=" ">
<polygon fill="white" stroke="none" points="201.62,-89.5 169.62,-89.5 169.62,-71 201.62,-71 201.62,-89.5"/>
<text xml:space="preserve" text-anchor="start" x="173.62" y="-76.95" font-family="Arial" font-size="9.00">size_t</text>
<polygon fill="none" stroke="#bfbfbf" points="169.62,-71 169.62,-89.5 201.62,-89.5 201.62,-71 169.62,-71"/>
</a>
</g>
</g>
<!-- Node4&#45;&gt;Node1 -->
<g id="edge3_Node000001_Node000004" class="edge">
<title>Node4&#45;&gt;Node1</title>
<g id="a_edge3_Node000001_Node000004"><a xlink:title=" ">
<path fill="none" stroke="#63b8ff" d="M182.3,-71.06C178.26,-61.1 171.3,-43.94 165.79,-30.38"/>
<polygon fill="none" stroke="#63b8ff" points="165.79,-30.38 159.83,-26.32 161.28,-19.26 167.24,-23.32 165.79,-30.38"/>
</a>
</g>
<text xml:space="preserve" text-anchor="start" x="177.96" y="-41.45" font-family="Arial" font-size="9.00" fill="grey">#length</text>
</g>
<!-- Node5 -->
<g id="Node000005" class="node">
<title>Node5</title>
<g id="a_Node000005"><a xlink:title=" ">
<polygon fill="white" stroke="none" points="254.62,-89.5 228.62,-89.5 228.62,-71 254.62,-71 254.62,-89.5"/>
<text xml:space="preserve" text-anchor="start" x="232.62" y="-76.95" font-family="Arial" font-size="9.00">bool</text>
<polygon fill="none" stroke="#bfbfbf" points="228.62,-71 228.62,-89.5 254.62,-89.5 254.62,-71 228.62,-71"/>
</a>
</g>
</g>
<!-- Node5&#45;&gt;Node1 -->
<g id="edge4_Node000001_Node000005" class="edge">
<title>Node5&#45;&gt;Node1</title>
<g id="a_edge4_Node000001_Node000005"><a xlink:title=" ">
<path fill="none" stroke="#63b8ff" d="M238.54,-71.33C234.52,-61.93 226.68,-46.29 215.62,-36.5 207.07,-28.93 195.97,-23.19 185.77,-19.04"/>
<polygon fill="none" stroke="#63b8ff" points="185.72,-19.02 178.72,-20.73 174.45,-14.92 181.45,-13.21 185.72,-19.02"/>
</a>
</g>
<text xml:space="preserve" text-anchor="start" x="231.58" y="-41.45" font-family="Arial" font-size="9.00" fill="grey">#isOwned</text>
</g>
</g>
</svg>
