<?xml version="1.0" encoding="UTF-8" standalone="no"?>
<!DOCTYPE svg PUBLIC "-//W3C//DTD SVG 1.1//EN"
 "http://www.w3.org/Graphics/SVG/1.1/DTD/svg11.dtd">
<!-- Generated by graphviz version 12.2.1 (20241206.2353)
 -->
<!-- Title: TIM.hpp Pages: 1 -->
<svg width="549pt" height="264pt"
 viewBox="0.00 0.00 549.00 264.00" xmlns="http://www.w3.org/2000/svg" xmlns:xlink="http://www.w3.org/1999/xlink">
<g id="graph0" class="graph" transform="scale(1 1) rotate(0) translate(4 260)">
<title>TIM.hpp</title>
<!-- Node1 -->
<g id="Node000001" class="node">
<title>Node1</title>
<g id="a_Node000001"><a xlink:title="Header file for the TIM module in the HAL library.">
<polygon fill="#999999" stroke="#666666" points="318.75,-256 266.75,-256 266.75,-236 318.75,-236 318.75,-256"/>
<text text-anchor="middle" x="292.75" y="-242.5" font-family="Helvetica,sans-Serif" font-size="10.00">TIM.hpp</text>
</a>
</g>
</g>
<!-- Node2 -->
<g id="Node000002" class="node">
<title>Node2</title>
<g id="a_Node000002"><a xlink:href="../../de/d3d/a00409.html" target="_top" xlink:title="This file contains the definition of the Handle class for handling TIM peripherals.">
<polygon fill="white" stroke="#666666" points="290.75,-200 148.75,-200 148.75,-180 290.75,-180 290.75,-200"/>
<text text-anchor="middle" x="219.75" y="-186.5" font-family="Helvetica,sans-Serif" font-size="10.00">TIM/components/Handle.hpp</text>
</a>
</g>
</g>
<!-- Node1&#45;&gt;Node2 -->
<g id="edge1_Node000001_Node000002" class="edge">
<title>Node1&#45;&gt;Node2</title>
<g id="a_edge1_Node000001_Node000002"><a xlink:title=" ">
<path fill="none" stroke="#63b8ff" d="M280.03,-235.59C269.36,-227.7 253.87,-216.24 241.27,-206.92"/>
<polygon fill="#63b8ff" stroke="#63b8ff" points="243.66,-204.33 233.54,-201.2 239.49,-209.96 243.66,-204.33"/>
</a>
</g>
</g>
<!-- Node4 -->
<g id="Node000004" class="node">
<title>Node4</title>
<g id="a_Node000004"><a xlink:href="../../dc/de6/a00167.html" target="_top" xlink:title="Header file for the Timer Encoder class.">
<polygon fill="white" stroke="#666666" points="433.62,-200 317.88,-200 317.88,-180 433.62,-180 433.62,-200"/>
<text text-anchor="middle" x="375.75" y="-186.5" font-family="Helvetica,sans-Serif" font-size="10.00">TIM/TimerEncoder.hpp</text>
</a>
</g>
</g>
<!-- Node1&#45;&gt;Node4 -->
<g id="edge3_Node000001_Node000004" class="edge">
<title>Node1&#45;&gt;Node4</title>
<g id="a_edge3_Node000001_Node000004"><a xlink:title=" ">
<path fill="none" stroke="#63b8ff" d="M307.21,-235.59C319.51,-227.59 337.43,-215.93 351.86,-206.54"/>
<polygon fill="#63b8ff" stroke="#63b8ff" points="353.44,-209.69 359.91,-201.3 349.62,-203.82 353.44,-209.69"/>
</a>
</g>
</g>
<!-- Node3 -->
<g id="Node000003" class="node">
<title>Node3</title>
<g id="a_Node000003"><a xlink:title=" ">
<polygon fill="#e0e0e0" stroke="#999999" points="225.38,-144 180.12,-144 180.12,-124 225.38,-124 225.38,-144"/>
<text text-anchor="middle" x="202.75" y="-130.5" font-family="Helvetica,sans-Serif" font-size="10.00">cstdint</text>
</a>
</g>
</g>
<!-- Node2&#45;&gt;Node3 -->
<g id="edge2_Node000002_Node000003" class="edge">
<title>Node2&#45;&gt;Node3</title>
<g id="a_edge2_Node000002_Node000003"><a xlink:title=" ">
<path fill="none" stroke="#63b8ff" d="M216.79,-179.59C214.67,-172.86 211.73,-163.53 209.09,-155.15"/>
<polygon fill="#63b8ff" stroke="#63b8ff" points="212.47,-154.23 206.13,-145.74 205.8,-156.33 212.47,-154.23"/>
</a>
</g>
</g>
<!-- Node5 -->
<g id="Node000005" class="node">
<title>Node5</title>
<g id="a_Node000005"><a xlink:href="../../d6/db8/a00158.html" target="_top" xlink:title=" ">
<polygon fill="white" stroke="#666666" points="356.5,-144 243,-144 243,-124 356.5,-124 356.5,-144"/>
<text text-anchor="middle" x="299.75" y="-130.5" font-family="Helvetica,sans-Serif" font-size="10.00">components/Base.hpp</text>
</a>
</g>
</g>
<!-- Node4&#45;&gt;Node5 -->
<g id="edge4_Node000004_Node000005" class="edge">
<title>Node4&#45;&gt;Node5</title>
<g id="a_edge4_Node000004_Node000005"><a xlink:title=" ">
<path fill="none" stroke="#63b8ff" d="M362.51,-179.59C351.46,-171.74 335.47,-160.38 322.39,-151.09"/>
<polygon fill="#63b8ff" stroke="#63b8ff" points="324.5,-148.3 314.33,-145.36 320.45,-154 324.5,-148.3"/>
</a>
</g>
</g>
<!-- Node9 -->
<g id="Node000009" class="node">
<title>Node9</title>
<g id="a_Node000009"><a xlink:title=" ">
<polygon fill="#e0e0e0" stroke="#999999" points="435.75,-20 377.75,-20 377.75,0 435.75,0 435.75,-20"/>
<text text-anchor="middle" x="406.75" y="-6.5" font-family="Helvetica,sans-Serif" font-size="10.00">functional</text>
</a>
</g>
</g>
<!-- Node4&#45;&gt;Node9 -->
<g id="edge14_Node000004_Node000009" class="edge">
<title>Node4&#45;&gt;Node9</title>
<g id="a_edge14_Node000004_Node000009"><a xlink:title=" ">
<path fill="none" stroke="#63b8ff" d="M377.33,-179.93C382.1,-152.56 396.42,-70.31 403.16,-31.59"/>
<polygon fill="#63b8ff" stroke="#63b8ff" points="406.61,-32.21 404.88,-21.76 399.71,-31.01 406.61,-32.21"/>
</a>
</g>
</g>
<!-- Node13 -->
<g id="Node000013" class="node">
<title>Node13</title>
<g id="a_Node000013"><a xlink:href="../../db/ddf/a00164.html" target="_top" xlink:title="Template class definition for Timer in the TIM component of the HAL library.">
<polygon fill="white" stroke="#666666" points="541,-144 412.5,-144 412.5,-124 541,-124 541,-144"/>
<text text-anchor="middle" x="476.75" y="-130.5" font-family="Helvetica,sans-Serif" font-size="10.00">components/template.hpp</text>
</a>
</g>
</g>
<!-- Node4&#45;&gt;Node13 -->
<g id="edge12_Node000004_Node000013" class="edge">
<title>Node4&#45;&gt;Node13</title>
<g id="a_edge12_Node000004_Node000013"><a xlink:title=" ">
<path fill="none" stroke="#63b8ff" d="M393.34,-179.59C408.67,-171.4 431.17,-159.37 448.94,-149.87"/>
<polygon fill="#63b8ff" stroke="#63b8ff" points="450.52,-152.99 457.69,-145.19 447.22,-146.82 450.52,-152.99"/>
</a>
</g>
</g>
<!-- Node6 -->
<g id="Node000006" class="node">
<title>Node6</title>
<g id="a_Node000006"><a xlink:href="../../dc/dfe/a00125.html" target="_top" xlink:title=" ">
<polygon fill="white" stroke="#666666" points="335.5,-88 186,-88 186,-56 335.5,-56 335.5,-88"/>
<text text-anchor="start" x="194" y="-74.5" font-family="Helvetica,sans-Serif" font-size="10.00">HAL\Common\DeviceManager</text>
<text text-anchor="middle" x="260.75" y="-62.5" font-family="Helvetica,sans-Serif" font-size="10.00">Base.hpp</text>
</a>
</g>
</g>
<!-- Node5&#45;&gt;Node6 -->
<g id="edge5_Node000005_Node000006" class="edge">
<title>Node5&#45;&gt;Node6</title>
<g id="a_edge5_Node000005_Node000006"><a xlink:title=" ">
<path fill="none" stroke="#63b8ff" d="M293.66,-123.62C289.13,-116.65 282.72,-106.8 276.77,-97.64"/>
<polygon fill="#63b8ff" stroke="#63b8ff" points="279.8,-95.89 271.42,-89.41 273.93,-99.7 279.8,-95.89"/>
</a>
</g>
</g>
<!-- Node7 -->
<g id="Node000007" class="node">
<title>Node7</title>
<g id="a_Node000007"><a xlink:href="../../d1/d8b/a00406.html" target="_top" xlink:title="Header file for the Handle class template.">
<polygon fill="white" stroke="#666666" points="65.5,-20 0,-20 0,0 65.5,0 65.5,-20"/>
<text text-anchor="middle" x="32.75" y="-6.5" font-family="Helvetica,sans-Serif" font-size="10.00">Handle.hpp</text>
</a>
</g>
</g>
<!-- Node6&#45;&gt;Node7 -->
<g id="edge6_Node000006_Node000007" class="edge">
<title>Node6&#45;&gt;Node7</title>
<g id="a_edge6_Node000006_Node000007"><a xlink:title=" ">
<path fill="none" stroke="#63b8ff" d="M202.03,-55.55C162.98,-45.27 112.51,-31.99 76.87,-22.61"/>
<polygon fill="#63b8ff" stroke="#63b8ff" points="77.88,-19.26 67.32,-20.1 76.1,-26.03 77.88,-19.26"/>
</a>
</g>
</g>
<!-- Node8 -->
<g id="Node000008" class="node">
<title>Node8</title>
<g id="a_Node000008"><a xlink:title=" ">
<polygon fill="#e0e0e0" stroke="#999999" points="131.88,-20 83.62,-20 83.62,0 131.88,0 131.88,-20"/>
<text text-anchor="middle" x="107.75" y="-6.5" font-family="Helvetica,sans-Serif" font-size="10.00">cassert</text>
</a>
</g>
</g>
<!-- Node6&#45;&gt;Node8 -->
<g id="edge7_Node000006_Node000008" class="edge">
<title>Node6&#45;&gt;Node8</title>
<g id="a_edge7_Node000006_Node000008"><a xlink:title=" ">
<path fill="none" stroke="#63b8ff" d="M221.35,-55.55C196.89,-45.96 165.75,-33.75 142.27,-24.54"/>
<polygon fill="#63b8ff" stroke="#63b8ff" points="143.74,-21.35 133.15,-20.96 141.18,-27.87 143.74,-21.35"/>
</a>
</g>
</g>
<!-- Node6&#45;&gt;Node9 -->
<g id="edge8_Node000006_Node000009" class="edge">
<title>Node6&#45;&gt;Node9</title>
<g id="a_edge8_Node000006_Node000009"><a xlink:title=" ">
<path fill="none" stroke="#63b8ff" d="M298.35,-55.55C321.58,-46 351.13,-33.86 373.51,-24.66"/>
<polygon fill="#63b8ff" stroke="#63b8ff" points="374.54,-28.02 382.46,-20.98 371.88,-21.55 374.54,-28.02"/>
</a>
</g>
</g>
<!-- Node10 -->
<g id="Node000010" class="node">
<title>Node10</title>
<g id="a_Node000010"><a xlink:title=" ">
<polygon fill="#e0e0e0" stroke="#999999" points="201.38,-20 150.12,-20 150.12,0 201.38,0 201.38,-20"/>
<text text-anchor="middle" x="175.75" y="-6.5" font-family="Helvetica,sans-Serif" font-size="10.00">memory</text>
</a>
</g>
</g>
<!-- Node6&#45;&gt;Node10 -->
<g id="edge9_Node000006_Node000010" class="edge">
<title>Node6&#45;&gt;Node10</title>
<g id="a_edge9_Node000006_Node000010"><a xlink:title=" ">
<path fill="none" stroke="#63b8ff" d="M238.86,-55.55C226.44,-46.78 210.92,-35.83 198.38,-26.97"/>
<polygon fill="#63b8ff" stroke="#63b8ff" points="200.5,-24.19 190.31,-21.28 196.47,-29.91 200.5,-24.19"/>
</a>
</g>
</g>
<!-- Node11 -->
<g id="Node000011" class="node">
<title>Node11</title>
<g id="a_Node000011"><a xlink:title=" ">
<polygon fill="#e0e0e0" stroke="#999999" points="302.12,-20 219.38,-20 219.38,0 302.12,0 302.12,-20"/>
<text text-anchor="middle" x="260.75" y="-6.5" font-family="Helvetica,sans-Serif" font-size="10.00">unordered_map</text>
</a>
</g>
</g>
<!-- Node6&#45;&gt;Node11 -->
<g id="edge10_Node000006_Node000011" class="edge">
<title>Node6&#45;&gt;Node11</title>
<g id="a_edge10_Node000006_Node000011"><a xlink:title=" ">
<path fill="none" stroke="#63b8ff" d="M260.75,-55.55C260.75,-48.34 260.75,-39.66 260.75,-31.88"/>
<polygon fill="#63b8ff" stroke="#63b8ff" points="264.25,-31.92 260.75,-21.92 257.25,-31.92 264.25,-31.92"/>
</a>
</g>
</g>
<!-- Node12 -->
<g id="Node000012" class="node">
<title>Node12</title>
<g id="a_Node000012"><a xlink:title=" ">
<polygon fill="#e0e0e0" stroke="#999999" points="359.38,-20 320.12,-20 320.12,0 359.38,0 359.38,-20"/>
<text text-anchor="middle" x="339.75" y="-6.5" font-family="Helvetica,sans-Serif" font-size="10.00">utility</text>
</a>
</g>
</g>
<!-- Node6&#45;&gt;Node12 -->
<g id="edge11_Node000006_Node000012" class="edge">
<title>Node6&#45;&gt;Node12</title>
<g id="a_edge11_Node000006_Node000012"><a xlink:title=" ">
<path fill="none" stroke="#63b8ff" d="M281.09,-55.55C292.52,-46.87 306.78,-36.04 318.37,-27.24"/>
<polygon fill="#63b8ff" stroke="#63b8ff" points="320.31,-30.16 326.16,-21.32 316.08,-24.58 320.31,-30.16"/>
</a>
</g>
</g>
<!-- Node14 -->
<g id="Node000014" class="node">
<title>Node14</title>
<g id="a_Node000014"><a xlink:href="../../d6/d7d/a00161.html" target="_top" xlink:title="This file contains the definition of the Mode enumeration for the TIM component in the HAL library.">
<polygon fill="white" stroke="#666666" points="506.12,-82 447.38,-82 447.38,-62 506.12,-62 506.12,-82"/>
<text text-anchor="middle" x="476.75" y="-68.5" font-family="Helvetica,sans-Serif" font-size="10.00">Mode.hpp</text>
</a>
</g>
</g>
<!-- Node13&#45;&gt;Node14 -->
<g id="edge13_Node000013_Node000014" class="edge">
<title>Node13&#45;&gt;Node14</title>
<g id="a_edge13_Node000013_Node000014"><a xlink:title=" ">
<path fill="none" stroke="#63b8ff" d="M476.75,-123.62C476.75,-115.56 476.75,-103.65 476.75,-93.41"/>
<polygon fill="#63b8ff" stroke="#63b8ff" points="480.25,-93.63 476.75,-83.63 473.25,-93.63 480.25,-93.63"/>
</a>
</g>
</g>
</g>
</svg>
