<?xml version="1.0" encoding="UTF-8" standalone="no"?>
<!DOCTYPE svg PUBLIC "-//W3C//DTD SVG 1.1//EN"
 "http://www.w3.org/Graphics/SVG/1.1/DTD/svg11.dtd">
<!-- Generated by graphviz version 13.1.0 (20250701.0955)
 -->
<!-- Title: Template.hpp Pages: 1 -->
<svg width="83pt" height="140pt"
 viewBox="0.00 0.00 83.00 140.00" xmlns="http://www.w3.org/2000/svg" xmlns:xlink="http://www.w3.org/1999/xlink">
<g id="graph0" class="graph" transform="scale(1 1) rotate(0) translate(4 136)">
<title>Template.hpp</title>
<!-- Node1 -->
<g id="Node000001" class="node">
<title>Node1</title>
<g id="a_Node000001"><a xlink:title="Template declaration for CAN bus service specialization by mode.">
<polygon fill="#999999" stroke="#666666" points="74.5,-132 0,-132 0,-112 74.5,-112 74.5,-132"/>
<text xml:space="preserve" text-anchor="middle" x="37.25" y="-118.5" font-family="Helvetica,sans-Serif" font-size="10.00">Template.hpp</text>
</a>
</g>
</g>
<!-- Node2 -->
<g id="Node000002" class="node">
<title>Node2</title>
<g id="a_Node000002"><a xlink:href="../../dc/d0a/a02345.html" target="_top" xlink:title="CAN bus operation mode enumeration.">
<polygon fill="white" stroke="#666666" points="66.62,-76 7.88,-76 7.88,-56 66.62,-56 66.62,-76"/>
<text xml:space="preserve" text-anchor="middle" x="37.25" y="-62.5" font-family="Helvetica,sans-Serif" font-size="10.00">Mode.hpp</text>
</a>
</g>
</g>
<!-- Node1&#45;&gt;Node2 -->
<g id="edge1_Node000001_Node000002" class="edge">
<title>Node1&#45;&gt;Node2</title>
<g id="a_edge1_Node000001_Node000002"><a xlink:title=" ">
<path fill="none" stroke="#63b8ff" d="M37.25,-111.59C37.25,-105.01 37.25,-95.96 37.25,-87.73"/>
<polygon fill="#63b8ff" stroke="#63b8ff" points="40.75,-87.81 37.25,-77.81 33.75,-87.81 40.75,-87.81"/>
</a>
</g>
</g>
<!-- Node3 -->
<g id="Node000003" class="node">
<title>Node3</title>
<g id="a_Node000003"><a xlink:title=" ">
<polygon fill="#e0e0e0" stroke="#999999" points="59.88,-20 14.62,-20 14.62,0 59.88,0 59.88,-20"/>
<text xml:space="preserve" text-anchor="middle" x="37.25" y="-6.5" font-family="Helvetica,sans-Serif" font-size="10.00">cstdint</text>
</a>
</g>
</g>
<!-- Node2&#45;&gt;Node3 -->
<g id="edge2_Node000002_Node000003" class="edge">
<title>Node2&#45;&gt;Node3</title>
<g id="a_edge2_Node000002_Node000003"><a xlink:title=" ">
<path fill="none" stroke="#63b8ff" d="M37.25,-55.59C37.25,-49.01 37.25,-39.96 37.25,-31.73"/>
<polygon fill="#63b8ff" stroke="#63b8ff" points="40.75,-31.81 37.25,-21.81 33.75,-31.81 40.75,-31.81"/>
</a>
</g>
</g>
</g>
</svg>
