<?xml version="1.0" encoding="UTF-8" standalone="no"?>
<!DOCTYPE svg PUBLIC "-//W3C//DTD SVG 1.1//EN"
 "http://www.w3.org/Graphics/SVG/1.1/DTD/svg11.dtd">
<!-- Generated by graphviz version 13.1.0 (20250701.0955)
 -->
<!-- Title: Lib::BSP::XPT2046::Driver::Impl Pages: 1 -->
<svg width="983pt" height="316pt"
 viewBox="0.00 0.00 983.00 316.00" xmlns="http://www.w3.org/2000/svg" xmlns:xlink="http://www.w3.org/1999/xlink">
<g id="graph0" class="graph" transform="scale(1 1) rotate(0) translate(4 312)">
<title>Lib::BSP::XPT2046::Driver::Impl</title>
<!-- Node1 -->
<g id="Node000001" class="node">
<title>Node1</title>
<g id="a_Node000001"><a xlink:title="Internal data storage for Driver.">
<polygon fill="#999999" stroke="none" points="541.5,-29 451,-29 451,0 541.5,0 541.5,-29"/>
<text xml:space="preserve" text-anchor="start" x="455" y="-16.45" font-family="Arial" font-size="9.00">Lib::BSP::XPT2046::</text>
<text xml:space="preserve" text-anchor="start" x="473" y="-5.95" font-family="Arial" font-size="9.00">Driver::Impl</text>
<polygon fill="none" stroke="#666666" points="451,0 451,-29 541.5,-29 541.5,0 451,0"/>
</a>
</g>
</g>
<!-- Node2 -->
<g id="Node000002" class="node">
<title>Node2</title>
<g id="a_Node000002"><a xlink:href="../../df/d96/a01347.html" target="_top" xlink:title="Touch position.">
<polygon fill="white" stroke="none" points="90.5,-159.25 0,-159.25 0,-130.25 90.5,-130.25 90.5,-159.25"/>
<text xml:space="preserve" text-anchor="start" x="4" y="-146.7" font-family="Arial" font-size="9.00">Lib::BSP::XPT2046::</text>
<text xml:space="preserve" text-anchor="start" x="14.12" y="-136.2" font-family="Arial" font-size="9.00">Driver::Position</text>
<polygon fill="none" stroke="#666666" points="0,-130.25 0,-159.25 90.5,-159.25 90.5,-130.25 0,-130.25"/>
</a>
</g>
</g>
<!-- Node2&#45;&gt;Node1 -->
<g id="edge1_Node000001_Node000002" class="edge">
<title>Node2&#45;&gt;Node1</title>
<g id="a_edge1_Node000001_Node000002"><a xlink:title=" ">
<path fill="none" stroke="#63b8ff" d="M49.32,-130.3C56.68,-108.54 74.46,-66.13 106,-47 133.7,-30.2 336.57,-20.95 438.35,-17.33"/>
<polygon fill="none" stroke="#63b8ff" points="438.23,-17.33 444.09,-13.12 450.22,-16.91 444.37,-21.12 438.23,-17.33"/>
</a>
</g>
<text xml:space="preserve" text-anchor="start" x="109" y="-95.45" font-family="Arial" font-size="9.00" fill="grey">+position</text>
<text xml:space="preserve" text-anchor="start" x="109" y="-80.95" font-family="Arial" font-size="9.00" fill="grey">+rawPosition</text>
<text xml:space="preserve" text-anchor="start" x="109" y="-66.45" font-family="Arial" font-size="9.00" fill="grey">+tempPosition</text>
<text xml:space="preserve" text-anchor="start" x="109" y="-51.95" font-family="Arial" font-size="9.00" fill="grey">+tempRawPosition</text>
</g>
<!-- Node3 -->
<g id="Node000003" class="node">
<title>Node3</title>
<g id="a_Node000003"><a xlink:title=" ">
<polygon fill="white" stroke="none" points="414.12,-308 378.38,-308 378.38,-289.5 414.12,-289.5 414.12,-308"/>
<text xml:space="preserve" text-anchor="start" x="382.38" y="-295.45" font-family="Arial" font-size="9.00">int32_t</text>
<polygon fill="none" stroke="#bfbfbf" points="378.38,-289.5 378.38,-308 414.12,-308 414.12,-289.5 378.38,-289.5"/>
</a>
</g>
</g>
<!-- Node3&#45;&gt;Node2 -->
<g id="edge2_Node000002_Node000003" class="edge">
<title>Node3&#45;&gt;Node2</title>
<g id="a_edge2_Node000002_Node000003"><a xlink:title=" ">
<path fill="none" stroke="#63b8ff" d="M378.84,-290.21C325.86,-267.27 165.47,-197.81 88.01,-164.27"/>
<polygon fill="none" stroke="#63b8ff" points="88.16,-164.33 81.07,-165.62 77.15,-159.56 84.25,-158.28 88.16,-164.33"/>
</a>
</g>
<text xml:space="preserve" text-anchor="start" x="332.11" y="-230.95" font-family="Arial" font-size="9.00" fill="grey">+x</text>
<text xml:space="preserve" text-anchor="start" x="332.11" y="-216.45" font-family="Arial" font-size="9.00" fill="grey">+y</text>
</g>
<!-- Node12 -->
<g id="Node000012" class="node">
<title>Node12</title>
<g id="a_Node000012"><a xlink:href="../../d3/da4/a01343.html" target="_top" xlink:title="Touch screen parameters.">
<polygon fill="white" stroke="none" points="651.5,-159.25 561,-159.25 561,-130.25 651.5,-130.25 651.5,-159.25"/>
<text xml:space="preserve" text-anchor="start" x="565" y="-146.7" font-family="Arial" font-size="9.00">Lib::BSP::XPT2046::</text>
<text xml:space="preserve" text-anchor="start" x="568" y="-136.2" font-family="Arial" font-size="9.00">Driver::Parameters</text>
<polygon fill="none" stroke="#666666" points="561,-130.25 561,-159.25 651.5,-159.25 651.5,-130.25 561,-130.25"/>
</a>
</g>
</g>
<!-- Node3&#45;&gt;Node12 -->
<g id="edge12_Node000012_Node000003" class="edge">
<title>Node3&#45;&gt;Node12</title>
<g id="a_edge12_Node000012_Node000003"><a xlink:title=" ">
<path fill="none" stroke="#63b8ff" d="M404.32,-289.72C424.61,-269.82 479.91,-217.3 532.75,-182.5 542.45,-176.11 553.4,-170.07 563.84,-164.81"/>
<polygon fill="none" stroke="#63b8ff" points="563.72,-164.87 567.36,-158.64 574.5,-159.61 570.86,-165.83 563.72,-164.87"/>
</a>
</g>
<text xml:space="preserve" text-anchor="start" x="535.75" y="-259.95" font-family="Arial" font-size="9.00" fill="grey">+dispHeight</text>
<text xml:space="preserve" text-anchor="start" x="535.75" y="-245.45" font-family="Arial" font-size="9.00" fill="grey">+dispWidth</text>
<text xml:space="preserve" text-anchor="start" x="535.75" y="-230.95" font-family="Arial" font-size="9.00" fill="grey">+xMax</text>
<text xml:space="preserve" text-anchor="start" x="535.75" y="-216.45" font-family="Arial" font-size="9.00" fill="grey">+xMin</text>
<text xml:space="preserve" text-anchor="start" x="535.75" y="-201.95" font-family="Arial" font-size="9.00" fill="grey">+yMax</text>
<text xml:space="preserve" text-anchor="start" x="535.75" y="-187.45" font-family="Arial" font-size="9.00" fill="grey">+yMin</text>
</g>
<!-- Node4 -->
<g id="Node000004" class="node">
<title>Node4</title>
<g id="a_Node000004"><a xlink:href="../../d5/df4/a01551.html" target="_top" xlink:title=" ">
<polygon fill="white" stroke="none" points="210.12,-164.5 108.38,-164.5 108.38,-125 210.12,-125 210.12,-164.5"/>
<text xml:space="preserve" text-anchor="start" x="112.38" y="-151.95" font-family="Arial" font-size="9.00">Lib::HAL::GPIO::Pin</text>
<text xml:space="preserve" text-anchor="start" x="112.38" y="-141.45" font-family="Arial" font-size="9.00">&lt; Lib::HAL::GPIO::Type</text>
<text xml:space="preserve" text-anchor="start" x="139.75" y="-130.95" font-family="Arial" font-size="9.00">::INPUT &gt;</text>
<polygon fill="none" stroke="#666666" points="108.38,-125 108.38,-164.5 210.12,-164.5 210.12,-125 108.38,-125"/>
</a>
</g>
</g>
<!-- Node4&#45;&gt;Node1 -->
<g id="edge3_Node000001_Node000004" class="edge">
<title>Node4&#45;&gt;Node1</title>
<g id="a_edge3_Node000001_Node000004"><a xlink:title=" ">
<path fill="none" stroke="#63b8ff" d="M174.51,-125.23C194.28,-102.65 231,-65.25 271.25,-47 300.24,-33.85 382.14,-24.76 438.69,-19.84"/>
<polygon fill="none" stroke="#63b8ff" points="438.55,-19.85 444.19,-15.36 450.5,-18.84 444.86,-23.33 438.55,-19.85"/>
</a>
</g>
<text xml:space="preserve" text-anchor="start" x="274.25" y="-80.95" font-family="Arial" font-size="9.00" fill="grey">+nirq</text>
<text xml:space="preserve" text-anchor="start" x="274.25" y="-66.45" font-family="Arial" font-size="9.00" fill="grey">+so</text>
</g>
<!-- Node5 -->
<g id="Node000005" class="node">
<title>Node5</title>
<g id="a_Node000005"><a xlink:href="../../d5/df4/a01551.html" target="_top" xlink:title=" ">
<polygon fill="white" stroke="none" points="330.12,-164.5 228.38,-164.5 228.38,-125 330.12,-125 330.12,-164.5"/>
<text xml:space="preserve" text-anchor="start" x="232.38" y="-151.95" font-family="Arial" font-size="9.00">Lib::HAL::GPIO::Pin</text>
<text xml:space="preserve" text-anchor="start" x="232.38" y="-141.45" font-family="Arial" font-size="9.00">&lt; Lib::HAL::GPIO::Type</text>
<text xml:space="preserve" text-anchor="start" x="254.88" y="-130.95" font-family="Arial" font-size="9.00">::OUTPUT &gt;</text>
<polygon fill="none" stroke="#666666" points="228.38,-125 228.38,-164.5 330.12,-164.5 330.12,-125 228.38,-125"/>
</a>
</g>
</g>
<!-- Node5&#45;&gt;Node1 -->
<g id="edge4_Node000001_Node000005" class="edge">
<title>Node5&#45;&gt;Node1</title>
<g id="a_edge4_Node000001_Node000005"><a xlink:title=" ">
<path fill="none" stroke="#63b8ff" d="M289.65,-125.32C303.12,-103.19 328.72,-66.62 360.75,-47 383.99,-32.77 413.06,-24.96 438.32,-20.68"/>
<polygon fill="none" stroke="#63b8ff" points="438.37,-20.67 443.7,-15.82 450.23,-18.88 444.9,-23.73 438.37,-20.67"/>
</a>
</g>
<text xml:space="preserve" text-anchor="start" x="363.75" y="-88.2" font-family="Arial" font-size="9.00" fill="grey">+nss</text>
<text xml:space="preserve" text-anchor="start" x="363.75" y="-73.7" font-family="Arial" font-size="9.00" fill="grey">+sck</text>
<text xml:space="preserve" text-anchor="start" x="363.75" y="-59.2" font-family="Arial" font-size="9.00" fill="grey">+si</text>
</g>
<!-- Node6 -->
<g id="Node000006" class="node">
<title>Node6</title>
<g id="a_Node000006"><a xlink:href="../../d5/d12/a01799.html" target="_top" xlink:title=" ">
<polygon fill="white" stroke="none" points="444.5,-159.25 348,-159.25 348,-130.25 444.5,-130.25 444.5,-159.25"/>
<text xml:space="preserve" text-anchor="start" x="352" y="-146.7" font-family="Arial" font-size="9.00">Lib::Helper::Integrator</text>
<text xml:space="preserve" text-anchor="start" x="367.38" y="-136.2" font-family="Arial" font-size="9.00">&lt; int32_t, 10 &gt;</text>
<polygon fill="none" stroke="#666666" points="348,-130.25 348,-159.25 444.5,-159.25 444.5,-130.25 348,-130.25"/>
</a>
</g>
</g>
<!-- Node6&#45;&gt;Node1 -->
<g id="edge5_Node000001_Node000006" class="edge">
<title>Node6&#45;&gt;Node1</title>
<g id="a_edge5_Node000001_Node000006"><a xlink:title=" ">
<path fill="none" stroke="#63b8ff" d="M393.16,-130.57C389.25,-110.32 385.07,-71.34 404,-47 412.67,-35.85 425.49,-28.62 438.83,-23.94"/>
<polygon fill="none" stroke="#63b8ff" points="438.75,-23.97 443.38,-18.44 450.27,-20.58 445.64,-26.11 438.75,-23.97"/>
</a>
</g>
<text xml:space="preserve" text-anchor="start" x="407" y="-80.95" font-family="Arial" font-size="9.00" fill="grey">+integratorX</text>
<text xml:space="preserve" text-anchor="start" x="407" y="-66.45" font-family="Arial" font-size="9.00" fill="grey">+integratorY</text>
</g>
<!-- Node7 -->
<g id="Node000007" class="node">
<title>Node7</title>
<g id="a_Node000007"><a xlink:title=" ">
<polygon fill="white" stroke="none" points="487.88,-154 462.62,-154 462.62,-135.5 487.88,-135.5 487.88,-154"/>
<text xml:space="preserve" text-anchor="start" x="466.62" y="-141.45" font-family="Arial" font-size="9.00">float</text>
<polygon fill="none" stroke="#bfbfbf" points="462.62,-135.5 462.62,-154 487.88,-154 487.88,-135.5 462.62,-135.5"/>
</a>
</g>
</g>
<!-- Node7&#45;&gt;Node1 -->
<g id="edge6_Node000001_Node000007" class="edge">
<title>Node7&#45;&gt;Node1</title>
<g id="a_edge6_Node000001_Node000007"><a xlink:title=" ">
<path fill="none" stroke="#63b8ff" d="M472.74,-135.67C467.91,-118.66 458.72,-78.16 470,-47 470.98,-44.28 472.32,-41.63 473.86,-39.1"/>
<polygon fill="none" stroke="#63b8ff" points="473.81,-39.17 474.23,-31.97 481.04,-29.6 480.62,-36.8 473.81,-39.17"/>
</a>
</g>
<text xml:space="preserve" text-anchor="start" x="473" y="-80.95" font-family="Arial" font-size="9.00" fill="grey">+devX</text>
<text xml:space="preserve" text-anchor="start" x="473" y="-66.45" font-family="Arial" font-size="9.00" fill="grey">+devY</text>
</g>
<!-- Node8 -->
<g id="Node000008" class="node">
<title>Node8</title>
<g id="a_Node000008"><a xlink:title=" ">
<polygon fill="white" stroke="none" points="537.25,-154 511.25,-154 511.25,-135.5 537.25,-135.5 537.25,-154"/>
<text xml:space="preserve" text-anchor="start" x="515.25" y="-141.45" font-family="Arial" font-size="9.00">bool</text>
<polygon fill="none" stroke="#bfbfbf" points="511.25,-135.5 511.25,-154 537.25,-154 537.25,-135.5 511.25,-135.5"/>
</a>
</g>
</g>
<!-- Node8&#45;&gt;Node1 -->
<g id="edge7_Node000001_Node000008" class="edge">
<title>Node8&#45;&gt;Node1</title>
<g id="a_edge7_Node000001_Node000008"><a xlink:title=" ">
<path fill="none" stroke="#63b8ff" d="M522.5,-135.73C518.45,-117.17 508.28,-70.62 501.86,-41.19"/>
<polygon fill="none" stroke="#63b8ff" points="501.88,-41.28 496.69,-36.27 499.32,-29.56 504.51,-34.56 501.88,-41.28"/>
</a>
</g>
<text xml:space="preserve" text-anchor="start" x="518.98" y="-80.95" font-family="Arial" font-size="9.00" fill="grey">+isReady</text>
<text xml:space="preserve" text-anchor="start" x="518.98" y="-66.45" font-family="Arial" font-size="9.00" fill="grey">+lastPressState</text>
</g>
<!-- Node9 -->
<g id="Node000009" class="node">
<title>Node9</title>
<g id="a_Node000009"><a xlink:title=" ">
<polygon fill="white" stroke="none" points="869.12,-308 833.38,-308 833.38,-289.5 869.12,-289.5 869.12,-308"/>
<text xml:space="preserve" text-anchor="start" x="837.38" y="-295.45" font-family="Arial" font-size="9.00">uint8_t</text>
<polygon fill="none" stroke="#bfbfbf" points="833.38,-289.5 833.38,-308 869.12,-308 869.12,-289.5 833.38,-289.5"/>
</a>
</g>
</g>
<!-- Node9&#45;&gt;Node1 -->
<g id="edge8_Node000001_Node000009" class="edge">
<title>Node9&#45;&gt;Node1</title>
<g id="a_edge8_Node000001_Node000009"><a xlink:title=" ">
<path fill="none" stroke="#63b8ff" d="M868.88,-290.39C876.83,-286.1 885.49,-279.87 890.25,-271.5 939.62,-184.72 956.16,-114.12 882.25,-47 858.53,-25.46 656.07,-18.53 554.24,-16.4"/>
<polygon fill="none" stroke="#63b8ff" points="554.35,-16.4 548.28,-20.28 542.36,-16.16 548.43,-12.28 554.35,-16.4"/>
</a>
</g>
<text xml:space="preserve" text-anchor="start" x="935.53" y="-141.45" font-family="Arial" font-size="9.00" fill="grey">+rotation</text>
</g>
<!-- Node9&#45;&gt;Node12 -->
<g id="edge13_Node000012_Node000009" class="edge">
<title>Node9&#45;&gt;Node12</title>
<g id="a_edge13_Node000012_Node000009"><a xlink:title=" ">
<path fill="none" stroke="#63b8ff" d="M840.37,-289.68C813.78,-270.1 743.07,-219.05 680.25,-182.5 669.69,-176.35 657.96,-170.23 647.01,-164.79"/>
<polygon fill="none" stroke="#63b8ff" points="647.13,-164.85 639.98,-165.81 636.34,-159.59 643.49,-158.62 647.13,-164.85"/>
</a>
</g>
<text xml:space="preserve" text-anchor="start" x="816.87" y="-230.95" font-family="Arial" font-size="9.00" fill="grey">+rotationFlip</text>
<text xml:space="preserve" text-anchor="start" x="816.87" y="-216.45" font-family="Arial" font-size="9.00" fill="grey">+rotationNormal</text>
</g>
<!-- Node10 -->
<g id="Node000010" class="node">
<title>Node10</title>
<g id="a_Node000010"><a xlink:title=" ">
<polygon fill="white" stroke="none" points="666.75,-308 625.75,-308 625.75,-289.5 666.75,-289.5 666.75,-308"/>
<text xml:space="preserve" text-anchor="start" x="629.75" y="-295.45" font-family="Arial" font-size="9.00">uint32_t</text>
<polygon fill="none" stroke="#bfbfbf" points="625.75,-289.5 625.75,-308 666.75,-308 666.75,-289.5 625.75,-289.5"/>
</a>
</g>
</g>
<!-- Node10&#45;&gt;Node1 -->
<g id="edge9_Node000001_Node000010" class="edge">
<title>Node10&#45;&gt;Node1</title>
<g id="a_edge9_Node000001_Node000010"><a xlink:title=" ">
<path fill="none" stroke="#63b8ff" d="M660.06,-289.57C666.24,-285.09 672.88,-278.94 676.25,-271.5 688.73,-244 679.52,-57.61 670.25,-47 655.18,-29.74 598.53,-21.9 553.91,-18.36"/>
<polygon fill="none" stroke="#63b8ff" points="553.97,-18.37 547.69,-21.92 542,-17.5 548.27,-13.94 553.97,-18.37"/>
</a>
</g>
<text xml:space="preserve" text-anchor="start" x="684.75" y="-141.45" font-family="Arial" font-size="9.00" fill="grey">+debounceTime</text>
</g>
<!-- Node10&#45;&gt;Node12 -->
<g id="edge14_Node000012_Node000010" class="edge">
<title>Node10&#45;&gt;Node12</title>
<g id="a_edge14_Node000012_Node000010"><a xlink:title=" ">
<path fill="none" stroke="#63b8ff" d="M625.86,-290.48C617.36,-286.32 608.35,-280.16 603.5,-271.5 586.16,-240.5 591.96,-198.13 598.5,-171.35"/>
<polygon fill="none" stroke="#63b8ff" points="598.5,-171.37 596.21,-164.53 601.63,-159.78 603.93,-166.62 598.5,-171.37"/>
</a>
</g>
<text xml:space="preserve" text-anchor="start" x="606.5" y="-223.7" font-family="Arial" font-size="9.00" fill="grey">+debounceTime</text>
</g>
<!-- Node11 -->
<g id="Node000011" class="node">
<title>Node11</title>
<g id="a_Node000011"><a xlink:href="../../d6/d3b/a01459.html" target="_top" xlink:title="Timeout utility for FreeRTOS tick&#45;based timing.">
<polygon fill="white" stroke="none" points="887,-154 781.5,-154 781.5,-135.5 887,-135.5 887,-154"/>
<text xml:space="preserve" text-anchor="start" x="785.5" y="-141.45" font-family="Arial" font-size="9.00">Lib::FreeRTOS::Timeout</text>
<polygon fill="none" stroke="#666666" points="781.5,-135.5 781.5,-154 887,-154 887,-135.5 781.5,-135.5"/>
</a>
</g>
</g>
<!-- Node11&#45;&gt;Node1 -->
<g id="edge10_Node000001_Node000011" class="edge">
<title>Node11&#45;&gt;Node1</title>
<g id="a_edge10_Node000001_Node000011"><a xlink:title=" ">
<path fill="none" stroke="#63b8ff" d="M826.34,-135.57C807.32,-116.47 756.7,-68.87 704.25,-47 656.13,-26.94 597.01,-19.45 554.12,-16.76"/>
<polygon fill="none" stroke="#63b8ff" points="554.24,-16.77 548.03,-20.44 542.25,-16.12 548.46,-12.45 554.24,-16.77"/>
</a>
</g>
<text xml:space="preserve" text-anchor="start" x="797.18" y="-73.7" font-family="Arial" font-size="9.00" fill="grey">+timeoutDebounce</text>
</g>
<!-- Node12&#45;&gt;Node1 -->
<g id="edge11_Node000001_Node000012" class="edge">
<title>Node12&#45;&gt;Node1</title>
<g id="a_edge11_Node000001_Node000012"><a xlink:title=" ">
<path fill="none" stroke="#63b8ff" d="M607.85,-130.41C609.53,-109.95 609.57,-70.69 589.25,-47 579.99,-36.2 566.88,-29.1 553.42,-24.42"/>
<polygon fill="none" stroke="#63b8ff" points="553.43,-24.43 546.55,-26.57 541.92,-21.04 548.81,-18.9 553.43,-24.43"/>
</a>
</g>
<text xml:space="preserve" text-anchor="start" x="611.31" y="-73.7" font-family="Arial" font-size="9.00" fill="grey">+parameters</text>
</g>
</g>
</svg>
