<?xml version="1.0" encoding="UTF-8" standalone="no"?>
<!DOCTYPE svg PUBLIC "-//W3C//DTD SVG 1.1//EN"
 "http://www.w3.org/Graphics/SVG/1.1/DTD/svg11.dtd">
<!-- Generated by graphviz version 10.0.1 (20240210.2158)
 -->
<!-- Title: Helper.hpp Pages: 1 -->
<svg width="182pt" height="84pt"
 viewBox="0.00 0.00 182.25 84.00" xmlns="http://www.w3.org/2000/svg" xmlns:xlink="http://www.w3.org/1999/xlink">
<g id="graph0" class="graph" transform="scale(1 1) rotate(0) translate(4 80)">
<title>Helper.hpp</title>
<!-- Node1 -->
<g id="Node000001" class="node">
<title>Node1</title>
<g id="a_Node000001"><a xlink:title="Helper functions for byte swapping, conversion, and vector manipulation.">
<polygon fill="#999999" stroke="#666666" points="136.75,-76 74.25,-76 74.25,-56 136.75,-56 136.75,-76"/>
<text text-anchor="middle" x="105.5" y="-62.5" font-family="Helvetica,sans-Serif" font-size="10.00">Helper.hpp</text>
</a>
</g>
</g>
<!-- Node2 -->
<g id="Node000002" class="node">
<title>Node2</title>
<g id="a_Node000002"><a xlink:title=" ">
<polygon fill="#e0e0e0" stroke="#999999" points="115,-20 0,-20 0,0 115,0 115,-20"/>
<text text-anchor="middle" x="57.5" y="-6.5" font-family="Helvetica,sans-Serif" font-size="10.00">Helper/SwapBytes.hpp</text>
</a>
</g>
</g>
<!-- Node1&#45;&gt;Node2 -->
<g id="edge1_Node000001_Node000002" class="edge">
<title>Node1&#45;&gt;Node2</title>
<g id="a_edge1_Node000001_Node000002"><a xlink:title=" ">
<path fill="none" stroke="#63b8ff" d="M97.14,-55.59C90.6,-48.24 81.32,-37.8 73.38,-28.87"/>
<polygon fill="#63b8ff" stroke="#63b8ff" points="76.03,-26.58 66.77,-21.43 70.8,-31.23 76.03,-26.58"/>
</a>
</g>
</g>
<!-- Node3 -->
<g id="Node000003" class="node">
<title>Node3</title>
<g id="a_Node000003"><a xlink:title=" ">
<polygon fill="#e0e0e0" stroke="#999999" points="174.25,-20 132.75,-20 132.75,0 174.25,0 174.25,-20"/>
<text text-anchor="middle" x="153.5" y="-6.5" font-family="Helvetica,sans-Serif" font-size="10.00">vector</text>
</a>
</g>
</g>
<!-- Node1&#45;&gt;Node3 -->
<g id="edge2_Node000001_Node000003" class="edge">
<title>Node1&#45;&gt;Node3</title>
<g id="a_edge2_Node000001_Node000003"><a xlink:title=" ">
<path fill="none" stroke="#63b8ff" d="M113.86,-55.59C120.4,-48.24 129.68,-37.8 137.62,-28.87"/>
<polygon fill="#63b8ff" stroke="#63b8ff" points="140.2,-31.23 144.23,-21.43 134.97,-26.58 140.2,-31.23"/>
</a>
</g>
</g>
</g>
</svg>
