<?xml version="1.0" encoding="UTF-8" standalone="no"?>
<!DOCTYPE svg PUBLIC "-//W3C//DTD SVG 1.1//EN"
 "http://www.w3.org/Graphics/SVG/1.1/DTD/svg11.dtd">
<!-- Generated by graphviz version 13.1.0 (20250701.0955)
 -->
<!-- Title: SPI.hpp Pages: 1 -->
<svg width="865pt" height="308pt"
 viewBox="0.00 0.00 865.00 308.00" xmlns="http://www.w3.org/2000/svg" xmlns:xlink="http://www.w3.org/1999/xlink">
<g id="graph0" class="graph" transform="scale(1 1) rotate(0) translate(4 304)">
<title>SPI.hpp</title>
<!-- Node1 -->
<g id="Node000001" class="node">
<title>Node1</title>
<g id="a_Node000001"><a xlink:title="SPI port interface header.">
<polygon fill="#999999" stroke="#666666" points="448.12,-300 396.88,-300 396.88,-280 448.12,-280 448.12,-300"/>
<text xml:space="preserve" text-anchor="middle" x="422.5" y="-286.5" font-family="Helvetica,sans-Serif" font-size="10.00">SPI.hpp</text>
</a>
</g>
</g>
<!-- Node2 -->
<g id="Node000002" class="node">
<title>Node2</title>
<g id="a_Node000002"><a xlink:href="../../d1/d47/a02300.html" target="_top" xlink:title="ILI9341 display driver implementation.">
<polygon fill="white" stroke="#666666" points="64,-244 3,-244 3,-224 64,-224 64,-244"/>
<text xml:space="preserve" text-anchor="middle" x="33.5" y="-230.5" font-family="Helvetica,sans-Serif" font-size="10.00">Driver.hpp</text>
</a>
</g>
</g>
<!-- Node1&#45;&gt;Node2 -->
<g id="edge1_Node000001_Node000002" class="edge">
<title>Node1&#45;&gt;Node2</title>
<g id="a_edge1_Node000001_Node000002"><a xlink:title=" ">
<path fill="none" stroke="#63b8ff" d="M385.34,-285.44C321.21,-279.03 185.76,-264.3 72.5,-244 69.76,-243.51 66.93,-242.95 64.1,-242.36"/>
<polygon fill="#63b8ff" stroke="#63b8ff" points="384.66,-288.89 394.95,-286.39 385.35,-281.93 384.66,-288.89"/>
</a>
</g>
</g>
<!-- Node7 -->
<g id="Node000007" class="node">
<title>Node7</title>
<g id="a_Node000007"><a xlink:href="../../dc/da4/a02303.html" target="_top" xlink:title="ST7789 Display Driver implementation.">
<polygon fill="white" stroke="#666666" points="143,-244 82,-244 82,-224 143,-224 143,-244"/>
<text xml:space="preserve" text-anchor="middle" x="112.5" y="-230.5" font-family="Helvetica,sans-Serif" font-size="10.00">Driver.hpp</text>
</a>
</g>
</g>
<!-- Node1&#45;&gt;Node7 -->
<g id="edge6_Node000001_Node000007" class="edge">
<title>Node1&#45;&gt;Node7</title>
<g id="a_edge6_Node000001_Node000007"><a xlink:title=" ">
<path fill="none" stroke="#63b8ff" d="M385.34,-283.04C334.02,-274.73 238.6,-258.99 157.5,-244 152.96,-243.16 148.16,-242.24 143.46,-241.32"/>
<polygon fill="#63b8ff" stroke="#63b8ff" points="384.58,-286.46 395.01,-284.6 385.69,-279.55 384.58,-286.46"/>
</a>
</g>
</g>
<!-- Node9 -->
<g id="Node000009" class="node">
<title>Node9</title>
<g id="a_Node000009"><a xlink:href="../../d3/dc5/a02306.html" target="_top" xlink:title="LAN9252 EtherCAT PDI driver implementation.">
<polygon fill="white" stroke="#666666" points="300,-188 239,-188 239,-168 300,-168 300,-188"/>
<text xml:space="preserve" text-anchor="middle" x="269.5" y="-174.5" font-family="Helvetica,sans-Serif" font-size="10.00">Driver.hpp</text>
</a>
</g>
</g>
<!-- Node1&#45;&gt;Node9 -->
<g id="edge8_Node000001_Node000009" class="edge">
<title>Node1&#45;&gt;Node9</title>
<g id="a_edge8_Node000001_Node000009"><a xlink:title=" ">
<path fill="none" stroke="#63b8ff" d="M385.11,-287.33C325.9,-283.82 214.74,-273.39 190.5,-244 171.46,-220.91 211.71,-200.06 241.45,-188.5"/>
<polygon fill="#63b8ff" stroke="#63b8ff" points="384.88,-290.82 395.05,-287.88 385.26,-283.84 384.88,-290.82"/>
</a>
</g>
</g>
<!-- Node10 -->
<g id="Node000010" class="node">
<title>Node10</title>
<g id="a_Node000010"><a xlink:href="../../d4/de7/a02270.html" target="_top" xlink:title="Base class and supporting types for SPI flash memory drivers.">
<polygon fill="white" stroke="#666666" points="283.25,-244 199.75,-244 199.75,-224 283.25,-224 283.25,-244"/>
<text xml:space="preserve" text-anchor="middle" x="241.5" y="-230.5" font-family="Helvetica,sans-Serif" font-size="10.00">DriverBase.hpp</text>
</a>
</g>
</g>
<!-- Node1&#45;&gt;Node10 -->
<g id="edge9_Node000001_Node000010" class="edge">
<title>Node1&#45;&gt;Node10</title>
<g id="a_edge9_Node000001_Node000010"><a xlink:title=" ">
<path fill="none" stroke="#63b8ff" d="M385.54,-277.97C352.48,-268.11 304.52,-253.8 273.17,-244.45"/>
<polygon fill="#63b8ff" stroke="#63b8ff" points="384.53,-281.33 395.12,-280.83 386.53,-274.62 384.53,-281.33"/>
</a>
</g>
</g>
<!-- Node11 -->
<g id="Node000011" class="node">
<title>Node11</title>
<g id="a_Node000011"><a xlink:href="../../db/dab/a00089.html" target="_top" xlink:title="Declares the Inputs class for managing multiple digital input ports and SPI&#45;based input scanning.">
<polygon fill="white" stroke="#666666" points="453.38,-244 391.62,-244 391.62,-224 453.38,-224 453.38,-244"/>
<text xml:space="preserve" text-anchor="middle" x="422.5" y="-230.5" font-family="Helvetica,sans-Serif" font-size="10.00">Inputs.hpp</text>
</a>
</g>
</g>
<!-- Node1&#45;&gt;Node11 -->
<g id="edge10_Node000001_Node000011" class="edge">
<title>Node1&#45;&gt;Node11</title>
<g id="a_edge10_Node000001_Node000011"><a xlink:title=" ">
<path fill="none" stroke="#63b8ff" d="M422.5,-268.13C422.5,-259.9 422.5,-250.85 422.5,-244.3"/>
<polygon fill="#63b8ff" stroke="#63b8ff" points="419,-268.08 422.5,-278.08 426,-268.08 419,-268.08"/>
</a>
</g>
</g>
<!-- Node13 -->
<g id="Node000013" class="node">
<title>Node13</title>
<g id="a_Node000013"><a xlink:href="../../d0/d27/a00239.html" target="_top" xlink:title="Base class for digital input port abstraction in STM32 firmware.">
<polygon fill="white" stroke="#666666" points="607.62,-188 523.38,-188 523.38,-168 607.62,-168 607.62,-188"/>
<text xml:space="preserve" text-anchor="middle" x="565.5" y="-174.5" font-family="Helvetica,sans-Serif" font-size="10.00">InputsBase.hpp</text>
</a>
</g>
</g>
<!-- Node1&#45;&gt;Node13 -->
<g id="edge13_Node000001_Node000013" class="edge">
<title>Node1&#45;&gt;Node13</title>
<g id="a_edge13_Node000001_Node000013"><a xlink:title=" ">
<path fill="none" stroke="#63b8ff" d="M441.53,-272.32C457.09,-258.89 479.82,-239.73 500.5,-224 517.43,-211.12 537.69,-197.34 551.04,-188.47"/>
<polygon fill="#63b8ff" stroke="#63b8ff" points="439.25,-269.67 434,-278.87 443.84,-274.96 439.25,-269.67"/>
</a>
</g>
</g>
<!-- Node15 -->
<g id="Node000015" class="node">
<title>Node15</title>
<g id="a_Node000015"><a xlink:href="../../d6/d82/a00293.html" target="_top" xlink:title="EtherCAT LAN9252 SPI interface abstraction.">
<polygon fill="white" stroke="#666666" points="374,-244 301,-244 301,-224 374,-224 374,-244"/>
<text xml:space="preserve" text-anchor="middle" x="337.5" y="-230.5" font-family="Helvetica,sans-Serif" font-size="10.00">Interface.hpp</text>
</a>
</g>
</g>
<!-- Node1&#45;&gt;Node15 -->
<g id="edge15_Node000001_Node000015" class="edge">
<title>Node1&#45;&gt;Node15</title>
<g id="a_edge15_Node000001_Node000015"><a xlink:title=" ">
<path fill="none" stroke="#63b8ff" d="M398.17,-273.54C383.41,-264.17 365.06,-252.51 352.42,-244.48"/>
<polygon fill="#63b8ff" stroke="#63b8ff" points="396.1,-276.37 406.42,-278.78 399.85,-270.47 396.1,-276.37"/>
</a>
</g>
</g>
<!-- Node16 -->
<g id="Node000016" class="node">
<title>Node16</title>
<g id="a_Node000016"><a xlink:href="../../d9/d77/a00095.html" target="_top" xlink:title="Declares the Outputs class for output device management and communication.">
<polygon fill="white" stroke="#666666" points="593.62,-244 509.38,-244 509.38,-224 593.62,-224 593.62,-244"/>
<text xml:space="preserve" text-anchor="middle" x="551.5" y="-230.5" font-family="Helvetica,sans-Serif" font-size="10.00">Outputs.V2.hpp</text>
</a>
</g>
</g>
<!-- Node1&#45;&gt;Node16 -->
<g id="edge17_Node000001_Node000016" class="edge">
<title>Node1&#45;&gt;Node16</title>
<g id="a_edge17_Node000001_Node000016"><a xlink:title=" ">
<path fill="none" stroke="#63b8ff" d="M455.3,-275.27C478.31,-265.64 508.48,-253.01 528.85,-244.48"/>
<polygon fill="#63b8ff" stroke="#63b8ff" points="454.24,-271.92 446.37,-279.01 456.94,-278.38 454.24,-271.92"/>
</a>
</g>
</g>
<!-- Node17 -->
<g id="Node000017" class="node">
<title>Node17</title>
<g id="a_Node000017"><a xlink:href="../../d8/d9a/a02447.html" target="_top" xlink:title="Template base for digital output port arrays with SPI/grouping logic.">
<polygon fill="white" stroke="#666666" points="717.38,-188 625.62,-188 625.62,-168 717.38,-168 717.38,-188"/>
<text xml:space="preserve" text-anchor="middle" x="671.5" y="-174.5" font-family="Helvetica,sans-Serif" font-size="10.00">OutputsBase.hpp</text>
</a>
</g>
</g>
<!-- Node1&#45;&gt;Node17 -->
<g id="edge18_Node000001_Node000017" class="edge">
<title>Node1&#45;&gt;Node17</title>
<g id="a_edge18_Node000001_Node000017"><a xlink:title=" ">
<path fill="none" stroke="#63b8ff" d="M459.59,-288.73C528.42,-287.36 671.71,-280.13 702.5,-244 717.1,-226.87 695.84,-201.69 681.93,-188.26"/>
<polygon fill="#63b8ff" stroke="#63b8ff" points="459.89,-285.23 449.95,-288.89 460,-292.23 459.89,-285.23"/>
</a>
</g>
</g>
<!-- Node18 -->
<g id="Node000018" class="node">
<title>Node18</title>
<g id="a_Node000018"><a xlink:href="../../d3/d1a/a00251.html" target="_top" xlink:title="Configuration for digital peripheral ports.">
<polygon fill="white" stroke="#666666" points="693.12,-244 611.88,-244 611.88,-224 693.12,-224 693.12,-244"/>
<text xml:space="preserve" text-anchor="middle" x="652.5" y="-230.5" font-family="Helvetica,sans-Serif" font-size="10.00">PortConfig.hpp</text>
</a>
</g>
</g>
<!-- Node1&#45;&gt;Node18 -->
<g id="edge20_Node000001_Node000018" class="edge">
<title>Node1&#45;&gt;Node18</title>
<g id="a_edge20_Node000001_Node000018"><a xlink:title=" ">
<path fill="none" stroke="#63b8ff" d="M459.51,-280.31C501.38,-270.48 569.31,-254.53 612.41,-244.41"/>
<polygon fill="#63b8ff" stroke="#63b8ff" points="458.85,-276.87 449.91,-282.56 460.45,-283.69 458.85,-276.87"/>
</a>
</g>
</g>
<!-- Node19 -->
<g id="Node000019" class="node">
<title>Node19</title>
<g id="a_Node000019"><a xlink:href="../../dc/d5c/a02459.html" target="_top" xlink:title="Driver for Winbond W25Q128JVSIQ SPI flash memory.">
<polygon fill="white" stroke="#666666" points="857.25,-244 749.75,-244 749.75,-224 857.25,-224 857.25,-244"/>
<text xml:space="preserve" text-anchor="middle" x="803.5" y="-230.5" font-family="Helvetica,sans-Serif" font-size="10.00">W25Q128JVSIQ.hpp</text>
</a>
</g>
</g>
<!-- Node1&#45;&gt;Node19 -->
<g id="edge23_Node000001_Node000019" class="edge">
<title>Node1&#45;&gt;Node19</title>
<g id="a_edge23_Node000001_Node000019"><a xlink:title=" ">
<path fill="none" stroke="#63b8ff" d="M459.73,-283.72C527.39,-274.13 670.8,-253.81 749.32,-242.68"/>
<polygon fill="#63b8ff" stroke="#63b8ff" points="459.3,-280.25 449.89,-285.12 460.28,-287.18 459.3,-280.25"/>
</a>
</g>
</g>
<!-- Node3 -->
<g id="Node000003" class="node">
<title>Node3</title>
<g id="a_Node000003"><a xlink:href="../../d5/d42/a00269.html" target="_top" xlink:title="ILI9341 display driver alias.">
<polygon fill="white" stroke="#666666" points="67,-188 0,-188 0,-168 67,-168 67,-188"/>
<text xml:space="preserve" text-anchor="middle" x="33.5" y="-174.5" font-family="Helvetica,sans-Serif" font-size="10.00">ILI9341.hpp</text>
</a>
</g>
</g>
<!-- Node2&#45;&gt;Node3 -->
<g id="edge2_Node000002_Node000003" class="edge">
<title>Node2&#45;&gt;Node3</title>
<g id="a_edge2_Node000002_Node000003"><a xlink:title=" ">
<path fill="none" stroke="#63b8ff" d="M33.5,-212.13C33.5,-203.9 33.5,-194.85 33.5,-188.3"/>
<polygon fill="#63b8ff" stroke="#63b8ff" points="30,-212.08 33.5,-222.08 37,-212.08 30,-212.08"/>
</a>
</g>
</g>
<!-- Node4 -->
<g id="Node000004" class="node">
<title>Node4</title>
<g id="a_Node000004"><a xlink:href="../../d3/d00/a00113.html" target="_top" xlink:title="Display class for ILI9341 TFT integration on U146 platform.">
<polygon fill="white" stroke="#666666" points="209,-132 142,-132 142,-112 209,-112 209,-132"/>
<text xml:space="preserve" text-anchor="middle" x="175.5" y="-118.5" font-family="Helvetica,sans-Serif" font-size="10.00">Display.hpp</text>
</a>
</g>
</g>
<!-- Node3&#45;&gt;Node4 -->
<g id="edge3_Node000003_Node000004" class="edge">
<title>Node3&#45;&gt;Node4</title>
<g id="a_edge3_Node000003_Node000004"><a xlink:title=" ">
<path fill="none" stroke="#63b8ff" d="M68.92,-163.53C94.33,-153.87 127.94,-141.08 150.57,-132.48"/>
<polygon fill="#63b8ff" stroke="#63b8ff" points="67.75,-160.23 59.65,-167.06 70.24,-166.77 67.75,-160.23"/>
</a>
</g>
</g>
<!-- Node5 -->
<g id="Node000005" class="node">
<title>Node5</title>
<g id="a_Node000005"><a xlink:href="../../d1/d88/a00128.html" target="_top" xlink:title="Board Support Package namespace with singleton instances for hardware abstraction.">
<polygon fill="white" stroke="#666666" points="449.25,-76 395.75,-76 395.75,-56 449.25,-56 449.25,-76"/>
<text xml:space="preserve" text-anchor="middle" x="422.5" y="-62.5" font-family="Helvetica,sans-Serif" font-size="10.00">BSP.hpp</text>
</a>
</g>
</g>
<!-- Node4&#45;&gt;Node5 -->
<g id="edge4_Node000004_Node000005" class="edge">
<title>Node4&#45;&gt;Node5</title>
<g id="a_edge4_Node000004_Node000005"><a xlink:title=" ">
<path fill="none" stroke="#63b8ff" d="M220.37,-111.19C271.49,-100.01 353.38,-82.11 395.52,-72.9"/>
<polygon fill="#63b8ff" stroke="#63b8ff" points="219.83,-107.73 210.81,-113.28 221.32,-114.56 219.83,-107.73"/>
</a>
</g>
</g>
<!-- Node6 -->
<g id="Node000006" class="node">
<title>Node6</title>
<g id="a_Node000006"><a xlink:href="../../d7/d25/a00182.html" target="_top" xlink:title="Declares the ModelBase class for TouchGFX UI model aggregation.">
<polygon fill="white" stroke="#666666" points="464.25,-20 380.75,-20 380.75,0 464.25,0 464.25,-20"/>
<text xml:space="preserve" text-anchor="middle" x="422.5" y="-6.5" font-family="Helvetica,sans-Serif" font-size="10.00">ModelBase.hpp</text>
</a>
</g>
</g>
<!-- Node5&#45;&gt;Node6 -->
<g id="edge5_Node000005_Node000006" class="edge">
<title>Node5&#45;&gt;Node6</title>
<g id="a_edge5_Node000005_Node000006"><a xlink:title=" ">
<path fill="none" stroke="#63b8ff" d="M422.5,-44.13C422.5,-35.9 422.5,-26.85 422.5,-20.3"/>
<polygon fill="#63b8ff" stroke="#63b8ff" points="419,-44.08 422.5,-54.08 426,-44.08 419,-44.08"/>
</a>
</g>
</g>
<!-- Node8 -->
<g id="Node000008" class="node">
<title>Node8</title>
<g id="a_Node000008"><a xlink:href="../../d9/dd6/a00272.html" target="_top" xlink:title="ST7789 display driver alias.">
<polygon fill="white" stroke="#666666" points="153.75,-188 85.25,-188 85.25,-168 153.75,-168 153.75,-188"/>
<text xml:space="preserve" text-anchor="middle" x="119.5" y="-174.5" font-family="Helvetica,sans-Serif" font-size="10.00">ST7789.hpp</text>
</a>
</g>
</g>
<!-- Node7&#45;&gt;Node8 -->
<g id="edge7_Node000007_Node000008" class="edge">
<title>Node7&#45;&gt;Node8</title>
<g id="a_edge7_Node000007_Node000008"><a xlink:title=" ">
<path fill="none" stroke="#63b8ff" d="M115.17,-212.43C116.25,-204.11 117.43,-194.93 118.29,-188.3"/>
<polygon fill="#63b8ff" stroke="#63b8ff" points="111.73,-211.73 113.91,-222.09 118.67,-212.63 111.73,-211.73"/>
</a>
</g>
</g>
<!-- Node12 -->
<g id="Node000012" class="node">
<title>Node12</title>
<g id="a_Node000012"><a xlink:href="../../d4/d81/a00110.html" target="_top" xlink:title="DigitalPeripheral class for SPI&#45;based DRV8908 digital I/O management.">
<polygon fill="white" stroke="#666666" points="475.5,-132 369.5,-132 369.5,-112 475.5,-112 475.5,-132"/>
<text xml:space="preserve" text-anchor="middle" x="422.5" y="-118.5" font-family="Helvetica,sans-Serif" font-size="10.00">DigitalPeripheral.hpp</text>
</a>
</g>
</g>
<!-- Node11&#45;&gt;Node12 -->
<g id="edge11_Node000011_Node000012" class="edge">
<title>Node11&#45;&gt;Node12</title>
<g id="a_edge11_Node000011_Node000012"><a xlink:title=" ">
<path fill="none" stroke="#63b8ff" d="M422.5,-212.31C422.5,-188.36 422.5,-149.95 422.5,-132.35"/>
<polygon fill="#63b8ff" stroke="#63b8ff" points="419,-212.11 422.5,-222.11 426,-212.11 419,-212.11"/>
</a>
</g>
</g>
<!-- Node12&#45;&gt;Node5 -->
<g id="edge12_Node000012_Node000005" class="edge">
<title>Node12&#45;&gt;Node5</title>
<g id="a_edge12_Node000012_Node000005"><a xlink:title=" ">
<path fill="none" stroke="#63b8ff" d="M422.5,-100.13C422.5,-91.9 422.5,-82.85 422.5,-76.3"/>
<polygon fill="#63b8ff" stroke="#63b8ff" points="419,-100.08 422.5,-110.08 426,-100.08 419,-100.08"/>
</a>
</g>
</g>
<!-- Node14 -->
<g id="Node000014" class="node">
<title>Node14</title>
<g id="a_Node000014"><a xlink:href="../../de/dfd/a02228.html" target="_top" xlink:title="Base class template for digital peripheral control.">
<polygon fill="white" stroke="#666666" points="623.12,-132 565.88,-132 565.88,-112 623.12,-112 623.12,-132"/>
<text xml:space="preserve" text-anchor="middle" x="594.5" y="-118.5" font-family="Helvetica,sans-Serif" font-size="10.00">Base.hpp</text>
</a>
</g>
</g>
<!-- Node13&#45;&gt;Node14 -->
<g id="edge14_Node000013_Node000014" class="edge">
<title>Node13&#45;&gt;Node14</title>
<g id="a_edge14_Node000013_Node000014"><a xlink:title=" ">
<path fill="none" stroke="#63b8ff" d="M575.93,-157.58C580.55,-148.97 585.78,-139.24 589.51,-132.3"/>
<polygon fill="#63b8ff" stroke="#63b8ff" points="572.92,-155.79 571.27,-166.26 579.08,-159.11 572.92,-155.79"/>
</a>
</g>
</g>
<!-- Node15&#45;&gt;Node9 -->
<g id="edge16_Node000015_Node000009" class="edge">
<title>Node15&#45;&gt;Node9</title>
<g id="a_edge16_Node000015_Node000009"><a xlink:title=" ">
<path fill="none" stroke="#63b8ff" d="M316.95,-216.68C305.25,-207.39 291.02,-196.09 281.21,-188.3"/>
<polygon fill="#63b8ff" stroke="#63b8ff" points="314.46,-219.17 324.47,-222.65 318.82,-213.69 314.46,-219.17"/>
</a>
</g>
</g>
<!-- Node17&#45;&gt;Node14 -->
<g id="edge19_Node000017_Node000014" class="edge">
<title>Node17&#45;&gt;Node14</title>
<g id="a_edge19_Node000017_Node000014"><a xlink:title=" ">
<path fill="none" stroke="#63b8ff" d="M648.68,-161C635.45,-151.72 619.24,-140.35 608.02,-132.48"/>
<polygon fill="#63b8ff" stroke="#63b8ff" points="646.65,-163.85 656.85,-166.72 650.67,-158.12 646.65,-163.85"/>
</a>
</g>
</g>
<!-- Node18&#45;&gt;Node13 -->
<g id="edge21_Node000018_Node000013" class="edge">
<title>Node18&#45;&gt;Node13</title>
<g id="a_edge21_Node000018_Node000013"><a xlink:title=" ">
<path fill="none" stroke="#63b8ff" d="M627.6,-217.54C612.49,-208.17 593.7,-196.51 580.77,-188.48"/>
<polygon fill="#63b8ff" stroke="#63b8ff" points="625.72,-220.5 636.06,-222.8 629.41,-214.55 625.72,-220.5"/>
</a>
</g>
</g>
<!-- Node18&#45;&gt;Node17 -->
<g id="edge22_Node000018_Node000017" class="edge">
<title>Node18&#45;&gt;Node17</title>
<g id="a_edge22_Node000018_Node000017"><a xlink:title=" ">
<path fill="none" stroke="#63b8ff" d="M659.54,-213C662.51,-204.54 665.84,-195.08 668.23,-188.3"/>
<polygon fill="#63b8ff" stroke="#63b8ff" points="656.33,-211.57 656.31,-222.17 662.93,-213.89 656.33,-211.57"/>
</a>
</g>
</g>
<!-- Node20 -->
<g id="Node000020" class="node">
<title>Node20</title>
<g id="a_Node000020"><a xlink:href="../../df/d89/a02462.html" target="_top" xlink:title="Board&#45;level wrapper for W25Q128JVSIQ SPI NOR flash driver.">
<polygon fill="white" stroke="#666666" points="807.25,-132 699.75,-132 699.75,-112 807.25,-112 807.25,-132"/>
<text xml:space="preserve" text-anchor="middle" x="753.5" y="-118.5" font-family="Helvetica,sans-Serif" font-size="10.00">W25Q128JVSIQ.hpp</text>
</a>
</g>
</g>
<!-- Node19&#45;&gt;Node20 -->
<g id="edge24_Node000019_Node000020" class="edge">
<title>Node19&#45;&gt;Node20</title>
<g id="a_edge24_Node000019_Node000020"><a xlink:title=" ">
<path fill="none" stroke="#63b8ff" d="M794.54,-213.3C783.69,-189.43 765.86,-150.2 757.75,-132.35"/>
<polygon fill="#63b8ff" stroke="#63b8ff" points="791.29,-214.59 798.61,-222.24 797.66,-211.69 791.29,-214.59"/>
</a>
</g>
</g>
<!-- Node20&#45;&gt;Node5 -->
<g id="edge25_Node000020_Node000005" class="edge">
<title>Node20&#45;&gt;Node5</title>
<g id="a_edge25_Node000020_Node000005"><a xlink:title=" ">
<path fill="none" stroke="#63b8ff" d="M688.28,-110.36C615.56,-98.5 501.37,-79.87 449.61,-71.42"/>
<polygon fill="#63b8ff" stroke="#63b8ff" points="687.66,-113.8 698.09,-111.96 688.78,-106.9 687.66,-113.8"/>
</a>
</g>
</g>
</g>
</svg>
