<?xml version="1.0" encoding="UTF-8" standalone="no"?>
<!DOCTYPE svg PUBLIC "-//W3C//DTD SVG 1.1//EN"
 "http://www.w3.org/Graphics/SVG/1.1/DTD/svg11.dtd">
<!-- Generated by graphviz version 13.1.0 (20250701.0955)
 -->
<!-- Title: System::SaleDate Pages: 1 -->
<svg width="91pt" height="81pt"
 viewBox="0.00 0.00 91.00 81.00" xmlns="http://www.w3.org/2000/svg" xmlns:xlink="http://www.w3.org/1999/xlink">
<g id="graph0" class="graph" transform="scale(1 1) rotate(0) translate(4 77)">
<title>System::SaleDate</title>
<!-- Node1 -->
<g id="Node000001" class="node">
<title>Node1</title>
<g id="a_Node000001"><a xlink:title="SaleDate type for product sale date representation.">
<polygon fill="#999999" stroke="none" points="81.88,-18.5 1.12,-18.5 1.12,0 81.88,0 81.88,-18.5"/>
<text xml:space="preserve" text-anchor="start" x="5.12" y="-5.95" font-family="Arial" font-size="9.00">System::SaleDate</text>
<polygon fill="none" stroke="#666666" points="1.12,0 1.12,-18.5 81.88,-18.5 81.88,0 1.12,0"/>
</a>
</g>
</g>
<!-- Node2 -->
<g id="Node000002" class="node">
<title>Node2</title>
<g id="a_Node000002"><a xlink:href="../../d3/d19/a01847.html" target="_top" xlink:title="ProduceDate persistent production date handler.">
<polygon fill="white" stroke="none" points="83,-73 0,-73 0,-54.5 83,-54.5 83,-73"/>
<text xml:space="preserve" text-anchor="start" x="4" y="-60.45" font-family="Arial" font-size="9.00">ProduceDateBase</text>
<polygon fill="none" stroke="#666666" points="0,-54.5 0,-73 83,-73 83,-54.5 0,-54.5"/>
</a>
</g>
</g>
<!-- Node2&#45;&gt;Node1 -->
<g id="edge1_Node000001_Node000002" class="edge">
<title>Node2&#45;&gt;Node1</title>
<g id="a_edge1_Node000001_Node000002"><a xlink:title=" ">
<path fill="none" stroke="#63b8ff" d="M41.5,-43.1C41.5,-34.47 41.5,-24.82 41.5,-18.22"/>
<polygon fill="none" stroke="#63b8ff" points="38,-43.03 41.5,-53.03 45,-43.03 38,-43.03"/>
</a>
</g>
</g>
</g>
</svg>
