<?xml version="1.0" encoding="UTF-8" standalone="no"?>
<!DOCTYPE svg PUBLIC "-//W3C//DTD SVG 1.1//EN"
 "http://www.w3.org/Graphics/SVG/1.1/DTD/svg11.dtd">
<!-- Generated by graphviz version 13.1.0 (20250701.0955)
 -->
<!-- Title: Lib::Helper::Exception Pages: 1 -->
<svg width="106pt" height="81pt"
 viewBox="0.00 0.00 106.00 81.00" xmlns="http://www.w3.org/2000/svg" xmlns:xlink="http://www.w3.org/1999/xlink">
<g id="graph0" class="graph" transform="scale(1 1) rotate(0) translate(4 77)">
<title>Lib::Helper::Exception</title>
<!-- Node1 -->
<g id="Node000001" class="node">
<title>Node1</title>
<g id="a_Node000001"><a xlink:title="Exception class for error handling.">
<polygon fill="#999999" stroke="none" points="98,-18.5 0,-18.5 0,0 98,0 98,-18.5"/>
<text xml:space="preserve" text-anchor="start" x="4" y="-5.95" font-family="Arial" font-size="9.00">Lib::Helper::Exception</text>
<polygon fill="none" stroke="#666666" points="0,0 0,-18.5 98,-18.5 98,0 0,0"/>
</a>
</g>
</g>
<!-- Node2 -->
<g id="Node000002" class="node">
<title>Node2</title>
<g id="a_Node000002"><a xlink:title=" ">
<polygon fill="white" stroke="none" points="81.12,-73 16.88,-73 16.88,-54.5 81.12,-54.5 81.12,-73"/>
<text xml:space="preserve" text-anchor="start" x="20.88" y="-60.45" font-family="Arial" font-size="9.00">std::exception</text>
<polygon fill="none" stroke="#bfbfbf" points="16.88,-54.5 16.88,-73 81.12,-73 81.12,-54.5 16.88,-54.5"/>
</a>
</g>
</g>
<!-- Node2&#45;&gt;Node1 -->
<g id="edge1_Node000001_Node000002" class="edge">
<title>Node2&#45;&gt;Node1</title>
<g id="a_edge1_Node000001_Node000002"><a xlink:title=" ">
<path fill="none" stroke="#63b8ff" d="M49,-43.1C49,-34.47 49,-24.82 49,-18.22"/>
<polygon fill="none" stroke="#63b8ff" points="45.5,-43.03 49,-53.03 52.5,-43.03 45.5,-43.03"/>
</a>
</g>
</g>
</g>
</svg>
