<?xml version="1.0" encoding="UTF-8" standalone="no"?>
<!DOCTYPE svg PUBLIC "-//W3C//DTD SVG 1.1//EN"
 "http://www.w3.org/Graphics/SVG/1.1/DTD/svg11.dtd">
<!-- Generated by graphviz version 13.1.0 (20250701.0955)
 -->
<!-- Title: Lib::HAL::SPI::Master::TransperentBase::DeviceManager::add Pages: 1 -->
<svg width="562pt" height="90pt"
 viewBox="0.00 0.00 562.00 90.00" xmlns="http://www.w3.org/2000/svg" xmlns:xlink="http://www.w3.org/1999/xlink">
<g id="graph0" class="graph" transform="scale(1 1) rotate(0) translate(4 86)">
<title>Lib::HAL::SPI::Master::TransperentBase::DeviceManager::add</title>
<!-- Node1 -->
<g id="Node000001" class="node">
<title>Node1</title>
<g id="a_Node000001"><a xlink:title="Adds a transparent SPI master device to the manager.">
<polygon fill="#999999" stroke="#666666" points="192.25,-57 0,-57 0,-25 192.25,-25 192.25,-57"/>
<text xml:space="preserve" text-anchor="start" x="8" y="-43.5" font-family="Helvetica,sans-Serif" font-size="10.00">Lib::HAL::SPI::Master</text>
<text xml:space="preserve" text-anchor="middle" x="96.12" y="-31.5" font-family="Helvetica,sans-Serif" font-size="10.00">::TransperentBase::DeviceManager::add</text>
</a>
</g>
</g>
<!-- Node2 -->
<g id="Node000002" class="node">
<title>Node2</title>
<g id="a_Node000002"><a xlink:href="../../d7/d32/a01444.html#a02525534e0f3709fe5dd2164cd1543b4" target="_top" xlink:title="Adds a device pointer to the manager and tracks it for future operations.">
<polygon fill="white" stroke="#666666" points="402.88,-74 230.12,-74 230.12,-54 402.88,-54 402.88,-74"/>
<text xml:space="preserve" text-anchor="middle" x="316.5" y="-60.5" font-family="Helvetica,sans-Serif" font-size="10.00">Lib::HAL::DeviceManagerBase::add</text>
</a>
</g>
</g>
<!-- Node1&#45;&gt;Node2 -->
<g id="edge1_Node000001_Node000002" class="edge">
<title>Node1&#45;&gt;Node2</title>
<g id="a_edge1_Node000001_Node000002"><a xlink:title=" ">
<path fill="none" stroke="#63b8ff" d="M192.59,-51.05C201.21,-51.96 209.94,-52.88 218.57,-53.79"/>
<polygon fill="#63b8ff" stroke="#63b8ff" points="218.02,-57.25 228.34,-54.82 218.76,-50.29 218.02,-57.25"/>
</a>
</g>
</g>
<!-- Node4 -->
<g id="Node000004" class="node">
<title>Node4</title>
<g id="a_Node000004"><a xlink:href="../../dd/d05/a01504.html#a505b0e256447a57c0dc4d5cc461b19c7" target="_top" xlink:title="Constructs the transparent SPI master base with the given SPI handle pointer.">
<polygon fill="white" stroke="#666666" points="404.75,-35 228.25,-35 228.25,-3 404.75,-3 404.75,-35"/>
<text xml:space="preserve" text-anchor="start" x="236.25" y="-21.5" font-family="Helvetica,sans-Serif" font-size="10.00">Lib::HAL::SPI::Master</text>
<text xml:space="preserve" text-anchor="middle" x="316.5" y="-9.5" font-family="Helvetica,sans-Serif" font-size="10.00">::TransperentBase::TransperentBase</text>
</a>
</g>
</g>
<!-- Node1&#45;&gt;Node4 -->
<g id="edge3_Node000001_Node000004" class="edge">
<title>Node1&#45;&gt;Node4</title>
<g id="a_edge3_Node000001_Node000004"><a xlink:title=" ">
<path fill="none" stroke="#63b8ff" d="M192.59,-31.38C200.55,-30.58 208.6,-29.77 216.58,-28.97"/>
<polygon fill="#63b8ff" stroke="#63b8ff" points="216.7,-32.47 226.29,-27.99 215.99,-25.51 216.7,-32.47"/>
</a>
</g>
</g>
<!-- Node3 -->
<g id="Node000003" class="node">
<title>Node3</title>
<g id="a_Node000003"><a xlink:href="../../da/daf/a01568.html#a08f13d398bd11b0deeca6395e921c464" target="_top" xlink:title=" ">
<polygon fill="white" stroke="#666666" points="552.75,-82 441.5,-82 441.5,-50 552.75,-50 552.75,-82"/>
<text xml:space="preserve" text-anchor="start" x="449.5" y="-68.5" font-family="Helvetica,sans-Serif" font-size="10.00">Lib::Helper::Container</text>
<text xml:space="preserve" text-anchor="middle" x="497.12" y="-56.5" font-family="Helvetica,sans-Serif" font-size="10.00">&lt; T_DEVICE &gt;::add</text>
</a>
</g>
</g>
<!-- Node2&#45;&gt;Node3 -->
<g id="edge2_Node000002_Node000003" class="edge">
<title>Node2&#45;&gt;Node3</title>
<g id="a_edge2_Node000002_Node000003"><a xlink:title=" ">
<path fill="none" stroke="#63b8ff" d="M403.15,-64.96C412.12,-65.06 421.13,-65.16 429.83,-65.26"/>
<polygon fill="#63b8ff" stroke="#63b8ff" points="429.51,-68.75 439.55,-65.37 429.59,-61.75 429.51,-68.75"/>
</a>
</g>
</g>
<!-- Node5 -->
<g id="Node000005" class="node">
<title>Node5</title>
<g id="a_Node000005"><a xlink:href="../../d1/dde/a01496.html#a882f5a14f7c750fb8a3b30a2f8c8dba7" target="_top" xlink:title="Constructs the SPI master base with the given SPI handle pointer.">
<polygon fill="white" stroke="#666666" points="553.5,-32 440.75,-32 440.75,0 553.5,0 553.5,-32"/>
<text xml:space="preserve" text-anchor="start" x="448.75" y="-18.5" font-family="Helvetica,sans-Serif" font-size="10.00">Lib::HAL::SPI::Master</text>
<text xml:space="preserve" text-anchor="middle" x="497.12" y="-6.5" font-family="Helvetica,sans-Serif" font-size="10.00">::Base::Base</text>
</a>
</g>
</g>
<!-- Node4&#45;&gt;Node5 -->
<g id="edge4_Node000004_Node000005" class="edge">
<title>Node4&#45;&gt;Node5</title>
<g id="a_edge4_Node000004_Node000005"><a xlink:title=" ">
<path fill="none" stroke="#63b8ff" d="M405.24,-17.53C413.3,-17.39 421.38,-17.26 429.22,-17.12"/>
<polygon fill="#63b8ff" stroke="#63b8ff" points="429.03,-20.63 438.97,-16.96 428.92,-13.63 429.03,-20.63"/>
</a>
</g>
</g>
</g>
</svg>
