<?xml version="1.0" encoding="UTF-8" standalone="no"?>
<!DOCTYPE svg PUBLIC "-//W3C//DTD SVG 1.1//EN"
 "http://www.w3.org/Graphics/SVG/1.1/DTD/svg11.dtd">
<!-- Generated by graphviz version 13.1.0 (20250701.0955)
 -->
<!-- Title: Lib::HAL::SPI::Master::TransperentBase::DeviceManager::deinit Pages: 1 -->
<svg width="540pt" height="90pt"
 viewBox="0.00 0.00 540.00 90.00" xmlns="http://www.w3.org/2000/svg" xmlns:xlink="http://www.w3.org/1999/xlink">
<g id="graph0" class="graph" transform="scale(1 1) rotate(0) translate(4 86)">
<title>Lib::HAL::SPI::Master::TransperentBase::DeviceManager::deinit</title>
<!-- Node1 -->
<g id="Node000001" class="node">
<title>Node1</title>
<g id="a_Node000001"><a xlink:title="Deinitializes the SPI device and unregisters callbacks.">
<polygon fill="#999999" stroke="#666666" points="170.5,-63 0,-63 0,-19 170.5,-19 170.5,-63"/>
<text xml:space="preserve" text-anchor="start" x="8" y="-49.5" font-family="Helvetica,sans-Serif" font-size="10.00">Lib::HAL::SPI::Master</text>
<text xml:space="preserve" text-anchor="start" x="8" y="-37.5" font-family="Helvetica,sans-Serif" font-size="10.00">::TransperentBase::DeviceManager</text>
<text xml:space="preserve" text-anchor="middle" x="85.25" y="-25.5" font-family="Helvetica,sans-Serif" font-size="10.00">::deinit</text>
</a>
</g>
</g>
<!-- Node2 -->
<g id="Node000002" class="node">
<title>Node2</title>
<g id="a_Node000002"><a xlink:href="../../dd/d05/a01504.html#ae092dba94338a5b24aa29b9ad9c9cf0c" target="_top" xlink:title="Returns the SPI handle pointer associated with this object.">
<polygon fill="white" stroke="#666666" points="368,-82 221.5,-82 221.5,-50 368,-50 368,-82"/>
<text xml:space="preserve" text-anchor="start" x="229.5" y="-68.5" font-family="Helvetica,sans-Serif" font-size="10.00">Lib::HAL::SPI::Master</text>
<text xml:space="preserve" text-anchor="middle" x="294.75" y="-56.5" font-family="Helvetica,sans-Serif" font-size="10.00">::TransperentBase::getHandle</text>
</a>
</g>
</g>
<!-- Node1&#45;&gt;Node2 -->
<g id="edge1_Node000001_Node000002" class="edge">
<title>Node1&#45;&gt;Node2</title>
<g id="a_edge1_Node000001_Node000002"><a xlink:title=" ">
<path fill="none" stroke="#63b8ff" d="M170.95,-51.2C183.86,-52.76 197.18,-54.37 210.08,-55.92"/>
<polygon fill="#63b8ff" stroke="#63b8ff" points="209.42,-59.37 219.77,-57.09 210.26,-52.42 209.42,-59.37"/>
</a>
</g>
</g>
<!-- Node4 -->
<g id="Node000004" class="node">
<title>Node4</title>
<g id="a_Node000004"><a xlink:href="../../dd/d05/a01504.html#a505b0e256447a57c0dc4d5cc461b19c7" target="_top" xlink:title="Constructs the transparent SPI master base with the given SPI handle pointer.">
<polygon fill="white" stroke="#666666" points="383,-32 206.5,-32 206.5,0 383,0 383,-32"/>
<text xml:space="preserve" text-anchor="start" x="214.5" y="-18.5" font-family="Helvetica,sans-Serif" font-size="10.00">Lib::HAL::SPI::Master</text>
<text xml:space="preserve" text-anchor="middle" x="294.75" y="-6.5" font-family="Helvetica,sans-Serif" font-size="10.00">::TransperentBase::TransperentBase</text>
</a>
</g>
</g>
<!-- Node1&#45;&gt;Node4 -->
<g id="edge3_Node000001_Node000004" class="edge">
<title>Node1&#45;&gt;Node4</title>
<g id="a_edge3_Node000001_Node000004"><a xlink:title=" ">
<path fill="none" stroke="#63b8ff" d="M170.95,-30.8C178.87,-29.84 186.94,-28.87 194.98,-27.9"/>
<polygon fill="#63b8ff" stroke="#63b8ff" points="195.28,-31.39 204.79,-26.72 194.44,-24.44 195.28,-31.39"/>
</a>
</g>
</g>
<!-- Node3 -->
<g id="Node000003" class="node">
<title>Node3</title>
<g id="a_Node000003"><a xlink:href="../../d1/dde/a01496.html#af8202cde7c74327f43656655dabd5413" target="_top" xlink:title="Returns the SPI handle pointer associated with this object.">
<polygon fill="white" stroke="#666666" points="531.75,-82 419,-82 419,-50 531.75,-50 531.75,-82"/>
<text xml:space="preserve" text-anchor="start" x="427" y="-68.5" font-family="Helvetica,sans-Serif" font-size="10.00">Lib::HAL::SPI::Master</text>
<text xml:space="preserve" text-anchor="middle" x="475.38" y="-56.5" font-family="Helvetica,sans-Serif" font-size="10.00">::Base::getHandle</text>
</a>
</g>
</g>
<!-- Node2&#45;&gt;Node3 -->
<g id="edge2_Node000002_Node000003" class="edge">
<title>Node2&#45;&gt;Node3</title>
<g id="a_edge2_Node000002_Node000003"><a xlink:title=" ">
<path fill="none" stroke="#63b8ff" d="M368.4,-66C381.27,-66 394.62,-66 407.32,-66"/>
<polygon fill="#63b8ff" stroke="#63b8ff" points="407.26,-69.5 417.26,-66 407.26,-62.5 407.26,-69.5"/>
</a>
</g>
</g>
<!-- Node5 -->
<g id="Node000005" class="node">
<title>Node5</title>
<g id="a_Node000005"><a xlink:href="../../d1/dde/a01496.html#a882f5a14f7c750fb8a3b30a2f8c8dba7" target="_top" xlink:title="Constructs the SPI master base with the given SPI handle pointer.">
<polygon fill="white" stroke="#666666" points="531.75,-32 419,-32 419,0 531.75,0 531.75,-32"/>
<text xml:space="preserve" text-anchor="start" x="427" y="-18.5" font-family="Helvetica,sans-Serif" font-size="10.00">Lib::HAL::SPI::Master</text>
<text xml:space="preserve" text-anchor="middle" x="475.38" y="-6.5" font-family="Helvetica,sans-Serif" font-size="10.00">::Base::Base</text>
</a>
</g>
</g>
<!-- Node4&#45;&gt;Node5 -->
<g id="edge4_Node000004_Node000005" class="edge">
<title>Node4&#45;&gt;Node5</title>
<g id="a_edge4_Node000004_Node000005"><a xlink:title=" ">
<path fill="none" stroke="#63b8ff" d="M383.49,-16C391.55,-16 399.63,-16 407.47,-16"/>
<polygon fill="#63b8ff" stroke="#63b8ff" points="407.22,-19.5 417.22,-16 407.22,-12.5 407.22,-19.5"/>
</a>
</g>
</g>
</g>
</svg>
