<?xml version="1.0" encoding="UTF-8" standalone="no"?>
<!DOCTYPE svg PUBLIC "-//W3C//DTD SVG 1.1//EN"
 "http://www.w3.org/Graphics/SVG/1.1/DTD/svg11.dtd">
<!-- Generated by graphviz version 13.1.0 (20250701.0955)
 -->
<!-- Title: ModelSystem::ProduceDates Pages: 1 -->
<svg width="144pt" height="338pt"
 viewBox="0.00 0.00 144.00 338.00" xmlns="http://www.w3.org/2000/svg" xmlns:xlink="http://www.w3.org/1999/xlink">
<g id="graph0" class="graph" transform="scale(1 1) rotate(0) translate(4 334)">
<title>ModelSystem::ProduceDates</title>
<!-- Node1 -->
<g id="Node000001" class="node">
<title>Node1</title>
<g id="a_Node000001"><a xlink:title="Holds production and sale date information for the system.">
<polygon fill="#999999" stroke="none" points="136.25,-52 0,-52 0,0 136.25,0 136.25,-52"/>
<text xml:space="preserve" text-anchor="start" x="4" y="-38.5" font-family="Helvetica,sans-Serif" font-size="10.00">ModelSystem::ProduceDates</text>
<text xml:space="preserve" text-anchor="start" x="66.62" y="-22.5" font-family="Helvetica,sans-Serif" font-size="10.00"> </text>
<text xml:space="preserve" text-anchor="start" x="66.62" y="-6.5" font-family="Helvetica,sans-Serif" font-size="10.00"> </text>
<polygon fill="#666666" stroke="#666666" points="0,-34 0,-34 136.25,-34 136.25,-34 0,-34"/>
<polygon fill="#666666" stroke="#666666" points="0,-18 0,-18 136.25,-18 136.25,-18 0,-18"/>
<polygon fill="none" stroke="#666666" points="0,0 0,-52 136.25,-52 136.25,0 0,0"/>
</a>
</g>
</g>
<!-- Node2 -->
<g id="Node000002" class="node">
<title>Node2</title>
<g id="a_Node000002"><a xlink:href="../../d7/dd4/a00968.html" target="_top" xlink:title="Handles production and sale date information for the system.">
<polygon fill="white" stroke="none" points="134.5,-330 1.75,-330 1.75,-122 134.5,-122 134.5,-330"/>
<text xml:space="preserve" text-anchor="start" x="6.62" y="-316.5" font-family="Helvetica,sans-Serif" font-size="10.00">ModelSystem::ProduceDate</text>
<text xml:space="preserve" text-anchor="start" x="66.62" y="-300.5" font-family="Helvetica,sans-Serif" font-size="10.00"> </text>
<text xml:space="preserve" text-anchor="start" x="5.75" y="-284.5" font-family="Helvetica,sans-Serif" font-size="10.00">+</text>
<text xml:space="preserve" text-anchor="start" x="15.75" y="-284.5" font-family="Helvetica,sans-Serif" font-size="10.00">ProduceDate(System</text>
<text xml:space="preserve" text-anchor="start" x="15.75" y="-272.5" font-family="Helvetica,sans-Serif" font-size="10.00">::ProduceDateBase *src)</text>
<text xml:space="preserve" text-anchor="start" x="5.75" y="-256.5" font-family="Helvetica,sans-Serif" font-size="10.00">+</text>
<text xml:space="preserve" text-anchor="start" x="15.75" y="-256.5" font-family="Helvetica,sans-Serif" font-size="10.00">~ProduceDate()</text>
<text xml:space="preserve" text-anchor="start" x="5.75" y="-240.5" font-family="Helvetica,sans-Serif" font-size="10.00">+</text>
<text xml:space="preserve" text-anchor="start" x="15.75" y="-240.5" font-family="Helvetica,sans-Serif" font-size="10.00">operator std::string</text>
<text xml:space="preserve" text-anchor="start" x="15.75" y="-228.5" font-family="Helvetica,sans-Serif" font-size="10.00">() const</text>
<text xml:space="preserve" text-anchor="start" x="5.75" y="-212.5" font-family="Helvetica,sans-Serif" font-size="10.00">+</text>
<text xml:space="preserve" text-anchor="start" x="15.75" y="-212.5" font-family="Helvetica,sans-Serif" font-size="10.00">uint32_t getColor()</text>
<text xml:space="preserve" text-anchor="start" x="15.75" y="-200.5" font-family="Helvetica,sans-Serif" font-size="10.00"> const</text>
<text xml:space="preserve" text-anchor="start" x="5.75" y="-184.5" font-family="Helvetica,sans-Serif" font-size="10.00">+</text>
<text xml:space="preserve" text-anchor="start" x="15.75" y="-184.5" font-family="Helvetica,sans-Serif" font-size="10.00">bool setDate(const</text>
<text xml:space="preserve" text-anchor="start" x="15.75" y="-172.5" font-family="Helvetica,sans-Serif" font-size="10.00"> DateTime &amp;dateTime)</text>
<text xml:space="preserve" text-anchor="start" x="5.75" y="-156.5" font-family="Helvetica,sans-Serif" font-size="10.00">+</text>
<text xml:space="preserve" text-anchor="start" x="15.75" y="-156.5" font-family="Helvetica,sans-Serif" font-size="10.00">bool isEmpty() const</text>
<text xml:space="preserve" text-anchor="start" x="5.75" y="-140.5" font-family="Helvetica,sans-Serif" font-size="10.00">+</text>
<text xml:space="preserve" text-anchor="start" x="15.75" y="-140.5" font-family="Helvetica,sans-Serif" font-size="10.00">static DateTime getStatup</text>
<text xml:space="preserve" text-anchor="start" x="15.75" y="-128.5" font-family="Helvetica,sans-Serif" font-size="10.00">Date()</text>
<polygon fill="#666666" stroke="#666666" points="1.75,-312 1.75,-312 134.5,-312 134.5,-312 1.75,-312"/>
<polygon fill="#666666" stroke="#666666" points="1.75,-296 1.75,-296 134.5,-296 134.5,-296 1.75,-296"/>
<polygon fill="none" stroke="#666666" points="1.75,-122 1.75,-330 134.5,-330 134.5,-122 1.75,-122"/>
</a>
</g>
</g>
<!-- Node2&#45;&gt;Node1 -->
<g id="edge1_Node000001_Node000002" class="edge">
<title>Node2&#45;&gt;Node1</title>
<g id="a_edge1_Node000001_Node000002"><a xlink:title=" ">
<path fill="none" stroke="#63b8ff" d="M68.12,-122.23C68.12,-101.63 68.12,-81.25 68.12,-64.66"/>
<polygon fill="none" stroke="#63b8ff" points="68.13,-64.6 64.13,-58.6 68.13,-52.6 72.13,-58.6 68.13,-64.6"/>
</a>
</g>
<text xml:space="preserve" text-anchor="start" x="71.12" y="-91.5" font-family="Helvetica,sans-Serif" font-size="10.00" fill="grey">+produceDate</text>
<text xml:space="preserve" text-anchor="start" x="71.12" y="-75.5" font-family="Helvetica,sans-Serif" font-size="10.00" fill="grey">+saleDate</text>
</g>
</g>
</svg>
