<?xml version="1.0" encoding="UTF-8" standalone="no"?>
<!DOCTYPE svg PUBLIC "-//W3C//DTD SVG 1.1//EN"
 "http://www.w3.org/Graphics/SVG/1.1/DTD/svg11.dtd">
<!-- Generated by graphviz version 12.2.1 (20241206.2353)
 -->
<!-- Title: Lib::Xbee::Core::Module Pages: 1 -->
<svg width="313pt" height="620pt"
 viewBox="0.00 0.00 312.62 620.00" xmlns="http://www.w3.org/2000/svg" xmlns:xlink="http://www.w3.org/1999/xlink">
<g id="graph0" class="graph" transform="scale(1 1) rotate(0) translate(4 616)">
<title>Lib::Xbee::Core::Module</title>
<!-- Node1 -->
<g id="Node000001" class="node">
<title>Node1</title>
<g id="a_Node000001"><a xlink:title="Handles communication with XBee devices.">
<polygon fill="#999999" stroke="none" points="221.88,-164 92.88,-164 92.88,0 221.88,0 221.88,-164"/>
<text text-anchor="start" x="104.5" y="-150.5" font-family="Helvetica,sans-Serif" font-size="10.00">Lib::Xbee::Core::Module</text>
<text text-anchor="start" x="96.88" y="-134.5" font-family="Helvetica,sans-Serif" font-size="10.00">+</text>
<text text-anchor="start" x="106.88" y="-134.5" font-family="Helvetica,sans-Serif" font-size="10.00">onBeginMessageSend</text>
<text text-anchor="start" x="96.88" y="-118.5" font-family="Helvetica,sans-Serif" font-size="10.00">+</text>
<text text-anchor="start" x="106.88" y="-118.5" font-family="Helvetica,sans-Serif" font-size="10.00">onEndMessageSend</text>
<text text-anchor="start" x="96.88" y="-102.5" font-family="Helvetica,sans-Serif" font-size="10.00">+</text>
<text text-anchor="start" x="106.88" y="-102.5" font-family="Helvetica,sans-Serif" font-size="10.00">onBeginMessageReceive</text>
<text text-anchor="start" x="96.88" y="-86.5" font-family="Helvetica,sans-Serif" font-size="10.00">+</text>
<text text-anchor="start" x="106.88" y="-86.5" font-family="Helvetica,sans-Serif" font-size="10.00">onEndMessageReceived</text>
<text text-anchor="start" x="96.88" y="-70.5" font-family="Helvetica,sans-Serif" font-size="10.00">+</text>
<text text-anchor="start" x="106.88" y="-70.5" font-family="Helvetica,sans-Serif" font-size="10.00">Module()</text>
<text text-anchor="start" x="96.88" y="-54.5" font-family="Helvetica,sans-Serif" font-size="10.00">+</text>
<text text-anchor="start" x="106.88" y="-54.5" font-family="Helvetica,sans-Serif" font-size="10.00">~Module()</text>
<text text-anchor="start" x="96.88" y="-38.5" font-family="Helvetica,sans-Serif" font-size="10.00">+</text>
<text text-anchor="start" x="106.88" y="-38.5" font-family="Helvetica,sans-Serif" font-size="10.00">init()</text>
<text text-anchor="start" x="96.88" y="-22.5" font-family="Helvetica,sans-Serif" font-size="10.00">+</text>
<text text-anchor="start" x="106.88" y="-22.5" font-family="Helvetica,sans-Serif" font-size="10.00">reset()</text>
<text text-anchor="start" x="96.88" y="-6.5" font-family="Helvetica,sans-Serif" font-size="10.00">+</text>
<text text-anchor="start" x="106.88" y="-6.5" font-family="Helvetica,sans-Serif" font-size="10.00">send()</text>
<polygon fill="#666666" stroke="#666666" points="92.88,-146 92.88,-146 221.88,-146 221.88,-146 92.88,-146"/>
<polygon fill="#666666" stroke="#666666" points="92.88,-82 92.88,-82 104.88,-82 104.88,-82 92.88,-82"/>
<polygon fill="#666666" stroke="#666666" points="104.88,-82 104.88,-82 221.88,-82 221.88,-82 104.88,-82"/>
<polygon fill="none" stroke="#666666" points="92.88,0 92.88,-164 221.88,-164 221.88,0 92.88,0"/>
</a>
</g>
</g>
<!-- Node2 -->
<g id="Node000002" class="node">
<title>Node2</title>
<g id="a_Node000002"><a xlink:href="../../d5/db5/a00374.html" target="_top" xlink:title="Manages communication with the XBee module.">
<polygon fill="white" stroke="none" points="150,-396 6.75,-396 6.75,-216 150,-216 150,-396"/>
<text text-anchor="start" x="17.62" y="-382.5" font-family="Helvetica,sans-Serif" font-size="10.00">Lib::Xbee::Core::ComDriver</text>
<text text-anchor="start" x="11.12" y="-366.5" font-family="Helvetica,sans-Serif" font-size="10.00">#</text>
<text text-anchor="start" x="20.75" y="-366.5" font-family="Helvetica,sans-Serif" font-size="10.00">xrst</text>
<text text-anchor="start" x="10.75" y="-350.5" font-family="Helvetica,sans-Serif" font-size="10.00">+</text>
<text text-anchor="start" x="20.75" y="-350.5" font-family="Helvetica,sans-Serif" font-size="10.00">ComDriver()</text>
<text text-anchor="start" x="10.75" y="-334.5" font-family="Helvetica,sans-Serif" font-size="10.00">+</text>
<text text-anchor="start" x="20.75" y="-334.5" font-family="Helvetica,sans-Serif" font-size="10.00">~ComDriver()</text>
<text text-anchor="start" x="10.75" y="-318.5" font-family="Helvetica,sans-Serif" font-size="10.00">+</text>
<text text-anchor="start" x="20.75" y="-318.5" font-family="Helvetica,sans-Serif" font-size="10.00">init()</text>
<text text-anchor="start" x="10.75" y="-302.5" font-family="Helvetica,sans-Serif" font-size="10.00">+</text>
<text text-anchor="start" x="20.75" y="-302.5" font-family="Helvetica,sans-Serif" font-size="10.00">send()</text>
<text text-anchor="start" x="10.75" y="-286.5" font-family="Helvetica,sans-Serif" font-size="10.00">+</text>
<text text-anchor="start" x="20.75" y="-286.5" font-family="Helvetica,sans-Serif" font-size="10.00">emitBeginMessageReceive()</text>
<text text-anchor="start" x="10.75" y="-270.5" font-family="Helvetica,sans-Serif" font-size="10.00">+</text>
<text text-anchor="start" x="20.75" y="-270.5" font-family="Helvetica,sans-Serif" font-size="10.00">emitEndMessageReceived()</text>
<text text-anchor="start" x="10.75" y="-254.5" font-family="Helvetica,sans-Serif" font-size="10.00">+</text>
<text text-anchor="start" x="20.75" y="-254.5" font-family="Helvetica,sans-Serif" font-size="10.00">emitBeginMessageSend()</text>
<text text-anchor="start" x="10.75" y="-238.5" font-family="Helvetica,sans-Serif" font-size="10.00">+</text>
<text text-anchor="start" x="20.75" y="-238.5" font-family="Helvetica,sans-Serif" font-size="10.00">emitEndMessageSend()</text>
<text text-anchor="start" x="11.12" y="-222.5" font-family="Helvetica,sans-Serif" font-size="10.00">#</text>
<text text-anchor="start" x="20.75" y="-222.5" font-family="Helvetica,sans-Serif" font-size="10.00">reset()</text>
<polygon fill="#666666" stroke="#666666" points="6.75,-378 6.75,-378 150,-378 150,-378 6.75,-378"/>
<polygon fill="#666666" stroke="#666666" points="6.75,-362 6.75,-362 18.75,-362 18.75,-362 6.75,-362"/>
<polygon fill="#666666" stroke="#666666" points="18.75,-362 18.75,-362 150,-362 150,-362 18.75,-362"/>
<polygon fill="none" stroke="#666666" points="6.75,-216 6.75,-396 150,-396 150,-216 6.75,-216"/>
</a>
</g>
</g>
<!-- Node2&#45;&gt;Node1 -->
<g id="edge1_Node000001_Node000002" class="edge">
<title>Node2&#45;&gt;Node1</title>
<g id="a_edge1_Node000001_Node000002"><a xlink:title=" ">
<path fill="none" stroke="#8b1a1a" d="M113.74,-205.63C118.74,-191.58 123.82,-177.28 128.68,-163.65"/>
<polygon fill="none" stroke="#8b1a1a" points="110.5,-204.28 110.45,-214.88 117.1,-206.63 110.5,-204.28"/>
</a>
</g>
</g>
<!-- Node3 -->
<g id="Node000003" class="node">
<title>Node3</title>
<g id="a_Node000003"><a xlink:href="../../d3/d45/a00382.html" target="_top" xlink:title="Tracks various message statistics in the Xbee Core library.">
<polygon fill="white" stroke="none" points="156.75,-612 0,-612 0,-448 156.75,-448 156.75,-612"/>
<text text-anchor="start" x="18" y="-598.5" font-family="Helvetica,sans-Serif" font-size="10.00">Lib::Xbee::Core::Diagnostic</text>
<text text-anchor="start" x="4" y="-582.5" font-family="Helvetica,sans-Serif" font-size="10.00">+</text>
<text text-anchor="start" x="14" y="-582.5" font-family="Helvetica,sans-Serif" font-size="10.00">receivedDataMessages</text>
<text text-anchor="start" x="4" y="-566.5" font-family="Helvetica,sans-Serif" font-size="10.00">+</text>
<text text-anchor="start" x="14" y="-566.5" font-family="Helvetica,sans-Serif" font-size="10.00">sendedDataMessages</text>
<text text-anchor="start" x="4" y="-550.5" font-family="Helvetica,sans-Serif" font-size="10.00">+</text>
<text text-anchor="start" x="14" y="-550.5" font-family="Helvetica,sans-Serif" font-size="10.00">receivedATCommandMessages</text>
<text text-anchor="start" x="4" y="-534.5" font-family="Helvetica,sans-Serif" font-size="10.00">+</text>
<text text-anchor="start" x="14" y="-534.5" font-family="Helvetica,sans-Serif" font-size="10.00">sendedATCommandMessages</text>
<text text-anchor="start" x="4" y="-518.5" font-family="Helvetica,sans-Serif" font-size="10.00">+</text>
<text text-anchor="start" x="14" y="-518.5" font-family="Helvetica,sans-Serif" font-size="10.00">ignoredMessagesByTimeout</text>
<text text-anchor="start" x="4" y="-502.5" font-family="Helvetica,sans-Serif" font-size="10.00">+</text>
<text text-anchor="start" x="14" y="-502.5" font-family="Helvetica,sans-Serif" font-size="10.00">maxMsgLenghtErrors</text>
<text text-anchor="start" x="4" y="-486.5" font-family="Helvetica,sans-Serif" font-size="10.00">+</text>
<text text-anchor="start" x="14" y="-486.5" font-family="Helvetica,sans-Serif" font-size="10.00">invalidMessages</text>
<text text-anchor="start" x="4" y="-470.5" font-family="Helvetica,sans-Serif" font-size="10.00">+</text>
<text text-anchor="start" x="14" y="-470.5" font-family="Helvetica,sans-Serif" font-size="10.00">sendedDataMessagesTimeout</text>
<text text-anchor="start" x="4" y="-454.5" font-family="Helvetica,sans-Serif" font-size="10.00">+</text>
<text text-anchor="start" x="14" y="-454.5" font-family="Helvetica,sans-Serif" font-size="10.00">getInstance()</text>
<polygon fill="#666666" stroke="#666666" points="0,-594 0,-594 156.75,-594 156.75,-594 0,-594"/>
<polygon fill="#666666" stroke="#666666" points="0,-466 0,-466 12,-466 12,-466 0,-466"/>
<polygon fill="#666666" stroke="#666666" points="12,-466 12,-466 156.75,-466 156.75,-466 12,-466"/>
<polygon fill="none" stroke="#666666" points="0,-448 0,-612 156.75,-612 156.75,-448 0,-448"/>
</a>
</g>
</g>
<!-- Node3&#45;&gt;Node2 -->
<g id="edge2_Node000002_Node000003" class="edge">
<title>Node3&#45;&gt;Node2</title>
<g id="a_edge2_Node000002_Node000003"><a xlink:title=" ">
<path fill="none" stroke="#63b8ff" d="M78.38,-448.22C78.38,-435.35 78.38,-421.9 78.38,-408.62"/>
<polygon fill="none" stroke="#63b8ff" points="78.38,-408.87 74.38,-402.87 78.38,-396.87 82.38,-402.87 78.38,-408.87"/>
</a>
</g>
<text text-anchor="middle" x="104.62" y="-420.5" font-family="Helvetica,sans-Serif" font-size="10.00" fill="grey"> #diagnostic</text>
</g>
<!-- Node4 -->
<g id="Node000004" class="node">
<title>Node4</title>
<g id="a_Node000004"><a xlink:href="../../d9/dea/a00478.html" target="_top" xlink:title="Handles various XBee response events.">
<polygon fill="white" stroke="none" points="304.62,-400 168.12,-400 168.12,-212 304.62,-212 304.62,-400"/>
<text text-anchor="start" x="177.12" y="-386.5" font-family="Helvetica,sans-Serif" font-size="10.00">Lib::Xbee::Core::Response</text>
<text text-anchor="start" x="221" y="-374.5" font-family="Helvetica,sans-Serif" font-size="10.00">Events</text>
<text text-anchor="start" x="172.12" y="-358.5" font-family="Helvetica,sans-Serif" font-size="10.00">+</text>
<text text-anchor="start" x="182.12" y="-358.5" font-family="Helvetica,sans-Serif" font-size="10.00">onReceivePacket64bit</text>
<text text-anchor="start" x="172.12" y="-342.5" font-family="Helvetica,sans-Serif" font-size="10.00">+</text>
<text text-anchor="start" x="182.12" y="-342.5" font-family="Helvetica,sans-Serif" font-size="10.00">onReceivePacket16bit</text>
<text text-anchor="start" x="172.12" y="-326.5" font-family="Helvetica,sans-Serif" font-size="10.00">+</text>
<text text-anchor="start" x="182.12" y="-326.5" font-family="Helvetica,sans-Serif" font-size="10.00">onLocalAtCommand</text>
<text text-anchor="start" x="172.12" y="-310.5" font-family="Helvetica,sans-Serif" font-size="10.00">+</text>
<text text-anchor="start" x="182.12" y="-310.5" font-family="Helvetica,sans-Serif" font-size="10.00">onTransmitStatus</text>
<text text-anchor="start" x="172.12" y="-294.5" font-family="Helvetica,sans-Serif" font-size="10.00">+</text>
<text text-anchor="start" x="182.12" y="-294.5" font-family="Helvetica,sans-Serif" font-size="10.00">onModemStatusChanged</text>
<text text-anchor="start" x="172.12" y="-278.5" font-family="Helvetica,sans-Serif" font-size="10.00">+</text>
<text text-anchor="start" x="182.12" y="-278.5" font-family="Helvetica,sans-Serif" font-size="10.00">onExtendedTransmitStatus</text>
<text text-anchor="start" x="182.12" y="-266.5" font-family="Helvetica,sans-Serif" font-size="10.00">Changed</text>
<text text-anchor="start" x="172.12" y="-250.5" font-family="Helvetica,sans-Serif" font-size="10.00">+</text>
<text text-anchor="start" x="182.12" y="-250.5" font-family="Helvetica,sans-Serif" font-size="10.00">onPacketReceived</text>
<text text-anchor="start" x="172.12" y="-234.5" font-family="Helvetica,sans-Serif" font-size="10.00">+</text>
<text text-anchor="start" x="182.12" y="-234.5" font-family="Helvetica,sans-Serif" font-size="10.00">onRemoteATCommand</text>
<text text-anchor="start" x="172.12" y="-218.5" font-family="Helvetica,sans-Serif" font-size="10.00">+</text>
<text text-anchor="start" x="182.12" y="-218.5" font-family="Helvetica,sans-Serif" font-size="10.00">getInstance()</text>
<polygon fill="#666666" stroke="#666666" points="168.12,-370 168.12,-370 304.62,-370 304.62,-370 168.12,-370"/>
<polygon fill="#666666" stroke="#666666" points="168.12,-230 168.12,-230 180.12,-230 180.12,-230 168.12,-230"/>
<polygon fill="#666666" stroke="#666666" points="180.12,-230 180.12,-230 304.62,-230 304.62,-230 180.12,-230"/>
<polygon fill="none" stroke="#666666" points="168.12,-212 168.12,-400 304.62,-400 304.62,-212 168.12,-212"/>
</a>
</g>
</g>
<!-- Node4&#45;&gt;Node1 -->
<g id="edge3_Node000001_Node000004" class="edge">
<title>Node4&#45;&gt;Node1</title>
<g id="a_edge3_Node000001_Node000004"><a xlink:title=" ">
<path fill="none" stroke="#63b8ff" d="M203.33,-212.14C199.09,-200.23 194.76,-188.04 190.52,-176.13"/>
<polygon fill="none" stroke="#63b8ff" points="190.47,-176 184.69,-171.69 186.45,-164.7 192.23,-169.01 190.47,-176"/>
</a>
</g>
<text text-anchor="middle" x="236.62" y="-184.5" font-family="Helvetica,sans-Serif" font-size="10.00" fill="grey"> +responseEvents</text>
</g>
</g>
</svg>
