<?xml version="1.0" encoding="UTF-8" standalone="no"?>
<!DOCTYPE svg PUBLIC "-//W3C//DTD SVG 1.1//EN"
 "http://www.w3.org/Graphics/SVG/1.1/DTD/svg11.dtd">
<!-- Generated by graphviz version 13.1.0 (20250701.0955)
 -->
<!-- Title: Lib::Canbus::ServiceBase::start Pages: 1 -->
<svg width="304pt" height="190pt"
 viewBox="0.00 0.00 304.00 190.00" xmlns="http://www.w3.org/2000/svg" xmlns:xlink="http://www.w3.org/1999/xlink">
<g id="graph0" class="graph" transform="scale(1 1) rotate(0) translate(4 186)">
<title>Lib::Canbus::ServiceBase::start</title>
<!-- Node1 -->
<g id="Node000001" class="node">
<title>Node1</title>
<g id="a_Node000001"><a xlink:title="Starts the CAN service with the specified node ID.">
<polygon fill="#999999" stroke="#666666" points="130,-107 0,-107 0,-75 130,-75 130,-107"/>
<text xml:space="preserve" text-anchor="start" x="8" y="-93.5" font-family="Helvetica,sans-Serif" font-size="10.00">Lib::Canbus::ServiceBase</text>
<text xml:space="preserve" text-anchor="middle" x="65" y="-81.5" font-family="Helvetica,sans-Serif" font-size="10.00">::start</text>
</a>
</g>
</g>
<!-- Node2 -->
<g id="Node000002" class="node">
<title>Node2</title>
<g id="a_Node000002"><a xlink:href="../../da/d1a/class_lib_1_1_h_a_l_1_1_c_a_n_1_1_filter.html#a3249e6d0ad23afd5e5f4e0f7a065d5c9" target="_top" xlink:title="Sets the filter bank number.">
<polygon fill="white" stroke="#666666" points="285.88,-182 176.12,-182 176.12,-150 285.88,-150 285.88,-182"/>
<text xml:space="preserve" text-anchor="start" x="184.12" y="-168.5" font-family="Helvetica,sans-Serif" font-size="10.00">Lib::HAL::CAN::Filter</text>
<text xml:space="preserve" text-anchor="middle" x="231" y="-156.5" font-family="Helvetica,sans-Serif" font-size="10.00">::setBank</text>
</a>
</g>
</g>
<!-- Node1&#45;&gt;Node2 -->
<g id="edge1_Node000001_Node000002" class="edge">
<title>Node1&#45;&gt;Node2</title>
<g id="a_edge1_Node000001_Node000002"><a xlink:title=" ">
<path fill="none" stroke="#63b8ff" d="M96.73,-107.28C116.34,-117.43 142.41,-130.52 166,-141 169.17,-142.41 172.44,-143.82 175.76,-145.21"/>
<polygon fill="#63b8ff" stroke="#63b8ff" points="174.42,-148.45 185,-149.01 177.08,-141.97 174.42,-148.45"/>
</a>
</g>
</g>
<!-- Node3 -->
<g id="Node000003" class="node">
<title>Node3</title>
<g id="a_Node000003"><a xlink:href="../../da/d1a/class_lib_1_1_h_a_l_1_1_c_a_n_1_1_filter.html#a3ace50d629ae2d006c89c7dadf9b7f9e" target="_top" xlink:title="Sets the CAN identifier for the filter, encoding it into the hardware register format.">
<polygon fill="white" stroke="#666666" points="285.88,-132 176.12,-132 176.12,-100 285.88,-100 285.88,-132"/>
<text xml:space="preserve" text-anchor="start" x="184.12" y="-118.5" font-family="Helvetica,sans-Serif" font-size="10.00">Lib::HAL::CAN::Filter</text>
<text xml:space="preserve" text-anchor="middle" x="231" y="-106.5" font-family="Helvetica,sans-Serif" font-size="10.00">::setId</text>
</a>
</g>
</g>
<!-- Node1&#45;&gt;Node3 -->
<g id="edge2_Node000001_Node000003" class="edge">
<title>Node1&#45;&gt;Node3</title>
<g id="a_edge2_Node000001_Node000003"><a xlink:title=" ">
<path fill="none" stroke="#63b8ff" d="M130.35,-100.81C141.59,-102.52 153.29,-104.31 164.56,-106.02"/>
<polygon fill="#63b8ff" stroke="#63b8ff" points="163.74,-109.44 174.15,-107.49 164.79,-102.52 163.74,-109.44"/>
</a>
</g>
</g>
<!-- Node4 -->
<g id="Node000004" class="node">
<title>Node4</title>
<g id="a_Node000004"><a xlink:href="../../da/d1a/class_lib_1_1_h_a_l_1_1_c_a_n_1_1_filter.html#a32306db0a9a6aadc3a85c611c8cebffd" target="_top" xlink:title="Sets the CAN identifier mask for the filter, encoding it into the hardware register format.">
<polygon fill="white" stroke="#666666" points="285.88,-82 176.12,-82 176.12,-50 285.88,-50 285.88,-82"/>
<text xml:space="preserve" text-anchor="start" x="184.12" y="-68.5" font-family="Helvetica,sans-Serif" font-size="10.00">Lib::HAL::CAN::Filter</text>
<text xml:space="preserve" text-anchor="middle" x="231" y="-56.5" font-family="Helvetica,sans-Serif" font-size="10.00">::setMask</text>
</a>
</g>
</g>
<!-- Node1&#45;&gt;Node4 -->
<g id="edge3_Node000001_Node000004" class="edge">
<title>Node1&#45;&gt;Node4</title>
<g id="a_edge3_Node000001_Node000004"><a xlink:title=" ">
<path fill="none" stroke="#63b8ff" d="M130.35,-81.19C141.59,-79.48 153.29,-77.69 164.56,-75.98"/>
<polygon fill="#63b8ff" stroke="#63b8ff" points="164.79,-79.48 174.15,-74.51 163.74,-72.56 164.79,-79.48"/>
</a>
</g>
</g>
<!-- Node5 -->
<g id="Node000005" class="node">
<title>Node5</title>
<g id="a_Node000005"><a xlink:href="../../d6/d56/class_lib_1_1_canbus_1_1_service_base.html#a3f461c3e0f637c2be89463249c736b46" target="_top" xlink:title="Pure virtual function for the CAN service task.">
<polygon fill="white" stroke="#666666" points="296,-32 166,-32 166,0 296,0 296,-32"/>
<text xml:space="preserve" text-anchor="start" x="174" y="-18.5" font-family="Helvetica,sans-Serif" font-size="10.00">Lib::Canbus::ServiceBase</text>
<text xml:space="preserve" text-anchor="middle" x="231" y="-6.5" font-family="Helvetica,sans-Serif" font-size="10.00">::taskFn</text>
</a>
</g>
</g>
<!-- Node1&#45;&gt;Node5 -->
<g id="edge4_Node000001_Node000005" class="edge">
<title>Node1&#45;&gt;Node5</title>
<g id="a_edge4_Node000001_Node000005"><a xlink:title=" ">
<path fill="none" stroke="#63b8ff" d="M96.73,-74.72C116.34,-64.57 142.41,-51.48 166,-41 169.17,-39.59 172.44,-38.18 175.76,-36.79"/>
<polygon fill="#63b8ff" stroke="#63b8ff" points="177.08,-40.03 185,-32.99 174.42,-33.55 177.08,-40.03"/>
</a>
</g>
</g>
</g>
</svg>
