<?xml version="1.0" encoding="UTF-8" standalone="no"?>
<!DOCTYPE svg PUBLIC "-//W3C//DTD SVG 1.1//EN"
 "http://www.w3.org/Graphics/SVG/1.1/DTD/svg11.dtd">
<!-- Generated by graphviz version 13.1.0 (20250701.0955)
 -->
<!-- Title: RTOS::SemaphoreBase::destroy Pages: 1 -->
<svg width="303pt" height="128pt"
 viewBox="0.00 0.00 303.00 128.00" xmlns="http://www.w3.org/2000/svg" xmlns:xlink="http://www.w3.org/1999/xlink">
<g id="graph0" class="graph" transform="scale(1 1) rotate(0) translate(4 124)">
<title>RTOS::SemaphoreBase::destroy</title>
<!-- Node1 -->
<g id="Node000001" class="node">
<title>Node1</title>
<g id="a_Node000001"><a xlink:title="Destroys the semaphore if created.">
<polygon fill="#999999" stroke="#666666" points="294.5,-76 173.5,-76 173.5,-44 294.5,-44 294.5,-76"/>
<text xml:space="preserve" text-anchor="start" x="181.5" y="-62.5" font-family="Helvetica,sans-Serif" font-size="10.00">RTOS::SemaphoreBase</text>
<text xml:space="preserve" text-anchor="middle" x="234" y="-50.5" font-family="Helvetica,sans-Serif" font-size="10.00">::destroy</text>
</a>
</g>
</g>
<!-- Node2 -->
<g id="Node000002" class="node">
<title>Node2</title>
<g id="a_Node000002"><a xlink:href="../../d0/d48/a00165.html#ab98752a3e231b56ba654c2c7cfad9f35" target="_top" xlink:title="Virtual destructor asserting that the semaphore is destroyed before object destruction.">
<polygon fill="white" stroke="#666666" points="129.25,-120 8.25,-120 8.25,-88 129.25,-88 129.25,-120"/>
<text xml:space="preserve" text-anchor="start" x="16.25" y="-106.5" font-family="Helvetica,sans-Serif" font-size="10.00">RTOS::SemaphoreBase</text>
<text xml:space="preserve" text-anchor="middle" x="68.75" y="-94.5" font-family="Helvetica,sans-Serif" font-size="10.00">::~SemaphoreBase</text>
</a>
</g>
</g>
<!-- Node1&#45;&gt;Node2 -->
<g id="edge1_Node000001_Node000002" class="edge">
<title>Node1&#45;&gt;Node2</title>
<g id="a_edge1_Node000001_Node000002"><a xlink:title=" ">
<path fill="none" stroke="#63b8ff" d="M162.34,-79.04C151.43,-81.99 140.25,-85 129.6,-87.87"/>
<polygon fill="#63b8ff" stroke="#63b8ff" points="162.93,-82.51 171.68,-76.53 161.11,-75.75 162.93,-82.51"/>
</a>
</g>
</g>
<!-- Node3 -->
<g id="Node000003" class="node">
<title>Node3</title>
<g id="a_Node000003"><a xlink:href="../../d6/d7d/a00161.html#a20dab5ad75e48b973309d994006e99b5" target="_top" xlink:title="Destroys the semaphore and releases its resources.">
<polygon fill="white" stroke="#666666" points="137.12,-70 0.38,-70 0.38,-50 137.12,-50 137.12,-70"/>
<text xml:space="preserve" text-anchor="middle" x="68.75" y="-56.5" font-family="Helvetica,sans-Serif" font-size="10.00">RTOS::Semaphore::destroy</text>
</a>
</g>
</g>
<!-- Node1&#45;&gt;Node3 -->
<g id="edge2_Node000001_Node000003" class="edge">
<title>Node1&#45;&gt;Node3</title>
<g id="a_edge2_Node000001_Node000003"><a xlink:title=" ">
<path fill="none" stroke="#63b8ff" d="M161.87,-60C153.82,-60 145.62,-60 137.61,-60"/>
<polygon fill="#63b8ff" stroke="#63b8ff" points="161.63,-63.5 171.63,-60 161.63,-56.5 161.63,-63.5"/>
</a>
</g>
</g>
<!-- Node4 -->
<g id="Node000004" class="node">
<title>Node4</title>
<g id="a_Node000004"><a xlink:href="../../de/d53/a00169.html#ae454658af0fecb7d59cdd7ebae348f81" target="_top" xlink:title="Destroys the semaphore and releases its resources.">
<polygon fill="white" stroke="#666666" points="137.5,-32 0,-32 0,0 137.5,0 137.5,-32"/>
<text xml:space="preserve" text-anchor="start" x="8" y="-18.5" font-family="Helvetica,sans-Serif" font-size="10.00">RTOS::SemaphoreCounting</text>
<text xml:space="preserve" text-anchor="middle" x="68.75" y="-6.5" font-family="Helvetica,sans-Serif" font-size="10.00">::destroy</text>
</a>
</g>
</g>
<!-- Node1&#45;&gt;Node4 -->
<g id="edge3_Node000001_Node000004" class="edge">
<title>Node1&#45;&gt;Node4</title>
<g id="a_edge3_Node000001_Node000004"><a xlink:title=" ">
<path fill="none" stroke="#63b8ff" d="M162.29,-40.94C151.77,-38.11 141,-35.2 130.7,-32.43"/>
<polygon fill="#63b8ff" stroke="#63b8ff" points="161.11,-44.25 171.68,-43.47 162.93,-37.49 161.11,-44.25"/>
</a>
</g>
</g>
</g>
</svg>
