<?xml version="1.0" encoding="UTF-8" standalone="no"?>
<!DOCTYPE svg PUBLIC "-//W3C//DTD SVG 1.1//EN"
 "http://www.w3.org/Graphics/SVG/1.1/DTD/svg11.dtd">
<!-- Generated by graphviz version 13.1.0 (20250701.0955)
 -->
<!-- Title: RTOS::SemaphoreBase::give Pages: 1 -->
<svg width="449pt" height="116pt"
 viewBox="0.00 0.00 449.00 116.00" xmlns="http://www.w3.org/2000/svg" xmlns:xlink="http://www.w3.org/1999/xlink">
<g id="graph0" class="graph" transform="scale(1 1) rotate(0) translate(4 112)">
<title>RTOS::SemaphoreBase::give</title>
<!-- Node1 -->
<g id="Node000001" class="node">
<title>Node1</title>
<g id="a_Node000001"><a xlink:title="Gives the semaphore.">
<polygon fill="#999999" stroke="#666666" points="441,-76 320,-76 320,-44 441,-44 441,-76"/>
<text xml:space="preserve" text-anchor="start" x="328" y="-62.5" font-family="Helvetica,sans-Serif" font-size="10.00">RTOS::SemaphoreBase</text>
<text xml:space="preserve" text-anchor="middle" x="380.5" y="-50.5" font-family="Helvetica,sans-Serif" font-size="10.00">::give</text>
</a>
</g>
</g>
<!-- Node2 -->
<g id="Node000002" class="node">
<title>Node2</title>
<g id="a_Node000002"><a xlink:href="../../da/ddb/a00145.html#afd31afde78f47fa803851f172457fffd" target="_top" xlink:title="Releases the mutex.">
<polygon fill="white" stroke="#666666" points="265.25,-108 165.25,-108 165.25,-88 265.25,-88 265.25,-108"/>
<text xml:space="preserve" text-anchor="middle" x="215.25" y="-94.5" font-family="Helvetica,sans-Serif" font-size="10.00">RTOS::Mutex::give</text>
</a>
</g>
</g>
<!-- Node1&#45;&gt;Node2 -->
<g id="edge1_Node000001_Node000002" class="edge">
<title>Node1&#45;&gt;Node2</title>
<g id="a_edge1_Node000001_Node000002"><a xlink:title=" ">
<path fill="none" stroke="#63b8ff" d="M308.63,-76.5C292.56,-80.24 275.92,-84.11 261.27,-87.52"/>
<polygon fill="#63b8ff" stroke="#63b8ff" points="309.22,-79.95 318.16,-74.28 307.63,-73.14 309.22,-79.95"/>
</a>
</g>
</g>
<!-- Node4 -->
<g id="Node000004" class="node">
<title>Node4</title>
<g id="a_Node000004"><a xlink:href="../../d6/d7d/a00161.html#aad3313acf8b7b8d3282fa087e94699a3" target="_top" xlink:title="Gives the semaphore, making it available to other tasks.">
<polygon fill="white" stroke="#666666" points="276.5,-70 154,-70 154,-50 276.5,-50 276.5,-70"/>
<text xml:space="preserve" text-anchor="middle" x="215.25" y="-56.5" font-family="Helvetica,sans-Serif" font-size="10.00">RTOS::Semaphore::give</text>
</a>
</g>
</g>
<!-- Node1&#45;&gt;Node4 -->
<g id="edge3_Node000001_Node000004" class="edge">
<title>Node1&#45;&gt;Node4</title>
<g id="a_edge3_Node000001_Node000004"><a xlink:title=" ">
<path fill="none" stroke="#63b8ff" d="M308.38,-60C297.9,-60 287.17,-60 276.92,-60"/>
<polygon fill="#63b8ff" stroke="#63b8ff" points="308.13,-63.5 318.13,-60 308.13,-56.5 308.13,-63.5"/>
</a>
</g>
</g>
<!-- Node5 -->
<g id="Node000005" class="node">
<title>Node5</title>
<g id="a_Node000005"><a xlink:href="../../de/d53/a00169.html#af215c754c4d99724da5d5e212960f4ce" target="_top" xlink:title="Gives a token to the semaphore.">
<polygon fill="white" stroke="#666666" points="284,-32 146.5,-32 146.5,0 284,0 284,-32"/>
<text xml:space="preserve" text-anchor="start" x="154.5" y="-18.5" font-family="Helvetica,sans-Serif" font-size="10.00">RTOS::SemaphoreCounting</text>
<text xml:space="preserve" text-anchor="middle" x="215.25" y="-6.5" font-family="Helvetica,sans-Serif" font-size="10.00">::give</text>
</a>
</g>
</g>
<!-- Node1&#45;&gt;Node5 -->
<g id="edge4_Node000001_Node000005" class="edge">
<title>Node1&#45;&gt;Node5</title>
<g id="a_edge4_Node000001_Node000005"><a xlink:title=" ">
<path fill="none" stroke="#63b8ff" d="M308.79,-40.94C298.27,-38.11 287.5,-35.2 277.2,-32.43"/>
<polygon fill="#63b8ff" stroke="#63b8ff" points="307.61,-44.25 318.18,-43.47 309.43,-37.49 307.61,-44.25"/>
</a>
</g>
</g>
<!-- Node3 -->
<g id="Node000003" class="node">
<title>Node3</title>
<g id="a_Node000003"><a xlink:href="../../da/ddb/a00145.html#a345c1a4de6315a11205eddce12e0f573" target="_top" xlink:title="Unlocks the mutex, releasing ownership.">
<polygon fill="white" stroke="#666666" points="110.5,-108 0,-108 0,-88 110.5,-88 110.5,-108"/>
<text xml:space="preserve" text-anchor="middle" x="55.25" y="-94.5" font-family="Helvetica,sans-Serif" font-size="10.00">RTOS::Mutex::unlock</text>
</a>
</g>
</g>
<!-- Node2&#45;&gt;Node3 -->
<g id="edge2_Node000002_Node000003" class="edge">
<title>Node2&#45;&gt;Node3</title>
<g id="a_edge2_Node000002_Node000003"><a xlink:title=" ">
<path fill="none" stroke="#63b8ff" d="M153.97,-98C139.79,-98 124.76,-98 110.85,-98"/>
<polygon fill="#63b8ff" stroke="#63b8ff" points="153.61,-101.5 163.61,-98 153.61,-94.5 153.61,-101.5"/>
</a>
</g>
</g>
</g>
</svg>
