<?xml version="1.0" encoding="UTF-8" standalone="no"?>
<!DOCTYPE svg PUBLIC "-//W3C//DTD SVG 1.1//EN"
 "http://www.w3.org/Graphics/SVG/1.1/DTD/svg11.dtd">
<!-- Generated by graphviz version 13.1.0 (20250701.0955)
 -->
<!-- Title: Lib::Helper::DateTime::Time::setTime Pages: 1 -->
<svg width="268pt" height="108pt"
 viewBox="0.00 0.00 268.00 108.00" xmlns="http://www.w3.org/2000/svg" xmlns:xlink="http://www.w3.org/1999/xlink">
<g id="graph0" class="graph" transform="scale(1 1) rotate(0) translate(4 104)">
<title>Lib::Helper::DateTime::Time::setTime</title>
<!-- Node1 -->
<g id="Node000001" class="node">
<title>Node1</title>
<g id="a_Node000001"><a xlink:title="Sets the time to the specified Time object if valid.">
<polygon fill="#999999" stroke="#666666" points="112,-57 0,-57 0,-25 112,-25 112,-57"/>
<text xml:space="preserve" text-anchor="start" x="8" y="-43.5" font-family="Helvetica,sans-Serif" font-size="10.00">Lib::Helper::DateTime</text>
<text xml:space="preserve" text-anchor="middle" x="56" y="-31.5" font-family="Helvetica,sans-Serif" font-size="10.00">::Time::setTime</text>
</a>
</g>
</g>
<!-- Node2 -->
<g id="Node000002" class="node">
<title>Node2</title>
<g id="a_Node000002"><a xlink:href="../../d7/dee/class_lib_1_1_helper_1_1_date_time_1_1_time.html#aaa5217e113e686edeace28c25aa7a376" target="_top" xlink:title="Checks if the Time object contains valid values.">
<polygon fill="white" stroke="#666666" points="260,-82 148,-82 148,-50 260,-50 260,-82"/>
<text xml:space="preserve" text-anchor="start" x="156" y="-68.5" font-family="Helvetica,sans-Serif" font-size="10.00">Lib::Helper::DateTime</text>
<text xml:space="preserve" text-anchor="middle" x="204" y="-56.5" font-family="Helvetica,sans-Serif" font-size="10.00">::Time::isValid</text>
</a>
</g>
</g>
<!-- Node1&#45;&gt;Node2 -->
<g id="edge1_Node000001_Node000002" class="edge">
<title>Node1&#45;&gt;Node2</title>
<g id="a_edge1_Node000001_Node000002"><a xlink:title=" ">
<path fill="none" stroke="#63b8ff" d="M112.2,-50.45C120.1,-51.8 128.3,-53.21 136.39,-54.59"/>
<polygon fill="#63b8ff" stroke="#63b8ff" points="135.79,-58.04 146.23,-56.28 136.97,-51.14 135.79,-58.04"/>
</a>
</g>
</g>
<!-- Node3 -->
<g id="Node000003" class="node">
<title>Node3</title>
<g id="a_Node000003"><a xlink:href="../../d7/dee/class_lib_1_1_helper_1_1_date_time_1_1_time.html#a35813903334b1837e7b8bd8c435d321b" target="_top" xlink:title="Constructs a Time object with zero hours, minutes, and seconds.">
<polygon fill="white" stroke="#666666" points="260,-32 148,-32 148,0 260,0 260,-32"/>
<text xml:space="preserve" text-anchor="start" x="156" y="-18.5" font-family="Helvetica,sans-Serif" font-size="10.00">Lib::Helper::DateTime</text>
<text xml:space="preserve" text-anchor="middle" x="204" y="-6.5" font-family="Helvetica,sans-Serif" font-size="10.00">::Time::Time</text>
</a>
</g>
</g>
<!-- Node1&#45;&gt;Node3 -->
<g id="edge3_Node000001_Node000003" class="edge">
<title>Node1&#45;&gt;Node3</title>
<g id="a_edge3_Node000001_Node000003"><a xlink:title=" ">
<path fill="none" stroke="#63b8ff" d="M112.2,-31.55C120.1,-30.2 128.3,-28.79 136.39,-27.41"/>
<polygon fill="#63b8ff" stroke="#63b8ff" points="136.97,-30.86 146.23,-25.72 135.79,-23.96 136.97,-30.86"/>
</a>
</g>
</g>
<!-- Node2&#45;&gt;Node2 -->
<g id="edge2_Node000002_Node000002" class="edge">
<title>Node2&#45;&gt;Node2</title>
<g id="a_edge2_Node000002_Node000002"><a xlink:title=" ">
<path fill="none" stroke="#63b8ff" d="M177.58,-82.44C172.65,-91.58 181.45,-100 204,-100 216.33,-100 224.55,-97.48 228.66,-93.71"/>
<polygon fill="#63b8ff" stroke="#63b8ff" points="232.1,-94.36 230.19,-83.94 225.19,-93.28 232.1,-94.36"/>
</a>
</g>
</g>
</g>
</svg>
