<?xml version="1.0" encoding="UTF-8" standalone="no"?>
<!DOCTYPE svg PUBLIC "-//W3C//DTD SVG 1.1//EN"
 "http://www.w3.org/Graphics/SVG/1.1/DTD/svg11.dtd">
<!-- Generated by graphviz version 13.1.0 (20250701.0955)
 -->
<!-- Title: Lib::Helper::DateTime::Time::Time Pages: 1 -->
<svg width="268pt" height="490pt"
 viewBox="0.00 0.00 268.00 490.00" xmlns="http://www.w3.org/2000/svg" xmlns:xlink="http://www.w3.org/1999/xlink">
<g id="graph0" class="graph" transform="scale(1 1) rotate(0) translate(4 486)">
<title>Lib::Helper::DateTime::Time::Time</title>
<!-- Node1 -->
<g id="Node000001" class="node">
<title>Node1</title>
<g id="a_Node000001"><a xlink:title="Constructs a Time object with zero hours, minutes, and seconds.">
<polygon fill="#999999" stroke="#666666" points="260,-257 148,-257 148,-225 260,-225 260,-257"/>
<text xml:space="preserve" text-anchor="start" x="156" y="-243.5" font-family="Helvetica,sans-Serif" font-size="10.00">Lib::Helper::DateTime</text>
<text xml:space="preserve" text-anchor="middle" x="204" y="-231.5" font-family="Helvetica,sans-Serif" font-size="10.00">::Time::Time</text>
</a>
</g>
</g>
<!-- Node2 -->
<g id="Node000002" class="node">
<title>Node2</title>
<g id="a_Node000002"><a xlink:href="../../d7/dee/class_lib_1_1_helper_1_1_date_time_1_1_time.html#abc2f4319c1b828e2292bdcdd47107435" target="_top" xlink:title="Checks if a Time object contains valid values.">
<polygon fill="white" stroke="#666666" points="112,-482 0,-482 0,-450 112,-450 112,-482"/>
<text xml:space="preserve" text-anchor="start" x="8" y="-468.5" font-family="Helvetica,sans-Serif" font-size="10.00">Lib::Helper::DateTime</text>
<text xml:space="preserve" text-anchor="middle" x="56" y="-456.5" font-family="Helvetica,sans-Serif" font-size="10.00">::Time::isValid</text>
</a>
</g>
</g>
<!-- Node1&#45;&gt;Node2 -->
<g id="edge1_Node000001_Node000002" class="edge">
<title>Node1&#45;&gt;Node2</title>
<g id="a_edge1_Node000001_Node000002"><a xlink:title=" ">
<path fill="none" stroke="#63b8ff" d="M197.12,-268.24C186.75,-310.36 161.46,-391.56 112,-441 108.81,-444.19 105.14,-447.01 101.24,-449.5"/>
<polygon fill="#63b8ff" stroke="#63b8ff" points="200.49,-269.23 199.37,-258.69 193.67,-267.63 200.49,-269.23"/>
</a>
</g>
</g>
<!-- Node3 -->
<g id="Node000003" class="node">
<title>Node3</title>
<g id="a_Node000003"><a xlink:href="../../d7/dee/class_lib_1_1_helper_1_1_date_time_1_1_time.html#a5cba10afbbb791e8ff6950246c459a69" target="_top" xlink:title="Compares two Time objects for inequality.">
<polygon fill="white" stroke="#666666" points="112,-432 0,-432 0,-400 112,-400 112,-432"/>
<text xml:space="preserve" text-anchor="start" x="8" y="-418.5" font-family="Helvetica,sans-Serif" font-size="10.00">Lib::Helper::DateTime</text>
<text xml:space="preserve" text-anchor="middle" x="56" y="-406.5" font-family="Helvetica,sans-Serif" font-size="10.00">::Time::operator!=</text>
</a>
</g>
</g>
<!-- Node1&#45;&gt;Node3 -->
<g id="edge2_Node000001_Node000003" class="edge">
<title>Node1&#45;&gt;Node3</title>
<g id="a_edge2_Node000001_Node000003"><a xlink:title=" ">
<path fill="none" stroke="#63b8ff" d="M192.63,-267.76C178.71,-300.62 151.12,-356.27 112,-391 108.39,-394.2 104.3,-397.06 100.03,-399.6"/>
<polygon fill="#63b8ff" stroke="#63b8ff" points="195.85,-269.14 196.41,-258.56 189.37,-266.48 195.85,-269.14"/>
</a>
</g>
</g>
<!-- Node4 -->
<g id="Node000004" class="node">
<title>Node4</title>
<g id="a_Node000004"><a xlink:href="../../d7/dee/class_lib_1_1_helper_1_1_date_time_1_1_time.html#a948e1ac30860b714a0bbde5f6e3465ee" target="_top" xlink:title="Checks if this Time is less than another Time.">
<polygon fill="white" stroke="#666666" points="112,-382 0,-382 0,-350 112,-350 112,-382"/>
<text xml:space="preserve" text-anchor="start" x="8" y="-368.5" font-family="Helvetica,sans-Serif" font-size="10.00">Lib::Helper::DateTime</text>
<text xml:space="preserve" text-anchor="middle" x="56" y="-356.5" font-family="Helvetica,sans-Serif" font-size="10.00">::Time::operator&lt;</text>
</a>
</g>
</g>
<!-- Node1&#45;&gt;Node4 -->
<g id="edge3_Node000001_Node000004" class="edge">
<title>Node1&#45;&gt;Node4</title>
<g id="a_edge3_Node000001_Node000004"><a xlink:title=" ">
<path fill="none" stroke="#63b8ff" d="M184.57,-266.51C167.67,-288.5 140.92,-319.93 112,-341 107.68,-344.15 102.89,-347.04 98,-349.64"/>
<polygon fill="#63b8ff" stroke="#63b8ff" points="187.28,-268.74 190.5,-258.64 181.68,-264.53 187.28,-268.74"/>
</a>
</g>
</g>
<!-- Node5 -->
<g id="Node000005" class="node">
<title>Node5</title>
<g id="a_Node000005"><a xlink:href="../../d7/dee/class_lib_1_1_helper_1_1_date_time_1_1_time.html#a37213fbb861ffb4ad46a97307e8274a9" target="_top" xlink:title="Checks if this Time is less than or equal to another Time.">
<polygon fill="white" stroke="#666666" points="112,-332 0,-332 0,-300 112,-300 112,-332"/>
<text xml:space="preserve" text-anchor="start" x="8" y="-318.5" font-family="Helvetica,sans-Serif" font-size="10.00">Lib::Helper::DateTime</text>
<text xml:space="preserve" text-anchor="middle" x="56" y="-306.5" font-family="Helvetica,sans-Serif" font-size="10.00">::Time::operator&lt;=</text>
</a>
</g>
</g>
<!-- Node1&#45;&gt;Node5 -->
<g id="edge4_Node000001_Node000005" class="edge">
<title>Node1&#45;&gt;Node5</title>
<g id="a_edge4_Node000001_Node000005"><a xlink:title=" ">
<path fill="none" stroke="#63b8ff" d="M164.96,-262.74C148.78,-271.77 129.62,-282.17 112,-291 106.28,-293.87 100.16,-296.79 94.16,-299.57"/>
<polygon fill="#63b8ff" stroke="#63b8ff" points="166.28,-266.01 173.29,-258.07 162.85,-259.91 166.28,-266.01"/>
</a>
</g>
</g>
<!-- Node6 -->
<g id="Node000006" class="node">
<title>Node6</title>
<g id="a_Node000006"><a xlink:href="../../d7/dee/class_lib_1_1_helper_1_1_date_time_1_1_time.html#a6b3e2b51f30405e08169180130064613" target="_top" xlink:title="Compares two Time objects for equality.">
<polygon fill="white" stroke="#666666" points="112,-282 0,-282 0,-250 112,-250 112,-282"/>
<text xml:space="preserve" text-anchor="start" x="8" y="-268.5" font-family="Helvetica,sans-Serif" font-size="10.00">Lib::Helper::DateTime</text>
<text xml:space="preserve" text-anchor="middle" x="56" y="-256.5" font-family="Helvetica,sans-Serif" font-size="10.00">::Time::operator==</text>
</a>
</g>
</g>
<!-- Node1&#45;&gt;Node6 -->
<g id="edge5_Node000001_Node000006" class="edge">
<title>Node1&#45;&gt;Node6</title>
<g id="a_edge5_Node000001_Node000006"><a xlink:title=" ">
<path fill="none" stroke="#63b8ff" d="M136.47,-252.39C128.38,-253.78 120.18,-255.18 112.27,-256.54"/>
<polygon fill="#63b8ff" stroke="#63b8ff" points="137.05,-255.84 146.31,-250.71 135.86,-248.94 137.05,-255.84"/>
</a>
</g>
</g>
<!-- Node7 -->
<g id="Node000007" class="node">
<title>Node7</title>
<g id="a_Node000007"><a xlink:href="../../d7/dee/class_lib_1_1_helper_1_1_date_time_1_1_time.html#a730d812ba3f8cce787557dc956617171" target="_top" xlink:title="Checks if this Time is greater than another Time.">
<polygon fill="white" stroke="#666666" points="112,-232 0,-232 0,-200 112,-200 112,-232"/>
<text xml:space="preserve" text-anchor="start" x="8" y="-218.5" font-family="Helvetica,sans-Serif" font-size="10.00">Lib::Helper::DateTime</text>
<text xml:space="preserve" text-anchor="middle" x="56" y="-206.5" font-family="Helvetica,sans-Serif" font-size="10.00">::Time::operator&gt;</text>
</a>
</g>
</g>
<!-- Node1&#45;&gt;Node7 -->
<g id="edge6_Node000001_Node000007" class="edge">
<title>Node1&#45;&gt;Node7</title>
<g id="a_edge6_Node000001_Node000007"><a xlink:title=" ">
<path fill="none" stroke="#63b8ff" d="M136.47,-229.61C128.38,-228.22 120.18,-226.82 112.27,-225.46"/>
<polygon fill="#63b8ff" stroke="#63b8ff" points="135.86,-233.06 146.31,-231.29 137.05,-226.16 135.86,-233.06"/>
</a>
</g>
</g>
<!-- Node8 -->
<g id="Node000008" class="node">
<title>Node8</title>
<g id="a_Node000008"><a xlink:href="../../d7/dee/class_lib_1_1_helper_1_1_date_time_1_1_time.html#ae7d1d36b702d9d5b83603a48ffa4f2bd" target="_top" xlink:title="Checks if this Time is greater than or equal to another Time.">
<polygon fill="white" stroke="#666666" points="112,-182 0,-182 0,-150 112,-150 112,-182"/>
<text xml:space="preserve" text-anchor="start" x="8" y="-168.5" font-family="Helvetica,sans-Serif" font-size="10.00">Lib::Helper::DateTime</text>
<text xml:space="preserve" text-anchor="middle" x="56" y="-156.5" font-family="Helvetica,sans-Serif" font-size="10.00">::Time::operator&gt;=</text>
</a>
</g>
</g>
<!-- Node1&#45;&gt;Node8 -->
<g id="edge7_Node000001_Node000008" class="edge">
<title>Node1&#45;&gt;Node8</title>
<g id="a_edge7_Node000001_Node000008"><a xlink:title=" ">
<path fill="none" stroke="#63b8ff" d="M164.96,-219.26C148.78,-210.23 129.62,-199.83 112,-191 106.28,-188.13 100.16,-185.21 94.16,-182.43"/>
<polygon fill="#63b8ff" stroke="#63b8ff" points="162.85,-222.09 173.29,-223.93 166.28,-215.99 162.85,-222.09"/>
</a>
</g>
</g>
<!-- Node9 -->
<g id="Node000009" class="node">
<title>Node9</title>
<g id="a_Node000009"><a xlink:href="../../d7/dee/class_lib_1_1_helper_1_1_date_time_1_1_time.html#ae85e32d686210a884d7dee20a7e12ed8" target="_top" xlink:title="Sets the time to the specified Time object if valid.">
<polygon fill="white" stroke="#666666" points="112,-132 0,-132 0,-100 112,-100 112,-132"/>
<text xml:space="preserve" text-anchor="start" x="8" y="-118.5" font-family="Helvetica,sans-Serif" font-size="10.00">Lib::Helper::DateTime</text>
<text xml:space="preserve" text-anchor="middle" x="56" y="-106.5" font-family="Helvetica,sans-Serif" font-size="10.00">::Time::setTime</text>
</a>
</g>
</g>
<!-- Node1&#45;&gt;Node9 -->
<g id="edge8_Node000001_Node000009" class="edge">
<title>Node1&#45;&gt;Node9</title>
<g id="a_edge8_Node000001_Node000009"><a xlink:title=" ">
<path fill="none" stroke="#63b8ff" d="M184.57,-215.49C167.67,-193.5 140.92,-162.07 112,-141 107.68,-137.85 102.89,-134.96 98,-132.36"/>
<polygon fill="#63b8ff" stroke="#63b8ff" points="181.68,-217.47 190.5,-223.36 187.28,-213.26 181.68,-217.47"/>
</a>
</g>
</g>
<!-- Node10 -->
<g id="Node000010" class="node">
<title>Node10</title>
<g id="a_Node000010"><a xlink:href="../../d7/dee/class_lib_1_1_helper_1_1_date_time_1_1_time.html#a88347d4c77849e557b202e3c12b4c16f" target="_top" xlink:title="Constructs a Time object by copying another Time instance.">
<polygon fill="white" stroke="#666666" points="112,-82 0,-82 0,-50 112,-50 112,-82"/>
<text xml:space="preserve" text-anchor="start" x="8" y="-68.5" font-family="Helvetica,sans-Serif" font-size="10.00">Lib::Helper::DateTime</text>
<text xml:space="preserve" text-anchor="middle" x="56" y="-56.5" font-family="Helvetica,sans-Serif" font-size="10.00">::Time::Time</text>
</a>
</g>
</g>
<!-- Node1&#45;&gt;Node10 -->
<g id="edge9_Node000001_Node000010" class="edge">
<title>Node1&#45;&gt;Node10</title>
<g id="a_edge9_Node000001_Node000010"><a xlink:title=" ">
<path fill="none" stroke="#63b8ff" d="M192.63,-214.24C178.71,-181.38 151.12,-125.73 112,-91 108.39,-87.8 104.3,-84.94 100.03,-82.4"/>
<polygon fill="#63b8ff" stroke="#63b8ff" points="189.37,-215.52 196.41,-223.44 195.85,-212.86 189.37,-215.52"/>
</a>
</g>
</g>
<!-- Node11 -->
<g id="Node000011" class="node">
<title>Node11</title>
<g id="a_Node000011"><a xlink:href="../../d7/dee/class_lib_1_1_helper_1_1_date_time_1_1_time.html#ad9b0d6aa235eb9b0ace5f78d12610049" target="_top" xlink:title="Converts a Time object to a string in HH:MM:SS format.">
<polygon fill="white" stroke="#666666" points="112,-32 0,-32 0,0 112,0 112,-32"/>
<text xml:space="preserve" text-anchor="start" x="8" y="-18.5" font-family="Helvetica,sans-Serif" font-size="10.00">Lib::Helper::DateTime</text>
<text xml:space="preserve" text-anchor="middle" x="56" y="-6.5" font-family="Helvetica,sans-Serif" font-size="10.00">::Time::toString</text>
</a>
</g>
</g>
<!-- Node1&#45;&gt;Node11 -->
<g id="edge10_Node000001_Node000011" class="edge">
<title>Node1&#45;&gt;Node11</title>
<g id="a_edge10_Node000001_Node000011"><a xlink:title=" ">
<path fill="none" stroke="#63b8ff" d="M197.12,-213.76C186.75,-171.64 161.46,-90.44 112,-41 108.81,-37.81 105.14,-34.99 101.24,-32.5"/>
<polygon fill="#63b8ff" stroke="#63b8ff" points="193.67,-214.37 199.37,-223.31 200.49,-212.77 193.67,-214.37"/>
</a>
</g>
</g>
</g>
</svg>
