<?xml version="1.0" encoding="UTF-8" standalone="no"?>
<!DOCTYPE svg PUBLIC "-//W3C//DTD SVG 1.1//EN"
 "http://www.w3.org/Graphics/SVG/1.1/DTD/svg11.dtd">
<!-- Generated by graphviz version 12.2.1 (20241206.2353)
 -->
<!-- Title: Lib::Digi::Core::Protocol Pages: 1 -->
<svg width="121pt" height="156pt"
 viewBox="0.00 0.00 121.00 156.00" xmlns="http://www.w3.org/2000/svg" xmlns:xlink="http://www.w3.org/1999/xlink">
<g id="graph0" class="graph" transform="scale(1 1) rotate(0) translate(4 152)">
<title>Lib::Digi::Core::Protocol</title>
<!-- Node1 -->
<g id="Node000001" class="node">
<title>Node1</title>
<g id="a_Node000001"><a xlink:title="Handles XBee communication protocol.">
<polygon fill="#999999" stroke="none" points="113,-148 0,-148 0,0 113,0 113,-148"/>
<text text-anchor="start" x="4" y="-134.5" font-family="Helvetica,sans-Serif" font-size="10.00">Lib::Digi::Core::Protocol</text>
<text text-anchor="start" x="5.06" y="-118.5" font-family="Helvetica,sans-Serif" font-size="10.00">+</text>
<text text-anchor="start" x="16.12" y="-118.5" font-family="Helvetica,sans-Serif" font-size="10.00">START_DELIMITER</text>
<text text-anchor="start" x="5.06" y="-102.5" font-family="Helvetica,sans-Serif" font-size="10.00">+</text>
<text text-anchor="start" x="16.12" y="-102.5" font-family="Helvetica,sans-Serif" font-size="10.00">API_MODE</text>
<text text-anchor="start" x="5.06" y="-86.5" font-family="Helvetica,sans-Serif" font-size="10.00">+</text>
<text text-anchor="start" x="16.12" y="-86.5" font-family="Helvetica,sans-Serif" font-size="10.00">Protocol()</text>
<text text-anchor="start" x="5.06" y="-70.5" font-family="Helvetica,sans-Serif" font-size="10.00">+</text>
<text text-anchor="start" x="16.12" y="-70.5" font-family="Helvetica,sans-Serif" font-size="10.00">parse()</text>
<text text-anchor="start" x="5.06" y="-54.5" font-family="Helvetica,sans-Serif" font-size="10.00">+</text>
<text text-anchor="start" x="16.12" y="-54.5" font-family="Helvetica,sans-Serif" font-size="10.00">processMessage()</text>
<text text-anchor="start" x="5.06" y="-38.5" font-family="Helvetica,sans-Serif" font-size="10.00">+</text>
<text text-anchor="start" x="16.12" y="-38.5" font-family="Helvetica,sans-Serif" font-size="10.00">isValid()</text>
<text text-anchor="start" x="5.06" y="-22.5" font-family="Helvetica,sans-Serif" font-size="10.00">+</text>
<text text-anchor="start" x="16.12" y="-22.5" font-family="Helvetica,sans-Serif" font-size="10.00">isValid()</text>
<text text-anchor="start" x="5.06" y="-6.5" font-family="Helvetica,sans-Serif" font-size="10.00">+</text>
<text text-anchor="start" x="16.12" y="-6.5" font-family="Helvetica,sans-Serif" font-size="10.00">build()</text>
<polygon fill="#666666" stroke="#666666" points="0,-130 0,-130 113,-130 113,-130 0,-130"/>
<polygon fill="#666666" stroke="#666666" points="0,-98 0,-98 14.12,-98 14.12,-98 0,-98"/>
<polygon fill="#666666" stroke="#666666" points="14.12,-98 14.12,-98 113,-98 113,-98 14.12,-98"/>
<polygon fill="none" stroke="#666666" points="0,0 0,-148 113,-148 113,0 0,0"/>
</a>
</g>
</g>
</g>
</svg>
