<?xml version="1.0" encoding="UTF-8" standalone="no"?>
<!DOCTYPE svg PUBLIC "-//W3C//DTD SVG 1.1//EN"
 "http://www.w3.org/Graphics/SVG/1.1/DTD/svg11.dtd">
<!-- Generated by graphviz version 13.1.0 (20250701.0955)
 -->
<!-- Title: RTOS::SemaphoreCounting::SemaphoreCounting Pages: 1 -->
<svg width="743pt" height="46pt"
 viewBox="0.00 0.00 743.00 46.00" xmlns="http://www.w3.org/2000/svg" xmlns:xlink="http://www.w3.org/1999/xlink">
<g id="graph0" class="graph" transform="scale(1 1) rotate(0) translate(4 42)">
<title>RTOS::SemaphoreCounting::SemaphoreCounting</title>
<!-- Node1 -->
<g id="Node000001" class="node">
<title>Node1</title>
<g id="a_Node000001"><a xlink:title="Copy constructor is deleted to prevent accidental copying of the underlying handle.">
<polygon fill="#999999" stroke="#666666" points="232,-20 0,-20 0,0 232,0 232,-20"/>
<text xml:space="preserve" text-anchor="middle" x="116" y="-6.5" font-family="Helvetica,sans-Serif" font-size="10.00">RTOS::SemaphoreCounting::SemaphoreCounting</text>
</a>
</g>
</g>
<!-- Node2 -->
<g id="Node000002" class="node">
<title>Node2</title>
<g id="a_Node000002"><a xlink:href="../../df/d69/class_r_t_o_s_1_1_semaphore_counting.html#a5d1aa1d90732f499e3b424f831e2935c" target="_top" xlink:title="Constructor of SemaphoreCounting class.">
<polygon fill="white" stroke="#666666" points="500,-20 268,-20 268,0 500,0 500,-20"/>
<text xml:space="preserve" text-anchor="middle" x="384" y="-6.5" font-family="Helvetica,sans-Serif" font-size="10.00">RTOS::SemaphoreCounting::SemaphoreCounting</text>
</a>
</g>
</g>
<!-- Node1&#45;&gt;Node2 -->
<g id="edge1_Node000001_Node000002" class="edge">
<title>Node1&#45;&gt;Node2</title>
<g id="a_edge1_Node000001_Node000002"><a xlink:title=" ">
<path fill="none" stroke="#63b8ff" d="M232.12,-10C240.14,-10 248.25,-10 256.32,-10"/>
<polygon fill="#63b8ff" stroke="#63b8ff" points="256.19,-13.5 266.19,-10 256.19,-6.5 256.19,-13.5"/>
</a>
</g>
</g>
<!-- Node3 -->
<g id="Node000003" class="node">
<title>Node3</title>
<g id="a_Node000003"><a xlink:href="../../dd/da2/class_r_t_o_s_1_1_semaphore_base.html#ac5f8d4b369132f07296bff70ef752820" target="_top" xlink:title="Move constructor of SemaphoreBase class.">
<polygon fill="white" stroke="#666666" points="735,-20 536,-20 536,0 735,0 735,-20"/>
<text xml:space="preserve" text-anchor="middle" x="635.5" y="-6.5" font-family="Helvetica,sans-Serif" font-size="10.00">RTOS::SemaphoreBase::SemaphoreBase</text>
</a>
</g>
</g>
<!-- Node2&#45;&gt;Node3 -->
<g id="edge2_Node000002_Node000003" class="edge">
<title>Node2&#45;&gt;Node3</title>
<g id="a_edge2_Node000002_Node000003"><a xlink:title=" ">
<path fill="none" stroke="#63b8ff" d="M500.26,-10C508.33,-10 516.45,-10 524.49,-10"/>
<polygon fill="#63b8ff" stroke="#63b8ff" points="524.28,-13.5 534.28,-10 524.28,-6.5 524.28,-13.5"/>
</a>
</g>
</g>
<!-- Node3&#45;&gt;Node3 -->
<g id="edge3_Node000003_Node000003" class="edge">
<title>Node3&#45;&gt;Node3</title>
<g id="a_edge3_Node000003_Node000003"><a xlink:title=" ">
<path fill="none" stroke="#63b8ff" d="M595.25,-20.48C578.61,-29.08 592.03,-38 635.5,-38 660.63,-38 675.72,-35.02 680.76,-30.84"/>
<polygon fill="#63b8ff" stroke="#63b8ff" points="683.91,-29.32 676.41,-21.85 677.61,-32.37 683.91,-29.32"/>
</a>
</g>
</g>
</g>
</svg>
