<?xml version="1.0" encoding="UTF-8" standalone="no"?>
<!DOCTYPE svg PUBLIC "-//W3C//DTD SVG 1.1//EN"
 "http://www.w3.org/Graphics/SVG/1.1/DTD/svg11.dtd">
<!-- Generated by graphviz version 13.1.0 (20250701.0955)
 -->
<!-- Title: RTOS::SemaphoreCounting::getCount Pages: 1 -->
<svg width="470pt" height="142pt"
 viewBox="0.00 0.00 470.00 142.00" xmlns="http://www.w3.org/2000/svg" xmlns:xlink="http://www.w3.org/1999/xlink">
<g id="graph0" class="graph" transform="scale(1 1) rotate(0) translate(4 138)">
<title>RTOS::SemaphoreCounting::getCount</title>
<!-- Node1 -->
<g id="Node000001" class="node">
<title>Node1</title>
<g id="a_Node000001"><a xlink:title="Gets the current count of the semaphore.">
<polygon fill="#999999" stroke="#666666" points="461.75,-77 278.5,-77 278.5,-57 461.75,-57 461.75,-77"/>
<text xml:space="preserve" text-anchor="middle" x="370.12" y="-63.5" font-family="Helvetica,sans-Serif" font-size="10.00">RTOS::SemaphoreCounting::getCount</text>
</a>
</g>
</g>
<!-- Node2 -->
<g id="Node000002" class="node">
<title>Node2</title>
<g id="a_Node000002"><a xlink:href="../../df/d69/class_r_t_o_s_1_1_semaphore_counting.html#af76925bd534347395493df1d1c6d300d" target="_top" xlink:title="Gets the available count (current count).">
<polygon fill="white" stroke="#666666" points="232.75,-134 9.75,-134 9.75,-114 232.75,-114 232.75,-134"/>
<text xml:space="preserve" text-anchor="middle" x="121.25" y="-120.5" font-family="Helvetica,sans-Serif" font-size="10.00">RTOS::SemaphoreCounting::getAvailableCount</text>
</a>
</g>
</g>
<!-- Node1&#45;&gt;Node2 -->
<g id="edge1_Node000001_Node000002" class="edge">
<title>Node1&#45;&gt;Node2</title>
<g id="a_edge1_Node000001_Node000002"><a xlink:title=" ">
<path fill="none" stroke="#63b8ff" d="M327.74,-80.96C303.18,-88.85 271.32,-98.43 242.5,-105 228.38,-108.22 213.21,-111.07 198.56,-113.53"/>
<polygon fill="#63b8ff" stroke="#63b8ff" points="328.61,-84.36 337.03,-77.94 326.44,-77.7 328.61,-84.36"/>
</a>
</g>
</g>
<!-- Node3 -->
<g id="Node000003" class="node">
<title>Node3</title>
<g id="a_Node000003"><a xlink:href="../../df/d69/class_r_t_o_s_1_1_semaphore_counting.html#afa492a2b3ec19a7e6cfdeba9b15732a1" target="_top" xlink:title="Gets the remaining capacity before reaching maximum count.">
<polygon fill="white" stroke="#666666" points="242.5,-96 0,-96 0,-76 242.5,-76 242.5,-96"/>
<text xml:space="preserve" text-anchor="middle" x="121.25" y="-82.5" font-family="Helvetica,sans-Serif" font-size="10.00">RTOS::SemaphoreCounting::getRemainingCapacity</text>
</a>
</g>
</g>
<!-- Node1&#45;&gt;Node3 -->
<g id="edge2_Node000001_Node000003" class="edge">
<title>Node1&#45;&gt;Node3</title>
<g id="a_edge2_Node000001_Node000003"><a xlink:title=" ">
<path fill="none" stroke="#63b8ff" d="M267.04,-74.86C259.04,-75.47 250.92,-76.1 242.82,-76.72"/>
<polygon fill="#63b8ff" stroke="#63b8ff" points="267.04,-78.37 276.74,-74.11 266.5,-71.39 267.04,-78.37"/>
</a>
</g>
</g>
<!-- Node4 -->
<g id="Node000004" class="node">
<title>Node4</title>
<g id="a_Node000004"><a xlink:href="../../df/d69/class_r_t_o_s_1_1_semaphore_counting.html#a64efd45b60a70a27d10a6270bd6e5666" target="_top" xlink:title="Checks if the semaphore is at maximum count.">
<polygon fill="white" stroke="#666666" points="224.12,-58 18.38,-58 18.38,-38 224.12,-38 224.12,-58"/>
<text xml:space="preserve" text-anchor="middle" x="121.25" y="-44.5" font-family="Helvetica,sans-Serif" font-size="10.00">RTOS::SemaphoreCounting::isAtMaxCount</text>
</a>
</g>
</g>
<!-- Node1&#45;&gt;Node4 -->
<g id="edge3_Node000001_Node000004" class="edge">
<title>Node1&#45;&gt;Node4</title>
<g id="a_edge3_Node000001_Node000004"><a xlink:title=" ">
<path fill="none" stroke="#63b8ff" d="M267.09,-59.15C253.05,-58.07 238.64,-56.96 224.6,-55.88"/>
<polygon fill="#63b8ff" stroke="#63b8ff" points="266.5,-62.61 276.74,-59.89 267.04,-55.63 266.5,-62.61"/>
</a>
</g>
</g>
<!-- Node5 -->
<g id="Node000005" class="node">
<title>Node5</title>
<g id="a_Node000005"><a xlink:href="../../df/d69/class_r_t_o_s_1_1_semaphore_counting.html#ae61cc7313762299f50e9496a3cfaba00" target="_top" xlink:title="Checks if the semaphore is empty.">
<polygon fill="white" stroke="#666666" points="211,-20 31.5,-20 31.5,0 211,0 211,-20"/>
<text xml:space="preserve" text-anchor="middle" x="121.25" y="-6.5" font-family="Helvetica,sans-Serif" font-size="10.00">RTOS::SemaphoreCounting::isEmpty</text>
</a>
</g>
</g>
<!-- Node1&#45;&gt;Node5 -->
<g id="edge4_Node000001_Node000005" class="edge">
<title>Node1&#45;&gt;Node5</title>
<g id="a_edge4_Node000001_Node000005"><a xlink:title=" ">
<path fill="none" stroke="#63b8ff" d="M327.74,-53.04C303.18,-45.15 271.32,-35.57 242.5,-29 228.38,-25.78 213.21,-22.93 198.56,-20.47"/>
<polygon fill="#63b8ff" stroke="#63b8ff" points="326.44,-56.3 337.03,-56.06 328.61,-49.64 326.44,-56.3"/>
</a>
</g>
</g>
</g>
</svg>
