<?xml version="1.0" encoding="UTF-8" standalone="no"?>
<!DOCTYPE svg PUBLIC "-//W3C//DTD SVG 1.1//EN"
 "http://www.w3.org/Graphics/SVG/1.1/DTD/svg11.dtd">
<!-- Generated by graphviz version 13.1.0 (20250701.0955)
 -->
<!-- Title: RTOS::SemaphoreCounting::SemaphoreCounting Pages: 1 -->
<svg width="475pt" height="46pt"
 viewBox="0.00 0.00 475.00 46.00" xmlns="http://www.w3.org/2000/svg" xmlns:xlink="http://www.w3.org/1999/xlink">
<g id="graph0" class="graph" transform="scale(1 1) rotate(0) translate(4 42)">
<title>RTOS::SemaphoreCounting::SemaphoreCounting</title>
<!-- Node1 -->
<g id="Node000001" class="node">
<title>Node1</title>
<g id="a_Node000001"><a xlink:title="Constructor of SemaphoreCounting class.">
<polygon fill="#999999" stroke="#666666" points="232,-20 0,-20 0,0 232,0 232,-20"/>
<text xml:space="preserve" text-anchor="middle" x="116" y="-6.5" font-family="Helvetica,sans-Serif" font-size="10.00">RTOS::SemaphoreCounting::SemaphoreCounting</text>
</a>
</g>
</g>
<!-- Node2 -->
<g id="Node000002" class="node">
<title>Node2</title>
<g id="a_Node000002"><a xlink:href="../../dd/da2/class_r_t_o_s_1_1_semaphore_base.html#ac5f8d4b369132f07296bff70ef752820" target="_top" xlink:title="Move constructor of SemaphoreBase class.">
<polygon fill="white" stroke="#666666" points="467,-20 268,-20 268,0 467,0 467,-20"/>
<text xml:space="preserve" text-anchor="middle" x="367.5" y="-6.5" font-family="Helvetica,sans-Serif" font-size="10.00">RTOS::SemaphoreBase::SemaphoreBase</text>
</a>
</g>
</g>
<!-- Node1&#45;&gt;Node2 -->
<g id="edge1_Node000001_Node000002" class="edge">
<title>Node1&#45;&gt;Node2</title>
<g id="a_edge1_Node000001_Node000002"><a xlink:title=" ">
<path fill="none" stroke="#63b8ff" d="M232.26,-10C240.33,-10 248.45,-10 256.49,-10"/>
<polygon fill="#63b8ff" stroke="#63b8ff" points="256.28,-13.5 266.28,-10 256.28,-6.5 256.28,-13.5"/>
</a>
</g>
</g>
<!-- Node2&#45;&gt;Node2 -->
<g id="edge2_Node000002_Node000002" class="edge">
<title>Node2&#45;&gt;Node2</title>
<g id="a_edge2_Node000002_Node000002"><a xlink:title=" ">
<path fill="none" stroke="#63b8ff" d="M327.25,-20.48C310.61,-29.08 324.03,-38 367.5,-38 392.63,-38 407.72,-35.02 412.76,-30.84"/>
<polygon fill="#63b8ff" stroke="#63b8ff" points="415.91,-29.32 408.41,-21.85 409.61,-32.37 415.91,-29.32"/>
</a>
</g>
</g>
</g>
</svg>
