<?xml version="1.0" encoding="UTF-8" standalone="no"?>
<!DOCTYPE svg PUBLIC "-//W3C//DTD SVG 1.1//EN"
 "http://www.w3.org/Graphics/SVG/1.1/DTD/svg11.dtd">
<!-- Generated by graphviz version 13.1.0 (20250701.0955)
 -->
<!-- Title: Lib::Helper::DateTime::isValid Pages: 1 -->
<svg width="271pt" height="55pt"
 viewBox="0.00 0.00 271.00 55.00" xmlns="http://www.w3.org/2000/svg" xmlns:xlink="http://www.w3.org/1999/xlink">
<g id="graph0" class="graph" transform="scale(1 1) rotate(0) translate(4 51)">
<title>Lib::Helper::DateTime::isValid</title>
<!-- Node1 -->
<g id="Node000001" class="node">
<title>Node1</title>
<g id="a_Node000001"><a xlink:title="Checks if DateTime is valid.">
<polygon fill="#999999" stroke="#666666" points="263,-29 157.75,-29 157.75,0 263,0 263,-29"/>
<text xml:space="preserve" text-anchor="start" x="165.75" y="-16.45" font-family="Arial" font-size="9.00">Lib::Helper::DateTime</text>
<text xml:space="preserve" text-anchor="middle" x="210.38" y="-5.95" font-family="Arial" font-size="9.00">::isValid</text>
</a>
</g>
</g>
<!-- Node1&#45;&gt;Node1 -->
<g id="edge1_Node000001_Node000001" class="edge">
<title>Node1&#45;&gt;Node1</title>
<g id="a_edge1_Node000001_Node000001"><a xlink:title=" ">
<path fill="none" stroke="#63b8ff" d="M235.75,-40.56C231.77,-44.41 223.31,-47 210.38,-47 186.72,-47 178.04,-38.32 184.32,-29.21"/>
<polygon fill="#63b8ff" stroke="#63b8ff" points="239.23,-40.91 236.34,-30.72 232.25,-40.49 239.23,-40.91"/>
</a>
</g>
</g>
<!-- Node2 -->
<g id="Node000002" class="node">
<title>Node2</title>
<g id="a_Node000002"><a xlink:href="../../dc/da6/class_lib_1_1_system_1_1_produce_date.html#a33840641869a3c6ec5f40e3893d3f8a9" target="_top" xlink:title="Write production date to OTP.">
<polygon fill="white" stroke="#666666" points="121.75,-29 0,-29 0,0 121.75,0 121.75,-29"/>
<text xml:space="preserve" text-anchor="start" x="8" y="-16.45" font-family="Arial" font-size="9.00">Lib::System::ProduceDate</text>
<text xml:space="preserve" text-anchor="middle" x="60.88" y="-5.95" font-family="Arial" font-size="9.00">::write</text>
</a>
</g>
</g>
<!-- Node1&#45;&gt;Node2 -->
<g id="edge2_Node000001_Node000002" class="edge">
<title>Node1&#45;&gt;Node2</title>
<g id="a_edge2_Node000001_Node000002"><a xlink:title=" ">
<path fill="none" stroke="#63b8ff" d="M145.99,-14.5C138.11,-14.5 130.06,-14.5 122.23,-14.5"/>
<polygon fill="#63b8ff" stroke="#63b8ff" points="145.86,-18 155.86,-14.5 145.86,-11 145.86,-18"/>
</a>
</g>
</g>
</g>
</svg>
