<?xml version="1.0" encoding="UTF-8" standalone="no"?>
<!DOCTYPE svg PUBLIC "-//W3C//DTD SVG 1.1//EN"
 "http://www.w3.org/Graphics/SVG/1.1/DTD/svg11.dtd">
<!-- Generated by graphviz version 13.1.0 (20250701.0955)
 -->
<!-- Title: Xbee::Client Pages: 1 -->
<svg width="286pt" height="196pt"
 viewBox="0.00 0.00 286.00 196.00" xmlns="http://www.w3.org/2000/svg" xmlns:xlink="http://www.w3.org/1999/xlink">
<g id="graph0" class="graph" transform="scale(1 1) rotate(0) translate(4 192)">
<title>Xbee::Client</title>
<!-- Node1 -->
<g id="Node000001" class="node">
<title>Node1</title>
<g id="a_Node000001"><a xlink:title="Xbee wireless communication client for embedded firmware applications.">
<polygon fill="#999999" stroke="none" points="188.25,-100 85.5,-100 85.5,0 188.25,0 188.25,-100"/>
<text xml:space="preserve" text-anchor="start" x="109.88" y="-86.5" font-family="Helvetica,sans-Serif" font-size="10.00">Xbee::Client</text>
<text xml:space="preserve" text-anchor="start" x="135.38" y="-70.5" font-family="Helvetica,sans-Serif" font-size="10.00"> </text>
<text xml:space="preserve" text-anchor="start" x="89.5" y="-54.5" font-family="Helvetica,sans-Serif" font-size="10.00">+</text>
<text xml:space="preserve" text-anchor="start" x="99.5" y="-54.5" font-family="Helvetica,sans-Serif" font-size="10.00">Client()</text>
<text xml:space="preserve" text-anchor="start" x="89.5" y="-38.5" font-family="Helvetica,sans-Serif" font-size="10.00">+</text>
<text xml:space="preserve" text-anchor="start" x="99.5" y="-38.5" font-family="Helvetica,sans-Serif" font-size="10.00">~Client()</text>
<text xml:space="preserve" text-anchor="start" x="89.5" y="-22.5" font-family="Helvetica,sans-Serif" font-size="10.00">+</text>
<text xml:space="preserve" text-anchor="start" x="99.5" y="-22.5" font-family="Helvetica,sans-Serif" font-size="10.00">start()</text>
<text xml:space="preserve" text-anchor="start" x="89.5" y="-6.5" font-family="Helvetica,sans-Serif" font-size="10.00">+</text>
<text xml:space="preserve" text-anchor="start" x="99.5" y="-6.5" font-family="Helvetica,sans-Serif" font-size="10.00">getModulePresent()</text>
<polygon fill="#666666" stroke="#666666" points="85.5,-82 85.5,-82 188.25,-82 188.25,-82 85.5,-82"/>
<polygon fill="#666666" stroke="#666666" points="85.5,-66 85.5,-66 188.25,-66 188.25,-66 85.5,-66"/>
<polygon fill="none" stroke="#666666" points="85.5,0 85.5,-100 188.25,-100 188.25,0 85.5,0"/>
</a>
</g>
</g>
<!-- Node2 -->
<g id="Node000002" class="node">
<title>Node2</title>
<g id="a_Node000002"><a xlink:title=" ">
<polygon fill="white" stroke="none" points="125.75,-188 0,-188 0,-136 125.75,-136 125.75,-188"/>
<text xml:space="preserve" text-anchor="start" x="4" y="-174.5" font-family="Helvetica,sans-Serif" font-size="10.00">Lib::Xbee::API::ClientBase</text>
<text xml:space="preserve" text-anchor="start" x="61.38" y="-158.5" font-family="Helvetica,sans-Serif" font-size="10.00"> </text>
<text xml:space="preserve" text-anchor="start" x="61.38" y="-142.5" font-family="Helvetica,sans-Serif" font-size="10.00"> </text>
<polygon fill="#bfbfbf" stroke="#bfbfbf" points="0,-170 0,-170 125.75,-170 125.75,-170 0,-170"/>
<polygon fill="#bfbfbf" stroke="#bfbfbf" points="0,-154 0,-154 125.75,-154 125.75,-154 0,-154"/>
<polygon fill="none" stroke="#bfbfbf" points="0,-136 0,-188 125.75,-188 125.75,-136 0,-136"/>
</a>
</g>
</g>
<!-- Node2&#45;&gt;Node1 -->
<g id="edge1_Node000001_Node000002" class="edge">
<title>Node2&#45;&gt;Node1</title>
<g id="a_edge1_Node000001_Node000002"><a xlink:title=" ">
<path fill="none" stroke="#63b8ff" d="M85.91,-126.76C91.67,-118.19 97.97,-108.84 104.1,-99.72"/>
<polygon fill="none" stroke="#63b8ff" points="83.19,-124.53 80.51,-134.78 89,-128.44 83.19,-124.53"/>
</a>
</g>
</g>
<!-- Node3 -->
<g id="Node000003" class="node">
<title>Node3</title>
<g id="a_Node000003"><a xlink:href="../../dc/db4/class_lib_1_1_xbee_1_1_a_p_i_1_1_user_protocol.html" target="_top" xlink:title=" ">
<polygon fill="white" stroke="none" points="278.25,-188 143.5,-188 143.5,-136 278.25,-136 278.25,-188"/>
<text xml:space="preserve" text-anchor="start" x="147.5" y="-174.5" font-family="Helvetica,sans-Serif" font-size="10.00">Lib::Xbee::API::UserProtocol</text>
<text xml:space="preserve" text-anchor="start" x="209.38" y="-158.5" font-family="Helvetica,sans-Serif" font-size="10.00"> </text>
<text xml:space="preserve" text-anchor="start" x="209.38" y="-142.5" font-family="Helvetica,sans-Serif" font-size="10.00"> </text>
<polygon fill="#bfbfbf" stroke="#bfbfbf" points="143.5,-170 143.5,-170 278.25,-170 278.25,-170 143.5,-170"/>
<polygon fill="#bfbfbf" stroke="#bfbfbf" points="143.5,-154 143.5,-154 278.25,-154 278.25,-154 143.5,-154"/>
<polygon fill="none" stroke="#bfbfbf" points="143.5,-136 143.5,-188 278.25,-188 278.25,-136 143.5,-136"/>
</a>
</g>
</g>
<!-- Node3&#45;&gt;Node1 -->
<g id="edge2_Node000001_Node000003" class="edge">
<title>Node3&#45;&gt;Node1</title>
<g id="a_edge2_Node000001_Node000003"><a xlink:title=" ">
<path fill="none" stroke="#63b8ff" d="M187.84,-126.76C182.08,-118.19 175.78,-108.84 169.65,-99.72"/>
<polygon fill="none" stroke="#63b8ff" points="184.75,-128.44 193.24,-134.78 190.56,-124.53 184.75,-128.44"/>
</a>
</g>
</g>
</g>
</svg>
