<?xml version="1.0" encoding="UTF-8" standalone="no"?>
<!DOCTYPE svg PUBLIC "-//W3C//DTD SVG 1.1//EN"
 "http://www.w3.org/Graphics/SVG/1.1/DTD/svg11.dtd">
<!-- Generated by graphviz version 12.2.1 (20241206.2353)
 -->
<!-- Title: DeviceManager.hpp Pages: 1 -->
<svg width="367pt" height="140pt"
 viewBox="0.00 0.00 366.88 140.00" xmlns="http://www.w3.org/2000/svg" xmlns:xlink="http://www.w3.org/1999/xlink">
<g id="graph0" class="graph" transform="scale(1 1) rotate(0) translate(4 136)">
<title>DeviceManager.hpp</title>
<!-- Node1 -->
<g id="Node000001" class="node">
<title>Node1</title>
<g id="a_Node000001"><a xlink:title="Manages CAN devices and their callbacks.">
<polygon fill="#999999" stroke="#666666" points="287.25,-132 184.25,-132 184.25,-112 287.25,-112 287.25,-132"/>
<text text-anchor="middle" x="235.75" y="-118.5" font-family="Helvetica,sans-Serif" font-size="10.00">DeviceManager.hpp</text>
</a>
</g>
</g>
<!-- Node2 -->
<g id="Node000002" class="node">
<title>Node2</title>
<g id="a_Node000002"><a xlink:href="../../dc/dfe/a00125.html" target="_top" xlink:title="Base class for managing devices.">
<polygon fill="white" stroke="#666666" points="143.5,-76 0,-76 0,-56 143.5,-56 143.5,-76"/>
<text text-anchor="middle" x="71.75" y="-62.5" font-family="Helvetica,sans-Serif" font-size="10.00">../../DeviceManagerBase.hpp</text>
</a>
</g>
</g>
<!-- Node1&#45;&gt;Node2 -->
<g id="edge1_Node000001_Node000002" class="edge">
<title>Node1&#45;&gt;Node2</title>
<g id="a_edge1_Node000001_Node000002"><a xlink:title=" ">
<path fill="none" stroke="#63b8ff" d="M207.18,-111.59C180.65,-102.86 140.91,-89.77 111.33,-80.03"/>
<polygon fill="#63b8ff" stroke="#63b8ff" points="112.57,-76.76 101.98,-76.95 110.38,-83.4 112.57,-76.76"/>
</a>
</g>
</g>
<!-- Node4 -->
<g id="Node000004" class="node">
<title>Node4</title>
<g id="a_Node000004"><a xlink:href="../../d9/d95/a00400.html" target="_top" xlink:title="Base class for CAN communication.">
<polygon fill="white" stroke="#666666" points="236.38,-76 161.12,-76 161.12,-56 236.38,-56 236.38,-76"/>
<text text-anchor="middle" x="198.75" y="-62.5" font-family="Helvetica,sans-Serif" font-size="10.00">PortBase.hpp</text>
</a>
</g>
</g>
<!-- Node1&#45;&gt;Node4 -->
<g id="edge3_Node000001_Node000004" class="edge">
<title>Node1&#45;&gt;Node4</title>
<g id="a_edge3_Node000001_Node000004"><a xlink:title=" ">
<path fill="none" stroke="#63b8ff" d="M229.31,-111.59C224.42,-104.47 217.56,-94.45 211.57,-85.72"/>
<polygon fill="#63b8ff" stroke="#63b8ff" points="214.52,-83.82 205.98,-77.55 208.74,-87.77 214.52,-83.82"/>
</a>
</g>
</g>
<!-- Node5 -->
<g id="Node000005" class="node">
<title>Node5</title>
<g id="a_Node000005"><a xlink:title=" ">
<polygon fill="#e0e0e0" stroke="#999999" points="292.62,-76 254.88,-76 254.88,-56 292.62,-56 292.62,-76"/>
<text text-anchor="middle" x="273.75" y="-62.5" font-family="Helvetica,sans-Serif" font-size="10.00">array</text>
</a>
</g>
</g>
<!-- Node1&#45;&gt;Node5 -->
<g id="edge4_Node000001_Node000005" class="edge">
<title>Node1&#45;&gt;Node5</title>
<g id="a_edge4_Node000001_Node000005"><a xlink:title=" ">
<path fill="none" stroke="#63b8ff" d="M242.37,-111.59C247.44,-104.39 254.59,-94.23 260.78,-85.43"/>
<polygon fill="#63b8ff" stroke="#63b8ff" points="263.44,-87.73 266.34,-77.54 257.72,-83.7 263.44,-87.73"/>
</a>
</g>
</g>
<!-- Node6 -->
<g id="Node000006" class="node">
<title>Node6</title>
<g id="a_Node000006"><a xlink:title=" ">
<polygon fill="#e0e0e0" stroke="#999999" points="358.88,-76 310.62,-76 310.62,-56 358.88,-56 358.88,-76"/>
<text text-anchor="middle" x="334.75" y="-62.5" font-family="Helvetica,sans-Serif" font-size="10.00">cassert</text>
</a>
</g>
</g>
<!-- Node1&#45;&gt;Node6 -->
<g id="edge5_Node000001_Node000006" class="edge">
<title>Node1&#45;&gt;Node6</title>
<g id="a_edge5_Node000001_Node000006"><a xlink:title=" ">
<path fill="none" stroke="#63b8ff" d="M252.99,-111.59C268.09,-103.36 290.28,-91.26 307.73,-81.74"/>
<polygon fill="#63b8ff" stroke="#63b8ff" points="308.94,-85.07 316.04,-77.2 305.59,-78.92 308.94,-85.07"/>
</a>
</g>
</g>
<!-- Node3 -->
<g id="Node000003" class="node">
<title>Node3</title>
<g id="a_Node000003"><a xlink:title=" ">
<polygon fill="#e0e0e0" stroke="#999999" points="113.12,-20 30.38,-20 30.38,0 113.12,0 113.12,-20"/>
<text text-anchor="middle" x="71.75" y="-6.5" font-family="Helvetica,sans-Serif" font-size="10.00">unordered_map</text>
</a>
</g>
</g>
<!-- Node2&#45;&gt;Node3 -->
<g id="edge2_Node000002_Node000003" class="edge">
<title>Node2&#45;&gt;Node3</title>
<g id="a_edge2_Node000002_Node000003"><a xlink:title=" ">
<path fill="none" stroke="#63b8ff" d="M71.75,-55.59C71.75,-49.01 71.75,-39.96 71.75,-31.73"/>
<polygon fill="#63b8ff" stroke="#63b8ff" points="75.25,-31.81 71.75,-21.81 68.25,-31.81 75.25,-31.81"/>
</a>
</g>
</g>
</g>
</svg>
