<?xml version="1.0" encoding="UTF-8" standalone="no"?>
<!DOCTYPE svg PUBLIC "-//W3C//DTD SVG 1.1//EN"
 "http://www.w3.org/Graphics/SVG/1.1/DTD/svg11.dtd">
<!-- Generated by graphviz version 13.1.0 (20250701.0955)
 -->
<!-- Title: BSP::M24C64W::Config Pages: 1 -->
<svg width="123pt" height="120pt"
 viewBox="0.00 0.00 123.00 120.00" xmlns="http://www.w3.org/2000/svg" xmlns:xlink="http://www.w3.org/1999/xlink">
<g id="graph0" class="graph" transform="scale(1 1) rotate(0) translate(4 116)">
<title>BSP::M24C64W::Config</title>
<!-- Node1 -->
<g id="Node000001" class="node">
<title>Node1</title>
<g id="a_Node000001"><a xlink:title="Configuration structure for M24C64W EEPROM.">
<polygon fill="#999999" stroke="none" points="114.75,-112 0,-112 0,0 114.75,0 114.75,-112"/>
<text xml:space="preserve" text-anchor="start" x="4.12" y="-98.5" font-family="Helvetica,sans-Serif" font-size="10.00">BSP::M24C64W::Config</text>
<text xml:space="preserve" text-anchor="start" x="4" y="-82.5" font-family="Helvetica,sans-Serif" font-size="10.00">+</text>
<text xml:space="preserve" text-anchor="start" x="14" y="-82.5" font-family="Helvetica,sans-Serif" font-size="10.00">I2C_HandleTypeDef *</text>
<text xml:space="preserve" text-anchor="start" x="14" y="-70.5" font-family="Helvetica,sans-Serif" font-size="10.00"> i2cHandle</text>
<text xml:space="preserve" text-anchor="start" x="4" y="-54.5" font-family="Helvetica,sans-Serif" font-size="10.00">+</text>
<text xml:space="preserve" text-anchor="start" x="14" y="-54.5" font-family="Helvetica,sans-Serif" font-size="10.00">size_t chipSize</text>
<text xml:space="preserve" text-anchor="start" x="4" y="-38.5" font-family="Helvetica,sans-Serif" font-size="10.00">+</text>
<text xml:space="preserve" text-anchor="start" x="14" y="-38.5" font-family="Helvetica,sans-Serif" font-size="10.00">uint8_t deviceAddress</text>
<text xml:space="preserve" text-anchor="start" x="4" y="-22.5" font-family="Helvetica,sans-Serif" font-size="10.00">+</text>
<text xml:space="preserve" text-anchor="start" x="14" y="-22.5" font-family="Helvetica,sans-Serif" font-size="10.00">uint8_t pageSize</text>
<text xml:space="preserve" text-anchor="start" x="55.88" y="-6.5" font-family="Helvetica,sans-Serif" font-size="10.00"> </text>
<polygon fill="#666666" stroke="#666666" points="0,-94 0,-94 114.75,-94 114.75,-94 0,-94"/>
<polygon fill="#666666" stroke="#666666" points="0,-18 0,-18 12,-18 12,-18 0,-18"/>
<polygon fill="#666666" stroke="#666666" points="12,-18 12,-18 114.75,-18 114.75,-18 12,-18"/>
<polygon fill="none" stroke="#666666" points="0,0 0,-112 114.75,-112 114.75,0 0,0"/>
</a>
</g>
</g>
</g>
</svg>
