<?xml version="1.0" encoding="UTF-8" standalone="no"?>
<!DOCTYPE svg PUBLIC "-//W3C//DTD SVG 1.1//EN"
 "http://www.w3.org/Graphics/SVG/1.1/DTD/svg11.dtd">
<!-- Generated by graphviz version 13.1.0 (20250701.0955)
 -->
<!-- Title: Checksum.hpp Pages: 1 -->
<svg width="408pt" height="140pt"
 viewBox="0.00 0.00 408.00 140.00" xmlns="http://www.w3.org/2000/svg" xmlns:xlink="http://www.w3.org/1999/xlink">
<g id="graph0" class="graph" transform="scale(1 1) rotate(0) translate(4 136)">
<title>Checksum.hpp</title>
<!-- Node1 -->
<g id="Node000001" class="node">
<title>Node1</title>
<g id="a_Node000001"><a xlink:title="Checksum calculation for Digi API frames.">
<polygon fill="#999999" stroke="#666666" points="249.12,-132 167.12,-132 167.12,-112 249.12,-112 249.12,-132"/>
<text xml:space="preserve" text-anchor="middle" x="208.12" y="-118.5" font-family="Helvetica,sans-Serif" font-size="10.00">Checksum.hpp</text>
</a>
</g>
</g>
<!-- Node2 -->
<g id="Node000002" class="node">
<title>Node2</title>
<g id="a_Node000002"><a xlink:href="../../d8/d04/_api_frame_buffer_8hpp.html" target="_top" xlink:title="XBee API1 Frame Buffer for serialized data.">
<polygon fill="white" stroke="#666666" points="180.25,-76 78,-76 78,-56 180.25,-56 180.25,-76"/>
<text xml:space="preserve" text-anchor="middle" x="129.12" y="-62.5" font-family="Helvetica,sans-Serif" font-size="10.00">ApiFrameBuffer.hpp</text>
</a>
</g>
</g>
<!-- Node1&#45;&gt;Node2 -->
<g id="edge1_Node000001_Node000002" class="edge">
<title>Node1&#45;&gt;Node2</title>
<g id="a_edge1_Node000001_Node000002"><a xlink:title=" ">
<path fill="none" stroke="#63b8ff" d="M194.36,-111.59C182.77,-103.67 165.93,-92.16 152.26,-82.82"/>
<polygon fill="#63b8ff" stroke="#63b8ff" points="154.47,-80.09 144.24,-77.33 150.52,-85.87 154.47,-80.09"/>
</a>
</g>
</g>
<!-- Node4 -->
<g id="Node000004" class="node">
<title>Node4</title>
<g id="a_Node000004"><a xlink:title=" ">
<polygon fill="#e0e0e0" stroke="#999999" points="48.25,-20 0,-20 0,0 48.25,0 48.25,-20"/>
<text xml:space="preserve" text-anchor="middle" x="24.12" y="-6.5" font-family="Helvetica,sans-Serif" font-size="10.00">cstddef</text>
</a>
</g>
</g>
<!-- Node1&#45;&gt;Node4 -->
<g id="edge10_Node000001_Node000004" class="edge">
<title>Node1&#45;&gt;Node4</title>
<g id="a_edge10_Node000001_Node000004"><a xlink:title=" ">
<path fill="none" stroke="#63b8ff" d="M166.87,-114.9C137.36,-108.9 97.93,-97.41 69.12,-76 53.15,-64.13 40.83,-44.84 33.16,-30.36"/>
<polygon fill="#63b8ff" stroke="#63b8ff" points="36.47,-29.16 28.88,-21.77 30.2,-32.29 36.47,-29.16"/>
</a>
</g>
</g>
<!-- Node5 -->
<g id="Node000005" class="node">
<title>Node5</title>
<g id="a_Node000005"><a xlink:title=" ">
<polygon fill="#e0e0e0" stroke="#999999" points="291.75,-20 246.5,-20 246.5,0 291.75,0 291.75,-20"/>
<text xml:space="preserve" text-anchor="middle" x="269.12" y="-6.5" font-family="Helvetica,sans-Serif" font-size="10.00">cstdint</text>
</a>
</g>
</g>
<!-- Node1&#45;&gt;Node5 -->
<g id="edge11_Node000001_Node000005" class="edge">
<title>Node1&#45;&gt;Node5</title>
<g id="a_edge11_Node000001_Node000005"><a xlink:title=" ">
<path fill="none" stroke="#63b8ff" d="M209.66,-111.66C212.11,-98.55 217.71,-74.25 228.12,-56 233.91,-45.86 242.34,-36.1 250.04,-28.27"/>
<polygon fill="#63b8ff" stroke="#63b8ff" points="252.41,-30.85 257.18,-21.39 247.55,-25.81 252.41,-30.85"/>
</a>
</g>
</g>
<!-- Node8 -->
<g id="Node000008" class="node">
<title>Node8</title>
<g id="a_Node000008"><a xlink:href="../../d3/ddf/_header_8hpp.html" target="_top" xlink:title="Header.hpp for Digi Core Frame Xbee API header struct.">
<polygon fill="white" stroke="#666666" points="333.62,-76 236.62,-76 236.62,-56 333.62,-56 333.62,-76"/>
<text xml:space="preserve" text-anchor="middle" x="285.12" y="-62.5" font-family="Helvetica,sans-Serif" font-size="10.00">Frame/Header.hpp</text>
</a>
</g>
</g>
<!-- Node1&#45;&gt;Node8 -->
<g id="edge7_Node000001_Node000008" class="edge">
<title>Node1&#45;&gt;Node8</title>
<g id="a_edge7_Node000001_Node000008"><a xlink:title=" ">
<path fill="none" stroke="#63b8ff" d="M221.54,-111.59C232.73,-103.74 248.94,-92.38 262.18,-83.09"/>
<polygon fill="#63b8ff" stroke="#63b8ff" points="264.19,-85.96 270.37,-77.35 260.17,-80.22 264.19,-85.96"/>
</a>
</g>
</g>
<!-- Node9 -->
<g id="Node000009" class="node">
<title>Node9</title>
<g id="a_Node000009"><a xlink:title=" ">
<polygon fill="#e0e0e0" stroke="#999999" points="400.25,-76 352,-76 352,-56 400.25,-56 400.25,-76"/>
<text xml:space="preserve" text-anchor="middle" x="376.12" y="-62.5" font-family="Helvetica,sans-Serif" font-size="10.00">cassert</text>
</a>
</g>
</g>
<!-- Node1&#45;&gt;Node9 -->
<g id="edge9_Node000001_Node000009" class="edge">
<title>Node1&#45;&gt;Node9</title>
<g id="a_edge9_Node000001_Node000009"><a xlink:title=" ">
<path fill="none" stroke="#63b8ff" d="M237.39,-111.59C266.19,-102.34 310.2,-88.19 340.9,-78.32"/>
<polygon fill="#63b8ff" stroke="#63b8ff" points="341.67,-81.75 350.12,-75.36 339.53,-75.09 341.67,-81.75"/>
</a>
</g>
</g>
<!-- Node3 -->
<g id="Node000003" class="node">
<title>Node3</title>
<g id="a_Node000003"><a xlink:title=" ">
<polygon fill="#e0e0e0" stroke="#999999" points="104,-20 66.25,-20 66.25,0 104,0 104,-20"/>
<text xml:space="preserve" text-anchor="middle" x="85.12" y="-6.5" font-family="Helvetica,sans-Serif" font-size="10.00">array</text>
</a>
</g>
</g>
<!-- Node2&#45;&gt;Node3 -->
<g id="edge2_Node000002_Node000003" class="edge">
<title>Node2&#45;&gt;Node3</title>
<g id="a_edge2_Node000002_Node000003"><a xlink:title=" ">
<path fill="none" stroke="#63b8ff" d="M121.46,-55.59C115.53,-48.32 107.14,-38.02 99.91,-29.15"/>
<polygon fill="#63b8ff" stroke="#63b8ff" points="102.69,-27.01 93.66,-21.47 97.26,-31.43 102.69,-27.01"/>
</a>
</g>
</g>
<!-- Node2&#45;&gt;Node4 -->
<g id="edge3_Node000002_Node000004" class="edge">
<title>Node2&#45;&gt;Node4</title>
<g id="a_edge3_Node000002_Node000004"><a xlink:title=" ">
<path fill="none" stroke="#63b8ff" d="M110.84,-55.59C94.82,-47.36 71.29,-35.26 52.78,-25.74"/>
<polygon fill="#63b8ff" stroke="#63b8ff" points="54.4,-22.63 43.9,-21.17 51.2,-28.86 54.4,-22.63"/>
</a>
</g>
</g>
<!-- Node2&#45;&gt;Node5 -->
<g id="edge4_Node000002_Node000005" class="edge">
<title>Node2&#45;&gt;Node5</title>
<g id="a_edge4_Node000002_Node000005"><a xlink:title=" ">
<path fill="none" stroke="#63b8ff" d="M153.51,-55.59C176.3,-46.8 210.53,-33.6 235.83,-23.84"/>
<polygon fill="#63b8ff" stroke="#63b8ff" points="236.93,-27.17 245,-20.31 234.41,-20.64 236.93,-27.17"/>
</a>
</g>
</g>
<!-- Node6 -->
<g id="Node000006" class="node">
<title>Node6</title>
<g id="a_Node000006"><a xlink:title=" ">
<polygon fill="#e0e0e0" stroke="#999999" points="167.75,-20 122.5,-20 122.5,0 167.75,0 167.75,-20"/>
<text xml:space="preserve" text-anchor="middle" x="145.12" y="-6.5" font-family="Helvetica,sans-Serif" font-size="10.00">cstring</text>
</a>
</g>
</g>
<!-- Node2&#45;&gt;Node6 -->
<g id="edge5_Node000002_Node000006" class="edge">
<title>Node2&#45;&gt;Node6</title>
<g id="a_edge5_Node000002_Node000006"><a xlink:title=" ">
<path fill="none" stroke="#63b8ff" d="M131.91,-55.59C133.91,-48.86 136.67,-39.53 139.15,-31.15"/>
<polygon fill="#63b8ff" stroke="#63b8ff" points="142.45,-32.33 141.94,-21.75 135.74,-30.34 142.45,-32.33"/>
</a>
</g>
</g>
<!-- Node7 -->
<g id="Node000007" class="node">
<title>Node7</title>
<g id="a_Node000007"><a xlink:title=" ">
<polygon fill="#e0e0e0" stroke="#999999" points="228.62,-20 185.62,-20 185.62,0 228.62,0 228.62,-20"/>
<text xml:space="preserve" text-anchor="middle" x="207.12" y="-6.5" font-family="Helvetica,sans-Serif" font-size="10.00">vector</text>
</a>
</g>
</g>
<!-- Node2&#45;&gt;Node7 -->
<g id="edge6_Node000002_Node000007" class="edge">
<title>Node2&#45;&gt;Node7</title>
<g id="a_edge6_Node000002_Node000007"><a xlink:title=" ">
<path fill="none" stroke="#63b8ff" d="M142.71,-55.59C154.16,-47.67 170.79,-36.16 184.28,-26.82"/>
<polygon fill="#63b8ff" stroke="#63b8ff" points="185.96,-29.91 192.19,-21.34 181.97,-24.16 185.96,-29.91"/>
</a>
</g>
</g>
<!-- Node8&#45;&gt;Node5 -->
<g id="edge8_Node000008_Node000005" class="edge">
<title>Node8&#45;&gt;Node5</title>
<g id="a_edge8_Node000008_Node000005"><a xlink:title=" ">
<path fill="none" stroke="#63b8ff" d="M282.34,-55.59C280.34,-48.86 277.58,-39.53 275.1,-31.15"/>
<polygon fill="#63b8ff" stroke="#63b8ff" points="278.51,-30.34 272.31,-21.75 271.8,-32.33 278.51,-30.34"/>
</a>
</g>
</g>
</g>
</svg>
