<?xml version="1.0" encoding="UTF-8" standalone="no"?>
<!DOCTYPE svg PUBLIC "-//W3C//DTD SVG 1.1//EN"
 "http://www.w3.org/Graphics/SVG/1.1/DTD/svg11.dtd">
<!-- Generated by graphviz version 13.1.0 (20250701.0955)
 -->
<!-- Title: Lib::HAL::GPIO::ExtInterrupt::~ExtInterrupt Pages: 1 -->
<svg width="506pt" height="58pt"
 viewBox="0.00 0.00 506.00 58.00" xmlns="http://www.w3.org/2000/svg" xmlns:xlink="http://www.w3.org/1999/xlink">
<g id="graph0" class="graph" transform="scale(1 1) rotate(0) translate(4 54)">
<title>Lib::HAL::GPIO::ExtInterrupt::~ExtInterrupt</title>
<!-- Node1 -->
<g id="Node000001" class="node">
<title>Node1</title>
<g id="a_Node000001"><a xlink:title="Destructor for ExtInterrupt.">
<polygon fill="#999999" stroke="#666666" points="142,-32 0,-32 0,0 142,0 142,-32"/>
<text xml:space="preserve" text-anchor="start" x="8" y="-18.5" font-family="Helvetica,sans-Serif" font-size="10.00">Lib::HAL::GPIO::ExtInterrupt</text>
<text xml:space="preserve" text-anchor="middle" x="71" y="-6.5" font-family="Helvetica,sans-Serif" font-size="10.00">::~ExtInterrupt</text>
</a>
</g>
</g>
<!-- Node2 -->
<g id="Node000002" class="node">
<title>Node2</title>
<g id="a_Node000002"><a xlink:href="../../dd/d6b/class_lib_1_1_h_a_l_1_1_g_p_i_o_1_1_ext_interrupt.html#aa97095656a7722cd726dcb602fee85fa" target="_top" xlink:title="Unbinds the callback and removes the device from the manager.">
<polygon fill="white" stroke="#666666" points="320,-32 178,-32 178,0 320,0 320,-32"/>
<text xml:space="preserve" text-anchor="start" x="186" y="-18.5" font-family="Helvetica,sans-Serif" font-size="10.00">Lib::HAL::GPIO::ExtInterrupt</text>
<text xml:space="preserve" text-anchor="middle" x="249" y="-6.5" font-family="Helvetica,sans-Serif" font-size="10.00">::unbind</text>
</a>
</g>
</g>
<!-- Node1&#45;&gt;Node2 -->
<g id="edge1_Node000001_Node000002" class="edge">
<title>Node1&#45;&gt;Node2</title>
<g id="a_edge1_Node000001_Node000002"><a xlink:title=" ">
<path fill="none" stroke="#63b8ff" d="M142.32,-16C150.19,-16 158.26,-16 166.27,-16"/>
<polygon fill="#63b8ff" stroke="#63b8ff" points="165.99,-19.5 175.99,-16 165.99,-12.5 165.99,-19.5"/>
</a>
</g>
</g>
<!-- Node3 -->
<g id="Node000003" class="node">
<title>Node3</title>
<g id="a_Node000003"><a xlink:href="../../d3/ddc/class_lib_1_1_h_a_l_1_1_g_p_i_o_1_1_ext_interrupt_1_1_device_manager.html#a9fd26269350038c4621ebd7504e32df5" target="_top" xlink:title="Retrieves the singleton instance of the DeviceManager.">
<polygon fill="white" stroke="#666666" points="498,-32 356,-32 356,0 498,0 498,-32"/>
<text xml:space="preserve" text-anchor="start" x="364" y="-18.5" font-family="Helvetica,sans-Serif" font-size="10.00">Lib::HAL::GPIO::ExtInterrupt</text>
<text xml:space="preserve" text-anchor="middle" x="427" y="-6.5" font-family="Helvetica,sans-Serif" font-size="10.00">::DeviceManager::instance</text>
</a>
</g>
</g>
<!-- Node2&#45;&gt;Node3 -->
<g id="edge2_Node000002_Node000003" class="edge">
<title>Node2&#45;&gt;Node3</title>
<g id="a_edge2_Node000002_Node000003"><a xlink:title=" ">
<path fill="none" stroke="#63b8ff" d="M320.32,-16C328.19,-16 336.26,-16 344.27,-16"/>
<polygon fill="#63b8ff" stroke="#63b8ff" points="343.99,-19.5 353.99,-16 343.99,-12.5 343.99,-19.5"/>
</a>
</g>
</g>
<!-- Node3&#45;&gt;Node3 -->
<g id="edge3_Node000003_Node000003" class="edge">
<title>Node3&#45;&gt;Node3</title>
<g id="a_edge3_Node000003_Node000003"><a xlink:title=" ">
<path fill="none" stroke="#63b8ff" d="M395.22,-32.44C389.29,-41.58 399.88,-50 427,-50 441.83,-50 451.72,-47.48 456.66,-43.71"/>
<polygon fill="#63b8ff" stroke="#63b8ff" points="460.09,-44.4 458.5,-33.93 453.21,-43.11 460.09,-44.4"/>
</a>
</g>
</g>
</g>
</svg>
