<?xml version="1.0" encoding="UTF-8" standalone="no"?>
<!DOCTYPE svg PUBLIC "-//W3C//DTD SVG 1.1//EN"
 "http://www.w3.org/Graphics/SVG/1.1/DTD/svg11.dtd">
<!-- Generated by graphviz version 13.1.0 (20250701.0955)
 -->
<!-- Title: Lib::HAL::GPIO::ExtInterrupt::unbind Pages: 1 -->
<svg width="328pt" height="58pt"
 viewBox="0.00 0.00 328.00 58.00" xmlns="http://www.w3.org/2000/svg" xmlns:xlink="http://www.w3.org/1999/xlink">
<g id="graph0" class="graph" transform="scale(1 1) rotate(0) translate(4 54)">
<title>Lib::HAL::GPIO::ExtInterrupt::unbind</title>
<!-- Node1 -->
<g id="Node000001" class="node">
<title>Node1</title>
<g id="a_Node000001"><a xlink:title="Unbinds the callback and removes the device from the manager.">
<polygon fill="#999999" stroke="#666666" points="142,-32 0,-32 0,0 142,0 142,-32"/>
<text xml:space="preserve" text-anchor="start" x="8" y="-18.5" font-family="Helvetica,sans-Serif" font-size="10.00">Lib::HAL::GPIO::ExtInterrupt</text>
<text xml:space="preserve" text-anchor="middle" x="71" y="-6.5" font-family="Helvetica,sans-Serif" font-size="10.00">::unbind</text>
</a>
</g>
</g>
<!-- Node2 -->
<g id="Node000002" class="node">
<title>Node2</title>
<g id="a_Node000002"><a xlink:href="../../d3/ddc/class_lib_1_1_h_a_l_1_1_g_p_i_o_1_1_ext_interrupt_1_1_device_manager.html#a9fd26269350038c4621ebd7504e32df5" target="_top" xlink:title="Retrieves the singleton instance of the DeviceManager.">
<polygon fill="white" stroke="#666666" points="320,-32 178,-32 178,0 320,0 320,-32"/>
<text xml:space="preserve" text-anchor="start" x="186" y="-18.5" font-family="Helvetica,sans-Serif" font-size="10.00">Lib::HAL::GPIO::ExtInterrupt</text>
<text xml:space="preserve" text-anchor="middle" x="249" y="-6.5" font-family="Helvetica,sans-Serif" font-size="10.00">::DeviceManager::instance</text>
</a>
</g>
</g>
<!-- Node1&#45;&gt;Node2 -->
<g id="edge1_Node000001_Node000002" class="edge">
<title>Node1&#45;&gt;Node2</title>
<g id="a_edge1_Node000001_Node000002"><a xlink:title=" ">
<path fill="none" stroke="#63b8ff" d="M142.32,-16C150.19,-16 158.26,-16 166.27,-16"/>
<polygon fill="#63b8ff" stroke="#63b8ff" points="165.99,-19.5 175.99,-16 165.99,-12.5 165.99,-19.5"/>
</a>
</g>
</g>
<!-- Node2&#45;&gt;Node2 -->
<g id="edge2_Node000002_Node000002" class="edge">
<title>Node2&#45;&gt;Node2</title>
<g id="a_edge2_Node000002_Node000002"><a xlink:title=" ">
<path fill="none" stroke="#63b8ff" d="M217.22,-32.44C211.29,-41.58 221.88,-50 249,-50 263.83,-50 273.72,-47.48 278.66,-43.71"/>
<polygon fill="#63b8ff" stroke="#63b8ff" points="282.09,-44.4 280.5,-33.93 275.21,-43.11 282.09,-44.4"/>
</a>
</g>
</g>
</g>
</svg>
