<?xml version="1.0" encoding="UTF-8" standalone="no"?>
<!DOCTYPE svg PUBLIC "-//W3C//DTD SVG 1.1//EN"
 "http://www.w3.org/Graphics/SVG/1.1/DTD/svg11.dtd">
<!-- Generated by graphviz version 13.1.0 (20250701.0955)
 -->
<!-- Title: RTOS::Queue::operator= Pages: 1 -->
<svg width="285pt" height="66pt"
 viewBox="0.00 0.00 285.00 66.00" xmlns="http://www.w3.org/2000/svg" xmlns:xlink="http://www.w3.org/1999/xlink">
<g id="graph0" class="graph" transform="scale(1 1) rotate(0) translate(4 62)">
<title>RTOS::Queue::operator=</title>
<!-- Node1 -->
<g id="Node000001" class="node">
<title>Node1</title>
<g id="a_Node000001"><a xlink:title="Move assignment operator of Queue class.">
<polygon fill="#999999" stroke="#666666" points="124.75,-39 0,-39 0,-19 124.75,-19 124.75,-39"/>
<text xml:space="preserve" text-anchor="middle" x="62.38" y="-25.5" font-family="Helvetica,sans-Serif" font-size="10.00">RTOS::Queue::operator=</text>
</a>
</g>
</g>
<!-- Node2 -->
<g id="Node000002" class="node">
<title>Node2</title>
<g id="a_Node000002"><a xlink:href="../../de/d77/class_r_t_o_s_1_1_queue.html#aab1fd2221767baffcf06d45785ba0083" target="_top" xlink:title="Default constructor.">
<polygon fill="white" stroke="#666666" points="274.62,-58 162.62,-58 162.62,-38 274.62,-38 274.62,-58"/>
<text xml:space="preserve" text-anchor="middle" x="218.62" y="-44.5" font-family="Helvetica,sans-Serif" font-size="10.00">RTOS::Queue::Queue</text>
</a>
</g>
</g>
<!-- Node1&#45;&gt;Node2 -->
<g id="edge1_Node000001_Node000002" class="edge">
<title>Node1&#45;&gt;Node2</title>
<g id="a_edge1_Node000001_Node000002"><a xlink:title=" ">
<path fill="none" stroke="#63b8ff" d="M125.23,-36.62C133.73,-37.67 142.5,-38.75 151.09,-39.8"/>
<polygon fill="#63b8ff" stroke="#63b8ff" points="150.39,-43.24 160.74,-40.99 151.24,-36.3 150.39,-43.24"/>
</a>
</g>
</g>
<!-- Node3 -->
<g id="Node000003" class="node">
<title>Node3</title>
<g id="a_Node000003"><a xlink:href="../../de/d77/class_r_t_o_s_1_1_queue.html#a122ed9c18a8fa7558f198aa14f0dd5ce" target="_top" xlink:title="Destroys the queue.">
<polygon fill="white" stroke="#666666" points="276.5,-20 160.75,-20 160.75,0 276.5,0 276.5,-20"/>
<text xml:space="preserve" text-anchor="middle" x="218.62" y="-6.5" font-family="Helvetica,sans-Serif" font-size="10.00">RTOS::Queue::destroy</text>
</a>
</g>
</g>
<!-- Node1&#45;&gt;Node3 -->
<g id="edge2_Node000001_Node000003" class="edge">
<title>Node1&#45;&gt;Node3</title>
<g id="a_edge2_Node000001_Node000003"><a xlink:title=" ">
<path fill="none" stroke="#63b8ff" d="M125.23,-21.38C133,-20.42 140.98,-19.44 148.85,-18.47"/>
<polygon fill="#63b8ff" stroke="#63b8ff" points="149.26,-21.95 158.76,-17.25 148.4,-15 149.26,-21.95"/>
</a>
</g>
</g>
</g>
</svg>
