<?xml version="1.0" encoding="UTF-8" standalone="no"?>
<!DOCTYPE svg PUBLIC "-//W3C//DTD SVG 1.1//EN"
 "http://www.w3.org/Graphics/SVG/1.1/DTD/svg11.dtd">
<!-- Generated by graphviz version 13.1.0 (20250701.0955)
 -->
<!-- Title: Lib::Helper::crc16 Pages: 1 -->
<svg width="101pt" height="114pt"
 viewBox="0.00 0.00 101.00 114.00" xmlns="http://www.w3.org/2000/svg" xmlns:xlink="http://www.w3.org/1999/xlink">
<g id="graph0" class="graph" transform="scale(1 1) rotate(0) translate(4 109.5)">
<title>Lib::Helper::crc16</title>
<!-- Node1 -->
<g id="Node000001" class="node">
<title>Node1</title>
<g id="a_Node000001"><a xlink:title="CRC16 checksum calculator using CRC&#45;CCITT (0x1021, MSB&#45;first).">
<polygon fill="#999999" stroke="none" points="93,-105.5 0,-105.5 0,0 93,0 93,-105.5"/>
<text xml:space="preserve" text-anchor="start" x="10.5" y="-92.95" font-family="Arial" font-size="9.00">Lib::Helper::crc16</text>
<text xml:space="preserve" text-anchor="start" x="45.38" y="-78.45" font-family="Arial" font-size="9.00"> </text>
<text xml:space="preserve" text-anchor="start" x="4" y="-63.95" font-family="Arial" font-size="9.00">+</text>
<text xml:space="preserve" text-anchor="start" x="13.25" y="-63.95" font-family="Arial" font-size="9.00">crc16()</text>
<text xml:space="preserve" text-anchor="start" x="4" y="-49.45" font-family="Arial" font-size="9.00">+</text>
<text xml:space="preserve" text-anchor="start" x="13.25" y="-49.45" font-family="Arial" font-size="9.00">crc16()</text>
<text xml:space="preserve" text-anchor="start" x="4" y="-34.95" font-family="Arial" font-size="9.00">+</text>
<text xml:space="preserve" text-anchor="start" x="13.25" y="-34.95" font-family="Arial" font-size="9.00">operator uint16_t()</text>
<text xml:space="preserve" text-anchor="start" x="4" y="-20.45" font-family="Arial" font-size="9.00">+</text>
<text xml:space="preserve" text-anchor="start" x="13.25" y="-20.45" font-family="Arial" font-size="9.00">getSize()</text>
<text xml:space="preserve" text-anchor="start" x="4" y="-5.95" font-family="Arial" font-size="9.00">+</text>
<text xml:space="preserve" text-anchor="start" x="13.25" y="-5.95" font-family="Arial" font-size="9.00">getData()</text>
<polygon fill="#666666" stroke="#666666" points="0,-89 0,-89 93,-89 93,-89 0,-89"/>
<polygon fill="#666666" stroke="#666666" points="0,-74.5 0,-74.5 93,-74.5 93,-74.5 0,-74.5"/>
<polygon fill="none" stroke="#666666" points="0,0 0,-105.5 93,-105.5 93,0 0,0"/>
</a>
</g>
</g>
</g>
</svg>
