<?xml version="1.0" encoding="UTF-8" standalone="no"?>
<!DOCTYPE svg PUBLIC "-//W3C//DTD SVG 1.1//EN"
 "http://www.w3.org/Graphics/SVG/1.1/DTD/svg11.dtd">
<!-- Generated by graphviz version 13.1.0 (20250701.0955)
 -->
<!-- Title: DisplayRotation.hpp Pages: 1 -->
<svg width="146pt" height="196pt"
 viewBox="0.00 0.00 146.00 196.00" xmlns="http://www.w3.org/2000/svg" xmlns:xlink="http://www.w3.org/1999/xlink">
<g id="graph0" class="graph" transform="scale(1 1) rotate(0) translate(4 192)">
<title>DisplayRotation.hpp</title>
<!-- Node1 -->
<g id="Node000001" class="node">
<title>Node1</title>
<g id="a_Node000001"><a xlink:title="Display orientation state management.">
<polygon fill="#999999" stroke="#666666" points="104.5,-188 0,-188 0,-168 104.5,-168 104.5,-188"/>
<text xml:space="preserve" text-anchor="middle" x="52.25" y="-174.5" font-family="Helvetica,sans-Serif" font-size="10.00">DisplayRotation.hpp</text>
</a>
</g>
</g>
<!-- Node2 -->
<g id="Node000002" class="node">
<title>Node2</title>
<g id="a_Node000002"><a xlink:href="../../db/dd9/a00179.html" target="_top" xlink:title="System&#45;wide global objects and startup state definitions.">
<polygon fill="white" stroke="#666666" points="86.5,-132 18,-132 18,-112 86.5,-112 86.5,-132"/>
<text xml:space="preserve" text-anchor="middle" x="52.25" y="-118.5" font-family="Helvetica,sans-Serif" font-size="10.00">System.hpp</text>
</a>
</g>
</g>
<!-- Node1&#45;&gt;Node2 -->
<g id="edge1_Node000001_Node000002" class="edge">
<title>Node1&#45;&gt;Node2</title>
<g id="a_edge1_Node000001_Node000002"><a xlink:title=" ">
<path fill="none" stroke="#63b8ff" d="M52.25,-156.13C52.25,-147.9 52.25,-138.85 52.25,-132.3"/>
<polygon fill="#63b8ff" stroke="#63b8ff" points="48.75,-156.08 52.25,-166.08 55.75,-156.08 48.75,-156.08"/>
</a>
</g>
</g>
<!-- Node3 -->
<g id="Node000003" class="node">
<title>Node3</title>
<g id="a_Node000003"><a xlink:href="../../d7/d25/a00182.html" target="_top" xlink:title="Declares the ModelBase class for TouchGFX UI model aggregation.">
<polygon fill="white" stroke="#666666" points="94,-20 10.5,-20 10.5,0 94,0 94,-20"/>
<text xml:space="preserve" text-anchor="middle" x="52.25" y="-6.5" font-family="Helvetica,sans-Serif" font-size="10.00">ModelBase.hpp</text>
</a>
</g>
</g>
<!-- Node2&#45;&gt;Node3 -->
<g id="edge2_Node000002_Node000003" class="edge">
<title>Node2&#45;&gt;Node3</title>
<g id="a_edge2_Node000002_Node000003"><a xlink:title=" ">
<path fill="none" stroke="#63b8ff" d="M42.46,-101.24C39.16,-93.56 35.9,-84.56 34.25,-76 30.35,-55.76 40.32,-32.63 46.93,-20.15"/>
<polygon fill="#63b8ff" stroke="#63b8ff" points="39.27,-102.69 46.66,-110.29 45.62,-99.75 39.27,-102.69"/>
</a>
</g>
</g>
<!-- Node4 -->
<g id="Node000004" class="node">
<title>Node4</title>
<g id="a_Node000004"><a xlink:href="../../de/db1/a00197.html" target="_top" xlink:title="Declares the ModelSystem class and related types for TouchGFX model layer system management.">
<polygon fill="white" stroke="#666666" points="137.62,-76 42.88,-76 42.88,-56 137.62,-56 137.62,-76"/>
<text xml:space="preserve" text-anchor="middle" x="90.25" y="-62.5" font-family="Helvetica,sans-Serif" font-size="10.00">ModelSystem.hpp</text>
</a>
</g>
</g>
<!-- Node2&#45;&gt;Node4 -->
<g id="edge3_Node000002_Node000004" class="edge">
<title>Node2&#45;&gt;Node4</title>
<g id="a_edge3_Node000002_Node000004"><a xlink:title=" ">
<path fill="none" stroke="#63b8ff" d="M65.31,-102.44C71.52,-93.62 78.66,-83.47 83.71,-76.3"/>
<polygon fill="#63b8ff" stroke="#63b8ff" points="62.63,-100.16 59.74,-110.36 68.36,-104.19 62.63,-100.16"/>
</a>
</g>
</g>
<!-- Node4&#45;&gt;Node3 -->
<g id="edge4_Node000004_Node000003" class="edge">
<title>Node4&#45;&gt;Node3</title>
<g id="a_edge4_Node000004_Node000003"><a xlink:title=" ">
<path fill="none" stroke="#63b8ff" d="M77.19,-46.44C70.98,-37.62 63.84,-27.47 58.79,-20.3"/>
<polygon fill="#63b8ff" stroke="#63b8ff" points="74.14,-48.19 82.76,-54.36 79.87,-44.16 74.14,-48.19"/>
</a>
</g>
</g>
</g>
</svg>
