<?xml version="1.0" encoding="UTF-8" standalone="no"?>
<!DOCTYPE svg PUBLIC "-//W3C//DTD SVG 1.1//EN"
 "http://www.w3.org/Graphics/SVG/1.1/DTD/svg11.dtd">
<!-- Generated by graphviz version 13.1.0 (20250701.0955)
 -->
<!-- Title: Lib::Digi::API::Service::NetworkDiscovery Pages: 1 -->
<svg width="201pt" height="372pt"
 viewBox="0.00 0.00 201.00 372.00" xmlns="http://www.w3.org/2000/svg" xmlns:xlink="http://www.w3.org/1999/xlink">
<g id="graph0" class="graph" transform="scale(1 1) rotate(0) translate(4 368)">
<title>Lib::Digi::API::Service::NetworkDiscovery</title>
<!-- Node1 -->
<g id="Node000001" class="node">
<title>Node1</title>
<g id="a_Node000001"><a xlink:title="NetworkDiscovery service class.">
<polygon fill="#999999" stroke="none" points="192.5,-132 0,-132 0,0 192.5,0 192.5,-132"/>
<text xml:space="preserve" text-anchor="start" x="4" y="-118.5" font-family="Helvetica,sans-Serif" font-size="10.00">Lib::Digi::API::Service::NetworkDiscovery</text>
<text xml:space="preserve" text-anchor="start" x="94.75" y="-102.5" font-family="Helvetica,sans-Serif" font-size="10.00"> </text>
<text xml:space="preserve" text-anchor="start" x="24.38" y="-86.5" font-family="Helvetica,sans-Serif" font-size="10.00">+</text>
<text xml:space="preserve" text-anchor="start" x="54.75" y="-86.5" font-family="Helvetica,sans-Serif" font-size="10.00">NetworkDiscovery()</text>
<text xml:space="preserve" text-anchor="start" x="24.38" y="-70.5" font-family="Helvetica,sans-Serif" font-size="10.00">+</text>
<text xml:space="preserve" text-anchor="start" x="54.75" y="-70.5" font-family="Helvetica,sans-Serif" font-size="10.00">~NetworkDiscovery()</text>
<text xml:space="preserve" text-anchor="start" x="24.38" y="-54.5" font-family="Helvetica,sans-Serif" font-size="10.00">+</text>
<text xml:space="preserve" text-anchor="start" x="54.75" y="-54.5" font-family="Helvetica,sans-Serif" font-size="10.00">open()</text>
<text xml:space="preserve" text-anchor="start" x="24.38" y="-38.5" font-family="Helvetica,sans-Serif" font-size="10.00">+</text>
<text xml:space="preserve" text-anchor="start" x="54.75" y="-38.5" font-family="Helvetica,sans-Serif" font-size="10.00">close()</text>
<text xml:space="preserve" text-anchor="start" x="24.38" y="-22.5" font-family="Helvetica,sans-Serif" font-size="10.00">+</text>
<text xml:space="preserve" text-anchor="start" x="54.75" y="-22.5" font-family="Helvetica,sans-Serif" font-size="10.00">update()</text>
<text xml:space="preserve" text-anchor="start" x="24.38" y="-6.5" font-family="Helvetica,sans-Serif" font-size="10.00">+</text>
<text xml:space="preserve" text-anchor="start" x="54.75" y="-6.5" font-family="Helvetica,sans-Serif" font-size="10.00">start()</text>
<polygon fill="#666666" stroke="#666666" points="0,-114 0,-114 192.5,-114 192.5,-114 0,-114"/>
<polygon fill="#666666" stroke="#666666" points="0,-98 0,-98 192.5,-98 192.5,-98 0,-98"/>
<polygon fill="none" stroke="#666666" points="0,0 0,-132 192.5,-132 192.5,0 0,0"/>
</a>
</g>
</g>
<!-- Node2 -->
<g id="Node000002" class="node">
<title>Node2</title>
<g id="a_Node000002"><a xlink:href="../../d7/d85/class_lib_1_1_digi_1_1_a_p_i_1_1_service_1_1_service_base.html" target="_top" xlink:title="Base class for Digi API services.">
<polygon fill="white" stroke="none" points="179.75,-364 12.75,-364 12.75,-168 179.75,-168 179.75,-364"/>
<text xml:space="preserve" text-anchor="start" x="16.75" y="-350.5" font-family="Helvetica,sans-Serif" font-size="10.00">Lib::Digi::API::Service::ServiceBase</text>
<text xml:space="preserve" text-anchor="start" x="36.75" y="-334.5" font-family="Helvetica,sans-Serif" font-size="10.00">#</text>
<text xml:space="preserve" text-anchor="start" x="66" y="-334.5" font-family="Helvetica,sans-Serif" font-size="10.00">isOpen</text>
<text xml:space="preserve" text-anchor="start" x="36.75" y="-318.5" font-family="Helvetica,sans-Serif" font-size="10.00">#</text>
<text xml:space="preserve" text-anchor="start" x="66" y="-318.5" font-family="Helvetica,sans-Serif" font-size="10.00">hasClosed</text>
<text xml:space="preserve" text-anchor="start" x="36.75" y="-302.5" font-family="Helvetica,sans-Serif" font-size="10.00">#</text>
<text xml:space="preserve" text-anchor="start" x="66" y="-302.5" font-family="Helvetica,sans-Serif" font-size="10.00">isFirstUpdate</text>
<text xml:space="preserve" text-anchor="start" x="36.75" y="-286.5" font-family="Helvetica,sans-Serif" font-size="10.00">#</text>
<text xml:space="preserve" text-anchor="start" x="66" y="-286.5" font-family="Helvetica,sans-Serif" font-size="10.00">ServiceBase()</text>
<text xml:space="preserve" text-anchor="start" x="36.75" y="-270.5" font-family="Helvetica,sans-Serif" font-size="10.00">#</text>
<text xml:space="preserve" text-anchor="start" x="66" y="-270.5" font-family="Helvetica,sans-Serif" font-size="10.00">~ServiceBase()</text>
<text xml:space="preserve" text-anchor="start" x="36.75" y="-254.5" font-family="Helvetica,sans-Serif" font-size="10.00">#</text>
<text xml:space="preserve" text-anchor="start" x="66" y="-254.5" font-family="Helvetica,sans-Serif" font-size="10.00">open()</text>
<text xml:space="preserve" text-anchor="start" x="36.75" y="-238.5" font-family="Helvetica,sans-Serif" font-size="10.00">#</text>
<text xml:space="preserve" text-anchor="start" x="66" y="-238.5" font-family="Helvetica,sans-Serif" font-size="10.00">close()</text>
<text xml:space="preserve" text-anchor="start" x="36.75" y="-222.5" font-family="Helvetica,sans-Serif" font-size="10.00">#</text>
<text xml:space="preserve" text-anchor="start" x="66" y="-222.5" font-family="Helvetica,sans-Serif" font-size="10.00">isServiceOpen()</text>
<text xml:space="preserve" text-anchor="start" x="36.75" y="-206.5" font-family="Helvetica,sans-Serif" font-size="10.00">#</text>
<text xml:space="preserve" text-anchor="start" x="66" y="-206.5" font-family="Helvetica,sans-Serif" font-size="10.00">beginUpdate()</text>
<text xml:space="preserve" text-anchor="start" x="36.75" y="-190.5" font-family="Helvetica,sans-Serif" font-size="10.00">#</text>
<text xml:space="preserve" text-anchor="start" x="66" y="-190.5" font-family="Helvetica,sans-Serif" font-size="10.00">update()</text>
<text xml:space="preserve" text-anchor="start" x="36.75" y="-174.5" font-family="Helvetica,sans-Serif" font-size="10.00">#</text>
<text xml:space="preserve" text-anchor="start" x="66" y="-174.5" font-family="Helvetica,sans-Serif" font-size="10.00">endUpdate()</text>
<polygon fill="#666666" stroke="#666666" points="12.75,-346 12.75,-346 179.75,-346 179.75,-346 12.75,-346"/>
<polygon fill="#666666" stroke="#666666" points="12.75,-298 12.75,-298 64,-298 64,-298 12.75,-298"/>
<polygon fill="#666666" stroke="#666666" points="64,-298 64,-298 179.75,-298 179.75,-298 64,-298"/>
<polygon fill="none" stroke="#666666" points="12.75,-168 12.75,-364 179.75,-364 179.75,-168 12.75,-168"/>
</a>
</g>
</g>
<!-- Node2&#45;&gt;Node1 -->
<g id="edge1_Node000001_Node000002" class="edge">
<title>Node2&#45;&gt;Node1</title>
<g id="a_edge1_Node000001_Node000002"><a xlink:title=" ">
<path fill="none" stroke="#63b8ff" d="M96.25,-156.56C96.25,-148.17 96.25,-139.87 96.25,-131.91"/>
<polygon fill="none" stroke="#63b8ff" points="92.75,-156.52 96.25,-166.52 99.75,-156.52 92.75,-156.52"/>
</a>
</g>
</g>
</g>
</svg>
