<?xml version="1.0" encoding="UTF-8" standalone="no"?>
<!DOCTYPE svg PUBLIC "-//W3C//DTD SVG 1.1//EN"
 "http://www.w3.org/Graphics/SVG/1.1/DTD/svg11.dtd">
<!-- Generated by graphviz version 13.1.0 (20250701.0955)
 -->
<!-- Title: Lib::BSP::Ethercat::PDI::LAN9252::Base::Config Pages: 1 -->
<svg width="128pt" height="354pt"
 viewBox="0.00 0.00 128.00 354.00" xmlns="http://www.w3.org/2000/svg" xmlns:xlink="http://www.w3.org/1999/xlink">
<g id="graph0" class="graph" transform="scale(1 1) rotate(0) translate(4 350)">
<title>Lib::BSP::Ethercat::PDI::LAN9252::Base::Config</title>
<!-- Node1 -->
<g id="Node000001" class="node">
<title>Node1</title>
<g id="a_Node000001"><a xlink:title="LAN9252 configuration structure.">
<polygon fill="#999999" stroke="none" points="117,-88 3,-88 3,0 117,0 117,-88"/>
<text xml:space="preserve" text-anchor="start" x="10.88" y="-74.5" font-family="Helvetica,sans-Serif" font-size="10.00">Lib::BSP::Ethercat</text>
<text xml:space="preserve" text-anchor="start" x="10.88" y="-62.5" font-family="Helvetica,sans-Serif" font-size="10.00">::PDI::LAN9252::Base</text>
<text xml:space="preserve" text-anchor="start" x="42.75" y="-50.5" font-family="Helvetica,sans-Serif" font-size="10.00">::Config</text>
<text xml:space="preserve" text-anchor="start" x="7" y="-34.5" font-family="Helvetica,sans-Serif" font-size="10.00">+</text>
<text xml:space="preserve" text-anchor="start" x="17" y="-34.5" font-family="Helvetica,sans-Serif" font-size="10.00">SPI_HandleTypeDef *</text>
<text xml:space="preserve" text-anchor="start" x="17" y="-22.5" font-family="Helvetica,sans-Serif" font-size="10.00"> spiHandle</text>
<text xml:space="preserve" text-anchor="start" x="58.5" y="-6.5" font-family="Helvetica,sans-Serif" font-size="10.00"> </text>
<polygon fill="#666666" stroke="#666666" points="3,-46 3,-46 117,-46 117,-46 3,-46"/>
<polygon fill="#666666" stroke="#666666" points="3,-18 3,-18 15,-18 15,-18 3,-18"/>
<polygon fill="#666666" stroke="#666666" points="15,-18 15,-18 117,-18 117,-18 15,-18"/>
<polygon fill="none" stroke="#666666" points="3,0 3,-88 117,-88 117,0 3,0"/>
</a>
</g>
</g>
<!-- Node2 -->
<g id="Node000002" class="node">
<title>Node2</title>
<g id="a_Node000002"><a xlink:href="../../d3/d9a/class_lib_1_1_h_a_l_1_1_g_p_i_o_1_1_handle.html" target="_top" xlink:title="GPIO pin handle abstraction.">
<polygon fill="white" stroke="none" points="120,-346 0,-346 0,-206 120,-206 120,-346"/>
<text xml:space="preserve" text-anchor="start" x="7.12" y="-332.5" font-family="Helvetica,sans-Serif" font-size="10.00">Lib::HAL::GPIO::Handle</text>
<text xml:space="preserve" text-anchor="start" x="4" y="-316.5" font-family="Helvetica,sans-Serif" font-size="10.00">+</text>
<text xml:space="preserve" text-anchor="start" x="14" y="-316.5" font-family="Helvetica,sans-Serif" font-size="10.00">GPIO_TypeDef * port</text>
<text xml:space="preserve" text-anchor="start" x="4" y="-300.5" font-family="Helvetica,sans-Serif" font-size="10.00">+</text>
<text xml:space="preserve" text-anchor="start" x="14" y="-300.5" font-family="Helvetica,sans-Serif" font-size="10.00">uint16_t number</text>
<text xml:space="preserve" text-anchor="start" x="4" y="-284.5" font-family="Helvetica,sans-Serif" font-size="10.00">+</text>
<text xml:space="preserve" text-anchor="start" x="14" y="-284.5" font-family="Helvetica,sans-Serif" font-size="10.00">Handle()=default</text>
<text xml:space="preserve" text-anchor="start" x="4" y="-268.5" font-family="Helvetica,sans-Serif" font-size="10.00">+</text>
<text xml:space="preserve" text-anchor="start" x="14" y="-268.5" font-family="Helvetica,sans-Serif" font-size="10.00">Handle(GPIO_TypeDef</text>
<text xml:space="preserve" text-anchor="start" x="14" y="-256.5" font-family="Helvetica,sans-Serif" font-size="10.00"> *port, uint16_t number)</text>
<text xml:space="preserve" text-anchor="start" x="4" y="-240.5" font-family="Helvetica,sans-Serif" font-size="10.00">+</text>
<text xml:space="preserve" text-anchor="start" x="14" y="-240.5" font-family="Helvetica,sans-Serif" font-size="10.00">~Handle()=default</text>
<text xml:space="preserve" text-anchor="start" x="4" y="-224.5" font-family="Helvetica,sans-Serif" font-size="10.00">+</text>
<text xml:space="preserve" text-anchor="start" x="14" y="-224.5" font-family="Helvetica,sans-Serif" font-size="10.00">bool operator==(const</text>
<text xml:space="preserve" text-anchor="start" x="14" y="-212.5" font-family="Helvetica,sans-Serif" font-size="10.00"> Handle &amp;ref) const</text>
<polygon fill="#666666" stroke="#666666" points="0,-328 0,-328 120,-328 120,-328 0,-328"/>
<polygon fill="#666666" stroke="#666666" points="0,-296 0,-296 12,-296 12,-296 0,-296"/>
<polygon fill="#666666" stroke="#666666" points="12,-296 12,-296 120,-296 120,-296 12,-296"/>
<polygon fill="none" stroke="#666666" points="0,-206 0,-346 120,-346 120,-206 0,-206"/>
</a>
</g>
</g>
<!-- Node2&#45;&gt;Node1 -->
<g id="edge1_Node000001_Node000002" class="edge">
<title>Node2&#45;&gt;Node1</title>
<g id="a_edge1_Node000001_Node000002"><a xlink:title=" ">
<path fill="none" stroke="#63b8ff" d="M60,-206.3C60,-172.45 60,-132.17 60,-100.33"/>
<polygon fill="none" stroke="#63b8ff" points="60,-100.59 56,-94.59 60,-88.59 64,-94.59 60,-100.59"/>
</a>
</g>
<text xml:space="preserve" text-anchor="start" x="63" y="-175.5" font-family="Helvetica,sans-Serif" font-size="10.00" fill="grey">+pinNIRQ</text>
<text xml:space="preserve" text-anchor="start" x="63" y="-159.5" font-family="Helvetica,sans-Serif" font-size="10.00" fill="grey">+pinNRST</text>
<text xml:space="preserve" text-anchor="start" x="63" y="-143.5" font-family="Helvetica,sans-Serif" font-size="10.00" fill="grey">+pinNSS</text>
<text xml:space="preserve" text-anchor="start" x="63" y="-127.5" font-family="Helvetica,sans-Serif" font-size="10.00" fill="grey">+pinSync0</text>
<text xml:space="preserve" text-anchor="start" x="63" y="-111.5" font-family="Helvetica,sans-Serif" font-size="10.00" fill="grey">+pinSync1</text>
</g>
</g>
</svg>
