<?xml version="1.0" encoding="UTF-8" standalone="no"?>
<!DOCTYPE svg PUBLIC "-//W3C//DTD SVG 1.1//EN"
 "http://www.w3.org/Graphics/SVG/1.1/DTD/svg11.dtd">
<!-- Generated by graphviz version 16.1.0 (20260904.0139)
 -->
<!-- Title: Hex.hpp Pages: 1 -->
<svg width="505pt" height="196pt"
 viewBox="0.00 0.00 505.00 196.00" xmlns="http://www.w3.org/2000/svg" xmlns:xlink="http://www.w3.org/1999/xlink">
<g id="graph0" class="graph" transform="scale(1 1) rotate(0) translate(4 192)">
<title>Hex.hpp</title>
<!-- Node1 -->
<g id="Node000001" class="node">
<title>Node1</title>
<g id="a_Node000001"><a xlink:title="Hex conversion utilities for the fixed&#45;width unsigned integer types.">
<polygon fill="#999999" stroke="#666666" points="273.5,-188 220.75,-188 220.75,-168 273.5,-168 273.5,-188"/>
<text xml:space="preserve" text-anchor="middle" x="247.12" y="-174.5" font-family="Helvetica,sans-Serif" font-size="10.00">Hex.hpp</text>
</a>
</g>
</g>
<!-- Node2 -->
<g id="Node000002" class="node">
<title>Node2</title>
<g id="a_Node000002"><a xlink:href="../../d9/d34/a00476.html" target="_top" xlink:title="ASCII conversion utilities.">
<polygon fill="white" stroke="#666666" points="131.38,-76 74.88,-76 74.88,-56 131.38,-56 131.38,-76"/>
<text xml:space="preserve" text-anchor="middle" x="103.12" y="-62.5" font-family="Helvetica,sans-Serif" font-size="10.00">Ascii.hpp</text>
</a>
</g>
</g>
<!-- Node1&#45;&gt;Node2 -->
<g id="edge1_Node000001_Node000002" class="edge">
<title>Node1&#45;&gt;Node2</title>
<g id="a_edge1_Node000001_Node000002"><a xlink:title=" ">
<path fill="none" stroke="#63b8ff" d="M220.5,-169.94C198.43,-163.05 167.21,-150.84 145.12,-132 130.45,-119.48 119.02,-100.55 111.82,-86.34"/>
<polygon fill="#63b8ff" stroke="#63b8ff" points="115.08,-85.06 107.61,-77.54 108.76,-88.07 115.08,-85.06"/>
</a>
</g>
</g>
<!-- Node4 -->
<g id="Node000004" class="node">
<title>Node4</title>
<g id="a_Node000004"><a xlink:title=" ">
<polygon fill="#e0e0e0" stroke="#999999" points="125.75,-20 80.5,-20 80.5,0 125.75,0 125.75,-20"/>
<text xml:space="preserve" text-anchor="middle" x="103.12" y="-6.5" font-family="Helvetica,sans-Serif" font-size="10.00">cstdint</text>
</a>
</g>
</g>
<!-- Node1&#45;&gt;Node4 -->
<g id="edge12_Node000001_Node000004" class="edge">
<title>Node1&#45;&gt;Node4</title>
<g id="a_edge12_Node000001_Node000004"><a xlink:title=" ">
<path fill="none" stroke="#63b8ff" d="M226.93,-167.52C211.95,-159.69 191.83,-147.37 178.12,-132 152.99,-103.82 160.69,-87.67 140.12,-56 133.95,-46.49 126.09,-36.68 119.2,-28.65"/>
<polygon fill="#63b8ff" stroke="#63b8ff" points="121.96,-26.49 112.72,-21.31 116.71,-31.13 121.96,-26.49"/>
</a>
</g>
</g>
<!-- Node5 -->
<g id="Node000005" class="node">
<title>Node5</title>
<g id="a_Node000005"><a xlink:href="../../d4/d1f/a00506.html" target="_top" xlink:title="Utility helpers for hexadecimal and BCD conversions.">
<polygon fill="white" stroke="#666666" points="89.75,-132 8.5,-132 8.5,-112 89.75,-112 89.75,-132"/>
<text xml:space="preserve" text-anchor="middle" x="49.12" y="-118.5" font-family="Helvetica,sans-Serif" font-size="10.00">HexHelper.hpp</text>
</a>
</g>
</g>
<!-- Node1&#45;&gt;Node5 -->
<g id="edge4_Node000001_Node000005" class="edge">
<title>Node1&#45;&gt;Node5</title>
<g id="a_edge4_Node000001_Node000005"><a xlink:title=" ">
<path fill="none" stroke="#63b8ff" d="M220.42,-169.72C188.24,-160.94 133.64,-146.05 94.73,-135.44"/>
<polygon fill="#63b8ff" stroke="#63b8ff" points="95.74,-132.08 85.17,-132.83 93.89,-138.84 95.74,-132.08"/>
</a>
</g>
</g>
<!-- Node6 -->
<g id="Node000006" class="node">
<title>Node6</title>
<g id="a_Node000006"><a xlink:title=" ">
<polygon fill="#e0e0e0" stroke="#999999" points="243,-132 187.25,-132 187.25,-112 243,-112 243,-132"/>
<text xml:space="preserve" text-anchor="middle" x="215.12" y="-118.5" font-family="Helvetica,sans-Serif" font-size="10.00">algorithm</text>
</a>
</g>
</g>
<!-- Node1&#45;&gt;Node6 -->
<g id="edge8_Node000001_Node000006" class="edge">
<title>Node1&#45;&gt;Node6</title>
<g id="a_edge8_Node000001_Node000006"><a xlink:title=" ">
<path fill="none" stroke="#63b8ff" d="M241.55,-167.59C237.38,-160.55 231.52,-150.67 226.38,-142"/>
<polygon fill="#63b8ff" stroke="#63b8ff" points="229.52,-140.42 221.41,-133.6 223.49,-143.99 229.52,-140.42"/>
</a>
</g>
</g>
<!-- Node7 -->
<g id="Node000007" class="node">
<title>Node7</title>
<g id="a_Node000007"><a xlink:title=" ">
<polygon fill="#e0e0e0" stroke="#999999" points="299,-132 261.25,-132 261.25,-112 299,-112 299,-132"/>
<text xml:space="preserve" text-anchor="middle" x="280.12" y="-118.5" font-family="Helvetica,sans-Serif" font-size="10.00">array</text>
</a>
</g>
</g>
<!-- Node1&#45;&gt;Node7 -->
<g id="edge9_Node000001_Node000007" class="edge">
<title>Node1&#45;&gt;Node7</title>
<g id="a_edge9_Node000001_Node000007"><a xlink:title=" ">
<path fill="none" stroke="#63b8ff" d="M252.87,-167.59C257.18,-160.55 263.22,-150.67 268.51,-142"/>
<polygon fill="#63b8ff" stroke="#63b8ff" points="271.43,-143.95 273.65,-133.59 265.45,-140.3 271.43,-143.95"/>
</a>
</g>
</g>
<!-- Node8 -->
<g id="Node000008" class="node">
<title>Node8</title>
<g id="a_Node000008"><a xlink:title=" ">
<polygon fill="#e0e0e0" stroke="#999999" points="373,-132 317.25,-132 317.25,-112 373,-112 373,-132"/>
<text xml:space="preserve" text-anchor="middle" x="345.12" y="-118.5" font-family="Helvetica,sans-Serif" font-size="10.00">concepts</text>
</a>
</g>
</g>
<!-- Node1&#45;&gt;Node8 -->
<g id="edge10_Node000001_Node000008" class="edge">
<title>Node1&#45;&gt;Node8</title>
<g id="a_edge10_Node000001_Node000008"><a xlink:title=" ">
<path fill="none" stroke="#63b8ff" d="M264.2,-167.59C279,-159.44 300.69,-147.48 317.89,-138"/>
<polygon fill="#63b8ff" stroke="#63b8ff" points="319.53,-141.1 326.6,-133.21 316.15,-134.97 319.53,-141.1"/>
</a>
</g>
</g>
<!-- Node9 -->
<g id="Node000009" class="node">
<title>Node9</title>
<g id="a_Node000009"><a xlink:title=" ">
<polygon fill="#e0e0e0" stroke="#999999" points="439.25,-132 391,-132 391,-112 439.25,-112 439.25,-132"/>
<text xml:space="preserve" text-anchor="middle" x="415.12" y="-118.5" font-family="Helvetica,sans-Serif" font-size="10.00">cstddef</text>
</a>
</g>
</g>
<!-- Node1&#45;&gt;Node9 -->
<g id="edge11_Node000001_Node000009" class="edge">
<title>Node1&#45;&gt;Node9</title>
<g id="a_edge11_Node000001_Node000009"><a xlink:title=" ">
<path fill="none" stroke="#63b8ff" d="M273.75,-168.44C302.46,-159.21 348.32,-144.47 379.99,-134.29"/>
<polygon fill="#63b8ff" stroke="#63b8ff" points="380.65,-137.76 389.1,-131.36 378.51,-131.09 380.65,-137.76"/>
</a>
</g>
</g>
<!-- Node10 -->
<g id="Node000010" class="node">
<title>Node10</title>
<g id="a_Node000010"><a xlink:title=" ">
<polygon fill="#e0e0e0" stroke="#999999" points="496.75,-132 457.5,-132 457.5,-112 496.75,-112 496.75,-132"/>
<text xml:space="preserve" text-anchor="middle" x="477.12" y="-118.5" font-family="Helvetica,sans-Serif" font-size="10.00">limits</text>
</a>
</g>
</g>
<!-- Node1&#45;&gt;Node10 -->
<g id="edge13_Node000001_Node000010" class="edge">
<title>Node1&#45;&gt;Node10</title>
<g id="a_edge13_Node000001_Node000010"><a xlink:title=" ">
<path fill="none" stroke="#63b8ff" d="M273.95,-171.71C310.68,-164.32 378.89,-150.04 446.39,-132.29"/>
<polygon fill="#63b8ff" stroke="#63b8ff" points="446.99,-135.75 455.76,-129.8 445.19,-128.99 446.99,-135.75"/>
</a>
</g>
</g>
<!-- Node3 -->
<g id="Node000003" class="node">
<title>Node3</title>
<g id="a_Node000003"><a xlink:title=" ">
<polygon fill="#e0e0e0" stroke="#999999" points="48.25,-20 0,-20 0,0 48.25,0 48.25,-20"/>
<text xml:space="preserve" text-anchor="middle" x="24.12" y="-6.5" font-family="Helvetica,sans-Serif" font-size="10.00">cassert</text>
</a>
</g>
</g>
<!-- Node2&#45;&gt;Node3 -->
<g id="edge2_Node000002_Node000003" class="edge">
<title>Node2&#45;&gt;Node3</title>
<g id="a_edge2_Node000002_Node000003"><a xlink:title=" ">
<path fill="none" stroke="#63b8ff" d="M89.36,-55.59C77.77,-47.67 60.93,-36.16 47.26,-26.82"/>
<polygon fill="#63b8ff" stroke="#63b8ff" points="49.47,-24.09 39.24,-21.33 45.52,-29.87 49.47,-24.09"/>
</a>
</g>
</g>
<!-- Node2&#45;&gt;Node4 -->
<g id="edge3_Node000002_Node000004" class="edge">
<title>Node2&#45;&gt;Node4</title>
<g id="a_edge3_Node000002_Node000004"><a xlink:title=" ">
<path fill="none" stroke="#63b8ff" d="M103.12,-55.59C103.12,-49.01 103.12,-39.96 103.12,-31.73"/>
<polygon fill="#63b8ff" stroke="#63b8ff" points="106.63,-31.81 103.13,-21.81 99.63,-31.81 106.63,-31.81"/>
</a>
</g>
</g>
<!-- Node5&#45;&gt;Node2 -->
<g id="edge5_Node000005_Node000002" class="edge">
<title>Node5&#45;&gt;Node2</title>
<g id="a_edge5_Node000005_Node000002"><a xlink:title=" ">
<path fill="none" stroke="#63b8ff" d="M58.53,-111.59C66.04,-104.08 76.77,-93.35 85.82,-84.3"/>
<polygon fill="#63b8ff" stroke="#63b8ff" points="88.16,-86.91 92.76,-77.37 83.21,-81.96 88.16,-86.91"/>
</a>
</g>
</g>
<!-- Node5&#45;&gt;Node3 -->
<g id="edge6_Node000005_Node000003" class="edge">
<title>Node5&#45;&gt;Node3</title>
<g id="a_edge6_Node000005_Node000003"><a xlink:title=" ">
<path fill="none" stroke="#63b8ff" d="M45.11,-111.52C41.46,-102.53 36.19,-88.57 33.12,-76 29.56,-61.39 27.27,-44.57 25.9,-31.69"/>
<polygon fill="#63b8ff" stroke="#63b8ff" points="29.4,-31.5 24.96,-21.88 22.43,-32.16 29.4,-31.5"/>
</a>
</g>
</g>
<!-- Node5&#45;&gt;Node4 -->
<g id="edge7_Node000005_Node000004" class="edge">
<title>Node5&#45;&gt;Node4</title>
<g id="a_edge7_Node000005_Node000004"><a xlink:title=" ">
<path fill="none" stroke="#63b8ff" d="M50.27,-111.72C52.15,-98.69 56.69,-74.49 66.12,-56 71.15,-46.16 78.62,-36.52 85.54,-28.71"/>
<polygon fill="#63b8ff" stroke="#63b8ff" points="87.93,-31.27 92.2,-21.57 82.81,-26.5 87.93,-31.27"/>
</a>
</g>
</g>
</g>
</svg>
