<?xml version="1.0" encoding="UTF-8" standalone="no"?>
<!DOCTYPE svg PUBLIC "-//W3C//DTD SVG 1.1//EN"
 "http://www.w3.org/Graphics/SVG/1.1/DTD/svg11.dtd">
<!-- Generated by graphviz version 12.2.1 (20241206.2353)
 -->
<!-- Title: esc_eep.c Pages: 1 -->
<svg width="409pt" height="252pt"
 viewBox="0.00 0.00 409.00 252.00" xmlns="http://www.w3.org/2000/svg" xmlns:xlink="http://www.w3.org/1999/xlink">
<g id="graph0" class="graph" transform="scale(1 1) rotate(0) translate(4 248)">
<title>esc_eep.c</title>
<!-- Node1 -->
<g id="Node000001" class="node">
<title>Node1</title>
<g id="a_Node000001"><a xlink:title="This file contains the implementation of the ESC EEPROM (Electrically Erasable Programmable Read&#45;Only...">
<polygon fill="#999999" stroke="#666666" points="325.38,-244 264.38,-244 264.38,-224 325.38,-224 325.38,-244"/>
<text text-anchor="middle" x="294.88" y="-230.5" font-family="Helvetica,sans-Serif" font-size="10.00">esc_eep.c</text>
</a>
</g>
</g>
<!-- Node2 -->
<g id="Node000002" class="node">
<title>Node2</title>
<g id="a_Node000002"><a xlink:href="../../d5/d16/a00029.html" target="_top" xlink:title="Header file for EEPROM handling in EtherCAT slave devices.">
<polygon fill="white" stroke="#666666" points="296.38,-188 235.38,-188 235.38,-168 296.38,-168 296.38,-188"/>
<text text-anchor="middle" x="265.88" y="-174.5" font-family="Helvetica,sans-Serif" font-size="10.00">esc_eep.h</text>
</a>
</g>
</g>
<!-- Node1&#45;&gt;Node2 -->
<g id="edge1_Node000001_Node000002" class="edge">
<title>Node1&#45;&gt;Node2</title>
<g id="a_edge1_Node000001_Node000002"><a xlink:title=" ">
<path fill="none" stroke="#63b8ff" d="M289.82,-223.59C286.08,-216.63 280.85,-206.89 276.23,-198.29"/>
<polygon fill="#63b8ff" stroke="#63b8ff" points="279.4,-196.79 271.58,-189.63 273.23,-200.1 279.4,-196.79"/>
</a>
</g>
</g>
<!-- Node3 -->
<g id="Node000003" class="node">
<title>Node3</title>
<g id="a_Node000003"><a xlink:href="../../d4/d51/a00017.html" target="_top" xlink:title="EtherCAT Slave Controller (ESC) header file.">
<polygon fill="white" stroke="#666666" points="187.88,-132 147.88,-132 147.88,-112 187.88,-112 187.88,-132"/>
<text text-anchor="middle" x="167.88" y="-118.5" font-family="Helvetica,sans-Serif" font-size="10.00">esc.h</text>
</a>
</g>
</g>
<!-- Node1&#45;&gt;Node3 -->
<g id="edge11_Node000001_Node000003" class="edge">
<title>Node1&#45;&gt;Node3</title>
<g id="a_edge11_Node000001_Node000003"><a xlink:title=" ">
<path fill="none" stroke="#63b8ff" d="M278.13,-223.52C263.84,-215.08 243.1,-201.92 226.88,-188 210.12,-173.62 193.44,-154.71 182.11,-140.99"/>
<polygon fill="#63b8ff" stroke="#63b8ff" points="184.85,-138.81 175.84,-133.24 179.41,-143.21 184.85,-138.81"/>
</a>
</g>
</g>
<!-- Node6 -->
<g id="Node000006" class="node">
<title>Node6</title>
<g id="a_Node000006"><a xlink:title=" ">
<polygon fill="#e0e0e0" stroke="#999999" points="238.25,-20 203.5,-20 203.5,0 238.25,0 238.25,-20"/>
<text text-anchor="middle" x="220.88" y="-6.5" font-family="Helvetica,sans-Serif" font-size="10.00">cc.h</text>
</a>
</g>
</g>
<!-- Node1&#45;&gt;Node6 -->
<g id="edge10_Node000001_Node000006" class="edge">
<title>Node1&#45;&gt;Node6</title>
<g id="a_edge10_Node000001_Node000006"><a xlink:title=" ">
<path fill="none" stroke="#63b8ff" d="M297.81,-223.81C300.52,-214.8 304.36,-200.62 305.88,-188 311.72,-139.44 288.56,-61.73 284.88,-56 276.12,-42.39 261.65,-31.7 248.68,-24.16"/>
<polygon fill="#63b8ff" stroke="#63b8ff" points="250.54,-21.19 240.07,-19.51 247.21,-27.34 250.54,-21.19"/>
</a>
</g>
</g>
<!-- Node9 -->
<g id="Node000009" class="node">
<title>Node9</title>
<g id="a_Node000009"><a xlink:title=" ">
<polygon fill="#e0e0e0" stroke="#999999" points="401,-188 352.75,-188 352.75,-168 401,-168 401,-188"/>
<text text-anchor="middle" x="376.88" y="-174.5" font-family="Helvetica,sans-Serif" font-size="10.00">string.h</text>
</a>
</g>
</g>
<!-- Node1&#45;&gt;Node9 -->
<g id="edge12_Node000001_Node000009" class="edge">
<title>Node1&#45;&gt;Node9</title>
<g id="a_edge12_Node000001_Node000009"><a xlink:title=" ">
<path fill="none" stroke="#63b8ff" d="M309.16,-223.59C321.31,-215.59 339.01,-203.93 353.27,-194.54"/>
<polygon fill="#63b8ff" stroke="#63b8ff" points="354.79,-197.73 361.22,-189.31 350.94,-191.89 354.79,-197.73"/>
</a>
</g>
</g>
<!-- Node2&#45;&gt;Node3 -->
<g id="edge2_Node000002_Node000003" class="edge">
<title>Node2&#45;&gt;Node3</title>
<g id="a_edge2_Node000002_Node000003"><a xlink:title=" ">
<path fill="none" stroke="#63b8ff" d="M248.8,-167.59C234,-159.44 212.31,-147.48 195.11,-138"/>
<polygon fill="#63b8ff" stroke="#63b8ff" points="196.85,-134.97 186.4,-133.21 193.47,-141.1 196.85,-134.97"/>
</a>
</g>
</g>
<!-- Node2&#45;&gt;Node6 -->
<g id="edge9_Node000002_Node000006" class="edge">
<title>Node2&#45;&gt;Node6</title>
<g id="a_edge9_Node000002_Node000006"><a xlink:title=" ">
<path fill="none" stroke="#63b8ff" d="M268.49,-167.71C273.87,-146.76 284.38,-94.64 267.88,-56 263.07,-44.74 253.91,-34.95 244.94,-27.4"/>
<polygon fill="#63b8ff" stroke="#63b8ff" points="247.11,-24.66 237.06,-21.31 242.83,-30.19 247.11,-24.66"/>
</a>
</g>
</g>
<!-- Node4 -->
<g id="Node000004" class="node">
<title>Node4</title>
<g id="a_Node000004"><a xlink:href="../../d5/df9/a00044.html" target="_top" xlink:title="Default options for the EtherCAT Slave Controller (ESC).">
<polygon fill="white" stroke="#666666" points="67.75,-76 12,-76 12,-56 67.75,-56 67.75,-76"/>
<text text-anchor="middle" x="39.88" y="-62.5" font-family="Helvetica,sans-Serif" font-size="10.00">options.h</text>
</a>
</g>
</g>
<!-- Node3&#45;&gt;Node4 -->
<g id="edge3_Node000003_Node000004" class="edge">
<title>Node3&#45;&gt;Node4</title>
<g id="a_edge3_Node000003_Node000004"><a xlink:title=" ">
<path fill="none" stroke="#63b8ff" d="M147.59,-112.44C127.51,-103.97 96.43,-90.86 72.8,-80.89"/>
<polygon fill="#63b8ff" stroke="#63b8ff" points="74.18,-77.67 63.61,-77.01 71.46,-84.12 74.18,-77.67"/>
</a>
</g>
</g>
<!-- Node3&#45;&gt;Node6 -->
<g id="edge5_Node000003_Node000006" class="edge">
<title>Node3&#45;&gt;Node6</title>
<g id="a_edge5_Node000003_Node000006"><a xlink:title=" ">
<path fill="none" stroke="#63b8ff" d="M150.39,-111.56C130.06,-99.31 100.97,-77.01 114.88,-56 131.93,-30.24 167.01,-19.18 192.15,-14.46"/>
<polygon fill="#63b8ff" stroke="#63b8ff" points="192.43,-17.96 201.74,-12.91 191.31,-11.05 192.43,-17.96"/>
</a>
</g>
</g>
<!-- Node7 -->
<g id="Node000007" class="node">
<title>Node7</title>
<g id="a_Node000007"><a xlink:href="../../d3/d52/a00023.html" target="_top" xlink:title="Definitions for EtherCAT Slave Controller (ESC) CoE (CANopen over EtherCAT) object dictionary.">
<polygon fill="white" stroke="#666666" points="185.38,-76 124.38,-76 124.38,-56 185.38,-56 185.38,-76"/>
<text text-anchor="middle" x="154.88" y="-62.5" font-family="Helvetica,sans-Serif" font-size="10.00">esc_coe.h</text>
</a>
</g>
</g>
<!-- Node3&#45;&gt;Node7 -->
<g id="edge6_Node000003_Node000007" class="edge">
<title>Node3&#45;&gt;Node7</title>
<g id="a_edge6_Node000003_Node000007"><a xlink:title=" ">
<path fill="none" stroke="#63b8ff" d="M165.61,-111.59C164.01,-104.93 161.8,-95.75 159.8,-87.44"/>
<polygon fill="#63b8ff" stroke="#63b8ff" points="163.21,-86.67 157.47,-77.77 156.41,-88.31 163.21,-86.67"/>
</a>
</g>
</g>
<!-- Node8 -->
<g id="Node000008" class="node">
<title>Node8</title>
<g id="a_Node000008"><a xlink:title=" ">
<polygon fill="#e0e0e0" stroke="#999999" points="258.75,-76 203,-76 203,-56 258.75,-56 258.75,-76"/>
<text text-anchor="middle" x="230.88" y="-62.5" font-family="Helvetica,sans-Serif" font-size="10.00">stdbool.h</text>
</a>
</g>
</g>
<!-- Node3&#45;&gt;Node8 -->
<g id="edge8_Node000003_Node000008" class="edge">
<title>Node3&#45;&gt;Node8</title>
<g id="a_edge8_Node000003_Node000008"><a xlink:title=" ">
<path fill="none" stroke="#63b8ff" d="M178.85,-111.59C187.79,-103.93 200.65,-92.91 211.34,-83.75"/>
<polygon fill="#63b8ff" stroke="#63b8ff" points="213.56,-86.45 218.88,-77.28 209.01,-81.13 213.56,-86.45"/>
</a>
</g>
</g>
<!-- Node5 -->
<g id="Node000005" class="node">
<title>Node5</title>
<g id="a_Node000005"><a xlink:title=" ">
<polygon fill="#e0e0e0" stroke="#999999" points="79.75,-20 0,-20 0,0 79.75,0 79.75,-20"/>
<text text-anchor="middle" x="39.88" y="-6.5" font-family="Helvetica,sans-Serif" font-size="10.00">ecat_options.h</text>
</a>
</g>
</g>
<!-- Node4&#45;&gt;Node5 -->
<g id="edge4_Node000004_Node000005" class="edge">
<title>Node4&#45;&gt;Node5</title>
<g id="a_edge4_Node000004_Node000005"><a xlink:title=" ">
<path fill="none" stroke="#63b8ff" d="M39.88,-55.59C39.88,-49.01 39.88,-39.96 39.88,-31.73"/>
<polygon fill="#63b8ff" stroke="#63b8ff" points="43.38,-31.81 39.88,-21.81 36.38,-31.81 43.38,-31.81"/>
</a>
</g>
</g>
<!-- Node7&#45;&gt;Node6 -->
<g id="edge7_Node000007_Node000006" class="edge">
<title>Node7&#45;&gt;Node6</title>
<g id="a_edge7_Node000007_Node000006"><a xlink:title=" ">
<path fill="none" stroke="#63b8ff" d="M166.37,-55.59C175.84,-47.85 189.48,-36.69 200.75,-27.47"/>
<polygon fill="#63b8ff" stroke="#63b8ff" points="202.82,-30.3 208.34,-21.26 198.38,-24.88 202.82,-30.3"/>
</a>
</g>
</g>
</g>
</svg>
