<?xml version="1.0" encoding="UTF-8" standalone="no"?>
<!DOCTYPE svg PUBLIC "-//W3C//DTD SVG 1.1//EN"
 "http://www.w3.org/Graphics/SVG/1.1/DTD/svg11.dtd">
<!-- Generated by graphviz version 13.1.0 (20250701.0955)
 -->
<!-- Title: ModelSystem::ProduceDate Pages: 1 -->
<svg width="130pt" height="143pt"
 viewBox="0.00 0.00 130.00 143.00" xmlns="http://www.w3.org/2000/svg" xmlns:xlink="http://www.w3.org/1999/xlink">
<g id="graph0" class="graph" transform="scale(1 1) rotate(0) translate(4 138.5)">
<title>ModelSystem::ProduceDate</title>
<!-- Node1 -->
<g id="Node000001" class="node">
<title>Node1</title>
<g id="a_Node000001"><a xlink:title="ProduceDate class for representing a production or sale date.">
<polygon fill="#999999" stroke="none" points="122,-134.5 0,-134.5 0,0 122,0 122,-134.5"/>
<text xml:space="preserve" text-anchor="start" x="4" y="-121.95" font-family="Arial" font-size="9.00">ModelSystem::ProduceDate</text>
<text xml:space="preserve" text-anchor="start" x="59.88" y="-107.45" font-family="Arial" font-size="9.00"> </text>
<text xml:space="preserve" text-anchor="start" x="9.75" y="-92.95" font-family="Arial" font-size="9.00">+</text>
<text xml:space="preserve" text-anchor="start" x="24.75" y="-92.95" font-family="Arial" font-size="9.00">ProduceDate()</text>
<text xml:space="preserve" text-anchor="start" x="9.75" y="-78.45" font-family="Arial" font-size="9.00">+</text>
<text xml:space="preserve" text-anchor="start" x="24.75" y="-78.45" font-family="Arial" font-size="9.00">~ProduceDate()</text>
<text xml:space="preserve" text-anchor="start" x="9.75" y="-63.95" font-family="Arial" font-size="9.00">+</text>
<text xml:space="preserve" text-anchor="start" x="24.75" y="-63.95" font-family="Arial" font-size="9.00">operator std::string()</text>
<text xml:space="preserve" text-anchor="start" x="9.75" y="-49.45" font-family="Arial" font-size="9.00">+</text>
<text xml:space="preserve" text-anchor="start" x="24.75" y="-49.45" font-family="Arial" font-size="9.00">getColor()</text>
<text xml:space="preserve" text-anchor="start" x="9.75" y="-34.95" font-family="Arial" font-size="9.00">+</text>
<text xml:space="preserve" text-anchor="start" x="24.75" y="-34.95" font-family="Arial" font-size="9.00">setDate()</text>
<text xml:space="preserve" text-anchor="start" x="9.75" y="-20.45" font-family="Arial" font-size="9.00">+</text>
<text xml:space="preserve" text-anchor="start" x="24.75" y="-20.45" font-family="Arial" font-size="9.00">isEmpty()</text>
<text xml:space="preserve" text-anchor="start" x="9.75" y="-5.95" font-family="Arial" font-size="9.00">+</text>
<text xml:space="preserve" text-anchor="start" x="24.75" y="-5.95" font-family="Arial" font-size="9.00">getStatupDate()</text>
<polygon fill="#666666" stroke="#666666" points="0,-118 0,-118 122,-118 122,-118 0,-118"/>
<polygon fill="#666666" stroke="#666666" points="0,-103.5 0,-103.5 122,-103.5 122,-103.5 0,-103.5"/>
<polygon fill="none" stroke="#666666" points="0,0 0,-134.5 122,-134.5 122,0 0,0"/>
</a>
</g>
</g>
</g>
</svg>
