<?xml version="1.0" encoding="UTF-8" standalone="no"?>
<!DOCTYPE svg PUBLIC "-//W3C//DTD SVG 1.1//EN"
 "http://www.w3.org/Graphics/SVG/1.1/DTD/svg11.dtd">
<!-- Generated by graphviz version 13.1.0 (20250701.0955)
 -->
<!-- Title: DMA.hpp Pages: 1 -->
<svg width="178pt" height="196pt"
 viewBox="0.00 0.00 178.00 196.00" xmlns="http://www.w3.org/2000/svg" xmlns:xlink="http://www.w3.org/1999/xlink">
<g id="graph0" class="graph" transform="scale(1 1) rotate(0) translate(4 192)">
<title>DMA.hpp</title>
<!-- Node1 -->
<g id="Node000001" class="node">
<title>Node1</title>
<g id="a_Node000001"><a xlink:title="I2C Master DMA Mode class.">
<polygon fill="#999999" stroke="#666666" points="111.38,-188 54.12,-188 54.12,-168 111.38,-168 111.38,-188"/>
<text xml:space="preserve" text-anchor="middle" x="82.75" y="-174.5" font-family="Helvetica,sans-Serif" font-size="10.00">DMA.hpp</text>
</a>
</g>
</g>
<!-- Node2 -->
<g id="Node000002" class="node">
<title>Node2</title>
<g id="a_Node000002"><a xlink:href="../../d0/dc4/a00443.html" target="_top" xlink:title="I2C port interface header.">
<polygon fill="white" stroke="#666666" points="108,-132 57.5,-132 57.5,-112 108,-112 108,-132"/>
<text xml:space="preserve" text-anchor="middle" x="82.75" y="-118.5" font-family="Helvetica,sans-Serif" font-size="10.00">I2C.hpp</text>
</a>
</g>
</g>
<!-- Node1&#45;&gt;Node2 -->
<g id="edge1_Node000001_Node000002" class="edge">
<title>Node1&#45;&gt;Node2</title>
<g id="a_edge1_Node000001_Node000002"><a xlink:title=" ">
<path fill="none" stroke="#63b8ff" d="M82.75,-156.13C82.75,-147.9 82.75,-138.85 82.75,-132.3"/>
<polygon fill="#63b8ff" stroke="#63b8ff" points="79.25,-156.08 82.75,-166.08 86.25,-156.08 79.25,-156.08"/>
</a>
</g>
</g>
<!-- Node3 -->
<g id="Node000003" class="node">
<title>Node3</title>
<g id="a_Node000003"><a xlink:href="../../d5/d95/a02267.html" target="_top" xlink:title="Base class for I2C EEPROM drivers.">
<polygon fill="white" stroke="#666666" points="124.5,-76 41,-76 41,-56 124.5,-56 124.5,-76"/>
<text xml:space="preserve" text-anchor="middle" x="82.75" y="-62.5" font-family="Helvetica,sans-Serif" font-size="10.00">DriverBase.hpp</text>
</a>
</g>
</g>
<!-- Node2&#45;&gt;Node3 -->
<g id="edge2_Node000002_Node000003" class="edge">
<title>Node2&#45;&gt;Node3</title>
<g id="a_edge2_Node000002_Node000003"><a xlink:title=" ">
<path fill="none" stroke="#63b8ff" d="M82.75,-100.13C82.75,-91.9 82.75,-82.85 82.75,-76.3"/>
<polygon fill="#63b8ff" stroke="#63b8ff" points="79.25,-100.08 82.75,-110.08 86.25,-100.08 79.25,-100.08"/>
</a>
</g>
</g>
<!-- Node4 -->
<g id="Node000004" class="node">
<title>Node4</title>
<g id="a_Node000004"><a xlink:href="../../dc/d5d/a00278.html" target="_top" xlink:title="Driver for the M24C16 I2C EEPROM.">
<polygon fill="white" stroke="#666666" points="71.5,-20 0,-20 0,0 71.5,0 71.5,-20"/>
<text xml:space="preserve" text-anchor="middle" x="35.75" y="-6.5" font-family="Helvetica,sans-Serif" font-size="10.00">M24C16.hpp</text>
</a>
</g>
</g>
<!-- Node3&#45;&gt;Node4 -->
<g id="edge3_Node000003_Node000004" class="edge">
<title>Node3&#45;&gt;Node4</title>
<g id="a_edge3_Node000003_Node000004"><a xlink:title=" ">
<path fill="none" stroke="#63b8ff" d="M67.09,-47C59.3,-38.06 50.22,-27.62 43.84,-20.3"/>
<polygon fill="#63b8ff" stroke="#63b8ff" points="64.36,-49.21 73.57,-54.45 69.64,-44.61 64.36,-49.21"/>
</a>
</g>
</g>
<!-- Node5 -->
<g id="Node000005" class="node">
<title>Node5</title>
<g id="a_Node000005"><a xlink:href="../../d3/d27/a02453.html" target="_top" xlink:title="Driver for the M24C64W 64&#45;Kbit serial I2C EEPROM.">
<polygon fill="white" stroke="#666666" points="170,-20 89.5,-20 89.5,0 170,0 170,-20"/>
<text xml:space="preserve" text-anchor="middle" x="129.75" y="-6.5" font-family="Helvetica,sans-Serif" font-size="10.00">M24C64W.hpp</text>
</a>
</g>
</g>
<!-- Node3&#45;&gt;Node5 -->
<g id="edge4_Node000003_Node000005" class="edge">
<title>Node3&#45;&gt;Node5</title>
<g id="a_edge4_Node000003_Node000005"><a xlink:title=" ">
<path fill="none" stroke="#63b8ff" d="M98.41,-47C106.2,-38.06 115.28,-27.62 121.66,-20.3"/>
<polygon fill="#63b8ff" stroke="#63b8ff" points="95.86,-44.61 91.93,-54.45 101.14,-49.21 95.86,-44.61"/>
</a>
</g>
</g>
</g>
</svg>
