<?xml version="1.0" encoding="UTF-8" standalone="no"?>
<!DOCTYPE svg PUBLIC "-//W3C//DTD SVG 1.1//EN"
 "http://www.w3.org/Graphics/SVG/1.1/DTD/svg11.dtd">
<!-- Generated by graphviz version 12.2.1 (20241206.2353)
 -->
<!-- Title: QueueMessage.hpp Pages: 1 -->
<svg width="262pt" height="84pt"
 viewBox="0.00 0.00 262.38 84.00" xmlns="http://www.w3.org/2000/svg" xmlns:xlink="http://www.w3.org/1999/xlink">
<g id="graph0" class="graph" transform="scale(1 1) rotate(0) translate(4 80)">
<title>QueueMessage.hpp</title>
<!-- Node1 -->
<g id="Node000001" class="node">
<title>Node1</title>
<g id="a_Node000001"><a xlink:title="Defines the QueueMessage class used in the Lib::Xbee::Core namespace.">
<polygon fill="#999999" stroke="#666666" points="175.88,-76 72.88,-76 72.88,-56 175.88,-56 175.88,-76"/>
<text text-anchor="middle" x="124.38" y="-62.5" font-family="Helvetica,sans-Serif" font-size="10.00">QueueMessage.hpp</text>
</a>
</g>
</g>
<!-- Node2 -->
<g id="Node000002" class="node">
<title>Node2</title>
<g id="a_Node000002"><a xlink:href="../../d3/df8/a00155.html" target="_top" xlink:title="This file contains the definition of the LocalAtCommand class, which is used to send and receive AT c...">
<polygon fill="white" stroke="#666666" points="112.75,-20 0,-20 0,0 112.75,0 112.75,-20"/>
<text text-anchor="middle" x="56.38" y="-6.5" font-family="Helvetica,sans-Serif" font-size="10.00">LocalAtCommand.hpp</text>
</a>
</g>
</g>
<!-- Node1&#45;&gt;Node2 -->
<g id="edge1_Node000001_Node000002" class="edge">
<title>Node1&#45;&gt;Node2</title>
<g id="a_edge1_Node000001_Node000002"><a xlink:title=" ">
<path fill="none" stroke="#63b8ff" d="M103.82,-48.68C92.12,-39.39 77.89,-28.09 68.08,-20.3"/>
<polygon fill="#63b8ff" stroke="#63b8ff" points="101.34,-51.17 111.35,-54.65 105.69,-45.69 101.34,-51.17"/>
</a>
</g>
</g>
<!-- Node3 -->
<g id="Node000003" class="node">
<title>Node3</title>
<g id="a_Node000003"><a xlink:href="../../d9/dd0/a00191.html" target="_top" xlink:title="This file contains the definition of the RemoteAtCommand class, which is used to send and receive rem...">
<polygon fill="white" stroke="#666666" points="254.38,-20 130.38,-20 130.38,0 254.38,0 254.38,-20"/>
<text text-anchor="middle" x="192.38" y="-6.5" font-family="Helvetica,sans-Serif" font-size="10.00">RemoteAtCommand.hpp</text>
</a>
</g>
</g>
<!-- Node1&#45;&gt;Node3 -->
<g id="edge2_Node000001_Node000003" class="edge">
<title>Node1&#45;&gt;Node3</title>
<g id="a_edge2_Node000001_Node000003"><a xlink:title=" ">
<path fill="none" stroke="#63b8ff" d="M144.93,-48.68C156.63,-39.39 170.86,-28.09 180.67,-20.3"/>
<polygon fill="#63b8ff" stroke="#63b8ff" points="143.06,-45.69 137.4,-54.65 147.41,-51.17 143.06,-45.69"/>
</a>
</g>
</g>
</g>
</svg>
