<?xml version="1.0" encoding="UTF-8" standalone="no"?>
<!DOCTYPE svg PUBLIC "-//W3C//DTD SVG 1.1//EN"
 "http://www.w3.org/Graphics/SVG/1.1/DTD/svg11.dtd">
<!-- Generated by graphviz version 13.1.0 (20250701.0955)
 -->
<!-- Title: Lib::Xbee::Core::QueryBase Pages: 1 -->
<svg width="735pt" height="84pt"
 viewBox="0.00 0.00 735.00 84.00" xmlns="http://www.w3.org/2000/svg" xmlns:xlink="http://www.w3.org/1999/xlink">
<g id="graph0" class="graph" transform="scale(1 1) rotate(0) translate(4 80)">
<title>Lib::Xbee::Core::QueryBase</title>
<!-- Node1 -->
<g id="Node000001" class="node">
<title>Node1</title>
<g id="a_Node000001"><a xlink:title="Abstract base class for Xbee send requests.">
<polygon fill="#999999" stroke="none" points="429,-76 298,-76 298,-56 429,-56 429,-76"/>
<text xml:space="preserve" text-anchor="start" x="302" y="-62.5" font-family="Helvetica,sans-Serif" font-size="10.00">Lib::Xbee::Core::QueryBase</text>
<polygon fill="none" stroke="#666666" points="298,-56 298,-76 429,-76 429,-56 298,-56"/>
</a>
</g>
</g>
<!-- Node2 -->
<g id="Node000002" class="node">
<title>Node2</title>
<g id="a_Node000002"><a xlink:href="../../d2/dbd/class_lib_1_1_xbee_1_1_core_1_1_frame0x00.html" target="_top" xlink:title="Frame0x00 query builder for Xbee TX Request (64&#45;bit address) frames.">
<polygon fill="white" stroke="none" points="131,-20 0,-20 0,0 131,0 131,-20"/>
<text xml:space="preserve" text-anchor="start" x="4" y="-6.5" font-family="Helvetica,sans-Serif" font-size="10.00">Lib::Xbee::Core::Frame0x00</text>
<polygon fill="none" stroke="#666666" points="0,0 0,-20 131,-20 131,0 0,0"/>
</a>
</g>
</g>
<!-- Node1&#45;&gt;Node2 -->
<g id="edge1_Node000001_Node000002" class="edge">
<title>Node1&#45;&gt;Node2</title>
<g id="a_edge1_Node000001_Node000002"><a xlink:title=" ">
<path fill="none" stroke="#63b8ff" d="M302.9,-54.02C247.57,-43.99 166.77,-29.35 115.16,-20"/>
<polygon fill="none" stroke="#63b8ff" points="302,-57.41 312.47,-55.75 303.25,-50.53 302,-57.41"/>
</a>
</g>
</g>
<!-- Node3 -->
<g id="Node000003" class="node">
<title>Node3</title>
<g id="a_Node000003"><a xlink:href="../../d6/df5/class_lib_1_1_xbee_1_1_core_1_1_frame0x01.html" target="_top" xlink:title="Frame0x01 query for XBee TX Request (16&#45;bit address).">
<polygon fill="white" stroke="none" points="280,-20 149,-20 149,0 280,0 280,-20"/>
<text xml:space="preserve" text-anchor="start" x="153" y="-6.5" font-family="Helvetica,sans-Serif" font-size="10.00">Lib::Xbee::Core::Frame0x01</text>
<polygon fill="none" stroke="#666666" points="149,0 149,-20 280,-20 280,0 149,0"/>
</a>
</g>
</g>
<!-- Node1&#45;&gt;Node3 -->
<g id="edge2_Node000001_Node000003" class="edge">
<title>Node1&#45;&gt;Node3</title>
<g id="a_edge2_Node000001_Node000003"><a xlink:title=" ">
<path fill="none" stroke="#63b8ff" d="M328.18,-52.2C300.75,-42.26 263.42,-28.73 239.14,-19.93"/>
<polygon fill="none" stroke="#63b8ff" points="326.88,-55.45 337.47,-55.57 329.26,-48.87 326.88,-55.45"/>
</a>
</g>
</g>
<!-- Node4 -->
<g id="Node000004" class="node">
<title>Node4</title>
<g id="a_Node000004"><a xlink:href="../../d8/d19/class_lib_1_1_xbee_1_1_core_1_1_frame0x08.html" target="_top" xlink:title="Local AT Command Request frame (0x08) for Xbee API.">
<polygon fill="white" stroke="none" points="429,-20 298,-20 298,0 429,0 429,-20"/>
<text xml:space="preserve" text-anchor="start" x="302" y="-6.5" font-family="Helvetica,sans-Serif" font-size="10.00">Lib::Xbee::Core::Frame0x08</text>
<polygon fill="none" stroke="#666666" points="298,0 298,-20 429,-20 429,0 298,0"/>
</a>
</g>
</g>
<!-- Node1&#45;&gt;Node4 -->
<g id="edge3_Node000001_Node000004" class="edge">
<title>Node1&#45;&gt;Node4</title>
<g id="a_edge3_Node000001_Node000004"><a xlink:title=" ">
<path fill="none" stroke="#63b8ff" d="M363.5,-44.61C363.5,-36.02 363.5,-26.47 363.5,-19.75"/>
<polygon fill="none" stroke="#63b8ff" points="360,-44.57 363.5,-54.57 367,-44.57 360,-44.57"/>
</a>
</g>
</g>
<!-- Node5 -->
<g id="Node000005" class="node">
<title>Node5</title>
<g id="a_Node000005"><a xlink:href="../../de/d19/class_lib_1_1_xbee_1_1_core_1_1_frame0x09.html" target="_top" xlink:title="Queue Local AT Command Request frame (0x09) for Xbee API.">
<polygon fill="white" stroke="none" points="578,-20 447,-20 447,0 578,0 578,-20"/>
<text xml:space="preserve" text-anchor="start" x="451" y="-6.5" font-family="Helvetica,sans-Serif" font-size="10.00">Lib::Xbee::Core::Frame0x09</text>
<polygon fill="none" stroke="#666666" points="447,0 447,-20 578,-20 578,0 447,0"/>
</a>
</g>
</g>
<!-- Node1&#45;&gt;Node5 -->
<g id="edge4_Node000001_Node000005" class="edge">
<title>Node1&#45;&gt;Node5</title>
<g id="a_edge4_Node000001_Node000005"><a xlink:title=" ">
<path fill="none" stroke="#63b8ff" d="M398.82,-52.2C426.25,-42.26 463.58,-28.73 487.86,-19.93"/>
<polygon fill="none" stroke="#63b8ff" points="397.74,-48.87 389.53,-55.57 400.12,-55.45 397.74,-48.87"/>
</a>
</g>
</g>
<!-- Node6 -->
<g id="Node000006" class="node">
<title>Node6</title>
<g id="a_Node000006"><a xlink:href="../../d4/dfb/class_lib_1_1_xbee_1_1_core_1_1_frame0x17.html" target="_top" xlink:title="Remote AT Command Request frame (0x17) for Xbee API.">
<polygon fill="white" stroke="none" points="727,-20 596,-20 596,0 727,0 727,-20"/>
<text xml:space="preserve" text-anchor="start" x="600" y="-6.5" font-family="Helvetica,sans-Serif" font-size="10.00">Lib::Xbee::Core::Frame0x17</text>
<polygon fill="none" stroke="#666666" points="596,0 596,-20 727,-20 727,0 596,0"/>
</a>
</g>
</g>
<!-- Node1&#45;&gt;Node6 -->
<g id="edge5_Node000001_Node000006" class="edge">
<title>Node1&#45;&gt;Node6</title>
<g id="a_edge5_Node000001_Node000006"><a xlink:title=" ">
<path fill="none" stroke="#63b8ff" d="M424.1,-54.02C479.43,-43.99 560.23,-29.35 611.84,-20"/>
<polygon fill="none" stroke="#63b8ff" points="423.75,-50.53 414.53,-55.75 425,-57.41 423.75,-50.53"/>
</a>
</g>
</g>
</g>
</svg>
