<?xml version="1.0" encoding="UTF-8" standalone="no"?>
<!DOCTYPE svg PUBLIC "-//W3C//DTD SVG 1.1//EN"
 "http://www.w3.org/Graphics/SVG/1.1/DTD/svg11.dtd">
<!-- Generated by graphviz version 13.1.0 (20250701.0955)
 -->
<!-- Title: HAL::RTClock Pages: 1 -->
<svg width="146pt" height="164pt"
 viewBox="0.00 0.00 146.00 164.00" xmlns="http://www.w3.org/2000/svg" xmlns:xlink="http://www.w3.org/1999/xlink">
<g id="graph0" class="graph" transform="scale(1 1) rotate(0) translate(4 159.5)">
<title>HAL::RTClock</title>
<!-- Node1 -->
<g id="Node000001" class="node">
<title>Node1</title>
<g id="a_Node000001"><a xlink:title="RTClock singleton class for STM32 HAL RTC access.">
<polygon fill="#999999" stroke="none" points="90.5,-18.5 25.5,-18.5 25.5,0 90.5,0 90.5,-18.5"/>
<text xml:space="preserve" text-anchor="start" x="29.5" y="-5.95" font-family="Arial" font-size="9.00">HAL::RTClock</text>
<polygon fill="none" stroke="#666666" points="25.5,0 25.5,-18.5 90.5,-18.5 90.5,0 25.5,0"/>
</a>
</g>
</g>
<!-- Node2 -->
<g id="Node000002" class="node">
<title>Node2</title>
<g id="a_Node000002"><a xlink:href="../../d7/dae/a01615.html" target="_top" xlink:title="RTClock class.">
<polygon fill="white" stroke="none" points="99.12,-74 16.88,-74 16.88,-55.5 99.12,-55.5 99.12,-74"/>
<text xml:space="preserve" text-anchor="start" x="20.88" y="-61.45" font-family="Arial" font-size="9.00">Lib::HAL::RTClock</text>
<polygon fill="none" stroke="#666666" points="16.88,-55.5 16.88,-74 99.12,-74 99.12,-55.5 16.88,-55.5"/>
</a>
</g>
</g>
<!-- Node2&#45;&gt;Node1 -->
<g id="edge1_Node000001_Node000002" class="edge">
<title>Node2&#45;&gt;Node1</title>
<g id="a_edge1_Node000001_Node000002"><a xlink:title=" ">
<path fill="none" stroke="#63b8ff" d="M58,-44.36C58,-35.32 58,-25.06 58,-18.18"/>
<polygon fill="none" stroke="#63b8ff" points="54.5,-44.34 58,-54.34 61.5,-44.34 54.5,-44.34"/>
</a>
</g>
</g>
<!-- Node3 -->
<g id="Node000003" class="node">
<title>Node3</title>
<g id="a_Node000003"><a xlink:title=" ">
<polygon fill="white" stroke="none" points="116,-155.5 0,-155.5 0,-126.5 116,-126.5 116,-155.5"/>
<text xml:space="preserve" text-anchor="start" x="4" y="-142.95" font-family="Arial" font-size="9.00">function&lt; void(const</text>
<text xml:space="preserve" text-anchor="start" x="4" y="-132.45" font-family="Arial" font-size="9.00"> Lib::Helper::DateTime &amp;)&gt;</text>
<polygon fill="none" stroke="#bfbfbf" points="0,-126.5 0,-155.5 116,-155.5 116,-126.5 0,-126.5"/>
</a>
</g>
</g>
<!-- Node3&#45;&gt;Node2 -->
<g id="edge2_Node000002_Node000003" class="edge">
<title>Node3&#45;&gt;Node2</title>
<g id="a_edge2_Node000002_Node000003"><a xlink:title=" ">
<path fill="none" stroke="#63b8ff" d="M58,-126.73C58,-115.57 58,-99.44 58,-86.57"/>
<polygon fill="none" stroke="#63b8ff" points="58,-86.77 54,-80.77 58,-74.77 62,-80.77 58,-86.77"/>
</a>
</g>
<text xml:space="preserve" text-anchor="start" x="61" y="-96.95" font-family="Arial" font-size="9.00" fill="grey">+onTimeChanged</text>
</g>
</g>
</svg>
