<?xml version="1.0" encoding="UTF-8" standalone="no"?>
<!DOCTYPE svg PUBLIC "-//W3C//DTD SVG 1.1//EN"
 "http://www.w3.org/Graphics/SVG/1.1/DTD/svg11.dtd">
<!-- Generated by graphviz version 13.1.0 (20250701.0955)
 -->
<!-- Title: Lib::Xbee::Core::ComDriver::Config Pages: 1 -->
<svg width="129pt" height="295pt"
 viewBox="0.00 0.00 129.00 295.00" xmlns="http://www.w3.org/2000/svg" xmlns:xlink="http://www.w3.org/1999/xlink">
<g id="graph0" class="graph" transform="scale(1 1) rotate(0) translate(4 291)">
<title>Lib::Xbee::Core::ComDriver::Config</title>
<!-- Node1 -->
<g id="Node000001" class="node">
<title>Node1</title>
<g id="a_Node000001"><a xlink:title="Driver configuration structure.">
<polygon fill="#999999" stroke="none" points="120.5,-93.5 0,-93.5 0,0 120.5,0 120.5,-93.5"/>
<text xml:space="preserve" text-anchor="start" x="4" y="-80.95" font-family="Arial" font-size="9.00">Lib::Xbee::Core::ComDriver</text>
<text xml:space="preserve" text-anchor="start" x="44.5" y="-70.45" font-family="Arial" font-size="9.00">::Config</text>
<text xml:space="preserve" text-anchor="start" x="6.38" y="-55.95" font-family="Arial" font-size="9.00">+</text>
<text xml:space="preserve" text-anchor="start" x="18" y="-55.95" font-family="Arial" font-size="9.00">UART_HandleTypeDef</text>
<text xml:space="preserve" text-anchor="start" x="18" y="-45.45" font-family="Arial" font-size="9.00"> * rxHandle</text>
<text xml:space="preserve" text-anchor="start" x="6.38" y="-30.95" font-family="Arial" font-size="9.00">+</text>
<text xml:space="preserve" text-anchor="start" x="18" y="-30.95" font-family="Arial" font-size="9.00">UART_HandleTypeDef</text>
<text xml:space="preserve" text-anchor="start" x="18" y="-20.45" font-family="Arial" font-size="9.00"> * txHandle</text>
<text xml:space="preserve" text-anchor="start" x="59.12" y="-5.95" font-family="Arial" font-size="9.00"> </text>
<polygon fill="#666666" stroke="#666666" points="0,-66.5 0,-66.5 120.5,-66.5 120.5,-66.5 0,-66.5"/>
<polygon fill="#666666" stroke="#666666" points="0,-16.5 0,-16.5 16,-16.5 16,-16.5 0,-16.5"/>
<polygon fill="#666666" stroke="#666666" points="16,-16.5 16,-16.5 120.5,-16.5 120.5,-16.5 16,-16.5"/>
<polygon fill="none" stroke="#666666" points="0,0 0,-93.5 120.5,-93.5 120.5,0 0,0"/>
</a>
</g>
</g>
<!-- Node2 -->
<g id="Node000002" class="node">
<title>Node2</title>
<g id="a_Node000002"><a xlink:href="../../d3/d9a/class_lib_1_1_h_a_l_1_1_g_p_i_o_1_1_handle.html" target="_top" xlink:title="GPIO pin handle abstraction.">
<polygon fill="white" stroke="none" points="116.88,-287 3.62,-287 3.62,-160.5 116.88,-160.5 116.88,-287"/>
<text xml:space="preserve" text-anchor="start" x="12.25" y="-274.45" font-family="Arial" font-size="9.00">Lib::HAL::GPIO::Handle</text>
<text xml:space="preserve" text-anchor="start" x="7.62" y="-259.95" font-family="Arial" font-size="9.00">+</text>
<text xml:space="preserve" text-anchor="start" x="16.88" y="-259.95" font-family="Arial" font-size="9.00">GPIO_TypeDef * port</text>
<text xml:space="preserve" text-anchor="start" x="7.62" y="-245.45" font-family="Arial" font-size="9.00">+</text>
<text xml:space="preserve" text-anchor="start" x="16.88" y="-245.45" font-family="Arial" font-size="9.00">uint16_t number</text>
<text xml:space="preserve" text-anchor="start" x="7.62" y="-230.95" font-family="Arial" font-size="9.00">+</text>
<text xml:space="preserve" text-anchor="start" x="16.88" y="-230.95" font-family="Arial" font-size="9.00">Handle()=default</text>
<text xml:space="preserve" text-anchor="start" x="7.62" y="-216.45" font-family="Arial" font-size="9.00">+</text>
<text xml:space="preserve" text-anchor="start" x="16.88" y="-216.45" font-family="Arial" font-size="9.00">Handle(GPIO_TypeDef</text>
<text xml:space="preserve" text-anchor="start" x="16.88" y="-205.95" font-family="Arial" font-size="9.00"> *port, uint16_t number)</text>
<text xml:space="preserve" text-anchor="start" x="7.62" y="-191.45" font-family="Arial" font-size="9.00">+</text>
<text xml:space="preserve" text-anchor="start" x="16.88" y="-191.45" font-family="Arial" font-size="9.00">~Handle()=default</text>
<text xml:space="preserve" text-anchor="start" x="7.62" y="-176.95" font-family="Arial" font-size="9.00">+</text>
<text xml:space="preserve" text-anchor="start" x="16.88" y="-176.95" font-family="Arial" font-size="9.00">bool operator==(const</text>
<text xml:space="preserve" text-anchor="start" x="16.88" y="-166.45" font-family="Arial" font-size="9.00"> Handle &amp;other) const</text>
<polygon fill="#666666" stroke="#666666" points="3.62,-270.5 3.62,-270.5 116.88,-270.5 116.88,-270.5 3.62,-270.5"/>
<polygon fill="#666666" stroke="#666666" points="3.62,-241.5 3.62,-241.5 14.88,-241.5 14.88,-241.5 3.62,-241.5"/>
<polygon fill="#666666" stroke="#666666" points="14.88,-241.5 14.88,-241.5 116.88,-241.5 116.88,-241.5 14.88,-241.5"/>
<polygon fill="none" stroke="#666666" points="3.62,-160.5 3.62,-287 116.88,-287 116.88,-160.5 3.62,-160.5"/>
</a>
</g>
</g>
<!-- Node2&#45;&gt;Node1 -->
<g id="edge1_Node000001_Node000002" class="edge">
<title>Node2&#45;&gt;Node1</title>
<g id="a_edge1_Node000001_Node000002"><a xlink:title=" ">
<path fill="none" stroke="#63b8ff" d="M60.25,-160.56C60.25,-142.87 60.25,-123.66 60.25,-106.2"/>
<polygon fill="none" stroke="#63b8ff" points="60.25,-106.14 56.25,-100.14 60.25,-94.14 64.25,-100.14 60.25,-106.14"/>
</a>
</g>
<text xml:space="preserve" text-anchor="start" x="63.25" y="-130.95" font-family="Arial" font-size="9.00" fill="grey">+resetPin</text>
<text xml:space="preserve" text-anchor="start" x="63.25" y="-116.45" font-family="Arial" font-size="9.00" fill="grey">+xrst</text>
</g>
</g>
</svg>
