<?xml version="1.0" encoding="UTF-8" standalone="no"?>
<!DOCTYPE svg PUBLIC "-//W3C//DTD SVG 1.1//EN"
 "http://www.w3.org/Graphics/SVG/1.1/DTD/svg11.dtd">
<!-- Generated by graphviz version 10.0.1 (20240210.2158)
 -->
<!-- Title: Frame0x08.hpp Pages: 1 -->
<svg width="365pt" height="152pt"
 viewBox="0.00 0.00 364.75 152.00" xmlns="http://www.w3.org/2000/svg" xmlns:xlink="http://www.w3.org/1999/xlink">
<g id="graph0" class="graph" transform="scale(1 1) rotate(0) translate(4 148)">
<title>Frame0x08.hpp</title>
<!-- Node1 -->
<g id="Node000001" class="node">
<title>Node1</title>
<g id="a_Node000001"><a xlink:title="Defines the Frame0x08 class for handling Local AT Command Request frames.">
<polygon fill="#999999" stroke="#666666" points="157.12,-144 73.62,-144 73.62,-124 157.12,-124 157.12,-144"/>
<text text-anchor="middle" x="115.38" y="-130.5" font-family="Helvetica,sans-Serif" font-size="10.00">Frame0x08.hpp</text>
</a>
</g>
</g>
<!-- Node2 -->
<g id="Node000002" class="node">
<title>Node2</title>
<g id="a_Node000002"><a xlink:title=" ">
<polygon fill="#e0e0e0" stroke="#999999" points="106.75,-32 0,-32 0,0 106.75,0 106.75,-32"/>
<text text-anchor="start" x="8" y="-18.5" font-family="Helvetica,sans-Serif" font-size="10.00">Lib/Xbee/Core/Frame</text>
<text text-anchor="middle" x="53.38" y="-6.5" font-family="Helvetica,sans-Serif" font-size="10.00">/Data.hpp</text>
</a>
</g>
</g>
<!-- Node1&#45;&gt;Node2 -->
<g id="edge1_Node000001_Node000002" class="edge">
<title>Node1&#45;&gt;Node2</title>
<g id="a_edge1_Node000001_Node000002"><a xlink:title=" ">
<path fill="none" stroke="#63b8ff" d="M110.3,-123.51C100.94,-105.99 80.66,-68.04 67.01,-42.5"/>
<polygon fill="#63b8ff" stroke="#63b8ff" points="70.13,-40.92 62.33,-33.75 63.95,-44.22 70.13,-40.92"/>
</a>
</g>
</g>
<!-- Node3 -->
<g id="Node000003" class="node">
<title>Node3</title>
<g id="a_Node000003"><a xlink:href="../../da/d15/a00188.html" target="_top" xlink:title="Defines the base class for all query types in the Xbee library.">
<polygon fill="white" stroke="#666666" points="206.12,-88 122.62,-88 122.62,-68 206.12,-68 206.12,-88"/>
<text text-anchor="middle" x="164.38" y="-74.5" font-family="Helvetica,sans-Serif" font-size="10.00">QueryBase.hpp</text>
</a>
</g>
</g>
<!-- Node1&#45;&gt;Node3 -->
<g id="edge2_Node000001_Node000003" class="edge">
<title>Node1&#45;&gt;Node3</title>
<g id="a_edge2_Node000001_Node000003"><a xlink:title=" ">
<path fill="none" stroke="#63b8ff" d="M123.91,-123.59C130.66,-116.16 140.26,-105.58 148.42,-96.58"/>
<polygon fill="#63b8ff" stroke="#63b8ff" points="150.79,-99.18 154.92,-89.42 145.61,-94.47 150.79,-99.18"/>
</a>
</g>
</g>
<!-- Node3&#45;&gt;Node2 -->
<g id="edge3_Node000003_Node000002" class="edge">
<title>Node3&#45;&gt;Node2</title>
<g id="a_edge3_Node000003_Node000002"><a xlink:title=" ">
<path fill="none" stroke="#63b8ff" d="M147.03,-67.62C132.32,-59.67 110.67,-47.97 91.89,-37.82"/>
<polygon fill="#63b8ff" stroke="#63b8ff" points="93.61,-34.77 83.15,-33.09 90.28,-40.93 93.61,-34.77"/>
</a>
</g>
</g>
<!-- Node4 -->
<g id="Node000004" class="node">
<title>Node4</title>
<g id="a_Node000004"><a xlink:title=" ">
<polygon fill="#e0e0e0" stroke="#999999" points="231.75,-32 125,-32 125,0 231.75,0 231.75,-32"/>
<text text-anchor="start" x="133" y="-18.5" font-family="Helvetica,sans-Serif" font-size="10.00">Lib/Xbee/Core/Frame</text>
<text text-anchor="middle" x="178.38" y="-6.5" font-family="Helvetica,sans-Serif" font-size="10.00">/Helper.hpp</text>
</a>
</g>
</g>
<!-- Node3&#45;&gt;Node4 -->
<g id="edge4_Node000003_Node000004" class="edge">
<title>Node3&#45;&gt;Node4</title>
<g id="a_edge4_Node000003_Node000004"><a xlink:title=" ">
<path fill="none" stroke="#63b8ff" d="M166.56,-67.62C168.1,-61.02 170.24,-51.84 172.28,-43.11"/>
<polygon fill="#63b8ff" stroke="#63b8ff" points="175.63,-44.15 174.5,-33.61 168.82,-42.56 175.63,-44.15"/>
</a>
</g>
</g>
<!-- Node5 -->
<g id="Node000005" class="node">
<title>Node5</title>
<g id="a_Node000005"><a xlink:title=" ">
<polygon fill="#e0e0e0" stroke="#999999" points="356.75,-32 250,-32 250,0 356.75,0 356.75,-32"/>
<text text-anchor="start" x="258" y="-18.5" font-family="Helvetica,sans-Serif" font-size="10.00">Lib/Xbee/Core/Frame</text>
<text text-anchor="middle" x="303.38" y="-6.5" font-family="Helvetica,sans-Serif" font-size="10.00">/Type.hpp</text>
</a>
</g>
</g>
<!-- Node3&#45;&gt;Node5 -->
<g id="edge5_Node000003_Node000005" class="edge">
<title>Node3&#45;&gt;Node5</title>
<g id="a_edge5_Node000003_Node000005"><a xlink:title=" ">
<path fill="none" stroke="#63b8ff" d="M186.09,-67.62C205.05,-59.44 233.2,-47.29 257.17,-36.95"/>
<polygon fill="#63b8ff" stroke="#63b8ff" points="258.31,-40.27 266.1,-33.09 255.53,-33.84 258.31,-40.27"/>
</a>
</g>
</g>
</g>
</svg>
