<?xml version="1.0" encoding="UTF-8" standalone="no"?>
<!DOCTYPE svg PUBLIC "-//W3C//DTD SVG 1.1//EN"
 "http://www.w3.org/Graphics/SVG/1.1/DTD/svg11.dtd">
<!-- Generated by graphviz version 13.1.0 (20250701.0955)
 -->
<!-- Title: Lib::Xbee::API::NodeInfo::Discovery Pages: 1 -->
<svg width="116pt" height="108pt"
 viewBox="0.00 0.00 116.00 108.00" xmlns="http://www.w3.org/2000/svg" xmlns:xlink="http://www.w3.org/1999/xlink">
<g id="graph0" class="graph" transform="scale(1 1) rotate(0) translate(4 104)">
<title>Lib::Xbee::API::NodeInfo::Discovery</title>
<!-- Node1 -->
<g id="Node000001" class="node">
<title>Node1</title>
<g id="a_Node000001"><a xlink:title="Node identifier string.">
<polygon fill="#999999" stroke="none" points="107.75,-29 0,-29 0,0 107.75,0 107.75,-29"/>
<text xml:space="preserve" text-anchor="start" x="4" y="-16.45" font-family="Arial" font-size="9.00">Lib::Xbee::API::NodeInfo</text>
<text xml:space="preserve" text-anchor="start" x="31.38" y="-5.95" font-family="Arial" font-size="9.00">::Discovery</text>
<polygon fill="none" stroke="#666666" points="0,0 0,-29 107.75,-29 107.75,0 0,0"/>
</a>
</g>
</g>
<!-- Node2 -->
<g id="Node000002" class="node">
<title>Node2</title>
<g id="a_Node000002"><a xlink:title=" ">
<polygon fill="white" stroke="none" points="69.12,-100 38.62,-100 38.62,-81.5 69.12,-81.5 69.12,-100"/>
<text xml:space="preserve" text-anchor="start" x="42.62" y="-87.45" font-family="Arial" font-size="9.00">string</text>
<polygon fill="none" stroke="#bfbfbf" points="38.62,-81.5 38.62,-100 69.12,-100 69.12,-81.5 38.62,-81.5"/>
</a>
</g>
</g>
<!-- Node2&#45;&gt;Node1 -->
<g id="edge1_Node000001_Node000002" class="edge">
<title>Node2&#45;&gt;Node1</title>
<g id="a_edge1_Node000001_Node000002"><a xlink:title=" ">
<path fill="none" stroke="#63b8ff" d="M53.88,-81.52C53.88,-71.95 53.88,-55.67 53.88,-41.67"/>
<polygon fill="none" stroke="#63b8ff" points="53.88,-41.67 49.88,-35.67 53.88,-29.67 57.88,-35.67 53.88,-41.67"/>
</a>
</g>
<text xml:space="preserve" text-anchor="start" x="56.88" y="-51.95" font-family="Arial" font-size="9.00" fill="grey">+identifier</text>
</g>
</g>
</svg>
