<?xml version="1.0" encoding="UTF-8" standalone="no"?>
<!DOCTYPE svg PUBLIC "-//W3C//DTD SVG 1.1//EN"
 "http://www.w3.org/Graphics/SVG/1.1/DTD/svg11.dtd">
<!-- Generated by graphviz version 12.2.1 (20241206.2353)
 -->
<!-- Title: UI::Screen::EditSaleDate Pages: 1 -->
<svg width="127pt" height="356pt"
 viewBox="0.00 0.00 127.00 356.00" xmlns="http://www.w3.org/2000/svg" xmlns:xlink="http://www.w3.org/1999/xlink">
<g id="graph0" class="graph" transform="scale(1 1) rotate(0) translate(4 352)">
<title>UI::Screen::EditSaleDate</title>
<!-- Node1 -->
<g id="Node000001" class="node">
<title>Node1</title>
<g id="a_Node000001"><a xlink:title="A class representing the screen for editing sale dates.">
<polygon fill="#999999" stroke="none" points="119,-52 0,-52 0,0 119,0 119,-52"/>
<text text-anchor="start" x="4" y="-38.5" font-family="Arial" font-size="10.00">UI::Screen::EditSaleDate</text>
<text text-anchor="start" x="5.44" y="-22.5" font-family="Arial" font-size="10.00">+</text>
<text text-anchor="start" x="16.88" y="-22.5" font-family="Arial" font-size="10.00">onGotoPrevoidScreen</text>
<text text-anchor="start" x="5.44" y="-6.5" font-family="Arial" font-size="10.00">+</text>
<text text-anchor="start" x="16.88" y="-6.5" font-family="Arial" font-size="10.00">getInstance()</text>
<polygon fill="#666666" stroke="#666666" points="0,-34 0,-34 119,-34 119,-34 0,-34"/>
<polygon fill="#666666" stroke="#666666" points="0,-18 0,-18 14.88,-18 14.88,-18 0,-18"/>
<polygon fill="#666666" stroke="#666666" points="14.88,-18 14.88,-18 119,-18 119,-18 14.88,-18"/>
<polygon fill="none" stroke="#666666" points="0,0 0,-52 119,-52 119,0 0,0"/>
</a>
</g>
</g>
<!-- Node2 -->
<g id="Node000002" class="node">
<title>Node2</title>
<g id="a_Node000002"><a xlink:href="../../dc/d0c/a00430.html" target="_top" xlink:title="A base class for screen components in the UI.">
<polygon fill="white" stroke="none" points="117.62,-348 1.38,-348 1.38,-88 117.62,-88 117.62,-348"/>
<text text-anchor="start" x="24.62" y="-334.5" font-family="Arial" font-size="10.00">UI::ScreenBase</text>
<text text-anchor="start" x="5.38" y="-318.5" font-family="Arial" font-size="10.00">+</text>
<text text-anchor="start" x="15.38" y="-318.5" font-family="Arial" font-size="10.00">onClickLeftButton</text>
<text text-anchor="start" x="5.38" y="-302.5" font-family="Arial" font-size="10.00">+</text>
<text text-anchor="start" x="15.38" y="-302.5" font-family="Arial" font-size="10.00">onClickRightButton</text>
<text text-anchor="start" x="5.38" y="-286.5" font-family="Arial" font-size="10.00">+</text>
<text text-anchor="start" x="15.38" y="-286.5" font-family="Arial" font-size="10.00">onClickEnterButton</text>
<text text-anchor="start" x="5.38" y="-270.5" font-family="Arial" font-size="10.00">+</text>
<text text-anchor="start" x="15.38" y="-270.5" font-family="Arial" font-size="10.00">onClickClearButton</text>
<text text-anchor="start" x="5.38" y="-254.5" font-family="Arial" font-size="10.00">+</text>
<text text-anchor="start" x="15.38" y="-254.5" font-family="Arial" font-size="10.00">onHoldLeftButton</text>
<text text-anchor="start" x="5.38" y="-238.5" font-family="Arial" font-size="10.00">+</text>
<text text-anchor="start" x="15.38" y="-238.5" font-family="Arial" font-size="10.00">onHoldRightButton</text>
<text text-anchor="start" x="5.38" y="-222.5" font-family="Arial" font-size="10.00">+</text>
<text text-anchor="start" x="15.38" y="-222.5" font-family="Arial" font-size="10.00">onHoldEnterButton</text>
<text text-anchor="start" x="5.38" y="-206.5" font-family="Arial" font-size="10.00">+</text>
<text text-anchor="start" x="15.38" y="-206.5" font-family="Arial" font-size="10.00">onHoldClearButton</text>
<text text-anchor="start" x="5.38" y="-190.5" font-family="Arial" font-size="10.00">+</text>
<text text-anchor="start" x="15.38" y="-190.5" font-family="Arial" font-size="10.00">clearButtonsFunction()</text>
<text text-anchor="start" x="5.75" y="-174.5" font-family="Arial" font-size="10.00">#</text>
<text text-anchor="start" x="15.38" y="-174.5" font-family="Arial" font-size="10.00">ScreenBase()</text>
<text text-anchor="start" x="5.75" y="-158.5" font-family="Arial" font-size="10.00">#</text>
<text text-anchor="start" x="15.38" y="-158.5" font-family="Arial" font-size="10.00">~ScreenBase()</text>
<text text-anchor="start" x="5.75" y="-142.5" font-family="Arial" font-size="10.00">#</text>
<text text-anchor="start" x="15.38" y="-142.5" font-family="Arial" font-size="10.00">active()</text>
<text text-anchor="start" x="5.75" y="-126.5" font-family="Arial" font-size="10.00">#</text>
<text text-anchor="start" x="15.38" y="-126.5" font-family="Arial" font-size="10.00">deactive()</text>
<text text-anchor="start" x="5.75" y="-110.5" font-family="Arial" font-size="10.00">#</text>
<text text-anchor="start" x="15.38" y="-110.5" font-family="Arial" font-size="10.00">handleTickEvent()</text>
<text text-anchor="start" x="5.75" y="-94.5" font-family="Arial" font-size="10.00">#</text>
<text text-anchor="start" x="15.38" y="-94.5" font-family="Arial" font-size="10.00">handleButtonEvent()</text>
<polygon fill="#666666" stroke="#666666" points="1.38,-330 1.38,-330 117.62,-330 117.62,-330 1.38,-330"/>
<polygon fill="#666666" stroke="#666666" points="1.38,-202 1.38,-202 13.38,-202 13.38,-202 1.38,-202"/>
<polygon fill="#666666" stroke="#666666" points="13.38,-202 13.38,-202 117.62,-202 117.62,-202 13.38,-202"/>
<polygon fill="none" stroke="#666666" points="1.38,-88 1.38,-348 117.62,-348 117.62,-88 1.38,-88"/>
</a>
</g>
</g>
<!-- Node2&#45;&gt;Node1 -->
<g id="edge1_Node000001_Node000002" class="edge">
<title>Node2&#45;&gt;Node1</title>
<g id="a_edge1_Node000001_Node000002"><a xlink:title=" ">
<path fill="none" stroke="#63b8ff" d="M59.5,-76.94C59.5,-67.65 59.5,-59.11 59.5,-51.82"/>
<polygon fill="none" stroke="#63b8ff" points="56,-76.65 59.5,-86.65 63,-76.65 56,-76.65"/>
</a>
</g>
</g>
</g>
</svg>
