<?xml version="1.0" encoding="UTF-8" standalone="no"?>
<!DOCTYPE svg PUBLIC "-//W3C//DTD SVG 1.1//EN"
 "http://www.w3.org/Graphics/SVG/1.1/DTD/svg11.dtd">
<!-- Generated by graphviz version 12.2.1 (20241206.2353)
 -->
<!-- Title: UI::Screen::MenuSystemSetup Pages: 1 -->
<svg width="153pt" height="524pt"
 viewBox="0.00 0.00 152.50 524.00" xmlns="http://www.w3.org/2000/svg" xmlns:xlink="http://www.w3.org/1999/xlink">
<g id="graph0" class="graph" transform="scale(1 1) rotate(0) translate(4 520)">
<title>UI::Screen::MenuSystemSetup</title>
<!-- Node1 -->
<g id="Node000001" class="node">
<title>Node1</title>
<g id="a_Node000001"><a xlink:title="A class for setting up the system menu in the UI.">
<polygon fill="#999999" stroke="none" points="144.5,-52 0,-52 0,0 144.5,0 144.5,-52"/>
<text text-anchor="start" x="4" y="-38.5" font-family="Arial" font-size="10.00">UI::Screen::MenuSystemSetup</text>
<text text-anchor="start" x="70.75" y="-22.5" font-family="Arial" font-size="10.00"> </text>
<text text-anchor="start" x="21.38" y="-6.5" font-family="Arial" font-size="10.00">+</text>
<text text-anchor="start" x="48.75" y="-6.5" font-family="Arial" font-size="10.00">getInstance()</text>
<polygon fill="#666666" stroke="#666666" points="0,-34 0,-34 144.5,-34 144.5,-34 0,-34"/>
<polygon fill="#666666" stroke="#666666" points="0,-18 0,-18 144.5,-18 144.5,-18 0,-18"/>
<polygon fill="none" stroke="#666666" points="0,0 0,-52 144.5,-52 144.5,0 0,0"/>
</a>
</g>
</g>
<!-- Node2 -->
<g id="Node000002" class="node">
<title>Node2</title>
<g id="a_Node000002"><a xlink:href="../../db/d43/a00422.html" target="_top" xlink:title="A base class for creating menu components in the UI.">
<polygon fill="white" stroke="none" points="110.12,-220 34.38,-220 34.38,-88 110.12,-88 110.12,-220"/>
<text text-anchor="start" x="40.75" y="-206.5" font-family="Arial" font-size="10.00">UI::MenuBase</text>
<text text-anchor="start" x="70.75" y="-190.5" font-family="Arial" font-size="10.00"> </text>
<text text-anchor="start" x="38.38" y="-174.5" font-family="Arial" font-size="10.00">#</text>
<text text-anchor="start" x="47.62" y="-174.5" font-family="Arial" font-size="10.00">MenuBase()</text>
<text text-anchor="start" x="38.38" y="-158.5" font-family="Arial" font-size="10.00">#</text>
<text text-anchor="start" x="47.62" y="-158.5" font-family="Arial" font-size="10.00">~MenuBase()</text>
<text text-anchor="start" x="38.38" y="-142.5" font-family="Arial" font-size="10.00">#</text>
<text text-anchor="start" x="47.62" y="-142.5" font-family="Arial" font-size="10.00">items()</text>
<text text-anchor="start" x="38.38" y="-126.5" font-family="Arial" font-size="10.00">#</text>
<text text-anchor="start" x="47.62" y="-126.5" font-family="Arial" font-size="10.00">active()</text>
<text text-anchor="start" x="38.38" y="-110.5" font-family="Arial" font-size="10.00">#</text>
<text text-anchor="start" x="47.62" y="-110.5" font-family="Arial" font-size="10.00">deactive()</text>
<text text-anchor="start" x="38.38" y="-94.5" font-family="Arial" font-size="10.00">#</text>
<text text-anchor="start" x="47.62" y="-94.5" font-family="Arial" font-size="10.00">setPosition()</text>
<polygon fill="#666666" stroke="#666666" points="34.38,-202 34.38,-202 110.12,-202 110.12,-202 34.38,-202"/>
<polygon fill="#666666" stroke="#666666" points="34.38,-186 34.38,-186 110.12,-186 110.12,-186 34.38,-186"/>
<polygon fill="none" stroke="#666666" points="34.38,-88 34.38,-220 110.12,-220 110.12,-88 34.38,-88"/>
</a>
</g>
</g>
<!-- Node2&#45;&gt;Node1 -->
<g id="edge1_Node000001_Node000002" class="edge">
<title>Node2&#45;&gt;Node1</title>
<g id="a_edge1_Node000001_Node000002"><a xlink:title=" ">
<path fill="none" stroke="#63b8ff" d="M72.25,-76.75C72.25,-67.85 72.25,-59.32 72.25,-51.92"/>
<polygon fill="none" stroke="#63b8ff" points="68.75,-76.64 72.25,-86.64 75.75,-76.64 68.75,-76.64"/>
</a>
</g>
</g>
<!-- Node3 -->
<g id="Node000003" class="node">
<title>Node3</title>
<g id="a_Node000003"><a xlink:href="../../dc/d0c/a00430.html" target="_top" xlink:title="A base class for screen components in the UI.">
<polygon fill="white" stroke="none" points="130.38,-516 14.12,-516 14.12,-256 130.38,-256 130.38,-516"/>
<text text-anchor="start" x="37.38" y="-502.5" font-family="Arial" font-size="10.00">UI::ScreenBase</text>
<text text-anchor="start" x="18.12" y="-486.5" font-family="Arial" font-size="10.00">+</text>
<text text-anchor="start" x="28.12" y="-486.5" font-family="Arial" font-size="10.00">onClickLeftButton</text>
<text text-anchor="start" x="18.12" y="-470.5" font-family="Arial" font-size="10.00">+</text>
<text text-anchor="start" x="28.12" y="-470.5" font-family="Arial" font-size="10.00">onClickRightButton</text>
<text text-anchor="start" x="18.12" y="-454.5" font-family="Arial" font-size="10.00">+</text>
<text text-anchor="start" x="28.12" y="-454.5" font-family="Arial" font-size="10.00">onClickEnterButton</text>
<text text-anchor="start" x="18.12" y="-438.5" font-family="Arial" font-size="10.00">+</text>
<text text-anchor="start" x="28.12" y="-438.5" font-family="Arial" font-size="10.00">onClickClearButton</text>
<text text-anchor="start" x="18.12" y="-422.5" font-family="Arial" font-size="10.00">+</text>
<text text-anchor="start" x="28.12" y="-422.5" font-family="Arial" font-size="10.00">onHoldLeftButton</text>
<text text-anchor="start" x="18.12" y="-406.5" font-family="Arial" font-size="10.00">+</text>
<text text-anchor="start" x="28.12" y="-406.5" font-family="Arial" font-size="10.00">onHoldRightButton</text>
<text text-anchor="start" x="18.12" y="-390.5" font-family="Arial" font-size="10.00">+</text>
<text text-anchor="start" x="28.12" y="-390.5" font-family="Arial" font-size="10.00">onHoldEnterButton</text>
<text text-anchor="start" x="18.12" y="-374.5" font-family="Arial" font-size="10.00">+</text>
<text text-anchor="start" x="28.12" y="-374.5" font-family="Arial" font-size="10.00">onHoldClearButton</text>
<text text-anchor="start" x="18.12" y="-358.5" font-family="Arial" font-size="10.00">+</text>
<text text-anchor="start" x="28.12" y="-358.5" font-family="Arial" font-size="10.00">clearButtonsFunction()</text>
<text text-anchor="start" x="18.5" y="-342.5" font-family="Arial" font-size="10.00">#</text>
<text text-anchor="start" x="28.12" y="-342.5" font-family="Arial" font-size="10.00">ScreenBase()</text>
<text text-anchor="start" x="18.5" y="-326.5" font-family="Arial" font-size="10.00">#</text>
<text text-anchor="start" x="28.12" y="-326.5" font-family="Arial" font-size="10.00">~ScreenBase()</text>
<text text-anchor="start" x="18.5" y="-310.5" font-family="Arial" font-size="10.00">#</text>
<text text-anchor="start" x="28.12" y="-310.5" font-family="Arial" font-size="10.00">active()</text>
<text text-anchor="start" x="18.5" y="-294.5" font-family="Arial" font-size="10.00">#</text>
<text text-anchor="start" x="28.12" y="-294.5" font-family="Arial" font-size="10.00">deactive()</text>
<text text-anchor="start" x="18.5" y="-278.5" font-family="Arial" font-size="10.00">#</text>
<text text-anchor="start" x="28.12" y="-278.5" font-family="Arial" font-size="10.00">handleTickEvent()</text>
<text text-anchor="start" x="18.5" y="-262.5" font-family="Arial" font-size="10.00">#</text>
<text text-anchor="start" x="28.12" y="-262.5" font-family="Arial" font-size="10.00">handleButtonEvent()</text>
<polygon fill="#666666" stroke="#666666" points="14.12,-498 14.12,-498 130.38,-498 130.38,-498 14.12,-498"/>
<polygon fill="#666666" stroke="#666666" points="14.12,-370 14.12,-370 26.12,-370 26.12,-370 14.12,-370"/>
<polygon fill="#666666" stroke="#666666" points="26.12,-370 26.12,-370 130.38,-370 130.38,-370 26.12,-370"/>
<polygon fill="none" stroke="#666666" points="14.12,-256 14.12,-516 130.38,-516 130.38,-256 14.12,-256"/>
</a>
</g>
</g>
<!-- Node3&#45;&gt;Node2 -->
<g id="edge2_Node000002_Node000003" class="edge">
<title>Node3&#45;&gt;Node2</title>
<g id="a_edge2_Node000002_Node000003"><a xlink:title=" ">
<path fill="none" stroke="#63b8ff" d="M72.25,-244.85C72.25,-236.27 72.25,-227.89 72.25,-219.92"/>
<polygon fill="none" stroke="#63b8ff" points="68.75,-244.7 72.25,-254.7 75.75,-244.7 68.75,-244.7"/>
</a>
</g>
</g>
</g>
</svg>
