<?xml version="1.0" encoding="UTF-8" standalone="no"?>
<!DOCTYPE svg PUBLIC "-//W3C//DTD SVG 1.1//EN"
 "http://www.w3.org/Graphics/SVG/1.1/DTD/svg11.dtd">
<!-- Generated by graphviz version 13.1.0 (20250701.0955)
 -->
<!-- Title: Lib::Xbee::Core::Frame0x17 Pages: 1 -->
<svg width="154pt" height="667pt"
 viewBox="0.00 0.00 154.00 667.00" xmlns="http://www.w3.org/2000/svg" xmlns:xlink="http://www.w3.org/1999/xlink">
<g id="graph0" class="graph" transform="scale(1 1) rotate(0) translate(4 662.5)">
<title>Lib::Xbee::Core::Frame0x17</title>
<!-- Node1 -->
<g id="Node000001" class="node">
<title>Node1</title>
<g id="a_Node000001"><a xlink:title="Frame0x17 remote AT command request.">
<polygon fill="#999999" stroke="none" points="145.5,-126.5 0,-126.5 0,0 145.5,0 145.5,-126.5"/>
<text xml:space="preserve" text-anchor="start" x="15.38" y="-113.95" font-family="Arial" font-size="9.00">Lib::Xbee::Core::Frame0x17</text>
<text xml:space="preserve" text-anchor="start" x="4" y="-99.45" font-family="Arial" font-size="9.00">+</text>
<text xml:space="preserve" text-anchor="start" x="13.25" y="-99.45" font-family="Arial" font-size="9.00">uint8_t frameId</text>
<text xml:space="preserve" text-anchor="start" x="4" y="-84.95" font-family="Arial" font-size="9.00">+</text>
<text xml:space="preserve" text-anchor="start" x="13.25" y="-84.95" font-family="Arial" font-size="9.00">uint64_t dstAddr</text>
<text xml:space="preserve" text-anchor="start" x="4" y="-70.45" font-family="Arial" font-size="9.00">+</text>
<text xml:space="preserve" text-anchor="start" x="13.25" y="-70.45" font-family="Arial" font-size="9.00">uint8_t remoteCommandOption</text>
<text xml:space="preserve" text-anchor="start" x="4" y="-55.95" font-family="Arial" font-size="9.00">+</text>
<text xml:space="preserve" text-anchor="start" x="13.25" y="-55.95" font-family="Arial" font-size="9.00">uint16_t atCommand</text>
<text xml:space="preserve" text-anchor="start" x="4" y="-41.45" font-family="Arial" font-size="9.00">+</text>
<text xml:space="preserve" text-anchor="start" x="13.25" y="-41.45" font-family="Arial" font-size="9.00">std::vector&lt; uint8</text>
<text xml:space="preserve" text-anchor="start" x="13.25" y="-30.95" font-family="Arial" font-size="9.00">_t &gt; parameters</text>
<text xml:space="preserve" text-anchor="start" x="4" y="-16.45" font-family="Arial" font-size="9.00">+</text>
<text xml:space="preserve" text-anchor="start" x="13.25" y="-16.45" font-family="Arial" font-size="9.00">operator Frame::Data</text>
<text xml:space="preserve" text-anchor="start" x="13.25" y="-5.95" font-family="Arial" font-size="9.00">() override</text>
<polygon fill="#666666" stroke="#666666" points="0,-110 0,-110 145.5,-110 145.5,-110 0,-110"/>
<polygon fill="#666666" stroke="#666666" points="0,-27 0,-27 11.25,-27 11.25,-27 0,-27"/>
<polygon fill="#666666" stroke="#666666" points="11.25,-27 11.25,-27 145.5,-27 145.5,-27 11.25,-27"/>
<polygon fill="none" stroke="#666666" points="0,0 0,-126.5 145.5,-126.5 145.5,0 0,0"/>
</a>
</g>
</g>
<!-- Node2 -->
<g id="Node000002" class="node">
<title>Node2</title>
<g id="a_Node000002"><a xlink:href="../../dc/daf/class_lib_1_1_xbee_1_1_core_1_1_query_base.html" target="_top" xlink:title="Abstract base class for Xbee send requests.">
<polygon fill="white" stroke="none" points="133.75,-261 11.75,-261 11.75,-163.5 133.75,-163.5 133.75,-261"/>
<text xml:space="preserve" text-anchor="start" x="15.75" y="-248.45" font-family="Arial" font-size="9.00">Lib::Xbee::Core::QueryBase</text>
<text xml:space="preserve" text-anchor="start" x="71.62" y="-233.95" font-family="Arial" font-size="9.00"> </text>
<text xml:space="preserve" text-anchor="start" x="19.44" y="-219.45" font-family="Arial" font-size="9.00">+</text>
<text xml:space="preserve" text-anchor="start" x="32.38" y="-219.45" font-family="Arial" font-size="9.00">virtual operator Frame</text>
<text xml:space="preserve" text-anchor="start" x="32.38" y="-208.95" font-family="Arial" font-size="9.00">::Data()=0</text>
<text xml:space="preserve" text-anchor="start" x="19.44" y="-194.45" font-family="Arial" font-size="9.00">+</text>
<text xml:space="preserve" text-anchor="start" x="32.38" y="-194.45" font-family="Arial" font-size="9.00">QueryBase()=default</text>
<text xml:space="preserve" text-anchor="start" x="19.44" y="-179.95" font-family="Arial" font-size="9.00">+</text>
<text xml:space="preserve" text-anchor="start" x="32.38" y="-179.95" font-family="Arial" font-size="9.00">virtual ~QueryBase</text>
<text xml:space="preserve" text-anchor="start" x="32.38" y="-169.45" font-family="Arial" font-size="9.00">()=default</text>
<polygon fill="#666666" stroke="#666666" points="11.75,-244.5 11.75,-244.5 133.75,-244.5 133.75,-244.5 11.75,-244.5"/>
<polygon fill="#666666" stroke="#666666" points="11.75,-230 11.75,-230 133.75,-230 133.75,-230 11.75,-230"/>
<polygon fill="none" stroke="#666666" points="11.75,-163.5 11.75,-261 133.75,-261 133.75,-163.5 11.75,-163.5"/>
</a>
</g>
</g>
<!-- Node2&#45;&gt;Node1 -->
<g id="edge1_Node000001_Node000002" class="edge">
<title>Node2&#45;&gt;Node1</title>
<g id="a_edge1_Node000001_Node000002"><a xlink:title=" ">
<path fill="none" stroke="#63b8ff" d="M72.75,-152.19C72.75,-143.72 72.75,-134.99 72.75,-126.46"/>
<polygon fill="none" stroke="#63b8ff" points="69.25,-152.01 72.75,-162.01 76.25,-152.01 69.25,-152.01"/>
</a>
</g>
</g>
<!-- Node3 -->
<g id="Node000003" class="node">
<title>Node3</title>
<g id="a_Node000003"><a xlink:href="../../d1/d88/class_lib_1_1_xbee_1_1_core_1_1_frame_1_1_data.html" target="_top" xlink:title="Type&#45;tagged byte buffer for Xbee Core frame payloads.">
<polygon fill="white" stroke="none" points="129,-658.5 16.5,-658.5 16.5,-313.5 129,-313.5 129,-658.5"/>
<text xml:space="preserve" text-anchor="start" x="25.5" y="-645.95" font-family="Arial" font-size="9.00">Lib::Xbee::Core::Frame</text>
<text xml:space="preserve" text-anchor="start" x="60.75" y="-635.45" font-family="Arial" font-size="9.00">::Data</text>
<text xml:space="preserve" text-anchor="start" x="20.5" y="-620.95" font-family="Arial" font-size="9.00">+</text>
<text xml:space="preserve" text-anchor="start" x="29.75" y="-620.95" font-family="Arial" font-size="9.00">uint8_t type</text>
<text xml:space="preserve" text-anchor="start" x="20.5" y="-606.45" font-family="Arial" font-size="9.00">+</text>
<text xml:space="preserve" text-anchor="start" x="29.75" y="-606.45" font-family="Arial" font-size="9.00">Data()=default</text>
<text xml:space="preserve" text-anchor="start" x="20.5" y="-591.95" font-family="Arial" font-size="9.00">+</text>
<text xml:space="preserve" text-anchor="start" x="29.75" y="-591.95" font-family="Arial" font-size="9.00">~Data()=default</text>
<text xml:space="preserve" text-anchor="start" x="20.5" y="-577.45" font-family="Arial" font-size="9.00">+</text>
<text xml:space="preserve" text-anchor="start" x="29.75" y="-577.45" font-family="Arial" font-size="9.00">void reset()</text>
<text xml:space="preserve" text-anchor="start" x="20.5" y="-562.95" font-family="Arial" font-size="9.00">+</text>
<text xml:space="preserve" text-anchor="start" x="29.75" y="-562.95" font-family="Arial" font-size="9.00">void append(const void</text>
<text xml:space="preserve" text-anchor="start" x="29.75" y="-552.45" font-family="Arial" font-size="9.00"> *src, size_t length)</text>
<text xml:space="preserve" text-anchor="start" x="20.5" y="-537.95" font-family="Arial" font-size="9.00">+</text>
<text xml:space="preserve" text-anchor="start" x="29.75" y="-537.95" font-family="Arial" font-size="9.00">void assign(const void</text>
<text xml:space="preserve" text-anchor="start" x="29.75" y="-527.45" font-family="Arial" font-size="9.00"> *src, size_t length)</text>
<text xml:space="preserve" text-anchor="start" x="20.5" y="-512.95" font-family="Arial" font-size="9.00">+</text>
<text xml:space="preserve" text-anchor="start" x="29.75" y="-512.95" font-family="Arial" font-size="9.00">void append(T value)</text>
<text xml:space="preserve" text-anchor="start" x="20.5" y="-498.45" font-family="Arial" font-size="9.00">+</text>
<text xml:space="preserve" text-anchor="start" x="29.75" y="-498.45" font-family="Arial" font-size="9.00">void append(uint8_t</text>
<text xml:space="preserve" text-anchor="start" x="29.75" y="-487.95" font-family="Arial" font-size="9.00"> value)</text>
<text xml:space="preserve" text-anchor="start" x="20.5" y="-473.45" font-family="Arial" font-size="9.00">+</text>
<text xml:space="preserve" text-anchor="start" x="29.75" y="-473.45" font-family="Arial" font-size="9.00">void append(uint16</text>
<text xml:space="preserve" text-anchor="start" x="29.75" y="-462.95" font-family="Arial" font-size="9.00">_t value)</text>
<text xml:space="preserve" text-anchor="start" x="20.5" y="-448.45" font-family="Arial" font-size="9.00">+</text>
<text xml:space="preserve" text-anchor="start" x="29.75" y="-448.45" font-family="Arial" font-size="9.00">void append(uint32</text>
<text xml:space="preserve" text-anchor="start" x="29.75" y="-437.95" font-family="Arial" font-size="9.00">_t value)</text>
<text xml:space="preserve" text-anchor="start" x="20.5" y="-423.45" font-family="Arial" font-size="9.00">+</text>
<text xml:space="preserve" text-anchor="start" x="29.75" y="-423.45" font-family="Arial" font-size="9.00">void append(uint64</text>
<text xml:space="preserve" text-anchor="start" x="29.75" y="-412.95" font-family="Arial" font-size="9.00">_t value)</text>
<text xml:space="preserve" text-anchor="start" x="20.5" y="-398.45" font-family="Arial" font-size="9.00">+</text>
<text xml:space="preserve" text-anchor="start" x="29.75" y="-398.45" font-family="Arial" font-size="9.00">const uint8_t * data</text>
<text xml:space="preserve" text-anchor="start" x="29.75" y="-387.95" font-family="Arial" font-size="9.00">() const</text>
<text xml:space="preserve" text-anchor="start" x="20.5" y="-373.45" font-family="Arial" font-size="9.00">+</text>
<text xml:space="preserve" text-anchor="start" x="29.75" y="-373.45" font-family="Arial" font-size="9.00">bool empty() const</text>
<text xml:space="preserve" text-anchor="start" x="20.5" y="-358.95" font-family="Arial" font-size="9.00">+</text>
<text xml:space="preserve" text-anchor="start" x="29.75" y="-358.95" font-family="Arial" font-size="9.00">size_t size() const</text>
<text xml:space="preserve" text-anchor="start" x="20.5" y="-344.45" font-family="Arial" font-size="9.00">+</text>
<text xml:space="preserve" text-anchor="start" x="29.75" y="-344.45" font-family="Arial" font-size="9.00">void clear()</text>
<text xml:space="preserve" text-anchor="start" x="20.5" y="-329.95" font-family="Arial" font-size="9.00">+</text>
<text xml:space="preserve" text-anchor="start" x="29.75" y="-329.95" font-family="Arial" font-size="9.00">void insert(const uint8</text>
<text xml:space="preserve" text-anchor="start" x="29.75" y="-319.45" font-family="Arial" font-size="9.00">_t *data, size_t length)</text>
<polygon fill="#666666" stroke="#666666" points="16.5,-631.5 16.5,-631.5 129,-631.5 129,-631.5 16.5,-631.5"/>
<polygon fill="#666666" stroke="#666666" points="16.5,-617 16.5,-617 27.75,-617 27.75,-617 16.5,-617"/>
<polygon fill="#666666" stroke="#666666" points="27.75,-617 27.75,-617 129,-617 129,-617 27.75,-617"/>
<polygon fill="none" stroke="#666666" points="16.5,-313.5 16.5,-658.5 129,-658.5 129,-313.5 16.5,-313.5"/>
</a>
</g>
</g>
<!-- Node3&#45;&gt;Node2 -->
<g id="edge2_Node000002_Node000003" class="edge">
<title>Node3&#45;&gt;Node2</title>
<g id="a_edge2_Node000002_Node000003"><a xlink:title=" ">
<path fill="none" stroke="#63b8ff" d="M72.75,-313.67C72.75,-299.58 72.75,-286.04 72.75,-273.71"/>
<polygon fill="none" stroke="#63b8ff" points="72.75,-273.74 68.75,-267.74 72.75,-261.74 76.75,-267.74 72.75,-273.74"/>
</a>
</g>
<text xml:space="preserve" text-anchor="start" x="75.75" y="-283.95" font-family="Arial" font-size="9.00" fill="grey">#frameData</text>
</g>
</g>
</svg>
