<?xml version="1.0" encoding="UTF-8" standalone="no"?>
<!DOCTYPE svg PUBLIC "-//W3C//DTD SVG 1.1//EN"
 "http://www.w3.org/Graphics/SVG/1.1/DTD/svg11.dtd">
<!-- Generated by graphviz version 13.1.0 (20250701.0955)
 -->
<!-- Title: Lib::FreeRTOS::Timeout::isDisabled Pages: 1 -->
<svg width="564pt" height="277pt"
 viewBox="0.00 0.00 564.00 277.00" xmlns="http://www.w3.org/2000/svg" xmlns:xlink="http://www.w3.org/1999/xlink">
<g id="graph0" class="graph" transform="scale(1 1) rotate(0) translate(4 273)">
<title>Lib::FreeRTOS::Timeout::isDisabled</title>
<!-- Node1 -->
<g id="Node000001" class="node">
<title>Node1</title>
<g id="a_Node000001"><a xlink:title="Checks if the timeout is disabled.">
<polygon fill="#999999" stroke="#666666" points="556,-123 442.5,-123 442.5,-94 556,-94 556,-123"/>
<text xml:space="preserve" text-anchor="start" x="450.5" y="-110.45" font-family="Arial" font-size="9.00">Lib::FreeRTOS::Timeout</text>
<text xml:space="preserve" text-anchor="middle" x="499.25" y="-99.95" font-family="Arial" font-size="9.00">::isDisabled</text>
</a>
</g>
</g>
<!-- Node2 -->
<g id="Node000002" class="node">
<title>Node2</title>
<g id="a_Node000002"><a xlink:href="$d7/d30/class_lib_1_1_free_r_t_o_s_1_1_timeout.html#a90af82736388b26add41da3886a12390" xlink:title="Checks if the timeout has expired.">
<polygon fill="white" stroke="#666666" points="406.5,-217 293,-217 293,-188 406.5,-188 406.5,-217"/>
<text xml:space="preserve" text-anchor="start" x="301" y="-204.45" font-family="Arial" font-size="9.00">Lib::FreeRTOS::Timeout</text>
<text xml:space="preserve" text-anchor="middle" x="349.75" y="-193.95" font-family="Arial" font-size="9.00">::check</text>
</a>
</g>
</g>
<!-- Node1&#45;&gt;Node2 -->
<g id="edge1_Node000001_Node000002" class="edge">
<title>Node1&#45;&gt;Node2</title>
<g id="a_edge1_Node000001_Node000002"><a xlink:title=" ">
<path fill="none" stroke="#63b8ff" d="M473.38,-130.71C455.62,-145.8 430.69,-165.49 406.5,-179.5 401.52,-182.39 396.1,-185.09 390.67,-187.57"/>
<polygon fill="#63b8ff" stroke="#63b8ff" points="475.54,-133.46 480.82,-124.28 470.97,-128.17 475.54,-133.46"/>
</a>
</g>
</g>
<!-- Node7 -->
<g id="Node000007" class="node">
<title>Node7</title>
<g id="a_Node000007"><a xlink:href="$d7/d30/class_lib_1_1_free_r_t_o_s_1_1_timeout.html#af9f422ab8b9dde2721c8d39c18ca9c3f" xlink:title="Gets the remaining ticks until timeout expiration.">
<polygon fill="white" stroke="#666666" points="406.5,-170 293,-170 293,-141 406.5,-141 406.5,-170"/>
<text xml:space="preserve" text-anchor="start" x="301" y="-157.45" font-family="Arial" font-size="9.00">Lib::FreeRTOS::Timeout</text>
<text xml:space="preserve" text-anchor="middle" x="349.75" y="-146.95" font-family="Arial" font-size="9.00">::getRemainingTicks</text>
</a>
</g>
</g>
<!-- Node1&#45;&gt;Node7 -->
<g id="edge6_Node000001_Node000007" class="edge">
<title>Node1&#45;&gt;Node7</title>
<g id="a_edge6_Node000001_Node000007"><a xlink:title=" ">
<path fill="none" stroke="#63b8ff" d="M440.84,-126.79C426.53,-131.35 411.36,-136.19 397.62,-140.56"/>
<polygon fill="#63b8ff" stroke="#63b8ff" points="441.67,-130.2 450.14,-123.83 439.55,-123.53 441.67,-130.2"/>
</a>
</g>
</g>
<!-- Node8 -->
<g id="Node000008" class="node">
<title>Node8</title>
<g id="a_Node000008"><a xlink:href="$d7/d30/class_lib_1_1_free_r_t_o_s_1_1_timeout.html#a3501f01f61b023ac9f6494f39a0e0bb2" xlink:title="Addition assignment operator of the Timeout class.">
<polygon fill="white" stroke="#666666" points="406.5,-123 293,-123 293,-94 406.5,-94 406.5,-123"/>
<text xml:space="preserve" text-anchor="start" x="301" y="-110.45" font-family="Arial" font-size="9.00">Lib::FreeRTOS::Timeout</text>
<text xml:space="preserve" text-anchor="middle" x="349.75" y="-99.95" font-family="Arial" font-size="9.00">::operator+=</text>
</a>
</g>
</g>
<!-- Node1&#45;&gt;Node8 -->
<g id="edge7_Node000001_Node000008" class="edge">
<title>Node1&#45;&gt;Node8</title>
<g id="a_edge7_Node000001_Node000008"><a xlink:title=" ">
<path fill="none" stroke="#63b8ff" d="M430.81,-108.5C422.77,-108.5 414.63,-108.5 406.78,-108.5"/>
<polygon fill="#63b8ff" stroke="#63b8ff" points="430.55,-112 440.55,-108.5 430.55,-105 430.55,-112"/>
</a>
</g>
</g>
<!-- Node9 -->
<g id="Node000009" class="node">
<title>Node9</title>
<g id="a_Node000009"><a xlink:href="$d7/d30/class_lib_1_1_free_r_t_o_s_1_1_timeout.html#a28b297a78dc525ad446bcdc721c90bcd" xlink:title="Subtraction assignment operator of the Timeout class.">
<polygon fill="white" stroke="#666666" points="406.5,-76 293,-76 293,-47 406.5,-47 406.5,-76"/>
<text xml:space="preserve" text-anchor="start" x="301" y="-63.45" font-family="Arial" font-size="9.00">Lib::FreeRTOS::Timeout</text>
<text xml:space="preserve" text-anchor="middle" x="349.75" y="-52.95" font-family="Arial" font-size="9.00">::operator&#45;=</text>
</a>
</g>
</g>
<!-- Node1&#45;&gt;Node9 -->
<g id="edge8_Node000001_Node000009" class="edge">
<title>Node1&#45;&gt;Node9</title>
<g id="a_edge8_Node000001_Node000009"><a xlink:title=" ">
<path fill="none" stroke="#63b8ff" d="M440.84,-90.21C426.53,-85.65 411.36,-80.81 397.62,-76.44"/>
<polygon fill="#63b8ff" stroke="#63b8ff" points="439.55,-93.47 450.14,-93.17 441.67,-86.8 439.55,-93.47"/>
</a>
</g>
</g>
<!-- Node10 -->
<g id="Node000010" class="node">
<title>Node10</title>
<g id="a_Node000010"><a xlink:href="$d7/d30/class_lib_1_1_free_r_t_o_s_1_1_timeout.html#a1aebc80f810550d86d3ab8792b96b027" xlink:title="Resets the timeout to start counting from now with the current duration.">
<polygon fill="white" stroke="#666666" points="406.5,-29 293,-29 293,0 406.5,0 406.5,-29"/>
<text xml:space="preserve" text-anchor="start" x="301" y="-16.45" font-family="Arial" font-size="9.00">Lib::FreeRTOS::Timeout</text>
<text xml:space="preserve" text-anchor="middle" x="349.75" y="-5.95" font-family="Arial" font-size="9.00">::reset</text>
</a>
</g>
</g>
<!-- Node1&#45;&gt;Node10 -->
<g id="edge9_Node000001_Node000010" class="edge">
<title>Node1&#45;&gt;Node10</title>
<g id="a_edge9_Node000001_Node000010"><a xlink:title=" ">
<path fill="none" stroke="#63b8ff" d="M473.38,-86.29C455.62,-71.2 430.69,-51.51 406.5,-37.5 401.52,-34.61 396.1,-31.91 390.67,-29.43"/>
<polygon fill="#63b8ff" stroke="#63b8ff" points="470.97,-88.83 480.82,-92.72 475.54,-83.54 470.97,-88.83"/>
</a>
</g>
</g>
<!-- Node3 -->
<g id="Node000003" class="node">
<title>Node3</title>
<g id="a_Node000003"><a xlink:href="$d7/d30/class_lib_1_1_free_r_t_o_s_1_1_timeout.html#a005b8917ca214ac889d8f0a7e6f97a8e" xlink:title="Equality operator of the Timeout class.">
<polygon fill="white" stroke="#666666" points="255.5,-269 142,-269 142,-240 255.5,-240 255.5,-269"/>
<text xml:space="preserve" text-anchor="start" x="150" y="-256.45" font-family="Arial" font-size="9.00">Lib::FreeRTOS::Timeout</text>
<text xml:space="preserve" text-anchor="middle" x="198.75" y="-245.95" font-family="Arial" font-size="9.00">::operator==</text>
</a>
</g>
</g>
<!-- Node2&#45;&gt;Node3 -->
<g id="edge2_Node000002_Node000003" class="edge">
<title>Node2&#45;&gt;Node3</title>
<g id="a_edge2_Node000002_Node000003"><a xlink:title=" ">
<path fill="none" stroke="#63b8ff" d="M295.52,-221.08C278.19,-227.12 259.19,-233.76 242.71,-239.51"/>
<polygon fill="#63b8ff" stroke="#63b8ff" points="296.34,-224.5 304.62,-217.9 294.03,-217.89 296.34,-224.5"/>
</a>
</g>
</g>
<!-- Node4 -->
<g id="Node000004" class="node">
<title>Node4</title>
<g id="a_Node000004"><a xlink:href="$da/d45/class_lib_1_1_b_s_p_1_1_ethercat_1_1_p_d_i_1_1_l_a_n9252_1_1_base.html#a489564ee364cc9d33fc1ee03da39cfd2" xlink:title="Resets the LAN9252 chip.">
<polygon fill="white" stroke="#666666" points="251,-222.25 146.5,-222.25 146.5,-182.75 251,-182.75 251,-222.25"/>
<text xml:space="preserve" text-anchor="start" x="154.5" y="-209.7" font-family="Arial" font-size="9.00">Lib::BSP::Ethercat</text>
<text xml:space="preserve" text-anchor="start" x="154.5" y="-199.2" font-family="Arial" font-size="9.00">::PDI::LAN9252::Base</text>
<text xml:space="preserve" text-anchor="middle" x="198.75" y="-188.7" font-family="Arial" font-size="9.00">::resetChip</text>
</a>
</g>
</g>
<!-- Node2&#45;&gt;Node4 -->
<g id="edge3_Node000002_Node000004" class="edge">
<title>Node2&#45;&gt;Node4</title>
<g id="a_edge3_Node000002_Node000004"><a xlink:title=" ">
<path fill="none" stroke="#63b8ff" d="M281.44,-202.5C271.23,-202.5 260.85,-202.5 251.05,-202.5"/>
<polygon fill="#63b8ff" stroke="#63b8ff" points="281.33,-206 291.33,-202.5 281.33,-199 281.33,-206"/>
</a>
</g>
</g>
<!-- Node6 -->
<g id="Node000006" class="node">
<title>Node6</title>
<g id="a_Node000006"><a xlink:href="$db/df9/class_lib_1_1_xbee_1_1_a_p_i_1_1_service_1_1_network_discovery.html#a4783e27649b02724ff4d7f98010eb155" xlink:title="Starts the network discovery process.">
<polygon fill="white" stroke="#666666" points="257,-165 140.5,-165 140.5,-136 257,-136 257,-165"/>
<text xml:space="preserve" text-anchor="start" x="148.5" y="-152.45" font-family="Arial" font-size="9.00">Lib::Xbee::API::Service</text>
<text xml:space="preserve" text-anchor="middle" x="198.75" y="-141.95" font-family="Arial" font-size="9.00">::NetworkDiscovery::start</text>
</a>
</g>
</g>
<!-- Node2&#45;&gt;Node6 -->
<g id="edge5_Node000002_Node000006" class="edge">
<title>Node2&#45;&gt;Node6</title>
<g id="a_edge5_Node000002_Node000006"><a xlink:title=" ">
<path fill="none" stroke="#63b8ff" d="M295.52,-183.92C278.19,-177.88 259.19,-171.24 242.71,-165.49"/>
<polygon fill="#63b8ff" stroke="#63b8ff" points="294.03,-187.11 304.62,-187.1 296.34,-180.5 294.03,-187.11"/>
</a>
</g>
</g>
<!-- Node5 -->
<g id="Node000005" class="node">
<title>Node5</title>
<g id="a_Node000005"><a xlink:href="$da/d45/class_lib_1_1_b_s_p_1_1_ethercat_1_1_p_d_i_1_1_l_a_n9252_1_1_base.html#a4f7bf88b527e0d63674c406d9c3659aa" xlink:title="Initializes the LAN9252 device.">
<polygon fill="white" stroke="#666666" points="104.5,-222.25 0,-222.25 0,-182.75 104.5,-182.75 104.5,-222.25"/>
<text xml:space="preserve" text-anchor="start" x="8" y="-209.7" font-family="Arial" font-size="9.00">Lib::BSP::Ethercat</text>
<text xml:space="preserve" text-anchor="start" x="8" y="-199.2" font-family="Arial" font-size="9.00">::PDI::LAN9252::Base</text>
<text xml:space="preserve" text-anchor="middle" x="52.25" y="-188.7" font-family="Arial" font-size="9.00">::initialize</text>
</a>
</g>
</g>
<!-- Node4&#45;&gt;Node5 -->
<g id="edge4_Node000004_Node000005" class="edge">
<title>Node4&#45;&gt;Node5</title>
<g id="a_edge4_Node000004_Node000005"><a xlink:title=" ">
<path fill="none" stroke="#63b8ff" d="M135.16,-202.5C125.07,-202.5 114.72,-202.5 104.92,-202.5"/>
<polygon fill="#63b8ff" stroke="#63b8ff" points="134.88,-206 144.88,-202.5 134.88,-199 134.88,-206"/>
</a>
</g>
</g>
</g>
</svg>
