<?xml version="1.0" encoding="UTF-8" standalone="no"?>
<!DOCTYPE svg PUBLIC "-//W3C//DTD SVG 1.1//EN"
 "http://www.w3.org/Graphics/SVG/1.1/DTD/svg11.dtd">
<!-- Generated by graphviz version 12.2.1 (20241206.2353)
 -->
<!-- Title: Lib::Digi::API::Service::Manager::getInstance Pages: 1 -->
<svg width="457pt" height="90pt"
 viewBox="0.00 0.00 456.50 90.00" xmlns="http://www.w3.org/2000/svg" xmlns:xlink="http://www.w3.org/1999/xlink">
<g id="graph0" class="graph" transform="scale(1 1) rotate(0) translate(4 86)">
<title>Lib::Digi::API::Service::Manager::getInstance</title>
<!-- Node1 -->
<g id="Node000001" class="node">
<title>Node1</title>
<g id="a_Node000001"><a xlink:title="Gets the singleton instance of the Manager class.">
<polygon fill="#999999" stroke="#666666" points="448.5,-57 332,-57 332,-25 448.5,-25 448.5,-57"/>
<text text-anchor="start" x="340" y="-43.5" font-family="Helvetica,sans-Serif" font-size="10.00">Lib::Digi::API::Service</text>
<text text-anchor="middle" x="390.25" y="-31.5" font-family="Helvetica,sans-Serif" font-size="10.00">::Manager::getInstance</text>
</a>
</g>
</g>
<!-- Node2 -->
<g id="Node000002" class="node">
<title>Node2</title>
<g id="a_Node000002"><a xlink:href="../../dc/d19/a01056.html#a5bdc3d73033317f0d42c376fd040fec6" target="_top" xlink:title="Starts the application.">
<polygon fill="white" stroke="#666666" points="296,-57 167.5,-57 167.5,-25 296,-25 296,-57"/>
<text text-anchor="start" x="175.5" y="-43.5" font-family="Helvetica,sans-Serif" font-size="10.00">Lib::Digi::API::Application</text>
<text text-anchor="middle" x="231.75" y="-31.5" font-family="Helvetica,sans-Serif" font-size="10.00">Base::start</text>
</a>
</g>
</g>
<!-- Node1&#45;&gt;Node2 -->
<g id="edge1_Node000001_Node000002" class="edge">
<title>Node1&#45;&gt;Node2</title>
<g id="a_edge1_Node000001_Node000002"><a xlink:title=" ">
<path fill="none" stroke="#63b8ff" d="M320.36,-41C312.41,-41 304.34,-41 296.47,-41"/>
<polygon fill="#63b8ff" stroke="#63b8ff" points="320.35,-44.5 330.35,-41 320.35,-37.5 320.35,-44.5"/>
</a>
</g>
</g>
<!-- Node3 -->
<g id="Node000003" class="node">
<title>Node3</title>
<g id="a_Node000003"><a xlink:href="../../d5/d16/a01060.html#ab3f9388ff95bda4a8154ed8bc56ab46b" target="_top" xlink:title="Starts the client application.">
<polygon fill="white" stroke="#666666" points="130,-82 1.5,-82 1.5,-50 130,-50 130,-82"/>
<text text-anchor="start" x="9.5" y="-68.5" font-family="Helvetica,sans-Serif" font-size="10.00">Lib::Digi::API::ClientBase</text>
<text text-anchor="middle" x="65.75" y="-56.5" font-family="Helvetica,sans-Serif" font-size="10.00">::start</text>
</a>
</g>
</g>
<!-- Node2&#45;&gt;Node3 -->
<g id="edge2_Node000002_Node000003" class="edge">
<title>Node2&#45;&gt;Node3</title>
<g id="a_edge2_Node000002_Node000003"><a xlink:title=" ">
<path fill="none" stroke="#63b8ff" d="M156.09,-52.38C147.46,-53.7 138.72,-55.03 130.26,-56.32"/>
<polygon fill="#63b8ff" stroke="#63b8ff" points="156.49,-55.86 165.85,-50.89 155.43,-48.94 156.49,-55.86"/>
</a>
</g>
</g>
<!-- Node4 -->
<g id="Node000004" class="node">
<title>Node4</title>
<g id="a_Node000004"><a xlink:href="../../d0/dc8/a01124.html#a5c21f80a2a122ffce04fc6f9548b7d6d" target="_top" xlink:title="Starts the server.">
<polygon fill="white" stroke="#666666" points="131.5,-32 0,-32 0,0 131.5,0 131.5,-32"/>
<text text-anchor="start" x="8" y="-18.5" font-family="Helvetica,sans-Serif" font-size="10.00">Lib::Digi::API::ServerBase</text>
<text text-anchor="middle" x="65.75" y="-6.5" font-family="Helvetica,sans-Serif" font-size="10.00">::start</text>
</a>
</g>
</g>
<!-- Node2&#45;&gt;Node4 -->
<g id="edge3_Node000002_Node000004" class="edge">
<title>Node2&#45;&gt;Node4</title>
<g id="a_edge3_Node000002_Node000004"><a xlink:title=" ">
<path fill="none" stroke="#63b8ff" d="M156.04,-29.61C147.98,-28.38 139.82,-27.14 131.88,-25.93"/>
<polygon fill="#63b8ff" stroke="#63b8ff" points="155.43,-33.06 165.85,-31.11 156.49,-26.14 155.43,-33.06"/>
</a>
</g>
</g>
</g>
</svg>
