<?xml version="1.0" encoding="UTF-8" standalone="no"?>
<!DOCTYPE svg PUBLIC "-//W3C//DTD SVG 1.1//EN"
 "http://www.w3.org/Graphics/SVG/1.1/DTD/svg11.dtd">
<!-- Generated by graphviz version 12.2.1 (20241206.2353)
 -->
<!-- Title: TimerEncoder.hpp Pages: 1 -->
<svg width="344pt" height="84pt"
 viewBox="0.00 0.00 343.75 84.00" xmlns="http://www.w3.org/2000/svg" xmlns:xlink="http://www.w3.org/1999/xlink">
<g id="graph0" class="graph" transform="scale(1 1) rotate(0) translate(4 80)">
<title>TimerEncoder.hpp</title>
<!-- Node1 -->
<g id="Node000001" class="node">
<title>Node1</title>
<g id="a_Node000001"><a xlink:title="Timer class specialization for ENCODER mode.">
<polygon fill="#999999" stroke="#666666" points="243.5,-76 148,-76 148,-56 243.5,-56 243.5,-76"/>
<text text-anchor="middle" x="195.75" y="-62.5" font-family="Helvetica,sans-Serif" font-size="10.00">TimerEncoder.hpp</text>
</a>
</g>
</g>
<!-- Node2 -->
<g id="Node000002" class="node">
<title>Node2</title>
<g id="a_Node000002"><a xlink:title=" ">
<polygon fill="#e0e0e0" stroke="#999999" points="113.5,-20 0,-20 0,0 113.5,0 113.5,-20"/>
<text text-anchor="middle" x="56.75" y="-6.5" font-family="Helvetica,sans-Serif" font-size="10.00">components/Base.hpp</text>
</a>
</g>
</g>
<!-- Node1&#45;&gt;Node2 -->
<g id="edge1_Node000001_Node000002" class="edge">
<title>Node1&#45;&gt;Node2</title>
<g id="a_edge1_Node000001_Node000002"><a xlink:title=" ">
<path fill="none" stroke="#63b8ff" d="M171.54,-55.59C149.45,-47.01 116.55,-34.23 91.63,-24.55"/>
<polygon fill="#63b8ff" stroke="#63b8ff" points="93.15,-21.39 82.56,-21.03 90.62,-27.91 93.15,-21.39"/>
</a>
</g>
</g>
<!-- Node3 -->
<g id="Node000003" class="node">
<title>Node3</title>
<g id="a_Node000003"><a xlink:title=" ">
<polygon fill="#e0e0e0" stroke="#999999" points="260,-20 131.5,-20 131.5,0 260,0 260,-20"/>
<text text-anchor="middle" x="195.75" y="-6.5" font-family="Helvetica,sans-Serif" font-size="10.00">components/template.hpp</text>
</a>
</g>
</g>
<!-- Node1&#45;&gt;Node3 -->
<g id="edge2_Node000001_Node000003" class="edge">
<title>Node1&#45;&gt;Node3</title>
<g id="a_edge2_Node000001_Node000003"><a xlink:title=" ">
<path fill="none" stroke="#63b8ff" d="M195.75,-55.59C195.75,-49.01 195.75,-39.96 195.75,-31.73"/>
<polygon fill="#63b8ff" stroke="#63b8ff" points="199.25,-31.81 195.75,-21.81 192.25,-31.81 199.25,-31.81"/>
</a>
</g>
</g>
<!-- Node4 -->
<g id="Node000004" class="node">
<title>Node4</title>
<g id="a_Node000004"><a xlink:title=" ">
<polygon fill="#e0e0e0" stroke="#999999" points="335.75,-20 277.75,-20 277.75,0 335.75,0 335.75,-20"/>
<text text-anchor="middle" x="306.75" y="-6.5" font-family="Helvetica,sans-Serif" font-size="10.00">functional</text>
</a>
</g>
</g>
<!-- Node1&#45;&gt;Node4 -->
<g id="edge3_Node000001_Node000004" class="edge">
<title>Node1&#45;&gt;Node4</title>
<g id="a_edge3_Node000001_Node000004"><a xlink:title=" ">
<path fill="none" stroke="#63b8ff" d="M215.08,-55.59C232.17,-47.28 257.35,-35.03 277,-25.47"/>
<polygon fill="#63b8ff" stroke="#63b8ff" points="278.44,-28.66 285.9,-21.14 275.38,-22.37 278.44,-28.66"/>
</a>
</g>
</g>
</g>
</svg>
