<?xml version="1.0" encoding="UTF-8" standalone="no"?>
<!DOCTYPE svg PUBLIC "-//W3C//DTD SVG 1.1//EN"
 "http://www.w3.org/Graphics/SVG/1.1/DTD/svg11.dtd">
<!-- Generated by graphviz version 13.1.0 (20250701.0955)
 -->
<!-- Title: ModelSystem::ProduceDates Pages: 1 -->
<svg width="136pt" height="257pt"
 viewBox="0.00 0.00 136.00 257.00" xmlns="http://www.w3.org/2000/svg" xmlns:xlink="http://www.w3.org/1999/xlink">
<g id="graph0" class="graph" transform="scale(1 1) rotate(0) translate(4 253)">
<title>ModelSystem::ProduceDates</title>
<!-- Node1 -->
<g id="Node000001" class="node">
<title>Node1</title>
<g id="a_Node000001"><a xlink:title="Holds production and sale date information for the system.">
<polygon fill="#999999" stroke="none" points="126.5,-47.5 0,-47.5 0,0 126.5,0 126.5,-47.5"/>
<text xml:space="preserve" text-anchor="start" x="4" y="-34.95" font-family="Arial" font-size="9.00">ModelSystem::ProduceDates</text>
<text xml:space="preserve" text-anchor="start" x="62.12" y="-20.45" font-family="Arial" font-size="9.00"> </text>
<text xml:space="preserve" text-anchor="start" x="62.12" y="-5.95" font-family="Arial" font-size="9.00"> </text>
<polygon fill="#666666" stroke="#666666" points="0,-31 0,-31 126.5,-31 126.5,-31 0,-31"/>
<polygon fill="#666666" stroke="#666666" points="0,-16.5 0,-16.5 126.5,-16.5 126.5,-16.5 0,-16.5"/>
<polygon fill="none" stroke="#666666" points="0,0 0,-47.5 126.5,-47.5 126.5,0 0,0"/>
</a>
</g>
</g>
<!-- Node2 -->
<g id="Node000002" class="node">
<title>Node2</title>
<g id="a_Node000002"><a xlink:href="../../d1/deb/class_model_system_1_1_produce_date.html" target="_top" xlink:title="Handles production and sale date information for the system.">
<polygon fill="white" stroke="none" points="124.25,-249 2.25,-249 2.25,-114.5 124.25,-114.5 124.25,-249"/>
<text xml:space="preserve" text-anchor="start" x="6.25" y="-236.45" font-family="Arial" font-size="9.00">ModelSystem::ProduceDate</text>
<text xml:space="preserve" text-anchor="start" x="62.12" y="-221.95" font-family="Arial" font-size="9.00"> </text>
<text xml:space="preserve" text-anchor="start" x="12" y="-207.45" font-family="Arial" font-size="9.00">+</text>
<text xml:space="preserve" text-anchor="start" x="27" y="-207.45" font-family="Arial" font-size="9.00">ProduceDate()</text>
<text xml:space="preserve" text-anchor="start" x="12" y="-192.95" font-family="Arial" font-size="9.00">+</text>
<text xml:space="preserve" text-anchor="start" x="27" y="-192.95" font-family="Arial" font-size="9.00">~ProduceDate()</text>
<text xml:space="preserve" text-anchor="start" x="12" y="-178.45" font-family="Arial" font-size="9.00">+</text>
<text xml:space="preserve" text-anchor="start" x="27" y="-178.45" font-family="Arial" font-size="9.00">operator std::string()</text>
<text xml:space="preserve" text-anchor="start" x="12" y="-163.95" font-family="Arial" font-size="9.00">+</text>
<text xml:space="preserve" text-anchor="start" x="27" y="-163.95" font-family="Arial" font-size="9.00">getColor()</text>
<text xml:space="preserve" text-anchor="start" x="12" y="-149.45" font-family="Arial" font-size="9.00">+</text>
<text xml:space="preserve" text-anchor="start" x="27" y="-149.45" font-family="Arial" font-size="9.00">setDate()</text>
<text xml:space="preserve" text-anchor="start" x="12" y="-134.95" font-family="Arial" font-size="9.00">+</text>
<text xml:space="preserve" text-anchor="start" x="27" y="-134.95" font-family="Arial" font-size="9.00">isEmpty()</text>
<text xml:space="preserve" text-anchor="start" x="12" y="-120.45" font-family="Arial" font-size="9.00">+</text>
<text xml:space="preserve" text-anchor="start" x="27" y="-120.45" font-family="Arial" font-size="9.00">getStatupDate()</text>
<polygon fill="#666666" stroke="#666666" points="2.25,-232.5 2.25,-232.5 124.25,-232.5 124.25,-232.5 2.25,-232.5"/>
<polygon fill="#666666" stroke="#666666" points="2.25,-218 2.25,-218 124.25,-218 124.25,-218 2.25,-218"/>
<polygon fill="none" stroke="#666666" points="2.25,-114.5 2.25,-249 124.25,-249 124.25,-114.5 2.25,-114.5"/>
</a>
</g>
</g>
<!-- Node2&#45;&gt;Node1 -->
<g id="edge1_Node000001_Node000002" class="edge">
<title>Node2&#45;&gt;Node1</title>
<g id="a_edge1_Node000001_Node000002"><a xlink:title=" ">
<path fill="none" stroke="#63b8ff" d="M63.25,-114.59C63.25,-95.78 63.25,-76.02 63.25,-59.84"/>
<polygon fill="none" stroke="#63b8ff" points="63.25,-60.09 59.25,-54.09 63.25,-48.09 67.25,-54.09 63.25,-60.09"/>
</a>
</g>
<text xml:space="preserve" text-anchor="start" x="66.25" y="-84.95" font-family="Arial" font-size="9.00" fill="grey">+produceDate</text>
<text xml:space="preserve" text-anchor="start" x="66.25" y="-70.45" font-family="Arial" font-size="9.00" fill="grey">+saleDate</text>
</g>
</g>
</svg>
