<?xml version="1.0" encoding="UTF-8" standalone="no"?>
<!DOCTYPE svg PUBLIC "-//W3C//DTD SVG 1.1//EN"
 "http://www.w3.org/Graphics/SVG/1.1/DTD/svg11.dtd">
<!-- Generated by graphviz version 13.1.0 (20250701.0955)
 -->
<!-- Title: Lib::HAL::OTP Pages: 1 -->
<svg width="122pt" height="118pt"
 viewBox="0.00 0.00 122.00 118.00" xmlns="http://www.w3.org/2000/svg" xmlns:xlink="http://www.w3.org/1999/xlink">
<g id="graph0" class="graph" transform="scale(1 1) rotate(0) translate(4 114)">
<title>Lib::HAL::OTP</title>
<!-- Node1 -->
<g id="Node000001" class="node">
<title>Node1</title>
<g id="a_Node000001"><a xlink:title="OTP Flash Memory class.">
<polygon fill="#999999" stroke="none" points="72.5,-20 0,-20 0,0 72.5,0 72.5,-20"/>
<text xml:space="preserve" text-anchor="start" x="4" y="-6.5" font-family="Helvetica,sans-Serif" font-size="10.00">Lib::HAL::OTP</text>
<polygon fill="none" stroke="#666666" points="0,0 0,-20 72.5,-20 72.5,0 0,0"/>
</a>
</g>
</g>
<!-- Node2 -->
<g id="Node000002" class="node">
<title>Node2</title>
<g id="a_Node000002"><a xlink:title=" ">
<polygon fill="white" stroke="none" points="53.38,-110 19.12,-110 19.12,-90 53.38,-90 53.38,-110"/>
<text xml:space="preserve" text-anchor="start" x="23.12" y="-96.5" font-family="Helvetica,sans-Serif" font-size="10.00">size_t</text>
<polygon fill="none" stroke="#bfbfbf" points="19.12,-90 19.12,-110 53.38,-110 53.38,-90 19.12,-90"/>
</a>
</g>
</g>
<!-- Node2&#45;&gt;Node1 -->
<g id="edge1_Node000001_Node000002" class="edge">
<title>Node2&#45;&gt;Node1</title>
<g id="a_edge1_Node000001_Node000002"><a xlink:title=" ">
<path fill="none" stroke="#63b8ff" d="M36.25,-90.24C36.25,-77 36.25,-51.47 36.25,-32.96"/>
<polygon fill="none" stroke="#63b8ff" points="36.25,-32.89 32.25,-26.89 36.25,-20.89 40.25,-26.89 36.25,-32.89"/>
</a>
</g>
<text xml:space="preserve" text-anchor="start" x="39.25" y="-59.5" font-family="Helvetica,sans-Serif" font-size="10.00" fill="grey">+OTP_BLOCKS</text>
<text xml:space="preserve" text-anchor="start" x="39.25" y="-43.5" font-family="Helvetica,sans-Serif" font-size="10.00" fill="grey">+OTP_SIZE</text>
</g>
</g>
</svg>
