<?xml version="1.0" encoding="UTF-8" standalone="no"?>
<!DOCTYPE svg PUBLIC "-//W3C//DTD SVG 1.1//EN"
 "http://www.w3.org/Graphics/SVG/1.1/DTD/svg11.dtd">
<!-- Generated by graphviz version 13.1.0 (20250701.0955)
 -->
<!-- Title: Display Pages: 1 -->
<svg width="81pt" height="168pt"
 viewBox="0.00 0.00 81.00 168.00" xmlns="http://www.w3.org/2000/svg" xmlns:xlink="http://www.w3.org/1999/xlink">
<g id="graph0" class="graph" transform="scale(1 1) rotate(0) translate(4 164)">
<title>Display</title>
<!-- Node1 -->
<g id="Node000001" class="node">
<title>Node1</title>
<g id="a_Node000001"><a xlink:title="Hardware abstraction class for the ILI9341 TFT display controller.">
<polygon fill="#999999" stroke="none" points="72.75,-76.5 0,-76.5 0,0 72.75,0 72.75,-76.5"/>
<text xml:space="preserve" text-anchor="start" x="21" y="-63.95" font-family="Arial" font-size="9.00">Display</text>
<text xml:space="preserve" text-anchor="start" x="35.25" y="-49.45" font-family="Arial" font-size="9.00"> </text>
<text xml:space="preserve" text-anchor="start" x="4" y="-34.95" font-family="Arial" font-size="9.00">+</text>
<text xml:space="preserve" text-anchor="start" x="13.25" y="-34.95" font-family="Arial" font-size="9.00">Display()</text>
<text xml:space="preserve" text-anchor="start" x="4" y="-20.45" font-family="Arial" font-size="9.00">+</text>
<text xml:space="preserve" text-anchor="start" x="13.25" y="-20.45" font-family="Arial" font-size="9.00">setBacklight()</text>
<text xml:space="preserve" text-anchor="start" x="4" y="-5.95" font-family="Arial" font-size="9.00">+</text>
<text xml:space="preserve" text-anchor="start" x="13.25" y="-5.95" font-family="Arial" font-size="9.00">setRotation()</text>
<polygon fill="#666666" stroke="#666666" points="0,-60 0,-60 72.75,-60 72.75,-60 0,-60"/>
<polygon fill="#666666" stroke="#666666" points="0,-45.5 0,-45.5 72.75,-45.5 72.75,-45.5 0,-45.5"/>
<polygon fill="none" stroke="#666666" points="0,0 0,-76.5 72.75,-76.5 72.75,0 0,0"/>
</a>
</g>
</g>
<!-- Node2 -->
<g id="Node000002" class="node">
<title>Node2</title>
<g id="a_Node000002"><a xlink:href="../../d1/d05/class_lib_1_1_b_s_p_1_1_display_1_1_i_l_i9341.html" target="_top" xlink:title=" ">
<polygon fill="white" stroke="none" points="55.75,-160 17,-160 17,-112.5 55.75,-112.5 55.75,-160"/>
<text xml:space="preserve" text-anchor="start" x="21" y="-147.45" font-family="Arial" font-size="9.00">ILI9341</text>
<text xml:space="preserve" text-anchor="start" x="35.25" y="-132.95" font-family="Arial" font-size="9.00"> </text>
<text xml:space="preserve" text-anchor="start" x="35.25" y="-118.45" font-family="Arial" font-size="9.00"> </text>
<polygon fill="#bfbfbf" stroke="#bfbfbf" points="17,-143.5 17,-143.5 55.75,-143.5 55.75,-143.5 17,-143.5"/>
<polygon fill="#bfbfbf" stroke="#bfbfbf" points="17,-129 17,-129 55.75,-129 55.75,-129 17,-129"/>
<polygon fill="none" stroke="#bfbfbf" points="17,-112.5 17,-160 55.75,-160 55.75,-112.5 17,-112.5"/>
</a>
</g>
</g>
<!-- Node2&#45;&gt;Node1 -->
<g id="edge1_Node000001_Node000002" class="edge">
<title>Node2&#45;&gt;Node1</title>
<g id="a_edge1_Node000001_Node000002"><a xlink:title=" ">
<path fill="none" stroke="#63b8ff" d="M36.38,-101.62C36.38,-93.48 36.38,-84.73 36.38,-76.43"/>
<polygon fill="none" stroke="#63b8ff" points="32.88,-101.47 36.38,-111.47 39.88,-101.47 32.88,-101.47"/>
</a>
</g>
</g>
</g>
</svg>
