<?xml version="1.0" encoding="UTF-8" standalone="no"?>
<!DOCTYPE svg PUBLIC "-//W3C//DTD SVG 1.1//EN"
 "http://www.w3.org/Graphics/SVG/1.1/DTD/svg11.dtd">
<!-- Generated by graphviz version 12.2.1 (20241206.2353)
 -->
<!-- Title: Lib::HAL::Adc::Interface::getHandle Pages: 1 -->
<svg width="272pt" height="90pt"
 viewBox="0.00 0.00 271.75 90.00" xmlns="http://www.w3.org/2000/svg" xmlns:xlink="http://www.w3.org/1999/xlink">
<g id="graph0" class="graph" transform="scale(1 1) rotate(0) translate(4 86)">
<title>Lib::HAL::Adc::Interface::getHandle</title>
<!-- Node1 -->
<g id="Node000001" class="node">
<title>Node1</title>
<g id="a_Node000001"><a xlink:title="Get the handle object.">
<polygon fill="#999999" stroke="#666666" points="263.75,-57 142,-57 142,-25 263.75,-25 263.75,-57"/>
<text text-anchor="start" x="150" y="-43.5" font-family="Helvetica,sans-Serif" font-size="10.00">Lib::HAL::Adc::Interface</text>
<text text-anchor="middle" x="202.88" y="-31.5" font-family="Helvetica,sans-Serif" font-size="10.00">::getHandle</text>
</a>
</g>
</g>
<!-- Node2 -->
<g id="Node000002" class="node">
<title>Node2</title>
<g id="a_Node000002"><a xlink:href="../../d3/dd5/a00215.html#a8f0cf1079764e4eb8deab1e1075287c1" target="_top" xlink:title="Get the handle of the ADC port.">
<polygon fill="white" stroke="#666666" points="106,-82 0,-82 0,-50 106,-50 106,-82"/>
<text text-anchor="start" x="8" y="-68.5" font-family="Helvetica,sans-Serif" font-size="10.00">Lib::HAL::Adc::Port</text>
<text text-anchor="middle" x="53" y="-56.5" font-family="Helvetica,sans-Serif" font-size="10.00">&lt; DMA &gt;::getHandle</text>
</a>
</g>
</g>
<!-- Node1&#45;&gt;Node2 -->
<g id="edge1_Node000001_Node000002" class="edge">
<title>Node1&#45;&gt;Node2</title>
<g id="a_edge1_Node000001_Node000002"><a xlink:title=" ">
<path fill="none" stroke="#63b8ff" d="M130.4,-53.08C122.35,-54.45 114.25,-55.81 106.5,-57.12"/>
<polygon fill="#63b8ff" stroke="#63b8ff" points="130.96,-56.54 140.24,-51.42 129.79,-49.64 130.96,-56.54"/>
</a>
</g>
</g>
<!-- Node3 -->
<g id="Node000003" class="node">
<title>Node3</title>
<g id="a_Node000003"><a xlink:href="../../dd/df3/a00219.html#a6d1fe9963863689984c467b964cb0324" target="_top" xlink:title="Gets the ADC handle.">
<polygon fill="white" stroke="#666666" points="103.75,-32 2.25,-32 2.25,0 103.75,0 103.75,-32"/>
<text text-anchor="start" x="10.25" y="-18.5" font-family="Helvetica,sans-Serif" font-size="10.00">Lib::HAL::Adc::Port</text>
<text text-anchor="middle" x="53" y="-6.5" font-family="Helvetica,sans-Serif" font-size="10.00">&lt; IT &gt;::getHandle</text>
</a>
</g>
</g>
<!-- Node1&#45;&gt;Node3 -->
<g id="edge2_Node000001_Node000003" class="edge">
<title>Node1&#45;&gt;Node3</title>
<g id="a_edge2_Node000001_Node000003"><a xlink:title=" ">
<path fill="none" stroke="#63b8ff" d="M130.51,-28.94C121.61,-27.43 112.65,-25.92 104.17,-24.48"/>
<polygon fill="#63b8ff" stroke="#63b8ff" points="129.79,-32.36 140.24,-30.58 130.96,-25.46 129.79,-32.36"/>
</a>
</g>
</g>
</g>
</svg>
