<?xml version="1.0" encoding="UTF-8" standalone="no"?>
<!DOCTYPE svg PUBLIC "-//W3C//DTD SVG 1.1//EN"
 "http://www.w3.org/Graphics/SVG/1.1/DTD/svg11.dtd">
<!-- Generated by graphviz version 13.1.0 (20250701.0955)
 -->
<!-- Title: Lib::HAL::GPIO::Pin&lt; Type::INPUT &gt; Pages: 1 -->
<svg width="251pt" height="454pt"
 viewBox="0.00 0.00 251.00 454.00" xmlns="http://www.w3.org/2000/svg" xmlns:xlink="http://www.w3.org/1999/xlink">
<g id="graph0" class="graph" transform="scale(1 1) rotate(0) translate(4 449.5)">
<title>Lib::HAL::GPIO::Pin&lt; Type::INPUT &gt;</title>
<!-- Node1 -->
<g id="Node000001" class="node">
<title>Node1</title>
<g id="a_Node000001"><a xlink:title="GPIO input pin specialization.">
<polygon fill="#999999" stroke="none" points="178.5,-217.5 91,-217.5 91,0 178.5,0 178.5,-217.5"/>
<text xml:space="preserve" text-anchor="start" x="95" y="-204.95" font-family="Arial" font-size="9.00">Lib::HAL::GPIO::Pin</text>
<text xml:space="preserve" text-anchor="start" x="101.38" y="-194.45" font-family="Arial" font-size="9.00">&lt; Type::INPUT &gt;</text>
<text xml:space="preserve" text-anchor="start" x="133.62" y="-179.95" font-family="Arial" font-size="9.00"> </text>
<text xml:space="preserve" text-anchor="start" x="97.38" y="-165.45" font-family="Arial" font-size="9.00">+</text>
<text xml:space="preserve" text-anchor="start" x="109" y="-165.45" font-family="Arial" font-size="9.00">Pin()</text>
<text xml:space="preserve" text-anchor="start" x="97.38" y="-150.95" font-family="Arial" font-size="9.00">+</text>
<text xml:space="preserve" text-anchor="start" x="109" y="-150.95" font-family="Arial" font-size="9.00">Pin()</text>
<text xml:space="preserve" text-anchor="start" x="97.38" y="-136.45" font-family="Arial" font-size="9.00">+</text>
<text xml:space="preserve" text-anchor="start" x="109" y="-136.45" font-family="Arial" font-size="9.00">Pin()</text>
<text xml:space="preserve" text-anchor="start" x="97.38" y="-121.95" font-family="Arial" font-size="9.00">+</text>
<text xml:space="preserve" text-anchor="start" x="109" y="-121.95" font-family="Arial" font-size="9.00">Pin()</text>
<text xml:space="preserve" text-anchor="start" x="97.38" y="-107.45" font-family="Arial" font-size="9.00">+</text>
<text xml:space="preserve" text-anchor="start" x="109" y="-107.45" font-family="Arial" font-size="9.00">Pin()</text>
<text xml:space="preserve" text-anchor="start" x="97.38" y="-92.95" font-family="Arial" font-size="9.00">+</text>
<text xml:space="preserve" text-anchor="start" x="109" y="-92.95" font-family="Arial" font-size="9.00">~Pin()</text>
<text xml:space="preserve" text-anchor="start" x="97.38" y="-78.45" font-family="Arial" font-size="9.00">+</text>
<text xml:space="preserve" text-anchor="start" x="109" y="-78.45" font-family="Arial" font-size="9.00">operator=()</text>
<text xml:space="preserve" text-anchor="start" x="97.38" y="-63.95" font-family="Arial" font-size="9.00">+</text>
<text xml:space="preserve" text-anchor="start" x="109" y="-63.95" font-family="Arial" font-size="9.00">operator bool()</text>
<text xml:space="preserve" text-anchor="start" x="97.38" y="-49.45" font-family="Arial" font-size="9.00">+</text>
<text xml:space="preserve" text-anchor="start" x="109" y="-49.45" font-family="Arial" font-size="9.00">operator==()</text>
<text xml:space="preserve" text-anchor="start" x="97.38" y="-34.95" font-family="Arial" font-size="9.00">+</text>
<text xml:space="preserve" text-anchor="start" x="109" y="-34.95" font-family="Arial" font-size="9.00">read()</text>
<text xml:space="preserve" text-anchor="start" x="97.38" y="-20.45" font-family="Arial" font-size="9.00">+</text>
<text xml:space="preserve" text-anchor="start" x="109" y="-20.45" font-family="Arial" font-size="9.00">getHandle()</text>
<text xml:space="preserve" text-anchor="start" x="97.38" y="-5.95" font-family="Arial" font-size="9.00">+</text>
<text xml:space="preserve" text-anchor="start" x="109" y="-5.95" font-family="Arial" font-size="9.00">setMode()</text>
<polygon fill="#666666" stroke="#666666" points="91,-190.5 91,-190.5 178.5,-190.5 178.5,-190.5 91,-190.5"/>
<polygon fill="#666666" stroke="#666666" points="91,-176 91,-176 178.5,-176 178.5,-176 91,-176"/>
<polygon fill="none" stroke="#666666" points="91,0 91,-217.5 178.5,-217.5 178.5,0 91,0"/>
</a>
</g>
</g>
<!-- Node2 -->
<g id="Node000002" class="node">
<title>Node2</title>
<g id="a_Node000002"><a xlink:href="../../d2/dc1/a01562.html" target="_top" xlink:title="GPIO pin handle abstraction.">
<polygon fill="white" stroke="none" points="127.75,-345.5 23.75,-345.5 23.75,-254.5 127.75,-254.5 127.75,-345.5"/>
<text xml:space="preserve" text-anchor="start" x="27.75" y="-332.95" font-family="Arial" font-size="9.00">Lib::HAL::GPIO::Handle</text>
<text xml:space="preserve" text-anchor="start" x="74.62" y="-318.45" font-family="Arial" font-size="9.00"> </text>
<text xml:space="preserve" text-anchor="start" x="36.69" y="-303.95" font-family="Arial" font-size="9.00">+</text>
<text xml:space="preserve" text-anchor="start" x="54.88" y="-303.95" font-family="Arial" font-size="9.00">Handle()</text>
<text xml:space="preserve" text-anchor="start" x="36.69" y="-289.45" font-family="Arial" font-size="9.00">+</text>
<text xml:space="preserve" text-anchor="start" x="54.88" y="-289.45" font-family="Arial" font-size="9.00">Handle()</text>
<text xml:space="preserve" text-anchor="start" x="36.69" y="-274.95" font-family="Arial" font-size="9.00">+</text>
<text xml:space="preserve" text-anchor="start" x="54.88" y="-274.95" font-family="Arial" font-size="9.00">~Handle()</text>
<text xml:space="preserve" text-anchor="start" x="36.69" y="-260.45" font-family="Arial" font-size="9.00">+</text>
<text xml:space="preserve" text-anchor="start" x="54.88" y="-260.45" font-family="Arial" font-size="9.00">operator==()</text>
<polygon fill="#666666" stroke="#666666" points="23.75,-329 23.75,-329 127.75,-329 127.75,-329 23.75,-329"/>
<polygon fill="#666666" stroke="#666666" points="23.75,-314.5 23.75,-314.5 127.75,-314.5 127.75,-314.5 23.75,-314.5"/>
<polygon fill="none" stroke="#666666" points="23.75,-254.5 23.75,-345.5 127.75,-345.5 127.75,-254.5 23.75,-254.5"/>
</a>
</g>
</g>
<!-- Node2&#45;&gt;Node1 -->
<g id="edge1_Node000001_Node000002" class="edge">
<title>Node2&#45;&gt;Node1</title>
<g id="a_edge1_Node000001_Node000002"><a xlink:title=" ">
<path fill="none" stroke="#63b8ff" d="M92.93,-243.89C95.55,-235.48 98.33,-226.56 101.16,-217.48"/>
<polygon fill="none" stroke="#63b8ff" points="89.67,-242.6 90.03,-253.18 96.35,-244.68 89.67,-242.6"/>
</a>
</g>
</g>
<!-- Node3 -->
<g id="Node000003" class="node">
<title>Node3</title>
<g id="a_Node000003"><a xlink:title=" ">
<polygon fill="white" stroke="none" points="75.5,-445.5 0,-445.5 0,-398 75.5,-398 75.5,-445.5"/>
<text xml:space="preserve" text-anchor="start" x="4" y="-432.95" font-family="Arial" font-size="9.00">GPIO_TypeDef *</text>
<text xml:space="preserve" text-anchor="start" x="36.62" y="-418.45" font-family="Arial" font-size="9.00"> </text>
<text xml:space="preserve" text-anchor="start" x="36.62" y="-403.95" font-family="Arial" font-size="9.00"> </text>
<polygon fill="#bfbfbf" stroke="#bfbfbf" points="0,-429 0,-429 75.5,-429 75.5,-429 0,-429"/>
<polygon fill="#bfbfbf" stroke="#bfbfbf" points="0,-414.5 0,-414.5 75.5,-414.5 75.5,-414.5 0,-414.5"/>
<polygon fill="none" stroke="#bfbfbf" points="0,-398 0,-445.5 75.5,-445.5 75.5,-398 0,-398"/>
</a>
</g>
</g>
<!-- Node3&#45;&gt;Node2 -->
<g id="edge2_Node000002_Node000003" class="edge">
<title>Node3&#45;&gt;Node2</title>
<g id="a_edge2_Node000002_Node000003"><a xlink:title=" ">
<path fill="none" stroke="#63b8ff" d="M44.9,-398.23C48.59,-386.58 53.28,-371.8 57.89,-357.3"/>
<polygon fill="none" stroke="#63b8ff" points="57.8,-357.55 55.81,-350.62 61.43,-346.11 63.43,-353.04 57.8,-357.55"/>
</a>
</g>
<text xml:space="preserve" text-anchor="start" x="58.61" y="-368.45" font-family="Arial" font-size="9.00" fill="grey">+port</text>
</g>
<!-- Node4 -->
<g id="Node000004" class="node">
<title>Node4</title>
<g id="a_Node000004"><a xlink:title=" ">
<polygon fill="white" stroke="none" points="134.25,-445.5 93.25,-445.5 93.25,-398 134.25,-398 134.25,-445.5"/>
<text xml:space="preserve" text-anchor="start" x="97.25" y="-432.95" font-family="Arial" font-size="9.00">uint16_t</text>
<text xml:space="preserve" text-anchor="start" x="112.62" y="-418.45" font-family="Arial" font-size="9.00"> </text>
<text xml:space="preserve" text-anchor="start" x="112.62" y="-403.95" font-family="Arial" font-size="9.00"> </text>
<polygon fill="#bfbfbf" stroke="#bfbfbf" points="93.25,-429 93.25,-429 134.25,-429 134.25,-429 93.25,-429"/>
<polygon fill="#bfbfbf" stroke="#bfbfbf" points="93.25,-414.5 93.25,-414.5 134.25,-414.5 134.25,-414.5 93.25,-414.5"/>
<polygon fill="none" stroke="#bfbfbf" points="93.25,-398 93.25,-445.5 134.25,-445.5 134.25,-398 93.25,-398"/>
</a>
</g>
</g>
<!-- Node4&#45;&gt;Node2 -->
<g id="edge3_Node000002_Node000004" class="edge">
<title>Node4&#45;&gt;Node2</title>
<g id="a_edge3_Node000002_Node000004"><a xlink:title=" ">
<path fill="none" stroke="#63b8ff" d="M106.6,-398.23C102.91,-386.58 98.22,-371.8 93.61,-357.3"/>
<polygon fill="none" stroke="#63b8ff" points="93.7,-357.55 88.07,-353.04 90.07,-346.11 95.69,-350.62 93.7,-357.55"/>
</a>
</g>
<text xml:space="preserve" text-anchor="start" x="103.37" y="-368.45" font-family="Arial" font-size="9.00" fill="grey">+number</text>
</g>
<!-- Node5 -->
<g id="Node000005" class="node">
<title>Node5</title>
<g id="a_Node000005"><a xlink:href="../../d9/da1/a01546.html" target="_top" xlink:title="GPIO mode configuration class.">
<polygon fill="white" stroke="none" points="243.38,-323.75 146.12,-323.75 146.12,-276.25 243.38,-276.25 243.38,-323.75"/>
<text xml:space="preserve" text-anchor="start" x="150.12" y="-311.2" font-family="Arial" font-size="9.00">Lib::HAL::GPIO::Mode</text>
<text xml:space="preserve" text-anchor="start" x="193.62" y="-296.7" font-family="Arial" font-size="9.00"> </text>
<text xml:space="preserve" text-anchor="start" x="159.81" y="-282.2" font-family="Arial" font-size="9.00">+</text>
<text xml:space="preserve" text-anchor="start" x="178.75" y="-282.2" font-family="Arial" font-size="9.00">setMode()</text>
<polygon fill="#666666" stroke="#666666" points="146.12,-307.25 146.12,-307.25 243.38,-307.25 243.38,-307.25 146.12,-307.25"/>
<polygon fill="#666666" stroke="#666666" points="146.12,-292.75 146.12,-292.75 243.38,-292.75 243.38,-292.75 146.12,-292.75"/>
<polygon fill="none" stroke="#666666" points="146.12,-276.25 146.12,-323.75 243.38,-323.75 243.38,-276.25 146.12,-276.25"/>
</a>
</g>
</g>
<!-- Node5&#45;&gt;Node1 -->
<g id="edge4_Node000001_Node000005" class="edge">
<title>Node5&#45;&gt;Node1</title>
<g id="a_edge4_Node000001_Node000005"><a xlink:title=" ">
<path fill="none" stroke="#8b1a1a" d="M184.19,-265.69C179.8,-251.84 174.43,-234.91 168.87,-217.38"/>
<polygon fill="none" stroke="#8b1a1a" points="180.82,-266.63 187.17,-275.1 187.49,-264.51 180.82,-266.63"/>
</a>
</g>
</g>
</g>
</svg>
