<?xml version="1.0" encoding="UTF-8" standalone="no"?>
<!DOCTYPE svg PUBLIC "-//W3C//DTD SVG 1.1//EN"
 "http://www.w3.org/Graphics/SVG/1.1/DTD/svg11.dtd">
<!-- Generated by graphviz version 13.1.0 (20250701.0955)
 -->
<!-- Title: RTOS::Kernel::delaySeconds Pages: 1 -->
<svg width="718pt" height="66pt"
 viewBox="0.00 0.00 718.00 66.00" xmlns="http://www.w3.org/2000/svg" xmlns:xlink="http://www.w3.org/1999/xlink">
<g id="graph0" class="graph" transform="scale(1 1) rotate(0) translate(4 62)">
<title>RTOS::Kernel::delaySeconds</title>
<!-- Node1 -->
<g id="Node000001" class="node">
<title>Node1</title>
<g id="a_Node000001"><a xlink:title="Delays current task by seconds.">
<polygon fill="#999999" stroke="#666666" points="144.25,-39 0,-39 0,-19 144.25,-19 144.25,-39"/>
<text xml:space="preserve" text-anchor="middle" x="72.12" y="-25.5" font-family="Helvetica,sans-Serif" font-size="10.00">RTOS::Kernel::delaySeconds</text>
</a>
</g>
</g>
<!-- Node2 -->
<g id="Node000002" class="node">
<title>Node2</title>
<g id="a_Node000002"><a xlink:href="../../d4/d93/class_r_t_o_s_1_1_kernel.html#ae3ea57199fa9aa21eb52b7af62f7e121" target="_top" xlink:title="Delays current task by milliseconds.">
<polygon fill="white" stroke="#666666" points="299.75,-39 180.25,-39 180.25,-19 299.75,-19 299.75,-39"/>
<text xml:space="preserve" text-anchor="middle" x="240" y="-25.5" font-family="Helvetica,sans-Serif" font-size="10.00">RTOS::Kernel::delayMs</text>
</a>
</g>
</g>
<!-- Node1&#45;&gt;Node2 -->
<g id="edge1_Node000001_Node000002" class="edge">
<title>Node1&#45;&gt;Node2</title>
<g id="a_edge1_Node000001_Node000002"><a xlink:title=" ">
<path fill="none" stroke="#63b8ff" d="M144.43,-29C152.4,-29 160.51,-29 168.46,-29"/>
<polygon fill="#63b8ff" stroke="#63b8ff" points="168.46,-32.5 178.46,-29 168.46,-25.5 168.46,-32.5"/>
</a>
</g>
</g>
<!-- Node3 -->
<g id="Node000003" class="node">
<title>Node3</title>
<g id="a_Node000003"><a xlink:href="../../d4/d93/class_r_t_o_s_1_1_kernel.html#ac3f87382b3db41f47ca618c70803c758" target="_top" xlink:title="Delays current task by ticks.">
<polygon fill="white" stroke="#666666" points="466.88,-58 360.88,-58 360.88,-38 466.88,-38 466.88,-58"/>
<text xml:space="preserve" text-anchor="middle" x="413.88" y="-44.5" font-family="Helvetica,sans-Serif" font-size="10.00">RTOS::Kernel::delay</text>
</a>
</g>
</g>
<!-- Node2&#45;&gt;Node3 -->
<g id="edge2_Node000002_Node000003" class="edge">
<title>Node2&#45;&gt;Node3</title>
<g id="a_edge2_Node000002_Node000003"><a xlink:title=" ">
<path fill="none" stroke="#63b8ff" d="M300.15,-35.54C315.93,-37.28 333.06,-39.18 349.08,-40.95"/>
<polygon fill="#63b8ff" stroke="#63b8ff" points="348.69,-44.43 359.01,-42.05 349.46,-37.47 348.69,-44.43"/>
</a>
</g>
</g>
<!-- Node4 -->
<g id="Node000004" class="node">
<title>Node4</title>
<g id="a_Node000004"><a xlink:href="../../da/d2c/class_r_t_o_s_1_1_tick_counter.html#ac0cef5f74597d9fd2e71b9eed937365d" target="_top" xlink:title="Convert milliseconds to ticks.">
<polygon fill="white" stroke="#666666" points="492,-20 335.75,-20 335.75,0 492,0 492,-20"/>
<text xml:space="preserve" text-anchor="middle" x="413.88" y="-6.5" font-family="Helvetica,sans-Serif" font-size="10.00">RTOS::TickCounter::msToTicks</text>
</a>
</g>
</g>
<!-- Node2&#45;&gt;Node4 -->
<g id="edge3_Node000002_Node000004" class="edge">
<title>Node2&#45;&gt;Node4</title>
<g id="a_edge3_Node000002_Node000004"><a xlink:title=" ">
<path fill="none" stroke="#63b8ff" d="M300.15,-22.46C307.87,-21.61 315.91,-20.72 323.99,-19.83"/>
<polygon fill="#63b8ff" stroke="#63b8ff" points="324.35,-23.31 333.9,-18.73 323.58,-16.35 324.35,-23.31"/>
</a>
</g>
</g>
<!-- Node5 -->
<g id="Node000005" class="node">
<title>Node5</title>
<g id="a_Node000005"><a xlink:href="../../da/d2c/class_r_t_o_s_1_1_tick_counter.html#aa4f09aa2584d95ea6f0d171179c54b24" target="_top" xlink:title="Get tick period in milliseconds.">
<polygon fill="white" stroke="#666666" points="709.75,-20 528,-20 528,0 709.75,0 709.75,-20"/>
<text xml:space="preserve" text-anchor="middle" x="618.88" y="-6.5" font-family="Helvetica,sans-Serif" font-size="10.00">RTOS::TickCounter::getTickPeriodMs</text>
</a>
</g>
</g>
<!-- Node4&#45;&gt;Node5 -->
<g id="edge4_Node000004_Node000005" class="edge">
<title>Node4&#45;&gt;Node5</title>
<g id="a_edge4_Node000004_Node000005"><a xlink:title=" ">
<path fill="none" stroke="#63b8ff" d="M492.49,-10C500.33,-10 508.36,-10 516.4,-10"/>
<polygon fill="#63b8ff" stroke="#63b8ff" points="516.23,-13.5 526.23,-10 516.23,-6.5 516.23,-13.5"/>
</a>
</g>
</g>
</g>
</svg>
