<?xml version="1.0" encoding="UTF-8" standalone="no"?>
<!DOCTYPE svg PUBLIC "-//W3C//DTD SVG 1.1//EN"
 "http://www.w3.org/Graphics/SVG/1.1/DTD/svg11.dtd">
<!-- Generated by graphviz version 13.1.0 (20250701.0955)
 -->
<!-- Title: RTOS::Kernel::getNumberOfTasks Pages: 1 -->
<svg width="374pt" height="66pt"
 viewBox="0.00 0.00 374.00 66.00" xmlns="http://www.w3.org/2000/svg" xmlns:xlink="http://www.w3.org/1999/xlink">
<g id="graph0" class="graph" transform="scale(1 1) rotate(0) translate(4 62)">
<title>RTOS::Kernel::getNumberOfTasks</title>
<!-- Node1 -->
<g id="Node000001" class="node">
<title>Node1</title>
<g id="a_Node000001"><a xlink:title="Gets number of running tasks.">
<polygon fill="#999999" stroke="#666666" points="365.75,-39 198.25,-39 198.25,-19 365.75,-19 365.75,-39"/>
<text xml:space="preserve" text-anchor="middle" x="282" y="-25.5" font-family="Helvetica,sans-Serif" font-size="10.00">RTOS::Kernel::getNumberOfTasks</text>
</a>
</g>
</g>
<!-- Node2 -->
<g id="Node000002" class="node">
<title>Node2</title>
<g id="a_Node000002"><a xlink:href="../../d4/d93/class_r_t_o_s_1_1_kernel.html#a0b717023d98e4d7df1501c7961f36221" target="_top" xlink:title="Gets maximum task count.">
<polygon fill="white" stroke="#666666" points="162.25,-58 0,-58 0,-38 162.25,-38 162.25,-58"/>
<text xml:space="preserve" text-anchor="middle" x="81.12" y="-44.5" font-family="Helvetica,sans-Serif" font-size="10.00">RTOS::Kernel::getMaxTaskCount</text>
</a>
</g>
</g>
<!-- Node1&#45;&gt;Node2 -->
<g id="edge1_Node000001_Node000002" class="edge">
<title>Node1&#45;&gt;Node2</title>
<g id="a_edge1_Node000001_Node000002"><a xlink:title=" ">
<path fill="none" stroke="#63b8ff" d="M186.49,-38.03C178.44,-38.8 170.35,-39.57 162.43,-40.33"/>
<polygon fill="#63b8ff" stroke="#63b8ff" points="186.68,-41.53 196.3,-37.09 186.02,-34.56 186.68,-41.53"/>
</a>
</g>
</g>
<!-- Node3 -->
<g id="Node000003" class="node">
<title>Node3</title>
<g id="a_Node000003"><a xlink:href="../../d4/d93/class_r_t_o_s_1_1_kernel.html#a99ee8d57d81ca5d469c839e8beee1d5b" target="_top" xlink:title="Checks if there are running tasks.">
<polygon fill="white" stroke="#666666" points="161.5,-20 0.75,-20 0.75,0 161.5,0 161.5,-20"/>
<text xml:space="preserve" text-anchor="middle" x="81.12" y="-6.5" font-family="Helvetica,sans-Serif" font-size="10.00">RTOS::Kernel::hasRunningTasks</text>
</a>
</g>
</g>
<!-- Node1&#45;&gt;Node3 -->
<g id="edge2_Node000001_Node000003" class="edge">
<title>Node1&#45;&gt;Node3</title>
<g id="a_edge2_Node000001_Node000003"><a xlink:title=" ">
<path fill="none" stroke="#63b8ff" d="M186.56,-19.98C178.28,-19.19 169.95,-18.39 161.8,-17.61"/>
<polygon fill="#63b8ff" stroke="#63b8ff" points="186.02,-23.44 196.3,-20.91 186.68,-16.47 186.02,-23.44"/>
</a>
</g>
</g>
</g>
</svg>
