<?xml version="1.0" encoding="UTF-8" standalone="no"?>
<!DOCTYPE svg PUBLIC "-//W3C//DTD SVG 1.1//EN"
 "http://www.w3.org/Graphics/SVG/1.1/DTD/svg11.dtd">
<!-- Generated by graphviz version 13.1.0 (20250701.0955)
 -->
<!-- Title: RTOS::EventGroup::setBits Pages: 1 -->
<svg width="504pt" height="28pt"
 viewBox="0.00 0.00 504.00 28.00" xmlns="http://www.w3.org/2000/svg" xmlns:xlink="http://www.w3.org/1999/xlink">
<g id="graph0" class="graph" transform="scale(1 1) rotate(0) translate(4 24)">
<title>RTOS::EventGroup::setBits</title>
<!-- Node1 -->
<g id="Node000001" class="node">
<title>Node1</title>
<g id="a_Node000001"><a xlink:title="Sets multiple event bits by indices.">
<polygon fill="#999999" stroke="#666666" points="137.5,-20 0,-20 0,0 137.5,0 137.5,-20"/>
<text xml:space="preserve" text-anchor="middle" x="68.75" y="-6.5" font-family="Helvetica,sans-Serif" font-size="10.00">RTOS::EventGroup::setBits</text>
</a>
</g>
</g>
<!-- Node2 -->
<g id="Node000002" class="node">
<title>Node2</title>
<g id="a_Node000002"><a xlink:href="../../d9/d47/a00129.html#ad322ef154bfb1a2b05efe1fd53100ce1" target="_top" xlink:title="Sets event bits from task context.">
<polygon fill="white" stroke="#666666" points="311,-20 173.5,-20 173.5,0 311,0 311,-20"/>
<text xml:space="preserve" text-anchor="middle" x="242.25" y="-6.5" font-family="Helvetica,sans-Serif" font-size="10.00">RTOS::EventGroup::setBits</text>
</a>
</g>
</g>
<!-- Node1&#45;&gt;Node2 -->
<g id="edge1_Node000001_Node000002" class="edge">
<title>Node1&#45;&gt;Node2</title>
<g id="a_edge1_Node000001_Node000002"><a xlink:title=" ">
<path fill="none" stroke="#63b8ff" d="M137.53,-10C145.49,-10 153.66,-10 161.75,-10"/>
<polygon fill="#63b8ff" stroke="#63b8ff" points="161.6,-13.5 171.6,-10 161.6,-6.5 161.6,-13.5"/>
</a>
</g>
</g>
<!-- Node3 -->
<g id="Node000003" class="node">
<title>Node3</title>
<g id="a_Node000003"><a xlink:href="../../d9/d47/a00129.html#ae08389e11d83cf7dfc460d5f2fa0dc27" target="_top" xlink:title="Checks if event group is created.">
<polygon fill="white" stroke="#666666" points="495.75,-20 347,-20 347,0 495.75,0 495.75,-20"/>
<text xml:space="preserve" text-anchor="middle" x="421.38" y="-6.5" font-family="Helvetica,sans-Serif" font-size="10.00">RTOS::EventGroup::isCreated</text>
</a>
</g>
</g>
<!-- Node2&#45;&gt;Node3 -->
<g id="edge2_Node000002_Node000003" class="edge">
<title>Node2&#45;&gt;Node3</title>
<g id="a_edge2_Node000002_Node000003"><a xlink:title=" ">
<path fill="none" stroke="#63b8ff" d="M311.48,-10C319.29,-10 327.33,-10 335.33,-10"/>
<polygon fill="#63b8ff" stroke="#63b8ff" points="335.08,-13.5 345.08,-10 335.08,-6.5 335.08,-13.5"/>
</a>
</g>
</g>
</g>
</svg>
