<?xml version="1.0" encoding="UTF-8" standalone="no"?>
<!DOCTYPE svg PUBLIC "-//W3C//DTD SVG 1.1//EN"
 "http://www.w3.org/Graphics/SVG/1.1/DTD/svg11.dtd">
<!-- Generated by graphviz version 13.1.0 (20250701.0955)
 -->
<!-- Title: RTOS::EventGroup::syncBits Pages: 1 -->
<svg width="348pt" height="66pt"
 viewBox="0.00 0.00 348.00 66.00" xmlns="http://www.w3.org/2000/svg" xmlns:xlink="http://www.w3.org/1999/xlink">
<g id="graph0" class="graph" transform="scale(1 1) rotate(0) translate(4 62)">
<title>RTOS::EventGroup::syncBits</title>
<!-- Node1 -->
<g id="Node000001" class="node">
<title>Node1</title>
<g id="a_Node000001"><a xlink:title="Synchronizes event bits with enhanced parameters.">
<polygon fill="#999999" stroke="#666666" points="339.5,-39 194.5,-39 194.5,-19 339.5,-19 339.5,-39"/>
<text xml:space="preserve" text-anchor="middle" x="267" y="-25.5" font-family="Helvetica,sans-Serif" font-size="10.00">RTOS::EventGroup::syncBits</text>
</a>
</g>
</g>
<!-- Node2 -->
<g id="Node000002" class="node">
<title>Node2</title>
<g id="a_Node000002"><a xlink:href="../../d9/d47/a00129.html#ae94a3859c7084a1a914055f9a0e60f80" target="_top" xlink:title="Synchronizes single bits by index.">
<polygon fill="white" stroke="#666666" points="149.12,-58 9.38,-58 9.38,-38 149.12,-38 149.12,-58"/>
<text xml:space="preserve" text-anchor="middle" x="79.25" y="-44.5" font-family="Helvetica,sans-Serif" font-size="10.00">RTOS::EventGroup::syncBit</text>
</a>
</g>
</g>
<!-- Node1&#45;&gt;Node2 -->
<g id="edge1_Node000001_Node000002" class="edge">
<title>Node1&#45;&gt;Node2</title>
<g id="a_edge1_Node000001_Node000002"><a xlink:title=" ">
<path fill="none" stroke="#63b8ff" d="M183.04,-37.49C171.81,-38.63 160.39,-39.8 149.43,-40.92"/>
<polygon fill="#63b8ff" stroke="#63b8ff" points="183.09,-41 192.68,-36.5 182.37,-34.04 183.09,-41"/>
</a>
</g>
</g>
<!-- Node3 -->
<g id="Node000003" class="node">
<title>Node3</title>
<g id="a_Node000003"><a xlink:href="../../d9/d47/a00129.html#ad413c8bdb65daf4f54463989c9c9d22c" target="_top" xlink:title="Synchronizes event bits with millisecond timeout.">
<polygon fill="white" stroke="#666666" points="158.5,-20 0,-20 0,0 158.5,0 158.5,-20"/>
<text xml:space="preserve" text-anchor="middle" x="79.25" y="-6.5" font-family="Helvetica,sans-Serif" font-size="10.00">RTOS::EventGroup::syncBitsMs</text>
</a>
</g>
</g>
<!-- Node1&#45;&gt;Node3 -->
<g id="edge2_Node000001_Node000003" class="edge">
<title>Node1&#45;&gt;Node3</title>
<g id="a_edge2_Node000001_Node000003"><a xlink:title=" ">
<path fill="none" stroke="#63b8ff" d="M182.98,-20.51C175,-19.69 166.91,-18.86 158.97,-18.05"/>
<polygon fill="#63b8ff" stroke="#63b8ff" points="182.37,-23.96 192.68,-21.5 183.09,-17 182.37,-23.96"/>
</a>
</g>
</g>
</g>
</svg>
