<?xml version="1.0" encoding="UTF-8" standalone="no"?>
<!DOCTYPE svg PUBLIC "-//W3C//DTD SVG 1.1//EN"
 "http://www.w3.org/Graphics/SVG/1.1/DTD/svg11.dtd">
<!-- Generated by graphviz version 13.1.0 (20250701.0955)
 -->
<!-- Title: RTOS::Semaphore::operator bool Pages: 1 -->
<svg width="556pt" height="28pt"
 viewBox="0.00 0.00 556.00 28.00" xmlns="http://www.w3.org/2000/svg" xmlns:xlink="http://www.w3.org/1999/xlink">
<g id="graph0" class="graph" transform="scale(1 1) rotate(0) translate(4 24)">
<title>RTOS::Semaphore::operator bool</title>
<!-- Node1 -->
<g id="Node000001" class="node">
<title>Node1</title>
<g id="a_Node000001"><a xlink:title="Conversion operator to bool.">
<polygon fill="#999999" stroke="#666666" points="160.75,-20 0,-20 0,0 160.75,0 160.75,-20"/>
<text xml:space="preserve" text-anchor="middle" x="80.38" y="-6.5" font-family="Helvetica,sans-Serif" font-size="10.00">RTOS::Semaphore::operator bool</text>
</a>
</g>
</g>
<!-- Node2 -->
<g id="Node000002" class="node">
<title>Node2</title>
<g id="a_Node000002"><a xlink:href="../../d3/de9/class_r_t_o_s_1_1_semaphore.html#a7bb707649b575ed1941950f740df148e" target="_top" xlink:title="Checks if the semaphore is created.">
<polygon fill="white" stroke="#666666" points="343.25,-20 196.75,-20 196.75,0 343.25,0 343.25,-20"/>
<text xml:space="preserve" text-anchor="middle" x="270" y="-6.5" font-family="Helvetica,sans-Serif" font-size="10.00">RTOS::Semaphore::isCreated</text>
</a>
</g>
</g>
<!-- Node1&#45;&gt;Node2 -->
<g id="edge1_Node000001_Node000002" class="edge">
<title>Node1&#45;&gt;Node2</title>
<g id="a_edge1_Node000001_Node000002"><a xlink:title=" ">
<path fill="none" stroke="#63b8ff" d="M161.22,-10C169.06,-10 177.03,-10 184.91,-10"/>
<polygon fill="#63b8ff" stroke="#63b8ff" points="184.85,-13.5 194.85,-10 184.85,-6.5 184.85,-13.5"/>
</a>
</g>
</g>
<!-- Node3 -->
<g id="Node000003" class="node">
<title>Node3</title>
<g id="a_Node000003"><a xlink:href="../../dd/da2/class_r_t_o_s_1_1_semaphore_base.html#ae9372de7c41e0f8e345c87df0f90c60a" target="_top" xlink:title="Checks if the semaphore is created.">
<polygon fill="white" stroke="#666666" points="548.25,-20 379.25,-20 379.25,0 548.25,0 548.25,-20"/>
<text xml:space="preserve" text-anchor="middle" x="463.75" y="-6.5" font-family="Helvetica,sans-Serif" font-size="10.00">RTOS::SemaphoreBase::isCreated</text>
</a>
</g>
</g>
<!-- Node2&#45;&gt;Node3 -->
<g id="edge2_Node000002_Node000003" class="edge">
<title>Node2&#45;&gt;Node3</title>
<g id="a_edge2_Node000002_Node000003"><a xlink:title=" ">
<path fill="none" stroke="#63b8ff" d="M343.49,-10C351.35,-10 359.43,-10 367.5,-10"/>
<polygon fill="#63b8ff" stroke="#63b8ff" points="367.38,-13.5 377.38,-10 367.38,-6.5 367.38,-13.5"/>
</a>
</g>
</g>
</g>
</svg>
