<?xml version="1.0" encoding="UTF-8" standalone="no"?>
<!DOCTYPE svg PUBLIC "-//W3C//DTD SVG 1.1//EN"
 "http://www.w3.org/Graphics/SVG/1.1/DTD/svg11.dtd">
<!-- Generated by graphviz version 13.1.0 (20250701.0955)
 -->
<!-- Title: RTOS::Semaphore::isValid Pages: 1 -->
<svg width="529pt" height="28pt"
 viewBox="0.00 0.00 529.00 28.00" xmlns="http://www.w3.org/2000/svg" xmlns:xlink="http://www.w3.org/1999/xlink">
<g id="graph0" class="graph" transform="scale(1 1) rotate(0) translate(4 24)">
<title>RTOS::Semaphore::isValid</title>
<!-- Node1 -->
<g id="Node000001" class="node">
<title>Node1</title>
<g id="a_Node000001"><a xlink:title="Checks if the semaphore is valid.">
<polygon fill="#999999" stroke="#666666" points="133,-20 0,-20 0,0 133,0 133,-20"/>
<text xml:space="preserve" text-anchor="middle" x="66.5" y="-6.5" font-family="Helvetica,sans-Serif" font-size="10.00">RTOS::Semaphore::isValid</text>
</a>
</g>
</g>
<!-- Node2 -->
<g id="Node000002" class="node">
<title>Node2</title>
<g id="a_Node000002"><a xlink:href="../../d3/de9/class_r_t_o_s_1_1_semaphore.html#a7bb707649b575ed1941950f740df148e" target="_top" xlink:title="Checks if the semaphore is created.">
<polygon fill="white" stroke="#666666" points="315.5,-20 169,-20 169,0 315.5,0 315.5,-20"/>
<text xml:space="preserve" text-anchor="middle" x="242.25" y="-6.5" font-family="Helvetica,sans-Serif" font-size="10.00">RTOS::Semaphore::isCreated</text>
</a>
</g>
</g>
<!-- Node1&#45;&gt;Node2 -->
<g id="edge1_Node000001_Node000002" class="edge">
<title>Node1&#45;&gt;Node2</title>
<g id="a_edge1_Node000001_Node000002"><a xlink:title=" ">
<path fill="none" stroke="#63b8ff" d="M133.19,-10C141.09,-10 149.24,-10 157.36,-10"/>
<polygon fill="#63b8ff" stroke="#63b8ff" points="157.27,-13.5 167.27,-10 157.27,-6.5 157.27,-13.5"/>
</a>
</g>
</g>
<!-- Node3 -->
<g id="Node000003" class="node">
<title>Node3</title>
<g id="a_Node000003"><a xlink:href="../../dd/da2/class_r_t_o_s_1_1_semaphore_base.html#ae9372de7c41e0f8e345c87df0f90c60a" target="_top" xlink:title="Checks if the semaphore is created.">
<polygon fill="white" stroke="#666666" points="520.5,-20 351.5,-20 351.5,0 520.5,0 520.5,-20"/>
<text xml:space="preserve" text-anchor="middle" x="436" y="-6.5" font-family="Helvetica,sans-Serif" font-size="10.00">RTOS::SemaphoreBase::isCreated</text>
</a>
</g>
</g>
<!-- Node2&#45;&gt;Node3 -->
<g id="edge2_Node000002_Node000003" class="edge">
<title>Node2&#45;&gt;Node3</title>
<g id="a_edge2_Node000002_Node000003"><a xlink:title=" ">
<path fill="none" stroke="#63b8ff" d="M315.74,-10C323.6,-10 331.68,-10 339.75,-10"/>
<polygon fill="#63b8ff" stroke="#63b8ff" points="339.63,-13.5 349.63,-10 339.63,-6.5 339.63,-13.5"/>
</a>
</g>
</g>
</g>
</svg>
