<?xml version="1.0" encoding="UTF-8" standalone="no"?>
<!DOCTYPE svg PUBLIC "-//W3C//DTD SVG 1.1//EN"
 "http://www.w3.org/Graphics/SVG/1.1/DTD/svg11.dtd">
<!-- Generated by graphviz version 13.1.0 (20250701.0955)
 -->
<!-- Title: RTOS::Semaphore::takeSeconds Pages: 1 -->
<svg width="752pt" height="66pt"
 viewBox="0.00 0.00 752.00 66.00" xmlns="http://www.w3.org/2000/svg" xmlns:xlink="http://www.w3.org/1999/xlink">
<g id="graph0" class="graph" transform="scale(1 1) rotate(0) translate(4 62)">
<title>RTOS::Semaphore::takeSeconds</title>
<!-- Node1 -->
<g id="Node000001" class="node">
<title>Node1</title>
<g id="a_Node000001"><a xlink:title="Takes the semaphore with a timeout in seconds.">
<polygon fill="#999999" stroke="#666666" points="161.5,-39 0,-39 0,-19 161.5,-19 161.5,-39"/>
<text xml:space="preserve" text-anchor="middle" x="80.75" y="-25.5" font-family="Helvetica,sans-Serif" font-size="10.00">RTOS::Semaphore::takeSeconds</text>
</a>
</g>
</g>
<!-- Node2 -->
<g id="Node000002" class="node">
<title>Node2</title>
<g id="a_Node000002"><a xlink:href="../../d3/de9/class_r_t_o_s_1_1_semaphore.html#a4a7818ec0650533bfcb8006d2d0a6a0e" target="_top" xlink:title="Takes the semaphore with a timeout in milliseconds.">
<polygon fill="white" stroke="#666666" points="334.25,-39 197.5,-39 197.5,-19 334.25,-19 334.25,-39"/>
<text xml:space="preserve" text-anchor="middle" x="265.88" y="-25.5" font-family="Helvetica,sans-Serif" font-size="10.00">RTOS::Semaphore::takeMs</text>
</a>
</g>
</g>
<!-- Node1&#45;&gt;Node2 -->
<g id="edge1_Node000001_Node000002" class="edge">
<title>Node1&#45;&gt;Node2</title>
<g id="a_edge1_Node000001_Node000002"><a xlink:title=" ">
<path fill="none" stroke="#63b8ff" d="M161.8,-29C169.69,-29 177.7,-29 185.58,-29"/>
<polygon fill="#63b8ff" stroke="#63b8ff" points="185.5,-32.5 195.5,-29 185.5,-25.5 185.5,-32.5"/>
</a>
</g>
</g>
<!-- Node3 -->
<g id="Node000003" class="node">
<title>Node3</title>
<g id="a_Node000003"><a xlink:href="../../da/d2c/class_r_t_o_s_1_1_tick_counter.html#ac0cef5f74597d9fd2e71b9eed937365d" target="_top" xlink:title="Convert milliseconds to ticks.">
<polygon fill="white" stroke="#666666" points="526.5,-58 370.25,-58 370.25,-38 526.5,-38 526.5,-58"/>
<text xml:space="preserve" text-anchor="middle" x="448.38" y="-44.5" font-family="Helvetica,sans-Serif" font-size="10.00">RTOS::TickCounter::msToTicks</text>
</a>
</g>
</g>
<!-- Node2&#45;&gt;Node3 -->
<g id="edge2_Node000002_Node000003" class="edge">
<title>Node2&#45;&gt;Node3</title>
<g id="a_edge2_Node000002_Node000003"><a xlink:title=" ">
<path fill="none" stroke="#63b8ff" d="M334.6,-36.13C342.42,-36.95 350.48,-37.8 358.52,-38.65"/>
<polygon fill="#63b8ff" stroke="#63b8ff" points="358.05,-42.12 368.36,-39.68 358.78,-35.15 358.05,-42.12"/>
</a>
</g>
</g>
<!-- Node5 -->
<g id="Node000005" class="node">
<title>Node5</title>
<g id="a_Node000005"><a xlink:href="../../d3/de9/class_r_t_o_s_1_1_semaphore.html#ac0367cbf72b18dbcb43b5670a21b645c" target="_top" xlink:title="Takes the semaphore.">
<polygon fill="white" stroke="#666666" points="510,-20 386.75,-20 386.75,0 510,0 510,-20"/>
<text xml:space="preserve" text-anchor="middle" x="448.38" y="-6.5" font-family="Helvetica,sans-Serif" font-size="10.00">RTOS::Semaphore::take</text>
</a>
</g>
</g>
<!-- Node2&#45;&gt;Node5 -->
<g id="edge4_Node000002_Node000005" class="edge">
<title>Node2&#45;&gt;Node5</title>
<g id="a_edge4_Node000002_Node000005"><a xlink:title=" ">
<path fill="none" stroke="#63b8ff" d="M334.6,-21.87C347.89,-20.47 361.87,-19 375.29,-17.59"/>
<polygon fill="#63b8ff" stroke="#63b8ff" points="375.32,-21.1 384.9,-16.58 374.59,-14.14 375.32,-21.1"/>
</a>
</g>
</g>
<!-- Node4 -->
<g id="Node000004" class="node">
<title>Node4</title>
<g id="a_Node000004"><a xlink:href="../../da/d2c/class_r_t_o_s_1_1_tick_counter.html#aa4f09aa2584d95ea6f0d171179c54b24" target="_top" xlink:title="Get tick period in milliseconds.">
<polygon fill="white" stroke="#666666" points="744.25,-58 562.5,-58 562.5,-38 744.25,-38 744.25,-58"/>
<text xml:space="preserve" text-anchor="middle" x="653.38" y="-44.5" font-family="Helvetica,sans-Serif" font-size="10.00">RTOS::TickCounter::getTickPeriodMs</text>
</a>
</g>
</g>
<!-- Node3&#45;&gt;Node4 -->
<g id="edge3_Node000003_Node000004" class="edge">
<title>Node3&#45;&gt;Node4</title>
<g id="a_edge3_Node000003_Node000004"><a xlink:title=" ">
<path fill="none" stroke="#63b8ff" d="M526.99,-48C534.83,-48 542.86,-48 550.9,-48"/>
<polygon fill="#63b8ff" stroke="#63b8ff" points="550.73,-51.5 560.73,-48 550.73,-44.5 550.73,-51.5"/>
</a>
</g>
</g>
<!-- Node6 -->
<g id="Node000006" class="node">
<title>Node6</title>
<g id="a_Node000006"><a xlink:href="../../dd/da2/class_r_t_o_s_1_1_semaphore_base.html#ae6fba858289e80900d83e4a4b03c0723" target="_top" xlink:title="Takes the semaphore with timeout.">
<polygon fill="white" stroke="#666666" points="726.25,-20 580.5,-20 580.5,0 726.25,0 726.25,-20"/>
<text xml:space="preserve" text-anchor="middle" x="653.38" y="-6.5" font-family="Helvetica,sans-Serif" font-size="10.00">RTOS::SemaphoreBase::take</text>
</a>
</g>
</g>
<!-- Node5&#45;&gt;Node6 -->
<g id="edge5_Node000005_Node000006" class="edge">
<title>Node5&#45;&gt;Node6</title>
<g id="a_edge5_Node000005_Node000006"><a xlink:title=" ">
<path fill="none" stroke="#63b8ff" d="M510.28,-10C528.64,-10 549.11,-10 568.67,-10"/>
<polygon fill="#63b8ff" stroke="#63b8ff" points="568.55,-13.5 578.55,-10 568.55,-6.5 568.55,-13.5"/>
</a>
</g>
</g>
</g>
</svg>
