<?xml version="1.0" encoding="UTF-8" standalone="no"?>
<!DOCTYPE svg PUBLIC "-//W3C//DTD SVG 1.1//EN"
 "http://www.w3.org/Graphics/SVG/1.1/DTD/svg11.dtd">
<!-- Generated by graphviz version 13.1.0 (20250701.0955)
 -->
<!-- Title: Lib::BSP::DigitalPeripheral::OutputsBase&lt; T_PIN_NUM &gt; Pages: 1 -->
<svg width="578pt" height="769pt"
 viewBox="0.00 0.00 578.00 769.00" xmlns="http://www.w3.org/2000/svg" xmlns:xlink="http://www.w3.org/1999/xlink">
<g id="graph0" class="graph" transform="scale(1 1) rotate(0) translate(4 764.5)">
<title>Lib::BSP::DigitalPeripheral::OutputsBase&lt; T_PIN_NUM &gt;</title>
<!-- Node1 -->
<g id="Node000001" class="node">
<title>Node1</title>
<g id="a_Node000001"><a xlink:title="Generic base for SPI digital output port abstraction.">
<polygon fill="#999999" stroke="none" points="379.12,-379 228.38,-379 228.38,0 379.12,0 379.12,-379"/>
<text xml:space="preserve" text-anchor="start" x="241.88" y="-366.45" font-family="Arial" font-size="9.00">Lib::BSP::DigitalPeripheral</text>
<text xml:space="preserve" text-anchor="start" x="241.88" y="-355.95" font-family="Arial" font-size="9.00">::OutputsBase&lt; T_PIN_NUM &gt;</text>
<text xml:space="preserve" text-anchor="start" x="232.38" y="-341.45" font-family="Arial" font-size="9.00">+</text>
<text xml:space="preserve" text-anchor="start" x="241.62" y="-341.45" font-family="Arial" font-size="9.00">static constexpr size</text>
<text xml:space="preserve" text-anchor="start" x="241.62" y="-330.95" font-family="Arial" font-size="9.00">_t BUFFER_SIZE</text>
<text xml:space="preserve" text-anchor="start" x="232.38" y="-316.45" font-family="Arial" font-size="9.00">+</text>
<text xml:space="preserve" text-anchor="start" x="241.62" y="-316.45" font-family="Arial" font-size="9.00">OutputsBase(const</text>
<text xml:space="preserve" text-anchor="start" x="241.62" y="-305.95" font-family="Arial" font-size="9.00"> PortConfig &amp;config)</text>
<text xml:space="preserve" text-anchor="start" x="232.38" y="-291.45" font-family="Arial" font-size="9.00">+</text>
<text xml:space="preserve" text-anchor="start" x="241.62" y="-291.45" font-family="Arial" font-size="9.00">virtual ~OutputsBase</text>
<text xml:space="preserve" text-anchor="start" x="241.62" y="-280.95" font-family="Arial" font-size="9.00">()=default</text>
<text xml:space="preserve" text-anchor="start" x="232.38" y="-266.45" font-family="Arial" font-size="9.00">+</text>
<text xml:space="preserve" text-anchor="start" x="241.62" y="-266.45" font-family="Arial" font-size="9.00">void init() override</text>
<text xml:space="preserve" text-anchor="start" x="232.38" y="-251.95" font-family="Arial" font-size="9.00">+</text>
<text xml:space="preserve" text-anchor="start" x="241.62" y="-251.95" font-family="Arial" font-size="9.00">void preInit() override</text>
<text xml:space="preserve" text-anchor="start" x="232.38" y="-237.45" font-family="Arial" font-size="9.00">+</text>
<text xml:space="preserve" text-anchor="start" x="241.62" y="-237.45" font-family="Arial" font-size="9.00">bool update() override</text>
<text xml:space="preserve" text-anchor="start" x="232.38" y="-222.95" font-family="Arial" font-size="9.00">+</text>
<text xml:space="preserve" text-anchor="start" x="241.62" y="-222.95" font-family="Arial" font-size="9.00">bool waitForCompleted</text>
<text xml:space="preserve" text-anchor="start" x="241.62" y="-212.45" font-family="Arial" font-size="9.00">(uint32_t timeout) override</text>
<text xml:space="preserve" text-anchor="start" x="232.38" y="-197.95" font-family="Arial" font-size="9.00">+</text>
<text xml:space="preserve" text-anchor="start" x="241.62" y="-197.95" font-family="Arial" font-size="9.00">virtual void setValue</text>
<text xml:space="preserve" text-anchor="start" x="241.62" y="-187.45" font-family="Arial" font-size="9.00">(uint64_t value)</text>
<text xml:space="preserve" text-anchor="start" x="232.38" y="-172.95" font-family="Arial" font-size="9.00">+</text>
<text xml:space="preserve" text-anchor="start" x="241.62" y="-172.95" font-family="Arial" font-size="9.00">virtual const uint64</text>
<text xml:space="preserve" text-anchor="start" x="241.62" y="-162.45" font-family="Arial" font-size="9.00">_t &amp; getValue() const</text>
<text xml:space="preserve" text-anchor="start" x="232.38" y="-147.95" font-family="Arial" font-size="9.00">+</text>
<text xml:space="preserve" text-anchor="start" x="241.62" y="-147.95" font-family="Arial" font-size="9.00">virtual const uint64</text>
<text xml:space="preserve" text-anchor="start" x="241.62" y="-137.45" font-family="Arial" font-size="9.00">_t &amp; getStatusRegister</text>
<text xml:space="preserve" text-anchor="start" x="241.62" y="-126.95" font-family="Arial" font-size="9.00">() const</text>
<text xml:space="preserve" text-anchor="start" x="232.38" y="-112.45" font-family="Arial" font-size="9.00">+</text>
<text xml:space="preserve" text-anchor="start" x="241.62" y="-112.45" font-family="Arial" font-size="9.00">virtual bool getSpiError</text>
<text xml:space="preserve" text-anchor="start" x="241.62" y="-101.95" font-family="Arial" font-size="9.00">() const</text>
<text xml:space="preserve" text-anchor="start" x="232.38" y="-87.45" font-family="Arial" font-size="9.00">+</text>
<text xml:space="preserve" text-anchor="start" x="241.62" y="-87.45" font-family="Arial" font-size="9.00">virtual const uint32</text>
<text xml:space="preserve" text-anchor="start" x="241.62" y="-76.95" font-family="Arial" font-size="9.00">_t &amp; getSpiErrorCounter</text>
<text xml:space="preserve" text-anchor="start" x="241.62" y="-66.45" font-family="Arial" font-size="9.00">() const</text>
<text xml:space="preserve" text-anchor="start" x="232.38" y="-51.95" font-family="Arial" font-size="9.00">+</text>
<text xml:space="preserve" text-anchor="start" x="241.62" y="-51.95" font-family="Arial" font-size="9.00">virtual const uint32</text>
<text xml:space="preserve" text-anchor="start" x="241.62" y="-41.45" font-family="Arial" font-size="9.00">_t &amp; getOutputsChangedCounter</text>
<text xml:space="preserve" text-anchor="start" x="241.62" y="-30.95" font-family="Arial" font-size="9.00">() const</text>
<text xml:space="preserve" text-anchor="start" x="232.38" y="-16.45" font-family="Arial" font-size="9.00">+</text>
<text xml:space="preserve" text-anchor="start" x="241.62" y="-16.45" font-family="Arial" font-size="9.00">virtual void emitErrorEvent</text>
<text xml:space="preserve" text-anchor="start" x="241.62" y="-5.95" font-family="Arial" font-size="9.00">(bool value)</text>
<polygon fill="#666666" stroke="#666666" points="228.38,-352 228.38,-352 379.12,-352 379.12,-352 228.38,-352"/>
<polygon fill="#666666" stroke="#666666" points="228.38,-327 228.38,-327 239.62,-327 239.62,-327 228.38,-327"/>
<polygon fill="#666666" stroke="#666666" points="239.62,-327 239.62,-327 379.12,-327 379.12,-327 239.62,-327"/>
<polygon fill="none" stroke="#666666" points="228.38,0 228.38,-379 379.12,-379 379.12,0 228.38,0"/>
</a>
</g>
</g>
<!-- Node2 -->
<g id="Node000002" class="node">
<title>Node2</title>
<g id="a_Node000002"><a xlink:href="../../d0/dc1/class_lib_1_1_b_s_p_1_1_digital_peripheral_1_1_port_base.html" target="_top" xlink:title="Abstract base class for digital peripheral ports.">
<polygon fill="white" stroke="none" points="139.5,-609.25 0,-609.25 0,-457.75 139.5,-457.75 139.5,-609.25"/>
<text xml:space="preserve" text-anchor="start" x="15.38" y="-596.7" font-family="Arial" font-size="9.00">Lib::BSP::DigitalPeripheral</text>
<text xml:space="preserve" text-anchor="start" x="48.75" y="-586.2" font-family="Arial" font-size="9.00">::PortBase</text>
<text xml:space="preserve" text-anchor="start" x="68.62" y="-571.7" font-family="Arial" font-size="9.00"> </text>
<text xml:space="preserve" text-anchor="start" x="4" y="-557.2" font-family="Arial" font-size="9.00">+</text>
<text xml:space="preserve" text-anchor="start" x="13.25" y="-557.2" font-family="Arial" font-size="9.00">PortBase()=default</text>
<text xml:space="preserve" text-anchor="start" x="4" y="-542.7" font-family="Arial" font-size="9.00">+</text>
<text xml:space="preserve" text-anchor="start" x="13.25" y="-542.7" font-family="Arial" font-size="9.00">virtual ~PortBase()</text>
<text xml:space="preserve" text-anchor="start" x="13.25" y="-532.2" font-family="Arial" font-size="9.00">=default</text>
<text xml:space="preserve" text-anchor="start" x="4" y="-517.7" font-family="Arial" font-size="9.00">+</text>
<text xml:space="preserve" text-anchor="start" x="13.25" y="-517.7" font-family="Arial" font-size="9.00">virtual void init()=0</text>
<text xml:space="preserve" text-anchor="start" x="4" y="-503.2" font-family="Arial" font-size="9.00">+</text>
<text xml:space="preserve" text-anchor="start" x="13.25" y="-503.2" font-family="Arial" font-size="9.00">virtual void preInit()=0</text>
<text xml:space="preserve" text-anchor="start" x="4" y="-488.7" font-family="Arial" font-size="9.00">+</text>
<text xml:space="preserve" text-anchor="start" x="13.25" y="-488.7" font-family="Arial" font-size="9.00">virtual bool update()=0</text>
<text xml:space="preserve" text-anchor="start" x="4" y="-474.2" font-family="Arial" font-size="9.00">+</text>
<text xml:space="preserve" text-anchor="start" x="13.25" y="-474.2" font-family="Arial" font-size="9.00">virtual bool waitForCompleted</text>
<text xml:space="preserve" text-anchor="start" x="13.25" y="-463.7" font-family="Arial" font-size="9.00">(uint32_t timeout)=0</text>
<polygon fill="#666666" stroke="#666666" points="0,-582.25 0,-582.25 139.5,-582.25 139.5,-582.25 0,-582.25"/>
<polygon fill="#666666" stroke="#666666" points="0,-567.75 0,-567.75 139.5,-567.75 139.5,-567.75 0,-567.75"/>
<polygon fill="none" stroke="#666666" points="0,-457.75 0,-609.25 139.5,-609.25 139.5,-457.75 0,-457.75"/>
</a>
</g>
</g>
<!-- Node2&#45;&gt;Node1 -->
<g id="edge1_Node000001_Node000002" class="edge">
<title>Node2&#45;&gt;Node1</title>
<g id="a_edge1_Node000001_Node000002"><a xlink:title=" ">
<path fill="none" stroke="#63b8ff" d="M127.22,-448.51C157.77,-403.85 195.71,-348.41 228.58,-300.37"/>
<polygon fill="none" stroke="#63b8ff" points="124.43,-446.39 121.67,-456.62 130.2,-450.34 124.43,-446.39"/>
</a>
</g>
</g>
<!-- Node3 -->
<g id="Node000003" class="node">
<title>Node3</title>
<g id="a_Node000003"><a xlink:href="../../d5/d05/class_lib_1_1_h_a_l_1_1_g_p_i_o_1_1_pin.html" target="_top" xlink:title=" ">
<polygon fill="white" stroke="none" points="259.62,-567.75 157.88,-567.75 157.88,-499.25 259.62,-499.25 259.62,-567.75"/>
<text xml:space="preserve" text-anchor="start" x="161.88" y="-555.2" font-family="Arial" font-size="9.00">Lib::HAL::GPIO::Pin</text>
<text xml:space="preserve" text-anchor="start" x="161.88" y="-544.7" font-family="Arial" font-size="9.00">&lt; Lib::HAL::GPIO::Type</text>
<text xml:space="preserve" text-anchor="start" x="184.38" y="-534.2" font-family="Arial" font-size="9.00">::OUTPUT &gt;</text>
<text xml:space="preserve" text-anchor="start" x="207.62" y="-519.7" font-family="Arial" font-size="9.00"> </text>
<text xml:space="preserve" text-anchor="start" x="207.62" y="-505.2" font-family="Arial" font-size="9.00"> </text>
<polygon fill="#666666" stroke="#666666" points="157.88,-530.25 157.88,-530.25 259.62,-530.25 259.62,-530.25 157.88,-530.25"/>
<polygon fill="#666666" stroke="#666666" points="157.88,-515.75 157.88,-515.75 259.62,-515.75 259.62,-515.75 157.88,-515.75"/>
<polygon fill="none" stroke="#666666" points="157.88,-499.25 157.88,-567.75 259.62,-567.75 259.62,-499.25 157.88,-499.25"/>
</a>
</g>
</g>
<!-- Node3&#45;&gt;Node1 -->
<g id="edge2_Node000001_Node000003" class="edge">
<title>Node3&#45;&gt;Node1</title>
<g id="a_edge2_Node000001_Node000003"><a xlink:title=" ">
<path fill="none" stroke="#63b8ff" d="M217.95,-499.4C225.3,-472.93 236.28,-433.4 247.95,-391.39"/>
<polygon fill="none" stroke="#63b8ff" points="247.97,-391.32 245.72,-384.46 251.18,-379.75 253.43,-386.61 247.97,-391.32"/>
</a>
</g>
<text xml:space="preserve" text-anchor="start" x="247.95" y="-401.95" font-family="Arial" font-size="9.00" fill="grey">+nss</text>
</g>
<!-- Node4 -->
<g id="Node000004" class="node">
<title>Node4</title>
<g id="a_Node000004"><a xlink:href="../../d5/d05/class_lib_1_1_h_a_l_1_1_g_p_i_o_1_1_pin.html" target="_top" xlink:title="GPIO pin template class.">
<polygon fill="white" stroke="none" points="252.5,-760.5 165,-760.5 165,-702.5 252.5,-702.5 252.5,-760.5"/>
<text xml:space="preserve" text-anchor="start" x="169" y="-747.95" font-family="Arial" font-size="9.00">Lib::HAL::GPIO::Pin</text>
<text xml:space="preserve" text-anchor="start" x="183.25" y="-737.45" font-family="Arial" font-size="9.00">&lt; pinMode &gt;</text>
<text xml:space="preserve" text-anchor="start" x="207.62" y="-722.95" font-family="Arial" font-size="9.00"> </text>
<text xml:space="preserve" text-anchor="start" x="207.62" y="-708.45" font-family="Arial" font-size="9.00"> </text>
<polygon fill="#666666" stroke="#666666" points="165,-733.5 165,-733.5 252.5,-733.5 252.5,-733.5 165,-733.5"/>
<polygon fill="#666666" stroke="#666666" points="165,-719 165,-719 252.5,-719 252.5,-719 165,-719"/>
<polygon fill="none" stroke="#666666" points="165,-702.5 165,-760.5 252.5,-760.5 252.5,-702.5 165,-702.5"/>
</a>
</g>
</g>
<!-- Node4&#45;&gt;Node3 -->
<g id="edge3_Node000003_Node000004" class="edge">
<title>Node4&#45;&gt;Node3</title>
<g id="a_edge3_Node000003_Node000004"><a xlink:title=" ">
<path fill="none" stroke="orange" d="M208.75,-691.71C208.75,-655.45 208.75,-601.89 208.75,-567.59"/>
<polygon fill="orange" stroke="orange" points="205.25,-691.32 208.75,-701.32 212.25,-691.32 205.25,-691.32"/>
</a>
</g>
<text xml:space="preserve" text-anchor="start" x="211.75" y="-672.95" font-family="Arial" font-size="9.00" fill="grey">&lt; Lib::HAL::GPIO::Type</text>
<text xml:space="preserve" text-anchor="start" x="211.75" y="-658.45" font-family="Arial" font-size="9.00" fill="grey">  ::OUTPUT &gt;</text>
</g>
<!-- Node5 -->
<g id="Node000005" class="node">
<title>Node5</title>
<g id="a_Node000005"><a xlink:href="../../da/de2/struct_lib_1_1_b_s_p_1_1_digital_peripheral_1_1_map_field.html" target="_top" xlink:title="Compact mapping of a digital peripheral port and its bitmask.">
<polygon fill="white" stroke="none" points="394.12,-587.5 277.38,-587.5 277.38,-479.5 394.12,-479.5 394.12,-587.5"/>
<text xml:space="preserve" text-anchor="start" x="281.38" y="-574.95" font-family="Arial" font-size="9.00">Lib::BSP::DigitalPeripheral</text>
<text xml:space="preserve" text-anchor="start" x="314.38" y="-564.45" font-family="Arial" font-size="9.00">::MapField</text>
<text xml:space="preserve" text-anchor="start" x="284.69" y="-549.95" font-family="Arial" font-size="9.00">+</text>
<text xml:space="preserve" text-anchor="start" x="297.25" y="-549.95" font-family="Arial" font-size="9.00">uint8_t port</text>
<text xml:space="preserve" text-anchor="start" x="284.69" y="-535.45" font-family="Arial" font-size="9.00">+</text>
<text xml:space="preserve" text-anchor="start" x="297.25" y="-535.45" font-family="Arial" font-size="9.00">uint8_t mask</text>
<text xml:space="preserve" text-anchor="start" x="284.69" y="-520.95" font-family="Arial" font-size="9.00">+</text>
<text xml:space="preserve" text-anchor="start" x="297.25" y="-520.95" font-family="Arial" font-size="9.00">constexpr MapField()</text>
<text xml:space="preserve" text-anchor="start" x="284.69" y="-506.45" font-family="Arial" font-size="9.00">+</text>
<text xml:space="preserve" text-anchor="start" x="297.25" y="-506.45" font-family="Arial" font-size="9.00">constexpr MapField</text>
<text xml:space="preserve" text-anchor="start" x="297.25" y="-495.95" font-family="Arial" font-size="9.00">(uint8_t port, uint8</text>
<text xml:space="preserve" text-anchor="start" x="297.25" y="-485.45" font-family="Arial" font-size="9.00">_t mask)</text>
<polygon fill="#666666" stroke="#666666" points="277.38,-560.5 277.38,-560.5 394.12,-560.5 394.12,-560.5 277.38,-560.5"/>
<polygon fill="#666666" stroke="#666666" points="277.38,-531.5 277.38,-531.5 295.25,-531.5 295.25,-531.5 277.38,-531.5"/>
<polygon fill="#666666" stroke="#666666" points="295.25,-531.5 295.25,-531.5 394.12,-531.5 394.12,-531.5 295.25,-531.5"/>
<polygon fill="none" stroke="#666666" points="277.38,-479.5 277.38,-587.5 394.12,-587.5 394.12,-479.5 277.38,-479.5"/>
</a>
</g>
</g>
<!-- Node5&#45;&gt;Node1 -->
<g id="edge4_Node000001_Node000005" class="edge">
<title>Node5&#45;&gt;Node1</title>
<g id="a_edge4_Node000001_Node000005"><a xlink:title=" ">
<path fill="none" stroke="#63b8ff" d="M330.82,-479.81C328.52,-455.25 325.63,-424.3 322.59,-391.84"/>
<polygon fill="none" stroke="#63b8ff" points="322.57,-391.69 318.03,-386.09 321.46,-379.74 326,-385.34 322.57,-391.69"/>
</a>
</g>
<text xml:space="preserve" text-anchor="start" x="327.49" y="-401.95" font-family="Arial" font-size="9.00" fill="grey">+mapFields</text>
</g>
<!-- Node6 -->
<g id="Node000006" class="node">
<title>Node6</title>
<g id="a_Node000006"><a xlink:href="../../d3/dbf/class_lib_1_1_b_s_p_1_1_digital_peripheral_1_1_outputs_base_1_1_grouping.html" target="_top" xlink:title="Output grouping and value management for OutputsBase.">
<polygon fill="white" stroke="none" points="569.5,-635.5 412,-635.5 412,-431.5 569.5,-431.5 569.5,-635.5"/>
<text xml:space="preserve" text-anchor="start" x="432.62" y="-622.95" font-family="Arial" font-size="9.00">Lib::BSP::DigitalPeripheral</text>
<text xml:space="preserve" text-anchor="start" x="432.62" y="-612.45" font-family="Arial" font-size="9.00">::OutputsBase&lt; T_PIN_NUM</text>
<text xml:space="preserve" text-anchor="start" x="465.62" y="-601.95" font-family="Arial" font-size="9.00"> &gt;::Grouping</text>
<text xml:space="preserve" text-anchor="start" x="489.62" y="-587.45" font-family="Arial" font-size="9.00"> </text>
<text xml:space="preserve" text-anchor="start" x="416" y="-572.95" font-family="Arial" font-size="9.00">+</text>
<text xml:space="preserve" text-anchor="start" x="425.25" y="-572.95" font-family="Arial" font-size="9.00">Grouping()</text>
<text xml:space="preserve" text-anchor="start" x="416" y="-558.45" font-family="Arial" font-size="9.00">+</text>
<text xml:space="preserve" text-anchor="start" x="425.25" y="-558.45" font-family="Arial" font-size="9.00">void start()</text>
<text xml:space="preserve" text-anchor="start" x="416" y="-543.95" font-family="Arial" font-size="9.00">+</text>
<text xml:space="preserve" text-anchor="start" x="425.25" y="-543.95" font-family="Arial" font-size="9.00">void setParameters</text>
<text xml:space="preserve" text-anchor="start" x="425.25" y="-533.45" font-family="Arial" font-size="9.00">(bool enable=false,</text>
<text xml:space="preserve" text-anchor="start" x="425.25" y="-522.95" font-family="Arial" font-size="9.00"> uint16_t switchPeriod</text>
<text xml:space="preserve" text-anchor="start" x="425.25" y="-512.45" font-family="Arial" font-size="9.00">=10U, uint8_t outputsNumber=4U)</text>
<text xml:space="preserve" text-anchor="start" x="416" y="-497.95" font-family="Arial" font-size="9.00">+</text>
<text xml:space="preserve" text-anchor="start" x="425.25" y="-497.95" font-family="Arial" font-size="9.00">void setValue(uint64</text>
<text xml:space="preserve" text-anchor="start" x="425.25" y="-487.45" font-family="Arial" font-size="9.00">_t value)</text>
<text xml:space="preserve" text-anchor="start" x="416" y="-472.95" font-family="Arial" font-size="9.00">+</text>
<text xml:space="preserve" text-anchor="start" x="425.25" y="-472.95" font-family="Arial" font-size="9.00">const uint64_t &amp; getValue</text>
<text xml:space="preserve" text-anchor="start" x="425.25" y="-462.45" font-family="Arial" font-size="9.00">() const</text>
<text xml:space="preserve" text-anchor="start" x="416" y="-447.95" font-family="Arial" font-size="9.00">+</text>
<text xml:space="preserve" text-anchor="start" x="425.25" y="-447.95" font-family="Arial" font-size="9.00">const uint32_t &amp; getOutputs</text>
<text xml:space="preserve" text-anchor="start" x="425.25" y="-437.45" font-family="Arial" font-size="9.00">ChangedCounter() const</text>
<polygon fill="#666666" stroke="#666666" points="412,-598 412,-598 569.5,-598 569.5,-598 412,-598"/>
<polygon fill="#666666" stroke="#666666" points="412,-583.5 412,-583.5 569.5,-583.5 569.5,-583.5 412,-583.5"/>
<polygon fill="none" stroke="#666666" points="412,-431.5 412,-635.5 569.5,-635.5 569.5,-431.5 412,-431.5"/>
</a>
</g>
</g>
<!-- Node6&#45;&gt;Node1 -->
<g id="edge5_Node000001_Node000006" class="edge">
<title>Node6&#45;&gt;Node1</title>
<g id="a_edge5_Node000001_Node000006"><a xlink:title=" ">
<path fill="none" stroke="#63b8ff" d="M435.66,-431.74C419.87,-402.87 402.32,-370.77 385.3,-339.65"/>
<polygon fill="none" stroke="#63b8ff" points="385.25,-339.56 378.87,-336.22 379.5,-329.03 385.89,-332.38 385.25,-339.56"/>
</a>
</g>
<text xml:space="preserve" text-anchor="start" x="427.93" y="-401.95" font-family="Arial" font-size="9.00" fill="grey">+grouping</text>
</g>
</g>
</svg>
