<?xml version="1.0" encoding="UTF-8" standalone="no"?>
<!DOCTYPE svg PUBLIC "-//W3C//DTD SVG 1.1//EN"
 "http://www.w3.org/Graphics/SVG/1.1/DTD/svg11.dtd">
<!-- Generated by graphviz version 13.1.0 (20250701.0955)
 -->
<!-- Title: Lib::Xbee::Core::Frame0x01 Pages: 1 -->
<svg width="284pt" height="278pt"
 viewBox="0.00 0.00 284.00 278.00" xmlns="http://www.w3.org/2000/svg" xmlns:xlink="http://www.w3.org/1999/xlink">
<g id="graph0" class="graph" transform="scale(1 1) rotate(0) translate(4 274)">
<title>Lib::Xbee::Core::Frame0x01</title>
<!-- Node1 -->
<g id="Node000001" class="node">
<title>Node1</title>
<g id="a_Node000001"><a xlink:title="Frame0x01 query for XBee TX Request (16&#45;bit address).">
<polygon fill="#999999" stroke="none" points="226.34,-20 95.34,-20 95.34,0 226.34,0 226.34,-20"/>
<text xml:space="preserve" text-anchor="start" x="99.34" y="-6.5" font-family="Helvetica,sans-Serif" font-size="10.00">Lib::Xbee::Core::Frame0x01</text>
<polygon fill="none" stroke="#666666" points="95.34,0 95.34,-20 226.34,-20 226.34,0 95.34,0"/>
</a>
</g>
</g>
<!-- Node2 -->
<g id="Node000002" class="node">
<title>Node2</title>
<g id="a_Node000002"><a xlink:href="../../dc/daf/class_lib_1_1_xbee_1_1_core_1_1_query_base.html" target="_top" xlink:title="Abstract base class for Xbee send requests.">
<polygon fill="white" stroke="none" points="156.34,-94 25.34,-94 25.34,-74 156.34,-74 156.34,-94"/>
<text xml:space="preserve" text-anchor="start" x="29.34" y="-80.5" font-family="Helvetica,sans-Serif" font-size="10.00">Lib::Xbee::Core::QueryBase</text>
<polygon fill="none" stroke="#666666" points="25.34,-74 25.34,-94 156.34,-94 156.34,-74 25.34,-74"/>
</a>
</g>
</g>
<!-- Node2&#45;&gt;Node1 -->
<g id="edge1_Node000001_Node000002" class="edge">
<title>Node2&#45;&gt;Node1</title>
<g id="a_edge1_Node000001_Node000002"><a xlink:title=" ">
<path fill="none" stroke="#63b8ff" d="M107.32,-66.04C121.38,-51.59 141.02,-31.38 152.18,-19.9"/>
<polygon fill="none" stroke="#63b8ff" points="104.94,-63.48 100.48,-73.09 109.96,-68.36 104.94,-63.48"/>
</a>
</g>
</g>
<!-- Node3 -->
<g id="Node000003" class="node">
<title>Node3</title>
<g id="a_Node000003"><a xlink:href="../../d1/d88/class_lib_1_1_xbee_1_1_core_1_1_frame_1_1_data.html" target="_top" xlink:title="Internal Frame Data class for Xbee Core.">
<polygon fill="white" stroke="none" points="145.84,-196 35.84,-196 35.84,-164 145.84,-164 145.84,-196"/>
<text xml:space="preserve" text-anchor="start" x="39.84" y="-182.5" font-family="Helvetica,sans-Serif" font-size="10.00">Lib::Xbee::Core::Frame</text>
<text xml:space="preserve" text-anchor="start" x="77.34" y="-170.5" font-family="Helvetica,sans-Serif" font-size="10.00">::Data</text>
<polygon fill="none" stroke="#666666" points="35.84,-164 35.84,-196 145.84,-196 145.84,-164 35.84,-164"/>
</a>
</g>
</g>
<!-- Node3&#45;&gt;Node2 -->
<g id="edge2_Node000002_Node000003" class="edge">
<title>Node3&#45;&gt;Node2</title>
<g id="a_edge2_Node000002_Node000003"><a xlink:title=" ">
<path fill="none" stroke="#63b8ff" d="M90.84,-164.31C90.84,-148.9 90.84,-124.51 90.84,-106.84"/>
<polygon fill="none" stroke="#63b8ff" points="90.84,-106.83 86.84,-100.83 90.84,-94.83 94.84,-100.83 90.84,-106.83"/>
</a>
</g>
<text xml:space="preserve" text-anchor="start" x="93.84" y="-125.5" font-family="Helvetica,sans-Serif" font-size="10.00" fill="grey">#frameData</text>
</g>
<!-- Node4 -->
<g id="Node000004" class="node">
<title>Node4</title>
<g id="a_Node000004"><a xlink:title=" ">
<polygon fill="white" stroke="none" points="57.46,-270 20.21,-270 20.21,-250 57.46,-250 57.46,-270"/>
<text xml:space="preserve" text-anchor="start" x="24.21" y="-256.5" font-family="Helvetica,sans-Serif" font-size="10.00">uint8_t</text>
<polygon fill="none" stroke="#bfbfbf" points="20.21,-250 20.21,-270 57.46,-270 57.46,-250 20.21,-250"/>
</a>
</g>
</g>
<!-- Node4&#45;&gt;Node1 -->
<g id="edge5_Node000001_Node000004" class="edge">
<title>Node4&#45;&gt;Node1</title>
<g id="a_edge5_Node000001_Node000004"><a xlink:title=" ">
<path fill="none" stroke="#63b8ff" d="M34.12,-250.37C19.45,-222.28 -22.15,-131.92 15.84,-74 32.95,-47.91 63.46,-32.57 92.09,-23.57"/>
<polygon fill="none" stroke="#63b8ff" points="92.22,-23.53 96.89,-18.04 103.76,-20.23 99.09,-25.73 92.22,-23.53"/>
</a>
</g>
<text xml:space="preserve" text-anchor="start" x="4.67" y="-133.5" font-family="Helvetica,sans-Serif" font-size="10.00" fill="grey">+frameId</text>
<text xml:space="preserve" text-anchor="start" x="4.67" y="-117.5" font-family="Helvetica,sans-Serif" font-size="10.00" fill="grey">+options</text>
</g>
<!-- Node4&#45;&gt;Node3 -->
<g id="edge3_Node000003_Node000004" class="edge">
<title>Node4&#45;&gt;Node3</title>
<g id="a_edge3_Node000003_Node000004"><a xlink:title=" ">
<path fill="none" stroke="#63b8ff" d="M44.8,-250.05C51.82,-239.53 63.77,-221.6 73.74,-206.65"/>
<polygon fill="none" stroke="#63b8ff" points="73.7,-206.7 73.7,-199.49 80.36,-196.72 80.36,-203.93 73.7,-206.7"/>
</a>
</g>
<text xml:space="preserve" text-anchor="start" x="70.95" y="-219.5" font-family="Helvetica,sans-Serif" font-size="10.00" fill="grey">+type</text>
</g>
<!-- Node5 -->
<g id="Node000005" class="node">
<title>Node5</title>
<g id="a_Node000005"><a xlink:title=" ">
<polygon fill="white" stroke="none" points="165.96,-270 83.71,-270 83.71,-250 165.96,-250 165.96,-270"/>
<text xml:space="preserve" text-anchor="start" x="87.71" y="-256.5" font-family="Helvetica,sans-Serif" font-size="10.00">vector&lt; uint8_t &gt;</text>
<polygon fill="none" stroke="#bfbfbf" points="83.71,-250 83.71,-270 165.96,-270 165.96,-250 83.71,-250"/>
</a>
</g>
</g>
<!-- Node5&#45;&gt;Node1 -->
<g id="edge7_Node000001_Node000005" class="edge">
<title>Node5&#45;&gt;Node1</title>
<g id="a_edge7_Node000001_Node000005"><a xlink:title=" ">
<path fill="none" stroke="#63b8ff" d="M139.51,-250.01C145.66,-245.43 152.2,-239.28 155.84,-232 189.06,-165.5 174.87,-73.12 166,-32.09"/>
<polygon fill="none" stroke="#63b8ff" points="166.03,-32.21 160.78,-27.26 163.32,-20.52 168.57,-25.46 166.03,-32.21"/>
</a>
</g>
<text xml:space="preserve" text-anchor="start" x="179.74" y="-125.5" font-family="Helvetica,sans-Serif" font-size="10.00" fill="grey">+rfData</text>
</g>
<!-- Node5&#45;&gt;Node3 -->
<g id="edge4_Node000003_Node000005" class="edge">
<title>Node5&#45;&gt;Node3</title>
<g id="a_edge4_Node000003_Node000005"><a xlink:title=" ">
<path fill="none" stroke="#63b8ff" d="M120.94,-250.05C116.44,-239.74 108.84,-222.3 102.4,-207.53"/>
<polygon fill="none" stroke="#63b8ff" points="102.52,-207.79 96.45,-203.89 97.72,-196.79 103.79,-200.7 102.52,-207.79"/>
</a>
</g>
<text xml:space="preserve" text-anchor="start" x="115.87" y="-219.5" font-family="Helvetica,sans-Serif" font-size="10.00" fill="grey">+vector</text>
</g>
<!-- Node6 -->
<g id="Node000006" class="node">
<title>Node6</title>
<g id="a_Node000006"><a xlink:title=" ">
<polygon fill="white" stroke="none" points="255.09,-94 212.59,-94 212.59,-74 255.09,-74 255.09,-94"/>
<text xml:space="preserve" text-anchor="start" x="216.59" y="-80.5" font-family="Helvetica,sans-Serif" font-size="10.00">uint16_t</text>
<polygon fill="none" stroke="#bfbfbf" points="212.59,-74 212.59,-94 255.09,-94 255.09,-74 212.59,-74"/>
</a>
</g>
</g>
<!-- Node6&#45;&gt;Node1 -->
<g id="edge6_Node000001_Node000006" class="edge">
<title>Node6&#45;&gt;Node1</title>
<g id="a_edge6_Node000001_Node000006"><a xlink:title=" ">
<path fill="none" stroke="#63b8ff" d="M228.07,-74.09C221.63,-64.54 210.56,-49.23 198.84,-38 194.83,-34.16 190.24,-30.44 185.66,-27.05"/>
<polygon fill="none" stroke="#63b8ff" points="185.9,-27.21 178.69,-27.06 176.05,-20.35 183.26,-20.5 185.9,-27.21"/>
</a>
</g>
<text xml:space="preserve" text-anchor="start" x="217.47" y="-43.5" font-family="Helvetica,sans-Serif" font-size="10.00" fill="grey">+dstAddress</text>
</g>
</g>
</svg>
