<?xml version="1.0" encoding="UTF-8" standalone="no"?>
<!DOCTYPE svg PUBLIC "-//W3C//DTD SVG 1.1//EN"
 "http://www.w3.org/Graphics/SVG/1.1/DTD/svg11.dtd">
<!-- Generated by graphviz version 10.0.1 (20240210.2158)
 -->
<!-- Title: Lib::Xbee::API::Service::ServiceBase::close Pages: 1 -->
<svg width="291pt" height="190pt"
 viewBox="0.00 0.00 290.50 190.00" xmlns="http://www.w3.org/2000/svg" xmlns:xlink="http://www.w3.org/1999/xlink">
<g id="graph0" class="graph" transform="scale(1 1) rotate(0) translate(4 186)">
<title>Lib::Xbee::API::Service::ServiceBase::close</title>
<!-- Node1 -->
<g id="Node000001" class="node">
<title>Node1</title>
<g id="a_Node000001"><a xlink:title="Closes the service and marks it as closed.">
<polygon fill="#999999" stroke="#666666" points="282.5,-107 167.5,-107 167.5,-75 282.5,-75 282.5,-107"/>
<text text-anchor="start" x="175.5" y="-93.5" font-family="Helvetica,sans-Serif" font-size="10.00">Lib::Xbee::API::Service</text>
<text text-anchor="middle" x="225" y="-81.5" font-family="Helvetica,sans-Serif" font-size="10.00">::ServiceBase::close</text>
</a>
</g>
</g>
<!-- Node2 -->
<g id="Node000002" class="node">
<title>Node2</title>
<g id="a_Node000002"><a xlink:href="../../de/dab/a00319.html#ac1479201a5123bb67ba2ddb14f23600f" target="_top" xlink:title="Closes the ChannelScanner service.">
<polygon fill="white" stroke="#666666" points="127,-182 4.5,-182 4.5,-150 127,-150 127,-182"/>
<text text-anchor="start" x="12.5" y="-168.5" font-family="Helvetica,sans-Serif" font-size="10.00">Lib::Xbee::API::Service</text>
<text text-anchor="middle" x="65.75" y="-156.5" font-family="Helvetica,sans-Serif" font-size="10.00">::ChannelScanner::close</text>
</a>
</g>
</g>
<!-- Node1&#45;&gt;Node2 -->
<g id="edge1_Node000001_Node000002" class="edge">
<title>Node1&#45;&gt;Node2</title>
<g id="a_edge1_Node000001_Node000002"><a xlink:title=" ">
<path fill="none" stroke="#63b8ff" d="M185.92,-113C169.43,-122.15 149.76,-132.58 131.5,-141 125.15,-143.93 118.36,-146.81 111.64,-149.52"/>
<polygon fill="#63b8ff" stroke="#63b8ff" points="187.4,-116.18 194.41,-108.24 183.97,-110.08 187.4,-116.18"/>
</a>
</g>
</g>
<!-- Node3 -->
<g id="Node000003" class="node">
<title>Node3</title>
<g id="a_Node000003"><a xlink:href="../../d8/df7/a00331.html#a4e6a050f391792bb1daa596ed659aba4" target="_top" xlink:title="Closes the network discovery service and associated AT command.">
<polygon fill="white" stroke="#666666" points="130,-132 1.5,-132 1.5,-100 130,-100 130,-132"/>
<text text-anchor="start" x="9.5" y="-118.5" font-family="Helvetica,sans-Serif" font-size="10.00">Lib::Xbee::API::Service</text>
<text text-anchor="middle" x="65.75" y="-106.5" font-family="Helvetica,sans-Serif" font-size="10.00">::NetworkDiscovery::close</text>
</a>
</g>
</g>
<!-- Node1&#45;&gt;Node3 -->
<g id="edge2_Node000001_Node000003" class="edge">
<title>Node1&#45;&gt;Node3</title>
<g id="a_edge2_Node000001_Node000003"><a xlink:title=" ">
<path fill="none" stroke="#63b8ff" d="M156.12,-101.79C147.57,-103.15 138.85,-104.54 130.37,-105.89"/>
<polygon fill="#63b8ff" stroke="#63b8ff" points="156.41,-105.29 165.73,-100.26 155.31,-98.38 156.41,-105.29"/>
</a>
</g>
</g>
<!-- Node4 -->
<g id="Node000004" class="node">
<title>Node4</title>
<g id="a_Node000004"><a xlink:href="../../d0/dc5/a00343.html#a4120d48e91cc7b88dfa8ab900c7babe3" target="_top" xlink:title="Closes the current service or resource.">
<polygon fill="white" stroke="#666666" points="123.25,-82 8.25,-82 8.25,-50 123.25,-50 123.25,-82"/>
<text text-anchor="start" x="16.25" y="-68.5" font-family="Helvetica,sans-Serif" font-size="10.00">Lib::Xbee::API::Service</text>
<text text-anchor="middle" x="65.75" y="-56.5" font-family="Helvetica,sans-Serif" font-size="10.00">::Parameters::close</text>
</a>
</g>
</g>
<!-- Node1&#45;&gt;Node4 -->
<g id="edge3_Node000001_Node000004" class="edge">
<title>Node1&#45;&gt;Node4</title>
<g id="a_edge3_Node000001_Node000004"><a xlink:title=" ">
<path fill="none" stroke="#63b8ff" d="M156.1,-80.21C145.3,-78.49 134.22,-76.73 123.7,-75.05"/>
<polygon fill="#63b8ff" stroke="#63b8ff" points="155.31,-83.62 165.73,-81.74 156.41,-76.71 155.31,-83.62"/>
</a>
</g>
</g>
<!-- Node5 -->
<g id="Node000005" class="node">
<title>Node5</title>
<g id="a_Node000005"><a xlink:href="../../df/dc2/a00367.html#a0e9f9da436a79e52c0840328005471b9" target="_top" xlink:title="Closes the Spectrum Analyzer service.">
<polygon fill="white" stroke="#666666" points="131.5,-32 0,-32 0,0 131.5,0 131.5,-32"/>
<text text-anchor="start" x="8" y="-18.5" font-family="Helvetica,sans-Serif" font-size="10.00">Lib::Xbee::API::Service</text>
<text text-anchor="middle" x="65.75" y="-6.5" font-family="Helvetica,sans-Serif" font-size="10.00">::SpectrumAnalyzer::close</text>
</a>
</g>
</g>
<!-- Node1&#45;&gt;Node5 -->
<g id="edge4_Node000001_Node000005" class="edge">
<title>Node1&#45;&gt;Node5</title>
<g id="a_edge4_Node000001_Node000005"><a xlink:title=" ">
<path fill="none" stroke="#63b8ff" d="M185.92,-69C169.43,-59.85 149.76,-49.42 131.5,-41 125.15,-38.07 118.36,-35.19 111.64,-32.48"/>
<polygon fill="#63b8ff" stroke="#63b8ff" points="183.97,-71.92 194.41,-73.76 187.4,-65.82 183.97,-71.92"/>
</a>
</g>
</g>
</g>
</svg>
