<?xml version="1.0" encoding="UTF-8" standalone="no"?>
<!DOCTYPE svg PUBLIC "-//W3C//DTD SVG 1.1//EN"
 "http://www.w3.org/Graphics/SVG/1.1/DTD/svg11.dtd">
<!-- Generated by graphviz version 10.0.1 (20240210.2158)
 -->
<!-- Title: Lib::Xbee::API::Service::ServiceBase::open Pages: 1 -->
<svg width="288pt" height="140pt"
 viewBox="0.00 0.00 288.25 140.00" xmlns="http://www.w3.org/2000/svg" xmlns:xlink="http://www.w3.org/1999/xlink">
<g id="graph0" class="graph" transform="scale(1 1) rotate(0) translate(4 136)">
<title>Lib::Xbee::API::Service::ServiceBase::open</title>
<!-- Node1 -->
<g id="Node000001" class="node">
<title>Node1</title>
<g id="a_Node000001"><a xlink:title="Opens the service and marks it as open.">
<polygon fill="#999999" stroke="#666666" points="280.25,-82 165.25,-82 165.25,-50 280.25,-50 280.25,-82"/>
<text text-anchor="start" x="173.25" y="-68.5" font-family="Helvetica,sans-Serif" font-size="10.00">Lib::Xbee::API::Service</text>
<text text-anchor="middle" x="222.75" y="-56.5" font-family="Helvetica,sans-Serif" font-size="10.00">::ServiceBase::open</text>
</a>
</g>
</g>
<!-- Node2 -->
<g id="Node000002" class="node">
<title>Node2</title>
<g id="a_Node000002"><a xlink:href="../../d8/df7/a00331.html#a1be69d251a2225d7ecb04b3210232618" target="_top" xlink:title="Opens the NetworkDiscovery service.">
<polygon fill="white" stroke="#666666" points="127.75,-132 1.5,-132 1.5,-100 127.75,-100 127.75,-132"/>
<text text-anchor="start" x="9.5" y="-118.5" font-family="Helvetica,sans-Serif" font-size="10.00">Lib::Xbee::API::Service</text>
<text text-anchor="middle" x="64.62" y="-106.5" font-family="Helvetica,sans-Serif" font-size="10.00">::NetworkDiscovery::open</text>
</a>
</g>
</g>
<!-- Node1&#45;&gt;Node2 -->
<g id="edge1_Node000001_Node000002" class="edge">
<title>Node1&#45;&gt;Node2</title>
<g id="a_edge1_Node000001_Node000002"><a xlink:title=" ">
<path fill="none" stroke="#63b8ff" d="M159.96,-85.79C145.77,-90.33 130.83,-95.12 117.13,-99.51"/>
<polygon fill="#63b8ff" stroke="#63b8ff" points="160.73,-89.22 169.19,-82.83 158.6,-82.55 160.73,-89.22"/>
</a>
</g>
</g>
<!-- Node3 -->
<g id="Node000003" class="node">
<title>Node3</title>
<g id="a_Node000003"><a xlink:href="../../d0/dc5/a00343.html#aef8d28553d15bf49bffd4b4aca242399" target="_top" xlink:title="Opens the service.">
<polygon fill="white" stroke="#666666" points="122.12,-82 7.12,-82 7.12,-50 122.12,-50 122.12,-82"/>
<text text-anchor="start" x="15.12" y="-68.5" font-family="Helvetica,sans-Serif" font-size="10.00">Lib::Xbee::API::Service</text>
<text text-anchor="middle" x="64.62" y="-56.5" font-family="Helvetica,sans-Serif" font-size="10.00">::Parameters::open</text>
</a>
</g>
</g>
<!-- Node1&#45;&gt;Node3 -->
<g id="edge2_Node000001_Node000003" class="edge">
<title>Node1&#45;&gt;Node3</title>
<g id="a_edge2_Node000001_Node000003"><a xlink:title=" ">
<path fill="none" stroke="#63b8ff" d="M153.73,-66C143.27,-66 132.57,-66 122.39,-66"/>
<polygon fill="#63b8ff" stroke="#63b8ff" points="153.43,-69.5 163.43,-66 153.43,-62.5 153.43,-69.5"/>
</a>
</g>
</g>
<!-- Node4 -->
<g id="Node000004" class="node">
<title>Node4</title>
<g id="a_Node000004"><a xlink:href="../../df/dc2/a00367.html#a2859385ba27aca503bcfd2bd7dffde8b" target="_top" xlink:title="Opens the Spectrum Analyzer service.">
<polygon fill="white" stroke="#666666" points="129.25,-32 0,-32 0,0 129.25,0 129.25,-32"/>
<text text-anchor="start" x="8" y="-18.5" font-family="Helvetica,sans-Serif" font-size="10.00">Lib::Xbee::API::Service</text>
<text text-anchor="middle" x="64.62" y="-6.5" font-family="Helvetica,sans-Serif" font-size="10.00">::SpectrumAnalyzer::open</text>
</a>
</g>
</g>
<!-- Node1&#45;&gt;Node4 -->
<g id="edge3_Node000001_Node000004" class="edge">
<title>Node1&#45;&gt;Node4</title>
<g id="a_edge3_Node000001_Node000004"><a xlink:title=" ">
<path fill="none" stroke="#63b8ff" d="M159.96,-46.21C145.77,-41.67 130.83,-36.88 117.13,-32.49"/>
<polygon fill="#63b8ff" stroke="#63b8ff" points="158.6,-49.45 169.19,-49.17 160.73,-42.78 158.6,-49.45"/>
</a>
</g>
</g>
</g>
</svg>
