<?xml version="1.0" encoding="UTF-8" standalone="no"?>
<!DOCTYPE svg PUBLIC "-//W3C//DTD SVG 1.1//EN"
 "http://www.w3.org/Graphics/SVG/1.1/DTD/svg11.dtd">
<!-- Generated by graphviz version 13.1.0 (20250701.0955)
 -->
<!-- Title: Lib::HAL::DeviceManagerBase::getDevice Pages: 1 -->
<svg width="931pt" height="164pt"
 viewBox="0.00 0.00 931.00 164.00" xmlns="http://www.w3.org/2000/svg" xmlns:xlink="http://www.w3.org/1999/xlink">
<g id="graph0" class="graph" transform="scale(1 1) rotate(0) translate(4 160)">
<title>Lib::HAL::DeviceManagerBase::getDevice</title>
<!-- Node1 -->
<g id="Node000001" class="node">
<title>Node1</title>
<g id="a_Node000001"><a xlink:title="Retrieves a device pointer by searching for a matching handle pointer.">
<polygon fill="#999999" stroke="#666666" points="923,-88 772,-88 772,-56 923,-56 923,-88"/>
<text xml:space="preserve" text-anchor="start" x="780" y="-74.5" font-family="Helvetica,sans-Serif" font-size="10.00">Lib::HAL::DeviceManagerBase</text>
<text xml:space="preserve" text-anchor="middle" x="847.5" y="-62.5" font-family="Helvetica,sans-Serif" font-size="10.00">::getDevice</text>
</a>
</g>
</g>
<!-- Node2 -->
<g id="Node000002" class="node">
<title>Node2</title>
<g id="a_Node000002"><a xlink:href="../../dc/d1f/class_lib_1_1_h_a_l_1_1_i2_c_1_1_master_1_1_transperent_base_1_1_device_manager.html#aada5325946e059682233bd461b1f7fa9" target="_top" xlink:title="ISR callback dispatcher for I2C events.">
<polygon fill="white" stroke="#666666" points="736,-156 565.5,-156 565.5,-112 736,-112 736,-156"/>
<text xml:space="preserve" text-anchor="start" x="573.5" y="-142.5" font-family="Helvetica,sans-Serif" font-size="10.00">Lib::HAL::I2C::Master</text>
<text xml:space="preserve" text-anchor="start" x="573.5" y="-130.5" font-family="Helvetica,sans-Serif" font-size="10.00">::TransperentBase::DeviceManager</text>
<text xml:space="preserve" text-anchor="middle" x="650.75" y="-118.5" font-family="Helvetica,sans-Serif" font-size="10.00">::isrCallback</text>
</a>
</g>
</g>
<!-- Node1&#45;&gt;Node2 -->
<g id="edge1_Node000001_Node000002" class="edge">
<title>Node1&#45;&gt;Node2</title>
<g id="a_edge1_Node000001_Node000002"><a xlink:title=" ">
<path fill="none" stroke="#63b8ff" d="M783.87,-91.94C764.26,-98.18 742.49,-105.11 722.37,-111.52"/>
<polygon fill="#63b8ff" stroke="#63b8ff" points="784.91,-95.28 793.38,-88.91 782.79,-88.61 784.91,-95.28"/>
</a>
</g>
</g>
<!-- Node4 -->
<g id="Node000004" class="node">
<title>Node4</title>
<g id="a_Node000004"><a xlink:href="../../d2/d09/class_lib_1_1_h_a_l_1_1_s_p_i_1_1_master_1_1_transperent_base_1_1_device_manager.html#aa848afad53e4608d4846727586857fd2" target="_top" xlink:title="Static callback dispatcher for SPI events.">
<polygon fill="white" stroke="#666666" points="736,-94 565.5,-94 565.5,-50 736,-50 736,-94"/>
<text xml:space="preserve" text-anchor="start" x="573.5" y="-80.5" font-family="Helvetica,sans-Serif" font-size="10.00">Lib::HAL::SPI::Master</text>
<text xml:space="preserve" text-anchor="start" x="573.5" y="-68.5" font-family="Helvetica,sans-Serif" font-size="10.00">::TransperentBase::DeviceManager</text>
<text xml:space="preserve" text-anchor="middle" x="650.75" y="-56.5" font-family="Helvetica,sans-Serif" font-size="10.00">::isrCallback</text>
</a>
</g>
</g>
<!-- Node1&#45;&gt;Node4 -->
<g id="edge3_Node000001_Node000004" class="edge">
<title>Node1&#45;&gt;Node4</title>
<g id="a_edge3_Node000001_Node000004"><a xlink:title=" ">
<path fill="none" stroke="#63b8ff" d="M760.51,-72C752.49,-72 744.37,-72 736.36,-72"/>
<polygon fill="#63b8ff" stroke="#63b8ff" points="760.25,-75.5 770.25,-72 760.25,-68.5 760.25,-75.5"/>
</a>
</g>
</g>
<!-- Node8 -->
<g id="Node000008" class="node">
<title>Node8</title>
<g id="a_Node000008"><a xlink:href="../../d7/d3e/class_lib_1_1_h_a_l_1_1_t_i_m_1_1_base_1_1_device_manager.html#a9fe8bb635fbae9a9a63f1d4f955f5295" target="_top" xlink:title="Static ISR callback router for HAL_TIM events.">
<polygon fill="white" stroke="#666666" points="723.25,-32 578.25,-32 578.25,0 723.25,0 723.25,-32"/>
<text xml:space="preserve" text-anchor="start" x="586.25" y="-18.5" font-family="Helvetica,sans-Serif" font-size="10.00">Lib::HAL::TIM::Base</text>
<text xml:space="preserve" text-anchor="middle" x="650.75" y="-6.5" font-family="Helvetica,sans-Serif" font-size="10.00">::DeviceManager::isrCallback</text>
</a>
</g>
</g>
<!-- Node1&#45;&gt;Node8 -->
<g id="edge7_Node000001_Node000008" class="edge">
<title>Node1&#45;&gt;Node8</title>
<g id="a_edge7_Node000001_Node000008"><a xlink:title=" ">
<path fill="none" stroke="#63b8ff" d="M778.24,-52.37C755.64,-45.87 730.74,-38.71 709.05,-32.48"/>
<polygon fill="#63b8ff" stroke="#63b8ff" points="777.09,-55.68 787.67,-55.08 779.02,-48.96 777.09,-55.68"/>
</a>
</g>
</g>
<!-- Node3 -->
<g id="Node000003" class="node">
<title>Node3</title>
<g id="a_Node000003"><a xlink:href="../../dc/d1f/class_lib_1_1_h_a_l_1_1_i2_c_1_1_master_1_1_transperent_base_1_1_device_manager.html#afb5a48387c32a93cdddbb6aaa3ec27c9" target="_top" xlink:title="Adds a device and registers I2C callbacks.">
<polygon fill="white" stroke="#666666" points="529.5,-150 337.25,-150 337.25,-118 529.5,-118 529.5,-150"/>
<text xml:space="preserve" text-anchor="start" x="345.25" y="-136.5" font-family="Helvetica,sans-Serif" font-size="10.00">Lib::HAL::I2C::Master</text>
<text xml:space="preserve" text-anchor="middle" x="433.38" y="-124.5" font-family="Helvetica,sans-Serif" font-size="10.00">::TransperentBase::DeviceManager::add</text>
</a>
</g>
</g>
<!-- Node2&#45;&gt;Node3 -->
<g id="edge2_Node000002_Node000003" class="edge">
<title>Node2&#45;&gt;Node3</title>
<g id="a_edge2_Node000002_Node000003"><a xlink:title=" ">
<path fill="none" stroke="#63b8ff" d="M553.94,-134C545.88,-134 537.74,-134 529.69,-134"/>
<polygon fill="#63b8ff" stroke="#63b8ff" points="553.73,-137.5 563.73,-134 553.73,-130.5 553.73,-137.5"/>
</a>
</g>
</g>
<!-- Node5 -->
<g id="Node000005" class="node">
<title>Node5</title>
<g id="a_Node000005"><a xlink:href="../../d2/d09/class_lib_1_1_h_a_l_1_1_s_p_i_1_1_master_1_1_transperent_base_1_1_device_manager.html#ad8aa05726a3cf91fe474aec59b7961ac" target="_top" xlink:title="Initializes the SPI device and registers callbacks.">
<polygon fill="white" stroke="#666666" points="528,-88 338.75,-88 338.75,-56 528,-56 528,-88"/>
<text xml:space="preserve" text-anchor="start" x="346.75" y="-74.5" font-family="Helvetica,sans-Serif" font-size="10.00">Lib::HAL::SPI::Master</text>
<text xml:space="preserve" text-anchor="middle" x="433.38" y="-62.5" font-family="Helvetica,sans-Serif" font-size="10.00">::TransperentBase::DeviceManager::init</text>
</a>
</g>
</g>
<!-- Node4&#45;&gt;Node5 -->
<g id="edge4_Node000004_Node000005" class="edge">
<title>Node4&#45;&gt;Node5</title>
<g id="a_edge4_Node000004_Node000005"><a xlink:title=" ">
<path fill="none" stroke="#63b8ff" d="M553.77,-72C545.29,-72 536.71,-72 528.25,-72"/>
<polygon fill="#63b8ff" stroke="#63b8ff" points="553.73,-75.5 563.73,-72 553.73,-68.5 553.73,-75.5"/>
</a>
</g>
</g>
<!-- Node6 -->
<g id="Node000006" class="node">
<title>Node6</title>
<g id="a_Node000006"><a xlink:href="../../dd/d3d/class_lib_1_1_h_a_l_1_1_s_p_i_1_1_master_1_1_transperent_base.html#a08da249c76eb06b93280befff9234867" target="_top" xlink:title="Initializes the SPI port and prepares it for communication.">
<polygon fill="white" stroke="#666666" points="297.12,-135 182.12,-135 182.12,-103 297.12,-103 297.12,-135"/>
<text xml:space="preserve" text-anchor="start" x="190.12" y="-121.5" font-family="Helvetica,sans-Serif" font-size="10.00">Lib::HAL::SPI::Master</text>
<text xml:space="preserve" text-anchor="middle" x="239.62" y="-109.5" font-family="Helvetica,sans-Serif" font-size="10.00">::TransperentBase::init</text>
</a>
</g>
</g>
<!-- Node5&#45;&gt;Node6 -->
<g id="edge5_Node000005_Node000006" class="edge">
<title>Node5&#45;&gt;Node6</title>
<g id="a_edge5_Node000005_Node000006"><a xlink:title=" ">
<path fill="none" stroke="#63b8ff" d="M354.25,-91.15C335.25,-95.81 315.28,-100.7 297.47,-105.07"/>
<polygon fill="#63b8ff" stroke="#63b8ff" points="354.96,-94.58 363.84,-88.8 353.29,-87.78 354.96,-94.58"/>
</a>
</g>
</g>
<!-- Node7 -->
<g id="Node000007" class="node">
<title>Node7</title>
<g id="a_Node000007"><a xlink:href="../../dd/d3d/class_lib_1_1_h_a_l_1_1_s_p_i_1_1_master_1_1_transperent_base.html#ab8e2cd793d74d7fed6547f8c41e03b11" target="_top" xlink:title="Opens the SPI port, registers the device, and initializes event notification.">
<polygon fill="white" stroke="#666666" points="301.25,-85 178,-85 178,-53 301.25,-53 301.25,-85"/>
<text xml:space="preserve" text-anchor="start" x="186" y="-71.5" font-family="Helvetica,sans-Serif" font-size="10.00">Lib::HAL::SPI::Master</text>
<text xml:space="preserve" text-anchor="middle" x="239.62" y="-59.5" font-family="Helvetica,sans-Serif" font-size="10.00">::TransperentBase::open</text>
</a>
</g>
</g>
<!-- Node5&#45;&gt;Node7 -->
<g id="edge6_Node000005_Node000007" class="edge">
<title>Node5&#45;&gt;Node7</title>
<g id="a_edge6_Node000005_Node000007"><a xlink:title=" ">
<path fill="none" stroke="#63b8ff" d="M327.03,-70.35C318.36,-70.22 309.79,-70.08 301.61,-69.95"/>
<polygon fill="#63b8ff" stroke="#63b8ff" points="326.9,-73.85 336.95,-70.51 327.01,-66.85 326.9,-73.85"/>
</a>
</g>
</g>
<!-- Node9 -->
<g id="Node000009" class="node">
<title>Node9</title>
<g id="a_Node000009"><a xlink:href="../../d7/d3e/class_lib_1_1_h_a_l_1_1_t_i_m_1_1_base_1_1_device_manager.html#ad52b33bb8cd29f654a0f7c999d0201ad" target="_top" xlink:title="Adds a TIM device and registers all HAL callbacks.">
<polygon fill="white" stroke="#666666" points="489.38,-32 377.38,-32 377.38,0 489.38,0 489.38,-32"/>
<text xml:space="preserve" text-anchor="start" x="385.38" y="-18.5" font-family="Helvetica,sans-Serif" font-size="10.00">Lib::HAL::TIM::Base</text>
<text xml:space="preserve" text-anchor="middle" x="433.38" y="-6.5" font-family="Helvetica,sans-Serif" font-size="10.00">::DeviceManager::add</text>
</a>
</g>
</g>
<!-- Node8&#45;&gt;Node9 -->
<g id="edge8_Node000008_Node000009" class="edge">
<title>Node8&#45;&gt;Node9</title>
<g id="a_edge8_Node000008_Node000009"><a xlink:title=" ">
<path fill="none" stroke="#63b8ff" d="M566.74,-16C540.96,-16 513.19,-16 489.77,-16"/>
<polygon fill="#63b8ff" stroke="#63b8ff" points="566.52,-19.5 576.52,-16 566.52,-12.5 566.52,-19.5"/>
</a>
</g>
</g>
<!-- Node10 -->
<g id="Node000010" class="node">
<title>Node10</title>
<g id="a_Node000010"><a xlink:href="../../d4/de3/class_lib_1_1_h_a_l_1_1_t_i_m_1_1_base.html#ac65559737120cd6ab6d522a27a70e8af" target="_top" xlink:title="Opens the device and registers it with the device manager.">
<polygon fill="white" stroke="#666666" points="292.62,-32 186.62,-32 186.62,0 292.62,0 292.62,-32"/>
<text xml:space="preserve" text-anchor="start" x="194.62" y="-18.5" font-family="Helvetica,sans-Serif" font-size="10.00">Lib::HAL::TIM::Base</text>
<text xml:space="preserve" text-anchor="middle" x="239.62" y="-6.5" font-family="Helvetica,sans-Serif" font-size="10.00">::open</text>
</a>
</g>
</g>
<!-- Node9&#45;&gt;Node10 -->
<g id="edge9_Node000009_Node000010" class="edge">
<title>Node9&#45;&gt;Node10</title>
<g id="a_edge9_Node000009_Node000010"><a xlink:title=" ">
<path fill="none" stroke="#63b8ff" d="M365.49,-16C341.74,-16 315.37,-16 293,-16"/>
<polygon fill="#63b8ff" stroke="#63b8ff" points="365.4,-19.5 375.4,-16 365.4,-12.5 365.4,-19.5"/>
</a>
</g>
</g>
<!-- Node11 -->
<g id="Node000011" class="node">
<title>Node11</title>
<g id="a_Node000011"><a xlink:href="../../d7/db7/class_lib_1_1_h_a_l_1_1_t_i_m_1_1_timer_3_01_mode_1_1_e_n_c_o_d_e_r_01_4.html#a2e360de332a83d537ba388388e58122a" target="_top" xlink:title="Opens the encoder timer and starts interrupt&#45;driven counting.">
<polygon fill="white" stroke="#666666" points="142,-32 0,-32 0,0 142,0 142,-32"/>
<text xml:space="preserve" text-anchor="start" x="8" y="-18.5" font-family="Helvetica,sans-Serif" font-size="10.00">Lib::HAL::TIM::Timer</text>
<text xml:space="preserve" text-anchor="middle" x="71" y="-6.5" font-family="Helvetica,sans-Serif" font-size="10.00">&lt; Mode::ENCODER &gt;::open</text>
</a>
</g>
</g>
<!-- Node10&#45;&gt;Node11 -->
<g id="edge10_Node000010_Node000011" class="edge">
<title>Node10&#45;&gt;Node11</title>
<g id="a_edge10_Node000010_Node000011"><a xlink:title=" ">
<path fill="none" stroke="#63b8ff" d="M175.01,-16C164.34,-16 153.23,-16 142.41,-16"/>
<polygon fill="#63b8ff" stroke="#63b8ff" points="174.85,-19.5 184.85,-16 174.85,-12.5 174.85,-19.5"/>
</a>
</g>
</g>
</g>
</svg>
