<?xml version="1.0" encoding="UTF-8" standalone="no"?>
<!DOCTYPE svg PUBLIC "-//W3C//DTD SVG 1.1//EN"
 "http://www.w3.org/Graphics/SVG/1.1/DTD/svg11.dtd">
<!-- Generated by graphviz version 13.1.0 (20250701.0955)
 -->
<!-- Title: Lib::HAL::DeviceManagerBase::remove Pages: 1 -->
<svg width="688pt" height="214pt"
 viewBox="0.00 0.00 688.00 214.00" xmlns="http://www.w3.org/2000/svg" xmlns:xlink="http://www.w3.org/1999/xlink">
<g id="graph0" class="graph" transform="scale(1 1) rotate(0) translate(4 210)">
<title>Lib::HAL::DeviceManagerBase::remove</title>
<!-- Node1 -->
<g id="Node000001" class="node">
<title>Node1</title>
<g id="a_Node000001"><a xlink:title="Removes a device pointer from the manager and stops tracking it.">
<polygon fill="#999999" stroke="#666666" points="679.75,-119 528.75,-119 528.75,-87 679.75,-87 679.75,-119"/>
<text xml:space="preserve" text-anchor="start" x="536.75" y="-105.5" font-family="Helvetica,sans-Serif" font-size="10.00">Lib::HAL::DeviceManagerBase</text>
<text xml:space="preserve" text-anchor="middle" x="604.25" y="-93.5" font-family="Helvetica,sans-Serif" font-size="10.00">::remove</text>
</a>
</g>
</g>
<!-- Node2 -->
<g id="Node000002" class="node">
<title>Node2</title>
<g id="a_Node000002"><a xlink:href="../../d3/ddc/class_lib_1_1_h_a_l_1_1_g_p_i_o_1_1_ext_interrupt_1_1_device_manager.html#a2c16dd3319bcb20232ac7310edbabdd2" target="_top" xlink:title="Removes an ExtInterrupt device from the manager.">
<polygon fill="white" stroke="#666666" points="478.5,-206 336.5,-206 336.5,-174 478.5,-174 478.5,-206"/>
<text xml:space="preserve" text-anchor="start" x="344.5" y="-192.5" font-family="Helvetica,sans-Serif" font-size="10.00">Lib::HAL::GPIO::ExtInterrupt</text>
<text xml:space="preserve" text-anchor="middle" x="407.5" y="-180.5" font-family="Helvetica,sans-Serif" font-size="10.00">::DeviceManager::remove</text>
</a>
</g>
</g>
<!-- Node1&#45;&gt;Node2 -->
<g id="edge1_Node000001_Node000002" class="edge">
<title>Node1&#45;&gt;Node2</title>
<g id="a_edge1_Node000001_Node000002"><a xlink:title=" ">
<path fill="none" stroke="#63b8ff" d="M568.19,-125.33C546.95,-138.18 518.99,-153.91 492.75,-165 485.44,-168.09 477.63,-170.95 469.81,-173.56"/>
<polygon fill="#63b8ff" stroke="#63b8ff" points="569.75,-128.48 576.45,-120.27 566.09,-122.51 569.75,-128.48"/>
</a>
</g>
</g>
<!-- Node3 -->
<g id="Node000003" class="node">
<title>Node3</title>
<g id="a_Node000003"><a xlink:href="../../dc/d1f/class_lib_1_1_h_a_l_1_1_i2_c_1_1_master_1_1_transperent_base_1_1_device_manager.html#af986dd195721a5b1a0d8e8c7bde5e07e" target="_top" xlink:title="Removes a device and unregisters I2C callbacks.">
<polygon fill="white" stroke="#666666" points="492.75,-156 322.25,-156 322.25,-112 492.75,-112 492.75,-156"/>
<text xml:space="preserve" text-anchor="start" x="330.25" y="-142.5" font-family="Helvetica,sans-Serif" font-size="10.00">Lib::HAL::I2C::Master</text>
<text xml:space="preserve" text-anchor="start" x="330.25" y="-130.5" font-family="Helvetica,sans-Serif" font-size="10.00">::TransperentBase::DeviceManager</text>
<text xml:space="preserve" text-anchor="middle" x="407.5" y="-118.5" font-family="Helvetica,sans-Serif" font-size="10.00">::remove</text>
</a>
</g>
</g>
<!-- Node1&#45;&gt;Node3 -->
<g id="edge2_Node000001_Node000003" class="edge">
<title>Node1&#45;&gt;Node3</title>
<g id="a_edge2_Node000001_Node000003"><a xlink:title=" ">
<path fill="none" stroke="#63b8ff" d="M517.26,-116.69C509.24,-117.96 501.12,-119.26 493.11,-120.53"/>
<polygon fill="#63b8ff" stroke="#63b8ff" points="517.69,-120.16 527.02,-115.13 516.59,-113.25 517.69,-120.16"/>
</a>
</g>
</g>
<!-- Node4 -->
<g id="Node000004" class="node">
<title>Node4</title>
<g id="a_Node000004"><a xlink:href="../../d2/d09/class_lib_1_1_h_a_l_1_1_s_p_i_1_1_master_1_1_transperent_base_1_1_device_manager.html#aa2e483989080ec26b2cbc8fe60c43aa1" target="_top" xlink:title="Removes a transparent SPI master device from the manager.">
<polygon fill="white" stroke="#666666" points="492.75,-94 322.25,-94 322.25,-50 492.75,-50 492.75,-94"/>
<text xml:space="preserve" text-anchor="start" x="330.25" y="-80.5" font-family="Helvetica,sans-Serif" font-size="10.00">Lib::HAL::SPI::Master</text>
<text xml:space="preserve" text-anchor="start" x="330.25" y="-68.5" font-family="Helvetica,sans-Serif" font-size="10.00">::TransperentBase::DeviceManager</text>
<text xml:space="preserve" text-anchor="middle" x="407.5" y="-56.5" font-family="Helvetica,sans-Serif" font-size="10.00">::remove</text>
</a>
</g>
</g>
<!-- Node1&#45;&gt;Node4 -->
<g id="edge3_Node000001_Node000004" class="edge">
<title>Node1&#45;&gt;Node4</title>
<g id="a_edge3_Node000001_Node000004"><a xlink:title=" ">
<path fill="none" stroke="#63b8ff" d="M517.26,-89.31C509.24,-88.04 501.12,-86.74 493.11,-85.47"/>
<polygon fill="#63b8ff" stroke="#63b8ff" points="516.59,-92.75 527.02,-90.87 517.69,-85.84 516.59,-92.75"/>
</a>
</g>
</g>
<!-- Node5 -->
<g id="Node000005" class="node">
<title>Node5</title>
<g id="a_Node000005"><a xlink:href="../../d7/d3e/class_lib_1_1_h_a_l_1_1_t_i_m_1_1_base_1_1_device_manager.html#a67c0a77eddcebf540d07f6e7bbb9fe20" target="_top" xlink:title="Removes a TIM device and unregisters all HAL callbacks.">
<polygon fill="white" stroke="#666666" points="471.75,-32 343.25,-32 343.25,0 471.75,0 471.75,-32"/>
<text xml:space="preserve" text-anchor="start" x="351.25" y="-18.5" font-family="Helvetica,sans-Serif" font-size="10.00">Lib::HAL::TIM::Base</text>
<text xml:space="preserve" text-anchor="middle" x="407.5" y="-6.5" font-family="Helvetica,sans-Serif" font-size="10.00">::DeviceManager::remove</text>
</a>
</g>
</g>
<!-- Node1&#45;&gt;Node5 -->
<g id="edge4_Node000001_Node000005" class="edge">
<title>Node1&#45;&gt;Node5</title>
<g id="a_edge4_Node000001_Node000005"><a xlink:title=" ">
<path fill="none" stroke="#63b8ff" d="M568.19,-80.67C546.95,-67.82 518.99,-52.09 492.75,-41 485.44,-37.91 477.63,-35.05 469.81,-32.44"/>
<polygon fill="#63b8ff" stroke="#63b8ff" points="566.09,-83.49 576.45,-85.73 569.75,-77.52 566.09,-83.49"/>
</a>
</g>
</g>
<!-- Node6 -->
<g id="Node000006" class="node">
<title>Node6</title>
<g id="a_Node000006"><a xlink:href="../../d4/de3/class_lib_1_1_h_a_l_1_1_t_i_m_1_1_base.html#a722cf0939b693295625e6e6407105bf0" target="_top" xlink:title="Closes the device and unregisters it from the device manager.">
<polygon fill="white" stroke="#666666" points="286.25,-32 180.25,-32 180.25,0 286.25,0 286.25,-32"/>
<text xml:space="preserve" text-anchor="start" x="188.25" y="-18.5" font-family="Helvetica,sans-Serif" font-size="10.00">Lib::HAL::TIM::Base</text>
<text xml:space="preserve" text-anchor="middle" x="233.25" y="-6.5" font-family="Helvetica,sans-Serif" font-size="10.00">::close</text>
</a>
</g>
</g>
<!-- Node5&#45;&gt;Node6 -->
<g id="edge5_Node000005_Node000006" class="edge">
<title>Node5&#45;&gt;Node6</title>
<g id="a_edge5_Node000005_Node000006"><a xlink:title=" ">
<path fill="none" stroke="#63b8ff" d="M331.43,-16C316.33,-16 300.77,-16 286.65,-16"/>
<polygon fill="#63b8ff" stroke="#63b8ff" points="331.34,-19.5 341.34,-16 331.34,-12.5 331.34,-19.5"/>
</a>
</g>
</g>
<!-- Node7 -->
<g id="Node000007" class="node">
<title>Node7</title>
<g id="a_Node000007"><a xlink:href="../../d7/db7/class_lib_1_1_h_a_l_1_1_t_i_m_1_1_timer_3_01_mode_1_1_e_n_c_o_d_e_r_01_4.html#a30e3fabb9057f35427bb6a23666cc6e5" target="_top" xlink:title="Closes the encoder timer and stops interrupt&#45;driven counting.">
<polygon fill="white" stroke="#666666" points="144.25,-32 0,-32 0,0 144.25,0 144.25,-32"/>
<text xml:space="preserve" text-anchor="start" x="8" y="-18.5" font-family="Helvetica,sans-Serif" font-size="10.00">Lib::HAL::TIM::Timer</text>
<text xml:space="preserve" text-anchor="middle" x="72.12" y="-6.5" font-family="Helvetica,sans-Serif" font-size="10.00">&lt; Mode::ENCODER &gt;::close</text>
</a>
</g>
</g>
<!-- Node6&#45;&gt;Node7 -->
<g id="edge6_Node000006_Node000007" class="edge">
<title>Node6&#45;&gt;Node7</title>
<g id="a_edge6_Node000006_Node000007"><a xlink:title=" ">
<path fill="none" stroke="#63b8ff" d="M168.76,-16C160.85,-16 152.72,-16 144.71,-16"/>
<polygon fill="#63b8ff" stroke="#63b8ff" points="168.63,-19.5 178.63,-16 168.63,-12.5 168.63,-19.5"/>
</a>
</g>
</g>
</g>
</svg>
