<?xml version="1.0" encoding="UTF-8" standalone="no"?>
<!DOCTYPE svg PUBLIC "-//W3C//DTD SVG 1.1//EN"
 "http://www.w3.org/Graphics/SVG/1.1/DTD/svg11.dtd">
<!-- Generated by graphviz version 13.1.0 (20250701.0955)
 -->
<!-- Title: Singleton&lt; T &gt; Pages: 1 -->
<svg width="80pt" height="124pt"
 viewBox="0.00 0.00 80.00 124.00" xmlns="http://www.w3.org/2000/svg" xmlns:xlink="http://www.w3.org/1999/xlink">
<g id="graph0" class="graph" transform="scale(1 1) rotate(0) translate(4 120)">
<title>Singleton&lt; T &gt;</title>
<!-- Node1 -->
<g id="Node000001" class="node">
<title>Node1</title>
<g id="a_Node000001"><a xlink:title="Template for creating singleton classes.">
<polygon fill="#999999" stroke="none" points="71.75,-116 0,-116 0,0 71.75,0 71.75,-116"/>
<text xml:space="preserve" text-anchor="start" x="4" y="-102.5" font-family="Helvetica,sans-Serif" font-size="10.00">Singleton&lt; T &gt;</text>
<text xml:space="preserve" text-anchor="start" x="34.38" y="-86.5" font-family="Helvetica,sans-Serif" font-size="10.00"> </text>
<text xml:space="preserve" text-anchor="start" x="4.31" y="-70.5" font-family="Helvetica,sans-Serif" font-size="10.00">+</text>
<text xml:space="preserve" text-anchor="start" x="14.62" y="-70.5" font-family="Helvetica,sans-Serif" font-size="10.00">Singleton()</text>
<text xml:space="preserve" text-anchor="start" x="4.31" y="-54.5" font-family="Helvetica,sans-Serif" font-size="10.00">+</text>
<text xml:space="preserve" text-anchor="start" x="14.62" y="-54.5" font-family="Helvetica,sans-Serif" font-size="10.00">operator=()</text>
<text xml:space="preserve" text-anchor="start" x="4.31" y="-38.5" font-family="Helvetica,sans-Serif" font-size="10.00">+</text>
<text xml:space="preserve" text-anchor="start" x="14.62" y="-38.5" font-family="Helvetica,sans-Serif" font-size="10.00">instance()</text>
<text xml:space="preserve" text-anchor="start" x="4.69" y="-22.5" font-family="Helvetica,sans-Serif" font-size="10.00">#</text>
<text xml:space="preserve" text-anchor="start" x="14.62" y="-22.5" font-family="Helvetica,sans-Serif" font-size="10.00">Singleton()</text>
<text xml:space="preserve" text-anchor="start" x="4.69" y="-6.5" font-family="Helvetica,sans-Serif" font-size="10.00">#</text>
<text xml:space="preserve" text-anchor="start" x="14.62" y="-6.5" font-family="Helvetica,sans-Serif" font-size="10.00">~Singleton()</text>
<polygon fill="#666666" stroke="#666666" points="0,-98 0,-98 71.75,-98 71.75,-98 0,-98"/>
<polygon fill="#666666" stroke="#666666" points="0,-82 0,-82 71.75,-82 71.75,-82 0,-82"/>
<polygon fill="none" stroke="#666666" points="0,0 0,-116 71.75,-116 71.75,0 0,0"/>
</a>
</g>
</g>
</g>
</svg>
