<?xml version="1.0" encoding="UTF-8" standalone="no"?>
<!DOCTYPE svg PUBLIC "-//W3C//DTD SVG 1.1//EN"
 "http://www.w3.org/Graphics/SVG/1.1/DTD/svg11.dtd">
<!-- Generated by graphviz version 13.1.0 (20250701.0955)
 -->
<!-- Title: Lib::Xbee::API::Service::NetworkDiscovery::Node Pages: 1 -->
<svg width="255pt" height="108pt"
 viewBox="0.00 0.00 255.00 108.00" xmlns="http://www.w3.org/2000/svg" xmlns:xlink="http://www.w3.org/1999/xlink">
<g id="graph0" class="graph" transform="scale(1 1) rotate(0) translate(4 104)">
<title>Lib::Xbee::API::Service::NetworkDiscovery::Node</title>
<!-- Node1 -->
<g id="Node000001" class="node">
<title>Node1</title>
<g id="a_Node000001"><a xlink:title="Node information structure.">
<polygon fill="#999999" stroke="none" points="162.38,-29 48.62,-29 48.62,0 162.38,0 162.38,-29"/>
<text xml:space="preserve" text-anchor="start" x="52.62" y="-16.45" font-family="Arial" font-size="9.00">Lib::Xbee::API::Service</text>
<text xml:space="preserve" text-anchor="start" x="52.62" y="-5.95" font-family="Arial" font-size="9.00">::NetworkDiscovery::Node</text>
<polygon fill="none" stroke="#666666" points="48.62,0 48.62,-29 162.38,-29 162.38,0 48.62,0"/>
</a>
</g>
</g>
<!-- Node2 -->
<g id="Node000002" class="node">
<title>Node2</title>
<g id="a_Node000002"><a xlink:title=" ">
<polygon fill="white" stroke="none" points="41,-100 0,-100 0,-81.5 41,-81.5 41,-100"/>
<text xml:space="preserve" text-anchor="start" x="4" y="-87.45" font-family="Arial" font-size="9.00">uint16_t</text>
<polygon fill="none" stroke="#bfbfbf" points="0,-81.5 0,-100 41,-100 41,-81.5 0,-81.5"/>
</a>
</g>
</g>
<!-- Node2&#45;&gt;Node1 -->
<g id="edge1_Node000001_Node000002" class="edge">
<title>Node2&#45;&gt;Node1</title>
<g id="a_edge1_Node000001_Node000002"><a xlink:title=" ">
<path fill="none" stroke="#63b8ff" d="M22.26,-81.53C24.66,-72.13 29.77,-56.77 39.25,-47 43.57,-42.55 48.64,-38.65 54.02,-35.26"/>
<polygon fill="none" stroke="#63b8ff" points="54.07,-35.23 57.39,-28.83 64.58,-29.42 61.26,-35.83 54.07,-35.23"/>
</a>
</g>
<text xml:space="preserve" text-anchor="start" x="42.25" y="-51.95" font-family="Arial" font-size="9.00" fill="grey">+nodeAddr16</text>
</g>
<!-- Node3 -->
<g id="Node000003" class="node">
<title>Node3</title>
<g id="a_Node000003"><a xlink:title=" ">
<polygon fill="white" stroke="none" points="126,-100 85,-100 85,-81.5 126,-81.5 126,-100"/>
<text xml:space="preserve" text-anchor="start" x="89" y="-87.45" font-family="Arial" font-size="9.00">uint64_t</text>
<polygon fill="none" stroke="#bfbfbf" points="85,-81.5 85,-100 126,-100 126,-81.5 85,-81.5"/>
</a>
</g>
</g>
<!-- Node3&#45;&gt;Node1 -->
<g id="edge2_Node000001_Node000003" class="edge">
<title>Node3&#45;&gt;Node1</title>
<g id="a_edge2_Node000001_Node000003"><a xlink:title=" ">
<path fill="none" stroke="#63b8ff" d="M105.5,-81.52C105.5,-71.95 105.5,-55.67 105.5,-41.67"/>
<polygon fill="none" stroke="#63b8ff" points="105.5,-41.67 101.5,-35.67 105.5,-29.67 109.5,-35.67 105.5,-41.67"/>
</a>
</g>
<text xml:space="preserve" text-anchor="start" x="108.5" y="-51.95" font-family="Arial" font-size="9.00" fill="grey">+macAddress</text>
</g>
<!-- Node4 -->
<g id="Node000004" class="node">
<title>Node4</title>
<g id="a_Node000004"><a xlink:title=" ">
<polygon fill="white" stroke="none" points="205.75,-100 175.25,-100 175.25,-81.5 205.75,-81.5 205.75,-100"/>
<text xml:space="preserve" text-anchor="start" x="179.25" y="-87.45" font-family="Arial" font-size="9.00">string</text>
<polygon fill="none" stroke="#bfbfbf" points="175.25,-81.5 175.25,-100 205.75,-100 205.75,-81.5 175.25,-81.5"/>
</a>
</g>
</g>
<!-- Node4&#45;&gt;Node1 -->
<g id="edge3_Node000001_Node000004" class="edge">
<title>Node4&#45;&gt;Node1</title>
<g id="a_edge3_Node000001_Node000004"><a xlink:title=" ">
<path fill="none" stroke="#63b8ff" d="M188.02,-81.56C184.83,-72.19 178.47,-56.86 168.5,-47 164.06,-42.61 158.88,-38.72 153.44,-35.3"/>
<polygon fill="none" stroke="#63b8ff" points="153.32,-35.23 146.13,-35.8 142.84,-29.38 150.03,-28.81 153.32,-35.23"/>
</a>
</g>
<text xml:space="preserve" text-anchor="start" x="182.95" y="-51.95" font-family="Arial" font-size="9.00" fill="grey">+nodeIdentifier</text>
</g>
</g>
</svg>
