<?xml version="1.0" encoding="UTF-8" standalone="no"?>
<!DOCTYPE svg PUBLIC "-//W3C//DTD SVG 1.1//EN"
 "http://www.w3.org/Graphics/SVG/1.1/DTD/svg11.dtd">
<!-- Generated by graphviz version 10.0.1 (20240210.2158)
 -->
<!-- Title: ChannelScanner.hpp Pages: 1 -->
<svg width="985pt" height="152pt"
 viewBox="0.00 0.00 984.88 152.00" xmlns="http://www.w3.org/2000/svg" xmlns:xlink="http://www.w3.org/1999/xlink">
<g id="graph0" class="graph" transform="scale(1 1) rotate(0) translate(4 148)">
<title>ChannelScanner.hpp</title>
<!-- Node1 -->
<g id="Node000001" class="node">
<title>Node1</title>
<g id="a_Node000001"><a xlink:title="Header file for the ChannelScanner service class.">
<polygon fill="#999999" stroke="#666666" points="824.25,-144 718.25,-144 718.25,-124 824.25,-124 824.25,-144"/>
<text text-anchor="middle" x="771.25" y="-130.5" font-family="Helvetica,sans-Serif" font-size="10.00">ChannelScanner.hpp</text>
</a>
</g>
</g>
<!-- Node2 -->
<g id="Node000002" class="node">
<title>Node2</title>
<g id="a_Node000002"><a xlink:title=" ">
<polygon fill="#e0e0e0" stroke="#999999" points="605.25,-88 463.25,-88 463.25,-68 605.25,-68 605.25,-88"/>
<text text-anchor="middle" x="534.25" y="-74.5" font-family="Helvetica,sans-Serif" font-size="10.00">Lib/Xbee/API/Connection.hpp</text>
</a>
</g>
</g>
<!-- Node1&#45;&gt;Node2 -->
<g id="edge1_Node000001_Node000002" class="edge">
<title>Node1&#45;&gt;Node2</title>
<g id="a_edge1_Node000001_Node000002"><a xlink:title=" ">
<path fill="none" stroke="#63b8ff" d="M729.7,-123.53C689.97,-114.48 629.91,-100.8 586.86,-90.99"/>
<polygon fill="#63b8ff" stroke="#63b8ff" points="587.76,-87.6 577.23,-88.79 586.2,-94.43 587.76,-87.6"/>
</a>
</g>
</g>
<!-- Node3 -->
<g id="Node000003" class="node">
<title>Node3</title>
<g id="a_Node000003"><a xlink:href="../../d3/d00/a00113.html" target="_top" xlink:title="This file contains the declaration and implementation of the Parameters class, which is part of the L...">
<polygon fill="white" stroke="#666666" points="708.75,-88 623.75,-88 623.75,-68 708.75,-68 708.75,-88"/>
<text text-anchor="middle" x="666.25" y="-74.5" font-family="Helvetica,sans-Serif" font-size="10.00">Parameters.hpp</text>
</a>
</g>
</g>
<!-- Node1&#45;&gt;Node3 -->
<g id="edge2_Node000001_Node000003" class="edge">
<title>Node1&#45;&gt;Node3</title>
<g id="a_edge2_Node000001_Node000003"><a xlink:title=" ">
<path fill="none" stroke="#63b8ff" d="M752.96,-123.59C736.95,-115.36 713.42,-103.26 694.91,-93.74"/>
<polygon fill="#63b8ff" stroke="#63b8ff" points="696.52,-90.63 686.03,-89.17 693.32,-96.86 696.52,-90.63"/>
</a>
</g>
</g>
<!-- Node8 -->
<g id="Node000008" class="node">
<title>Node8</title>
<g id="a_Node000008"><a xlink:href="../../d4/d3e/a00116.html" target="_top" xlink:title="Declaration of the ServiceBase class for the Xbee API services.">
<polygon fill="white" stroke="#666666" points="957.62,-26 868.88,-26 868.88,-6 957.62,-6 957.62,-26"/>
<text text-anchor="middle" x="913.25" y="-12.5" font-family="Helvetica,sans-Serif" font-size="10.00">ServiceBase.hpp</text>
</a>
</g>
</g>
<!-- Node1&#45;&gt;Node8 -->
<g id="edge10_Node000001_Node000008" class="edge">
<title>Node1&#45;&gt;Node8</title>
<g id="a_edge10_Node000001_Node000008"><a xlink:title=" ">
<path fill="none" stroke="#63b8ff" d="M764.83,-123.67C756.39,-110.15 744,-84.86 756.25,-68 759.74,-63.19 824.67,-43.19 869.93,-29.71"/>
<polygon fill="#63b8ff" stroke="#63b8ff" points="870.91,-33.07 879.51,-26.87 868.92,-26.36 870.91,-33.07"/>
</a>
</g>
</g>
<!-- Node11 -->
<g id="Node000011" class="node">
<title>Node11</title>
<g id="a_Node000011"><a xlink:title=" ">
<polygon fill="#e0e0e0" stroke="#999999" points="845.5,-88 765,-88 765,-68 845.5,-68 845.5,-88"/>
<text text-anchor="middle" x="805.25" y="-74.5" font-family="Helvetica,sans-Serif" font-size="10.00">FreeRTOS.hpp</text>
</a>
</g>
</g>
<!-- Node1&#45;&gt;Node11 -->
<g id="edge11_Node000001_Node000011" class="edge">
<title>Node1&#45;&gt;Node11</title>
<g id="a_edge11_Node000001_Node000011"><a xlink:title=" ">
<path fill="none" stroke="#63b8ff" d="M777.17,-123.59C781.61,-116.55 787.83,-106.67 793.29,-98"/>
<polygon fill="#63b8ff" stroke="#63b8ff" points="796.22,-99.91 798.59,-89.58 790.3,-96.18 796.22,-99.91"/>
</a>
</g>
</g>
<!-- Node12 -->
<g id="Node000012" class="node">
<title>Node12</title>
<g id="a_Node000012"><a xlink:title=" ">
<polygon fill="#e0e0e0" stroke="#999999" points="901.12,-88 863.38,-88 863.38,-68 901.12,-68 901.12,-88"/>
<text text-anchor="middle" x="882.25" y="-74.5" font-family="Helvetica,sans-Serif" font-size="10.00">array</text>
</a>
</g>
</g>
<!-- Node1&#45;&gt;Node12 -->
<g id="edge12_Node000001_Node000012" class="edge">
<title>Node1&#45;&gt;Node12</title>
<g id="a_edge12_Node000001_Node000012"><a xlink:title=" ">
<path fill="none" stroke="#63b8ff" d="M790.58,-123.59C807.77,-115.23 833.16,-102.88 852.86,-93.3"/>
<polygon fill="#63b8ff" stroke="#63b8ff" points="854.31,-96.48 861.78,-88.96 851.25,-90.19 854.31,-96.48"/>
</a>
</g>
</g>
<!-- Node13 -->
<g id="Node000013" class="node">
<title>Node13</title>
<g id="a_Node000013"><a xlink:title=" ">
<polygon fill="#e0e0e0" stroke="#999999" points="976.88,-88 919.62,-88 919.62,-68 976.88,-68 976.88,-88"/>
<text text-anchor="middle" x="948.25" y="-74.5" font-family="Helvetica,sans-Serif" font-size="10.00">functional</text>
</a>
</g>
</g>
<!-- Node1&#45;&gt;Node13 -->
<g id="edge13_Node000001_Node000013" class="edge">
<title>Node1&#45;&gt;Node13</title>
<g id="a_edge13_Node000001_Node000013"><a xlink:title=" ">
<path fill="none" stroke="#63b8ff" d="M802.08,-123.59C831.58,-114.59 876.23,-100.97 908.42,-91.15"/>
<polygon fill="#63b8ff" stroke="#63b8ff" points="909.25,-94.56 917.79,-88.29 907.21,-87.86 909.25,-94.56"/>
</a>
</g>
</g>
<!-- Node4 -->
<g id="Node000004" class="node">
<title>Node4</title>
<g id="a_Node000004"><a xlink:title=" ">
<polygon fill="#e0e0e0" stroke="#999999" points="146.5,-26 0,-26 0,-6 146.5,-6 146.5,-26"/>
<text text-anchor="middle" x="73.25" y="-12.5" font-family="Helvetica,sans-Serif" font-size="10.00">Lib/XBEE/API/Connection.hpp</text>
</a>
</g>
</g>
<!-- Node3&#45;&gt;Node4 -->
<g id="edge3_Node000003_Node000004" class="edge">
<title>Node3&#45;&gt;Node4</title>
<g id="a_edge3_Node000003_Node000004"><a xlink:title=" ">
<path fill="none" stroke="#63b8ff" d="M623.45,-69.27C620.34,-68.81 617.25,-68.38 614.25,-68 411.22,-42.52 358.16,-58.45 155.25,-32 147.54,-31 139.46,-29.75 131.5,-28.42"/>
<polygon fill="#63b8ff" stroke="#63b8ff" points="132.33,-25.01 121.87,-26.74 131.13,-31.9 132.33,-25.01"/>
</a>
</g>
</g>
<!-- Node5 -->
<g id="Node000005" class="node">
<title>Node5</title>
<g id="a_Node000005"><a xlink:title=" ">
<polygon fill="#e0e0e0" stroke="#999999" points="275.88,-32 164.62,-32 164.62,0 275.88,0 275.88,-32"/>
<text text-anchor="start" x="172.62" y="-18.5" font-family="Helvetica,sans-Serif" font-size="10.00">Lib/XBEE/Core/Frame</text>
<text text-anchor="middle" x="220.25" y="-6.5" font-family="Helvetica,sans-Serif" font-size="10.00">/Helper.hpp</text>
</a>
</g>
</g>
<!-- Node3&#45;&gt;Node5 -->
<g id="edge4_Node000003_Node000005" class="edge">
<title>Node3&#45;&gt;Node5</title>
<g id="a_edge4_Node000003_Node000005"><a xlink:title=" ">
<path fill="none" stroke="#63b8ff" d="M623.43,-69.37C620.33,-68.88 617.24,-68.42 614.25,-68 471.72,-47.91 431.62,-56.43 287.39,-32.42"/>
<polygon fill="#63b8ff" stroke="#63b8ff" points="288.3,-29.03 277.86,-30.81 287.13,-35.93 288.3,-29.03"/>
</a>
</g>
</g>
<!-- Node6 -->
<g id="Node000006" class="node">
<title>Node6</title>
<g id="a_Node000006"><a xlink:title=" ">
<polygon fill="#e0e0e0" stroke="#999999" points="473,-26 293.5,-26 293.5,-6 473,-6 473,-26"/>
<text text-anchor="middle" x="383.25" y="-12.5" font-family="Helvetica,sans-Serif" font-size="10.00">Lib/XBEE/Core/LocalAtCommand.hpp</text>
</a>
</g>
</g>
<!-- Node3&#45;&gt;Node6 -->
<g id="edge5_Node000003_Node000006" class="edge">
<title>Node3&#45;&gt;Node6</title>
<g id="a_edge5_Node000003_Node000006"><a xlink:title=" ">
<path fill="none" stroke="#63b8ff" d="M623.27,-67.89C574.04,-57.45 493.24,-40.32 439.15,-28.85"/>
<polygon fill="#63b8ff" stroke="#63b8ff" points="440.03,-25.46 429.52,-26.81 438.58,-32.31 440.03,-25.46"/>
</a>
</g>
</g>
<!-- Node7 -->
<g id="Node000007" class="node">
<title>Node7</title>
<g id="a_Node000007"><a xlink:title=" ">
<polygon fill="#e0e0e0" stroke="#999999" points="681.25,-26 491.25,-26 491.25,-6 681.25,-6 681.25,-26"/>
<text text-anchor="middle" x="586.25" y="-12.5" font-family="Helvetica,sans-Serif" font-size="10.00">Lib/XBEE/Core/RemoteAtCommand.hpp</text>
</a>
</g>
</g>
<!-- Node3&#45;&gt;Node7 -->
<g id="edge6_Node000003_Node000007" class="edge">
<title>Node3&#45;&gt;Node7</title>
<g id="a_edge6_Node000003_Node000007"><a xlink:title=" ">
<path fill="none" stroke="#63b8ff" d="M653.75,-67.62C641.42,-58.38 622.34,-44.07 607.6,-33.01"/>
<polygon fill="#63b8ff" stroke="#63b8ff" points="609.97,-30.42 599.87,-27.22 605.77,-36.02 609.97,-30.42"/>
</a>
</g>
</g>
<!-- Node3&#45;&gt;Node8 -->
<g id="edge7_Node000003_Node000008" class="edge">
<title>Node3&#45;&gt;Node8</title>
<g id="a_edge7_Node000003_Node000008"><a xlink:title=" ">
<path fill="none" stroke="#63b8ff" d="M709.16,-67.67C748.57,-58.95 808.52,-45.31 860.25,-32 863.38,-31.2 866.6,-30.34 869.84,-29.47"/>
<polygon fill="#63b8ff" stroke="#63b8ff" points="870.63,-32.88 879.34,-26.85 868.77,-26.13 870.63,-32.88"/>
</a>
</g>
</g>
<!-- Node9 -->
<g id="Node000009" class="node">
<title>Node9</title>
<g id="a_Node000009"><a xlink:title=" ">
<polygon fill="#e0e0e0" stroke="#999999" points="793.62,-32 698.88,-32 698.88,0 793.62,0 793.62,-32"/>
<text text-anchor="start" x="706.88" y="-18.5" font-family="Helvetica,sans-Serif" font-size="10.00">Lib/Helper/Convert</text>
<text text-anchor="middle" x="746.25" y="-6.5" font-family="Helvetica,sans-Serif" font-size="10.00">/Bcd.hpp</text>
</a>
</g>
</g>
<!-- Node3&#45;&gt;Node9 -->
<g id="edge8_Node000003_Node000009" class="edge">
<title>Node3&#45;&gt;Node9</title>
<g id="a_edge8_Node000003_Node000009"><a xlink:title=" ">
<path fill="none" stroke="#63b8ff" d="M678.75,-67.62C688.86,-60.04 703.52,-49.05 716.6,-39.24"/>
<polygon fill="#63b8ff" stroke="#63b8ff" points="718.64,-42.08 724.54,-33.28 714.44,-36.48 718.64,-42.08"/>
</a>
</g>
</g>
<!-- Node10 -->
<g id="Node000010" class="node">
<title>Node10</title>
<g id="a_Node000010"><a xlink:title=" ">
<polygon fill="#e0e0e0" stroke="#999999" points="851.25,-26 811.25,-26 811.25,-6 851.25,-6 851.25,-26"/>
<text text-anchor="middle" x="831.25" y="-12.5" font-family="Helvetica,sans-Serif" font-size="10.00">string</text>
</a>
</g>
</g>
<!-- Node3&#45;&gt;Node10 -->
<g id="edge9_Node000003_Node000010" class="edge">
<title>Node3&#45;&gt;Node10</title>
<g id="a_edge9_Node000003_Node000010"><a xlink:title=" ">
<path fill="none" stroke="#63b8ff" d="M699.77,-67.52C727.63,-59.26 768.1,-46.38 802.25,-32 802.73,-31.8 803.22,-31.59 803.71,-31.38"/>
<polygon fill="#63b8ff" stroke="#63b8ff" points="805.08,-34.6 812.61,-27.15 802.08,-28.27 805.08,-34.6"/>
</a>
</g>
</g>
</g>
</svg>
