<?xml version="1.0" encoding="UTF-8" standalone="no"?>
<!DOCTYPE svg PUBLIC "-//W3C//DTD SVG 1.1//EN"
 "http://www.w3.org/Graphics/SVG/1.1/DTD/svg11.dtd">
<!-- Generated by graphviz version 12.2.1 (20241206.2353)
 -->
<!-- Title: Lib::Digi::API::Service::ServiceBase::open Pages: 1 -->
<svg width="288pt" height="190pt"
 viewBox="0.00 0.00 287.50 190.00" xmlns="http://www.w3.org/2000/svg" xmlns:xlink="http://www.w3.org/1999/xlink">
<g id="graph0" class="graph" transform="scale(1 1) rotate(0) translate(4 186)">
<title>Lib::Digi::API::Service::ServiceBase::open</title>
<!-- Node1 -->
<g id="Node000001" class="node">
<title>Node1</title>
<g id="a_Node000001"><a xlink:title="Opens the service and initializes its state.">
<polygon fill="#999999" stroke="#666666" points="279.5,-107 166,-107 166,-75 279.5,-75 279.5,-107"/>
<text text-anchor="start" x="174" y="-93.5" font-family="Helvetica,sans-Serif" font-size="10.00">Lib::Digi::API::Service</text>
<text text-anchor="middle" x="222.75" y="-81.5" font-family="Helvetica,sans-Serif" font-size="10.00">::ServiceBase::open</text>
</a>
</g>
</g>
<!-- Node2 -->
<g id="Node000002" class="node">
<title>Node2</title>
<g id="a_Node000002"><a xlink:href="../../d6/de6/a01132.html#a6227fe53411863d0796ae32216cc624e" target="_top" xlink:title="Opens the ChannelScanner service.">
<polygon fill="white" stroke="#666666" points="125.5,-182 4.5,-182 4.5,-150 125.5,-150 125.5,-182"/>
<text text-anchor="start" x="12.5" y="-168.5" font-family="Helvetica,sans-Serif" font-size="10.00">Lib::Digi::API::Service</text>
<text text-anchor="middle" x="65" y="-156.5" font-family="Helvetica,sans-Serif" font-size="10.00">::ChannelScanner::open</text>
</a>
</g>
</g>
<!-- Node1&#45;&gt;Node2 -->
<g id="edge1_Node000001_Node000002" class="edge">
<title>Node1&#45;&gt;Node2</title>
<g id="a_edge1_Node000001_Node000002"><a xlink:title=" ">
<path fill="none" stroke="#63b8ff" d="M183.98,-112.99C167.62,-122.14 148.11,-132.57 130,-141 123.73,-143.92 117.01,-146.8 110.38,-149.51"/>
<polygon fill="#63b8ff" stroke="#63b8ff" points="185.41,-116.2 192.39,-108.23 181.96,-110.1 185.41,-116.2"/>
</a>
</g>
</g>
<!-- Node3 -->
<g id="Node000003" class="node">
<title>Node3</title>
<g id="a_Node000003"><a xlink:href="../../db/d51/a01144.html#adc0158a501c9ba158fc2637068b8ba9c" target="_top" xlink:title="Opens the network discovery service.">
<polygon fill="white" stroke="#666666" points="130,-132 0,-132 0,-100 130,-100 130,-132"/>
<text text-anchor="start" x="8" y="-118.5" font-family="Helvetica,sans-Serif" font-size="10.00">Lib::Digi::API::Service</text>
<text text-anchor="middle" x="65" y="-106.5" font-family="Helvetica,sans-Serif" font-size="10.00">::NetworkDiscovery::open</text>
</a>
</g>
</g>
<!-- Node1&#45;&gt;Node3 -->
<g id="edge2_Node000001_Node000003" class="edge">
<title>Node1&#45;&gt;Node3</title>
<g id="a_edge2_Node000001_Node000003"><a xlink:title=" ">
<path fill="none" stroke="#63b8ff" d="M154.38,-101.81C146.4,-103.09 138.28,-104.4 130.35,-105.67"/>
<polygon fill="#63b8ff" stroke="#63b8ff" points="154.71,-105.31 164.03,-100.27 153.6,-98.39 154.71,-105.31"/>
</a>
</g>
</g>
<!-- Node4 -->
<g id="Node000004" class="node">
<title>Node4</title>
<g id="a_Node000004"><a xlink:href="../../d9/d42/a01156.html#af97b2ac5df6ea26c048b9cc8f06f5a29" target="_top" xlink:title="Opens the service.">
<polygon fill="white" stroke="#666666" points="121.75,-82 8.25,-82 8.25,-50 121.75,-50 121.75,-82"/>
<text text-anchor="start" x="16.25" y="-68.5" font-family="Helvetica,sans-Serif" font-size="10.00">Lib::Digi::API::Service</text>
<text text-anchor="middle" x="65" y="-56.5" font-family="Helvetica,sans-Serif" font-size="10.00">::Parameters::open</text>
</a>
</g>
</g>
<!-- Node1&#45;&gt;Node4 -->
<g id="edge3_Node000001_Node000004" class="edge">
<title>Node1&#45;&gt;Node4</title>
<g id="a_edge3_Node000001_Node000004"><a xlink:title=" ">
<path fill="none" stroke="#63b8ff" d="M154.43,-80.19C143.66,-78.47 132.62,-76.69 122.15,-75.01"/>
<polygon fill="#63b8ff" stroke="#63b8ff" points="153.6,-83.61 164.03,-81.73 154.71,-76.69 153.6,-83.61"/>
</a>
</g>
</g>
<!-- Node5 -->
<g id="Node000005" class="node">
<title>Node5</title>
<g id="a_Node000005"><a xlink:href="../../dd/d75/a01180.html#a4c4e10495e5a41c00f890f39b3440bdc" target="_top" xlink:title="Opens the Spectrum Analyzer service.">
<polygon fill="white" stroke="#666666" points="129.62,-32 0.38,-32 0.38,0 129.62,0 129.62,-32"/>
<text text-anchor="start" x="8.38" y="-18.5" font-family="Helvetica,sans-Serif" font-size="10.00">Lib::Digi::API::Service</text>
<text text-anchor="middle" x="65" y="-6.5" font-family="Helvetica,sans-Serif" font-size="10.00">::SpectrumAnalyzer::open</text>
</a>
</g>
</g>
<!-- Node1&#45;&gt;Node5 -->
<g id="edge4_Node000001_Node000005" class="edge">
<title>Node1&#45;&gt;Node5</title>
<g id="a_edge4_Node000001_Node000005"><a xlink:title=" ">
<path fill="none" stroke="#63b8ff" d="M183.98,-69.01C167.62,-59.86 148.11,-49.43 130,-41 123.73,-38.08 117.01,-35.2 110.38,-32.49"/>
<polygon fill="#63b8ff" stroke="#63b8ff" points="181.96,-71.9 192.39,-73.77 185.41,-65.8 181.96,-71.9"/>
</a>
</g>
</g>
</g>
</svg>
