<?xml version="1.0" encoding="UTF-8" standalone="no"?>
<!DOCTYPE svg PUBLIC "-//W3C//DTD SVG 1.1//EN"
 "http://www.w3.org/Graphics/SVG/1.1/DTD/svg11.dtd">
<!-- Generated by graphviz version 12.2.1 (20241206.2353)
 -->
<!-- Title: Lib::Digi::API::Service::ServiceBase::close Pages: 1 -->
<svg width="290pt" height="190pt"
 viewBox="0.00 0.00 289.75 190.00" xmlns="http://www.w3.org/2000/svg" xmlns:xlink="http://www.w3.org/1999/xlink">
<g id="graph0" class="graph" transform="scale(1 1) rotate(0) translate(4 186)">
<title>Lib::Digi::API::Service::ServiceBase::close</title>
<!-- Node1 -->
<g id="Node000001" class="node">
<title>Node1</title>
<g id="a_Node000001"><a xlink:title="Closes the service and marks it as closed.">
<polygon fill="#999999" stroke="#666666" points="281.75,-107 168.25,-107 168.25,-75 281.75,-75 281.75,-107"/>
<text text-anchor="start" x="176.25" y="-93.5" font-family="Helvetica,sans-Serif" font-size="10.00">Lib::Digi::API::Service</text>
<text text-anchor="middle" x="225" y="-81.5" font-family="Helvetica,sans-Serif" font-size="10.00">::ServiceBase::close</text>
</a>
</g>
</g>
<!-- Node2 -->
<g id="Node000002" class="node">
<title>Node2</title>
<g id="a_Node000002"><a xlink:href="../../d6/de6/a01132.html#a14c6a2f0f48452b5c56debb57e9f14d3" target="_top" xlink:title="Closes the ChannelScanner service.">
<polygon fill="white" stroke="#666666" points="127.75,-182 4.5,-182 4.5,-150 127.75,-150 127.75,-182"/>
<text text-anchor="start" x="12.5" y="-168.5" font-family="Helvetica,sans-Serif" font-size="10.00">Lib::Digi::API::Service</text>
<text text-anchor="middle" x="66.12" y="-156.5" font-family="Helvetica,sans-Serif" font-size="10.00">::ChannelScanner::close</text>
</a>
</g>
</g>
<!-- Node1&#45;&gt;Node2 -->
<g id="edge1_Node000001_Node000002" class="edge">
<title>Node1&#45;&gt;Node2</title>
<g id="a_edge1_Node000001_Node000002"><a xlink:title=" ">
<path fill="none" stroke="#63b8ff" d="M186.62,-112.83C170.2,-122.04 150.52,-132.56 132.25,-141 125.87,-143.95 119.04,-146.84 112.29,-149.55"/>
<polygon fill="#63b8ff" stroke="#63b8ff" points="188.09,-116.02 195.07,-108.04 184.64,-109.93 188.09,-116.02"/>
</a>
</g>
</g>
<!-- Node3 -->
<g id="Node000003" class="node">
<title>Node3</title>
<g id="a_Node000003"><a xlink:href="../../db/d51/a01144.html#a22a976a5466278b39ea3188adc32351a" target="_top" xlink:title="Closes the network discovery service.">
<polygon fill="white" stroke="#666666" points="132.25,-132 0,-132 0,-100 132.25,-100 132.25,-132"/>
<text text-anchor="start" x="8" y="-118.5" font-family="Helvetica,sans-Serif" font-size="10.00">Lib::Digi::API::Service</text>
<text text-anchor="middle" x="66.12" y="-106.5" font-family="Helvetica,sans-Serif" font-size="10.00">::NetworkDiscovery::close</text>
</a>
</g>
</g>
<!-- Node1&#45;&gt;Node3 -->
<g id="edge2_Node000001_Node000003" class="edge">
<title>Node1&#45;&gt;Node3</title>
<g id="a_edge2_Node000001_Node000003"><a xlink:title=" ">
<path fill="none" stroke="#63b8ff" d="M156.65,-101.73C148.66,-103.01 140.51,-104.31 132.54,-105.57"/>
<polygon fill="#63b8ff" stroke="#63b8ff" points="156.99,-105.22 166.31,-100.19 155.89,-98.31 156.99,-105.22"/>
</a>
</g>
</g>
<!-- Node4 -->
<g id="Node000004" class="node">
<title>Node4</title>
<g id="a_Node000004"><a xlink:href="../../d9/d42/a01156.html#a37f1a9fd54a185826e3aee3e7f63c80a" target="_top" xlink:title="Closes the current service or resource.">
<polygon fill="white" stroke="#666666" points="122.88,-82 9.38,-82 9.38,-50 122.88,-50 122.88,-82"/>
<text text-anchor="start" x="17.38" y="-68.5" font-family="Helvetica,sans-Serif" font-size="10.00">Lib::Digi::API::Service</text>
<text text-anchor="middle" x="66.12" y="-56.5" font-family="Helvetica,sans-Serif" font-size="10.00">::Parameters::close</text>
</a>
</g>
</g>
<!-- Node1&#45;&gt;Node4 -->
<g id="edge3_Node000001_Node000004" class="edge">
<title>Node1&#45;&gt;Node4</title>
<g id="a_edge3_Node000001_Node000004"><a xlink:title=" ">
<path fill="none" stroke="#63b8ff" d="M156.76,-80.28C145.56,-78.5 134.06,-76.67 123.19,-74.93"/>
<polygon fill="#63b8ff" stroke="#63b8ff" points="155.89,-83.69 166.31,-81.81 156.99,-76.78 155.89,-83.69"/>
</a>
</g>
</g>
<!-- Node5 -->
<g id="Node000005" class="node">
<title>Node5</title>
<g id="a_Node000005"><a xlink:href="../../dd/d75/a01180.html#abbafab8fb40315e87f8699958fae1ee0" target="_top" xlink:title="Closes the Spectrum Analyzer service.">
<polygon fill="white" stroke="#666666" points="131.88,-32 0.38,-32 0.38,0 131.88,0 131.88,-32"/>
<text text-anchor="start" x="8.38" y="-18.5" font-family="Helvetica,sans-Serif" font-size="10.00">Lib::Digi::API::Service</text>
<text text-anchor="middle" x="66.12" y="-6.5" font-family="Helvetica,sans-Serif" font-size="10.00">::SpectrumAnalyzer::close</text>
</a>
</g>
</g>
<!-- Node1&#45;&gt;Node5 -->
<g id="edge4_Node000001_Node000005" class="edge">
<title>Node1&#45;&gt;Node5</title>
<g id="a_edge4_Node000001_Node000005"><a xlink:title=" ">
<path fill="none" stroke="#63b8ff" d="M186.62,-69.17C170.2,-59.96 150.52,-49.44 132.25,-41 125.87,-38.05 119.04,-35.16 112.29,-32.45"/>
<polygon fill="#63b8ff" stroke="#63b8ff" points="184.64,-72.07 195.07,-73.96 188.09,-65.98 184.64,-72.07"/>
</a>
</g>
</g>
</g>
</svg>
