<?xml version="1.0" encoding="UTF-8" standalone="no"?>
<!DOCTYPE svg PUBLIC "-//W3C//DTD SVG 1.1//EN"
 "http://www.w3.org/Graphics/SVG/1.1/DTD/svg11.dtd">
<!-- Generated by graphviz version 13.1.0 (20250701.0955)
 -->
<!-- Title: ModelBase Pages: 1 -->
<svg width="1116pt" height="840pt"
 viewBox="0.00 0.00 1116.00 840.00" xmlns="http://www.w3.org/2000/svg" xmlns:xlink="http://www.w3.org/1999/xlink">
<g id="graph0" class="graph" transform="scale(1 1) rotate(0) translate(4 836)">
<title>ModelBase</title>
<!-- Node1 -->
<g id="Node000001" class="node">
<title>Node1</title>
<g id="a_Node000001"><a xlink:title="Aggregates subsystem model interfaces for the TouchGFX UI layer.">
<polygon fill="#999999" stroke="none" points="601.62,-112 466.62,-112 466.62,0 601.62,0 601.62,-112"/>
<text xml:space="preserve" text-anchor="start" x="509.75" y="-98.5" font-family="Helvetica,sans-Serif" font-size="10.00">ModelBase</text>
<text xml:space="preserve" text-anchor="start" x="532.62" y="-82.5" font-family="Helvetica,sans-Serif" font-size="10.00"> </text>
<text xml:space="preserve" text-anchor="start" x="470.62" y="-66.5" font-family="Helvetica,sans-Serif" font-size="10.00">+</text>
<text xml:space="preserve" text-anchor="start" x="480.62" y="-66.5" font-family="Helvetica,sans-Serif" font-size="10.00">ModelBase()=default</text>
<text xml:space="preserve" text-anchor="start" x="470.62" y="-50.5" font-family="Helvetica,sans-Serif" font-size="10.00">+</text>
<text xml:space="preserve" text-anchor="start" x="480.62" y="-50.5" font-family="Helvetica,sans-Serif" font-size="10.00">~ModelBase()=default</text>
<text xml:space="preserve" text-anchor="start" x="470.62" y="-34.5" font-family="Helvetica,sans-Serif" font-size="10.00">+</text>
<text xml:space="preserve" text-anchor="start" x="480.62" y="-34.5" font-family="Helvetica,sans-Serif" font-size="10.00">void beep(size_t size=100)</text>
<text xml:space="preserve" text-anchor="start" x="470.62" y="-18.5" font-family="Helvetica,sans-Serif" font-size="10.00">+</text>
<text xml:space="preserve" text-anchor="start" x="480.62" y="-18.5" font-family="Helvetica,sans-Serif" font-size="10.00">void tick(Listener</text>
<text xml:space="preserve" text-anchor="start" x="480.62" y="-6.5" font-family="Helvetica,sans-Serif" font-size="10.00"> *modelListener)</text>
<polygon fill="#666666" stroke="#666666" points="466.62,-94 466.62,-94 601.62,-94 601.62,-94 466.62,-94"/>
<polygon fill="#666666" stroke="#666666" points="466.62,-78 466.62,-78 601.62,-78 601.62,-78 466.62,-78"/>
<polygon fill="none" stroke="#666666" points="466.62,0 466.62,-112 601.62,-112 601.62,0 466.62,0"/>
</a>
</g>
</g>
<!-- Node2 -->
<g id="Node000002" class="node">
<title>Node2</title>
<g id="a_Node000002"><a xlink:href="../../de/d62/a00924.html" target="_top" xlink:title="CAN bus model for TouchGFX UI integration.">
<polygon fill="white" stroke="none" points="134.25,-394 0,-394 0,-242 134.25,-242 134.25,-394"/>
<text xml:space="preserve" text-anchor="start" x="37.12" y="-380.5" font-family="Helvetica,sans-Serif" font-size="10.00">ModelCanbus</text>
<text xml:space="preserve" text-anchor="start" x="65.62" y="-364.5" font-family="Helvetica,sans-Serif" font-size="10.00"> </text>
<text xml:space="preserve" text-anchor="start" x="4" y="-348.5" font-family="Helvetica,sans-Serif" font-size="10.00">+</text>
<text xml:space="preserve" text-anchor="start" x="14" y="-348.5" font-family="Helvetica,sans-Serif" font-size="10.00">ModelCanbus()</text>
<text xml:space="preserve" text-anchor="start" x="4" y="-332.5" font-family="Helvetica,sans-Serif" font-size="10.00">+</text>
<text xml:space="preserve" text-anchor="start" x="14" y="-332.5" font-family="Helvetica,sans-Serif" font-size="10.00">~ModelCanbus()</text>
<text xml:space="preserve" text-anchor="start" x="4" y="-316.5" font-family="Helvetica,sans-Serif" font-size="10.00">+</text>
<text xml:space="preserve" text-anchor="start" x="14" y="-316.5" font-family="Helvetica,sans-Serif" font-size="10.00">void handleTickEvent</text>
<text xml:space="preserve" text-anchor="start" x="14" y="-304.5" font-family="Helvetica,sans-Serif" font-size="10.00">(Listener *listener)</text>
<text xml:space="preserve" text-anchor="start" x="4" y="-288.5" font-family="Helvetica,sans-Serif" font-size="10.00">+</text>
<text xml:space="preserve" text-anchor="start" x="14" y="-288.5" font-family="Helvetica,sans-Serif" font-size="10.00">Node &amp; operator[](uint32</text>
<text xml:space="preserve" text-anchor="start" x="14" y="-276.5" font-family="Helvetica,sans-Serif" font-size="10.00">_t index)</text>
<text xml:space="preserve" text-anchor="start" x="4" y="-260.5" font-family="Helvetica,sans-Serif" font-size="10.00">+</text>
<text xml:space="preserve" text-anchor="start" x="14" y="-260.5" font-family="Helvetica,sans-Serif" font-size="10.00">size_t getNumberOfNodes</text>
<text xml:space="preserve" text-anchor="start" x="14" y="-248.5" font-family="Helvetica,sans-Serif" font-size="10.00">() const</text>
<polygon fill="#666666" stroke="#666666" points="0,-376 0,-376 134.25,-376 134.25,-376 0,-376"/>
<polygon fill="#666666" stroke="#666666" points="0,-360 0,-360 134.25,-360 134.25,-360 0,-360"/>
<polygon fill="none" stroke="#666666" points="0,-242 0,-394 134.25,-394 134.25,-242 0,-242"/>
</a>
</g>
</g>
<!-- Node2&#45;&gt;Node1 -->
<g id="edge1_Node000001_Node000002" class="edge">
<title>Node2&#45;&gt;Node1</title>
<g id="a_edge1_Node000001_Node000002"><a xlink:title=" ">
<path fill="none" stroke="#63b8ff" d="M90.24,-242.19C102.1,-214.77 119.21,-185.67 143.12,-166 232.56,-92.46 368.27,-68.42 454.01,-60.63"/>
<polygon fill="none" stroke="#63b8ff" points="453.95,-60.63 459.59,-56.15 465.9,-59.63 460.26,-64.12 453.95,-60.63"/>
</a>
</g>
<text xml:space="preserve" text-anchor="start" x="190.93" y="-135.5" font-family="Helvetica,sans-Serif" font-size="10.00" fill="grey">+canbus</text>
</g>
<!-- Node3 -->
<g id="Node000003" class="node">
<title>Node3</title>
<g id="a_Node000003"><a xlink:href="../../dc/d2b/a00936.html" target="_top" xlink:title="Diagnostic state for the CAN bus model.">
<polygon fill="white" stroke="none" points="127.38,-712 6.88,-712 6.88,-644 127.38,-644 127.38,-712"/>
<text xml:space="preserve" text-anchor="start" x="10.88" y="-698.5" font-family="Helvetica,sans-Serif" font-size="10.00">ModelCanbus::Diagnostic</text>
<text xml:space="preserve" text-anchor="start" x="65.62" y="-682.5" font-family="Helvetica,sans-Serif" font-size="10.00"> </text>
<text xml:space="preserve" text-anchor="start" x="13.06" y="-666.5" font-family="Helvetica,sans-Serif" font-size="10.00">+</text>
<text xml:space="preserve" text-anchor="start" x="25.25" y="-666.5" font-family="Helvetica,sans-Serif" font-size="10.00">Diagnostic()=default</text>
<text xml:space="preserve" text-anchor="start" x="13.06" y="-650.5" font-family="Helvetica,sans-Serif" font-size="10.00">+</text>
<text xml:space="preserve" text-anchor="start" x="25.25" y="-650.5" font-family="Helvetica,sans-Serif" font-size="10.00">~Diagnostic()=default</text>
<polygon fill="#666666" stroke="#666666" points="6.88,-694 6.88,-694 127.38,-694 127.38,-694 6.88,-694"/>
<polygon fill="#666666" stroke="#666666" points="6.88,-678 6.88,-678 127.38,-678 127.38,-678 6.88,-678"/>
<polygon fill="none" stroke="#666666" points="6.88,-644 6.88,-712 127.38,-712 127.38,-644 6.88,-644"/>
</a>
</g>
</g>
<!-- Node3&#45;&gt;Node2 -->
<g id="edge2_Node000002_Node000003" class="edge">
<title>Node3&#45;&gt;Node2</title>
<g id="a_edge2_Node000002_Node000003"><a xlink:title=" ">
<path fill="none" stroke="#63b8ff" d="M67.12,-644.28C67.12,-591.01 67.12,-483.76 67.12,-406.97"/>
<polygon fill="none" stroke="#63b8ff" points="67.13,-406.86 63.13,-400.86 67.13,-394.86 71.13,-400.86 67.13,-406.86"/>
</a>
</g>
<text xml:space="preserve" text-anchor="start" x="70.12" y="-493.5" font-family="Helvetica,sans-Serif" font-size="10.00" fill="grey">+diagnostic</text>
</g>
<!-- Node4 -->
<g id="Node000004" class="node">
<title>Node4</title>
<g id="a_Node000004"><a xlink:href="../../d7/db6/a00940.html" target="_top" xlink:title="Provides system diagnostic state queries and event notification for TouchGFX UI.">
<polygon fill="white" stroke="none" points="295.75,-448 152.5,-448 152.5,-188 295.75,-188 295.75,-448"/>
<text xml:space="preserve" text-anchor="start" x="187.75" y="-434.5" font-family="Helvetica,sans-Serif" font-size="10.00">ModelDiagnostic</text>
<text xml:space="preserve" text-anchor="start" x="222.62" y="-418.5" font-family="Helvetica,sans-Serif" font-size="10.00"> </text>
<text xml:space="preserve" text-anchor="start" x="156.5" y="-402.5" font-family="Helvetica,sans-Serif" font-size="10.00">+</text>
<text xml:space="preserve" text-anchor="start" x="166.5" y="-402.5" font-family="Helvetica,sans-Serif" font-size="10.00">ModelDiagnostic()</text>
<text xml:space="preserve" text-anchor="start" x="166.5" y="-390.5" font-family="Helvetica,sans-Serif" font-size="10.00">=default</text>
<text xml:space="preserve" text-anchor="start" x="156.5" y="-374.5" font-family="Helvetica,sans-Serif" font-size="10.00">+</text>
<text xml:space="preserve" text-anchor="start" x="166.5" y="-374.5" font-family="Helvetica,sans-Serif" font-size="10.00">~ModelDiagnostic()</text>
<text xml:space="preserve" text-anchor="start" x="166.5" y="-362.5" font-family="Helvetica,sans-Serif" font-size="10.00">=default</text>
<text xml:space="preserve" text-anchor="start" x="156.5" y="-346.5" font-family="Helvetica,sans-Serif" font-size="10.00">+</text>
<text xml:space="preserve" text-anchor="start" x="166.5" y="-346.5" font-family="Helvetica,sans-Serif" font-size="10.00">void handleTickEvent</text>
<text xml:space="preserve" text-anchor="start" x="166.5" y="-334.5" font-family="Helvetica,sans-Serif" font-size="10.00">(Listener *listener)</text>
<text xml:space="preserve" text-anchor="start" x="156.5" y="-318.5" font-family="Helvetica,sans-Serif" font-size="10.00">+</text>
<text xml:space="preserve" text-anchor="start" x="166.5" y="-318.5" font-family="Helvetica,sans-Serif" font-size="10.00">bool wirelessModuleIsReady</text>
<text xml:space="preserve" text-anchor="start" x="166.5" y="-306.5" font-family="Helvetica,sans-Serif" font-size="10.00">() const</text>
<text xml:space="preserve" text-anchor="start" x="156.5" y="-290.5" font-family="Helvetica,sans-Serif" font-size="10.00">+</text>
<text xml:space="preserve" text-anchor="start" x="166.5" y="-290.5" font-family="Helvetica,sans-Serif" font-size="10.00">bool localPeripheralIsReady</text>
<text xml:space="preserve" text-anchor="start" x="166.5" y="-278.5" font-family="Helvetica,sans-Serif" font-size="10.00">() const</text>
<text xml:space="preserve" text-anchor="start" x="156.5" y="-262.5" font-family="Helvetica,sans-Serif" font-size="10.00">+</text>
<text xml:space="preserve" text-anchor="start" x="166.5" y="-262.5" font-family="Helvetica,sans-Serif" font-size="10.00">bool lastResetStateIsValid</text>
<text xml:space="preserve" text-anchor="start" x="166.5" y="-250.5" font-family="Helvetica,sans-Serif" font-size="10.00">() const</text>
<text xml:space="preserve" text-anchor="start" x="156.5" y="-234.5" font-family="Helvetica,sans-Serif" font-size="10.00">+</text>
<text xml:space="preserve" text-anchor="start" x="166.5" y="-234.5" font-family="Helvetica,sans-Serif" font-size="10.00">bool produceDateIsSet</text>
<text xml:space="preserve" text-anchor="start" x="166.5" y="-222.5" font-family="Helvetica,sans-Serif" font-size="10.00">() const</text>
<text xml:space="preserve" text-anchor="start" x="156.5" y="-206.5" font-family="Helvetica,sans-Serif" font-size="10.00">+</text>
<text xml:space="preserve" text-anchor="start" x="166.5" y="-206.5" font-family="Helvetica,sans-Serif" font-size="10.00">bool saleDateIsSet</text>
<text xml:space="preserve" text-anchor="start" x="166.5" y="-194.5" font-family="Helvetica,sans-Serif" font-size="10.00">() const</text>
<polygon fill="#666666" stroke="#666666" points="152.5,-430 152.5,-430 295.75,-430 295.75,-430 152.5,-430"/>
<polygon fill="#666666" stroke="#666666" points="152.5,-414 152.5,-414 295.75,-414 295.75,-414 152.5,-414"/>
<polygon fill="none" stroke="#666666" points="152.5,-188 152.5,-448 295.75,-448 295.75,-188 152.5,-188"/>
</a>
</g>
</g>
<!-- Node4&#45;&gt;Node1 -->
<g id="edge3_Node000001_Node000004" class="edge">
<title>Node4&#45;&gt;Node1</title>
<g id="a_edge3_Node000001_Node000004"><a xlink:title=" ">
<path fill="none" stroke="#63b8ff" d="M285.26,-188.3C291.4,-180.31 298.02,-172.77 305.12,-166 347.2,-125.9 406.78,-98.17 454.61,-80.72"/>
<polygon fill="none" stroke="#63b8ff" points="454.66,-80.7 458.98,-74.93 465.97,-76.7 461.65,-82.47 454.66,-80.7"/>
</a>
</g>
<text xml:space="preserve" text-anchor="start" x="351.47" y="-135.5" font-family="Helvetica,sans-Serif" font-size="10.00" fill="grey">+diagnostic</text>
</g>
<!-- Node5 -->
<g id="Node000005" class="node">
<title>Node5</title>
<g id="a_Node000005"><a xlink:href="../../d8/d18/a00948.html" target="_top" xlink:title="ModelDisplay class for TouchGFX UI display parameter management.">
<polygon fill="white" stroke="none" points="446.12,-430 314.12,-430 314.12,-206 446.12,-206 446.12,-430"/>
<text xml:space="preserve" text-anchor="start" x="350.5" y="-416.5" font-family="Helvetica,sans-Serif" font-size="10.00">ModelDisplay</text>
<text xml:space="preserve" text-anchor="start" x="378.62" y="-400.5" font-family="Helvetica,sans-Serif" font-size="10.00"> </text>
<text xml:space="preserve" text-anchor="start" x="318.12" y="-384.5" font-family="Helvetica,sans-Serif" font-size="10.00">+</text>
<text xml:space="preserve" text-anchor="start" x="328.12" y="-384.5" font-family="Helvetica,sans-Serif" font-size="10.00">ModelDisplay()=default</text>
<text xml:space="preserve" text-anchor="start" x="318.12" y="-368.5" font-family="Helvetica,sans-Serif" font-size="10.00">+</text>
<text xml:space="preserve" text-anchor="start" x="328.12" y="-368.5" font-family="Helvetica,sans-Serif" font-size="10.00">~ModelDisplay()=default</text>
<text xml:space="preserve" text-anchor="start" x="318.12" y="-352.5" font-family="Helvetica,sans-Serif" font-size="10.00">+</text>
<text xml:space="preserve" text-anchor="start" x="328.12" y="-352.5" font-family="Helvetica,sans-Serif" font-size="10.00">uint8_t getBacklight</text>
<text xml:space="preserve" text-anchor="start" x="328.12" y="-340.5" font-family="Helvetica,sans-Serif" font-size="10.00">() const</text>
<text xml:space="preserve" text-anchor="start" x="318.12" y="-324.5" font-family="Helvetica,sans-Serif" font-size="10.00">+</text>
<text xml:space="preserve" text-anchor="start" x="328.12" y="-324.5" font-family="Helvetica,sans-Serif" font-size="10.00">void setBacklight(uint8</text>
<text xml:space="preserve" text-anchor="start" x="328.12" y="-312.5" font-family="Helvetica,sans-Serif" font-size="10.00">_t value)</text>
<text xml:space="preserve" text-anchor="start" x="318.12" y="-296.5" font-family="Helvetica,sans-Serif" font-size="10.00">+</text>
<text xml:space="preserve" text-anchor="start" x="328.12" y="-296.5" font-family="Helvetica,sans-Serif" font-size="10.00">bool getRotation()</text>
<text xml:space="preserve" text-anchor="start" x="328.12" y="-284.5" font-family="Helvetica,sans-Serif" font-size="10.00"> const</text>
<text xml:space="preserve" text-anchor="start" x="318.12" y="-268.5" font-family="Helvetica,sans-Serif" font-size="10.00">+</text>
<text xml:space="preserve" text-anchor="start" x="328.12" y="-268.5" font-family="Helvetica,sans-Serif" font-size="10.00">void setRotation(bool</text>
<text xml:space="preserve" text-anchor="start" x="328.12" y="-256.5" font-family="Helvetica,sans-Serif" font-size="10.00"> value)</text>
<text xml:space="preserve" text-anchor="start" x="318.12" y="-240.5" font-family="Helvetica,sans-Serif" font-size="10.00">+</text>
<text xml:space="preserve" text-anchor="start" x="328.12" y="-240.5" font-family="Helvetica,sans-Serif" font-size="10.00">void saveParameters()</text>
<text xml:space="preserve" text-anchor="start" x="318.12" y="-224.5" font-family="Helvetica,sans-Serif" font-size="10.00">+</text>
<text xml:space="preserve" text-anchor="start" x="328.12" y="-224.5" font-family="Helvetica,sans-Serif" font-size="10.00">bool storageOfParameters</text>
<text xml:space="preserve" text-anchor="start" x="328.12" y="-212.5" font-family="Helvetica,sans-Serif" font-size="10.00">IsPresent() const</text>
<polygon fill="#666666" stroke="#666666" points="314.12,-412 314.12,-412 446.12,-412 446.12,-412 314.12,-412"/>
<polygon fill="#666666" stroke="#666666" points="314.12,-396 314.12,-396 446.12,-396 446.12,-396 314.12,-396"/>
<polygon fill="none" stroke="#666666" points="314.12,-206 314.12,-430 446.12,-430 446.12,-206 314.12,-206"/>
</a>
</g>
</g>
<!-- Node5&#45;&gt;Node1 -->
<g id="edge4_Node000001_Node000005" class="edge">
<title>Node5&#45;&gt;Node1</title>
<g id="a_edge4_Node000001_Node000005"><a xlink:title=" ">
<path fill="none" stroke="#63b8ff" d="M432.52,-206.16C439.77,-192.45 447.4,-178.77 455.12,-166 463.9,-151.5 474.04,-136.47 484.07,-122.37"/>
<polygon fill="none" stroke="#63b8ff" points="484.15,-122.26 484.41,-115.05 491.17,-112.53 490.9,-119.73 484.15,-122.26"/>
</a>
</g>
<text xml:space="preserve" text-anchor="start" x="480.35" y="-135.5" font-family="Helvetica,sans-Serif" font-size="10.00" fill="grey">+display</text>
</g>
<!-- Node6 -->
<g id="Node000006" class="node">
<title>Node6</title>
<g id="a_Node000006"><a xlink:href="../../de/d49/a00952.html" target="_top" xlink:title="Provides logic for managing peripheral node states and test outputs in the TouchGFX model layer.">
<polygon fill="white" stroke="none" points="604.25,-436 464,-436 464,-200 604.25,-200 604.25,-436"/>
<text xml:space="preserve" text-anchor="start" x="499.25" y="-422.5" font-family="Helvetica,sans-Serif" font-size="10.00">ModelPeripheral</text>
<text xml:space="preserve" text-anchor="start" x="532.62" y="-406.5" font-family="Helvetica,sans-Serif" font-size="10.00"> </text>
<text xml:space="preserve" text-anchor="start" x="468" y="-390.5" font-family="Helvetica,sans-Serif" font-size="10.00">+</text>
<text xml:space="preserve" text-anchor="start" x="478" y="-390.5" font-family="Helvetica,sans-Serif" font-size="10.00">ModelPeripheral()</text>
<text xml:space="preserve" text-anchor="start" x="468" y="-374.5" font-family="Helvetica,sans-Serif" font-size="10.00">+</text>
<text xml:space="preserve" text-anchor="start" x="478" y="-374.5" font-family="Helvetica,sans-Serif" font-size="10.00">~ModelPeripheral()</text>
<text xml:space="preserve" text-anchor="start" x="468" y="-358.5" font-family="Helvetica,sans-Serif" font-size="10.00">+</text>
<text xml:space="preserve" text-anchor="start" x="478" y="-358.5" font-family="Helvetica,sans-Serif" font-size="10.00">void handleTickEvent</text>
<text xml:space="preserve" text-anchor="start" x="478" y="-346.5" font-family="Helvetica,sans-Serif" font-size="10.00">(Listener *listener)</text>
<text xml:space="preserve" text-anchor="start" x="468" y="-330.5" font-family="Helvetica,sans-Serif" font-size="10.00">+</text>
<text xml:space="preserve" text-anchor="start" x="478" y="-330.5" font-family="Helvetica,sans-Serif" font-size="10.00">const uint64_t &amp; getInputs</text>
<text xml:space="preserve" text-anchor="start" x="478" y="-318.5" font-family="Helvetica,sans-Serif" font-size="10.00">() const</text>
<text xml:space="preserve" text-anchor="start" x="468" y="-302.5" font-family="Helvetica,sans-Serif" font-size="10.00">+</text>
<text xml:space="preserve" text-anchor="start" x="478" y="-302.5" font-family="Helvetica,sans-Serif" font-size="10.00">const uint64_t &amp; getOutputs</text>
<text xml:space="preserve" text-anchor="start" x="478" y="-290.5" font-family="Helvetica,sans-Serif" font-size="10.00">() const</text>
<text xml:space="preserve" text-anchor="start" x="468" y="-274.5" font-family="Helvetica,sans-Serif" font-size="10.00">+</text>
<text xml:space="preserve" text-anchor="start" x="478" y="-274.5" font-family="Helvetica,sans-Serif" font-size="10.00">bool getNodeActivity</text>
<text xml:space="preserve" text-anchor="start" x="478" y="-262.5" font-family="Helvetica,sans-Serif" font-size="10.00">(uint32_t index) const</text>
<text xml:space="preserve" text-anchor="start" x="468" y="-246.5" font-family="Helvetica,sans-Serif" font-size="10.00">+</text>
<text xml:space="preserve" text-anchor="start" x="478" y="-246.5" font-family="Helvetica,sans-Serif" font-size="10.00">void setSelectedNode</text>
<text xml:space="preserve" text-anchor="start" x="478" y="-234.5" font-family="Helvetica,sans-Serif" font-size="10.00">(uint32_t value)</text>
<text xml:space="preserve" text-anchor="start" x="468" y="-218.5" font-family="Helvetica,sans-Serif" font-size="10.00">+</text>
<text xml:space="preserve" text-anchor="start" x="478" y="-218.5" font-family="Helvetica,sans-Serif" font-size="10.00">uint32_t getSelectedNode</text>
<text xml:space="preserve" text-anchor="start" x="478" y="-206.5" font-family="Helvetica,sans-Serif" font-size="10.00">() const</text>
<polygon fill="#666666" stroke="#666666" points="464,-418 464,-418 604.25,-418 604.25,-418 464,-418"/>
<polygon fill="#666666" stroke="#666666" points="464,-402 464,-402 604.25,-402 604.25,-402 464,-402"/>
<polygon fill="none" stroke="#666666" points="464,-200 464,-436 604.25,-436 604.25,-200 464,-200"/>
</a>
</g>
</g>
<!-- Node6&#45;&gt;Node1 -->
<g id="edge5_Node000001_Node000006" class="edge">
<title>Node6&#45;&gt;Node1</title>
<g id="a_edge5_Node000001_Node000006"><a xlink:title=" ">
<path fill="none" stroke="#63b8ff" d="M534.12,-200.31C534.12,-174.46 534.12,-147.9 534.12,-124.78"/>
<polygon fill="none" stroke="#63b8ff" points="534.13,-124.85 530.13,-118.85 534.13,-112.85 538.13,-118.85 534.13,-124.85"/>
</a>
</g>
<text xml:space="preserve" text-anchor="start" x="537.12" y="-135.5" font-family="Helvetica,sans-Serif" font-size="10.00" fill="grey">+peripheral</text>
</g>
<!-- Node7 -->
<g id="Node000007" class="node">
<title>Node7</title>
<g id="a_Node000007"><a xlink:href="../../dd/d11/a00960.html" target="_top" xlink:title="Client for managing test outputs and output sequences.">
<polygon fill="white" stroke="none" points="603.12,-832 465.12,-832 465.12,-524 603.12,-524 603.12,-832"/>
<text xml:space="preserve" text-anchor="start" x="469.62" y="-818.5" font-family="Helvetica,sans-Serif" font-size="10.00">ModelPeripheral::TestOutputs</text>
<text xml:space="preserve" text-anchor="start" x="521.38" y="-806.5" font-family="Helvetica,sans-Serif" font-size="10.00">Client</text>
<text xml:space="preserve" text-anchor="start" x="532.62" y="-790.5" font-family="Helvetica,sans-Serif" font-size="10.00"> </text>
<text xml:space="preserve" text-anchor="start" x="469.12" y="-774.5" font-family="Helvetica,sans-Serif" font-size="10.00">+</text>
<text xml:space="preserve" text-anchor="start" x="479.12" y="-774.5" font-family="Helvetica,sans-Serif" font-size="10.00">TestOutputsClient</text>
<text xml:space="preserve" text-anchor="start" x="479.12" y="-762.5" font-family="Helvetica,sans-Serif" font-size="10.00">(ModelPeripheral *parent)</text>
<text xml:space="preserve" text-anchor="start" x="469.12" y="-746.5" font-family="Helvetica,sans-Serif" font-size="10.00">+</text>
<text xml:space="preserve" text-anchor="start" x="479.12" y="-746.5" font-family="Helvetica,sans-Serif" font-size="10.00">~TestOutputsClient()</text>
<text xml:space="preserve" text-anchor="start" x="469.12" y="-730.5" font-family="Helvetica,sans-Serif" font-size="10.00">+</text>
<text xml:space="preserve" text-anchor="start" x="479.12" y="-730.5" font-family="Helvetica,sans-Serif" font-size="10.00">void start()</text>
<text xml:space="preserve" text-anchor="start" x="469.12" y="-714.5" font-family="Helvetica,sans-Serif" font-size="10.00">+</text>
<text xml:space="preserve" text-anchor="start" x="479.12" y="-714.5" font-family="Helvetica,sans-Serif" font-size="10.00">void stop()</text>
<text xml:space="preserve" text-anchor="start" x="469.12" y="-698.5" font-family="Helvetica,sans-Serif" font-size="10.00">+</text>
<text xml:space="preserve" text-anchor="start" x="479.12" y="-698.5" font-family="Helvetica,sans-Serif" font-size="10.00">uint32_t getIndex()</text>
<text xml:space="preserve" text-anchor="start" x="479.12" y="-686.5" font-family="Helvetica,sans-Serif" font-size="10.00"> const</text>
<text xml:space="preserve" text-anchor="start" x="469.12" y="-670.5" font-family="Helvetica,sans-Serif" font-size="10.00">+</text>
<text xml:space="preserve" text-anchor="start" x="479.12" y="-670.5" font-family="Helvetica,sans-Serif" font-size="10.00">void setIndex(uint32</text>
<text xml:space="preserve" text-anchor="start" x="479.12" y="-658.5" font-family="Helvetica,sans-Serif" font-size="10.00">_t value)</text>
<text xml:space="preserve" text-anchor="start" x="469.12" y="-642.5" font-family="Helvetica,sans-Serif" font-size="10.00">+</text>
<text xml:space="preserve" text-anchor="start" x="479.12" y="-642.5" font-family="Helvetica,sans-Serif" font-size="10.00">uint32_t getUpdatePeriod</text>
<text xml:space="preserve" text-anchor="start" x="479.12" y="-630.5" font-family="Helvetica,sans-Serif" font-size="10.00">() const</text>
<text xml:space="preserve" text-anchor="start" x="469.12" y="-614.5" font-family="Helvetica,sans-Serif" font-size="10.00">+</text>
<text xml:space="preserve" text-anchor="start" x="479.12" y="-614.5" font-family="Helvetica,sans-Serif" font-size="10.00">void setUpdatePeriod</text>
<text xml:space="preserve" text-anchor="start" x="479.12" y="-602.5" font-family="Helvetica,sans-Serif" font-size="10.00">(uint32_t value)</text>
<text xml:space="preserve" text-anchor="start" x="469.12" y="-586.5" font-family="Helvetica,sans-Serif" font-size="10.00">+</text>
<text xml:space="preserve" text-anchor="start" x="479.12" y="-586.5" font-family="Helvetica,sans-Serif" font-size="10.00">void handleTickEvent</text>
<text xml:space="preserve" text-anchor="start" x="479.12" y="-574.5" font-family="Helvetica,sans-Serif" font-size="10.00">(Listener *listener)</text>
<text xml:space="preserve" text-anchor="start" x="469.12" y="-558.5" font-family="Helvetica,sans-Serif" font-size="10.00">+</text>
<text xml:space="preserve" text-anchor="start" x="479.12" y="-558.5" font-family="Helvetica,sans-Serif" font-size="10.00">bool isRunning() const</text>
<text xml:space="preserve" text-anchor="start" x="469.12" y="-542.5" font-family="Helvetica,sans-Serif" font-size="10.00">+</text>
<text xml:space="preserve" text-anchor="start" x="479.12" y="-542.5" font-family="Helvetica,sans-Serif" font-size="10.00">uint32_t getNumberOfTests</text>
<text xml:space="preserve" text-anchor="start" x="479.12" y="-530.5" font-family="Helvetica,sans-Serif" font-size="10.00">() const</text>
<polygon fill="#666666" stroke="#666666" points="465.12,-802 465.12,-802 603.12,-802 603.12,-802 465.12,-802"/>
<polygon fill="#666666" stroke="#666666" points="465.12,-786 465.12,-786 603.12,-786 603.12,-786 465.12,-786"/>
<polygon fill="none" stroke="#666666" points="465.12,-524 465.12,-832 603.12,-832 603.12,-524 465.12,-524"/>
</a>
</g>
</g>
<!-- Node7&#45;&gt;Node6 -->
<g id="edge6_Node000006_Node000007" class="edge">
<title>Node7&#45;&gt;Node6</title>
<g id="a_edge6_Node000006_Node000007"><a xlink:title=" ">
<path fill="none" stroke="#63b8ff" d="M534.12,-524.14C534.12,-499.09 534.12,-473.34 534.12,-448.91"/>
<polygon fill="none" stroke="#63b8ff" points="534.13,-448.78 530.13,-442.78 534.13,-436.78 538.13,-442.78 534.13,-448.78"/>
</a>
</g>
<text xml:space="preserve" text-anchor="start" x="537.12" y="-493.5" font-family="Helvetica,sans-Serif" font-size="10.00" fill="grey">+testOutputsClient</text>
</g>
<!-- Node8 -->
<g id="Node000008" class="node">
<title>Node8</title>
<g id="a_Node000008"><a xlink:href="../../da/d17/a00964.html" target="_top" xlink:title="Provides logic for managing system information and state in the TouchGFX model layer.">
<polygon fill="white" stroke="none" points="774.25,-470 622,-470 622,-166 774.25,-166 774.25,-470"/>
<text xml:space="preserve" text-anchor="start" x="668.12" y="-456.5" font-family="Helvetica,sans-Serif" font-size="10.00">ModelSystem</text>
<text xml:space="preserve" text-anchor="start" x="626" y="-440.5" font-family="Helvetica,sans-Serif" font-size="10.00">+</text>
<text xml:space="preserve" text-anchor="start" x="636" y="-440.5" font-family="Helvetica,sans-Serif" font-size="10.00">std::unique_ptr&lt; Produce</text>
<text xml:space="preserve" text-anchor="start" x="636" y="-428.5" font-family="Helvetica,sans-Serif" font-size="10.00">Dates &gt; produceDates</text>
<text xml:space="preserve" text-anchor="start" x="626" y="-412.5" font-family="Helvetica,sans-Serif" font-size="10.00">+</text>
<text xml:space="preserve" text-anchor="start" x="636" y="-412.5" font-family="Helvetica,sans-Serif" font-size="10.00">ModelSystem()</text>
<text xml:space="preserve" text-anchor="start" x="626" y="-396.5" font-family="Helvetica,sans-Serif" font-size="10.00">+</text>
<text xml:space="preserve" text-anchor="start" x="636" y="-396.5" font-family="Helvetica,sans-Serif" font-size="10.00">~ModelSystem()</text>
<text xml:space="preserve" text-anchor="start" x="626" y="-380.5" font-family="Helvetica,sans-Serif" font-size="10.00">+</text>
<text xml:space="preserve" text-anchor="start" x="636" y="-380.5" font-family="Helvetica,sans-Serif" font-size="10.00">std::string getBuildVersion</text>
<text xml:space="preserve" text-anchor="start" x="636" y="-368.5" font-family="Helvetica,sans-Serif" font-size="10.00">() const</text>
<text xml:space="preserve" text-anchor="start" x="626" y="-352.5" font-family="Helvetica,sans-Serif" font-size="10.00">+</text>
<text xml:space="preserve" text-anchor="start" x="636" y="-352.5" font-family="Helvetica,sans-Serif" font-size="10.00">std::string getHardwareVersion</text>
<text xml:space="preserve" text-anchor="start" x="636" y="-340.5" font-family="Helvetica,sans-Serif" font-size="10.00">() const</text>
<text xml:space="preserve" text-anchor="start" x="626" y="-324.5" font-family="Helvetica,sans-Serif" font-size="10.00">+</text>
<text xml:space="preserve" text-anchor="start" x="636" y="-324.5" font-family="Helvetica,sans-Serif" font-size="10.00">std::string getSerialNumber</text>
<text xml:space="preserve" text-anchor="start" x="636" y="-312.5" font-family="Helvetica,sans-Serif" font-size="10.00">() const</text>
<text xml:space="preserve" text-anchor="start" x="626" y="-296.5" font-family="Helvetica,sans-Serif" font-size="10.00">+</text>
<text xml:space="preserve" text-anchor="start" x="636" y="-296.5" font-family="Helvetica,sans-Serif" font-size="10.00">std::string getLastReset</text>
<text xml:space="preserve" text-anchor="start" x="636" y="-284.5" font-family="Helvetica,sans-Serif" font-size="10.00">StateString() const</text>
<text xml:space="preserve" text-anchor="start" x="626" y="-268.5" font-family="Helvetica,sans-Serif" font-size="10.00">+</text>
<text xml:space="preserve" text-anchor="start" x="636" y="-268.5" font-family="Helvetica,sans-Serif" font-size="10.00">uint32_t getLastResetState</text>
<text xml:space="preserve" text-anchor="start" x="636" y="-256.5" font-family="Helvetica,sans-Serif" font-size="10.00">Color() const</text>
<text xml:space="preserve" text-anchor="start" x="626" y="-240.5" font-family="Helvetica,sans-Serif" font-size="10.00">+</text>
<text xml:space="preserve" text-anchor="start" x="636" y="-240.5" font-family="Helvetica,sans-Serif" font-size="10.00">StartupMode getStartupMode</text>
<text xml:space="preserve" text-anchor="start" x="636" y="-228.5" font-family="Helvetica,sans-Serif" font-size="10.00">() const</text>
<text xml:space="preserve" text-anchor="start" x="626" y="-212.5" font-family="Helvetica,sans-Serif" font-size="10.00">+</text>
<text xml:space="preserve" text-anchor="start" x="636" y="-212.5" font-family="Helvetica,sans-Serif" font-size="10.00">void setStartupMode</text>
<text xml:space="preserve" text-anchor="start" x="636" y="-200.5" font-family="Helvetica,sans-Serif" font-size="10.00">(StartupMode mode)</text>
<text xml:space="preserve" text-anchor="start" x="626" y="-184.5" font-family="Helvetica,sans-Serif" font-size="10.00">+</text>
<text xml:space="preserve" text-anchor="start" x="636" y="-184.5" font-family="Helvetica,sans-Serif" font-size="10.00">bool waitForReadyAfterStartup</text>
<text xml:space="preserve" text-anchor="start" x="636" y="-172.5" font-family="Helvetica,sans-Serif" font-size="10.00">(uint32_t timeout)</text>
<polygon fill="#666666" stroke="#666666" points="622,-452 622,-452 774.25,-452 774.25,-452 622,-452"/>
<polygon fill="#666666" stroke="#666666" points="622,-424 622,-424 634,-424 634,-424 622,-424"/>
<polygon fill="#666666" stroke="#666666" points="634,-424 634,-424 774.25,-424 774.25,-424 634,-424"/>
<polygon fill="none" stroke="#666666" points="622,-166 622,-470 774.25,-470 774.25,-166 622,-166"/>
</a>
</g>
</g>
<!-- Node8&#45;&gt;Node1 -->
<g id="edge7_Node000001_Node000008" class="edge">
<title>Node8&#45;&gt;Node1</title>
<g id="a_edge7_Node000001_Node000008"><a xlink:title=" ">
<path fill="none" stroke="#63b8ff" d="M622.23,-177.04C612.49,-160.93 602.34,-144.94 592.12,-130 590.33,-127.37 588.46,-124.71 586.55,-122.05"/>
<polygon fill="none" stroke="#63b8ff" points="586.64,-122.17 579.86,-119.7 579.53,-112.5 586.31,-114.96 586.64,-122.17"/>
</a>
</g>
<text xml:space="preserve" text-anchor="start" x="604.8" y="-135.5" font-family="Helvetica,sans-Serif" font-size="10.00" fill="grey">+system</text>
</g>
<!-- Node9 -->
<g id="Node000009" class="node">
<title>Node9</title>
<g id="a_Node000009"><a xlink:href="../../d0/d85/a00976.html" target="_top" xlink:title="ModelUsb class for USB power and module reset control.">
<polygon fill="white" stroke="none" points="916.38,-380 791.88,-380 791.88,-256 916.38,-256 916.38,-380"/>
<text xml:space="preserve" text-anchor="start" x="832" y="-366.5" font-family="Helvetica,sans-Serif" font-size="10.00">ModelUsb</text>
<text xml:space="preserve" text-anchor="start" x="852.62" y="-350.5" font-family="Helvetica,sans-Serif" font-size="10.00"> </text>
<text xml:space="preserve" text-anchor="start" x="795.88" y="-334.5" font-family="Helvetica,sans-Serif" font-size="10.00">+</text>
<text xml:space="preserve" text-anchor="start" x="805.88" y="-334.5" font-family="Helvetica,sans-Serif" font-size="10.00">ModelUsb()</text>
<text xml:space="preserve" text-anchor="start" x="795.88" y="-318.5" font-family="Helvetica,sans-Serif" font-size="10.00">+</text>
<text xml:space="preserve" text-anchor="start" x="805.88" y="-318.5" font-family="Helvetica,sans-Serif" font-size="10.00">~ModelUsb()</text>
<text xml:space="preserve" text-anchor="start" x="795.88" y="-302.5" font-family="Helvetica,sans-Serif" font-size="10.00">+</text>
<text xml:space="preserve" text-anchor="start" x="805.88" y="-302.5" font-family="Helvetica,sans-Serif" font-size="10.00">bool isPoweredByUSB</text>
<text xml:space="preserve" text-anchor="start" x="805.88" y="-290.5" font-family="Helvetica,sans-Serif" font-size="10.00">() const</text>
<text xml:space="preserve" text-anchor="start" x="795.88" y="-274.5" font-family="Helvetica,sans-Serif" font-size="10.00">+</text>
<text xml:space="preserve" text-anchor="start" x="805.88" y="-274.5" font-family="Helvetica,sans-Serif" font-size="10.00">void setModuleResetPin</text>
<text xml:space="preserve" text-anchor="start" x="805.88" y="-262.5" font-family="Helvetica,sans-Serif" font-size="10.00">(bool value)</text>
<polygon fill="#666666" stroke="#666666" points="791.88,-362 791.88,-362 916.38,-362 916.38,-362 791.88,-362"/>
<polygon fill="#666666" stroke="#666666" points="791.88,-346 791.88,-346 916.38,-346 916.38,-346 791.88,-346"/>
<polygon fill="none" stroke="#666666" points="791.88,-256 791.88,-380 916.38,-380 916.38,-256 791.88,-256"/>
</a>
</g>
</g>
<!-- Node9&#45;&gt;Node1 -->
<g id="edge8_Node000001_Node000009" class="edge">
<title>Node9&#45;&gt;Node1</title>
<g id="a_edge8_Node000001_Node000009"><a xlink:title=" ">
<path fill="none" stroke="#63b8ff" d="M836.81,-256.08C825.62,-225.81 808.35,-190.55 783.12,-166 736.3,-120.42 667.29,-92.26 613.78,-76.01"/>
<polygon fill="none" stroke="#63b8ff" points="613.96,-76.06 607.07,-78.21 602.45,-72.68 609.33,-70.53 613.96,-76.06"/>
</a>
</g>
<text xml:space="preserve" text-anchor="start" x="764.01" y="-135.5" font-family="Helvetica,sans-Serif" font-size="10.00" fill="grey">+usb</text>
</g>
<!-- Node10 -->
<g id="Node000010" class="node">
<title>Node10</title>
<g id="a_Node000010"><a xlink:href="../../db/d20/a00980.html" target="_top" xlink:title="ModelXbee class for XBee module interaction.">
<polygon fill="white" stroke="none" points="1107.75,-442 934.5,-442 934.5,-194 1107.75,-194 1107.75,-442"/>
<text xml:space="preserve" text-anchor="start" x="996.75" y="-428.5" font-family="Helvetica,sans-Serif" font-size="10.00">ModelXbee</text>
<text xml:space="preserve" text-anchor="start" x="938.5" y="-412.5" font-family="Helvetica,sans-Serif" font-size="10.00">+</text>
<text xml:space="preserve" text-anchor="start" x="948.5" y="-412.5" font-family="Helvetica,sans-Serif" font-size="10.00">std::unique_ptr&lt; SignalStrength</text>
<text xml:space="preserve" text-anchor="start" x="948.5" y="-400.5" font-family="Helvetica,sans-Serif" font-size="10.00"> &gt; signalStrength</text>
<text xml:space="preserve" text-anchor="start" x="938.5" y="-384.5" font-family="Helvetica,sans-Serif" font-size="10.00">+</text>
<text xml:space="preserve" text-anchor="start" x="948.5" y="-384.5" font-family="Helvetica,sans-Serif" font-size="10.00">std::unique_ptr&lt; Connection</text>
<text xml:space="preserve" text-anchor="start" x="948.5" y="-372.5" font-family="Helvetica,sans-Serif" font-size="10.00"> &gt; connection</text>
<text xml:space="preserve" text-anchor="start" x="938.5" y="-356.5" font-family="Helvetica,sans-Serif" font-size="10.00">+</text>
<text xml:space="preserve" text-anchor="start" x="948.5" y="-356.5" font-family="Helvetica,sans-Serif" font-size="10.00">std::unique_ptr&lt; Transmit</text>
<text xml:space="preserve" text-anchor="start" x="948.5" y="-344.5" font-family="Helvetica,sans-Serif" font-size="10.00">Time &gt; transmitTime</text>
<text xml:space="preserve" text-anchor="start" x="938.5" y="-328.5" font-family="Helvetica,sans-Serif" font-size="10.00">+</text>
<text xml:space="preserve" text-anchor="start" x="948.5" y="-328.5" font-family="Helvetica,sans-Serif" font-size="10.00">std::unique_ptr&lt; Leds</text>
<text xml:space="preserve" text-anchor="start" x="948.5" y="-316.5" font-family="Helvetica,sans-Serif" font-size="10.00"> &gt; leds</text>
<text xml:space="preserve" text-anchor="start" x="938.5" y="-300.5" font-family="Helvetica,sans-Serif" font-size="10.00">+</text>
<text xml:space="preserve" text-anchor="start" x="948.5" y="-300.5" font-family="Helvetica,sans-Serif" font-size="10.00">std::unique_ptr&lt; ModuleParameters</text>
<text xml:space="preserve" text-anchor="start" x="948.5" y="-288.5" font-family="Helvetica,sans-Serif" font-size="10.00"> &gt; parameters</text>
<text xml:space="preserve" text-anchor="start" x="938.5" y="-272.5" font-family="Helvetica,sans-Serif" font-size="10.00">+</text>
<text xml:space="preserve" text-anchor="start" x="948.5" y="-272.5" font-family="Helvetica,sans-Serif" font-size="10.00">std::unique_ptr&lt; Spectrum</text>
<text xml:space="preserve" text-anchor="start" x="948.5" y="-260.5" font-family="Helvetica,sans-Serif" font-size="10.00">Analyzer &gt; spectrumAnalyzer</text>
<text xml:space="preserve" text-anchor="start" x="938.5" y="-244.5" font-family="Helvetica,sans-Serif" font-size="10.00">+</text>
<text xml:space="preserve" text-anchor="start" x="948.5" y="-244.5" font-family="Helvetica,sans-Serif" font-size="10.00">ModelXbee()</text>
<text xml:space="preserve" text-anchor="start" x="938.5" y="-228.5" font-family="Helvetica,sans-Serif" font-size="10.00">+</text>
<text xml:space="preserve" text-anchor="start" x="948.5" y="-228.5" font-family="Helvetica,sans-Serif" font-size="10.00">~ModelXbee()</text>
<text xml:space="preserve" text-anchor="start" x="938.5" y="-212.5" font-family="Helvetica,sans-Serif" font-size="10.00">+</text>
<text xml:space="preserve" text-anchor="start" x="948.5" y="-212.5" font-family="Helvetica,sans-Serif" font-size="10.00">void handleTickEvent</text>
<text xml:space="preserve" text-anchor="start" x="948.5" y="-200.5" font-family="Helvetica,sans-Serif" font-size="10.00">(Listener *listener)</text>
<polygon fill="#666666" stroke="#666666" points="934.5,-424 934.5,-424 1107.75,-424 1107.75,-424 934.5,-424"/>
<polygon fill="#666666" stroke="#666666" points="934.5,-256 934.5,-256 946.5,-256 946.5,-256 934.5,-256"/>
<polygon fill="#666666" stroke="#666666" points="946.5,-256 946.5,-256 1107.75,-256 1107.75,-256 946.5,-256"/>
<polygon fill="none" stroke="#666666" points="934.5,-194 934.5,-442 1107.75,-442 1107.75,-194 934.5,-194"/>
</a>
</g>
</g>
<!-- Node10&#45;&gt;Node1 -->
<g id="edge9_Node000001_Node000010" class="edge">
<title>Node10&#45;&gt;Node1</title>
<g id="a_edge9_Node000001_Node000010"><a xlink:title=" ">
<path fill="none" stroke="#63b8ff" d="M954.93,-194.24C945.92,-183.72 935.98,-174.05 925.12,-166 832.62,-97.39 698.87,-71.96 614.24,-62.54"/>
<polygon fill="none" stroke="#63b8ff" points="614.18,-62.53 607.79,-65.88 602.24,-61.28 608.63,-57.92 614.18,-62.53"/>
</a>
</g>
<text xml:space="preserve" text-anchor="start" x="901.03" y="-135.5" font-family="Helvetica,sans-Serif" font-size="10.00" fill="grey">+xbee</text>
</g>
</g>
</svg>
