<?xml version="1.0" encoding="UTF-8" standalone="no"?>
<!DOCTYPE svg PUBLIC "-//W3C//DTD SVG 1.1//EN"
 "http://www.w3.org/Graphics/SVG/1.1/DTD/svg11.dtd">
<!-- Generated by graphviz version 12.2.1 (20241206.2353)
 -->
<!-- Title: EditSaleDate.hpp Pages: 1 -->
<svg width="700pt" height="276pt"
 viewBox="0.00 0.00 700.31 276.00" xmlns="http://www.w3.org/2000/svg" xmlns:xlink="http://www.w3.org/1999/xlink">
<g id="graph0" class="graph" transform="scale(1 1) rotate(0) translate(4 272)">
<title>EditSaleDate.hpp</title>
<!-- Node1 -->
<g id="Node000001" class="node">
<title>Node1</title>
<g id="a_Node000001"><a xlink:title="Header file for the EditSaleDate screen class.">
<polygon fill="#999999" stroke="#666666" points="230.68,-268 138.18,-268 138.18,-248 230.68,-248 230.68,-268"/>
<text text-anchor="middle" x="184.43" y="-254.5" font-family="Arial" font-size="10.00">EditSaleDate.hpp</text>
</a>
</g>
</g>
<!-- Node2 -->
<g id="Node000002" class="node">
<title>Node2</title>
<g id="a_Node000002"><a xlink:href="../../d7/d9a/a00152.html" target="_top" xlink:title="Declaration of the EditDateBase class for handling date editing in the UI.">
<polygon fill="white" stroke="#666666" points="200.81,-212 82.06,-212 82.06,-180 200.81,-180 200.81,-212"/>
<text text-anchor="start" x="90.06" y="-198.5" font-family="Arial" font-size="10.00">Project/UI/Components</text>
<text text-anchor="middle" x="141.43" y="-186.5" font-family="Arial" font-size="10.00">/EditDateBase.hpp</text>
</a>
</g>
</g>
<!-- Node1&#45;&gt;Node2 -->
<g id="edge1_Node000001_Node000002" class="edge">
<title>Node1&#45;&gt;Node2</title>
<g id="a_edge1_Node000001_Node000002"><a xlink:title=" ">
<path fill="none" stroke="#63b8ff" d="M177.71,-247.62C172.66,-240.58 165.51,-230.59 158.88,-221.35"/>
<polygon fill="#63b8ff" stroke="#63b8ff" points="161.84,-219.46 153.17,-213.37 156.15,-223.54 161.84,-219.46"/>
</a>
</g>
</g>
<!-- Node6 -->
<g id="Node000006" class="node">
<title>Node6</title>
<g id="a_Node000006"><a xlink:title=" ">
<polygon fill="#e0e0e0" stroke="#999999" points="312.06,-20 260.81,-20 260.81,0 312.06,0 312.06,-20"/>
<text text-anchor="middle" x="286.43" y="-6.5" font-family="Arial" font-size="10.00">memory</text>
</a>
</g>
</g>
<!-- Node1&#45;&gt;Node6 -->
<g id="edge19_Node000001_Node000006" class="edge">
<title>Node1&#45;&gt;Node6</title>
<g id="a_edge19_Node000001_Node000006"><a xlink:title=" ">
<path fill="none" stroke="#63b8ff" d="M153.73,-247.59C92.52,-227.22 -35.13,-175.68 9.43,-112 64.44,-33.4 187.37,-15.75 249.29,-11.94"/>
<polygon fill="#63b8ff" stroke="#63b8ff" points="249.15,-15.45 258.95,-11.44 248.79,-8.46 249.15,-15.45"/>
</a>
</g>
</g>
<!-- Node7 -->
<g id="Node000007" class="node">
<title>Node7</title>
<g id="a_Node000007"><a xlink:title=" ">
<polygon fill="#e0e0e0" stroke="#999999" points="258.43,-76 200.43,-76 200.43,-56 258.43,-56 258.43,-76"/>
<text text-anchor="middle" x="229.43" y="-62.5" font-family="Arial" font-size="10.00">functional</text>
</a>
</g>
</g>
<!-- Node1&#45;&gt;Node7 -->
<g id="edge18_Node000001_Node000007" class="edge">
<title>Node1&#45;&gt;Node7</title>
<g id="a_edge18_Node000001_Node000007"><a xlink:title=" ">
<path fill="none" stroke="#63b8ff" d="M190.88,-247.82C196.7,-239.04 205.02,-225.23 209.43,-212 223.66,-169.36 227.78,-116.41 228.96,-87.76"/>
<polygon fill="#63b8ff" stroke="#63b8ff" points="232.45,-88.05 229.27,-77.94 225.46,-87.83 232.45,-88.05"/>
</a>
</g>
</g>
<!-- Node10 -->
<g id="Node000010" class="node">
<title>Node10</title>
<g id="a_Node000010"><a xlink:href="../../db/ddf/a00164.html" target="_top" xlink:title="Defines the ScreenBase class for UI components.">
<polygon fill="white" stroke="#666666" points="374.81,-212 256.06,-212 256.06,-180 374.81,-180 374.81,-212"/>
<text text-anchor="start" x="264.06" y="-198.5" font-family="Arial" font-size="10.00">Project/UI/Components</text>
<text text-anchor="middle" x="315.43" y="-186.5" font-family="Arial" font-size="10.00">/ScreenBase.hpp</text>
</a>
</g>
</g>
<!-- Node1&#45;&gt;Node10 -->
<g id="edge9_Node000001_Node000010" class="edge">
<title>Node1&#45;&gt;Node10</title>
<g id="a_edge9_Node000001_Node000010"><a xlink:title=" ">
<path fill="none" stroke="#63b8ff" d="M204.9,-247.62C222.61,-239.52 248.82,-227.51 271.27,-217.23"/>
<polygon fill="#63b8ff" stroke="#63b8ff" points="272.6,-220.47 280.24,-213.12 269.69,-214.1 272.6,-220.47"/>
</a>
</g>
</g>
<!-- Node3 -->
<g id="Node000003" class="node">
<title>Node3</title>
<g id="a_Node000003"><a xlink:href="../../d3/df8/a00155.html" target="_top" xlink:title="This file contains the declaration of the EditValueBase class, which serves as a base class for editi...">
<polygon fill="white" stroke="#666666" points="412.81,-144 294.06,-144 294.06,-112 412.81,-112 412.81,-144"/>
<text text-anchor="start" x="302.06" y="-130.5" font-family="Arial" font-size="10.00">Project/UI/Components</text>
<text text-anchor="middle" x="353.43" y="-118.5" font-family="Arial" font-size="10.00">/EditValueBase.hpp</text>
</a>
</g>
</g>
<!-- Node2&#45;&gt;Node3 -->
<g id="edge2_Node000002_Node000003" class="edge">
<title>Node2&#45;&gt;Node3</title>
<g id="a_edge2_Node000002_Node000003"><a xlink:title=" ">
<path fill="none" stroke="#63b8ff" d="M191.14,-179.53C221.59,-170.04 260.79,-157.84 293.03,-147.81"/>
<polygon fill="#63b8ff" stroke="#63b8ff" points="293.72,-151.26 302.23,-144.94 291.64,-144.57 293.72,-151.26"/>
</a>
</g>
</g>
<!-- Node8 -->
<g id="Node000008" class="node">
<title>Node8</title>
<g id="a_Node000008"><a xlink:title=" ">
<polygon fill="#e0e0e0" stroke="#999999" points="142.81,-138 18.06,-138 18.06,-118 142.81,-118 142.81,-138"/>
<text text-anchor="middle" x="80.43" y="-124.5" font-family="Arial" font-size="10.00">Lib/Helper/DateTime.hpp</text>
</a>
</g>
</g>
<!-- Node2&#45;&gt;Node8 -->
<g id="edge7_Node000002_Node000008" class="edge">
<title>Node2&#45;&gt;Node8</title>
<g id="a_edge7_Node000002_Node000008"><a xlink:title=" ">
<path fill="none" stroke="#63b8ff" d="M127.28,-179.69C118.14,-169.8 106.21,-156.89 96.67,-146.57"/>
<polygon fill="#63b8ff" stroke="#63b8ff" points="99.43,-144.4 90.07,-139.43 94.29,-149.15 99.43,-144.4"/>
</a>
</g>
</g>
<!-- Node9 -->
<g id="Node000009" class="node">
<title>Node9</title>
<g id="a_Node000009"><a xlink:title=" ">
<polygon fill="#e0e0e0" stroke="#999999" points="200.43,-138 160.43,-138 160.43,-118 200.43,-118 200.43,-138"/>
<text text-anchor="middle" x="180.43" y="-124.5" font-family="Arial" font-size="10.00">string</text>
</a>
</g>
</g>
<!-- Node2&#45;&gt;Node9 -->
<g id="edge8_Node000002_Node000009" class="edge">
<title>Node2&#45;&gt;Node9</title>
<g id="a_edge8_Node000002_Node000009"><a xlink:title=" ">
<path fill="none" stroke="#63b8ff" d="M150.48,-179.69C156.03,-170.3 163.19,-158.18 169.11,-148.15"/>
<polygon fill="#63b8ff" stroke="#63b8ff" points="172.08,-150.01 174.16,-139.62 166.06,-146.45 172.08,-150.01"/>
</a>
</g>
</g>
<!-- Node4 -->
<g id="Node000004" class="node">
<title>Node4</title>
<g id="a_Node000004"><a xlink:href="../../d4/d81/a00110.html" target="_top" xlink:title="This file contains the declaration of the Keyboard class for handling keyboard input and button event...">
<polygon fill="white" stroke="#666666" points="447.93,-76 314.93,-76 314.93,-56 447.93,-56 447.93,-76"/>
<text text-anchor="middle" x="381.43" y="-62.5" font-family="Arial" font-size="10.00">Project/BSP/Keyboard.hpp</text>
</a>
</g>
</g>
<!-- Node3&#45;&gt;Node4 -->
<g id="edge3_Node000003_Node000004" class="edge">
<title>Node3&#45;&gt;Node4</title>
<g id="a_edge3_Node000003_Node000004"><a xlink:title=" ">
<path fill="none" stroke="#63b8ff" d="M360.64,-111.55C364.17,-104 368.45,-94.82 372.21,-86.77"/>
<polygon fill="#63b8ff" stroke="#63b8ff" points="375.34,-88.32 376.4,-77.78 369,-85.36 375.34,-88.32"/>
</a>
</g>
</g>
<!-- Node3&#45;&gt;Node7 -->
<g id="edge6_Node000003_Node000007" class="edge">
<title>Node3&#45;&gt;Node7</title>
<g id="a_edge6_Node000003_Node000007"><a xlink:title=" ">
<path fill="none" stroke="#63b8ff" d="M321.5,-111.55C302.3,-102.26 278.04,-90.52 259.23,-81.42"/>
<polygon fill="#63b8ff" stroke="#63b8ff" points="260.76,-78.27 250.24,-77.07 257.72,-84.57 260.76,-78.27"/>
</a>
</g>
</g>
<!-- Node5 -->
<g id="Node000005" class="node">
<title>Node5</title>
<g id="a_Node000005"><a xlink:title=" ">
<polygon fill="#e0e0e0" stroke="#999999" points="416.06,-20 334.81,-20 334.81,0 416.06,0 416.06,-20"/>
<text text-anchor="middle" x="375.43" y="-6.5" font-family="Arial" font-size="10.00">FreeRTOS.hpp</text>
</a>
</g>
</g>
<!-- Node4&#45;&gt;Node5 -->
<g id="edge4_Node000004_Node000005" class="edge">
<title>Node4&#45;&gt;Node5</title>
<g id="a_edge4_Node000004_Node000005"><a xlink:title=" ">
<path fill="none" stroke="#63b8ff" d="M380.39,-55.59C379.66,-49.01 378.65,-39.96 377.74,-31.73"/>
<polygon fill="#63b8ff" stroke="#63b8ff" points="381.22,-31.35 376.63,-21.8 374.26,-32.13 381.22,-31.35"/>
</a>
</g>
</g>
<!-- Node4&#45;&gt;Node6 -->
<g id="edge5_Node000004_Node000006" class="edge">
<title>Node4&#45;&gt;Node6</title>
<g id="a_edge5_Node000004_Node000006"><a xlink:title=" ">
<path fill="none" stroke="#63b8ff" d="M364.88,-55.59C350.53,-47.44 329.5,-35.48 312.83,-26"/>
<polygon fill="#63b8ff" stroke="#63b8ff" points="314.85,-23.13 304.43,-21.23 311.39,-29.21 314.85,-23.13"/>
</a>
</g>
</g>
<!-- Node10&#45;&gt;Node7 -->
<g id="edge17_Node000010_Node000007" class="edge">
<title>Node10&#45;&gt;Node7</title>
<g id="a_edge17_Node000010_Node000007"><a xlink:title=" ">
<path fill="none" stroke="#63b8ff" d="M305.06,-179.56C289.2,-155.95 258.96,-110.95 241.92,-85.59"/>
<polygon fill="#63b8ff" stroke="#63b8ff" points="245.02,-83.93 236.54,-77.58 239.21,-87.84 245.02,-83.93"/>
</a>
</g>
</g>
<!-- Node11 -->
<g id="Node000011" class="node">
<title>Node11</title>
<g id="a_Node000011"><a xlink:href="../../df/d98/a00107.html" target="_top" xlink:title="This file contains the declaration of the Display class for the BSP (Board Support Package).">
<polygon fill="white" stroke="#666666" points="554.43,-138 430.43,-138 430.43,-118 554.43,-118 554.43,-138"/>
<text text-anchor="middle" x="492.43" y="-124.5" font-family="Arial" font-size="10.00">Project/BSP/Display.hpp</text>
</a>
</g>
</g>
<!-- Node10&#45;&gt;Node11 -->
<g id="edge10_Node000010_Node000011" class="edge">
<title>Node10&#45;&gt;Node11</title>
<g id="a_edge10_Node000010_Node000011"><a xlink:title=" ">
<path fill="none" stroke="#63b8ff" d="M356.93,-179.53C387.19,-168.24 427.78,-153.11 456.63,-142.35"/>
<polygon fill="#63b8ff" stroke="#63b8ff" points="457.5,-145.76 465.64,-138.99 455.05,-139.2 457.5,-145.76"/>
</a>
</g>
</g>
<!-- Node11&#45;&gt;Node4 -->
<g id="edge11_Node000011_Node000004" class="edge">
<title>Node11&#45;&gt;Node4</title>
<g id="a_edge11_Node000011_Node000004"><a xlink:title=" ">
<path fill="none" stroke="#63b8ff" d="M475.09,-117.62C457.33,-108.03 429.47,-92.97 408.75,-81.77"/>
<polygon fill="#63b8ff" stroke="#63b8ff" points="410.45,-78.71 399.99,-77.03 407.12,-84.86 410.45,-78.71"/>
</a>
</g>
</g>
<!-- Node11&#45;&gt;Node6 -->
<g id="edge16_Node000011_Node000006" class="edge">
<title>Node11&#45;&gt;Node6</title>
<g id="a_edge16_Node000011_Node000006"><a xlink:title=" ">
<path fill="none" stroke="#63b8ff" d="M449.73,-117.57C398.12,-105.83 316.83,-86.08 306.43,-76 294.5,-64.43 289.64,-45.93 287.69,-31.62"/>
<polygon fill="#63b8ff" stroke="#63b8ff" points="291.2,-31.53 286.76,-21.91 284.23,-32.2 291.2,-31.53"/>
</a>
</g>
</g>
<!-- Node12 -->
<g id="Node000012" class="node">
<title>Node12</title>
<g id="a_Node000012"><a xlink:href="../../d4/d3e/a00116.html" target="_top" xlink:title="This file contains the declaration of the Led class, which is responsible for controlling an LED.">
<polygon fill="white" stroke="#666666" points="523.68,-76 473.18,-76 473.18,-56 523.68,-56 523.68,-76"/>
<text text-anchor="middle" x="498.43" y="-62.5" font-family="Arial" font-size="10.00">Led.hpp</text>
</a>
</g>
</g>
<!-- Node11&#45;&gt;Node12 -->
<g id="edge12_Node000011_Node000012" class="edge">
<title>Node11&#45;&gt;Node12</title>
<g id="a_edge12_Node000011_Node000012"><a xlink:title=" ">
<path fill="none" stroke="#63b8ff" d="M493.37,-117.62C494.18,-109.56 495.37,-97.65 496.39,-87.41"/>
<polygon fill="#63b8ff" stroke="#63b8ff" points="499.86,-87.92 497.37,-77.62 492.89,-87.22 499.86,-87.92"/>
</a>
</g>
</g>
<!-- Node12&#45;&gt;Node5 -->
<g id="edge13_Node000012_Node000005" class="edge">
<title>Node12&#45;&gt;Node5</title>
<g id="a_edge13_Node000012_Node000005"><a xlink:title=" ">
<path fill="none" stroke="#63b8ff" d="M477.01,-55.59C457.81,-47.17 429.39,-34.69 407.49,-25.07"/>
<polygon fill="#63b8ff" stroke="#63b8ff" points="408.97,-21.9 398.41,-21.09 406.16,-28.31 408.97,-21.9"/>
</a>
</g>
</g>
<!-- Node13 -->
<g id="Node000013" class="node">
<title>Node13</title>
<g id="a_Node000013"><a xlink:title=" ">
<polygon fill="#e0e0e0" stroke="#999999" points="576.43,-20 434.43,-20 434.43,0 576.43,0 576.43,-20"/>
<text text-anchor="middle" x="505.43" y="-6.5" font-family="Arial" font-size="10.00">Lib/BSP/DeviceManager.hpp</text>
</a>
</g>
</g>
<!-- Node12&#45;&gt;Node13 -->
<g id="edge14_Node000012_Node000013" class="edge">
<title>Node12&#45;&gt;Node13</title>
<g id="a_edge14_Node000012_Node000013"><a xlink:title=" ">
<path fill="none" stroke="#63b8ff" d="M499.65,-55.59C500.52,-48.93 501.71,-39.75 502.78,-31.44"/>
<polygon fill="#63b8ff" stroke="#63b8ff" points="506.22,-32.17 504.03,-21.8 499.28,-31.27 506.22,-32.17"/>
</a>
</g>
</g>
<!-- Node14 -->
<g id="Node000014" class="node">
<title>Node14</title>
<g id="a_Node000014"><a xlink:title=" ">
<polygon fill="#e0e0e0" stroke="#999999" points="692.31,-20 594.56,-20 594.56,0 692.31,0 692.31,-20"/>
<text text-anchor="middle" x="643.43" y="-6.5" font-family="Arial" font-size="10.00">Lib/HAL/GPIO.hpp</text>
</a>
</g>
</g>
<!-- Node12&#45;&gt;Node14 -->
<g id="edge15_Node000012_Node000014" class="edge">
<title>Node12&#45;&gt;Node14</title>
<g id="a_edge15_Node000012_Node000014"><a xlink:title=" ">
<path fill="none" stroke="#63b8ff" d="M523.69,-55.59C546.83,-46.97 581.36,-34.12 607.4,-24.42"/>
<polygon fill="#63b8ff" stroke="#63b8ff" points="608.41,-27.78 616.56,-21.01 605.97,-21.22 608.41,-27.78"/>
</a>
</g>
</g>
</g>
</svg>
