<?xml version="1.0" encoding="UTF-8" standalone="no"?>
<!DOCTYPE svg PUBLIC "-//W3C//DTD SVG 1.1//EN"
 "http://www.w3.org/Graphics/SVG/1.1/DTD/svg11.dtd">
<!-- Generated by graphviz version 13.1.0 (20250701.0955)
 -->
<!-- Title: Protocol.hpp Pages: 1 -->
<svg width="558pt" height="420pt"
 viewBox="0.00 0.00 558.00 420.00" xmlns="http://www.w3.org/2000/svg" xmlns:xlink="http://www.w3.org/1999/xlink">
<g id="graph0" class="graph" transform="scale(1 1) rotate(0) translate(4 416)">
<title>Protocol.hpp</title>
<!-- Node1 -->
<g id="Node000001" class="node">
<title>Node1</title>
<g id="a_Node000001"><a xlink:title="Protocol class for Digi XBee API frames.">
<polygon fill="#999999" stroke="#666666" points="470.34,-412 399.59,-412 399.59,-392 470.34,-392 470.34,-412"/>
<text xml:space="preserve" text-anchor="middle" x="434.96" y="-398.5" font-family="Helvetica,sans-Serif" font-size="10.00">Protocol.hpp</text>
</a>
</g>
</g>
<!-- Node2 -->
<g id="Node000002" class="node">
<title>Node2</title>
<g id="a_Node000002"><a xlink:href="../../dc/dd1/_com_driver_8hpp.html" target="_top" xlink:title="ComDriver class for Digi XBee modules.">
<polygon fill="white" stroke="#666666" points="441.96,-356 359.96,-356 359.96,-336 441.96,-336 441.96,-356"/>
<text xml:space="preserve" text-anchor="middle" x="400.96" y="-342.5" font-family="Helvetica,sans-Serif" font-size="10.00">ComDriver.hpp</text>
</a>
</g>
</g>
<!-- Node1&#45;&gt;Node2 -->
<g id="edge1_Node000001_Node000002" class="edge">
<title>Node1&#45;&gt;Node2</title>
<g id="a_edge1_Node000001_Node000002"><a xlink:title=" ">
<path fill="none" stroke="#63b8ff" d="M422.92,-381.87C417.45,-373.19 411.24,-363.32 406.82,-356.3"/>
<polygon fill="#63b8ff" stroke="#63b8ff" points="419.94,-383.72 428.23,-390.31 425.87,-379.99 419.94,-383.72"/>
</a>
</g>
</g>
<!-- Node3 -->
<g id="Node000003" class="node">
<title>Node3</title>
<g id="a_Node000003"><a xlink:href="../../db/db6/_module_8hpp.html" target="_top" xlink:title="Module class for Digi XBee modules.">
<polygon fill="white" stroke="#666666" points="468.09,-300 401.84,-300 401.84,-280 468.09,-280 468.09,-300"/>
<text xml:space="preserve" text-anchor="middle" x="434.96" y="-286.5" font-family="Helvetica,sans-Serif" font-size="10.00">Module.hpp</text>
</a>
</g>
</g>
<!-- Node1&#45;&gt;Node3 -->
<g id="edge22_Node000001_Node000003" class="edge">
<title>Node1&#45;&gt;Node3</title>
<g id="a_edge22_Node000001_Node000003"><a xlink:title=" ">
<path fill="none" stroke="#63b8ff" d="M443.67,-381.14C446.6,-373.45 449.5,-364.46 450.96,-356 454.44,-335.84 445.57,-312.68 439.69,-300.17"/>
<polygon fill="#63b8ff" stroke="#63b8ff" points="440.51,-379.62 439.95,-390.2 446.99,-382.28 440.51,-379.62"/>
</a>
</g>
</g>
<!-- Node2&#45;&gt;Node3 -->
<g id="edge2_Node000002_Node000003" class="edge">
<title>Node2&#45;&gt;Node3</title>
<g id="a_edge2_Node000002_Node000003"><a xlink:title=" ">
<path fill="none" stroke="#63b8ff" d="M413.01,-325.87C418.48,-317.19 424.69,-307.32 429.11,-300.3"/>
<polygon fill="#63b8ff" stroke="#63b8ff" points="410.06,-323.99 407.69,-334.31 415.98,-327.72 410.06,-323.99"/>
</a>
</g>
</g>
<!-- Node4 -->
<g id="Node000004" class="node">
<title>Node4</title>
<g id="a_Node000004"><a xlink:href="../../d1/da2/_application_base_8hpp.html" target="_top" xlink:title="ApplicationBase class for Digi API applications.">
<polygon fill="white" stroke="#666666" points="337.59,-76 232.34,-76 232.34,-56 337.59,-56 337.59,-76"/>
<text xml:space="preserve" text-anchor="middle" x="284.96" y="-62.5" font-family="Helvetica,sans-Serif" font-size="10.00">ApplicationBase.hpp</text>
</a>
</g>
</g>
<!-- Node3&#45;&gt;Node4 -->
<g id="edge3_Node000003_Node000004" class="edge">
<title>Node3&#45;&gt;Node4</title>
<g id="a_edge3_Node000003_Node000004"><a xlink:title=" ">
<path fill="none" stroke="#63b8ff" d="M456.95,-272.82C498.7,-240.19 581.43,-165.11 536.96,-112 512.11,-82.31 404.34,-72.19 338.04,-68.75"/>
<polygon fill="#63b8ff" stroke="#63b8ff" points="455.05,-269.87 449.23,-278.72 459.3,-275.43 455.05,-269.87"/>
</a>
</g>
</g>
<!-- Node7 -->
<g id="Node000007" class="node">
<title>Node7</title>
<g id="a_Node000007"><a xlink:href="../../dd/d86/_local_at_command_8hpp.html" target="_top" xlink:title="LocalAtCommand class for Digi XBee modules.">
<polygon fill="white" stroke="#666666" points="241.34,-244 128.59,-244 128.59,-224 241.34,-224 241.34,-244"/>
<text xml:space="preserve" text-anchor="middle" x="184.96" y="-230.5" font-family="Helvetica,sans-Serif" font-size="10.00">LocalAtCommand.hpp</text>
</a>
</g>
</g>
<!-- Node3&#45;&gt;Node7 -->
<g id="edge6_Node000003_Node000007" class="edge">
<title>Node3&#45;&gt;Node7</title>
<g id="a_edge6_Node000003_Node000007"><a xlink:title=" ">
<path fill="none" stroke="#63b8ff" d="M390.46,-279.39C344.78,-269.52 274.14,-254.26 228.73,-244.45"/>
<polygon fill="#63b8ff" stroke="#63b8ff" points="389.51,-282.76 400.03,-281.45 390.99,-275.92 389.51,-282.76"/>
</a>
</g>
</g>
<!-- Node12 -->
<g id="Node000012" class="node">
<title>Node12</title>
<g id="a_Node000012"><a xlink:href="../../d4/db2/_modem_status_8hpp.html" target="_top" xlink:title="Modem Status Service class for Digi XBee modules.">
<polygon fill="white" stroke="#666666" points="527.71,-132 432.21,-132 432.21,-112 527.71,-112 527.71,-132"/>
<text xml:space="preserve" text-anchor="middle" x="479.96" y="-118.5" font-family="Helvetica,sans-Serif" font-size="10.00">ModemStatus.hpp</text>
</a>
</g>
</g>
<!-- Node3&#45;&gt;Node12 -->
<g id="edge17_Node000003_Node000012" class="edge">
<title>Node3&#45;&gt;Node12</title>
<g id="a_edge17_Node000003_Node000012"><a xlink:title=" ">
<path fill="none" stroke="#63b8ff" d="M448.02,-270.02C452.78,-262.26 457.78,-253.01 460.96,-244 475.07,-204.1 478.73,-153.12 479.65,-132.39"/>
<polygon fill="#63b8ff" stroke="#63b8ff" points="445.19,-267.94 442.68,-278.23 451.06,-271.75 445.19,-267.94"/>
</a>
</g>
</g>
<!-- Node13 -->
<g id="Node000013" class="node">
<title>Node13</title>
<g id="a_Node000013"><a xlink:href="../../df/d82/_remote_at_command_8hpp.html" target="_top" xlink:title="RemoteAtCommand class for Digi XBee modules.">
<polygon fill="white" stroke="#666666" points="451.96,-244 327.96,-244 327.96,-224 451.96,-224 451.96,-244"/>
<text xml:space="preserve" text-anchor="middle" x="389.96" y="-230.5" font-family="Helvetica,sans-Serif" font-size="10.00">RemoteAtCommand.hpp</text>
</a>
</g>
</g>
<!-- Node3&#45;&gt;Node13 -->
<g id="edge19_Node000003_Node000013" class="edge">
<title>Node3&#45;&gt;Node13</title>
<g id="a_edge19_Node000003_Node000013"><a xlink:title=" ">
<path fill="none" stroke="#63b8ff" d="M419.97,-271C412.51,-262.06 403.82,-251.62 397.71,-244.3"/>
<polygon fill="#63b8ff" stroke="#63b8ff" points="417.07,-272.99 426.16,-278.43 422.44,-268.51 417.07,-272.99"/>
</a>
</g>
</g>
<!-- Node5 -->
<g id="Node000005" class="node">
<title>Node5</title>
<g id="a_Node000005"><a xlink:href="../../d7/dfd/_client_base_8hpp.html" target="_top" xlink:title="ClientBase class for Digi XBee API.">
<polygon fill="white" stroke="#666666" points="326.34,-20 243.59,-20 243.59,0 326.34,0 326.34,-20"/>
<text xml:space="preserve" text-anchor="middle" x="284.96" y="-6.5" font-family="Helvetica,sans-Serif" font-size="10.00">ClientBase.hpp</text>
</a>
</g>
</g>
<!-- Node4&#45;&gt;Node5 -->
<g id="edge4_Node000004_Node000005" class="edge">
<title>Node4&#45;&gt;Node5</title>
<g id="a_edge4_Node000004_Node000005"><a xlink:title=" ">
<path fill="none" stroke="#63b8ff" d="M284.96,-44.13C284.96,-35.9 284.96,-26.85 284.96,-20.3"/>
<polygon fill="#63b8ff" stroke="#63b8ff" points="281.46,-44.08 284.96,-54.08 288.46,-44.08 281.46,-44.08"/>
</a>
</g>
</g>
<!-- Node6 -->
<g id="Node000006" class="node">
<title>Node6</title>
<g id="a_Node000006"><a xlink:href="../../d3/d45/_server_base_8hpp.html" target="_top" xlink:title="CAN bus server service specialization for SERVER mode.">
<polygon fill="white" stroke="#666666" points="131.84,-20 46.09,-20 46.09,0 131.84,0 131.84,-20"/>
<text xml:space="preserve" text-anchor="middle" x="88.96" y="-6.5" font-family="Helvetica,sans-Serif" font-size="10.00">ServerBase.hpp</text>
</a>
</g>
</g>
<!-- Node4&#45;&gt;Node6 -->
<g id="edge5_Node000004_Node000006" class="edge">
<title>Node4&#45;&gt;Node6</title>
<g id="a_edge5_Node000004_Node000006"><a xlink:title=" ">
<path fill="none" stroke="#63b8ff" d="M239.81,-52.56C204.35,-42.79 155.72,-29.39 123.37,-20.48"/>
<polygon fill="#63b8ff" stroke="#63b8ff" points="238.79,-55.91 249.36,-55.19 240.65,-49.16 238.79,-55.91"/>
</a>
</g>
</g>
<!-- Node7&#45;&gt;Node4 -->
<g id="edge7_Node000007_Node000004" class="edge">
<title>Node7&#45;&gt;Node4</title>
<g id="a_edge7_Node000007_Node000004"><a xlink:title=" ">
<path fill="none" stroke="#63b8ff" d="M187.41,-212.37C191.3,-186.77 200.85,-142.73 222.96,-112 234.15,-96.45 252.37,-84.16 266.17,-76.38"/>
<polygon fill="#63b8ff" stroke="#63b8ff" points="183.97,-211.74 186.1,-222.12 190.9,-212.68 183.97,-211.74"/>
</a>
</g>
</g>
<!-- Node7&#45;&gt;Node6 -->
<g id="edge14_Node000007_Node000006" class="edge">
<title>Node7&#45;&gt;Node6</title>
<g id="a_edge14_Node000007_Node000006"><a xlink:title=" ">
<path fill="none" stroke="#63b8ff" d="M117.04,-223.83C74.73,-216.57 25.95,-204.82 12.96,-188 -30.16,-132.15 49.43,-48.12 78.75,-20.31"/>
<polygon fill="#63b8ff" stroke="#63b8ff" points="116.26,-227.25 126.7,-225.42 117.4,-220.34 116.26,-227.25"/>
</a>
</g>
</g>
<!-- Node8 -->
<g id="Node000008" class="node">
<title>Node8</title>
<g id="a_Node000008"><a xlink:href="../../d2/de9/_network_discovery_8hpp.html" target="_top" xlink:title="NetworkDiscovery service class.">
<polygon fill="white" stroke="#666666" points="175.46,-132 60.46,-132 60.46,-112 175.46,-112 175.46,-132"/>
<text xml:space="preserve" text-anchor="middle" x="117.96" y="-118.5" font-family="Helvetica,sans-Serif" font-size="10.00">NetworkDiscovery.hpp</text>
</a>
</g>
</g>
<!-- Node7&#45;&gt;Node8 -->
<g id="edge8_Node000007_Node000008" class="edge">
<title>Node7&#45;&gt;Node8</title>
<g id="a_edge8_Node000007_Node000008"><a xlink:title=" ">
<path fill="none" stroke="#63b8ff" d="M173.7,-214.04C165.95,-201.05 155.4,-183.44 145.96,-168 138.38,-155.59 129.49,-141.36 123.8,-132.28"/>
<polygon fill="#63b8ff" stroke="#63b8ff" points="170.56,-215.61 178.68,-222.41 176.57,-212.03 170.56,-215.61"/>
</a>
</g>
</g>
<!-- Node9 -->
<g id="Node000009" class="node">
<title>Node9</title>
<g id="a_Node000009"><a xlink:href="../../d8/de8/_parameters_8hpp.html" target="_top" xlink:title="Parameters service class.">
<polygon fill="white" stroke="#666666" points="351.46,-188 266.46,-188 266.46,-168 351.46,-168 351.46,-188"/>
<text xml:space="preserve" text-anchor="middle" x="308.96" y="-174.5" font-family="Helvetica,sans-Serif" font-size="10.00">Parameters.hpp</text>
</a>
</g>
</g>
<!-- Node7&#45;&gt;Node9 -->
<g id="edge10_Node000007_Node000009" class="edge">
<title>Node7&#45;&gt;Node9</title>
<g id="a_edge10_Node000007_Node000009"><a xlink:title=" ">
<path fill="none" stroke="#63b8ff" d="M217.09,-219.01C239.13,-209.41 267.79,-196.93 287.2,-188.48"/>
<polygon fill="#63b8ff" stroke="#63b8ff" points="215.72,-215.79 207.95,-222.99 218.52,-222.21 215.72,-215.79"/>
</a>
</g>
</g>
<!-- Node11 -->
<g id="Node000011" class="node">
<title>Node11</title>
<g id="a_Node000011"><a xlink:href="../../d7/d2e/_spectrum_analyzer_8hpp.html" target="_top" xlink:title="Spectrum Analyzer service for Digi API.">
<polygon fill="white" stroke="#666666" points="137.46,-188 22.46,-188 22.46,-168 137.46,-168 137.46,-188"/>
<text xml:space="preserve" text-anchor="middle" x="79.96" y="-174.5" font-family="Helvetica,sans-Serif" font-size="10.00">SpectrumAnalyzer.hpp</text>
</a>
</g>
</g>
<!-- Node7&#45;&gt;Node11 -->
<g id="edge15_Node000007_Node000011" class="edge">
<title>Node7&#45;&gt;Node11</title>
<g id="a_edge15_Node000007_Node000011"><a xlink:title=" ">
<path fill="none" stroke="#63b8ff" d="M156.47,-218.35C137.99,-208.84 114.45,-196.74 98.4,-188.48"/>
<polygon fill="#63b8ff" stroke="#63b8ff" points="154.83,-221.44 165.33,-222.9 158.04,-215.22 154.83,-221.44"/>
</a>
</g>
</g>
<!-- Node8&#45;&gt;Node4 -->
<g id="edge9_Node000008_Node000004" class="edge">
<title>Node8&#45;&gt;Node4</title>
<g id="a_edge9_Node000008_Node000004"><a xlink:title=" ">
<path fill="none" stroke="#63b8ff" d="M157.62,-108.18C187.72,-98.44 228.44,-85.28 255.65,-76.48"/>
<polygon fill="#63b8ff" stroke="#63b8ff" points="156.93,-104.72 148.49,-111.13 159.08,-111.38 156.93,-104.72"/>
</a>
</g>
</g>
<!-- Node9&#45;&gt;Node4 -->
<g id="edge11_Node000009_Node000004" class="edge">
<title>Node9&#45;&gt;Node4</title>
<g id="a_edge11_Node000009_Node000004"><a xlink:title=" ">
<path fill="none" stroke="#63b8ff" d="M329.67,-159.85C342.65,-146.92 355.44,-128.62 346.96,-112 338.63,-95.65 321.26,-83.85 307.02,-76.45"/>
<polygon fill="#63b8ff" stroke="#63b8ff" points="327.45,-157.14 322.46,-166.48 332.19,-162.29 327.45,-157.14"/>
</a>
</g>
</g>
<!-- Node10 -->
<g id="Node000010" class="node">
<title>Node10</title>
<g id="a_Node000010"><a xlink:href="../../db/d53/_channel_scanner_8hpp.html" target="_top" xlink:title="ChannelScanner service class.">
<polygon fill="white" stroke="#666666" points="338.34,-132 231.59,-132 231.59,-112 338.34,-112 338.34,-132"/>
<text xml:space="preserve" text-anchor="middle" x="284.96" y="-118.5" font-family="Helvetica,sans-Serif" font-size="10.00">ChannelScanner.hpp</text>
</a>
</g>
</g>
<!-- Node9&#45;&gt;Node10 -->
<g id="edge12_Node000009_Node000010" class="edge">
<title>Node9&#45;&gt;Node10</title>
<g id="a_edge12_Node000009_Node000010"><a xlink:title=" ">
<path fill="none" stroke="#63b8ff" d="M300.2,-157.29C296.41,-148.75 292.15,-139.16 289.1,-132.3"/>
<polygon fill="#63b8ff" stroke="#63b8ff" points="296.91,-158.49 304.17,-166.21 303.3,-155.65 296.91,-158.49"/>
</a>
</g>
</g>
<!-- Node10&#45;&gt;Node4 -->
<g id="edge13_Node000010_Node000004" class="edge">
<title>Node10&#45;&gt;Node4</title>
<g id="a_edge13_Node000010_Node000004"><a xlink:title=" ">
<path fill="none" stroke="#63b8ff" d="M284.96,-100.13C284.96,-91.9 284.96,-82.85 284.96,-76.3"/>
<polygon fill="#63b8ff" stroke="#63b8ff" points="281.46,-100.08 284.96,-110.08 288.46,-100.08 281.46,-100.08"/>
</a>
</g>
</g>
<!-- Node11&#45;&gt;Node4 -->
<g id="edge16_Node000011_Node000004" class="edge">
<title>Node11&#45;&gt;Node4</title>
<g id="a_edge16_Node000011_Node000004"><a xlink:title=" ">
<path fill="none" stroke="#63b8ff" d="M62.53,-159.49C50.78,-145.53 39.34,-126.07 50.96,-112 73.46,-84.77 170.05,-73.84 231.88,-69.59"/>
<polygon fill="#63b8ff" stroke="#63b8ff" points="59.72,-161.6 69.05,-166.63 64.9,-156.88 59.72,-161.6"/>
</a>
</g>
</g>
<!-- Node12&#45;&gt;Node4 -->
<g id="edge18_Node000012_Node000004" class="edge">
<title>Node12&#45;&gt;Node4</title>
<g id="a_edge18_Node000012_Node000004"><a xlink:title=" ">
<path fill="none" stroke="#63b8ff" d="M435.04,-108.56C399.76,-98.79 351.38,-85.39 319.19,-76.48"/>
<polygon fill="#63b8ff" stroke="#63b8ff" points="433.97,-111.89 444.54,-111.19 435.83,-105.15 433.97,-111.89"/>
</a>
</g>
</g>
<!-- Node13&#45;&gt;Node4 -->
<g id="edge20_Node000013_Node000004" class="edge">
<title>Node13&#45;&gt;Node4</title>
<g id="a_edge20_Node000013_Node000004"><a xlink:title=" ">
<path fill="none" stroke="#63b8ff" d="M390.01,-212.48C389.08,-186.64 384.05,-142 361.96,-112 349.57,-95.17 328.83,-83.57 312,-76.37"/>
<polygon fill="#63b8ff" stroke="#63b8ff" points="386.51,-212.35 390.17,-222.29 393.51,-212.23 386.51,-212.35"/>
</a>
</g>
</g>
<!-- Node13&#45;&gt;Node9 -->
<g id="edge21_Node000013_Node000009" class="edge">
<title>Node13&#45;&gt;Node9</title>
<g id="a_edge21_Node000013_Node000009"><a xlink:title=" ">
<path fill="none" stroke="#63b8ff" d="M366.37,-217.27C352.38,-207.94 335.11,-196.43 323.18,-188.48"/>
<polygon fill="#63b8ff" stroke="#63b8ff" points="364.33,-220.12 374.59,-222.75 368.22,-214.3 364.33,-220.12"/>
</a>
</g>
</g>
</g>
</svg>
