<?xml version="1.0" encoding="UTF-8" standalone="no"?>
<!DOCTYPE svg PUBLIC "-//W3C//DTD SVG 1.1//EN"
 "http://www.w3.org/Graphics/SVG/1.1/DTD/svg11.dtd">
<!-- Generated by graphviz version 3.0.0 (20220226.1711)
 -->
<!-- Title: UAccum.hxx Pages: 1 -->
<svg width="153pt" height="252pt"
 viewBox="0.00 0.00 153.00 252.00" xmlns="http://www.w3.org/2000/svg" xmlns:xlink="http://www.w3.org/1999/xlink">
<g id="graph0" class="graph" transform="scale(1 1) rotate(0) translate(4 248)">
<title>UAccum.hxx</title>
<!-- Node1 -->
<g id="node1" class="node">
<title>Node1</title>
<g id="a_node1"><a xlink:title="UAccum Union.">
<polygon fill="#bfbfbf" stroke="black" points="29.5,-224.5 29.5,-243.5 102.5,-243.5 102.5,-224.5 29.5,-224.5"/>
<text text-anchor="middle" x="66" y="-231.5" font-family="Helvetica,sans-Serif" font-size="10.00">UAccum.hxx</text>
</a>
</g>
</g>
<!-- Node2 -->
<g id="node2" class="node">
<title>Node2</title>
<g id="a_node2"><a xlink:href="../../d2/d1a/_c_frame_8hxx.html" target="_top" xlink:title="Frame class.">
<polygon fill="none" stroke="black" points="0,-168.5 0,-187.5 70,-187.5 70,-168.5 0,-168.5"/>
<text text-anchor="middle" x="35" y="-175.5" font-family="Helvetica,sans-Serif" font-size="10.00">CFrame.hxx</text>
</a>
</g>
</g>
<!-- Node1&#45;&gt;Node2 -->
<g id="edge1" class="edge">
<title>Node1&#45;&gt;Node2</title>
<path fill="none" stroke="midnightblue" d="M55.82,-215.27C50.53,-206.05 44.28,-195.17 40.02,-187.75"/>
<polygon fill="midnightblue" stroke="midnightblue" points="52.87,-217.15 60.88,-224.08 58.94,-213.67 52.87,-217.15"/>
</g>
<!-- Node5 -->
<g id="node5" class="node">
<title>Node5</title>
<g id="a_node5"><a xlink:href="../../d5/dbb/_c_frame_mixer_8hxx.html" target="_top" xlink:title="CFrameMixer class.">
<polygon fill="none" stroke="black" points="51,-112.5 51,-131.5 145,-131.5 145,-112.5 51,-112.5"/>
<text text-anchor="middle" x="98" y="-119.5" font-family="Helvetica,sans-Serif" font-size="10.00">CFrameMixer.hxx</text>
</a>
</g>
</g>
<!-- Node1&#45;&gt;Node5 -->
<g id="edge6" class="edge">
<title>Node1&#45;&gt;Node5</title>
<path fill="none" stroke="midnightblue" d="M71.33,-214.67C78.33,-190.62 90.32,-149.39 95.5,-131.59"/>
<polygon fill="midnightblue" stroke="midnightblue" points="67.94,-213.79 68.51,-224.37 74.67,-215.74 67.94,-213.79"/>
</g>
<!-- Node3 -->
<g id="node3" class="node">
<title>Node3</title>
<g id="a_node3"><a xlink:href="../../d4/d43/_audio_8hpp.html" target="_top" xlink:title="Audio Layer.">
<polygon fill="none" stroke="black" points="30,-56.5 30,-75.5 90,-75.5 90,-56.5 30,-56.5"/>
<text text-anchor="middle" x="60" y="-63.5" font-family="Helvetica,sans-Serif" font-size="10.00">Audio.hpp</text>
</a>
</g>
</g>
<!-- Node2&#45;&gt;Node3 -->
<g id="edge2" class="edge">
<title>Node2&#45;&gt;Node3</title>
<path fill="none" stroke="midnightblue" d="M35.66,-158.33C36.45,-145.21 38.18,-127.33 42,-112 45.25,-98.94 51.47,-84.62 55.68,-75.73"/>
<polygon fill="midnightblue" stroke="midnightblue" points="32.16,-158.3 35.18,-168.46 39.15,-158.63 32.16,-158.3"/>
</g>
<!-- Node2&#45;&gt;Node5 -->
<g id="edge4" class="edge">
<title>Node2&#45;&gt;Node5</title>
<path fill="none" stroke="midnightblue" d="M53.04,-161.54C64.27,-151.91 78.32,-139.87 87.69,-131.83"/>
<polygon fill="midnightblue" stroke="midnightblue" points="50.44,-159.16 45.12,-168.32 54.99,-164.47 50.44,-159.16"/>
</g>
<!-- Node4 -->
<g id="node4" class="node">
<title>Node4</title>
<g id="a_node4"><a xlink:href="../../dc/d4e/_audio_8cpp.html" target="_top" xlink:title="Audio Layer.">
<polygon fill="none" stroke="black" points="30,-0.5 30,-19.5 90,-19.5 90,-0.5 30,-0.5"/>
<text text-anchor="middle" x="60" y="-7.5" font-family="Helvetica,sans-Serif" font-size="10.00">Audio.cpp</text>
</a>
</g>
</g>
<!-- Node3&#45;&gt;Node4 -->
<g id="edge3" class="edge">
<title>Node3&#45;&gt;Node4</title>
<path fill="none" stroke="midnightblue" d="M60,-45.8C60,-36.91 60,-26.78 60,-19.75"/>
<polygon fill="midnightblue" stroke="midnightblue" points="56.5,-46.08 60,-56.08 63.5,-46.08 56.5,-46.08"/>
</g>
<!-- Node5&#45;&gt;Node3 -->
<g id="edge5" class="edge">
<title>Node5&#45;&gt;Node3</title>
<path fill="none" stroke="midnightblue" d="M85.94,-103.86C79.36,-94.5 71.49,-83.33 66.16,-75.75"/>
<polygon fill="midnightblue" stroke="midnightblue" points="83.11,-105.92 91.73,-112.08 88.83,-101.89 83.11,-105.92"/>
</g>
</g>
</svg>
