<?xml version="1.0" encoding="UTF-8" standalone="no"?>
<!DOCTYPE svg PUBLIC "-//W3C//DTD SVG 1.1//EN"
 "http://www.w3.org/Graphics/SVG/1.1/DTD/svg11.dtd">
<!-- Generated by graphviz version 13.1.0 (20250701.0955)
 -->
<!-- Title: Semaphore.hpp Pages: 1 -->
<svg width="205pt" height="140pt"
 viewBox="0.00 0.00 205.00 140.00" xmlns="http://www.w3.org/2000/svg" xmlns:xlink="http://www.w3.org/1999/xlink">
<g id="graph0" class="graph" transform="scale(1 1) rotate(0) translate(4 136)">
<title>Semaphore.hpp</title>
<!-- Node1 -->
<g id="Node000001" class="node">
<title>Node1</title>
<g id="a_Node000001"><a xlink:title="FreeRTOS binary semaphore wrapper.">
<polygon fill="#999999" stroke="#666666" points="141.25,-132 57,-132 57,-112 141.25,-112 141.25,-132"/>
<text xml:space="preserve" text-anchor="middle" x="99.12" y="-118.5" font-family="Helvetica,sans-Serif" font-size="10.00">Semaphore.hpp</text>
</a>
</g>
</g>
<!-- Node2 -->
<g id="Node000002" class="node">
<title>Node2</title>
<g id="a_Node000002"><a xlink:href="../../db/d10/a00350.html" target="_top" xlink:title="Abstract base class for FreeRTOS semaphore wrappers.">
<polygon fill="white" stroke="#666666" points="152.5,-76 45.75,-76 45.75,-56 152.5,-56 152.5,-76"/>
<text xml:space="preserve" text-anchor="middle" x="99.12" y="-62.5" font-family="Helvetica,sans-Serif" font-size="10.00">SemaphoreBase.hpp</text>
</a>
</g>
</g>
<!-- Node1&#45;&gt;Node2 -->
<g id="edge1_Node000001_Node000002" class="edge">
<title>Node1&#45;&gt;Node2</title>
<g id="a_edge1_Node000001_Node000002"><a xlink:title=" ">
<path fill="none" stroke="#63b8ff" d="M99.12,-111.59C99.12,-105.01 99.12,-95.96 99.12,-87.73"/>
<polygon fill="#63b8ff" stroke="#63b8ff" points="102.63,-87.81 99.13,-77.81 95.63,-87.81 102.63,-87.81"/>
</a>
</g>
</g>
<!-- Node4 -->
<g id="Node000004" class="node">
<title>Node4</title>
<g id="a_Node000004"><a xlink:title=" ">
<polygon fill="#e0e0e0" stroke="#999999" points="48.25,-20 0,-20 0,0 48.25,0 48.25,-20"/>
<text xml:space="preserve" text-anchor="middle" x="24.12" y="-6.5" font-family="Helvetica,sans-Serif" font-size="10.00">cassert</text>
</a>
</g>
</g>
<!-- Node1&#45;&gt;Node4 -->
<g id="edge5_Node000001_Node000004" class="edge">
<title>Node1&#45;&gt;Node4</title>
<g id="a_edge5_Node000001_Node000004"><a xlink:title=" ">
<path fill="none" stroke="#63b8ff" d="M79.26,-111.63C65.28,-104.01 47.32,-91.9 37.12,-76 28.65,-62.79 25.52,-45.2 24.44,-31.65"/>
<polygon fill="#63b8ff" stroke="#63b8ff" points="27.94,-31.52 23.99,-21.69 20.94,-31.83 27.94,-31.52"/>
</a>
</g>
</g>
<!-- Node5 -->
<g id="Node000005" class="node">
<title>Node5</title>
<g id="a_Node000005"><a xlink:title=" ">
<polygon fill="#e0e0e0" stroke="#999999" points="196.75,-20 151.5,-20 151.5,0 196.75,0 196.75,-20"/>
<text xml:space="preserve" text-anchor="middle" x="174.12" y="-6.5" font-family="Helvetica,sans-Serif" font-size="10.00">cstdint</text>
</a>
</g>
</g>
<!-- Node1&#45;&gt;Node5 -->
<g id="edge6_Node000001_Node000005" class="edge">
<title>Node1&#45;&gt;Node5</title>
<g id="a_edge6_Node000001_Node000005"><a xlink:title=" ">
<path fill="none" stroke="#63b8ff" d="M118.99,-111.63C132.97,-104.01 150.93,-91.9 161.12,-76 169.6,-62.79 172.73,-45.2 173.81,-31.65"/>
<polygon fill="#63b8ff" stroke="#63b8ff" points="177.31,-31.83 174.26,-21.69 170.31,-31.52 177.31,-31.83"/>
</a>
</g>
</g>
<!-- Node3 -->
<g id="Node000003" class="node">
<title>Node3</title>
<g id="a_Node000003"><a xlink:title=" ">
<polygon fill="#e0e0e0" stroke="#999999" points="127.38,-20 70.88,-20 70.88,0 127.38,0 127.38,-20"/>
<text xml:space="preserve" text-anchor="middle" x="99.12" y="-6.5" font-family="Helvetica,sans-Serif" font-size="10.00">semphr.h</text>
</a>
</g>
</g>
<!-- Node2&#45;&gt;Node3 -->
<g id="edge2_Node000002_Node000003" class="edge">
<title>Node2&#45;&gt;Node3</title>
<g id="a_edge2_Node000002_Node000003"><a xlink:title=" ">
<path fill="none" stroke="#63b8ff" d="M99.12,-55.59C99.12,-49.01 99.12,-39.96 99.12,-31.73"/>
<polygon fill="#63b8ff" stroke="#63b8ff" points="102.63,-31.81 99.13,-21.81 95.63,-31.81 102.63,-31.81"/>
</a>
</g>
</g>
<!-- Node2&#45;&gt;Node4 -->
<g id="edge3_Node000002_Node000004" class="edge">
<title>Node2&#45;&gt;Node4</title>
<g id="a_edge3_Node000002_Node000004"><a xlink:title=" ">
<path fill="none" stroke="#63b8ff" d="M86.06,-55.59C75.16,-47.74 59.37,-36.38 46.47,-27.09"/>
<polygon fill="#63b8ff" stroke="#63b8ff" points="48.68,-24.37 38.52,-21.36 44.59,-30.05 48.68,-24.37"/>
</a>
</g>
</g>
<!-- Node2&#45;&gt;Node5 -->
<g id="edge4_Node000002_Node000005" class="edge">
<title>Node2&#45;&gt;Node5</title>
<g id="a_edge4_Node000002_Node000005"><a xlink:title=" ">
<path fill="none" stroke="#63b8ff" d="M112.19,-55.59C123.09,-47.74 138.88,-36.38 151.78,-27.09"/>
<polygon fill="#63b8ff" stroke="#63b8ff" points="153.66,-30.05 159.73,-21.36 149.57,-24.37 153.66,-30.05"/>
</a>
</g>
</g>
</g>
</svg>
