<?xml version="1.0" encoding="UTF-8" standalone="no"?>
<!DOCTYPE svg PUBLIC "-//W3C//DTD SVG 1.1//EN"
 "http://www.w3.org/Graphics/SVG/1.1/DTD/svg11.dtd">
<!-- Generated by graphviz version 13.1.0 (20250701.0955)
 -->
<!-- Title: DriverBase.hpp Pages: 1 -->
<svg width="347pt" height="140pt"
 viewBox="0.00 0.00 347.00 140.00" xmlns="http://www.w3.org/2000/svg" xmlns:xlink="http://www.w3.org/1999/xlink">
<g id="graph0" class="graph" transform="scale(1 1) rotate(0) translate(4 136)">
<title>DriverBase.hpp</title>
<!-- Node1 -->
<g id="Node000001" class="node">
<title>Node1</title>
<g id="a_Node000001"><a xlink:title="Base class for I2C EEPROM drivers.">
<polygon fill="#999999" stroke="#666666" points="191.62,-132 108.12,-132 108.12,-112 191.62,-112 191.62,-132"/>
<text xml:space="preserve" text-anchor="middle" x="149.88" y="-118.5" font-family="Helvetica,sans-Serif" font-size="10.00">DriverBase.hpp</text>
</a>
</g>
</g>
<!-- Node2 -->
<g id="Node000002" class="node">
<title>Node2</title>
<g id="a_Node000002"><a xlink:title=" ">
<polygon fill="#e0e0e0" stroke="#999999" points="55.75,-76 0,-76 0,-56 55.75,-56 55.75,-76"/>
<text xml:space="preserve" text-anchor="middle" x="27.88" y="-62.5" font-family="Helvetica,sans-Serif" font-size="10.00">algorithm</text>
</a>
</g>
</g>
<!-- Node1&#45;&gt;Node2 -->
<g id="edge1_Node000001_Node000002" class="edge">
<title>Node1&#45;&gt;Node2</title>
<g id="a_edge1_Node000001_Node000002"><a xlink:title=" ">
<path fill="none" stroke="#63b8ff" d="M128.62,-111.59C109.59,-103.17 81.4,-90.69 59.67,-81.07"/>
<polygon fill="#63b8ff" stroke="#63b8ff" points="61.24,-77.94 50.68,-77.09 58.4,-84.34 61.24,-77.94"/>
</a>
</g>
</g>
<!-- Node3 -->
<g id="Node000003" class="node">
<title>Node3</title>
<g id="a_Node000003"><a xlink:title=" ">
<polygon fill="#e0e0e0" stroke="#999999" points="122,-76 73.75,-76 73.75,-56 122,-56 122,-76"/>
<text xml:space="preserve" text-anchor="middle" x="97.88" y="-62.5" font-family="Helvetica,sans-Serif" font-size="10.00">cassert</text>
</a>
</g>
</g>
<!-- Node1&#45;&gt;Node3 -->
<g id="edge2_Node000001_Node000003" class="edge">
<title>Node1&#45;&gt;Node3</title>
<g id="a_edge2_Node000001_Node000003"><a xlink:title=" ">
<path fill="none" stroke="#63b8ff" d="M140.82,-111.59C133.66,-104.16 123.47,-93.58 114.81,-84.58"/>
<polygon fill="#63b8ff" stroke="#63b8ff" points="117.34,-82.16 107.88,-77.39 112.29,-87.02 117.34,-82.16"/>
</a>
</g>
</g>
<!-- Node4 -->
<g id="Node000004" class="node">
<title>Node4</title>
<g id="a_Node000004"><a xlink:title=" ">
<polygon fill="#e0e0e0" stroke="#999999" points="234,-20 185.75,-20 185.75,0 234,0 234,-20"/>
<text xml:space="preserve" text-anchor="middle" x="209.88" y="-6.5" font-family="Helvetica,sans-Serif" font-size="10.00">cstddef</text>
</a>
</g>
</g>
<!-- Node1&#45;&gt;Node4 -->
<g id="edge3_Node000001_Node000004" class="edge">
<title>Node1&#45;&gt;Node4</title>
<g id="a_edge3_Node000001_Node000004"><a xlink:title=" ">
<path fill="none" stroke="#63b8ff" d="M151.24,-111.66C153.45,-98.54 158.63,-74.25 168.88,-56 174.59,-45.82 183,-36.05 190.73,-28.23"/>
<polygon fill="#63b8ff" stroke="#63b8ff" points="193.09,-30.81 197.88,-21.36 188.24,-25.76 193.09,-30.81"/>
</a>
</g>
</g>
<!-- Node5 -->
<g id="Node000005" class="node">
<title>Node5</title>
<g id="a_Node000005"><a xlink:title=" ">
<polygon fill="#e0e0e0" stroke="#999999" points="315.5,-20 270.25,-20 270.25,0 315.5,0 315.5,-20"/>
<text xml:space="preserve" text-anchor="middle" x="292.88" y="-6.5" font-family="Helvetica,sans-Serif" font-size="10.00">cstdint</text>
</a>
</g>
</g>
<!-- Node1&#45;&gt;Node5 -->
<g id="edge4_Node000001_Node000005" class="edge">
<title>Node1&#45;&gt;Node5</title>
<g id="a_edge4_Node000001_Node000005"><a xlink:title=" ">
<path fill="none" stroke="#63b8ff" d="M191.74,-116.76C240.73,-110.83 317.41,-98.22 334.88,-76 347.16,-60.37 331.21,-41.09 315.57,-27.61"/>
<polygon fill="#63b8ff" stroke="#63b8ff" points="317.77,-24.89 307.78,-21.36 313.39,-30.35 317.77,-24.89"/>
</a>
</g>
</g>
<!-- Node6 -->
<g id="Node000006" class="node">
<title>Node6</title>
<g id="a_Node000006"><a xlink:href="../../d9/d10/_b_s_p_2_interface_2_i2_c_port_8hpp.html" target="_top" xlink:title="I2C port interface for board support package.">
<polygon fill="white" stroke="#666666" points="326.25,-76 177.5,-76 177.5,-56 326.25,-56 326.25,-76"/>
<text xml:space="preserve" text-anchor="middle" x="251.88" y="-62.5" font-family="Helvetica,sans-Serif" font-size="10.00">Lib/BSP/Interface/I2CPort.hpp</text>
</a>
</g>
</g>
<!-- Node1&#45;&gt;Node6 -->
<g id="edge5_Node000001_Node000006" class="edge">
<title>Node1&#45;&gt;Node6</title>
<g id="a_edge5_Node000001_Node000006"><a xlink:title=" ">
<path fill="none" stroke="#63b8ff" d="M167.64,-111.59C183.2,-103.36 206.06,-91.26 224.04,-81.74"/>
<polygon fill="#63b8ff" stroke="#63b8ff" points="225.43,-84.96 232.63,-77.19 222.16,-78.77 225.43,-84.96"/>
</a>
</g>
</g>
<!-- Node6&#45;&gt;Node4 -->
<g id="edge6_Node000006_Node000004" class="edge">
<title>Node6&#45;&gt;Node4</title>
<g id="a_edge6_Node000006_Node000004"><a xlink:title=" ">
<path fill="none" stroke="#63b8ff" d="M244.56,-55.59C238.9,-48.32 230.89,-38.02 223.99,-29.15"/>
<polygon fill="#63b8ff" stroke="#63b8ff" points="226.94,-27.24 218.04,-21.49 221.41,-31.54 226.94,-27.24"/>
</a>
</g>
</g>
<!-- Node6&#45;&gt;Node5 -->
<g id="edge7_Node000006_Node000005" class="edge">
<title>Node6&#45;&gt;Node5</title>
<g id="a_edge7_Node000006_Node000005"><a xlink:title=" ">
<path fill="none" stroke="#63b8ff" d="M259.02,-55.59C264.48,-48.39 272.2,-38.23 278.88,-29.43"/>
<polygon fill="#63b8ff" stroke="#63b8ff" points="281.64,-31.58 284.9,-21.5 276.07,-27.35 281.64,-31.58"/>
</a>
</g>
</g>
</g>
</svg>
