<?xml version="1.0" encoding="UTF-8" standalone="no"?>
<!DOCTYPE svg PUBLIC "-//W3C//DTD SVG 1.1//EN"
 "http://www.w3.org/Graphics/SVG/1.1/DTD/svg11.dtd">
<!-- Generated by graphviz version 13.1.0 (20250701.0955)
 -->
<!-- Title: ST7789.hpp Pages: 1 -->
<svg width="1812pt" height="364pt"
 viewBox="0.00 0.00 1812.00 364.00" xmlns="http://www.w3.org/2000/svg" xmlns:xlink="http://www.w3.org/1999/xlink">
<g id="graph0" class="graph" transform="scale(1 1) rotate(0) translate(4 360)">
<title>ST7789.hpp</title>
<!-- Node1 -->
<g id="Node000001" class="node">
<title>Node1</title>
<g id="a_Node000001"><a xlink:title="ST7789 display driver alias header.">
<polygon fill="#999999" stroke="#666666" points="563.75,-356 495.25,-356 495.25,-336 563.75,-336 563.75,-356"/>
<text xml:space="preserve" text-anchor="middle" x="529.5" y="-342.5" font-family="Helvetica,sans-Serif" font-size="10.00">ST7789.hpp</text>
</a>
</g>
</g>
<!-- Node2 -->
<g id="Node000002" class="node">
<title>Node2</title>
<g id="a_Node000002"><a xlink:href="../../d9/d02/_display_2_components_2_s_t7789_2_driver_8hpp.html" target="_top" xlink:title="ST7789 display controller driver.">
<polygon fill="white" stroke="#666666" points="578.38,-300 480.62,-300 480.62,-280 578.38,-280 578.38,-300"/>
<text xml:space="preserve" text-anchor="middle" x="529.5" y="-286.5" font-family="Helvetica,sans-Serif" font-size="10.00">ST7789/Driver.hpp</text>
</a>
</g>
</g>
<!-- Node1&#45;&gt;Node2 -->
<g id="edge1_Node000001_Node000002" class="edge">
<title>Node1&#45;&gt;Node2</title>
<g id="a_edge1_Node000001_Node000002"><a xlink:title=" ">
<path fill="none" stroke="#63b8ff" d="M529.5,-335.59C529.5,-329.01 529.5,-319.96 529.5,-311.73"/>
<polygon fill="#63b8ff" stroke="#63b8ff" points="533,-311.81 529.5,-301.81 526,-311.81 533,-311.81"/>
</a>
</g>
</g>
<!-- Node3 -->
<g id="Node000003" class="node">
<title>Node3</title>
<g id="a_Node000003"><a xlink:title=" ">
<polygon fill="#e0e0e0" stroke="#999999" points="199,-244 0,-244 0,-224 199,-224 199,-244"/>
<text xml:space="preserve" text-anchor="middle" x="99.5" y="-230.5" font-family="Helvetica,sans-Serif" font-size="10.00">Lib/BSP/Display/common/DriverBase.hpp</text>
</a>
</g>
</g>
<!-- Node2&#45;&gt;Node3 -->
<g id="edge2_Node000002_Node000003" class="edge">
<title>Node2&#45;&gt;Node3</title>
<g id="a_edge2_Node000002_Node000003"><a xlink:title=" ">
<path fill="none" stroke="#63b8ff" d="M480.17,-282.81C408.53,-273.81 274.61,-256.99 186.25,-245.89"/>
<polygon fill="#63b8ff" stroke="#63b8ff" points="186.76,-242.43 176.4,-244.66 185.89,-249.38 186.76,-242.43"/>
</a>
</g>
</g>
<!-- Node4 -->
<g id="Node000004" class="node">
<title>Node4</title>
<g id="a_Node000004"><a xlink:title=" ">
<polygon fill="#e0e0e0" stroke="#999999" points="407.5,-244 217.5,-244 217.5,-224 407.5,-224 407.5,-244"/>
<text xml:space="preserve" text-anchor="middle" x="312.5" y="-230.5" font-family="Helvetica,sans-Serif" font-size="10.00">Lib/BSP/Display/common/Template.hpp</text>
</a>
</g>
</g>
<!-- Node2&#45;&gt;Node4 -->
<g id="edge3_Node000002_Node000004" class="edge">
<title>Node2&#45;&gt;Node4</title>
<g id="a_edge3_Node000002_Node000004"><a xlink:title=" ">
<path fill="none" stroke="#63b8ff" d="M491.7,-279.59C455.59,-270.61 400.99,-257.02 361.54,-247.2"/>
<polygon fill="#63b8ff" stroke="#63b8ff" points="362.61,-243.86 352.06,-244.84 360.92,-250.66 362.61,-243.86"/>
</a>
</g>
</g>
<!-- Node5 -->
<g id="Node000005" class="node">
<title>Node5</title>
<g id="a_Node000005"><a xlink:href="../../d1/d87/_display_2_components_2_s_t7789_2_registers_8hpp.html" target="_top" xlink:title="ST7789 display controller register definitions.">
<polygon fill="white" stroke="#666666" points="501.88,-244 425.12,-244 425.12,-224 501.88,-224 501.88,-244"/>
<text xml:space="preserve" text-anchor="middle" x="463.5" y="-230.5" font-family="Helvetica,sans-Serif" font-size="10.00">Registers.hpp</text>
</a>
</g>
</g>
<!-- Node2&#45;&gt;Node5 -->
<g id="edge4_Node000002_Node000005" class="edge">
<title>Node2&#45;&gt;Node5</title>
<g id="a_edge4_Node000002_Node000005"><a xlink:title=" ">
<path fill="none" stroke="#63b8ff" d="M518,-279.59C508.54,-271.85 494.9,-260.69 483.63,-251.47"/>
<polygon fill="#63b8ff" stroke="#63b8ff" points="485.99,-248.88 476.04,-245.26 481.56,-254.3 485.99,-248.88"/>
</a>
</g>
</g>
<!-- Node6 -->
<g id="Node000006" class="node">
<title>Node6</title>
<g id="a_Node000006"><a xlink:href="../../db/dd0/_g_p_i_o_8hpp.html" target="_top" xlink:title="GPIO HAL interface header.">
<polygon fill="white" stroke="#666666" points="975.38,-244 877.62,-244 877.62,-224 975.38,-224 975.38,-244"/>
<text xml:space="preserve" text-anchor="middle" x="926.5" y="-230.5" font-family="Helvetica,sans-Serif" font-size="10.00">Lib/HAL/GPIO.hpp</text>
</a>
</g>
</g>
<!-- Node2&#45;&gt;Node6 -->
<g id="edge5_Node000002_Node000006" class="edge">
<title>Node2&#45;&gt;Node6</title>
<g id="a_edge5_Node000002_Node000006"><a xlink:title=" ">
<path fill="none" stroke="#63b8ff" d="M578.58,-282.32C651.24,-272.44 787.32,-253.93 866.04,-243.22"/>
<polygon fill="#63b8ff" stroke="#63b8ff" points="866.29,-246.72 875.72,-241.91 865.34,-239.79 866.29,-246.72"/>
</a>
</g>
</g>
<!-- Node7 -->
<g id="Node000007" class="node">
<title>Node7</title>
<g id="a_Node000007"><a xlink:title=" ">
<polygon fill="#e0e0e0" stroke="#999999" points="1174.62,-20 1126.38,-20 1126.38,0 1174.62,0 1174.62,-20"/>
<text xml:space="preserve" text-anchor="middle" x="1150.5" y="-6.5" font-family="Helvetica,sans-Serif" font-size="10.00">cassert</text>
</a>
</g>
</g>
<!-- Node2&#45;&gt;Node7 -->
<g id="edge46_Node000002_Node000007" class="edge">
<title>Node2&#45;&gt;Node7</title>
<g id="a_edge46_Node000002_Node000007"><a xlink:title=" ">
<path fill="none" stroke="#63b8ff" d="M578.85,-289.24C790.71,-289.63 1612.5,-284.36 1612.5,-179 1612.5,-179 1612.5,-179 1612.5,-121 1612.5,-82.58 1589.57,-73.77 1555.5,-56 1491.62,-22.68 1273.04,-13.9 1186.34,-11.7"/>
<polygon fill="#63b8ff" stroke="#63b8ff" points="1186.61,-8.2 1176.53,-11.46 1186.44,-15.2 1186.61,-8.2"/>
</a>
</g>
</g>
<!-- Node9 -->
<g id="Node000009" class="node">
<title>Node9</title>
<g id="a_Node000009"><a xlink:title=" ">
<polygon fill="#e0e0e0" stroke="#999999" points="776.12,-20 730.88,-20 730.88,0 776.12,0 776.12,-20"/>
<text xml:space="preserve" text-anchor="middle" x="753.5" y="-6.5" font-family="Helvetica,sans-Serif" font-size="10.00">cstdint</text>
</a>
</g>
</g>
<!-- Node2&#45;&gt;Node9 -->
<g id="edge47_Node000002_Node000009" class="edge">
<title>Node2&#45;&gt;Node9</title>
<g id="a_edge47_Node000002_Node000009"><a xlink:title=" ">
<path fill="none" stroke="#63b8ff" d="M529.5,-279.58C529.5,-260.57 529.5,-216.24 529.5,-179 529.5,-179 529.5,-179 529.5,-121 529.5,-37.36 656.89,-17.31 719.54,-12.51"/>
<polygon fill="#63b8ff" stroke="#63b8ff" points="719.53,-16.02 729.28,-11.86 719.07,-9.03 719.53,-16.02"/>
</a>
</g>
</g>
<!-- Node23 -->
<g id="Node000023" class="node">
<title>Node23</title>
<g id="a_Node000023"><a xlink:href="../../dd/d73/_s_p_i_8hpp.html" target="_top" xlink:title="SPI interface header file.">
<polygon fill="white" stroke="#666666" points="1730.25,-132 1640.75,-132 1640.75,-112 1730.25,-112 1730.25,-132"/>
<text xml:space="preserve" text-anchor="middle" x="1685.5" y="-118.5" font-family="Helvetica,sans-Serif" font-size="10.00">Lib/HAL/SPI.hpp</text>
</a>
</g>
</g>
<!-- Node2&#45;&gt;Node23 -->
<g id="edge41_Node000002_Node000023" class="edge">
<title>Node2&#45;&gt;Node23</title>
<g id="a_edge41_Node000002_Node000023"><a xlink:title=" ">
<path fill="none" stroke="#63b8ff" d="M578.66,-288.38C786.21,-285.59 1582.13,-273.01 1626.5,-244 1661.27,-221.26 1676.2,-171.76 1682.08,-143.62"/>
<polygon fill="#63b8ff" stroke="#63b8ff" points="1685.51,-144.33 1683.9,-133.86 1678.63,-143.05 1685.51,-144.33"/>
</a>
</g>
</g>
<!-- Node6&#45;&gt;Node7 -->
<g id="edge6_Node000006_Node000007" class="edge">
<title>Node6&#45;&gt;Node7</title>
<g id="a_edge6_Node000006_Node000007"><a xlink:title=" ">
<path fill="none" stroke="#63b8ff" d="M934.14,-223.71C941.22,-214.86 951.78,-200.99 959.5,-188 992.6,-132.27 973.36,-99.4 1021.5,-56 1047.59,-32.48 1086.67,-21.11 1114.97,-15.71"/>
<polygon fill="#63b8ff" stroke="#63b8ff" points="1115.25,-19.21 1124.5,-14.06 1114.05,-12.32 1115.25,-19.21"/>
</a>
</g>
</g>
<!-- Node8 -->
<g id="Node000008" class="node">
<title>Node8</title>
<g id="a_Node000008"><a xlink:title=" ">
<polygon fill="#e0e0e0" stroke="#999999" points="1546.62,-76 1498.38,-76 1498.38,-56 1546.62,-56 1546.62,-76"/>
<text xml:space="preserve" text-anchor="middle" x="1522.5" y="-62.5" font-family="Helvetica,sans-Serif" font-size="10.00">cstddef</text>
</a>
</g>
</g>
<!-- Node6&#45;&gt;Node8 -->
<g id="edge7_Node000006_Node000008" class="edge">
<title>Node6&#45;&gt;Node8</title>
<g id="a_edge7_Node000006_Node000008"><a xlink:title=" ">
<path fill="none" stroke="#63b8ff" d="M975.77,-226.75C1061.35,-214.89 1242.15,-185.42 1386.5,-132 1425.5,-117.57 1468.48,-96.01 1495.48,-81.73"/>
<polygon fill="#63b8ff" stroke="#63b8ff" points="1496.83,-84.98 1504,-77.18 1493.53,-78.8 1496.83,-84.98"/>
</a>
</g>
</g>
<!-- Node6&#45;&gt;Node9 -->
<g id="edge8_Node000006_Node000009" class="edge">
<title>Node6&#45;&gt;Node9</title>
<g id="a_edge8_Node000006_Node000009"><a xlink:title=" ">
<path fill="none" stroke="#63b8ff" d="M877.33,-228.32C798.5,-217.67 649.24,-183.48 615.5,-76 601.38,-31 673.68,-17.15 719.01,-12.89"/>
<polygon fill="#63b8ff" stroke="#63b8ff" points="719.24,-16.39 728.92,-12.09 718.67,-9.41 719.24,-16.39"/>
</a>
</g>
</g>
<!-- Node10 -->
<g id="Node000010" class="node">
<title>Node10</title>
<g id="a_Node000010"><a xlink:href="../../d4/dc2/_e_x_t_i_base_8hpp.html" target="_top" xlink:title="Base class for GPIO external interrupt (EXTI) management.">
<polygon fill="white" stroke="#666666" points="1169.12,-188 1039.88,-188 1039.88,-168 1169.12,-168 1169.12,-188"/>
<text xml:space="preserve" text-anchor="middle" x="1104.5" y="-174.5" font-family="Helvetica,sans-Serif" font-size="10.00">core/GPIO/EXTIBase.hpp</text>
</a>
</g>
</g>
<!-- Node6&#45;&gt;Node10 -->
<g id="edge9_Node000006_Node000010" class="edge">
<title>Node6&#45;&gt;Node10</title>
<g id="a_edge9_Node000006_Node000010"><a xlink:title=" ">
<path fill="none" stroke="#63b8ff" d="M957.51,-223.59C986.55,-214.78 1030.2,-201.54 1062.39,-191.78"/>
<polygon fill="#63b8ff" stroke="#63b8ff" points="1063.25,-195.17 1071.8,-188.92 1061.22,-188.47 1063.25,-195.17"/>
</a>
</g>
</g>
<!-- Node12 -->
<g id="Node000012" class="node">
<title>Node12</title>
<g id="a_Node000012"><a xlink:href="../../d0/d4b/_input_8hpp.html" target="_top" xlink:title="GPIO input pin abstraction and management.">
<polygon fill="white" stroke="#666666" points="936.75,-132 880.25,-132 880.25,-112 936.75,-112 936.75,-132"/>
<text xml:space="preserve" text-anchor="middle" x="908.5" y="-118.5" font-family="Helvetica,sans-Serif" font-size="10.00">Input.hpp</text>
</a>
</g>
</g>
<!-- Node6&#45;&gt;Node12 -->
<g id="edge35_Node000006_Node000012" class="edge">
<title>Node6&#45;&gt;Node12</title>
<g id="a_edge35_Node000006_Node000012"><a xlink:title=" ">
<path fill="none" stroke="#63b8ff" d="M924.97,-223.62C922.08,-206.01 915.8,-167.59 911.88,-143.65"/>
<polygon fill="#63b8ff" stroke="#63b8ff" points="915.34,-143.15 910.28,-133.85 908.44,-144.28 915.34,-143.15"/>
</a>
</g>
</g>
<!-- Node14 -->
<g id="Node000014" class="node">
<title>Node14</title>
<g id="a_Node000014"><a xlink:href="../../dd/da8/_g_p_i_o_2_handle_8hpp.html" target="_top" xlink:title="GPIO pin handle abstraction.">
<polygon fill="white" stroke="#666666" points="699.25,-76 633.75,-76 633.75,-56 699.25,-56 699.25,-76"/>
<text xml:space="preserve" text-anchor="middle" x="666.5" y="-62.5" font-family="Helvetica,sans-Serif" font-size="10.00">Handle.hpp</text>
</a>
</g>
</g>
<!-- Node6&#45;&gt;Node14 -->
<g id="edge34_Node000006_Node000014" class="edge">
<title>Node6&#45;&gt;Node14</title>
<g id="a_edge34_Node000006_Node000014"><a xlink:title=" ">
<path fill="none" stroke="#63b8ff" d="M877.42,-225.42C846.41,-218.99 806.49,-207.58 775.5,-188 732.67,-160.93 696.39,-112.46 678.48,-85.82"/>
<polygon fill="#63b8ff" stroke="#63b8ff" points="681.58,-84.18 673.17,-77.73 675.73,-88.02 681.58,-84.18"/>
</a>
</g>
</g>
<!-- Node16 -->
<g id="Node000016" class="node">
<title>Node16</title>
<g id="a_Node000016"><a xlink:href="../../d2/d71/_h_a_l_2core_2_g_p_i_o_2_port_8hpp.html" target="_top" xlink:title="Port abstraction for GPIO operations.">
<polygon fill="white" stroke="#666666" points="936.88,-76 884.12,-76 884.12,-56 936.88,-56 936.88,-76"/>
<text xml:space="preserve" text-anchor="middle" x="910.5" y="-62.5" font-family="Helvetica,sans-Serif" font-size="10.00">Port.hpp</text>
</a>
</g>
</g>
<!-- Node6&#45;&gt;Node16 -->
<g id="edge40_Node000006_Node000016" class="edge">
<title>Node6&#45;&gt;Node16</title>
<g id="a_edge40_Node000006_Node000016"><a xlink:title=" ">
<path fill="none" stroke="#63b8ff" d="M930.95,-223.63C940.13,-202.94 959.23,-152.03 945.5,-112 942.03,-101.88 935.25,-92.29 928.58,-84.58"/>
<polygon fill="#63b8ff" stroke="#63b8ff" points="931.15,-82.2 921.75,-77.3 926.04,-86.99 931.15,-82.2"/>
</a>
</g>
</g>
<!-- Node22 -->
<g id="Node000022" class="node">
<title>Node22</title>
<g id="a_Node000022"><a xlink:href="../../d2/dd1/_output_8hpp.html" target="_top" xlink:title="GPIO output pin abstraction and management.">
<polygon fill="white" stroke="#666666" points="898.25,-188 784.75,-188 784.75,-168 898.25,-168 898.25,-188"/>
<text xml:space="preserve" text-anchor="middle" x="841.5" y="-174.5" font-family="Helvetica,sans-Serif" font-size="10.00">core/GPIO/Output.hpp</text>
</a>
</g>
</g>
<!-- Node6&#45;&gt;Node22 -->
<g id="edge36_Node000006_Node000022" class="edge">
<title>Node6&#45;&gt;Node22</title>
<g id="a_edge36_Node000006_Node000022"><a xlink:title=" ">
<path fill="none" stroke="#63b8ff" d="M911.69,-223.59C899.1,-215.59 880.75,-203.93 865.97,-194.54"/>
<polygon fill="#63b8ff" stroke="#63b8ff" points="868.02,-191.7 857.7,-189.29 864.26,-197.61 868.02,-191.7"/>
</a>
</g>
</g>
<!-- Node10&#45;&gt;Node7 -->
<g id="edge10_Node000010_Node000007" class="edge">
<title>Node10&#45;&gt;Node7</title>
<g id="a_edge10_Node000010_Node000007"><a xlink:title=" ">
<path fill="none" stroke="#63b8ff" d="M1169.47,-175.88C1222.46,-172.57 1297.86,-162.28 1356.5,-132 1388.06,-115.71 1399.76,-108.75 1413.5,-76 1416.94,-67.8 1419.23,-62.79 1413.5,-56 1384.82,-22 1251.16,-13.69 1186.17,-11.66"/>
<polygon fill="#63b8ff" stroke="#63b8ff" points="1186.48,-8.16 1176.39,-11.39 1186.29,-15.16 1186.48,-8.16"/>
</a>
</g>
</g>
<!-- Node11 -->
<g id="Node000011" class="node">
<title>Node11</title>
<g id="a_Node000011"><a xlink:title=" ">
<polygon fill="#e0e0e0" stroke="#999999" points="1133.5,-132 1075.5,-132 1075.5,-112 1133.5,-112 1133.5,-132"/>
<text xml:space="preserve" text-anchor="middle" x="1104.5" y="-118.5" font-family="Helvetica,sans-Serif" font-size="10.00">functional</text>
</a>
</g>
</g>
<!-- Node10&#45;&gt;Node11 -->
<g id="edge11_Node000010_Node000011" class="edge">
<title>Node10&#45;&gt;Node11</title>
<g id="a_edge11_Node000010_Node000011"><a xlink:title=" ">
<path fill="none" stroke="#63b8ff" d="M1104.5,-167.59C1104.5,-161.01 1104.5,-151.96 1104.5,-143.73"/>
<polygon fill="#63b8ff" stroke="#63b8ff" points="1108,-143.81 1104.5,-133.81 1101,-143.81 1108,-143.81"/>
</a>
</g>
</g>
<!-- Node10&#45;&gt;Node12 -->
<g id="edge12_Node000010_Node000012" class="edge">
<title>Node10&#45;&gt;Node12</title>
<g id="a_edge12_Node000010_Node000012"><a xlink:title=" ">
<path fill="none" stroke="#63b8ff" d="M1070.36,-167.59C1036.31,-158.21 984.06,-143.82 948.18,-133.93"/>
<polygon fill="#63b8ff" stroke="#63b8ff" points="949.19,-130.58 938.62,-131.3 947.33,-137.33 949.19,-130.58"/>
</a>
</g>
</g>
<!-- Node17 -->
<g id="Node000017" class="node">
<title>Node17</title>
<g id="a_Node000017"><a xlink:href="../../dc/d39/core_2_device_manager_base_8hpp.html" target="_top" xlink:title="DeviceManagerBase class template.">
<polygon fill="white" stroke="#666666" points="1347.25,-132 1161.75,-132 1161.75,-112 1347.25,-112 1347.25,-132"/>
<text xml:space="preserve" text-anchor="middle" x="1254.5" y="-118.5" font-family="Helvetica,sans-Serif" font-size="10.00">Lib/HAL/core/DeviceManagerBase.hpp</text>
</a>
</g>
</g>
<!-- Node10&#45;&gt;Node17 -->
<g id="edge23_Node000010_Node000017" class="edge">
<title>Node10&#45;&gt;Node17</title>
<g id="a_edge23_Node000010_Node000017"><a xlink:title=" ">
<path fill="none" stroke="#63b8ff" d="M1130.63,-167.59C1154.68,-158.94 1190.6,-146 1217.58,-136.29"/>
<polygon fill="#63b8ff" stroke="#63b8ff" points="1218.52,-139.67 1226.74,-132.99 1216.15,-133.09 1218.52,-139.67"/>
</a>
</g>
</g>
<!-- Node12&#45;&gt;Node7 -->
<g id="edge13_Node000012_Node000007" class="edge">
<title>Node12&#45;&gt;Node7</title>
<g id="a_edge13_Node000012_Node000007"><a xlink:title=" ">
<path fill="none" stroke="#63b8ff" d="M917.43,-111.59C931.33,-97.49 959.56,-70.94 988.5,-56 1029.22,-34.98 1080.92,-22.81 1114.82,-16.55"/>
<polygon fill="#63b8ff" stroke="#63b8ff" points="1115.29,-20.02 1124.53,-14.84 1114.07,-13.13 1115.29,-20.02"/>
</a>
</g>
</g>
<!-- Node12&#45;&gt;Node9 -->
<g id="edge14_Node000012_Node000009" class="edge">
<title>Node12&#45;&gt;Node9</title>
<g id="a_edge14_Node000012_Node000009"><a xlink:title=" ">
<path fill="none" stroke="#63b8ff" d="M895.28,-111.62C868.75,-92.79 808.71,-50.18 775.92,-26.91"/>
<polygon fill="#63b8ff" stroke="#63b8ff" points="778.1,-24.16 767.92,-21.23 774.05,-29.87 778.1,-24.16"/>
</a>
</g>
</g>
<!-- Node13 -->
<g id="Node000013" class="node">
<title>Node13</title>
<g id="a_Node000013"><a xlink:title=" ">
<polygon fill="#e0e0e0" stroke="#999999" points="1070.12,-76 1030.88,-76 1030.88,-56 1070.12,-56 1070.12,-76"/>
<text xml:space="preserve" text-anchor="middle" x="1050.5" y="-62.5" font-family="Helvetica,sans-Serif" font-size="10.00">utility</text>
</a>
</g>
</g>
<!-- Node12&#45;&gt;Node13 -->
<g id="edge15_Node000012_Node000013" class="edge">
<title>Node12&#45;&gt;Node13</title>
<g id="a_edge15_Node000012_Node000013"><a xlink:title=" ">
<path fill="none" stroke="#63b8ff" d="M933.23,-111.59C957.32,-102.43 993.99,-88.49 1019.9,-78.63"/>
<polygon fill="#63b8ff" stroke="#63b8ff" points="1021.11,-81.92 1029.21,-75.1 1018.62,-75.38 1021.11,-81.92"/>
</a>
</g>
</g>
<!-- Node12&#45;&gt;Node14 -->
<g id="edge16_Node000012_Node000014" class="edge">
<title>Node12&#45;&gt;Node14</title>
<g id="a_edge16_Node000012_Node000014"><a xlink:title=" ">
<path fill="none" stroke="#63b8ff" d="M879.79,-114.59C837.86,-105.24 759.52,-87.76 710.35,-76.78"/>
<polygon fill="#63b8ff" stroke="#63b8ff" points="711.42,-73.44 700.9,-74.68 709.89,-80.27 711.42,-73.44"/>
</a>
</g>
</g>
<!-- Node15 -->
<g id="Node000015" class="node">
<title>Node15</title>
<g id="a_Node000015"><a xlink:href="../../da/d6e/_pin_mode_8hpp.html" target="_top" xlink:title="GPIO pin configuration utilities and abstractions.">
<polygon fill="white" stroke="#666666" points="790,-76 717,-76 717,-56 790,-56 790,-76"/>
<text xml:space="preserve" text-anchor="middle" x="753.5" y="-62.5" font-family="Helvetica,sans-Serif" font-size="10.00">PinMode.hpp</text>
</a>
</g>
</g>
<!-- Node12&#45;&gt;Node15 -->
<g id="edge18_Node000012_Node000015" class="edge">
<title>Node12&#45;&gt;Node15</title>
<g id="a_edge18_Node000012_Node000015"><a xlink:title=" ">
<path fill="none" stroke="#63b8ff" d="M881.5,-111.59C856.54,-102.9 819.2,-89.89 791.28,-80.16"/>
<polygon fill="#63b8ff" stroke="#63b8ff" points="792.73,-76.96 782.14,-76.98 790.43,-83.57 792.73,-76.96"/>
</a>
</g>
</g>
<!-- Node12&#45;&gt;Node16 -->
<g id="edge20_Node000012_Node000016" class="edge">
<title>Node12&#45;&gt;Node16</title>
<g id="a_edge20_Node000012_Node000016"><a xlink:title=" ">
<path fill="none" stroke="#63b8ff" d="M908.85,-111.59C909.09,-105.01 909.43,-95.96 909.73,-87.73"/>
<polygon fill="#63b8ff" stroke="#63b8ff" points="913.23,-87.93 910.1,-77.81 906.23,-87.67 913.23,-87.93"/>
</a>
</g>
</g>
<!-- Node14&#45;&gt;Node9 -->
<g id="edge17_Node000014_Node000009" class="edge">
<title>Node14&#45;&gt;Node9</title>
<g id="a_edge17_Node000014_Node000009"><a xlink:title=" ">
<path fill="none" stroke="#63b8ff" d="M681.65,-55.59C694.55,-47.59 713.33,-35.93 728.46,-26.54"/>
<polygon fill="#63b8ff" stroke="#63b8ff" points="730.29,-29.53 736.94,-21.28 726.6,-23.58 730.29,-29.53"/>
</a>
</g>
</g>
<!-- Node15&#45;&gt;Node9 -->
<g id="edge19_Node000015_Node000009" class="edge">
<title>Node15&#45;&gt;Node9</title>
<g id="a_edge19_Node000015_Node000009"><a xlink:title=" ">
<path fill="none" stroke="#63b8ff" d="M753.5,-55.59C753.5,-49.01 753.5,-39.96 753.5,-31.73"/>
<polygon fill="#63b8ff" stroke="#63b8ff" points="757,-31.81 753.5,-21.81 750,-31.81 757,-31.81"/>
</a>
</g>
</g>
<!-- Node16&#45;&gt;Node7 -->
<g id="edge21_Node000016_Node000007" class="edge">
<title>Node16&#45;&gt;Node7</title>
<g id="a_edge21_Node000016_Node000007"><a xlink:title=" ">
<path fill="none" stroke="#63b8ff" d="M937.1,-59.01C980.4,-49.27 1066.14,-29.98 1114.73,-19.05"/>
<polygon fill="#63b8ff" stroke="#63b8ff" points="1115.48,-22.47 1124.47,-16.86 1113.94,-15.64 1115.48,-22.47"/>
</a>
</g>
</g>
<!-- Node16&#45;&gt;Node9 -->
<g id="edge22_Node000016_Node000009" class="edge">
<title>Node16&#45;&gt;Node9</title>
<g id="a_edge22_Node000016_Node000009"><a xlink:title=" ">
<path fill="none" stroke="#63b8ff" d="M883.87,-55.84C857.14,-46.65 815.91,-32.46 786.98,-22.52"/>
<polygon fill="#63b8ff" stroke="#63b8ff" points="788.21,-19.24 777.61,-19.29 785.93,-25.86 788.21,-19.24"/>
</a>
</g>
</g>
<!-- Node17&#45;&gt;Node7 -->
<g id="edge25_Node000017_Node000007" class="edge">
<title>Node17&#45;&gt;Node7</title>
<g id="a_edge25_Node000017_Node000007"><a xlink:title=" ">
<path fill="none" stroke="#63b8ff" d="M1266.77,-111.55C1282.18,-98.53 1305.06,-74.56 1291.5,-56 1267.57,-23.24 1219.52,-13.77 1186.21,-11.33"/>
<polygon fill="#63b8ff" stroke="#63b8ff" points="1186.79,-7.85 1176.62,-10.81 1186.42,-14.84 1186.79,-7.85"/>
</a>
</g>
</g>
<!-- Node17&#45;&gt;Node8 -->
<g id="edge26_Node000017_Node000008" class="edge">
<title>Node17&#45;&gt;Node8</title>
<g id="a_edge26_Node000017_Node000008"><a xlink:title=" ">
<path fill="none" stroke="#63b8ff" d="M1305.77,-111.57C1352.46,-102.83 1423.26,-89.24 1484.5,-76 1485.32,-75.82 1486.15,-75.64 1486.99,-75.46"/>
<polygon fill="#63b8ff" stroke="#63b8ff" points="1487.55,-78.92 1496.53,-73.29 1486,-72.09 1487.55,-78.92"/>
</a>
</g>
</g>
<!-- Node17&#45;&gt;Node9 -->
<g id="edge27_Node000017_Node000009" class="edge">
<title>Node17&#45;&gt;Node9</title>
<g id="a_edge27_Node000017_Node000009"><a xlink:title=" ">
<path fill="none" stroke="#63b8ff" d="M1220.42,-111.53C1192.35,-103.33 1151.73,-90.51 1117.5,-76 1099.93,-68.55 1097.67,-61.84 1079.5,-56 976.7,-22.98 848.02,-14.19 787.69,-11.85"/>
<polygon fill="#63b8ff" stroke="#63b8ff" points="787.86,-8.35 777.74,-11.5 787.61,-15.35 787.86,-8.35"/>
</a>
</g>
</g>
<!-- Node17&#45;&gt;Node13 -->
<g id="edge30_Node000017_Node000013" class="edge">
<title>Node17&#45;&gt;Node13</title>
<g id="a_edge30_Node000017_Node000013"><a xlink:title=" ">
<path fill="none" stroke="#63b8ff" d="M1218.97,-111.59C1180.13,-101.31 1118.53,-85.01 1081.56,-75.22"/>
<polygon fill="#63b8ff" stroke="#63b8ff" points="1082.51,-71.85 1071.95,-72.68 1080.72,-78.62 1082.51,-71.85"/>
</a>
</g>
</g>
<!-- Node18 -->
<g id="Node000018" class="node">
<title>Node18</title>
<g id="a_Node000018"><a xlink:title=" ">
<polygon fill="#e0e0e0" stroke="#999999" points="1282.38,-76 1226.62,-76 1226.62,-56 1282.38,-56 1282.38,-76"/>
<text xml:space="preserve" text-anchor="middle" x="1254.5" y="-62.5" font-family="Helvetica,sans-Serif" font-size="10.00">algorithm</text>
</a>
</g>
</g>
<!-- Node17&#45;&gt;Node18 -->
<g id="edge24_Node000017_Node000018" class="edge">
<title>Node17&#45;&gt;Node18</title>
<g id="a_edge24_Node000017_Node000018"><a xlink:title=" ">
<path fill="none" stroke="#63b8ff" d="M1254.5,-111.59C1254.5,-105.01 1254.5,-95.96 1254.5,-87.73"/>
<polygon fill="#63b8ff" stroke="#63b8ff" points="1258,-87.81 1254.5,-77.81 1251,-87.81 1258,-87.81"/>
</a>
</g>
</g>
<!-- Node19 -->
<g id="Node000019" class="node">
<title>Node19</title>
<g id="a_Node000019"><a xlink:title=" ">
<polygon fill="#e0e0e0" stroke="#999999" points="1451.38,-20 1389.62,-20 1389.62,0 1451.38,0 1451.38,-20"/>
<text xml:space="preserve" text-anchor="middle" x="1420.5" y="-6.5" font-family="Helvetica,sans-Serif" font-size="10.00">type_traits</text>
</a>
</g>
</g>
<!-- Node17&#45;&gt;Node19 -->
<g id="edge28_Node000017_Node000019" class="edge">
<title>Node17&#45;&gt;Node19</title>
<g id="a_edge28_Node000017_Node000019"><a xlink:title=" ">
<path fill="none" stroke="#63b8ff" d="M1347.35,-113.66C1372.25,-107.15 1396.84,-95.73 1413.5,-76 1423.81,-63.79 1424.9,-45.36 1423.79,-31.23"/>
<polygon fill="#63b8ff" stroke="#63b8ff" points="1427.31,-31.19 1422.61,-21.7 1420.36,-32.05 1427.31,-31.19"/>
</a>
</g>
</g>
<!-- Node20 -->
<g id="Node000020" class="node">
<title>Node20</title>
<g id="a_Node000020"><a xlink:title=" ">
<polygon fill="#e0e0e0" stroke="#999999" points="1208.88,-76 1126.12,-76 1126.12,-56 1208.88,-56 1208.88,-76"/>
<text xml:space="preserve" text-anchor="middle" x="1167.5" y="-62.5" font-family="Helvetica,sans-Serif" font-size="10.00">unordered_map</text>
</a>
</g>
</g>
<!-- Node17&#45;&gt;Node20 -->
<g id="edge29_Node000017_Node000020" class="edge">
<title>Node17&#45;&gt;Node20</title>
<g id="a_edge29_Node000017_Node000020"><a xlink:title=" ">
<path fill="none" stroke="#63b8ff" d="M1239.35,-111.59C1226.45,-103.59 1207.67,-91.93 1192.54,-82.54"/>
<polygon fill="#63b8ff" stroke="#63b8ff" points="1194.4,-79.58 1184.06,-77.28 1190.71,-85.53 1194.4,-79.58"/>
</a>
</g>
</g>
<!-- Node21 -->
<g id="Node000021" class="node">
<title>Node21</title>
<g id="a_Node000021"><a xlink:href="../../d6/d2a/_handle_8hpp.html" target="_top" xlink:title="Handle wrapper for hardware abstraction.">
<polygon fill="white" stroke="#666666" points="1404.25,-76 1338.75,-76 1338.75,-56 1404.25,-56 1404.25,-76"/>
<text xml:space="preserve" text-anchor="middle" x="1371.5" y="-62.5" font-family="Helvetica,sans-Serif" font-size="10.00">Handle.hpp</text>
</a>
</g>
</g>
<!-- Node17&#45;&gt;Node21 -->
<g id="edge31_Node000017_Node000021" class="edge">
<title>Node17&#45;&gt;Node21</title>
<g id="a_edge31_Node000017_Node000021"><a xlink:title=" ">
<path fill="none" stroke="#63b8ff" d="M1274.88,-111.59C1293.06,-103.21 1319.93,-90.8 1340.72,-81.21"/>
<polygon fill="#63b8ff" stroke="#63b8ff" points="1341.97,-84.48 1349.59,-77.11 1339.04,-78.13 1341.97,-84.48"/>
</a>
</g>
</g>
<!-- Node21&#45;&gt;Node7 -->
<g id="edge32_Node000021_Node000007" class="edge">
<title>Node21&#45;&gt;Node7</title>
<g id="a_edge32_Node000021_Node000007"><a xlink:title=" ">
<path fill="none" stroke="#63b8ff" d="M1338.41,-56.92C1297.47,-46.91 1228.03,-29.94 1186,-19.67"/>
<polygon fill="#63b8ff" stroke="#63b8ff" points="1186.93,-16.3 1176.39,-17.33 1185.27,-23.1 1186.93,-16.3"/>
</a>
</g>
</g>
<!-- Node21&#45;&gt;Node19 -->
<g id="edge33_Node000021_Node000019" class="edge">
<title>Node21&#45;&gt;Node19</title>
<g id="a_edge33_Node000021_Node000019"><a xlink:title=" ">
<path fill="none" stroke="#63b8ff" d="M1380.04,-55.59C1386.78,-48.16 1396.39,-37.58 1404.54,-28.58"/>
<polygon fill="#63b8ff" stroke="#63b8ff" points="1406.92,-31.18 1411.05,-21.42 1401.73,-26.47 1406.92,-31.18"/>
</a>
</g>
</g>
<!-- Node22&#45;&gt;Node7 -->
<g id="edge37_Node000022_Node000007" class="edge">
<title>Node22&#45;&gt;Node7</title>
<g id="a_edge37_Node000022_Node000007"><a xlink:title=" ">
<path fill="none" stroke="#63b8ff" d="M841.03,-167.72C840.43,-144.89 842.32,-85.67 875.5,-56 910.29,-24.9 1048.81,-15.12 1114.97,-12.18"/>
<polygon fill="#63b8ff" stroke="#63b8ff" points="1114.71,-15.7 1124.55,-11.79 1114.42,-8.7 1114.71,-15.7"/>
</a>
</g>
</g>
<!-- Node22&#45;&gt;Node9 -->
<g id="edge38_Node000022_Node000009" class="edge">
<title>Node22&#45;&gt;Node9</title>
<g id="a_edge38_Node000022_Node000009"><a xlink:title=" ">
<path fill="none" stroke="#63b8ff" d="M784.48,-167.94C732.77,-156.37 659.46,-130.84 624.5,-76 600.32,-38.07 673.36,-21.38 719.25,-14.79"/>
<polygon fill="#63b8ff" stroke="#63b8ff" points="719.59,-18.28 729.04,-13.49 718.67,-11.34 719.59,-18.28"/>
</a>
</g>
</g>
<!-- Node22&#45;&gt;Node12 -->
<g id="edge39_Node000022_Node000012" class="edge">
<title>Node22&#45;&gt;Node12</title>
<g id="a_edge39_Node000022_Node000012"><a xlink:title=" ">
<path fill="none" stroke="#63b8ff" d="M853.17,-167.59C862.78,-159.85 876.63,-148.69 888.07,-139.47"/>
<polygon fill="#63b8ff" stroke="#63b8ff" points="890.2,-142.25 895.78,-133.25 885.8,-136.8 890.2,-142.25"/>
</a>
</g>
</g>
<!-- Node23&#45;&gt;Node8 -->
<g id="edge44_Node000023_Node000008" class="edge">
<title>Node23&#45;&gt;Node8</title>
<g id="a_edge44_Node000023_Node000008"><a xlink:title=" ">
<path fill="none" stroke="#63b8ff" d="M1657.11,-111.59C1629.53,-102.46 1587.58,-88.56 1557.85,-78.71"/>
<polygon fill="#63b8ff" stroke="#63b8ff" points="1559.14,-75.45 1548.54,-75.63 1556.94,-82.1 1559.14,-75.45"/>
</a>
</g>
</g>
<!-- Node23&#45;&gt;Node9 -->
<g id="edge45_Node000023_Node000009" class="edge">
<title>Node23&#45;&gt;Node9</title>
<g id="a_edge45_Node000023_Node000009"><a xlink:title=" ">
<path fill="none" stroke="#63b8ff" d="M1671.46,-111.54C1648.41,-96.6 1600.61,-67.99 1555.5,-56 1480.62,-36.09 931.27,-16.83 787.73,-12.1"/>
<polygon fill="#63b8ff" stroke="#63b8ff" points="788.23,-8.62 778.12,-11.79 788,-15.61 788.23,-8.62"/>
</a>
</g>
</g>
<!-- Node24 -->
<g id="Node000024" class="node">
<title>Node24</title>
<g id="a_Node000024"><a xlink:href="../../d0/dec/_h_a_l_2core_2_s_p_i_2_s_p_i_port_8hpp.html" target="_top" xlink:title="Event&#45;driven SPI port abstraction for STM32 HAL.">
<polygon fill="white" stroke="#666666" points="1748.62,-76 1640.38,-76 1640.38,-56 1748.62,-56 1748.62,-76"/>
<text xml:space="preserve" text-anchor="middle" x="1694.5" y="-62.5" font-family="Helvetica,sans-Serif" font-size="10.00">core/SPI/SpiPort.hpp</text>
</a>
</g>
</g>
<!-- Node23&#45;&gt;Node24 -->
<g id="edge42_Node000023_Node000024" class="edge">
<title>Node23&#45;&gt;Node24</title>
<g id="a_edge42_Node000023_Node000024"><a xlink:title=" ">
<path fill="none" stroke="#63b8ff" d="M1687.07,-111.59C1688.18,-104.93 1689.71,-95.75 1691.09,-87.44"/>
<polygon fill="#63b8ff" stroke="#63b8ff" points="1694.51,-88.23 1692.7,-77.79 1687.61,-87.08 1694.51,-88.23"/>
</a>
</g>
</g>
<!-- Node25 -->
<g id="Node000025" class="node">
<title>Node25</title>
<g id="a_Node000025"><a xlink:title=" ">
<polygon fill="#e0e0e0" stroke="#999999" points="1804.38,-76 1766.62,-76 1766.62,-56 1804.38,-56 1804.38,-76"/>
<text xml:space="preserve" text-anchor="middle" x="1785.5" y="-62.5" font-family="Helvetica,sans-Serif" font-size="10.00">array</text>
</a>
</g>
</g>
<!-- Node23&#45;&gt;Node25 -->
<g id="edge43_Node000023_Node000025" class="edge">
<title>Node23&#45;&gt;Node25</title>
<g id="a_edge43_Node000023_Node000025"><a xlink:title=" ">
<path fill="none" stroke="#63b8ff" d="M1702.92,-111.59C1718.17,-103.36 1740.58,-91.26 1758.21,-81.74"/>
<polygon fill="#63b8ff" stroke="#63b8ff" points="1759.48,-85.03 1766.61,-77.2 1756.15,-78.87 1759.48,-85.03"/>
</a>
</g>
</g>
</g>
</svg>
