<?xml version="1.0" encoding="UTF-8" standalone="no"?>
<!DOCTYPE svg PUBLIC "-//W3C//DTD SVG 1.1//EN"
 "http://www.w3.org/Graphics/SVG/1.1/DTD/svg11.dtd">
<!-- Generated by graphviz version 13.1.0 (20250701.0955)
 -->
<!-- Title: RTOS::SemaphoreBase::destroy Pages: 1 -->
<svg width="453pt" height="166pt"
 viewBox="0.00 0.00 453.00 166.00" xmlns="http://www.w3.org/2000/svg" xmlns:xlink="http://www.w3.org/1999/xlink">
<g id="graph0" class="graph" transform="scale(1 1) rotate(0) translate(4 162)">
<title>RTOS::SemaphoreBase::destroy</title>
<!-- Node1 -->
<g id="Node000001" class="node">
<title>Node1</title>
<g id="a_Node000001"><a xlink:title="Destroys the semaphore and releases resources.">
<polygon fill="#999999" stroke="#666666" points="444.75,-95 323.75,-95 323.75,-63 444.75,-63 444.75,-95"/>
<text xml:space="preserve" text-anchor="start" x="331.75" y="-81.5" font-family="Helvetica,sans-Serif" font-size="10.00">RTOS::SemaphoreBase</text>
<text xml:space="preserve" text-anchor="middle" x="384.25" y="-69.5" font-family="Helvetica,sans-Serif" font-size="10.00">::destroy</text>
</a>
</g>
</g>
<!-- Node2 -->
<g id="Node000002" class="node">
<title>Node2</title>
<g id="a_Node000002"><a xlink:href="../../db/d53/a00202.html#ab98752a3e231b56ba654c2c7cfad9f35" target="_top" xlink:title="Destructor of SemaphoreBase.">
<polygon fill="white" stroke="#666666" points="279.88,-158 158.88,-158 158.88,-126 279.88,-126 279.88,-158"/>
<text xml:space="preserve" text-anchor="start" x="166.88" y="-144.5" font-family="Helvetica,sans-Serif" font-size="10.00">RTOS::SemaphoreBase</text>
<text xml:space="preserve" text-anchor="middle" x="219.38" y="-132.5" font-family="Helvetica,sans-Serif" font-size="10.00">::~SemaphoreBase</text>
</a>
</g>
</g>
<!-- Node1&#45;&gt;Node2 -->
<g id="edge1_Node000001_Node000002" class="edge">
<title>Node1&#45;&gt;Node2</title>
<g id="a_edge1_Node000001_Node000002"><a xlink:title=" ">
<path fill="none" stroke="#63b8ff" d="M331.82,-99.72C317.57,-105.39 302.08,-111.49 287.75,-117 280.41,-119.82 272.61,-122.77 265.01,-125.61"/>
<polygon fill="#63b8ff" stroke="#63b8ff" points="333.04,-103 341.03,-96.04 330.45,-96.5 333.04,-103"/>
</a>
</g>
</g>
<!-- Node3 -->
<g id="Node000003" class="node">
<title>Node3</title>
<g id="a_Node000003"><a xlink:href="../../d8/d00/a00186.html#a809773af6ed2e531ec2e26bc5ccb181f" target="_top" xlink:title="Destroys the underlying FreeRTOS mutex and releases resources.">
<polygon fill="white" stroke="#666666" points="276.5,-108 162.25,-108 162.25,-88 276.5,-88 276.5,-108"/>
<text xml:space="preserve" text-anchor="middle" x="219.38" y="-94.5" font-family="Helvetica,sans-Serif" font-size="10.00">RTOS::Mutex::destroy</text>
</a>
</g>
</g>
<!-- Node1&#45;&gt;Node3 -->
<g id="edge2_Node000001_Node000003" class="edge">
<title>Node1&#45;&gt;Node3</title>
<g id="a_edge2_Node000001_Node000003"><a xlink:title=" ">
<path fill="none" stroke="#63b8ff" d="M312.28,-87.28C300.43,-88.66 288.27,-90.08 276.84,-91.41"/>
<polygon fill="#63b8ff" stroke="#63b8ff" points="312.5,-90.78 322.02,-86.14 311.68,-83.82 312.5,-90.78"/>
</a>
</g>
</g>
<!-- Node5 -->
<g id="Node000005" class="node">
<title>Node5</title>
<g id="a_Node000005"><a xlink:href="../../d7/da0/a00198.html#a20dab5ad75e48b973309d994006e99b5" target="_top" xlink:title="Destroys the semaphore.">
<polygon fill="white" stroke="#666666" points="287.75,-70 151,-70 151,-50 287.75,-50 287.75,-70"/>
<text xml:space="preserve" text-anchor="middle" x="219.38" y="-56.5" font-family="Helvetica,sans-Serif" font-size="10.00">RTOS::Semaphore::destroy</text>
</a>
</g>
</g>
<!-- Node1&#45;&gt;Node5 -->
<g id="edge4_Node000001_Node000005" class="edge">
<title>Node1&#45;&gt;Node5</title>
<g id="a_edge4_Node000001_Node000005"><a xlink:title=" ">
<path fill="none" stroke="#63b8ff" d="M312.29,-70.72C304.25,-69.78 296.07,-68.83 288.08,-67.9"/>
<polygon fill="#63b8ff" stroke="#63b8ff" points="311.68,-74.18 322.02,-71.86 312.5,-67.22 311.68,-74.18"/>
</a>
</g>
</g>
<!-- Node6 -->
<g id="Node000006" class="node">
<title>Node6</title>
<g id="a_Node000006"><a xlink:href="../../db/d53/a00202.html#a5dd6b301d09fa131d17cc16b892f22f9" target="_top" xlink:title="Move assignment operator.">
<polygon fill="white" stroke="#666666" points="279.88,-32 158.88,-32 158.88,0 279.88,0 279.88,-32"/>
<text xml:space="preserve" text-anchor="start" x="166.88" y="-18.5" font-family="Helvetica,sans-Serif" font-size="10.00">RTOS::SemaphoreBase</text>
<text xml:space="preserve" text-anchor="middle" x="219.38" y="-6.5" font-family="Helvetica,sans-Serif" font-size="10.00">::operator=</text>
</a>
</g>
</g>
<!-- Node1&#45;&gt;Node6 -->
<g id="edge5_Node000001_Node000006" class="edge">
<title>Node1&#45;&gt;Node6</title>
<g id="a_edge5_Node000001_Node000006"><a xlink:title=" ">
<path fill="none" stroke="#63b8ff" d="M331.82,-58.28C317.57,-52.61 302.08,-46.51 287.75,-41 280.41,-38.18 272.61,-35.23 265.01,-32.39"/>
<polygon fill="#63b8ff" stroke="#63b8ff" points="330.45,-61.5 341.03,-61.96 333.04,-55 330.45,-61.5"/>
</a>
</g>
</g>
<!-- Node4 -->
<g id="Node000004" class="node">
<title>Node4</title>
<g id="a_Node000004"><a xlink:href="../../d8/d00/a00186.html#a766309378d3f1b9ad25492973f7d5c99" target="_top" xlink:title="Destructor of Mutex.">
<polygon fill="white" stroke="#666666" points="115,-108 0,-108 0,-88 115,-88 115,-108"/>
<text xml:space="preserve" text-anchor="middle" x="57.5" y="-94.5" font-family="Helvetica,sans-Serif" font-size="10.00">RTOS::Mutex::~Mutex</text>
</a>
</g>
</g>
<!-- Node3&#45;&gt;Node4 -->
<g id="edge3_Node000003_Node000004" class="edge">
<title>Node3&#45;&gt;Node4</title>
<g id="a_edge3_Node000003_Node000004"><a xlink:title=" ">
<path fill="none" stroke="#63b8ff" d="M150.85,-98C139.06,-98 126.9,-98 115.44,-98"/>
<polygon fill="#63b8ff" stroke="#63b8ff" points="150.5,-101.5 160.5,-98 150.5,-94.5 150.5,-101.5"/>
</a>
</g>
</g>
</g>
</svg>
