<?xml version="1.0" encoding="UTF-8" standalone="no"?>
<!DOCTYPE svg PUBLIC "-//W3C//DTD SVG 1.1//EN"
 "http://www.w3.org/Graphics/SVG/1.1/DTD/svg11.dtd">
<!-- Generated by graphviz version 13.1.0 (20250701.0955)
 -->
<!-- Title: System::ProduceDate Pages: 1 -->
<svg width="105pt" height="197pt"
 viewBox="0.00 0.00 105.00 197.00" xmlns="http://www.w3.org/2000/svg" xmlns:xlink="http://www.w3.org/1999/xlink">
<g id="graph0" class="graph" transform="scale(1 1) rotate(0) translate(4 193)">
<title>System::ProduceDate</title>
<!-- Node1 -->
<g id="Node000001" class="node">
<title>Node1</title>
<g id="a_Node000001"><a xlink:title="Production date wrapper for firmware builds.">
<polygon fill="#999999" stroke="none" points="96.5,-47.5 0,-47.5 0,0 96.5,0 96.5,-47.5"/>
<text xml:space="preserve" text-anchor="start" x="4" y="-34.95" font-family="Arial" font-size="9.00">System::ProduceDate</text>
<text xml:space="preserve" text-anchor="start" x="47.12" y="-20.45" font-family="Arial" font-size="9.00"> </text>
<text xml:space="preserve" text-anchor="start" x="8.81" y="-5.95" font-family="Arial" font-size="9.00">+</text>
<text xml:space="preserve" text-anchor="start" x="22.88" y="-5.95" font-family="Arial" font-size="9.00">ProduceDate()</text>
<polygon fill="#666666" stroke="#666666" points="0,-31 0,-31 96.5,-31 96.5,-31 0,-31"/>
<polygon fill="#666666" stroke="#666666" points="0,-16.5 0,-16.5 96.5,-16.5 96.5,-16.5 0,-16.5"/>
<polygon fill="none" stroke="#666666" points="0,0 0,-47.5 96.5,-47.5 96.5,0 0,0"/>
</a>
</g>
</g>
<!-- Node2 -->
<g id="Node000002" class="node">
<title>Node2</title>
<g id="a_Node000002"><a xlink:href="../../da/d8c/a01845.html" target="_top" xlink:title="ProduceDate persistent production date handler.">
<polygon fill="white" stroke="none" points="89.75,-189 6.75,-189 6.75,-83.5 89.75,-83.5 89.75,-189"/>
<text xml:space="preserve" text-anchor="start" x="10.75" y="-176.45" font-family="Arial" font-size="9.00">ProduceDateBase</text>
<text xml:space="preserve" text-anchor="start" x="47.12" y="-161.95" font-family="Arial" font-size="9.00"> </text>
<text xml:space="preserve" text-anchor="start" x="10.88" y="-147.45" font-family="Arial" font-size="9.00">+</text>
<text xml:space="preserve" text-anchor="start" x="20.25" y="-147.45" font-family="Arial" font-size="9.00">ProduceDate()</text>
<text xml:space="preserve" text-anchor="start" x="10.88" y="-132.95" font-family="Arial" font-size="9.00">+</text>
<text xml:space="preserve" text-anchor="start" x="20.25" y="-132.95" font-family="Arial" font-size="9.00">~ProduceDate()</text>
<text xml:space="preserve" text-anchor="start" x="10.88" y="-118.45" font-family="Arial" font-size="9.00">+</text>
<text xml:space="preserve" text-anchor="start" x="20.25" y="-118.45" font-family="Arial" font-size="9.00">read()</text>
<text xml:space="preserve" text-anchor="start" x="10.88" y="-103.95" font-family="Arial" font-size="9.00">+</text>
<text xml:space="preserve" text-anchor="start" x="20.25" y="-103.95" font-family="Arial" font-size="9.00">write()</text>
<text xml:space="preserve" text-anchor="start" x="10.88" y="-89.45" font-family="Arial" font-size="9.00">+</text>
<text xml:space="preserve" text-anchor="start" x="20.25" y="-89.45" font-family="Arial" font-size="9.00">isEmpty()</text>
<polygon fill="#666666" stroke="#666666" points="6.75,-172.5 6.75,-172.5 89.75,-172.5 89.75,-172.5 6.75,-172.5"/>
<polygon fill="#666666" stroke="#666666" points="6.75,-158 6.75,-158 89.75,-158 89.75,-158 6.75,-158"/>
<polygon fill="none" stroke="#666666" points="6.75,-83.5 6.75,-189 89.75,-189 89.75,-83.5 6.75,-83.5"/>
</a>
</g>
</g>
<!-- Node2&#45;&gt;Node1 -->
<g id="edge1_Node000001_Node000002" class="edge">
<title>Node2&#45;&gt;Node1</title>
<g id="a_edge1_Node000001_Node000002"><a xlink:title=" ">
<path fill="none" stroke="#63b8ff" d="M48.25,-72.26C48.25,-63.39 48.25,-54.8 48.25,-47.42"/>
<polygon fill="none" stroke="#63b8ff" points="44.75,-72.05 48.25,-82.05 51.75,-72.05 44.75,-72.05"/>
</a>
</g>
</g>
</g>
</svg>
