<?xml version="1.0" encoding="UTF-8" standalone="no"?>
<!DOCTYPE svg PUBLIC "-//W3C//DTD SVG 1.1//EN"
 "http://www.w3.org/Graphics/SVG/1.1/DTD/svg11.dtd">
<!-- Generated by graphviz version 13.1.0 (20250701.0955)
 -->
<!-- Title: Lib::Errors::Observer::check Pages: 1 -->
<svg width="693pt" height="28pt"
 viewBox="0.00 0.00 693.00 28.00" xmlns="http://www.w3.org/2000/svg" xmlns:xlink="http://www.w3.org/1999/xlink">
<g id="graph0" class="graph" transform="scale(1 1) rotate(0) translate(4 24)">
<title>Lib::Errors::Observer::check</title>
<!-- Node1 -->
<g id="Node000001" class="node">
<title>Node1</title>
<g id="a_Node000001"><a xlink:title="Checks if there are active errors.">
<polygon fill="#999999" stroke="#666666" points="139,-20 0,-20 0,0 139,0 139,-20"/>
<text xml:space="preserve" text-anchor="middle" x="69.5" y="-6.5" font-family="Helvetica,sans-Serif" font-size="10.00">Lib::Errors::Observer::check</text>
</a>
</g>
</g>
<!-- Node2 -->
<g id="Node000002" class="node">
<title>Node2</title>
<g id="a_Node000002"><a xlink:href="../../d9/d25/class_lib_1_1_errors_1_1_observer.html#a62150fc8a09bbca2eb47616fad11247b" target="_top" xlink:title="Gets the number of active errors.">
<polygon fill="white" stroke="#666666" points="320,-20 175,-20 175,0 320,0 320,-20"/>
<text xml:space="preserve" text-anchor="middle" x="247.5" y="-6.5" font-family="Helvetica,sans-Serif" font-size="10.00">Lib::Errors::Observer::number</text>
</a>
</g>
</g>
<!-- Node1&#45;&gt;Node2 -->
<g id="edge1_Node000001_Node000002" class="edge">
<title>Node1&#45;&gt;Node2</title>
<g id="a_edge1_Node000001_Node000002"><a xlink:title=" ">
<path fill="none" stroke="#63b8ff" d="M139.3,-10C147.17,-10 155.24,-10 163.27,-10"/>
<polygon fill="#63b8ff" stroke="#63b8ff" points="163.04,-13.5 173.04,-10 163.04,-6.5 163.04,-13.5"/>
</a>
</g>
</g>
<!-- Node3 -->
<g id="Node000003" class="node">
<title>Node3</title>
<g id="a_Node000003"><a xlink:href="../../d9/d25/class_lib_1_1_errors_1_1_observer.html#aef13941925622e62ee117b645f61be4c" target="_top" xlink:title="Reads active errors.">
<polygon fill="white" stroke="#666666" points="487.5,-20 356,-20 356,0 487.5,0 487.5,-20"/>
<text xml:space="preserve" text-anchor="middle" x="421.75" y="-6.5" font-family="Helvetica,sans-Serif" font-size="10.00">Lib::Errors::Observer::read</text>
</a>
</g>
</g>
<!-- Node2&#45;&gt;Node3 -->
<g id="edge2_Node000002_Node000003" class="edge">
<title>Node2&#45;&gt;Node3</title>
<g id="a_edge2_Node000002_Node000003"><a xlink:title=" ">
<path fill="none" stroke="#63b8ff" d="M320.05,-10C328.09,-10 336.31,-10 344.41,-10"/>
<polygon fill="#63b8ff" stroke="#63b8ff" points="344.24,-13.5 354.24,-10 344.24,-6.5 344.24,-13.5"/>
</a>
</g>
</g>
<!-- Node4 -->
<g id="Node000004" class="node">
<title>Node4</title>
<g id="a_Node000004"><a xlink:href="../../d3/d2f/class_lib_1_1_errors_1_1_dispatcher.html#a788640a7a204b34e81164ac6ff72900d" target="_top" xlink:title="Retrieves a reference to the static vector containing Error objects.">
<polygon fill="white" stroke="#666666" points="685,-20 523.5,-20 523.5,0 685,0 685,-20"/>
<text xml:space="preserve" text-anchor="middle" x="604.25" y="-6.5" font-family="Helvetica,sans-Serif" font-size="10.00">Lib::Errors::Dispatcher::getVector</text>
</a>
</g>
</g>
<!-- Node3&#45;&gt;Node4 -->
<g id="edge3_Node000003_Node000004" class="edge">
<title>Node3&#45;&gt;Node4</title>
<g id="a_edge3_Node000003_Node000004"><a xlink:title=" ">
<path fill="none" stroke="#63b8ff" d="M487.91,-10C495.67,-10 503.69,-10 511.73,-10"/>
<polygon fill="#63b8ff" stroke="#63b8ff" points="511.56,-13.5 521.56,-10 511.56,-6.5 511.56,-13.5"/>
</a>
</g>
</g>
</g>
</svg>
