<?xml version="1.0" encoding="UTF-8" standalone="no"?>
<!DOCTYPE svg PUBLIC "-//W3C//DTD SVG 1.1//EN"
 "http://www.w3.org/Graphics/SVG/1.1/DTD/svg11.dtd">
<!-- Generated by graphviz version 13.1.0 (20250701.0955)
 -->
<!-- Title: RTOS::TickService::ClientBase::ClientBase Pages: 1 -->
<svg width="280pt" height="90pt"
 viewBox="0.00 0.00 280.00 90.00" xmlns="http://www.w3.org/2000/svg" xmlns:xlink="http://www.w3.org/1999/xlink">
<g id="graph0" class="graph" transform="scale(1 1) rotate(0) translate(4 86)">
<title>RTOS::TickService::ClientBase::ClientBase</title>
<!-- Node1 -->
<g id="Node000001" class="node">
<title>Node1</title>
<g id="a_Node000001"><a xlink:title="Constructor of ClientBase.">
<polygon fill="#999999" stroke="#666666" points="272,-57 154,-57 154,-25 272,-25 272,-57"/>
<text xml:space="preserve" text-anchor="start" x="162" y="-43.5" font-family="Helvetica,sans-Serif" font-size="10.00">RTOS::TickService::</text>
<text xml:space="preserve" text-anchor="middle" x="213" y="-31.5" font-family="Helvetica,sans-Serif" font-size="10.00">ClientBase::ClientBase</text>
</a>
</g>
</g>
<!-- Node2 -->
<g id="Node000002" class="node">
<title>Node2</title>
<g id="a_Node000002"><a xlink:href="../../d3/de5/a00209.html#a2718f361ea01e2907c8c81d15ae2a15b" target="_top" xlink:title="Deleted copy constructor to prevent copying.">
<polygon fill="white" stroke="#666666" points="118,-82 0,-82 0,-50 118,-50 118,-82"/>
<text xml:space="preserve" text-anchor="start" x="8" y="-68.5" font-family="Helvetica,sans-Serif" font-size="10.00">RTOS::TickService::</text>
<text xml:space="preserve" text-anchor="middle" x="59" y="-56.5" font-family="Helvetica,sans-Serif" font-size="10.00">ClientBase::ClientBase</text>
</a>
</g>
</g>
<!-- Node1&#45;&gt;Node2 -->
<g id="edge1_Node000001_Node000002" class="edge">
<title>Node1&#45;&gt;Node2</title>
<g id="a_edge1_Node000001_Node000002"><a xlink:title=" ">
<path fill="none" stroke="#63b8ff" d="M142.43,-52.44C134.4,-53.76 126.28,-55.1 118.43,-56.39"/>
<polygon fill="#63b8ff" stroke="#63b8ff" points="142.87,-55.92 152.17,-50.84 141.74,-49.01 142.87,-55.92"/>
</a>
</g>
</g>
<!-- Node3 -->
<g id="Node000003" class="node">
<title>Node3</title>
<g id="a_Node000003"><a xlink:href="../../d3/de5/a00209.html#a87a64da49aa35164d674036048b349b2" target="_top" xlink:title="Deleted copy assignment operator to prevent copying.">
<polygon fill="white" stroke="#666666" points="114.62,-32 3.38,-32 3.38,0 114.62,0 114.62,-32"/>
<text xml:space="preserve" text-anchor="start" x="11.38" y="-18.5" font-family="Helvetica,sans-Serif" font-size="10.00">RTOS::TickService::</text>
<text xml:space="preserve" text-anchor="middle" x="59" y="-6.5" font-family="Helvetica,sans-Serif" font-size="10.00">ClientBase::operator=</text>
</a>
</g>
</g>
<!-- Node1&#45;&gt;Node3 -->
<g id="edge2_Node000001_Node000003" class="edge">
<title>Node1&#45;&gt;Node3</title>
<g id="a_edge2_Node000001_Node000003"><a xlink:title=" ">
<path fill="none" stroke="#63b8ff" d="M142.49,-29.57C133.25,-28.05 123.88,-26.51 114.93,-25.03"/>
<polygon fill="#63b8ff" stroke="#63b8ff" points="141.74,-32.99 152.17,-31.16 142.87,-26.08 141.74,-32.99"/>
</a>
</g>
</g>
</g>
</svg>
