<?xml version="1.0" encoding="UTF-8" standalone="no"?>
<!DOCTYPE svg PUBLIC "-//W3C//DTD SVG 1.1//EN"
 "http://www.w3.org/Graphics/SVG/1.1/DTD/svg11.dtd">
<!-- Generated by graphviz version 13.1.0 (20250701.0955)
 -->
<!-- Title: RTOS::QueueSet::selectFromSet Pages: 1 -->
<svg width="354pt" height="90pt"
 viewBox="0.00 0.00 354.00 90.00" xmlns="http://www.w3.org/2000/svg" xmlns:xlink="http://www.w3.org/1999/xlink">
<g id="graph0" class="graph" transform="scale(1 1) rotate(0) translate(4 86)">
<title>RTOS::QueueSet::selectFromSet</title>
<!-- Node1 -->
<g id="Node000001" class="node">
<title>Node1</title>
<g id="a_Node000001"><a xlink:title="Selects from the queue set with configurable timeout blocking behavior.">
<polygon fill="#999999" stroke="#666666" points="345.5,-51 183.25,-51 183.25,-31 345.5,-31 345.5,-51"/>
<text xml:space="preserve" text-anchor="middle" x="264.38" y="-37.5" font-family="Helvetica,sans-Serif" font-size="10.00">RTOS::QueueSet::selectFromSet</text>
</a>
</g>
</g>
<!-- Node2 -->
<g id="Node000002" class="node">
<title>Node2</title>
<g id="a_Node000002"><a xlink:href="../../d7/d3f/a00173.html#a77f146257e248379db6002a596a260e8" target="_top" xlink:title="Selects from the queue set with indefinite blocking until an event occurs.">
<polygon fill="white" stroke="#666666" points="147.25,-82 0,-82 0,-50 147.25,-50 147.25,-82"/>
<text xml:space="preserve" text-anchor="start" x="8" y="-68.5" font-family="Helvetica,sans-Serif" font-size="10.00">RTOS::QueueSet::selectFrom</text>
<text xml:space="preserve" text-anchor="middle" x="73.62" y="-56.5" font-family="Helvetica,sans-Serif" font-size="10.00">SetForever</text>
</a>
</g>
</g>
<!-- Node1&#45;&gt;Node2 -->
<g id="edge1_Node000001_Node000002" class="edge">
<title>Node1&#45;&gt;Node2</title>
<g id="a_edge1_Node000001_Node000002"><a xlink:title=" ">
<path fill="none" stroke="#63b8ff" d="M173.01,-52.97C164.5,-54.1 155.95,-55.23 147.63,-56.33"/>
<polygon fill="#63b8ff" stroke="#63b8ff" points="173.19,-56.48 182.65,-51.69 172.27,-49.54 173.19,-56.48"/>
</a>
</g>
</g>
<!-- Node3 -->
<g id="Node000003" class="node">
<title>Node3</title>
<g id="a_Node000003"><a xlink:href="../../d7/d3f/a00173.html#a5d61f4445e5d693a476036d6b3ca85eb" target="_top" xlink:title="Selects from the queue set without blocking for immediate event checking.">
<polygon fill="white" stroke="#666666" points="147.25,-32 0,-32 0,0 147.25,0 147.25,-32"/>
<text xml:space="preserve" text-anchor="start" x="8" y="-18.5" font-family="Helvetica,sans-Serif" font-size="10.00">RTOS::QueueSet::selectFrom</text>
<text xml:space="preserve" text-anchor="middle" x="73.62" y="-6.5" font-family="Helvetica,sans-Serif" font-size="10.00">SetNow</text>
</a>
</g>
</g>
<!-- Node1&#45;&gt;Node3 -->
<g id="edge2_Node000001_Node000003" class="edge">
<title>Node1&#45;&gt;Node3</title>
<g id="a_edge2_Node000001_Node000003"><a xlink:title=" ">
<path fill="none" stroke="#63b8ff" d="M173.01,-29.03C164.5,-27.9 155.95,-26.77 147.63,-25.67"/>
<polygon fill="#63b8ff" stroke="#63b8ff" points="172.27,-32.46 182.65,-30.31 173.19,-25.52 172.27,-32.46"/>
</a>
</g>
</g>
</g>
</svg>
