<?xml version="1.0" encoding="UTF-8" standalone="no"?>
<!DOCTYPE svg PUBLIC "-//W3C//DTD SVG 1.1//EN"
 "http://www.w3.org/Graphics/SVG/1.1/DTD/svg11.dtd">
<!-- Generated by graphviz version 13.1.0 (20250701.0955)
 -->
<!-- Title: Outputs&lt; OutputVersion::V2 &gt;::Config Pages: 1 -->
<svg width="157pt" height="181pt"
 viewBox="0.00 0.00 157.00 181.00" xmlns="http://www.w3.org/2000/svg" xmlns:xlink="http://www.w3.org/1999/xlink">
<g id="graph0" class="graph" transform="scale(1 1) rotate(0) translate(4 176.5)">
<title>Outputs&lt; OutputVersion::V2 &gt;::Config</title>
<!-- Node1 -->
<g id="Node000001" class="node">
<title>Node1</title>
<g id="a_Node000001"><a xlink:title="Holds configuration for Outputs specifying SPI and GPIO handles.">
<polygon fill="#999999" stroke="none" points="112.38,-58 7.62,-58 7.62,0 112.38,0 112.38,-58"/>
<text xml:space="preserve" text-anchor="start" x="11.62" y="-45.45" font-family="Arial" font-size="9.00">Outputs&lt; OutputVersion</text>
<text xml:space="preserve" text-anchor="start" x="32.62" y="-34.95" font-family="Arial" font-size="9.00">::V2 &gt;::Config</text>
<text xml:space="preserve" text-anchor="start" x="58.88" y="-20.45" font-family="Arial" font-size="9.00"> </text>
<text xml:space="preserve" text-anchor="start" x="58.88" y="-5.95" font-family="Arial" font-size="9.00"> </text>
<polygon fill="#666666" stroke="#666666" points="7.62,-31 7.62,-31 112.38,-31 112.38,-31 7.62,-31"/>
<polygon fill="#666666" stroke="#666666" points="7.62,-16.5 7.62,-16.5 112.38,-16.5 112.38,-16.5 7.62,-16.5"/>
<polygon fill="none" stroke="#666666" points="7.62,0 7.62,-58 112.38,-58 112.38,0 7.62,0"/>
</a>
</g>
</g>
<!-- Node2 -->
<g id="Node000002" class="node">
<title>Node2</title>
<g id="a_Node000002"><a xlink:title=" ">
<polygon fill="white" stroke="none" points="44,-172.5 0,-172.5 0,-125 44,-125 44,-172.5"/>
<text xml:space="preserve" text-anchor="start" x="4" y="-159.95" font-family="Arial" font-size="9.00">Handle *</text>
<text xml:space="preserve" text-anchor="start" x="20.88" y="-145.45" font-family="Arial" font-size="9.00"> </text>
<text xml:space="preserve" text-anchor="start" x="20.88" y="-130.95" font-family="Arial" font-size="9.00"> </text>
<polygon fill="#bfbfbf" stroke="#bfbfbf" points="0,-156 0,-156 44,-156 44,-156 0,-156"/>
<polygon fill="#bfbfbf" stroke="#bfbfbf" points="0,-141.5 0,-141.5 44,-141.5 44,-141.5 0,-141.5"/>
<polygon fill="none" stroke="#bfbfbf" points="0,-125 0,-172.5 44,-172.5 44,-125 0,-125"/>
</a>
</g>
</g>
<!-- Node2&#45;&gt;Node1 -->
<g id="edge1_Node000001_Node000002" class="edge">
<title>Node2&#45;&gt;Node1</title>
<g id="a_edge1_Node000001_Node000002"><a xlink:title=" ">
<path fill="none" stroke="#63b8ff" d="M18.5,-125.1C17.16,-110.63 17.1,-91.71 22.75,-76 23.61,-73.61 24.65,-71.25 25.84,-68.94"/>
<polygon fill="none" stroke="#63b8ff" points="25.9,-68.83 25.66,-61.62 32.22,-58.62 32.46,-65.83 25.9,-68.83"/>
</a>
</g>
<text xml:space="preserve" text-anchor="start" x="25.75" y="-88.2" font-family="Arial" font-size="9.00" fill="grey">+spiHandle</text>
</g>
<!-- Node3 -->
<g id="Node000003" class="node">
<title>Node3</title>
<g id="a_Node000003"><a xlink:title=" ">
<polygon fill="white" stroke="none" points="117,-172.5 79,-172.5 79,-125 117,-125 117,-172.5"/>
<text xml:space="preserve" text-anchor="start" x="83" y="-159.95" font-family="Arial" font-size="9.00">Handle</text>
<text xml:space="preserve" text-anchor="start" x="96.88" y="-145.45" font-family="Arial" font-size="9.00"> </text>
<text xml:space="preserve" text-anchor="start" x="96.88" y="-130.95" font-family="Arial" font-size="9.00"> </text>
<polygon fill="#bfbfbf" stroke="#bfbfbf" points="79,-156 79,-156 117,-156 117,-156 79,-156"/>
<polygon fill="#bfbfbf" stroke="#bfbfbf" points="79,-141.5 79,-141.5 117,-141.5 117,-141.5 79,-141.5"/>
<polygon fill="none" stroke="#bfbfbf" points="79,-125 79,-172.5 117,-172.5 117,-125 79,-125"/>
</a>
</g>
</g>
<!-- Node3&#45;&gt;Node1 -->
<g id="edge2_Node000001_Node000003" class="edge">
<title>Node3&#45;&gt;Node1</title>
<g id="a_edge2_Node000001_Node000003"><a xlink:title=" ">
<path fill="none" stroke="#63b8ff" d="M91.28,-125.06C87.03,-110.91 81.35,-92.35 76,-76 75.33,-73.96 74.64,-71.86 73.93,-69.75"/>
<polygon fill="none" stroke="#63b8ff" points="73.98,-69.89 68.25,-65.5 70.1,-58.53 75.83,-62.92 73.98,-69.89"/>
</a>
</g>
<text xml:space="preserve" text-anchor="start" x="88.32" y="-95.45" font-family="Arial" font-size="9.00" fill="grey">+csPinHandle</text>
<text xml:space="preserve" text-anchor="start" x="88.32" y="-80.95" font-family="Arial" font-size="9.00" fill="grey">+ssPinHandle</text>
</g>
</g>
</svg>
