<?xml version="1.0" encoding="UTF-8" standalone="no"?>
<!DOCTYPE svg PUBLIC "-//W3C//DTD SVG 1.1//EN"
 "http://www.w3.org/Graphics/SVG/1.1/DTD/svg11.dtd">
<!-- Generated by graphviz version 12.2.1 (20241206.2353)
 -->
<!-- Title: MenuItem.hpp Pages: 1 -->
<svg width="508pt" height="140pt"
 viewBox="0.00 0.00 507.62 140.00" xmlns="http://www.w3.org/2000/svg" xmlns:xlink="http://www.w3.org/1999/xlink">
<g id="graph0" class="graph" transform="scale(1 1) rotate(0) translate(4 136)">
<title>MenuItem.hpp</title>
<!-- Node1 -->
<g id="Node000001" class="node">
<title>Node1</title>
<g id="a_Node000001"><a xlink:title="Declaration of the MenuItem class used in the UI components.">
<polygon fill="#999999" stroke="#666666" points="276,-132 197.75,-132 197.75,-112 276,-112 276,-132"/>
<text text-anchor="middle" x="236.88" y="-118.5" font-family="Helvetica,sans-Serif" font-size="10.00">MenuItem.hpp</text>
</a>
</g>
</g>
<!-- Node2 -->
<g id="Node000002" class="node">
<title>Node2</title>
<g id="a_Node000002"><a xlink:href="../../d7/dce/a00143.html" target="_top" xlink:title="Declaration of the MenuBase class, which represents a base class for menu screens in the UI.">
<polygon fill="white" stroke="#666666" points="277.5,-76 196.25,-76 196.25,-56 277.5,-56 277.5,-76"/>
<text text-anchor="middle" x="236.88" y="-62.5" font-family="Helvetica,sans-Serif" font-size="10.00">MenuBase.hpp</text>
</a>
</g>
</g>
<!-- Node1&#45;&gt;Node2 -->
<g id="edge1_Node000001_Node000002" class="edge">
<title>Node1&#45;&gt;Node2</title>
<g id="a_edge1_Node000001_Node000002"><a xlink:title=" ">
<path fill="none" stroke="#63b8ff" d="M236.88,-100.13C236.88,-91.9 236.88,-82.85 236.88,-76.3"/>
<polygon fill="#63b8ff" stroke="#63b8ff" points="233.38,-100.08 236.88,-110.08 240.38,-100.08 233.38,-100.08"/>
</a>
</g>
</g>
<!-- Node3 -->
<g id="Node000003" class="node">
<title>Node3</title>
<g id="a_Node000003"><a xlink:href="../../d7/d3f/a00173.html" target="_top" xlink:title="Declaration of the MenuMain class, which represents the main menu screen in the UI.">
<polygon fill="white" stroke="#666666" points="79.75,-20 0,-20 0,0 79.75,0 79.75,-20"/>
<text text-anchor="middle" x="39.88" y="-6.5" font-family="Helvetica,sans-Serif" font-size="10.00">MenuMain.hpp</text>
</a>
</g>
</g>
<!-- Node2&#45;&gt;Node3 -->
<g id="edge2_Node000002_Node000003" class="edge">
<title>Node2&#45;&gt;Node3</title>
<g id="a_edge2_Node000002_Node000003"><a xlink:title=" ">
<path fill="none" stroke="#63b8ff" d="M191.49,-52.56C155.85,-42.79 106.98,-29.39 74.46,-20.48"/>
<polygon fill="#63b8ff" stroke="#63b8ff" points="190.53,-55.93 201.1,-55.19 192.38,-49.17 190.53,-55.93"/>
</a>
</g>
</g>
<!-- Node4 -->
<g id="Node000004" class="node">
<title>Node4</title>
<g id="a_Node000004"><a xlink:href="../../d5/de9/a00176.html" target="_top" xlink:title="Header file for the MenuSelectApplication class.">
<polygon fill="white" stroke="#666666" points="232.12,-20 97.62,-20 97.62,0 232.12,0 232.12,-20"/>
<text text-anchor="middle" x="164.88" y="-6.5" font-family="Helvetica,sans-Serif" font-size="10.00">MenuSelectApplication.hpp</text>
</a>
</g>
</g>
<!-- Node2&#45;&gt;Node4 -->
<g id="edge3_Node000002_Node000004" class="edge">
<title>Node2&#45;&gt;Node4</title>
<g id="a_edge3_Node000002_Node000004"><a xlink:title=" ">
<path fill="none" stroke="#63b8ff" d="M215.48,-48.95C203.03,-39.61 187.76,-28.16 177.27,-20.3"/>
<polygon fill="#63b8ff" stroke="#63b8ff" points="213.02,-51.49 223.12,-54.69 217.22,-45.89 213.02,-51.49"/>
</a>
</g>
</g>
<!-- Node5 -->
<g id="Node000005" class="node">
<title>Node5</title>
<g id="a_Node000005"><a xlink:href="../../db/dd9/a00179.html" target="_top" xlink:title="Declaration of the MenuSystemSetup class, which is a part of the UI Screen module.">
<polygon fill="white" stroke="#666666" points="367.88,-20 249.88,-20 249.88,0 367.88,0 367.88,-20"/>
<text text-anchor="middle" x="308.88" y="-6.5" font-family="Helvetica,sans-Serif" font-size="10.00">MenuSystemSetup.hpp</text>
</a>
</g>
</g>
<!-- Node2&#45;&gt;Node5 -->
<g id="edge4_Node000002_Node000005" class="edge">
<title>Node2&#45;&gt;Node5</title>
<g id="a_edge4_Node000002_Node000005"><a xlink:title=" ">
<path fill="none" stroke="#63b8ff" d="M258.27,-48.95C270.72,-39.61 285.99,-28.16 296.48,-20.3"/>
<polygon fill="#63b8ff" stroke="#63b8ff" points="256.53,-45.89 250.63,-54.69 260.73,-51.49 256.53,-45.89"/>
</a>
</g>
</g>
<!-- Node6 -->
<g id="Node000006" class="node">
<title>Node6</title>
<g id="a_Node000006"><a xlink:href="../../d7/d25/a00182.html" target="_top" xlink:title="Declaration of the MenuSystemView class.">
<polygon fill="white" stroke="#666666" points="499.62,-20 386.12,-20 386.12,0 499.62,0 499.62,-20"/>
<text text-anchor="middle" x="442.88" y="-6.5" font-family="Helvetica,sans-Serif" font-size="10.00">MenuSystemView.hpp</text>
</a>
</g>
</g>
<!-- Node2&#45;&gt;Node6 -->
<g id="edge5_Node000002_Node000006" class="edge">
<title>Node2&#45;&gt;Node6</title>
<g id="a_edge5_Node000002_Node000006"><a xlink:title=" ">
<path fill="none" stroke="#63b8ff" d="M283.85,-52.69C321.16,-42.91 372.56,-29.43 406.71,-20.48"/>
<polygon fill="#63b8ff" stroke="#63b8ff" points="283.01,-49.29 274.22,-55.21 284.78,-56.06 283.01,-49.29"/>
</a>
</g>
</g>
</g>
</svg>
