<?xml version="1.0" encoding="UTF-8" standalone="no"?>
<!DOCTYPE svg PUBLIC "-//W3C//DTD SVG 1.1//EN"
 "http://www.w3.org/Graphics/SVG/1.1/DTD/svg11.dtd">
<!-- Generated by graphviz version 13.1.0 (20250701.0955)
 -->
<!-- Title: Lib::Xbee::API::UserProtocol Pages: 1 -->
<svg width="162pt" height="112pt"
 viewBox="0.00 0.00 162.00 112.00" xmlns="http://www.w3.org/2000/svg" xmlns:xlink="http://www.w3.org/1999/xlink">
<g id="graph0" class="graph" transform="scale(1 1) rotate(0) translate(4 108)">
<title>Lib::Xbee::API::UserProtocol</title>
<!-- Node1 -->
<g id="Node000001" class="node">
<title>Node1</title>
<g id="a_Node000001"><a xlink:title="UserProtocol base class for user&#45;defined protocol processing.">
<polygon fill="#999999" stroke="none" points="123.5,-18.5 0,-18.5 0,0 123.5,0 123.5,-18.5"/>
<text xml:space="preserve" text-anchor="start" x="4" y="-5.95" font-family="Arial" font-size="9.00">Lib::Xbee::API::UserProtocol</text>
<polygon fill="none" stroke="#666666" points="0,0 0,-18.5 123.5,-18.5 123.5,0 0,0"/>
</a>
</g>
</g>
<!-- Node2 -->
<g id="Node000002" class="node">
<title>Node2</title>
<g id="a_Node000002"><a xlink:title=" ">
<polygon fill="white" stroke="none" points="77.75,-104 45.75,-104 45.75,-85.5 77.75,-85.5 77.75,-104"/>
<text xml:space="preserve" text-anchor="start" x="49.75" y="-91.45" font-family="Arial" font-size="9.00">size_t</text>
<polygon fill="none" stroke="#bfbfbf" points="45.75,-85.5 45.75,-104 77.75,-104 77.75,-85.5 45.75,-85.5"/>
</a>
</g>
</g>
<!-- Node2&#45;&gt;Node1 -->
<g id="edge1_Node000001_Node000002" class="edge">
<title>Node2&#45;&gt;Node1</title>
<g id="a_edge1_Node000001_Node000002"><a xlink:title=" ">
<path fill="none" stroke="#63b8ff" d="M61.75,-85.74C61.75,-73.24 61.75,-48.69 61.75,-30.97"/>
<polygon fill="none" stroke="#63b8ff" points="61.75,-31.01 57.75,-25.01 61.75,-19.01 65.75,-25.01 61.75,-31.01"/>
</a>
</g>
<text xml:space="preserve" text-anchor="start" x="64.75" y="-55.95" font-family="Arial" font-size="9.00" fill="grey">#COMMAND_INDEX</text>
<text xml:space="preserve" text-anchor="start" x="64.75" y="-41.45" font-family="Arial" font-size="9.00" fill="grey">#HEADER_SIZE</text>
</g>
</g>
</svg>
