<?xml version="1.0" encoding="UTF-8" standalone="no"?>
<!DOCTYPE svg PUBLIC "-//W3C//DTD SVG 1.1//EN"
 "http://www.w3.org/Graphics/SVG/1.1/DTD/svg11.dtd">
<!-- Generated by graphviz version 12.2.1 (20241206.2353)
 -->
<!-- Title: ScreenBase.hpp Pages: 1 -->
<svg width="2166pt" height="196pt"
 viewBox="0.00 0.00 2166.12 196.00" xmlns="http://www.w3.org/2000/svg" xmlns:xlink="http://www.w3.org/1999/xlink">
<g id="graph0" class="graph" transform="scale(1 1) rotate(0) translate(4 192)">
<title>ScreenBase.hpp</title>
<!-- Node1 -->
<g id="Node000001" class="node">
<title>Node1</title>
<g id="a_Node000001"><a xlink:title="Defines the ScreenBase class for UI components.">
<polygon fill="#999999" stroke="#666666" points="1183.12,-188 1095.12,-188 1095.12,-168 1183.12,-168 1183.12,-188"/>
<text text-anchor="middle" x="1139.12" y="-174.5" font-family="Arial" font-size="10.00">ScreenBase.hpp</text>
</a>
</g>
</g>
<!-- Node2 -->
<g id="Node000002" class="node">
<title>Node2</title>
<g id="a_Node000002"><a xlink:href="../../dc/dee/a00053.html" target="_top" xlink:title="Defines the base class for application components.">
<polygon fill="white" stroke="#666666" points="294.75,-132 189.5,-132 189.5,-112 294.75,-112 294.75,-132"/>
<text text-anchor="middle" x="242.12" y="-118.5" font-family="Arial" font-size="10.00">ApplicationBase.hpp</text>
</a>
</g>
</g>
<!-- Node1&#45;&gt;Node2 -->
<g id="edge1_Node000001_Node000002" class="edge">
<title>Node1&#45;&gt;Node2</title>
<g id="a_edge1_Node000001_Node000002"><a xlink:title=" ">
<path fill="none" stroke="#63b8ff" d="M1083.48,-175.74C949.19,-172.31 596.8,-161.07 304.12,-132 301.2,-131.71 298.21,-131.38 295.19,-131.02"/>
<polygon fill="#63b8ff" stroke="#63b8ff" points="1083.06,-179.23 1093.15,-175.98 1083.24,-172.23 1083.06,-179.23"/>
</a>
</g>
</g>
<!-- Node3 -->
<g id="Node000003" class="node">
<title>Node3</title>
<g id="a_Node000003"><a xlink:href="../../d9/d2e/a00056.html" target="_top" xlink:title="Declaration of the ApplicationManager class.">
<polygon fill="white" stroke="#666666" points="120.25,-76 0,-76 0,-56 120.25,-56 120.25,-76"/>
<text text-anchor="middle" x="60.12" y="-62.5" font-family="Arial" font-size="10.00">ApplicationManager.hpp</text>
</a>
</g>
</g>
<!-- Node1&#45;&gt;Node3 -->
<g id="edge9_Node000001_Node000003" class="edge">
<title>Node1&#45;&gt;Node3</title>
<g id="a_edge9_Node000001_Node000003"><a xlink:title=" ">
<path fill="none" stroke="#63b8ff" d="M1083.47,-175.84C891.94,-171.63 266.97,-156.19 180.12,-132 137.67,-120.17 93.56,-91.22 72.61,-76.27"/>
<polygon fill="#63b8ff" stroke="#63b8ff" points="1083.34,-179.33 1093.41,-176.05 1083.49,-172.34 1083.34,-179.33"/>
</a>
</g>
</g>
<!-- Node10 -->
<g id="Node000010" class="node">
<title>Node10</title>
<g id="a_Node000010"><a xlink:href="../../d3/df8/a00155.html" target="_top" xlink:title="This file contains the declaration of the ApplicationView class.">
<polygon fill="white" stroke="#666666" points="417,-132 313.25,-132 313.25,-112 417,-112 417,-132"/>
<text text-anchor="middle" x="365.12" y="-118.5" font-family="Arial" font-size="10.00">ApplicationView.hpp</text>
</a>
</g>
</g>
<!-- Node1&#45;&gt;Node10 -->
<g id="edge10_Node000001_Node000010" class="edge">
<title>Node1&#45;&gt;Node10</title>
<g id="a_edge10_Node000001_Node000010"><a xlink:title=" ">
<path fill="none" stroke="#63b8ff" d="M1083.36,-175.07C963.05,-170.54 670.25,-157.67 426.12,-132 423.25,-131.7 420.3,-131.36 417.33,-131"/>
<polygon fill="#63b8ff" stroke="#63b8ff" points="1083.16,-178.56 1093.28,-175.43 1083.42,-171.57 1083.16,-178.56"/>
</a>
</g>
</g>
<!-- Node11 -->
<g id="Node000011" class="node">
<title>Node11</title>
<g id="a_Node000011"><a xlink:href="../../d6/db8/a00158.html" target="_top" xlink:title="Header file for the EditProduceDate screen class.">
<polygon fill="white" stroke="#666666" points="543.62,-132 434.62,-132 434.62,-112 543.62,-112 543.62,-132"/>
<text text-anchor="middle" x="489.12" y="-118.5" font-family="Arial" font-size="10.00">EditProduceDate.hpp</text>
</a>
</g>
</g>
<!-- Node1&#45;&gt;Node11 -->
<g id="edge11_Node000001_Node000011" class="edge">
<title>Node1&#45;&gt;Node11</title>
<g id="a_edge11_Node000001_Node000011"><a xlink:title=" ">
<path fill="none" stroke="#63b8ff" d="M1083.45,-173.9C979.2,-167.83 747.5,-153.11 553.12,-132 550.11,-131.67 547.02,-131.31 543.91,-130.94"/>
<polygon fill="#63b8ff" stroke="#63b8ff" points="1083.23,-177.39 1093.42,-174.47 1083.64,-170.4 1083.23,-177.39"/>
</a>
</g>
</g>
<!-- Node12 -->
<g id="Node000012" class="node">
<title>Node12</title>
<g id="a_Node000012"><a xlink:href="../../d6/d7d/a00161.html" target="_top" xlink:title="Header file for the EditSaleDate screen class.">
<polygon fill="white" stroke="#666666" points="654.38,-132 561.88,-132 561.88,-112 654.38,-112 654.38,-132"/>
<text text-anchor="middle" x="608.12" y="-118.5" font-family="Arial" font-size="10.00">EditSaleDate.hpp</text>
</a>
</g>
</g>
<!-- Node1&#45;&gt;Node12 -->
<g id="edge12_Node000001_Node000012" class="edge">
<title>Node1&#45;&gt;Node12</title>
<g id="a_edge12_Node000001_Node000012"><a xlink:title=" ">
<path fill="none" stroke="#63b8ff" d="M1083.28,-172.96C994.21,-166.23 814.6,-151.53 663.12,-132 660.34,-131.64 657.48,-131.25 654.6,-130.83"/>
<polygon fill="#63b8ff" stroke="#63b8ff" points="1082.97,-176.44 1093.21,-173.7 1083.5,-169.46 1082.97,-176.44"/>
</a>
</g>
</g>
<!-- Node13 -->
<g id="Node000013" class="node">
<title>Node13</title>
<g id="a_Node000013"><a xlink:href="../../db/ddf/a00164.html" target="_top" xlink:title="Header file for the FirmwareVersion class.">
<polygon fill="white" stroke="#666666" points="779.88,-132 672.38,-132 672.38,-112 779.88,-112 779.88,-132"/>
<text text-anchor="middle" x="726.12" y="-118.5" font-family="Arial" font-size="10.00">FirmwareVersion.hpp</text>
</a>
</g>
</g>
<!-- Node1&#45;&gt;Node13 -->
<g id="edge13_Node000001_Node000013" class="edge">
<title>Node1&#45;&gt;Node13</title>
<g id="a_edge13_Node000001_Node000013"><a xlink:title=" ">
<path fill="none" stroke="#63b8ff" d="M1083.88,-170.14C1014.87,-161.52 893.21,-146.13 789.12,-132 786.17,-131.6 783.14,-131.18 780.07,-130.76"/>
<polygon fill="#63b8ff" stroke="#63b8ff" points="1083.04,-173.56 1093.4,-171.33 1083.91,-166.62 1083.04,-173.56"/>
</a>
</g>
</g>
<!-- Node14 -->
<g id="Node000014" class="node">
<title>Node14</title>
<g id="a_Node000014"><a xlink:href="../../dc/de6/a00167.html" target="_top" xlink:title="Declaration of the HardwareVersion screen class.">
<polygon fill="white" stroke="#666666" points="906.62,-132 797.62,-132 797.62,-112 906.62,-112 906.62,-132"/>
<text text-anchor="middle" x="852.12" y="-118.5" font-family="Arial" font-size="10.00">HardwareVersion.hpp</text>
</a>
</g>
</g>
<!-- Node1&#45;&gt;Node14 -->
<g id="edge14_Node000001_Node000014" class="edge">
<title>Node1&#45;&gt;Node14</title>
<g id="a_edge14_Node000001_Node000014"><a xlink:title=" ">
<path fill="none" stroke="#63b8ff" d="M1083.78,-166.59C1031.22,-156.7 952.92,-141.96 902.18,-132.42"/>
<polygon fill="#63b8ff" stroke="#63b8ff" points="1082.95,-169.99 1093.42,-168.4 1084.24,-163.11 1082.95,-169.99"/>
</a>
</g>
</g>
<!-- Node15 -->
<g id="Node000015" class="node">
<title>Node15</title>
<g id="a_Node000015"><a xlink:href="../../d7/dce/a00143.html" target="_top" xlink:title="Declaration of the MenuBase class, which represents a base class for menu screens in the UI.">
<polygon fill="white" stroke="#666666" points="1005.75,-132 924.5,-132 924.5,-112 1005.75,-112 1005.75,-132"/>
<text text-anchor="middle" x="965.12" y="-118.5" font-family="Arial" font-size="10.00">MenuBase.hpp</text>
</a>
</g>
</g>
<!-- Node1&#45;&gt;Node15 -->
<g id="edge15_Node000001_Node000015" class="edge">
<title>Node1&#45;&gt;Node15</title>
<g id="a_edge15_Node000001_Node000015"><a xlink:title=" ">
<path fill="none" stroke="#63b8ff" d="M1098.22,-164.31C1066.81,-154.56 1024.14,-141.32 995.67,-132.48"/>
<polygon fill="#63b8ff" stroke="#63b8ff" points="1096.78,-167.52 1107.37,-167.15 1098.86,-160.84 1096.78,-167.52"/>
</a>
</g>
</g>
<!-- Node20 -->
<g id="Node000020" class="node">
<title>Node20</title>
<g id="a_Node000020"><a xlink:href="../../d7/d25/a00182.html" target="_top" xlink:title="Header file for the PeripheralInputs class.">
<polygon fill="white" stroke="#666666" points="1128.75,-132 1023.5,-132 1023.5,-112 1128.75,-112 1128.75,-132"/>
<text text-anchor="middle" x="1076.12" y="-118.5" font-family="Arial" font-size="10.00">PeripheralInputs.hpp</text>
</a>
</g>
</g>
<!-- Node1&#45;&gt;Node20 -->
<g id="edge20_Node000001_Node000020" class="edge">
<title>Node1&#45;&gt;Node20</title>
<g id="a_edge20_Node000001_Node000020"><a xlink:title=" ">
<path fill="none" stroke="#63b8ff" d="M1119.44,-160.13C1108.72,-150.94 1095.88,-139.93 1086.97,-132.3"/>
<polygon fill="#63b8ff" stroke="#63b8ff" points="1117.13,-162.76 1127,-166.61 1121.69,-157.44 1117.13,-162.76"/>
</a>
</g>
</g>
<!-- Node21 -->
<g id="Node000021" class="node">
<title>Node21</title>
<g id="a_Node000021"><a xlink:href="../../de/df3/a00185.html" target="_top" xlink:title="Declaration of the PeripheralOutputs class for managing peripheral output screens.">
<polygon fill="white" stroke="#666666" points="1259.5,-132 1146.75,-132 1146.75,-112 1259.5,-112 1259.5,-132"/>
<text text-anchor="middle" x="1203.12" y="-118.5" font-family="Arial" font-size="10.00">PeripheralOutputs.hpp</text>
</a>
</g>
</g>
<!-- Node1&#45;&gt;Node21 -->
<g id="edge21_Node000001_Node000021" class="edge">
<title>Node1&#45;&gt;Node21</title>
<g id="a_edge21_Node000001_Node000021"><a xlink:title=" ">
<path fill="none" stroke="#63b8ff" d="M1158.8,-160.4C1169.74,-151.17 1182.97,-140.01 1192.1,-132.3"/>
<polygon fill="#63b8ff" stroke="#63b8ff" points="1156.82,-157.49 1151.43,-166.62 1161.33,-162.84 1156.82,-157.49"/>
</a>
</g>
</g>
<!-- Node22 -->
<g id="Node000022" class="node">
<title>Node22</title>
<g id="a_Node000022"><a xlink:href="../../da/d15/a00188.html" target="_top" xlink:title="Declaration of the ProduceDateVeiw class.">
<polygon fill="white" stroke="#666666" points="1389.12,-132 1277.12,-132 1277.12,-112 1389.12,-112 1389.12,-132"/>
<text text-anchor="middle" x="1333.12" y="-118.5" font-family="Arial" font-size="10.00">ProduceDateVeiw.hpp</text>
</a>
</g>
</g>
<!-- Node1&#45;&gt;Node22 -->
<g id="edge22_Node000001_Node000022" class="edge">
<title>Node1&#45;&gt;Node22</title>
<g id="a_edge22_Node000001_Node000022"><a xlink:title=" ">
<path fill="none" stroke="#63b8ff" d="M1183.82,-164.56C1218.91,-154.79 1267.05,-141.39 1299.07,-132.48"/>
<polygon fill="#63b8ff" stroke="#63b8ff" points="1183.07,-161.13 1174.38,-167.19 1184.95,-167.88 1183.07,-161.13"/>
</a>
</g>
</g>
<!-- Node23 -->
<g id="Node000023" class="node">
<title>Node23</title>
<g id="a_Node000023"><a xlink:href="../../d9/dd0/a00191.html" target="_top" xlink:title="Declaration of the RemoteIOWork screen class for the UI module.">
<polygon fill="white" stroke="#666666" points="1509.25,-132 1407,-132 1407,-112 1509.25,-112 1509.25,-132"/>
<text text-anchor="middle" x="1458.12" y="-118.5" font-family="Arial" font-size="10.00">RemoteIOWork.hpp</text>
</a>
</g>
</g>
<!-- Node1&#45;&gt;Node23 -->
<g id="edge23_Node000001_Node000023" class="edge">
<title>Node1&#45;&gt;Node23</title>
<g id="a_edge23_Node000001_Node000023"><a xlink:title=" ">
<path fill="none" stroke="#63b8ff" d="M1194.58,-167.61C1254.34,-157.5 1348.65,-141.53 1406.76,-131.69"/>
<polygon fill="#63b8ff" stroke="#63b8ff" points="1194.25,-164.12 1184.97,-169.24 1195.42,-171.02 1194.25,-164.12"/>
</a>
</g>
</g>
<!-- Node24 -->
<g id="Node000024" class="node">
<title>Node24</title>
<g id="a_Node000024"><a xlink:href="../../dc/d57/a00194.html" target="_top" xlink:title="Declaration of the ResetState screen class.">
<polygon fill="white" stroke="#666666" points="1611.25,-132 1527,-132 1527,-112 1611.25,-112 1611.25,-132"/>
<text text-anchor="middle" x="1569.12" y="-118.5" font-family="Arial" font-size="10.00">ResetState.hpp</text>
</a>
</g>
</g>
<!-- Node1&#45;&gt;Node24 -->
<g id="edge24_Node000001_Node000024" class="edge">
<title>Node1&#45;&gt;Node24</title>
<g id="a_edge24_Node000001_Node000024"><a xlink:title=" ">
<path fill="none" stroke="#63b8ff" d="M1194.93,-171.37C1268.95,-163.68 1403.63,-148.89 1518.12,-132 1520.88,-131.59 1523.72,-131.15 1526.58,-130.69"/>
<polygon fill="#63b8ff" stroke="#63b8ff" points="1194.67,-167.88 1185.08,-172.39 1195.39,-174.84 1194.67,-167.88"/>
</a>
</g>
</g>
<!-- Node25 -->
<g id="Node000025" class="node">
<title>Node25</title>
<g id="a_Node000025"><a xlink:href="../../de/db1/a00197.html" target="_top" xlink:title="Declaration of the SaleDateVeiw class, which represents a screen for displaying sale dates.">
<polygon fill="white" stroke="#666666" points="1724.88,-132 1629.38,-132 1629.38,-112 1724.88,-112 1724.88,-132"/>
<text text-anchor="middle" x="1677.12" y="-118.5" font-family="Arial" font-size="10.00">SaleDateVeiw.hpp</text>
</a>
</g>
</g>
<!-- Node1&#45;&gt;Node25 -->
<g id="edge25_Node000001_Node000025" class="edge">
<title>Node1&#45;&gt;Node25</title>
<g id="a_edge25_Node000001_Node000025"><a xlink:title=" ">
<path fill="none" stroke="#63b8ff" d="M1194.57,-172.96C1284.21,-166.17 1466.46,-151.3 1620.12,-132 1623.01,-131.64 1625.97,-131.24 1628.95,-130.83"/>
<polygon fill="#63b8ff" stroke="#63b8ff" points="1194.55,-169.45 1184.84,-173.69 1195.07,-176.43 1194.55,-169.45"/>
</a>
</g>
</g>
<!-- Node26 -->
<g id="Node000026" class="node">
<title>Node26</title>
<g id="a_Node000026"><a xlink:href="../../d7/d9a/a00152.html" target="_top" xlink:title="Header file for the ScreenManager class in the UI namespace.">
<polygon fill="white" stroke="#666666" points="1845.62,-132 1742.62,-132 1742.62,-112 1845.62,-112 1845.62,-132"/>
<text text-anchor="middle" x="1794.12" y="-118.5" font-family="Arial" font-size="10.00">ScreenManager.hpp</text>
</a>
</g>
</g>
<!-- Node1&#45;&gt;Node26 -->
<g id="edge26_Node000001_Node000026" class="edge">
<title>Node1&#45;&gt;Node26</title>
<g id="a_edge26_Node000001_Node000026"><a xlink:title=" ">
<path fill="none" stroke="#63b8ff" d="M1194.55,-174.17C1299.9,-168.49 1536.18,-154.3 1734.12,-132 1736.85,-131.69 1739.63,-131.36 1742.45,-131"/>
<polygon fill="#63b8ff" stroke="#63b8ff" points="1194.58,-170.66 1184.78,-174.69 1194.95,-177.65 1194.58,-170.66"/>
</a>
</g>
</g>
<!-- Node27 -->
<g id="Node000027" class="node">
<title>Node27</title>
<g id="a_Node000027"><a xlink:href="../../d3/db1/a00200.html" target="_top" xlink:title="Declaration of the SerialNumber screen class.">
<polygon fill="white" stroke="#666666" points="1958.12,-132 1864.12,-132 1864.12,-112 1958.12,-112 1958.12,-132"/>
<text text-anchor="middle" x="1911.12" y="-118.5" font-family="Arial" font-size="10.00">SerialNumber.hpp</text>
</a>
</g>
</g>
<!-- Node1&#45;&gt;Node27 -->
<g id="edge27_Node000001_Node000027" class="edge">
<title>Node1&#45;&gt;Node27</title>
<g id="a_edge27_Node000001_Node000027"><a xlink:title=" ">
<path fill="none" stroke="#63b8ff" d="M1194.71,-175.34C1315.3,-171.32 1609.85,-159.35 1855.12,-132 1857.96,-131.68 1860.88,-131.32 1863.81,-130.93"/>
<polygon fill="#63b8ff" stroke="#63b8ff" points="1194.64,-171.84 1184.76,-175.66 1194.87,-178.83 1194.64,-171.84"/>
</a>
</g>
</g>
<!-- Node28 -->
<g id="Node000028" class="node">
<title>Node28</title>
<g id="a_Node000028"><a xlink:href="../../de/d79/a00203.html" target="_top" xlink:title="Declaration of the Welcome screen class for the UI.">
<polygon fill="white" stroke="#666666" points="2051.75,-132 1976.5,-132 1976.5,-112 2051.75,-112 2051.75,-132"/>
<text text-anchor="middle" x="2014.12" y="-118.5" font-family="Arial" font-size="10.00">Welcome.hpp</text>
</a>
</g>
</g>
<!-- Node1&#45;&gt;Node28 -->
<g id="edge28_Node000001_Node000028" class="edge">
<title>Node1&#45;&gt;Node28</title>
<g id="a_edge28_Node000001_Node000028"><a xlink:title=" ">
<path fill="none" stroke="#63b8ff" d="M1194.8,-176.56C1328.47,-174.95 1677.91,-167.39 1967.12,-132 1970.09,-131.64 1973.16,-131.2 1976.23,-130.71"/>
<polygon fill="#63b8ff" stroke="#63b8ff" points="1194.77,-173.06 1184.81,-176.68 1194.85,-180.06 1194.77,-173.06"/>
</a>
</g>
</g>
<!-- Node29 -->
<g id="Node000029" class="node">
<title>Node29</title>
<g id="a_Node000029"><a xlink:href="../../d5/df1/a00206.html" target="_top" xlink:title="Declaration of the WorkScreen class.">
<polygon fill="white" stroke="#666666" points="2158.12,-132 2070.12,-132 2070.12,-112 2158.12,-112 2158.12,-132"/>
<text text-anchor="middle" x="2114.12" y="-118.5" font-family="Arial" font-size="10.00">WorkScreen.hpp</text>
</a>
</g>
</g>
<!-- Node1&#45;&gt;Node29 -->
<g id="edge29_Node000001_Node000029" class="edge">
<title>Node1&#45;&gt;Node29</title>
<g id="a_edge29_Node000001_Node000029"><a xlink:title=" ">
<path fill="none" stroke="#63b8ff" d="M1194.52,-176.6C1338.08,-175.06 1733.83,-167.65 2061.12,-132 2063.91,-131.7 2066.77,-131.34 2069.65,-130.95"/>
<polygon fill="#63b8ff" stroke="#63b8ff" points="1194.89,-173.09 1184.93,-176.7 1194.96,-180.09 1194.89,-173.09"/>
</a>
</g>
</g>
<!-- Node2&#45;&gt;Node3 -->
<g id="edge2_Node000002_Node000003" class="edge">
<title>Node2&#45;&gt;Node3</title>
<g id="a_edge2_Node000002_Node000003"><a xlink:title=" ">
<path fill="none" stroke="#63b8ff" d="M199.77,-108.43C166.88,-98.67 121.99,-85.35 92.07,-76.48"/>
<polygon fill="#63b8ff" stroke="#63b8ff" points="198.39,-111.67 208.97,-111.16 200.38,-104.96 198.39,-111.67"/>
</a>
</g>
</g>
<!-- Node4 -->
<g id="Node000004" class="node">
<title>Node4</title>
<g id="a_Node000004"><a xlink:href="../../df/d03/a00062.html" target="_top" xlink:title="This file contains the definition of the ApplicationNone class.">
<polygon fill="white" stroke="#666666" points="244.12,-76 138.12,-76 138.12,-56 244.12,-56 244.12,-76"/>
<text text-anchor="middle" x="191.12" y="-62.5" font-family="Arial" font-size="10.00">ApplicationNone.hpp</text>
</a>
</g>
</g>
<!-- Node2&#45;&gt;Node4 -->
<g id="edge3_Node000002_Node000004" class="edge">
<title>Node2&#45;&gt;Node4</title>
<g id="a_edge3_Node000002_Node000004"><a xlink:title=" ">
<path fill="none" stroke="#63b8ff" d="M225.39,-103.29C216.89,-94.28 206.9,-83.7 199.91,-76.3"/>
<polygon fill="#63b8ff" stroke="#63b8ff" points="222.79,-105.63 232.2,-110.49 227.88,-100.82 222.79,-105.63"/>
</a>
</g>
</g>
<!-- Node5 -->
<g id="Node000005" class="node">
<title>Node5</title>
<g id="a_Node000005"><a xlink:href="../../d0/d89/a00071.html" target="_top" xlink:title="Declaration of the RemoteIOBase class, which extends the ApplicationBase class.">
<polygon fill="white" stroke="#666666" points="364.25,-76 262,-76 262,-56 364.25,-56 364.25,-76"/>
<text text-anchor="middle" x="313.12" y="-62.5" font-family="Arial" font-size="10.00">RemoteIOBase.hpp</text>
</a>
</g>
</g>
<!-- Node2&#45;&gt;Node5 -->
<g id="edge4_Node000002_Node000005" class="edge">
<title>Node2&#45;&gt;Node5</title>
<g id="a_edge4_Node000002_Node000005"><a xlink:title=" ">
<path fill="none" stroke="#63b8ff" d="M263.58,-104.68C275.8,-95.39 290.66,-84.09 300.9,-76.3"/>
<polygon fill="#63b8ff" stroke="#63b8ff" points="261.54,-101.84 255.7,-110.68 265.78,-107.41 261.54,-101.84"/>
</a>
</g>
</g>
<!-- Node8 -->
<g id="Node000008" class="node">
<title>Node8</title>
<g id="a_Node000008"><a xlink:href="../../db/db6/a00074.html" target="_top" xlink:title="Header file for the RotationTableParallel class.">
<polygon fill="white" stroke="#666666" points="509.62,-76 382.62,-76 382.62,-56 509.62,-56 509.62,-76"/>
<text text-anchor="middle" x="446.12" y="-62.5" font-family="Arial" font-size="10.00">RotationTableParallel.hpp</text>
</a>
</g>
</g>
<!-- Node2&#45;&gt;Node8 -->
<g id="edge7_Node000002_Node000008" class="edge">
<title>Node2&#45;&gt;Node8</title>
<g id="a_edge7_Node000002_Node000008"><a xlink:title=" ">
<path fill="none" stroke="#63b8ff" d="M288.64,-108.69C325.59,-98.91 376.49,-85.43 410.31,-76.48"/>
<polygon fill="#63b8ff" stroke="#63b8ff" points="287.89,-105.26 279.12,-111.21 289.68,-112.03 287.89,-105.26"/>
</a>
</g>
</g>
<!-- Node9 -->
<g id="Node000009" class="node">
<title>Node9</title>
<g id="a_Node000009"><a xlink:href="../../d1/d09/a00077.html" target="_top" xlink:title="Declaration of the RotationTableSerial class.">
<polygon fill="white" stroke="#666666" points="646.88,-76 527.38,-76 527.38,-56 646.88,-56 646.88,-76"/>
<text text-anchor="middle" x="587.12" y="-62.5" font-family="Arial" font-size="10.00">RotationTableSerial.hpp</text>
</a>
</g>
</g>
<!-- Node2&#45;&gt;Node9 -->
<g id="edge8_Node000002_Node000009" class="edge">
<title>Node2&#45;&gt;Node9</title>
<g id="a_edge8_Node000002_Node000009"><a xlink:title=" ">
<path fill="none" stroke="#63b8ff" d="M305.92,-111.02C369.14,-101.12 465.24,-86.08 527.11,-76.39"/>
<polygon fill="#63b8ff" stroke="#63b8ff" points="305.73,-107.5 296.39,-112.51 306.81,-114.42 305.73,-107.5"/>
</a>
</g>
</g>
<!-- Node6 -->
<g id="Node000006" class="node">
<title>Node6</title>
<g id="a_Node000006"><a xlink:href="../../de/de1/a00065.html" target="_top" xlink:title="Header file for the RemoteIO57600 class.">
<polygon fill="white" stroke="#666666" points="305.12,-20 199.12,-20 199.12,0 305.12,0 305.12,-20"/>
<text text-anchor="middle" x="252.12" y="-6.5" font-family="Arial" font-size="10.00">RemoteIO57600.hpp</text>
</a>
</g>
</g>
<!-- Node5&#45;&gt;Node6 -->
<g id="edge5_Node000005_Node000006" class="edge">
<title>Node5&#45;&gt;Node6</title>
<g id="a_edge5_Node000005_Node000006"><a xlink:title=" ">
<path fill="none" stroke="#63b8ff" d="M294.06,-48.13C283.69,-38.94 271.25,-27.93 262.63,-20.3"/>
<polygon fill="#63b8ff" stroke="#63b8ff" points="291.56,-50.58 301.37,-54.59 296.2,-45.34 291.56,-50.58"/>
</a>
</g>
</g>
<!-- Node7 -->
<g id="Node000007" class="node">
<title>Node7</title>
<g id="a_Node000007"><a xlink:href="../../da/d24/a00068.html" target="_top" xlink:title="Header file for the RemoteIO9600 class.">
<polygon fill="white" stroke="#666666" points="423.5,-20 322.75,-20 322.75,0 423.5,0 423.5,-20"/>
<text text-anchor="middle" x="373.12" y="-6.5" font-family="Arial" font-size="10.00">RemoteIO9600.hpp</text>
</a>
</g>
</g>
<!-- Node5&#45;&gt;Node7 -->
<g id="edge6_Node000005_Node000007" class="edge">
<title>Node5&#45;&gt;Node7</title>
<g id="a_edge6_Node000005_Node000007"><a xlink:title=" ">
<path fill="none" stroke="#63b8ff" d="M331.87,-48.13C342.08,-38.94 354.31,-27.93 362.79,-20.3"/>
<polygon fill="#63b8ff" stroke="#63b8ff" points="329.79,-45.29 324.7,-54.58 334.48,-50.49 329.79,-45.29"/>
</a>
</g>
</g>
<!-- Node16 -->
<g id="Node000016" class="node">
<title>Node16</title>
<g id="a_Node000016"><a xlink:href="../../d5/dcb/a00170.html" target="_top" xlink:title="Declaration of the MenuMain class, which represents the main menu screen in the UI.">
<polygon fill="white" stroke="#666666" points="787,-76 707.25,-76 707.25,-56 787,-56 787,-76"/>
<text text-anchor="middle" x="747.12" y="-62.5" font-family="Arial" font-size="10.00">MenuMain.hpp</text>
</a>
</g>
</g>
<!-- Node15&#45;&gt;Node16 -->
<g id="edge16_Node000015_Node000016" class="edge">
<title>Node15&#45;&gt;Node16</title>
<g id="a_edge16_Node000015_Node000016"><a xlink:title=" ">
<path fill="none" stroke="#63b8ff" d="M915.92,-108.81C876.37,-99.01 821.6,-85.45 785.3,-76.46"/>
<polygon fill="#63b8ff" stroke="#63b8ff" points="914.89,-112.16 925.43,-111.17 916.57,-105.37 914.89,-112.16"/>
</a>
</g>
</g>
<!-- Node17 -->
<g id="Node000017" class="node">
<title>Node17</title>
<g id="a_Node000017"><a xlink:href="../../d7/d3f/a00173.html" target="_top" xlink:title="Header file for the MenuSelectApplication class.">
<polygon fill="white" stroke="#666666" points="939.38,-76 804.88,-76 804.88,-56 939.38,-56 939.38,-76"/>
<text text-anchor="middle" x="872.12" y="-62.5" font-family="Arial" font-size="10.00">MenuSelectApplication.hpp</text>
</a>
</g>
</g>
<!-- Node15&#45;&gt;Node17 -->
<g id="edge17_Node000015_Node000017" class="edge">
<title>Node15&#45;&gt;Node17</title>
<g id="a_edge17_Node000015_Node000017"><a xlink:title=" ">
<path fill="none" stroke="#63b8ff" d="M939.43,-106.08C923.13,-96.62 902.54,-84.66 888.45,-76.48"/>
<polygon fill="#63b8ff" stroke="#63b8ff" points="937.21,-108.84 947.62,-110.83 940.73,-102.79 937.21,-108.84"/>
</a>
</g>
</g>
<!-- Node18 -->
<g id="Node000018" class="node">
<title>Node18</title>
<g id="a_Node000018"><a xlink:href="../../d5/de9/a00176.html" target="_top" xlink:title="Declaration of the MenuSystemSetup class, which is a part of the UI Screen module.">
<polygon fill="white" stroke="#666666" points="1075.12,-76 957.12,-76 957.12,-56 1075.12,-56 1075.12,-76"/>
<text text-anchor="middle" x="1016.12" y="-62.5" font-family="Arial" font-size="10.00">MenuSystemSetup.hpp</text>
</a>
</g>
</g>
<!-- Node15&#45;&gt;Node18 -->
<g id="edge18_Node000015_Node000018" class="edge">
<title>Node15&#45;&gt;Node18</title>
<g id="a_edge18_Node000015_Node000018"><a xlink:title=" ">
<path fill="none" stroke="#63b8ff" d="M981.86,-103.29C990.36,-94.28 1000.35,-83.7 1007.34,-76.3"/>
<polygon fill="#63b8ff" stroke="#63b8ff" points="979.37,-100.82 975.05,-110.49 984.46,-105.63 979.37,-100.82"/>
</a>
</g>
</g>
<!-- Node19 -->
<g id="Node000019" class="node">
<title>Node19</title>
<g id="a_Node000019"><a xlink:href="../../db/dd9/a00179.html" target="_top" xlink:title="Declaration of the MenuSystemView class.">
<polygon fill="white" stroke="#666666" points="1206.88,-76 1093.38,-76 1093.38,-56 1206.88,-56 1206.88,-76"/>
<text text-anchor="middle" x="1150.12" y="-62.5" font-family="Arial" font-size="10.00">MenuSystemView.hpp</text>
</a>
</g>
</g>
<!-- Node15&#45;&gt;Node19 -->
<g id="edge19_Node000015_Node000019" class="edge">
<title>Node15&#45;&gt;Node19</title>
<g id="a_edge19_Node000015_Node000019"><a xlink:title=" ">
<path fill="none" stroke="#63b8ff" d="M1008.18,-108.43C1041.61,-98.67 1087.24,-85.35 1117.65,-76.48"/>
<polygon fill="#63b8ff" stroke="#63b8ff" points="1007.42,-105.01 998.8,-111.17 1009.38,-111.73 1007.42,-105.01"/>
</a>
</g>
</g>
</g>
</svg>
