<?xml version="1.0" encoding="UTF-8" standalone="no"?>
<!DOCTYPE svg PUBLIC "-//W3C//DTD SVG 1.1//EN"
 "http://www.w3.org/Graphics/SVG/1.1/DTD/svg11.dtd">
<!-- Generated by graphviz version 13.1.0 (20250701.0955)
 -->
<!-- Title: Lib::Digi::API::NodeInfo::Discovery Pages: 1 -->
<svg width="171pt" height="60pt"
 viewBox="0.00 0.00 171.00 60.00" xmlns="http://www.w3.org/2000/svg" xmlns:xlink="http://www.w3.org/1999/xlink">
<g id="graph0" class="graph" transform="scale(1 1) rotate(0) translate(4 56)">
<title>Lib::Digi::API::NodeInfo::Discovery</title>
<!-- Node1 -->
<g id="Node000001" class="node">
<title>Node1</title>
<g id="a_Node000001"><a xlink:title="Discovery information.">
<polygon fill="#999999" stroke="none" points="162.5,-52 0,-52 0,0 162.5,0 162.5,-52"/>
<text xml:space="preserve" text-anchor="start" x="4" y="-38.5" font-family="Helvetica,sans-Serif" font-size="10.00">Lib::Digi::API::NodeInfo::Discovery</text>
<text xml:space="preserve" text-anchor="start" x="25.5" y="-22.5" font-family="Helvetica,sans-Serif" font-size="10.00">+</text>
<text xml:space="preserve" text-anchor="start" x="57" y="-22.5" font-family="Helvetica,sans-Serif" font-size="10.00">nodeIdentifier</text>
<text xml:space="preserve" text-anchor="start" x="79.75" y="-6.5" font-family="Helvetica,sans-Serif" font-size="10.00"> </text>
<polygon fill="#666666" stroke="#666666" points="0,-34 0,-34 162.5,-34 162.5,-34 0,-34"/>
<polygon fill="#666666" stroke="#666666" points="0,-18 0,-18 55,-18 55,-18 0,-18"/>
<polygon fill="#666666" stroke="#666666" points="55,-18 55,-18 162.5,-18 162.5,-18 55,-18"/>
<polygon fill="none" stroke="#666666" points="0,0 0,-52 162.5,-52 162.5,0 0,0"/>
</a>
</g>
</g>
</g>
</svg>
