<?xml version="1.0" encoding="UTF-8" standalone="no"?>
<!DOCTYPE svg PUBLIC "-//W3C//DTD SVG 1.1//EN"
 "http://www.w3.org/Graphics/SVG/1.1/DTD/svg11.dtd">
<!-- Generated by graphviz version 13.1.0 (20250701.0955)
 -->
<!-- Title: Lib::Digi::Core::Frame0x8b Pages: 1 -->
<svg width="134pt" height="124pt"
 viewBox="0.00 0.00 134.00 124.00" xmlns="http://www.w3.org/2000/svg" xmlns:xlink="http://www.w3.org/1999/xlink">
<g id="graph0" class="graph" transform="scale(1 1) rotate(0) translate(4 120)">
<title>Lib::Digi::Core::Frame0x8b</title>
<!-- Node1 -->
<g id="Node000001" class="node">
<title>Node1</title>
<g id="a_Node000001"><a xlink:title="Frame0x8b: Extended Transmit Status Response.">
<polygon fill="#999999" stroke="none" points="125.75,-116 0,-116 0,0 125.75,0 125.75,-116"/>
<text xml:space="preserve" text-anchor="start" x="4" y="-102.5" font-family="Helvetica,sans-Serif" font-size="10.00">Lib::Digi::Core::Frame0x8b</text>
<text xml:space="preserve" text-anchor="start" x="9.56" y="-86.5" font-family="Helvetica,sans-Serif" font-size="10.00">+</text>
<text xml:space="preserve" text-anchor="start" x="25.12" y="-86.5" font-family="Helvetica,sans-Serif" font-size="10.00">frameId</text>
<text xml:space="preserve" text-anchor="start" x="9.56" y="-70.5" font-family="Helvetica,sans-Serif" font-size="10.00">+</text>
<text xml:space="preserve" text-anchor="start" x="25.12" y="-70.5" font-family="Helvetica,sans-Serif" font-size="10.00">srcAddr16</text>
<text xml:space="preserve" text-anchor="start" x="9.56" y="-54.5" font-family="Helvetica,sans-Serif" font-size="10.00">+</text>
<text xml:space="preserve" text-anchor="start" x="25.12" y="-54.5" font-family="Helvetica,sans-Serif" font-size="10.00">transmitRetryCount</text>
<text xml:space="preserve" text-anchor="start" x="9.56" y="-38.5" font-family="Helvetica,sans-Serif" font-size="10.00">+</text>
<text xml:space="preserve" text-anchor="start" x="25.12" y="-38.5" font-family="Helvetica,sans-Serif" font-size="10.00">deliveryStatus</text>
<text xml:space="preserve" text-anchor="start" x="9.56" y="-22.5" font-family="Helvetica,sans-Serif" font-size="10.00">+</text>
<text xml:space="preserve" text-anchor="start" x="25.12" y="-22.5" font-family="Helvetica,sans-Serif" font-size="10.00">discoveryStatus</text>
<text xml:space="preserve" text-anchor="start" x="9.56" y="-6.5" font-family="Helvetica,sans-Serif" font-size="10.00">+</text>
<text xml:space="preserve" text-anchor="start" x="25.12" y="-6.5" font-family="Helvetica,sans-Serif" font-size="10.00">Frame0x8b()</text>
<polygon fill="#666666" stroke="#666666" points="0,-98 0,-98 125.75,-98 125.75,-98 0,-98"/>
<polygon fill="#666666" stroke="#666666" points="0,-18 0,-18 23.12,-18 23.12,-18 0,-18"/>
<polygon fill="#666666" stroke="#666666" points="23.12,-18 23.12,-18 125.75,-18 125.75,-18 23.12,-18"/>
<polygon fill="none" stroke="#666666" points="0,0 0,-116 125.75,-116 125.75,0 0,0"/>
</a>
</g>
</g>
</g>
</svg>
