<?xml version="1.0" encoding="UTF-8" standalone="no"?>
<!DOCTYPE svg PUBLIC "-//W3C//DTD SVG 1.1//EN"
 "http://www.w3.org/Graphics/SVG/1.1/DTD/svg11.dtd">
<!-- Generated by graphviz version 13.1.0 (20250701.0955)
 -->
<!-- Title: Lib::System::Version::Base Pages: 1 -->
<svg width="107pt" height="253pt"
 viewBox="0.00 0.00 107.00 253.00" xmlns="http://www.w3.org/2000/svg" xmlns:xlink="http://www.w3.org/1999/xlink">
<g id="graph0" class="graph" transform="scale(1 1) rotate(0) translate(4 249)">
<title>Lib::System::Version::Base</title>
<!-- Node1 -->
<g id="Node000001" class="node">
<title>Node1</title>
<g id="a_Node000001"><a xlink:title="Base class for version parsing and conversion.">
<polygon fill="#999999" stroke="none" points="99,-145 0,-145 0,0 99,0 99,-145"/>
<text xml:space="preserve" text-anchor="start" x="8.25" y="-132.45" font-family="Arial" font-size="9.00">Lib::System::Version</text>
<text xml:space="preserve" text-anchor="start" x="36.75" y="-121.95" font-family="Arial" font-size="9.00">::Base</text>
<text xml:space="preserve" text-anchor="start" x="48.38" y="-107.45" font-family="Arial" font-size="9.00"> </text>
<text xml:space="preserve" text-anchor="start" x="4" y="-92.95" font-family="Arial" font-size="9.00">+</text>
<text xml:space="preserve" text-anchor="start" x="13.25" y="-92.95" font-family="Arial" font-size="9.00">Base()</text>
<text xml:space="preserve" text-anchor="start" x="4" y="-78.45" font-family="Arial" font-size="9.00">+</text>
<text xml:space="preserve" text-anchor="start" x="13.25" y="-78.45" font-family="Arial" font-size="9.00">operator uint32_t()</text>
<text xml:space="preserve" text-anchor="start" x="4" y="-63.95" font-family="Arial" font-size="9.00">+</text>
<text xml:space="preserve" text-anchor="start" x="13.25" y="-63.95" font-family="Arial" font-size="9.00">operator std::string()</text>
<text xml:space="preserve" text-anchor="start" x="4" y="-49.45" font-family="Arial" font-size="9.00">+</text>
<text xml:space="preserve" text-anchor="start" x="13.25" y="-49.45" font-family="Arial" font-size="9.00">getDateTime()</text>
<text xml:space="preserve" text-anchor="start" x="4" y="-34.95" font-family="Arial" font-size="9.00">+</text>
<text xml:space="preserve" text-anchor="start" x="13.25" y="-34.95" font-family="Arial" font-size="9.00">stringToDateTime()</text>
<text xml:space="preserve" text-anchor="start" x="4" y="-20.45" font-family="Arial" font-size="9.00">+</text>
<text xml:space="preserve" text-anchor="start" x="13.25" y="-20.45" font-family="Arial" font-size="9.00">stringToU32()</text>
<text xml:space="preserve" text-anchor="start" x="4" y="-5.95" font-family="Arial" font-size="9.00">#</text>
<text xml:space="preserve" text-anchor="start" x="13.25" y="-5.95" font-family="Arial" font-size="9.00">subVersion()</text>
<polygon fill="#666666" stroke="#666666" points="0,-118 0,-118 99,-118 99,-118 0,-118"/>
<polygon fill="#666666" stroke="#666666" points="0,-103.5 0,-103.5 99,-103.5 99,-103.5 0,-103.5"/>
<polygon fill="none" stroke="#666666" points="0,0 0,-145 99,-145 99,0 0,0"/>
</a>
</g>
</g>
<!-- Node2 -->
<g id="Node000002" class="node">
<title>Node2</title>
<g id="a_Node000002"><a xlink:title=" ">
<polygon fill="white" stroke="none" points="70,-245 29,-245 29,-197.5 70,-197.5 70,-245"/>
<text xml:space="preserve" text-anchor="start" x="33" y="-232.45" font-family="Arial" font-size="9.00">uint32_t</text>
<text xml:space="preserve" text-anchor="start" x="48.38" y="-217.95" font-family="Arial" font-size="9.00"> </text>
<text xml:space="preserve" text-anchor="start" x="48.38" y="-203.45" font-family="Arial" font-size="9.00"> </text>
<polygon fill="#bfbfbf" stroke="#bfbfbf" points="29,-228.5 29,-228.5 70,-228.5 70,-228.5 29,-228.5"/>
<polygon fill="#bfbfbf" stroke="#bfbfbf" points="29,-214 29,-214 70,-214 70,-214 29,-214"/>
<polygon fill="none" stroke="#bfbfbf" points="29,-197.5 29,-245 70,-245 70,-197.5 29,-197.5"/>
</a>
</g>
</g>
<!-- Node2&#45;&gt;Node1 -->
<g id="edge1_Node000001_Node000002" class="edge">
<title>Node2&#45;&gt;Node1</title>
<g id="a_edge1_Node000001_Node000002"><a xlink:title=" ">
<path fill="none" stroke="#63b8ff" d="M49.5,-197.64C49.5,-186.57 49.5,-172.48 49.5,-157.79"/>
<polygon fill="none" stroke="#63b8ff" points="49.5,-157.69 45.5,-151.69 49.5,-145.69 53.5,-151.69 49.5,-157.69"/>
</a>
</g>
<text xml:space="preserve" text-anchor="start" x="52.5" y="-167.95" font-family="Arial" font-size="9.00" fill="grey">#version</text>
</g>
</g>
</svg>
