<?xml version="1.0" encoding="UTF-8" standalone="no"?>
<!DOCTYPE svg PUBLIC "-//W3C//DTD SVG 1.1//EN"
 "http://www.w3.org/Graphics/SVG/1.1/DTD/svg11.dtd">
<!-- Generated by graphviz version 13.1.0 (20250701.0955)
 -->
<!-- Title: Lib::Xbee::API::NodeInfo::MacAddress Pages: 1 -->
<svg width="135pt" height="195pt"
 viewBox="0.00 0.00 135.00 195.00" xmlns="http://www.w3.org/2000/svg" xmlns:xlink="http://www.w3.org/1999/xlink">
<g id="graph0" class="graph" transform="scale(1 1) rotate(0) translate(4 191)">
<title>Lib::Xbee::API::NodeInfo::MacAddress</title>
<!-- Node1 -->
<g id="Node000001" class="node">
<title>Node1</title>
<g id="a_Node000001"><a xlink:title="64&#45;bit MAC address (split into two 32&#45;bit values).">
<polygon fill="#999999" stroke="none" points="107.75,-72.5 0,-72.5 0,0 107.75,0 107.75,-72.5"/>
<text xml:space="preserve" text-anchor="start" x="4" y="-59.95" font-family="Arial" font-size="9.00">Lib::Xbee::API::NodeInfo</text>
<text xml:space="preserve" text-anchor="start" x="26.12" y="-49.45" font-family="Arial" font-size="9.00">::MacAddress</text>
<text xml:space="preserve" text-anchor="start" x="52.75" y="-34.95" font-family="Arial" font-size="9.00"> </text>
<text xml:space="preserve" text-anchor="start" x="7.69" y="-20.45" font-family="Arial" font-size="9.00">+</text>
<text xml:space="preserve" text-anchor="start" x="20.62" y="-20.45" font-family="Arial" font-size="9.00">MacAddress()</text>
<text xml:space="preserve" text-anchor="start" x="7.69" y="-5.95" font-family="Arial" font-size="9.00">+</text>
<text xml:space="preserve" text-anchor="start" x="20.62" y="-5.95" font-family="Arial" font-size="9.00">operator uint64_t()</text>
<polygon fill="#666666" stroke="#666666" points="0,-45.5 0,-45.5 107.75,-45.5 107.75,-45.5 0,-45.5"/>
<polygon fill="#666666" stroke="#666666" points="0,-31 0,-31 107.75,-31 107.75,-31 0,-31"/>
<polygon fill="none" stroke="#666666" points="0,0 0,-72.5 107.75,-72.5 107.75,0 0,0"/>
</a>
</g>
</g>
<!-- Node2 -->
<g id="Node000002" class="node">
<title>Node2</title>
<g id="a_Node000002"><a xlink:title=" ">
<polygon fill="white" stroke="none" points="74.38,-187 33.38,-187 33.38,-139.5 74.38,-139.5 74.38,-187"/>
<text xml:space="preserve" text-anchor="start" x="37.38" y="-174.45" font-family="Arial" font-size="9.00">uint32_t</text>
<text xml:space="preserve" text-anchor="start" x="52.75" y="-159.95" font-family="Arial" font-size="9.00"> </text>
<text xml:space="preserve" text-anchor="start" x="52.75" y="-145.45" font-family="Arial" font-size="9.00"> </text>
<polygon fill="#bfbfbf" stroke="#bfbfbf" points="33.38,-170.5 33.38,-170.5 74.38,-170.5 74.38,-170.5 33.38,-170.5"/>
<polygon fill="#bfbfbf" stroke="#bfbfbf" points="33.38,-156 33.38,-156 74.38,-156 74.38,-156 33.38,-156"/>
<polygon fill="none" stroke="#bfbfbf" points="33.38,-139.5 33.38,-187 74.38,-187 74.38,-139.5 33.38,-139.5"/>
</a>
</g>
</g>
<!-- Node2&#45;&gt;Node1 -->
<g id="edge1_Node000001_Node000002" class="edge">
<title>Node2&#45;&gt;Node1</title>
<g id="a_edge1_Node000001_Node000002"><a xlink:title=" ">
<path fill="none" stroke="#63b8ff" d="M53.88,-139.61C53.88,-124.48 53.88,-104 53.88,-85.33"/>
<polygon fill="none" stroke="#63b8ff" points="53.88,-85.38 49.88,-79.38 53.88,-73.38 57.88,-79.38 53.88,-85.38"/>
</a>
</g>
<text xml:space="preserve" text-anchor="start" x="56.88" y="-109.95" font-family="Arial" font-size="9.00" fill="grey">+leastSignificant</text>
<text xml:space="preserve" text-anchor="start" x="56.88" y="-95.45" font-family="Arial" font-size="9.00" fill="grey">+mostSignificant</text>
</g>
</g>
</svg>
