<?xml version="1.0" encoding="UTF-8" standalone="no"?>
<!DOCTYPE svg PUBLIC "-//W3C//DTD SVG 1.1//EN"
 "http://www.w3.org/Graphics/SVG/1.1/DTD/svg11.dtd">
<!-- Generated by graphviz version 13.1.0 (20250701.0955)
 -->
<!-- Title: Lib::Helper::Integrator::add Pages: 1 -->
<svg width="414pt" height="37pt"
 viewBox="0.00 0.00 414.00 37.00" xmlns="http://www.w3.org/2000/svg" xmlns:xlink="http://www.w3.org/1999/xlink">
<g id="graph0" class="graph" transform="scale(1 1) rotate(0) translate(4 33)">
<title>Lib::Helper::Integrator::add</title>
<!-- Node1 -->
<g id="Node000001" class="node">
<title>Node1</title>
<g id="a_Node000001"><a xlink:title="Adds a new value to the buffer.">
<polygon fill="#999999" stroke="#666666" points="405.75,-23.75 281,-23.75 281,-5.25 405.75,-5.25 405.75,-23.75"/>
<text xml:space="preserve" text-anchor="middle" x="343.38" y="-11.2" font-family="Arial" font-size="9.00">Lib::Helper::Integrator::add</text>
</a>
</g>
</g>
<!-- Node2 -->
<g id="Node000002" class="node">
<title>Node2</title>
<g id="a_Node000002"><a xlink:href="../../d5/d12/a01799.html#a6f8209db7b3d1c8f4ebbd7527b57ca06" target="_top" xlink:title="Adds a value and returns the updated average.">
<polygon fill="white" stroke="#666666" points="245,-29 140.5,-29 140.5,0 245,0 245,-29"/>
<text xml:space="preserve" text-anchor="start" x="148.5" y="-16.45" font-family="Arial" font-size="9.00">Lib::Helper::Integrator</text>
<text xml:space="preserve" text-anchor="middle" x="192.75" y="-5.95" font-family="Arial" font-size="9.00">::process</text>
</a>
</g>
</g>
<!-- Node1&#45;&gt;Node2 -->
<g id="edge1_Node000001_Node000002" class="edge">
<title>Node1&#45;&gt;Node2</title>
<g id="a_edge1_Node000001_Node000002"><a xlink:title=" ">
<path fill="none" stroke="#63b8ff" d="M269.2,-14.5C261.07,-14.5 252.93,-14.5 245.16,-14.5"/>
<polygon fill="#63b8ff" stroke="#63b8ff" points="269.12,-18 279.12,-14.5 269.12,-11 269.12,-18"/>
</a>
</g>
</g>
<!-- Node3 -->
<g id="Node000003" class="node">
<title>Node3</title>
<g id="a_Node000003"><a xlink:href="../../d5/d12/a01799.html#a5584f7868dfdac90fea7da1facf7b2a5" target="_top" xlink:title="Function call operator for adding a value and returning the updated average.">
<polygon fill="white" stroke="#666666" points="104.5,-29 0,-29 0,0 104.5,0 104.5,-29"/>
<text xml:space="preserve" text-anchor="start" x="8" y="-16.45" font-family="Arial" font-size="9.00">Lib::Helper::Integrator</text>
<text xml:space="preserve" text-anchor="middle" x="52.25" y="-5.95" font-family="Arial" font-size="9.00">::operator()</text>
</a>
</g>
</g>
<!-- Node2&#45;&gt;Node3 -->
<g id="edge2_Node000002_Node000003" class="edge">
<title>Node2&#45;&gt;Node3</title>
<g id="a_edge2_Node000002_Node000003"><a xlink:title=" ">
<path fill="none" stroke="#63b8ff" d="M128.92,-14.5C120.87,-14.5 112.71,-14.5 104.87,-14.5"/>
<polygon fill="#63b8ff" stroke="#63b8ff" points="128.66,-18 138.66,-14.5 128.66,-11 128.66,-18"/>
</a>
</g>
</g>
</g>
</svg>
