<?xml version="1.0" encoding="UTF-8" standalone="no"?>
<!DOCTYPE svg PUBLIC "-//W3C//DTD SVG 1.1//EN"
 "http://www.w3.org/Graphics/SVG/1.1/DTD/svg11.dtd">
<!-- Generated by graphviz version 12.2.1 (20241206.2353)
 -->
<!-- Title: Lib::Digi::Core::Protocol::build Pages: 1 -->
<svg width="282pt" height="108pt"
 viewBox="0.00 0.00 281.50 108.00" xmlns="http://www.w3.org/2000/svg" xmlns:xlink="http://www.w3.org/1999/xlink">
<g id="graph0" class="graph" transform="scale(1 1) rotate(0) translate(4 104)">
<title>Lib::Digi::Core::Protocol::build</title>
<!-- Node1 -->
<g id="Node000001" class="node">
<title>Node1</title>
<g id="a_Node000001"><a xlink:title="Builds a Digi API frame from frame data.">
<polygon fill="#999999" stroke="#666666" points="121,-57 0,-57 0,-25 121,-25 121,-57"/>
<text text-anchor="start" x="8" y="-43.5" font-family="Helvetica,sans-Serif" font-size="10.00">Lib::Digi::Core::Protocol</text>
<text text-anchor="middle" x="60.5" y="-31.5" font-family="Helvetica,sans-Serif" font-size="10.00">::build</text>
</a>
</g>
</g>
<!-- Node2 -->
<g id="Node000002" class="node">
<title>Node2</title>
<g id="a_Node000002"><a xlink:href="../../dc/db6/a01212.html#a351c65a43c7c238be702f175a631d6b5" target="_top" xlink:title="Appends a sequence of bytes to the buffer.">
<polygon fill="white" stroke="#666666" points="273.5,-82 157,-82 157,-50 273.5,-50 273.5,-82"/>
<text text-anchor="start" x="165" y="-68.5" font-family="Helvetica,sans-Serif" font-size="10.00">Lib::Digi::Core::DigiApi</text>
<text text-anchor="middle" x="215.25" y="-56.5" font-family="Helvetica,sans-Serif" font-size="10.00">FrameBuffer::append</text>
</a>
</g>
</g>
<!-- Node1&#45;&gt;Node2 -->
<g id="edge1_Node000001_Node000002" class="edge">
<title>Node1&#45;&gt;Node2</title>
<g id="a_edge1_Node000001_Node000002"><a xlink:title=" ">
<path fill="none" stroke="#63b8ff" d="M121.43,-50.81C129.39,-52.11 137.59,-53.45 145.67,-54.78"/>
<polygon fill="#63b8ff" stroke="#63b8ff" points="145.06,-58.22 155.49,-56.38 146.19,-51.31 145.06,-58.22"/>
</a>
</g>
</g>
<!-- Node3 -->
<g id="Node000003" class="node">
<title>Node3</title>
<g id="a_Node000003"><a xlink:href="../../dc/db6/a01212.html#aedec84aa3dabb03790a2dd65f5a3fbe8" target="_top" xlink:title="Clears the buffer by setting all elements to zero and resetting the size.">
<polygon fill="white" stroke="#666666" points="273.5,-32 157,-32 157,0 273.5,0 273.5,-32"/>
<text text-anchor="start" x="165" y="-18.5" font-family="Helvetica,sans-Serif" font-size="10.00">Lib::Digi::Core::DigiApi</text>
<text text-anchor="middle" x="215.25" y="-6.5" font-family="Helvetica,sans-Serif" font-size="10.00">FrameBuffer::clear</text>
</a>
</g>
</g>
<!-- Node1&#45;&gt;Node3 -->
<g id="edge3_Node000001_Node000003" class="edge">
<title>Node1&#45;&gt;Node3</title>
<g id="a_edge3_Node000001_Node000003"><a xlink:title=" ">
<path fill="none" stroke="#63b8ff" d="M121.43,-31.19C129.39,-29.89 137.59,-28.55 145.67,-27.22"/>
<polygon fill="#63b8ff" stroke="#63b8ff" points="146.19,-30.69 155.49,-25.62 145.06,-23.78 146.19,-30.69"/>
</a>
</g>
</g>
<!-- Node2&#45;&gt;Node2 -->
<g id="edge2_Node000002_Node000002" class="edge">
<title>Node2&#45;&gt;Node2</title>
<g id="a_edge2_Node000002_Node000002"><a xlink:title=" ">
<path fill="none" stroke="#63b8ff" d="M187.62,-82.44C182.47,-91.58 191.67,-100 215.25,-100 228.14,-100 236.74,-97.48 241.04,-93.71"/>
<polygon fill="#63b8ff" stroke="#63b8ff" points="244.48,-94.37 242.63,-83.94 237.57,-93.24 244.48,-94.37"/>
</a>
</g>
</g>
</g>
</svg>
