<?xml version="1.0" encoding="UTF-8" standalone="no"?>
<!DOCTYPE svg PUBLIC "-//W3C//DTD SVG 1.1//EN"
 "http://www.w3.org/Graphics/SVG/1.1/DTD/svg11.dtd">
<!-- Generated by graphviz version 13.1.0 (20250701.0955)
 -->
<!-- Title: Lib::USB::SerialPortRepeaterBase Pages: 1 -->
<svg width="167pt" height="84pt"
 viewBox="0.00 0.00 167.00 84.00" xmlns="http://www.w3.org/2000/svg" xmlns:xlink="http://www.w3.org/1999/xlink">
<g id="graph0" class="graph" transform="scale(1 1) rotate(0) translate(4 80)">
<title>Lib::USB::SerialPortRepeaterBase</title>
<!-- Node1 -->
<g id="Node000001" class="node">
<title>Node1</title>
<g id="a_Node000001"><a xlink:title="Base class for serial port repeater functionality.">
<polygon fill="#999999" stroke="none" points="158.75,-76 0,-76 0,-56 158.75,-56 158.75,-76"/>
<text xml:space="preserve" text-anchor="start" x="4" y="-62.5" font-family="Helvetica,sans-Serif" font-size="10.00">Lib::USB::SerialPortRepeaterBase</text>
<polygon fill="none" stroke="#666666" points="0,-56 0,-76 158.75,-76 158.75,-56 0,-56"/>
</a>
</g>
</g>
<!-- Node2 -->
<g id="Node000002" class="node">
<title>Node2</title>
<g id="a_Node000002"><a xlink:href="../../d1/dea/class_serial_port_repeater.html" target="_top" xlink:title="SerialPortRepeater for USB serial port repeating in embedded systems.">
<polygon fill="white" stroke="none" points="124.62,-20 34.12,-20 34.12,0 124.62,0 124.62,-20"/>
<text xml:space="preserve" text-anchor="start" x="38.12" y="-6.5" font-family="Helvetica,sans-Serif" font-size="10.00">SerialPortRepeater</text>
<polygon fill="none" stroke="#666666" points="34.12,0 34.12,-20 124.62,-20 124.62,0 34.12,0"/>
</a>
</g>
</g>
<!-- Node1&#45;&gt;Node2 -->
<g id="edge1_Node000001_Node000002" class="edge">
<title>Node1&#45;&gt;Node2</title>
<g id="a_edge1_Node000001_Node000002"><a xlink:title=" ">
<path fill="none" stroke="#63b8ff" d="M79.38,-44.61C79.38,-36.02 79.38,-26.47 79.38,-19.75"/>
<polygon fill="none" stroke="#63b8ff" points="75.88,-44.57 79.38,-54.57 82.88,-44.57 75.88,-44.57"/>
</a>
</g>
</g>
</g>
</svg>
