<?xml version="1.0" encoding="UTF-8" standalone="no"?>
<!DOCTYPE svg PUBLIC "-//W3C//DTD SVG 1.1//EN"
 "http://www.w3.org/Graphics/SVG/1.1/DTD/svg11.dtd">
<!-- Generated by graphviz version 12.2.1 (20241206.2353)
 -->
<!-- Title: RemoteIOWork.hpp Pages: 1 -->
<svg width="509pt" height="264pt"
 viewBox="0.00 0.00 509.09 264.00" xmlns="http://www.w3.org/2000/svg" xmlns:xlink="http://www.w3.org/1999/xlink">
<g id="graph0" class="graph" transform="scale(1 1) rotate(0) translate(4 260)">
<title>RemoteIOWork.hpp</title>
<!-- Node1 -->
<g id="Node000001" class="node">
<title>Node1</title>
<g id="a_Node000001"><a xlink:title="Declaration of the RemoteIOWork screen class for the UI module.">
<polygon fill="#999999" stroke="#666666" points="442.12,-256 339.88,-256 339.88,-236 442.12,-236 442.12,-256"/>
<text text-anchor="middle" x="391" y="-242.5" font-family="Arial" font-size="10.00">RemoteIOWork.hpp</text>
</a>
</g>
</g>
<!-- Node2 -->
<g id="Node000002" class="node">
<title>Node2</title>
<g id="a_Node000002"><a xlink:href="../../d6/d7d/a00161.html" target="_top" xlink:title="Defines the ScreenBase class for UI components.">
<polygon fill="white" stroke="#666666" points="450.38,-200 331.62,-200 331.62,-168 450.38,-168 450.38,-200"/>
<text text-anchor="start" x="339.62" y="-186.5" font-family="Arial" font-size="10.00">Project/UI/Components</text>
<text text-anchor="middle" x="391" y="-174.5" font-family="Arial" font-size="10.00">/ScreenBase.hpp</text>
</a>
</g>
</g>
<!-- Node1&#45;&gt;Node2 -->
<g id="edge1_Node000001_Node000002" class="edge">
<title>Node1&#45;&gt;Node2</title>
<g id="a_edge1_Node000001_Node000002"><a xlink:title=" ">
<path fill="none" stroke="#63b8ff" d="M391,-235.62C391,-229.1 391,-220.05 391,-211.4"/>
<polygon fill="#63b8ff" stroke="#63b8ff" points="394.5,-211.65 391,-201.65 387.5,-211.65 394.5,-211.65"/>
</a>
</g>
</g>
<!-- Node5 -->
<g id="Node000005" class="node">
<title>Node5</title>
<g id="a_Node000005"><a xlink:title=" ">
<polygon fill="#e0e0e0" stroke="#999999" points="357.62,-20 276.38,-20 276.38,0 357.62,0 357.62,-20"/>
<text text-anchor="middle" x="317" y="-6.5" font-family="Arial" font-size="10.00">FreeRTOS.hpp</text>
</a>
</g>
</g>
<!-- Node1&#45;&gt;Node5 -->
<g id="edge12_Node000001_Node000005" class="edge">
<title>Node1&#45;&gt;Node5</title>
<g id="a_edge12_Node000001_Node000005"><a xlink:title=" ">
<path fill="none" stroke="#63b8ff" d="M372.39,-235.6C357.75,-227.56 337.48,-214.94 323,-200 298.28,-174.49 290.7,-166.17 281,-132 270.72,-95.8 290.43,-53.73 304.52,-29.94"/>
<polygon fill="#63b8ff" stroke="#63b8ff" points="307.35,-32.01 309.67,-21.67 301.41,-28.31 307.35,-32.01"/>
</a>
</g>
</g>
<!-- Node6 -->
<g id="Node000006" class="node">
<title>Node6</title>
<g id="a_Node000006"><a xlink:title=" ">
<polygon fill="#e0e0e0" stroke="#999999" points="435.62,-20 384.38,-20 384.38,0 435.62,0 435.62,-20"/>
<text text-anchor="middle" x="410" y="-6.5" font-family="Arial" font-size="10.00">memory</text>
</a>
</g>
</g>
<!-- Node1&#45;&gt;Node6 -->
<g id="edge13_Node000001_Node000006" class="edge">
<title>Node1&#45;&gt;Node6</title>
<g id="a_edge13_Node000001_Node000006"><a xlink:title=" ">
<path fill="none" stroke="#63b8ff" d="M410,-235.52C424.66,-227.52 444.78,-215 459,-200 483.13,-174.56 489.79,-165.83 499,-132 510.99,-87.95 464.97,-47.57 434.66,-26.43"/>
<polygon fill="#63b8ff" stroke="#63b8ff" points="436.98,-23.77 426.73,-21.11 433.08,-29.58 436.98,-23.77"/>
</a>
</g>
</g>
<!-- Node3 -->
<g id="Node000003" class="node">
<title>Node3</title>
<g id="a_Node000003"><a xlink:href="../../d0/dc2/a00104.html" target="_top" xlink:title="This file contains the declaration of the Display class for the BSP (Board Support Package).">
<polygon fill="white" stroke="#666666" points="414,-132 290,-132 290,-112 414,-112 414,-132"/>
<text text-anchor="middle" x="352" y="-118.5" font-family="Arial" font-size="10.00">Project/BSP/Display.hpp</text>
</a>
</g>
</g>
<!-- Node2&#45;&gt;Node3 -->
<g id="edge2_Node000002_Node000003" class="edge">
<title>Node2&#45;&gt;Node3</title>
<g id="a_edge2_Node000002_Node000003"><a xlink:title=" ">
<path fill="none" stroke="#63b8ff" d="M380.96,-167.55C375.88,-159.74 369.67,-150.19 364.31,-141.94"/>
<polygon fill="#63b8ff" stroke="#63b8ff" points="367.32,-140.15 358.94,-133.68 361.46,-143.97 367.32,-140.15"/>
</a>
</g>
</g>
<!-- Node10 -->
<g id="Node000010" class="node">
<title>Node10</title>
<g id="a_Node000010"><a xlink:title=" ">
<polygon fill="#e0e0e0" stroke="#999999" points="490,-132 432,-132 432,-112 490,-112 490,-132"/>
<text text-anchor="middle" x="461" y="-118.5" font-family="Arial" font-size="10.00">functional</text>
</a>
</g>
</g>
<!-- Node2&#45;&gt;Node10 -->
<g id="edge11_Node000002_Node000010" class="edge">
<title>Node2&#45;&gt;Node10</title>
<g id="a_edge11_Node000002_Node000010"><a xlink:title=" ">
<path fill="none" stroke="#63b8ff" d="M409.03,-167.55C418.95,-159.04 431.28,-148.48 441.44,-139.77"/>
<polygon fill="#63b8ff" stroke="#63b8ff" points="443.56,-142.56 448.87,-133.39 439,-137.24 443.56,-142.56"/>
</a>
</g>
</g>
<!-- Node4 -->
<g id="Node000004" class="node">
<title>Node4</title>
<g id="a_Node000004"><a xlink:href="../../df/d98/a00107.html" target="_top" xlink:title="This file contains the declaration of the Keyboard class for handling keyboard input and button event...">
<polygon fill="white" stroke="#666666" points="382,-76 306,-76 306,-56 382,-56 382,-76"/>
<text text-anchor="middle" x="344" y="-62.5" font-family="Arial" font-size="10.00">Keyboard.hpp</text>
</a>
</g>
</g>
<!-- Node3&#45;&gt;Node4 -->
<g id="edge3_Node000003_Node000004" class="edge">
<title>Node3&#45;&gt;Node4</title>
<g id="a_edge3_Node000003_Node000004"><a xlink:title=" ">
<path fill="none" stroke="#63b8ff" d="M350.61,-111.59C349.62,-104.93 348.26,-95.75 347.03,-87.44"/>
<polygon fill="#63b8ff" stroke="#63b8ff" points="350.53,-87.17 345.6,-77.8 343.6,-88.2 350.53,-87.17"/>
</a>
</g>
</g>
<!-- Node3&#45;&gt;Node6 -->
<g id="edge10_Node000003_Node000006" class="edge">
<title>Node3&#45;&gt;Node6</title>
<g id="a_edge10_Node000003_Node000006"><a xlink:title=" ">
<path fill="none" stroke="#63b8ff" d="M362.36,-111.58C371.14,-103.07 383.48,-89.8 391,-76 398.59,-62.08 403.46,-44.78 406.36,-31.53"/>
<polygon fill="#63b8ff" stroke="#63b8ff" points="409.78,-32.28 408.28,-21.79 402.92,-30.93 409.78,-32.28"/>
</a>
</g>
</g>
<!-- Node7 -->
<g id="Node000007" class="node">
<title>Node7</title>
<g id="a_Node000007"><a xlink:href="../../d3/d00/a00113.html" target="_top" xlink:title="This file contains the declaration of the Led class, which is responsible for controlling an LED.">
<polygon fill="white" stroke="#666666" points="234.25,-76 183.75,-76 183.75,-56 234.25,-56 234.25,-76"/>
<text text-anchor="middle" x="209" y="-62.5" font-family="Arial" font-size="10.00">Led.hpp</text>
</a>
</g>
</g>
<!-- Node3&#45;&gt;Node7 -->
<g id="edge6_Node000003_Node000007" class="edge">
<title>Node3&#45;&gt;Node7</title>
<g id="a_edge6_Node000003_Node000007"><a xlink:title=" ">
<path fill="none" stroke="#63b8ff" d="M327.09,-111.59C304.27,-102.97 270.22,-90.12 244.54,-80.42"/>
<polygon fill="#63b8ff" stroke="#63b8ff" points="246.11,-77.27 235.52,-77.01 243.64,-83.82 246.11,-77.27"/>
</a>
</g>
</g>
<!-- Node4&#45;&gt;Node5 -->
<g id="edge4_Node000004_Node000005" class="edge">
<title>Node4&#45;&gt;Node5</title>
<g id="a_edge4_Node000004_Node000005"><a xlink:title=" ">
<path fill="none" stroke="#63b8ff" d="M339.3,-55.59C335.85,-48.7 331.05,-39.1 326.79,-30.57"/>
<polygon fill="#63b8ff" stroke="#63b8ff" points="329.93,-29.03 322.33,-21.65 323.67,-32.16 329.93,-29.03"/>
</a>
</g>
</g>
<!-- Node4&#45;&gt;Node6 -->
<g id="edge5_Node000004_Node000006" class="edge">
<title>Node4&#45;&gt;Node6</title>
<g id="a_edge5_Node000004_Node000006"><a xlink:title=" ">
<path fill="none" stroke="#63b8ff" d="M355.5,-55.59C364.96,-47.85 378.6,-36.69 389.87,-27.47"/>
<polygon fill="#63b8ff" stroke="#63b8ff" points="391.94,-30.3 397.46,-21.26 387.51,-24.88 391.94,-30.3"/>
</a>
</g>
</g>
<!-- Node7&#45;&gt;Node5 -->
<g id="edge7_Node000007_Node000005" class="edge">
<title>Node7&#45;&gt;Node5</title>
<g id="a_edge7_Node000007_Node000005"><a xlink:title=" ">
<path fill="none" stroke="#63b8ff" d="M227.81,-55.59C244.36,-47.32 268.71,-35.14 287.79,-25.6"/>
<polygon fill="#63b8ff" stroke="#63b8ff" points="289.31,-28.76 296.69,-21.16 286.18,-22.5 289.31,-28.76"/>
</a>
</g>
</g>
<!-- Node8 -->
<g id="Node000008" class="node">
<title>Node8</title>
<g id="a_Node000008"><a xlink:title=" ">
<polygon fill="#e0e0e0" stroke="#999999" points="142,-20 0,-20 0,0 142,0 142,-20"/>
<text text-anchor="middle" x="71" y="-6.5" font-family="Arial" font-size="10.00">Lib/BSP/DeviceManager.hpp</text>
</a>
</g>
</g>
<!-- Node7&#45;&gt;Node8 -->
<g id="edge8_Node000007_Node000008" class="edge">
<title>Node7&#45;&gt;Node8</title>
<g id="a_edge8_Node000007_Node000008"><a xlink:title=" ">
<path fill="none" stroke="#63b8ff" d="M184.96,-55.59C163.03,-47.01 130.37,-34.23 105.63,-24.55"/>
<polygon fill="#63b8ff" stroke="#63b8ff" points="107.22,-21.42 96.63,-21.03 104.67,-27.93 107.22,-21.42"/>
</a>
</g>
</g>
<!-- Node9 -->
<g id="Node000009" class="node">
<title>Node9</title>
<g id="a_Node000009"><a xlink:title=" ">
<polygon fill="#e0e0e0" stroke="#999999" points="257.88,-20 160.12,-20 160.12,0 257.88,0 257.88,-20"/>
<text text-anchor="middle" x="209" y="-6.5" font-family="Arial" font-size="10.00">Lib/HAL/GPIO.hpp</text>
</a>
</g>
</g>
<!-- Node7&#45;&gt;Node9 -->
<g id="edge9_Node000007_Node000009" class="edge">
<title>Node7&#45;&gt;Node9</title>
<g id="a_edge9_Node000007_Node000009"><a xlink:title=" ">
<path fill="none" stroke="#63b8ff" d="M209,-55.59C209,-49.01 209,-39.96 209,-31.73"/>
<polygon fill="#63b8ff" stroke="#63b8ff" points="212.5,-31.81 209,-21.81 205.5,-31.81 212.5,-31.81"/>
</a>
</g>
</g>
</g>
</svg>
