<?xml version="1.0" encoding="UTF-8" standalone="no"?>
<!DOCTYPE svg PUBLIC "-//W3C//DTD SVG 1.1//EN"
 "http://www.w3.org/Graphics/SVG/1.1/DTD/svg11.dtd">
<!-- Generated by graphviz version 13.1.0 (20250701.0955)
 -->
<!-- Title: Lib::BSP::Ethercat::PDI::LAN9252::Interface::write Pages: 1 -->
<svg width="589pt" height="176pt"
 viewBox="0.00 0.00 589.00 176.00" xmlns="http://www.w3.org/2000/svg" xmlns:xlink="http://www.w3.org/1999/xlink">
<g id="graph0" class="graph" transform="scale(1 1) rotate(0) translate(4 172)">
<title>Lib::BSP::Ethercat::PDI::LAN9252::Interface::write</title>
<!-- Node1 -->
<g id="Node000001" class="node">
<title>Node1</title>
<g id="a_Node000001"><a xlink:title="Writes data to SPI.">
<polygon fill="#999999" stroke="#666666" points="580.75,-75 450.75,-75 450.75,-31 580.75,-31 580.75,-75"/>
<text xml:space="preserve" text-anchor="start" x="458.75" y="-61.5" font-family="Helvetica,sans-Serif" font-size="10.00">Lib::BSP::Ethercat</text>
<text xml:space="preserve" text-anchor="start" x="458.75" y="-49.5" font-family="Helvetica,sans-Serif" font-size="10.00">::PDI::LAN9252::Interface</text>
<text xml:space="preserve" text-anchor="middle" x="515.75" y="-37.5" font-family="Helvetica,sans-Serif" font-size="10.00">::write</text>
</a>
</g>
</g>
<!-- Node2 -->
<g id="Node000002" class="node">
<title>Node2</title>
<g id="a_Node000002"><a xlink:href="../../dd/d75/a01180.html#ae4a781a38e6d6acddc176baf0914ce37" target="_top" xlink:title="Writes a 32&#45;bit value to the specified register address.">
<polygon fill="white" stroke="#666666" points="414.75,-75 300.5,-75 300.5,-31 414.75,-31 414.75,-75"/>
<text xml:space="preserve" text-anchor="start" x="308.5" y="-61.5" font-family="Helvetica,sans-Serif" font-size="10.00">Lib::BSP::Ethercat</text>
<text xml:space="preserve" text-anchor="start" x="308.5" y="-49.5" font-family="Helvetica,sans-Serif" font-size="10.00">::PDI::LAN9252::Base</text>
<text xml:space="preserve" text-anchor="middle" x="357.62" y="-37.5" font-family="Helvetica,sans-Serif" font-size="10.00">::writeU32</text>
</a>
</g>
</g>
<!-- Node1&#45;&gt;Node2 -->
<g id="edge1_Node000001_Node000002" class="edge">
<title>Node1&#45;&gt;Node2</title>
<g id="a_edge1_Node000001_Node000002"><a xlink:title=" ">
<path fill="none" stroke="#63b8ff" d="M438.95,-53C430.85,-53 422.72,-53 414.9,-53"/>
<polygon fill="#63b8ff" stroke="#63b8ff" points="438.83,-56.5 448.83,-53 438.83,-49.5 438.83,-56.5"/>
</a>
</g>
</g>
<!-- Node3 -->
<g id="Node000003" class="node">
<title>Node3</title>
<g id="a_Node000003"><a xlink:href="../../dd/d75/a01180.html#a4fa478eeea98f4539ab21f48a7488be1" target="_top" xlink:title="Reads from a CSR register into the destination buffer.">
<polygon fill="white" stroke="#666666" points="264.5,-106 150.25,-106 150.25,-62 264.5,-62 264.5,-106"/>
<text xml:space="preserve" text-anchor="start" x="158.25" y="-92.5" font-family="Helvetica,sans-Serif" font-size="10.00">Lib::BSP::Ethercat</text>
<text xml:space="preserve" text-anchor="start" x="158.25" y="-80.5" font-family="Helvetica,sans-Serif" font-size="10.00">::PDI::LAN9252::Base</text>
<text xml:space="preserve" text-anchor="middle" x="207.38" y="-68.5" font-family="Helvetica,sans-Serif" font-size="10.00">::readCSR</text>
</a>
</g>
</g>
<!-- Node2&#45;&gt;Node3 -->
<g id="edge2_Node000002_Node000003" class="edge">
<title>Node2&#45;&gt;Node3</title>
<g id="a_edge2_Node000002_Node000003"><a xlink:title=" ">
<path fill="none" stroke="#63b8ff" d="M289.12,-67.12C280.95,-68.82 272.67,-70.56 264.69,-72.22"/>
<polygon fill="#63b8ff" stroke="#63b8ff" points="289.6,-70.59 298.67,-65.12 288.17,-63.74 289.6,-70.59"/>
</a>
</g>
</g>
<!-- Node6 -->
<g id="Node000006" class="node">
<title>Node6</title>
<g id="a_Node000006"><a xlink:href="../../dd/d75/a01180.html#ad8cce9148199365f88bcf8fe880dc0d6" target="_top" xlink:title="Writes to a CSR register.">
<polygon fill="white" stroke="#666666" points="264.5,-44 150.25,-44 150.25,0 264.5,0 264.5,-44"/>
<text xml:space="preserve" text-anchor="start" x="158.25" y="-30.5" font-family="Helvetica,sans-Serif" font-size="10.00">Lib::BSP::Ethercat</text>
<text xml:space="preserve" text-anchor="start" x="158.25" y="-18.5" font-family="Helvetica,sans-Serif" font-size="10.00">::PDI::LAN9252::Base</text>
<text xml:space="preserve" text-anchor="middle" x="207.38" y="-6.5" font-family="Helvetica,sans-Serif" font-size="10.00">::writeCSR</text>
</a>
</g>
</g>
<!-- Node2&#45;&gt;Node6 -->
<g id="edge5_Node000002_Node000006" class="edge">
<title>Node2&#45;&gt;Node6</title>
<g id="a_edge5_Node000002_Node000006"><a xlink:title=" ">
<path fill="none" stroke="#63b8ff" d="M289.12,-38.88C280.95,-37.18 272.67,-35.44 264.69,-33.78"/>
<polygon fill="#63b8ff" stroke="#63b8ff" points="288.17,-42.26 298.67,-40.88 289.6,-35.41 288.17,-42.26"/>
</a>
</g>
</g>
<!-- Node4 -->
<g id="Node000004" class="node">
<title>Node4</title>
<g id="a_Node000004"><a xlink:href="../../dd/d75/a01180.html#a42597a0a26e0b841c990fac2f0725181" target="_top" xlink:title="Reads the AL Event register.">
<polygon fill="white" stroke="#666666" points="114.25,-168 0,-168 0,-124 114.25,-124 114.25,-168"/>
<text xml:space="preserve" text-anchor="start" x="8" y="-154.5" font-family="Helvetica,sans-Serif" font-size="10.00">Lib::BSP::Ethercat</text>
<text xml:space="preserve" text-anchor="start" x="8" y="-142.5" font-family="Helvetica,sans-Serif" font-size="10.00">::PDI::LAN9252::Base</text>
<text xml:space="preserve" text-anchor="middle" x="57.13" y="-130.5" font-family="Helvetica,sans-Serif" font-size="10.00">::readAlEventReg</text>
</a>
</g>
</g>
<!-- Node3&#45;&gt;Node4 -->
<g id="edge3_Node000003_Node000004" class="edge">
<title>Node3&#45;&gt;Node4</title>
<g id="a_edge3_Node000003_Node000004"><a xlink:title=" ">
<path fill="none" stroke="#63b8ff" d="M142.3,-110.8C132.05,-115.08 121.54,-119.48 111.57,-123.65"/>
<polygon fill="#63b8ff" stroke="#63b8ff" points="143.58,-114.05 151.46,-106.97 140.88,-107.6 143.58,-114.05"/>
</a>
</g>
</g>
<!-- Node5 -->
<g id="Node000005" class="node">
<title>Node5</title>
<g id="a_Node000005"><a xlink:href="../../dd/d75/a01180.html#af8b078fe0e2d7c1db9836006806252b7" target="_top" xlink:title="Reads a register into the destination buffer.">
<polygon fill="white" stroke="#666666" points="114.25,-106 0,-106 0,-62 114.25,-62 114.25,-106"/>
<text xml:space="preserve" text-anchor="start" x="8" y="-92.5" font-family="Helvetica,sans-Serif" font-size="10.00">Lib::BSP::Ethercat</text>
<text xml:space="preserve" text-anchor="start" x="8" y="-80.5" font-family="Helvetica,sans-Serif" font-size="10.00">::PDI::LAN9252::Base</text>
<text xml:space="preserve" text-anchor="middle" x="57.13" y="-68.5" font-family="Helvetica,sans-Serif" font-size="10.00">::readReg</text>
</a>
</g>
</g>
<!-- Node3&#45;&gt;Node5 -->
<g id="edge4_Node000003_Node000005" class="edge">
<title>Node3&#45;&gt;Node5</title>
<g id="a_edge4_Node000003_Node000005"><a xlink:title=" ">
<path fill="none" stroke="#63b8ff" d="M138.59,-84C130.51,-84 122.33,-84 114.44,-84"/>
<polygon fill="#63b8ff" stroke="#63b8ff" points="138.39,-87.5 148.39,-84 138.39,-80.5 138.39,-87.5"/>
</a>
</g>
</g>
<!-- Node7 -->
<g id="Node000007" class="node">
<title>Node7</title>
<g id="a_Node000007"><a xlink:href="../../dd/d75/a01180.html#abe1062979188e4619258094a5697c132" target="_top" xlink:title="Writes data to a register from the source buffer.">
<polygon fill="white" stroke="#666666" points="114.25,-44 0,-44 0,0 114.25,0 114.25,-44"/>
<text xml:space="preserve" text-anchor="start" x="8" y="-30.5" font-family="Helvetica,sans-Serif" font-size="10.00">Lib::BSP::Ethercat</text>
<text xml:space="preserve" text-anchor="start" x="8" y="-18.5" font-family="Helvetica,sans-Serif" font-size="10.00">::PDI::LAN9252::Base</text>
<text xml:space="preserve" text-anchor="middle" x="57.13" y="-6.5" font-family="Helvetica,sans-Serif" font-size="10.00">::writeReg</text>
</a>
</g>
</g>
<!-- Node6&#45;&gt;Node7 -->
<g id="edge6_Node000006_Node000007" class="edge">
<title>Node6&#45;&gt;Node7</title>
<g id="a_edge6_Node000006_Node000007"><a xlink:title=" ">
<path fill="none" stroke="#63b8ff" d="M138.59,-22C130.51,-22 122.33,-22 114.44,-22"/>
<polygon fill="#63b8ff" stroke="#63b8ff" points="138.39,-25.5 148.39,-22 138.39,-18.5 138.39,-25.5"/>
</a>
</g>
</g>
</g>
</svg>
