<?xml version="1.0" encoding="UTF-8" standalone="no"?>
<!DOCTYPE svg PUBLIC "-//W3C//DTD SVG 1.1//EN"
 "http://www.w3.org/Graphics/SVG/1.1/DTD/svg11.dtd">
<!-- Generated by graphviz version 13.1.0 (20250701.0955)
 -->
<!-- Title: Canbus Layer Pages: 1 -->
<svg width="303pt" height="27pt"
 viewBox="0.00 0.00 303.00 27.00" xmlns="http://www.w3.org/2000/svg" xmlns:xlink="http://www.w3.org/1999/xlink">
<g id="graph0" class="graph" transform="scale(1 1) rotate(0) translate(4 22.5)">
<title>Canbus Layer</title>
<!-- Node1 -->
<g id="Node000001" class="node">
<title>Node1</title>
<g id="a_Node000001"><a xlink:title=" ">
<polygon fill="#999999" stroke="#666666" points="215.75,-18.5 142,-18.5 142,0 215.75,0 215.75,-18.5"/>
<text xml:space="preserve" text-anchor="middle" x="178.88" y="-5.95" font-family="Arial" font-size="9.00">Canbus Layer</text>
</a>
</g>
</g>
<!-- Node3 -->
<g id="Node000003" class="node">
<title>Node3</title>
<g id="a_Node000003"><a xlink:href="../../dd/da6/group___canbus_server.html" target="_top" xlink:title=" ">
<polygon fill="white" stroke="#666666" points="294.75,-18.5 251.75,-18.5 251.75,0 294.75,0 294.75,-18.5"/>
<text xml:space="preserve" text-anchor="middle" x="273.25" y="-5.95" font-family="Arial" font-size="9.00">Server</text>
</a>
</g>
</g>
<!-- Node1&#45;&gt;Node3 -->
<g id="edge2" class="edge">
<title>Node1&#45;&gt;Node3</title>
<path fill="none" stroke="black" d="M227.47,-9.25C235.84,-9.25 244.15,-9.25 251.3,-9.25"/>
<polygon fill="black" stroke="black" points="227.63,-5.75 217.63,-9.25 227.63,-12.75 227.63,-5.75"/>
</g>
<!-- Node2 -->
<g id="Node000002" class="node">
<title>Node2</title>
<g id="a_Node000002"><a xlink:href="../../d2/d99/group___communication.html" target="_top" xlink:title=" ">
<polygon fill="white" stroke="#666666" points="106,-18.5 0,-18.5 0,0 106,0 106,-18.5"/>
<text xml:space="preserve" text-anchor="middle" x="53" y="-5.95" font-family="Arial" font-size="9.00">Communication Layer</text>
</a>
</g>
</g>
<!-- Node2&#45;&gt;Node1 -->
<g id="edge1" class="edge">
<title>Node2&#45;&gt;Node1</title>
<path fill="none" stroke="black" d="M117.42,-9.25C125.69,-9.25 133.93,-9.25 141.54,-9.25"/>
<polygon fill="black" stroke="black" points="117.69,-5.75 107.69,-9.25 117.69,-12.75 117.69,-5.75"/>
</g>
</g>
</svg>
