<?xml version="1.0" encoding="UTF-8" standalone="no"?>
<!DOCTYPE svg PUBLIC "-//W3C//DTD SVG 1.1//EN"
 "http://www.w3.org/Graphics/SVG/1.1/DTD/svg11.dtd">
<!-- Generated by graphviz version 13.1.0 (20250701.0955)
 -->
<!-- Title: CAN Bus Layer Pages: 1 -->
<svg width="348pt" height="27pt"
 viewBox="0.00 0.00 348.00 27.00" xmlns="http://www.w3.org/2000/svg" xmlns:xlink="http://www.w3.org/1999/xlink">
<g id="graph0" class="graph" transform="scale(1 1) rotate(0) translate(4 22.5)">
<title>CAN Bus Layer</title>
<!-- Node1 -->
<g id="Node000001" class="node">
<title>Node1</title>
<g id="a_Node000001"><a xlink:title="CAN bus communication stack and protocol handling.">
<polygon fill="#999999" stroke="#666666" points="221,-18.5 142,-18.5 142,0 221,0 221,-18.5"/>
<text xml:space="preserve" text-anchor="middle" x="181.5" y="-5.95" font-family="Arial" font-size="9.00">CAN Bus Layer</text>
</a>
</g>
</g>
<!-- Node3 -->
<g id="Node000003" class="node">
<title>Node3</title>
<g id="a_Node000003"><a xlink:href="../../dd/da6/group___canbus_server.html" target="_top" xlink:title="Server&#45;side logic for CAN bus communication, including message routing and protocol management.">
<polygon fill="white" stroke="#666666" points="339.75,-18.5 257,-18.5 257,0 339.75,0 339.75,-18.5"/>
<text xml:space="preserve" text-anchor="middle" x="298.38" y="-5.95" font-family="Arial" font-size="9.00">CAN Bus Server</text>
</a>
</g>
</g>
<!-- Node1&#45;&gt;Node3 -->
<g id="edge2" class="edge">
<title>Node1&#45;&gt;Node3</title>
<path fill="none" stroke="black" d="M232.82,-9.25C240.75,-9.25 248.87,-9.25 256.56,-9.25"/>
<polygon fill="black" stroke="black" points="232.91,-5.75 222.9,-9.25 232.9,-12.75 232.91,-5.75"/>
</g>
<!-- Node2 -->
<g id="Node000002" class="node">
<title>Node2</title>
<g id="a_Node000002"><a xlink:href="../../d2/d99/group___communication.html" target="_top" xlink:title="Communication protocols and interfaces for external and internal data exchange.">
<polygon fill="white" stroke="#666666" points="106,-18.5 0,-18.5 0,0 106,0 106,-18.5"/>
<text xml:space="preserve" text-anchor="middle" x="53" y="-5.95" font-family="Arial" font-size="9.00">Communication Layer</text>
</a>
</g>
</g>
<!-- Node2&#45;&gt;Node1 -->
<g id="edge1" class="edge">
<title>Node2&#45;&gt;Node1</title>
<path fill="none" stroke="black" d="M117.67,-9.25C125.83,-9.25 133.98,-9.25 141.58,-9.25"/>
<polygon fill="black" stroke="black" points="117.7,-5.75 107.7,-9.25 117.7,-12.75 117.7,-5.75"/>
</g>
</g>
</svg>
