<?xml version="1.0" encoding="UTF-8" standalone="no"?>
<!DOCTYPE svg PUBLIC "-//W3C//DTD SVG 1.1//EN"
 "http://www.w3.org/Graphics/SVG/1.1/DTD/svg11.dtd">
<!-- Generated by graphviz version 13.1.0 (20250701.0955)
 -->
<!-- Title: Lib::Xbee::API::Service::Parameters::Data Pages: 1 -->
<svg width="153pt" height="307pt"
 viewBox="0.00 0.00 153.00 307.00" xmlns="http://www.w3.org/2000/svg" xmlns:xlink="http://www.w3.org/1999/xlink">
<g id="graph0" class="graph" transform="scale(1 1) rotate(0) translate(4 303)">
<title>Lib::Xbee::API::Service::Parameters::Data</title>
<!-- Node1 -->
<g id="Node000001" class="node">
<title>Node1</title>
<g id="a_Node000001"><a xlink:title="Data structure for Xbee parameters.">
<polygon fill="#999999" stroke="none" points="133.75,-174 11.5,-174 11.5,0 133.75,0 133.75,-174"/>
<text xml:space="preserve" text-anchor="start" x="26.12" y="-161.45" font-family="Arial" font-size="9.00">Lib::Xbee::API::Service</text>
<text xml:space="preserve" text-anchor="start" x="34.75" y="-150.95" font-family="Arial" font-size="9.00">::Parameters::Data</text>
<text xml:space="preserve" text-anchor="start" x="15.5" y="-136.45" font-family="Arial" font-size="9.00">+</text>
<text xml:space="preserve" text-anchor="start" x="24.75" y="-136.45" font-family="Arial" font-size="9.00">std::string nodeIdentifier</text>
<text xml:space="preserve" text-anchor="start" x="15.5" y="-121.95" font-family="Arial" font-size="9.00">+</text>
<text xml:space="preserve" text-anchor="start" x="24.75" y="-121.95" font-family="Arial" font-size="9.00">uint16_t panId</text>
<text xml:space="preserve" text-anchor="start" x="15.5" y="-107.45" font-family="Arial" font-size="9.00">+</text>
<text xml:space="preserve" text-anchor="start" x="24.75" y="-107.45" font-family="Arial" font-size="9.00">uint8_t channel</text>
<text xml:space="preserve" text-anchor="start" x="15.5" y="-92.95" font-family="Arial" font-size="9.00">+</text>
<text xml:space="preserve" text-anchor="start" x="24.75" y="-92.95" font-family="Arial" font-size="9.00">uint16_t firmwareVersion</text>
<text xml:space="preserve" text-anchor="start" x="15.5" y="-78.45" font-family="Arial" font-size="9.00">+</text>
<text xml:space="preserve" text-anchor="start" x="24.75" y="-78.45" font-family="Arial" font-size="9.00">uint16_t hardwareVersion</text>
<text xml:space="preserve" text-anchor="start" x="15.5" y="-63.95" font-family="Arial" font-size="9.00">+</text>
<text xml:space="preserve" text-anchor="start" x="24.75" y="-63.95" font-family="Arial" font-size="9.00">uint16_t ackFailures</text>
<text xml:space="preserve" text-anchor="start" x="15.5" y="-49.45" font-family="Arial" font-size="9.00">+</text>
<text xml:space="preserve" text-anchor="start" x="24.75" y="-49.45" font-family="Arial" font-size="9.00">uint16_t ccaFailures</text>
<text xml:space="preserve" text-anchor="start" x="15.5" y="-34.95" font-family="Arial" font-size="9.00">+</text>
<text xml:space="preserve" text-anchor="start" x="24.75" y="-34.95" font-family="Arial" font-size="9.00">uint16_t temperature</text>
<text xml:space="preserve" text-anchor="start" x="15.5" y="-20.45" font-family="Arial" font-size="9.00">+</text>
<text xml:space="preserve" text-anchor="start" x="24.75" y="-20.45" font-family="Arial" font-size="9.00">float voltage</text>
<text xml:space="preserve" text-anchor="start" x="71.5" y="-5.95" font-family="Arial" font-size="9.00"> </text>
<polygon fill="#666666" stroke="#666666" points="11.5,-147 11.5,-147 133.75,-147 133.75,-147 11.5,-147"/>
<polygon fill="#666666" stroke="#666666" points="11.5,-16.5 11.5,-16.5 22.75,-16.5 22.75,-16.5 11.5,-16.5"/>
<polygon fill="#666666" stroke="#666666" points="22.75,-16.5 22.75,-16.5 133.75,-16.5 133.75,-16.5 22.75,-16.5"/>
<polygon fill="none" stroke="#666666" points="11.5,0 11.5,-174 133.75,-174 133.75,0 11.5,0"/>
</a>
</g>
</g>
<!-- Node2 -->
<g id="Node000002" class="node">
<title>Node2</title>
<g id="a_Node000002"><a xlink:href="../../d4/d2b/struct_lib_1_1_xbee_1_1_a_p_i_1_1_service_1_1_parameters_1_1_data_1_1_serial_number.html" target="_top" xlink:title="Serial number structure.">
<polygon fill="white" stroke="none" points="145.25,-299 0,-299 0,-226.5 145.25,-226.5 145.25,-299"/>
<text xml:space="preserve" text-anchor="start" x="4" y="-286.45" font-family="Arial" font-size="9.00">Lib::Xbee::API::Service</text>
<text xml:space="preserve" text-anchor="start" x="4" y="-275.95" font-family="Arial" font-size="9.00">::Parameters::Data::SerialNumber</text>
<text xml:space="preserve" text-anchor="start" x="22.69" y="-261.45" font-family="Arial" font-size="9.00">+</text>
<text xml:space="preserve" text-anchor="start" x="50.62" y="-261.45" font-family="Arial" font-size="9.00">uint32_t low</text>
<text xml:space="preserve" text-anchor="start" x="22.69" y="-246.95" font-family="Arial" font-size="9.00">+</text>
<text xml:space="preserve" text-anchor="start" x="50.62" y="-246.95" font-family="Arial" font-size="9.00">uint32_t high</text>
<text xml:space="preserve" text-anchor="start" x="71.5" y="-232.45" font-family="Arial" font-size="9.00"> </text>
<polygon fill="#666666" stroke="#666666" points="0,-272 0,-272 145.25,-272 145.25,-272 0,-272"/>
<polygon fill="#666666" stroke="#666666" points="0,-243 0,-243 48.62,-243 48.62,-243 0,-243"/>
<polygon fill="#666666" stroke="#666666" points="48.62,-243 48.62,-243 145.25,-243 145.25,-243 48.62,-243"/>
<polygon fill="none" stroke="#666666" points="0,-226.5 0,-299 145.25,-299 145.25,-226.5 0,-226.5"/>
</a>
</g>
</g>
<!-- Node2&#45;&gt;Node1 -->
<g id="edge1_Node000001_Node000002" class="edge">
<title>Node2&#45;&gt;Node1</title>
<g id="a_edge1_Node000001_Node000002"><a xlink:title=" ">
<path fill="none" stroke="#63b8ff" d="M72.62,-226.59C72.62,-214.7 72.62,-200.78 72.62,-186.44"/>
<polygon fill="none" stroke="#63b8ff" points="72.63,-186.66 68.63,-180.66 72.63,-174.66 76.63,-180.66 72.63,-186.66"/>
</a>
</g>
<text xml:space="preserve" text-anchor="start" x="75.62" y="-196.95" font-family="Arial" font-size="9.00" fill="grey">+serialNumber</text>
</g>
</g>
</svg>
