<?xml version="1.0" encoding="UTF-8" standalone="no"?>
<!DOCTYPE svg PUBLIC "-//W3C//DTD SVG 1.1//EN"
 "http://www.w3.org/Graphics/SVG/1.1/DTD/svg11.dtd">
<!-- Generated by graphviz version 13.1.0 (20250701.0955)
 -->
<!-- Title: DAL::CanNode Pages: 1 -->
<svg width="118pt" height="112pt"
 viewBox="0.00 0.00 118.00 112.00" xmlns="http://www.w3.org/2000/svg" xmlns:xlink="http://www.w3.org/1999/xlink">
<g id="graph0" class="graph" transform="scale(1 1) rotate(0) translate(4 108)">
<title>DAL::CanNode</title>
<!-- Node1 -->
<g id="Node000001" class="node">
<title>Node1</title>
<g id="a_Node000001"><a xlink:title="CAN bus node state representation.">
<polygon fill="#999999" stroke="none" points="81.12,-18.5 10.88,-18.5 10.88,0 81.12,0 81.12,-18.5"/>
<text xml:space="preserve" text-anchor="start" x="14.88" y="-5.95" font-family="Arial" font-size="9.00">DAL::CanNode</text>
<polygon fill="none" stroke="#666666" points="10.88,0 10.88,-18.5 81.12,-18.5 81.12,0 10.88,0"/>
</a>
</g>
</g>
<!-- Node2 -->
<g id="Node000002" class="node">
<title>Node2</title>
<g id="a_Node000002"><a xlink:title=" ">
<polygon fill="white" stroke="none" points="26,-104 0,-104 0,-85.5 26,-85.5 26,-104"/>
<text xml:space="preserve" text-anchor="start" x="4" y="-91.45" font-family="Arial" font-size="9.00">bool</text>
<polygon fill="none" stroke="#bfbfbf" points="0,-85.5 0,-104 26,-104 26,-85.5 0,-85.5"/>
</a>
</g>
</g>
<!-- Node2&#45;&gt;Node1 -->
<g id="edge1_Node000001_Node000002" class="edge">
<title>Node2&#45;&gt;Node1</title>
<g id="a_edge1_Node000001_Node000002"><a xlink:title=" ">
<path fill="none" stroke="#63b8ff" d="M11.2,-85.87C9,-74.37 6.45,-52.61 14.25,-36.5 16.03,-32.82 18.6,-29.48 21.52,-26.5"/>
<polygon fill="none" stroke="#63b8ff" points="21.52,-26.5 23.6,-19.59 30.78,-18.86 28.69,-25.76 21.52,-26.5"/>
</a>
</g>
<text xml:space="preserve" text-anchor="start" x="17.25" y="-48.7" font-family="Arial" font-size="9.00" fill="grey">+isActive</text>
</g>
<!-- Node3 -->
<g id="Node000003" class="node">
<title>Node3</title>
<g id="a_Node000003"><a xlink:title=" ">
<polygon fill="white" stroke="none" points="99.5,-104 58.5,-104 58.5,-85.5 99.5,-85.5 99.5,-104"/>
<text xml:space="preserve" text-anchor="start" x="62.5" y="-91.45" font-family="Arial" font-size="9.00">uint64_t</text>
<polygon fill="none" stroke="#bfbfbf" points="58.5,-85.5 58.5,-104 99.5,-104 99.5,-85.5 58.5,-85.5"/>
</a>
</g>
</g>
<!-- Node3&#45;&gt;Node1 -->
<g id="edge2_Node000001_Node000003" class="edge">
<title>Node3&#45;&gt;Node1</title>
<g id="a_edge2_Node000001_Node000003"><a xlink:title=" ">
<path fill="none" stroke="#63b8ff" d="M75.94,-85.57C71.76,-74.43 63.98,-53.89 57,-36.5 56.2,-34.51 55.36,-32.45 54.51,-30.39"/>
<polygon fill="none" stroke="#63b8ff" points="54.52,-30.4 48.51,-26.41 49.88,-19.33 55.89,-23.32 54.52,-30.4"/>
</a>
</g>
<text xml:space="preserve" text-anchor="start" x="71.57" y="-55.95" font-family="Arial" font-size="9.00" fill="grey">+inputs</text>
<text xml:space="preserve" text-anchor="start" x="71.57" y="-41.45" font-family="Arial" font-size="9.00" fill="grey">+outputs</text>
</g>
</g>
</svg>
