<?xml version="1.0" encoding="UTF-8" standalone="no"?>
<!DOCTYPE svg PUBLIC "-//W3C//DTD SVG 1.1//EN"
 "http://www.w3.org/Graphics/SVG/1.1/DTD/svg11.dtd">
<!-- Generated by graphviz version 13.1.0 (20250701.0955)
 -->
<!-- Title: Lib::BSP::DigitalPeripheralBase Pages: 1 -->
<svg width="394pt" height="655pt"
 viewBox="0.00 0.00 394.00 655.00" xmlns="http://www.w3.org/2000/svg" xmlns:xlink="http://www.w3.org/1999/xlink">
<g id="graph0" class="graph" transform="scale(1 1) rotate(0) translate(4 651)">
<title>Lib::BSP::DigitalPeripheralBase</title>
<!-- Node1 -->
<g id="Node000001" class="node">
<title>Node1</title>
<g id="a_Node000001"><a xlink:title="DigitalPeripheralBase class.">
<polygon fill="#999999" stroke="none" points="263.25,-196 116.5,-196 116.5,0 263.25,0 263.25,-196"/>
<text xml:space="preserve" text-anchor="start" x="120.5" y="-182.5" font-family="Helvetica,sans-Serif" font-size="10.00">Lib::BSP::DigitalPeripheralBase</text>
<text xml:space="preserve" text-anchor="start" x="124.38" y="-166.5" font-family="Helvetica,sans-Serif" font-size="10.00">+</text>
<text xml:space="preserve" text-anchor="start" x="138.25" y="-166.5" font-family="Helvetica,sans-Serif" font-size="10.00">MAX_PINS</text>
<text xml:space="preserve" text-anchor="start" x="124.38" y="-150.5" font-family="Helvetica,sans-Serif" font-size="10.00">+</text>
<text xml:space="preserve" text-anchor="start" x="138.25" y="-150.5" font-family="Helvetica,sans-Serif" font-size="10.00">INPUT_SPI_TIMEOUT</text>
<text xml:space="preserve" text-anchor="start" x="124.38" y="-134.5" font-family="Helvetica,sans-Serif" font-size="10.00">+</text>
<text xml:space="preserve" text-anchor="start" x="138.25" y="-134.5" font-family="Helvetica,sans-Serif" font-size="10.00">OUTPUT_SPI_TIMEOUT</text>
<text xml:space="preserve" text-anchor="start" x="124.38" y="-118.5" font-family="Helvetica,sans-Serif" font-size="10.00">+</text>
<text xml:space="preserve" text-anchor="start" x="138.25" y="-118.5" font-family="Helvetica,sans-Serif" font-size="10.00">UPDATE_TIMEOUT_MS</text>
<text xml:space="preserve" text-anchor="start" x="124.38" y="-102.5" font-family="Helvetica,sans-Serif" font-size="10.00">+</text>
<text xml:space="preserve" text-anchor="start" x="138.25" y="-102.5" font-family="Helvetica,sans-Serif" font-size="10.00">TASK_LOOP_DELAY</text>
<text xml:space="preserve" text-anchor="start" x="124.38" y="-86.5" font-family="Helvetica,sans-Serif" font-size="10.00">+</text>
<text xml:space="preserve" text-anchor="start" x="138.25" y="-86.5" font-family="Helvetica,sans-Serif" font-size="10.00">SPI_PRESCALER</text>
<text xml:space="preserve" text-anchor="start" x="124.38" y="-70.5" font-family="Helvetica,sans-Serif" font-size="10.00">+</text>
<text xml:space="preserve" text-anchor="start" x="138.25" y="-70.5" font-family="Helvetica,sans-Serif" font-size="10.00">DigitalPeripheralBase()</text>
<text xml:space="preserve" text-anchor="start" x="124.38" y="-54.5" font-family="Helvetica,sans-Serif" font-size="10.00">+</text>
<text xml:space="preserve" text-anchor="start" x="138.25" y="-54.5" font-family="Helvetica,sans-Serif" font-size="10.00">~DigitalPeripheralBase()</text>
<text xml:space="preserve" text-anchor="start" x="124.38" y="-38.5" font-family="Helvetica,sans-Serif" font-size="10.00">+</text>
<text xml:space="preserve" text-anchor="start" x="138.25" y="-38.5" font-family="Helvetica,sans-Serif" font-size="10.00">setup()</text>
<text xml:space="preserve" text-anchor="start" x="124.75" y="-22.5" font-family="Helvetica,sans-Serif" font-size="10.00">#</text>
<text xml:space="preserve" text-anchor="start" x="138.25" y="-22.5" font-family="Helvetica,sans-Serif" font-size="10.00">handlePreUpdateEvent()</text>
<text xml:space="preserve" text-anchor="start" x="124.75" y="-6.5" font-family="Helvetica,sans-Serif" font-size="10.00">#</text>
<text xml:space="preserve" text-anchor="start" x="138.25" y="-6.5" font-family="Helvetica,sans-Serif" font-size="10.00">handlePostUpdateEvent()</text>
<polygon fill="#666666" stroke="#666666" points="116.5,-178 116.5,-178 263.25,-178 263.25,-178 116.5,-178"/>
<polygon fill="#666666" stroke="#666666" points="116.5,-82 116.5,-82 136.25,-82 136.25,-82 116.5,-82"/>
<polygon fill="#666666" stroke="#666666" points="136.25,-82 136.25,-82 263.25,-82 263.25,-82 136.25,-82"/>
<polygon fill="none" stroke="#666666" points="116.5,0 116.5,-196 263.25,-196 263.25,0 116.5,0"/>
</a>
</g>
</g>
<!-- Node2 -->
<g id="Node000002" class="node">
<title>Node2</title>
<g id="a_Node000002"><a xlink:href="../../d7/dca/class_lib_1_1_b_s_p_1_1_digital_peripheral_base_1_1_inputs.html" target="_top" xlink:title="Inputs class.">
<polygon fill="white" stroke="none" points="179.75,-454 0,-454 0,-290 179.75,-290 179.75,-454"/>
<text xml:space="preserve" text-anchor="start" x="4" y="-440.5" font-family="Helvetica,sans-Serif" font-size="10.00">Lib::BSP::DigitalPeripheralBase::Inputs</text>
<text xml:space="preserve" text-anchor="start" x="21.19" y="-424.5" font-family="Helvetica,sans-Serif" font-size="10.00">+</text>
<text xml:space="preserve" text-anchor="start" x="48.38" y="-424.5" font-family="Helvetica,sans-Serif" font-size="10.00">onValueChanged</text>
<text xml:space="preserve" text-anchor="start" x="21.19" y="-408.5" font-family="Helvetica,sans-Serif" font-size="10.00">+</text>
<text xml:space="preserve" text-anchor="start" x="48.38" y="-408.5" font-family="Helvetica,sans-Serif" font-size="10.00">Inputs()</text>
<text xml:space="preserve" text-anchor="start" x="21.19" y="-392.5" font-family="Helvetica,sans-Serif" font-size="10.00">+</text>
<text xml:space="preserve" text-anchor="start" x="48.38" y="-392.5" font-family="Helvetica,sans-Serif" font-size="10.00">~Inputs()</text>
<text xml:space="preserve" text-anchor="start" x="21.19" y="-376.5" font-family="Helvetica,sans-Serif" font-size="10.00">+</text>
<text xml:space="preserve" text-anchor="start" x="48.38" y="-376.5" font-family="Helvetica,sans-Serif" font-size="10.00">setup()</text>
<text xml:space="preserve" text-anchor="start" x="21.19" y="-360.5" font-family="Helvetica,sans-Serif" font-size="10.00">+</text>
<text xml:space="preserve" text-anchor="start" x="48.38" y="-360.5" font-family="Helvetica,sans-Serif" font-size="10.00">getValue()</text>
<text xml:space="preserve" text-anchor="start" x="21.19" y="-344.5" font-family="Helvetica,sans-Serif" font-size="10.00">+</text>
<text xml:space="preserve" text-anchor="start" x="48.38" y="-344.5" font-family="Helvetica,sans-Serif" font-size="10.00">getChangesCounter()</text>
<text xml:space="preserve" text-anchor="start" x="21.19" y="-328.5" font-family="Helvetica,sans-Serif" font-size="10.00">+</text>
<text xml:space="preserve" text-anchor="start" x="48.38" y="-328.5" font-family="Helvetica,sans-Serif" font-size="10.00">preUpdateCallback()</text>
<text xml:space="preserve" text-anchor="start" x="21.19" y="-312.5" font-family="Helvetica,sans-Serif" font-size="10.00">+</text>
<text xml:space="preserve" text-anchor="start" x="48.38" y="-312.5" font-family="Helvetica,sans-Serif" font-size="10.00">update()</text>
<text xml:space="preserve" text-anchor="start" x="21.19" y="-296.5" font-family="Helvetica,sans-Serif" font-size="10.00">+</text>
<text xml:space="preserve" text-anchor="start" x="48.38" y="-296.5" font-family="Helvetica,sans-Serif" font-size="10.00">getSpiHandle()</text>
<polygon fill="#666666" stroke="#666666" points="0,-436 0,-436 179.75,-436 179.75,-436 0,-436"/>
<polygon fill="#666666" stroke="#666666" points="0,-420 0,-420 46.38,-420 46.38,-420 0,-420"/>
<polygon fill="#666666" stroke="#666666" points="46.38,-420 46.38,-420 179.75,-420 179.75,-420 46.38,-420"/>
<polygon fill="none" stroke="#666666" points="0,-290 0,-454 179.75,-454 179.75,-290 0,-290"/>
</a>
</g>
</g>
<!-- Node2&#45;&gt;Node1 -->
<g id="edge1_Node000001_Node000002" class="edge">
<title>Node2&#45;&gt;Node1</title>
<g id="a_edge1_Node000001_Node000002"><a xlink:title=" ">
<path fill="none" stroke="#63b8ff" d="M119.61,-290.13C129.09,-264.35 139.73,-235.38 149.82,-207.95"/>
<polygon fill="none" stroke="#63b8ff" points="149.8,-207.99 148.12,-200.98 153.94,-196.73 155.63,-203.74 149.8,-207.99"/>
</a>
</g>
<text xml:space="preserve" text-anchor="start" x="148.86" y="-219.5" font-family="Helvetica,sans-Serif" font-size="10.00" fill="grey">+inputs</text>
</g>
<!-- Node3 -->
<g id="Node000003" class="node">
<title>Node3</title>
<g id="a_Node000003"><a xlink:href="../../d4/d7f/class_lib_1_1_b_s_p_1_1_digital_peripheral_base_1_1_port_base.html" target="_top" xlink:title="PortBase class.">
<polygon fill="white" stroke="none" points="286.5,-647 93.25,-647 93.25,-531 286.5,-531 286.5,-647"/>
<text xml:space="preserve" text-anchor="start" x="97.25" y="-633.5" font-family="Helvetica,sans-Serif" font-size="10.00">Lib::BSP::DigitalPeripheralBase::PortBase</text>
<text xml:space="preserve" text-anchor="start" x="188.38" y="-617.5" font-family="Helvetica,sans-Serif" font-size="10.00"> </text>
<text xml:space="preserve" text-anchor="start" x="118.75" y="-601.5" font-family="Helvetica,sans-Serif" font-size="10.00">+</text>
<text xml:space="preserve" text-anchor="start" x="150.25" y="-601.5" font-family="Helvetica,sans-Serif" font-size="10.00">~PortBase()</text>
<text xml:space="preserve" text-anchor="start" x="118.75" y="-585.5" font-family="Helvetica,sans-Serif" font-size="10.00">+</text>
<text xml:space="preserve" text-anchor="start" x="150.25" y="-585.5" font-family="Helvetica,sans-Serif" font-size="10.00">setup()</text>
<text xml:space="preserve" text-anchor="start" x="118.75" y="-569.5" font-family="Helvetica,sans-Serif" font-size="10.00">+</text>
<text xml:space="preserve" text-anchor="start" x="150.25" y="-569.5" font-family="Helvetica,sans-Serif" font-size="10.00">preUpdateCallback()</text>
<text xml:space="preserve" text-anchor="start" x="118.75" y="-553.5" font-family="Helvetica,sans-Serif" font-size="10.00">+</text>
<text xml:space="preserve" text-anchor="start" x="150.25" y="-553.5" font-family="Helvetica,sans-Serif" font-size="10.00">update()</text>
<text xml:space="preserve" text-anchor="start" x="118.75" y="-537.5" font-family="Helvetica,sans-Serif" font-size="10.00">+</text>
<text xml:space="preserve" text-anchor="start" x="150.25" y="-537.5" font-family="Helvetica,sans-Serif" font-size="10.00">getSpiHandle()</text>
<polygon fill="#666666" stroke="#666666" points="93.25,-629 93.25,-629 286.5,-629 286.5,-629 93.25,-629"/>
<polygon fill="#666666" stroke="#666666" points="93.25,-613 93.25,-613 286.5,-613 286.5,-613 93.25,-613"/>
<polygon fill="none" stroke="#666666" points="93.25,-531 93.25,-647 286.5,-647 286.5,-531 93.25,-531"/>
</a>
</g>
</g>
<!-- Node3&#45;&gt;Node2 -->
<g id="edge2_Node000002_Node000003" class="edge">
<title>Node3&#45;&gt;Node2</title>
<g id="a_edge2_Node000002_Node000003"><a xlink:title=" ">
<path fill="none" stroke="#63b8ff" d="M158.72,-521.02C148.85,-499.79 137.82,-476.09 127.54,-453.98"/>
<polygon fill="none" stroke="#63b8ff" points="155.44,-522.27 162.83,-529.86 161.79,-519.31 155.44,-522.27"/>
</a>
</g>
</g>
<!-- Node4 -->
<g id="Node000004" class="node">
<title>Node4</title>
<g id="a_Node000004"><a xlink:href="../../d3/d3a/class_lib_1_1_b_s_p_1_1_digital_peripheral_base_1_1_outputs.html" target="_top" xlink:title="Outputs class.">
<polygon fill="white" stroke="none" points="385.5,-494 198.25,-494 198.25,-250 385.5,-250 385.5,-494"/>
<text xml:space="preserve" text-anchor="start" x="202.25" y="-480.5" font-family="Helvetica,sans-Serif" font-size="10.00">Lib::BSP::DigitalPeripheralBase::Outputs</text>
<text xml:space="preserve" text-anchor="start" x="221.31" y="-464.5" font-family="Helvetica,sans-Serif" font-size="10.00">+</text>
<text xml:space="preserve" text-anchor="start" x="250.38" y="-464.5" font-family="Helvetica,sans-Serif" font-size="10.00">onValueChanged</text>
<text xml:space="preserve" text-anchor="start" x="221.31" y="-448.5" font-family="Helvetica,sans-Serif" font-size="10.00">+</text>
<text xml:space="preserve" text-anchor="start" x="250.38" y="-448.5" font-family="Helvetica,sans-Serif" font-size="10.00">onStatusChanged</text>
<text xml:space="preserve" text-anchor="start" x="221.31" y="-432.5" font-family="Helvetica,sans-Serif" font-size="10.00">+</text>
<text xml:space="preserve" text-anchor="start" x="250.38" y="-432.5" font-family="Helvetica,sans-Serif" font-size="10.00">onSpiError</text>
<text xml:space="preserve" text-anchor="start" x="221.31" y="-416.5" font-family="Helvetica,sans-Serif" font-size="10.00">+</text>
<text xml:space="preserve" text-anchor="start" x="250.38" y="-416.5" font-family="Helvetica,sans-Serif" font-size="10.00">Outputs()</text>
<text xml:space="preserve" text-anchor="start" x="221.31" y="-400.5" font-family="Helvetica,sans-Serif" font-size="10.00">+</text>
<text xml:space="preserve" text-anchor="start" x="250.38" y="-400.5" font-family="Helvetica,sans-Serif" font-size="10.00">~Outputs()</text>
<text xml:space="preserve" text-anchor="start" x="221.31" y="-384.5" font-family="Helvetica,sans-Serif" font-size="10.00">+</text>
<text xml:space="preserve" text-anchor="start" x="250.38" y="-384.5" font-family="Helvetica,sans-Serif" font-size="10.00">setup()</text>
<text xml:space="preserve" text-anchor="start" x="221.31" y="-368.5" font-family="Helvetica,sans-Serif" font-size="10.00">+</text>
<text xml:space="preserve" text-anchor="start" x="250.38" y="-368.5" font-family="Helvetica,sans-Serif" font-size="10.00">setValue()</text>
<text xml:space="preserve" text-anchor="start" x="221.31" y="-352.5" font-family="Helvetica,sans-Serif" font-size="10.00">+</text>
<text xml:space="preserve" text-anchor="start" x="250.38" y="-352.5" font-family="Helvetica,sans-Serif" font-size="10.00">getValue()</text>
<text xml:space="preserve" text-anchor="start" x="221.31" y="-336.5" font-family="Helvetica,sans-Serif" font-size="10.00">+</text>
<text xml:space="preserve" text-anchor="start" x="250.38" y="-336.5" font-family="Helvetica,sans-Serif" font-size="10.00">getStatus()</text>
<text xml:space="preserve" text-anchor="start" x="221.31" y="-320.5" font-family="Helvetica,sans-Serif" font-size="10.00">+</text>
<text xml:space="preserve" text-anchor="start" x="250.38" y="-320.5" font-family="Helvetica,sans-Serif" font-size="10.00">getChangesCounter()</text>
<text xml:space="preserve" text-anchor="start" x="221.31" y="-304.5" font-family="Helvetica,sans-Serif" font-size="10.00">+</text>
<text xml:space="preserve" text-anchor="start" x="250.38" y="-304.5" font-family="Helvetica,sans-Serif" font-size="10.00">hasSpiError()</text>
<text xml:space="preserve" text-anchor="start" x="221.31" y="-288.5" font-family="Helvetica,sans-Serif" font-size="10.00">+</text>
<text xml:space="preserve" text-anchor="start" x="250.38" y="-288.5" font-family="Helvetica,sans-Serif" font-size="10.00">getSpiHandle()</text>
<text xml:space="preserve" text-anchor="start" x="221.31" y="-272.5" font-family="Helvetica,sans-Serif" font-size="10.00">+</text>
<text xml:space="preserve" text-anchor="start" x="250.38" y="-272.5" font-family="Helvetica,sans-Serif" font-size="10.00">preUpdateCallback()</text>
<text xml:space="preserve" text-anchor="start" x="221.31" y="-256.5" font-family="Helvetica,sans-Serif" font-size="10.00">+</text>
<text xml:space="preserve" text-anchor="start" x="250.38" y="-256.5" font-family="Helvetica,sans-Serif" font-size="10.00">update()</text>
<polygon fill="#666666" stroke="#666666" points="198.25,-476 198.25,-476 385.5,-476 385.5,-476 198.25,-476"/>
<polygon fill="#666666" stroke="#666666" points="198.25,-428 198.25,-428 248.38,-428 248.38,-428 198.25,-428"/>
<polygon fill="#666666" stroke="#666666" points="248.38,-428 248.38,-428 385.5,-428 385.5,-428 248.38,-428"/>
<polygon fill="none" stroke="#666666" points="198.25,-250 198.25,-494 385.5,-494 385.5,-250 198.25,-250"/>
</a>
</g>
</g>
<!-- Node3&#45;&gt;Node4 -->
<g id="edge4_Node000004_Node000003" class="edge">
<title>Node3&#45;&gt;Node4</title>
<g id="a_edge4_Node000004_Node000003"><a xlink:title=" ">
<path fill="none" stroke="#63b8ff" d="M221.73,-520.85C225.86,-512.15 230.18,-503.04 234.56,-493.8"/>
<polygon fill="none" stroke="#63b8ff" points="218.58,-519.33 217.46,-529.86 224.9,-522.33 218.58,-519.33"/>
</a>
</g>
</g>
<!-- Node4&#45;&gt;Node1 -->
<g id="edge3_Node000001_Node000004" class="edge">
<title>Node4&#45;&gt;Node1</title>
<g id="a_edge3_Node000001_Node000004"><a xlink:title=" ">
<path fill="none" stroke="#63b8ff" d="M246.54,-250.11C241.27,-236.07 235.93,-221.8 230.72,-207.93"/>
<polygon fill="none" stroke="#63b8ff" points="230.73,-207.93 224.87,-203.72 226.51,-196.7 232.36,-200.91 230.73,-207.93"/>
</a>
</g>
<text xml:space="preserve" text-anchor="start" x="240.82" y="-219.5" font-family="Helvetica,sans-Serif" font-size="10.00" fill="grey">+outputs</text>
</g>
</g>
</svg>
