<?xml version="1.0" encoding="UTF-8" standalone="no"?>
<!DOCTYPE svg PUBLIC "-//W3C//DTD SVG 1.1//EN"
 "http://www.w3.org/Graphics/SVG/1.1/DTD/svg11.dtd">
<!-- Generated by graphviz version 13.1.0 (20250701.0955)
 -->
<!-- Title: Lib::BSP::DeviceManager::DeviceBase Pages: 1 -->
<svg width="189pt" height="260pt"
 viewBox="0.00 0.00 189.00 260.00" xmlns="http://www.w3.org/2000/svg" xmlns:xlink="http://www.w3.org/1999/xlink">
<g id="graph0" class="graph" transform="scale(1 1) rotate(0) translate(4 256)">
<title>Lib::BSP::DeviceManager::DeviceBase</title>
<!-- Node1 -->
<g id="Node000001" class="node">
<title>Node1</title>
<g id="a_Node000001"><a xlink:title="Base class for devices managed by DeviceManager.">
<polygon fill="#999999" stroke="none" points="180.5,-252 0,-252 0,-152 180.5,-152 180.5,-252"/>
<text xml:space="preserve" text-anchor="start" x="4" y="-238.5" font-family="Helvetica,sans-Serif" font-size="10.00">Lib::BSP::DeviceManager::DeviceBase</text>
<text xml:space="preserve" text-anchor="start" x="88.75" y="-222.5" font-family="Helvetica,sans-Serif" font-size="10.00"> </text>
<text xml:space="preserve" text-anchor="start" x="24.94" y="-206.5" font-family="Helvetica,sans-Serif" font-size="10.00">+</text>
<text xml:space="preserve" text-anchor="start" x="55.88" y="-206.5" font-family="Helvetica,sans-Serif" font-size="10.00">DeviceBase()</text>
<text xml:space="preserve" text-anchor="start" x="24.94" y="-190.5" font-family="Helvetica,sans-Serif" font-size="10.00">+</text>
<text xml:space="preserve" text-anchor="start" x="55.88" y="-190.5" font-family="Helvetica,sans-Serif" font-size="10.00">~DeviceBase()</text>
<text xml:space="preserve" text-anchor="start" x="24.94" y="-174.5" font-family="Helvetica,sans-Serif" font-size="10.00">+</text>
<text xml:space="preserve" text-anchor="start" x="55.88" y="-174.5" font-family="Helvetica,sans-Serif" font-size="10.00">setup()</text>
<text xml:space="preserve" text-anchor="start" x="24.94" y="-158.5" font-family="Helvetica,sans-Serif" font-size="10.00">+</text>
<text xml:space="preserve" text-anchor="start" x="55.88" y="-158.5" font-family="Helvetica,sans-Serif" font-size="10.00">handleTickEvent()</text>
<polygon fill="#666666" stroke="#666666" points="0,-234 0,-234 180.5,-234 180.5,-234 0,-234"/>
<polygon fill="#666666" stroke="#666666" points="0,-218 0,-218 180.5,-218 180.5,-218 0,-218"/>
<polygon fill="none" stroke="#666666" points="0,-152 0,-252 180.5,-252 180.5,-152 0,-152"/>
</a>
</g>
</g>
<!-- Node2 -->
<g id="Node000002" class="node">
<title>Node2</title>
<g id="a_Node000002"><a xlink:href="../../dd/da1/class_lib_1_1_b_s_p_1_1_voltmeter_1_1_base.html" target="_top" xlink:title="Base class for voltmeter devices.">
<polygon fill="white" stroke="none" points="151.62,-116 28.88,-116 28.88,0 151.62,0 151.62,-116"/>
<text xml:space="preserve" text-anchor="start" x="32.88" y="-102.5" font-family="Helvetica,sans-Serif" font-size="10.00">Lib::BSP::Voltmeter::Base</text>
<text xml:space="preserve" text-anchor="start" x="35.06" y="-86.5" font-family="Helvetica,sans-Serif" font-size="10.00">#</text>
<text xml:space="preserve" text-anchor="start" x="46.5" y="-86.5" font-family="Helvetica,sans-Serif" font-size="10.00">interpolator</text>
<text xml:space="preserve" text-anchor="start" x="34.69" y="-70.5" font-family="Helvetica,sans-Serif" font-size="10.00">+</text>
<text xml:space="preserve" text-anchor="start" x="46.5" y="-70.5" font-family="Helvetica,sans-Serif" font-size="10.00">Base()</text>
<text xml:space="preserve" text-anchor="start" x="34.69" y="-54.5" font-family="Helvetica,sans-Serif" font-size="10.00">+</text>
<text xml:space="preserve" text-anchor="start" x="46.5" y="-54.5" font-family="Helvetica,sans-Serif" font-size="10.00">~Base()</text>
<text xml:space="preserve" text-anchor="start" x="34.69" y="-38.5" font-family="Helvetica,sans-Serif" font-size="10.00">+</text>
<text xml:space="preserve" text-anchor="start" x="46.5" y="-38.5" font-family="Helvetica,sans-Serif" font-size="10.00">setup()</text>
<text xml:space="preserve" text-anchor="start" x="34.69" y="-22.5" font-family="Helvetica,sans-Serif" font-size="10.00">+</text>
<text xml:space="preserve" text-anchor="start" x="46.5" y="-22.5" font-family="Helvetica,sans-Serif" font-size="10.00">getVoltage()</text>
<text xml:space="preserve" text-anchor="start" x="35.06" y="-6.5" font-family="Helvetica,sans-Serif" font-size="10.00">#</text>
<text xml:space="preserve" text-anchor="start" x="46.5" y="-6.5" font-family="Helvetica,sans-Serif" font-size="10.00">handleValueChanged()</text>
<polygon fill="#666666" stroke="#666666" points="28.88,-98 28.88,-98 151.62,-98 151.62,-98 28.88,-98"/>
<polygon fill="#666666" stroke="#666666" points="28.88,-82 28.88,-82 44.5,-82 44.5,-82 28.88,-82"/>
<polygon fill="#666666" stroke="#666666" points="44.5,-82 44.5,-82 151.62,-82 151.62,-82 44.5,-82"/>
<polygon fill="none" stroke="#666666" points="28.88,0 28.88,-116 151.62,-116 151.62,0 28.88,0"/>
</a>
</g>
</g>
<!-- Node1&#45;&gt;Node2 -->
<g id="edge1_Node000001_Node000002" class="edge">
<title>Node1&#45;&gt;Node2</title>
<g id="a_edge1_Node000001_Node000002"><a xlink:title=" ">
<path fill="none" stroke="#63b8ff" d="M90.25,-140.65C90.25,-132.4 90.25,-123.96 90.25,-115.78"/>
<polygon fill="none" stroke="#63b8ff" points="86.75,-140.62 90.25,-150.62 93.75,-140.62 86.75,-140.62"/>
</a>
</g>
</g>
</g>
</svg>
