<?xml version="1.0" encoding="UTF-8" standalone="no"?>
<!DOCTYPE svg PUBLIC "-//W3C//DTD SVG 1.1//EN"
 "http://www.w3.org/Graphics/SVG/1.1/DTD/svg11.dtd">
<!-- Generated by graphviz version 13.1.0 (20250701.0955)
 -->
<!-- Title: BSP::M24C64W::Config Pages: 1 -->
<svg width="289pt" height="182pt"
 viewBox="0.00 0.00 289.00 182.00" xmlns="http://www.w3.org/2000/svg" xmlns:xlink="http://www.w3.org/1999/xlink">
<g id="graph0" class="graph" transform="scale(1 1) rotate(0) translate(4 178)">
<title>BSP::M24C64W::Config</title>
<!-- Node1 -->
<g id="Node000001" class="node">
<title>Node1</title>
<g id="a_Node000001"><a xlink:title="Configuration structure for M24C64W EEPROM.">
<polygon fill="#999999" stroke="none" points="195.88,-52 81.38,-52 81.38,0 195.88,0 195.88,-52"/>
<text xml:space="preserve" text-anchor="start" x="85.38" y="-38.5" font-family="Helvetica,sans-Serif" font-size="10.00">BSP::M24C64W::Config</text>
<text xml:space="preserve" text-anchor="start" x="137.12" y="-22.5" font-family="Helvetica,sans-Serif" font-size="10.00"> </text>
<text xml:space="preserve" text-anchor="start" x="137.12" y="-6.5" font-family="Helvetica,sans-Serif" font-size="10.00"> </text>
<polygon fill="#666666" stroke="#666666" points="81.38,-34 81.38,-34 195.88,-34 195.88,-34 81.38,-34"/>
<polygon fill="#666666" stroke="#666666" points="81.38,-18 81.38,-18 195.88,-18 195.88,-18 81.38,-18"/>
<polygon fill="none" stroke="#666666" points="81.38,0 81.38,-52 195.88,-52 195.88,0 81.38,0"/>
</a>
</g>
</g>
<!-- Node2 -->
<g id="Node000002" class="node">
<title>Node2</title>
<g id="a_Node000002"><a xlink:title=" ">
<polygon fill="white" stroke="none" points="103.25,-174 0,-174 0,-122 103.25,-122 103.25,-174"/>
<text xml:space="preserve" text-anchor="start" x="4" y="-160.5" font-family="Helvetica,sans-Serif" font-size="10.00">I2C_HandleTypeDef *</text>
<text xml:space="preserve" text-anchor="start" x="50.12" y="-144.5" font-family="Helvetica,sans-Serif" font-size="10.00"> </text>
<text xml:space="preserve" text-anchor="start" x="50.12" y="-128.5" font-family="Helvetica,sans-Serif" font-size="10.00"> </text>
<polygon fill="#bfbfbf" stroke="#bfbfbf" points="0,-156 0,-156 103.25,-156 103.25,-156 0,-156"/>
<polygon fill="#bfbfbf" stroke="#bfbfbf" points="0,-140 0,-140 103.25,-140 103.25,-140 0,-140"/>
<polygon fill="none" stroke="#bfbfbf" points="0,-122 0,-174 103.25,-174 103.25,-122 0,-122"/>
</a>
</g>
</g>
<!-- Node2&#45;&gt;Node1 -->
<g id="edge1_Node000001_Node000002" class="edge">
<title>Node2&#45;&gt;Node1</title>
<g id="a_edge1_Node000001_Node000002"><a xlink:title=" ">
<path fill="none" stroke="#63b8ff" d="M56.45,-122.28C60.5,-106.2 67.53,-85.44 79.12,-70 81.65,-66.64 84.51,-63.43 87.58,-60.38"/>
<polygon fill="none" stroke="#63b8ff" points="87.64,-60.34 89.48,-53.36 96.62,-52.38 94.78,-59.35 87.64,-60.34"/>
</a>
</g>
<text xml:space="preserve" text-anchor="start" x="82.12" y="-83.5" font-family="Helvetica,sans-Serif" font-size="10.00" fill="grey">+i2cHandle</text>
</g>
<!-- Node3 -->
<g id="Node000003" class="node">
<title>Node3</title>
<g id="a_Node000003"><a xlink:title=" ">
<polygon fill="white" stroke="none" points="155.75,-174 121.5,-174 121.5,-122 155.75,-122 155.75,-174"/>
<text xml:space="preserve" text-anchor="start" x="125.5" y="-160.5" font-family="Helvetica,sans-Serif" font-size="10.00">size_t</text>
<text xml:space="preserve" text-anchor="start" x="137.12" y="-144.5" font-family="Helvetica,sans-Serif" font-size="10.00"> </text>
<text xml:space="preserve" text-anchor="start" x="137.12" y="-128.5" font-family="Helvetica,sans-Serif" font-size="10.00"> </text>
<polygon fill="#bfbfbf" stroke="#bfbfbf" points="121.5,-156 121.5,-156 155.75,-156 155.75,-156 121.5,-156"/>
<polygon fill="#bfbfbf" stroke="#bfbfbf" points="121.5,-140 121.5,-140 155.75,-140 155.75,-140 121.5,-140"/>
<polygon fill="none" stroke="#bfbfbf" points="121.5,-122 121.5,-174 155.75,-174 155.75,-122 121.5,-122"/>
</a>
</g>
</g>
<!-- Node3&#45;&gt;Node1 -->
<g id="edge2_Node000001_Node000003" class="edge">
<title>Node3&#45;&gt;Node1</title>
<g id="a_edge2_Node000001_Node000003"><a xlink:title=" ">
<path fill="none" stroke="#63b8ff" d="M138.62,-122.14C138.62,-105.56 138.62,-83.47 138.62,-64.74"/>
<polygon fill="none" stroke="#63b8ff" points="138.63,-64.73 134.63,-58.73 138.63,-52.73 142.63,-58.73 138.63,-64.73"/>
</a>
</g>
<text xml:space="preserve" text-anchor="start" x="141.62" y="-83.5" font-family="Helvetica,sans-Serif" font-size="10.00" fill="grey">+chipSize</text>
</g>
<!-- Node4 -->
<g id="Node000004" class="node">
<title>Node4</title>
<g id="a_Node000004"><a xlink:title=" ">
<polygon fill="white" stroke="none" points="230.25,-174 193,-174 193,-122 230.25,-122 230.25,-174"/>
<text xml:space="preserve" text-anchor="start" x="197" y="-160.5" font-family="Helvetica,sans-Serif" font-size="10.00">uint8_t</text>
<text xml:space="preserve" text-anchor="start" x="210.12" y="-144.5" font-family="Helvetica,sans-Serif" font-size="10.00"> </text>
<text xml:space="preserve" text-anchor="start" x="210.12" y="-128.5" font-family="Helvetica,sans-Serif" font-size="10.00"> </text>
<polygon fill="#bfbfbf" stroke="#bfbfbf" points="193,-156 193,-156 230.25,-156 230.25,-156 193,-156"/>
<polygon fill="#bfbfbf" stroke="#bfbfbf" points="193,-140 193,-140 230.25,-140 230.25,-140 193,-140"/>
<polygon fill="none" stroke="#bfbfbf" points="193,-122 193,-174 230.25,-174 230.25,-122 193,-122"/>
</a>
</g>
</g>
<!-- Node4&#45;&gt;Node1 -->
<g id="edge3_Node000001_Node000004" class="edge">
<title>Node4&#45;&gt;Node1</title>
<g id="a_edge3_Node000001_Node000004"><a xlink:title=" ">
<path fill="none" stroke="#63b8ff" d="M208.36,-122.22C205.38,-106.31 199.82,-85.76 189.62,-70 187.62,-66.9 185.32,-63.91 182.84,-61.04"/>
<polygon fill="none" stroke="#63b8ff" points="182.84,-61.04 175.78,-59.54 174.45,-52.46 181.5,-53.95 182.84,-61.04"/>
</a>
</g>
<text xml:space="preserve" text-anchor="start" x="207.12" y="-91.5" font-family="Helvetica,sans-Serif" font-size="10.00" fill="grey">+deviceAddress</text>
<text xml:space="preserve" text-anchor="start" x="207.12" y="-75.5" font-family="Helvetica,sans-Serif" font-size="10.00" fill="grey">+pageSize</text>
</g>
</g>
</svg>
