<?xml version="1.0" encoding="UTF-8" standalone="no"?>
<!DOCTYPE svg PUBLIC "-//W3C//DTD SVG 1.1//EN"
 "http://www.w3.org/Graphics/SVG/1.1/DTD/svg11.dtd">
<!-- Generated by graphviz version 12.2.1 (20241206.2353)
 -->
<!-- Title: TxMessage.hpp Pages: 1 -->
<svg width="271pt" height="84pt"
 viewBox="0.00 0.00 271.38 84.00" xmlns="http://www.w3.org/2000/svg" xmlns:xlink="http://www.w3.org/1999/xlink">
<g id="graph0" class="graph" transform="scale(1 1) rotate(0) translate(4 80)">
<title>TxMessage.hpp</title>
<!-- Node1 -->
<g id="Node000001" class="node">
<title>Node1</title>
<g id="a_Node000001"><a xlink:title="Defines the TxMessage class for CAN transmission messages.">
<polygon fill="#999999" stroke="#666666" points="187.62,-76 101.88,-76 101.88,-56 187.62,-56 187.62,-76"/>
<text text-anchor="middle" x="144.75" y="-62.5" font-family="Helvetica,sans-Serif" font-size="10.00">TxMessage.hpp</text>
</a>
</g>
</g>
<!-- Node2 -->
<g id="Node000002" class="node">
<title>Node2</title>
<g id="a_Node000002"><a xlink:href="../../d4/d3e/a00116.html" target="_top" xlink:title="This file contains the definition of the TxHeader class for CAN transmission.">
<polygon fill="white" stroke="#666666" points="77.5,-20 0,-20 0,0 77.5,0 77.5,-20"/>
<text text-anchor="middle" x="38.75" y="-6.5" font-family="Helvetica,sans-Serif" font-size="10.00">TxHeader.hpp</text>
</a>
</g>
</g>
<!-- Node1&#45;&gt;Node2 -->
<g id="edge1_Node000001_Node000002" class="edge">
<title>Node1&#45;&gt;Node2</title>
<g id="a_edge1_Node000001_Node000002"><a xlink:title=" ">
<path fill="none" stroke="#63b8ff" d="M126.29,-55.59C110.05,-47.32 86.14,-35.14 67.42,-25.6"/>
<polygon fill="#63b8ff" stroke="#63b8ff" points="69.21,-22.59 58.71,-21.17 66.03,-28.82 69.21,-22.59"/>
</a>
</g>
</g>
<!-- Node3 -->
<g id="Node000003" class="node">
<title>Node3</title>
<g id="a_Node000003"><a xlink:title=" ">
<polygon fill="#e0e0e0" stroke="#999999" points="133.62,-20 95.88,-20 95.88,0 133.62,0 133.62,-20"/>
<text text-anchor="middle" x="114.75" y="-6.5" font-family="Helvetica,sans-Serif" font-size="10.00">array</text>
</a>
</g>
</g>
<!-- Node1&#45;&gt;Node3 -->
<g id="edge2_Node000001_Node000003" class="edge">
<title>Node1&#45;&gt;Node3</title>
<g id="a_edge2_Node000001_Node000003"><a xlink:title=" ">
<path fill="none" stroke="#63b8ff" d="M139.52,-55.59C135.65,-48.63 130.24,-38.89 125.47,-30.29"/>
<polygon fill="#63b8ff" stroke="#63b8ff" points="128.57,-28.66 120.65,-21.62 122.45,-32.06 128.57,-28.66"/>
</a>
</g>
</g>
<!-- Node4 -->
<g id="Node000004" class="node">
<title>Node4</title>
<g id="a_Node000004"><a xlink:title=" ">
<polygon fill="#e0e0e0" stroke="#999999" points="199.88,-20 151.62,-20 151.62,0 199.88,0 199.88,-20"/>
<text text-anchor="middle" x="175.75" y="-6.5" font-family="Helvetica,sans-Serif" font-size="10.00">cassert</text>
</a>
</g>
</g>
<!-- Node1&#45;&gt;Node4 -->
<g id="edge3_Node000001_Node000004" class="edge">
<title>Node1&#45;&gt;Node4</title>
<g id="a_edge3_Node000001_Node000004"><a xlink:title=" ">
<path fill="none" stroke="#63b8ff" d="M150.15,-55.59C154.19,-48.55 159.87,-38.67 164.84,-30"/>
<polygon fill="#63b8ff" stroke="#63b8ff" points="167.72,-32.03 169.66,-21.61 161.64,-28.54 167.72,-32.03"/>
</a>
</g>
</g>
<!-- Node5 -->
<g id="Node000005" class="node">
<title>Node5</title>
<g id="a_Node000005"><a xlink:title=" ">
<polygon fill="#e0e0e0" stroke="#999999" points="263.38,-20 218.12,-20 218.12,0 263.38,0 263.38,-20"/>
<text text-anchor="middle" x="240.75" y="-6.5" font-family="Helvetica,sans-Serif" font-size="10.00">cstring</text>
</a>
</g>
</g>
<!-- Node1&#45;&gt;Node5 -->
<g id="edge4_Node000001_Node000005" class="edge">
<title>Node1&#45;&gt;Node5</title>
<g id="a_edge4_Node000001_Node000005"><a xlink:title=" ">
<path fill="none" stroke="#63b8ff" d="M161.47,-55.59C175.97,-47.44 197.22,-35.48 214.07,-26"/>
<polygon fill="#63b8ff" stroke="#63b8ff" points="215.58,-29.17 222.58,-21.22 212.15,-23.07 215.58,-29.17"/>
</a>
</g>
</g>
</g>
</svg>
