<?xml version="1.0" encoding="UTF-8" standalone="no"?>
<!DOCTYPE svg PUBLIC "-//W3C//DTD SVG 1.1//EN"
 "http://www.w3.org/Graphics/SVG/1.1/DTD/svg11.dtd">
<!-- Generated by graphviz version 13.1.0 (20250701.0955)
 -->
<!-- Title: Lib::Xbee::API::Connection Pages: 1 -->
<svg width="744pt" height="596pt"
 viewBox="0.00 0.00 744.00 596.00" xmlns="http://www.w3.org/2000/svg" xmlns:xlink="http://www.w3.org/1999/xlink">
<g id="graph0" class="graph" transform="scale(1 1) rotate(0) translate(4 591.5)">
<title>Lib::Xbee::API::Connection</title>
<!-- Node1 -->
<g id="Node000001" class="node">
<title>Node1</title>
<g id="a_Node000001"><a xlink:title="Connection aggregates state, quality assessment, and statistical info for an Xbee link.">
<polygon fill="#999999" stroke="none" points="320.25,-47.5 202.75,-47.5 202.75,0 320.25,0 320.25,-47.5"/>
<text xml:space="preserve" text-anchor="start" x="206.75" y="-34.95" font-family="Arial" font-size="9.00">Lib::Xbee::API::Connection</text>
<text xml:space="preserve" text-anchor="start" x="260.38" y="-20.45" font-family="Arial" font-size="9.00"> </text>
<text xml:space="preserve" text-anchor="start" x="218.5" y="-5.95" font-family="Arial" font-size="9.00">+</text>
<text xml:space="preserve" text-anchor="start" x="239.5" y="-5.95" font-family="Arial" font-size="9.00">Connection()</text>
<polygon fill="#666666" stroke="#666666" points="202.75,-31 202.75,-31 320.25,-31 320.25,-31 202.75,-31"/>
<polygon fill="#666666" stroke="#666666" points="202.75,-16.5 202.75,-16.5 320.25,-16.5 320.25,-16.5 202.75,-16.5"/>
<polygon fill="none" stroke="#666666" points="202.75,0 202.75,-47.5 320.25,-47.5 320.25,0 202.75,0"/>
</a>
</g>
</g>
<!-- Node2 -->
<g id="Node000002" class="node">
<title>Node2</title>
<g id="a_Node000002"><a xlink:href="../../dd/d19/a01922.html" target="_top" xlink:title="Lightweight state container with change notification callback.">
<polygon fill="white" stroke="none" points="184.25,-237.75 66.75,-237.75 66.75,-121.75 184.25,-121.75 184.25,-237.75"/>
<text xml:space="preserve" text-anchor="start" x="70.75" y="-225.2" font-family="Arial" font-size="9.00">Lib::Xbee::API::Connection</text>
<text xml:space="preserve" text-anchor="start" x="112.75" y="-214.7" font-family="Arial" font-size="9.00">::State</text>
<text xml:space="preserve" text-anchor="start" x="124.38" y="-200.2" font-family="Arial" font-size="9.00"> </text>
<text xml:space="preserve" text-anchor="start" x="76.88" y="-185.7" font-family="Arial" font-size="9.00">+</text>
<text xml:space="preserve" text-anchor="start" x="92.25" y="-185.7" font-family="Arial" font-size="9.00">State()</text>
<text xml:space="preserve" text-anchor="start" x="76.88" y="-171.2" font-family="Arial" font-size="9.00">+</text>
<text xml:space="preserve" text-anchor="start" x="92.25" y="-171.2" font-family="Arial" font-size="9.00">State()</text>
<text xml:space="preserve" text-anchor="start" x="76.88" y="-156.7" font-family="Arial" font-size="9.00">+</text>
<text xml:space="preserve" text-anchor="start" x="92.25" y="-156.7" font-family="Arial" font-size="9.00">operator=()</text>
<text xml:space="preserve" text-anchor="start" x="76.88" y="-142.2" font-family="Arial" font-size="9.00">+</text>
<text xml:space="preserve" text-anchor="start" x="92.25" y="-142.2" font-family="Arial" font-size="9.00">operator uint32_t()</text>
<text xml:space="preserve" text-anchor="start" x="76.88" y="-127.7" font-family="Arial" font-size="9.00">+</text>
<text xml:space="preserve" text-anchor="start" x="92.25" y="-127.7" font-family="Arial" font-size="9.00">isConnected()</text>
<polygon fill="#666666" stroke="#666666" points="66.75,-210.75 66.75,-210.75 184.25,-210.75 184.25,-210.75 66.75,-210.75"/>
<polygon fill="#666666" stroke="#666666" points="66.75,-196.25 66.75,-196.25 184.25,-196.25 184.25,-196.25 66.75,-196.25"/>
<polygon fill="none" stroke="#666666" points="66.75,-121.75 66.75,-237.75 184.25,-237.75 184.25,-121.75 66.75,-121.75"/>
</a>
</g>
</g>
<!-- Node2&#45;&gt;Node1 -->
<g id="edge1_Node000001_Node000002" class="edge">
<title>Node2&#45;&gt;Node1</title>
<g id="a_edge1_Node000001_Node000002"><a xlink:title=" ">
<path fill="none" stroke="#63b8ff" d="M174.38,-121.84C180.78,-114.47 187.28,-107.04 193.5,-100 206.04,-85.8 220.05,-70.25 232.08,-56.99"/>
<polygon fill="none" stroke="#63b8ff" points="232.16,-56.9 233.23,-49.77 240.23,-48.02 239.15,-55.15 232.16,-56.9"/>
</a>
</g>
<text xml:space="preserve" text-anchor="start" x="226.18" y="-70.45" font-family="Arial" font-size="9.00" fill="grey">+state</text>
</g>
<!-- Node3 -->
<g id="Node000003" class="node">
<title>Node3</title>
<g id="a_Node000003"><a xlink:title=" ">
<polygon fill="white" stroke="none" points="41,-509.75 0,-509.75 0,-462.25 41,-462.25 41,-509.75"/>
<text xml:space="preserve" text-anchor="start" x="4" y="-497.2" font-family="Arial" font-size="9.00">uint32_t</text>
<text xml:space="preserve" text-anchor="start" x="19.38" y="-482.7" font-family="Arial" font-size="9.00"> </text>
<text xml:space="preserve" text-anchor="start" x="19.38" y="-468.2" font-family="Arial" font-size="9.00"> </text>
<polygon fill="#bfbfbf" stroke="#bfbfbf" points="0,-493.25 0,-493.25 41,-493.25 41,-493.25 0,-493.25"/>
<polygon fill="#bfbfbf" stroke="#bfbfbf" points="0,-478.75 0,-478.75 41,-478.75 41,-478.75 0,-478.75"/>
<polygon fill="none" stroke="#bfbfbf" points="0,-462.25 0,-509.75 41,-509.75 41,-462.25 0,-462.25"/>
</a>
</g>
</g>
<!-- Node3&#45;&gt;Node2 -->
<g id="edge2_Node000002_Node000003" class="edge">
<title>Node3&#45;&gt;Node2</title>
<g id="a_edge2_Node000002_Node000003"><a xlink:title=" ">
<path fill="none" stroke="#63b8ff" d="M17.93,-462.37C14.43,-422.98 11.36,-340.03 38.5,-277.5 43.65,-265.64 50.84,-254.25 58.9,-243.72"/>
<polygon fill="none" stroke="#63b8ff" points="58.74,-243.91 59.41,-236.73 66.3,-234.59 65.63,-241.77 58.74,-243.91"/>
</a>
</g>
<text xml:space="preserve" text-anchor="start" x="41.5" y="-340.45" font-family="Arial" font-size="9.00" fill="grey">+CONNECTED</text>
<text xml:space="preserve" text-anchor="start" x="41.5" y="-325.95" font-family="Arial" font-size="9.00" fill="grey">+DISCONNECTED</text>
<text xml:space="preserve" text-anchor="start" x="41.5" y="-311.45" font-family="Arial" font-size="9.00" fill="grey">+INIT</text>
<text xml:space="preserve" text-anchor="start" x="41.5" y="-296.95" font-family="Arial" font-size="9.00" fill="grey">+READY</text>
</g>
<!-- Node4 -->
<g id="Node000004" class="node">
<title>Node4</title>
<g id="a_Node000004"><a xlink:title=" ">
<polygon fill="white" stroke="none" points="174.62,-509.75 80.38,-509.75 80.38,-462.25 174.62,-462.25 174.62,-509.75"/>
<text xml:space="preserve" text-anchor="start" x="84.38" y="-497.2" font-family="Arial" font-size="9.00">function&lt; void(bool)&gt;</text>
<text xml:space="preserve" text-anchor="start" x="126.38" y="-482.7" font-family="Arial" font-size="9.00"> </text>
<text xml:space="preserve" text-anchor="start" x="126.38" y="-468.2" font-family="Arial" font-size="9.00"> </text>
<polygon fill="#bfbfbf" stroke="#bfbfbf" points="80.38,-493.25 80.38,-493.25 174.62,-493.25 174.62,-493.25 80.38,-493.25"/>
<polygon fill="#bfbfbf" stroke="#bfbfbf" points="80.38,-478.75 80.38,-478.75 174.62,-478.75 174.62,-478.75 80.38,-478.75"/>
<polygon fill="none" stroke="#bfbfbf" points="80.38,-462.25 80.38,-509.75 174.62,-509.75 174.62,-462.25 80.38,-462.25"/>
</a>
</g>
</g>
<!-- Node4&#45;&gt;Node2 -->
<g id="edge3_Node000002_Node000004" class="edge">
<title>Node4&#45;&gt;Node2</title>
<g id="a_edge3_Node000002_Node000004"><a xlink:title=" ">
<path fill="none" stroke="#63b8ff" d="M127.35,-462.63C127.06,-418.47 126.41,-318.49 125.96,-250.29"/>
<polygon fill="none" stroke="#63b8ff" points="125.96,-250.42 121.92,-244.45 125.88,-238.42 129.92,-244.4 125.96,-250.42"/>
</a>
</g>
<text xml:space="preserve" text-anchor="start" x="129.68" y="-318.7" font-family="Arial" font-size="9.00" fill="grey">+onConnectionChanged</text>
</g>
<!-- Node5 -->
<g id="Node000005" class="node">
<title>Node5</title>
<g id="a_Node000005"><a xlink:href="../../d2/db9/a01926.html" target="_top" xlink:title="Computes qualitative connection grade from retries, TX period, and RSSI with decay penalties.">
<polygon fill="white" stroke="none" points="320.25,-259.5 202.75,-259.5 202.75,-100 320.25,-100 320.25,-259.5"/>
<text xml:space="preserve" text-anchor="start" x="206.75" y="-246.95" font-family="Arial" font-size="9.00">Lib::Xbee::API::Connection</text>
<text xml:space="preserve" text-anchor="start" x="245" y="-236.45" font-family="Arial" font-size="9.00">::Quality</text>
<text xml:space="preserve" text-anchor="start" x="260.38" y="-221.95" font-family="Arial" font-size="9.00"> </text>
<text xml:space="preserve" text-anchor="start" x="212.88" y="-207.45" font-family="Arial" font-size="9.00">+</text>
<text xml:space="preserve" text-anchor="start" x="228.25" y="-207.45" font-family="Arial" font-size="9.00">Quality()</text>
<text xml:space="preserve" text-anchor="start" x="212.88" y="-192.95" font-family="Arial" font-size="9.00">+</text>
<text xml:space="preserve" text-anchor="start" x="228.25" y="-192.95" font-family="Arial" font-size="9.00">start()</text>
<text xml:space="preserve" text-anchor="start" x="212.88" y="-178.45" font-family="Arial" font-size="9.00">+</text>
<text xml:space="preserve" text-anchor="start" x="228.25" y="-178.45" font-family="Arial" font-size="9.00">clear()</text>
<text xml:space="preserve" text-anchor="start" x="212.88" y="-163.95" font-family="Arial" font-size="9.00">+</text>
<text xml:space="preserve" text-anchor="start" x="228.25" y="-163.95" font-family="Arial" font-size="9.00">setRuntimeMode()</text>
<text xml:space="preserve" text-anchor="start" x="212.88" y="-149.45" font-family="Arial" font-size="9.00">+</text>
<text xml:space="preserve" text-anchor="start" x="228.25" y="-149.45" font-family="Arial" font-size="9.00">setScannerMode()</text>
<text xml:space="preserve" text-anchor="start" x="212.88" y="-134.95" font-family="Arial" font-size="9.00">+</text>
<text xml:space="preserve" text-anchor="start" x="228.25" y="-134.95" font-family="Arial" font-size="9.00">getPercent()</text>
<text xml:space="preserve" text-anchor="start" x="212.88" y="-120.45" font-family="Arial" font-size="9.00">+</text>
<text xml:space="preserve" text-anchor="start" x="228.25" y="-120.45" font-family="Arial" font-size="9.00">getState()</text>
<text xml:space="preserve" text-anchor="start" x="212.88" y="-105.95" font-family="Arial" font-size="9.00">+</text>
<text xml:space="preserve" text-anchor="start" x="228.25" y="-105.95" font-family="Arial" font-size="9.00">update()</text>
<polygon fill="#666666" stroke="#666666" points="202.75,-232.5 202.75,-232.5 320.25,-232.5 320.25,-232.5 202.75,-232.5"/>
<polygon fill="#666666" stroke="#666666" points="202.75,-218 202.75,-218 320.25,-218 320.25,-218 202.75,-218"/>
<polygon fill="none" stroke="#666666" points="202.75,-100 202.75,-259.5 320.25,-259.5 320.25,-100 202.75,-100"/>
</a>
</g>
</g>
<!-- Node5&#45;&gt;Node1 -->
<g id="edge4_Node000001_Node000005" class="edge">
<title>Node5&#45;&gt;Node1</title>
<g id="a_edge4_Node000001_Node000005"><a xlink:title=" ">
<path fill="none" stroke="#63b8ff" d="M261.5,-100.4C261.5,-86.25 261.5,-72.17 261.5,-60.06"/>
<polygon fill="none" stroke="#63b8ff" points="261.5,-60.22 257.5,-54.22 261.5,-48.22 265.5,-54.22 261.5,-60.22"/>
</a>
</g>
<text xml:space="preserve" text-anchor="start" x="264.5" y="-70.45" font-family="Arial" font-size="9.00" fill="grey">+quality</text>
</g>
<!-- Node6 -->
<g id="Node000006" class="node">
<title>Node6</title>
<g id="a_Node000006"><a xlink:title=" ">
<polygon fill="white" stroke="none" points="312.88,-520.25 208.12,-520.25 208.12,-451.75 312.88,-451.75 312.88,-520.25"/>
<text xml:space="preserve" text-anchor="start" x="212.12" y="-507.7" font-family="Arial" font-size="9.00">function&lt; void(Lib</text>
<text xml:space="preserve" text-anchor="start" x="212.12" y="-497.2" font-family="Arial" font-size="9.00">::Xbee::API::Connection</text>
<text xml:space="preserve" text-anchor="start" x="236.88" y="-486.7" font-family="Arial" font-size="9.00">::Quality *)&gt;</text>
<text xml:space="preserve" text-anchor="start" x="259.38" y="-472.2" font-family="Arial" font-size="9.00"> </text>
<text xml:space="preserve" text-anchor="start" x="259.38" y="-457.7" font-family="Arial" font-size="9.00"> </text>
<polygon fill="#bfbfbf" stroke="#bfbfbf" points="208.12,-482.75 208.12,-482.75 312.88,-482.75 312.88,-482.75 208.12,-482.75"/>
<polygon fill="#bfbfbf" stroke="#bfbfbf" points="208.12,-468.25 208.12,-468.25 312.88,-468.25 312.88,-468.25 208.12,-468.25"/>
<polygon fill="none" stroke="#bfbfbf" points="208.12,-451.75 208.12,-520.25 312.88,-520.25 312.88,-451.75 208.12,-451.75"/>
</a>
</g>
</g>
<!-- Node6&#45;&gt;Node5 -->
<g id="edge5_Node000005_Node000006" class="edge">
<title>Node6&#45;&gt;Node5</title>
<g id="a_edge5_Node000005_Node000006"><a xlink:title=" ">
<path fill="none" stroke="#63b8ff" d="M260.61,-451.86C260.75,-409.01 261,-332.68 261.2,-271.91"/>
<polygon fill="none" stroke="#63b8ff" points="261.2,-272.09 257.22,-266.08 261.24,-260.09 265.22,-266.11 261.2,-272.09"/>
</a>
</g>
<text xml:space="preserve" text-anchor="start" x="264.18" y="-318.7" font-family="Arial" font-size="9.00" fill="grey">+onUpdate</text>
</g>
<!-- Node7 -->
<g id="Node000007" class="node">
<title>Node7</title>
<g id="a_Node000007"><a xlink:href="../../d3/d33/a01930.html" target="_top" xlink:title="Statistical counters and metrics (signal strength, periods, event counters).">
<polygon fill="white" stroke="none" points="520.25,-216 402.75,-216 402.75,-143.5 520.25,-143.5 520.25,-216"/>
<text xml:space="preserve" text-anchor="start" x="406.75" y="-203.45" font-family="Arial" font-size="9.00">Lib::Xbee::API::Connection</text>
<text xml:space="preserve" text-anchor="start" x="451.75" y="-192.95" font-family="Arial" font-size="9.00">::Info</text>
<text xml:space="preserve" text-anchor="start" x="460.38" y="-178.45" font-family="Arial" font-size="9.00"> </text>
<text xml:space="preserve" text-anchor="start" x="425.25" y="-163.95" font-family="Arial" font-size="9.00">+</text>
<text xml:space="preserve" text-anchor="start" x="453" y="-163.95" font-family="Arial" font-size="9.00">Info()</text>
<text xml:space="preserve" text-anchor="start" x="425.25" y="-149.45" font-family="Arial" font-size="9.00">+</text>
<text xml:space="preserve" text-anchor="start" x="453" y="-149.45" font-family="Arial" font-size="9.00">~Info()</text>
<polygon fill="#666666" stroke="#666666" points="402.75,-189 402.75,-189 520.25,-189 520.25,-189 402.75,-189"/>
<polygon fill="#666666" stroke="#666666" points="402.75,-174.5 402.75,-174.5 520.25,-174.5 520.25,-174.5 402.75,-174.5"/>
<polygon fill="none" stroke="#666666" points="402.75,-143.5 402.75,-216 520.25,-216 520.25,-143.5 402.75,-143.5"/>
</a>
</g>
</g>
<!-- Node7&#45;&gt;Node1 -->
<g id="edge6_Node000001_Node000007" class="edge">
<title>Node7&#45;&gt;Node1</title>
<g id="a_edge6_Node000001_Node000007"><a xlink:title=" ">
<path fill="none" stroke="#63b8ff" d="M415.87,-143.61C381.22,-116.94 334.08,-80.63 301.03,-55.19"/>
<polygon fill="none" stroke="#63b8ff" points="301.06,-55.21 293.86,-54.72 291.55,-47.89 298.74,-48.38 301.06,-55.21"/>
</a>
</g>
<text xml:space="preserve" text-anchor="start" x="334.9" y="-70.45" font-family="Arial" font-size="9.00" fill="grey">+info</text>
</g>
<!-- Node8 -->
<g id="Node000008" class="node">
<title>Node8</title>
<g id="a_Node000008"><a xlink:href="../../d3/df9/a01942.html" target="_top" xlink:title="Holds raw RSSI value and provides percent conversion.">
<polygon fill="white" stroke="none" points="448.25,-544 330.75,-544 330.75,-428 448.25,-428 448.25,-544"/>
<text xml:space="preserve" text-anchor="start" x="334.75" y="-531.45" font-family="Arial" font-size="9.00">Lib::Xbee::API::Connection</text>
<text xml:space="preserve" text-anchor="start" x="347.12" y="-520.95" font-family="Arial" font-size="9.00">::Info::SignalStrength</text>
<text xml:space="preserve" text-anchor="start" x="388.38" y="-506.45" font-family="Arial" font-size="9.00"> </text>
<text xml:space="preserve" text-anchor="start" x="342.19" y="-491.95" font-family="Arial" font-size="9.00">+</text>
<text xml:space="preserve" text-anchor="start" x="358.88" y="-491.95" font-family="Arial" font-size="9.00">SignalStrength()</text>
<text xml:space="preserve" text-anchor="start" x="342.19" y="-477.45" font-family="Arial" font-size="9.00">+</text>
<text xml:space="preserve" text-anchor="start" x="358.88" y="-477.45" font-family="Arial" font-size="9.00">SignalStrength()</text>
<text xml:space="preserve" text-anchor="start" x="342.19" y="-462.95" font-family="Arial" font-size="9.00">+</text>
<text xml:space="preserve" text-anchor="start" x="358.88" y="-462.95" font-family="Arial" font-size="9.00">operator=()</text>
<text xml:space="preserve" text-anchor="start" x="342.19" y="-448.45" font-family="Arial" font-size="9.00">+</text>
<text xml:space="preserve" text-anchor="start" x="358.88" y="-448.45" font-family="Arial" font-size="9.00">operator uint8_t()</text>
<text xml:space="preserve" text-anchor="start" x="342.19" y="-433.95" font-family="Arial" font-size="9.00">+</text>
<text xml:space="preserve" text-anchor="start" x="358.88" y="-433.95" font-family="Arial" font-size="9.00">toPercent()</text>
<polygon fill="#666666" stroke="#666666" points="330.75,-517 330.75,-517 448.25,-517 448.25,-517 330.75,-517"/>
<polygon fill="#666666" stroke="#666666" points="330.75,-502.5 330.75,-502.5 448.25,-502.5 448.25,-502.5 330.75,-502.5"/>
<polygon fill="none" stroke="#666666" points="330.75,-428 330.75,-544 448.25,-544 448.25,-428 330.75,-428"/>
</a>
</g>
</g>
<!-- Node8&#45;&gt;Node7 -->
<g id="edge7_Node000007_Node000008" class="edge">
<title>Node8&#45;&gt;Node7</title>
<g id="a_edge7_Node000007_Node000008"><a xlink:title=" ">
<path fill="none" stroke="#63b8ff" d="M388.28,-428.31C388.86,-385.9 392.86,-326.95 408,-277.5 413.33,-260.07 422.07,-242.26 430.95,-226.75"/>
<polygon fill="none" stroke="#63b8ff" points="430.81,-226.99 430.44,-219.79 436.94,-216.68 437.31,-223.88 430.81,-226.99"/>
</a>
</g>
<text xml:space="preserve" text-anchor="start" x="411" y="-318.7" font-family="Arial" font-size="9.00" fill="grey">+signalStrength</text>
</g>
<!-- Node9 -->
<g id="Node000009" class="node">
<title>Node9</title>
<g id="a_Node000009"><a xlink:href="../../d5/dd0/a01938.html" target="_top" xlink:title="TX period tracking with smoothing and min/max capture.">
<polygon fill="white" stroke="none" points="584.25,-587.5 466.75,-587.5 466.75,-384.5 584.25,-384.5 584.25,-587.5"/>
<text xml:space="preserve" text-anchor="start" x="470.75" y="-574.95" font-family="Arial" font-size="9.00">Lib::Xbee::API::Connection</text>
<text xml:space="preserve" text-anchor="start" x="500" y="-564.45" font-family="Arial" font-size="9.00">::Info::Period</text>
<text xml:space="preserve" text-anchor="start" x="524.38" y="-549.95" font-family="Arial" font-size="9.00"> </text>
<text xml:space="preserve" text-anchor="start" x="474.44" y="-535.45" font-family="Arial" font-size="9.00">+</text>
<text xml:space="preserve" text-anchor="start" x="487.38" y="-535.45" font-family="Arial" font-size="9.00">Period()</text>
<text xml:space="preserve" text-anchor="start" x="474.44" y="-520.95" font-family="Arial" font-size="9.00">+</text>
<text xml:space="preserve" text-anchor="start" x="487.38" y="-520.95" font-family="Arial" font-size="9.00">getValue()</text>
<text xml:space="preserve" text-anchor="start" x="474.44" y="-506.45" font-family="Arial" font-size="9.00">+</text>
<text xml:space="preserve" text-anchor="start" x="487.38" y="-506.45" font-family="Arial" font-size="9.00">getRawValue()</text>
<text xml:space="preserve" text-anchor="start" x="474.44" y="-491.95" font-family="Arial" font-size="9.00">+</text>
<text xml:space="preserve" text-anchor="start" x="487.38" y="-491.95" font-family="Arial" font-size="9.00">getMinimum()</text>
<text xml:space="preserve" text-anchor="start" x="474.44" y="-477.45" font-family="Arial" font-size="9.00">+</text>
<text xml:space="preserve" text-anchor="start" x="487.38" y="-477.45" font-family="Arial" font-size="9.00">getMaximum()</text>
<text xml:space="preserve" text-anchor="start" x="474.44" y="-462.95" font-family="Arial" font-size="9.00">+</text>
<text xml:space="preserve" text-anchor="start" x="487.38" y="-462.95" font-family="Arial" font-size="9.00">clearMinMax()</text>
<text xml:space="preserve" text-anchor="start" x="474.44" y="-448.45" font-family="Arial" font-size="9.00">+</text>
<text xml:space="preserve" text-anchor="start" x="487.38" y="-448.45" font-family="Arial" font-size="9.00">beginMeasurement()</text>
<text xml:space="preserve" text-anchor="start" x="474.44" y="-433.95" font-family="Arial" font-size="9.00">+</text>
<text xml:space="preserve" text-anchor="start" x="487.38" y="-433.95" font-family="Arial" font-size="9.00">endMeasurement()</text>
<text xml:space="preserve" text-anchor="start" x="474.44" y="-419.45" font-family="Arial" font-size="9.00">+</text>
<text xml:space="preserve" text-anchor="start" x="487.38" y="-419.45" font-family="Arial" font-size="9.00">stopMeasurement()</text>
<text xml:space="preserve" text-anchor="start" x="474.44" y="-404.95" font-family="Arial" font-size="9.00">+</text>
<text xml:space="preserve" text-anchor="start" x="487.38" y="-404.95" font-family="Arial" font-size="9.00">reset()</text>
<text xml:space="preserve" text-anchor="start" x="474.44" y="-390.45" font-family="Arial" font-size="9.00">+</text>
<text xml:space="preserve" text-anchor="start" x="487.38" y="-390.45" font-family="Arial" font-size="9.00">operator uint32_t()</text>
<polygon fill="#666666" stroke="#666666" points="466.75,-560.5 466.75,-560.5 584.25,-560.5 584.25,-560.5 466.75,-560.5"/>
<polygon fill="#666666" stroke="#666666" points="466.75,-546 466.75,-546 584.25,-546 584.25,-546 466.75,-546"/>
<polygon fill="none" stroke="#666666" points="466.75,-384.5 466.75,-587.5 584.25,-587.5 584.25,-384.5 466.75,-384.5"/>
</a>
</g>
</g>
<!-- Node9&#45;&gt;Node7 -->
<g id="edge8_Node000007_Node000009" class="edge">
<title>Node9&#45;&gt;Node7</title>
<g id="a_edge8_Node000007_Node000009"><a xlink:title=" ">
<path fill="none" stroke="#63b8ff" d="M504.37,-384.53C493.3,-331.94 480.27,-270 471.51,-228.33"/>
<polygon fill="none" stroke="#63b8ff" points="471.53,-228.44 466.38,-223.4 469.06,-216.7 474.21,-221.75 471.53,-228.44"/>
</a>
</g>
<text xml:space="preserve" text-anchor="start" x="502.23" y="-318.7" font-family="Arial" font-size="9.00" fill="grey">+transmitPeriod</text>
</g>
<!-- Node10 -->
<g id="Node000010" class="node">
<title>Node10</title>
<g id="a_Node000010"><a xlink:href="../../de/da9/a01934.html" target="_top" xlink:title="Bounded counter (saturates at MAX_VALUE).">
<polygon fill="white" stroke="none" points="720.25,-536.75 602.75,-536.75 602.75,-435.25 720.25,-435.25 720.25,-536.75"/>
<text xml:space="preserve" text-anchor="start" x="606.75" y="-524.2" font-family="Arial" font-size="9.00">Lib::Xbee::API::Connection</text>
<text xml:space="preserve" text-anchor="start" x="633" y="-513.7" font-family="Arial" font-size="9.00">::Info::Counter</text>
<text xml:space="preserve" text-anchor="start" x="660.38" y="-499.2" font-family="Arial" font-size="9.00"> </text>
<text xml:space="preserve" text-anchor="start" x="612.88" y="-484.7" font-family="Arial" font-size="9.00">+</text>
<text xml:space="preserve" text-anchor="start" x="628.25" y="-484.7" font-family="Arial" font-size="9.00">Counter()</text>
<text xml:space="preserve" text-anchor="start" x="612.88" y="-470.2" font-family="Arial" font-size="9.00">+</text>
<text xml:space="preserve" text-anchor="start" x="628.25" y="-470.2" font-family="Arial" font-size="9.00">operator uint32_t()</text>
<text xml:space="preserve" text-anchor="start" x="612.88" y="-455.7" font-family="Arial" font-size="9.00">+</text>
<text xml:space="preserve" text-anchor="start" x="628.25" y="-455.7" font-family="Arial" font-size="9.00">clear()</text>
<text xml:space="preserve" text-anchor="start" x="612.88" y="-441.2" font-family="Arial" font-size="9.00">+</text>
<text xml:space="preserve" text-anchor="start" x="628.25" y="-441.2" font-family="Arial" font-size="9.00">operator++()</text>
<polygon fill="#666666" stroke="#666666" points="602.75,-509.75 602.75,-509.75 720.25,-509.75 720.25,-509.75 602.75,-509.75"/>
<polygon fill="#666666" stroke="#666666" points="602.75,-495.25 602.75,-495.25 720.25,-495.25 720.25,-495.25 602.75,-495.25"/>
<polygon fill="none" stroke="#666666" points="602.75,-435.25 602.75,-536.75 720.25,-536.75 720.25,-435.25 602.75,-435.25"/>
</a>
</g>
</g>
<!-- Node10&#45;&gt;Node7 -->
<g id="edge9_Node000007_Node000010" class="edge">
<title>Node10&#45;&gt;Node7</title>
<g id="a_edge9_Node000007_Node000010"><a xlink:title=" ">
<path fill="none" stroke="#63b8ff" d="M647.62,-435.62C633.62,-391.4 608.99,-326.2 573.5,-277.5 559.14,-257.79 540.03,-239.39 521.66,-224.05"/>
<polygon fill="none" stroke="#63b8ff" points="521.59,-223.98 514.41,-223.3 512.27,-216.42 519.45,-217.1 521.59,-223.98"/>
</a>
</g>
<text xml:space="preserve" text-anchor="start" x="623.95" y="-354.95" font-family="Arial" font-size="9.00" fill="grey">+deletedMessages</text>
<text xml:space="preserve" text-anchor="start" x="623.95" y="-340.45" font-family="Arial" font-size="9.00" fill="grey">+deletedTransmitStatus</text>
<text xml:space="preserve" text-anchor="start" x="623.95" y="-325.95" font-family="Arial" font-size="9.00" fill="grey">+noTransmitStatus</text>
<text xml:space="preserve" text-anchor="start" x="623.95" y="-311.45" font-family="Arial" font-size="9.00" fill="grey">+reconnectionCounter</text>
<text xml:space="preserve" text-anchor="start" x="623.95" y="-296.95" font-family="Arial" font-size="9.00" fill="grey">+retriesCounter</text>
<text xml:space="preserve" text-anchor="start" x="623.95" y="-282.45" font-family="Arial" font-size="9.00" fill="grey">+unsuccessTransmitStatus</text>
</g>
</g>
</svg>
