<?xml version="1.0" encoding="UTF-8" standalone="no"?>
<!DOCTYPE svg PUBLIC "-//W3C//DTD SVG 1.1//EN"
 "http://www.w3.org/Graphics/SVG/1.1/DTD/svg11.dtd">
<!-- Generated by graphviz version 12.2.1 (20241206.2353)
 -->
<!-- Title: ESC_write Pages: 1 -->
<svg width="989pt" height="788pt"
 viewBox="0.00 0.00 988.75 788.00" xmlns="http://www.w3.org/2000/svg" xmlns:xlink="http://www.w3.org/1999/xlink">
<g id="graph0" class="graph" transform="scale(1 1) rotate(0) translate(4 784)">
<title>ESC_write</title>
<!-- Node1 -->
<g id="Node000001" class="node">
<title>Node1</title>
<g id="a_Node000001"><a xlink:title="Writes data to the specified address in the ESC (EtherCAT Slave Controller).">
<polygon fill="#999999" stroke="#666666" points="980.75,-504 917.5,-504 917.5,-484 980.75,-484 980.75,-504"/>
<text text-anchor="middle" x="949.12" y="-490.5" font-family="Helvetica,sans-Serif" font-size="10.00">ESC_write</text>
</a>
</g>
</g>
<!-- Node2 -->
<g id="Node000002" class="node">
<title>Node2</title>
<g id="a_Node000002"><a xlink:href="../../d6/d5b/a00026.html#a576af053d37a7fef3a06513e59ede5f7" target="_top" xlink:title="Periodic EEPROM process.">
<polygon fill="white" stroke="#666666" points="869.88,-780 793.88,-780 793.88,-760 869.88,-760 869.88,-780"/>
<text text-anchor="middle" x="831.88" y="-766.5" font-family="Helvetica,sans-Serif" font-size="10.00">EEP_process</text>
</a>
</g>
</g>
<!-- Node1&#45;&gt;Node2 -->
<g id="edge1_Node000001_Node000002" class="edge">
<title>Node1&#45;&gt;Node2</title>
<g id="a_edge1_Node000001_Node000002"><a xlink:title=" ">
<path fill="none" stroke="#63b8ff" d="M948.16,-515.71C947.12,-562.94 938.44,-676.36 881.5,-746 876.85,-751.68 870.52,-756.13 863.97,-759.57"/>
<polygon fill="#63b8ff" stroke="#63b8ff" points="951.66,-516.02 948.27,-505.98 944.66,-515.94 951.66,-516.02"/>
</a>
</g>
</g>
<!-- Node3 -->
<g id="Node000003" class="node">
<title>Node3</title>
<g id="a_Node000003"><a xlink:href="../../d2/de7/a00014.html#a3833c0b62cdc0b62ee929154e9744fcc" target="_top" xlink:title=" ">
<polygon fill="white" stroke="#666666" points="746.25,-20 650.75,-20 650.75,0 746.25,0 746.25,-20"/>
<text text-anchor="middle" x="698.5" y="-6.5" font-family="Helvetica,sans-Serif" font-size="10.00">ESC_ackmbxread</text>
</a>
</g>
</g>
<!-- Node1&#45;&gt;Node3 -->
<g id="edge2_Node000001_Node000003" class="edge">
<title>Node1&#45;&gt;Node3</title>
<g id="a_edge2_Node000001_Node000003"><a xlink:title=" ">
<path fill="none" stroke="#63b8ff" d="M947.14,-472.64C943.35,-398.56 927.53,-153.96 881.5,-93 848.96,-49.9 788.8,-28.54 746.58,-18.41"/>
<polygon fill="#63b8ff" stroke="#63b8ff" points="943.63,-472.38 947.61,-482.2 950.62,-472.04 943.63,-472.38"/>
</a>
</g>
</g>
<!-- Node8 -->
<g id="Node000008" class="node">
<title>Node8</title>
<g id="a_Node000008"><a xlink:href="../../d2/de7/a00014.html#a5c7d013280d00c551c34a1b4ba268c93" target="_top" xlink:title="Handles the Application Layer (AL) error.">
<polygon fill="white" stroke="#666666" points="607.62,-400 533.88,-400 533.88,-380 607.62,-380 607.62,-400"/>
<text text-anchor="middle" x="570.75" y="-386.5" font-family="Helvetica,sans-Serif" font-size="10.00">ESC_ALerror</text>
</a>
</g>
</g>
<!-- Node1&#45;&gt;Node8 -->
<g id="edge7_Node000001_Node000008" class="edge">
<title>Node1&#45;&gt;Node8</title>
<g id="a_edge7_Node000001_Node000008"><a xlink:title=" ">
<path fill="none" stroke="#63b8ff" d="M906.36,-482.02C898.12,-479.68 889.54,-477.25 881.5,-475 782.69,-447.35 665.9,-415.54 608.02,-399.83"/>
<polygon fill="#63b8ff" stroke="#63b8ff" points="905.26,-485.35 915.84,-484.72 907.18,-478.62 905.26,-485.35"/>
</a>
</g>
</g>
<!-- Node18 -->
<g id="Node000018" class="node">
<title>Node18</title>
<g id="a_Node000018"><a xlink:href="../../d2/de7/a00014.html#a40a1a03142a321610db9b5af6d67fd4b" target="_top" xlink:title="Writes the specified mask to the AL event mask register.">
<polygon fill="white" stroke="#666666" points="335.25,-564 212,-564 212,-544 335.25,-544 335.25,-564"/>
<text text-anchor="middle" x="273.62" y="-550.5" font-family="Helvetica,sans-Serif" font-size="10.00">ESC_ALeventmaskwrite</text>
</a>
</g>
</g>
<!-- Node1&#45;&gt;Node18 -->
<g id="edge26_Node000001_Node000018" class="edge">
<title>Node1&#45;&gt;Node18</title>
<g id="a_edge26_Node000001_Node000018"><a xlink:title=" ">
<path fill="none" stroke="#63b8ff" d="M936.37,-514.01C904.94,-564.67 813.54,-694 699.5,-694 699.5,-694 699.5,-694 569.75,-694 480.24,-694 444.94,-710.81 371.25,-660 345.33,-642.13 356.31,-622.4 335.25,-599 322.71,-585.07 305.26,-572.66 292.31,-564.42"/>
<polygon fill="#63b8ff" stroke="#63b8ff" points="939.18,-516.13 941.37,-505.77 933.19,-512.5 939.18,-516.13"/>
</a>
</g>
</g>
<!-- Node19 -->
<g id="Node000019" class="node">
<title>Node19</title>
<g id="a_Node000019"><a xlink:href="../../d2/de7/a00014.html#afa67905db7384531173600ae1d20909a" target="_top" xlink:title="Writes an event to the Application Layer (AL) event register.">
<polygon fill="white" stroke="#666666" points="881.5,-504 782.25,-504 782.25,-484 881.5,-484 881.5,-504"/>
<text text-anchor="middle" x="831.88" y="-490.5" font-family="Helvetica,sans-Serif" font-size="10.00">ESC_ALeventwrite</text>
</a>
</g>
</g>
<!-- Node1&#45;&gt;Node19 -->
<g id="edge28_Node000001_Node000019" class="edge">
<title>Node1&#45;&gt;Node19</title>
<g id="a_edge28_Node000001_Node000019"><a xlink:title=" ">
<path fill="none" stroke="#63b8ff" d="M905.74,-494C897.91,-494 889.67,-494 881.66,-494"/>
<polygon fill="#63b8ff" stroke="#63b8ff" points="905.73,-497.5 915.73,-494 905.73,-490.5 905.73,-497.5"/>
</a>
</g>
</g>
<!-- Node20 -->
<g id="Node000020" class="node">
<title>Node20</title>
<g id="a_Node000020"><a xlink:href="../../d2/de7/a00014.html#a55117f304770586bf9627899ec5cb639" target="_top" xlink:title="Sets the Application Layer (AL) status of the EtherCAT Slave Controller (ESC).">
<polygon fill="white" stroke="#666666" points="611.38,-581 530.12,-581 530.12,-561 611.38,-561 611.38,-581"/>
<text text-anchor="middle" x="570.75" y="-567.5" font-family="Helvetica,sans-Serif" font-size="10.00">ESC_ALstatus</text>
</a>
</g>
</g>
<!-- Node1&#45;&gt;Node20 -->
<g id="edge29_Node000001_Node000020" class="edge">
<title>Node1&#45;&gt;Node20</title>
<g id="a_edge29_Node000001_Node000020"><a xlink:title=" ">
<path fill="none" stroke="#63b8ff" d="M906.25,-506.58C898.08,-508.85 889.55,-511.1 881.5,-513 785.38,-535.65 670.82,-555.2 611.6,-564.75"/>
<polygon fill="#63b8ff" stroke="#63b8ff" points="906.98,-510.01 915.64,-503.91 905.07,-503.28 906.98,-510.01"/>
</a>
</g>
</g>
<!-- Node21 -->
<g id="Node000021" class="node">
<title>Node21</title>
<g id="a_Node000021"><a xlink:href="../../d2/de7/a00014.html#affa1419beb816ec11170d6aa423e1d83" target="_top" xlink:title=" ">
<polygon fill="white" stroke="#666666" points="877.38,-229 786.38,-229 786.38,-209 877.38,-209 877.38,-229"/>
<text text-anchor="middle" x="831.88" y="-215.5" font-family="Helvetica,sans-Serif" font-size="10.00">ESC_SMwritepdi</text>
</a>
</g>
</g>
<!-- Node1&#45;&gt;Node21 -->
<g id="edge34_Node000001_Node000021" class="edge">
<title>Node1&#45;&gt;Node21</title>
<g id="a_edge34_Node000001_Node000021"><a xlink:title=" ">
<path fill="none" stroke="#63b8ff" d="M939.31,-472.97C916.17,-417.74 854.27,-270.06 837.26,-229.45"/>
<polygon fill="#63b8ff" stroke="#63b8ff" points="936.07,-474.29 943.16,-482.16 942.53,-471.58 936.07,-474.29"/>
</a>
</g>
</g>
<!-- Node29 -->
<g id="Node000029" class="node">
<title>Node29</title>
<g id="a_Node000029"><a xlink:href="../../d2/de7/a00014.html#a7148fd72772e0a097503d90e1d602852" target="_top" xlink:title=" ">
<polygon fill="white" stroke="#666666" points="739.5,-58 657.5,-58 657.5,-38 739.5,-38 739.5,-58"/>
<text text-anchor="middle" x="698.5" y="-44.5" font-family="Helvetica,sans-Serif" font-size="10.00">ESC_writembx</text>
</a>
</g>
</g>
<!-- Node1&#45;&gt;Node29 -->
<g id="edge67_Node000001_Node000029" class="edge">
<title>Node1&#45;&gt;Node29</title>
<g id="a_edge67_Node000001_Node000029"><a xlink:title=" ">
<path fill="none" stroke="#63b8ff" d="M947.45,-472.13C945,-421.11 933.7,-291.61 881.5,-200 840.53,-128.09 813.8,-119.82 746.25,-72 739.1,-66.94 730.74,-62.3 723.08,-58.48"/>
<polygon fill="#63b8ff" stroke="#63b8ff" points="943.95,-472.23 947.85,-482.08 950.94,-471.95 943.95,-472.23"/>
</a>
</g>
</g>
<!-- Node30 -->
<g id="Node000030" class="node">
<title>Node30</title>
<g id="a_Node000030"><a xlink:href="../../d4/dee/a00008.html#a71b1d5022f0ce6ff436fdfdf0589d7b5" target="_top" xlink:title=" ">
<polygon fill="white" stroke="#666666" points="741,-742 656,-742 656,-722 741,-722 741,-742"/>
<text text-anchor="middle" x="698.5" y="-728.5" font-family="Helvetica,sans-Serif" font-size="10.00">TXPDO_update</text>
</a>
</g>
</g>
<!-- Node1&#45;&gt;Node30 -->
<g id="edge69_Node000001_Node000030" class="edge">
<title>Node1&#45;&gt;Node30</title>
<g id="a_edge69_Node000001_Node000030"><a xlink:title=" ">
<path fill="none" stroke="#63b8ff" d="M948.48,-515.54C947.91,-559.35 939.88,-658.82 881.5,-708 842.74,-740.65 781.92,-742 741.39,-738.34"/>
<polygon fill="#63b8ff" stroke="#63b8ff" points="951.98,-515.58 948.46,-505.59 944.98,-515.59 951.98,-515.58"/>
</a>
</g>
</g>
<!-- Node4 -->
<g id="Node000004" class="node">
<title>Node4</title>
<g id="a_Node000004"><a xlink:href="../../d2/de7/a00014.html#ab610384ffda76f06ccaa6d6914df752e" target="_top" xlink:title="Processes the mailbox in the EtherCAT Slave Controller (ESC).">
<polygon fill="white" stroke="#666666" points="478.75,-96 383.25,-96 383.25,-76 478.75,-76 478.75,-96"/>
<text text-anchor="middle" x="431" y="-82.5" font-family="Helvetica,sans-Serif" font-size="10.00">ESC_mbxprocess</text>
</a>
</g>
</g>
<!-- Node3&#45;&gt;Node4 -->
<g id="edge3_Node000003_Node000004" class="edge">
<title>Node3&#45;&gt;Node4</title>
<g id="a_edge3_Node000003_Node000004"><a xlink:title=" ">
<path fill="none" stroke="#63b8ff" d="M645.6,-23.35C611.68,-32.24 566.46,-44.37 526.75,-56 505.72,-62.16 482.24,-69.59 463.91,-75.52"/>
<polygon fill="#63b8ff" stroke="#63b8ff" points="646.39,-26.77 655.19,-20.85 644.63,-19.99 646.39,-26.77"/>
</a>
</g>
</g>
<!-- Node5 -->
<g id="Node000005" class="node">
<title>Node5</title>
<g id="a_Node000005"><a xlink:href="../../d4/dee/a00008.html#ac8db332851793f138f93c64b45f0968d" target="_top" xlink:title=" ">
<polygon fill="white" stroke="#666666" points="168.88,-400 95.88,-400 95.88,-380 168.88,-380 168.88,-400"/>
<text text-anchor="middle" x="132.38" y="-386.5" font-family="Helvetica,sans-Serif" font-size="10.00">ecat_slv_poll</text>
</a>
</g>
</g>
<!-- Node4&#45;&gt;Node5 -->
<g id="edge4_Node000004_Node000005" class="edge">
<title>Node4&#45;&gt;Node5</title>
<g id="a_edge4_Node000004_Node000005"><a xlink:title=" ">
<path fill="none" stroke="#63b8ff" d="M378.33,-101.03C375.88,-102.26 373.51,-103.58 371.25,-105 250.65,-180.78 161,-338.12 138.74,-379.72"/>
<polygon fill="#63b8ff" stroke="#63b8ff" points="379.56,-104.31 387.3,-97.07 376.74,-97.9 379.56,-104.31"/>
</a>
</g>
</g>
<!-- Node7 -->
<g id="Node000007" class="node">
<title>Node7</title>
<g id="a_Node000007"><a xlink:href="../../d4/dee/a00008.html#adf1311ff3a94e7d4a01081e9765edb53" target="_top" xlink:title=" ">
<polygon fill="white" stroke="#666666" points="176,-447 88.75,-447 88.75,-427 176,-427 176,-447"/>
<text text-anchor="middle" x="132.38" y="-433.5" font-family="Helvetica,sans-Serif" font-size="10.00">ecat_slv_worker</text>
</a>
</g>
</g>
<!-- Node4&#45;&gt;Node7 -->
<g id="edge6_Node000004_Node000007" class="edge">
<title>Node4&#45;&gt;Node7</title>
<g id="a_edge6_Node000004_Node000007"><a xlink:title=" ">
<path fill="none" stroke="#63b8ff" d="M374,-102.52C373.05,-103.31 372.13,-104.14 371.25,-105 336.06,-139.58 359.87,-167.25 335.25,-210 293.54,-282.42 261.84,-284.92 212,-352 194.13,-376.05 197,-387.62 176,-409 169.3,-415.82 160.67,-421.87 152.92,-426.59"/>
<polygon fill="#63b8ff" stroke="#63b8ff" points="375.64,-105.63 382.09,-97.23 371.81,-99.78 375.64,-105.63"/>
</a>
</g>
</g>
<!-- Node6 -->
<g id="Node000006" class="node">
<title>Node6</title>
<g id="a_Node000006"><a xlink:href="../../d4/dee/a00008.html#a771f616c41967a475e64eaa386edc579" target="_top" xlink:title=" ">
<polygon fill="white" stroke="#666666" points="52.75,-438 0,-438 0,-418 52.75,-418 52.75,-438"/>
<text text-anchor="middle" x="26.38" y="-424.5" font-family="Helvetica,sans-Serif" font-size="10.00">ecat_slv</text>
</a>
</g>
</g>
<!-- Node5&#45;&gt;Node6 -->
<g id="edge5_Node000005_Node000006" class="edge">
<title>Node5&#45;&gt;Node6</title>
<g id="a_edge5_Node000005_Node000006"><a xlink:title=" ">
<path fill="none" stroke="#63b8ff" d="M92.08,-404.36C79.05,-409.12 64.88,-414.3 53.13,-418.59"/>
<polygon fill="#63b8ff" stroke="#63b8ff" points="93.07,-407.72 101.26,-401 90.67,-401.15 93.07,-407.72"/>
</a>
</g>
</g>
<!-- Node9 -->
<g id="Node000009" class="node">
<title>Node9</title>
<g id="a_Node000009"><a xlink:href="../../d4/dee/a00008.html#a3b2e93ee6595a21af2bdcf70f8dd939a" target="_top" xlink:title="Initializes the EtherCAT slave with the given configuration.">
<polygon fill="white" stroke="#666666" points="466.38,-552 395.62,-552 395.62,-532 466.38,-532 466.38,-552"/>
<text text-anchor="middle" x="431" y="-538.5" font-family="Helvetica,sans-Serif" font-size="10.00">ecat_slv_init</text>
</a>
</g>
</g>
<!-- Node8&#45;&gt;Node9 -->
<g id="edge8_Node000008_Node000009" class="edge">
<title>Node8&#45;&gt;Node9</title>
<g id="a_edge8_Node000008_Node000009"><a xlink:title=" ">
<path fill="none" stroke="#63b8ff" d="M539.53,-406.66C534.79,-410.26 530.29,-414.39 526.75,-419 496.94,-457.78 525.69,-488.77 490.75,-523 484.16,-529.45 475.37,-533.71 466.6,-536.53"/>
<polygon fill="#63b8ff" stroke="#63b8ff" points="541.18,-409.76 547.5,-401.26 537.26,-403.97 541.18,-409.76"/>
</a>
</g>
</g>
<!-- Node10 -->
<g id="Node000010" class="node">
<title>Node10</title>
<g id="a_Node000010"><a xlink:href="../../d2/de7/a00014.html#ad014144dd05e03aa988a5158b095cc56" target="_top" xlink:title="Sets the Application Layer (AL) status to error state.">
<polygon fill="white" stroke="#666666" points="490.75,-628 371.25,-628 371.25,-608 490.75,-608 490.75,-628"/>
<text text-anchor="middle" x="431" y="-614.5" font-family="Helvetica,sans-Serif" font-size="10.00">ESC_ALstatusgotoerror</text>
</a>
</g>
</g>
<!-- Node8&#45;&gt;Node10 -->
<g id="edge9_Node000008_Node000010" class="edge">
<title>Node8&#45;&gt;Node10</title>
<g id="a_edge9_Node000008_Node000010"><a xlink:title=" ">
<path fill="none" stroke="#63b8ff" d="M538.57,-406.9C534.11,-410.41 529.95,-414.45 526.75,-419 489.3,-472.26 523.35,-504.64 490.75,-561 479.58,-580.31 460.01,-597.38 446.55,-607.68"/>
<polygon fill="#63b8ff" stroke="#63b8ff" points="540.47,-409.84 546.72,-401.29 536.5,-404.07 540.47,-409.84"/>
</a>
</g>
</g>
<!-- Node12 -->
<g id="Node000012" class="node">
<title>Node12</title>
<g id="a_Node000012"><a xlink:href="../../d2/de7/a00014.html#ae39ba927bd3f8d29af22fb690bbc19ea" target="_top" xlink:title=" ">
<polygon fill="white" stroke="#666666" points="484.38,-362 377.62,-362 377.62,-342 484.38,-342 484.38,-362"/>
<text text-anchor="middle" x="431" y="-348.5" font-family="Helvetica,sans-Serif" font-size="10.00">ESC_load_device_id</text>
</a>
</g>
</g>
<!-- Node8&#45;&gt;Node12 -->
<g id="edge12_Node000008_Node000012" class="edge">
<title>Node8&#45;&gt;Node12</title>
<g id="a_edge12_Node000008_Node000012"><a xlink:title=" ">
<path fill="none" stroke="#63b8ff" d="M522.59,-376.99C505.39,-372.24 486.17,-366.94 469.87,-362.45"/>
<polygon fill="#63b8ff" stroke="#63b8ff" points="521.53,-380.33 532.1,-379.61 523.39,-373.58 521.53,-380.33"/>
</a>
</g>
</g>
<!-- Node13 -->
<g id="Node000013" class="node">
<title>Node13</title>
<g id="a_Node000013"><a xlink:href="../../d2/de7/a00014.html#a1f4da4aa96dc469b218abf33ff857130" target="_top" xlink:title="Handles the state transitions of the EtherCAT Slave Controller (ESC).">
<polygon fill="white" stroke="#666666" points="305.62,-381 241.62,-381 241.62,-361 305.62,-361 305.62,-381"/>
<text text-anchor="middle" x="273.62" y="-367.5" font-family="Helvetica,sans-Serif" font-size="10.00">ESC_state</text>
</a>
</g>
</g>
<!-- Node8&#45;&gt;Node13 -->
<g id="edge25_Node000008_Node000013" class="edge">
<title>Node8&#45;&gt;Node13</title>
<g id="a_edge25_Node000008_Node000013"><a xlink:title=" ">
<path fill="none" stroke="#63b8ff" d="M522.35,-386.95C461.45,-383.03 357.44,-376.33 305.72,-373"/>
<polygon fill="#63b8ff" stroke="#63b8ff" points="521.85,-390.42 532.05,-387.57 522.3,-383.44 521.85,-390.42"/>
</a>
</g>
</g>
<!-- Node14 -->
<g id="Node000014" class="node">
<title>Node14</title>
<g id="a_Node000014"><a xlink:href="../../d2/de7/a00014.html#a8e6c3aa31e155f682e8150f552309d10" target="_top" xlink:title="Activates the SyncManager event.">
<polygon fill="white" stroke="#666666" points="482.88,-514 379.12,-514 379.12,-494 482.88,-494 482.88,-514"/>
<text text-anchor="middle" x="431" y="-500.5" font-family="Helvetica,sans-Serif" font-size="10.00">ESC_sm_act_event</text>
</a>
</g>
</g>
<!-- Node8&#45;&gt;Node14 -->
<g id="edge16_Node000008_Node000014" class="edge">
<title>Node8&#45;&gt;Node14</title>
<g id="a_edge16_Node000008_Node000014"><a xlink:title=" ">
<path fill="none" stroke="#63b8ff" d="M544.07,-406.47C538.27,-410.43 532.21,-414.74 526.75,-419 494.68,-444 459.77,-476.98 442.66,-493.54"/>
<polygon fill="#63b8ff" stroke="#63b8ff" points="545.8,-409.52 552.19,-401.07 541.93,-403.7 545.8,-409.52"/>
</a>
</g>
</g>
<!-- Node15 -->
<g id="Node000015" class="node">
<title>Node15</title>
<g id="a_Node000015"><a xlink:href="../../d2/de7/a00014.html#ade05d9ef7cff6ffd50f653504a0ace52" target="_top" xlink:title="Starts the input process for the ESC (EtherCAT Slave Controller).">
<polygon fill="white" stroke="#666666" points="472.38,-286 389.62,-286 389.62,-266 472.38,-266 472.38,-286"/>
<text text-anchor="middle" x="431" y="-272.5" font-family="Helvetica,sans-Serif" font-size="10.00">ESC_startinput</text>
</a>
</g>
</g>
<!-- Node8&#45;&gt;Node15 -->
<g id="edge19_Node000008_Node000015" class="edge">
<title>Node8&#45;&gt;Node15</title>
<g id="a_edge19_Node000008_Node000015"><a xlink:title=" ">
<path fill="none" stroke="#63b8ff" d="M548.96,-372.79C519.9,-348.74 468.06,-305.84 444.4,-286.26"/>
<polygon fill="#63b8ff" stroke="#63b8ff" points="546.42,-375.24 556.36,-378.92 550.89,-369.85 546.42,-375.24"/>
</a>
</g>
</g>
<!-- Node16 -->
<g id="Node000016" class="node">
<title>Node16</title>
<g id="a_Node000016"><a xlink:href="../../d2/de7/a00014.html#ab6547ddfd82b1a2316b5f154b9048c4e" target="_top" xlink:title="Starts the mailbox with the specified state.">
<polygon fill="white" stroke="#666666" points="471.25,-210 390.75,-210 390.75,-190 471.25,-190 471.25,-210"/>
<text text-anchor="middle" x="431" y="-196.5" font-family="Helvetica,sans-Serif" font-size="10.00">ESC_startmbx</text>
</a>
</g>
</g>
<!-- Node8&#45;&gt;Node16 -->
<g id="edge21_Node000008_Node000016" class="edge">
<title>Node8&#45;&gt;Node16</title>
<g id="a_edge21_Node000008_Node000016"><a xlink:title=" ">
<path fill="none" stroke="#63b8ff" d="M560.31,-369.28C539.68,-324.05 492.28,-220.36 490.75,-219 485.3,-214.16 478.59,-210.56 471.69,-207.87"/>
<polygon fill="#63b8ff" stroke="#63b8ff" points="557.08,-370.64 564.41,-378.28 563.45,-367.73 557.08,-370.64"/>
</a>
</g>
</g>
<!-- Node17 -->
<g id="Node000017" class="node">
<title>Node17</title>
<g id="a_Node000017"><a xlink:href="../../d2/de7/a00014.html#aa8df893b54bc0ede4ed5cb06b291e262" target="_top" xlink:title=" ">
<polygon fill="white" stroke="#666666" points="480.62,-248 381.38,-248 381.38,-228 480.62,-228 480.62,-248"/>
<text text-anchor="middle" x="431" y="-234.5" font-family="Helvetica,sans-Serif" font-size="10.00">ESC_startmbxboot</text>
</a>
</g>
</g>
<!-- Node8&#45;&gt;Node17 -->
<g id="edge23_Node000008_Node000017" class="edge">
<title>Node8&#45;&gt;Node17</title>
<g id="a_edge23_Node000008_Node000017"><a xlink:title=" ">
<path fill="none" stroke="#63b8ff" d="M562.7,-369C551.82,-339.72 528.19,-286.9 490.75,-257 486.48,-253.59 481.58,-250.78 476.47,-248.48"/>
<polygon fill="#63b8ff" stroke="#63b8ff" points="559.32,-369.95 565.97,-378.21 565.92,-367.61 559.32,-369.95"/>
</a>
</g>
</g>
<!-- Node11 -->
<g id="Node000011" class="node">
<title>Node11</title>
<g id="a_Node000011"><a xlink:href="../../d4/dee/a00008.html#a5e916cdc70d47e2df99f370dcdf40a6a" target="_top" xlink:title=" ">
<polygon fill="white" stroke="#666666" points="310.5,-628 236.75,-628 236.75,-608 310.5,-608 310.5,-628"/>
<text text-anchor="middle" x="273.62" y="-614.5" font-family="Helvetica,sans-Serif" font-size="10.00">DIG_process</text>
</a>
</g>
</g>
<!-- Node10&#45;&gt;Node11 -->
<g id="edge10_Node000010_Node000011" class="edge">
<title>Node10&#45;&gt;Node11</title>
<g id="a_edge10_Node000010_Node000011"><a xlink:title=" ">
<path fill="none" stroke="#63b8ff" d="M359.77,-618C342.8,-618 325.35,-618 310.7,-618"/>
<polygon fill="#63b8ff" stroke="#63b8ff" points="359.3,-621.5 369.3,-618 359.3,-614.5 359.3,-621.5"/>
</a>
</g>
</g>
<!-- Node11&#45;&gt;Node6 -->
<g id="edge11_Node000011_Node000006" class="edge">
<title>Node11&#45;&gt;Node6</title>
<g id="a_edge11_Node000011_Node000006"><a xlink:title=" ">
<path fill="none" stroke="#63b8ff" d="M249.36,-600.96C238.03,-592.6 224.25,-582.35 212,-573 146.89,-523.28 70.21,-462.25 40.26,-438.32"/>
<polygon fill="#63b8ff" stroke="#63b8ff" points="247.23,-603.74 257.36,-606.84 251.38,-598.1 247.23,-603.74"/>
</a>
</g>
</g>
<!-- Node12&#45;&gt;Node13 -->
<g id="edge13_Node000012_Node000013" class="edge">
<title>Node12&#45;&gt;Node13</title>
<g id="a_edge13_Node000012_Node000013"><a xlink:title=" ">
<path fill="none" stroke="#63b8ff" d="M366.04,-359.82C345.27,-362.36 323.15,-365.07 305.87,-367.18"/>
<polygon fill="#63b8ff" stroke="#63b8ff" points="366.39,-363.3 375.89,-358.62 365.54,-356.36 366.39,-363.3"/>
</a>
</g>
</g>
<!-- Node13&#45;&gt;Node5 -->
<g id="edge14_Node000013_Node000005" class="edge">
<title>Node13&#45;&gt;Node5</title>
<g id="a_edge14_Node000013_Node000005"><a xlink:title=" ">
<path fill="none" stroke="#63b8ff" d="M230.05,-376.81C210.58,-379.47 187.76,-382.58 169.19,-385.11"/>
<polygon fill="#63b8ff" stroke="#63b8ff" points="230.44,-380.29 239.87,-375.47 229.49,-373.35 230.44,-380.29"/>
</a>
</g>
</g>
<!-- Node13&#45;&gt;Node7 -->
<g id="edge15_Node000013_Node000007" class="edge">
<title>Node13&#45;&gt;Node7</title>
<g id="a_edge15_Node000013_Node000007"><a xlink:title=" ">
<path fill="none" stroke="#63b8ff" d="M240.4,-386.27C214.29,-398.65 178.21,-415.75 155.34,-426.59"/>
<polygon fill="#63b8ff" stroke="#63b8ff" points="241.66,-389.55 249.19,-382.11 238.66,-383.23 241.66,-389.55"/>
</a>
</g>
</g>
<!-- Node14&#45;&gt;Node5 -->
<g id="edge17_Node000014_Node000005" class="edge">
<title>Node14&#45;&gt;Node5</title>
<g id="a_edge17_Node000014_Node000005"><a xlink:title=" ">
<path fill="none" stroke="#63b8ff" d="M389.3,-489.19C383.11,-486.42 376.9,-483.34 371.25,-480 353.55,-469.56 353.42,-460.59 335.25,-451 280.86,-422.28 210.91,-404.99 169.26,-396.49"/>
<polygon fill="#63b8ff" stroke="#63b8ff" points="387.64,-492.28 398.22,-492.94 390.36,-485.83 387.64,-492.28"/>
</a>
</g>
</g>
<!-- Node14&#45;&gt;Node7 -->
<g id="edge18_Node000014_Node000007" class="edge">
<title>Node14&#45;&gt;Node7</title>
<g id="a_edge18_Node000014_Node000007"><a xlink:title=" ">
<path fill="none" stroke="#63b8ff" d="M372.55,-491.02C314.99,-478.02 227.71,-458.31 176.03,-446.64"/>
<polygon fill="#63b8ff" stroke="#63b8ff" points="371.65,-494.41 382.18,-493.2 373.19,-487.58 371.65,-494.41"/>
</a>
</g>
</g>
<!-- Node15&#45;&gt;Node13 -->
<g id="edge20_Node000015_Node000013" class="edge">
<title>Node15&#45;&gt;Node13</title>
<g id="a_edge20_Node000015_Node000013"><a xlink:title=" ">
<path fill="none" stroke="#63b8ff" d="M389.83,-290.86C383.49,-293.65 377.1,-296.72 371.25,-300 338.74,-318.22 304.45,-345.67 286.77,-360.54"/>
<polygon fill="#63b8ff" stroke="#63b8ff" points="391.08,-294.13 398.95,-287.05 388.38,-287.67 391.08,-294.13"/>
</a>
</g>
</g>
<!-- Node16&#45;&gt;Node13 -->
<g id="edge22_Node000016_Node000013" class="edge">
<title>Node16&#45;&gt;Node13</title>
<g id="a_edge22_Node000016_Node000013"><a xlink:title=" ">
<path fill="none" stroke="#63b8ff" d="M379.9,-212.76C376.8,-214.57 373.87,-216.64 371.25,-219 341.96,-245.35 356.26,-266.67 335.25,-300 320.38,-323.58 298.13,-347.53 285.12,-360.7"/>
<polygon fill="#63b8ff" stroke="#63b8ff" points="381.38,-215.93 388.89,-208.46 378.35,-209.62 381.38,-215.93"/>
</a>
</g>
</g>
<!-- Node17&#45;&gt;Node13 -->
<g id="edge24_Node000017_Node000013" class="edge">
<title>Node17&#45;&gt;Node13</title>
<g id="a_edge24_Node000017_Node000013"><a xlink:title=" ">
<path fill="none" stroke="#63b8ff" d="M377.45,-253.26C375.31,-254.42 373.23,-255.67 371.25,-257 350.58,-270.93 351.34,-280.97 335.25,-300 316.83,-321.78 295.08,-347.17 283.29,-360.91"/>
<polygon fill="#63b8ff" stroke="#63b8ff" points="378.92,-256.44 386.5,-249.04 375.96,-250.09 378.92,-256.44"/>
</a>
</g>
</g>
<!-- Node18&#45;&gt;Node7 -->
<g id="edge27_Node000018_Node000007" class="edge">
<title>Node18&#45;&gt;Node7</title>
<g id="a_edge27_Node000018_Node000007"><a xlink:title=" ">
<path fill="none" stroke="#63b8ff" d="M251.56,-536.3C222.01,-511.47 169.23,-467.12 145.51,-447.19"/>
<polygon fill="#63b8ff" stroke="#63b8ff" points="249.2,-538.89 259.11,-542.64 253.7,-533.53 249.2,-538.89"/>
</a>
</g>
</g>
<!-- Node20&#45;&gt;Node9 -->
<g id="edge30_Node000020_Node000009" class="edge">
<title>Node20&#45;&gt;Node9</title>
<g id="a_edge30_Node000020_Node000009"><a xlink:title=" ">
<path fill="none" stroke="#63b8ff" d="M518.78,-560.27C501.4,-556.61 482.4,-552.61 466.61,-549.29"/>
<polygon fill="#63b8ff" stroke="#63b8ff" points="517.92,-563.66 528.43,-562.3 519.36,-556.82 517.92,-563.66"/>
</a>
</g>
</g>
<!-- Node20&#45;&gt;Node10 -->
<g id="edge31_Node000020_Node000010" class="edge">
<title>Node20&#45;&gt;Node10</title>
<g id="a_edge31_Node000020_Node000010"><a xlink:title=" ">
<path fill="none" stroke="#63b8ff" d="M528.52,-585.07C507.31,-592.3 481.91,-600.97 462.49,-607.6"/>
<polygon fill="#63b8ff" stroke="#63b8ff" points="529.41,-588.46 537.75,-581.92 527.15,-581.84 529.41,-588.46"/>
</a>
</g>
</g>
<!-- Node20&#45;&gt;Node13 -->
<g id="edge33_Node000020_Node000013" class="edge">
<title>Node20&#45;&gt;Node13</title>
<g id="a_edge33_Node000020_Node000013"><a xlink:title=" ">
<path fill="none" stroke="#63b8ff" d="M554.15,-589.93C539.65,-605.93 516.45,-627.68 490.75,-637 440.82,-655.11 414.61,-667.68 371.25,-637 332.01,-609.23 351.58,-580.21 335.25,-535 314.21,-476.76 288.2,-407.2 278.51,-381.34"/>
<polygon fill="#63b8ff" stroke="#63b8ff" points="556.73,-592.3 560.65,-582.46 551.45,-587.71 556.73,-592.3"/>
</a>
</g>
</g>
<!-- Node20&#45;&gt;Node14 -->
<g id="edge32_Node000020_Node000014" class="edge">
<title>Node20&#45;&gt;Node14</title>
<g id="a_edge32_Node000020_Node000014"><a xlink:title=" ">
<path fill="none" stroke="#63b8ff" d="M533.03,-555.57C530.87,-554.42 528.76,-553.23 526.75,-552 509.2,-541.31 508.83,-532.77 490.75,-523 484.62,-519.69 477.82,-516.83 471.07,-514.42"/>
<polygon fill="#63b8ff" stroke="#63b8ff" points="531.4,-558.67 541.91,-559.94 534.49,-552.39 531.4,-558.67"/>
</a>
</g>
</g>
<!-- Node21&#45;&gt;Node4 -->
<g id="edge35_Node000021_Node000004" class="edge">
<title>Node21&#45;&gt;Node4</title>
<g id="a_edge35_Node000021_Node000004"><a xlink:title=" ">
<path fill="none" stroke="#63b8ff" d="M806.48,-202.15C789.87,-190.99 767.17,-176.38 746.25,-165 689.81,-134.31 676.73,-121.88 614.75,-105 569.66,-92.72 516.33,-88.28 478.95,-86.72"/>
<polygon fill="#63b8ff" stroke="#63b8ff" points="804.48,-205.02 814.72,-207.74 808.41,-199.23 804.48,-205.02"/>
</a>
</g>
</g>
<!-- Node21&#45;&gt;Node16 -->
<g id="edge65_Node000021_Node000016" class="edge">
<title>Node21&#45;&gt;Node16</title>
<g id="a_edge65_Node000021_Node000016"><a xlink:title=" ">
<path fill="none" stroke="#63b8ff" d="M774.56,-216.32C692.63,-212.42 542.62,-205.27 471.46,-201.88"/>
<polygon fill="#63b8ff" stroke="#63b8ff" points="774.23,-219.81 784.38,-216.79 774.56,-212.81 774.23,-219.81"/>
</a>
</g>
</g>
<!-- Node21&#45;&gt;Node17 -->
<g id="edge66_Node000021_Node000017" class="edge">
<title>Node21&#45;&gt;Node17</title>
<g id="a_edge66_Node000021_Node000017"><a xlink:title=" ">
<path fill="none" stroke="#63b8ff" d="M774.69,-222.43C765.2,-222.98 755.45,-223.52 746.25,-224 652.44,-228.86 542.83,-233.51 481,-236.04"/>
<polygon fill="#63b8ff" stroke="#63b8ff" points="774.8,-225.93 784.57,-221.86 774.39,-218.95 774.8,-225.93"/>
</a>
</g>
</g>
<!-- Node22 -->
<g id="Node000022" class="node">
<title>Node22</title>
<g id="a_Node000022"><a xlink:href="../../d2/de7/a00014.html#a036429cc7170b895e3b82d79953b93dd" target="_top" xlink:title=" ">
<polygon fill="white" stroke="#666666" points="742.5,-352 654.5,-352 654.5,-332 742.5,-332 742.5,-352"/>
<text text-anchor="middle" x="698.5" y="-338.5" font-family="Helvetica,sans-Serif" font-size="10.00">ESC_SMdisable</text>
</a>
</g>
</g>
<!-- Node21&#45;&gt;Node22 -->
<g id="edge36_Node000021_Node000022" class="edge">
<title>Node21&#45;&gt;Node22</title>
<g id="a_edge36_Node000021_Node000022"><a xlink:title=" ">
<path fill="none" stroke="#63b8ff" d="M811.48,-237.16C783.58,-263.28 733.05,-310.59 710.67,-331.54"/>
<polygon fill="#63b8ff" stroke="#63b8ff" points="813.66,-239.91 818.57,-230.52 808.88,-234.8 813.66,-239.91"/>
</a>
</g>
</g>
<!-- Node27 -->
<g id="Node000027" class="node">
<title>Node27</title>
<g id="a_Node000027"><a xlink:href="../../d2/de7/a00014.html#aa10eebca955ff5d763c94099162781eb" target="_top" xlink:title=" ">
<polygon fill="white" stroke="#666666" points="613.62,-172 527.88,-172 527.88,-152 613.62,-152 613.62,-172"/>
<text text-anchor="middle" x="570.75" y="-158.5" font-family="Helvetica,sans-Serif" font-size="10.00">ESC_SMenable</text>
</a>
</g>
</g>
<!-- Node21&#45;&gt;Node27 -->
<g id="edge57_Node000021_Node000027" class="edge">
<title>Node21&#45;&gt;Node27</title>
<g id="a_edge57_Node000021_Node000027"><a xlink:title=" ">
<path fill="none" stroke="#63b8ff" d="M797.82,-204.02C782.42,-197.59 763.69,-190.53 746.25,-186 701.85,-174.46 649.57,-168.21 613.89,-165"/>
<polygon fill="#63b8ff" stroke="#63b8ff" points="796.41,-207.23 806.98,-207.95 799.17,-200.79 796.41,-207.23"/>
</a>
</g>
</g>
<!-- Node22&#45;&gt;Node4 -->
<g id="edge41_Node000022_Node000004" class="edge">
<title>Node22&#45;&gt;Node4</title>
<g id="a_edge41_Node000022_Node000004"><a xlink:title=" ">
<path fill="none" stroke="#63b8ff" d="M694.59,-320.38C687.96,-279.71 667.99,-191.57 614.75,-143 594.74,-124.75 526.12,-106.63 478.91,-95.87"/>
<polygon fill="#63b8ff" stroke="#63b8ff" points="691.1,-320.72 696.04,-330.09 698.02,-319.68 691.1,-320.72"/>
</a>
</g>
</g>
<!-- Node22&#45;&gt;Node13 -->
<g id="edge43_Node000022_Node000013" class="edge">
<title>Node22&#45;&gt;Node13</title>
<g id="a_edge43_Node000022_Node000013"><a xlink:title=" ">
<path fill="none" stroke="#63b8ff" d="M643,-337.68C564.01,-331.91 421.66,-323.44 371.25,-333 343.62,-338.24 313.78,-351.2 294.69,-360.53"/>
<polygon fill="#63b8ff" stroke="#63b8ff" points="642.43,-341.15 652.66,-338.4 642.95,-334.17 642.43,-341.15"/>
</a>
</g>
</g>
<!-- Node22&#45;&gt;Node15 -->
<g id="edge42_Node000022_Node000015" class="edge">
<title>Node22&#45;&gt;Node15</title>
<g id="a_edge42_Node000022_Node000015"><a xlink:title=" ">
<path fill="none" stroke="#63b8ff" d="M644.38,-328.8C593.74,-316.21 518.57,-297.52 472.57,-286.08"/>
<polygon fill="#63b8ff" stroke="#63b8ff" points="643.41,-332.16 653.96,-331.18 645.1,-325.37 643.41,-332.16"/>
</a>
</g>
</g>
<!-- Node23 -->
<g id="Node000023" class="node">
<title>Node23</title>
<g id="a_Node000023"><a xlink:href="../../d2/de7/a00014.html#ab5c9c543818675eb93f2664a715b8575" target="_top" xlink:title=" ">
<polygon fill="white" stroke="#666666" points="614.38,-286 527.12,-286 527.12,-266 614.38,-266 614.38,-286"/>
<text text-anchor="middle" x="570.75" y="-272.5" font-family="Helvetica,sans-Serif" font-size="10.00">ESC_checkmbx</text>
</a>
</g>
</g>
<!-- Node22&#45;&gt;Node23 -->
<g id="edge37_Node000022_Node000023" class="edge">
<title>Node22&#45;&gt;Node23</title>
<g id="a_edge37_Node000022_Node000023"><a xlink:title=" ">
<path fill="none" stroke="#63b8ff" d="M667.45,-326.23C643.96,-313.9 611.97,-297.11 591.58,-286.41"/>
<polygon fill="#63b8ff" stroke="#63b8ff" points="665.75,-329.29 676.23,-330.84 669.01,-323.09 665.75,-329.29"/>
</a>
</g>
</g>
<!-- Node24 -->
<g id="Node000024" class="node">
<title>Node24</title>
<g id="a_Node000024"><a xlink:href="../../d2/de7/a00014.html#a81ea48b9683662e8bed01fbb77826236" target="_top" xlink:title="Stops the input process for the ESC (EtherCAT Slave Controller).">
<polygon fill="white" stroke="#666666" points="611.75,-495 529.75,-495 529.75,-475 611.75,-475 611.75,-495"/>
<text text-anchor="middle" x="570.75" y="-481.5" font-family="Helvetica,sans-Serif" font-size="10.00">ESC_stopinput</text>
</a>
</g>
</g>
<!-- Node22&#45;&gt;Node24 -->
<g id="edge44_Node000022_Node000024" class="edge">
<title>Node22&#45;&gt;Node24</title>
<g id="a_edge44_Node000022_Node000024"><a xlink:title=" ">
<path fill="none" stroke="#63b8ff" d="M686.21,-362.08C671.82,-386.48 645.15,-427.99 614.75,-457 607.66,-463.77 598.73,-469.89 590.84,-474.67"/>
<polygon fill="#63b8ff" stroke="#63b8ff" points="689.2,-363.9 691.17,-353.49 683.14,-360.4 689.2,-363.9"/>
</a>
</g>
</g>
<!-- Node25 -->
<g id="Node000025" class="node">
<title>Node25</title>
<g id="a_Node000025"><a xlink:href="../../d2/de7/a00014.html#af114806603011938e35ae366d115d90f" target="_top" xlink:title="Stops the mailbox communication in the EtherCAT Slave Controller (ESC).">
<polygon fill="white" stroke="#666666" points="610.62,-448 530.88,-448 530.88,-428 610.62,-428 610.62,-448"/>
<text text-anchor="middle" x="570.75" y="-434.5" font-family="Helvetica,sans-Serif" font-size="10.00">ESC_stopmbx</text>
</a>
</g>
</g>
<!-- Node22&#45;&gt;Node25 -->
<g id="edge48_Node000022_Node000025" class="edge">
<title>Node22&#45;&gt;Node25</title>
<g id="a_edge48_Node000022_Node000025"><a xlink:title=" ">
<path fill="none" stroke="#63b8ff" d="M676.63,-359.74C660.13,-373.56 636.36,-393.01 614.75,-409 606.06,-415.43 596.07,-422.2 587.91,-427.58"/>
<polygon fill="#63b8ff" stroke="#63b8ff" points="678.88,-362.43 684.27,-353.31 674.37,-357.07 678.88,-362.43"/>
</a>
</g>
</g>
<!-- Node26 -->
<g id="Node000026" class="node">
<title>Node26</title>
<g id="a_Node000026"><a xlink:href="../../d2/de7/a00014.html#aea60761cf8862550e8901aa996069f8d" target="_top" xlink:title="Stops the output of the EtherCAT Slave Controller (ESC).">
<polygon fill="white" stroke="#666666" points="614.75,-543 526.75,-543 526.75,-523 614.75,-523 614.75,-543"/>
<text text-anchor="middle" x="570.75" y="-529.5" font-family="Helvetica,sans-Serif" font-size="10.00">ESC_stopoutput</text>
</a>
</g>
</g>
<!-- Node22&#45;&gt;Node26 -->
<g id="edge52_Node000022_Node000026" class="edge">
<title>Node22&#45;&gt;Node26</title>
<g id="a_edge52_Node000022_Node000026"><a xlink:title=" ">
<path fill="none" stroke="#63b8ff" d="M690.76,-362.72C679.27,-395.59 653.35,-460.41 614.75,-504 608.18,-511.41 599.32,-517.81 591.35,-522.7"/>
<polygon fill="#63b8ff" stroke="#63b8ff" points="693.96,-364.18 693.84,-353.59 687.32,-361.94 693.96,-364.18"/>
</a>
</g>
</g>
<!-- Node23&#45;&gt;Node14 -->
<g id="edge38_Node000023_Node000014" class="edge">
<title>Node23&#45;&gt;Node14</title>
<g id="a_edge38_Node000023_Node000014"><a xlink:title=" ">
<path fill="none" stroke="#63b8ff" d="M557.66,-296.01C529.37,-342.83 459.66,-458.22 438.31,-493.55"/>
<polygon fill="#63b8ff" stroke="#63b8ff" points="560.52,-298.05 562.69,-287.68 554.52,-294.43 560.52,-298.05"/>
</a>
</g>
</g>
<!-- Node23&#45;&gt;Node16 -->
<g id="edge39_Node000023_Node000016" class="edge">
<title>Node23&#45;&gt;Node16</title>
<g id="a_edge39_Node000023_Node000016"><a xlink:title=" ">
<path fill="none" stroke="#63b8ff" d="M549.32,-258.51C534.02,-246.11 512.11,-229.82 490.75,-219 484.34,-215.75 477.27,-212.91 470.31,-210.47"/>
<polygon fill="#63b8ff" stroke="#63b8ff" points="546.84,-261 556.77,-264.68 551.3,-255.61 546.84,-261"/>
</a>
</g>
</g>
<!-- Node23&#45;&gt;Node17 -->
<g id="edge40_Node000023_Node000017" class="edge">
<title>Node23&#45;&gt;Node17</title>
<g id="a_edge40_Node000023_Node000017"><a xlink:title=" ">
<path fill="none" stroke="#63b8ff" d="M521.01,-262.55C504.22,-257.92 485.68,-252.81 469.88,-248.45"/>
<polygon fill="#63b8ff" stroke="#63b8ff" points="519.71,-265.83 530.29,-265.11 521.58,-259.08 519.71,-265.83"/>
</a>
</g>
</g>
<!-- Node24&#45;&gt;Node9 -->
<g id="edge45_Node000024_Node000009" class="edge">
<title>Node24&#45;&gt;Node9</title>
<g id="a_edge45_Node000024_Node000009"><a xlink:title=" ">
<path fill="none" stroke="#63b8ff" d="M539.97,-500.5C525.35,-507.81 507.35,-516.36 490.75,-523 483.09,-526.07 474.72,-529.01 466.76,-531.62"/>
<polygon fill="#63b8ff" stroke="#63b8ff" points="541.27,-503.77 548.6,-496.13 538.1,-497.53 541.27,-503.77"/>
</a>
</g>
</g>
<!-- Node24&#45;&gt;Node13 -->
<g id="edge47_Node000024_Node000013" class="edge">
<title>Node24&#45;&gt;Node13</title>
<g id="a_edge47_Node000024_Node000013"><a xlink:title=" ">
<path fill="none" stroke="#63b8ff" d="M518.86,-471.56C478.22,-460.18 420.18,-442.48 371.25,-422 371,-421.9 322.27,-396.16 294.12,-381.29"/>
<polygon fill="#63b8ff" stroke="#63b8ff" points="517.81,-474.9 528.38,-474.19 519.67,-468.15 517.81,-474.9"/>
</a>
</g>
</g>
<!-- Node24&#45;&gt;Node14 -->
<g id="edge46_Node000024_Node000014" class="edge">
<title>Node24&#45;&gt;Node14</title>
<g id="a_edge46_Node000024_Node000014"><a xlink:title=" ">
<path fill="none" stroke="#63b8ff" d="M518.36,-492.09C506.91,-493.67 494.76,-495.34 483.31,-496.92"/>
<polygon fill="#63b8ff" stroke="#63b8ff" points="518.61,-495.59 528.04,-490.75 517.65,-488.65 518.61,-495.59"/>
</a>
</g>
</g>
<!-- Node25&#45;&gt;Node9 -->
<g id="edge49_Node000025_Node000009" class="edge">
<title>Node25&#45;&gt;Node9</title>
<g id="a_edge49_Node000025_Node000009"><a xlink:title=" ">
<path fill="none" stroke="#63b8ff" d="M540.63,-454.49C535.71,-457.95 530.87,-461.83 526.75,-466 505.71,-487.33 514.42,-504.63 490.75,-523 483.72,-528.46 475.08,-532.37 466.6,-535.17"/>
<polygon fill="#63b8ff" stroke="#63b8ff" points="542.28,-457.59 548.76,-449.21 538.46,-451.72 542.28,-457.59"/>
</a>
</g>
</g>
<!-- Node25&#45;&gt;Node13 -->
<g id="edge51_Node000025_Node000013" class="edge">
<title>Node25&#45;&gt;Node13</title>
<g id="a_edge51_Node000025_Node000013"><a xlink:title=" ">
<path fill="none" stroke="#63b8ff" d="M519.4,-427.53C479.22,-419.07 421.53,-406.69 371.25,-395 349.36,-389.91 324.79,-383.8 305.9,-379.02"/>
<polygon fill="#63b8ff" stroke="#63b8ff" points="518.51,-430.92 529.02,-429.55 519.95,-424.07 518.51,-430.92"/>
</a>
</g>
</g>
<!-- Node25&#45;&gt;Node14 -->
<g id="edge50_Node000025_Node000014" class="edge">
<title>Node25&#45;&gt;Node14</title>
<g id="a_edge50_Node000025_Node000014"><a xlink:title=" ">
<path fill="none" stroke="#63b8ff" d="M537.87,-453.27C512.05,-465.65 476.36,-482.75 453.72,-493.59"/>
<polygon fill="#63b8ff" stroke="#63b8ff" points="539.05,-456.59 546.56,-449.11 536.03,-450.28 539.05,-456.59"/>
</a>
</g>
</g>
<!-- Node26&#45;&gt;Node9 -->
<g id="edge53_Node000026_Node000009" class="edge">
<title>Node26&#45;&gt;Node9</title>
<g id="a_edge53_Node000026_Node000009"><a xlink:title=" ">
<path fill="none" stroke="#63b8ff" d="M515.43,-536.55C499.05,-537.62 481.51,-538.76 466.77,-539.73"/>
<polygon fill="#63b8ff" stroke="#63b8ff" points="515.28,-540.07 525.03,-535.92 514.83,-533.08 515.28,-540.07"/>
</a>
</g>
</g>
<!-- Node26&#45;&gt;Node10 -->
<g id="edge54_Node000026_Node000010" class="edge">
<title>Node26&#45;&gt;Node10</title>
<g id="a_edge54_Node000026_Node000010"><a xlink:title=" ">
<path fill="none" stroke="#63b8ff" d="M531.55,-548.73C529.89,-549.77 528.28,-550.86 526.75,-552 507.02,-566.66 510.69,-579.62 490.75,-594 483.16,-599.48 474.13,-603.97 465.45,-607.52"/>
<polygon fill="#63b8ff" stroke="#63b8ff" points="533.02,-551.92 540.12,-544.06 529.66,-545.78 533.02,-551.92"/>
</a>
</g>
</g>
<!-- Node26&#45;&gt;Node13 -->
<g id="edge56_Node000026_Node000013" class="edge">
<title>Node26&#45;&gt;Node13</title>
<g id="a_edge56_Node000026_Node000013"><a xlink:title=" ">
<path fill="none" stroke="#63b8ff" d="M536.33,-547.69C522.51,-553.01 506.14,-558.35 490.75,-561 438.41,-570 416.52,-588.77 371.25,-561 303.74,-519.6 281.58,-414.64 276.12,-381.32"/>
<polygon fill="#63b8ff" stroke="#63b8ff" points="537.43,-551.02 545.4,-544.04 534.82,-544.52 537.43,-551.02"/>
</a>
</g>
</g>
<!-- Node26&#45;&gt;Node14 -->
<g id="edge55_Node000026_Node000014" class="edge">
<title>Node26&#45;&gt;Node14</title>
<g id="a_edge55_Node000026_Node000014"><a xlink:title=" ">
<path fill="none" stroke="#63b8ff" d="M515.62,-521.6C504.47,-519.26 492.78,-516.8 481.79,-514.48"/>
<polygon fill="#63b8ff" stroke="#63b8ff" points="514.56,-524.96 525.06,-523.59 516,-518.11 514.56,-524.96"/>
</a>
</g>
</g>
<!-- Node27&#45;&gt;Node4 -->
<g id="edge58_Node000027_Node000004" class="edge">
<title>Node27&#45;&gt;Node4</title>
<g id="a_edge58_Node000027_Node000004"><a xlink:title=" ">
<path fill="none" stroke="#63b8ff" d="M539.19,-146.11C534.91,-143.55 530.65,-140.82 526.75,-138 509.15,-125.29 509.51,-115.92 490.75,-105 485.01,-101.66 478.6,-98.82 472.19,-96.43"/>
<polygon fill="#63b8ff" stroke="#63b8ff" points="537.29,-149.06 547.71,-150.95 540.75,-142.97 537.29,-149.06"/>
</a>
</g>
</g>
<!-- Node27&#45;&gt;Node13 -->
<g id="edge64_Node000027_Node000013" class="edge">
<title>Node27&#45;&gt;Node13</title>
<g id="a_edge64_Node000027_Node000013"><a xlink:title=" ">
<path fill="none" stroke="#63b8ff" d="M516.17,-152.11C472.37,-147.23 411.33,-148.18 371.25,-181 328.5,-216.01 361.75,-251.51 335.25,-300 322.03,-324.18 299.64,-347.55 286.08,-360.53"/>
<polygon fill="#63b8ff" stroke="#63b8ff" points="515.62,-155.57 525.98,-153.35 516.49,-148.63 515.62,-155.57"/>
</a>
</g>
</g>
<!-- Node27&#45;&gt;Node15 -->
<g id="edge59_Node000027_Node000015" class="edge">
<title>Node27&#45;&gt;Node15</title>
<g id="a_edge59_Node000027_Node000015"><a xlink:title=" ">
<path fill="none" stroke="#63b8ff" d="M558.04,-181.92C544.44,-203.39 520.08,-237.15 490.75,-257 485.25,-260.72 478.96,-263.76 472.6,-266.22"/>
<polygon fill="#63b8ff" stroke="#63b8ff" points="560.95,-183.86 563.19,-173.5 554.98,-180.2 560.95,-183.86"/>
</a>
</g>
</g>
<!-- Node27&#45;&gt;Node16 -->
<g id="edge60_Node000027_Node000016" class="edge">
<title>Node27&#45;&gt;Node16</title>
<g id="a_edge60_Node000027_Node000016"><a xlink:title=" ">
<path fill="none" stroke="#63b8ff" d="M521.01,-175.45C504.22,-180.08 485.68,-185.19 469.88,-189.55"/>
<polygon fill="#63b8ff" stroke="#63b8ff" points="521.58,-178.92 530.29,-172.89 519.71,-172.17 521.58,-178.92"/>
</a>
</g>
</g>
<!-- Node27&#45;&gt;Node17 -->
<g id="edge61_Node000027_Node000017" class="edge">
<title>Node27&#45;&gt;Node17</title>
<g id="a_edge61_Node000027_Node000017"><a xlink:title=" ">
<path fill="none" stroke="#63b8ff" d="M549.32,-179.49C534.02,-191.89 512.11,-208.18 490.75,-219 484.34,-222.25 477.27,-225.09 470.31,-227.53"/>
<polygon fill="#63b8ff" stroke="#63b8ff" points="551.3,-182.39 556.77,-173.32 546.84,-177 551.3,-182.39"/>
</a>
</g>
</g>
<!-- Node28 -->
<g id="Node000028" class="node">
<title>Node28</title>
<g id="a_Node000028"><a xlink:href="../../d2/de7/a00014.html#ac73b9bd2144d440e8b5204c76d54275f" target="_top" xlink:title="Starts the output process for the ESC (EtherCAT Slave Controller).">
<polygon fill="white" stroke="#666666" points="475.38,-134 386.62,-134 386.62,-114 475.38,-114 475.38,-134"/>
<text text-anchor="middle" x="431" y="-120.5" font-family="Helvetica,sans-Serif" font-size="10.00">ESC_startoutput</text>
</a>
</g>
</g>
<!-- Node27&#45;&gt;Node28 -->
<g id="edge62_Node000027_Node000028" class="edge">
<title>Node27&#45;&gt;Node28</title>
<g id="a_edge62_Node000027_Node000028"><a xlink:title=" ">
<path fill="none" stroke="#63b8ff" d="M521.01,-148.55C504.22,-143.92 485.68,-138.81 469.88,-134.45"/>
<polygon fill="#63b8ff" stroke="#63b8ff" points="519.71,-151.83 530.29,-151.11 521.58,-145.08 519.71,-151.83"/>
</a>
</g>
</g>
<!-- Node28&#45;&gt;Node13 -->
<g id="edge63_Node000028_Node000013" class="edge">
<title>Node28&#45;&gt;Node13</title>
<g id="a_edge63_Node000028_Node000013"><a xlink:title=" ">
<path fill="none" stroke="#63b8ff" d="M380.01,-140.11C376.77,-142.41 373.8,-145.02 371.25,-148 326.11,-200.75 366.67,-238.09 335.25,-300 322.78,-324.57 300.14,-347.82 286.33,-360.66"/>
<polygon fill="#63b8ff" stroke="#63b8ff" points="381.5,-143.3 388.36,-135.23 377.96,-137.26 381.5,-143.3"/>
</a>
</g>
</g>
<!-- Node29&#45;&gt;Node4 -->
<g id="edge68_Node000029_Node000004" class="edge">
<title>Node29&#45;&gt;Node4</title>
<g id="a_edge68_Node000029_Node000004"><a xlink:title=" ">
<path fill="none" stroke="#63b8ff" d="M646.09,-55.13C612.19,-59.85 566.81,-66.22 526.75,-72 511.28,-74.23 494.4,-76.71 479.22,-78.96"/>
<polygon fill="#63b8ff" stroke="#63b8ff" points="646.2,-58.65 655.62,-53.8 645.24,-51.71 646.2,-58.65"/>
</a>
</g>
</g>
<!-- Node30&#45;&gt;Node11 -->
<g id="edge70_Node000030_Node000011" class="edge">
<title>Node30&#45;&gt;Node11</title>
<g id="a_edge70_Node000030_Node000011"><a xlink:title=" ">
<path fill="none" stroke="#63b8ff" d="M644.69,-738.52C577.98,-744.47 461.04,-747.21 371.25,-708 330.7,-690.3 296.37,-648.13 281.93,-628.45"/>
<polygon fill="#63b8ff" stroke="#63b8ff" points="644.63,-742.04 654.25,-737.6 643.96,-735.07 644.63,-742.04"/>
</a>
</g>
</g>
</g>
</svg>
