<?xml version="1.0" encoding="UTF-8" standalone="no"?>
<!DOCTYPE svg PUBLIC "-//W3C//DTD SVG 1.1//EN"
 "http://www.w3.org/Graphics/SVG/1.1/DTD/svg11.dtd">
<!-- Generated by graphviz version 13.1.0 (20250701.0955)
 -->
<!-- Title: Lib::USB::SerialPortRepeaterBase Pages: 1 -->
<svg width="156pt" height="108pt"
 viewBox="0.00 0.00 156.00 108.00" xmlns="http://www.w3.org/2000/svg" xmlns:xlink="http://www.w3.org/1999/xlink">
<g id="graph0" class="graph" transform="scale(1 1) rotate(0) translate(4 104)">
<title>Lib::USB::SerialPortRepeaterBase</title>
<!-- Node1 -->
<g id="Node000001" class="node">
<title>Node1</title>
<g id="a_Node000001"><a xlink:title="SerialPortRepeaterBase class.">
<polygon fill="#999999" stroke="none" points="148.25,-18.5 0,-18.5 0,0 148.25,0 148.25,-18.5"/>
<text xml:space="preserve" text-anchor="start" x="4" y="-5.95" font-family="Arial" font-size="9.00">Lib::USB::SerialPortRepeaterBase</text>
<polygon fill="none" stroke="#666666" points="0,0 0,-18.5 148.25,-18.5 148.25,0 0,0"/>
</a>
</g>
</g>
<!-- Node2 -->
<g id="Node000002" class="node">
<title>Node2</title>
<g id="a_Node000002"><a xlink:title=" ">
<polygon fill="white" stroke="none" points="117.12,-100 31.12,-100 31.12,-71 117.12,-71 117.12,-100"/>
<text xml:space="preserve" text-anchor="start" x="35.12" y="-87.45" font-family="Arial" font-size="9.00">function&lt; void(bool</text>
<text xml:space="preserve" text-anchor="start" x="43" y="-76.95" font-family="Arial" font-size="9.00"> isConnected)&gt;</text>
<polygon fill="none" stroke="#bfbfbf" points="31.12,-71 31.12,-100 117.12,-100 117.12,-71 31.12,-71"/>
</a>
</g>
</g>
<!-- Node2&#45;&gt;Node1 -->
<g id="edge1_Node000001_Node000002" class="edge">
<title>Node2&#45;&gt;Node1</title>
<g id="a_edge1_Node000001_Node000002"><a xlink:title=" ">
<path fill="none" stroke="#63b8ff" d="M74.12,-71.23C74.12,-60.07 74.12,-43.94 74.12,-31.07"/>
<polygon fill="none" stroke="#63b8ff" points="74.13,-31.27 70.13,-25.27 74.13,-19.27 78.13,-25.27 74.13,-31.27"/>
</a>
</g>
<text xml:space="preserve" text-anchor="start" x="77.12" y="-41.45" font-family="Arial" font-size="9.00" fill="grey">+onConnected</text>
</g>
</g>
</svg>
