<?xml version="1.0" encoding="UTF-8" standalone="no"?>
<!DOCTYPE svg PUBLIC "-//W3C//DTD SVG 1.1//EN"
 "http://www.w3.org/Graphics/SVG/1.1/DTD/svg11.dtd">
<!-- Generated by graphviz version 13.1.0 (20250701.0955)
 -->
<!-- Title: Lib::HAL::SPI::Master::TransperentBase::DeviceManager Pages: 1 -->
<svg width="203pt" height="176pt"
 viewBox="0.00 0.00 203.00 176.00" xmlns="http://www.w3.org/2000/svg" xmlns:xlink="http://www.w3.org/1999/xlink">
<g id="graph0" class="graph" transform="scale(1 1) rotate(0) translate(4 172)">
<title>Lib::HAL::SPI::Master::TransperentBase::DeviceManager</title>
<!-- Node1 -->
<g id="Node000001" class="node">
<title>Node1</title>
<g id="a_Node000001"><a xlink:title="Device manager for transparent SPI master devices.">
<polygon fill="#999999" stroke="none" points="178.62,-32 16.12,-32 16.12,0 178.62,0 178.62,-32"/>
<text xml:space="preserve" text-anchor="start" x="20.12" y="-18.5" font-family="Helvetica,sans-Serif" font-size="10.00">Lib::HAL::SPI::Master</text>
<text xml:space="preserve" text-anchor="start" x="20.12" y="-6.5" font-family="Helvetica,sans-Serif" font-size="10.00">::TransperentBase::DeviceManager</text>
<polygon fill="none" stroke="#666666" points="16.12,0 16.12,-32 178.62,-32 178.62,0 16.12,0"/>
</a>
</g>
</g>
<!-- Node2 -->
<g id="Node000002" class="node">
<title>Node2</title>
<g id="a_Node000002"><a xlink:href="../../d5/d35/class_lib_1_1_h_a_l_1_1_device_manager_base.html" target="_top" xlink:title=" ">
<polygon fill="white" stroke="none" points="194.75,-100 0,-100 0,-68 194.75,-68 194.75,-100"/>
<text xml:space="preserve" text-anchor="start" x="4" y="-86.5" font-family="Helvetica,sans-Serif" font-size="10.00">Lib::HAL::DeviceManagerBase</text>
<text xml:space="preserve" text-anchor="start" x="4" y="-74.5" font-family="Helvetica,sans-Serif" font-size="10.00">&lt; TransperentBase, SPI_HandleTypeDef &gt;</text>
<polygon fill="none" stroke="#666666" points="0,-68 0,-100 194.75,-100 194.75,-68 0,-68"/>
</a>
</g>
</g>
<!-- Node2&#45;&gt;Node1 -->
<g id="edge1_Node000001_Node000002" class="edge">
<title>Node2&#45;&gt;Node1</title>
<g id="a_edge1_Node000001_Node000002"><a xlink:title=" ">
<path fill="none" stroke="#63b8ff" d="M97.38,-56.75C97.38,-48.3 97.38,-39.25 97.38,-31.92"/>
<polygon fill="none" stroke="#63b8ff" points="93.88,-56.51 97.38,-66.51 100.88,-56.51 93.88,-56.51"/>
</a>
</g>
</g>
<!-- Node3 -->
<g id="Node000003" class="node">
<title>Node3</title>
<g id="a_Node000003"><a xlink:href="../../d9/d33/class_lib_1_1_helper_1_1_container.html" target="_top" xlink:title=" ">
<polygon fill="white" stroke="none" points="149,-168 45.75,-168 45.75,-136 149,-136 149,-168"/>
<text xml:space="preserve" text-anchor="start" x="49.75" y="-154.5" font-family="Helvetica,sans-Serif" font-size="10.00">Lib::Helper::Container</text>
<text xml:space="preserve" text-anchor="start" x="51.62" y="-142.5" font-family="Helvetica,sans-Serif" font-size="10.00">&lt; TransperentBase &gt;</text>
<polygon fill="none" stroke="#666666" points="45.75,-136 45.75,-168 149,-168 149,-136 45.75,-136"/>
</a>
</g>
</g>
<!-- Node3&#45;&gt;Node2 -->
<g id="edge2_Node000002_Node000003" class="edge">
<title>Node3&#45;&gt;Node2</title>
<g id="a_edge2_Node000002_Node000003"><a xlink:title=" ">
<path fill="none" stroke="darkgreen" d="M97.38,-124.75C97.38,-116.3 97.38,-107.25 97.38,-99.92"/>
<polygon fill="none" stroke="darkgreen" points="93.88,-124.51 97.38,-134.51 100.88,-124.51 93.88,-124.51"/>
</a>
</g>
</g>
</g>
</svg>
