<?xml version="1.0" encoding="UTF-8" standalone="no"?>
<!DOCTYPE svg PUBLIC "-//W3C//DTD SVG 1.1//EN"
 "http://www.w3.org/Graphics/SVG/1.1/DTD/svg11.dtd">
<!-- Generated by graphviz version 13.1.0 (20250701.0955)
 -->
<!-- Title: ModelPeripheral Pages: 1 -->
<svg width="153pt" height="413pt"
 viewBox="0.00 0.00 153.00 413.00" xmlns="http://www.w3.org/2000/svg" xmlns:xlink="http://www.w3.org/1999/xlink">
<g id="graph0" class="graph" transform="scale(1 1) rotate(0) translate(4 408.5)">
<title>ModelPeripheral</title>
<!-- Node1 -->
<g id="Node000001" class="node">
<title>Node1</title>
<g id="a_Node000001"><a xlink:title="ModelPeripheral class for TouchGFX model layer.">
<polygon fill="#999999" stroke="none" points="112.75,-149 16,-149 16,0 112.75,0 112.75,-149"/>
<text xml:space="preserve" text-anchor="start" x="30.25" y="-136.45" font-family="Arial" font-size="9.00">ModelPeripheral</text>
<text xml:space="preserve" text-anchor="start" x="63.25" y="-121.95" font-family="Arial" font-size="9.00"> </text>
<text xml:space="preserve" text-anchor="start" x="20" y="-107.45" font-family="Arial" font-size="9.00">+</text>
<text xml:space="preserve" text-anchor="start" x="29.25" y="-107.45" font-family="Arial" font-size="9.00">ModelPeripheral()</text>
<text xml:space="preserve" text-anchor="start" x="20" y="-92.95" font-family="Arial" font-size="9.00">+</text>
<text xml:space="preserve" text-anchor="start" x="29.25" y="-92.95" font-family="Arial" font-size="9.00">~ModelPeripheral()</text>
<text xml:space="preserve" text-anchor="start" x="20" y="-78.45" font-family="Arial" font-size="9.00">+</text>
<text xml:space="preserve" text-anchor="start" x="29.25" y="-78.45" font-family="Arial" font-size="9.00">handleTickEvent()</text>
<text xml:space="preserve" text-anchor="start" x="20" y="-63.95" font-family="Arial" font-size="9.00">+</text>
<text xml:space="preserve" text-anchor="start" x="29.25" y="-63.95" font-family="Arial" font-size="9.00">getInputs()</text>
<text xml:space="preserve" text-anchor="start" x="20" y="-49.45" font-family="Arial" font-size="9.00">+</text>
<text xml:space="preserve" text-anchor="start" x="29.25" y="-49.45" font-family="Arial" font-size="9.00">getOutputs()</text>
<text xml:space="preserve" text-anchor="start" x="20" y="-34.95" font-family="Arial" font-size="9.00">+</text>
<text xml:space="preserve" text-anchor="start" x="29.25" y="-34.95" font-family="Arial" font-size="9.00">getNodeActivity()</text>
<text xml:space="preserve" text-anchor="start" x="20" y="-20.45" font-family="Arial" font-size="9.00">+</text>
<text xml:space="preserve" text-anchor="start" x="29.25" y="-20.45" font-family="Arial" font-size="9.00">setSelectedNode()</text>
<text xml:space="preserve" text-anchor="start" x="20" y="-5.95" font-family="Arial" font-size="9.00">+</text>
<text xml:space="preserve" text-anchor="start" x="29.25" y="-5.95" font-family="Arial" font-size="9.00">getSelectedNode()</text>
<polygon fill="#666666" stroke="#666666" points="16,-132.5 16,-132.5 112.75,-132.5 112.75,-132.5 16,-132.5"/>
<polygon fill="#666666" stroke="#666666" points="16,-118 16,-118 112.75,-118 112.75,-118 16,-118"/>
<polygon fill="none" stroke="#666666" points="16,0 16,-149 112.75,-149 112.75,0 16,0"/>
</a>
</g>
</g>
<!-- Node2 -->
<g id="Node000002" class="node">
<title>Node2</title>
<g id="a_Node000002"><a xlink:href="../../db/df3/class_model_peripheral_1_1_test_outputs_client.html" target="_top" xlink:title="TestOutputsClient class for managing test output sequences.">
<polygon fill="white" stroke="none" points="128.75,-404.5 0,-404.5 0,-201.5 128.75,-201.5 128.75,-404.5"/>
<text xml:space="preserve" text-anchor="start" x="4" y="-391.95" font-family="Arial" font-size="9.00">ModelPeripheral::TestOutputs</text>
<text xml:space="preserve" text-anchor="start" x="52.38" y="-381.45" font-family="Arial" font-size="9.00">Client</text>
<text xml:space="preserve" text-anchor="start" x="63.25" y="-366.95" font-family="Arial" font-size="9.00"> </text>
<text xml:space="preserve" text-anchor="start" x="11.06" y="-352.45" font-family="Arial" font-size="9.00">+</text>
<text xml:space="preserve" text-anchor="start" x="27.38" y="-352.45" font-family="Arial" font-size="9.00">TestOutputsClient()</text>
<text xml:space="preserve" text-anchor="start" x="11.06" y="-337.95" font-family="Arial" font-size="9.00">+</text>
<text xml:space="preserve" text-anchor="start" x="27.38" y="-337.95" font-family="Arial" font-size="9.00">~TestOutputsClient()</text>
<text xml:space="preserve" text-anchor="start" x="11.06" y="-323.45" font-family="Arial" font-size="9.00">+</text>
<text xml:space="preserve" text-anchor="start" x="27.38" y="-323.45" font-family="Arial" font-size="9.00">start()</text>
<text xml:space="preserve" text-anchor="start" x="11.06" y="-308.95" font-family="Arial" font-size="9.00">+</text>
<text xml:space="preserve" text-anchor="start" x="27.38" y="-308.95" font-family="Arial" font-size="9.00">stop()</text>
<text xml:space="preserve" text-anchor="start" x="11.06" y="-294.45" font-family="Arial" font-size="9.00">+</text>
<text xml:space="preserve" text-anchor="start" x="27.38" y="-294.45" font-family="Arial" font-size="9.00">getIndex()</text>
<text xml:space="preserve" text-anchor="start" x="11.06" y="-279.95" font-family="Arial" font-size="9.00">+</text>
<text xml:space="preserve" text-anchor="start" x="27.38" y="-279.95" font-family="Arial" font-size="9.00">setIndex()</text>
<text xml:space="preserve" text-anchor="start" x="11.06" y="-265.45" font-family="Arial" font-size="9.00">+</text>
<text xml:space="preserve" text-anchor="start" x="27.38" y="-265.45" font-family="Arial" font-size="9.00">getUpdatePeriod()</text>
<text xml:space="preserve" text-anchor="start" x="11.06" y="-250.95" font-family="Arial" font-size="9.00">+</text>
<text xml:space="preserve" text-anchor="start" x="27.38" y="-250.95" font-family="Arial" font-size="9.00">setUpdatePeriod()</text>
<text xml:space="preserve" text-anchor="start" x="11.06" y="-236.45" font-family="Arial" font-size="9.00">+</text>
<text xml:space="preserve" text-anchor="start" x="27.38" y="-236.45" font-family="Arial" font-size="9.00">handleTickEvent()</text>
<text xml:space="preserve" text-anchor="start" x="11.06" y="-221.95" font-family="Arial" font-size="9.00">+</text>
<text xml:space="preserve" text-anchor="start" x="27.38" y="-221.95" font-family="Arial" font-size="9.00">isRunning()</text>
<text xml:space="preserve" text-anchor="start" x="11.06" y="-207.45" font-family="Arial" font-size="9.00">+</text>
<text xml:space="preserve" text-anchor="start" x="27.38" y="-207.45" font-family="Arial" font-size="9.00">getNumberOfTests()</text>
<polygon fill="#666666" stroke="#666666" points="0,-377.5 0,-377.5 128.75,-377.5 128.75,-377.5 0,-377.5"/>
<polygon fill="#666666" stroke="#666666" points="0,-363 0,-363 128.75,-363 128.75,-363 0,-363"/>
<polygon fill="none" stroke="#666666" points="0,-201.5 0,-404.5 128.75,-404.5 128.75,-201.5 0,-201.5"/>
</a>
</g>
</g>
<!-- Node2&#45;&gt;Node1 -->
<g id="edge1_Node000001_Node000002" class="edge">
<title>Node2&#45;&gt;Node1</title>
<g id="a_edge1_Node000001_Node000002"><a xlink:title=" ">
<path fill="none" stroke="#63b8ff" d="M64.38,-201.66C64.38,-188.35 64.38,-174.8 64.38,-161.75"/>
<polygon fill="none" stroke="#63b8ff" points="64.38,-161.81 60.38,-155.81 64.38,-149.81 68.38,-155.81 64.38,-161.81"/>
</a>
</g>
<text xml:space="preserve" text-anchor="start" x="67.38" y="-171.95" font-family="Arial" font-size="9.00" fill="grey">+testOutputsClient</text>
</g>
</g>
</svg>
