<?xml version="1.0" encoding="UTF-8" standalone="no"?>
<!DOCTYPE svg PUBLIC "-//W3C//DTD SVG 1.1//EN"
 "http://www.w3.org/Graphics/SVG/1.1/DTD/svg11.dtd">
<!-- Generated by graphviz version 13.1.0 (20250701.0955)
 -->
<!-- Title: Lib::FreeRTOS::Task::Config Pages: 1 -->
<svg width="243pt" height="108pt"
 viewBox="0.00 0.00 243.00 108.00" xmlns="http://www.w3.org/2000/svg" xmlns:xlink="http://www.w3.org/1999/xlink">
<g id="graph0" class="graph" transform="scale(1 1) rotate(0) translate(4 104)">
<title>Lib::FreeRTOS::Task::Config</title>
<!-- Node1 -->
<g id="Node000001" class="node">
<title>Node1</title>
<g id="a_Node000001"><a xlink:title="Task configuration structure.">
<polygon fill="#999999" stroke="none" points="167.88,-29 76.62,-29 76.62,0 167.88,0 167.88,-29"/>
<text xml:space="preserve" text-anchor="start" x="80.62" y="-16.45" font-family="Arial" font-size="9.00">Lib::FreeRTOS::Task</text>
<text xml:space="preserve" text-anchor="start" x="106.5" y="-5.95" font-family="Arial" font-size="9.00">::Config</text>
<polygon fill="none" stroke="#666666" points="76.62,0 76.62,-29 167.88,-29 167.88,0 76.62,0"/>
</a>
</g>
</g>
<!-- Node2 -->
<g id="Node000002" class="node">
<title>Node2</title>
<g id="a_Node000002"><a xlink:title=" ">
<polygon fill="white" stroke="none" points="30.5,-100 0,-100 0,-81.5 30.5,-81.5 30.5,-100"/>
<text xml:space="preserve" text-anchor="start" x="4" y="-87.45" font-family="Arial" font-size="9.00">string</text>
<polygon fill="none" stroke="#bfbfbf" points="0,-81.5 0,-100 30.5,-100 30.5,-81.5 0,-81.5"/>
</a>
</g>
</g>
<!-- Node2&#45;&gt;Node1 -->
<g id="edge1_Node000001_Node000002" class="edge">
<title>Node2&#45;&gt;Node1</title>
<g id="a_edge1_Node000001_Node000002"><a xlink:title=" ">
<path fill="none" stroke="#63b8ff" d="M20.16,-81.51C26.13,-72.08 37,-56.71 49.75,-47 55.98,-42.26 63.04,-38.06 70.24,-34.41"/>
<polygon fill="none" stroke="#63b8ff" points="70.28,-34.39 74.03,-28.23 81.16,-29.32 77.41,-35.48 70.28,-34.39"/>
</a>
</g>
<text xml:space="preserve" text-anchor="start" x="52.75" y="-51.95" font-family="Arial" font-size="9.00" fill="grey">+name</text>
</g>
<!-- Node3 -->
<g id="Node000003" class="node">
<title>Node3</title>
<g id="a_Node000003"><a xlink:title=" ">
<polygon fill="white" stroke="none" points="124.38,-100 48.12,-100 48.12,-81.5 124.38,-81.5 124.38,-100"/>
<text xml:space="preserve" text-anchor="start" x="52.12" y="-87.45" font-family="Arial" font-size="9.00">function&lt; void()&gt;</text>
<polygon fill="none" stroke="#bfbfbf" points="48.12,-81.5 48.12,-100 124.38,-100 124.38,-81.5 48.12,-81.5"/>
</a>
</g>
</g>
<!-- Node3&#45;&gt;Node1 -->
<g id="edge2_Node000001_Node000003" class="edge">
<title>Node3&#45;&gt;Node1</title>
<g id="a_edge2_Node000001_Node000003"><a xlink:title=" ">
<path fill="none" stroke="#63b8ff" d="M86.08,-81.77C86.19,-72.86 87.31,-58.21 92.75,-47 94.18,-44.05 95.98,-41.19 97.99,-38.47"/>
<polygon fill="none" stroke="#63b8ff" points="97.91,-38.56 98.83,-31.41 105.79,-29.51 104.87,-36.66 97.91,-38.56"/>
</a>
</g>
<text xml:space="preserve" text-anchor="start" x="95.75" y="-51.95" font-family="Arial" font-size="9.00" fill="grey">+function</text>
</g>
<!-- Node4 -->
<g id="Node000004" class="node">
<title>Node4</title>
<g id="a_Node000004"><a xlink:title=" ">
<polygon fill="white" stroke="none" points="174.25,-100 142.25,-100 142.25,-81.5 174.25,-81.5 174.25,-100"/>
<text xml:space="preserve" text-anchor="start" x="146.25" y="-87.45" font-family="Arial" font-size="9.00">size_t</text>
<polygon fill="none" stroke="#bfbfbf" points="142.25,-81.5 142.25,-100 174.25,-100 174.25,-81.5 142.25,-81.5"/>
</a>
</g>
</g>
<!-- Node4&#45;&gt;Node1 -->
<g id="edge3_Node000001_Node000004" class="edge">
<title>Node4&#45;&gt;Node1</title>
<g id="a_edge3_Node000001_Node000004"><a xlink:title=" ">
<path fill="none" stroke="#63b8ff" d="M154.26,-81.52C149.47,-71.65 141.23,-54.65 134.31,-40.37"/>
<polygon fill="none" stroke="#63b8ff" points="134.31,-40.38 128.1,-36.73 129.08,-29.58 135.29,-33.24 134.31,-40.38"/>
</a>
</g>
<text xml:space="preserve" text-anchor="start" x="147.53" y="-51.95" font-family="Arial" font-size="9.00" fill="grey">+stack</text>
</g>
<!-- Node5 -->
<g id="Node000005" class="node">
<title>Node5</title>
<g id="a_Node000005"><a xlink:title=" ">
<polygon fill="white" stroke="none" points="233.75,-100 192.75,-100 192.75,-81.5 233.75,-81.5 233.75,-100"/>
<text xml:space="preserve" text-anchor="start" x="196.75" y="-87.45" font-family="Arial" font-size="9.00">uint32_t</text>
<polygon fill="none" stroke="#bfbfbf" points="192.75,-81.5 192.75,-100 233.75,-100 233.75,-81.5 192.75,-81.5"/>
</a>
</g>
</g>
<!-- Node5&#45;&gt;Node1 -->
<g id="edge4_Node000001_Node000005" class="edge">
<title>Node5&#45;&gt;Node1</title>
<g id="a_edge4_Node000001_Node000005"><a xlink:title=" ">
<path fill="none" stroke="#63b8ff" d="M208.7,-81.66C203.16,-72.39 193.07,-57.14 181.25,-47 176.26,-42.71 170.58,-38.78 164.77,-35.26"/>
<polygon fill="none" stroke="#63b8ff" points="164.84,-35.29 157.65,-35.86 154.37,-29.43 161.56,-28.87 164.84,-35.29"/>
</a>
</g>
<text xml:space="preserve" text-anchor="start" x="199.1" y="-51.95" font-family="Arial" font-size="9.00" fill="grey">+priority</text>
</g>
</g>
</svg>
