<?xml version="1.0" encoding="UTF-8" standalone="no"?>
<!DOCTYPE svg PUBLIC "-//W3C//DTD SVG 1.1//EN"
 "http://www.w3.org/Graphics/SVG/1.1/DTD/svg11.dtd">
<!-- Generated by graphviz version 13.1.0 (20250701.0955)
 -->
<!-- Title: Lib::Helper::BufferStatic&lt; T_SIZE &gt; Pages: 1 -->
<svg width="298pt" height="171pt"
 viewBox="0.00 0.00 298.00 171.00" xmlns="http://www.w3.org/2000/svg" xmlns:xlink="http://www.w3.org/1999/xlink">
<g id="graph0" class="graph" transform="scale(1 1) rotate(0) translate(4 167)">
<title>Lib::Helper::BufferStatic&lt; T_SIZE &gt;</title>
<!-- Node1 -->
<g id="Node000001" class="node">
<title>Node1</title>
<g id="a_Node000001"><a xlink:title="Fixed&#45;size stack&#45;allocated byte buffer.">
<polygon fill="#999999" stroke="none" points="221.75,-32 109.5,-32 109.5,0 221.75,0 221.75,-32"/>
<text xml:space="preserve" text-anchor="start" x="113.5" y="-18.5" font-family="Helvetica,sans-Serif" font-size="10.00">Lib::Helper::BufferStatic</text>
<text xml:space="preserve" text-anchor="start" x="140.12" y="-6.5" font-family="Helvetica,sans-Serif" font-size="10.00">&lt; T_SIZE &gt;</text>
<polygon fill="none" stroke="#666666" points="109.5,0 109.5,-32 221.75,-32 221.75,0 109.5,0"/>
</a>
</g>
</g>
<!-- Node2 -->
<g id="Node000002" class="node">
<title>Node2</title>
<g id="a_Node000002"><a xlink:href="../../d0/d95/class_lib_1_1_helper_1_1_buffer.html" target="_top" xlink:title="Flexible byte buffer supporting dynamic allocation or external memory.">
<polygon fill="white" stroke="none" points="209,-89 122.25,-89 122.25,-69 209,-69 209,-89"/>
<text xml:space="preserve" text-anchor="start" x="126.25" y="-75.5" font-family="Helvetica,sans-Serif" font-size="10.00">Lib::Helper::Buffer</text>
<polygon fill="none" stroke="#666666" points="122.25,-69 122.25,-89 209,-89 209,-69 122.25,-69"/>
</a>
</g>
</g>
<!-- Node2&#45;&gt;Node1 -->
<g id="edge1_Node000001_Node000002" class="edge">
<title>Node2&#45;&gt;Node1</title>
<g id="a_edge1_Node000001_Node000002"><a xlink:title=" ">
<path fill="none" stroke="#63b8ff" d="M165.62,-58.03C165.62,-49.5 165.62,-39.72 165.62,-31.85"/>
<polygon fill="none" stroke="#63b8ff" points="162.13,-57.75 165.63,-67.75 169.13,-57.75 162.13,-57.75"/>
</a>
</g>
</g>
<!-- Node3 -->
<g id="Node000003" class="node">
<title>Node3</title>
<g id="a_Node000003"><a xlink:title=" ">
<polygon fill="white" stroke="none" points="103.25,-163 0,-163 0,-143 103.25,-143 103.25,-163"/>
<text xml:space="preserve" text-anchor="start" x="4" y="-149.5" font-family="Helvetica,sans-Serif" font-size="10.00">unique_ptr&lt; uint8_t[]&gt;</text>
<polygon fill="none" stroke="#bfbfbf" points="0,-143 0,-163 103.25,-163 103.25,-143 0,-143"/>
</a>
</g>
</g>
<!-- Node3&#45;&gt;Node2 -->
<g id="edge2_Node000002_Node000003" class="edge">
<title>Node3&#45;&gt;Node2</title>
<g id="a_edge2_Node000002_Node000003"><a xlink:title=" ">
<path fill="none" stroke="#63b8ff" d="M53.78,-143.04C56.7,-132.86 62.87,-116.42 74.12,-107 84.42,-98.38 97.38,-92.51 110.27,-88.52"/>
<polygon fill="none" stroke="#63b8ff" points="110.07,-88.57 114.83,-83.15 121.66,-85.46 116.9,-90.88 110.07,-88.57"/>
</a>
</g>
<text xml:space="preserve" text-anchor="start" x="77.12" y="-112.5" font-family="Helvetica,sans-Serif" font-size="10.00" fill="grey">#dataHolder</text>
</g>
<!-- Node4 -->
<g id="Node000004" class="node">
<title>Node4</title>
<g id="a_Node000004"><a xlink:title=" ">
<polygon fill="white" stroke="none" points="158.25,-163 121,-163 121,-143 158.25,-143 158.25,-163"/>
<text xml:space="preserve" text-anchor="start" x="125" y="-149.5" font-family="Helvetica,sans-Serif" font-size="10.00">uint8_t</text>
<polygon fill="none" stroke="#bfbfbf" points="121,-143 121,-163 158.25,-163 158.25,-143 121,-143"/>
</a>
</g>
</g>
<!-- Node4&#45;&gt;Node2 -->
<g id="edge3_Node000002_Node000004" class="edge">
<title>Node4&#45;&gt;Node2</title>
<g id="a_edge3_Node000002_Node000004"><a xlink:title=" ">
<path fill="none" stroke="#63b8ff" d="M138.01,-143C136.74,-133.64 135.88,-118.73 140.62,-107 141.82,-104.05 143.49,-101.23 145.42,-98.6"/>
<polygon fill="none" stroke="#63b8ff" points="145.46,-98.54 146.53,-91.41 153.52,-89.66 152.46,-96.79 145.46,-98.54"/>
</a>
</g>
<text xml:space="preserve" text-anchor="start" x="143.62" y="-112.5" font-family="Helvetica,sans-Serif" font-size="10.00" fill="grey">#data</text>
</g>
<!-- Node5 -->
<g id="Node000005" class="node">
<title>Node5</title>
<g id="a_Node000005"><a xlink:title=" ">
<polygon fill="white" stroke="none" points="210.75,-163 176.5,-163 176.5,-143 210.75,-143 210.75,-163"/>
<text xml:space="preserve" text-anchor="start" x="180.5" y="-149.5" font-family="Helvetica,sans-Serif" font-size="10.00">size_t</text>
<polygon fill="none" stroke="#bfbfbf" points="176.5,-143 176.5,-163 210.75,-163 210.75,-143 176.5,-143"/>
</a>
</g>
</g>
<!-- Node5&#45;&gt;Node2 -->
<g id="edge4_Node000002_Node000005" class="edge">
<title>Node5&#45;&gt;Node2</title>
<g id="a_edge4_Node000002_Node000005"><a xlink:title=" ">
<path fill="none" stroke="#63b8ff" d="M190.19,-143.17C186.12,-132.7 179.19,-114.89 173.73,-100.85"/>
<polygon fill="none" stroke="#63b8ff" points="173.76,-100.92 167.86,-96.78 169.41,-89.74 175.32,-93.88 173.76,-100.92"/>
</a>
</g>
<text xml:space="preserve" text-anchor="start" x="185.96" y="-112.5" font-family="Helvetica,sans-Serif" font-size="10.00" fill="grey">#size</text>
</g>
<!-- Node6 -->
<g id="Node000006" class="node">
<title>Node6</title>
<g id="a_Node000006"><a xlink:title=" ">
<polygon fill="white" stroke="none" points="257.62,-163 231.62,-163 231.62,-143 257.62,-143 257.62,-163"/>
<text xml:space="preserve" text-anchor="start" x="235.62" y="-149.5" font-family="Helvetica,sans-Serif" font-size="10.00">bool</text>
<polygon fill="none" stroke="#bfbfbf" points="231.62,-143 231.62,-163 257.62,-163 257.62,-143 231.62,-143"/>
</a>
</g>
</g>
<!-- Node6&#45;&gt;Node2 -->
<g id="edge5_Node000002_Node000006" class="edge">
<title>Node6&#45;&gt;Node2</title>
<g id="a_edge5_Node000002_Node000006"><a xlink:title=" ">
<path fill="none" stroke="#63b8ff" d="M240.82,-143.09C236.25,-133.25 227.8,-117.42 216.62,-107 211.71,-102.42 205.88,-98.39 199.94,-94.93"/>
<polygon fill="none" stroke="#63b8ff" points="200.03,-94.98 192.86,-95.74 189.4,-89.41 196.57,-88.65 200.03,-94.98"/>
</a>
</g>
<text xml:space="preserve" text-anchor="start" x="233.27" y="-112.5" font-family="Helvetica,sans-Serif" font-size="10.00" fill="grey">#isAllocated</text>
</g>
</g>
</svg>
