<?xml version="1.0" encoding="UTF-8" standalone="no"?>
<!DOCTYPE svg PUBLIC "-//W3C//DTD SVG 1.1//EN"
 "http://www.w3.org/Graphics/SVG/1.1/DTD/svg11.dtd">
<!-- Generated by graphviz version 13.1.0 (20250701.0955)
 -->
<!-- Title: Lib::Xbee::Core::Frame0x80 Pages: 1 -->
<svg width="216pt" height="170pt"
 viewBox="0.00 0.00 216.00 170.00" xmlns="http://www.w3.org/2000/svg" xmlns:xlink="http://www.w3.org/1999/xlink">
<g id="graph0" class="graph" transform="scale(1 1) rotate(0) translate(4 166)">
<title>Lib::Xbee::Core::Frame0x80</title>
<!-- Node1 -->
<g id="Node000001" class="node">
<title>Node1</title>
<g id="a_Node000001"><a xlink:title="RX Packet frame (0x80) for XBee Core.">
<polygon fill="#999999" stroke="none" points="157.88,-47.5 35.12,-47.5 35.12,0 157.88,0 157.88,-47.5"/>
<text xml:space="preserve" text-anchor="start" x="39.12" y="-34.95" font-family="Arial" font-size="9.00">Lib::Xbee::Core::Frame0x80</text>
<text xml:space="preserve" text-anchor="start" x="95.38" y="-20.45" font-family="Arial" font-size="9.00"> </text>
<text xml:space="preserve" text-anchor="start" x="52.38" y="-5.95" font-family="Arial" font-size="9.00">+</text>
<text xml:space="preserve" text-anchor="start" x="74.88" y="-5.95" font-family="Arial" font-size="9.00">Frame0x80()</text>
<polygon fill="#666666" stroke="#666666" points="35.12,-31 35.12,-31 157.88,-31 157.88,-31 35.12,-31"/>
<polygon fill="#666666" stroke="#666666" points="35.12,-16.5 35.12,-16.5 157.88,-16.5 157.88,-16.5 35.12,-16.5"/>
<polygon fill="none" stroke="#666666" points="35.12,0 35.12,-47.5 157.88,-47.5 157.88,0 35.12,0"/>
</a>
</g>
</g>
<!-- Node2 -->
<g id="Node000002" class="node">
<title>Node2</title>
<g id="a_Node000002"><a xlink:title=" ">
<polygon fill="white" stroke="none" points="41,-162 0,-162 0,-114.5 41,-114.5 41,-162"/>
<text xml:space="preserve" text-anchor="start" x="4" y="-149.45" font-family="Arial" font-size="9.00">uint64_t</text>
<text xml:space="preserve" text-anchor="start" x="19.38" y="-134.95" font-family="Arial" font-size="9.00"> </text>
<text xml:space="preserve" text-anchor="start" x="19.38" y="-120.45" font-family="Arial" font-size="9.00"> </text>
<polygon fill="#bfbfbf" stroke="#bfbfbf" points="0,-145.5 0,-145.5 41,-145.5 41,-145.5 0,-145.5"/>
<polygon fill="#bfbfbf" stroke="#bfbfbf" points="0,-131 0,-131 41,-131 41,-131 0,-131"/>
<polygon fill="none" stroke="#bfbfbf" points="0,-114.5 0,-162 41,-162 41,-114.5 0,-114.5"/>
</a>
</g>
</g>
<!-- Node2&#45;&gt;Node1 -->
<g id="edge1_Node000001_Node000002" class="edge">
<title>Node2&#45;&gt;Node1</title>
<g id="a_edge1_Node000001_Node000002"><a xlink:title=" ">
<path fill="none" stroke="#63b8ff" d="M22.39,-114.56C24.57,-99.55 29.23,-80.02 39.25,-65.5 41.61,-62.09 44.35,-58.86 47.33,-55.83"/>
<polygon fill="none" stroke="#63b8ff" points="47.21,-55.93 49.03,-48.96 56.17,-47.95 54.35,-54.93 47.21,-55.93"/>
</a>
</g>
<text xml:space="preserve" text-anchor="start" x="42.25" y="-77.7" font-family="Arial" font-size="9.00" fill="grey">+srcAddr64</text>
</g>
<!-- Node3 -->
<g id="Node000003" class="node">
<title>Node3</title>
<g id="a_Node000003"><a xlink:title=" ">
<polygon fill="white" stroke="none" points="114.38,-162 78.62,-162 78.62,-114.5 114.38,-114.5 114.38,-162"/>
<text xml:space="preserve" text-anchor="start" x="82.62" y="-149.45" font-family="Arial" font-size="9.00">uint8_t</text>
<text xml:space="preserve" text-anchor="start" x="95.38" y="-134.95" font-family="Arial" font-size="9.00"> </text>
<text xml:space="preserve" text-anchor="start" x="95.38" y="-120.45" font-family="Arial" font-size="9.00"> </text>
<polygon fill="#bfbfbf" stroke="#bfbfbf" points="78.62,-145.5 78.62,-145.5 114.38,-145.5 114.38,-145.5 78.62,-145.5"/>
<polygon fill="#bfbfbf" stroke="#bfbfbf" points="78.62,-131 78.62,-131 114.38,-131 114.38,-131 78.62,-131"/>
<polygon fill="none" stroke="#bfbfbf" points="78.62,-114.5 78.62,-162 114.38,-162 114.38,-114.5 78.62,-114.5"/>
</a>
</g>
</g>
<!-- Node3&#45;&gt;Node1 -->
<g id="edge2_Node000001_Node000003" class="edge">
<title>Node3&#45;&gt;Node1</title>
<g id="a_edge2_Node000001_Node000003"><a xlink:title=" ">
<path fill="none" stroke="#63b8ff" d="M96.5,-114.75C96.5,-99.12 96.5,-77.96 96.5,-60.09"/>
<polygon fill="none" stroke="#63b8ff" points="96.5,-60.11 92.5,-54.11 96.5,-48.11 100.5,-54.11 96.5,-60.11"/>
</a>
</g>
<text xml:space="preserve" text-anchor="start" x="99.5" y="-84.95" font-family="Arial" font-size="9.00" fill="grey">+option</text>
<text xml:space="preserve" text-anchor="start" x="99.5" y="-70.45" font-family="Arial" font-size="9.00" fill="grey">+rssi</text>
</g>
<!-- Node4 -->
<g id="Node000004" class="node">
<title>Node4</title>
<g id="a_Node000004"><a xlink:title=" ">
<polygon fill="white" stroke="none" points="208.25,-162 132.75,-162 132.75,-114.5 208.25,-114.5 208.25,-162"/>
<text xml:space="preserve" text-anchor="start" x="136.75" y="-149.45" font-family="Arial" font-size="9.00">vector&lt; uint8_t &gt;</text>
<text xml:space="preserve" text-anchor="start" x="169.38" y="-134.95" font-family="Arial" font-size="9.00"> </text>
<text xml:space="preserve" text-anchor="start" x="169.38" y="-120.45" font-family="Arial" font-size="9.00"> </text>
<polygon fill="#bfbfbf" stroke="#bfbfbf" points="132.75,-145.5 132.75,-145.5 208.25,-145.5 208.25,-145.5 132.75,-145.5"/>
<polygon fill="#bfbfbf" stroke="#bfbfbf" points="132.75,-131 132.75,-131 208.25,-131 208.25,-131 132.75,-131"/>
<polygon fill="none" stroke="#bfbfbf" points="132.75,-114.5 132.75,-162 208.25,-162 208.25,-114.5 132.75,-114.5"/>
</a>
</g>
</g>
<!-- Node4&#45;&gt;Node1 -->
<g id="edge3_Node000001_Node000004" class="edge">
<title>Node4&#45;&gt;Node1</title>
<g id="a_edge3_Node000001_Node000004"><a xlink:title=" ">
<path fill="none" stroke="#63b8ff" d="M162.58,-114.81C156.82,-100.08 148.18,-80.79 137.5,-65.5 135.4,-62.49 133.06,-59.51 130.6,-56.61"/>
<polygon fill="none" stroke="#63b8ff" points="130.63,-56.65 123.62,-54.94 122.51,-47.81 129.51,-49.52 130.63,-56.65"/>
</a>
</g>
<text xml:space="preserve" text-anchor="start" x="157.4" y="-77.7" font-family="Arial" font-size="9.00" fill="grey">+rfData</text>
</g>
</g>
</svg>
