<?xml version="1.0" encoding="UTF-8" standalone="no"?>
<!DOCTYPE svg PUBLIC "-//W3C//DTD SVG 1.1//EN"
 "http://www.w3.org/Graphics/SVG/1.1/DTD/svg11.dtd">
<!-- Generated by graphviz version 12.2.1 (20241206.2353)
 -->
<!-- Title: Lib::Xbee::Core::ComDriver::send Pages: 1 -->
<svg width="329pt" height="190pt"
 viewBox="0.00 0.00 328.75 190.00" xmlns="http://www.w3.org/2000/svg" xmlns:xlink="http://www.w3.org/1999/xlink">
<g id="graph0" class="graph" transform="scale(1 1) rotate(0) translate(4 186)">
<title>Lib::Xbee::Core::ComDriver::send</title>
<!-- Node1 -->
<g id="Node000001" class="node">
<title>Node1</title>
<g id="a_Node000001"><a xlink:title="Sends the given frame buffer.">
<polygon fill="#999999" stroke="#666666" points="137.5,-107 0,-107 0,-75 137.5,-75 137.5,-107"/>
<text text-anchor="start" x="8" y="-93.5" font-family="Helvetica,sans-Serif" font-size="10.00">Lib::Xbee::Core::ComDriver</text>
<text text-anchor="middle" x="68.75" y="-81.5" font-family="Helvetica,sans-Serif" font-size="10.00">::send</text>
</a>
</g>
</g>
<!-- Node2 -->
<g id="Node000002" class="node">
<title>Node2</title>
<g id="a_Node000002"><a xlink:href="../../dc/db6/a01212.html#a216af07f71c2c1f5a718f814885eefee" target="_top" xlink:title="Retrieves the data stored in the buffer.">
<polygon fill="white" stroke="#666666" points="308,-182 186.25,-182 186.25,-150 308,-150 308,-182"/>
<text text-anchor="start" x="194.25" y="-168.5" font-family="Helvetica,sans-Serif" font-size="10.00">Lib::Xbee::Core::DigiApi</text>
<text text-anchor="middle" x="247.12" y="-156.5" font-family="Helvetica,sans-Serif" font-size="10.00">FrameBuffer::getData</text>
</a>
</g>
</g>
<!-- Node1&#45;&gt;Node2 -->
<g id="edge1_Node000001_Node000002" class="edge">
<title>Node1&#45;&gt;Node2</title>
<g id="a_edge1_Node000001_Node000002"><a xlink:title=" ">
<path fill="none" stroke="#63b8ff" d="M101.1,-107.3C121.46,-117.58 148.72,-130.81 173.5,-141 177.3,-142.56 181.24,-144.11 185.22,-145.63"/>
<polygon fill="#63b8ff" stroke="#63b8ff" points="183.82,-148.84 194.41,-149.02 186.24,-142.27 183.82,-148.84"/>
</a>
</g>
</g>
<!-- Node3 -->
<g id="Node000003" class="node">
<title>Node3</title>
<g id="a_Node000003"><a xlink:href="../../dc/db6/a01212.html#a9211d70f8b7f885df1472c90a91a2caf" target="_top" xlink:title="Gets the size of the buffer.">
<polygon fill="white" stroke="#666666" points="308,-132 186.25,-132 186.25,-100 308,-100 308,-132"/>
<text text-anchor="start" x="194.25" y="-118.5" font-family="Helvetica,sans-Serif" font-size="10.00">Lib::Xbee::Core::DigiApi</text>
<text text-anchor="middle" x="247.12" y="-106.5" font-family="Helvetica,sans-Serif" font-size="10.00">FrameBuffer::getSize</text>
</a>
</g>
</g>
<!-- Node1&#45;&gt;Node3 -->
<g id="edge2_Node000001_Node000003" class="edge">
<title>Node1&#45;&gt;Node3</title>
<g id="a_edge2_Node000001_Node000003"><a xlink:title=" ">
<path fill="none" stroke="#63b8ff" d="M137.94,-100.67C150.04,-102.38 162.67,-104.17 174.85,-105.9"/>
<polygon fill="#63b8ff" stroke="#63b8ff" points="173.99,-109.31 184.38,-107.25 174.97,-102.38 173.99,-109.31"/>
</a>
</g>
</g>
<!-- Node4 -->
<g id="Node000004" class="node">
<title>Node4</title>
<g id="a_Node000004"><a xlink:href="../../d2/d22/a01196.html#afd6db5dad0af8ba07dec145ed98e0c97" target="_top" xlink:title="Signals the beginning of a message send operation.">
<polygon fill="white" stroke="#666666" points="320.75,-82 173.5,-82 173.5,-50 320.75,-50 320.75,-82"/>
<text text-anchor="start" x="181.5" y="-68.5" font-family="Helvetica,sans-Serif" font-size="10.00">Lib::Xbee::Core::ComDriver</text>
<text text-anchor="middle" x="247.12" y="-56.5" font-family="Helvetica,sans-Serif" font-size="10.00">::signalMessageSendingBegin</text>
</a>
</g>
</g>
<!-- Node1&#45;&gt;Node4 -->
<g id="edge3_Node000001_Node000004" class="edge">
<title>Node1&#45;&gt;Node4</title>
<g id="a_edge3_Node000001_Node000004"><a xlink:title=" ">
<path fill="none" stroke="#63b8ff" d="M137.94,-81.33C145.78,-80.22 153.84,-79.08 161.86,-77.94"/>
<polygon fill="#63b8ff" stroke="#63b8ff" points="162.24,-81.43 171.65,-76.56 161.26,-74.49 162.24,-81.43"/>
</a>
</g>
</g>
<!-- Node5 -->
<g id="Node000005" class="node">
<title>Node5</title>
<g id="a_Node000005"><a xlink:href="../../d2/d22/a01196.html#af54a32cb42a630bcd85b55be791590d7" target="_top" xlink:title="Signal the beginning of a message sending process.">
<polygon fill="white" stroke="#666666" points="317,-32 177.25,-32 177.25,0 317,0 317,-32"/>
<text text-anchor="start" x="185.25" y="-18.5" font-family="Helvetica,sans-Serif" font-size="10.00">Lib::Xbee::Core::ComDriver</text>
<text text-anchor="middle" x="247.12" y="-6.5" font-family="Helvetica,sans-Serif" font-size="10.00">::signalMessageSendingEnd</text>
</a>
</g>
</g>
<!-- Node1&#45;&gt;Node5 -->
<g id="edge4_Node000001_Node000005" class="edge">
<title>Node1&#45;&gt;Node5</title>
<g id="a_edge4_Node000001_Node000005"><a xlink:title=" ">
<path fill="none" stroke="#63b8ff" d="M101.1,-74.7C121.46,-64.42 148.72,-51.19 173.5,-41 177.3,-39.44 181.24,-37.89 185.22,-36.37"/>
<polygon fill="#63b8ff" stroke="#63b8ff" points="186.24,-39.73 194.41,-32.98 183.82,-33.16 186.24,-39.73"/>
</a>
</g>
</g>
</g>
</svg>
