<?xml version="1.0" encoding="UTF-8" standalone="no"?>
<!DOCTYPE svg PUBLIC "-//W3C//DTD SVG 1.1//EN"
 "http://www.w3.org/Graphics/SVG/1.1/DTD/svg11.dtd">
<!-- Generated by graphviz version 12.2.1 (20241206.2353)
 -->
<!-- Title: Lib::Xbee::Core::ComDriver::send Pages: 1 -->
<svg width="357pt" height="190pt"
 viewBox="0.00 0.00 357.25 190.00" xmlns="http://www.w3.org/2000/svg" xmlns:xlink="http://www.w3.org/1999/xlink">
<g id="graph0" class="graph" transform="scale(1 1) rotate(0) translate(4 186)">
<title>Lib::Xbee::Core::ComDriver::send</title>
<!-- Node1 -->
<g id="Node000001" class="node">
<title>Node1</title>
<g id="a_Node000001"><a xlink:title="Sends the given frame buffer.">
<polygon fill="#999999" stroke="#666666" points="137.5,-107 0,-107 0,-75 137.5,-75 137.5,-107"/>
<text text-anchor="start" x="8" y="-93.5" font-family="Helvetica,sans-Serif" font-size="10.00">Lib::Xbee::Core::ComDriver</text>
<text text-anchor="middle" x="68.75" y="-81.5" font-family="Helvetica,sans-Serif" font-size="10.00">::send</text>
</a>
</g>
</g>
<!-- Node2 -->
<g id="Node000002" class="node">
<title>Node2</title>
<g id="a_Node000002"><a xlink:href="../../dc/db6/a01212.html#a216af07f71c2c1f5a718f814885eefee" target="_top" xlink:title="Retrieves the data stored in the buffer.">
<polygon fill="white" stroke="#666666" points="322.25,-182 200.5,-182 200.5,-150 322.25,-150 322.25,-182"/>
<text text-anchor="start" x="208.5" y="-168.5" font-family="Helvetica,sans-Serif" font-size="10.00">Lib::Xbee::Core::DigiApi</text>
<text text-anchor="middle" x="261.38" y="-156.5" font-family="Helvetica,sans-Serif" font-size="10.00">FrameBuffer::getData</text>
</a>
</g>
</g>
<!-- Node1&#45;&gt;Node2 -->
<g id="edge1_Node000001_Node000002" class="edge">
<title>Node1&#45;&gt;Node2</title>
<g id="a_edge1_Node000001_Node000002"><a xlink:title=" ">
<path fill="none" stroke="#63b8ff" d="M100.47,-107.5C120.81,-118 148.28,-131.37 173.5,-141 178.68,-142.98 184.09,-144.89 189.56,-146.71"/>
<polygon fill="#63b8ff" stroke="#63b8ff" points="188.09,-149.91 198.68,-149.63 190.23,-143.24 188.09,-149.91"/>
</a>
</g>
</g>
<!-- Node3 -->
<g id="Node000003" class="node">
<title>Node3</title>
<g id="a_Node000003"><a xlink:href="../../dc/db6/a01212.html#a9211d70f8b7f885df1472c90a91a2caf" target="_top" xlink:title="Gets the size of the buffer.">
<polygon fill="white" stroke="#666666" points="322.25,-132 200.5,-132 200.5,-100 322.25,-100 322.25,-132"/>
<text text-anchor="start" x="208.5" y="-118.5" font-family="Helvetica,sans-Serif" font-size="10.00">Lib::Xbee::Core::DigiApi</text>
<text text-anchor="middle" x="261.38" y="-106.5" font-family="Helvetica,sans-Serif" font-size="10.00">FrameBuffer::getSize</text>
</a>
</g>
</g>
<!-- Node1&#45;&gt;Node3 -->
<g id="edge2_Node000001_Node000003" class="edge">
<title>Node1&#45;&gt;Node3</title>
<g id="a_edge2_Node000001_Node000003"><a xlink:title=" ">
<path fill="none" stroke="#63b8ff" d="M137.76,-99.92C154.36,-102.1 172.15,-104.43 188.9,-106.63"/>
<polygon fill="#63b8ff" stroke="#63b8ff" points="188.43,-110.09 198.8,-107.92 189.34,-103.15 188.43,-110.09"/>
</a>
</g>
</g>
<!-- Node4 -->
<g id="Node000004" class="node">
<title>Node4</title>
<g id="a_Node000004"><a xlink:href="../../d2/d22/a01196.html#a0bf218032c690f9157b52856bda2c0fa" target="_top" xlink:title="This pure virtual function is called to handle the event when message sending begins.">
<polygon fill="white" stroke="#666666" points="349.25,-82 173.5,-82 173.5,-50 349.25,-50 349.25,-82"/>
<text text-anchor="start" x="181.5" y="-68.5" font-family="Helvetica,sans-Serif" font-size="10.00">Lib::Xbee::Core::ComDriver</text>
<text text-anchor="middle" x="261.38" y="-56.5" font-family="Helvetica,sans-Serif" font-size="10.00">::handleMessageSendingBeginEvent</text>
</a>
</g>
</g>
<!-- Node1&#45;&gt;Node4 -->
<g id="edge3_Node000001_Node000004" class="edge">
<title>Node1&#45;&gt;Node4</title>
<g id="a_edge3_Node000001_Node000004"><a xlink:title=" ">
<path fill="none" stroke="#63b8ff" d="M137.76,-82.08C145.54,-81.06 153.58,-80.01 161.65,-78.95"/>
<polygon fill="#63b8ff" stroke="#63b8ff" points="162.1,-82.42 171.56,-77.65 161.19,-75.48 162.1,-82.42"/>
</a>
</g>
</g>
<!-- Node5 -->
<g id="Node000005" class="node">
<title>Node5</title>
<g id="a_Node000005"><a xlink:href="../../d2/d22/a01196.html#a4fcd94b075f4732d81be50d631af7176" target="_top" xlink:title="Pure virtual function to handle the event when message sending ends.">
<polygon fill="white" stroke="#666666" points="345.5,-32 177.25,-32 177.25,0 345.5,0 345.5,-32"/>
<text text-anchor="start" x="185.25" y="-18.5" font-family="Helvetica,sans-Serif" font-size="10.00">Lib::Xbee::Core::ComDriver</text>
<text text-anchor="middle" x="261.38" y="-6.5" font-family="Helvetica,sans-Serif" font-size="10.00">::handleMessageSendingEndEvent</text>
</a>
</g>
</g>
<!-- Node1&#45;&gt;Node5 -->
<g id="edge4_Node000001_Node000005" class="edge">
<title>Node1&#45;&gt;Node5</title>
<g id="a_edge4_Node000001_Node000005"><a xlink:title=" ">
<path fill="none" stroke="#63b8ff" d="M100.47,-74.5C120.81,-64 148.28,-50.63 173.5,-41 178.08,-39.25 182.83,-37.56 187.65,-35.93"/>
<polygon fill="#63b8ff" stroke="#63b8ff" points="188.39,-39.37 196.82,-32.95 186.22,-32.72 188.39,-39.37"/>
</a>
</g>
</g>
</g>
</svg>
