<?xml version="1.0" encoding="UTF-8" standalone="no"?>
<!DOCTYPE svg PUBLIC "-//W3C//DTD SVG 1.1//EN"
 "http://www.w3.org/Graphics/SVG/1.1/DTD/svg11.dtd">
<!-- Generated by graphviz version 12.2.1 (20241206.2353)
 -->
<!-- Title: Lib::HAL::I2CBase::receive Pages: 1 -->
<svg width="397pt" height="90pt"
 viewBox="0.00 0.00 397.25 90.00" xmlns="http://www.w3.org/2000/svg" xmlns:xlink="http://www.w3.org/1999/xlink">
<g id="graph0" class="graph" transform="scale(1 1) rotate(0) translate(4 86)">
<title>Lib::HAL::I2CBase::receive</title>
<!-- Node1 -->
<g id="Node000001" class="node">
<title>Node1</title>
<g id="a_Node000001"><a xlink:title="Receives data from the I2C device.">
<polygon fill="#999999" stroke="#666666" points="104.5,-57 0,-57 0,-25 104.5,-25 104.5,-57"/>
<text text-anchor="start" x="8" y="-43.5" font-family="Helvetica,sans-Serif" font-size="10.00">Lib::HAL::I2CBase::</text>
<text text-anchor="middle" x="52.25" y="-31.5" font-family="Helvetica,sans-Serif" font-size="10.00">receive</text>
</a>
</g>
</g>
<!-- Node2 -->
<g id="Node000002" class="node">
<title>Node2</title>
<g id="a_Node000002"><a xlink:href="../../d6/d7f/a00287.html#a4f17eb23e2131aa1063ecdcac27c59e8" target="_top" xlink:title="Receives data from the I2C device.">
<polygon fill="white" stroke="#666666" points="246.88,-82 142.38,-82 142.38,-50 246.88,-50 246.88,-82"/>
<text text-anchor="start" x="150.38" y="-68.5" font-family="Helvetica,sans-Serif" font-size="10.00">Lib::HAL::I2CBase::</text>
<text text-anchor="middle" x="194.62" y="-56.5" font-family="Helvetica,sans-Serif" font-size="10.00">receiveFunc</text>
</a>
</g>
</g>
<!-- Node1&#45;&gt;Node2 -->
<g id="edge1_Node000001_Node000002" class="edge">
<title>Node1&#45;&gt;Node2</title>
<g id="a_edge1_Node000001_Node000002"><a xlink:title=" ">
<path fill="none" stroke="#63b8ff" d="M104.72,-50.17C113.31,-51.7 122.29,-53.3 131.11,-54.87"/>
<polygon fill="#63b8ff" stroke="#63b8ff" points="130.21,-58.26 140.67,-56.57 131.44,-51.37 130.21,-58.26"/>
</a>
</g>
</g>
<!-- Node4 -->
<g id="Node000004" class="node">
<title>Node4</title>
<g id="a_Node000004"><a xlink:href="../../d6/d7f/a00287.html#a4d1b845c40505ebc92937c5a82e8a4fd" target="_top" xlink:title="Waits for the receive operation to complete.">
<polygon fill="white" stroke="#666666" points="248.75,-32 140.5,-32 140.5,0 248.75,0 248.75,-32"/>
<text text-anchor="start" x="148.5" y="-18.5" font-family="Helvetica,sans-Serif" font-size="10.00">Lib::HAL::I2CBase::</text>
<text text-anchor="middle" x="194.62" y="-6.5" font-family="Helvetica,sans-Serif" font-size="10.00">waitForRxCompleted</text>
</a>
</g>
</g>
<!-- Node1&#45;&gt;Node4 -->
<g id="edge3_Node000001_Node000004" class="edge">
<title>Node1&#45;&gt;Node4</title>
<g id="a_edge3_Node000001_Node000004"><a xlink:title=" ">
<path fill="none" stroke="#63b8ff" d="M104.72,-31.83C112.69,-30.41 120.99,-28.94 129.2,-27.47"/>
<polygon fill="#63b8ff" stroke="#63b8ff" points="129.55,-30.97 138.78,-25.77 128.32,-24.07 129.55,-30.97"/>
</a>
</g>
</g>
<!-- Node3 -->
<g id="Node000003" class="node">
<title>Node3</title>
<g id="a_Node000003"><a xlink:href="../../d6/d7f/a00287.html#ac6b409bcf1cd94495b44c4127765382e" target="_top" xlink:title="Retrieves the handle.">
<polygon fill="white" stroke="#666666" points="389.25,-82 284.75,-82 284.75,-50 389.25,-50 389.25,-82"/>
<text text-anchor="start" x="292.75" y="-68.5" font-family="Helvetica,sans-Serif" font-size="10.00">Lib::HAL::I2CBase::</text>
<text text-anchor="middle" x="337" y="-56.5" font-family="Helvetica,sans-Serif" font-size="10.00">getHandle</text>
</a>
</g>
</g>
<!-- Node2&#45;&gt;Node3 -->
<g id="edge2_Node000002_Node000003" class="edge">
<title>Node2&#45;&gt;Node3</title>
<g id="a_edge2_Node000002_Node000003"><a xlink:title=" ">
<path fill="none" stroke="#63b8ff" d="M247.1,-66C255.59,-66 264.47,-66 273.19,-66"/>
<polygon fill="#63b8ff" stroke="#63b8ff" points="273.02,-69.5 283.02,-66 273.02,-62.5 273.02,-69.5"/>
</a>
</g>
</g>
<!-- Node5 -->
<g id="Node000005" class="node">
<title>Node5</title>
<g id="a_Node000005"><a xlink:href="../../d6/d7f/a00287.html#a62368175c4fb19d4286743c64791b6ad" target="_top" xlink:title=" ">
<polygon fill="white" stroke="#666666" points="389.25,-32 284.75,-32 284.75,0 389.25,0 389.25,-32"/>
<text text-anchor="start" x="292.75" y="-18.5" font-family="Helvetica,sans-Serif" font-size="10.00">Lib::HAL::I2CBase::</text>
<text text-anchor="middle" x="337" y="-6.5" font-family="Helvetica,sans-Serif" font-size="10.00">waitForComplete</text>
</a>
</g>
</g>
<!-- Node4&#45;&gt;Node5 -->
<g id="edge4_Node000004_Node000005" class="edge">
<title>Node4&#45;&gt;Node5</title>
<g id="a_edge4_Node000004_Node000005"><a xlink:title=" ">
<path fill="none" stroke="#63b8ff" d="M249.1,-16C256.99,-16 265.19,-16 273.26,-16"/>
<polygon fill="#63b8ff" stroke="#63b8ff" points="273.02,-19.5 283.02,-16 273.02,-12.5 273.02,-19.5"/>
</a>
</g>
</g>
</g>
</svg>
