<?xml version="1.0" encoding="UTF-8" standalone="no"?>
<!DOCTYPE svg PUBLIC "-//W3C//DTD SVG 1.1//EN"
 "http://www.w3.org/Graphics/SVG/1.1/DTD/svg11.dtd">
<!-- Generated by graphviz version 12.2.1 (20241206.2353)
 -->
<!-- Title: Lib::HAL::I2CBase::interruptHandler Pages: 1 -->
<svg width="253pt" height="90pt"
 viewBox="0.00 0.00 253.00 90.00" xmlns="http://www.w3.org/2000/svg" xmlns:xlink="http://www.w3.org/1999/xlink">
<g id="graph0" class="graph" transform="scale(1 1) rotate(0) translate(4 86)">
<title>Lib::HAL::I2CBase::interruptHandler</title>
<!-- Node1 -->
<g id="Node000001" class="node">
<title>Node1</title>
<g id="a_Node000001"><a xlink:title=" ">
<polygon fill="#999999" stroke="#666666" points="104.5,-57 0,-57 0,-25 104.5,-25 104.5,-57"/>
<text text-anchor="start" x="8" y="-43.5" font-family="Helvetica,sans-Serif" font-size="10.00">Lib::HAL::I2CBase::</text>
<text text-anchor="middle" x="52.25" y="-31.5" font-family="Helvetica,sans-Serif" font-size="10.00">interruptHandler</text>
</a>
</g>
</g>
<!-- Node2 -->
<g id="Node000002" class="node">
<title>Node2</title>
<g id="a_Node000002"><a xlink:href="../../d6/d7f/a00287.html#ada6675816acaf43076a0ba03c53ca6e3" target="_top" xlink:title="Constructor for I2CBase.">
<polygon fill="white" stroke="#666666" points="245,-82 140.5,-82 140.5,-50 245,-50 245,-82"/>
<text text-anchor="start" x="148.5" y="-68.5" font-family="Helvetica,sans-Serif" font-size="10.00">Lib::HAL::I2CBase::</text>
<text text-anchor="middle" x="192.75" y="-56.5" font-family="Helvetica,sans-Serif" font-size="10.00">I2CBase</text>
</a>
</g>
</g>
<!-- Node1&#45;&gt;Node2 -->
<g id="edge1_Node000001_Node000002" class="edge">
<title>Node1&#45;&gt;Node2</title>
<g id="a_edge1_Node000001_Node000002"><a xlink:title=" ">
<path fill="none" stroke="#63b8ff" d="M104.82,-50.31C112.66,-51.72 120.83,-53.2 128.88,-54.65"/>
<polygon fill="#63b8ff" stroke="#63b8ff" points="128.18,-58.08 138.65,-56.41 129.43,-51.19 128.18,-58.08"/>
</a>
</g>
</g>
<!-- Node3 -->
<g id="Node000003" class="node">
<title>Node3</title>
<g id="a_Node000003"><a xlink:href="../../d6/d7f/a00287.html#a391e28eae01a51c5fa5dbc1fa637fbd9" target="_top" xlink:title="Event handler for I2C communication.">
<polygon fill="white" stroke="#666666" points="245,-32 140.5,-32 140.5,0 245,0 245,-32"/>
<text text-anchor="start" x="148.5" y="-18.5" font-family="Helvetica,sans-Serif" font-size="10.00">Lib::HAL::I2CBase::</text>
<text text-anchor="middle" x="192.75" y="-6.5" font-family="Helvetica,sans-Serif" font-size="10.00">event</text>
</a>
</g>
</g>
<!-- Node1&#45;&gt;Node3 -->
<g id="edge2_Node000001_Node000003" class="edge">
<title>Node1&#45;&gt;Node3</title>
<g id="a_edge2_Node000001_Node000003"><a xlink:title=" ">
<path fill="none" stroke="#63b8ff" d="M104.82,-31.69C112.66,-30.28 120.83,-28.8 128.88,-27.35"/>
<polygon fill="#63b8ff" stroke="#63b8ff" points="129.43,-30.81 138.65,-25.59 128.18,-23.92 129.43,-30.81"/>
</a>
</g>
</g>
</g>
</svg>
