<?xml version="1.0" encoding="UTF-8" standalone="no"?>
<!DOCTYPE svg PUBLIC "-//W3C//DTD SVG 1.1//EN"
 "http://www.w3.org/Graphics/SVG/1.1/DTD/svg11.dtd">
<!-- Generated by graphviz version 12.2.1 (20241206.2353)
 -->
<!-- Title: Lib::HAL::I2CBase::send Pages: 1 -->
<svg width="417pt" height="90pt"
 viewBox="0.00 0.00 416.75 90.00" xmlns="http://www.w3.org/2000/svg" xmlns:xlink="http://www.w3.org/1999/xlink">
<g id="graph0" class="graph" transform="scale(1 1) rotate(0) translate(4 86)">
<title>Lib::HAL::I2CBase::send</title>
<!-- Node1 -->
<g id="Node000001" class="node">
<title>Node1</title>
<g id="a_Node000001"><a xlink:title="Sends data to the I2C device.">
<polygon fill="#999999" stroke="#666666" points="125.5,-51 0,-51 0,-31 125.5,-31 125.5,-51"/>
<text text-anchor="middle" x="62.75" y="-37.5" font-family="Helvetica,sans-Serif" font-size="10.00">Lib::HAL::I2CBase::send</text>
</a>
</g>
</g>
<!-- Node2 -->
<g id="Node000002" class="node">
<title>Node2</title>
<g id="a_Node000002"><a xlink:href="../../d6/d7f/a00287.html#a30ca6d0b317b3faadf11e28e49c30301" target="_top" xlink:title="Sends data to the I2C device.">
<polygon fill="white" stroke="#666666" points="267.12,-82 162.62,-82 162.62,-50 267.12,-50 267.12,-82"/>
<text text-anchor="start" x="170.62" y="-68.5" font-family="Helvetica,sans-Serif" font-size="10.00">Lib::HAL::I2CBase::</text>
<text text-anchor="middle" x="214.88" y="-56.5" font-family="Helvetica,sans-Serif" font-size="10.00">sendFunc</text>
</a>
</g>
</g>
<!-- Node1&#45;&gt;Node2 -->
<g id="edge1_Node000001_Node000002" class="edge">
<title>Node1&#45;&gt;Node2</title>
<g id="a_edge1_Node000001_Node000002"><a xlink:title=" ">
<path fill="none" stroke="#63b8ff" d="M125.68,-51.31C134.12,-52.72 142.79,-54.16 151.24,-55.57"/>
<polygon fill="#63b8ff" stroke="#63b8ff" points="150.66,-59.02 161.1,-57.21 151.81,-52.12 150.66,-59.02"/>
</a>
</g>
</g>
<!-- Node4 -->
<g id="Node000004" class="node">
<title>Node4</title>
<g id="a_Node000004"><a xlink:href="../../d6/d7f/a00287.html#a60032e61146113f4f5c245737c3637ae" target="_top" xlink:title="Waits for the send operation to complete.">
<polygon fill="white" stroke="#666666" points="268.25,-32 161.5,-32 161.5,0 268.25,0 268.25,-32"/>
<text text-anchor="start" x="169.5" y="-18.5" font-family="Helvetica,sans-Serif" font-size="10.00">Lib::HAL::I2CBase::</text>
<text text-anchor="middle" x="214.88" y="-6.5" font-family="Helvetica,sans-Serif" font-size="10.00">waitForTxCompleted</text>
</a>
</g>
</g>
<!-- Node1&#45;&gt;Node4 -->
<g id="edge3_Node000001_Node000004" class="edge">
<title>Node1&#45;&gt;Node4</title>
<g id="a_edge3_Node000001_Node000004"><a xlink:title=" ">
<path fill="none" stroke="#63b8ff" d="M125.68,-30.69C133.69,-29.35 141.91,-27.98 149.96,-26.64"/>
<polygon fill="#63b8ff" stroke="#63b8ff" points="150.4,-30.12 159.69,-25.02 149.25,-23.21 150.4,-30.12"/>
</a>
</g>
</g>
<!-- Node3 -->
<g id="Node000003" class="node">
<title>Node3</title>
<g id="a_Node000003"><a xlink:href="../../d6/d7f/a00287.html#ac6b409bcf1cd94495b44c4127765382e" target="_top" xlink:title="Retrieves the handle.">
<polygon fill="white" stroke="#666666" points="408.75,-82 304.25,-82 304.25,-50 408.75,-50 408.75,-82"/>
<text text-anchor="start" x="312.25" y="-68.5" font-family="Helvetica,sans-Serif" font-size="10.00">Lib::HAL::I2CBase::</text>
<text text-anchor="middle" x="356.5" y="-56.5" font-family="Helvetica,sans-Serif" font-size="10.00">getHandle</text>
</a>
</g>
</g>
<!-- Node2&#45;&gt;Node3 -->
<g id="edge2_Node000002_Node000003" class="edge">
<title>Node2&#45;&gt;Node3</title>
<g id="a_edge2_Node000002_Node000003"><a xlink:title=" ">
<path fill="none" stroke="#63b8ff" d="M267.47,-66C275.69,-66 284.28,-66 292.73,-66"/>
<polygon fill="#63b8ff" stroke="#63b8ff" points="292.6,-69.5 302.6,-66 292.6,-62.5 292.6,-69.5"/>
</a>
</g>
</g>
<!-- Node5 -->
<g id="Node000005" class="node">
<title>Node5</title>
<g id="a_Node000005"><a xlink:href="../../d6/d7f/a00287.html#a62368175c4fb19d4286743c64791b6ad" target="_top" xlink:title=" ">
<polygon fill="white" stroke="#666666" points="408.75,-32 304.25,-32 304.25,0 408.75,0 408.75,-32"/>
<text text-anchor="start" x="312.25" y="-18.5" font-family="Helvetica,sans-Serif" font-size="10.00">Lib::HAL::I2CBase::</text>
<text text-anchor="middle" x="356.5" y="-6.5" font-family="Helvetica,sans-Serif" font-size="10.00">waitForComplete</text>
</a>
</g>
</g>
<!-- Node4&#45;&gt;Node5 -->
<g id="edge4_Node000004_Node000005" class="edge">
<title>Node4&#45;&gt;Node5</title>
<g id="a_edge4_Node000004_Node000005"><a xlink:title=" ">
<path fill="none" stroke="#63b8ff" d="M268.66,-16C276.53,-16 284.72,-16 292.77,-16"/>
<polygon fill="#63b8ff" stroke="#63b8ff" points="292.51,-19.5 302.51,-16 292.51,-12.5 292.51,-19.5"/>
</a>
</g>
</g>
</g>
</svg>
