<?xml version="1.0" encoding="UTF-8" standalone="no"?>
<!DOCTYPE svg PUBLIC "-//W3C//DTD SVG 1.1//EN"
 "http://www.w3.org/Graphics/SVG/1.1/DTD/svg11.dtd">
<!-- Generated by graphviz version 13.1.0 (20250701.0955)
 -->
<!-- Title: Lib::Xbee::Core::QueryBase Pages: 1 -->
<svg width="130pt" height="498pt"
 viewBox="0.00 0.00 130.00 498.00" xmlns="http://www.w3.org/2000/svg" xmlns:xlink="http://www.w3.org/1999/xlink">
<g id="graph0" class="graph" transform="scale(1 1) rotate(0) translate(4 494)">
<title>Lib::Xbee::Core::QueryBase</title>
<!-- Node1 -->
<g id="Node000001" class="node">
<title>Node1</title>
<g id="a_Node000001"><a xlink:title="Abstract base class for Xbee send requests.">
<polygon fill="#999999" stroke="none" points="122,-76.5 0,-76.5 0,0 122,0 122,-76.5"/>
<text xml:space="preserve" text-anchor="start" x="4" y="-63.95" font-family="Arial" font-size="9.00">Lib::Xbee::Core::QueryBase</text>
<text xml:space="preserve" text-anchor="start" x="59.88" y="-49.45" font-family="Arial" font-size="9.00"> </text>
<text xml:space="preserve" text-anchor="start" x="6.94" y="-34.95" font-family="Arial" font-size="9.00">+</text>
<text xml:space="preserve" text-anchor="start" x="19.12" y="-34.95" font-family="Arial" font-size="9.00">operator Frame::Data()</text>
<text xml:space="preserve" text-anchor="start" x="6.94" y="-20.45" font-family="Arial" font-size="9.00">+</text>
<text xml:space="preserve" text-anchor="start" x="19.12" y="-20.45" font-family="Arial" font-size="9.00">QueryBase()</text>
<text xml:space="preserve" text-anchor="start" x="6.94" y="-5.95" font-family="Arial" font-size="9.00">+</text>
<text xml:space="preserve" text-anchor="start" x="19.12" y="-5.95" font-family="Arial" font-size="9.00">~QueryBase()</text>
<polygon fill="#666666" stroke="#666666" points="0,-60 0,-60 122,-60 122,-60 0,-60"/>
<polygon fill="#666666" stroke="#666666" points="0,-45.5 0,-45.5 122,-45.5 122,-45.5 0,-45.5"/>
<polygon fill="none" stroke="#666666" points="0,0 0,-76.5 122,-76.5 122,0 0,0"/>
</a>
</g>
</g>
<!-- Node2 -->
<g id="Node000002" class="node">
<title>Node2</title>
<g id="a_Node000002"><a xlink:href="../../df/d4d/a02086.html" target="_top" xlink:title="Type&#45;tagged byte buffer for Xbee Core frame payloads.">
<polygon fill="white" stroke="none" points="112.25,-390 9.75,-390 9.75,-129 112.25,-129 112.25,-390"/>
<text xml:space="preserve" text-anchor="start" x="13.75" y="-377.45" font-family="Arial" font-size="9.00">Lib::Xbee::Core::Frame</text>
<text xml:space="preserve" text-anchor="start" x="49" y="-366.95" font-family="Arial" font-size="9.00">::Data</text>
<text xml:space="preserve" text-anchor="start" x="59.88" y="-352.45" font-family="Arial" font-size="9.00"> </text>
<text xml:space="preserve" text-anchor="start" x="25.69" y="-337.95" font-family="Arial" font-size="9.00">+</text>
<text xml:space="preserve" text-anchor="start" x="46.88" y="-337.95" font-family="Arial" font-size="9.00">Data()</text>
<text xml:space="preserve" text-anchor="start" x="25.69" y="-323.45" font-family="Arial" font-size="9.00">+</text>
<text xml:space="preserve" text-anchor="start" x="46.88" y="-323.45" font-family="Arial" font-size="9.00">~Data()</text>
<text xml:space="preserve" text-anchor="start" x="25.69" y="-308.95" font-family="Arial" font-size="9.00">+</text>
<text xml:space="preserve" text-anchor="start" x="46.88" y="-308.95" font-family="Arial" font-size="9.00">reset()</text>
<text xml:space="preserve" text-anchor="start" x="25.69" y="-294.45" font-family="Arial" font-size="9.00">+</text>
<text xml:space="preserve" text-anchor="start" x="46.88" y="-294.45" font-family="Arial" font-size="9.00">append()</text>
<text xml:space="preserve" text-anchor="start" x="25.69" y="-279.95" font-family="Arial" font-size="9.00">+</text>
<text xml:space="preserve" text-anchor="start" x="46.88" y="-279.95" font-family="Arial" font-size="9.00">assign()</text>
<text xml:space="preserve" text-anchor="start" x="25.69" y="-265.45" font-family="Arial" font-size="9.00">+</text>
<text xml:space="preserve" text-anchor="start" x="46.88" y="-265.45" font-family="Arial" font-size="9.00">append()</text>
<text xml:space="preserve" text-anchor="start" x="25.69" y="-250.95" font-family="Arial" font-size="9.00">+</text>
<text xml:space="preserve" text-anchor="start" x="46.88" y="-250.95" font-family="Arial" font-size="9.00">append()</text>
<text xml:space="preserve" text-anchor="start" x="25.69" y="-236.45" font-family="Arial" font-size="9.00">+</text>
<text xml:space="preserve" text-anchor="start" x="46.88" y="-236.45" font-family="Arial" font-size="9.00">append()</text>
<text xml:space="preserve" text-anchor="start" x="25.69" y="-221.95" font-family="Arial" font-size="9.00">+</text>
<text xml:space="preserve" text-anchor="start" x="46.88" y="-221.95" font-family="Arial" font-size="9.00">append()</text>
<text xml:space="preserve" text-anchor="start" x="25.69" y="-207.45" font-family="Arial" font-size="9.00">+</text>
<text xml:space="preserve" text-anchor="start" x="46.88" y="-207.45" font-family="Arial" font-size="9.00">append()</text>
<text xml:space="preserve" text-anchor="start" x="25.69" y="-192.95" font-family="Arial" font-size="9.00">+</text>
<text xml:space="preserve" text-anchor="start" x="46.88" y="-192.95" font-family="Arial" font-size="9.00">data()</text>
<text xml:space="preserve" text-anchor="start" x="25.69" y="-178.45" font-family="Arial" font-size="9.00">+</text>
<text xml:space="preserve" text-anchor="start" x="46.88" y="-178.45" font-family="Arial" font-size="9.00">empty()</text>
<text xml:space="preserve" text-anchor="start" x="25.69" y="-163.95" font-family="Arial" font-size="9.00">+</text>
<text xml:space="preserve" text-anchor="start" x="46.88" y="-163.95" font-family="Arial" font-size="9.00">size()</text>
<text xml:space="preserve" text-anchor="start" x="25.69" y="-149.45" font-family="Arial" font-size="9.00">+</text>
<text xml:space="preserve" text-anchor="start" x="46.88" y="-149.45" font-family="Arial" font-size="9.00">clear()</text>
<text xml:space="preserve" text-anchor="start" x="25.69" y="-134.95" font-family="Arial" font-size="9.00">+</text>
<text xml:space="preserve" text-anchor="start" x="46.88" y="-134.95" font-family="Arial" font-size="9.00">insert()</text>
<polygon fill="#666666" stroke="#666666" points="9.75,-363 9.75,-363 112.25,-363 112.25,-363 9.75,-363"/>
<polygon fill="#666666" stroke="#666666" points="9.75,-348.5 9.75,-348.5 112.25,-348.5 112.25,-348.5 9.75,-348.5"/>
<polygon fill="none" stroke="#666666" points="9.75,-129 9.75,-390 112.25,-390 112.25,-129 9.75,-129"/>
</a>
</g>
</g>
<!-- Node2&#45;&gt;Node1 -->
<g id="edge1_Node000001_Node000002" class="edge">
<title>Node2&#45;&gt;Node1</title>
<g id="a_edge1_Node000001_Node000002"><a xlink:title=" ">
<path fill="none" stroke="#63b8ff" d="M61,-129.06C61,-114.9 61,-101.19 61,-88.93"/>
<polygon fill="none" stroke="#63b8ff" points="61,-89.14 57,-83.14 61,-77.14 65,-83.14 61,-89.14"/>
</a>
</g>
<text xml:space="preserve" text-anchor="start" x="64" y="-99.45" font-family="Arial" font-size="9.00" fill="grey">#frameData</text>
</g>
<!-- Node3 -->
<g id="Node000003" class="node">
<title>Node3</title>
<g id="a_Node000003"><a xlink:title=" ">
<polygon fill="white" stroke="none" points="78.88,-490 43.12,-490 43.12,-442.5 78.88,-442.5 78.88,-490"/>
<text xml:space="preserve" text-anchor="start" x="47.12" y="-477.45" font-family="Arial" font-size="9.00">uint8_t</text>
<text xml:space="preserve" text-anchor="start" x="59.88" y="-462.95" font-family="Arial" font-size="9.00"> </text>
<text xml:space="preserve" text-anchor="start" x="59.88" y="-448.45" font-family="Arial" font-size="9.00"> </text>
<polygon fill="#bfbfbf" stroke="#bfbfbf" points="43.12,-473.5 43.12,-473.5 78.88,-473.5 78.88,-473.5 43.12,-473.5"/>
<polygon fill="#bfbfbf" stroke="#bfbfbf" points="43.12,-459 43.12,-459 78.88,-459 78.88,-459 43.12,-459"/>
<polygon fill="none" stroke="#bfbfbf" points="43.12,-442.5 43.12,-490 78.88,-490 78.88,-442.5 43.12,-442.5"/>
</a>
</g>
</g>
<!-- Node3&#45;&gt;Node2 -->
<g id="edge2_Node000002_Node000003" class="edge">
<title>Node3&#45;&gt;Node2</title>
<g id="a_edge2_Node000002_Node000003"><a xlink:title=" ">
<path fill="none" stroke="#63b8ff" d="M61,-442.56C61,-431.82 61,-418.02 61,-402.83"/>
<polygon fill="none" stroke="#63b8ff" points="61,-402.68 57,-396.68 61,-390.68 65,-396.68 61,-402.68"/>
</a>
</g>
<text xml:space="preserve" text-anchor="start" x="64" y="-412.95" font-family="Arial" font-size="9.00" fill="grey">+type</text>
</g>
</g>
</svg>
