<?xml version="1.0" encoding="UTF-8" standalone="no"?>
<!DOCTYPE svg PUBLIC "-//W3C//DTD SVG 1.1//EN"
 "http://www.w3.org/Graphics/SVG/1.1/DTD/svg11.dtd">
<!-- Generated by graphviz version 13.1.0 (20250701.0955)
 -->
<!-- Title: ModelXbee::SignalStrength Pages: 1 -->
<svg width="129pt" height="156pt"
 viewBox="0.00 0.00 129.00 156.00" xmlns="http://www.w3.org/2000/svg" xmlns:xlink="http://www.w3.org/1999/xlink">
<g id="graph0" class="graph" transform="scale(1 1) rotate(0) translate(4 151.5)">
<title>ModelXbee::SignalStrength</title>
<!-- Node1 -->
<g id="Node000001" class="node">
<title>Node1</title>
<g id="a_Node000001"><a xlink:title="SignalStrength class for XBee signal strength data.">
<polygon fill="#999999" stroke="none" points="120.5,-147.5 0,-147.5 0,0 120.5,0 120.5,-147.5"/>
<text xml:space="preserve" text-anchor="start" x="4" y="-134.95" font-family="Arial" font-size="9.00">ModelXbee::SignalStrength</text>
<text xml:space="preserve" text-anchor="start" x="59.12" y="-120.45" font-family="Arial" font-size="9.00"> </text>
<text xml:space="preserve" text-anchor="start" x="7.31" y="-105.95" font-family="Arial" font-size="9.00">+</text>
<text xml:space="preserve" text-anchor="start" x="19.88" y="-105.95" font-family="Arial" font-size="9.00">uint8_t getValue()</text>
<text xml:space="preserve" text-anchor="start" x="19.88" y="-95.45" font-family="Arial" font-size="9.00"> const</text>
<text xml:space="preserve" text-anchor="start" x="7.31" y="-80.95" font-family="Arial" font-size="9.00">+</text>
<text xml:space="preserve" text-anchor="start" x="19.88" y="-80.95" font-family="Arial" font-size="9.00">uint8_t getMin() const</text>
<text xml:space="preserve" text-anchor="start" x="7.31" y="-66.45" font-family="Arial" font-size="9.00">+</text>
<text xml:space="preserve" text-anchor="start" x="19.88" y="-66.45" font-family="Arial" font-size="9.00">uint8_t getMax() const</text>
<text xml:space="preserve" text-anchor="start" x="7.31" y="-51.95" font-family="Arial" font-size="9.00">+</text>
<text xml:space="preserve" text-anchor="start" x="19.88" y="-51.95" font-family="Arial" font-size="9.00">const std::vector&lt;</text>
<text xml:space="preserve" text-anchor="start" x="19.88" y="-41.45" font-family="Arial" font-size="9.00"> uint8_t &gt; &amp; getData</text>
<text xml:space="preserve" text-anchor="start" x="19.88" y="-30.95" font-family="Arial" font-size="9.00">() const</text>
<text xml:space="preserve" text-anchor="start" x="7.31" y="-16.45" font-family="Arial" font-size="9.00">+</text>
<text xml:space="preserve" text-anchor="start" x="19.88" y="-16.45" font-family="Arial" font-size="9.00">void tick(Listener</text>
<text xml:space="preserve" text-anchor="start" x="19.88" y="-5.95" font-family="Arial" font-size="9.00"> *listener)</text>
<polygon fill="#666666" stroke="#666666" points="0,-131 0,-131 120.5,-131 120.5,-131 0,-131"/>
<polygon fill="#666666" stroke="#666666" points="0,-116.5 0,-116.5 120.5,-116.5 120.5,-116.5 0,-116.5"/>
<polygon fill="none" stroke="#666666" points="0,0 0,-147.5 120.5,-147.5 120.5,0 0,0"/>
</a>
</g>
</g>
</g>
</svg>
