<?xml version="1.0" encoding="UTF-8" standalone="no"?>
<!DOCTYPE svg PUBLIC "-//W3C//DTD SVG 1.1//EN"
 "http://www.w3.org/Graphics/SVG/1.1/DTD/svg11.dtd">
<!-- Generated by graphviz version 13.1.0 (20250701.0955)
 -->
<!-- Title: ModelXbee::SignalStrength Pages: 1 -->
<svg width="129pt" height="114pt"
 viewBox="0.00 0.00 129.00 114.00" xmlns="http://www.w3.org/2000/svg" xmlns:xlink="http://www.w3.org/1999/xlink">
<g id="graph0" class="graph" transform="scale(1 1) rotate(0) translate(4 109.5)">
<title>ModelXbee::SignalStrength</title>
<!-- Node1 -->
<g id="Node000001" class="node">
<title>Node1</title>
<g id="a_Node000001"><a xlink:title="SignalStrength interface for XBee signal strength data.">
<polygon fill="#999999" stroke="none" points="120.5,-105.5 0,-105.5 0,0 120.5,0 120.5,-105.5"/>
<text xml:space="preserve" text-anchor="start" x="4" y="-92.95" font-family="Arial" font-size="9.00">ModelXbee::SignalStrength</text>
<text xml:space="preserve" text-anchor="start" x="59.12" y="-78.45" font-family="Arial" font-size="9.00"> </text>
<text xml:space="preserve" text-anchor="start" x="19.31" y="-63.95" font-family="Arial" font-size="9.00">+</text>
<text xml:space="preserve" text-anchor="start" x="43.88" y="-63.95" font-family="Arial" font-size="9.00">getValue()</text>
<text xml:space="preserve" text-anchor="start" x="19.31" y="-49.45" font-family="Arial" font-size="9.00">+</text>
<text xml:space="preserve" text-anchor="start" x="43.88" y="-49.45" font-family="Arial" font-size="9.00">getMin()</text>
<text xml:space="preserve" text-anchor="start" x="19.31" y="-34.95" font-family="Arial" font-size="9.00">+</text>
<text xml:space="preserve" text-anchor="start" x="43.88" y="-34.95" font-family="Arial" font-size="9.00">getMax()</text>
<text xml:space="preserve" text-anchor="start" x="19.31" y="-20.45" font-family="Arial" font-size="9.00">+</text>
<text xml:space="preserve" text-anchor="start" x="43.88" y="-20.45" font-family="Arial" font-size="9.00">getData()</text>
<text xml:space="preserve" text-anchor="start" x="19.31" y="-5.95" font-family="Arial" font-size="9.00">+</text>
<text xml:space="preserve" text-anchor="start" x="43.88" y="-5.95" font-family="Arial" font-size="9.00">tick()</text>
<polygon fill="#666666" stroke="#666666" points="0,-89 0,-89 120.5,-89 120.5,-89 0,-89"/>
<polygon fill="#666666" stroke="#666666" points="0,-74.5 0,-74.5 120.5,-74.5 120.5,-74.5 0,-74.5"/>
<polygon fill="none" stroke="#666666" points="0,0 0,-105.5 120.5,-105.5 120.5,0 0,0"/>
</a>
</g>
</g>
</g>
</svg>
