<?xml version="1.0" encoding="UTF-8" standalone="no"?>
<!DOCTYPE svg PUBLIC "-//W3C//DTD SVG 1.1//EN"
 "http://www.w3.org/Graphics/SVG/1.1/DTD/svg11.dtd">
<!-- Generated by graphviz version 13.1.0 (20250701.0955)
 -->
<!-- Title: Lib::Xbee::API::Service::ServiceBase Pages: 1 -->
<svg width="506pt" height="108pt"
 viewBox="0.00 0.00 506.00 108.00" xmlns="http://www.w3.org/2000/svg" xmlns:xlink="http://www.w3.org/1999/xlink">
<g id="graph0" class="graph" transform="scale(1 1) rotate(0) translate(4 104)">
<title>Lib::Xbee::API::Service::ServiceBase</title>
<!-- Node1 -->
<g id="Node000001" class="node">
<title>Node1</title>
<g id="a_Node000001"><a xlink:title="Base class for Xbee API services.">
<polygon fill="#999999" stroke="none" points="303.75,-100 193,-100 193,-68 303.75,-68 303.75,-100"/>
<text xml:space="preserve" text-anchor="start" x="197" y="-86.5" font-family="Helvetica,sans-Serif" font-size="10.00">Lib::Xbee::API::Service</text>
<text xml:space="preserve" text-anchor="start" x="217.62" y="-74.5" font-family="Helvetica,sans-Serif" font-size="10.00">::ServiceBase</text>
<polygon fill="none" stroke="#666666" points="193,-68 193,-100 303.75,-100 303.75,-68 193,-68"/>
</a>
</g>
</g>
<!-- Node2 -->
<g id="Node000002" class="node">
<title>Node2</title>
<g id="a_Node000002"><a xlink:href="../../dc/dcd/class_lib_1_1_xbee_1_1_a_p_i_1_1_service_1_1_channel_scanner.html" target="_top" xlink:title="Channel scanning service for XBee modules.">
<polygon fill="white" stroke="none" points="110.75,-32 0,-32 0,0 110.75,0 110.75,-32"/>
<text xml:space="preserve" text-anchor="start" x="4" y="-18.5" font-family="Helvetica,sans-Serif" font-size="10.00">Lib::Xbee::API::Service</text>
<text xml:space="preserve" text-anchor="start" x="16.38" y="-6.5" font-family="Helvetica,sans-Serif" font-size="10.00">::ChannelScanner</text>
<polygon fill="none" stroke="#666666" points="0,0 0,-32 110.75,-32 110.75,0 0,0"/>
</a>
</g>
</g>
<!-- Node1&#45;&gt;Node2 -->
<g id="edge1_Node000001_Node000002" class="edge">
<title>Node1&#45;&gt;Node2</title>
<g id="a_edge1_Node000001_Node000002"><a xlink:title=" ">
<path fill="none" stroke="#63b8ff" d="M193.85,-64.36C163.84,-54.09 127.09,-41.52 99,-31.92"/>
<polygon fill="none" stroke="#63b8ff" points="192.55,-67.61 203.15,-67.53 194.82,-60.99 192.55,-67.61"/>
</a>
</g>
</g>
<!-- Node3 -->
<g id="Node000003" class="node">
<title>Node3</title>
<g id="a_Node000003"><a xlink:href="../../db/df9/class_lib_1_1_xbee_1_1_a_p_i_1_1_service_1_1_network_discovery.html" target="_top" xlink:title="Service for discovering devices in the Xbee network.">
<polygon fill="white" stroke="none" points="239.75,-32 129,-32 129,0 239.75,0 239.75,-32"/>
<text xml:space="preserve" text-anchor="start" x="133" y="-18.5" font-family="Helvetica,sans-Serif" font-size="10.00">Lib::Xbee::API::Service</text>
<text xml:space="preserve" text-anchor="start" x="140.88" y="-6.5" font-family="Helvetica,sans-Serif" font-size="10.00">::NetworkDiscovery</text>
<polygon fill="none" stroke="#666666" points="129,0 129,-32 239.75,-32 239.75,0 129,0"/>
</a>
</g>
</g>
<!-- Node1&#45;&gt;Node3 -->
<g id="edge2_Node000001_Node000003" class="edge">
<title>Node1&#45;&gt;Node3</title>
<g id="a_edge2_Node000001_Node000003"><a xlink:title=" ">
<path fill="none" stroke="#63b8ff" d="M225.99,-59.91C216.98,-50.62 206.85,-40.18 198.84,-31.92"/>
<polygon fill="none" stroke="#63b8ff" points="223.32,-62.19 232.8,-66.94 228.35,-57.32 223.32,-62.19"/>
</a>
</g>
</g>
<!-- Node4 -->
<g id="Node000004" class="node">
<title>Node4</title>
<g id="a_Node000004"><a xlink:href="../../d9/d62/class_lib_1_1_xbee_1_1_a_p_i_1_1_service_1_1_parameters.html" target="_top" xlink:title="Service for managing DIGI XBEE module parameters.">
<polygon fill="white" stroke="none" points="368.75,-32 258,-32 258,0 368.75,0 368.75,-32"/>
<text xml:space="preserve" text-anchor="start" x="262" y="-18.5" font-family="Helvetica,sans-Serif" font-size="10.00">Lib::Xbee::API::Service</text>
<text xml:space="preserve" text-anchor="start" x="285.25" y="-6.5" font-family="Helvetica,sans-Serif" font-size="10.00">::Parameters</text>
<polygon fill="none" stroke="#666666" points="258,0 258,-32 368.75,-32 368.75,0 258,0"/>
</a>
</g>
</g>
<!-- Node1&#45;&gt;Node4 -->
<g id="edge3_Node000001_Node000004" class="edge">
<title>Node1&#45;&gt;Node4</title>
<g id="a_edge3_Node000001_Node000004"><a xlink:title=" ">
<path fill="none" stroke="#63b8ff" d="M271.11,-59.91C280.26,-50.62 290.55,-40.18 298.68,-31.92"/>
<polygon fill="none" stroke="#63b8ff" points="268.71,-57.36 264.19,-66.95 273.7,-62.28 268.71,-57.36"/>
</a>
</g>
</g>
<!-- Node5 -->
<g id="Node000005" class="node">
<title>Node5</title>
<g id="a_Node000005"><a xlink:href="../../dc/d2a/class_lib_1_1_xbee_1_1_a_p_i_1_1_service_1_1_spectrum_analyzer.html" target="_top" xlink:title="Spectrum Analyzer Service for Xbee API.">
<polygon fill="white" stroke="none" points="497.75,-32 387,-32 387,0 497.75,0 497.75,-32"/>
<text xml:space="preserve" text-anchor="start" x="391" y="-18.5" font-family="Helvetica,sans-Serif" font-size="10.00">Lib::Xbee::API::Service</text>
<text xml:space="preserve" text-anchor="start" x="399.25" y="-6.5" font-family="Helvetica,sans-Serif" font-size="10.00">::SpectrumAnalyzer</text>
<polygon fill="none" stroke="#666666" points="387,0 387,-32 497.75,-32 497.75,0 387,0"/>
</a>
</g>
</g>
<!-- Node1&#45;&gt;Node5 -->
<g id="edge4_Node000001_Node000005" class="edge">
<title>Node1&#45;&gt;Node5</title>
<g id="a_edge4_Node000001_Node000005"><a xlink:title=" ">
<path fill="none" stroke="#63b8ff" d="M303.18,-64.36C333.35,-54.09 370.29,-41.52 398.53,-31.92"/>
<polygon fill="none" stroke="#63b8ff" points="302.17,-61 293.83,-67.54 304.42,-67.63 302.17,-61"/>
</a>
</g>
</g>
</g>
</svg>
