<?xml version="1.0" encoding="UTF-8" standalone="no"?>
<!DOCTYPE svg PUBLIC "-//W3C//DTD SVG 1.1//EN"
 "http://www.w3.org/Graphics/SVG/1.1/DTD/svg11.dtd">
<!-- Generated by graphviz version 13.1.0 (20250701.0955)
 -->
<!-- Title: Driver.hpp Pages: 1 -->
<svg width="100pt" height="196pt"
 viewBox="0.00 0.00 100.00 196.00" xmlns="http://www.w3.org/2000/svg" xmlns:xlink="http://www.w3.org/1999/xlink">
<g id="graph0" class="graph" transform="scale(1 1) rotate(0) translate(4 192)">
<title>Driver.hpp</title>
<!-- Node1 -->
<g id="Node000001" class="node">
<title>Node1</title>
<g id="a_Node000001"><a xlink:title="Touch screen driver for XPT2046 controller.">
<polygon fill="#999999" stroke="#666666" points="76.38,-188 15.38,-188 15.38,-168 76.38,-168 76.38,-188"/>
<text xml:space="preserve" text-anchor="middle" x="45.88" y="-174.5" font-family="Helvetica,sans-Serif" font-size="10.00">Driver.hpp</text>
</a>
</g>
</g>
<!-- Node2 -->
<g id="Node000002" class="node">
<title>Node2</title>
<g id="a_Node000002"><a xlink:href="../../df/dc8/a00122.html" target="_top" xlink:title="Declares the BSP::TouchScreen class for STM32 touch screen controller integration.">
<polygon fill="white" stroke="#666666" points="91.75,-132 0,-132 0,-112 91.75,-112 91.75,-132"/>
<text xml:space="preserve" text-anchor="middle" x="45.88" y="-118.5" font-family="Helvetica,sans-Serif" font-size="10.00">TouchScreen.hpp</text>
</a>
</g>
</g>
<!-- Node1&#45;&gt;Node2 -->
<g id="edge1_Node000001_Node000002" class="edge">
<title>Node1&#45;&gt;Node2</title>
<g id="a_edge1_Node000001_Node000002"><a xlink:title=" ">
<path fill="none" stroke="#63b8ff" d="M45.88,-156.13C45.88,-147.9 45.88,-138.85 45.88,-132.3"/>
<polygon fill="#63b8ff" stroke="#63b8ff" points="42.38,-156.08 45.88,-166.08 49.38,-156.08 42.38,-156.08"/>
</a>
</g>
</g>
<!-- Node3 -->
<g id="Node000003" class="node">
<title>Node3</title>
<g id="a_Node000003"><a xlink:href="../../d1/d88/a00128.html" target="_top" xlink:title="Board Support Package namespace with singleton instances for hardware abstraction.">
<polygon fill="white" stroke="#666666" points="72.62,-76 19.12,-76 19.12,-56 72.62,-56 72.62,-76"/>
<text xml:space="preserve" text-anchor="middle" x="45.88" y="-62.5" font-family="Helvetica,sans-Serif" font-size="10.00">BSP.hpp</text>
</a>
</g>
</g>
<!-- Node2&#45;&gt;Node3 -->
<g id="edge2_Node000002_Node000003" class="edge">
<title>Node2&#45;&gt;Node3</title>
<g id="a_edge2_Node000002_Node000003"><a xlink:title=" ">
<path fill="none" stroke="#63b8ff" d="M45.88,-100.13C45.88,-91.9 45.88,-82.85 45.88,-76.3"/>
<polygon fill="#63b8ff" stroke="#63b8ff" points="42.38,-100.08 45.88,-110.08 49.38,-100.08 42.38,-100.08"/>
</a>
</g>
</g>
<!-- Node4 -->
<g id="Node000004" class="node">
<title>Node4</title>
<g id="a_Node000004"><a xlink:href="../../d7/d25/a00182.html" target="_top" xlink:title="Declares the ModelBase class for TouchGFX UI model aggregation.">
<polygon fill="white" stroke="#666666" points="87.62,-20 4.12,-20 4.12,0 87.62,0 87.62,-20"/>
<text xml:space="preserve" text-anchor="middle" x="45.88" y="-6.5" font-family="Helvetica,sans-Serif" font-size="10.00">ModelBase.hpp</text>
</a>
</g>
</g>
<!-- Node3&#45;&gt;Node4 -->
<g id="edge3_Node000003_Node000004" class="edge">
<title>Node3&#45;&gt;Node4</title>
<g id="a_edge3_Node000003_Node000004"><a xlink:title=" ">
<path fill="none" stroke="#63b8ff" d="M45.88,-44.13C45.88,-35.9 45.88,-26.85 45.88,-20.3"/>
<polygon fill="#63b8ff" stroke="#63b8ff" points="42.38,-44.08 45.88,-54.08 49.38,-44.08 42.38,-44.08"/>
</a>
</g>
</g>
</g>
</svg>
