<?xml version="1.0" encoding="UTF-8" standalone="no"?>
<!DOCTYPE svg PUBLIC "-//W3C//DTD SVG 1.1//EN"
 "http://www.w3.org/Graphics/SVG/1.1/DTD/svg11.dtd">
<!-- Generated by graphviz version 13.1.0 (20250701.0955)
 -->
<!-- Title: Lib::Digi::Core::ApiFrameBuffer::clear Pages: 1 -->
<svg width="550pt" height="28pt"
 viewBox="0.00 0.00 550.00 28.00" xmlns="http://www.w3.org/2000/svg" xmlns:xlink="http://www.w3.org/1999/xlink">
<g id="graph0" class="graph" transform="scale(1 1) rotate(0) translate(4 24)">
<title>Lib::Digi::Core::ApiFrameBuffer::clear</title>
<!-- Node1 -->
<g id="Node000001" class="node">
<title>Node1</title>
<g id="a_Node000001"><a xlink:title="Clear the buffer.">
<polygon fill="#999999" stroke="#666666" points="542.25,-20 362.75,-20 362.75,0 542.25,0 542.25,-20"/>
<text xml:space="preserve" text-anchor="middle" x="452.5" y="-6.5" font-family="Helvetica,sans-Serif" font-size="10.00">Lib::Digi::Core::ApiFrameBuffer::clear</text>
</a>
</g>
</g>
<!-- Node2 -->
<g id="Node000002" class="node">
<title>Node2</title>
<g id="a_Node000002"><a xlink:href="../../d0/dad/class_lib_1_1_digi_1_1_core_1_1_protocol.html#a2b938e0f02d225d3118e14142774b256" target="_top" xlink:title="Builds a Digi API frame from frame data.">
<polygon fill="white" stroke="#666666" points="326.75,-20 179.5,-20 179.5,0 326.75,0 326.75,-20"/>
<text xml:space="preserve" text-anchor="middle" x="253.12" y="-6.5" font-family="Helvetica,sans-Serif" font-size="10.00">Lib::Digi::Core::Protocol::build</text>
</a>
</g>
</g>
<!-- Node1&#45;&gt;Node2 -->
<g id="edge1_Node000001_Node000002" class="edge">
<title>Node1&#45;&gt;Node2</title>
<g id="a_edge1_Node000001_Node000002"><a xlink:title=" ">
<path fill="none" stroke="#63b8ff" d="M351.02,-10C343,-10 335,-10 327.22,-10"/>
<polygon fill="#63b8ff" stroke="#63b8ff" points="350.83,-13.5 360.83,-10 350.83,-6.5 350.83,-13.5"/>
</a>
</g>
</g>
<!-- Node3 -->
<g id="Node000003" class="node">
<title>Node3</title>
<g id="a_Node000003"><a xlink:href="../../df/deb/class_lib_1_1_digi_1_1_core_1_1_module.html#af905ae6149d751780bd4ad5ed3888237" target="_top" xlink:title="Sends a message using the specified query and timeout.">
<polygon fill="white" stroke="#666666" points="143.5,-20 0,-20 0,0 143.5,0 143.5,-20"/>
<text xml:space="preserve" text-anchor="middle" x="71.75" y="-6.5" font-family="Helvetica,sans-Serif" font-size="10.00">Lib::Digi::Core::Module::send</text>
</a>
</g>
</g>
<!-- Node2&#45;&gt;Node3 -->
<g id="edge2_Node000002_Node000003" class="edge">
<title>Node2&#45;&gt;Node3</title>
<g id="a_edge2_Node000002_Node000003"><a xlink:title=" ">
<path fill="none" stroke="#63b8ff" d="M167.89,-10C159.87,-10 151.78,-10 143.9,-10"/>
<polygon fill="#63b8ff" stroke="#63b8ff" points="167.65,-13.5 177.65,-10 167.65,-6.5 167.65,-13.5"/>
</a>
</g>
</g>
</g>
</svg>
