<?xml version="1.0" encoding="UTF-8" standalone="no"?>
<!DOCTYPE svg PUBLIC "-//W3C//DTD SVG 1.1//EN"
 "http://www.w3.org/Graphics/SVG/1.1/DTD/svg11.dtd">
<!-- Generated by graphviz version 13.1.0 (20250701.0955)
 -->
<!-- Title: Lib::Digi::Core::ApiFrameBuffer::getData Pages: 1 -->
<svg width="847pt" height="142pt"
 viewBox="0.00 0.00 847.00 142.00" xmlns="http://www.w3.org/2000/svg" xmlns:xlink="http://www.w3.org/1999/xlink">
<g id="graph0" class="graph" transform="scale(1 1) rotate(0) translate(4 138)">
<title>Lib::Digi::Core::ApiFrameBuffer::getData</title>
<!-- Node1 -->
<g id="Node000001" class="node">
<title>Node1</title>
<g id="a_Node000001"><a xlink:title="Get pointer to the data array.">
<polygon fill="#999999" stroke="#666666" points="838.75,-77 645.75,-77 645.75,-57 838.75,-57 838.75,-77"/>
<text xml:space="preserve" text-anchor="middle" x="742.25" y="-63.5" font-family="Helvetica,sans-Serif" font-size="10.00">Lib::Digi::Core::ApiFrameBuffer::getData</text>
</a>
</g>
</g>
<!-- Node2 -->
<g id="Node000002" class="node">
<title>Node2</title>
<g id="a_Node000002"><a xlink:href="../../d6/dee/class_lib_1_1_digi_1_1_core_1_1_checksum.html#ab46260cf543364ee4b5f3cc7c4f89e4d" target="_top" xlink:title="Constructor of Checksum class.">
<polygon fill="white" stroke="#666666" points="609.75,-134 424.25,-134 424.25,-114 609.75,-114 609.75,-134"/>
<text xml:space="preserve" text-anchor="middle" x="517" y="-120.5" font-family="Helvetica,sans-Serif" font-size="10.00">Lib::Digi::Core::Checksum::Checksum</text>
</a>
</g>
</g>
<!-- Node1&#45;&gt;Node2 -->
<g id="edge1_Node000001_Node000002" class="edge">
<title>Node1&#45;&gt;Node2</title>
<g id="a_edge1_Node000001_Node000002"><a xlink:title=" ">
<path fill="none" stroke="#63b8ff" d="M696.89,-80.74C671.51,-88.37 638.99,-97.76 609.75,-105 597.59,-108.01 584.45,-110.93 572.01,-113.54"/>
<polygon fill="#63b8ff" stroke="#63b8ff" points="697.65,-84.17 706.21,-77.92 695.63,-77.47 697.65,-84.17"/>
</a>
</g>
</g>
<!-- Node3 -->
<g id="Node000003" class="node">
<title>Node3</title>
<g id="a_Node000003"><a xlink:href="../../d0/dad/class_lib_1_1_digi_1_1_core_1_1_protocol.html#a3e4e1a9ec8c49987cdd4ca168ad1885c" target="_top" xlink:title="Checks whether the Digi API frame is valid (non&#45;escaped message).">
<polygon fill="white" stroke="#666666" points="594.75,-96 439.25,-96 439.25,-76 594.75,-76 594.75,-96"/>
<text xml:space="preserve" text-anchor="middle" x="517" y="-82.5" font-family="Helvetica,sans-Serif" font-size="10.00">Lib::Digi::Core::Protocol::isValid</text>
</a>
</g>
</g>
<!-- Node1&#45;&gt;Node3 -->
<g id="edge2_Node000001_Node000003" class="edge">
<title>Node1&#45;&gt;Node3</title>
<g id="a_edge2_Node000001_Node000003"><a xlink:title=" ">
<path fill="none" stroke="#63b8ff" d="M633.81,-76.14C620.73,-77.26 607.56,-78.38 595.04,-79.44"/>
<polygon fill="#63b8ff" stroke="#63b8ff" points="634.1,-79.63 643.77,-75.3 633.51,-72.66 634.1,-79.63"/>
</a>
</g>
</g>
<!-- Node4 -->
<g id="Node000004" class="node">
<title>Node4</title>
<g id="a_Node000004"><a xlink:href="../../d0/dad/class_lib_1_1_digi_1_1_core_1_1_protocol.html#a6bd092270e035cdbd6bc580d43f7490a" target="_top" xlink:title="Parses the incoming Digi API frame.">
<polygon fill="white" stroke="#666666" points="388.25,-77 237.25,-77 237.25,-57 388.25,-57 388.25,-77"/>
<text xml:space="preserve" text-anchor="middle" x="312.75" y="-63.5" font-family="Helvetica,sans-Serif" font-size="10.00">Lib::Digi::Core::Protocol::parse</text>
</a>
</g>
</g>
<!-- Node1&#45;&gt;Node4 -->
<g id="edge5_Node000001_Node000004" class="edge">
<title>Node1&#45;&gt;Node4</title>
<g id="a_edge5_Node000001_Node000004"><a xlink:title=" ">
<path fill="none" stroke="#63b8ff" d="M634.2,-67C557.61,-67 456.45,-67 388.45,-67"/>
<polygon fill="#63b8ff" stroke="#63b8ff" points="633.8,-70.5 643.8,-67 633.8,-63.5 633.8,-70.5"/>
</a>
</g>
</g>
<!-- Node6 -->
<g id="Node000006" class="node">
<title>Node6</title>
<g id="a_Node000006"><a xlink:href="../../df/d88/class_lib_1_1_digi_1_1_core_1_1_com_driver.html#ac8d80be0df262f35365e8961fbaa0169" target="_top" xlink:title="Sends a DIGI API1 frame.">
<polygon fill="white" stroke="#666666" points="596.62,-20 437.38,-20 437.38,0 596.62,0 596.62,-20"/>
<text xml:space="preserve" text-anchor="middle" x="517" y="-6.5" font-family="Helvetica,sans-Serif" font-size="10.00">Lib::Digi::Core::ComDriver::send</text>
</a>
</g>
</g>
<!-- Node1&#45;&gt;Node6 -->
<g id="edge6_Node000001_Node000006" class="edge">
<title>Node1&#45;&gt;Node6</title>
<g id="a_edge6_Node000001_Node000006"><a xlink:title=" ">
<path fill="none" stroke="#63b8ff" d="M689.26,-53.73C649.6,-43.6 595.73,-29.85 559.07,-20.48"/>
<polygon fill="#63b8ff" stroke="#63b8ff" points="688.28,-57.09 698.84,-56.17 690.01,-50.31 688.28,-57.09"/>
</a>
</g>
</g>
<!-- Node3&#45;&gt;Node4 -->
<g id="edge3_Node000003_Node000004" class="edge">
<title>Node3&#45;&gt;Node4</title>
<g id="a_edge3_Node000003_Node000004"><a xlink:title=" ">
<path fill="none" stroke="#63b8ff" d="M427.61,-77.7C414.59,-76.47 401.28,-75.22 388.57,-74.03"/>
<polygon fill="#63b8ff" stroke="#63b8ff" points="427.17,-81.17 437.45,-78.62 427.83,-74.2 427.17,-81.17"/>
</a>
</g>
</g>
<!-- Node5 -->
<g id="Node000005" class="node">
<title>Node5</title>
<g id="a_Node000005"><a xlink:href="../../d0/dad/class_lib_1_1_digi_1_1_core_1_1_protocol.html#aa6002058289e36a1a97ac8355b4a2ca9" target="_top" xlink:title="Processes a received Digi API frame and dispatches events.">
<polygon fill="white" stroke="#666666" points="201.25,-77 0,-77 0,-57 201.25,-57 201.25,-77"/>
<text xml:space="preserve" text-anchor="middle" x="100.62" y="-63.5" font-family="Helvetica,sans-Serif" font-size="10.00">Lib::Digi::Core::Protocol::processMessage</text>
</a>
</g>
</g>
<!-- Node4&#45;&gt;Node5 -->
<g id="edge4_Node000004_Node000005" class="edge">
<title>Node4&#45;&gt;Node5</title>
<g id="a_edge4_Node000004_Node000005"><a xlink:title=" ">
<path fill="none" stroke="#63b8ff" d="M225.38,-67C217.51,-67 209.5,-67 201.53,-67"/>
<polygon fill="#63b8ff" stroke="#63b8ff" points="225.27,-70.5 235.27,-67 225.27,-63.5 225.27,-70.5"/>
</a>
</g>
</g>
<!-- Node7 -->
<g id="Node000007" class="node">
<title>Node7</title>
<g id="a_Node000007"><a xlink:href="../../df/deb/class_lib_1_1_digi_1_1_core_1_1_module.html#af905ae6149d751780bd4ad5ed3888237" target="_top" xlink:title="Sends a message using the specified query and timeout.">
<polygon fill="white" stroke="#666666" points="384.5,-20 241,-20 241,0 384.5,0 384.5,-20"/>
<text xml:space="preserve" text-anchor="middle" x="312.75" y="-6.5" font-family="Helvetica,sans-Serif" font-size="10.00">Lib::Digi::Core::Module::send</text>
</a>
</g>
</g>
<!-- Node6&#45;&gt;Node7 -->
<g id="edge7_Node000006_Node000007" class="edge">
<title>Node6&#45;&gt;Node7</title>
<g id="a_edge7_Node000006_Node000007"><a xlink:title=" ">
<path fill="none" stroke="#63b8ff" d="M425.56,-10C411.92,-10 398.01,-10 384.86,-10"/>
<polygon fill="#63b8ff" stroke="#63b8ff" points="425.42,-13.5 435.42,-10 425.42,-6.5 425.42,-13.5"/>
</a>
</g>
</g>
</g>
</svg>
