<?xml version="1.0" encoding="UTF-8" standalone="no"?>
<!DOCTYPE svg PUBLIC "-//W3C//DTD SVG 1.1//EN"
 "http://www.w3.org/Graphics/SVG/1.1/DTD/svg11.dtd">
<!-- Generated by graphviz version 13.1.0 (20250701.0955)
 -->
<!-- Title: Lib::BSP::DigitalPeripheral::MapField Pages: 1 -->
<svg width="125pt" height="123pt"
 viewBox="0.00 0.00 125.00 123.00" xmlns="http://www.w3.org/2000/svg" xmlns:xlink="http://www.w3.org/1999/xlink">
<g id="graph0" class="graph" transform="scale(1 1) rotate(0) translate(4 118.5)">
<title>Lib::BSP::DigitalPeripheral::MapField</title>
<!-- Node1 -->
<g id="Node000001" class="node">
<title>Node1</title>
<g id="a_Node000001"><a xlink:title="Compact mapping of a digital peripheral port and its bitmask.">
<polygon fill="#999999" stroke="none" points="116.75,-29 0,-29 0,0 116.75,0 116.75,-29"/>
<text xml:space="preserve" text-anchor="start" x="4" y="-16.45" font-family="Arial" font-size="9.00">Lib::BSP::DigitalPeripheral</text>
<text xml:space="preserve" text-anchor="start" x="37" y="-5.95" font-family="Arial" font-size="9.00">::MapField</text>
<polygon fill="none" stroke="#666666" points="0,0 0,-29 116.75,-29 116.75,0 0,0"/>
</a>
</g>
</g>
<!-- Node2 -->
<g id="Node000002" class="node">
<title>Node2</title>
<g id="a_Node000002"><a xlink:title=" ">
<polygon fill="white" stroke="none" points="76.25,-114.5 40.5,-114.5 40.5,-96 76.25,-96 76.25,-114.5"/>
<text xml:space="preserve" text-anchor="start" x="44.5" y="-101.95" font-family="Arial" font-size="9.00">uint8_t</text>
<polygon fill="none" stroke="#bfbfbf" points="40.5,-96 40.5,-114.5 76.25,-114.5 76.25,-96 40.5,-96"/>
</a>
</g>
</g>
<!-- Node2&#45;&gt;Node1 -->
<g id="edge1_Node000001_Node000002" class="edge">
<title>Node2&#45;&gt;Node1</title>
<g id="a_edge1_Node000001_Node000002"><a xlink:title=" ">
<path fill="none" stroke="#63b8ff" d="M58.38,-96.06C58.38,-83.82 58.38,-60.21 58.38,-41.7"/>
<polygon fill="none" stroke="#63b8ff" points="58.38,-41.71 54.38,-35.71 58.38,-29.71 62.38,-35.71 58.38,-41.71"/>
</a>
</g>
<text xml:space="preserve" text-anchor="start" x="61.38" y="-66.45" font-family="Arial" font-size="9.00" fill="grey">+mask</text>
<text xml:space="preserve" text-anchor="start" x="61.38" y="-51.95" font-family="Arial" font-size="9.00" fill="grey">+port</text>
</g>
</g>
</svg>
