<?xml version="1.0" encoding="UTF-8" standalone="no"?>
<!DOCTYPE svg PUBLIC "-//W3C//DTD SVG 1.1//EN"
 "http://www.w3.org/Graphics/SVG/1.1/DTD/svg11.dtd">
<!-- Generated by graphviz version 12.2.1 (20241206.2353)
 -->
<!-- Title: Keyboard.hpp Pages: 1 -->
<svg width="158pt" height="84pt"
 viewBox="0.00 0.00 158.25 84.00" xmlns="http://www.w3.org/2000/svg" xmlns:xlink="http://www.w3.org/1999/xlink">
<g id="graph0" class="graph" transform="scale(1 1) rotate(0) translate(4 80)">
<title>Keyboard.hpp</title>
<!-- Node1 -->
<g id="Node000001" class="node">
<title>Node1</title>
<g id="a_Node000001"><a xlink:title="This file contains the declaration of the Keyboard class for handling keyboard input and button event...">
<polygon fill="#999999" stroke="#666666" points="120.62,-76 44.62,-76 44.62,-56 120.62,-56 120.62,-76"/>
<text text-anchor="middle" x="82.62" y="-62.5" font-family="Helvetica,sans-Serif" font-size="10.00">Keyboard.hpp</text>
</a>
</g>
</g>
<!-- Node2 -->
<g id="Node000002" class="node">
<title>Node2</title>
<g id="a_Node000002"><a xlink:title=" ">
<polygon fill="#e0e0e0" stroke="#999999" points="81.25,-20 0,-20 0,0 81.25,0 81.25,-20"/>
<text text-anchor="middle" x="40.62" y="-6.5" font-family="Helvetica,sans-Serif" font-size="10.00">FreeRTOS.hpp</text>
</a>
</g>
</g>
<!-- Node1&#45;&gt;Node2 -->
<g id="edge1_Node000001_Node000002" class="edge">
<title>Node1&#45;&gt;Node2</title>
<g id="a_edge1_Node000001_Node000002"><a xlink:title=" ">
<path fill="none" stroke="#63b8ff" d="M75.31,-55.59C69.65,-48.32 61.64,-38.02 54.74,-29.15"/>
<polygon fill="#63b8ff" stroke="#63b8ff" points="57.69,-27.24 48.79,-21.49 52.16,-31.54 57.69,-27.24"/>
</a>
</g>
</g>
<!-- Node3 -->
<g id="Node000003" class="node">
<title>Node3</title>
<g id="a_Node000003"><a xlink:title=" ">
<polygon fill="#e0e0e0" stroke="#999999" points="150.25,-20 99,-20 99,0 150.25,0 150.25,-20"/>
<text text-anchor="middle" x="124.62" y="-6.5" font-family="Helvetica,sans-Serif" font-size="10.00">memory</text>
</a>
</g>
</g>
<!-- Node1&#45;&gt;Node3 -->
<g id="edge2_Node000001_Node000003" class="edge">
<title>Node1&#45;&gt;Node3</title>
<g id="a_edge2_Node000001_Node000003"><a xlink:title=" ">
<path fill="none" stroke="#63b8ff" d="M89.94,-55.59C95.6,-48.32 103.61,-38.02 110.51,-29.15"/>
<polygon fill="#63b8ff" stroke="#63b8ff" points="113.09,-31.54 116.46,-21.49 107.56,-27.24 113.09,-31.54"/>
</a>
</g>
</g>
</g>
</svg>
