<?xml version="1.0" encoding="UTF-8" standalone="no"?>
<!DOCTYPE svg PUBLIC "-//W3C//DTD SVG 1.1//EN"
 "http://www.w3.org/Graphics/SVG/1.1/DTD/svg11.dtd">
<!-- Generated by graphviz version 13.1.0 (20250701.0955)
 -->
<!-- Title: Lib::Xbee::Core::LocalAtCommand Pages: 1 -->
<svg width="229pt" height="108pt"
 viewBox="0.00 0.00 229.00 108.00" xmlns="http://www.w3.org/2000/svg" xmlns:xlink="http://www.w3.org/1999/xlink">
<g id="graph0" class="graph" transform="scale(1 1) rotate(0) translate(4 104)">
<title>Lib::Xbee::Core::LocalAtCommand</title>
<!-- Node1 -->
<g id="Node000001" class="node">
<title>Node1</title>
<g id="a_Node000001"><a xlink:title="Local AT command transaction manager for XBee modules.">
<polygon fill="#999999" stroke="none" points="136.5,-29 29.5,-29 29.5,0 136.5,0 136.5,-29"/>
<text xml:space="preserve" text-anchor="start" x="33.5" y="-16.45" font-family="Arial" font-size="9.00">Lib::Xbee::Core::LocalAt</text>
<text xml:space="preserve" text-anchor="start" x="61.62" y="-5.95" font-family="Arial" font-size="9.00">Command</text>
<polygon fill="none" stroke="#666666" points="29.5,0 29.5,-29 136.5,-29 136.5,0 29.5,0"/>
</a>
</g>
</g>
<!-- Node2 -->
<g id="Node000002" class="node">
<title>Node2</title>
<g id="a_Node000002"><a xlink:title=" ">
<polygon fill="white" stroke="none" points="32,-100 0,-100 0,-81.5 32,-81.5 32,-100"/>
<text xml:space="preserve" text-anchor="start" x="4" y="-87.45" font-family="Arial" font-size="9.00">size_t</text>
<polygon fill="none" stroke="#bfbfbf" points="0,-81.5 0,-100 32,-100 32,-81.5 0,-81.5"/>
</a>
</g>
</g>
<!-- Node2&#45;&gt;Node1 -->
<g id="edge1_Node000001_Node000002" class="edge">
<title>Node2&#45;&gt;Node1</title>
<g id="a_edge1_Node000001_Node000002"><a xlink:title=" ">
<path fill="none" stroke="#63b8ff" d="M13.87,-81.78C11.91,-72.61 10.22,-57.47 17,-47 19.75,-42.74 23.25,-39.05 27.2,-35.85"/>
<polygon fill="none" stroke="#63b8ff" points="27.01,-35.98 29.8,-29.33 37.01,-29.35 34.22,-36 27.01,-35.98"/>
</a>
</g>
<text xml:space="preserve" text-anchor="start" x="20" y="-51.95" font-family="Arial" font-size="9.00" fill="grey">+MAX_RESPONSE_SIZE</text>
</g>
<!-- Node3 -->
<g id="Node000003" class="node">
<title>Node3</title>
<g id="a_Node000003"><a xlink:title=" ">
<polygon fill="white" stroke="none" points="170.5,-100 129.5,-100 129.5,-81.5 170.5,-81.5 170.5,-100"/>
<text xml:space="preserve" text-anchor="start" x="133.5" y="-87.45" font-family="Arial" font-size="9.00">uint32_t</text>
<polygon fill="none" stroke="#bfbfbf" points="129.5,-81.5 129.5,-100 170.5,-100 170.5,-81.5 129.5,-81.5"/>
</a>
</g>
</g>
<!-- Node3&#45;&gt;Node1 -->
<g id="edge2_Node000001_Node000003" class="edge">
<title>Node3&#45;&gt;Node1</title>
<g id="a_edge2_Node000001_Node000003"><a xlink:title=" ">
<path fill="none" stroke="#63b8ff" d="M147.26,-81.81C143.81,-72.67 137.22,-57.56 128,-47 124.8,-43.34 121.09,-39.88 117.2,-36.7"/>
<polygon fill="none" stroke="#63b8ff" points="117.09,-36.61 109.88,-36.27 107.43,-29.49 114.63,-29.83 117.09,-36.61"/>
</a>
</g>
<text xml:space="preserve" text-anchor="start" x="141.95" y="-51.95" font-family="Arial" font-size="9.00" fill="grey">+SEND_TIMEOUT</text>
</g>
</g>
</svg>
