<?xml version="1.0" encoding="UTF-8" standalone="no"?>
<!DOCTYPE svg PUBLIC "-//W3C//DTD SVG 1.1//EN"
 "http://www.w3.org/Graphics/SVG/1.1/DTD/svg11.dtd">
<!-- Generated by graphviz version 13.1.0 (20250701.0955)
 -->
<!-- Title: Helper.hpp Pages: 1 -->
<svg width="378pt" height="140pt"
 viewBox="0.00 0.00 378.00 140.00" xmlns="http://www.w3.org/2000/svg" xmlns:xlink="http://www.w3.org/1999/xlink">
<g id="graph0" class="graph" transform="scale(1 1) rotate(0) translate(4 136)">
<title>Helper.hpp</title>
<!-- Node1 -->
<g id="Node000001" class="node">
<title>Node1</title>
<g id="a_Node000001"><a xlink:title="Helper utilities for Digi Core Frame operations.">
<polygon fill="#999999" stroke="#666666" points="291.75,-132 228.5,-132 228.5,-112 291.75,-112 291.75,-132"/>
<text xml:space="preserve" text-anchor="middle" x="260.12" y="-118.5" font-family="Helvetica,sans-Serif" font-size="10.00">Helper.hpp</text>
</a>
</g>
</g>
<!-- Node2 -->
<g id="Node000002" class="node">
<title>Node2</title>
<g id="a_Node000002"><a xlink:href="../../d4/dfa/_swap_bytes_8hpp.html" target="_top" xlink:title="Provides utility functions for byte swapping.">
<polygon fill="white" stroke="#666666" points="207.25,-76 75,-76 75,-56 207.25,-56 207.25,-76"/>
<text xml:space="preserve" text-anchor="middle" x="141.12" y="-62.5" font-family="Helvetica,sans-Serif" font-size="10.00">Lib/Helper/SwapBytes.hpp</text>
</a>
</g>
</g>
<!-- Node1&#45;&gt;Node2 -->
<g id="edge1_Node000001_Node000002" class="edge">
<title>Node1&#45;&gt;Node2</title>
<g id="a_edge1_Node000001_Node000002"><a xlink:title=" ">
<path fill="none" stroke="#63b8ff" d="M239.4,-111.59C220.91,-103.21 193.58,-90.8 172.43,-81.21"/>
<polygon fill="#63b8ff" stroke="#63b8ff" points="173.95,-78.05 163.39,-77.1 171.05,-84.42 173.95,-78.05"/>
</a>
</g>
</g>
<!-- Node5 -->
<g id="Node000005" class="node">
<title>Node5</title>
<g id="a_Node000005"><a xlink:title=" ">
<polygon fill="#e0e0e0" stroke="#999999" points="257.75,-20 212.5,-20 212.5,0 257.75,0 257.75,-20"/>
<text xml:space="preserve" text-anchor="middle" x="235.12" y="-6.5" font-family="Helvetica,sans-Serif" font-size="10.00">cstdint</text>
</a>
</g>
</g>
<!-- Node1&#45;&gt;Node5 -->
<g id="edge6_Node000001_Node000005" class="edge">
<title>Node1&#45;&gt;Node5</title>
<g id="a_edge6_Node000001_Node000005"><a xlink:title=" ">
<path fill="none" stroke="#63b8ff" d="M257.99,-111.62C253.97,-93.92 245.18,-55.24 239.74,-31.32"/>
<polygon fill="#63b8ff" stroke="#63b8ff" points="243.22,-30.81 237.59,-21.83 236.39,-32.36 243.22,-30.81"/>
</a>
</g>
</g>
<!-- Node7 -->
<g id="Node000007" class="node">
<title>Node7</title>
<g id="a_Node000007"><a xlink:title=" ">
<polygon fill="#e0e0e0" stroke="#999999" points="308.75,-76 263.5,-76 263.5,-56 308.75,-56 308.75,-76"/>
<text xml:space="preserve" text-anchor="middle" x="286.12" y="-62.5" font-family="Helvetica,sans-Serif" font-size="10.00">cstring</text>
</a>
</g>
</g>
<!-- Node1&#45;&gt;Node7 -->
<g id="edge7_Node000001_Node000007" class="edge">
<title>Node1&#45;&gt;Node7</title>
<g id="a_edge7_Node000001_Node000007"><a xlink:title=" ">
<path fill="none" stroke="#63b8ff" d="M264.65,-111.59C267.97,-104.7 272.59,-95.1 276.7,-86.57"/>
<polygon fill="#63b8ff" stroke="#63b8ff" points="279.81,-88.19 280.99,-77.66 273.5,-85.15 279.81,-88.19"/>
</a>
</g>
</g>
<!-- Node8 -->
<g id="Node000008" class="node">
<title>Node8</title>
<g id="a_Node000008"><a xlink:title=" ">
<polygon fill="#e0e0e0" stroke="#999999" points="369.62,-76 326.62,-76 326.62,-56 369.62,-56 369.62,-76"/>
<text xml:space="preserve" text-anchor="middle" x="348.12" y="-62.5" font-family="Helvetica,sans-Serif" font-size="10.00">vector</text>
</a>
</g>
</g>
<!-- Node1&#45;&gt;Node8 -->
<g id="edge8_Node000001_Node000008" class="edge">
<title>Node1&#45;&gt;Node8</title>
<g id="a_edge8_Node000001_Node000008"><a xlink:title=" ">
<path fill="none" stroke="#63b8ff" d="M275.45,-111.59C288.62,-103.51 307.86,-91.71 323.23,-82.27"/>
<polygon fill="#63b8ff" stroke="#63b8ff" points="324.69,-85.48 331.39,-77.27 321.03,-79.52 324.69,-85.48"/>
</a>
</g>
</g>
<!-- Node3 -->
<g id="Node000003" class="node">
<title>Node3</title>
<g id="a_Node000003"><a xlink:title=" ">
<polygon fill="#e0e0e0" stroke="#999999" points="48.25,-20 0,-20 0,0 48.25,0 48.25,-20"/>
<text xml:space="preserve" text-anchor="middle" x="24.12" y="-6.5" font-family="Helvetica,sans-Serif" font-size="10.00">cassert</text>
</a>
</g>
</g>
<!-- Node2&#45;&gt;Node3 -->
<g id="edge2_Node000002_Node000003" class="edge">
<title>Node2&#45;&gt;Node3</title>
<g id="a_edge2_Node000002_Node000003"><a xlink:title=" ">
<path fill="none" stroke="#63b8ff" d="M120.75,-55.59C102.57,-47.21 75.7,-34.8 54.91,-25.21"/>
<polygon fill="#63b8ff" stroke="#63b8ff" points="56.58,-22.13 46.04,-21.11 53.65,-28.48 56.58,-22.13"/>
</a>
</g>
</g>
<!-- Node4 -->
<g id="Node000004" class="node">
<title>Node4</title>
<g id="a_Node000004"><a xlink:title=" ">
<polygon fill="#e0e0e0" stroke="#999999" points="114.25,-20 66,-20 66,0 114.25,0 114.25,-20"/>
<text xml:space="preserve" text-anchor="middle" x="90.12" y="-6.5" font-family="Helvetica,sans-Serif" font-size="10.00">cstddef</text>
</a>
</g>
</g>
<!-- Node2&#45;&gt;Node4 -->
<g id="edge3_Node000002_Node000004" class="edge">
<title>Node2&#45;&gt;Node4</title>
<g id="a_edge3_Node000002_Node000004"><a xlink:title=" ">
<path fill="none" stroke="#63b8ff" d="M132.24,-55.59C125.22,-48.16 115.22,-37.58 106.73,-28.58"/>
<polygon fill="#63b8ff" stroke="#63b8ff" points="109.36,-26.27 99.95,-21.4 104.27,-31.07 109.36,-26.27"/>
</a>
</g>
</g>
<!-- Node2&#45;&gt;Node5 -->
<g id="edge4_Node000002_Node000005" class="edge">
<title>Node2&#45;&gt;Node5</title>
<g id="a_edge4_Node000002_Node000005"><a xlink:title=" ">
<path fill="none" stroke="#63b8ff" d="M157.5,-55.59C171.7,-47.44 192.51,-35.48 209.01,-26"/>
<polygon fill="#63b8ff" stroke="#63b8ff" points="210.38,-29.25 217.31,-21.23 206.9,-23.18 210.38,-29.25"/>
</a>
</g>
</g>
<!-- Node6 -->
<g id="Node000006" class="node">
<title>Node6</title>
<g id="a_Node000006"><a xlink:title=" ">
<polygon fill="#e0e0e0" stroke="#999999" points="194,-20 132.25,-20 132.25,0 194,0 194,-20"/>
<text xml:space="preserve" text-anchor="middle" x="163.12" y="-6.5" font-family="Helvetica,sans-Serif" font-size="10.00">type_traits</text>
</a>
</g>
</g>
<!-- Node2&#45;&gt;Node6 -->
<g id="edge5_Node000002_Node000006" class="edge">
<title>Node2&#45;&gt;Node6</title>
<g id="a_edge5_Node000002_Node000006"><a xlink:title=" ">
<path fill="none" stroke="#63b8ff" d="M144.96,-55.59C147.73,-48.78 151.59,-39.32 155.03,-30.86"/>
<polygon fill="#63b8ff" stroke="#63b8ff" points="158.23,-32.28 158.77,-21.7 151.75,-29.64 158.23,-32.28"/>
</a>
</g>
</g>
</g>
</svg>
