<?xml version="1.0" encoding="UTF-8" standalone="no"?>
<!DOCTYPE svg PUBLIC "-//W3C//DTD SVG 1.1//EN"
 "http://www.w3.org/Graphics/SVG/1.1/DTD/svg11.dtd">
<!-- Generated by graphviz version 13.1.0 (20250701.0955)
 -->
<!-- Title: Lib::Helper::DateTime::isValid Pages: 1 -->
<svg width="1002pt" height="84pt"
 viewBox="0.00 0.00 1002.00 84.00" xmlns="http://www.w3.org/2000/svg" xmlns:xlink="http://www.w3.org/1999/xlink">
<g id="graph0" class="graph" transform="scale(1 1) rotate(0) translate(4 80)">
<title>Lib::Helper::DateTime::isValid</title>
<!-- Node1 -->
<g id="Node000001" class="node">
<title>Node1</title>
<g id="a_Node000001"><a xlink:title="Static validity check.">
<polygon fill="#999999" stroke="#666666" points="146.5,-39 0,-39 0,-19 146.5,-19 146.5,-39"/>
<text xml:space="preserve" text-anchor="middle" x="73.25" y="-25.5" font-family="Helvetica,sans-Serif" font-size="10.00">Lib::Helper::DateTime::isValid</text>
</a>
</g>
</g>
<!-- Node2 -->
<g id="Node000002" class="node">
<title>Node2</title>
<g id="a_Node000002"><a xlink:href="../../de/d5f/class_lib_1_1_helper_1_1_date_time.html#a65a0cb9b70f003d8210a937f6d20c6e7" target="_top" xlink:title="Check if DateTime is valid.">
<polygon fill="white" stroke="#666666" points="329,-39 182.5,-39 182.5,-19 329,-19 329,-39"/>
<text xml:space="preserve" text-anchor="middle" x="255.75" y="-25.5" font-family="Helvetica,sans-Serif" font-size="10.00">Lib::Helper::DateTime::isValid</text>
</a>
</g>
</g>
<!-- Node1&#45;&gt;Node2 -->
<g id="edge1_Node000001_Node000002" class="edge">
<title>Node1&#45;&gt;Node2</title>
<g id="a_edge1_Node000001_Node000002"><a xlink:title=" ">
<path fill="none" stroke="#63b8ff" d="M146.89,-29C154.81,-29 162.92,-29 170.96,-29"/>
<polygon fill="#63b8ff" stroke="#63b8ff" points="170.75,-32.5 180.75,-29 170.75,-25.5 170.75,-32.5"/>
</a>
</g>
</g>
<!-- Node3 -->
<g id="Node000003" class="node">
<title>Node3</title>
<g id="a_Node000003"><a xlink:href="../../d7/d3b/class_lib_1_1_helper_1_1_date_time_1_1_date.html#af2a373924057631a295b1ea250ac4c7a" target="_top" xlink:title="Check if date is valid.">
<polygon fill="white" stroke="#666666" points="538.88,-58 365.38,-58 365.38,-38 538.88,-38 538.88,-58"/>
<text xml:space="preserve" text-anchor="middle" x="452.12" y="-44.5" font-family="Helvetica,sans-Serif" font-size="10.00">Lib::Helper::DateTime::Date::isValid</text>
</a>
</g>
</g>
<!-- Node2&#45;&gt;Node3 -->
<g id="edge2_Node000002_Node000003" class="edge">
<title>Node2&#45;&gt;Node3</title>
<g id="a_edge2_Node000002_Node000003"><a xlink:title=" ">
<path fill="none" stroke="#63b8ff" d="M329.4,-36.1C337.41,-36.88 345.66,-37.69 353.9,-38.5"/>
<polygon fill="#63b8ff" stroke="#63b8ff" points="353.32,-41.96 363.61,-39.45 354,-34.99 353.32,-41.96"/>
</a>
</g>
</g>
<!-- Node6 -->
<g id="Node000006" class="node">
<title>Node6</title>
<g id="a_Node000006"><a xlink:href="../../d7/dee/class_lib_1_1_helper_1_1_date_time_1_1_time.html#aaa5217e113e686edeace28c25aa7a376" target="_top" xlink:title="Check if time is valid.">
<polygon fill="white" stroke="#666666" points="539.25,-20 365,-20 365,0 539.25,0 539.25,-20"/>
<text xml:space="preserve" text-anchor="middle" x="452.12" y="-6.5" font-family="Helvetica,sans-Serif" font-size="10.00">Lib::Helper::DateTime::Time::isValid</text>
</a>
</g>
</g>
<!-- Node2&#45;&gt;Node6 -->
<g id="edge6_Node000002_Node000006" class="edge">
<title>Node2&#45;&gt;Node6</title>
<g id="a_edge6_Node000002_Node000006"><a xlink:title=" ">
<path fill="none" stroke="#63b8ff" d="M329.4,-21.9C337.25,-21.13 345.32,-20.34 353.39,-19.55"/>
<polygon fill="#63b8ff" stroke="#63b8ff" points="353.67,-23.04 363.28,-18.59 352.99,-16.08 353.67,-23.04"/>
</a>
</g>
</g>
<!-- Node4 -->
<g id="Node000004" class="node">
<title>Node4</title>
<g id="a_Node000004"><a xlink:href="../../d7/d3b/class_lib_1_1_helper_1_1_date_time_1_1_date.html#a591f8f973adee8639a72fecbcc604a80" target="_top" xlink:title="Get days in month for a date.">
<polygon fill="white" stroke="#666666" points="792.25,-58 575.25,-58 575.25,-38 792.25,-38 792.25,-58"/>
<text xml:space="preserve" text-anchor="middle" x="683.75" y="-44.5" font-family="Helvetica,sans-Serif" font-size="10.00">Lib::Helper::DateTime::Date::getDaysInMonth</text>
</a>
</g>
</g>
<!-- Node3&#45;&gt;Node4 -->
<g id="edge3_Node000003_Node000004" class="edge">
<title>Node3&#45;&gt;Node4</title>
<g id="a_edge3_Node000003_Node000004"><a xlink:title=" ">
<path fill="none" stroke="#63b8ff" d="M539.28,-48C547.15,-48 555.22,-48 563.31,-48"/>
<polygon fill="#63b8ff" stroke="#63b8ff" points="563.24,-51.5 573.24,-48 563.24,-44.5 563.24,-51.5"/>
</a>
</g>
</g>
<!-- Node4&#45;&gt;Node4 -->
<g id="edge5_Node000004_Node000004" class="edge">
<title>Node4&#45;&gt;Node4</title>
<g id="a_edge5_Node000004_Node000004"><a xlink:title=" ">
<path fill="none" stroke="#63b8ff" d="M647.34,-58.48C632.29,-67.08 644.43,-76 683.75,-76 705.87,-76 719.39,-73.18 724.3,-69.18"/>
<polygon fill="#63b8ff" stroke="#63b8ff" points="727.58,-67.95 720.7,-59.9 721.05,-70.48 727.58,-67.95"/>
</a>
</g>
</g>
<!-- Node5 -->
<g id="Node000005" class="node">
<title>Node5</title>
<g id="a_Node000005"><a xlink:href="../../d7/d3b/class_lib_1_1_helper_1_1_date_time_1_1_date.html#a8ea7578d44142ead5cb00363bc428d8c" target="_top" xlink:title="Default constructor of Date class.">
<polygon fill="white" stroke="#666666" points="994.25,-58 828.25,-58 828.25,-38 994.25,-38 994.25,-58"/>
<text xml:space="preserve" text-anchor="middle" x="911.25" y="-44.5" font-family="Helvetica,sans-Serif" font-size="10.00">Lib::Helper::DateTime::Date::Date</text>
</a>
</g>
</g>
<!-- Node4&#45;&gt;Node5 -->
<g id="edge4_Node000004_Node000005" class="edge">
<title>Node4&#45;&gt;Node5</title>
<g id="a_edge4_Node000004_Node000005"><a xlink:title=" ">
<path fill="none" stroke="#63b8ff" d="M792.55,-48C800.54,-48 808.56,-48 816.45,-48"/>
<polygon fill="#63b8ff" stroke="#63b8ff" points="816.39,-51.5 826.39,-48 816.39,-44.5 816.39,-51.5"/>
</a>
</g>
</g>
</g>
</svg>
