<?xml version="1.0" encoding="UTF-8" standalone="no"?>
<!DOCTYPE svg PUBLIC "-//W3C//DTD SVG 1.1//EN"
 "http://www.w3.org/Graphics/SVG/1.1/DTD/svg11.dtd">
<!-- Generated by graphviz version 13.1.0 (20250701.0955)
 -->
<!-- Title: Graphical Class Hierarchy Pages: 1 -->
<svg width="303pt" height="66pt"
 viewBox="0.00 0.00 303.00 66.00" xmlns="http://www.w3.org/2000/svg" xmlns:xlink="http://www.w3.org/1999/xlink">
<g id="graph0" class="graph" transform="scale(1 1) rotate(0) translate(4 62)">
<title>Graphical Class Hierarchy</title>
<!-- Node0 -->
<g id="Node000000" class="node">
<title>Node0</title>
<g id="a_Node000000"><a xlink:href="dd/da2/class_r_t_o_s_1_1_semaphore_base.html" target="_top" xlink:title="Base class for FreeRTOS semaphore wrappers.">
<polygon fill="white" stroke="#666666" points="121,-39 0,-39 0,-19 121,-19 121,-39"/>
<text xml:space="preserve" text-anchor="middle" x="60.5" y="-25.5" font-family="Helvetica,sans-Serif" font-size="10.00">RTOS::SemaphoreBase</text>
</a>
</g>
</g>
<!-- Node1 -->
<g id="Node000001" class="node">
<title>Node1</title>
<g id="a_Node000001"><a xlink:href="d3/de9/class_r_t_o_s_1_1_semaphore.html" target="_top" xlink:title="Semaphore class.">
<polygon fill="white" stroke="#666666" points="275,-58 176.5,-58 176.5,-38 275,-38 275,-58"/>
<text xml:space="preserve" text-anchor="middle" x="225.75" y="-44.5" font-family="Helvetica,sans-Serif" font-size="10.00">RTOS::Semaphore</text>
</a>
</g>
</g>
<!-- Node0&#45;&gt;Node1 -->
<g id="edge38_Node000000_Node000001" class="edge">
<title>Node0&#45;&gt;Node1</title>
<g id="a_edge38_Node000000_Node000001"><a xlink:title=" ">
<path fill="none" stroke="#63b8ff" d="M132.5,-37.26C147.22,-38.98 162.42,-40.75 176.12,-42.34"/>
<polygon fill="#63b8ff" stroke="#63b8ff" points="133.2,-33.82 122.86,-36.14 132.39,-40.77 133.2,-33.82"/>
</a>
</g>
</g>
<!-- Node2 -->
<g id="Node000002" class="node">
<title>Node2</title>
<g id="a_Node000002"><a xlink:href="df/d69/class_r_t_o_s_1_1_semaphore_counting.html" target="_top" xlink:title="Counting semaphore.">
<polygon fill="white" stroke="#666666" points="294.5,-20 157,-20 157,0 294.5,0 294.5,-20"/>
<text xml:space="preserve" text-anchor="middle" x="225.75" y="-6.5" font-family="Helvetica,sans-Serif" font-size="10.00">RTOS::SemaphoreCounting</text>
</a>
</g>
</g>
<!-- Node0&#45;&gt;Node2 -->
<g id="edge39_Node000000_Node000002" class="edge">
<title>Node0&#45;&gt;Node2</title>
<g id="a_edge39_Node000000_Node000002"><a xlink:title=" ">
<path fill="none" stroke="#63b8ff" d="M132.54,-20.73C140.53,-19.8 148.66,-18.86 156.61,-17.93"/>
<polygon fill="#63b8ff" stroke="#63b8ff" points="132.39,-17.23 122.86,-21.86 133.2,-24.18 132.39,-17.23"/>
</a>
</g>
</g>
</g>
</svg>
