<?xml version="1.0" encoding="UTF-8" standalone="no"?>
<!DOCTYPE svg PUBLIC "-//W3C//DTD SVG 1.1//EN"
 "http://www.w3.org/Graphics/SVG/1.1/DTD/svg11.dtd">
<!-- Generated by graphviz version 12.2.1 (20241206.2353)
 -->
<!-- Title: Lib::HAL::DeviceManagerBase::findDevice Pages: 1 -->
<svg width="701pt" height="40pt"
 viewBox="0.00 0.00 700.50 40.00" xmlns="http://www.w3.org/2000/svg" xmlns:xlink="http://www.w3.org/1999/xlink">
<g id="graph0" class="graph" transform="scale(1 1) rotate(0) translate(4 36)">
<title>Lib::HAL::DeviceManagerBase::findDevice</title>
<!-- Node1 -->
<g id="Node000001" class="node">
<title>Node1</title>
<g id="a_Node000001"><a xlink:title="Gets a device from the manager.">
<polygon fill="#999999" stroke="#666666" points="692.5,-32 541.5,-32 541.5,0 692.5,0 692.5,-32"/>
<text text-anchor="start" x="549.5" y="-18.5" font-family="Helvetica,sans-Serif" font-size="10.00">Lib::HAL::DeviceManagerBase</text>
<text text-anchor="middle" x="617" y="-6.5" font-family="Helvetica,sans-Serif" font-size="10.00">::findDevice</text>
</a>
</g>
</g>
<!-- Node2 -->
<g id="Node000002" class="node">
<title>Node2</title>
<g id="a_Node000002"><a xlink:href="../../d2/d82/a00279.html#a72b8fbc77549bebdb43f2194a72033a6" target="_top" xlink:title="Get the device with the specified handle.">
<polygon fill="white" stroke="#666666" points="505.5,-32 362.75,-32 362.75,0 505.5,0 505.5,-32"/>
<text text-anchor="start" x="370.75" y="-18.5" font-family="Helvetica,sans-Serif" font-size="10.00">Lib::HAL::GPIO::EXTIBase</text>
<text text-anchor="middle" x="434.12" y="-6.5" font-family="Helvetica,sans-Serif" font-size="10.00">::DeviceManager::findDevice</text>
</a>
</g>
</g>
<!-- Node1&#45;&gt;Node2 -->
<g id="edge1_Node000001_Node000002" class="edge">
<title>Node1&#45;&gt;Node2</title>
<g id="a_edge1_Node000001_Node000002"><a xlink:title=" ">
<path fill="none" stroke="#63b8ff" d="M529.84,-16C521.81,-16 513.74,-16 505.88,-16"/>
<polygon fill="#63b8ff" stroke="#63b8ff" points="529.61,-19.5 539.61,-16 529.61,-12.5 529.61,-19.5"/>
</a>
</g>
</g>
<!-- Node3 -->
<g id="Node000003" class="node">
<title>Node3</title>
<g id="a_Node000003"><a xlink:href="../../d2/d82/a00279.html#a0f37f9f7b53f160266a22bc239715e3b" target="_top" xlink:title="Event handler for external interrupts.">
<polygon fill="white" stroke="#666666" points="326.75,-32 172.75,-32 172.75,0 326.75,0 326.75,-32"/>
<text text-anchor="start" x="180.75" y="-18.5" font-family="Helvetica,sans-Serif" font-size="10.00">Lib::HAL::GPIO::EXTIBase</text>
<text text-anchor="middle" x="249.75" y="-6.5" font-family="Helvetica,sans-Serif" font-size="10.00">::DeviceManager::eventHandler</text>
</a>
</g>
</g>
<!-- Node2&#45;&gt;Node3 -->
<g id="edge2_Node000002_Node000003" class="edge">
<title>Node2&#45;&gt;Node3</title>
<g id="a_edge2_Node000002_Node000003"><a xlink:title=" ">
<path fill="none" stroke="#63b8ff" d="M350.9,-16C343.02,-16 335.05,-16 327.22,-16"/>
<polygon fill="#63b8ff" stroke="#63b8ff" points="350.84,-19.5 360.84,-16 350.84,-12.5 350.84,-19.5"/>
</a>
</g>
</g>
<!-- Node4 -->
<g id="Node000004" class="node">
<title>Node4</title>
<g id="a_Node000004"><a xlink:href="../../d2/df5/a00137.html#a0cd91fd3a9608559c2a87a8ba6cba55f" target="_top" xlink:title="External Interrupt Callback for GPIO.">
<polygon fill="white" stroke="#666666" points="136.75,-26 0,-26 0,-6 136.75,-6 136.75,-26"/>
<text text-anchor="middle" x="68.38" y="-12.5" font-family="Helvetica,sans-Serif" font-size="10.00">HAL_GPIO_EXTI_Callback</text>
</a>
</g>
</g>
<!-- Node3&#45;&gt;Node4 -->
<g id="edge3_Node000003_Node000004" class="edge">
<title>Node3&#45;&gt;Node4</title>
<g id="a_edge3_Node000003_Node000004"><a xlink:title=" ">
<path fill="none" stroke="#63b8ff" d="M161.08,-16C153.03,-16 144.96,-16 137.12,-16"/>
<polygon fill="#63b8ff" stroke="#63b8ff" points="160.91,-19.5 170.91,-16 160.91,-12.5 160.91,-19.5"/>
</a>
</g>
</g>
</g>
</svg>
