<?xml version="1.0" encoding="UTF-8" standalone="no"?>
<!DOCTYPE svg PUBLIC "-//W3C//DTD SVG 1.1//EN"
 "http://www.w3.org/Graphics/SVG/1.1/DTD/svg11.dtd">
<!-- Generated by graphviz version 13.1.0 (20250701.0955)
 -->
<!-- Title: Lib::System::VersionBase::operator uint32_t Pages: 1 -->
<svg width="450pt" height="66pt"
 viewBox="0.00 0.00 450.00 66.00" xmlns="http://www.w3.org/2000/svg" xmlns:xlink="http://www.w3.org/1999/xlink">
<g id="graph0" class="graph" transform="scale(1 1) rotate(0) translate(4 62)">
<title>Lib::System::VersionBase::operator uint32_t</title>
<!-- Node1 -->
<g id="Node000001" class="node">
<title>Node1</title>
<g id="a_Node000001"><a xlink:title="Conversion to uint32_t.">
<polygon fill="#999999" stroke="#666666" points="208,-39 0,-39 0,-19 208,-19 208,-39"/>
<text xml:space="preserve" text-anchor="middle" x="104" y="-25.5" font-family="Helvetica,sans-Serif" font-size="10.00">Lib::System::VersionBase::operator uint32_t</text>
</a>
</g>
</g>
<!-- Node2 -->
<g id="Node000002" class="node">
<title>Node2</title>
<g id="a_Node000002"><a xlink:href="../../d1/d03/class_lib_1_1_system_1_1_version_base.html#ae155e5992c4f390d6533602933291731" target="_top" xlink:title="Retrieves the subversion number.">
<polygon fill="white" stroke="#666666" points="442.25,-58 244,-58 244,-38 442.25,-38 442.25,-58"/>
<text xml:space="preserve" text-anchor="middle" x="343.12" y="-44.5" font-family="Helvetica,sans-Serif" font-size="10.00">Lib::System::VersionBase::getSubVersion</text>
</a>
</g>
</g>
<!-- Node1&#45;&gt;Node2 -->
<g id="edge1_Node000001_Node000002" class="edge">
<title>Node1&#45;&gt;Node2</title>
<g id="a_edge1_Node000001_Node000002"><a xlink:title=" ">
<path fill="none" stroke="#63b8ff" d="M208.32,-37.28C216.29,-37.92 224.36,-38.56 232.37,-39.21"/>
<polygon fill="#63b8ff" stroke="#63b8ff" points="231.89,-42.68 242.14,-39.99 232.45,-35.7 231.89,-42.68"/>
</a>
</g>
</g>
<!-- Node3 -->
<g id="Node000003" class="node">
<title>Node3</title>
<g id="a_Node000003"><a xlink:href="../../d1/d03/class_lib_1_1_system_1_1_version_base.html#af4f4e0bccaddab3a81a9f6197c1e7557" target="_top" xlink:title="Retrieves the version value.">
<polygon fill="white" stroke="#666666" points="429.5,-20 256.75,-20 256.75,0 429.5,0 429.5,-20"/>
<text xml:space="preserve" text-anchor="middle" x="343.12" y="-6.5" font-family="Helvetica,sans-Serif" font-size="10.00">Lib::System::VersionBase::getValue</text>
</a>
</g>
</g>
<!-- Node1&#45;&gt;Node3 -->
<g id="edge2_Node000001_Node000003" class="edge">
<title>Node1&#45;&gt;Node3</title>
<g id="a_edge2_Node000001_Node000003"><a xlink:title=" ">
<path fill="none" stroke="#63b8ff" d="M208.32,-20.72C220.64,-19.73 233.19,-18.73 245.42,-17.75"/>
<polygon fill="#63b8ff" stroke="#63b8ff" points="245.35,-21.27 255.04,-16.98 244.79,-14.29 245.35,-21.27"/>
</a>
</g>
</g>
</g>
</svg>
