<?xml version="1.0" encoding="UTF-8" standalone="no"?>
<!DOCTYPE svg PUBLIC "-//W3C//DTD SVG 1.1//EN"
 "http://www.w3.org/Graphics/SVG/1.1/DTD/svg11.dtd">
<!-- Generated by graphviz version 13.1.0 (20250701.0955)
 -->
<!-- Title: Lib::HAL::ADCPort::TransparentBase Pages: 1 -->
<svg width="234pt" height="504pt"
 viewBox="0.00 0.00 234.00 504.00" xmlns="http://www.w3.org/2000/svg" xmlns:xlink="http://www.w3.org/1999/xlink">
<g id="graph0" class="graph" transform="scale(1 1) rotate(0) translate(4 499.5)">
<title>Lib::HAL::ADCPort::TransparentBase</title>
<!-- Node1 -->
<g id="Node000001" class="node">
<title>Node1</title>
<g id="a_Node000001"><a xlink:title="TransparentBase abstract class for ADC Transparent Mode.">
<polygon fill="#999999" stroke="none" points="162.88,-174 63.88,-174 63.88,0 162.88,0 162.88,-174"/>
<text xml:space="preserve" text-anchor="start" x="73.25" y="-161.45" font-family="Arial" font-size="9.00">Lib::HAL::ADCPort::</text>
<text xml:space="preserve" text-anchor="start" x="78.12" y="-150.95" font-family="Arial" font-size="9.00">TransparentBase</text>
<text xml:space="preserve" text-anchor="start" x="112.25" y="-136.45" font-family="Arial" font-size="9.00"> </text>
<text xml:space="preserve" text-anchor="start" x="67.88" y="-121.95" font-family="Arial" font-size="9.00">+</text>
<text xml:space="preserve" text-anchor="start" x="77.12" y="-121.95" font-family="Arial" font-size="9.00">getHandle()</text>
<text xml:space="preserve" text-anchor="start" x="67.88" y="-107.45" font-family="Arial" font-size="9.00">#</text>
<text xml:space="preserve" text-anchor="start" x="77.12" y="-107.45" font-family="Arial" font-size="9.00">TransparentBase()</text>
<text xml:space="preserve" text-anchor="start" x="67.88" y="-92.95" font-family="Arial" font-size="9.00">#</text>
<text xml:space="preserve" text-anchor="start" x="77.12" y="-92.95" font-family="Arial" font-size="9.00">~TransparentBase()</text>
<text xml:space="preserve" text-anchor="start" x="67.88" y="-78.45" font-family="Arial" font-size="9.00">#</text>
<text xml:space="preserve" text-anchor="start" x="77.12" y="-78.45" font-family="Arial" font-size="9.00">open()</text>
<text xml:space="preserve" text-anchor="start" x="67.88" y="-63.95" font-family="Arial" font-size="9.00">#</text>
<text xml:space="preserve" text-anchor="start" x="77.12" y="-63.95" font-family="Arial" font-size="9.00">close()</text>
<text xml:space="preserve" text-anchor="start" x="67.88" y="-49.45" font-family="Arial" font-size="9.00">#</text>
<text xml:space="preserve" text-anchor="start" x="77.12" y="-49.45" font-family="Arial" font-size="9.00">startConversion()</text>
<text xml:space="preserve" text-anchor="start" x="67.88" y="-34.95" font-family="Arial" font-size="9.00">#</text>
<text xml:space="preserve" text-anchor="start" x="77.12" y="-34.95" font-family="Arial" font-size="9.00">stopConversion()</text>
<text xml:space="preserve" text-anchor="start" x="67.88" y="-20.45" font-family="Arial" font-size="9.00">#</text>
<text xml:space="preserve" text-anchor="start" x="77.12" y="-20.45" font-family="Arial" font-size="9.00">read()</text>
<text xml:space="preserve" text-anchor="start" x="67.88" y="-5.95" font-family="Arial" font-size="9.00">#</text>
<text xml:space="preserve" text-anchor="start" x="77.12" y="-5.95" font-family="Arial" font-size="9.00">isrCallback()</text>
<polygon fill="#666666" stroke="#666666" points="63.88,-147 63.88,-147 162.88,-147 162.88,-147 63.88,-147"/>
<polygon fill="#666666" stroke="#666666" points="63.88,-132.5 63.88,-132.5 162.88,-132.5 162.88,-132.5 63.88,-132.5"/>
<polygon fill="none" stroke="#666666" points="63.88,0 63.88,-174 162.88,-174 162.88,0 63.88,0"/>
</a>
</g>
</g>
<!-- Node2 -->
<g id="Node000002" class="node">
<title>Node2</title>
<g id="a_Node000002"><a xlink:href="../../d8/d7b/a01478.html" target="_top" xlink:title="Abstract base class for ADC port management.">
<polygon fill="white" stroke="none" points="157.5,-370.5 69.25,-370.5 69.25,-211 157.5,-211 157.5,-370.5"/>
<text xml:space="preserve" text-anchor="start" x="73.25" y="-357.95" font-family="Arial" font-size="9.00">Lib::HAL::ADCPort::</text>
<text xml:space="preserve" text-anchor="start" x="94.62" y="-347.45" font-family="Arial" font-size="9.00">PortBase</text>
<text xml:space="preserve" text-anchor="start" x="112.25" y="-332.95" font-family="Arial" font-size="9.00"> </text>
<text xml:space="preserve" text-anchor="start" x="73.94" y="-318.45" font-family="Arial" font-size="9.00">+</text>
<text xml:space="preserve" text-anchor="start" x="83.88" y="-318.45" font-family="Arial" font-size="9.00">PortBase()</text>
<text xml:space="preserve" text-anchor="start" x="73.94" y="-303.95" font-family="Arial" font-size="9.00">+</text>
<text xml:space="preserve" text-anchor="start" x="83.88" y="-303.95" font-family="Arial" font-size="9.00">~PortBase()</text>
<text xml:space="preserve" text-anchor="start" x="73.94" y="-289.45" font-family="Arial" font-size="9.00">+</text>
<text xml:space="preserve" text-anchor="start" x="83.88" y="-289.45" font-family="Arial" font-size="9.00">open()</text>
<text xml:space="preserve" text-anchor="start" x="73.94" y="-274.95" font-family="Arial" font-size="9.00">+</text>
<text xml:space="preserve" text-anchor="start" x="83.88" y="-274.95" font-family="Arial" font-size="9.00">close()</text>
<text xml:space="preserve" text-anchor="start" x="73.94" y="-260.45" font-family="Arial" font-size="9.00">+</text>
<text xml:space="preserve" text-anchor="start" x="83.88" y="-260.45" font-family="Arial" font-size="9.00">startConvertion()</text>
<text xml:space="preserve" text-anchor="start" x="73.94" y="-245.95" font-family="Arial" font-size="9.00">+</text>
<text xml:space="preserve" text-anchor="start" x="83.88" y="-245.95" font-family="Arial" font-size="9.00">stopConvertion()</text>
<text xml:space="preserve" text-anchor="start" x="73.94" y="-231.45" font-family="Arial" font-size="9.00">+</text>
<text xml:space="preserve" text-anchor="start" x="83.88" y="-231.45" font-family="Arial" font-size="9.00">read()</text>
<text xml:space="preserve" text-anchor="start" x="73.94" y="-216.95" font-family="Arial" font-size="9.00">+</text>
<text xml:space="preserve" text-anchor="start" x="83.88" y="-216.95" font-family="Arial" font-size="9.00">getHandle()</text>
<polygon fill="#666666" stroke="#666666" points="69.25,-343.5 69.25,-343.5 157.5,-343.5 157.5,-343.5 69.25,-343.5"/>
<polygon fill="#666666" stroke="#666666" points="69.25,-329 69.25,-329 157.5,-329 157.5,-329 69.25,-329"/>
<polygon fill="none" stroke="#666666" points="69.25,-211 69.25,-370.5 157.5,-370.5 157.5,-211 69.25,-211"/>
</a>
</g>
</g>
<!-- Node2&#45;&gt;Node1 -->
<g id="edge1_Node000001_Node000002" class="edge">
<title>Node2&#45;&gt;Node1</title>
<g id="a_edge1_Node000001_Node000002"><a xlink:title=" ">
<path fill="none" stroke="darkgreen" d="M113.38,-199.84C113.38,-191.15 113.38,-182.36 113.38,-173.71"/>
<polygon fill="none" stroke="darkgreen" points="109.88,-199.66 113.38,-209.66 116.88,-199.66 109.88,-199.66"/>
</a>
</g>
</g>
<!-- Node3 -->
<g id="Node000003" class="node">
<title>Node3</title>
<g id="a_Node000003"><a xlink:href="../../d6/d02/a01542.html" target="_top" xlink:title=" ">
<polygon fill="white" stroke="none" points="104.75,-495.5 0,-495.5 0,-423 104.75,-423 104.75,-495.5"/>
<text xml:space="preserve" text-anchor="start" x="4" y="-482.95" font-family="Arial" font-size="9.00">Lib::HAL::Handle&lt; ADC</text>
<text xml:space="preserve" text-anchor="start" x="13.75" y="-472.45" font-family="Arial" font-size="9.00">_HandleTypeDef &gt;</text>
<text xml:space="preserve" text-anchor="start" x="51.25" y="-457.95" font-family="Arial" font-size="9.00"> </text>
<text xml:space="preserve" text-anchor="start" x="13.69" y="-443.45" font-family="Arial" font-size="9.00">+</text>
<text xml:space="preserve" text-anchor="start" x="32.62" y="-443.45" font-family="Arial" font-size="9.00">~Handle()</text>
<text xml:space="preserve" text-anchor="start" x="13.69" y="-428.95" font-family="Arial" font-size="9.00">+</text>
<text xml:space="preserve" text-anchor="start" x="32.62" y="-428.95" font-family="Arial" font-size="9.00">getHandle()</text>
<polygon fill="#666666" stroke="#666666" points="0,-468.5 0,-468.5 104.75,-468.5 104.75,-468.5 0,-468.5"/>
<polygon fill="#666666" stroke="#666666" points="0,-454 0,-454 104.75,-454 104.75,-454 0,-454"/>
<polygon fill="none" stroke="#666666" points="0,-423 0,-495.5 104.75,-495.5 104.75,-423 0,-423"/>
</a>
</g>
</g>
<!-- Node3&#45;&gt;Node2 -->
<g id="edge2_Node000002_Node000003" class="edge">
<title>Node3&#45;&gt;Node2</title>
<g id="a_edge2_Node000002_Node000003"><a xlink:title=" ">
<path fill="none" stroke="#63b8ff" d="M69.07,-412.69C73.89,-399.51 79.31,-384.74 84.65,-370.16"/>
<polygon fill="none" stroke="#63b8ff" points="65.84,-411.33 65.68,-421.92 72.41,-413.74 65.84,-411.33"/>
</a>
</g>
</g>
<!-- Node4 -->
<g id="Node000004" class="node">
<title>Node4</title>
<g id="a_Node000004"><a xlink:title=" ">
<polygon fill="white" stroke="none" points="226,-483 122.75,-483 122.75,-435.5 226,-435.5 226,-483"/>
<text xml:space="preserve" text-anchor="start" x="126.75" y="-470.45" font-family="Arial" font-size="9.00">ADC_HandleTypeDef *</text>
<text xml:space="preserve" text-anchor="start" x="173.25" y="-455.95" font-family="Arial" font-size="9.00"> </text>
<text xml:space="preserve" text-anchor="start" x="173.25" y="-441.45" font-family="Arial" font-size="9.00"> </text>
<polygon fill="#bfbfbf" stroke="#bfbfbf" points="122.75,-466.5 122.75,-466.5 226,-466.5 226,-466.5 122.75,-466.5"/>
<polygon fill="#bfbfbf" stroke="#bfbfbf" points="122.75,-452 122.75,-452 226,-452 226,-452 122.75,-452"/>
<polygon fill="none" stroke="#bfbfbf" points="122.75,-435.5 122.75,-483 226,-483 226,-435.5 122.75,-435.5"/>
</a>
</g>
</g>
<!-- Node4&#45;&gt;Node2 -->
<g id="edge3_Node000002_Node000004" class="edge">
<title>Node4&#45;&gt;Node2</title>
<g id="a_edge3_Node000002_Node000004"><a xlink:title=" ">
<path fill="none" stroke="#63b8ff" d="M166.15,-435.8C160.95,-421.61 153.86,-402.26 146.56,-382.34"/>
<polygon fill="none" stroke="#63b8ff" points="146.57,-382.36 140.75,-378.1 142.44,-371.09 148.26,-375.35 146.57,-382.36"/>
</a>
</g>
<text xml:space="preserve" text-anchor="start" x="157.64" y="-393.45" font-family="Arial" font-size="9.00" fill="grey">#handle</text>
</g>
</g>
</svg>
