<?xml version="1.0" encoding="UTF-8" standalone="no"?>
<!DOCTYPE svg PUBLIC "-//W3C//DTD SVG 1.1//EN"
 "http://www.w3.org/Graphics/SVG/1.1/DTD/svg11.dtd">
<!-- Generated by graphviz version 13.1.0 (20250701.0955)
 -->
<!-- Title: Lib::HAL::TIM::Base::DeviceManager::remove Pages: 1 -->
<svg width="428pt" height="37pt"
 viewBox="0.00 0.00 428.00 37.00" xmlns="http://www.w3.org/2000/svg" xmlns:xlink="http://www.w3.org/1999/xlink">
<g id="graph0" class="graph" transform="scale(1 1) rotate(0) translate(4 33)">
<title>Lib::HAL::TIM::Base::DeviceManager::remove</title>
<!-- Node1 -->
<g id="Node000001" class="node">
<title>Node1</title>
<g id="a_Node000001"><a xlink:title="Removes a TIM device and unregisters all HAL callbacks.">
<polygon fill="#999999" stroke="#666666" points="420,-29 299,-29 299,0 420,0 420,-29"/>
<text xml:space="preserve" text-anchor="start" x="307" y="-16.45" font-family="Arial" font-size="9.00">Lib::HAL::TIM::Base</text>
<text xml:space="preserve" text-anchor="middle" x="359.5" y="-5.95" font-family="Arial" font-size="9.00">::DeviceManager::remove</text>
</a>
</g>
</g>
<!-- Node2 -->
<g id="Node000002" class="node">
<title>Node2</title>
<g id="a_Node000002"><a xlink:href="../../d6/df0/a01647.html#a722cf0939b693295625e6e6407105bf0" target="_top" xlink:title="Closes the device and unregisters it from the device manager.">
<polygon fill="white" stroke="#666666" points="263,-29 166.75,-29 166.75,0 263,0 263,-29"/>
<text xml:space="preserve" text-anchor="start" x="174.75" y="-16.45" font-family="Arial" font-size="9.00">Lib::HAL::TIM::Base</text>
<text xml:space="preserve" text-anchor="middle" x="214.88" y="-5.95" font-family="Arial" font-size="9.00">::close</text>
</a>
</g>
</g>
<!-- Node1&#45;&gt;Node2 -->
<g id="edge1_Node000001_Node000002" class="edge">
<title>Node1&#45;&gt;Node2</title>
<g id="a_edge1_Node000001_Node000002"><a xlink:title=" ">
<path fill="none" stroke="#63b8ff" d="M287.59,-14.5C279.3,-14.5 271.01,-14.5 263.16,-14.5"/>
<polygon fill="#63b8ff" stroke="#63b8ff" points="287.33,-18 297.33,-14.5 287.33,-11 287.33,-18"/>
</a>
</g>
</g>
<!-- Node3 -->
<g id="Node000003" class="node">
<title>Node3</title>
<g id="a_Node000003"><a xlink:href="../../dd/d38/a01663.html#a30e3fabb9057f35427bb6a23666cc6e5" target="_top" xlink:title="Closes the encoder timer and stops encoder interface in interrupt mode.">
<polygon fill="white" stroke="#666666" points="130.75,-29 0,-29 0,0 130.75,0 130.75,-29"/>
<text xml:space="preserve" text-anchor="start" x="8" y="-16.45" font-family="Arial" font-size="9.00">Lib::HAL::TIM::Timer</text>
<text xml:space="preserve" text-anchor="middle" x="65.38" y="-5.95" font-family="Arial" font-size="9.00">&lt; Mode::ENCODER &gt;::close</text>
</a>
</g>
</g>
<!-- Node2&#45;&gt;Node3 -->
<g id="edge2_Node000002_Node000003" class="edge">
<title>Node2&#45;&gt;Node3</title>
<g id="a_edge2_Node000002_Node000003"><a xlink:title=" ">
<path fill="none" stroke="#63b8ff" d="M155.11,-14.5C147.26,-14.5 139.18,-14.5 131.24,-14.5"/>
<polygon fill="#63b8ff" stroke="#63b8ff" points="154.88,-18 164.88,-14.5 154.88,-11 154.88,-18"/>
</a>
</g>
</g>
</g>
</svg>
