<?xml version="1.0" encoding="UTF-8" standalone="no"?>
<!DOCTYPE svg PUBLIC "-//W3C//DTD SVG 1.1//EN"
 "http://www.w3.org/Graphics/SVG/1.1/DTD/svg11.dtd">
<!-- Generated by graphviz version 13.1.0 (20250701.0955)
 -->
<!-- Title: Lib::Helper::Convert::HexHelper Pages: 1 -->
<svg width="122pt" height="141pt"
 viewBox="0.00 0.00 122.00 141.00" xmlns="http://www.w3.org/2000/svg" xmlns:xlink="http://www.w3.org/1999/xlink">
<g id="graph0" class="graph" transform="scale(1 1) rotate(0) translate(4 137)">
<title>Lib::Helper::Convert::HexHelper</title>
<!-- Node1 -->
<g id="Node000001" class="node">
<title>Node1</title>
<g id="a_Node000001"><a xlink:title="Utility for hex, BCD, and ASCII conversions.">
<polygon fill="#999999" stroke="none" points="114,-133 0,-133 0,0 114,0 114,-133"/>
<text xml:space="preserve" text-anchor="start" x="16.12" y="-120.45" font-family="Arial" font-size="9.00">Lib::Helper::Convert</text>
<text xml:space="preserve" text-anchor="start" x="32.62" y="-109.95" font-family="Arial" font-size="9.00">::HexHelper</text>
<text xml:space="preserve" text-anchor="start" x="55.88" y="-95.45" font-family="Arial" font-size="9.00"> </text>
<text xml:space="preserve" text-anchor="start" x="4" y="-80.95" font-family="Arial" font-size="9.00">+</text>
<text xml:space="preserve" text-anchor="start" x="13.25" y="-80.95" font-family="Arial" font-size="9.00">HexHelper()=delete</text>
<text xml:space="preserve" text-anchor="start" x="4" y="-66.45" font-family="Arial" font-size="9.00">+</text>
<text xml:space="preserve" text-anchor="start" x="13.25" y="-66.45" font-family="Arial" font-size="9.00">static constexpr char</text>
<text xml:space="preserve" text-anchor="start" x="13.25" y="-55.95" font-family="Arial" font-size="9.00"> toAscii(uint8_t value)</text>
<text xml:space="preserve" text-anchor="start" x="4" y="-41.45" font-family="Arial" font-size="9.00">+</text>
<text xml:space="preserve" text-anchor="start" x="13.25" y="-41.45" font-family="Arial" font-size="9.00">static constexpr uint32</text>
<text xml:space="preserve" text-anchor="start" x="13.25" y="-30.95" font-family="Arial" font-size="9.00">_t toBcd(uint16_t value)</text>
<text xml:space="preserve" text-anchor="start" x="4" y="-16.45" font-family="Arial" font-size="9.00">+</text>
<text xml:space="preserve" text-anchor="start" x="13.25" y="-16.45" font-family="Arial" font-size="9.00">static constexpr uint8</text>
<text xml:space="preserve" text-anchor="start" x="13.25" y="-5.95" font-family="Arial" font-size="9.00">_t toBcd8(uint8_t value)</text>
<polygon fill="#666666" stroke="#666666" points="0,-106 0,-106 114,-106 114,-106 0,-106"/>
<polygon fill="#666666" stroke="#666666" points="0,-91.5 0,-91.5 114,-91.5 114,-91.5 0,-91.5"/>
<polygon fill="none" stroke="#666666" points="0,0 0,-133 114,-133 114,0 0,0"/>
</a>
</g>
</g>
</g>
</svg>
