<?xml version="1.0" encoding="UTF-8" standalone="no"?>
<!DOCTYPE svg PUBLIC "-//W3C//DTD SVG 1.1//EN"
 "http://www.w3.org/Graphics/SVG/1.1/DTD/svg11.dtd">
<!-- Generated by graphviz version 13.1.0 (20250701.0955)
 -->
<!-- Title: Lib::TouchGFX::ButtonMenuBase::ButtonParm Pages: 1 -->
<svg width="279pt" height="210pt"
 viewBox="0.00 0.00 279.00 210.00" xmlns="http://www.w3.org/2000/svg" xmlns:xlink="http://www.w3.org/1999/xlink">
<g id="graph0" class="graph" transform="scale(1 1) rotate(0) translate(4 205.5)">
<title>Lib::TouchGFX::ButtonMenuBase::ButtonParm</title>
<!-- Node1 -->
<g id="Node000001" class="node">
<title>Node1</title>
<g id="a_Node000001"><a xlink:title="Button parameter configuration.">
<polygon fill="#999999" stroke="none" points="165,-58 43,-58 43,0 165,0 165,-58"/>
<text xml:space="preserve" text-anchor="start" x="47" y="-45.45" font-family="Arial" font-size="9.00">Lib::TouchGFX::ButtonMenu</text>
<text xml:space="preserve" text-anchor="start" x="67.25" y="-34.95" font-family="Arial" font-size="9.00">Base::ButtonParm</text>
<text xml:space="preserve" text-anchor="start" x="102.88" y="-20.45" font-family="Arial" font-size="9.00"> </text>
<text xml:space="preserve" text-anchor="start" x="102.88" y="-5.95" font-family="Arial" font-size="9.00"> </text>
<polygon fill="#666666" stroke="#666666" points="43,-31 43,-31 165,-31 165,-31 43,-31"/>
<polygon fill="#666666" stroke="#666666" points="43,-16.5 43,-16.5 165,-16.5 165,-16.5 43,-16.5"/>
<polygon fill="none" stroke="#666666" points="43,0 43,-58 165,-58 165,0 43,0"/>
</a>
</g>
</g>
<!-- Node2 -->
<g id="Node000002" class="node">
<title>Node2</title>
<g id="a_Node000002"><a xlink:title=" ">
<polygon fill="white" stroke="none" points="32,-201.5 0,-201.5 0,-154 32,-154 32,-201.5"/>
<text xml:space="preserve" text-anchor="start" x="4" y="-188.95" font-family="Arial" font-size="9.00">size_t</text>
<text xml:space="preserve" text-anchor="start" x="14.88" y="-174.45" font-family="Arial" font-size="9.00"> </text>
<text xml:space="preserve" text-anchor="start" x="14.88" y="-159.95" font-family="Arial" font-size="9.00"> </text>
<polygon fill="#bfbfbf" stroke="#bfbfbf" points="0,-185 0,-185 32,-185 32,-185 0,-185"/>
<polygon fill="#bfbfbf" stroke="#bfbfbf" points="0,-170.5 0,-170.5 32,-170.5 32,-170.5 0,-170.5"/>
<polygon fill="none" stroke="#bfbfbf" points="0,-154 0,-201.5 32,-201.5 32,-154 0,-154"/>
</a>
</g>
</g>
<!-- Node2&#45;&gt;Node1 -->
<g id="edge1_Node000001_Node000002" class="edge">
<title>Node2&#45;&gt;Node1</title>
<g id="a_edge1_Node000001_Node000002"><a xlink:title=" ">
<path fill="none" stroke="#63b8ff" d="M15.55,-154.08C16.17,-132.34 19.95,-99.46 35.5,-76 37.68,-72.7 40.2,-69.58 42.94,-66.64"/>
<polygon fill="none" stroke="#63b8ff" points="42.93,-66.65 44.58,-59.63 51.69,-58.45 50.04,-65.47 42.93,-66.65"/>
</a>
</g>
<text xml:space="preserve" text-anchor="start" x="38.5" y="-124.45" font-family="Arial" font-size="9.00" fill="grey">+buttonsOffset</text>
<text xml:space="preserve" text-anchor="start" x="38.5" y="-109.95" font-family="Arial" font-size="9.00" fill="grey">+height</text>
<text xml:space="preserve" text-anchor="start" x="38.5" y="-95.45" font-family="Arial" font-size="9.00" fill="grey">+textYOffset</text>
<text xml:space="preserve" text-anchor="start" x="38.5" y="-80.95" font-family="Arial" font-size="9.00" fill="grey">+width</text>
</g>
<!-- Node3 -->
<g id="Node000003" class="node">
<title>Node3</title>
<g id="a_Node000003"><a xlink:title=" ">
<polygon fill="white" stroke="none" points="124.5,-201.5 83.5,-201.5 83.5,-154 124.5,-154 124.5,-201.5"/>
<text xml:space="preserve" text-anchor="start" x="87.5" y="-188.95" font-family="Arial" font-size="9.00">uint32_t</text>
<text xml:space="preserve" text-anchor="start" x="102.88" y="-174.45" font-family="Arial" font-size="9.00"> </text>
<text xml:space="preserve" text-anchor="start" x="102.88" y="-159.95" font-family="Arial" font-size="9.00"> </text>
<polygon fill="#bfbfbf" stroke="#bfbfbf" points="83.5,-185 83.5,-185 124.5,-185 124.5,-185 83.5,-185"/>
<polygon fill="#bfbfbf" stroke="#bfbfbf" points="83.5,-170.5 83.5,-170.5 124.5,-170.5 124.5,-170.5 83.5,-170.5"/>
<polygon fill="none" stroke="#bfbfbf" points="83.5,-154 83.5,-201.5 124.5,-201.5 124.5,-154 83.5,-154"/>
</a>
</g>
</g>
<!-- Node3&#45;&gt;Node1 -->
<g id="edge2_Node000001_Node000003" class="edge">
<title>Node3&#45;&gt;Node1</title>
<g id="a_edge2_Node000001_Node000003"><a xlink:title=" ">
<path fill="none" stroke="#63b8ff" d="M104,-154.14C104,-131.99 104,-97.75 104,-70.83"/>
<polygon fill="none" stroke="#63b8ff" points="104,-70.8 100,-64.8 104,-58.8 108,-64.8 104,-70.8"/>
</a>
</g>
<text xml:space="preserve" text-anchor="start" x="107" y="-102.7" font-family="Arial" font-size="9.00" fill="grey">+changeSpeed</text>
</g>
<!-- Node4 -->
<g id="Node000004" class="node">
<title>Node4</title>
<g id="a_Node000004"><a xlink:title=" ">
<polygon fill="white" stroke="none" points="218.75,-201.5 173.25,-201.5 173.25,-154 218.75,-154 218.75,-201.5"/>
<text xml:space="preserve" text-anchor="start" x="177.25" y="-188.95" font-family="Arial" font-size="9.00">colortype</text>
<text xml:space="preserve" text-anchor="start" x="194.88" y="-174.45" font-family="Arial" font-size="9.00"> </text>
<text xml:space="preserve" text-anchor="start" x="194.88" y="-159.95" font-family="Arial" font-size="9.00"> </text>
<polygon fill="#bfbfbf" stroke="#bfbfbf" points="173.25,-185 173.25,-185 218.75,-185 218.75,-185 173.25,-185"/>
<polygon fill="#bfbfbf" stroke="#bfbfbf" points="173.25,-170.5 173.25,-170.5 218.75,-170.5 218.75,-170.5 173.25,-170.5"/>
<polygon fill="none" stroke="#bfbfbf" points="173.25,-154 173.25,-201.5 218.75,-201.5 218.75,-154 173.25,-154"/>
</a>
</g>
</g>
<!-- Node4&#45;&gt;Node1 -->
<g id="edge3_Node000001_Node000004" class="edge">
<title>Node4&#45;&gt;Node1</title>
<g id="a_edge3_Node000001_Node000004"><a xlink:title=" ">
<path fill="none" stroke="#63b8ff" d="M195.84,-154.01C194.65,-132.23 190.02,-99.31 174,-76 171.65,-72.58 168.96,-69.36 166.03,-66.32"/>
<polygon fill="none" stroke="#63b8ff" points="166.18,-66.46 159.05,-65.39 157.29,-58.4 164.42,-59.47 166.18,-66.46"/>
</a>
</g>
<text xml:space="preserve" text-anchor="start" x="197.13" y="-124.45" font-family="Arial" font-size="9.00" fill="grey">+boxColor</text>
<text xml:space="preserve" text-anchor="start" x="197.13" y="-109.95" font-family="Arial" font-size="9.00" fill="grey">+boxCursorColor</text>
<text xml:space="preserve" text-anchor="start" x="197.13" y="-95.45" font-family="Arial" font-size="9.00" fill="grey">+textColor</text>
<text xml:space="preserve" text-anchor="start" x="197.13" y="-80.95" font-family="Arial" font-size="9.00" fill="grey">+textCursorColor</text>
</g>
</g>
</svg>
