<?xml version="1.0" encoding="UTF-8" standalone="no"?>
<!DOCTYPE svg PUBLIC "-//W3C//DTD SVG 1.1//EN"
 "http://www.w3.org/Graphics/SVG/1.1/DTD/svg11.dtd">
<!-- Generated by graphviz version 13.1.0 (20250701.0955)
 -->
<!-- Title: ModelCanbus Pages: 1 -->
<svg width="114pt" height="228pt"
 viewBox="0.00 0.00 114.00 228.00" xmlns="http://www.w3.org/2000/svg" xmlns:xlink="http://www.w3.org/1999/xlink">
<g id="graph0" class="graph" transform="scale(1 1) rotate(0) translate(4 224)">
<title>ModelCanbus</title>
<!-- Node1 -->
<g id="Node000001" class="node">
<title>Node1</title>
<g id="a_Node000001"><a xlink:title="CAN bus model for TouchGFX UI integration.">
<polygon fill="#999999" stroke="none" points="105,-105.5 0,-105.5 0,0 105,0 105,-105.5"/>
<text xml:space="preserve" text-anchor="start" x="23.62" y="-92.95" font-family="Arial" font-size="9.00">ModelCanbus</text>
<text xml:space="preserve" text-anchor="start" x="51.38" y="-78.45" font-family="Arial" font-size="9.00"> </text>
<text xml:space="preserve" text-anchor="start" x="4" y="-63.95" font-family="Arial" font-size="9.00">+</text>
<text xml:space="preserve" text-anchor="start" x="13.25" y="-63.95" font-family="Arial" font-size="9.00">ModelCanbus()</text>
<text xml:space="preserve" text-anchor="start" x="4" y="-49.45" font-family="Arial" font-size="9.00">+</text>
<text xml:space="preserve" text-anchor="start" x="13.25" y="-49.45" font-family="Arial" font-size="9.00">~ModelCanbus()</text>
<text xml:space="preserve" text-anchor="start" x="4" y="-34.95" font-family="Arial" font-size="9.00">+</text>
<text xml:space="preserve" text-anchor="start" x="13.25" y="-34.95" font-family="Arial" font-size="9.00">handleTickEvent()</text>
<text xml:space="preserve" text-anchor="start" x="4" y="-20.45" font-family="Arial" font-size="9.00">+</text>
<text xml:space="preserve" text-anchor="start" x="13.25" y="-20.45" font-family="Arial" font-size="9.00">operator[]()</text>
<text xml:space="preserve" text-anchor="start" x="4" y="-5.95" font-family="Arial" font-size="9.00">+</text>
<text xml:space="preserve" text-anchor="start" x="13.25" y="-5.95" font-family="Arial" font-size="9.00">getNumberOfNodes()</text>
<polygon fill="#666666" stroke="#666666" points="0,-89 0,-89 105,-89 105,-89 0,-89"/>
<polygon fill="#666666" stroke="#666666" points="0,-74.5 0,-74.5 105,-74.5 105,-74.5 0,-74.5"/>
<polygon fill="none" stroke="#666666" points="0,0 0,-105.5 105,-105.5 105,0 0,0"/>
</a>
</g>
</g>
<!-- Node2 -->
<g id="Node000002" class="node">
<title>Node2</title>
<g id="a_Node000002"><a xlink:href="../../d1/dc2/class_model_canbus_1_1_diagnostic.html" target="_top" xlink:title="Diagnostic state for the CAN bus model.">
<polygon fill="white" stroke="none" points="88.5,-220 16.5,-220 16.5,-158 88.5,-158 88.5,-220"/>
<text xml:space="preserve" text-anchor="start" x="30.75" y="-207.45" font-family="Arial" font-size="9.00">Diagnostic</text>
<text xml:space="preserve" text-anchor="start" x="51.38" y="-192.95" font-family="Arial" font-size="9.00"> </text>
<text xml:space="preserve" text-anchor="start" x="20.5" y="-178.45" font-family="Arial" font-size="9.00">+</text>
<text xml:space="preserve" text-anchor="start" x="29.75" y="-178.45" font-family="Arial" font-size="9.00">Diagnostic()</text>
<text xml:space="preserve" text-anchor="start" x="20.5" y="-163.95" font-family="Arial" font-size="9.00">+</text>
<text xml:space="preserve" text-anchor="start" x="29.75" y="-163.95" font-family="Arial" font-size="9.00">~Diagnostic()</text>
<polygon fill="#666666" stroke="#666666" points="16.5,-203.5 16.5,-203.5 88.5,-203.5 88.5,-203.5 16.5,-203.5"/>
<polygon fill="#666666" stroke="#666666" points="16.5,-189 16.5,-189 88.5,-189 88.5,-189 16.5,-189"/>
<polygon fill="none" stroke="#666666" points="16.5,-158 16.5,-220 88.5,-220 88.5,-158 16.5,-158"/>
</a>
</g>
</g>
<!-- Node2&#45;&gt;Node1 -->
<g id="edge1_Node000001_Node000002" class="edge">
<title>Node2&#45;&gt;Node1</title>
<g id="a_edge1_Node000001_Node000002"><a xlink:title=" ">
<path fill="none" stroke="#63b8ff" d="M52.5,-158.21C52.5,-146.32 52.5,-132.14 52.5,-118.12"/>
<polygon fill="none" stroke="#63b8ff" points="52.5,-118.26 48.5,-112.26 52.5,-106.26 56.5,-112.26 52.5,-118.26"/>
</a>
</g>
<text xml:space="preserve" text-anchor="start" x="55.5" y="-128.45" font-family="Arial" font-size="9.00" fill="grey">+diagnostic</text>
</g>
</g>
</svg>
