<?xml version="1.0" encoding="UTF-8" standalone="no"?>
<!DOCTYPE svg PUBLIC "-//W3C//DTD SVG 1.1//EN"
 "http://www.w3.org/Graphics/SVG/1.1/DTD/svg11.dtd">
<!-- Generated by graphviz version 13.1.0 (20250701.0955)
 -->
<!-- Title: RTOS::Timeout::operator&#45;= Pages: 1 -->
<svg width="315pt" height="66pt"
 viewBox="0.00 0.00 315.00 66.00" xmlns="http://www.w3.org/2000/svg" xmlns:xlink="http://www.w3.org/1999/xlink">
<g id="graph0" class="graph" transform="scale(1 1) rotate(0) translate(4 62)">
<title>RTOS::Timeout::operator&#45;=</title>
<!-- Node1 -->
<g id="Node000001" class="node">
<title>Node1</title>
<g id="a_Node000001"><a xlink:title="Subtract ticks from timeout duration.">
<polygon fill="#999999" stroke="#666666" points="134.5,-39 0,-39 0,-19 134.5,-19 134.5,-39"/>
<text xml:space="preserve" text-anchor="middle" x="67.25" y="-25.5" font-family="Helvetica,sans-Serif" font-size="10.00">RTOS::Timeout::operator&#45;=</text>
</a>
</g>
</g>
<!-- Node2 -->
<g id="Node000002" class="node">
<title>Node2</title>
<g id="a_Node000002"><a xlink:href="../../d1/de1/a00213.html#a3f92605e733513d2d484f1e56732616f" target="_top" xlink:title="Constructor of Timeout.">
<polygon fill="white" stroke="#666666" points="301.25,-58 175.75,-58 175.75,-38 301.25,-38 301.25,-58"/>
<text xml:space="preserve" text-anchor="middle" x="238.5" y="-44.5" font-family="Helvetica,sans-Serif" font-size="10.00">RTOS::Timeout::Timeout</text>
</a>
</g>
</g>
<!-- Node1&#45;&gt;Node2 -->
<g id="edge1_Node000001_Node000002" class="edge">
<title>Node1&#45;&gt;Node2</title>
<g id="a_edge1_Node000001_Node000002"><a xlink:title=" ">
<path fill="none" stroke="#63b8ff" d="M134.66,-36.45C144.31,-37.54 154.29,-38.66 164.07,-39.76"/>
<polygon fill="#63b8ff" stroke="#63b8ff" points="163.6,-43.23 173.92,-40.86 164.38,-36.27 163.6,-43.23"/>
</a>
</g>
</g>
<!-- Node3 -->
<g id="Node000003" class="node">
<title>Node3</title>
<g id="a_Node000003"><a xlink:href="../../d1/de1/a00213.html#a1c0d42cfc8bef1eddfab7ea49848e88b" target="_top" xlink:title="Check if timeout is disabled.">
<polygon fill="white" stroke="#666666" points="306.5,-20 170.5,-20 170.5,0 306.5,0 306.5,-20"/>
<text xml:space="preserve" text-anchor="middle" x="238.5" y="-6.5" font-family="Helvetica,sans-Serif" font-size="10.00">RTOS::Timeout::isDisabled</text>
</a>
</g>
</g>
<!-- Node1&#45;&gt;Node3 -->
<g id="edge2_Node000001_Node000003" class="edge">
<title>Node1&#45;&gt;Node3</title>
<g id="a_edge2_Node000001_Node000003"><a xlink:title=" ">
<path fill="none" stroke="#63b8ff" d="M134.66,-21.55C142.59,-20.65 150.74,-19.74 158.83,-18.83"/>
<polygon fill="#63b8ff" stroke="#63b8ff" points="159.12,-22.32 168.67,-17.73 158.34,-15.36 159.12,-22.32"/>
</a>
</g>
</g>
</g>
</svg>
