<?xml version="1.0" encoding="UTF-8" standalone="no"?>
<!DOCTYPE svg PUBLIC "-//W3C//DTD SVG 1.1//EN"
 "http://www.w3.org/Graphics/SVG/1.1/DTD/svg11.dtd">
<!-- Generated by graphviz version 12.2.1 (20241206.2353)
 -->
<!-- Title: Frame0x97.hpp Pages: 1 -->
<svg width="294pt" height="96pt"
 viewBox="0.00 0.00 294.38 96.00" xmlns="http://www.w3.org/2000/svg" xmlns:xlink="http://www.w3.org/1999/xlink">
<g id="graph0" class="graph" transform="scale(1 1) rotate(0) translate(4 92)">
<title>Frame0x97.hpp</title>
<!-- Node1 -->
<g id="Node000001" class="node">
<title>Node1</title>
<g id="a_Node000001"><a xlink:title="Defines the Frame0x97 class for handling XBee response frames with ID 0x97.">
<polygon fill="#999999" stroke="#666666" points="215.62,-88 132.12,-88 132.12,-68 215.62,-68 215.62,-88"/>
<text text-anchor="middle" x="173.88" y="-74.5" font-family="Helvetica,sans-Serif" font-size="10.00">Frame0x97.hpp</text>
</a>
</g>
</g>
<!-- Node2 -->
<g id="Node000002" class="node">
<title>Node2</title>
<g id="a_Node000002"><a xlink:title=" ">
<polygon fill="#e0e0e0" stroke="#999999" points="103.75,-32 0,-32 0,0 103.75,0 103.75,-32"/>
<text text-anchor="start" x="8" y="-18.5" font-family="Helvetica,sans-Serif" font-size="10.00">Lib/Digi/Core/Frame</text>
<text text-anchor="middle" x="51.88" y="-6.5" font-family="Helvetica,sans-Serif" font-size="10.00">/Data.hpp</text>
</a>
</g>
</g>
<!-- Node1&#45;&gt;Node2 -->
<g id="edge1_Node000001_Node000002" class="edge">
<title>Node1&#45;&gt;Node2</title>
<g id="a_edge1_Node000001_Node000002"><a xlink:title=" ">
<path fill="none" stroke="#63b8ff" d="M154.81,-67.62C138.42,-59.56 114.18,-47.64 93.35,-37.4"/>
<polygon fill="#63b8ff" stroke="#63b8ff" points="95.01,-34.31 84.49,-33.04 91.92,-40.6 95.01,-34.31"/>
</a>
</g>
</g>
<!-- Node3 -->
<g id="Node000003" class="node">
<title>Node3</title>
<g id="a_Node000003"><a xlink:title=" ">
<polygon fill="#e0e0e0" stroke="#999999" points="225.75,-32 122,-32 122,0 225.75,0 225.75,-32"/>
<text text-anchor="start" x="130" y="-18.5" font-family="Helvetica,sans-Serif" font-size="10.00">Lib/Digi/Core/Frame</text>
<text text-anchor="middle" x="173.88" y="-6.5" font-family="Helvetica,sans-Serif" font-size="10.00">/Helper.hpp</text>
</a>
</g>
</g>
<!-- Node1&#45;&gt;Node3 -->
<g id="edge2_Node000001_Node000003" class="edge">
<title>Node1&#45;&gt;Node3</title>
<g id="a_edge2_Node000001_Node000003"><a xlink:title=" ">
<path fill="none" stroke="#63b8ff" d="M173.88,-67.62C173.88,-61.1 173.88,-52.05 173.88,-43.4"/>
<polygon fill="#63b8ff" stroke="#63b8ff" points="177.38,-43.65 173.88,-33.65 170.38,-43.65 177.38,-43.65"/>
</a>
</g>
</g>
<!-- Node4 -->
<g id="Node000004" class="node">
<title>Node4</title>
<g id="a_Node000004"><a xlink:title=" ">
<polygon fill="#e0e0e0" stroke="#999999" points="286.38,-26 243.38,-26 243.38,-6 286.38,-6 286.38,-26"/>
<text text-anchor="middle" x="264.88" y="-12.5" font-family="Helvetica,sans-Serif" font-size="10.00">vector</text>
</a>
</g>
</g>
<!-- Node1&#45;&gt;Node4 -->
<g id="edge3_Node000001_Node000004" class="edge">
<title>Node1&#45;&gt;Node4</title>
<g id="a_edge3_Node000001_Node000004"><a xlink:title=" ">
<path fill="none" stroke="#63b8ff" d="M188.09,-67.62C202.38,-58.2 224.66,-43.52 241.54,-32.39"/>
<polygon fill="#63b8ff" stroke="#63b8ff" points="243.07,-35.57 249.49,-27.14 239.22,-29.72 243.07,-35.57"/>
</a>
</g>
</g>
</g>
</svg>
