<?xml version="1.0" encoding="UTF-8" standalone="no"?>
<!DOCTYPE svg PUBLIC "-//W3C//DTD SVG 1.1//EN"
 "http://www.w3.org/Graphics/SVG/1.1/DTD/svg11.dtd">
<!-- Generated by graphviz version 13.1.0 (20250701.0955)
 -->
<!-- Title: BSP::Inputs::Config Pages: 1 -->
<svg width="189pt" height="299pt"
 viewBox="0.00 0.00 189.00 299.00" xmlns="http://www.w3.org/2000/svg" xmlns:xlink="http://www.w3.org/1999/xlink">
<g id="graph0" class="graph" transform="scale(1 1) rotate(0) translate(4 295)">
<title>BSP::Inputs::Config</title>
<!-- Node1 -->
<g id="Node000001" class="node">
<title>Node1</title>
<g id="a_Node000001"><a xlink:title="Configuration for Inputs controller.">
<polygon fill="#999999" stroke="none" points="107.38,-47.5 20.62,-47.5 20.62,0 107.38,0 107.38,-47.5"/>
<text xml:space="preserve" text-anchor="start" x="24.62" y="-34.95" font-family="Arial" font-size="9.00">BSP::Inputs::Config</text>
<text xml:space="preserve" text-anchor="start" x="62.88" y="-20.45" font-family="Arial" font-size="9.00"> </text>
<text xml:space="preserve" text-anchor="start" x="62.88" y="-5.95" font-family="Arial" font-size="9.00"> </text>
<polygon fill="#666666" stroke="#666666" points="20.62,-31 20.62,-31 107.38,-31 107.38,-31 20.62,-31"/>
<polygon fill="#666666" stroke="#666666" points="20.62,-16.5 20.62,-16.5 107.38,-16.5 107.38,-16.5 20.62,-16.5"/>
<polygon fill="none" stroke="#666666" points="20.62,0 20.62,-47.5 107.38,-47.5 107.38,0 20.62,0"/>
</a>
</g>
</g>
<!-- Node2 -->
<g id="Node000002" class="node">
<title>Node2</title>
<g id="a_Node000002"><a xlink:title=" ">
<polygon fill="white" stroke="none" points="44,-169.25 0,-169.25 0,-121.75 44,-121.75 44,-169.25"/>
<text xml:space="preserve" text-anchor="start" x="4" y="-156.7" font-family="Arial" font-size="9.00">Handle *</text>
<text xml:space="preserve" text-anchor="start" x="20.88" y="-142.2" font-family="Arial" font-size="9.00"> </text>
<text xml:space="preserve" text-anchor="start" x="20.88" y="-127.7" font-family="Arial" font-size="9.00"> </text>
<polygon fill="#bfbfbf" stroke="#bfbfbf" points="0,-152.75 0,-152.75 44,-152.75 44,-152.75 0,-152.75"/>
<polygon fill="#bfbfbf" stroke="#bfbfbf" points="0,-138.25 0,-138.25 44,-138.25 44,-138.25 0,-138.25"/>
<polygon fill="none" stroke="#bfbfbf" points="0,-121.75 0,-169.25 44,-169.25 44,-121.75 0,-121.75"/>
</a>
</g>
</g>
<!-- Node2&#45;&gt;Node1 -->
<g id="edge1_Node000001_Node000002" class="edge">
<title>Node2&#45;&gt;Node1</title>
<g id="a_edge1_Node000001_Node000002"><a xlink:title=" ">
<path fill="none" stroke="#63b8ff" d="M21.15,-121.86C21.33,-105.58 23.22,-83.44 30.75,-65.5 31.8,-63 33.05,-60.53 34.45,-58.12"/>
<polygon fill="none" stroke="#63b8ff" points="34.51,-58.03 34.59,-50.81 41.28,-48.11 41.2,-55.32 34.51,-58.03"/>
</a>
</g>
<text xml:space="preserve" text-anchor="start" x="33.75" y="-70.45" font-family="Arial" font-size="9.00" fill="grey">+spiHandle</text>
</g>
<!-- Node3 -->
<g id="Node000003" class="node">
<title>Node3</title>
<g id="a_Node000003"><a xlink:href="../../d3/d9a/class_lib_1_1_h_a_l_1_1_g_p_i_o_1_1_handle.html" target="_top" xlink:title="GPIO pin handle abstraction.">
<polygon fill="white" stroke="none" points="166,-191 62,-191 62,-100 166,-100 166,-191"/>
<text xml:space="preserve" text-anchor="start" x="66" y="-178.45" font-family="Arial" font-size="9.00">Lib::HAL::GPIO::Handle</text>
<text xml:space="preserve" text-anchor="start" x="112.88" y="-163.95" font-family="Arial" font-size="9.00"> </text>
<text xml:space="preserve" text-anchor="start" x="74.94" y="-149.45" font-family="Arial" font-size="9.00">+</text>
<text xml:space="preserve" text-anchor="start" x="93.12" y="-149.45" font-family="Arial" font-size="9.00">Handle()</text>
<text xml:space="preserve" text-anchor="start" x="74.94" y="-134.95" font-family="Arial" font-size="9.00">+</text>
<text xml:space="preserve" text-anchor="start" x="93.12" y="-134.95" font-family="Arial" font-size="9.00">Handle()</text>
<text xml:space="preserve" text-anchor="start" x="74.94" y="-120.45" font-family="Arial" font-size="9.00">+</text>
<text xml:space="preserve" text-anchor="start" x="93.12" y="-120.45" font-family="Arial" font-size="9.00">~Handle()</text>
<text xml:space="preserve" text-anchor="start" x="74.94" y="-105.95" font-family="Arial" font-size="9.00">+</text>
<text xml:space="preserve" text-anchor="start" x="93.12" y="-105.95" font-family="Arial" font-size="9.00">operator==()</text>
<polygon fill="#666666" stroke="#666666" points="62,-174.5 62,-174.5 166,-174.5 166,-174.5 62,-174.5"/>
<polygon fill="#666666" stroke="#666666" points="62,-160 62,-160 166,-160 166,-160 62,-160"/>
<polygon fill="none" stroke="#666666" points="62,-100 62,-191 166,-191 166,-100 62,-100"/>
</a>
</g>
</g>
<!-- Node3&#45;&gt;Node1 -->
<g id="edge2_Node000001_Node000003" class="edge">
<title>Node3&#45;&gt;Node1</title>
<g id="a_edge2_Node000001_Node000003"><a xlink:title=" ">
<path fill="none" stroke="#63b8ff" d="M98.06,-100.33C93.71,-88.9 88.85,-76.67 84,-65.5 83.08,-63.37 82.1,-61.19 81.09,-59"/>
<polygon fill="none" stroke="#63b8ff" points="81.13,-59.07 74.94,-55.37 75.98,-48.23 82.17,-51.94 81.13,-59.07"/>
</a>
</g>
<text xml:space="preserve" text-anchor="start" x="93.25" y="-70.45" font-family="Arial" font-size="9.00" fill="grey">+nssPinHandle</text>
</g>
<!-- Node4 -->
<g id="Node000004" class="node">
<title>Node4</title>
<g id="a_Node000004"><a xlink:title=" ">
<polygon fill="white" stroke="none" points="113.75,-291 38.25,-291 38.25,-243.5 113.75,-243.5 113.75,-291"/>
<text xml:space="preserve" text-anchor="start" x="42.25" y="-278.45" font-family="Arial" font-size="9.00">GPIO_TypeDef *</text>
<text xml:space="preserve" text-anchor="start" x="74.88" y="-263.95" font-family="Arial" font-size="9.00"> </text>
<text xml:space="preserve" text-anchor="start" x="74.88" y="-249.45" font-family="Arial" font-size="9.00"> </text>
<polygon fill="#bfbfbf" stroke="#bfbfbf" points="38.25,-274.5 38.25,-274.5 113.75,-274.5 113.75,-274.5 38.25,-274.5"/>
<polygon fill="#bfbfbf" stroke="#bfbfbf" points="38.25,-260 38.25,-260 113.75,-260 113.75,-260 38.25,-260"/>
<polygon fill="none" stroke="#bfbfbf" points="38.25,-243.5 38.25,-291 113.75,-291 113.75,-243.5 38.25,-243.5"/>
</a>
</g>
</g>
<!-- Node4&#45;&gt;Node3 -->
<g id="edge3_Node000003_Node000004" class="edge">
<title>Node4&#45;&gt;Node3</title>
<g id="a_edge3_Node000003_Node000004"><a xlink:title=" ">
<path fill="none" stroke="#63b8ff" d="M83.15,-243.73C86.84,-232.08 91.53,-217.3 96.14,-202.8"/>
<polygon fill="none" stroke="#63b8ff" points="96.05,-203.05 94.06,-196.12 99.68,-191.61 101.68,-198.54 96.05,-203.05"/>
</a>
</g>
<text xml:space="preserve" text-anchor="start" x="96.86" y="-213.95" font-family="Arial" font-size="9.00" fill="grey">+port</text>
</g>
<!-- Node5 -->
<g id="Node000005" class="node">
<title>Node5</title>
<g id="a_Node000005"><a xlink:title=" ">
<polygon fill="white" stroke="none" points="172.5,-291 131.5,-291 131.5,-243.5 172.5,-243.5 172.5,-291"/>
<text xml:space="preserve" text-anchor="start" x="135.5" y="-278.45" font-family="Arial" font-size="9.00">uint16_t</text>
<text xml:space="preserve" text-anchor="start" x="150.88" y="-263.95" font-family="Arial" font-size="9.00"> </text>
<text xml:space="preserve" text-anchor="start" x="150.88" y="-249.45" font-family="Arial" font-size="9.00"> </text>
<polygon fill="#bfbfbf" stroke="#bfbfbf" points="131.5,-274.5 131.5,-274.5 172.5,-274.5 172.5,-274.5 131.5,-274.5"/>
<polygon fill="#bfbfbf" stroke="#bfbfbf" points="131.5,-260 131.5,-260 172.5,-260 172.5,-260 131.5,-260"/>
<polygon fill="none" stroke="#bfbfbf" points="131.5,-243.5 131.5,-291 172.5,-291 172.5,-243.5 131.5,-243.5"/>
</a>
</g>
</g>
<!-- Node5&#45;&gt;Node3 -->
<g id="edge4_Node000003_Node000005" class="edge">
<title>Node5&#45;&gt;Node3</title>
<g id="a_edge4_Node000003_Node000005"><a xlink:title=" ">
<path fill="none" stroke="#63b8ff" d="M144.85,-243.73C141.16,-232.08 136.47,-217.3 131.86,-202.8"/>
<polygon fill="none" stroke="#63b8ff" points="131.95,-203.05 126.32,-198.54 128.32,-191.61 133.94,-196.12 131.95,-203.05"/>
</a>
</g>
<text xml:space="preserve" text-anchor="start" x="141.62" y="-213.95" font-family="Arial" font-size="9.00" fill="grey">+number</text>
</g>
</g>
</svg>
