<?xml version="1.0" encoding="UTF-8" standalone="no"?>
<!DOCTYPE svg PUBLIC "-//W3C//DTD SVG 1.1//EN"
 "http://www.w3.org/Graphics/SVG/1.1/DTD/svg11.dtd">
<!-- Generated by graphviz version 12.2.1 (20241206.2353)
 -->
<!-- Title: Lib::Xbee::API::Connection Pages: 1 -->
<svg width="587pt" height="632pt"
 viewBox="0.00 0.00 587.15 632.00" xmlns="http://www.w3.org/2000/svg" xmlns:xlink="http://www.w3.org/1999/xlink">
<g id="graph0" class="graph" transform="scale(1 1) rotate(0) translate(4 628)">
<title>Lib::Xbee::API::Connection</title>
<!-- Node1 -->
<g id="Node000001" class="node">
<title>Node1</title>
<g id="a_Node000001"><a xlink:title="Manages and monitors the state and quality of an XBee connection.">
<polygon fill="#999999" stroke="none" points="272.25,-52 145,-52 145,0 272.25,0 272.25,-52"/>
<text text-anchor="start" x="149" y="-38.5" font-family="Helvetica,sans-Serif" font-size="10.00">Lib::Xbee::API::Connection</text>
<text text-anchor="start" x="207.12" y="-22.5" font-family="Helvetica,sans-Serif" font-size="10.00"> </text>
<text text-anchor="start" x="162.44" y="-6.5" font-family="Helvetica,sans-Serif" font-size="10.00">+</text>
<text text-anchor="start" x="185.88" y="-6.5" font-family="Helvetica,sans-Serif" font-size="10.00">Connection()</text>
<polygon fill="#666666" stroke="#666666" points="145,-34 145,-34 272.25,-34 272.25,-34 145,-34"/>
<polygon fill="#666666" stroke="#666666" points="145,-18 145,-18 272.25,-18 272.25,-18 145,-18"/>
<polygon fill="none" stroke="#666666" points="145,0 145,-52 272.25,-52 272.25,0 145,0"/>
</a>
</g>
</g>
<!-- Node2 -->
<g id="Node000002" class="node">
<title>Node2</title>
<g id="a_Node000002"><a xlink:href="../../d1/de6/a01068.html" target="_top" xlink:title="Represents the state of a connection.">
<polygon fill="white" stroke="none" points="127.25,-260 0,-260 0,-132 127.25,-132 127.25,-260"/>
<text text-anchor="start" x="4" y="-246.5" font-family="Helvetica,sans-Serif" font-size="10.00">Lib::Xbee::API::Connection</text>
<text text-anchor="start" x="49" y="-234.5" font-family="Helvetica,sans-Serif" font-size="10.00">::State</text>
<text text-anchor="start" x="6.56" y="-218.5" font-family="Helvetica,sans-Serif" font-size="10.00">+</text>
<text text-anchor="start" x="19.12" y="-218.5" font-family="Helvetica,sans-Serif" font-size="10.00">onConnectionChanged</text>
<text text-anchor="start" x="6.56" y="-202.5" font-family="Helvetica,sans-Serif" font-size="10.00">+</text>
<text text-anchor="start" x="19.12" y="-202.5" font-family="Helvetica,sans-Serif" font-size="10.00">State()</text>
<text text-anchor="start" x="6.56" y="-186.5" font-family="Helvetica,sans-Serif" font-size="10.00">+</text>
<text text-anchor="start" x="19.12" y="-186.5" font-family="Helvetica,sans-Serif" font-size="10.00">State()</text>
<text text-anchor="start" x="6.56" y="-170.5" font-family="Helvetica,sans-Serif" font-size="10.00">+</text>
<text text-anchor="start" x="19.12" y="-170.5" font-family="Helvetica,sans-Serif" font-size="10.00">operator=()</text>
<text text-anchor="start" x="6.56" y="-154.5" font-family="Helvetica,sans-Serif" font-size="10.00">+</text>
<text text-anchor="start" x="19.12" y="-154.5" font-family="Helvetica,sans-Serif" font-size="10.00">operator uint32_t()</text>
<text text-anchor="start" x="6.56" y="-138.5" font-family="Helvetica,sans-Serif" font-size="10.00">+</text>
<text text-anchor="start" x="19.12" y="-138.5" font-family="Helvetica,sans-Serif" font-size="10.00">isConnected()</text>
<polygon fill="#666666" stroke="#666666" points="0,-230 0,-230 127.25,-230 127.25,-230 0,-230"/>
<polygon fill="#666666" stroke="#666666" points="0,-214 0,-214 17.12,-214 17.12,-214 0,-214"/>
<polygon fill="#666666" stroke="#666666" points="17.12,-214 17.12,-214 127.25,-214 127.25,-214 17.12,-214"/>
<polygon fill="none" stroke="#666666" points="0,-132 0,-260 127.25,-260 127.25,-132 0,-132"/>
</a>
</g>
</g>
<!-- Node2&#45;&gt;Node1 -->
<g id="edge1_Node000001_Node000002" class="edge">
<title>Node2&#45;&gt;Node1</title>
<g id="a_edge1_Node000001_Node000002"><a xlink:title=" ">
<path fill="none" stroke="#63b8ff" d="M109.3,-132.2C117.79,-121.26 126.79,-110.14 135.62,-100 147.26,-86.65 160.79,-72.73 173.02,-60.67"/>
<polygon fill="none" stroke="#63b8ff" points="172.83,-60.86 174.33,-53.8 181.42,-52.48 179.92,-59.53 172.83,-60.86"/>
</a>
</g>
<text text-anchor="middle" x="178.09" y="-72.5" font-family="Helvetica,sans-Serif" font-size="10.00" fill="grey"> +state</text>
</g>
<!-- Node3 -->
<g id="Node000003" class="node">
<title>Node3</title>
<g id="a_Node000003"><a xlink:href="../../d6/d6a/a01072.html" target="_top" xlink:title="Monitors the quality of an XBee connection.">
<polygon fill="white" stroke="none" points="272.25,-292 145,-292 145,-100 272.25,-100 272.25,-292"/>
<text text-anchor="start" x="149" y="-278.5" font-family="Helvetica,sans-Serif" font-size="10.00">Lib::Xbee::API::Connection</text>
<text text-anchor="start" x="190.25" y="-266.5" font-family="Helvetica,sans-Serif" font-size="10.00">::Quality</text>
<text text-anchor="start" x="156.25" y="-250.5" font-family="Helvetica,sans-Serif" font-size="10.00">+</text>
<text text-anchor="start" x="173.5" y="-250.5" font-family="Helvetica,sans-Serif" font-size="10.00">onUpdate</text>
<text text-anchor="start" x="156.25" y="-234.5" font-family="Helvetica,sans-Serif" font-size="10.00">+</text>
<text text-anchor="start" x="173.5" y="-234.5" font-family="Helvetica,sans-Serif" font-size="10.00">Quality()</text>
<text text-anchor="start" x="156.25" y="-218.5" font-family="Helvetica,sans-Serif" font-size="10.00">+</text>
<text text-anchor="start" x="173.5" y="-218.5" font-family="Helvetica,sans-Serif" font-size="10.00">~Quality()</text>
<text text-anchor="start" x="156.25" y="-202.5" font-family="Helvetica,sans-Serif" font-size="10.00">+</text>
<text text-anchor="start" x="173.5" y="-202.5" font-family="Helvetica,sans-Serif" font-size="10.00">start()</text>
<text text-anchor="start" x="156.25" y="-186.5" font-family="Helvetica,sans-Serif" font-size="10.00">+</text>
<text text-anchor="start" x="173.5" y="-186.5" font-family="Helvetica,sans-Serif" font-size="10.00">clear()</text>
<text text-anchor="start" x="156.25" y="-170.5" font-family="Helvetica,sans-Serif" font-size="10.00">+</text>
<text text-anchor="start" x="173.5" y="-170.5" font-family="Helvetica,sans-Serif" font-size="10.00">setRuntimeMode()</text>
<text text-anchor="start" x="156.25" y="-154.5" font-family="Helvetica,sans-Serif" font-size="10.00">+</text>
<text text-anchor="start" x="173.5" y="-154.5" font-family="Helvetica,sans-Serif" font-size="10.00">setScannerMode()</text>
<text text-anchor="start" x="156.25" y="-138.5" font-family="Helvetica,sans-Serif" font-size="10.00">+</text>
<text text-anchor="start" x="173.5" y="-138.5" font-family="Helvetica,sans-Serif" font-size="10.00">getPercent()</text>
<text text-anchor="start" x="156.25" y="-122.5" font-family="Helvetica,sans-Serif" font-size="10.00">+</text>
<text text-anchor="start" x="173.5" y="-122.5" font-family="Helvetica,sans-Serif" font-size="10.00">getState()</text>
<text text-anchor="start" x="156.25" y="-106.5" font-family="Helvetica,sans-Serif" font-size="10.00">+</text>
<text text-anchor="start" x="173.5" y="-106.5" font-family="Helvetica,sans-Serif" font-size="10.00">update()</text>
<polygon fill="#666666" stroke="#666666" points="145,-262 145,-262 272.25,-262 272.25,-262 145,-262"/>
<polygon fill="#666666" stroke="#666666" points="145,-246 145,-246 171.5,-246 171.5,-246 145,-246"/>
<polygon fill="#666666" stroke="#666666" points="171.5,-246 171.5,-246 272.25,-246 272.25,-246 171.5,-246"/>
<polygon fill="none" stroke="#666666" points="145,-100 145,-292 272.25,-292 272.25,-100 145,-100"/>
</a>
</g>
</g>
<!-- Node3&#45;&gt;Node1 -->
<g id="edge2_Node000001_Node000003" class="edge">
<title>Node3&#45;&gt;Node1</title>
<g id="a_edge2_Node000001_Node000003"><a xlink:title=" ">
<path fill="none" stroke="#63b8ff" d="M208.62,-100.2C208.62,-87.64 208.62,-75.41 208.62,-64.65"/>
<polygon fill="none" stroke="#63b8ff" points="208.63,-64.8 204.63,-58.8 208.63,-52.8 212.63,-58.8 208.63,-64.8"/>
</a>
</g>
<text text-anchor="middle" x="227.38" y="-72.5" font-family="Helvetica,sans-Serif" font-size="10.00" fill="grey"> +quality</text>
</g>
<!-- Node4 -->
<g id="Node000004" class="node">
<title>Node4</title>
<g id="a_Node000004"><a xlink:href="../../d6/d80/a01076.html" target="_top" xlink:title="Holds information about the connection.">
<polygon fill="white" stroke="none" points="417.25,-236 290,-236 290,-156 417.25,-156 417.25,-236"/>
<text text-anchor="start" x="294" y="-222.5" font-family="Helvetica,sans-Serif" font-size="10.00">Lib::Xbee::API::Connection</text>
<text text-anchor="start" x="342.38" y="-210.5" font-family="Helvetica,sans-Serif" font-size="10.00">::Info</text>
<text text-anchor="start" x="352.12" y="-194.5" font-family="Helvetica,sans-Serif" font-size="10.00"> </text>
<text text-anchor="start" x="314.19" y="-178.5" font-family="Helvetica,sans-Serif" font-size="10.00">+</text>
<text text-anchor="start" x="344.38" y="-178.5" font-family="Helvetica,sans-Serif" font-size="10.00">Info()</text>
<text text-anchor="start" x="314.19" y="-162.5" font-family="Helvetica,sans-Serif" font-size="10.00">+</text>
<text text-anchor="start" x="344.38" y="-162.5" font-family="Helvetica,sans-Serif" font-size="10.00">~Info()</text>
<polygon fill="#666666" stroke="#666666" points="290,-206 290,-206 417.25,-206 417.25,-206 290,-206"/>
<polygon fill="#666666" stroke="#666666" points="290,-190 290,-190 417.25,-190 417.25,-190 290,-190"/>
<polygon fill="none" stroke="#666666" points="290,-156 290,-236 417.25,-236 417.25,-156 290,-156"/>
</a>
</g>
</g>
<!-- Node4&#45;&gt;Node1 -->
<g id="edge3_Node000001_Node000004" class="edge">
<title>Node4&#45;&gt;Node1</title>
<g id="a_edge3_Node000001_Node000004"><a xlink:title=" ">
<path fill="none" stroke="#63b8ff" d="M326.05,-156.15C313.1,-138.57 297.13,-117.78 281.62,-100 269.99,-86.65 256.46,-72.73 244.23,-60.67"/>
<polygon fill="none" stroke="#63b8ff" points="244.42,-60.86 237.33,-59.53 235.83,-52.48 242.92,-53.8 244.42,-60.86"/>
</a>
</g>
<text text-anchor="middle" x="276.81" y="-72.5" font-family="Helvetica,sans-Serif" font-size="10.00" fill="grey"> +info</text>
</g>
<!-- Node5 -->
<g id="Node000005" class="node">
<title>Node5</title>
<g id="a_Node000005"><a xlink:href="../../da/db7/a01088.html" target="_top" xlink:title="Manages the signal strength value.">
<polygon fill="white" stroke="none" points="272.25,-576 145,-576 145,-448 272.25,-448 272.25,-576"/>
<text text-anchor="start" x="149" y="-562.5" font-family="Helvetica,sans-Serif" font-size="10.00">Lib::Xbee::API::Connection</text>
<text text-anchor="start" x="162.5" y="-550.5" font-family="Helvetica,sans-Serif" font-size="10.00">::Info::SignalStrength</text>
<text text-anchor="start" x="207.12" y="-534.5" font-family="Helvetica,sans-Serif" font-size="10.00"> </text>
<text text-anchor="start" x="157.94" y="-518.5" font-family="Helvetica,sans-Serif" font-size="10.00">+</text>
<text text-anchor="start" x="176.88" y="-518.5" font-family="Helvetica,sans-Serif" font-size="10.00">SignalStrength()</text>
<text text-anchor="start" x="157.94" y="-502.5" font-family="Helvetica,sans-Serif" font-size="10.00">+</text>
<text text-anchor="start" x="176.88" y="-502.5" font-family="Helvetica,sans-Serif" font-size="10.00">SignalStrength()</text>
<text text-anchor="start" x="157.94" y="-486.5" font-family="Helvetica,sans-Serif" font-size="10.00">+</text>
<text text-anchor="start" x="176.88" y="-486.5" font-family="Helvetica,sans-Serif" font-size="10.00">operator=()</text>
<text text-anchor="start" x="157.94" y="-470.5" font-family="Helvetica,sans-Serif" font-size="10.00">+</text>
<text text-anchor="start" x="176.88" y="-470.5" font-family="Helvetica,sans-Serif" font-size="10.00">operator uint8_t()</text>
<text text-anchor="start" x="157.94" y="-454.5" font-family="Helvetica,sans-Serif" font-size="10.00">+</text>
<text text-anchor="start" x="176.88" y="-454.5" font-family="Helvetica,sans-Serif" font-size="10.00">toPercent()</text>
<polygon fill="#666666" stroke="#666666" points="145,-546 145,-546 272.25,-546 272.25,-546 145,-546"/>
<polygon fill="#666666" stroke="#666666" points="145,-530 145,-530 272.25,-530 272.25,-530 145,-530"/>
<polygon fill="none" stroke="#666666" points="145,-448 145,-576 272.25,-576 272.25,-448 145,-448"/>
</a>
</g>
</g>
<!-- Node5&#45;&gt;Node4 -->
<g id="edge4_Node000004_Node000005" class="edge">
<title>Node5&#45;&gt;Node4</title>
<g id="a_edge4_Node000004_Node000005"><a xlink:title=" ">
<path fill="none" stroke="#63b8ff" d="M225.92,-448.22C238.15,-407.72 256.29,-354.5 278.38,-310 289.2,-288.19 303.54,-265.58 316.8,-246.37"/>
<polygon fill="none" stroke="#63b8ff" points="316.82,-246.34 317,-239.13 323.72,-236.52 323.54,-243.73 316.82,-246.34"/>
</a>
</g>
<text text-anchor="middle" x="314" y="-342.5" font-family="Helvetica,sans-Serif" font-size="10.00" fill="grey"> +signalStrength</text>
</g>
<!-- Node6 -->
<g id="Node000006" class="node">
<title>Node6</title>
<g id="a_Node000006"><a xlink:href="../../da/d93/a01084.html" target="_top" xlink:title="A class to measure and track time periods with minimum, maximum, and average values.">
<polygon fill="white" stroke="none" points="417.25,-624 290,-624 290,-400 417.25,-400 417.25,-624"/>
<text text-anchor="start" x="294" y="-610.5" font-family="Helvetica,sans-Serif" font-size="10.00">Lib::Xbee::API::Connection</text>
<text text-anchor="start" x="325.5" y="-598.5" font-family="Helvetica,sans-Serif" font-size="10.00">::Info::Period</text>
<text text-anchor="start" x="352.12" y="-582.5" font-family="Helvetica,sans-Serif" font-size="10.00"> </text>
<text text-anchor="start" x="299.19" y="-566.5" font-family="Helvetica,sans-Serif" font-size="10.00">+</text>
<text text-anchor="start" x="314.38" y="-566.5" font-family="Helvetica,sans-Serif" font-size="10.00">Period()</text>
<text text-anchor="start" x="299.19" y="-550.5" font-family="Helvetica,sans-Serif" font-size="10.00">+</text>
<text text-anchor="start" x="314.38" y="-550.5" font-family="Helvetica,sans-Serif" font-size="10.00">getValue()</text>
<text text-anchor="start" x="299.19" y="-534.5" font-family="Helvetica,sans-Serif" font-size="10.00">+</text>
<text text-anchor="start" x="314.38" y="-534.5" font-family="Helvetica,sans-Serif" font-size="10.00">getRawValue()</text>
<text text-anchor="start" x="299.19" y="-518.5" font-family="Helvetica,sans-Serif" font-size="10.00">+</text>
<text text-anchor="start" x="314.38" y="-518.5" font-family="Helvetica,sans-Serif" font-size="10.00">getMinimum()</text>
<text text-anchor="start" x="299.19" y="-502.5" font-family="Helvetica,sans-Serif" font-size="10.00">+</text>
<text text-anchor="start" x="314.38" y="-502.5" font-family="Helvetica,sans-Serif" font-size="10.00">getMaximum()</text>
<text text-anchor="start" x="299.19" y="-486.5" font-family="Helvetica,sans-Serif" font-size="10.00">+</text>
<text text-anchor="start" x="314.38" y="-486.5" font-family="Helvetica,sans-Serif" font-size="10.00">clearMinMax()</text>
<text text-anchor="start" x="299.19" y="-470.5" font-family="Helvetica,sans-Serif" font-size="10.00">+</text>
<text text-anchor="start" x="314.38" y="-470.5" font-family="Helvetica,sans-Serif" font-size="10.00">beginMeasurement()</text>
<text text-anchor="start" x="299.19" y="-454.5" font-family="Helvetica,sans-Serif" font-size="10.00">+</text>
<text text-anchor="start" x="314.38" y="-454.5" font-family="Helvetica,sans-Serif" font-size="10.00">endMeasurement()</text>
<text text-anchor="start" x="299.19" y="-438.5" font-family="Helvetica,sans-Serif" font-size="10.00">+</text>
<text text-anchor="start" x="314.38" y="-438.5" font-family="Helvetica,sans-Serif" font-size="10.00">stopMeasurement()</text>
<text text-anchor="start" x="299.19" y="-422.5" font-family="Helvetica,sans-Serif" font-size="10.00">+</text>
<text text-anchor="start" x="314.38" y="-422.5" font-family="Helvetica,sans-Serif" font-size="10.00">reset()</text>
<text text-anchor="start" x="299.19" y="-406.5" font-family="Helvetica,sans-Serif" font-size="10.00">+</text>
<text text-anchor="start" x="314.38" y="-406.5" font-family="Helvetica,sans-Serif" font-size="10.00">operator uint32_t()</text>
<polygon fill="#666666" stroke="#666666" points="290,-594 290,-594 417.25,-594 417.25,-594 290,-594"/>
<polygon fill="#666666" stroke="#666666" points="290,-578 290,-578 417.25,-578 417.25,-578 290,-578"/>
<polygon fill="none" stroke="#666666" points="290,-400 290,-624 417.25,-624 417.25,-400 290,-400"/>
</a>
</g>
</g>
<!-- Node6&#45;&gt;Node4 -->
<g id="edge5_Node000004_Node000006" class="edge">
<title>Node6&#45;&gt;Node4</title>
<g id="a_edge5_Node000004_Node000006"><a xlink:title=" ">
<path fill="none" stroke="#63b8ff" d="M353.62,-400.3C353.62,-348.79 353.62,-289.98 353.62,-248.91"/>
<polygon fill="none" stroke="#63b8ff" points="353.63,-248.86 349.63,-242.86 353.63,-236.86 357.63,-242.86 353.63,-248.86"/>
</a>
</g>
<text text-anchor="middle" x="389.62" y="-342.5" font-family="Helvetica,sans-Serif" font-size="10.00" fill="grey"> +transmitPeriod</text>
</g>
<!-- Node7 -->
<g id="Node000007" class="node">
<title>Node7</title>
<g id="a_Node000007"><a xlink:href="../../d9/d67/a01080.html" target="_top" xlink:title="A simple counter class that increments its value up to a maximum limit.">
<polygon fill="white" stroke="none" points="562.25,-568 435,-568 435,-456 562.25,-456 562.25,-568"/>
<text text-anchor="start" x="439" y="-554.5" font-family="Helvetica,sans-Serif" font-size="10.00">Lib::Xbee::API::Connection</text>
<text text-anchor="start" x="467.12" y="-542.5" font-family="Helvetica,sans-Serif" font-size="10.00">::Info::Counter</text>
<text text-anchor="start" x="497.12" y="-526.5" font-family="Helvetica,sans-Serif" font-size="10.00"> </text>
<text text-anchor="start" x="446.62" y="-510.5" font-family="Helvetica,sans-Serif" font-size="10.00">+</text>
<text text-anchor="start" x="464.25" y="-510.5" font-family="Helvetica,sans-Serif" font-size="10.00">Counter()</text>
<text text-anchor="start" x="446.62" y="-494.5" font-family="Helvetica,sans-Serif" font-size="10.00">+</text>
<text text-anchor="start" x="464.25" y="-494.5" font-family="Helvetica,sans-Serif" font-size="10.00">operator uint32_t()</text>
<text text-anchor="start" x="446.62" y="-478.5" font-family="Helvetica,sans-Serif" font-size="10.00">+</text>
<text text-anchor="start" x="464.25" y="-478.5" font-family="Helvetica,sans-Serif" font-size="10.00">clear()</text>
<text text-anchor="start" x="446.62" y="-462.5" font-family="Helvetica,sans-Serif" font-size="10.00">+</text>
<text text-anchor="start" x="464.25" y="-462.5" font-family="Helvetica,sans-Serif" font-size="10.00">operator++()</text>
<polygon fill="#666666" stroke="#666666" points="435,-538 435,-538 562.25,-538 562.25,-538 435,-538"/>
<polygon fill="#666666" stroke="#666666" points="435,-522 435,-522 562.25,-522 562.25,-522 435,-522"/>
<polygon fill="none" stroke="#666666" points="435,-456 435,-568 562.25,-568 562.25,-456 435,-456"/>
</a>
</g>
</g>
<!-- Node7&#45;&gt;Node4 -->
<g id="edge6_Node000004_Node000007" class="edge">
<title>Node7&#45;&gt;Node4</title>
<g id="a_edge6_Node000004_Node000007"><a xlink:title=" ">
<path fill="none" stroke="#63b8ff" d="M484.02,-456.13C472.02,-414.82 453.19,-357.41 429.62,-310 418.8,-288.22 404.4,-265.7 391.05,-246.54"/>
<polygon fill="none" stroke="#63b8ff" points="391.02,-246.5 384.28,-243.92 384.08,-236.72 390.81,-239.3 391.02,-246.5"/>
</a>
</g>
<text text-anchor="middle" x="519.15" y="-372.5" font-family="Helvetica,sans-Serif" font-size="10.00" fill="grey"> +deletedMessages</text>
<text text-anchor="middle" x="519.15" y="-360.5" font-family="Helvetica,sans-Serif" font-size="10.00" fill="grey">+deletedTransmitStatus</text>
<text text-anchor="middle" x="519.15" y="-348.5" font-family="Helvetica,sans-Serif" font-size="10.00" fill="grey">+noTransmitStatus</text>
<text text-anchor="middle" x="519.15" y="-336.5" font-family="Helvetica,sans-Serif" font-size="10.00" fill="grey">+reconnectionCounter</text>
<text text-anchor="middle" x="519.15" y="-324.5" font-family="Helvetica,sans-Serif" font-size="10.00" fill="grey">+retriesCounter</text>
<text text-anchor="middle" x="519.15" y="-312.5" font-family="Helvetica,sans-Serif" font-size="10.00" fill="grey">+unsuccessTransmitStatus</text>
</g>
</g>
</svg>
