<?xml version="1.0" encoding="UTF-8" standalone="no"?>
<!DOCTYPE svg PUBLIC "-//W3C//DTD SVG 1.1//EN"
 "http://www.w3.org/Graphics/SVG/1.1/DTD/svg11.dtd">
<!-- Generated by graphviz version 12.2.1 (20241206.2353)
 -->
<!-- Title: Lib::Digi::API::Connection Pages: 1 -->
<svg width="572pt" height="648pt"
 viewBox="0.00 0.00 571.67 648.00" xmlns="http://www.w3.org/2000/svg" xmlns:xlink="http://www.w3.org/1999/xlink">
<g id="graph0" class="graph" transform="scale(1 1) rotate(0) translate(4 644)">
<title>Lib::Digi::API::Connection</title>
<!-- Node1 -->
<g id="Node000001" class="node">
<title>Node1</title>
<g id="a_Node000001"><a xlink:title="Manages and monitors the state and quality of an XBee connection.">
<polygon fill="#999999" stroke="none" points="262,-52 140,-52 140,0 262,0 262,-52"/>
<text text-anchor="start" x="144" y="-38.5" font-family="Helvetica,sans-Serif" font-size="10.00">Lib::Digi::API::Connection</text>
<text text-anchor="start" x="199.5" y="-22.5" font-family="Helvetica,sans-Serif" font-size="10.00"> </text>
<text text-anchor="start" x="156.12" y="-6.5" font-family="Helvetica,sans-Serif" font-size="10.00">+</text>
<text text-anchor="start" x="178.25" y="-6.5" font-family="Helvetica,sans-Serif" font-size="10.00">Connection()</text>
<polygon fill="#666666" stroke="#666666" points="140,-34 140,-34 262,-34 262,-34 140,-34"/>
<polygon fill="#666666" stroke="#666666" points="140,-18 140,-18 262,-18 262,-18 140,-18"/>
<polygon fill="none" stroke="#666666" points="140,0 140,-52 262,-52 262,0 140,0"/>
</a>
</g>
</g>
<!-- Node2 -->
<g id="Node000002" class="node">
<title>Node2</title>
<g id="a_Node000002"><a xlink:href="../../d1/de6/a01068.html" target="_top" xlink:title="Represents the state of a connection.">
<polygon fill="white" stroke="none" points="122,-268 0,-268 0,-124 122,-124 122,-268"/>
<text text-anchor="start" x="4" y="-254.5" font-family="Helvetica,sans-Serif" font-size="10.00">Lib::Digi::API::Connection</text>
<text text-anchor="start" x="46.38" y="-242.5" font-family="Helvetica,sans-Serif" font-size="10.00">::State</text>
<text text-anchor="start" x="5.25" y="-226.5" font-family="Helvetica,sans-Serif" font-size="10.00">+</text>
<text text-anchor="start" x="16.5" y="-226.5" font-family="Helvetica,sans-Serif" font-size="10.00">onConnectionChanged</text>
<text text-anchor="start" x="5.25" y="-210.5" font-family="Helvetica,sans-Serif" font-size="10.00">+</text>
<text text-anchor="start" x="16.5" y="-210.5" font-family="Helvetica,sans-Serif" font-size="10.00">State()</text>
<text text-anchor="start" x="5.25" y="-194.5" font-family="Helvetica,sans-Serif" font-size="10.00">+</text>
<text text-anchor="start" x="16.5" y="-194.5" font-family="Helvetica,sans-Serif" font-size="10.00">State()</text>
<text text-anchor="start" x="5.25" y="-178.5" font-family="Helvetica,sans-Serif" font-size="10.00">+</text>
<text text-anchor="start" x="16.5" y="-178.5" font-family="Helvetica,sans-Serif" font-size="10.00">operator=()</text>
<text text-anchor="start" x="5.25" y="-162.5" font-family="Helvetica,sans-Serif" font-size="10.00">+</text>
<text text-anchor="start" x="16.5" y="-162.5" font-family="Helvetica,sans-Serif" font-size="10.00">operator uint32_t()</text>
<text text-anchor="start" x="5.25" y="-146.5" font-family="Helvetica,sans-Serif" font-size="10.00">+</text>
<text text-anchor="start" x="16.5" y="-146.5" font-family="Helvetica,sans-Serif" font-size="10.00">isConnected()</text>
<text text-anchor="start" x="5.25" y="-130.5" font-family="Helvetica,sans-Serif" font-size="10.00">+</text>
<text text-anchor="start" x="16.5" y="-130.5" font-family="Helvetica,sans-Serif" font-size="10.00">disconnect()</text>
<polygon fill="#666666" stroke="#666666" points="0,-238 0,-238 122,-238 122,-238 0,-238"/>
<polygon fill="#666666" stroke="#666666" points="0,-222 0,-222 14.5,-222 14.5,-222 0,-222"/>
<polygon fill="#666666" stroke="#666666" points="14.5,-222 14.5,-222 122,-222 122,-222 14.5,-222"/>
<polygon fill="none" stroke="#666666" points="0,-124 0,-268 122,-268 122,-124 0,-124"/>
</a>
</g>
</g>
<!-- Node2&#45;&gt;Node1 -->
<g id="edge1_Node000001_Node000002" class="edge">
<title>Node2&#45;&gt;Node1</title>
<g id="a_edge1_Node000001_Node000002"><a xlink:title=" ">
<path fill="none" stroke="#63b8ff" d="M111.61,-124.17C117.98,-115.9 124.54,-107.68 131,-100 142.06,-86.86 154.9,-73.1 166.53,-61.11"/>
<polygon fill="none" stroke="#63b8ff" points="166.51,-61.13 167.86,-54.05 174.91,-52.57 173.56,-59.65 166.51,-61.13"/>
</a>
</g>
<text text-anchor="middle" x="172.37" y="-72.5" font-family="Helvetica,sans-Serif" font-size="10.00" fill="grey"> +state</text>
</g>
<!-- Node3 -->
<g id="Node000003" class="node">
<title>Node3</title>
<g id="a_Node000003"><a xlink:href="../../d6/d6a/a01072.html" target="_top" xlink:title="Monitors the quality of an XBee connection.">
<polygon fill="white" stroke="none" points="262,-292 140,-292 140,-100 262,-100 262,-292"/>
<text text-anchor="start" x="144" y="-278.5" font-family="Helvetica,sans-Serif" font-size="10.00">Lib::Digi::API::Connection</text>
<text text-anchor="start" x="182.62" y="-266.5" font-family="Helvetica,sans-Serif" font-size="10.00">::Quality</text>
<text text-anchor="start" x="149.94" y="-250.5" font-family="Helvetica,sans-Serif" font-size="10.00">+</text>
<text text-anchor="start" x="165.88" y="-250.5" font-family="Helvetica,sans-Serif" font-size="10.00">onUpdate</text>
<text text-anchor="start" x="149.94" y="-234.5" font-family="Helvetica,sans-Serif" font-size="10.00">+</text>
<text text-anchor="start" x="165.88" y="-234.5" font-family="Helvetica,sans-Serif" font-size="10.00">Quality()</text>
<text text-anchor="start" x="149.94" y="-218.5" font-family="Helvetica,sans-Serif" font-size="10.00">+</text>
<text text-anchor="start" x="165.88" y="-218.5" font-family="Helvetica,sans-Serif" font-size="10.00">~Quality()</text>
<text text-anchor="start" x="149.94" y="-202.5" font-family="Helvetica,sans-Serif" font-size="10.00">+</text>
<text text-anchor="start" x="165.88" y="-202.5" font-family="Helvetica,sans-Serif" font-size="10.00">start()</text>
<text text-anchor="start" x="149.94" y="-186.5" font-family="Helvetica,sans-Serif" font-size="10.00">+</text>
<text text-anchor="start" x="165.88" y="-186.5" font-family="Helvetica,sans-Serif" font-size="10.00">clear()</text>
<text text-anchor="start" x="149.94" y="-170.5" font-family="Helvetica,sans-Serif" font-size="10.00">+</text>
<text text-anchor="start" x="165.88" y="-170.5" font-family="Helvetica,sans-Serif" font-size="10.00">setRuntimeMode()</text>
<text text-anchor="start" x="149.94" y="-154.5" font-family="Helvetica,sans-Serif" font-size="10.00">+</text>
<text text-anchor="start" x="165.88" y="-154.5" font-family="Helvetica,sans-Serif" font-size="10.00">setScannerMode()</text>
<text text-anchor="start" x="149.94" y="-138.5" font-family="Helvetica,sans-Serif" font-size="10.00">+</text>
<text text-anchor="start" x="165.88" y="-138.5" font-family="Helvetica,sans-Serif" font-size="10.00">getPercent()</text>
<text text-anchor="start" x="149.94" y="-122.5" font-family="Helvetica,sans-Serif" font-size="10.00">+</text>
<text text-anchor="start" x="165.88" y="-122.5" font-family="Helvetica,sans-Serif" font-size="10.00">getState()</text>
<text text-anchor="start" x="149.94" y="-106.5" font-family="Helvetica,sans-Serif" font-size="10.00">+</text>
<text text-anchor="start" x="165.88" y="-106.5" font-family="Helvetica,sans-Serif" font-size="10.00">update()</text>
<polygon fill="#666666" stroke="#666666" points="140,-262 140,-262 262,-262 262,-262 140,-262"/>
<polygon fill="#666666" stroke="#666666" points="140,-246 140,-246 163.88,-246 163.88,-246 140,-246"/>
<polygon fill="#666666" stroke="#666666" points="163.88,-246 163.88,-246 262,-246 262,-246 163.88,-246"/>
<polygon fill="none" stroke="#666666" points="140,-100 140,-292 262,-292 262,-100 140,-100"/>
</a>
</g>
</g>
<!-- Node3&#45;&gt;Node1 -->
<g id="edge2_Node000001_Node000003" class="edge">
<title>Node3&#45;&gt;Node1</title>
<g id="a_edge2_Node000001_Node000003"><a xlink:title=" ">
<path fill="none" stroke="#63b8ff" d="M201,-100.2C201,-87.64 201,-75.41 201,-64.65"/>
<polygon fill="none" stroke="#63b8ff" points="201,-64.8 197,-58.8 201,-52.8 205,-58.8 201,-64.8"/>
</a>
</g>
<text text-anchor="middle" x="219.75" y="-72.5" font-family="Helvetica,sans-Serif" font-size="10.00" fill="grey"> +quality</text>
</g>
<!-- Node4 -->
<g id="Node000004" class="node">
<title>Node4</title>
<g id="a_Node000004"><a xlink:href="../../d6/d80/a01076.html" target="_top" xlink:title="Holds information about the connection.">
<polygon fill="white" stroke="none" points="402,-236 280,-236 280,-156 402,-156 402,-236"/>
<text text-anchor="start" x="284" y="-222.5" font-family="Helvetica,sans-Serif" font-size="10.00">Lib::Digi::API::Connection</text>
<text text-anchor="start" x="329.75" y="-210.5" font-family="Helvetica,sans-Serif" font-size="10.00">::Info</text>
<text text-anchor="start" x="339.5" y="-194.5" font-family="Helvetica,sans-Serif" font-size="10.00"> </text>
<text text-anchor="start" x="302.88" y="-178.5" font-family="Helvetica,sans-Serif" font-size="10.00">+</text>
<text text-anchor="start" x="331.75" y="-178.5" font-family="Helvetica,sans-Serif" font-size="10.00">Info()</text>
<text text-anchor="start" x="302.88" y="-162.5" font-family="Helvetica,sans-Serif" font-size="10.00">+</text>
<text text-anchor="start" x="331.75" y="-162.5" font-family="Helvetica,sans-Serif" font-size="10.00">~Info()</text>
<polygon fill="#666666" stroke="#666666" points="280,-206 280,-206 402,-206 402,-206 280,-206"/>
<polygon fill="#666666" stroke="#666666" points="280,-190 280,-190 402,-190 402,-190 280,-190"/>
<polygon fill="none" stroke="#666666" points="280,-156 280,-236 402,-236 402,-156 280,-156"/>
</a>
</g>
</g>
<!-- Node4&#45;&gt;Node1 -->
<g id="edge3_Node000001_Node000004" class="edge">
<title>Node4&#45;&gt;Node1</title>
<g id="a_edge3_Node000001_Node000004"><a xlink:title=" ">
<path fill="none" stroke="#63b8ff" d="M314.05,-156.32C301.43,-138.77 285.92,-117.97 271,-100 259.35,-85.97 255.6,-83.19 243,-70 240.28,-67.15 237.44,-64.2 234.59,-61.25"/>
<polygon fill="none" stroke="#63b8ff" points="234.52,-61.17 227.47,-59.66 226.15,-52.56 233.2,-54.08 234.52,-61.17"/>
</a>
</g>
<text text-anchor="middle" x="266.82" y="-72.5" font-family="Helvetica,sans-Serif" font-size="10.00" fill="grey"> +info</text>
</g>
<!-- Node5 -->
<g id="Node000005" class="node">
<title>Node5</title>
<g id="a_Node000005"><a xlink:href="../../da/db7/a01088.html" target="_top" xlink:title="Manages the signal strength value.">
<polygon fill="white" stroke="none" points="262,-584 140,-584 140,-456 262,-456 262,-584"/>
<text text-anchor="start" x="144" y="-570.5" font-family="Helvetica,sans-Serif" font-size="10.00">Lib::Digi::API::Connection</text>
<text text-anchor="start" x="154.88" y="-558.5" font-family="Helvetica,sans-Serif" font-size="10.00">::Info::SignalStrength</text>
<text text-anchor="start" x="199.5" y="-542.5" font-family="Helvetica,sans-Serif" font-size="10.00"> </text>
<text text-anchor="start" x="151.62" y="-526.5" font-family="Helvetica,sans-Serif" font-size="10.00">+</text>
<text text-anchor="start" x="169.25" y="-526.5" font-family="Helvetica,sans-Serif" font-size="10.00">SignalStrength()</text>
<text text-anchor="start" x="151.62" y="-510.5" font-family="Helvetica,sans-Serif" font-size="10.00">+</text>
<text text-anchor="start" x="169.25" y="-510.5" font-family="Helvetica,sans-Serif" font-size="10.00">SignalStrength()</text>
<text text-anchor="start" x="151.62" y="-494.5" font-family="Helvetica,sans-Serif" font-size="10.00">+</text>
<text text-anchor="start" x="169.25" y="-494.5" font-family="Helvetica,sans-Serif" font-size="10.00">operator=()</text>
<text text-anchor="start" x="151.62" y="-478.5" font-family="Helvetica,sans-Serif" font-size="10.00">+</text>
<text text-anchor="start" x="169.25" y="-478.5" font-family="Helvetica,sans-Serif" font-size="10.00">operator uint8_t()</text>
<text text-anchor="start" x="151.62" y="-462.5" font-family="Helvetica,sans-Serif" font-size="10.00">+</text>
<text text-anchor="start" x="169.25" y="-462.5" font-family="Helvetica,sans-Serif" font-size="10.00">toPercent()</text>
<polygon fill="#666666" stroke="#666666" points="140,-554 140,-554 262,-554 262,-554 140,-554"/>
<polygon fill="#666666" stroke="#666666" points="140,-538 140,-538 262,-538 262,-538 140,-538"/>
<polygon fill="none" stroke="#666666" points="140,-456 140,-584 262,-584 262,-456 140,-456"/>
</a>
</g>
</g>
<!-- Node5&#45;&gt;Node4 -->
<g id="edge4_Node000004_Node000005" class="edge">
<title>Node5&#45;&gt;Node4</title>
<g id="a_edge4_Node000004_Node000005"><a xlink:title=" ">
<path fill="none" stroke="#63b8ff" d="M215.36,-456.43C226.3,-413.96 243.32,-357.17 265.75,-310 276.17,-288.1 290.36,-265.55 303.62,-246.42"/>
<polygon fill="none" stroke="#63b8ff" points="303.63,-246.41 303.82,-239.2 310.55,-236.6 310.36,-243.81 303.63,-246.41"/>
</a>
</g>
<text text-anchor="middle" x="301.38" y="-342.5" font-family="Helvetica,sans-Serif" font-size="10.00" fill="grey"> +signalStrength</text>
</g>
<!-- Node6 -->
<g id="Node000006" class="node">
<title>Node6</title>
<g id="a_Node000006"><a xlink:href="../../da/d93/a01084.html" target="_top" xlink:title="A class to measure and track time periods with minimum, maximum, and average values.">
<polygon fill="white" stroke="none" points="402,-640 280,-640 280,-400 402,-400 402,-640"/>
<text text-anchor="start" x="284" y="-626.5" font-family="Helvetica,sans-Serif" font-size="10.00">Lib::Digi::API::Connection</text>
<text text-anchor="start" x="312.88" y="-614.5" font-family="Helvetica,sans-Serif" font-size="10.00">::Info::Period</text>
<text text-anchor="start" x="339.5" y="-598.5" font-family="Helvetica,sans-Serif" font-size="10.00"> </text>
<text text-anchor="start" x="287.88" y="-582.5" font-family="Helvetica,sans-Serif" font-size="10.00">+</text>
<text text-anchor="start" x="301.75" y="-582.5" font-family="Helvetica,sans-Serif" font-size="10.00">Period()</text>
<text text-anchor="start" x="287.88" y="-566.5" font-family="Helvetica,sans-Serif" font-size="10.00">+</text>
<text text-anchor="start" x="301.75" y="-566.5" font-family="Helvetica,sans-Serif" font-size="10.00">~Period()</text>
<text text-anchor="start" x="287.88" y="-550.5" font-family="Helvetica,sans-Serif" font-size="10.00">+</text>
<text text-anchor="start" x="301.75" y="-550.5" font-family="Helvetica,sans-Serif" font-size="10.00">getValue()</text>
<text text-anchor="start" x="287.88" y="-534.5" font-family="Helvetica,sans-Serif" font-size="10.00">+</text>
<text text-anchor="start" x="301.75" y="-534.5" font-family="Helvetica,sans-Serif" font-size="10.00">getRawValue()</text>
<text text-anchor="start" x="287.88" y="-518.5" font-family="Helvetica,sans-Serif" font-size="10.00">+</text>
<text text-anchor="start" x="301.75" y="-518.5" font-family="Helvetica,sans-Serif" font-size="10.00">getMinimum()</text>
<text text-anchor="start" x="287.88" y="-502.5" font-family="Helvetica,sans-Serif" font-size="10.00">+</text>
<text text-anchor="start" x="301.75" y="-502.5" font-family="Helvetica,sans-Serif" font-size="10.00">getMaximum()</text>
<text text-anchor="start" x="287.88" y="-486.5" font-family="Helvetica,sans-Serif" font-size="10.00">+</text>
<text text-anchor="start" x="301.75" y="-486.5" font-family="Helvetica,sans-Serif" font-size="10.00">clearMinMax()</text>
<text text-anchor="start" x="287.88" y="-470.5" font-family="Helvetica,sans-Serif" font-size="10.00">+</text>
<text text-anchor="start" x="301.75" y="-470.5" font-family="Helvetica,sans-Serif" font-size="10.00">beginMeasurement()</text>
<text text-anchor="start" x="287.88" y="-454.5" font-family="Helvetica,sans-Serif" font-size="10.00">+</text>
<text text-anchor="start" x="301.75" y="-454.5" font-family="Helvetica,sans-Serif" font-size="10.00">endMeasurement()</text>
<text text-anchor="start" x="287.88" y="-438.5" font-family="Helvetica,sans-Serif" font-size="10.00">+</text>
<text text-anchor="start" x="301.75" y="-438.5" font-family="Helvetica,sans-Serif" font-size="10.00">stopMeasurement()</text>
<text text-anchor="start" x="287.88" y="-422.5" font-family="Helvetica,sans-Serif" font-size="10.00">+</text>
<text text-anchor="start" x="301.75" y="-422.5" font-family="Helvetica,sans-Serif" font-size="10.00">reset()</text>
<text text-anchor="start" x="287.88" y="-406.5" font-family="Helvetica,sans-Serif" font-size="10.00">+</text>
<text text-anchor="start" x="301.75" y="-406.5" font-family="Helvetica,sans-Serif" font-size="10.00">operator uint32_t()</text>
<polygon fill="#666666" stroke="#666666" points="280,-610 280,-610 402,-610 402,-610 280,-610"/>
<polygon fill="#666666" stroke="#666666" points="280,-594 280,-594 402,-594 402,-594 280,-594"/>
<polygon fill="none" stroke="#666666" points="280,-400 280,-640 402,-640 402,-400 280,-400"/>
</a>
</g>
</g>
<!-- Node6&#45;&gt;Node4 -->
<g id="edge5_Node000004_Node000006" class="edge">
<title>Node6&#45;&gt;Node4</title>
<g id="a_edge5_Node000004_Node000006"><a xlink:title=" ">
<path fill="none" stroke="#63b8ff" d="M341,-400.01C341,-347.91 341,-289.5 341,-248.75"/>
<polygon fill="none" stroke="#63b8ff" points="341,-248.81 337,-242.81 341,-236.81 345,-242.81 341,-248.81"/>
</a>
</g>
<text text-anchor="middle" x="377" y="-342.5" font-family="Helvetica,sans-Serif" font-size="10.00" fill="grey"> +transmitPeriod</text>
</g>
<!-- Node7 -->
<g id="Node000007" class="node">
<title>Node7</title>
<g id="a_Node000007"><a xlink:href="../../d9/d67/a01080.html" target="_top" xlink:title="A simple counter class that increments its value up to a maximum limit.">
<polygon fill="white" stroke="none" points="542,-576 420,-576 420,-464 542,-464 542,-576"/>
<text text-anchor="start" x="424" y="-562.5" font-family="Helvetica,sans-Serif" font-size="10.00">Lib::Digi::API::Connection</text>
<text text-anchor="start" x="449.5" y="-550.5" font-family="Helvetica,sans-Serif" font-size="10.00">::Info::Counter</text>
<text text-anchor="start" x="479.5" y="-534.5" font-family="Helvetica,sans-Serif" font-size="10.00"> </text>
<text text-anchor="start" x="430.31" y="-518.5" font-family="Helvetica,sans-Serif" font-size="10.00">+</text>
<text text-anchor="start" x="446.62" y="-518.5" font-family="Helvetica,sans-Serif" font-size="10.00">Counter()</text>
<text text-anchor="start" x="430.31" y="-502.5" font-family="Helvetica,sans-Serif" font-size="10.00">+</text>
<text text-anchor="start" x="446.62" y="-502.5" font-family="Helvetica,sans-Serif" font-size="10.00">operator uint32_t()</text>
<text text-anchor="start" x="430.31" y="-486.5" font-family="Helvetica,sans-Serif" font-size="10.00">+</text>
<text text-anchor="start" x="446.62" y="-486.5" font-family="Helvetica,sans-Serif" font-size="10.00">clear()</text>
<text text-anchor="start" x="430.31" y="-470.5" font-family="Helvetica,sans-Serif" font-size="10.00">+</text>
<text text-anchor="start" x="446.62" y="-470.5" font-family="Helvetica,sans-Serif" font-size="10.00">operator++()</text>
<polygon fill="#666666" stroke="#666666" points="420,-546 420,-546 542,-546 542,-546 420,-546"/>
<polygon fill="#666666" stroke="#666666" points="420,-530 420,-530 542,-530 542,-530 420,-530"/>
<polygon fill="none" stroke="#666666" points="420,-464 420,-576 542,-576 542,-464 420,-464"/>
</a>
</g>
</g>
<!-- Node7&#45;&gt;Node4 -->
<g id="edge6_Node000004_Node000007" class="edge">
<title>Node7&#45;&gt;Node4</title>
<g id="a_edge6_Node000004_Node000007"><a xlink:title=" ">
<path fill="none" stroke="#63b8ff" d="M468.9,-464.1C458.3,-420.96 440.83,-360.02 417,-310 406.54,-288.04 392.21,-265.48 378.81,-246.35"/>
<polygon fill="none" stroke="#63b8ff" points="378.78,-246.31 372.04,-243.75 371.81,-236.54 378.55,-239.1 378.78,-246.31"/>
</a>
</g>
<text text-anchor="middle" x="503.67" y="-372.5" font-family="Helvetica,sans-Serif" font-size="10.00" fill="grey"> +deletedMessages</text>
<text text-anchor="middle" x="503.67" y="-360.5" font-family="Helvetica,sans-Serif" font-size="10.00" fill="grey">+deletedTransmitStatus</text>
<text text-anchor="middle" x="503.67" y="-348.5" font-family="Helvetica,sans-Serif" font-size="10.00" fill="grey">+noTransmitStatus</text>
<text text-anchor="middle" x="503.67" y="-336.5" font-family="Helvetica,sans-Serif" font-size="10.00" fill="grey">+reconnectionCounter</text>
<text text-anchor="middle" x="503.67" y="-324.5" font-family="Helvetica,sans-Serif" font-size="10.00" fill="grey">+retriesCounter</text>
<text text-anchor="middle" x="503.67" y="-312.5" font-family="Helvetica,sans-Serif" font-size="10.00" fill="grey">+unsuccessTransmitStatus</text>
</g>
</g>
</svg>
