<?xml version="1.0" encoding="UTF-8" standalone="no"?>
<!DOCTYPE svg PUBLIC "-//W3C//DTD SVG 1.1//EN"
 "http://www.w3.org/Graphics/SVG/1.1/DTD/svg11.dtd">
<!-- Generated by graphviz version 13.1.0 (20250701.0955)
 -->
<!-- Title: Lib::BSP::Ethercat::PDI::LAN9252::Interface::Config Pages: 1 -->
<svg width="243pt" height="320pt"
 viewBox="0.00 0.00 243.00 320.00" xmlns="http://www.w3.org/2000/svg" xmlns:xlink="http://www.w3.org/1999/xlink">
<g id="graph0" class="graph" transform="scale(1 1) rotate(0) translate(4 316)">
<title>Lib::BSP::Ethercat::PDI::LAN9252::Interface::Config</title>
<!-- Node1 -->
<g id="Node000001" class="node">
<title>Node1</title>
<g id="a_Node000001"><a xlink:title="Configuration structure for Interface.">
<polygon fill="#999999" stroke="none" points="152.38,-68.5 41.62,-68.5 41.62,0 152.38,0 152.38,-68.5"/>
<text xml:space="preserve" text-anchor="start" x="45.62" y="-55.95" font-family="Arial" font-size="9.00">Lib::BSP::Ethercat</text>
<text xml:space="preserve" text-anchor="start" x="45.62" y="-45.45" font-family="Arial" font-size="9.00">::PDI::LAN9252::Interface</text>
<text xml:space="preserve" text-anchor="start" x="81.25" y="-34.95" font-family="Arial" font-size="9.00">::Config</text>
<text xml:space="preserve" text-anchor="start" x="95.88" y="-20.45" font-family="Arial" font-size="9.00"> </text>
<text xml:space="preserve" text-anchor="start" x="95.88" y="-5.95" font-family="Arial" font-size="9.00"> </text>
<polygon fill="#666666" stroke="#666666" points="41.62,-31 41.62,-31 152.38,-31 152.38,-31 41.62,-31"/>
<polygon fill="#666666" stroke="#666666" points="41.62,-16.5 41.62,-16.5 152.38,-16.5 152.38,-16.5 41.62,-16.5"/>
<polygon fill="none" stroke="#666666" points="41.62,0 41.62,-68.5 152.38,-68.5 152.38,0 41.62,0"/>
</a>
</g>
</g>
<!-- Node2 -->
<g id="Node000002" class="node">
<title>Node2</title>
<g id="a_Node000002"><a xlink:title=" ">
<polygon fill="white" stroke="none" points="98,-190.25 0,-190.25 0,-142.75 98,-142.75 98,-190.25"/>
<text xml:space="preserve" text-anchor="start" x="4" y="-177.7" font-family="Arial" font-size="9.00">SPI_HandleTypeDef *</text>
<text xml:space="preserve" text-anchor="start" x="47.88" y="-163.2" font-family="Arial" font-size="9.00"> </text>
<text xml:space="preserve" text-anchor="start" x="47.88" y="-148.7" font-family="Arial" font-size="9.00"> </text>
<polygon fill="#bfbfbf" stroke="#bfbfbf" points="0,-173.75 0,-173.75 98,-173.75 98,-173.75 0,-173.75"/>
<polygon fill="#bfbfbf" stroke="#bfbfbf" points="0,-159.25 0,-159.25 98,-159.25 98,-159.25 0,-159.25"/>
<polygon fill="none" stroke="#bfbfbf" points="0,-142.75 0,-190.25 98,-190.25 98,-142.75 0,-142.75"/>
</a>
</g>
</g>
<!-- Node2&#45;&gt;Node1 -->
<g id="edge1_Node000001_Node000002" class="edge">
<title>Node2&#45;&gt;Node1</title>
<g id="a_edge1_Node000001_Node000002"><a xlink:title=" ">
<path fill="none" stroke="#63b8ff" d="M53.9,-142.97C57.7,-126.95 63.53,-105.06 70.75,-86.5 71.58,-84.36 72.48,-82.19 73.42,-80.01"/>
<polygon fill="none" stroke="#63b8ff" points="73.36,-80.14 72.24,-73.02 78.39,-69.25 79.5,-76.37 73.36,-80.14"/>
</a>
</g>
<text xml:space="preserve" text-anchor="start" x="73.75" y="-91.45" font-family="Arial" font-size="9.00" fill="grey">+spiHandle</text>
</g>
<!-- Node3 -->
<g id="Node000003" class="node">
<title>Node3</title>
<g id="a_Node000003"><a xlink:href="../../da/dcf/a01558.html" target="_top" xlink:title="GPIO pin handle abstraction.">
<polygon fill="white" stroke="none" points="220,-212 116,-212 116,-121 220,-121 220,-212"/>
<text xml:space="preserve" text-anchor="start" x="120" y="-199.45" font-family="Arial" font-size="9.00">Lib::HAL::GPIO::Handle</text>
<text xml:space="preserve" text-anchor="start" x="166.88" y="-184.95" font-family="Arial" font-size="9.00"> </text>
<text xml:space="preserve" text-anchor="start" x="128.94" y="-170.45" font-family="Arial" font-size="9.00">+</text>
<text xml:space="preserve" text-anchor="start" x="147.12" y="-170.45" font-family="Arial" font-size="9.00">Handle()</text>
<text xml:space="preserve" text-anchor="start" x="128.94" y="-155.95" font-family="Arial" font-size="9.00">+</text>
<text xml:space="preserve" text-anchor="start" x="147.12" y="-155.95" font-family="Arial" font-size="9.00">Handle()</text>
<text xml:space="preserve" text-anchor="start" x="128.94" y="-141.45" font-family="Arial" font-size="9.00">+</text>
<text xml:space="preserve" text-anchor="start" x="147.12" y="-141.45" font-family="Arial" font-size="9.00">~Handle()</text>
<text xml:space="preserve" text-anchor="start" x="128.94" y="-126.95" font-family="Arial" font-size="9.00">+</text>
<text xml:space="preserve" text-anchor="start" x="147.12" y="-126.95" font-family="Arial" font-size="9.00">operator==()</text>
<polygon fill="#666666" stroke="#666666" points="116,-195.5 116,-195.5 220,-195.5 220,-195.5 116,-195.5"/>
<polygon fill="#666666" stroke="#666666" points="116,-181 116,-181 220,-181 220,-181 116,-181"/>
<polygon fill="none" stroke="#666666" points="116,-121 116,-212 220,-212 220,-121 116,-121"/>
</a>
</g>
</g>
<!-- Node3&#45;&gt;Node1 -->
<g id="edge2_Node000001_Node000003" class="edge">
<title>Node3&#45;&gt;Node1</title>
<g id="a_edge2_Node000001_Node000003"><a xlink:title=" ">
<path fill="none" stroke="#63b8ff" d="M143.76,-121.04C136.49,-107.7 128.52,-93.07 121.25,-79.73"/>
<polygon fill="none" stroke="#63b8ff" points="121.25,-79.74 114.87,-76.38 115.51,-69.2 121.89,-72.55 121.25,-79.74"/>
</a>
</g>
<text xml:space="preserve" text-anchor="start" x="135.5" y="-91.45" font-family="Arial" font-size="9.00" fill="grey">+pinSelect</text>
</g>
<!-- Node4 -->
<g id="Node000004" class="node">
<title>Node4</title>
<g id="a_Node000004"><a xlink:title=" ">
<polygon fill="white" stroke="none" points="167.75,-312 92.25,-312 92.25,-264.5 167.75,-264.5 167.75,-312"/>
<text xml:space="preserve" text-anchor="start" x="96.25" y="-299.45" font-family="Arial" font-size="9.00">GPIO_TypeDef *</text>
<text xml:space="preserve" text-anchor="start" x="128.88" y="-284.95" font-family="Arial" font-size="9.00"> </text>
<text xml:space="preserve" text-anchor="start" x="128.88" y="-270.45" font-family="Arial" font-size="9.00"> </text>
<polygon fill="#bfbfbf" stroke="#bfbfbf" points="92.25,-295.5 92.25,-295.5 167.75,-295.5 167.75,-295.5 92.25,-295.5"/>
<polygon fill="#bfbfbf" stroke="#bfbfbf" points="92.25,-281 92.25,-281 167.75,-281 167.75,-281 92.25,-281"/>
<polygon fill="none" stroke="#bfbfbf" points="92.25,-264.5 92.25,-312 167.75,-312 167.75,-264.5 92.25,-264.5"/>
</a>
</g>
</g>
<!-- Node4&#45;&gt;Node3 -->
<g id="edge3_Node000003_Node000004" class="edge">
<title>Node4&#45;&gt;Node3</title>
<g id="a_edge3_Node000003_Node000004"><a xlink:title=" ">
<path fill="none" stroke="#63b8ff" d="M137.15,-264.73C140.84,-253.08 145.53,-238.3 150.14,-223.8"/>
<polygon fill="none" stroke="#63b8ff" points="150.05,-224.05 148.06,-217.12 153.68,-212.61 155.68,-219.54 150.05,-224.05"/>
</a>
</g>
<text xml:space="preserve" text-anchor="start" x="150.86" y="-234.95" font-family="Arial" font-size="9.00" fill="grey">+port</text>
</g>
<!-- Node5 -->
<g id="Node000005" class="node">
<title>Node5</title>
<g id="a_Node000005"><a xlink:title=" ">
<polygon fill="white" stroke="none" points="226.5,-312 185.5,-312 185.5,-264.5 226.5,-264.5 226.5,-312"/>
<text xml:space="preserve" text-anchor="start" x="189.5" y="-299.45" font-family="Arial" font-size="9.00">uint16_t</text>
<text xml:space="preserve" text-anchor="start" x="204.88" y="-284.95" font-family="Arial" font-size="9.00"> </text>
<text xml:space="preserve" text-anchor="start" x="204.88" y="-270.45" font-family="Arial" font-size="9.00"> </text>
<polygon fill="#bfbfbf" stroke="#bfbfbf" points="185.5,-295.5 185.5,-295.5 226.5,-295.5 226.5,-295.5 185.5,-295.5"/>
<polygon fill="#bfbfbf" stroke="#bfbfbf" points="185.5,-281 185.5,-281 226.5,-281 226.5,-281 185.5,-281"/>
<polygon fill="none" stroke="#bfbfbf" points="185.5,-264.5 185.5,-312 226.5,-312 226.5,-264.5 185.5,-264.5"/>
</a>
</g>
</g>
<!-- Node5&#45;&gt;Node3 -->
<g id="edge4_Node000003_Node000005" class="edge">
<title>Node5&#45;&gt;Node3</title>
<g id="a_edge4_Node000003_Node000005"><a xlink:title=" ">
<path fill="none" stroke="#63b8ff" d="M198.85,-264.73C195.16,-253.08 190.47,-238.3 185.86,-223.8"/>
<polygon fill="none" stroke="#63b8ff" points="185.95,-224.05 180.32,-219.54 182.32,-212.61 187.94,-217.12 185.95,-224.05"/>
</a>
</g>
<text xml:space="preserve" text-anchor="start" x="195.62" y="-234.95" font-family="Arial" font-size="9.00" fill="grey">+number</text>
</g>
</g>
</svg>
