<?xml version="1.0" encoding="UTF-8" standalone="no"?>
<!DOCTYPE svg PUBLIC "-//W3C//DTD SVG 1.1//EN"
 "http://www.w3.org/Graphics/SVG/1.1/DTD/svg11.dtd">
<!-- Generated by graphviz version 13.1.0 (20250701.0955)
 -->
<!-- Title: RTOS::Timeout::isExpired Pages: 1 -->
<svg width="311pt" height="66pt"
 viewBox="0.00 0.00 311.00 66.00" xmlns="http://www.w3.org/2000/svg" xmlns:xlink="http://www.w3.org/1999/xlink">
<g id="graph0" class="graph" transform="scale(1 1) rotate(0) translate(4 62)">
<title>RTOS::Timeout::isExpired</title>
<!-- Node1 -->
<g id="Node000001" class="node">
<title>Node1</title>
<g id="a_Node000001"><a xlink:title="Checks if the timeout has expired based on the current tick count.">
<polygon fill="#999999" stroke="#666666" points="130.75,-39 0,-39 0,-19 130.75,-19 130.75,-39"/>
<text xml:space="preserve" text-anchor="middle" x="65.38" y="-25.5" font-family="Helvetica,sans-Serif" font-size="10.00">RTOS::Timeout::isExpired</text>
</a>
</g>
</g>
<!-- Node2 -->
<g id="Node000002" class="node">
<title>Node2</title>
<g id="a_Node000002"><a xlink:href="../../de/d79/a00203.html#a99436921edc453e85e46cf0fe8ba078d" target="_top" xlink:title="Retrieves the current tick count.">
<polygon fill="white" stroke="#666666" points="295.62,-58 173.88,-58 173.88,-38 295.62,-38 295.62,-58"/>
<text xml:space="preserve" text-anchor="middle" x="234.75" y="-44.5" font-family="Helvetica,sans-Serif" font-size="10.00">RTOS::TickCounter::get</text>
</a>
</g>
</g>
<!-- Node1&#45;&gt;Node2 -->
<g id="edge1_Node000001_Node000002" class="edge">
<title>Node1&#45;&gt;Node2</title>
<g id="a_edge1_Node000001_Node000002"><a xlink:title=" ">
<path fill="none" stroke="#63b8ff" d="M131.09,-36.35C141.36,-37.51 152.03,-38.72 162.44,-39.9"/>
<polygon fill="#63b8ff" stroke="#63b8ff" points="161.76,-43.35 172.09,-41 162.55,-36.4 161.76,-43.35"/>
</a>
</g>
</g>
<!-- Node3 -->
<g id="Node000003" class="node">
<title>Node3</title>
<g id="a_Node000003"><a xlink:href="../../d3/dd5/a00215.html#a1c0d42cfc8bef1eddfab7ea49848e88b" target="_top" xlink:title="Checks if the timeout is disabled.">
<polygon fill="white" stroke="#666666" points="302.75,-20 166.75,-20 166.75,0 302.75,0 302.75,-20"/>
<text xml:space="preserve" text-anchor="middle" x="234.75" y="-6.5" font-family="Helvetica,sans-Serif" font-size="10.00">RTOS::Timeout::isDisabled</text>
</a>
</g>
</g>
<!-- Node1&#45;&gt;Node3 -->
<g id="edge2_Node000001_Node000003" class="edge">
<title>Node1&#45;&gt;Node3</title>
<g id="a_edge2_Node000001_Node000003"><a xlink:title=" ">
<path fill="none" stroke="#63b8ff" d="M131.09,-21.65C138.96,-20.76 147.08,-19.84 155.13,-18.92"/>
<polygon fill="#63b8ff" stroke="#63b8ff" points="155.4,-22.42 164.94,-17.81 154.61,-15.46 155.4,-22.42"/>
</a>
</g>
</g>
</g>
</svg>
