<?xml version="1.0" encoding="UTF-8" standalone="no"?>
<!DOCTYPE svg PUBLIC "-//W3C//DTD SVG 1.1//EN"
 "http://www.w3.org/Graphics/SVG/1.1/DTD/svg11.dtd">
<!-- Generated by graphviz version 13.1.0 (20250701.0955)
 -->
<!-- Title: Lib::Xbee::Core::ComDriver::Config Pages: 1 -->
<svg width="253pt" height="324pt"
 viewBox="0.00 0.00 253.00 324.00" xmlns="http://www.w3.org/2000/svg" xmlns:xlink="http://www.w3.org/1999/xlink">
<g id="graph0" class="graph" transform="scale(1 1) rotate(0) translate(4 320)">
<title>Lib::Xbee::Core::ComDriver::Config</title>
<!-- Node1 -->
<g id="Node000001" class="node">
<title>Node1</title>
<g id="a_Node000001"><a xlink:title="Driver configuration structure.">
<polygon fill="#999999" stroke="none" points="150.12,-58 29.62,-58 29.62,0 150.12,0 150.12,-58"/>
<text xml:space="preserve" text-anchor="start" x="33.62" y="-45.45" font-family="Arial" font-size="9.00">Lib::Xbee::Core::ComDriver</text>
<text xml:space="preserve" text-anchor="start" x="74.12" y="-34.95" font-family="Arial" font-size="9.00">::Config</text>
<text xml:space="preserve" text-anchor="start" x="88.75" y="-20.45" font-family="Arial" font-size="9.00"> </text>
<text xml:space="preserve" text-anchor="start" x="88.75" y="-5.95" font-family="Arial" font-size="9.00"> </text>
<polygon fill="#666666" stroke="#666666" points="29.62,-31 29.62,-31 150.12,-31 150.12,-31 29.62,-31"/>
<polygon fill="#666666" stroke="#666666" points="29.62,-16.5 29.62,-16.5 150.12,-16.5 150.12,-16.5 29.62,-16.5"/>
<polygon fill="none" stroke="#666666" points="29.62,0 29.62,-58 150.12,-58 150.12,0 29.62,0"/>
</a>
</g>
</g>
<!-- Node2 -->
<g id="Node000002" class="node">
<title>Node2</title>
<g id="a_Node000002"><a xlink:title=" ">
<polygon fill="white" stroke="none" points="107.75,-194.25 0,-194.25 0,-146.75 107.75,-146.75 107.75,-194.25"/>
<text xml:space="preserve" text-anchor="start" x="4" y="-181.7" font-family="Arial" font-size="9.00">UART_HandleTypeDef *</text>
<text xml:space="preserve" text-anchor="start" x="52.75" y="-167.2" font-family="Arial" font-size="9.00"> </text>
<text xml:space="preserve" text-anchor="start" x="52.75" y="-152.7" font-family="Arial" font-size="9.00"> </text>
<polygon fill="#bfbfbf" stroke="#bfbfbf" points="0,-177.75 0,-177.75 107.75,-177.75 107.75,-177.75 0,-177.75"/>
<polygon fill="#bfbfbf" stroke="#bfbfbf" points="0,-163.25 0,-163.25 107.75,-163.25 107.75,-163.25 0,-163.25"/>
<polygon fill="none" stroke="#bfbfbf" points="0,-146.75 0,-194.25 107.75,-194.25 107.75,-146.75 0,-146.75"/>
</a>
</g>
</g>
<!-- Node2&#45;&gt;Node1 -->
<g id="edge1_Node000001_Node000002" class="edge">
<title>Node2&#45;&gt;Node1</title>
<g id="a_edge1_Node000001_Node000002"><a xlink:title=" ">
<path fill="none" stroke="#63b8ff" d="M59.74,-146.78C65.1,-126 73.15,-94.81 79.58,-69.88"/>
<polygon fill="none" stroke="#63b8ff" points="79.55,-70 77.18,-63.19 82.55,-58.38 84.92,-65.19 79.55,-70"/>
</a>
</g>
<text xml:space="preserve" text-anchor="start" x="80.2" y="-95.45" font-family="Arial" font-size="9.00" fill="grey">+rxHandle</text>
<text xml:space="preserve" text-anchor="start" x="80.2" y="-80.95" font-family="Arial" font-size="9.00" fill="grey">+txHandle</text>
</g>
<!-- Node3 -->
<g id="Node000003" class="node">
<title>Node3</title>
<g id="a_Node000003"><a xlink:href="../../da/dcf/a01558.html" target="_top" xlink:title="GPIO pin handle abstraction.">
<polygon fill="white" stroke="none" points="229.88,-216 125.88,-216 125.88,-125 229.88,-125 229.88,-216"/>
<text xml:space="preserve" text-anchor="start" x="129.88" y="-203.45" font-family="Arial" font-size="9.00">Lib::HAL::GPIO::Handle</text>
<text xml:space="preserve" text-anchor="start" x="176.75" y="-188.95" font-family="Arial" font-size="9.00"> </text>
<text xml:space="preserve" text-anchor="start" x="138.81" y="-174.45" font-family="Arial" font-size="9.00">+</text>
<text xml:space="preserve" text-anchor="start" x="157" y="-174.45" font-family="Arial" font-size="9.00">Handle()</text>
<text xml:space="preserve" text-anchor="start" x="138.81" y="-159.95" font-family="Arial" font-size="9.00">+</text>
<text xml:space="preserve" text-anchor="start" x="157" y="-159.95" font-family="Arial" font-size="9.00">Handle()</text>
<text xml:space="preserve" text-anchor="start" x="138.81" y="-145.45" font-family="Arial" font-size="9.00">+</text>
<text xml:space="preserve" text-anchor="start" x="157" y="-145.45" font-family="Arial" font-size="9.00">~Handle()</text>
<text xml:space="preserve" text-anchor="start" x="138.81" y="-130.95" font-family="Arial" font-size="9.00">+</text>
<text xml:space="preserve" text-anchor="start" x="157" y="-130.95" font-family="Arial" font-size="9.00">operator==()</text>
<polygon fill="#666666" stroke="#666666" points="125.88,-199.5 125.88,-199.5 229.88,-199.5 229.88,-199.5 125.88,-199.5"/>
<polygon fill="#666666" stroke="#666666" points="125.88,-185 125.88,-185 229.88,-185 229.88,-185 125.88,-185"/>
<polygon fill="none" stroke="#666666" points="125.88,-125 125.88,-216 229.88,-216 229.88,-125 125.88,-125"/>
</a>
</g>
</g>
<!-- Node3&#45;&gt;Node1 -->
<g id="edge2_Node000001_Node000003" class="edge">
<title>Node3&#45;&gt;Node1</title>
<g id="a_edge2_Node000001_Node000003"><a xlink:title=" ">
<path fill="none" stroke="#63b8ff" d="M157.99,-125.43C150.05,-109.39 140.31,-91.41 129.88,-76 128.06,-73.32 126.1,-70.62 124.07,-67.94"/>
<polygon fill="none" stroke="#63b8ff" points="124.04,-67.91 117.17,-65.73 116.53,-58.55 123.4,-60.72 124.04,-67.91"/>
</a>
</g>
<text xml:space="preserve" text-anchor="start" x="150.73" y="-95.45" font-family="Arial" font-size="9.00" fill="grey">+resetPin</text>
<text xml:space="preserve" text-anchor="start" x="150.73" y="-80.95" font-family="Arial" font-size="9.00" fill="grey">+xrst</text>
</g>
<!-- Node4 -->
<g id="Node000004" class="node">
<title>Node4</title>
<g id="a_Node000004"><a xlink:title=" ">
<polygon fill="white" stroke="none" points="177.62,-316 102.12,-316 102.12,-268.5 177.62,-268.5 177.62,-316"/>
<text xml:space="preserve" text-anchor="start" x="106.12" y="-303.45" font-family="Arial" font-size="9.00">GPIO_TypeDef *</text>
<text xml:space="preserve" text-anchor="start" x="138.75" y="-288.95" font-family="Arial" font-size="9.00"> </text>
<text xml:space="preserve" text-anchor="start" x="138.75" y="-274.45" font-family="Arial" font-size="9.00"> </text>
<polygon fill="#bfbfbf" stroke="#bfbfbf" points="102.12,-299.5 102.12,-299.5 177.62,-299.5 177.62,-299.5 102.12,-299.5"/>
<polygon fill="#bfbfbf" stroke="#bfbfbf" points="102.12,-285 102.12,-285 177.62,-285 177.62,-285 102.12,-285"/>
<polygon fill="none" stroke="#bfbfbf" points="102.12,-268.5 102.12,-316 177.62,-316 177.62,-268.5 102.12,-268.5"/>
</a>
</g>
</g>
<!-- Node4&#45;&gt;Node3 -->
<g id="edge3_Node000003_Node000004" class="edge">
<title>Node4&#45;&gt;Node3</title>
<g id="a_edge3_Node000003_Node000004"><a xlink:title=" ">
<path fill="none" stroke="#63b8ff" d="M147.02,-268.73C150.72,-257.08 155.41,-242.3 160.01,-227.8"/>
<polygon fill="none" stroke="#63b8ff" points="159.93,-228.05 157.93,-221.12 163.56,-216.61 165.56,-223.54 159.93,-228.05"/>
</a>
</g>
<text xml:space="preserve" text-anchor="start" x="160.74" y="-238.95" font-family="Arial" font-size="9.00" fill="grey">+port</text>
</g>
<!-- Node5 -->
<g id="Node000005" class="node">
<title>Node5</title>
<g id="a_Node000005"><a xlink:title=" ">
<polygon fill="white" stroke="none" points="236.38,-316 195.38,-316 195.38,-268.5 236.38,-268.5 236.38,-316"/>
<text xml:space="preserve" text-anchor="start" x="199.38" y="-303.45" font-family="Arial" font-size="9.00">uint16_t</text>
<text xml:space="preserve" text-anchor="start" x="214.75" y="-288.95" font-family="Arial" font-size="9.00"> </text>
<text xml:space="preserve" text-anchor="start" x="214.75" y="-274.45" font-family="Arial" font-size="9.00"> </text>
<polygon fill="#bfbfbf" stroke="#bfbfbf" points="195.38,-299.5 195.38,-299.5 236.38,-299.5 236.38,-299.5 195.38,-299.5"/>
<polygon fill="#bfbfbf" stroke="#bfbfbf" points="195.38,-285 195.38,-285 236.38,-285 236.38,-285 195.38,-285"/>
<polygon fill="none" stroke="#bfbfbf" points="195.38,-268.5 195.38,-316 236.38,-316 236.38,-268.5 195.38,-268.5"/>
</a>
</g>
</g>
<!-- Node5&#45;&gt;Node3 -->
<g id="edge4_Node000003_Node000005" class="edge">
<title>Node5&#45;&gt;Node3</title>
<g id="a_edge4_Node000003_Node000005"><a xlink:title=" ">
<path fill="none" stroke="#63b8ff" d="M208.73,-268.73C205.03,-257.08 200.34,-242.3 195.74,-227.8"/>
<polygon fill="none" stroke="#63b8ff" points="195.82,-228.05 190.19,-223.54 192.19,-216.61 197.82,-221.12 195.82,-228.05"/>
</a>
</g>
<text xml:space="preserve" text-anchor="start" x="205.5" y="-238.95" font-family="Arial" font-size="9.00" fill="grey">+number</text>
</g>
</g>
</svg>
