<?xml version="1.0" encoding="UTF-8" standalone="no"?>
<!DOCTYPE svg PUBLIC "-//W3C//DTD SVG 1.1//EN"
 "http://www.w3.org/Graphics/SVG/1.1/DTD/svg11.dtd">
<!-- Generated by graphviz version 12.2.1 (20241206.2353)
 -->
<!-- Title: RotationTableParallel.hpp Pages: 1 -->
<svg width="330pt" height="84pt"
 viewBox="0.00 0.00 329.75 84.00" xmlns="http://www.w3.org/2000/svg" xmlns:xlink="http://www.w3.org/1999/xlink">
<g id="graph0" class="graph" transform="scale(1 1) rotate(0) translate(4 80)">
<title>RotationTableParallel.hpp</title>
<!-- Node1 -->
<g id="Node000001" class="node">
<title>Node1</title>
<g id="a_Node000001"><a xlink:title="Header file for the RotationTableParallel class.">
<polygon fill="#999999" stroke="#666666" points="224.38,-76 97.38,-76 97.38,-56 224.38,-56 224.38,-76"/>
<text text-anchor="middle" x="160.88" y="-62.5" font-family="Arial" font-size="10.00">RotationTableParallel.hpp</text>
</a>
</g>
</g>
<!-- Node2 -->
<g id="Node000002" class="node">
<title>Node2</title>
<g id="a_Node000002"><a xlink:href="../../d2/d1f/a00083.html" target="_top" xlink:title="Defines the RotationTableParallel6Pins class which extends RotationTableParallel with a 6&#45;pin paralle...">
<polygon fill="white" stroke="#666666" points="151.75,-20 0,-20 0,0 151.75,0 151.75,-20"/>
<text text-anchor="middle" x="75.88" y="-6.5" font-family="Arial" font-size="10.00">RotationTableParallel6Pins.hpp</text>
</a>
</g>
</g>
<!-- Node1&#45;&gt;Node2 -->
<g id="edge1_Node000001_Node000002" class="edge">
<title>Node1&#45;&gt;Node2</title>
<g id="a_edge1_Node000001_Node000002"><a xlink:title=" ">
<path fill="none" stroke="#63b8ff" d="M136.54,-49.54C121.79,-40.17 103.43,-28.51 90.8,-20.48"/>
<polygon fill="#63b8ff" stroke="#63b8ff" points="134.47,-52.37 144.79,-54.78 138.23,-46.47 134.47,-52.37"/>
</a>
</g>
</g>
<!-- Node3 -->
<g id="Node000003" class="node">
<title>Node3</title>
<g id="a_Node000003"><a xlink:href="../../da/d2a/a00086.html" target="_top" xlink:title="Defines the RotationTableParallel7Pins class which extends RotationTableParallel with a 7&#45;pin paralle...">
<polygon fill="white" stroke="#666666" points="321.75,-20 170,-20 170,0 321.75,0 321.75,-20"/>
<text text-anchor="middle" x="245.88" y="-6.5" font-family="Arial" font-size="10.00">RotationTableParallel7Pins.hpp</text>
</a>
</g>
</g>
<!-- Node1&#45;&gt;Node3 -->
<g id="edge2_Node000001_Node000003" class="edge">
<title>Node1&#45;&gt;Node3</title>
<g id="a_edge2_Node000001_Node000003"><a xlink:title=" ">
<path fill="none" stroke="#63b8ff" d="M185.21,-49.54C199.96,-40.17 218.32,-28.51 230.95,-20.48"/>
<polygon fill="#63b8ff" stroke="#63b8ff" points="183.52,-46.47 176.96,-54.78 187.28,-52.37 183.52,-46.47"/>
</a>
</g>
</g>
</g>
</svg>
