<?xml version="1.0" encoding="UTF-8" standalone="no"?>
<!DOCTYPE svg PUBLIC "-//W3C//DTD SVG 1.1//EN"
 "http://www.w3.org/Graphics/SVG/1.1/DTD/svg11.dtd">
<!-- Generated by graphviz version 13.1.0 (20250701.0955)
 -->
<!-- Title: Lib::BSP::DigitalPeripheralBase::Outputs::MC33879::TxPort Pages: 1 -->
<svg width="155pt" height="88pt"
 viewBox="0.00 0.00 155.00 88.00" xmlns="http://www.w3.org/2000/svg" xmlns:xlink="http://www.w3.org/1999/xlink">
<g id="graph0" class="graph" transform="scale(1 1) rotate(0) translate(4 84)">
<title>Lib::BSP::DigitalPeripheralBase::Outputs::MC33879::TxPort</title>
<!-- Node1 -->
<g id="Node000001" class="node">
<title>Node1</title>
<g id="a_Node000001"><a xlink:title=" ">
<polygon fill="#999999" stroke="none" points="146.75,-80 0,-80 0,0 146.75,0 146.75,-80"/>
<text xml:space="preserve" text-anchor="start" x="4" y="-66.5" font-family="Helvetica,sans-Serif" font-size="10.00">Lib::BSP::DigitalPeripheralBase</text>
<text xml:space="preserve" text-anchor="start" x="11.5" y="-54.5" font-family="Helvetica,sans-Serif" font-size="10.00">::Outputs::MC33879::TxPort</text>
<text xml:space="preserve" text-anchor="start" x="28.88" y="-38.5" font-family="Helvetica,sans-Serif" font-size="10.00">+</text>
<text xml:space="preserve" text-anchor="start" x="63.75" y="-38.5" font-family="Helvetica,sans-Serif" font-size="10.00">control</text>
<text xml:space="preserve" text-anchor="start" x="28.88" y="-22.5" font-family="Helvetica,sans-Serif" font-size="10.00">+</text>
<text xml:space="preserve" text-anchor="start" x="63.75" y="-22.5" font-family="Helvetica,sans-Serif" font-size="10.00">value</text>
<text xml:space="preserve" text-anchor="start" x="71.88" y="-6.5" font-family="Helvetica,sans-Serif" font-size="10.00"> </text>
<polygon fill="#666666" stroke="#666666" points="0,-50 0,-50 146.75,-50 146.75,-50 0,-50"/>
<polygon fill="#666666" stroke="#666666" points="0,-18 0,-18 61.75,-18 61.75,-18 0,-18"/>
<polygon fill="#666666" stroke="#666666" points="61.75,-18 61.75,-18 146.75,-18 146.75,-18 61.75,-18"/>
<polygon fill="none" stroke="#666666" points="0,0 0,-80 146.75,-80 146.75,0 0,0"/>
</a>
</g>
</g>
</g>
</svg>
