<?xml version="1.0" encoding="UTF-8" standalone="no"?>
<!DOCTYPE svg PUBLIC "-//W3C//DTD SVG 1.1//EN"
 "http://www.w3.org/Graphics/SVG/1.1/DTD/svg11.dtd">
<!-- Generated by graphviz version 13.1.0 (20250701.0955)
 -->
<!-- Title: QueryBase.hpp Pages: 1 -->
<svg width="491pt" height="196pt"
 viewBox="0.00 0.00 491.00 196.00" xmlns="http://www.w3.org/2000/svg" xmlns:xlink="http://www.w3.org/1999/xlink">
<g id="graph0" class="graph" transform="scale(1 1) rotate(0) translate(4 192)">
<title>QueryBase.hpp</title>
<!-- Node1 -->
<g id="Node000001" class="node">
<title>Node1</title>
<g id="a_Node000001"><a xlink:title="QueryBase.hpp: Base class for Digi Core query frames.">
<polygon fill="#999999" stroke="#666666" points="283,-188 199.5,-188 199.5,-168 283,-168 283,-188"/>
<text xml:space="preserve" text-anchor="middle" x="241.25" y="-174.5" font-family="Helvetica,sans-Serif" font-size="10.00">QueryBase.hpp</text>
</a>
</g>
</g>
<!-- Node2 -->
<g id="Node000002" class="node">
<title>Node2</title>
<g id="a_Node000002"><a xlink:href="../../dc/d3b/_data_8hpp.html" target="_top" xlink:title="Data class for Digi Core Frame internal data container.">
<polygon fill="white" stroke="#666666" points="146.5,-132 0,-132 0,-112 146.5,-112 146.5,-132"/>
<text xml:space="preserve" text-anchor="middle" x="73.25" y="-118.5" font-family="Helvetica,sans-Serif" font-size="10.00">Lib/Digi/Core/Frame/Data.hpp</text>
</a>
</g>
</g>
<!-- Node1&#45;&gt;Node2 -->
<g id="edge1_Node000001_Node000002" class="edge">
<title>Node1&#45;&gt;Node2</title>
<g id="a_edge1_Node000001_Node000002"><a xlink:title=" ">
<path fill="none" stroke="#63b8ff" d="M211.99,-167.59C184.69,-158.82 143.74,-145.66 113.4,-135.9"/>
<polygon fill="#63b8ff" stroke="#63b8ff" points="114.77,-132.67 104.18,-132.94 112.63,-139.33 114.77,-132.67"/>
</a>
</g>
</g>
<!-- Node5 -->
<g id="Node000005" class="node">
<title>Node5</title>
<g id="a_Node000005"><a xlink:href="../../de/d2d/_digi_2_core_2_frame_2_helper_8hpp.html" target="_top" xlink:title="Helper utilities for Digi Core Frame operations.">
<polygon fill="white" stroke="#666666" points="318.25,-132 164.25,-132 164.25,-112 318.25,-112 318.25,-132"/>
<text xml:space="preserve" text-anchor="middle" x="241.25" y="-118.5" font-family="Helvetica,sans-Serif" font-size="10.00">Lib/Digi/Core/Frame/Helper.hpp</text>
</a>
</g>
</g>
<!-- Node1&#45;&gt;Node5 -->
<g id="edge4_Node000001_Node000005" class="edge">
<title>Node1&#45;&gt;Node5</title>
<g id="a_edge4_Node000001_Node000005"><a xlink:title=" ">
<path fill="none" stroke="#63b8ff" d="M241.25,-167.59C241.25,-161.01 241.25,-151.96 241.25,-143.73"/>
<polygon fill="#63b8ff" stroke="#63b8ff" points="244.75,-143.81 241.25,-133.81 237.75,-143.81 244.75,-143.81"/>
</a>
</g>
</g>
<!-- Node11 -->
<g id="Node000011" class="node">
<title>Node11</title>
<g id="a_Node000011"><a xlink:href="../../d6/dcd/_type_8hpp.html" target="_top" xlink:title="DIGI API Frame Type enumeration for Digi Core Frame.">
<polygon fill="white" stroke="#666666" points="482.5,-132 336,-132 336,-112 482.5,-112 482.5,-132"/>
<text xml:space="preserve" text-anchor="middle" x="409.25" y="-118.5" font-family="Helvetica,sans-Serif" font-size="10.00">Lib/Digi/Core/Frame/Type.hpp</text>
</a>
</g>
</g>
<!-- Node1&#45;&gt;Node11 -->
<g id="edge13_Node000001_Node000011" class="edge">
<title>Node1&#45;&gt;Node11</title>
<g id="a_edge13_Node000001_Node000011"><a xlink:title=" ">
<path fill="none" stroke="#63b8ff" d="M270.51,-167.59C297.81,-158.82 338.76,-145.66 369.1,-135.9"/>
<polygon fill="#63b8ff" stroke="#63b8ff" points="369.87,-139.33 378.32,-132.94 367.73,-132.67 369.87,-139.33"/>
</a>
</g>
</g>
<!-- Node3 -->
<g id="Node000003" class="node">
<title>Node3</title>
<g id="a_Node000003"><a xlink:title=" ">
<polygon fill="#e0e0e0" stroke="#999999" points="163.88,-20 118.62,-20 118.62,0 163.88,0 163.88,-20"/>
<text xml:space="preserve" text-anchor="middle" x="141.25" y="-6.5" font-family="Helvetica,sans-Serif" font-size="10.00">cstdint</text>
</a>
</g>
</g>
<!-- Node2&#45;&gt;Node3 -->
<g id="edge2_Node000002_Node000003" class="edge">
<title>Node2&#45;&gt;Node3</title>
<g id="a_edge2_Node000002_Node000003"><a xlink:title=" ">
<path fill="none" stroke="#63b8ff" d="M72.04,-111.9C70.75,-98.65 70.08,-73.72 80.25,-56 87.4,-43.55 99.52,-33.55 111.09,-26.16"/>
<polygon fill="#63b8ff" stroke="#63b8ff" points="112.83,-29.2 119.67,-21.11 109.28,-23.16 112.83,-29.2"/>
</a>
</g>
</g>
<!-- Node4 -->
<g id="Node000004" class="node">
<title>Node4</title>
<g id="a_Node000004"><a xlink:title=" ">
<polygon fill="#e0e0e0" stroke="#999999" points="131.75,-76 88.75,-76 88.75,-56 131.75,-56 131.75,-76"/>
<text xml:space="preserve" text-anchor="middle" x="110.25" y="-62.5" font-family="Helvetica,sans-Serif" font-size="10.00">vector</text>
</a>
</g>
</g>
<!-- Node2&#45;&gt;Node4 -->
<g id="edge3_Node000002_Node000004" class="edge">
<title>Node2&#45;&gt;Node4</title>
<g id="a_edge3_Node000002_Node000004"><a xlink:title=" ">
<path fill="none" stroke="#63b8ff" d="M79.69,-111.59C84.58,-104.47 91.44,-94.45 97.43,-85.72"/>
<polygon fill="#63b8ff" stroke="#63b8ff" points="100.26,-87.77 103.02,-77.55 94.48,-83.82 100.26,-87.77"/>
</a>
</g>
</g>
<!-- Node5&#45;&gt;Node3 -->
<g id="edge10_Node000005_Node000003" class="edge">
<title>Node5&#45;&gt;Node3</title>
<g id="a_edge10_Node000005_Node000003"><a xlink:title=" ">
<path fill="none" stroke="#63b8ff" d="M224.51,-111.52C211.12,-103.35 192.46,-90.59 179.25,-76 166.91,-62.38 156.66,-44.11 149.93,-30.41"/>
<polygon fill="#63b8ff" stroke="#63b8ff" points="153.19,-29.11 145.77,-21.54 146.85,-32.08 153.19,-29.11"/>
</a>
</g>
</g>
<!-- Node5&#45;&gt;Node4 -->
<g id="edge12_Node000005_Node000004" class="edge">
<title>Node5&#45;&gt;Node4</title>
<g id="a_edge12_Node000005_Node000004"><a xlink:title=" ">
<path fill="none" stroke="#63b8ff" d="M218.43,-111.59C197.42,-102.93 166.03,-89.99 142.47,-80.28"/>
<polygon fill="#63b8ff" stroke="#63b8ff" points="143.92,-77.09 133.34,-76.52 141.25,-83.56 143.92,-77.09"/>
</a>
</g>
</g>
<!-- Node6 -->
<g id="Node000006" class="node">
<title>Node6</title>
<g id="a_Node000006"><a xlink:href="../../d4/dfa/_swap_bytes_8hpp.html" target="_top" xlink:title="Provides utility functions for byte swapping.">
<polygon fill="white" stroke="#666666" points="320.38,-76 188.12,-76 188.12,-56 320.38,-56 320.38,-76"/>
<text xml:space="preserve" text-anchor="middle" x="254.25" y="-62.5" font-family="Helvetica,sans-Serif" font-size="10.00">Lib/Helper/SwapBytes.hpp</text>
</a>
</g>
</g>
<!-- Node5&#45;&gt;Node6 -->
<g id="edge5_Node000005_Node000006" class="edge">
<title>Node5&#45;&gt;Node6</title>
<g id="a_edge5_Node000005_Node000006"><a xlink:title=" ">
<path fill="none" stroke="#63b8ff" d="M243.51,-111.59C245.12,-104.93 247.33,-95.75 249.33,-87.44"/>
<polygon fill="#63b8ff" stroke="#63b8ff" points="252.72,-88.31 251.66,-77.77 245.91,-86.67 252.72,-88.31"/>
</a>
</g>
</g>
<!-- Node10 -->
<g id="Node000010" class="node">
<title>Node10</title>
<g id="a_Node000010"><a xlink:title=" ">
<polygon fill="#e0e0e0" stroke="#999999" points="383.88,-76 338.62,-76 338.62,-56 383.88,-56 383.88,-76"/>
<text xml:space="preserve" text-anchor="middle" x="361.25" y="-62.5" font-family="Helvetica,sans-Serif" font-size="10.00">cstring</text>
</a>
</g>
</g>
<!-- Node5&#45;&gt;Node10 -->
<g id="edge11_Node000005_Node000010" class="edge">
<title>Node5&#45;&gt;Node10</title>
<g id="a_edge11_Node000005_Node000010"><a xlink:title=" ">
<path fill="none" stroke="#63b8ff" d="M262.15,-111.59C280.88,-103.17 308.61,-90.69 329.97,-81.07"/>
<polygon fill="#63b8ff" stroke="#63b8ff" points="331.12,-84.4 338.8,-77.1 328.25,-78.01 331.12,-84.4"/>
</a>
</g>
</g>
<!-- Node6&#45;&gt;Node3 -->
<g id="edge8_Node000006_Node000003" class="edge">
<title>Node6&#45;&gt;Node3</title>
<g id="a_edge8_Node000006_Node000003"><a xlink:title=" ">
<path fill="none" stroke="#63b8ff" d="M234.57,-55.59C217.09,-47.24 191.3,-34.92 171.25,-25.34"/>
<polygon fill="#63b8ff" stroke="#63b8ff" points="172.98,-22.29 162.45,-21.13 169.97,-28.6 172.98,-22.29"/>
</a>
</g>
</g>
<!-- Node7 -->
<g id="Node000007" class="node">
<title>Node7</title>
<g id="a_Node000007"><a xlink:title=" ">
<polygon fill="#e0e0e0" stroke="#999999" points="230.38,-20 182.12,-20 182.12,0 230.38,0 230.38,-20"/>
<text xml:space="preserve" text-anchor="middle" x="206.25" y="-6.5" font-family="Helvetica,sans-Serif" font-size="10.00">cassert</text>
</a>
</g>
</g>
<!-- Node6&#45;&gt;Node7 -->
<g id="edge6_Node000006_Node000007" class="edge">
<title>Node6&#45;&gt;Node7</title>
<g id="a_edge6_Node000006_Node000007"><a xlink:title=" ">
<path fill="none" stroke="#63b8ff" d="M245.89,-55.59C239.35,-48.24 230.07,-37.8 222.13,-28.87"/>
<polygon fill="#63b8ff" stroke="#63b8ff" points="224.78,-26.58 215.52,-21.43 219.55,-31.23 224.78,-26.58"/>
</a>
</g>
</g>
<!-- Node8 -->
<g id="Node000008" class="node">
<title>Node8</title>
<g id="a_Node000008"><a xlink:title=" ">
<polygon fill="#e0e0e0" stroke="#999999" points="296.38,-20 248.12,-20 248.12,0 296.38,0 296.38,-20"/>
<text xml:space="preserve" text-anchor="middle" x="272.25" y="-6.5" font-family="Helvetica,sans-Serif" font-size="10.00">cstddef</text>
</a>
</g>
</g>
<!-- Node6&#45;&gt;Node8 -->
<g id="edge7_Node000006_Node000008" class="edge">
<title>Node6&#45;&gt;Node8</title>
<g id="a_edge7_Node000006_Node000008"><a xlink:title=" ">
<path fill="none" stroke="#63b8ff" d="M257.39,-55.59C259.63,-48.86 262.74,-39.53 265.53,-31.15"/>
<polygon fill="#63b8ff" stroke="#63b8ff" points="268.83,-32.33 268.67,-21.73 262.19,-30.11 268.83,-32.33"/>
</a>
</g>
</g>
<!-- Node9 -->
<g id="Node000009" class="node">
<title>Node9</title>
<g id="a_Node000009"><a xlink:title=" ">
<polygon fill="#e0e0e0" stroke="#999999" points="376.12,-20 314.38,-20 314.38,0 376.12,0 376.12,-20"/>
<text xml:space="preserve" text-anchor="middle" x="345.25" y="-6.5" font-family="Helvetica,sans-Serif" font-size="10.00">type_traits</text>
</a>
</g>
</g>
<!-- Node6&#45;&gt;Node9 -->
<g id="edge9_Node000006_Node000009" class="edge">
<title>Node6&#45;&gt;Node9</title>
<g id="a_edge9_Node000006_Node000009"><a xlink:title=" ">
<path fill="none" stroke="#63b8ff" d="M270.1,-55.59C283.72,-47.51 303.61,-35.71 319.51,-26.27"/>
<polygon fill="#63b8ff" stroke="#63b8ff" points="321.16,-29.37 327.97,-21.25 317.59,-23.35 321.16,-29.37"/>
</a>
</g>
</g>
</g>
</svg>
