<?xml version="1.0" encoding="UTF-8" standalone="no"?>
<!DOCTYPE svg PUBLIC "-//W3C//DTD SVG 1.1//EN"
 "http://www.w3.org/Graphics/SVG/1.1/DTD/svg11.dtd">
<!-- Generated by graphviz version 13.1.0 (20250701.0955)
 -->
<!-- Title: Lib::Xbee::API::NodeInfo Pages: 1 -->
<svg width="776pt" height="339pt"
 viewBox="0.00 0.00 776.00 339.00" xmlns="http://www.w3.org/2000/svg" xmlns:xlink="http://www.w3.org/1999/xlink">
<g id="graph0" class="graph" transform="scale(1 1) rotate(0) translate(4 334.5)">
<title>Lib::Xbee::API::NodeInfo</title>
<!-- Node1 -->
<g id="Node000001" class="node">
<title>Node1</title>
<g id="a_Node000001"><a xlink:title="Holds information about an Xbee node.">
<polygon fill="#999999" stroke="none" points="421.75,-47.5 314,-47.5 314,0 421.75,0 421.75,-47.5"/>
<text xml:space="preserve" text-anchor="start" x="318" y="-34.95" font-family="Arial" font-size="9.00">Lib::Xbee::API::NodeInfo</text>
<text xml:space="preserve" text-anchor="start" x="366.75" y="-20.45" font-family="Arial" font-size="9.00"> </text>
<text xml:space="preserve" text-anchor="start" x="366.75" y="-5.95" font-family="Arial" font-size="9.00"> </text>
<polygon fill="#666666" stroke="#666666" points="314,-31 314,-31 421.75,-31 421.75,-31 314,-31"/>
<polygon fill="#666666" stroke="#666666" points="314,-16.5 314,-16.5 421.75,-16.5 421.75,-16.5 314,-16.5"/>
<polygon fill="none" stroke="#666666" points="314,0 314,-47.5 421.75,-47.5 421.75,0 314,0"/>
</a>
</g>
</g>
<!-- Node2 -->
<g id="Node000002" class="node">
<title>Node2</title>
<g id="a_Node000002"><a xlink:href="../../dc/d76/class_lib_1_1_xbee_1_1_a_p_i_1_1_node_info_1_1_mac_address.html" target="_top" xlink:title="64&#45;bit MAC address (split into two 32&#45;bit values).">
<polygon fill="white" stroke="none" points="107.75,-216 0,-216 0,-114.5 107.75,-114.5 107.75,-216"/>
<text xml:space="preserve" text-anchor="start" x="4" y="-203.45" font-family="Arial" font-size="9.00">Lib::Xbee::API::NodeInfo</text>
<text xml:space="preserve" text-anchor="start" x="26.12" y="-192.95" font-family="Arial" font-size="9.00">::MacAddress</text>
<text xml:space="preserve" text-anchor="start" x="52.75" y="-178.45" font-family="Arial" font-size="9.00"> </text>
<text xml:space="preserve" text-anchor="start" x="7.69" y="-163.95" font-family="Arial" font-size="9.00">+</text>
<text xml:space="preserve" text-anchor="start" x="20.62" y="-163.95" font-family="Arial" font-size="9.00">MacAddress()</text>
<text xml:space="preserve" text-anchor="start" x="7.69" y="-149.45" font-family="Arial" font-size="9.00">+</text>
<text xml:space="preserve" text-anchor="start" x="20.62" y="-149.45" font-family="Arial" font-size="9.00">operator uint64_t()</text>
<text xml:space="preserve" text-anchor="start" x="7.69" y="-134.95" font-family="Arial" font-size="9.00">+</text>
<text xml:space="preserve" text-anchor="start" x="20.62" y="-134.95" font-family="Arial" font-size="9.00">MacAddress()</text>
<text xml:space="preserve" text-anchor="start" x="7.69" y="-120.45" font-family="Arial" font-size="9.00">+</text>
<text xml:space="preserve" text-anchor="start" x="20.62" y="-120.45" font-family="Arial" font-size="9.00">operator uint64_t()</text>
<polygon fill="#666666" stroke="#666666" points="0,-189 0,-189 107.75,-189 107.75,-189 0,-189"/>
<polygon fill="#666666" stroke="#666666" points="0,-174.5 0,-174.5 107.75,-174.5 107.75,-174.5 0,-174.5"/>
<polygon fill="none" stroke="#666666" points="0,-114.5 0,-216 107.75,-216 107.75,-114.5 0,-114.5"/>
</a>
</g>
</g>
<!-- Node2&#45;&gt;Node1 -->
<g id="edge1_Node000001_Node000002" class="edge">
<title>Node2&#45;&gt;Node1</title>
<g id="a_edge1_Node000001_Node000002"><a xlink:title=" ">
<path fill="none" stroke="#63b8ff" d="M93.78,-114.68C110.89,-96.55 132.27,-77.55 155.38,-65.5 200.75,-41.84 258.01,-31.82 301.66,-27.63"/>
<polygon fill="none" stroke="#63b8ff" points="301.59,-27.63 307.23,-23.13 313.55,-26.6 307.91,-31.1 301.59,-27.63"/>
</a>
</g>
<text xml:space="preserve" text-anchor="start" x="158.38" y="-84.95" font-family="Arial" font-size="9.00" fill="grey">+destMacAddress</text>
<text xml:space="preserve" text-anchor="start" x="158.38" y="-70.45" font-family="Arial" font-size="9.00" fill="grey">+macAddress</text>
</g>
<!-- Node3 -->
<g id="Node000003" class="node">
<title>Node3</title>
<g id="a_Node000003"><a xlink:title=" ">
<polygon fill="white" stroke="none" points="74.38,-330.5 33.38,-330.5 33.38,-283 74.38,-283 74.38,-330.5"/>
<text xml:space="preserve" text-anchor="start" x="37.38" y="-317.95" font-family="Arial" font-size="9.00">uint32_t</text>
<text xml:space="preserve" text-anchor="start" x="52.75" y="-303.45" font-family="Arial" font-size="9.00"> </text>
<text xml:space="preserve" text-anchor="start" x="52.75" y="-288.95" font-family="Arial" font-size="9.00"> </text>
<polygon fill="#bfbfbf" stroke="#bfbfbf" points="33.38,-314 33.38,-314 74.38,-314 74.38,-314 33.38,-314"/>
<polygon fill="#bfbfbf" stroke="#bfbfbf" points="33.38,-299.5 33.38,-299.5 74.38,-299.5 74.38,-299.5 33.38,-299.5"/>
<polygon fill="none" stroke="#bfbfbf" points="33.38,-283 33.38,-330.5 74.38,-330.5 74.38,-283 33.38,-283"/>
</a>
</g>
</g>
<!-- Node3&#45;&gt;Node2 -->
<g id="edge2_Node000002_Node000003" class="edge">
<title>Node3&#45;&gt;Node2</title>
<g id="a_edge2_Node000002_Node000003"><a xlink:title=" ">
<path fill="none" stroke="#63b8ff" d="M53.88,-283.03C53.88,-268.21 53.88,-248.11 53.88,-228.75"/>
<polygon fill="none" stroke="#63b8ff" points="53.88,-228.78 49.88,-222.78 53.88,-216.78 57.88,-222.78 53.88,-228.78"/>
</a>
</g>
<text xml:space="preserve" text-anchor="start" x="56.88" y="-253.45" font-family="Arial" font-size="9.00" fill="grey">+leastSignificant</text>
<text xml:space="preserve" text-anchor="start" x="56.88" y="-238.95" font-family="Arial" font-size="9.00" fill="grey">+mostSignificant</text>
</g>
<!-- Node4 -->
<g id="Node000004" class="node">
<title>Node4</title>
<g id="a_Node000004"><a xlink:href="../../d5/d8e/class_lib_1_1_xbee_1_1_a_p_i_1_1_node_info_1_1_network_info.html" target="_top" xlink:title="Network ID and channel.">
<polygon fill="white" stroke="none" points="233.75,-194.25 126,-194.25 126,-136.25 233.75,-136.25 233.75,-194.25"/>
<text xml:space="preserve" text-anchor="start" x="130" y="-181.7" font-family="Arial" font-size="9.00">Lib::Xbee::API::NodeInfo</text>
<text xml:space="preserve" text-anchor="start" x="153.25" y="-171.2" font-family="Arial" font-size="9.00">::NetworkInfo</text>
<text xml:space="preserve" text-anchor="start" x="178.75" y="-156.7" font-family="Arial" font-size="9.00"> </text>
<text xml:space="preserve" text-anchor="start" x="178.75" y="-142.2" font-family="Arial" font-size="9.00"> </text>
<polygon fill="#666666" stroke="#666666" points="126,-167.25 126,-167.25 233.75,-167.25 233.75,-167.25 126,-167.25"/>
<polygon fill="#666666" stroke="#666666" points="126,-152.75 126,-152.75 233.75,-152.75 233.75,-152.75 126,-152.75"/>
<polygon fill="none" stroke="#666666" points="126,-136.25 126,-194.25 233.75,-194.25 233.75,-136.25 126,-136.25"/>
</a>
</g>
</g>
<!-- Node4&#45;&gt;Node1 -->
<g id="edge3_Node000001_Node000004" class="edge">
<title>Node4&#45;&gt;Node1</title>
<g id="a_edge3_Node000001_Node000004"><a xlink:title=" ">
<path fill="none" stroke="#63b8ff" d="M200.82,-136.6C218.32,-114.99 244.93,-85.38 273.38,-65.5 282.32,-59.25 292.38,-53.66 302.51,-48.77"/>
<polygon fill="none" stroke="#63b8ff" points="302.64,-48.72 306.43,-42.59 313.55,-43.74 309.75,-49.87 302.64,-48.72"/>
</a>
</g>
<text xml:space="preserve" text-anchor="start" x="276.38" y="-77.7" font-family="Arial" font-size="9.00" fill="grey">+networkInfo</text>
</g>
<!-- Node5 -->
<g id="Node000005" class="node">
<title>Node5</title>
<g id="a_Node000005"><a xlink:title=" ">
<polygon fill="white" stroke="none" points="326.38,-330.5 285.38,-330.5 285.38,-283 326.38,-283 326.38,-330.5"/>
<text xml:space="preserve" text-anchor="start" x="289.38" y="-317.95" font-family="Arial" font-size="9.00">uint16_t</text>
<text xml:space="preserve" text-anchor="start" x="304.75" y="-303.45" font-family="Arial" font-size="9.00"> </text>
<text xml:space="preserve" text-anchor="start" x="304.75" y="-288.95" font-family="Arial" font-size="9.00"> </text>
<polygon fill="#bfbfbf" stroke="#bfbfbf" points="285.38,-314 285.38,-314 326.38,-314 326.38,-314 285.38,-314"/>
<polygon fill="#bfbfbf" stroke="#bfbfbf" points="285.38,-299.5 285.38,-299.5 326.38,-299.5 326.38,-299.5 285.38,-299.5"/>
<polygon fill="none" stroke="#bfbfbf" points="285.38,-283 285.38,-330.5 326.38,-330.5 326.38,-283 285.38,-283"/>
</a>
</g>
</g>
<!-- Node5&#45;&gt;Node4 -->
<g id="edge4_Node000004_Node000005" class="edge">
<title>Node5&#45;&gt;Node4</title>
<g id="a_edge4_Node000004_Node000005"><a xlink:title=" ">
<path fill="none" stroke="#63b8ff" d="M285.82,-290.34C276.83,-283.05 266.31,-273.99 257.62,-265 239.42,-246.15 221.18,-223.26 206.95,-204.26"/>
<polygon fill="none" stroke="#63b8ff" points="206.94,-204.25 200.16,-201.8 199.81,-194.59 206.59,-197.04 206.94,-204.25"/>
</a>
</g>
<text xml:space="preserve" text-anchor="start" x="260.62" y="-253.45" font-family="Arial" font-size="9.00" fill="grey">+channel</text>
<text xml:space="preserve" text-anchor="start" x="260.62" y="-238.95" font-family="Arial" font-size="9.00" fill="grey">+id</text>
</g>
<!-- Node8 -->
<g id="Node000008" class="node">
<title>Node8</title>
<g id="a_Node000008"><a xlink:href="../../d5/d28/class_lib_1_1_xbee_1_1_a_p_i_1_1_node_info_1_1_versions.html" target="_top" xlink:title="Firmware and hardware version numbers.">
<polygon fill="white" stroke="none" points="359.75,-194.25 252,-194.25 252,-136.25 359.75,-136.25 359.75,-194.25"/>
<text xml:space="preserve" text-anchor="start" x="256" y="-181.7" font-family="Arial" font-size="9.00">Lib::Xbee::API::NodeInfo</text>
<text xml:space="preserve" text-anchor="start" x="286" y="-171.2" font-family="Arial" font-size="9.00">::Versions</text>
<text xml:space="preserve" text-anchor="start" x="304.75" y="-156.7" font-family="Arial" font-size="9.00"> </text>
<text xml:space="preserve" text-anchor="start" x="304.75" y="-142.2" font-family="Arial" font-size="9.00"> </text>
<polygon fill="#666666" stroke="#666666" points="252,-167.25 252,-167.25 359.75,-167.25 359.75,-167.25 252,-167.25"/>
<polygon fill="#666666" stroke="#666666" points="252,-152.75 252,-152.75 359.75,-152.75 359.75,-152.75 252,-152.75"/>
<polygon fill="none" stroke="#666666" points="252,-136.25 252,-194.25 359.75,-194.25 359.75,-136.25 252,-136.25"/>
</a>
</g>
</g>
<!-- Node5&#45;&gt;Node8 -->
<g id="edge8_Node000008_Node000005" class="edge">
<title>Node5&#45;&gt;Node8</title>
<g id="a_edge8_Node000008_Node000005"><a xlink:title=" ">
<path fill="none" stroke="#63b8ff" d="M305.88,-283.03C305.88,-262.35 305.88,-231.34 305.88,-206.48"/>
<polygon fill="none" stroke="#63b8ff" points="305.88,-206.66 301.88,-200.66 305.88,-194.66 309.88,-200.66 305.88,-206.66"/>
</a>
</g>
<text xml:space="preserve" text-anchor="start" x="308.88" y="-253.45" font-family="Arial" font-size="9.00" fill="grey">+firmwareVersion</text>
<text xml:space="preserve" text-anchor="start" x="308.88" y="-238.95" font-family="Arial" font-size="9.00" fill="grey">+hardwareVersion</text>
</g>
<!-- Node11 -->
<g id="Node000011" class="node">
<title>Node11</title>
<g id="a_Node000011"><a xlink:href="../../d8/d7b/class_lib_1_1_xbee_1_1_a_p_i_1_1_node_info_1_1_mac_diagnostic.html" target="_top" xlink:title="MAC diagnostic counters.">
<polygon fill="white" stroke="none" points="485.75,-194.25 378,-194.25 378,-136.25 485.75,-136.25 485.75,-194.25"/>
<text xml:space="preserve" text-anchor="start" x="382" y="-181.7" font-family="Arial" font-size="9.00">Lib::Xbee::API::NodeInfo</text>
<text xml:space="preserve" text-anchor="start" x="399.25" y="-171.2" font-family="Arial" font-size="9.00">::MacDiagnostic</text>
<text xml:space="preserve" text-anchor="start" x="430.75" y="-156.7" font-family="Arial" font-size="9.00"> </text>
<text xml:space="preserve" text-anchor="start" x="430.75" y="-142.2" font-family="Arial" font-size="9.00"> </text>
<polygon fill="#666666" stroke="#666666" points="378,-167.25 378,-167.25 485.75,-167.25 485.75,-167.25 378,-167.25"/>
<polygon fill="#666666" stroke="#666666" points="378,-152.75 378,-152.75 485.75,-152.75 485.75,-152.75 378,-152.75"/>
<polygon fill="none" stroke="#666666" points="378,-136.25 378,-194.25 485.75,-194.25 485.75,-136.25 378,-136.25"/>
</a>
</g>
</g>
<!-- Node5&#45;&gt;Node11 -->
<g id="edge12_Node000011_Node000005" class="edge">
<title>Node5&#45;&gt;Node11</title>
<g id="a_edge12_Node000011_Node000005"><a xlink:title=" ">
<path fill="none" stroke="#63b8ff" d="M326.25,-300.55C345.23,-294.75 373.2,-283.65 390.88,-265 406.27,-248.75 416.26,-225.9 422.52,-206.27"/>
<polygon fill="none" stroke="#63b8ff" points="422.51,-206.33 420.34,-199.45 425.86,-194.81 428.02,-201.69 422.51,-206.33"/>
</a>
</g>
<text xml:space="preserve" text-anchor="start" x="413.42" y="-253.45" font-family="Arial" font-size="9.00" fill="grey">+ascFailureCount</text>
<text xml:space="preserve" text-anchor="start" x="413.42" y="-238.95" font-family="Arial" font-size="9.00" fill="grey">+ccaFailureCount</text>
</g>
<!-- Node6 -->
<g id="Node000006" class="node">
<title>Node6</title>
<g id="a_Node000006"><a xlink:href="../../d7/d01/class_lib_1_1_xbee_1_1_a_p_i_1_1_node_info_1_1_discovery.html" target="_top" xlink:title="Node identifier string.">
<polygon fill="white" stroke="none" points="611.75,-194.25 504,-194.25 504,-136.25 611.75,-136.25 611.75,-194.25"/>
<text xml:space="preserve" text-anchor="start" x="508" y="-181.7" font-family="Arial" font-size="9.00">Lib::Xbee::API::NodeInfo</text>
<text xml:space="preserve" text-anchor="start" x="535.38" y="-171.2" font-family="Arial" font-size="9.00">::Discovery</text>
<text xml:space="preserve" text-anchor="start" x="556.75" y="-156.7" font-family="Arial" font-size="9.00"> </text>
<text xml:space="preserve" text-anchor="start" x="556.75" y="-142.2" font-family="Arial" font-size="9.00"> </text>
<polygon fill="#666666" stroke="#666666" points="504,-167.25 504,-167.25 611.75,-167.25 611.75,-167.25 504,-167.25"/>
<polygon fill="#666666" stroke="#666666" points="504,-152.75 504,-152.75 611.75,-152.75 611.75,-152.75 504,-152.75"/>
<polygon fill="none" stroke="#666666" points="504,-136.25 504,-194.25 611.75,-194.25 611.75,-136.25 504,-136.25"/>
</a>
</g>
</g>
<!-- Node6&#45;&gt;Node1 -->
<g id="edge5_Node000001_Node000006" class="edge">
<title>Node6&#45;&gt;Node1</title>
<g id="a_edge5_Node000001_Node000006"><a xlink:title=" ">
<path fill="none" stroke="#63b8ff" d="M543.13,-136.36C530.18,-114.33 509.44,-84.25 483.88,-65.5 469.12,-54.68 451.25,-46.54 434,-40.5"/>
<polygon fill="none" stroke="#63b8ff" points="433.86,-40.45 426.92,-42.4 422.45,-36.74 429.4,-34.79 433.86,-40.45"/>
</a>
</g>
<text xml:space="preserve" text-anchor="start" x="518.17" y="-77.7" font-family="Arial" font-size="9.00" fill="grey">+discovery</text>
</g>
<!-- Node7 -->
<g id="Node000007" class="node">
<title>Node7</title>
<g id="a_Node000007"><a xlink:title=" ">
<polygon fill="white" stroke="none" points="573.12,-330.5 542.62,-330.5 542.62,-283 573.12,-283 573.12,-330.5"/>
<text xml:space="preserve" text-anchor="start" x="546.62" y="-317.95" font-family="Arial" font-size="9.00">string</text>
<text xml:space="preserve" text-anchor="start" x="556.75" y="-303.45" font-family="Arial" font-size="9.00"> </text>
<text xml:space="preserve" text-anchor="start" x="556.75" y="-288.95" font-family="Arial" font-size="9.00"> </text>
<polygon fill="#bfbfbf" stroke="#bfbfbf" points="542.62,-314 542.62,-314 573.12,-314 573.12,-314 542.62,-314"/>
<polygon fill="#bfbfbf" stroke="#bfbfbf" points="542.62,-299.5 542.62,-299.5 573.12,-299.5 573.12,-299.5 542.62,-299.5"/>
<polygon fill="none" stroke="#bfbfbf" points="542.62,-283 542.62,-330.5 573.12,-330.5 573.12,-283 542.62,-283"/>
</a>
</g>
</g>
<!-- Node7&#45;&gt;Node6 -->
<g id="edge6_Node000006_Node000007" class="edge">
<title>Node7&#45;&gt;Node6</title>
<g id="a_edge6_Node000006_Node000007"><a xlink:title=" ">
<path fill="none" stroke="#63b8ff" d="M557.88,-283.03C557.88,-262.35 557.88,-231.34 557.88,-206.48"/>
<polygon fill="none" stroke="#63b8ff" points="557.88,-206.66 553.88,-200.66 557.88,-194.66 561.88,-200.66 557.88,-206.66"/>
</a>
</g>
<text xml:space="preserve" text-anchor="start" x="560.88" y="-246.2" font-family="Arial" font-size="9.00" fill="grey">+identifier</text>
</g>
<!-- Node8&#45;&gt;Node1 -->
<g id="edge7_Node000001_Node000008" class="edge">
<title>Node8&#45;&gt;Node1</title>
<g id="a_edge7_Node000001_Node000008"><a xlink:title=" ">
<path fill="none" stroke="#63b8ff" d="M317.86,-136.52C326.46,-116.7 338.39,-89.4 349.12,-65.5 350.09,-63.36 351.08,-61.15 352.09,-58.93"/>
<polygon fill="none" stroke="#63b8ff" points="352.12,-58.87 350.98,-51.75 357.11,-47.96 358.25,-55.08 352.12,-58.87"/>
</a>
</g>
<text xml:space="preserve" text-anchor="start" x="352.12" y="-77.7" font-family="Arial" font-size="9.00" fill="grey">+versions</text>
</g>
<!-- Node9 -->
<g id="Node000009" class="node">
<title>Node9</title>
<g id="a_Node000009"><a xlink:href="../../d3/dac/class_lib_1_1_xbee_1_1_a_p_i_1_1_node_info_1_1_monitor.html" target="_top" xlink:title="Voltage and temperature readings.">
<polygon fill="white" stroke="none" points="737.75,-194.25 630,-194.25 630,-136.25 737.75,-136.25 737.75,-194.25"/>
<text xml:space="preserve" text-anchor="start" x="634" y="-181.7" font-family="Arial" font-size="9.00">Lib::Xbee::API::NodeInfo</text>
<text xml:space="preserve" text-anchor="start" x="666.25" y="-171.2" font-family="Arial" font-size="9.00">::Monitor</text>
<text xml:space="preserve" text-anchor="start" x="682.75" y="-156.7" font-family="Arial" font-size="9.00"> </text>
<text xml:space="preserve" text-anchor="start" x="682.75" y="-142.2" font-family="Arial" font-size="9.00"> </text>
<polygon fill="#666666" stroke="#666666" points="630,-167.25 630,-167.25 737.75,-167.25 737.75,-167.25 630,-167.25"/>
<polygon fill="#666666" stroke="#666666" points="630,-152.75 630,-152.75 737.75,-152.75 737.75,-152.75 630,-152.75"/>
<polygon fill="none" stroke="#666666" points="630,-136.25 630,-194.25 737.75,-194.25 737.75,-136.25 630,-136.25"/>
</a>
</g>
</g>
<!-- Node9&#45;&gt;Node1 -->
<g id="edge9_Node000001_Node000009" class="edge">
<title>Node9&#45;&gt;Node1</title>
<g id="a_edge9_Node000001_Node000009"><a xlink:title=" ">
<path fill="none" stroke="#63b8ff" d="M659.56,-136.38C638.21,-113.74 605.13,-82.81 569.88,-65.5 527.57,-44.73 475.31,-34.54 434.55,-29.55"/>
<polygon fill="none" stroke="#63b8ff" points="434.56,-29.55 428.15,-32.85 422.64,-28.2 429.05,-24.9 434.56,-29.55"/>
</a>
</g>
<text xml:space="preserve" text-anchor="start" x="617.69" y="-77.7" font-family="Arial" font-size="9.00" fill="grey">+monitor</text>
</g>
<!-- Node10 -->
<g id="Node000010" class="node">
<title>Node10</title>
<g id="a_Node000010"><a xlink:title=" ">
<polygon fill="white" stroke="none" points="696.5,-330.5 671.25,-330.5 671.25,-283 696.5,-283 696.5,-330.5"/>
<text xml:space="preserve" text-anchor="start" x="675.25" y="-317.95" font-family="Arial" font-size="9.00">float</text>
<text xml:space="preserve" text-anchor="start" x="682.75" y="-303.45" font-family="Arial" font-size="9.00"> </text>
<text xml:space="preserve" text-anchor="start" x="682.75" y="-288.95" font-family="Arial" font-size="9.00"> </text>
<polygon fill="#bfbfbf" stroke="#bfbfbf" points="671.25,-314 671.25,-314 696.5,-314 696.5,-314 671.25,-314"/>
<polygon fill="#bfbfbf" stroke="#bfbfbf" points="671.25,-299.5 671.25,-299.5 696.5,-299.5 696.5,-299.5 671.25,-299.5"/>
<polygon fill="none" stroke="#bfbfbf" points="671.25,-283 671.25,-330.5 696.5,-330.5 696.5,-283 671.25,-283"/>
</a>
</g>
</g>
<!-- Node10&#45;&gt;Node9 -->
<g id="edge10_Node000009_Node000010" class="edge">
<title>Node10&#45;&gt;Node9</title>
<g id="a_edge10_Node000009_Node000010"><a xlink:title=" ">
<path fill="none" stroke="#63b8ff" d="M683.88,-283.03C683.88,-262.35 683.88,-231.34 683.88,-206.48"/>
<polygon fill="none" stroke="#63b8ff" points="683.88,-206.66 679.88,-200.66 683.88,-194.66 687.88,-200.66 683.88,-206.66"/>
</a>
</g>
<text xml:space="preserve" text-anchor="start" x="686.88" y="-253.45" font-family="Arial" font-size="9.00" fill="grey">+temperatureValue</text>
<text xml:space="preserve" text-anchor="start" x="686.88" y="-238.95" font-family="Arial" font-size="9.00" fill="grey">+voltageValue</text>
</g>
<!-- Node11&#45;&gt;Node1 -->
<g id="edge11_Node000001_Node000011" class="edge">
<title>Node11&#45;&gt;Node1</title>
<g id="a_edge11_Node000001_Node000011"><a xlink:title=" ">
<path fill="none" stroke="#63b8ff" d="M423.29,-136.29C416.64,-116.12 406.61,-88.49 394.88,-65.5 393.67,-63.14 392.36,-60.74 390.98,-58.36"/>
<polygon fill="none" stroke="#63b8ff" points="391.03,-58.44 384.47,-55.45 384.71,-48.24 391.27,-51.24 391.03,-58.44"/>
</a>
</g>
<text xml:space="preserve" text-anchor="start" x="411.01" y="-77.7" font-family="Arial" font-size="9.00" fill="grey">+macDiagnostic</text>
</g>
</g>
</svg>
