<?xml version="1.0" encoding="UTF-8" standalone="no"?>
<!DOCTYPE svg PUBLIC "-//W3C//DTD SVG 1.1//EN"
 "http://www.w3.org/Graphics/SVG/1.1/DTD/svg11.dtd">
<!-- Generated by graphviz version 13.1.0 (20250701.0955)
 -->
<!-- Title: Lib::System::VersionBase Pages: 1 -->
<svg width="306pt" height="372pt"
 viewBox="0.00 0.00 306.00 372.00" xmlns="http://www.w3.org/2000/svg" xmlns:xlink="http://www.w3.org/1999/xlink">
<g id="graph0" class="graph" transform="scale(1 1) rotate(0) translate(4 368)">
<title>Lib::System::VersionBase</title>
<!-- Node1 -->
<g id="Node000001" class="node">
<title>Node1</title>
<g id="a_Node000001"><a xlink:title="Base class for handling version information.">
<polygon fill="#999999" stroke="none" points="209.25,-364 88,-364 88,-200 209.25,-200 209.25,-364"/>
<text xml:space="preserve" text-anchor="start" x="92" y="-350.5" font-family="Helvetica,sans-Serif" font-size="10.00">Lib::System::VersionBase</text>
<text xml:space="preserve" text-anchor="start" x="147.12" y="-334.5" font-family="Helvetica,sans-Serif" font-size="10.00"> </text>
<text xml:space="preserve" text-anchor="start" x="96.06" y="-318.5" font-family="Helvetica,sans-Serif" font-size="10.00">#</text>
<text xml:space="preserve" text-anchor="start" x="109.38" y="-318.5" font-family="Helvetica,sans-Serif" font-size="10.00">VersionBase()</text>
<text xml:space="preserve" text-anchor="start" x="96.06" y="-302.5" font-family="Helvetica,sans-Serif" font-size="10.00">#</text>
<text xml:space="preserve" text-anchor="start" x="109.38" y="-302.5" font-family="Helvetica,sans-Serif" font-size="10.00">~VersionBase()</text>
<text xml:space="preserve" text-anchor="start" x="96.06" y="-286.5" font-family="Helvetica,sans-Serif" font-size="10.00">#</text>
<text xml:space="preserve" text-anchor="start" x="109.38" y="-286.5" font-family="Helvetica,sans-Serif" font-size="10.00">getValue()</text>
<text xml:space="preserve" text-anchor="start" x="96.06" y="-270.5" font-family="Helvetica,sans-Serif" font-size="10.00">#</text>
<text xml:space="preserve" text-anchor="start" x="109.38" y="-270.5" font-family="Helvetica,sans-Serif" font-size="10.00">getSubVersion()</text>
<text xml:space="preserve" text-anchor="start" x="96.06" y="-254.5" font-family="Helvetica,sans-Serif" font-size="10.00">#</text>
<text xml:space="preserve" text-anchor="start" x="109.38" y="-254.5" font-family="Helvetica,sans-Serif" font-size="10.00">toString()</text>
<text xml:space="preserve" text-anchor="start" x="96.06" y="-238.5" font-family="Helvetica,sans-Serif" font-size="10.00">#</text>
<text xml:space="preserve" text-anchor="start" x="109.38" y="-238.5" font-family="Helvetica,sans-Serif" font-size="10.00">operator uint32_t()</text>
<text xml:space="preserve" text-anchor="start" x="96.06" y="-222.5" font-family="Helvetica,sans-Serif" font-size="10.00">#</text>
<text xml:space="preserve" text-anchor="start" x="109.38" y="-222.5" font-family="Helvetica,sans-Serif" font-size="10.00">operator std::string()</text>
<text xml:space="preserve" text-anchor="start" x="96.06" y="-206.5" font-family="Helvetica,sans-Serif" font-size="10.00">#</text>
<text xml:space="preserve" text-anchor="start" x="109.38" y="-206.5" font-family="Helvetica,sans-Serif" font-size="10.00">stringToU32()</text>
<polygon fill="#666666" stroke="#666666" points="88,-346 88,-346 209.25,-346 209.25,-346 88,-346"/>
<polygon fill="#666666" stroke="#666666" points="88,-330 88,-330 209.25,-330 209.25,-330 88,-330"/>
<polygon fill="none" stroke="#666666" points="88,-200 88,-364 209.25,-364 209.25,-200 88,-200"/>
</a>
</g>
</g>
<!-- Node2 -->
<g id="Node000002" class="node">
<title>Node2</title>
<g id="a_Node000002"><a xlink:href="../../de/d82/class_lib_1_1_system_1_1_firmware_version.html" target="_top" xlink:title="FirmwareVersion class for firmware versioning and build date retrieval.">
<polygon fill="white" stroke="none" points="139.25,-164 0,-164 0,0 139.25,0 139.25,-164"/>
<text xml:space="preserve" text-anchor="start" x="4" y="-150.5" font-family="Helvetica,sans-Serif" font-size="10.00">Lib::System::FirmwareVersion</text>
<text xml:space="preserve" text-anchor="start" x="68.12" y="-134.5" font-family="Helvetica,sans-Serif" font-size="10.00"> </text>
<text xml:space="preserve" text-anchor="start" x="12.38" y="-118.5" font-family="Helvetica,sans-Serif" font-size="10.00">+</text>
<text xml:space="preserve" text-anchor="start" x="30.75" y="-118.5" font-family="Helvetica,sans-Serif" font-size="10.00">FirmwareVersion()</text>
<text xml:space="preserve" text-anchor="start" x="12.38" y="-102.5" font-family="Helvetica,sans-Serif" font-size="10.00">+</text>
<text xml:space="preserve" text-anchor="start" x="30.75" y="-102.5" font-family="Helvetica,sans-Serif" font-size="10.00">~FirmwareVersion()</text>
<text xml:space="preserve" text-anchor="start" x="12.38" y="-86.5" font-family="Helvetica,sans-Serif" font-size="10.00">+</text>
<text xml:space="preserve" text-anchor="start" x="30.75" y="-86.5" font-family="Helvetica,sans-Serif" font-size="10.00">getBuildDate()</text>
<text xml:space="preserve" text-anchor="start" x="12.38" y="-70.5" font-family="Helvetica,sans-Serif" font-size="10.00">+</text>
<text xml:space="preserve" text-anchor="start" x="30.75" y="-70.5" font-family="Helvetica,sans-Serif" font-size="10.00">getValue()</text>
<text xml:space="preserve" text-anchor="start" x="12.38" y="-54.5" font-family="Helvetica,sans-Serif" font-size="10.00">+</text>
<text xml:space="preserve" text-anchor="start" x="30.75" y="-54.5" font-family="Helvetica,sans-Serif" font-size="10.00">getSubVersion()</text>
<text xml:space="preserve" text-anchor="start" x="12.38" y="-38.5" font-family="Helvetica,sans-Serif" font-size="10.00">+</text>
<text xml:space="preserve" text-anchor="start" x="30.75" y="-38.5" font-family="Helvetica,sans-Serif" font-size="10.00">toString()</text>
<text xml:space="preserve" text-anchor="start" x="12.38" y="-22.5" font-family="Helvetica,sans-Serif" font-size="10.00">+</text>
<text xml:space="preserve" text-anchor="start" x="30.75" y="-22.5" font-family="Helvetica,sans-Serif" font-size="10.00">operator uint32_t()</text>
<text xml:space="preserve" text-anchor="start" x="12.38" y="-6.5" font-family="Helvetica,sans-Serif" font-size="10.00">+</text>
<text xml:space="preserve" text-anchor="start" x="30.75" y="-6.5" font-family="Helvetica,sans-Serif" font-size="10.00">operator std::string()</text>
<polygon fill="#666666" stroke="#666666" points="0,-146 0,-146 139.25,-146 139.25,-146 0,-146"/>
<polygon fill="#666666" stroke="#666666" points="0,-130 0,-130 139.25,-130 139.25,-130 0,-130"/>
<polygon fill="none" stroke="#666666" points="0,0 0,-164 139.25,-164 139.25,0 0,0"/>
</a>
</g>
</g>
<!-- Node1&#45;&gt;Node2 -->
<g id="edge1_Node000001_Node000002" class="edge">
<title>Node1&#45;&gt;Node2</title>
<g id="a_edge1_Node000001_Node000002"><a xlink:title=" ">
<path fill="none" stroke="#63b8ff" d="M112.21,-189.72C108.77,-181.1 105.29,-172.4 101.9,-163.88"/>
<polygon fill="none" stroke="#63b8ff" points="108.86,-190.78 115.82,-198.77 115.36,-188.19 108.86,-190.78"/>
</a>
</g>
</g>
<!-- Node3 -->
<g id="Node000003" class="node">
<title>Node3</title>
<g id="a_Node000003"><a xlink:href="../../df/d44/class_lib_1_1_system_1_1_hardware_version.html" target="_top" xlink:title="HardwareVersion class.">
<polygon fill="white" stroke="none" points="298,-156 157.25,-156 157.25,-8 298,-8 298,-156"/>
<text xml:space="preserve" text-anchor="start" x="161.25" y="-142.5" font-family="Helvetica,sans-Serif" font-size="10.00">Lib::System::HardwareVersion</text>
<text xml:space="preserve" text-anchor="start" x="226.12" y="-126.5" font-family="Helvetica,sans-Serif" font-size="10.00"> </text>
<text xml:space="preserve" text-anchor="start" x="170" y="-110.5" font-family="Helvetica,sans-Serif" font-size="10.00">+</text>
<text xml:space="preserve" text-anchor="start" x="188.75" y="-110.5" font-family="Helvetica,sans-Serif" font-size="10.00">HardwareVersion()</text>
<text xml:space="preserve" text-anchor="start" x="170" y="-94.5" font-family="Helvetica,sans-Serif" font-size="10.00">+</text>
<text xml:space="preserve" text-anchor="start" x="188.75" y="-94.5" font-family="Helvetica,sans-Serif" font-size="10.00">~HardwareVersion()</text>
<text xml:space="preserve" text-anchor="start" x="170" y="-78.5" font-family="Helvetica,sans-Serif" font-size="10.00">+</text>
<text xml:space="preserve" text-anchor="start" x="188.75" y="-78.5" font-family="Helvetica,sans-Serif" font-size="10.00">getValue()</text>
<text xml:space="preserve" text-anchor="start" x="170" y="-62.5" font-family="Helvetica,sans-Serif" font-size="10.00">+</text>
<text xml:space="preserve" text-anchor="start" x="188.75" y="-62.5" font-family="Helvetica,sans-Serif" font-size="10.00">getSubVersion()</text>
<text xml:space="preserve" text-anchor="start" x="170" y="-46.5" font-family="Helvetica,sans-Serif" font-size="10.00">+</text>
<text xml:space="preserve" text-anchor="start" x="188.75" y="-46.5" font-family="Helvetica,sans-Serif" font-size="10.00">toString()</text>
<text xml:space="preserve" text-anchor="start" x="170" y="-30.5" font-family="Helvetica,sans-Serif" font-size="10.00">+</text>
<text xml:space="preserve" text-anchor="start" x="188.75" y="-30.5" font-family="Helvetica,sans-Serif" font-size="10.00">operator uint32_t()</text>
<text xml:space="preserve" text-anchor="start" x="170" y="-14.5" font-family="Helvetica,sans-Serif" font-size="10.00">+</text>
<text xml:space="preserve" text-anchor="start" x="188.75" y="-14.5" font-family="Helvetica,sans-Serif" font-size="10.00">operator std::string()</text>
<polygon fill="#666666" stroke="#666666" points="157.25,-138 157.25,-138 298,-138 298,-138 157.25,-138"/>
<polygon fill="#666666" stroke="#666666" points="157.25,-122 157.25,-122 298,-122 298,-122 157.25,-122"/>
<polygon fill="none" stroke="#666666" points="157.25,-8 157.25,-156 298,-156 298,-8 157.25,-8"/>
</a>
</g>
</g>
<!-- Node1&#45;&gt;Node3 -->
<g id="edge2_Node000001_Node000003" class="edge">
<title>Node1&#45;&gt;Node3</title>
<g id="a_edge2_Node000001_Node000003"><a xlink:title=" ">
<path fill="none" stroke="#63b8ff" d="M185.01,-189.81C189.54,-178.45 194.13,-166.95 198.53,-155.92"/>
<polygon fill="none" stroke="#63b8ff" points="181.89,-188.19 181.43,-198.77 188.39,-190.78 181.89,-188.19"/>
</a>
</g>
</g>
</g>
</svg>
