<?xml version="1.0" encoding="UTF-8" standalone="no"?>
<!DOCTYPE svg PUBLIC "-//W3C//DTD SVG 1.1//EN"
 "http://www.w3.org/Graphics/SVG/1.1/DTD/svg11.dtd">
<!-- Generated by graphviz version 12.2.1 (20241206.2353)
 -->
<!-- Title: Lib::HAL::I2C::Port::waitForComplete Pages: 1 -->
<svg width="244pt" height="240pt"
 viewBox="0.00 0.00 244.00 240.00" xmlns="http://www.w3.org/2000/svg" xmlns:xlink="http://www.w3.org/1999/xlink">
<g id="graph0" class="graph" transform="scale(1 1) rotate(0) translate(4 236)">
<title>Lib::HAL::I2C::Port::waitForComplete</title>
<!-- Node1 -->
<g id="Node000001" class="node">
<title>Node1</title>
<g id="a_Node000001"><a xlink:title=" ">
<polygon fill="#999999" stroke="#666666" points="236,-132 136,-132 136,-100 236,-100 236,-132"/>
<text text-anchor="start" x="144" y="-118.5" font-family="Helvetica,sans-Serif" font-size="10.00">Lib::HAL::I2C::Port</text>
<text text-anchor="middle" x="186" y="-106.5" font-family="Helvetica,sans-Serif" font-size="10.00">::waitForComplete</text>
</a>
</g>
</g>
<!-- Node2 -->
<g id="Node000002" class="node">
<title>Node2</title>
<g id="a_Node000002"><a xlink:href="../../d3/d4a/a00297.html#ad44da3776d93e6dfbdf0a7bd82982fcc" target="_top" xlink:title="Aborts communication with an I2C device.">
<polygon fill="white" stroke="#666666" points="100,-232 0,-232 0,-200 100,-200 100,-232"/>
<text text-anchor="start" x="8" y="-218.5" font-family="Helvetica,sans-Serif" font-size="10.00">Lib::HAL::I2C::Port</text>
<text text-anchor="middle" x="50" y="-206.5" font-family="Helvetica,sans-Serif" font-size="10.00">::abort</text>
</a>
</g>
</g>
<!-- Node1&#45;&gt;Node2 -->
<g id="edge1_Node000001_Node000002" class="edge">
<title>Node1&#45;&gt;Node2</title>
<g id="a_edge1_Node000001_Node000002"><a xlink:title=" ">
<path fill="none" stroke="#63b8ff" d="M161.16,-139.98C144.82,-155.64 122.17,-175.92 100,-191 95.58,-194.01 90.75,-196.9 85.89,-199.57"/>
<polygon fill="#63b8ff" stroke="#63b8ff" points="163.28,-142.8 168,-133.31 158.4,-137.78 163.28,-142.8"/>
</a>
</g>
</g>
<!-- Node3 -->
<g id="Node000003" class="node">
<title>Node3</title>
<g id="a_Node000003"><a xlink:href="../../d3/d4a/a00297.html#a510aef6573f95880b58b2fb7f79d9afc" target="_top" xlink:title="Receives data from an I2C device memory.">
<polygon fill="white" stroke="#666666" points="100,-182 0,-182 0,-150 100,-150 100,-182"/>
<text text-anchor="start" x="8" y="-168.5" font-family="Helvetica,sans-Serif" font-size="10.00">Lib::HAL::I2C::Port</text>
<text text-anchor="middle" x="50" y="-156.5" font-family="Helvetica,sans-Serif" font-size="10.00">::receive</text>
</a>
</g>
</g>
<!-- Node1&#45;&gt;Node3 -->
<g id="edge2_Node000001_Node000003" class="edge">
<title>Node1&#45;&gt;Node3</title>
<g id="a_edge2_Node000001_Node000003"><a xlink:title=" ">
<path fill="none" stroke="#63b8ff" d="M130.47,-136.35C118.66,-140.75 106.32,-145.36 94.98,-149.59"/>
<polygon fill="#63b8ff" stroke="#63b8ff" points="131.56,-139.68 139.71,-132.9 129.11,-133.12 131.56,-139.68"/>
</a>
</g>
</g>
<!-- Node4 -->
<g id="Node000004" class="node">
<title>Node4</title>
<g id="a_Node000004"><a xlink:href="../../d3/d4a/a00297.html#a17675760cc4f02aeb14a4894d061690a" target="_top" xlink:title="Receives data from an I2C device.">
<polygon fill="white" stroke="#666666" points="100,-132 0,-132 0,-100 100,-100 100,-132"/>
<text text-anchor="start" x="8" y="-118.5" font-family="Helvetica,sans-Serif" font-size="10.00">Lib::HAL::I2C::Port</text>
<text text-anchor="middle" x="50" y="-106.5" font-family="Helvetica,sans-Serif" font-size="10.00">::receive</text>
</a>
</g>
</g>
<!-- Node1&#45;&gt;Node4 -->
<g id="edge3_Node000001_Node000004" class="edge">
<title>Node1&#45;&gt;Node4</title>
<g id="a_edge3_Node000001_Node000004"><a xlink:title=" ">
<path fill="none" stroke="#63b8ff" d="M124.48,-116C116.33,-116 108.05,-116 100.13,-116"/>
<polygon fill="#63b8ff" stroke="#63b8ff" points="124.35,-119.5 134.35,-116 124.35,-112.5 124.35,-119.5"/>
</a>
</g>
</g>
<!-- Node5 -->
<g id="Node000005" class="node">
<title>Node5</title>
<g id="a_Node000005"><a xlink:href="../../d3/d4a/a00297.html#aca66c40efc311a3e14edaf1c96ce2ef0" target="_top" xlink:title="Sends data to an I2C device.">
<polygon fill="white" stroke="#666666" points="100,-82 0,-82 0,-50 100,-50 100,-82"/>
<text text-anchor="start" x="8" y="-68.5" font-family="Helvetica,sans-Serif" font-size="10.00">Lib::HAL::I2C::Port</text>
<text text-anchor="middle" x="50" y="-56.5" font-family="Helvetica,sans-Serif" font-size="10.00">::send</text>
</a>
</g>
</g>
<!-- Node1&#45;&gt;Node5 -->
<g id="edge4_Node000001_Node000005" class="edge">
<title>Node1&#45;&gt;Node5</title>
<g id="a_edge4_Node000001_Node000005"><a xlink:title=" ">
<path fill="none" stroke="#63b8ff" d="M130.47,-95.65C118.66,-91.25 106.32,-86.64 94.98,-82.41"/>
<polygon fill="#63b8ff" stroke="#63b8ff" points="129.11,-98.88 139.71,-99.1 131.56,-92.32 129.11,-98.88"/>
</a>
</g>
</g>
<!-- Node6 -->
<g id="Node000006" class="node">
<title>Node6</title>
<g id="a_Node000006"><a xlink:href="../../d3/d4a/a00297.html#a7d76d94baea20dc843369cbcb5d1e9a5" target="_top" xlink:title="Sends data to an I2C device memory.">
<polygon fill="white" stroke="#666666" points="100,-32 0,-32 0,0 100,0 100,-32"/>
<text text-anchor="start" x="8" y="-18.5" font-family="Helvetica,sans-Serif" font-size="10.00">Lib::HAL::I2C::Port</text>
<text text-anchor="middle" x="50" y="-6.5" font-family="Helvetica,sans-Serif" font-size="10.00">::send</text>
</a>
</g>
</g>
<!-- Node1&#45;&gt;Node6 -->
<g id="edge5_Node000001_Node000006" class="edge">
<title>Node1&#45;&gt;Node6</title>
<g id="a_edge5_Node000001_Node000006"><a xlink:title=" ">
<path fill="none" stroke="#63b8ff" d="M161.16,-92.02C144.82,-76.36 122.17,-56.08 100,-41 95.58,-37.99 90.75,-35.1 85.89,-32.43"/>
<polygon fill="#63b8ff" stroke="#63b8ff" points="158.4,-94.22 168,-98.69 163.28,-89.2 158.4,-94.22"/>
</a>
</g>
</g>
</g>
</svg>
