<?xml version="1.0" encoding="UTF-8" standalone="no"?>
<!DOCTYPE svg PUBLIC "-//W3C//DTD SVG 1.1//EN"
 "http://www.w3.org/Graphics/SVG/1.1/DTD/svg11.dtd">
<!-- Generated by graphviz version 13.1.0 (20250701.0955)
 -->
<!-- Title: BSP::Display Pages: 1 -->
<svg width="309pt" height="636pt"
 viewBox="0.00 0.00 309.00 636.00" xmlns="http://www.w3.org/2000/svg" xmlns:xlink="http://www.w3.org/1999/xlink">
<g id="graph0" class="graph" transform="scale(1 1) rotate(0) translate(4 631.5)">
<title>BSP::Display</title>
<!-- Node1 -->
<g id="Node000001" class="node">
<title>Node1</title>
<g id="a_Node000001"><a xlink:title="ILI9341&#45;based TFT display controller.">
<polygon fill="#999999" stroke="none" points="214.38,-76.5 141.62,-76.5 141.62,0 214.38,0 214.38,-76.5"/>
<text xml:space="preserve" text-anchor="start" x="151.38" y="-63.95" font-family="Arial" font-size="9.00">BSP::Display</text>
<text xml:space="preserve" text-anchor="start" x="176.88" y="-49.45" font-family="Arial" font-size="9.00"> </text>
<text xml:space="preserve" text-anchor="start" x="145.62" y="-34.95" font-family="Arial" font-size="9.00">+</text>
<text xml:space="preserve" text-anchor="start" x="154.88" y="-34.95" font-family="Arial" font-size="9.00">Display()</text>
<text xml:space="preserve" text-anchor="start" x="145.62" y="-20.45" font-family="Arial" font-size="9.00">+</text>
<text xml:space="preserve" text-anchor="start" x="154.88" y="-20.45" font-family="Arial" font-size="9.00">setBacklight()</text>
<text xml:space="preserve" text-anchor="start" x="145.62" y="-5.95" font-family="Arial" font-size="9.00">+</text>
<text xml:space="preserve" text-anchor="start" x="154.88" y="-5.95" font-family="Arial" font-size="9.00">setRotation()</text>
<polygon fill="#666666" stroke="#666666" points="141.62,-60 141.62,-60 214.38,-60 214.38,-60 141.62,-60"/>
<polygon fill="#666666" stroke="#666666" points="141.62,-45.5 141.62,-45.5 214.38,-45.5 214.38,-45.5 141.62,-45.5"/>
<polygon fill="none" stroke="#666666" points="141.62,0 141.62,-76.5 214.38,-76.5 214.38,0 141.62,0"/>
</a>
</g>
</g>
<!-- Node2 -->
<g id="Node000002" class="node">
<title>Node2</title>
<g id="a_Node000002"><a xlink:title=" ">
<polygon fill="white" stroke="none" points="231.25,-273 124.75,-273 124.75,-113.5 231.25,-113.5 231.25,-273"/>
<text xml:space="preserve" text-anchor="start" x="140.5" y="-260.45" font-family="Arial" font-size="9.00">Lib::BSP::Display::</text>
<text xml:space="preserve" text-anchor="start" x="162.62" y="-249.95" font-family="Arial" font-size="9.00">ILI9341</text>
<text xml:space="preserve" text-anchor="start" x="176.88" y="-235.45" font-family="Arial" font-size="9.00"> </text>
<text xml:space="preserve" text-anchor="start" x="128.75" y="-220.95" font-family="Arial" font-size="9.00">+</text>
<text xml:space="preserve" text-anchor="start" x="138" y="-220.95" font-family="Arial" font-size="9.00">Driver()</text>
<text xml:space="preserve" text-anchor="start" x="128.75" y="-206.45" font-family="Arial" font-size="9.00">+</text>
<text xml:space="preserve" text-anchor="start" x="138" y="-206.45" font-family="Arial" font-size="9.00">~Driver()</text>
<text xml:space="preserve" text-anchor="start" x="128.75" y="-191.95" font-family="Arial" font-size="9.00">+</text>
<text xml:space="preserve" text-anchor="start" x="138" y="-191.95" font-family="Arial" font-size="9.00">init()</text>
<text xml:space="preserve" text-anchor="start" x="128.75" y="-177.45" font-family="Arial" font-size="9.00">+</text>
<text xml:space="preserve" text-anchor="start" x="138" y="-177.45" font-family="Arial" font-size="9.00">transmitBlock()</text>
<text xml:space="preserve" text-anchor="start" x="128.75" y="-162.95" font-family="Arial" font-size="9.00">+</text>
<text xml:space="preserve" text-anchor="start" x="138" y="-162.95" font-family="Arial" font-size="9.00">transferCpltCallback()</text>
<text xml:space="preserve" text-anchor="start" x="128.75" y="-148.45" font-family="Arial" font-size="9.00">+</text>
<text xml:space="preserve" text-anchor="start" x="138" y="-148.45" font-family="Arial" font-size="9.00">setRotation()</text>
<text xml:space="preserve" text-anchor="start" x="128.75" y="-133.95" font-family="Arial" font-size="9.00">+</text>
<text xml:space="preserve" text-anchor="start" x="138" y="-133.95" font-family="Arial" font-size="9.00">setBacklight()</text>
<text xml:space="preserve" text-anchor="start" x="128.75" y="-119.45" font-family="Arial" font-size="9.00">+</text>
<text xml:space="preserve" text-anchor="start" x="138" y="-119.45" font-family="Arial" font-size="9.00">postInitCallback()</text>
<polygon fill="#666666" stroke="#666666" points="124.75,-246 124.75,-246 231.25,-246 231.25,-246 124.75,-246"/>
<polygon fill="#666666" stroke="#666666" points="124.75,-231.5 124.75,-231.5 231.25,-231.5 231.25,-231.5 124.75,-231.5"/>
<polygon fill="none" stroke="#666666" points="124.75,-113.5 124.75,-273 231.25,-273 231.25,-113.5 124.75,-113.5"/>
</a>
</g>
</g>
<!-- Node2&#45;&gt;Node1 -->
<g id="edge1_Node000001_Node000002" class="edge">
<title>Node2&#45;&gt;Node1</title>
<g id="a_edge1_Node000001_Node000002"><a xlink:title=" ">
<path fill="none" stroke="#63b8ff" d="M178,-102.27C178,-93.13 178,-84.25 178,-76.18"/>
<polygon fill="none" stroke="#63b8ff" points="174.5,-102 178,-112 181.5,-102 174.5,-102"/>
</a>
</g>
</g>
<!-- Node3 -->
<g id="Node000003" class="node">
<title>Node3</title>
<g id="a_Node000003"><a xlink:href="../../de/df6/a01141.html" target="_top" xlink:title="Abstract base class for display driver operations.">
<polygon fill="white" stroke="none" points="231.62,-484 124.38,-484 124.38,-310 231.62,-310 231.62,-484"/>
<text xml:space="preserve" text-anchor="start" x="140.5" y="-471.45" font-family="Arial" font-size="9.00">Lib::BSP::Display::</text>
<text xml:space="preserve" text-anchor="start" x="155.12" y="-460.95" font-family="Arial" font-size="9.00">DriverBase</text>
<text xml:space="preserve" text-anchor="start" x="176.88" y="-446.45" font-family="Arial" font-size="9.00"> </text>
<text xml:space="preserve" text-anchor="start" x="128.38" y="-431.95" font-family="Arial" font-size="9.00">+</text>
<text xml:space="preserve" text-anchor="start" x="137.62" y="-431.95" font-family="Arial" font-size="9.00">DriverBase()</text>
<text xml:space="preserve" text-anchor="start" x="128.38" y="-417.45" font-family="Arial" font-size="9.00">+</text>
<text xml:space="preserve" text-anchor="start" x="137.62" y="-417.45" font-family="Arial" font-size="9.00">~DriverBase()</text>
<text xml:space="preserve" text-anchor="start" x="128.38" y="-402.95" font-family="Arial" font-size="9.00">+</text>
<text xml:space="preserve" text-anchor="start" x="137.62" y="-402.95" font-family="Arial" font-size="9.00">init()</text>
<text xml:space="preserve" text-anchor="start" x="128.38" y="-388.45" font-family="Arial" font-size="9.00">+</text>
<text xml:space="preserve" text-anchor="start" x="137.62" y="-388.45" font-family="Arial" font-size="9.00">tick()</text>
<text xml:space="preserve" text-anchor="start" x="128.38" y="-373.95" font-family="Arial" font-size="9.00">+</text>
<text xml:space="preserve" text-anchor="start" x="137.62" y="-373.95" font-family="Arial" font-size="9.00">transmitBlock()</text>
<text xml:space="preserve" text-anchor="start" x="128.38" y="-359.45" font-family="Arial" font-size="9.00">+</text>
<text xml:space="preserve" text-anchor="start" x="137.62" y="-359.45" font-family="Arial" font-size="9.00">transferCpltCallback()</text>
<text xml:space="preserve" text-anchor="start" x="128.38" y="-344.95" font-family="Arial" font-size="9.00">+</text>
<text xml:space="preserve" text-anchor="start" x="137.62" y="-344.95" font-family="Arial" font-size="9.00">getTransferActive()</text>
<text xml:space="preserve" text-anchor="start" x="128.38" y="-330.45" font-family="Arial" font-size="9.00">+</text>
<text xml:space="preserve" text-anchor="start" x="137.62" y="-330.45" font-family="Arial" font-size="9.00">shouldTransferBlock()</text>
<text xml:space="preserve" text-anchor="start" x="128.38" y="-315.95" font-family="Arial" font-size="9.00">#</text>
<text xml:space="preserve" text-anchor="start" x="137.62" y="-315.95" font-family="Arial" font-size="9.00">setTransmitActive()</text>
<polygon fill="#666666" stroke="#666666" points="124.38,-457 124.38,-457 231.62,-457 231.62,-457 124.38,-457"/>
<polygon fill="#666666" stroke="#666666" points="124.38,-442.5 124.38,-442.5 231.62,-442.5 231.62,-442.5 124.38,-442.5"/>
<polygon fill="none" stroke="#666666" points="124.38,-310 124.38,-484 231.62,-484 231.62,-310 124.38,-310"/>
</a>
</g>
</g>
<!-- Node3&#45;&gt;Node2 -->
<g id="edge2_Node000002_Node000003" class="edge">
<title>Node3&#45;&gt;Node2</title>
<g id="a_edge2_Node000002_Node000003"><a xlink:title=" ">
<path fill="none" stroke="#63b8ff" d="M178,-298.81C178,-290.15 178,-281.46 178,-272.99"/>
<polygon fill="none" stroke="#63b8ff" points="174.5,-298.63 178,-308.63 181.5,-298.63 174.5,-298.63"/>
</a>
</g>
</g>
<!-- Node3&#45;&gt;Node3 -->
<g id="edge4_Node000003_Node000003" class="edge">
<title>Node3&#45;&gt;Node3</title>
<g id="a_edge4_Node000003_Node000003"><a xlink:title=" ">
<path fill="none" stroke="#63b8ff" d="M231.41,-415.97C242.04,-413.83 249.62,-407.51 249.62,-397 249.62,-391.09 247.23,-386.5 243.24,-383.24"/>
<polygon fill="none" stroke="#63b8ff" points="243.22,-383.23 236.12,-384.48 232.24,-378.4 239.34,-377.16 243.22,-383.23"/>
</a>
</g>
<text xml:space="preserve" text-anchor="start" x="252.62" y="-393.7" font-family="Arial" font-size="9.00" fill="grey">+instance</text>
</g>
<!-- Node4 -->
<g id="Node000004" class="node">
<title>Node4</title>
<g id="a_Node000004"><a xlink:href="../../dd/dee/a01081.html" target="_top" xlink:title="Device driver base class.">
<polygon fill="white" stroke="none" points="122,-627.5 0,-627.5 0,-536.5 122,-536.5 122,-627.5"/>
<text xml:space="preserve" text-anchor="start" x="4" y="-614.95" font-family="Arial" font-size="9.00">Lib::BSP::DeviceDriverBase</text>
<text xml:space="preserve" text-anchor="start" x="59.88" y="-600.45" font-family="Arial" font-size="9.00"> </text>
<text xml:space="preserve" text-anchor="start" x="8.81" y="-585.95" font-family="Arial" font-size="9.00">+</text>
<text xml:space="preserve" text-anchor="start" x="22.88" y="-585.95" font-family="Arial" font-size="9.00">DeviceDriverBase()</text>
<text xml:space="preserve" text-anchor="start" x="8.81" y="-571.45" font-family="Arial" font-size="9.00">+</text>
<text xml:space="preserve" text-anchor="start" x="22.88" y="-571.45" font-family="Arial" font-size="9.00">~DeviceDriverBase()</text>
<text xml:space="preserve" text-anchor="start" x="8.81" y="-556.95" font-family="Arial" font-size="9.00">+</text>
<text xml:space="preserve" text-anchor="start" x="22.88" y="-556.95" font-family="Arial" font-size="9.00">init()</text>
<text xml:space="preserve" text-anchor="start" x="8.81" y="-542.45" font-family="Arial" font-size="9.00">+</text>
<text xml:space="preserve" text-anchor="start" x="22.88" y="-542.45" font-family="Arial" font-size="9.00">tick()</text>
<polygon fill="#666666" stroke="#666666" points="0,-611 0,-611 122,-611 122,-611 0,-611"/>
<polygon fill="#666666" stroke="#666666" points="0,-596.5 0,-596.5 122,-596.5 122,-596.5 0,-596.5"/>
<polygon fill="none" stroke="#666666" points="0,-536.5 0,-627.5 122,-627.5 122,-536.5 0,-536.5"/>
</a>
</g>
</g>
<!-- Node4&#45;&gt;Node3 -->
<g id="edge3_Node000003_Node000004" class="edge">
<title>Node4&#45;&gt;Node3</title>
<g id="a_edge3_Node000003_Node000004"><a xlink:title=" ">
<path fill="none" stroke="#63b8ff" d="M95.47,-527.08C104.6,-512.81 114.66,-497.07 124.54,-481.62"/>
<polygon fill="none" stroke="#63b8ff" points="92.58,-525.12 90.14,-535.43 98.47,-528.89 92.58,-525.12"/>
</a>
</g>
</g>
<!-- Node5 -->
<g id="Node000005" class="node">
<title>Node5</title>
<g id="a_Node000005"><a xlink:title=" ">
<polygon fill="white" stroke="none" points="216.12,-605.75 139.88,-605.75 139.88,-558.25 216.12,-558.25 216.12,-605.75"/>
<text xml:space="preserve" text-anchor="start" x="143.88" y="-593.2" font-family="Arial" font-size="9.00">function&lt; void()&gt;</text>
<text xml:space="preserve" text-anchor="start" x="176.88" y="-578.7" font-family="Arial" font-size="9.00"> </text>
<text xml:space="preserve" text-anchor="start" x="176.88" y="-564.2" font-family="Arial" font-size="9.00"> </text>
<polygon fill="#bfbfbf" stroke="#bfbfbf" points="139.88,-589.25 139.88,-589.25 216.12,-589.25 216.12,-589.25 139.88,-589.25"/>
<polygon fill="#bfbfbf" stroke="#bfbfbf" points="139.88,-574.75 139.88,-574.75 216.12,-574.75 216.12,-574.75 139.88,-574.75"/>
<polygon fill="none" stroke="#bfbfbf" points="139.88,-558.25 139.88,-605.75 216.12,-605.75 216.12,-558.25 139.88,-558.25"/>
</a>
</g>
</g>
<!-- Node5&#45;&gt;Node3 -->
<g id="edge5_Node000003_Node000005" class="edge">
<title>Node5&#45;&gt;Node3</title>
<g id="a_edge5_Node000003_Node000005"><a xlink:title=" ">
<path fill="none" stroke="#63b8ff" d="M178,-558.56C178,-542.62 178,-519.98 178,-496.72"/>
<polygon fill="none" stroke="#63b8ff" points="178,-496.67 174,-490.67 178,-484.67 182,-490.67 178,-496.67"/>
</a>
</g>
<text xml:space="preserve" text-anchor="start" x="181" y="-506.95" font-family="Arial" font-size="9.00" fill="grey">+onTick</text>
</g>
<!-- Node6 -->
<g id="Node000006" class="node">
<title>Node6</title>
<g id="a_Node000006"><a xlink:title=" ">
<polygon fill="white" stroke="none" points="251.88,-605.75 234.12,-605.75 234.12,-558.25 251.88,-558.25 251.88,-605.75"/>
<text xml:space="preserve" text-anchor="start" x="238.12" y="-593.2" font-family="Arial" font-size="9.00">int</text>
<text xml:space="preserve" text-anchor="start" x="241.88" y="-578.7" font-family="Arial" font-size="9.00"> </text>
<text xml:space="preserve" text-anchor="start" x="241.88" y="-564.2" font-family="Arial" font-size="9.00"> </text>
<polygon fill="#bfbfbf" stroke="#bfbfbf" points="234.12,-589.25 234.12,-589.25 251.88,-589.25 251.88,-589.25 234.12,-589.25"/>
<polygon fill="#bfbfbf" stroke="#bfbfbf" points="234.12,-574.75 234.12,-574.75 251.88,-574.75 251.88,-574.75 234.12,-574.75"/>
<polygon fill="none" stroke="#bfbfbf" points="234.12,-558.25 234.12,-605.75 251.88,-605.75 251.88,-558.25 234.12,-558.25"/>
</a>
</g>
</g>
<!-- Node6&#45;&gt;Node3 -->
<g id="edge6_Node000003_Node000006" class="edge">
<title>Node6&#45;&gt;Node3</title>
<g id="a_edge6_Node000003_Node000006"><a xlink:title=" ">
<path fill="none" stroke="#63b8ff" d="M237.05,-558.34C232.72,-542.44 226.5,-520.76 220,-502 219.29,-499.94 218.56,-497.87 217.81,-495.78"/>
<polygon fill="none" stroke="#63b8ff" points="217.83,-495.84 212.02,-491.58 213.71,-484.57 219.53,-488.83 217.83,-495.84"/>
</a>
</g>
<text xml:space="preserve" text-anchor="start" x="227.95" y="-506.95" font-family="Arial" font-size="9.00" fill="grey">#isTransferActive</text>
</g>
</g>
</svg>
