<?xml version="1.0" encoding="UTF-8" standalone="no"?>
<!DOCTYPE svg PUBLIC "-//W3C//DTD SVG 1.1//EN"
 "http://www.w3.org/Graphics/SVG/1.1/DTD/svg11.dtd">
<!-- Generated by graphviz version 13.1.0 (20250701.0955)
 -->
<!-- Title: Lib::Xbee::API::ClientBase Pages: 1 -->
<svg width="156pt" height="196pt"
 viewBox="0.00 0.00 156.00 196.00" xmlns="http://www.w3.org/2000/svg" xmlns:xlink="http://www.w3.org/1999/xlink">
<g id="graph0" class="graph" transform="scale(1 1) rotate(0) translate(4 192)">
<title>Lib::Xbee::API::ClientBase</title>
<!-- Node1 -->
<g id="Node000001" class="node">
<title>Node1</title>
<g id="a_Node000001"><a xlink:title="Base class for Xbee API client applications.">
<polygon fill="#999999" stroke="none" points="137,-76 11.25,-76 11.25,-56 137,-56 137,-76"/>
<text xml:space="preserve" text-anchor="start" x="15.25" y="-62.5" font-family="Helvetica,sans-Serif" font-size="10.00">Lib::Xbee::API::ClientBase</text>
<polygon fill="none" stroke="#666666" points="11.25,-56 11.25,-76 137,-76 137,-56 11.25,-56"/>
</a>
</g>
</g>
<!-- Node4 -->
<g id="Node000004" class="node">
<title>Node4</title>
<g id="a_Node000004"><a xlink:href="../../d3/daf/class_xbee_1_1_client.html" target="_top" xlink:title="Xbee wireless communication client for embedded firmware applications.">
<polygon fill="white" stroke="none" points="105.12,-20 43.12,-20 43.12,0 105.12,0 105.12,-20"/>
<text xml:space="preserve" text-anchor="start" x="47.12" y="-6.5" font-family="Helvetica,sans-Serif" font-size="10.00">Xbee::Client</text>
<polygon fill="none" stroke="#666666" points="43.12,0 43.12,-20 105.12,-20 105.12,0 43.12,0"/>
</a>
</g>
</g>
<!-- Node1&#45;&gt;Node4 -->
<g id="edge3_Node000001_Node000004" class="edge">
<title>Node1&#45;&gt;Node4</title>
<g id="a_edge3_Node000001_Node000004"><a xlink:title=" ">
<path fill="none" stroke="#63b8ff" d="M74.12,-44.61C74.12,-36.02 74.12,-26.47 74.12,-19.75"/>
<polygon fill="none" stroke="#63b8ff" points="70.63,-44.57 74.13,-54.57 77.63,-44.57 70.63,-44.57"/>
</a>
</g>
</g>
<!-- Node2 -->
<g id="Node000002" class="node">
<title>Node2</title>
<g id="a_Node000002"><a xlink:href="../../d2/d61/class_lib_1_1_xbee_1_1_a_p_i_1_1_application_base.html" target="_top" xlink:title="Base class for Xbee API applications.">
<polygon fill="white" stroke="none" points="148.25,-132 0,-132 0,-112 148.25,-112 148.25,-132"/>
<text xml:space="preserve" text-anchor="start" x="4" y="-118.5" font-family="Helvetica,sans-Serif" font-size="10.00">Lib::Xbee::API::ApplicationBase</text>
<polygon fill="none" stroke="#666666" points="0,-112 0,-132 148.25,-132 148.25,-112 0,-112"/>
</a>
</g>
</g>
<!-- Node2&#45;&gt;Node1 -->
<g id="edge1_Node000001_Node000002" class="edge">
<title>Node2&#45;&gt;Node1</title>
<g id="a_edge1_Node000001_Node000002"><a xlink:title=" ">
<path fill="none" stroke="#63b8ff" d="M74.12,-100.61C74.12,-92.02 74.12,-82.47 74.12,-75.75"/>
<polygon fill="none" stroke="#63b8ff" points="70.63,-100.57 74.13,-110.57 77.63,-100.57 70.63,-100.57"/>
</a>
</g>
</g>
<!-- Node3 -->
<g id="Node000003" class="node">
<title>Node3</title>
<g id="a_Node000003"><a xlink:href="../../d2/d81/class_lib_1_1_xbee_1_1_a_p_i_1_1_pause.html" target="_top" xlink:title="Abstract base class for pause and resume services.">
<polygon fill="white" stroke="none" points="126.88,-188 21.38,-188 21.38,-168 126.88,-168 126.88,-188"/>
<text xml:space="preserve" text-anchor="start" x="25.38" y="-174.5" font-family="Helvetica,sans-Serif" font-size="10.00">Lib::Xbee::API::Pause</text>
<polygon fill="none" stroke="#666666" points="21.38,-168 21.38,-188 126.88,-188 126.88,-168 21.38,-168"/>
</a>
</g>
</g>
<!-- Node3&#45;&gt;Node2 -->
<g id="edge2_Node000002_Node000003" class="edge">
<title>Node3&#45;&gt;Node2</title>
<g id="a_edge2_Node000002_Node000003"><a xlink:title=" ">
<path fill="none" stroke="#63b8ff" d="M74.12,-156.61C74.12,-148.02 74.12,-138.47 74.12,-131.75"/>
<polygon fill="none" stroke="#63b8ff" points="70.63,-156.57 74.13,-166.57 77.63,-156.57 70.63,-156.57"/>
</a>
</g>
</g>
</g>
</svg>
