<?xml version="1.0" encoding="UTF-8" standalone="no"?>
<!DOCTYPE svg PUBLIC "-//W3C//DTD SVG 1.1//EN"
 "http://www.w3.org/Graphics/SVG/1.1/DTD/svg11.dtd">
<!-- Generated by graphviz version 13.1.0 (20250701.0955)
 -->
<!-- Title: Lib::Xbee::API::NodeInfo::MacAddress Pages: 1 -->
<svg width="135pt" height="123pt"
 viewBox="0.00 0.00 135.00 123.00" xmlns="http://www.w3.org/2000/svg" xmlns:xlink="http://www.w3.org/1999/xlink">
<g id="graph0" class="graph" transform="scale(1 1) rotate(0) translate(4 118.5)">
<title>Lib::Xbee::API::NodeInfo::MacAddress</title>
<!-- Node1 -->
<g id="Node000001" class="node">
<title>Node1</title>
<g id="a_Node000001"><a xlink:title="64&#45;bit MAC address (split into two 32&#45;bit values).">
<polygon fill="#999999" stroke="none" points="107.75,-29 0,-29 0,0 107.75,0 107.75,-29"/>
<text xml:space="preserve" text-anchor="start" x="4" y="-16.45" font-family="Arial" font-size="9.00">Lib::Xbee::API::NodeInfo</text>
<text xml:space="preserve" text-anchor="start" x="26.12" y="-5.95" font-family="Arial" font-size="9.00">::MacAddress</text>
<polygon fill="none" stroke="#666666" points="0,0 0,-29 107.75,-29 107.75,0 0,0"/>
</a>
</g>
</g>
<!-- Node2 -->
<g id="Node000002" class="node">
<title>Node2</title>
<g id="a_Node000002"><a xlink:title=" ">
<polygon fill="white" stroke="none" points="74.38,-114.5 33.38,-114.5 33.38,-96 74.38,-96 74.38,-114.5"/>
<text xml:space="preserve" text-anchor="start" x="37.38" y="-101.95" font-family="Arial" font-size="9.00">uint32_t</text>
<polygon fill="none" stroke="#bfbfbf" points="33.38,-96 33.38,-114.5 74.38,-114.5 74.38,-96 33.38,-96"/>
</a>
</g>
</g>
<!-- Node2&#45;&gt;Node1 -->
<g id="edge1_Node000001_Node000002" class="edge">
<title>Node2&#45;&gt;Node1</title>
<g id="a_edge1_Node000001_Node000002"><a xlink:title=" ">
<path fill="none" stroke="#63b8ff" d="M53.88,-96.06C53.88,-83.82 53.88,-60.21 53.88,-41.7"/>
<polygon fill="none" stroke="#63b8ff" points="53.88,-41.71 49.88,-35.71 53.88,-29.71 57.88,-35.71 53.88,-41.71"/>
</a>
</g>
<text xml:space="preserve" text-anchor="start" x="56.88" y="-66.45" font-family="Arial" font-size="9.00" fill="grey">+leastSignificant</text>
<text xml:space="preserve" text-anchor="start" x="56.88" y="-51.95" font-family="Arial" font-size="9.00" fill="grey">+mostSignificant</text>
</g>
</g>
</svg>
