<?xml version="1.0" encoding="UTF-8" standalone="no"?>
<!DOCTYPE svg PUBLIC "-//W3C//DTD SVG 1.1//EN"
 "http://www.w3.org/Graphics/SVG/1.1/DTD/svg11.dtd">
<!-- Generated by graphviz version 3.0.0 (20220226.1711)
 -->
<!-- Title: txCpltCallback Pages: 1 -->
<svg width="573pt" height="39pt"
 viewBox="0.00 0.00 573.00 39.00" xmlns="http://www.w3.org/2000/svg" xmlns:xlink="http://www.w3.org/1999/xlink">
<g id="graph0" class="graph" transform="scale(1 1) rotate(0) translate(4 35)">
<title>txCpltCallback</title>
<!-- Node1 -->
<g id="node1" class="node">
<title>Node1</title>
<g id="a_node1"><a xlink:title="Transmit Competed Callback.">
<polygon fill="#bfbfbf" stroke="black" points="0,-6 0,-25 80,-25 80,-6 0,-6"/>
<text text-anchor="middle" x="40" y="-13" font-family="Helvetica,sans-Serif" font-size="10.00">txCpltCallback</text>
</a>
</g>
</g>
<!-- Node2 -->
<g id="node2" class="node">
<title>Node2</title>
<g id="a_node2"><a xlink:href="../../da/d4b/class_b_s_p_1_1_c_t_a_s6424.html#af1a3baaf296e7a15e6ebbe0fb60e1120" target="_top" xlink:title="I2S Transmit Completed callback.">
<polygon fill="none" stroke="black" points="116,-6 116,-25 274,-25 274,-6 116,-6"/>
<text text-anchor="middle" x="195" y="-13" font-family="Helvetica,sans-Serif" font-size="10.00">BSP::CTAS6424::txCpltCallback</text>
</a>
</g>
</g>
<!-- Node1&#45;&gt;Node2 -->
<g id="edge1" class="edge">
<title>Node1&#45;&gt;Node2</title>
<path fill="none" stroke="midnightblue" d="M80,-15.5C87.98,-15.5 96.68,-15.5 105.6,-15.5"/>
<polygon fill="midnightblue" stroke="midnightblue" points="105.74,-19 115.74,-15.5 105.74,-12 105.74,-19"/>
</g>
<!-- Node3 -->
<g id="node3" class="node">
<title>Node3</title>
<g id="a_node3"><a xlink:href="../../d0/d5e/class_b_s_p_1_1_c_t_a_s6424_1_1_x_i2_s.html#a20b935c1b48a79e0e41767aa44b168c5" target="_top" xlink:title="Transmit completed callback.">
<polygon fill="none" stroke="black" points="310,-0.5 310,-30.5 425,-30.5 425,-0.5 310,-0.5"/>
<text text-anchor="start" x="318" y="-18.5" font-family="Helvetica,sans-Serif" font-size="10.00">BSP::CTAS6424::XI2S</text>
<text text-anchor="middle" x="367.5" y="-7.5" font-family="Helvetica,sans-Serif" font-size="10.00">::sampleProcess</text>
</a>
</g>
</g>
<!-- Node2&#45;&gt;Node3 -->
<g id="edge2" class="edge">
<title>Node2&#45;&gt;Node3</title>
<path fill="none" stroke="midnightblue" d="M274.26,-15.5C282.64,-15.5 291.1,-15.5 299.32,-15.5"/>
<polygon fill="midnightblue" stroke="midnightblue" points="299.59,-19 309.59,-15.5 299.59,-12 299.59,-19"/>
</g>
<!-- Node4 -->
<g id="node4" class="node">
<title>Node4</title>
<g id="a_node4"><a xlink:href="../../d9/dbd/class_h_a_l_1_1_c_i2_s.html#ae2fdd5d0b65cd3f026b6dbd338bea58b" target="_top" xlink:title="Transmit an amount of data in non&#45;blocking mode with Interrupt.">
<polygon fill="none" stroke="black" points="461,-6 461,-25 565,-25 565,-6 461,-6"/>
<text text-anchor="middle" x="513" y="-13" font-family="Helvetica,sans-Serif" font-size="10.00">HAL::CI2S::transmit</text>
</a>
</g>
</g>
<!-- Node3&#45;&gt;Node4 -->
<g id="edge3" class="edge">
<title>Node3&#45;&gt;Node4</title>
<path fill="none" stroke="midnightblue" d="M425.21,-15.5C433.57,-15.5 442.21,-15.5 450.65,-15.5"/>
<polygon fill="midnightblue" stroke="midnightblue" points="450.82,-19 460.82,-15.5 450.82,-12 450.82,-19"/>
</g>
</g>
</svg>
