<?xml version="1.0" encoding="UTF-8" standalone="no"?>
<!DOCTYPE svg PUBLIC "-//W3C//DTD SVG 1.1//EN"
 "http://www.w3.org/Graphics/SVG/1.1/DTD/svg11.dtd">
<!-- Generated by graphviz version 13.1.0 (20250701.0955)
 -->
<!-- Title: Lib::BSP::XPT2046::Driver::Position Pages: 1 -->
<svg width="108pt" height="88pt"
 viewBox="0.00 0.00 108.00 88.00" xmlns="http://www.w3.org/2000/svg" xmlns:xlink="http://www.w3.org/1999/xlink">
<g id="graph0" class="graph" transform="scale(1 1) rotate(0) translate(4 84)">
<title>Lib::BSP::XPT2046::Driver::Position</title>
<!-- Node1 -->
<g id="Node000001" class="node">
<title>Node1</title>
<g id="a_Node000001"><a xlink:title="Touch position.">
<polygon fill="#999999" stroke="none" points="99.5,-80 0,-80 0,0 99.5,0 99.5,-80"/>
<text xml:space="preserve" text-anchor="start" x="4" y="-66.5" font-family="Helvetica,sans-Serif" font-size="10.00">Lib::BSP::XPT2046::</text>
<text xml:space="preserve" text-anchor="start" x="16" y="-54.5" font-family="Helvetica,sans-Serif" font-size="10.00">Driver::Position</text>
<text xml:space="preserve" text-anchor="start" x="15" y="-38.5" font-family="Helvetica,sans-Serif" font-size="10.00">+</text>
<text xml:space="preserve" text-anchor="start" x="36" y="-38.5" font-family="Helvetica,sans-Serif" font-size="10.00">int32_t x</text>
<text xml:space="preserve" text-anchor="start" x="15" y="-22.5" font-family="Helvetica,sans-Serif" font-size="10.00">+</text>
<text xml:space="preserve" text-anchor="start" x="36" y="-22.5" font-family="Helvetica,sans-Serif" font-size="10.00">int32_t y</text>
<text xml:space="preserve" text-anchor="start" x="48.25" y="-6.5" font-family="Helvetica,sans-Serif" font-size="10.00"> </text>
<polygon fill="#666666" stroke="#666666" points="0,-50 0,-50 99.5,-50 99.5,-50 0,-50"/>
<polygon fill="#666666" stroke="#666666" points="0,-18 0,-18 34,-18 34,-18 0,-18"/>
<polygon fill="#666666" stroke="#666666" points="34,-18 34,-18 99.5,-18 99.5,-18 34,-18"/>
<polygon fill="none" stroke="#666666" points="0,0 0,-80 99.5,-80 99.5,0 0,0"/>
</a>
</g>
</g>
</g>
</svg>
