<?xml version="1.0" encoding="UTF-8" standalone="no"?>
<!DOCTYPE svg PUBLIC "-//W3C//DTD SVG 1.1//EN"
 "http://www.w3.org/Graphics/SVG/1.1/DTD/svg11.dtd">
<!-- Generated by graphviz version 13.1.0 (20250701.0955)
 -->
<!-- Title: Lib::HAL::resetSystem Pages: 1 -->
<svg width="289pt" height="84pt"
 viewBox="0.00 0.00 289.00 84.00" xmlns="http://www.w3.org/2000/svg" xmlns:xlink="http://www.w3.org/1999/xlink">
<g id="graph0" class="graph" transform="scale(1 1) rotate(0) translate(4 80)">
<title>Lib::HAL::resetSystem</title>
<!-- Node1 -->
<g id="Node000001" class="node">
<title>Node1</title>
<g id="a_Node000001"><a xlink:title="Triggers a system reset.">
<polygon fill="#999999" stroke="#666666" points="115.75,-39 0,-39 0,-19 115.75,-19 115.75,-39"/>
<text xml:space="preserve" text-anchor="middle" x="57.88" y="-25.5" font-family="Helvetica,sans-Serif" font-size="10.00">Lib::HAL::resetSystem</text>
</a>
</g>
</g>
<!-- Node2 -->
<g id="Node000002" class="node">
<title>Node2</title>
<g id="a_Node000002"><a xlink:href="../../dd/d7c/class_lib_1_1_h_a_l_1_1_reset.html#a27e8a18a6d4079a7a0cd6ab8d644eafa" target="_top" xlink:title="Returns the singleton instance of the Reset class.">
<polygon fill="white" stroke="#666666" points="281,-58 151.75,-58 151.75,-38 281,-38 281,-58"/>
<text xml:space="preserve" text-anchor="middle" x="216.38" y="-44.5" font-family="Helvetica,sans-Serif" font-size="10.00">Lib::HAL::Reset::instance</text>
</a>
</g>
</g>
<!-- Node1&#45;&gt;Node2 -->
<g id="edge1_Node000001_Node000002" class="edge">
<title>Node1&#45;&gt;Node2</title>
<g id="a_edge1_Node000001_Node000002"><a xlink:title=" ">
<path fill="none" stroke="#63b8ff" d="M115.82,-35.91C123.66,-36.87 131.81,-37.85 139.92,-38.84"/>
<polygon fill="#63b8ff" stroke="#63b8ff" points="139.47,-42.31 149.82,-40.04 140.31,-35.36 139.47,-42.31"/>
</a>
</g>
</g>
<!-- Node3 -->
<g id="Node000003" class="node">
<title>Node3</title>
<g id="a_Node000003"><a xlink:href="../../dd/d7c/class_lib_1_1_h_a_l_1_1_reset.html#a225bc2f9446e98c3aa0c41b90cc94161" target="_top" xlink:title="Triggers a system reset using STM32 HAL.">
<polygon fill="white" stroke="#666666" points="273.5,-20 159.25,-20 159.25,0 273.5,0 273.5,-20"/>
<text xml:space="preserve" text-anchor="middle" x="216.38" y="-6.5" font-family="Helvetica,sans-Serif" font-size="10.00">Lib::HAL::Reset::reset</text>
</a>
</g>
</g>
<!-- Node1&#45;&gt;Node3 -->
<g id="edge3_Node000001_Node000003" class="edge">
<title>Node1&#45;&gt;Node3</title>
<g id="a_edge3_Node000001_Node000003"><a xlink:title=" ">
<path fill="none" stroke="#63b8ff" d="M115.82,-22.09C126.15,-20.83 137.02,-19.51 147.63,-18.22"/>
<polygon fill="#63b8ff" stroke="#63b8ff" points="147.99,-21.71 157.5,-17.03 147.15,-14.76 147.99,-21.71"/>
</a>
</g>
</g>
<!-- Node2&#45;&gt;Node2 -->
<g id="edge2_Node000002_Node000002" class="edge">
<title>Node2&#45;&gt;Node2</title>
<g id="a_edge2_Node000002_Node000002"><a xlink:title=" ">
<path fill="none" stroke="#63b8ff" d="M191.19,-58.34C180.43,-66.98 188.82,-76 216.38,-76 231.44,-76 240.78,-73.3 244.39,-69.44"/>
<polygon fill="#63b8ff" stroke="#63b8ff" points="247.79,-68.63 241.93,-59.81 241.01,-70.36 247.79,-68.63"/>
</a>
</g>
</g>
</g>
</svg>
