<?xml version="1.0" encoding="UTF-8" standalone="no"?>
<!DOCTYPE svg PUBLIC "-//W3C//DTD SVG 1.1//EN"
 "http://www.w3.org/Graphics/SVG/1.1/DTD/svg11.dtd">
<!-- Generated by graphviz version 12.2.1 (20241206.2353)
 -->
<!-- Title: Watchdog Pages: 1 -->
<svg width="166pt" height="116pt"
 viewBox="0.00 0.00 166.25 116.00" xmlns="http://www.w3.org/2000/svg" xmlns:xlink="http://www.w3.org/1999/xlink">
<g id="graph0" class="graph" transform="scale(1 1) rotate(0) translate(4 112)">
<title>Watchdog</title>
<!-- Node1 -->
<g id="Node000001" class="node">
<title>Node1</title>
<g id="a_Node000001"><a xlink:title="Singleton class for STM32 Independent Watchdog (IWDG) management.">
<polygon fill="#999999" stroke="none" points="158.25,-108 0,-108 0,0 158.25,0 158.25,-108"/>
<text text-anchor="start" x="57.38" y="-94.5" font-family="Helvetica,sans-Serif" font-size="10.00">Watchdog</text>
<text text-anchor="start" x="77.62" y="-78.5" font-family="Helvetica,sans-Serif" font-size="10.00"> </text>
<text text-anchor="start" x="4" y="-62.5" font-family="Helvetica,sans-Serif" font-size="10.00">+</text>
<text text-anchor="start" x="14" y="-62.5" font-family="Helvetica,sans-Serif" font-size="10.00">bool init(uint32_t</text>
<text text-anchor="start" x="14" y="-50.5" font-family="Helvetica,sans-Serif" font-size="10.00"> prescaler, uint32_t</text>
<text text-anchor="start" x="14" y="-38.5" font-family="Helvetica,sans-Serif" font-size="10.00"> reload)</text>
<text text-anchor="start" x="4" y="-22.5" font-family="Helvetica,sans-Serif" font-size="10.00">+</text>
<text text-anchor="start" x="14" y="-22.5" font-family="Helvetica,sans-Serif" font-size="10.00">void refresh()</text>
<text text-anchor="start" x="4" y="-6.5" font-family="Helvetica,sans-Serif" font-size="10.00">+</text>
<text text-anchor="start" x="14" y="-6.5" font-family="Helvetica,sans-Serif" font-size="10.00">static Watchdog &amp; getInstance()</text>
<polygon fill="#666666" stroke="#666666" points="0,-90 0,-90 158.25,-90 158.25,-90 0,-90"/>
<polygon fill="#666666" stroke="#666666" points="0,-74 0,-74 158.25,-74 158.25,-74 0,-74"/>
<polygon fill="none" stroke="#666666" points="0,0 0,-108 158.25,-108 158.25,0 0,0"/>
</a>
</g>
</g>
</g>
</svg>
