<?xml version="1.0" encoding="UTF-8" standalone="no"?>
<!DOCTYPE svg PUBLIC "-//W3C//DTD SVG 1.1//EN"
 "http://www.w3.org/Graphics/SVG/1.1/DTD/svg11.dtd">
<!-- Generated by graphviz version 12.2.1 (20241206.2353)
 -->
<!-- Title: Frame0x8a.hpp Pages: 1 -->
<svg width="232pt" height="196pt"
 viewBox="0.00 0.00 231.62 196.00" xmlns="http://www.w3.org/2000/svg" xmlns:xlink="http://www.w3.org/1999/xlink">
<g id="graph0" class="graph" transform="scale(1 1) rotate(0) translate(4 192)">
<title>Frame0x8a.hpp</title>
<!-- Node1 -->
<g id="Node000001" class="node">
<title>Node1</title>
<g id="a_Node000001"><a xlink:title="Defines the Frame0x8a class which represents the Modem Status frame (0x8A) in the XBee API.">
<polygon fill="#999999" stroke="#666666" points="149.5,-188 66,-188 66,-168 149.5,-168 149.5,-188"/>
<text text-anchor="middle" x="107.75" y="-174.5" font-family="Helvetica,sans-Serif" font-size="10.00">Frame0x8a.hpp</text>
</a>
</g>
</g>
<!-- Node2 -->
<g id="Node000002" class="node">
<title>Node2</title>
<g id="a_Node000002"><a xlink:href="../../d6/d7d/a00161.html" target="_top" xlink:title="This file contains the definition of the ModemStatus class which handles various modem status events.">
<polygon fill="white" stroke="#666666" points="95.5,-132 0,-132 0,-112 95.5,-112 95.5,-132"/>
<text text-anchor="middle" x="47.75" y="-118.5" font-family="Helvetica,sans-Serif" font-size="10.00">ModemStatus.hpp</text>
</a>
</g>
</g>
<!-- Node1&#45;&gt;Node2 -->
<g id="edge1_Node000001_Node000002" class="edge">
<title>Node1&#45;&gt;Node2</title>
<g id="a_edge1_Node000001_Node000002"><a xlink:title=" ">
<path fill="none" stroke="#63b8ff" d="M89,-160.13C78.8,-150.94 66.56,-139.93 58.08,-132.3"/>
<polygon fill="#63b8ff" stroke="#63b8ff" points="86.4,-162.49 96.17,-166.58 91.08,-157.29 86.4,-162.49"/>
</a>
</g>
</g>
<!-- Node3 -->
<g id="Node000003" class="node">
<title>Node3</title>
<g id="a_Node000003"><a xlink:href="../../dc/d57/a00194.html" target="_top" xlink:title="Defines the ResponseEvents class for handling various XBee response events.">
<polygon fill="white" stroke="#666666" points="223.62,-132 113.88,-132 113.88,-112 223.62,-112 223.62,-132"/>
<text text-anchor="middle" x="168.75" y="-118.5" font-family="Helvetica,sans-Serif" font-size="10.00">ResponseEvents.hpp</text>
</a>
</g>
</g>
<!-- Node1&#45;&gt;Node3 -->
<g id="edge2_Node000001_Node000003" class="edge">
<title>Node1&#45;&gt;Node3</title>
<g id="a_edge2_Node000001_Node000003"><a xlink:title=" ">
<path fill="none" stroke="#63b8ff" d="M126.81,-160.13C137.19,-150.94 149.62,-139.93 158.25,-132.3"/>
<polygon fill="#63b8ff" stroke="#63b8ff" points="124.68,-157.34 119.51,-166.59 129.32,-162.58 124.68,-157.34"/>
</a>
</g>
</g>
<!-- Node4 -->
<g id="Node000004" class="node">
<title>Node4</title>
<g id="a_Node000004"><a xlink:href="../../dc/de6/a00167.html" target="_top" xlink:title="This file contains the definition of the Protocol class used for handling XBee communication.">
<polygon fill="white" stroke="#666666" points="204.12,-76 133.38,-76 133.38,-56 204.12,-56 204.12,-76"/>
<text text-anchor="middle" x="168.75" y="-62.5" font-family="Helvetica,sans-Serif" font-size="10.00">Protocol.hpp</text>
</a>
</g>
</g>
<!-- Node3&#45;&gt;Node4 -->
<g id="edge3_Node000003_Node000004" class="edge">
<title>Node3&#45;&gt;Node4</title>
<g id="a_edge3_Node000003_Node000004"><a xlink:title=" ">
<path fill="none" stroke="#63b8ff" d="M168.75,-100.13C168.75,-91.9 168.75,-82.85 168.75,-76.3"/>
<polygon fill="#63b8ff" stroke="#63b8ff" points="165.25,-100.08 168.75,-110.08 172.25,-100.08 165.25,-100.08"/>
</a>
</g>
</g>
<!-- Node5 -->
<g id="Node000005" class="node">
<title>Node5</title>
<g id="a_Node000005"><a xlink:href="../../d7/d06/a00131.html" target="_top" xlink:title="Defines the ComDriver class for handling communication with the XBee module.">
<polygon fill="white" stroke="#666666" points="209.75,-20 127.75,-20 127.75,0 209.75,0 209.75,-20"/>
<text text-anchor="middle" x="168.75" y="-6.5" font-family="Helvetica,sans-Serif" font-size="10.00">ComDriver.hpp</text>
</a>
</g>
</g>
<!-- Node4&#45;&gt;Node5 -->
<g id="edge4_Node000004_Node000005" class="edge">
<title>Node4&#45;&gt;Node5</title>
<g id="a_edge4_Node000004_Node000005"><a xlink:title=" ">
<path fill="none" stroke="#63b8ff" d="M168.75,-44.13C168.75,-35.9 168.75,-26.85 168.75,-20.3"/>
<polygon fill="#63b8ff" stroke="#63b8ff" points="165.25,-44.08 168.75,-54.08 172.25,-44.08 165.25,-44.08"/>
</a>
</g>
</g>
</g>
</svg>
