<?xml version="1.0" encoding="UTF-8" standalone="no"?>
<!DOCTYPE svg PUBLIC "-//W3C//DTD SVG 1.1//EN"
 "http://www.w3.org/Graphics/SVG/1.1/DTD/svg11.dtd">
<!-- Generated by graphviz version 10.0.1 (20240210.2158)
 -->
<!-- Title: Frame0x88.hpp Pages: 1 -->
<svg width="246pt" height="196pt"
 viewBox="0.00 0.00 245.75 196.00" xmlns="http://www.w3.org/2000/svg" xmlns:xlink="http://www.w3.org/1999/xlink">
<g id="graph0" class="graph" transform="scale(1 1) rotate(0) translate(4 192)">
<title>Frame0x88.hpp</title>
<!-- Node1 -->
<g id="Node000001" class="node">
<title>Node1</title>
<g id="a_Node000001"><a xlink:title="Defines the Frame0x88 class for handling Frame&#45;0x88 responses from the device.">
<polygon fill="#999999" stroke="#666666" points="161.75,-188 78.25,-188 78.25,-168 161.75,-168 161.75,-188"/>
<text text-anchor="middle" x="120" y="-174.5" font-family="Helvetica,sans-Serif" font-size="10.00">Frame0x88.hpp</text>
</a>
</g>
</g>
<!-- Node2 -->
<g id="Node000002" class="node">
<title>Node2</title>
<g id="a_Node000002"><a xlink:href="../../d6/d7d/a00161.html" target="_top" xlink:title="This file contains the definition of the LocalAtCommand class, which is used to send and receive AT c...">
<polygon fill="white" stroke="#666666" points="112,-132 0,-132 0,-112 112,-112 112,-132"/>
<text text-anchor="middle" x="56" y="-118.5" font-family="Helvetica,sans-Serif" font-size="10.00">LocalAtCommand.hpp</text>
</a>
</g>
</g>
<!-- Node1&#45;&gt;Node2 -->
<g id="edge1_Node000001_Node000002" class="edge">
<title>Node1&#45;&gt;Node2</title>
<g id="a_edge1_Node000001_Node000002"><a xlink:title=" ">
<path fill="none" stroke="#63b8ff" d="M100.33,-160.4C89.38,-151.17 76.16,-140.01 67.02,-132.3"/>
<polygon fill="#63b8ff" stroke="#63b8ff" points="97.8,-162.84 107.7,-166.62 102.31,-157.49 97.8,-162.84"/>
</a>
</g>
</g>
<!-- Node3 -->
<g id="Node000003" class="node">
<title>Node3</title>
<g id="a_Node000003"><a xlink:href="../../d3/db1/a00200.html" target="_top" xlink:title="Defines the ResponseEvents class for handling various XBee response events.">
<polygon fill="white" stroke="#666666" points="237.75,-132 130.25,-132 130.25,-112 237.75,-112 237.75,-132"/>
<text text-anchor="middle" x="184" y="-118.5" font-family="Helvetica,sans-Serif" font-size="10.00">ResponseEvents.hpp</text>
</a>
</g>
</g>
<!-- Node1&#45;&gt;Node3 -->
<g id="edge2_Node000001_Node000003" class="edge">
<title>Node1&#45;&gt;Node3</title>
<g id="a_edge2_Node000001_Node000003"><a xlink:title=" ">
<path fill="none" stroke="#63b8ff" d="M139.67,-160.4C150.62,-151.17 163.84,-140.01 172.98,-132.3"/>
<polygon fill="#63b8ff" stroke="#63b8ff" points="137.69,-157.49 132.3,-166.62 142.2,-162.84 137.69,-157.49"/>
</a>
</g>
</g>
<!-- Node4 -->
<g id="Node000004" class="node">
<title>Node4</title>
<g id="a_Node000004"><a xlink:href="../../d7/d3f/a00173.html" target="_top" xlink:title="This file contains the definition of the Protocol class used for handling XBee communication.">
<polygon fill="white" stroke="#666666" points="219.38,-76 148.62,-76 148.62,-56 219.38,-56 219.38,-76"/>
<text text-anchor="middle" x="184" y="-62.5" font-family="Helvetica,sans-Serif" font-size="10.00">Protocol.hpp</text>
</a>
</g>
</g>
<!-- Node3&#45;&gt;Node4 -->
<g id="edge3_Node000003_Node000004" class="edge">
<title>Node3&#45;&gt;Node4</title>
<g id="a_edge3_Node000003_Node000004"><a xlink:title=" ">
<path fill="none" stroke="#63b8ff" d="M184,-100.13C184,-91.9 184,-82.85 184,-76.3"/>
<polygon fill="#63b8ff" stroke="#63b8ff" points="180.5,-100.08 184,-110.08 187.5,-100.08 180.5,-100.08"/>
</a>
</g>
</g>
<!-- Node5 -->
<g id="Node000005" class="node">
<title>Node5</title>
<g id="a_Node000005"><a xlink:href="../../de/d76/a00134.html" target="_top" xlink:title="Defines the ComDriver class for handling communication with the XBee module.">
<polygon fill="white" stroke="#666666" points="223.5,-20 144.5,-20 144.5,0 223.5,0 223.5,-20"/>
<text text-anchor="middle" x="184" y="-6.5" font-family="Helvetica,sans-Serif" font-size="10.00">ComDriver.hpp</text>
</a>
</g>
</g>
<!-- Node4&#45;&gt;Node5 -->
<g id="edge4_Node000004_Node000005" class="edge">
<title>Node4&#45;&gt;Node5</title>
<g id="a_edge4_Node000004_Node000005"><a xlink:title=" ">
<path fill="none" stroke="#63b8ff" d="M184,-44.13C184,-35.9 184,-26.85 184,-20.3"/>
<polygon fill="#63b8ff" stroke="#63b8ff" points="180.5,-44.08 184,-54.08 187.5,-44.08 180.5,-44.08"/>
</a>
</g>
</g>
</g>
</svg>
