<?xml version="1.0" encoding="UTF-8" standalone="no"?>
<!DOCTYPE svg PUBLIC "-//W3C//DTD SVG 1.1//EN"
 "http://www.w3.org/Graphics/SVG/1.1/DTD/svg11.dtd">
<!-- Generated by graphviz version 13.1.0 (20250701.0955)
 -->
<!-- Title: Lib::HAL::GPIO::Pin&lt; Type::INPUT &gt; Pages: 1 -->
<svg width="417pt" height="541pt"
 viewBox="0.00 0.00 417.00 541.00" xmlns="http://www.w3.org/2000/svg" xmlns:xlink="http://www.w3.org/1999/xlink">
<g id="graph0" class="graph" transform="scale(1 1) rotate(0) translate(4 537)">
<title>Lib::HAL::GPIO::Pin&lt; Type::INPUT &gt;</title>
<!-- Node1 -->
<g id="Node000001" class="node">
<title>Node1</title>
<g id="a_Node000001"><a xlink:title="GPIO input pin specialization.">
<polygon fill="#999999" stroke="none" points="295.62,-354 139.62,-354 139.62,0 295.62,0 295.62,-354"/>
<text xml:space="preserve" text-anchor="start" x="177.88" y="-341.45" font-family="Arial" font-size="9.00">Lib::HAL::GPIO::Pin</text>
<text xml:space="preserve" text-anchor="start" x="184.25" y="-330.95" font-family="Arial" font-size="9.00">&lt; Type::INPUT &gt;</text>
<text xml:space="preserve" text-anchor="start" x="216.5" y="-316.45" font-family="Arial" font-size="9.00"> </text>
<text xml:space="preserve" text-anchor="start" x="143.62" y="-301.95" font-family="Arial" font-size="9.00">+</text>
<text xml:space="preserve" text-anchor="start" x="152.88" y="-301.95" font-family="Arial" font-size="9.00">Pin()=default</text>
<text xml:space="preserve" text-anchor="start" x="143.62" y="-287.45" font-family="Arial" font-size="9.00">+</text>
<text xml:space="preserve" text-anchor="start" x="152.88" y="-287.45" font-family="Arial" font-size="9.00">Pin(GPIO_TypeDef *port,</text>
<text xml:space="preserve" text-anchor="start" x="152.88" y="-276.95" font-family="Arial" font-size="9.00"> uint16_t number)</text>
<text xml:space="preserve" text-anchor="start" x="143.62" y="-262.45" font-family="Arial" font-size="9.00">+</text>
<text xml:space="preserve" text-anchor="start" x="152.88" y="-262.45" font-family="Arial" font-size="9.00">Pin(const Handle &amp;handle)</text>
<text xml:space="preserve" text-anchor="start" x="143.62" y="-247.95" font-family="Arial" font-size="9.00">+</text>
<text xml:space="preserve" text-anchor="start" x="152.88" y="-247.95" font-family="Arial" font-size="9.00">Pin(const Pin &amp;other)</text>
<text xml:space="preserve" text-anchor="start" x="152.88" y="-237.45" font-family="Arial" font-size="9.00">=default</text>
<text xml:space="preserve" text-anchor="start" x="143.62" y="-222.95" font-family="Arial" font-size="9.00">+</text>
<text xml:space="preserve" text-anchor="start" x="152.88" y="-222.95" font-family="Arial" font-size="9.00">Pin(Pin &amp;&amp;other)=default</text>
<text xml:space="preserve" text-anchor="start" x="143.62" y="-208.45" font-family="Arial" font-size="9.00">+</text>
<text xml:space="preserve" text-anchor="start" x="152.88" y="-208.45" font-family="Arial" font-size="9.00">virtual ~Pin()=default</text>
<text xml:space="preserve" text-anchor="start" x="143.62" y="-193.95" font-family="Arial" font-size="9.00">+</text>
<text xml:space="preserve" text-anchor="start" x="152.88" y="-193.95" font-family="Arial" font-size="9.00">virtual const Pin &amp;</text>
<text xml:space="preserve" text-anchor="start" x="152.88" y="-183.45" font-family="Arial" font-size="9.00"> operator=(const Pin</text>
<text xml:space="preserve" text-anchor="start" x="152.88" y="-172.95" font-family="Arial" font-size="9.00"> &amp;&amp;other)</text>
<text xml:space="preserve" text-anchor="start" x="143.62" y="-158.45" font-family="Arial" font-size="9.00">+</text>
<text xml:space="preserve" text-anchor="start" x="152.88" y="-158.45" font-family="Arial" font-size="9.00">virtual operator bool</text>
<text xml:space="preserve" text-anchor="start" x="152.88" y="-147.95" font-family="Arial" font-size="9.00">() const</text>
<text xml:space="preserve" text-anchor="start" x="143.62" y="-133.45" font-family="Arial" font-size="9.00">+</text>
<text xml:space="preserve" text-anchor="start" x="152.88" y="-133.45" font-family="Arial" font-size="9.00">virtual bool operator</text>
<text xml:space="preserve" text-anchor="start" x="152.88" y="-122.95" font-family="Arial" font-size="9.00">==(const Handle &amp;handle)</text>
<text xml:space="preserve" text-anchor="start" x="152.88" y="-112.45" font-family="Arial" font-size="9.00"> const</text>
<text xml:space="preserve" text-anchor="start" x="143.62" y="-97.95" font-family="Arial" font-size="9.00">+</text>
<text xml:space="preserve" text-anchor="start" x="152.88" y="-97.95" font-family="Arial" font-size="9.00">virtual bool read()</text>
<text xml:space="preserve" text-anchor="start" x="152.88" y="-87.45" font-family="Arial" font-size="9.00"> const</text>
<text xml:space="preserve" text-anchor="start" x="143.62" y="-72.95" font-family="Arial" font-size="9.00">+</text>
<text xml:space="preserve" text-anchor="start" x="152.88" y="-72.95" font-family="Arial" font-size="9.00">const Handle &amp; getHandle</text>
<text xml:space="preserve" text-anchor="start" x="152.88" y="-62.45" font-family="Arial" font-size="9.00">() const</text>
<text xml:space="preserve" text-anchor="start" x="143.62" y="-47.95" font-family="Arial" font-size="9.00">+</text>
<text xml:space="preserve" text-anchor="start" x="152.88" y="-47.95" font-family="Arial" font-size="9.00">void setMode(EMode</text>
<text xml:space="preserve" text-anchor="start" x="152.88" y="-37.45" font-family="Arial" font-size="9.00"> mode, EPull pull=EPull</text>
<text xml:space="preserve" text-anchor="start" x="152.88" y="-26.95" font-family="Arial" font-size="9.00">::NOPULL, ESpeed speed</text>
<text xml:space="preserve" text-anchor="start" x="152.88" y="-16.45" font-family="Arial" font-size="9.00">=ESpeed::LOW, uint32_t alternate</text>
<text xml:space="preserve" text-anchor="start" x="152.88" y="-5.95" font-family="Arial" font-size="9.00">=0) const</text>
<polygon fill="#666666" stroke="#666666" points="139.62,-327 139.62,-327 295.62,-327 295.62,-327 139.62,-327"/>
<polygon fill="#666666" stroke="#666666" points="139.62,-312.5 139.62,-312.5 295.62,-312.5 295.62,-312.5 139.62,-312.5"/>
<polygon fill="none" stroke="#666666" points="139.62,0 139.62,-354 295.62,-354 295.62,0 139.62,0"/>
</a>
</g>
</g>
<!-- Node2 -->
<g id="Node000002" class="node">
<title>Node2</title>
<g id="a_Node000002"><a xlink:href="../../d3/d9a/class_lib_1_1_h_a_l_1_1_g_p_i_o_1_1_handle.html" target="_top" xlink:title="GPIO pin handle abstraction.">
<polygon fill="white" stroke="none" points="113.25,-533 0,-533 0,-406.5 113.25,-406.5 113.25,-533"/>
<text xml:space="preserve" text-anchor="start" x="8.62" y="-520.45" font-family="Arial" font-size="9.00">Lib::HAL::GPIO::Handle</text>
<text xml:space="preserve" text-anchor="start" x="4" y="-505.95" font-family="Arial" font-size="9.00">+</text>
<text xml:space="preserve" text-anchor="start" x="13.25" y="-505.95" font-family="Arial" font-size="9.00">GPIO_TypeDef * port</text>
<text xml:space="preserve" text-anchor="start" x="4" y="-491.45" font-family="Arial" font-size="9.00">+</text>
<text xml:space="preserve" text-anchor="start" x="13.25" y="-491.45" font-family="Arial" font-size="9.00">uint16_t number</text>
<text xml:space="preserve" text-anchor="start" x="4" y="-476.95" font-family="Arial" font-size="9.00">+</text>
<text xml:space="preserve" text-anchor="start" x="13.25" y="-476.95" font-family="Arial" font-size="9.00">Handle()=default</text>
<text xml:space="preserve" text-anchor="start" x="4" y="-462.45" font-family="Arial" font-size="9.00">+</text>
<text xml:space="preserve" text-anchor="start" x="13.25" y="-462.45" font-family="Arial" font-size="9.00">Handle(GPIO_TypeDef</text>
<text xml:space="preserve" text-anchor="start" x="13.25" y="-451.95" font-family="Arial" font-size="9.00"> *port, uint16_t number)</text>
<text xml:space="preserve" text-anchor="start" x="4" y="-437.45" font-family="Arial" font-size="9.00">+</text>
<text xml:space="preserve" text-anchor="start" x="13.25" y="-437.45" font-family="Arial" font-size="9.00">~Handle()=default</text>
<text xml:space="preserve" text-anchor="start" x="4" y="-422.95" font-family="Arial" font-size="9.00">+</text>
<text xml:space="preserve" text-anchor="start" x="13.25" y="-422.95" font-family="Arial" font-size="9.00">bool operator==(const</text>
<text xml:space="preserve" text-anchor="start" x="13.25" y="-412.45" font-family="Arial" font-size="9.00"> Handle &amp;other) const</text>
<polygon fill="#666666" stroke="#666666" points="0,-516.5 0,-516.5 113.25,-516.5 113.25,-516.5 0,-516.5"/>
<polygon fill="#666666" stroke="#666666" points="0,-487.5 0,-487.5 11.25,-487.5 11.25,-487.5 0,-487.5"/>
<polygon fill="#666666" stroke="#666666" points="11.25,-487.5 11.25,-487.5 113.25,-487.5 113.25,-487.5 11.25,-487.5"/>
<polygon fill="none" stroke="#666666" points="0,-406.5 0,-533 113.25,-533 113.25,-406.5 0,-406.5"/>
</a>
</g>
</g>
<!-- Node2&#45;&gt;Node1 -->
<g id="edge1_Node000001_Node000002" class="edge">
<title>Node2&#45;&gt;Node1</title>
<g id="a_edge1_Node000001_Node000002"><a xlink:title=" ">
<path fill="none" stroke="#63b8ff" d="M96.47,-396.8C109.59,-373.1 124.67,-345.86 139.64,-318.83"/>
<polygon fill="none" stroke="#63b8ff" points="93.48,-394.97 91.7,-405.41 99.61,-398.36 93.48,-394.97"/>
</a>
</g>
</g>
<!-- Node3 -->
<g id="Node000003" class="node">
<title>Node3</title>
<g id="a_Node000003"><a xlink:href="../../de/d19/class_lib_1_1_h_a_l_1_1_g_p_i_o_1_1_mode.html" target="_top" xlink:title="GPIO mode configuration class.">
<polygon fill="white" stroke="none" points="303.5,-519.75 131.75,-519.75 131.75,-419.75 303.5,-419.75 303.5,-519.75"/>
<text xml:space="preserve" text-anchor="start" x="173" y="-507.2" font-family="Arial" font-size="9.00">Lib::HAL::GPIO::Mode</text>
<text xml:space="preserve" text-anchor="start" x="216.5" y="-492.7" font-family="Arial" font-size="9.00"> </text>
<text xml:space="preserve" text-anchor="start" x="135.75" y="-478.2" font-family="Arial" font-size="9.00">+</text>
<text xml:space="preserve" text-anchor="start" x="145" y="-478.2" font-family="Arial" font-size="9.00">void setMode(GPIO_TypeDef</text>
<text xml:space="preserve" text-anchor="start" x="145" y="-467.7" font-family="Arial" font-size="9.00"> *port, uint16_t pinNum,</text>
<text xml:space="preserve" text-anchor="start" x="145" y="-457.2" font-family="Arial" font-size="9.00"> GPIOMode mode, GPIOPull</text>
<text xml:space="preserve" text-anchor="start" x="145" y="-446.7" font-family="Arial" font-size="9.00"> pull=GPIOPull::NOPULL, GPIOSpeed</text>
<text xml:space="preserve" text-anchor="start" x="145" y="-436.2" font-family="Arial" font-size="9.00"> speed=GPIOSpeed::LOW, uint32</text>
<text xml:space="preserve" text-anchor="start" x="145" y="-425.7" font-family="Arial" font-size="9.00">_t alternate=0) const</text>
<polygon fill="#666666" stroke="#666666" points="131.75,-503.25 131.75,-503.25 303.5,-503.25 303.5,-503.25 131.75,-503.25"/>
<polygon fill="#666666" stroke="#666666" points="131.75,-488.75 131.75,-488.75 303.5,-488.75 303.5,-488.75 131.75,-488.75"/>
<polygon fill="none" stroke="#666666" points="131.75,-419.75 131.75,-519.75 303.5,-519.75 303.5,-419.75 131.75,-419.75"/>
</a>
</g>
</g>
<!-- Node3&#45;&gt;Node1 -->
<g id="edge2_Node000001_Node000003" class="edge">
<title>Node3&#45;&gt;Node1</title>
<g id="a_edge2_Node000001_Node000003"><a xlink:title=" ">
<path fill="none" stroke="#8b1a1a" d="M217.62,-408.71C217.62,-392.19 217.62,-373.4 217.62,-353.84"/>
<polygon fill="none" stroke="#8b1a1a" points="214.13,-408.24 217.63,-418.24 221.13,-408.24 214.13,-408.24"/>
</a>
</g>
</g>
<!-- Node4 -->
<g id="Node000004" class="node">
<title>Node4</title>
<g id="a_Node000004"><a xlink:href="../../d5/d05/class_lib_1_1_h_a_l_1_1_g_p_i_o_1_1_pin.html" target="_top" xlink:title="GPIO pin template class.">
<polygon fill="white" stroke="none" points="409.38,-498.75 321.88,-498.75 321.88,-440.75 409.38,-440.75 409.38,-498.75"/>
<text xml:space="preserve" text-anchor="start" x="325.88" y="-486.2" font-family="Arial" font-size="9.00">Lib::HAL::GPIO::Pin</text>
<text xml:space="preserve" text-anchor="start" x="340.12" y="-475.7" font-family="Arial" font-size="9.00">&lt; pinMode &gt;</text>
<text xml:space="preserve" text-anchor="start" x="364.5" y="-461.2" font-family="Arial" font-size="9.00"> </text>
<text xml:space="preserve" text-anchor="start" x="364.5" y="-446.7" font-family="Arial" font-size="9.00"> </text>
<polygon fill="#666666" stroke="#666666" points="321.88,-471.75 321.88,-471.75 409.38,-471.75 409.38,-471.75 321.88,-471.75"/>
<polygon fill="#666666" stroke="#666666" points="321.88,-457.25 321.88,-457.25 409.38,-457.25 409.38,-457.25 321.88,-457.25"/>
<polygon fill="none" stroke="#666666" points="321.88,-440.75 321.88,-498.75 409.38,-498.75 409.38,-440.75 321.88,-440.75"/>
</a>
</g>
</g>
<!-- Node4&#45;&gt;Node1 -->
<g id="edge3_Node000001_Node000004" class="edge">
<title>Node4&#45;&gt;Node1</title>
<g id="a_edge3_Node000001_Node000004"><a xlink:title=" ">
<path fill="none" stroke="orange" d="M346.27,-430.73C333.02,-404.7 314.5,-368.3 295.62,-331.22"/>
<polygon fill="orange" stroke="orange" points="343.09,-432.2 350.75,-439.52 349.33,-429.02 343.09,-432.2"/>
</a>
</g>
<text xml:space="preserve" text-anchor="start" x="324.89" y="-376.95" font-family="Arial" font-size="9.00" fill="grey">&lt; Type::INPUT &gt;</text>
</g>
</g>
</svg>
