<?xml version="1.0" encoding="UTF-8" standalone="no"?>
<!DOCTYPE svg PUBLIC "-//W3C//DTD SVG 1.1//EN"
 "http://www.w3.org/Graphics/SVG/1.1/DTD/svg11.dtd">
<!-- Generated by graphviz version 13.1.0 (20250701.0955)
 -->
<!-- Title: Lib::HAL::GPIO::Pin&lt; Type::INPUT &gt; Pages: 1 -->
<svg width="270pt" height="171pt"
 viewBox="0.00 0.00 270.00 171.00" xmlns="http://www.w3.org/2000/svg" xmlns:xlink="http://www.w3.org/1999/xlink">
<g id="graph0" class="graph" transform="scale(1 1) rotate(0) translate(4 167)">
<title>Lib::HAL::GPIO::Pin&lt; Type::INPUT &gt;</title>
<!-- Node1 -->
<g id="Node000001" class="node">
<title>Node1</title>
<g id="a_Node000001"><a xlink:title="Specializes the Pin template for input pins, providing state reading and configuration for GPIO input...">
<polygon fill="#999999" stroke="none" points="193.38,-32 96.12,-32 96.12,0 193.38,0 193.38,-32"/>
<text xml:space="preserve" text-anchor="start" x="100.12" y="-18.5" font-family="Helvetica,sans-Serif" font-size="10.00">Lib::HAL::GPIO::Pin</text>
<text xml:space="preserve" text-anchor="start" x="107.25" y="-6.5" font-family="Helvetica,sans-Serif" font-size="10.00">&lt; Type::INPUT &gt;</text>
<polygon fill="none" stroke="#666666" points="96.12,0 96.12,-32 193.38,-32 193.38,0 96.12,0"/>
</a>
</g>
</g>
<!-- Node2 -->
<g id="Node000002" class="node">
<title>Node2</title>
<g id="a_Node000002"><a xlink:href="../../d3/d9a/class_lib_1_1_h_a_l_1_1_g_p_i_o_1_1_handle.html" target="_top" xlink:title="GPIO pin handle abstraction.">
<polygon fill="white" stroke="none" points="137.62,-89 23.88,-89 23.88,-69 137.62,-69 137.62,-89"/>
<text xml:space="preserve" text-anchor="start" x="27.88" y="-75.5" font-family="Helvetica,sans-Serif" font-size="10.00">Lib::HAL::GPIO::Handle</text>
<polygon fill="none" stroke="#666666" points="23.88,-69 23.88,-89 137.62,-89 137.62,-69 23.88,-69"/>
</a>
</g>
</g>
<!-- Node2&#45;&gt;Node1 -->
<g id="edge1_Node000001_Node000002" class="edge">
<title>Node2&#45;&gt;Node1</title>
<g id="a_edge1_Node000001_Node000002"><a xlink:title=" ">
<path fill="none" stroke="#63b8ff" d="M98.04,-61.52C107.75,-52.27 119.76,-40.82 129.17,-31.85"/>
<polygon fill="none" stroke="#63b8ff" points="95.84,-58.78 91.02,-68.22 100.67,-63.85 95.84,-58.78"/>
</a>
</g>
</g>
<!-- Node3 -->
<g id="Node000003" class="node">
<title>Node3</title>
<g id="a_Node000003"><a xlink:title=" ">
<polygon fill="white" stroke="none" points="81.5,-163 0,-163 0,-143 81.5,-143 81.5,-163"/>
<text xml:space="preserve" text-anchor="start" x="4" y="-149.5" font-family="Helvetica,sans-Serif" font-size="10.00">GPIO_TypeDef *</text>
<polygon fill="none" stroke="#bfbfbf" points="0,-143 0,-163 81.5,-163 81.5,-143 0,-143"/>
</a>
</g>
</g>
<!-- Node3&#45;&gt;Node2 -->
<g id="edge2_Node000002_Node000003" class="edge">
<title>Node3&#45;&gt;Node2</title>
<g id="a_edge2_Node000002_Node000003"><a xlink:title=" ">
<path fill="none" stroke="#63b8ff" d="M45.65,-143.17C51.59,-132.48 61.77,-114.16 69.65,-99.99"/>
<polygon fill="none" stroke="#63b8ff" points="69.54,-100.18 68.96,-92.99 75.37,-89.69 75.95,-96.88 69.54,-100.18"/>
</a>
</g>
<text xml:space="preserve" text-anchor="start" x="68.51" y="-112.5" font-family="Helvetica,sans-Serif" font-size="10.00" fill="grey">+port</text>
</g>
<!-- Node4 -->
<g id="Node000004" class="node">
<title>Node4</title>
<g id="a_Node000004"><a xlink:title=" ">
<polygon fill="white" stroke="none" points="142,-163 99.5,-163 99.5,-143 142,-143 142,-163"/>
<text xml:space="preserve" text-anchor="start" x="103.5" y="-149.5" font-family="Helvetica,sans-Serif" font-size="10.00">uint16_t</text>
<polygon fill="none" stroke="#bfbfbf" points="99.5,-143 99.5,-163 142,-163 142,-143 99.5,-143"/>
</a>
</g>
</g>
<!-- Node4&#45;&gt;Node2 -->
<g id="edge3_Node000002_Node000004" class="edge">
<title>Node4&#45;&gt;Node2</title>
<g id="a_edge3_Node000002_Node000004"><a xlink:title=" ">
<path fill="none" stroke="#63b8ff" d="M116.57,-143.25C112.12,-134.09 104.78,-119.35 97.75,-107 96.38,-104.59 94.9,-102.1 93.4,-99.64"/>
<polygon fill="none" stroke="#63b8ff" points="93.5,-99.79 86.91,-96.85 87.1,-89.64 93.68,-92.59 93.5,-99.79"/>
</a>
</g>
<text xml:space="preserve" text-anchor="start" x="109.99" y="-112.5" font-family="Helvetica,sans-Serif" font-size="10.00" fill="grey">+number</text>
</g>
<!-- Node5 -->
<g id="Node000005" class="node">
<title>Node5</title>
<g id="a_Node000005"><a xlink:href="../../de/d19/class_lib_1_1_h_a_l_1_1_g_p_i_o_1_1_mode.html" target="_top" xlink:title="GPIO mode configuration class.">
<polygon fill="white" stroke="none" points="262.25,-89 155.25,-89 155.25,-69 262.25,-69 262.25,-89"/>
<text xml:space="preserve" text-anchor="start" x="159.25" y="-75.5" font-family="Helvetica,sans-Serif" font-size="10.00">Lib::HAL::GPIO::Mode</text>
<polygon fill="none" stroke="#666666" points="155.25,-69 155.25,-89 262.25,-89 262.25,-69 155.25,-69"/>
</a>
</g>
</g>
<!-- Node5&#45;&gt;Node1 -->
<g id="edge4_Node000001_Node000005" class="edge">
<title>Node5&#45;&gt;Node1</title>
<g id="a_edge4_Node000001_Node000005"><a xlink:title=" ">
<path fill="none" stroke="#8b1a1a" d="M191.46,-61.52C181.75,-52.27 169.74,-40.82 160.33,-31.85"/>
<polygon fill="none" stroke="#8b1a1a" points="188.83,-63.85 198.48,-68.22 193.66,-58.78 188.83,-63.85"/>
</a>
</g>
</g>
</g>
</svg>
