<?xml version="1.0" encoding="UTF-8" standalone="no"?>
<!DOCTYPE svg PUBLIC "-//W3C//DTD SVG 1.1//EN"
 "http://www.w3.org/Graphics/SVG/1.1/DTD/svg11.dtd">
<!-- Generated by graphviz version 13.1.0 (20250701.0955)
 -->
<!-- Title: RTOS::Timer::Config::fromSeconds Pages: 1 -->
<svg width="405pt" height="90pt"
 viewBox="0.00 0.00 405.00 90.00" xmlns="http://www.w3.org/2000/svg" xmlns:xlink="http://www.w3.org/1999/xlink">
<g id="graph0" class="graph" transform="scale(1 1) rotate(0) translate(4 86)">
<title>RTOS::Timer::Config::fromSeconds</title>
<!-- Node1 -->
<g id="Node000001" class="node">
<title>Node1</title>
<g id="a_Node000001"><a xlink:title="Create timer configuration from seconds.">
<polygon fill="#999999" stroke="#666666" points="108.25,-60 0,-60 0,-28 108.25,-28 108.25,-60"/>
<text xml:space="preserve" text-anchor="start" x="8" y="-46.5" font-family="Helvetica,sans-Serif" font-size="10.00">RTOS::Timer::Config</text>
<text xml:space="preserve" text-anchor="middle" x="54.12" y="-34.5" font-family="Helvetica,sans-Serif" font-size="10.00">::fromSeconds</text>
</a>
</g>
</g>
<!-- Node2 -->
<g id="Node000002" class="node">
<title>Node2</title>
<g id="a_Node000002"><a xlink:href="../../d5/ddf/a00224.html#a63245dfa470b0035e0890b428863ea15" target="_top" xlink:title="Construct timer configuration.">
<polygon fill="white" stroke="#666666" points="396.75,-82 288.5,-82 288.5,-50 396.75,-50 396.75,-82"/>
<text xml:space="preserve" text-anchor="start" x="296.5" y="-68.5" font-family="Helvetica,sans-Serif" font-size="10.00">RTOS::Timer::Config</text>
<text xml:space="preserve" text-anchor="middle" x="342.62" y="-56.5" font-family="Helvetica,sans-Serif" font-size="10.00">::Config</text>
</a>
</g>
</g>
<!-- Node1&#45;&gt;Node2 -->
<g id="edge1_Node000001_Node000002" class="edge">
<title>Node1&#45;&gt;Node2</title>
<g id="a_edge1_Node000001_Node000002"><a xlink:title=" ">
<path fill="none" stroke="#63b8ff" d="M108.68,-48.11C156.41,-51.78 226.37,-57.15 277.16,-61.05"/>
<polygon fill="#63b8ff" stroke="#63b8ff" points="276.59,-64.52 286.83,-61.79 277.12,-57.54 276.59,-64.52"/>
</a>
</g>
</g>
<!-- Node3 -->
<g id="Node000003" class="node">
<title>Node3</title>
<g id="a_Node000003"><a xlink:href="../../d5/ddf/a00224.html#ad30799a489f18f04fda7d53cd09a68c3" target="_top" xlink:title="Create timer configuration from milliseconds.">
<polygon fill="white" stroke="#666666" points="252.5,-38 144.25,-38 144.25,-6 252.5,-6 252.5,-38"/>
<text xml:space="preserve" text-anchor="start" x="152.25" y="-24.5" font-family="Helvetica,sans-Serif" font-size="10.00">RTOS::Timer::Config</text>
<text xml:space="preserve" text-anchor="middle" x="198.38" y="-12.5" font-family="Helvetica,sans-Serif" font-size="10.00">::fromMs</text>
</a>
</g>
</g>
<!-- Node1&#45;&gt;Node3 -->
<g id="edge2_Node000001_Node000003" class="edge">
<title>Node1&#45;&gt;Node3</title>
<g id="a_edge2_Node000001_Node000003"><a xlink:title=" ">
<path fill="none" stroke="#63b8ff" d="M108.5,-35.75C116.43,-34.52 124.67,-33.24 132.8,-31.99"/>
<polygon fill="#63b8ff" stroke="#63b8ff" points="133.33,-35.45 142.68,-30.46 132.26,-28.53 133.33,-35.45"/>
</a>
</g>
</g>
<!-- Node3&#45;&gt;Node2 -->
<g id="edge3_Node000003_Node000002" class="edge">
<title>Node3&#45;&gt;Node2</title>
<g id="a_edge3_Node000003_Node000002"><a xlink:title=" ">
<path fill="none" stroke="#63b8ff" d="M252.34,-38.38C260.58,-40.93 269.17,-43.59 277.62,-46.2"/>
<polygon fill="#63b8ff" stroke="#63b8ff" points="276.58,-49.54 287.17,-49.16 278.65,-42.86 276.58,-49.54"/>
</a>
</g>
</g>
<!-- Node4 -->
<g id="Node000004" class="node">
<title>Node4</title>
<g id="a_Node000004"><a xlink:href="../../d1/d72/a00204.html#ac0cef5f74597d9fd2e71b9eed937365d" target="_top" xlink:title="Converts milliseconds to FreeRTOS ticks.">
<polygon fill="white" stroke="#666666" points="396.75,-32 288.5,-32 288.5,0 396.75,0 396.75,-32"/>
<text xml:space="preserve" text-anchor="start" x="296.5" y="-18.5" font-family="Helvetica,sans-Serif" font-size="10.00">RTOS::TickCounter::</text>
<text xml:space="preserve" text-anchor="middle" x="342.62" y="-6.5" font-family="Helvetica,sans-Serif" font-size="10.00">msToTicks</text>
</a>
</g>
</g>
<!-- Node3&#45;&gt;Node4 -->
<g id="edge4_Node000003_Node000004" class="edge">
<title>Node3&#45;&gt;Node4</title>
<g id="a_edge4_Node000003_Node000004"><a xlink:title=" ">
<path fill="none" stroke="#63b8ff" d="M252.75,-19.75C260.68,-19.41 268.92,-19.07 277.05,-18.72"/>
<polygon fill="#63b8ff" stroke="#63b8ff" points="277.07,-22.23 286.91,-18.31 276.77,-15.23 277.07,-22.23"/>
</a>
</g>
</g>
</g>
</svg>
