<?xml version="1.0" encoding="UTF-8" standalone="no"?>
<!DOCTYPE svg PUBLIC "-//W3C//DTD SVG 1.1//EN"
 "http://www.w3.org/Graphics/SVG/1.1/DTD/svg11.dtd">
<!-- Generated by graphviz version 12.2.1 (20241206.2353)
 -->
<!-- Title: Checksum.hpp Pages: 1 -->
<svg width="242pt" height="140pt"
 viewBox="0.00 0.00 242.25 140.00" xmlns="http://www.w3.org/2000/svg" xmlns:xlink="http://www.w3.org/1999/xlink">
<g id="graph0" class="graph" transform="scale(1 1) rotate(0) translate(4 136)">
<title>Checksum.hpp</title>
<!-- Node1 -->
<g id="Node000001" class="node">
<title>Node1</title>
<g id="a_Node000001"><a xlink:title="Defines the Checksum class used for calculating the checksum of Digi API frames.">
<polygon fill="#999999" stroke="#666666" points="163.75,-132 81.75,-132 81.75,-112 163.75,-112 163.75,-132"/>
<text text-anchor="middle" x="122.75" y="-118.5" font-family="Helvetica,sans-Serif" font-size="10.00">Checksum.hpp</text>
</a>
</g>
</g>
<!-- Node2 -->
<g id="Node000002" class="node">
<title>Node2</title>
<g id="a_Node000002"><a xlink:href="../../d2/df5/a00137.html" target="_top" xlink:title="This file contains the definition of the DigiApiFrameBuffer class.">
<polygon fill="white" stroke="#666666" points="119.5,-76 0,-76 0,-56 119.5,-56 119.5,-76"/>
<text text-anchor="middle" x="59.75" y="-62.5" font-family="Helvetica,sans-Serif" font-size="10.00">DigiApiFrameBuffer.hpp</text>
</a>
</g>
</g>
<!-- Node1&#45;&gt;Node2 -->
<g id="edge1_Node000001_Node000002" class="edge">
<title>Node1&#45;&gt;Node2</title>
<g id="a_edge1_Node000001_Node000002"><a xlink:title=" ">
<path fill="none" stroke="#63b8ff" d="M111.78,-111.59C102.83,-103.93 89.98,-92.91 79.29,-83.75"/>
<polygon fill="#63b8ff" stroke="#63b8ff" points="81.62,-81.13 71.75,-77.28 77.06,-86.45 81.62,-81.13"/>
</a>
</g>
</g>
<!-- Node5 -->
<g id="Node000005" class="node">
<title>Node5</title>
<g id="a_Node000005"><a xlink:href="../../d9/db6/a00146.html" target="_top" xlink:title="Defines the Header structure for Xbee frames.">
<polygon fill="white" stroke="#666666" points="234.25,-76 137.25,-76 137.25,-56 234.25,-56 234.25,-76"/>
<text text-anchor="middle" x="185.75" y="-62.5" font-family="Helvetica,sans-Serif" font-size="10.00">Frame/Header.hpp</text>
</a>
</g>
</g>
<!-- Node1&#45;&gt;Node5 -->
<g id="edge4_Node000001_Node000005" class="edge">
<title>Node1&#45;&gt;Node5</title>
<g id="a_edge4_Node000001_Node000005"><a xlink:title=" ">
<path fill="none" stroke="#63b8ff" d="M133.72,-111.59C142.67,-103.93 155.52,-92.91 166.21,-83.75"/>
<polygon fill="#63b8ff" stroke="#63b8ff" points="168.44,-86.45 173.75,-77.28 163.88,-81.13 168.44,-86.45"/>
</a>
</g>
</g>
<!-- Node3 -->
<g id="Node000003" class="node">
<title>Node3</title>
<g id="a_Node000003"><a xlink:title=" ">
<polygon fill="#e0e0e0" stroke="#999999" points="49.62,-20 11.88,-20 11.88,0 49.62,0 49.62,-20"/>
<text text-anchor="middle" x="30.75" y="-6.5" font-family="Helvetica,sans-Serif" font-size="10.00">array</text>
</a>
</g>
</g>
<!-- Node2&#45;&gt;Node3 -->
<g id="edge2_Node000002_Node000003" class="edge">
<title>Node2&#45;&gt;Node3</title>
<g id="a_edge2_Node000002_Node000003"><a xlink:title=" ">
<path fill="none" stroke="#63b8ff" d="M54.7,-55.59C50.96,-48.63 45.73,-38.89 41.11,-30.29"/>
<polygon fill="#63b8ff" stroke="#63b8ff" points="44.27,-28.79 36.46,-21.63 38.11,-32.1 44.27,-28.79"/>
</a>
</g>
</g>
<!-- Node4 -->
<g id="Node000004" class="node">
<title>Node4</title>
<g id="a_Node000004"><a xlink:title=" ">
<polygon fill="#e0e0e0" stroke="#999999" points="110.25,-20 67.25,-20 67.25,0 110.25,0 110.25,-20"/>
<text text-anchor="middle" x="88.75" y="-6.5" font-family="Helvetica,sans-Serif" font-size="10.00">vector</text>
</a>
</g>
</g>
<!-- Node2&#45;&gt;Node4 -->
<g id="edge3_Node000002_Node000004" class="edge">
<title>Node2&#45;&gt;Node4</title>
<g id="a_edge3_Node000002_Node000004"><a xlink:title=" ">
<path fill="none" stroke="#63b8ff" d="M64.8,-55.59C68.54,-48.63 73.77,-38.89 78.39,-30.29"/>
<polygon fill="#63b8ff" stroke="#63b8ff" points="81.39,-32.1 83.04,-21.63 75.23,-28.79 81.39,-32.1"/>
</a>
</g>
</g>
</g>
</svg>
