<?xml version="1.0" encoding="UTF-8" standalone="no"?>
<!DOCTYPE svg PUBLIC "-//W3C//DTD SVG 1.1//EN"
 "http://www.w3.org/Graphics/SVG/1.1/DTD/svg11.dtd">
<!-- Generated by graphviz version 12.2.1 (20241206.2353)
 -->
<!-- Title: Lib::Xbee::Core::DigiApiFrameBuffer::getSize Pages: 1 -->
<svg width="628pt" height="140pt"
 viewBox="0.00 0.00 627.75 140.00" xmlns="http://www.w3.org/2000/svg" xmlns:xlink="http://www.w3.org/1999/xlink">
<g id="graph0" class="graph" transform="scale(1 1) rotate(0) translate(4 136)">
<title>Lib::Xbee::Core::DigiApiFrameBuffer::getSize</title>
<!-- Node1 -->
<g id="Node000001" class="node">
<title>Node1</title>
<g id="a_Node000001"><a xlink:title="Gets the size of the buffer.">
<polygon fill="#999999" stroke="#666666" points="619.75,-82 498,-82 498,-50 619.75,-50 619.75,-82"/>
<text text-anchor="start" x="506" y="-68.5" font-family="Helvetica,sans-Serif" font-size="10.00">Lib::Xbee::Core::DigiApi</text>
<text text-anchor="middle" x="558.88" y="-56.5" font-family="Helvetica,sans-Serif" font-size="10.00">FrameBuffer::getSize</text>
</a>
</g>
</g>
<!-- Node2 -->
<g id="Node000002" class="node">
<title>Node2</title>
<g id="a_Node000002"><a xlink:href="../../dd/dcb/a00375.html#aa27f9e2553dca2bf31b5f863c3123e91" target="_top" xlink:title="Constructs a Checksum object and calculates the checksum for the given DigiApiFrameBuffer.">
<polygon fill="white" stroke="#666666" points="462,-132 324.5,-132 324.5,-100 462,-100 462,-132"/>
<text text-anchor="start" x="332.5" y="-118.5" font-family="Helvetica,sans-Serif" font-size="10.00">Lib::Xbee::Core::Checksum</text>
<text text-anchor="middle" x="393.25" y="-106.5" font-family="Helvetica,sans-Serif" font-size="10.00">::Checksum</text>
</a>
</g>
</g>
<!-- Node1&#45;&gt;Node2 -->
<g id="edge1_Node000001_Node000002" class="edge">
<title>Node1&#45;&gt;Node2</title>
<g id="a_edge1_Node000001_Node000002"><a xlink:title=" ">
<path fill="none" stroke="#63b8ff" d="M493.55,-85.66C478.55,-90.24 462.73,-95.08 448.23,-99.51"/>
<polygon fill="#63b8ff" stroke="#63b8ff" points="494.31,-89.08 502.85,-82.81 492.26,-82.39 494.31,-89.08"/>
</a>
</g>
</g>
<!-- Node3 -->
<g id="Node000003" class="node">
<title>Node3</title>
<g id="a_Node000003"><a xlink:href="../../d0/dc4/a00443.html#a4b619cc34a94dcdca9a1c97e75c83045" target="_top" xlink:title="Validates a Digi API frame.">
<polygon fill="white" stroke="#666666" points="456.38,-82 330.12,-82 330.12,-50 456.38,-50 456.38,-82"/>
<text text-anchor="start" x="338.12" y="-68.5" font-family="Helvetica,sans-Serif" font-size="10.00">Lib::Xbee::Core::Protocol</text>
<text text-anchor="middle" x="393.25" y="-56.5" font-family="Helvetica,sans-Serif" font-size="10.00">::isValid</text>
</a>
</g>
</g>
<!-- Node1&#45;&gt;Node3 -->
<g id="edge2_Node000001_Node000003" class="edge">
<title>Node1&#45;&gt;Node3</title>
<g id="a_edge2_Node000001_Node000003"><a xlink:title=" ">
<path fill="none" stroke="#63b8ff" d="M486.4,-66C476.51,-66 466.42,-66 456.71,-66"/>
<polygon fill="#63b8ff" stroke="#63b8ff" points="486.36,-69.5 496.36,-66 486.36,-62.5 486.36,-69.5"/>
</a>
</g>
</g>
<!-- Node6 -->
<g id="Node000006" class="node">
<title>Node6</title>
<g id="a_Node000006"><a xlink:href="../../d8/d95/a00379.html#a69b6c41e48ae2bd6ea04831f60d63d6e" target="_top" xlink:title="Sends the given frame buffer.">
<polygon fill="white" stroke="#666666" points="462,-32 324.5,-32 324.5,0 462,0 462,-32"/>
<text text-anchor="start" x="332.5" y="-18.5" font-family="Helvetica,sans-Serif" font-size="10.00">Lib::Xbee::Core::ComDriver</text>
<text text-anchor="middle" x="393.25" y="-6.5" font-family="Helvetica,sans-Serif" font-size="10.00">::send</text>
</a>
</g>
</g>
<!-- Node1&#45;&gt;Node6 -->
<g id="edge5_Node000001_Node000006" class="edge">
<title>Node1&#45;&gt;Node6</title>
<g id="a_edge5_Node000001_Node000006"><a xlink:title=" ">
<path fill="none" stroke="#63b8ff" d="M493.55,-46.34C478.55,-41.76 462.73,-36.92 448.23,-32.49"/>
<polygon fill="#63b8ff" stroke="#63b8ff" points="492.26,-49.61 502.85,-49.19 494.31,-42.92 492.26,-49.61"/>
</a>
</g>
</g>
<!-- Node4 -->
<g id="Node000004" class="node">
<title>Node4</title>
<g id="a_Node000004"><a xlink:href="../../d0/dc4/a00443.html#a3d61ecbff974d958bd340d92b598f0c5" target="_top" xlink:title="Parses a Digi API frame into frame data.">
<polygon fill="white" stroke="#666666" points="288.5,-82 162.25,-82 162.25,-50 288.5,-50 288.5,-82"/>
<text text-anchor="start" x="170.25" y="-68.5" font-family="Helvetica,sans-Serif" font-size="10.00">Lib::Xbee::Core::Protocol</text>
<text text-anchor="middle" x="225.38" y="-56.5" font-family="Helvetica,sans-Serif" font-size="10.00">::parse</text>
</a>
</g>
</g>
<!-- Node3&#45;&gt;Node4 -->
<g id="edge3_Node000003_Node000004" class="edge">
<title>Node3&#45;&gt;Node4</title>
<g id="a_edge3_Node000003_Node000004"><a xlink:title=" ">
<path fill="none" stroke="#63b8ff" d="M318.54,-66C308.67,-66 298.62,-66 288.96,-66"/>
<polygon fill="#63b8ff" stroke="#63b8ff" points="318.5,-69.5 328.5,-66 318.5,-62.5 318.5,-69.5"/>
</a>
</g>
</g>
<!-- Node5 -->
<g id="Node000005" class="node">
<title>Node5</title>
<g id="a_Node000005"><a xlink:href="../../d0/dc4/a00443.html#ae67022a7d24ff87412c540118507ddef" target="_top" xlink:title="Processes a Digi API frame message.">
<polygon fill="white" stroke="#666666" points="126.25,-82 0,-82 0,-50 126.25,-50 126.25,-82"/>
<text text-anchor="start" x="8" y="-68.5" font-family="Helvetica,sans-Serif" font-size="10.00">Lib::Xbee::Core::Protocol</text>
<text text-anchor="middle" x="63.12" y="-56.5" font-family="Helvetica,sans-Serif" font-size="10.00">::processMessage</text>
</a>
</g>
</g>
<!-- Node4&#45;&gt;Node5 -->
<g id="edge4_Node000004_Node000005" class="edge">
<title>Node4&#45;&gt;Node5</title>
<g id="a_edge4_Node000004_Node000005"><a xlink:title=" ">
<path fill="none" stroke="#63b8ff" d="M150.69,-66C142.65,-66 134.52,-66 126.63,-66"/>
<polygon fill="#63b8ff" stroke="#63b8ff" points="150.45,-69.5 160.45,-66 150.45,-62.5 150.45,-69.5"/>
</a>
</g>
</g>
<!-- Node7 -->
<g id="Node000007" class="node">
<title>Node7</title>
<g id="a_Node000007"><a xlink:href="../../d9/d3a/a00439.html#a9815b172e850e3d6c009ed9f6f9b2c25" target="_top" xlink:title="Sends the given query.">
<polygon fill="white" stroke="#666666" points="286.25,-32 164.5,-32 164.5,0 286.25,0 286.25,-32"/>
<text text-anchor="start" x="172.5" y="-18.5" font-family="Helvetica,sans-Serif" font-size="10.00">Lib::Xbee::Core::Module</text>
<text text-anchor="middle" x="225.38" y="-6.5" font-family="Helvetica,sans-Serif" font-size="10.00">::send</text>
</a>
</g>
</g>
<!-- Node6&#45;&gt;Node7 -->
<g id="edge6_Node000006_Node000007" class="edge">
<title>Node6&#45;&gt;Node7</title>
<g id="a_edge6_Node000006_Node000007"><a xlink:title=" ">
<path fill="none" stroke="#63b8ff" d="M313.05,-16C304.12,-16 295.14,-16 286.51,-16"/>
<polygon fill="#63b8ff" stroke="#63b8ff" points="312.79,-19.5 322.79,-16 312.79,-12.5 312.79,-19.5"/>
</a>
</g>
</g>
</g>
</svg>
