<?xml version="1.0" encoding="UTF-8" standalone="no"?>
<!DOCTYPE svg PUBLIC "-//W3C//DTD SVG 1.1//EN"
 "http://www.w3.org/Graphics/SVG/1.1/DTD/svg11.dtd">
<!-- Generated by graphviz version 12.2.1 (20241206.2353)
 -->
<!-- Title: Lib::Xbee::Core::DigiApiFrameBuffer::getData Pages: 1 -->
<svg width="628pt" height="178pt"
 viewBox="0.00 0.00 627.75 178.00" xmlns="http://www.w3.org/2000/svg" xmlns:xlink="http://www.w3.org/1999/xlink">
<g id="graph0" class="graph" transform="scale(1 1) rotate(0) translate(4 174)">
<title>Lib::Xbee::Core::DigiApiFrameBuffer::getData</title>
<!-- Node1 -->
<g id="Node000001" class="node">
<title>Node1</title>
<g id="a_Node000001"><a xlink:title="Retrieves the data stored in the buffer.">
<polygon fill="#999999" stroke="#666666" points="619.75,-98 498,-98 498,-66 619.75,-66 619.75,-98"/>
<text text-anchor="start" x="506" y="-84.5" font-family="Helvetica,sans-Serif" font-size="10.00">Lib::Xbee::Core::DigiApi</text>
<text text-anchor="middle" x="558.88" y="-72.5" font-family="Helvetica,sans-Serif" font-size="10.00">FrameBuffer::getData</text>
</a>
</g>
</g>
<!-- Node2 -->
<g id="Node000002" class="node">
<title>Node2</title>
<g id="a_Node000002"><a xlink:href="../../dd/dcb/a00375.html#aa27f9e2553dca2bf31b5f863c3123e91" target="_top" xlink:title="Constructs a Checksum object and calculates the checksum for the given DigiApiFrameBuffer.">
<polygon fill="white" stroke="#666666" points="462,-170 324.5,-170 324.5,-138 462,-138 462,-170"/>
<text text-anchor="start" x="332.5" y="-156.5" font-family="Helvetica,sans-Serif" font-size="10.00">Lib::Xbee::Core::Checksum</text>
<text text-anchor="middle" x="393.25" y="-144.5" font-family="Helvetica,sans-Serif" font-size="10.00">::Checksum</text>
</a>
</g>
</g>
<!-- Node1&#45;&gt;Node2 -->
<g id="edge1_Node000001_Node000002" class="edge">
<title>Node1&#45;&gt;Node2</title>
<g id="a_edge1_Node000001_Node000002"><a xlink:title=" ">
<path fill="none" stroke="#63b8ff" d="M516.3,-103.53C499.6,-111.88 480.06,-121.26 462,-129 455.2,-131.91 447.94,-134.81 440.78,-137.55"/>
<polygon fill="#63b8ff" stroke="#63b8ff" points="517.59,-106.8 524.94,-99.18 514.44,-100.55 517.59,-106.8"/>
</a>
</g>
</g>
<!-- Node3 -->
<g id="Node000003" class="node">
<title>Node3</title>
<g id="a_Node000003"><a xlink:href="../../d0/dc4/a00443.html#a4b619cc34a94dcdca9a1c97e75c83045" target="_top" xlink:title="Validates a Digi API frame.">
<polygon fill="white" stroke="#666666" points="456.38,-120 330.12,-120 330.12,-88 456.38,-88 456.38,-120"/>
<text text-anchor="start" x="338.12" y="-106.5" font-family="Helvetica,sans-Serif" font-size="10.00">Lib::Xbee::Core::Protocol</text>
<text text-anchor="middle" x="393.25" y="-94.5" font-family="Helvetica,sans-Serif" font-size="10.00">::isValid</text>
</a>
</g>
</g>
<!-- Node1&#45;&gt;Node3 -->
<g id="edge2_Node000001_Node000003" class="edge">
<title>Node1&#45;&gt;Node3</title>
<g id="a_edge2_Node000001_Node000003"><a xlink:title=" ">
<path fill="none" stroke="#63b8ff" d="M486.72,-91.57C476.73,-92.91 466.53,-94.28 456.71,-95.6"/>
<polygon fill="#63b8ff" stroke="#63b8ff" points="486.93,-95.07 496.38,-90.27 486,-88.13 486.93,-95.07"/>
</a>
</g>
</g>
<!-- Node4 -->
<g id="Node000004" class="node">
<title>Node4</title>
<g id="a_Node000004"><a xlink:href="../../d0/dc4/a00443.html#a3d61ecbff974d958bd340d92b598f0c5" target="_top" xlink:title="Parses a Digi API frame into frame data.">
<polygon fill="white" stroke="#666666" points="288.5,-101 162.25,-101 162.25,-69 288.5,-69 288.5,-101"/>
<text text-anchor="start" x="170.25" y="-87.5" font-family="Helvetica,sans-Serif" font-size="10.00">Lib::Xbee::Core::Protocol</text>
<text text-anchor="middle" x="225.38" y="-75.5" font-family="Helvetica,sans-Serif" font-size="10.00">::parse</text>
</a>
</g>
</g>
<!-- Node1&#45;&gt;Node4 -->
<g id="edge5_Node000001_Node000004" class="edge">
<title>Node1&#45;&gt;Node4</title>
<g id="a_edge5_Node000001_Node000004"><a xlink:title=" ">
<path fill="none" stroke="#63b8ff" d="M486.1,-79.51C477.97,-79.3 469.81,-79.12 462,-79 400.9,-78.04 385.58,-77.13 324.5,-79 312.98,-79.35 300.72,-79.94 288.9,-80.6"/>
<polygon fill="#63b8ff" stroke="#63b8ff" points="485.93,-83.01 496.02,-79.78 486.12,-76.01 485.93,-83.01"/>
</a>
</g>
</g>
<!-- Node6 -->
<g id="Node000006" class="node">
<title>Node6</title>
<g id="a_Node000006"><a xlink:href="../../d8/d95/a00379.html#a69b6c41e48ae2bd6ea04831f60d63d6e" target="_top" xlink:title="Sends the given frame buffer.">
<polygon fill="white" stroke="#666666" points="462,-32 324.5,-32 324.5,0 462,0 462,-32"/>
<text text-anchor="start" x="332.5" y="-18.5" font-family="Helvetica,sans-Serif" font-size="10.00">Lib::Xbee::Core::ComDriver</text>
<text text-anchor="middle" x="393.25" y="-6.5" font-family="Helvetica,sans-Serif" font-size="10.00">::send</text>
</a>
</g>
</g>
<!-- Node1&#45;&gt;Node6 -->
<g id="edge6_Node000001_Node000006" class="edge">
<title>Node1&#45;&gt;Node6</title>
<g id="a_edge6_Node000001_Node000006"><a xlink:title=" ">
<path fill="none" stroke="#63b8ff" d="M506.37,-61.22C483.3,-51.92 456.5,-41.11 434.88,-32.39"/>
<polygon fill="#63b8ff" stroke="#63b8ff" points="505.02,-64.45 515.6,-64.95 507.64,-57.96 505.02,-64.45"/>
</a>
</g>
</g>
<!-- Node3&#45;&gt;Node4 -->
<g id="edge3_Node000003_Node000004" class="edge">
<title>Node3&#45;&gt;Node4</title>
<g id="a_edge3_Node000003_Node000004"><a xlink:title=" ">
<path fill="none" stroke="#63b8ff" d="M318.86,-95.59C308.88,-94.45 298.72,-93.29 288.96,-92.17"/>
<polygon fill="#63b8ff" stroke="#63b8ff" points="318.18,-99.04 328.51,-96.7 318.97,-92.08 318.18,-99.04"/>
</a>
</g>
</g>
<!-- Node5 -->
<g id="Node000005" class="node">
<title>Node5</title>
<g id="a_Node000005"><a xlink:href="../../d0/dc4/a00443.html#ae67022a7d24ff87412c540118507ddef" target="_top" xlink:title="Processes a Digi API frame message.">
<polygon fill="white" stroke="#666666" points="126.25,-101 0,-101 0,-69 126.25,-69 126.25,-101"/>
<text text-anchor="start" x="8" y="-87.5" font-family="Helvetica,sans-Serif" font-size="10.00">Lib::Xbee::Core::Protocol</text>
<text text-anchor="middle" x="63.12" y="-75.5" font-family="Helvetica,sans-Serif" font-size="10.00">::processMessage</text>
</a>
</g>
</g>
<!-- Node4&#45;&gt;Node5 -->
<g id="edge4_Node000004_Node000005" class="edge">
<title>Node4&#45;&gt;Node5</title>
<g id="a_edge4_Node000004_Node000005"><a xlink:title=" ">
<path fill="none" stroke="#63b8ff" d="M150.69,-85C142.65,-85 134.52,-85 126.63,-85"/>
<polygon fill="#63b8ff" stroke="#63b8ff" points="150.45,-88.5 160.45,-85 150.45,-81.5 150.45,-88.5"/>
</a>
</g>
</g>
<!-- Node7 -->
<g id="Node000007" class="node">
<title>Node7</title>
<g id="a_Node000007"><a xlink:href="../../d9/d3a/a00439.html#a9815b172e850e3d6c009ed9f6f9b2c25" target="_top" xlink:title="Sends the given query.">
<polygon fill="white" stroke="#666666" points="286.25,-32 164.5,-32 164.5,0 286.25,0 286.25,-32"/>
<text text-anchor="start" x="172.5" y="-18.5" font-family="Helvetica,sans-Serif" font-size="10.00">Lib::Xbee::Core::Module</text>
<text text-anchor="middle" x="225.38" y="-6.5" font-family="Helvetica,sans-Serif" font-size="10.00">::send</text>
</a>
</g>
</g>
<!-- Node6&#45;&gt;Node7 -->
<g id="edge7_Node000006_Node000007" class="edge">
<title>Node6&#45;&gt;Node7</title>
<g id="a_edge7_Node000006_Node000007"><a xlink:title=" ">
<path fill="none" stroke="#63b8ff" d="M313.05,-16C304.12,-16 295.14,-16 286.51,-16"/>
<polygon fill="#63b8ff" stroke="#63b8ff" points="312.79,-19.5 322.79,-16 312.79,-12.5 312.79,-19.5"/>
</a>
</g>
</g>
</g>
</svg>
