<?xml version="1.0" encoding="UTF-8" standalone="no"?>
<!DOCTYPE svg PUBLIC "-//W3C//DTD SVG 1.1//EN"
 "http://www.w3.org/Graphics/SVG/1.1/DTD/svg11.dtd">
<!-- Generated by graphviz version 12.2.1 (20241206.2353)
 -->
<!-- Title: Helper.hpp Pages: 1 -->
<svg width="186pt" height="84pt"
 viewBox="0.00 0.00 185.75 84.00" xmlns="http://www.w3.org/2000/svg" xmlns:xlink="http://www.w3.org/1999/xlink">
<g id="graph0" class="graph" transform="scale(1 1) rotate(0) translate(4 80)">
<title>Helper.hpp</title>
<!-- Node1 -->
<g id="Node000001" class="node">
<title>Node1</title>
<g id="a_Node000001"><a xlink:title="Helper functions for byte swapping, conversion, and vector manipulation.">
<polygon fill="#999999" stroke="#666666" points="138.88,-76 75.62,-76 75.62,-56 138.88,-56 138.88,-76"/>
<text text-anchor="middle" x="107.25" y="-62.5" font-family="Helvetica,sans-Serif" font-size="10.00">Helper.hpp</text>
</a>
</g>
</g>
<!-- Node2 -->
<g id="Node000002" class="node">
<title>Node2</title>
<g id="a_Node000002"><a xlink:title=" ">
<polygon fill="#e0e0e0" stroke="#999999" points="116.5,-20 0,-20 0,0 116.5,0 116.5,-20"/>
<text text-anchor="middle" x="58.25" y="-6.5" font-family="Helvetica,sans-Serif" font-size="10.00">Helper/SwapBytes.hpp</text>
</a>
</g>
</g>
<!-- Node1&#45;&gt;Node2 -->
<g id="edge1_Node000001_Node000002" class="edge">
<title>Node1&#45;&gt;Node2</title>
<g id="a_edge1_Node000001_Node000002"><a xlink:title=" ">
<path fill="none" stroke="#63b8ff" d="M98.71,-55.59C91.97,-48.16 82.36,-37.58 74.21,-28.58"/>
<polygon fill="#63b8ff" stroke="#63b8ff" points="77.02,-26.47 67.7,-21.42 71.83,-31.18 77.02,-26.47"/>
</a>
</g>
</g>
<!-- Node3 -->
<g id="Node000003" class="node">
<title>Node3</title>
<g id="a_Node000003"><a xlink:title=" ">
<polygon fill="#e0e0e0" stroke="#999999" points="177.75,-20 134.75,-20 134.75,0 177.75,0 177.75,-20"/>
<text text-anchor="middle" x="156.25" y="-6.5" font-family="Helvetica,sans-Serif" font-size="10.00">vector</text>
</a>
</g>
</g>
<!-- Node1&#45;&gt;Node3 -->
<g id="edge2_Node000001_Node000003" class="edge">
<title>Node1&#45;&gt;Node3</title>
<g id="a_edge2_Node000001_Node000003"><a xlink:title=" ">
<path fill="none" stroke="#63b8ff" d="M115.79,-55.59C122.53,-48.16 132.14,-37.58 140.29,-28.58"/>
<polygon fill="#63b8ff" stroke="#63b8ff" points="142.67,-31.18 146.8,-21.42 137.48,-26.47 142.67,-31.18"/>
</a>
</g>
</g>
</g>
</svg>
