<?xml version="1.0" encoding="UTF-8" standalone="no"?>
<!DOCTYPE svg PUBLIC "-//W3C//DTD SVG 1.1//EN"
 "http://www.w3.org/Graphics/SVG/1.1/DTD/svg11.dtd">
<!-- Generated by graphviz version 12.2.1 (20241206.2353)
 -->
<!-- Title: ComPort Pages: 1 -->
<svg width="143pt" height="388pt"
 viewBox="0.00 0.00 143.00 388.00" xmlns="http://www.w3.org/2000/svg" xmlns:xlink="http://www.w3.org/1999/xlink">
<g id="graph0" class="graph" transform="scale(1 1) rotate(0) translate(4 384)">
<title>ComPort</title>
<!-- Node1 -->
<g id="Node000001" class="node">
<title>Node1</title>
<g id="a_Node000001"><a xlink:title="Abstract communication port for UART with DMA.">
<polygon fill="#999999" stroke="none" points="135,-292 0,-292 0,-116 135,-116 135,-292"/>
<text text-anchor="start" x="48" y="-278.5" font-family="Helvetica,sans-Serif" font-size="10.00">ComPort</text>
<text text-anchor="start" x="66" y="-262.5" font-family="Helvetica,sans-Serif" font-size="10.00"> </text>
<text text-anchor="start" x="4" y="-246.5" font-family="Helvetica,sans-Serif" font-size="10.00">+</text>
<text text-anchor="start" x="14" y="-246.5" font-family="Helvetica,sans-Serif" font-size="10.00">ComPort(const Config</text>
<text text-anchor="start" x="14" y="-234.5" font-family="Helvetica,sans-Serif" font-size="10.00"> &amp;conf)</text>
<text text-anchor="start" x="4" y="-218.5" font-family="Helvetica,sans-Serif" font-size="10.00">+</text>
<text text-anchor="start" x="14" y="-218.5" font-family="Helvetica,sans-Serif" font-size="10.00">~ComPort() override</text>
<text text-anchor="start" x="14" y="-206.5" font-family="Helvetica,sans-Serif" font-size="10.00">=default</text>
<text text-anchor="start" x="4" y="-190.5" font-family="Helvetica,sans-Serif" font-size="10.00">+</text>
<text text-anchor="start" x="14" y="-190.5" font-family="Helvetica,sans-Serif" font-size="10.00">void open() override</text>
<text text-anchor="start" x="4" y="-174.5" font-family="Helvetica,sans-Serif" font-size="10.00">+</text>
<text text-anchor="start" x="14" y="-174.5" font-family="Helvetica,sans-Serif" font-size="10.00">bool send(const void</text>
<text text-anchor="start" x="14" y="-162.5" font-family="Helvetica,sans-Serif" font-size="10.00"> *data, size_t len, uint32</text>
<text text-anchor="start" x="14" y="-150.5" font-family="Helvetica,sans-Serif" font-size="10.00">_t timeout) override</text>
<text text-anchor="start" x="4.38" y="-134.5" font-family="Helvetica,sans-Serif" font-size="10.00">#</text>
<text text-anchor="start" x="14" y="-134.5" font-family="Helvetica,sans-Serif" font-size="10.00">virtual void charReceived</text>
<text text-anchor="start" x="14" y="-122.5" font-family="Helvetica,sans-Serif" font-size="10.00">Callback(uint8_t rxChar)=0</text>
<polygon fill="#666666" stroke="#666666" points="0,-274 0,-274 135,-274 135,-274 0,-274"/>
<polygon fill="#666666" stroke="#666666" points="0,-258 0,-258 135,-258 135,-258 0,-258"/>
<polygon fill="none" stroke="#666666" points="0,-116 0,-292 135,-292 135,-116 0,-116"/>
</a>
</g>
</g>
<!-- Node3 -->
<g id="Node000003" class="node">
<title>Node3</title>
<g id="a_Node000003"><a xlink:href="../../d9/da5/a00075.html" target="_top" xlink:title="RS232 Com Client class.">
<polygon fill="white" stroke="none" points="114,-80 21,-80 21,0 114,0 114,-80"/>
<text text-anchor="start" x="54.75" y="-66.5" font-family="Helvetica,sans-Serif" font-size="10.00">Client</text>
<text text-anchor="start" x="66" y="-50.5" font-family="Helvetica,sans-Serif" font-size="10.00"> </text>
<text text-anchor="start" x="25" y="-34.5" font-family="Helvetica,sans-Serif" font-size="10.00">+</text>
<text text-anchor="start" x="35" y="-34.5" font-family="Helvetica,sans-Serif" font-size="10.00">Client()</text>
<text text-anchor="start" x="25" y="-18.5" font-family="Helvetica,sans-Serif" font-size="10.00">+</text>
<text text-anchor="start" x="35" y="-18.5" font-family="Helvetica,sans-Serif" font-size="10.00">~Client() override</text>
<text text-anchor="start" x="35" y="-6.5" font-family="Helvetica,sans-Serif" font-size="10.00">=default</text>
<polygon fill="#666666" stroke="#666666" points="21,-62 21,-62 114,-62 114,-62 21,-62"/>
<polygon fill="#666666" stroke="#666666" points="21,-46 21,-46 114,-46 114,-46 21,-46"/>
<polygon fill="none" stroke="#666666" points="21,0 21,-80 114,-80 114,0 21,0"/>
</a>
</g>
</g>
<!-- Node1&#45;&gt;Node3 -->
<g id="edge2_Node000001_Node000003" class="edge">
<title>Node1&#45;&gt;Node3</title>
<g id="a_edge2_Node000001_Node000003"><a xlink:title=" ">
<path fill="none" stroke="#63b8ff" d="M67.5,-105C67.5,-96.17 67.5,-87.62 67.5,-79.8"/>
<polygon fill="none" stroke="#63b8ff" points="64,-104.8 67.5,-114.8 71,-104.8 64,-104.8"/>
</a>
</g>
</g>
<!-- Node2 -->
<g id="Node000002" class="node">
<title>Node2</title>
<g id="a_Node000002"><a xlink:title=" ">
<polygon fill="white" stroke="none" points="92.12,-380 42.88,-380 42.88,-328 92.12,-328 92.12,-380"/>
<text text-anchor="start" x="46.88" y="-366.5" font-family="Helvetica,sans-Serif" font-size="10.00">UartDMA</text>
<text text-anchor="start" x="66" y="-350.5" font-family="Helvetica,sans-Serif" font-size="10.00"> </text>
<text text-anchor="start" x="66" y="-334.5" font-family="Helvetica,sans-Serif" font-size="10.00"> </text>
<polygon fill="#666666" stroke="#666666" points="42.88,-362 42.88,-362 92.12,-362 92.12,-362 42.88,-362"/>
<polygon fill="#666666" stroke="#666666" points="42.88,-346 42.88,-346 92.12,-346 92.12,-346 42.88,-346"/>
<polygon fill="none" stroke="#666666" points="42.88,-328 42.88,-380 92.12,-380 92.12,-328 42.88,-328"/>
</a>
</g>
</g>
<!-- Node2&#45;&gt;Node1 -->
<g id="edge1_Node000001_Node000002" class="edge">
<title>Node2&#45;&gt;Node1</title>
<g id="a_edge1_Node000001_Node000002"><a xlink:title=" ">
<path fill="none" stroke="darkgreen" d="M67.5,-316.77C67.5,-309.04 67.5,-300.56 67.5,-291.83"/>
<polygon fill="none" stroke="darkgreen" points="64,-316.71 67.5,-326.71 71,-316.71 64,-316.71"/>
</a>
</g>
</g>
</g>
</svg>
