<?xml version="1.0" encoding="UTF-8" standalone="no"?>
<!DOCTYPE svg PUBLIC "-//W3C//DTD SVG 1.1//EN"
 "http://www.w3.org/Graphics/SVG/1.1/DTD/svg11.dtd">
<!-- Generated by graphviz version 13.1.0 (20250701.0955)
 -->
<!-- Title: BSP::Backlight Pages: 1 -->
<svg width="93pt" height="139pt"
 viewBox="0.00 0.00 93.00 139.00" xmlns="http://www.w3.org/2000/svg" xmlns:xlink="http://www.w3.org/1999/xlink">
<g id="graph0" class="graph" transform="scale(1 1) rotate(0) translate(4 135)">
<title>BSP::Backlight</title>
<!-- Node1 -->
<g id="Node000001" class="node">
<title>Node1</title>
<g id="a_Node000001"><a xlink:title="STM32 backlight controller for PWM brightness adjustment.">
<polygon fill="#999999" stroke="none" points="76.62,-47.5 8.62,-47.5 8.62,0 76.62,0 76.62,-47.5"/>
<text xml:space="preserve" text-anchor="start" x="12.62" y="-34.95" font-family="Arial" font-size="9.00">BSP::Backlight</text>
<text xml:space="preserve" text-anchor="start" x="41.5" y="-20.45" font-family="Arial" font-size="9.00"> </text>
<text xml:space="preserve" text-anchor="start" x="14.44" y="-5.95" font-family="Arial" font-size="9.00">+</text>
<text xml:space="preserve" text-anchor="start" x="25.5" y="-5.95" font-family="Arial" font-size="9.00">Backlight()</text>
<polygon fill="#666666" stroke="#666666" points="8.62,-31 8.62,-31 76.62,-31 76.62,-31 8.62,-31"/>
<polygon fill="#666666" stroke="#666666" points="8.62,-16.5 8.62,-16.5 76.62,-16.5 76.62,-16.5 8.62,-16.5"/>
<polygon fill="none" stroke="#666666" points="8.62,0 8.62,-47.5 76.62,-47.5 76.62,0 8.62,0"/>
</a>
</g>
</g>
<!-- Node2 -->
<g id="Node000002" class="node">
<title>Node2</title>
<g id="a_Node000002"><a xlink:title=" ">
<polygon fill="white" stroke="none" points="85.25,-131 0,-131 0,-83.5 85.25,-83.5 85.25,-131"/>
<text xml:space="preserve" text-anchor="start" x="4" y="-118.45" font-family="Arial" font-size="9.00">Lib::BSP::Backlight</text>
<text xml:space="preserve" text-anchor="start" x="41.5" y="-103.95" font-family="Arial" font-size="9.00"> </text>
<text xml:space="preserve" text-anchor="start" x="41.5" y="-89.45" font-family="Arial" font-size="9.00"> </text>
<polygon fill="#bfbfbf" stroke="#bfbfbf" points="0,-114.5 0,-114.5 85.25,-114.5 85.25,-114.5 0,-114.5"/>
<polygon fill="#bfbfbf" stroke="#bfbfbf" points="0,-100 0,-100 85.25,-100 85.25,-100 0,-100"/>
<polygon fill="none" stroke="#bfbfbf" points="0,-83.5 0,-131 85.25,-131 85.25,-83.5 0,-83.5"/>
</a>
</g>
</g>
<!-- Node2&#45;&gt;Node1 -->
<g id="edge1_Node000001_Node000002" class="edge">
<title>Node2&#45;&gt;Node1</title>
<g id="a_edge1_Node000001_Node000002"><a xlink:title=" ">
<path fill="none" stroke="#63b8ff" d="M42.62,-72.12C42.62,-63.75 42.62,-55 42.62,-47.33"/>
<polygon fill="none" stroke="#63b8ff" points="39.13,-72.03 42.63,-82.03 46.13,-72.03 39.13,-72.03"/>
</a>
</g>
</g>
</g>
</svg>
