<?xml version="1.0" encoding="UTF-8" standalone="no"?>
<!DOCTYPE svg PUBLIC "-//W3C//DTD SVG 1.1//EN"
 "http://www.w3.org/Graphics/SVG/1.1/DTD/svg11.dtd">
<!-- Generated by graphviz version 13.1.0 (20250701.0955)
 -->
<!-- Title: Lib::Xbee::Core::Frame0x88 Pages: 1 -->
<svg width="216pt" height="118pt"
 viewBox="0.00 0.00 216.00 118.00" xmlns="http://www.w3.org/2000/svg" xmlns:xlink="http://www.w3.org/1999/xlink">
<g id="graph0" class="graph" transform="scale(1 1) rotate(0) translate(4 114)">
<title>Lib::Xbee::Core::Frame0x88</title>
<!-- Node1 -->
<g id="Node000001" class="node">
<title>Node1</title>
<g id="a_Node000001"><a xlink:title="Represents the AT Command Response frame (0x88) for Xbee Core.">
<polygon fill="#999999" stroke="none" points="152.12,-20 21.12,-20 21.12,0 152.12,0 152.12,-20"/>
<text xml:space="preserve" text-anchor="start" x="25.12" y="-6.5" font-family="Helvetica,sans-Serif" font-size="10.00">Lib::Xbee::Core::Frame0x88</text>
<polygon fill="none" stroke="#666666" points="21.12,0 21.12,-20 152.12,-20 152.12,0 21.12,0"/>
</a>
</g>
</g>
<!-- Node2 -->
<g id="Node000002" class="node">
<title>Node2</title>
<g id="a_Node000002"><a xlink:title=" ">
<polygon fill="white" stroke="none" points="37.25,-110 0,-110 0,-90 37.25,-90 37.25,-110"/>
<text xml:space="preserve" text-anchor="start" x="4" y="-96.5" font-family="Helvetica,sans-Serif" font-size="10.00">uint8_t</text>
<polygon fill="none" stroke="#bfbfbf" points="0,-90 0,-110 37.25,-110 37.25,-90 0,-90"/>
</a>
</g>
</g>
<!-- Node2&#45;&gt;Node1 -->
<g id="edge1_Node000001_Node000002" class="edge">
<title>Node2&#45;&gt;Node1</title>
<g id="a_edge1_Node000001_Node000002"><a xlink:title=" ">
<path fill="none" stroke="#63b8ff" d="M19.32,-90.15C20.74,-77.34 25,-53.47 37.62,-38 41.32,-33.48 45.98,-29.59 50.95,-26.29"/>
<polygon fill="none" stroke="#63b8ff" points="50.85,-26.34 54.09,-19.9 61.29,-20.42 58.04,-26.86 50.85,-26.34"/>
</a>
</g>
<text xml:space="preserve" text-anchor="start" x="40.62" y="-59.5" font-family="Helvetica,sans-Serif" font-size="10.00" fill="grey">+frameId</text>
<text xml:space="preserve" text-anchor="start" x="40.62" y="-43.5" font-family="Helvetica,sans-Serif" font-size="10.00" fill="grey">+status</text>
</g>
<!-- Node3 -->
<g id="Node000003" class="node">
<title>Node3</title>
<g id="a_Node000003"><a xlink:title=" ">
<polygon fill="white" stroke="none" points="107.88,-110 65.38,-110 65.38,-90 107.88,-90 107.88,-110"/>
<text xml:space="preserve" text-anchor="start" x="69.38" y="-96.5" font-family="Helvetica,sans-Serif" font-size="10.00">uint16_t</text>
<polygon fill="none" stroke="#bfbfbf" points="65.38,-90 65.38,-110 107.88,-110 107.88,-90 65.38,-90"/>
</a>
</g>
</g>
<!-- Node3&#45;&gt;Node1 -->
<g id="edge2_Node000001_Node000003" class="edge">
<title>Node3&#45;&gt;Node1</title>
<g id="a_edge2_Node000001_Node000003"><a xlink:title=" ">
<path fill="none" stroke="#63b8ff" d="M86.62,-90.24C86.62,-77 86.62,-51.47 86.62,-32.96"/>
<polygon fill="none" stroke="#63b8ff" points="86.63,-32.89 82.63,-26.89 86.63,-20.89 90.63,-26.89 86.63,-32.89"/>
</a>
</g>
<text xml:space="preserve" text-anchor="start" x="89.62" y="-51.5" font-family="Helvetica,sans-Serif" font-size="10.00" fill="grey">+atCmd</text>
</g>
<!-- Node4 -->
<g id="Node000004" class="node">
<title>Node4</title>
<g id="a_Node000004"><a xlink:title=" ">
<polygon fill="white" stroke="none" points="207.75,-110 125.5,-110 125.5,-90 207.75,-90 207.75,-110"/>
<text xml:space="preserve" text-anchor="start" x="129.5" y="-96.5" font-family="Helvetica,sans-Serif" font-size="10.00">vector&lt; uint8_t &gt;</text>
<polygon fill="none" stroke="#bfbfbf" points="125.5,-90 125.5,-110 207.75,-110 207.75,-90 125.5,-90"/>
</a>
</g>
</g>
<!-- Node4&#45;&gt;Node1 -->
<g id="edge3_Node000001_Node000004" class="edge">
<title>Node4&#45;&gt;Node1</title>
<g id="a_edge3_Node000001_Node000004"><a xlink:title=" ">
<path fill="none" stroke="#63b8ff" d="M163.27,-90.21C158.07,-77.47 147.01,-53.69 131.62,-38 127.42,-33.71 122.4,-29.84 117.26,-26.46"/>
<polygon fill="none" stroke="#63b8ff" points="117.2,-26.42 110,-26.82 106.87,-20.32 114.07,-19.93 117.2,-26.42"/>
</a>
</g>
<text xml:space="preserve" text-anchor="start" x="157.24" y="-51.5" font-family="Helvetica,sans-Serif" font-size="10.00" fill="grey">+data</text>
</g>
</g>
</svg>
