<?xml version="1.0" encoding="UTF-8" standalone="no"?>
<!DOCTYPE svg PUBLIC "-//W3C//DTD SVG 1.1//EN"
 "http://www.w3.org/Graphics/SVG/1.1/DTD/svg11.dtd">
<!-- Generated by graphviz version 12.2.1 (20241206.2353)
 -->
<!-- Title: ClassDiagram Pages: 1 -->
<svg width="377pt" height="245pt"
 viewBox="0.00 0.00 377.00 244.75" xmlns="http://www.w3.org/2000/svg" xmlns:xlink="http://www.w3.org/1999/xlink">
<g id="graph0" class="graph" transform="scale(1 1) rotate(0) translate(4 240.75)">
<title>ClassDiagram</title>
<polygon fill="none" stroke="none" points="-4,4 -4,-240.75 373,-240.75 373,4 -4,4"/>
<!-- App -->
<g id="node1" class="node">
<title>App</title>
<g id="a_node1"><a xlink:href="d3/d1a/a00251.html" target="_top" xlink:title="Application Layer">
<polygon fill="#00007f" stroke="#ffffff" points="188.75,-236.75 123.25,-236.75 123.25,-200.75 188.75,-200.75 188.75,-236.75"/>
<text text-anchor="middle" x="156" y="-216.78" font-family="JetBrains Mono" font-size="8.00" fill="white">Application</text>
</a>
</g>
</g>
<!-- ApplicationManager -->
<g id="node2" class="node">
<title>ApplicationManager</title>
<g id="a_node2"><a xlink:href="d1/dd4/a00267.html" target="_top" xlink:title="Application Manager">
<polygon fill="#00007f" stroke="#ffffff" points="137.75,-171.75 72.25,-171.75 72.25,-135.75 137.75,-135.75 137.75,-171.75"/>
<text text-anchor="middle" x="105" y="-157.4" font-family="JetBrains Mono" font-size="8.00" fill="white">Application</text>
<text text-anchor="middle" x="105" y="-146.15" font-family="JetBrains Mono" font-size="8.00" fill="white">Manager</text>
</a>
</g>
</g>
<!-- App&#45;&gt;ApplicationManager -->
<g id="edge1" class="edge">
<title>App&#45;&gt;ApplicationManager</title>
<path fill="none" stroke="#808080" d="M142.06,-200.53C137.12,-194.42 131.43,-187.4 126.03,-180.72"/>
<polygon fill="#808080" stroke="#808080" points="128.88,-178.69 119.87,-173.12 123.44,-183.1 128.88,-178.69"/>
</g>
<!-- ApplicationBase -->
<g id="node3" class="node">
<title>ApplicationBase</title>
<g id="a_node3"><a xlink:href="df/da9/a00263.html" target="_top" xlink:title="Application Base">
<polygon fill="#00007f" stroke="#ffffff" points="239.75,-171.75 174.25,-171.75 174.25,-135.75 239.75,-135.75 239.75,-171.75"/>
<text text-anchor="middle" x="207" y="-157.4" font-family="JetBrains Mono" font-size="8.00" fill="white">Application</text>
<text text-anchor="middle" x="207" y="-146.15" font-family="JetBrains Mono" font-size="8.00" fill="white">Base</text>
</a>
</g>
</g>
<!-- App&#45;&gt;ApplicationBase -->
<g id="edge2" class="edge">
<title>App&#45;&gt;ApplicationBase</title>
<path fill="none" stroke="#808080" d="M169.94,-200.53C174.88,-194.42 180.57,-187.4 185.97,-180.72"/>
<polygon fill="#808080" stroke="#808080" points="188.56,-183.1 192.13,-173.12 183.12,-178.69 188.56,-183.1"/>
</g>
<!-- RemoteIO -->
<g id="node4" class="node">
<title>RemoteIO</title>
<g id="a_node4"><a xlink:href="d3/d5e/a00275.html" target="_top" xlink:title="RemoteIO">
<polygon fill="#00007f" stroke="#ffffff" points="99,-103.88 45,-103.88 45,-67.88 99,-67.88 99,-103.88"/>
<text text-anchor="middle" x="72" y="-83.9" font-family="JetBrains Mono" font-size="8.00" fill="white">RemoteIO</text>
</a>
</g>
</g>
<!-- ApplicationBase&#45;&gt;RemoteIO -->
<g id="edge5" class="edge">
<title>ApplicationBase&#45;&gt;RemoteIO</title>
<path fill="none" stroke="#808080" d="M173.98,-136.64C154.43,-127.1 129.62,-114.99 109.36,-105.11"/>
<polygon fill="#808080" stroke="#808080" points="111.12,-102.07 100.6,-100.83 108.05,-108.36 111.12,-102.07"/>
</g>
<!-- RotationTableSerial -->
<g id="node7" class="node">
<title>RotationTableSerial</title>
<g id="a_node7"><a xlink:href="df/d95/a00299.html" target="_top" xlink:title="RotationTable&#10;Serial">
<polygon fill="#00007f" stroke="#ffffff" points="189,-106.75 135,-106.75 135,-65 189,-65 189,-106.75"/>
<text text-anchor="middle" x="162" y="-95.15" font-family="JetBrains Mono" font-size="8.00" fill="white">Rotation</text>
<text text-anchor="middle" x="162" y="-83.9" font-family="JetBrains Mono" font-size="8.00" fill="white">Table</text>
<text text-anchor="middle" x="162" y="-72.65" font-family="JetBrains Mono" font-size="8.00" fill="white">Serial</text>
</a>
</g>
</g>
<!-- ApplicationBase&#45;&gt;RotationTableSerial -->
<g id="edge6" class="edge">
<title>ApplicationBase&#45;&gt;RotationTableSerial</title>
<path fill="none" stroke="#808080" d="M195.18,-135.44C191.19,-129.6 186.62,-122.91 182.17,-116.4"/>
<polygon fill="#808080" stroke="#808080" points="185.2,-114.64 176.67,-108.35 179.42,-118.59 185.2,-114.64"/>
</g>
<!-- RotationTableParallel -->
<g id="node8" class="node">
<title>RotationTableParallel</title>
<g id="a_node8"><a xlink:href="d6/d7f/a00287.html" target="_top" xlink:title="RotationTable&#10;Parallel">
<polygon fill="#00007f" stroke="#ffffff" points="279,-106.75 225,-106.75 225,-65 279,-65 279,-106.75"/>
<text text-anchor="middle" x="252" y="-95.15" font-family="JetBrains Mono" font-size="8.00" fill="white">Rotation</text>
<text text-anchor="middle" x="252" y="-83.9" font-family="JetBrains Mono" font-size="8.00" fill="white">Table</text>
<text text-anchor="middle" x="252" y="-72.65" font-family="JetBrains Mono" font-size="8.00" fill="white">Parallel</text>
</a>
</g>
</g>
<!-- ApplicationBase&#45;&gt;RotationTableParallel -->
<g id="edge7" class="edge">
<title>ApplicationBase&#45;&gt;RotationTableParallel</title>
<path fill="none" stroke="#808080" d="M218.82,-135.44C222.81,-129.6 227.38,-122.91 231.83,-116.4"/>
<polygon fill="#808080" stroke="#808080" points="234.58,-118.59 237.33,-108.35 228.8,-114.64 234.58,-118.59"/>
</g>
<!-- ApplicationNone -->
<g id="node9" class="node">
<title>ApplicationNone</title>
<g id="a_node9"><a xlink:href="" target="_top" xlink:title="None">
<polygon fill="#00007f" stroke="#ffffff" points="369,-103.88 315,-103.88 315,-67.88 369,-67.88 369,-103.88"/>
<text text-anchor="middle" x="342" y="-83.9" font-family="JetBrains Mono" font-size="8.00" fill="white">None</text>
</a>
</g>
</g>
<!-- ApplicationBase&#45;&gt;ApplicationNone -->
<g id="edge8" class="edge">
<title>ApplicationBase&#45;&gt;ApplicationNone</title>
<path fill="none" stroke="#808080" d="M240.02,-136.64C259.57,-127.1 284.38,-114.99 304.64,-105.11"/>
<polygon fill="#808080" stroke="#808080" points="305.95,-108.36 313.4,-100.83 302.88,-102.07 305.95,-108.36"/>
</g>
<!-- RemoteIO9600 -->
<g id="node5" class="node">
<title>RemoteIO9600</title>
<g id="a_node5"><a xlink:href="dd/dfe/a00283.html" target="_top" xlink:title="RemoteIO&#10;9600 bps">
<polygon fill="#00007f" stroke="#ffffff" points="54,-36 0,-36 0,0 54,0 54,-36"/>
<text text-anchor="middle" x="27" y="-21.65" font-family="JetBrains Mono" font-size="8.00" fill="white">RemoteIO</text>
<text text-anchor="middle" x="27" y="-10.4" font-family="JetBrains Mono" font-size="8.00" fill="white">9600 bps</text>
</a>
</g>
</g>
<!-- RemoteIO&#45;&gt;RemoteIO9600 -->
<g id="edge3" class="edge">
<title>RemoteIO&#45;&gt;RemoteIO9600</title>
<path fill="none" stroke="#808080" d="M60.18,-67.57C55.56,-60.81 50.17,-52.92 45.09,-45.48"/>
<polygon fill="#808080" stroke="#808080" points="48.28,-43.95 39.75,-37.67 42.5,-47.9 48.28,-43.95"/>
</g>
<!-- RemoteIO57600 -->
<g id="node6" class="node">
<title>RemoteIO57600</title>
<g id="a_node6"><a xlink:href="d2/d82/a00279.html" target="_top" xlink:title="RemoteIO&#10;57600 bps">
<polygon fill="#00007f" stroke="#ffffff" points="146.25,-36 89.75,-36 89.75,0 146.25,0 146.25,-36"/>
<text text-anchor="middle" x="118" y="-21.65" font-family="JetBrains Mono" font-size="8.00" fill="white">RemoteIO</text>
<text text-anchor="middle" x="118" y="-10.4" font-family="JetBrains Mono" font-size="8.00" fill="white">57600 bps</text>
</a>
</g>
</g>
<!-- RemoteIO&#45;&gt;RemoteIO57600 -->
<g id="edge4" class="edge">
<title>RemoteIO&#45;&gt;RemoteIO57600</title>
<path fill="none" stroke="#808080" d="M84.09,-67.57C88.8,-60.81 94.32,-52.92 99.51,-45.48"/>
<polygon fill="#808080" stroke="#808080" points="102.11,-47.86 104.97,-37.66 96.37,-43.86 102.11,-47.86"/>
</g>
</g>
</svg>
