<?xml version="1.0" encoding="UTF-8" standalone="no"?>
<!DOCTYPE svg PUBLIC "-//W3C//DTD SVG 1.1//EN"
 "http://www.w3.org/Graphics/SVG/1.1/DTD/svg11.dtd">
<!-- Generated by graphviz version 12.2.1 (20241206.2353)
 -->
<!-- Title: ParserCommand Pages: 1 -->
<svg width="235pt" height="41pt"
 viewBox="0.00 0.00 234.50 41.00" xmlns="http://www.w3.org/2000/svg" xmlns:xlink="http://www.w3.org/1999/xlink">
<g id="graph0" class="graph" transform="scale(1 1) rotate(0) translate(4 37)">
<title>ParserCommand</title>
<polygon fill="black" stroke="none" points="-4,4 -4,-37 230.5,-37 230.5,4 -4,4"/>
<!-- struct1 -->
<g id="node1" class="node">
<title>struct1</title>
<polygon fill="none" stroke="#059b00" points="0,-0.5 0,-32.5 226.5,-32.5 226.5,-0.5 0,-0.5"/>
<text text-anchor="middle" x="30.5" y="-13" font-family="Arial" font-size="10.00" fill="white">Command</text>
<polyline fill="none" stroke="#059b00" points="61,-0.5 61,-32.5"/>
<text text-anchor="middle" x="86.25" y="-19" font-family="Arial" font-size="10.00" fill="white">Port</text>
<text text-anchor="middle" x="86.25" y="-7" font-family="Arial" font-size="10.00" fill="white">Number</text>
<polyline fill="none" stroke="#059b00" points="111.5,-0.5 111.5,-32.5"/>
<text text-anchor="middle" x="125.88" y="-13" font-family="Arial" font-size="10.00" fill="white">D0</text>
<polyline fill="none" stroke="#059b00" points="140.25,-0.5 140.25,-32.5"/>
<text text-anchor="middle" x="154.62" y="-13" font-family="Arial" font-size="10.00" fill="white">D1</text>
<polyline fill="none" stroke="#059b00" points="169,-0.5 169,-32.5"/>
<text text-anchor="middle" x="183.38" y="-13" font-family="Arial" font-size="10.00" fill="white">D2</text>
<polyline fill="none" stroke="#059b00" points="197.75,-0.5 197.75,-32.5"/>
<text text-anchor="middle" x="212.12" y="-13" font-family="Arial" font-size="10.00" fill="white">D3</text>
</g>
</g>
</svg>
