<?xml version="1.0" encoding="UTF-8" standalone="no"?>
<!DOCTYPE svg PUBLIC "-//W3C//DTD SVG 1.1//EN"
 "http://www.w3.org/Graphics/SVG/1.1/DTD/svg11.dtd">
<!-- Generated by graphviz version 13.1.0 (20250701.0955)
 -->
<!-- Title: TimerEncoder.hpp Pages: 1 -->
<svg width="537pt" height="264pt"
 viewBox="0.00 0.00 537.00 264.00" xmlns="http://www.w3.org/2000/svg" xmlns:xlink="http://www.w3.org/1999/xlink">
<g id="graph0" class="graph" transform="scale(1 1) rotate(0) translate(4 260)">
<title>TimerEncoder.hpp</title>
<!-- Node1 -->
<g id="Node000001" class="node">
<title>Node1</title>
<g id="a_Node000001"><a xlink:title="Timer encoder specialization for STM32 HAL.">
<polygon fill="#999999" stroke="#666666" points="346.42,-256 250.92,-256 250.92,-236 346.42,-236 346.42,-256"/>
<text xml:space="preserve" text-anchor="middle" x="298.67" y="-242.5" font-family="Helvetica,sans-Serif" font-size="10.00">TimerEncoder.hpp</text>
</a>
</g>
</g>
<!-- Node2 -->
<g id="Node000002" class="node">
<title>Node2</title>
<g id="a_Node000002"><a xlink:href="../../d6/dd2/a02243.html" target="_top" xlink:title="Base class for STM32 TIM HAL device management.">
<polygon fill="white" stroke="#666666" points="282.42,-200 168.92,-200 168.92,-180 282.42,-180 282.42,-200"/>
<text xml:space="preserve" text-anchor="middle" x="225.67" y="-186.5" font-family="Helvetica,sans-Serif" font-size="10.00">components/Base.hpp</text>
</a>
</g>
</g>
<!-- Node1&#45;&gt;Node2 -->
<g id="edge1_Node000001_Node000002" class="edge">
<title>Node1&#45;&gt;Node2</title>
<g id="a_edge1_Node000001_Node000002"><a xlink:title=" ">
<path fill="none" stroke="#63b8ff" d="M285.96,-235.59C275.28,-227.7 259.79,-216.24 247.19,-206.92"/>
<polygon fill="#63b8ff" stroke="#63b8ff" points="249.58,-204.33 239.46,-201.2 245.42,-209.96 249.58,-204.33"/>
</a>
</g>
</g>
<!-- Node7 -->
<g id="Node000007" class="node">
<title>Node7</title>
<g id="a_Node000007"><a xlink:title=" ">
<polygon fill="#e0e0e0" stroke="#999999" points="60.8,-20 12.55,-20 12.55,0 60.8,0 60.8,-20"/>
<text xml:space="preserve" text-anchor="middle" x="36.67" y="-6.5" font-family="Helvetica,sans-Serif" font-size="10.00">cassert</text>
</a>
</g>
</g>
<!-- Node1&#45;&gt;Node7 -->
<g id="edge16_Node000001_Node000007" class="edge">
<title>Node1&#45;&gt;Node7</title>
<g id="a_edge16_Node000001_Node000007"><a xlink:title=" ">
<path fill="none" stroke="#63b8ff" d="M250.57,-244.11C184.02,-239.96 66.01,-221.4 12.67,-144 -9.52,-111.8 3.19,-93.94 12.67,-56 14.92,-47.01 19.34,-37.85 23.79,-30.16"/>
<polygon fill="#63b8ff" stroke="#63b8ff" points="26.73,-32.06 29.05,-21.72 20.79,-28.35 26.73,-32.06"/>
</a>
</g>
</g>
<!-- Node8 -->
<g id="Node000008" class="node">
<title>Node8</title>
<g id="a_Node000008"><a xlink:title=" ">
<polygon fill="#e0e0e0" stroke="#999999" points="394.67,-20 336.67,-20 336.67,0 394.67,0 394.67,-20"/>
<text xml:space="preserve" text-anchor="middle" x="365.67" y="-6.5" font-family="Helvetica,sans-Serif" font-size="10.00">functional</text>
</a>
</g>
</g>
<!-- Node1&#45;&gt;Node8 -->
<g id="edge17_Node000001_Node000008" class="edge">
<title>Node1&#45;&gt;Node8</title>
<g id="a_edge17_Node000001_Node000008"><a xlink:title=" ">
<path fill="none" stroke="#63b8ff" d="M305.56,-235.56C317.7,-218.35 342.67,-180.3 353.67,-144 365.35,-105.48 366.71,-58.05 366.37,-31.5"/>
<polygon fill="#63b8ff" stroke="#63b8ff" points="369.88,-31.7 366.15,-21.79 362.88,-31.87 369.88,-31.7"/>
</a>
</g>
</g>
<!-- Node13 -->
<g id="Node000013" class="node">
<title>Node13</title>
<g id="a_Node000013"><a xlink:href="../../dd/dae/a02294.html" target="_top" xlink:title="Template class for STM32 TIM peripheral mode specialization.">
<polygon fill="white" stroke="#666666" points="528.92,-200 400.42,-200 400.42,-180 528.92,-180 528.92,-200"/>
<text xml:space="preserve" text-anchor="middle" x="464.67" y="-186.5" font-family="Helvetica,sans-Serif" font-size="10.00">components/template.hpp</text>
</a>
</g>
</g>
<!-- Node1&#45;&gt;Node13 -->
<g id="edge14_Node000001_Node000013" class="edge">
<title>Node1&#45;&gt;Node13</title>
<g id="a_edge14_Node000001_Node000013"><a xlink:title=" ">
<path fill="none" stroke="#63b8ff" d="M327.59,-235.59C354.44,-226.86 394.67,-213.77 424.61,-204.03"/>
<polygon fill="#63b8ff" stroke="#63b8ff" points="425.67,-207.37 434.09,-200.95 423.5,-200.71 425.67,-207.37"/>
</a>
</g>
</g>
<!-- Node3 -->
<g id="Node000003" class="node">
<title>Node3</title>
<g id="a_Node000003"><a xlink:href="../../df/d15/a00416.html" target="_top" xlink:title="Device manager base template for embedded device abstraction.">
<polygon fill="white" stroke="#666666" points="188.42,-144 38.92,-144 38.92,-112 188.42,-112 188.42,-144"/>
<text xml:space="preserve" text-anchor="start" x="46.92" y="-130.5" font-family="Helvetica,sans-Serif" font-size="10.00">HAL/Common/DeviceManager</text>
<text xml:space="preserve" text-anchor="middle" x="113.67" y="-118.5" font-family="Helvetica,sans-Serif" font-size="10.00">Base.hpp</text>
</a>
</g>
</g>
<!-- Node2&#45;&gt;Node3 -->
<g id="edge2_Node000002_Node000003" class="edge">
<title>Node2&#45;&gt;Node3</title>
<g id="a_edge2_Node000002_Node000003"><a xlink:title=" ">
<path fill="none" stroke="#63b8ff" d="M208.17,-179.62C193.26,-171.63 171.28,-159.86 152.27,-149.68"/>
<polygon fill="#63b8ff" stroke="#63b8ff" points="154.17,-146.73 143.71,-145.09 150.87,-152.9 154.17,-146.73"/>
</a>
</g>
</g>
<!-- Node2&#45;&gt;Node7 -->
<g id="edge12_Node000002_Node000007" class="edge">
<title>Node2&#45;&gt;Node7</title>
<g id="a_edge12_Node000002_Node000007"><a xlink:title=" ">
<path fill="none" stroke="#63b8ff" d="M168.56,-183.69C117.04,-177.58 46.8,-165.51 29.67,-144 3.84,-111.56 17.64,-59.28 28.22,-30.89"/>
<polygon fill="#63b8ff" stroke="#63b8ff" points="31.43,-32.31 31.88,-21.72 24.92,-29.72 31.43,-32.31"/>
</a>
</g>
</g>
<!-- Node11 -->
<g id="Node000011" class="node">
<title>Node11</title>
<g id="a_Node000011"><a xlink:title=" ">
<polygon fill="#e0e0e0" stroke="#999999" points="244.55,-138 206.8,-138 206.8,-118 244.55,-118 244.55,-138"/>
<text xml:space="preserve" text-anchor="middle" x="225.67" y="-124.5" font-family="Helvetica,sans-Serif" font-size="10.00">array</text>
</a>
</g>
</g>
<!-- Node2&#45;&gt;Node11 -->
<g id="edge11_Node000002_Node000011" class="edge">
<title>Node2&#45;&gt;Node11</title>
<g id="a_edge11_Node000002_Node000011"><a xlink:title=" ">
<path fill="none" stroke="#63b8ff" d="M225.67,-179.62C225.67,-171.56 225.67,-159.65 225.67,-149.41"/>
<polygon fill="#63b8ff" stroke="#63b8ff" points="229.17,-149.63 225.67,-139.63 222.17,-149.63 229.17,-149.63"/>
</a>
</g>
</g>
<!-- Node12 -->
<g id="Node000012" class="node">
<title>Node12</title>
<g id="a_Node000012"><a xlink:title=" ">
<polygon fill="#e0e0e0" stroke="#999999" points="345.05,-138 262.3,-138 262.3,-118 345.05,-118 345.05,-138"/>
<text xml:space="preserve" text-anchor="middle" x="303.67" y="-124.5" font-family="Helvetica,sans-Serif" font-size="10.00">unordered_map</text>
</a>
</g>
</g>
<!-- Node2&#45;&gt;Node12 -->
<g id="edge13_Node000002_Node000012" class="edge">
<title>Node2&#45;&gt;Node12</title>
<g id="a_edge13_Node000002_Node000012"><a xlink:title=" ">
<path fill="none" stroke="#63b8ff" d="M237.86,-179.62C249.88,-170.38 268.49,-156.07 282.86,-145.01"/>
<polygon fill="#63b8ff" stroke="#63b8ff" points="284.58,-148.1 290.37,-139.23 280.31,-142.55 284.58,-148.1"/>
</a>
</g>
</g>
<!-- Node4 -->
<g id="Node000004" class="node">
<title>Node4</title>
<g id="a_Node000004"><a xlink:href="../../de/dc9/a02414.html" target="_top" xlink:title="Device handle base class for hardware abstraction layer.">
<polygon fill="white" stroke="#666666" points="104.42,-76 38.92,-76 38.92,-56 104.42,-56 104.42,-76"/>
<text xml:space="preserve" text-anchor="middle" x="71.67" y="-62.5" font-family="Helvetica,sans-Serif" font-size="10.00">Handle.hpp</text>
</a>
</g>
</g>
<!-- Node3&#45;&gt;Node4 -->
<g id="edge3_Node000003_Node000004" class="edge">
<title>Node3&#45;&gt;Node4</title>
<g id="a_edge3_Node000003_Node000004"><a xlink:title=" ">
<path fill="none" stroke="#63b8ff" d="M102.86,-111.55C97.33,-103.65 90.56,-93.97 84.74,-85.66"/>
<polygon fill="#63b8ff" stroke="#63b8ff" points="87.73,-83.83 79.13,-77.65 81.99,-87.85 87.73,-83.83"/>
</a>
</g>
</g>
<!-- Node5 -->
<g id="Node000005" class="node">
<title>Node5</title>
<g id="a_Node000005"><a xlink:href="../../d9/d34/a00476.html" target="_top" xlink:title="Container template class for managing collections of pointer elements.">
<polygon fill="white" stroke="#666666" points="268.8,-76 160.55,-76 160.55,-56 268.8,-56 268.8,-76"/>
<text xml:space="preserve" text-anchor="middle" x="214.67" y="-62.5" font-family="Helvetica,sans-Serif" font-size="10.00">Helper/Container.hpp</text>
</a>
</g>
</g>
<!-- Node3&#45;&gt;Node5 -->
<g id="edge4_Node000003_Node000005" class="edge">
<title>Node3&#45;&gt;Node5</title>
<g id="a_edge4_Node000003_Node000005"><a xlink:title=" ">
<path fill="none" stroke="#63b8ff" d="M139.68,-111.55C154.88,-102.52 173.98,-91.17 189.1,-82.19"/>
<polygon fill="#63b8ff" stroke="#63b8ff" points="190.73,-85.3 197.54,-77.18 187.15,-79.28 190.73,-85.3"/>
</a>
</g>
</g>
<!-- Node3&#45;&gt;Node7 -->
<g id="edge10_Node000003_Node000007" class="edge">
<title>Node3&#45;&gt;Node7</title>
<g id="a_edge10_Node000003_Node000007"><a xlink:title=" ">
<path fill="none" stroke="#63b8ff" d="M117.82,-111.75C121.04,-96.56 123.49,-73.11 113.67,-56 104.6,-40.18 87.56,-29.39 71.82,-22.35"/>
<polygon fill="#63b8ff" stroke="#63b8ff" points="73.23,-19.14 62.65,-18.63 70.6,-25.63 73.23,-19.14"/>
</a>
</g>
</g>
<!-- Node6 -->
<g id="Node000006" class="node">
<title>Node6</title>
<g id="a_Node000006"><a xlink:title=" ">
<polygon fill="#e0e0e0" stroke="#999999" points="160.55,-20 104.8,-20 104.8,0 160.55,0 160.55,-20"/>
<text xml:space="preserve" text-anchor="middle" x="132.67" y="-6.5" font-family="Helvetica,sans-Serif" font-size="10.00">algorithm</text>
</a>
</g>
</g>
<!-- Node5&#45;&gt;Node6 -->
<g id="edge5_Node000005_Node000006" class="edge">
<title>Node5&#45;&gt;Node6</title>
<g id="a_edge5_Node000005_Node000006"><a xlink:title=" ">
<path fill="none" stroke="#63b8ff" d="M200.39,-55.59C188.24,-47.59 170.53,-35.93 156.28,-26.54"/>
<polygon fill="#63b8ff" stroke="#63b8ff" points="158.61,-23.89 148.33,-21.31 154.76,-29.73 158.61,-23.89"/>
</a>
</g>
</g>
<!-- Node5&#45;&gt;Node7 -->
<g id="edge6_Node000005_Node000007" class="edge">
<title>Node5&#45;&gt;Node7</title>
<g id="a_edge6_Node000005_Node000007"><a xlink:title=" ">
<path fill="none" stroke="#63b8ff" d="M183.67,-55.59C152.48,-46.13 104.47,-31.57 71.87,-21.68"/>
<polygon fill="#63b8ff" stroke="#63b8ff" points="73.07,-18.38 62.49,-18.83 71.04,-25.08 73.07,-18.38"/>
</a>
</g>
</g>
<!-- Node5&#45;&gt;Node8 -->
<g id="edge7_Node000005_Node000008" class="edge">
<title>Node5&#45;&gt;Node8</title>
<g id="a_edge7_Node000005_Node000008"><a xlink:title=" ">
<path fill="none" stroke="#63b8ff" d="M240.98,-55.59C265.19,-46.94 301.35,-34 328.51,-24.29"/>
<polygon fill="#63b8ff" stroke="#63b8ff" points="329.5,-27.65 337.74,-20.99 327.15,-21.06 329.5,-27.65"/>
</a>
</g>
</g>
<!-- Node9 -->
<g id="Node000009" class="node">
<title>Node9</title>
<g id="a_Node000009"><a xlink:title=" ">
<polygon fill="#e0e0e0" stroke="#999999" points="250.8,-20 178.55,-20 178.55,0 250.8,0 250.8,-20"/>
<text xml:space="preserve" text-anchor="middle" x="214.67" y="-6.5" font-family="Helvetica,sans-Serif" font-size="10.00">initializer_list</text>
</a>
</g>
</g>
<!-- Node5&#45;&gt;Node9 -->
<g id="edge8_Node000005_Node000009" class="edge">
<title>Node5&#45;&gt;Node9</title>
<g id="a_edge8_Node000005_Node000009"><a xlink:title=" ">
<path fill="none" stroke="#63b8ff" d="M214.67,-55.59C214.67,-49.01 214.67,-39.96 214.67,-31.73"/>
<polygon fill="#63b8ff" stroke="#63b8ff" points="218.17,-31.81 214.67,-21.81 211.17,-31.81 218.17,-31.81"/>
</a>
</g>
</g>
<!-- Node10 -->
<g id="Node000010" class="node">
<title>Node10</title>
<g id="a_Node000010"><a xlink:title=" ">
<polygon fill="#e0e0e0" stroke="#999999" points="312.17,-20 269.17,-20 269.17,0 312.17,0 312.17,-20"/>
<text xml:space="preserve" text-anchor="middle" x="290.67" y="-6.5" font-family="Helvetica,sans-Serif" font-size="10.00">vector</text>
</a>
</g>
</g>
<!-- Node5&#45;&gt;Node10 -->
<g id="edge9_Node000005_Node000010" class="edge">
<title>Node5&#45;&gt;Node10</title>
<g id="a_edge9_Node000005_Node000010"><a xlink:title=" ">
<path fill="none" stroke="#63b8ff" d="M227.91,-55.59C238.96,-47.74 254.95,-36.38 268.03,-27.09"/>
<polygon fill="#63b8ff" stroke="#63b8ff" points="269.97,-30 276.1,-21.36 265.92,-24.3 269.97,-30"/>
</a>
</g>
</g>
<!-- Node14 -->
<g id="Node000014" class="node">
<title>Node14</title>
<g id="a_Node000014"><a xlink:href="../../dd/d1b/a02351.html" target="_top" xlink:title="Enumeration for STM32 TIM peripheral operating modes.">
<polygon fill="white" stroke="#666666" points="494.05,-138 435.3,-138 435.3,-118 494.05,-118 494.05,-138"/>
<text xml:space="preserve" text-anchor="middle" x="464.67" y="-124.5" font-family="Helvetica,sans-Serif" font-size="10.00">Mode.hpp</text>
</a>
</g>
</g>
<!-- Node13&#45;&gt;Node14 -->
<g id="edge15_Node000013_Node000014" class="edge">
<title>Node13&#45;&gt;Node14</title>
<g id="a_edge15_Node000013_Node000014"><a xlink:title=" ">
<path fill="none" stroke="#63b8ff" d="M464.67,-179.62C464.67,-171.56 464.67,-159.65 464.67,-149.41"/>
<polygon fill="#63b8ff" stroke="#63b8ff" points="468.17,-149.63 464.67,-139.63 461.17,-149.63 468.17,-149.63"/>
</a>
</g>
</g>
</g>
</svg>
