<?xml version="1.0" encoding="UTF-8" standalone="no"?>
<!DOCTYPE svg PUBLIC "-//W3C//DTD SVG 1.1//EN"
 "http://www.w3.org/Graphics/SVG/1.1/DTD/svg11.dtd">
<!-- Generated by graphviz version 13.1.0 (20250701.0955)
 -->
<!-- Title: RTOS::Timer::createMs Pages: 1 -->
<svg width="417pt" height="103pt"
 viewBox="0.00 0.00 417.00 103.00" xmlns="http://www.w3.org/2000/svg" xmlns:xlink="http://www.w3.org/1999/xlink">
<g id="graph0" class="graph" transform="scale(1 1) rotate(0) translate(4 99)">
<title>RTOS::Timer::createMs</title>
<!-- Node1 -->
<g id="Node000001" class="node">
<title>Node1</title>
<g id="a_Node000001"><a xlink:title="Creates a Timer instance with millisecond&#45;based period specification.">
<polygon fill="#999999" stroke="#666666" points="120.25,-73 0,-73 0,-53 120.25,-53 120.25,-73"/>
<text xml:space="preserve" text-anchor="middle" x="60.12" y="-59.5" font-family="Helvetica,sans-Serif" font-size="10.00">RTOS::Timer::createMs</text>
</a>
</g>
</g>
<!-- Node2 -->
<g id="Node000002" class="node">
<title>Node2</title>
<g id="a_Node000002"><a xlink:href="../../da/d2e/a00238.html#ae18fdf28864f1ce14edafee0d377d44e" target="_top" xlink:title="Creates a Timer instance on the heap with validation and error handling.">
<polygon fill="white" stroke="#666666" points="263.75,-95 157,-95 157,-75 263.75,-75 263.75,-95"/>
<text xml:space="preserve" text-anchor="middle" x="210.38" y="-81.5" font-family="Helvetica,sans-Serif" font-size="10.00">RTOS::Timer::create</text>
</a>
</g>
</g>
<!-- Node1&#45;&gt;Node2 -->
<g id="edge1_Node000001_Node000002" class="edge">
<title>Node1&#45;&gt;Node2</title>
<g id="a_edge1_Node000001_Node000002"><a xlink:title=" ">
<path fill="none" stroke="#63b8ff" d="M120.57,-71.82C128.77,-73.04 137.21,-74.29 145.48,-75.52"/>
<polygon fill="#63b8ff" stroke="#63b8ff" points="144.72,-78.94 155.12,-76.95 145.74,-72.02 144.72,-78.94"/>
</a>
</g>
</g>
<!-- Node3 -->
<g id="Node000003" class="node">
<title>Node3</title>
<g id="a_Node000003"><a xlink:href="../../d2/dc8/a00242.html#ad30799a489f18f04fda7d53cd09a68c3" target="_top" xlink:title="Factory method for creating configuration with millisecond&#45;based period.">
<polygon fill="white" stroke="#666666" points="264.5,-57 156.25,-57 156.25,-25 264.5,-25 264.5,-57"/>
<text xml:space="preserve" text-anchor="start" x="164.25" y="-43.5" font-family="Helvetica,sans-Serif" font-size="10.00">RTOS::Timer::Config</text>
<text xml:space="preserve" text-anchor="middle" x="210.38" y="-31.5" font-family="Helvetica,sans-Serif" font-size="10.00">::fromMs</text>
</a>
</g>
</g>
<!-- Node1&#45;&gt;Node3 -->
<g id="edge2_Node000001_Node000003" class="edge">
<title>Node1&#45;&gt;Node3</title>
<g id="a_edge2_Node000001_Node000003"><a xlink:title=" ">
<path fill="none" stroke="#63b8ff" d="M120.57,-54.18C128.56,-52.99 136.79,-51.77 144.87,-50.57"/>
<polygon fill="#63b8ff" stroke="#63b8ff" points="145.27,-54.05 154.65,-49.12 144.24,-47.13 145.27,-54.05"/>
</a>
</g>
</g>
<!-- Node4 -->
<g id="Node000004" class="node">
<title>Node4</title>
<g id="a_Node000004"><a xlink:href="../../d2/dc8/a00242.html#a63245dfa470b0035e0890b428863ea15" target="_top" xlink:title="Primary constructor of Config with parameter validation.">
<polygon fill="white" stroke="#666666" points="408.75,-82 300.5,-82 300.5,-50 408.75,-50 408.75,-82"/>
<text xml:space="preserve" text-anchor="start" x="308.5" y="-68.5" font-family="Helvetica,sans-Serif" font-size="10.00">RTOS::Timer::Config</text>
<text xml:space="preserve" text-anchor="middle" x="354.62" y="-56.5" font-family="Helvetica,sans-Serif" font-size="10.00">::Config</text>
</a>
</g>
</g>
<!-- Node3&#45;&gt;Node4 -->
<g id="edge3_Node000003_Node000004" class="edge">
<title>Node3&#45;&gt;Node4</title>
<g id="a_edge3_Node000003_Node000004"><a xlink:title=" ">
<path fill="none" stroke="#63b8ff" d="M264.75,-50.38C272.77,-51.79 281.11,-53.26 289.33,-54.7"/>
<polygon fill="#63b8ff" stroke="#63b8ff" points="288.48,-58.1 298.93,-56.39 289.69,-51.21 288.48,-58.1"/>
</a>
</g>
</g>
<!-- Node5 -->
<g id="Node000005" class="node">
<title>Node5</title>
<g id="a_Node000005"><a xlink:href="../../d0/d24/a00222.html#ac0cef5f74597d9fd2e71b9eed937365d" target="_top" xlink:title="Converts milliseconds to equivalent FreeRTOS tick count.">
<polygon fill="white" stroke="#666666" points="408.75,-32 300.5,-32 300.5,0 408.75,0 408.75,-32"/>
<text xml:space="preserve" text-anchor="start" x="308.5" y="-18.5" font-family="Helvetica,sans-Serif" font-size="10.00">RTOS::TickCounter::</text>
<text xml:space="preserve" text-anchor="middle" x="354.62" y="-6.5" font-family="Helvetica,sans-Serif" font-size="10.00">msToTicks</text>
</a>
</g>
</g>
<!-- Node3&#45;&gt;Node5 -->
<g id="edge4_Node000003_Node000005" class="edge">
<title>Node3&#45;&gt;Node5</title>
<g id="a_edge4_Node000003_Node000005"><a xlink:title=" ">
<path fill="none" stroke="#63b8ff" d="M264.75,-31.62C272.77,-30.21 281.11,-28.74 289.33,-27.3"/>
<polygon fill="#63b8ff" stroke="#63b8ff" points="289.69,-30.79 298.93,-25.61 288.48,-23.9 289.69,-30.79"/>
</a>
</g>
</g>
</g>
</svg>
