<?xml version="1.0" encoding="UTF-8" standalone="no"?>
<!DOCTYPE svg PUBLIC "-//W3C//DTD SVG 1.1//EN"
 "http://www.w3.org/Graphics/SVG/1.1/DTD/svg11.dtd">
<!-- Generated by graphviz version 12.2.1 (20241206.2353)
 -->
<!-- Title: Lib::Digi::Core::Frame::Data::append Pages: 1 -->
<svg width="291pt" height="240pt"
 viewBox="0.00 0.00 290.50 240.00" xmlns="http://www.w3.org/2000/svg" xmlns:xlink="http://www.w3.org/1999/xlink">
<g id="graph0" class="graph" transform="scale(1 1) rotate(0) translate(4 236)">
<title>Lib::Digi::Core::Frame::Data::append</title>
<!-- Node1 -->
<g id="Node000001" class="node">
<title>Node1</title>
<g id="a_Node000001"><a xlink:title="Appends a sequence of bytes to the vector.">
<polygon fill="#999999" stroke="#666666" points="282.5,-132 169.75,-132 169.75,-100 282.5,-100 282.5,-132"/>
<text text-anchor="start" x="177.75" y="-118.5" font-family="Helvetica,sans-Serif" font-size="10.00">Lib::Digi::Core::Frame</text>
<text text-anchor="middle" x="226.12" y="-106.5" font-family="Helvetica,sans-Serif" font-size="10.00">::Data::append</text>
</a>
</g>
</g>
<!-- Node2 -->
<g id="Node000002" class="node">
<title>Node2</title>
<g id="a_Node000002"><a xlink:href="../../d3/d51/a01264.html#ae62bd4222b2bec349b1ebb7daedb1ca3" target="_top" xlink:title="Default constructor for the Frame0x00 class.">
<polygon fill="white" stroke="#666666" points="133.75,-232 0,-232 0,-200 133.75,-200 133.75,-232"/>
<text text-anchor="start" x="8" y="-218.5" font-family="Helvetica,sans-Serif" font-size="10.00">Lib::Digi::Core::Frame0x00</text>
<text text-anchor="middle" x="66.88" y="-206.5" font-family="Helvetica,sans-Serif" font-size="10.00">::Data</text>
</a>
</g>
</g>
<!-- Node1&#45;&gt;Node2 -->
<g id="edge1_Node000001_Node000002" class="edge">
<title>Node1&#45;&gt;Node2</title>
<g id="a_edge1_Node000001_Node000002"><a xlink:title=" ">
<path fill="none" stroke="#63b8ff" d="M200.54,-139.94C183.02,-156.01 158.32,-176.77 133.75,-191 128.35,-194.13 122.49,-197 116.56,-199.6"/>
<polygon fill="#63b8ff" stroke="#63b8ff" points="202.5,-142.9 207.42,-133.51 197.72,-137.78 202.5,-142.9"/>
</a>
</g>
</g>
<!-- Node3 -->
<g id="Node000003" class="node">
<title>Node3</title>
<g id="a_Node000003"><a xlink:href="../../dc/dd9/a01268.html#aea2c639b62ba777c16e8a69d83e49e8f" target="_top" xlink:title="Converts the frame data into a Frame::Data object.">
<polygon fill="white" stroke="#666666" points="133.75,-182 0,-182 0,-150 133.75,-150 133.75,-182"/>
<text text-anchor="start" x="8" y="-168.5" font-family="Helvetica,sans-Serif" font-size="10.00">Lib::Digi::Core::Frame0x01</text>
<text text-anchor="middle" x="66.88" y="-156.5" font-family="Helvetica,sans-Serif" font-size="10.00">::Data</text>
</a>
</g>
</g>
<!-- Node1&#45;&gt;Node3 -->
<g id="edge2_Node000001_Node000003" class="edge">
<title>Node1&#45;&gt;Node3</title>
<g id="a_edge2_Node000001_Node000003"><a xlink:title=" ">
<path fill="none" stroke="#63b8ff" d="M162.89,-135.79C148.6,-140.33 133.55,-145.12 119.75,-149.51"/>
<polygon fill="#63b8ff" stroke="#63b8ff" points="163.72,-139.2 172.19,-132.83 161.6,-132.53 163.72,-139.2"/>
</a>
</g>
</g>
<!-- Node4 -->
<g id="Node000004" class="node">
<title>Node4</title>
<g id="a_Node000004"><a xlink:href="../../d4/d0e/a01272.html#a32ea5df5d8ca6e339ef835bb50bc82e7" target="_top" xlink:title="Converts the frame data into a Frame::Data object.">
<polygon fill="white" stroke="#666666" points="133.75,-132 0,-132 0,-100 133.75,-100 133.75,-132"/>
<text text-anchor="start" x="8" y="-118.5" font-family="Helvetica,sans-Serif" font-size="10.00">Lib::Digi::Core::Frame0x08</text>
<text text-anchor="middle" x="66.88" y="-106.5" font-family="Helvetica,sans-Serif" font-size="10.00">::Data</text>
</a>
</g>
</g>
<!-- Node1&#45;&gt;Node4 -->
<g id="edge3_Node000001_Node000004" class="edge">
<title>Node1&#45;&gt;Node4</title>
<g id="a_edge3_Node000001_Node000004"><a xlink:title=" ">
<path fill="none" stroke="#63b8ff" d="M158.17,-116C150.21,-116 142.08,-116 134.13,-116"/>
<polygon fill="#63b8ff" stroke="#63b8ff" points="158.17,-119.5 168.17,-116 158.17,-112.5 158.17,-119.5"/>
</a>
</g>
</g>
<!-- Node5 -->
<g id="Node000005" class="node">
<title>Node5</title>
<g id="a_Node000005"><a xlink:href="../../d5/d37/a01276.html#a29ff3a1e655ad7f7dec7fef9d9c2f800" target="_top" xlink:title="Converts the frame data into a Frame::Data object.">
<polygon fill="white" stroke="#666666" points="133.75,-82 0,-82 0,-50 133.75,-50 133.75,-82"/>
<text text-anchor="start" x="8" y="-68.5" font-family="Helvetica,sans-Serif" font-size="10.00">Lib::Digi::Core::Frame0x09</text>
<text text-anchor="middle" x="66.88" y="-56.5" font-family="Helvetica,sans-Serif" font-size="10.00">::Data</text>
</a>
</g>
</g>
<!-- Node1&#45;&gt;Node5 -->
<g id="edge4_Node000001_Node000005" class="edge">
<title>Node1&#45;&gt;Node5</title>
<g id="a_edge4_Node000001_Node000005"><a xlink:title=" ">
<path fill="none" stroke="#63b8ff" d="M162.89,-96.21C148.6,-91.67 133.55,-86.88 119.75,-82.49"/>
<polygon fill="#63b8ff" stroke="#63b8ff" points="161.6,-99.47 172.19,-99.17 163.72,-92.8 161.6,-99.47"/>
</a>
</g>
</g>
<!-- Node6 -->
<g id="Node000006" class="node">
<title>Node6</title>
<g id="a_Node000006"><a xlink:href="../../d8/d0d/a01280.html#a109ce56ea8c1682d6e62039ad7561f20" target="_top" xlink:title="Converts the frame data into a Frame::Data object.">
<polygon fill="white" stroke="#666666" points="133.75,-32 0,-32 0,0 133.75,0 133.75,-32"/>
<text text-anchor="start" x="8" y="-18.5" font-family="Helvetica,sans-Serif" font-size="10.00">Lib::Digi::Core::Frame0x17</text>
<text text-anchor="middle" x="66.88" y="-6.5" font-family="Helvetica,sans-Serif" font-size="10.00">::Data</text>
</a>
</g>
</g>
<!-- Node1&#45;&gt;Node6 -->
<g id="edge5_Node000001_Node000006" class="edge">
<title>Node1&#45;&gt;Node6</title>
<g id="a_edge5_Node000001_Node000006"><a xlink:title=" ">
<path fill="none" stroke="#63b8ff" d="M200.54,-92.06C183.02,-75.99 158.32,-55.23 133.75,-41 128.35,-37.87 122.49,-35 116.56,-32.4"/>
<polygon fill="#63b8ff" stroke="#63b8ff" points="197.72,-94.22 207.42,-98.49 202.5,-89.1 197.72,-94.22"/>
</a>
</g>
</g>
</g>
</svg>
