<?xml version="1.0" encoding="UTF-8" standalone="no"?>
<!DOCTYPE svg PUBLIC "-//W3C//DTD SVG 1.1//EN"
 "http://www.w3.org/Graphics/SVG/1.1/DTD/svg11.dtd">
<!-- Generated by graphviz version 13.1.0 (20250701.0955)
 -->
<!-- Title: Lib::Digi::API::ClientBase::start Pages: 1 -->
<svg width="755pt" height="116pt"
 viewBox="0.00 0.00 755.00 116.00" xmlns="http://www.w3.org/2000/svg" xmlns:xlink="http://www.w3.org/1999/xlink">
<g id="graph0" class="graph" transform="scale(1 1) rotate(0) translate(4 112)">
<title>Lib::Digi::API::ClientBase::start</title>
<!-- Node1 -->
<g id="Node000001" class="node">
<title>Node1</title>
<g id="a_Node000001"><a xlink:title="Initializes the client.">
<polygon fill="#999999" stroke="#666666" points="154,-83 0,-83 0,-63 154,-63 154,-83"/>
<text xml:space="preserve" text-anchor="middle" x="77" y="-69.5" font-family="Helvetica,sans-Serif" font-size="10.00">Lib::Digi::API::ClientBase::start</text>
</a>
</g>
</g>
<!-- Node2 -->
<g id="Node000002" class="node">
<title>Node2</title>
<g id="a_Node000002"><a xlink:href="../../d6/dc8/class_lib_1_1_digi_1_1_a_p_i_1_1_application_base.html#a367e24f54bee4c52ae2203c5ecd2a801" target="_top" xlink:title="Pauses the service.">
<polygon fill="white" stroke="#666666" points="373.25,-102 190,-102 190,-82 373.25,-82 373.25,-102"/>
<text xml:space="preserve" text-anchor="middle" x="281.62" y="-88.5" font-family="Helvetica,sans-Serif" font-size="10.00">Lib::Digi::API::ApplicationBase::pause</text>
</a>
</g>
</g>
<!-- Node1&#45;&gt;Node2 -->
<g id="edge1_Node000001_Node000002" class="edge">
<title>Node1&#45;&gt;Node2</title>
<g id="a_edge1_Node000001_Node000002"><a xlink:title=" ">
<path fill="none" stroke="#63b8ff" d="M154.32,-80.16C162.17,-80.89 170.24,-81.65 178.31,-82.41"/>
<polygon fill="#63b8ff" stroke="#63b8ff" points="177.92,-85.89 188.21,-83.33 178.58,-78.92 177.92,-85.89"/>
</a>
</g>
</g>
<!-- Node3 -->
<g id="Node000003" class="node">
<title>Node3</title>
<g id="a_Node000003"><a xlink:href="../../d6/dc8/class_lib_1_1_digi_1_1_a_p_i_1_1_application_base.html#a2cacfcaa5af0c0ee989dfd3fc665796a" target="_top" xlink:title="Starts the Digi application and initializes the services.">
<polygon fill="white" stroke="#666666" points="369.88,-64 193.38,-64 193.38,-44 369.88,-44 369.88,-64"/>
<text xml:space="preserve" text-anchor="middle" x="281.62" y="-50.5" font-family="Helvetica,sans-Serif" font-size="10.00">Lib::Digi::API::ApplicationBase::start</text>
</a>
</g>
</g>
<!-- Node1&#45;&gt;Node3 -->
<g id="edge2_Node000001_Node000003" class="edge">
<title>Node1&#45;&gt;Node3</title>
<g id="a_edge2_Node000001_Node000003"><a xlink:title=" ">
<path fill="none" stroke="#63b8ff" d="M154.32,-65.84C163.33,-65 172.62,-64.13 181.89,-63.26"/>
<polygon fill="#63b8ff" stroke="#63b8ff" points="182.02,-66.76 191.65,-62.34 181.36,-59.79 182.02,-66.76"/>
</a>
</g>
</g>
<!-- Node4 -->
<g id="Node000004" class="node">
<title>Node4</title>
<g id="a_Node000004"><a xlink:href="../../d3/de9/class_r_t_o_s_1_1_semaphore.html#a89c77ce82882d1c04a9adbb0a4816a79" target="_top" xlink:title="Creates the semaphore.">
<polygon fill="white" stroke="#666666" points="553.5,-108 422,-108 422,-88 553.5,-88 553.5,-108"/>
<text xml:space="preserve" text-anchor="middle" x="487.75" y="-94.5" font-family="Helvetica,sans-Serif" font-size="10.00">RTOS::Semaphore::create</text>
</a>
</g>
</g>
<!-- Node3&#45;&gt;Node4 -->
<g id="edge3_Node000003_Node000004" class="edge">
<title>Node3&#45;&gt;Node4</title>
<g id="a_edge3_Node000003_Node000004"><a xlink:title=" ">
<path fill="none" stroke="#63b8ff" d="M332.98,-64.46C346.09,-67.21 360.21,-70.2 373.25,-73 391.3,-76.88 410.94,-81.18 428.74,-85.1"/>
<polygon fill="#63b8ff" stroke="#63b8ff" points="427.84,-88.49 438.36,-87.23 429.35,-81.65 427.84,-88.49"/>
</a>
</g>
</g>
<!-- Node5 -->
<g id="Node000005" class="node">
<title>Node5</title>
<g id="a_Node000005"><a xlink:href="../../d1/d25/class_lib_1_1_digi_1_1_a_p_i_1_1_service_1_1_manager.html#a0738fe3b7814107f3833ac8725a7d89d" target="_top" xlink:title="Gets the singleton instance.">
<polygon fill="white" stroke="#666666" points="566.25,-70 409.25,-70 409.25,-38 566.25,-38 566.25,-70"/>
<text xml:space="preserve" text-anchor="start" x="417.25" y="-56.5" font-family="Helvetica,sans-Serif" font-size="10.00">Lib::Digi::API::Service::Manager</text>
<text xml:space="preserve" text-anchor="middle" x="487.75" y="-44.5" font-family="Helvetica,sans-Serif" font-size="10.00">::getInstance</text>
</a>
</g>
</g>
<!-- Node3&#45;&gt;Node5 -->
<g id="edge4_Node000003_Node000005" class="edge">
<title>Node3&#45;&gt;Node5</title>
<g id="a_edge4_Node000003_Node000005"><a xlink:title=" ">
<path fill="none" stroke="#63b8ff" d="M370.08,-54C379.13,-54 388.35,-54 397.42,-54"/>
<polygon fill="#63b8ff" stroke="#63b8ff" points="397.31,-57.5 407.31,-54 397.31,-50.5 397.31,-57.5"/>
</a>
</g>
</g>
<!-- Node6 -->
<g id="Node000006" class="node">
<title>Node6</title>
<g id="a_Node000006"><a xlink:href="../../d3/de9/class_r_t_o_s_1_1_semaphore.html#aad3313acf8b7b8d3282fa087e94699a3" target="_top" xlink:title="Gives the semaphore.">
<polygon fill="white" stroke="#666666" points="549,-20 426.5,-20 426.5,0 549,0 549,-20"/>
<text xml:space="preserve" text-anchor="middle" x="487.75" y="-6.5" font-family="Helvetica,sans-Serif" font-size="10.00">RTOS::Semaphore::give</text>
</a>
</g>
</g>
<!-- Node3&#45;&gt;Node6 -->
<g id="edge5_Node000003_Node000006" class="edge">
<title>Node3&#45;&gt;Node6</title>
<g id="a_edge5_Node000003_Node000006"><a xlink:title=" ">
<path fill="none" stroke="#63b8ff" d="M331.26,-43.52C360.04,-37.31 396.7,-29.41 427.2,-22.84"/>
<polygon fill="#63b8ff" stroke="#63b8ff" points="427.62,-26.33 436.66,-20.8 426.14,-19.48 427.62,-26.33"/>
</a>
</g>
</g>
<!-- Node7 -->
<g id="Node000007" class="node">
<title>Node7</title>
<g id="a_Node000007"><a xlink:href="../../dd/da2/class_r_t_o_s_1_1_semaphore_base.html#aecd55b4ab49a736a5162bf88fc570c41" target="_top" xlink:title="Gives the semaphore.">
<polygon fill="white" stroke="#666666" points="747.25,-20 602.25,-20 602.25,0 747.25,0 747.25,-20"/>
<text xml:space="preserve" text-anchor="middle" x="674.75" y="-6.5" font-family="Helvetica,sans-Serif" font-size="10.00">RTOS::SemaphoreBase::give</text>
</a>
</g>
</g>
<!-- Node6&#45;&gt;Node7 -->
<g id="edge6_Node000006_Node000007" class="edge">
<title>Node6&#45;&gt;Node7</title>
<g id="a_edge6_Node000006_Node000007"><a xlink:title=" ">
<path fill="none" stroke="#63b8ff" d="M549.33,-10C562.42,-10 576.48,-10 590.27,-10"/>
<polygon fill="#63b8ff" stroke="#63b8ff" points="590.25,-13.5 600.25,-10 590.25,-6.5 590.25,-13.5"/>
</a>
</g>
</g>
</g>
</svg>
