<?xml version="1.0" encoding="UTF-8" standalone="no"?>
<!DOCTYPE svg PUBLIC "-//W3C//DTD SVG 1.1//EN"
 "http://www.w3.org/Graphics/SVG/1.1/DTD/svg11.dtd">
<!-- Generated by graphviz version 12.2.1 (20241206.2353)
 -->
<!-- Title: Lib::BSP::DigitalPeripheralBase::Inputs Pages: 1 -->
<svg width="132pt" height="232pt"
 viewBox="0.00 0.00 132.25 232.00" xmlns="http://www.w3.org/2000/svg" xmlns:xlink="http://www.w3.org/1999/xlink">
<g id="graph0" class="graph" transform="scale(1 1) rotate(0) translate(4 228)">
<title>Lib::BSP::DigitalPeripheralBase::Inputs</title>
<!-- Node1 -->
<g id="Node000001" class="node">
<title>Node1</title>
<g id="a_Node000001"><a xlink:title="Inputs class.">
<polygon fill="#999999" stroke="none" points="124.25,-224 0,-224 0,0 124.25,0 124.25,-224"/>
<text text-anchor="start" x="4" y="-210.5" font-family="Helvetica,sans-Serif" font-size="10.00">Lib::BSP::DigitalPeripheral</text>
<text text-anchor="start" x="34.38" y="-198.5" font-family="Helvetica,sans-Serif" font-size="10.00">Base::Inputs</text>
<text text-anchor="start" x="8.25" y="-182.5" font-family="Helvetica,sans-Serif" font-size="10.00">+</text>
<text text-anchor="start" x="22.5" y="-182.5" font-family="Helvetica,sans-Serif" font-size="10.00">onValueChanged</text>
<text text-anchor="start" x="8.25" y="-166.5" font-family="Helvetica,sans-Serif" font-size="10.00">+</text>
<text text-anchor="start" x="22.5" y="-166.5" font-family="Helvetica,sans-Serif" font-size="10.00">Inputs()</text>
<text text-anchor="start" x="8.25" y="-150.5" font-family="Helvetica,sans-Serif" font-size="10.00">+</text>
<text text-anchor="start" x="22.5" y="-150.5" font-family="Helvetica,sans-Serif" font-size="10.00">~Inputs()</text>
<text text-anchor="start" x="8.25" y="-134.5" font-family="Helvetica,sans-Serif" font-size="10.00">+</text>
<text text-anchor="start" x="22.5" y="-134.5" font-family="Helvetica,sans-Serif" font-size="10.00">operator=()</text>
<text text-anchor="start" x="8.25" y="-118.5" font-family="Helvetica,sans-Serif" font-size="10.00">+</text>
<text text-anchor="start" x="22.5" y="-118.5" font-family="Helvetica,sans-Serif" font-size="10.00">operator=()</text>
<text text-anchor="start" x="8.25" y="-102.5" font-family="Helvetica,sans-Serif" font-size="10.00">+</text>
<text text-anchor="start" x="22.5" y="-102.5" font-family="Helvetica,sans-Serif" font-size="10.00">Inputs()</text>
<text text-anchor="start" x="8.25" y="-86.5" font-family="Helvetica,sans-Serif" font-size="10.00">+</text>
<text text-anchor="start" x="22.5" y="-86.5" font-family="Helvetica,sans-Serif" font-size="10.00">Inputs()</text>
<text text-anchor="start" x="8.25" y="-70.5" font-family="Helvetica,sans-Serif" font-size="10.00">+</text>
<text text-anchor="start" x="22.5" y="-70.5" font-family="Helvetica,sans-Serif" font-size="10.00">setup()</text>
<text text-anchor="start" x="8.25" y="-54.5" font-family="Helvetica,sans-Serif" font-size="10.00">+</text>
<text text-anchor="start" x="22.5" y="-54.5" font-family="Helvetica,sans-Serif" font-size="10.00">getValue()</text>
<text text-anchor="start" x="8.25" y="-38.5" font-family="Helvetica,sans-Serif" font-size="10.00">+</text>
<text text-anchor="start" x="22.5" y="-38.5" font-family="Helvetica,sans-Serif" font-size="10.00">preUpdateCallback()</text>
<text text-anchor="start" x="8.25" y="-22.5" font-family="Helvetica,sans-Serif" font-size="10.00">+</text>
<text text-anchor="start" x="22.5" y="-22.5" font-family="Helvetica,sans-Serif" font-size="10.00">update()</text>
<text text-anchor="start" x="8.25" y="-6.5" font-family="Helvetica,sans-Serif" font-size="10.00">+</text>
<text text-anchor="start" x="22.5" y="-6.5" font-family="Helvetica,sans-Serif" font-size="10.00">getSpiHandle()</text>
<polygon fill="#666666" stroke="#666666" points="0,-194 0,-194 124.25,-194 124.25,-194 0,-194"/>
<polygon fill="#666666" stroke="#666666" points="0,-178 0,-178 20.5,-178 20.5,-178 0,-178"/>
<polygon fill="#666666" stroke="#666666" points="20.5,-178 20.5,-178 124.25,-178 124.25,-178 20.5,-178"/>
<polygon fill="none" stroke="#666666" points="0,0 0,-224 124.25,-224 124.25,0 0,0"/>
</a>
</g>
</g>
</g>
</svg>
