<?xml version="1.0" encoding="UTF-8" standalone="no"?>
<!DOCTYPE svg PUBLIC "-//W3C//DTD SVG 1.1//EN"
 "http://www.w3.org/Graphics/SVG/1.1/DTD/svg11.dtd">
<!-- Generated by graphviz version 13.1.0 (20250701.0955)
 -->
<!-- Title: Lib::FreeRTOS::Mutex Pages: 1 -->
<svg width="150pt" height="555pt"
 viewBox="0.00 0.00 150.00 555.00" xmlns="http://www.w3.org/2000/svg" xmlns:xlink="http://www.w3.org/1999/xlink">
<g id="graph0" class="graph" transform="scale(1 1) rotate(0) translate(4 551)">
<title>Lib::FreeRTOS::Mutex</title>
<!-- Node1 -->
<g id="Node000001" class="node">
<title>Node1</title>
<g id="a_Node000001"><a xlink:title="Encapsulates FreeRTOS mutex creation, management, and operations.">
<polygon fill="#999999" stroke="none" points="119.38,-163.5 22.12,-163.5 22.12,0 119.38,0 119.38,-163.5"/>
<text xml:space="preserve" text-anchor="start" x="26.12" y="-150.95" font-family="Arial" font-size="9.00">Lib::FreeRTOS::Mutex</text>
<text xml:space="preserve" text-anchor="start" x="69.62" y="-136.45" font-family="Arial" font-size="9.00"> </text>
<text xml:space="preserve" text-anchor="start" x="31.31" y="-121.95" font-family="Arial" font-size="9.00">+</text>
<text xml:space="preserve" text-anchor="start" x="45.75" y="-121.95" font-family="Arial" font-size="9.00">Mutex()</text>
<text xml:space="preserve" text-anchor="start" x="31.31" y="-107.45" font-family="Arial" font-size="9.00">+</text>
<text xml:space="preserve" text-anchor="start" x="45.75" y="-107.45" font-family="Arial" font-size="9.00">~Mutex()</text>
<text xml:space="preserve" text-anchor="start" x="31.31" y="-92.95" font-family="Arial" font-size="9.00">+</text>
<text xml:space="preserve" text-anchor="start" x="45.75" y="-92.95" font-family="Arial" font-size="9.00">create()</text>
<text xml:space="preserve" text-anchor="start" x="31.31" y="-78.45" font-family="Arial" font-size="9.00">+</text>
<text xml:space="preserve" text-anchor="start" x="45.75" y="-78.45" font-family="Arial" font-size="9.00">release()</text>
<text xml:space="preserve" text-anchor="start" x="31.31" y="-63.95" font-family="Arial" font-size="9.00">+</text>
<text xml:space="preserve" text-anchor="start" x="45.75" y="-63.95" font-family="Arial" font-size="9.00">take()</text>
<text xml:space="preserve" text-anchor="start" x="31.31" y="-49.45" font-family="Arial" font-size="9.00">+</text>
<text xml:space="preserve" text-anchor="start" x="45.75" y="-49.45" font-family="Arial" font-size="9.00">takeFromISR()</text>
<text xml:space="preserve" text-anchor="start" x="31.31" y="-34.95" font-family="Arial" font-size="9.00">+</text>
<text xml:space="preserve" text-anchor="start" x="45.75" y="-34.95" font-family="Arial" font-size="9.00">give()</text>
<text xml:space="preserve" text-anchor="start" x="31.31" y="-20.45" font-family="Arial" font-size="9.00">+</text>
<text xml:space="preserve" text-anchor="start" x="45.75" y="-20.45" font-family="Arial" font-size="9.00">giveFromISR()</text>
<text xml:space="preserve" text-anchor="start" x="31.31" y="-5.95" font-family="Arial" font-size="9.00">+</text>
<text xml:space="preserve" text-anchor="start" x="45.75" y="-5.95" font-family="Arial" font-size="9.00">isCreated()</text>
<polygon fill="#666666" stroke="#666666" points="22.12,-147 22.12,-147 119.38,-147 119.38,-147 22.12,-147"/>
<polygon fill="#666666" stroke="#666666" points="22.12,-132.5 22.12,-132.5 119.38,-132.5 119.38,-132.5 22.12,-132.5"/>
<polygon fill="none" stroke="#666666" points="22.12,0 22.12,-163.5 119.38,-163.5 119.38,0 22.12,0"/>
</a>
</g>
</g>
<!-- Node2 -->
<g id="Node000002" class="node">
<title>Node2</title>
<g id="a_Node000002"><a xlink:href="../../da/d90/class_lib_1_1_free_r_t_o_s_1_1_semaphore_base.html" target="_top" xlink:title="Abstract base class for FreeRTOS semaphore wrappers.">
<polygon fill="white" stroke="none" points="141.5,-447 0,-447 0,-200.5 141.5,-200.5 141.5,-447"/>
<text xml:space="preserve" text-anchor="start" x="4" y="-434.45" font-family="Arial" font-size="9.00">Lib::FreeRTOS::SemaphoreBase</text>
<text xml:space="preserve" text-anchor="start" x="69.62" y="-419.95" font-family="Arial" font-size="9.00"> </text>
<text xml:space="preserve" text-anchor="start" x="6.38" y="-405.45" font-family="Arial" font-size="9.00">#</text>
<text xml:space="preserve" text-anchor="start" x="18" y="-405.45" font-family="Arial" font-size="9.00">SemaphoreBase()</text>
<text xml:space="preserve" text-anchor="start" x="6.38" y="-390.95" font-family="Arial" font-size="9.00">#</text>
<text xml:space="preserve" text-anchor="start" x="18" y="-390.95" font-family="Arial" font-size="9.00">SemaphoreBase()</text>
<text xml:space="preserve" text-anchor="start" x="6.38" y="-376.45" font-family="Arial" font-size="9.00">#</text>
<text xml:space="preserve" text-anchor="start" x="18" y="-376.45" font-family="Arial" font-size="9.00">operator=()</text>
<text xml:space="preserve" text-anchor="start" x="6.38" y="-361.95" font-family="Arial" font-size="9.00">#</text>
<text xml:space="preserve" text-anchor="start" x="18" y="-361.95" font-family="Arial" font-size="9.00">SemaphoreBase()</text>
<text xml:space="preserve" text-anchor="start" x="6.38" y="-347.45" font-family="Arial" font-size="9.00">#</text>
<text xml:space="preserve" text-anchor="start" x="18" y="-347.45" font-family="Arial" font-size="9.00">operator=()</text>
<text xml:space="preserve" text-anchor="start" x="6.38" y="-332.95" font-family="Arial" font-size="9.00">#</text>
<text xml:space="preserve" text-anchor="start" x="18" y="-332.95" font-family="Arial" font-size="9.00">~SemaphoreBase()</text>
<text xml:space="preserve" text-anchor="start" x="6.38" y="-318.45" font-family="Arial" font-size="9.00">#</text>
<text xml:space="preserve" text-anchor="start" x="18" y="-318.45" font-family="Arial" font-size="9.00">create()</text>
<text xml:space="preserve" text-anchor="start" x="6.38" y="-303.95" font-family="Arial" font-size="9.00">#</text>
<text xml:space="preserve" text-anchor="start" x="18" y="-303.95" font-family="Arial" font-size="9.00">release()</text>
<text xml:space="preserve" text-anchor="start" x="6.38" y="-289.45" font-family="Arial" font-size="9.00">#</text>
<text xml:space="preserve" text-anchor="start" x="18" y="-289.45" font-family="Arial" font-size="9.00">take()</text>
<text xml:space="preserve" text-anchor="start" x="6.38" y="-274.95" font-family="Arial" font-size="9.00">#</text>
<text xml:space="preserve" text-anchor="start" x="18" y="-274.95" font-family="Arial" font-size="9.00">give()</text>
<text xml:space="preserve" text-anchor="start" x="6.38" y="-260.45" font-family="Arial" font-size="9.00">#</text>
<text xml:space="preserve" text-anchor="start" x="18" y="-260.45" font-family="Arial" font-size="9.00">takeFromISR()</text>
<text xml:space="preserve" text-anchor="start" x="6.38" y="-245.95" font-family="Arial" font-size="9.00">#</text>
<text xml:space="preserve" text-anchor="start" x="18" y="-245.95" font-family="Arial" font-size="9.00">giveFromISR()</text>
<text xml:space="preserve" text-anchor="start" x="6.38" y="-231.45" font-family="Arial" font-size="9.00">#</text>
<text xml:space="preserve" text-anchor="start" x="18" y="-231.45" font-family="Arial" font-size="9.00">operator SemaphoreHandle</text>
<text xml:space="preserve" text-anchor="start" x="18" y="-220.95" font-family="Arial" font-size="9.00">_t &amp;()</text>
<text xml:space="preserve" text-anchor="start" x="6.38" y="-206.45" font-family="Arial" font-size="9.00">#</text>
<text xml:space="preserve" text-anchor="start" x="18" y="-206.45" font-family="Arial" font-size="9.00">isCreated()</text>
<polygon fill="#666666" stroke="#666666" points="0,-430.5 0,-430.5 141.5,-430.5 141.5,-430.5 0,-430.5"/>
<polygon fill="#666666" stroke="#666666" points="0,-416 0,-416 141.5,-416 141.5,-416 0,-416"/>
<polygon fill="none" stroke="#666666" points="0,-200.5 0,-447 141.5,-447 141.5,-200.5 0,-200.5"/>
</a>
</g>
</g>
<!-- Node2&#45;&gt;Node1 -->
<g id="edge1_Node000001_Node000002" class="edge">
<title>Node2&#45;&gt;Node1</title>
<g id="a_edge1_Node000001_Node000002"><a xlink:title=" ">
<path fill="none" stroke="#63b8ff" d="M70.75,-189.13C70.75,-180.4 70.75,-171.77 70.75,-163.43"/>
<polygon fill="none" stroke="#63b8ff" points="67.25,-189.13 70.75,-199.13 74.25,-189.13 67.25,-189.13"/>
</a>
</g>
</g>
<!-- Node3 -->
<g id="Node000003" class="node">
<title>Node3</title>
<g id="a_Node000003"><a xlink:title=" ">
<polygon fill="white" stroke="none" points="117.5,-547 24,-547 24,-499.5 117.5,-499.5 117.5,-547"/>
<text xml:space="preserve" text-anchor="start" x="28" y="-534.45" font-family="Arial" font-size="9.00">SemaphoreHandle_t</text>
<text xml:space="preserve" text-anchor="start" x="69.62" y="-519.95" font-family="Arial" font-size="9.00"> </text>
<text xml:space="preserve" text-anchor="start" x="69.62" y="-505.45" font-family="Arial" font-size="9.00"> </text>
<polygon fill="#bfbfbf" stroke="#bfbfbf" points="24,-530.5 24,-530.5 117.5,-530.5 117.5,-530.5 24,-530.5"/>
<polygon fill="#bfbfbf" stroke="#bfbfbf" points="24,-516 24,-516 117.5,-516 117.5,-516 24,-516"/>
<polygon fill="none" stroke="#bfbfbf" points="24,-499.5 24,-547 117.5,-547 117.5,-499.5 24,-499.5"/>
</a>
</g>
</g>
<!-- Node3&#45;&gt;Node2 -->
<g id="edge2_Node000002_Node000003" class="edge">
<title>Node3&#45;&gt;Node2</title>
<g id="a_edge2_Node000002_Node000003"><a xlink:title=" ">
<path fill="none" stroke="#63b8ff" d="M70.75,-499.59C70.75,-488.83 70.75,-475 70.75,-459.85"/>
<polygon fill="none" stroke="#63b8ff" points="70.75,-459.75 66.75,-453.75 70.75,-447.75 74.75,-453.75 70.75,-459.75"/>
</a>
</g>
<text xml:space="preserve" text-anchor="start" x="73.75" y="-469.95" font-family="Arial" font-size="9.00" fill="grey">#handle</text>
</g>
</g>
</svg>
