<?xml version="1.0" encoding="UTF-8" standalone="no"?>
<!DOCTYPE svg PUBLIC "-//W3C//DTD SVG 1.1//EN"
 "http://www.w3.org/Graphics/SVG/1.1/DTD/svg11.dtd">
<!-- Generated by graphviz version 13.1.0 (20250701.0955)
 -->
<!-- Title: Lib::HAL::OTP::instance Pages: 1 -->
<svg width="436pt" height="256pt"
 viewBox="0.00 0.00 436.00 256.00" xmlns="http://www.w3.org/2000/svg" xmlns:xlink="http://www.w3.org/1999/xlink">
<g id="graph0" class="graph" transform="scale(1 1) rotate(0) translate(4 252)">
<title>Lib::HAL::OTP::instance</title>
<!-- Node1 -->
<g id="Node000001" class="node">
<title>Node1</title>
<g id="a_Node000001"><a xlink:title="Returns the singleton instance of OTP.">
<polygon fill="#999999" stroke="#666666" points="428.25,-134.75 315.5,-134.75 315.5,-116.25 428.25,-116.25 428.25,-134.75"/>
<text xml:space="preserve" text-anchor="middle" x="371.88" y="-122.2" font-family="Arial" font-size="9.00">Lib::HAL::OTP::instance</text>
</a>
</g>
</g>
<!-- Node1&#45;&gt;Node1 -->
<g id="edge1_Node000001_Node000001" class="edge">
<title>Node1&#45;&gt;Node1</title>
<g id="a_edge1_Node000001_Node000001"><a xlink:title=" ">
<path fill="none" stroke="#63b8ff" d="M399.46,-145.78C396.39,-149.84 387.2,-152.75 371.88,-152.75 344.64,-152.75 336.76,-143.57 348.25,-135"/>
<polygon fill="#63b8ff" stroke="#63b8ff" points="402.75,-144.6 396.02,-136.42 396.18,-147.01 402.75,-144.6"/>
</a>
</g>
</g>
<!-- Node2 -->
<g id="Node000002" class="node">
<title>Node2</title>
<g id="a_Node000002"><a xlink:href="../../d8/d85/class_lib_1_1_system_1_1_config.html#a562aff91ccc086c34db77884d133ed92" target="_top" xlink:title="Check if configuration value is empty.">
<polygon fill="white" stroke="#666666" points="266,-248 171.25,-248 171.25,-219 266,-219 266,-248"/>
<text xml:space="preserve" text-anchor="start" x="179.25" y="-235.45" font-family="Arial" font-size="9.00">Lib::System::Config</text>
<text xml:space="preserve" text-anchor="middle" x="218.62" y="-224.95" font-family="Arial" font-size="9.00">::isEmpty</text>
</a>
</g>
</g>
<!-- Node1&#45;&gt;Node2 -->
<g id="edge2_Node000001_Node000002" class="edge">
<title>Node1&#45;&gt;Node2</title>
<g id="a_edge2_Node000001_Node000002"><a xlink:title=" ">
<path fill="none" stroke="#63b8ff" d="M353.25,-143.23C335.64,-160.34 307.25,-186.24 279.5,-204.5 271.68,-209.64 262.82,-214.43 254.35,-218.58"/>
<polygon fill="#63b8ff" stroke="#63b8ff" points="355.68,-145.76 360.35,-136.24 350.77,-140.77 355.68,-145.76"/>
</a>
</g>
</g>
<!-- Node3 -->
<g id="Node000003" class="node">
<title>Node3</title>
<g id="a_Node000003"><a xlink:href="../../d8/d85/class_lib_1_1_system_1_1_config.html#a62313cf2dff090b34d894bdbfdff4fa0" target="_top" xlink:title="Write configuration value to OTP.">
<polygon fill="white" stroke="#666666" points="108.25,-216 13.5,-216 13.5,-187 108.25,-187 108.25,-216"/>
<text xml:space="preserve" text-anchor="start" x="21.5" y="-203.45" font-family="Arial" font-size="9.00">Lib::System::Config</text>
<text xml:space="preserve" text-anchor="middle" x="60.88" y="-192.95" font-family="Arial" font-size="9.00">::operator=</text>
</a>
</g>
</g>
<!-- Node1&#45;&gt;Node3 -->
<g id="edge7_Node000001_Node000003" class="edge">
<title>Node1&#45;&gt;Node3</title>
<g id="a_edge7_Node000001_Node000003"><a xlink:title=" ">
<path fill="none" stroke="#63b8ff" d="M345.81,-140.96C327.97,-151.24 303.06,-164.17 279.5,-171.5 222.33,-189.29 153.43,-196.54 108.69,-199.49"/>
<polygon fill="#63b8ff" stroke="#63b8ff" points="347.56,-143.99 354.39,-135.89 344,-137.96 347.56,-143.99"/>
</a>
</g>
</g>
<!-- Node4 -->
<g id="Node000004" class="node">
<title>Node4</title>
<g id="a_Node000004"><a xlink:href="../../dc/da6/class_lib_1_1_system_1_1_produce_date.html#a8e283a580bd673ea71227c819f3e1ced" target="_top" xlink:title="Check if production date is empty.">
<polygon fill="white" stroke="#666666" points="279.5,-162 157.75,-162 157.75,-133 279.5,-133 279.5,-162"/>
<text xml:space="preserve" text-anchor="start" x="165.75" y="-149.45" font-family="Arial" font-size="9.00">Lib::System::ProduceDate</text>
<text xml:space="preserve" text-anchor="middle" x="218.62" y="-138.95" font-family="Arial" font-size="9.00">::isEmpty</text>
</a>
</g>
</g>
<!-- Node1&#45;&gt;Node4 -->
<g id="edge4_Node000001_Node000004" class="edge">
<title>Node1&#45;&gt;Node4</title>
<g id="a_edge4_Node000001_Node000004"><a xlink:title=" ">
<path fill="none" stroke="#63b8ff" d="M304.15,-135.21C296.08,-136.38 287.88,-137.57 279.92,-138.73"/>
<polygon fill="#63b8ff" stroke="#63b8ff" points="304.52,-138.69 313.92,-133.78 303.52,-131.76 304.52,-138.69"/>
</a>
</g>
</g>
<!-- Node5 -->
<g id="Node000005" class="node">
<title>Node5</title>
<g id="a_Node000005"><a xlink:href="../../dc/da6/class_lib_1_1_system_1_1_produce_date.html#a33840641869a3c6ec5f40e3893d3f8a9" target="_top" xlink:title="Write production date to OTP.">
<polygon fill="white" stroke="#666666" points="121.75,-150 0,-150 0,-121 121.75,-121 121.75,-150"/>
<text xml:space="preserve" text-anchor="start" x="8" y="-137.45" font-family="Arial" font-size="9.00">Lib::System::ProduceDate</text>
<text xml:space="preserve" text-anchor="middle" x="60.88" y="-126.95" font-family="Arial" font-size="9.00">::write</text>
</a>
</g>
</g>
<!-- Node1&#45;&gt;Node5 -->
<g id="edge9_Node000001_Node000005" class="edge">
<title>Node1&#45;&gt;Node5</title>
<g id="a_edge9_Node000001_Node000005"><a xlink:title=" ">
<path fill="none" stroke="#63b8ff" d="M303.81,-124.68C295.62,-124.61 287.37,-124.54 279.5,-124.5 225.39,-124.2 211.77,-121.41 157.75,-124.5 146.21,-125.16 133.92,-126.26 122.13,-127.52"/>
<polygon fill="#63b8ff" stroke="#63b8ff" points="303.76,-128.18 313.79,-124.78 303.83,-121.18 303.76,-128.18"/>
</a>
</g>
</g>
<!-- Node6 -->
<g id="Node000006" class="node">
<title>Node6</title>
<g id="a_Node000006"><a xlink:href="../../d8/d85/class_lib_1_1_system_1_1_config.html#a5cf484cf67071bcfb8d474ceb7fc10f0" target="_top" xlink:title="Read configuration value from OTP.">
<polygon fill="white" stroke="#666666" points="266,-76 171.25,-76 171.25,-47 266,-47 266,-76"/>
<text xml:space="preserve" text-anchor="start" x="179.25" y="-63.45" font-family="Arial" font-size="9.00">Lib::System::Config</text>
<text xml:space="preserve" text-anchor="middle" x="218.62" y="-52.95" font-family="Arial" font-size="9.00">::operator uint32_t</text>
</a>
</g>
</g>
<!-- Node1&#45;&gt;Node6 -->
<g id="edge6_Node000001_Node000006" class="edge">
<title>Node1&#45;&gt;Node6</title>
<g id="a_edge6_Node000001_Node000006"><a xlink:title=" ">
<path fill="none" stroke="#63b8ff" d="M337.33,-111.31C312.87,-100.96 279.79,-86.96 254.93,-76.44"/>
<polygon fill="#63b8ff" stroke="#63b8ff" points="335.94,-114.52 346.51,-115.19 338.66,-108.07 335.94,-114.52"/>
</a>
</g>
</g>
<!-- Node7 -->
<g id="Node000007" class="node">
<title>Node7</title>
<g id="a_Node000007"><a xlink:href="../../dc/da6/class_lib_1_1_system_1_1_produce_date.html#a20e5a16f978c6b622409fb403fb191c2" target="_top" xlink:title="Read production date from OTP.">
<polygon fill="white" stroke="#666666" points="279.5,-29 157.75,-29 157.75,0 279.5,0 279.5,-29"/>
<text xml:space="preserve" text-anchor="start" x="165.75" y="-16.45" font-family="Arial" font-size="9.00">Lib::System::ProduceDate</text>
<text xml:space="preserve" text-anchor="middle" x="218.62" y="-5.95" font-family="Arial" font-size="9.00">::read</text>
</a>
</g>
</g>
<!-- Node1&#45;&gt;Node7 -->
<g id="edge8_Node000001_Node000007" class="edge">
<title>Node1&#45;&gt;Node7</title>
<g id="a_edge8_Node000001_Node000007"><a xlink:title=" ">
<path fill="none" stroke="#63b8ff" d="M355.71,-107.44C338.77,-88.21 309.75,-57.93 279.5,-38.5 274.32,-35.17 268.6,-32.16 262.81,-29.5"/>
<polygon fill="#63b8ff" stroke="#63b8ff" points="352.83,-109.46 362.01,-114.75 358.13,-104.89 352.83,-109.46"/>
</a>
</g>
</g>
<!-- Node2&#45;&gt;Node3 -->
<g id="edge3_Node000002_Node000003" class="edge">
<title>Node2&#45;&gt;Node3</title>
<g id="a_edge3_Node000002_Node000003"><a xlink:title=" ">
<path fill="none" stroke="#63b8ff" d="M160,-221.66C143.06,-218.18 124.74,-214.42 108.57,-211.09"/>
<polygon fill="#63b8ff" stroke="#63b8ff" points="158.91,-225.01 169.41,-223.59 160.32,-218.15 158.91,-225.01"/>
</a>
</g>
</g>
<!-- Node4&#45;&gt;Node5 -->
<g id="edge5_Node000004_Node000005" class="edge">
<title>Node4&#45;&gt;Node5</title>
<g id="a_edge5_Node000004_Node000005"><a xlink:title=" ">
<path fill="none" stroke="#63b8ff" d="M146.17,-141.99C138.15,-141.38 130.05,-140.75 122.19,-140.15"/>
<polygon fill="#63b8ff" stroke="#63b8ff" points="145.66,-145.47 155.9,-142.74 146.2,-138.49 145.66,-145.47"/>
</a>
</g>
</g>
</g>
</svg>
