<?xml version="1.0" encoding="UTF-8" standalone="no"?>
<!DOCTYPE svg PUBLIC "-//W3C//DTD SVG 1.1//EN"
 "http://www.w3.org/Graphics/SVG/1.1/DTD/svg11.dtd">
<!-- Generated by graphviz version 13.1.0 (20250701.0955)
 -->
<!-- Title: BSP::Beep Pages: 1 -->
<svg width="147pt" height="175pt"
 viewBox="0.00 0.00 147.00 175.00" xmlns="http://www.w3.org/2000/svg" xmlns:xlink="http://www.w3.org/1999/xlink">
<g id="graph0" class="graph" transform="scale(1 1) rotate(0) translate(4 170.5)">
<title>BSP::Beep</title>
<!-- Node1 -->
<g id="Node000001" class="node">
<title>Node1</title>
<g id="a_Node000001"><a xlink:title="Beep adaptation for STM32 BSP.">
<polygon fill="#999999" stroke="none" points="138.75,-83 0,-83 0,0 138.75,0 138.75,-83"/>
<text xml:space="preserve" text-anchor="start" x="47.25" y="-70.45" font-family="Arial" font-size="9.00">BSP::Beep</text>
<text xml:space="preserve" text-anchor="start" x="68.25" y="-55.95" font-family="Arial" font-size="9.00"> </text>
<text xml:space="preserve" text-anchor="start" x="4" y="-41.45" font-family="Arial" font-size="9.00">+</text>
<text xml:space="preserve" text-anchor="start" x="13.25" y="-41.45" font-family="Arial" font-size="9.00">Beep()</text>
<text xml:space="preserve" text-anchor="start" x="4" y="-26.95" font-family="Arial" font-size="9.00">+</text>
<text xml:space="preserve" text-anchor="start" x="13.25" y="-26.95" font-family="Arial" font-size="9.00">void operator()(uint32</text>
<text xml:space="preserve" text-anchor="start" x="13.25" y="-16.45" font-family="Arial" font-size="9.00">_t duration=100, uint32</text>
<text xml:space="preserve" text-anchor="start" x="13.25" y="-5.95" font-family="Arial" font-size="9.00">_t pause=0, uint32_t count=1)</text>
<polygon fill="#666666" stroke="#666666" points="0,-66.5 0,-66.5 138.75,-66.5 138.75,-66.5 0,-66.5"/>
<polygon fill="#666666" stroke="#666666" points="0,-52 0,-52 138.75,-52 138.75,-52 0,-52"/>
<polygon fill="none" stroke="#666666" points="0,0 0,-83 138.75,-83 138.75,0 0,0"/>
</a>
</g>
</g>
<!-- Node2 -->
<g id="Node000002" class="node">
<title>Node2</title>
<g id="a_Node000002"><a xlink:title=" ">
<polygon fill="white" stroke="none" points="104.12,-166.5 34.62,-166.5 34.62,-119 104.12,-119 104.12,-166.5"/>
<text xml:space="preserve" text-anchor="start" x="38.62" y="-153.95" font-family="Arial" font-size="9.00">Lib::BSP::Beep</text>
<text xml:space="preserve" text-anchor="start" x="68.25" y="-139.45" font-family="Arial" font-size="9.00"> </text>
<text xml:space="preserve" text-anchor="start" x="68.25" y="-124.95" font-family="Arial" font-size="9.00"> </text>
<polygon fill="#bfbfbf" stroke="#bfbfbf" points="34.62,-150 34.62,-150 104.12,-150 104.12,-150 34.62,-150"/>
<polygon fill="#bfbfbf" stroke="#bfbfbf" points="34.62,-135.5 34.62,-135.5 104.12,-135.5 104.12,-135.5 34.62,-135.5"/>
<polygon fill="none" stroke="#bfbfbf" points="34.62,-119 34.62,-166.5 104.12,-166.5 104.12,-119 34.62,-119"/>
</a>
</g>
</g>
<!-- Node2&#45;&gt;Node1 -->
<g id="edge1_Node000001_Node000002" class="edge">
<title>Node2&#45;&gt;Node1</title>
<g id="a_edge1_Node000001_Node000002"><a xlink:title=" ">
<path fill="none" stroke="#63b8ff" d="M69.38,-107.97C69.38,-99.9 69.38,-91.21 69.38,-82.87"/>
<polygon fill="none" stroke="#63b8ff" points="65.88,-107.72 69.38,-117.72 72.88,-107.72 65.88,-107.72"/>
</a>
</g>
</g>
</g>
</svg>
