<?xml version="1.0" encoding="UTF-8" standalone="no"?>
<!DOCTYPE svg PUBLIC "-//W3C//DTD SVG 1.1//EN"
 "http://www.w3.org/Graphics/SVG/1.1/DTD/svg11.dtd">
<!-- Generated by graphviz version 12.2.1 (20241206.2353)
 -->
<!-- Title: Lib::HAL::UARTBase::event Pages: 1 -->
<svg width="555pt" height="90pt"
 viewBox="0.00 0.00 555.00 90.00" xmlns="http://www.w3.org/2000/svg" xmlns:xlink="http://www.w3.org/1999/xlink">
<g id="graph0" class="graph" transform="scale(1 1) rotate(0) translate(4 86)">
<title>Lib::HAL::UARTBase::event</title>
<!-- Node1 -->
<g id="Node000001" class="node">
<title>Node1</title>
<g id="a_Node000001"><a xlink:title="Handles the UART event.">
<polygon fill="#999999" stroke="#666666" points="547,-57 437.25,-57 437.25,-25 547,-25 547,-57"/>
<text text-anchor="start" x="445.25" y="-43.5" font-family="Helvetica,sans-Serif" font-size="10.00">Lib::HAL::UARTBase</text>
<text text-anchor="middle" x="492.12" y="-31.5" font-family="Helvetica,sans-Serif" font-size="10.00">::event</text>
</a>
</g>
</g>
<!-- Node2 -->
<g id="Node000002" class="node">
<title>Node2</title>
<g id="a_Node000002"><a xlink:href="../../dd/dfe/a00283.html#a7ef96f8746be3a62731f75c6f03a8cdb" target="_top" xlink:title="Handles the ISR callback event for the UART.">
<polygon fill="white" stroke="#666666" points="401.25,-82 291.5,-82 291.5,-50 401.25,-50 401.25,-82"/>
<text text-anchor="start" x="299.5" y="-68.5" font-family="Helvetica,sans-Serif" font-size="10.00">Lib::HAL::UARTBase</text>
<text text-anchor="middle" x="346.38" y="-56.5" font-family="Helvetica,sans-Serif" font-size="10.00">::event</text>
</a>
</g>
</g>
<!-- Node1&#45;&gt;Node2 -->
<g id="edge1_Node000001_Node000002" class="edge">
<title>Node1&#45;&gt;Node2</title>
<g id="a_edge1_Node000001_Node000002"><a xlink:title=" ">
<path fill="none" stroke="#63b8ff" d="M425.47,-52.42C417.39,-53.82 409.2,-55.25 401.32,-56.62"/>
<polygon fill="#63b8ff" stroke="#63b8ff" points="426.04,-55.87 435.29,-50.71 424.84,-48.98 426.04,-55.87"/>
</a>
</g>
</g>
<!-- Node3 -->
<g id="Node000003" class="node">
<title>Node3</title>
<g id="a_Node000003"><a xlink:href="../../dd/dfe/a00283.html#a79822c08e0ea29e8cc1ceabdcae8956d" target="_top" xlink:title="Interrupt handler for UART events.">
<polygon fill="white" stroke="#666666" points="401.25,-32 291.5,-32 291.5,0 401.25,0 401.25,-32"/>
<text text-anchor="start" x="299.5" y="-18.5" font-family="Helvetica,sans-Serif" font-size="10.00">Lib::HAL::UARTBase</text>
<text text-anchor="middle" x="346.38" y="-6.5" font-family="Helvetica,sans-Serif" font-size="10.00">::interruptHandler</text>
</a>
</g>
</g>
<!-- Node1&#45;&gt;Node3 -->
<g id="edge2_Node000001_Node000003" class="edge">
<title>Node1&#45;&gt;Node3</title>
<g id="a_edge2_Node000001_Node000003"><a xlink:title=" ">
<path fill="none" stroke="#63b8ff" d="M425.47,-29.58C417.39,-28.18 409.2,-26.75 401.32,-25.38"/>
<polygon fill="#63b8ff" stroke="#63b8ff" points="424.84,-33.02 435.29,-31.29 426.04,-26.13 424.84,-33.02"/>
</a>
</g>
</g>
<!-- Node4 -->
<g id="Node000004" class="node">
<title>Node4</title>
<g id="a_Node000004"><a xlink:href="../../dd/dfe/a00283.html#a76e085bd92d76c65ab99b1c4400416db" target="_top" xlink:title="Initializes the UART interface.">
<polygon fill="white" stroke="#666666" points="255.5,-32 145.75,-32 145.75,0 255.5,0 255.5,-32"/>
<text text-anchor="start" x="153.75" y="-18.5" font-family="Helvetica,sans-Serif" font-size="10.00">Lib::HAL::UARTBase</text>
<text text-anchor="middle" x="200.62" y="-6.5" font-family="Helvetica,sans-Serif" font-size="10.00">::init</text>
</a>
</g>
</g>
<!-- Node3&#45;&gt;Node4 -->
<g id="edge3_Node000003_Node000004" class="edge">
<title>Node3&#45;&gt;Node4</title>
<g id="a_edge3_Node000003_Node000004"><a xlink:title=" ">
<path fill="none" stroke="#63b8ff" d="M279.72,-16C271.64,-16 263.45,-16 255.57,-16"/>
<polygon fill="#63b8ff" stroke="#63b8ff" points="279.52,-19.5 289.52,-16 279.52,-12.5 279.52,-19.5"/>
</a>
</g>
</g>
<!-- Node5 -->
<g id="Node000005" class="node">
<title>Node5</title>
<g id="a_Node000005"><a xlink:href="../../dd/dfe/a00283.html#afa3c3e4693f2a614fd1967b2d4edd043" target="_top" xlink:title="Sets the baud rate of the UART port.">
<polygon fill="white" stroke="#666666" points="109.75,-32 0,-32 0,0 109.75,0 109.75,-32"/>
<text text-anchor="start" x="8" y="-18.5" font-family="Helvetica,sans-Serif" font-size="10.00">Lib::HAL::UARTBase</text>
<text text-anchor="middle" x="54.88" y="-6.5" font-family="Helvetica,sans-Serif" font-size="10.00">::setBaudRate</text>
</a>
</g>
</g>
<!-- Node4&#45;&gt;Node5 -->
<g id="edge4_Node000004_Node000005" class="edge">
<title>Node4&#45;&gt;Node5</title>
<g id="a_edge4_Node000004_Node000005"><a xlink:title=" ">
<path fill="none" stroke="#63b8ff" d="M133.97,-16C125.89,-16 117.7,-16 109.82,-16"/>
<polygon fill="#63b8ff" stroke="#63b8ff" points="133.77,-19.5 143.77,-16 133.77,-12.5 133.77,-19.5"/>
</a>
</g>
</g>
</g>
</svg>
