<?xml version="1.0" encoding="UTF-8" standalone="no"?>
<!DOCTYPE svg PUBLIC "-//W3C//DTD SVG 1.1//EN"
 "http://www.w3.org/Graphics/SVG/1.1/DTD/svg11.dtd">
<!-- Generated by graphviz version 12.2.1 (20241206.2353)
 -->
<!-- Title: Protocol Pages: 1 -->
<svg width="151pt" height="408pt"
 viewBox="0.00 0.00 150.50 408.00" xmlns="http://www.w3.org/2000/svg" xmlns:xlink="http://www.w3.org/1999/xlink">
<g id="graph0" class="graph" transform="scale(1 1) rotate(0) translate(4 404)">
<title>Protocol</title>
<!-- Node1 -->
<g id="Node000001" class="node">
<title>Node1</title>
<g id="a_Node000001"><a xlink:title="RS232 Communication Protocol class.">
<polygon fill="#999999" stroke="none" points="142.5,-400 0,-400 0,-116 142.5,-116 142.5,-400"/>
<text text-anchor="start" x="53.25" y="-386.5" font-family="Helvetica,sans-Serif" font-size="10.00">Protocol</text>
<text text-anchor="start" x="4" y="-370.5" font-family="Helvetica,sans-Serif" font-size="10.00">+</text>
<text text-anchor="start" x="14" y="-370.5" font-family="Helvetica,sans-Serif" font-size="10.00">std::function&lt; void</text>
<text text-anchor="start" x="14" y="-358.5" font-family="Helvetica,sans-Serif" font-size="10.00">()&gt; onEchoCommand</text>
<text text-anchor="start" x="4" y="-342.5" font-family="Helvetica,sans-Serif" font-size="10.00">+</text>
<text text-anchor="start" x="14" y="-342.5" font-family="Helvetica,sans-Serif" font-size="10.00">std::function&lt; void</text>
<text text-anchor="start" x="14" y="-330.5" font-family="Helvetica,sans-Serif" font-size="10.00">(const void *, size</text>
<text text-anchor="start" x="14" y="-318.5" font-family="Helvetica,sans-Serif" font-size="10.00">_t)&gt; onUpdateCommand</text>
<text text-anchor="start" x="4" y="-302.5" font-family="Helvetica,sans-Serif" font-size="10.00">+</text>
<text text-anchor="start" x="14" y="-302.5" font-family="Helvetica,sans-Serif" font-size="10.00">std::function&lt; void</text>
<text text-anchor="start" x="14" y="-290.5" font-family="Helvetica,sans-Serif" font-size="10.00">()&gt; onRestartCommand</text>
<text text-anchor="start" x="4" y="-274.5" font-family="Helvetica,sans-Serif" font-size="10.00">+</text>
<text text-anchor="start" x="14" y="-274.5" font-family="Helvetica,sans-Serif" font-size="10.00">static constexpr size</text>
<text text-anchor="start" x="14" y="-262.5" font-family="Helvetica,sans-Serif" font-size="10.00">_t CHKSUM_SIZE</text>
<text text-anchor="start" x="4" y="-246.5" font-family="Helvetica,sans-Serif" font-size="10.00">+</text>
<text text-anchor="start" x="14" y="-246.5" font-family="Helvetica,sans-Serif" font-size="10.00">static constexpr size</text>
<text text-anchor="start" x="14" y="-234.5" font-family="Helvetica,sans-Serif" font-size="10.00">_t MIN_MESSAGE_SIZE</text>
<text text-anchor="start" x="4" y="-218.5" font-family="Helvetica,sans-Serif" font-size="10.00">+</text>
<text text-anchor="start" x="14" y="-218.5" font-family="Helvetica,sans-Serif" font-size="10.00">Protocol()=default</text>
<text text-anchor="start" x="4" y="-202.5" font-family="Helvetica,sans-Serif" font-size="10.00">+</text>
<text text-anchor="start" x="14" y="-202.5" font-family="Helvetica,sans-Serif" font-size="10.00">~Protocol()=default</text>
<text text-anchor="start" x="4" y="-186.5" font-family="Helvetica,sans-Serif" font-size="10.00">+</text>
<text text-anchor="start" x="14" y="-186.5" font-family="Helvetica,sans-Serif" font-size="10.00">bool parse(const std</text>
<text text-anchor="start" x="14" y="-174.5" font-family="Helvetica,sans-Serif" font-size="10.00">::vector&lt; uint8_t &gt; &amp;msg)</text>
<text text-anchor="start" x="4" y="-158.5" font-family="Helvetica,sans-Serif" font-size="10.00">+</text>
<text text-anchor="start" x="14" y="-158.5" font-family="Helvetica,sans-Serif" font-size="10.00">void build(std::vector</text>
<text text-anchor="start" x="14" y="-146.5" font-family="Helvetica,sans-Serif" font-size="10.00">&lt; uint8_t &gt; &amp;msg, uint32</text>
<text text-anchor="start" x="14" y="-134.5" font-family="Helvetica,sans-Serif" font-size="10.00">_t cmd, const void *payload,</text>
<text text-anchor="start" x="14" y="-122.5" font-family="Helvetica,sans-Serif" font-size="10.00"> size_t len)</text>
<polygon fill="#666666" stroke="#666666" points="0,-382 0,-382 142.5,-382 142.5,-382 0,-382"/>
<polygon fill="#666666" stroke="#666666" points="0,-230 0,-230 12,-230 12,-230 0,-230"/>
<polygon fill="#666666" stroke="#666666" points="12,-230 12,-230 142.5,-230 142.5,-230 12,-230"/>
<polygon fill="none" stroke="#666666" points="0,-116 0,-400 142.5,-400 142.5,-116 0,-116"/>
</a>
</g>
</g>
<!-- Node2 -->
<g id="Node000002" class="node">
<title>Node2</title>
<g id="a_Node000002"><a xlink:href="../../d9/da5/a00075.html" target="_top" xlink:title="RS232 Com Client class.">
<polygon fill="white" stroke="none" points="117.75,-80 24.75,-80 24.75,0 117.75,0 117.75,-80"/>
<text text-anchor="start" x="58.5" y="-66.5" font-family="Helvetica,sans-Serif" font-size="10.00">Client</text>
<text text-anchor="start" x="69.75" y="-50.5" font-family="Helvetica,sans-Serif" font-size="10.00"> </text>
<text text-anchor="start" x="28.75" y="-34.5" font-family="Helvetica,sans-Serif" font-size="10.00">+</text>
<text text-anchor="start" x="38.75" y="-34.5" font-family="Helvetica,sans-Serif" font-size="10.00">Client()</text>
<text text-anchor="start" x="28.75" y="-18.5" font-family="Helvetica,sans-Serif" font-size="10.00">+</text>
<text text-anchor="start" x="38.75" y="-18.5" font-family="Helvetica,sans-Serif" font-size="10.00">~Client() override</text>
<text text-anchor="start" x="38.75" y="-6.5" font-family="Helvetica,sans-Serif" font-size="10.00">=default</text>
<polygon fill="#666666" stroke="#666666" points="24.75,-62 24.75,-62 117.75,-62 117.75,-62 24.75,-62"/>
<polygon fill="#666666" stroke="#666666" points="24.75,-46 24.75,-46 117.75,-46 117.75,-46 24.75,-46"/>
<polygon fill="none" stroke="#666666" points="24.75,0 24.75,-80 117.75,-80 117.75,0 24.75,0"/>
</a>
</g>
</g>
<!-- Node1&#45;&gt;Node2 -->
<g id="edge1_Node000001_Node000002" class="edge">
<title>Node1&#45;&gt;Node2</title>
<g id="a_edge1_Node000001_Node000002"><a xlink:title=" ">
<path fill="none" stroke="#8b1a1a" d="M71.25,-105.02C71.25,-96.01 71.25,-87.48 71.25,-79.77"/>
<polygon fill="none" stroke="#8b1a1a" points="67.75,-104.73 71.25,-114.73 74.75,-104.73 67.75,-104.73"/>
</a>
</g>
</g>
</g>
</svg>
