<?xml version="1.0" encoding="UTF-8" standalone="no"?>
<!DOCTYPE svg PUBLIC "-//W3C//DTD SVG 1.1//EN"
 "http://www.w3.org/Graphics/SVG/1.1/DTD/svg11.dtd">
<!-- Generated by graphviz version 12.2.1 (20241206.2353)
 -->
<!-- Title: ComDriver.hpp Pages: 1 -->
<svg width="1821pt" height="264pt"
 viewBox="0.00 0.00 1820.62 264.00" xmlns="http://www.w3.org/2000/svg" xmlns:xlink="http://www.w3.org/1999/xlink">
<g id="graph0" class="graph" transform="scale(1 1) rotate(0) translate(4 260)">
<title>ComDriver.hpp</title>
<!-- Node1 -->
<g id="Node000001" class="node">
<title>Node1</title>
<g id="a_Node000001"><a xlink:title="Defines the ComDriver class for handling communication with the XBee module.">
<polygon fill="#999999" stroke="#666666" points="808.62,-256 726.62,-256 726.62,-236 808.62,-236 808.62,-256"/>
<text text-anchor="middle" x="767.62" y="-242.5" font-family="Helvetica,sans-Serif" font-size="10.00">ComDriver.hpp</text>
</a>
</g>
</g>
<!-- Node2 -->
<g id="Node000002" class="node">
<title>Node2</title>
<g id="a_Node000002"><a xlink:href="../../de/d76/a00134.html" target="_top" xlink:title="This file contains the definition of the Diagnostic class used for tracking various message statistic...">
<polygon fill="white" stroke="#666666" points="81.25,-200 0,-200 0,-180 81.25,-180 81.25,-200"/>
<text text-anchor="middle" x="40.62" y="-186.5" font-family="Helvetica,sans-Serif" font-size="10.00">Diagnostic.hpp</text>
</a>
</g>
</g>
<!-- Node1&#45;&gt;Node2 -->
<g id="edge1_Node000001_Node000002" class="edge">
<title>Node1&#45;&gt;Node2</title>
<g id="a_edge1_Node000001_Node000002"><a xlink:title=" ">
<path fill="none" stroke="#63b8ff" d="M726.21,-243.6C620.72,-239.74 333.47,-227.36 95.62,-200 94.78,-199.9 93.92,-199.8 93.06,-199.7"/>
<polygon fill="#63b8ff" stroke="#63b8ff" points="93.59,-196.24 83.21,-198.36 92.65,-203.17 93.59,-196.24"/>
</a>
</g>
</g>
<!-- Node3 -->
<g id="Node000003" class="node">
<title>Node3</title>
<g id="a_Node000003"><a xlink:href="../../d2/df5/a00137.html" target="_top" xlink:title="This file contains the definition of the DigiApiFrameBuffer class.">
<polygon fill="white" stroke="#666666" points="221.38,-88 101.88,-88 101.88,-68 221.38,-68 221.38,-88"/>
<text text-anchor="middle" x="161.62" y="-74.5" font-family="Helvetica,sans-Serif" font-size="10.00">DigiApiFrameBuffer.hpp</text>
</a>
</g>
</g>
<!-- Node1&#45;&gt;Node3 -->
<g id="edge2_Node000001_Node000003" class="edge">
<title>Node1&#45;&gt;Node3</title>
<g id="a_edge2_Node000001_Node000003"><a xlink:title=" ">
<path fill="none" stroke="#63b8ff" d="M726.28,-244.97C600.35,-243.89 225.76,-233.11 153.62,-144 143.45,-131.43 147.05,-112.78 152.26,-98.67"/>
<polygon fill="#63b8ff" stroke="#63b8ff" points="155.46,-100.09 156.15,-89.51 149.01,-97.35 155.46,-100.09"/>
</a>
</g>
</g>
<!-- Node6 -->
<g id="Node000006" class="node">
<title>Node6</title>
<g id="a_Node000006"><a xlink:href="../../dc/de6/a00167.html" target="_top" xlink:title="This file contains the definition of the Protocol class used for handling XBee communication.">
<polygon fill="white" stroke="#666666" points="496,-200 425.25,-200 425.25,-180 496,-180 496,-200"/>
<text text-anchor="middle" x="460.62" y="-186.5" font-family="Helvetica,sans-Serif" font-size="10.00">Protocol.hpp</text>
</a>
</g>
</g>
<!-- Node1&#45;&gt;Node6 -->
<g id="edge5_Node000001_Node000006" class="edge">
<title>Node1&#45;&gt;Node6</title>
<g id="a_edge5_Node000001_Node000006"><a xlink:title=" ">
<path fill="none" stroke="#63b8ff" d="M726.22,-237.72C669.18,-227.68 566.72,-209.66 507.11,-199.18"/>
<polygon fill="#63b8ff" stroke="#63b8ff" points="508.09,-195.8 497.63,-197.51 506.88,-202.69 508.09,-195.8"/>
</a>
</g>
</g>
<!-- Node25 -->
<g id="Node000025" class="node">
<title>Node25</title>
<g id="a_Node000025"><a xlink:title=" ">
<polygon fill="#e0e0e0" stroke="#999999" points="1812.62,-88 1754.62,-88 1754.62,-68 1812.62,-68 1812.62,-88"/>
<text text-anchor="middle" x="1783.62" y="-74.5" font-family="Helvetica,sans-Serif" font-size="10.00">functional</text>
</a>
</g>
</g>
<!-- Node1&#45;&gt;Node25 -->
<g id="edge54_Node000001_Node000025" class="edge">
<title>Node1&#45;&gt;Node25</title>
<g id="a_edge54_Node000001_Node000025"><a xlink:title=" ">
<path fill="none" stroke="#63b8ff" d="M809.04,-236C870.97,-222.71 991.48,-197.53 1094.62,-180 1379.05,-131.67 1456.52,-141.9 1743.07,-88.34"/>
<polygon fill="#63b8ff" stroke="#63b8ff" points="1743.56,-91.81 1752.74,-86.53 1742.26,-84.93 1743.56,-91.81"/>
</a>
</g>
</g>
<!-- Node26 -->
<g id="Node000026" class="node">
<title>Node26</title>
<g id="a_Node000026"><a xlink:title=" ">
<polygon fill="#e0e0e0" stroke="#999999" points="1201.5,-200 1103.75,-200 1103.75,-180 1201.5,-180 1201.5,-200"/>
<text text-anchor="middle" x="1152.62" y="-186.5" font-family="Helvetica,sans-Serif" font-size="10.00">Lib/HAL/GPIO.hpp</text>
</a>
</g>
</g>
<!-- Node1&#45;&gt;Node26 -->
<g id="edge52_Node000001_Node000026" class="edge">
<title>Node1&#45;&gt;Node26</title>
<g id="a_edge52_Node000001_Node000026"><a xlink:title=" ">
<path fill="none" stroke="#63b8ff" d="M809.06,-239.25C870.37,-230.73 988.88,-214.24 1089.62,-200 1090.47,-199.88 1091.31,-199.76 1092.17,-199.64"/>
<polygon fill="#63b8ff" stroke="#63b8ff" points="1092.54,-203.12 1101.95,-198.25 1091.56,-196.19 1092.54,-203.12"/>
</a>
</g>
</g>
<!-- Node27 -->
<g id="Node000027" class="node">
<title>Node27</title>
<g id="a_Node000027"><a xlink:title=" ">
<polygon fill="#e0e0e0" stroke="#999999" points="1311.5,-200 1219.75,-200 1219.75,-180 1311.5,-180 1311.5,-200"/>
<text text-anchor="middle" x="1265.62" y="-186.5" font-family="Helvetica,sans-Serif" font-size="10.00">Lib/HAL/Uart.hpp</text>
</a>
</g>
</g>
<!-- Node1&#45;&gt;Node27 -->
<g id="edge53_Node000001_Node000027" class="edge">
<title>Node1&#45;&gt;Node27</title>
<g id="a_edge53_Node000001_Node000027"><a xlink:title=" ">
<path fill="none" stroke="#63b8ff" d="M808.95,-241.65C885.57,-235.25 1055.1,-220.24 1208.43,-200.22"/>
<polygon fill="#63b8ff" stroke="#63b8ff" points="1208.48,-203.74 1217.94,-198.96 1207.57,-196.8 1208.48,-203.74"/>
</a>
</g>
</g>
<!-- Node4 -->
<g id="Node000004" class="node">
<title>Node4</title>
<g id="a_Node000004"><a xlink:title=" ">
<polygon fill="#e0e0e0" stroke="#999999" points="180.5,-26 142.75,-26 142.75,-6 180.5,-6 180.5,-26"/>
<text text-anchor="middle" x="161.62" y="-12.5" font-family="Helvetica,sans-Serif" font-size="10.00">array</text>
</a>
</g>
</g>
<!-- Node3&#45;&gt;Node4 -->
<g id="edge3_Node000003_Node000004" class="edge">
<title>Node3&#45;&gt;Node4</title>
<g id="a_edge3_Node000003_Node000004"><a xlink:title=" ">
<path fill="none" stroke="#63b8ff" d="M161.62,-67.62C161.62,-59.56 161.62,-47.65 161.62,-37.41"/>
<polygon fill="#63b8ff" stroke="#63b8ff" points="165.13,-37.63 161.63,-27.63 158.13,-37.63 165.13,-37.63"/>
</a>
</g>
</g>
<!-- Node5 -->
<g id="Node000005" class="node">
<title>Node5</title>
<g id="a_Node000005"><a xlink:title=" ">
<polygon fill="#e0e0e0" stroke="#999999" points="766.12,-26 723.12,-26 723.12,-6 766.12,-6 766.12,-26"/>
<text text-anchor="middle" x="744.62" y="-12.5" font-family="Helvetica,sans-Serif" font-size="10.00">vector</text>
</a>
</g>
</g>
<!-- Node3&#45;&gt;Node5 -->
<g id="edge4_Node000003_Node000005" class="edge">
<title>Node3&#45;&gt;Node5</title>
<g id="a_edge4_Node000003_Node000005"><a xlink:title=" ">
<path fill="none" stroke="#63b8ff" d="M221.79,-69.68C226.81,-69.1 231.8,-68.53 236.62,-68 415.54,-48.29 630.27,-27.76 711.41,-20.11"/>
<polygon fill="#63b8ff" stroke="#63b8ff" points="711.69,-23.6 721.32,-19.18 711.03,-16.63 711.69,-23.6"/>
</a>
</g>
</g>
<!-- Node6&#45;&gt;Node3 -->
<g id="edge10_Node000006_Node000003" class="edge">
<title>Node6&#45;&gt;Node3</title>
<g id="a_edge10_Node000006_Node000003"><a xlink:title=" ">
<path fill="none" stroke="#63b8ff" d="M424.88,-188.85C354.31,-187.73 200.95,-181.01 166.62,-144 155.79,-132.32 155.36,-113.83 157.17,-99.55"/>
<polygon fill="#63b8ff" stroke="#63b8ff" points="160.59,-100.31 158.86,-89.86 153.69,-99.11 160.59,-100.31"/>
</a>
</g>
</g>
<!-- Node6&#45;&gt;Node5 -->
<g id="edge51_Node000006_Node000005" class="edge">
<title>Node6&#45;&gt;Node5</title>
<g id="a_edge51_Node000006_Node000005"><a xlink:title=" ">
<path fill="none" stroke="#63b8ff" d="M477.61,-179.65C489.83,-171.88 505.38,-159.59 512.62,-144 526.87,-113.37 492.3,-94.2 513.62,-68 538.26,-37.75 653.55,-24.31 711.38,-19.39"/>
<polygon fill="#63b8ff" stroke="#63b8ff" points="711.6,-22.88 721.28,-18.59 711.03,-15.91 711.6,-22.88"/>
</a>
</g>
</g>
<!-- Node7 -->
<g id="Node000007" class="node">
<title>Node7</title>
<g id="a_Node000007"><a xlink:href="../../df/dc8/a00122.html" target="_top" xlink:title="Defines the ApiMode enumeration for Xbee communication modes.">
<polygon fill="white" stroke="#666666" points="1047.25,-144 972,-144 972,-124 1047.25,-124 1047.25,-144"/>
<text text-anchor="middle" x="1009.62" y="-130.5" font-family="Helvetica,sans-Serif" font-size="10.00">APIMode.hpp</text>
</a>
</g>
</g>
<!-- Node6&#45;&gt;Node7 -->
<g id="edge6_Node000006_Node000007" class="edge">
<title>Node6&#45;&gt;Node7</title>
<g id="a_edge6_Node000006_Node000007"><a xlink:title=" ">
<path fill="none" stroke="#63b8ff" d="M496.37,-187.02C577.15,-182.3 780.11,-168.95 960.42,-144.17"/>
<polygon fill="#63b8ff" stroke="#63b8ff" points="960.79,-147.65 970.22,-142.8 959.83,-140.72 960.79,-147.65"/>
</a>
</g>
</g>
<!-- Node8 -->
<g id="Node000008" class="node">
<title>Node8</title>
<g id="a_Node000008"><a xlink:href="../../d1/d88/a00128.html" target="_top" xlink:title="Defines the Checksum class used for calculating the checksum of Digi API frames.">
<polygon fill="white" stroke="#666666" points="257.62,-144 175.62,-144 175.62,-124 257.62,-124 257.62,-144"/>
<text text-anchor="middle" x="216.62" y="-130.5" font-family="Helvetica,sans-Serif" font-size="10.00">Checksum.hpp</text>
</a>
</g>
</g>
<!-- Node6&#45;&gt;Node8 -->
<g id="edge7_Node000006_Node000008" class="edge">
<title>Node6&#45;&gt;Node8</title>
<g id="a_edge7_Node000006_Node000008"><a xlink:title=" ">
<path fill="none" stroke="#63b8ff" d="M424.88,-181.09C383.8,-172 315.98,-156.99 268.95,-146.58"/>
<polygon fill="#63b8ff" stroke="#63b8ff" points="269.76,-143.18 259.24,-144.43 268.25,-150.01 269.76,-143.18"/>
</a>
</g>
</g>
<!-- Node9 -->
<g id="Node000009" class="node">
<title>Node9</title>
<g id="a_Node000009"><a xlink:href="../../d9/db6/a00146.html" target="_top" xlink:title="Defines the Header structure for Xbee frames.">
<polygon fill="white" stroke="#666666" points="343.12,-88 246.12,-88 246.12,-68 343.12,-68 343.12,-88"/>
<text text-anchor="middle" x="294.62" y="-74.5" font-family="Helvetica,sans-Serif" font-size="10.00">Frame/Header.hpp</text>
</a>
</g>
</g>
<!-- Node6&#45;&gt;Node9 -->
<g id="edge16_Node000006_Node000009" class="edge">
<title>Node6&#45;&gt;Node9</title>
<g id="a_edge16_Node000006_Node000009"><a xlink:title=" ">
<path fill="none" stroke="#63b8ff" d="M448.35,-179.59C431.26,-166.61 399.16,-142.7 370.62,-124 354.63,-113.52 336.18,-102.57 321.46,-94.09"/>
<polygon fill="#63b8ff" stroke="#63b8ff" points="323.23,-91.07 312.81,-89.15 319.76,-97.15 323.23,-91.07"/>
</a>
</g>
</g>
<!-- Node10 -->
<g id="Node000010" class="node">
<title>Node10</title>
<g id="a_Node000010"><a xlink:href="../../d7/dce/a00143.html" target="_top" xlink:title="This file contains the definition of the Data class used in the Lib::Xbee::Core::Frame namespace.">
<polygon fill="white" stroke="#666666" points="503.88,-144 417.38,-144 417.38,-124 503.88,-124 503.88,-144"/>
<text text-anchor="middle" x="460.62" y="-130.5" font-family="Helvetica,sans-Serif" font-size="10.00">Frame/Data.hpp</text>
</a>
</g>
</g>
<!-- Node6&#45;&gt;Node10 -->
<g id="edge11_Node000006_Node000010" class="edge">
<title>Node6&#45;&gt;Node10</title>
<g id="a_edge11_Node000006_Node000010"><a xlink:title=" ">
<path fill="none" stroke="#63b8ff" d="M460.62,-179.59C460.62,-173.01 460.62,-163.96 460.62,-155.73"/>
<polygon fill="#63b8ff" stroke="#63b8ff" points="464.13,-155.81 460.63,-145.81 457.13,-155.81 464.13,-155.81"/>
</a>
</g>
</g>
<!-- Node13 -->
<g id="Node000013" class="node">
<title>Node13</title>
<g id="a_Node000013"><a xlink:href="../../d7/d9a/a00152.html" target="_top" xlink:title="DIGI API Frame Type.">
<polygon fill="white" stroke="#666666" points="361.88,-144 275.38,-144 275.38,-124 361.88,-124 361.88,-144"/>
<text text-anchor="middle" x="318.62" y="-130.5" font-family="Helvetica,sans-Serif" font-size="10.00">Frame/Type.hpp</text>
</a>
</g>
</g>
<!-- Node6&#45;&gt;Node13 -->
<g id="edge17_Node000006_Node000013" class="edge">
<title>Node6&#45;&gt;Node13</title>
<g id="a_edge17_Node000006_Node000013"><a xlink:title=" ">
<path fill="none" stroke="#63b8ff" d="M435.89,-179.59C413.33,-171.01 379.72,-158.23 354.26,-148.55"/>
<polygon fill="#63b8ff" stroke="#63b8ff" points="355.56,-145.3 344.97,-145.02 353.07,-151.84 355.56,-145.3"/>
</a>
</g>
</g>
<!-- Node14 -->
<g id="Node000014" class="node">
<title>Node14</title>
<g id="a_Node000014"><a xlink:href="../../dc/d57/a00194.html" target="_top" xlink:title="Defines the ResponseEvents class for handling various XBee response events.">
<polygon fill="white" stroke="#666666" points="953.5,-144 843.75,-144 843.75,-124 953.5,-124 953.5,-144"/>
<text text-anchor="middle" x="898.62" y="-130.5" font-family="Helvetica,sans-Serif" font-size="10.00">ResponseEvents.hpp</text>
</a>
</g>
</g>
<!-- Node6&#45;&gt;Node14 -->
<g id="edge18_Node000006_Node000014" class="edge">
<title>Node6&#45;&gt;Node14</title>
<g id="a_edge18_Node000006_Node000014"><a xlink:title=" ">
<path fill="none" stroke="#63b8ff" d="M496.47,-184.58C569.82,-175.54 738.05,-154.8 832.02,-143.21"/>
<polygon fill="#63b8ff" stroke="#63b8ff" points="832.38,-146.69 841.88,-142 831.53,-139.75 832.38,-146.69"/>
</a>
</g>
</g>
<!-- Node8&#45;&gt;Node3 -->
<g id="edge8_Node000008_Node000003" class="edge">
<title>Node8&#45;&gt;Node3</title>
<g id="a_edge8_Node000008_Node000003"><a xlink:title=" ">
<path fill="none" stroke="#63b8ff" d="M207.04,-123.59C199.39,-116.08 188.47,-105.35 179.25,-96.3"/>
<polygon fill="#63b8ff" stroke="#63b8ff" points="181.76,-93.87 172.18,-89.36 176.86,-98.86 181.76,-93.87"/>
</a>
</g>
</g>
<!-- Node8&#45;&gt;Node9 -->
<g id="edge9_Node000008_Node000009" class="edge">
<title>Node8&#45;&gt;Node9</title>
<g id="a_edge9_Node000008_Node000009"><a xlink:title=" ">
<path fill="none" stroke="#63b8ff" d="M230.21,-123.59C241.66,-115.67 258.29,-104.16 271.78,-94.82"/>
<polygon fill="#63b8ff" stroke="#63b8ff" points="273.46,-97.91 279.69,-89.34 269.47,-92.16 273.46,-97.91"/>
</a>
</g>
</g>
<!-- Node10&#45;&gt;Node5 -->
<g id="edge15_Node000010_Node000005" class="edge">
<title>Node10&#45;&gt;Node5</title>
<g id="a_edge15_Node000010_Node000005"><a xlink:title=" ">
<path fill="none" stroke="#63b8ff" d="M460.64,-123.91C461.2,-109.74 464.46,-82.51 480.62,-68 514.32,-37.75 648.55,-24.06 711.6,-19.2"/>
<polygon fill="#63b8ff" stroke="#63b8ff" points="711.63,-22.71 721.34,-18.48 711.11,-15.73 711.63,-22.71"/>
</a>
</g>
</g>
<!-- Node11 -->
<g id="Node000011" class="node">
<title>Node11</title>
<g id="a_Node000011"><a xlink:href="../../da/d1e/a00149.html" target="_top" xlink:title="Helper functions for byte swapping, conversion, and vector manipulation.">
<polygon fill="white" stroke="#666666" points="428.25,-88 365,-88 365,-68 428.25,-68 428.25,-88"/>
<text text-anchor="middle" x="396.62" y="-74.5" font-family="Helvetica,sans-Serif" font-size="10.00">Helper.hpp</text>
</a>
</g>
</g>
<!-- Node10&#45;&gt;Node11 -->
<g id="edge12_Node000010_Node000011" class="edge">
<title>Node10&#45;&gt;Node11</title>
<g id="a_edge12_Node000010_Node000011"><a xlink:title=" ">
<path fill="none" stroke="#63b8ff" d="M449.48,-123.59C440.3,-115.85 427.07,-104.69 416.14,-95.47"/>
<polygon fill="#63b8ff" stroke="#63b8ff" points="418.7,-93.05 408.8,-89.27 414.19,-98.4 418.7,-93.05"/>
</a>
</g>
</g>
<!-- Node11&#45;&gt;Node5 -->
<g id="edge14_Node000011_Node000005" class="edge">
<title>Node11&#45;&gt;Node5</title>
<g id="a_edge14_Node000011_Node000005"><a xlink:title=" ">
<path fill="none" stroke="#63b8ff" d="M428.28,-70.7C433.08,-69.77 437.98,-68.85 442.62,-68 540.34,-50.19 656.24,-31.22 711.77,-22.26"/>
<polygon fill="#63b8ff" stroke="#63b8ff" points="712.17,-25.74 721.49,-20.7 711.06,-18.83 712.17,-25.74"/>
</a>
</g>
</g>
<!-- Node12 -->
<g id="Node000012" class="node">
<title>Node12</title>
<g id="a_Node000012"><a xlink:title=" ">
<polygon fill="#e0e0e0" stroke="#999999" points="454.88,-26 338.38,-26 338.38,-6 454.88,-6 454.88,-26"/>
<text text-anchor="middle" x="396.62" y="-12.5" font-family="Helvetica,sans-Serif" font-size="10.00">Helper/SwapBytes.hpp</text>
</a>
</g>
</g>
<!-- Node11&#45;&gt;Node12 -->
<g id="edge13_Node000011_Node000012" class="edge">
<title>Node11&#45;&gt;Node12</title>
<g id="a_edge13_Node000011_Node000012"><a xlink:title=" ">
<path fill="none" stroke="#63b8ff" d="M396.62,-67.62C396.62,-59.56 396.62,-47.65 396.62,-37.41"/>
<polygon fill="#63b8ff" stroke="#63b8ff" points="400.13,-37.63 396.63,-27.63 393.13,-37.63 400.13,-37.63"/>
</a>
</g>
</g>
<!-- Node15 -->
<g id="Node000015" class="node">
<title>Node15</title>
<g id="a_Node000015"><a xlink:href="../../de/db1/a00197.html" target="_top" xlink:title="Defines the Frame0x80 class for handling 64&#45;bit Receive Packet frames (ID 0x80) from XBee devices.">
<polygon fill="white" stroke="#666666" points="1582.62,-88 1446.62,-88 1446.62,-68 1582.62,-68 1582.62,-88"/>
<text text-anchor="middle" x="1514.62" y="-74.5" font-family="Helvetica,sans-Serif" font-size="10.00">Responses/Frame0x80.hpp</text>
</a>
</g>
</g>
<!-- Node14&#45;&gt;Node15 -->
<g id="edge19_Node000014_Node000015" class="edge">
<title>Node14&#45;&gt;Node15</title>
<g id="a_edge19_Node000014_Node000015"><a xlink:title=" ">
<path fill="none" stroke="#63b8ff" d="M953.76,-125.02C956.75,-124.66 959.72,-124.31 962.62,-124 1169.42,-101.65 1224.94,-108.06 1434.79,-88.23"/>
<polygon fill="#63b8ff" stroke="#63b8ff" points="1435.08,-91.72 1444.7,-87.29 1434.41,-84.75 1435.08,-91.72"/>
</a>
</g>
</g>
<!-- Node18 -->
<g id="Node000018" class="node">
<title>Node18</title>
<g id="a_Node000018"><a xlink:href="../../d3/db1/a00200.html" target="_top" xlink:title="Defines the Frame0x81 class for handling specific frame data in the Xbee communication protocol.">
<polygon fill="white" stroke="#666666" points="658.62,-88 522.62,-88 522.62,-68 658.62,-68 658.62,-88"/>
<text text-anchor="middle" x="590.62" y="-74.5" font-family="Helvetica,sans-Serif" font-size="10.00">Responses/Frame0x81.hpp</text>
</a>
</g>
</g>
<!-- Node14&#45;&gt;Node18 -->
<g id="edge23_Node000014_Node000018" class="edge">
<title>Node14&#45;&gt;Node18</title>
<g id="a_edge23_Node000014_Node000018"><a xlink:title=" ">
<path fill="none" stroke="#63b8ff" d="M844.62,-123.53C792,-114.31 711.95,-100.27 655.81,-90.43"/>
<polygon fill="#63b8ff" stroke="#63b8ff" points="656.51,-87 646.06,-88.72 655.3,-93.89 656.51,-87"/>
</a>
</g>
</g>
<!-- Node19 -->
<g id="Node000019" class="node">
<title>Node19</title>
<g id="a_Node000019"><a xlink:href="../../de/d79/a00203.html" target="_top" xlink:title="Defines the Frame0x88 class for handling Frame&#45;0x88 responses from the device.">
<polygon fill="white" stroke="#666666" points="812.62,-88 676.62,-88 676.62,-68 812.62,-68 812.62,-88"/>
<text text-anchor="middle" x="744.62" y="-74.5" font-family="Helvetica,sans-Serif" font-size="10.00">Responses/Frame0x88.hpp</text>
</a>
</g>
</g>
<!-- Node14&#45;&gt;Node19 -->
<g id="edge27_Node000014_Node000019" class="edge">
<title>Node14&#45;&gt;Node19</title>
<g id="a_edge27_Node000014_Node000019"><a xlink:title=" ">
<path fill="none" stroke="#63b8ff" d="M871.8,-123.59C847,-114.9 809.9,-101.89 782.16,-92.16"/>
<polygon fill="#63b8ff" stroke="#63b8ff" points="783.68,-88.99 773.09,-88.98 781.37,-95.59 783.68,-88.99"/>
</a>
</g>
</g>
<!-- Node20 -->
<g id="Node000020" class="node">
<title>Node20</title>
<g id="a_Node000020"><a xlink:href="../../d5/df1/a00206.html" target="_top" xlink:title="Header file for the Frame0x89 class.">
<polygon fill="white" stroke="#666666" points="966.62,-88 830.62,-88 830.62,-68 966.62,-68 966.62,-88"/>
<text text-anchor="middle" x="898.62" y="-74.5" font-family="Helvetica,sans-Serif" font-size="10.00">Responses/Frame0x89.hpp</text>
</a>
</g>
</g>
<!-- Node14&#45;&gt;Node20 -->
<g id="edge31_Node000014_Node000020" class="edge">
<title>Node14&#45;&gt;Node20</title>
<g id="a_edge31_Node000014_Node000020"><a xlink:title=" ">
<path fill="none" stroke="#63b8ff" d="M898.62,-123.59C898.62,-117.01 898.62,-107.96 898.62,-99.73"/>
<polygon fill="#63b8ff" stroke="#63b8ff" points="902.13,-99.81 898.63,-89.81 895.13,-99.81 902.13,-99.81"/>
</a>
</g>
</g>
<!-- Node21 -->
<g id="Node000021" class="node">
<title>Node21</title>
<g id="a_Node000021"><a xlink:href="../../d3/de5/a00209.html" target="_top" xlink:title="Defines the Frame0x8a class which represents the Modem Status frame (0x8A) in the XBee API.">
<polygon fill="white" stroke="#666666" points="1736.62,-88 1600.62,-88 1600.62,-68 1736.62,-68 1736.62,-88"/>
<text text-anchor="middle" x="1668.62" y="-74.5" font-family="Helvetica,sans-Serif" font-size="10.00">Responses/Frame0x8a.hpp</text>
</a>
</g>
</g>
<!-- Node14&#45;&gt;Node21 -->
<g id="edge35_Node000014_Node000021" class="edge">
<title>Node14&#45;&gt;Node21</title>
<g id="a_edge35_Node000014_Node000021"><a xlink:title=" ">
<path fill="none" stroke="#63b8ff" d="M953.75,-124.95C956.75,-124.61 959.72,-124.29 962.62,-124 1237.61,-96.84 1310.75,-111.86 1588.95,-88.18"/>
<polygon fill="#63b8ff" stroke="#63b8ff" points="1589.04,-91.68 1598.7,-87.34 1588.44,-84.71 1589.04,-91.68"/>
</a>
</g>
</g>
<!-- Node22 -->
<g id="Node000022" class="node">
<title>Node22</title>
<g id="a_Node000022"><a xlink:href="../../dd/dc1/a00212.html" target="_top" xlink:title="Defines the Frame0x8b class for handling the Extended Transmit Status frame (0x8B) in the XBee librar...">
<polygon fill="white" stroke="#666666" points="1120.62,-88 984.62,-88 984.62,-68 1120.62,-68 1120.62,-88"/>
<text text-anchor="middle" x="1052.62" y="-74.5" font-family="Helvetica,sans-Serif" font-size="10.00">Responses/Frame0x8b.hpp</text>
</a>
</g>
</g>
<!-- Node14&#45;&gt;Node22 -->
<g id="edge38_Node000014_Node000022" class="edge">
<title>Node14&#45;&gt;Node22</title>
<g id="a_edge38_Node000014_Node000022"><a xlink:title=" ">
<path fill="none" stroke="#63b8ff" d="M925.45,-123.59C950.25,-114.9 987.35,-101.89 1015.09,-92.16"/>
<polygon fill="#63b8ff" stroke="#63b8ff" points="1015.88,-95.59 1024.16,-88.98 1013.57,-88.99 1015.88,-95.59"/>
</a>
</g>
</g>
<!-- Node23 -->
<g id="Node000023" class="node">
<title>Node23</title>
<g id="a_Node000023"><a xlink:href="../../d3/dd5/a00215.html" target="_top" xlink:title="Frame 0x90: 64&#45;bit Receive Packet.">
<polygon fill="white" stroke="#666666" points="1274.62,-88 1138.62,-88 1138.62,-68 1274.62,-68 1274.62,-88"/>
<text text-anchor="middle" x="1206.62" y="-74.5" font-family="Helvetica,sans-Serif" font-size="10.00">Responses/Frame0x90.hpp</text>
</a>
</g>
</g>
<!-- Node14&#45;&gt;Node23 -->
<g id="edge42_Node000014_Node000023" class="edge">
<title>Node14&#45;&gt;Node23</title>
<g id="a_edge42_Node000014_Node000023"><a xlink:title=" ">
<path fill="none" stroke="#63b8ff" d="M952.63,-123.53C1005.25,-114.31 1085.3,-100.27 1141.44,-90.43"/>
<polygon fill="#63b8ff" stroke="#63b8ff" points="1141.95,-93.89 1151.19,-88.72 1140.74,-87 1141.95,-93.89"/>
</a>
</g>
</g>
<!-- Node24 -->
<g id="Node000024" class="node">
<title>Node24</title>
<g id="a_Node000024"><a xlink:href="../../dc/d9a/a00218.html" target="_top" xlink:title="Defines the Frame0x97 class for handling XBee response frames with ID 0x97.">
<polygon fill="white" stroke="#666666" points="1428.62,-88 1292.62,-88 1292.62,-68 1428.62,-68 1428.62,-88"/>
<text text-anchor="middle" x="1360.62" y="-74.5" font-family="Helvetica,sans-Serif" font-size="10.00">Responses/Frame0x97.hpp</text>
</a>
</g>
</g>
<!-- Node14&#45;&gt;Node24 -->
<g id="edge46_Node000014_Node000024" class="edge">
<title>Node14&#45;&gt;Node24</title>
<g id="a_edge46_Node000014_Node000024"><a xlink:title=" ">
<path fill="none" stroke="#63b8ff" d="M953.77,-125.15C956.76,-124.75 959.73,-124.37 962.62,-124 1101.44,-106.46 1139.1,-104.43 1280.9,-88.3"/>
<polygon fill="#63b8ff" stroke="#63b8ff" points="1281.15,-91.8 1290.69,-87.19 1280.36,-84.84 1281.15,-91.8"/>
</a>
</g>
</g>
<!-- Node14&#45;&gt;Node25 -->
<g id="edge50_Node000014_Node000025" class="edge">
<title>Node14&#45;&gt;Node25</title>
<g id="a_edge50_Node000014_Node000025"><a xlink:title=" ">
<path fill="none" stroke="#63b8ff" d="M953.74,-124.91C956.75,-124.58 959.72,-124.27 962.62,-124 1305.77,-92.06 1398.64,-135.4 1742.96,-88.1"/>
<polygon fill="#63b8ff" stroke="#63b8ff" points="1743.35,-91.58 1752.77,-86.73 1742.38,-84.64 1743.35,-91.58"/>
</a>
</g>
</g>
<!-- Node15&#45;&gt;Node5 -->
<g id="edge22_Node000015_Node000005" class="edge">
<title>Node15&#45;&gt;Node5</title>
<g id="a_edge22_Node000015_Node000005"><a xlink:title=" ">
<path fill="none" stroke="#63b8ff" d="M1446.21,-68.85C1443.31,-68.55 1440.44,-68.27 1437.62,-68 1184.28,-43.88 877.9,-24.88 777.92,-18.94"/>
<polygon fill="#63b8ff" stroke="#63b8ff" points="778.2,-15.45 768.01,-18.36 777.79,-22.44 778.2,-15.45"/>
</a>
</g>
</g>
<!-- Node16 -->
<g id="Node000016" class="node">
<title>Node16</title>
<g id="a_Node000016"><a xlink:title=" ">
<polygon fill="#e0e0e0" stroke="#999999" points="1114.12,-32 1005.12,-32 1005.12,0 1114.12,0 1114.12,-32"/>
<text text-anchor="start" x="1013.12" y="-18.5" font-family="Helvetica,sans-Serif" font-size="10.00">Lib/Xbee/Core/Frame</text>
<text text-anchor="middle" x="1059.62" y="-6.5" font-family="Helvetica,sans-Serif" font-size="10.00">/Data.hpp</text>
</a>
</g>
</g>
<!-- Node15&#45;&gt;Node16 -->
<g id="edge20_Node000015_Node000016" class="edge">
<title>Node15&#45;&gt;Node16</title>
<g id="a_edge20_Node000015_Node000016"><a xlink:title=" ">
<path fill="none" stroke="#63b8ff" d="M1446.16,-68.98C1341.37,-56.69 1151.68,-34.36 1136.62,-32 1132.99,-31.43 1129.27,-30.81 1125.52,-30.17"/>
<polygon fill="#63b8ff" stroke="#63b8ff" points="1126.17,-26.73 1115.71,-28.42 1124.94,-33.62 1126.17,-26.73"/>
</a>
</g>
</g>
<!-- Node17 -->
<g id="Node000017" class="node">
<title>Node17</title>
<g id="a_Node000017"><a xlink:title=" ">
<polygon fill="#e0e0e0" stroke="#999999" points="1254.12,-32 1145.12,-32 1145.12,0 1254.12,0 1254.12,-32"/>
<text text-anchor="start" x="1153.12" y="-18.5" font-family="Helvetica,sans-Serif" font-size="10.00">Lib/Xbee/Core/Frame</text>
<text text-anchor="middle" x="1199.62" y="-6.5" font-family="Helvetica,sans-Serif" font-size="10.00">/Helper.hpp</text>
</a>
</g>
</g>
<!-- Node15&#45;&gt;Node17 -->
<g id="edge21_Node000015_Node000017" class="edge">
<title>Node15&#45;&gt;Node17</title>
<g id="a_edge21_Node000015_Node000017"><a xlink:title=" ">
<path fill="none" stroke="#63b8ff" d="M1465.06,-67.56C1411.26,-57.31 1325.1,-40.9 1265.61,-29.57"/>
<polygon fill="#63b8ff" stroke="#63b8ff" points="1266.42,-26.16 1255.94,-27.73 1265.11,-33.04 1266.42,-26.16"/>
</a>
</g>
</g>
<!-- Node18&#45;&gt;Node5 -->
<g id="edge26_Node000018_Node000005" class="edge">
<title>Node18&#45;&gt;Node5</title>
<g id="a_edge26_Node000018_Node000005"><a xlink:title=" ">
<path fill="none" stroke="#63b8ff" d="M614.69,-67.62C640.94,-57.4 683.11,-40.97 712.25,-29.61"/>
<polygon fill="#63b8ff" stroke="#63b8ff" points="713.27,-32.97 721.31,-26.08 710.73,-26.45 713.27,-32.97"/>
</a>
</g>
</g>
<!-- Node18&#45;&gt;Node16 -->
<g id="edge24_Node000018_Node000016" class="edge">
<title>Node18&#45;&gt;Node16</title>
<g id="a_edge24_Node000018_Node000016"><a xlink:title=" ">
<path fill="none" stroke="#63b8ff" d="M659.07,-68.24C748.83,-56.76 905.24,-36.75 993.72,-25.43"/>
<polygon fill="#63b8ff" stroke="#63b8ff" points="993.97,-28.93 1003.45,-24.19 993.08,-21.98 993.97,-28.93"/>
</a>
</g>
</g>
<!-- Node18&#45;&gt;Node17 -->
<g id="edge25_Node000018_Node000017" class="edge">
<title>Node18&#45;&gt;Node17</title>
<g id="a_edge25_Node000018_Node000017"><a xlink:title=" ">
<path fill="none" stroke="#63b8ff" d="M659.04,-68.87C661.94,-68.57 664.81,-68.28 667.62,-68 869.96,-48.2 922.23,-59.73 1123.62,-32 1126.98,-31.54 1130.41,-31.02 1133.87,-30.47"/>
<polygon fill="#63b8ff" stroke="#63b8ff" points="1134.19,-33.96 1143.46,-28.83 1133.02,-27.06 1134.19,-33.96"/>
</a>
</g>
</g>
<!-- Node19&#45;&gt;Node5 -->
<g id="edge30_Node000019_Node000005" class="edge">
<title>Node19&#45;&gt;Node5</title>
<g id="a_edge30_Node000019_Node000005"><a xlink:title=" ">
<path fill="none" stroke="#63b8ff" d="M744.62,-67.62C744.62,-59.56 744.62,-47.65 744.62,-37.41"/>
<polygon fill="#63b8ff" stroke="#63b8ff" points="748.13,-37.63 744.63,-27.63 741.13,-37.63 748.13,-37.63"/>
</a>
</g>
</g>
<!-- Node19&#45;&gt;Node16 -->
<g id="edge28_Node000019_Node000016" class="edge">
<title>Node19&#45;&gt;Node16</title>
<g id="a_edge28_Node000019_Node000016"><a xlink:title=" ">
<path fill="none" stroke="#63b8ff" d="M794.19,-67.56C847.99,-57.31 934.15,-40.9 993.64,-29.57"/>
<polygon fill="#63b8ff" stroke="#63b8ff" points="994.14,-33.04 1003.31,-27.73 992.83,-26.16 994.14,-33.04"/>
</a>
</g>
</g>
<!-- Node19&#45;&gt;Node17 -->
<g id="edge29_Node000019_Node000017" class="edge">
<title>Node19&#45;&gt;Node17</title>
<g id="a_edge29_Node000019_Node000017"><a xlink:title=" ">
<path fill="none" stroke="#63b8ff" d="M812.86,-68.96C919.92,-56.35 1116.03,-33.2 1123.62,-32 1126.97,-31.47 1130.39,-30.9 1133.85,-30.31"/>
<polygon fill="#63b8ff" stroke="#63b8ff" points="1134.2,-33.8 1143.43,-28.59 1132.97,-26.91 1134.2,-33.8"/>
</a>
</g>
</g>
<!-- Node20&#45;&gt;Node5 -->
<g id="edge34_Node000020_Node000005" class="edge">
<title>Node20&#45;&gt;Node5</title>
<g id="a_edge34_Node000020_Node000005"><a xlink:title=" ">
<path fill="none" stroke="#63b8ff" d="M874.56,-67.62C848.31,-57.4 806.14,-40.97 777,-29.61"/>
<polygon fill="#63b8ff" stroke="#63b8ff" points="778.52,-26.45 767.94,-26.08 775.98,-32.97 778.52,-26.45"/>
</a>
</g>
</g>
<!-- Node20&#45;&gt;Node16 -->
<g id="edge32_Node000020_Node000016" class="edge">
<title>Node20&#45;&gt;Node16</title>
<g id="a_edge32_Node000020_Node000016"><a xlink:title=" ">
<path fill="none" stroke="#63b8ff" d="M923.78,-67.62C946.13,-59.3 979.51,-46.86 1007.59,-36.39"/>
<polygon fill="#63b8ff" stroke="#63b8ff" points="1008.49,-39.79 1016.64,-33.02 1006.05,-33.23 1008.49,-39.79"/>
</a>
</g>
</g>
<!-- Node20&#45;&gt;Node17 -->
<g id="edge33_Node000020_Node000017" class="edge">
<title>Node20&#45;&gt;Node17</title>
<g id="a_edge33_Node000020_Node000017"><a xlink:title=" ">
<path fill="none" stroke="#63b8ff" d="M945.99,-67.56C996.51,-57.49 1076.91,-41.46 1133.62,-30.16"/>
<polygon fill="#63b8ff" stroke="#63b8ff" points="1134.02,-33.65 1143.15,-28.26 1132.66,-26.78 1134.02,-33.65"/>
</a>
</g>
</g>
<!-- Node21&#45;&gt;Node16 -->
<g id="edge36_Node000021_Node000016" class="edge">
<title>Node21&#45;&gt;Node16</title>
<g id="a_edge36_Node000021_Node000016"><a xlink:title=" ">
<path fill="none" stroke="#63b8ff" d="M1600.21,-68.87C1597.31,-68.57 1594.44,-68.28 1591.62,-68 1389.74,-48.22 1337.61,-59.44 1136.62,-32 1133.05,-31.51 1129.39,-30.96 1125.7,-30.37"/>
<polygon fill="#63b8ff" stroke="#63b8ff" points="1126.54,-26.97 1116.09,-28.75 1125.37,-33.87 1126.54,-26.97"/>
</a>
</g>
</g>
<!-- Node21&#45;&gt;Node17 -->
<g id="edge37_Node000021_Node000017" class="edge">
<title>Node21&#45;&gt;Node17</title>
<g id="a_edge37_Node000021_Node000017"><a xlink:title=" ">
<path fill="none" stroke="#63b8ff" d="M1600.18,-68.24C1510.42,-56.76 1354.01,-36.75 1265.53,-25.43"/>
<polygon fill="#63b8ff" stroke="#63b8ff" points="1266.17,-21.98 1255.8,-24.19 1265.28,-28.93 1266.17,-21.98"/>
</a>
</g>
</g>
<!-- Node22&#45;&gt;Node5 -->
<g id="edge41_Node000022_Node000005" class="edge">
<title>Node22&#45;&gt;Node5</title>
<g id="a_edge41_Node000022_Node000005"><a xlink:title=" ">
<path fill="none" stroke="#63b8ff" d="M1004.16,-67.56C940.87,-55.23 831.76,-33.97 777.4,-23.38"/>
<polygon fill="#63b8ff" stroke="#63b8ff" points="778.32,-20 767.84,-21.52 776.98,-26.87 778.32,-20"/>
</a>
</g>
</g>
<!-- Node22&#45;&gt;Node16 -->
<g id="edge39_Node000022_Node000016" class="edge">
<title>Node22&#45;&gt;Node16</title>
<g id="a_edge39_Node000022_Node000016"><a xlink:title=" ">
<path fill="none" stroke="#63b8ff" d="M1053.72,-67.62C1054.48,-61.1 1055.54,-52.05 1056.54,-43.4"/>
<polygon fill="#63b8ff" stroke="#63b8ff" points="1060,-43.98 1057.68,-33.64 1053.05,-43.17 1060,-43.98"/>
</a>
</g>
</g>
<!-- Node22&#45;&gt;Node17 -->
<g id="edge40_Node000022_Node000017" class="edge">
<title>Node22&#45;&gt;Node17</title>
<g id="a_edge40_Node000022_Node000017"><a xlink:title=" ">
<path fill="none" stroke="#63b8ff" d="M1075.59,-67.62C1095.73,-59.41 1125.68,-47.18 1151.1,-36.81"/>
<polygon fill="#63b8ff" stroke="#63b8ff" points="1152.34,-40.08 1160.27,-33.06 1149.69,-33.6 1152.34,-40.08"/>
</a>
</g>
</g>
<!-- Node23&#45;&gt;Node5 -->
<g id="edge45_Node000023_Node000005" class="edge">
<title>Node23&#45;&gt;Node5</title>
<g id="a_edge45_Node000023_Node000005"><a xlink:title=" ">
<path fill="none" stroke="#63b8ff" d="M1138.46,-68.15C1037.67,-55.06 852.76,-31.04 777.65,-21.29"/>
<polygon fill="#63b8ff" stroke="#63b8ff" points="778.43,-17.86 768.06,-20.04 777.53,-24.8 778.43,-17.86"/>
</a>
</g>
</g>
<!-- Node23&#45;&gt;Node16 -->
<g id="edge43_Node000023_Node000016" class="edge">
<title>Node23&#45;&gt;Node16</title>
<g id="a_edge43_Node000023_Node000016"><a xlink:title=" ">
<path fill="none" stroke="#63b8ff" d="M1183.66,-67.62C1163.52,-59.41 1133.57,-47.18 1108.15,-36.81"/>
<polygon fill="#63b8ff" stroke="#63b8ff" points="1109.56,-33.6 1098.98,-33.06 1106.91,-40.08 1109.56,-33.6"/>
</a>
</g>
</g>
<!-- Node23&#45;&gt;Node17 -->
<g id="edge44_Node000023_Node000017" class="edge">
<title>Node23&#45;&gt;Node17</title>
<g id="a_edge44_Node000023_Node000017"><a xlink:title=" ">
<path fill="none" stroke="#63b8ff" d="M1205.53,-67.62C1204.77,-61.1 1203.71,-52.05 1202.71,-43.4"/>
<polygon fill="#63b8ff" stroke="#63b8ff" points="1206.2,-43.17 1201.57,-33.64 1199.25,-43.98 1206.2,-43.17"/>
</a>
</g>
</g>
<!-- Node24&#45;&gt;Node5 -->
<g id="edge49_Node000024_Node000005" class="edge">
<title>Node24&#45;&gt;Node5</title>
<g id="a_edge49_Node000024_Node000005"><a xlink:title=" ">
<path fill="none" stroke="#63b8ff" d="M1292.2,-68.92C1289.3,-68.61 1286.44,-68.3 1283.62,-68 1092.3,-47.77 862.35,-27.29 777.85,-19.89"/>
<polygon fill="#63b8ff" stroke="#63b8ff" points="778.24,-16.41 767.97,-19.02 777.63,-23.38 778.24,-16.41"/>
</a>
</g>
</g>
<!-- Node24&#45;&gt;Node16 -->
<g id="edge47_Node000024_Node000016" class="edge">
<title>Node24&#45;&gt;Node16</title>
<g id="a_edge47_Node000024_Node000016"><a xlink:title=" ">
<path fill="none" stroke="#63b8ff" d="M1313.26,-67.56C1262.74,-57.49 1182.34,-41.46 1125.63,-30.16"/>
<polygon fill="#63b8ff" stroke="#63b8ff" points="1126.59,-26.78 1116.1,-28.26 1125.23,-33.65 1126.59,-26.78"/>
</a>
</g>
</g>
<!-- Node24&#45;&gt;Node17 -->
<g id="edge48_Node000024_Node000017" class="edge">
<title>Node24&#45;&gt;Node17</title>
<g id="a_edge48_Node000024_Node000017"><a xlink:title=" ">
<path fill="none" stroke="#63b8ff" d="M1335.47,-67.62C1313.12,-59.3 1279.74,-46.86 1251.66,-36.39"/>
<polygon fill="#63b8ff" stroke="#63b8ff" points="1253.2,-33.23 1242.61,-33.02 1250.76,-39.79 1253.2,-33.23"/>
</a>
</g>
</g>
</g>
</svg>
