<?xml version="1.0" encoding="UTF-8" standalone="no"?>
<!DOCTYPE svg PUBLIC "-//W3C//DTD SVG 1.1//EN"
 "http://www.w3.org/Graphics/SVG/1.1/DTD/svg11.dtd">
<!-- Generated by graphviz version 13.1.0 (20250701.0955)
 -->
<!-- Title: BuildVersion Pages: 1 -->
<svg width="107pt" height="154pt"
 viewBox="0.00 0.00 107.00 154.00" xmlns="http://www.w3.org/2000/svg" xmlns:xlink="http://www.w3.org/1999/xlink">
<g id="graph0" class="graph" transform="scale(1 1) rotate(0) translate(4 149.5)">
<title>BuildVersion</title>
<!-- Node1 -->
<g id="Node000001" class="node">
<title>Node1</title>
<g id="a_Node000001"><a xlink:title="Firmware build version wrapper.">
<polygon fill="#999999" stroke="none" points="99,-62 0,-62 0,0 99,0 99,-62"/>
<text xml:space="preserve" text-anchor="start" x="23.62" y="-49.45" font-family="Arial" font-size="9.00">BuildVersion</text>
<text xml:space="preserve" text-anchor="start" x="48.38" y="-34.95" font-family="Arial" font-size="9.00"> </text>
<text xml:space="preserve" text-anchor="start" x="4" y="-20.45" font-family="Arial" font-size="9.00">+</text>
<text xml:space="preserve" text-anchor="start" x="13.25" y="-20.45" font-family="Arial" font-size="9.00">BuildVersion()</text>
<text xml:space="preserve" text-anchor="start" x="4" y="-5.95" font-family="Arial" font-size="9.00">+</text>
<text xml:space="preserve" text-anchor="start" x="13.25" y="-5.95" font-family="Arial" font-size="9.00">operator std::string()</text>
<polygon fill="#666666" stroke="#666666" points="0,-45.5 0,-45.5 99,-45.5 99,-45.5 0,-45.5"/>
<polygon fill="#666666" stroke="#666666" points="0,-31 0,-31 99,-31 99,-31 0,-31"/>
<polygon fill="none" stroke="#666666" points="0,0 0,-62 99,-62 99,0 0,0"/>
</a>
</g>
</g>
<!-- Node2 -->
<g id="Node000002" class="node">
<title>Node2</title>
<g id="a_Node000002"><a xlink:title=" ">
<polygon fill="white" stroke="none" points="72.62,-145.5 26.38,-145.5 26.38,-98 72.62,-98 72.62,-145.5"/>
<text xml:space="preserve" text-anchor="start" x="30.38" y="-132.95" font-family="Arial" font-size="9.00">Firmware</text>
<text xml:space="preserve" text-anchor="start" x="48.38" y="-118.45" font-family="Arial" font-size="9.00"> </text>
<text xml:space="preserve" text-anchor="start" x="48.38" y="-103.95" font-family="Arial" font-size="9.00"> </text>
<polygon fill="#bfbfbf" stroke="#bfbfbf" points="26.38,-129 26.38,-129 72.62,-129 72.62,-129 26.38,-129"/>
<polygon fill="#bfbfbf" stroke="#bfbfbf" points="26.38,-114.5 26.38,-114.5 72.62,-114.5 72.62,-114.5 26.38,-114.5"/>
<polygon fill="none" stroke="#bfbfbf" points="26.38,-98 26.38,-145.5 72.62,-145.5 72.62,-98 26.38,-98"/>
</a>
</g>
</g>
<!-- Node2&#45;&gt;Node1 -->
<g id="edge1_Node000001_Node000002" class="edge">
<title>Node2&#45;&gt;Node1</title>
<g id="a_edge1_Node000001_Node000002"><a xlink:title=" ">
<path fill="none" stroke="#63b8ff" d="M49.5,-87.07C49.5,-78.75 49.5,-69.89 49.5,-61.77"/>
<polygon fill="none" stroke="#63b8ff" points="46,-86.84 49.5,-96.84 53,-86.84 46,-86.84"/>
</a>
</g>
</g>
</g>
</svg>
