<?xml version="1.0" encoding="UTF-8" standalone="no"?>
<!DOCTYPE svg PUBLIC "-//W3C//DTD SVG 1.1//EN"
 "http://www.w3.org/Graphics/SVG/1.1/DTD/svg11.dtd">
<!-- Generated by graphviz version 13.1.0 (20250701.0955)
 -->
<!-- Title: Lib::BSP::XPT2046::Driver Pages: 1 -->
<svg width="744pt" height="1292pt"
 viewBox="0.00 0.00 744.00 1292.00" xmlns="http://www.w3.org/2000/svg" xmlns:xlink="http://www.w3.org/1999/xlink">
<g id="graph0" class="graph" transform="scale(1 1) rotate(0) translate(4 1287.5)">
<title>Lib::BSP::XPT2046::Driver</title>
<!-- Node1 -->
<g id="Node000001" class="node">
<title>Node1</title>
<g id="a_Node000001"><a xlink:title="XPT2046 touch screen driver.">
<polygon fill="#999999" stroke="none" points="603.25,-322.5 477.25,-322.5 477.25,0 603.25,0 603.25,-322.5"/>
<text xml:space="preserve" text-anchor="start" x="499" y="-309.95" font-family="Arial" font-size="9.00">Lib::BSP::XPT2046::</text>
<text xml:space="preserve" text-anchor="start" x="527.88" y="-299.45" font-family="Arial" font-size="9.00">Driver</text>
<text xml:space="preserve" text-anchor="start" x="481.25" y="-284.95" font-family="Arial" font-size="9.00">#</text>
<text xml:space="preserve" text-anchor="start" x="490.5" y="-284.95" font-family="Arial" font-size="9.00">static constexpr uint8</text>
<text xml:space="preserve" text-anchor="start" x="490.5" y="-274.45" font-family="Arial" font-size="9.00">_t CMD_READ_X</text>
<text xml:space="preserve" text-anchor="start" x="481.25" y="-259.95" font-family="Arial" font-size="9.00">#</text>
<text xml:space="preserve" text-anchor="start" x="490.5" y="-259.95" font-family="Arial" font-size="9.00">static constexpr uint8</text>
<text xml:space="preserve" text-anchor="start" x="490.5" y="-249.45" font-family="Arial" font-size="9.00">_t CMD_READ_Y</text>
<text xml:space="preserve" text-anchor="start" x="481.25" y="-234.95" font-family="Arial" font-size="9.00">+</text>
<text xml:space="preserve" text-anchor="start" x="490.5" y="-234.95" font-family="Arial" font-size="9.00">Driver(const Config</text>
<text xml:space="preserve" text-anchor="start" x="490.5" y="-224.45" font-family="Arial" font-size="9.00"> &amp;config, const Parameters</text>
<text xml:space="preserve" text-anchor="start" x="490.5" y="-213.95" font-family="Arial" font-size="9.00"> &amp;params)</text>
<text xml:space="preserve" text-anchor="start" x="481.25" y="-199.45" font-family="Arial" font-size="9.00">+</text>
<text xml:space="preserve" text-anchor="start" x="490.5" y="-199.45" font-family="Arial" font-size="9.00">virtual ~Driver()</text>
<text xml:space="preserve" text-anchor="start" x="481.25" y="-184.95" font-family="Arial" font-size="9.00">+</text>
<text xml:space="preserve" text-anchor="start" x="490.5" y="-184.95" font-family="Arial" font-size="9.00">virtual void init()</text>
<text xml:space="preserve" text-anchor="start" x="481.25" y="-170.45" font-family="Arial" font-size="9.00">+</text>
<text xml:space="preserve" text-anchor="start" x="490.5" y="-170.45" font-family="Arial" font-size="9.00">bool sampleTouch(int32</text>
<text xml:space="preserve" text-anchor="start" x="490.5" y="-159.95" font-family="Arial" font-size="9.00">_t &amp;x, int32_t &amp;y) const</text>
<text xml:space="preserve" text-anchor="start" x="481.25" y="-145.45" font-family="Arial" font-size="9.00">+</text>
<text xml:space="preserve" text-anchor="start" x="490.5" y="-145.45" font-family="Arial" font-size="9.00">virtual void setRotation</text>
<text xml:space="preserve" text-anchor="start" x="490.5" y="-134.95" font-family="Arial" font-size="9.00">(bool value)</text>
<text xml:space="preserve" text-anchor="start" x="481.25" y="-120.45" font-family="Arial" font-size="9.00">+</text>
<text xml:space="preserve" text-anchor="start" x="490.5" y="-120.45" font-family="Arial" font-size="9.00">Driver(const Config</text>
<text xml:space="preserve" text-anchor="start" x="490.5" y="-109.95" font-family="Arial" font-size="9.00"> &amp;config, const Parameters</text>
<text xml:space="preserve" text-anchor="start" x="490.5" y="-99.45" font-family="Arial" font-size="9.00"> &amp;params)</text>
<text xml:space="preserve" text-anchor="start" x="481.25" y="-84.95" font-family="Arial" font-size="9.00">+</text>
<text xml:space="preserve" text-anchor="start" x="490.5" y="-84.95" font-family="Arial" font-size="9.00">virtual ~Driver()</text>
<text xml:space="preserve" text-anchor="start" x="481.25" y="-70.45" font-family="Arial" font-size="9.00">+</text>
<text xml:space="preserve" text-anchor="start" x="490.5" y="-70.45" font-family="Arial" font-size="9.00">virtual void init()</text>
<text xml:space="preserve" text-anchor="start" x="481.25" y="-55.95" font-family="Arial" font-size="9.00">+</text>
<text xml:space="preserve" text-anchor="start" x="490.5" y="-55.95" font-family="Arial" font-size="9.00">bool sampleTouch(int32</text>
<text xml:space="preserve" text-anchor="start" x="490.5" y="-45.45" font-family="Arial" font-size="9.00">_t &amp;x, int32_t &amp;y) const</text>
<text xml:space="preserve" text-anchor="start" x="481.25" y="-30.95" font-family="Arial" font-size="9.00">+</text>
<text xml:space="preserve" text-anchor="start" x="490.5" y="-30.95" font-family="Arial" font-size="9.00">virtual void setRotation</text>
<text xml:space="preserve" text-anchor="start" x="490.5" y="-20.45" font-family="Arial" font-size="9.00">(bool value)</text>
<text xml:space="preserve" text-anchor="start" x="481.25" y="-5.95" font-family="Arial" font-size="9.00">#</text>
<text xml:space="preserve" text-anchor="start" x="490.5" y="-5.95" font-family="Arial" font-size="9.00">void taskFn()</text>
<polygon fill="#666666" stroke="#666666" points="477.25,-295.5 477.25,-295.5 603.25,-295.5 603.25,-295.5 477.25,-295.5"/>
<polygon fill="#666666" stroke="#666666" points="477.25,-245.5 477.25,-245.5 488.5,-245.5 488.5,-245.5 477.25,-245.5"/>
<polygon fill="#666666" stroke="#666666" points="488.5,-245.5 488.5,-245.5 603.25,-245.5 603.25,-245.5 488.5,-245.5"/>
<polygon fill="none" stroke="#666666" points="477.25,0 477.25,-322.5 603.25,-322.5 603.25,0 477.25,0"/>
</a>
</g>
</g>
<!-- Node2 -->
<g id="Node000002" class="node">
<title>Node2</title>
<g id="a_Node000002"><a xlink:href="../../dd/de3/class_lib_1_1_b_s_p_1_1_x_p_t2046_1_1_driver_1_1_impl.html" target="_top" xlink:title="Internal data storage for Driver.">
<polygon fill="white" stroke="none" points="464.25,-666 338.25,-666 338.25,-375 464.25,-375 464.25,-666"/>
<text xml:space="preserve" text-anchor="start" x="360" y="-653.45" font-family="Arial" font-size="9.00">Lib::BSP::XPT2046::</text>
<text xml:space="preserve" text-anchor="start" x="378" y="-642.95" font-family="Arial" font-size="9.00">Driver::Impl</text>
<text xml:space="preserve" text-anchor="start" x="342.25" y="-628.45" font-family="Arial" font-size="9.00">+</text>
<text xml:space="preserve" text-anchor="start" x="351.5" y="-628.45" font-family="Arial" font-size="9.00">float devX</text>
<text xml:space="preserve" text-anchor="start" x="342.25" y="-613.95" font-family="Arial" font-size="9.00">+</text>
<text xml:space="preserve" text-anchor="start" x="351.5" y="-613.95" font-family="Arial" font-size="9.00">float devY</text>
<text xml:space="preserve" text-anchor="start" x="342.25" y="-599.45" font-family="Arial" font-size="9.00">+</text>
<text xml:space="preserve" text-anchor="start" x="351.5" y="-599.45" font-family="Arial" font-size="9.00">bool isReady</text>
<text xml:space="preserve" text-anchor="start" x="342.25" y="-584.95" font-family="Arial" font-size="9.00">+</text>
<text xml:space="preserve" text-anchor="start" x="351.5" y="-584.95" font-family="Arial" font-size="9.00">uint8_t rotation</text>
<text xml:space="preserve" text-anchor="start" x="342.25" y="-570.45" font-family="Arial" font-size="9.00">+</text>
<text xml:space="preserve" text-anchor="start" x="351.5" y="-570.45" font-family="Arial" font-size="9.00">uint32_t debounceTime</text>
<text xml:space="preserve" text-anchor="start" x="342.25" y="-555.95" font-family="Arial" font-size="9.00">+</text>
<text xml:space="preserve" text-anchor="start" x="351.5" y="-555.95" font-family="Arial" font-size="9.00">bool lastPressState</text>
<text xml:space="preserve" text-anchor="start" x="342.25" y="-541.45" font-family="Arial" font-size="9.00">+</text>
<text xml:space="preserve" text-anchor="start" x="351.5" y="-541.45" font-family="Arial" font-size="9.00">Impl(const Config</text>
<text xml:space="preserve" text-anchor="start" x="351.5" y="-530.95" font-family="Arial" font-size="9.00"> &amp;config, const Parameters</text>
<text xml:space="preserve" text-anchor="start" x="351.5" y="-520.45" font-family="Arial" font-size="9.00"> &amp;params)</text>
<text xml:space="preserve" text-anchor="start" x="342.25" y="-505.95" font-family="Arial" font-size="9.00">+</text>
<text xml:space="preserve" text-anchor="start" x="351.5" y="-505.95" font-family="Arial" font-size="9.00">bool checkPressed()</text>
<text xml:space="preserve" text-anchor="start" x="342.25" y="-491.45" font-family="Arial" font-size="9.00">+</text>
<text xml:space="preserve" text-anchor="start" x="351.5" y="-491.45" font-family="Arial" font-size="9.00">void writeByte(uint8</text>
<text xml:space="preserve" text-anchor="start" x="351.5" y="-480.95" font-family="Arial" font-size="9.00">_t val)</text>
<text xml:space="preserve" text-anchor="start" x="342.25" y="-466.45" font-family="Arial" font-size="9.00">+</text>
<text xml:space="preserve" text-anchor="start" x="351.5" y="-466.45" font-family="Arial" font-size="9.00">uint16_t readAdc(uint8</text>
<text xml:space="preserve" text-anchor="start" x="351.5" y="-455.95" font-family="Arial" font-size="9.00">_t cmd)</text>
<text xml:space="preserve" text-anchor="start" x="342.25" y="-441.45" font-family="Arial" font-size="9.00">+</text>
<text xml:space="preserve" text-anchor="start" x="351.5" y="-441.45" font-family="Arial" font-size="9.00">void process()</text>
<text xml:space="preserve" text-anchor="start" x="342.25" y="-426.95" font-family="Arial" font-size="9.00">+</text>
<text xml:space="preserve" text-anchor="start" x="351.5" y="-426.95" font-family="Arial" font-size="9.00">Impl(const Config</text>
<text xml:space="preserve" text-anchor="start" x="351.5" y="-416.45" font-family="Arial" font-size="9.00"> &amp;config, const Parameters</text>
<text xml:space="preserve" text-anchor="start" x="351.5" y="-405.95" font-family="Arial" font-size="9.00"> &amp;params)</text>
<text xml:space="preserve" text-anchor="start" x="342.25" y="-391.45" font-family="Arial" font-size="9.00">+</text>
<text xml:space="preserve" text-anchor="start" x="351.5" y="-391.45" font-family="Arial" font-size="9.00">static constexpr T</text>
<text xml:space="preserve" text-anchor="start" x="351.5" y="-380.95" font-family="Arial" font-size="9.00"> clamp(T v, T lo, T hi)</text>
<polygon fill="#666666" stroke="#666666" points="338.25,-639 338.25,-639 464.25,-639 464.25,-639 338.25,-639"/>
<polygon fill="#666666" stroke="#666666" points="338.25,-552 338.25,-552 349.5,-552 349.5,-552 338.25,-552"/>
<polygon fill="#666666" stroke="#666666" points="349.5,-552 349.5,-552 464.25,-552 464.25,-552 349.5,-552"/>
<polygon fill="none" stroke="#666666" points="338.25,-375 338.25,-666 464.25,-666 464.25,-375 338.25,-375"/>
</a>
</g>
</g>
<!-- Node2&#45;&gt;Node1 -->
<g id="edge1_Node000001_Node000002" class="edge">
<title>Node2&#45;&gt;Node1</title>
<g id="a_edge1_Node000001_Node000002"><a xlink:title=" ">
<path fill="none" stroke="#63b8ff" d="M457.39,-375.22C462.63,-361.74 467.98,-347.99 473.31,-334.29"/>
<polygon fill="none" stroke="#63b8ff" points="473.31,-334.3 471.76,-327.26 477.66,-323.11 479.21,-330.16 473.31,-334.3"/>
</a>
</g>
<text xml:space="preserve" text-anchor="start" x="473.75" y="-345.45" font-family="Arial" font-size="9.00" fill="grey">#impl</text>
</g>
<!-- Node3 -->
<g id="Node000003" class="node">
<title>Node3</title>
<g id="a_Node000003"><a xlink:href="../../d8/d01/struct_lib_1_1_b_s_p_1_1_x_p_t2046_1_1_driver_1_1_position.html" target="_top" xlink:title="Touch position.">
<polygon fill="white" stroke="none" points="90.5,-940.5 0,-940.5 0,-868 90.5,-868 90.5,-940.5"/>
<text xml:space="preserve" text-anchor="start" x="4" y="-927.95" font-family="Arial" font-size="9.00">Lib::BSP::XPT2046::</text>
<text xml:space="preserve" text-anchor="start" x="14.12" y="-917.45" font-family="Arial" font-size="9.00">Driver::Position</text>
<text xml:space="preserve" text-anchor="start" x="13.69" y="-902.95" font-family="Arial" font-size="9.00">+</text>
<text xml:space="preserve" text-anchor="start" x="32.62" y="-902.95" font-family="Arial" font-size="9.00">int32_t x</text>
<text xml:space="preserve" text-anchor="start" x="13.69" y="-888.45" font-family="Arial" font-size="9.00">+</text>
<text xml:space="preserve" text-anchor="start" x="32.62" y="-888.45" font-family="Arial" font-size="9.00">int32_t y</text>
<text xml:space="preserve" text-anchor="start" x="44.12" y="-873.95" font-family="Arial" font-size="9.00"> </text>
<polygon fill="#666666" stroke="#666666" points="0,-913.5 0,-913.5 90.5,-913.5 90.5,-913.5 0,-913.5"/>
<polygon fill="#666666" stroke="#666666" points="0,-884.5 0,-884.5 30.62,-884.5 30.62,-884.5 0,-884.5"/>
<polygon fill="#666666" stroke="#666666" points="30.62,-884.5 30.62,-884.5 90.5,-884.5 90.5,-884.5 30.62,-884.5"/>
<polygon fill="none" stroke="#666666" points="0,-868 0,-940.5 90.5,-940.5 90.5,-868 0,-868"/>
</a>
</g>
</g>
<!-- Node3&#45;&gt;Node2 -->
<g id="edge2_Node000002_Node000003" class="edge">
<title>Node3&#45;&gt;Node2</title>
<g id="a_edge2_Node000002_Node000003"><a xlink:title=" ">
<path fill="none" stroke="#63b8ff" d="M53.3,-868.31C65.74,-821.19 93.72,-737.09 145,-684 197.62,-629.52 271.96,-584.98 327.03,-556.4"/>
<polygon fill="none" stroke="#63b8ff" points="326.98,-556.42 330.5,-550.13 337.67,-550.96 334.15,-557.25 326.98,-556.42"/>
</a>
</g>
<text xml:space="preserve" text-anchor="start" x="148" y="-732.45" font-family="Arial" font-size="9.00" fill="grey">+position</text>
<text xml:space="preserve" text-anchor="start" x="148" y="-717.95" font-family="Arial" font-size="9.00" fill="grey">+rawPosition</text>
<text xml:space="preserve" text-anchor="start" x="148" y="-703.45" font-family="Arial" font-size="9.00" fill="grey">+tempPosition</text>
<text xml:space="preserve" text-anchor="start" x="148" y="-688.95" font-family="Arial" font-size="9.00" fill="grey">+tempRawPosition</text>
</g>
<!-- Node4 -->
<g id="Node000004" class="node">
<title>Node4</title>
<g id="a_Node000004"><a xlink:href="../../d5/d05/class_lib_1_1_h_a_l_1_1_g_p_i_o_1_1_pin.html" target="_top" xlink:title=" ">
<polygon fill="white" stroke="none" points="210.12,-938.5 108.38,-938.5 108.38,-870 210.12,-870 210.12,-938.5"/>
<text xml:space="preserve" text-anchor="start" x="112.38" y="-925.95" font-family="Arial" font-size="9.00">Lib::HAL::GPIO::Pin</text>
<text xml:space="preserve" text-anchor="start" x="112.38" y="-915.45" font-family="Arial" font-size="9.00">&lt; Lib::HAL::GPIO::Type</text>
<text xml:space="preserve" text-anchor="start" x="139.75" y="-904.95" font-family="Arial" font-size="9.00">::INPUT &gt;</text>
<text xml:space="preserve" text-anchor="start" x="158.12" y="-890.45" font-family="Arial" font-size="9.00"> </text>
<text xml:space="preserve" text-anchor="start" x="158.12" y="-875.95" font-family="Arial" font-size="9.00"> </text>
<polygon fill="#666666" stroke="#666666" points="108.38,-901 108.38,-901 210.12,-901 210.12,-901 108.38,-901"/>
<polygon fill="#666666" stroke="#666666" points="108.38,-886.5 108.38,-886.5 210.12,-886.5 210.12,-886.5 108.38,-886.5"/>
<polygon fill="none" stroke="#666666" points="108.38,-870 108.38,-938.5 210.12,-938.5 210.12,-870 108.38,-870"/>
</a>
</g>
</g>
<!-- Node4&#45;&gt;Node2 -->
<g id="edge3_Node000002_Node000004" class="edge">
<title>Node4&#45;&gt;Node2</title>
<g id="a_edge3_Node000002_Node000004"><a xlink:title=" ">
<path fill="none" stroke="#63b8ff" d="M170.65,-870.19C181.38,-840.84 198.83,-797.28 219.25,-762 251.32,-706.6 294.27,-649.26 330.39,-604.48"/>
<polygon fill="none" stroke="#63b8ff" points="330.33,-604.55 331,-597.37 337.89,-595.24 337.21,-602.42 330.33,-604.55"/>
</a>
</g>
<text xml:space="preserve" text-anchor="start" x="271.77" y="-717.95" font-family="Arial" font-size="9.00" fill="grey">+nirq</text>
<text xml:space="preserve" text-anchor="start" x="271.77" y="-703.45" font-family="Arial" font-size="9.00" fill="grey">+so</text>
</g>
<!-- Node5 -->
<g id="Node000005" class="node">
<title>Node5</title>
<g id="a_Node000005"><a xlink:href="../../d5/d05/class_lib_1_1_h_a_l_1_1_g_p_i_o_1_1_pin.html" target="_top" xlink:title="GPIO pin template class.">
<polygon fill="white" stroke="none" points="262,-1227.5 174.5,-1227.5 174.5,-1169.5 262,-1169.5 262,-1227.5"/>
<text xml:space="preserve" text-anchor="start" x="178.5" y="-1214.95" font-family="Arial" font-size="9.00">Lib::HAL::GPIO::Pin</text>
<text xml:space="preserve" text-anchor="start" x="192.75" y="-1204.45" font-family="Arial" font-size="9.00">&lt; pinMode &gt;</text>
<text xml:space="preserve" text-anchor="start" x="217.12" y="-1189.95" font-family="Arial" font-size="9.00"> </text>
<text xml:space="preserve" text-anchor="start" x="217.12" y="-1175.45" font-family="Arial" font-size="9.00"> </text>
<polygon fill="#666666" stroke="#666666" points="174.5,-1200.5 174.5,-1200.5 262,-1200.5 262,-1200.5 174.5,-1200.5"/>
<polygon fill="#666666" stroke="#666666" points="174.5,-1186 174.5,-1186 262,-1186 262,-1186 174.5,-1186"/>
<polygon fill="none" stroke="#666666" points="174.5,-1169.5 174.5,-1227.5 262,-1227.5 262,-1169.5 174.5,-1169.5"/>
</a>
</g>
</g>
<!-- Node5&#45;&gt;Node4 -->
<g id="edge4_Node000004_Node000005" class="edge">
<title>Node5&#45;&gt;Node4</title>
<g id="a_edge4_Node000004_Node000005"><a xlink:title=" ">
<path fill="none" stroke="orange" d="M189.35,-1160.09C176.94,-1141.71 163.85,-1118.58 157.5,-1095.5 142.77,-1042 148.13,-976.78 153.55,-938.27"/>
<polygon fill="orange" stroke="orange" points="186.47,-1162.08 195.06,-1168.28 192.21,-1158.07 186.47,-1162.08"/>
</a>
</g>
<text xml:space="preserve" text-anchor="start" x="160.5" y="-1083.95" font-family="Arial" font-size="9.00" fill="grey">&lt; Lib::HAL::GPIO::Type</text>
<text xml:space="preserve" text-anchor="start" x="160.5" y="-1069.45" font-family="Arial" font-size="9.00" fill="grey">  ::INPUT &gt;</text>
</g>
<!-- Node6 -->
<g id="Node000006" class="node">
<title>Node6</title>
<g id="a_Node000006"><a xlink:href="../../d5/d05/class_lib_1_1_h_a_l_1_1_g_p_i_o_1_1_pin.html" target="_top" xlink:title=" ">
<polygon fill="white" stroke="none" points="330.12,-938.5 228.38,-938.5 228.38,-870 330.12,-870 330.12,-938.5"/>
<text xml:space="preserve" text-anchor="start" x="232.38" y="-925.95" font-family="Arial" font-size="9.00">Lib::HAL::GPIO::Pin</text>
<text xml:space="preserve" text-anchor="start" x="232.38" y="-915.45" font-family="Arial" font-size="9.00">&lt; Lib::HAL::GPIO::Type</text>
<text xml:space="preserve" text-anchor="start" x="254.88" y="-904.95" font-family="Arial" font-size="9.00">::OUTPUT &gt;</text>
<text xml:space="preserve" text-anchor="start" x="278.12" y="-890.45" font-family="Arial" font-size="9.00"> </text>
<text xml:space="preserve" text-anchor="start" x="278.12" y="-875.95" font-family="Arial" font-size="9.00"> </text>
<polygon fill="#666666" stroke="#666666" points="228.38,-901 228.38,-901 330.12,-901 330.12,-901 228.38,-901"/>
<polygon fill="#666666" stroke="#666666" points="228.38,-886.5 228.38,-886.5 330.12,-886.5 330.12,-886.5 228.38,-886.5"/>
<polygon fill="none" stroke="#666666" points="228.38,-870 228.38,-938.5 330.12,-938.5 330.12,-870 228.38,-870"/>
</a>
</g>
</g>
<!-- Node5&#45;&gt;Node6 -->
<g id="edge6_Node000006_Node000005" class="edge">
<title>Node5&#45;&gt;Node6</title>
<g id="a_edge6_Node000006_Node000005"><a xlink:title=" ">
<path fill="none" stroke="orange" d="M235.58,-1159.01C243.37,-1140.21 251.97,-1117.05 257.25,-1095.5 270.5,-1041.41 275.83,-976.65 277.93,-938.35"/>
<polygon fill="orange" stroke="orange" points="232.4,-1157.56 231.72,-1168.14 238.84,-1160.3 232.4,-1157.56"/>
</a>
</g>
<text xml:space="preserve" text-anchor="start" x="266.77" y="-1083.95" font-family="Arial" font-size="9.00" fill="grey">&lt; Lib::HAL::GPIO::Type</text>
<text xml:space="preserve" text-anchor="start" x="266.77" y="-1069.45" font-family="Arial" font-size="9.00" fill="grey">  ::OUTPUT &gt;</text>
</g>
<!-- Node6&#45;&gt;Node2 -->
<g id="edge5_Node000002_Node000006" class="edge">
<title>Node6&#45;&gt;Node2</title>
<g id="a_edge5_Node000002_Node000006"><a xlink:title=" ">
<path fill="none" stroke="#63b8ff" d="M289.86,-870.04C303.59,-827.08 328.45,-749.31 351.2,-678.11"/>
<polygon fill="none" stroke="#63b8ff" points="351.2,-678.11 349.22,-671.18 354.85,-666.68 356.84,-673.62 351.2,-678.11"/>
</a>
</g>
<text xml:space="preserve" text-anchor="start" x="350.55" y="-725.2" font-family="Arial" font-size="9.00" fill="grey">+nss</text>
<text xml:space="preserve" text-anchor="start" x="350.55" y="-710.7" font-family="Arial" font-size="9.00" fill="grey">+sck</text>
<text xml:space="preserve" text-anchor="start" x="350.55" y="-696.2" font-family="Arial" font-size="9.00" fill="grey">+si</text>
</g>
<!-- Node7 -->
<g id="Node000007" class="node">
<title>Node7</title>
<g id="a_Node000007"><a xlink:href="../../d8/dfa/class_lib_1_1_helper_1_1_integrator.html" target="_top" xlink:title=" ">
<polygon fill="white" stroke="none" points="454.12,-999.75 348.38,-999.75 348.38,-808.75 454.12,-808.75 454.12,-999.75"/>
<text xml:space="preserve" text-anchor="start" x="357" y="-987.2" font-family="Arial" font-size="9.00">Lib::Helper::Integrator</text>
<text xml:space="preserve" text-anchor="start" x="372.38" y="-976.7" font-family="Arial" font-size="9.00">&lt; int32_t, 10 &gt;</text>
<text xml:space="preserve" text-anchor="start" x="400.12" y="-962.2" font-family="Arial" font-size="9.00"> </text>
<text xml:space="preserve" text-anchor="start" x="352.38" y="-947.7" font-family="Arial" font-size="9.00">+</text>
<text xml:space="preserve" text-anchor="start" x="361.62" y="-947.7" font-family="Arial" font-size="9.00">Integrator()</text>
<text xml:space="preserve" text-anchor="start" x="352.38" y="-933.2" font-family="Arial" font-size="9.00">+</text>
<text xml:space="preserve" text-anchor="start" x="361.62" y="-933.2" font-family="Arial" font-size="9.00">~Integrator()=default</text>
<text xml:space="preserve" text-anchor="start" x="352.38" y="-918.7" font-family="Arial" font-size="9.00">+</text>
<text xml:space="preserve" text-anchor="start" x="361.62" y="-918.7" font-family="Arial" font-size="9.00">void add(const int32</text>
<text xml:space="preserve" text-anchor="start" x="361.62" y="-908.2" font-family="Arial" font-size="9.00">_t &amp;value)</text>
<text xml:space="preserve" text-anchor="start" x="352.38" y="-893.7" font-family="Arial" font-size="9.00">+</text>
<text xml:space="preserve" text-anchor="start" x="361.62" y="-893.7" font-family="Arial" font-size="9.00">int32_t result() const</text>
<text xml:space="preserve" text-anchor="start" x="352.38" y="-879.2" font-family="Arial" font-size="9.00">+</text>
<text xml:space="preserve" text-anchor="start" x="361.62" y="-879.2" font-family="Arial" font-size="9.00">int32_t process(const</text>
<text xml:space="preserve" text-anchor="start" x="361.62" y="-868.7" font-family="Arial" font-size="9.00"> int32_t &amp;value)</text>
<text xml:space="preserve" text-anchor="start" x="352.38" y="-854.2" font-family="Arial" font-size="9.00">+</text>
<text xml:space="preserve" text-anchor="start" x="361.62" y="-854.2" font-family="Arial" font-size="9.00">int32_t operator()</text>
<text xml:space="preserve" text-anchor="start" x="361.62" y="-843.7" font-family="Arial" font-size="9.00">(const int32_t &amp;value)</text>
<text xml:space="preserve" text-anchor="start" x="352.38" y="-829.2" font-family="Arial" font-size="9.00">+</text>
<text xml:space="preserve" text-anchor="start" x="361.62" y="-829.2" font-family="Arial" font-size="9.00">void reset()</text>
<text xml:space="preserve" text-anchor="start" x="352.38" y="-814.7" font-family="Arial" font-size="9.00">+</text>
<text xml:space="preserve" text-anchor="start" x="361.62" y="-814.7" font-family="Arial" font-size="9.00">bool isFull() const</text>
<polygon fill="#666666" stroke="#666666" points="348.38,-972.75 348.38,-972.75 454.12,-972.75 454.12,-972.75 348.38,-972.75"/>
<polygon fill="#666666" stroke="#666666" points="348.38,-958.25 348.38,-958.25 454.12,-958.25 454.12,-958.25 348.38,-958.25"/>
<polygon fill="none" stroke="#666666" points="348.38,-808.75 348.38,-999.75 454.12,-999.75 454.12,-808.75 348.38,-808.75"/>
</a>
</g>
</g>
<!-- Node7&#45;&gt;Node2 -->
<g id="edge7_Node000002_Node000007" class="edge">
<title>Node7&#45;&gt;Node2</title>
<g id="a_edge7_Node000002_Node000007"><a xlink:title=" ">
<path fill="none" stroke="#63b8ff" d="M401.25,-808.88C401.25,-769.6 401.25,-722.91 401.25,-678.71"/>
<polygon fill="none" stroke="#63b8ff" points="401.25,-678.6 397.25,-672.6 401.25,-666.6 405.25,-672.6 401.25,-678.6"/>
</a>
</g>
<text xml:space="preserve" text-anchor="start" x="404.25" y="-717.95" font-family="Arial" font-size="9.00" fill="grey">+integratorX</text>
<text xml:space="preserve" text-anchor="start" x="404.25" y="-703.45" font-family="Arial" font-size="9.00" fill="grey">+integratorY</text>
</g>
<!-- Node8 -->
<g id="Node000008" class="node">
<title>Node8</title>
<g id="a_Node000008"><a xlink:href="../../d8/dfa/class_lib_1_1_helper_1_1_integrator.html" target="_top" xlink:title="Moving average integrator for fixed&#45;size window.">
<polygon fill="white" stroke="none" points="463.75,-1283.5 340.75,-1283.5 340.75,-1113.5 463.75,-1113.5 463.75,-1283.5"/>
<text xml:space="preserve" text-anchor="start" x="358" y="-1270.95" font-family="Arial" font-size="9.00">Lib::Helper::Integrator</text>
<text xml:space="preserve" text-anchor="start" x="380.5" y="-1260.45" font-family="Arial" font-size="9.00">&lt; T, SIZE &gt;</text>
<text xml:space="preserve" text-anchor="start" x="401.12" y="-1245.95" font-family="Arial" font-size="9.00"> </text>
<text xml:space="preserve" text-anchor="start" x="344.75" y="-1231.45" font-family="Arial" font-size="9.00">+</text>
<text xml:space="preserve" text-anchor="start" x="354" y="-1231.45" font-family="Arial" font-size="9.00">Integrator()</text>
<text xml:space="preserve" text-anchor="start" x="344.75" y="-1216.95" font-family="Arial" font-size="9.00">+</text>
<text xml:space="preserve" text-anchor="start" x="354" y="-1216.95" font-family="Arial" font-size="9.00">~Integrator()=default</text>
<text xml:space="preserve" text-anchor="start" x="344.75" y="-1202.45" font-family="Arial" font-size="9.00">+</text>
<text xml:space="preserve" text-anchor="start" x="354" y="-1202.45" font-family="Arial" font-size="9.00">void add(const T &amp;value)</text>
<text xml:space="preserve" text-anchor="start" x="344.75" y="-1187.95" font-family="Arial" font-size="9.00">+</text>
<text xml:space="preserve" text-anchor="start" x="354" y="-1187.95" font-family="Arial" font-size="9.00">T result() const</text>
<text xml:space="preserve" text-anchor="start" x="344.75" y="-1173.45" font-family="Arial" font-size="9.00">+</text>
<text xml:space="preserve" text-anchor="start" x="354" y="-1173.45" font-family="Arial" font-size="9.00">T process(const T &amp;value)</text>
<text xml:space="preserve" text-anchor="start" x="344.75" y="-1158.95" font-family="Arial" font-size="9.00">+</text>
<text xml:space="preserve" text-anchor="start" x="354" y="-1158.95" font-family="Arial" font-size="9.00">T operator()(const</text>
<text xml:space="preserve" text-anchor="start" x="354" y="-1148.45" font-family="Arial" font-size="9.00"> T &amp;value)</text>
<text xml:space="preserve" text-anchor="start" x="344.75" y="-1133.95" font-family="Arial" font-size="9.00">+</text>
<text xml:space="preserve" text-anchor="start" x="354" y="-1133.95" font-family="Arial" font-size="9.00">void reset()</text>
<text xml:space="preserve" text-anchor="start" x="344.75" y="-1119.45" font-family="Arial" font-size="9.00">+</text>
<text xml:space="preserve" text-anchor="start" x="354" y="-1119.45" font-family="Arial" font-size="9.00">bool isFull() const</text>
<polygon fill="#666666" stroke="#666666" points="340.75,-1256.5 340.75,-1256.5 463.75,-1256.5 463.75,-1256.5 340.75,-1256.5"/>
<polygon fill="#666666" stroke="#666666" points="340.75,-1242 340.75,-1242 463.75,-1242 463.75,-1242 340.75,-1242"/>
<polygon fill="none" stroke="#666666" points="340.75,-1113.5 340.75,-1283.5 463.75,-1283.5 463.75,-1113.5 340.75,-1113.5"/>
</a>
</g>
</g>
<!-- Node8&#45;&gt;Node7 -->
<g id="edge8_Node000007_Node000008" class="edge">
<title>Node8&#45;&gt;Node7</title>
<g id="a_edge8_Node000007_Node000008"><a xlink:title=" ">
<path fill="none" stroke="orange" d="M401.92,-1102.27C401.81,-1069.32 401.69,-1032.42 401.57,-999.54"/>
<polygon fill="orange" stroke="orange" points="398.42,-1102.25 401.96,-1112.24 405.42,-1102.23 398.42,-1102.25"/>
</a>
</g>
<text xml:space="preserve" text-anchor="start" x="404.9" y="-1076.7" font-family="Arial" font-size="9.00" fill="grey">&lt; int32_t, 10 &gt;</text>
</g>
<!-- Node9 -->
<g id="Node000009" class="node">
<title>Node9</title>
<g id="a_Node000009"><a xlink:href="../../d7/d30/class_lib_1_1_free_r_t_o_s_1_1_timeout.html" target="_top" xlink:title="Timeout utility for FreeRTOS tick&#45;based timing.">
<polygon fill="white" stroke="none" points="603.88,-1046.5 472.62,-1046.5 472.62,-762 603.88,-762 603.88,-1046.5"/>
<text xml:space="preserve" text-anchor="start" x="489.5" y="-1033.95" font-family="Arial" font-size="9.00">Lib::FreeRTOS::Timeout</text>
<text xml:space="preserve" text-anchor="start" x="537.12" y="-1019.45" font-family="Arial" font-size="9.00"> </text>
<text xml:space="preserve" text-anchor="start" x="476.62" y="-1004.95" font-family="Arial" font-size="9.00">+</text>
<text xml:space="preserve" text-anchor="start" x="485.88" y="-1004.95" font-family="Arial" font-size="9.00">Timeout()=default</text>
<text xml:space="preserve" text-anchor="start" x="476.62" y="-990.45" font-family="Arial" font-size="9.00">+</text>
<text xml:space="preserve" text-anchor="start" x="485.88" y="-990.45" font-family="Arial" font-size="9.00">Timeout(uint32_t ticks)</text>
<text xml:space="preserve" text-anchor="start" x="476.62" y="-975.95" font-family="Arial" font-size="9.00">+</text>
<text xml:space="preserve" text-anchor="start" x="485.88" y="-975.95" font-family="Arial" font-size="9.00">void set(uint32_t ticks)</text>
<text xml:space="preserve" text-anchor="start" x="476.62" y="-961.45" font-family="Arial" font-size="9.00">+</text>
<text xml:space="preserve" text-anchor="start" x="485.88" y="-961.45" font-family="Arial" font-size="9.00">void reset()</text>
<text xml:space="preserve" text-anchor="start" x="476.62" y="-946.95" font-family="Arial" font-size="9.00">+</text>
<text xml:space="preserve" text-anchor="start" x="485.88" y="-946.95" font-family="Arial" font-size="9.00">bool check() const</text>
<text xml:space="preserve" text-anchor="start" x="476.62" y="-932.45" font-family="Arial" font-size="9.00">+</text>
<text xml:space="preserve" text-anchor="start" x="485.88" y="-932.45" font-family="Arial" font-size="9.00">Timeout &amp; operator</text>
<text xml:space="preserve" text-anchor="start" x="485.88" y="-921.95" font-family="Arial" font-size="9.00">=(uint32_t ticks)</text>
<text xml:space="preserve" text-anchor="start" x="476.62" y="-907.45" font-family="Arial" font-size="9.00">+</text>
<text xml:space="preserve" text-anchor="start" x="485.88" y="-907.45" font-family="Arial" font-size="9.00">bool operator==(bool</text>
<text xml:space="preserve" text-anchor="start" x="485.88" y="-896.95" font-family="Arial" font-size="9.00"> expired) const</text>
<text xml:space="preserve" text-anchor="start" x="476.62" y="-882.45" font-family="Arial" font-size="9.00">+</text>
<text xml:space="preserve" text-anchor="start" x="485.88" y="-882.45" font-family="Arial" font-size="9.00">void operator+=(uint32</text>
<text xml:space="preserve" text-anchor="start" x="485.88" y="-871.95" font-family="Arial" font-size="9.00">_t ticks)</text>
<text xml:space="preserve" text-anchor="start" x="476.62" y="-857.45" font-family="Arial" font-size="9.00">+</text>
<text xml:space="preserve" text-anchor="start" x="485.88" y="-857.45" font-family="Arial" font-size="9.00">void operator&#45;=(uint32</text>
<text xml:space="preserve" text-anchor="start" x="485.88" y="-846.95" font-family="Arial" font-size="9.00">_t ticks)</text>
<text xml:space="preserve" text-anchor="start" x="476.62" y="-832.45" font-family="Arial" font-size="9.00">+</text>
<text xml:space="preserve" text-anchor="start" x="485.88" y="-832.45" font-family="Arial" font-size="9.00">operator uint32_t</text>
<text xml:space="preserve" text-anchor="start" x="485.88" y="-821.95" font-family="Arial" font-size="9.00">() const</text>
<text xml:space="preserve" text-anchor="start" x="476.62" y="-807.45" font-family="Arial" font-size="9.00">+</text>
<text xml:space="preserve" text-anchor="start" x="485.88" y="-807.45" font-family="Arial" font-size="9.00">void disable()</text>
<text xml:space="preserve" text-anchor="start" x="476.62" y="-792.95" font-family="Arial" font-size="9.00">+</text>
<text xml:space="preserve" text-anchor="start" x="485.88" y="-792.95" font-family="Arial" font-size="9.00">uint32_t getRemainingTicks</text>
<text xml:space="preserve" text-anchor="start" x="485.88" y="-782.45" font-family="Arial" font-size="9.00">() const</text>
<text xml:space="preserve" text-anchor="start" x="476.62" y="-767.95" font-family="Arial" font-size="9.00">+</text>
<text xml:space="preserve" text-anchor="start" x="485.88" y="-767.95" font-family="Arial" font-size="9.00">bool isDisabled() const</text>
<polygon fill="#666666" stroke="#666666" points="472.62,-1030 472.62,-1030 603.88,-1030 603.88,-1030 472.62,-1030"/>
<polygon fill="#666666" stroke="#666666" points="472.62,-1015.5 472.62,-1015.5 603.88,-1015.5 603.88,-1015.5 472.62,-1015.5"/>
<polygon fill="none" stroke="#666666" points="472.62,-762 472.62,-1046.5 603.88,-1046.5 603.88,-762 472.62,-762"/>
</a>
</g>
</g>
<!-- Node9&#45;&gt;Node2 -->
<g id="edge9_Node000002_Node000009" class="edge">
<title>Node9&#45;&gt;Node2</title>
<g id="a_edge9_Node000002_Node000009"><a xlink:title=" ">
<path fill="none" stroke="#63b8ff" d="M489.08,-762.19C479.91,-736.16 470.34,-709.24 461.25,-684 460.55,-682.05 459.84,-680.09 459.13,-678.11"/>
<polygon fill="none" stroke="#63b8ff" points="459.09,-678.01 453.28,-673.73 455,-666.73 460.81,-671 459.09,-678.01"/>
</a>
</g>
<text xml:space="preserve" text-anchor="start" x="483.54" y="-710.7" font-family="Arial" font-size="9.00" fill="grey">+timeoutDebounce</text>
</g>
<!-- Node10 -->
<g id="Node000010" class="node">
<title>Node10</title>
<g id="a_Node000010"><a xlink:href="../../d4/ddd/struct_lib_1_1_b_s_p_1_1_x_p_t2046_1_1_driver_1_1_parameters.html" target="_top" xlink:title="Touch screen parameters.">
<polygon fill="white" stroke="none" points="736.25,-991.25 622.25,-991.25 622.25,-817.25 736.25,-817.25 736.25,-991.25"/>
<text xml:space="preserve" text-anchor="start" x="638" y="-978.7" font-family="Arial" font-size="9.00">Lib::BSP::XPT2046::</text>
<text xml:space="preserve" text-anchor="start" x="641" y="-968.2" font-family="Arial" font-size="9.00">Driver::Parameters</text>
<text xml:space="preserve" text-anchor="start" x="626.25" y="-953.7" font-family="Arial" font-size="9.00">+</text>
<text xml:space="preserve" text-anchor="start" x="635.5" y="-953.7" font-family="Arial" font-size="9.00">int32_t xMin</text>
<text xml:space="preserve" text-anchor="start" x="626.25" y="-939.2" font-family="Arial" font-size="9.00">+</text>
<text xml:space="preserve" text-anchor="start" x="635.5" y="-939.2" font-family="Arial" font-size="9.00">int32_t xMax</text>
<text xml:space="preserve" text-anchor="start" x="626.25" y="-924.7" font-family="Arial" font-size="9.00">+</text>
<text xml:space="preserve" text-anchor="start" x="635.5" y="-924.7" font-family="Arial" font-size="9.00">int32_t yMin</text>
<text xml:space="preserve" text-anchor="start" x="626.25" y="-910.2" font-family="Arial" font-size="9.00">+</text>
<text xml:space="preserve" text-anchor="start" x="635.5" y="-910.2" font-family="Arial" font-size="9.00">int32_t yMax</text>
<text xml:space="preserve" text-anchor="start" x="626.25" y="-895.7" font-family="Arial" font-size="9.00">+</text>
<text xml:space="preserve" text-anchor="start" x="635.5" y="-895.7" font-family="Arial" font-size="9.00">int32_t dispWidth</text>
<text xml:space="preserve" text-anchor="start" x="626.25" y="-881.2" font-family="Arial" font-size="9.00">+</text>
<text xml:space="preserve" text-anchor="start" x="635.5" y="-881.2" font-family="Arial" font-size="9.00">int32_t dispHeight</text>
<text xml:space="preserve" text-anchor="start" x="626.25" y="-866.7" font-family="Arial" font-size="9.00">+</text>
<text xml:space="preserve" text-anchor="start" x="635.5" y="-866.7" font-family="Arial" font-size="9.00">uint8_t rotationNormal</text>
<text xml:space="preserve" text-anchor="start" x="626.25" y="-852.2" font-family="Arial" font-size="9.00">+</text>
<text xml:space="preserve" text-anchor="start" x="635.5" y="-852.2" font-family="Arial" font-size="9.00">uint8_t rotationFlip</text>
<text xml:space="preserve" text-anchor="start" x="626.25" y="-837.7" font-family="Arial" font-size="9.00">+</text>
<text xml:space="preserve" text-anchor="start" x="635.5" y="-837.7" font-family="Arial" font-size="9.00">uint32_t debounceTime</text>
<text xml:space="preserve" text-anchor="start" x="678.12" y="-823.2" font-family="Arial" font-size="9.00"> </text>
<polygon fill="#666666" stroke="#666666" points="622.25,-964.25 622.25,-964.25 736.25,-964.25 736.25,-964.25 622.25,-964.25"/>
<polygon fill="#666666" stroke="#666666" points="622.25,-833.75 622.25,-833.75 633.5,-833.75 633.5,-833.75 622.25,-833.75"/>
<polygon fill="#666666" stroke="#666666" points="633.5,-833.75 633.5,-833.75 736.25,-833.75 736.25,-833.75 633.5,-833.75"/>
<polygon fill="none" stroke="#666666" points="622.25,-817.25 622.25,-991.25 736.25,-991.25 736.25,-817.25 622.25,-817.25"/>
</a>
</g>
</g>
<!-- Node10&#45;&gt;Node1 -->
<g id="edge11_Node000001_Node000010" class="edge">
<title>Node10&#45;&gt;Node1</title>
<g id="a_edge11_Node000001_Node000010"><a xlink:title=" ">
<path fill="none" stroke="#63b8ff" d="M677.18,-817.51C675.33,-776.87 671.84,-727.75 665.25,-684 647.51,-566.18 616.29,-435.84 589.49,-334.9"/>
<polygon fill="none" stroke="#63b8ff" points="589.49,-334.9 584.07,-330.13 586.39,-323.3 591.8,-328.07 589.49,-334.9"/>
</a>
</g>
<text xml:space="preserve" text-anchor="start" x="664.52" y="-517.2" font-family="Arial" font-size="9.00" fill="grey">#parameters</text>
</g>
<!-- Node10&#45;&gt;Node2 -->
<g id="edge10_Node000002_Node000010" class="edge">
<title>Node10&#45;&gt;Node2</title>
<g id="a_edge10_Node000002_Node000010"><a xlink:title=" ">
<path fill="none" stroke="#63b8ff" d="M640.64,-817.52C631.92,-799.06 622.5,-779.76 613.25,-762 594.76,-726.5 592.83,-715.59 568.25,-684 540.34,-648.12 504.75,-612.43 473.6,-583.67"/>
<polygon fill="none" stroke="#63b8ff" points="473.62,-583.68 466.49,-582.59 464.76,-575.59 471.89,-576.68 473.62,-583.68"/>
</a>
</g>
<text xml:space="preserve" text-anchor="start" x="606.83" y="-710.7" font-family="Arial" font-size="9.00" fill="grey">+parameters</text>
</g>
</g>
</svg>
