<?xml version="1.0" encoding="UTF-8" standalone="no"?>
<!DOCTYPE svg PUBLIC "-//W3C//DTD SVG 1.1//EN"
 "http://www.w3.org/Graphics/SVG/1.1/DTD/svg11.dtd">
<!-- Generated by graphviz version 12.2.1 (20241206.2353)
 -->
<!-- Title: Lib::Xbee::Core::Frame0x17 Pages: 1 -->
<svg width="288pt" height="300pt"
 viewBox="0.00 0.00 288.00 300.00" xmlns="http://www.w3.org/2000/svg" xmlns:xlink="http://www.w3.org/1999/xlink">
<g id="graph0" class="graph" transform="scale(1 1) rotate(0) translate(4 296)">
<title>Lib::Xbee::Core::Frame0x17</title>
<!-- Node1 -->
<g id="Node000001" class="node">
<title>Node1</title>
<g id="a_Node000001"><a xlink:title="Represents a Remote AT Command Request frame (Frame 0x17) for XBee communication.">
<polygon fill="#999999" stroke="none" points="205,-100 74,-100 74,0 205,0 205,-100"/>
<text text-anchor="start" x="78" y="-86.5" font-family="Helvetica,sans-Serif" font-size="10.00">Lib::Xbee::Core::Frame0x17</text>
<text text-anchor="start" x="80.38" y="-70.5" font-family="Helvetica,sans-Serif" font-size="10.00">+</text>
<text text-anchor="start" x="92.75" y="-70.5" font-family="Helvetica,sans-Serif" font-size="10.00">frameId</text>
<text text-anchor="start" x="80.38" y="-54.5" font-family="Helvetica,sans-Serif" font-size="10.00">+</text>
<text text-anchor="start" x="92.75" y="-54.5" font-family="Helvetica,sans-Serif" font-size="10.00">atCmd</text>
<text text-anchor="start" x="80.38" y="-38.5" font-family="Helvetica,sans-Serif" font-size="10.00">+</text>
<text text-anchor="start" x="92.75" y="-38.5" font-family="Helvetica,sans-Serif" font-size="10.00">remoteCommandOption</text>
<text text-anchor="start" x="80.38" y="-22.5" font-family="Helvetica,sans-Serif" font-size="10.00">+</text>
<text text-anchor="start" x="92.75" y="-22.5" font-family="Helvetica,sans-Serif" font-size="10.00">parameters</text>
<text text-anchor="start" x="80.38" y="-6.5" font-family="Helvetica,sans-Serif" font-size="10.00">+</text>
<text text-anchor="start" x="92.75" y="-6.5" font-family="Helvetica,sans-Serif" font-size="10.00">operator Frame::Data()</text>
<polygon fill="#666666" stroke="#666666" points="74,-82 74,-82 205,-82 205,-82 74,-82"/>
<polygon fill="#666666" stroke="#666666" points="74,-18 74,-18 90.75,-18 90.75,-18 74,-18"/>
<polygon fill="#666666" stroke="#666666" points="90.75,-18 90.75,-18 205,-18 205,-18 90.75,-18"/>
<polygon fill="none" stroke="#666666" points="74,0 74,-100 205,-100 205,0 74,0"/>
</a>
</g>
</g>
<!-- Node2 -->
<g id="Node000002" class="node">
<title>Node2</title>
<g id="a_Node000002"><a xlink:href="../../d1/d92/a00475.html" target="_top" xlink:title="Base class for all query types in the Xbee library.">
<polygon fill="white" stroke="none" points="131,-262 0,-262 0,-178 131,-178 131,-262"/>
<text text-anchor="start" x="4" y="-248.5" font-family="Helvetica,sans-Serif" font-size="10.00">Lib::Xbee::Core::QueryBase</text>
<text text-anchor="start" x="64" y="-232.5" font-family="Helvetica,sans-Serif" font-size="10.00"> </text>
<text text-anchor="start" x="7.5" y="-216.5" font-family="Helvetica,sans-Serif" font-size="10.00">+</text>
<text text-anchor="start" x="21" y="-216.5" font-family="Helvetica,sans-Serif" font-size="10.00">operator Frame::Data()</text>
<text text-anchor="start" x="7.88" y="-200.5" font-family="Helvetica,sans-Serif" font-size="10.00">#</text>
<text text-anchor="start" x="21" y="-200.5" font-family="Helvetica,sans-Serif" font-size="10.00">QueryBase()</text>
<text text-anchor="start" x="7.88" y="-184.5" font-family="Helvetica,sans-Serif" font-size="10.00">#</text>
<text text-anchor="start" x="21" y="-184.5" font-family="Helvetica,sans-Serif" font-size="10.00">~QueryBase()</text>
<polygon fill="#666666" stroke="#666666" points="0,-244 0,-244 131,-244 131,-244 0,-244"/>
<polygon fill="#666666" stroke="#666666" points="0,-228 0,-228 131,-228 131,-228 0,-228"/>
<polygon fill="none" stroke="#666666" points="0,-178 0,-262 131,-262 131,-178 0,-178"/>
</a>
</g>
</g>
<!-- Node2&#45;&gt;Node1 -->
<g id="edge1_Node000001_Node000002" class="edge">
<title>Node2&#45;&gt;Node1</title>
<g id="a_edge1_Node000001_Node000002"><a xlink:title=" ">
<path fill="none" stroke="#63b8ff" d="M87.95,-168.04C97.47,-146.43 108.51,-121.35 117.93,-99.97"/>
<polygon fill="none" stroke="#63b8ff" points="84.85,-166.38 84.02,-176.95 91.26,-169.21 84.85,-166.38"/>
</a>
</g>
</g>
<!-- Node3 -->
<g id="Node000003" class="node">
<title>Node3</title>
<g id="a_Node000003"><a xlink:href="../../d7/d5e/a00467.html" target="_top" xlink:title="Destination address.">
<polygon fill="white" stroke="none" points="280,-292 149,-292 149,-148 280,-148 280,-292"/>
<text text-anchor="start" x="153" y="-278.5" font-family="Helvetica,sans-Serif" font-size="10.00">Lib::Xbee::Core::Frame0x17</text>
<text text-anchor="start" x="193.5" y="-266.5" font-family="Helvetica,sans-Serif" font-size="10.00">::DstAddr</text>
<text text-anchor="start" x="161.56" y="-250.5" font-family="Helvetica,sans-Serif" font-size="10.00">+</text>
<text text-anchor="start" x="180.12" y="-250.5" font-family="Helvetica,sans-Serif" font-size="10.00">msb</text>
<text text-anchor="start" x="161.56" y="-234.5" font-family="Helvetica,sans-Serif" font-size="10.00">+</text>
<text text-anchor="start" x="180.12" y="-234.5" font-family="Helvetica,sans-Serif" font-size="10.00">lsb</text>
<text text-anchor="start" x="161.56" y="-218.5" font-family="Helvetica,sans-Serif" font-size="10.00">+</text>
<text text-anchor="start" x="180.12" y="-218.5" font-family="Helvetica,sans-Serif" font-size="10.00">u32</text>
<text text-anchor="start" x="161.56" y="-202.5" font-family="Helvetica,sans-Serif" font-size="10.00">+</text>
<text text-anchor="start" x="180.12" y="-202.5" font-family="Helvetica,sans-Serif" font-size="10.00">u64</text>
<text text-anchor="start" x="161.56" y="-186.5" font-family="Helvetica,sans-Serif" font-size="10.00">+</text>
<text text-anchor="start" x="180.12" y="-186.5" font-family="Helvetica,sans-Serif" font-size="10.00">DstAddr()</text>
<text text-anchor="start" x="161.56" y="-170.5" font-family="Helvetica,sans-Serif" font-size="10.00">+</text>
<text text-anchor="start" x="180.12" y="-170.5" font-family="Helvetica,sans-Serif" font-size="10.00">operator=()</text>
<text text-anchor="start" x="161.56" y="-154.5" font-family="Helvetica,sans-Serif" font-size="10.00">+</text>
<text text-anchor="start" x="180.12" y="-154.5" font-family="Helvetica,sans-Serif" font-size="10.00">operator uint64_t()</text>
<polygon fill="#666666" stroke="#666666" points="149,-262 149,-262 280,-262 280,-262 149,-262"/>
<polygon fill="#666666" stroke="#666666" points="149,-198 149,-198 178.12,-198 178.12,-198 149,-198"/>
<polygon fill="#666666" stroke="#666666" points="178.12,-198 178.12,-198 280,-198 280,-198 178.12,-198"/>
<polygon fill="none" stroke="#666666" points="149,-148 149,-292 280,-292 280,-148 149,-148"/>
</a>
</g>
</g>
<!-- Node3&#45;&gt;Node1 -->
<g id="edge2_Node000001_Node000003" class="edge">
<title>Node3&#45;&gt;Node1</title>
<g id="a_edge2_Node000001_Node000003"><a xlink:title=" ">
<path fill="none" stroke="#63b8ff" d="M182.91,-148.24C177.45,-136 171.81,-123.37 166.48,-111.44"/>
<polygon fill="none" stroke="#63b8ff" points="166.53,-111.55 160.43,-107.71 161.64,-100.6 167.74,-104.45 166.53,-111.55"/>
</a>
</g>
<text text-anchor="middle" x="196.13" y="-120.5" font-family="Helvetica,sans-Serif" font-size="10.00" fill="grey"> +dstAddr</text>
</g>
</g>
</svg>
