<?xml version="1.0" encoding="UTF-8" standalone="no"?>
<!DOCTYPE svg PUBLIC "-//W3C//DTD SVG 1.1//EN"
 "http://www.w3.org/Graphics/SVG/1.1/DTD/svg11.dtd">
<!-- Generated by graphviz version 13.1.0 (20250701.0955)
 -->
<!-- Title: Lib::HAL::UART::TransperentBase::deinit Pages: 1 -->
<svg width="479pt" height="131pt"
 viewBox="0.00 0.00 479.00 131.00" xmlns="http://www.w3.org/2000/svg" xmlns:xlink="http://www.w3.org/1999/xlink">
<g id="graph0" class="graph" transform="scale(1 1) rotate(0) translate(4 127)">
<title>Lib::HAL::UART::TransperentBase::deinit</title>
<!-- Node1 -->
<g id="Node000001" class="node">
<title>Node1</title>
<g id="a_Node000001"><a xlink:title="Deinitializes the UART device and unregisters HAL callbacks.">
<polygon fill="#999999" stroke="#666666" points="471,-76 338,-76 338,-47 471,-47 471,-76"/>
<text xml:space="preserve" text-anchor="start" x="346" y="-63.45" font-family="Arial" font-size="9.00">Lib::HAL::UART::Transperent</text>
<text xml:space="preserve" text-anchor="middle" x="404.5" y="-52.95" font-family="Arial" font-size="9.00">Base::deinit</text>
</a>
</g>
</g>
<!-- Node2 -->
<g id="Node000002" class="node">
<title>Node2</title>
<g id="a_Node000002"><a xlink:href="../../de/d75/class_lib_1_1_h_a_l_1_1_u_a_r_t_1_1_transperent_base.html#a6605e6c85c2a19af871b6d250a6fdfab" target="_top" xlink:title="Closes the UART device, releases buffers/semaphores, and unregisters from DeviceManager.">
<polygon fill="white" stroke="#666666" points="302,-76 169,-76 169,-47 302,-47 302,-76"/>
<text xml:space="preserve" text-anchor="start" x="177" y="-63.45" font-family="Arial" font-size="9.00">Lib::HAL::UART::Transperent</text>
<text xml:space="preserve" text-anchor="middle" x="235.5" y="-52.95" font-family="Arial" font-size="9.00">Base::close</text>
</a>
</g>
</g>
<!-- Node1&#45;&gt;Node2 -->
<g id="edge1_Node000001_Node000002" class="edge">
<title>Node1&#45;&gt;Node2</title>
<g id="a_edge1_Node000001_Node000002"><a xlink:title=" ">
<path fill="none" stroke="#63b8ff" d="M326.62,-61.5C318.52,-61.5 310.34,-61.5 302.38,-61.5"/>
<polygon fill="#63b8ff" stroke="#63b8ff" points="326.46,-65 336.46,-61.5 326.46,-58 326.46,-65"/>
</a>
</g>
</g>
<!-- Node3 -->
<g id="Node000003" class="node">
<title>Node3</title>
<g id="a_Node000003"><a xlink:href="../../de/d75/class_lib_1_1_h_a_l_1_1_u_a_r_t_1_1_transperent_base.html#a1b8b845b654a6d1c8c9fad2e35aabc72" target="_top" xlink:title="Destructor of the TransperentBase class.">
<polygon fill="white" stroke="#666666" points="133,-123 0,-123 0,-94 133,-94 133,-123"/>
<text xml:space="preserve" text-anchor="start" x="8" y="-110.45" font-family="Arial" font-size="9.00">Lib::HAL::UART::Transperent</text>
<text xml:space="preserve" text-anchor="middle" x="66.5" y="-99.95" font-family="Arial" font-size="9.00">Base::~TransperentBase</text>
</a>
</g>
</g>
<!-- Node2&#45;&gt;Node3 -->
<g id="edge2_Node000002_Node000003" class="edge">
<title>Node2&#45;&gt;Node3</title>
<g id="a_edge2_Node000002_Node000003"><a xlink:title=" ">
<path fill="none" stroke="#63b8ff" d="M170.93,-79.39C154.31,-84.07 136.58,-89.06 120.57,-93.56"/>
<polygon fill="#63b8ff" stroke="#63b8ff" points="171.53,-82.86 180.2,-76.78 169.63,-76.12 171.53,-82.86"/>
</a>
</g>
</g>
<!-- Node4 -->
<g id="Node000004" class="node">
<title>Node4</title>
<g id="a_Node000004"><a xlink:href="../../d3/d98/class_lib_1_1_h_a_l_1_1_u_a_r_t_1_1_port_3_01_d_m_a_01_4.html#ae12202389b9e2ea48011e67b877117eb" target="_top" xlink:title="Closes the UART port.">
<polygon fill="white" stroke="#666666" points="116.5,-76 16.5,-76 16.5,-47 116.5,-47 116.5,-76"/>
<text xml:space="preserve" text-anchor="start" x="24.5" y="-63.45" font-family="Arial" font-size="9.00">Lib::HAL::UART::Port</text>
<text xml:space="preserve" text-anchor="middle" x="66.5" y="-52.95" font-family="Arial" font-size="9.00">&lt; DMA &gt;::close</text>
</a>
</g>
</g>
<!-- Node2&#45;&gt;Node4 -->
<g id="edge3_Node000002_Node000004" class="edge">
<title>Node2&#45;&gt;Node4</title>
<g id="a_edge3_Node000002_Node000004"><a xlink:title=" ">
<path fill="none" stroke="#63b8ff" d="M157.87,-61.5C143.92,-61.5 129.72,-61.5 116.82,-61.5"/>
<polygon fill="#63b8ff" stroke="#63b8ff" points="157.46,-65 167.46,-61.5 157.46,-58 157.46,-65"/>
</a>
</g>
</g>
<!-- Node5 -->
<g id="Node000005" class="node">
<title>Node5</title>
<g id="a_Node000005"><a xlink:href="../../d3/d03/class_lib_1_1_h_a_l_1_1_u_a_r_t_1_1_port_3_01_i_t_01_4.html#a68cfd12d85d5d1ed2b5038704f013e05" target="_top" xlink:title="Closes the UART port.">
<polygon fill="white" stroke="#666666" points="116.5,-29 16.5,-29 16.5,0 116.5,0 116.5,-29"/>
<text xml:space="preserve" text-anchor="start" x="24.5" y="-16.45" font-family="Arial" font-size="9.00">Lib::HAL::UART::Port</text>
<text xml:space="preserve" text-anchor="middle" x="66.5" y="-5.95" font-family="Arial" font-size="9.00">&lt; IT &gt;::close</text>
</a>
</g>
</g>
<!-- Node2&#45;&gt;Node5 -->
<g id="edge4_Node000002_Node000005" class="edge">
<title>Node2&#45;&gt;Node5</title>
<g id="a_edge4_Node000002_Node000005"><a xlink:title=" ">
<path fill="none" stroke="#63b8ff" d="M170.74,-43.56C152.89,-38.53 133.75,-33.15 116.87,-28.39"/>
<polygon fill="#63b8ff" stroke="#63b8ff" points="169.63,-46.88 180.2,-46.22 171.53,-40.14 169.63,-46.88"/>
</a>
</g>
</g>
</g>
</svg>
