<?xml version="1.0" encoding="UTF-8" standalone="no"?>
<!DOCTYPE svg PUBLIC "-//W3C//DTD SVG 1.1//EN"
 "http://www.w3.org/Graphics/SVG/1.1/DTD/svg11.dtd">
<!-- Generated by graphviz version 13.1.0 (20250701.0955)
 -->
<!-- Title: Lib::BSP::Ethercat::PDI::LAN9252::Base Pages: 1 -->
<svg width="301pt" height="993pt"
 viewBox="0.00 0.00 301.00 993.00" xmlns="http://www.w3.org/2000/svg" xmlns:xlink="http://www.w3.org/1999/xlink">
<g id="graph0" class="graph" transform="scale(1 1) rotate(0) translate(4 988.5)">
<title>Lib::BSP::Ethercat::PDI::LAN9252::Base</title>
<!-- Node1 -->
<g id="Node000001" class="node">
<title>Node1</title>
<g id="a_Node000001"><a xlink:title="Base class for LAN9252 EtherCAT PDI driver.">
<polygon fill="#999999" stroke="none" points="198.75,-439.5 55.5,-439.5 55.5,0 198.75,0 198.75,-439.5"/>
<text xml:space="preserve" text-anchor="start" x="82.88" y="-426.95" font-family="Arial" font-size="9.00">Lib::BSP::Ethercat</text>
<text xml:space="preserve" text-anchor="start" x="82.88" y="-416.45" font-family="Arial" font-size="9.00">::PDI::LAN9252::Base</text>
<text xml:space="preserve" text-anchor="start" x="59.5" y="-401.95" font-family="Arial" font-size="9.00">+</text>
<text xml:space="preserve" text-anchor="start" x="68.75" y="-401.95" font-family="Arial" font-size="9.00">static constexpr uint32</text>
<text xml:space="preserve" text-anchor="start" x="68.75" y="-391.45" font-family="Arial" font-size="9.00">_t CHIP_ID</text>
<text xml:space="preserve" text-anchor="start" x="59.5" y="-376.95" font-family="Arial" font-size="9.00">+</text>
<text xml:space="preserve" text-anchor="start" x="68.75" y="-376.95" font-family="Arial" font-size="9.00">Base(const Config</text>
<text xml:space="preserve" text-anchor="start" x="68.75" y="-366.45" font-family="Arial" font-size="9.00"> &amp;config)</text>
<text xml:space="preserve" text-anchor="start" x="59.5" y="-351.95" font-family="Arial" font-size="9.00">+</text>
<text xml:space="preserve" text-anchor="start" x="68.75" y="-351.95" font-family="Arial" font-size="9.00">virtual ~Base()=default</text>
<text xml:space="preserve" text-anchor="start" x="59.5" y="-337.45" font-family="Arial" font-size="9.00">+</text>
<text xml:space="preserve" text-anchor="start" x="68.75" y="-337.45" font-family="Arial" font-size="9.00">bool initialize()</text>
<text xml:space="preserve" text-anchor="start" x="59.5" y="-322.95" font-family="Arial" font-size="9.00">+</text>
<text xml:space="preserve" text-anchor="start" x="68.75" y="-322.95" font-family="Arial" font-size="9.00">bool resetChip()</text>
<text xml:space="preserve" text-anchor="start" x="59.5" y="-308.45" font-family="Arial" font-size="9.00">+</text>
<text xml:space="preserve" text-anchor="start" x="68.75" y="-308.45" font-family="Arial" font-size="9.00">void setResetPin(bool</text>
<text xml:space="preserve" text-anchor="start" x="68.75" y="-297.95" font-family="Arial" font-size="9.00"> value)</text>
<text xml:space="preserve" text-anchor="start" x="59.5" y="-283.45" font-family="Arial" font-size="9.00">+</text>
<text xml:space="preserve" text-anchor="start" x="68.75" y="-283.45" font-family="Arial" font-size="9.00">bool verifyChipId()</text>
<text xml:space="preserve" text-anchor="start" x="59.5" y="-268.95" font-family="Arial" font-size="9.00">+</text>
<text xml:space="preserve" text-anchor="start" x="68.75" y="-268.95" font-family="Arial" font-size="9.00">uint32_t readU32(uint16</text>
<text xml:space="preserve" text-anchor="start" x="68.75" y="-258.45" font-family="Arial" font-size="9.00">_t address)</text>
<text xml:space="preserve" text-anchor="start" x="59.5" y="-243.95" font-family="Arial" font-size="9.00">+</text>
<text xml:space="preserve" text-anchor="start" x="68.75" y="-243.95" font-family="Arial" font-size="9.00">void writeU32(uint16</text>
<text xml:space="preserve" text-anchor="start" x="68.75" y="-233.45" font-family="Arial" font-size="9.00">_t address, uint32_t</text>
<text xml:space="preserve" text-anchor="start" x="68.75" y="-222.95" font-family="Arial" font-size="9.00"> value)</text>
<text xml:space="preserve" text-anchor="start" x="59.5" y="-208.45" font-family="Arial" font-size="9.00">+</text>
<text xml:space="preserve" text-anchor="start" x="68.75" y="-208.45" font-family="Arial" font-size="9.00">uint16_t readAlEventRegister()</text>
<text xml:space="preserve" text-anchor="start" x="59.5" y="-193.95" font-family="Arial" font-size="9.00">+</text>
<text xml:space="preserve" text-anchor="start" x="68.75" y="-193.95" font-family="Arial" font-size="9.00">void readPdiRegister</text>
<text xml:space="preserve" text-anchor="start" x="68.75" y="-183.45" font-family="Arial" font-size="9.00">(uint8_t *destination,</text>
<text xml:space="preserve" text-anchor="start" x="68.75" y="-172.95" font-family="Arial" font-size="9.00"> uint16_t address, uint16</text>
<text xml:space="preserve" text-anchor="start" x="68.75" y="-162.45" font-family="Arial" font-size="9.00">_t length)</text>
<text xml:space="preserve" text-anchor="start" x="59.5" y="-147.95" font-family="Arial" font-size="9.00">+</text>
<text xml:space="preserve" text-anchor="start" x="68.75" y="-147.95" font-family="Arial" font-size="9.00">virtual void readRegister</text>
<text xml:space="preserve" text-anchor="start" x="68.75" y="-137.45" font-family="Arial" font-size="9.00">(uint16_t address, void</text>
<text xml:space="preserve" text-anchor="start" x="68.75" y="-126.95" font-family="Arial" font-size="9.00"> *destination, size_t length)</text>
<text xml:space="preserve" text-anchor="start" x="59.5" y="-112.45" font-family="Arial" font-size="9.00">+</text>
<text xml:space="preserve" text-anchor="start" x="68.75" y="-112.45" font-family="Arial" font-size="9.00">virtual void writeRegister</text>
<text xml:space="preserve" text-anchor="start" x="68.75" y="-101.95" font-family="Arial" font-size="9.00">(uint16_t address, const</text>
<text xml:space="preserve" text-anchor="start" x="68.75" y="-91.45" font-family="Arial" font-size="9.00"> void *source, size_t length)</text>
<text xml:space="preserve" text-anchor="start" x="59.5" y="-76.95" font-family="Arial" font-size="9.00">+</text>
<text xml:space="preserve" text-anchor="start" x="68.75" y="-76.95" font-family="Arial" font-size="9.00">void readCsr(uint16</text>
<text xml:space="preserve" text-anchor="start" x="68.75" y="-66.45" font-family="Arial" font-size="9.00">_t address, void *destination,</text>
<text xml:space="preserve" text-anchor="start" x="68.75" y="-55.95" font-family="Arial" font-size="9.00"> size_t length)</text>
<text xml:space="preserve" text-anchor="start" x="59.5" y="-41.45" font-family="Arial" font-size="9.00">+</text>
<text xml:space="preserve" text-anchor="start" x="68.75" y="-41.45" font-family="Arial" font-size="9.00">uint32_t readBurst()</text>
<text xml:space="preserve" text-anchor="start" x="59.5" y="-26.95" font-family="Arial" font-size="9.00">+</text>
<text xml:space="preserve" text-anchor="start" x="68.75" y="-26.95" font-family="Arial" font-size="9.00">void writeCsr(uint16</text>
<text xml:space="preserve" text-anchor="start" x="68.75" y="-16.45" font-family="Arial" font-size="9.00">_t address, const uint8</text>
<text xml:space="preserve" text-anchor="start" x="68.75" y="-5.95" font-family="Arial" font-size="9.00">_t *source, uint8_t length)</text>
<polygon fill="#666666" stroke="#666666" points="55.5,-412.5 55.5,-412.5 198.75,-412.5 198.75,-412.5 55.5,-412.5"/>
<polygon fill="#666666" stroke="#666666" points="55.5,-387.5 55.5,-387.5 66.75,-387.5 66.75,-387.5 55.5,-387.5"/>
<polygon fill="#666666" stroke="#666666" points="66.75,-387.5 66.75,-387.5 198.75,-387.5 198.75,-387.5 66.75,-387.5"/>
<polygon fill="none" stroke="#666666" points="55.5,0 55.5,-439.5 198.75,-439.5 198.75,0 55.5,0"/>
</a>
</g>
</g>
<!-- Node2 -->
<g id="Node000002" class="node">
<title>Node2</title>
<g id="a_Node000002"><a xlink:href="../../d8/db4/class_lib_1_1_b_s_p_1_1_ethercat_1_1_p_d_i_1_1_l_a_n9252_1_1_interface.html" target="_top" xlink:title="LAN9252 SPI Interface.">
<polygon fill="white" stroke="none" points="198.75,-738.5 55.5,-738.5 55.5,-476.5 198.75,-476.5 198.75,-738.5"/>
<text xml:space="preserve" text-anchor="start" x="75.75" y="-725.95" font-family="Arial" font-size="9.00">Lib::BSP::Ethercat</text>
<text xml:space="preserve" text-anchor="start" x="75.75" y="-715.45" font-family="Arial" font-size="9.00">::PDI::LAN9252::Interface</text>
<text xml:space="preserve" text-anchor="start" x="126" y="-700.95" font-family="Arial" font-size="9.00"> </text>
<text xml:space="preserve" text-anchor="start" x="59.5" y="-686.45" font-family="Arial" font-size="9.00">+</text>
<text xml:space="preserve" text-anchor="start" x="68.75" y="-686.45" font-family="Arial" font-size="9.00">Interface(const Config</text>
<text xml:space="preserve" text-anchor="start" x="68.75" y="-675.95" font-family="Arial" font-size="9.00"> &amp;config)</text>
<text xml:space="preserve" text-anchor="start" x="59.5" y="-661.45" font-family="Arial" font-size="9.00">+</text>
<text xml:space="preserve" text-anchor="start" x="68.75" y="-661.45" font-family="Arial" font-size="9.00">void open()</text>
<text xml:space="preserve" text-anchor="start" x="59.5" y="-646.95" font-family="Arial" font-size="9.00">+</text>
<text xml:space="preserve" text-anchor="start" x="68.75" y="-646.95" font-family="Arial" font-size="9.00">void close()</text>
<text xml:space="preserve" text-anchor="start" x="59.5" y="-632.45" font-family="Arial" font-size="9.00">+</text>
<text xml:space="preserve" text-anchor="start" x="68.75" y="-632.45" font-family="Arial" font-size="9.00">void select()</text>
<text xml:space="preserve" text-anchor="start" x="59.5" y="-617.95" font-family="Arial" font-size="9.00">+</text>
<text xml:space="preserve" text-anchor="start" x="68.75" y="-617.95" font-family="Arial" font-size="9.00">void deselect()</text>
<text xml:space="preserve" text-anchor="start" x="59.5" y="-603.45" font-family="Arial" font-size="9.00">+</text>
<text xml:space="preserve" text-anchor="start" x="68.75" y="-603.45" font-family="Arial" font-size="9.00">bool readWrite(const</text>
<text xml:space="preserve" text-anchor="start" x="68.75" y="-592.95" font-family="Arial" font-size="9.00"> void *writeData, size</text>
<text xml:space="preserve" text-anchor="start" x="68.75" y="-582.45" font-family="Arial" font-size="9.00">_t writeLength, void *readData,</text>
<text xml:space="preserve" text-anchor="start" x="68.75" y="-571.95" font-family="Arial" font-size="9.00"> size_t readLength)</text>
<text xml:space="preserve" text-anchor="start" x="59.5" y="-557.45" font-family="Arial" font-size="9.00">+</text>
<text xml:space="preserve" text-anchor="start" x="68.75" y="-557.45" font-family="Arial" font-size="9.00">bool write(const void</text>
<text xml:space="preserve" text-anchor="start" x="68.75" y="-546.95" font-family="Arial" font-size="9.00"> *writeData, size_t length)</text>
<text xml:space="preserve" text-anchor="start" x="59.5" y="-532.45" font-family="Arial" font-size="9.00">+</text>
<text xml:space="preserve" text-anchor="start" x="68.75" y="-532.45" font-family="Arial" font-size="9.00">bool write(uint8_t</text>
<text xml:space="preserve" text-anchor="start" x="68.75" y="-521.95" font-family="Arial" font-size="9.00"> value)</text>
<text xml:space="preserve" text-anchor="start" x="59.5" y="-507.45" font-family="Arial" font-size="9.00">+</text>
<text xml:space="preserve" text-anchor="start" x="68.75" y="-507.45" font-family="Arial" font-size="9.00">bool read(void *readData,</text>
<text xml:space="preserve" text-anchor="start" x="68.75" y="-496.95" font-family="Arial" font-size="9.00"> size_t length)</text>
<text xml:space="preserve" text-anchor="start" x="59.5" y="-482.45" font-family="Arial" font-size="9.00">+</text>
<text xml:space="preserve" text-anchor="start" x="68.75" y="-482.45" font-family="Arial" font-size="9.00">bool read(uint8_t &amp;value)</text>
<polygon fill="#666666" stroke="#666666" points="55.5,-711.5 55.5,-711.5 198.75,-711.5 198.75,-711.5 55.5,-711.5"/>
<polygon fill="#666666" stroke="#666666" points="55.5,-697 55.5,-697 198.75,-697 198.75,-697 55.5,-697"/>
<polygon fill="none" stroke="#666666" points="55.5,-476.5 55.5,-738.5 198.75,-738.5 198.75,-476.5 55.5,-476.5"/>
</a>
</g>
</g>
<!-- Node2&#45;&gt;Node1 -->
<g id="edge1_Node000001_Node000002" class="edge">
<title>Node2&#45;&gt;Node1</title>
<g id="a_edge1_Node000001_Node000002"><a xlink:title=" ">
<path fill="none" stroke="#63b8ff" d="M127.12,-465.22C127.12,-456.73 127.12,-448.09 127.12,-439.38"/>
<polygon fill="none" stroke="#63b8ff" points="123.63,-465.2 127.13,-475.2 130.63,-465.2 123.63,-465.2"/>
</a>
</g>
</g>
<!-- Node3 -->
<g id="Node000003" class="node">
<title>Node3</title>
<g id="a_Node000003"><a xlink:href="../../dc/dc1/class_lib_1_1_h_a_l_1_1_s_p_i_1_1_master_1_1_port.html" target="_top" xlink:title=" ">
<polygon fill="white" stroke="none" points="124.25,-859.5 0,-859.5 0,-791 124.25,-791 124.25,-859.5"/>
<text xml:space="preserve" text-anchor="start" x="4" y="-846.95" font-family="Arial" font-size="9.00">Lib::HAL::SPI::Master</text>
<text xml:space="preserve" text-anchor="start" x="4" y="-836.45" font-family="Arial" font-size="9.00">::Port&lt; Lib::HAL::DriverMode</text>
<text xml:space="preserve" text-anchor="start" x="46.38" y="-825.95" font-family="Arial" font-size="9.00">::DMA &gt;</text>
<text xml:space="preserve" text-anchor="start" x="61" y="-811.45" font-family="Arial" font-size="9.00"> </text>
<text xml:space="preserve" text-anchor="start" x="61" y="-796.95" font-family="Arial" font-size="9.00"> </text>
<polygon fill="#666666" stroke="#666666" points="0,-822 0,-822 124.25,-822 124.25,-822 0,-822"/>
<polygon fill="#666666" stroke="#666666" points="0,-807.5 0,-807.5 124.25,-807.5 124.25,-807.5 0,-807.5"/>
<polygon fill="none" stroke="#666666" points="0,-791 0,-859.5 124.25,-859.5 124.25,-791 0,-791"/>
</a>
</g>
</g>
<!-- Node3&#45;&gt;Node2 -->
<g id="edge2_Node000002_Node000003" class="edge">
<title>Node3&#45;&gt;Node2</title>
<g id="a_edge2_Node000002_Node000003"><a xlink:title=" ">
<path fill="none" stroke="#63b8ff" d="M72.14,-791.01C75.65,-779.35 79.85,-765.41 84.34,-750.5"/>
<polygon fill="none" stroke="#63b8ff" points="84.28,-750.72 82.18,-743.82 87.74,-739.23 89.84,-746.13 84.28,-750.72"/>
</a>
</g>
<text xml:space="preserve" text-anchor="start" x="84.33" y="-761.45" font-family="Arial" font-size="9.00" fill="grey">+spi</text>
</g>
<!-- Node4 -->
<g id="Node000004" class="node">
<title>Node4</title>
<g id="a_Node000004"><a xlink:href="../../dc/dc1/class_lib_1_1_h_a_l_1_1_s_p_i_1_1_master_1_1_port.html" target="_top" xlink:title="SPI master port template forward declaration.">
<polygon fill="white" stroke="none" points="109.25,-984.5 15,-984.5 15,-926.5 109.25,-926.5 109.25,-984.5"/>
<text xml:space="preserve" text-anchor="start" x="19" y="-971.95" font-family="Arial" font-size="9.00">Lib::HAL::SPI::Master</text>
<text xml:space="preserve" text-anchor="start" x="25.38" y="-961.45" font-family="Arial" font-size="9.00">::Port&lt; T_MODE &gt;</text>
<text xml:space="preserve" text-anchor="start" x="61" y="-946.95" font-family="Arial" font-size="9.00"> </text>
<text xml:space="preserve" text-anchor="start" x="61" y="-932.45" font-family="Arial" font-size="9.00"> </text>
<polygon fill="#666666" stroke="#666666" points="15,-957.5 15,-957.5 109.25,-957.5 109.25,-957.5 15,-957.5"/>
<polygon fill="#666666" stroke="#666666" points="15,-943 15,-943 109.25,-943 109.25,-943 15,-943"/>
<polygon fill="none" stroke="#666666" points="15,-926.5 15,-984.5 109.25,-984.5 109.25,-926.5 15,-926.5"/>
</a>
</g>
</g>
<!-- Node4&#45;&gt;Node3 -->
<g id="edge3_Node000003_Node000004" class="edge">
<title>Node4&#45;&gt;Node3</title>
<g id="a_edge3_Node000003_Node000004"><a xlink:title=" ">
<path fill="none" stroke="orange" d="M62.12,-915.18C62.12,-897.36 62.12,-876.51 62.12,-859.48"/>
<polygon fill="orange" stroke="orange" points="58.63,-915.16 62.13,-925.16 65.63,-915.16 58.63,-915.16"/>
</a>
</g>
<text xml:space="preserve" text-anchor="start" x="65.12" y="-896.95" font-family="Arial" font-size="9.00" fill="grey">&lt; Lib::HAL::DriverMode</text>
<text xml:space="preserve" text-anchor="start" x="65.12" y="-882.45" font-family="Arial" font-size="9.00" fill="grey">  ::DMA &gt;</text>
</g>
<!-- Node5 -->
<g id="Node000005" class="node">
<title>Node5</title>
<g id="a_Node000005"><a xlink:href="../../d5/d05/class_lib_1_1_h_a_l_1_1_g_p_i_o_1_1_pin.html" target="_top" xlink:title=" ">
<polygon fill="white" stroke="none" points="244,-859.5 142.25,-859.5 142.25,-791 244,-791 244,-859.5"/>
<text xml:space="preserve" text-anchor="start" x="146.25" y="-846.95" font-family="Arial" font-size="9.00">Lib::HAL::GPIO::Pin</text>
<text xml:space="preserve" text-anchor="start" x="146.25" y="-836.45" font-family="Arial" font-size="9.00">&lt; Lib::HAL::GPIO::Type</text>
<text xml:space="preserve" text-anchor="start" x="168.75" y="-825.95" font-family="Arial" font-size="9.00">::OUTPUT &gt;</text>
<text xml:space="preserve" text-anchor="start" x="192" y="-811.45" font-family="Arial" font-size="9.00"> </text>
<text xml:space="preserve" text-anchor="start" x="192" y="-796.95" font-family="Arial" font-size="9.00"> </text>
<polygon fill="#666666" stroke="#666666" points="142.25,-822 142.25,-822 244,-822 244,-822 142.25,-822"/>
<polygon fill="#666666" stroke="#666666" points="142.25,-807.5 142.25,-807.5 244,-807.5 244,-807.5 142.25,-807.5"/>
<polygon fill="none" stroke="#666666" points="142.25,-791 142.25,-859.5 244,-859.5 244,-791 142.25,-791"/>
</a>
</g>
</g>
<!-- Node5&#45;&gt;Node2 -->
<g id="edge4_Node000002_Node000005" class="edge">
<title>Node5&#45;&gt;Node2</title>
<g id="a_edge4_Node000002_Node000005"><a xlink:title=" ">
<path fill="none" stroke="#63b8ff" d="M182.96,-791.01C179.39,-779.35 175.13,-765.41 170.57,-750.5"/>
<polygon fill="none" stroke="#63b8ff" points="170.63,-750.7 165.05,-746.13 167.12,-739.23 172.7,-743.79 170.63,-750.7"/>
</a>
</g>
<text xml:space="preserve" text-anchor="start" x="180.18" y="-761.45" font-family="Arial" font-size="9.00" fill="grey">+pinSelect</text>
</g>
<!-- Node6 -->
<g id="Node000006" class="node">
<title>Node6</title>
<g id="a_Node000006"><a xlink:href="../../d5/d05/class_lib_1_1_h_a_l_1_1_g_p_i_o_1_1_pin.html" target="_top" xlink:title="GPIO pin template class.">
<polygon fill="white" stroke="none" points="236.88,-984.5 149.38,-984.5 149.38,-926.5 236.88,-926.5 236.88,-984.5"/>
<text xml:space="preserve" text-anchor="start" x="153.38" y="-971.95" font-family="Arial" font-size="9.00">Lib::HAL::GPIO::Pin</text>
<text xml:space="preserve" text-anchor="start" x="167.62" y="-961.45" font-family="Arial" font-size="9.00">&lt; pinMode &gt;</text>
<text xml:space="preserve" text-anchor="start" x="192" y="-946.95" font-family="Arial" font-size="9.00"> </text>
<text xml:space="preserve" text-anchor="start" x="192" y="-932.45" font-family="Arial" font-size="9.00"> </text>
<polygon fill="#666666" stroke="#666666" points="149.38,-957.5 149.38,-957.5 236.88,-957.5 236.88,-957.5 149.38,-957.5"/>
<polygon fill="#666666" stroke="#666666" points="149.38,-943 149.38,-943 236.88,-943 236.88,-943 149.38,-943"/>
<polygon fill="none" stroke="#666666" points="149.38,-926.5 149.38,-984.5 236.88,-984.5 236.88,-926.5 149.38,-926.5"/>
</a>
</g>
</g>
<!-- Node6&#45;&gt;Node5 -->
<g id="edge5_Node000005_Node000006" class="edge">
<title>Node6&#45;&gt;Node5</title>
<g id="a_edge5_Node000005_Node000006"><a xlink:title=" ">
<path fill="none" stroke="orange" d="M193.12,-915.18C193.12,-897.36 193.12,-876.51 193.12,-859.48"/>
<polygon fill="orange" stroke="orange" points="189.63,-915.16 193.13,-925.16 196.63,-915.16 189.63,-915.16"/>
</a>
</g>
<text xml:space="preserve" text-anchor="start" x="196.12" y="-896.95" font-family="Arial" font-size="9.00" fill="grey">&lt; Lib::HAL::GPIO::Type</text>
<text xml:space="preserve" text-anchor="start" x="196.12" y="-882.45" font-family="Arial" font-size="9.00" fill="grey">  ::OUTPUT &gt;</text>
</g>
</g>
</svg>
