<?xml version="1.0" encoding="UTF-8" standalone="no"?>
<!DOCTYPE svg PUBLIC "-//W3C//DTD SVG 1.1//EN"
 "http://www.w3.org/Graphics/SVG/1.1/DTD/svg11.dtd">
<!-- Generated by graphviz version 13.1.0 (20250701.0955)
 -->
<!-- Title: Lib::HAL::UART::Base::getBaudrate Pages: 1 -->
<svg width="423pt" height="84pt"
 viewBox="0.00 0.00 423.00 84.00" xmlns="http://www.w3.org/2000/svg" xmlns:xlink="http://www.w3.org/1999/xlink">
<g id="graph0" class="graph" transform="scale(1 1) rotate(0) translate(4 80)">
<title>Lib::HAL::UART::Base::getBaudrate</title>
<!-- Node1 -->
<g id="Node000001" class="node">
<title>Node1</title>
<g id="a_Node000001"><a xlink:title="Gets the current UART baudrate.">
<polygon fill="#999999" stroke="#666666" points="414.75,-52 310.25,-52 310.25,-23 414.75,-23 414.75,-52"/>
<text xml:space="preserve" text-anchor="start" x="318.25" y="-39.45" font-family="Arial" font-size="9.00">Lib::HAL::UART::Base</text>
<text xml:space="preserve" text-anchor="middle" x="362.5" y="-28.95" font-family="Arial" font-size="9.00">::getBaudrate</text>
</a>
</g>
</g>
<!-- Node2 -->
<g id="Node000002" class="node">
<title>Node2</title>
<g id="a_Node000002"><a xlink:href="$de/d75/class_lib_1_1_h_a_l_1_1_u_a_r_t_1_1_transperent_base.html#a8121479e3d81906122da8d73b9f6a8d1" xlink:title="Gets the UART baudrate.">
<polygon fill="white" stroke="#666666" points="274.25,-52 141.25,-52 141.25,-23 274.25,-23 274.25,-52"/>
<text xml:space="preserve" text-anchor="start" x="149.25" y="-39.45" font-family="Arial" font-size="9.00">Lib::HAL::UART::Transperent</text>
<text xml:space="preserve" text-anchor="middle" x="207.75" y="-28.95" font-family="Arial" font-size="9.00">Base::getBaudrate</text>
</a>
</g>
</g>
<!-- Node1&#45;&gt;Node2 -->
<g id="edge1_Node000001_Node000002" class="edge">
<title>Node1&#45;&gt;Node2</title>
<g id="a_edge1_Node000001_Node000002"><a xlink:title=" ">
<path fill="none" stroke="#63b8ff" d="M298.4,-37.5C290.51,-37.5 282.42,-37.5 274.49,-37.5"/>
<polygon fill="#63b8ff" stroke="#63b8ff" points="298.27,-41 308.27,-37.5 298.27,-34 298.27,-41"/>
</a>
</g>
</g>
<!-- Node3 -->
<g id="Node000003" class="node">
<title>Node3</title>
<g id="a_Node000003"><a xlink:href="$d3/d98/class_lib_1_1_h_a_l_1_1_u_a_r_t_1_1_port_3_01_d_m_a_01_4.html#ae3b06e6f52e640bdcb65cea8df1f9ea0" xlink:title="Gets current UART baudrate.">
<polygon fill="white" stroke="#666666" points="105.25,-76 0,-76 0,-47 105.25,-47 105.25,-76"/>
<text xml:space="preserve" text-anchor="start" x="8" y="-63.45" font-family="Arial" font-size="9.00">Lib::HAL::UART::Port</text>
<text xml:space="preserve" text-anchor="middle" x="52.62" y="-52.95" font-family="Arial" font-size="9.00">&lt; DMA &gt;::getBaudrate</text>
</a>
</g>
</g>
<!-- Node2&#45;&gt;Node3 -->
<g id="edge2_Node000002_Node000003" class="edge">
<title>Node2&#45;&gt;Node3</title>
<g id="a_edge2_Node000002_Node000003"><a xlink:title=" ">
<path fill="none" stroke="#63b8ff" d="M129.76,-49.57C121.55,-50.85 113.35,-52.14 105.53,-53.36"/>
<polygon fill="#63b8ff" stroke="#63b8ff" points="130.09,-53.06 139.43,-48.05 129.01,-46.14 130.09,-53.06"/>
</a>
</g>
</g>
<!-- Node4 -->
<g id="Node000004" class="node">
<title>Node4</title>
<g id="a_Node000004"><a xlink:href="$d3/d03/class_lib_1_1_h_a_l_1_1_u_a_r_t_1_1_port_3_01_i_t_01_4.html#a425bb18b39e477911d651ca6f6ea620d" xlink:title="Gets current UART baudrate.">
<polygon fill="white" stroke="#666666" points="102.62,-29 2.62,-29 2.62,0 102.62,0 102.62,-29"/>
<text xml:space="preserve" text-anchor="start" x="10.62" y="-16.45" font-family="Arial" font-size="9.00">Lib::HAL::UART::Port</text>
<text xml:space="preserve" text-anchor="middle" x="52.62" y="-5.95" font-family="Arial" font-size="9.00">&lt; IT &gt;::getBaudrate</text>
</a>
</g>
</g>
<!-- Node2&#45;&gt;Node4 -->
<g id="edge3_Node000002_Node000004" class="edge">
<title>Node2&#45;&gt;Node4</title>
<g id="a_edge3_Node000002_Node000004"><a xlink:title=" ">
<path fill="none" stroke="#63b8ff" d="M129.75,-25.93C120.56,-24.55 111.39,-23.18 102.75,-21.88"/>
<polygon fill="#63b8ff" stroke="#63b8ff" points="129.02,-29.36 139.43,-27.39 130.06,-22.44 129.02,-29.36"/>
</a>
</g>
</g>
</g>
</svg>
