<?xml version="1.0" encoding="UTF-8" standalone="no"?>
<!DOCTYPE svg PUBLIC "-//W3C//DTD SVG 1.1//EN"
 "http://www.w3.org/Graphics/SVG/1.1/DTD/svg11.dtd">
<!-- Generated by graphviz version 13.1.0 (20250701.0955)
 -->
<!-- Title: Lib::HAL::UART::Base::deinit Pages: 1 -->
<svg width="664pt" height="90pt"
 viewBox="0.00 0.00 664.00 90.00" xmlns="http://www.w3.org/2000/svg" xmlns:xlink="http://www.w3.org/1999/xlink">
<g id="graph0" class="graph" transform="scale(1 1) rotate(0) translate(4 86)">
<title>Lib::HAL::UART::Base::deinit</title>
<!-- Node1 -->
<g id="Node000001" class="node">
<title>Node1</title>
<g id="a_Node000001"><a xlink:title="Deinitializes the UART hardware and asserts on failure.">
<polygon fill="#999999" stroke="#666666" points="655.75,-57 540.75,-57 540.75,-25 655.75,-25 655.75,-57"/>
<text xml:space="preserve" text-anchor="start" x="548.75" y="-43.5" font-family="Helvetica,sans-Serif" font-size="10.00">Lib::HAL::UART::Base</text>
<text xml:space="preserve" text-anchor="middle" x="598.25" y="-31.5" font-family="Helvetica,sans-Serif" font-size="10.00">::deinit</text>
</a>
</g>
</g>
<!-- Node2 -->
<g id="Node000002" class="node">
<title>Node2</title>
<g id="a_Node000002"><a xlink:href="../../de/d75/class_lib_1_1_h_a_l_1_1_u_a_r_t_1_1_transperent_base.html#a41e87839d6d05ca19c0c57698cd816ed" target="_top" xlink:title="Deinitializes the UART device and unregisters HAL callbacks.">
<polygon fill="white" stroke="#666666" points="504.75,-82 360.5,-82 360.5,-50 504.75,-50 504.75,-82"/>
<text xml:space="preserve" text-anchor="start" x="368.5" y="-68.5" font-family="Helvetica,sans-Serif" font-size="10.00">Lib::HAL::UART::Transperent</text>
<text xml:space="preserve" text-anchor="middle" x="432.62" y="-56.5" font-family="Helvetica,sans-Serif" font-size="10.00">Base::deinit</text>
</a>
</g>
</g>
<!-- Node1&#45;&gt;Node2 -->
<g id="edge1_Node000001_Node000002" class="edge">
<title>Node1&#45;&gt;Node2</title>
<g id="a_edge1_Node000001_Node000002"><a xlink:title=" ">
<path fill="none" stroke="#63b8ff" d="M529.29,-51.38C521.27,-52.61 513.06,-53.86 505,-55.1"/>
<polygon fill="#63b8ff" stroke="#63b8ff" points="529.63,-54.87 538.98,-49.9 528.57,-47.95 529.63,-54.87"/>
</a>
</g>
</g>
<!-- Node5 -->
<g id="Node000005" class="node">
<title>Node5</title>
<g id="a_Node000005"><a xlink:href="../../d2/d33/class_lib_1_1_h_a_l_1_1_u_a_r_t_1_1_base.html#a4b83fc10eb1f9207468ec97016487aa3" target="_top" xlink:title="Sets the UART baudrate, reinitializing hardware if changed.">
<polygon fill="white" stroke="#666666" points="490.12,-32 375.12,-32 375.12,0 490.12,0 490.12,-32"/>
<text xml:space="preserve" text-anchor="start" x="383.12" y="-18.5" font-family="Helvetica,sans-Serif" font-size="10.00">Lib::HAL::UART::Base</text>
<text xml:space="preserve" text-anchor="middle" x="432.62" y="-6.5" font-family="Helvetica,sans-Serif" font-size="10.00">::setBaudrate</text>
</a>
</g>
</g>
<!-- Node1&#45;&gt;Node5 -->
<g id="edge4_Node000001_Node000005" class="edge">
<title>Node1&#45;&gt;Node5</title>
<g id="a_edge4_Node000001_Node000005"><a xlink:title=" ">
<path fill="none" stroke="#63b8ff" d="M529.31,-30.62C516.43,-28.65 503.07,-26.61 490.57,-24.7"/>
<polygon fill="#63b8ff" stroke="#63b8ff" points="528.57,-34.05 538.98,-32.1 529.63,-27.13 528.57,-34.05"/>
</a>
</g>
</g>
<!-- Node3 -->
<g id="Node000003" class="node">
<title>Node3</title>
<g id="a_Node000003"><a xlink:href="../../de/d75/class_lib_1_1_h_a_l_1_1_u_a_r_t_1_1_transperent_base.html#a6605e6c85c2a19af871b6d250a6fdfab" target="_top" xlink:title="Closes the UART device, releases buffers/semaphores, and unregisters from DeviceManager.">
<polygon fill="white" stroke="#666666" points="324.5,-82 180.25,-82 180.25,-50 324.5,-50 324.5,-82"/>
<text xml:space="preserve" text-anchor="start" x="188.25" y="-68.5" font-family="Helvetica,sans-Serif" font-size="10.00">Lib::HAL::UART::Transperent</text>
<text xml:space="preserve" text-anchor="middle" x="252.38" y="-56.5" font-family="Helvetica,sans-Serif" font-size="10.00">Base::close</text>
</a>
</g>
</g>
<!-- Node2&#45;&gt;Node3 -->
<g id="edge2_Node000002_Node000003" class="edge">
<title>Node2&#45;&gt;Node3</title>
<g id="a_edge2_Node000002_Node000003"><a xlink:title=" ">
<path fill="none" stroke="#63b8ff" d="M348.88,-66C340.86,-66 332.77,-66 324.87,-66"/>
<polygon fill="#63b8ff" stroke="#63b8ff" points="348.64,-69.5 358.64,-66 348.64,-62.5 348.64,-69.5"/>
</a>
</g>
</g>
<!-- Node4 -->
<g id="Node000004" class="node">
<title>Node4</title>
<g id="a_Node000004"><a xlink:href="../../de/d75/class_lib_1_1_h_a_l_1_1_u_a_r_t_1_1_transperent_base.html#a1b8b845b654a6d1c8c9fad2e35aabc72" target="_top" xlink:title="Destroys the transparent UART base class.">
<polygon fill="white" stroke="#666666" points="144.25,-82 0,-82 0,-50 144.25,-50 144.25,-82"/>
<text xml:space="preserve" text-anchor="start" x="8" y="-68.5" font-family="Helvetica,sans-Serif" font-size="10.00">Lib::HAL::UART::Transperent</text>
<text xml:space="preserve" text-anchor="middle" x="72.12" y="-56.5" font-family="Helvetica,sans-Serif" font-size="10.00">Base::~TransperentBase</text>
</a>
</g>
</g>
<!-- Node3&#45;&gt;Node4 -->
<g id="edge3_Node000003_Node000004" class="edge">
<title>Node3&#45;&gt;Node4</title>
<g id="a_edge3_Node000003_Node000004"><a xlink:title=" ">
<path fill="none" stroke="#63b8ff" d="M168.63,-66C160.61,-66 152.52,-66 144.62,-66"/>
<polygon fill="#63b8ff" stroke="#63b8ff" points="168.39,-69.5 178.39,-66 168.39,-62.5 168.39,-69.5"/>
</a>
</g>
</g>
<!-- Node6 -->
<g id="Node000006" class="node">
<title>Node6</title>
<g id="a_Node000006"><a xlink:href="../../de/d75/class_lib_1_1_h_a_l_1_1_u_a_r_t_1_1_transperent_base.html#a7fb5c19d3ce5f365b248baf0a484f870" target="_top" xlink:title="Sets the UART baudrate.">
<polygon fill="white" stroke="#666666" points="324.5,-32 180.25,-32 180.25,0 324.5,0 324.5,-32"/>
<text xml:space="preserve" text-anchor="start" x="188.25" y="-18.5" font-family="Helvetica,sans-Serif" font-size="10.00">Lib::HAL::UART::Transperent</text>
<text xml:space="preserve" text-anchor="middle" x="252.38" y="-6.5" font-family="Helvetica,sans-Serif" font-size="10.00">Base::setBaudrate</text>
</a>
</g>
</g>
<!-- Node5&#45;&gt;Node6 -->
<g id="edge5_Node000005_Node000006" class="edge">
<title>Node5&#45;&gt;Node6</title>
<g id="a_edge5_Node000005_Node000006"><a xlink:title=" ">
<path fill="none" stroke="#63b8ff" d="M363.33,-16C350.7,-16 337.47,-16 324.75,-16"/>
<polygon fill="#63b8ff" stroke="#63b8ff" points="363.22,-19.5 373.22,-16 363.22,-12.5 363.22,-19.5"/>
</a>
</g>
</g>
</g>
</svg>
