<?xml version="1.0" encoding="UTF-8" standalone="no"?>
<!DOCTYPE svg PUBLIC "-//W3C//DTD SVG 1.1//EN"
 "http://www.w3.org/Graphics/SVG/1.1/DTD/svg11.dtd">
<!-- Generated by graphviz version 13.1.0 (20250701.0955)
 -->
<!-- Title: TickService.hpp Pages: 1 -->
<svg width="772pt" height="196pt"
 viewBox="0.00 0.00 772.00 196.00" xmlns="http://www.w3.org/2000/svg" xmlns:xlink="http://www.w3.org/1999/xlink">
<g id="graph0" class="graph" transform="scale(1 1) rotate(0) translate(4 192)">
<title>TickService.hpp</title>
<!-- Node1 -->
<g id="Node000001" class="node">
<title>Node1</title>
<g id="a_Node000001"><a xlink:title="Provides a tick event service for RTOS clients.">
<polygon fill="#999999" stroke="#666666" points="233.62,-188 147.12,-188 147.12,-168 233.62,-168 233.62,-188"/>
<text xml:space="preserve" text-anchor="middle" x="190.38" y="-174.5" font-family="Helvetica,sans-Serif" font-size="10.00">TickService.hpp</text>
</a>
</g>
</g>
<!-- Node2 -->
<g id="Node000002" class="node">
<title>Node2</title>
<g id="a_Node000002"><a xlink:href="../../db/dab/a00089.html" target="_top" xlink:title="Mutex class providing mutual exclusion for RTOS tasks and its RAII guard for scoped locking.">
<polygon fill="white" stroke="#666666" points="95.25,-132 33.5,-132 33.5,-112 95.25,-112 95.25,-132"/>
<text xml:space="preserve" text-anchor="middle" x="64.38" y="-118.5" font-family="Helvetica,sans-Serif" font-size="10.00">Mutex.hpp</text>
</a>
</g>
</g>
<!-- Node1&#45;&gt;Node2 -->
<g id="edge1_Node000001_Node000002" class="edge">
<title>Node1&#45;&gt;Node2</title>
<g id="a_edge1_Node000001_Node000002"><a xlink:title=" ">
<path fill="none" stroke="#63b8ff" d="M168.43,-167.59C148.67,-159.13 119.38,-146.58 96.91,-136.94"/>
<polygon fill="#63b8ff" stroke="#63b8ff" points="98.46,-133.8 87.88,-133.08 95.7,-140.23 98.46,-133.8"/>
</a>
</g>
</g>
<!-- Node5 -->
<g id="Node000005" class="node">
<title>Node5</title>
<g id="a_Node000005"><a xlink:title=" ">
<polygon fill="#e0e0e0" stroke="#999999" points="158.5,-20 110.25,-20 110.25,0 158.5,0 158.5,-20"/>
<text xml:space="preserve" text-anchor="middle" x="134.38" y="-6.5" font-family="Helvetica,sans-Serif" font-size="10.00">cassert</text>
</a>
</g>
</g>
<!-- Node1&#45;&gt;Node5 -->
<g id="edge18_Node000001_Node000005" class="edge">
<title>Node1&#45;&gt;Node5</title>
<g id="a_edge18_Node000001_Node000005"><a xlink:title=" ">
<path fill="none" stroke="#63b8ff" d="M186.69,-167.6C179.79,-149.84 164.58,-110.06 153.38,-76 148.48,-61.1 143.52,-44.09 139.9,-31.2"/>
<polygon fill="#63b8ff" stroke="#63b8ff" points="143.34,-30.48 137.29,-21.78 136.59,-32.35 143.34,-30.48"/>
</a>
</g>
</g>
<!-- Node7 -->
<g id="Node000007" class="node">
<title>Node7</title>
<g id="a_Node000007"><a xlink:href="../../d4/d81/a00110.html" target="_top" xlink:title="C++ interface for FreeRTOS task management.">
<polygon fill="white" stroke="#666666" points="412.25,-132 356.5,-132 356.5,-112 412.25,-112 412.25,-132"/>
<text xml:space="preserve" text-anchor="middle" x="384.38" y="-118.5" font-family="Helvetica,sans-Serif" font-size="10.00">Task.hpp</text>
</a>
</g>
</g>
<!-- Node1&#45;&gt;Node7 -->
<g id="edge6_Node000001_Node000007" class="edge">
<title>Node1&#45;&gt;Node7</title>
<g id="a_edge6_Node000001_Node000007"><a xlink:title=" ">
<path fill="none" stroke="#63b8ff" d="M224.17,-167.59C257.86,-158.21 309.59,-143.82 345.09,-133.93"/>
<polygon fill="#63b8ff" stroke="#63b8ff" points="345.86,-137.35 354.55,-131.3 343.98,-130.61 345.86,-137.35"/>
</a>
</g>
</g>
<!-- Node10 -->
<g id="Node000010" class="node">
<title>Node10</title>
<g id="a_Node000010"><a xlink:title=" ">
<polygon fill="#e0e0e0" stroke="#999999" points="218.25,-76 162.5,-76 162.5,-56 218.25,-56 218.25,-76"/>
<text xml:space="preserve" text-anchor="middle" x="190.38" y="-62.5" font-family="Helvetica,sans-Serif" font-size="10.00">algorithm</text>
</a>
</g>
</g>
<!-- Node1&#45;&gt;Node10 -->
<g id="edge17_Node000001_Node000010" class="edge">
<title>Node1&#45;&gt;Node10</title>
<g id="a_edge17_Node000001_Node000010"><a xlink:title=" ">
<path fill="none" stroke="#63b8ff" d="M190.38,-167.62C190.38,-150.01 190.38,-111.59 190.38,-87.65"/>
<polygon fill="#63b8ff" stroke="#63b8ff" points="193.88,-87.87 190.38,-77.87 186.88,-87.87 193.88,-87.87"/>
</a>
</g>
</g>
<!-- Node16 -->
<g id="Node000016" class="node">
<title>Node16</title>
<g id="a_Node000016"><a xlink:title=" ">
<polygon fill="#e0e0e0" stroke="#999999" points="472.88,-132 429.88,-132 429.88,-112 472.88,-112 472.88,-132"/>
<text xml:space="preserve" text-anchor="middle" x="451.38" y="-118.5" font-family="Helvetica,sans-Serif" font-size="10.00">vector</text>
</a>
</g>
</g>
<!-- Node1&#45;&gt;Node16 -->
<g id="edge19_Node000001_Node000016" class="edge">
<title>Node1&#45;&gt;Node16</title>
<g id="a_edge19_Node000001_Node000016"><a xlink:title=" ">
<path fill="none" stroke="#63b8ff" d="M234.08,-169.82C278.38,-162.24 349.08,-149.35 418.38,-132.57"/>
<polygon fill="#63b8ff" stroke="#63b8ff" points="419.14,-135.98 428.02,-130.2 417.47,-129.19 419.14,-135.98"/>
</a>
</g>
</g>
<!-- Node3 -->
<g id="Node000003" class="node">
<title>Node3</title>
<g id="a_Node000003"><a xlink:href="../../d4/d3a/a00101.html" target="_top" xlink:title="Base class for FreeRTOS semaphore management.">
<polygon fill="white" stroke="#666666" points="106.75,-76 0,-76 0,-56 106.75,-56 106.75,-76"/>
<text xml:space="preserve" text-anchor="middle" x="53.38" y="-62.5" font-family="Helvetica,sans-Serif" font-size="10.00">SemaphoreBase.hpp</text>
</a>
</g>
</g>
<!-- Node2&#45;&gt;Node3 -->
<g id="edge2_Node000002_Node000003" class="edge">
<title>Node2&#45;&gt;Node3</title>
<g id="a_edge2_Node000002_Node000003"><a xlink:title=" ">
<path fill="none" stroke="#63b8ff" d="M62.46,-111.59C61.1,-104.93 59.23,-95.75 57.54,-87.44"/>
<polygon fill="#63b8ff" stroke="#63b8ff" points="61,-86.88 55.57,-77.78 54.14,-88.28 61,-86.88"/>
</a>
</g>
</g>
<!-- Node4 -->
<g id="Node000004" class="node">
<title>Node4</title>
<g id="a_Node000004"><a xlink:title=" ">
<polygon fill="#e0e0e0" stroke="#999999" points="81.62,-20 25.12,-20 25.12,0 81.62,0 81.62,-20"/>
<text xml:space="preserve" text-anchor="middle" x="53.38" y="-6.5" font-family="Helvetica,sans-Serif" font-size="10.00">semphr.h</text>
</a>
</g>
</g>
<!-- Node3&#45;&gt;Node4 -->
<g id="edge3_Node000003_Node000004" class="edge">
<title>Node3&#45;&gt;Node4</title>
<g id="a_edge3_Node000003_Node000004"><a xlink:title=" ">
<path fill="none" stroke="#63b8ff" d="M53.38,-55.59C53.38,-49.01 53.38,-39.96 53.38,-31.73"/>
<polygon fill="#63b8ff" stroke="#63b8ff" points="56.88,-31.81 53.38,-21.81 49.88,-31.81 56.88,-31.81"/>
</a>
</g>
</g>
<!-- Node3&#45;&gt;Node5 -->
<g id="edge4_Node000003_Node000005" class="edge">
<title>Node3&#45;&gt;Node5</title>
<g id="a_edge4_Node000003_Node000005"><a xlink:title=" ">
<path fill="none" stroke="#63b8ff" d="M67.48,-55.59C79.37,-47.67 96.64,-36.16 110.65,-26.82"/>
<polygon fill="#63b8ff" stroke="#63b8ff" points="112.52,-29.78 118.9,-21.32 108.63,-23.95 112.52,-29.78"/>
</a>
</g>
</g>
<!-- Node6 -->
<g id="Node000006" class="node">
<title>Node6</title>
<g id="a_Node000006"><a xlink:title=" ">
<polygon fill="#e0e0e0" stroke="#999999" points="264,-20 218.75,-20 218.75,0 264,0 264,-20"/>
<text xml:space="preserve" text-anchor="middle" x="241.38" y="-6.5" font-family="Helvetica,sans-Serif" font-size="10.00">cstdint</text>
</a>
</g>
</g>
<!-- Node3&#45;&gt;Node6 -->
<g id="edge5_Node000003_Node000006" class="edge">
<title>Node3&#45;&gt;Node6</title>
<g id="a_edge5_Node000003_Node000006"><a xlink:title=" ">
<path fill="none" stroke="#63b8ff" d="M86.12,-55.59C120.15,-45.82 173.14,-30.6 207.56,-20.71"/>
<polygon fill="#63b8ff" stroke="#63b8ff" points="208.36,-24.12 217.01,-18 206.43,-17.4 208.36,-24.12"/>
</a>
</g>
</g>
<!-- Node7&#45;&gt;Node5 -->
<g id="edge11_Node000007_Node000005" class="edge">
<title>Node7&#45;&gt;Node5</title>
<g id="a_edge11_Node000007_Node000005"><a xlink:title=" ">
<path fill="none" stroke="#63b8ff" d="M361.33,-111.53C339.61,-102.55 306.18,-88.6 277.38,-76 238.38,-58.94 193.79,-38.53 164.91,-25.19"/>
<polygon fill="#63b8ff" stroke="#63b8ff" points="166.58,-22.1 156.03,-21.08 163.64,-28.45 166.58,-22.1"/>
</a>
</g>
</g>
<!-- Node7&#45;&gt;Node6 -->
<g id="edge12_Node000007_Node000006" class="edge">
<title>Node7&#45;&gt;Node6</title>
<g id="a_edge12_Node000007_Node000006"><a xlink:title=" ">
<path fill="none" stroke="#63b8ff" d="M363.35,-111.51C346.34,-103.33 322.21,-90.56 303.38,-76 285.33,-62.05 267.67,-42.83 255.84,-28.91"/>
<polygon fill="#63b8ff" stroke="#63b8ff" points="258.7,-26.87 249.62,-21.41 253.31,-31.34 258.7,-26.87"/>
</a>
</g>
</g>
<!-- Node8 -->
<g id="Node000008" class="node">
<title>Node8</title>
<g id="a_Node000008"><a xlink:title=" ">
<polygon fill="#e0e0e0" stroke="#999999" points="382.75,-76 312,-76 312,-56 382.75,-56 382.75,-76"/>
<text xml:space="preserve" text-anchor="middle" x="347.38" y="-62.5" font-family="Helvetica,sans-Serif" font-size="10.00">FreeRTOS.h</text>
</a>
</g>
</g>
<!-- Node7&#45;&gt;Node8 -->
<g id="edge7_Node000007_Node000008" class="edge">
<title>Node7&#45;&gt;Node8</title>
<g id="a_edge7_Node000007_Node000008"><a xlink:title=" ">
<path fill="none" stroke="#63b8ff" d="M377.93,-111.59C373.05,-104.47 366.18,-94.45 360.2,-85.72"/>
<polygon fill="#63b8ff" stroke="#63b8ff" points="363.14,-83.82 354.6,-77.55 357.37,-87.77 363.14,-83.82"/>
</a>
</g>
</g>
<!-- Node9 -->
<g id="Node000009" class="node">
<title>Node9</title>
<g id="a_Node000009"><a xlink:title=" ">
<polygon fill="#e0e0e0" stroke="#999999" points="443.88,-76 400.88,-76 400.88,-56 443.88,-56 443.88,-76"/>
<text xml:space="preserve" text-anchor="middle" x="422.38" y="-62.5" font-family="Helvetica,sans-Serif" font-size="10.00">task.h</text>
</a>
</g>
</g>
<!-- Node7&#45;&gt;Node9 -->
<g id="edge8_Node000007_Node000009" class="edge">
<title>Node7&#45;&gt;Node9</title>
<g id="a_edge8_Node000007_Node000009"><a xlink:title=" ">
<path fill="none" stroke="#63b8ff" d="M390.99,-111.59C396.06,-104.39 403.21,-94.23 409.4,-85.43"/>
<polygon fill="#63b8ff" stroke="#63b8ff" points="412.07,-87.73 414.96,-77.54 406.34,-83.7 412.07,-87.73"/>
</a>
</g>
</g>
<!-- Node7&#45;&gt;Node10 -->
<g id="edge9_Node000007_Node000010" class="edge">
<title>Node7&#45;&gt;Node10</title>
<g id="a_edge9_Node000007_Node000010"><a xlink:title=" ">
<path fill="none" stroke="#63b8ff" d="M356.17,-113.15C322.83,-103.87 267.17,-88.38 229.64,-77.93"/>
<polygon fill="#63b8ff" stroke="#63b8ff" points="230.65,-74.58 220.08,-75.27 228.77,-81.32 230.65,-74.58"/>
</a>
</g>
</g>
<!-- Node11 -->
<g id="Node000011" class="node">
<title>Node11</title>
<g id="a_Node000011"><a xlink:title=" ">
<polygon fill="#e0e0e0" stroke="#999999" points="502.38,-76 462.38,-76 462.38,-56 502.38,-56 502.38,-76"/>
<text xml:space="preserve" text-anchor="middle" x="482.38" y="-62.5" font-family="Helvetica,sans-Serif" font-size="10.00">bitset</text>
</a>
</g>
</g>
<!-- Node7&#45;&gt;Node11 -->
<g id="edge10_Node000007_Node000011" class="edge">
<title>Node7&#45;&gt;Node11</title>
<g id="a_edge10_Node000007_Node000011"><a xlink:title=" ">
<path fill="none" stroke="#63b8ff" d="M401.45,-111.59C416.25,-103.44 437.94,-91.48 455.14,-82"/>
<polygon fill="#63b8ff" stroke="#63b8ff" points="456.78,-85.1 463.85,-77.21 453.4,-78.97 456.78,-85.1"/>
</a>
</g>
</g>
<!-- Node12 -->
<g id="Node000012" class="node">
<title>Node12</title>
<g id="a_Node000012"><a xlink:title=" ">
<polygon fill="#e0e0e0" stroke="#999999" points="578.38,-76 520.38,-76 520.38,-56 578.38,-56 578.38,-76"/>
<text xml:space="preserve" text-anchor="middle" x="549.38" y="-62.5" font-family="Helvetica,sans-Serif" font-size="10.00">functional</text>
</a>
</g>
</g>
<!-- Node7&#45;&gt;Node12 -->
<g id="edge13_Node000007_Node000012" class="edge">
<title>Node7&#45;&gt;Node12</title>
<g id="a_edge13_Node000007_Node000012"><a xlink:title=" ">
<path fill="none" stroke="#63b8ff" d="M412.74,-111.72C439.46,-102.97 479.73,-89.79 509.64,-80"/>
<polygon fill="#63b8ff" stroke="#63b8ff" points="510.7,-83.34 519.11,-76.9 508.52,-76.69 510.7,-83.34"/>
</a>
</g>
</g>
<!-- Node13 -->
<g id="Node000013" class="node">
<title>Node13</title>
<g id="a_Node000013"><a xlink:title=" ">
<polygon fill="#e0e0e0" stroke="#999999" points="648,-76 596.75,-76 596.75,-56 648,-56 648,-76"/>
<text xml:space="preserve" text-anchor="middle" x="622.38" y="-62.5" font-family="Helvetica,sans-Serif" font-size="10.00">memory</text>
</a>
</g>
</g>
<!-- Node7&#45;&gt;Node13 -->
<g id="edge14_Node000007_Node000013" class="edge">
<title>Node7&#45;&gt;Node13</title>
<g id="a_edge14_Node000007_Node000013"><a xlink:title=" ">
<path fill="none" stroke="#63b8ff" d="M412.64,-114.05C415.59,-113.35 418.54,-112.65 421.38,-112 491.5,-95.87 512.02,-93.59 585.21,-76.44"/>
<polygon fill="#63b8ff" stroke="#63b8ff" points="586.01,-79.85 594.94,-74.14 584.4,-73.03 586.01,-79.85"/>
</a>
</g>
</g>
<!-- Node14 -->
<g id="Node000014" class="node">
<title>Node14</title>
<g id="a_Node000014"><a xlink:title=" ">
<polygon fill="#e0e0e0" stroke="#999999" points="706.38,-76 666.38,-76 666.38,-56 706.38,-56 706.38,-76"/>
<text xml:space="preserve" text-anchor="middle" x="686.38" y="-62.5" font-family="Helvetica,sans-Serif" font-size="10.00">string</text>
</a>
</g>
</g>
<!-- Node7&#45;&gt;Node14 -->
<g id="edge15_Node000007_Node000014" class="edge">
<title>Node7&#45;&gt;Node14</title>
<g id="a_edge15_Node000007_Node000014"><a xlink:title=" ">
<path fill="none" stroke="#63b8ff" d="M412.6,-113.87C415.56,-113.2 418.52,-112.56 421.38,-112 521.91,-92.14 551.94,-99.25 654.69,-76.33"/>
<polygon fill="#63b8ff" stroke="#63b8ff" points="655.44,-79.75 664.41,-74.11 653.88,-72.92 655.44,-79.75"/>
</a>
</g>
</g>
<!-- Node15 -->
<g id="Node000015" class="node">
<title>Node15</title>
<g id="a_Node000015"><a xlink:title=" ">
<polygon fill="#e0e0e0" stroke="#999999" points="764,-76 724.75,-76 724.75,-56 764,-56 764,-76"/>
<text xml:space="preserve" text-anchor="middle" x="744.38" y="-62.5" font-family="Helvetica,sans-Serif" font-size="10.00">utility</text>
</a>
</g>
</g>
<!-- Node7&#45;&gt;Node15 -->
<g id="edge16_Node000007_Node000015" class="edge">
<title>Node7&#45;&gt;Node15</title>
<g id="a_edge16_Node000007_Node000015"><a xlink:title=" ">
<path fill="none" stroke="#63b8ff" d="M412.58,-113.78C415.54,-113.13 418.51,-112.52 421.38,-112 547.34,-89.05 584.64,-102.82 713.45,-76.03"/>
<polygon fill="#63b8ff" stroke="#63b8ff" points="714,-79.49 723.05,-73.99 712.54,-72.64 714,-79.49"/>
</a>
</g>
</g>
</g>
</svg>
