<?xml version="1.0" encoding="UTF-8" standalone="no"?>
<!DOCTYPE svg PUBLIC "-//W3C//DTD SVG 1.1//EN"
 "http://www.w3.org/Graphics/SVG/1.1/DTD/svg11.dtd">
<!-- Generated by graphviz version 13.1.0 (20250701.0955)
 -->
<!-- Title: Lib::Xbee::API::Service::ServiceBase Pages: 1 -->
<svg width="109pt" height="168pt"
 viewBox="0.00 0.00 109.00 168.00" xmlns="http://www.w3.org/2000/svg" xmlns:xlink="http://www.w3.org/1999/xlink">
<g id="graph0" class="graph" transform="scale(1 1) rotate(0) translate(4 163.5)">
<title>Lib::Xbee::API::Service::ServiceBase</title>
<!-- Node1 -->
<g id="Node000001" class="node">
<title>Node1</title>
<g id="a_Node000001"><a xlink:title="ServiceBase class.">
<polygon fill="#999999" stroke="none" points="101,-159.5 0,-159.5 0,0 101,0 101,-159.5"/>
<text xml:space="preserve" text-anchor="start" x="4" y="-146.95" font-family="Arial" font-size="9.00">Lib::Xbee::API::Service</text>
<text xml:space="preserve" text-anchor="start" x="22.38" y="-136.45" font-family="Arial" font-size="9.00">::ServiceBase</text>
<text xml:space="preserve" text-anchor="start" x="49.38" y="-121.95" font-family="Arial" font-size="9.00"> </text>
<text xml:space="preserve" text-anchor="start" x="9.19" y="-107.45" font-family="Arial" font-size="9.00">+</text>
<text xml:space="preserve" text-anchor="start" x="23.62" y="-107.45" font-family="Arial" font-size="9.00">ServiceBase()</text>
<text xml:space="preserve" text-anchor="start" x="9.19" y="-92.95" font-family="Arial" font-size="9.00">+</text>
<text xml:space="preserve" text-anchor="start" x="23.62" y="-92.95" font-family="Arial" font-size="9.00">~ServiceBase()</text>
<text xml:space="preserve" text-anchor="start" x="9.19" y="-78.45" font-family="Arial" font-size="9.00">+</text>
<text xml:space="preserve" text-anchor="start" x="23.62" y="-78.45" font-family="Arial" font-size="9.00">open()</text>
<text xml:space="preserve" text-anchor="start" x="9.19" y="-63.95" font-family="Arial" font-size="9.00">+</text>
<text xml:space="preserve" text-anchor="start" x="23.62" y="-63.95" font-family="Arial" font-size="9.00">close()</text>
<text xml:space="preserve" text-anchor="start" x="9.19" y="-49.45" font-family="Arial" font-size="9.00">+</text>
<text xml:space="preserve" text-anchor="start" x="23.62" y="-49.45" font-family="Arial" font-size="9.00">isRunning()</text>
<text xml:space="preserve" text-anchor="start" x="9.19" y="-34.95" font-family="Arial" font-size="9.00">#</text>
<text xml:space="preserve" text-anchor="start" x="23.62" y="-34.95" font-family="Arial" font-size="9.00">initialize()</text>
<text xml:space="preserve" text-anchor="start" x="9.19" y="-20.45" font-family="Arial" font-size="9.00">#</text>
<text xml:space="preserve" text-anchor="start" x="23.62" y="-20.45" font-family="Arial" font-size="9.00">process()</text>
<text xml:space="preserve" text-anchor="start" x="9.19" y="-5.95" font-family="Arial" font-size="9.00">#</text>
<text xml:space="preserve" text-anchor="start" x="23.62" y="-5.95" font-family="Arial" font-size="9.00">tearDown()</text>
<polygon fill="#666666" stroke="#666666" points="0,-132.5 0,-132.5 101,-132.5 101,-132.5 0,-132.5"/>
<polygon fill="#666666" stroke="#666666" points="0,-118 0,-118 101,-118 101,-118 0,-118"/>
<polygon fill="none" stroke="#666666" points="0,0 0,-159.5 101,-159.5 101,0 0,0"/>
</a>
</g>
</g>
</g>
</svg>
