<?xml version="1.0" encoding="UTF-8" standalone="no"?>
<!DOCTYPE svg PUBLIC "-//W3C//DTD SVG 1.1//EN"
 "http://www.w3.org/Graphics/SVG/1.1/DTD/svg11.dtd">
<!-- Generated by graphviz version 13.1.0 (20250701.0955)
 -->
<!-- Title: Lib::HAL::CAN::PortBase Pages: 1 -->
<svg width="1154pt" height="294pt"
 viewBox="0.00 0.00 1154.00 294.00" xmlns="http://www.w3.org/2000/svg" xmlns:xlink="http://www.w3.org/1999/xlink">
<g id="graph0" class="graph" transform="scale(1 1) rotate(0) translate(4 290)">
<title>Lib::HAL::CAN::PortBase</title>
<!-- Node1 -->
<g id="Node000001" class="node">
<title>Node1</title>
<g id="a_Node000001"><a xlink:title="CAN port base class.">
<polygon fill="#999999" stroke="none" points="647.12,-20 526.62,-20 526.62,0 647.12,0 647.12,-20"/>
<text xml:space="preserve" text-anchor="start" x="530.62" y="-6.5" font-family="Helvetica,sans-Serif" font-size="10.00">Lib::HAL::CAN::PortBase</text>
<polygon fill="none" stroke="#666666" points="526.62,0 526.62,-20 647.12,-20 647.12,0 526.62,0"/>
</a>
</g>
</g>
<!-- Node2 -->
<g id="Node000002" class="node">
<title>Node2</title>
<g id="a_Node000002"><a xlink:href="../../de/d0a/class_lib_1_1_h_a_l_1_1_handle.html" target="_top" xlink:title=" ">
<polygon fill="white" stroke="none" points="113.75,-138 0,-138 0,-106 113.75,-106 113.75,-138"/>
<text xml:space="preserve" text-anchor="start" x="4" y="-124.5" font-family="Helvetica,sans-Serif" font-size="10.00">Lib::HAL::Handle&lt; CAN</text>
<text xml:space="preserve" text-anchor="start" x="16" y="-112.5" font-family="Helvetica,sans-Serif" font-size="10.00">_HandleTypeDef &gt;</text>
<polygon fill="none" stroke="#666666" points="0,-106 0,-138 113.75,-138 113.75,-106 0,-106"/>
</a>
</g>
</g>
<!-- Node2&#45;&gt;Node1 -->
<g id="edge1_Node000001_Node000002" class="edge">
<title>Node2&#45;&gt;Node1</title>
<g id="a_edge1_Node000001_Node000002"><a xlink:title=" ">
<path fill="none" stroke="darkgreen" d="M87.87,-100.04C118.99,-80.21 169.05,-51.53 216.88,-38 273.43,-22 437.39,-15.09 526.87,-12.44"/>
<polygon fill="none" stroke="darkgreen" points="86.22,-96.94 79.73,-105.32 90.02,-102.82 86.22,-96.94"/>
</a>
</g>
</g>
<!-- Node3 -->
<g id="Node000003" class="node">
<title>Node3</title>
<g id="a_Node000003"><a xlink:title=" ">
<polygon fill="white" stroke="none" points="241.5,-132 132.25,-132 132.25,-112 241.5,-112 241.5,-132"/>
<text xml:space="preserve" text-anchor="start" x="136.25" y="-118.5" font-family="Helvetica,sans-Serif" font-size="10.00">CAN_HandleTypeDef *</text>
<polygon fill="none" stroke="#bfbfbf" points="132.25,-112 132.25,-132 241.5,-132 241.5,-112 132.25,-112"/>
</a>
</g>
</g>
<!-- Node3&#45;&gt;Node1 -->
<g id="edge2_Node000001_Node000003" class="edge">
<title>Node3&#45;&gt;Node1</title>
<g id="a_edge2_Node000001_Node000003"><a xlink:title=" ">
<path fill="none" stroke="#63b8ff" d="M195.08,-112.25C212.25,-94.6 254.04,-54.95 298.12,-38 336.2,-23.36 441.74,-16.44 514.1,-13.33"/>
<polygon fill="none" stroke="#63b8ff" points="513.86,-13.34 519.69,-9.09 525.85,-12.84 520.02,-17.09 513.86,-13.34"/>
</a>
</g>
<text xml:space="preserve" text-anchor="start" x="301.12" y="-59.5" font-family="Helvetica,sans-Serif" font-size="10.00" fill="grey">#handle</text>
</g>
<!-- Node4 -->
<g id="Node000004" class="node">
<title>Node4</title>
<g id="a_Node000004"><a xlink:href="../../db/d77/class_lib_1_1_free_r_t_o_s_1_1_task.html" target="_top" xlink:title="Represents a FreeRTOS task and provides methods for task lifecycle management and control.">
<polygon fill="white" stroke="none" points="360,-132 259.75,-132 259.75,-112 360,-112 360,-132"/>
<text xml:space="preserve" text-anchor="start" x="263.75" y="-118.5" font-family="Helvetica,sans-Serif" font-size="10.00">Lib::FreeRTOS::Task</text>
<polygon fill="none" stroke="#666666" points="259.75,-112 259.75,-132 360,-132 360,-112 259.75,-112"/>
</a>
</g>
</g>
<!-- Node4&#45;&gt;Node1 -->
<g id="edge3_Node000001_Node000004" class="edge">
<title>Node4&#45;&gt;Node1</title>
<g id="a_edge3_Node000001_Node000004"><a xlink:title=" ">
<path fill="none" stroke="#63b8ff" d="M317.37,-112.18C332.73,-94.75 369.74,-56.02 409.88,-38 442.29,-23.44 481.06,-16.5 514.03,-13.28"/>
<polygon fill="none" stroke="#63b8ff" points="513.98,-13.28 519.61,-8.79 525.93,-12.26 520.3,-16.76 513.98,-13.28"/>
</a>
</g>
<text xml:space="preserve" text-anchor="start" x="412.88" y="-59.5" font-family="Helvetica,sans-Serif" font-size="10.00" fill="grey">#task</text>
</g>
<!-- Node5 -->
<g id="Node000005" class="node">
<title>Node5</title>
<g id="a_Node000005"><a xlink:title=" ">
<polygon fill="white" stroke="none" points="343.88,-212 275.88,-212 275.88,-192 343.88,-192 343.88,-212"/>
<text xml:space="preserve" text-anchor="start" x="279.88" y="-198.5" font-family="Helvetica,sans-Serif" font-size="10.00">TaskHandle_t</text>
<polygon fill="none" stroke="#bfbfbf" points="275.88,-192 275.88,-212 343.88,-212 343.88,-192 275.88,-192"/>
</a>
</g>
</g>
<!-- Node5&#45;&gt;Node4 -->
<g id="edge4_Node000004_Node000005" class="edge">
<title>Node5&#45;&gt;Node4</title>
<g id="a_edge4_Node000004_Node000005"><a xlink:title=" ">
<path fill="none" stroke="#63b8ff" d="M309.88,-192.05C309.88,-180.53 309.88,-160.14 309.88,-144.49"/>
<polygon fill="none" stroke="#63b8ff" points="309.88,-144.74 305.88,-138.74 309.88,-132.74 313.88,-138.74 309.88,-144.74"/>
</a>
</g>
<text xml:space="preserve" text-anchor="start" x="312.88" y="-161.5" font-family="Helvetica,sans-Serif" font-size="10.00" fill="grey">#handle</text>
</g>
<!-- Node6 -->
<g id="Node000006" class="node">
<title>Node6</title>
<g id="a_Node000006"><a xlink:href="../../d7/ddd/class_lib_1_1_free_r_t_o_s_1_1_semaphore.html" target="_top" xlink:title="FreeRTOS binary semaphore wrapper.">
<polygon fill="white" stroke="none" points="507.25,-132 378.5,-132 378.5,-112 507.25,-112 507.25,-132"/>
<text xml:space="preserve" text-anchor="start" x="382.5" y="-118.5" font-family="Helvetica,sans-Serif" font-size="10.00">Lib::FreeRTOS::Semaphore</text>
<polygon fill="none" stroke="#666666" points="378.5,-112 378.5,-132 507.25,-132 507.25,-112 378.5,-112"/>
</a>
</g>
</g>
<!-- Node6&#45;&gt;Node1 -->
<g id="edge5_Node000001_Node000006" class="edge">
<title>Node6&#45;&gt;Node1</title>
<g id="a_edge5_Node000001_Node000006"><a xlink:title=" ">
<path fill="none" stroke="#63b8ff" d="M442.48,-112.01C442.24,-94.97 444.33,-57.91 465.12,-38 472.84,-30.62 492.68,-24.91 514.17,-20.69"/>
<polygon fill="none" stroke="#63b8ff" points="514.23,-20.68 519.42,-15.67 526.04,-18.54 520.85,-23.55 514.23,-20.68"/>
</a>
</g>
<text xml:space="preserve" text-anchor="start" x="468.12" y="-75.5" font-family="Helvetica,sans-Serif" font-size="10.00" fill="grey">#semaphoreError</text>
<text xml:space="preserve" text-anchor="start" x="468.12" y="-59.5" font-family="Helvetica,sans-Serif" font-size="10.00" fill="grey">#semaphoreTxComplete</text>
<text xml:space="preserve" text-anchor="start" x="468.12" y="-43.5" font-family="Helvetica,sans-Serif" font-size="10.00" fill="grey">#semaphoreTxCompleted</text>
</g>
<!-- Node7 -->
<g id="Node000007" class="node">
<title>Node7</title>
<g id="a_Node000007"><a xlink:href="../../da/d90/class_lib_1_1_free_r_t_o_s_1_1_semaphore_base.html" target="_top" xlink:title="Abstract base class for FreeRTOS semaphore wrappers.">
<polygon fill="white" stroke="none" points="518.5,-212 367.25,-212 367.25,-192 518.5,-192 518.5,-212"/>
<text xml:space="preserve" text-anchor="start" x="371.25" y="-198.5" font-family="Helvetica,sans-Serif" font-size="10.00">Lib::FreeRTOS::SemaphoreBase</text>
<polygon fill="none" stroke="#666666" points="367.25,-192 367.25,-212 518.5,-212 518.5,-192 367.25,-192"/>
</a>
</g>
</g>
<!-- Node7&#45;&gt;Node6 -->
<g id="edge6_Node000006_Node000007" class="edge">
<title>Node7&#45;&gt;Node6</title>
<g id="a_edge6_Node000006_Node000007"><a xlink:title=" ">
<path fill="none" stroke="#63b8ff" d="M442.88,-180.79C442.88,-164.95 442.88,-143.66 442.88,-131.84"/>
<polygon fill="none" stroke="#63b8ff" points="439.38,-180.54 442.88,-190.54 446.38,-180.54 439.38,-180.54"/>
</a>
</g>
</g>
<!-- Node8 -->
<g id="Node000008" class="node">
<title>Node8</title>
<g id="a_Node000008"><a xlink:title=" ">
<polygon fill="white" stroke="none" points="491.12,-286 394.62,-286 394.62,-266 491.12,-266 491.12,-286"/>
<text xml:space="preserve" text-anchor="start" x="398.62" y="-272.5" font-family="Helvetica,sans-Serif" font-size="10.00">SemaphoreHandle_t</text>
<polygon fill="none" stroke="#bfbfbf" points="394.62,-266 394.62,-286 491.12,-286 491.12,-266 394.62,-266"/>
</a>
</g>
</g>
<!-- Node8&#45;&gt;Node7 -->
<g id="edge7_Node000007_Node000008" class="edge">
<title>Node8&#45;&gt;Node7</title>
<g id="a_edge7_Node000007_Node000008"><a xlink:title=" ">
<path fill="none" stroke="#63b8ff" d="M442.88,-266.17C442.88,-255.92 442.88,-238.62 442.88,-224.72"/>
<polygon fill="none" stroke="#63b8ff" points="442.88,-224.8 438.88,-218.8 442.88,-212.8 446.88,-218.8 442.88,-224.8"/>
</a>
</g>
<text xml:space="preserve" text-anchor="start" x="445.88" y="-235.5" font-family="Helvetica,sans-Serif" font-size="10.00" fill="grey">#handle</text>
</g>
<!-- Node9 -->
<g id="Node000009" class="node">
<title>Node9</title>
<g id="a_Node000009"><a xlink:href="../../d1/dde/class_lib_1_1_free_r_t_o_s_1_1_queue_set.html" target="_top" xlink:title="C++ wrapper for FreeRTOS queue sets.">
<polygon fill="white" stroke="none" points="648.25,-132 525.5,-132 525.5,-112 648.25,-112 648.25,-132"/>
<text xml:space="preserve" text-anchor="start" x="529.5" y="-118.5" font-family="Helvetica,sans-Serif" font-size="10.00">Lib::FreeRTOS::QueueSet</text>
<polygon fill="none" stroke="#666666" points="525.5,-112 525.5,-132 648.25,-132 648.25,-112 525.5,-112"/>
</a>
</g>
</g>
<!-- Node9&#45;&gt;Node1 -->
<g id="edge8_Node000001_Node000009" class="edge">
<title>Node9&#45;&gt;Node1</title>
<g id="a_edge8_Node000001_Node000009"><a xlink:title=" ">
<path fill="none" stroke="#63b8ff" d="M586.88,-112.37C586.88,-95.34 586.88,-56.98 586.88,-32.64"/>
<polygon fill="none" stroke="#63b8ff" points="586.88,-32.8 582.88,-26.8 586.88,-20.8 590.88,-26.8 586.88,-32.8"/>
</a>
</g>
<text xml:space="preserve" text-anchor="start" x="589.88" y="-59.5" font-family="Helvetica,sans-Serif" font-size="10.00" fill="grey">#queueSet</text>
</g>
<!-- Node10 -->
<g id="Node000010" class="node">
<title>Node10</title>
<g id="a_Node000010"><a xlink:href="../../d6/dc7/class_lib_1_1_free_r_t_o_s_1_1_queue.html" target="_top" xlink:title="Encapsulates FreeRTOS queue creation, management, and operations.">
<polygon fill="white" stroke="none" points="773.75,-132 666,-132 666,-112 773.75,-112 773.75,-132"/>
<text xml:space="preserve" text-anchor="start" x="670" y="-118.5" font-family="Helvetica,sans-Serif" font-size="10.00">Lib::FreeRTOS::Queue</text>
<polygon fill="none" stroke="#666666" points="666,-112 666,-132 773.75,-132 773.75,-112 666,-112"/>
</a>
</g>
</g>
<!-- Node10&#45;&gt;Node1 -->
<g id="edge9_Node000001_Node000010" class="edge">
<title>Node10&#45;&gt;Node1</title>
<g id="a_edge9_Node000001_Node000010"><a xlink:title=" ">
<path fill="none" stroke="#63b8ff" d="M713.66,-112.21C701.72,-95.83 674.06,-60.28 643.88,-38 637.42,-33.24 629.99,-28.99 622.67,-25.35"/>
<polygon fill="none" stroke="#63b8ff" points="622.76,-25.39 615.63,-26.51 611.86,-20.36 618.99,-19.24 622.76,-25.39"/>
</a>
</g>
<text xml:space="preserve" text-anchor="start" x="696.52" y="-67.5" font-family="Helvetica,sans-Serif" font-size="10.00" fill="grey">#queueRxMessage</text>
<text xml:space="preserve" text-anchor="start" x="696.52" y="-51.5" font-family="Helvetica,sans-Serif" font-size="10.00" fill="grey">#queueTxMessage</text>
</g>
<!-- Node11 -->
<g id="Node000011" class="node">
<title>Node11</title>
<g id="a_Node000011"><a xlink:href="../../dc/d1b/class_lib_1_1_h_a_l_1_1_c_a_n_1_1_rx_message.html" target="_top" xlink:title="CAN receive message wrapper class inheriting from CAN_RxHeaderTypeDef.">
<polygon fill="white" stroke="none" points="924.12,-132 791.62,-132 791.62,-112 924.12,-112 924.12,-132"/>
<text xml:space="preserve" text-anchor="start" x="795.62" y="-118.5" font-family="Helvetica,sans-Serif" font-size="10.00">Lib::HAL::CAN::RxMessage</text>
<polygon fill="none" stroke="#666666" points="791.62,-112 791.62,-132 924.12,-132 924.12,-112 791.62,-112"/>
</a>
</g>
</g>
<!-- Node11&#45;&gt;Node1 -->
<g id="edge10_Node000001_Node000011" class="edge">
<title>Node11&#45;&gt;Node1</title>
<g id="a_edge10_Node000001_Node000011"><a xlink:title=" ">
<path fill="none" stroke="#63b8ff" d="M853.33,-112.12C843.85,-94.58 820.1,-55.68 787.88,-38 766.24,-26.13 708.05,-19.17 659.82,-15.29"/>
<polygon fill="none" stroke="#63b8ff" points="659.7,-15.28 653.42,-18.82 647.74,-14.37 654.02,-10.84 659.7,-15.28"/>
</a>
</g>
<text xml:space="preserve" text-anchor="start" x="840.25" y="-59.5" font-family="Helvetica,sans-Serif" font-size="10.00" fill="grey">#rxMessage</text>
</g>
<!-- Node12 -->
<g id="Node000012" class="node">
<title>Node12</title>
<g id="a_Node000012"><a xlink:href="../../d3/d72/class_c_a_n___rx_header_type_def.html" target="_top" xlink:title=" ">
<polygon fill="white" stroke="none" points="915.88,-212 799.88,-212 799.88,-192 915.88,-192 915.88,-212"/>
<text xml:space="preserve" text-anchor="start" x="803.88" y="-198.5" font-family="Helvetica,sans-Serif" font-size="10.00">CAN_RxHeaderTypeDef</text>
<polygon fill="none" stroke="#bfbfbf" points="799.88,-192 799.88,-212 915.88,-212 915.88,-192 799.88,-192"/>
</a>
</g>
</g>
<!-- Node12&#45;&gt;Node11 -->
<g id="edge11_Node000011_Node000012" class="edge">
<title>Node12&#45;&gt;Node11</title>
<g id="a_edge11_Node000011_Node000012"><a xlink:title=" ">
<path fill="none" stroke="#63b8ff" d="M857.88,-180.79C857.88,-164.95 857.88,-143.66 857.88,-131.84"/>
<polygon fill="none" stroke="#63b8ff" points="854.38,-180.54 857.88,-190.54 861.38,-180.54 854.38,-180.54"/>
</a>
</g>
</g>
<!-- Node13 -->
<g id="Node000013" class="node">
<title>Node13</title>
<g id="a_Node000013"><a xlink:href="../../db/d24/class_lib_1_1_h_a_l_1_1_c_a_n_1_1_tx_message.html" target="_top" xlink:title="CAN transmit message wrapper combining header and payload data.">
<polygon fill="white" stroke="none" points="1073.38,-132 942.38,-132 942.38,-112 1073.38,-112 1073.38,-132"/>
<text xml:space="preserve" text-anchor="start" x="946.38" y="-118.5" font-family="Helvetica,sans-Serif" font-size="10.00">Lib::HAL::CAN::TxMessage</text>
<polygon fill="none" stroke="#666666" points="942.38,-112 942.38,-132 1073.38,-132 1073.38,-112 942.38,-112"/>
</a>
</g>
</g>
<!-- Node13&#45;&gt;Node1 -->
<g id="edge12_Node000001_Node000013" class="edge">
<title>Node13&#45;&gt;Node1</title>
<g id="a_edge12_Node000001_Node000013"><a xlink:title=" ">
<path fill="none" stroke="#63b8ff" d="M1000.07,-112.22C983.71,-94.52 943.79,-54.78 900.88,-38 858.46,-21.41 738.41,-14.98 659.65,-12.51"/>
<polygon fill="none" stroke="#63b8ff" points="659.79,-12.52 653.68,-16.34 647.8,-12.16 653.91,-8.34 659.79,-12.52"/>
</a>
</g>
<text xml:space="preserve" text-anchor="start" x="978.39" y="-59.5" font-family="Helvetica,sans-Serif" font-size="10.00" fill="grey">#txMessage</text>
</g>
<!-- Node14 -->
<g id="Node000014" class="node">
<title>Node14</title>
<g id="a_Node000014"><a xlink:href="../../d8/d7c/class_lib_1_1_h_a_l_1_1_c_a_n_1_1_tx_header.html" target="_top" xlink:title="CAN transmit header wrapper providing configuration capabilities.">
<polygon fill="white" stroke="none" points="1069.25,-212 946.5,-212 946.5,-192 1069.25,-192 1069.25,-212"/>
<text xml:space="preserve" text-anchor="start" x="950.5" y="-198.5" font-family="Helvetica,sans-Serif" font-size="10.00">Lib::HAL::CAN::TxHeader</text>
<polygon fill="none" stroke="#666666" points="946.5,-192 946.5,-212 1069.25,-212 1069.25,-192 946.5,-192"/>
</a>
</g>
</g>
<!-- Node14&#45;&gt;Node13 -->
<g id="edge13_Node000013_Node000014" class="edge">
<title>Node14&#45;&gt;Node13</title>
<g id="a_edge13_Node000013_Node000014"><a xlink:title=" ">
<path fill="none" stroke="#63b8ff" d="M1007.88,-180.79C1007.88,-164.95 1007.88,-143.66 1007.88,-131.84"/>
<polygon fill="none" stroke="#63b8ff" points="1004.38,-180.54 1007.88,-190.54 1011.38,-180.54 1004.38,-180.54"/>
</a>
</g>
</g>
<!-- Node15 -->
<g id="Node000015" class="node">
<title>Node15</title>
<g id="a_Node000015"><a xlink:href="../../df/d49/class_c_a_n___tx_header_type_def.html" target="_top" xlink:title=" ">
<polygon fill="white" stroke="none" points="1065.12,-286 950.62,-286 950.62,-266 1065.12,-266 1065.12,-286"/>
<text xml:space="preserve" text-anchor="start" x="954.62" y="-272.5" font-family="Helvetica,sans-Serif" font-size="10.00">CAN_TxHeaderTypeDef</text>
<polygon fill="none" stroke="#bfbfbf" points="950.62,-266 950.62,-286 1065.12,-286 1065.12,-266 950.62,-266"/>
</a>
</g>
</g>
<!-- Node15&#45;&gt;Node14 -->
<g id="edge14_Node000014_Node000015" class="edge">
<title>Node15&#45;&gt;Node14</title>
<g id="a_edge14_Node000014_Node000015"><a xlink:title=" ">
<path fill="none" stroke="#63b8ff" d="M1007.88,-254.68C1007.88,-240.59 1007.88,-222.51 1007.88,-211.9"/>
<polygon fill="none" stroke="#63b8ff" points="1004.38,-254.66 1007.88,-264.66 1011.38,-254.66 1004.38,-254.66"/>
</a>
</g>
</g>
<!-- Node16 -->
<g id="Node000016" class="node">
<title>Node16</title>
<g id="a_Node000016"><a xlink:title=" ">
<polygon fill="white" stroke="none" points="1134.12,-132 1091.62,-132 1091.62,-112 1134.12,-112 1134.12,-132"/>
<text xml:space="preserve" text-anchor="start" x="1095.62" y="-118.5" font-family="Helvetica,sans-Serif" font-size="10.00">uint32_t</text>
<polygon fill="none" stroke="#bfbfbf" points="1091.62,-112 1091.62,-132 1134.12,-132 1134.12,-112 1091.62,-112"/>
</a>
</g>
</g>
<!-- Node16&#45;&gt;Node1 -->
<g id="edge15_Node000001_Node000016" class="edge">
<title>Node16&#45;&gt;Node1</title>
<g id="a_edge15_Node000001_Node000016"><a xlink:title=" ">
<path fill="none" stroke="#63b8ff" d="M1108.2,-112.18C1098.21,-94.39 1072.93,-54.5 1038.88,-38 1005.76,-21.96 779.31,-14.94 660.03,-12.33"/>
<polygon fill="none" stroke="#63b8ff" points="659.99,-12.32 653.9,-16.2 647.99,-12.07 654.07,-8.2 659.99,-12.32"/>
</a>
</g>
<text xml:space="preserve" text-anchor="start" x="1095.55" y="-59.5" font-family="Helvetica,sans-Serif" font-size="10.00" fill="grey">#txMailbox</text>
</g>
</g>
</svg>
