<?xml version="1.0" encoding="UTF-8" standalone="no"?>
<!DOCTYPE svg PUBLIC "-//W3C//DTD SVG 1.1//EN"
 "http://www.w3.org/Graphics/SVG/1.1/DTD/svg11.dtd">
<!-- Generated by graphviz version 13.1.0 (20250701.0955)
 -->
<!-- Title: Lib::Digi::Core::Module::send Pages: 1 -->
<svg width="627pt" height="236pt"
 viewBox="0.00 0.00 627.00 236.00" xmlns="http://www.w3.org/2000/svg" xmlns:xlink="http://www.w3.org/1999/xlink">
<g id="graph0" class="graph" transform="scale(1 1) rotate(0) translate(4 232)">
<title>Lib::Digi::Core::Module::send</title>
<!-- Node1 -->
<g id="Node000001" class="node">
<title>Node1</title>
<g id="a_Node000001"><a xlink:title="Sends a message using the specified query and timeout.">
<polygon fill="#999999" stroke="#666666" points="143.5,-134 0,-134 0,-114 143.5,-114 143.5,-134"/>
<text xml:space="preserve" text-anchor="middle" x="71.75" y="-120.5" font-family="Helvetica,sans-Serif" font-size="10.00">Lib::Digi::Core::Module::send</text>
</a>
</g>
</g>
<!-- Node2 -->
<g id="Node000002" class="node">
<title>Node2</title>
<g id="a_Node000002"><a xlink:href="../../d0/dad/class_lib_1_1_digi_1_1_core_1_1_protocol.html#a2b938e0f02d225d3118e14142774b256" target="_top" xlink:title="Builds a Digi API frame from frame data.">
<polygon fill="white" stroke="#666666" points="332.75,-172 185.5,-172 185.5,-152 332.75,-152 332.75,-172"/>
<text xml:space="preserve" text-anchor="middle" x="259.12" y="-158.5" font-family="Helvetica,sans-Serif" font-size="10.00">Lib::Digi::Core::Protocol::build</text>
</a>
</g>
</g>
<!-- Node1&#45;&gt;Node2 -->
<g id="edge1_Node000001_Node000002" class="edge">
<title>Node1&#45;&gt;Node2</title>
<g id="a_edge1_Node000001_Node000002"><a xlink:title=" ">
<path fill="none" stroke="#63b8ff" d="M123.9,-134.48C146.18,-139.05 172.51,-144.45 195.92,-149.25"/>
<polygon fill="#63b8ff" stroke="#63b8ff" points="195.16,-152.67 205.66,-151.25 196.57,-145.81 195.16,-152.67"/>
</a>
</g>
</g>
<!-- Node5 -->
<g id="Node000005" class="node">
<title>Node5</title>
<g id="a_Node000005"><a xlink:href="../../df/d88/class_lib_1_1_digi_1_1_core_1_1_com_driver.html#ac8d80be0df262f35365e8961fbaa0169" target="_top" xlink:title="Sends a DIGI API1 frame.">
<polygon fill="white" stroke="#666666" points="338.75,-96 179.5,-96 179.5,-76 338.75,-76 338.75,-96"/>
<text xml:space="preserve" text-anchor="middle" x="259.12" y="-82.5" font-family="Helvetica,sans-Serif" font-size="10.00">Lib::Digi::Core::ComDriver::send</text>
</a>
</g>
</g>
<!-- Node1&#45;&gt;Node5 -->
<g id="edge5_Node000001_Node000005" class="edge">
<title>Node1&#45;&gt;Node5</title>
<g id="a_edge5_Node000001_Node000005"><a xlink:title=" ">
<path fill="none" stroke="#63b8ff" d="M123.9,-113.52C146.18,-108.95 172.51,-103.55 195.92,-98.75"/>
<polygon fill="#63b8ff" stroke="#63b8ff" points="196.57,-102.19 205.66,-96.75 195.16,-95.33 196.57,-102.19"/>
</a>
</g>
</g>
<!-- Node3 -->
<g id="Node000003" class="node">
<title>Node3</title>
<g id="a_Node000003"><a xlink:href="../../d0/d78/class_lib_1_1_digi_1_1_core_1_1_api_frame_buffer.html#a67b0d16ac4e2077bed10dfe096e3f240" target="_top" xlink:title="Append data from a vector.">
<polygon fill="white" stroke="#666666" points="591.75,-210 401.75,-210 401.75,-190 591.75,-190 591.75,-210"/>
<text xml:space="preserve" text-anchor="middle" x="496.75" y="-196.5" font-family="Helvetica,sans-Serif" font-size="10.00">Lib::Digi::Core::ApiFrameBuffer::append</text>
</a>
</g>
</g>
<!-- Node2&#45;&gt;Node3 -->
<g id="edge2_Node000002_Node000003" class="edge">
<title>Node2&#45;&gt;Node3</title>
<g id="a_edge2_Node000002_Node000003"><a xlink:title=" ">
<path fill="none" stroke="#63b8ff" d="M322.87,-172.5C339.72,-175.29 357.92,-178.28 374.75,-181 388.5,-183.22 403.13,-185.55 417.3,-187.78"/>
<polygon fill="#63b8ff" stroke="#63b8ff" points="416.61,-191.22 427.04,-189.31 417.7,-184.3 416.61,-191.22"/>
</a>
</g>
</g>
<!-- Node4 -->
<g id="Node000004" class="node">
<title>Node4</title>
<g id="a_Node000004"><a xlink:href="../../d0/d78/class_lib_1_1_digi_1_1_core_1_1_api_frame_buffer.html#a5b7bf12667a1163e217aa9776f2be792" target="_top" xlink:title="Clear the buffer.">
<polygon fill="white" stroke="#666666" points="586.5,-172 407,-172 407,-152 586.5,-152 586.5,-172"/>
<text xml:space="preserve" text-anchor="middle" x="496.75" y="-158.5" font-family="Helvetica,sans-Serif" font-size="10.00">Lib::Digi::Core::ApiFrameBuffer::clear</text>
</a>
</g>
</g>
<!-- Node2&#45;&gt;Node4 -->
<g id="edge4_Node000002_Node000004" class="edge">
<title>Node2&#45;&gt;Node4</title>
<g id="a_edge4_Node000002_Node000004"><a xlink:title=" ">
<path fill="none" stroke="#63b8ff" d="M333.06,-162C352.68,-162 374.25,-162 395.08,-162"/>
<polygon fill="#63b8ff" stroke="#63b8ff" points="395.05,-165.5 405.05,-162 395.05,-158.5 395.05,-165.5"/>
</a>
</g>
</g>
<!-- Node3&#45;&gt;Node3 -->
<g id="edge3_Node000003_Node000003" class="edge">
<title>Node3&#45;&gt;Node3</title>
<g id="a_edge3_Node000003_Node000003"><a xlink:title=" ">
<path fill="none" stroke="#63b8ff" d="M458.72,-210.48C443,-219.08 455.68,-228 496.75,-228 520.5,-228 534.75,-225.02 539.51,-220.84"/>
<polygon fill="#63b8ff" stroke="#63b8ff" points="542.75,-219.5 535.4,-211.86 536.38,-222.41 542.75,-219.5"/>
</a>
</g>
</g>
<!-- Node6 -->
<g id="Node000006" class="node">
<title>Node6</title>
<g id="a_Node000006"><a xlink:href="../../df/d88/class_lib_1_1_digi_1_1_core_1_1_com_driver.html#ac1376bdcf9b24b86defd586255a4f49e" target="_top" xlink:title="Emit begin send event.">
<polygon fill="white" stroke="#666666" points="618.75,-134 374.75,-134 374.75,-114 618.75,-114 618.75,-134"/>
<text xml:space="preserve" text-anchor="middle" x="496.75" y="-120.5" font-family="Helvetica,sans-Serif" font-size="10.00">Lib::Digi::Core::ComDriver::emitBeginMessageSend</text>
</a>
</g>
</g>
<!-- Node5&#45;&gt;Node6 -->
<g id="edge6_Node000005_Node000006" class="edge">
<title>Node5&#45;&gt;Node6</title>
<g id="a_edge6_Node000005_Node000006"><a xlink:title=" ">
<path fill="none" stroke="#63b8ff" d="M322.87,-96.5C339.72,-99.29 357.92,-102.28 374.75,-105 388.5,-107.22 403.13,-109.55 417.3,-111.78"/>
<polygon fill="#63b8ff" stroke="#63b8ff" points="416.61,-115.22 427.04,-113.31 417.7,-108.3 416.61,-115.22"/>
</a>
</g>
</g>
<!-- Node7 -->
<g id="Node000007" class="node">
<title>Node7</title>
<g id="a_Node000007"><a xlink:href="../../df/d88/class_lib_1_1_digi_1_1_core_1_1_com_driver.html#ab4617c7f8d128843863a5213ed053afd" target="_top" xlink:title="Emit end of send event.">
<polygon fill="white" stroke="#666666" points="615,-96 378.5,-96 378.5,-76 615,-76 615,-96"/>
<text xml:space="preserve" text-anchor="middle" x="496.75" y="-82.5" font-family="Helvetica,sans-Serif" font-size="10.00">Lib::Digi::Core::ComDriver::emitEndMessageSend</text>
</a>
</g>
</g>
<!-- Node5&#45;&gt;Node7 -->
<g id="edge7_Node000005_Node000007" class="edge">
<title>Node5&#45;&gt;Node7</title>
<g id="a_edge7_Node000005_Node000007"><a xlink:title=" ">
<path fill="none" stroke="#63b8ff" d="M339.24,-86C348.17,-86 357.44,-86 366.81,-86"/>
<polygon fill="#63b8ff" stroke="#63b8ff" points="366.74,-89.5 376.74,-86 366.74,-82.5 366.74,-89.5"/>
</a>
</g>
</g>
<!-- Node8 -->
<g id="Node000008" class="node">
<title>Node8</title>
<g id="a_Node000008"><a xlink:href="../../d0/d78/class_lib_1_1_digi_1_1_core_1_1_api_frame_buffer.html#af330a9ce26933f4495d1e727a6394423" target="_top" xlink:title="Get pointer to the data array.">
<polygon fill="white" stroke="#666666" points="593.25,-58 400.25,-58 400.25,-38 593.25,-38 593.25,-58"/>
<text xml:space="preserve" text-anchor="middle" x="496.75" y="-44.5" font-family="Helvetica,sans-Serif" font-size="10.00">Lib::Digi::Core::ApiFrameBuffer::getData</text>
</a>
</g>
</g>
<!-- Node5&#45;&gt;Node8 -->
<g id="edge8_Node000005_Node000008" class="edge">
<title>Node5&#45;&gt;Node8</title>
<g id="a_edge8_Node000005_Node000008"><a xlink:title=" ">
<path fill="none" stroke="#63b8ff" d="M322.87,-75.5C339.72,-72.71 357.92,-69.72 374.75,-67 388.5,-64.78 403.13,-62.45 417.3,-60.22"/>
<polygon fill="#63b8ff" stroke="#63b8ff" points="417.7,-63.7 427.04,-58.69 416.61,-56.78 417.7,-63.7"/>
</a>
</g>
</g>
<!-- Node9 -->
<g id="Node000009" class="node">
<title>Node9</title>
<g id="a_Node000009"><a xlink:href="../../d0/d78/class_lib_1_1_digi_1_1_core_1_1_api_frame_buffer.html#aee12a2741eeba5e11e1fa84b36d86842" target="_top" xlink:title="Get the size of stored data.">
<polygon fill="white" stroke="#666666" points="592.5,-20 401,-20 401,0 592.5,0 592.5,-20"/>
<text xml:space="preserve" text-anchor="middle" x="496.75" y="-6.5" font-family="Helvetica,sans-Serif" font-size="10.00">Lib::Digi::Core::ApiFrameBuffer::getSize</text>
</a>
</g>
</g>
<!-- Node5&#45;&gt;Node9 -->
<g id="edge9_Node000005_Node000009" class="edge">
<title>Node5&#45;&gt;Node9</title>
<g id="a_edge9_Node000005_Node000009"><a xlink:title=" ">
<path fill="none" stroke="#63b8ff" d="M276.91,-75.59C298.65,-62.6 338.12,-40.68 374.75,-29 382.05,-26.67 389.69,-24.63 397.43,-22.82"/>
<polygon fill="#63b8ff" stroke="#63b8ff" points="397.91,-26.3 406.94,-20.76 396.42,-19.46 397.91,-26.3"/>
</a>
</g>
</g>
</g>
</svg>
