<?xml version="1.0" encoding="UTF-8" standalone="no"?>
<!DOCTYPE svg PUBLIC "-//W3C//DTD SVG 1.1//EN"
 "http://www.w3.org/Graphics/SVG/1.1/DTD/svg11.dtd">
<!-- Generated by graphviz version 13.1.0 (20250701.0955)
 -->
<!-- Title: ModelCanbus::Listener Pages: 1 -->
<svg width="183pt" height="135pt"
 viewBox="0.00 0.00 183.00 135.00" xmlns="http://www.w3.org/2000/svg" xmlns:xlink="http://www.w3.org/1999/xlink">
<g id="graph0" class="graph" transform="scale(1 1) rotate(0) translate(4 130.5)">
<title>ModelCanbus::Listener</title>
<!-- Node1 -->
<g id="Node000001" class="node">
<title>Node1</title>
<g id="a_Node000001"><a xlink:title="Listener interface for CAN bus node events.">
<polygon fill="#999999" stroke="none" points="174.75,-126.5 0,-126.5 0,0 174.75,0 174.75,-126.5"/>
<text xml:space="preserve" text-anchor="start" x="39.75" y="-113.95" font-family="Arial" font-size="9.00">ModelCanbus::Listener</text>
<text xml:space="preserve" text-anchor="start" x="86.25" y="-99.45" font-family="Arial" font-size="9.00"> </text>
<text xml:space="preserve" text-anchor="start" x="4" y="-84.95" font-family="Arial" font-size="9.00">+</text>
<text xml:space="preserve" text-anchor="start" x="13.25" y="-84.95" font-family="Arial" font-size="9.00">Listener()</text>
<text xml:space="preserve" text-anchor="start" x="4" y="-70.45" font-family="Arial" font-size="9.00">+</text>
<text xml:space="preserve" text-anchor="start" x="13.25" y="-70.45" font-family="Arial" font-size="9.00">~Listener()</text>
<text xml:space="preserve" text-anchor="start" x="4" y="-55.95" font-family="Arial" font-size="9.00">+</text>
<text xml:space="preserve" text-anchor="start" x="13.25" y="-55.95" font-family="Arial" font-size="9.00">canbusNodeActivityChanged</text>
<text xml:space="preserve" text-anchor="start" x="13.25" y="-45.45" font-family="Arial" font-size="9.00">Callback()</text>
<text xml:space="preserve" text-anchor="start" x="4" y="-30.95" font-family="Arial" font-size="9.00">+</text>
<text xml:space="preserve" text-anchor="start" x="13.25" y="-30.95" font-family="Arial" font-size="9.00">canbusNodeInputsChangedCallback()</text>
<text xml:space="preserve" text-anchor="start" x="4" y="-16.45" font-family="Arial" font-size="9.00">+</text>
<text xml:space="preserve" text-anchor="start" x="13.25" y="-16.45" font-family="Arial" font-size="9.00">canbusNodeOutputsChanged</text>
<text xml:space="preserve" text-anchor="start" x="13.25" y="-5.95" font-family="Arial" font-size="9.00">Callback()</text>
<polygon fill="#666666" stroke="#666666" points="0,-110 0,-110 174.75,-110 174.75,-110 0,-110"/>
<polygon fill="#666666" stroke="#666666" points="0,-95.5 0,-95.5 174.75,-95.5 174.75,-95.5 0,-95.5"/>
<polygon fill="none" stroke="#666666" points="0,0 0,-126.5 174.75,-126.5 174.75,0 0,0"/>
</a>
</g>
</g>
</g>
</svg>
