<?xml version="1.0" encoding="UTF-8" standalone="no"?>
<!DOCTYPE svg PUBLIC "-//W3C//DTD SVG 1.1//EN"
 "http://www.w3.org/Graphics/SVG/1.1/DTD/svg11.dtd">
<!-- Generated by graphviz version 13.1.0 (20250701.0955)
 -->
<!-- Title: System::ProduceDate Pages: 1 -->
<svg width="149pt" height="156pt"
 viewBox="0.00 0.00 149.00 156.00" xmlns="http://www.w3.org/2000/svg" xmlns:xlink="http://www.w3.org/1999/xlink">
<g id="graph0" class="graph" transform="scale(1 1) rotate(0) translate(4 151.5)">
<title>System::ProduceDate</title>
<!-- Node1 -->
<g id="Node000001" class="node">
<title>Node1</title>
<g id="a_Node000001"><a xlink:title="Production date wrapper for firmware builds.">
<polygon fill="#999999" stroke="none" points="127.75,-47.5 31.25,-47.5 31.25,0 127.75,0 127.75,-47.5"/>
<text xml:space="preserve" text-anchor="start" x="35.25" y="-34.95" font-family="Arial" font-size="9.00">System::ProduceDate</text>
<text xml:space="preserve" text-anchor="start" x="78.38" y="-20.45" font-family="Arial" font-size="9.00"> </text>
<text xml:space="preserve" text-anchor="start" x="40.06" y="-5.95" font-family="Arial" font-size="9.00">+</text>
<text xml:space="preserve" text-anchor="start" x="54.12" y="-5.95" font-family="Arial" font-size="9.00">ProduceDate()</text>
<polygon fill="#666666" stroke="#666666" points="31.25,-31 31.25,-31 127.75,-31 127.75,-31 31.25,-31"/>
<polygon fill="#666666" stroke="#666666" points="31.25,-16.5 31.25,-16.5 127.75,-16.5 127.75,-16.5 31.25,-16.5"/>
<polygon fill="none" stroke="#666666" points="31.25,0 31.25,-47.5 127.75,-47.5 127.75,0 31.25,0"/>
</a>
</g>
</g>
<!-- Node2 -->
<g id="Node000002" class="node">
<title>Node2</title>
<g id="a_Node000002"><a xlink:href="../../d3/d89/class_produce_date_base.html" target="_top" xlink:title=" ">
<polygon fill="white" stroke="none" points="83,-147.5 0,-147.5 0,-100 83,-100 83,-147.5"/>
<text xml:space="preserve" text-anchor="start" x="4" y="-134.95" font-family="Arial" font-size="9.00">ProduceDateBase</text>
<text xml:space="preserve" text-anchor="start" x="40.38" y="-120.45" font-family="Arial" font-size="9.00"> </text>
<text xml:space="preserve" text-anchor="start" x="40.38" y="-105.95" font-family="Arial" font-size="9.00"> </text>
<polygon fill="#bfbfbf" stroke="#bfbfbf" points="0,-131 0,-131 83,-131 83,-131 0,-131"/>
<polygon fill="#bfbfbf" stroke="#bfbfbf" points="0,-116.5 0,-116.5 83,-116.5 83,-116.5 0,-116.5"/>
<polygon fill="none" stroke="#bfbfbf" points="0,-100 0,-147.5 83,-147.5 83,-100 0,-100"/>
</a>
</g>
</g>
<!-- Node2&#45;&gt;Node1 -->
<g id="edge1_Node000001_Node000002" class="edge">
<title>Node2&#45;&gt;Node1</title>
<g id="a_edge1_Node000001_Node000002"><a xlink:title=" ">
<path fill="none" stroke="#63b8ff" d="M54.43,-89.41C59.8,-75.55 65.9,-59.83 70.73,-47.36"/>
<polygon fill="none" stroke="#63b8ff" points="51.21,-88.02 50.86,-98.61 57.74,-90.55 51.21,-88.02"/>
</a>
</g>
</g>
<!-- Node3 -->
<g id="Node000003" class="node">
<title>Node3</title>
<g id="a_Node000003"><a xlink:title=" ">
<polygon fill="white" stroke="none" points="133.5,-147.5 101.5,-147.5 101.5,-100 133.5,-100 133.5,-147.5"/>
<text xml:space="preserve" text-anchor="start" x="105.5" y="-134.95" font-family="Arial" font-size="9.00">size_t</text>
<text xml:space="preserve" text-anchor="start" x="116.38" y="-120.45" font-family="Arial" font-size="9.00"> </text>
<text xml:space="preserve" text-anchor="start" x="116.38" y="-105.95" font-family="Arial" font-size="9.00"> </text>
<polygon fill="#bfbfbf" stroke="#bfbfbf" points="101.5,-131 101.5,-131 133.5,-131 133.5,-131 101.5,-131"/>
<polygon fill="#bfbfbf" stroke="#bfbfbf" points="101.5,-116.5 101.5,-116.5 133.5,-116.5 133.5,-116.5 101.5,-116.5"/>
<polygon fill="none" stroke="#bfbfbf" points="101.5,-100 101.5,-147.5 133.5,-147.5 133.5,-100 101.5,-100"/>
</a>
</g>
</g>
<!-- Node3&#45;&gt;Node1 -->
<g id="edge2_Node000001_Node000003" class="edge">
<title>Node3&#45;&gt;Node1</title>
<g id="a_edge2_Node000001_Node000003"><a xlink:title=" ">
<path fill="none" stroke="#63b8ff" d="M108.69,-100.02C103.99,-87.9 98.11,-72.73 92.86,-59.2"/>
<polygon fill="none" stroke="#63b8ff" points="92.93,-59.38 87.03,-55.24 88.59,-48.2 94.49,-52.34 92.93,-59.38"/>
</a>
</g>
<text xml:space="preserve" text-anchor="start" x="103.78" y="-70.45" font-family="Arial" font-size="9.00" fill="grey">+WIDTH</text>
</g>
</g>
</svg>
