<?xml version="1.0" encoding="UTF-8" standalone="no"?>
<!DOCTYPE svg PUBLIC "-//W3C//DTD SVG 1.1//EN"
 "http://www.w3.org/Graphics/SVG/1.1/DTD/svg11.dtd">
<!-- Generated by graphviz version 12.2.1 (20241206.2353)
 -->
<!-- Title: Lib::HAL::UARTBase::setBaudRate Pages: 1 -->
<svg width="409pt" height="90pt"
 viewBox="0.00 0.00 409.25 90.00" xmlns="http://www.w3.org/2000/svg" xmlns:xlink="http://www.w3.org/1999/xlink">
<g id="graph0" class="graph" transform="scale(1 1) rotate(0) translate(4 86)">
<title>Lib::HAL::UARTBase::setBaudRate</title>
<!-- Node1 -->
<g id="Node000001" class="node">
<title>Node1</title>
<g id="a_Node000001"><a xlink:title="Sets a new baud rate.">
<polygon fill="#999999" stroke="#666666" points="109.75,-57 0,-57 0,-25 109.75,-25 109.75,-57"/>
<text text-anchor="start" x="8" y="-43.5" font-family="Helvetica,sans-Serif" font-size="10.00">Lib::HAL::UARTBase</text>
<text text-anchor="middle" x="54.88" y="-31.5" font-family="Helvetica,sans-Serif" font-size="10.00">::setBaudRate</text>
</a>
</g>
</g>
<!-- Node2 -->
<g id="Node000002" class="node">
<title>Node2</title>
<g id="a_Node000002"><a xlink:href="../../d2/d0a/a00333.html#abfbee8d9ce9d66bc5f0257b56c56c1c9" target="_top" xlink:title="Deinitializes the UART.">
<polygon fill="white" stroke="#666666" points="255.5,-82 145.75,-82 145.75,-50 255.5,-50 255.5,-82"/>
<text text-anchor="start" x="153.75" y="-68.5" font-family="Helvetica,sans-Serif" font-size="10.00">Lib::HAL::UARTBase</text>
<text text-anchor="middle" x="200.62" y="-56.5" font-family="Helvetica,sans-Serif" font-size="10.00">::deinit</text>
</a>
</g>
</g>
<!-- Node1&#45;&gt;Node2 -->
<g id="edge1_Node000001_Node000002" class="edge">
<title>Node1&#45;&gt;Node2</title>
<g id="a_edge1_Node000001_Node000002"><a xlink:title=" ">
<path fill="none" stroke="#63b8ff" d="M110.22,-50.45C118.11,-51.82 126.3,-53.25 134.38,-54.65"/>
<polygon fill="#63b8ff" stroke="#63b8ff" points="133.74,-58.09 144.19,-56.36 134.94,-51.2 133.74,-58.09"/>
</a>
</g>
</g>
<!-- Node4 -->
<g id="Node000004" class="node">
<title>Node4</title>
<g id="a_Node000004"><a xlink:href="../../d2/d0a/a00333.html#a76e085bd92d76c65ab99b1c4400416db" target="_top" xlink:title="Initializes the UART.">
<polygon fill="white" stroke="#666666" points="255.5,-32 145.75,-32 145.75,0 255.5,0 255.5,-32"/>
<text text-anchor="start" x="153.75" y="-18.5" font-family="Helvetica,sans-Serif" font-size="10.00">Lib::HAL::UARTBase</text>
<text text-anchor="middle" x="200.62" y="-6.5" font-family="Helvetica,sans-Serif" font-size="10.00">::init</text>
</a>
</g>
</g>
<!-- Node1&#45;&gt;Node4 -->
<g id="edge3_Node000001_Node000004" class="edge">
<title>Node1&#45;&gt;Node4</title>
<g id="a_edge3_Node000001_Node000004"><a xlink:title=" ">
<path fill="none" stroke="#63b8ff" d="M110.22,-31.55C118.11,-30.18 126.3,-28.75 134.38,-27.35"/>
<polygon fill="#63b8ff" stroke="#63b8ff" points="134.94,-30.8 144.19,-25.64 133.74,-23.91 134.94,-30.8"/>
</a>
</g>
</g>
<!-- Node3 -->
<g id="Node000003" class="node">
<title>Node3</title>
<g id="a_Node000003"><a xlink:href="../../d2/d0a/a00333.html#ad608aca2a901c18171ad8f78691ac987" target="_top" xlink:title="Gets the UART handle.">
<polygon fill="white" stroke="#666666" points="401.25,-82 291.5,-82 291.5,-50 401.25,-50 401.25,-82"/>
<text text-anchor="start" x="299.5" y="-68.5" font-family="Helvetica,sans-Serif" font-size="10.00">Lib::HAL::UARTBase</text>
<text text-anchor="middle" x="346.38" y="-56.5" font-family="Helvetica,sans-Serif" font-size="10.00">::getHandle</text>
</a>
</g>
</g>
<!-- Node2&#45;&gt;Node3 -->
<g id="edge2_Node000002_Node000003" class="edge">
<title>Node2&#45;&gt;Node3</title>
<g id="a_edge2_Node000002_Node000003"><a xlink:title=" ">
<path fill="none" stroke="#63b8ff" d="M255.97,-66C263.86,-66 272.05,-66 280.13,-66"/>
<polygon fill="#63b8ff" stroke="#63b8ff" points="279.92,-69.5 289.92,-66 279.92,-62.5 279.92,-69.5"/>
</a>
</g>
</g>
<!-- Node4&#45;&gt;Node3 -->
<g id="edge4_Node000004_Node000003" class="edge">
<title>Node4&#45;&gt;Node3</title>
<g id="a_edge4_Node000004_Node000003"><a xlink:title=" ">
<path fill="none" stroke="#63b8ff" d="M248.69,-32.37C261.1,-36.69 274.64,-41.4 287.55,-45.89"/>
<polygon fill="#63b8ff" stroke="#63b8ff" points="286.18,-49.11 296.77,-49.09 288.48,-42.5 286.18,-49.11"/>
</a>
</g>
</g>
<!-- Node5 -->
<g id="Node000005" class="node">
<title>Node5</title>
<g id="a_Node000005"><a xlink:href="../../d2/d0a/a00333.html#a230d87f15cb7e9fab0d228e3e91a9d58" target="_top" xlink:title=" ">
<polygon fill="white" stroke="#666666" points="401.25,-32 291.5,-32 291.5,0 401.25,0 401.25,-32"/>
<text text-anchor="start" x="299.5" y="-18.5" font-family="Helvetica,sans-Serif" font-size="10.00">Lib::HAL::UARTBase</text>
<text text-anchor="middle" x="346.38" y="-6.5" font-family="Helvetica,sans-Serif" font-size="10.00">::handleInterrupt</text>
</a>
</g>
</g>
<!-- Node4&#45;&gt;Node5 -->
<g id="edge5_Node000004_Node000005" class="edge">
<title>Node4&#45;&gt;Node5</title>
<g id="a_edge5_Node000004_Node000005"><a xlink:title=" ">
<path fill="none" stroke="#63b8ff" d="M255.97,-16C263.86,-16 272.05,-16 280.13,-16"/>
<polygon fill="#63b8ff" stroke="#63b8ff" points="279.92,-19.5 289.92,-16 279.92,-12.5 279.92,-19.5"/>
</a>
</g>
</g>
</g>
</svg>
