<?xml version="1.0" encoding="UTF-8" standalone="no"?>
<!DOCTYPE svg PUBLIC "-//W3C//DTD SVG 1.1//EN"
 "http://www.w3.org/Graphics/SVG/1.1/DTD/svg11.dtd">
<!-- Generated by graphviz version 12.2.1 (20241206.2353)
 -->
<!-- Title: esc_coe.c Pages: 1 -->
<svg width="368pt" height="196pt"
 viewBox="0.00 0.00 368.35 196.00" xmlns="http://www.w3.org/2000/svg" xmlns:xlink="http://www.w3.org/1999/xlink">
<g id="graph0" class="graph" transform="scale(1 1) rotate(0) translate(4 192)">
<title>esc_coe.c</title>
<!-- Node1 -->
<g id="Node000001" class="node">
<title>Node1</title>
<g id="a_Node000001"><a xlink:title="This file contains the implementation of the CANopen over EtherCAT (CoE) protocol.">
<polygon fill="#999999" stroke="#666666" points="179.73,-188 118.73,-188 118.73,-168 179.73,-168 179.73,-188"/>
<text text-anchor="middle" x="149.23" y="-174.5" font-family="Helvetica,sans-Serif" font-size="10.00">esc_coe.c</text>
</a>
</g>
</g>
<!-- Node2 -->
<g id="Node000002" class="node">
<title>Node2</title>
<g id="a_Node000002"><a xlink:href="../../d3/d52/a00023.html" target="_top" xlink:title="Definitions for EtherCAT Slave Controller (ESC) CoE (CANopen over EtherCAT) object dictionary.">
<polygon fill="white" stroke="#666666" points="72.73,-76 11.73,-76 11.73,-56 72.73,-56 72.73,-76"/>
<text text-anchor="middle" x="42.23" y="-62.5" font-family="Helvetica,sans-Serif" font-size="10.00">esc_coe.h</text>
</a>
</g>
</g>
<!-- Node1&#45;&gt;Node2 -->
<g id="edge1_Node000001_Node000002" class="edge">
<title>Node1&#45;&gt;Node2</title>
<g id="a_edge1_Node000001_Node000002"><a xlink:title=" ">
<path fill="none" stroke="#63b8ff" d="M125.1,-167.54C108.46,-160 86.8,-148.05 72.23,-132 60.6,-119.19 52.74,-101.09 48,-87.24"/>
<polygon fill="#63b8ff" stroke="#63b8ff" points="51.39,-86.35 45.07,-77.85 44.71,-88.44 51.39,-86.35"/>
</a>
</g>
</g>
<!-- Node3 -->
<g id="Node000003" class="node">
<title>Node3</title>
<g id="a_Node000003"><a xlink:title=" ">
<polygon fill="#e0e0e0" stroke="#999999" points="59.6,-20 24.85,-20 24.85,0 59.6,0 59.6,-20"/>
<text text-anchor="middle" x="42.23" y="-6.5" font-family="Helvetica,sans-Serif" font-size="10.00">cc.h</text>
</a>
</g>
</g>
<!-- Node1&#45;&gt;Node3 -->
<g id="edge9_Node000001_Node000003" class="edge">
<title>Node1&#45;&gt;Node3</title>
<g id="a_edge9_Node000001_Node000003"><a xlink:title=" ">
<path fill="none" stroke="#63b8ff" d="M118.82,-167.61C81.86,-154.23 21.99,-125.62 2.23,-76 -4.73,-58.53 8.32,-40.45 21.33,-27.81"/>
<polygon fill="#63b8ff" stroke="#63b8ff" points="23.42,-30.64 28.54,-21.36 18.75,-25.42 23.42,-30.64"/>
</a>
</g>
</g>
<!-- Node4 -->
<g id="Node000004" class="node">
<title>Node4</title>
<g id="a_Node000004"><a xlink:href="../../d4/d51/a00017.html" target="_top" xlink:title="EtherCAT Slave Controller (ESC) header file.">
<polygon fill="white" stroke="#666666" points="121.23,-132 81.23,-132 81.23,-112 121.23,-112 121.23,-132"/>
<text text-anchor="middle" x="101.23" y="-118.5" font-family="Helvetica,sans-Serif" font-size="10.00">esc.h</text>
</a>
</g>
</g>
<!-- Node1&#45;&gt;Node4 -->
<g id="edge3_Node000001_Node000004" class="edge">
<title>Node1&#45;&gt;Node4</title>
<g id="a_edge3_Node000001_Node000004"><a xlink:title=" ">
<path fill="none" stroke="#63b8ff" d="M140.87,-167.59C134.33,-160.24 125.05,-149.8 117.11,-140.87"/>
<polygon fill="#63b8ff" stroke="#63b8ff" points="119.76,-138.58 110.5,-133.43 114.53,-143.23 119.76,-138.58"/>
</a>
</g>
</g>
<!-- Node7 -->
<g id="Node000007" class="node">
<title>Node7</title>
<g id="a_Node000007"><a xlink:title=" ">
<polygon fill="#e0e0e0" stroke="#999999" points="259.1,-76 203.35,-76 203.35,-56 259.1,-56 259.1,-76"/>
<text text-anchor="middle" x="231.23" y="-62.5" font-family="Helvetica,sans-Serif" font-size="10.00">stdbool.h</text>
</a>
</g>
</g>
<!-- Node1&#45;&gt;Node7 -->
<g id="edge10_Node000001_Node000007" class="edge">
<title>Node1&#45;&gt;Node7</title>
<g id="a_edge10_Node000001_Node000007"><a xlink:title=" ">
<path fill="none" stroke="#63b8ff" d="M150.02,-167.78C151.56,-154.38 155.98,-129.25 168.23,-112 176.92,-99.76 190.03,-89.63 202.03,-82.1"/>
<polygon fill="#63b8ff" stroke="#63b8ff" points="203.59,-85.25 210.44,-77.17 200.04,-79.21 203.59,-85.25"/>
</a>
</g>
</g>
<!-- Node8 -->
<g id="Node000008" class="node">
<title>Node8</title>
<g id="a_Node000008"><a xlink:title=" ">
<polygon fill="#e0e0e0" stroke="#999999" points="228.85,-132 177.6,-132 177.6,-112 228.85,-112 228.85,-132"/>
<text text-anchor="middle" x="203.23" y="-118.5" font-family="Helvetica,sans-Serif" font-size="10.00">stddef.h</text>
</a>
</g>
</g>
<!-- Node1&#45;&gt;Node8 -->
<g id="edge11_Node000001_Node000008" class="edge">
<title>Node1&#45;&gt;Node8</title>
<g id="a_edge11_Node000001_Node000008"><a xlink:title=" ">
<path fill="none" stroke="#63b8ff" d="M158.63,-167.59C166.14,-160.08 176.87,-149.35 185.92,-140.3"/>
<polygon fill="#63b8ff" stroke="#63b8ff" points="188.26,-142.91 192.86,-133.37 183.31,-137.96 188.26,-142.91"/>
</a>
</g>
</g>
<!-- Node9 -->
<g id="Node000009" class="node">
<title>Node9</title>
<g id="a_Node000009"><a xlink:title=" ">
<polygon fill="#e0e0e0" stroke="#999999" points="293.98,-132 246.48,-132 246.48,-112 293.98,-112 293.98,-132"/>
<text text-anchor="middle" x="270.23" y="-118.5" font-family="Helvetica,sans-Serif" font-size="10.00">stdlib.h</text>
</a>
</g>
</g>
<!-- Node1&#45;&gt;Node9 -->
<g id="edge12_Node000001_Node000009" class="edge">
<title>Node1&#45;&gt;Node9</title>
<g id="a_edge12_Node000001_Node000009"><a xlink:title=" ">
<path fill="none" stroke="#63b8ff" d="M170.3,-167.59C189.19,-159.17 217.15,-146.69 238.69,-137.07"/>
<polygon fill="#63b8ff" stroke="#63b8ff" points="239.9,-140.37 247.6,-133.1 237.05,-133.98 239.9,-140.37"/>
</a>
</g>
</g>
<!-- Node10 -->
<g id="Node000010" class="node">
<title>Node10</title>
<g id="a_Node000010"><a xlink:title=" ">
<polygon fill="#e0e0e0" stroke="#999999" points="360.35,-132 312.1,-132 312.1,-112 360.35,-112 360.35,-132"/>
<text text-anchor="middle" x="336.23" y="-118.5" font-family="Helvetica,sans-Serif" font-size="10.00">string.h</text>
</a>
</g>
</g>
<!-- Node1&#45;&gt;Node10 -->
<g id="edge13_Node000001_Node000010" class="edge">
<title>Node1&#45;&gt;Node10</title>
<g id="a_edge13_Node000001_Node000010"><a xlink:title=" ">
<path fill="none" stroke="#63b8ff" d="M180.11,-168.08C213.43,-158.46 266.4,-143.17 301.24,-133.1"/>
<polygon fill="#63b8ff" stroke="#63b8ff" points="301.77,-136.59 310.41,-130.46 299.83,-129.87 301.77,-136.59"/>
</a>
</g>
</g>
<!-- Node2&#45;&gt;Node3 -->
<g id="edge2_Node000002_Node000003" class="edge">
<title>Node2&#45;&gt;Node3</title>
<g id="a_edge2_Node000002_Node000003"><a xlink:title=" ">
<path fill="none" stroke="#63b8ff" d="M42.23,-55.59C42.23,-49.01 42.23,-39.96 42.23,-31.73"/>
<polygon fill="#63b8ff" stroke="#63b8ff" points="45.73,-31.81 42.23,-21.81 38.73,-31.81 45.73,-31.81"/>
</a>
</g>
</g>
<!-- Node4&#45;&gt;Node2 -->
<g id="edge7_Node000004_Node000002" class="edge">
<title>Node4&#45;&gt;Node2</title>
<g id="a_edge7_Node000004_Node000002"><a xlink:title=" ">
<path fill="none" stroke="#63b8ff" d="M90.95,-111.59C82.66,-104.01 70.78,-93.13 60.83,-84.02"/>
<polygon fill="#63b8ff" stroke="#63b8ff" points="63.24,-81.49 53.5,-77.32 58.52,-86.65 63.24,-81.49"/>
</a>
</g>
</g>
<!-- Node4&#45;&gt;Node3 -->
<g id="edge6_Node000004_Node000003" class="edge">
<title>Node4&#45;&gt;Node3</title>
<g id="a_edge6_Node000004_Node000003"><a xlink:title=" ">
<path fill="none" stroke="#63b8ff" d="M99.83,-111.67C97.59,-98.58 92.36,-74.31 82.23,-56 76.64,-45.9 68.43,-36.14 60.9,-28.31"/>
<polygon fill="#63b8ff" stroke="#63b8ff" points="63.51,-25.97 53.94,-21.43 58.59,-30.95 63.51,-25.97"/>
</a>
</g>
</g>
<!-- Node5 -->
<g id="Node000005" class="node">
<title>Node5</title>
<g id="a_Node000005"><a xlink:href="../../d5/df9/a00044.html" target="_top" xlink:title="Default options for the EtherCAT Slave Controller (ESC).">
<polygon fill="white" stroke="#666666" points="185.1,-76 129.35,-76 129.35,-56 185.1,-56 185.1,-76"/>
<text text-anchor="middle" x="157.23" y="-62.5" font-family="Helvetica,sans-Serif" font-size="10.00">options.h</text>
</a>
</g>
</g>
<!-- Node4&#45;&gt;Node5 -->
<g id="edge4_Node000004_Node000005" class="edge">
<title>Node4&#45;&gt;Node5</title>
<g id="a_edge4_Node000004_Node000005"><a xlink:title=" ">
<path fill="none" stroke="#63b8ff" d="M110.98,-111.59C118.85,-104.01 130.13,-93.13 139.57,-84.02"/>
<polygon fill="#63b8ff" stroke="#63b8ff" points="141.73,-86.81 146.5,-77.35 136.87,-81.77 141.73,-86.81"/>
</a>
</g>
</g>
<!-- Node4&#45;&gt;Node7 -->
<g id="edge8_Node000004_Node000007" class="edge">
<title>Node4&#45;&gt;Node7</title>
<g id="a_edge8_Node000004_Node000007"><a xlink:title=" ">
<path fill="none" stroke="#63b8ff" d="M121.54,-112.56C141.98,-104.07 173.83,-90.84 197.96,-80.82"/>
<polygon fill="#63b8ff" stroke="#63b8ff" points="199.14,-84.12 207.04,-77.05 196.46,-77.65 199.14,-84.12"/>
</a>
</g>
</g>
<!-- Node6 -->
<g id="Node000006" class="node">
<title>Node6</title>
<g id="a_Node000006"><a xlink:title=" ">
<polygon fill="#e0e0e0" stroke="#999999" points="197.1,-20 117.35,-20 117.35,0 197.1,0 197.1,-20"/>
<text text-anchor="middle" x="157.23" y="-6.5" font-family="Helvetica,sans-Serif" font-size="10.00">ecat_options.h</text>
</a>
</g>
</g>
<!-- Node5&#45;&gt;Node6 -->
<g id="edge5_Node000005_Node000006" class="edge">
<title>Node5&#45;&gt;Node6</title>
<g id="a_edge5_Node000005_Node000006"><a xlink:title=" ">
<path fill="none" stroke="#63b8ff" d="M157.23,-55.59C157.23,-49.01 157.23,-39.96 157.23,-31.73"/>
<polygon fill="#63b8ff" stroke="#63b8ff" points="160.73,-31.81 157.23,-21.81 153.73,-31.81 160.73,-31.81"/>
</a>
</g>
</g>
</g>
</svg>
