<?xml version="1.0" encoding="UTF-8" standalone="no"?>
<!DOCTYPE svg PUBLIC "-//W3C//DTD SVG 1.1//EN"
 "http://www.w3.org/Graphics/SVG/1.1/DTD/svg11.dtd">
<!-- Generated by graphviz version 12.2.1 (20241206.2353)
 -->
<!-- Title: ESC_checkSM23 Pages: 1 -->
<svg width="573pt" height="66pt"
 viewBox="0.00 0.00 572.50 66.00" xmlns="http://www.w3.org/2000/svg" xmlns:xlink="http://www.w3.org/1999/xlink">
<g id="graph0" class="graph" transform="scale(1 1) rotate(0) translate(4 62)">
<title>ESC_checkSM23</title>
<!-- Node1 -->
<g id="Node000001" class="node">
<title>Node1</title>
<g id="a_Node000001"><a xlink:title=" ">
<polygon fill="#999999" stroke="#666666" points="564.5,-39 470.5,-39 470.5,-19 564.5,-19 564.5,-39"/>
<text text-anchor="middle" x="517.5" y="-25.5" font-family="Helvetica,sans-Serif" font-size="10.00">ESC_checkSM23</text>
</a>
</g>
</g>
<!-- Node2 -->
<g id="Node000002" class="node">
<title>Node2</title>
<g id="a_Node000002"><a xlink:href="../../d2/de7/a00014.html#a8e6c3aa31e155f682e8150f552309d10" target="_top" xlink:title="Activates the SyncManager event.">
<polygon fill="white" stroke="#666666" points="315.75,-58 212,-58 212,-38 315.75,-38 315.75,-58"/>
<text text-anchor="middle" x="263.88" y="-44.5" font-family="Helvetica,sans-Serif" font-size="10.00">ESC_sm_act_event</text>
</a>
</g>
</g>
<!-- Node1&#45;&gt;Node2 -->
<g id="edge1_Node000001_Node000002" class="edge">
<title>Node1&#45;&gt;Node2</title>
<g id="a_edge1_Node000001_Node000002"><a xlink:title=" ">
<path fill="none" stroke="#63b8ff" d="M458.64,-33.37C415.67,-36.61 357.59,-41 316.25,-44.12"/>
<polygon fill="#63b8ff" stroke="#63b8ff" points="458.84,-36.86 468.55,-32.62 458.31,-29.88 458.84,-36.86"/>
</a>
</g>
</g>
<!-- Node6 -->
<g id="Node000006" class="node">
<title>Node6</title>
<g id="a_Node000006"><a xlink:href="../../d2/de7/a00014.html#ade05d9ef7cff6ffd50f653504a0ace52" target="_top" xlink:title="Starts the input process for the ESC (EtherCAT Slave Controller).">
<polygon fill="white" stroke="#666666" points="434.5,-20 351.75,-20 351.75,0 434.5,0 434.5,-20"/>
<text text-anchor="middle" x="393.12" y="-6.5" font-family="Helvetica,sans-Serif" font-size="10.00">ESC_startinput</text>
</a>
</g>
</g>
<!-- Node1&#45;&gt;Node6 -->
<g id="edge5_Node000001_Node000006" class="edge">
<title>Node1&#45;&gt;Node6</title>
<g id="a_edge5_Node000001_Node000006"><a xlink:title=" ">
<path fill="none" stroke="#63b8ff" d="M458.87,-20.05C450.75,-18.79 442.55,-17.52 434.84,-16.32"/>
<polygon fill="#63b8ff" stroke="#63b8ff" points="458.32,-23.51 468.74,-21.58 459.4,-16.59 458.32,-23.51"/>
</a>
</g>
</g>
<!-- Node3 -->
<g id="Node000003" class="node">
<title>Node3</title>
<g id="a_Node000003"><a xlink:href="../../d4/dee/a00008.html#ac8db332851793f138f93c64b45f0968d" target="_top" xlink:title="Polling function for the EtherCAT slave stack.">
<polygon fill="white" stroke="#666666" points="168.88,-58 95.88,-58 95.88,-38 168.88,-38 168.88,-58"/>
<text text-anchor="middle" x="132.38" y="-44.5" font-family="Helvetica,sans-Serif" font-size="10.00">ecat_slv_poll</text>
</a>
</g>
</g>
<!-- Node2&#45;&gt;Node3 -->
<g id="edge2_Node000002_Node000003" class="edge">
<title>Node2&#45;&gt;Node3</title>
<g id="a_edge2_Node000002_Node000003"><a xlink:title=" ">
<path fill="none" stroke="#63b8ff" d="M200.51,-48C189.71,-48 178.81,-48 169.03,-48"/>
<polygon fill="#63b8ff" stroke="#63b8ff" points="200.18,-51.5 210.18,-48 200.18,-44.5 200.18,-51.5"/>
</a>
</g>
</g>
<!-- Node5 -->
<g id="Node000005" class="node">
<title>Node5</title>
<g id="a_Node000005"><a xlink:href="../../d4/dee/a00008.html#adf1311ff3a94e7d4a01081e9765edb53" target="_top" xlink:title="Handler for SM change, SM0/1, AL CONTROL and EEPROM events, the application control what interrupts t...">
<polygon fill="white" stroke="#666666" points="176,-20 88.75,-20 88.75,0 176,0 176,-20"/>
<text text-anchor="middle" x="132.38" y="-6.5" font-family="Helvetica,sans-Serif" font-size="10.00">ecat_slv_worker</text>
</a>
</g>
</g>
<!-- Node2&#45;&gt;Node5 -->
<g id="edge4_Node000002_Node000005" class="edge">
<title>Node2&#45;&gt;Node5</title>
<g id="a_edge4_Node000002_Node000005"><a xlink:title=" ">
<path fill="none" stroke="#63b8ff" d="M216.15,-34.29C200.6,-29.73 183.55,-24.72 168.99,-20.45"/>
<polygon fill="#63b8ff" stroke="#63b8ff" points="215.11,-37.63 225.69,-37.09 217.08,-30.92 215.11,-37.63"/>
</a>
</g>
</g>
<!-- Node4 -->
<g id="Node000004" class="node">
<title>Node4</title>
<g id="a_Node000004"><a xlink:href="../../d4/dee/a00008.html#a771f616c41967a475e64eaa386edc579" target="_top" xlink:title="Main function for the EtherCAT slave stack.">
<polygon fill="white" stroke="#666666" points="52.75,-58 0,-58 0,-38 52.75,-38 52.75,-58"/>
<text text-anchor="middle" x="26.38" y="-44.5" font-family="Helvetica,sans-Serif" font-size="10.00">ecat_slv</text>
</a>
</g>
</g>
<!-- Node3&#45;&gt;Node4 -->
<g id="edge3_Node000003_Node000004" class="edge">
<title>Node3&#45;&gt;Node4</title>
<g id="a_edge3_Node000003_Node000004"><a xlink:title=" ">
<path fill="none" stroke="#63b8ff" d="M84.16,-48C73.45,-48 62.47,-48 53.06,-48"/>
<polygon fill="#63b8ff" stroke="#63b8ff" points="84.07,-51.5 94.07,-48 84.07,-44.5 84.07,-51.5"/>
</a>
</g>
</g>
<!-- Node7 -->
<g id="Node000007" class="node">
<title>Node7</title>
<g id="a_Node000007"><a xlink:href="../../d2/de7/a00014.html#a1f4da4aa96dc469b218abf33ff857130" target="_top" xlink:title="Handles the state transitions of the EtherCAT Slave Controller (ESC).">
<polygon fill="white" stroke="#666666" points="295.88,-20 231.88,-20 231.88,0 295.88,0 295.88,-20"/>
<text text-anchor="middle" x="263.88" y="-6.5" font-family="Helvetica,sans-Serif" font-size="10.00">ESC_state</text>
</a>
</g>
</g>
<!-- Node6&#45;&gt;Node7 -->
<g id="edge6_Node000006_Node000007" class="edge">
<title>Node6&#45;&gt;Node7</title>
<g id="a_edge6_Node000006_Node000007"><a xlink:title=" ">
<path fill="none" stroke="#63b8ff" d="M340.32,-10C325.38,-10 309.53,-10 296.24,-10"/>
<polygon fill="#63b8ff" stroke="#63b8ff" points="340,-13.5 350,-10 340,-6.5 340,-13.5"/>
</a>
</g>
</g>
<!-- Node7&#45;&gt;Node3 -->
<g id="edge7_Node000007_Node000003" class="edge">
<title>Node7&#45;&gt;Node3</title>
<g id="a_edge7_Node000007_Node000003"><a xlink:title=" ">
<path fill="none" stroke="#63b8ff" d="M220.91,-22.31C204.16,-27.23 185.07,-32.83 169.01,-37.54"/>
<polygon fill="#63b8ff" stroke="#63b8ff" points="221.46,-25.8 230.07,-19.62 219.49,-19.08 221.46,-25.8"/>
</a>
</g>
</g>
<!-- Node7&#45;&gt;Node5 -->
<g id="edge8_Node000007_Node000005" class="edge">
<title>Node7&#45;&gt;Node5</title>
<g id="a_edge8_Node000007_Node000005"><a xlink:title=" ">
<path fill="none" stroke="#63b8ff" d="M220.11,-10C205.99,-10 190.3,-10 176.18,-10"/>
<polygon fill="#63b8ff" stroke="#63b8ff" points="220.01,-13.5 230.01,-10 220.01,-6.5 220.01,-13.5"/>
</a>
</g>
</g>
</g>
</svg>
