<?xml version="1.0" encoding="UTF-8" standalone="no"?>
<!DOCTYPE svg PUBLIC "-//W3C//DTD SVG 1.1//EN"
 "http://www.w3.org/Graphics/SVG/1.1/DTD/svg11.dtd">
<!-- Generated by graphviz version 12.2.1 (20241206.2353)
 -->
<!-- Title: _SMmap Pages: 1 -->
<svg width="179pt" height="420pt"
 viewBox="0.00 0.00 178.50 420.00" xmlns="http://www.w3.org/2000/svg" xmlns:xlink="http://www.w3.org/1999/xlink">
<g id="graph0" class="graph" transform="scale(1 1) rotate(0) translate(4 416)">
<title>_SMmap</title>
<!-- Node1 -->
<g id="Node000001" class="node">
<title>Node1</title>
<g id="a_Node000001"><a xlink:title="Object dictionary entry.">
<polygon fill="#999999" stroke="none" points="88.5,-52 9,-52 9,0 88.5,0 88.5,-52"/>
<text text-anchor="start" x="29.25" y="-38.5" font-family="Helvetica,sans-Serif" font-size="10.00">_SMmap</text>
<text text-anchor="start" x="13" y="-22.5" font-family="Helvetica,sans-Serif" font-size="10.00">+</text>
<text text-anchor="start" x="23" y="-22.5" font-family="Helvetica,sans-Serif" font-size="10.00">uint32_t offset</text>
<text text-anchor="start" x="47.25" y="-6.5" font-family="Helvetica,sans-Serif" font-size="10.00"> </text>
<polygon fill="#666666" stroke="#666666" points="9,-34 9,-34 88.5,-34 88.5,-34 9,-34"/>
<polygon fill="#666666" stroke="#666666" points="9,-18 9,-18 21,-18 21,-18 9,-18"/>
<polygon fill="#666666" stroke="#666666" points="21,-18 21,-18 88.5,-18 88.5,-18 21,-18"/>
<polygon fill="none" stroke="#666666" points="9,0 9,-52 88.5,-52 88.5,0 9,0"/>
</a>
</g>
</g>
<!-- Node2 -->
<g id="Node000002" class="node">
<title>Node2</title>
<g id="a_Node000002"><a xlink:href="../../d1/dc1/a00092.html" target="_top" xlink:title="Object dictionary entry.">
<polygon fill="white" stroke="none" points="97.5,-412 0,-412 0,-264 97.5,-264 97.5,-412"/>
<text text-anchor="start" x="37.12" y="-398.5" font-family="Helvetica,sans-Serif" font-size="10.00">_objd</text>
<text text-anchor="start" x="4" y="-382.5" font-family="Helvetica,sans-Serif" font-size="10.00">+</text>
<text text-anchor="start" x="14" y="-382.5" font-family="Helvetica,sans-Serif" font-size="10.00">uint16_t subindex</text>
<text text-anchor="start" x="4" y="-366.5" font-family="Helvetica,sans-Serif" font-size="10.00">+</text>
<text text-anchor="start" x="14" y="-366.5" font-family="Helvetica,sans-Serif" font-size="10.00">uint16_t datatype</text>
<text text-anchor="start" x="4" y="-350.5" font-family="Helvetica,sans-Serif" font-size="10.00">+</text>
<text text-anchor="start" x="14" y="-350.5" font-family="Helvetica,sans-Serif" font-size="10.00">uint16_t bitlength</text>
<text text-anchor="start" x="4" y="-334.5" font-family="Helvetica,sans-Serif" font-size="10.00">+</text>
<text text-anchor="start" x="14" y="-334.5" font-family="Helvetica,sans-Serif" font-size="10.00">uint16_t flags</text>
<text text-anchor="start" x="4" y="-318.5" font-family="Helvetica,sans-Serif" font-size="10.00">+</text>
<text text-anchor="start" x="14" y="-318.5" font-family="Helvetica,sans-Serif" font-size="10.00">const char * name</text>
<text text-anchor="start" x="4" y="-302.5" font-family="Helvetica,sans-Serif" font-size="10.00">+</text>
<text text-anchor="start" x="14" y="-302.5" font-family="Helvetica,sans-Serif" font-size="10.00">uint32_t value</text>
<text text-anchor="start" x="4" y="-286.5" font-family="Helvetica,sans-Serif" font-size="10.00">+</text>
<text text-anchor="start" x="14" y="-286.5" font-family="Helvetica,sans-Serif" font-size="10.00">void * data</text>
<text text-anchor="start" x="47.25" y="-270.5" font-family="Helvetica,sans-Serif" font-size="10.00"> </text>
<polygon fill="#666666" stroke="#666666" points="0,-394 0,-394 97.5,-394 97.5,-394 0,-394"/>
<polygon fill="#666666" stroke="#666666" points="0,-282 0,-282 12,-282 12,-282 0,-282"/>
<polygon fill="#666666" stroke="#666666" points="12,-282 12,-282 97.5,-282 97.5,-282 12,-282"/>
<polygon fill="none" stroke="#666666" points="0,-264 0,-412 97.5,-412 97.5,-264 0,-264"/>
</a>
</g>
</g>
<!-- Node2&#45;&gt;Node1 -->
<g id="edge1_Node000001_Node000002" class="edge">
<title>Node2&#45;&gt;Node1</title>
<g id="a_edge1_Node000001_Node000002"><a xlink:title=" ">
<path fill="none" stroke="#63b8ff" d="M43.87,-264.1C41.42,-217.22 39.46,-155 42,-100 42.53,-88.49 43.53,-75.98 44.6,-64.63"/>
<polygon fill="none" stroke="#63b8ff" points="44.59,-64.8 41.2,-58.43 45.78,-52.86 49.16,-59.23 44.59,-64.8"/>
</a>
</g>
<text text-anchor="middle" x="52.88" y="-154.5" font-family="Helvetica,sans-Serif" font-size="10.00" fill="grey"> +obj</text>
</g>
<!-- Node3 -->
<g id="Node000003" class="node">
<title>Node3</title>
<g id="a_Node000003"><a xlink:href="../../d9/df8/a00096.html" target="_top" xlink:title="Object list entry.">
<polygon fill="white" stroke="none" points="170.5,-216 73,-216 73,-100 170.5,-100 170.5,-216"/>
<text text-anchor="start" x="99.62" y="-202.5" font-family="Helvetica,sans-Serif" font-size="10.00">_objectlist</text>
<text text-anchor="start" x="77" y="-186.5" font-family="Helvetica,sans-Serif" font-size="10.00">+</text>
<text text-anchor="start" x="87" y="-186.5" font-family="Helvetica,sans-Serif" font-size="10.00">uint16_t index</text>
<text text-anchor="start" x="77" y="-170.5" font-family="Helvetica,sans-Serif" font-size="10.00">+</text>
<text text-anchor="start" x="87" y="-170.5" font-family="Helvetica,sans-Serif" font-size="10.00">uint16_t objtype</text>
<text text-anchor="start" x="77" y="-154.5" font-family="Helvetica,sans-Serif" font-size="10.00">+</text>
<text text-anchor="start" x="87" y="-154.5" font-family="Helvetica,sans-Serif" font-size="10.00">uint8_t maxsub</text>
<text text-anchor="start" x="77" y="-138.5" font-family="Helvetica,sans-Serif" font-size="10.00">+</text>
<text text-anchor="start" x="87" y="-138.5" font-family="Helvetica,sans-Serif" font-size="10.00">uint8_t pad1</text>
<text text-anchor="start" x="77" y="-122.5" font-family="Helvetica,sans-Serif" font-size="10.00">+</text>
<text text-anchor="start" x="87" y="-122.5" font-family="Helvetica,sans-Serif" font-size="10.00">const char * name</text>
<text text-anchor="start" x="120.25" y="-106.5" font-family="Helvetica,sans-Serif" font-size="10.00"> </text>
<polygon fill="#666666" stroke="#666666" points="73,-198 73,-198 170.5,-198 170.5,-198 73,-198"/>
<polygon fill="#666666" stroke="#666666" points="73,-118 73,-118 85,-118 85,-118 73,-118"/>
<polygon fill="#666666" stroke="#666666" points="85,-118 85,-118 170.5,-118 170.5,-118 85,-118"/>
<polygon fill="none" stroke="#666666" points="73,-100 73,-216 170.5,-216 170.5,-100 73,-100"/>
</a>
</g>
</g>
<!-- Node2&#45;&gt;Node3 -->
<g id="edge3_Node000003_Node000002" class="edge">
<title>Node2&#45;&gt;Node3</title>
<g id="a_edge3_Node000003_Node000002"><a xlink:title=" ">
<path fill="none" stroke="#63b8ff" d="M78.65,-264.09C83.61,-251.99 88.74,-239.48 93.66,-227.5"/>
<polygon fill="none" stroke="#63b8ff" points="93.59,-227.66 92.17,-220.59 98.14,-216.56 99.57,-223.63 93.59,-227.66"/>
</a>
</g>
<text text-anchor="middle" x="111" y="-236.5" font-family="Helvetica,sans-Serif" font-size="10.00" fill="grey"> +objdesc</text>
</g>
<!-- Node3&#45;&gt;Node1 -->
<g id="edge2_Node000001_Node000003" class="edge">
<title>Node3&#45;&gt;Node1</title>
<g id="a_edge2_Node000001_Node000003"><a xlink:title=" ">
<path fill="none" stroke="#63b8ff" d="M89.94,-100.36C82.87,-87.76 75.56,-74.74 69.1,-63.23"/>
<polygon fill="none" stroke="#63b8ff" points="69.03,-63.11 62.6,-59.84 63.15,-52.65 69.58,-55.92 69.03,-63.11"/>
</a>
</g>
<text text-anchor="middle" x="112.09" y="-72.5" font-family="Helvetica,sans-Serif" font-size="10.00" fill="grey"> +objectlistitem</text>
</g>
</g>
</svg>
