<?xml version="1.0" encoding="UTF-8" standalone="no"?>
<!DOCTYPE svg PUBLIC "-//W3C//DTD SVG 1.1//EN"
 "http://www.w3.org/Graphics/SVG/1.1/DTD/svg11.dtd">
<!-- Generated by graphviz version 13.1.0 (20250701.0955)
 -->
<!-- Title: Lib::HAL::TIM::Base::DeviceManager::getInstance Pages: 1 -->
<svg width="837pt" height="112pt"
 viewBox="0.00 0.00 837.00 112.00" xmlns="http://www.w3.org/2000/svg" xmlns:xlink="http://www.w3.org/1999/xlink">
<g id="graph0" class="graph" transform="scale(1 1) rotate(0) translate(4 108)">
<title>Lib::HAL::TIM::Base::DeviceManager::getInstance</title>
<!-- Node1 -->
<g id="Node000001" class="node">
<title>Node1</title>
<g id="a_Node000001"><a xlink:title="Returns the singleton instance of DeviceManager.">
<polygon fill="#999999" stroke="#666666" points="828.5,-54 681.25,-54 681.25,-22 828.5,-22 828.5,-54"/>
<text xml:space="preserve" text-anchor="start" x="689.25" y="-40.5" font-family="Helvetica,sans-Serif" font-size="10.00">Lib::HAL::TIM::Base</text>
<text xml:space="preserve" text-anchor="middle" x="754.88" y="-28.5" font-family="Helvetica,sans-Serif" font-size="10.00">::DeviceManager::getInstance</text>
</a>
</g>
</g>
<!-- Node2 -->
<g id="Node000002" class="node">
<title>Node2</title>
<g id="a_Node000002"><a xlink:href="../../dc/d57/a01512.html#a722cf0939b693295625e6e6407105bf0" target="_top" xlink:title="Closes the device and unregisters it from the device manager.">
<polygon fill="white" stroke="#666666" points="625.75,-104 519.75,-104 519.75,-72 625.75,-72 625.75,-104"/>
<text xml:space="preserve" text-anchor="start" x="527.75" y="-90.5" font-family="Helvetica,sans-Serif" font-size="10.00">Lib::HAL::TIM::Base</text>
<text xml:space="preserve" text-anchor="middle" x="572.75" y="-78.5" font-family="Helvetica,sans-Serif" font-size="10.00">::close</text>
</a>
</g>
</g>
<!-- Node1&#45;&gt;Node2 -->
<g id="edge1_Node000001_Node000002" class="edge">
<title>Node1&#45;&gt;Node2</title>
<g id="a_edge1_Node000001_Node000002"><a xlink:title=" ">
<path fill="none" stroke="#63b8ff" d="M683.81,-57.45C664.59,-62.79 644.08,-68.48 626.04,-73.48"/>
<polygon fill="#63b8ff" stroke="#63b8ff" points="684.49,-60.89 693.19,-54.85 682.62,-54.15 684.49,-60.89"/>
</a>
</g>
</g>
<!-- Node4 -->
<g id="Node000004" class="node">
<title>Node4</title>
<g id="a_Node000004"><a xlink:href="../../db/dbf/a01516.html#a9fe8bb635fbae9a9a63f1d4f955f5295" target="_top" xlink:title="Static ISR callback router for HAL_TIM events.">
<polygon fill="white" stroke="#666666" points="645.25,-54 500.25,-54 500.25,-22 645.25,-22 645.25,-54"/>
<text xml:space="preserve" text-anchor="start" x="508.25" y="-40.5" font-family="Helvetica,sans-Serif" font-size="10.00">Lib::HAL::TIM::Base</text>
<text xml:space="preserve" text-anchor="middle" x="572.75" y="-28.5" font-family="Helvetica,sans-Serif" font-size="10.00">::DeviceManager::isrCallback</text>
</a>
</g>
</g>
<!-- Node1&#45;&gt;Node4 -->
<g id="edge3_Node000001_Node000004" class="edge">
<title>Node1&#45;&gt;Node4</title>
<g id="a_edge3_Node000001_Node000004"><a xlink:title=" ">
<path fill="none" stroke="#63b8ff" d="M669.63,-38C661.62,-38 653.56,-38 645.69,-38"/>
<polygon fill="#63b8ff" stroke="#63b8ff" points="669.36,-41.5 679.36,-38 669.36,-34.5 669.36,-41.5"/>
</a>
</g>
</g>
<!-- Node6 -->
<g id="Node000006" class="node">
<title>Node6</title>
<g id="a_Node000006"><a xlink:href="../../dc/d57/a01512.html#ac65559737120cd6ab6d522a27a70e8af" target="_top" xlink:title="Opens the device and registers it with the device manager.">
<polygon fill="white" stroke="#666666" points="284,-32 178,-32 178,0 284,0 284,-32"/>
<text xml:space="preserve" text-anchor="start" x="186" y="-18.5" font-family="Helvetica,sans-Serif" font-size="10.00">Lib::HAL::TIM::Base</text>
<text xml:space="preserve" text-anchor="middle" x="231" y="-6.5" font-family="Helvetica,sans-Serif" font-size="10.00">::open</text>
</a>
</g>
</g>
<!-- Node1&#45;&gt;Node6 -->
<g id="edge7_Node000001_Node000006" class="edge">
<title>Node1&#45;&gt;Node6</title>
<g id="a_edge7_Node000001_Node000006"><a xlink:title=" ">
<path fill="none" stroke="#63b8ff" d="M682.27,-19.12C670.01,-16.57 657.32,-14.37 645.25,-13 516.22,1.66 363.06,-5.91 284.4,-11.6"/>
<polygon fill="#63b8ff" stroke="#63b8ff" points="681.4,-22.51 691.92,-21.21 682.89,-15.67 681.4,-22.51"/>
</a>
</g>
</g>
<!-- Node3 -->
<g id="Node000003" class="node">
<title>Node3</title>
<g id="a_Node000003"><a xlink:href="../../da/d97/a01528.html#a30e3fabb9057f35427bb6a23666cc6e5" target="_top" xlink:title="Closes the encoder timer and stops interrupt&#45;driven counting.">
<polygon fill="white" stroke="#666666" points="464.25,-104 320,-104 320,-72 464.25,-72 464.25,-104"/>
<text xml:space="preserve" text-anchor="start" x="328" y="-90.5" font-family="Helvetica,sans-Serif" font-size="10.00">Lib::HAL::TIM::Timer</text>
<text xml:space="preserve" text-anchor="middle" x="392.12" y="-78.5" font-family="Helvetica,sans-Serif" font-size="10.00">&lt; Mode::ENCODER &gt;::close</text>
</a>
</g>
</g>
<!-- Node2&#45;&gt;Node3 -->
<g id="edge2_Node000002_Node000003" class="edge">
<title>Node2&#45;&gt;Node3</title>
<g id="a_edge2_Node000002_Node000003"><a xlink:title=" ">
<path fill="none" stroke="#63b8ff" d="M508.45,-88C494.25,-88 479.09,-88 464.59,-88"/>
<polygon fill="#63b8ff" stroke="#63b8ff" points="508.09,-91.5 518.09,-88 508.09,-84.5 508.09,-91.5"/>
</a>
</g>
</g>
<!-- Node5 -->
<g id="Node000005" class="node">
<title>Node5</title>
<g id="a_Node000005"><a xlink:href="../../db/dbf/a01516.html#ad52b33bb8cd29f654a0f7c999d0201ad" target="_top" xlink:title="Adds a TIM device and registers all HAL callbacks.">
<polygon fill="white" stroke="#666666" points="448.12,-54 336.12,-54 336.12,-22 448.12,-22 448.12,-54"/>
<text xml:space="preserve" text-anchor="start" x="344.12" y="-40.5" font-family="Helvetica,sans-Serif" font-size="10.00">Lib::HAL::TIM::Base</text>
<text xml:space="preserve" text-anchor="middle" x="392.12" y="-28.5" font-family="Helvetica,sans-Serif" font-size="10.00">::DeviceManager::add</text>
</a>
</g>
</g>
<!-- Node4&#45;&gt;Node5 -->
<g id="edge4_Node000004_Node000005" class="edge">
<title>Node4&#45;&gt;Node5</title>
<g id="a_edge4_Node000004_Node000005"><a xlink:title=" ">
<path fill="none" stroke="#63b8ff" d="M488.51,-38C474.9,-38 461.1,-38 448.38,-38"/>
<polygon fill="#63b8ff" stroke="#63b8ff" points="488.35,-41.5 498.35,-38 488.35,-34.5 488.35,-41.5"/>
</a>
</g>
</g>
<!-- Node5&#45;&gt;Node6 -->
<g id="edge5_Node000005_Node000006" class="edge">
<title>Node5&#45;&gt;Node6</title>
<g id="a_edge5_Node000005_Node000006"><a xlink:title=" ">
<path fill="none" stroke="#63b8ff" d="M324.77,-28.83C311.31,-26.96 297.33,-25.03 284.43,-23.25"/>
<polygon fill="#63b8ff" stroke="#63b8ff" points="324.03,-32.26 334.42,-30.16 324.99,-25.32 324.03,-32.26"/>
</a>
</g>
</g>
<!-- Node7 -->
<g id="Node000007" class="node">
<title>Node7</title>
<g id="a_Node000007"><a xlink:href="../../da/d97/a01528.html#a2e360de332a83d537ba388388e58122a" target="_top" xlink:title="Opens the encoder timer and starts interrupt&#45;driven counting.">
<polygon fill="white" stroke="#666666" points="142,-32 0,-32 0,0 142,0 142,-32"/>
<text xml:space="preserve" text-anchor="start" x="8" y="-18.5" font-family="Helvetica,sans-Serif" font-size="10.00">Lib::HAL::TIM::Timer</text>
<text xml:space="preserve" text-anchor="middle" x="71" y="-6.5" font-family="Helvetica,sans-Serif" font-size="10.00">&lt; Mode::ENCODER &gt;::open</text>
</a>
</g>
</g>
<!-- Node6&#45;&gt;Node7 -->
<g id="edge6_Node000006_Node000007" class="edge">
<title>Node6&#45;&gt;Node7</title>
<g id="a_edge6_Node000006_Node000007"><a xlink:title=" ">
<path fill="none" stroke="#63b8ff" d="M166.45,-16C158.55,-16 150.44,-16 142.44,-16"/>
<polygon fill="#63b8ff" stroke="#63b8ff" points="166.31,-19.5 176.31,-16 166.31,-12.5 166.31,-19.5"/>
</a>
</g>
</g>
</g>
</svg>
