<?xml version="1.0" encoding="UTF-8" standalone="no"?>
<!DOCTYPE svg PUBLIC "-//W3C//DTD SVG 1.1//EN"
 "http://www.w3.org/Graphics/SVG/1.1/DTD/svg11.dtd">
<!-- Generated by graphviz version 10.0.1 (20240210.2158)
 -->
<!-- Title: ModemStatus.hpp Pages: 1 -->
<svg width="795pt" height="208pt"
 viewBox="0.00 0.00 794.75 208.00" xmlns="http://www.w3.org/2000/svg" xmlns:xlink="http://www.w3.org/1999/xlink">
<g id="graph0" class="graph" transform="scale(1 1) rotate(0) translate(4 204)">
<title>ModemStatus.hpp</title>
<!-- Node1 -->
<g id="Node000001" class="node">
<title>Node1</title>
<g id="a_Node000001"><a xlink:title="This file contains the definition of the ModemStatus class which handles various modem status events.">
<polygon fill="#999999" stroke="#666666" points="454.38,-200 358.88,-200 358.88,-180 454.38,-180 454.38,-200"/>
<text text-anchor="middle" x="406.62" y="-186.5" font-family="Helvetica,sans-Serif" font-size="10.00">ModemStatus.hpp</text>
</a>
</g>
</g>
<!-- Node2 -->
<g id="Node000002" class="node">
<title>Node2</title>
<g id="a_Node000002"><a xlink:href="../../dd/dc1/a00212.html" target="_top" xlink:title="Defines the Frame0x8a class which represents a specific type of frame response from the XBee module.">
<polygon fill="white" stroke="#666666" points="135.25,-88 0,-88 0,-68 135.25,-68 135.25,-88"/>
<text text-anchor="middle" x="67.62" y="-74.5" font-family="Helvetica,sans-Serif" font-size="10.00">Responses/Frame0x8a.hpp</text>
</a>
</g>
</g>
<!-- Node1&#45;&gt;Node2 -->
<g id="edge1_Node000001_Node000002" class="edge">
<title>Node1&#45;&gt;Node2</title>
<g id="a_edge1_Node000001_Node000002"><a xlink:title=" ">
<path fill="none" stroke="#63b8ff" d="M377.43,-179.53C316.73,-159.83 176.82,-114.43 107.73,-92.01"/>
<polygon fill="#63b8ff" stroke="#63b8ff" points="108.9,-88.71 98.31,-88.96 106.74,-95.37 108.9,-88.71"/>
</a>
</g>
</g>
<!-- Node5 -->
<g id="Node000005" class="node">
<title>Node5</title>
<g id="a_Node000005"><a xlink:href="../../dc/de6/a00167.html" target="_top" xlink:title="This file contains the definition of the Module class, which is part of the Lib::Xbee::Core namespace...">
<polygon fill="white" stroke="#666666" points="439.75,-144 373.5,-144 373.5,-124 439.75,-124 439.75,-144"/>
<text text-anchor="middle" x="406.62" y="-130.5" font-family="Helvetica,sans-Serif" font-size="10.00">module.hpp</text>
</a>
</g>
</g>
<!-- Node1&#45;&gt;Node5 -->
<g id="edge4_Node000001_Node000005" class="edge">
<title>Node1&#45;&gt;Node5</title>
<g id="a_edge4_Node000001_Node000005"><a xlink:title=" ">
<path fill="none" stroke="#63b8ff" d="M406.62,-179.59C406.62,-173.01 406.62,-163.96 406.62,-155.73"/>
<polygon fill="#63b8ff" stroke="#63b8ff" points="410.13,-155.81 406.63,-145.81 403.13,-155.81 410.13,-155.81"/>
</a>
</g>
</g>
<!-- Node11 -->
<g id="Node000011" class="node">
<title>Node11</title>
<g id="a_Node000011"><a xlink:title=" ">
<polygon fill="#e0e0e0" stroke="#999999" points="515.25,-144 458,-144 458,-124 515.25,-124 515.25,-144"/>
<text text-anchor="middle" x="486.62" y="-130.5" font-family="Helvetica,sans-Serif" font-size="10.00">functional</text>
</a>
</g>
</g>
<!-- Node1&#45;&gt;Node11 -->
<g id="edge12_Node000001_Node000011" class="edge">
<title>Node1&#45;&gt;Node11</title>
<g id="a_edge12_Node000001_Node000011"><a xlink:title=" ">
<path fill="none" stroke="#63b8ff" d="M420.56,-179.59C432.3,-171.67 449.36,-160.16 463.19,-150.82"/>
<polygon fill="#63b8ff" stroke="#63b8ff" points="465,-153.82 471.33,-145.33 461.08,-148.02 465,-153.82"/>
</a>
</g>
</g>
<!-- Node3 -->
<g id="Node000003" class="node">
<title>Node3</title>
<g id="a_Node000003"><a xlink:title=" ">
<polygon fill="#e0e0e0" stroke="#999999" points="313,-32 206.25,-32 206.25,0 313,0 313,-32"/>
<text text-anchor="start" x="214.25" y="-18.5" font-family="Helvetica,sans-Serif" font-size="10.00">Lib/Xbee/Core/Frame</text>
<text text-anchor="middle" x="259.62" y="-6.5" font-family="Helvetica,sans-Serif" font-size="10.00">/Data.hpp</text>
</a>
</g>
</g>
<!-- Node2&#45;&gt;Node3 -->
<g id="edge2_Node000002_Node000003" class="edge">
<title>Node2&#45;&gt;Node3</title>
<g id="a_edge2_Node000002_Node000003"><a xlink:title=" ">
<path fill="none" stroke="#63b8ff" d="M97.62,-67.62C124.75,-59.15 165.49,-46.42 199.34,-35.84"/>
<polygon fill="#63b8ff" stroke="#63b8ff" points="200.11,-39.27 208.61,-32.94 198.02,-32.58 200.11,-39.27"/>
</a>
</g>
</g>
<!-- Node4 -->
<g id="Node000004" class="node">
<title>Node4</title>
<g id="a_Node000004"><a xlink:title=" ">
<polygon fill="#e0e0e0" stroke="#999999" points="144,-32 37.25,-32 37.25,0 144,0 144,-32"/>
<text text-anchor="start" x="45.25" y="-18.5" font-family="Helvetica,sans-Serif" font-size="10.00">Lib/Xbee/Core/Frame</text>
<text text-anchor="middle" x="90.62" y="-6.5" font-family="Helvetica,sans-Serif" font-size="10.00">/Helper.hpp</text>
</a>
</g>
</g>
<!-- Node2&#45;&gt;Node4 -->
<g id="edge3_Node000002_Node000004" class="edge">
<title>Node2&#45;&gt;Node4</title>
<g id="a_edge3_Node000002_Node000004"><a xlink:title=" ">
<path fill="none" stroke="#63b8ff" d="M71.22,-67.62C73.78,-60.95 77.35,-51.64 80.73,-42.82"/>
<polygon fill="#63b8ff" stroke="#63b8ff" points="83.97,-44.14 84.28,-33.55 77.43,-41.64 83.97,-44.14"/>
</a>
</g>
</g>
<!-- Node6 -->
<g id="Node000006" class="node">
<title>Node6</title>
<g id="a_Node000006"><a xlink:title=" ">
<polygon fill="#e0e0e0" stroke="#999999" points="630.88,-88 484.38,-88 484.38,-68 630.88,-68 630.88,-88"/>
<text text-anchor="middle" x="557.62" y="-74.5" font-family="Helvetica,sans-Serif" font-size="10.00">Lib/XBEE/Core/ComDriver.hpp</text>
</a>
</g>
</g>
<!-- Node5&#45;&gt;Node6 -->
<g id="edge5_Node000005_Node000006" class="edge">
<title>Node5&#45;&gt;Node6</title>
<g id="a_edge5_Node000005_Node000006"><a xlink:title=" ">
<path fill="none" stroke="#63b8ff" d="M432.93,-123.59C457.14,-114.94 493.3,-102 520.46,-92.29"/>
<polygon fill="#63b8ff" stroke="#63b8ff" points="521.45,-95.65 529.69,-88.99 519.1,-89.06 521.45,-95.65"/>
</a>
</g>
</g>
<!-- Node7 -->
<g id="Node000007" class="node">
<title>Node7</title>
<g id="a_Node000007"><a xlink:title=" ">
<polygon fill="#e0e0e0" stroke="#999999" points="786.75,-88 648.5,-88 648.5,-68 786.75,-68 786.75,-88"/>
<text text-anchor="middle" x="717.62" y="-74.5" font-family="Helvetica,sans-Serif" font-size="10.00">Lib/XBEE/Core/Protocol.hpp</text>
</a>
</g>
</g>
<!-- Node5&#45;&gt;Node7 -->
<g id="edge6_Node000005_Node000007" class="edge">
<title>Node5&#45;&gt;Node7</title>
<g id="a_edge6_Node000005_Node000007"><a xlink:title=" ">
<path fill="none" stroke="#63b8ff" d="M440.07,-125.69C442.96,-125.1 445.84,-124.53 448.62,-124 514.85,-111.37 590.61,-98.87 644.82,-90.26"/>
<polygon fill="#63b8ff" stroke="#63b8ff" points="645.23,-93.74 654.56,-88.72 644.13,-86.83 645.23,-93.74"/>
</a>
</g>
</g>
<!-- Node8 -->
<g id="Node000008" class="node">
<title>Node8</title>
<g id="a_Node000008"><a xlink:title=" ">
<polygon fill="#e0e0e0" stroke="#999999" points="328.12,-88 153.12,-88 153.12,-68 328.12,-68 328.12,-88"/>
<text text-anchor="middle" x="240.62" y="-74.5" font-family="Helvetica,sans-Serif" font-size="10.00">Lib/XBEE/Core/ResponseEvents.hpp</text>
</a>
</g>
</g>
<!-- Node5&#45;&gt;Node8 -->
<g id="edge7_Node000005_Node000008" class="edge">
<title>Node5&#45;&gt;Node8</title>
<g id="a_edge7_Node000005_Node000008"><a xlink:title=" ">
<path fill="none" stroke="#63b8ff" d="M377.71,-123.59C350.86,-114.86 310.63,-101.77 280.69,-92.03"/>
<polygon fill="#63b8ff" stroke="#63b8ff" points="281.8,-88.71 271.2,-88.95 279.63,-95.37 281.8,-88.71"/>
</a>
</g>
</g>
<!-- Node9 -->
<g id="Node000009" class="node">
<title>Node9</title>
<g id="a_Node000009"><a xlink:href="../../da/d15/a00188.html" target="_top" xlink:title="Defines the base class for all query types in the Xbee library.">
<polygon fill="white" stroke="#666666" points="466.75,-88 346.5,-88 346.5,-68 466.75,-68 466.75,-88"/>
<text text-anchor="middle" x="406.62" y="-74.5" font-family="Helvetica,sans-Serif" font-size="10.00">Queries/QueryBase.hpp</text>
</a>
</g>
</g>
<!-- Node5&#45;&gt;Node9 -->
<g id="edge8_Node000005_Node000009" class="edge">
<title>Node5&#45;&gt;Node9</title>
<g id="a_edge8_Node000005_Node000009"><a xlink:title=" ">
<path fill="none" stroke="#63b8ff" d="M406.62,-123.59C406.62,-117.01 406.62,-107.96 406.62,-99.73"/>
<polygon fill="#63b8ff" stroke="#63b8ff" points="410.13,-99.81 406.63,-89.81 403.13,-99.81 410.13,-99.81"/>
</a>
</g>
</g>
<!-- Node9&#45;&gt;Node3 -->
<g id="edge9_Node000009_Node000003" class="edge">
<title>Node9&#45;&gt;Node3</title>
<g id="a_edge9_Node000009_Node000003"><a xlink:title=" ">
<path fill="none" stroke="#63b8ff" d="M383.66,-67.62C363.52,-59.41 333.57,-47.18 308.15,-36.81"/>
<polygon fill="#63b8ff" stroke="#63b8ff" points="309.56,-33.6 298.98,-33.06 306.91,-40.08 309.56,-33.6"/>
</a>
</g>
</g>
<!-- Node9&#45;&gt;Node4 -->
<g id="edge10_Node000009_Node000004" class="edge">
<title>Node9&#45;&gt;Node4</title>
<g id="a_edge10_Node000009_Node000004"><a xlink:title=" ">
<path fill="none" stroke="#63b8ff" d="M356.9,-67.56C302.53,-57.23 215.19,-40.65 155.47,-29.31"/>
<polygon fill="#63b8ff" stroke="#63b8ff" points="156.25,-25.9 145.77,-27.47 154.94,-32.77 156.25,-25.9"/>
</a>
</g>
</g>
<!-- Node10 -->
<g id="Node000010" class="node">
<title>Node10</title>
<g id="a_Node000010"><a xlink:title=" ">
<polygon fill="#e0e0e0" stroke="#999999" points="460,-32 353.25,-32 353.25,0 460,0 460,-32"/>
<text text-anchor="start" x="361.25" y="-18.5" font-family="Helvetica,sans-Serif" font-size="10.00">Lib/Xbee/Core/Frame</text>
<text text-anchor="middle" x="406.62" y="-6.5" font-family="Helvetica,sans-Serif" font-size="10.00">/Type.hpp</text>
</a>
</g>
</g>
<!-- Node9&#45;&gt;Node10 -->
<g id="edge11_Node000009_Node000010" class="edge">
<title>Node9&#45;&gt;Node10</title>
<g id="a_edge11_Node000009_Node000010"><a xlink:title=" ">
<path fill="none" stroke="#63b8ff" d="M406.62,-67.62C406.62,-61.1 406.62,-52.05 406.62,-43.4"/>
<polygon fill="#63b8ff" stroke="#63b8ff" points="410.13,-43.65 406.63,-33.65 403.13,-43.65 410.13,-43.65"/>
</a>
</g>
</g>
</g>
</svg>
