<?xml version="1.0" encoding="UTF-8" standalone="no"?>
<!DOCTYPE svg PUBLIC "-//W3C//DTD SVG 1.1//EN"
 "http://www.w3.org/Graphics/SVG/1.1/DTD/svg11.dtd">
<!-- Generated by graphviz version 13.1.0 (20250701.0955)
 -->
<!-- Title: Lib::Digi::Core::Module Pages: 1 -->
<svg width="351pt" height="624pt"
 viewBox="0.00 0.00 351.00 624.00" xmlns="http://www.w3.org/2000/svg" xmlns:xlink="http://www.w3.org/1999/xlink">
<g id="graph0" class="graph" transform="scale(1 1) rotate(0) translate(4 620)">
<title>Lib::Digi::Core::Module</title>
<!-- Node1 -->
<g id="Node000001" class="node">
<title>Node1</title>
<g id="a_Node000001"><a xlink:title="Module class for Digi XBee modules.">
<polygon fill="#999999" stroke="none" points="274.88,-164 145.88,-164 145.88,0 274.88,0 274.88,-164"/>
<text xml:space="preserve" text-anchor="start" x="160.12" y="-150.5" font-family="Helvetica,sans-Serif" font-size="10.00">Lib::Digi::Core::Module</text>
<text xml:space="preserve" text-anchor="start" x="149.88" y="-134.5" font-family="Helvetica,sans-Serif" font-size="10.00">+</text>
<text xml:space="preserve" text-anchor="start" x="159.88" y="-134.5" font-family="Helvetica,sans-Serif" font-size="10.00">onBeginMessageSend</text>
<text xml:space="preserve" text-anchor="start" x="149.88" y="-118.5" font-family="Helvetica,sans-Serif" font-size="10.00">+</text>
<text xml:space="preserve" text-anchor="start" x="159.88" y="-118.5" font-family="Helvetica,sans-Serif" font-size="10.00">onEndMessageSend</text>
<text xml:space="preserve" text-anchor="start" x="149.88" y="-102.5" font-family="Helvetica,sans-Serif" font-size="10.00">+</text>
<text xml:space="preserve" text-anchor="start" x="159.88" y="-102.5" font-family="Helvetica,sans-Serif" font-size="10.00">onBeginMessageReceive</text>
<text xml:space="preserve" text-anchor="start" x="149.88" y="-86.5" font-family="Helvetica,sans-Serif" font-size="10.00">+</text>
<text xml:space="preserve" text-anchor="start" x="159.88" y="-86.5" font-family="Helvetica,sans-Serif" font-size="10.00">onEndMessageReceived</text>
<text xml:space="preserve" text-anchor="start" x="149.88" y="-70.5" font-family="Helvetica,sans-Serif" font-size="10.00">+</text>
<text xml:space="preserve" text-anchor="start" x="159.88" y="-70.5" font-family="Helvetica,sans-Serif" font-size="10.00">Module()</text>
<text xml:space="preserve" text-anchor="start" x="149.88" y="-54.5" font-family="Helvetica,sans-Serif" font-size="10.00">+</text>
<text xml:space="preserve" text-anchor="start" x="159.88" y="-54.5" font-family="Helvetica,sans-Serif" font-size="10.00">~Module()</text>
<text xml:space="preserve" text-anchor="start" x="149.88" y="-38.5" font-family="Helvetica,sans-Serif" font-size="10.00">+</text>
<text xml:space="preserve" text-anchor="start" x="159.88" y="-38.5" font-family="Helvetica,sans-Serif" font-size="10.00">init()</text>
<text xml:space="preserve" text-anchor="start" x="149.88" y="-22.5" font-family="Helvetica,sans-Serif" font-size="10.00">+</text>
<text xml:space="preserve" text-anchor="start" x="159.88" y="-22.5" font-family="Helvetica,sans-Serif" font-size="10.00">reset()</text>
<text xml:space="preserve" text-anchor="start" x="149.88" y="-6.5" font-family="Helvetica,sans-Serif" font-size="10.00">+</text>
<text xml:space="preserve" text-anchor="start" x="159.88" y="-6.5" font-family="Helvetica,sans-Serif" font-size="10.00">send()</text>
<polygon fill="#666666" stroke="#666666" points="145.88,-146 145.88,-146 274.88,-146 274.88,-146 145.88,-146"/>
<polygon fill="#666666" stroke="#666666" points="145.88,-82 145.88,-82 157.88,-82 157.88,-82 145.88,-82"/>
<polygon fill="#666666" stroke="#666666" points="157.88,-82 157.88,-82 274.88,-82 274.88,-82 157.88,-82"/>
<polygon fill="none" stroke="#666666" points="145.88,0 145.88,-164 274.88,-164 274.88,0 145.88,0"/>
</a>
</g>
</g>
<!-- Node2 -->
<g id="Node000002" class="node">
<title>Node2</title>
<g id="a_Node000002"><a xlink:href="../../df/d88/class_lib_1_1_digi_1_1_core_1_1_com_driver.html" target="_top" xlink:title="ComDriver class for Digi XBee modules.">
<polygon fill="white" stroke="none" points="150,-398 6.75,-398 6.75,-218 150,-218 150,-398"/>
<text xml:space="preserve" text-anchor="start" x="20.25" y="-384.5" font-family="Helvetica,sans-Serif" font-size="10.00">Lib::Digi::Core::ComDriver</text>
<text xml:space="preserve" text-anchor="start" x="11.12" y="-368.5" font-family="Helvetica,sans-Serif" font-size="10.00">#</text>
<text xml:space="preserve" text-anchor="start" x="20.75" y="-368.5" font-family="Helvetica,sans-Serif" font-size="10.00">xrst</text>
<text xml:space="preserve" text-anchor="start" x="10.75" y="-352.5" font-family="Helvetica,sans-Serif" font-size="10.00">+</text>
<text xml:space="preserve" text-anchor="start" x="20.75" y="-352.5" font-family="Helvetica,sans-Serif" font-size="10.00">ComDriver()</text>
<text xml:space="preserve" text-anchor="start" x="10.75" y="-336.5" font-family="Helvetica,sans-Serif" font-size="10.00">+</text>
<text xml:space="preserve" text-anchor="start" x="20.75" y="-336.5" font-family="Helvetica,sans-Serif" font-size="10.00">~ComDriver()</text>
<text xml:space="preserve" text-anchor="start" x="10.75" y="-320.5" font-family="Helvetica,sans-Serif" font-size="10.00">+</text>
<text xml:space="preserve" text-anchor="start" x="20.75" y="-320.5" font-family="Helvetica,sans-Serif" font-size="10.00">init()</text>
<text xml:space="preserve" text-anchor="start" x="10.75" y="-304.5" font-family="Helvetica,sans-Serif" font-size="10.00">+</text>
<text xml:space="preserve" text-anchor="start" x="20.75" y="-304.5" font-family="Helvetica,sans-Serif" font-size="10.00">send()</text>
<text xml:space="preserve" text-anchor="start" x="10.75" y="-288.5" font-family="Helvetica,sans-Serif" font-size="10.00">+</text>
<text xml:space="preserve" text-anchor="start" x="20.75" y="-288.5" font-family="Helvetica,sans-Serif" font-size="10.00">emitBeginMessageReceive()</text>
<text xml:space="preserve" text-anchor="start" x="10.75" y="-272.5" font-family="Helvetica,sans-Serif" font-size="10.00">+</text>
<text xml:space="preserve" text-anchor="start" x="20.75" y="-272.5" font-family="Helvetica,sans-Serif" font-size="10.00">emitEndMessageReceived()</text>
<text xml:space="preserve" text-anchor="start" x="10.75" y="-256.5" font-family="Helvetica,sans-Serif" font-size="10.00">+</text>
<text xml:space="preserve" text-anchor="start" x="20.75" y="-256.5" font-family="Helvetica,sans-Serif" font-size="10.00">emitBeginMessageSend()</text>
<text xml:space="preserve" text-anchor="start" x="10.75" y="-240.5" font-family="Helvetica,sans-Serif" font-size="10.00">+</text>
<text xml:space="preserve" text-anchor="start" x="20.75" y="-240.5" font-family="Helvetica,sans-Serif" font-size="10.00">emitEndMessageSend()</text>
<text xml:space="preserve" text-anchor="start" x="11.12" y="-224.5" font-family="Helvetica,sans-Serif" font-size="10.00">#</text>
<text xml:space="preserve" text-anchor="start" x="20.75" y="-224.5" font-family="Helvetica,sans-Serif" font-size="10.00">reset()</text>
<polygon fill="#666666" stroke="#666666" points="6.75,-380 6.75,-380 150,-380 150,-380 6.75,-380"/>
<polygon fill="#666666" stroke="#666666" points="6.75,-364 6.75,-364 18.75,-364 18.75,-364 6.75,-364"/>
<polygon fill="#666666" stroke="#666666" points="18.75,-364 18.75,-364 150,-364 150,-364 18.75,-364"/>
<polygon fill="none" stroke="#666666" points="6.75,-218 6.75,-398 150,-398 150,-218 6.75,-218"/>
</a>
</g>
</g>
<!-- Node2&#45;&gt;Node1 -->
<g id="edge1_Node000001_Node000002" class="edge">
<title>Node2&#45;&gt;Node1</title>
<g id="a_edge1_Node000001_Node000002"><a xlink:title=" ">
<path fill="none" stroke="#8b1a1a" d="M136.48,-208.4C145.27,-193.48 154.26,-178.23 162.79,-163.75"/>
<polygon fill="none" stroke="#8b1a1a" points="133.56,-206.45 131.5,-216.84 139.6,-210.01 133.56,-206.45"/>
</a>
</g>
</g>
<!-- Node3 -->
<g id="Node000003" class="node">
<title>Node3</title>
<g id="a_Node000003"><a xlink:href="../../d4/dc6/class_lib_1_1_digi_1_1_core_1_1_diagnostic.html" target="_top" xlink:title="Diagnostic data and singleton access for Digi Core communication.">
<polygon fill="white" stroke="none" points="156.75,-616 0,-616 0,-452 156.75,-452 156.75,-616"/>
<text xml:space="preserve" text-anchor="start" x="20.62" y="-602.5" font-family="Helvetica,sans-Serif" font-size="10.00">Lib::Digi::Core::Diagnostic</text>
<text xml:space="preserve" text-anchor="start" x="4" y="-586.5" font-family="Helvetica,sans-Serif" font-size="10.00">+</text>
<text xml:space="preserve" text-anchor="start" x="14" y="-586.5" font-family="Helvetica,sans-Serif" font-size="10.00">receivedDataMessages</text>
<text xml:space="preserve" text-anchor="start" x="4" y="-570.5" font-family="Helvetica,sans-Serif" font-size="10.00">+</text>
<text xml:space="preserve" text-anchor="start" x="14" y="-570.5" font-family="Helvetica,sans-Serif" font-size="10.00">sendedDataMessages</text>
<text xml:space="preserve" text-anchor="start" x="4" y="-554.5" font-family="Helvetica,sans-Serif" font-size="10.00">+</text>
<text xml:space="preserve" text-anchor="start" x="14" y="-554.5" font-family="Helvetica,sans-Serif" font-size="10.00">receivedATCommandMessages</text>
<text xml:space="preserve" text-anchor="start" x="4" y="-538.5" font-family="Helvetica,sans-Serif" font-size="10.00">+</text>
<text xml:space="preserve" text-anchor="start" x="14" y="-538.5" font-family="Helvetica,sans-Serif" font-size="10.00">sendedATCommandMessages</text>
<text xml:space="preserve" text-anchor="start" x="4" y="-522.5" font-family="Helvetica,sans-Serif" font-size="10.00">+</text>
<text xml:space="preserve" text-anchor="start" x="14" y="-522.5" font-family="Helvetica,sans-Serif" font-size="10.00">ignoredMessagesByTimeout</text>
<text xml:space="preserve" text-anchor="start" x="4" y="-506.5" font-family="Helvetica,sans-Serif" font-size="10.00">+</text>
<text xml:space="preserve" text-anchor="start" x="14" y="-506.5" font-family="Helvetica,sans-Serif" font-size="10.00">maxMsgLenghtErrors</text>
<text xml:space="preserve" text-anchor="start" x="4" y="-490.5" font-family="Helvetica,sans-Serif" font-size="10.00">+</text>
<text xml:space="preserve" text-anchor="start" x="14" y="-490.5" font-family="Helvetica,sans-Serif" font-size="10.00">invalidMessages</text>
<text xml:space="preserve" text-anchor="start" x="4" y="-474.5" font-family="Helvetica,sans-Serif" font-size="10.00">+</text>
<text xml:space="preserve" text-anchor="start" x="14" y="-474.5" font-family="Helvetica,sans-Serif" font-size="10.00">sendedDataMessagesTimeout</text>
<text xml:space="preserve" text-anchor="start" x="4" y="-458.5" font-family="Helvetica,sans-Serif" font-size="10.00">+</text>
<text xml:space="preserve" text-anchor="start" x="14" y="-458.5" font-family="Helvetica,sans-Serif" font-size="10.00">getInstance()</text>
<polygon fill="#666666" stroke="#666666" points="0,-598 0,-598 156.75,-598 156.75,-598 0,-598"/>
<polygon fill="#666666" stroke="#666666" points="0,-470 0,-470 12,-470 12,-470 0,-470"/>
<polygon fill="#666666" stroke="#666666" points="12,-470 12,-470 156.75,-470 156.75,-470 12,-470"/>
<polygon fill="none" stroke="#666666" points="0,-452 0,-616 156.75,-616 156.75,-452 0,-452"/>
</a>
</g>
</g>
<!-- Node3&#45;&gt;Node2 -->
<g id="edge2_Node000002_Node000003" class="edge">
<title>Node3&#45;&gt;Node2</title>
<g id="a_edge2_Node000002_Node000003"><a xlink:title=" ">
<path fill="none" stroke="#63b8ff" d="M78.38,-452.13C78.38,-438.6 78.38,-424.42 78.38,-410.45"/>
<polygon fill="none" stroke="#63b8ff" points="78.38,-410.61 74.38,-404.61 78.38,-398.61 82.38,-404.61 78.38,-410.61"/>
</a>
</g>
<text xml:space="preserve" text-anchor="start" x="81.38" y="-421.5" font-family="Helvetica,sans-Serif" font-size="10.00" fill="grey">#diagnostic</text>
</g>
<!-- Node4 -->
<g id="Node000004" class="node">
<title>Node4</title>
<g id="a_Node000004"><a xlink:href="../../d0/def/class_lib_1_1_digi_1_1_core_1_1_response_events.html" target="_top" xlink:title="ResponseEvents class for Digi XBee API protocol response events.">
<polygon fill="white" stroke="none" points="343.12,-390 167.62,-390 167.62,-226 343.12,-226 343.12,-390"/>
<text xml:space="preserve" text-anchor="start" x="183.38" y="-376.5" font-family="Helvetica,sans-Serif" font-size="10.00">Lib::Digi::Core::ResponseEvents</text>
<text xml:space="preserve" text-anchor="start" x="171.62" y="-360.5" font-family="Helvetica,sans-Serif" font-size="10.00">+</text>
<text xml:space="preserve" text-anchor="start" x="181.62" y="-360.5" font-family="Helvetica,sans-Serif" font-size="10.00">onReceivePacket64bit</text>
<text xml:space="preserve" text-anchor="start" x="171.62" y="-344.5" font-family="Helvetica,sans-Serif" font-size="10.00">+</text>
<text xml:space="preserve" text-anchor="start" x="181.62" y="-344.5" font-family="Helvetica,sans-Serif" font-size="10.00">onReceivePacket16bit</text>
<text xml:space="preserve" text-anchor="start" x="171.62" y="-328.5" font-family="Helvetica,sans-Serif" font-size="10.00">+</text>
<text xml:space="preserve" text-anchor="start" x="181.62" y="-328.5" font-family="Helvetica,sans-Serif" font-size="10.00">onLocalAtCommand</text>
<text xml:space="preserve" text-anchor="start" x="171.62" y="-312.5" font-family="Helvetica,sans-Serif" font-size="10.00">+</text>
<text xml:space="preserve" text-anchor="start" x="181.62" y="-312.5" font-family="Helvetica,sans-Serif" font-size="10.00">onTransmitStatus</text>
<text xml:space="preserve" text-anchor="start" x="171.62" y="-296.5" font-family="Helvetica,sans-Serif" font-size="10.00">+</text>
<text xml:space="preserve" text-anchor="start" x="181.62" y="-296.5" font-family="Helvetica,sans-Serif" font-size="10.00">onModemStatusChanged</text>
<text xml:space="preserve" text-anchor="start" x="171.62" y="-280.5" font-family="Helvetica,sans-Serif" font-size="10.00">+</text>
<text xml:space="preserve" text-anchor="start" x="181.62" y="-280.5" font-family="Helvetica,sans-Serif" font-size="10.00">onExtendedTransmitStatusChanged</text>
<text xml:space="preserve" text-anchor="start" x="171.62" y="-264.5" font-family="Helvetica,sans-Serif" font-size="10.00">+</text>
<text xml:space="preserve" text-anchor="start" x="181.62" y="-264.5" font-family="Helvetica,sans-Serif" font-size="10.00">onPacketReceived</text>
<text xml:space="preserve" text-anchor="start" x="171.62" y="-248.5" font-family="Helvetica,sans-Serif" font-size="10.00">+</text>
<text xml:space="preserve" text-anchor="start" x="181.62" y="-248.5" font-family="Helvetica,sans-Serif" font-size="10.00">onRemoteATCommand</text>
<text xml:space="preserve" text-anchor="start" x="171.62" y="-232.5" font-family="Helvetica,sans-Serif" font-size="10.00">+</text>
<text xml:space="preserve" text-anchor="start" x="181.62" y="-232.5" font-family="Helvetica,sans-Serif" font-size="10.00">getInstance()</text>
<polygon fill="#666666" stroke="#666666" points="167.62,-372 167.62,-372 343.12,-372 343.12,-372 167.62,-372"/>
<polygon fill="#666666" stroke="#666666" points="167.62,-244 167.62,-244 179.62,-244 179.62,-244 167.62,-244"/>
<polygon fill="#666666" stroke="#666666" points="179.62,-244 179.62,-244 343.12,-244 343.12,-244 179.62,-244"/>
<polygon fill="none" stroke="#666666" points="167.62,-226 167.62,-390 343.12,-390 343.12,-226 167.62,-226"/>
</a>
</g>
</g>
<!-- Node4&#45;&gt;Node1 -->
<g id="edge3_Node000001_Node000004" class="edge">
<title>Node4&#45;&gt;Node1</title>
<g id="a_edge3_Node000001_Node000004"><a xlink:title=" ">
<path fill="none" stroke="#63b8ff" d="M239.13,-226.13C235.88,-209.95 232.44,-192.83 229.11,-176.28"/>
<polygon fill="none" stroke="#63b8ff" points="229.14,-176.4 224.03,-171.3 226.77,-164.63 231.88,-169.73 229.14,-176.4"/>
</a>
</g>
<text xml:space="preserve" text-anchor="start" x="235.88" y="-187.5" font-family="Helvetica,sans-Serif" font-size="10.00" fill="grey">+responseEvents</text>
</g>
</g>
</svg>
