<?xml version="1.0" encoding="UTF-8" standalone="no"?>
<!DOCTYPE svg PUBLIC "-//W3C//DTD SVG 1.1//EN"
 "http://www.w3.org/Graphics/SVG/1.1/DTD/svg11.dtd">
<!-- Generated by graphviz version 14.0.5 (20251129.0259)
 -->
<!-- Title: Semaphore.hpp Pages: 1 -->
<svg width="640pt" height="196pt"
 viewBox="0.00 0.00 640.00 196.00" xmlns="http://www.w3.org/2000/svg" xmlns:xlink="http://www.w3.org/1999/xlink">
<g id="graph0" class="graph" transform="scale(1 1) rotate(0) translate(4 192)">
<title>Semaphore.hpp</title>
<!-- Node1 -->
<g id="Node000001" class="node">
<title>Node1</title>
<g id="a_Node000001"><a xlink:title="Semaphore class header file.">
<polygon fill="#999999" stroke="#666666" points="448.25,-188 364,-188 364,-168 448.25,-168 448.25,-188"/>
<text xml:space="preserve" text-anchor="middle" x="406.12" y="-174.5" font-family="Helvetica,sans-Serif" font-size="10.00">Semaphore.hpp</text>
</a>
</g>
</g>
<!-- Node2 -->
<g id="Node000002" class="node">
<title>Node2</title>
<g id="a_Node000002"><a xlink:href="../../d8/dc8/a00581.html" target="_top" xlink:title="SemaphoreBase class definition for RTOS semaphores.">
<polygon fill="white" stroke="#666666" points="237.5,-132 130.75,-132 130.75,-112 237.5,-112 237.5,-132"/>
<text xml:space="preserve" text-anchor="middle" x="184.12" y="-118.5" font-family="Helvetica,sans-Serif" font-size="10.00">SemaphoreBase.hpp</text>
</a>
</g>
</g>
<!-- Node1&#45;&gt;Node2 -->
<g id="edge1_Node000001_Node000002" class="edge">
<title>Node1&#45;&gt;Node2</title>
<g id="a_edge1_Node000001_Node000002"><a xlink:title=" ">
<path fill="none" stroke="#63b8ff" d="M367.2,-167.53C330.23,-158.54 274.45,-144.97 234.18,-135.18"/>
<polygon fill="#63b8ff" stroke="#63b8ff" points="235.02,-131.78 224.47,-132.81 233.36,-138.58 235.02,-131.78"/>
</a>
</g>
</g>
<!-- Node4 -->
<g id="Node000004" class="node">
<title>Node4</title>
<g id="a_Node000004"><a xlink:title=" ">
<polygon fill="#e0e0e0" stroke="#999999" points="284.25,-76 236,-76 236,-56 284.25,-56 284.25,-76"/>
<text xml:space="preserve" text-anchor="middle" x="260.12" y="-62.5" font-family="Helvetica,sans-Serif" font-size="10.00">cassert</text>
</a>
</g>
</g>
<!-- Node1&#45;&gt;Node4 -->
<g id="edge17_Node000001_Node000004" class="edge">
<title>Node1&#45;&gt;Node4</title>
<g id="a_edge17_Node000001_Node000004"><a xlink:title=" ">
<path fill="none" stroke="#63b8ff" d="M383.63,-167.57C365.77,-159.52 340.64,-146.89 321.12,-132 303.13,-118.27 285.79,-99.01 274.23,-85.02"/>
<polygon fill="#63b8ff" stroke="#63b8ff" points="277.16,-83.08 268.16,-77.49 271.71,-87.48 277.16,-83.08"/>
</a>
</g>
</g>
<!-- Node8 -->
<g id="Node000008" class="node">
<title>Node8</title>
<g id="a_Node000008"><a xlink:href="../../dc/d25/a00596.html" target="_top" xlink:title="Lightweight helper for converting and reading FreeRTOS tick counts.">
<polygon fill="white" stroke="#666666" points="486.12,-76 398.12,-76 398.12,-56 486.12,-56 486.12,-76"/>
<text xml:space="preserve" text-anchor="middle" x="442.12" y="-62.5" font-family="Helvetica,sans-Serif" font-size="10.00">TickCounter.hpp</text>
</a>
</g>
</g>
<!-- Node1&#45;&gt;Node8 -->
<g id="edge7_Node000001_Node000008" class="edge">
<title>Node1&#45;&gt;Node8</title>
<g id="a_edge7_Node000001_Node000008"><a xlink:title=" ">
<path fill="none" stroke="#63b8ff" d="M409.19,-167.62C415.01,-149.84 427.76,-110.88 435.58,-87"/>
<polygon fill="#63b8ff" stroke="#63b8ff" points="438.81,-88.39 438.59,-77.79 432.16,-86.21 438.81,-88.39"/>
</a>
</g>
</g>
<!-- Node10 -->
<g id="Node000010" class="node">
<title>Node10</title>
<g id="a_Node000010"><a xlink:title=" ">
<polygon fill="#e0e0e0" stroke="#999999" points="536.75,-20 491.5,-20 491.5,0 536.75,0 536.75,-20"/>
<text xml:space="preserve" text-anchor="middle" x="514.12" y="-6.5" font-family="Helvetica,sans-Serif" font-size="10.00">cstdint</text>
</a>
</g>
</g>
<!-- Node1&#45;&gt;Node10 -->
<g id="edge18_Node000001_Node000010" class="edge">
<title>Node1&#45;&gt;Node10</title>
<g id="a_edge18_Node000001_Node000010"><a xlink:title=" ">
<path fill="none" stroke="#63b8ff" d="M423.05,-167.6C448.65,-152.29 496.23,-119.27 515.12,-76 521.22,-62.05 520.61,-44.75 518.68,-31.51"/>
<polygon fill="#63b8ff" stroke="#63b8ff" points="522.14,-30.98 516.86,-21.79 515.25,-32.26 522.14,-30.98"/>
</a>
</g>
</g>
<!-- Node11 -->
<g id="Node000011" class="node">
<title>Node11</title>
<g id="a_Node000011"><a xlink:href="../../d5/d0a/a00602.html" target="_top" xlink:title="Lightweight timeout helper using FreeRTOS tick counter.">
<polygon fill="white" stroke="#666666" points="400.12,-132 330.12,-132 330.12,-112 400.12,-112 400.12,-132"/>
<text xml:space="preserve" text-anchor="middle" x="365.12" y="-118.5" font-family="Helvetica,sans-Serif" font-size="10.00">Timeout.hpp</text>
</a>
</g>
</g>
<!-- Node1&#45;&gt;Node11 -->
<g id="edge11_Node000001_Node000011" class="edge">
<title>Node1&#45;&gt;Node11</title>
<g id="a_edge11_Node000001_Node000011"><a xlink:title=" ">
<path fill="none" stroke="#63b8ff" d="M398.98,-167.59C393.52,-160.39 385.8,-150.23 379.12,-141.43"/>
<polygon fill="#63b8ff" stroke="#63b8ff" points="381.93,-139.35 373.1,-133.5 376.36,-143.58 381.93,-139.35"/>
</a>
</g>
</g>
<!-- Node13 -->
<g id="Node000013" class="node">
<title>Node13</title>
<g id="a_Node000013"><a xlink:title=" ">
<polygon fill="#e0e0e0" stroke="#999999" points="631.75,-132 580.5,-132 580.5,-112 631.75,-112 631.75,-132"/>
<text xml:space="preserve" text-anchor="middle" x="606.12" y="-118.5" font-family="Helvetica,sans-Serif" font-size="10.00">memory</text>
</a>
</g>
</g>
<!-- Node1&#45;&gt;Node13 -->
<g id="edge19_Node000001_Node000013" class="edge">
<title>Node1&#45;&gt;Node13</title>
<g id="a_edge19_Node000001_Node000013"><a xlink:title=" ">
<path fill="none" stroke="#63b8ff" d="M440.96,-167.59C476.97,-157.87 532.94,-142.76 569.56,-132.87"/>
<polygon fill="#63b8ff" stroke="#63b8ff" points="570.06,-136.36 578.81,-130.38 568.24,-129.6 570.06,-136.36"/>
</a>
</g>
</g>
<!-- Node3 -->
<g id="Node000003" class="node">
<title>Node3</title>
<g id="a_Node000003"><a xlink:title=" ">
<polygon fill="#e0e0e0" stroke="#999999" points="347.5,-20 276.75,-20 276.75,0 347.5,0 347.5,-20"/>
<text xml:space="preserve" text-anchor="middle" x="312.12" y="-6.5" font-family="Helvetica,sans-Serif" font-size="10.00">FreeRTOS.h</text>
</a>
</g>
</g>
<!-- Node2&#45;&gt;Node3 -->
<g id="edge2_Node000002_Node000003" class="edge">
<title>Node2&#45;&gt;Node3</title>
<g id="a_edge2_Node000002_Node000003"><a xlink:title=" ">
<path fill="none" stroke="#63b8ff" d="M188.47,-111.54C195.15,-97.85 209.08,-72.36 227.12,-56 241.53,-42.93 260.43,-32.44 276.74,-24.89"/>
<polygon fill="#63b8ff" stroke="#63b8ff" points="277.9,-28.2 285.63,-20.96 275.07,-21.8 277.9,-28.2"/>
</a>
</g>
</g>
<!-- Node2&#45;&gt;Node4 -->
<g id="edge3_Node000002_Node000004" class="edge">
<title>Node2&#45;&gt;Node4</title>
<g id="a_edge3_Node000002_Node000004"><a xlink:title=" ">
<path fill="none" stroke="#63b8ff" d="M197.36,-111.59C208.41,-103.74 224.41,-92.38 237.48,-83.09"/>
<polygon fill="#63b8ff" stroke="#63b8ff" points="239.43,-86 245.55,-77.36 235.37,-80.3 239.43,-86"/>
</a>
</g>
</g>
<!-- Node5 -->
<g id="Node000005" class="node">
<title>Node5</title>
<g id="a_Node000005"><a xlink:title=" ">
<polygon fill="#e0e0e0" stroke="#999999" points="48.25,-76 0,-76 0,-56 48.25,-56 48.25,-76"/>
<text xml:space="preserve" text-anchor="middle" x="24.12" y="-62.5" font-family="Helvetica,sans-Serif" font-size="10.00">cstddef</text>
</a>
</g>
</g>
<!-- Node2&#45;&gt;Node5 -->
<g id="edge4_Node000002_Node000005" class="edge">
<title>Node2&#45;&gt;Node5</title>
<g id="a_edge4_Node000002_Node000005"><a xlink:title=" ">
<path fill="none" stroke="#63b8ff" d="M156.26,-111.59C129.26,-102.48 88.24,-88.64 59.08,-78.8"/>
<polygon fill="#63b8ff" stroke="#63b8ff" points="60.56,-75.6 49.97,-75.72 58.32,-82.24 60.56,-75.6"/>
</a>
</g>
</g>
<!-- Node6 -->
<g id="Node000006" class="node">
<title>Node6</title>
<g id="a_Node000006"><a xlink:title=" ">
<polygon fill="#e0e0e0" stroke="#999999" points="122.38,-76 65.88,-76 65.88,-56 122.38,-56 122.38,-76"/>
<text xml:space="preserve" text-anchor="middle" x="94.12" y="-62.5" font-family="Helvetica,sans-Serif" font-size="10.00">semphr.h</text>
</a>
</g>
</g>
<!-- Node2&#45;&gt;Node6 -->
<g id="edge5_Node000002_Node000006" class="edge">
<title>Node2&#45;&gt;Node6</title>
<g id="a_edge5_Node000002_Node000006"><a xlink:title=" ">
<path fill="none" stroke="#63b8ff" d="M168.45,-111.59C154.98,-103.51 135.31,-91.71 119.58,-82.27"/>
<polygon fill="#63b8ff" stroke="#63b8ff" points="121.6,-79.4 111.22,-77.26 118,-85.4 121.6,-79.4"/>
</a>
</g>
</g>
<!-- Node7 -->
<g id="Node000007" class="node">
<title>Node7</title>
<g id="a_Node000007"><a xlink:title=" ">
<polygon fill="#e0e0e0" stroke="#999999" points="179.75,-76 140.5,-76 140.5,-56 179.75,-56 179.75,-76"/>
<text xml:space="preserve" text-anchor="middle" x="160.12" y="-62.5" font-family="Helvetica,sans-Serif" font-size="10.00">utility</text>
</a>
</g>
</g>
<!-- Node2&#45;&gt;Node7 -->
<g id="edge6_Node000002_Node000007" class="edge">
<title>Node2&#45;&gt;Node7</title>
<g id="a_edge6_Node000002_Node000007"><a xlink:title=" ">
<path fill="none" stroke="#63b8ff" d="M179.94,-111.59C176.88,-104.7 172.61,-95.1 168.82,-86.57"/>
<polygon fill="#63b8ff" stroke="#63b8ff" points="172.13,-85.4 164.87,-77.68 165.74,-88.24 172.13,-85.4"/>
</a>
</g>
</g>
<!-- Node8&#45;&gt;Node3 -->
<g id="edge8_Node000008_Node000003" class="edge">
<title>Node8&#45;&gt;Node3</title>
<g id="a_edge8_Node000008_Node000003"><a xlink:title=" ">
<path fill="none" stroke="#63b8ff" d="M419.48,-55.59C399.01,-47.09 368.61,-34.46 345.38,-24.81"/>
<polygon fill="#63b8ff" stroke="#63b8ff" points="346.92,-21.66 336.34,-21.06 344.24,-28.13 346.92,-21.66"/>
</a>
</g>
</g>
<!-- Node9 -->
<g id="Node000009" class="node">
<title>Node9</title>
<g id="a_Node000009"><a xlink:title=" ">
<polygon fill="#e0e0e0" stroke="#999999" points="463.62,-20 420.62,-20 420.62,0 463.62,0 463.62,-20"/>
<text xml:space="preserve" text-anchor="middle" x="442.12" y="-6.5" font-family="Helvetica,sans-Serif" font-size="10.00">task.h</text>
</a>
</g>
</g>
<!-- Node8&#45;&gt;Node9 -->
<g id="edge9_Node000008_Node000009" class="edge">
<title>Node8&#45;&gt;Node9</title>
<g id="a_edge9_Node000008_Node000009"><a xlink:title=" ">
<path fill="none" stroke="#63b8ff" d="M442.12,-55.59C442.12,-49.01 442.12,-39.96 442.12,-31.73"/>
<polygon fill="#63b8ff" stroke="#63b8ff" points="445.63,-31.81 442.13,-21.81 438.63,-31.81 445.63,-31.81"/>
</a>
</g>
</g>
<!-- Node8&#45;&gt;Node10 -->
<g id="edge10_Node000008_Node000010" class="edge">
<title>Node8&#45;&gt;Node10</title>
<g id="a_edge10_Node000008_Node000010"><a xlink:title=" ">
<path fill="none" stroke="#63b8ff" d="M454.67,-55.59C465.09,-47.77 480.17,-36.46 492.54,-27.19"/>
<polygon fill="#63b8ff" stroke="#63b8ff" points="494.62,-30.01 500.52,-21.21 490.42,-24.41 494.62,-30.01"/>
</a>
</g>
</g>
<!-- Node11&#45;&gt;Node3 -->
<g id="edge12_Node000011_Node000003" class="edge">
<title>Node11&#45;&gt;Node3</title>
<g id="a_edge12_Node000011_Node000003"><a xlink:title=" ">
<path fill="none" stroke="#63b8ff" d="M356.46,-111.68C348.82,-103.02 337.9,-89.47 331.12,-76 324,-61.83 319.11,-44.55 316.08,-31.36"/>
<polygon fill="#63b8ff" stroke="#63b8ff" points="319.53,-30.76 314.04,-21.7 312.68,-32.21 319.53,-30.76"/>
</a>
</g>
</g>
<!-- Node11&#45;&gt;Node4 -->
<g id="edge14_Node000011_Node000004" class="edge">
<title>Node11&#45;&gt;Node4</title>
<g id="a_edge14_Node000011_Node000004"><a xlink:title=" ">
<path fill="none" stroke="#63b8ff" d="M346.84,-111.59C330.82,-103.36 307.29,-91.26 288.78,-81.74"/>
<polygon fill="#63b8ff" stroke="#63b8ff" points="290.4,-78.63 279.9,-77.17 287.2,-84.86 290.4,-78.63"/>
</a>
</g>
</g>
<!-- Node11&#45;&gt;Node8 -->
<g id="edge13_Node000011_Node000008" class="edge">
<title>Node11&#45;&gt;Node8</title>
<g id="a_edge13_Node000011_Node000008"><a xlink:title=" ">
<path fill="none" stroke="#63b8ff" d="M378.54,-111.59C389.73,-103.74 405.94,-92.38 419.18,-83.09"/>
<polygon fill="#63b8ff" stroke="#63b8ff" points="421.19,-85.96 427.37,-77.35 417.17,-80.22 421.19,-85.96"/>
</a>
</g>
</g>
<!-- Node11&#45;&gt;Node10 -->
<g id="edge15_Node000011_Node000010" class="edge">
<title>Node11&#45;&gt;Node10</title>
<g id="a_edge15_Node000011_Node000010"><a xlink:title=" ">
<path fill="none" stroke="#63b8ff" d="M400.53,-117.63C429.76,-113.01 470.34,-102.03 495.12,-76 506.54,-64.02 511.14,-45.56 512.98,-31.37"/>
<polygon fill="#63b8ff" stroke="#63b8ff" points="516.43,-32.05 513.84,-21.78 509.46,-31.42 516.43,-32.05"/>
</a>
</g>
</g>
<!-- Node12 -->
<g id="Node000012" class="node">
<title>Node12</title>
<g id="a_Node000012"><a xlink:title=" ">
<polygon fill="#e0e0e0" stroke="#999999" points="379.75,-76 340.5,-76 340.5,-56 379.75,-56 379.75,-76"/>
<text xml:space="preserve" text-anchor="middle" x="360.12" y="-62.5" font-family="Helvetica,sans-Serif" font-size="10.00">limits</text>
</a>
</g>
</g>
<!-- Node11&#45;&gt;Node12 -->
<g id="edge16_Node000011_Node000012" class="edge">
<title>Node11&#45;&gt;Node12</title>
<g id="a_edge16_Node000011_Node000012"><a xlink:title=" ">
<path fill="none" stroke="#63b8ff" d="M364.25,-111.59C363.64,-105.01 362.81,-95.96 362.04,-87.73"/>
<polygon fill="#63b8ff" stroke="#63b8ff" points="365.53,-87.44 361.13,-77.81 358.56,-88.09 365.53,-87.44"/>
</a>
</g>
</g>
</g>
</svg>
