<?xml version="1.0" encoding="UTF-8" standalone="no"?>
<!DOCTYPE svg PUBLIC "-//W3C//DTD SVG 1.1//EN"
 "http://www.w3.org/Graphics/SVG/1.1/DTD/svg11.dtd">
<!-- Generated by graphviz version 10.0.1 (20240210.2158)
 -->
<!-- Title: Lib::Xbee::API::ApplicationBase::pause Pages: 1 -->
<svg width="476pt" height="99pt"
 viewBox="0.00 0.00 476.00 99.00" xmlns="http://www.w3.org/2000/svg" xmlns:xlink="http://www.w3.org/1999/xlink">
<g id="graph0" class="graph" transform="scale(1 1) rotate(0) translate(4 95)">
<title>Lib::Xbee::API::ApplicationBase::pause</title>
<!-- Node1 -->
<g id="Node000001" class="node">
<title>Node1</title>
<g id="a_Node000001"><a xlink:title="Pauses the service.">
<polygon fill="#999999" stroke="#666666" points="468,-57 336.5,-57 336.5,-25 468,-25 468,-57"/>
<text text-anchor="start" x="344.5" y="-43.5" font-family="Helvetica,sans-Serif" font-size="10.00">Lib::Xbee::API::Application</text>
<text text-anchor="middle" x="402.25" y="-31.5" font-family="Helvetica,sans-Serif" font-size="10.00">Base::pause</text>
</a>
</g>
</g>
<!-- Node2 -->
<g id="Node000002" class="node">
<title>Node2</title>
<g id="a_Node000002"><a xlink:href="../../d6/de1/a00233.html#aabfd62df021bf6c4eb4f43540cf8e5a1" target="_top" xlink:title="Initializes the application.">
<polygon fill="white" stroke="#666666" points="300.5,-57 169,-57 169,-25 300.5,-25 300.5,-57"/>
<text text-anchor="start" x="177" y="-43.5" font-family="Helvetica,sans-Serif" font-size="10.00">Lib::Xbee::API::Application</text>
<text text-anchor="middle" x="234.75" y="-31.5" font-family="Helvetica,sans-Serif" font-size="10.00">Base::start</text>
</a>
</g>
</g>
<!-- Node1&#45;&gt;Node2 -->
<g id="edge1_Node000001_Node000002" class="edge">
<title>Node1&#45;&gt;Node2</title>
<g id="a_edge1_Node000001_Node000002"><a xlink:title=" ">
<path fill="none" stroke="#63b8ff" d="M324.97,-41C316.88,-41 308.71,-41 300.77,-41"/>
<polygon fill="#63b8ff" stroke="#63b8ff" points="324.8,-44.5 334.8,-41 324.8,-37.5 324.8,-44.5"/>
</a>
</g>
</g>
<!-- Node3 -->
<g id="Node000003" class="node">
<title>Node3</title>
<g id="a_Node000003"><a xlink:href="../../d4/d08/a00237.html#ae08fbf02828f8b0ce1b70a5d80344a31" target="_top" xlink:title="Starts the client application.">
<polygon fill="white" stroke="#666666" points="131.88,-91 1.12,-91 1.12,-59 131.88,-59 131.88,-91"/>
<text text-anchor="start" x="9.12" y="-77.5" font-family="Helvetica,sans-Serif" font-size="10.00">Lib::Xbee::API::ClientBase</text>
<text text-anchor="middle" x="66.5" y="-65.5" font-family="Helvetica,sans-Serif" font-size="10.00">::start</text>
</a>
</g>
</g>
<!-- Node1&#45;&gt;Node3 -->
<g id="edge4_Node000001_Node000003" class="edge">
<title>Node1&#45;&gt;Node3</title>
<g id="a_edge4_Node000001_Node000003"><a xlink:title=" ">
<path fill="none" stroke="#63b8ff" d="M332.59,-60.02C321.92,-62.4 310.96,-64.52 300.5,-66 244.09,-74 179.27,-75.93 132.35,-76.04"/>
<polygon fill="#63b8ff" stroke="#63b8ff" points="333.16,-63.48 342.1,-57.8 331.57,-56.66 333.16,-63.48"/>
</a>
</g>
</g>
<!-- Node4 -->
<g id="Node000004" class="node">
<title>Node4</title>
<g id="a_Node000004"><a xlink:href="../../d3/d07/a00305.html#ad7efed3027042931e4d350c2adb4ee46" target="_top" xlink:title="Starts the server.">
<polygon fill="white" stroke="#666666" points="133,-32 0,-32 0,0 133,0 133,-32"/>
<text text-anchor="start" x="8" y="-18.5" font-family="Helvetica,sans-Serif" font-size="10.00">Lib::Xbee::API::ServerBase</text>
<text text-anchor="middle" x="66.5" y="-6.5" font-family="Helvetica,sans-Serif" font-size="10.00">::start</text>
</a>
</g>
</g>
<!-- Node1&#45;&gt;Node4 -->
<g id="edge5_Node000001_Node000004" class="edge">
<title>Node1&#45;&gt;Node4</title>
<g id="a_edge5_Node000001_Node000004"><a xlink:title=" ">
<path fill="none" stroke="#63b8ff" d="M334.2,-21.96C323.03,-19.49 311.5,-17.34 300.5,-16 244.39,-9.14 180.1,-9.77 133.29,-11.76"/>
<polygon fill="#63b8ff" stroke="#63b8ff" points="333.21,-25.33 343.74,-24.19 334.8,-18.51 333.21,-25.33"/>
</a>
</g>
</g>
<!-- Node2&#45;&gt;Node3 -->
<g id="edge2_Node000002_Node000003" class="edge">
<title>Node2&#45;&gt;Node3</title>
<g id="a_edge2_Node000002_Node000003"><a xlink:title=" ">
<path fill="none" stroke="#63b8ff" d="M157.51,-56.59C149.08,-58.32 140.55,-60.06 132.27,-61.75"/>
<polygon fill="#63b8ff" stroke="#63b8ff" points="157.94,-60.08 167.04,-54.64 156.54,-53.22 157.94,-60.08"/>
</a>
</g>
</g>
<!-- Node2&#45;&gt;Node4 -->
<g id="edge3_Node000002_Node000004" class="edge">
<title>Node2&#45;&gt;Node4</title>
<g id="a_edge3_Node000002_Node000004"><a xlink:title=" ">
<path fill="none" stroke="#63b8ff" d="M157.3,-29.5C149.3,-28.3 141.22,-27.09 133.36,-25.9"/>
<polygon fill="#63b8ff" stroke="#63b8ff" points="156.61,-32.94 167.02,-30.97 157.66,-26.02 156.61,-32.94"/>
</a>
</g>
</g>
</g>
</svg>
