<?xml version="1.0" encoding="UTF-8" standalone="no"?>
<!DOCTYPE svg PUBLIC "-//W3C//DTD SVG 1.1//EN"
 "http://www.w3.org/Graphics/SVG/1.1/DTD/svg11.dtd">
<!-- Generated by graphviz version 13.1.0 (20250701.0955)
 -->
<!-- Title: Lib::USB::SerialPortRepeaterBase::Config Pages: 1 -->
<svg width="249pt" height="407pt"
 viewBox="0.00 0.00 249.00 407.00" xmlns="http://www.w3.org/2000/svg" xmlns:xlink="http://www.w3.org/1999/xlink">
<g id="graph0" class="graph" transform="scale(1 1) rotate(0) translate(4 403)">
<title>Lib::USB::SerialPortRepeaterBase::Config</title>
<!-- Node1 -->
<g id="Node000001" class="node">
<title>Node1</title>
<g id="a_Node000001"><a xlink:title="Configuration structure for SerialPortRepeaterBase.">
<polygon fill="#999999" stroke="none" points="152.12,-64 15.88,-64 15.88,0 152.12,0 152.12,-64"/>
<text xml:space="preserve" text-anchor="start" x="19.88" y="-50.5" font-family="Helvetica,sans-Serif" font-size="10.00">Lib::USB::SerialPortRepeater</text>
<text xml:space="preserve" text-anchor="start" x="55.5" y="-38.5" font-family="Helvetica,sans-Serif" font-size="10.00">Base::Config</text>
<text xml:space="preserve" text-anchor="start" x="82.5" y="-22.5" font-family="Helvetica,sans-Serif" font-size="10.00"> </text>
<text xml:space="preserve" text-anchor="start" x="82.5" y="-6.5" font-family="Helvetica,sans-Serif" font-size="10.00"> </text>
<polygon fill="#666666" stroke="#666666" points="15.88,-34 15.88,-34 152.12,-34 152.12,-34 15.88,-34"/>
<polygon fill="#666666" stroke="#666666" points="15.88,-18 15.88,-18 152.12,-18 152.12,-18 15.88,-18"/>
<polygon fill="none" stroke="#666666" points="15.88,0 15.88,-64 152.12,-64 152.12,0 15.88,0"/>
</a>
</g>
</g>
<!-- Node2 -->
<g id="Node000002" class="node">
<title>Node2</title>
<g id="a_Node000002"><a xlink:href="../../d9/d0d/a01748.html" target="_top" xlink:title="Configuration for the SerialPort.">
<polygon fill="white" stroke="none" points="240.88,-205 123.12,-205 123.12,-101 240.88,-101 240.88,-205"/>
<text xml:space="preserve" text-anchor="start" x="137.75" y="-191.5" font-family="Helvetica,sans-Serif" font-size="10.00">Lib::USB::SerialPort</text>
<text xml:space="preserve" text-anchor="start" x="164.75" y="-179.5" font-family="Helvetica,sans-Serif" font-size="10.00">::Config</text>
<text xml:space="preserve" text-anchor="start" x="127.12" y="-163.5" font-family="Helvetica,sans-Serif" font-size="10.00">+</text>
<text xml:space="preserve" text-anchor="start" x="137.12" y="-163.5" font-family="Helvetica,sans-Serif" font-size="10.00">UART_HandleTypeDef</text>
<text xml:space="preserve" text-anchor="start" x="137.12" y="-151.5" font-family="Helvetica,sans-Serif" font-size="10.00"> * rxPortHandle</text>
<text xml:space="preserve" text-anchor="start" x="127.12" y="-135.5" font-family="Helvetica,sans-Serif" font-size="10.00">+</text>
<text xml:space="preserve" text-anchor="start" x="137.12" y="-135.5" font-family="Helvetica,sans-Serif" font-size="10.00">UART_HandleTypeDef</text>
<text xml:space="preserve" text-anchor="start" x="137.12" y="-123.5" font-family="Helvetica,sans-Serif" font-size="10.00"> * txPortHandle</text>
<text xml:space="preserve" text-anchor="start" x="180.5" y="-107.5" font-family="Helvetica,sans-Serif" font-size="10.00"> </text>
<polygon fill="#666666" stroke="#666666" points="123.12,-175 123.12,-175 240.88,-175 240.88,-175 123.12,-175"/>
<polygon fill="#666666" stroke="#666666" points="123.12,-119 123.12,-119 135.12,-119 135.12,-119 123.12,-119"/>
<polygon fill="#666666" stroke="#666666" points="135.12,-119 135.12,-119 240.88,-119 240.88,-119 135.12,-119"/>
<polygon fill="none" stroke="#666666" points="123.12,-101 123.12,-205 240.88,-205 240.88,-101 123.12,-101"/>
</a>
</g>
</g>
<!-- Node2&#45;&gt;Node1 -->
<g id="edge1_Node000001_Node000002" class="edge">
<title>Node2&#45;&gt;Node1</title>
<g id="a_edge1_Node000001_Node000002"><a xlink:title=" ">
<path fill="none" stroke="#63b8ff" d="M132.97,-92.46C124.76,-82.49 116.56,-72.53 109.27,-63.69"/>
<polygon fill="none" stroke="#63b8ff" points="130.13,-94.53 139.19,-100.02 135.54,-90.08 130.13,-94.53"/>
</a>
</g>
</g>
<!-- Node3 -->
<g id="Node000003" class="node">
<title>Node3</title>
<g id="a_Node000003"><a xlink:href="../../df/df3/a01468.html" target="_top" xlink:title="GPIO pin handle abstraction.">
<polygon fill="white" stroke="none" points="120,-399 0,-399 0,-259 120,-259 120,-399"/>
<text xml:space="preserve" text-anchor="start" x="7.12" y="-385.5" font-family="Helvetica,sans-Serif" font-size="10.00">Lib::HAL::GPIO::Handle</text>
<text xml:space="preserve" text-anchor="start" x="4" y="-369.5" font-family="Helvetica,sans-Serif" font-size="10.00">+</text>
<text xml:space="preserve" text-anchor="start" x="14" y="-369.5" font-family="Helvetica,sans-Serif" font-size="10.00">GPIO_TypeDef * port</text>
<text xml:space="preserve" text-anchor="start" x="4" y="-353.5" font-family="Helvetica,sans-Serif" font-size="10.00">+</text>
<text xml:space="preserve" text-anchor="start" x="14" y="-353.5" font-family="Helvetica,sans-Serif" font-size="10.00">uint16_t number</text>
<text xml:space="preserve" text-anchor="start" x="4" y="-337.5" font-family="Helvetica,sans-Serif" font-size="10.00">+</text>
<text xml:space="preserve" text-anchor="start" x="14" y="-337.5" font-family="Helvetica,sans-Serif" font-size="10.00">Handle()=default</text>
<text xml:space="preserve" text-anchor="start" x="4" y="-321.5" font-family="Helvetica,sans-Serif" font-size="10.00">+</text>
<text xml:space="preserve" text-anchor="start" x="14" y="-321.5" font-family="Helvetica,sans-Serif" font-size="10.00">Handle(GPIO_TypeDef</text>
<text xml:space="preserve" text-anchor="start" x="14" y="-309.5" font-family="Helvetica,sans-Serif" font-size="10.00"> *port, uint16_t number)</text>
<text xml:space="preserve" text-anchor="start" x="4" y="-293.5" font-family="Helvetica,sans-Serif" font-size="10.00">+</text>
<text xml:space="preserve" text-anchor="start" x="14" y="-293.5" font-family="Helvetica,sans-Serif" font-size="10.00">~Handle()=default</text>
<text xml:space="preserve" text-anchor="start" x="4" y="-277.5" font-family="Helvetica,sans-Serif" font-size="10.00">+</text>
<text xml:space="preserve" text-anchor="start" x="14" y="-277.5" font-family="Helvetica,sans-Serif" font-size="10.00">bool operator==(const</text>
<text xml:space="preserve" text-anchor="start" x="14" y="-265.5" font-family="Helvetica,sans-Serif" font-size="10.00"> Handle &amp;ref) const</text>
<polygon fill="#666666" stroke="#666666" points="0,-381 0,-381 120,-381 120,-381 0,-381"/>
<polygon fill="#666666" stroke="#666666" points="0,-349 0,-349 12,-349 12,-349 0,-349"/>
<polygon fill="#666666" stroke="#666666" points="12,-349 12,-349 120,-349 120,-349 12,-349"/>
<polygon fill="none" stroke="#666666" points="0,-259 0,-399 120,-399 120,-259 0,-259"/>
</a>
</g>
</g>
<!-- Node3&#45;&gt;Node1 -->
<g id="edge3_Node000001_Node000003" class="edge">
<title>Node3&#45;&gt;Node1</title>
<g id="a_edge3_Node000001_Node000003"><a xlink:title=" ">
<path fill="none" stroke="#63b8ff" d="M49.44,-259.18C44.54,-213.76 41.99,-153.22 53.25,-101 55.08,-92.49 58.07,-83.76 61.49,-75.52"/>
<polygon fill="none" stroke="#63b8ff" points="61.43,-75.64 60.23,-68.53 66.33,-64.69 67.53,-71.8 61.43,-75.64"/>
</a>
</g>
<text xml:space="preserve" text-anchor="start" x="56.25" y="-157.5" font-family="Helvetica,sans-Serif" font-size="10.00" fill="grey">+usbDetect</text>
<text xml:space="preserve" text-anchor="start" x="56.25" y="-141.5" font-family="Helvetica,sans-Serif" font-size="10.00" fill="grey">+usbDisable</text>
</g>
<!-- Node3&#45;&gt;Node2 -->
<g id="edge2_Node000002_Node000003" class="edge">
<title>Node3&#45;&gt;Node2</title>
<g id="a_edge2_Node000002_Node000003"><a xlink:title=" ">
<path fill="none" stroke="#63b8ff" d="M108.22,-259.23C118.35,-244.77 128.99,-229.61 138.92,-215.44"/>
<polygon fill="none" stroke="#63b8ff" points="138.95,-215.39 139.12,-208.18 145.84,-205.57 145.67,-212.78 138.95,-215.39"/>
</a>
</g>
<text xml:space="preserve" text-anchor="start" x="134.93" y="-228.5" font-family="Helvetica,sans-Serif" font-size="10.00" fill="grey">+pinNRST</text>
</g>
</g>
</svg>
