<?xml version="1.0" encoding="UTF-8" standalone="no"?>
<!DOCTYPE svg PUBLIC "-//W3C//DTD SVG 1.1//EN"
 "http://www.w3.org/Graphics/SVG/1.1/DTD/svg11.dtd">
<!-- Generated by graphviz version 13.1.0 (20250701.0955)
 -->
<!-- Title: Xbee::Client Pages: 1 -->
<svg width="264pt" height="183pt"
 viewBox="0.00 0.00 264.00 183.00" xmlns="http://www.w3.org/2000/svg" xmlns:xlink="http://www.w3.org/1999/xlink">
<g id="graph0" class="graph" transform="scale(1 1) rotate(0) translate(4 178.5)">
<title>Xbee::Client</title>
<!-- Node1 -->
<g id="Node000001" class="node">
<title>Node1</title>
<g id="a_Node000001"><a xlink:title="Xbee wireless communication client for embedded firmware applications.">
<polygon fill="#999999" stroke="none" points="174.75,-91 76.5,-91 76.5,0 174.75,0 174.75,-91"/>
<text xml:space="preserve" text-anchor="start" x="100.5" y="-78.45" font-family="Arial" font-size="9.00">Xbee::Client</text>
<text xml:space="preserve" text-anchor="start" x="124.5" y="-63.95" font-family="Arial" font-size="9.00"> </text>
<text xml:space="preserve" text-anchor="start" x="80.5" y="-49.45" font-family="Arial" font-size="9.00">+</text>
<text xml:space="preserve" text-anchor="start" x="89.75" y="-49.45" font-family="Arial" font-size="9.00">Client()</text>
<text xml:space="preserve" text-anchor="start" x="80.5" y="-34.95" font-family="Arial" font-size="9.00">+</text>
<text xml:space="preserve" text-anchor="start" x="89.75" y="-34.95" font-family="Arial" font-size="9.00">~Client()</text>
<text xml:space="preserve" text-anchor="start" x="80.5" y="-20.45" font-family="Arial" font-size="9.00">+</text>
<text xml:space="preserve" text-anchor="start" x="89.75" y="-20.45" font-family="Arial" font-size="9.00">start()</text>
<text xml:space="preserve" text-anchor="start" x="80.5" y="-5.95" font-family="Arial" font-size="9.00">+</text>
<text xml:space="preserve" text-anchor="start" x="89.75" y="-5.95" font-family="Arial" font-size="9.00">getModulePresent()</text>
<polygon fill="#666666" stroke="#666666" points="76.5,-74.5 76.5,-74.5 174.75,-74.5 174.75,-74.5 76.5,-74.5"/>
<polygon fill="#666666" stroke="#666666" points="76.5,-60 76.5,-60 174.75,-60 174.75,-60 76.5,-60"/>
<polygon fill="none" stroke="#666666" points="76.5,0 76.5,-91 174.75,-91 174.75,0 76.5,0"/>
</a>
</g>
</g>
<!-- Node2 -->
<g id="Node000002" class="node">
<title>Node2</title>
<g id="a_Node000002"><a xlink:title=" ">
<polygon fill="white" stroke="none" points="115.25,-174.5 0,-174.5 0,-127 115.25,-127 115.25,-174.5"/>
<text xml:space="preserve" text-anchor="start" x="4" y="-161.95" font-family="Arial" font-size="9.00">Lib::Xbee::API::ClientBase</text>
<text xml:space="preserve" text-anchor="start" x="56.5" y="-147.45" font-family="Arial" font-size="9.00"> </text>
<text xml:space="preserve" text-anchor="start" x="56.5" y="-132.95" font-family="Arial" font-size="9.00"> </text>
<polygon fill="#bfbfbf" stroke="#bfbfbf" points="0,-158 0,-158 115.25,-158 115.25,-158 0,-158"/>
<polygon fill="#bfbfbf" stroke="#bfbfbf" points="0,-143.5 0,-143.5 115.25,-143.5 115.25,-143.5 0,-143.5"/>
<polygon fill="none" stroke="#bfbfbf" points="0,-127 0,-174.5 115.25,-174.5 115.25,-127 0,-127"/>
</a>
</g>
</g>
<!-- Node2&#45;&gt;Node1 -->
<g id="edge1_Node000001_Node000002" class="edge">
<title>Node2&#45;&gt;Node1</title>
<g id="a_edge1_Node000001_Node000002"><a xlink:title=" ">
<path fill="none" stroke="#63b8ff" d="M78.82,-117.56C84.42,-109.07 90.56,-99.75 96.49,-90.73"/>
<polygon fill="none" stroke="#63b8ff" points="75.96,-115.55 73.38,-125.83 81.8,-119.4 75.96,-115.55"/>
</a>
</g>
</g>
<!-- Node3 -->
<g id="Node000003" class="node">
<title>Node3</title>
<g id="a_Node000003"><a xlink:href="../../dc/db4/class_lib_1_1_xbee_1_1_a_p_i_1_1_user_protocol.html" target="_top" xlink:title=" ">
<polygon fill="white" stroke="none" points="256.38,-174.5 132.88,-174.5 132.88,-127 256.38,-127 256.38,-174.5"/>
<text xml:space="preserve" text-anchor="start" x="136.88" y="-161.95" font-family="Arial" font-size="9.00">Lib::Xbee::API::UserProtocol</text>
<text xml:space="preserve" text-anchor="start" x="193.5" y="-147.45" font-family="Arial" font-size="9.00"> </text>
<text xml:space="preserve" text-anchor="start" x="193.5" y="-132.95" font-family="Arial" font-size="9.00"> </text>
<polygon fill="#bfbfbf" stroke="#bfbfbf" points="132.88,-158 132.88,-158 256.38,-158 256.38,-158 132.88,-158"/>
<polygon fill="#bfbfbf" stroke="#bfbfbf" points="132.88,-143.5 132.88,-143.5 256.38,-143.5 256.38,-143.5 132.88,-143.5"/>
<polygon fill="none" stroke="#bfbfbf" points="132.88,-127 132.88,-174.5 256.38,-174.5 256.38,-127 132.88,-127"/>
</a>
</g>
</g>
<!-- Node3&#45;&gt;Node1 -->
<g id="edge2_Node000001_Node000003" class="edge">
<title>Node3&#45;&gt;Node1</title>
<g id="a_edge2_Node000001_Node000003"><a xlink:title=" ">
<path fill="none" stroke="#63b8ff" d="M173.11,-117.56C167.44,-109.07 161.21,-99.75 155.19,-90.73"/>
<polygon fill="none" stroke="#63b8ff" points="170.18,-119.46 178.64,-125.83 176,-115.57 170.18,-119.46"/>
</a>
</g>
</g>
</g>
</svg>
