<?xml version="1.0" encoding="UTF-8" standalone="no"?>
<!DOCTYPE svg PUBLIC "-//W3C//DTD SVG 1.1//EN"
 "http://www.w3.org/Graphics/SVG/1.1/DTD/svg11.dtd">
<!-- Generated by graphviz version 13.1.0 (20250701.0955)
 -->
<!-- Title: Project Pages: 1 -->
<svg width="392pt" height="157pt"
 viewBox="0.00 0.00 392.00 157.00" xmlns="http://www.w3.org/2000/svg" xmlns:xlink="http://www.w3.org/1999/xlink">
<g id="graph0" class="graph" transform="scale(1 1) rotate(0) translate(4 153.11)">
<title>Project</title>
<g id="clust1" class="cluster">
<title>clusterdir_ffd1f789ec7bd0a45fc6ad92579c5070</title>
<g id="a_clust1"><a xlink:href="dir_ffd1f789ec7bd0a45fc6ad92579c5070.html" target="_top">
<polygon fill="#edf0f7" stroke="#404040" stroke-width="2" points="8,-49.11 8,-141.11 361,-141.11 361,-49.11 8,-49.11"/>
</a>
</g>
</g>
<!-- dir_ffd1f789ec7bd0a45fc6ad92579c5070 -->
<g id="node1" class="node">
<title>dir_ffd1f789ec7bd0a45fc6ad92579c5070</title>
<text xml:space="preserve" text-anchor="middle" x="198" y="-119.61" font-family="Helvetica,sans-Serif" font-size="10.00">Project</text>
</g>
<!-- dir_61e0c6c068d494aa3e9fc2b166624a1f -->
<g id="node3" class="node">
<title>dir_61e0c6c068d494aa3e9fc2b166624a1f</title>
<g id="a_node3"><a xlink:href="dir_61e0c6c068d494aa3e9fc2b166624a1f.html" target="_top" xlink:title="BSP">
<polygon fill="#a2b4d6" stroke="#404040" points="52.12,-77.11 15.88,-77.11 15.88,-57.11 52.12,-57.11 52.12,-77.11"/>
<text xml:space="preserve" text-anchor="middle" x="34" y="-63.61" font-family="Helvetica,sans-Serif" font-size="10.00">BSP</text>
</a>
</g>
</g>
<!-- dir_ffd1f789ec7bd0a45fc6ad92579c5070&#45;&gt;dir_61e0c6c068d494aa3e9fc2b166624a1f -->
<g id="edge3" class="edge">
<title>dir_ffd1f789ec7bd0a45fc6ad92579c5070&#45;&gt;dir_61e0c6c068d494aa3e9fc2b166624a1f</title>
<g id="a_edge3"><a xlink:href="dir_000052_000007.html" target="_top">
<path fill="none" stroke="#63b8ff" d="M174.72,-114.5C149.48,-106.24 107.73,-92.56 63.31,-77.87"/>
<polygon fill="#63b8ff" stroke="#63b8ff" points="64.62,-74.62 54.02,-74.8 62.42,-81.26 64.62,-74.62"/>
</a>
</g>
<g id="a_edge3&#45;headlabel"><a xlink:href="dir_000052_000007.html" target="_top" xlink:title="10">
<text xml:space="preserve" text-anchor="middle" x="67.49" y="-69.07" font-family="Helvetica,sans-Serif" font-size="10.00" fill="#63b8ff">10</text>
</a>
</g>
</g>
<!-- dir_e7d24b89129ade386fc894fd6d0e9274 -->
<g id="node4" class="node">
<title>dir_e7d24b89129ade386fc894fd6d0e9274</title>
<g id="a_node4"><a xlink:href="dir_e7d24b89129ade386fc894fd6d0e9274.html" target="_top" xlink:title="Canbus">
<polygon fill="#a2b4d6" stroke="#404040" points="119.88,-77.11 70.12,-77.11 70.12,-57.11 119.88,-57.11 119.88,-77.11"/>
<text xml:space="preserve" text-anchor="middle" x="95" y="-63.61" font-family="Helvetica,sans-Serif" font-size="10.00">Canbus</text>
</a>
</g>
</g>
<!-- dir_ffd1f789ec7bd0a45fc6ad92579c5070&#45;&gt;dir_e7d24b89129ade386fc894fd6d0e9274 -->
<g id="edge7" class="edge">
<title>dir_ffd1f789ec7bd0a45fc6ad92579c5070&#45;&gt;dir_e7d24b89129ade386fc894fd6d0e9274</title>
<g id="a_edge7"><a xlink:href="dir_000052_000011.html" target="_top">
<path fill="none" stroke="#63b8ff" d="M180.99,-113.2C165.25,-104.95 141.56,-92.52 123.02,-82.81"/>
<polygon fill="#63b8ff" stroke="#63b8ff" points="124.9,-79.84 114.41,-78.29 121.65,-86.04 124.9,-79.84"/>
</a>
</g>
<g id="a_edge7&#45;headlabel"><a xlink:href="dir_000052_000011.html" target="_top" xlink:title="1">
<text xml:space="preserve" text-anchor="middle" x="128.06" y="-74.79" font-family="Helvetica,sans-Serif" font-size="10.00" fill="#63b8ff">1</text>
</a>
</g>
</g>
<!-- dir_650e8a599ec44b823a6022e82b2bd046 -->
<g id="node5" class="node">
<title>dir_650e8a599ec44b823a6022e82b2bd046</title>
<g id="a_node5"><a xlink:href="dir_650e8a599ec44b823a6022e82b2bd046.html" target="_top" xlink:title="DAL">
<polygon fill="#a2b4d6" stroke="#404040" points="173.75,-77.11 138.25,-77.11 138.25,-57.11 173.75,-57.11 173.75,-77.11"/>
<text xml:space="preserve" text-anchor="middle" x="156" y="-63.61" font-family="Helvetica,sans-Serif" font-size="10.00">DAL</text>
</a>
</g>
</g>
<!-- dir_ffd1f789ec7bd0a45fc6ad92579c5070&#45;&gt;dir_650e8a599ec44b823a6022e82b2bd046 -->
<g id="edge4" class="edge">
<title>dir_ffd1f789ec7bd0a45fc6ad92579c5070&#45;&gt;dir_650e8a599ec44b823a6022e82b2bd046</title>
<g id="a_edge4"><a xlink:href="dir_000052_000025.html" target="_top">
<path fill="none" stroke="#63b8ff" d="M191.06,-113.2C185.45,-105.98 177.36,-95.58 170.36,-86.58"/>
<polygon fill="#63b8ff" stroke="#63b8ff" points="173.2,-84.53 164.3,-78.79 167.68,-88.83 173.2,-84.53"/>
</a>
</g>
<g id="a_edge4&#45;headlabel"><a xlink:href="dir_000052_000025.html" target="_top" xlink:title="2">
<text xml:space="preserve" text-anchor="middle" x="176.72" y="-80.93" font-family="Helvetica,sans-Serif" font-size="10.00" fill="#63b8ff">2</text>
</a>
</g>
</g>
<!-- dir_9a9700c4a61579b3f78b67758e7f88c6 -->
<g id="node6" class="node">
<title>dir_9a9700c4a61579b3f78b67758e7f88c6</title>
<g id="a_node6"><a xlink:href="dir_9a9700c4a61579b3f78b67758e7f88c6.html" target="_top" xlink:title="System">
<polygon fill="#a2b4d6" stroke="#404040" points="241.88,-77.11 192.12,-77.11 192.12,-57.11 241.88,-57.11 241.88,-77.11"/>
<text xml:space="preserve" text-anchor="middle" x="217" y="-63.61" font-family="Helvetica,sans-Serif" font-size="10.00">System</text>
</a>
</g>
</g>
<!-- dir_ffd1f789ec7bd0a45fc6ad92579c5070&#45;&gt;dir_9a9700c4a61579b3f78b67758e7f88c6 -->
<g id="edge6" class="edge">
<title>dir_ffd1f789ec7bd0a45fc6ad92579c5070&#45;&gt;dir_9a9700c4a61579b3f78b67758e7f88c6</title>
<g id="a_edge6"><a xlink:href="dir_000052_000062.html" target="_top">
<path fill="none" stroke="#63b8ff" d="M201.14,-113.2C203.51,-106.44 206.87,-96.89 209.89,-88.32"/>
<polygon fill="#63b8ff" stroke="#63b8ff" points="213.15,-89.61 213.16,-79.02 206.54,-87.29 213.15,-89.61"/>
</a>
</g>
<g id="a_edge6&#45;headlabel"><a xlink:href="dir_000052_000062.html" target="_top" xlink:title="10">
<text xml:space="preserve" text-anchor="middle" x="215.13" y="-89.02" font-family="Helvetica,sans-Serif" font-size="10.00" fill="#63b8ff">10</text>
</a>
</g>
</g>
<!-- dir_17cf8105fa1ca67493f6a4d7d6cb9cbc -->
<g id="node8" class="node">
<title>dir_17cf8105fa1ca67493f6a4d7d6cb9cbc</title>
<g id="a_node8"><a xlink:href="dir_17cf8105fa1ca67493f6a4d7d6cb9cbc.html" target="_top" xlink:title="USB">
<polygon fill="#a2b4d6" stroke="#404040" points="296.5,-77.11 259.5,-77.11 259.5,-57.11 296.5,-57.11 296.5,-77.11"/>
<text xml:space="preserve" text-anchor="middle" x="278" y="-63.61" font-family="Helvetica,sans-Serif" font-size="10.00">USB</text>
</a>
</g>
</g>
<!-- dir_ffd1f789ec7bd0a45fc6ad92579c5070&#45;&gt;dir_17cf8105fa1ca67493f6a4d7d6cb9cbc -->
<g id="edge1" class="edge">
<title>dir_ffd1f789ec7bd0a45fc6ad92579c5070&#45;&gt;dir_17cf8105fa1ca67493f6a4d7d6cb9cbc</title>
<g id="a_edge1"><a xlink:href="dir_000052_000071.html" target="_top">
<path fill="none" stroke="#63b8ff" d="M211.21,-113.2C223.04,-105.21 240.65,-93.33 254.82,-83.76"/>
<polygon fill="#63b8ff" stroke="#63b8ff" points="256.38,-86.93 262.71,-78.44 252.46,-81.13 256.38,-86.93"/>
</a>
</g>
<g id="a_edge1&#45;headlabel"><a xlink:href="dir_000052_000071.html" target="_top" xlink:title="1">
<text xml:space="preserve" text-anchor="middle" x="256.24" y="-86.95" font-family="Helvetica,sans-Serif" font-size="10.00" fill="#63b8ff">1</text>
</a>
</g>
</g>
<!-- dir_40abd7a594df616d50dde180fc5f96ed -->
<g id="node9" class="node">
<title>dir_40abd7a594df616d50dde180fc5f96ed</title>
<g id="a_node9"><a xlink:href="dir_40abd7a594df616d50dde180fc5f96ed.html" target="_top" xlink:title="Xbee">
<polygon fill="#a2b4d6" stroke="#404040" points="353.25,-77.11 314.75,-77.11 314.75,-57.11 353.25,-57.11 353.25,-77.11"/>
<text xml:space="preserve" text-anchor="middle" x="334" y="-63.61" font-family="Helvetica,sans-Serif" font-size="10.00">Xbee</text>
</a>
</g>
</g>
<!-- dir_ffd1f789ec7bd0a45fc6ad92579c5070&#45;&gt;dir_40abd7a594df616d50dde180fc5f96ed -->
<g id="edge2" class="edge">
<title>dir_ffd1f789ec7bd0a45fc6ad92579c5070&#45;&gt;dir_40abd7a594df616d50dde180fc5f96ed</title>
<g id="a_edge2"><a xlink:href="dir_000052_000074.html" target="_top">
<path fill="none" stroke="#63b8ff" d="M220.46,-113.2C243.33,-104.12 278.92,-89.99 304.15,-79.97"/>
<polygon fill="#63b8ff" stroke="#63b8ff" points="305.19,-83.32 313.19,-76.38 302.6,-76.82 305.19,-83.32"/>
</a>
</g>
<g id="a_edge2&#45;headlabel"><a xlink:href="dir_000052_000074.html" target="_top" xlink:title="1">
<text xml:space="preserve" text-anchor="middle" x="304.3" y="-83.23" font-family="Helvetica,sans-Serif" font-size="10.00" fill="#63b8ff">1</text>
</a>
</g>
</g>
<!-- dir_8f3de2ae926fecfe6abd5379fd2b6eb1 -->
<g id="node10" class="node">
<title>dir_8f3de2ae926fecfe6abd5379fd2b6eb1</title>
<g id="a_node10"><a xlink:href="dir_8f3de2ae926fecfe6abd5379fd2b6eb1.html" target="_top" xlink:title="Lib">
<polygon fill="#edf0f7" stroke="red" points="261.4,-21.11 232.6,-21.11 232.6,-1.11 261.4,-1.11 261.4,-21.11"/>
<text xml:space="preserve" text-anchor="middle" x="247" y="-7.61" font-family="Helvetica,sans-Serif" font-size="10.00">Lib</text>
</a>
</g>
</g>
<!-- dir_ffd1f789ec7bd0a45fc6ad92579c5070&#45;&gt;dir_8f3de2ae926fecfe6abd5379fd2b6eb1 -->
<g id="edge5" class="edge">
<title>dir_ffd1f789ec7bd0a45fc6ad92579c5070&#45;&gt;dir_8f3de2ae926fecfe6abd5379fd2b6eb1</title>
<g id="a_edge5"><a xlink:href="dir_000052_000045.html" target="_top">
<path fill="none" stroke="#63b8ff" d="M221.07,-115.6C224.07,-114.76 227.11,-113.92 230,-113.11 288.6,-96.88 325.09,-125.44 362,-77.11 369.55,-67.23 369.33,-59.17 362,-49.11 341.76,-21.33 300.3,-13.96 273.08,-12.25"/>
<polygon fill="#63b8ff" stroke="#63b8ff" points="273.35,-8.76 263.22,-11.87 273.08,-15.75 273.35,-8.76"/>
</a>
</g>
<g id="a_edge5&#45;headlabel"><a xlink:href="dir_000052_000045.html" target="_top" xlink:title="31">
<text xml:space="preserve" text-anchor="middle" x="275.54" y="-2.5" font-family="Helvetica,sans-Serif" font-size="10.00" fill="#63b8ff">31</text>
</a>
</g>
</g>
<!-- dir_31a7a6fe220e0fc48dd17247531e50e0 -->
<g id="node2" class="node">
<title>dir_31a7a6fe220e0fc48dd17247531e50e0</title>
<g id="a_node2"><a xlink:href="dir_31a7a6fe220e0fc48dd17247531e50e0.html" target="_top" xlink:title="App">
<polygon fill="#a2b4d6" stroke="#404040" points="272.62,-133.11 239.38,-133.11 239.38,-113.11 272.62,-113.11 272.62,-133.11"/>
<text xml:space="preserve" text-anchor="middle" x="256" y="-119.61" font-family="Helvetica,sans-Serif" font-size="10.00">App</text>
</a>
</g>
</g>
<!-- dir_61e0c6c068d494aa3e9fc2b166624a1f&#45;&gt;dir_8f3de2ae926fecfe6abd5379fd2b6eb1 -->
<g id="edge8" class="edge">
<title>dir_61e0c6c068d494aa3e9fc2b166624a1f&#45;&gt;dir_8f3de2ae926fecfe6abd5379fd2b6eb1</title>
<g id="a_edge8"><a xlink:href="dir_000007_000045.html" target="_top">
<path fill="none" stroke="#63b8ff" d="M46.94,-56.62C51.24,-53.85 56.16,-51.04 61,-49.11 115.68,-27.33 184.71,-17.93 221.37,-14.24"/>
<polygon fill="#63b8ff" stroke="#63b8ff" points="221.36,-17.75 230.99,-13.34 220.71,-10.78 221.36,-17.75"/>
</a>
</g>
<g id="a_edge8&#45;headlabel"><a xlink:href="dir_000007_000045.html" target="_top" xlink:title="17">
<text xml:space="preserve" text-anchor="middle" x="219.55" y="-17.27" font-family="Helvetica,sans-Serif" font-size="10.00" fill="#63b8ff">17</text>
</a>
</g>
</g>
<!-- dir_e7d24b89129ade386fc894fd6d0e9274&#45;&gt;dir_8f3de2ae926fecfe6abd5379fd2b6eb1 -->
<g id="edge9" class="edge">
<title>dir_e7d24b89129ade386fc894fd6d0e9274&#45;&gt;dir_8f3de2ae926fecfe6abd5379fd2b6eb1</title>
<g id="a_edge9"><a xlink:href="dir_000011_000045.html" target="_top">
<path fill="none" stroke="#63b8ff" d="M112.4,-56.75C117.66,-54.1 123.49,-51.34 129,-49.11 160,-36.6 196.94,-25.62 221.13,-18.94"/>
<polygon fill="#63b8ff" stroke="#63b8ff" points="222.01,-22.33 230.74,-16.33 220.18,-15.57 222.01,-22.33"/>
</a>
</g>
<g id="a_edge9&#45;headlabel"><a xlink:href="dir_000011_000045.html" target="_top" xlink:title="2">
<text xml:space="preserve" text-anchor="middle" x="220.74" y="-22.11" font-family="Helvetica,sans-Serif" font-size="10.00" fill="#63b8ff">2</text>
</a>
</g>
</g>
<!-- dir_650e8a599ec44b823a6022e82b2bd046&#45;&gt;dir_8f3de2ae926fecfe6abd5379fd2b6eb1 -->
<g id="edge10" class="edge">
<title>dir_650e8a599ec44b823a6022e82b2bd046&#45;&gt;dir_8f3de2ae926fecfe6abd5379fd2b6eb1</title>
<g id="a_edge10"><a xlink:href="dir_000025_000045.html" target="_top">
<path fill="none" stroke="#63b8ff" d="M170.79,-56.66C174.74,-54.18 179.02,-51.52 183,-49.11 195.92,-41.32 210.47,-32.88 222.43,-26.03"/>
<polygon fill="#63b8ff" stroke="#63b8ff" points="223.9,-29.22 230.85,-21.23 220.43,-23.14 223.9,-29.22"/>
</a>
</g>
<g id="a_edge10&#45;headlabel"><a xlink:href="dir_000025_000045.html" target="_top" xlink:title="1">
<text xml:space="preserve" text-anchor="middle" x="223.49" y="-29.22" font-family="Helvetica,sans-Serif" font-size="10.00" fill="#63b8ff">1</text>
</a>
</g>
</g>
<!-- dir_9a9700c4a61579b3f78b67758e7f88c6&#45;&gt;dir_8f3de2ae926fecfe6abd5379fd2b6eb1 -->
<g id="edge11" class="edge">
<title>dir_9a9700c4a61579b3f78b67758e7f88c6&#45;&gt;dir_8f3de2ae926fecfe6abd5379fd2b6eb1</title>
<g id="a_edge11"><a xlink:href="dir_000062_000045.html" target="_top">
<path fill="none" stroke="#63b8ff" d="M222.23,-56.71C226.1,-49.74 231.51,-40 236.28,-31.4"/>
<polygon fill="#63b8ff" stroke="#63b8ff" points="239.3,-33.18 241.1,-22.74 233.18,-29.78 239.3,-33.18"/>
</a>
</g>
<g id="a_edge11&#45;headlabel"><a xlink:href="dir_000062_000045.html" target="_top" xlink:title="6">
<text xml:space="preserve" text-anchor="middle" x="240.77" y="-32.88" font-family="Helvetica,sans-Serif" font-size="10.00" fill="#63b8ff">6</text>
</a>
</g>
</g>
<!-- dir_1721c5d53556f1c1f2c90468980025b6 -->
<g id="node7" class="node">
<title>dir_1721c5d53556f1c1f2c90468980025b6</title>
<g id="a_node7"><a xlink:href="dir_1721c5d53556f1c1f2c90468980025b6.html" target="_top" xlink:title="TouchGFX">
<polygon fill="#a2b4d6" stroke="#404040" points="353.25,-133.11 290.75,-133.11 290.75,-113.11 353.25,-113.11 353.25,-133.11"/>
<text xml:space="preserve" text-anchor="middle" x="322" y="-119.61" font-family="Helvetica,sans-Serif" font-size="10.00">TouchGFX</text>
</a>
</g>
</g>
<!-- dir_1721c5d53556f1c1f2c90468980025b6&#45;&gt;dir_8f3de2ae926fecfe6abd5379fd2b6eb1 -->
<g id="edge12" class="edge">
<title>dir_1721c5d53556f1c1f2c90468980025b6&#45;&gt;dir_8f3de2ae926fecfe6abd5379fd2b6eb1</title>
<g id="a_edge12"><a xlink:href="dir_000066_000045.html" target="_top">
<path fill="none" stroke="#63b8ff" d="M338.71,-112.73C361.2,-98.9 396.49,-72.18 379,-49.11 366.2,-32.24 307.38,-20.94 272.72,-15.62"/>
<polygon fill="#63b8ff" stroke="#63b8ff" points="273.49,-12.2 263.09,-14.21 272.47,-19.13 273.49,-12.2"/>
</a>
</g>
<g id="a_edge12&#45;headlabel"><a xlink:href="dir_000066_000045.html" target="_top" xlink:title="1">
<text xml:space="preserve" text-anchor="middle" x="275.96" y="-6.19" font-family="Helvetica,sans-Serif" font-size="10.00" fill="#63b8ff">1</text>
</a>
</g>
</g>
<!-- dir_17cf8105fa1ca67493f6a4d7d6cb9cbc&#45;&gt;dir_8f3de2ae926fecfe6abd5379fd2b6eb1 -->
<g id="edge13" class="edge">
<title>dir_17cf8105fa1ca67493f6a4d7d6cb9cbc&#45;&gt;dir_8f3de2ae926fecfe6abd5379fd2b6eb1</title>
<g id="a_edge13"><a xlink:href="dir_000071_000045.html" target="_top">
<path fill="none" stroke="#63b8ff" d="M272.6,-56.71C268.56,-49.66 262.88,-39.78 257.91,-31.12"/>
<polygon fill="#63b8ff" stroke="#63b8ff" points="261.11,-29.66 253.09,-22.73 255.03,-33.14 261.11,-29.66"/>
</a>
</g>
<g id="a_edge13&#45;headlabel"><a xlink:href="dir_000071_000045.html" target="_top" xlink:title="1">
<text xml:space="preserve" text-anchor="middle" x="264.6" y="-26.55" font-family="Helvetica,sans-Serif" font-size="10.00" fill="#63b8ff">1</text>
</a>
</g>
</g>
<!-- dir_40abd7a594df616d50dde180fc5f96ed&#45;&gt;dir_8f3de2ae926fecfe6abd5379fd2b6eb1 -->
<g id="edge14" class="edge">
<title>dir_40abd7a594df616d50dde180fc5f96ed&#45;&gt;dir_8f3de2ae926fecfe6abd5379fd2b6eb1</title>
<g id="a_edge14"><a xlink:href="dir_000074_000045.html" target="_top">
<path fill="none" stroke="#63b8ff" d="M318.85,-56.71C305.67,-48.53 286.34,-36.53 271.05,-27.04"/>
<polygon fill="#63b8ff" stroke="#63b8ff" points="273.32,-24.33 262.98,-22.03 269.63,-30.28 273.32,-24.33"/>
</a>
</g>
<g id="a_edge14&#45;headlabel"><a xlink:href="dir_000074_000045.html" target="_top" xlink:title="2">
<text xml:space="preserve" text-anchor="middle" x="276.58" y="-19.52" font-family="Helvetica,sans-Serif" font-size="10.00" fill="#63b8ff">2</text>
</a>
</g>
</g>
</g>
</svg>
