<?xml version="1.0" encoding="UTF-8" standalone="no"?>
<!DOCTYPE svg PUBLIC "-//W3C//DTD SVG 1.1//EN"
 "http://www.w3.org/Graphics/SVG/1.1/DTD/svg11.dtd">
<!-- Generated by graphviz version 13.1.0 (20250701.0955)
 -->
<!-- Title: Graphical Class Hierarchy Pages: 1 -->
<svg width="817pt" height="37pt"
 viewBox="0.00 0.00 817.00 37.00" xmlns="http://www.w3.org/2000/svg" xmlns:xlink="http://www.w3.org/1999/xlink">
<g id="graph0" class="graph" transform="scale(1 1) rotate(0) translate(4 33)">
<title>Graphical Class Hierarchy</title>
<!-- Node0 -->
<g id="Node000000" class="node">
<title>Node0</title>
<g id="a_Node000000"><a xlink:href="de/d0a/class_lib_1_1_h_a_l_1_1_handle.html" target="_top" xlink:title=" ">
<polygon fill="white" stroke="#666666" points="112.75,-29 0,-29 0,0 112.75,0 112.75,-29"/>
<text xml:space="preserve" text-anchor="start" x="8" y="-16.45" font-family="Arial" font-size="9.00">Lib::HAL::Handle&lt; CAN</text>
<text xml:space="preserve" text-anchor="middle" x="56.38" y="-5.95" font-family="Arial" font-size="9.00">_HandleTypeDef &gt;</text>
</a>
</g>
</g>
<!-- Node1 -->
<g id="Node000001" class="node">
<title>Node1</title>
<g id="a_Node000001"><a xlink:href="d8/dc1/class_lib_1_1_h_a_l_1_1_c_a_n_1_1_port_base.html" target="_top" xlink:title="PortBase CAN abstraction base class.">
<polygon fill="white" stroke="#666666" points="266,-23.75 148.75,-23.75 148.75,-5.25 266,-5.25 266,-23.75"/>
<text xml:space="preserve" text-anchor="middle" x="207.38" y="-11.2" font-family="Arial" font-size="9.00">Lib::HAL::CAN::PortBase</text>
</a>
</g>
</g>
<!-- Node0&#45;&gt;Node1 -->
<g id="edge38_Node000000_Node000001" class="edge">
<title>Node0&#45;&gt;Node1</title>
<g id="a_edge38_Node000000_Node000001"><a xlink:title=" ">
<path fill="none" stroke="darkgreen" d="M124.15,-14.5C132.22,-14.5 140.42,-14.5 148.35,-14.5"/>
<polygon fill="darkgreen" stroke="darkgreen" points="124.37,-11 114.37,-14.5 124.37,-18 124.37,-11"/>
</a>
</g>
</g>
<!-- Node2 -->
<g id="Node000002" class="node">
<title>Node2</title>
<g id="a_Node000002"><a xlink:href="d1/db0/class_lib_1_1_h_a_l_1_1_c_a_n_1_1_port.html" target="_top" xlink:title="CAN port class for managing CAN communication.">
<polygon fill="white" stroke="#666666" points="398.25,-23.75 302,-23.75 302,-5.25 398.25,-5.25 398.25,-23.75"/>
<text xml:space="preserve" text-anchor="middle" x="350.12" y="-11.2" font-family="Arial" font-size="9.00">Lib::HAL::CAN::Port</text>
</a>
</g>
</g>
<!-- Node1&#45;&gt;Node2 -->
<g id="edge39_Node000001_Node000002" class="edge">
<title>Node1&#45;&gt;Node2</title>
<g id="a_edge39_Node000001_Node000002"><a xlink:title=" ">
<path fill="none" stroke="#63b8ff" d="M277.89,-14.5C286.03,-14.5 294.19,-14.5 301.92,-14.5"/>
<polygon fill="#63b8ff" stroke="#63b8ff" points="277.95,-11 267.95,-14.5 277.95,-18 277.95,-11"/>
</a>
</g>
</g>
<!-- Node3 -->
<g id="Node000003" class="node">
<title>Node3</title>
<g id="a_Node000003"><a xlink:href="d6/d56/class_lib_1_1_canbus_1_1_service_base.html" target="_top" xlink:title=" ">
<polygon fill="white" stroke="#666666" points="556,-23.75 434.25,-23.75 434.25,-5.25 556,-5.25 556,-23.75"/>
<text xml:space="preserve" text-anchor="middle" x="495.12" y="-11.2" font-family="Arial" font-size="9.00">Lib::Canbus::ServiceBase</text>
</a>
</g>
</g>
<!-- Node2&#45;&gt;Node3 -->
<g id="edge40_Node000002_Node000003" class="edge">
<title>Node2&#45;&gt;Node3</title>
<g id="a_edge40_Node000002_Node000003"><a xlink:title=" ">
<path fill="none" stroke="#63b8ff" d="M410.1,-14.5C417.99,-14.5 426.09,-14.5 434,-14.5"/>
<polygon fill="#63b8ff" stroke="#63b8ff" points="410.26,-11 400.26,-14.5 410.26,-18 410.26,-11"/>
</a>
</g>
</g>
<!-- Node4 -->
<g id="Node000004" class="node">
<title>Node4</title>
<g id="a_Node000004"><a xlink:title=" ">
<polygon fill="#e0e0e0" stroke="#999999" points="692.75,-29 592,-29 592,0 692.75,0 692.75,-29"/>
<text xml:space="preserve" text-anchor="start" x="600" y="-16.45" font-family="Arial" font-size="9.00">Lib::Canbus::Service</text>
<text xml:space="preserve" text-anchor="middle" x="642.38" y="-5.95" font-family="Arial" font-size="9.00">&lt; Mode::SERVER &gt;</text>
</a>
</g>
</g>
<!-- Node3&#45;&gt;Node4 -->
<g id="edge41_Node000003_Node000004" class="edge">
<title>Node3&#45;&gt;Node4</title>
<g id="a_edge41_Node000003_Node000004"><a xlink:title=" ">
<path fill="none" stroke="darkgreen" d="M567.79,-14.5C575.84,-14.5 583.9,-14.5 591.59,-14.5"/>
<polygon fill="darkgreen" stroke="darkgreen" points="567.98,-11 557.98,-14.5 567.98,-18 567.98,-11"/>
</a>
</g>
</g>
<!-- Node5 -->
<g id="Node000005" class="node">
<title>Node5</title>
<g id="a_Node000005"><a xlink:href="d1/d2d/class_canbus_1_1_server.html" target="_top" xlink:title="CAN bus server node manager.">
<polygon fill="white" stroke="#666666" points="808.5,-23.75 728.75,-23.75 728.75,-5.25 808.5,-5.25 808.5,-23.75"/>
<text xml:space="preserve" text-anchor="middle" x="768.62" y="-11.2" font-family="Arial" font-size="9.00">Canbus::Server</text>
</a>
</g>
</g>
<!-- Node4&#45;&gt;Node5 -->
<g id="edge42_Node000004_Node000005" class="edge">
<title>Node4&#45;&gt;Node5</title>
<g id="a_edge42_Node000004_Node000005"><a xlink:title=" ">
<path fill="none" stroke="#63b8ff" d="M704.61,-14.5C712.74,-14.5 720.89,-14.5 728.5,-14.5"/>
<polygon fill="#63b8ff" stroke="#63b8ff" points="704.71,-11 694.71,-14.5 704.71,-18 704.71,-11"/>
</a>
</g>
</g>
</g>
</svg>
