<?xml version="1.0" encoding="UTF-8" standalone="no"?>
<!DOCTYPE svg PUBLIC "-//W3C//DTD SVG 1.1//EN"
 "http://www.w3.org/Graphics/SVG/1.1/DTD/svg11.dtd">
<!-- Generated by graphviz version 13.1.0 (20250701.0955)
 -->
<!-- Title: Graphical Class Hierarchy Pages: 1 -->
<svg width="240pt" height="64pt"
 viewBox="0.00 0.00 240.00 64.00" xmlns="http://www.w3.org/2000/svg" xmlns:xlink="http://www.w3.org/1999/xlink">
<g id="graph0" class="graph" transform="scale(1 1) rotate(0) translate(4 59.5)">
<title>Graphical Class Hierarchy</title>
<!-- Node0 -->
<g id="Node000000" class="node">
<title>Node0</title>
<g id="a_Node000000"><a xlink:href="d0/d0a/a00743.html" target="_top" xlink:title=" ">
<polygon fill="white" stroke="#666666" points="91,-36.5 0,-36.5 0,-18 91,-18 91,-36.5"/>
<text xml:space="preserve" text-anchor="middle" x="45.5" y="-23.95" font-family="Arial" font-size="9.00">ProduceDateBase</text>
</a>
</g>
</g>
<!-- Node1 -->
<g id="Node000001" class="node">
<title>Node1</title>
<g id="a_Node000001"><a xlink:href="d3/d29/a00419.html" target="_top" xlink:title="Production date wrapper for firmware builds.">
<polygon fill="white" stroke="#666666" points="231.5,-55.5 127,-55.5 127,-37 231.5,-37 231.5,-55.5"/>
<text xml:space="preserve" text-anchor="middle" x="179.25" y="-42.95" font-family="Arial" font-size="9.00">System::ProduceDate</text>
</a>
</g>
</g>
<!-- Node0&#45;&gt;Node1 -->
<g id="edge23_Node000000_Node000001" class="edge">
<title>Node0&#45;&gt;Node1</title>
<g id="a_edge23_Node000000_Node000001"><a xlink:title=" ">
<path fill="none" stroke="#63b8ff" d="M102.59,-35.34C110.59,-36.49 118.78,-37.67 126.68,-38.81"/>
<polygon fill="#63b8ff" stroke="#63b8ff" points="103.37,-31.91 92.97,-33.95 102.37,-38.84 103.37,-31.91"/>
</a>
</g>
</g>
<!-- Node2 -->
<g id="Node000002" class="node">
<title>Node2</title>
<g id="a_Node000002"><a xlink:href="d1/d05/a00423.html" target="_top" xlink:title="SaleDate type for product sale date representation.">
<polygon fill="white" stroke="#666666" points="223.62,-18.5 134.88,-18.5 134.88,0 223.62,0 223.62,-18.5"/>
<text xml:space="preserve" text-anchor="middle" x="179.25" y="-5.95" font-family="Arial" font-size="9.00">System::SaleDate</text>
</a>
</g>
</g>
<!-- Node0&#45;&gt;Node2 -->
<g id="edge24_Node000000_Node000002" class="edge">
<title>Node0&#45;&gt;Node2</title>
<g id="a_edge24_Node000000_Node000002"><a xlink:title=" ">
<path fill="none" stroke="#63b8ff" d="M102.54,-19.59C113.34,-18.12 124.49,-16.59 134.82,-15.18"/>
<polygon fill="#63b8ff" stroke="#63b8ff" points="102.41,-16.08 92.97,-20.9 103.35,-23.01 102.41,-16.08"/>
</a>
</g>
</g>
</g>
</svg>
