<?xml version="1.0" encoding="UTF-8" standalone="no"?>
<!DOCTYPE svg PUBLIC "-//W3C//DTD SVG 1.1//EN"
 "http://www.w3.org/Graphics/SVG/1.1/DTD/svg11.dtd">
<!-- Generated by graphviz version 13.1.0 (20250701.0955)
 -->
<!-- Title: Graphical Class Hierarchy Pages: 1 -->
<svg width="267pt" height="138pt"
 viewBox="0.00 0.00 267.00 138.00" xmlns="http://www.w3.org/2000/svg" xmlns:xlink="http://www.w3.org/1999/xlink">
<g id="graph0" class="graph" transform="scale(1 1) rotate(0) translate(4 133.5)">
<title>Graphical Class Hierarchy</title>
<!-- Node0 -->
<g id="Node000000" class="node">
<title>Node0</title>
<g id="a_Node000000"><a xlink:href="d9/d69/a00451.html" target="_top" xlink:title="Listener interface for CAN bus node events.">
<polygon fill="white" stroke="#666666" points="116.88,-129.5 5.62,-129.5 5.62,-111 116.88,-111 116.88,-129.5"/>
<text xml:space="preserve" text-anchor="middle" x="61.25" y="-116.95" font-family="Arial" font-size="9.00">ModelCanbus::Listener</text>
</a>
</g>
</g>
<!-- Node1 -->
<g id="Node000001" class="node">
<title>Node1</title>
<g id="a_Node000001"><a xlink:href="d0/dc4/a00443.html" target="_top" xlink:title="Listener interface for ModelBase.">
<polygon fill="white" stroke="#666666" points="258.5,-73.5 158.5,-73.5 158.5,-55 258.5,-55 258.5,-73.5"/>
<text xml:space="preserve" text-anchor="middle" x="208.5" y="-60.95" font-family="Arial" font-size="9.00">ModelBase::Listener</text>
</a>
</g>
</g>
<!-- Node0&#45;&gt;Node1 -->
<g id="edge19_Node000000_Node000001" class="edge">
<title>Node0&#45;&gt;Node1</title>
<g id="a_edge19_Node000000_Node000001"><a xlink:title=" ">
<path fill="none" stroke="#63b8ff" d="M105.94,-107.07C111.55,-105.2 117.18,-103.24 122.5,-101.25 144.81,-92.9 169.73,-81.84 186.79,-73.99"/>
<polygon fill="#63b8ff" stroke="#63b8ff" points="105.17,-103.64 96.74,-110.05 107.33,-110.3 105.17,-103.64"/>
</a>
</g>
</g>
<!-- Node2 -->
<g id="Node000002" class="node">
<title>Node2</title>
<g id="a_Node000002"><a xlink:href="d7/d5e/a00467.html" target="_top" xlink:title="Listener interface for diagnostic events.">
<polygon fill="white" stroke="#666666" points="122.5,-92.5 0,-92.5 0,-74 122.5,-74 122.5,-92.5"/>
<text xml:space="preserve" text-anchor="middle" x="61.25" y="-79.95" font-family="Arial" font-size="9.00">ModelDiagnostic::Listener</text>
</a>
</g>
</g>
<!-- Node2&#45;&gt;Node1 -->
<g id="edge20_Node000002_Node000001" class="edge">
<title>Node2&#45;&gt;Node1</title>
<g id="a_edge20_Node000002_Node000001"><a xlink:title=" ">
<path fill="none" stroke="#63b8ff" d="M133.79,-73.89C142.04,-72.81 150.3,-71.73 158.17,-70.7"/>
<polygon fill="#63b8ff" stroke="#63b8ff" points="133.55,-70.39 124.09,-75.16 134.46,-77.33 133.55,-70.39"/>
</a>
</g>
</g>
<!-- Node3 -->
<g id="Node000003" class="node">
<title>Node3</title>
<g id="a_Node000003"><a xlink:href="d9/d4a/a00479.html" target="_top" xlink:title="Listener interface for peripheral state changes.">
<polygon fill="white" stroke="#666666" points="122.12,-55.5 0.37,-55.5 0.37,-37 122.12,-37 122.12,-55.5"/>
<text xml:space="preserve" text-anchor="middle" x="61.25" y="-42.95" font-family="Arial" font-size="9.00">ModelPeripheral::Listener</text>
</a>
</g>
</g>
<!-- Node3&#45;&gt;Node1 -->
<g id="edge21_Node000003_Node000001" class="edge">
<title>Node3&#45;&gt;Node1</title>
<g id="a_edge21_Node000003_Node000001"><a xlink:title=" ">
<path fill="none" stroke="#63b8ff" d="M133.79,-55.12C142.04,-56.14 150.3,-57.16 158.17,-58.14"/>
<polygon fill="#63b8ff" stroke="#63b8ff" points="134.44,-51.67 124.09,-53.91 133.58,-58.62 134.44,-51.67"/>
</a>
</g>
</g>
<!-- Node4 -->
<g id="Node000004" class="node">
<title>Node4</title>
<g id="a_Node000004"><a xlink:href="d1/d69/a00507.html" target="_top" xlink:title="Listener class for ModelXbee events.">
<polygon fill="white" stroke="#666666" points="111.62,-18.5 10.88,-18.5 10.88,0 111.62,0 111.62,-18.5"/>
<text xml:space="preserve" text-anchor="middle" x="61.25" y="-5.95" font-family="Arial" font-size="9.00">ModelXbee::Listener</text>
</a>
</g>
</g>
<!-- Node4&#45;&gt;Node1 -->
<g id="edge22_Node000004_Node000001" class="edge">
<title>Node4&#45;&gt;Node1</title>
<g id="a_edge22_Node000004_Node000001"><a xlink:title=" ">
<path fill="none" stroke="#63b8ff" d="M105.73,-22.42C111.4,-24.29 117.11,-26.26 122.5,-28.25 144.45,-36.34 169.01,-46.91 186.07,-54.5"/>
<polygon fill="#63b8ff" stroke="#63b8ff" points="106.99,-19.15 96.4,-19.41 104.84,-25.81 106.99,-19.15"/>
</a>
</g>
</g>
</g>
</svg>
