<?xml version="1.0" encoding="UTF-8" standalone="no"?>
<!DOCTYPE svg PUBLIC "-//W3C//DTD SVG 1.1//EN"
 "http://www.w3.org/Graphics/SVG/1.1/DTD/svg11.dtd">
<!-- Generated by graphviz version 13.1.0 (20250701.0955)
 -->
<!-- Title: Graphical Class Hierarchy Pages: 1 -->
<svg width="271pt" height="84pt"
 viewBox="0.00 0.00 271.00 84.00" xmlns="http://www.w3.org/2000/svg" xmlns:xlink="http://www.w3.org/1999/xlink">
<g id="graph0" class="graph" transform="scale(1 1) rotate(0) translate(4 80)">
<title>Graphical Class Hierarchy</title>
<!-- Node0 -->
<g id="Node000000" class="node">
<title>Node0</title>
<g id="a_Node000000"><a xlink:href="d1/d8d/class_lib_1_1_b_s_p_1_1_e_e_p_r_o_m_1_1_i2_c_1_1_driver_base.html" target="_top" xlink:title="DriverBase base class for I2C EEPROM drivers.">
<polygon fill="white" stroke="#666666" points="113.5,-52 0,-52 0,-23 113.5,-23 113.5,-52"/>
<text xml:space="preserve" text-anchor="start" x="8" y="-39.45" font-family="Arial" font-size="9.00">Lib::BSP::EEPROM::I2C</text>
<text xml:space="preserve" text-anchor="middle" x="56.75" y="-28.95" font-family="Arial" font-size="9.00">::DriverBase</text>
</a>
</g>
</g>
<!-- Node1 -->
<g id="Node000001" class="node">
<title>Node1</title>
<g id="a_Node000001"><a xlink:href="d0/da4/class_lib_1_1_b_s_p_1_1_e_e_p_r_o_m_1_1_i2_c_1_1_m24_c16.html" target="_top" xlink:title="M24C16 I2C EEPROM driver.">
<polygon fill="white" stroke="#666666" points="263,-76 149.5,-76 149.5,-47 263,-47 263,-76"/>
<text xml:space="preserve" text-anchor="start" x="157.5" y="-63.45" font-family="Arial" font-size="9.00">Lib::BSP::EEPROM::I2C</text>
<text xml:space="preserve" text-anchor="middle" x="206.25" y="-52.95" font-family="Arial" font-size="9.00">::M24C16</text>
</a>
</g>
</g>
<!-- Node0&#45;&gt;Node1 -->
<g id="edge20_Node000000_Node000001" class="edge">
<title>Node0&#45;&gt;Node1</title>
<g id="a_edge20_Node000000_Node000001"><a xlink:title=" ">
<path fill="none" stroke="#63b8ff" d="M125.19,-48.47C133.23,-49.78 141.37,-51.11 149.22,-52.38"/>
<polygon fill="#63b8ff" stroke="#63b8ff" points="125.86,-45.04 115.43,-46.88 124.74,-51.95 125.86,-45.04"/>
</a>
</g>
</g>
<!-- Node2 -->
<g id="Node000002" class="node">
<title>Node2</title>
<g id="a_Node000002"><a xlink:href="d0/d06/class_lib_1_1_b_s_p_1_1_e_e_p_r_o_m_1_1_i2_c_1_1_m24_c64_w.html" target="_top" xlink:title="M24C64W I2C EEPROM driver.">
<polygon fill="white" stroke="#666666" points="263,-29 149.5,-29 149.5,0 263,0 263,-29"/>
<text xml:space="preserve" text-anchor="start" x="157.5" y="-16.45" font-family="Arial" font-size="9.00">Lib::BSP::EEPROM::I2C</text>
<text xml:space="preserve" text-anchor="middle" x="206.25" y="-5.95" font-family="Arial" font-size="9.00">::M24C64W</text>
</a>
</g>
</g>
<!-- Node0&#45;&gt;Node2 -->
<g id="edge21_Node000000_Node000002" class="edge">
<title>Node0&#45;&gt;Node2</title>
<g id="a_edge21_Node000000_Node000002"><a xlink:title=" ">
<path fill="none" stroke="#63b8ff" d="M125.19,-26.98C133.23,-25.73 141.37,-24.46 149.22,-23.24"/>
<polygon fill="#63b8ff" stroke="#63b8ff" points="124.77,-23.51 115.43,-28.51 125.85,-30.42 124.77,-23.51"/>
</a>
</g>
</g>
</g>
</svg>
