<?xml version="1.0" encoding="UTF-8" standalone="no"?>
<!DOCTYPE svg PUBLIC "-//W3C//DTD SVG 1.1//EN"
 "http://www.w3.org/Graphics/SVG/1.1/DTD/svg11.dtd">
<!-- Generated by graphviz version 13.1.0 (20250701.0955)
 -->
<!-- Title: Graphical Class Hierarchy Pages: 1 -->
<svg width="306pt" height="84pt"
 viewBox="0.00 0.00 306.00 84.00" xmlns="http://www.w3.org/2000/svg" xmlns:xlink="http://www.w3.org/1999/xlink">
<g id="graph0" class="graph" transform="scale(1 1) rotate(0) translate(4 80)">
<title>Graphical Class Hierarchy</title>
<!-- Node0 -->
<g id="Node000000" class="node">
<title>Node0</title>
<g id="a_Node000000"><a xlink:href="d7/def/a01538.html" target="_top" xlink:title=" ">
<polygon fill="white" stroke="#666666" points="133.75,-76 0,-76 0,-57.5 133.75,-57.5 133.75,-76"/>
<text xml:space="preserve" text-anchor="middle" x="66.88" y="-63.45" font-family="Arial" font-size="9.00">Lib::HAL::Handle&lt; uint16_t &gt;</text>
</a>
</g>
</g>
<!-- Node1 -->
<g id="Node000001" class="node">
<title>Node1</title>
<g id="a_Node000001"><a xlink:href="d8/daf/a01550.html" target="_top" xlink:title="External interrupt GPIO abstraction.">
<polygon fill="white" stroke="#666666" points="298.25,-52 169.75,-52 169.75,-33.5 298.25,-33.5 298.25,-52"/>
<text xml:space="preserve" text-anchor="middle" x="234" y="-39.45" font-family="Arial" font-size="9.00">Lib::HAL::GPIO::ExtInterrupt</text>
</a>
</g>
</g>
<!-- Node0&#45;&gt;Node1 -->
<g id="edge52_Node000000_Node000001" class="edge">
<title>Node0&#45;&gt;Node1</title>
<g id="a_edge52_Node000000_Node000001"><a xlink:title=" ">
<path fill="none" stroke="#8b1a1a" d="M145.4,-55.48C153.46,-54.31 161.58,-53.13 169.46,-51.99"/>
<polygon fill="#8b1a1a" stroke="#8b1a1a" points="144.98,-52.01 135.58,-56.91 145.98,-58.93 144.98,-52.01"/>
</a>
</g>
</g>
<!-- Node2 -->
<g id="Node000002" class="node">
<title>Node2</title>
<g id="a_Node000002"><a xlink:href="d9/da1/a01546.html" target="_top" xlink:title=" ">
<polygon fill="white" stroke="#666666" points="121.75,-39.5 12,-39.5 12,0 121.75,0 121.75,-39.5"/>
<text xml:space="preserve" text-anchor="start" x="20" y="-26.95" font-family="Arial" font-size="9.00">Lib::HAL::GPIO::Pin</text>
<text xml:space="preserve" text-anchor="start" x="20" y="-16.45" font-family="Arial" font-size="9.00">&lt; Lib::HAL::GPIO::Type</text>
<text xml:space="preserve" text-anchor="middle" x="66.88" y="-5.95" font-family="Arial" font-size="9.00">::INPUT &gt;</text>
</a>
</g>
</g>
<!-- Node2&#45;&gt;Node1 -->
<g id="edge53_Node000002_Node000001" class="edge">
<title>Node2&#45;&gt;Node1</title>
<g id="a_edge53_Node000002_Node000001"><a xlink:title=" ">
<path fill="none" stroke="#8b1a1a" d="M133.17,-28.84C145.07,-30.5 157.48,-32.23 169.33,-33.88"/>
<polygon fill="#8b1a1a" stroke="#8b1a1a" points="133.83,-25.4 123.44,-27.49 132.86,-32.34 133.83,-25.4"/>
</a>
</g>
</g>
</g>
</svg>
