<?xml version="1.0" encoding="UTF-8" standalone="no"?>
<!DOCTYPE svg PUBLIC "-//W3C//DTD SVG 1.1//EN"
 "http://www.w3.org/Graphics/SVG/1.1/DTD/svg11.dtd">
<!-- Generated by graphviz version 13.1.0 (20250701.0955)
 -->
<!-- Title: Graphical Class Hierarchy Pages: 1 -->
<svg width="866pt" height="40pt"
 viewBox="0.00 0.00 866.00 40.00" xmlns="http://www.w3.org/2000/svg" xmlns:xlink="http://www.w3.org/1999/xlink">
<g id="graph0" class="graph" transform="scale(1 1) rotate(0) translate(4 36)">
<title>Graphical Class Hierarchy</title>
<!-- Node0 -->
<g id="Node000000" class="node">
<title>Node0</title>
<g id="a_Node000000"><a xlink:href="de/d0a/class_lib_1_1_h_a_l_1_1_handle.html" target="_top" xlink:title=" ">
<polygon fill="white" stroke="#666666" points="121.75,-32 0,-32 0,0 121.75,0 121.75,-32"/>
<text xml:space="preserve" text-anchor="start" x="8" y="-18.5" font-family="Helvetica,sans-Serif" font-size="10.00">Lib::HAL::Handle&lt; CAN</text>
<text xml:space="preserve" text-anchor="middle" x="60.88" y="-6.5" font-family="Helvetica,sans-Serif" font-size="10.00">_HandleTypeDef &gt;</text>
</a>
</g>
</g>
<!-- Node1 -->
<g id="Node000001" class="node">
<title>Node1</title>
<g id="a_Node000001"><a xlink:href="d8/dc1/class_lib_1_1_h_a_l_1_1_c_a_n_1_1_port_base.html" target="_top" xlink:title="CAN port base class.">
<polygon fill="white" stroke="#666666" points="286.25,-26 157.75,-26 157.75,-6 286.25,-6 286.25,-26"/>
<text xml:space="preserve" text-anchor="middle" x="222" y="-12.5" font-family="Helvetica,sans-Serif" font-size="10.00">Lib::HAL::CAN::PortBase</text>
</a>
</g>
</g>
<!-- Node0&#45;&gt;Node1 -->
<g id="edge38_Node000000_Node000001" class="edge">
<title>Node0&#45;&gt;Node1</title>
<g id="a_edge38_Node000000_Node000001"><a xlink:title=" ">
<path fill="none" stroke="darkgreen" d="M133.53,-16C141.46,-16 149.49,-16 157.31,-16"/>
<polygon fill="darkgreen" stroke="darkgreen" points="133.55,-12.5 123.55,-16 133.55,-19.5 133.55,-12.5"/>
</a>
</g>
</g>
<!-- Node2 -->
<g id="Node000002" class="node">
<title>Node2</title>
<g id="a_Node000002"><a xlink:href="d1/db0/class_lib_1_1_h_a_l_1_1_c_a_n_1_1_port.html" target="_top" xlink:title="CAN port class.">
<polygon fill="white" stroke="#666666" points="428.25,-26 322.25,-26 322.25,-6 428.25,-6 428.25,-26"/>
<text xml:space="preserve" text-anchor="middle" x="375.25" y="-12.5" font-family="Helvetica,sans-Serif" font-size="10.00">Lib::HAL::CAN::Port</text>
</a>
</g>
</g>
<!-- Node1&#45;&gt;Node2 -->
<g id="edge39_Node000001_Node000002" class="edge">
<title>Node1&#45;&gt;Node2</title>
<g id="a_edge39_Node000001_Node000002"><a xlink:title=" ">
<path fill="none" stroke="#63b8ff" d="M298.11,-16C306.22,-16 314.33,-16 322.07,-16"/>
<polygon fill="#63b8ff" stroke="#63b8ff" points="298.22,-12.5 288.22,-16 298.22,-19.5 298.22,-12.5"/>
</a>
</g>
</g>
<!-- Node3 -->
<g id="Node000003" class="node">
<title>Node3</title>
<g id="a_Node000003"><a xlink:href="d6/d56/class_lib_1_1_canbus_1_1_service_base.html" target="_top" xlink:title="Base class for CAN bus service abstraction.">
<polygon fill="white" stroke="#666666" points="594.25,-26 464.25,-26 464.25,-6 594.25,-6 594.25,-26"/>
<text xml:space="preserve" text-anchor="middle" x="529.25" y="-12.5" font-family="Helvetica,sans-Serif" font-size="10.00">Lib::Canbus::ServiceBase</text>
</a>
</g>
</g>
<!-- Node2&#45;&gt;Node3 -->
<g id="edge40_Node000002_Node000003" class="edge">
<title>Node2&#45;&gt;Node3</title>
<g id="a_edge40_Node000002_Node000003"><a xlink:title=" ">
<path fill="none" stroke="#63b8ff" d="M439.93,-16C447.81,-16 455.86,-16 463.75,-16"/>
<polygon fill="#63b8ff" stroke="#63b8ff" points="440.07,-12.5 430.07,-16 440.07,-19.5 440.07,-12.5"/>
</a>
</g>
</g>
<!-- Node4 -->
<g id="Node000004" class="node">
<title>Node4</title>
<g id="a_Node000004"><a xlink:title=" ">
<polygon fill="#e0e0e0" stroke="#999999" points="737.75,-32 630.25,-32 630.25,0 737.75,0 737.75,-32"/>
<text xml:space="preserve" text-anchor="start" x="638.25" y="-18.5" font-family="Helvetica,sans-Serif" font-size="10.00">Lib::Canbus::Service</text>
<text xml:space="preserve" text-anchor="middle" x="684" y="-6.5" font-family="Helvetica,sans-Serif" font-size="10.00">&lt; Mode::SERVER &gt;</text>
</a>
</g>
</g>
<!-- Node3&#45;&gt;Node4 -->
<g id="edge41_Node000003_Node000004" class="edge">
<title>Node3&#45;&gt;Node4</title>
<g id="a_edge41_Node000003_Node000004"><a xlink:title=" ">
<path fill="none" stroke="darkgreen" d="M605.95,-16C614.02,-16 622.1,-16 629.83,-16"/>
<polygon fill="darkgreen" stroke="darkgreen" points="606.1,-12.5 596.1,-16 606.1,-19.5 606.1,-12.5"/>
</a>
</g>
</g>
<!-- Node5 -->
<g id="Node000005" class="node">
<title>Node5</title>
<g id="a_Node000005"><a xlink:href="d1/d2d/class_canbus_1_1_server.html" target="_top" xlink:title="CAN bus server node manager for STM32 platforms.">
<polygon fill="white" stroke="#666666" points="858,-26 773.75,-26 773.75,-6 858,-6 858,-26"/>
<text xml:space="preserve" text-anchor="middle" x="815.88" y="-12.5" font-family="Helvetica,sans-Serif" font-size="10.00">Canbus::Server</text>
</a>
</g>
</g>
<!-- Node4&#45;&gt;Node5 -->
<g id="edge42_Node000004_Node000005" class="edge">
<title>Node4&#45;&gt;Node5</title>
<g id="a_edge42_Node000004_Node000005"><a xlink:title=" ">
<path fill="none" stroke="#63b8ff" d="M749.62,-16C757.74,-16 765.86,-16 773.49,-16"/>
<polygon fill="#63b8ff" stroke="#63b8ff" points="749.71,-12.5 739.71,-16 749.71,-19.5 749.71,-12.5"/>
</a>
</g>
</g>
</g>
</svg>
