<?xml version="1.0" encoding="UTF-8" standalone="no"?>
<!DOCTYPE svg PUBLIC "-//W3C//DTD SVG 1.1//EN"
 "http://www.w3.org/Graphics/SVG/1.1/DTD/svg11.dtd">
<!-- Generated by graphviz version 13.1.0 (20250701.0955)
 -->
<!-- Title: Graphical Class Hierarchy Pages: 1 -->
<svg width="322pt" height="180pt"
 viewBox="0.00 0.00 322.00 180.00" xmlns="http://www.w3.org/2000/svg" xmlns:xlink="http://www.w3.org/1999/xlink">
<g id="graph0" class="graph" transform="scale(1 1) rotate(0) translate(4 176)">
<title>Graphical Class Hierarchy</title>
<!-- Node0 -->
<g id="Node000000" class="node">
<title>Node0</title>
<g id="a_Node000000"><a xlink:href="dc/daf/class_lib_1_1_xbee_1_1_core_1_1_query_base.html" target="_top" xlink:title="Abstract base class for Xbee send requests.">
<polygon fill="white" stroke="#666666" points="139,-96 0,-96 0,-76 139,-76 139,-96"/>
<text xml:space="preserve" text-anchor="middle" x="69.5" y="-82.5" font-family="Helvetica,sans-Serif" font-size="10.00">Lib::Xbee::Core::QueryBase</text>
</a>
</g>
</g>
<!-- Node1 -->
<g id="Node000001" class="node">
<title>Node1</title>
<g id="a_Node000001"><a xlink:href="d2/dbd/class_lib_1_1_xbee_1_1_core_1_1_frame0x00.html" target="_top" xlink:title="Frame0x00 query builder for Xbee TX Request (64&#45;bit address) frames.">
<polygon fill="white" stroke="#666666" points="314,-172 175,-172 175,-152 314,-152 314,-172"/>
<text xml:space="preserve" text-anchor="middle" x="244.5" y="-158.5" font-family="Helvetica,sans-Serif" font-size="10.00">Lib::Xbee::Core::Frame0x00</text>
</a>
</g>
</g>
<!-- Node0&#45;&gt;Node1 -->
<g id="edge76_Node000000_Node000001" class="edge">
<title>Node0&#45;&gt;Node1</title>
<g id="a_edge76_Node000000_Node000001"><a xlink:title=" ">
<path fill="none" stroke="#63b8ff" d="M96.19,-102.18C116.86,-114.66 146.98,-131.65 175,-143 182.89,-146.2 191.51,-149.05 199.88,-151.52"/>
<polygon fill="#63b8ff" stroke="#63b8ff" points="98.23,-99.32 87.87,-97.08 94.57,-105.29 98.23,-99.32"/>
</a>
</g>
</g>
<!-- Node2 -->
<g id="Node000002" class="node">
<title>Node2</title>
<g id="a_Node000002"><a xlink:href="d6/df5/class_lib_1_1_xbee_1_1_core_1_1_frame0x01.html" target="_top" xlink:title="Frame0x01 query for XBee TX Request (16&#45;bit address).">
<polygon fill="white" stroke="#666666" points="314,-134 175,-134 175,-114 314,-114 314,-134"/>
<text xml:space="preserve" text-anchor="middle" x="244.5" y="-120.5" font-family="Helvetica,sans-Serif" font-size="10.00">Lib::Xbee::Core::Frame0x01</text>
</a>
</g>
</g>
<!-- Node0&#45;&gt;Node2 -->
<g id="edge77_Node000000_Node000002" class="edge">
<title>Node0&#45;&gt;Node2</title>
<g id="a_edge77_Node000000_Node000002"><a xlink:title=" ">
<path fill="none" stroke="#63b8ff" d="M129.31,-98.92C151.02,-103.69 175.33,-109.03 195.92,-113.55"/>
<polygon fill="#63b8ff" stroke="#63b8ff" points="130.23,-95.54 119.71,-96.81 128.73,-102.37 130.23,-95.54"/>
</a>
</g>
</g>
<!-- Node3 -->
<g id="Node000003" class="node">
<title>Node3</title>
<g id="a_Node000003"><a xlink:href="d8/d19/class_lib_1_1_xbee_1_1_core_1_1_frame0x08.html" target="_top" xlink:title="Local AT Command Request frame (0x08) for Xbee API.">
<polygon fill="white" stroke="#666666" points="314,-96 175,-96 175,-76 314,-76 314,-96"/>
<text xml:space="preserve" text-anchor="middle" x="244.5" y="-82.5" font-family="Helvetica,sans-Serif" font-size="10.00">Lib::Xbee::Core::Frame0x08</text>
</a>
</g>
</g>
<!-- Node0&#45;&gt;Node3 -->
<g id="edge78_Node000000_Node000003" class="edge">
<title>Node0&#45;&gt;Node3</title>
<g id="a_edge78_Node000000_Node000003"><a xlink:title=" ">
<path fill="none" stroke="#63b8ff" d="M150.62,-86C158.62,-86 166.7,-86 174.58,-86"/>
<polygon fill="#63b8ff" stroke="#63b8ff" points="150.88,-82.5 140.88,-86 150.88,-89.5 150.88,-82.5"/>
</a>
</g>
</g>
<!-- Node4 -->
<g id="Node000004" class="node">
<title>Node4</title>
<g id="a_Node000004"><a xlink:href="de/d19/class_lib_1_1_xbee_1_1_core_1_1_frame0x09.html" target="_top" xlink:title="Queue Local AT Command Request frame (0x09) for Xbee API.">
<polygon fill="white" stroke="#666666" points="314,-58 175,-58 175,-38 314,-38 314,-58"/>
<text xml:space="preserve" text-anchor="middle" x="244.5" y="-44.5" font-family="Helvetica,sans-Serif" font-size="10.00">Lib::Xbee::Core::Frame0x09</text>
</a>
</g>
</g>
<!-- Node0&#45;&gt;Node4 -->
<g id="edge79_Node000000_Node000004" class="edge">
<title>Node0&#45;&gt;Node4</title>
<g id="a_edge79_Node000000_Node000004"><a xlink:title=" ">
<path fill="none" stroke="#63b8ff" d="M129.31,-73.08C151.02,-68.31 175.33,-62.97 195.92,-58.45"/>
<polygon fill="#63b8ff" stroke="#63b8ff" points="128.73,-69.63 119.71,-75.19 130.23,-76.46 128.73,-69.63"/>
</a>
</g>
</g>
<!-- Node5 -->
<g id="Node000005" class="node">
<title>Node5</title>
<g id="a_Node000005"><a xlink:href="d4/dfb/class_lib_1_1_xbee_1_1_core_1_1_frame0x17.html" target="_top" xlink:title="Remote AT Command Request frame (0x17) for Xbee API.">
<polygon fill="white" stroke="#666666" points="314,-20 175,-20 175,0 314,0 314,-20"/>
<text xml:space="preserve" text-anchor="middle" x="244.5" y="-6.5" font-family="Helvetica,sans-Serif" font-size="10.00">Lib::Xbee::Core::Frame0x17</text>
</a>
</g>
</g>
<!-- Node0&#45;&gt;Node5 -->
<g id="edge80_Node000000_Node000005" class="edge">
<title>Node0&#45;&gt;Node5</title>
<g id="a_edge80_Node000000_Node000005"><a xlink:title=" ">
<path fill="none" stroke="#63b8ff" d="M96.19,-69.82C116.86,-57.34 146.98,-40.35 175,-29 182.89,-25.8 191.51,-22.95 199.88,-20.48"/>
<polygon fill="#63b8ff" stroke="#63b8ff" points="94.57,-66.71 87.87,-74.92 98.23,-72.68 94.57,-66.71"/>
</a>
</g>
</g>
</g>
</svg>
