<?xml version="1.0" encoding="UTF-8" standalone="no"?>
<!DOCTYPE svg PUBLIC "-//W3C//DTD SVG 1.1//EN"
 "http://www.w3.org/Graphics/SVG/1.1/DTD/svg11.dtd">
<!-- Generated by graphviz version 13.1.0 (20250701.0955)
 -->
<!-- Title: Graphical Class Hierarchy Pages: 1 -->
<svg width="416pt" height="115pt"
 viewBox="0.00 0.00 416.00 115.00" xmlns="http://www.w3.org/2000/svg" xmlns:xlink="http://www.w3.org/1999/xlink">
<g id="graph0" class="graph" transform="scale(1 1) rotate(0) translate(4 111)">
<title>Graphical Class Hierarchy</title>
<!-- Node0 -->
<g id="Node000000" class="node">
<title>Node0</title>
<g id="a_Node000000"><a xlink:href="d9/d7d/class_lib_1_1_h_a_l_1_1_i2_c_1_1_master_1_1_base.html" target="_top" xlink:title="Abstract base class for I2C master operations.">
<polygon fill="white" stroke="#666666" points="112,-82 0,-82 0,-50 112,-50 112,-82"/>
<text xml:space="preserve" text-anchor="start" x="8" y="-68.5" font-family="Helvetica,sans-Serif" font-size="10.00">Lib::HAL::I2C::Master</text>
<text xml:space="preserve" text-anchor="middle" x="56" y="-56.5" font-family="Helvetica,sans-Serif" font-size="10.00">::Base</text>
</a>
</g>
</g>
<!-- Node1 -->
<g id="Node000001" class="node">
<title>Node1</title>
<g id="a_Node000001"><a xlink:href="d6/dd8/class_lib_1_1_h_a_l_1_1_i2_c_1_1_master_1_1_port_3_01_b_l_o_c_k_01_4.html" target="_top" xlink:title="I2C master port block mode specialization.">
<polygon fill="white" stroke="#666666" points="260,-107 148,-107 148,-75 260,-75 260,-107"/>
<text xml:space="preserve" text-anchor="start" x="156" y="-93.5" font-family="Helvetica,sans-Serif" font-size="10.00">Lib::HAL::I2C::Master</text>
<text xml:space="preserve" text-anchor="middle" x="204" y="-81.5" font-family="Helvetica,sans-Serif" font-size="10.00">::Port&lt; BLOCK &gt;</text>
</a>
</g>
</g>
<!-- Node0&#45;&gt;Node1 -->
<g id="edge54_Node000000_Node000001" class="edge">
<title>Node0&#45;&gt;Node1</title>
<g id="a_edge54_Node000000_Node000001"><a xlink:title=" ">
<path fill="none" stroke="#63b8ff" d="M123.53,-77.39C131.62,-78.78 139.82,-80.18 147.73,-81.54"/>
<polygon fill="#63b8ff" stroke="#63b8ff" points="124.14,-73.94 113.69,-75.71 122.95,-80.84 124.14,-73.94"/>
</a>
</g>
</g>
<!-- Node2 -->
<g id="Node000002" class="node">
<title>Node2</title>
<g id="a_Node000002"><a xlink:href="d4/d56/class_lib_1_1_h_a_l_1_1_i2_c_1_1_master_1_1_transperent_base.html" target="_top" xlink:title="Transparent I2C master communication base class.">
<polygon fill="white" stroke="#666666" points="260,-57 148,-57 148,-25 260,-25 260,-57"/>
<text xml:space="preserve" text-anchor="start" x="156" y="-43.5" font-family="Helvetica,sans-Serif" font-size="10.00">Lib::HAL::I2C::Master</text>
<text xml:space="preserve" text-anchor="middle" x="204" y="-31.5" font-family="Helvetica,sans-Serif" font-size="10.00">::TransperentBase</text>
</a>
</g>
</g>
<!-- Node0&#45;&gt;Node2 -->
<g id="edge55_Node000000_Node000002" class="edge">
<title>Node0&#45;&gt;Node2</title>
<g id="a_edge55_Node000000_Node000002"><a xlink:title=" ">
<path fill="none" stroke="darkgreen" d="M123.53,-54.61C131.62,-53.22 139.82,-51.82 147.73,-50.46"/>
<polygon fill="darkgreen" stroke="darkgreen" points="122.95,-51.16 113.69,-56.29 124.14,-58.06 122.95,-51.16"/>
</a>
</g>
</g>
<!-- Node3 -->
<g id="Node000003" class="node">
<title>Node3</title>
<g id="a_Node000003"><a xlink:href="d8/d7d/class_lib_1_1_h_a_l_1_1_i2_c_1_1_master_1_1_port_3_01_d_m_a_01_4.html" target="_top" xlink:title="I2C DMA Mode class.">
<polygon fill="white" stroke="#666666" points="408,-82 296,-82 296,-50 408,-50 408,-82"/>
<text xml:space="preserve" text-anchor="start" x="304" y="-68.5" font-family="Helvetica,sans-Serif" font-size="10.00">Lib::HAL::I2C::Master</text>
<text xml:space="preserve" text-anchor="middle" x="352" y="-56.5" font-family="Helvetica,sans-Serif" font-size="10.00">::Port&lt; DMA &gt;</text>
</a>
</g>
</g>
<!-- Node2&#45;&gt;Node3 -->
<g id="edge56_Node000002_Node000003" class="edge">
<title>Node2&#45;&gt;Node3</title>
<g id="a_edge56_Node000002_Node000003"><a xlink:title=" ">
<path fill="none" stroke="#63b8ff" d="M271.53,-52.39C279.62,-53.78 287.82,-55.18 295.73,-56.54"/>
<polygon fill="#63b8ff" stroke="#63b8ff" points="272.14,-48.94 261.69,-50.71 270.95,-55.84 272.14,-48.94"/>
</a>
</g>
</g>
<!-- Node4 -->
<g id="Node000004" class="node">
<title>Node4</title>
<g id="a_Node000004"><a xlink:href="df/d3a/class_lib_1_1_h_a_l_1_1_i2_c_1_1_master_1_1_port_3_01_i_t_01_4.html" target="_top" xlink:title="I2C Master Interrupt Mode class.">
<polygon fill="white" stroke="#666666" points="408,-32 296,-32 296,0 408,0 408,-32"/>
<text xml:space="preserve" text-anchor="start" x="304" y="-18.5" font-family="Helvetica,sans-Serif" font-size="10.00">Lib::HAL::I2C::Master</text>
<text xml:space="preserve" text-anchor="middle" x="352" y="-6.5" font-family="Helvetica,sans-Serif" font-size="10.00">::Port&lt; IT &gt;</text>
</a>
</g>
</g>
<!-- Node2&#45;&gt;Node4 -->
<g id="edge57_Node000002_Node000004" class="edge">
<title>Node2&#45;&gt;Node4</title>
<g id="a_edge57_Node000002_Node000004"><a xlink:title=" ">
<path fill="none" stroke="#63b8ff" d="M271.53,-29.61C279.62,-28.22 287.82,-26.82 295.73,-25.46"/>
<polygon fill="#63b8ff" stroke="#63b8ff" points="270.95,-26.16 261.69,-31.29 272.14,-33.06 270.95,-26.16"/>
</a>
</g>
</g>
</g>
</svg>
