<?xml version="1.0" encoding="UTF-8" standalone="no"?>
<!DOCTYPE svg PUBLIC "-//W3C//DTD SVG 1.1//EN"
 "http://www.w3.org/Graphics/SVG/1.1/DTD/svg11.dtd">
<!-- Generated by graphviz version 13.1.0 (20250701.0955)
 -->
<!-- Title: Graphical Class Hierarchy Pages: 1 -->
<svg width="242pt" height="64pt"
 viewBox="0.00 0.00 242.00 64.00" xmlns="http://www.w3.org/2000/svg" xmlns:xlink="http://www.w3.org/1999/xlink">
<g id="graph0" class="graph" transform="scale(1 1) rotate(0) translate(4 59.5)">
<title>Graphical Class Hierarchy</title>
<!-- Node0 -->
<g id="Node000000" class="node">
<title>Node0</title>
<g id="a_Node000000"><a xlink:title=" ">
<polygon fill="#e0e0e0" stroke="#999999" points="127.38,-55.5 4.12,-55.5 4.12,-37 127.38,-37 127.38,-55.5"/>
<text xml:space="preserve" text-anchor="middle" x="65.75" y="-42.95" font-family="Arial" font-size="9.00">Lib::Xbee::API::ClientBase</text>
</a>
</g>
</g>
<!-- Node1 -->
<g id="Node000001" class="node">
<title>Node1</title>
<g id="a_Node000001"><a xlink:href="d3/daf/class_xbee_1_1_client.html" target="_top" xlink:title="Xbee wireless communication client for embedded firmware applications.">
<polygon fill="white" stroke="#666666" points="233.75,-36.5 167.5,-36.5 167.5,-18 233.75,-18 233.75,-36.5"/>
<text xml:space="preserve" text-anchor="middle" x="200.62" y="-23.95" font-family="Arial" font-size="9.00">Xbee::Client</text>
</a>
</g>
</g>
<!-- Node0&#45;&gt;Node1 -->
<g id="edge15_Node000000_Node000001" class="edge">
<title>Node0&#45;&gt;Node1</title>
<g id="a_edge15_Node000000_Node000001"><a xlink:title=" ">
<path fill="none" stroke="#63b8ff" d="M138.96,-35.92C148.87,-34.51 158.61,-33.12 167.28,-31.88"/>
<polygon fill="#63b8ff" stroke="#63b8ff" points="138.65,-32.43 129.24,-37.31 139.64,-39.36 138.65,-32.43"/>
</a>
</g>
</g>
<!-- Node2 -->
<g id="Node000002" class="node">
<title>Node2</title>
<g id="a_Node000002"><a xlink:href="dc/db4/class_lib_1_1_xbee_1_1_a_p_i_1_1_user_protocol.html" target="_top" xlink:title=" ">
<polygon fill="white" stroke="#666666" points="131.5,-18.5 0,-18.5 0,0 131.5,0 131.5,-18.5"/>
<text xml:space="preserve" text-anchor="middle" x="65.75" y="-5.95" font-family="Arial" font-size="9.00">Lib::Xbee::API::UserProtocol</text>
</a>
</g>
</g>
<!-- Node2&#45;&gt;Node1 -->
<g id="edge16_Node000002_Node000001" class="edge">
<title>Node2&#45;&gt;Node1</title>
<g id="a_edge16_Node000002_Node000001"><a xlink:title=" ">
<path fill="none" stroke="#63b8ff" d="M142.92,-19.57C151.45,-20.72 159.77,-21.85 167.28,-22.87"/>
<polygon fill="#63b8ff" stroke="#63b8ff" points="143.51,-16.12 133.13,-18.24 142.57,-23.05 143.51,-16.12"/>
</a>
</g>
</g>
</g>
</svg>
