<?xml version="1.0" encoding="UTF-8" standalone="no"?>
<!DOCTYPE svg PUBLIC "-//W3C//DTD SVG 1.1//EN"
 "http://www.w3.org/Graphics/SVG/1.1/DTD/svg11.dtd">
<!-- Generated by graphviz version 13.1.0 (20250701.0955)
 -->
<!-- Title: Graphical Class Hierarchy Pages: 1 -->
<svg width="592pt" height="84pt"
 viewBox="0.00 0.00 592.00 84.00" xmlns="http://www.w3.org/2000/svg" xmlns:xlink="http://www.w3.org/1999/xlink">
<g id="graph0" class="graph" transform="scale(1 1) rotate(0) translate(4 80)">
<title>Graphical Class Hierarchy</title>
<!-- Node0 -->
<g id="Node000000" class="node">
<title>Node0</title>
<g id="a_Node000000"><a xlink:href="d7/def/a01538.html" target="_top" xlink:title=" ">
<polygon fill="white" stroke="#666666" points="117.25,-52 0,-52 0,-23 117.25,-23 117.25,-52"/>
<text xml:space="preserve" text-anchor="start" x="8" y="-39.45" font-family="Arial" font-size="9.00">Lib::HAL::Handle&lt; UART</text>
<text xml:space="preserve" text-anchor="middle" x="58.62" y="-28.95" font-family="Arial" font-size="9.00">_HandleTypeDef &gt;</text>
</a>
</g>
</g>
<!-- Node1 -->
<g id="Node000001" class="node">
<title>Node1</title>
<g id="a_Node000001"><a xlink:href="d9/dbc/a01662.html" target="_top" xlink:title="Abstract base class for UART operations.">
<polygon fill="white" stroke="#666666" points="257.75,-46.75 153.25,-46.75 153.25,-28.25 257.75,-28.25 257.75,-46.75"/>
<text xml:space="preserve" text-anchor="middle" x="205.5" y="-34.2" font-family="Arial" font-size="9.00">Lib::HAL::UART::Base</text>
</a>
</g>
</g>
<!-- Node0&#45;&gt;Node1 -->
<g id="edge48_Node000000_Node000001" class="edge">
<title>Node0&#45;&gt;Node1</title>
<g id="a_edge48_Node000000_Node000001"><a xlink:title=" ">
<path fill="none" stroke="darkgreen" d="M129.03,-37.5C137.08,-37.5 145.19,-37.5 152.94,-37.5"/>
<polygon fill="darkgreen" stroke="darkgreen" points="129.23,-34 119.23,-37.5 129.23,-41 129.23,-34"/>
</a>
</g>
</g>
<!-- Node2 -->
<g id="Node000002" class="node">
<title>Node2</title>
<g id="a_Node000002"><a xlink:href="de/df6/a01670.html" target="_top" xlink:title="Transparent UART base class.">
<polygon fill="white" stroke="#666666" points="447.75,-46.75 293.75,-46.75 293.75,-28.25 447.75,-28.25 447.75,-46.75"/>
<text xml:space="preserve" text-anchor="middle" x="370.75" y="-34.2" font-family="Arial" font-size="9.00">Lib::HAL::UART::TransperentBase</text>
</a>
</g>
</g>
<!-- Node1&#45;&gt;Node2 -->
<g id="edge49_Node000001_Node000002" class="edge">
<title>Node1&#45;&gt;Node2</title>
<g id="a_edge49_Node000001_Node000002"><a xlink:title=" ">
<path fill="none" stroke="darkgreen" d="M269.43,-37.5C277.28,-37.5 285.36,-37.5 293.38,-37.5"/>
<polygon fill="darkgreen" stroke="darkgreen" points="269.67,-34 259.67,-37.5 269.67,-41 269.67,-34"/>
</a>
</g>
</g>
<!-- Node3 -->
<g id="Node000003" class="node">
<title>Node3</title>
<g id="a_Node000003"><a xlink:href="d6/d26/a01678.html" target="_top" xlink:title="UART port implementation using DMA.">
<polygon fill="white" stroke="#666666" points="583.75,-76 483.75,-76 483.75,-47 583.75,-47 583.75,-76"/>
<text xml:space="preserve" text-anchor="start" x="491.75" y="-63.45" font-family="Arial" font-size="9.00">Lib::HAL::UART::Port</text>
<text xml:space="preserve" text-anchor="middle" x="533.75" y="-52.95" font-family="Arial" font-size="9.00">&lt; DMA &gt;</text>
</a>
</g>
</g>
<!-- Node2&#45;&gt;Node3 -->
<g id="edge50_Node000002_Node000003" class="edge">
<title>Node2&#45;&gt;Node3</title>
<g id="a_edge50_Node000002_Node000003"><a xlink:title=" ">
<path fill="none" stroke="#63b8ff" d="M447.79,-48.84C459.87,-50.64 472.08,-52.46 483.34,-54.13"/>
<polygon fill="#63b8ff" stroke="#63b8ff" points="448.67,-45.43 438.27,-47.42 447.64,-52.35 448.67,-45.43"/>
</a>
</g>
</g>
<!-- Node4 -->
<g id="Node000004" class="node">
<title>Node4</title>
<g id="a_Node000004"><a xlink:href="dd/d08/a01682.html" target="_top" xlink:title="UART port implementation using interrupts.">
<polygon fill="white" stroke="#666666" points="583.75,-29 483.75,-29 483.75,0 583.75,0 583.75,-29"/>
<text xml:space="preserve" text-anchor="start" x="491.75" y="-16.45" font-family="Arial" font-size="9.00">Lib::HAL::UART::Port</text>
<text xml:space="preserve" text-anchor="middle" x="533.75" y="-5.95" font-family="Arial" font-size="9.00">&lt; IT &gt;</text>
</a>
</g>
</g>
<!-- Node2&#45;&gt;Node4 -->
<g id="edge51_Node000002_Node000004" class="edge">
<title>Node2&#45;&gt;Node4</title>
<g id="a_edge51_Node000002_Node000004"><a xlink:title=" ">
<path fill="none" stroke="#63b8ff" d="M450.73,-26.22C461.93,-24.62 473.18,-23.01 483.6,-21.52"/>
<polygon fill="#63b8ff" stroke="#63b8ff" points="450.46,-22.72 441.06,-27.6 451.45,-29.65 450.46,-22.72"/>
</a>
</g>
</g>
</g>
</svg>
