<?xml version="1.0" encoding="UTF-8" standalone="no"?>
<!DOCTYPE svg PUBLIC "-//W3C//DTD SVG 1.1//EN"
 "http://www.w3.org/Graphics/SVG/1.1/DTD/svg11.dtd">
<!-- Generated by graphviz version 13.1.0 (20250701.0955)
 -->
<!-- Title: Graphical Class Hierarchy Pages: 1 -->
<svg width="271pt" height="78pt"
 viewBox="0.00 0.00 271.00 78.00" xmlns="http://www.w3.org/2000/svg" xmlns:xlink="http://www.w3.org/1999/xlink">
<g id="graph0" class="graph" transform="scale(1 1) rotate(0) translate(4 74)">
<title>Graphical Class Hierarchy</title>
<!-- Node0 -->
<g id="Node000000" class="node">
<title>Node0</title>
<g id="a_Node000000"><a xlink:href="d5/d6b/class_lib_1_1_b_s_p_1_1_x_p_t2046_1_1_driver.html" target="_top" xlink:title=" ">
<polygon fill="white" stroke="#666666" points="117.62,-70 10.12,-70 10.12,-38 117.62,-38 117.62,-70"/>
<text xml:space="preserve" text-anchor="start" x="18.12" y="-56.5" font-family="Helvetica,sans-Serif" font-size="10.00">Lib::BSP::XPT2046::</text>
<text xml:space="preserve" text-anchor="middle" x="63.88" y="-44.5" font-family="Helvetica,sans-Serif" font-size="10.00">Driver</text>
</a>
</g>
</g>
<!-- Node1 -->
<g id="Node000001" class="node">
<title>Node1</title>
<g id="a_Node000001"><a xlink:href="d7/d14/class_b_s_p_1_1_touch_screen.html" target="_top" xlink:title="Touch screen controller integrating XPT2046 driver with TouchGFX.">
<polygon fill="white" stroke="#666666" points="263,-42 163.75,-42 163.75,-22 263,-22 263,-42"/>
<text xml:space="preserve" text-anchor="middle" x="213.38" y="-28.5" font-family="Helvetica,sans-Serif" font-size="10.00">BSP::TouchScreen</text>
</a>
</g>
</g>
<!-- Node0&#45;&gt;Node1 -->
<g id="edge7_Node000000_Node000001" class="edge">
<title>Node0&#45;&gt;Node1</title>
<g id="a_edge7_Node000000_Node000001"><a xlink:title=" ">
<path fill="none" stroke="#8b1a1a" d="M129.06,-44.43C140.56,-42.71 152.37,-40.95 163.35,-39.31"/>
<polygon fill="#8b1a1a" stroke="#8b1a1a" points="128.58,-40.96 119.21,-45.9 129.61,-47.88 128.58,-40.96"/>
</a>
</g>
</g>
<!-- Node2 -->
<g id="Node000002" class="node">
<title>Node2</title>
<g id="a_Node000002"><a xlink:title=" ">
<polygon fill="#e0e0e0" stroke="#999999" points="127.75,-20 0,-20 0,0 127.75,0 127.75,-20"/>
<text xml:space="preserve" text-anchor="middle" x="63.88" y="-6.5" font-family="Helvetica,sans-Serif" font-size="10.00">touchgfx::TouchController</text>
</a>
</g>
</g>
<!-- Node2&#45;&gt;Node1 -->
<g id="edge8_Node000002_Node000001" class="edge">
<title>Node2&#45;&gt;Node1</title>
<g id="a_edge8_Node000002_Node000001"><a xlink:title=" ">
<path fill="none" stroke="#63b8ff" d="M139.09,-21.07C147.35,-22.3 155.6,-23.53 163.43,-24.7"/>
<polygon fill="#63b8ff" stroke="#63b8ff" points="139.76,-17.63 129.35,-19.62 138.73,-24.55 139.76,-17.63"/>
</a>
</g>
</g>
</g>
</svg>
