<?xml version="1.0" encoding="UTF-8" standalone="no"?>
<!DOCTYPE svg PUBLIC "-//W3C//DTD SVG 1.1//EN"
 "http://www.w3.org/Graphics/SVG/1.1/DTD/svg11.dtd">
<!-- Generated by graphviz version 13.1.0 (20250701.0955)
 -->
<!-- Title: Graphical Class Hierarchy Pages: 1 -->
<svg width="340pt" height="116pt"
 viewBox="0.00 0.00 340.00 116.00" xmlns="http://www.w3.org/2000/svg" xmlns:xlink="http://www.w3.org/1999/xlink">
<g id="graph0" class="graph" transform="scale(1 1) rotate(0) translate(4 112)">
<title>Graphical Class Hierarchy</title>
<!-- Node0 -->
<g id="Node000000" class="node">
<title>Node0</title>
<g id="a_Node000000"><a xlink:href="da/d90/class_lib_1_1_free_r_t_o_s_1_1_semaphore_base.html" target="_top" xlink:title="Abstract base class for FreeRTOS semaphore wrappers.">
<polygon fill="white" stroke="#666666" points="159.25,-70 0,-70 0,-50 159.25,-50 159.25,-70"/>
<text xml:space="preserve" text-anchor="middle" x="79.62" y="-56.5" font-family="Helvetica,sans-Serif" font-size="10.00">Lib::FreeRTOS::SemaphoreBase</text>
</a>
</g>
</g>
<!-- Node1 -->
<g id="Node000001" class="node">
<title>Node1</title>
<g id="a_Node000001"><a xlink:href="df/d61/class_lib_1_1_free_r_t_o_s_1_1_mutex.html" target="_top" xlink:title="Encapsulates FreeRTOS mutex creation, management, and operations.">
<polygon fill="white" stroke="#666666" points="320.75,-108 206.5,-108 206.5,-88 320.75,-88 320.75,-108"/>
<text xml:space="preserve" text-anchor="middle" x="263.62" y="-94.5" font-family="Helvetica,sans-Serif" font-size="10.00">Lib::FreeRTOS::Mutex</text>
</a>
</g>
</g>
<!-- Node0&#45;&gt;Node1 -->
<g id="edge30_Node000000_Node000001" class="edge">
<title>Node0&#45;&gt;Node1</title>
<g id="a_edge30_Node000000_Node000001"><a xlink:title=" ">
<path fill="none" stroke="#63b8ff" d="M141.87,-72.79C164.87,-77.59 190.71,-82.99 212.57,-87.55"/>
<polygon fill="#63b8ff" stroke="#63b8ff" points="142.82,-69.41 132.32,-70.79 141.39,-76.26 142.82,-69.41"/>
</a>
</g>
</g>
<!-- Node2 -->
<g id="Node000002" class="node">
<title>Node2</title>
<g id="a_Node000002"><a xlink:href="d7/ddd/class_lib_1_1_free_r_t_o_s_1_1_semaphore.html" target="_top" xlink:title="FreeRTOS binary semaphore wrapper.">
<polygon fill="white" stroke="#666666" points="332,-70 195.25,-70 195.25,-50 332,-50 332,-70"/>
<text xml:space="preserve" text-anchor="middle" x="263.62" y="-56.5" font-family="Helvetica,sans-Serif" font-size="10.00">Lib::FreeRTOS::Semaphore</text>
</a>
</g>
</g>
<!-- Node0&#45;&gt;Node2 -->
<g id="edge31_Node000000_Node000002" class="edge">
<title>Node0&#45;&gt;Node2</title>
<g id="a_edge31_Node000000_Node000002"><a xlink:title=" ">
<path fill="none" stroke="#63b8ff" d="M170.96,-60C178.98,-60 187,-60 194.78,-60"/>
<polygon fill="#63b8ff" stroke="#63b8ff" points="171.17,-56.5 161.17,-60 171.17,-63.5 171.17,-56.5"/>
</a>
</g>
</g>
<!-- Node3 -->
<g id="Node000003" class="node">
<title>Node3</title>
<g id="a_Node000003"><a xlink:href="de/df9/class_lib_1_1_free_r_t_o_s_1_1_semaphore_counting.html" target="_top" xlink:title="Counting semaphore wrapper for FreeRTOS.">
<polygon fill="white" stroke="#666666" points="332,-32 195.25,-32 195.25,0 332,0 332,-32"/>
<text xml:space="preserve" text-anchor="start" x="203.25" y="-18.5" font-family="Helvetica,sans-Serif" font-size="10.00">Lib::FreeRTOS::Semaphore</text>
<text xml:space="preserve" text-anchor="middle" x="263.62" y="-6.5" font-family="Helvetica,sans-Serif" font-size="10.00">Counting</text>
</a>
</g>
</g>
<!-- Node0&#45;&gt;Node3 -->
<g id="edge32_Node000000_Node000003" class="edge">
<title>Node0&#45;&gt;Node3</title>
<g id="a_edge32_Node000000_Node000003"><a xlink:title=" ">
<path fill="none" stroke="#63b8ff" d="M134.83,-46.89C153.69,-42.34 175.08,-37.16 194.9,-32.37"/>
<polygon fill="#63b8ff" stroke="#63b8ff" points="134.13,-43.46 125.23,-49.22 135.77,-50.27 134.13,-43.46"/>
</a>
</g>
</g>
</g>
</svg>
