<?xml version="1.0" encoding="UTF-8" standalone="no"?>
<!DOCTYPE svg PUBLIC "-//W3C//DTD SVG 1.1//EN"
 "http://www.w3.org/Graphics/SVG/1.1/DTD/svg11.dtd">
<!-- Generated by graphviz version 13.1.0 (20250701.0955)
 -->
<!-- Title: Lib::BSP::EncoderPins::Config Pages: 1 -->
<svg width="151pt" height="124pt"
 viewBox="0.00 0.00 151.00 124.00" xmlns="http://www.w3.org/2000/svg" xmlns:xlink="http://www.w3.org/1999/xlink">
<g id="graph0" class="graph" transform="scale(1 1) rotate(0) translate(4 120)">
<title>Lib::BSP::EncoderPins::Config</title>
<!-- Node1 -->
<g id="Node000001" class="node">
<title>Node1</title>
<g id="a_Node000001"><a xlink:title="Configuration for encoder pins.">
<polygon fill="#999999" stroke="none" points="143,-116 0,-116 0,0 143,0 143,-116"/>
<text xml:space="preserve" text-anchor="start" x="4" y="-102.5" font-family="Helvetica,sans-Serif" font-size="10.00">Lib::BSP::EncoderPins::Config</text>
<text xml:space="preserve" text-anchor="start" x="31.31" y="-86.5" font-family="Helvetica,sans-Serif" font-size="10.00">+</text>
<text xml:space="preserve" text-anchor="start" x="68.62" y="-86.5" font-family="Helvetica,sans-Serif" font-size="10.00">ch1</text>
<text xml:space="preserve" text-anchor="start" x="31.31" y="-70.5" font-family="Helvetica,sans-Serif" font-size="10.00">+</text>
<text xml:space="preserve" text-anchor="start" x="68.62" y="-70.5" font-family="Helvetica,sans-Serif" font-size="10.00">ch2</text>
<text xml:space="preserve" text-anchor="start" x="31.31" y="-54.5" font-family="Helvetica,sans-Serif" font-size="10.00">+</text>
<text xml:space="preserve" text-anchor="start" x="68.62" y="-54.5" font-family="Helvetica,sans-Serif" font-size="10.00">btn</text>
<text xml:space="preserve" text-anchor="start" x="31.31" y="-38.5" font-family="Helvetica,sans-Serif" font-size="10.00">+</text>
<text xml:space="preserve" text-anchor="start" x="68.62" y="-38.5" font-family="Helvetica,sans-Serif" font-size="10.00">div</text>
<text xml:space="preserve" text-anchor="start" x="31.31" y="-22.5" font-family="Helvetica,sans-Serif" font-size="10.00">+</text>
<text xml:space="preserve" text-anchor="start" x="68.62" y="-22.5" font-family="Helvetica,sans-Serif" font-size="10.00">rev</text>
<text xml:space="preserve" text-anchor="start" x="70" y="-6.5" font-family="Helvetica,sans-Serif" font-size="10.00"> </text>
<polygon fill="#666666" stroke="#666666" points="0,-98 0,-98 143,-98 143,-98 0,-98"/>
<polygon fill="#666666" stroke="#666666" points="0,-18 0,-18 66.62,-18 66.62,-18 0,-18"/>
<polygon fill="#666666" stroke="#666666" points="66.62,-18 66.62,-18 143,-18 143,-18 66.62,-18"/>
<polygon fill="none" stroke="#666666" points="0,0 0,-116 143,-116 143,0 0,0"/>
</a>
</g>
</g>
</g>
</svg>
