<?xml version="1.0" encoding="UTF-8" standalone="no"?>
<!DOCTYPE svg PUBLIC "-//W3C//DTD SVG 1.1//EN"
 "http://www.w3.org/Graphics/SVG/1.1/DTD/svg11.dtd">
<!-- Generated by graphviz version 10.0.1 (20240210.2158)
 -->
<!-- Title: Lib::Xbee::Core::ComDriver::emitEndMessageSend Pages: 1 -->
<svg width="464pt" height="40pt"
 viewBox="0.00 0.00 464.00 40.00" xmlns="http://www.w3.org/2000/svg" xmlns:xlink="http://www.w3.org/1999/xlink">
<g id="graph0" class="graph" transform="scale(1 1) rotate(0) translate(4 36)">
<title>Lib::Xbee::Core::ComDriver::emitEndMessageSend</title>
<!-- Node1 -->
<g id="Node000001" class="node">
<title>Node1</title>
<g id="a_Node000001"><a xlink:title="Resets the XBee module.">
<polygon fill="#999999" stroke="#666666" points="456,-32 323.75,-32 323.75,0 456,0 456,-32"/>
<text text-anchor="start" x="331.75" y="-18.5" font-family="Helvetica,sans-Serif" font-size="10.00">Lib::Xbee::Core::ComDriver</text>
<text text-anchor="middle" x="389.88" y="-6.5" font-family="Helvetica,sans-Serif" font-size="10.00">::emitEndMessageSend</text>
</a>
</g>
</g>
<!-- Node2 -->
<g id="Node000002" class="node">
<title>Node2</title>
<g id="a_Node000002"><a xlink:href="../../d8/ddd/a00380.html#a69b6c41e48ae2bd6ea04831f60d63d6e" target="_top" xlink:title="Sends the given frame buffer.">
<polygon fill="white" stroke="#666666" points="287.75,-32 155.5,-32 155.5,0 287.75,0 287.75,-32"/>
<text text-anchor="start" x="163.5" y="-18.5" font-family="Helvetica,sans-Serif" font-size="10.00">Lib::Xbee::Core::ComDriver</text>
<text text-anchor="middle" x="221.62" y="-6.5" font-family="Helvetica,sans-Serif" font-size="10.00">::send</text>
</a>
</g>
</g>
<!-- Node1&#45;&gt;Node2 -->
<g id="edge1_Node000001_Node000002" class="edge">
<title>Node1&#45;&gt;Node2</title>
<g id="a_edge1_Node000001_Node000002"><a xlink:title=" ">
<path fill="none" stroke="#63b8ff" d="M312.34,-16C304.28,-16 296.13,-16 288.21,-16"/>
<polygon fill="#63b8ff" stroke="#63b8ff" points="312.13,-19.5 322.13,-16 312.13,-12.5 312.13,-19.5"/>
</a>
</g>
</g>
<!-- Node3 -->
<g id="Node000003" class="node">
<title>Node3</title>
<g id="a_Node000003"><a xlink:href="../../de/df8/a00440.html#a9815b172e850e3d6c009ed9f6f9b2c25" target="_top" xlink:title="Sends the given query.">
<polygon fill="white" stroke="#666666" points="119.5,-32 0,-32 0,0 119.5,0 119.5,-32"/>
<text text-anchor="start" x="8" y="-18.5" font-family="Helvetica,sans-Serif" font-size="10.00">Lib::Xbee::Core::Module</text>
<text text-anchor="middle" x="59.75" y="-6.5" font-family="Helvetica,sans-Serif" font-size="10.00">::send</text>
</a>
</g>
</g>
<!-- Node2&#45;&gt;Node3 -->
<g id="edge2_Node000002_Node000003" class="edge">
<title>Node2&#45;&gt;Node3</title>
<g id="a_edge2_Node000002_Node000003"><a xlink:title=" ">
<path fill="none" stroke="#63b8ff" d="M143.85,-16C135.83,-16 127.76,-16 119.98,-16"/>
<polygon fill="#63b8ff" stroke="#63b8ff" points="143.62,-19.5 153.62,-16 143.62,-12.5 143.62,-19.5"/>
</a>
</g>
</g>
</g>
</svg>
