<?xml version="1.0" encoding="UTF-8" standalone="no"?>
<!DOCTYPE svg PUBLIC "-//W3C//DTD SVG 1.1//EN"
 "http://www.w3.org/Graphics/SVG/1.1/DTD/svg11.dtd">
<!-- Generated by graphviz version 13.1.0 (20250701.0955)
 -->
<!-- Title: Base.hpp Pages: 1 -->
<svg width="384pt" height="208pt"
 viewBox="0.00 0.00 384.00 208.00" xmlns="http://www.w3.org/2000/svg" xmlns:xlink="http://www.w3.org/1999/xlink">
<g id="graph0" class="graph" transform="scale(1 1) rotate(0) translate(4 204)">
<title>Base.hpp</title>
<!-- Node1 -->
<g id="Node000001" class="node">
<title>Node1</title>
<g id="a_Node000001"><a xlink:title="Base class for STM32 TIM HAL device management.">
<polygon fill="#999999" stroke="#666666" points="188.24,-200 130.99,-200 130.99,-180 188.24,-180 188.24,-200"/>
<text xml:space="preserve" text-anchor="middle" x="159.61" y="-186.5" font-family="Helvetica,sans-Serif" font-size="10.00">Base.hpp</text>
</a>
</g>
</g>
<!-- Node2 -->
<g id="Node000002" class="node">
<title>Node2</title>
<g id="a_Node000002"><a xlink:href="../../df/d15/a00416.html" target="_top" xlink:title="Device manager base template for embedded device abstraction.">
<polygon fill="white" stroke="#666666" points="178.36,-144 28.86,-144 28.86,-112 178.36,-112 178.36,-144"/>
<text xml:space="preserve" text-anchor="start" x="36.86" y="-130.5" font-family="Helvetica,sans-Serif" font-size="10.00">HAL/Common/DeviceManager</text>
<text xml:space="preserve" text-anchor="middle" x="103.61" y="-118.5" font-family="Helvetica,sans-Serif" font-size="10.00">Base.hpp</text>
</a>
</g>
</g>
<!-- Node1&#45;&gt;Node2 -->
<g id="edge1_Node000001_Node000002" class="edge">
<title>Node1&#45;&gt;Node2</title>
<g id="a_edge1_Node000001_Node000002"><a xlink:title=" ">
<path fill="none" stroke="#63b8ff" d="M150.86,-179.62C144.08,-172.36 134.37,-161.96 125.52,-152.48"/>
<polygon fill="#63b8ff" stroke="#63b8ff" points="128.16,-150.17 118.78,-145.25 123.04,-154.95 128.16,-150.17"/>
</a>
</g>
</g>
<!-- Node6 -->
<g id="Node000006" class="node">
<title>Node6</title>
<g id="a_Node000006"><a xlink:title=" ">
<polygon fill="#e0e0e0" stroke="#999999" points="74.74,-20 26.49,-20 26.49,0 74.74,0 74.74,-20"/>
<text xml:space="preserve" text-anchor="middle" x="50.61" y="-6.5" font-family="Helvetica,sans-Serif" font-size="10.00">cassert</text>
</a>
</g>
</g>
<!-- Node1&#45;&gt;Node6 -->
<g id="edge11_Node000001_Node000006" class="edge">
<title>Node1&#45;&gt;Node6</title>
<g id="a_edge11_Node000001_Node000006"><a xlink:title=" ">
<path fill="none" stroke="#63b8ff" d="M130.52,-188.33C98.19,-185.91 46.94,-176.73 19.61,-144 -5.59,-113.82 -3.36,-92.75 10.61,-56 14.7,-45.24 22.68,-35.4 30.44,-27.69"/>
<polygon fill="#63b8ff" stroke="#63b8ff" points="32.47,-30.58 37.47,-21.24 27.74,-25.43 32.47,-30.58"/>
</a>
</g>
</g>
<!-- Node10 -->
<g id="Node000010" class="node">
<title>Node10</title>
<g id="a_Node000010"><a xlink:title=" ">
<polygon fill="#e0e0e0" stroke="#999999" points="234.49,-138 196.74,-138 196.74,-118 234.49,-118 234.49,-138"/>
<text xml:space="preserve" text-anchor="middle" x="215.61" y="-124.5" font-family="Helvetica,sans-Serif" font-size="10.00">array</text>
</a>
</g>
</g>
<!-- Node1&#45;&gt;Node10 -->
<g id="edge10_Node000001_Node000010" class="edge">
<title>Node1&#45;&gt;Node10</title>
<g id="a_edge10_Node000001_Node000010"><a xlink:title=" ">
<path fill="none" stroke="#63b8ff" d="M168.36,-179.62C176.63,-170.77 189.24,-157.26 199.35,-146.43"/>
<polygon fill="#63b8ff" stroke="#63b8ff" points="201.81,-148.92 206.07,-139.22 196.69,-144.14 201.81,-148.92"/>
</a>
</g>
</g>
<!-- Node11 -->
<g id="Node000011" class="node">
<title>Node11</title>
<g id="a_Node000011"><a xlink:title=" ">
<polygon fill="#e0e0e0" stroke="#999999" points="334.99,-138 252.24,-138 252.24,-118 334.99,-118 334.99,-138"/>
<text xml:space="preserve" text-anchor="middle" x="293.61" y="-124.5" font-family="Helvetica,sans-Serif" font-size="10.00">unordered_map</text>
</a>
</g>
</g>
<!-- Node1&#45;&gt;Node11 -->
<g id="edge12_Node000001_Node000011" class="edge">
<title>Node1&#45;&gt;Node11</title>
<g id="a_edge12_Node000001_Node000011"><a xlink:title=" ">
<path fill="none" stroke="#63b8ff" d="M180.55,-179.62C202.48,-169.81 237.17,-154.27 262.34,-143"/>
<polygon fill="#63b8ff" stroke="#63b8ff" points="263.74,-146.21 271.44,-138.93 260.88,-139.82 263.74,-146.21"/>
</a>
</g>
</g>
<!-- Node3 -->
<g id="Node000003" class="node">
<title>Node3</title>
<g id="a_Node000003"><a xlink:href="../../de/dc9/a02414.html" target="_top" xlink:title="Device handle base class for hardware abstraction layer.">
<polygon fill="white" stroke="#666666" points="85.36,-76 19.86,-76 19.86,-56 85.36,-56 85.36,-76"/>
<text xml:space="preserve" text-anchor="middle" x="52.61" y="-62.5" font-family="Helvetica,sans-Serif" font-size="10.00">Handle.hpp</text>
</a>
</g>
</g>
<!-- Node2&#45;&gt;Node3 -->
<g id="edge2_Node000002_Node000003" class="edge">
<title>Node2&#45;&gt;Node3</title>
<g id="a_edge2_Node000002_Node000003"><a xlink:title=" ">
<path fill="none" stroke="#63b8ff" d="M90.48,-111.55C83.62,-103.48 75.18,-93.55 68.01,-85.12"/>
<polygon fill="#63b8ff" stroke="#63b8ff" points="70.73,-82.91 61.59,-77.56 65.4,-87.45 70.73,-82.91"/>
</a>
</g>
</g>
<!-- Node4 -->
<g id="Node000004" class="node">
<title>Node4</title>
<g id="a_Node000004"><a xlink:href="../../d9/d34/a00476.html" target="_top" xlink:title="Container template class for managing collections of pointer elements.">
<polygon fill="white" stroke="#666666" points="249.74,-76 141.49,-76 141.49,-56 249.74,-56 249.74,-76"/>
<text xml:space="preserve" text-anchor="middle" x="195.61" y="-62.5" font-family="Helvetica,sans-Serif" font-size="10.00">Helper/Container.hpp</text>
</a>
</g>
</g>
<!-- Node2&#45;&gt;Node4 -->
<g id="edge3_Node000002_Node000004" class="edge">
<title>Node2&#45;&gt;Node4</title>
<g id="a_edge3_Node000002_Node000004"><a xlink:title=" ">
<path fill="none" stroke="#63b8ff" d="M127.3,-111.55C141.01,-102.61 158.21,-91.39 171.92,-82.45"/>
<polygon fill="#63b8ff" stroke="#63b8ff" points="173.45,-85.63 179.92,-77.23 169.63,-79.77 173.45,-85.63"/>
</a>
</g>
</g>
<!-- Node2&#45;&gt;Node6 -->
<g id="edge9_Node000002_Node000006" class="edge">
<title>Node2&#45;&gt;Node6</title>
<g id="a_edge9_Node000002_Node000006"><a xlink:title=" ">
<path fill="none" stroke="#63b8ff" d="M104.42,-111.52C104.58,-96.58 103.15,-73.68 94.61,-56 89.45,-45.31 80.73,-35.58 72.42,-27.93"/>
<polygon fill="#63b8ff" stroke="#63b8ff" points="74.76,-25.33 64.89,-21.48 70.21,-30.64 74.76,-25.33"/>
</a>
</g>
</g>
<!-- Node5 -->
<g id="Node000005" class="node">
<title>Node5</title>
<g id="a_Node000005"><a xlink:title=" ">
<polygon fill="#e0e0e0" stroke="#999999" points="148.49,-20 92.74,-20 92.74,0 148.49,0 148.49,-20"/>
<text xml:space="preserve" text-anchor="middle" x="120.61" y="-6.5" font-family="Helvetica,sans-Serif" font-size="10.00">algorithm</text>
</a>
</g>
</g>
<!-- Node4&#45;&gt;Node5 -->
<g id="edge4_Node000004_Node000005" class="edge">
<title>Node4&#45;&gt;Node5</title>
<g id="a_edge4_Node000004_Node000005"><a xlink:title=" ">
<path fill="none" stroke="#63b8ff" d="M182.55,-55.59C171.65,-47.74 155.86,-36.38 142.96,-27.09"/>
<polygon fill="#63b8ff" stroke="#63b8ff" points="145.17,-24.37 135.01,-21.36 141.08,-30.05 145.17,-24.37"/>
</a>
</g>
</g>
<!-- Node4&#45;&gt;Node6 -->
<g id="edge5_Node000004_Node000006" class="edge">
<title>Node4&#45;&gt;Node6</title>
<g id="a_edge5_Node000004_Node000006"><a xlink:title=" ">
<path fill="none" stroke="#63b8ff" d="M170.35,-55.59C146.93,-46.87 111.84,-33.8 85.69,-24.06"/>
<polygon fill="#63b8ff" stroke="#63b8ff" points="87.11,-20.86 76.51,-20.65 84.66,-27.42 87.11,-20.86"/>
</a>
</g>
</g>
<!-- Node7 -->
<g id="Node000007" class="node">
<title>Node7</title>
<g id="a_Node000007"><a xlink:title=" ">
<polygon fill="#e0e0e0" stroke="#999999" points="224.61,-20 166.61,-20 166.61,0 224.61,0 224.61,-20"/>
<text xml:space="preserve" text-anchor="middle" x="195.61" y="-6.5" font-family="Helvetica,sans-Serif" font-size="10.00">functional</text>
</a>
</g>
</g>
<!-- Node4&#45;&gt;Node7 -->
<g id="edge6_Node000004_Node000007" class="edge">
<title>Node4&#45;&gt;Node7</title>
<g id="a_edge6_Node000004_Node000007"><a xlink:title=" ">
<path fill="none" stroke="#63b8ff" d="M195.61,-55.59C195.61,-49.01 195.61,-39.96 195.61,-31.73"/>
<polygon fill="#63b8ff" stroke="#63b8ff" points="199.11,-31.81 195.61,-21.81 192.11,-31.81 199.11,-31.81"/>
</a>
</g>
</g>
<!-- Node8 -->
<g id="Node000008" class="node">
<title>Node8</title>
<g id="a_Node000008"><a xlink:title=" ">
<polygon fill="#e0e0e0" stroke="#999999" points="314.74,-20 242.49,-20 242.49,0 314.74,0 314.74,-20"/>
<text xml:space="preserve" text-anchor="middle" x="278.61" y="-6.5" font-family="Helvetica,sans-Serif" font-size="10.00">initializer_list</text>
</a>
</g>
</g>
<!-- Node4&#45;&gt;Node8 -->
<g id="edge7_Node000004_Node000008" class="edge">
<title>Node4&#45;&gt;Node8</title>
<g id="a_edge7_Node000004_Node000008"><a xlink:title=" ">
<path fill="none" stroke="#63b8ff" d="M210.07,-55.59C222.37,-47.59 240.29,-35.93 254.72,-26.54"/>
<polygon fill="#63b8ff" stroke="#63b8ff" points="256.3,-29.69 262.77,-21.3 252.48,-23.82 256.3,-29.69"/>
</a>
</g>
</g>
<!-- Node9 -->
<g id="Node000009" class="node">
<title>Node9</title>
<g id="a_Node000009"><a xlink:title=" ">
<polygon fill="#e0e0e0" stroke="#999999" points="376.11,-20 333.11,-20 333.11,0 376.11,0 376.11,-20"/>
<text xml:space="preserve" text-anchor="middle" x="354.61" y="-6.5" font-family="Helvetica,sans-Serif" font-size="10.00">vector</text>
</a>
</g>
</g>
<!-- Node4&#45;&gt;Node9 -->
<g id="edge8_Node000004_Node000009" class="edge">
<title>Node4&#45;&gt;Node9</title>
<g id="a_edge8_Node000004_Node000009"><a xlink:title=" ">
<path fill="none" stroke="#63b8ff" d="M223.31,-55.59C250.8,-46.26 292.93,-31.95 322.02,-22.07"/>
<polygon fill="#63b8ff" stroke="#63b8ff" points="323.07,-25.41 331.41,-18.88 320.82,-18.78 323.07,-25.41"/>
</a>
</g>
</g>
</g>
</svg>
