<?xml version="1.0" encoding="UTF-8" standalone="no"?>
<!DOCTYPE svg PUBLIC "-//W3C//DTD SVG 1.1//EN"
 "http://www.w3.org/Graphics/SVG/1.1/DTD/svg11.dtd">
<!-- Generated by graphviz version 13.1.0 (20250701.0955)
 -->
<!-- Title: Lib::System::ParametersBase::setup Pages: 1 -->
<svg width="448pt" height="104pt"
 viewBox="0.00 0.00 448.00 104.00" xmlns="http://www.w3.org/2000/svg" xmlns:xlink="http://www.w3.org/1999/xlink">
<g id="graph0" class="graph" transform="scale(1 1) rotate(0) translate(4 100)">
<title>Lib::System::ParametersBase::setup</title>
<!-- Node1 -->
<g id="Node000001" class="node">
<title>Node1</title>
<g id="a_Node000001"><a xlink:title="Sets up parameters by reading from storage and validating integrity.">
<polygon fill="#999999" stroke="#666666" points="177.25,-58 0,-58 0,-38 177.25,-38 177.25,-58"/>
<text xml:space="preserve" text-anchor="middle" x="88.62" y="-44.5" font-family="Helvetica,sans-Serif" font-size="10.00">Lib::System::ParametersBase::setup</text>
</a>
</g>
</g>
<!-- Node2 -->
<g id="Node000002" class="node">
<title>Node2</title>
<g id="a_Node000002"><a xlink:href="../../da/dc6/class_lib_1_1_system_1_1_parameters_base.html#aeada284daa8e3064301ed0bf4d4f2e7a" target="_top" xlink:title="Checks if stored parameters are valid.">
<polygon fill="white" stroke="#666666" points="417.5,-96 235.75,-96 235.75,-76 417.5,-76 417.5,-96"/>
<text xml:space="preserve" text-anchor="middle" x="326.62" y="-82.5" font-family="Helvetica,sans-Serif" font-size="10.00">Lib::System::ParametersBase::isValid</text>
</a>
</g>
</g>
<!-- Node1&#45;&gt;Node2 -->
<g id="edge1_Node000001_Node000002" class="edge">
<title>Node1&#45;&gt;Node2</title>
<g id="a_edge1_Node000001_Node000002"><a xlink:title=" ">
<path fill="none" stroke="#63b8ff" d="M154.74,-58.48C184.14,-63.22 219.07,-68.84 249.67,-73.77"/>
<polygon fill="#63b8ff" stroke="#63b8ff" points="248.8,-77.18 259.23,-75.31 249.91,-70.26 248.8,-77.18"/>
</a>
</g>
</g>
<!-- Node3 -->
<g id="Node000003" class="node">
<title>Node3</title>
<g id="a_Node000003"><a xlink:href="../../da/dc6/class_lib_1_1_system_1_1_parameters_base.html#a9d631ad203d54b4830885bdf9564a2b1" target="_top" xlink:title="Restores parameters to default values.">
<polygon fill="white" stroke="#666666" points="440,-58 213.25,-58 213.25,-38 440,-38 440,-58"/>
<text xml:space="preserve" text-anchor="middle" x="326.62" y="-44.5" font-family="Helvetica,sans-Serif" font-size="10.00">Lib::System::ParametersBase::restoreByDefault</text>
</a>
</g>
</g>
<!-- Node1&#45;&gt;Node3 -->
<g id="edge2_Node000001_Node000003" class="edge">
<title>Node1&#45;&gt;Node3</title>
<g id="a_edge2_Node000001_Node000003"><a xlink:title=" ">
<path fill="none" stroke="#63b8ff" d="M177.5,-48C185.34,-48 193.37,-48 201.44,-48"/>
<polygon fill="#63b8ff" stroke="#63b8ff" points="201.34,-51.5 211.34,-48 201.34,-44.5 201.34,-51.5"/>
</a>
</g>
</g>
<!-- Node4 -->
<g id="Node000004" class="node">
<title>Node4</title>
<g id="a_Node000004"><a xlink:href="../../da/dc6/class_lib_1_1_system_1_1_parameters_base.html#a5f843338ad5eca7d63bdb46079ed6abd" target="_top" xlink:title="Writes current parameters to storage.">
<polygon fill="white" stroke="#666666" points="413.75,-20 239.5,-20 239.5,0 413.75,0 413.75,-20"/>
<text xml:space="preserve" text-anchor="middle" x="326.62" y="-6.5" font-family="Helvetica,sans-Serif" font-size="10.00">Lib::System::ParametersBase::write</text>
</a>
</g>
</g>
<!-- Node1&#45;&gt;Node4 -->
<g id="edge3_Node000001_Node000004" class="edge">
<title>Node1&#45;&gt;Node4</title>
<g id="a_edge3_Node000001_Node000004"><a xlink:title=" ">
<path fill="none" stroke="#63b8ff" d="M154.74,-37.52C184.14,-32.78 219.07,-27.16 249.67,-22.23"/>
<polygon fill="#63b8ff" stroke="#63b8ff" points="249.91,-25.74 259.23,-20.69 248.8,-18.82 249.91,-25.74"/>
</a>
</g>
</g>
</g>
</svg>
