<?xml version="1.0" encoding="UTF-8" standalone="no"?>
<!DOCTYPE svg PUBLIC "-//W3C//DTD SVG 1.1//EN"
 "http://www.w3.org/Graphics/SVG/1.1/DTD/svg11.dtd">
<!-- Generated by graphviz version 12.2.1 (20241206.2353)
 -->
<!-- Title: BSP::ComPort Pages: 1 -->
<svg width="85pt" height="156pt"
 viewBox="0.00 0.00 84.50 156.00" xmlns="http://www.w3.org/2000/svg" xmlns:xlink="http://www.w3.org/1999/xlink">
<g id="graph0" class="graph" transform="scale(1 1) rotate(0) translate(4 152)">
<title>BSP::ComPort</title>
<!-- Node1 -->
<g id="Node000001" class="node">
<title>Node1</title>
<g id="a_Node000001"><a xlink:title="The ComPort class provides an interface for managing communication over a serial port.">
<polygon fill="#999999" stroke="none" points="76.5,-148 0,-148 0,0 76.5,0 76.5,-148"/>
<text text-anchor="start" x="5.62" y="-134.5" font-family="Arial" font-size="10.00">BSP::ComPort</text>
<text text-anchor="start" x="36.75" y="-118.5" font-family="Arial" font-size="10.00"> </text>
<text text-anchor="start" x="4" y="-102.5" font-family="Arial" font-size="10.00">+</text>
<text text-anchor="start" x="14" y="-102.5" font-family="Arial" font-size="10.00">open()</text>
<text text-anchor="start" x="4" y="-86.5" font-family="Arial" font-size="10.00">+</text>
<text text-anchor="start" x="14" y="-86.5" font-family="Arial" font-size="10.00">close()</text>
<text text-anchor="start" x="4" y="-70.5" font-family="Arial" font-size="10.00">+</text>
<text text-anchor="start" x="14" y="-70.5" font-family="Arial" font-size="10.00">setParser()</text>
<text text-anchor="start" x="4" y="-54.5" font-family="Arial" font-size="10.00">+</text>
<text text-anchor="start" x="14" y="-54.5" font-family="Arial" font-size="10.00">setBaudrate()</text>
<text text-anchor="start" x="4" y="-38.5" font-family="Arial" font-size="10.00">+</text>
<text text-anchor="start" x="14" y="-38.5" font-family="Arial" font-size="10.00">getBaudrate()</text>
<text text-anchor="start" x="4" y="-22.5" font-family="Arial" font-size="10.00">+</text>
<text text-anchor="start" x="14" y="-22.5" font-family="Arial" font-size="10.00">send()</text>
<text text-anchor="start" x="4" y="-6.5" font-family="Arial" font-size="10.00">+</text>
<text text-anchor="start" x="14" y="-6.5" font-family="Arial" font-size="10.00">getInstance()</text>
<polygon fill="#666666" stroke="#666666" points="0,-130 0,-130 76.5,-130 76.5,-130 0,-130"/>
<polygon fill="#666666" stroke="#666666" points="0,-114 0,-114 76.5,-114 76.5,-114 0,-114"/>
<polygon fill="none" stroke="#666666" points="0,0 0,-148 76.5,-148 76.5,0 0,0"/>
</a>
</g>
</g>
</g>
</svg>
