<?xml version="1.0" encoding="UTF-8" standalone="no"?>
<!DOCTYPE svg PUBLIC "-//W3C//DTD SVG 1.1//EN"
 "http://www.w3.org/Graphics/SVG/1.1/DTD/svg11.dtd">
<!-- Generated by graphviz version 13.1.0 (20250701.0955)
 -->
<!-- Title: Lib::HAL::UART::Base Pages: 1 -->
<svg width="244pt" height="369pt"
 viewBox="0.00 0.00 244.00 369.00" xmlns="http://www.w3.org/2000/svg" xmlns:xlink="http://www.w3.org/1999/xlink">
<g id="graph0" class="graph" transform="scale(1 1) rotate(0) translate(4 365)">
<title>Lib::HAL::UART::Base</title>
<!-- Node1 -->
<g id="Node000001" class="node">
<title>Node1</title>
<g id="a_Node000001"><a xlink:title="Abstract base class for UART operations.">
<polygon fill="#999999" stroke="none" points="165.88,-236 69.38,-236 69.38,0 165.88,0 165.88,-236"/>
<text xml:space="preserve" text-anchor="start" x="73.38" y="-223.45" font-family="Arial" font-size="9.00">Lib::HAL::UART::Base</text>
<text xml:space="preserve" text-anchor="start" x="116.5" y="-208.95" font-family="Arial" font-size="9.00"> </text>
<text xml:space="preserve" text-anchor="start" x="79.12" y="-194.45" font-family="Arial" font-size="9.00">+</text>
<text xml:space="preserve" text-anchor="start" x="94.12" y="-194.45" font-family="Arial" font-size="9.00">Base()</text>
<text xml:space="preserve" text-anchor="start" x="79.12" y="-179.95" font-family="Arial" font-size="9.00">+</text>
<text xml:space="preserve" text-anchor="start" x="94.12" y="-179.95" font-family="Arial" font-size="9.00">~Base()</text>
<text xml:space="preserve" text-anchor="start" x="79.12" y="-165.45" font-family="Arial" font-size="9.00">+</text>
<text xml:space="preserve" text-anchor="start" x="94.12" y="-165.45" font-family="Arial" font-size="9.00">open()</text>
<text xml:space="preserve" text-anchor="start" x="79.12" y="-150.95" font-family="Arial" font-size="9.00">+</text>
<text xml:space="preserve" text-anchor="start" x="94.12" y="-150.95" font-family="Arial" font-size="9.00">close()</text>
<text xml:space="preserve" text-anchor="start" x="79.12" y="-136.45" font-family="Arial" font-size="9.00">+</text>
<text xml:space="preserve" text-anchor="start" x="94.12" y="-136.45" font-family="Arial" font-size="9.00">init()</text>
<text xml:space="preserve" text-anchor="start" x="79.12" y="-121.95" font-family="Arial" font-size="9.00">+</text>
<text xml:space="preserve" text-anchor="start" x="94.12" y="-121.95" font-family="Arial" font-size="9.00">deinit()</text>
<text xml:space="preserve" text-anchor="start" x="79.12" y="-107.45" font-family="Arial" font-size="9.00">+</text>
<text xml:space="preserve" text-anchor="start" x="94.12" y="-107.45" font-family="Arial" font-size="9.00">receive()</text>
<text xml:space="preserve" text-anchor="start" x="79.12" y="-92.95" font-family="Arial" font-size="9.00">+</text>
<text xml:space="preserve" text-anchor="start" x="94.12" y="-92.95" font-family="Arial" font-size="9.00">send()</text>
<text xml:space="preserve" text-anchor="start" x="79.12" y="-78.45" font-family="Arial" font-size="9.00">+</text>
<text xml:space="preserve" text-anchor="start" x="94.12" y="-78.45" font-family="Arial" font-size="9.00">abort()</text>
<text xml:space="preserve" text-anchor="start" x="79.12" y="-63.95" font-family="Arial" font-size="9.00">+</text>
<text xml:space="preserve" text-anchor="start" x="94.12" y="-63.95" font-family="Arial" font-size="9.00">setBaudrate()</text>
<text xml:space="preserve" text-anchor="start" x="79.12" y="-49.45" font-family="Arial" font-size="9.00">+</text>
<text xml:space="preserve" text-anchor="start" x="94.12" y="-49.45" font-family="Arial" font-size="9.00">getBaudrate()</text>
<text xml:space="preserve" text-anchor="start" x="79.12" y="-34.95" font-family="Arial" font-size="9.00">+</text>
<text xml:space="preserve" text-anchor="start" x="94.12" y="-34.95" font-family="Arial" font-size="9.00">receiveFunc()</text>
<text xml:space="preserve" text-anchor="start" x="79.12" y="-20.45" font-family="Arial" font-size="9.00">+</text>
<text xml:space="preserve" text-anchor="start" x="94.12" y="-20.45" font-family="Arial" font-size="9.00">sendFunc()</text>
<text xml:space="preserve" text-anchor="start" x="79.12" y="-5.95" font-family="Arial" font-size="9.00">+</text>
<text xml:space="preserve" text-anchor="start" x="94.12" y="-5.95" font-family="Arial" font-size="9.00">getHandle()</text>
<polygon fill="#666666" stroke="#666666" points="69.38,-219.5 69.38,-219.5 165.88,-219.5 165.88,-219.5 69.38,-219.5"/>
<polygon fill="#666666" stroke="#666666" points="69.38,-205 69.38,-205 165.88,-205 165.88,-205 69.38,-205"/>
<polygon fill="none" stroke="#666666" points="69.38,0 69.38,-236 165.88,-236 165.88,0 69.38,0"/>
</a>
</g>
</g>
<!-- Node2 -->
<g id="Node000002" class="node">
<title>Node2</title>
<g id="a_Node000002"><a xlink:href="../../de/d0a/class_lib_1_1_h_a_l_1_1_handle.html" target="_top" xlink:title=" ">
<polygon fill="white" stroke="none" points="109.25,-361 0,-361 0,-288.5 109.25,-288.5 109.25,-361"/>
<text xml:space="preserve" text-anchor="start" x="4" y="-348.45" font-family="Arial" font-size="9.00">Lib::HAL::Handle&lt; UART</text>
<text xml:space="preserve" text-anchor="start" x="16" y="-337.95" font-family="Arial" font-size="9.00">_HandleTypeDef &gt;</text>
<text xml:space="preserve" text-anchor="start" x="53.5" y="-323.45" font-family="Arial" font-size="9.00"> </text>
<text xml:space="preserve" text-anchor="start" x="14.81" y="-308.95" font-family="Arial" font-size="9.00">+</text>
<text xml:space="preserve" text-anchor="start" x="34.88" y="-308.95" font-family="Arial" font-size="9.00">~Handle()</text>
<text xml:space="preserve" text-anchor="start" x="14.81" y="-294.45" font-family="Arial" font-size="9.00">+</text>
<text xml:space="preserve" text-anchor="start" x="34.88" y="-294.45" font-family="Arial" font-size="9.00">getHandle()</text>
<polygon fill="#666666" stroke="#666666" points="0,-334 0,-334 109.25,-334 109.25,-334 0,-334"/>
<polygon fill="#666666" stroke="#666666" points="0,-319.5 0,-319.5 109.25,-319.5 109.25,-319.5 0,-319.5"/>
<polygon fill="none" stroke="#666666" points="0,-288.5 0,-361 109.25,-361 109.25,-288.5 0,-288.5"/>
</a>
</g>
</g>
<!-- Node2&#45;&gt;Node1 -->
<g id="edge1_Node000001_Node000002" class="edge">
<title>Node2&#45;&gt;Node1</title>
<g id="a_edge1_Node000001_Node000002"><a xlink:title=" ">
<path fill="none" stroke="darkgreen" d="M68.77,-277.79C72.7,-265.01 77.16,-250.51 81.74,-235.61"/>
<polygon fill="none" stroke="darkgreen" points="65.5,-276.52 65.9,-287.11 72.19,-278.58 65.5,-276.52"/>
</a>
</g>
</g>
<!-- Node3 -->
<g id="Node000003" class="node">
<title>Node3</title>
<g id="a_Node000003"><a xlink:title=" ">
<polygon fill="white" stroke="none" points="235.5,-348.5 127.75,-348.5 127.75,-301 235.5,-301 235.5,-348.5"/>
<text xml:space="preserve" text-anchor="start" x="131.75" y="-335.95" font-family="Arial" font-size="9.00">UART_HandleTypeDef *</text>
<text xml:space="preserve" text-anchor="start" x="180.5" y="-321.45" font-family="Arial" font-size="9.00"> </text>
<text xml:space="preserve" text-anchor="start" x="180.5" y="-306.95" font-family="Arial" font-size="9.00"> </text>
<polygon fill="#bfbfbf" stroke="#bfbfbf" points="127.75,-332 127.75,-332 235.5,-332 235.5,-332 127.75,-332"/>
<polygon fill="#bfbfbf" stroke="#bfbfbf" points="127.75,-317.5 127.75,-317.5 235.5,-317.5 235.5,-317.5 127.75,-317.5"/>
<polygon fill="none" stroke="#bfbfbf" points="127.75,-301 127.75,-348.5 235.5,-348.5 235.5,-301 127.75,-301"/>
</a>
</g>
</g>
<!-- Node3&#45;&gt;Node1 -->
<g id="edge2_Node000001_Node000003" class="edge">
<title>Node3&#45;&gt;Node1</title>
<g id="a_edge2_Node000001_Node000003"><a xlink:title=" ">
<path fill="none" stroke="#63b8ff" d="M174.53,-301.06C170.21,-287.22 164.29,-268.29 157.9,-247.86"/>
<polygon fill="none" stroke="#63b8ff" points="157.95,-247.99 152.34,-243.46 154.37,-236.54 159.97,-241.07 157.95,-247.99"/>
</a>
</g>
<text xml:space="preserve" text-anchor="start" x="167.46" y="-258.95" font-family="Arial" font-size="9.00" fill="grey">#handle</text>
</g>
</g>
</svg>
