<?xml version="1.0" encoding="UTF-8" standalone="no"?>
<!DOCTYPE svg PUBLIC "-//W3C//DTD SVG 1.1//EN"
 "http://www.w3.org/Graphics/SVG/1.1/DTD/svg11.dtd">
<!-- Generated by graphviz version 13.1.0 (20250701.0955)
 -->
<!-- Title: Lib::HAL::UART::Base Pages: 1 -->
<svg width="195pt" height="636pt"
 viewBox="0.00 0.00 195.00 636.00" xmlns="http://www.w3.org/2000/svg" xmlns:xlink="http://www.w3.org/1999/xlink">
<g id="graph0" class="graph" transform="scale(1 1) rotate(0) translate(4 632)">
<title>Lib::HAL::UART::Base</title>
<!-- Node1 -->
<g id="Node000001" class="node">
<title>Node1</title>
<g id="a_Node000001"><a xlink:title="Abstract base class for UART operations.">
<polygon fill="#999999" stroke="none" points="144,-372.5 0,-372.5 0,0 144,0 144,-372.5"/>
<text xml:space="preserve" text-anchor="start" x="27.75" y="-359.95" font-family="Arial" font-size="9.00">Lib::HAL::UART::Base</text>
<text xml:space="preserve" text-anchor="start" x="4" y="-345.45" font-family="Arial" font-size="9.00">#</text>
<text xml:space="preserve" text-anchor="start" x="13.25" y="-345.45" font-family="Arial" font-size="9.00">UART_HandleTypeDef</text>
<text xml:space="preserve" text-anchor="start" x="13.25" y="-334.95" font-family="Arial" font-size="9.00"> * handle</text>
<text xml:space="preserve" text-anchor="start" x="4" y="-320.45" font-family="Arial" font-size="9.00">+</text>
<text xml:space="preserve" text-anchor="start" x="13.25" y="-320.45" font-family="Arial" font-size="9.00">Base(UART_HandleTypeDef</text>
<text xml:space="preserve" text-anchor="start" x="13.25" y="-309.95" font-family="Arial" font-size="9.00"> *handle)</text>
<text xml:space="preserve" text-anchor="start" x="4" y="-295.45" font-family="Arial" font-size="9.00">+</text>
<text xml:space="preserve" text-anchor="start" x="13.25" y="-295.45" font-family="Arial" font-size="9.00">virtual ~Base()=default</text>
<text xml:space="preserve" text-anchor="start" x="4" y="-280.95" font-family="Arial" font-size="9.00">+</text>
<text xml:space="preserve" text-anchor="start" x="13.25" y="-280.95" font-family="Arial" font-size="9.00">virtual void open()=0</text>
<text xml:space="preserve" text-anchor="start" x="4" y="-266.45" font-family="Arial" font-size="9.00">+</text>
<text xml:space="preserve" text-anchor="start" x="13.25" y="-266.45" font-family="Arial" font-size="9.00">virtual void close()=0</text>
<text xml:space="preserve" text-anchor="start" x="4" y="-251.95" font-family="Arial" font-size="9.00">+</text>
<text xml:space="preserve" text-anchor="start" x="13.25" y="-251.95" font-family="Arial" font-size="9.00">virtual void init()</text>
<text xml:space="preserve" text-anchor="start" x="4" y="-237.45" font-family="Arial" font-size="9.00">+</text>
<text xml:space="preserve" text-anchor="start" x="13.25" y="-237.45" font-family="Arial" font-size="9.00">virtual void deinit()</text>
<text xml:space="preserve" text-anchor="start" x="4" y="-222.95" font-family="Arial" font-size="9.00">+</text>
<text xml:space="preserve" text-anchor="start" x="13.25" y="-222.95" font-family="Arial" font-size="9.00">virtual size_t receive</text>
<text xml:space="preserve" text-anchor="start" x="13.25" y="-212.45" font-family="Arial" font-size="9.00">(uint8_t *dst, size_t</text>
<text xml:space="preserve" text-anchor="start" x="13.25" y="-201.95" font-family="Arial" font-size="9.00"> maxNbyte, uint32_t timeout)=0</text>
<text xml:space="preserve" text-anchor="start" x="4" y="-187.45" font-family="Arial" font-size="9.00">+</text>
<text xml:space="preserve" text-anchor="start" x="13.25" y="-187.45" font-family="Arial" font-size="9.00">virtual bool send(const</text>
<text xml:space="preserve" text-anchor="start" x="13.25" y="-176.95" font-family="Arial" font-size="9.00"> void *src, size_t len,</text>
<text xml:space="preserve" text-anchor="start" x="13.25" y="-166.45" font-family="Arial" font-size="9.00"> uint32_t timeout)=0</text>
<text xml:space="preserve" text-anchor="start" x="4" y="-151.95" font-family="Arial" font-size="9.00">+</text>
<text xml:space="preserve" text-anchor="start" x="13.25" y="-151.95" font-family="Arial" font-size="9.00">virtual void abort()=0</text>
<text xml:space="preserve" text-anchor="start" x="4" y="-137.45" font-family="Arial" font-size="9.00">+</text>
<text xml:space="preserve" text-anchor="start" x="13.25" y="-137.45" font-family="Arial" font-size="9.00">virtual void setBaudrate</text>
<text xml:space="preserve" text-anchor="start" x="13.25" y="-126.95" font-family="Arial" font-size="9.00">(uint32_t value)</text>
<text xml:space="preserve" text-anchor="start" x="4" y="-112.45" font-family="Arial" font-size="9.00">+</text>
<text xml:space="preserve" text-anchor="start" x="13.25" y="-112.45" font-family="Arial" font-size="9.00">virtual uint32_t getBaudrate</text>
<text xml:space="preserve" text-anchor="start" x="13.25" y="-101.95" font-family="Arial" font-size="9.00">() const</text>
<text xml:space="preserve" text-anchor="start" x="4" y="-87.45" font-family="Arial" font-size="9.00">+</text>
<text xml:space="preserve" text-anchor="start" x="13.25" y="-87.45" font-family="Arial" font-size="9.00">virtual bool receiveFunc</text>
<text xml:space="preserve" text-anchor="start" x="13.25" y="-76.95" font-family="Arial" font-size="9.00">(uint8_t *dst, size_t len)=0</text>
<text xml:space="preserve" text-anchor="start" x="4" y="-62.45" font-family="Arial" font-size="9.00">+</text>
<text xml:space="preserve" text-anchor="start" x="13.25" y="-62.45" font-family="Arial" font-size="9.00">virtual bool sendFunc</text>
<text xml:space="preserve" text-anchor="start" x="13.25" y="-51.95" font-family="Arial" font-size="9.00">(const uint8_t *src,</text>
<text xml:space="preserve" text-anchor="start" x="13.25" y="-41.45" font-family="Arial" font-size="9.00"> size_t len)=0</text>
<text xml:space="preserve" text-anchor="start" x="4" y="-26.95" font-family="Arial" font-size="9.00">+</text>
<text xml:space="preserve" text-anchor="start" x="13.25" y="-26.95" font-family="Arial" font-size="9.00">UART_HandleTypeDef</text>
<text xml:space="preserve" text-anchor="start" x="13.25" y="-16.45" font-family="Arial" font-size="9.00"> * getHandle() const</text>
<text xml:space="preserve" text-anchor="start" x="13.25" y="-5.95" font-family="Arial" font-size="9.00"> override</text>
<polygon fill="#666666" stroke="#666666" points="0,-356 0,-356 144,-356 144,-356 0,-356"/>
<polygon fill="#666666" stroke="#666666" points="0,-331 0,-331 11.25,-331 11.25,-331 0,-331"/>
<polygon fill="#666666" stroke="#666666" points="11.25,-331 11.25,-331 144,-331 144,-331 11.25,-331"/>
<polygon fill="none" stroke="#666666" points="0,0 0,-372.5 144,-372.5 144,0 0,0"/>
</a>
</g>
</g>
<!-- Node2 -->
<g id="Node000002" class="node">
<title>Node2</title>
<g id="a_Node000002"><a xlink:href="../../de/d0a/class_lib_1_1_h_a_l_1_1_handle.html" target="_top" xlink:title=" ">
<polygon fill="white" stroke="none" points="141,-492.5 3,-492.5 3,-409.5 141,-409.5 141,-492.5"/>
<text xml:space="preserve" text-anchor="start" x="21.38" y="-479.95" font-family="Arial" font-size="9.00">Lib::HAL::Handle&lt; UART</text>
<text xml:space="preserve" text-anchor="start" x="33.38" y="-469.45" font-family="Arial" font-size="9.00">_HandleTypeDef &gt;</text>
<text xml:space="preserve" text-anchor="start" x="70.88" y="-454.95" font-family="Arial" font-size="9.00"> </text>
<text xml:space="preserve" text-anchor="start" x="7" y="-440.45" font-family="Arial" font-size="9.00">+</text>
<text xml:space="preserve" text-anchor="start" x="16.25" y="-440.45" font-family="Arial" font-size="9.00">virtual ~Handle()=default</text>
<text xml:space="preserve" text-anchor="start" x="7" y="-425.95" font-family="Arial" font-size="9.00">+</text>
<text xml:space="preserve" text-anchor="start" x="16.25" y="-425.95" font-family="Arial" font-size="9.00">virtual UART_HandleTypeDef</text>
<text xml:space="preserve" text-anchor="start" x="16.25" y="-415.45" font-family="Arial" font-size="9.00"> * getHandle() const=0</text>
<polygon fill="#666666" stroke="#666666" points="3,-465.5 3,-465.5 141,-465.5 141,-465.5 3,-465.5"/>
<polygon fill="#666666" stroke="#666666" points="3,-451 3,-451 141,-451 141,-451 3,-451"/>
<polygon fill="none" stroke="#666666" points="3,-409.5 3,-492.5 141,-492.5 141,-409.5 3,-409.5"/>
</a>
</g>
</g>
<!-- Node2&#45;&gt;Node1 -->
<g id="edge1_Node000001_Node000002" class="edge">
<title>Node2&#45;&gt;Node1</title>
<g id="a_edge1_Node000001_Node000002"><a xlink:title=" ">
<path fill="none" stroke="darkgreen" d="M72,-398.24C72,-390.22 72,-381.56 72,-372.48"/>
<polygon fill="none" stroke="darkgreen" points="68.5,-398.01 72,-408.01 75.5,-398.01 68.5,-398.01"/>
</a>
</g>
</g>
<!-- Node3 -->
<g id="Node000003" class="node">
<title>Node3</title>
<g id="a_Node000003"><a xlink:href="../../de/d0a/class_lib_1_1_h_a_l_1_1_handle.html" target="_top" xlink:title="Abstract base class for device handle access in hardware abstraction.">
<polygon fill="white" stroke="none" points="131.25,-628 12.75,-628 12.75,-545 131.25,-545 131.25,-628"/>
<text xml:space="preserve" text-anchor="start" x="30.75" y="-615.45" font-family="Arial" font-size="9.00">Lib::HAL::Handle&lt; T</text>
<text xml:space="preserve" text-anchor="start" x="46.88" y="-604.95" font-family="Arial" font-size="9.00">_HANDLE &gt;</text>
<text xml:space="preserve" text-anchor="start" x="70.88" y="-590.45" font-family="Arial" font-size="9.00"> </text>
<text xml:space="preserve" text-anchor="start" x="16.75" y="-575.95" font-family="Arial" font-size="9.00">+</text>
<text xml:space="preserve" text-anchor="start" x="26" y="-575.95" font-family="Arial" font-size="9.00">virtual ~Handle()=default</text>
<text xml:space="preserve" text-anchor="start" x="16.75" y="-561.45" font-family="Arial" font-size="9.00">+</text>
<text xml:space="preserve" text-anchor="start" x="26" y="-561.45" font-family="Arial" font-size="9.00">virtual T_HANDLE *</text>
<text xml:space="preserve" text-anchor="start" x="26" y="-550.95" font-family="Arial" font-size="9.00"> getHandle() const =0</text>
<polygon fill="#666666" stroke="#666666" points="12.75,-601 12.75,-601 131.25,-601 131.25,-601 12.75,-601"/>
<polygon fill="#666666" stroke="#666666" points="12.75,-586.5 12.75,-586.5 131.25,-586.5 131.25,-586.5 12.75,-586.5"/>
<polygon fill="none" stroke="#666666" points="12.75,-545 12.75,-628 131.25,-628 131.25,-545 12.75,-545"/>
</a>
</g>
</g>
<!-- Node3&#45;&gt;Node2 -->
<g id="edge2_Node000002_Node000003" class="edge">
<title>Node3&#45;&gt;Node2</title>
<g id="a_edge2_Node000002_Node000003"><a xlink:title=" ">
<path fill="none" stroke="orange" d="M72,-533.78C72,-520.01 72,-505.34 72,-492.28"/>
<polygon fill="orange" stroke="orange" points="68.5,-533.57 72,-543.57 75.5,-533.57 68.5,-533.57"/>
</a>
</g>
<text xml:space="preserve" text-anchor="start" x="75" y="-515.45" font-family="Arial" font-size="9.00" fill="grey">&lt; UART_HandleTypeDef &gt;</text>
</g>
</g>
</svg>
