<?xml version="1.0" encoding="UTF-8" standalone="no"?>
<!DOCTYPE svg PUBLIC "-//W3C//DTD SVG 1.1//EN"
 "http://www.w3.org/Graphics/SVG/1.1/DTD/svg11.dtd">
<!-- Generated by graphviz version 13.1.0 (20250701.0955)
 -->
<!-- Title: RTOS::Timer::Timer Pages: 1 -->
<svg width="270pt" height="66pt"
 viewBox="0.00 0.00 270.00 66.00" xmlns="http://www.w3.org/2000/svg" xmlns:xlink="http://www.w3.org/1999/xlink">
<g id="graph0" class="graph" transform="scale(1 1) rotate(0) translate(4 62)">
<title>RTOS::Timer::Timer</title>
<!-- Node1 -->
<g id="Node000001" class="node">
<title>Node1</title>
<g id="a_Node000001"><a xlink:title="Construct timer from configuration.">
<polygon fill="#999999" stroke="#666666" points="261.5,-39 157,-39 157,-19 261.5,-19 261.5,-39"/>
<text xml:space="preserve" text-anchor="middle" x="209.25" y="-25.5" font-family="Helvetica,sans-Serif" font-size="10.00">RTOS::Timer::Timer</text>
</a>
</g>
</g>
<!-- Node2 -->
<g id="Node000002" class="node">
<title>Node2</title>
<g id="a_Node000002"><a xlink:href="../../d5/d0b/a00220.html#a37f1426d51e8bed58745f0ecb08e6c9d" target="_top" xlink:title="Move constructor.">
<polygon fill="white" stroke="#666666" points="112.75,-58 8.25,-58 8.25,-38 112.75,-38 112.75,-58"/>
<text xml:space="preserve" text-anchor="middle" x="60.5" y="-44.5" font-family="Helvetica,sans-Serif" font-size="10.00">RTOS::Timer::Timer</text>
</a>
</g>
</g>
<!-- Node1&#45;&gt;Node2 -->
<g id="edge1_Node000001_Node000002" class="edge">
<title>Node1&#45;&gt;Node2</title>
<g id="a_edge1_Node000001_Node000002"><a xlink:title=" ">
<path fill="none" stroke="#63b8ff" d="M145.34,-37.15C134.47,-38.55 123.29,-40 112.77,-41.36"/>
<polygon fill="#63b8ff" stroke="#63b8ff" points="145.54,-40.65 155.01,-35.89 144.64,-33.71 145.54,-40.65"/>
</a>
</g>
</g>
<!-- Node3 -->
<g id="Node000003" class="node">
<title>Node3</title>
<g id="a_Node000003"><a xlink:href="../../d5/d0b/a00220.html#a293ceb35e948951c983679cce10ad20f" target="_top" xlink:title="Move assignment operator.">
<polygon fill="white" stroke="#666666" points="121,-20 0,-20 0,0 121,0 121,-20"/>
<text xml:space="preserve" text-anchor="middle" x="60.5" y="-6.5" font-family="Helvetica,sans-Serif" font-size="10.00">RTOS::Timer::operator=</text>
</a>
</g>
</g>
<!-- Node1&#45;&gt;Node3 -->
<g id="edge2_Node000001_Node000003" class="edge">
<title>Node1&#45;&gt;Node3</title>
<g id="a_edge2_Node000001_Node000003"><a xlink:title=" ">
<path fill="none" stroke="#63b8ff" d="M145.1,-20.82C137.2,-19.8 129.14,-18.76 121.3,-17.74"/>
<polygon fill="#63b8ff" stroke="#63b8ff" points="144.64,-24.29 155.01,-22.11 145.54,-17.35 144.64,-24.29"/>
</a>
</g>
</g>
</g>
</svg>
