<?xml version="1.0" encoding="UTF-8" standalone="no"?>
<!DOCTYPE svg PUBLIC "-//W3C//DTD SVG 1.1//EN"
 "http://www.w3.org/Graphics/SVG/1.1/DTD/svg11.dtd">
<!-- Generated by graphviz version 12.2.1 (20241206.2353)
 -->
<!-- Title: Lib::HAL::TIM::Base::close Pages: 1 -->
<svg width="498pt" height="40pt"
 viewBox="0.00 0.00 497.75 40.00" xmlns="http://www.w3.org/2000/svg" xmlns:xlink="http://www.w3.org/1999/xlink">
<g id="graph0" class="graph" transform="scale(1 1) rotate(0) translate(4 36)">
<title>Lib::HAL::TIM::Base::close</title>
<!-- Node1 -->
<g id="Node000001" class="node">
<title>Node1</title>
<g id="a_Node000001"><a xlink:title="Closes the TIM device.">
<polygon fill="#999999" stroke="#666666" points="106,-32 0,-32 0,0 106,0 106,-32"/>
<text text-anchor="start" x="8" y="-18.5" font-family="Helvetica,sans-Serif" font-size="10.00">Lib::HAL::TIM::Base</text>
<text text-anchor="middle" x="53" y="-6.5" font-family="Helvetica,sans-Serif" font-size="10.00">::close</text>
</a>
</g>
</g>
<!-- Node2 -->
<g id="Node000002" class="node">
<title>Node2</title>
<g id="a_Node000002"><a xlink:href="../../d0/da2/a00307.html#ac161acc0243c1038d3919ff158139e51" target="_top" xlink:title="Gets the instance of the device manager.">
<polygon fill="white" stroke="#666666" points="289.25,-32 142,-32 142,0 289.25,0 289.25,-32"/>
<text text-anchor="start" x="150" y="-18.5" font-family="Helvetica,sans-Serif" font-size="10.00">Lib::HAL::TIM::Base</text>
<text text-anchor="middle" x="215.62" y="-6.5" font-family="Helvetica,sans-Serif" font-size="10.00">::DeviceManager::getInstance</text>
</a>
</g>
</g>
<!-- Node1&#45;&gt;Node2 -->
<g id="edge1_Node000001_Node000002" class="edge">
<title>Node1&#45;&gt;Node2</title>
<g id="a_edge1_Node000001_Node000002"><a xlink:title=" ">
<path fill="none" stroke="#63b8ff" d="M106.15,-16C113.96,-16 122.18,-16 130.45,-16"/>
<polygon fill="#63b8ff" stroke="#63b8ff" points="130.21,-19.5 140.21,-16 130.21,-12.5 130.21,-19.5"/>
</a>
</g>
</g>
<!-- Node3 -->
<g id="Node000003" class="node">
<title>Node3</title>
<g id="a_Node000003"><a xlink:href="../../d0/da2/a00307.html#ac7e0c87f43e89b9453862dc76412222e" target="_top" xlink:title="Default constructor for DeviceManager.">
<polygon fill="white" stroke="#666666" points="489.75,-32 325.25,-32 325.25,0 489.75,0 489.75,-32"/>
<text text-anchor="start" x="333.25" y="-18.5" font-family="Helvetica,sans-Serif" font-size="10.00">Lib::HAL::TIM::Base</text>
<text text-anchor="middle" x="407.5" y="-6.5" font-family="Helvetica,sans-Serif" font-size="10.00">::DeviceManager::DeviceManager</text>
</a>
</g>
</g>
<!-- Node2&#45;&gt;Node3 -->
<g id="edge2_Node000002_Node000003" class="edge">
<title>Node2&#45;&gt;Node3</title>
<g id="a_edge2_Node000002_Node000003"><a xlink:title=" ">
<path fill="none" stroke="#63b8ff" d="M289.49,-16C297.38,-16 305.49,-16 313.57,-16"/>
<polygon fill="#63b8ff" stroke="#63b8ff" points="313.46,-19.5 323.46,-16 313.46,-12.5 313.46,-19.5"/>
</a>
</g>
</g>
</g>
</svg>
