<?xml version="1.0" encoding="UTF-8" standalone="no"?>
<!DOCTYPE svg PUBLIC "-//W3C//DTD SVG 1.1//EN"
 "http://www.w3.org/Graphics/SVG/1.1/DTD/svg11.dtd">
<!-- Generated by graphviz version 13.1.0 (20250701.0955)
 -->
<!-- Title: RTOS::TickCounter::get Pages: 1 -->
<svg width="521pt" height="198pt"
 viewBox="0.00 0.00 521.00 198.00" xmlns="http://www.w3.org/2000/svg" xmlns:xlink="http://www.w3.org/1999/xlink">
<g id="graph0" class="graph" transform="scale(1 1) rotate(0) translate(4 194)">
<title>RTOS::TickCounter::get</title>
<!-- Node1 -->
<g id="Node000001" class="node">
<title>Node1</title>
<g id="a_Node000001"><a xlink:title="Returns the current tick count (task context).">
<polygon fill="#999999" stroke="#666666" points="513,-108 391.25,-108 391.25,-88 513,-88 513,-108"/>
<text xml:space="preserve" text-anchor="middle" x="452.12" y="-94.5" font-family="Helvetica,sans-Serif" font-size="10.00">RTOS::TickCounter::get</text>
</a>
</g>
</g>
<!-- Node2 -->
<g id="Node000002" class="node">
<title>Node2</title>
<g id="a_Node000002"><a xlink:href="../../d5/d0b/a00220.html#a7ff6807dfc50d1ff661022d2f8be8605" target="_top" xlink:title="Get remaining time until expiry in ticks.">
<polygon fill="white" stroke="#666666" points="355.25,-184 193.75,-184 193.75,-164 355.25,-164 355.25,-184"/>
<text xml:space="preserve" text-anchor="middle" x="274.5" y="-170.5" font-family="Helvetica,sans-Serif" font-size="10.00">RTOS::Timer::getRemainingTime</text>
</a>
</g>
</g>
<!-- Node1&#45;&gt;Node2 -->
<g id="edge1_Node000001_Node000002" class="edge">
<title>Node1&#45;&gt;Node2</title>
<g id="a_edge1_Node000001_Node000002"><a xlink:title=" ">
<path fill="none" stroke="#63b8ff" d="M427.67,-114.7C408.87,-127.38 381.41,-144.39 355.25,-155 347.07,-158.32 338.18,-161.14 329.39,-163.52"/>
<polygon fill="#63b8ff" stroke="#63b8ff" points="429.4,-117.75 435.65,-109.2 425.43,-111.99 429.4,-117.75"/>
</a>
</g>
</g>
<!-- Node4 -->
<g id="Node000004" class="node">
<title>Node4</title>
<g id="a_Node000004"><a xlink:href="../../d6/d43/a00216.html#aa4276cd592bbbf6230baf285b51acaeb" target="_top" xlink:title="Create an immediate (already expired) timeout.">
<polygon fill="white" stroke="#666666" points="342.12,-146 206.88,-146 206.88,-126 342.12,-126 342.12,-146"/>
<text xml:space="preserve" text-anchor="middle" x="274.5" y="-132.5" font-family="Helvetica,sans-Serif" font-size="10.00">RTOS::Timeout::immediate</text>
</a>
</g>
</g>
<!-- Node1&#45;&gt;Node4 -->
<g id="edge3_Node000001_Node000004" class="edge">
<title>Node1&#45;&gt;Node4</title>
<g id="a_edge3_Node000001_Node000004"><a xlink:title=" ">
<path fill="none" stroke="#63b8ff" d="M391.42,-110.92C369.38,-115.69 344.7,-121.03 323.8,-125.55"/>
<polygon fill="#63b8ff" stroke="#63b8ff" points="392.16,-114.34 401.19,-108.8 390.68,-107.5 392.16,-114.34"/>
</a>
</g>
</g>
<!-- Node5 -->
<g id="Node000005" class="node">
<title>Node5</title>
<g id="a_Node000005"><a xlink:href="../../d6/d43/a00216.html#a09aec4ad865ca9b9275f8e0060f93314" target="_top" xlink:title="Reset the timeout start time to now, keeping duration.">
<polygon fill="white" stroke="#666666" points="330.5,-108 218.5,-108 218.5,-88 330.5,-88 330.5,-108"/>
<text xml:space="preserve" text-anchor="middle" x="274.5" y="-94.5" font-family="Helvetica,sans-Serif" font-size="10.00">RTOS::Timeout::reset</text>
</a>
</g>
</g>
<!-- Node1&#45;&gt;Node5 -->
<g id="edge4_Node000001_Node000005" class="edge">
<title>Node1&#45;&gt;Node5</title>
<g id="a_edge4_Node000001_Node000005"><a xlink:title=" ">
<path fill="none" stroke="#63b8ff" d="M379.98,-98C363.57,-98 346.36,-98 330.75,-98"/>
<polygon fill="#63b8ff" stroke="#63b8ff" points="379.66,-101.5 389.66,-98 379.66,-94.5 379.66,-101.5"/>
</a>
</g>
</g>
<!-- Node6 -->
<g id="Node000006" class="node">
<title>Node6</title>
<g id="a_Node000006"><a xlink:href="../../d6/d43/a00216.html#ad284d793baaa181e0241a2a5b1f8ea3a" target="_top" xlink:title="Set the timeout duration in ticks and record start time.">
<polygon fill="white" stroke="#666666" points="326.38,-70 222.62,-70 222.62,-50 326.38,-50 326.38,-70"/>
<text xml:space="preserve" text-anchor="middle" x="274.5" y="-56.5" font-family="Helvetica,sans-Serif" font-size="10.00">RTOS::Timeout::set</text>
</a>
</g>
</g>
<!-- Node1&#45;&gt;Node6 -->
<g id="edge5_Node000001_Node000006" class="edge">
<title>Node1&#45;&gt;Node6</title>
<g id="a_edge5_Node000001_Node000006"><a xlink:title=" ">
<path fill="none" stroke="#63b8ff" d="M391.42,-85.08C369.38,-80.31 344.7,-74.97 323.8,-70.45"/>
<polygon fill="#63b8ff" stroke="#63b8ff" points="390.68,-88.5 401.19,-87.2 392.16,-81.66 390.68,-88.5"/>
</a>
</g>
</g>
<!-- Node10 -->
<g id="Node000010" class="node">
<title>Node10</title>
<g id="a_Node000010"><a xlink:href="../../dc/d31/a00208.html#ac735c01182cf815361e5c13544300231" target="_top" xlink:title="Start the periodic tick event dispatch loop.">
<polygon fill="white" stroke="#666666" points="327.88,-32 221.12,-32 221.12,0 327.88,0 327.88,-32"/>
<text xml:space="preserve" text-anchor="start" x="229.12" y="-18.5" font-family="Helvetica,sans-Serif" font-size="10.00">RTOS::TickService::</text>
<text xml:space="preserve" text-anchor="middle" x="274.5" y="-6.5" font-family="Helvetica,sans-Serif" font-size="10.00">start</text>
</a>
</g>
</g>
<!-- Node1&#45;&gt;Node10 -->
<g id="edge9_Node000001_Node000010" class="edge">
<title>Node1&#45;&gt;Node10</title>
<g id="a_edge9_Node000001_Node000010"><a xlink:title=" ">
<path fill="none" stroke="#63b8ff" d="M426.53,-81.2C407.65,-68.86 380.61,-52.33 355.25,-41 346.64,-37.15 337.26,-33.65 328.06,-30.56"/>
<polygon fill="#63b8ff" stroke="#63b8ff" points="424.58,-84.11 434.85,-86.73 428.46,-78.28 424.58,-84.11"/>
</a>
</g>
</g>
<!-- Node3 -->
<g id="Node000003" class="node">
<title>Node3</title>
<g id="a_Node000003"><a xlink:href="../../d5/d0b/a00220.html#a82bd8f97437148c646ec4ab7a8931505" target="_top" xlink:title="Get remaining time until expiry in ms.">
<polygon fill="white" stroke="#666666" points="148.75,-190 9,-190 9,-158 148.75,-158 148.75,-190"/>
<text xml:space="preserve" text-anchor="start" x="17" y="-176.5" font-family="Helvetica,sans-Serif" font-size="10.00">RTOS::Timer::getRemaining</text>
<text xml:space="preserve" text-anchor="middle" x="78.88" y="-164.5" font-family="Helvetica,sans-Serif" font-size="10.00">TimeMs</text>
</a>
</g>
</g>
<!-- Node2&#45;&gt;Node3 -->
<g id="edge2_Node000002_Node000003" class="edge">
<title>Node2&#45;&gt;Node3</title>
<g id="a_edge2_Node000002_Node000003"><a xlink:title=" ">
<path fill="none" stroke="#63b8ff" d="M181.92,-174C170.9,-174 159.79,-174 149.16,-174"/>
<polygon fill="#63b8ff" stroke="#63b8ff" points="181.83,-177.5 191.83,-174 181.83,-170.5 181.83,-177.5"/>
</a>
</g>
</g>
<!-- Node7 -->
<g id="Node000007" class="node">
<title>Node7</title>
<g id="a_Node000007"><a xlink:href="../../d6/d43/a00216.html#aa2354674b639ed23fc78b0480b6630eb" target="_top" xlink:title="Assign duration in ticks to the Timeout.">
<polygon fill="white" stroke="#666666" points="144.62,-108 13.12,-108 13.12,-88 144.62,-88 144.62,-108"/>
<text xml:space="preserve" text-anchor="middle" x="78.88" y="-94.5" font-family="Helvetica,sans-Serif" font-size="10.00">RTOS::Timeout::operator=</text>
</a>
</g>
</g>
<!-- Node6&#45;&gt;Node7 -->
<g id="edge6_Node000006_Node000007" class="edge">
<title>Node6&#45;&gt;Node7</title>
<g id="a_edge6_Node000006_Node000007"><a xlink:title=" ">
<path fill="none" stroke="#63b8ff" d="M211.13,-72.24C186.05,-77.16 157.42,-82.78 133.32,-87.51"/>
<polygon fill="#63b8ff" stroke="#63b8ff" points="211.75,-75.69 220.89,-70.33 210.4,-68.82 211.75,-75.69"/>
</a>
</g>
</g>
<!-- Node8 -->
<g id="Node000008" class="node">
<title>Node8</title>
<g id="a_Node000008"><a xlink:href="../../d6/d43/a00216.html#a52c0f44c1a6b6f4009f6ed93153fd18f" target="_top" xlink:title="Set timeout using milliseconds.">
<polygon fill="white" stroke="#666666" points="157.75,-70 0,-70 0,-50 157.75,-50 157.75,-70"/>
<text xml:space="preserve" text-anchor="middle" x="78.88" y="-56.5" font-family="Helvetica,sans-Serif" font-size="10.00">RTOS::Timeout::setMilliseconds</text>
</a>
</g>
</g>
<!-- Node6&#45;&gt;Node8 -->
<g id="edge7_Node000006_Node000008" class="edge">
<title>Node6&#45;&gt;Node8</title>
<g id="a_edge7_Node000006_Node000008"><a xlink:title=" ">
<path fill="none" stroke="#63b8ff" d="M210.97,-60C194.08,-60 175.59,-60 157.96,-60"/>
<polygon fill="#63b8ff" stroke="#63b8ff" points="210.86,-63.5 220.86,-60 210.86,-56.5 210.86,-63.5"/>
</a>
</g>
</g>
<!-- Node9 -->
<g id="Node000009" class="node">
<title>Node9</title>
<g id="a_Node000009"><a xlink:href="../../d6/d43/a00216.html#a382ed892633de8ff732ae268c4e85c58" target="_top" xlink:title="Set timeout using seconds.">
<polygon fill="white" stroke="#666666" points="149.88,-32 7.88,-32 7.88,-12 149.88,-12 149.88,-32"/>
<text xml:space="preserve" text-anchor="middle" x="78.88" y="-18.5" font-family="Helvetica,sans-Serif" font-size="10.00">RTOS::Timeout::setSeconds</text>
</a>
</g>
</g>
<!-- Node6&#45;&gt;Node9 -->
<g id="edge8_Node000006_Node000009" class="edge">
<title>Node6&#45;&gt;Node9</title>
<g id="a_edge8_Node000006_Node000009"><a xlink:title=" ">
<path fill="none" stroke="#63b8ff" d="M211.13,-47.76C186.05,-42.84 157.42,-37.22 133.32,-32.49"/>
<polygon fill="#63b8ff" stroke="#63b8ff" points="210.4,-51.18 220.89,-49.67 211.75,-44.31 210.4,-51.18"/>
</a>
</g>
</g>
</g>
</svg>
