<?xml version="1.0" encoding="UTF-8" standalone="no"?>
<!DOCTYPE svg PUBLIC "-//W3C//DTD SVG 1.1//EN"
 "http://www.w3.org/Graphics/SVG/1.1/DTD/svg11.dtd">
<!-- Generated by graphviz version 13.1.0 (20250701.0955)
 -->
<!-- Title: Lib::HAL::CAN::TxHeader Pages: 1 -->
<svg width="175pt" height="232pt"
 viewBox="0.00 0.00 175.00 232.00" xmlns="http://www.w3.org/2000/svg" xmlns:xlink="http://www.w3.org/1999/xlink">
<g id="graph0" class="graph" transform="scale(1 1) rotate(0) translate(4 228)">
<title>Lib::HAL::CAN::TxHeader</title>
<!-- Node1 -->
<g id="Node000001" class="node">
<title>Node1</title>
<g id="a_Node000001"><a xlink:title="CAN transmit header wrapper providing configuration capabilities.">
<polygon fill="#999999" stroke="none" points="166.5,-136 0,-136 0,0 166.5,0 166.5,-136"/>
<text xml:space="preserve" text-anchor="start" x="25.88" y="-122.5" font-family="Helvetica,sans-Serif" font-size="10.00">Lib::HAL::CAN::TxHeader</text>
<text xml:space="preserve" text-anchor="start" x="81.75" y="-106.5" font-family="Helvetica,sans-Serif" font-size="10.00"> </text>
<text xml:space="preserve" text-anchor="start" x="4" y="-90.5" font-family="Helvetica,sans-Serif" font-size="10.00">+</text>
<text xml:space="preserve" text-anchor="start" x="14" y="-90.5" font-family="Helvetica,sans-Serif" font-size="10.00">TxHeader()=default</text>
<text xml:space="preserve" text-anchor="start" x="4" y="-74.5" font-family="Helvetica,sans-Serif" font-size="10.00">+</text>
<text xml:space="preserve" text-anchor="start" x="14" y="-74.5" font-family="Helvetica,sans-Serif" font-size="10.00">TxHeader(uint32_t</text>
<text xml:space="preserve" text-anchor="start" x="14" y="-62.5" font-family="Helvetica,sans-Serif" font-size="10.00"> id, size_t len=0, bool</text>
<text xml:space="preserve" text-anchor="start" x="14" y="-50.5" font-family="Helvetica,sans-Serif" font-size="10.00"> isExtId=false, bool isRtr</text>
<text xml:space="preserve" text-anchor="start" x="14" y="-38.5" font-family="Helvetica,sans-Serif" font-size="10.00">=false, bool useTimestamp=false)</text>
<text xml:space="preserve" text-anchor="start" x="4" y="-22.5" font-family="Helvetica,sans-Serif" font-size="10.00">+</text>
<text xml:space="preserve" text-anchor="start" x="14" y="-22.5" font-family="Helvetica,sans-Serif" font-size="10.00">~TxHeader()=default</text>
<text xml:space="preserve" text-anchor="start" x="4" y="-6.5" font-family="Helvetica,sans-Serif" font-size="10.00">+</text>
<text xml:space="preserve" text-anchor="start" x="14" y="-6.5" font-family="Helvetica,sans-Serif" font-size="10.00">void setLen(size_t len)</text>
<polygon fill="#666666" stroke="#666666" points="0,-118 0,-118 166.5,-118 166.5,-118 0,-118"/>
<polygon fill="#666666" stroke="#666666" points="0,-102 0,-102 166.5,-102 166.5,-102 0,-102"/>
<polygon fill="none" stroke="#666666" points="0,0 0,-136 166.5,-136 166.5,0 0,0"/>
</a>
</g>
</g>
<!-- Node2 -->
<g id="Node000002" class="node">
<title>Node2</title>
<g id="a_Node000002"><a xlink:title=" ">
<polygon fill="white" stroke="none" points="140.5,-224 26,-224 26,-172 140.5,-172 140.5,-224"/>
<text xml:space="preserve" text-anchor="start" x="30" y="-210.5" font-family="Helvetica,sans-Serif" font-size="10.00">CAN_TxHeaderTypeDef</text>
<text xml:space="preserve" text-anchor="start" x="81.75" y="-194.5" font-family="Helvetica,sans-Serif" font-size="10.00"> </text>
<text xml:space="preserve" text-anchor="start" x="81.75" y="-178.5" font-family="Helvetica,sans-Serif" font-size="10.00"> </text>
<polygon fill="#bfbfbf" stroke="#bfbfbf" points="26,-206 26,-206 140.5,-206 140.5,-206 26,-206"/>
<polygon fill="#bfbfbf" stroke="#bfbfbf" points="26,-190 26,-190 140.5,-190 140.5,-190 26,-190"/>
<polygon fill="none" stroke="#bfbfbf" points="26,-172 26,-224 140.5,-224 140.5,-172 26,-172"/>
</a>
</g>
</g>
<!-- Node2&#45;&gt;Node1 -->
<g id="edge1_Node000001_Node000002" class="edge">
<title>Node2&#45;&gt;Node1</title>
<g id="a_edge1_Node000001_Node000002"><a xlink:title=" ">
<path fill="none" stroke="#63b8ff" d="M83.25,-160.77C83.25,-152.97 83.25,-144.48 83.25,-135.92"/>
<polygon fill="none" stroke="#63b8ff" points="79.75,-160.5 83.25,-170.5 86.75,-160.5 79.75,-160.5"/>
</a>
</g>
</g>
</g>
</svg>
