<?xml version="1.0" encoding="UTF-8" standalone="no"?>
<!DOCTYPE svg PUBLIC "-//W3C//DTD SVG 1.1//EN"
 "http://www.w3.org/Graphics/SVG/1.1/DTD/svg11.dtd">
<!-- Generated by graphviz version 13.1.0 (20250701.0955)
 -->
<!-- Title: Lib::Xbee::Core::Frame0x97 Pages: 1 -->
<svg width="323pt" height="185pt"
 viewBox="0.00 0.00 323.00 185.00" xmlns="http://www.w3.org/2000/svg" xmlns:xlink="http://www.w3.org/1999/xlink">
<g id="graph0" class="graph" transform="scale(1 1) rotate(0) translate(4 180.5)">
<title>Lib::Xbee::Core::Frame0x97</title>
<!-- Node1 -->
<g id="Node000001" class="node">
<title>Node1</title>
<g id="a_Node000001"><a xlink:title="Parses AT command response fields from frame data.">
<polygon fill="#999999" stroke="none" points="217.25,-62 94.5,-62 94.5,0 217.25,0 217.25,-62"/>
<text xml:space="preserve" text-anchor="start" x="98.5" y="-49.45" font-family="Arial" font-size="9.00">Lib::Xbee::Core::Frame0x97</text>
<text xml:space="preserve" text-anchor="start" x="154.75" y="-34.95" font-family="Arial" font-size="9.00"> </text>
<text xml:space="preserve" text-anchor="start" x="111.75" y="-20.45" font-family="Arial" font-size="9.00">+</text>
<text xml:space="preserve" text-anchor="start" x="134.25" y="-20.45" font-family="Arial" font-size="9.00">Frame0x97()</text>
<text xml:space="preserve" text-anchor="start" x="111.75" y="-5.95" font-family="Arial" font-size="9.00">+</text>
<text xml:space="preserve" text-anchor="start" x="134.25" y="-5.95" font-family="Arial" font-size="9.00">Frame0x97()</text>
<polygon fill="#666666" stroke="#666666" points="94.5,-45.5 94.5,-45.5 217.25,-45.5 217.25,-45.5 94.5,-45.5"/>
<polygon fill="#666666" stroke="#666666" points="94.5,-31 94.5,-31 217.25,-31 217.25,-31 94.5,-31"/>
<polygon fill="none" stroke="#666666" points="94.5,0 94.5,-62 217.25,-62 217.25,0 94.5,0"/>
</a>
</g>
</g>
<!-- Node2 -->
<g id="Node000002" class="node">
<title>Node2</title>
<g id="a_Node000002"><a xlink:title=" ">
<polygon fill="white" stroke="none" points="35.75,-176.5 0,-176.5 0,-129 35.75,-129 35.75,-176.5"/>
<text xml:space="preserve" text-anchor="start" x="4" y="-163.95" font-family="Arial" font-size="9.00">uint8_t</text>
<text xml:space="preserve" text-anchor="start" x="16.75" y="-149.45" font-family="Arial" font-size="9.00"> </text>
<text xml:space="preserve" text-anchor="start" x="16.75" y="-134.95" font-family="Arial" font-size="9.00"> </text>
<polygon fill="#bfbfbf" stroke="#bfbfbf" points="0,-160 0,-160 35.75,-160 35.75,-160 0,-160"/>
<polygon fill="#bfbfbf" stroke="#bfbfbf" points="0,-145.5 0,-145.5 35.75,-145.5 35.75,-145.5 0,-145.5"/>
<polygon fill="none" stroke="#bfbfbf" points="0,-129 0,-176.5 35.75,-176.5 35.75,-129 0,-129"/>
</a>
</g>
</g>
<!-- Node2&#45;&gt;Node1 -->
<g id="edge1_Node000001_Node000002" class="edge">
<title>Node2&#45;&gt;Node1</title>
<g id="a_edge1_Node000001_Node000002"><a xlink:title=" ">
<path fill="none" stroke="#63b8ff" d="M17.14,-129.29C17.81,-113.79 21.14,-93.6 32.62,-80 45.5,-64.74 63.85,-54.31 82.47,-47.19"/>
<polygon fill="none" stroke="#63b8ff" points="82.5,-47.18 86.86,-41.44 93.84,-43.26 89.47,-49 82.5,-47.18"/>
</a>
</g>
<text xml:space="preserve" text-anchor="start" x="35.62" y="-99.45" font-family="Arial" font-size="9.00" fill="grey">+commandStatus</text>
<text xml:space="preserve" text-anchor="start" x="35.62" y="-84.95" font-family="Arial" font-size="9.00" fill="grey">+frameId</text>
</g>
<!-- Node3 -->
<g id="Node000003" class="node">
<title>Node3</title>
<g id="a_Node000003"><a xlink:title=" ">
<polygon fill="white" stroke="none" points="138.38,-176.5 97.38,-176.5 97.38,-129 138.38,-129 138.38,-176.5"/>
<text xml:space="preserve" text-anchor="start" x="101.38" y="-163.95" font-family="Arial" font-size="9.00">uint64_t</text>
<text xml:space="preserve" text-anchor="start" x="116.75" y="-149.45" font-family="Arial" font-size="9.00"> </text>
<text xml:space="preserve" text-anchor="start" x="116.75" y="-134.95" font-family="Arial" font-size="9.00"> </text>
<polygon fill="#bfbfbf" stroke="#bfbfbf" points="97.38,-160 97.38,-160 138.38,-160 138.38,-160 97.38,-160"/>
<polygon fill="#bfbfbf" stroke="#bfbfbf" points="97.38,-145.5 97.38,-145.5 138.38,-145.5 138.38,-145.5 97.38,-145.5"/>
<polygon fill="none" stroke="#bfbfbf" points="97.38,-129 97.38,-176.5 138.38,-176.5 138.38,-129 97.38,-129"/>
</a>
</g>
</g>
<!-- Node3&#45;&gt;Node1 -->
<g id="edge2_Node000001_Node000003" class="edge">
<title>Node3&#45;&gt;Node1</title>
<g id="a_edge2_Node000001_Node000003"><a xlink:title=" ">
<path fill="none" stroke="#63b8ff" d="M114.48,-129.14C113.19,-114.68 113.13,-95.76 118.62,-80 119.46,-77.61 120.46,-75.24 121.6,-72.92"/>
<polygon fill="none" stroke="#63b8ff" points="121.64,-72.85 121.24,-65.65 127.73,-62.52 128.13,-69.72 121.64,-72.85"/>
</a>
</g>
<text xml:space="preserve" text-anchor="start" x="121.62" y="-92.2" font-family="Arial" font-size="9.00" fill="grey">+srcAddr64</text>
</g>
<!-- Node4 -->
<g id="Node000004" class="node">
<title>Node4</title>
<g id="a_Node000004"><a xlink:title=" ">
<polygon fill="white" stroke="none" points="214.38,-176.5 173.38,-176.5 173.38,-129 214.38,-129 214.38,-176.5"/>
<text xml:space="preserve" text-anchor="start" x="177.38" y="-163.95" font-family="Arial" font-size="9.00">uint16_t</text>
<text xml:space="preserve" text-anchor="start" x="192.75" y="-149.45" font-family="Arial" font-size="9.00"> </text>
<text xml:space="preserve" text-anchor="start" x="192.75" y="-134.95" font-family="Arial" font-size="9.00"> </text>
<polygon fill="#bfbfbf" stroke="#bfbfbf" points="173.38,-160 173.38,-160 214.38,-160 214.38,-160 173.38,-160"/>
<polygon fill="#bfbfbf" stroke="#bfbfbf" points="173.38,-145.5 173.38,-145.5 214.38,-145.5 214.38,-145.5 173.38,-145.5"/>
<polygon fill="none" stroke="#bfbfbf" points="173.38,-129 173.38,-176.5 214.38,-176.5 214.38,-129 173.38,-129"/>
</a>
</g>
</g>
<!-- Node4&#45;&gt;Node1 -->
<g id="edge3_Node000001_Node000004" class="edge">
<title>Node4&#45;&gt;Node1</title>
<g id="a_edge3_Node000001_Node000004"><a xlink:title=" ">
<path fill="none" stroke="#63b8ff" d="M187.08,-129.09C182.8,-114.94 177.12,-96.38 171.88,-80 171.26,-78.08 170.63,-76.12 169.98,-74.13"/>
<polygon fill="none" stroke="#63b8ff" points="170,-74.18 164.33,-69.73 166.25,-62.78 171.93,-67.23 170,-74.18"/>
</a>
</g>
<text xml:space="preserve" text-anchor="start" x="184.11" y="-99.45" font-family="Arial" font-size="9.00" fill="grey">+atCmd</text>
<text xml:space="preserve" text-anchor="start" x="184.11" y="-84.95" font-family="Arial" font-size="9.00" fill="grey">+srcAddr16</text>
</g>
<!-- Node5 -->
<g id="Node000005" class="node">
<title>Node5</title>
<g id="a_Node000005"><a xlink:title=" ">
<polygon fill="white" stroke="none" points="307.62,-176.5 232.12,-176.5 232.12,-129 307.62,-129 307.62,-176.5"/>
<text xml:space="preserve" text-anchor="start" x="236.12" y="-163.95" font-family="Arial" font-size="9.00">vector&lt; uint8_t &gt;</text>
<text xml:space="preserve" text-anchor="start" x="268.75" y="-149.45" font-family="Arial" font-size="9.00"> </text>
<text xml:space="preserve" text-anchor="start" x="268.75" y="-134.95" font-family="Arial" font-size="9.00"> </text>
<polygon fill="#bfbfbf" stroke="#bfbfbf" points="232.12,-160 232.12,-160 307.62,-160 307.62,-160 232.12,-160"/>
<polygon fill="#bfbfbf" stroke="#bfbfbf" points="232.12,-145.5 232.12,-145.5 307.62,-145.5 307.62,-145.5 232.12,-145.5"/>
<polygon fill="none" stroke="#bfbfbf" points="232.12,-129 232.12,-176.5 307.62,-176.5 307.62,-129 232.12,-129"/>
</a>
</g>
</g>
<!-- Node5&#45;&gt;Node1 -->
<g id="edge4_Node000001_Node000005" class="edge">
<title>Node5&#45;&gt;Node1</title>
<g id="a_edge4_Node000001_Node000005"><a xlink:title=" ">
<path fill="none" stroke="#63b8ff" d="M263.75,-129.01C258.75,-113.78 250.43,-94.02 237.88,-80 234.56,-76.3 230.9,-72.81 227.01,-69.53"/>
<polygon fill="none" stroke="#63b8ff" points="227.18,-69.66 219.99,-69.18 217.67,-62.36 224.86,-62.84 227.18,-69.66"/>
</a>
</g>
<text xml:space="preserve" text-anchor="start" x="259.81" y="-92.2" font-family="Arial" font-size="9.00" fill="grey">+parameters</text>
</g>
</g>
</svg>
