<?xml version="1.0" encoding="UTF-8" standalone="no"?>
<!DOCTYPE svg PUBLIC "-//W3C//DTD SVG 1.1//EN"
 "http://www.w3.org/Graphics/SVG/1.1/DTD/svg11.dtd">
<!-- Generated by graphviz version 12.2.1 (20241206.2353)
 -->
<!-- Title: DigiApiFrameBuffer.hpp Pages: 1 -->
<svg width="178pt" height="196pt"
 viewBox="0.00 0.00 177.75 196.00" xmlns="http://www.w3.org/2000/svg" xmlns:xlink="http://www.w3.org/1999/xlink">
<g id="graph0" class="graph" transform="scale(1 1) rotate(0) translate(4 192)">
<title>DigiApiFrameBuffer.hpp</title>
<!-- Node1 -->
<g id="Node000001" class="node">
<title>Node1</title>
<g id="a_Node000001"><a xlink:title="This file contains the definition of the DigiApiFrameBuffer class.">
<polygon fill="#999999" stroke="#666666" points="169.75,-188 50.25,-188 50.25,-168 169.75,-168 169.75,-188"/>
<text text-anchor="middle" x="110" y="-174.5" font-family="Helvetica,sans-Serif" font-size="10.00">DigiApiFrameBuffer.hpp</text>
</a>
</g>
</g>
<!-- Node2 -->
<g id="Node000002" class="node">
<title>Node2</title>
<g id="a_Node000002"><a xlink:href="../../d1/d88/a00128.html" target="_top" xlink:title="Defines the Checksum class used for calculating the checksum of Digi API frames.">
<polygon fill="white" stroke="#666666" points="82,-132 0,-132 0,-112 82,-112 82,-132"/>
<text text-anchor="middle" x="41" y="-118.5" font-family="Helvetica,sans-Serif" font-size="10.00">Checksum.hpp</text>
</a>
</g>
</g>
<!-- Node1&#45;&gt;Node2 -->
<g id="edge1_Node000001_Node000002" class="edge">
<title>Node1&#45;&gt;Node2</title>
<g id="a_edge1_Node000001_Node000002"><a xlink:title=" ">
<path fill="none" stroke="#63b8ff" d="M89.15,-160.68C77.27,-151.39 62.83,-140.09 52.88,-132.3"/>
<polygon fill="#63b8ff" stroke="#63b8ff" points="86.76,-163.25 96.79,-166.66 91.07,-157.74 86.76,-163.25"/>
</a>
</g>
</g>
<!-- Node3 -->
<g id="Node000003" class="node">
<title>Node3</title>
<g id="a_Node000003"><a xlink:href="../../dc/de6/a00167.html" target="_top" xlink:title="This file contains the definition of the Protocol class used for handling XBee communication.">
<polygon fill="white" stroke="#666666" points="120.38,-76 49.62,-76 49.62,-56 120.38,-56 120.38,-76"/>
<text text-anchor="middle" x="85" y="-62.5" font-family="Helvetica,sans-Serif" font-size="10.00">Protocol.hpp</text>
</a>
</g>
</g>
<!-- Node1&#45;&gt;Node3 -->
<g id="edge5_Node000001_Node000003" class="edge">
<title>Node1&#45;&gt;Node3</title>
<g id="a_edge5_Node000001_Node000003"><a xlink:title=" ">
<path fill="none" stroke="#63b8ff" d="M105.37,-156.64C99.94,-132.72 91.14,-94.03 87.13,-76.35"/>
<polygon fill="#63b8ff" stroke="#63b8ff" points="101.9,-157.17 107.53,-166.15 108.73,-155.62 101.9,-157.17"/>
</a>
</g>
</g>
<!-- Node4 -->
<g id="Node000004" class="node">
<title>Node4</title>
<g id="a_Node000004"><a xlink:href="../../d7/d06/a00131.html" target="_top" xlink:title="Defines the ComDriver class for handling communication with the XBee module.">
<polygon fill="white" stroke="#666666" points="157,-20 75,-20 75,0 157,0 157,-20"/>
<text text-anchor="middle" x="116" y="-6.5" font-family="Helvetica,sans-Serif" font-size="10.00">ComDriver.hpp</text>
</a>
</g>
</g>
<!-- Node1&#45;&gt;Node4 -->
<g id="edge4_Node000001_Node000004" class="edge">
<title>Node1&#45;&gt;Node4</title>
<g id="a_edge4_Node000001_Node000004"><a xlink:title=" ">
<path fill="none" stroke="#63b8ff" d="M116.89,-156.74C124.19,-132.73 134.03,-91.5 129,-56 127.22,-43.44 122.78,-29.48 119.59,-20.49"/>
<polygon fill="#63b8ff" stroke="#63b8ff" points="113.59,-155.57 113.86,-166.16 120.25,-157.71 113.59,-155.57"/>
</a>
</g>
</g>
<!-- Node2&#45;&gt;Node3 -->
<g id="edge2_Node000002_Node000003" class="edge">
<title>Node2&#45;&gt;Node3</title>
<g id="a_edge2_Node000002_Node000003"><a xlink:title=" ">
<path fill="none" stroke="#63b8ff" d="M55.89,-102.72C63.13,-93.84 71.52,-83.55 77.42,-76.3"/>
<polygon fill="#63b8ff" stroke="#63b8ff" points="53.22,-100.46 49.62,-110.42 58.65,-104.88 53.22,-100.46"/>
</a>
</g>
</g>
<!-- Node3&#45;&gt;Node4 -->
<g id="edge3_Node000003_Node000004" class="edge">
<title>Node3&#45;&gt;Node4</title>
<g id="a_edge3_Node000003_Node000004"><a xlink:title=" ">
<path fill="none" stroke="#63b8ff" d="M95.98,-45.87C100.97,-37.19 106.63,-27.32 110.66,-20.3"/>
<polygon fill="#63b8ff" stroke="#63b8ff" points="93.1,-43.87 91.15,-54.28 99.17,-47.35 93.1,-43.87"/>
</a>
</g>
</g>
</g>
</svg>
