<?xml version="1.0" encoding="UTF-8" standalone="no"?>
<!DOCTYPE svg PUBLIC "-//W3C//DTD SVG 1.1//EN"
 "http://www.w3.org/Graphics/SVG/1.1/DTD/svg11.dtd">
<!-- Generated by graphviz version 13.1.0 (20250701.0955)
 -->
<!-- Title: Lib::BSP::EEPROM::I2C::M24C16::write Pages: 1 -->
<svg width="697pt" height="28pt"
 viewBox="0.00 0.00 697.00 28.00" xmlns="http://www.w3.org/2000/svg" xmlns:xlink="http://www.w3.org/1999/xlink">
<g id="graph0" class="graph" transform="scale(1 1) rotate(0) translate(4 24)">
<title>Lib::BSP::EEPROM::I2C::M24C16::write</title>
<!-- Node1 -->
<g id="Node000001" class="node">
<title>Node1</title>
<g id="a_Node000001"><a xlink:title="Writes data to the EEPROM.">
<polygon fill="#999999" stroke="#666666" points="196,-20 0,-20 0,0 196,0 196,-20"/>
<text xml:space="preserve" text-anchor="middle" x="98" y="-6.5" font-family="Helvetica,sans-Serif" font-size="10.00">Lib::BSP::EEPROM::I2C::M24C16::write</text>
</a>
</g>
</g>
<!-- Node2 -->
<g id="Node000002" class="node">
<title>Node2</title>
<g id="a_Node000002"><a xlink:href="../../d1/d8d/class_lib_1_1_b_s_p_1_1_e_e_p_r_o_m_1_1_i2_c_1_1_driver_base.html#a66769bd799f63f04a35dfb09358d5aa2" target="_top" xlink:title="Writes data to the EEPROM using 8&#45;bit memory addressing.">
<polygon fill="white" stroke="#666666" points="445.25,-20 232,-20 232,0 445.25,0 445.25,-20"/>
<text xml:space="preserve" text-anchor="middle" x="338.62" y="-6.5" font-family="Helvetica,sans-Serif" font-size="10.00">Lib::BSP::EEPROM::I2C::DriverBase::write8</text>
</a>
</g>
</g>
<!-- Node1&#45;&gt;Node2 -->
<g id="edge1_Node000001_Node000002" class="edge">
<title>Node1&#45;&gt;Node2</title>
<g id="a_edge1_Node000001_Node000002"><a xlink:title=" ">
<path fill="none" stroke="#63b8ff" d="M196.4,-10C204.29,-10 212.3,-10 220.3,-10"/>
<polygon fill="#63b8ff" stroke="#63b8ff" points="220.08,-13.5 230.08,-10 220.08,-6.5 220.08,-13.5"/>
</a>
</g>
</g>
<!-- Node3 -->
<g id="Node000003" class="node">
<title>Node3</title>
<g id="a_Node000003"><a xlink:href="../../d1/d8d/class_lib_1_1_b_s_p_1_1_e_e_p_r_o_m_1_1_i2_c_1_1_driver_base.html#ac9a6cb77bdd85caf6cecee2fc704cbbd" target="_top" xlink:title="Writes data to the EEPROM.">
<polygon fill="white" stroke="#666666" points="689.25,-20 481.25,-20 481.25,0 689.25,0 689.25,-20"/>
<text xml:space="preserve" text-anchor="middle" x="585.25" y="-6.5" font-family="Helvetica,sans-Serif" font-size="10.00">Lib::BSP::EEPROM::I2C::DriverBase::write</text>
</a>
</g>
</g>
<!-- Node2&#45;&gt;Node3 -->
<g id="edge2_Node000002_Node000003" class="edge">
<title>Node2&#45;&gt;Node3</title>
<g id="a_edge2_Node000002_Node000003"><a xlink:title=" ">
<path fill="none" stroke="#63b8ff" d="M445.5,-10C453.49,-10 461.57,-10 469.6,-10"/>
<polygon fill="#63b8ff" stroke="#63b8ff" points="469.41,-13.5 479.41,-10 469.41,-6.5 469.41,-13.5"/>
</a>
</g>
</g>
</g>
</svg>
