<?xml version="1.0" encoding="UTF-8" standalone="no"?>
<!DOCTYPE svg PUBLIC "-//W3C//DTD SVG 1.1//EN"
 "http://www.w3.org/Graphics/SVG/1.1/DTD/svg11.dtd">
<!-- Generated by graphviz version 14.0.5 (20251129.0259)
 -->
<!-- Title: Lib::Digi::Core::Protocol::processMessage Pages: 1 -->
<svg width="869pt" height="103pt"
 viewBox="0.00 0.00 869.00 103.00" xmlns="http://www.w3.org/2000/svg" xmlns:xlink="http://www.w3.org/1999/xlink">
<g id="graph0" class="graph" transform="scale(1 1) rotate(0) translate(4 99)">
<title>Lib::Digi::Core::Protocol::processMessage</title>
<!-- Node1 -->
<g id="Node000001" class="node">
<title>Node1</title>
<g id="a_Node000001"><a xlink:title="Dispatch a validated API frame to the appropriate response handler.">
<polygon fill="#999999" stroke="#666666" points="201.25,-58 0,-58 0,-38 201.25,-38 201.25,-58"/>
<text xml:space="preserve" text-anchor="middle" x="100.62" y="-44.5" font-family="Helvetica,sans-Serif" font-size="10.00">Lib::Digi::Core::Protocol::processMessage</text>
</a>
</g>
</g>
<!-- Node2 -->
<g id="Node000002" class="node">
<title>Node2</title>
<g id="a_Node000002"><a xlink:href="../../d6/d0f/a01256.html#a8b209721dbe50e02d609b63ba1ec0181" target="_top" xlink:title="Get the global ResponseEvents singleton instance.">
<polygon fill="white" stroke="#666666" points="440,-77 237.25,-77 237.25,-57 440,-57 440,-77"/>
<text xml:space="preserve" text-anchor="middle" x="338.62" y="-63.5" font-family="Helvetica,sans-Serif" font-size="10.00">Lib::Digi::Core::ResponseEvents::instance</text>
</a>
</g>
</g>
<!-- Node1&#45;&gt;Node2 -->
<g id="edge1_Node000001_Node000002" class="edge">
<title>Node1&#45;&gt;Node2</title>
<g id="a_edge1_Node000001_Node000002"><a xlink:title=" ">
<path fill="none" stroke="#63b8ff" d="M201.71,-56.06C209.65,-56.7 217.7,-57.35 225.72,-57.99"/>
<polygon fill="#63b8ff" stroke="#63b8ff" points="225.25,-61.46 235.5,-58.78 225.81,-54.49 225.25,-61.46"/>
</a>
</g>
</g>
<!-- Node3 -->
<g id="Node000003" class="node">
<title>Node3</title>
<g id="a_Node000003"><a xlink:href="../../dc/db6/a01212.html#a6bd092270e035cdbd6bc580d43f7490a" target="_top" xlink:title="Parse an ApiFrameBuffer into a Frame::Data structure.">
<polygon fill="white" stroke="#666666" points="414.12,-39 263.12,-39 263.12,-19 414.12,-19 414.12,-39"/>
<text xml:space="preserve" text-anchor="middle" x="338.62" y="-25.5" font-family="Helvetica,sans-Serif" font-size="10.00">Lib::Digi::Core::Protocol::parse</text>
</a>
</g>
</g>
<!-- Node1&#45;&gt;Node3 -->
<g id="edge3_Node000001_Node000003" class="edge">
<title>Node1&#45;&gt;Node3</title>
<g id="a_edge3_Node000001_Node000003"><a xlink:title=" ">
<path fill="none" stroke="#63b8ff" d="M201.71,-39.94C218.35,-38.6 235.47,-37.22 251.72,-35.92"/>
<polygon fill="#63b8ff" stroke="#63b8ff" points="251.61,-39.44 261.3,-35.14 251.05,-32.46 251.61,-39.44"/>
</a>
</g>
</g>
<!-- Node2&#45;&gt;Node2 -->
<g id="edge2_Node000002_Node000002" class="edge">
<title>Node2&#45;&gt;Node2</title>
<g id="a_edge2_Node000002_Node000002"><a xlink:title=" ">
<path fill="none" stroke="#63b8ff" d="M304.2,-77.48C289.97,-86.08 301.44,-95 338.62,-95 359.54,-95 372.32,-92.18 376.97,-88.18"/>
<polygon fill="#63b8ff" stroke="#63b8ff" points="380.3,-87.09 373.57,-78.91 373.73,-89.5 380.3,-87.09"/>
</a>
</g>
</g>
<!-- Node4 -->
<g id="Node000004" class="node">
<title>Node4</title>
<g id="a_Node000004"><a xlink:href="../../dc/d64/a01140.html#af330a9ce26933f4495d1e727a6394423" target="_top" xlink:title="Access the internal buffer for modification.">
<polygon fill="white" stroke="#666666" points="860.5,-58 667.5,-58 667.5,-38 860.5,-38 860.5,-58"/>
<text xml:space="preserve" text-anchor="middle" x="764" y="-44.5" font-family="Helvetica,sans-Serif" font-size="10.00">Lib::Digi::Core::ApiFrameBuffer::getData</text>
</a>
</g>
</g>
<!-- Node3&#45;&gt;Node4 -->
<g id="edge4_Node000003_Node000004" class="edge">
<title>Node3&#45;&gt;Node4</title>
<g id="a_edge4_Node000003_Node000004"><a xlink:title=" ">
<path fill="none" stroke="#63b8ff" d="M414.34,-32.35C481.29,-35.36 580.27,-39.8 655.68,-43.18"/>
<polygon fill="#63b8ff" stroke="#63b8ff" points="655.44,-46.68 665.59,-43.63 655.76,-39.68 655.44,-46.68"/>
</a>
</g>
</g>
<!-- Node5 -->
<g id="Node000005" class="node">
<title>Node5</title>
<g id="a_Node000005"><a xlink:href="../../dc/db6/a01212.html#a3e4e1a9ec8c49987cdd4ca168ad1885c" target="_top" xlink:title="Validate an ApiFrameBuffer for correct framing and checksum.">
<polygon fill="white" stroke="#666666" points="631.5,-20 476,-20 476,0 631.5,0 631.5,-20"/>
<text xml:space="preserve" text-anchor="middle" x="553.75" y="-6.5" font-family="Helvetica,sans-Serif" font-size="10.00">Lib::Digi::Core::Protocol::isValid</text>
</a>
</g>
</g>
<!-- Node3&#45;&gt;Node5 -->
<g id="edge5_Node000003_Node000005" class="edge">
<title>Node3&#45;&gt;Node5</title>
<g id="a_edge5_Node000003_Node000005"><a xlink:title=" ">
<path fill="none" stroke="#63b8ff" d="M414.47,-22.33C430.54,-20.89 447.68,-19.37 464.23,-17.89"/>
<polygon fill="#63b8ff" stroke="#63b8ff" points="464.41,-21.39 474.06,-17.02 463.79,-14.42 464.41,-21.39"/>
</a>
</g>
</g>
<!-- Node5&#45;&gt;Node4 -->
<g id="edge6_Node000005_Node000004" class="edge">
<title>Node5&#45;&gt;Node4</title>
<g id="a_edge6_Node000005_Node000004"><a xlink:title=" ">
<path fill="none" stroke="#63b8ff" d="M612.21,-20.48C637.7,-25.14 667.9,-30.65 694.55,-35.51"/>
<polygon fill="#63b8ff" stroke="#63b8ff" points="693.78,-38.93 704.24,-37.28 695.03,-32.04 693.78,-38.93"/>
</a>
</g>
</g>
<!-- Node6 -->
<g id="Node000006" class="node">
<title>Node6</title>
<g id="a_Node000006"><a xlink:href="../../dc/d64/a01140.html#aee12a2741eeba5e11e1fa84b36d86842" target="_top" xlink:title="Get the current number of bytes stored in the buffer.">
<polygon fill="white" stroke="#666666" points="859.75,-20 668.25,-20 668.25,0 859.75,0 859.75,-20"/>
<text xml:space="preserve" text-anchor="middle" x="764" y="-6.5" font-family="Helvetica,sans-Serif" font-size="10.00">Lib::Digi::Core::ApiFrameBuffer::getSize</text>
</a>
</g>
</g>
<!-- Node5&#45;&gt;Node6 -->
<g id="edge7_Node000005_Node000006" class="edge">
<title>Node5&#45;&gt;Node6</title>
<g id="a_edge7_Node000005_Node000006"><a xlink:title=" ">
<path fill="none" stroke="#63b8ff" d="M632,-10C640.04,-10 648.3,-10 656.59,-10"/>
<polygon fill="#63b8ff" stroke="#63b8ff" points="656.37,-13.5 666.37,-10 656.37,-6.5 656.37,-13.5"/>
</a>
</g>
</g>
</g>
</svg>
