<?xml version="1.0" encoding="UTF-8" standalone="no"?>
<!DOCTYPE svg PUBLIC "-//W3C//DTD SVG 1.1//EN"
 "http://www.w3.org/Graphics/SVG/1.1/DTD/svg11.dtd">
<!-- Generated by graphviz version 10.0.1 (20240210.2158)
 -->
<!-- Title: Lib::Xbee::API::Service::NetworkDiscovery::open Pages: 1 -->
<svg width="286pt" height="90pt"
 viewBox="0.00 0.00 286.00 90.00" xmlns="http://www.w3.org/2000/svg" xmlns:xlink="http://www.w3.org/1999/xlink">
<g id="graph0" class="graph" transform="scale(1 1) rotate(0) translate(4 86)">
<title>Lib::Xbee::API::Service::NetworkDiscovery::open</title>
<!-- Node1 -->
<g id="Node000001" class="node">
<title>Node1</title>
<g id="a_Node000001"><a xlink:title="Opens the NetworkDiscovery service.">
<polygon fill="#999999" stroke="#666666" points="126.25,-57 0,-57 0,-25 126.25,-25 126.25,-57"/>
<text text-anchor="start" x="8" y="-43.5" font-family="Helvetica,sans-Serif" font-size="10.00">Lib::Xbee::API::Service</text>
<text text-anchor="middle" x="63.12" y="-31.5" font-family="Helvetica,sans-Serif" font-size="10.00">::NetworkDiscovery::open</text>
</a>
</g>
</g>
<!-- Node2 -->
<g id="Node000002" class="node">
<title>Node2</title>
<g id="a_Node000002"><a xlink:href="../../d9/d9b/a00363.html#a65aca1cfb5fb04ac4069fb90af77f406" target="_top" xlink:title="Opens the service and marks it as open.">
<polygon fill="white" stroke="#666666" points="277.62,-82 162.62,-82 162.62,-50 277.62,-50 277.62,-82"/>
<text text-anchor="start" x="170.62" y="-68.5" font-family="Helvetica,sans-Serif" font-size="10.00">Lib::Xbee::API::Service</text>
<text text-anchor="middle" x="220.12" y="-56.5" font-family="Helvetica,sans-Serif" font-size="10.00">::ServiceBase::open</text>
</a>
</g>
</g>
<!-- Node1&#45;&gt;Node2 -->
<g id="edge1_Node000001_Node000002" class="edge">
<title>Node1&#45;&gt;Node2</title>
<g id="a_edge1_Node000001_Node000002"><a xlink:title=" ">
<path fill="none" stroke="#63b8ff" d="M126.72,-51.1C134.72,-52.39 142.93,-53.71 151.01,-55.01"/>
<polygon fill="#63b8ff" stroke="#63b8ff" points="150.38,-58.46 160.8,-56.59 151.49,-51.55 150.38,-58.46"/>
</a>
</g>
</g>
<!-- Node3 -->
<g id="Node000003" class="node">
<title>Node3</title>
<g id="a_Node000003"><a xlink:href="../../d3/d29/a00419.html#ac53f5cddbff1a90c0f920273501f62b4" target="_top" xlink:title="Converts a value of type T to a void pointer.">
<polygon fill="white" stroke="#666666" points="278,-32 162.25,-32 162.25,0 278,0 278,-32"/>
<text text-anchor="start" x="170.25" y="-18.5" font-family="Helvetica,sans-Serif" font-size="10.00">Lib::Xbee::Core::Frame</text>
<text text-anchor="middle" x="220.12" y="-6.5" font-family="Helvetica,sans-Serif" font-size="10.00">::Helper::Convert::to</text>
</a>
</g>
</g>
<!-- Node1&#45;&gt;Node3 -->
<g id="edge2_Node000001_Node000003" class="edge">
<title>Node1&#45;&gt;Node3</title>
<g id="a_edge2_Node000001_Node000003"><a xlink:title=" ">
<path fill="none" stroke="#63b8ff" d="M126.72,-30.9C134.6,-29.63 142.7,-28.33 150.66,-27.04"/>
<polygon fill="#63b8ff" stroke="#63b8ff" points="150.99,-30.53 160.31,-25.49 149.88,-23.62 150.99,-30.53"/>
</a>
</g>
</g>
</g>
</svg>
