<?xml version="1.0" encoding="UTF-8" standalone="no"?>
<!DOCTYPE svg PUBLIC "-//W3C//DTD SVG 1.1//EN"
 "http://www.w3.org/Graphics/SVG/1.1/DTD/svg11.dtd">
<!-- Generated by graphviz version 13.1.0 (20250701.0955)
 -->
<!-- Title: Lib::USB::SerialPort::Config Pages: 1 -->
<svg width="268pt" height="204pt"
 viewBox="0.00 0.00 268.00 204.00" xmlns="http://www.w3.org/2000/svg" xmlns:xlink="http://www.w3.org/1999/xlink">
<g id="graph0" class="graph" transform="scale(1 1) rotate(0) translate(4 200)">
<title>Lib::USB::SerialPort::Config</title>
<!-- Node1 -->
<g id="Node000001" class="node">
<title>Node1</title>
<g id="a_Node000001"><a xlink:title="Configuration for the SerialPort.">
<polygon fill="#999999" stroke="none" points="151.5,-32 55,-32 55,0 151.5,0 151.5,-32"/>
<text xml:space="preserve" text-anchor="start" x="59" y="-18.5" font-family="Helvetica,sans-Serif" font-size="10.00">Lib::USB::SerialPort</text>
<text xml:space="preserve" text-anchor="start" x="86" y="-6.5" font-family="Helvetica,sans-Serif" font-size="10.00">::Config</text>
<polygon fill="none" stroke="#666666" points="55,0 55,-32 151.5,-32 151.5,0 55,0"/>
</a>
</g>
</g>
<!-- Node2 -->
<g id="Node000002" class="node">
<title>Node2</title>
<g id="a_Node000002"><a xlink:title=" ">
<polygon fill="white" stroke="none" points="114.5,-122 0,-122 0,-102 114.5,-102 114.5,-122"/>
<text xml:space="preserve" text-anchor="start" x="4" y="-108.5" font-family="Helvetica,sans-Serif" font-size="10.00">UART_HandleTypeDef *</text>
<polygon fill="none" stroke="#bfbfbf" points="0,-102 0,-122 114.5,-122 114.5,-102 0,-102"/>
</a>
</g>
</g>
<!-- Node2&#45;&gt;Node1 -->
<g id="edge1_Node000001_Node000002" class="edge">
<title>Node2&#45;&gt;Node1</title>
<g id="a_edge1_Node000001_Node000002"><a xlink:title=" ">
<path fill="none" stroke="#63b8ff" d="M59.3,-102.36C62.38,-90.21 68.87,-67.59 78.25,-50 79.62,-47.42 81.19,-44.83 82.86,-42.3"/>
<polygon fill="none" stroke="#63b8ff" points="82.92,-42.21 83.2,-35.01 89.95,-32.49 89.68,-39.7 82.92,-42.21"/>
</a>
</g>
<text xml:space="preserve" text-anchor="start" x="81.25" y="-71.5" font-family="Helvetica,sans-Serif" font-size="10.00" fill="grey">+rxPortHandle</text>
<text xml:space="preserve" text-anchor="start" x="81.25" y="-55.5" font-family="Helvetica,sans-Serif" font-size="10.00" fill="grey">+txPortHandle</text>
</g>
<!-- Node3 -->
<g id="Node000003" class="node">
<title>Node3</title>
<g id="a_Node000003"><a xlink:href="../../d3/d9a/class_lib_1_1_h_a_l_1_1_g_p_i_o_1_1_handle.html" target="_top" xlink:title="GPIO pin handle abstraction.">
<polygon fill="white" stroke="none" points="246.12,-122 132.38,-122 132.38,-102 246.12,-102 246.12,-122"/>
<text xml:space="preserve" text-anchor="start" x="136.38" y="-108.5" font-family="Helvetica,sans-Serif" font-size="10.00">Lib::HAL::GPIO::Handle</text>
<polygon fill="none" stroke="#666666" points="132.38,-102 132.38,-122 246.12,-122 246.12,-102 132.38,-102"/>
</a>
</g>
</g>
<!-- Node3&#45;&gt;Node1 -->
<g id="edge2_Node000001_Node000003" class="edge">
<title>Node3&#45;&gt;Node1</title>
<g id="a_edge2_Node000001_Node000003"><a xlink:title=" ">
<path fill="none" stroke="#63b8ff" d="M184.34,-102.06C177.22,-89.55 163.1,-66.51 147.25,-50 143.78,-46.38 139.88,-42.86 135.88,-39.55"/>
<polygon fill="none" stroke="#63b8ff" points="136.08,-39.71 128.89,-39.2 126.6,-32.36 133.79,-32.88 136.08,-39.71"/>
</a>
</g>
<text xml:space="preserve" text-anchor="start" x="175.92" y="-63.5" font-family="Helvetica,sans-Serif" font-size="10.00" fill="grey">+pinNRST</text>
</g>
<!-- Node4 -->
<g id="Node000004" class="node">
<title>Node4</title>
<g id="a_Node000004"><a xlink:title=" ">
<polygon fill="white" stroke="none" points="190,-196 108.5,-196 108.5,-176 190,-176 190,-196"/>
<text xml:space="preserve" text-anchor="start" x="112.5" y="-182.5" font-family="Helvetica,sans-Serif" font-size="10.00">GPIO_TypeDef *</text>
<polygon fill="none" stroke="#bfbfbf" points="108.5,-176 108.5,-196 190,-196 190,-176 108.5,-176"/>
</a>
</g>
</g>
<!-- Node4&#45;&gt;Node3 -->
<g id="edge3_Node000003_Node000004" class="edge">
<title>Node4&#45;&gt;Node3</title>
<g id="a_edge3_Node000003_Node000004"><a xlink:title=" ">
<path fill="none" stroke="#63b8ff" d="M154.15,-176.17C160.09,-165.48 170.27,-147.16 178.15,-132.99"/>
<polygon fill="none" stroke="#63b8ff" points="178.04,-133.18 177.46,-125.99 183.87,-122.69 184.45,-129.88 178.04,-133.18"/>
</a>
</g>
<text xml:space="preserve" text-anchor="start" x="177.01" y="-145.5" font-family="Helvetica,sans-Serif" font-size="10.00" fill="grey">+port</text>
</g>
<!-- Node5 -->
<g id="Node000005" class="node">
<title>Node5</title>
<g id="a_Node000005"><a xlink:title=" ">
<polygon fill="white" stroke="none" points="250.5,-196 208,-196 208,-176 250.5,-176 250.5,-196"/>
<text xml:space="preserve" text-anchor="start" x="212" y="-182.5" font-family="Helvetica,sans-Serif" font-size="10.00">uint16_t</text>
<polygon fill="none" stroke="#bfbfbf" points="208,-176 208,-196 250.5,-196 250.5,-176 208,-176"/>
</a>
</g>
</g>
<!-- Node5&#45;&gt;Node3 -->
<g id="edge4_Node000003_Node000005" class="edge">
<title>Node5&#45;&gt;Node3</title>
<g id="a_edge4_Node000003_Node000005"><a xlink:title=" ">
<path fill="none" stroke="#63b8ff" d="M225.07,-176.25C220.62,-167.09 213.28,-152.35 206.25,-140 204.88,-137.59 203.4,-135.1 201.9,-132.64"/>
<polygon fill="none" stroke="#63b8ff" points="202,-132.79 195.41,-129.85 195.6,-122.64 202.18,-125.59 202,-132.79"/>
</a>
</g>
<text xml:space="preserve" text-anchor="start" x="218.49" y="-145.5" font-family="Helvetica,sans-Serif" font-size="10.00" fill="grey">+number</text>
</g>
</g>
</svg>
