<?xml version="1.0" encoding="UTF-8" standalone="no"?>
<!DOCTYPE svg PUBLIC "-//W3C//DTD SVG 1.1//EN"
 "http://www.w3.org/Graphics/SVG/1.1/DTD/svg11.dtd">
<!-- Generated by graphviz version 12.2.1 (20241206.2353)
 -->
<!-- Title: Lib::Digi::API::Service::Manager Pages: 1 -->
<svg width="114pt" height="220pt"
 viewBox="0.00 0.00 113.50 220.00" xmlns="http://www.w3.org/2000/svg" xmlns:xlink="http://www.w3.org/1999/xlink">
<g id="graph0" class="graph" transform="scale(1 1) rotate(0) translate(4 216)">
<title>Lib::Digi::API::Service::Manager</title>
<!-- Node1 -->
<g id="Node000001" class="node">
<title>Node1</title>
<g id="a_Node000001"><a xlink:title="Manages a collection of ServiceBase objects.">
<polygon fill="#999999" stroke="none" points="105.5,-112 0,-112 0,0 105.5,0 105.5,-112"/>
<text text-anchor="start" x="4" y="-98.5" font-family="Helvetica,sans-Serif" font-size="10.00">Lib::Digi::API::Service</text>
<text text-anchor="start" x="31" y="-86.5" font-family="Helvetica,sans-Serif" font-size="10.00">::Manager</text>
<text text-anchor="start" x="51.25" y="-70.5" font-family="Helvetica,sans-Serif" font-size="10.00"> </text>
<text text-anchor="start" x="11.62" y="-54.5" font-family="Helvetica,sans-Serif" font-size="10.00">+</text>
<text text-anchor="start" x="29.25" y="-54.5" font-family="Helvetica,sans-Serif" font-size="10.00">add()</text>
<text text-anchor="start" x="11.62" y="-38.5" font-family="Helvetica,sans-Serif" font-size="10.00">+</text>
<text text-anchor="start" x="29.25" y="-38.5" font-family="Helvetica,sans-Serif" font-size="10.00">remove()</text>
<text text-anchor="start" x="11.62" y="-22.5" font-family="Helvetica,sans-Serif" font-size="10.00">+</text>
<text text-anchor="start" x="29.25" y="-22.5" font-family="Helvetica,sans-Serif" font-size="10.00">update()</text>
<text text-anchor="start" x="11.62" y="-6.5" font-family="Helvetica,sans-Serif" font-size="10.00">+</text>
<text text-anchor="start" x="29.25" y="-6.5" font-family="Helvetica,sans-Serif" font-size="10.00">getInstance()</text>
<polygon fill="#666666" stroke="#666666" points="0,-82 0,-82 105.5,-82 105.5,-82 0,-82"/>
<polygon fill="#666666" stroke="#666666" points="0,-66 0,-66 105.5,-66 105.5,-66 0,-66"/>
<polygon fill="none" stroke="#666666" points="0,0 0,-112 105.5,-112 105.5,0 0,0"/>
</a>
</g>
</g>
<!-- Node2 -->
<g id="Node000002" class="node">
<title>Node2</title>
<g id="a_Node000002"><a xlink:title=" ">
<polygon fill="white" stroke="none" points="104.38,-212 1.12,-212 1.12,-148 104.38,-148 104.38,-212"/>
<text text-anchor="start" x="5.12" y="-198.5" font-family="Helvetica,sans-Serif" font-size="10.00">Lib::Helper::Container</text>
<text text-anchor="start" x="16" y="-186.5" font-family="Helvetica,sans-Serif" font-size="10.00">&lt; ServiceBase &gt;</text>
<text text-anchor="start" x="51.25" y="-170.5" font-family="Helvetica,sans-Serif" font-size="10.00"> </text>
<text text-anchor="start" x="51.25" y="-154.5" font-family="Helvetica,sans-Serif" font-size="10.00"> </text>
<polygon fill="#bfbfbf" stroke="#bfbfbf" points="1.12,-182 1.12,-182 104.38,-182 104.38,-182 1.12,-182"/>
<polygon fill="#bfbfbf" stroke="#bfbfbf" points="1.12,-166 1.12,-166 104.38,-166 104.38,-166 1.12,-166"/>
<polygon fill="none" stroke="#bfbfbf" points="1.12,-148 1.12,-212 104.38,-212 104.38,-148 1.12,-148"/>
</a>
</g>
</g>
<!-- Node2&#45;&gt;Node1 -->
<g id="edge1_Node000001_Node000002" class="edge">
<title>Node2&#45;&gt;Node1</title>
<g id="a_edge1_Node000001_Node000002"><a xlink:title=" ">
<path fill="none" stroke="#8b1a1a" d="M52.75,-136.88C52.75,-128.86 52.75,-120.35 52.75,-112"/>
<polygon fill="none" stroke="#8b1a1a" points="49.25,-136.7 52.75,-146.7 56.25,-136.7 49.25,-136.7"/>
</a>
</g>
</g>
</g>
</svg>
