<?xml version="1.0" encoding="UTF-8" standalone="no"?>
<!DOCTYPE svg PUBLIC "-//W3C//DTD SVG 1.1//EN"
 "http://www.w3.org/Graphics/SVG/1.1/DTD/svg11.dtd">
<!-- Generated by graphviz version 13.1.0 (20250701.0955)
 -->
<!-- Title: Lib::BSP::Beep::Config Pages: 1 -->
<svg width="118pt" height="76pt"
 viewBox="0.00 0.00 118.00 76.00" xmlns="http://www.w3.org/2000/svg" xmlns:xlink="http://www.w3.org/1999/xlink">
<g id="graph0" class="graph" transform="scale(1 1) rotate(0) translate(4 72)">
<title>Lib::BSP::Beep::Config</title>
<!-- Node1 -->
<g id="Node000001" class="node">
<title>Node1</title>
<g id="a_Node000001"><a xlink:title="Beep configuration structure.">
<polygon fill="#999999" stroke="none" points="110,-68 0,-68 0,0 110,0 110,-68"/>
<text xml:space="preserve" text-anchor="start" x="4" y="-54.5" font-family="Helvetica,sans-Serif" font-size="10.00">Lib::BSP::Beep::Config</text>
<text xml:space="preserve" text-anchor="start" x="12.56" y="-38.5" font-family="Helvetica,sans-Serif" font-size="10.00">+</text>
<text xml:space="preserve" text-anchor="start" x="31.12" y="-38.5" font-family="Helvetica,sans-Serif" font-size="10.00">timerHandle</text>
<text xml:space="preserve" text-anchor="start" x="12.56" y="-22.5" font-family="Helvetica,sans-Serif" font-size="10.00">+</text>
<text xml:space="preserve" text-anchor="start" x="31.12" y="-22.5" font-family="Helvetica,sans-Serif" font-size="10.00">timerChannel</text>
<text xml:space="preserve" text-anchor="start" x="53.5" y="-6.5" font-family="Helvetica,sans-Serif" font-size="10.00"> </text>
<polygon fill="#666666" stroke="#666666" points="0,-50 0,-50 110,-50 110,-50 0,-50"/>
<polygon fill="#666666" stroke="#666666" points="0,-18 0,-18 29.12,-18 29.12,-18 0,-18"/>
<polygon fill="#666666" stroke="#666666" points="29.12,-18 29.12,-18 110,-18 110,-18 29.12,-18"/>
<polygon fill="none" stroke="#666666" points="0,0 0,-68 110,-68 110,0 0,0"/>
</a>
</g>
</g>
</g>
</svg>
