<?xml version="1.0" encoding="UTF-8" standalone="no"?>
<!DOCTYPE svg PUBLIC "-//W3C//DTD SVG 1.1//EN"
 "http://www.w3.org/Graphics/SVG/1.1/DTD/svg11.dtd">
<!-- Generated by graphviz version 13.1.0 (20250701.0955)
 -->
<!-- Title: System::Parameters::Data::PeripheralGrouping Pages: 1 -->
<svg width="126pt" height="81pt"
 viewBox="0.00 0.00 126.00 81.00" xmlns="http://www.w3.org/2000/svg" xmlns:xlink="http://www.w3.org/1999/xlink">
<g id="graph0" class="graph" transform="scale(1 1) rotate(0) translate(4 76.5)">
<title>System::Parameters::Data::PeripheralGrouping</title>
<!-- Node1 -->
<g id="Node000001" class="node">
<title>Node1</title>
<g id="a_Node000001"><a xlink:title="Peripheral grouping configuration.">
<polygon fill="#999999" stroke="none" points="117.5,-72.5 0,-72.5 0,0 117.5,0 117.5,-72.5"/>
<text xml:space="preserve" text-anchor="start" x="4" y="-59.95" font-family="Arial" font-size="9.00">System::Parameters</text>
<text xml:space="preserve" text-anchor="start" x="4" y="-49.45" font-family="Arial" font-size="9.00">::Data::PeripheralGrouping</text>
<text xml:space="preserve" text-anchor="start" x="7.12" y="-34.95" font-family="Arial" font-size="9.00">+</text>
<text xml:space="preserve" text-anchor="start" x="19.5" y="-34.95" font-family="Arial" font-size="9.00">uint8_t outputsNum</text>
<text xml:space="preserve" text-anchor="start" x="7.12" y="-20.45" font-family="Arial" font-size="9.00">+</text>
<text xml:space="preserve" text-anchor="start" x="19.5" y="-20.45" font-family="Arial" font-size="9.00">uint16_t switchPeriod</text>
<text xml:space="preserve" text-anchor="start" x="57.62" y="-5.95" font-family="Arial" font-size="9.00"> </text>
<polygon fill="#666666" stroke="#666666" points="0,-45.5 0,-45.5 117.5,-45.5 117.5,-45.5 0,-45.5"/>
<polygon fill="#666666" stroke="#666666" points="0,-16.5 0,-16.5 17.5,-16.5 17.5,-16.5 0,-16.5"/>
<polygon fill="#666666" stroke="#666666" points="17.5,-16.5 17.5,-16.5 117.5,-16.5 117.5,-16.5 17.5,-16.5"/>
<polygon fill="none" stroke="#666666" points="0,0 0,-72.5 117.5,-72.5 117.5,0 0,0"/>
</a>
</g>
</g>
</g>
</svg>
