<?xml version="1.0" encoding="UTF-8" standalone="no"?>
<!DOCTYPE svg PUBLIC "-//W3C//DTD SVG 1.1//EN"
 "http://www.w3.org/Graphics/SVG/1.1/DTD/svg11.dtd">
<!-- Generated by graphviz version 12.2.1 (20241206.2353)
 -->
<!-- Title: RemoteAtCommand.hpp Pages: 1 -->
<svg width="1472pt" height="220pt"
 viewBox="0.00 0.00 1472.12 220.00" xmlns="http://www.w3.org/2000/svg" xmlns:xlink="http://www.w3.org/1999/xlink">
<g id="graph0" class="graph" transform="scale(1 1) rotate(0) translate(4 216)">
<title>RemoteAtCommand.hpp</title>
<!-- Node1 -->
<g id="Node000001" class="node">
<title>Node1</title>
<g id="a_Node000001"><a xlink:title="This file contains the definition of the RemoteAtCommand class, which is used to send and receive rem...">
<polygon fill="#999999" stroke="#666666" points="1113,-212 989,-212 989,-192 1113,-192 1113,-212"/>
<text text-anchor="middle" x="1051" y="-198.5" font-family="Helvetica,sans-Serif" font-size="10.00">RemoteAtCommand.hpp</text>
</a>
</g>
</g>
<!-- Node2 -->
<g id="Node000002" class="node">
<title>Node2</title>
<g id="a_Node000002"><a xlink:href="../../dc/dfe/a00125.html" target="_top" xlink:title="Defines the AtCommandString class used for handling AT command strings in the Xbee library.">
<polygon fill="white" stroke="#666666" points="251.5,-156 136.5,-156 136.5,-136 251.5,-136 251.5,-156"/>
<text text-anchor="middle" x="194" y="-142.5" font-family="Helvetica,sans-Serif" font-size="10.00">AtCommandString.hpp</text>
</a>
</g>
</g>
<!-- Node1&#45;&gt;Node2 -->
<g id="edge1_Node000001_Node000002" class="edge">
<title>Node1&#45;&gt;Node2</title>
<g id="a_edge1_Node000001_Node000002"><a xlink:title=" ">
<path fill="none" stroke="#63b8ff" d="M988.68,-197.07C832.67,-187.24 426.18,-161.63 263.14,-151.36"/>
<polygon fill="#63b8ff" stroke="#63b8ff" points="263.54,-147.87 253.34,-150.74 263.1,-154.86 263.54,-147.87"/>
</a>
</g>
</g>
<!-- Node4 -->
<g id="Node000004" class="node">
<title>Node4</title>
<g id="a_Node000004"><a xlink:href="../../db/ddf/a00164.html" target="_top" xlink:title="This file contains the definition of the Module class, which is part of the Lib::Xbee::Core namespace...">
<polygon fill="white" stroke="#666666" points="509.12,-156 442.88,-156 442.88,-136 509.12,-136 509.12,-156"/>
<text text-anchor="middle" x="476" y="-142.5" font-family="Helvetica,sans-Serif" font-size="10.00">Module.hpp</text>
</a>
</g>
</g>
<!-- Node1&#45;&gt;Node4 -->
<g id="edge3_Node000001_Node000004" class="edge">
<title>Node1&#45;&gt;Node4</title>
<g id="a_edge3_Node000001_Node000004"><a xlink:title=" ">
<path fill="none" stroke="#63b8ff" d="M988.64,-195.14C871.89,-184.18 622.89,-160.8 520.94,-151.22"/>
<polygon fill="#63b8ff" stroke="#63b8ff" points="521.33,-147.74 511.05,-150.29 520.68,-154.71 521.33,-147.74"/>
</a>
</g>
</g>
<!-- Node12 -->
<g id="Node000012" class="node">
<title>Node12</title>
<g id="a_Node000012"><a xlink:href="../../d7/d25/a00182.html" target="_top" xlink:title="Defines the Frame0x17 class for handling Remote AT Command Request frames in the Xbee library.">
<polygon fill="white" stroke="#666666" points="829.12,-156 708.88,-156 708.88,-136 829.12,-136 829.12,-156"/>
<text text-anchor="middle" x="769" y="-142.5" font-family="Helvetica,sans-Serif" font-size="10.00">Queries/Frame0x17.hpp</text>
</a>
</g>
</g>
<!-- Node1&#45;&gt;Node12 -->
<g id="edge11_Node000001_Node000012" class="edge">
<title>Node1&#45;&gt;Node12</title>
<g id="a_edge11_Node000001_Node000012"><a xlink:title=" ">
<path fill="none" stroke="#63b8ff" d="M1001.56,-191.53C953.68,-182.36 881,-168.45 829.65,-158.61"/>
<polygon fill="#63b8ff" stroke="#63b8ff" points="830.35,-155.18 819.87,-156.74 829.04,-162.06 830.35,-155.18"/>
</a>
</g>
</g>
<!-- Node14 -->
<g id="Node000014" class="node">
<title>Node14</title>
<g id="a_Node000014"><a xlink:href="../../da/d15/a00188.html" target="_top" xlink:title="Defines the QueueMessage class used in the Lib::Xbee::Core namespace.">
<polygon fill="white" stroke="#666666" points="1142.5,-156 1039.5,-156 1039.5,-136 1142.5,-136 1142.5,-156"/>
<text text-anchor="middle" x="1091" y="-142.5" font-family="Helvetica,sans-Serif" font-size="10.00">QueueMessage.hpp</text>
</a>
</g>
</g>
<!-- Node1&#45;&gt;Node14 -->
<g id="edge14_Node000001_Node000014" class="edge">
<title>Node1&#45;&gt;Node14</title>
<g id="a_edge14_Node000001_Node000014"><a xlink:title=" ">
<path fill="none" stroke="#63b8ff" d="M1057.97,-191.59C1063.3,-184.39 1070.83,-174.23 1077.35,-165.43"/>
<polygon fill="#63b8ff" stroke="#63b8ff" points="1080.07,-167.63 1083.21,-157.51 1074.45,-163.47 1080.07,-167.63"/>
</a>
</g>
</g>
<!-- Node15 -->
<g id="Node000015" class="node">
<title>Node15</title>
<g id="a_Node000015"><a xlink:title=" ">
<polygon fill="#e0e0e0" stroke="#999999" points="1032.5,-94 989.5,-94 989.5,-74 1032.5,-74 1032.5,-94"/>
<text text-anchor="middle" x="1011" y="-80.5" font-family="Helvetica,sans-Serif" font-size="10.00">vector</text>
</a>
</g>
</g>
<!-- Node1&#45;&gt;Node15 -->
<g id="edge24_Node000001_Node000015" class="edge">
<title>Node1&#45;&gt;Node15</title>
<g id="a_edge24_Node000001_Node000015"><a xlink:title=" ">
<path fill="none" stroke="#63b8ff" d="M1046.3,-191.51C1041.96,-182.51 1035.53,-168.54 1031,-156 1024.95,-139.23 1019.56,-119.7 1015.91,-105.38"/>
<polygon fill="#63b8ff" stroke="#63b8ff" points="1019.34,-104.66 1013.54,-95.79 1012.54,-106.34 1019.34,-104.66"/>
</a>
</g>
</g>
<!-- Node16 -->
<g id="Node000016" class="node">
<title>Node16</title>
<g id="a_Node000016"><a xlink:href="../../dc/d9a/a00218.html" target="_top" xlink:title="Defines the Frame0x97 class for handling XBee response frames with ID 0x97.">
<polygon fill="white" stroke="#666666" points="983,-156 847,-156 847,-136 983,-136 983,-156"/>
<text text-anchor="middle" x="915" y="-142.5" font-family="Helvetica,sans-Serif" font-size="10.00">Responses/Frame0x97.hpp</text>
</a>
</g>
</g>
<!-- Node1&#45;&gt;Node16 -->
<g id="edge16_Node000001_Node000016" class="edge">
<title>Node1&#45;&gt;Node16</title>
<g id="a_edge16_Node000001_Node000016"><a xlink:title=" ">
<path fill="none" stroke="#63b8ff" d="M1027.31,-191.59C1005.8,-183.05 973.8,-170.35 949.46,-160.68"/>
<polygon fill="#63b8ff" stroke="#63b8ff" points="950.87,-157.48 940.28,-157.04 948.28,-163.98 950.87,-157.48"/>
</a>
</g>
</g>
<!-- Node17 -->
<g id="Node000017" class="node">
<title>Node17</title>
<g id="a_Node000017"><a xlink:title=" ">
<polygon fill="#e0e0e0" stroke="#999999" points="1241.62,-156 1160.38,-156 1160.38,-136 1241.62,-136 1241.62,-156"/>
<text text-anchor="middle" x="1201" y="-142.5" font-family="Helvetica,sans-Serif" font-size="10.00">FreeRTOS.hpp</text>
</a>
</g>
</g>
<!-- Node1&#45;&gt;Node17 -->
<g id="edge20_Node000001_Node000017" class="edge">
<title>Node1&#45;&gt;Node17</title>
<g id="a_edge20_Node000001_Node000017"><a xlink:title=" ">
<path fill="none" stroke="#63b8ff" d="M1077.13,-191.59C1101.18,-182.94 1137.1,-170 1164.08,-160.29"/>
<polygon fill="#63b8ff" stroke="#63b8ff" points="1165.02,-163.67 1173.24,-156.99 1162.65,-157.09 1165.02,-163.67"/>
</a>
</g>
</g>
<!-- Node18 -->
<g id="Node000018" class="node">
<title>Node18</title>
<g id="a_Node000018"><a xlink:title=" ">
<polygon fill="#e0e0e0" stroke="#999999" points="1297.88,-156 1260.12,-156 1260.12,-136 1297.88,-136 1297.88,-156"/>
<text text-anchor="middle" x="1279" y="-142.5" font-family="Helvetica,sans-Serif" font-size="10.00">array</text>
</a>
</g>
</g>
<!-- Node1&#45;&gt;Node18 -->
<g id="edge21_Node000001_Node000018" class="edge">
<title>Node1&#45;&gt;Node18</title>
<g id="a_edge21_Node000001_Node000018"><a xlink:title=" ">
<path fill="none" stroke="#63b8ff" d="M1098.57,-191.55C1136.82,-183.67 1192.12,-171.65 1248.81,-156.41"/>
<polygon fill="#63b8ff" stroke="#63b8ff" points="1249.6,-159.83 1258.33,-153.82 1247.76,-153.07 1249.6,-159.83"/>
</a>
</g>
</g>
<!-- Node19 -->
<g id="Node000019" class="node">
<title>Node19</title>
<g id="a_Node000019"><a xlink:title=" ">
<polygon fill="#e0e0e0" stroke="#999999" points="1374,-156 1316,-156 1316,-136 1374,-136 1374,-156"/>
<text text-anchor="middle" x="1345" y="-142.5" font-family="Helvetica,sans-Serif" font-size="10.00">functional</text>
</a>
</g>
</g>
<!-- Node1&#45;&gt;Node19 -->
<g id="edge22_Node000001_Node000019" class="edge">
<title>Node1&#45;&gt;Node19</title>
<g id="a_edge22_Node000001_Node000019"><a xlink:title=" ">
<path fill="none" stroke="#63b8ff" d="M1110.67,-191.53C1160.14,-183.44 1232.55,-171.08 1304.5,-156.42"/>
<polygon fill="#63b8ff" stroke="#63b8ff" points="1305.01,-159.89 1314.1,-154.45 1303.6,-153.04 1305.01,-159.89"/>
</a>
</g>
</g>
<!-- Node20 -->
<g id="Node000020" class="node">
<title>Node20</title>
<g id="a_Node000020"><a xlink:title=" ">
<polygon fill="#e0e0e0" stroke="#999999" points="1464.12,-156 1391.88,-156 1391.88,-136 1464.12,-136 1464.12,-156"/>
<text text-anchor="middle" x="1428" y="-142.5" font-family="Helvetica,sans-Serif" font-size="10.00">initializer_list</text>
</a>
</g>
</g>
<!-- Node1&#45;&gt;Node20 -->
<g id="edge23_Node000001_Node000020" class="edge">
<title>Node1&#45;&gt;Node20</title>
<g id="a_edge23_Node000001_Node000020"><a xlink:title=" ">
<path fill="none" stroke="#63b8ff" d="M1113.28,-193.74C1177.72,-185.96 1281.51,-172.7 1380.57,-156.32"/>
<polygon fill="#63b8ff" stroke="#63b8ff" points="1380.91,-159.81 1390.19,-154.71 1379.75,-152.91 1380.91,-159.81"/>
</a>
</g>
</g>
<!-- Node3 -->
<g id="Node000003" class="node">
<title>Node3</title>
<g id="a_Node000003"><a xlink:title=" ">
<polygon fill="#e0e0e0" stroke="#999999" points="40,-94 0,-94 0,-74 40,-74 40,-94"/>
<text text-anchor="middle" x="20" y="-80.5" font-family="Helvetica,sans-Serif" font-size="10.00">string</text>
</a>
</g>
</g>
<!-- Node2&#45;&gt;Node3 -->
<g id="edge2_Node000002_Node000003" class="edge">
<title>Node2&#45;&gt;Node3</title>
<g id="a_edge2_Node000002_Node000003"><a xlink:title=" ">
<path fill="none" stroke="#63b8ff" d="M157.32,-135.55C127.63,-127.44 84.97,-114.75 49,-100 48.38,-99.74 47.75,-99.48 47.12,-99.21"/>
<polygon fill="#63b8ff" stroke="#63b8ff" points="48.84,-96.15 38.31,-95.04 45.85,-102.48 48.84,-96.15"/>
</a>
</g>
</g>
<!-- Node5 -->
<g id="Node000005" class="node">
<title>Node5</title>
<g id="a_Node000005"><a xlink:title=" ">
<polygon fill="#e0e0e0" stroke="#999999" points="209.88,-94 58.12,-94 58.12,-74 209.88,-74 209.88,-94"/>
<text text-anchor="middle" x="134" y="-80.5" font-family="Helvetica,sans-Serif" font-size="10.00">Lib/XBEE/Core/ComDriver.hpp</text>
</a>
</g>
</g>
<!-- Node4&#45;&gt;Node5 -->
<g id="edge4_Node000004_Node000005" class="edge">
<title>Node4&#45;&gt;Node5</title>
<g id="a_edge4_Node000004_Node000005"><a xlink:title=" ">
<path fill="none" stroke="#63b8ff" d="M442.73,-139.19C393.74,-130.63 299.3,-114.12 219,-100 212.32,-98.83 205.34,-97.6 198.38,-96.37"/>
<polygon fill="#63b8ff" stroke="#63b8ff" points="199.45,-93.01 188.99,-94.72 198.23,-99.9 199.45,-93.01"/>
</a>
</g>
</g>
<!-- Node6 -->
<g id="Node000006" class="node">
<title>Node6</title>
<g id="a_Node000006"><a xlink:title=" ">
<polygon fill="#e0e0e0" stroke="#999999" points="368.25,-94 227.75,-94 227.75,-74 368.25,-74 368.25,-94"/>
<text text-anchor="middle" x="298" y="-80.5" font-family="Helvetica,sans-Serif" font-size="10.00">Lib/XBEE/Core/Protocol.hpp</text>
</a>
</g>
</g>
<!-- Node4&#45;&gt;Node6 -->
<g id="edge5_Node000004_Node000006" class="edge">
<title>Node4&#45;&gt;Node6</title>
<g id="a_edge5_Node000004_Node000006"><a xlink:title=" ">
<path fill="none" stroke="#63b8ff" d="M448.19,-135.62C418.23,-125.53 370.35,-109.39 336.72,-98.05"/>
<polygon fill="#63b8ff" stroke="#63b8ff" points="337.94,-94.77 327.34,-94.89 335.7,-101.4 337.94,-94.77"/>
</a>
</g>
</g>
<!-- Node7 -->
<g id="Node000007" class="node">
<title>Node7</title>
<g id="a_Node000007"><a xlink:title=" ">
<polygon fill="#e0e0e0" stroke="#999999" points="565.75,-94 386.25,-94 386.25,-74 565.75,-74 565.75,-94"/>
<text text-anchor="middle" x="476" y="-80.5" font-family="Helvetica,sans-Serif" font-size="10.00">Lib/XBEE/Core/ResponseEvents.hpp</text>
</a>
</g>
</g>
<!-- Node4&#45;&gt;Node7 -->
<g id="edge6_Node000004_Node000007" class="edge">
<title>Node4&#45;&gt;Node7</title>
<g id="a_edge6_Node000004_Node000007"><a xlink:title=" ">
<path fill="none" stroke="#63b8ff" d="M476,-135.62C476,-127.56 476,-115.65 476,-105.41"/>
<polygon fill="#63b8ff" stroke="#63b8ff" points="479.5,-105.63 476,-95.63 472.5,-105.63 479.5,-105.63"/>
</a>
</g>
</g>
<!-- Node8 -->
<g id="Node000008" class="node">
<title>Node8</title>
<g id="a_Node000008"><a xlink:href="../../de/df3/a00185.html" target="_top" xlink:title="Defines the base class for all query types in the Xbee library.">
<polygon fill="white" stroke="#666666" points="704.12,-94 583.88,-94 583.88,-74 704.12,-74 704.12,-94"/>
<text text-anchor="middle" x="644" y="-80.5" font-family="Helvetica,sans-Serif" font-size="10.00">Queries/QueryBase.hpp</text>
</a>
</g>
</g>
<!-- Node4&#45;&gt;Node8 -->
<g id="edge7_Node000004_Node000008" class="edge">
<title>Node4&#45;&gt;Node8</title>
<g id="a_edge7_Node000004_Node000008"><a xlink:title=" ">
<path fill="none" stroke="#63b8ff" d="M502.25,-135.62C530.4,-125.57 575.32,-109.53 607.04,-98.2"/>
<polygon fill="#63b8ff" stroke="#63b8ff" points="607.99,-101.58 616.23,-94.92 605.64,-94.98 607.99,-101.58"/>
</a>
</g>
</g>
<!-- Node9 -->
<g id="Node000009" class="node">
<title>Node9</title>
<g id="a_Node000009"><a xlink:title=" ">
<polygon fill="#e0e0e0" stroke="#999999" points="936.5,-32 827.5,-32 827.5,0 936.5,0 936.5,-32"/>
<text text-anchor="start" x="835.5" y="-18.5" font-family="Helvetica,sans-Serif" font-size="10.00">Lib/Xbee/Core/Frame</text>
<text text-anchor="middle" x="882" y="-6.5" font-family="Helvetica,sans-Serif" font-size="10.00">/Data.hpp</text>
</a>
</g>
</g>
<!-- Node8&#45;&gt;Node9 -->
<g id="edge8_Node000008_Node000009" class="edge">
<title>Node8&#45;&gt;Node9</title>
<g id="a_edge8_Node000008_Node000009"><a xlink:title=" ">
<path fill="none" stroke="#63b8ff" d="M678.1,-73.54C714,-63.59 771.42,-47.67 816.19,-35.25"/>
<polygon fill="#63b8ff" stroke="#63b8ff" points="817.12,-38.62 825.82,-32.58 815.25,-31.88 817.12,-38.62"/>
</a>
</g>
</g>
<!-- Node10 -->
<g id="Node000010" class="node">
<title>Node10</title>
<g id="a_Node000010"><a xlink:title=" ">
<polygon fill="#e0e0e0" stroke="#999999" points="809.5,-32 700.5,-32 700.5,0 809.5,0 809.5,-32"/>
<text text-anchor="start" x="708.5" y="-18.5" font-family="Helvetica,sans-Serif" font-size="10.00">Lib/Xbee/Core/Frame</text>
<text text-anchor="middle" x="755" y="-6.5" font-family="Helvetica,sans-Serif" font-size="10.00">/Helper.hpp</text>
</a>
</g>
</g>
<!-- Node8&#45;&gt;Node10 -->
<g id="edge9_Node000008_Node000010" class="edge">
<title>Node8&#45;&gt;Node10</title>
<g id="a_edge9_Node000008_Node000010"><a xlink:title=" ">
<path fill="none" stroke="#63b8ff" d="M659.9,-73.54C675.39,-64.34 699.46,-50.02 719.51,-38.1"/>
<polygon fill="#63b8ff" stroke="#63b8ff" points="721.16,-41.19 727.97,-33.07 717.58,-35.18 721.16,-41.19"/>
</a>
</g>
</g>
<!-- Node11 -->
<g id="Node000011" class="node">
<title>Node11</title>
<g id="a_Node000011"><a xlink:title=" ">
<polygon fill="#e0e0e0" stroke="#999999" points="682.5,-32 573.5,-32 573.5,0 682.5,0 682.5,-32"/>
<text text-anchor="start" x="581.5" y="-18.5" font-family="Helvetica,sans-Serif" font-size="10.00">Lib/Xbee/Core/Frame</text>
<text text-anchor="middle" x="628" y="-6.5" font-family="Helvetica,sans-Serif" font-size="10.00">/Type.hpp</text>
</a>
</g>
</g>
<!-- Node8&#45;&gt;Node11 -->
<g id="edge10_Node000008_Node000011" class="edge">
<title>Node8&#45;&gt;Node11</title>
<g id="a_edge10_Node000008_Node000011"><a xlink:title=" ">
<path fill="none" stroke="#63b8ff" d="M641.71,-73.54C639.79,-65.64 636.96,-53.97 634.37,-43.29"/>
<polygon fill="#63b8ff" stroke="#63b8ff" points="637.82,-42.67 632.07,-33.77 631.02,-44.32 637.82,-42.67"/>
</a>
</g>
</g>
<!-- Node12&#45;&gt;Node9 -->
<g id="edge12_Node000012_Node000009" class="edge">
<title>Node12&#45;&gt;Node9</title>
<g id="a_edge12_Node000012_Node000009"><a xlink:title=" ">
<path fill="none" stroke="#63b8ff" d="M793.97,-135.6C810.86,-128.16 832.62,-116.29 847,-100 861.28,-83.83 870.33,-60.98 875.65,-43.35"/>
<polygon fill="#63b8ff" stroke="#63b8ff" points="878.99,-44.41 878.28,-33.84 872.24,-42.54 878.99,-44.41"/>
</a>
</g>
</g>
<!-- Node13 -->
<g id="Node000013" class="node">
<title>Node13</title>
<g id="a_Node000013"><a xlink:title=" ">
<polygon fill="#e0e0e0" stroke="#999999" points="837.5,-100 722.5,-100 722.5,-68 837.5,-68 837.5,-100"/>
<text text-anchor="start" x="730.5" y="-86.5" font-family="Helvetica,sans-Serif" font-size="10.00">Lib/Xbee/Core/Queries</text>
<text text-anchor="middle" x="780" y="-74.5" font-family="Helvetica,sans-Serif" font-size="10.00">/QueryBase.hpp</text>
</a>
</g>
</g>
<!-- Node12&#45;&gt;Node13 -->
<g id="edge13_Node000012_Node000013" class="edge">
<title>Node12&#45;&gt;Node13</title>
<g id="a_edge13_Node000012_Node000013"><a xlink:title=" ">
<path fill="none" stroke="#63b8ff" d="M770.72,-135.62C771.92,-129.1 773.57,-120.05 775.16,-111.4"/>
<polygon fill="#63b8ff" stroke="#63b8ff" points="778.59,-112.1 776.95,-101.63 771.71,-110.83 778.59,-112.1"/>
</a>
</g>
</g>
<!-- Node14&#45;&gt;Node15 -->
<g id="edge15_Node000014_Node000015" class="edge">
<title>Node14&#45;&gt;Node15</title>
<g id="a_edge15_Node000014_Node000015"><a xlink:title=" ">
<path fill="none" stroke="#63b8ff" d="M1078.5,-135.62C1066.17,-126.38 1047.09,-112.07 1032.35,-101.01"/>
<polygon fill="#63b8ff" stroke="#63b8ff" points="1034.72,-98.42 1024.62,-95.22 1030.52,-104.02 1034.72,-98.42"/>
</a>
</g>
</g>
<!-- Node16&#45;&gt;Node9 -->
<g id="edge17_Node000016_Node000009" class="edge">
<title>Node16&#45;&gt;Node9</title>
<g id="a_edge17_Node000016_Node000009"><a xlink:title=" ">
<path fill="none" stroke="#63b8ff" d="M917.35,-135.72C920.64,-120.98 925.45,-91.46 918,-68 914.97,-58.45 909.44,-49.15 903.6,-41.16"/>
<polygon fill="#63b8ff" stroke="#63b8ff" points="906.36,-39.01 897.42,-33.33 900.87,-43.35 906.36,-39.01"/>
</a>
</g>
</g>
<!-- Node16&#45;&gt;Node10 -->
<g id="edge18_Node000016_Node000010" class="edge">
<title>Node16&#45;&gt;Node10</title>
<g id="a_edge18_Node000016_Node000010"><a xlink:title=" ">
<path fill="none" stroke="#63b8ff" d="M908.33,-135.54C897.04,-120.01 872.86,-88.78 847,-68 832.52,-56.37 815.02,-45.93 799.19,-37.57"/>
<polygon fill="#63b8ff" stroke="#63b8ff" points="800.92,-34.52 790.42,-33.07 797.72,-40.75 800.92,-34.52"/>
</a>
</g>
</g>
<!-- Node16&#45;&gt;Node15 -->
<g id="edge19_Node000016_Node000015" class="edge">
<title>Node16&#45;&gt;Node15</title>
<g id="a_edge19_Node000016_Node000015"><a xlink:title=" ">
<path fill="none" stroke="#63b8ff" d="M930,-135.62C945.08,-126.2 968.57,-111.52 986.38,-100.39"/>
<polygon fill="#63b8ff" stroke="#63b8ff" points="988.2,-103.38 994.82,-95.11 984.49,-97.44 988.2,-103.38"/>
</a>
</g>
</g>
</g>
</svg>
