<?xml version="1.0" encoding="UTF-8" standalone="no"?>
<!DOCTYPE svg PUBLIC "-//W3C//DTD SVG 1.1//EN"
 "http://www.w3.org/Graphics/SVG/1.1/DTD/svg11.dtd">
<!-- Generated by graphviz version 13.1.0 (20250701.0955)
 -->
<!-- Title: BitMask.hpp Pages: 1 -->
<svg width="176pt" height="84pt"
 viewBox="0.00 0.00 176.00 84.00" xmlns="http://www.w3.org/2000/svg" xmlns:xlink="http://www.w3.org/1999/xlink">
<g id="graph0" class="graph" transform="scale(1 1) rotate(0) translate(4 80)">
<title>BitMask.hpp</title>
<!-- Node1 -->
<g id="Node000001" class="node">
<title>Node1</title>
<g id="a_Node000001"><a xlink:title="Provides the BitMask class for generating bit masks for digital peripheral components.">
<polygon fill="#999999" stroke="#666666" points="115.25,-76 44.5,-76 44.5,-56 115.25,-56 115.25,-76"/>
<text xml:space="preserve" text-anchor="middle" x="79.88" y="-62.5" font-family="Helvetica,sans-Serif" font-size="10.00">BitMask.hpp</text>
</a>
</g>
</g>
<!-- Node2 -->
<g id="Node000002" class="node">
<title>Node2</title>
<g id="a_Node000002"><a xlink:title=" ">
<polygon fill="#e0e0e0" stroke="#999999" points="37.75,-20 0,-20 0,0 37.75,0 37.75,-20"/>
<text xml:space="preserve" text-anchor="middle" x="18.88" y="-6.5" font-family="Helvetica,sans-Serif" font-size="10.00">array</text>
</a>
</g>
</g>
<!-- Node1&#45;&gt;Node2 -->
<g id="edge1_Node000001_Node000002" class="edge">
<title>Node1&#45;&gt;Node2</title>
<g id="a_edge1_Node000001_Node000002"><a xlink:title=" ">
<path fill="none" stroke="#63b8ff" d="M69.25,-55.59C60.59,-47.93 48.14,-36.91 37.79,-27.75"/>
<polygon fill="#63b8ff" stroke="#63b8ff" points="40.32,-25.31 30.51,-21.3 35.68,-30.55 40.32,-25.31"/>
</a>
</g>
</g>
<!-- Node3 -->
<g id="Node000003" class="node">
<title>Node3</title>
<g id="a_Node000003"><a xlink:title=" ">
<polygon fill="#e0e0e0" stroke="#999999" points="104,-20 55.75,-20 55.75,0 104,0 104,-20"/>
<text xml:space="preserve" text-anchor="middle" x="79.88" y="-6.5" font-family="Helvetica,sans-Serif" font-size="10.00">cassert</text>
</a>
</g>
</g>
<!-- Node1&#45;&gt;Node3 -->
<g id="edge2_Node000001_Node000003" class="edge">
<title>Node1&#45;&gt;Node3</title>
<g id="a_edge2_Node000001_Node000003"><a xlink:title=" ">
<path fill="none" stroke="#63b8ff" d="M79.88,-55.59C79.88,-49.01 79.88,-39.96 79.88,-31.73"/>
<polygon fill="#63b8ff" stroke="#63b8ff" points="83.38,-31.81 79.88,-21.81 76.38,-31.81 83.38,-31.81"/>
</a>
</g>
</g>
<!-- Node4 -->
<g id="Node000004" class="node">
<title>Node4</title>
<g id="a_Node000004"><a xlink:title=" ">
<polygon fill="#e0e0e0" stroke="#999999" points="167.5,-20 122.25,-20 122.25,0 167.5,0 167.5,-20"/>
<text xml:space="preserve" text-anchor="middle" x="144.88" y="-6.5" font-family="Helvetica,sans-Serif" font-size="10.00">cstdint</text>
</a>
</g>
</g>
<!-- Node1&#45;&gt;Node4 -->
<g id="edge3_Node000001_Node000004" class="edge">
<title>Node1&#45;&gt;Node4</title>
<g id="a_edge3_Node000001_Node000004"><a xlink:title=" ">
<path fill="none" stroke="#63b8ff" d="M91.2,-55.59C100.52,-47.85 113.95,-36.69 125.05,-27.47"/>
<polygon fill="#63b8ff" stroke="#63b8ff" points="127.06,-30.35 132.52,-21.27 122.59,-24.96 127.06,-30.35"/>
</a>
</g>
</g>
</g>
</svg>
