<?xml version="1.0" encoding="UTF-8" standalone="no"?>
<!DOCTYPE svg PUBLIC "-//W3C//DTD SVG 1.1//EN"
 "http://www.w3.org/Graphics/SVG/1.1/DTD/svg11.dtd">
<!-- Generated by graphviz version 12.2.1 (20241206.2353)
 -->
<!-- Title: esc.h Pages: 1 -->
<svg width="509pt" height="140pt"
 viewBox="0.00 0.00 508.50 140.00" xmlns="http://www.w3.org/2000/svg" xmlns:xlink="http://www.w3.org/1999/xlink">
<g id="graph0" class="graph" transform="scale(1 1) rotate(0) translate(4 136)">
<title>esc.h</title>
<!-- Node1 -->
<g id="Node000001" class="node">
<title>Node1</title>
<g id="a_Node000001"><a xlink:title="Headerfile for esc.h.">
<polygon fill="#999999" stroke="#666666" points="245.12,-132 205.12,-132 205.12,-112 245.12,-112 245.12,-132"/>
<text text-anchor="middle" x="225.12" y="-118.5" font-family="Helvetica,sans-Serif" font-size="10.00">esc.h</text>
</a>
</g>
</g>
<!-- Node2 -->
<g id="Node000002" class="node">
<title>Node2</title>
<g id="a_Node000002"><a xlink:href="../../d4/dee/a00008.html" target="_top" xlink:title=" ">
<polygon fill="white" stroke="#666666" points="60.25,-20 0,-20 0,0 60.25,0 60.25,-20"/>
<text text-anchor="middle" x="30.12" y="-6.5" font-family="Helvetica,sans-Serif" font-size="10.00">ecat_slv.c</text>
</a>
</g>
</g>
<!-- Node1&#45;&gt;Node2 -->
<g id="edge1_Node000001_Node000002" class="edge">
<title>Node1&#45;&gt;Node2</title>
<g id="a_edge1_Node000001_Node000002"><a xlink:title=" ">
<path fill="none" stroke="#63b8ff" d="M193.46,-118.77C141.45,-114.37 41.52,-102.6 20.12,-76 7.1,-59.81 17.65,-33.79 24.84,-20.09"/>
<polygon fill="#63b8ff" stroke="#63b8ff" points="192.93,-122.24 203.18,-119.55 193.49,-115.26 192.93,-122.24"/>
</a>
</g>
</g>
<!-- Node3 -->
<g id="Node000003" class="node">
<title>Node3</title>
<g id="a_Node000003"><a xlink:href="../../da/d45/a00011.html" target="_top" xlink:title=" ">
<polygon fill="white" stroke="#666666" points="89.25,-76 29,-76 29,-56 89.25,-56 89.25,-76"/>
<text text-anchor="middle" x="59.12" y="-62.5" font-family="Helvetica,sans-Serif" font-size="10.00">ecat_slv.h</text>
</a>
</g>
</g>
<!-- Node1&#45;&gt;Node3 -->
<g id="edge2_Node000001_Node000003" class="edge">
<title>Node1&#45;&gt;Node3</title>
<g id="a_edge2_Node000001_Node000003"><a xlink:title=" ">
<path fill="none" stroke="#63b8ff" d="M193.97,-110.87C163.65,-101 117.94,-86.13 88.31,-76.49"/>
<polygon fill="#63b8ff" stroke="#63b8ff" points="192.74,-114.15 203.33,-113.91 194.9,-107.49 192.74,-114.15"/>
</a>
</g>
</g>
<!-- Node4 -->
<g id="Node000004" class="node">
<title>Node4</title>
<g id="a_Node000004"><a xlink:href="../../d2/de7/a00014.html" target="_top" xlink:title="This file contains the implementation of the Electronic Speed Controller (ESC) functionalities.">
<polygon fill="white" stroke="#666666" points="147.12,-76 107.12,-76 107.12,-56 147.12,-56 147.12,-76"/>
<text text-anchor="middle" x="127.12" y="-62.5" font-family="Helvetica,sans-Serif" font-size="10.00">esc.c</text>
</a>
</g>
</g>
<!-- Node1&#45;&gt;Node4 -->
<g id="edge4_Node000001_Node000004" class="edge">
<title>Node1&#45;&gt;Node4</title>
<g id="a_edge4_Node000001_Node000004"><a xlink:title=" ">
<path fill="none" stroke="#63b8ff" d="M198.05,-106.08C180.87,-96.62 159.17,-84.66 144.33,-76.48"/>
<polygon fill="#63b8ff" stroke="#63b8ff" points="196.28,-109.1 206.73,-110.86 199.66,-102.97 196.28,-109.1"/>
</a>
</g>
</g>
<!-- Node5 -->
<g id="Node000005" class="node">
<title>Node5</title>
<g id="a_Node000005"><a xlink:href="../../db/db2/a00020.html" target="_top" xlink:title="This file contains the implementation of the CANopen over EtherCAT (CoE) protocol.">
<polygon fill="white" stroke="#666666" points="226.62,-76 165.62,-76 165.62,-56 226.62,-56 226.62,-76"/>
<text text-anchor="middle" x="196.12" y="-62.5" font-family="Helvetica,sans-Serif" font-size="10.00">esc_coe.c</text>
</a>
</g>
</g>
<!-- Node1&#45;&gt;Node5 -->
<g id="edge5_Node000001_Node000005" class="edge">
<title>Node1&#45;&gt;Node5</title>
<g id="a_edge5_Node000001_Node000005"><a xlink:title=" ">
<path fill="none" stroke="#63b8ff" d="M214.7,-101.58C210.07,-92.97 204.85,-83.24 201.12,-76.3"/>
<polygon fill="#63b8ff" stroke="#63b8ff" points="211.54,-103.11 219.36,-110.26 217.71,-99.79 211.54,-103.11"/>
</a>
</g>
</g>
<!-- Node6 -->
<g id="Node000006" class="node">
<title>Node6</title>
<g id="a_Node000006"><a xlink:href="../../d6/d5b/a00026.html" target="_top" xlink:title="This file contains the implementation of the ESC EEPROM (Electrically Erasable Programmable Read&#45;Only...">
<polygon fill="white" stroke="#666666" points="314.62,-20 253.62,-20 253.62,0 314.62,0 314.62,-20"/>
<text text-anchor="middle" x="284.12" y="-6.5" font-family="Helvetica,sans-Serif" font-size="10.00">esc_eep.c</text>
</a>
</g>
</g>
<!-- Node1&#45;&gt;Node6 -->
<g id="edge6_Node000001_Node000006" class="edge">
<title>Node1&#45;&gt;Node6</title>
<g id="a_edge6_Node000001_Node000006"><a xlink:title=" ">
<path fill="none" stroke="#63b8ff" d="M235.52,-101.62C248.3,-77.78 269.49,-38.28 279.11,-20.35"/>
<polygon fill="#63b8ff" stroke="#63b8ff" points="232.51,-99.82 230.87,-110.29 238.68,-103.13 232.51,-99.82"/>
</a>
</g>
</g>
<!-- Node7 -->
<g id="Node000007" class="node">
<title>Node7</title>
<g id="a_Node000007"><a xlink:href="../../d5/d16/a00029.html" target="_top" xlink:title="Header file for EEPROM handling in EtherCAT slave devices.">
<polygon fill="white" stroke="#666666" points="344.62,-76 283.62,-76 283.62,-56 344.62,-56 344.62,-76"/>
<text text-anchor="middle" x="314.12" y="-62.5" font-family="Helvetica,sans-Serif" font-size="10.00">esc_eep.h</text>
</a>
</g>
</g>
<!-- Node1&#45;&gt;Node7 -->
<g id="edge7_Node000001_Node000007" class="edge">
<title>Node1&#45;&gt;Node7</title>
<g id="a_edge7_Node000001_Node000007"><a xlink:title=" ">
<path fill="none" stroke="#63b8ff" d="M250.16,-105.81C265.68,-96.39 285.15,-84.58 298.5,-76.48"/>
<polygon fill="#63b8ff" stroke="#63b8ff" points="248.66,-102.63 241.92,-110.81 252.29,-108.61 248.66,-102.63"/>
</a>
</g>
</g>
<!-- Node8 -->
<g id="Node000008" class="node">
<title>Node8</title>
<g id="a_Node000008"><a xlink:href="../../dc/d87/a00032.html" target="_top" xlink:title="This file contains the implementation of the Ethernet over EtherCAT (EoE) protocol.">
<polygon fill="white" stroke="#666666" points="423.62,-76 362.62,-76 362.62,-56 423.62,-56 423.62,-76"/>
<text text-anchor="middle" x="393.12" y="-62.5" font-family="Helvetica,sans-Serif" font-size="10.00">esc_eoe.c</text>
</a>
</g>
</g>
<!-- Node1&#45;&gt;Node8 -->
<g id="edge9_Node000001_Node000008" class="edge">
<title>Node1&#45;&gt;Node8</title>
<g id="a_edge9_Node000001_Node000008"><a xlink:title=" ">
<path fill="none" stroke="#63b8ff" d="M256.33,-110.97C287.06,-101.09 333.67,-86.11 363.76,-76.44"/>
<polygon fill="#63b8ff" stroke="#63b8ff" points="255.28,-107.63 246.83,-114.02 257.42,-114.3 255.28,-107.63"/>
</a>
</g>
</g>
<!-- Node9 -->
<g id="Node000009" class="node">
<title>Node9</title>
<g id="a_Node000009"><a xlink:href="../../d8/d41/a00038.html" target="_top" xlink:title="This file contains the implementation of the File over EtherCAT (FoE) protocol.">
<polygon fill="white" stroke="#666666" points="500.5,-76 441.75,-76 441.75,-56 500.5,-56 500.5,-76"/>
<text text-anchor="middle" x="471.12" y="-62.5" font-family="Helvetica,sans-Serif" font-size="10.00">esc_foe.c</text>
</a>
</g>
</g>
<!-- Node1&#45;&gt;Node9 -->
<g id="edge10_Node000001_Node000009" class="edge">
<title>Node1&#45;&gt;Node9</title>
<g id="a_edge10_Node000001_Node000009"><a xlink:title=" ">
<path fill="none" stroke="#63b8ff" d="M256.61,-114.39C297.39,-105.78 370.65,-90.16 433.12,-76 435.77,-75.4 438.52,-74.77 441.27,-74.13"/>
<polygon fill="#63b8ff" stroke="#63b8ff" points="256.07,-110.92 247.01,-116.41 257.51,-117.77 256.07,-110.92"/>
</a>
</g>
</g>
<!-- Node3&#45;&gt;Node2 -->
<g id="edge3_Node000003_Node000002" class="edge">
<title>Node3&#45;&gt;Node2</title>
<g id="a_edge3_Node000003_Node000002"><a xlink:title=" ">
<path fill="none" stroke="#63b8ff" d="M48.7,-45.58C44.07,-36.97 38.85,-27.24 35.12,-20.3"/>
<polygon fill="#63b8ff" stroke="#63b8ff" points="45.54,-47.11 53.36,-54.26 51.71,-43.79 45.54,-47.11"/>
</a>
</g>
</g>
<!-- Node7&#45;&gt;Node6 -->
<g id="edge8_Node000007_Node000006" class="edge">
<title>Node7&#45;&gt;Node6</title>
<g id="a_edge8_Node000007_Node000006"><a xlink:title=" ">
<path fill="none" stroke="#63b8ff" d="M303.34,-45.58C298.55,-36.97 293.15,-27.24 289.29,-20.3"/>
<polygon fill="#63b8ff" stroke="#63b8ff" points="300.25,-47.23 308.16,-54.27 306.37,-43.83 300.25,-47.23"/>
</a>
</g>
</g>
</g>
</svg>
