<?xml version="1.0" encoding="UTF-8" standalone="no"?>
<!DOCTYPE svg PUBLIC "-//W3C//DTD SVG 1.1//EN"
 "http://www.w3.org/Graphics/SVG/1.1/DTD/svg11.dtd">
<!-- Generated by graphviz version 12.2.1 (20241206.2353)
 -->
<!-- Title: Handle.hpp Pages: 1 -->
<svg width="74pt" height="140pt"
 viewBox="0.00 0.00 73.50 140.00" xmlns="http://www.w3.org/2000/svg" xmlns:xlink="http://www.w3.org/1999/xlink">
<g id="graph0" class="graph" transform="scale(1 1) rotate(0) translate(4 136)">
<title>Handle.hpp</title>
<!-- Node1 -->
<g id="Node000001" class="node">
<title>Node1</title>
<g id="a_Node000001"><a xlink:title="Defines the Handle class template for managing device handles.">
<polygon fill="#999999" stroke="#666666" points="65.5,-132 0,-132 0,-112 65.5,-112 65.5,-132"/>
<text text-anchor="middle" x="32.75" y="-118.5" font-family="Helvetica,sans-Serif" font-size="10.00">Handle.hpp</text>
</a>
</g>
</g>
<!-- Node2 -->
<g id="Node000002" class="node">
<title>Node2</title>
<g id="a_Node000002"><a xlink:href="../../de/d3d/a00409.html" target="_top" xlink:title="I2C Port implementation for HAL.">
<polygon fill="white" stroke="#666666" points="59.12,-76 6.38,-76 6.38,-56 59.12,-56 59.12,-76"/>
<text text-anchor="middle" x="32.75" y="-62.5" font-family="Helvetica,sans-Serif" font-size="10.00">Port.hpp</text>
</a>
</g>
</g>
<!-- Node1&#45;&gt;Node2 -->
<g id="edge1_Node000001_Node000002" class="edge">
<title>Node1&#45;&gt;Node2</title>
<g id="a_edge1_Node000001_Node000002"><a xlink:title=" ">
<path fill="none" stroke="#63b8ff" d="M32.75,-100.13C32.75,-91.9 32.75,-82.85 32.75,-76.3"/>
<polygon fill="#63b8ff" stroke="#63b8ff" points="29.25,-100.08 32.75,-110.08 36.25,-100.08 29.25,-100.08"/>
</a>
</g>
</g>
<!-- Node3 -->
<g id="Node000003" class="node">
<title>Node3</title>
<g id="a_Node000003"><a xlink:href="../../d5/dcb/a00170.html" target="_top" xlink:title="I2C Base class for handling I2C communication.">
<polygon fill="white" stroke="#666666" points="58,-20 7.5,-20 7.5,0 58,0 58,-20"/>
<text text-anchor="middle" x="32.75" y="-6.5" font-family="Helvetica,sans-Serif" font-size="10.00">I2C.hpp</text>
</a>
</g>
</g>
<!-- Node2&#45;&gt;Node3 -->
<g id="edge2_Node000002_Node000003" class="edge">
<title>Node2&#45;&gt;Node3</title>
<g id="a_edge2_Node000002_Node000003"><a xlink:title=" ">
<path fill="none" stroke="#63b8ff" d="M32.75,-44.13C32.75,-35.9 32.75,-26.85 32.75,-20.3"/>
<polygon fill="#63b8ff" stroke="#63b8ff" points="29.25,-44.08 32.75,-54.08 36.25,-44.08 29.25,-44.08"/>
</a>
</g>
</g>
</g>
</svg>
