<?xml version="1.0" encoding="UTF-8" standalone="no"?>
<!DOCTYPE svg PUBLIC "-//W3C//DTD SVG 1.1//EN"
 "http://www.w3.org/Graphics/SVG/1.1/DTD/svg11.dtd">
<!-- Generated by graphviz version 13.1.0 (20250701.0955)
 -->
<!-- Title: Lib::Xbee::API::Connection::Quality Pages: 1 -->
<svg width="126pt" height="332pt"
 viewBox="0.00 0.00 126.00 332.00" xmlns="http://www.w3.org/2000/svg" xmlns:xlink="http://www.w3.org/1999/xlink">
<g id="graph0" class="graph" transform="scale(1 1) rotate(0) translate(4 328)">
<title>Lib::Xbee::API::Connection::Quality</title>
<!-- Node1 -->
<g id="Node000001" class="node">
<title>Node1</title>
<g id="a_Node000001"><a xlink:title="Computes qualitative connection grade from retries, TX period, and RSSI with decay penalties.">
<polygon fill="#999999" stroke="none" points="117.5,-203 0,-203 0,0 117.5,0 117.5,-203"/>
<text xml:space="preserve" text-anchor="start" x="4" y="-190.45" font-family="Arial" font-size="9.00">Lib::Xbee::API::Connection</text>
<text xml:space="preserve" text-anchor="start" x="42.25" y="-179.95" font-family="Arial" font-size="9.00">::Quality</text>
<text xml:space="preserve" text-anchor="start" x="57.62" y="-165.45" font-family="Arial" font-size="9.00"> </text>
<text xml:space="preserve" text-anchor="start" x="10.12" y="-150.95" font-family="Arial" font-size="9.00">+</text>
<text xml:space="preserve" text-anchor="start" x="25.5" y="-150.95" font-family="Arial" font-size="9.00">Quality()</text>
<text xml:space="preserve" text-anchor="start" x="10.12" y="-136.45" font-family="Arial" font-size="9.00">+</text>
<text xml:space="preserve" text-anchor="start" x="25.5" y="-136.45" font-family="Arial" font-size="9.00">start()</text>
<text xml:space="preserve" text-anchor="start" x="10.12" y="-121.95" font-family="Arial" font-size="9.00">+</text>
<text xml:space="preserve" text-anchor="start" x="25.5" y="-121.95" font-family="Arial" font-size="9.00">clear()</text>
<text xml:space="preserve" text-anchor="start" x="10.12" y="-107.45" font-family="Arial" font-size="9.00">+</text>
<text xml:space="preserve" text-anchor="start" x="25.5" y="-107.45" font-family="Arial" font-size="9.00">setRuntimeMode()</text>
<text xml:space="preserve" text-anchor="start" x="10.12" y="-92.95" font-family="Arial" font-size="9.00">+</text>
<text xml:space="preserve" text-anchor="start" x="25.5" y="-92.95" font-family="Arial" font-size="9.00">setScannerMode()</text>
<text xml:space="preserve" text-anchor="start" x="10.12" y="-78.45" font-family="Arial" font-size="9.00">+</text>
<text xml:space="preserve" text-anchor="start" x="25.5" y="-78.45" font-family="Arial" font-size="9.00">getPercent()</text>
<text xml:space="preserve" text-anchor="start" x="10.12" y="-63.95" font-family="Arial" font-size="9.00">+</text>
<text xml:space="preserve" text-anchor="start" x="25.5" y="-63.95" font-family="Arial" font-size="9.00">getState()</text>
<text xml:space="preserve" text-anchor="start" x="10.12" y="-49.45" font-family="Arial" font-size="9.00">+</text>
<text xml:space="preserve" text-anchor="start" x="25.5" y="-49.45" font-family="Arial" font-size="9.00">update()</text>
<text xml:space="preserve" text-anchor="start" x="10.12" y="-34.95" font-family="Arial" font-size="9.00">+</text>
<text xml:space="preserve" text-anchor="start" x="25.5" y="-34.95" font-family="Arial" font-size="9.00">Quality()</text>
<text xml:space="preserve" text-anchor="start" x="10.12" y="-20.45" font-family="Arial" font-size="9.00">+</text>
<text xml:space="preserve" text-anchor="start" x="25.5" y="-20.45" font-family="Arial" font-size="9.00">start()</text>
<text xml:space="preserve" text-anchor="start" x="25.5" y="-5.95" font-family="Arial" font-size="9.00">and 6 more...</text>
<polygon fill="#666666" stroke="#666666" points="0,-176 0,-176 117.5,-176 117.5,-176 0,-176"/>
<polygon fill="#666666" stroke="#666666" points="0,-161.5 0,-161.5 117.5,-161.5 117.5,-161.5 0,-161.5"/>
<polygon fill="none" stroke="#666666" points="0,0 0,-203 117.5,-203 117.5,0 0,0"/>
</a>
</g>
</g>
<!-- Node2 -->
<g id="Node000002" class="node">
<title>Node2</title>
<g id="a_Node000002"><a xlink:title=" ">
<polygon fill="white" stroke="none" points="111.12,-324 6.38,-324 6.38,-255.5 111.12,-255.5 111.12,-324"/>
<text xml:space="preserve" text-anchor="start" x="10.38" y="-311.45" font-family="Arial" font-size="9.00">function&lt; void(Lib</text>
<text xml:space="preserve" text-anchor="start" x="10.38" y="-300.95" font-family="Arial" font-size="9.00">::Xbee::API::Connection</text>
<text xml:space="preserve" text-anchor="start" x="35.12" y="-290.45" font-family="Arial" font-size="9.00">::Quality *)&gt;</text>
<text xml:space="preserve" text-anchor="start" x="57.62" y="-275.95" font-family="Arial" font-size="9.00"> </text>
<text xml:space="preserve" text-anchor="start" x="57.62" y="-261.45" font-family="Arial" font-size="9.00"> </text>
<polygon fill="#bfbfbf" stroke="#bfbfbf" points="6.38,-286.5 6.38,-286.5 111.12,-286.5 111.12,-286.5 6.38,-286.5"/>
<polygon fill="#bfbfbf" stroke="#bfbfbf" points="6.38,-272 6.38,-272 111.12,-272 111.12,-272 6.38,-272"/>
<polygon fill="none" stroke="#bfbfbf" points="6.38,-255.5 6.38,-324 111.12,-324 111.12,-255.5 6.38,-255.5"/>
</a>
</g>
</g>
<!-- Node2&#45;&gt;Node1 -->
<g id="edge1_Node000001_Node000002" class="edge">
<title>Node2&#45;&gt;Node1</title>
<g id="a_edge1_Node000001_Node000002"><a xlink:title=" ">
<path fill="none" stroke="#63b8ff" d="M58.75,-255.88C58.75,-244.17 58.75,-230.23 58.75,-215.6"/>
<polygon fill="none" stroke="#63b8ff" points="58.75,-215.5 54.75,-209.5 58.75,-203.5 62.75,-209.5 58.75,-215.5"/>
</a>
</g>
<text xml:space="preserve" text-anchor="start" x="61.75" y="-225.95" font-family="Arial" font-size="9.00" fill="grey">+onUpdate</text>
</g>
</g>
</svg>
