<?xml version="1.0" encoding="UTF-8" standalone="no"?>
<!DOCTYPE svg PUBLIC "-//W3C//DTD SVG 1.1//EN"
 "http://www.w3.org/Graphics/SVG/1.1/DTD/svg11.dtd">
<!-- Generated by graphviz version 13.1.0 (20250701.0955)
 -->
<!-- Title: System::Watchdog Pages: 1 -->
<svg width="97pt" height="197pt"
 viewBox="0.00 0.00 97.00 197.00" xmlns="http://www.w3.org/2000/svg" xmlns:xlink="http://www.w3.org/1999/xlink">
<g id="graph0" class="graph" transform="scale(1 1) rotate(0) translate(4 193)">
<title>System::Watchdog</title>
<!-- Node1 -->
<g id="Node000001" class="node">
<title>Node1</title>
<g id="a_Node000001"><a xlink:title="Watchdog wrapper for STM32 firmware.">
<polygon fill="#999999" stroke="none" points="86.38,-62 2.62,-62 2.62,0 86.38,0 86.38,-62"/>
<text xml:space="preserve" text-anchor="start" x="6.62" y="-49.45" font-family="Arial" font-size="9.00">System::Watchdog</text>
<text xml:space="preserve" text-anchor="start" x="43.38" y="-34.95" font-family="Arial" font-size="9.00"> </text>
<text xml:space="preserve" text-anchor="start" x="11.44" y="-20.45" font-family="Arial" font-size="9.00">+</text>
<text xml:space="preserve" text-anchor="start" x="25.5" y="-20.45" font-family="Arial" font-size="9.00">Watchdog()</text>
<text xml:space="preserve" text-anchor="start" x="11.44" y="-5.95" font-family="Arial" font-size="9.00">+</text>
<text xml:space="preserve" text-anchor="start" x="25.5" y="-5.95" font-family="Arial" font-size="9.00">refresh()</text>
<polygon fill="#666666" stroke="#666666" points="2.62,-45.5 2.62,-45.5 86.38,-45.5 86.38,-45.5 2.62,-45.5"/>
<polygon fill="#666666" stroke="#666666" points="2.62,-31 2.62,-31 86.38,-31 86.38,-31 2.62,-31"/>
<polygon fill="none" stroke="#666666" points="2.62,0 2.62,-62 86.38,-62 86.38,0 2.62,0"/>
</a>
</g>
</g>
<!-- Node2 -->
<g id="Node000002" class="node">
<title>Node2</title>
<g id="a_Node000002"><a xlink:href="../../d5/dcf/a01602.html" target="_top" xlink:title="Watchdog class for STM32 IWDG peripheral.">
<polygon fill="white" stroke="none" points="89,-189 0,-189 0,-98 89,-98 89,-189"/>
<text xml:space="preserve" text-anchor="start" x="4" y="-176.45" font-family="Arial" font-size="9.00">Lib::HAL::Watchdog</text>
<text xml:space="preserve" text-anchor="start" x="43.38" y="-161.95" font-family="Arial" font-size="9.00"> </text>
<text xml:space="preserve" text-anchor="start" x="8.81" y="-147.45" font-family="Arial" font-size="9.00">+</text>
<text xml:space="preserve" text-anchor="start" x="22.88" y="-147.45" font-family="Arial" font-size="9.00">Watchdog()</text>
<text xml:space="preserve" text-anchor="start" x="8.81" y="-132.95" font-family="Arial" font-size="9.00">+</text>
<text xml:space="preserve" text-anchor="start" x="22.88" y="-132.95" font-family="Arial" font-size="9.00">~Watchdog()</text>
<text xml:space="preserve" text-anchor="start" x="8.81" y="-118.45" font-family="Arial" font-size="9.00">+</text>
<text xml:space="preserve" text-anchor="start" x="22.88" y="-118.45" font-family="Arial" font-size="9.00">setup()</text>
<text xml:space="preserve" text-anchor="start" x="8.81" y="-103.95" font-family="Arial" font-size="9.00">+</text>
<text xml:space="preserve" text-anchor="start" x="22.88" y="-103.95" font-family="Arial" font-size="9.00">refresh()</text>
<polygon fill="#666666" stroke="#666666" points="0,-172.5 0,-172.5 89,-172.5 89,-172.5 0,-172.5"/>
<polygon fill="#666666" stroke="#666666" points="0,-158 0,-158 89,-158 89,-158 0,-158"/>
<polygon fill="none" stroke="#666666" points="0,-98 0,-189 89,-189 89,-98 0,-98"/>
</a>
</g>
</g>
<!-- Node2&#45;&gt;Node1 -->
<g id="edge1_Node000001_Node000002" class="edge">
<title>Node2&#45;&gt;Node1</title>
<g id="a_edge1_Node000001_Node000002"><a xlink:title=" ">
<path fill="none" stroke="#63b8ff" d="M44.5,-86.86C44.5,-78.19 44.5,-69.53 44.5,-61.74"/>
<polygon fill="none" stroke="#63b8ff" points="41,-86.68 44.5,-96.68 48,-86.68 41,-86.68"/>
</a>
</g>
</g>
</g>
</svg>
