<?xml version="1.0" encoding="UTF-8" standalone="no"?>
<!DOCTYPE svg PUBLIC "-//W3C//DTD SVG 1.1//EN"
 "http://www.w3.org/Graphics/SVG/1.1/DTD/svg11.dtd">
<!-- Generated by graphviz version 13.1.0 (20250701.0955)
 -->
<!-- Title: QueueSet.hpp Pages: 1 -->
<svg width="333pt" height="140pt"
 viewBox="0.00 0.00 333.00 140.00" xmlns="http://www.w3.org/2000/svg" xmlns:xlink="http://www.w3.org/1999/xlink">
<g id="graph0" class="graph" transform="scale(1 1) rotate(0) translate(4 136)">
<title>QueueSet.hpp</title>
<!-- Node1 -->
<g id="Node000001" class="node">
<title>Node1</title>
<g id="a_Node000001"><a xlink:title="RTOS queue set abstraction for FreeRTOS.">
<polygon fill="#999999" stroke="#666666" points="219.5,-132 141.25,-132 141.25,-112 219.5,-112 219.5,-132"/>
<text xml:space="preserve" text-anchor="middle" x="180.38" y="-118.5" font-family="Helvetica,sans-Serif" font-size="10.00">QueueSet.hpp</text>
</a>
</g>
</g>
<!-- Node2 -->
<g id="Node000002" class="node">
<title>Node2</title>
<g id="a_Node000002"><a xlink:title=" ">
<polygon fill="#e0e0e0" stroke="#999999" points="70.75,-76 0,-76 0,-56 70.75,-56 70.75,-76"/>
<text xml:space="preserve" text-anchor="middle" x="35.38" y="-62.5" font-family="Helvetica,sans-Serif" font-size="10.00">FreeRTOS.h</text>
</a>
</g>
</g>
<!-- Node1&#45;&gt;Node2 -->
<g id="edge1_Node000001_Node000002" class="edge">
<title>Node1&#45;&gt;Node2</title>
<g id="a_edge1_Node000001_Node000002"><a xlink:title=" ">
<path fill="none" stroke="#63b8ff" d="M155.12,-111.59C131.97,-102.97 97.45,-90.12 71.41,-80.42"/>
<polygon fill="#63b8ff" stroke="#63b8ff" points="72.84,-77.22 62.25,-77.01 70.4,-83.78 72.84,-77.22"/>
</a>
</g>
</g>
<!-- Node3 -->
<g id="Node000003" class="node">
<title>Node3</title>
<g id="a_Node000003"><a xlink:href="../../d0/dc2/a00104.html" target="_top" xlink:title="Status codes for RTOS operations.">
<polygon fill="white" stroke="#666666" points="152,-76 88.75,-76 88.75,-56 152,-56 152,-76"/>
<text xml:space="preserve" text-anchor="middle" x="120.38" y="-62.5" font-family="Helvetica,sans-Serif" font-size="10.00">Status.hpp</text>
</a>
</g>
</g>
<!-- Node1&#45;&gt;Node3 -->
<g id="edge2_Node000001_Node000003" class="edge">
<title>Node1&#45;&gt;Node3</title>
<g id="a_edge2_Node000001_Node000003"><a xlink:title=" ">
<path fill="none" stroke="#63b8ff" d="M169.92,-111.59C161.41,-103.93 149.16,-92.91 138.98,-83.75"/>
<polygon fill="#63b8ff" stroke="#63b8ff" points="141.61,-81.4 131.83,-77.31 136.92,-86.6 141.61,-81.4"/>
</a>
</g>
</g>
<!-- Node4 -->
<g id="Node000004" class="node">
<title>Node4</title>
<g id="a_Node000004"><a xlink:title=" ">
<polygon fill="#e0e0e0" stroke="#999999" points="173,-20 127.75,-20 127.75,0 173,0 173,-20"/>
<text xml:space="preserve" text-anchor="middle" x="150.38" y="-6.5" font-family="Helvetica,sans-Serif" font-size="10.00">cstdint</text>
</a>
</g>
</g>
<!-- Node1&#45;&gt;Node4 -->
<g id="edge6_Node000001_Node000004" class="edge">
<title>Node1&#45;&gt;Node4</title>
<g id="a_edge6_Node000001_Node000004"><a xlink:title=" ">
<path fill="none" stroke="#63b8ff" d="M177.82,-111.62C172.99,-93.92 162.44,-55.24 155.92,-31.32"/>
<polygon fill="#63b8ff" stroke="#63b8ff" points="159.33,-30.54 153.32,-21.82 152.58,-32.38 159.33,-30.54"/>
</a>
</g>
</g>
<!-- Node5 -->
<g id="Node000005" class="node">
<title>Node5</title>
<g id="a_Node000005"><a xlink:title=" ">
<polygon fill="#e0e0e0" stroke="#999999" points="258.62,-76 208.12,-76 208.12,-56 258.62,-56 258.62,-76"/>
<text xml:space="preserve" text-anchor="middle" x="233.38" y="-62.5" font-family="Helvetica,sans-Serif" font-size="10.00">queue.h</text>
</a>
</g>
</g>
<!-- Node1&#45;&gt;Node5 -->
<g id="edge4_Node000001_Node000005" class="edge">
<title>Node1&#45;&gt;Node5</title>
<g id="a_edge4_Node000001_Node000005"><a xlink:title=" ">
<path fill="none" stroke="#63b8ff" d="M189.61,-111.59C196.98,-104.08 207.51,-93.35 216.39,-84.3"/>
<polygon fill="#63b8ff" stroke="#63b8ff" points="218.68,-86.97 223.19,-77.38 213.69,-82.06 218.68,-86.97"/>
</a>
</g>
</g>
<!-- Node6 -->
<g id="Node000006" class="node">
<title>Node6</title>
<g id="a_Node000006"><a xlink:title=" ">
<polygon fill="#e0e0e0" stroke="#999999" points="324.5,-76 276.25,-76 276.25,-56 324.5,-56 324.5,-76"/>
<text xml:space="preserve" text-anchor="middle" x="300.38" y="-62.5" font-family="Helvetica,sans-Serif" font-size="10.00">cstddef</text>
</a>
</g>
</g>
<!-- Node1&#45;&gt;Node6 -->
<g id="edge5_Node000001_Node000006" class="edge">
<title>Node1&#45;&gt;Node6</title>
<g id="a_edge5_Node000001_Node000006"><a xlink:title=" ">
<path fill="none" stroke="#63b8ff" d="M201.28,-111.59C220,-103.17 247.73,-90.69 269.1,-81.07"/>
<polygon fill="#63b8ff" stroke="#63b8ff" points="270.25,-84.4 277.93,-77.1 267.37,-78.01 270.25,-84.4"/>
</a>
</g>
</g>
<!-- Node3&#45;&gt;Node4 -->
<g id="edge3_Node000003_Node000004" class="edge">
<title>Node3&#45;&gt;Node4</title>
<g id="a_edge3_Node000003_Node000004"><a xlink:title=" ">
<path fill="none" stroke="#63b8ff" d="M125.6,-55.59C129.47,-48.63 134.88,-38.89 139.66,-30.29"/>
<polygon fill="#63b8ff" stroke="#63b8ff" points="142.68,-32.06 144.47,-21.62 136.56,-28.66 142.68,-32.06"/>
</a>
</g>
</g>
</g>
</svg>
