<?xml version="1.0" encoding="UTF-8" standalone="no"?>
<!DOCTYPE svg PUBLIC "-//W3C//DTD SVG 1.1//EN"
 "http://www.w3.org/Graphics/SVG/1.1/DTD/svg11.dtd">
<!-- Generated by graphviz version 13.1.0 (20250701.0955)
 -->
<!-- Title: Lib::HAL::TIM::Timer&lt; Mode::ENCODER &gt;::open Pages: 1 -->
<svg width="988pt" height="222pt"
 viewBox="0.00 0.00 988.00 222.00" xmlns="http://www.w3.org/2000/svg" xmlns:xlink="http://www.w3.org/1999/xlink">
<g id="graph0" class="graph" transform="scale(1 1) rotate(0) translate(4 218)">
<title>Lib::HAL::TIM::Timer&lt; Mode::ENCODER &gt;::open</title>
<!-- Node1 -->
<g id="Node000001" class="node">
<title>Node1</title>
<g id="a_Node000001"><a xlink:title="Opens the encoder timer and starts interrupt&#45;driven counting.">
<polygon fill="#999999" stroke="#666666" points="142,-159 0,-159 0,-127 142,-127 142,-159"/>
<text xml:space="preserve" text-anchor="start" x="8" y="-145.5" font-family="Helvetica,sans-Serif" font-size="10.00">Lib::HAL::TIM::Timer</text>
<text xml:space="preserve" text-anchor="middle" x="71" y="-133.5" font-family="Helvetica,sans-Serif" font-size="10.00">&lt; Mode::ENCODER &gt;::open</text>
</a>
</g>
</g>
<!-- Node2 -->
<g id="Node000002" class="node">
<title>Node2</title>
<g id="a_Node000002"><a xlink:href="../../dc/d57/a01512.html#a9c1d70b49613a972382dcbf845474280" target="_top" xlink:title="Returns the underlying TIM handle.">
<polygon fill="white" stroke="#666666" points="607.38,-214 501.38,-214 501.38,-182 607.38,-182 607.38,-214"/>
<text xml:space="preserve" text-anchor="start" x="509.38" y="-200.5" font-family="Helvetica,sans-Serif" font-size="10.00">Lib::HAL::TIM::Base</text>
<text xml:space="preserve" text-anchor="middle" x="554.38" y="-188.5" font-family="Helvetica,sans-Serif" font-size="10.00">::getHandle</text>
</a>
</g>
</g>
<!-- Node1&#45;&gt;Node2 -->
<g id="edge1_Node000001_Node000002" class="edge">
<title>Node1&#45;&gt;Node2</title>
<g id="a_edge1_Node000001_Node000002"><a xlink:title=" ">
<path fill="none" stroke="#63b8ff" d="M142.25,-151.03C235.75,-161.71 399.72,-180.44 489.75,-190.73"/>
<polygon fill="#63b8ff" stroke="#63b8ff" points="489.31,-194.2 499.64,-191.86 490.1,-187.25 489.31,-194.2"/>
</a>
</g>
</g>
<!-- Node3 -->
<g id="Node000003" class="node">
<title>Node3</title>
<g id="a_Node000003"><a xlink:href="../../dc/d57/a01512.html#ac65559737120cd6ab6d522a27a70e8af" target="_top" xlink:title="Opens the device and registers it with the device manager.">
<polygon fill="white" stroke="#666666" points="284,-137 178,-137 178,-105 284,-105 284,-137"/>
<text xml:space="preserve" text-anchor="start" x="186" y="-123.5" font-family="Helvetica,sans-Serif" font-size="10.00">Lib::HAL::TIM::Base</text>
<text xml:space="preserve" text-anchor="middle" x="231" y="-111.5" font-family="Helvetica,sans-Serif" font-size="10.00">::open</text>
</a>
</g>
</g>
<!-- Node1&#45;&gt;Node3 -->
<g id="edge2_Node000001_Node000003" class="edge">
<title>Node1&#45;&gt;Node3</title>
<g id="a_edge2_Node000001_Node000003"><a xlink:title=" ">
<path fill="none" stroke="#63b8ff" d="M142.22,-133.22C150.2,-132.11 158.29,-130.98 166.18,-129.89"/>
<polygon fill="#63b8ff" stroke="#63b8ff" points="166.62,-133.36 176.04,-128.51 165.65,-126.43 166.62,-133.36"/>
</a>
</g>
</g>
<!-- Node4 -->
<g id="Node000004" class="node">
<title>Node4</title>
<g id="a_Node000004"><a xlink:href="../../db/dbf/a01516.html#ad52b33bb8cd29f654a0f7c999d0201ad" target="_top" xlink:title="Adds a TIM device and registers all HAL callbacks.">
<polygon fill="white" stroke="#666666" points="432,-137 320,-137 320,-105 432,-105 432,-137"/>
<text xml:space="preserve" text-anchor="start" x="328" y="-123.5" font-family="Helvetica,sans-Serif" font-size="10.00">Lib::HAL::TIM::Base</text>
<text xml:space="preserve" text-anchor="middle" x="376" y="-111.5" font-family="Helvetica,sans-Serif" font-size="10.00">::DeviceManager::add</text>
</a>
</g>
</g>
<!-- Node3&#45;&gt;Node4 -->
<g id="edge3_Node000003_Node000004" class="edge">
<title>Node3&#45;&gt;Node4</title>
<g id="a_edge3_Node000003_Node000004"><a xlink:title=" ">
<path fill="none" stroke="#63b8ff" d="M284.44,-121C292.24,-121 300.37,-121 308.41,-121"/>
<polygon fill="#63b8ff" stroke="#63b8ff" points="308.17,-124.5 318.17,-121 308.17,-117.5 308.17,-124.5"/>
</a>
</g>
</g>
<!-- Node11 -->
<g id="Node000011" class="node">
<title>Node11</title>
<g id="a_Node000011"><a xlink:href="../../db/dbf/a01516.html#ac161acc0243c1038d3919ff158139e51" target="_top" xlink:title="Returns the singleton instance of DeviceManager.">
<polygon fill="white" stroke="#666666" points="825.88,-32 678.62,-32 678.62,0 825.88,0 825.88,-32"/>
<text xml:space="preserve" text-anchor="start" x="686.62" y="-18.5" font-family="Helvetica,sans-Serif" font-size="10.00">Lib::HAL::TIM::Base</text>
<text xml:space="preserve" text-anchor="middle" x="752.25" y="-6.5" font-family="Helvetica,sans-Serif" font-size="10.00">::DeviceManager::getInstance</text>
</a>
</g>
</g>
<!-- Node3&#45;&gt;Node11 -->
<g id="edge12_Node000003_Node000011" class="edge">
<title>Node3&#45;&gt;Node11</title>
<g id="a_edge12_Node000003_Node000011"><a xlink:title=" ">
<path fill="none" stroke="#63b8ff" d="M267.06,-104.66C312.36,-84.39 394.19,-50.59 468,-35 533.87,-21.08 610.08,-16.61 666.85,-15.46"/>
<polygon fill="#63b8ff" stroke="#63b8ff" points="666.84,-18.96 676.78,-15.3 666.73,-11.96 666.84,-18.96"/>
</a>
</g>
</g>
<!-- Node4&#45;&gt;Node2 -->
<g id="edge7_Node000004_Node000002" class="edge">
<title>Node4&#45;&gt;Node2</title>
<g id="a_edge7_Node000004_Node000002"><a xlink:title=" ">
<path fill="none" stroke="#63b8ff" d="M402.06,-137.46C419.9,-148.62 444.72,-163.1 468,-173 475.15,-176.04 482.78,-178.85 490.44,-181.4"/>
<polygon fill="#63b8ff" stroke="#63b8ff" points="489.19,-184.68 499.78,-184.38 491.32,-178.01 489.19,-184.68"/>
</a>
</g>
</g>
<!-- Node5 -->
<g id="Node000005" class="node">
<title>Node5</title>
<g id="a_Node000005"><a xlink:href="../../d7/d32/a01444.html#a02525534e0f3709fe5dd2164cd1543b4" target="_top" xlink:title="Adds a device pointer to the manager and tracks it for future operations.">
<polygon fill="white" stroke="#666666" points="640.75,-164 468,-164 468,-144 640.75,-144 640.75,-164"/>
<text xml:space="preserve" text-anchor="middle" x="554.38" y="-150.5" font-family="Helvetica,sans-Serif" font-size="10.00">Lib::HAL::DeviceManagerBase::add</text>
</a>
</g>
</g>
<!-- Node4&#45;&gt;Node5 -->
<g id="edge4_Node000004_Node000005" class="edge">
<title>Node4&#45;&gt;Node5</title>
<g id="a_edge4_Node000004_Node000005"><a xlink:title=" ">
<path fill="none" stroke="#63b8ff" d="M432.32,-131.35C449.39,-134.54 468.38,-138.1 486.16,-141.42"/>
<polygon fill="#63b8ff" stroke="#63b8ff" points="485.38,-144.84 495.85,-143.24 486.67,-137.96 485.38,-144.84"/>
</a>
</g>
</g>
<!-- Node7 -->
<g id="Node000007" class="node">
<title>Node7</title>
<g id="a_Node000007"><a xlink:href="../../dc/d57/a01512.html#a563f6e2bf6b978f526c5fa87583bc588" target="_top" xlink:title="Constructs a TIM base device with the given handle.">
<polygon fill="white" stroke="#666666" points="607.38,-126 501.38,-126 501.38,-94 607.38,-94 607.38,-126"/>
<text xml:space="preserve" text-anchor="start" x="509.38" y="-112.5" font-family="Helvetica,sans-Serif" font-size="10.00">Lib::HAL::TIM::Base</text>
<text xml:space="preserve" text-anchor="middle" x="554.38" y="-100.5" font-family="Helvetica,sans-Serif" font-size="10.00">::Base</text>
</a>
</g>
</g>
<!-- Node4&#45;&gt;Node7 -->
<g id="edge6_Node000004_Node000007" class="edge">
<title>Node4&#45;&gt;Node7</title>
<g id="a_edge6_Node000004_Node000007"><a xlink:title=" ">
<path fill="none" stroke="#63b8ff" d="M432.32,-117.55C450.48,-116.42 470.8,-115.15 489.53,-113.98"/>
<polygon fill="#63b8ff" stroke="#63b8ff" points="489.68,-117.48 499.45,-113.36 489.25,-110.49 489.68,-117.48"/>
</a>
</g>
</g>
<!-- Node8 -->
<g id="Node000008" class="node">
<title>Node8</title>
<g id="a_Node000008"><a xlink:href="../../db/dbf/a01516.html#a9fe8bb635fbae9a9a63f1d4f955f5295" target="_top" xlink:title="Static ISR callback router for HAL_TIM events.">
<polygon fill="white" stroke="#666666" points="626.88,-76 481.88,-76 481.88,-44 626.88,-44 626.88,-76"/>
<text xml:space="preserve" text-anchor="start" x="489.88" y="-62.5" font-family="Helvetica,sans-Serif" font-size="10.00">Lib::HAL::TIM::Base</text>
<text xml:space="preserve" text-anchor="middle" x="554.38" y="-50.5" font-family="Helvetica,sans-Serif" font-size="10.00">::DeviceManager::isrCallback</text>
</a>
</g>
</g>
<!-- Node4&#45;&gt;Node8 -->
<g id="edge8_Node000004_Node000008" class="edge">
<title>Node4&#45;&gt;Node8</title>
<g id="a_edge8_Node000004_Node000008"><a xlink:title=" ">
<path fill="none" stroke="#63b8ff" d="M416.12,-104.61C432.09,-98.16 450.81,-90.9 468,-85 473.25,-83.2 478.71,-81.41 484.22,-79.66"/>
<polygon fill="#63b8ff" stroke="#63b8ff" points="484.87,-83.13 493.38,-76.82 482.79,-76.44 484.87,-83.13"/>
</a>
</g>
</g>
<!-- Node6 -->
<g id="Node000006" class="node">
<title>Node6</title>
<g id="a_Node000006"><a xlink:href="../../da/daf/a01568.html#a08f13d398bd11b0deeca6395e921c464" target="_top" xlink:title=" ">
<polygon fill="white" stroke="#666666" points="807.88,-170 696.62,-170 696.62,-138 807.88,-138 807.88,-170"/>
<text xml:space="preserve" text-anchor="start" x="704.62" y="-156.5" font-family="Helvetica,sans-Serif" font-size="10.00">Lib::Helper::Container</text>
<text xml:space="preserve" text-anchor="middle" x="752.25" y="-144.5" font-family="Helvetica,sans-Serif" font-size="10.00">&lt; T_DEVICE &gt;::add</text>
</a>
</g>
</g>
<!-- Node5&#45;&gt;Node6 -->
<g id="edge5_Node000005_Node000006" class="edge">
<title>Node5&#45;&gt;Node6</title>
<g id="a_edge5_Node000005_Node000006"><a xlink:title=" ">
<path fill="none" stroke="#63b8ff" d="M641,-154C655.79,-154 670.95,-154 685.12,-154"/>
<polygon fill="#63b8ff" stroke="#63b8ff" points="684.73,-157.5 694.73,-154 684.73,-150.5 684.73,-157.5"/>
</a>
</g>
</g>
<!-- Node9 -->
<g id="Node000009" class="node">
<title>Node9</title>
<g id="a_Node000009"><a xlink:href="../../d7/d32/a01444.html#aaac29073ac46f5da71a5d4506b093d61" target="_top" xlink:title="Retrieves a device pointer by searching for a matching handle pointer.">
<polygon fill="white" stroke="#666666" points="827.75,-82 676.75,-82 676.75,-50 827.75,-50 827.75,-82"/>
<text xml:space="preserve" text-anchor="start" x="684.75" y="-68.5" font-family="Helvetica,sans-Serif" font-size="10.00">Lib::HAL::DeviceManagerBase</text>
<text xml:space="preserve" text-anchor="middle" x="752.25" y="-56.5" font-family="Helvetica,sans-Serif" font-size="10.00">::getDevice</text>
</a>
</g>
</g>
<!-- Node8&#45;&gt;Node9 -->
<g id="edge9_Node000008_Node000009" class="edge">
<title>Node8&#45;&gt;Node9</title>
<g id="a_edge9_Node000008_Node000009"><a xlink:title=" ">
<path fill="none" stroke="#63b8ff" d="M627.2,-62.2C639.49,-62.58 652.37,-62.97 664.99,-63.36"/>
<polygon fill="#63b8ff" stroke="#63b8ff" points="664.86,-66.86 674.96,-63.66 665.07,-59.86 664.86,-66.86"/>
</a>
</g>
</g>
<!-- Node8&#45;&gt;Node11 -->
<g id="edge11_Node000008_Node000011" class="edge">
<title>Node8&#45;&gt;Node11</title>
<g id="a_edge11_Node000008_Node000011"><a xlink:title=" ">
<path fill="none" stroke="#63b8ff" d="M627.2,-43.87C640.25,-40.93 653.97,-37.85 667.33,-34.85"/>
<polygon fill="#63b8ff" stroke="#63b8ff" points="667.98,-38.29 676.97,-32.68 666.45,-31.46 667.98,-38.29"/>
</a>
</g>
</g>
<!-- Node10 -->
<g id="Node000010" class="node">
<title>Node10</title>
<g id="a_Node000010"><a xlink:href="../../da/daf/a01568.html#a116dc27fcf16e2d9de3009bba7a54e49" target="_top" xlink:title=" ">
<polygon fill="white" stroke="#666666" points="979.5,-82 863.75,-82 863.75,-50 979.5,-50 979.5,-82"/>
<text xml:space="preserve" text-anchor="start" x="871.75" y="-68.5" font-family="Helvetica,sans-Serif" font-size="10.00">Lib::Helper::Container</text>
<text xml:space="preserve" text-anchor="middle" x="921.62" y="-56.5" font-family="Helvetica,sans-Serif" font-size="10.00">&lt; T_DEVICE &gt;::vector</text>
</a>
</g>
</g>
<!-- Node9&#45;&gt;Node10 -->
<g id="edge10_Node000009_Node000010" class="edge">
<title>Node9&#45;&gt;Node10</title>
<g id="a_edge10_Node000009_Node000010"><a xlink:title=" ">
<path fill="none" stroke="#63b8ff" d="M828.13,-66C836.08,-66 844.14,-66 852.02,-66"/>
<polygon fill="#63b8ff" stroke="#63b8ff" points="851.88,-69.5 861.88,-66 851.88,-62.5 851.88,-69.5"/>
</a>
</g>
</g>
</g>
</svg>
