<?xml version="1.0" encoding="UTF-8" standalone="no"?>
<!DOCTYPE svg PUBLIC "-//W3C//DTD SVG 1.1//EN"
 "http://www.w3.org/Graphics/SVG/1.1/DTD/svg11.dtd">
<!-- Generated by graphviz version 13.1.0 (20250701.0955)
 -->
<!-- Title: Lib::Digi::API::NodeInfo::MacDiagnostic Pages: 1 -->
<svg width="192pt" height="76pt"
 viewBox="0.00 0.00 192.00 76.00" xmlns="http://www.w3.org/2000/svg" xmlns:xlink="http://www.w3.org/1999/xlink">
<g id="graph0" class="graph" transform="scale(1 1) rotate(0) translate(4 72)">
<title>Lib::Digi::API::NodeInfo::MacDiagnostic</title>
<!-- Node1 -->
<g id="Node000001" class="node">
<title>Node1</title>
<g id="a_Node000001"><a xlink:title="MAC diagnostic information.">
<polygon fill="#999999" stroke="none" points="183.5,-68 0,-68 0,0 183.5,0 183.5,-68"/>
<text xml:space="preserve" text-anchor="start" x="4" y="-54.5" font-family="Helvetica,sans-Serif" font-size="10.00">Lib::Digi::API::NodeInfo::MacDiagnostic</text>
<text xml:space="preserve" text-anchor="start" x="32.81" y="-38.5" font-family="Helvetica,sans-Serif" font-size="10.00">+</text>
<text xml:space="preserve" text-anchor="start" x="71.62" y="-38.5" font-family="Helvetica,sans-Serif" font-size="10.00">ascFailures</text>
<text xml:space="preserve" text-anchor="start" x="32.81" y="-22.5" font-family="Helvetica,sans-Serif" font-size="10.00">+</text>
<text xml:space="preserve" text-anchor="start" x="71.62" y="-22.5" font-family="Helvetica,sans-Serif" font-size="10.00">ccaFailures</text>
<text xml:space="preserve" text-anchor="start" x="90.25" y="-6.5" font-family="Helvetica,sans-Serif" font-size="10.00"> </text>
<polygon fill="#666666" stroke="#666666" points="0,-50 0,-50 183.5,-50 183.5,-50 0,-50"/>
<polygon fill="#666666" stroke="#666666" points="0,-18 0,-18 69.62,-18 69.62,-18 0,-18"/>
<polygon fill="#666666" stroke="#666666" points="69.62,-18 69.62,-18 183.5,-18 183.5,-18 69.62,-18"/>
<polygon fill="none" stroke="#666666" points="0,0 0,-68 183.5,-68 183.5,0 0,0"/>
</a>
</g>
</g>
</g>
</svg>
