<?xml version="1.0" encoding="UTF-8" standalone="no"?>
<!DOCTYPE svg PUBLIC "-//W3C//DTD SVG 1.1//EN"
 "http://www.w3.org/Graphics/SVG/1.1/DTD/svg11.dtd">
<!-- Generated by graphviz version 13.1.0 (20250701.0955)
 -->
<!-- Title: Lib::Xbee::Core::AtCommandString Pages: 1 -->
<svg width="145pt" height="140pt"
 viewBox="0.00 0.00 145.00 140.00" xmlns="http://www.w3.org/2000/svg" xmlns:xlink="http://www.w3.org/1999/xlink">
<g id="graph0" class="graph" transform="scale(1 1) rotate(0) translate(4 136)">
<title>Lib::Xbee::Core::AtCommandString</title>
<!-- Node1 -->
<g id="Node000001" class="node">
<title>Node1</title>
<g id="a_Node000001"><a xlink:title="AT Command string wrapper for XBEE modules.">
<polygon fill="#999999" stroke="none" points="137,-132 0,-132 0,0 137,0 137,-132"/>
<text xml:space="preserve" text-anchor="start" x="4" y="-118.5" font-family="Helvetica,sans-Serif" font-size="10.00">Lib::Xbee::Core::AtCommand</text>
<text xml:space="preserve" text-anchor="start" x="55.75" y="-106.5" font-family="Helvetica,sans-Serif" font-size="10.00">String</text>
<text xml:space="preserve" text-anchor="start" x="67" y="-90.5" font-family="Helvetica,sans-Serif" font-size="10.00"> </text>
<text xml:space="preserve" text-anchor="start" x="6.38" y="-74.5" font-family="Helvetica,sans-Serif" font-size="10.00">+</text>
<text xml:space="preserve" text-anchor="start" x="18.75" y="-74.5" font-family="Helvetica,sans-Serif" font-size="10.00">AtCommandString(const</text>
<text xml:space="preserve" text-anchor="start" x="18.75" y="-62.5" font-family="Helvetica,sans-Serif" font-size="10.00"> std::string &amp;string)</text>
<text xml:space="preserve" text-anchor="start" x="6.38" y="-46.5" font-family="Helvetica,sans-Serif" font-size="10.00">+</text>
<text xml:space="preserve" text-anchor="start" x="18.75" y="-46.5" font-family="Helvetica,sans-Serif" font-size="10.00">AtCommandString(uint16</text>
<text xml:space="preserve" text-anchor="start" x="18.75" y="-34.5" font-family="Helvetica,sans-Serif" font-size="10.00">_t value)</text>
<text xml:space="preserve" text-anchor="start" x="6.38" y="-18.5" font-family="Helvetica,sans-Serif" font-size="10.00">+</text>
<text xml:space="preserve" text-anchor="start" x="18.75" y="-18.5" font-family="Helvetica,sans-Serif" font-size="10.00">operator uint16_t</text>
<text xml:space="preserve" text-anchor="start" x="18.75" y="-6.5" font-family="Helvetica,sans-Serif" font-size="10.00">() const</text>
<polygon fill="#666666" stroke="#666666" points="0,-102 0,-102 137,-102 137,-102 0,-102"/>
<polygon fill="#666666" stroke="#666666" points="0,-86 0,-86 137,-86 137,-86 0,-86"/>
<polygon fill="none" stroke="#666666" points="0,0 0,-132 137,-132 137,0 0,0"/>
</a>
</g>
</g>
</g>
</svg>
