<?xml version="1.0" encoding="UTF-8" standalone="no"?>
<!DOCTYPE svg PUBLIC "-//W3C//DTD SVG 1.1//EN"
 "http://www.w3.org/Graphics/SVG/1.1/DTD/svg11.dtd">
<!-- Generated by graphviz version 13.1.0 (20250701.0955)
 -->
<!-- Title: Lib::BSP::EncoderTimer::Config Pages: 1 -->
<svg width="156pt" height="76pt"
 viewBox="0.00 0.00 156.00 76.00" xmlns="http://www.w3.org/2000/svg" xmlns:xlink="http://www.w3.org/1999/xlink">
<g id="graph0" class="graph" transform="scale(1 1) rotate(0) translate(4 72)">
<title>Lib::BSP::EncoderTimer::Config</title>
<!-- Node1 -->
<g id="Node000001" class="node">
<title>Node1</title>
<g id="a_Node000001"><a xlink:title="EncoderTimer configuration.">
<polygon fill="#999999" stroke="none" points="148.25,-68 0,-68 0,0 148.25,0 148.25,-68"/>
<text xml:space="preserve" text-anchor="start" x="4" y="-54.5" font-family="Helvetica,sans-Serif" font-size="10.00">Lib::BSP::EncoderTimer::Config</text>
<text xml:space="preserve" text-anchor="start" x="25.5" y="-38.5" font-family="Helvetica,sans-Serif" font-size="10.00">+</text>
<text xml:space="preserve" text-anchor="start" x="57" y="-38.5" font-family="Helvetica,sans-Serif" font-size="10.00">timHandle</text>
<text xml:space="preserve" text-anchor="start" x="25.5" y="-22.5" font-family="Helvetica,sans-Serif" font-size="10.00">+</text>
<text xml:space="preserve" text-anchor="start" x="57" y="-22.5" font-family="Helvetica,sans-Serif" font-size="10.00">button</text>
<text xml:space="preserve" text-anchor="start" x="72.62" y="-6.5" font-family="Helvetica,sans-Serif" font-size="10.00"> </text>
<polygon fill="#666666" stroke="#666666" points="0,-50 0,-50 148.25,-50 148.25,-50 0,-50"/>
<polygon fill="#666666" stroke="#666666" points="0,-18 0,-18 55,-18 55,-18 0,-18"/>
<polygon fill="#666666" stroke="#666666" points="55,-18 55,-18 148.25,-18 148.25,-18 55,-18"/>
<polygon fill="none" stroke="#666666" points="0,0 0,-68 148.25,-68 148.25,0 0,0"/>
</a>
</g>
</g>
</g>
</svg>
