<?xml version="1.0" encoding="UTF-8" standalone="no"?>
<!DOCTYPE svg PUBLIC "-//W3C//DTD SVG 1.1//EN"
 "http://www.w3.org/Graphics/SVG/1.1/DTD/svg11.dtd">
<!-- Generated by graphviz version 12.2.1 (20241206.2353)
 -->
<!-- Title: Parameters.hpp Pages: 1 -->
<svg width="944pt" height="152pt"
 viewBox="0.00 0.00 943.88 152.00" xmlns="http://www.w3.org/2000/svg" xmlns:xlink="http://www.w3.org/1999/xlink">
<g id="graph0" class="graph" transform="scale(1 1) rotate(0) translate(4 148)">
<title>Parameters.hpp</title>
<!-- Node1 -->
<g id="Node000001" class="node">
<title>Node1</title>
<g id="a_Node000001"><a xlink:title="This file contains the declaration and implementation of the Parameters class, which is part of the L...">
<polygon fill="#999999" stroke="#666666" points="604.38,-144 519.38,-144 519.38,-124 604.38,-124 604.38,-144"/>
<text text-anchor="middle" x="561.88" y="-130.5" font-family="Helvetica,sans-Serif" font-size="10.00">Parameters.hpp</text>
</a>
</g>
</g>
<!-- Node2 -->
<g id="Node000002" class="node">
<title>Node2</title>
<g id="a_Node000002"><a xlink:title=" ">
<polygon fill="#e0e0e0" stroke="#999999" points="139.75,-82 0,-82 0,-62 139.75,-62 139.75,-82"/>
<text text-anchor="middle" x="69.88" y="-68.5" font-family="Helvetica,sans-Serif" font-size="10.00">Lib/Digi/API/Connection.hpp</text>
</a>
</g>
</g>
<!-- Node1&#45;&gt;Node2 -->
<g id="edge1_Node000001_Node000002" class="edge">
<title>Node1&#45;&gt;Node2</title>
<g id="a_edge1_Node000001_Node000002"><a xlink:title=" ">
<path fill="none" stroke="#63b8ff" d="M518.92,-129.45C443.71,-122.98 283.34,-108.06 148.88,-88 141.99,-86.97 134.79,-85.78 127.65,-84.52"/>
<polygon fill="#63b8ff" stroke="#63b8ff" points="128.51,-81.11 118.05,-82.77 127.26,-88 128.51,-81.11"/>
</a>
</g>
</g>
<!-- Node3 -->
<g id="Node000003" class="node">
<title>Node3</title>
<g id="a_Node000003"><a xlink:title=" ">
<polygon fill="#e0e0e0" stroke="#999999" points="261.75,-88 158,-88 158,-56 261.75,-56 261.75,-88"/>
<text text-anchor="start" x="166" y="-74.5" font-family="Helvetica,sans-Serif" font-size="10.00">Lib/Digi/Core/Frame</text>
<text text-anchor="middle" x="209.88" y="-62.5" font-family="Helvetica,sans-Serif" font-size="10.00">/Helper.hpp</text>
</a>
</g>
</g>
<!-- Node1&#45;&gt;Node3 -->
<g id="edge2_Node000001_Node000003" class="edge">
<title>Node1&#45;&gt;Node3</title>
<g id="a_edge2_Node000001_Node000003"><a xlink:title=" ">
<path fill="none" stroke="#63b8ff" d="M519.26,-127.6C464.54,-120.41 366.44,-106.64 273.11,-88.34"/>
<polygon fill="#63b8ff" stroke="#63b8ff" points="274.03,-84.96 263.54,-86.44 272.66,-91.82 274.03,-84.96"/>
</a>
</g>
</g>
<!-- Node4 -->
<g id="Node000004" class="node">
<title>Node4</title>
<g id="a_Node000004"><a xlink:title=" ">
<polygon fill="#e0e0e0" stroke="#999999" points="452.25,-82 279.5,-82 279.5,-62 452.25,-62 452.25,-82"/>
<text text-anchor="middle" x="365.88" y="-68.5" font-family="Helvetica,sans-Serif" font-size="10.00">Lib/Digi/Core/LocalAtCommand.hpp</text>
</a>
</g>
</g>
<!-- Node1&#45;&gt;Node4 -->
<g id="edge3_Node000001_Node000004" class="edge">
<title>Node1&#45;&gt;Node4</title>
<g id="a_edge3_Node000001_Node000004"><a xlink:title=" ">
<path fill="none" stroke="#63b8ff" d="M531.25,-123.62C497.98,-113.44 444.62,-97.11 407.55,-85.76"/>
<polygon fill="#63b8ff" stroke="#63b8ff" points="408.64,-82.43 398.05,-82.85 406.59,-89.12 408.64,-82.43"/>
</a>
</g>
</g>
<!-- Node5 -->
<g id="Node000005" class="node">
<title>Node5</title>
<g id="a_Node000005"><a xlink:title=" ">
<polygon fill="#e0e0e0" stroke="#999999" points="653.88,-82 469.88,-82 469.88,-62 653.88,-62 653.88,-82"/>
<text text-anchor="middle" x="561.88" y="-68.5" font-family="Helvetica,sans-Serif" font-size="10.00">Lib/Digi/Core/RemoteAtCommand.hpp</text>
</a>
</g>
</g>
<!-- Node1&#45;&gt;Node5 -->
<g id="edge4_Node000001_Node000005" class="edge">
<title>Node1&#45;&gt;Node5</title>
<g id="a_edge4_Node000001_Node000005"><a xlink:title=" ">
<path fill="none" stroke="#63b8ff" d="M561.88,-123.62C561.88,-115.56 561.88,-103.65 561.88,-93.41"/>
<polygon fill="#63b8ff" stroke="#63b8ff" points="565.38,-93.63 561.88,-83.63 558.38,-93.63 565.38,-93.63"/>
</a>
</g>
</g>
<!-- Node6 -->
<g id="Node000006" class="node">
<title>Node6</title>
<g id="a_Node000006"><a xlink:href="../../df/d6a/a00119.html" target="_top" xlink:title="Declaration of the ServiceBase class for the Xbee API services.">
<polygon fill="white" stroke="#666666" points="762,-82 671.75,-82 671.75,-62 762,-62 762,-82"/>
<text text-anchor="middle" x="716.88" y="-68.5" font-family="Helvetica,sans-Serif" font-size="10.00">ServiceBase.hpp</text>
</a>
</g>
</g>
<!-- Node1&#45;&gt;Node6 -->
<g id="edge5_Node000001_Node000006" class="edge">
<title>Node1&#45;&gt;Node6</title>
<g id="a_edge5_Node000001_Node000006"><a xlink:title=" ">
<path fill="none" stroke="#63b8ff" d="M586.09,-123.62C611.84,-113.66 652.79,-97.81 682,-86.5"/>
<polygon fill="#63b8ff" stroke="#63b8ff" points="683.1,-89.83 691.16,-82.95 680.57,-83.3 683.1,-89.83"/>
</a>
</g>
</g>
<!-- Node8 -->
<g id="Node000008" class="node">
<title>Node8</title>
<g id="a_Node000008"><a xlink:title=" ">
<polygon fill="#e0e0e0" stroke="#999999" points="877.75,-88 780,-88 780,-56 877.75,-56 877.75,-88"/>
<text text-anchor="start" x="788" y="-74.5" font-family="Helvetica,sans-Serif" font-size="10.00">Lib/Helper/Convert</text>
<text text-anchor="middle" x="828.88" y="-62.5" font-family="Helvetica,sans-Serif" font-size="10.00">/Bcd.hpp</text>
</a>
</g>
</g>
<!-- Node1&#45;&gt;Node8 -->
<g id="edge7_Node000001_Node000008" class="edge">
<title>Node1&#45;&gt;Node8</title>
<g id="a_edge7_Node000001_Node000008"><a xlink:title=" ">
<path fill="none" stroke="#63b8ff" d="M604.82,-124.29C644.76,-116.07 706.18,-103.13 768.35,-88.55"/>
<polygon fill="#63b8ff" stroke="#63b8ff" points="769.15,-91.95 778.08,-86.25 767.54,-85.14 769.15,-91.95"/>
</a>
</g>
</g>
<!-- Node9 -->
<g id="Node000009" class="node">
<title>Node9</title>
<g id="a_Node000009"><a xlink:title=" ">
<polygon fill="#e0e0e0" stroke="#999999" points="935.88,-82 895.88,-82 895.88,-62 935.88,-62 935.88,-82"/>
<text text-anchor="middle" x="915.88" y="-68.5" font-family="Helvetica,sans-Serif" font-size="10.00">string</text>
</a>
</g>
</g>
<!-- Node1&#45;&gt;Node9 -->
<g id="edge8_Node000001_Node000009" class="edge">
<title>Node1&#45;&gt;Node9</title>
<g id="a_edge8_Node000001_Node000009"><a xlink:title=" ">
<path fill="none" stroke="#63b8ff" d="M604.7,-131.67C667.84,-128.7 789.02,-119.07 886.88,-88 887.84,-87.69 888.82,-87.35 889.8,-86.99"/>
<polygon fill="#63b8ff" stroke="#63b8ff" points="890.95,-90.31 898.65,-83.04 888.09,-83.92 890.95,-90.31"/>
</a>
</g>
</g>
<!-- Node7 -->
<g id="Node000007" class="node">
<title>Node7</title>
<g id="a_Node000007"><a xlink:title=" ">
<polygon fill="#e0e0e0" stroke="#999999" points="757.5,-20 676.25,-20 676.25,0 757.5,0 757.5,-20"/>
<text text-anchor="middle" x="716.88" y="-6.5" font-family="Helvetica,sans-Serif" font-size="10.00">FreeRTOS.hpp</text>
</a>
</g>
</g>
<!-- Node6&#45;&gt;Node7 -->
<g id="edge6_Node000006_Node000007" class="edge">
<title>Node6&#45;&gt;Node7</title>
<g id="a_edge6_Node000006_Node000007"><a xlink:title=" ">
<path fill="none" stroke="#63b8ff" d="M716.88,-61.62C716.88,-53.56 716.88,-41.65 716.88,-31.41"/>
<polygon fill="#63b8ff" stroke="#63b8ff" points="720.38,-31.63 716.88,-21.63 713.38,-31.63 720.38,-31.63"/>
</a>
</g>
</g>
</g>
</svg>
