<?xml version="1.0" encoding="UTF-8" standalone="no"?>
<!DOCTYPE svg PUBLIC "-//W3C//DTD SVG 1.1//EN"
 "http://www.w3.org/Graphics/SVG/1.1/DTD/svg11.dtd">
<!-- Generated by graphviz version 12.2.1 (20241206.2353)
 -->
<!-- Title: Parameters.hpp Pages: 1 -->
<svg width="984pt" height="152pt"
 viewBox="0.00 0.00 983.75 152.00" xmlns="http://www.w3.org/2000/svg" xmlns:xlink="http://www.w3.org/1999/xlink">
<g id="graph0" class="graph" transform="scale(1 1) rotate(0) translate(4 148)">
<title>Parameters.hpp</title>
<!-- Node1 -->
<g id="Node000001" class="node">
<title>Node1</title>
<g id="a_Node000001"><a xlink:title="This file contains the declaration and implementation of the Parameters class, which is part of the L...">
<polygon fill="#999999" stroke="#666666" points="639.25,-144 554.25,-144 554.25,-124 639.25,-124 639.25,-144"/>
<text text-anchor="middle" x="596.75" y="-130.5" font-family="Helvetica,sans-Serif" font-size="10.00">Parameters.hpp</text>
</a>
</g>
</g>
<!-- Node2 -->
<g id="Node000002" class="node">
<title>Node2</title>
<g id="a_Node000002"><a xlink:title=" ">
<polygon fill="#e0e0e0" stroke="#999999" points="149.5,-82 0,-82 0,-62 149.5,-62 149.5,-82"/>
<text text-anchor="middle" x="74.75" y="-68.5" font-family="Helvetica,sans-Serif" font-size="10.00">Lib/XBEE/API/Connection.hpp</text>
</a>
</g>
</g>
<!-- Node1&#45;&gt;Node2 -->
<g id="edge1_Node000001_Node000002" class="edge">
<title>Node1&#45;&gt;Node2</title>
<g id="a_edge1_Node000001_Node000002"><a xlink:title=" ">
<path fill="none" stroke="#63b8ff" d="M554.03,-129.67C475.54,-123.32 303.15,-108.28 158.75,-88 151.26,-86.95 143.41,-85.72 135.66,-84.42"/>
<polygon fill="#63b8ff" stroke="#63b8ff" points="136.34,-80.99 125.89,-82.75 135.16,-87.89 136.34,-80.99"/>
</a>
</g>
</g>
<!-- Node3 -->
<g id="Node000003" class="node">
<title>Node3</title>
<g id="a_Node000003"><a xlink:title=" ">
<polygon fill="#e0e0e0" stroke="#999999" points="281.5,-88 168,-88 168,-56 281.5,-56 281.5,-88"/>
<text text-anchor="start" x="176" y="-74.5" font-family="Helvetica,sans-Serif" font-size="10.00">Lib/XBEE/Core/Frame</text>
<text text-anchor="middle" x="224.75" y="-62.5" font-family="Helvetica,sans-Serif" font-size="10.00">/Helper.hpp</text>
</a>
</g>
</g>
<!-- Node1&#45;&gt;Node3 -->
<g id="edge2_Node000001_Node000003" class="edge">
<title>Node1&#45;&gt;Node3</title>
<g id="a_edge2_Node000001_Node000003"><a xlink:title=" ">
<path fill="none" stroke="#63b8ff" d="M553.75,-127.74C496.53,-120.52 391.95,-106.5 293.03,-88.34"/>
<polygon fill="#63b8ff" stroke="#63b8ff" points="293.89,-84.94 283.42,-86.56 292.61,-91.82 293.89,-84.94"/>
</a>
</g>
</g>
<!-- Node4 -->
<g id="Node000004" class="node">
<title>Node4</title>
<g id="a_Node000004"><a xlink:title=" ">
<polygon fill="#e0e0e0" stroke="#999999" points="482,-82 299.5,-82 299.5,-62 482,-62 482,-82"/>
<text text-anchor="middle" x="390.75" y="-68.5" font-family="Helvetica,sans-Serif" font-size="10.00">Lib/XBEE/Core/LocalAtCommand.hpp</text>
</a>
</g>
</g>
<!-- Node1&#45;&gt;Node4 -->
<g id="edge3_Node000001_Node000004" class="edge">
<title>Node1&#45;&gt;Node4</title>
<g id="a_edge3_Node000001_Node000004"><a xlink:title=" ">
<path fill="none" stroke="#63b8ff" d="M564.56,-123.62C529.44,-113.4 473.03,-96.97 434.05,-85.61"/>
<polygon fill="#63b8ff" stroke="#63b8ff" points="435.08,-82.27 424.5,-82.83 433.13,-88.99 435.08,-82.27"/>
</a>
</g>
</g>
<!-- Node5 -->
<g id="Node000005" class="node">
<title>Node5</title>
<g id="a_Node000005"><a xlink:title=" ">
<polygon fill="#e0e0e0" stroke="#999999" points="693.62,-82 499.88,-82 499.88,-62 693.62,-62 693.62,-82"/>
<text text-anchor="middle" x="596.75" y="-68.5" font-family="Helvetica,sans-Serif" font-size="10.00">Lib/XBEE/Core/RemoteAtCommand.hpp</text>
</a>
</g>
</g>
<!-- Node1&#45;&gt;Node5 -->
<g id="edge4_Node000001_Node000005" class="edge">
<title>Node1&#45;&gt;Node5</title>
<g id="a_edge4_Node000001_Node000005"><a xlink:title=" ">
<path fill="none" stroke="#63b8ff" d="M596.75,-123.62C596.75,-115.56 596.75,-103.65 596.75,-93.41"/>
<polygon fill="#63b8ff" stroke="#63b8ff" points="600.25,-93.63 596.75,-83.63 593.25,-93.63 600.25,-93.63"/>
</a>
</g>
</g>
<!-- Node6 -->
<g id="Node000006" class="node">
<title>Node6</title>
<g id="a_Node000006"><a xlink:href="../../df/d6a/a00119.html" target="_top" xlink:title="Declaration of the ServiceBase class for the Xbee API services.">
<polygon fill="white" stroke="#666666" points="801.88,-82 711.62,-82 711.62,-62 801.88,-62 801.88,-82"/>
<text text-anchor="middle" x="756.75" y="-68.5" font-family="Helvetica,sans-Serif" font-size="10.00">ServiceBase.hpp</text>
</a>
</g>
</g>
<!-- Node1&#45;&gt;Node6 -->
<g id="edge5_Node000001_Node000006" class="edge">
<title>Node1&#45;&gt;Node6</title>
<g id="a_edge5_Node000001_Node000006"><a xlink:title=" ">
<path fill="none" stroke="#63b8ff" d="M621.75,-123.62C648.44,-113.62 690.97,-97.67 721.15,-86.35"/>
<polygon fill="#63b8ff" stroke="#63b8ff" points="722.11,-89.73 730.24,-82.94 719.65,-83.17 722.11,-89.73"/>
</a>
</g>
</g>
<!-- Node8 -->
<g id="Node000008" class="node">
<title>Node8</title>
<g id="a_Node000008"><a xlink:title=" ">
<polygon fill="#e0e0e0" stroke="#999999" points="917.62,-88 819.88,-88 819.88,-56 917.62,-56 917.62,-88"/>
<text text-anchor="start" x="827.88" y="-74.5" font-family="Helvetica,sans-Serif" font-size="10.00">Lib/Helper/Convert</text>
<text text-anchor="middle" x="868.75" y="-62.5" font-family="Helvetica,sans-Serif" font-size="10.00">/Bcd.hpp</text>
</a>
</g>
</g>
<!-- Node1&#45;&gt;Node8 -->
<g id="edge7_Node000001_Node000008" class="edge">
<title>Node1&#45;&gt;Node8</title>
<g id="a_edge7_Node000001_Node000008"><a xlink:title=" ">
<path fill="none" stroke="#63b8ff" d="M639.51,-124.61C680.43,-116.44 744.16,-103.39 808.3,-88.52"/>
<polygon fill="#63b8ff" stroke="#63b8ff" points="809.01,-91.95 817.95,-86.26 807.42,-85.13 809.01,-91.95"/>
</a>
</g>
</g>
<!-- Node9 -->
<g id="Node000009" class="node">
<title>Node9</title>
<g id="a_Node000009"><a xlink:title=" ">
<polygon fill="#e0e0e0" stroke="#999999" points="975.75,-82 935.75,-82 935.75,-62 975.75,-62 975.75,-82"/>
<text text-anchor="middle" x="955.75" y="-68.5" font-family="Helvetica,sans-Serif" font-size="10.00">string</text>
</a>
</g>
</g>
<!-- Node1&#45;&gt;Node9 -->
<g id="edge8_Node000001_Node000009" class="edge">
<title>Node1&#45;&gt;Node9</title>
<g id="a_edge8_Node000001_Node000009"><a xlink:title=" ">
<path fill="none" stroke="#63b8ff" d="M639.7,-131.79C703.66,-128.97 827.11,-119.53 926.75,-88 927.72,-87.69 928.7,-87.36 929.67,-86.99"/>
<polygon fill="#63b8ff" stroke="#63b8ff" points="930.82,-90.31 938.53,-83.04 927.97,-83.92 930.82,-90.31"/>
</a>
</g>
</g>
<!-- Node7 -->
<g id="Node000007" class="node">
<title>Node7</title>
<g id="a_Node000007"><a xlink:title=" ">
<polygon fill="#e0e0e0" stroke="#999999" points="797.38,-20 716.12,-20 716.12,0 797.38,0 797.38,-20"/>
<text text-anchor="middle" x="756.75" y="-6.5" font-family="Helvetica,sans-Serif" font-size="10.00">FreeRTOS.hpp</text>
</a>
</g>
</g>
<!-- Node6&#45;&gt;Node7 -->
<g id="edge6_Node000006_Node000007" class="edge">
<title>Node6&#45;&gt;Node7</title>
<g id="a_edge6_Node000006_Node000007"><a xlink:title=" ">
<path fill="none" stroke="#63b8ff" d="M756.75,-61.62C756.75,-53.56 756.75,-41.65 756.75,-31.41"/>
<polygon fill="#63b8ff" stroke="#63b8ff" points="760.25,-31.63 756.75,-21.63 753.25,-31.63 760.25,-31.63"/>
</a>
</g>
</g>
</g>
</svg>
