<?xml version="1.0" encoding="UTF-8" standalone="no"?>
<!DOCTYPE svg PUBLIC "-//W3C//DTD SVG 1.1//EN"
 "http://www.w3.org/Graphics/SVG/1.1/DTD/svg11.dtd">
<!-- Generated by graphviz version 10.0.1 (20240210.2158)
 -->
<!-- Title: Lib::Xbee::Core::DigiApiFrameBuffer::getSize Pages: 1 -->
<svg width="617pt" height="140pt"
 viewBox="0.00 0.00 617.25 140.00" xmlns="http://www.w3.org/2000/svg" xmlns:xlink="http://www.w3.org/1999/xlink">
<g id="graph0" class="graph" transform="scale(1 1) rotate(0) translate(4 136)">
<title>Lib::Xbee::Core::DigiApiFrameBuffer::getSize</title>
<!-- Node1 -->
<g id="Node000001" class="node">
<title>Node1</title>
<g id="a_Node000001"><a xlink:title="Gets the size of the buffer.">
<polygon fill="#999999" stroke="#666666" points="609.25,-82 490.5,-82 490.5,-50 609.25,-50 609.25,-82"/>
<text text-anchor="start" x="498.5" y="-68.5" font-family="Helvetica,sans-Serif" font-size="10.00">Lib::Xbee::Core::DigiApi</text>
<text text-anchor="middle" x="549.88" y="-56.5" font-family="Helvetica,sans-Serif" font-size="10.00">FrameBuffer::getSize</text>
</a>
</g>
</g>
<!-- Node2 -->
<g id="Node000002" class="node">
<title>Node2</title>
<g id="a_Node000002"><a xlink:href="../../d8/d95/a00379.html#aa27f9e2553dca2bf31b5f863c3123e91" target="_top" xlink:title="Constructs a Checksum object and calculates the checksum for the given DigiApiFrameBuffer.">
<polygon fill="white" stroke="#666666" points="454.5,-132 320,-132 320,-100 454.5,-100 454.5,-132"/>
<text text-anchor="start" x="328" y="-118.5" font-family="Helvetica,sans-Serif" font-size="10.00">Lib::Xbee::Core::Checksum</text>
<text text-anchor="middle" x="387.25" y="-106.5" font-family="Helvetica,sans-Serif" font-size="10.00">::Checksum</text>
</a>
</g>
</g>
<!-- Node1&#45;&gt;Node2 -->
<g id="edge1_Node000001_Node000002" class="edge">
<title>Node1&#45;&gt;Node2</title>
<g id="a_edge1_Node000001_Node000002"><a xlink:title=" ">
<path fill="none" stroke="#63b8ff" d="M485.3,-85.79C470.7,-90.33 455.33,-95.12 441.24,-99.51"/>
<polygon fill="#63b8ff" stroke="#63b8ff" points="486.33,-89.14 494.84,-82.82 484.25,-82.45 486.33,-89.14"/>
</a>
</g>
</g>
<!-- Node3 -->
<g id="Node000003" class="node">
<title>Node3</title>
<g id="a_Node000003"><a xlink:href="../../de/d84/a00447.html#a4b619cc34a94dcdca9a1c97e75c83045" target="_top" xlink:title="Validates a Digi API frame.">
<polygon fill="white" stroke="#666666" points="449.25,-82 325.25,-82 325.25,-50 449.25,-50 449.25,-82"/>
<text text-anchor="start" x="333.25" y="-68.5" font-family="Helvetica,sans-Serif" font-size="10.00">Lib::Xbee::Core::Protocol</text>
<text text-anchor="middle" x="387.25" y="-56.5" font-family="Helvetica,sans-Serif" font-size="10.00">::isValid</text>
</a>
</g>
</g>
<!-- Node1&#45;&gt;Node3 -->
<g id="edge2_Node000001_Node000003" class="edge">
<title>Node1&#45;&gt;Node3</title>
<g id="a_edge2_Node000001_Node000003"><a xlink:title=" ">
<path fill="none" stroke="#63b8ff" d="M479.06,-66C469.26,-66 459.25,-66 449.62,-66"/>
<polygon fill="#63b8ff" stroke="#63b8ff" points="478.92,-69.5 488.92,-66 478.92,-62.5 478.92,-69.5"/>
</a>
</g>
</g>
<!-- Node6 -->
<g id="Node000006" class="node">
<title>Node6</title>
<g id="a_Node000006"><a xlink:href="../../da/dee/a00383.html#a69b6c41e48ae2bd6ea04831f60d63d6e" target="_top" xlink:title="Sends the given frame buffer.">
<polygon fill="white" stroke="#666666" points="453.38,-32 321.12,-32 321.12,0 453.38,0 453.38,-32"/>
<text text-anchor="start" x="329.12" y="-18.5" font-family="Helvetica,sans-Serif" font-size="10.00">Lib::Xbee::Core::ComDriver</text>
<text text-anchor="middle" x="387.25" y="-6.5" font-family="Helvetica,sans-Serif" font-size="10.00">::send</text>
</a>
</g>
</g>
<!-- Node1&#45;&gt;Node6 -->
<g id="edge5_Node000001_Node000006" class="edge">
<title>Node1&#45;&gt;Node6</title>
<g id="a_edge5_Node000001_Node000006"><a xlink:title=" ">
<path fill="none" stroke="#63b8ff" d="M485.3,-46.21C470.7,-41.67 455.33,-36.88 441.24,-32.49"/>
<polygon fill="#63b8ff" stroke="#63b8ff" points="484.25,-49.55 494.84,-49.18 486.33,-42.86 484.25,-49.55"/>
</a>
</g>
</g>
<!-- Node4 -->
<g id="Node000004" class="node">
<title>Node4</title>
<g id="a_Node000004"><a xlink:href="../../de/d84/a00447.html#a3d61ecbff974d958bd340d92b598f0c5" target="_top" xlink:title="Parses a Digi API frame into frame data.">
<polygon fill="white" stroke="#666666" points="284,-82 160,-82 160,-50 284,-50 284,-82"/>
<text text-anchor="start" x="168" y="-68.5" font-family="Helvetica,sans-Serif" font-size="10.00">Lib::Xbee::Core::Protocol</text>
<text text-anchor="middle" x="222" y="-56.5" font-family="Helvetica,sans-Serif" font-size="10.00">::parse</text>
</a>
</g>
</g>
<!-- Node3&#45;&gt;Node4 -->
<g id="edge3_Node000003_Node000004" class="edge">
<title>Node3&#45;&gt;Node4</title>
<g id="a_edge3_Node000003_Node000004"><a xlink:title=" ">
<path fill="none" stroke="#63b8ff" d="M313.63,-66C303.84,-66 293.89,-66 284.32,-66"/>
<polygon fill="#63b8ff" stroke="#63b8ff" points="313.48,-69.5 323.48,-66 313.48,-62.5 313.48,-69.5"/>
</a>
</g>
</g>
<!-- Node5 -->
<g id="Node000005" class="node">
<title>Node5</title>
<g id="a_Node000005"><a xlink:href="../../de/d84/a00447.html#ae67022a7d24ff87412c540118507ddef" target="_top" xlink:title="Processes a Digi API frame message.">
<polygon fill="white" stroke="#666666" points="124,-82 0,-82 0,-50 124,-50 124,-82"/>
<text text-anchor="start" x="8" y="-68.5" font-family="Helvetica,sans-Serif" font-size="10.00">Lib::Xbee::Core::Protocol</text>
<text text-anchor="middle" x="62" y="-56.5" font-family="Helvetica,sans-Serif" font-size="10.00">::processMessage</text>
</a>
</g>
</g>
<!-- Node4&#45;&gt;Node5 -->
<g id="edge4_Node000004_Node000005" class="edge">
<title>Node4&#45;&gt;Node5</title>
<g id="a_edge4_Node000004_Node000005"><a xlink:title=" ">
<path fill="none" stroke="#63b8ff" d="M148.6,-66C140.53,-66 132.36,-66 124.45,-66"/>
<polygon fill="#63b8ff" stroke="#63b8ff" points="148.4,-69.5 158.4,-66 148.4,-62.5 148.4,-69.5"/>
</a>
</g>
</g>
<!-- Node7 -->
<g id="Node000007" class="node">
<title>Node7</title>
<g id="a_Node000007"><a xlink:href="../../d0/dc4/a00443.html#a9815b172e850e3d6c009ed9f6f9b2c25" target="_top" xlink:title="Sends the given query.">
<polygon fill="white" stroke="#666666" points="281.75,-32 162.25,-32 162.25,0 281.75,0 281.75,-32"/>
<text text-anchor="start" x="170.25" y="-18.5" font-family="Helvetica,sans-Serif" font-size="10.00">Lib::Xbee::Core::Module</text>
<text text-anchor="middle" x="222" y="-6.5" font-family="Helvetica,sans-Serif" font-size="10.00">::send</text>
</a>
</g>
</g>
<!-- Node6&#45;&gt;Node7 -->
<g id="edge6_Node000006_Node000007" class="edge">
<title>Node6&#45;&gt;Node7</title>
<g id="a_edge6_Node000006_Node000007"><a xlink:title=" ">
<path fill="none" stroke="#63b8ff" d="M309.3,-16C300.17,-16 290.97,-16 282.14,-16"/>
<polygon fill="#63b8ff" stroke="#63b8ff" points="309.28,-19.5 319.28,-16 309.28,-12.5 309.28,-19.5"/>
</a>
</g>
</g>
</g>
</svg>
