<?xml version="1.0" encoding="UTF-8" standalone="no"?>
<!DOCTYPE svg PUBLIC "-//W3C//DTD SVG 1.1//EN"
 "http://www.w3.org/Graphics/SVG/1.1/DTD/svg11.dtd">
<!-- Generated by graphviz version 12.2.1 (20241206.2353)
 -->
<!-- Title: Connection.hpp Pages: 1 -->
<svg width="424pt" height="96pt"
 viewBox="0.00 0.00 423.62 96.00" xmlns="http://www.w3.org/2000/svg" xmlns:xlink="http://www.w3.org/1999/xlink">
<g id="graph0" class="graph" transform="scale(1 1) rotate(0) translate(4 92)">
<title>Connection.hpp</title>
<!-- Node1 -->
<g id="Node000001" class="node">
<title>Node1</title>
<g id="a_Node000001"><a xlink:title="Defines the Connection class and its nested classes for managing and monitoring XBee connections.">
<polygon fill="#999999" stroke="#666666" points="254.75,-88 170.5,-88 170.5,-68 254.75,-68 254.75,-88"/>
<text text-anchor="middle" x="212.62" y="-74.5" font-family="Helvetica,sans-Serif" font-size="10.00">Connection.hpp</text>
</a>
</g>
</g>
<!-- Node2 -->
<g id="Node000002" class="node">
<title>Node2</title>
<g id="a_Node000002"><a xlink:title=" ">
<polygon fill="#e0e0e0" stroke="#999999" points="81.25,-26 0,-26 0,-6 81.25,-6 81.25,-26"/>
<text text-anchor="middle" x="40.62" y="-12.5" font-family="Helvetica,sans-Serif" font-size="10.00">FreeRTOS.hpp</text>
</a>
</g>
</g>
<!-- Node1&#45;&gt;Node2 -->
<g id="edge1_Node000001_Node000002" class="edge">
<title>Node1&#45;&gt;Node2</title>
<g id="a_edge1_Node000001_Node000002"><a xlink:title=" ">
<path fill="none" stroke="#63b8ff" d="M185.75,-67.62C156.8,-57.53 110.54,-41.39 78.04,-30.05"/>
<polygon fill="#63b8ff" stroke="#63b8ff" points="79.62,-26.9 69.02,-26.91 77.31,-33.5 79.62,-26.9"/>
</a>
</g>
</g>
<!-- Node3 -->
<g id="Node000003" class="node">
<title>Node3</title>
<g id="a_Node000003"><a xlink:title=" ">
<polygon fill="#e0e0e0" stroke="#999999" points="197.5,-32 99.75,-32 99.75,0 197.5,0 197.5,-32"/>
<text text-anchor="start" x="107.75" y="-18.5" font-family="Helvetica,sans-Serif" font-size="10.00">Lib/Helper/Convert</text>
<text text-anchor="middle" x="148.62" y="-6.5" font-family="Helvetica,sans-Serif" font-size="10.00">/dBM.hpp</text>
</a>
</g>
</g>
<!-- Node1&#45;&gt;Node3 -->
<g id="edge2_Node000001_Node000003" class="edge">
<title>Node1&#45;&gt;Node3</title>
<g id="a_edge2_Node000001_Node000003"><a xlink:title=" ">
<path fill="none" stroke="#63b8ff" d="M202.62,-67.62C194.77,-60.26 183.49,-49.68 173.26,-40.1"/>
<polygon fill="#63b8ff" stroke="#63b8ff" points="175.82,-37.69 166.13,-33.41 171.03,-42.8 175.82,-37.69"/>
</a>
</g>
</g>
<!-- Node4 -->
<g id="Node000004" class="node">
<title>Node4</title>
<g id="a_Node000004"><a xlink:title=" ">
<polygon fill="#e0e0e0" stroke="#999999" points="339.25,-26 216,-26 216,-6 339.25,-6 339.25,-26"/>
<text text-anchor="middle" x="277.62" y="-12.5" font-family="Helvetica,sans-Serif" font-size="10.00">Lib/Helper/Integrator.hpp</text>
</a>
</g>
</g>
<!-- Node1&#45;&gt;Node4 -->
<g id="edge3_Node000001_Node000004" class="edge">
<title>Node1&#45;&gt;Node4</title>
<g id="a_edge3_Node000001_Node000004"><a xlink:title=" ">
<path fill="none" stroke="#63b8ff" d="M222.78,-67.62C232.57,-58.59 247.6,-44.72 259.45,-33.78"/>
<polygon fill="#63b8ff" stroke="#63b8ff" points="261.67,-36.49 266.64,-27.14 256.92,-31.35 261.67,-36.49"/>
</a>
</g>
</g>
<!-- Node5 -->
<g id="Node000005" class="node">
<title>Node5</title>
<g id="a_Node000005"><a xlink:title=" ">
<polygon fill="#e0e0e0" stroke="#999999" points="415.62,-26 357.62,-26 357.62,-6 415.62,-6 415.62,-26"/>
<text text-anchor="middle" x="386.62" y="-12.5" font-family="Helvetica,sans-Serif" font-size="10.00">functional</text>
</a>
</g>
</g>
<!-- Node1&#45;&gt;Node5 -->
<g id="edge4_Node000001_Node000005" class="edge">
<title>Node1&#45;&gt;Node5</title>
<g id="a_edge4_Node000001_Node000005"><a xlink:title=" ">
<path fill="none" stroke="#63b8ff" d="M242.77,-67.56C270.44,-58.77 312.5,-45.09 348.62,-32 349.98,-31.51 351.35,-31 352.74,-30.49"/>
<polygon fill="#63b8ff" stroke="#63b8ff" points="353.89,-33.79 361.98,-26.95 351.39,-27.26 353.89,-33.79"/>
</a>
</g>
</g>
</g>
</svg>
