<?xml version="1.0" encoding="UTF-8" standalone="no"?>
<!DOCTYPE svg PUBLIC "-//W3C//DTD SVG 1.1//EN"
 "http://www.w3.org/Graphics/SVG/1.1/DTD/svg11.dtd">
<!-- Generated by graphviz version 12.2.1 (20241206.2353)
 -->
<!-- Title: GPIO.hpp Pages: 1 -->
<svg width="444pt" height="152pt"
 viewBox="0.00 0.00 443.62 152.00" xmlns="http://www.w3.org/2000/svg" xmlns:xlink="http://www.w3.org/1999/xlink">
<g id="graph0" class="graph" transform="scale(1 1) rotate(0) translate(4 148)">
<title>GPIO.hpp</title>
<!-- Node1 -->
<g id="Node000001" class="node">
<title>Node1</title>
<g id="a_Node000001"><a xlink:title="This file contains the declaration of the GPIO class and its nested classes for handling GPIO operati...">
<polygon fill="#999999" stroke="#666666" points="326.75,-144 267.25,-144 267.25,-124 326.75,-124 326.75,-144"/>
<text text-anchor="middle" x="297" y="-130.5" font-family="Helvetica,sans-Serif" font-size="10.00">GPIO.hpp</text>
</a>
</g>
</g>
<!-- Node2 -->
<g id="Node000002" class="node">
<title>Node2</title>
<g id="a_Node000002"><a xlink:href="../../dc/dfe/a00125.html" target="_top" xlink:title="Base class for managing devices in the hardware abstraction layer.">
<polygon fill="white" stroke="#666666" points="324.62,-88 159.38,-88 159.38,-56 324.62,-56 324.62,-88"/>
<text text-anchor="start" x="167.38" y="-74.5" font-family="Helvetica,sans-Serif" font-size="10.00">Lib/HAL/Common/DeviceManager</text>
<text text-anchor="middle" x="242" y="-62.5" font-family="Helvetica,sans-Serif" font-size="10.00">Base.hpp</text>
</a>
</g>
</g>
<!-- Node1&#45;&gt;Node2 -->
<g id="edge1_Node000001_Node000002" class="edge">
<title>Node1&#45;&gt;Node2</title>
<g id="a_edge1_Node000001_Node000002"><a xlink:title=" ">
<path fill="none" stroke="#63b8ff" d="M288.41,-123.62C281.74,-116.36 272.21,-105.96 263.52,-96.48"/>
<polygon fill="#63b8ff" stroke="#63b8ff" points="266.24,-94.26 256.9,-89.26 261.08,-98.99 266.24,-94.26"/>
</a>
</g>
</g>
<!-- Node5 -->
<g id="Node000005" class="node">
<title>Node5</title>
<g id="a_Node000005"><a xlink:title=" ">
<polygon fill="#e0e0e0" stroke="#999999" points="58,-20 0,-20 0,0 58,0 58,-20"/>
<text text-anchor="middle" x="29" y="-6.5" font-family="Helvetica,sans-Serif" font-size="10.00">functional</text>
</a>
</g>
</g>
<!-- Node1&#45;&gt;Node5 -->
<g id="edge8_Node000001_Node000005" class="edge">
<title>Node1&#45;&gt;Node5</title>
<g id="a_edge8_Node000001_Node000005"><a xlink:title=" ">
<path fill="none" stroke="#63b8ff" d="M266.85,-126.3C236.51,-118.98 188.78,-105.88 150,-88 112.8,-70.85 73.45,-43.95 50.07,-26.91"/>
<polygon fill="#63b8ff" stroke="#63b8ff" points="52.42,-24.29 42.3,-21.16 48.26,-29.92 52.42,-24.29"/>
</a>
</g>
</g>
<!-- Node6 -->
<g id="Node000006" class="node">
<title>Node6</title>
<g id="a_Node000006"><a xlink:title=" ">
<polygon fill="#e0e0e0" stroke="#999999" points="378.62,-20 327.38,-20 327.38,0 378.62,0 378.62,-20"/>
<text text-anchor="middle" x="353" y="-6.5" font-family="Helvetica,sans-Serif" font-size="10.00">memory</text>
</a>
</g>
</g>
<!-- Node1&#45;&gt;Node6 -->
<g id="edge9_Node000001_Node000006" class="edge">
<title>Node1&#45;&gt;Node6</title>
<g id="a_edge9_Node000001_Node000006"><a xlink:title=" ">
<path fill="none" stroke="#63b8ff" d="M306.94,-123.56C315.35,-115.03 327.11,-101.74 334,-88 342.96,-70.13 347.87,-47.76 350.44,-31.75"/>
<polygon fill="#63b8ff" stroke="#63b8ff" points="353.89,-32.36 351.82,-21.97 346.96,-31.38 353.89,-32.36"/>
</a>
</g>
</g>
<!-- Node8 -->
<g id="Node000008" class="node">
<title>Node8</title>
<g id="a_Node000008"><a xlink:title=" ">
<polygon fill="#e0e0e0" stroke="#999999" points="435.62,-20 396.38,-20 396.38,0 435.62,0 435.62,-20"/>
<text text-anchor="middle" x="416" y="-6.5" font-family="Helvetica,sans-Serif" font-size="10.00">utility</text>
</a>
</g>
</g>
<!-- Node1&#45;&gt;Node8 -->
<g id="edge10_Node000001_Node000008" class="edge">
<title>Node1&#45;&gt;Node8</title>
<g id="a_edge10_Node000001_Node000008"><a xlink:title=" ">
<path fill="none" stroke="#63b8ff" d="M310.37,-123.77C322.38,-115.17 340.2,-101.66 354,-88 372.78,-69.4 391.41,-45.3 403.27,-29.06"/>
<polygon fill="#63b8ff" stroke="#63b8ff" points="405.84,-31.48 408.83,-21.31 400.16,-27.39 405.84,-31.48"/>
</a>
</g>
</g>
<!-- Node3 -->
<g id="Node000003" class="node">
<title>Node3</title>
<g id="a_Node000003"><a xlink:href="../../de/dd7/a00362.html" target="_top" xlink:title="Header file for the Handle class template.">
<polygon fill="white" stroke="#666666" points="141.75,-20 76.25,-20 76.25,0 141.75,0 141.75,-20"/>
<text text-anchor="middle" x="109" y="-6.5" font-family="Helvetica,sans-Serif" font-size="10.00">Handle.hpp</text>
</a>
</g>
</g>
<!-- Node2&#45;&gt;Node3 -->
<g id="edge2_Node000002_Node000003" class="edge">
<title>Node2&#45;&gt;Node3</title>
<g id="a_edge2_Node000002_Node000003"><a xlink:title=" ">
<path fill="none" stroke="#63b8ff" d="M207.75,-55.55C186.87,-46.13 160.4,-34.19 140.12,-25.04"/>
<polygon fill="#63b8ff" stroke="#63b8ff" points="141.79,-21.95 131.23,-21.03 138.91,-28.33 141.79,-21.95"/>
</a>
</g>
</g>
<!-- Node4 -->
<g id="Node000004" class="node">
<title>Node4</title>
<g id="a_Node000004"><a xlink:title=" ">
<polygon fill="#e0e0e0" stroke="#999999" points="208.12,-20 159.88,-20 159.88,0 208.12,0 208.12,-20"/>
<text text-anchor="middle" x="184" y="-6.5" font-family="Helvetica,sans-Serif" font-size="10.00">cassert</text>
</a>
</g>
</g>
<!-- Node2&#45;&gt;Node4 -->
<g id="edge3_Node000002_Node000004" class="edge">
<title>Node2&#45;&gt;Node4</title>
<g id="a_edge3_Node000002_Node000004"><a xlink:title=" ">
<path fill="none" stroke="#63b8ff" d="M227.06,-55.55C219.09,-47.3 209.25,-37.12 200.99,-28.57"/>
<polygon fill="#63b8ff" stroke="#63b8ff" points="203.61,-26.25 194.15,-21.5 198.58,-31.12 203.61,-26.25"/>
</a>
</g>
</g>
<!-- Node2&#45;&gt;Node5 -->
<g id="edge4_Node000002_Node000005" class="edge">
<title>Node2&#45;&gt;Node5</title>
<g id="a_edge4_Node000002_Node000005"><a xlink:title=" ">
<path fill="none" stroke="#63b8ff" d="M187.15,-55.55C150.27,-45.16 102.49,-31.7 69.14,-22.31"/>
<polygon fill="#63b8ff" stroke="#63b8ff" points="70.45,-19.04 59.88,-19.7 68.56,-25.78 70.45,-19.04"/>
</a>
</g>
</g>
<!-- Node2&#45;&gt;Node6 -->
<g id="edge5_Node000002_Node000006" class="edge">
<title>Node2&#45;&gt;Node6</title>
<g id="a_edge5_Node000002_Node000006"><a xlink:title=" ">
<path fill="none" stroke="#63b8ff" d="M270.59,-55.55C287.61,-46.35 309.09,-34.74 325.85,-25.68"/>
<polygon fill="#63b8ff" stroke="#63b8ff" points="327.13,-28.96 334.26,-21.13 323.8,-22.8 327.13,-28.96"/>
</a>
</g>
</g>
<!-- Node7 -->
<g id="Node000007" class="node">
<title>Node7</title>
<g id="a_Node000007"><a xlink:title=" ">
<polygon fill="#e0e0e0" stroke="#999999" points="309.38,-20 226.62,-20 226.62,0 309.38,0 309.38,-20"/>
<text text-anchor="middle" x="268" y="-6.5" font-family="Helvetica,sans-Serif" font-size="10.00">unordered_map</text>
</a>
</g>
</g>
<!-- Node2&#45;&gt;Node7 -->
<g id="edge6_Node000002_Node000007" class="edge">
<title>Node2&#45;&gt;Node7</title>
<g id="a_edge6_Node000002_Node000007"><a xlink:title=" ">
<path fill="none" stroke="#63b8ff" d="M248.7,-55.55C251.97,-48 255.94,-38.82 259.43,-30.77"/>
<polygon fill="#63b8ff" stroke="#63b8ff" points="262.56,-32.36 263.32,-21.8 256.13,-29.58 262.56,-32.36"/>
</a>
</g>
</g>
<!-- Node2&#45;&gt;Node8 -->
<g id="edge7_Node000002_Node000008" class="edge">
<title>Node2&#45;&gt;Node8</title>
<g id="a_edge7_Node000002_Node000008"><a xlink:title=" ">
<path fill="none" stroke="#63b8ff" d="M286.81,-55.55C317.65,-44.91 357.82,-31.06 385.12,-21.65"/>
<polygon fill="#63b8ff" stroke="#63b8ff" points="386.22,-24.97 394.54,-18.4 383.94,-18.35 386.22,-24.97"/>
</a>
</g>
</g>
</g>
</svg>
