<?xml version="1.0" encoding="UTF-8" standalone="no"?>
<!DOCTYPE svg PUBLIC "-//W3C//DTD SVG 1.1//EN"
 "http://www.w3.org/Graphics/SVG/1.1/DTD/svg11.dtd">
<!-- Generated by graphviz version 10.0.1 (20240210.2158)
 -->
<!-- Title: Lib::Xbee::Core::Protocol::isValid Pages: 1 -->
<svg width="452pt" height="40pt"
 viewBox="0.00 0.00 452.00 40.00" xmlns="http://www.w3.org/2000/svg" xmlns:xlink="http://www.w3.org/1999/xlink">
<g id="graph0" class="graph" transform="scale(1 1) rotate(0) translate(4 36)">
<title>Lib::Xbee::Core::Protocol::isValid</title>
<!-- Node1 -->
<g id="Node000001" class="node">
<title>Node1</title>
<g id="a_Node000001"><a xlink:title="Validates a Digi API frame.">
<polygon fill="#999999" stroke="#666666" points="444,-32 320,-32 320,0 444,0 444,-32"/>
<text text-anchor="start" x="328" y="-18.5" font-family="Helvetica,sans-Serif" font-size="10.00">Lib::Xbee::Core::Protocol</text>
<text text-anchor="middle" x="382" y="-6.5" font-family="Helvetica,sans-Serif" font-size="10.00">::isValid</text>
</a>
</g>
</g>
<!-- Node2 -->
<g id="Node000002" class="node">
<title>Node2</title>
<g id="a_Node000002"><a xlink:href="../../d3/dea/a00444.html#a3d61ecbff974d958bd340d92b598f0c5" target="_top" xlink:title="Parses a Digi API frame into frame data.">
<polygon fill="white" stroke="#666666" points="284,-32 160,-32 160,0 284,0 284,-32"/>
<text text-anchor="start" x="168" y="-18.5" font-family="Helvetica,sans-Serif" font-size="10.00">Lib::Xbee::Core::Protocol</text>
<text text-anchor="middle" x="222" y="-6.5" font-family="Helvetica,sans-Serif" font-size="10.00">::parse</text>
</a>
</g>
</g>
<!-- Node1&#45;&gt;Node2 -->
<g id="edge1_Node000001_Node000002" class="edge">
<title>Node1&#45;&gt;Node2</title>
<g id="a_edge1_Node000001_Node000002"><a xlink:title=" ">
<path fill="none" stroke="#63b8ff" d="M308.6,-16C300.53,-16 292.36,-16 284.45,-16"/>
<polygon fill="#63b8ff" stroke="#63b8ff" points="308.4,-19.5 318.4,-16 308.4,-12.5 308.4,-19.5"/>
</a>
</g>
</g>
<!-- Node3 -->
<g id="Node000003" class="node">
<title>Node3</title>
<g id="a_Node000003"><a xlink:href="../../d3/dea/a00444.html#ae67022a7d24ff87412c540118507ddef" target="_top" xlink:title="Processes a Digi API frame message.">
<polygon fill="white" stroke="#666666" points="124,-32 0,-32 0,0 124,0 124,-32"/>
<text text-anchor="start" x="8" y="-18.5" font-family="Helvetica,sans-Serif" font-size="10.00">Lib::Xbee::Core::Protocol</text>
<text text-anchor="middle" x="62" y="-6.5" font-family="Helvetica,sans-Serif" font-size="10.00">::processMessage</text>
</a>
</g>
</g>
<!-- Node2&#45;&gt;Node3 -->
<g id="edge2_Node000002_Node000003" class="edge">
<title>Node2&#45;&gt;Node3</title>
<g id="a_edge2_Node000002_Node000003"><a xlink:title=" ">
<path fill="none" stroke="#63b8ff" d="M148.6,-16C140.53,-16 132.36,-16 124.45,-16"/>
<polygon fill="#63b8ff" stroke="#63b8ff" points="148.4,-19.5 158.4,-16 148.4,-12.5 148.4,-19.5"/>
</a>
</g>
</g>
</g>
</svg>
