<?xml version="1.0" encoding="UTF-8" standalone="no"?>
<!DOCTYPE svg PUBLIC "-//W3C//DTD SVG 1.1//EN"
 "http://www.w3.org/Graphics/SVG/1.1/DTD/svg11.dtd">
<!-- Generated by graphviz version 12.2.1 (20241206.2353)
 -->
<!-- Title: UI::Screen::ProduceDateVeiw Pages: 1 -->
<svg width="147pt" height="324pt"
 viewBox="0.00 0.00 147.25 324.00" xmlns="http://www.w3.org/2000/svg" xmlns:xlink="http://www.w3.org/1999/xlink">
<g id="graph0" class="graph" transform="scale(1 1) rotate(0) translate(4 320)">
<title>UI::Screen::ProduceDateVeiw</title>
<!-- Node1 -->
<g id="Node000001" class="node">
<title>Node1</title>
<g id="a_Node000001"><a xlink:title="A class for displaying the produce date view screen.">
<polygon fill="#999999" stroke="none" points="139.25,-52 0,-52 0,0 139.25,0 139.25,-52"/>
<text text-anchor="start" x="4" y="-38.5" font-family="Helvetica,sans-Serif" font-size="10.00">UI::Screen::ProduceDateVeiw</text>
<text text-anchor="start" x="68.12" y="-22.5" font-family="Helvetica,sans-Serif" font-size="10.00"> </text>
<text text-anchor="start" x="20.06" y="-6.5" font-family="Helvetica,sans-Serif" font-size="10.00">+</text>
<text text-anchor="start" x="46.12" y="-6.5" font-family="Helvetica,sans-Serif" font-size="10.00">getInstance()</text>
<polygon fill="#666666" stroke="#666666" points="0,-34 0,-34 139.25,-34 139.25,-34 0,-34"/>
<polygon fill="#666666" stroke="#666666" points="0,-18 0,-18 139.25,-18 139.25,-18 0,-18"/>
<polygon fill="none" stroke="#666666" points="0,0 0,-52 139.25,-52 139.25,0 0,0"/>
</a>
</g>
</g>
<!-- Node2 -->
<g id="Node000002" class="node">
<title>Node2</title>
<g id="a_Node000002"><a xlink:href="../../d1/d98/a00407.html" target="_top" xlink:title="A base class for screen components in the UI.">
<polygon fill="white" stroke="none" points="122.88,-316 16.38,-316 16.38,-88 122.88,-88 122.88,-316"/>
<text text-anchor="start" x="34.75" y="-302.5" font-family="Helvetica,sans-Serif" font-size="10.00">UI::ScreenBase</text>
<text text-anchor="start" x="20.38" y="-286.5" font-family="Helvetica,sans-Serif" font-size="10.00">+</text>
<text text-anchor="start" x="30.38" y="-286.5" font-family="Helvetica,sans-Serif" font-size="10.00">onClickLeftButton</text>
<text text-anchor="start" x="20.38" y="-270.5" font-family="Helvetica,sans-Serif" font-size="10.00">+</text>
<text text-anchor="start" x="30.38" y="-270.5" font-family="Helvetica,sans-Serif" font-size="10.00">onClickRightButton</text>
<text text-anchor="start" x="20.38" y="-254.5" font-family="Helvetica,sans-Serif" font-size="10.00">+</text>
<text text-anchor="start" x="30.38" y="-254.5" font-family="Helvetica,sans-Serif" font-size="10.00">onClickEnterButton</text>
<text text-anchor="start" x="20.38" y="-238.5" font-family="Helvetica,sans-Serif" font-size="10.00">+</text>
<text text-anchor="start" x="30.38" y="-238.5" font-family="Helvetica,sans-Serif" font-size="10.00">onClickClearButton</text>
<text text-anchor="start" x="20.38" y="-222.5" font-family="Helvetica,sans-Serif" font-size="10.00">+</text>
<text text-anchor="start" x="30.38" y="-222.5" font-family="Helvetica,sans-Serif" font-size="10.00">onHoldLeftButton</text>
<text text-anchor="start" x="20.38" y="-206.5" font-family="Helvetica,sans-Serif" font-size="10.00">+</text>
<text text-anchor="start" x="30.38" y="-206.5" font-family="Helvetica,sans-Serif" font-size="10.00">onHoldRightButton</text>
<text text-anchor="start" x="20.38" y="-190.5" font-family="Helvetica,sans-Serif" font-size="10.00">+</text>
<text text-anchor="start" x="30.38" y="-190.5" font-family="Helvetica,sans-Serif" font-size="10.00">onHoldEnterButton</text>
<text text-anchor="start" x="20.38" y="-174.5" font-family="Helvetica,sans-Serif" font-size="10.00">+</text>
<text text-anchor="start" x="30.38" y="-174.5" font-family="Helvetica,sans-Serif" font-size="10.00">onHoldClearButton</text>
<text text-anchor="start" x="20.75" y="-158.5" font-family="Helvetica,sans-Serif" font-size="10.00">#</text>
<text text-anchor="start" x="30.38" y="-158.5" font-family="Helvetica,sans-Serif" font-size="10.00">~ScreenBase()</text>
<text text-anchor="start" x="20.75" y="-142.5" font-family="Helvetica,sans-Serif" font-size="10.00">#</text>
<text text-anchor="start" x="30.38" y="-142.5" font-family="Helvetica,sans-Serif" font-size="10.00">active()</text>
<text text-anchor="start" x="20.75" y="-126.5" font-family="Helvetica,sans-Serif" font-size="10.00">#</text>
<text text-anchor="start" x="30.38" y="-126.5" font-family="Helvetica,sans-Serif" font-size="10.00">deactive()</text>
<text text-anchor="start" x="20.75" y="-110.5" font-family="Helvetica,sans-Serif" font-size="10.00">#</text>
<text text-anchor="start" x="30.38" y="-110.5" font-family="Helvetica,sans-Serif" font-size="10.00">handleTickEvent()</text>
<text text-anchor="start" x="20.75" y="-94.5" font-family="Helvetica,sans-Serif" font-size="10.00">#</text>
<text text-anchor="start" x="30.38" y="-94.5" font-family="Helvetica,sans-Serif" font-size="10.00">handleButtonEvent()</text>
<polygon fill="#666666" stroke="#666666" points="16.38,-298 16.38,-298 122.88,-298 122.88,-298 16.38,-298"/>
<polygon fill="#666666" stroke="#666666" points="16.38,-170 16.38,-170 28.38,-170 28.38,-170 16.38,-170"/>
<polygon fill="#666666" stroke="#666666" points="28.38,-170 28.38,-170 122.88,-170 122.88,-170 28.38,-170"/>
<polygon fill="none" stroke="#666666" points="16.38,-88 16.38,-316 122.88,-316 122.88,-88 16.38,-88"/>
</a>
</g>
</g>
<!-- Node2&#45;&gt;Node1 -->
<g id="edge1_Node000001_Node000002" class="edge">
<title>Node2&#45;&gt;Node1</title>
<g id="a_edge1_Node000001_Node000002"><a xlink:title=" ">
<path fill="none" stroke="#63b8ff" d="M69.62,-77.13C69.62,-67.82 69.62,-59.2 69.62,-51.83"/>
<polygon fill="none" stroke="#63b8ff" points="66.13,-76.83 69.63,-86.83 73.13,-76.83 66.13,-76.83"/>
</a>
</g>
</g>
</g>
</svg>
