<?xml version="1.0" encoding="UTF-8" standalone="no"?>
<!DOCTYPE svg PUBLIC "-//W3C//DTD SVG 1.1//EN"
 "http://www.w3.org/Graphics/SVG/1.1/DTD/svg11.dtd">
<!-- Generated by graphviz version 13.1.0 (20250701.0955)
 -->
<!-- Title: Lib::HAL::SPI::Master::Port&lt; IT &gt; Pages: 1 -->
<svg width="315pt" height="1020pt"
 viewBox="0.00 0.00 315.00 1020.00" xmlns="http://www.w3.org/2000/svg" xmlns:xlink="http://www.w3.org/1999/xlink">
<g id="graph0" class="graph" transform="scale(1 1) rotate(0) translate(4 1016)">
<title>Lib::HAL::SPI::Master::Port&lt; IT &gt;</title>
<!-- Node1 -->
<g id="Node000001" class="node">
<title>Node1</title>
<g id="a_Node000001"><a xlink:title="SPI master port in interrupt (IT) mode.">
<polygon fill="#999999" stroke="none" points="250.75,-261 130.75,-261 130.75,0 250.75,0 250.75,-261"/>
<text xml:space="preserve" text-anchor="start" x="147.62" y="-248.45" font-family="Arial" font-size="9.00">Lib::HAL::SPI::Master</text>
<text xml:space="preserve" text-anchor="start" x="169" y="-237.95" font-family="Arial" font-size="9.00">::Port&lt; IT &gt;</text>
<text xml:space="preserve" text-anchor="start" x="189.62" y="-223.45" font-family="Arial" font-size="9.00"> </text>
<text xml:space="preserve" text-anchor="start" x="134.75" y="-208.95" font-family="Arial" font-size="9.00">+</text>
<text xml:space="preserve" text-anchor="start" x="144" y="-208.95" font-family="Arial" font-size="9.00">Port()</text>
<text xml:space="preserve" text-anchor="start" x="134.75" y="-194.45" font-family="Arial" font-size="9.00">+</text>
<text xml:space="preserve" text-anchor="start" x="144" y="-194.45" font-family="Arial" font-size="9.00">~Port()</text>
<text xml:space="preserve" text-anchor="start" x="134.75" y="-179.95" font-family="Arial" font-size="9.00">+</text>
<text xml:space="preserve" text-anchor="start" x="144" y="-179.95" font-family="Arial" font-size="9.00">open()</text>
<text xml:space="preserve" text-anchor="start" x="134.75" y="-165.45" font-family="Arial" font-size="9.00">+</text>
<text xml:space="preserve" text-anchor="start" x="144" y="-165.45" font-family="Arial" font-size="9.00">close()</text>
<text xml:space="preserve" text-anchor="start" x="134.75" y="-150.95" font-family="Arial" font-size="9.00">+</text>
<text xml:space="preserve" text-anchor="start" x="144" y="-150.95" font-family="Arial" font-size="9.00">init()</text>
<text xml:space="preserve" text-anchor="start" x="134.75" y="-136.45" font-family="Arial" font-size="9.00">+</text>
<text xml:space="preserve" text-anchor="start" x="144" y="-136.45" font-family="Arial" font-size="9.00">deinit()</text>
<text xml:space="preserve" text-anchor="start" x="134.75" y="-121.95" font-family="Arial" font-size="9.00">+</text>
<text xml:space="preserve" text-anchor="start" x="144" y="-121.95" font-family="Arial" font-size="9.00">receive()</text>
<text xml:space="preserve" text-anchor="start" x="134.75" y="-107.45" font-family="Arial" font-size="9.00">+</text>
<text xml:space="preserve" text-anchor="start" x="144" y="-107.45" font-family="Arial" font-size="9.00">send()</text>
<text xml:space="preserve" text-anchor="start" x="134.75" y="-92.95" font-family="Arial" font-size="9.00">+</text>
<text xml:space="preserve" text-anchor="start" x="144" y="-92.95" font-family="Arial" font-size="9.00">abort()</text>
<text xml:space="preserve" text-anchor="start" x="134.75" y="-78.45" font-family="Arial" font-size="9.00">+</text>
<text xml:space="preserve" text-anchor="start" x="144" y="-78.45" font-family="Arial" font-size="9.00">sendReceive()</text>
<text xml:space="preserve" text-anchor="start" x="134.75" y="-63.95" font-family="Arial" font-size="9.00">+</text>
<text xml:space="preserve" text-anchor="start" x="144" y="-63.95" font-family="Arial" font-size="9.00">getHandle()</text>
<text xml:space="preserve" text-anchor="start" x="134.75" y="-49.45" font-family="Arial" font-size="9.00">+</text>
<text xml:space="preserve" text-anchor="start" x="144" y="-49.45" font-family="Arial" font-size="9.00">waitForRxCompleted()</text>
<text xml:space="preserve" text-anchor="start" x="134.75" y="-34.95" font-family="Arial" font-size="9.00">+</text>
<text xml:space="preserve" text-anchor="start" x="144" y="-34.95" font-family="Arial" font-size="9.00">waitForTxCompleted()</text>
<text xml:space="preserve" text-anchor="start" x="134.75" y="-20.45" font-family="Arial" font-size="9.00">+</text>
<text xml:space="preserve" text-anchor="start" x="144" y="-20.45" font-family="Arial" font-size="9.00">waitForTxRxCompleted()</text>
<text xml:space="preserve" text-anchor="start" x="134.75" y="-5.95" font-family="Arial" font-size="9.00">+</text>
<text xml:space="preserve" text-anchor="start" x="144" y="-5.95" font-family="Arial" font-size="9.00">waitForAbortCompleted()</text>
<polygon fill="#666666" stroke="#666666" points="130.75,-234 130.75,-234 250.75,-234 250.75,-234 130.75,-234"/>
<polygon fill="#666666" stroke="#666666" points="130.75,-219.5 130.75,-219.5 250.75,-219.5 250.75,-219.5 130.75,-219.5"/>
<polygon fill="none" stroke="#666666" points="130.75,0 130.75,-261 250.75,-261 250.75,0 130.75,0"/>
</a>
</g>
</g>
<!-- Node2 -->
<g id="Node000002" class="node">
<title>Node2</title>
<g id="a_Node000002"><a xlink:href="../../dd/d3d/class_lib_1_1_h_a_l_1_1_s_p_i_1_1_master_1_1_transperent_base.html" target="_top" xlink:title="Abstract SPI master base class with FreeRTOS event notification.">
<polygon fill="white" stroke="none" points="187.25,-647 88.25,-647 88.25,-357 187.25,-357 187.25,-647"/>
<text xml:space="preserve" text-anchor="start" x="94.62" y="-634.45" font-family="Arial" font-size="9.00">Lib::HAL::SPI::Master</text>
<text xml:space="preserve" text-anchor="start" x="100.25" y="-623.95" font-family="Arial" font-size="9.00">::TransperentBase</text>
<text xml:space="preserve" text-anchor="start" x="136.62" y="-609.45" font-family="Arial" font-size="9.00"> </text>
<text xml:space="preserve" text-anchor="start" x="92.25" y="-594.95" font-family="Arial" font-size="9.00">+</text>
<text xml:space="preserve" text-anchor="start" x="101.5" y="-594.95" font-family="Arial" font-size="9.00">~TransperentBase()</text>
<text xml:space="preserve" text-anchor="start" x="92.25" y="-580.45" font-family="Arial" font-size="9.00">+</text>
<text xml:space="preserve" text-anchor="start" x="101.5" y="-580.45" font-family="Arial" font-size="9.00">getHandle()</text>
<text xml:space="preserve" text-anchor="start" x="92.25" y="-565.95" font-family="Arial" font-size="9.00">+</text>
<text xml:space="preserve" text-anchor="start" x="101.5" y="-565.95" font-family="Arial" font-size="9.00">open()</text>
<text xml:space="preserve" text-anchor="start" x="92.25" y="-551.45" font-family="Arial" font-size="9.00">+</text>
<text xml:space="preserve" text-anchor="start" x="101.5" y="-551.45" font-family="Arial" font-size="9.00">close()</text>
<text xml:space="preserve" text-anchor="start" x="92.25" y="-536.95" font-family="Arial" font-size="9.00">+</text>
<text xml:space="preserve" text-anchor="start" x="101.5" y="-536.95" font-family="Arial" font-size="9.00">init()</text>
<text xml:space="preserve" text-anchor="start" x="92.25" y="-522.45" font-family="Arial" font-size="9.00">+</text>
<text xml:space="preserve" text-anchor="start" x="101.5" y="-522.45" font-family="Arial" font-size="9.00">deinit()</text>
<text xml:space="preserve" text-anchor="start" x="92.25" y="-507.95" font-family="Arial" font-size="9.00">+</text>
<text xml:space="preserve" text-anchor="start" x="101.5" y="-507.95" font-family="Arial" font-size="9.00">receive()</text>
<text xml:space="preserve" text-anchor="start" x="92.25" y="-493.45" font-family="Arial" font-size="9.00">+</text>
<text xml:space="preserve" text-anchor="start" x="101.5" y="-493.45" font-family="Arial" font-size="9.00">send()</text>
<text xml:space="preserve" text-anchor="start" x="92.25" y="-478.95" font-family="Arial" font-size="9.00">+</text>
<text xml:space="preserve" text-anchor="start" x="101.5" y="-478.95" font-family="Arial" font-size="9.00">sendReceive()</text>
<text xml:space="preserve" text-anchor="start" x="92.25" y="-464.45" font-family="Arial" font-size="9.00">+</text>
<text xml:space="preserve" text-anchor="start" x="101.5" y="-464.45" font-family="Arial" font-size="9.00">abort()</text>
<text xml:space="preserve" text-anchor="start" x="101.5" y="-449.95" font-family="Arial" font-size="9.00">and 12 more...</text>
<text xml:space="preserve" text-anchor="start" x="92.25" y="-435.45" font-family="Arial" font-size="9.00">#</text>
<text xml:space="preserve" text-anchor="start" x="101.5" y="-435.45" font-family="Arial" font-size="9.00">TransperentBase()</text>
<text xml:space="preserve" text-anchor="start" x="92.25" y="-420.95" font-family="Arial" font-size="9.00">#</text>
<text xml:space="preserve" text-anchor="start" x="101.5" y="-420.95" font-family="Arial" font-size="9.00">receiveFunc()</text>
<text xml:space="preserve" text-anchor="start" x="92.25" y="-406.45" font-family="Arial" font-size="9.00">#</text>
<text xml:space="preserve" text-anchor="start" x="101.5" y="-406.45" font-family="Arial" font-size="9.00">sendFunc()</text>
<text xml:space="preserve" text-anchor="start" x="92.25" y="-391.95" font-family="Arial" font-size="9.00">#</text>
<text xml:space="preserve" text-anchor="start" x="101.5" y="-391.95" font-family="Arial" font-size="9.00">sendReceiveFunc()</text>
<text xml:space="preserve" text-anchor="start" x="92.25" y="-377.45" font-family="Arial" font-size="9.00">#</text>
<text xml:space="preserve" text-anchor="start" x="101.5" y="-377.45" font-family="Arial" font-size="9.00">abortFunc()</text>
<text xml:space="preserve" text-anchor="start" x="92.25" y="-362.95" font-family="Arial" font-size="9.00">#</text>
<text xml:space="preserve" text-anchor="start" x="101.5" y="-362.95" font-family="Arial" font-size="9.00">emitCallback()</text>
<polygon fill="#666666" stroke="#666666" points="88.25,-620 88.25,-620 187.25,-620 187.25,-620 88.25,-620"/>
<polygon fill="#666666" stroke="#666666" points="88.25,-605.5 88.25,-605.5 187.25,-605.5 187.25,-605.5 88.25,-605.5"/>
<polygon fill="none" stroke="#666666" points="88.25,-357 88.25,-647 187.25,-647 187.25,-357 88.25,-357"/>
</a>
</g>
</g>
<!-- Node2&#45;&gt;Node1 -->
<g id="edge1_Node000001_Node000002" class="edge">
<title>Node2&#45;&gt;Node1</title>
<g id="a_edge1_Node000001_Node000002"><a xlink:title=" ">
<path fill="none" stroke="#63b8ff" d="M160,-345.87C164.06,-317.57 168.26,-288.32 172.19,-260.87"/>
<polygon fill="none" stroke="#63b8ff" points="156.56,-345.19 158.61,-355.59 163.49,-346.18 156.56,-345.19"/>
</a>
</g>
</g>
<!-- Node3 -->
<g id="Node000003" class="node">
<title>Node3</title>
<g id="a_Node000003"><a xlink:href="../../d5/d1f/class_lib_1_1_h_a_l_1_1_s_p_i_1_1_master_1_1_base.html" target="_top" xlink:title="Abstract SPI master base class.">
<polygon fill="white" stroke="none" points="184.88,-887 90.62,-887 90.62,-684 184.88,-684 184.88,-887"/>
<text xml:space="preserve" text-anchor="start" x="94.62" y="-874.45" font-family="Arial" font-size="9.00">Lib::HAL::SPI::Master</text>
<text xml:space="preserve" text-anchor="start" x="125" y="-863.95" font-family="Arial" font-size="9.00">::Base</text>
<text xml:space="preserve" text-anchor="start" x="136.62" y="-849.45" font-family="Arial" font-size="9.00"> </text>
<text xml:space="preserve" text-anchor="start" x="98.88" y="-834.95" font-family="Arial" font-size="9.00">+</text>
<text xml:space="preserve" text-anchor="start" x="112.38" y="-834.95" font-family="Arial" font-size="9.00">Base()</text>
<text xml:space="preserve" text-anchor="start" x="98.88" y="-820.45" font-family="Arial" font-size="9.00">+</text>
<text xml:space="preserve" text-anchor="start" x="112.38" y="-820.45" font-family="Arial" font-size="9.00">~Base()</text>
<text xml:space="preserve" text-anchor="start" x="98.88" y="-805.95" font-family="Arial" font-size="9.00">+</text>
<text xml:space="preserve" text-anchor="start" x="112.38" y="-805.95" font-family="Arial" font-size="9.00">open()</text>
<text xml:space="preserve" text-anchor="start" x="98.88" y="-791.45" font-family="Arial" font-size="9.00">+</text>
<text xml:space="preserve" text-anchor="start" x="112.38" y="-791.45" font-family="Arial" font-size="9.00">close()</text>
<text xml:space="preserve" text-anchor="start" x="98.88" y="-776.95" font-family="Arial" font-size="9.00">+</text>
<text xml:space="preserve" text-anchor="start" x="112.38" y="-776.95" font-family="Arial" font-size="9.00">init()</text>
<text xml:space="preserve" text-anchor="start" x="98.88" y="-762.45" font-family="Arial" font-size="9.00">+</text>
<text xml:space="preserve" text-anchor="start" x="112.38" y="-762.45" font-family="Arial" font-size="9.00">deinit()</text>
<text xml:space="preserve" text-anchor="start" x="98.88" y="-747.95" font-family="Arial" font-size="9.00">+</text>
<text xml:space="preserve" text-anchor="start" x="112.38" y="-747.95" font-family="Arial" font-size="9.00">receive()</text>
<text xml:space="preserve" text-anchor="start" x="98.88" y="-733.45" font-family="Arial" font-size="9.00">+</text>
<text xml:space="preserve" text-anchor="start" x="112.38" y="-733.45" font-family="Arial" font-size="9.00">send()</text>
<text xml:space="preserve" text-anchor="start" x="98.88" y="-718.95" font-family="Arial" font-size="9.00">+</text>
<text xml:space="preserve" text-anchor="start" x="112.38" y="-718.95" font-family="Arial" font-size="9.00">sendReceive()</text>
<text xml:space="preserve" text-anchor="start" x="98.88" y="-704.45" font-family="Arial" font-size="9.00">+</text>
<text xml:space="preserve" text-anchor="start" x="112.38" y="-704.45" font-family="Arial" font-size="9.00">abort()</text>
<text xml:space="preserve" text-anchor="start" x="98.88" y="-689.95" font-family="Arial" font-size="9.00">+</text>
<text xml:space="preserve" text-anchor="start" x="112.38" y="-689.95" font-family="Arial" font-size="9.00">getHandle()</text>
<polygon fill="#666666" stroke="#666666" points="90.62,-860 90.62,-860 184.88,-860 184.88,-860 90.62,-860"/>
<polygon fill="#666666" stroke="#666666" points="90.62,-845.5 90.62,-845.5 184.88,-845.5 184.88,-845.5 90.62,-845.5"/>
<polygon fill="none" stroke="#666666" points="90.62,-684 90.62,-887 184.88,-887 184.88,-684 90.62,-684"/>
</a>
</g>
</g>
<!-- Node3&#45;&gt;Node2 -->
<g id="edge2_Node000002_Node000003" class="edge">
<title>Node3&#45;&gt;Node2</title>
<g id="a_edge2_Node000002_Node000003"><a xlink:title=" ">
<path fill="none" stroke="darkgreen" d="M137.75,-672.84C137.75,-664.23 137.75,-655.46 137.75,-646.68"/>
<polygon fill="none" stroke="darkgreen" points="134.25,-672.55 137.75,-682.55 141.25,-672.55 134.25,-672.55"/>
</a>
</g>
</g>
<!-- Node4 -->
<g id="Node000004" class="node">
<title>Node4</title>
<g id="a_Node000004"><a xlink:href="../../de/d0a/class_lib_1_1_h_a_l_1_1_handle.html" target="_top" xlink:title=" ">
<polygon fill="white" stroke="none" points="99.5,-1012 0,-1012 0,-939.5 99.5,-939.5 99.5,-1012"/>
<text xml:space="preserve" text-anchor="start" x="4" y="-999.45" font-family="Arial" font-size="9.00">Lib::HAL::Handle&lt; SPI</text>
<text xml:space="preserve" text-anchor="start" x="11.12" y="-988.95" font-family="Arial" font-size="9.00">_HandleTypeDef &gt;</text>
<text xml:space="preserve" text-anchor="start" x="48.62" y="-974.45" font-family="Arial" font-size="9.00"> </text>
<text xml:space="preserve" text-anchor="start" x="12.38" y="-959.95" font-family="Arial" font-size="9.00">+</text>
<text xml:space="preserve" text-anchor="start" x="30" y="-959.95" font-family="Arial" font-size="9.00">~Handle()</text>
<text xml:space="preserve" text-anchor="start" x="12.38" y="-945.45" font-family="Arial" font-size="9.00">+</text>
<text xml:space="preserve" text-anchor="start" x="30" y="-945.45" font-family="Arial" font-size="9.00">getHandle()</text>
<polygon fill="#666666" stroke="#666666" points="0,-985 0,-985 99.5,-985 99.5,-985 0,-985"/>
<polygon fill="#666666" stroke="#666666" points="0,-970.5 0,-970.5 99.5,-970.5 99.5,-970.5 0,-970.5"/>
<polygon fill="none" stroke="#666666" points="0,-939.5 0,-1012 99.5,-1012 99.5,-939.5 0,-939.5"/>
</a>
</g>
</g>
<!-- Node4&#45;&gt;Node3 -->
<g id="edge3_Node000003_Node000004" class="edge">
<title>Node4&#45;&gt;Node3</title>
<g id="a_edge3_Node000003_Node000004"><a xlink:title=" ">
<path fill="none" stroke="darkgreen" d="M70.8,-929.73C76.89,-916.69 83.81,-901.9 90.82,-886.9"/>
<polygon fill="none" stroke="darkgreen" points="67.8,-927.87 66.74,-938.41 74.14,-930.83 67.8,-927.87"/>
</a>
</g>
</g>
<!-- Node5 -->
<g id="Node000005" class="node">
<title>Node5</title>
<g id="a_Node000005"><a xlink:title=" ">
<polygon fill="white" stroke="none" points="158.25,-999.5 117.25,-999.5 117.25,-952 158.25,-952 158.25,-999.5"/>
<text xml:space="preserve" text-anchor="start" x="121.25" y="-986.95" font-family="Arial" font-size="9.00">uint32_t</text>
<text xml:space="preserve" text-anchor="start" x="136.62" y="-972.45" font-family="Arial" font-size="9.00"> </text>
<text xml:space="preserve" text-anchor="start" x="136.62" y="-957.95" font-family="Arial" font-size="9.00"> </text>
<polygon fill="#bfbfbf" stroke="#bfbfbf" points="117.25,-983 117.25,-983 158.25,-983 158.25,-983 117.25,-983"/>
<polygon fill="#bfbfbf" stroke="#bfbfbf" points="117.25,-968.5 117.25,-968.5 158.25,-968.5 158.25,-968.5 117.25,-968.5"/>
<polygon fill="none" stroke="#bfbfbf" points="117.25,-952 117.25,-999.5 158.25,-999.5 158.25,-952 117.25,-952"/>
</a>
</g>
</g>
<!-- Node5&#45;&gt;Node3 -->
<g id="edge4_Node000003_Node000005" class="edge">
<title>Node5&#45;&gt;Node3</title>
<g id="a_edge4_Node000003_Node000005"><a xlink:title=" ">
<path fill="none" stroke="#63b8ff" d="M137.75,-952.04C137.75,-938.26 137.75,-919.52 137.75,-899.6"/>
<polygon fill="none" stroke="#63b8ff" points="137.75,-899.63 133.75,-893.63 137.75,-887.63 141.75,-893.63 137.75,-899.63"/>
</a>
</g>
<text xml:space="preserve" text-anchor="start" x="140.75" y="-909.95" font-family="Arial" font-size="9.00" fill="grey">+DEFAULT_TIMEOUT</text>
</g>
<!-- Node6 -->
<g id="Node000006" class="node">
<title>Node6</title>
<g id="a_Node000006"><a xlink:title=" ">
<polygon fill="white" stroke="none" points="306.75,-999.5 208.75,-999.5 208.75,-952 306.75,-952 306.75,-999.5"/>
<text xml:space="preserve" text-anchor="start" x="212.75" y="-986.95" font-family="Arial" font-size="9.00">SPI_HandleTypeDef *</text>
<text xml:space="preserve" text-anchor="start" x="256.62" y="-972.45" font-family="Arial" font-size="9.00"> </text>
<text xml:space="preserve" text-anchor="start" x="256.62" y="-957.95" font-family="Arial" font-size="9.00"> </text>
<polygon fill="#bfbfbf" stroke="#bfbfbf" points="208.75,-983 208.75,-983 306.75,-983 306.75,-983 208.75,-983"/>
<polygon fill="#bfbfbf" stroke="#bfbfbf" points="208.75,-968.5 208.75,-968.5 306.75,-968.5 306.75,-968.5 208.75,-968.5"/>
<polygon fill="none" stroke="#bfbfbf" points="208.75,-952 208.75,-999.5 306.75,-999.5 306.75,-952 208.75,-952"/>
</a>
</g>
</g>
<!-- Node6&#45;&gt;Node3 -->
<g id="edge5_Node000003_Node000006" class="edge">
<title>Node6&#45;&gt;Node3</title>
<g id="a_edge5_Node000003_Node000006"><a xlink:title=" ">
<path fill="none" stroke="#63b8ff" d="M252.98,-952.19C249.44,-938.08 243.82,-919.83 235.75,-905 224.23,-883.83 208.65,-862.85 193.3,-844.57"/>
<polygon fill="none" stroke="#63b8ff" points="193.23,-844.49 186.29,-842.54 185.41,-835.38 192.36,-837.33 193.23,-844.49"/>
</a>
</g>
<text xml:space="preserve" text-anchor="start" x="246.27" y="-909.95" font-family="Arial" font-size="9.00" fill="grey">#handle</text>
</g>
<!-- Node7 -->
<g id="Node000007" class="node">
<title>Node7</title>
<g id="a_Node000007"><a xlink:title=" ">
<polygon fill="white" stroke="none" points="281.88,-525.75 205.62,-525.75 205.62,-478.25 281.88,-478.25 281.88,-525.75"/>
<text xml:space="preserve" text-anchor="start" x="209.62" y="-513.2" font-family="Arial" font-size="9.00">function&lt; void()&gt;</text>
<text xml:space="preserve" text-anchor="start" x="242.62" y="-498.7" font-family="Arial" font-size="9.00"> </text>
<text xml:space="preserve" text-anchor="start" x="242.62" y="-484.2" font-family="Arial" font-size="9.00"> </text>
<polygon fill="#bfbfbf" stroke="#bfbfbf" points="205.62,-509.25 205.62,-509.25 281.88,-509.25 281.88,-509.25 205.62,-509.25"/>
<polygon fill="#bfbfbf" stroke="#bfbfbf" points="205.62,-494.75 205.62,-494.75 281.88,-494.75 281.88,-494.75 205.62,-494.75"/>
<polygon fill="none" stroke="#bfbfbf" points="205.62,-478.25 205.62,-525.75 281.88,-525.75 281.88,-478.25 205.62,-478.25"/>
</a>
</g>
</g>
<!-- Node7&#45;&gt;Node1 -->
<g id="edge6_Node000001_Node000007" class="edge">
<title>Node7&#45;&gt;Node1</title>
<g id="a_edge6_Node000001_Node000007"><a xlink:title=" ">
<path fill="none" stroke="#63b8ff" d="M240.51,-478.44C234.72,-438.07 222.16,-350.47 211.1,-273.4"/>
<polygon fill="none" stroke="#63b8ff" points="211.1,-273.41 206.29,-268.04 209.4,-261.53 214.21,-266.9 211.1,-273.41"/>
</a>
</g>
<text xml:space="preserve" text-anchor="start" x="223.42" y="-327.45" font-family="Arial" font-size="9.00" fill="grey">+onAbortComplete</text>
<text xml:space="preserve" text-anchor="start" x="223.42" y="-312.95" font-family="Arial" font-size="9.00" fill="grey">+onRxComplete</text>
<text xml:space="preserve" text-anchor="start" x="223.42" y="-298.45" font-family="Arial" font-size="9.00" fill="grey">+onTxComplete</text>
<text xml:space="preserve" text-anchor="start" x="223.42" y="-283.95" font-family="Arial" font-size="9.00" fill="grey">+onTxRxComplete</text>
</g>
</g>
</svg>
