<?xml version="1.0" encoding="UTF-8" standalone="no"?>
<!DOCTYPE svg PUBLIC "-//W3C//DTD SVG 1.1//EN"
 "http://www.w3.org/Graphics/SVG/1.1/DTD/svg11.dtd">
<!-- Generated by graphviz version 13.1.0 (20250701.0955)
 -->
<!-- Title: BSP::OutputsPrecodeItem Pages: 1 -->
<svg width="122pt" height="70pt"
 viewBox="0.00 0.00 122.00 70.00" xmlns="http://www.w3.org/2000/svg" xmlns:xlink="http://www.w3.org/1999/xlink">
<g id="graph0" class="graph" transform="scale(1 1) rotate(0) translate(4 66)">
<title>BSP::OutputsPrecodeItem</title>
<!-- Node1 -->
<g id="Node000001" class="node">
<title>Node1</title>
<g id="a_Node000001"><a xlink:title="Represents a digital output pre&#45;coding item.">
<polygon fill="#999999" stroke="none" points="113.75,-62 0,-62 0,0 113.75,0 113.75,-62"/>
<text xml:space="preserve" text-anchor="start" x="4" y="-49.45" font-family="Arial" font-size="9.00">BSP::OutputsPrecodeItem</text>
<text xml:space="preserve" text-anchor="start" x="15" y="-34.95" font-family="Arial" font-size="9.00">+</text>
<text xml:space="preserve" text-anchor="start" x="35.25" y="-34.95" font-family="Arial" font-size="9.00">uint8_t index</text>
<text xml:space="preserve" text-anchor="start" x="15" y="-20.45" font-family="Arial" font-size="9.00">+</text>
<text xml:space="preserve" text-anchor="start" x="35.25" y="-20.45" font-family="Arial" font-size="9.00">uint8_t value</text>
<text xml:space="preserve" text-anchor="start" x="55.75" y="-5.95" font-family="Arial" font-size="9.00"> </text>
<polygon fill="#666666" stroke="#666666" points="0,-45.5 0,-45.5 113.75,-45.5 113.75,-45.5 0,-45.5"/>
<polygon fill="#666666" stroke="#666666" points="0,-16.5 0,-16.5 33.25,-16.5 33.25,-16.5 0,-16.5"/>
<polygon fill="#666666" stroke="#666666" points="33.25,-16.5 33.25,-16.5 113.75,-16.5 113.75,-16.5 33.25,-16.5"/>
<polygon fill="none" stroke="#666666" points="0,0 0,-62 113.75,-62 113.75,0 0,0"/>
</a>
</g>
</g>
</g>
</svg>
