<?xml version="1.0" encoding="UTF-8" standalone="no"?>
<!DOCTYPE svg PUBLIC "-//W3C//DTD SVG 1.1//EN"
 "http://www.w3.org/Graphics/SVG/1.1/DTD/svg11.dtd">
<!-- Generated by graphviz version 13.1.0 (20250701.0955)
 -->
<!-- Title: Lib::HAL::CAN::PortBase Pages: 1 -->
<svg width="1102pt" height="1004pt"
 viewBox="0.00 0.00 1102.00 1004.00" xmlns="http://www.w3.org/2000/svg" xmlns:xlink="http://www.w3.org/1999/xlink">
<g id="graph0" class="graph" transform="scale(1 1) rotate(0) translate(4 1000)">
<title>Lib::HAL::CAN::PortBase</title>
<!-- Node1 -->
<g id="Node000001" class="node">
<title>Node1</title>
<g id="a_Node000001"><a xlink:title="PortBase CAN abstraction base class.">
<polygon fill="#999999" stroke="none" points="652.25,-221.5 516.5,-221.5 516.5,0 652.25,0 652.25,-221.5"/>
<text xml:space="preserve" text-anchor="start" x="533.75" y="-208.95" font-family="Arial" font-size="9.00">Lib::HAL::CAN::PortBase</text>
<text xml:space="preserve" text-anchor="start" x="583.25" y="-194.45" font-family="Arial" font-size="9.00"> </text>
<text xml:space="preserve" text-anchor="start" x="520.5" y="-179.95" font-family="Arial" font-size="9.00">+</text>
<text xml:space="preserve" text-anchor="start" x="529.75" y="-179.95" font-family="Arial" font-size="9.00">PortBase()</text>
<text xml:space="preserve" text-anchor="start" x="520.5" y="-165.45" font-family="Arial" font-size="9.00">+</text>
<text xml:space="preserve" text-anchor="start" x="529.75" y="-165.45" font-family="Arial" font-size="9.00">~PortBase()</text>
<text xml:space="preserve" text-anchor="start" x="520.5" y="-150.95" font-family="Arial" font-size="9.00">+</text>
<text xml:space="preserve" text-anchor="start" x="529.75" y="-150.95" font-family="Arial" font-size="9.00">open()</text>
<text xml:space="preserve" text-anchor="start" x="520.5" y="-136.45" font-family="Arial" font-size="9.00">+</text>
<text xml:space="preserve" text-anchor="start" x="529.75" y="-136.45" font-family="Arial" font-size="9.00">close()</text>
<text xml:space="preserve" text-anchor="start" x="520.5" y="-121.95" font-family="Arial" font-size="9.00">+</text>
<text xml:space="preserve" text-anchor="start" x="529.75" y="-121.95" font-family="Arial" font-size="9.00">emitCallback()</text>
<text xml:space="preserve" text-anchor="start" x="520.5" y="-107.45" font-family="Arial" font-size="9.00">+</text>
<text xml:space="preserve" text-anchor="start" x="529.75" y="-107.45" font-family="Arial" font-size="9.00">getHandle()</text>
<text xml:space="preserve" text-anchor="start" x="520.5" y="-92.95" font-family="Arial" font-size="9.00">+</text>
<text xml:space="preserve" text-anchor="start" x="529.75" y="-92.95" font-family="Arial" font-size="9.00">setFilter()</text>
<text xml:space="preserve" text-anchor="start" x="520.5" y="-78.45" font-family="Arial" font-size="9.00">+</text>
<text xml:space="preserve" text-anchor="start" x="529.75" y="-78.45" font-family="Arial" font-size="9.00">send()</text>
<text xml:space="preserve" text-anchor="start" x="520.5" y="-63.95" font-family="Arial" font-size="9.00">+</text>
<text xml:space="preserve" text-anchor="start" x="529.75" y="-63.95" font-family="Arial" font-size="9.00">send()</text>
<text xml:space="preserve" text-anchor="start" x="520.5" y="-49.45" font-family="Arial" font-size="9.00">+</text>
<text xml:space="preserve" text-anchor="start" x="529.75" y="-49.45" font-family="Arial" font-size="9.00">preSendCallback()</text>
<text xml:space="preserve" text-anchor="start" x="520.5" y="-34.95" font-family="Arial" font-size="9.00">+</text>
<text xml:space="preserve" text-anchor="start" x="529.75" y="-34.95" font-family="Arial" font-size="9.00">postSendCallback()</text>
<text xml:space="preserve" text-anchor="start" x="520.5" y="-20.45" font-family="Arial" font-size="9.00">+</text>
<text xml:space="preserve" text-anchor="start" x="529.75" y="-20.45" font-family="Arial" font-size="9.00">messageReceivedCallback()</text>
<text xml:space="preserve" text-anchor="start" x="520.5" y="-5.95" font-family="Arial" font-size="9.00">+</text>
<text xml:space="preserve" text-anchor="start" x="529.75" y="-5.95" font-family="Arial" font-size="9.00">errorCallback()</text>
<polygon fill="#666666" stroke="#666666" points="516.5,-205 516.5,-205 652.25,-205 652.25,-205 516.5,-205"/>
<polygon fill="#666666" stroke="#666666" points="516.5,-190.5 516.5,-190.5 652.25,-190.5 652.25,-190.5 516.5,-190.5"/>
<polygon fill="none" stroke="#666666" points="516.5,0 516.5,-221.5 652.25,-221.5 652.25,0 516.5,0"/>
</a>
</g>
</g>
<!-- Node2 -->
<g id="Node000002" class="node">
<title>Node2</title>
<g id="a_Node000002"><a xlink:href="../../d5/dc8/a01541.html" target="_top" xlink:title=" ">
<polygon fill="white" stroke="none" points="104.75,-515.25 0,-515.25 0,-442.75 104.75,-442.75 104.75,-515.25"/>
<text xml:space="preserve" text-anchor="start" x="4" y="-502.7" font-family="Arial" font-size="9.00">Lib::HAL::Handle&lt; CAN</text>
<text xml:space="preserve" text-anchor="start" x="13.75" y="-492.2" font-family="Arial" font-size="9.00">_HandleTypeDef &gt;</text>
<text xml:space="preserve" text-anchor="start" x="51.25" y="-477.7" font-family="Arial" font-size="9.00"> </text>
<text xml:space="preserve" text-anchor="start" x="13.69" y="-463.2" font-family="Arial" font-size="9.00">+</text>
<text xml:space="preserve" text-anchor="start" x="32.62" y="-463.2" font-family="Arial" font-size="9.00">~Handle()</text>
<text xml:space="preserve" text-anchor="start" x="13.69" y="-448.7" font-family="Arial" font-size="9.00">+</text>
<text xml:space="preserve" text-anchor="start" x="32.62" y="-448.7" font-family="Arial" font-size="9.00">getHandle()</text>
<polygon fill="#666666" stroke="#666666" points="0,-488.25 0,-488.25 104.75,-488.25 104.75,-488.25 0,-488.25"/>
<polygon fill="#666666" stroke="#666666" points="0,-473.75 0,-473.75 104.75,-473.75 104.75,-473.75 0,-473.75"/>
<polygon fill="none" stroke="#666666" points="0,-442.75 0,-515.25 104.75,-515.25 104.75,-442.75 0,-442.75"/>
</a>
</g>
</g>
<!-- Node2&#45;&gt;Node1 -->
<g id="edge1_Node000001_Node000002" class="edge">
<title>Node2&#45;&gt;Node1</title>
<g id="a_edge1_Node000001_Node000002"><a xlink:title=" ">
<path fill="none" stroke="darkgreen" d="M58.24,-432.04C65.34,-393.45 80.69,-338.98 113.38,-303 221.53,-183.95 414.4,-137.48 516.56,-120.58"/>
<polygon fill="none" stroke="darkgreen" points="54.86,-431.04 56.63,-441.49 61.76,-432.22 54.86,-431.04"/>
</a>
</g>
</g>
<!-- Node3 -->
<g id="Node000003" class="node">
<title>Node3</title>
<g id="a_Node000003"><a xlink:title=" ">
<polygon fill="white" stroke="none" points="226,-502.75 122.75,-502.75 122.75,-455.25 226,-455.25 226,-502.75"/>
<text xml:space="preserve" text-anchor="start" x="126.75" y="-490.2" font-family="Arial" font-size="9.00">CAN_HandleTypeDef *</text>
<text xml:space="preserve" text-anchor="start" x="173.25" y="-475.7" font-family="Arial" font-size="9.00"> </text>
<text xml:space="preserve" text-anchor="start" x="173.25" y="-461.2" font-family="Arial" font-size="9.00"> </text>
<polygon fill="#bfbfbf" stroke="#bfbfbf" points="122.75,-486.25 122.75,-486.25 226,-486.25 226,-486.25 122.75,-486.25"/>
<polygon fill="#bfbfbf" stroke="#bfbfbf" points="122.75,-471.75 122.75,-471.75 226,-471.75 226,-471.75 122.75,-471.75"/>
<polygon fill="none" stroke="#bfbfbf" points="122.75,-455.25 122.75,-502.75 226,-502.75 226,-455.25 122.75,-455.25"/>
</a>
</g>
</g>
<!-- Node3&#45;&gt;Node1 -->
<g id="edge2_Node000001_Node000003" class="edge">
<title>Node3&#45;&gt;Node1</title>
<g id="a_edge2_Node000001_Node000003"><a xlink:title=" ">
<path fill="none" stroke="#63b8ff" d="M177.14,-455.5C182.53,-419.74 197.35,-349.27 234.38,-303 304.12,-215.83 424.84,-162.6 504.66,-135.14"/>
<polygon fill="none" stroke="#63b8ff" points="504.39,-135.23 508.8,-129.52 515.76,-131.4 511.35,-137.11 504.39,-135.23"/>
</a>
</g>
<text xml:space="preserve" text-anchor="start" x="298.9" y="-258.95" font-family="Arial" font-size="9.00" fill="grey">#handle</text>
</g>
<!-- Node4 -->
<g id="Node000004" class="node">
<title>Node4</title>
<g id="a_Node000004"><a xlink:href="../../d9/d6f/a01445.html" target="_top" xlink:title="FreeRTOS task wrapper.">
<polygon fill="white" stroke="none" points="359.12,-655 243.62,-655 243.62,-303 359.12,-303 359.12,-655"/>
<text xml:space="preserve" text-anchor="start" x="259.75" y="-642.45" font-family="Arial" font-size="9.00">Lib::FreeRTOS::Task</text>
<text xml:space="preserve" text-anchor="start" x="300.25" y="-627.95" font-family="Arial" font-size="9.00"> </text>
<text xml:space="preserve" text-anchor="start" x="247.62" y="-613.45" font-family="Arial" font-size="9.00">+</text>
<text xml:space="preserve" text-anchor="start" x="256.88" y="-613.45" font-family="Arial" font-size="9.00">Task()</text>
<text xml:space="preserve" text-anchor="start" x="247.62" y="-598.95" font-family="Arial" font-size="9.00">+</text>
<text xml:space="preserve" text-anchor="start" x="256.88" y="-598.95" font-family="Arial" font-size="9.00">Task()</text>
<text xml:space="preserve" text-anchor="start" x="247.62" y="-584.45" font-family="Arial" font-size="9.00">+</text>
<text xml:space="preserve" text-anchor="start" x="256.88" y="-584.45" font-family="Arial" font-size="9.00">Task()</text>
<text xml:space="preserve" text-anchor="start" x="247.62" y="-569.95" font-family="Arial" font-size="9.00">+</text>
<text xml:space="preserve" text-anchor="start" x="256.88" y="-569.95" font-family="Arial" font-size="9.00">~Task()</text>
<text xml:space="preserve" text-anchor="start" x="247.62" y="-555.45" font-family="Arial" font-size="9.00">+</text>
<text xml:space="preserve" text-anchor="start" x="256.88" y="-555.45" font-family="Arial" font-size="9.00">operator=()</text>
<text xml:space="preserve" text-anchor="start" x="247.62" y="-540.95" font-family="Arial" font-size="9.00">+</text>
<text xml:space="preserve" text-anchor="start" x="256.88" y="-540.95" font-family="Arial" font-size="9.00">operator=()</text>
<text xml:space="preserve" text-anchor="start" x="247.62" y="-526.45" font-family="Arial" font-size="9.00">+</text>
<text xml:space="preserve" text-anchor="start" x="256.88" y="-526.45" font-family="Arial" font-size="9.00">create()</text>
<text xml:space="preserve" text-anchor="start" x="247.62" y="-511.95" font-family="Arial" font-size="9.00">+</text>
<text xml:space="preserve" text-anchor="start" x="256.88" y="-511.95" font-family="Arial" font-size="9.00">create()</text>
<text xml:space="preserve" text-anchor="start" x="247.62" y="-497.45" font-family="Arial" font-size="9.00">+</text>
<text xml:space="preserve" text-anchor="start" x="256.88" y="-497.45" font-family="Arial" font-size="9.00">isCreated()</text>
<text xml:space="preserve" text-anchor="start" x="247.62" y="-482.95" font-family="Arial" font-size="9.00">+</text>
<text xml:space="preserve" text-anchor="start" x="256.88" y="-482.95" font-family="Arial" font-size="9.00">release()</text>
<text xml:space="preserve" text-anchor="start" x="256.88" y="-468.45" font-family="Arial" font-size="9.00">and 7 more...</text>
<text xml:space="preserve" text-anchor="start" x="247.62" y="-453.95" font-family="Arial" font-size="9.00">+</text>
<text xml:space="preserve" text-anchor="start" x="256.88" y="-453.95" font-family="Arial" font-size="9.00">run()</text>
<text xml:space="preserve" text-anchor="start" x="247.62" y="-439.45" font-family="Arial" font-size="9.00">+</text>
<text xml:space="preserve" text-anchor="start" x="256.88" y="-439.45" font-family="Arial" font-size="9.00">run()</text>
<text xml:space="preserve" text-anchor="start" x="247.62" y="-424.95" font-family="Arial" font-size="9.00">+</text>
<text xml:space="preserve" text-anchor="start" x="256.88" y="-424.95" font-family="Arial" font-size="9.00">release()</text>
<text xml:space="preserve" text-anchor="start" x="247.62" y="-410.45" font-family="Arial" font-size="9.00">+</text>
<text xml:space="preserve" text-anchor="start" x="256.88" y="-410.45" font-family="Arial" font-size="9.00">suspend()</text>
<text xml:space="preserve" text-anchor="start" x="247.62" y="-395.95" font-family="Arial" font-size="9.00">+</text>
<text xml:space="preserve" text-anchor="start" x="256.88" y="-395.95" font-family="Arial" font-size="9.00">resume()</text>
<text xml:space="preserve" text-anchor="start" x="247.62" y="-381.45" font-family="Arial" font-size="9.00">+</text>
<text xml:space="preserve" text-anchor="start" x="256.88" y="-381.45" font-family="Arial" font-size="9.00">resumeFromISR()</text>
<text xml:space="preserve" text-anchor="start" x="247.62" y="-366.95" font-family="Arial" font-size="9.00">+</text>
<text xml:space="preserve" text-anchor="start" x="256.88" y="-366.95" font-family="Arial" font-size="9.00">getCurrentTaskHandle()</text>
<text xml:space="preserve" text-anchor="start" x="247.62" y="-352.45" font-family="Arial" font-size="9.00">+</text>
<text xml:space="preserve" text-anchor="start" x="256.88" y="-352.45" font-family="Arial" font-size="9.00">getPriority()</text>
<text xml:space="preserve" text-anchor="start" x="247.62" y="-337.95" font-family="Arial" font-size="9.00">+</text>
<text xml:space="preserve" text-anchor="start" x="256.88" y="-337.95" font-family="Arial" font-size="9.00">setPriority()</text>
<text xml:space="preserve" text-anchor="start" x="247.62" y="-323.45" font-family="Arial" font-size="9.00">+</text>
<text xml:space="preserve" text-anchor="start" x="256.88" y="-323.45" font-family="Arial" font-size="9.00">getName()</text>
<text xml:space="preserve" text-anchor="start" x="256.88" y="-308.95" font-family="Arial" font-size="9.00">and 6 more...</text>
<polygon fill="#666666" stroke="#666666" points="243.62,-638.5 243.62,-638.5 359.12,-638.5 359.12,-638.5 243.62,-638.5"/>
<polygon fill="#666666" stroke="#666666" points="243.62,-624 243.62,-624 359.12,-624 359.12,-624 243.62,-624"/>
<polygon fill="none" stroke="#666666" points="243.62,-303 243.62,-655 359.12,-655 359.12,-303 243.62,-303"/>
</a>
</g>
</g>
<!-- Node4&#45;&gt;Node1 -->
<g id="edge3_Node000001_Node000004" class="edge">
<title>Node4&#45;&gt;Node1</title>
<g id="a_edge3_Node000001_Node000004"><a xlink:title=" ">
<path fill="none" stroke="#63b8ff" d="M359.03,-319.89C362.04,-314.12 365.16,-308.47 368.38,-303 402.2,-245.51 459.29,-196.07 506.28,-161.87"/>
<polygon fill="none" stroke="#63b8ff" points="506.26,-161.89 508.81,-155.14 516.02,-154.9 513.47,-161.65 506.26,-161.89"/>
</a>
</g>
<text xml:space="preserve" text-anchor="start" x="418.8" y="-258.95" font-family="Arial" font-size="9.00" fill="grey">#task</text>
</g>
<!-- Node5 -->
<g id="Node000005" class="node">
<title>Node5</title>
<g id="a_Node000005"><a xlink:title=" ">
<polygon fill="white" stroke="none" points="333.5,-825.5 269.25,-825.5 269.25,-778 333.5,-778 333.5,-825.5"/>
<text xml:space="preserve" text-anchor="start" x="273.25" y="-812.95" font-family="Arial" font-size="9.00">TaskHandle_t</text>
<text xml:space="preserve" text-anchor="start" x="300.25" y="-798.45" font-family="Arial" font-size="9.00"> </text>
<text xml:space="preserve" text-anchor="start" x="300.25" y="-783.95" font-family="Arial" font-size="9.00"> </text>
<polygon fill="#bfbfbf" stroke="#bfbfbf" points="269.25,-809 269.25,-809 333.5,-809 333.5,-809 269.25,-809"/>
<polygon fill="#bfbfbf" stroke="#bfbfbf" points="269.25,-794.5 269.25,-794.5 333.5,-794.5 333.5,-794.5 269.25,-794.5"/>
<polygon fill="none" stroke="#bfbfbf" points="269.25,-778 269.25,-825.5 333.5,-825.5 333.5,-778 269.25,-778"/>
</a>
</g>
</g>
<!-- Node5&#45;&gt;Node4 -->
<g id="edge4_Node000004_Node000005" class="edge">
<title>Node5&#45;&gt;Node4</title>
<g id="a_edge4_Node000004_Node000005"><a xlink:title=" ">
<path fill="none" stroke="#63b8ff" d="M301.38,-778.2C301.38,-753.74 301.38,-712.22 301.38,-667.81"/>
<polygon fill="none" stroke="#63b8ff" points="301.38,-667.8 297.38,-661.8 301.38,-655.8 305.38,-661.8 301.38,-667.8"/>
</a>
</g>
<text xml:space="preserve" text-anchor="start" x="304.38" y="-677.95" font-family="Arial" font-size="9.00" fill="grey">#handle</text>
</g>
<!-- Node6 -->
<g id="Node000006" class="node">
<title>Node6</title>
<g id="a_Node000006"><a xlink:href="../../d1/d3b/a01429.html" target="_top" xlink:title="Semaphore class.">
<polygon fill="white" stroke="none" points="509.38,-573.25 377.38,-573.25 377.38,-384.75 509.38,-384.75 509.38,-573.25"/>
<text xml:space="preserve" text-anchor="start" x="387.12" y="-560.7" font-family="Arial" font-size="9.00">Lib::FreeRTOS::Semaphore</text>
<text xml:space="preserve" text-anchor="start" x="442.25" y="-546.2" font-family="Arial" font-size="9.00"> </text>
<text xml:space="preserve" text-anchor="start" x="381.38" y="-531.7" font-family="Arial" font-size="9.00">+</text>
<text xml:space="preserve" text-anchor="start" x="390.62" y="-531.7" font-family="Arial" font-size="9.00">Semaphore()</text>
<text xml:space="preserve" text-anchor="start" x="381.38" y="-517.2" font-family="Arial" font-size="9.00">+</text>
<text xml:space="preserve" text-anchor="start" x="390.62" y="-517.2" font-family="Arial" font-size="9.00">~Semaphore()</text>
<text xml:space="preserve" text-anchor="start" x="381.38" y="-502.7" font-family="Arial" font-size="9.00">+</text>
<text xml:space="preserve" text-anchor="start" x="390.62" y="-502.7" font-family="Arial" font-size="9.00">create()</text>
<text xml:space="preserve" text-anchor="start" x="381.38" y="-488.2" font-family="Arial" font-size="9.00">+</text>
<text xml:space="preserve" text-anchor="start" x="390.62" y="-488.2" font-family="Arial" font-size="9.00">release()</text>
<text xml:space="preserve" text-anchor="start" x="381.38" y="-473.7" font-family="Arial" font-size="9.00">+</text>
<text xml:space="preserve" text-anchor="start" x="390.62" y="-473.7" font-family="Arial" font-size="9.00">take()</text>
<text xml:space="preserve" text-anchor="start" x="381.38" y="-459.2" font-family="Arial" font-size="9.00">+</text>
<text xml:space="preserve" text-anchor="start" x="390.62" y="-459.2" font-family="Arial" font-size="9.00">give()</text>
<text xml:space="preserve" text-anchor="start" x="381.38" y="-444.7" font-family="Arial" font-size="9.00">+</text>
<text xml:space="preserve" text-anchor="start" x="390.62" y="-444.7" font-family="Arial" font-size="9.00">takeFromISR()</text>
<text xml:space="preserve" text-anchor="start" x="381.38" y="-430.2" font-family="Arial" font-size="9.00">+</text>
<text xml:space="preserve" text-anchor="start" x="390.62" y="-430.2" font-family="Arial" font-size="9.00">giveFromISR()</text>
<text xml:space="preserve" text-anchor="start" x="381.38" y="-415.7" font-family="Arial" font-size="9.00">+</text>
<text xml:space="preserve" text-anchor="start" x="390.62" y="-415.7" font-family="Arial" font-size="9.00">isCreated()</text>
<text xml:space="preserve" text-anchor="start" x="381.38" y="-401.2" font-family="Arial" font-size="9.00">+</text>
<text xml:space="preserve" text-anchor="start" x="390.62" y="-401.2" font-family="Arial" font-size="9.00">operator SemaphoreHandle</text>
<text xml:space="preserve" text-anchor="start" x="390.62" y="-390.7" font-family="Arial" font-size="9.00">_t &amp;()</text>
<polygon fill="#666666" stroke="#666666" points="377.38,-556.75 377.38,-556.75 509.38,-556.75 509.38,-556.75 377.38,-556.75"/>
<polygon fill="#666666" stroke="#666666" points="377.38,-542.25 377.38,-542.25 509.38,-542.25 509.38,-542.25 377.38,-542.25"/>
<polygon fill="none" stroke="#666666" points="377.38,-384.75 377.38,-573.25 509.38,-573.25 509.38,-384.75 377.38,-384.75"/>
</a>
</g>
</g>
<!-- Node6&#45;&gt;Node1 -->
<g id="edge5_Node000001_Node000006" class="edge">
<title>Node6&#45;&gt;Node1</title>
<g id="a_edge5_Node000001_Node000006"><a xlink:title=" ">
<path fill="none" stroke="#63b8ff" d="M439.53,-385.04C440.92,-339.42 447.64,-284.71 467.88,-239.5 477.59,-217.8 492.44,-197.3 508.32,-179.34"/>
<polygon fill="none" stroke="#63b8ff" points="507.99,-179.7 509.09,-172.57 516.09,-170.85 514.99,-177.97 507.99,-179.7"/>
</a>
</g>
<text xml:space="preserve" text-anchor="start" x="470.88" y="-273.45" font-family="Arial" font-size="9.00" fill="grey">#semaphoreError</text>
<text xml:space="preserve" text-anchor="start" x="470.88" y="-258.95" font-family="Arial" font-size="9.00" fill="grey">#semaphoreTxComplete</text>
<text xml:space="preserve" text-anchor="start" x="470.88" y="-244.45" font-family="Arial" font-size="9.00" fill="grey">#semaphoreTxCompleted</text>
</g>
<!-- Node7 -->
<g id="Node000007" class="node">
<title>Node7</title>
<g id="a_Node000007"><a xlink:href="../../d2/d9b/a01433.html" target="_top" xlink:title="Abstract base class for FreeRTOS semaphore wrappers.">
<polygon fill="white" stroke="none" points="514.12,-896 372.62,-896 372.62,-707.5 514.12,-707.5 514.12,-896"/>
<text xml:space="preserve" text-anchor="start" x="376.62" y="-883.45" font-family="Arial" font-size="9.00">Lib::FreeRTOS::SemaphoreBase</text>
<text xml:space="preserve" text-anchor="start" x="442.25" y="-868.95" font-family="Arial" font-size="9.00"> </text>
<text xml:space="preserve" text-anchor="start" x="379" y="-854.45" font-family="Arial" font-size="9.00">#</text>
<text xml:space="preserve" text-anchor="start" x="390.62" y="-854.45" font-family="Arial" font-size="9.00">SemaphoreBase()</text>
<text xml:space="preserve" text-anchor="start" x="379" y="-839.95" font-family="Arial" font-size="9.00">#</text>
<text xml:space="preserve" text-anchor="start" x="390.62" y="-839.95" font-family="Arial" font-size="9.00">~SemaphoreBase()</text>
<text xml:space="preserve" text-anchor="start" x="379" y="-825.45" font-family="Arial" font-size="9.00">#</text>
<text xml:space="preserve" text-anchor="start" x="390.62" y="-825.45" font-family="Arial" font-size="9.00">create()</text>
<text xml:space="preserve" text-anchor="start" x="379" y="-810.95" font-family="Arial" font-size="9.00">#</text>
<text xml:space="preserve" text-anchor="start" x="390.62" y="-810.95" font-family="Arial" font-size="9.00">release()</text>
<text xml:space="preserve" text-anchor="start" x="379" y="-796.45" font-family="Arial" font-size="9.00">#</text>
<text xml:space="preserve" text-anchor="start" x="390.62" y="-796.45" font-family="Arial" font-size="9.00">take()</text>
<text xml:space="preserve" text-anchor="start" x="379" y="-781.95" font-family="Arial" font-size="9.00">#</text>
<text xml:space="preserve" text-anchor="start" x="390.62" y="-781.95" font-family="Arial" font-size="9.00">give()</text>
<text xml:space="preserve" text-anchor="start" x="379" y="-767.45" font-family="Arial" font-size="9.00">#</text>
<text xml:space="preserve" text-anchor="start" x="390.62" y="-767.45" font-family="Arial" font-size="9.00">takeFromISR()</text>
<text xml:space="preserve" text-anchor="start" x="379" y="-752.95" font-family="Arial" font-size="9.00">#</text>
<text xml:space="preserve" text-anchor="start" x="390.62" y="-752.95" font-family="Arial" font-size="9.00">giveFromISR()</text>
<text xml:space="preserve" text-anchor="start" x="379" y="-738.45" font-family="Arial" font-size="9.00">#</text>
<text xml:space="preserve" text-anchor="start" x="390.62" y="-738.45" font-family="Arial" font-size="9.00">operator SemaphoreHandle</text>
<text xml:space="preserve" text-anchor="start" x="390.62" y="-727.95" font-family="Arial" font-size="9.00">_t &amp;()</text>
<text xml:space="preserve" text-anchor="start" x="379" y="-713.45" font-family="Arial" font-size="9.00">#</text>
<text xml:space="preserve" text-anchor="start" x="390.62" y="-713.45" font-family="Arial" font-size="9.00">isCreated()</text>
<polygon fill="#666666" stroke="#666666" points="372.62,-879.5 372.62,-879.5 514.12,-879.5 514.12,-879.5 372.62,-879.5"/>
<polygon fill="#666666" stroke="#666666" points="372.62,-865 372.62,-865 514.12,-865 514.12,-865 372.62,-865"/>
<polygon fill="none" stroke="#666666" points="372.62,-707.5 372.62,-896 514.12,-896 514.12,-707.5 372.62,-707.5"/>
</a>
</g>
</g>
<!-- Node7&#45;&gt;Node6 -->
<g id="edge6_Node000006_Node000007" class="edge">
<title>Node7&#45;&gt;Node6</title>
<g id="a_edge6_Node000006_Node000007"><a xlink:title=" ">
<path fill="none" stroke="#63b8ff" d="M443.38,-696.24C443.38,-656.57 443.38,-611.71 443.38,-573.16"/>
<polygon fill="none" stroke="#63b8ff" points="439.88,-696.03 443.38,-706.03 446.88,-696.03 439.88,-696.03"/>
</a>
</g>
</g>
<!-- Node8 -->
<g id="Node000008" class="node">
<title>Node8</title>
<g id="a_Node000008"><a xlink:title=" ">
<polygon fill="white" stroke="none" points="490.12,-996 396.62,-996 396.62,-948.5 490.12,-948.5 490.12,-996"/>
<text xml:space="preserve" text-anchor="start" x="400.62" y="-983.45" font-family="Arial" font-size="9.00">SemaphoreHandle_t</text>
<text xml:space="preserve" text-anchor="start" x="442.25" y="-968.95" font-family="Arial" font-size="9.00"> </text>
<text xml:space="preserve" text-anchor="start" x="442.25" y="-954.45" font-family="Arial" font-size="9.00"> </text>
<polygon fill="#bfbfbf" stroke="#bfbfbf" points="396.62,-979.5 396.62,-979.5 490.12,-979.5 490.12,-979.5 396.62,-979.5"/>
<polygon fill="#bfbfbf" stroke="#bfbfbf" points="396.62,-965 396.62,-965 490.12,-965 490.12,-965 396.62,-965"/>
<polygon fill="none" stroke="#bfbfbf" points="396.62,-948.5 396.62,-996 490.12,-996 490.12,-948.5 396.62,-948.5"/>
</a>
</g>
</g>
<!-- Node8&#45;&gt;Node7 -->
<g id="edge7_Node000007_Node000008" class="edge">
<title>Node8&#45;&gt;Node7</title>
<g id="a_edge7_Node000007_Node000008"><a xlink:title=" ">
<path fill="none" stroke="#63b8ff" d="M443.38,-948.53C443.38,-937.58 443.38,-923.58 443.38,-908.61"/>
<polygon fill="none" stroke="#63b8ff" points="443.38,-908.75 439.38,-902.75 443.38,-896.75 447.38,-902.75 443.38,-908.75"/>
</a>
</g>
<text xml:space="preserve" text-anchor="start" x="446.38" y="-918.95" font-family="Arial" font-size="9.00" fill="grey">#handle</text>
</g>
<!-- Node9 -->
<g id="Node000009" class="node">
<title>Node9</title>
<g id="a_Node000009"><a xlink:href="../../db/df2/a01425.html" target="_top" xlink:title="RAII wrapper for FreeRTOS queue sets.">
<polygon fill="white" stroke="none" points="641.25,-553.5 527.5,-553.5 527.5,-404.5 641.25,-404.5 641.25,-553.5"/>
<text xml:space="preserve" text-anchor="start" x="531.5" y="-540.95" font-family="Arial" font-size="9.00">Lib::FreeRTOS::QueueSet</text>
<text xml:space="preserve" text-anchor="start" x="583.25" y="-526.45" font-family="Arial" font-size="9.00"> </text>
<text xml:space="preserve" text-anchor="start" x="539.12" y="-511.95" font-family="Arial" font-size="9.00">+</text>
<text xml:space="preserve" text-anchor="start" x="556" y="-511.95" font-family="Arial" font-size="9.00">QueueSet()</text>
<text xml:space="preserve" text-anchor="start" x="539.12" y="-497.45" font-family="Arial" font-size="9.00">+</text>
<text xml:space="preserve" text-anchor="start" x="556" y="-497.45" font-family="Arial" font-size="9.00">~QueueSet()</text>
<text xml:space="preserve" text-anchor="start" x="539.12" y="-482.95" font-family="Arial" font-size="9.00">+</text>
<text xml:space="preserve" text-anchor="start" x="556" y="-482.95" font-family="Arial" font-size="9.00">create()</text>
<text xml:space="preserve" text-anchor="start" x="539.12" y="-468.45" font-family="Arial" font-size="9.00">+</text>
<text xml:space="preserve" text-anchor="start" x="556" y="-468.45" font-family="Arial" font-size="9.00">remove()</text>
<text xml:space="preserve" text-anchor="start" x="539.12" y="-453.95" font-family="Arial" font-size="9.00">+</text>
<text xml:space="preserve" text-anchor="start" x="556" y="-453.95" font-family="Arial" font-size="9.00">select()</text>
<text xml:space="preserve" text-anchor="start" x="539.12" y="-439.45" font-family="Arial" font-size="9.00">+</text>
<text xml:space="preserve" text-anchor="start" x="556" y="-439.45" font-family="Arial" font-size="9.00">selectFromISR()</text>
<text xml:space="preserve" text-anchor="start" x="539.12" y="-424.95" font-family="Arial" font-size="9.00">+</text>
<text xml:space="preserve" text-anchor="start" x="556" y="-424.95" font-family="Arial" font-size="9.00">release()</text>
<text xml:space="preserve" text-anchor="start" x="539.12" y="-410.45" font-family="Arial" font-size="9.00">+</text>
<text xml:space="preserve" text-anchor="start" x="556" y="-410.45" font-family="Arial" font-size="9.00">isCreated()</text>
<polygon fill="#666666" stroke="#666666" points="527.5,-537 527.5,-537 641.25,-537 641.25,-537 527.5,-537"/>
<polygon fill="#666666" stroke="#666666" points="527.5,-522.5 527.5,-522.5 641.25,-522.5 641.25,-522.5 527.5,-522.5"/>
<polygon fill="none" stroke="#666666" points="527.5,-404.5 527.5,-553.5 641.25,-553.5 641.25,-404.5 527.5,-404.5"/>
</a>
</g>
</g>
<!-- Node9&#45;&gt;Node1 -->
<g id="edge8_Node000001_Node000009" class="edge">
<title>Node9&#45;&gt;Node1</title>
<g id="a_edge8_Node000001_Node000009"><a xlink:title=" ">
<path fill="none" stroke="#63b8ff" d="M584.38,-404.76C584.38,-356.06 584.38,-290.89 584.38,-234.38"/>
<polygon fill="none" stroke="#63b8ff" points="584.38,-234.25 580.38,-228.25 584.38,-222.25 588.38,-228.25 584.38,-234.25"/>
</a>
</g>
<text xml:space="preserve" text-anchor="start" x="587.38" y="-258.95" font-family="Arial" font-size="9.00" fill="grey">#queueSet</text>
</g>
<!-- Node10 -->
<g id="Node000010" class="node">
<title>Node10</title>
<g id="a_Node000010"><a xlink:href="../../d4/d20/a01421.html" target="_top" xlink:title="FreeRTOS queue C++ wrapper.">
<polygon fill="white" stroke="none" points="759.5,-575.25 659.25,-575.25 659.25,-382.75 759.5,-382.75 759.5,-575.25"/>
<text xml:space="preserve" text-anchor="start" x="663.25" y="-562.7" font-family="Arial" font-size="9.00">Lib::FreeRTOS::Queue</text>
<text xml:space="preserve" text-anchor="start" x="708.25" y="-548.2" font-family="Arial" font-size="9.00"> </text>
<text xml:space="preserve" text-anchor="start" x="666" y="-533.7" font-family="Arial" font-size="9.00">+</text>
<text xml:space="preserve" text-anchor="start" x="678" y="-533.7" font-family="Arial" font-size="9.00">Queue()</text>
<text xml:space="preserve" text-anchor="start" x="666" y="-519.2" font-family="Arial" font-size="9.00">+</text>
<text xml:space="preserve" text-anchor="start" x="678" y="-519.2" font-family="Arial" font-size="9.00">Queue()</text>
<text xml:space="preserve" text-anchor="start" x="666" y="-504.7" font-family="Arial" font-size="9.00">+</text>
<text xml:space="preserve" text-anchor="start" x="678" y="-504.7" font-family="Arial" font-size="9.00">~Queue()</text>
<text xml:space="preserve" text-anchor="start" x="666" y="-490.2" font-family="Arial" font-size="9.00">+</text>
<text xml:space="preserve" text-anchor="start" x="678" y="-490.2" font-family="Arial" font-size="9.00">create()</text>
<text xml:space="preserve" text-anchor="start" x="666" y="-475.7" font-family="Arial" font-size="9.00">+</text>
<text xml:space="preserve" text-anchor="start" x="678" y="-475.7" font-family="Arial" font-size="9.00">createStatic()</text>
<text xml:space="preserve" text-anchor="start" x="666" y="-461.2" font-family="Arial" font-size="9.00">+</text>
<text xml:space="preserve" text-anchor="start" x="678" y="-461.2" font-family="Arial" font-size="9.00">release()</text>
<text xml:space="preserve" text-anchor="start" x="666" y="-446.7" font-family="Arial" font-size="9.00">+</text>
<text xml:space="preserve" text-anchor="start" x="678" y="-446.7" font-family="Arial" font-size="9.00">reset()</text>
<text xml:space="preserve" text-anchor="start" x="666" y="-432.2" font-family="Arial" font-size="9.00">+</text>
<text xml:space="preserve" text-anchor="start" x="678" y="-432.2" font-family="Arial" font-size="9.00">receive()</text>
<text xml:space="preserve" text-anchor="start" x="666" y="-417.7" font-family="Arial" font-size="9.00">+</text>
<text xml:space="preserve" text-anchor="start" x="678" y="-417.7" font-family="Arial" font-size="9.00">receiveFromISR()</text>
<text xml:space="preserve" text-anchor="start" x="666" y="-403.2" font-family="Arial" font-size="9.00">+</text>
<text xml:space="preserve" text-anchor="start" x="678" y="-403.2" font-family="Arial" font-size="9.00">peek()</text>
<text xml:space="preserve" text-anchor="start" x="678" y="-388.7" font-family="Arial" font-size="9.00">and 13 more...</text>
<polygon fill="#666666" stroke="#666666" points="659.25,-558.75 659.25,-558.75 759.5,-558.75 759.5,-558.75 659.25,-558.75"/>
<polygon fill="#666666" stroke="#666666" points="659.25,-544.25 659.25,-544.25 759.5,-544.25 759.5,-544.25 659.25,-544.25"/>
<polygon fill="none" stroke="#666666" points="659.25,-382.75 659.25,-575.25 759.5,-575.25 759.5,-382.75 659.25,-382.75"/>
</a>
</g>
</g>
<!-- Node10&#45;&gt;Node1 -->
<g id="edge9_Node000001_Node000010" class="edge">
<title>Node10&#45;&gt;Node1</title>
<g id="a_edge9_Node000001_Node000010"><a xlink:title=" ">
<path fill="none" stroke="#63b8ff" d="M684.3,-382.84C671.97,-338.82 656.17,-286.08 639.38,-239.5 638.63,-237.43 637.87,-235.35 637.09,-233.25"/>
<polygon fill="none" stroke="#63b8ff" points="637.08,-233.22 631.21,-229.03 632.82,-222.01 638.69,-226.19 637.08,-233.22"/>
</a>
</g>
<text xml:space="preserve" text-anchor="start" x="657.75" y="-266.2" font-family="Arial" font-size="9.00" fill="grey">#queueRxMessage</text>
<text xml:space="preserve" text-anchor="start" x="657.75" y="-251.7" font-family="Arial" font-size="9.00" fill="grey">#queueTxMessage</text>
</g>
<!-- Node11 -->
<g id="Node000011" class="node">
<title>Node11</title>
<g id="a_Node000011"><a xlink:href="../../dc/d42/a01521.html" target="_top" xlink:title="RxMessage CAN receive message wrapper class.">
<polygon fill="white" stroke="none" points="897.62,-568 777.12,-568 777.12,-390 897.62,-390 897.62,-568"/>
<text xml:space="preserve" text-anchor="start" x="781.12" y="-555.45" font-family="Arial" font-size="9.00">Lib::HAL::CAN::RxMessage</text>
<text xml:space="preserve" text-anchor="start" x="836.25" y="-540.95" font-family="Arial" font-size="9.00"> </text>
<text xml:space="preserve" text-anchor="start" x="791.94" y="-526.45" font-family="Arial" font-size="9.00">+</text>
<text xml:space="preserve" text-anchor="start" x="812" y="-526.45" font-family="Arial" font-size="9.00">RxMessage()</text>
<text xml:space="preserve" text-anchor="start" x="791.94" y="-511.95" font-family="Arial" font-size="9.00">+</text>
<text xml:space="preserve" text-anchor="start" x="812" y="-511.95" font-family="Arial" font-size="9.00">RxMessage()</text>
<text xml:space="preserve" text-anchor="start" x="791.94" y="-497.45" font-family="Arial" font-size="9.00">+</text>
<text xml:space="preserve" text-anchor="start" x="812" y="-497.45" font-family="Arial" font-size="9.00">RxMessage()</text>
<text xml:space="preserve" text-anchor="start" x="791.94" y="-482.95" font-family="Arial" font-size="9.00">+</text>
<text xml:space="preserve" text-anchor="start" x="812" y="-482.95" font-family="Arial" font-size="9.00">operator=()</text>
<text xml:space="preserve" text-anchor="start" x="791.94" y="-468.45" font-family="Arial" font-size="9.00">+</text>
<text xml:space="preserve" text-anchor="start" x="812" y="-468.45" font-family="Arial" font-size="9.00">operator=()</text>
<text xml:space="preserve" text-anchor="start" x="791.94" y="-453.95" font-family="Arial" font-size="9.00">+</text>
<text xml:space="preserve" text-anchor="start" x="812" y="-453.95" font-family="Arial" font-size="9.00">~RxMessage()</text>
<text xml:space="preserve" text-anchor="start" x="791.94" y="-439.45" font-family="Arial" font-size="9.00">+</text>
<text xml:space="preserve" text-anchor="start" x="812" y="-439.45" font-family="Arial" font-size="9.00">getId()</text>
<text xml:space="preserve" text-anchor="start" x="791.94" y="-424.95" font-family="Arial" font-size="9.00">+</text>
<text xml:space="preserve" text-anchor="start" x="812" y="-424.95" font-family="Arial" font-size="9.00">getLen()</text>
<text xml:space="preserve" text-anchor="start" x="791.94" y="-410.45" font-family="Arial" font-size="9.00">+</text>
<text xml:space="preserve" text-anchor="start" x="812" y="-410.45" font-family="Arial" font-size="9.00">getData()</text>
<text xml:space="preserve" text-anchor="start" x="791.94" y="-395.95" font-family="Arial" font-size="9.00">+</text>
<text xml:space="preserve" text-anchor="start" x="812" y="-395.95" font-family="Arial" font-size="9.00">getData()</text>
<polygon fill="#666666" stroke="#666666" points="777.12,-551.5 777.12,-551.5 897.62,-551.5 897.62,-551.5 777.12,-551.5"/>
<polygon fill="#666666" stroke="#666666" points="777.12,-537 777.12,-537 897.62,-537 897.62,-537 777.12,-537"/>
<polygon fill="none" stroke="#666666" points="777.12,-390 777.12,-568 897.62,-568 897.62,-390 777.12,-390"/>
</a>
</g>
</g>
<!-- Node11&#45;&gt;Node1 -->
<g id="edge10_Node000001_Node000011" class="edge">
<title>Node11&#45;&gt;Node1</title>
<g id="a_edge10_Node000001_Node000011"><a xlink:title=" ">
<path fill="none" stroke="#63b8ff" d="M815.75,-390.24C801.13,-342.56 778.37,-284.37 745.38,-239.5 723.06,-209.16 691.79,-182.13 662.73,-160.83"/>
<polygon fill="none" stroke="#63b8ff" points="662.63,-160.76 655.42,-160.51 652.87,-153.77 660.08,-154.01 662.63,-160.76"/>
</a>
</g>
<text xml:space="preserve" text-anchor="start" x="774.19" y="-258.95" font-family="Arial" font-size="9.00" fill="grey">#rxMessage</text>
</g>
<!-- Node12 -->
<g id="Node000012" class="node">
<title>Node12</title>
<g id="a_Node000012"><a xlink:href="../../de/d06/a02938.html" target="_top" xlink:title=" ">
<polygon fill="white" stroke="none" points="892,-825.5 782.75,-825.5 782.75,-778 892,-778 892,-825.5"/>
<text xml:space="preserve" text-anchor="start" x="786.75" y="-812.95" font-family="Arial" font-size="9.00">CAN_RxHeaderTypeDef</text>
<text xml:space="preserve" text-anchor="start" x="836.25" y="-798.45" font-family="Arial" font-size="9.00"> </text>
<text xml:space="preserve" text-anchor="start" x="836.25" y="-783.95" font-family="Arial" font-size="9.00"> </text>
<polygon fill="#bfbfbf" stroke="#bfbfbf" points="782.75,-809 782.75,-809 892,-809 892,-809 782.75,-809"/>
<polygon fill="#bfbfbf" stroke="#bfbfbf" points="782.75,-794.5 782.75,-794.5 892,-794.5 892,-794.5 782.75,-794.5"/>
<polygon fill="none" stroke="#bfbfbf" points="782.75,-778 782.75,-825.5 892,-825.5 892,-778 782.75,-778"/>
</a>
</g>
</g>
<!-- Node12&#45;&gt;Node11 -->
<g id="edge11_Node000011_Node000012" class="edge">
<title>Node12&#45;&gt;Node11</title>
<g id="a_edge11_Node000011_Node000012"><a xlink:title=" ">
<path fill="none" stroke="#63b8ff" d="M837.38,-766.89C837.38,-720.02 837.38,-633.72 837.38,-567.97"/>
<polygon fill="none" stroke="#63b8ff" points="833.88,-766.68 837.38,-776.68 840.88,-766.68 833.88,-766.68"/>
</a>
</g>
</g>
<!-- Node13 -->
<g id="Node000013" class="node">
<title>Node13</title>
<g id="a_Node000013"><a xlink:href="../../db/dce/a01529.html" target="_top" xlink:title="CAN transmit message wrapper.">
<polygon fill="white" stroke="none" points="1034.88,-539 915.88,-539 915.88,-419 1034.88,-419 1034.88,-539"/>
<text xml:space="preserve" text-anchor="start" x="919.88" y="-526.45" font-family="Arial" font-size="9.00">Lib::HAL::CAN::TxMessage</text>
<text xml:space="preserve" text-anchor="start" x="974.25" y="-511.95" font-family="Arial" font-size="9.00"> </text>
<text xml:space="preserve" text-anchor="start" x="932" y="-497.45" font-family="Arial" font-size="9.00">+</text>
<text xml:space="preserve" text-anchor="start" x="953.38" y="-497.45" font-family="Arial" font-size="9.00">TxMessage()</text>
<text xml:space="preserve" text-anchor="start" x="932" y="-482.95" font-family="Arial" font-size="9.00">+</text>
<text xml:space="preserve" text-anchor="start" x="953.38" y="-482.95" font-family="Arial" font-size="9.00">TxMessage()</text>
<text xml:space="preserve" text-anchor="start" x="932" y="-468.45" font-family="Arial" font-size="9.00">+</text>
<text xml:space="preserve" text-anchor="start" x="953.38" y="-468.45" font-family="Arial" font-size="9.00">TxMessage()</text>
<text xml:space="preserve" text-anchor="start" x="932" y="-453.95" font-family="Arial" font-size="9.00">+</text>
<text xml:space="preserve" text-anchor="start" x="953.38" y="-453.95" font-family="Arial" font-size="9.00">getId()</text>
<text xml:space="preserve" text-anchor="start" x="932" y="-439.45" font-family="Arial" font-size="9.00">+</text>
<text xml:space="preserve" text-anchor="start" x="953.38" y="-439.45" font-family="Arial" font-size="9.00">getData()</text>
<text xml:space="preserve" text-anchor="start" x="932" y="-424.95" font-family="Arial" font-size="9.00">+</text>
<text xml:space="preserve" text-anchor="start" x="953.38" y="-424.95" font-family="Arial" font-size="9.00">getLen()</text>
<polygon fill="#666666" stroke="#666666" points="915.88,-522.5 915.88,-522.5 1034.88,-522.5 1034.88,-522.5 915.88,-522.5"/>
<polygon fill="#666666" stroke="#666666" points="915.88,-508 915.88,-508 1034.88,-508 1034.88,-508 915.88,-508"/>
<polygon fill="none" stroke="#666666" points="915.88,-419 915.88,-539 1034.88,-539 1034.88,-419 915.88,-419"/>
</a>
</g>
</g>
<!-- Node13&#45;&gt;Node1 -->
<g id="edge12_Node000001_Node000013" class="edge">
<title>Node13&#45;&gt;Node1</title>
<g id="a_edge12_Node000001_Node000013"><a xlink:title=" ">
<path fill="none" stroke="#63b8ff" d="M960.17,-419.26C949.05,-383.47 931.49,-338.04 906.38,-303 846.72,-219.78 738.61,-166.57 664.23,-137.95"/>
<polygon fill="none" stroke="#63b8ff" points="664.21,-137.94 657.18,-139.57 652.98,-133.71 660,-132.08 664.21,-137.94"/>
</a>
</g>
<text xml:space="preserve" text-anchor="start" x="890.61" y="-258.95" font-family="Arial" font-size="9.00" fill="grey">#txMessage</text>
</g>
<!-- Node14 -->
<g id="Node000014" class="node">
<title>Node14</title>
<g id="a_Node000014"><a xlink:href="../../db/de9/a01525.html" target="_top" xlink:title="CAN transmit header wrapper class.">
<polygon fill="white" stroke="none" points="1031.5,-847.25 919.25,-847.25 919.25,-756.25 1031.5,-756.25 1031.5,-847.25"/>
<text xml:space="preserve" text-anchor="start" x="923.25" y="-834.7" font-family="Arial" font-size="9.00">Lib::HAL::CAN::TxHeader</text>
<text xml:space="preserve" text-anchor="start" x="974.25" y="-820.2" font-family="Arial" font-size="9.00"> </text>
<text xml:space="preserve" text-anchor="start" x="934.06" y="-805.7" font-family="Arial" font-size="9.00">+</text>
<text xml:space="preserve" text-anchor="start" x="954.12" y="-805.7" font-family="Arial" font-size="9.00">TxHeader()</text>
<text xml:space="preserve" text-anchor="start" x="934.06" y="-791.2" font-family="Arial" font-size="9.00">+</text>
<text xml:space="preserve" text-anchor="start" x="954.12" y="-791.2" font-family="Arial" font-size="9.00">TxHeader()</text>
<text xml:space="preserve" text-anchor="start" x="934.06" y="-776.7" font-family="Arial" font-size="9.00">+</text>
<text xml:space="preserve" text-anchor="start" x="954.12" y="-776.7" font-family="Arial" font-size="9.00">~TxHeader()</text>
<text xml:space="preserve" text-anchor="start" x="934.06" y="-762.2" font-family="Arial" font-size="9.00">+</text>
<text xml:space="preserve" text-anchor="start" x="954.12" y="-762.2" font-family="Arial" font-size="9.00">setLen()</text>
<polygon fill="#666666" stroke="#666666" points="919.25,-830.75 919.25,-830.75 1031.5,-830.75 1031.5,-830.75 919.25,-830.75"/>
<polygon fill="#666666" stroke="#666666" points="919.25,-816.25 919.25,-816.25 1031.5,-816.25 1031.5,-816.25 919.25,-816.25"/>
<polygon fill="none" stroke="#666666" points="919.25,-756.25 919.25,-847.25 1031.5,-847.25 1031.5,-756.25 919.25,-756.25"/>
</a>
</g>
</g>
<!-- Node14&#45;&gt;Node13 -->
<g id="edge13_Node000013_Node000014" class="edge">
<title>Node14&#45;&gt;Node13</title>
<g id="a_edge13_Node000013_Node000014"><a xlink:title=" ">
<path fill="none" stroke="#63b8ff" d="M975.38,-745.04C975.38,-687.34 975.38,-597.56 975.38,-538.76"/>
<polygon fill="none" stroke="#63b8ff" points="971.88,-744.97 975.38,-754.97 978.88,-744.97 971.88,-744.97"/>
</a>
</g>
</g>
<!-- Node15 -->
<g id="Node000015" class="node">
<title>Node15</title>
<g id="a_Node000015"><a xlink:href="../../d3/d99/a02942.html" target="_top" xlink:title=" ">
<polygon fill="white" stroke="none" points="1029.25,-996 921.5,-996 921.5,-948.5 1029.25,-948.5 1029.25,-996"/>
<text xml:space="preserve" text-anchor="start" x="925.5" y="-983.45" font-family="Arial" font-size="9.00">CAN_TxHeaderTypeDef</text>
<text xml:space="preserve" text-anchor="start" x="974.25" y="-968.95" font-family="Arial" font-size="9.00"> </text>
<text xml:space="preserve" text-anchor="start" x="974.25" y="-954.45" font-family="Arial" font-size="9.00"> </text>
<polygon fill="#bfbfbf" stroke="#bfbfbf" points="921.5,-979.5 921.5,-979.5 1029.25,-979.5 1029.25,-979.5 921.5,-979.5"/>
<polygon fill="#bfbfbf" stroke="#bfbfbf" points="921.5,-965 921.5,-965 1029.25,-965 1029.25,-965 921.5,-965"/>
<polygon fill="none" stroke="#bfbfbf" points="921.5,-948.5 921.5,-996 1029.25,-996 1029.25,-948.5 921.5,-948.5"/>
</a>
</g>
</g>
<!-- Node15&#45;&gt;Node14 -->
<g id="edge14_Node000014_Node000015" class="edge">
<title>Node15&#45;&gt;Node14</title>
<g id="a_edge14_Node000014_Node000015"><a xlink:title=" ">
<path fill="none" stroke="#63b8ff" d="M975.38,-937.03C975.38,-911.12 975.38,-875.31 975.38,-847.19"/>
<polygon fill="none" stroke="#63b8ff" points="971.88,-937.01 975.38,-947.01 978.88,-937.01 971.88,-937.01"/>
</a>
</g>
</g>
<!-- Node16 -->
<g id="Node000016" class="node">
<title>Node16</title>
<g id="a_Node000016"><a xlink:title=" ">
<polygon fill="white" stroke="none" points="1093.88,-502.75 1052.88,-502.75 1052.88,-455.25 1093.88,-455.25 1093.88,-502.75"/>
<text xml:space="preserve" text-anchor="start" x="1056.88" y="-490.2" font-family="Arial" font-size="9.00">uint32_t</text>
<text xml:space="preserve" text-anchor="start" x="1072.25" y="-475.7" font-family="Arial" font-size="9.00"> </text>
<text xml:space="preserve" text-anchor="start" x="1072.25" y="-461.2" font-family="Arial" font-size="9.00"> </text>
<polygon fill="#bfbfbf" stroke="#bfbfbf" points="1052.88,-486.25 1052.88,-486.25 1093.88,-486.25 1093.88,-486.25 1052.88,-486.25"/>
<polygon fill="#bfbfbf" stroke="#bfbfbf" points="1052.88,-471.75 1052.88,-471.75 1093.88,-471.75 1093.88,-471.75 1052.88,-471.75"/>
<polygon fill="none" stroke="#bfbfbf" points="1052.88,-455.25 1052.88,-502.75 1093.88,-502.75 1093.88,-455.25 1052.88,-455.25"/>
</a>
</g>
</g>
<!-- Node16&#45;&gt;Node1 -->
<g id="edge15_Node000001_Node000016" class="edge">
<title>Node16&#45;&gt;Node1</title>
<g id="a_edge15_Node000001_Node000016"><a xlink:title=" ">
<path fill="none" stroke="#63b8ff" d="M1075.13,-455.52C1076.76,-420.11 1075.32,-350.47 1044.38,-303 960.75,-174.72 772.77,-132.4 664.78,-118.5"/>
<polygon fill="none" stroke="#63b8ff" points="664.82,-118.5 658.38,-121.75 652.91,-117.05 659.35,-113.81 664.82,-118.5"/>
</a>
</g>
<text xml:space="preserve" text-anchor="start" x="1031.85" y="-258.95" font-family="Arial" font-size="9.00" fill="grey">#txMailbox</text>
</g>
</g>
</svg>
