<?xml version="1.0" encoding="UTF-8" standalone="no"?>
<!DOCTYPE svg PUBLIC "-//W3C//DTD SVG 1.1//EN"
 "http://www.w3.org/Graphics/SVG/1.1/DTD/svg11.dtd">
<!-- Generated by graphviz version 12.2.1 (20241206.2353)
 -->
<!-- Title: Lib::Digi::API::NodeInfo::NetworkInfo Pages: 1 -->
<svg width="120pt" height="88pt"
 viewBox="0.00 0.00 120.25 88.00" xmlns="http://www.w3.org/2000/svg" xmlns:xlink="http://www.w3.org/1999/xlink">
<g id="graph0" class="graph" transform="scale(1 1) rotate(0) translate(4 84)">
<title>Lib::Digi::API::NodeInfo::NetworkInfo</title>
<!-- Node1 -->
<g id="Node000001" class="node">
<title>Node1</title>
<g id="a_Node000001"><a xlink:title="Represents network information.">
<polygon fill="#999999" stroke="none" points="112.25,-80 0,-80 0,0 112.25,0 112.25,-80"/>
<text text-anchor="start" x="4" y="-66.5" font-family="Helvetica,sans-Serif" font-size="10.00">Lib::Digi::API::NodeInfo</text>
<text text-anchor="start" x="26.5" y="-54.5" font-family="Helvetica,sans-Serif" font-size="10.00">::NetworkInfo</text>
<text text-anchor="start" x="9.94" y="-38.5" font-family="Helvetica,sans-Serif" font-size="10.00">+</text>
<text text-anchor="start" x="25.88" y="-38.5" font-family="Helvetica,sans-Serif" font-size="10.00">networkID</text>
<text text-anchor="start" x="9.94" y="-22.5" font-family="Helvetica,sans-Serif" font-size="10.00">+</text>
<text text-anchor="start" x="25.88" y="-22.5" font-family="Helvetica,sans-Serif" font-size="10.00">networkChannel</text>
<text text-anchor="start" x="54.62" y="-6.5" font-family="Helvetica,sans-Serif" font-size="10.00"> </text>
<polygon fill="#666666" stroke="#666666" points="0,-50 0,-50 112.25,-50 112.25,-50 0,-50"/>
<polygon fill="#666666" stroke="#666666" points="0,-18 0,-18 23.88,-18 23.88,-18 0,-18"/>
<polygon fill="#666666" stroke="#666666" points="23.88,-18 23.88,-18 112.25,-18 112.25,-18 23.88,-18"/>
<polygon fill="none" stroke="#666666" points="0,0 0,-80 112.25,-80 112.25,0 0,0"/>
</a>
</g>
</g>
</g>
</svg>
