<?xml version="1.0" encoding="UTF-8" standalone="no"?>
<!DOCTYPE svg PUBLIC "-//W3C//DTD SVG 1.1//EN"
 "http://www.w3.org/Graphics/SVG/1.1/DTD/svg11.dtd">
<!-- Generated by graphviz version 13.1.0 (20250701.0955)
 -->
<!-- Title: System::BuildVersion Pages: 1 -->
<svg width="102pt" height="230pt"
 viewBox="0.00 0.00 102.00 230.00" xmlns="http://www.w3.org/2000/svg" xmlns:xlink="http://www.w3.org/1999/xlink">
<g id="graph0" class="graph" transform="scale(1 1) rotate(0) translate(4 225.5)">
<title>System::BuildVersion</title>
<!-- Node1 -->
<g id="Node000001" class="node">
<title>Node1</title>
<g id="a_Node000001"><a xlink:title="Firmware build version wrapper.">
<polygon fill="#999999" stroke="none" points="94.25,-18.5 0,-18.5 0,0 94.25,0 94.25,-18.5"/>
<text xml:space="preserve" text-anchor="start" x="4" y="-5.95" font-family="Arial" font-size="9.00">System::BuildVersion</text>
<polygon fill="none" stroke="#666666" points="0,0 0,-18.5 94.25,-18.5 94.25,0 0,0"/>
</a>
</g>
</g>
<!-- Node2 -->
<g id="Node000002" class="node">
<title>Node2</title>
<g id="a_Node000002"><a xlink:href="../../d1/de6/a01867.html" target="_top" xlink:title="Firmware version type.">
<polygon fill="white" stroke="none" points="92.38,-84.5 1.88,-84.5 1.88,-55.5 92.38,-55.5 92.38,-84.5"/>
<text xml:space="preserve" text-anchor="start" x="5.88" y="-71.95" font-family="Arial" font-size="9.00">Lib::System::Version</text>
<text xml:space="preserve" text-anchor="start" x="25.75" y="-61.45" font-family="Arial" font-size="9.00">::Firmware</text>
<polygon fill="none" stroke="#666666" points="1.88,-55.5 1.88,-84.5 92.38,-84.5 92.38,-55.5 1.88,-55.5"/>
</a>
</g>
</g>
<!-- Node2&#45;&gt;Node1 -->
<g id="edge1_Node000001_Node000002" class="edge">
<title>Node2&#45;&gt;Node1</title>
<g id="a_edge1_Node000001_Node000002"><a xlink:title=" ">
<path fill="none" stroke="#63b8ff" d="M47.12,-44.46C47.12,-35.09 47.12,-25.05 47.12,-18.29"/>
<polygon fill="none" stroke="#63b8ff" points="43.63,-44.16 47.13,-54.16 50.63,-44.16 43.63,-44.16"/>
</a>
</g>
</g>
<!-- Node3 -->
<g id="Node000003" class="node">
<title>Node3</title>
<g id="a_Node000003"><a xlink:href="../../d3/dce/a01859.html" target="_top" xlink:title="Base version type.">
<polygon fill="white" stroke="none" points="92.38,-150.5 1.88,-150.5 1.88,-121.5 92.38,-121.5 92.38,-150.5"/>
<text xml:space="preserve" text-anchor="start" x="5.88" y="-137.95" font-family="Arial" font-size="9.00">Lib::System::Version</text>
<text xml:space="preserve" text-anchor="start" x="34.38" y="-127.45" font-family="Arial" font-size="9.00">::Base</text>
<polygon fill="none" stroke="#666666" points="1.88,-121.5 1.88,-150.5 92.38,-150.5 92.38,-121.5 1.88,-121.5"/>
</a>
</g>
</g>
<!-- Node3&#45;&gt;Node2 -->
<g id="edge2_Node000002_Node000003" class="edge">
<title>Node3&#45;&gt;Node2</title>
<g id="a_edge2_Node000002_Node000003"><a xlink:title=" ">
<path fill="none" stroke="#63b8ff" d="M47.12,-110.39C47.12,-101.49 47.12,-91.79 47.12,-84.24"/>
<polygon fill="none" stroke="#63b8ff" points="43.63,-110.23 47.13,-120.23 50.63,-110.23 43.63,-110.23"/>
</a>
</g>
</g>
<!-- Node4 -->
<g id="Node000004" class="node">
<title>Node4</title>
<g id="a_Node000004"><a xlink:title=" ">
<polygon fill="white" stroke="none" points="67.62,-221.5 26.62,-221.5 26.62,-203 67.62,-203 67.62,-221.5"/>
<text xml:space="preserve" text-anchor="start" x="30.62" y="-208.95" font-family="Arial" font-size="9.00">uint32_t</text>
<polygon fill="none" stroke="#bfbfbf" points="26.62,-203 26.62,-221.5 67.62,-221.5 67.62,-203 26.62,-203"/>
</a>
</g>
</g>
<!-- Node4&#45;&gt;Node3 -->
<g id="edge3_Node000003_Node000004" class="edge">
<title>Node4&#45;&gt;Node3</title>
<g id="a_edge3_Node000003_Node000004"><a xlink:title=" ">
<path fill="none" stroke="#63b8ff" d="M47.12,-203.02C47.12,-193.45 47.12,-177.17 47.12,-163.17"/>
<polygon fill="none" stroke="#63b8ff" points="47.13,-163.17 43.13,-157.17 47.13,-151.17 51.13,-157.17 47.13,-163.17"/>
</a>
</g>
<text xml:space="preserve" text-anchor="start" x="50.12" y="-173.45" font-family="Arial" font-size="9.00" fill="grey">#version</text>
</g>
</g>
</svg>
