<?xml version="1.0" encoding="UTF-8" standalone="no"?>
<!DOCTYPE svg PUBLIC "-//W3C//DTD SVG 1.1//EN"
 "http://www.w3.org/Graphics/SVG/1.1/DTD/svg11.dtd">
<!-- Generated by graphviz version 13.1.0 (20250701.0955)
 -->
<!-- Title: Lib::Xbee::API::Service::SpectrumAnalyzer Pages: 1 -->
<svg width="112pt" height="421pt"
 viewBox="0.00 0.00 112.00 421.00" xmlns="http://www.w3.org/2000/svg" xmlns:xlink="http://www.w3.org/1999/xlink">
<g id="graph0" class="graph" transform="scale(1 1) rotate(0) translate(4 417)">
<title>Lib::Xbee::API::Service::SpectrumAnalyzer</title>
<!-- Node1 -->
<g id="Node000001" class="node">
<title>Node1</title>
<g id="a_Node000001"><a xlink:title="Spectrum analyzer service for Digi Xbee modules.">
<polygon fill="#999999" stroke="none" points="103.5,-217.5 0,-217.5 0,0 103.5,0 103.5,-217.5"/>
<text xml:space="preserve" text-anchor="start" x="5.25" y="-204.95" font-family="Arial" font-size="9.00">Lib::Xbee::API::Service</text>
<text xml:space="preserve" text-anchor="start" x="12" y="-194.45" font-family="Arial" font-size="9.00">::SpectrumAnalyzer</text>
<text xml:space="preserve" text-anchor="start" x="50.62" y="-179.95" font-family="Arial" font-size="9.00"> </text>
<text xml:space="preserve" text-anchor="start" x="4" y="-165.45" font-family="Arial" font-size="9.00">+</text>
<text xml:space="preserve" text-anchor="start" x="13.25" y="-165.45" font-family="Arial" font-size="9.00">SpectrumAnalyzer()</text>
<text xml:space="preserve" text-anchor="start" x="4" y="-150.95" font-family="Arial" font-size="9.00">+</text>
<text xml:space="preserve" text-anchor="start" x="13.25" y="-150.95" font-family="Arial" font-size="9.00">~SpectrumAnalyzer()</text>
<text xml:space="preserve" text-anchor="start" x="4" y="-136.45" font-family="Arial" font-size="9.00">+</text>
<text xml:space="preserve" text-anchor="start" x="13.25" y="-136.45" font-family="Arial" font-size="9.00">open()</text>
<text xml:space="preserve" text-anchor="start" x="4" y="-121.95" font-family="Arial" font-size="9.00">+</text>
<text xml:space="preserve" text-anchor="start" x="13.25" y="-121.95" font-family="Arial" font-size="9.00">close()</text>
<text xml:space="preserve" text-anchor="start" x="4" y="-107.45" font-family="Arial" font-size="9.00">+</text>
<text xml:space="preserve" text-anchor="start" x="13.25" y="-107.45" font-family="Arial" font-size="9.00">isNewData()</text>
<text xml:space="preserve" text-anchor="start" x="4" y="-92.95" font-family="Arial" font-size="9.00">+</text>
<text xml:space="preserve" text-anchor="start" x="13.25" y="-92.95" font-family="Arial" font-size="9.00">initialize()</text>
<text xml:space="preserve" text-anchor="start" x="4" y="-78.45" font-family="Arial" font-size="9.00">+</text>
<text xml:space="preserve" text-anchor="start" x="13.25" y="-78.45" font-family="Arial" font-size="9.00">process()</text>
<text xml:space="preserve" text-anchor="start" x="4" y="-63.95" font-family="Arial" font-size="9.00">+</text>
<text xml:space="preserve" text-anchor="start" x="13.25" y="-63.95" font-family="Arial" font-size="9.00">tearDown()</text>
<text xml:space="preserve" text-anchor="start" x="4" y="-49.45" font-family="Arial" font-size="9.00">+</text>
<text xml:space="preserve" text-anchor="start" x="13.25" y="-49.45" font-family="Arial" font-size="9.00">getCurrentArray()</text>
<text xml:space="preserve" text-anchor="start" x="4" y="-34.95" font-family="Arial" font-size="9.00">+</text>
<text xml:space="preserve" text-anchor="start" x="13.25" y="-34.95" font-family="Arial" font-size="9.00">getAverageArray()</text>
<text xml:space="preserve" text-anchor="start" x="4" y="-20.45" font-family="Arial" font-size="9.00">+</text>
<text xml:space="preserve" text-anchor="start" x="13.25" y="-20.45" font-family="Arial" font-size="9.00">getMaxArray()</text>
<text xml:space="preserve" text-anchor="start" x="4" y="-5.95" font-family="Arial" font-size="9.00">+</text>
<text xml:space="preserve" text-anchor="start" x="13.25" y="-5.95" font-family="Arial" font-size="9.00">resetData()</text>
<polygon fill="#666666" stroke="#666666" points="0,-190.5 0,-190.5 103.5,-190.5 103.5,-190.5 0,-190.5"/>
<polygon fill="#666666" stroke="#666666" points="0,-176 0,-176 103.5,-176 103.5,-176 0,-176"/>
<polygon fill="none" stroke="#666666" points="0,0 0,-217.5 103.5,-217.5 103.5,0 0,0"/>
</a>
</g>
</g>
<!-- Node2 -->
<g id="Node000002" class="node">
<title>Node2</title>
<g id="a_Node000002"><a xlink:href="../../dc/ddb/a02034.html" target="_top" xlink:title="ServiceBase class.">
<polygon fill="white" stroke="none" points="102.25,-413 1.25,-413 1.25,-253.5 102.25,-253.5 102.25,-413"/>
<text xml:space="preserve" text-anchor="start" x="5.25" y="-400.45" font-family="Arial" font-size="9.00">Lib::Xbee::API::Service</text>
<text xml:space="preserve" text-anchor="start" x="23.62" y="-389.95" font-family="Arial" font-size="9.00">::ServiceBase</text>
<text xml:space="preserve" text-anchor="start" x="50.62" y="-375.45" font-family="Arial" font-size="9.00"> </text>
<text xml:space="preserve" text-anchor="start" x="10.44" y="-360.95" font-family="Arial" font-size="9.00">+</text>
<text xml:space="preserve" text-anchor="start" x="24.88" y="-360.95" font-family="Arial" font-size="9.00">ServiceBase()</text>
<text xml:space="preserve" text-anchor="start" x="10.44" y="-346.45" font-family="Arial" font-size="9.00">+</text>
<text xml:space="preserve" text-anchor="start" x="24.88" y="-346.45" font-family="Arial" font-size="9.00">~ServiceBase()</text>
<text xml:space="preserve" text-anchor="start" x="10.44" y="-331.95" font-family="Arial" font-size="9.00">+</text>
<text xml:space="preserve" text-anchor="start" x="24.88" y="-331.95" font-family="Arial" font-size="9.00">open()</text>
<text xml:space="preserve" text-anchor="start" x="10.44" y="-317.45" font-family="Arial" font-size="9.00">+</text>
<text xml:space="preserve" text-anchor="start" x="24.88" y="-317.45" font-family="Arial" font-size="9.00">close()</text>
<text xml:space="preserve" text-anchor="start" x="10.44" y="-302.95" font-family="Arial" font-size="9.00">+</text>
<text xml:space="preserve" text-anchor="start" x="24.88" y="-302.95" font-family="Arial" font-size="9.00">isRunning()</text>
<text xml:space="preserve" text-anchor="start" x="10.44" y="-288.45" font-family="Arial" font-size="9.00">#</text>
<text xml:space="preserve" text-anchor="start" x="24.88" y="-288.45" font-family="Arial" font-size="9.00">initialize()</text>
<text xml:space="preserve" text-anchor="start" x="10.44" y="-273.95" font-family="Arial" font-size="9.00">#</text>
<text xml:space="preserve" text-anchor="start" x="24.88" y="-273.95" font-family="Arial" font-size="9.00">process()</text>
<text xml:space="preserve" text-anchor="start" x="10.44" y="-259.45" font-family="Arial" font-size="9.00">#</text>
<text xml:space="preserve" text-anchor="start" x="24.88" y="-259.45" font-family="Arial" font-size="9.00">tearDown()</text>
<polygon fill="#666666" stroke="#666666" points="1.25,-386 1.25,-386 102.25,-386 102.25,-386 1.25,-386"/>
<polygon fill="#666666" stroke="#666666" points="1.25,-371.5 1.25,-371.5 102.25,-371.5 102.25,-371.5 1.25,-371.5"/>
<polygon fill="none" stroke="#666666" points="1.25,-253.5 1.25,-413 102.25,-413 102.25,-253.5 1.25,-253.5"/>
</a>
</g>
</g>
<!-- Node2&#45;&gt;Node1 -->
<g id="edge1_Node000001_Node000002" class="edge">
<title>Node2&#45;&gt;Node1</title>
<g id="a_edge1_Node000001_Node000002"><a xlink:title=" ">
<path fill="none" stroke="#63b8ff" d="M51.75,-242.52C51.75,-234.15 51.75,-225.62 51.75,-217.11"/>
<polygon fill="none" stroke="#63b8ff" points="48.25,-242.29 51.75,-252.29 55.25,-242.29 48.25,-242.29"/>
</a>
</g>
</g>
</g>
</svg>
