<?xml version="1.0" encoding="UTF-8" standalone="no"?>
<!DOCTYPE svg PUBLIC "-//W3C//DTD SVG 1.1//EN"
 "http://www.w3.org/Graphics/SVG/1.1/DTD/svg11.dtd">
<!-- Generated by graphviz version 13.1.0 (20250701.0955)
 -->
<!-- Title: Lib::Xbee::API::Service::NetworkDiscovery::Node::Node Pages: 1 -->
<svg width="342pt" height="199pt"
 viewBox="0.00 0.00 342.00 199.00" xmlns="http://www.w3.org/2000/svg" xmlns:xlink="http://www.w3.org/1999/xlink">
<g id="graph0" class="graph" transform="scale(1 1) rotate(0) translate(4 195.25)">
<title>Lib::Xbee::API::Service::NetworkDiscovery::Node::Node</title>
<!-- Node1 -->
<g id="Node000001" class="node">
<title>Node1</title>
<g id="a_Node000001"><a xlink:title="Constructor of the Node class.">
<polygon fill="#999999" stroke="#666666" points="333.5,-118.25 184.75,-118.25 184.75,-89.25 333.5,-89.25 333.5,-118.25"/>
<text xml:space="preserve" text-anchor="start" x="192.75" y="-105.7" font-family="Arial" font-size="9.00">Lib::Xbee::API::Service</text>
<text xml:space="preserve" text-anchor="middle" x="259.12" y="-95.2" font-family="Arial" font-size="9.00">::NetworkDiscovery::Node::Node</text>
</a>
</g>
</g>
<!-- Node2 -->
<g id="Node000002" class="node">
<title>Node2</title>
<g id="a_Node000002"><a xlink:href="../../df/dc8/class_lib_1_1_xbee_1_1_a_p_i_1_1_service_1_1_network_discovery_1_1_node.html#a3875fd8760506b735e37030a0ef99fcf" target="_top" xlink:title="Copy constructor of the Node class.">
<polygon fill="white" stroke="#666666" points="148.75,-191.25 0,-191.25 0,-162.25 148.75,-162.25 148.75,-191.25"/>
<text xml:space="preserve" text-anchor="start" x="8" y="-178.7" font-family="Arial" font-size="9.00">Lib::Xbee::API::Service</text>
<text xml:space="preserve" text-anchor="middle" x="74.38" y="-168.2" font-family="Arial" font-size="9.00">::NetworkDiscovery::Node::Node</text>
</a>
</g>
</g>
<!-- Node1&#45;&gt;Node2 -->
<g id="edge1_Node000001_Node000002" class="edge">
<title>Node1&#45;&gt;Node2</title>
<g id="a_edge1_Node000001_Node000002"><a xlink:title=" ">
<path fill="none" stroke="#63b8ff" d="M218.16,-123.48C197.67,-133.22 172.16,-144.77 148.75,-153.75 141.4,-156.57 133.53,-159.31 125.79,-161.86"/>
<polygon fill="#63b8ff" stroke="#63b8ff" points="219.51,-126.71 227.02,-119.23 216.49,-120.4 219.51,-126.71"/>
</a>
</g>
</g>
<!-- Node3 -->
<g id="Node000003" class="node">
<title>Node3</title>
<g id="a_Node000003"><a xlink:href="../../df/dc8/class_lib_1_1_xbee_1_1_a_p_i_1_1_service_1_1_network_discovery_1_1_node.html#acf4531aedd8bd239f04222a94f606561" target="_top" xlink:title="Move constructor of the Node class.">
<polygon fill="white" stroke="#666666" points="148.75,-144.25 0,-144.25 0,-115.25 148.75,-115.25 148.75,-144.25"/>
<text xml:space="preserve" text-anchor="start" x="8" y="-131.7" font-family="Arial" font-size="9.00">Lib::Xbee::API::Service</text>
<text xml:space="preserve" text-anchor="middle" x="74.38" y="-121.2" font-family="Arial" font-size="9.00">::NetworkDiscovery::Node::Node</text>
</a>
</g>
</g>
<!-- Node1&#45;&gt;Node3 -->
<g id="edge2_Node000001_Node000003" class="edge">
<title>Node1&#45;&gt;Node3</title>
<g id="a_edge2_Node000001_Node000003"><a xlink:title=" ">
<path fill="none" stroke="#63b8ff" d="M173.09,-115.85C165.09,-116.99 157.04,-118.13 149.16,-119.25"/>
<polygon fill="#63b8ff" stroke="#63b8ff" points="173.41,-119.34 182.82,-114.46 172.43,-112.41 173.41,-119.34"/>
</a>
</g>
</g>
<!-- Node4 -->
<g id="Node000004" class="node">
<title>Node4</title>
<g id="a_Node000004"><a xlink:href="../../df/dc8/class_lib_1_1_xbee_1_1_a_p_i_1_1_service_1_1_network_discovery_1_1_node.html#a46d7b2fe21b2a9361b2a5d9ab6d5113b" target="_top" xlink:title="Copy assignment operator of the Node class.">
<polygon fill="white" stroke="#666666" points="135.25,-97.5 13.5,-97.5 13.5,-58 135.25,-58 135.25,-97.5"/>
<text xml:space="preserve" text-anchor="start" x="21.5" y="-84.95" font-family="Arial" font-size="9.00">Lib::Xbee::API::Service</text>
<text xml:space="preserve" text-anchor="start" x="21.5" y="-74.45" font-family="Arial" font-size="9.00">::NetworkDiscovery::Node</text>
<text xml:space="preserve" text-anchor="middle" x="74.38" y="-63.95" font-family="Arial" font-size="9.00">::operator=</text>
</a>
</g>
</g>
<!-- Node1&#45;&gt;Node4 -->
<g id="edge3_Node000001_Node000004" class="edge">
<title>Node1&#45;&gt;Node4</title>
<g id="a_edge3_Node000001_Node000004"><a xlink:title=" ">
<path fill="none" stroke="#63b8ff" d="M173.25,-91.68C160.58,-89.87 147.74,-88.05 135.72,-86.34"/>
<polygon fill="#63b8ff" stroke="#63b8ff" points="172.43,-95.09 182.82,-93.04 173.41,-88.16 172.43,-95.09"/>
</a>
</g>
</g>
<!-- Node5 -->
<g id="Node000005" class="node">
<title>Node5</title>
<g id="a_Node000005"><a xlink:href="../../df/dc8/class_lib_1_1_xbee_1_1_a_p_i_1_1_service_1_1_network_discovery_1_1_node.html#a5fdab65b6bf418586d20767c7efb386e" target="_top" xlink:title="Move assignment operator of the Node class.">
<polygon fill="white" stroke="#666666" points="135.25,-39.5 13.5,-39.5 13.5,0 135.25,0 135.25,-39.5"/>
<text xml:space="preserve" text-anchor="start" x="21.5" y="-26.95" font-family="Arial" font-size="9.00">Lib::Xbee::API::Service</text>
<text xml:space="preserve" text-anchor="start" x="21.5" y="-16.45" font-family="Arial" font-size="9.00">::NetworkDiscovery::Node</text>
<text xml:space="preserve" text-anchor="middle" x="74.38" y="-5.95" font-family="Arial" font-size="9.00">::operator=</text>
</a>
</g>
</g>
<!-- Node1&#45;&gt;Node5 -->
<g id="edge4_Node000001_Node000005" class="edge">
<title>Node1&#45;&gt;Node5</title>
<g id="a_edge4_Node000001_Node000005"><a xlink:title=" ">
<path fill="none" stroke="#63b8ff" d="M220.08,-83.57C199.23,-72.77 172.81,-59.53 148.75,-48.75 142.12,-45.78 135.1,-42.8 128.12,-39.94"/>
<polygon fill="#63b8ff" stroke="#63b8ff" points="218.3,-86.59 228.79,-88.1 221.54,-80.38 218.3,-86.59"/>
</a>
</g>
</g>
</g>
</svg>
