<?xml version="1.0" encoding="UTF-8" standalone="no"?>
<!DOCTYPE svg PUBLIC "-//W3C//DTD SVG 1.1//EN"
 "http://www.w3.org/Graphics/SVG/1.1/DTD/svg11.dtd">
<!-- Generated by graphviz version 13.1.0 (20250701.0955)
 -->
<!-- Title: Lib::HAL::TIM::Base::DeviceManager Pages: 1 -->
<svg width="152pt" height="176pt"
 viewBox="0.00 0.00 152.00 176.00" xmlns="http://www.w3.org/2000/svg" xmlns:xlink="http://www.w3.org/1999/xlink">
<g id="graph0" class="graph" transform="scale(1 1) rotate(0) translate(4 172)">
<title>Lib::HAL::TIM::Base::DeviceManager</title>
<!-- Node1 -->
<g id="Node000001" class="node">
<title>Node1</title>
<g id="a_Node000001"><a xlink:title="Device manager for TIM peripherals.">
<polygon fill="#999999" stroke="none" points="120.88,-32 22.88,-32 22.88,0 120.88,0 120.88,-32"/>
<text xml:space="preserve" text-anchor="start" x="26.88" y="-18.5" font-family="Helvetica,sans-Serif" font-size="10.00">Lib::HAL::TIM::Base</text>
<text xml:space="preserve" text-anchor="start" x="34.75" y="-6.5" font-family="Helvetica,sans-Serif" font-size="10.00">::DeviceManager</text>
<polygon fill="none" stroke="#666666" points="22.88,0 22.88,-32 120.88,-32 120.88,0 22.88,0"/>
</a>
</g>
</g>
<!-- Node2 -->
<g id="Node000002" class="node">
<title>Node2</title>
<g id="a_Node000002"><a xlink:href="../../d5/d35/class_lib_1_1_h_a_l_1_1_device_manager_base.html" target="_top" xlink:title=" ">
<polygon fill="white" stroke="none" points="143.75,-100 0,-100 0,-68 143.75,-68 143.75,-100"/>
<text xml:space="preserve" text-anchor="start" x="4" y="-86.5" font-family="Helvetica,sans-Serif" font-size="10.00">Lib::HAL::DeviceManagerBase</text>
<text xml:space="preserve" text-anchor="start" x="4" y="-74.5" font-family="Helvetica,sans-Serif" font-size="10.00">&lt; Base, TIM_HandleTypeDef &gt;</text>
<polygon fill="none" stroke="#666666" points="0,-68 0,-100 143.75,-100 143.75,-68 0,-68"/>
</a>
</g>
</g>
<!-- Node2&#45;&gt;Node1 -->
<g id="edge1_Node000001_Node000002" class="edge">
<title>Node2&#45;&gt;Node1</title>
<g id="a_edge1_Node000001_Node000002"><a xlink:title=" ">
<path fill="none" stroke="#63b8ff" d="M71.88,-56.75C71.88,-48.3 71.88,-39.25 71.88,-31.92"/>
<polygon fill="none" stroke="#63b8ff" points="68.38,-56.51 71.88,-66.51 75.38,-56.51 68.38,-56.51"/>
</a>
</g>
</g>
<!-- Node3 -->
<g id="Node000003" class="node">
<title>Node3</title>
<g id="a_Node000003"><a xlink:href="../../d9/d33/class_lib_1_1_helper_1_1_container.html" target="_top" xlink:title=" ">
<polygon fill="white" stroke="none" points="123.5,-168 20.25,-168 20.25,-136 123.5,-136 123.5,-168"/>
<text xml:space="preserve" text-anchor="start" x="24.25" y="-154.5" font-family="Helvetica,sans-Serif" font-size="10.00">Lib::Helper::Container</text>
<text xml:space="preserve" text-anchor="start" x="51.62" y="-142.5" font-family="Helvetica,sans-Serif" font-size="10.00">&lt; Base &gt;</text>
<polygon fill="none" stroke="#666666" points="20.25,-136 20.25,-168 123.5,-168 123.5,-136 20.25,-136"/>
</a>
</g>
</g>
<!-- Node3&#45;&gt;Node2 -->
<g id="edge2_Node000002_Node000003" class="edge">
<title>Node3&#45;&gt;Node2</title>
<g id="a_edge2_Node000002_Node000003"><a xlink:title=" ">
<path fill="none" stroke="darkgreen" d="M71.88,-124.75C71.88,-116.3 71.88,-107.25 71.88,-99.92"/>
<polygon fill="none" stroke="darkgreen" points="68.38,-124.51 71.88,-134.51 75.38,-124.51 68.38,-124.51"/>
</a>
</g>
</g>
</g>
</svg>
