<?xml version="1.0" encoding="UTF-8" standalone="no"?>
<!DOCTYPE svg PUBLIC "-//W3C//DTD SVG 1.1//EN"
 "http://www.w3.org/Graphics/SVG/1.1/DTD/svg11.dtd">
<!-- Generated by graphviz version 13.1.0 (20250701.0955)
 -->
<!-- Title: Client.hpp Pages: 1 -->
<svg width="736pt" height="140pt"
 viewBox="0.00 0.00 736.00 140.00" xmlns="http://www.w3.org/2000/svg" xmlns:xlink="http://www.w3.org/1999/xlink">
<g id="graph0" class="graph" transform="scale(1 1) rotate(0) translate(4 136)">
<title>Client.hpp</title>
<!-- Node1 -->
<g id="Node000001" class="node">
<title>Node1</title>
<g id="a_Node000001"><a xlink:title="Wiznet TCP client base class for Ethernet communication.">
<polygon fill="#999999" stroke="#666666" points="452.25,-132 392,-132 392,-112 452.25,-112 452.25,-132"/>
<text xml:space="preserve" text-anchor="middle" x="422.12" y="-118.5" font-family="Helvetica,sans-Serif" font-size="10.00">Client.hpp</text>
</a>
</g>
</g>
<!-- Node2 -->
<g id="Node000002" class="node">
<title>Node2</title>
<g id="a_Node000002"><a xlink:title=" ">
<polygon fill="#e0e0e0" stroke="#999999" points="144.25,-76 0,-76 0,-56 144.25,-56 144.25,-76"/>
<text xml:space="preserve" text-anchor="middle" x="72.12" y="-62.5" font-family="Helvetica,sans-Serif" font-size="10.00">Ethernet/Wiznet/Sockets.hpp</text>
</a>
</g>
</g>
<!-- Node1&#45;&gt;Node2 -->
<g id="edge1_Node000001_Node000002" class="edge">
<title>Node1&#45;&gt;Node2</title>
<g id="a_edge1_Node000001_Node000002"><a xlink:title=" ">
<path fill="none" stroke="#63b8ff" d="M391.68,-116.3C336.99,-107.86 220.74,-89.93 144.56,-78.18"/>
<polygon fill="#63b8ff" stroke="#63b8ff" points="145.54,-74.79 135.12,-76.72 144.47,-81.7 145.54,-74.79"/>
</a>
</g>
</g>
<!-- Node3 -->
<g id="Node000003" class="node">
<title>Node3</title>
<g id="a_Node000003"><a xlink:title=" ">
<polygon fill="#e0e0e0" stroke="#999999" points="334.12,-76 162.12,-76 162.12,-56 334.12,-56 334.12,-76"/>
<text xml:space="preserve" text-anchor="middle" x="248.12" y="-62.5" font-family="Helvetica,sans-Serif" font-size="10.00">Ethernet/Common/MacAddress.hpp</text>
</a>
</g>
</g>
<!-- Node1&#45;&gt;Node3 -->
<g id="edge2_Node000001_Node000003" class="edge">
<title>Node1&#45;&gt;Node3</title>
<g id="a_edge2_Node000001_Node000003"><a xlink:title=" ">
<path fill="none" stroke="#63b8ff" d="M391.82,-111.59C363.42,-102.78 320.76,-89.54 289.29,-79.78"/>
<polygon fill="#63b8ff" stroke="#63b8ff" points="290.7,-76.55 280.12,-76.93 288.63,-83.23 290.7,-76.55"/>
</a>
</g>
</g>
<!-- Node4 -->
<g id="Node000004" class="node">
<title>Node4</title>
<g id="a_Node000004"><a xlink:title=" ">
<polygon fill="#e0e0e0" stroke="#999999" points="492.38,-76 351.88,-76 351.88,-56 492.38,-56 492.38,-76"/>
<text xml:space="preserve" text-anchor="middle" x="422.12" y="-62.5" font-family="Helvetica,sans-Serif" font-size="10.00">Ethernet/Common/Node.hpp</text>
</a>
</g>
</g>
<!-- Node1&#45;&gt;Node4 -->
<g id="edge3_Node000001_Node000004" class="edge">
<title>Node1&#45;&gt;Node4</title>
<g id="a_edge3_Node000001_Node000004"><a xlink:title=" ">
<path fill="none" stroke="#63b8ff" d="M422.12,-111.59C422.12,-105.01 422.12,-95.96 422.12,-87.73"/>
<polygon fill="#63b8ff" stroke="#63b8ff" points="425.63,-87.81 422.13,-77.81 418.63,-87.81 425.63,-87.81"/>
</a>
</g>
</g>
<!-- Node5 -->
<g id="Node000005" class="node">
<title>Node5</title>
<g id="a_Node000005"><a xlink:title=" ">
<polygon fill="#e0e0e0" stroke="#999999" points="591.75,-76 510.5,-76 510.5,-56 591.75,-56 591.75,-76"/>
<text xml:space="preserve" text-anchor="middle" x="551.12" y="-62.5" font-family="Helvetica,sans-Serif" font-size="10.00">FreeRTOS.hpp</text>
</a>
</g>
</g>
<!-- Node1&#45;&gt;Node5 -->
<g id="edge4_Node000001_Node000005" class="edge">
<title>Node1&#45;&gt;Node5</title>
<g id="a_edge4_Node000001_Node000005"><a xlink:title=" ">
<path fill="none" stroke="#63b8ff" d="M444.6,-111.59C464.91,-103.09 495.08,-90.46 518.13,-80.81"/>
<polygon fill="#63b8ff" stroke="#63b8ff" points="519.21,-84.15 527.08,-77.06 516.51,-77.7 519.21,-84.15"/>
</a>
</g>
</g>
<!-- Node6 -->
<g id="Node000006" class="node">
<title>Node6</title>
<g id="a_Node000006"><a xlink:href="../../d8/d5b/_data_handle_8hpp.html" target="_top" xlink:title="DataHandle utility for generic, type&#45;safe memory buffer management.">
<polygon fill="white" stroke="#666666" points="728.12,-76 610.12,-76 610.12,-56 728.12,-56 728.12,-76"/>
<text xml:space="preserve" text-anchor="middle" x="669.12" y="-62.5" font-family="Helvetica,sans-Serif" font-size="10.00">Helper/DataHandle.hpp</text>
</a>
</g>
</g>
<!-- Node1&#45;&gt;Node6 -->
<g id="edge5_Node000001_Node000006" class="edge">
<title>Node1&#45;&gt;Node6</title>
<g id="a_edge5_Node000001_Node000006"><a xlink:title=" ">
<path fill="none" stroke="#63b8ff" d="M452.41,-114.38C492.69,-105.57 564.58,-89.86 614.46,-78.95"/>
<polygon fill="#63b8ff" stroke="#63b8ff" points="615.19,-82.37 624.22,-76.82 613.7,-75.53 615.19,-82.37"/>
</a>
</g>
</g>
<!-- Node7 -->
<g id="Node000007" class="node">
<title>Node7</title>
<g id="a_Node000007"><a xlink:title=" ">
<polygon fill="#e0e0e0" stroke="#999999" points="660.25,-20 612,-20 612,0 660.25,0 660.25,-20"/>
<text xml:space="preserve" text-anchor="middle" x="636.12" y="-6.5" font-family="Helvetica,sans-Serif" font-size="10.00">cstddef</text>
</a>
</g>
</g>
<!-- Node6&#45;&gt;Node7 -->
<g id="edge6_Node000006_Node000007" class="edge">
<title>Node6&#45;&gt;Node7</title>
<g id="a_edge6_Node000006_Node000007"><a xlink:title=" ">
<path fill="none" stroke="#63b8ff" d="M663.38,-55.59C659.07,-48.55 653.03,-38.67 647.74,-30"/>
<polygon fill="#63b8ff" stroke="#63b8ff" points="650.8,-28.3 642.6,-21.59 644.82,-31.95 650.8,-28.3"/>
</a>
</g>
</g>
<!-- Node8 -->
<g id="Node000008" class="node">
<title>Node8</title>
<g id="a_Node000008"><a xlink:title=" ">
<polygon fill="#e0e0e0" stroke="#999999" points="723.75,-20 678.5,-20 678.5,0 723.75,0 723.75,-20"/>
<text xml:space="preserve" text-anchor="middle" x="701.12" y="-6.5" font-family="Helvetica,sans-Serif" font-size="10.00">cstdint</text>
</a>
</g>
</g>
<!-- Node6&#45;&gt;Node8 -->
<g id="edge7_Node000006_Node000008" class="edge">
<title>Node6&#45;&gt;Node8</title>
<g id="a_edge7_Node000006_Node000008"><a xlink:title=" ">
<path fill="none" stroke="#63b8ff" d="M674.7,-55.59C678.87,-48.55 684.73,-38.67 689.87,-30"/>
<polygon fill="#63b8ff" stroke="#63b8ff" points="692.76,-31.99 694.84,-21.6 686.73,-28.42 692.76,-31.99"/>
</a>
</g>
</g>
</g>
</svg>
