<?xml version="1.0" encoding="UTF-8" standalone="no"?>
<!DOCTYPE svg PUBLIC "-//W3C//DTD SVG 1.1//EN"
 "http://www.w3.org/Graphics/SVG/1.1/DTD/svg11.dtd">
<!-- Generated by graphviz version 13.1.0 (20250701.0955)
 -->
<!-- Title: Lib::HAL::CAN::PortBase::getHandle Pages: 1 -->
<svg width="459pt" height="262pt"
 viewBox="0.00 0.00 459.00 262.00" xmlns="http://www.w3.org/2000/svg" xmlns:xlink="http://www.w3.org/1999/xlink">
<g id="graph0" class="graph" transform="scale(1 1) rotate(0) translate(4 257.75)">
<title>Lib::HAL::CAN::PortBase::getHandle</title>
<!-- Node1 -->
<g id="Node000001" class="node">
<title>Node1</title>
<g id="a_Node000001"><a xlink:title="Gets the underlying CAN handle.">
<polygon fill="#999999" stroke="#666666" points="450.75,-146 333.5,-146 333.5,-117 450.75,-117 450.75,-146"/>
<text xml:space="preserve" text-anchor="start" x="341.5" y="-133.45" font-family="Arial" font-size="9.00">Lib::HAL::CAN::PortBase</text>
<text xml:space="preserve" text-anchor="middle" x="392.12" y="-122.95" font-family="Arial" font-size="9.00">::getHandle</text>
</a>
</g>
</g>
<!-- Node2 -->
<g id="Node000002" class="node">
<title>Node2</title>
<g id="a_Node000002"><a xlink:href="../../d8/d90/class_lib_1_1_h_a_l_1_1_c_a_n_1_1_device_manager.html#abe3b95c363bdad23d16f46b70907fe0e" target="_top" xlink:title="Registers a CAN port device and all supported HAL callbacks.">
<polygon fill="white" stroke="#666666" points="297.5,-253.75 132.25,-253.75 132.25,-235.25 297.5,-235.25 297.5,-253.75"/>
<text xml:space="preserve" text-anchor="middle" x="214.88" y="-241.2" font-family="Arial" font-size="9.00">Lib::HAL::CAN::DeviceManager::add</text>
</a>
</g>
</g>
<!-- Node1&#45;&gt;Node2 -->
<g id="edge1_Node000001_Node000002" class="edge">
<title>Node1&#45;&gt;Node2</title>
<g id="a_edge1_Node000001_Node000002"><a xlink:title=" ">
<path fill="none" stroke="#63b8ff" d="M374.16,-155.33C357.25,-177.25 329.28,-208.94 297.5,-226.5 291.4,-229.87 284.72,-232.61 277.89,-234.83"/>
<polygon fill="#63b8ff" stroke="#63b8ff" points="376.81,-157.63 380.01,-147.53 371.21,-153.43 376.81,-157.63"/>
</a>
</g>
</g>
<!-- Node4 -->
<g id="Node000004" class="node">
<title>Node4</title>
<g id="a_Node000004"><a xlink:href="../../d8/dc1/class_lib_1_1_h_a_l_1_1_c_a_n_1_1_port_base.html#a919f3b741425e910ec0eae40ad28d069" target="_top" xlink:title="Closes the CAN port, releases resources, and stops CAN peripheral.">
<polygon fill="white" stroke="#666666" points="273.5,-76 156.25,-76 156.25,-47 273.5,-47 273.5,-76"/>
<text xml:space="preserve" text-anchor="start" x="164.25" y="-63.45" font-family="Arial" font-size="9.00">Lib::HAL::CAN::PortBase</text>
<text xml:space="preserve" text-anchor="middle" x="214.88" y="-52.95" font-family="Arial" font-size="9.00">::close</text>
</a>
</g>
</g>
<!-- Node1&#45;&gt;Node4 -->
<g id="edge3_Node000001_Node000004" class="edge">
<title>Node1&#45;&gt;Node4</title>
<g id="a_edge3_Node000001_Node000004"><a xlink:title=" ">
<path fill="none" stroke="#63b8ff" d="M353.8,-111.34C336.91,-102.69 316.51,-92.9 297.5,-85.5 289.1,-82.23 280.07,-79.16 271.19,-76.37"/>
<polygon fill="#63b8ff" stroke="#63b8ff" points="351.99,-114.34 362.48,-115.85 355.22,-108.13 351.99,-114.34"/>
</a>
</g>
</g>
<!-- Node6 -->
<g id="Node000006" class="node">
<title>Node6</title>
<g id="a_Node000006"><a xlink:href="../../d8/dc1/class_lib_1_1_h_a_l_1_1_c_a_n_1_1_port_base.html#ad4dff5ab4f98bc31f3581b5539f33000" target="_top" xlink:title="Emits a CAN callback based on the specified callback ID.">
<polygon fill="white" stroke="#666666" points="273.5,-170 156.25,-170 156.25,-141 273.5,-141 273.5,-170"/>
<text xml:space="preserve" text-anchor="start" x="164.25" y="-157.45" font-family="Arial" font-size="9.00">Lib::HAL::CAN::PortBase</text>
<text xml:space="preserve" text-anchor="middle" x="214.88" y="-146.95" font-family="Arial" font-size="9.00">::emitCallback</text>
</a>
</g>
</g>
<!-- Node1&#45;&gt;Node6 -->
<g id="edge5_Node000001_Node000006" class="edge">
<title>Node1&#45;&gt;Node6</title>
<g id="a_edge5_Node000001_Node000006"><a xlink:title=" ">
<path fill="none" stroke="#63b8ff" d="M321.89,-140.98C306.02,-143.15 289.32,-145.44 273.98,-147.54"/>
<polygon fill="#63b8ff" stroke="#63b8ff" points="322.32,-144.45 331.76,-139.63 321.37,-137.52 322.32,-144.45"/>
</a>
</g>
</g>
<!-- Node7 -->
<g id="Node000007" class="node">
<title>Node7</title>
<g id="a_Node000007"><a xlink:href="../../d8/dc1/class_lib_1_1_h_a_l_1_1_c_a_n_1_1_port_base.html#a6bfd55adb2bd2d2fe9857dd24d2d79f2" target="_top" xlink:title="Opens the CAN port, initializes queues, semaphores, and starts CAN peripheral.">
<polygon fill="white" stroke="#666666" points="273.5,-217 156.25,-217 156.25,-188 273.5,-188 273.5,-217"/>
<text xml:space="preserve" text-anchor="start" x="164.25" y="-204.45" font-family="Arial" font-size="9.00">Lib::HAL::CAN::PortBase</text>
<text xml:space="preserve" text-anchor="middle" x="214.88" y="-193.95" font-family="Arial" font-size="9.00">::open</text>
</a>
</g>
</g>
<!-- Node1&#45;&gt;Node7 -->
<g id="edge6_Node000001_Node000007" class="edge">
<title>Node1&#45;&gt;Node7</title>
<g id="a_edge6_Node000001_Node000007"><a xlink:title=" ">
<path fill="none" stroke="#63b8ff" d="M355.9,-151.67C338.67,-160.99 317.4,-171.69 297.5,-179.5 289.96,-182.46 281.9,-185.21 273.88,-187.7"/>
<polygon fill="#63b8ff" stroke="#63b8ff" points="357.13,-154.99 364.21,-147.11 353.76,-148.85 357.13,-154.99"/>
</a>
</g>
</g>
<!-- Node8 -->
<g id="Node000008" class="node">
<title>Node8</title>
<g id="a_Node000008"><a xlink:href="../../d8/d90/class_lib_1_1_h_a_l_1_1_c_a_n_1_1_device_manager.html#aa2151310d7bd9d140fb53e18b5c83274" target="_top" xlink:title="Unregisters a CAN port device and all supported HAL callbacks.">
<polygon fill="white" stroke="#666666" points="287.38,-123 142.38,-123 142.38,-94 287.38,-94 287.38,-123"/>
<text xml:space="preserve" text-anchor="start" x="150.38" y="-110.45" font-family="Arial" font-size="9.00">Lib::HAL::CAN::DeviceManager</text>
<text xml:space="preserve" text-anchor="middle" x="214.88" y="-99.95" font-family="Arial" font-size="9.00">::remove</text>
</a>
</g>
</g>
<!-- Node1&#45;&gt;Node8 -->
<g id="edge8_Node000001_Node000008" class="edge">
<title>Node1&#45;&gt;Node8</title>
<g id="a_edge8_Node000001_Node000008"><a xlink:title=" ">
<path fill="none" stroke="#63b8ff" d="M322.14,-122.45C310.84,-120.96 299.11,-119.42 287.75,-117.93"/>
<polygon fill="#63b8ff" stroke="#63b8ff" points="321.38,-125.88 331.76,-123.71 322.3,-118.94 321.38,-125.88"/>
</a>
</g>
</g>
<!-- Node9 -->
<g id="Node000009" class="node">
<title>Node9</title>
<g id="a_Node000009"><a xlink:href="../../d8/dc1/class_lib_1_1_h_a_l_1_1_c_a_n_1_1_port_base.html#a14d7f125e79116cc3dd489283d7445b7" target="_top" xlink:title="Configures the CAN filter.">
<polygon fill="white" stroke="#666666" points="273.5,-29 156.25,-29 156.25,0 273.5,0 273.5,-29"/>
<text xml:space="preserve" text-anchor="start" x="164.25" y="-16.45" font-family="Arial" font-size="9.00">Lib::HAL::CAN::PortBase</text>
<text xml:space="preserve" text-anchor="middle" x="214.88" y="-5.95" font-family="Arial" font-size="9.00">::setFilter</text>
</a>
</g>
</g>
<!-- Node1&#45;&gt;Node9 -->
<g id="edge10_Node000001_Node000009" class="edge">
<title>Node1&#45;&gt;Node9</title>
<g id="a_edge10_Node000001_Node000009"><a xlink:title=" ">
<path fill="none" stroke="#63b8ff" d="M372.96,-107.67C355.71,-86.61 327.94,-56.5 297.5,-38.5 290.13,-34.14 281.9,-30.52 273.59,-27.54"/>
<polygon fill="#63b8ff" stroke="#63b8ff" points="370.2,-109.83 379.18,-115.46 375.68,-105.46 370.2,-109.83"/>
</a>
</g>
</g>
<!-- Node3 -->
<g id="Node000003" class="node">
<title>Node3</title>
<g id="a_Node000003"><a xlink:href="../../d1/db0/class_lib_1_1_h_a_l_1_1_c_a_n_1_1_port.html#ae02ae673c20f629b1af29f74b1562ccb" target="_top" xlink:title="Opens the CAN port and registers it with DeviceManager.">
<polygon fill="white" stroke="#666666" points="96.25,-238 0,-238 0,-209 96.25,-209 96.25,-238"/>
<text xml:space="preserve" text-anchor="start" x="8" y="-225.45" font-family="Arial" font-size="9.00">Lib::HAL::CAN::Port</text>
<text xml:space="preserve" text-anchor="middle" x="48.12" y="-214.95" font-family="Arial" font-size="9.00">::open</text>
</a>
</g>
</g>
<!-- Node2&#45;&gt;Node3 -->
<g id="edge2_Node000002_Node000003" class="edge">
<title>Node2&#45;&gt;Node3</title>
<g id="a_edge2_Node000002_Node000003"><a xlink:title=" ">
<path fill="none" stroke="#63b8ff" d="M126.6,-233.37C116.31,-232.06 106.12,-230.77 96.68,-229.56"/>
<polygon fill="#63b8ff" stroke="#63b8ff" points="125.91,-236.82 136.27,-234.61 126.79,-229.87 125.91,-236.82"/>
</a>
</g>
</g>
<!-- Node5 -->
<g id="Node000005" class="node">
<title>Node5</title>
<g id="a_Node000005"><a xlink:href="../../d1/db0/class_lib_1_1_h_a_l_1_1_c_a_n_1_1_port.html#a118315cc6a47c8c720d0f47e6e0d4e8e" target="_top" xlink:title="Closes the CAN port and unregisters it from DeviceManager.">
<polygon fill="white" stroke="#666666" points="96.25,-100 0,-100 0,-71 96.25,-71 96.25,-100"/>
<text xml:space="preserve" text-anchor="start" x="8" y="-87.45" font-family="Arial" font-size="9.00">Lib::HAL::CAN::Port</text>
<text xml:space="preserve" text-anchor="middle" x="48.12" y="-76.95" font-family="Arial" font-size="9.00">::close</text>
</a>
</g>
</g>
<!-- Node4&#45;&gt;Node5 -->
<g id="edge4_Node000004_Node000005" class="edge">
<title>Node4&#45;&gt;Node5</title>
<g id="a_edge4_Node000004_Node000005"><a xlink:title=" ">
<path fill="none" stroke="#63b8ff" d="M144.72,-71.57C128.53,-73.93 111.64,-76.39 96.64,-78.58"/>
<polygon fill="#63b8ff" stroke="#63b8ff" points="144.9,-75.08 154.29,-70.18 143.89,-68.16 144.9,-75.08"/>
</a>
</g>
</g>
<!-- Node7&#45;&gt;Node3 -->
<g id="edge7_Node000007_Node000003" class="edge">
<title>Node7&#45;&gt;Node3</title>
<g id="a_edge7_Node000007_Node000003"><a xlink:title=" ">
<path fill="none" stroke="#63b8ff" d="M144.72,-211.31C128.53,-213.38 111.64,-215.53 96.64,-217.44"/>
<polygon fill="#63b8ff" stroke="#63b8ff" points="144.81,-214.83 154.29,-210.1 143.93,-207.89 144.81,-214.83"/>
</a>
</g>
</g>
<!-- Node8&#45;&gt;Node5 -->
<g id="edge9_Node000008_Node000005" class="edge">
<title>Node8&#45;&gt;Node5</title>
<g id="a_edge9_Node000008_Node000005"><a xlink:title=" ">
<path fill="none" stroke="#63b8ff" d="M130.82,-96.91C119.04,-95.26 107.27,-93.62 96.49,-92.11"/>
<polygon fill="#63b8ff" stroke="#63b8ff" points="130.21,-100.35 140.59,-98.27 131.17,-93.42 130.21,-100.35"/>
</a>
</g>
</g>
<!-- Node10 -->
<g id="Node000010" class="node">
<title>Node10</title>
<g id="a_Node000010"><a xlink:href="../../d1/db0/class_lib_1_1_h_a_l_1_1_c_a_n_1_1_port.html#af2028bbd5afcd65d8e3d1b4eebbd3cce" target="_top" xlink:title="Sets a CAN message filter.">
<polygon fill="white" stroke="#666666" points="96.25,-29 0,-29 0,0 96.25,0 96.25,-29"/>
<text xml:space="preserve" text-anchor="start" x="8" y="-16.45" font-family="Arial" font-size="9.00">Lib::HAL::CAN::Port</text>
<text xml:space="preserve" text-anchor="middle" x="48.12" y="-5.95" font-family="Arial" font-size="9.00">::setFilter</text>
</a>
</g>
</g>
<!-- Node9&#45;&gt;Node10 -->
<g id="edge11_Node000009_Node000010" class="edge">
<title>Node9&#45;&gt;Node10</title>
<g id="a_edge11_Node000009_Node000010"><a xlink:title=" ">
<path fill="none" stroke="#63b8ff" d="M144.72,-14.5C128.53,-14.5 111.64,-14.5 96.64,-14.5"/>
<polygon fill="#63b8ff" stroke="#63b8ff" points="144.28,-18 154.28,-14.5 144.28,-11 144.28,-18"/>
</a>
</g>
</g>
</g>
</svg>
