<?xml version="1.0" encoding="UTF-8" standalone="no"?>
<!DOCTYPE svg PUBLIC "-//W3C//DTD SVG 1.1//EN"
 "http://www.w3.org/Graphics/SVG/1.1/DTD/svg11.dtd">
<!-- Generated by graphviz version 13.1.0 (20250701.0955)
 -->
<!-- Title: ModelBase::Listener Pages: 1 -->
<svg width="636pt" height="389pt"
 viewBox="0.00 0.00 636.00 389.00" xmlns="http://www.w3.org/2000/svg" xmlns:xlink="http://www.w3.org/1999/xlink">
<g id="graph0" class="graph" transform="scale(1 1) rotate(0) translate(4 385)">
<title>ModelBase::Listener</title>
<!-- Node1 -->
<g id="Node000001" class="node">
<title>Node1</title>
<g id="a_Node000001"><a xlink:title="Listener interface for model events.">
<polygon fill="#999999" stroke="none" points="381.25,-47.5 289.25,-47.5 289.25,0 381.25,0 381.25,-47.5"/>
<text xml:space="preserve" text-anchor="start" x="293.25" y="-34.95" font-family="Arial" font-size="9.00">ModelBase::Listener</text>
<text xml:space="preserve" text-anchor="start" x="334.12" y="-20.45" font-family="Arial" font-size="9.00"> </text>
<text xml:space="preserve" text-anchor="start" x="334.12" y="-5.95" font-family="Arial" font-size="9.00"> </text>
<polygon fill="#666666" stroke="#666666" points="289.25,-31 289.25,-31 381.25,-31 381.25,-31 289.25,-31"/>
<polygon fill="#666666" stroke="#666666" points="289.25,-16.5 289.25,-16.5 381.25,-16.5 381.25,-16.5 289.25,-16.5"/>
<polygon fill="none" stroke="#666666" points="289.25,0 289.25,-47.5 381.25,-47.5 381.25,0 289.25,0"/>
</a>
</g>
</g>
<!-- Node2 -->
<g id="Node000002" class="node">
<title>Node2</title>
<g id="a_Node000002"><a xlink:href="../../da/df6/class_model_xbee_1_1_listener.html" target="_top" xlink:title="Listener class for ModelXbee events.">
<polygon fill="white" stroke="none" points="154.5,-381 0,-381 0,-83.5 154.5,-83.5 154.5,-381"/>
<text xml:space="preserve" text-anchor="start" x="34.88" y="-368.45" font-family="Arial" font-size="9.00">ModelXbee::Listener</text>
<text xml:space="preserve" text-anchor="start" x="76.12" y="-353.95" font-family="Arial" font-size="9.00"> </text>
<text xml:space="preserve" text-anchor="start" x="4" y="-339.45" font-family="Arial" font-size="9.00">+</text>
<text xml:space="preserve" text-anchor="start" x="13.25" y="-339.45" font-family="Arial" font-size="9.00">Listener()=default</text>
<text xml:space="preserve" text-anchor="start" x="4" y="-324.95" font-family="Arial" font-size="9.00">+</text>
<text xml:space="preserve" text-anchor="start" x="13.25" y="-324.95" font-family="Arial" font-size="9.00">virtual ~Listener()</text>
<text xml:space="preserve" text-anchor="start" x="13.25" y="-314.45" font-family="Arial" font-size="9.00">=default</text>
<text xml:space="preserve" text-anchor="start" x="4" y="-299.95" font-family="Arial" font-size="9.00">+</text>
<text xml:space="preserve" text-anchor="start" x="13.25" y="-299.95" font-family="Arial" font-size="9.00">virtual void xbeeSignalStrength</text>
<text xml:space="preserve" text-anchor="start" x="13.25" y="-289.45" font-family="Arial" font-size="9.00">ValueChanged(float value)</text>
<text xml:space="preserve" text-anchor="start" x="4" y="-274.95" font-family="Arial" font-size="9.00">+</text>
<text xml:space="preserve" text-anchor="start" x="13.25" y="-274.95" font-family="Arial" font-size="9.00">virtual void xbeeSignalStrength</text>
<text xml:space="preserve" text-anchor="start" x="13.25" y="-264.45" font-family="Arial" font-size="9.00">MinValueChanged(uint8_t value)</text>
<text xml:space="preserve" text-anchor="start" x="4" y="-249.95" font-family="Arial" font-size="9.00">+</text>
<text xml:space="preserve" text-anchor="start" x="13.25" y="-249.95" font-family="Arial" font-size="9.00">virtual void xbeeSignalStrength</text>
<text xml:space="preserve" text-anchor="start" x="13.25" y="-239.45" font-family="Arial" font-size="9.00">MaxValueChanged(uint8_t value)</text>
<text xml:space="preserve" text-anchor="start" x="4" y="-224.95" font-family="Arial" font-size="9.00">+</text>
<text xml:space="preserve" text-anchor="start" x="13.25" y="-224.95" font-family="Arial" font-size="9.00">virtual void xbeeConnection</text>
<text xml:space="preserve" text-anchor="start" x="13.25" y="-214.45" font-family="Arial" font-size="9.00">StateChanged(uint8_t value)</text>
<text xml:space="preserve" text-anchor="start" x="4" y="-199.95" font-family="Arial" font-size="9.00">+</text>
<text xml:space="preserve" text-anchor="start" x="13.25" y="-199.95" font-family="Arial" font-size="9.00">virtual void xbeeRetryCounter</text>
<text xml:space="preserve" text-anchor="start" x="13.25" y="-189.45" font-family="Arial" font-size="9.00">Changed(uint32_t value)</text>
<text xml:space="preserve" text-anchor="start" x="4" y="-174.95" font-family="Arial" font-size="9.00">+</text>
<text xml:space="preserve" text-anchor="start" x="13.25" y="-174.95" font-family="Arial" font-size="9.00">virtual void xbeeReconnection</text>
<text xml:space="preserve" text-anchor="start" x="13.25" y="-164.45" font-family="Arial" font-size="9.00">CounterChanged(uint32_t value)</text>
<text xml:space="preserve" text-anchor="start" x="4" y="-149.95" font-family="Arial" font-size="9.00">+</text>
<text xml:space="preserve" text-anchor="start" x="13.25" y="-149.95" font-family="Arial" font-size="9.00">virtual void xbeeSignalStrength</text>
<text xml:space="preserve" text-anchor="start" x="13.25" y="-139.45" font-family="Arial" font-size="9.00">AddDataPoint(float value)</text>
<text xml:space="preserve" text-anchor="start" x="4" y="-124.95" font-family="Arial" font-size="9.00">+</text>
<text xml:space="preserve" text-anchor="start" x="13.25" y="-124.95" font-family="Arial" font-size="9.00">virtual void xbeeTransmit</text>
<text xml:space="preserve" text-anchor="start" x="13.25" y="-114.45" font-family="Arial" font-size="9.00">TimeValueChanged(uint32</text>
<text xml:space="preserve" text-anchor="start" x="13.25" y="-103.95" font-family="Arial" font-size="9.00">_t value)</text>
<text xml:space="preserve" text-anchor="start" x="13.25" y="-89.45" font-family="Arial" font-size="9.00">and 13 more...</text>
<polygon fill="#666666" stroke="#666666" points="0,-364.5 0,-364.5 154.5,-364.5 154.5,-364.5 0,-364.5"/>
<polygon fill="#666666" stroke="#666666" points="0,-350 0,-350 154.5,-350 154.5,-350 0,-350"/>
<polygon fill="none" stroke="#666666" points="0,-83.5 0,-381 154.5,-381 154.5,-83.5 0,-83.5"/>
</a>
</g>
</g>
<!-- Node2&#45;&gt;Node1 -->
<g id="edge1_Node000001_Node000002" class="edge">
<title>Node2&#45;&gt;Node1</title>
<g id="a_edge1_Node000001_Node000002"><a xlink:title=" ">
<path fill="none" stroke="#63b8ff" d="M162.64,-84.84C163.17,-84.39 163.71,-83.94 164.25,-83.5 200.48,-53.92 252.46,-38.87 289.59,-31.46"/>
<polygon fill="none" stroke="#63b8ff" points="160.39,-82.15 155.32,-91.46 165.08,-87.35 160.39,-82.15"/>
</a>
</g>
</g>
<!-- Node3 -->
<g id="Node000003" class="node">
<title>Node3</title>
<g id="a_Node000003"><a xlink:href="../../da/da3/class_model_canbus_1_1_listener.html" target="_top" xlink:title="Listener interface for CAN bus node events.">
<polygon fill="white" stroke="none" points="327.5,-321.75 173,-321.75 173,-142.75 327.5,-142.75 327.5,-321.75"/>
<text xml:space="preserve" text-anchor="start" x="202.62" y="-309.2" font-family="Arial" font-size="9.00">ModelCanbus::Listener</text>
<text xml:space="preserve" text-anchor="start" x="249.12" y="-294.7" font-family="Arial" font-size="9.00"> </text>
<text xml:space="preserve" text-anchor="start" x="177" y="-280.2" font-family="Arial" font-size="9.00">+</text>
<text xml:space="preserve" text-anchor="start" x="186.25" y="-280.2" font-family="Arial" font-size="9.00">Listener()=default</text>
<text xml:space="preserve" text-anchor="start" x="177" y="-265.7" font-family="Arial" font-size="9.00">+</text>
<text xml:space="preserve" text-anchor="start" x="186.25" y="-265.7" font-family="Arial" font-size="9.00">virtual ~Listener()</text>
<text xml:space="preserve" text-anchor="start" x="186.25" y="-255.2" font-family="Arial" font-size="9.00">=default</text>
<text xml:space="preserve" text-anchor="start" x="177" y="-240.7" font-family="Arial" font-size="9.00">+</text>
<text xml:space="preserve" text-anchor="start" x="186.25" y="-240.7" font-family="Arial" font-size="9.00">virtual void canbusNodeActivity</text>
<text xml:space="preserve" text-anchor="start" x="186.25" y="-230.2" font-family="Arial" font-size="9.00">ChangedCallback(uint32_t index,</text>
<text xml:space="preserve" text-anchor="start" x="186.25" y="-219.7" font-family="Arial" font-size="9.00"> bool value)</text>
<text xml:space="preserve" text-anchor="start" x="177" y="-205.2" font-family="Arial" font-size="9.00">+</text>
<text xml:space="preserve" text-anchor="start" x="186.25" y="-205.2" font-family="Arial" font-size="9.00">virtual void canbusNodeInputs</text>
<text xml:space="preserve" text-anchor="start" x="186.25" y="-194.7" font-family="Arial" font-size="9.00">ChangedCallback(uint32_t</text>
<text xml:space="preserve" text-anchor="start" x="186.25" y="-184.2" font-family="Arial" font-size="9.00"> index, uint64_t value)</text>
<text xml:space="preserve" text-anchor="start" x="177" y="-169.7" font-family="Arial" font-size="9.00">+</text>
<text xml:space="preserve" text-anchor="start" x="186.25" y="-169.7" font-family="Arial" font-size="9.00">virtual void canbusNodeOutputs</text>
<text xml:space="preserve" text-anchor="start" x="186.25" y="-159.2" font-family="Arial" font-size="9.00">ChangedCallback(uint32_t</text>
<text xml:space="preserve" text-anchor="start" x="186.25" y="-148.7" font-family="Arial" font-size="9.00"> index, uint64_t value)</text>
<polygon fill="#666666" stroke="#666666" points="173,-305.25 173,-305.25 327.5,-305.25 327.5,-305.25 173,-305.25"/>
<polygon fill="#666666" stroke="#666666" points="173,-290.75 173,-290.75 327.5,-290.75 327.5,-290.75 173,-290.75"/>
<polygon fill="none" stroke="#666666" points="173,-142.75 173,-321.75 327.5,-321.75 327.5,-142.75 173,-142.75"/>
</a>
</g>
</g>
<!-- Node3&#45;&gt;Node1 -->
<g id="edge2_Node000001_Node000003" class="edge">
<title>Node3&#45;&gt;Node1</title>
<g id="a_edge2_Node000001_Node000003"><a xlink:title=" ">
<path fill="none" stroke="#63b8ff" d="M290.91,-132.46C304.03,-100.59 317.39,-68.15 325.96,-47.32"/>
<polygon fill="none" stroke="#63b8ff" points="287.81,-130.8 287.24,-141.38 294.29,-133.46 287.81,-130.8"/>
</a>
</g>
</g>
<!-- Node4 -->
<g id="Node000004" class="node">
<title>Node4</title>
<g id="a_Node000004"><a xlink:href="../../d1/d8c/class_model_peripheral_1_1_listener.html" target="_top" xlink:title="Listener interface for peripheral state changes.">
<polygon fill="white" stroke="none" points="494.88,-306 345.62,-306 345.62,-158.5 494.88,-158.5 494.88,-306"/>
<text xml:space="preserve" text-anchor="start" x="367.38" y="-293.45" font-family="Arial" font-size="9.00">ModelPeripheral::Listener</text>
<text xml:space="preserve" text-anchor="start" x="419.12" y="-278.95" font-family="Arial" font-size="9.00"> </text>
<text xml:space="preserve" text-anchor="start" x="349.62" y="-264.45" font-family="Arial" font-size="9.00">+</text>
<text xml:space="preserve" text-anchor="start" x="358.88" y="-264.45" font-family="Arial" font-size="9.00">Listener()=default</text>
<text xml:space="preserve" text-anchor="start" x="349.62" y="-249.95" font-family="Arial" font-size="9.00">+</text>
<text xml:space="preserve" text-anchor="start" x="358.88" y="-249.95" font-family="Arial" font-size="9.00">virtual ~Listener()</text>
<text xml:space="preserve" text-anchor="start" x="358.88" y="-239.45" font-family="Arial" font-size="9.00">=default</text>
<text xml:space="preserve" text-anchor="start" x="349.62" y="-224.95" font-family="Arial" font-size="9.00">+</text>
<text xml:space="preserve" text-anchor="start" x="358.88" y="-224.95" font-family="Arial" font-size="9.00">virtual void peripheralInputs</text>
<text xml:space="preserve" text-anchor="start" x="358.88" y="-214.45" font-family="Arial" font-size="9.00">Changed(const uint64_t &amp;value)</text>
<text xml:space="preserve" text-anchor="start" x="349.62" y="-199.95" font-family="Arial" font-size="9.00">+</text>
<text xml:space="preserve" text-anchor="start" x="358.88" y="-199.95" font-family="Arial" font-size="9.00">virtual void peripheralOutputs</text>
<text xml:space="preserve" text-anchor="start" x="358.88" y="-189.45" font-family="Arial" font-size="9.00">Changed(const uint64_t &amp;value)</text>
<text xml:space="preserve" text-anchor="start" x="349.62" y="-174.95" font-family="Arial" font-size="9.00">+</text>
<text xml:space="preserve" text-anchor="start" x="358.88" y="-174.95" font-family="Arial" font-size="9.00">virtual void peripheralNode</text>
<text xml:space="preserve" text-anchor="start" x="358.88" y="-164.45" font-family="Arial" font-size="9.00">ActivityChanged(bool value)</text>
<polygon fill="#666666" stroke="#666666" points="345.62,-289.5 345.62,-289.5 494.88,-289.5 494.88,-289.5 345.62,-289.5"/>
<polygon fill="#666666" stroke="#666666" points="345.62,-275 345.62,-275 494.88,-275 494.88,-275 345.62,-275"/>
<polygon fill="none" stroke="#666666" points="345.62,-158.5 345.62,-306 494.88,-306 494.88,-158.5 345.62,-158.5"/>
</a>
</g>
</g>
<!-- Node4&#45;&gt;Node1 -->
<g id="edge3_Node000001_Node000004" class="edge">
<title>Node4&#45;&gt;Node1</title>
<g id="a_edge3_Node000001_Node000004"><a xlink:title=" ">
<path fill="none" stroke="#63b8ff" d="M386.18,-148.48C371.05,-111.72 354.44,-71.36 344.43,-47.05"/>
<polygon fill="none" stroke="#63b8ff" points="382.78,-149.42 389.83,-157.34 389.26,-146.76 382.78,-149.42"/>
</a>
</g>
</g>
<!-- Node5 -->
<g id="Node000005" class="node">
<title>Node5</title>
<g id="a_Node000005"><a xlink:href="../../dd/d0f/class_model_diagnostic_1_1_listener.html" target="_top" xlink:title="Listener interface for diagnostic events.">
<polygon fill="white" stroke="none" points="627.5,-268.5 513,-268.5 513,-196 627.5,-196 627.5,-268.5"/>
<text xml:space="preserve" text-anchor="start" x="517" y="-255.95" font-family="Arial" font-size="9.00">ModelDiagnostic::Listener</text>
<text xml:space="preserve" text-anchor="start" x="569.12" y="-241.45" font-family="Arial" font-size="9.00"> </text>
<text xml:space="preserve" text-anchor="start" x="523.31" y="-226.95" font-family="Arial" font-size="9.00">+</text>
<text xml:space="preserve" text-anchor="start" x="538.88" y="-226.95" font-family="Arial" font-size="9.00">Listener()=default</text>
<text xml:space="preserve" text-anchor="start" x="523.31" y="-212.45" font-family="Arial" font-size="9.00">+</text>
<text xml:space="preserve" text-anchor="start" x="538.88" y="-212.45" font-family="Arial" font-size="9.00">virtual ~Listener()</text>
<text xml:space="preserve" text-anchor="start" x="538.88" y="-201.95" font-family="Arial" font-size="9.00">=default</text>
<polygon fill="#666666" stroke="#666666" points="513,-252 513,-252 627.5,-252 627.5,-252 513,-252"/>
<polygon fill="#666666" stroke="#666666" points="513,-237.5 513,-237.5 627.5,-237.5 627.5,-237.5 513,-237.5"/>
<polygon fill="none" stroke="#666666" points="513,-196 513,-268.5 627.5,-268.5 627.5,-196 513,-196"/>
</a>
</g>
</g>
<!-- Node5&#45;&gt;Node1 -->
<g id="edge4_Node000001_Node000005" class="edge">
<title>Node5&#45;&gt;Node1</title>
<g id="a_edge4_Node000001_Node000005"><a xlink:title=" ">
<path fill="none" stroke="#63b8ff" d="M559.99,-185.04C550.57,-152.59 533.5,-110.35 504.25,-83.5 470.04,-52.1 418.15,-37.34 380.9,-30.49"/>
<polygon fill="none" stroke="#63b8ff" points="556.6,-185.89 562.62,-194.61 563.35,-184.04 556.6,-185.89"/>
</a>
</g>
</g>
</g>
</svg>
