<?xml version="1.0" encoding="UTF-8" standalone="no"?>
<!DOCTYPE svg PUBLIC "-//W3C//DTD SVG 1.1//EN"
 "http://www.w3.org/Graphics/SVG/1.1/DTD/svg11.dtd">
<!-- Generated by graphviz version 13.1.0 (20250701.0955)
 -->
<!-- Title: RTOS::Timer::create Pages: 1 -->
<svg width="309pt" height="142pt"
 viewBox="0.00 0.00 309.00 142.00" xmlns="http://www.w3.org/2000/svg" xmlns:xlink="http://www.w3.org/1999/xlink">
<g id="graph0" class="graph" transform="scale(1 1) rotate(0) translate(4 138)">
<title>RTOS::Timer::create</title>
<!-- Node1 -->
<g id="Node000001" class="node">
<title>Node1</title>
<g id="a_Node000001"><a xlink:title="Creates a unique_ptr to a Timer instance.">
<polygon fill="#999999" stroke="#666666" points="300.5,-77 193.75,-77 193.75,-57 300.5,-57 300.5,-77"/>
<text xml:space="preserve" text-anchor="middle" x="247.12" y="-63.5" font-family="Helvetica,sans-Serif" font-size="10.00">RTOS::Timer::create</text>
</a>
</g>
</g>
<!-- Node2 -->
<g id="Node000002" class="node">
<title>Node2</title>
<g id="a_Node000002"><a xlink:href="../../d7/ded/a00196.html#ae18c904f82bada42a31cc83885217a65" target="_top" xlink:title="Creates an auto&#45;reload Timer.">
<polygon fill="white" stroke="#666666" points="157.75,-134 0,-134 0,-114 157.75,-114 157.75,-134"/>
<text xml:space="preserve" text-anchor="middle" x="78.88" y="-120.5" font-family="Helvetica,sans-Serif" font-size="10.00">RTOS::Timer::createAutoReload</text>
</a>
</g>
</g>
<!-- Node1&#45;&gt;Node2 -->
<g id="edge1_Node000001_Node000002" class="edge">
<title>Node1&#45;&gt;Node2</title>
<g id="a_edge1_Node000001_Node000002"><a xlink:title=" ">
<path fill="none" stroke="#63b8ff" d="M214.47,-82.13C197.85,-89.69 176.98,-98.57 157.75,-105 148.25,-108.18 137.93,-111.07 128.01,-113.59"/>
<polygon fill="#63b8ff" stroke="#63b8ff" points="215.74,-85.4 223.35,-78.03 212.81,-79.05 215.74,-85.4"/>
</a>
</g>
</g>
<!-- Node3 -->
<g id="Node000003" class="node">
<title>Node3</title>
<g id="a_Node000003"><a xlink:href="../../d7/ded/a00196.html#ab2d2eb2994e92732a74bccff7a5aa7c9" target="_top" xlink:title="Creates a Timer from milliseconds.">
<polygon fill="white" stroke="#666666" points="139,-96 18.75,-96 18.75,-76 139,-76 139,-96"/>
<text xml:space="preserve" text-anchor="middle" x="78.88" y="-82.5" font-family="Helvetica,sans-Serif" font-size="10.00">RTOS::Timer::createMs</text>
</a>
</g>
</g>
<!-- Node1&#45;&gt;Node3 -->
<g id="edge2_Node000001_Node000003" class="edge">
<title>Node1&#45;&gt;Node3</title>
<g id="a_edge2_Node000001_Node000003"><a xlink:title=" ">
<path fill="none" stroke="#63b8ff" d="M182.39,-74.28C168.25,-75.9 153.33,-77.61 139.37,-79.2"/>
<polygon fill="#63b8ff" stroke="#63b8ff" points="182.48,-77.8 192.02,-73.18 181.69,-70.84 182.48,-77.8"/>
</a>
</g>
</g>
<!-- Node4 -->
<g id="Node000004" class="node">
<title>Node4</title>
<g id="a_Node000004"><a xlink:href="../../d7/ded/a00196.html#a1e9ceb157f00bd51ea701636e84133cd" target="_top" xlink:title="Creates a one&#45;shot Timer.">
<polygon fill="white" stroke="#666666" points="151.38,-58 6.38,-58 6.38,-38 151.38,-38 151.38,-58"/>
<text xml:space="preserve" text-anchor="middle" x="78.88" y="-44.5" font-family="Helvetica,sans-Serif" font-size="10.00">RTOS::Timer::createOneShot</text>
</a>
</g>
</g>
<!-- Node1&#45;&gt;Node4 -->
<g id="edge3_Node000001_Node000004" class="edge">
<title>Node1&#45;&gt;Node4</title>
<g id="a_edge3_Node000001_Node000004"><a xlink:title=" ">
<path fill="none" stroke="#63b8ff" d="M182.36,-59.71C172.29,-58.56 161.82,-57.37 151.59,-56.2"/>
<polygon fill="#63b8ff" stroke="#63b8ff" points="181.69,-63.16 192.02,-60.82 182.48,-56.2 181.69,-63.16"/>
</a>
</g>
</g>
<!-- Node5 -->
<g id="Node000005" class="node">
<title>Node5</title>
<g id="a_Node000005"><a xlink:href="../../d7/ded/a00196.html#ae1687d3ec1fbd311a80a87220f0c3c7c" target="_top" xlink:title="Creates a Timer from seconds.">
<polygon fill="white" stroke="#666666" points="151.38,-20 6.38,-20 6.38,0 151.38,0 151.38,-20"/>
<text xml:space="preserve" text-anchor="middle" x="78.88" y="-6.5" font-family="Helvetica,sans-Serif" font-size="10.00">RTOS::Timer::createSeconds</text>
</a>
</g>
</g>
<!-- Node1&#45;&gt;Node5 -->
<g id="edge4_Node000001_Node000005" class="edge">
<title>Node1&#45;&gt;Node5</title>
<g id="a_edge4_Node000001_Node000005"><a xlink:title=" ">
<path fill="none" stroke="#63b8ff" d="M214.47,-51.87C197.85,-44.31 176.98,-35.43 157.75,-29 148.25,-25.82 137.93,-22.93 128.01,-20.41"/>
<polygon fill="#63b8ff" stroke="#63b8ff" points="212.81,-54.95 223.35,-55.97 215.74,-48.6 212.81,-54.95"/>
</a>
</g>
</g>
</g>
</svg>
