<?xml version="1.0" encoding="UTF-8" standalone="no"?>
<!DOCTYPE svg PUBLIC "-//W3C//DTD SVG 1.1//EN"
 "http://www.w3.org/Graphics/SVG/1.1/DTD/svg11.dtd">
<!-- Generated by graphviz version 13.1.0 (20250701.0955)
 -->
<!-- Title: RTOS::SemaphoreBase::giveFromISR Pages: 1 -->
<svg width="533pt" height="40pt"
 viewBox="0.00 0.00 533.00 40.00" xmlns="http://www.w3.org/2000/svg" xmlns:xlink="http://www.w3.org/1999/xlink">
<g id="graph0" class="graph" transform="scale(1 1) rotate(0) translate(4 36)">
<title>RTOS::SemaphoreBase::giveFromISR</title>
<!-- Node1 -->
<g id="Node000001" class="node">
<title>Node1</title>
<g id="a_Node000001"><a xlink:title="Gives the semaphore from ISR context.">
<polygon fill="#999999" stroke="#666666" points="525,-32 404,-32 404,0 525,0 525,-32"/>
<text xml:space="preserve" text-anchor="start" x="412" y="-18.5" font-family="Helvetica,sans-Serif" font-size="10.00">RTOS::SemaphoreBase</text>
<text xml:space="preserve" text-anchor="middle" x="464.5" y="-6.5" font-family="Helvetica,sans-Serif" font-size="10.00">::giveFromISR</text>
</a>
</g>
</g>
<!-- Node2 -->
<g id="Node000002" class="node">
<title>Node2</title>
<g id="a_Node000002"><a xlink:href="../../d0/d81/a00180.html#af808649cc6157fb1fce8c815039cb27c" target="_top" xlink:title="Release the semaphore from ISR context.">
<polygon fill="white" stroke="#666666" points="368,-26 205.75,-26 205.75,-6 368,-6 368,-26"/>
<text xml:space="preserve" text-anchor="middle" x="286.88" y="-12.5" font-family="Helvetica,sans-Serif" font-size="10.00">RTOS::Semaphore::giveFromISR</text>
</a>
</g>
</g>
<!-- Node1&#45;&gt;Node2 -->
<g id="edge1_Node000001_Node000002" class="edge">
<title>Node1&#45;&gt;Node2</title>
<g id="a_edge1_Node000001_Node000002"><a xlink:title=" ">
<path fill="none" stroke="#63b8ff" d="M392.21,-16C384.36,-16 376.32,-16 368.37,-16"/>
<polygon fill="#63b8ff" stroke="#63b8ff" points="392.04,-19.5 402.04,-16 392.04,-12.5 392.04,-19.5"/>
</a>
</g>
</g>
<!-- Node3 -->
<g id="Node000003" class="node">
<title>Node3</title>
<g id="a_Node000003"><a xlink:href="../../d0/d81/a00180.html#ad0569f4d76f26aaddf6f06501f3ac565" target="_top" xlink:title="Alias for giveFromISR() in signaling patterns.">
<polygon fill="white" stroke="#666666" points="169.75,-26 0,-26 0,-6 169.75,-6 169.75,-26"/>
<text xml:space="preserve" text-anchor="middle" x="84.88" y="-12.5" font-family="Helvetica,sans-Serif" font-size="10.00">RTOS::Semaphore::signalFromISR</text>
</a>
</g>
</g>
<!-- Node2&#45;&gt;Node3 -->
<g id="edge2_Node000002_Node000003" class="edge">
<title>Node2&#45;&gt;Node3</title>
<g id="a_edge2_Node000002_Node000003"><a xlink:title=" ">
<path fill="none" stroke="#63b8ff" d="M194.14,-16C186.13,-16 178.06,-16 170.11,-16"/>
<polygon fill="#63b8ff" stroke="#63b8ff" points="193.88,-19.5 203.88,-16 193.88,-12.5 193.88,-19.5"/>
</a>
</g>
</g>
</g>
</svg>
