<?xml version="1.0" encoding="UTF-8" standalone="no"?>
<!DOCTYPE svg PUBLIC "-//W3C//DTD SVG 1.1//EN"
 "http://www.w3.org/Graphics/SVG/1.1/DTD/svg11.dtd">
<!-- Generated by graphviz version 13.1.0 (20250701.0955)
 -->
<!-- Title: RTOS::Optimization::inline_if&lt; true &gt; Pages: 1 -->
<svg width="104pt" height="190pt"
 viewBox="0.00 0.00 104.00 190.00" xmlns="http://www.w3.org/2000/svg" xmlns:xlink="http://www.w3.org/1999/xlink">
<g id="graph0" class="graph" transform="scale(1 1) rotate(0) translate(4 186)">
<title>RTOS::Optimization::inline_if&lt; true &gt;</title>
<!-- Node1 -->
<g id="Node000001" class="node">
<title>Node1</title>
<g id="a_Node000001"><a xlink:title="Template specialization for aggressive inlining.">
<polygon fill="#999999" stroke="none" points="95.75,-64 0,-64 0,0 95.75,0 95.75,-64"/>
<text xml:space="preserve" text-anchor="start" x="4" y="-50.5" font-family="Helvetica,sans-Serif" font-size="10.00">RTOS::Optimization</text>
<text xml:space="preserve" text-anchor="start" x="11.12" y="-38.5" font-family="Helvetica,sans-Serif" font-size="10.00">::inline_if&lt; true &gt;</text>
<text xml:space="preserve" text-anchor="start" x="17.62" y="-22.5" font-family="Helvetica,sans-Serif" font-size="10.00">+</text>
<text xml:space="preserve" text-anchor="start" x="41.25" y="-22.5" font-family="Helvetica,sans-Serif" font-size="10.00">value</text>
<text xml:space="preserve" text-anchor="start" x="46.38" y="-6.5" font-family="Helvetica,sans-Serif" font-size="10.00"> </text>
<polygon fill="#666666" stroke="#666666" points="0,-34 0,-34 95.75,-34 95.75,-34 0,-34"/>
<polygon fill="#666666" stroke="#666666" points="0,-18 0,-18 39.25,-18 39.25,-18 0,-18"/>
<polygon fill="#666666" stroke="#666666" points="39.25,-18 39.25,-18 95.75,-18 95.75,-18 39.25,-18"/>
<polygon fill="none" stroke="#666666" points="0,0 0,-64 95.75,-64 95.75,0 0,0"/>
</a>
</g>
</g>
<!-- Node2 -->
<g id="Node000002" class="node">
<title>Node2</title>
<g id="a_Node000002"><a xlink:href="../../d8/d64/a00181.html" target="_top" xlink:title="Template to conditionally enable inline based on optimization level.">
<polygon fill="white" stroke="none" points="95.75,-182 0,-182 0,-118 95.75,-118 95.75,-182"/>
<text xml:space="preserve" text-anchor="start" x="4" y="-168.5" font-family="Helvetica,sans-Serif" font-size="10.00">RTOS::Optimization</text>
<text xml:space="preserve" text-anchor="start" x="4.38" y="-156.5" font-family="Helvetica,sans-Serif" font-size="10.00">::inline_if&lt; Enable &gt;</text>
<text xml:space="preserve" text-anchor="start" x="17.62" y="-140.5" font-family="Helvetica,sans-Serif" font-size="10.00">+</text>
<text xml:space="preserve" text-anchor="start" x="41.25" y="-140.5" font-family="Helvetica,sans-Serif" font-size="10.00">value</text>
<text xml:space="preserve" text-anchor="start" x="46.38" y="-124.5" font-family="Helvetica,sans-Serif" font-size="10.00"> </text>
<polygon fill="#666666" stroke="#666666" points="0,-152 0,-152 95.75,-152 95.75,-152 0,-152"/>
<polygon fill="#666666" stroke="#666666" points="0,-136 0,-136 39.25,-136 39.25,-136 0,-136"/>
<polygon fill="#666666" stroke="#666666" points="39.25,-136 39.25,-136 95.75,-136 95.75,-136 39.25,-136"/>
<polygon fill="none" stroke="#666666" points="0,-118 0,-182 95.75,-182 95.75,-118 0,-118"/>
</a>
</g>
</g>
<!-- Node2&#45;&gt;Node1 -->
<g id="edge1_Node000001_Node000002" class="edge">
<title>Node2&#45;&gt;Node1</title>
<g id="a_edge1_Node000001_Node000002"><a xlink:title=" ">
<path fill="none" stroke="orange" d="M47.88,-106.72C47.88,-92.56 47.88,-77.05 47.88,-63.93"/>
<polygon fill="orange" stroke="orange" points="44.38,-106.71 47.88,-116.71 51.38,-106.71 44.38,-106.71"/>
</a>
</g>
<text xml:space="preserve" text-anchor="start" x="50.88" y="-87.5" font-family="Helvetica,sans-Serif" font-size="10.00" fill="grey">&lt; true &gt;</text>
</g>
</g>
</svg>
