<?xml version="1.0" encoding="UTF-8" standalone="no"?>
<!DOCTYPE svg PUBLIC "-//W3C//DTD SVG 1.1//EN"
 "http://www.w3.org/Graphics/SVG/1.1/DTD/svg11.dtd">
<!-- Generated by graphviz version 13.1.0 (20250701.0955)
 -->
<!-- Title: SemaphoreCounting.hpp Pages: 1 -->
<svg width="405pt" height="140pt"
 viewBox="0.00 0.00 405.00 140.00" xmlns="http://www.w3.org/2000/svg" xmlns:xlink="http://www.w3.org/1999/xlink">
<g id="graph0" class="graph" transform="scale(1 1) rotate(0) translate(4 136)">
<title>SemaphoreCounting.hpp</title>
<!-- Node1 -->
<g id="Node000001" class="node">
<title>Node1</title>
<g id="a_Node000001"><a xlink:title="Counting semaphore class for RTOS synchronization.">
<polygon fill="#999999" stroke="#666666" points="270,-132 146.75,-132 146.75,-112 270,-112 270,-132"/>
<text xml:space="preserve" text-anchor="middle" x="208.38" y="-118.5" font-family="Helvetica,sans-Serif" font-size="10.00">SemaphoreCounting.hpp</text>
</a>
</g>
</g>
<!-- Node2 -->
<g id="Node000002" class="node">
<title>Node2</title>
<g id="a_Node000002"><a xlink:title=" ">
<polygon fill="#e0e0e0" stroke="#999999" points="70.75,-76 0,-76 0,-56 70.75,-56 70.75,-76"/>
<text xml:space="preserve" text-anchor="middle" x="35.38" y="-62.5" font-family="Helvetica,sans-Serif" font-size="10.00">FreeRTOS.h</text>
</a>
</g>
</g>
<!-- Node1&#45;&gt;Node2 -->
<g id="edge1_Node000001_Node000002" class="edge">
<title>Node1&#45;&gt;Node2</title>
<g id="a_edge1_Node000001_Node000002"><a xlink:title=" ">
<path fill="none" stroke="#63b8ff" d="M178.24,-111.59C150.13,-102.82 107.96,-89.66 76.72,-79.9"/>
<polygon fill="#63b8ff" stroke="#63b8ff" points="77.78,-76.57 67.19,-76.93 75.69,-83.25 77.78,-76.57"/>
</a>
</g>
</g>
<!-- Node3 -->
<g id="Node000003" class="node">
<title>Node3</title>
<g id="a_Node000003"><a xlink:href="../../d0/dc2/a00104.html" target="_top" xlink:title="Status codes for RTOS operations.">
<polygon fill="white" stroke="#666666" points="152,-76 88.75,-76 88.75,-56 152,-56 152,-76"/>
<text xml:space="preserve" text-anchor="middle" x="120.38" y="-62.5" font-family="Helvetica,sans-Serif" font-size="10.00">Status.hpp</text>
</a>
</g>
</g>
<!-- Node1&#45;&gt;Node3 -->
<g id="edge2_Node000001_Node000003" class="edge">
<title>Node1&#45;&gt;Node3</title>
<g id="a_edge2_Node000001_Node000003"><a xlink:title=" ">
<path fill="none" stroke="#63b8ff" d="M193.05,-111.59C179.88,-103.51 160.64,-91.71 145.27,-82.27"/>
<polygon fill="#63b8ff" stroke="#63b8ff" points="147.47,-79.52 137.11,-77.27 143.81,-85.48 147.47,-79.52"/>
</a>
</g>
</g>
<!-- Node4 -->
<g id="Node000004" class="node">
<title>Node4</title>
<g id="a_Node000004"><a xlink:title=" ">
<polygon fill="#e0e0e0" stroke="#999999" points="173,-20 127.75,-20 127.75,0 173,0 173,-20"/>
<text xml:space="preserve" text-anchor="middle" x="150.38" y="-6.5" font-family="Helvetica,sans-Serif" font-size="10.00">cstdint</text>
</a>
</g>
</g>
<!-- Node1&#45;&gt;Node4 -->
<g id="edge7_Node000001_Node000004" class="edge">
<title>Node1&#45;&gt;Node4</title>
<g id="a_edge7_Node000001_Node000004"><a xlink:title=" ">
<path fill="none" stroke="#63b8ff" d="M203.43,-111.62C193.97,-93.68 173.14,-54.17 160.58,-30.35"/>
<polygon fill="#63b8ff" stroke="#63b8ff" points="163.77,-28.91 156.01,-21.69 157.58,-32.17 163.77,-28.91"/>
</a>
</g>
</g>
<!-- Node5 -->
<g id="Node000005" class="node">
<title>Node5</title>
<g id="a_Node000005"><a xlink:title=" ">
<polygon fill="#e0e0e0" stroke="#999999" points="264.62,-76 208.12,-76 208.12,-56 264.62,-56 264.62,-76"/>
<text xml:space="preserve" text-anchor="middle" x="236.38" y="-62.5" font-family="Helvetica,sans-Serif" font-size="10.00">semphr.h</text>
</a>
</g>
</g>
<!-- Node1&#45;&gt;Node5 -->
<g id="edge4_Node000001_Node000005" class="edge">
<title>Node1&#45;&gt;Node5</title>
<g id="a_edge4_Node000001_Node000005"><a xlink:title=" ">
<path fill="none" stroke="#63b8ff" d="M213.25,-111.59C216.87,-104.63 221.92,-94.89 226.37,-86.29"/>
<polygon fill="#63b8ff" stroke="#63b8ff" points="229.36,-88.13 230.86,-77.64 223.15,-84.91 229.36,-88.13"/>
</a>
</g>
</g>
<!-- Node6 -->
<g id="Node000006" class="node">
<title>Node6</title>
<g id="a_Node000006"><a xlink:title=" ">
<polygon fill="#e0e0e0" stroke="#999999" points="330.5,-76 282.25,-76 282.25,-56 330.5,-56 330.5,-76"/>
<text xml:space="preserve" text-anchor="middle" x="306.38" y="-62.5" font-family="Helvetica,sans-Serif" font-size="10.00">cassert</text>
</a>
</g>
</g>
<!-- Node1&#45;&gt;Node6 -->
<g id="edge5_Node000001_Node000006" class="edge">
<title>Node1&#45;&gt;Node6</title>
<g id="a_edge5_Node000001_Node000006"><a xlink:title=" ">
<path fill="none" stroke="#63b8ff" d="M225.45,-111.59C240.25,-103.44 261.94,-91.48 279.14,-82"/>
<polygon fill="#63b8ff" stroke="#63b8ff" points="280.78,-85.1 287.85,-77.21 277.4,-78.97 280.78,-85.1"/>
</a>
</g>
</g>
<!-- Node7 -->
<g id="Node000007" class="node">
<title>Node7</title>
<g id="a_Node000007"><a xlink:title=" ">
<polygon fill="#e0e0e0" stroke="#999999" points="396.5,-76 348.25,-76 348.25,-56 396.5,-56 396.5,-76"/>
<text xml:space="preserve" text-anchor="middle" x="372.38" y="-62.5" font-family="Helvetica,sans-Serif" font-size="10.00">cstddef</text>
</a>
</g>
</g>
<!-- Node1&#45;&gt;Node7 -->
<g id="edge6_Node000001_Node000007" class="edge">
<title>Node1&#45;&gt;Node7</title>
<g id="a_edge6_Node000001_Node000007"><a xlink:title=" ">
<path fill="none" stroke="#63b8ff" d="M236.94,-111.59C264.77,-102.43 307.15,-88.48 337.07,-78.62"/>
<polygon fill="#63b8ff" stroke="#63b8ff" points="338.04,-81.99 346.44,-75.54 335.85,-75.34 338.04,-81.99"/>
</a>
</g>
</g>
<!-- Node3&#45;&gt;Node4 -->
<g id="edge3_Node000003_Node000004" class="edge">
<title>Node3&#45;&gt;Node4</title>
<g id="a_edge3_Node000003_Node000004"><a xlink:title=" ">
<path fill="none" stroke="#63b8ff" d="M125.6,-55.59C129.47,-48.63 134.88,-38.89 139.66,-30.29"/>
<polygon fill="#63b8ff" stroke="#63b8ff" points="142.68,-32.06 144.47,-21.62 136.56,-28.66 142.68,-32.06"/>
</a>
</g>
</g>
</g>
</svg>
