<?xml version="1.0" encoding="UTF-8" standalone="no"?>
<!DOCTYPE svg PUBLIC "-//W3C//DTD SVG 1.1//EN"
 "http://www.w3.org/Graphics/SVG/1.1/DTD/svg11.dtd">
<!-- Generated by graphviz version 12.2.1 (20241206.2353)
 -->
<!-- Title: Lib::Digi::Core::AtCommandString Pages: 1 -->
<svg width="140pt" height="104pt"
 viewBox="0.00 0.00 139.75 104.00" xmlns="http://www.w3.org/2000/svg" xmlns:xlink="http://www.w3.org/1999/xlink">
<g id="graph0" class="graph" transform="scale(1 1) rotate(0) translate(4 100)">
<title>Lib::Digi::Core::AtCommandString</title>
<!-- Node1 -->
<g id="Node000001" class="node">
<title>Node1</title>
<g id="a_Node000001"><a xlink:title="A class to represent an AT command string.">
<polygon fill="#999999" stroke="none" points="131.75,-96 0,-96 0,0 131.75,0 131.75,-96"/>
<text text-anchor="start" x="4" y="-82.5" font-family="Helvetica,sans-Serif" font-size="10.00">Lib::Digi::Core::AtCommand</text>
<text text-anchor="start" x="53.12" y="-70.5" font-family="Helvetica,sans-Serif" font-size="10.00">String</text>
<text text-anchor="start" x="64.38" y="-54.5" font-family="Helvetica,sans-Serif" font-size="10.00"> </text>
<text text-anchor="start" x="10.88" y="-38.5" font-family="Helvetica,sans-Serif" font-size="10.00">+</text>
<text text-anchor="start" x="27.75" y="-38.5" font-family="Helvetica,sans-Serif" font-size="10.00">AtCommandString()</text>
<text text-anchor="start" x="10.88" y="-22.5" font-family="Helvetica,sans-Serif" font-size="10.00">+</text>
<text text-anchor="start" x="27.75" y="-22.5" font-family="Helvetica,sans-Serif" font-size="10.00">AtCommandString()</text>
<text text-anchor="start" x="10.88" y="-6.5" font-family="Helvetica,sans-Serif" font-size="10.00">+</text>
<text text-anchor="start" x="27.75" y="-6.5" font-family="Helvetica,sans-Serif" font-size="10.00">operator uint16_t()</text>
<polygon fill="#666666" stroke="#666666" points="0,-66 0,-66 131.75,-66 131.75,-66 0,-66"/>
<polygon fill="#666666" stroke="#666666" points="0,-50 0,-50 131.75,-50 131.75,-50 0,-50"/>
<polygon fill="none" stroke="#666666" points="0,0 0,-96 131.75,-96 131.75,0 0,0"/>
</a>
</g>
</g>
</g>
</svg>
