<?xml version="1.0" encoding="UTF-8" standalone="no"?>
<!DOCTYPE svg PUBLIC "-//W3C//DTD SVG 1.1//EN"
 "http://www.w3.org/Graphics/SVG/1.1/DTD/svg11.dtd">
<!-- Generated by graphviz version 13.1.0 (20250701.0955)
 -->
<!-- Title: Lib::Xbee::Core::Protocol Pages: 1 -->
<svg width="196pt" height="228pt"
 viewBox="0.00 0.00 196.00 228.00" xmlns="http://www.w3.org/2000/svg" xmlns:xlink="http://www.w3.org/1999/xlink">
<g id="graph0" class="graph" transform="scale(1 1) rotate(0) translate(4 224)">
<title>Lib::Xbee::Core::Protocol</title>
<!-- Node1 -->
<g id="Node000001" class="node">
<title>Node1</title>
<g id="a_Node000001"><a xlink:title="Protocol class for parsing, validating, and dispatching XBEE API frames.">
<polygon fill="#999999" stroke="none" points="138.25,-120 11.5,-120 11.5,0 138.25,0 138.25,-120"/>
<text xml:space="preserve" text-anchor="start" x="23.88" y="-107.45" font-family="Arial" font-size="9.00">Lib::Xbee::Core::Protocol</text>
<text xml:space="preserve" text-anchor="start" x="73.75" y="-92.95" font-family="Arial" font-size="9.00"> </text>
<text xml:space="preserve" text-anchor="start" x="15.5" y="-78.45" font-family="Arial" font-size="9.00">+</text>
<text xml:space="preserve" text-anchor="start" x="24.75" y="-78.45" font-family="Arial" font-size="9.00">parse()</text>
<text xml:space="preserve" text-anchor="start" x="15.5" y="-63.95" font-family="Arial" font-size="9.00">+</text>
<text xml:space="preserve" text-anchor="start" x="24.75" y="-63.95" font-family="Arial" font-size="9.00">handleIncomingMessage()</text>
<text xml:space="preserve" text-anchor="start" x="15.5" y="-49.45" font-family="Arial" font-size="9.00">+</text>
<text xml:space="preserve" text-anchor="start" x="24.75" y="-49.45" font-family="Arial" font-size="9.00">validate()</text>
<text xml:space="preserve" text-anchor="start" x="15.5" y="-34.95" font-family="Arial" font-size="9.00">+</text>
<text xml:space="preserve" text-anchor="start" x="24.75" y="-34.95" font-family="Arial" font-size="9.00">validate()</text>
<text xml:space="preserve" text-anchor="start" x="15.5" y="-20.45" font-family="Arial" font-size="9.00">+</text>
<text xml:space="preserve" text-anchor="start" x="24.75" y="-20.45" font-family="Arial" font-size="9.00">handleOutgoingMessage()</text>
<text xml:space="preserve" text-anchor="start" x="15.5" y="-5.95" font-family="Arial" font-size="9.00">+</text>
<text xml:space="preserve" text-anchor="start" x="24.75" y="-5.95" font-family="Arial" font-size="9.00">instance()</text>
<polygon fill="#666666" stroke="#666666" points="11.5,-103.5 11.5,-103.5 138.25,-103.5 138.25,-103.5 11.5,-103.5"/>
<polygon fill="#666666" stroke="#666666" points="11.5,-89 11.5,-89 138.25,-89 138.25,-89 11.5,-89"/>
<polygon fill="none" stroke="#666666" points="11.5,0 11.5,-120 138.25,-120 138.25,0 11.5,0"/>
</a>
</g>
</g>
<!-- Node2 -->
<g id="Node000002" class="node">
<title>Node2</title>
<g id="a_Node000002"><a xlink:title=" ">
<polygon fill="white" stroke="none" points="35.75,-220 0,-220 0,-172.5 35.75,-172.5 35.75,-220"/>
<text xml:space="preserve" text-anchor="start" x="4" y="-207.45" font-family="Arial" font-size="9.00">uint8_t</text>
<text xml:space="preserve" text-anchor="start" x="16.75" y="-192.95" font-family="Arial" font-size="9.00"> </text>
<text xml:space="preserve" text-anchor="start" x="16.75" y="-178.45" font-family="Arial" font-size="9.00"> </text>
<polygon fill="#bfbfbf" stroke="#bfbfbf" points="0,-203.5 0,-203.5 35.75,-203.5 35.75,-203.5 0,-203.5"/>
<polygon fill="#bfbfbf" stroke="#bfbfbf" points="0,-189 0,-189 35.75,-189 35.75,-189 0,-189"/>
<polygon fill="none" stroke="#bfbfbf" points="0,-172.5 0,-220 35.75,-220 35.75,-172.5 0,-172.5"/>
</a>
</g>
</g>
<!-- Node2&#45;&gt;Node1 -->
<g id="edge1_Node000001_Node000002" class="edge">
<title>Node2&#45;&gt;Node1</title>
<g id="a_edge1_Node000001_Node000002"><a xlink:title=" ">
<path fill="none" stroke="#63b8ff" d="M15.04,-172.7C14.47,-161.94 14.94,-149.03 18.62,-138 19.33,-135.89 20.11,-133.8 20.96,-131.72"/>
<polygon fill="none" stroke="#63b8ff" points="21,-131.63 19.97,-124.49 26.16,-120.8 27.19,-127.93 21,-131.63"/>
</a>
</g>
<text xml:space="preserve" text-anchor="start" x="21.62" y="-142.95" font-family="Arial" font-size="9.00" fill="grey">+START_DELIMITER</text>
</g>
<!-- Node3 -->
<g id="Node000003" class="node">
<title>Node3</title>
<g id="a_Node000003"><a xlink:title=" ">
<polygon fill="white" stroke="none" points="187.88,-220 77.88,-220 77.88,-172.5 187.88,-172.5 187.88,-220"/>
<text xml:space="preserve" text-anchor="start" x="81.88" y="-207.45" font-family="Arial" font-size="9.00">static constexpr ApiMode</text>
<text xml:space="preserve" text-anchor="start" x="131.75" y="-192.95" font-family="Arial" font-size="9.00"> </text>
<text xml:space="preserve" text-anchor="start" x="131.75" y="-178.45" font-family="Arial" font-size="9.00"> </text>
<polygon fill="#bfbfbf" stroke="#bfbfbf" points="77.88,-203.5 77.88,-203.5 187.88,-203.5 187.88,-203.5 77.88,-203.5"/>
<polygon fill="#bfbfbf" stroke="#bfbfbf" points="77.88,-189 77.88,-189 187.88,-189 187.88,-189 77.88,-189"/>
<polygon fill="none" stroke="#bfbfbf" points="77.88,-172.5 77.88,-220 187.88,-220 187.88,-172.5 77.88,-172.5"/>
</a>
</g>
</g>
<!-- Node3&#45;&gt;Node1 -->
<g id="edge2_Node000001_Node000003" class="edge">
<title>Node3&#45;&gt;Node1</title>
<g id="a_edge2_Node000001_Node000003"><a xlink:title=" ">
<path fill="none" stroke="#63b8ff" d="M124.57,-172.53C120.59,-161.97 115.67,-149.27 110.88,-138 109.96,-135.85 109.02,-133.68 108.07,-131.48"/>
<polygon fill="none" stroke="#63b8ff" points="108.06,-131.46 101.97,-127.6 103.19,-120.49 109.28,-124.35 108.06,-131.46"/>
</a>
</g>
<text xml:space="preserve" text-anchor="start" x="120.26" y="-142.95" font-family="Arial" font-size="9.00" fill="grey">+API_MODE</text>
</g>
</g>
</svg>
