<?xml version="1.0" encoding="UTF-8" standalone="no"?>
<!DOCTYPE svg PUBLIC "-//W3C//DTD SVG 1.1//EN"
 "http://www.w3.org/Graphics/SVG/1.1/DTD/svg11.dtd">
<!-- Generated by graphviz version 13.1.0 (20250701.0955)
 -->
<!-- Title: RTOS::TickService::ClientBase Pages: 1 -->
<svg width="371pt" height="276pt"
 viewBox="0.00 0.00 371.00 276.00" xmlns="http://www.w3.org/2000/svg" xmlns:xlink="http://www.w3.org/1999/xlink">
<g id="graph0" class="graph" transform="scale(1 1) rotate(0) translate(4 272)">
<title>RTOS::TickService::ClientBase</title>
<!-- Node1 -->
<g id="Node000001" class="node">
<title>Node1</title>
<g id="a_Node000001"><a xlink:title="Base class for tick event clients.">
<polygon fill="#999999" stroke="none" points="248.12,-268 101.38,-268 101.38,-152 248.12,-152 248.12,-268"/>
<text xml:space="preserve" text-anchor="start" x="105.38" y="-254.5" font-family="Helvetica,sans-Serif" font-size="10.00">RTOS::TickService::ClientBase</text>
<text xml:space="preserve" text-anchor="start" x="173.25" y="-238.5" font-family="Helvetica,sans-Serif" font-size="10.00"> </text>
<text xml:space="preserve" text-anchor="start" x="117.88" y="-222.5" font-family="Helvetica,sans-Serif" font-size="10.00">+</text>
<text xml:space="preserve" text-anchor="start" x="140.38" y="-222.5" font-family="Helvetica,sans-Serif" font-size="10.00">ClientBase()</text>
<text xml:space="preserve" text-anchor="start" x="117.88" y="-206.5" font-family="Helvetica,sans-Serif" font-size="10.00">+</text>
<text xml:space="preserve" text-anchor="start" x="140.38" y="-206.5" font-family="Helvetica,sans-Serif" font-size="10.00">~ClientBase()</text>
<text xml:space="preserve" text-anchor="start" x="117.88" y="-190.5" font-family="Helvetica,sans-Serif" font-size="10.00">+</text>
<text xml:space="preserve" text-anchor="start" x="140.38" y="-190.5" font-family="Helvetica,sans-Serif" font-size="10.00">ClientBase()</text>
<text xml:space="preserve" text-anchor="start" x="117.88" y="-174.5" font-family="Helvetica,sans-Serif" font-size="10.00">+</text>
<text xml:space="preserve" text-anchor="start" x="140.38" y="-174.5" font-family="Helvetica,sans-Serif" font-size="10.00">operator=()</text>
<text xml:space="preserve" text-anchor="start" x="117.88" y="-158.5" font-family="Helvetica,sans-Serif" font-size="10.00">+</text>
<text xml:space="preserve" text-anchor="start" x="140.38" y="-158.5" font-family="Helvetica,sans-Serif" font-size="10.00">handleTickEvent()</text>
<polygon fill="#666666" stroke="#666666" points="101.38,-250 101.38,-250 248.12,-250 248.12,-250 101.38,-250"/>
<polygon fill="#666666" stroke="#666666" points="101.38,-234 101.38,-234 248.12,-234 248.12,-234 101.38,-234"/>
<polygon fill="none" stroke="#666666" points="101.38,-152 101.38,-268 248.12,-268 248.12,-152 101.38,-152"/>
</a>
</g>
</g>
<!-- Node2 -->
<g id="Node000002" class="node">
<title>Node2</title>
<g id="a_Node000002"><a xlink:href="../../d4/d1f/class_lib_1_1_b_s_p_1_1_backlight.html" target="_top" xlink:title="Backlight PWM controller with dimming and sleep.">
<polygon fill="white" stroke="none" points="93.5,-116 0,-116 0,0 93.5,0 93.5,-116"/>
<text xml:space="preserve" text-anchor="start" x="4" y="-102.5" font-family="Helvetica,sans-Serif" font-size="10.00">Lib::BSP::Backlight</text>
<text xml:space="preserve" text-anchor="start" x="45.25" y="-86.5" font-family="Helvetica,sans-Serif" font-size="10.00"> </text>
<text xml:space="preserve" text-anchor="start" x="9.75" y="-70.5" font-family="Helvetica,sans-Serif" font-size="10.00">+</text>
<text xml:space="preserve" text-anchor="start" x="25.5" y="-70.5" font-family="Helvetica,sans-Serif" font-size="10.00">Backlight()</text>
<text xml:space="preserve" text-anchor="start" x="9.75" y="-54.5" font-family="Helvetica,sans-Serif" font-size="10.00">+</text>
<text xml:space="preserve" text-anchor="start" x="25.5" y="-54.5" font-family="Helvetica,sans-Serif" font-size="10.00">~Backlight()</text>
<text xml:space="preserve" text-anchor="start" x="9.75" y="-38.5" font-family="Helvetica,sans-Serif" font-size="10.00">+</text>
<text xml:space="preserve" text-anchor="start" x="25.5" y="-38.5" font-family="Helvetica,sans-Serif" font-size="10.00">get()</text>
<text xml:space="preserve" text-anchor="start" x="9.75" y="-22.5" font-family="Helvetica,sans-Serif" font-size="10.00">+</text>
<text xml:space="preserve" text-anchor="start" x="25.5" y="-22.5" font-family="Helvetica,sans-Serif" font-size="10.00">set()</text>
<text xml:space="preserve" text-anchor="start" x="9.75" y="-6.5" font-family="Helvetica,sans-Serif" font-size="10.00">+</text>
<text xml:space="preserve" text-anchor="start" x="25.5" y="-6.5" font-family="Helvetica,sans-Serif" font-size="10.00">operator=()</text>
<polygon fill="#666666" stroke="#666666" points="0,-98 0,-98 93.5,-98 93.5,-98 0,-98"/>
<polygon fill="#666666" stroke="#666666" points="0,-82 0,-82 93.5,-82 93.5,-82 0,-82"/>
<polygon fill="none" stroke="#666666" points="0,0 0,-116 93.5,-116 93.5,0 0,0"/>
</a>
</g>
</g>
<!-- Node1&#45;&gt;Node2 -->
<g id="edge1_Node000001_Node000002" class="edge">
<title>Node1&#45;&gt;Node2</title>
<g id="a_edge1_Node000001_Node000002"><a xlink:title=" ">
<path fill="none" stroke="#63b8ff" d="M119.13,-143.82C110.44,-133.64 101.54,-123.21 93.09,-113.31"/>
<polygon fill="none" stroke="#63b8ff" points="116.22,-145.81 125.38,-151.14 121.55,-141.26 116.22,-145.81"/>
</a>
</g>
</g>
<!-- Node3 -->
<g id="Node000003" class="node">
<title>Node3</title>
<g id="a_Node000003"><a xlink:href="../../df/d71/class_lib_1_1_b_s_p_1_1_beep.html" target="_top" xlink:title="Beep control class.">
<polygon fill="white" stroke="none" points="238.12,-100 111.38,-100 111.38,-16 238.12,-16 238.12,-100"/>
<text xml:space="preserve" text-anchor="start" x="141" y="-86.5" font-family="Helvetica,sans-Serif" font-size="10.00">Lib::BSP::Beep</text>
<text xml:space="preserve" text-anchor="start" x="115.38" y="-70.5" font-family="Helvetica,sans-Serif" font-size="10.00">+</text>
<text xml:space="preserve" text-anchor="start" x="125.38" y="-70.5" font-family="Helvetica,sans-Serif" font-size="10.00">DEFAULT_OC_CONFIG</text>
<text xml:space="preserve" text-anchor="start" x="115.38" y="-54.5" font-family="Helvetica,sans-Serif" font-size="10.00">+</text>
<text xml:space="preserve" text-anchor="start" x="125.38" y="-54.5" font-family="Helvetica,sans-Serif" font-size="10.00">Beep()</text>
<text xml:space="preserve" text-anchor="start" x="115.38" y="-38.5" font-family="Helvetica,sans-Serif" font-size="10.00">+</text>
<text xml:space="preserve" text-anchor="start" x="125.38" y="-38.5" font-family="Helvetica,sans-Serif" font-size="10.00">~Beep()</text>
<text xml:space="preserve" text-anchor="start" x="115.38" y="-22.5" font-family="Helvetica,sans-Serif" font-size="10.00">+</text>
<text xml:space="preserve" text-anchor="start" x="125.38" y="-22.5" font-family="Helvetica,sans-Serif" font-size="10.00">start()</text>
<polygon fill="#666666" stroke="#666666" points="111.38,-82 111.38,-82 238.12,-82 238.12,-82 111.38,-82"/>
<polygon fill="#666666" stroke="#666666" points="111.38,-66 111.38,-66 123.38,-66 123.38,-66 111.38,-66"/>
<polygon fill="#666666" stroke="#666666" points="123.38,-66 123.38,-66 238.12,-66 238.12,-66 123.38,-66"/>
<polygon fill="none" stroke="#666666" points="111.38,-16 111.38,-100 238.12,-100 238.12,-16 111.38,-16"/>
</a>
</g>
</g>
<!-- Node1&#45;&gt;Node3 -->
<g id="edge2_Node000001_Node000003" class="edge">
<title>Node1&#45;&gt;Node3</title>
<g id="a_edge2_Node000001_Node000003"><a xlink:title=" ">
<path fill="none" stroke="#63b8ff" d="M174.75,-141.12C174.75,-127.05 174.75,-112.64 174.75,-99.9"/>
<polygon fill="none" stroke="#63b8ff" points="171.25,-140.78 174.75,-150.78 178.25,-140.78 171.25,-140.78"/>
</a>
</g>
</g>
<!-- Node4 -->
<g id="Node000004" class="node">
<title>Node4</title>
<g id="a_Node000004"><a xlink:href="../../d3/d2f/class_lib_1_1_errors_1_1_dispatcher.html" target="_top" xlink:title="Manages error instances and their states.">
<polygon fill="white" stroke="none" points="363.38,-108 256.12,-108 256.12,-8 363.38,-8 363.38,-108"/>
<text xml:space="preserve" text-anchor="start" x="260.62" y="-94.5" font-family="Helvetica,sans-Serif" font-size="10.00">Lib::Errors::Dispatcher</text>
<text xml:space="preserve" text-anchor="start" x="260.12" y="-78.5" font-family="Helvetica,sans-Serif" font-size="10.00">+</text>
<text xml:space="preserve" text-anchor="start" x="270.12" y="-78.5" font-family="Helvetica,sans-Serif" font-size="10.00">statusChangedHook</text>
<text xml:space="preserve" text-anchor="start" x="260.12" y="-62.5" font-family="Helvetica,sans-Serif" font-size="10.00">+</text>
<text xml:space="preserve" text-anchor="start" x="270.12" y="-62.5" font-family="Helvetica,sans-Serif" font-size="10.00">start()</text>
<text xml:space="preserve" text-anchor="start" x="260.12" y="-46.5" font-family="Helvetica,sans-Serif" font-size="10.00">+</text>
<text xml:space="preserve" text-anchor="start" x="270.12" y="-46.5" font-family="Helvetica,sans-Serif" font-size="10.00">createError()</text>
<text xml:space="preserve" text-anchor="start" x="260.12" y="-30.5" font-family="Helvetica,sans-Serif" font-size="10.00">+</text>
<text xml:space="preserve" text-anchor="start" x="270.12" y="-30.5" font-family="Helvetica,sans-Serif" font-size="10.00">getInstance()</text>
<text xml:space="preserve" text-anchor="start" x="260.12" y="-14.5" font-family="Helvetica,sans-Serif" font-size="10.00">+</text>
<text xml:space="preserve" text-anchor="start" x="270.12" y="-14.5" font-family="Helvetica,sans-Serif" font-size="10.00">getVector()</text>
<polygon fill="#666666" stroke="#666666" points="256.12,-90 256.12,-90 363.38,-90 363.38,-90 256.12,-90"/>
<polygon fill="#666666" stroke="#666666" points="256.12,-74 256.12,-74 268.12,-74 268.12,-74 256.12,-74"/>
<polygon fill="#666666" stroke="#666666" points="268.12,-74 268.12,-74 363.38,-74 363.38,-74 268.12,-74"/>
<polygon fill="none" stroke="#666666" points="256.12,-8 256.12,-108 363.38,-108 363.38,-8 256.12,-8"/>
</a>
</g>
</g>
<!-- Node1&#45;&gt;Node4 -->
<g id="edge3_Node000001_Node000004" class="edge">
<title>Node1&#45;&gt;Node4</title>
<g id="a_edge3_Node000001_Node000004"><a xlink:title=" ">
<path fill="none" stroke="#8b1a1a" d="M233.26,-143.99C244.14,-131.89 255.35,-119.45 265.71,-107.93"/>
<polygon fill="none" stroke="#8b1a1a" points="230.89,-141.39 226.8,-151.17 236.09,-146.07 230.89,-141.39"/>
</a>
</g>
</g>
</g>
</svg>
