<?xml version="1.0" encoding="UTF-8" standalone="no"?>
<!DOCTYPE svg PUBLIC "-//W3C//DTD SVG 1.1//EN"
 "http://www.w3.org/Graphics/SVG/1.1/DTD/svg11.dtd">
<!-- Generated by graphviz version 13.1.0 (20250701.0955)
 -->
<!-- Title: Lib::Math::CubicInterpolation&lt; T_VALUE, T_INPUT &gt;::Point Pages: 1 -->
<svg width="156pt" height="104pt"
 viewBox="0.00 0.00 156.00 104.00" xmlns="http://www.w3.org/2000/svg" xmlns:xlink="http://www.w3.org/1999/xlink">
<g id="graph0" class="graph" transform="scale(1 1) rotate(0) translate(4 100)">
<title>Lib::Math::CubicInterpolation&lt; T_VALUE, T_INPUT &gt;::Point</title>
<!-- Node1 -->
<g id="Node000001" class="node">
<title>Node1</title>
<g id="a_Node000001"><a xlink:title="Data point structure for interpolation table.">
<polygon fill="#999999" stroke="none" points="147.5,-96 0,-96 0,0 147.5,0 147.5,-96"/>
<text xml:space="preserve" text-anchor="start" x="4" y="-82.5" font-family="Helvetica,sans-Serif" font-size="10.00">Lib::Math::CubicInterpolation&lt; T</text>
<text xml:space="preserve" text-anchor="start" x="12.62" y="-70.5" font-family="Helvetica,sans-Serif" font-size="10.00">_VALUE, T_INPUT &gt;::Point</text>
<text xml:space="preserve" text-anchor="start" x="29.25" y="-54.5" font-family="Helvetica,sans-Serif" font-size="10.00">+</text>
<text xml:space="preserve" text-anchor="start" x="64.5" y="-54.5" font-family="Helvetica,sans-Serif" font-size="10.00">x</text>
<text xml:space="preserve" text-anchor="start" x="29.25" y="-38.5" font-family="Helvetica,sans-Serif" font-size="10.00">+</text>
<text xml:space="preserve" text-anchor="start" x="64.5" y="-38.5" font-family="Helvetica,sans-Serif" font-size="10.00">y</text>
<text xml:space="preserve" text-anchor="start" x="29.25" y="-22.5" font-family="Helvetica,sans-Serif" font-size="10.00">+</text>
<text xml:space="preserve" text-anchor="start" x="64.5" y="-22.5" font-family="Helvetica,sans-Serif" font-size="10.00">Point()</text>
<text xml:space="preserve" text-anchor="start" x="29.25" y="-6.5" font-family="Helvetica,sans-Serif" font-size="10.00">+</text>
<text xml:space="preserve" text-anchor="start" x="64.5" y="-6.5" font-family="Helvetica,sans-Serif" font-size="10.00">Point()</text>
<polygon fill="#666666" stroke="#666666" points="0,-66 0,-66 147.5,-66 147.5,-66 0,-66"/>
<polygon fill="#666666" stroke="#666666" points="0,-34 0,-34 62.5,-34 62.5,-34 0,-34"/>
<polygon fill="#666666" stroke="#666666" points="62.5,-34 62.5,-34 147.5,-34 147.5,-34 62.5,-34"/>
<polygon fill="none" stroke="#666666" points="0,0 0,-96 147.5,-96 147.5,0 0,0"/>
</a>
</g>
</g>
</g>
</svg>
