<?xml version="1.0" encoding="UTF-8" standalone="no"?>
<!DOCTYPE svg PUBLIC "-//W3C//DTD SVG 1.1//EN"
 "http://www.w3.org/Graphics/SVG/1.1/DTD/svg11.dtd">
<!-- Generated by graphviz version 10.0.1 (20240210.2158)
 -->
<!-- Title: Module.hpp Pages: 1 -->
<svg width="761pt" height="152pt"
 viewBox="0.00 0.00 760.62 152.00" xmlns="http://www.w3.org/2000/svg" xmlns:xlink="http://www.w3.org/1999/xlink">
<g id="graph0" class="graph" transform="scale(1 1) rotate(0) translate(4 148)">
<title>Module.hpp</title>
<!-- Node1 -->
<g id="Node000001" class="node">
<title>Node1</title>
<g id="a_Node000001"><a xlink:title="This file contains the definition of the Module class, which is part of the Lib::Xbee::Core namespace...">
<polygon fill="#999999" stroke="#666666" points="353.38,-144 287.12,-144 287.12,-124 353.38,-124 353.38,-144"/>
<text text-anchor="middle" x="320.25" y="-130.5" font-family="Helvetica,sans-Serif" font-size="10.00">Module.hpp</text>
</a>
</g>
</g>
<!-- Node2 -->
<g id="Node000002" class="node">
<title>Node2</title>
<g id="a_Node000002"><a xlink:title=" ">
<polygon fill="#e0e0e0" stroke="#999999" points="146.5,-88 0,-88 0,-68 146.5,-68 146.5,-88"/>
<text text-anchor="middle" x="73.25" y="-74.5" font-family="Helvetica,sans-Serif" font-size="10.00">Lib/XBEE/Core/ComDriver.hpp</text>
</a>
</g>
</g>
<!-- Node1&#45;&gt;Node2 -->
<g id="edge1_Node000001_Node000002" class="edge">
<title>Node1&#45;&gt;Node2</title>
<g id="a_edge1_Node000001_Node000002"><a xlink:title=" ">
<path fill="none" stroke="#63b8ff" d="M286.68,-125.66C245.69,-116.7 175.82,-101.42 127.24,-90.8"/>
<polygon fill="#63b8ff" stroke="#63b8ff" points="128.29,-87.45 117.77,-88.73 126.79,-94.29 128.29,-87.45"/>
</a>
</g>
</g>
<!-- Node3 -->
<g id="Node000003" class="node">
<title>Node3</title>
<g id="a_Node000003"><a xlink:title=" ">
<polygon fill="#e0e0e0" stroke="#999999" points="302.38,-88 164.12,-88 164.12,-68 302.38,-68 302.38,-88"/>
<text text-anchor="middle" x="233.25" y="-74.5" font-family="Helvetica,sans-Serif" font-size="10.00">Lib/XBEE/Core/Protocol.hpp</text>
</a>
</g>
</g>
<!-- Node1&#45;&gt;Node3 -->
<g id="edge2_Node000001_Node000003" class="edge">
<title>Node1&#45;&gt;Node3</title>
<g id="a_edge2_Node000001_Node000003"><a xlink:title=" ">
<path fill="none" stroke="#63b8ff" d="M305.1,-123.59C292.2,-115.59 273.42,-103.93 258.29,-94.54"/>
<polygon fill="#63b8ff" stroke="#63b8ff" points="260.15,-91.58 249.81,-89.28 256.46,-97.53 260.15,-91.58"/>
</a>
</g>
</g>
<!-- Node4 -->
<g id="Node000004" class="node">
<title>Node4</title>
<g id="a_Node000004"><a xlink:title=" ">
<polygon fill="#e0e0e0" stroke="#999999" points="495.75,-88 320.75,-88 320.75,-68 495.75,-68 495.75,-88"/>
<text text-anchor="middle" x="408.25" y="-74.5" font-family="Helvetica,sans-Serif" font-size="10.00">Lib/XBEE/Core/ResponseEvents.hpp</text>
</a>
</g>
</g>
<!-- Node1&#45;&gt;Node4 -->
<g id="edge3_Node000001_Node000004" class="edge">
<title>Node1&#45;&gt;Node4</title>
<g id="a_edge3_Node000001_Node000004"><a xlink:title=" ">
<path fill="none" stroke="#63b8ff" d="M335.58,-123.59C348.75,-115.51 367.98,-103.71 383.36,-94.27"/>
<polygon fill="#63b8ff" stroke="#63b8ff" points="384.82,-97.48 391.51,-89.27 381.16,-91.52 384.82,-97.48"/>
</a>
</g>
</g>
<!-- Node5 -->
<g id="Node000005" class="node">
<title>Node5</title>
<g id="a_Node000005"><a xlink:href="../../dc/d57/a00194.html" target="_top" xlink:title="Defines the base class for all query types in the Xbee library.">
<polygon fill="white" stroke="#666666" points="634.38,-88 514.12,-88 514.12,-68 634.38,-68 634.38,-88"/>
<text text-anchor="middle" x="574.25" y="-74.5" font-family="Helvetica,sans-Serif" font-size="10.00">Queries/QueryBase.hpp</text>
</a>
</g>
</g>
<!-- Node1&#45;&gt;Node5 -->
<g id="edge4_Node000001_Node000005" class="edge">
<title>Node1&#45;&gt;Node5</title>
<g id="a_edge4_Node000001_Node000005"><a xlink:title=" ">
<path fill="none" stroke="#63b8ff" d="M353.72,-125.88C395.67,-116.97 468.19,-101.55 518.56,-90.84"/>
<polygon fill="#63b8ff" stroke="#63b8ff" points="519.05,-94.31 528.1,-88.81 517.59,-87.47 519.05,-94.31"/>
</a>
</g>
</g>
<!-- Node6 -->
<g id="Node000006" class="node">
<title>Node6</title>
<g id="a_Node000006"><a xlink:title=" ">
<polygon fill="#e0e0e0" stroke="#999999" points="502.62,-32 395.88,-32 395.88,0 502.62,0 502.62,-32"/>
<text text-anchor="start" x="403.88" y="-18.5" font-family="Helvetica,sans-Serif" font-size="10.00">Lib/Xbee/Core/Frame</text>
<text text-anchor="middle" x="449.25" y="-6.5" font-family="Helvetica,sans-Serif" font-size="10.00">/Data.hpp</text>
</a>
</g>
</g>
<!-- Node5&#45;&gt;Node6 -->
<g id="edge5_Node000005_Node000006" class="edge">
<title>Node5&#45;&gt;Node6</title>
<g id="a_edge5_Node000005_Node000006"><a xlink:title=" ">
<path fill="none" stroke="#63b8ff" d="M554.72,-67.62C537.84,-59.52 512.86,-47.53 491.45,-37.26"/>
<polygon fill="#63b8ff" stroke="#63b8ff" points="493.17,-34.2 482.64,-33.03 490.14,-40.51 493.17,-34.2"/>
</a>
</g>
</g>
<!-- Node7 -->
<g id="Node000007" class="node">
<title>Node7</title>
<g id="a_Node000007"><a xlink:title=" ">
<polygon fill="#e0e0e0" stroke="#999999" points="627.62,-32 520.88,-32 520.88,0 627.62,0 627.62,-32"/>
<text text-anchor="start" x="528.88" y="-18.5" font-family="Helvetica,sans-Serif" font-size="10.00">Lib/Xbee/Core/Frame</text>
<text text-anchor="middle" x="574.25" y="-6.5" font-family="Helvetica,sans-Serif" font-size="10.00">/Helper.hpp</text>
</a>
</g>
</g>
<!-- Node5&#45;&gt;Node7 -->
<g id="edge6_Node000005_Node000007" class="edge">
<title>Node5&#45;&gt;Node7</title>
<g id="a_edge6_Node000005_Node000007"><a xlink:title=" ">
<path fill="none" stroke="#63b8ff" d="M574.25,-67.62C574.25,-61.1 574.25,-52.05 574.25,-43.4"/>
<polygon fill="#63b8ff" stroke="#63b8ff" points="577.75,-43.65 574.25,-33.65 570.75,-43.65 577.75,-43.65"/>
</a>
</g>
</g>
<!-- Node8 -->
<g id="Node000008" class="node">
<title>Node8</title>
<g id="a_Node000008"><a xlink:title=" ">
<polygon fill="#e0e0e0" stroke="#999999" points="752.62,-32 645.88,-32 645.88,0 752.62,0 752.62,-32"/>
<text text-anchor="start" x="653.88" y="-18.5" font-family="Helvetica,sans-Serif" font-size="10.00">Lib/Xbee/Core/Frame</text>
<text text-anchor="middle" x="699.25" y="-6.5" font-family="Helvetica,sans-Serif" font-size="10.00">/Type.hpp</text>
</a>
</g>
</g>
<!-- Node5&#45;&gt;Node8 -->
<g id="edge7_Node000005_Node000008" class="edge">
<title>Node5&#45;&gt;Node8</title>
<g id="a_edge7_Node000005_Node000008"><a xlink:title=" ">
<path fill="none" stroke="#63b8ff" d="M593.78,-67.62C610.66,-59.52 635.64,-47.53 657.05,-37.26"/>
<polygon fill="#63b8ff" stroke="#63b8ff" points="658.36,-40.51 665.86,-33.03 655.33,-34.2 658.36,-40.51"/>
</a>
</g>
</g>
</g>
</svg>
