<?xml version="1.0" encoding="UTF-8" standalone="no"?>
<!DOCTYPE svg PUBLIC "-//W3C//DTD SVG 1.1//EN"
 "http://www.w3.org/Graphics/SVG/1.1/DTD/svg11.dtd">
<!-- Generated by graphviz version 12.2.1 (20241206.2353)
 -->
<!-- Title: Module.hpp Pages: 1 -->
<svg width="738pt" height="152pt"
 viewBox="0.00 0.00 737.88 152.00" xmlns="http://www.w3.org/2000/svg" xmlns:xlink="http://www.w3.org/1999/xlink">
<g id="graph0" class="graph" transform="scale(1 1) rotate(0) translate(4 148)">
<title>Module.hpp</title>
<!-- Node1 -->
<g id="Node000001" class="node">
<title>Node1</title>
<g id="a_Node000001"><a xlink:title="This file contains the definition of the Module class, which is part of the Lib::Digi::Core namespace...">
<polygon fill="#999999" stroke="#666666" points="342.12,-144 275.88,-144 275.88,-124 342.12,-124 342.12,-144"/>
<text text-anchor="middle" x="309" y="-130.5" font-family="Helvetica,sans-Serif" font-size="10.00">Module.hpp</text>
</a>
</g>
</g>
<!-- Node2 -->
<g id="Node000002" class="node">
<title>Node2</title>
<g id="a_Node000002"><a xlink:title=" ">
<polygon fill="#e0e0e0" stroke="#999999" points="142,-88 0,-88 0,-68 142,-68 142,-88"/>
<text text-anchor="middle" x="71" y="-74.5" font-family="Helvetica,sans-Serif" font-size="10.00">Lib/Digi/Core/ComDriver.hpp</text>
</a>
</g>
</g>
<!-- Node1&#45;&gt;Node2 -->
<g id="edge1_Node000001_Node000002" class="edge">
<title>Node1&#45;&gt;Node2</title>
<g id="a_edge1_Node000001_Node000002"><a xlink:title=" ">
<path fill="none" stroke="#63b8ff" d="M275.41,-125.38C235.99,-116.43 170.14,-101.49 123.86,-90.99"/>
<polygon fill="#63b8ff" stroke="#63b8ff" points="124.84,-87.63 114.31,-88.83 123.29,-94.45 124.84,-87.63"/>
</a>
</g>
</g>
<!-- Node3 -->
<g id="Node000003" class="node">
<title>Node3</title>
<g id="a_Node000003"><a xlink:title=" ">
<polygon fill="#e0e0e0" stroke="#999999" points="290.38,-88 159.62,-88 159.62,-68 290.38,-68 290.38,-88"/>
<text text-anchor="middle" x="225" y="-74.5" font-family="Helvetica,sans-Serif" font-size="10.00">Lib/Digi/Core/Protocol.hpp</text>
</a>
</g>
</g>
<!-- Node1&#45;&gt;Node3 -->
<g id="edge2_Node000001_Node000003" class="edge">
<title>Node1&#45;&gt;Node3</title>
<g id="a_edge2_Node000001_Node000003"><a xlink:title=" ">
<path fill="none" stroke="#63b8ff" d="M294.37,-123.59C281.92,-115.59 263.78,-103.93 249.18,-94.54"/>
<polygon fill="#63b8ff" stroke="#63b8ff" points="251.32,-91.76 241.02,-89.3 247.54,-97.65 251.32,-91.76"/>
</a>
</g>
</g>
<!-- Node4 -->
<g id="Node000004" class="node">
<title>Node4</title>
<g id="a_Node000004"><a xlink:title=" ">
<polygon fill="#e0e0e0" stroke="#999999" points="477.88,-88 308.12,-88 308.12,-68 477.88,-68 477.88,-88"/>
<text text-anchor="middle" x="393" y="-74.5" font-family="Helvetica,sans-Serif" font-size="10.00">Lib/Digi/Core/ResponseEvents.hpp</text>
</a>
</g>
</g>
<!-- Node1&#45;&gt;Node4 -->
<g id="edge3_Node000001_Node000004" class="edge">
<title>Node1&#45;&gt;Node4</title>
<g id="a_edge3_Node000001_Node000004"><a xlink:title=" ">
<path fill="none" stroke="#63b8ff" d="M323.63,-123.59C336.08,-115.59 354.22,-103.93 368.82,-94.54"/>
<polygon fill="#63b8ff" stroke="#63b8ff" points="370.46,-97.65 376.98,-89.3 366.68,-91.76 370.46,-97.65"/>
</a>
</g>
</g>
<!-- Node5 -->
<g id="Node000005" class="node">
<title>Node5</title>
<g id="a_Node000005"><a xlink:href="../../dc/d57/a00194.html" target="_top" xlink:title="Defines the base class for all query types in the Xbee library.">
<polygon fill="white" stroke="#666666" points="616.12,-88 495.88,-88 495.88,-68 616.12,-68 616.12,-88"/>
<text text-anchor="middle" x="556" y="-74.5" font-family="Helvetica,sans-Serif" font-size="10.00">Queries/QueryBase.hpp</text>
</a>
</g>
</g>
<!-- Node1&#45;&gt;Node5 -->
<g id="edge4_Node000001_Node000005" class="edge">
<title>Node1&#45;&gt;Node5</title>
<g id="a_edge4_Node000001_Node000005"><a xlink:title=" ">
<path fill="none" stroke="#63b8ff" d="M342.57,-125.66C383.56,-116.7 453.43,-101.42 502.01,-90.8"/>
<polygon fill="#63b8ff" stroke="#63b8ff" points="502.46,-94.29 511.48,-88.73 500.96,-87.45 502.46,-94.29"/>
</a>
</g>
</g>
<!-- Node6 -->
<g id="Node000006" class="node">
<title>Node6</title>
<g id="a_Node000006"><a xlink:title=" ">
<polygon fill="#e0e0e0" stroke="#999999" points="485.88,-32 382.12,-32 382.12,0 485.88,0 485.88,-32"/>
<text text-anchor="start" x="390.12" y="-18.5" font-family="Helvetica,sans-Serif" font-size="10.00">Lib/Digi/Core/Frame</text>
<text text-anchor="middle" x="434" y="-6.5" font-family="Helvetica,sans-Serif" font-size="10.00">/Data.hpp</text>
</a>
</g>
</g>
<!-- Node5&#45;&gt;Node6 -->
<g id="edge5_Node000005_Node000006" class="edge">
<title>Node5&#45;&gt;Node6</title>
<g id="a_edge5_Node000005_Node000006"><a xlink:title=" ">
<path fill="none" stroke="#63b8ff" d="M536.94,-67.62C520.54,-59.56 496.31,-47.64 475.47,-37.4"/>
<polygon fill="#63b8ff" stroke="#63b8ff" points="477.14,-34.31 466.62,-33.04 474.05,-40.6 477.14,-34.31"/>
</a>
</g>
</g>
<!-- Node7 -->
<g id="Node000007" class="node">
<title>Node7</title>
<g id="a_Node000007"><a xlink:title=" ">
<polygon fill="#e0e0e0" stroke="#999999" points="607.88,-32 504.12,-32 504.12,0 607.88,0 607.88,-32"/>
<text text-anchor="start" x="512.12" y="-18.5" font-family="Helvetica,sans-Serif" font-size="10.00">Lib/Digi/Core/Frame</text>
<text text-anchor="middle" x="556" y="-6.5" font-family="Helvetica,sans-Serif" font-size="10.00">/Helper.hpp</text>
</a>
</g>
</g>
<!-- Node5&#45;&gt;Node7 -->
<g id="edge6_Node000005_Node000007" class="edge">
<title>Node5&#45;&gt;Node7</title>
<g id="a_edge6_Node000005_Node000007"><a xlink:title=" ">
<path fill="none" stroke="#63b8ff" d="M556,-67.62C556,-61.1 556,-52.05 556,-43.4"/>
<polygon fill="#63b8ff" stroke="#63b8ff" points="559.5,-43.65 556,-33.65 552.5,-43.65 559.5,-43.65"/>
</a>
</g>
</g>
<!-- Node8 -->
<g id="Node000008" class="node">
<title>Node8</title>
<g id="a_Node000008"><a xlink:title=" ">
<polygon fill="#e0e0e0" stroke="#999999" points="729.88,-32 626.12,-32 626.12,0 729.88,0 729.88,-32"/>
<text text-anchor="start" x="634.12" y="-18.5" font-family="Helvetica,sans-Serif" font-size="10.00">Lib/Digi/Core/Frame</text>
<text text-anchor="middle" x="678" y="-6.5" font-family="Helvetica,sans-Serif" font-size="10.00">/Type.hpp</text>
</a>
</g>
</g>
<!-- Node5&#45;&gt;Node8 -->
<g id="edge7_Node000005_Node000008" class="edge">
<title>Node5&#45;&gt;Node8</title>
<g id="a_edge7_Node000005_Node000008"><a xlink:title=" ">
<path fill="none" stroke="#63b8ff" d="M575.06,-67.62C591.46,-59.56 615.69,-47.64 636.53,-37.4"/>
<polygon fill="#63b8ff" stroke="#63b8ff" points="637.95,-40.6 645.38,-33.04 634.86,-34.31 637.95,-40.6"/>
</a>
</g>
</g>
</g>
</svg>
