<?xml version="1.0" encoding="UTF-8" standalone="no"?>
<!DOCTYPE svg PUBLIC "-//W3C//DTD SVG 1.1//EN"
 "http://www.w3.org/Graphics/SVG/1.1/DTD/svg11.dtd">
<!-- Generated by graphviz version 12.2.1 (20241206.2353)
 -->
<!-- Title: Lib::Digi::Core::Frame0x01 Pages: 1 -->
<svg width="134pt" height="260pt"
 viewBox="0.00 0.00 133.75 260.00" xmlns="http://www.w3.org/2000/svg" xmlns:xlink="http://www.w3.org/1999/xlink">
<g id="graph0" class="graph" transform="scale(1 1) rotate(0) translate(4 256)">
<title>Lib::Digi::Core::Frame0x01</title>
<!-- Node1 -->
<g id="Node000001" class="node">
<title>Node1</title>
<g id="a_Node000001"><a xlink:title="Represents a frame with type 0x01 for transmitting data to a 16&#45;bit address.">
<polygon fill="#999999" stroke="none" points="125.75,-132 0,-132 0,0 125.75,0 125.75,-132"/>
<text text-anchor="start" x="4" y="-118.5" font-family="Helvetica,sans-Serif" font-size="10.00">Lib::Digi::Core::Frame0x01</text>
<text text-anchor="start" x="6.19" y="-102.5" font-family="Helvetica,sans-Serif" font-size="10.00">+</text>
<text text-anchor="start" x="18.38" y="-102.5" font-family="Helvetica,sans-Serif" font-size="10.00">frameId</text>
<text text-anchor="start" x="6.19" y="-86.5" font-family="Helvetica,sans-Serif" font-size="10.00">+</text>
<text text-anchor="start" x="18.38" y="-86.5" font-family="Helvetica,sans-Serif" font-size="10.00">dstAddress</text>
<text text-anchor="start" x="6.19" y="-70.5" font-family="Helvetica,sans-Serif" font-size="10.00">+</text>
<text text-anchor="start" x="18.38" y="-70.5" font-family="Helvetica,sans-Serif" font-size="10.00">options</text>
<text text-anchor="start" x="6.19" y="-54.5" font-family="Helvetica,sans-Serif" font-size="10.00">+</text>
<text text-anchor="start" x="18.38" y="-54.5" font-family="Helvetica,sans-Serif" font-size="10.00">rfData</text>
<text text-anchor="start" x="6.19" y="-38.5" font-family="Helvetica,sans-Serif" font-size="10.00">+</text>
<text text-anchor="start" x="18.38" y="-38.5" font-family="Helvetica,sans-Serif" font-size="10.00">Frame0x01()</text>
<text text-anchor="start" x="6.19" y="-22.5" font-family="Helvetica,sans-Serif" font-size="10.00">+</text>
<text text-anchor="start" x="18.38" y="-22.5" font-family="Helvetica,sans-Serif" font-size="10.00">~Frame0x01()</text>
<text text-anchor="start" x="6.19" y="-6.5" font-family="Helvetica,sans-Serif" font-size="10.00">+</text>
<text text-anchor="start" x="18.38" y="-6.5" font-family="Helvetica,sans-Serif" font-size="10.00">operator Frame::Data()</text>
<polygon fill="#666666" stroke="#666666" points="0,-114 0,-114 125.75,-114 125.75,-114 0,-114"/>
<polygon fill="#666666" stroke="#666666" points="0,-50 0,-50 16.38,-50 16.38,-50 0,-50"/>
<polygon fill="#666666" stroke="#666666" points="16.38,-50 16.38,-50 125.75,-50 125.75,-50 16.38,-50"/>
<polygon fill="none" stroke="#666666" points="0,0 0,-132 125.75,-132 125.75,0 0,0"/>
</a>
</g>
</g>
<!-- Node2 -->
<g id="Node000002" class="node">
<title>Node2</title>
<g id="a_Node000002"><a xlink:href="../../d8/d7a/a01292.html" target="_top" xlink:title="An abstract base class for query objects.">
<polygon fill="white" stroke="none" points="125.75,-252 0,-252 0,-168 125.75,-168 125.75,-252"/>
<text text-anchor="start" x="4" y="-238.5" font-family="Helvetica,sans-Serif" font-size="10.00">Lib::Digi::Core::QueryBase</text>
<text text-anchor="start" x="61.38" y="-222.5" font-family="Helvetica,sans-Serif" font-size="10.00"> </text>
<text text-anchor="start" x="6.19" y="-206.5" font-family="Helvetica,sans-Serif" font-size="10.00">+</text>
<text text-anchor="start" x="18.38" y="-206.5" font-family="Helvetica,sans-Serif" font-size="10.00">operator Frame::Data()</text>
<text text-anchor="start" x="6.56" y="-190.5" font-family="Helvetica,sans-Serif" font-size="10.00">#</text>
<text text-anchor="start" x="18.38" y="-190.5" font-family="Helvetica,sans-Serif" font-size="10.00">QueryBase()</text>
<text text-anchor="start" x="6.56" y="-174.5" font-family="Helvetica,sans-Serif" font-size="10.00">#</text>
<text text-anchor="start" x="18.38" y="-174.5" font-family="Helvetica,sans-Serif" font-size="10.00">~QueryBase()</text>
<polygon fill="#666666" stroke="#666666" points="0,-234 0,-234 125.75,-234 125.75,-234 0,-234"/>
<polygon fill="#666666" stroke="#666666" points="0,-218 0,-218 125.75,-218 125.75,-218 0,-218"/>
<polygon fill="none" stroke="#666666" points="0,-168 0,-252 125.75,-252 125.75,-168 0,-168"/>
</a>
</g>
</g>
<!-- Node2&#45;&gt;Node1 -->
<g id="edge1_Node000001_Node000002" class="edge">
<title>Node2&#45;&gt;Node1</title>
<g id="a_edge1_Node000001_Node000002"><a xlink:title=" ">
<path fill="none" stroke="#63b8ff" d="M62.88,-157.02C62.88,-148.82 62.88,-140.27 62.88,-131.82"/>
<polygon fill="none" stroke="#63b8ff" points="59.38,-156.79 62.88,-166.79 66.38,-156.79 59.38,-156.79"/>
</a>
</g>
</g>
</g>
</svg>
