<?xml version="1.0" encoding="UTF-8" standalone="no"?>
<!DOCTYPE svg PUBLIC "-//W3C//DTD SVG 1.1//EN"
 "http://www.w3.org/Graphics/SVG/1.1/DTD/svg11.dtd">
<!-- Generated by graphviz version 10.0.1 (20240210.2158)
 -->
<!-- Title: Frame0x8a.hpp Pages: 1 -->
<svg width="240pt" height="96pt"
 viewBox="0.00 0.00 239.75 96.00" xmlns="http://www.w3.org/2000/svg" xmlns:xlink="http://www.w3.org/1999/xlink">
<g id="graph0" class="graph" transform="scale(1 1) rotate(0) translate(4 92)">
<title>Frame0x8a.hpp</title>
<!-- Node1 -->
<g id="Node000001" class="node">
<title>Node1</title>
<g id="a_Node000001"><a xlink:title="Defines the Frame0x8a class which represents a specific type of frame response from the XBee module.">
<polygon fill="#999999" stroke="#666666" points="157.12,-88 73.62,-88 73.62,-68 157.12,-68 157.12,-88"/>
<text text-anchor="middle" x="115.38" y="-74.5" font-family="Helvetica,sans-Serif" font-size="10.00">Frame0x8a.hpp</text>
</a>
</g>
</g>
<!-- Node2 -->
<g id="Node000002" class="node">
<title>Node2</title>
<g id="a_Node000002"><a xlink:title=" ">
<polygon fill="#e0e0e0" stroke="#999999" points="106.75,-32 0,-32 0,0 106.75,0 106.75,-32"/>
<text text-anchor="start" x="8" y="-18.5" font-family="Helvetica,sans-Serif" font-size="10.00">Lib/Xbee/Core/Frame</text>
<text text-anchor="middle" x="53.38" y="-6.5" font-family="Helvetica,sans-Serif" font-size="10.00">/Data.hpp</text>
</a>
</g>
</g>
<!-- Node1&#45;&gt;Node2 -->
<g id="edge1_Node000001_Node000002" class="edge">
<title>Node1&#45;&gt;Node2</title>
<g id="a_edge1_Node000001_Node000002"><a xlink:title=" ">
<path fill="none" stroke="#63b8ff" d="M105.69,-67.62C98.02,-60.21 86.99,-49.53 77.04,-39.9"/>
<polygon fill="#63b8ff" stroke="#63b8ff" points="79.73,-37.63 70.11,-33.19 74.86,-42.66 79.73,-37.63"/>
</a>
</g>
</g>
<!-- Node3 -->
<g id="Node000003" class="node">
<title>Node3</title>
<g id="a_Node000003"><a xlink:title=" ">
<polygon fill="#e0e0e0" stroke="#999999" points="231.75,-32 125,-32 125,0 231.75,0 231.75,-32"/>
<text text-anchor="start" x="133" y="-18.5" font-family="Helvetica,sans-Serif" font-size="10.00">Lib/Xbee/Core/Frame</text>
<text text-anchor="middle" x="178.38" y="-6.5" font-family="Helvetica,sans-Serif" font-size="10.00">/Helper.hpp</text>
</a>
</g>
</g>
<!-- Node1&#45;&gt;Node3 -->
<g id="edge2_Node000001_Node000003" class="edge">
<title>Node1&#45;&gt;Node3</title>
<g id="a_edge2_Node000001_Node000003"><a xlink:title=" ">
<path fill="none" stroke="#63b8ff" d="M125.22,-67.62C133.01,-60.21 144.21,-49.53 154.33,-39.9"/>
<polygon fill="#63b8ff" stroke="#63b8ff" points="156.55,-42.62 161.38,-33.18 151.73,-37.55 156.55,-42.62"/>
</a>
</g>
</g>
</g>
</svg>
