<?xml version="1.0" encoding="UTF-8" standalone="no"?>
<!DOCTYPE svg PUBLIC "-//W3C//DTD SVG 1.1//EN"
 "http://www.w3.org/Graphics/SVG/1.1/DTD/svg11.dtd">
<!-- Generated by graphviz version 13.1.0 (20250701.0955)
 -->
<!-- Title: Lib::HAL::I2C::Master::Port&lt; BLOCK &gt; Pages: 1 -->
<svg width="152pt" height="174pt"
 viewBox="0.00 0.00 152.00 174.00" xmlns="http://www.w3.org/2000/svg" xmlns:xlink="http://www.w3.org/1999/xlink">
<g id="graph0" class="graph" transform="scale(1 1) rotate(0) translate(4 170)">
<title>Lib::HAL::I2C::Master::Port&lt; BLOCK &gt;</title>
<!-- Node1 -->
<g id="Node000001" class="node">
<title>Node1</title>
<g id="a_Node000001"><a xlink:title="I2C master port block mode specialization for STM32 synchronous operations.">
<polygon fill="#999999" stroke="none" points="94.25,-29 0,-29 0,0 94.25,0 94.25,-29"/>
<text xml:space="preserve" text-anchor="start" x="4" y="-16.45" font-family="Arial" font-size="9.00">Lib::HAL::I2C::Master</text>
<text xml:space="preserve" text-anchor="start" x="13.75" y="-5.95" font-family="Arial" font-size="9.00">::Port&lt; BLOCK &gt;</text>
<polygon fill="none" stroke="#666666" points="0,0 0,-29 94.25,-29 94.25,0 0,0"/>
</a>
</g>
</g>
<!-- Node2 -->
<g id="Node000002" class="node">
<title>Node2</title>
<g id="a_Node000002"><a xlink:href="../../d5/d81/a01579.html" target="_top" xlink:title="I2C master abstract base class.">
<polygon fill="white" stroke="none" points="94.25,-95 0,-95 0,-66 94.25,-66 94.25,-95"/>
<text xml:space="preserve" text-anchor="start" x="4" y="-82.45" font-family="Arial" font-size="9.00">Lib::HAL::I2C::Master</text>
<text xml:space="preserve" text-anchor="start" x="34.38" y="-71.95" font-family="Arial" font-size="9.00">::Base</text>
<polygon fill="none" stroke="#666666" points="0,-66 0,-95 94.25,-95 94.25,-66 0,-66"/>
</a>
</g>
</g>
<!-- Node2&#45;&gt;Node1 -->
<g id="edge1_Node000001_Node000002" class="edge">
<title>Node2&#45;&gt;Node1</title>
<g id="a_edge1_Node000001_Node000002"><a xlink:title=" ">
<path fill="none" stroke="#63b8ff" d="M47.12,-54.89C47.12,-45.99 47.12,-36.29 47.12,-28.74"/>
<polygon fill="none" stroke="#63b8ff" points="43.63,-54.73 47.13,-64.73 50.63,-54.73 43.63,-54.73"/>
</a>
</g>
</g>
<!-- Node3 -->
<g id="Node000003" class="node">
<title>Node3</title>
<g id="a_Node000003"><a xlink:title=" ">
<polygon fill="white" stroke="none" points="67.62,-166 26.62,-166 26.62,-147.5 67.62,-147.5 67.62,-166"/>
<text xml:space="preserve" text-anchor="start" x="30.62" y="-153.45" font-family="Arial" font-size="9.00">uint32_t</text>
<polygon fill="none" stroke="#bfbfbf" points="26.62,-147.5 26.62,-166 67.62,-166 67.62,-147.5 26.62,-147.5"/>
</a>
</g>
</g>
<!-- Node3&#45;&gt;Node2 -->
<g id="edge2_Node000002_Node000003" class="edge">
<title>Node3&#45;&gt;Node2</title>
<g id="a_edge2_Node000002_Node000003"><a xlink:title=" ">
<path fill="none" stroke="#63b8ff" d="M47.12,-147.52C47.12,-137.95 47.12,-121.67 47.12,-107.67"/>
<polygon fill="none" stroke="#63b8ff" points="47.13,-107.67 43.13,-101.67 47.13,-95.67 51.13,-101.67 47.13,-107.67"/>
</a>
</g>
<text xml:space="preserve" text-anchor="start" x="50.12" y="-117.95" font-family="Arial" font-size="9.00" fill="grey">+DEFAULT_TIMEOUT</text>
</g>
</g>
</svg>
