<?xml version="1.0" encoding="UTF-8" standalone="no"?>
<!DOCTYPE svg PUBLIC "-//W3C//DTD SVG 1.1//EN"
 "http://www.w3.org/Graphics/SVG/1.1/DTD/svg11.dtd">
<!-- Generated by graphviz version 13.1.0 (20250701.0955)
 -->
<!-- Title: Lib::Helper::DateTime::Date::isValid Pages: 1 -->
<svg width="637pt" height="46pt"
 viewBox="0.00 0.00 637.00 46.00" xmlns="http://www.w3.org/2000/svg" xmlns:xlink="http://www.w3.org/1999/xlink">
<g id="graph0" class="graph" transform="scale(1 1) rotate(0) translate(4 42)">
<title>Lib::Helper::DateTime::Date::isValid</title>
<!-- Node1 -->
<g id="Node000001" class="node">
<title>Node1</title>
<g id="a_Node000001"><a xlink:title="Check if date is valid.">
<polygon fill="#999999" stroke="#666666" points="173.5,-20 0,-20 0,0 173.5,0 173.5,-20"/>
<text xml:space="preserve" text-anchor="middle" x="86.75" y="-6.5" font-family="Helvetica,sans-Serif" font-size="10.00">Lib::Helper::DateTime::Date::isValid</text>
</a>
</g>
</g>
<!-- Node2 -->
<g id="Node000002" class="node">
<title>Node2</title>
<g id="a_Node000002"><a xlink:href="../../d7/d3b/class_lib_1_1_helper_1_1_date_time_1_1_date.html#a591f8f973adee8639a72fecbcc604a80" target="_top" xlink:title="Get days in month for a date.">
<polygon fill="white" stroke="#666666" points="426.5,-20 209.5,-20 209.5,0 426.5,0 426.5,-20"/>
<text xml:space="preserve" text-anchor="middle" x="318" y="-6.5" font-family="Helvetica,sans-Serif" font-size="10.00">Lib::Helper::DateTime::Date::getDaysInMonth</text>
</a>
</g>
</g>
<!-- Node1&#45;&gt;Node2 -->
<g id="edge1_Node000001_Node000002" class="edge">
<title>Node1&#45;&gt;Node2</title>
<g id="a_edge1_Node000001_Node000002"><a xlink:title=" ">
<path fill="none" stroke="#63b8ff" d="M173.77,-10C181.62,-10 189.67,-10 197.76,-10"/>
<polygon fill="#63b8ff" stroke="#63b8ff" points="197.67,-13.5 207.67,-10 197.67,-6.5 197.67,-13.5"/>
</a>
</g>
</g>
<!-- Node2&#45;&gt;Node2 -->
<g id="edge3_Node000002_Node000002" class="edge">
<title>Node2&#45;&gt;Node2</title>
<g id="a_edge3_Node000002_Node000002"><a xlink:title=" ">
<path fill="none" stroke="#63b8ff" d="M281.59,-20.48C266.54,-29.08 278.68,-38 318,-38 340.12,-38 353.64,-35.18 358.55,-31.18"/>
<polygon fill="#63b8ff" stroke="#63b8ff" points="361.83,-29.95 354.95,-21.9 355.3,-32.48 361.83,-29.95"/>
</a>
</g>
</g>
<!-- Node3 -->
<g id="Node000003" class="node">
<title>Node3</title>
<g id="a_Node000003"><a xlink:href="../../d7/d3b/class_lib_1_1_helper_1_1_date_time_1_1_date.html#a8ea7578d44142ead5cb00363bc428d8c" target="_top" xlink:title="Default constructor of Date class.">
<polygon fill="white" stroke="#666666" points="628.5,-20 462.5,-20 462.5,0 628.5,0 628.5,-20"/>
<text xml:space="preserve" text-anchor="middle" x="545.5" y="-6.5" font-family="Helvetica,sans-Serif" font-size="10.00">Lib::Helper::DateTime::Date::Date</text>
</a>
</g>
</g>
<!-- Node2&#45;&gt;Node3 -->
<g id="edge2_Node000002_Node000003" class="edge">
<title>Node2&#45;&gt;Node3</title>
<g id="a_edge2_Node000002_Node000003"><a xlink:title=" ">
<path fill="none" stroke="#63b8ff" d="M426.8,-10C434.79,-10 442.81,-10 450.7,-10"/>
<polygon fill="#63b8ff" stroke="#63b8ff" points="450.64,-13.5 460.64,-10 450.64,-6.5 450.64,-13.5"/>
</a>
</g>
</g>
</g>
</svg>
