<?xml version="1.0" encoding="UTF-8" standalone="no"?>
<!DOCTYPE svg PUBLIC "-//W3C//DTD SVG 1.1//EN"
 "http://www.w3.org/Graphics/SVG/1.1/DTD/svg11.dtd">
<!-- Generated by graphviz version 13.1.0 (20250701.0955)
 -->
<!-- Title: Lib::Helper::DateTime::Date::getDayOfWeekShortString Pages: 1 -->
<svg width="516pt" height="84pt"
 viewBox="0.00 0.00 516.00 84.00" xmlns="http://www.w3.org/2000/svg" xmlns:xlink="http://www.w3.org/1999/xlink">
<g id="graph0" class="graph" transform="scale(1 1) rotate(0) translate(4 80)">
<title>Lib::Helper::DateTime::Date::getDayOfWeekShortString</title>
<!-- Node1 -->
<g id="Node000001" class="node">
<title>Node1</title>
<g id="a_Node000001"><a xlink:title="Get short string for day of week.">
<polygon fill="#999999" stroke="#666666" points="260.5,-48 0,-48 0,-28 260.5,-28 260.5,-48"/>
<text xml:space="preserve" text-anchor="middle" x="130.25" y="-34.5" font-family="Helvetica,sans-Serif" font-size="10.00">Lib::Helper::DateTime::Date::getDayOfWeekShortString</text>
</a>
</g>
</g>
<!-- Node2 -->
<g id="Node000002" class="node">
<title>Node2</title>
<g id="a_Node000002"><a xlink:href="../../d7/d3b/class_lib_1_1_helper_1_1_date_time_1_1_date.html#a8ea7578d44142ead5cb00363bc428d8c" target="_top" xlink:title="Default constructor of Date class.">
<polygon fill="white" stroke="#666666" points="485.38,-76 319.38,-76 319.38,-56 485.38,-56 485.38,-76"/>
<text xml:space="preserve" text-anchor="middle" x="402.38" y="-62.5" font-family="Helvetica,sans-Serif" font-size="10.00">Lib::Helper::DateTime::Date::Date</text>
</a>
</g>
</g>
<!-- Node1&#45;&gt;Node2 -->
<g id="edge1_Node000001_Node000002" class="edge">
<title>Node1&#45;&gt;Node2</title>
<g id="a_edge1_Node000001_Node000002"><a xlink:title=" ">
<path fill="none" stroke="#63b8ff" d="M232.22,-48.47C256.93,-51.03 283.27,-53.76 307.62,-56.28"/>
<polygon fill="#63b8ff" stroke="#63b8ff" points="307.22,-59.76 317.52,-57.31 307.94,-52.8 307.22,-59.76"/>
</a>
</g>
</g>
<!-- Node3 -->
<g id="Node000003" class="node">
<title>Node3</title>
<g id="a_Node000003"><a xlink:href="../../d7/d3b/class_lib_1_1_helper_1_1_date_time_1_1_date.html#a6946c03ed390214a0881dffde16bd665" target="_top" xlink:title="Get day of week for this date.">
<polygon fill="white" stroke="#666666" points="508.25,-20 296.5,-20 296.5,0 508.25,0 508.25,-20"/>
<text xml:space="preserve" text-anchor="middle" x="402.38" y="-6.5" font-family="Helvetica,sans-Serif" font-size="10.00">Lib::Helper::DateTime::Date::getDayOfWeek</text>
</a>
</g>
</g>
<!-- Node1&#45;&gt;Node3 -->
<g id="edge2_Node000001_Node000003" class="edge">
<title>Node1&#45;&gt;Node3</title>
<g id="a_edge2_Node000001_Node000003"><a xlink:title=" ">
<path fill="none" stroke="#63b8ff" d="M232.22,-27.53C250.67,-25.62 270.03,-23.61 288.8,-21.67"/>
<polygon fill="#63b8ff" stroke="#63b8ff" points="288.99,-25.17 298.57,-20.66 288.27,-18.21 288.99,-25.17"/>
</a>
</g>
</g>
<!-- Node3&#45;&gt;Node3 -->
<g id="edge3_Node000003_Node000003" class="edge">
<title>Node3&#45;&gt;Node3</title>
<g id="a_edge3_Node000003_Node000003"><a xlink:title=" ">
<path fill="none" stroke="#63b8ff" d="M358.83,-20.48C340.82,-29.08 355.34,-38 402.38,-38 431.04,-38 447.63,-34.69 452.14,-30.15"/>
<polygon fill="#63b8ff" stroke="#63b8ff" points="455.09,-28.28 446.74,-21.76 449.2,-32.06 455.09,-28.28"/>
</a>
</g>
</g>
</g>
</svg>
