<?xml version="1.0" encoding="UTF-8" standalone="no"?>
<!DOCTYPE svg PUBLIC "-//W3C//DTD SVG 1.1//EN"
 "http://www.w3.org/Graphics/SVG/1.1/DTD/svg11.dtd">
<!-- Generated by graphviz version 12.2.1 (20241206.2353)
 -->
<!-- Title: ADC.hpp Pages: 1 -->
<svg width="569pt" height="208pt"
 viewBox="0.00 0.00 568.75 208.00" xmlns="http://www.w3.org/2000/svg" xmlns:xlink="http://www.w3.org/1999/xlink">
<g id="graph0" class="graph" transform="scale(1 1) rotate(0) translate(4 204)">
<title>ADC.hpp</title>
<!-- Node1 -->
<g id="Node000001" class="node">
<title>Node1</title>
<g id="a_Node000001"><a xlink:title="Header file for ADC (Analog&#45;to&#45;Digital Converter) port configuration.">
<polygon fill="#999999" stroke="#666666" points="222.88,-200 166.38,-200 166.38,-180 222.88,-180 222.88,-200"/>
<text text-anchor="middle" x="194.62" y="-186.5" font-family="Helvetica,sans-Serif" font-size="10.00">ADC.hpp</text>
</a>
</g>
</g>
<!-- Node2 -->
<g id="Node000002" class="node">
<title>Node2</title>
<g id="a_Node000002"><a xlink:href="../../db/dab/a00089.html" target="_top" xlink:title="Header file for the ADC Port Block class.">
<polygon fill="white" stroke="#666666" points="123.25,-144 0,-144 0,-124 123.25,-124 123.25,-144"/>
<text text-anchor="middle" x="61.62" y="-130.5" font-family="Helvetica,sans-Serif" font-size="10.00">HAL/Adc/Port&#45;Block.hpp</text>
</a>
</g>
</g>
<!-- Node1&#45;&gt;Node2 -->
<g id="edge1_Node000001_Node000002" class="edge">
<title>Node1&#45;&gt;Node2</title>
<g id="a_edge1_Node000001_Node000002"><a xlink:title=" ">
<path fill="none" stroke="#63b8ff" d="M171.46,-179.59C150.42,-171.05 119.13,-158.35 95.32,-148.68"/>
<polygon fill="#63b8ff" stroke="#63b8ff" points="96.96,-145.57 86.37,-145.05 94.32,-152.05 96.96,-145.57"/>
</a>
</g>
</g>
<!-- Node3 -->
<g id="Node000003" class="node">
<title>Node3</title>
<g id="a_Node000003"><a xlink:href="../../d1/dc1/a00092.html" target="_top" xlink:title=" ">
<polygon fill="white" stroke="#666666" points="387.12,-144 266.12,-144 266.12,-124 387.12,-124 387.12,-144"/>
<text text-anchor="middle" x="326.62" y="-130.5" font-family="Helvetica,sans-Serif" font-size="10.00">HAL/Adc/Port&#45;DMA.hpp</text>
</a>
</g>
</g>
<!-- Node1&#45;&gt;Node3 -->
<g id="edge2_Node000001_Node000003" class="edge">
<title>Node1&#45;&gt;Node3</title>
<g id="a_edge2_Node000001_Node000003"><a xlink:title=" ">
<path fill="none" stroke="#63b8ff" d="M217.62,-179.59C238.41,-171.09 269.28,-158.46 292.86,-148.81"/>
<polygon fill="#63b8ff" stroke="#63b8ff" points="294.12,-152.08 302.05,-145.05 291.47,-145.6 294.12,-152.08"/>
</a>
</g>
</g>
<!-- Node9 -->
<g id="Node000009" class="node">
<title>Node9</title>
<g id="a_Node000009"><a xlink:href="../../d9/d77/a00095.html" target="_top" xlink:title="Header file for the ADC Port Interrupt (IT) class.">
<polygon fill="white" stroke="#666666" points="248,-144 141.25,-144 141.25,-124 248,-124 248,-144"/>
<text text-anchor="middle" x="194.62" y="-130.5" font-family="Helvetica,sans-Serif" font-size="10.00">HAL/Adc/Port&#45;IT.hpp</text>
</a>
</g>
</g>
<!-- Node1&#45;&gt;Node9 -->
<g id="edge8_Node000001_Node000009" class="edge">
<title>Node1&#45;&gt;Node9</title>
<g id="a_edge8_Node000001_Node000009"><a xlink:title=" ">
<path fill="none" stroke="#63b8ff" d="M194.62,-179.59C194.62,-173.01 194.62,-163.96 194.62,-155.73"/>
<polygon fill="#63b8ff" stroke="#63b8ff" points="198.13,-155.81 194.63,-145.81 191.13,-155.81 198.13,-155.81"/>
</a>
</g>
</g>
<!-- Node4 -->
<g id="Node000004" class="node">
<title>Node4</title>
<g id="a_Node000004"><a xlink:href="../../d2/d1f/a00083.html" target="_top" xlink:title="Header file for the ADC Port template class.">
<polygon fill="white" stroke="#666666" points="398.12,-82 247.12,-82 247.12,-62 398.12,-62 398.12,-82"/>
<text text-anchor="middle" x="322.62" y="-68.5" font-family="Helvetica,sans-Serif" font-size="10.00">Components/PortTemplate.hpp</text>
</a>
</g>
</g>
<!-- Node3&#45;&gt;Node4 -->
<g id="edge3_Node000003_Node000004" class="edge">
<title>Node3&#45;&gt;Node4</title>
<g id="a_edge3_Node000003_Node000004"><a xlink:title=" ">
<path fill="none" stroke="#63b8ff" d="M326,-123.62C325.46,-115.56 324.67,-103.65 323.99,-93.41"/>
<polygon fill="#63b8ff" stroke="#63b8ff" points="327.49,-93.37 323.33,-83.62 320.51,-93.83 327.49,-93.37"/>
</a>
</g>
</g>
<!-- Node6 -->
<g id="Node000006" class="node">
<title>Node6</title>
<g id="a_Node000006"><a xlink:href="../../da/d2a/a00086.html" target="_top" xlink:title="This file contains the definition of the PortTransparentBase class, which is a base class for ADC por...">
<polygon fill="white" stroke="#666666" points="560.75,-88 416.5,-88 416.5,-56 560.75,-56 560.75,-88"/>
<text text-anchor="start" x="424.5" y="-74.5" font-family="Helvetica,sans-Serif" font-size="10.00">Components/PortTransparent</text>
<text text-anchor="middle" x="488.62" y="-62.5" font-family="Helvetica,sans-Serif" font-size="10.00">Base.hpp</text>
</a>
</g>
</g>
<!-- Node3&#45;&gt;Node6 -->
<g id="edge5_Node000003_Node000006" class="edge">
<title>Node3&#45;&gt;Node6</title>
<g id="a_edge5_Node000003_Node000006"><a xlink:title=" ">
<path fill="none" stroke="#63b8ff" d="M351.94,-123.62C374.43,-115.3 408.02,-102.86 436.27,-92.39"/>
<polygon fill="#63b8ff" stroke="#63b8ff" points="437.22,-95.77 445.38,-89.02 434.79,-89.21 437.22,-95.77"/>
</a>
</g>
</g>
<!-- Node7 -->
<g id="Node000007" class="node">
<title>Node7</title>
<g id="a_Node000007"><a xlink:title=" ">
<polygon fill="#e0e0e0" stroke="#999999" points="149.62,-82 91.62,-82 91.62,-62 149.62,-62 149.62,-82"/>
<text text-anchor="middle" x="120.62" y="-68.5" font-family="Helvetica,sans-Serif" font-size="10.00">functional</text>
</a>
</g>
</g>
<!-- Node3&#45;&gt;Node7 -->
<g id="edge6_Node000003_Node000007" class="edge">
<title>Node3&#45;&gt;Node7</title>
<g id="a_edge6_Node000003_Node000007"><a xlink:title=" ">
<path fill="none" stroke="#63b8ff" d="M286.19,-123.55C251.92,-115.21 201.63,-102.2 158.62,-88 157.07,-87.49 155.48,-86.94 153.88,-86.38"/>
<polygon fill="#63b8ff" stroke="#63b8ff" points="155.39,-83.2 144.8,-83 152.95,-89.76 155.39,-83.2"/>
</a>
</g>
</g>
<!-- Node8 -->
<g id="Node000008" class="node">
<title>Node8</title>
<g id="a_Node000008"><a xlink:title=" ">
<polygon fill="#e0e0e0" stroke="#999999" points="229.5,-82 167.75,-82 167.75,-62 229.5,-62 229.5,-82"/>
<text text-anchor="middle" x="198.62" y="-68.5" font-family="Helvetica,sans-Serif" font-size="10.00">RTOS.hpp</text>
</a>
</g>
</g>
<!-- Node3&#45;&gt;Node8 -->
<g id="edge7_Node000003_Node000008" class="edge">
<title>Node3&#45;&gt;Node8</title>
<g id="a_edge7_Node000003_Node000008"><a xlink:title=" ">
<path fill="none" stroke="#63b8ff" d="M306.62,-123.62C285.77,-113.85 252.84,-98.41 228.82,-87.15"/>
<polygon fill="#63b8ff" stroke="#63b8ff" points="230.4,-84.03 219.86,-82.95 227.42,-90.37 230.4,-84.03"/>
</a>
</g>
</g>
<!-- Node5 -->
<g id="Node000005" class="node">
<title>Node5</title>
<g id="a_Node000005"><a xlink:href="../../d7/d06/a00131.html" target="_top" xlink:title="This file contains the definition of the DriverMode enumeration.">
<polygon fill="white" stroke="#666666" points="397.75,-20 247.5,-20 247.5,0 397.75,0 397.75,-20"/>
<text text-anchor="middle" x="322.62" y="-6.5" font-family="Helvetica,sans-Serif" font-size="10.00">HAL\Common\DriverMode.hpp</text>
</a>
</g>
</g>
<!-- Node4&#45;&gt;Node5 -->
<g id="edge4_Node000004_Node000005" class="edge">
<title>Node4&#45;&gt;Node5</title>
<g id="a_edge4_Node000004_Node000005"><a xlink:title=" ">
<path fill="none" stroke="#63b8ff" d="M322.62,-61.62C322.62,-53.56 322.62,-41.65 322.62,-31.41"/>
<polygon fill="#63b8ff" stroke="#63b8ff" points="326.13,-31.63 322.63,-21.63 319.13,-31.63 326.13,-31.63"/>
</a>
</g>
</g>
<!-- Node9&#45;&gt;Node4 -->
<g id="edge9_Node000009_Node000004" class="edge">
<title>Node9&#45;&gt;Node4</title>
<g id="a_edge9_Node000009_Node000004"><a xlink:title=" ">
<path fill="none" stroke="#63b8ff" d="M214.62,-123.62C235.48,-113.85 268.41,-98.41 292.43,-87.15"/>
<polygon fill="#63b8ff" stroke="#63b8ff" points="293.83,-90.37 301.39,-82.95 290.85,-84.03 293.83,-90.37"/>
</a>
</g>
</g>
<!-- Node9&#45;&gt;Node6 -->
<g id="edge10_Node000009_Node000006" class="edge">
<title>Node9&#45;&gt;Node6</title>
<g id="a_edge10_Node000009_Node000006"><a xlink:title=" ">
<path fill="none" stroke="#63b8ff" d="M240.89,-123.56C284.74,-114.61 351.65,-100.95 404.88,-90.09"/>
<polygon fill="#63b8ff" stroke="#63b8ff" points="405.44,-93.55 414.54,-88.12 404.04,-86.69 405.44,-93.55"/>
</a>
</g>
</g>
<!-- Node9&#45;&gt;Node7 -->
<g id="edge11_Node000009_Node000007" class="edge">
<title>Node9&#45;&gt;Node7</title>
<g id="a_edge11_Node000009_Node000007"><a xlink:title=" ">
<path fill="none" stroke="#63b8ff" d="M183.06,-123.62C171.7,-114.41 154.14,-100.17 140.53,-89.14"/>
<polygon fill="#63b8ff" stroke="#63b8ff" points="143.01,-86.65 133.04,-83.07 138.6,-92.08 143.01,-86.65"/>
</a>
</g>
</g>
<!-- Node9&#45;&gt;Node8 -->
<g id="edge12_Node000009_Node000008" class="edge">
<title>Node9&#45;&gt;Node8</title>
<g id="a_edge12_Node000009_Node000008"><a xlink:title=" ">
<path fill="none" stroke="#63b8ff" d="M195.25,-123.62C195.79,-115.56 196.58,-103.65 197.26,-93.41"/>
<polygon fill="#63b8ff" stroke="#63b8ff" points="200.74,-93.83 197.92,-83.62 193.76,-93.37 200.74,-93.83"/>
</a>
</g>
</g>
</g>
</svg>
