<?xml version="1.0" encoding="UTF-8" standalone="no"?>
<!DOCTYPE svg PUBLIC "-//W3C//DTD SVG 1.1//EN"
 "http://www.w3.org/Graphics/SVG/1.1/DTD/svg11.dtd">
<!-- Generated by graphviz version 13.1.0 (20250701.0955)
 -->
<!-- Title: RTOS::StreamBuffer::getSpacesAvailable Pages: 1 -->
<svg width="646pt" height="66pt"
 viewBox="0.00 0.00 646.00 66.00" xmlns="http://www.w3.org/2000/svg" xmlns:xlink="http://www.w3.org/1999/xlink">
<g id="graph0" class="graph" transform="scale(1 1) rotate(0) translate(4 62)">
<title>RTOS::StreamBuffer::getSpacesAvailable</title>
<!-- Node1 -->
<g id="Node000001" class="node">
<title>Node1</title>
<g id="a_Node000001"><a xlink:title="Get number of spaces available.">
<polygon fill="#999999" stroke="#666666" points="637.5,-39 439.25,-39 439.25,-19 637.5,-19 637.5,-39"/>
<text xml:space="preserve" text-anchor="middle" x="538.38" y="-25.5" font-family="Helvetica,sans-Serif" font-size="10.00">RTOS::StreamBuffer::getSpacesAvailable</text>
</a>
</g>
</g>
<!-- Node2 -->
<g id="Node000002" class="node">
<title>Node2</title>
<g id="a_Node000002"><a xlink:href="../../dd/d70/class_r_t_o_s_1_1_stream_buffer.html#a359ba2c48f8e848d35c11f6204fac2be" target="_top" xlink:title="Get the buffer capacity.">
<polygon fill="white" stroke="#666666" points="403.25,-58 238.75,-58 238.75,-38 403.25,-38 403.25,-58"/>
<text xml:space="preserve" text-anchor="middle" x="321" y="-44.5" font-family="Helvetica,sans-Serif" font-size="10.00">RTOS::StreamBuffer::getCapacity</text>
</a>
</g>
</g>
<!-- Node1&#45;&gt;Node2 -->
<g id="edge1_Node000001_Node000002" class="edge">
<title>Node1&#45;&gt;Node2</title>
<g id="a_edge1_Node000001_Node000002"><a xlink:title=" ">
<path fill="none" stroke="#63b8ff" d="M427.52,-38.69C419.51,-39.4 411.53,-40.1 403.73,-40.79"/>
<polygon fill="#63b8ff" stroke="#63b8ff" points="427.67,-42.19 437.32,-37.83 427.05,-35.22 427.67,-42.19"/>
</a>
</g>
</g>
<!-- Node4 -->
<g id="Node000004" class="node">
<title>Node4</title>
<g id="a_Node000004"><a xlink:href="../../dd/d70/class_r_t_o_s_1_1_stream_buffer.html#a859b528b648aa22f0334cd2ed7b9feaa" target="_top" xlink:title="Check if the buffer has space.">
<polygon fill="white" stroke="#666666" points="398.75,-20 243.25,-20 243.25,0 398.75,0 398.75,-20"/>
<text xml:space="preserve" text-anchor="middle" x="321" y="-6.5" font-family="Helvetica,sans-Serif" font-size="10.00">RTOS::StreamBuffer::hasSpace</text>
</a>
</g>
</g>
<!-- Node1&#45;&gt;Node4 -->
<g id="edge3_Node000001_Node000004" class="edge">
<title>Node1&#45;&gt;Node4</title>
<g id="a_edge3_Node000001_Node000004"><a xlink:title=" ">
<path fill="none" stroke="#63b8ff" d="M427.59,-19.31C418,-18.47 408.44,-17.63 399.21,-16.81"/>
<polygon fill="#63b8ff" stroke="#63b8ff" points="427.05,-22.78 437.32,-20.17 427.67,-15.81 427.05,-22.78"/>
</a>
</g>
</g>
<!-- Node3 -->
<g id="Node000003" class="node">
<title>Node3</title>
<g id="a_Node000003"><a xlink:href="../../dd/d70/class_r_t_o_s_1_1_stream_buffer.html#a8c25f00221ed454e2b59a68d92f4f78b" target="_top" xlink:title="Get utilization percent.">
<polygon fill="white" stroke="#666666" points="202.75,-58 0,-58 0,-38 202.75,-38 202.75,-58"/>
<text xml:space="preserve" text-anchor="middle" x="101.38" y="-44.5" font-family="Helvetica,sans-Serif" font-size="10.00">RTOS::StreamBuffer::getUtilizationPercent</text>
</a>
</g>
</g>
<!-- Node2&#45;&gt;Node3 -->
<g id="edge2_Node000002_Node000003" class="edge">
<title>Node2&#45;&gt;Node3</title>
<g id="a_edge2_Node000002_Node000003"><a xlink:title=" ">
<path fill="none" stroke="#63b8ff" d="M226.95,-48C219.1,-48 211.14,-48 203.24,-48"/>
<polygon fill="#63b8ff" stroke="#63b8ff" points="226.83,-51.5 236.83,-48 226.83,-44.5 226.83,-51.5"/>
</a>
</g>
</g>
</g>
</svg>
