<?xml version="1.0" encoding="UTF-8" standalone="no"?>
<!DOCTYPE svg PUBLIC "-//W3C//DTD SVG 1.1//EN"
 "http://www.w3.org/Graphics/SVG/1.1/DTD/svg11.dtd">
<!-- Generated by graphviz version 13.1.0 (20250701.0955)
 -->
<!-- Title: RTOS::StreamBuffer::send Pages: 1 -->
<svg width="343pt" height="66pt"
 viewBox="0.00 0.00 343.00 66.00" xmlns="http://www.w3.org/2000/svg" xmlns:xlink="http://www.w3.org/1999/xlink">
<g id="graph0" class="graph" transform="scale(1 1) rotate(0) translate(4 62)">
<title>RTOS::StreamBuffer::send</title>
<!-- Node1 -->
<g id="Node000001" class="node">
<title>Node1</title>
<g id="a_Node000001"><a xlink:title="Send data to the stream buffer.">
<polygon fill="#999999" stroke="#666666" points="335,-39 202,-39 202,-19 335,-19 335,-39"/>
<text xml:space="preserve" text-anchor="middle" x="268.5" y="-25.5" font-family="Helvetica,sans-Serif" font-size="10.00">RTOS::StreamBuffer::send</text>
</a>
</g>
</g>
<!-- Node2 -->
<g id="Node000002" class="node">
<title>Node2</title>
<g id="a_Node000002"><a xlink:href="../../dd/d70/class_r_t_o_s_1_1_stream_buffer.html#a6495c9ba04ecafb5c088d37489525f33" target="_top" xlink:title="Send data, wait forever.">
<polygon fill="white" stroke="#666666" points="166,-58 0,-58 0,-38 166,-38 166,-58"/>
<text xml:space="preserve" text-anchor="middle" x="83" y="-44.5" font-family="Helvetica,sans-Serif" font-size="10.00">RTOS::StreamBuffer::sendForever</text>
</a>
</g>
</g>
<!-- Node1&#45;&gt;Node2 -->
<g id="edge1_Node000001_Node000002" class="edge">
<title>Node1&#45;&gt;Node2</title>
<g id="a_edge1_Node000001_Node000002"><a xlink:title=" ">
<path fill="none" stroke="#63b8ff" d="M190.13,-37.01C182.26,-37.83 174.26,-38.65 166.35,-39.47"/>
<polygon fill="#63b8ff" stroke="#63b8ff" points="190.42,-40.5 200.01,-35.99 189.7,-33.54 190.42,-40.5"/>
</a>
</g>
</g>
<!-- Node3 -->
<g id="Node000003" class="node">
<title>Node3</title>
<g id="a_Node000003"><a xlink:href="../../dd/d70/class_r_t_o_s_1_1_stream_buffer.html#a6e6a4d6dc1dd37aac25135e70cbdc1bf" target="_top" xlink:title="Send data without waiting.">
<polygon fill="white" stroke="#666666" points="159.62,-20 6.38,-20 6.38,0 159.62,0 159.62,-20"/>
<text xml:space="preserve" text-anchor="middle" x="83" y="-6.5" font-family="Helvetica,sans-Serif" font-size="10.00">RTOS::StreamBuffer::sendNow</text>
</a>
</g>
</g>
<!-- Node1&#45;&gt;Node3 -->
<g id="edge2_Node000001_Node000003" class="edge">
<title>Node1&#45;&gt;Node3</title>
<g id="a_edge2_Node000001_Node000003"><a xlink:title=" ">
<path fill="none" stroke="#63b8ff" d="M190.32,-21.01C180.29,-19.97 170.02,-18.91 160.01,-17.87"/>
<polygon fill="#63b8ff" stroke="#63b8ff" points="189.7,-24.46 200.01,-22.01 190.42,-17.5 189.7,-24.46"/>
</a>
</g>
</g>
</g>
</svg>
