<?xml version="1.0" encoding="UTF-8" standalone="no"?>
<!DOCTYPE svg PUBLIC "-//W3C//DTD SVG 1.1//EN"
 "http://www.w3.org/Graphics/SVG/1.1/DTD/svg11.dtd">
<!-- Generated by graphviz version 13.1.0 (20250701.0955)
 -->
<!-- Title: RTOS::StreamBuffer::getBytesAvailable Pages: 1 -->
<svg width="638pt" height="104pt"
 viewBox="0.00 0.00 638.00 104.00" xmlns="http://www.w3.org/2000/svg" xmlns:xlink="http://www.w3.org/1999/xlink">
<g id="graph0" class="graph" transform="scale(1 1) rotate(0) translate(4 100)">
<title>RTOS::StreamBuffer::getBytesAvailable</title>
<!-- Node1 -->
<g id="Node000001" class="node">
<title>Node1</title>
<g id="a_Node000001"><a xlink:title="Get number of bytes available.">
<polygon fill="#999999" stroke="#666666" points="630,-58 439.25,-58 439.25,-38 630,-38 630,-58"/>
<text xml:space="preserve" text-anchor="middle" x="534.62" y="-44.5" font-family="Helvetica,sans-Serif" font-size="10.00">RTOS::StreamBuffer::getBytesAvailable</text>
</a>
</g>
</g>
<!-- Node2 -->
<g id="Node000002" class="node">
<title>Node2</title>
<g id="a_Node000002"><a xlink:href="../../dd/d70/class_r_t_o_s_1_1_stream_buffer.html#a359ba2c48f8e848d35c11f6204fac2be" target="_top" xlink:title="Get the buffer capacity.">
<polygon fill="white" stroke="#666666" points="403.25,-96 238.75,-96 238.75,-76 403.25,-76 403.25,-96"/>
<text xml:space="preserve" text-anchor="middle" x="321" y="-82.5" font-family="Helvetica,sans-Serif" font-size="10.00">RTOS::StreamBuffer::getCapacity</text>
</a>
</g>
</g>
<!-- Node1&#45;&gt;Node2 -->
<g id="edge1_Node000001_Node000002" class="edge">
<title>Node1&#45;&gt;Node2</title>
<g id="a_edge1_Node000001_Node000002"><a xlink:title=" ">
<path fill="none" stroke="#63b8ff" d="M464.23,-60.46C437.04,-65.34 406.2,-70.88 380.2,-75.55"/>
<polygon fill="#63b8ff" stroke="#63b8ff" points="464.52,-63.96 473.75,-58.75 463.29,-57.07 464.52,-63.96"/>
</a>
</g>
</g>
<!-- Node3 -->
<g id="Node000003" class="node">
<title>Node3</title>
<g id="a_Node000003"><a xlink:href="../../dd/d70/class_r_t_o_s_1_1_stream_buffer.html#a8c25f00221ed454e2b59a68d92f4f78b" target="_top" xlink:title="Get utilization percent.">
<polygon fill="white" stroke="#666666" points="202.75,-77 0,-77 0,-57 202.75,-57 202.75,-77"/>
<text xml:space="preserve" text-anchor="middle" x="101.38" y="-63.5" font-family="Helvetica,sans-Serif" font-size="10.00">RTOS::StreamBuffer::getUtilizationPercent</text>
</a>
</g>
</g>
<!-- Node1&#45;&gt;Node3 -->
<g id="edge3_Node000001_Node000003" class="edge">
<title>Node1&#45;&gt;Node3</title>
<g id="a_edge3_Node000001_Node000003"><a xlink:title=" ">
<path fill="none" stroke="#63b8ff" d="M427.74,-52.66C359.26,-55.68 270.63,-59.59 203.18,-62.56"/>
<polygon fill="#63b8ff" stroke="#63b8ff" points="427.64,-56.17 437.47,-52.24 427.33,-49.18 427.64,-56.17"/>
</a>
</g>
</g>
<!-- Node4 -->
<g id="Node000004" class="node">
<title>Node4</title>
<g id="a_Node000004"><a xlink:href="../../dd/d70/class_r_t_o_s_1_1_stream_buffer.html#ade34797262b4f41441646aece7747bcc" target="_top" xlink:title="Check if the buffer has data.">
<polygon fill="white" stroke="#666666" points="395.38,-20 246.62,-20 246.62,0 395.38,0 395.38,-20"/>
<text xml:space="preserve" text-anchor="middle" x="321" y="-6.5" font-family="Helvetica,sans-Serif" font-size="10.00">RTOS::StreamBuffer::hasData</text>
</a>
</g>
</g>
<!-- Node1&#45;&gt;Node4 -->
<g id="edge4_Node000001_Node000004" class="edge">
<title>Node1&#45;&gt;Node4</title>
<g id="a_edge4_Node000001_Node000004"><a xlink:title=" ">
<path fill="none" stroke="#63b8ff" d="M464.23,-35.54C437.04,-30.66 406.2,-25.12 380.2,-20.45"/>
<polygon fill="#63b8ff" stroke="#63b8ff" points="463.29,-38.93 473.75,-37.25 464.52,-32.04 463.29,-38.93"/>
</a>
</g>
</g>
<!-- Node2&#45;&gt;Node3 -->
<g id="edge2_Node000002_Node000003" class="edge">
<title>Node2&#45;&gt;Node3</title>
<g id="a_edge2_Node000002_Node000003"><a xlink:title=" ">
<path fill="none" stroke="#63b8ff" d="M226.95,-77.88C219.1,-77.19 211.14,-76.5 203.24,-75.81"/>
<polygon fill="#63b8ff" stroke="#63b8ff" points="226.57,-81.36 236.84,-78.74 227.18,-74.38 226.57,-81.36"/>
</a>
</g>
</g>
</g>
</svg>
