<?xml version="1.0" encoding="UTF-8" standalone="no"?>
<!DOCTYPE svg PUBLIC "-//W3C//DTD SVG 1.1//EN"
 "http://www.w3.org/Graphics/SVG/1.1/DTD/svg11.dtd">
<!-- Generated by graphviz version 13.1.0 (20250701.0955)
 -->
<!-- Title: Lib::Helper::DateTime::Time::Time Pages: 1 -->
<svg width="268pt" height="58pt"
 viewBox="0.00 0.00 268.00 58.00" xmlns="http://www.w3.org/2000/svg" xmlns:xlink="http://www.w3.org/1999/xlink">
<g id="graph0" class="graph" transform="scale(1 1) rotate(0) translate(4 54)">
<title>Lib::Helper::DateTime::Time::Time</title>
<!-- Node1 -->
<g id="Node000001" class="node">
<title>Node1</title>
<g id="a_Node000001"><a xlink:title="Constructs a Time object with specified hours, minutes, and seconds.">
<polygon fill="#999999" stroke="#666666" points="112,-32 0,-32 0,0 112,0 112,-32"/>
<text xml:space="preserve" text-anchor="start" x="8" y="-18.5" font-family="Helvetica,sans-Serif" font-size="10.00">Lib::Helper::DateTime</text>
<text xml:space="preserve" text-anchor="middle" x="56" y="-6.5" font-family="Helvetica,sans-Serif" font-size="10.00">::Time::Time</text>
</a>
</g>
</g>
<!-- Node2 -->
<g id="Node000002" class="node">
<title>Node2</title>
<g id="a_Node000002"><a xlink:href="../../de/df9/a01624.html#aaa5217e113e686edeace28c25aa7a376" target="_top" xlink:title="Checks if the Time object contains valid values.">
<polygon fill="white" stroke="#666666" points="260,-32 148,-32 148,0 260,0 260,-32"/>
<text xml:space="preserve" text-anchor="start" x="156" y="-18.5" font-family="Helvetica,sans-Serif" font-size="10.00">Lib::Helper::DateTime</text>
<text xml:space="preserve" text-anchor="middle" x="204" y="-6.5" font-family="Helvetica,sans-Serif" font-size="10.00">::Time::isValid</text>
</a>
</g>
</g>
<!-- Node1&#45;&gt;Node2 -->
<g id="edge1_Node000001_Node000002" class="edge">
<title>Node1&#45;&gt;Node2</title>
<g id="a_edge1_Node000001_Node000002"><a xlink:title=" ">
<path fill="none" stroke="#63b8ff" d="M112.2,-16C120.1,-16 128.3,-16 136.39,-16"/>
<polygon fill="#63b8ff" stroke="#63b8ff" points="136.21,-19.5 146.21,-16 136.21,-12.5 136.21,-19.5"/>
</a>
</g>
</g>
<!-- Node2&#45;&gt;Node2 -->
<g id="edge2_Node000002_Node000002" class="edge">
<title>Node2&#45;&gt;Node2</title>
<g id="a_edge2_Node000002_Node000002"><a xlink:title=" ">
<path fill="none" stroke="#63b8ff" d="M177.58,-32.44C172.65,-41.58 181.45,-50 204,-50 216.33,-50 224.55,-47.48 228.66,-43.71"/>
<polygon fill="#63b8ff" stroke="#63b8ff" points="232.1,-44.36 230.19,-33.94 225.19,-43.28 232.1,-44.36"/>
</a>
</g>
</g>
</g>
</svg>
