<?xml version="1.0" encoding="UTF-8" standalone="no"?>
<!DOCTYPE svg PUBLIC "-//W3C//DTD SVG 1.1//EN"
 "http://www.w3.org/Graphics/SVG/1.1/DTD/svg11.dtd">
<!-- Generated by graphviz version 3.0.0 (20220226.1711)
 -->
<!-- Title: CS25FLxxx Pages: 1 -->
<svg width="97pt" height="215pt"
 viewBox="0.00 0.00 97.00 215.00" xmlns="http://www.w3.org/2000/svg" xmlns:xlink="http://www.w3.org/1999/xlink">
<g id="graph0" class="graph" transform="scale(1 1) rotate(0) translate(4 211)">
<title>CS25FLxxx</title>
<!-- Node1 -->
<g id="node1" class="node">
<title>Node1</title>
<g id="a_node1"><a xlink:title="CS25FLxxx &#45; Quad SPI Flash class.">
<polygon fill="#bfbfbf" stroke="black" points="0,-105.5 0,-206.5 89,-206.5 89,-105.5 0,-105.5"/>
<text text-anchor="middle" x="44.5" y="-194.5" font-family="Helvetica,sans-Serif" font-size="10.00">CS25FLxxx</text>
<polyline fill="none" stroke="black" points="0,-187.5 89,-187.5 "/>
<text text-anchor="middle" x="44.5" y="-175.5" font-family="Helvetica,sans-Serif" font-size="10.00"> </text>
<polyline fill="none" stroke="black" points="0,-168.5 89,-168.5 "/>
<text text-anchor="start" x="8" y="-156.5" font-family="Helvetica,sans-Serif" font-size="10.00">+ CS25FLxxx()</text>
<text text-anchor="start" x="8" y="-145.5" font-family="Helvetica,sans-Serif" font-size="10.00">+ ~CS25FLxxx()</text>
<text text-anchor="start" x="8" y="-134.5" font-family="Helvetica,sans-Serif" font-size="10.00">+ close()</text>
<text text-anchor="start" x="8" y="-123.5" font-family="Helvetica,sans-Serif" font-size="10.00">+ open()</text>
<text text-anchor="start" x="8" y="-112.5" font-family="Helvetica,sans-Serif" font-size="10.00">+ readChipId()</text>
</a>
</g>
</g>
<!-- Node2 -->
<g id="node2" class="node">
<title>Node2</title>
<g id="a_node2"><a xlink:href="../../dc/d79/class_b_s_p_1_1_c_quad_flash.html" target="_top" xlink:title=" ">
<polygon fill="none" stroke="#bfbfbf" points="1.5,-0.5 1.5,-68.5 87.5,-68.5 87.5,-0.5 1.5,-0.5"/>
<text text-anchor="middle" x="44.5" y="-56.5" font-family="Helvetica,sans-Serif" font-size="10.00">CQuadFlash</text>
<polyline fill="none" stroke="#bfbfbf" points="1.5,-49.5 87.5,-49.5 "/>
<text text-anchor="start" x="9.5" y="-37.5" font-family="Helvetica,sans-Serif" font-size="10.00">+ ChipId</text>
<polyline fill="none" stroke="#bfbfbf" points="1.5,-30.5 87.5,-30.5 "/>
<text text-anchor="start" x="9.5" y="-18.5" font-family="Helvetica,sans-Serif" font-size="10.00">+ CQuadFlash()</text>
<text text-anchor="start" x="9.5" y="-7.5" font-family="Helvetica,sans-Serif" font-size="10.00">+ open()</text>
</a>
</g>
</g>
<!-- Node1&#45;&gt;Node2 -->
<g id="edge1" class="edge">
<title>Node1&#45;&gt;Node2</title>
<path fill="none" stroke="#8b1a1a" d="M44.5,-95.17C44.5,-86.11 44.5,-77.05 44.5,-68.83"/>
<polygon fill="none" stroke="#8b1a1a" points="41,-95.36 44.5,-105.36 48,-95.36 41,-95.36"/>
</g>
</g>
</svg>
