<?xml version="1.0" encoding="UTF-8" standalone="no"?>
<!DOCTYPE svg PUBLIC "-//W3C//DTD SVG 1.1//EN"
 "http://www.w3.org/Graphics/SVG/1.1/DTD/svg11.dtd">
<!-- Generated by graphviz version 13.1.0 (20250701.0955)
 -->
<!-- Title: OutputsListener::Message Pages: 1 -->
<svg width="123pt" height="199pt"
 viewBox="0.00 0.00 123.00 199.00" xmlns="http://www.w3.org/2000/svg" xmlns:xlink="http://www.w3.org/1999/xlink">
<g id="graph0" class="graph" transform="scale(1 1) rotate(0) translate(4 195)">
<title>OutputsListener::Message</title>
<!-- Node1 -->
<g id="Node000001" class="node">
<title>Node1</title>
<g id="a_Node000001"><a xlink:title="Message structure for SPI transactions.">
<polygon fill="#999999" stroke="none" points="114.5,-62 0,-62 0,0 114.5,0 114.5,-62"/>
<text xml:space="preserve" text-anchor="start" x="4" y="-49.45" font-family="Arial" font-size="9.00">OutputsListener::Message</text>
<text xml:space="preserve" text-anchor="start" x="56.12" y="-34.95" font-family="Arial" font-size="9.00"> </text>
<text xml:space="preserve" text-anchor="start" x="17.44" y="-20.45" font-family="Arial" font-size="9.00">+</text>
<text xml:space="preserve" text-anchor="start" x="40.12" y="-20.45" font-family="Arial" font-size="9.00">Message()</text>
<text xml:space="preserve" text-anchor="start" x="17.44" y="-5.95" font-family="Arial" font-size="9.00">+</text>
<text xml:space="preserve" text-anchor="start" x="40.12" y="-5.95" font-family="Arial" font-size="9.00">Message()</text>
<polygon fill="#666666" stroke="#666666" points="0,-45.5 0,-45.5 114.5,-45.5 114.5,-45.5 0,-45.5"/>
<polygon fill="#666666" stroke="#666666" points="0,-31 0,-31 114.5,-31 114.5,-31 0,-31"/>
<polygon fill="none" stroke="#666666" points="0,0 0,-62 114.5,-62 114.5,0 0,0"/>
</a>
</g>
</g>
<!-- Node2 -->
<g id="Node000002" class="node">
<title>Node2</title>
<g id="a_Node000002"><a xlink:title=" ">
<polygon fill="white" stroke="none" points="75.12,-191 39.38,-191 39.38,-143.5 75.12,-143.5 75.12,-191"/>
<text xml:space="preserve" text-anchor="start" x="43.38" y="-178.45" font-family="Arial" font-size="9.00">uint8_t</text>
<text xml:space="preserve" text-anchor="start" x="56.12" y="-163.95" font-family="Arial" font-size="9.00"> </text>
<text xml:space="preserve" text-anchor="start" x="56.12" y="-149.45" font-family="Arial" font-size="9.00"> </text>
<polygon fill="#bfbfbf" stroke="#bfbfbf" points="39.38,-174.5 39.38,-174.5 75.12,-174.5 75.12,-174.5 39.38,-174.5"/>
<polygon fill="#bfbfbf" stroke="#bfbfbf" points="39.38,-160 39.38,-160 75.12,-160 75.12,-160 39.38,-160"/>
<polygon fill="none" stroke="#bfbfbf" points="39.38,-143.5 39.38,-191 75.12,-191 75.12,-143.5 39.38,-143.5"/>
</a>
</g>
</g>
<!-- Node2&#45;&gt;Node1 -->
<g id="edge1_Node000001_Node000002" class="edge">
<title>Node2&#45;&gt;Node1</title>
<g id="a_edge1_Node000001_Node000002"><a xlink:title=" ">
<path fill="none" stroke="#63b8ff" d="M57.25,-143.78C57.25,-124.94 57.25,-97.5 57.25,-74.52"/>
<polygon fill="none" stroke="#63b8ff" points="57.25,-74.51 53.25,-68.51 57.25,-62.51 61.25,-68.51 57.25,-74.51"/>
</a>
</g>
<text xml:space="preserve" text-anchor="start" x="60.25" y="-113.95" font-family="Arial" font-size="9.00" fill="grey">+command</text>
<text xml:space="preserve" text-anchor="start" x="60.25" y="-99.45" font-family="Arial" font-size="9.00" fill="grey">+data</text>
<text xml:space="preserve" text-anchor="start" x="60.25" y="-84.95" font-family="Arial" font-size="9.00" fill="grey">+device</text>
</g>
</g>
</svg>
