<?xml version="1.0" encoding="UTF-8" standalone="no"?>
<!DOCTYPE svg PUBLIC "-//W3C//DTD SVG 1.1//EN"
 "http://www.w3.org/Graphics/SVG/1.1/DTD/svg11.dtd">
<!-- Generated by graphviz version 13.1.0 (20250701.0955)
 -->
<!-- Title: BSP::OutputsListener::Message Pages: 1 -->
<svg width="107pt" height="210pt"
 viewBox="0.00 0.00 107.00 210.00" xmlns="http://www.w3.org/2000/svg" xmlns:xlink="http://www.w3.org/1999/xlink">
<g id="graph0" class="graph" transform="scale(1 1) rotate(0) translate(4 205.5)">
<title>BSP::OutputsListener::Message</title>
<!-- Node1 -->
<g id="Node000001" class="node">
<title>Node1</title>
<g id="a_Node000001"><a xlink:title="Message structure for SPI transactions.">
<polygon fill="#999999" stroke="none" points="95,-72.5 0,-72.5 0,0 95,0 95,-72.5"/>
<text xml:space="preserve" text-anchor="start" x="4" y="-59.95" font-family="Arial" font-size="9.00">BSP::OutputsListener</text>
<text xml:space="preserve" text-anchor="start" x="26.5" y="-49.45" font-family="Arial" font-size="9.00">::Message</text>
<text xml:space="preserve" text-anchor="start" x="46.38" y="-34.95" font-family="Arial" font-size="9.00"> </text>
<text xml:space="preserve" text-anchor="start" x="12.56" y="-20.45" font-family="Arial" font-size="9.00">+</text>
<text xml:space="preserve" text-anchor="start" x="30.38" y="-20.45" font-family="Arial" font-size="9.00">Message()</text>
<text xml:space="preserve" text-anchor="start" x="12.56" y="-5.95" font-family="Arial" font-size="9.00">+</text>
<text xml:space="preserve" text-anchor="start" x="30.38" y="-5.95" font-family="Arial" font-size="9.00">Message()</text>
<polygon fill="#666666" stroke="#666666" points="0,-45.5 0,-45.5 95,-45.5 95,-45.5 0,-45.5"/>
<polygon fill="#666666" stroke="#666666" points="0,-31 0,-31 95,-31 95,-31 0,-31"/>
<polygon fill="none" stroke="#666666" points="0,0 0,-72.5 95,-72.5 95,0 0,0"/>
</a>
</g>
</g>
<!-- Node2 -->
<g id="Node000002" class="node">
<title>Node2</title>
<g id="a_Node000002"><a xlink:title=" ">
<polygon fill="white" stroke="none" points="65.38,-201.5 29.62,-201.5 29.62,-154 65.38,-154 65.38,-201.5"/>
<text xml:space="preserve" text-anchor="start" x="33.62" y="-188.95" font-family="Arial" font-size="9.00">uint8_t</text>
<text xml:space="preserve" text-anchor="start" x="46.38" y="-174.45" font-family="Arial" font-size="9.00"> </text>
<text xml:space="preserve" text-anchor="start" x="46.38" y="-159.95" font-family="Arial" font-size="9.00"> </text>
<polygon fill="#bfbfbf" stroke="#bfbfbf" points="29.62,-185 29.62,-185 65.38,-185 65.38,-185 29.62,-185"/>
<polygon fill="#bfbfbf" stroke="#bfbfbf" points="29.62,-170.5 29.62,-170.5 65.38,-170.5 65.38,-170.5 29.62,-170.5"/>
<polygon fill="none" stroke="#bfbfbf" points="29.62,-154 29.62,-201.5 65.38,-201.5 65.38,-154 29.62,-154"/>
</a>
</g>
</g>
<!-- Node2&#45;&gt;Node1 -->
<g id="edge1_Node000001_Node000002" class="edge">
<title>Node2&#45;&gt;Node1</title>
<g id="a_edge1_Node000001_Node000002"><a xlink:title=" ">
<path fill="none" stroke="#63b8ff" d="M47.5,-154.03C47.5,-135.42 47.5,-108.45 47.5,-85.12"/>
<polygon fill="none" stroke="#63b8ff" points="47.5,-85.15 43.5,-79.15 47.5,-73.15 51.5,-79.15 47.5,-85.15"/>
</a>
</g>
<text xml:space="preserve" text-anchor="start" x="50.5" y="-124.45" font-family="Arial" font-size="9.00" fill="grey">+command</text>
<text xml:space="preserve" text-anchor="start" x="50.5" y="-109.95" font-family="Arial" font-size="9.00" fill="grey">+data</text>
<text xml:space="preserve" text-anchor="start" x="50.5" y="-95.45" font-family="Arial" font-size="9.00" fill="grey">+device</text>
</g>
</g>
</svg>
