<?xml version="1.0" encoding="UTF-8" standalone="no"?>
<!DOCTYPE svg PUBLIC "-//W3C//DTD SVG 1.1//EN"
 "http://www.w3.org/Graphics/SVG/1.1/DTD/svg11.dtd">
<!-- Generated by graphviz version 13.1.0 (20250701.0955)
 -->
<!-- Title: Lib::Digi::API::ApplicationBase::pause Pages: 1 -->
<svg width="384pt" height="66pt"
 viewBox="0.00 0.00 384.00 66.00" xmlns="http://www.w3.org/2000/svg" xmlns:xlink="http://www.w3.org/1999/xlink">
<g id="graph0" class="graph" transform="scale(1 1) rotate(0) translate(4 62)">
<title>Lib::Digi::API::ApplicationBase::pause</title>
<!-- Node1 -->
<g id="Node000001" class="node">
<title>Node1</title>
<g id="a_Node000001"><a xlink:title="Pauses the service.">
<polygon fill="#999999" stroke="#666666" points="376.25,-39 193,-39 193,-19 376.25,-19 376.25,-39"/>
<text xml:space="preserve" text-anchor="middle" x="284.62" y="-25.5" font-family="Helvetica,sans-Serif" font-size="10.00">Lib::Digi::API::ApplicationBase::pause</text>
</a>
</g>
</g>
<!-- Node2 -->
<g id="Node000002" class="node">
<title>Node2</title>
<g id="a_Node000002"><a xlink:href="../../d6/dfb/class_lib_1_1_digi_1_1_a_p_i_1_1_client_base.html#ae609787472f2f8403885de04b134df17" target="_top" xlink:title="Initializes the client.">
<polygon fill="white" stroke="#666666" points="155.5,-58 1.5,-58 1.5,-38 155.5,-38 155.5,-58"/>
<text xml:space="preserve" text-anchor="middle" x="78.5" y="-44.5" font-family="Helvetica,sans-Serif" font-size="10.00">Lib::Digi::API::ClientBase::start</text>
</a>
</g>
</g>
<!-- Node1&#45;&gt;Node2 -->
<g id="edge1_Node000001_Node000002" class="edge">
<title>Node1&#45;&gt;Node2</title>
<g id="a_edge1_Node000001_Node000002"><a xlink:title=" ">
<path fill="none" stroke="#63b8ff" d="M181.39,-38.52C172.85,-39.31 164.3,-40.11 156,-40.88"/>
<polygon fill="#63b8ff" stroke="#63b8ff" points="181.47,-42.02 191.1,-37.61 180.82,-35.05 181.47,-42.02"/>
</a>
</g>
</g>
<!-- Node3 -->
<g id="Node000003" class="node">
<title>Node3</title>
<g id="a_Node000003"><a xlink:href="../../db/da4/class_lib_1_1_digi_1_1_a_p_i_1_1_server_base.html#ab9dd2a4950166d6e0411a4276563e5fe" target="_top" xlink:title="Initialize the server.">
<polygon fill="white" stroke="#666666" points="157,-20 0,-20 0,0 157,0 157,-20"/>
<text xml:space="preserve" text-anchor="middle" x="78.5" y="-6.5" font-family="Helvetica,sans-Serif" font-size="10.00">Lib::Digi::API::ServerBase::start</text>
</a>
</g>
</g>
<!-- Node1&#45;&gt;Node3 -->
<g id="edge2_Node000001_Node000003" class="edge">
<title>Node1&#45;&gt;Node3</title>
<g id="a_edge2_Node000001_Node000003"><a xlink:title=" ">
<path fill="none" stroke="#63b8ff" d="M181.23,-19.47C173.16,-18.72 165.1,-17.97 157.25,-17.24"/>
<polygon fill="#63b8ff" stroke="#63b8ff" points="180.82,-22.95 191.1,-20.39 181.47,-15.98 180.82,-22.95"/>
</a>
</g>
</g>
</g>
</svg>
