<?xml version="1.0" encoding="UTF-8" standalone="no"?>
<!DOCTYPE svg PUBLIC "-//W3C//DTD SVG 1.1//EN"
 "http://www.w3.org/Graphics/SVG/1.1/DTD/svg11.dtd">
<!-- Generated by graphviz version 13.1.0 (20250701.0955)
 -->
<!-- Title: RTOS::Semaphore::overwriteFromISR Pages: 1 -->
<svg width="466pt" height="40pt"
 viewBox="0.00 0.00 466.00 40.00" xmlns="http://www.w3.org/2000/svg" xmlns:xlink="http://www.w3.org/1999/xlink">
<g id="graph0" class="graph" transform="scale(1 1) rotate(0) translate(4 36)">
<title>RTOS::Semaphore::overwriteFromISR</title>
<!-- Node1 -->
<g id="Node000001" class="node">
<title>Node1</title>
<g id="a_Node000001"><a xlink:title="Overwrites the semaphore from ISR context.">
<polygon fill="#999999" stroke="#666666" points="144.25,-32 0,-32 0,0 144.25,0 144.25,-32"/>
<text xml:space="preserve" text-anchor="start" x="8" y="-18.5" font-family="Helvetica,sans-Serif" font-size="10.00">RTOS::Semaphore::overwrite</text>
<text xml:space="preserve" text-anchor="middle" x="72.12" y="-6.5" font-family="Helvetica,sans-Serif" font-size="10.00">FromISR</text>
</a>
</g>
</g>
<!-- Node2 -->
<g id="Node000002" class="node">
<title>Node2</title>
<g id="a_Node000002"><a xlink:href="../../dc/d52/a00183.html#aa87af60fe2421cf538d1040cfe46be1c" target="_top" xlink:title="Overwrites the semaphore from ISR context.">
<polygon fill="white" stroke="#666666" points="301.25,-32 180.25,-32 180.25,0 301.25,0 301.25,-32"/>
<text xml:space="preserve" text-anchor="start" x="188.25" y="-18.5" font-family="Helvetica,sans-Serif" font-size="10.00">RTOS::SemaphoreBase</text>
<text xml:space="preserve" text-anchor="middle" x="240.75" y="-6.5" font-family="Helvetica,sans-Serif" font-size="10.00">::overwriteFromISR</text>
</a>
</g>
</g>
<!-- Node1&#45;&gt;Node2 -->
<g id="edge1_Node000001_Node000002" class="edge">
<title>Node1&#45;&gt;Node2</title>
<g id="a_edge1_Node000001_Node000002"><a xlink:title=" ">
<path fill="none" stroke="#63b8ff" d="M144.27,-16C152.33,-16 160.54,-16 168.6,-16"/>
<polygon fill="#63b8ff" stroke="#63b8ff" points="168.34,-19.5 178.34,-16 168.34,-12.5 168.34,-19.5"/>
</a>
</g>
</g>
<!-- Node3 -->
<g id="Node000003" class="node">
<title>Node3</title>
<g id="a_Node000003"><a xlink:href="../../dc/d52/a00183.html#a01db2bc6a677e5c062f9b9d3c14d8599" target="_top" xlink:title="Checks if the semaphore is created.">
<polygon fill="white" stroke="#666666" points="458.25,-32 337.25,-32 337.25,0 458.25,0 458.25,-32"/>
<text xml:space="preserve" text-anchor="start" x="345.25" y="-18.5" font-family="Helvetica,sans-Serif" font-size="10.00">RTOS::SemaphoreBase</text>
<text xml:space="preserve" text-anchor="middle" x="397.75" y="-6.5" font-family="Helvetica,sans-Serif" font-size="10.00">::isCreated</text>
</a>
</g>
</g>
<!-- Node2&#45;&gt;Node3 -->
<g id="edge2_Node000002_Node000003" class="edge">
<title>Node2&#45;&gt;Node3</title>
<g id="a_edge2_Node000002_Node000003"><a xlink:title=" ">
<path fill="none" stroke="#63b8ff" d="M301.68,-16C309.55,-16 317.68,-16 325.72,-16"/>
<polygon fill="#63b8ff" stroke="#63b8ff" points="325.47,-19.5 335.47,-16 325.47,-12.5 325.47,-19.5"/>
</a>
</g>
</g>
</g>
</svg>
