<?xml version="1.0" encoding="UTF-8" standalone="no"?>
<!DOCTYPE svg PUBLIC "-//W3C//DTD SVG 1.1//EN"
 "http://www.w3.org/Graphics/SVG/1.1/DTD/svg11.dtd">
<!-- Generated by graphviz version 13.1.0 (20250701.0955)
 -->
<!-- Title: Lib::HAL::I2C::Master::TransperentBase Pages: 1 -->
<svg width="397pt" height="851pt"
 viewBox="0.00 0.00 397.00 851.00" xmlns="http://www.w3.org/2000/svg" xmlns:xlink="http://www.w3.org/1999/xlink">
<g id="graph0" class="graph" transform="scale(1 1) rotate(0) translate(4 847)">
<title>Lib::HAL::I2C::Master::TransperentBase</title>
<!-- Node1 -->
<g id="Node000001" class="node">
<title>Node1</title>
<g id="a_Node000001"><a xlink:title="Transparent I2C master base class for device communication and event handling.">
<polygon fill="#999999" stroke="none" points="236.5,-203 137.5,-203 137.5,0 236.5,0 236.5,-203"/>
<text xml:space="preserve" text-anchor="start" x="143.88" y="-190.45" font-family="Arial" font-size="9.00">Lib::HAL::I2C::Master</text>
<text xml:space="preserve" text-anchor="start" x="149.5" y="-179.95" font-family="Arial" font-size="9.00">::TransperentBase</text>
<text xml:space="preserve" text-anchor="start" x="185.88" y="-165.45" font-family="Arial" font-size="9.00"> </text>
<text xml:space="preserve" text-anchor="start" x="141.5" y="-150.95" font-family="Arial" font-size="9.00">+</text>
<text xml:space="preserve" text-anchor="start" x="150.75" y="-150.95" font-family="Arial" font-size="9.00">getHandle()</text>
<text xml:space="preserve" text-anchor="start" x="141.5" y="-136.45" font-family="Arial" font-size="9.00">+</text>
<text xml:space="preserve" text-anchor="start" x="150.75" y="-136.45" font-family="Arial" font-size="9.00">~TransperentBase()</text>
<text xml:space="preserve" text-anchor="start" x="141.5" y="-121.95" font-family="Arial" font-size="9.00">+</text>
<text xml:space="preserve" text-anchor="start" x="150.75" y="-121.95" font-family="Arial" font-size="9.00">open()</text>
<text xml:space="preserve" text-anchor="start" x="141.5" y="-107.45" font-family="Arial" font-size="9.00">+</text>
<text xml:space="preserve" text-anchor="start" x="150.75" y="-107.45" font-family="Arial" font-size="9.00">close()</text>
<text xml:space="preserve" text-anchor="start" x="141.5" y="-92.95" font-family="Arial" font-size="9.00">+</text>
<text xml:space="preserve" text-anchor="start" x="150.75" y="-92.95" font-family="Arial" font-size="9.00">receive()</text>
<text xml:space="preserve" text-anchor="start" x="141.5" y="-78.45" font-family="Arial" font-size="9.00">+</text>
<text xml:space="preserve" text-anchor="start" x="150.75" y="-78.45" font-family="Arial" font-size="9.00">receive()</text>
<text xml:space="preserve" text-anchor="start" x="141.5" y="-63.95" font-family="Arial" font-size="9.00">+</text>
<text xml:space="preserve" text-anchor="start" x="150.75" y="-63.95" font-family="Arial" font-size="9.00">send()</text>
<text xml:space="preserve" text-anchor="start" x="141.5" y="-49.45" font-family="Arial" font-size="9.00">+</text>
<text xml:space="preserve" text-anchor="start" x="150.75" y="-49.45" font-family="Arial" font-size="9.00">send()</text>
<text xml:space="preserve" text-anchor="start" x="141.5" y="-34.95" font-family="Arial" font-size="9.00">+</text>
<text xml:space="preserve" text-anchor="start" x="150.75" y="-34.95" font-family="Arial" font-size="9.00">waitForComplete()</text>
<text xml:space="preserve" text-anchor="start" x="141.5" y="-20.45" font-family="Arial" font-size="9.00">+</text>
<text xml:space="preserve" text-anchor="start" x="150.75" y="-20.45" font-family="Arial" font-size="9.00">isReady()</text>
<text xml:space="preserve" text-anchor="start" x="150.75" y="-5.95" font-family="Arial" font-size="9.00">and 9 more...</text>
<polygon fill="#666666" stroke="#666666" points="137.5,-176 137.5,-176 236.5,-176 236.5,-176 137.5,-176"/>
<polygon fill="#666666" stroke="#666666" points="137.5,-161.5 137.5,-161.5 236.5,-161.5 236.5,-161.5 137.5,-161.5"/>
<polygon fill="none" stroke="#666666" points="137.5,0 137.5,-203 236.5,-203 236.5,0 137.5,0"/>
</a>
</g>
</g>
<!-- Node2 -->
<g id="Node000002" class="node">
<title>Node2</title>
<g id="a_Node000002"><a xlink:href="../../d9/d7d/class_lib_1_1_h_a_l_1_1_i2_c_1_1_master_1_1_base.html" target="_top" xlink:title="Abstract base class for I2C master operations.">
<polygon fill="white" stroke="none" points="234.13,-429.5 139.88,-429.5 139.88,-270 234.13,-270 234.13,-429.5"/>
<text xml:space="preserve" text-anchor="start" x="143.88" y="-416.95" font-family="Arial" font-size="9.00">Lib::HAL::I2C::Master</text>
<text xml:space="preserve" text-anchor="start" x="174.25" y="-406.45" font-family="Arial" font-size="9.00">::Base</text>
<text xml:space="preserve" text-anchor="start" x="185.88" y="-391.95" font-family="Arial" font-size="9.00"> </text>
<text xml:space="preserve" text-anchor="start" x="150.94" y="-377.45" font-family="Arial" font-size="9.00">+</text>
<text xml:space="preserve" text-anchor="start" x="167.25" y="-377.45" font-family="Arial" font-size="9.00">Base()</text>
<text xml:space="preserve" text-anchor="start" x="150.94" y="-362.95" font-family="Arial" font-size="9.00">+</text>
<text xml:space="preserve" text-anchor="start" x="167.25" y="-362.95" font-family="Arial" font-size="9.00">~Base()</text>
<text xml:space="preserve" text-anchor="start" x="150.94" y="-348.45" font-family="Arial" font-size="9.00">+</text>
<text xml:space="preserve" text-anchor="start" x="167.25" y="-348.45" font-family="Arial" font-size="9.00">open()</text>
<text xml:space="preserve" text-anchor="start" x="150.94" y="-333.95" font-family="Arial" font-size="9.00">+</text>
<text xml:space="preserve" text-anchor="start" x="167.25" y="-333.95" font-family="Arial" font-size="9.00">close()</text>
<text xml:space="preserve" text-anchor="start" x="150.94" y="-319.45" font-family="Arial" font-size="9.00">+</text>
<text xml:space="preserve" text-anchor="start" x="167.25" y="-319.45" font-family="Arial" font-size="9.00">receive()</text>
<text xml:space="preserve" text-anchor="start" x="150.94" y="-304.95" font-family="Arial" font-size="9.00">+</text>
<text xml:space="preserve" text-anchor="start" x="167.25" y="-304.95" font-family="Arial" font-size="9.00">send()</text>
<text xml:space="preserve" text-anchor="start" x="150.94" y="-290.45" font-family="Arial" font-size="9.00">+</text>
<text xml:space="preserve" text-anchor="start" x="167.25" y="-290.45" font-family="Arial" font-size="9.00">isReady()</text>
<text xml:space="preserve" text-anchor="start" x="150.94" y="-275.95" font-family="Arial" font-size="9.00">+</text>
<text xml:space="preserve" text-anchor="start" x="167.25" y="-275.95" font-family="Arial" font-size="9.00">getHandle()</text>
<polygon fill="#666666" stroke="#666666" points="139.88,-402.5 139.88,-402.5 234.13,-402.5 234.13,-402.5 139.88,-402.5"/>
<polygon fill="#666666" stroke="#666666" points="139.88,-388 139.88,-388 234.13,-388 234.13,-388 139.88,-388"/>
<polygon fill="none" stroke="#666666" points="139.88,-270 139.88,-429.5 234.13,-429.5 234.13,-270 139.88,-270"/>
</a>
</g>
</g>
<!-- Node2&#45;&gt;Node1 -->
<g id="edge1_Node000001_Node000002" class="edge">
<title>Node2&#45;&gt;Node1</title>
<g id="a_edge1_Node000001_Node000002"><a xlink:title=" ">
<path fill="none" stroke="darkgreen" d="M187,-258.7C187,-240.54 187,-221.35 187,-202.87"/>
<polygon fill="none" stroke="darkgreen" points="183.5,-258.64 187,-268.64 190.5,-258.64 183.5,-258.64"/>
</a>
</g>
</g>
<!-- Node3 -->
<g id="Node000003" class="node">
<title>Node3</title>
<g id="a_Node000003"><a xlink:title=" ">
<polygon fill="white" stroke="none" points="77.5,-643.5 36.5,-643.5 36.5,-596 77.5,-596 77.5,-643.5"/>
<text xml:space="preserve" text-anchor="start" x="40.5" y="-630.95" font-family="Arial" font-size="9.00">uint32_t</text>
<text xml:space="preserve" text-anchor="start" x="55.88" y="-616.45" font-family="Arial" font-size="9.00"> </text>
<text xml:space="preserve" text-anchor="start" x="55.88" y="-601.95" font-family="Arial" font-size="9.00"> </text>
<polygon fill="#bfbfbf" stroke="#bfbfbf" points="36.5,-627 36.5,-627 77.5,-627 77.5,-627 36.5,-627"/>
<polygon fill="#bfbfbf" stroke="#bfbfbf" points="36.5,-612.5 36.5,-612.5 77.5,-612.5 77.5,-612.5 36.5,-612.5"/>
<polygon fill="none" stroke="#bfbfbf" points="36.5,-596 36.5,-643.5 77.5,-643.5 77.5,-596 36.5,-596"/>
</a>
</g>
</g>
<!-- Node3&#45;&gt;Node1 -->
<g id="edge3_Node000001_Node000003" class="edge">
<title>Node3&#45;&gt;Node1</title>
<g id="a_edge3_Node000001_Node000003"><a xlink:title=" ">
<path fill="none" stroke="#63b8ff" d="M47.57,-596.28C24.38,-537.44 -29.91,-375.13 22.25,-255.5 43.64,-206.44 89.38,-166.04 127.25,-139.1"/>
<polygon fill="none" stroke="#63b8ff" points="127.09,-139.21 129.74,-132.51 136.95,-132.38 134.3,-139.08 127.09,-139.21"/>
</a>
</g>
<text xml:space="preserve" text-anchor="start" x="25.25" y="-353.7" font-family="Arial" font-size="9.00" fill="grey">#BLOCK_TIMEOUT</text>
<text xml:space="preserve" text-anchor="start" x="25.25" y="-339.2" font-family="Arial" font-size="9.00" fill="grey">+MAX_BLOCKING_TIME</text>
</g>
<!-- Node3&#45;&gt;Node2 -->
<g id="edge2_Node000002_Node000003" class="edge">
<title>Node3&#45;&gt;Node2</title>
<g id="a_edge2_Node000002_Node000003"><a xlink:title=" ">
<path fill="none" stroke="#63b8ff" d="M67.86,-596.36C84.33,-562.42 116.52,-496.04 143.3,-440.84"/>
<polygon fill="none" stroke="#63b8ff" points="143.29,-440.86 142.31,-433.71 148.53,-430.06 149.51,-437.21 143.29,-440.86"/>
</a>
</g>
<text xml:space="preserve" text-anchor="start" x="132.79" y="-466.95" font-family="Arial" font-size="9.00" fill="grey">+DEFAULT_TIMEOUT</text>
</g>
<!-- Node4 -->
<g id="Node000004" class="node">
<title>Node4</title>
<g id="a_Node000004"><a xlink:href="../../d7/ddd/class_lib_1_1_free_r_t_o_s_1_1_semaphore.html" target="_top" xlink:title="FreeRTOS binary semaphore wrapper.">
<polygon fill="white" stroke="none" points="384,-444 252,-444 252,-255.5 384,-255.5 384,-444"/>
<text xml:space="preserve" text-anchor="start" x="261.75" y="-431.45" font-family="Arial" font-size="9.00">Lib::FreeRTOS::Semaphore</text>
<text xml:space="preserve" text-anchor="start" x="316.88" y="-416.95" font-family="Arial" font-size="9.00"> </text>
<text xml:space="preserve" text-anchor="start" x="256" y="-402.45" font-family="Arial" font-size="9.00">+</text>
<text xml:space="preserve" text-anchor="start" x="265.25" y="-402.45" font-family="Arial" font-size="9.00">Semaphore()</text>
<text xml:space="preserve" text-anchor="start" x="256" y="-387.95" font-family="Arial" font-size="9.00">+</text>
<text xml:space="preserve" text-anchor="start" x="265.25" y="-387.95" font-family="Arial" font-size="9.00">~Semaphore()</text>
<text xml:space="preserve" text-anchor="start" x="256" y="-373.45" font-family="Arial" font-size="9.00">+</text>
<text xml:space="preserve" text-anchor="start" x="265.25" y="-373.45" font-family="Arial" font-size="9.00">create()</text>
<text xml:space="preserve" text-anchor="start" x="256" y="-358.95" font-family="Arial" font-size="9.00">+</text>
<text xml:space="preserve" text-anchor="start" x="265.25" y="-358.95" font-family="Arial" font-size="9.00">release()</text>
<text xml:space="preserve" text-anchor="start" x="256" y="-344.45" font-family="Arial" font-size="9.00">+</text>
<text xml:space="preserve" text-anchor="start" x="265.25" y="-344.45" font-family="Arial" font-size="9.00">take()</text>
<text xml:space="preserve" text-anchor="start" x="256" y="-329.95" font-family="Arial" font-size="9.00">+</text>
<text xml:space="preserve" text-anchor="start" x="265.25" y="-329.95" font-family="Arial" font-size="9.00">give()</text>
<text xml:space="preserve" text-anchor="start" x="256" y="-315.45" font-family="Arial" font-size="9.00">+</text>
<text xml:space="preserve" text-anchor="start" x="265.25" y="-315.45" font-family="Arial" font-size="9.00">takeFromISR()</text>
<text xml:space="preserve" text-anchor="start" x="256" y="-300.95" font-family="Arial" font-size="9.00">+</text>
<text xml:space="preserve" text-anchor="start" x="265.25" y="-300.95" font-family="Arial" font-size="9.00">giveFromISR()</text>
<text xml:space="preserve" text-anchor="start" x="256" y="-286.45" font-family="Arial" font-size="9.00">+</text>
<text xml:space="preserve" text-anchor="start" x="265.25" y="-286.45" font-family="Arial" font-size="9.00">isCreated()</text>
<text xml:space="preserve" text-anchor="start" x="256" y="-271.95" font-family="Arial" font-size="9.00">+</text>
<text xml:space="preserve" text-anchor="start" x="265.25" y="-271.95" font-family="Arial" font-size="9.00">operator SemaphoreHandle</text>
<text xml:space="preserve" text-anchor="start" x="265.25" y="-261.45" font-family="Arial" font-size="9.00">_t &amp;()</text>
<polygon fill="#666666" stroke="#666666" points="252,-427.5 252,-427.5 384,-427.5 384,-427.5 252,-427.5"/>
<polygon fill="#666666" stroke="#666666" points="252,-413 252,-413 384,-413 384,-413 252,-413"/>
<polygon fill="none" stroke="#666666" points="252,-255.5 252,-444 384,-444 384,-255.5 252,-255.5"/>
</a>
</g>
</g>
<!-- Node4&#45;&gt;Node1 -->
<g id="edge4_Node000001_Node000004" class="edge">
<title>Node4&#45;&gt;Node1</title>
<g id="a_edge4_Node000001_Node000004"><a xlink:title=" ">
<path fill="none" stroke="#63b8ff" d="M268.48,-255.65C259.94,-239.61 251.02,-222.84 242.34,-206.52"/>
<polygon fill="none" stroke="#63b8ff" points="242.44,-206.71 236.09,-203.29 236.8,-196.12 243.15,-199.53 242.44,-206.71"/>
</a>
</g>
<text xml:space="preserve" text-anchor="start" x="259.43" y="-225.95" font-family="Arial" font-size="9.00" fill="grey">#semComplete</text>
</g>
<!-- Node5 -->
<g id="Node000005" class="node">
<title>Node5</title>
<g id="a_Node000005"><a xlink:href="../../da/d90/class_lib_1_1_free_r_t_o_s_1_1_semaphore_base.html" target="_top" xlink:title="Abstract base class for FreeRTOS semaphore wrappers.">
<polygon fill="white" stroke="none" points="388.75,-743 247.25,-743 247.25,-496.5 388.75,-496.5 388.75,-743"/>
<text xml:space="preserve" text-anchor="start" x="251.25" y="-730.45" font-family="Arial" font-size="9.00">Lib::FreeRTOS::SemaphoreBase</text>
<text xml:space="preserve" text-anchor="start" x="316.88" y="-715.95" font-family="Arial" font-size="9.00"> </text>
<text xml:space="preserve" text-anchor="start" x="253.63" y="-701.45" font-family="Arial" font-size="9.00">#</text>
<text xml:space="preserve" text-anchor="start" x="265.25" y="-701.45" font-family="Arial" font-size="9.00">SemaphoreBase()</text>
<text xml:space="preserve" text-anchor="start" x="253.63" y="-686.95" font-family="Arial" font-size="9.00">#</text>
<text xml:space="preserve" text-anchor="start" x="265.25" y="-686.95" font-family="Arial" font-size="9.00">SemaphoreBase()</text>
<text xml:space="preserve" text-anchor="start" x="253.63" y="-672.45" font-family="Arial" font-size="9.00">#</text>
<text xml:space="preserve" text-anchor="start" x="265.25" y="-672.45" font-family="Arial" font-size="9.00">operator=()</text>
<text xml:space="preserve" text-anchor="start" x="253.63" y="-657.95" font-family="Arial" font-size="9.00">#</text>
<text xml:space="preserve" text-anchor="start" x="265.25" y="-657.95" font-family="Arial" font-size="9.00">SemaphoreBase()</text>
<text xml:space="preserve" text-anchor="start" x="253.63" y="-643.45" font-family="Arial" font-size="9.00">#</text>
<text xml:space="preserve" text-anchor="start" x="265.25" y="-643.45" font-family="Arial" font-size="9.00">operator=()</text>
<text xml:space="preserve" text-anchor="start" x="253.63" y="-628.95" font-family="Arial" font-size="9.00">#</text>
<text xml:space="preserve" text-anchor="start" x="265.25" y="-628.95" font-family="Arial" font-size="9.00">~SemaphoreBase()</text>
<text xml:space="preserve" text-anchor="start" x="253.63" y="-614.45" font-family="Arial" font-size="9.00">#</text>
<text xml:space="preserve" text-anchor="start" x="265.25" y="-614.45" font-family="Arial" font-size="9.00">create()</text>
<text xml:space="preserve" text-anchor="start" x="253.63" y="-599.95" font-family="Arial" font-size="9.00">#</text>
<text xml:space="preserve" text-anchor="start" x="265.25" y="-599.95" font-family="Arial" font-size="9.00">release()</text>
<text xml:space="preserve" text-anchor="start" x="253.63" y="-585.45" font-family="Arial" font-size="9.00">#</text>
<text xml:space="preserve" text-anchor="start" x="265.25" y="-585.45" font-family="Arial" font-size="9.00">take()</text>
<text xml:space="preserve" text-anchor="start" x="253.63" y="-570.95" font-family="Arial" font-size="9.00">#</text>
<text xml:space="preserve" text-anchor="start" x="265.25" y="-570.95" font-family="Arial" font-size="9.00">give()</text>
<text xml:space="preserve" text-anchor="start" x="253.63" y="-556.45" font-family="Arial" font-size="9.00">#</text>
<text xml:space="preserve" text-anchor="start" x="265.25" y="-556.45" font-family="Arial" font-size="9.00">takeFromISR()</text>
<text xml:space="preserve" text-anchor="start" x="253.63" y="-541.95" font-family="Arial" font-size="9.00">#</text>
<text xml:space="preserve" text-anchor="start" x="265.25" y="-541.95" font-family="Arial" font-size="9.00">giveFromISR()</text>
<text xml:space="preserve" text-anchor="start" x="253.63" y="-527.45" font-family="Arial" font-size="9.00">#</text>
<text xml:space="preserve" text-anchor="start" x="265.25" y="-527.45" font-family="Arial" font-size="9.00">operator SemaphoreHandle</text>
<text xml:space="preserve" text-anchor="start" x="265.25" y="-516.95" font-family="Arial" font-size="9.00">_t &amp;()</text>
<text xml:space="preserve" text-anchor="start" x="253.63" y="-502.45" font-family="Arial" font-size="9.00">#</text>
<text xml:space="preserve" text-anchor="start" x="265.25" y="-502.45" font-family="Arial" font-size="9.00">isCreated()</text>
<polygon fill="#666666" stroke="#666666" points="247.25,-726.5 247.25,-726.5 388.75,-726.5 388.75,-726.5 247.25,-726.5"/>
<polygon fill="#666666" stroke="#666666" points="247.25,-712 247.25,-712 388.75,-712 388.75,-712 247.25,-712"/>
<polygon fill="none" stroke="#666666" points="247.25,-496.5 247.25,-743 388.75,-743 388.75,-496.5 247.25,-496.5"/>
</a>
</g>
</g>
<!-- Node5&#45;&gt;Node4 -->
<g id="edge5_Node000004_Node000005" class="edge">
<title>Node5&#45;&gt;Node4</title>
<g id="a_edge5_Node000004_Node000005"><a xlink:title=" ">
<path fill="none" stroke="#63b8ff" d="M318,-485.31C318,-471.32 318,-457.32 318,-443.92"/>
<polygon fill="none" stroke="#63b8ff" points="314.5,-485 318,-495 321.5,-485 314.5,-485"/>
</a>
</g>
</g>
<!-- Node6 -->
<g id="Node000006" class="node">
<title>Node6</title>
<g id="a_Node000006"><a xlink:title=" ">
<polygon fill="white" stroke="none" points="364.75,-843 271.25,-843 271.25,-795.5 364.75,-795.5 364.75,-843"/>
<text xml:space="preserve" text-anchor="start" x="275.25" y="-830.45" font-family="Arial" font-size="9.00">SemaphoreHandle_t</text>
<text xml:space="preserve" text-anchor="start" x="316.88" y="-815.95" font-family="Arial" font-size="9.00"> </text>
<text xml:space="preserve" text-anchor="start" x="316.88" y="-801.45" font-family="Arial" font-size="9.00"> </text>
<polygon fill="#bfbfbf" stroke="#bfbfbf" points="271.25,-826.5 271.25,-826.5 364.75,-826.5 364.75,-826.5 271.25,-826.5"/>
<polygon fill="#bfbfbf" stroke="#bfbfbf" points="271.25,-812 271.25,-812 364.75,-812 364.75,-812 271.25,-812"/>
<polygon fill="none" stroke="#bfbfbf" points="271.25,-795.5 271.25,-843 364.75,-843 364.75,-795.5 271.25,-795.5"/>
</a>
</g>
</g>
<!-- Node6&#45;&gt;Node5 -->
<g id="edge6_Node000005_Node000006" class="edge">
<title>Node6&#45;&gt;Node5</title>
<g id="a_edge6_Node000005_Node000006"><a xlink:title=" ">
<path fill="none" stroke="#63b8ff" d="M318,-795.59C318,-784.83 318,-771 318,-755.85"/>
<polygon fill="none" stroke="#63b8ff" points="318,-755.75 314,-749.75 318,-743.75 322,-749.75 318,-755.75"/>
</a>
</g>
<text xml:space="preserve" text-anchor="start" x="321" y="-765.95" font-family="Arial" font-size="9.00" fill="grey">#handle</text>
</g>
</g>
</svg>
