<?xml version="1.0" encoding="UTF-8" standalone="no"?>
<!DOCTYPE svg PUBLIC "-//W3C//DTD SVG 1.1//EN"
 "http://www.w3.org/Graphics/SVG/1.1/DTD/svg11.dtd">
<!-- Generated by graphviz version 12.2.1 (20241206.2353)
 -->
<!-- Title: SPI3Port.hpp Pages: 1 -->
<svg width="152pt" height="84pt"
 viewBox="0.00 0.00 152.25 84.00" xmlns="http://www.w3.org/2000/svg" xmlns:xlink="http://www.w3.org/1999/xlink">
<g id="graph0" class="graph" transform="scale(1 1) rotate(0) translate(4 80)">
<title>SPI3Port.hpp</title>
<!-- Node1 -->
<g id="Node000001" class="node">
<title>Node1</title>
<g id="a_Node000001"><a xlink:title="Header file for the SPI3Port class.">
<polygon fill="#999999" stroke="#666666" points="122,-76 47.5,-76 47.5,-56 122,-56 122,-76"/>
<text text-anchor="middle" x="84.75" y="-62.5" font-family="Arial" font-size="10.00">SPI3Port.hpp</text>
</a>
</g>
</g>
<!-- Node2 -->
<g id="Node000002" class="node">
<title>Node2</title>
<g id="a_Node000002"><a xlink:title=" ">
<polygon fill="#e0e0e0" stroke="#999999" points="89.5,-20 0,-20 0,0 89.5,0 89.5,-20"/>
<text text-anchor="middle" x="44.75" y="-6.5" font-family="Arial" font-size="10.00">Lib/HAL/SPI.hpp</text>
</a>
</g>
</g>
<!-- Node1&#45;&gt;Node2 -->
<g id="edge1_Node000001_Node000002" class="edge">
<title>Node1&#45;&gt;Node2</title>
<g id="a_edge1_Node000001_Node000002"><a xlink:title=" ">
<path fill="none" stroke="#63b8ff" d="M77.78,-55.59C72.45,-48.39 64.92,-38.23 58.4,-29.43"/>
<polygon fill="#63b8ff" stroke="#63b8ff" points="61.3,-27.47 52.54,-21.51 55.68,-31.63 61.3,-27.47"/>
</a>
</g>
</g>
<!-- Node3 -->
<g id="Node000003" class="node">
<title>Node3</title>
<g id="a_Node000003"><a xlink:title=" ">
<polygon fill="#e0e0e0" stroke="#999999" points="144.25,-20 107.25,-20 107.25,0 144.25,0 144.25,-20"/>
<text text-anchor="middle" x="125.75" y="-6.5" font-family="Arial" font-size="10.00">spi.h</text>
</a>
</g>
</g>
<!-- Node1&#45;&gt;Node3 -->
<g id="edge2_Node000001_Node000003" class="edge">
<title>Node1&#45;&gt;Node3</title>
<g id="a_edge2_Node000001_Node000003"><a xlink:title=" ">
<path fill="none" stroke="#63b8ff" d="M91.89,-55.59C97.36,-48.39 105.07,-38.23 111.76,-29.43"/>
<polygon fill="#63b8ff" stroke="#63b8ff" points="114.52,-31.58 117.77,-21.5 108.94,-27.35 114.52,-31.58"/>
</a>
</g>
</g>
</g>
</svg>
