<?xml version="1.0" encoding="UTF-8" standalone="no"?>
<!DOCTYPE svg PUBLIC "-//W3C//DTD SVG 1.1//EN"
 "http://www.w3.org/Graphics/SVG/1.1/DTD/svg11.dtd">
<!-- Generated by graphviz version 13.1.0 (20250701.0955)
 -->
<!-- Title: Lib::USB::SerialPortRepeaterBase::Config Pages: 1 -->
<svg width="144pt" height="108pt"
 viewBox="0.00 0.00 144.00 108.00" xmlns="http://www.w3.org/2000/svg" xmlns:xlink="http://www.w3.org/1999/xlink">
<g id="graph0" class="graph" transform="scale(1 1) rotate(0) translate(4 104)">
<title>Lib::USB::SerialPortRepeaterBase::Config</title>
<!-- Node1 -->
<g id="Node000001" class="node">
<title>Node1</title>
<g id="a_Node000001"><a xlink:title="Configuration structure for SerialPortRepeaterBase.">
<polygon fill="#999999" stroke="none" points="136.25,-32 0,-32 0,0 136.25,0 136.25,-32"/>
<text xml:space="preserve" text-anchor="start" x="4" y="-18.5" font-family="Helvetica,sans-Serif" font-size="10.00">Lib::USB::SerialPortRepeater</text>
<text xml:space="preserve" text-anchor="start" x="39.62" y="-6.5" font-family="Helvetica,sans-Serif" font-size="10.00">Base::Config</text>
<polygon fill="none" stroke="#666666" points="0,0 0,-32 136.25,-32 136.25,0 0,0"/>
</a>
</g>
</g>
<!-- Node2 -->
<g id="Node000002" class="node">
<title>Node2</title>
<g id="a_Node000002"><a xlink:href="../../d1/df7/class_lib_1_1_u_s_b_1_1_serial_port_1_1_config.html" target="_top" xlink:title="Configuration for the SerialPort.">
<polygon fill="white" stroke="none" points="116.38,-100 19.88,-100 19.88,-68 116.38,-68 116.38,-100"/>
<text xml:space="preserve" text-anchor="start" x="23.88" y="-86.5" font-family="Helvetica,sans-Serif" font-size="10.00">Lib::USB::SerialPort</text>
<text xml:space="preserve" text-anchor="start" x="50.88" y="-74.5" font-family="Helvetica,sans-Serif" font-size="10.00">::Config</text>
<polygon fill="none" stroke="#666666" points="19.88,-68 19.88,-100 116.38,-100 116.38,-68 19.88,-68"/>
</a>
</g>
</g>
<!-- Node2&#45;&gt;Node1 -->
<g id="edge1_Node000001_Node000002" class="edge">
<title>Node2&#45;&gt;Node1</title>
<g id="a_edge1_Node000001_Node000002"><a xlink:title=" ">
<path fill="none" stroke="#63b8ff" d="M68.12,-56.75C68.12,-48.3 68.12,-39.25 68.12,-31.92"/>
<polygon fill="none" stroke="#63b8ff" points="64.63,-56.51 68.13,-66.51 71.63,-56.51 64.63,-56.51"/>
</a>
</g>
</g>
</g>
</svg>
