<?xml version="1.0" encoding="UTF-8" standalone="no"?>
<!DOCTYPE svg PUBLIC "-//W3C//DTD SVG 1.1//EN"
 "http://www.w3.org/Graphics/SVG/1.1/DTD/svg11.dtd">
<!-- Generated by graphviz version 10.0.1 (20240210.2158)
 -->
<!-- Title: Lib::Xbee::API::Connection Pages: 1 -->
<svg width="583pt" height="632pt"
 viewBox="0.00 0.00 583.25 632.00" xmlns="http://www.w3.org/2000/svg" xmlns:xlink="http://www.w3.org/1999/xlink">
<g id="graph0" class="graph" transform="scale(1 1) rotate(0) translate(4 628)">
<title>Lib::Xbee::API::Connection</title>
<!-- Node1 -->
<g id="Node000001" class="node">
<title>Node1</title>
<g id="a_Node000001"><a xlink:title="Manages and monitors the state and quality of an XBee connection.">
<polygon fill="#999999" stroke="none" points="270,-52 144,-52 144,0 270,0 270,-52"/>
<text text-anchor="start" x="148.88" y="-38.5" font-family="Helvetica,sans-Serif" font-size="10.00">Lib::Xbee::API::Connection</text>
<text text-anchor="start" x="205.5" y="-22.5" font-family="Helvetica,sans-Serif" font-size="10.00"> </text>
<text text-anchor="start" x="161.5" y="-6.5" font-family="Helvetica,sans-Serif" font-size="10.00">+</text>
<text text-anchor="start" x="185" y="-6.5" font-family="Helvetica,sans-Serif" font-size="10.00">Connection()</text>
<polygon fill="#666666" stroke="#666666" points="144,-34 144,-34 270,-34 270,-34 144,-34"/>
<polygon fill="#666666" stroke="#666666" points="144,-18 144,-18 270,-18 270,-18 144,-18"/>
<polygon fill="none" stroke="#666666" points="144,0 144,-52 270,-52 270,0 144,0"/>
</a>
</g>
</g>
<!-- Node2 -->
<g id="Node000002" class="node">
<title>Node2</title>
<g id="a_Node000002"><a xlink:href="../../de/dbc/a00249.html" target="_top" xlink:title="Manages the state of the connection.">
<polygon fill="white" stroke="none" points="126,-260 0,-260 0,-132 126,-132 126,-260"/>
<text text-anchor="start" x="4.88" y="-246.5" font-family="Helvetica,sans-Serif" font-size="10.00">Lib::Xbee::API::Connection</text>
<text text-anchor="start" x="48.38" y="-234.5" font-family="Helvetica,sans-Serif" font-size="10.00">::State</text>
<text text-anchor="start" x="6.5" y="-218.5" font-family="Helvetica,sans-Serif" font-size="10.00">+</text>
<text text-anchor="start" x="19" y="-218.5" font-family="Helvetica,sans-Serif" font-size="10.00">onConnectionChanged</text>
<text text-anchor="start" x="6.5" y="-202.5" font-family="Helvetica,sans-Serif" font-size="10.00">+</text>
<text text-anchor="start" x="19" y="-202.5" font-family="Helvetica,sans-Serif" font-size="10.00">State()</text>
<text text-anchor="start" x="6.5" y="-186.5" font-family="Helvetica,sans-Serif" font-size="10.00">+</text>
<text text-anchor="start" x="19" y="-186.5" font-family="Helvetica,sans-Serif" font-size="10.00">State()</text>
<text text-anchor="start" x="6.5" y="-170.5" font-family="Helvetica,sans-Serif" font-size="10.00">+</text>
<text text-anchor="start" x="19" y="-170.5" font-family="Helvetica,sans-Serif" font-size="10.00">operator=()</text>
<text text-anchor="start" x="6.5" y="-154.5" font-family="Helvetica,sans-Serif" font-size="10.00">+</text>
<text text-anchor="start" x="19" y="-154.5" font-family="Helvetica,sans-Serif" font-size="10.00">operator uint32_t()</text>
<text text-anchor="start" x="6.5" y="-138.5" font-family="Helvetica,sans-Serif" font-size="10.00">+</text>
<text text-anchor="start" x="19" y="-138.5" font-family="Helvetica,sans-Serif" font-size="10.00">isConnected()</text>
<polygon fill="#666666" stroke="#666666" points="0,-230 0,-230 126,-230 126,-230 0,-230"/>
<polygon fill="#666666" stroke="#666666" points="0,-214 0,-214 17,-214 17,-214 0,-214"/>
<polygon fill="#666666" stroke="#666666" points="17,-214 17,-214 126,-214 126,-214 17,-214"/>
<polygon fill="none" stroke="#666666" points="0,-132 0,-260 126,-260 126,-132 0,-132"/>
</a>
</g>
</g>
<!-- Node2&#45;&gt;Node1 -->
<g id="edge1_Node000001_Node000002" class="edge">
<title>Node2&#45;&gt;Node1</title>
<g id="a_edge1_Node000001_Node000002"><a xlink:title=" ">
<path fill="none" stroke="#63b8ff" d="M108.73,-132.25C117.22,-121.3 126.2,-110.17 135,-100 146.4,-86.83 159.6,-73.07 171.57,-61.08"/>
<polygon fill="none" stroke="#63b8ff" points="171.67,-60.98 173.12,-53.91 180.2,-52.53 178.75,-59.6 171.67,-60.98"/>
</a>
</g>
<text text-anchor="middle" x="177.38" y="-72.5" font-family="Helvetica,sans-Serif" font-size="10.00" fill="grey"> +state</text>
</g>
<!-- Node3 -->
<g id="Node000003" class="node">
<title>Node3</title>
<g id="a_Node000003"><a xlink:href="../../d0/d3e/a00253.html" target="_top" xlink:title="Monitors the quality of an XBee connection.">
<polygon fill="white" stroke="none" points="270,-292 144,-292 144,-100 270,-100 270,-292"/>
<text text-anchor="start" x="148.88" y="-278.5" font-family="Helvetica,sans-Serif" font-size="10.00">Lib::Xbee::API::Connection</text>
<text text-anchor="start" x="188.62" y="-266.5" font-family="Helvetica,sans-Serif" font-size="10.00">::Quality</text>
<text text-anchor="start" x="155" y="-250.5" font-family="Helvetica,sans-Serif" font-size="10.00">+</text>
<text text-anchor="start" x="172" y="-250.5" font-family="Helvetica,sans-Serif" font-size="10.00">onUpdate</text>
<text text-anchor="start" x="155" y="-234.5" font-family="Helvetica,sans-Serif" font-size="10.00">+</text>
<text text-anchor="start" x="172" y="-234.5" font-family="Helvetica,sans-Serif" font-size="10.00">Quality()</text>
<text text-anchor="start" x="155" y="-218.5" font-family="Helvetica,sans-Serif" font-size="10.00">+</text>
<text text-anchor="start" x="172" y="-218.5" font-family="Helvetica,sans-Serif" font-size="10.00">~Quality()</text>
<text text-anchor="start" x="155" y="-202.5" font-family="Helvetica,sans-Serif" font-size="10.00">+</text>
<text text-anchor="start" x="172" y="-202.5" font-family="Helvetica,sans-Serif" font-size="10.00">start()</text>
<text text-anchor="start" x="155" y="-186.5" font-family="Helvetica,sans-Serif" font-size="10.00">+</text>
<text text-anchor="start" x="172" y="-186.5" font-family="Helvetica,sans-Serif" font-size="10.00">clear()</text>
<text text-anchor="start" x="155" y="-170.5" font-family="Helvetica,sans-Serif" font-size="10.00">+</text>
<text text-anchor="start" x="172" y="-170.5" font-family="Helvetica,sans-Serif" font-size="10.00">setRuntimeMode()</text>
<text text-anchor="start" x="155" y="-154.5" font-family="Helvetica,sans-Serif" font-size="10.00">+</text>
<text text-anchor="start" x="172" y="-154.5" font-family="Helvetica,sans-Serif" font-size="10.00">setScannerMode()</text>
<text text-anchor="start" x="155" y="-138.5" font-family="Helvetica,sans-Serif" font-size="10.00">+</text>
<text text-anchor="start" x="172" y="-138.5" font-family="Helvetica,sans-Serif" font-size="10.00">getPercent()</text>
<text text-anchor="start" x="155" y="-122.5" font-family="Helvetica,sans-Serif" font-size="10.00">+</text>
<text text-anchor="start" x="172" y="-122.5" font-family="Helvetica,sans-Serif" font-size="10.00">getState()</text>
<text text-anchor="start" x="155" y="-106.5" font-family="Helvetica,sans-Serif" font-size="10.00">+</text>
<text text-anchor="start" x="172" y="-106.5" font-family="Helvetica,sans-Serif" font-size="10.00">update()</text>
<polygon fill="#666666" stroke="#666666" points="144,-262 144,-262 270,-262 270,-262 144,-262"/>
<polygon fill="#666666" stroke="#666666" points="144,-246 144,-246 170,-246 170,-246 144,-246"/>
<polygon fill="#666666" stroke="#666666" points="170,-246 170,-246 270,-246 270,-246 170,-246"/>
<polygon fill="none" stroke="#666666" points="144,-100 144,-292 270,-292 270,-100 144,-100"/>
</a>
</g>
</g>
<!-- Node3&#45;&gt;Node1 -->
<g id="edge2_Node000001_Node000003" class="edge">
<title>Node3&#45;&gt;Node1</title>
<g id="a_edge2_Node000001_Node000003"><a xlink:title=" ">
<path fill="none" stroke="#63b8ff" d="M207,-100.2C207,-87.64 207,-75.41 207,-64.65"/>
<polygon fill="none" stroke="#63b8ff" points="207,-64.8 203,-58.8 207,-52.8 211,-58.8 207,-64.8"/>
</a>
</g>
<text text-anchor="middle" x="225.75" y="-72.5" font-family="Helvetica,sans-Serif" font-size="10.00" fill="grey"> +quality</text>
</g>
<!-- Node4 -->
<g id="Node000004" class="node">
<title>Node4</title>
<g id="a_Node000004"><a xlink:href="../../d9/d39/a00257.html" target="_top" xlink:title="Holds information about the connection.">
<polygon fill="white" stroke="none" points="414,-236 288,-236 288,-156 414,-156 414,-236"/>
<text text-anchor="start" x="292.88" y="-222.5" font-family="Helvetica,sans-Serif" font-size="10.00">Lib::Xbee::API::Connection</text>
<text text-anchor="start" x="340.5" y="-210.5" font-family="Helvetica,sans-Serif" font-size="10.00">::Info</text>
<text text-anchor="start" x="349.5" y="-194.5" font-family="Helvetica,sans-Serif" font-size="10.00"> </text>
<text text-anchor="start" x="312" y="-178.5" font-family="Helvetica,sans-Serif" font-size="10.00">+</text>
<text text-anchor="start" x="342" y="-178.5" font-family="Helvetica,sans-Serif" font-size="10.00">Info()</text>
<text text-anchor="start" x="312" y="-162.5" font-family="Helvetica,sans-Serif" font-size="10.00">+</text>
<text text-anchor="start" x="342" y="-162.5" font-family="Helvetica,sans-Serif" font-size="10.00">~Info()</text>
<polygon fill="#666666" stroke="#666666" points="288,-206 288,-206 414,-206 414,-206 288,-206"/>
<polygon fill="#666666" stroke="#666666" points="288,-190 288,-190 414,-190 414,-190 288,-190"/>
<polygon fill="none" stroke="#666666" points="288,-156 288,-236 414,-236 414,-156 288,-156"/>
</a>
</g>
</g>
<!-- Node4&#45;&gt;Node1 -->
<g id="edge3_Node000001_Node000004" class="edge">
<title>Node4&#45;&gt;Node1</title>
<g id="a_edge3_Node000001_Node000004"><a xlink:title=" ">
<path fill="none" stroke="#63b8ff" d="M323.37,-156.2C310.41,-138.63 294.44,-117.84 279,-100 267.6,-86.83 254.4,-73.07 242.43,-61.08"/>
<polygon fill="none" stroke="#63b8ff" points="242.33,-60.98 235.25,-59.6 233.8,-52.53 240.88,-53.91 242.33,-60.98"/>
</a>
</g>
<text text-anchor="middle" x="275" y="-72.5" font-family="Helvetica,sans-Serif" font-size="10.00" fill="grey"> +info</text>
</g>
<!-- Node5 -->
<g id="Node000005" class="node">
<title>Node5</title>
<g id="a_Node000005"><a xlink:href="../../d5/d42/a00269.html" target="_top" xlink:title="Manages the signal strength value.">
<polygon fill="white" stroke="none" points="270,-576 144,-576 144,-448 270,-448 270,-576"/>
<text text-anchor="start" x="148.88" y="-562.5" font-family="Helvetica,sans-Serif" font-size="10.00">Lib::Xbee::API::Connection</text>
<text text-anchor="start" x="161.62" y="-550.5" font-family="Helvetica,sans-Serif" font-size="10.00">::Info::SignalStrength</text>
<text text-anchor="start" x="205.5" y="-534.5" font-family="Helvetica,sans-Serif" font-size="10.00"> </text>
<text text-anchor="start" x="156.5" y="-518.5" font-family="Helvetica,sans-Serif" font-size="10.00">+</text>
<text text-anchor="start" x="175" y="-518.5" font-family="Helvetica,sans-Serif" font-size="10.00">SignalStrength()</text>
<text text-anchor="start" x="156.5" y="-502.5" font-family="Helvetica,sans-Serif" font-size="10.00">+</text>
<text text-anchor="start" x="175" y="-502.5" font-family="Helvetica,sans-Serif" font-size="10.00">SignalStrength()</text>
<text text-anchor="start" x="156.5" y="-486.5" font-family="Helvetica,sans-Serif" font-size="10.00">+</text>
<text text-anchor="start" x="175" y="-486.5" font-family="Helvetica,sans-Serif" font-size="10.00">operator=()</text>
<text text-anchor="start" x="156.5" y="-470.5" font-family="Helvetica,sans-Serif" font-size="10.00">+</text>
<text text-anchor="start" x="175" y="-470.5" font-family="Helvetica,sans-Serif" font-size="10.00">operator uint8_t()</text>
<text text-anchor="start" x="156.5" y="-454.5" font-family="Helvetica,sans-Serif" font-size="10.00">+</text>
<text text-anchor="start" x="175" y="-454.5" font-family="Helvetica,sans-Serif" font-size="10.00">toPercent()</text>
<polygon fill="#666666" stroke="#666666" points="144,-546 144,-546 270,-546 270,-546 144,-546"/>
<polygon fill="#666666" stroke="#666666" points="144,-530 144,-530 270,-530 270,-530 144,-530"/>
<polygon fill="none" stroke="#666666" points="144,-448 144,-576 270,-576 270,-448 144,-448"/>
</a>
</g>
</g>
<!-- Node5&#45;&gt;Node4 -->
<g id="edge4_Node000004_Node000005" class="edge">
<title>Node5&#45;&gt;Node4</title>
<g id="a_edge4_Node000004_Node000005"><a xlink:title=" ">
<path fill="none" stroke="#63b8ff" d="M223.92,-448.21C235.93,-407.7 253.79,-354.48 275.75,-310 286.53,-288.17 300.86,-265.55 314.12,-246.35"/>
<polygon fill="none" stroke="#63b8ff" points="314.15,-246.31 314.32,-239.11 321.04,-236.5 320.87,-243.71 314.15,-246.31"/>
</a>
</g>
<text text-anchor="middle" x="311.62" y="-342.5" font-family="Helvetica,sans-Serif" font-size="10.00" fill="grey"> +signalStrength</text>
</g>
<!-- Node6 -->
<g id="Node000006" class="node">
<title>Node6</title>
<g id="a_Node000006"><a xlink:href="../../da/d53/a00265.html" target="_top" xlink:title="A class to measure and track time periods with minimum, maximum, and average values.">
<polygon fill="white" stroke="none" points="414,-624 288,-624 288,-400 414,-400 414,-624"/>
<text text-anchor="start" x="292.88" y="-610.5" font-family="Helvetica,sans-Serif" font-size="10.00">Lib::Xbee::API::Connection</text>
<text text-anchor="start" x="323.62" y="-598.5" font-family="Helvetica,sans-Serif" font-size="10.00">::Info::Period</text>
<text text-anchor="start" x="349.5" y="-582.5" font-family="Helvetica,sans-Serif" font-size="10.00"> </text>
<text text-anchor="start" x="297" y="-566.5" font-family="Helvetica,sans-Serif" font-size="10.00">+</text>
<text text-anchor="start" x="312" y="-566.5" font-family="Helvetica,sans-Serif" font-size="10.00">Period()</text>
<text text-anchor="start" x="297" y="-550.5" font-family="Helvetica,sans-Serif" font-size="10.00">+</text>
<text text-anchor="start" x="312" y="-550.5" font-family="Helvetica,sans-Serif" font-size="10.00">getValue()</text>
<text text-anchor="start" x="297" y="-534.5" font-family="Helvetica,sans-Serif" font-size="10.00">+</text>
<text text-anchor="start" x="312" y="-534.5" font-family="Helvetica,sans-Serif" font-size="10.00">getRawValue()</text>
<text text-anchor="start" x="297" y="-518.5" font-family="Helvetica,sans-Serif" font-size="10.00">+</text>
<text text-anchor="start" x="312" y="-518.5" font-family="Helvetica,sans-Serif" font-size="10.00">getMinimum()</text>
<text text-anchor="start" x="297" y="-502.5" font-family="Helvetica,sans-Serif" font-size="10.00">+</text>
<text text-anchor="start" x="312" y="-502.5" font-family="Helvetica,sans-Serif" font-size="10.00">getMaximum()</text>
<text text-anchor="start" x="297" y="-486.5" font-family="Helvetica,sans-Serif" font-size="10.00">+</text>
<text text-anchor="start" x="312" y="-486.5" font-family="Helvetica,sans-Serif" font-size="10.00">clearMinMax()</text>
<text text-anchor="start" x="297" y="-470.5" font-family="Helvetica,sans-Serif" font-size="10.00">+</text>
<text text-anchor="start" x="312" y="-470.5" font-family="Helvetica,sans-Serif" font-size="10.00">beginMeasurement()</text>
<text text-anchor="start" x="297" y="-454.5" font-family="Helvetica,sans-Serif" font-size="10.00">+</text>
<text text-anchor="start" x="312" y="-454.5" font-family="Helvetica,sans-Serif" font-size="10.00">endMeasurement()</text>
<text text-anchor="start" x="297" y="-438.5" font-family="Helvetica,sans-Serif" font-size="10.00">+</text>
<text text-anchor="start" x="312" y="-438.5" font-family="Helvetica,sans-Serif" font-size="10.00">stopMeasurement()</text>
<text text-anchor="start" x="297" y="-422.5" font-family="Helvetica,sans-Serif" font-size="10.00">+</text>
<text text-anchor="start" x="312" y="-422.5" font-family="Helvetica,sans-Serif" font-size="10.00">reset()</text>
<text text-anchor="start" x="297" y="-406.5" font-family="Helvetica,sans-Serif" font-size="10.00">+</text>
<text text-anchor="start" x="312" y="-406.5" font-family="Helvetica,sans-Serif" font-size="10.00">operator uint32_t()</text>
<polygon fill="#666666" stroke="#666666" points="288,-594 288,-594 414,-594 414,-594 288,-594"/>
<polygon fill="#666666" stroke="#666666" points="288,-578 288,-578 414,-578 414,-578 288,-578"/>
<polygon fill="none" stroke="#666666" points="288,-400 288,-624 414,-624 414,-400 288,-400"/>
</a>
</g>
</g>
<!-- Node6&#45;&gt;Node4 -->
<g id="edge5_Node000004_Node000006" class="edge">
<title>Node6&#45;&gt;Node4</title>
<g id="a_edge5_Node000004_Node000006"><a xlink:title=" ">
<path fill="none" stroke="#63b8ff" d="M351,-400.3C351,-348.79 351,-289.98 351,-248.91"/>
<polygon fill="none" stroke="#63b8ff" points="351,-248.86 347,-242.86 351,-236.86 355,-242.86 351,-248.86"/>
</a>
</g>
<text text-anchor="middle" x="387" y="-342.5" font-family="Helvetica,sans-Serif" font-size="10.00" fill="grey"> +transmitPeriod</text>
</g>
<!-- Node7 -->
<g id="Node000007" class="node">
<title>Node7</title>
<g id="a_Node000007"><a xlink:href="../../dc/d6a/a00261.html" target="_top" xlink:title="Manages a counter value.">
<polygon fill="white" stroke="none" points="558,-568 432,-568 432,-456 558,-456 558,-568"/>
<text text-anchor="start" x="436.88" y="-554.5" font-family="Helvetica,sans-Serif" font-size="10.00">Lib::Xbee::API::Connection</text>
<text text-anchor="start" x="464.62" y="-542.5" font-family="Helvetica,sans-Serif" font-size="10.00">::Info::Counter</text>
<text text-anchor="start" x="493.5" y="-526.5" font-family="Helvetica,sans-Serif" font-size="10.00"> </text>
<text text-anchor="start" x="443.5" y="-510.5" font-family="Helvetica,sans-Serif" font-size="10.00">+</text>
<text text-anchor="start" x="461" y="-510.5" font-family="Helvetica,sans-Serif" font-size="10.00">Counter()</text>
<text text-anchor="start" x="443.5" y="-494.5" font-family="Helvetica,sans-Serif" font-size="10.00">+</text>
<text text-anchor="start" x="461" y="-494.5" font-family="Helvetica,sans-Serif" font-size="10.00">operator uint32_t()</text>
<text text-anchor="start" x="443.5" y="-478.5" font-family="Helvetica,sans-Serif" font-size="10.00">+</text>
<text text-anchor="start" x="461" y="-478.5" font-family="Helvetica,sans-Serif" font-size="10.00">clear()</text>
<text text-anchor="start" x="443.5" y="-462.5" font-family="Helvetica,sans-Serif" font-size="10.00">+</text>
<text text-anchor="start" x="461" y="-462.5" font-family="Helvetica,sans-Serif" font-size="10.00">operator++()</text>
<polygon fill="#666666" stroke="#666666" points="432,-538 432,-538 558,-538 558,-538 432,-538"/>
<polygon fill="#666666" stroke="#666666" points="432,-522 432,-522 558,-522 558,-522 432,-522"/>
<polygon fill="none" stroke="#666666" points="432,-456 432,-568 558,-568 558,-456 432,-456"/>
</a>
</g>
</g>
<!-- Node7&#45;&gt;Node4 -->
<g id="edge6_Node000004_Node000007" class="edge">
<title>Node7&#45;&gt;Node4</title>
<g id="a_edge6_Node000004_Node000007"><a xlink:title=" ">
<path fill="none" stroke="#63b8ff" d="M480.72,-456.12C468.96,-414.81 450.43,-357.39 427,-310 416.22,-288.2 401.83,-265.67 388.47,-246.52"/>
<polygon fill="none" stroke="#63b8ff" points="388.45,-246.48 381.71,-243.9 381.5,-236.69 388.23,-239.27 388.45,-246.48"/>
</a>
</g>
<text text-anchor="middle" x="515.62" y="-372.5" font-family="Helvetica,sans-Serif" font-size="10.00" fill="grey"> +deletedMessages</text>
<text text-anchor="middle" x="515.62" y="-360.5" font-family="Helvetica,sans-Serif" font-size="10.00" fill="grey">+deletedTransmitStatus</text>
<text text-anchor="middle" x="515.62" y="-348.5" font-family="Helvetica,sans-Serif" font-size="10.00" fill="grey">+noTransmitStatus</text>
<text text-anchor="middle" x="515.62" y="-336.5" font-family="Helvetica,sans-Serif" font-size="10.00" fill="grey">+reconnectionCounter</text>
<text text-anchor="middle" x="515.62" y="-324.5" font-family="Helvetica,sans-Serif" font-size="10.00" fill="grey">+retriesCounter</text>
<text text-anchor="middle" x="515.62" y="-312.5" font-family="Helvetica,sans-Serif" font-size="10.00" fill="grey">+unsuccessTransmitStatus</text>
</g>
</g>
</svg>
