<?xml version="1.0" encoding="UTF-8" standalone="no"?>
<!DOCTYPE svg PUBLIC "-//W3C//DTD SVG 1.1//EN"
 "http://www.w3.org/Graphics/SVG/1.1/DTD/svg11.dtd">
<!-- Generated by graphviz version 12.2.1 (20241206.2353)
 -->
<!-- Title: Lib::Xbee::API::Service::Parameters Pages: 1 -->
<svg width="281pt" height="664pt"
 viewBox="0.00 0.00 280.62 664.00" xmlns="http://www.w3.org/2000/svg" xmlns:xlink="http://www.w3.org/1999/xlink">
<g id="graph0" class="graph" transform="scale(1 1) rotate(0) translate(4 660)">
<title>Lib::Xbee::API::Service::Parameters</title>
<!-- Node1 -->
<g id="Node000001" class="node">
<title>Node1</title>
<g id="a_Node000001"><a xlink:title="Manages and manipulates various parameters related to XBee devices.">
<polygon fill="#999999" stroke="none" points="162.75,-256 0,-256 0,0 162.75,0 162.75,-256"/>
<text text-anchor="start" x="30" y="-242.5" font-family="Helvetica,sans-Serif" font-size="10.00">Lib::Xbee::API::Service</text>
<text text-anchor="start" x="53.25" y="-230.5" font-family="Helvetica,sans-Serif" font-size="10.00">::Parameters</text>
<text text-anchor="start" x="79.88" y="-214.5" font-family="Helvetica,sans-Serif" font-size="10.00"> </text>
<text text-anchor="start" x="4" y="-198.5" font-family="Helvetica,sans-Serif" font-size="10.00">+</text>
<text text-anchor="start" x="14" y="-198.5" font-family="Helvetica,sans-Serif" font-size="10.00">Parameters()</text>
<text text-anchor="start" x="4" y="-182.5" font-family="Helvetica,sans-Serif" font-size="10.00">+</text>
<text text-anchor="start" x="14" y="-182.5" font-family="Helvetica,sans-Serif" font-size="10.00">open()</text>
<text text-anchor="start" x="4" y="-166.5" font-family="Helvetica,sans-Serif" font-size="10.00">+</text>
<text text-anchor="start" x="14" y="-166.5" font-family="Helvetica,sans-Serif" font-size="10.00">close()</text>
<text text-anchor="start" x="4" y="-150.5" font-family="Helvetica,sans-Serif" font-size="10.00">+</text>
<text text-anchor="start" x="14" y="-150.5" font-family="Helvetica,sans-Serif" font-size="10.00">read()</text>
<text text-anchor="start" x="4" y="-134.5" font-family="Helvetica,sans-Serif" font-size="10.00">+</text>
<text text-anchor="start" x="14" y="-134.5" font-family="Helvetica,sans-Serif" font-size="10.00">initCallback()</text>
<text text-anchor="start" x="4" y="-118.5" font-family="Helvetica,sans-Serif" font-size="10.00">+</text>
<text text-anchor="start" x="14" y="-118.5" font-family="Helvetica,sans-Serif" font-size="10.00">updateCallback()</text>
<text text-anchor="start" x="4" y="-102.5" font-family="Helvetica,sans-Serif" font-size="10.00">+</text>
<text text-anchor="start" x="14" y="-102.5" font-family="Helvetica,sans-Serif" font-size="10.00">closeCallback()</text>
<text text-anchor="start" x="4" y="-86.5" font-family="Helvetica,sans-Serif" font-size="10.00">+</text>
<text text-anchor="start" x="14" y="-86.5" font-family="Helvetica,sans-Serif" font-size="10.00">getChannel()</text>
<text text-anchor="start" x="4" y="-70.5" font-family="Helvetica,sans-Serif" font-size="10.00">+</text>
<text text-anchor="start" x="14" y="-70.5" font-family="Helvetica,sans-Serif" font-size="10.00">setChannel()</text>
<text text-anchor="start" x="4" y="-54.5" font-family="Helvetica,sans-Serif" font-size="10.00">+</text>
<text text-anchor="start" x="14" y="-54.5" font-family="Helvetica,sans-Serif" font-size="10.00">getPanId()</text>
<text text-anchor="start" x="4" y="-38.5" font-family="Helvetica,sans-Serif" font-size="10.00">+</text>
<text text-anchor="start" x="14" y="-38.5" font-family="Helvetica,sans-Serif" font-size="10.00">setPanId()</text>
<text text-anchor="start" x="4" y="-22.5" font-family="Helvetica,sans-Serif" font-size="10.00">+</text>
<text text-anchor="start" x="14" y="-22.5" font-family="Helvetica,sans-Serif" font-size="10.00">pauseReadDynamicParameters()</text>
<text text-anchor="start" x="4" y="-6.5" font-family="Helvetica,sans-Serif" font-size="10.00">+</text>
<text text-anchor="start" x="14" y="-6.5" font-family="Helvetica,sans-Serif" font-size="10.00">writeChanges()</text>
<polygon fill="#666666" stroke="#666666" points="0,-226 0,-226 162.75,-226 162.75,-226 0,-226"/>
<polygon fill="#666666" stroke="#666666" points="0,-210 0,-210 162.75,-210 162.75,-210 0,-210"/>
<polygon fill="none" stroke="#666666" points="0,0 0,-256 162.75,-256 162.75,0 0,0"/>
</a>
</g>
</g>
<!-- Node2 -->
<g id="Node000002" class="node">
<title>Node2</title>
<g id="a_Node000002"><a xlink:href="../../d4/def/a00359.html" target="_top" xlink:title="Base class for services in the Xbee API.">
<polygon fill="white" stroke="none" points="120.75,-488 10,-488 10,-312 120.75,-312 120.75,-488"/>
<text text-anchor="start" x="14" y="-474.5" font-family="Helvetica,sans-Serif" font-size="10.00">Lib::Xbee::API::Service</text>
<text text-anchor="start" x="34.62" y="-462.5" font-family="Helvetica,sans-Serif" font-size="10.00">::ServiceBase</text>
<text text-anchor="start" x="63.88" y="-446.5" font-family="Helvetica,sans-Serif" font-size="10.00"> </text>
<text text-anchor="start" x="19" y="-430.5" font-family="Helvetica,sans-Serif" font-size="10.00">#</text>
<text text-anchor="start" x="33.25" y="-430.5" font-family="Helvetica,sans-Serif" font-size="10.00">ServiceBase()</text>
<text text-anchor="start" x="19" y="-414.5" font-family="Helvetica,sans-Serif" font-size="10.00">#</text>
<text text-anchor="start" x="33.25" y="-414.5" font-family="Helvetica,sans-Serif" font-size="10.00">~ServiceBase()</text>
<text text-anchor="start" x="19" y="-398.5" font-family="Helvetica,sans-Serif" font-size="10.00">#</text>
<text text-anchor="start" x="33.25" y="-398.5" font-family="Helvetica,sans-Serif" font-size="10.00">open()</text>
<text text-anchor="start" x="19" y="-382.5" font-family="Helvetica,sans-Serif" font-size="10.00">#</text>
<text text-anchor="start" x="33.25" y="-382.5" font-family="Helvetica,sans-Serif" font-size="10.00">close()</text>
<text text-anchor="start" x="19" y="-366.5" font-family="Helvetica,sans-Serif" font-size="10.00">#</text>
<text text-anchor="start" x="33.25" y="-366.5" font-family="Helvetica,sans-Serif" font-size="10.00">isOpen()</text>
<text text-anchor="start" x="19" y="-350.5" font-family="Helvetica,sans-Serif" font-size="10.00">#</text>
<text text-anchor="start" x="33.25" y="-350.5" font-family="Helvetica,sans-Serif" font-size="10.00">initCallback()</text>
<text text-anchor="start" x="19" y="-334.5" font-family="Helvetica,sans-Serif" font-size="10.00">#</text>
<text text-anchor="start" x="33.25" y="-334.5" font-family="Helvetica,sans-Serif" font-size="10.00">updateCallback()</text>
<text text-anchor="start" x="19" y="-318.5" font-family="Helvetica,sans-Serif" font-size="10.00">#</text>
<text text-anchor="start" x="33.25" y="-318.5" font-family="Helvetica,sans-Serif" font-size="10.00">closeCallback()</text>
<polygon fill="#666666" stroke="#666666" points="10,-458 10,-458 120.75,-458 120.75,-458 10,-458"/>
<polygon fill="#666666" stroke="#666666" points="10,-442 10,-442 120.75,-442 120.75,-442 10,-442"/>
<polygon fill="none" stroke="#666666" points="10,-312 10,-488 120.75,-488 120.75,-312 10,-312"/>
</a>
</g>
</g>
<!-- Node2&#45;&gt;Node1 -->
<g id="edge1_Node000001_Node000002" class="edge">
<title>Node2&#45;&gt;Node1</title>
<g id="a_edge1_Node000001_Node000002"><a xlink:title=" ">
<path fill="none" stroke="#63b8ff" d="M71.19,-300.94C72.06,-286.19 72.97,-270.81 73.87,-255.57"/>
<polygon fill="none" stroke="#63b8ff" points="67.71,-300.38 70.62,-310.57 74.7,-300.8 67.71,-300.38"/>
</a>
</g>
</g>
<!-- Node3 -->
<g id="Node000003" class="node">
<title>Node3</title>
<g id="a_Node000003"><a xlink:href="../../d0/dc5/a00343.html" target="_top" xlink:title="Represents the data structure for the Parameters class.">
<polygon fill="white" stroke="none" points="249.75,-496 139,-496 139,-304 249.75,-304 249.75,-496"/>
<text text-anchor="start" x="143" y="-482.5" font-family="Helvetica,sans-Serif" font-size="10.00">Lib::Xbee::API::Service</text>
<text text-anchor="start" x="152.75" y="-470.5" font-family="Helvetica,sans-Serif" font-size="10.00">::Parameters::Data</text>
<text text-anchor="start" x="148.19" y="-454.5" font-family="Helvetica,sans-Serif" font-size="10.00">+</text>
<text text-anchor="start" x="163.38" y="-454.5" font-family="Helvetica,sans-Serif" font-size="10.00">nodeIdentifier</text>
<text text-anchor="start" x="148.19" y="-438.5" font-family="Helvetica,sans-Serif" font-size="10.00">+</text>
<text text-anchor="start" x="163.38" y="-438.5" font-family="Helvetica,sans-Serif" font-size="10.00">panId</text>
<text text-anchor="start" x="148.19" y="-422.5" font-family="Helvetica,sans-Serif" font-size="10.00">+</text>
<text text-anchor="start" x="163.38" y="-422.5" font-family="Helvetica,sans-Serif" font-size="10.00">channel</text>
<text text-anchor="start" x="148.19" y="-406.5" font-family="Helvetica,sans-Serif" font-size="10.00">+</text>
<text text-anchor="start" x="163.38" y="-406.5" font-family="Helvetica,sans-Serif" font-size="10.00">firmwareVersion</text>
<text text-anchor="start" x="148.19" y="-390.5" font-family="Helvetica,sans-Serif" font-size="10.00">+</text>
<text text-anchor="start" x="163.38" y="-390.5" font-family="Helvetica,sans-Serif" font-size="10.00">hardwareVersion</text>
<text text-anchor="start" x="148.19" y="-374.5" font-family="Helvetica,sans-Serif" font-size="10.00">+</text>
<text text-anchor="start" x="163.38" y="-374.5" font-family="Helvetica,sans-Serif" font-size="10.00">ackFailures</text>
<text text-anchor="start" x="148.19" y="-358.5" font-family="Helvetica,sans-Serif" font-size="10.00">+</text>
<text text-anchor="start" x="163.38" y="-358.5" font-family="Helvetica,sans-Serif" font-size="10.00">ccaFailures</text>
<text text-anchor="start" x="148.19" y="-342.5" font-family="Helvetica,sans-Serif" font-size="10.00">+</text>
<text text-anchor="start" x="163.38" y="-342.5" font-family="Helvetica,sans-Serif" font-size="10.00">temperature</text>
<text text-anchor="start" x="148.19" y="-326.5" font-family="Helvetica,sans-Serif" font-size="10.00">+</text>
<text text-anchor="start" x="163.38" y="-326.5" font-family="Helvetica,sans-Serif" font-size="10.00">voltage</text>
<text text-anchor="start" x="192.88" y="-310.5" font-family="Helvetica,sans-Serif" font-size="10.00"> </text>
<polygon fill="#666666" stroke="#666666" points="139,-466 139,-466 249.75,-466 249.75,-466 139,-466"/>
<polygon fill="#666666" stroke="#666666" points="139,-322 139,-322 161.38,-322 161.38,-322 139,-322"/>
<polygon fill="#666666" stroke="#666666" points="161.38,-322 161.38,-322 249.75,-322 249.75,-322 161.38,-322"/>
<polygon fill="none" stroke="#666666" points="139,-304 139,-496 249.75,-496 249.75,-304 139,-304"/>
</a>
</g>
</g>
<!-- Node3&#45;&gt;Node1 -->
<g id="edge2_Node000001_Node000003" class="edge">
<title>Node3&#45;&gt;Node1</title>
<g id="a_edge2_Node000001_Node000003"><a xlink:title=" ">
<path fill="none" stroke="#63b8ff" d="M154.69,-304.19C149.73,-292.33 144.58,-280.01 139.4,-267.66"/>
<polygon fill="none" stroke="#63b8ff" points="139.43,-267.71 133.42,-263.72 134.8,-256.64 140.8,-260.63 139.43,-267.71"/>
</a>
</g>
<text text-anchor="middle" x="158.52" y="-276.5" font-family="Helvetica,sans-Serif" font-size="10.00" fill="grey"> +data</text>
</g>
<!-- Node4 -->
<g id="Node000004" class="node">
<title>Node4</title>
<g id="a_Node000004"><a xlink:href="../../d1/dc6/a00347.html" target="_top" xlink:title="Represents the serial number of the XBee device.">
<polygon fill="white" stroke="none" points="272.62,-656 116.12,-656 116.12,-544 272.62,-544 272.62,-656"/>
<text text-anchor="start" x="120.12" y="-642.5" font-family="Helvetica,sans-Serif" font-size="10.00">Lib::Xbee::API::Service</text>
<text text-anchor="start" x="120.12" y="-630.5" font-family="Helvetica,sans-Serif" font-size="10.00">::Parameters::Data::SerialNumber</text>
<text text-anchor="start" x="150.25" y="-614.5" font-family="Helvetica,sans-Serif" font-size="10.00">+</text>
<text text-anchor="start" x="190.38" y="-614.5" font-family="Helvetica,sans-Serif" font-size="10.00">low</text>
<text text-anchor="start" x="150.25" y="-598.5" font-family="Helvetica,sans-Serif" font-size="10.00">+</text>
<text text-anchor="start" x="190.38" y="-598.5" font-family="Helvetica,sans-Serif" font-size="10.00">high</text>
<text text-anchor="start" x="150.25" y="-582.5" font-family="Helvetica,sans-Serif" font-size="10.00">+</text>
<text text-anchor="start" x="190.38" y="-582.5" font-family="Helvetica,sans-Serif" font-size="10.00">u32</text>
<text text-anchor="start" x="150.25" y="-566.5" font-family="Helvetica,sans-Serif" font-size="10.00">+</text>
<text text-anchor="start" x="190.38" y="-566.5" font-family="Helvetica,sans-Serif" font-size="10.00">u64</text>
<text text-anchor="start" x="192.88" y="-550.5" font-family="Helvetica,sans-Serif" font-size="10.00"> </text>
<polygon fill="#666666" stroke="#666666" points="116.12,-626 116.12,-626 272.62,-626 272.62,-626 116.12,-626"/>
<polygon fill="#666666" stroke="#666666" points="116.12,-562 116.12,-562 188.38,-562 188.38,-562 116.12,-562"/>
<polygon fill="#666666" stroke="#666666" points="188.38,-562 188.38,-562 272.62,-562 272.62,-562 188.38,-562"/>
<polygon fill="none" stroke="#666666" points="116.12,-544 116.12,-656 272.62,-656 272.62,-544 116.12,-544"/>
</a>
</g>
</g>
<!-- Node4&#45;&gt;Node3 -->
<g id="edge3_Node000003_Node000004" class="edge">
<title>Node4&#45;&gt;Node3</title>
<g id="a_edge3_Node000003_Node000004"><a xlink:title=" ">
<path fill="none" stroke="#63b8ff" d="M194.38,-544.11C194.38,-532.98 194.38,-520.92 194.38,-508.68"/>
<polygon fill="none" stroke="#63b8ff" points="194.38,-508.79 190.38,-502.79 194.38,-496.79 198.38,-502.79 194.38,-508.79"/>
</a>
</g>
<text text-anchor="middle" x="227.75" y="-516.5" font-family="Helvetica,sans-Serif" font-size="10.00" fill="grey"> +serialNumber</text>
</g>
</g>
</svg>
