<?xml version="1.0" encoding="UTF-8" standalone="no"?>
<!DOCTYPE svg PUBLIC "-//W3C//DTD SVG 1.1//EN"
 "http://www.w3.org/Graphics/SVG/1.1/DTD/svg11.dtd">
<!-- Generated by graphviz version 12.2.1 (20241206.2353)
 -->
<!-- Title: RemoteAtCommand.hpp Pages: 1 -->
<svg width="1437pt" height="220pt"
 viewBox="0.00 0.00 1437.12 220.00" xmlns="http://www.w3.org/2000/svg" xmlns:xlink="http://www.w3.org/1999/xlink">
<g id="graph0" class="graph" transform="scale(1 1) rotate(0) translate(4 216)">
<title>RemoteAtCommand.hpp</title>
<!-- Node1 -->
<g id="Node000001" class="node">
<title>Node1</title>
<g id="a_Node000001"><a xlink:title="This file contains the definition of the RemoteAtCommand class, which is used to send and receive rem...">
<polygon fill="#999999" stroke="#666666" points="1078,-212 954,-212 954,-192 1078,-192 1078,-212"/>
<text text-anchor="middle" x="1016" y="-198.5" font-family="Helvetica,sans-Serif" font-size="10.00">RemoteAtCommand.hpp</text>
</a>
</g>
</g>
<!-- Node2 -->
<g id="Node000002" class="node">
<title>Node2</title>
<g id="a_Node000002"><a xlink:href="../../d7/d06/a00131.html" target="_top" xlink:title="Defines the AtCommandString class used for handling AT command strings in the Xbee library.">
<polygon fill="white" stroke="#666666" points="238.5,-156 123.5,-156 123.5,-136 238.5,-136 238.5,-156"/>
<text text-anchor="middle" x="181" y="-142.5" font-family="Helvetica,sans-Serif" font-size="10.00">AtCommandString.hpp</text>
</a>
</g>
</g>
<!-- Node1&#45;&gt;Node2 -->
<g id="edge1_Node000001_Node000002" class="edge">
<title>Node1&#45;&gt;Node2</title>
<g id="a_edge1_Node000001_Node000002"><a xlink:title=" ">
<path fill="none" stroke="#63b8ff" d="M953.58,-196.96C800.88,-187.09 409.35,-161.77 250.01,-151.46"/>
<polygon fill="#63b8ff" stroke="#63b8ff" points="250.66,-148 240.46,-150.85 250.21,-154.98 250.66,-148"/>
</a>
</g>
</g>
<!-- Node4 -->
<g id="Node000004" class="node">
<title>Node4</title>
<g id="a_Node000004"><a xlink:href="../../d7/d3f/a00173.html" target="_top" xlink:title="This file contains the definition of the Module class, which is part of the Lib::Digi::Core namespace...">
<polygon fill="white" stroke="#666666" points="484.12,-156 417.88,-156 417.88,-136 484.12,-136 484.12,-156"/>
<text text-anchor="middle" x="451" y="-142.5" font-family="Helvetica,sans-Serif" font-size="10.00">Module.hpp</text>
</a>
</g>
</g>
<!-- Node1&#45;&gt;Node4 -->
<g id="edge3_Node000001_Node000004" class="edge">
<title>Node1&#45;&gt;Node4</title>
<g id="a_edge3_Node000001_Node000004"><a xlink:title=" ">
<path fill="none" stroke="#63b8ff" d="M953.65,-195.04C838.67,-184.05 595.86,-160.85 495.68,-151.27"/>
<polygon fill="#63b8ff" stroke="#63b8ff" points="496.26,-147.81 485.97,-150.34 495.59,-154.78 496.26,-147.81"/>
</a>
</g>
</g>
<!-- Node12 -->
<g id="Node000012" class="node">
<title>Node12</title>
<g id="a_Node000012"><a xlink:href="../../d9/dd0/a00191.html" target="_top" xlink:title="Defines the Frame0x17 class for handling Remote AT Command Request frames in the Xbee library.">
<polygon fill="white" stroke="#666666" points="794.12,-156 673.88,-156 673.88,-136 794.12,-136 794.12,-156"/>
<text text-anchor="middle" x="734" y="-142.5" font-family="Helvetica,sans-Serif" font-size="10.00">Queries/Frame0x17.hpp</text>
</a>
</g>
</g>
<!-- Node1&#45;&gt;Node12 -->
<g id="edge11_Node000001_Node000012" class="edge">
<title>Node1&#45;&gt;Node12</title>
<g id="a_edge11_Node000001_Node000012"><a xlink:title=" ">
<path fill="none" stroke="#63b8ff" d="M966.56,-191.53C918.68,-182.36 846,-168.45 794.65,-158.61"/>
<polygon fill="#63b8ff" stroke="#63b8ff" points="795.35,-155.18 784.87,-156.74 794.04,-162.06 795.35,-155.18"/>
</a>
</g>
</g>
<!-- Node14 -->
<g id="Node000014" class="node">
<title>Node14</title>
<g id="a_Node000014"><a xlink:href="../../de/db1/a00197.html" target="_top" xlink:title="Defines the QueueMessage class used in the Lib::Digi::Core namespace.">
<polygon fill="white" stroke="#666666" points="1107.5,-156 1004.5,-156 1004.5,-136 1107.5,-136 1107.5,-156"/>
<text text-anchor="middle" x="1056" y="-142.5" font-family="Helvetica,sans-Serif" font-size="10.00">QueueMessage.hpp</text>
</a>
</g>
</g>
<!-- Node1&#45;&gt;Node14 -->
<g id="edge14_Node000001_Node000014" class="edge">
<title>Node1&#45;&gt;Node14</title>
<g id="a_edge14_Node000001_Node000014"><a xlink:title=" ">
<path fill="none" stroke="#63b8ff" d="M1022.97,-191.59C1028.3,-184.39 1035.83,-174.23 1042.35,-165.43"/>
<polygon fill="#63b8ff" stroke="#63b8ff" points="1045.07,-167.63 1048.21,-157.51 1039.45,-163.47 1045.07,-167.63"/>
</a>
</g>
</g>
<!-- Node15 -->
<g id="Node000015" class="node">
<title>Node15</title>
<g id="a_Node000015"><a xlink:title=" ">
<polygon fill="#e0e0e0" stroke="#999999" points="997.5,-94 954.5,-94 954.5,-74 997.5,-74 997.5,-94"/>
<text text-anchor="middle" x="976" y="-80.5" font-family="Helvetica,sans-Serif" font-size="10.00">vector</text>
</a>
</g>
</g>
<!-- Node1&#45;&gt;Node15 -->
<g id="edge24_Node000001_Node000015" class="edge">
<title>Node1&#45;&gt;Node15</title>
<g id="a_edge24_Node000001_Node000015"><a xlink:title=" ">
<path fill="none" stroke="#63b8ff" d="M1011.3,-191.51C1006.96,-182.51 1000.53,-168.54 996,-156 989.95,-139.23 984.56,-119.7 980.91,-105.38"/>
<polygon fill="#63b8ff" stroke="#63b8ff" points="984.34,-104.66 978.54,-95.79 977.54,-106.34 984.34,-104.66"/>
</a>
</g>
</g>
<!-- Node16 -->
<g id="Node000016" class="node">
<title>Node16</title>
<g id="a_Node000016"><a xlink:href="../../d9/d01/a00227.html" target="_top" xlink:title="Defines the Frame0x97 class for handling XBee response frames with ID 0x97.">
<polygon fill="white" stroke="#666666" points="948,-156 812,-156 812,-136 948,-136 948,-156"/>
<text text-anchor="middle" x="880" y="-142.5" font-family="Helvetica,sans-Serif" font-size="10.00">Responses/Frame0x97.hpp</text>
</a>
</g>
</g>
<!-- Node1&#45;&gt;Node16 -->
<g id="edge16_Node000001_Node000016" class="edge">
<title>Node1&#45;&gt;Node16</title>
<g id="a_edge16_Node000001_Node000016"><a xlink:title=" ">
<path fill="none" stroke="#63b8ff" d="M992.31,-191.59C970.8,-183.05 938.8,-170.35 914.46,-160.68"/>
<polygon fill="#63b8ff" stroke="#63b8ff" points="915.87,-157.48 905.28,-157.04 913.28,-163.98 915.87,-157.48"/>
</a>
</g>
</g>
<!-- Node17 -->
<g id="Node000017" class="node">
<title>Node17</title>
<g id="a_Node000017"><a xlink:title=" ">
<polygon fill="#e0e0e0" stroke="#999999" points="1162.88,-156 1125.12,-156 1125.12,-136 1162.88,-136 1162.88,-156"/>
<text text-anchor="middle" x="1144" y="-142.5" font-family="Helvetica,sans-Serif" font-size="10.00">array</text>
</a>
</g>
</g>
<!-- Node1&#45;&gt;Node17 -->
<g id="edge20_Node000001_Node000017" class="edge">
<title>Node1&#45;&gt;Node17</title>
<g id="a_edge20_Node000001_Node000017"><a xlink:title=" ">
<path fill="none" stroke="#63b8ff" d="M1038.3,-191.59C1059.44,-182.67 1091.35,-169.21 1114.58,-159.41"/>
<polygon fill="#63b8ff" stroke="#63b8ff" points="1115.63,-162.77 1123.49,-155.65 1112.91,-156.32 1115.63,-162.77"/>
</a>
</g>
</g>
<!-- Node18 -->
<g id="Node000018" class="node">
<title>Node18</title>
<g id="a_Node000018"><a xlink:title=" ">
<polygon fill="#e0e0e0" stroke="#999999" points="1262.62,-156 1181.38,-156 1181.38,-136 1262.62,-136 1262.62,-156"/>
<text text-anchor="middle" x="1222" y="-142.5" font-family="Helvetica,sans-Serif" font-size="10.00">FreeRTOS.hpp</text>
</a>
</g>
</g>
<!-- Node1&#45;&gt;Node18 -->
<g id="edge21_Node000001_Node000018" class="edge">
<title>Node1&#45;&gt;Node18</title>
<g id="a_edge21_Node000001_Node000018"><a xlink:title=" ">
<path fill="none" stroke="#63b8ff" d="M1051.88,-191.59C1085.94,-182.67 1137.33,-169.19 1174.72,-159.39"/>
<polygon fill="#63b8ff" stroke="#63b8ff" points="1175.59,-162.78 1184.37,-156.86 1173.81,-156.01 1175.59,-162.78"/>
</a>
</g>
</g>
<!-- Node19 -->
<g id="Node000019" class="node">
<title>Node19</title>
<g id="a_Node000019"><a xlink:title=" ">
<polygon fill="#e0e0e0" stroke="#999999" points="1339,-156 1281,-156 1281,-136 1339,-136 1339,-156"/>
<text text-anchor="middle" x="1310" y="-142.5" font-family="Helvetica,sans-Serif" font-size="10.00">functional</text>
</a>
</g>
</g>
<!-- Node1&#45;&gt;Node19 -->
<g id="edge22_Node000001_Node000019" class="edge">
<title>Node1&#45;&gt;Node19</title>
<g id="a_edge22_Node000001_Node000019"><a xlink:title=" ">
<path fill="none" stroke="#63b8ff" d="M1075.67,-191.53C1125.14,-183.44 1197.55,-171.08 1269.5,-156.42"/>
<polygon fill="#63b8ff" stroke="#63b8ff" points="1270.01,-159.89 1279.1,-154.45 1268.6,-153.04 1270.01,-159.89"/>
</a>
</g>
</g>
<!-- Node20 -->
<g id="Node000020" class="node">
<title>Node20</title>
<g id="a_Node000020"><a xlink:title=" ">
<polygon fill="#e0e0e0" stroke="#999999" points="1429.12,-156 1356.88,-156 1356.88,-136 1429.12,-136 1429.12,-156"/>
<text text-anchor="middle" x="1393" y="-142.5" font-family="Helvetica,sans-Serif" font-size="10.00">initializer_list</text>
</a>
</g>
</g>
<!-- Node1&#45;&gt;Node20 -->
<g id="edge23_Node000001_Node000020" class="edge">
<title>Node1&#45;&gt;Node20</title>
<g id="a_edge23_Node000001_Node000020"><a xlink:title=" ">
<path fill="none" stroke="#63b8ff" d="M1078.28,-193.74C1142.72,-185.96 1246.51,-172.7 1345.57,-156.32"/>
<polygon fill="#63b8ff" stroke="#63b8ff" points="1345.91,-159.81 1355.19,-154.71 1344.75,-152.91 1345.91,-159.81"/>
</a>
</g>
</g>
<!-- Node3 -->
<g id="Node000003" class="node">
<title>Node3</title>
<g id="a_Node000003"><a xlink:title=" ">
<polygon fill="#e0e0e0" stroke="#999999" points="40,-94 0,-94 0,-74 40,-74 40,-94"/>
<text text-anchor="middle" x="20" y="-80.5" font-family="Helvetica,sans-Serif" font-size="10.00">string</text>
</a>
</g>
</g>
<!-- Node2&#45;&gt;Node3 -->
<g id="edge2_Node000002_Node000003" class="edge">
<title>Node2&#45;&gt;Node3</title>
<g id="a_edge2_Node000002_Node000003"><a xlink:title=" ">
<path fill="none" stroke="#63b8ff" d="M149.03,-135.57C121.99,-127.24 82.41,-114.24 49,-100 48.52,-99.79 48.03,-99.58 47.54,-99.37"/>
<polygon fill="#63b8ff" stroke="#63b8ff" points="49.18,-96.27 38.65,-95.12 46.16,-102.59 49.18,-96.27"/>
</a>
</g>
</g>
<!-- Node5 -->
<g id="Node000005" class="node">
<title>Node5</title>
<g id="a_Node000005"><a xlink:title=" ">
<polygon fill="#e0e0e0" stroke="#999999" points="200,-94 58,-94 58,-74 200,-74 200,-94"/>
<text text-anchor="middle" x="129" y="-80.5" font-family="Helvetica,sans-Serif" font-size="10.00">Lib/Digi/Core/ComDriver.hpp</text>
</a>
</g>
</g>
<!-- Node4&#45;&gt;Node5 -->
<g id="edge4_Node000004_Node000005" class="edge">
<title>Node4&#45;&gt;Node5</title>
<g id="a_edge4_Node000004_Node000005"><a xlink:title=" ">
<path fill="none" stroke="#63b8ff" d="M417.72,-138.83C371.07,-130.17 283.56,-113.92 209,-100 203.01,-98.88 196.77,-97.71 190.53,-96.55"/>
<polygon fill="#63b8ff" stroke="#63b8ff" points="191.32,-93.13 180.84,-94.73 190.03,-100.01 191.32,-93.13"/>
</a>
</g>
</g>
<!-- Node6 -->
<g id="Node000006" class="node">
<title>Node6</title>
<g id="a_Node000006"><a xlink:title=" ">
<polygon fill="#e0e0e0" stroke="#999999" points="348.38,-94 217.62,-94 217.62,-74 348.38,-74 348.38,-94"/>
<text text-anchor="middle" x="283" y="-80.5" font-family="Helvetica,sans-Serif" font-size="10.00">Lib/Digi/Core/Protocol.hpp</text>
</a>
</g>
</g>
<!-- Node4&#45;&gt;Node6 -->
<g id="edge5_Node000004_Node000006" class="edge">
<title>Node4&#45;&gt;Node6</title>
<g id="a_edge5_Node000004_Node000006"><a xlink:title=" ">
<path fill="none" stroke="#63b8ff" d="M424.75,-135.62C396.6,-125.57 351.68,-109.53 319.96,-98.2"/>
<polygon fill="#63b8ff" stroke="#63b8ff" points="321.36,-94.98 310.77,-94.92 319.01,-101.58 321.36,-94.98"/>
</a>
</g>
</g>
<!-- Node7 -->
<g id="Node000007" class="node">
<title>Node7</title>
<g id="a_Node000007"><a xlink:title=" ">
<polygon fill="#e0e0e0" stroke="#999999" points="535.88,-94 366.12,-94 366.12,-74 535.88,-74 535.88,-94"/>
<text text-anchor="middle" x="451" y="-80.5" font-family="Helvetica,sans-Serif" font-size="10.00">Lib/Digi/Core/ResponseEvents.hpp</text>
</a>
</g>
</g>
<!-- Node4&#45;&gt;Node7 -->
<g id="edge6_Node000004_Node000007" class="edge">
<title>Node4&#45;&gt;Node7</title>
<g id="a_edge6_Node000004_Node000007"><a xlink:title=" ">
<path fill="none" stroke="#63b8ff" d="M451,-135.62C451,-127.56 451,-115.65 451,-105.41"/>
<polygon fill="#63b8ff" stroke="#63b8ff" points="454.5,-105.63 451,-95.63 447.5,-105.63 454.5,-105.63"/>
</a>
</g>
</g>
<!-- Node8 -->
<g id="Node000008" class="node">
<title>Node8</title>
<g id="a_Node000008"><a xlink:href="../../dc/d57/a00194.html" target="_top" xlink:title="Defines the base class for all query types in the Xbee library.">
<polygon fill="white" stroke="#666666" points="674.12,-94 553.88,-94 553.88,-74 674.12,-74 674.12,-94"/>
<text text-anchor="middle" x="614" y="-80.5" font-family="Helvetica,sans-Serif" font-size="10.00">Queries/QueryBase.hpp</text>
</a>
</g>
</g>
<!-- Node4&#45;&gt;Node8 -->
<g id="edge7_Node000004_Node000008" class="edge">
<title>Node4&#45;&gt;Node8</title>
<g id="a_edge7_Node000004_Node000008"><a xlink:title=" ">
<path fill="none" stroke="#63b8ff" d="M476.47,-135.62C503.66,-125.62 546.99,-109.67 577.73,-98.35"/>
<polygon fill="#63b8ff" stroke="#63b8ff" points="578.85,-101.67 587.02,-94.93 576.43,-95.1 578.85,-101.67"/>
</a>
</g>
</g>
<!-- Node9 -->
<g id="Node000009" class="node">
<title>Node9</title>
<g id="a_Node000009"><a xlink:title=" ">
<polygon fill="#e0e0e0" stroke="#999999" points="895.88,-32 792.12,-32 792.12,0 895.88,0 895.88,-32"/>
<text text-anchor="start" x="800.12" y="-18.5" font-family="Helvetica,sans-Serif" font-size="10.00">Lib/Digi/Core/Frame</text>
<text text-anchor="middle" x="844" y="-6.5" font-family="Helvetica,sans-Serif" font-size="10.00">/Data.hpp</text>
</a>
</g>
</g>
<!-- Node8&#45;&gt;Node9 -->
<g id="edge8_Node000008_Node000009" class="edge">
<title>Node8&#45;&gt;Node9</title>
<g id="a_edge8_Node000008_Node000009"><a xlink:title=" ">
<path fill="none" stroke="#63b8ff" d="M646.95,-73.54C681.8,-63.54 737.63,-47.52 780.98,-35.08"/>
<polygon fill="#63b8ff" stroke="#63b8ff" points="781.89,-38.46 790.54,-32.34 779.96,-31.73 781.89,-38.46"/>
</a>
</g>
</g>
<!-- Node10 -->
<g id="Node000010" class="node">
<title>Node10</title>
<g id="a_Node000010"><a xlink:title=" ">
<polygon fill="#e0e0e0" stroke="#999999" points="773.88,-32 670.12,-32 670.12,0 773.88,0 773.88,-32"/>
<text text-anchor="start" x="678.12" y="-18.5" font-family="Helvetica,sans-Serif" font-size="10.00">Lib/Digi/Core/Frame</text>
<text text-anchor="middle" x="722" y="-6.5" font-family="Helvetica,sans-Serif" font-size="10.00">/Helper.hpp</text>
</a>
</g>
</g>
<!-- Node8&#45;&gt;Node10 -->
<g id="edge9_Node000008_Node000010" class="edge">
<title>Node8&#45;&gt;Node10</title>
<g id="a_edge9_Node000008_Node000010"><a xlink:title=" ">
<path fill="none" stroke="#63b8ff" d="M629.47,-73.54C644.47,-64.38 667.75,-50.15 687.2,-38.27"/>
<polygon fill="#63b8ff" stroke="#63b8ff" points="688.96,-41.29 695.67,-33.09 685.31,-35.32 688.96,-41.29"/>
</a>
</g>
</g>
<!-- Node11 -->
<g id="Node000011" class="node">
<title>Node11</title>
<g id="a_Node000011"><a xlink:title=" ">
<polygon fill="#e0e0e0" stroke="#999999" points="651.88,-32 548.12,-32 548.12,0 651.88,0 651.88,-32"/>
<text text-anchor="start" x="556.12" y="-18.5" font-family="Helvetica,sans-Serif" font-size="10.00">Lib/Digi/Core/Frame</text>
<text text-anchor="middle" x="600" y="-6.5" font-family="Helvetica,sans-Serif" font-size="10.00">/Type.hpp</text>
</a>
</g>
</g>
<!-- Node8&#45;&gt;Node11 -->
<g id="edge10_Node000008_Node000011" class="edge">
<title>Node8&#45;&gt;Node11</title>
<g id="a_edge10_Node000008_Node000011"><a xlink:title=" ">
<path fill="none" stroke="#63b8ff" d="M611.99,-73.54C610.32,-65.64 607.84,-53.97 605.58,-43.29"/>
<polygon fill="#63b8ff" stroke="#63b8ff" points="609.06,-42.84 603.56,-33.78 602.21,-44.29 609.06,-42.84"/>
</a>
</g>
</g>
<!-- Node12&#45;&gt;Node9 -->
<g id="edge12_Node000012_Node000009" class="edge">
<title>Node12&#45;&gt;Node9</title>
<g id="a_edge12_Node000012_Node000009"><a xlink:title=" ">
<path fill="none" stroke="#63b8ff" d="M758.76,-135.62C775.47,-128.18 796.97,-116.32 811,-100 824.95,-83.78 833.45,-60.93 838.32,-43.31"/>
<polygon fill="#63b8ff" stroke="#63b8ff" points="841.66,-44.38 840.71,-33.83 834.87,-42.67 841.66,-44.38"/>
</a>
</g>
</g>
<!-- Node13 -->
<g id="Node000013" class="node">
<title>Node13</title>
<g id="a_Node000013"><a xlink:title=" ">
<polygon fill="#e0e0e0" stroke="#999999" points="801.88,-100 692.12,-100 692.12,-68 801.88,-68 801.88,-100"/>
<text text-anchor="start" x="700.12" y="-86.5" font-family="Helvetica,sans-Serif" font-size="10.00">Lib/Digi/Core/Queries</text>
<text text-anchor="middle" x="747" y="-74.5" font-family="Helvetica,sans-Serif" font-size="10.00">/QueryBase.hpp</text>
</a>
</g>
</g>
<!-- Node12&#45;&gt;Node13 -->
<g id="edge13_Node000012_Node000013" class="edge">
<title>Node12&#45;&gt;Node13</title>
<g id="a_edge13_Node000012_Node000013"><a xlink:title=" ">
<path fill="none" stroke="#63b8ff" d="M736.03,-135.62C737.46,-129.02 739.45,-119.84 741.34,-111.11"/>
<polygon fill="#63b8ff" stroke="#63b8ff" points="744.7,-112.13 743.4,-101.62 737.86,-110.65 744.7,-112.13"/>
</a>
</g>
</g>
<!-- Node14&#45;&gt;Node15 -->
<g id="edge15_Node000014_Node000015" class="edge">
<title>Node14&#45;&gt;Node15</title>
<g id="a_edge15_Node000014_Node000015"><a xlink:title=" ">
<path fill="none" stroke="#63b8ff" d="M1043.5,-135.62C1031.17,-126.38 1012.09,-112.07 997.35,-101.01"/>
<polygon fill="#63b8ff" stroke="#63b8ff" points="999.72,-98.42 989.62,-95.22 995.52,-104.02 999.72,-98.42"/>
</a>
</g>
</g>
<!-- Node16&#45;&gt;Node9 -->
<g id="edge17_Node000016_Node000009" class="edge">
<title>Node16&#45;&gt;Node9</title>
<g id="a_edge17_Node000016_Node000009"><a xlink:title=" ">
<path fill="none" stroke="#63b8ff" d="M882.22,-135.7C885.32,-120.92 889.74,-91.36 882,-68 878.8,-58.36 873,-49.06 866.87,-41.1"/>
<polygon fill="#63b8ff" stroke="#63b8ff" points="869.72,-39.05 860.63,-33.6 864.33,-43.53 869.72,-39.05"/>
</a>
</g>
</g>
<!-- Node16&#45;&gt;Node10 -->
<g id="edge18_Node000016_Node000010" class="edge">
<title>Node16&#45;&gt;Node10</title>
<g id="a_edge18_Node000016_Node000010"><a xlink:title=" ">
<path fill="none" stroke="#63b8ff" d="M873.17,-135.59C861.62,-120.13 836.96,-89 811,-68 796.8,-56.51 779.7,-46.05 764.3,-37.63"/>
<polygon fill="#63b8ff" stroke="#63b8ff" points="766.28,-34.71 755.81,-33.11 762.99,-40.89 766.28,-34.71"/>
</a>
</g>
</g>
<!-- Node16&#45;&gt;Node15 -->
<g id="edge19_Node000016_Node000015" class="edge">
<title>Node16&#45;&gt;Node15</title>
<g id="a_edge19_Node000016_Node000015"><a xlink:title=" ">
<path fill="none" stroke="#63b8ff" d="M895,-135.62C910.08,-126.2 933.57,-111.52 951.38,-100.39"/>
<polygon fill="#63b8ff" stroke="#63b8ff" points="953.2,-103.38 959.82,-95.11 949.49,-97.44 953.2,-103.38"/>
</a>
</g>
</g>
</g>
</svg>
