<?xml version="1.0" encoding="UTF-8" standalone="no"?>
<!DOCTYPE svg PUBLIC "-//W3C//DTD SVG 1.1//EN"
 "http://www.w3.org/Graphics/SVG/1.1/DTD/svg11.dtd">
<!-- Generated by graphviz version 13.1.0 (20250701.0955)
 -->
<!-- Title: BSP::M24C64W Pages: 1 -->
<svg width="274pt" height="257pt"
 viewBox="0.00 0.00 274.00 257.00" xmlns="http://www.w3.org/2000/svg" xmlns:xlink="http://www.w3.org/1999/xlink">
<g id="graph0" class="graph" transform="scale(1 1) rotate(0) translate(4 253)">
<title>BSP::M24C64W</title>
<!-- Node1 -->
<g id="Node000001" class="node">
<title>Node1</title>
<g id="a_Node000001"><a xlink:title="EEPROM driver for M24C64W device.">
<polygon fill="#999999" stroke="none" points="148.62,-149 74.62,-149 74.62,0 148.62,0 148.62,-149"/>
<text xml:space="preserve" text-anchor="start" x="78.62" y="-136.45" font-family="Arial" font-size="9.00">BSP::M24C64W</text>
<text xml:space="preserve" text-anchor="start" x="110.5" y="-121.95" font-family="Arial" font-size="9.00"> </text>
<text xml:space="preserve" text-anchor="start" x="78.75" y="-107.45" font-family="Arial" font-size="9.00">+</text>
<text xml:space="preserve" text-anchor="start" x="88.12" y="-107.45" font-family="Arial" font-size="9.00">M24C64W()</text>
<text xml:space="preserve" text-anchor="start" x="78.75" y="-92.95" font-family="Arial" font-size="9.00">+</text>
<text xml:space="preserve" text-anchor="start" x="88.12" y="-92.95" font-family="Arial" font-size="9.00">~M24C64W()</text>
<text xml:space="preserve" text-anchor="start" x="78.75" y="-78.45" font-family="Arial" font-size="9.00">+</text>
<text xml:space="preserve" text-anchor="start" x="88.12" y="-78.45" font-family="Arial" font-size="9.00">open()</text>
<text xml:space="preserve" text-anchor="start" x="78.75" y="-63.95" font-family="Arial" font-size="9.00">+</text>
<text xml:space="preserve" text-anchor="start" x="88.12" y="-63.95" font-family="Arial" font-size="9.00">close()</text>
<text xml:space="preserve" text-anchor="start" x="78.75" y="-49.45" font-family="Arial" font-size="9.00">+</text>
<text xml:space="preserve" text-anchor="start" x="88.12" y="-49.45" font-family="Arial" font-size="9.00">read()</text>
<text xml:space="preserve" text-anchor="start" x="78.75" y="-34.95" font-family="Arial" font-size="9.00">+</text>
<text xml:space="preserve" text-anchor="start" x="88.12" y="-34.95" font-family="Arial" font-size="9.00">write()</text>
<text xml:space="preserve" text-anchor="start" x="78.75" y="-20.45" font-family="Arial" font-size="9.00">+</text>
<text xml:space="preserve" text-anchor="start" x="88.12" y="-20.45" font-family="Arial" font-size="9.00">getChipSize()</text>
<text xml:space="preserve" text-anchor="start" x="78.75" y="-5.95" font-family="Arial" font-size="9.00">+</text>
<text xml:space="preserve" text-anchor="start" x="88.12" y="-5.95" font-family="Arial" font-size="9.00">isPresent()</text>
<polygon fill="#666666" stroke="#666666" points="74.62,-132.5 74.62,-132.5 148.62,-132.5 148.62,-132.5 74.62,-132.5"/>
<polygon fill="#666666" stroke="#666666" points="74.62,-118 74.62,-118 148.62,-118 148.62,-118 74.62,-118"/>
<polygon fill="none" stroke="#666666" points="74.62,0 74.62,-149 148.62,-149 148.62,0 74.62,0"/>
</a>
</g>
</g>
<!-- Node2 -->
<g id="Node000002" class="node">
<title>Node2</title>
<g id="a_Node000002"><a xlink:title=" ">
<polygon fill="white" stroke="none" points="97.25,-249 0,-249 0,-201.5 97.25,-201.5 97.25,-249"/>
<text xml:space="preserve" text-anchor="start" x="4" y="-236.45" font-family="Arial" font-size="9.00">static constexpr size_t</text>
<text xml:space="preserve" text-anchor="start" x="47.5" y="-221.95" font-family="Arial" font-size="9.00"> </text>
<text xml:space="preserve" text-anchor="start" x="47.5" y="-207.45" font-family="Arial" font-size="9.00"> </text>
<polygon fill="#bfbfbf" stroke="#bfbfbf" points="0,-232.5 0,-232.5 97.25,-232.5 97.25,-232.5 0,-232.5"/>
<polygon fill="#bfbfbf" stroke="#bfbfbf" points="0,-218 0,-218 97.25,-218 97.25,-218 0,-218"/>
<polygon fill="none" stroke="#bfbfbf" points="0,-201.5 0,-249 97.25,-249 97.25,-201.5 0,-201.5"/>
</a>
</g>
</g>
<!-- Node2&#45;&gt;Node1 -->
<g id="edge1_Node000001_Node000002" class="edge">
<title>Node2&#45;&gt;Node1</title>
<g id="a_edge1_Node000001_Node000002"><a xlink:title=" ">
<path fill="none" stroke="#63b8ff" d="M46.34,-201.75C45.97,-190.99 46.59,-178.08 50.12,-167 54.18,-154.29 60.59,-141.71 67.77,-130.14"/>
<polygon fill="none" stroke="#63b8ff" points="67.75,-130.17 67.7,-122.96 74.34,-120.14 74.39,-127.35 67.75,-130.17"/>
</a>
</g>
<text xml:space="preserve" text-anchor="start" x="53.12" y="-171.95" font-family="Arial" font-size="9.00" fill="grey">+DEFAULT_CHIP_SIZE</text>
</g>
<!-- Node3 -->
<g id="Node000003" class="node">
<title>Node3</title>
<g id="a_Node000003"><a xlink:title=" ">
<polygon fill="white" stroke="none" points="193.5,-249 157.75,-249 157.75,-201.5 193.5,-201.5 193.5,-249"/>
<text xml:space="preserve" text-anchor="start" x="161.75" y="-236.45" font-family="Arial" font-size="9.00">uint8_t</text>
<text xml:space="preserve" text-anchor="start" x="174.5" y="-221.95" font-family="Arial" font-size="9.00"> </text>
<text xml:space="preserve" text-anchor="start" x="174.5" y="-207.45" font-family="Arial" font-size="9.00"> </text>
<polygon fill="#bfbfbf" stroke="#bfbfbf" points="157.75,-232.5 157.75,-232.5 193.5,-232.5 193.5,-232.5 157.75,-232.5"/>
<polygon fill="#bfbfbf" stroke="#bfbfbf" points="157.75,-218 157.75,-218 193.5,-218 193.5,-218 157.75,-218"/>
<polygon fill="none" stroke="#bfbfbf" points="157.75,-201.5 157.75,-249 193.5,-249 193.5,-201.5 157.75,-201.5"/>
</a>
</g>
</g>
<!-- Node3&#45;&gt;Node1 -->
<g id="edge2_Node000001_Node000003" class="edge">
<title>Node3&#45;&gt;Node1</title>
<g id="a_edge2_Node000001_Node000003"><a xlink:title=" ">
<path fill="none" stroke="#63b8ff" d="M167.28,-201.55C163.3,-190.98 158.38,-178.29 153.62,-167 152.72,-164.86 151.8,-162.69 150.86,-160.51"/>
<polygon fill="none" stroke="#63b8ff" points="150.89,-160.56 144.82,-156.66 146.1,-149.56 152.16,-153.46 150.89,-160.56"/>
</a>
</g>
<text xml:space="preserve" text-anchor="start" x="162.98" y="-171.95" font-family="Arial" font-size="9.00" fill="grey">+DEFAULT_PAGE_SIZE</text>
</g>
</g>
</svg>
