<?xml version="1.0" encoding="UTF-8" standalone="no"?>
<!DOCTYPE svg PUBLIC "-//W3C//DTD SVG 1.1//EN"
 "http://www.w3.org/Graphics/SVG/1.1/DTD/svg11.dtd">
<!-- Generated by graphviz version 13.1.0 (20250701.0955)
 -->
<!-- Title: Lib::Digi::API::Service::ChannelScanner Pages: 1 -->
<svg width="192pt" height="356pt"
 viewBox="0.00 0.00 192.00 356.00" xmlns="http://www.w3.org/2000/svg" xmlns:xlink="http://www.w3.org/1999/xlink">
<g id="graph0" class="graph" transform="scale(1 1) rotate(0) translate(4 352)">
<title>Lib::Digi::API::Service::ChannelScanner</title>
<!-- Node1 -->
<g id="Node000001" class="node">
<title>Node1</title>
<g id="a_Node000001"><a xlink:title="ChannelScanner service class.">
<polygon fill="#999999" stroke="none" points="183.5,-116 0,-116 0,0 183.5,0 183.5,-116"/>
<text xml:space="preserve" text-anchor="start" x="4" y="-102.5" font-family="Helvetica,sans-Serif" font-size="10.00">Lib::Digi::API::Service::ChannelScanner</text>
<text xml:space="preserve" text-anchor="start" x="24.38" y="-86.5" font-family="Helvetica,sans-Serif" font-size="10.00">+</text>
<text xml:space="preserve" text-anchor="start" x="54.75" y="-86.5" font-family="Helvetica,sans-Serif" font-size="10.00">onError</text>
<text xml:space="preserve" text-anchor="start" x="24.38" y="-70.5" font-family="Helvetica,sans-Serif" font-size="10.00">+</text>
<text xml:space="preserve" text-anchor="start" x="54.75" y="-70.5" font-family="Helvetica,sans-Serif" font-size="10.00">ChannelScanner()</text>
<text xml:space="preserve" text-anchor="start" x="24.38" y="-54.5" font-family="Helvetica,sans-Serif" font-size="10.00">+</text>
<text xml:space="preserve" text-anchor="start" x="54.75" y="-54.5" font-family="Helvetica,sans-Serif" font-size="10.00">~ChannelScanner()</text>
<text xml:space="preserve" text-anchor="start" x="24.38" y="-38.5" font-family="Helvetica,sans-Serif" font-size="10.00">+</text>
<text xml:space="preserve" text-anchor="start" x="54.75" y="-38.5" font-family="Helvetica,sans-Serif" font-size="10.00">open()</text>
<text xml:space="preserve" text-anchor="start" x="24.38" y="-22.5" font-family="Helvetica,sans-Serif" font-size="10.00">+</text>
<text xml:space="preserve" text-anchor="start" x="54.75" y="-22.5" font-family="Helvetica,sans-Serif" font-size="10.00">close()</text>
<text xml:space="preserve" text-anchor="start" x="24.38" y="-6.5" font-family="Helvetica,sans-Serif" font-size="10.00">+</text>
<text xml:space="preserve" text-anchor="start" x="54.75" y="-6.5" font-family="Helvetica,sans-Serif" font-size="10.00">update()</text>
<polygon fill="#666666" stroke="#666666" points="0,-98 0,-98 183.5,-98 183.5,-98 0,-98"/>
<polygon fill="#666666" stroke="#666666" points="0,-82 0,-82 52.75,-82 52.75,-82 0,-82"/>
<polygon fill="#666666" stroke="#666666" points="52.75,-82 52.75,-82 183.5,-82 183.5,-82 52.75,-82"/>
<polygon fill="none" stroke="#666666" points="0,0 0,-116 183.5,-116 183.5,0 0,0"/>
</a>
</g>
</g>
<!-- Node2 -->
<g id="Node000002" class="node">
<title>Node2</title>
<g id="a_Node000002"><a xlink:href="../../d7/d85/class_lib_1_1_digi_1_1_a_p_i_1_1_service_1_1_service_base.html" target="_top" xlink:title="Base class for Digi API services.">
<polygon fill="white" stroke="none" points="175.25,-348 8.25,-348 8.25,-152 175.25,-152 175.25,-348"/>
<text xml:space="preserve" text-anchor="start" x="12.25" y="-334.5" font-family="Helvetica,sans-Serif" font-size="10.00">Lib::Digi::API::Service::ServiceBase</text>
<text xml:space="preserve" text-anchor="start" x="32.25" y="-318.5" font-family="Helvetica,sans-Serif" font-size="10.00">#</text>
<text xml:space="preserve" text-anchor="start" x="61.5" y="-318.5" font-family="Helvetica,sans-Serif" font-size="10.00">isOpen</text>
<text xml:space="preserve" text-anchor="start" x="32.25" y="-302.5" font-family="Helvetica,sans-Serif" font-size="10.00">#</text>
<text xml:space="preserve" text-anchor="start" x="61.5" y="-302.5" font-family="Helvetica,sans-Serif" font-size="10.00">hasClosed</text>
<text xml:space="preserve" text-anchor="start" x="32.25" y="-286.5" font-family="Helvetica,sans-Serif" font-size="10.00">#</text>
<text xml:space="preserve" text-anchor="start" x="61.5" y="-286.5" font-family="Helvetica,sans-Serif" font-size="10.00">isFirstUpdate</text>
<text xml:space="preserve" text-anchor="start" x="32.25" y="-270.5" font-family="Helvetica,sans-Serif" font-size="10.00">#</text>
<text xml:space="preserve" text-anchor="start" x="61.5" y="-270.5" font-family="Helvetica,sans-Serif" font-size="10.00">ServiceBase()</text>
<text xml:space="preserve" text-anchor="start" x="32.25" y="-254.5" font-family="Helvetica,sans-Serif" font-size="10.00">#</text>
<text xml:space="preserve" text-anchor="start" x="61.5" y="-254.5" font-family="Helvetica,sans-Serif" font-size="10.00">~ServiceBase()</text>
<text xml:space="preserve" text-anchor="start" x="32.25" y="-238.5" font-family="Helvetica,sans-Serif" font-size="10.00">#</text>
<text xml:space="preserve" text-anchor="start" x="61.5" y="-238.5" font-family="Helvetica,sans-Serif" font-size="10.00">open()</text>
<text xml:space="preserve" text-anchor="start" x="32.25" y="-222.5" font-family="Helvetica,sans-Serif" font-size="10.00">#</text>
<text xml:space="preserve" text-anchor="start" x="61.5" y="-222.5" font-family="Helvetica,sans-Serif" font-size="10.00">close()</text>
<text xml:space="preserve" text-anchor="start" x="32.25" y="-206.5" font-family="Helvetica,sans-Serif" font-size="10.00">#</text>
<text xml:space="preserve" text-anchor="start" x="61.5" y="-206.5" font-family="Helvetica,sans-Serif" font-size="10.00">isServiceOpen()</text>
<text xml:space="preserve" text-anchor="start" x="32.25" y="-190.5" font-family="Helvetica,sans-Serif" font-size="10.00">#</text>
<text xml:space="preserve" text-anchor="start" x="61.5" y="-190.5" font-family="Helvetica,sans-Serif" font-size="10.00">beginUpdate()</text>
<text xml:space="preserve" text-anchor="start" x="32.25" y="-174.5" font-family="Helvetica,sans-Serif" font-size="10.00">#</text>
<text xml:space="preserve" text-anchor="start" x="61.5" y="-174.5" font-family="Helvetica,sans-Serif" font-size="10.00">update()</text>
<text xml:space="preserve" text-anchor="start" x="32.25" y="-158.5" font-family="Helvetica,sans-Serif" font-size="10.00">#</text>
<text xml:space="preserve" text-anchor="start" x="61.5" y="-158.5" font-family="Helvetica,sans-Serif" font-size="10.00">endUpdate()</text>
<polygon fill="#666666" stroke="#666666" points="8.25,-330 8.25,-330 175.25,-330 175.25,-330 8.25,-330"/>
<polygon fill="#666666" stroke="#666666" points="8.25,-282 8.25,-282 59.5,-282 59.5,-282 8.25,-282"/>
<polygon fill="#666666" stroke="#666666" points="59.5,-282 59.5,-282 175.25,-282 175.25,-282 59.5,-282"/>
<polygon fill="none" stroke="#666666" points="8.25,-152 8.25,-348 175.25,-348 175.25,-152 8.25,-152"/>
</a>
</g>
</g>
<!-- Node2&#45;&gt;Node1 -->
<g id="edge1_Node000001_Node000002" class="edge">
<title>Node2&#45;&gt;Node1</title>
<g id="a_edge1_Node000001_Node000002"><a xlink:title=" ">
<path fill="none" stroke="#63b8ff" d="M91.75,-140.8C91.75,-132.28 91.75,-123.91 91.75,-115.97"/>
<polygon fill="none" stroke="#63b8ff" points="88.25,-140.54 91.75,-150.54 95.25,-140.54 88.25,-140.54"/>
</a>
</g>
</g>
</g>
</svg>
