<?xml version="1.0" encoding="UTF-8" standalone="no"?>
<!DOCTYPE svg PUBLIC "-//W3C//DTD SVG 1.1//EN"
 "http://www.w3.org/Graphics/SVG/1.1/DTD/svg11.dtd">
<!-- Generated by graphviz version 14.0.5 (20251129.0259)
 -->
<!-- Title: AdcPortBase.hpp Pages: 1 -->
<svg width="323pt" height="196pt"
 viewBox="0.00 0.00 323.00 196.00" xmlns="http://www.w3.org/2000/svg" xmlns:xlink="http://www.w3.org/1999/xlink">
<g id="graph0" class="graph" transform="scale(1 1) rotate(0) translate(4 192)">
<title>AdcPortBase.hpp</title>
<!-- Node1 -->
<g id="Node000001" class="node">
<title>Node1</title>
<g id="a_Node000001"><a xlink:title="This file defines the base class for ADC port implementations in the HAL layer.">
<polygon fill="#999999" stroke="#666666" points="157.88,-188 65.38,-188 65.38,-168 157.88,-168 157.88,-188"/>
<text xml:space="preserve" text-anchor="middle" x="111.62" y="-174.5" font-family="Helvetica,sans-Serif" font-size="10.00">AdcPortBase.hpp</text>
</a>
</g>
</g>
<!-- Node2 -->
<g id="Node000002" class="node">
<title>Node2</title>
<g id="a_Node000002"><a xlink:href="../../df/d95/a00299.html" target="_top" xlink:title="ADC channel configuration and management class.">
<polygon fill="white" stroke="#666666" points="155.62,-132 67.62,-132 67.62,-112 155.62,-112 155.62,-132"/>
<text xml:space="preserve" text-anchor="middle" x="111.62" y="-118.5" font-family="Helvetica,sans-Serif" font-size="10.00">AdcChannel.hpp</text>
</a>
</g>
</g>
<!-- Node1&#45;&gt;Node2 -->
<g id="edge1_Node000001_Node000002" class="edge">
<title>Node1&#45;&gt;Node2</title>
<g id="a_edge1_Node000001_Node000002"><a xlink:title=" ">
<path fill="none" stroke="#63b8ff" d="M111.62,-167.59C111.62,-161.01 111.62,-151.96 111.62,-143.73"/>
<polygon fill="#63b8ff" stroke="#63b8ff" points="115.13,-143.81 111.63,-133.81 108.13,-143.81 115.13,-143.81"/>
</a>
</g>
</g>
<!-- Node3 -->
<g id="Node000003" class="node">
<title>Node3</title>
<g id="a_Node000003"><a xlink:title=" ">
<polygon fill="#e0e0e0" stroke="#999999" points="45.25,-76 0,-76 0,-56 45.25,-56 45.25,-76"/>
<text xml:space="preserve" text-anchor="middle" x="22.62" y="-62.5" font-family="Helvetica,sans-Serif" font-size="10.00">cstdint</text>
</a>
</g>
</g>
<!-- Node1&#45;&gt;Node3 -->
<g id="edge7_Node000001_Node000003" class="edge">
<title>Node1&#45;&gt;Node3</title>
<g id="a_edge7_Node000001_Node000003"><a xlink:title=" ">
<path fill="none" stroke="#63b8ff" d="M98.25,-167.78C86.76,-159.4 70.25,-146.19 58.62,-132 47.26,-118.12 37.62,-100.14 31.18,-86.61"/>
<polygon fill="#63b8ff" stroke="#63b8ff" points="34.52,-85.5 27.19,-77.86 28.15,-88.41 34.52,-85.5"/>
</a>
</g>
</g>
<!-- Node5 -->
<g id="Node000005" class="node">
<title>Node5</title>
<g id="a_Node000005"><a xlink:href="../../d0/d61/a00302.html" target="_top" xlink:title="This file defines the AdcHandle type alias for managing ADC peripheral handles in the HAL layer.">
<polygon fill="white" stroke="#666666" points="283,-132 200.25,-132 200.25,-112 283,-112 283,-132"/>
<text xml:space="preserve" text-anchor="middle" x="241.62" y="-118.5" font-family="Helvetica,sans-Serif" font-size="10.00">AdcHandle.hpp</text>
</a>
</g>
</g>
<!-- Node1&#45;&gt;Node5 -->
<g id="edge4_Node000001_Node000005" class="edge">
<title>Node1&#45;&gt;Node5</title>
<g id="a_edge4_Node000001_Node000005"><a xlink:title=" ">
<path fill="none" stroke="#63b8ff" d="M134.27,-167.59C154.74,-159.09 185.14,-146.46 208.37,-136.81"/>
<polygon fill="#63b8ff" stroke="#63b8ff" points="209.51,-140.13 217.41,-133.06 206.83,-133.66 209.51,-140.13"/>
</a>
</g>
</g>
<!-- Node2&#45;&gt;Node3 -->
<g id="edge2_Node000002_Node000003" class="edge">
<title>Node2&#45;&gt;Node3</title>
<g id="a_edge2_Node000002_Node000003"><a xlink:title=" ">
<path fill="none" stroke="#63b8ff" d="M96.12,-111.59C82.8,-103.51 63.35,-91.71 47.8,-82.27"/>
<polygon fill="#63b8ff" stroke="#63b8ff" points="49.91,-79.46 39.54,-77.26 46.28,-85.44 49.91,-79.46"/>
</a>
</g>
</g>
<!-- Node4 -->
<g id="Node000004" class="node">
<title>Node4</title>
<g id="a_Node000004"><a xlink:title=" ">
<polygon fill="#e0e0e0" stroke="#999999" points="172.12,-76 63.12,-76 63.12,-56 172.12,-56 172.12,-76"/>
<text xml:space="preserve" text-anchor="middle" x="117.62" y="-62.5" font-family="Helvetica,sans-Serif" font-size="10.00">stm32f4xx_hal_adc.h</text>
</a>
</g>
</g>
<!-- Node2&#45;&gt;Node4 -->
<g id="edge3_Node000002_Node000004" class="edge">
<title>Node2&#45;&gt;Node4</title>
<g id="a_edge3_Node000002_Node000004"><a xlink:title=" ">
<path fill="none" stroke="#63b8ff" d="M112.67,-111.59C113.4,-105.01 114.41,-95.96 115.32,-87.73"/>
<polygon fill="#63b8ff" stroke="#63b8ff" points="118.8,-88.13 116.42,-77.8 111.84,-87.35 118.8,-88.13"/>
</a>
</g>
</g>
<!-- Node6 -->
<g id="Node000006" class="node">
<title>Node6</title>
<g id="a_Node000006"><a xlink:href="../../d6/de1/a00356.html" target="_top" xlink:title="Handle header file.">
<polygon fill="white" stroke="#666666" points="315.38,-76 189.88,-76 189.88,-56 315.38,-56 315.38,-76"/>
<text xml:space="preserve" text-anchor="middle" x="252.62" y="-62.5" font-family="Helvetica,sans-Serif" font-size="10.00">Lib/HAL/core/Handle.hpp</text>
</a>
</g>
</g>
<!-- Node5&#45;&gt;Node6 -->
<g id="edge5_Node000005_Node000006" class="edge">
<title>Node5&#45;&gt;Node6</title>
<g id="a_edge5_Node000005_Node000006"><a xlink:title=" ">
<path fill="none" stroke="#63b8ff" d="M243.54,-111.59C244.9,-104.93 246.77,-95.75 248.46,-87.44"/>
<polygon fill="#63b8ff" stroke="#63b8ff" points="251.86,-88.28 250.43,-77.78 245,-86.88 251.86,-88.28"/>
</a>
</g>
</g>
<!-- Node7 -->
<g id="Node000007" class="node">
<title>Node7</title>
<g id="a_Node000007"><a xlink:title=" ">
<polygon fill="#e0e0e0" stroke="#999999" points="276.75,-20 228.5,-20 228.5,0 276.75,0 276.75,-20"/>
<text xml:space="preserve" text-anchor="middle" x="252.62" y="-6.5" font-family="Helvetica,sans-Serif" font-size="10.00">cassert</text>
</a>
</g>
</g>
<!-- Node6&#45;&gt;Node7 -->
<g id="edge6_Node000006_Node000007" class="edge">
<title>Node6&#45;&gt;Node7</title>
<g id="a_edge6_Node000006_Node000007"><a xlink:title=" ">
<path fill="none" stroke="#63b8ff" d="M252.62,-55.59C252.62,-49.01 252.62,-39.96 252.62,-31.73"/>
<polygon fill="#63b8ff" stroke="#63b8ff" points="256.13,-31.81 252.63,-21.81 249.13,-31.81 256.13,-31.81"/>
</a>
</g>
</g>
</g>
</svg>
