<?xml version="1.0" encoding="UTF-8" standalone="no"?>
<!DOCTYPE svg PUBLIC "-//W3C//DTD SVG 1.1//EN"
 "http://www.w3.org/Graphics/SVG/1.1/DTD/svg11.dtd">
<!-- Generated by graphviz version 13.1.0 (20250701.0955)
 -->
<!-- Title: Lib::System::Version::Base::stringToU32 Pages: 1 -->
<svg width="521pt" height="84pt"
 viewBox="0.00 0.00 521.00 84.00" xmlns="http://www.w3.org/2000/svg" xmlns:xlink="http://www.w3.org/1999/xlink">
<g id="graph0" class="graph" transform="scale(1 1) rotate(0) translate(4 80)">
<title>Lib::System::Version::Base::stringToU32</title>
<!-- Node1 -->
<g id="Node000001" class="node">
<title>Node1</title>
<g id="a_Node000001"><a xlink:title="Convert version string to uint32_t.">
<polygon fill="#999999" stroke="#666666" points="513.25,-52 414.75,-52 414.75,-23 513.25,-23 513.25,-52"/>
<text xml:space="preserve" text-anchor="start" x="422.75" y="-39.45" font-family="Arial" font-size="9.00">Lib::System::Version</text>
<text xml:space="preserve" text-anchor="middle" x="464" y="-28.95" font-family="Arial" font-size="9.00">::Base::stringToU32</text>
</a>
</g>
</g>
<!-- Node2 -->
<g id="Node000002" class="node">
<title>Node2</title>
<g id="a_Node000002"><a xlink:href="../../d3/dce/a01859.html#a34fbec607e22d4116682d3859e19da78" target="_top" xlink:title="Constructor of the Base class.">
<polygon fill="white" stroke="#666666" points="378.75,-52 280.25,-52 280.25,-23 378.75,-23 378.75,-52"/>
<text xml:space="preserve" text-anchor="start" x="288.25" y="-39.45" font-family="Arial" font-size="9.00">Lib::System::Version</text>
<text xml:space="preserve" text-anchor="middle" x="329.5" y="-28.95" font-family="Arial" font-size="9.00">::Base::Base</text>
</a>
</g>
</g>
<!-- Node1&#45;&gt;Node2 -->
<g id="edge1_Node000001_Node000002" class="edge">
<title>Node1&#45;&gt;Node2</title>
<g id="a_edge1_Node000001_Node000002"><a xlink:title=" ">
<path fill="none" stroke="#63b8ff" d="M403.16,-37.5C395.1,-37.5 386.91,-37.5 379.08,-37.5"/>
<polygon fill="#63b8ff" stroke="#63b8ff" points="402.9,-41 412.9,-37.5 402.9,-34 402.9,-41"/>
</a>
</g>
</g>
<!-- Node3 -->
<g id="Node000003" class="node">
<title>Node3</title>
<g id="a_Node000003"><a xlink:href="../../d1/de6/a01867.html#a7daf2f9531d02dc5f7adbf61c436d2cf" target="_top" xlink:title="Constructor of the Firmware class.">
<polygon fill="white" stroke="#666666" points="242,-76 140.5,-76 140.5,-47 242,-47 242,-76"/>
<text xml:space="preserve" text-anchor="start" x="148.5" y="-63.45" font-family="Arial" font-size="9.00">Lib::System::Version</text>
<text xml:space="preserve" text-anchor="middle" x="191.25" y="-52.95" font-family="Arial" font-size="9.00">::Firmware::Firmware</text>
</a>
</g>
</g>
<!-- Node2&#45;&gt;Node3 -->
<g id="edge2_Node000002_Node000003" class="edge">
<title>Node2&#45;&gt;Node3</title>
<g id="a_edge2_Node000002_Node000003"><a xlink:title=" ">
<path fill="none" stroke="#63b8ff" d="M268.98,-47.98C260.1,-49.55 251.02,-51.15 242.36,-52.67"/>
<polygon fill="#63b8ff" stroke="#63b8ff" points="269.35,-51.47 278.59,-46.29 268.13,-44.58 269.35,-51.47"/>
</a>
</g>
</g>
<!-- Node5 -->
<g id="Node000005" class="node">
<title>Node5</title>
<g id="a_Node000005"><a xlink:href="../../d4/d12/a01863.html#a6ab382a311ae2d71d9c392dffbf715eb" target="_top" xlink:title="Constructor of the Hardware class.">
<polygon fill="white" stroke="#666666" points="244.25,-29 138.25,-29 138.25,0 244.25,0 244.25,-29"/>
<text xml:space="preserve" text-anchor="start" x="146.25" y="-16.45" font-family="Arial" font-size="9.00">Lib::System::Version</text>
<text xml:space="preserve" text-anchor="middle" x="191.25" y="-5.95" font-family="Arial" font-size="9.00">::Hardware::Hardware</text>
</a>
</g>
</g>
<!-- Node2&#45;&gt;Node5 -->
<g id="edge4_Node000002_Node000005" class="edge">
<title>Node2&#45;&gt;Node5</title>
<g id="a_edge4_Node000002_Node000005"><a xlink:title=" ">
<path fill="none" stroke="#63b8ff" d="M268.85,-27.43C260.8,-26.07 252.59,-24.69 244.68,-23.35"/>
<polygon fill="#63b8ff" stroke="#63b8ff" points="268.14,-30.86 278.59,-29.07 269.31,-23.96 268.14,-30.86"/>
</a>
</g>
</g>
<!-- Node4 -->
<g id="Node000004" class="node">
<title>Node4</title>
<g id="a_Node000004"><a xlink:href="../../d5/d89/a00907.html#a8c0200b7ac31f4166f8ace12681f0e0b" target="_top" xlink:title="Constructor of the BuildVersion class.">
<polygon fill="white" stroke="#666666" points="102.25,-76 0,-76 0,-47 102.25,-47 102.25,-76"/>
<text xml:space="preserve" text-anchor="start" x="8" y="-63.45" font-family="Arial" font-size="9.00">System::BuildVersion</text>
<text xml:space="preserve" text-anchor="middle" x="51.12" y="-52.95" font-family="Arial" font-size="9.00">::BuildVersion</text>
</a>
</g>
</g>
<!-- Node3&#45;&gt;Node4 -->
<g id="edge3_Node000003_Node000004" class="edge">
<title>Node3&#45;&gt;Node4</title>
<g id="a_edge3_Node000003_Node000004"><a xlink:title=" ">
<path fill="none" stroke="#63b8ff" d="M128.88,-61.5C120.02,-61.5 110.99,-61.5 102.38,-61.5"/>
<polygon fill="#63b8ff" stroke="#63b8ff" points="128.87,-65 138.87,-61.5 128.87,-58 128.87,-65"/>
</a>
</g>
</g>
</g>
</svg>
