<?xml version="1.0" encoding="UTF-8" standalone="no"?>
<!DOCTYPE svg PUBLIC "-//W3C//DTD SVG 1.1//EN"
 "http://www.w3.org/Graphics/SVG/1.1/DTD/svg11.dtd">
<!-- Generated by graphviz version 12.2.1 (20241206.2353)
 -->
<!-- Title: handleTickEvent Pages: 1 -->
<svg width="419pt" height="66pt"
 viewBox="0.00 0.00 419.00 66.00" xmlns="http://www.w3.org/2000/svg" xmlns:xlink="http://www.w3.org/1999/xlink">
<g id="graph0" class="graph" transform="scale(1 1) rotate(0) translate(4 62)">
<title>handleTickEvent</title>
<!-- Node1 -->
<g id="Node000001" class="node">
<title>Node1</title>
<g id="a_Node000001"><a xlink:title="Handles periodic LED updates and watchdog refresh.">
<polygon fill="#999999" stroke="#666666" points="88.75,-39 0,-39 0,-19 88.75,-19 88.75,-39"/>
<text text-anchor="middle" x="44.38" y="-25.5" font-family="Helvetica,sans-Serif" font-size="10.00">handleTickEvent</text>
</a>
</g>
</g>
<!-- Node2 -->
<g id="Node000002" class="node">
<title>Node2</title>
<g id="a_Node000002"><a xlink:href="../../de/d36/a00123_a1d9d9fe5d46b652272731f8e3249b817.html#a1d9d9fe5d46b652272731f8e3249b817" target="_top" xlink:title="Retrieves the singleton instance of Watchdog.">
<polygon fill="white" stroke="#666666" points="266.75,-58 124.75,-58 124.75,-38 266.75,-38 266.75,-58"/>
<text text-anchor="middle" x="195.75" y="-44.5" font-family="Helvetica,sans-Serif" font-size="10.00">HAL::Watchdog::getInstance</text>
</a>
</g>
</g>
<!-- Node1&#45;&gt;Node2 -->
<g id="edge1_Node000001_Node000002" class="edge">
<title>Node1&#45;&gt;Node2</title>
<g id="a_edge1_Node000001_Node000002"><a xlink:title=" ">
<path fill="none" stroke="#63b8ff" d="M88.98,-34.55C96.62,-35.52 104.78,-36.56 113.06,-37.61"/>
<polygon fill="#63b8ff" stroke="#63b8ff" points="112.53,-41.07 122.89,-38.86 113.41,-34.13 112.53,-41.07"/>
</a>
</g>
</g>
<!-- Node3 -->
<g id="Node000003" class="node">
<title>Node3</title>
<g id="a_Node000003"><a xlink:href="../../de/d36/a00123_a5f2e190b8261a98c97c2ea4e86670d54.html#a5f2e190b8261a98c97c2ea4e86670d54" target="_top" xlink:title="Refreshes (kicks) the IWDG watchdog timer.">
<polygon fill="white" stroke="#666666" points="256.25,-20 135.25,-20 135.25,0 256.25,0 256.25,-20"/>
<text text-anchor="middle" x="195.75" y="-6.5" font-family="Helvetica,sans-Serif" font-size="10.00">HAL::Watchdog::refresh</text>
</a>
</g>
</g>
<!-- Node1&#45;&gt;Node3 -->
<g id="edge2_Node000001_Node000003" class="edge">
<title>Node1&#45;&gt;Node3</title>
<g id="a_edge2_Node000001_Node000003"><a xlink:title=" ">
<path fill="none" stroke="#63b8ff" d="M88.98,-23.45C99.88,-22.07 111.85,-20.54 123.7,-19.04"/>
<polygon fill="#63b8ff" stroke="#63b8ff" points="124.01,-22.53 133.49,-17.79 123.12,-15.58 124.01,-22.53"/>
</a>
</g>
</g>
<!-- Node4 -->
<g id="Node000004" class="node">
<title>Node4</title>
<g id="a_Node000004"><a xlink:href="../../d8/d41/a00038_a7e86236aea6d2f3638397fdf90333e4a.html#a7e86236aea6d2f3638397fdf90333e4a" target="_top" xlink:title=" ">
<polygon fill="white" stroke="#666666" points="411,-20 302.75,-20 302.75,0 411,0 411,-20"/>
<text text-anchor="middle" x="356.88" y="-6.5" font-family="Helvetica,sans-Serif" font-size="10.00">HAL_IWDG_Refresh</text>
</a>
</g>
</g>
<!-- Node3&#45;&gt;Node4 -->
<g id="edge3_Node000003_Node000004" class="edge">
<title>Node3&#45;&gt;Node4</title>
<g id="a_edge3_Node000003_Node000004"><a xlink:title=" ">
<path fill="none" stroke="#63b8ff" d="M256.46,-10C267.77,-10 279.65,-10 291.11,-10"/>
<polygon fill="#63b8ff" stroke="#63b8ff" points="290.87,-13.5 300.87,-10 290.87,-6.5 290.87,-13.5"/>
</a>
</g>
</g>
</g>
</svg>
