<?xml version="1.0" encoding="UTF-8" standalone="no"?>
<!DOCTYPE svg PUBLIC "-//W3C//DTD SVG 1.1//EN"
 "http://www.w3.org/Graphics/SVG/1.1/DTD/svg11.dtd">
<!-- Generated by graphviz version 12.2.1 (20241206.2353)
 -->
<!-- Title: App::ApplicationBase Pages: 1 -->
<svg width="558pt" height="332pt"
 viewBox="0.00 0.00 558.38 332.00" xmlns="http://www.w3.org/2000/svg" xmlns:xlink="http://www.w3.org/1999/xlink">
<g id="graph0" class="graph" transform="scale(1 1) rotate(0) translate(4 328)">
<title>App::ApplicationBase</title>
<!-- Node1 -->
<g id="Node000001" class="node">
<title>Node1</title>
<g id="a_Node000001"><a xlink:title="Base class for application components.">
<polygon fill="#999999" stroke="none" points="290.12,-324 188.38,-324 188.38,-224 290.12,-224 290.12,-324"/>
<text text-anchor="start" x="192.38" y="-310.5" font-family="Arial" font-size="10.00">App::ApplicationBase</text>
<text text-anchor="start" x="237.75" y="-294.5" font-family="Arial" font-size="10.00"> </text>
<text text-anchor="start" x="192.88" y="-278.5" font-family="Arial" font-size="10.00">#</text>
<text text-anchor="start" x="202.62" y="-278.5" font-family="Arial" font-size="10.00">ApplicationBase()</text>
<text text-anchor="start" x="192.88" y="-262.5" font-family="Arial" font-size="10.00">#</text>
<text text-anchor="start" x="202.62" y="-262.5" font-family="Arial" font-size="10.00">~ApplicationBase()</text>
<text text-anchor="start" x="192.88" y="-246.5" font-family="Arial" font-size="10.00">#</text>
<text text-anchor="start" x="202.62" y="-246.5" font-family="Arial" font-size="10.00">getName()</text>
<text text-anchor="start" x="192.88" y="-230.5" font-family="Arial" font-size="10.00">#</text>
<text text-anchor="start" x="202.62" y="-230.5" font-family="Arial" font-size="10.00">getWorkScreen()</text>
<polygon fill="#666666" stroke="#666666" points="188.38,-306 188.38,-306 290.12,-306 290.12,-306 188.38,-306"/>
<polygon fill="#666666" stroke="#666666" points="188.38,-290 188.38,-290 290.12,-290 290.12,-290 188.38,-290"/>
<polygon fill="none" stroke="#666666" points="188.38,-224 188.38,-324 290.12,-324 290.12,-224 188.38,-224"/>
</a>
</g>
</g>
<!-- Node2 -->
<g id="Node000002" class="node">
<title>Node2</title>
<g id="a_Node000002"><a xlink:href="../../d0/da7/a00250.html" target="_top" xlink:title="The ApplicationNone class represents an application that does not perform any specific functionality.">
<polygon fill="white" stroke="none" points="109.5,-180 7,-180 7,-96 109.5,-96 109.5,-180"/>
<text text-anchor="start" x="11" y="-166.5" font-family="Arial" font-size="10.00">App::ApplicationNone</text>
<text text-anchor="start" x="56.75" y="-150.5" font-family="Arial" font-size="10.00"> </text>
<text text-anchor="start" x="13.94" y="-134.5" font-family="Arial" font-size="10.00">+</text>
<text text-anchor="start" x="26.88" y="-134.5" font-family="Arial" font-size="10.00">getName()</text>
<text text-anchor="start" x="13.94" y="-118.5" font-family="Arial" font-size="10.00">+</text>
<text text-anchor="start" x="26.88" y="-118.5" font-family="Arial" font-size="10.00">getWorkScreen()</text>
<text text-anchor="start" x="13.94" y="-102.5" font-family="Arial" font-size="10.00">+</text>
<text text-anchor="start" x="26.88" y="-102.5" font-family="Arial" font-size="10.00">getInstance()</text>
<polygon fill="#666666" stroke="#666666" points="7,-162 7,-162 109.5,-162 109.5,-162 7,-162"/>
<polygon fill="#666666" stroke="#666666" points="7,-146 7,-146 109.5,-146 109.5,-146 7,-146"/>
<polygon fill="none" stroke="#666666" points="7,-96 7,-180 109.5,-180 109.5,-96 7,-96"/>
</a>
</g>
</g>
<!-- Node1&#45;&gt;Node2 -->
<g id="edge1_Node000001_Node000002" class="edge">
<title>Node1&#45;&gt;Node2</title>
<g id="a_edge1_Node000001_Node000002"><a xlink:title=" ">
<path fill="none" stroke="#63b8ff" d="M179.24,-231.56C159.91,-217.93 138.51,-202.54 119.25,-188 115.78,-185.38 112.23,-182.65 108.66,-179.88"/>
<polygon fill="none" stroke="#63b8ff" points="177.12,-234.35 187.31,-237.23 181.14,-228.62 177.12,-234.35"/>
</a>
</g>
</g>
<!-- Node3 -->
<g id="Node000003" class="node">
<title>Node3</title>
<g id="a_Node000003"><a xlink:href="../../d7/d03/a00254.html" target="_top" xlink:title="The RemoteIO class is responsible for managing remote I/O operations.">
<polygon fill="white" stroke="none" points="218.62,-188 127.88,-188 127.88,-88 218.62,-88 218.62,-188"/>
<text text-anchor="start" x="139.12" y="-174.5" font-family="Arial" font-size="10.00">App::RemoteIO</text>
<text text-anchor="start" x="171.75" y="-158.5" font-family="Arial" font-size="10.00"> </text>
<text text-anchor="start" x="131.88" y="-142.5" font-family="Arial" font-size="10.00">+</text>
<text text-anchor="start" x="141.88" y="-142.5" font-family="Arial" font-size="10.00">RemoteIO()</text>
<text text-anchor="start" x="131.88" y="-126.5" font-family="Arial" font-size="10.00">+</text>
<text text-anchor="start" x="141.88" y="-126.5" font-family="Arial" font-size="10.00">~RemoteIO()</text>
<text text-anchor="start" x="131.88" y="-110.5" font-family="Arial" font-size="10.00">+</text>
<text text-anchor="start" x="141.88" y="-110.5" font-family="Arial" font-size="10.00">getName()</text>
<text text-anchor="start" x="131.88" y="-94.5" font-family="Arial" font-size="10.00">+</text>
<text text-anchor="start" x="141.88" y="-94.5" font-family="Arial" font-size="10.00">getWorkScreen()</text>
<polygon fill="#666666" stroke="#666666" points="127.88,-170 127.88,-170 218.62,-170 218.62,-170 127.88,-170"/>
<polygon fill="#666666" stroke="#666666" points="127.88,-154 127.88,-154 218.62,-154 218.62,-154 127.88,-154"/>
<polygon fill="none" stroke="#666666" points="127.88,-88 127.88,-188 218.62,-188 218.62,-88 127.88,-88"/>
</a>
</g>
</g>
<!-- Node1&#45;&gt;Node3 -->
<g id="edge2_Node000001_Node000003" class="edge">
<title>Node1&#45;&gt;Node3</title>
<g id="a_edge2_Node000001_Node000003"><a xlink:title=" ">
<path fill="none" stroke="#63b8ff" d="M210.24,-214.11C205.94,-205.37 201.55,-196.45 197.36,-187.94"/>
<polygon fill="none" stroke="#63b8ff" points="207.01,-215.46 214.57,-222.89 213.29,-212.37 207.01,-215.46"/>
</a>
</g>
</g>
<!-- Node6 -->
<g id="Node000006" class="node">
<title>Node6</title>
<g id="a_Node000006"><a xlink:href="../../d5/d35/a00266.html" target="_top" xlink:title="The RotationTableParallel class is responsible for managing the rotation table in parallel configurat...">
<polygon fill="white" stroke="none" points="368,-188 244.5,-188 244.5,-88 368,-88 368,-188"/>
<text text-anchor="start" x="248.5" y="-174.5" font-family="Arial" font-size="10.00">App::RotationTableParallel</text>
<text text-anchor="start" x="304.75" y="-158.5" font-family="Arial" font-size="10.00"> </text>
<text text-anchor="start" x="248.81" y="-142.5" font-family="Arial" font-size="10.00">+</text>
<text text-anchor="start" x="259.12" y="-142.5" font-family="Arial" font-size="10.00">RotationTableParallel()</text>
<text text-anchor="start" x="248.81" y="-126.5" font-family="Arial" font-size="10.00">+</text>
<text text-anchor="start" x="259.12" y="-126.5" font-family="Arial" font-size="10.00">~RotationTableParallel()</text>
<text text-anchor="start" x="248.81" y="-110.5" font-family="Arial" font-size="10.00">+</text>
<text text-anchor="start" x="259.12" y="-110.5" font-family="Arial" font-size="10.00">getName()</text>
<text text-anchor="start" x="248.81" y="-94.5" font-family="Arial" font-size="10.00">+</text>
<text text-anchor="start" x="259.12" y="-94.5" font-family="Arial" font-size="10.00">getWorkScreen()</text>
<polygon fill="#666666" stroke="#666666" points="244.5,-170 244.5,-170 368,-170 368,-170 244.5,-170"/>
<polygon fill="#666666" stroke="#666666" points="244.5,-154 244.5,-154 368,-154 368,-154 244.5,-154"/>
<polygon fill="none" stroke="#666666" points="244.5,-88 244.5,-188 368,-188 368,-88 244.5,-88"/>
</a>
</g>
</g>
<!-- Node1&#45;&gt;Node6 -->
<g id="edge5_Node000001_Node000006" class="edge">
<title>Node1&#45;&gt;Node6</title>
<g id="a_edge5_Node000001_Node000006"><a xlink:title=" ">
<path fill="none" stroke="#63b8ff" d="M268.7,-214.11C273.06,-205.37 277.53,-196.45 281.78,-187.94"/>
<polygon fill="none" stroke="#63b8ff" points="265.65,-212.38 264.3,-222.89 271.91,-215.51 265.65,-212.38"/>
</a>
</g>
</g>
<!-- Node9 -->
<g id="Node000009" class="node">
<title>Node9</title>
<g id="a_Node000009"><a xlink:href="../../dc/d5d/a00278.html" target="_top" xlink:title="The RotationTableSerial class is responsible for managing the rotation table in serial mode.">
<polygon fill="white" stroke="none" points="502.25,-188 386.25,-188 386.25,-88 502.25,-88 502.25,-188"/>
<text text-anchor="start" x="390.25" y="-174.5" font-family="Arial" font-size="10.00">App::RotationTableSerial</text>
<text text-anchor="start" x="442.75" y="-158.5" font-family="Arial" font-size="10.00"> </text>
<text text-anchor="start" x="390.56" y="-142.5" font-family="Arial" font-size="10.00">+</text>
<text text-anchor="start" x="400.88" y="-142.5" font-family="Arial" font-size="10.00">RotationTableSerial()</text>
<text text-anchor="start" x="390.56" y="-126.5" font-family="Arial" font-size="10.00">+</text>
<text text-anchor="start" x="400.88" y="-126.5" font-family="Arial" font-size="10.00">~RotationTableSerial()</text>
<text text-anchor="start" x="390.56" y="-110.5" font-family="Arial" font-size="10.00">+</text>
<text text-anchor="start" x="400.88" y="-110.5" font-family="Arial" font-size="10.00">getName()</text>
<text text-anchor="start" x="390.56" y="-94.5" font-family="Arial" font-size="10.00">+</text>
<text text-anchor="start" x="400.88" y="-94.5" font-family="Arial" font-size="10.00">getWorkScreen()</text>
<polygon fill="#666666" stroke="#666666" points="386.25,-170 386.25,-170 502.25,-170 502.25,-170 386.25,-170"/>
<polygon fill="#666666" stroke="#666666" points="386.25,-154 386.25,-154 502.25,-154 502.25,-154 386.25,-154"/>
<polygon fill="none" stroke="#666666" points="386.25,-88 386.25,-188 502.25,-188 502.25,-88 386.25,-88"/>
</a>
</g>
</g>
<!-- Node1&#45;&gt;Node9 -->
<g id="edge8_Node000001_Node000009" class="edge">
<title>Node1&#45;&gt;Node9</title>
<g id="a_edge8_Node000001_Node000009"><a xlink:title=" ">
<path fill="none" stroke="#63b8ff" d="M299.83,-237.11C324.17,-222.33 352.31,-204.76 377.25,-188 380.24,-185.99 383.29,-183.91 386.35,-181.78"/>
<polygon fill="none" stroke="#63b8ff" points="298.04,-234.1 291.3,-242.27 301.67,-240.09 298.04,-234.1"/>
</a>
</g>
</g>
<!-- Node4 -->
<g id="Node000004" class="node">
<title>Node4</title>
<g id="a_Node000004"><a xlink:href="../../d7/d2f/a00258.html" target="_top" xlink:title="A class that represents a remote I/O interface with a baud rate of 57600.">
<polygon fill="white" stroke="none" points="102.5,-52 0,-52 0,0 102.5,0 102.5,-52"/>
<text text-anchor="start" x="4" y="-38.5" font-family="Arial" font-size="10.00">App::RemoteIO57600</text>
<text text-anchor="start" x="49.75" y="-22.5" font-family="Arial" font-size="10.00"> </text>
<text text-anchor="start" x="5.81" y="-6.5" font-family="Arial" font-size="10.00">+</text>
<text text-anchor="start" x="17.62" y="-6.5" font-family="Arial" font-size="10.00">RemoteIO57600()</text>
<polygon fill="#666666" stroke="#666666" points="0,-34 0,-34 102.5,-34 102.5,-34 0,-34"/>
<polygon fill="#666666" stroke="#666666" points="0,-18 0,-18 102.5,-18 102.5,-18 0,-18"/>
<polygon fill="none" stroke="#666666" points="0,0 0,-52 102.5,-52 102.5,0 0,0"/>
</a>
</g>
</g>
<!-- Node3&#45;&gt;Node4 -->
<g id="edge3_Node000003_Node000004" class="edge">
<title>Node3&#45;&gt;Node4</title>
<g id="a_edge3_Node000003_Node000004"><a xlink:title=" ">
<path fill="none" stroke="#63b8ff" d="M119.9,-88.9C105.72,-76.11 90.97,-62.81 78.8,-51.84"/>
<polygon fill="none" stroke="#63b8ff" points="117.27,-91.24 127.04,-95.34 121.96,-86.04 117.27,-91.24"/>
</a>
</g>
</g>
<!-- Node5 -->
<g id="Node000005" class="node">
<title>Node5</title>
<g id="a_Node000005"><a xlink:href="../../d9/d8d/a00262.html" target="_top" xlink:title="The RemoteIO9600 class is responsible for managing the communication with the remote I/O base at a ba...">
<polygon fill="white" stroke="none" points="217.88,-52 120.62,-52 120.62,0 217.88,0 217.88,-52"/>
<text text-anchor="start" x="124.62" y="-38.5" font-family="Arial" font-size="10.00">App::RemoteIO9600</text>
<text text-anchor="start" x="167.75" y="-22.5" font-family="Arial" font-size="10.00"> </text>
<text text-anchor="start" x="126.44" y="-6.5" font-family="Arial" font-size="10.00">+</text>
<text text-anchor="start" x="138.25" y="-6.5" font-family="Arial" font-size="10.00">RemoteIO9600()</text>
<polygon fill="#666666" stroke="#666666" points="120.62,-34 120.62,-34 217.88,-34 217.88,-34 120.62,-34"/>
<polygon fill="#666666" stroke="#666666" points="120.62,-18 120.62,-18 217.88,-18 217.88,-18 120.62,-18"/>
<polygon fill="none" stroke="#666666" points="120.62,0 120.62,-52 217.88,-52 217.88,0 120.62,0"/>
</a>
</g>
</g>
<!-- Node3&#45;&gt;Node5 -->
<g id="edge4_Node000003_Node000005" class="edge">
<title>Node3&#45;&gt;Node5</title>
<g id="a_edge4_Node000003_Node000005"><a xlink:title=" ">
<path fill="none" stroke="#63b8ff" d="M171.05,-76.63C170.74,-67.93 170.43,-59.4 170.16,-51.94"/>
<polygon fill="none" stroke="#63b8ff" points="167.56,-76.73 171.42,-86.6 174.55,-76.48 167.56,-76.73"/>
</a>
</g>
</g>
<!-- Node7 -->
<g id="Node000007" class="node">
<title>Node7</title>
<g id="a_Node000007"><a xlink:href="../../d9/d2a/a00270.html" target="_top" xlink:title="A class representing a rotation table with parallel mode using 6 pins.">
<polygon fill="white" stroke="none" points="384.38,-52 236.12,-52 236.12,0 384.38,0 384.38,-52"/>
<text text-anchor="start" x="240.12" y="-38.5" font-family="Arial" font-size="10.00">App::RotationTableParallel6Pins</text>
<text text-anchor="start" x="308.75" y="-22.5" font-family="Arial" font-size="10.00"> </text>
<text text-anchor="start" x="241.94" y="-6.5" font-family="Arial" font-size="10.00">+</text>
<text text-anchor="start" x="253.75" y="-6.5" font-family="Arial" font-size="10.00">RotationTableParallel6Pins()</text>
<polygon fill="#666666" stroke="#666666" points="236.12,-34 236.12,-34 384.38,-34 384.38,-34 236.12,-34"/>
<polygon fill="#666666" stroke="#666666" points="236.12,-18 236.12,-18 384.38,-18 384.38,-18 236.12,-18"/>
<polygon fill="none" stroke="#666666" points="236.12,0 236.12,-52 384.38,-52 384.38,0 236.12,0"/>
</a>
</g>
</g>
<!-- Node6&#45;&gt;Node7 -->
<g id="edge6_Node000006_Node000007" class="edge">
<title>Node6&#45;&gt;Node7</title>
<g id="a_edge6_Node000006_Node000007"><a xlink:title=" ">
<path fill="none" stroke="#63b8ff" d="M308.45,-76.63C308.76,-67.93 309.07,-59.4 309.34,-51.94"/>
<polygon fill="none" stroke="#63b8ff" points="304.95,-76.48 308.08,-86.6 311.94,-76.73 304.95,-76.48"/>
</a>
</g>
</g>
<!-- Node8 -->
<g id="Node000008" class="node">
<title>Node8</title>
<g id="a_Node000008"><a xlink:href="../../dd/d56/a00274.html" target="_top" xlink:title="A class representing a rotation table that operates in parallel mode with 7 pins.">
<polygon fill="white" stroke="none" points="550.38,-52 402.12,-52 402.12,0 550.38,0 550.38,-52"/>
<text text-anchor="start" x="406.12" y="-38.5" font-family="Arial" font-size="10.00">App::RotationTableParallel7Pins</text>
<text text-anchor="start" x="474.75" y="-22.5" font-family="Arial" font-size="10.00"> </text>
<text text-anchor="start" x="407.94" y="-6.5" font-family="Arial" font-size="10.00">+</text>
<text text-anchor="start" x="419.75" y="-6.5" font-family="Arial" font-size="10.00">RotationTableParallel7Pins()</text>
<polygon fill="#666666" stroke="#666666" points="402.12,-34 402.12,-34 550.38,-34 550.38,-34 402.12,-34"/>
<polygon fill="#666666" stroke="#666666" points="402.12,-18 402.12,-18 550.38,-18 550.38,-18 402.12,-18"/>
<polygon fill="none" stroke="#666666" points="402.12,0 402.12,-52 550.38,-52 550.38,0 402.12,0"/>
</a>
</g>
</g>
<!-- Node6&#45;&gt;Node8 -->
<g id="edge7_Node000006_Node000008" class="edge">
<title>Node6&#45;&gt;Node8</title>
<g id="a_edge7_Node000006_Node000008"><a xlink:title=" ">
<path fill="none" stroke="#63b8ff" d="M377.05,-88.21C400.76,-72.82 419.15,-61.42 435.01,-51.75"/>
<polygon fill="none" stroke="#63b8ff" points="375.42,-85.09 368.96,-93.48 379.25,-90.95 375.42,-85.09"/>
</a>
</g>
</g>
</g>
</svg>
